  0
SECTION
  2
HEADER
  9
$ACADVER
  1
AC1009
  9
$DWGCODEPAGE
  3
ansi_1252
  9
$INSBASE
 10
0.0
 20
0.0
 30
0.0
  9
$EXTMIN
 10
0.0
 20
-37.84928464889529
 30
0.0
  9
$EXTMAX
 10
204.7186889648438
 20
0.0
 30
10.46759510040283
  9
$LIMMIN
 10
0.0
 20
0.0
  9
$LIMMAX
 10
12.0
 20
9.0
  9
$ORTHOMODE
 70
     1
  9
$REGENMODE
 70
     1
  9
$FILLMODE
 70
     1
  9
$QTEXTMODE
 70
     0
  9
$MIRRTEXT
 70
     1
  9
$DRAGMODE
 70
     2
  9
$LTSCALE
 40
1.0
  9
$OSMODE
 70
    37
  9
$ATTMODE
 70
     1
  9
$TEXTSIZE
 40
0.2
  9
$TRACEWID
 40
0.05
  9
$TEXTSTYLE
  7
STANDARD
  9
$CLAYER
  8
0
  9
$CELTYPE
  6
BYLAYER
  9
$CECOLOR
 62
   256
  9
$DIMSCALE
 40
1.0
  9
$DIMASZ
 40
0.18
  9
$DIMEXO
 40
0.0625
  9
$DIMDLI
 40
0.38
  9
$DIMRND
 40
0.0
  9
$DIMDLE
 40
0.0
  9
$DIMEXE
 40
0.18
  9
$DIMTP
 40
0.0
  9
$DIMTM
 40
0.0
  9
$DIMTXT
 40
0.18
  9
$DIMCEN
 40
0.09
  9
$DIMTSZ
 40
0.0
  9
$DIMTOL
 70
     0
  9
$DIMLIM
 70
     0
  9
$DIMTIH
 70
     1
  9
$DIMTOH
 70
     1
  9
$DIMSE1
 70
     0
  9
$DIMSE2
 70
     0
  9
$DIMTAD
 70
     0
  9
$DIMZIN
 70
     0
  9
$DIMBLK
  1

  9
$DIMASO
 70
     1
  9
$DIMSHO
 70
     1
  9
$DIMPOST
  1

  9
$DIMAPOST
  1

  9
$DIMALT
 70
     0
  9
$DIMALTD
 70
     2
  9
$DIMALTF
 40
25.4
  9
$DIMLFAC
 40
1.0
  9
$DIMTOFL
 70
     0
  9
$DIMTVP
 40
0.0
  9
$DIMTIX
 70
     0
  9
$DIMSOXD
 70
     0
  9
$DIMSAH
 70
     0
  9
$DIMBLK1
  1

  9
$DIMBLK2
  1

  9
$DIMSTYLE
  2
STANDARD
  9
$DIMCLRD
 70
     0
  9
$DIMCLRE
 70
     0
  9
$DIMCLRT
 70
     0
  9
$DIMTFAC
 40
1.0
  9
$DIMGAP
 40
0.09
  9
$LUNITS
 70
     2
  9
$LUPREC
 70
     3
  9
$SKETCHINC
 40
0.1
  9
$FILLETRAD
 40
0.5
  9
$AUNITS
 70
     0
  9
$AUPREC
 70
     0
  9
$MENU
  1
.
  9
$ELEVATION
 40
0.0
  9
$PELEVATION
 40
0.0
  9
$THICKNESS
 40
0.0
  9
$LIMCHECK
 70
     0
  9
$CHAMFERA
 40
0.5
  9
$CHAMFERB
 40
0.5
  9
$SKPOLY
 70
     0
  9
$TDCREATE
 40
2456497.685796667
  9
$TDUPDATE
 40
2456497.685796667
  9
$TDINDWG
 40
0.0006828704
  9
$TDUSRTIMER
 40
0.0006828704
  9
$USRTIMER
 70
     1
  9
$ANGBASE
 50
0.0
  9
$ANGDIR
 70
     0
  9
$PDMODE
 70
     0
  9
$PDSIZE
 40
0.0
  9
$PLINEWID
 40
0.0
  9
$COORDS
 70
     1
  9
$SPLFRAME
 70
     0
  9
$SPLINETYPE
 70
     6
  9
$SPLINESEGS
 70
     8
  9
$ATTDIA
 70
     0
  9
$ATTREQ
 70
     1
  9
$HANDLING
 70
     1
  9
$HANDSEED
  5
609
  9
$SURFTAB1
 70
     6
  9
$SURFTAB2
 70
     6
  9
$SURFTYPE
 70
     6
  9
$SURFU
 70
     6
  9
$SURFV
 70
     6
  9
$UCSNAME
  2

  9
$UCSORG
 10
0.0
 20
0.0
 30
0.0
  9
$UCSXDIR
 10
1.0
 20
0.0
 30
0.0
  9
$UCSYDIR
 10
0.0
 20
1.0
 30
0.0
  9
$PUCSNAME
  2

  9
$PUCSORG
 10
0.0
 20
0.0
 30
0.0
  9
$PUCSXDIR
 10
1.0
 20
0.0
 30
0.0
  9
$PUCSYDIR
 10
0.0
 20
1.0
 30
0.0
  9
$USERI1
 70
     0
  9
$USERI2
 70
     0
  9
$USERI3
 70
     0
  9
$USERI4
 70
     0
  9
$USERI5
 70
     0
  9
$USERR1
 40
0.0
  9
$USERR2
 40
0.0
  9
$USERR3
 40
0.0
  9
$USERR4
 40
0.0
  9
$USERR5
 40
0.0
  9
$WORLDVIEW
 70
     1
  9
$SHADEDGE
 70
     3
  9
$SHADEDIF
 70
    70
  9
$TILEMODE
 70
     1
  9
$MAXACTVP
 70
    64
  9
$PLIMCHECK
 70
     0
  9
$PEXTMIN
 10
1.000000000000000E+20
 20
1.000000000000000E+20
 30
1.000000000000000E+20
  9
$PEXTMAX
 10
-1.000000000000000E+20
 20
-1.000000000000000E+20
 30
-1.000000000000000E+20
  9
$PLIMMIN
 10
0.0
 20
0.0
  9
$PLIMMAX
 10
12.0
 20
9.0
  9
$UNITMODE
 70
     0
  9
$VISRETAIN
 70
     1
  9
$PLINEGEN
 70
     0
  9
$PSLTSCALE
 70
     1
  0
ENDSEC
  0
SECTION
  2
TABLES
  0
TABLE
  2
VPORT
 70
     1
  0
VPORT
  2
*ACTIVE
 70
     0
 10
0.0
 20
0.0
 11
1.0
 21
1.0
 12
85.76072952047721
 22
38.33545232636194
 13
0.0
 23
0.0
 14
0.5
 24
0.5
 15
0.5
 25
0.5
 16
-1.0
 26
-1.0
 36
1.0
 17
0.0
 27
0.0
 37
0.0
 40
137.1577631028617
 41
16.4200623549468
 42
50.0
 43
0.0
 44
0.0
 50
0.0
 51
0.0
 71
    16
 72
   100
 73
     0
 74
     1
 75
     0
 76
     0
 77
     0
 78
     1
  0
ENDTAB
  0
TABLE
  2
LTYPE
 70
     1
  0
LTYPE
  2
CONTINUOUS
 70
     0
  3
Solid line
 72
    65
 73
     0
 40
0.0
  0
ENDTAB
  0
TABLE
  2
LAYER
 70
     4
  0
LAYER
  2
0
 70
     0
 62
     7
  6
CONTINUOUS
  0
LAYER
  2
METAL
 70
     0
 62
   160
  6
CONTINUOUS
  0
LAYER
  2
COSTURA
 70
     0
 62
     4
  6
CONTINUOUS
  0
LAYER
  2
COURO
 70
     4
 62
   240
  6
CONTINUOUS
  0
ENDTAB
  0
TABLE
  2
STYLE
 70
     1
  0
STYLE
  2
STANDARD
 70
     0
 40
0.0
 41
1.0
 50
0.0
 71
     0
 42
0.2
  3
txt
  4

  0
ENDTAB
  0
TABLE
  2
VIEW
 70
     0
  0
ENDTAB
  0
TABLE
  2
UCS
 70
     0
  0
ENDTAB
  0
TABLE
  2
APPID
 70
     1
  0
APPID
  2
ACAD
 70
     0
  0
ENDTAB
  0
TABLE
  2
DIMSTYLE
 70
     1
  0
DIMSTYLE
  2
STANDARD
 70
     0
  3

  4

  5

  6

  7

 40
1.0
 41
0.18
 42
0.0625
 43
0.38
 44
0.18
 45
0.0
 46
0.0
 47
0.0
 48
0.0
140
0.18
141
0.09
142
0.0
143
25.4
144
1.0
145
0.0
146
1.0
147
0.09
 71
     0
 72
     0
 73
     1
 74
     1
 75
     0
 76
     0
 77
     0
 78
     0
170
     0
171
     2
172
     0
173
     0
174
     0
175
     0
176
     0
177
     0
178
     0
  0
ENDTAB
  0
ENDSEC
  0
SECTION
  2
BLOCKS
  0
BLOCK
  8
0
  2
$MODEL_SPACE
 70
     0
 10
0.0
 20
0.0
 30
0.0
  3
$MODEL_SPACE
  1

  0
ENDBLK
  5
21
  8
0
  0
BLOCK
 67
     1
  8
0
  2
$PAPER_SPACE
 70
     0
 10
0.0
 20
0.0
 30
0.0
  3
$PAPER_SPACE
  1

  0
ENDBLK
  5
76
 67
     1
  8
0
  0
ENDSEC
  0
SECTION
  2
ENTITIES
  0
POLYLINE
  5
3C
  8
METAL
 66
     1
 10
0.0
 20
0.0
 30
0.0
 70
    64
 71
   108
 72
    58
  0
VERTEX
  5
3D
  8
METAL
 10
0.0
 20
-12.02444219589233
 30
4.65380859375
 70
   192
  0
VERTEX
  5
3E
  8
METAL
 10
0.0
 20
-12.02444219589233
 30
4.65380859375
 70
   192
  0
VERTEX
  5
3F
  8
METAL
 10
0.0
 20
-10.8639760017395
 30
4.65380859375
 70
   192
  0
VERTEX
  5
40
  8
METAL
 10
0.0
 20
-10.8639760017395
 30
4.65380859375
 70
   192
  0
VERTEX
  5
41
  8
METAL
 10
0.0
 20
-12.02444219589233
 30
5.813785552978516
 70
   192
  0
VERTEX
  5
42
  8
METAL
 10
0.0
 20
-12.02444219589233
 30
5.813785552978516
 70
   192
  0
VERTEX
  5
43
  8
METAL
 10
0.0
 20
-10.8639760017395
 30
5.813785552978516
 70
   192
  0
VERTEX
  5
44
  8
METAL
 10
0.0
 20
-10.8639760017395
 30
5.813785552978516
 70
   192
  0
VERTEX
  5
45
  8
METAL
 10
1.309936523437528
 20
-12.02444219589233
 30
1.309959411621094
 70
   192
  0
VERTEX
  5
46
  8
METAL
 10
1.309936523437528
 20
-12.02444219589233
 30
1.309959411621094
 70
   192
  0
VERTEX
  5
47
  8
METAL
 10
1.309936523437528
 20
-10.8639760017395
 30
1.309959411621094
 70
   192
  0
VERTEX
  5
48
  8
METAL
 10
1.309936523437528
 20
-10.8639760017395
 30
1.309959411621094
 70
   192
  0
VERTEX
  5
49
  8
METAL
 10
1.309936523437528
 20
-12.02444219589233
 30
9.15763378143311
 70
   192
  0
VERTEX
  5
4A
  8
METAL
 10
1.309936523437528
 20
-12.02444219589233
 30
9.15763378143311
 70
   192
  0
VERTEX
  5
4B
  8
METAL
 10
1.309936523437528
 20
-10.8639760017395
 30
9.15763378143311
 70
   192
  0
VERTEX
  5
4C
  8
METAL
 10
1.309936523437528
 20
-10.8639760017395
 30
9.15763378143311
 70
   192
  0
VERTEX
  5
4D
  8
METAL
 10
1.974182128906222
 20
-12.02444219589233
 30
4.974174499511719
 70
   192
  0
VERTEX
  5
4E
  8
METAL
 10
1.974182128906222
 20
-10.8639760017395
 30
4.974174499511719
 70
   192
  0
VERTEX
  5
4F
  8
METAL
 10
1.974182128906222
 20
-10.8639760017395
 30
4.974174499511719
 70
   192
  0
VERTEX
  5
50
  8
METAL
 10
1.974182128906222
 20
0.0
 30
4.974174499511719
 70
   192
  0
VERTEX
  5
51
  8
METAL
 10
1.974182128906222
 20
0.0
 30
4.974174499511719
 70
   192
  0
VERTEX
  5
52
  8
METAL
 10
1.974182128906222
 20
-12.02444219589233
 30
5.493419647216797
 70
   192
  0
VERTEX
  5
53
  8
METAL
 10
1.974182128906222
 20
-10.8639760017395
 30
5.493419647216797
 70
   192
  0
VERTEX
  5
54
  8
METAL
 10
1.974182128906222
 20
-10.8639760017395
 30
5.493419647216797
 70
   192
  0
VERTEX
  5
55
  8
METAL
 10
1.974182128906222
 20
0.0
 30
5.493419647216797
 70
   192
  0
VERTEX
  5
56
  8
METAL
 10
1.974182128906222
 20
0.0
 30
5.493419647216797
 70
   192
  0
VERTEX
  5
57
  8
METAL
 10
2.724182128906222
 20
-12.02444219589233
 30
2.724174499511719
 70
   192
  0
VERTEX
  5
58
  8
METAL
 10
2.724182128906222
 20
-10.8639760017395
 30
2.724174499511719
 70
   192
  0
VERTEX
  5
5BD
  8
METAL
 10
2.724182128906222
 20
-10.8639760017395
 30
2.724174499511719
 70
   192
  0
VERTEX
  5
5BE
  8
METAL
 10
2.724182128906222
 20
0.0
 30
2.724174499511719
 70
   192
  0
VERTEX
  5
5B
  8
METAL
 10
2.724182128906222
 20
0.0
 30
2.724174499511719
 70
   192
  0
VERTEX
  5
5C
  8
METAL
 10
2.724182128906222
 20
-12.02444219589233
 30
7.743419647216797
 70
   192
  0
VERTEX
  5
5D
  8
METAL
 10
2.724182128906222
 20
-10.8639760017395
 30
7.743419647216797
 70
   192
  0
VERTEX
  5
5BF
  8
METAL
 10
2.724182128906222
 20
-10.8639760017395
 30
7.743419647216797
 70
   192
  0
VERTEX
  5
5F
  8
METAL
 10
2.724182128906222
 20
0.0
 30
7.743419647216797
 70
   192
  0
VERTEX
  5
60
  8
METAL
 10
2.724182128906222
 20
0.0
 30
7.743419647216797
 70
   192
  0
VERTEX
  5
61
  8
METAL
 10
4.653808593750028
 20
-12.02444219589233
 30
0.0
 70
   192
  0
VERTEX
  5
62
  8
METAL
 10
4.653808593750028
 20
-12.02444219589233
 30
0.0
 70
   192
  0
VERTEX
  5
63
  8
METAL
 10
4.653808593750028
 20
-10.8639760017395
 30
0.0
 70
   192
  0
VERTEX
  5
64
  8
METAL
 10
4.653808593750028
 20
-10.8639760017395
 30
0.0
 70
   192
  0
VERTEX
  5
65
  8
METAL
 10
4.653808593750028
 20
-12.02444219589233
 30
10.46759510040283
 70
   192
  0
VERTEX
  5
66
  8
METAL
 10
4.653808593750028
 20
-12.02444219589233
 30
10.46759510040283
 70
   192
  0
VERTEX
  5
67
  8
METAL
 10
4.653808593750028
 20
-10.8639760017395
 30
10.46759510040283
 70
   192
  0
VERTEX
  5
68
  8
METAL
 10
4.653808593750028
 20
-10.8639760017395
 30
10.46759510040283
 70
   192
  0
VERTEX
  5
69
  8
METAL
 10
4.974182128906222
 20
-12.02444219589233
 30
1.974174499511719
 70
   192
  0
VERTEX
  5
6A
  8
METAL
 10
4.974182128906222
 20
-10.8639760017395
 30
1.974174499511719
 70
   192
  0
VERTEX
  5
5C0
  8
METAL
 10
4.974182128906222
 20
-10.8639760017395
 30
1.974174499511719
 70
   192
  0
VERTEX
  5
5C1
  8
METAL
 10
4.974182128906222
 20
0.0
 30
1.974174499511719
 70
   192
  0
VERTEX
  5
6D
  8
METAL
 10
4.974182128906222
 20
0.0
 30
1.974174499511719
 70
   192
  0
VERTEX
  5
6E
  8
METAL
 10
4.974182128906222
 20
-12.02444219589233
 30
8.4934196472168
 70
   192
  0
VERTEX
  5
6F
  8
METAL
 10
4.974182128906222
 20
-10.8639760017395
 30
8.4934196472168
 70
   192
  0
VERTEX
  5
70
  8
METAL
 10
4.974182128906222
 20
-10.8639760017395
 30
8.4934196472168
 70
   192
  0
VERTEX
  5
71
  8
METAL
 10
4.974182128906222
 20
0.0
 30
8.4934196472168
 70
   192
  0
VERTEX
  5
72
  8
METAL
 10
4.974182128906222
 20
0.0
 30
8.4934196472168
 70
   192
  0
VERTEX
  5
5C2
  8
METAL
 10
199.744514465332
 20
-12.02444219589236
 30
1.974174499511719
 70
   192
  0
VERTEX
  5
5C3
  8
METAL
 10
199.744514465332
 20
-10.86397600173953
 30
1.974174499511719
 70
   192
  0
VERTEX
  5
5C4
  8
METAL
 10
199.744514465332
 20
-10.86397600173953
 30
1.974174499511719
 70
   192
  0
VERTEX
  5
5C5
  8
METAL
 10
199.744514465332
 20
-0.0000000000000284
 30
1.974174499511719
 70
   192
  0
VERTEX
  5
77
  8
METAL
 10
199.744514465332
 20
-0.0000000000000284
 30
1.974174499511719
 70
   192
  0
VERTEX
  5
78
  8
METAL
 10
199.744514465332
 20
-12.02444219589236
 30
8.4934196472168
 70
   192
  0
VERTEX
  5
79
  8
METAL
 10
199.744514465332
 20
-10.86397504806521
 30
8.4934196472168
 70
   192
  0
VERTEX
  5
7A
  8
METAL
 10
199.744514465332
 20
-10.86397504806521
 30
8.4934196472168
 70
   192
  0
VERTEX
  5
7B
  8
METAL
 10
199.744514465332
 20
-0.0000000000000284
 30
8.4934196472168
 70
   192
  0
VERTEX
  5
7C
  8
METAL
 10
199.744514465332
 20
-0.0000000000000284
 30
8.4934196472168
 70
   192
  0
VERTEX
  5
7D
  8
METAL
 10
200.0648803710938
 20
-12.02444219589236
 30
0.0
 70
   192
  0
VERTEX
  5
7E
  8
METAL
 10
200.0648803710938
 20
-12.02444219589236
 30
0.0
 70
   192
  0
VERTEX
  5
7F
  8
METAL
 10
200.0648803710938
 20
-10.86397600173953
 30
0.0
 70
   192
  0
VERTEX
  5
80
  8
METAL
 10
200.0648803710938
 20
-10.86397600173953
 30
0.0
 70
   192
  0
VERTEX
  5
81
  8
METAL
 10
200.0648803710938
 20
-12.02444219589236
 30
10.46759510040283
 70
   192
  0
VERTEX
  5
82
  8
METAL
 10
200.0648803710938
 20
-12.02444219589236
 30
10.46759510040283
 70
   192
  0
VERTEX
  5
83
  8
METAL
 10
200.0648803710938
 20
-10.86397504806521
 30
10.46759510040283
 70
   192
  0
VERTEX
  5
84
  8
METAL
 10
200.0648803710938
 20
-10.86397504806521
 30
10.46759510040283
 70
   192
  0
VERTEX
  5
85
  8
METAL
 10
201.994514465332
 20
-12.02444219589236
 30
2.724174499511719
 70
   192
  0
VERTEX
  5
86
  8
METAL
 10
201.994514465332
 20
-10.86397600173953
 30
2.724174499511719
 70
   192
  0
VERTEX
  5
87
  8
METAL
 10
201.994514465332
 20
-10.86397600173953
 30
2.724174499511719
 70
   192
  0
VERTEX
  5
88
  8
METAL
 10
201.994514465332
 20
-0.0000000000000284
 30
2.724174499511719
 70
   192
  0
VERTEX
  5
89
  8
METAL
 10
201.994514465332
 20
-0.0000000000000284
 30
2.724174499511719
 70
   192
  0
VERTEX
  5
8A
  8
METAL
 10
201.994514465332
 20
-12.02444219589236
 30
7.743419647216797
 70
   192
  0
VERTEX
  5
8B
  8
METAL
 10
201.994514465332
 20
-10.86397504806521
 30
7.743419647216797
 70
   192
  0
VERTEX
  5
8C
  8
METAL
 10
201.994514465332
 20
-10.86397504806521
 30
7.743419647216797
 70
   192
  0
VERTEX
  5
8D
  8
METAL
 10
201.994514465332
 20
-0.0000000000000284
 30
7.743419647216797
 70
   192
  0
VERTEX
  5
8E
  8
METAL
 10
201.994514465332
 20
-0.0000000000000284
 30
7.743419647216797
 70
   192
  0
VERTEX
  5
8F
  8
METAL
 10
202.744514465332
 20
-12.02444219589236
 30
4.974174499511719
 70
   192
  0
VERTEX
  5
90
  8
METAL
 10
202.744514465332
 20
-10.86397600173953
 30
4.974174499511719
 70
   192
  0
VERTEX
  5
91
  8
METAL
 10
202.744514465332
 20
-10.86397600173953
 30
4.974174499511719
 70
   192
  0
VERTEX
  5
5C6
  8
METAL
 10
202.744514465332
 20
-0.0000000000000284
 30
4.974174499511719
 70
   192
  0
VERTEX
  5
5C7
  8
METAL
 10
202.744514465332
 20
-0.0000000000000284
 30
4.974174499511719
 70
   192
  0
VERTEX
  5
94
  8
METAL
 10
202.744514465332
 20
-12.02444219589236
 30
5.493419647216797
 70
   192
  0
VERTEX
  5
95
  8
METAL
 10
202.744514465332
 20
-10.86397504806521
 30
5.493419647216797
 70
   192
  0
VERTEX
  5
96
  8
METAL
 10
202.744514465332
 20
-10.86397504806521
 30
5.493419647216797
 70
   192
  0
VERTEX
  5
5C8
  8
METAL
 10
202.744514465332
 20
-0.0000000000000284
 30
5.493419647216797
 70
   192
  0
VERTEX
  5
5C9
  8
METAL
 10
202.744514465332
 20
-0.0000000000000284
 30
5.493419647216797
 70
   192
  0
VERTEX
  5
99
  8
METAL
 10
203.4087295532227
 20
-12.02444219589236
 30
1.309959411621094
 70
   192
  0
VERTEX
  5
9A
  8
METAL
 10
203.4087295532227
 20
-12.02444219589236
 30
1.309959411621094
 70
   192
  0
VERTEX
  5
9B
  8
METAL
 10
203.4087295532227
 20
-10.86397600173953
 30
1.309959411621094
 70
   192
  0
VERTEX
  5
9C
  8
METAL
 10
203.4087295532227
 20
-10.86397600173953
 30
1.309959411621094
 70
   192
  0
VERTEX
  5
9D
  8
METAL
 10
203.4087295532227
 20
-12.02444219589236
 30
9.15763378143311
 70
   192
  0
VERTEX
  5
9E
  8
METAL
 10
203.4087295532227
 20
-12.02444219589236
 30
9.15763378143311
 70
   192
  0
VERTEX
  5
9F
  8
METAL
 10
203.4087295532227
 20
-10.86397504806521
 30
9.15763378143311
 70
   192
  0
VERTEX
  5
A0
  8
METAL
 10
203.4087295532227
 20
-10.86397504806521
 30
9.15763378143311
 70
   192
  0
VERTEX
  5
A1
  8
METAL
 10
204.7186889648438
 20
-12.02444219589236
 30
4.65380859375
 70
   192
  0
VERTEX
  5
A2
  8
METAL
 10
204.7186889648438
 20
-12.02444219589236
 30
4.65380859375
 70
   192
  0
VERTEX
  5
A3
  8
METAL
 10
204.7186889648438
 20
-10.86397600173953
 30
4.65380859375
 70
   192
  0
VERTEX
  5
A4
  8
METAL
 10
204.7186889648438
 20
-10.86397600173953
 30
4.65380859375
 70
   192
  0
VERTEX
  5
A5
  8
METAL
 10
204.7186889648438
 20
-12.02444219589236
 30
5.813785552978516
 70
   192
  0
VERTEX
  5
A6
  8
METAL
 10
204.7186889648438
 20
-12.02444219589236
 30
5.813785552978516
 70
   192
  0
VERTEX
  5
A7
  8
METAL
 10
204.7186889648438
 20
-10.86397504806521
 30
5.813785552978516
 70
   192
  0
VERTEX
  5
A8
  8
METAL
 10
204.7186889648438
 20
-10.86397504806521
 30
5.813785552978516
 70
   192
  0
VERTEX
  5
A9
  8
METAL
 10
0.0
 20
0.0
 30
0.0
 70
   128
 71
    59
 72
    49
 73
    53
 74
    63
  0
VERTEX
  5
AA
  8
METAL
 10
0.0
 20
0.0
 30
0.0
 70
   128
 71
    78
 72
    73
 73
    83
 74
    88
  0
VERTEX
  5
AB
  8
METAL
 10
0.0
 20
0.0
 30
0.0
 70
   128
 71
    54
 72
    52
 73
    62
 74
    64
  0
VERTEX
  5
AC
  8
METAL
 10
0.0
 20
0.0
 30
0.0
 70
   128
 71
    20
 72
    18
 73
    23
 74
    25
  0
VERTEX
  5
AD
  8
METAL
 10
0.0
 20
0.0
 30
0.0
 70
   128
 71
    58
 72
    56
 73
    46
 74
    48
  0
VERTEX
  5
AE
  8
METAL
 10
0.0
 20
0.0
 30
0.0
 70
   128
 71
    92
 72
    90
 73
    85
 74
    87
  0
VERTEX
  5
AF
  8
METAL
 10
0.0
 20
0.0
 30
0.0
 70
   128
 71
    35
 72
    33
 73
    52
 74
    54
  0
VERTEX
  5
B0
  8
METAL
 10
0.0
 20
0.0
 30
0.0
 70
   128
 71
    98
 72
   100
 73
    72
 74
    70
  0
VERTEX
  5
B1
  8
METAL
 10
0.0
 20
0.0
 30
0.0
 70
   128
 71
    30
 72
    28
 73
    18
 74
    20
  0
VERTEX
  5
B2
  8
METAL
 10
0.0
 20
0.0
 30
0.0
 70
   128
 71
    77
 72
    75
 73
    56
 74
    58
  0
VERTEX
  5
B3
  8
METAL
 10
0.0
 20
0.0
 30
0.0
 70
   128
 71
    25
 72
    23
 73
    33
 74
    35
  0
VERTEX
  5
B4
  8
METAL
 10
0.0
 20
0.0
 30
0.0
 70
   128
 71
   106
 72
   108
 73
   100
 74
    98
  0
VERTEX
  5
B5
  8
METAL
 10
0.0
 20
0.0
 30
0.0
 70
   128
 71
    48
 72
    46
 73
    28
 74
    30
  0
VERTEX
  5
B6
  8
METAL
 10
0.0
 20
0.0
 30
0.0
 70
   128
 71
    87
 72
    85
 73
    75
 74
    77
  0
VERTEX
  5
B7
  8
METAL
 10
0.0
 20
0.0
 30
0.0
 70
   128
 71
    42
 72
    70
 73
    72
 74
    44
  0
VERTEX
  5
B8
  8
METAL
 10
0.0
 20
0.0
 30
0.0
 70
   128
 71
     1
 72
     5
 73
     7
 74
     3
  0
VERTEX
  5
B9
  8
METAL
 10
0.0
 20
0.0
 30
0.0
 70
   128
 71
    65
 72
    37
 73
    39
 74
    67
  0
VERTEX
  5
BA
  8
METAL
 10
0.0
 20
0.0
 30
0.0
 70
   128
 71
   106
 72
   102
 73
   104
 74
   108
  0
VERTEX
  5
BB
  8
METAL
 10
0.0
 20
0.0
 30
0.0
 70
   128
 71
    13
 72
    42
 73
    44
 74
    15
  0
VERTEX
  5
BC
  8
METAL
 10
0.0
 20
0.0
 30
0.0
 70
   128
 71
    82
 72
    64
 73
    62
 74
    80
  0
VERTEX
  5
BD
  8
METAL
 10
0.0
 20
0.0
 30
0.0
 70
   128
 71
     9
 72
     1
 73
     3
 74
    11
  0
VERTEX
  5
BE
  8
METAL
 10
0.0
 20
0.0
 30
0.0
 70
   128
 71
    94
 72
    65
 73
    67
 74
    96
  0
VERTEX
  5
BF
  8
METAL
 10
0.0
 20
0.0
 30
0.0
 70
   128
 71
     5
 72
    13
 73
    15
 74
     7
  0
VERTEX
  5
C0
  8
METAL
 10
0.0
 20
0.0
 30
0.0
 70
   128
 71
    92
 72
    82
 73
    80
 74
    90
  0
VERTEX
  5
C1
  8
METAL
 10
0.0
 20
0.0
 30
0.0
 70
   128
 71
    37
 72
     9
 73
    11
 74
    39
  0
VERTEX
  5
C2
  8
METAL
 10
0.0
 20
0.0
 30
0.0
 70
   128
 71
   102
 72
    94
 73
    96
 74
   104
  0
VERTEX
  5
C3
  8
METAL
 10
0.0
 20
0.0
 30
0.0
 70
   128
 71
    50
 72
    60
 73
    69
 74
    41
  0
VERTEX
  5
C4
  8
METAL
 10
0.0
 20
0.0
 30
0.0
 70
   128
 71
    60
 72
    78
 73
    97
 74
    69
  0
VERTEX
  5
C5
  8
METAL
 10
0.0
 20
0.0
 30
0.0
 70
   128
 71
    78
 72
    88
 73
   105
 74
    97
  0
VERTEX
  5
C6
  8
METAL
 10
0.0
 20
0.0
 30
0.0
 70
   128
 71
    88
 72
    83
 73
   101
 74
   105
  0
VERTEX
  5
C7
  8
METAL
 10
0.0
 20
0.0
 30
0.0
 70
   128
 71
    83
 72
    73
 73
    93
 74
   101
  0
VERTEX
  5
C8
  8
METAL
 10
0.0
 20
0.0
 30
0.0
 70
   128
 71
    73
 72
    55
 73
    66
 74
    93
  0
VERTEX
  5
C9
  8
METAL
 10
0.0
 20
0.0
 30
0.0
 70
   128
 71
    55
 72
    45
 73
    38
 74
    66
  0
VERTEX
  5
CA
  8
METAL
 10
0.0
 20
0.0
 30
0.0
 70
   128
 71
    45
 72
    27
 73
    10
 74
    38
  0
VERTEX
  5
CB
  8
METAL
 10
0.0
 20
0.0
 30
0.0
 70
   128
 71
    27
 72
    17
 73
     2
 74
    10
  0
VERTEX
  5
CC
  8
METAL
 10
0.0
 20
0.0
 30
0.0
 70
   128
 71
    17
 72
    22
 73
     6
 74
     2
  0
VERTEX
  5
CD
  8
METAL
 10
0.0
 20
0.0
 30
0.0
 70
   128
 71
    22
 72
    32
 73
    14
 74
     6
  0
VERTEX
  5
CE
  8
METAL
 10
0.0
 20
0.0
 30
0.0
 70
   128
 71
    32
 72
    50
 73
    41
 74
    14
  0
VERTEX
  5
CF
  8
METAL
 10
0.0
 20
0.0
 30
0.0
 70
   128
 71
    61
 72
    51
 73
    43
 74
    71
  0
VERTEX
  5
D0
  8
METAL
 10
0.0
 20
0.0
 30
0.0
 70
   128
 71
    51
 72
    34
 73
    16
 74
    43
  0
VERTEX
  5
D1
  8
METAL
 10
0.0
 20
0.0
 30
0.0
 70
   128
 71
    34
 72
    24
 73
     8
 74
    16
  0
VERTEX
  5
D2
  8
METAL
 10
0.0
 20
0.0
 30
0.0
 70
   128
 71
    24
 72
    19
 73
     4
 74
     8
  0
VERTEX
  5
D3
  8
METAL
 10
0.0
 20
0.0
 30
0.0
 70
   128
 71
    19
 72
    29
 73
    12
 74
     4
  0
VERTEX
  5
D4
  8
METAL
 10
0.0
 20
0.0
 30
0.0
 70
   128
 71
    29
 72
    47
 73
    40
 74
    12
  0
VERTEX
  5
D5
  8
METAL
 10
0.0
 20
0.0
 30
0.0
 70
   128
 71
    47
 72
    57
 73
    68
 74
    40
  0
VERTEX
  5
D6
  8
METAL
 10
0.0
 20
0.0
 30
0.0
 70
   128
 71
    57
 72
    74
 73
    95
 74
    68
  0
VERTEX
  5
D7
  8
METAL
 10
0.0
 20
0.0
 30
0.0
 70
   128
 71
    74
 72
    84
 73
   103
 74
    95
  0
VERTEX
  5
D8
  8
METAL
 10
0.0
 20
0.0
 30
0.0
 70
   128
 71
    84
 72
    89
 73
   107
 74
   103
  0
VERTEX
  5
D9
  8
METAL
 10
0.0
 20
0.0
 30
0.0
 70
   128
 71
    89
 72
    79
 73
    99
 74
   107
  0
VERTEX
  5
DA
  8
METAL
 10
0.0
 20
0.0
 30
0.0
 70
   128
 71
    79
 72
    61
 73
    71
 74
    99
  0
VERTEX
  5
DB
  8
METAL
 10
0.0
 20
0.0
 30
0.0
 70
   128
 71
    50
 72
    45
 73
    55
 74
    60
  0
VERTEX
  5
DC
  8
METAL
 10
0.0
 20
0.0
 30
0.0
 70
   128
 71
    60
 72
    55
 73
    73
 74
    78
  0
VERTEX
  5
DD
  8
METAL
 10
0.0
 20
0.0
 30
0.0
 70
   128
 71
    32
 72
    27
 73
    45
 74
    50
  0
VERTEX
  5
DE
  8
METAL
 10
0.0
 20
0.0
 30
0.0
 70
   128
 71
    22
 72
    17
 73
    27
 74
    32
  0
VERTEX
  5
DF
  8
METAL
 10
0.0
 20
0.0
 30
0.0
 70
   128
 71
    31
 72
    36
 73
    53
 74
    49
  0
VERTEX
  5
E0
  8
METAL
 10
0.0
 20
0.0
 30
0.0
 70
   128
 71
    21
 72
    26
 73
    36
 74
    31
  0
VERTEX
  5
E1
  8
METAL
 10
0.0
 20
0.0
 30
0.0
 70
   128
 71
    81
 72
    76
 73
    59
 74
    63
  0
VERTEX
  5
E2
  8
METAL
 10
0.0
 20
0.0
 30
0.0
 70
   128
 71
    91
 72
    86
 73
    76
 74
    81
  0
SEQEND
  5
601
  8
METAL
  0
POLYLINE
  5
E5
  8
COSTURA
 66
     1
 10
0.0
 20
0.0
 30
0.0
 70
    64
 71
   288
 72
    72
  0
VERTEX
  5
E6
  8
COSTURA
 10
88.66406250000003
 20
-28.8380198478699
 30
3.912300109863267
 70
   192
  0
VERTEX
  5
E7
  8
COSTURA
 10
88.66406250000003
 20
-29.58794355392456
 30
3.912300109863267
 70
   192
  0
VERTEX
  5
E8
  8
COSTURA
 10
86.56427001953122
 20
-29.58794355392456
 30
3.912300109863267
 70
   192
  0
VERTEX
  5
E9
  8
COSTURA
 10
86.56427001953122
 20
-28.83801984786987
 30
3.912300109863267
 70
   192
  0
VERTEX
  5
EA
  8
COSTURA
 10
85.98281860351562
 20
-28.83801984786987
 30
3.912300109863267
 70
   192
  0
VERTEX
  5
EB
  8
COSTURA
 10
85.98281860351562
 20
-29.58794355392456
 30
3.912300109863267
 70
   192
  0
VERTEX
  5
EC
  8
COSTURA
 10
83.88304138183594
 20
-29.58794355392456
 30
3.912300109863267
 70
   192
  0
VERTEX
  5
ED
  8
COSTURA
 10
83.88304138183594
 20
-28.83801984786987
 30
3.912300109863267
 70
   192
  0
VERTEX
  5
EE
  8
COSTURA
 10
83.30158996582034
 20
-28.83801984786987
 30
3.912300109863267
 70
   192
  0
VERTEX
  5
EF
  8
COSTURA
 10
83.30158996582034
 20
-29.58794355392456
 30
3.912300109863267
 70
   192
  0
VERTEX
  5
F0
  8
COSTURA
 10
81.20181274414062
 20
-29.58794355392456
 30
3.912300109863267
 70
   192
  0
VERTEX
  5
F1
  8
COSTURA
 10
81.20181274414062
 20
-28.83801984786987
 30
3.912300109863267
 70
   192
  0
VERTEX
  5
F2
  8
COSTURA
 10
80.62036132812503
 20
-28.83801984786987
 30
3.912300109863267
 70
   192
  0
VERTEX
  5
F3
  8
COSTURA
 10
80.62036132812503
 20
-29.58794355392456
 30
3.912300109863267
 70
   192
  0
VERTEX
  5
F4
  8
COSTURA
 10
78.52056884765622
 20
-29.58794355392456
 30
3.912300109863267
 70
   192
  0
VERTEX
  5
F5
  8
COSTURA
 10
78.52056884765622
 20
-28.83801984786987
 30
3.912300109863267
 70
   192
  0
VERTEX
  5
F6
  8
COSTURA
 10
77.93911743164062
 20
-28.83801984786987
 30
3.9123020172119
 70
   192
  0
VERTEX
  5
F7
  8
COSTURA
 10
77.93911743164062
 20
-29.58794355392456
 30
3.9123020172119
 70
   192
  0
VERTEX
  5
F8
  8
COSTURA
 10
75.83934020996094
 20
-29.58794355392456
 30
3.912300109863267
 70
   192
  0
VERTEX
  5
F9
  8
COSTURA
 10
75.83934020996094
 20
-28.83801984786987
 30
3.912300109863267
 70
   192
  0
VERTEX
  5
FA
  8
COSTURA
 10
75.28298950195312
 20
-28.83801984786987
 30
3.912300109863267
 70
   192
  0
VERTEX
  5
FB
  8
COSTURA
 10
75.28298950195312
 20
-29.58794355392456
 30
3.912300109863267
 70
   192
  0
VERTEX
  5
FC
  8
COSTURA
 10
73.18319702148443
 20
-29.58794355392456
 30
3.912300109863267
 70
   192
  0
VERTEX
  5
FD
  8
COSTURA
 10
73.18319702148443
 20
-28.83801984786987
 30
3.912300109863267
 70
   192
  0
VERTEX
  5
FE
  8
COSTURA
 10
72.60176086425784
 20
-28.83801984786987
 30
3.912300109863267
 70
   192
  0
VERTEX
  5
FF
  8
COSTURA
 10
72.60176086425784
 20
-29.58794355392456
 30
3.912300109863267
 70
   192
  0
VERTEX
  5
100
  8
COSTURA
 10
70.50196838378912
 20
-29.58794355392456
 30
3.912300109863267
 70
   192
  0
VERTEX
  5
101
  8
COSTURA
 10
70.50196838378912
 20
-28.83801984786987
 30
3.912300109863267
 70
   192
  0
VERTEX
  5
102
  8
COSTURA
 10
123.4666137695312
 20
-28.8380198478699
 30
3.912300109863267
 70
   192
  0
VERTEX
  5
103
  8
COSTURA
 10
123.4666137695312
 20
-29.58794355392456
 30
3.912300109863267
 70
   192
  0
VERTEX
  5
104
  8
COSTURA
 10
121.3668212890625
 20
-29.58794355392456
 30
3.912300109863267
 70
   192
  0
VERTEX
  5
105
  8
COSTURA
 10
121.3668212890625
 20
-28.8380198478699
 30
3.912300109863267
 70
   192
  0
VERTEX
  5
106
  8
COSTURA
 10
120.7853698730469
 20
-28.8380198478699
 30
3.9123020172119
 70
   192
  0
VERTEX
  5
107
  8
COSTURA
 10
120.7853698730469
 20
-29.58794355392456
 30
3.9123020172119
 70
   192
  0
VERTEX
  5
108
  8
COSTURA
 10
118.6855926513672
 20
-29.58794355392456
 30
3.9123020172119
 70
   192
  0
VERTEX
  5
109
  8
COSTURA
 10
118.6855926513672
 20
-28.8380198478699
 30
3.9123020172119
 70
   192
  0
VERTEX
  5
10A
  8
COSTURA
 10
118.1041412353516
 20
-28.8380198478699
 30
3.9123020172119
 70
   192
  0
VERTEX
  5
10B
  8
COSTURA
 10
118.1041412353516
 20
-29.58794355392456
 30
3.9123020172119
 70
   192
  0
VERTEX
  5
10C
  8
COSTURA
 10
116.0043640136719
 20
-29.58794355392456
 30
3.9123020172119
 70
   192
  0
VERTEX
  5
10D
  8
COSTURA
 10
116.0043640136719
 20
-28.8380198478699
 30
3.9123020172119
 70
   192
  0
VERTEX
  5
10E
  8
COSTURA
 10
115.4229125976562
 20
-28.8380198478699
 30
3.912300109863267
 70
   192
  0
VERTEX
  5
10F
  8
COSTURA
 10
115.4229125976562
 20
-29.58794355392456
 30
3.912300109863267
 70
   192
  0
VERTEX
  5
110
  8
COSTURA
 10
113.3231201171875
 20
-29.58794355392456
 30
3.912300109863267
 70
   192
  0
VERTEX
  5
111
  8
COSTURA
 10
113.3231201171875
 20
-28.8380198478699
 30
3.912300109863267
 70
   192
  0
VERTEX
  5
112
  8
COSTURA
 10
112.7416687011719
 20
-28.8380198478699
 30
3.9123020172119
 70
   192
  0
VERTEX
  5
113
  8
COSTURA
 10
112.7416687011719
 20
-29.58794355392456
 30
3.9123020172119
 70
   192
  0
VERTEX
  5
114
  8
COSTURA
 10
110.6418914794922
 20
-29.58794355392456
 30
3.9123020172119
 70
   192
  0
VERTEX
  5
115
  8
COSTURA
 10
110.6418914794922
 20
-28.8380198478699
 30
3.9123020172119
 70
   192
  0
VERTEX
  5
116
  8
COSTURA
 10
110.0855407714844
 20
-28.8380198478699
 30
3.9123020172119
 70
   192
  0
VERTEX
  5
117
  8
COSTURA
 10
110.0855407714844
 20
-29.58794355392456
 30
3.9123020172119
 70
   192
  0
VERTEX
  5
118
  8
COSTURA
 10
107.9857482910156
 20
-29.58794355392456
 30
3.9123020172119
 70
   192
  0
VERTEX
  5
119
  8
COSTURA
 10
107.9857482910156
 20
-28.8380198478699
 30
3.9123020172119
 70
   192
  0
VERTEX
  5
11A
  8
COSTURA
 10
107.4043121337891
 20
-28.8380198478699
 30
3.9123020172119
 70
   192
  0
VERTEX
  5
11B
  8
COSTURA
 10
107.4043121337891
 20
-29.58794355392456
 30
3.9123020172119
 70
   192
  0
VERTEX
  5
11C
  8
COSTURA
 10
105.3045196533203
 20
-29.58794355392456
 30
3.912300109863267
 70
   192
  0
VERTEX
  5
11D
  8
COSTURA
 10
105.3045196533203
 20
-28.8380198478699
 30
3.912300109863267
 70
   192
  0
VERTEX
  5
11E
  8
COSTURA
 10
104.7230682373047
 20
-28.8380198478699
 30
3.912298202514648
 70
   192
  0
VERTEX
  5
11F
  8
COSTURA
 10
104.7230682373047
 20
-29.58794355392456
 30
3.912298202514648
 70
   192
  0
VERTEX
  5
120
  8
COSTURA
 10
102.623291015625
 20
-29.58794355392456
 30
3.912298202514648
 70
   192
  0
VERTEX
  5
121
  8
COSTURA
 10
102.623291015625
 20
-28.8380198478699
 30
3.912298202514648
 70
   192
  0
VERTEX
  5
122
  8
COSTURA
 10
102.0418395996094
 20
-28.8380198478699
 30
3.912300109863267
 70
   192
  0
VERTEX
  5
123
  8
COSTURA
 10
102.0418395996094
 20
-29.58794355392456
 30
3.912300109863267
 70
   192
  0
VERTEX
  5
124
  8
COSTURA
 10
99.94206237792972
 20
-29.58794355392456
 30
3.912300109863267
 70
   192
  0
VERTEX
  5
125
  8
COSTURA
 10
99.94206237792972
 20
-28.8380198478699
 30
3.912300109863267
 70
   192
  0
VERTEX
  5
126
  8
COSTURA
 10
99.36061096191412
 20
-28.8380198478699
 30
3.9123020172119
 70
   192
  0
VERTEX
  5
127
  8
COSTURA
 10
99.36061096191412
 20
-29.58794355392456
 30
3.9123020172119
 70
   192
  0
VERTEX
  5
128
  8
COSTURA
 10
97.26081848144534
 20
-29.58794355392456
 30
3.9123020172119
 70
   192
  0
VERTEX
  5
129
  8
COSTURA
 10
97.26081848144534
 20
-28.8380198478699
 30
3.9123020172119
 70
   192
  0
VERTEX
  5
12A
  8
COSTURA
 10
96.67936706542972
 20
-28.8380198478699
 30
3.9123020172119
 70
   192
  0
VERTEX
  5
12B
  8
COSTURA
 10
96.67936706542972
 20
-29.58794355392456
 30
3.9123020172119
 70
   192
  0
VERTEX
  5
12C
  8
COSTURA
 10
94.57958984375003
 20
-29.58794355392456
 30
3.912300109863267
 70
   192
  0
VERTEX
  5
12D
  8
COSTURA
 10
94.57958984375003
 20
-28.8380198478699
 30
3.912300109863267
 70
   192
  0
VERTEX
  5
12E
  8
COSTURA
 10
93.99813842773443
 20
-28.8380198478699
 30
3.912300109863267
 70
   192
  0
VERTEX
  5
12F
  8
COSTURA
 10
93.99813842773443
 20
-29.58794355392456
 30
3.912300109863267
 70
   192
  0
VERTEX
  5
130
  8
COSTURA
 10
91.89834594726562
 20
-29.58794355392456
 30
3.912300109863267
 70
   192
  0
VERTEX
  5
131
  8
COSTURA
 10
91.89834594726562
 20
-28.8380198478699
 30
3.912300109863267
 70
   192
  0
VERTEX
  5
132
  8
COSTURA
 10
91.31689453125003
 20
-28.8380198478699
 30
3.9123020172119
 70
   192
  0
VERTEX
  5
133
  8
COSTURA
 10
91.31689453125003
 20
-29.58794355392456
 30
3.9123020172119
 70
   192
  0
VERTEX
  5
134
  8
COSTURA
 10
89.21711730957034
 20
-29.58794355392456
 30
3.9123020172119
 70
   192
  0
VERTEX
  5
135
  8
COSTURA
 10
89.21711730957034
 20
-28.8380198478699
 30
3.9123020172119
 70
   192
  0
VERTEX
  5
136
  8
COSTURA
 10
158.3344116210938
 20
-28.8380198478699
 30
3.912300109863267
 70
   192
  0
VERTEX
  5
137
  8
COSTURA
 10
158.3344116210938
 20
-29.58794355392459
 30
3.912300109863267
 70
   192
  0
VERTEX
  5
138
  8
COSTURA
 10
156.234619140625
 20
-29.58794355392459
 30
3.912300109863267
 70
   192
  0
VERTEX
  5
139
  8
COSTURA
 10
156.234619140625
 20
-28.8380198478699
 30
3.912300109863267
 70
   192
  0
VERTEX
  5
13A
  8
COSTURA
 10
155.6531677246094
 20
-28.8380198478699
 30
3.9123020172119
 70
   192
  0
VERTEX
  5
13B
  8
COSTURA
 10
155.6531677246094
 20
-29.58794355392459
 30
3.9123020172119
 70
   192
  0
VERTEX
  5
13C
  8
COSTURA
 10
153.5533905029297
 20
-29.58794355392459
 30
3.912300109863267
 70
   192
  0
VERTEX
  5
13D
  8
COSTURA
 10
153.5533905029297
 20
-28.8380198478699
 30
3.912300109863267
 70
   192
  0
VERTEX
  5
13E
  8
COSTURA
 10
152.9719390869141
 20
-28.8380198478699
 30
3.912300109863267
 70
   192
  0
VERTEX
  5
13F
  8
COSTURA
 10
152.9719390869141
 20
-29.58794355392459
 30
3.912300109863267
 70
   192
  0
VERTEX
  5
140
  8
COSTURA
 10
150.8721618652344
 20
-29.58794355392459
 30
3.912300109863267
 70
   192
  0
VERTEX
  5
141
  8
COSTURA
 10
150.8721618652344
 20
-28.8380198478699
 30
3.912300109863267
 70
   192
  0
VERTEX
  5
142
  8
COSTURA
 10
150.2907104492188
 20
-28.8380198478699
 30
3.912300109863267
 70
   192
  0
VERTEX
  5
143
  8
COSTURA
 10
150.2907104492188
 20
-29.58794355392459
 30
3.912300109863267
 70
   192
  0
VERTEX
  5
144
  8
COSTURA
 10
148.19091796875
 20
-29.58794355392459
 30
3.912300109863267
 70
   192
  0
VERTEX
  5
145
  8
COSTURA
 10
148.19091796875
 20
-28.8380198478699
 30
3.912300109863267
 70
   192
  0
VERTEX
  5
146
  8
COSTURA
 10
147.6094665527344
 20
-28.8380198478699
 30
3.9123020172119
 70
   192
  0
VERTEX
  5
147
  8
COSTURA
 10
147.6094665527344
 20
-29.58794355392459
 30
3.9123020172119
 70
   192
  0
VERTEX
  5
148
  8
COSTURA
 10
145.5096893310547
 20
-29.58794355392456
 30
3.9123020172119
 70
   192
  0
VERTEX
  5
149
  8
COSTURA
 10
145.5096893310547
 20
-28.8380198478699
 30
3.9123020172119
 70
   192
  0
VERTEX
  5
14A
  8
COSTURA
 10
144.9533386230469
 20
-28.8380198478699
 30
3.9123020172119
 70
   192
  0
VERTEX
  5
14B
  8
COSTURA
 10
144.9533386230469
 20
-29.58794355392456
 30
3.9123020172119
 70
   192
  0
VERTEX
  5
14C
  8
COSTURA
 10
142.8535461425781
 20
-29.58794355392456
 30
3.912300109863267
 70
   192
  0
VERTEX
  5
14D
  8
COSTURA
 10
142.8535461425781
 20
-28.8380198478699
 30
3.912300109863267
 70
   192
  0
VERTEX
  5
14E
  8
COSTURA
 10
142.2720947265625
 20
-28.8380198478699
 30
3.912300109863267
 70
   192
  0
VERTEX
  5
14F
  8
COSTURA
 10
142.2720947265625
 20
-29.58794355392456
 30
3.912300109863267
 70
   192
  0
VERTEX
  5
150
  8
COSTURA
 10
140.1723175048828
 20
-29.58794355392456
 30
3.912300109863267
 70
   192
  0
VERTEX
  5
151
  8
COSTURA
 10
140.1723175048828
 20
-28.8380198478699
 30
3.912300109863267
 70
   192
  0
VERTEX
  5
152
  8
COSTURA
 10
139.5908660888672
 20
-28.8380198478699
 30
3.912296295166016
 70
   192
  0
VERTEX
  5
153
  8
COSTURA
 10
139.5908660888672
 20
-29.58794355392456
 30
3.912296295166016
 70
   192
  0
VERTEX
  5
154
  8
COSTURA
 10
137.4910888671875
 20
-29.58794736862183
 30
3.912298202514648
 70
   192
  0
VERTEX
  5
155
  8
COSTURA
 10
137.4910888671875
 20
-28.83802366256714
 30
3.912298202514648
 70
   192
  0
VERTEX
  5
156
  8
COSTURA
 10
136.9096374511719
 20
-28.83802366256714
 30
3.912300109863267
 70
   192
  0
VERTEX
  5
157
  8
COSTURA
 10
136.9096374511719
 20
-29.58794736862183
 30
3.912300109863267
 70
   192
  0
VERTEX
  5
158
  8
COSTURA
 10
134.8098449707031
 20
-29.58794736862183
 30
3.912300109863267
 70
   192
  0
VERTEX
  5
159
  8
COSTURA
 10
134.8098449707031
 20
-28.83802366256714
 30
3.912300109863267
 70
   192
  0
VERTEX
  5
15A
  8
COSTURA
 10
134.2284088134766
 20
-28.83802366256714
 30
3.912300109863267
 70
   192
  0
VERTEX
  5
15B
  8
COSTURA
 10
134.2284088134766
 20
-29.58794736862183
 30
3.912300109863267
 70
   192
  0
VERTEX
  5
15C
  8
COSTURA
 10
132.1286163330078
 20
-29.58794736862183
 30
3.912300109863267
 70
   192
  0
VERTEX
  5
15D
  8
COSTURA
 10
132.1286163330078
 20
-28.83802366256714
 30
3.912300109863267
 70
   192
  0
VERTEX
  5
15E
  8
COSTURA
 10
131.5471649169922
 20
-28.83802366256714
 30
3.912300109863267
 70
   192
  0
VERTEX
  5
15F
  8
COSTURA
 10
131.5471649169922
 20
-29.58794736862183
 30
3.912300109863267
 70
   192
  0
VERTEX
  5
160
  8
COSTURA
 10
129.4473876953125
 20
-29.58794736862183
 30
3.912300109863267
 70
   192
  0
VERTEX
  5
161
  8
COSTURA
 10
129.4473876953125
 20
-28.83802366256714
 30
3.912300109863267
 70
   192
  0
VERTEX
  5
162
  8
COSTURA
 10
128.8659362792969
 20
-28.83802366256714
 30
3.912300109863267
 70
   192
  0
VERTEX
  5
163
  8
COSTURA
 10
128.8659362792969
 20
-29.58794736862183
 30
3.912300109863267
 70
   192
  0
VERTEX
  5
164
  8
COSTURA
 10
126.7661437988281
 20
-29.58794736862183
 30
3.912300109863267
 70
   192
  0
VERTEX
  5
165
  8
COSTURA
 10
126.7661437988281
 20
-28.83802366256714
 30
3.912300109863267
 70
   192
  0
VERTEX
  5
166
  8
COSTURA
 10
126.1846923828125
 20
-28.83802366256714
 30
3.9123020172119
 70
   192
  0
VERTEX
  5
167
  8
COSTURA
 10
126.1846923828125
 20
-29.58794736862183
 30
3.9123020172119
 70
   192
  0
VERTEX
  5
168
  8
COSTURA
 10
124.0849151611328
 20
-29.58794736862183
 30
3.912300109863267
 70
   192
  0
VERTEX
  5
169
  8
COSTURA
 10
124.0849151611328
 20
-28.83802366256714
 30
3.912300109863267
 70
   192
  0
VERTEX
  5
16A
  8
COSTURA
 10
193.1369552612305
 20
-28.8380198478699
 30
3.912298202514648
 70
   192
  0
VERTEX
  5
16B
  8
COSTURA
 10
193.1369552612305
 20
-29.58794355392459
 30
3.912298202514648
 70
   192
  0
VERTEX
  5
16C
  8
COSTURA
 10
191.0371780395508
 20
-29.58794355392459
 30
3.912298202514648
 70
   192
  0
VERTEX
  5
16D
  8
COSTURA
 10
191.0371780395508
 20
-28.8380198478699
 30
3.912298202514648
 70
   192
  0
VERTEX
  5
16E
  8
COSTURA
 10
190.4557266235352
 20
-28.8380198478699
 30
3.912300109863267
 70
   192
  0
VERTEX
  5
16F
  8
COSTURA
 10
190.4557266235352
 20
-29.58794355392459
 30
3.912300109863267
 70
   192
  0
VERTEX
  5
170
  8
COSTURA
 10
188.3559417724609
 20
-29.58794355392459
 30
3.912300109863267
 70
   192
  0
VERTEX
  5
171
  8
COSTURA
 10
188.3559417724609
 20
-28.8380198478699
 30
3.912300109863267
 70
   192
  0
VERTEX
  5
172
  8
COSTURA
 10
187.7744903564453
 20
-28.8380198478699
 30
3.912300109863267
 70
   192
  0
VERTEX
  5
173
  8
COSTURA
 10
187.7744903564453
 20
-29.58794355392459
 30
3.912300109863267
 70
   192
  0
VERTEX
  5
174
  8
COSTURA
 10
185.6747055053711
 20
-29.58794355392459
 30
3.912300109863267
 70
   192
  0
VERTEX
  5
175
  8
COSTURA
 10
185.6747055053711
 20
-28.8380198478699
 30
3.912300109863267
 70
   192
  0
VERTEX
  5
176
  8
COSTURA
 10
185.0932540893555
 20
-28.8380198478699
 30
3.912300109863267
 70
   192
  0
VERTEX
  5
177
  8
COSTURA
 10
185.0932540893555
 20
-29.58794355392459
 30
3.912300109863267
 70
   192
  0
VERTEX
  5
178
  8
COSTURA
 10
182.9934768676758
 20
-29.58794355392459
 30
3.912298202514648
 70
   192
  0
VERTEX
  5
179
  8
COSTURA
 10
182.9934692382812
 20
-28.8380198478699
 30
3.912298202514648
 70
   192
  0
VERTEX
  5
17A
  8
COSTURA
 10
182.4120178222656
 20
-28.8380198478699
 30
3.912300109863267
 70
   192
  0
VERTEX
  5
17B
  8
COSTURA
 10
182.4120178222656
 20
-29.58794355392459
 30
3.912300109863267
 70
   192
  0
VERTEX
  5
17C
  8
COSTURA
 10
180.3122406005859
 20
-29.58794355392459
 30
3.912300109863267
 70
   192
  0
VERTEX
  5
17D
  8
COSTURA
 10
180.3122406005859
 20
-28.8380198478699
 30
3.912300109863267
 70
   192
  0
VERTEX
  5
17E
  8
COSTURA
 10
179.7558898925781
 20
-28.8380198478699
 30
3.912300109863267
 70
   192
  0
VERTEX
  5
17F
  8
COSTURA
 10
179.7558898925781
 20
-29.58794355392459
 30
3.912300109863267
 70
   192
  0
VERTEX
  5
180
  8
COSTURA
 10
177.6560974121094
 20
-29.58794355392459
 30
3.912300109863267
 70
   192
  0
VERTEX
  5
181
  8
COSTURA
 10
177.6560974121094
 20
-28.8380198478699
 30
3.912300109863267
 70
   192
  0
VERTEX
  5
182
  8
COSTURA
 10
177.0746459960938
 20
-28.8380198478699
 30
3.912300109863267
 70
   192
  0
VERTEX
  5
183
  8
COSTURA
 10
177.0746459960938
 20
-29.58794355392459
 30
3.912300109863267
 70
   192
  0
VERTEX
  5
184
  8
COSTURA
 10
174.9748687744141
 20
-29.58794355392459
 30
3.912300109863267
 70
   192
  0
VERTEX
  5
185
  8
COSTURA
 10
174.9748687744141
 20
-28.8380198478699
 30
3.912300109863267
 70
   192
  0
VERTEX
  5
186
  8
COSTURA
 10
174.3934173583984
 20
-28.8380198478699
 30
3.912296295166016
 70
   192
  0
VERTEX
  5
187
  8
COSTURA
 10
174.3934173583984
 20
-29.58794355392459
 30
3.912296295166016
 70
   192
  0
VERTEX
  5
188
  8
COSTURA
 10
172.2936401367188
 20
-29.58794355392459
 30
3.912296295166016
 70
   192
  0
VERTEX
  5
189
  8
COSTURA
 10
172.2936401367188
 20
-28.8380198478699
 30
3.912296295166016
 70
   192
  0
VERTEX
  5
18A
  8
COSTURA
 10
171.7121887207031
 20
-28.8380198478699
 30
3.912298202514648
 70
   192
  0
VERTEX
  5
18B
  8
COSTURA
 10
171.7121887207031
 20
-29.58794355392459
 30
3.912298202514648
 70
   192
  0
VERTEX
  5
18C
  8
COSTURA
 10
169.6123962402344
 20
-29.58794355392459
 30
3.912298202514648
 70
   192
  0
VERTEX
  5
18D
  8
COSTURA
 10
169.6123962402344
 20
-28.8380198478699
 30
3.912298202514648
 70
   192
  0
VERTEX
  5
18E
  8
COSTURA
 10
169.0309600830078
 20
-28.8380198478699
 30
3.912300109863267
 70
   192
  0
VERTEX
  5
18F
  8
COSTURA
 10
169.0309600830078
 20
-29.58794355392459
 30
3.912300109863267
 70
   192
  0
VERTEX
  5
190
  8
COSTURA
 10
166.9311676025391
 20
-29.58794355392459
 30
3.912300109863267
 70
   192
  0
VERTEX
  5
191
  8
COSTURA
 10
166.9311676025391
 20
-28.8380198478699
 30
3.912300109863267
 70
   192
  0
VERTEX
  5
192
  8
COSTURA
 10
166.3497161865234
 20
-28.8380198478699
 30
3.912300109863267
 70
   192
  0
VERTEX
  5
193
  8
COSTURA
 10
166.3497161865234
 20
-29.58794355392459
 30
3.912300109863267
 70
   192
  0
VERTEX
  5
194
  8
COSTURA
 10
164.2499389648438
 20
-29.58794355392459
 30
3.912300109863267
 70
   192
  0
VERTEX
  5
195
  8
COSTURA
 10
164.2499389648438
 20
-28.8380198478699
 30
3.912300109863267
 70
   192
  0
VERTEX
  5
196
  8
COSTURA
 10
163.6684875488281
 20
-28.8380198478699
 30
3.912298202514648
 70
   192
  0
VERTEX
  5
197
  8
COSTURA
 10
163.6684875488281
 20
-29.58794355392459
 30
3.912298202514648
 70
   192
  0
VERTEX
  5
198
  8
COSTURA
 10
161.5686950683594
 20
-29.58794355392459
 30
3.912298202514648
 70
   192
  0
VERTEX
  5
199
  8
COSTURA
 10
161.5686950683594
 20
-28.8380198478699
 30
3.912298202514648
 70
   192
  0
VERTEX
  5
19A
  8
COSTURA
 10
160.9872436523438
 20
-28.8380198478699
 30
3.912300109863267
 70
   192
  0
VERTEX
  5
19B
  8
COSTURA
 10
160.9872436523438
 20
-29.58794355392459
 30
3.912300109863267
 70
   192
  0
VERTEX
  5
19C
  8
COSTURA
 10
158.8874664306641
 20
-29.58794355392459
 30
3.912300109863267
 70
   192
  0
VERTEX
  5
19D
  8
COSTURA
 10
158.8874664306641
 20
-28.8380198478699
 30
3.912300109863267
 70
   192
  0
VERTEX
  5
19E
  8
COSTURA
 10
198.5015258789062
 20
-28.8380198478699
 30
3.912300109863267
 70
   192
  0
VERTEX
  5
19F
  8
COSTURA
 10
198.5015258789062
 20
-29.58794355392459
 30
3.912300109863267
 70
   192
  0
VERTEX
  5
1A0
  8
COSTURA
 10
196.401741027832
 20
-29.58794355392459
 30
3.912300109863267
 70
   192
  0
VERTEX
  5
1A1
  8
COSTURA
 10
196.401741027832
 20
-28.8380198478699
 30
3.912300109863267
 70
   192
  0
VERTEX
  5
1A2
  8
COSTURA
 10
195.8202896118164
 20
-28.8380198478699
 30
3.9123020172119
 70
   192
  0
VERTEX
  5
1A3
  8
COSTURA
 10
195.8202896118164
 20
-29.58794355392459
 30
3.9123020172119
 70
   192
  0
VERTEX
  5
1A4
  8
COSTURA
 10
193.7205047607422
 20
-29.58794355392459
 30
3.912300109863267
 70
   192
  0
VERTEX
  5
1A5
  8
COSTURA
 10
193.7205047607422
 20
-28.8380198478699
 30
3.912300109863267
 70
   192
  0
VERTEX
  5
1A6
  8
COSTURA
 10
34.92364501953122
 20
-28.83801984786987
 30
3.912300109863267
 70
   192
  0
VERTEX
  5
1A7
  8
COSTURA
 10
34.92364501953122
 20
-29.58794355392456
 30
3.912300109863267
 70
   192
  0
VERTEX
  5
1A8
  8
COSTURA
 10
32.82385253906253
 20
-29.58794355392456
 30
3.912300109863267
 70
   192
  0
VERTEX
  5
1A9
  8
COSTURA
 10
32.82385253906253
 20
-28.83801984786987
 30
3.912300109863267
 70
   192
  0
VERTEX
  5
1AA
  8
COSTURA
 10
32.2424011230469
 20
-28.83801984786987
 30
3.9123020172119
 70
   192
  0
VERTEX
  5
1AB
  8
COSTURA
 10
32.2424011230469
 20
-29.58794355392456
 30
3.9123020172119
 70
   192
  0
VERTEX
  5
1AC
  8
COSTURA
 10
30.14263916015622
 20
-29.58794355392456
 30
3.9123020172119
 70
   192
  0
VERTEX
  5
1AD
  8
COSTURA
 10
30.14263916015622
 20
-28.83801984786987
 30
3.9123020172119
 70
   192
  0
VERTEX
  5
1AE
  8
COSTURA
 10
29.56115722656253
 20
-28.83801984786987
 30
3.9123020172119
 70
   192
  0
VERTEX
  5
1AF
  8
COSTURA
 10
29.56115722656253
 20
-29.58794355392456
 30
3.9123020172119
 70
   192
  0
VERTEX
  5
1B0
  8
COSTURA
 10
27.4613952636719
 20
-29.58794355392456
 30
3.9123020172119
 70
   192
  0
VERTEX
  5
1B1
  8
COSTURA
 10
27.4613952636719
 20
-28.83801984786987
 30
3.9123020172119
 70
   192
  0
VERTEX
  5
1B2
  8
COSTURA
 10
26.87994384765622
 20
-28.83801984786987
 30
3.912300109863267
 70
   192
  0
VERTEX
  5
1B3
  8
COSTURA
 10
26.87994384765622
 20
-29.58794355392456
 30
3.912300109863267
 70
   192
  0
VERTEX
  5
1B4
  8
COSTURA
 10
24.78015136718753
 20
-29.58794355392456
 30
3.912300109863267
 70
   192
  0
VERTEX
  5
1B5
  8
COSTURA
 10
24.78015136718753
 20
-28.83801984786987
 30
3.912300109863267
 70
   192
  0
VERTEX
  5
1B6
  8
COSTURA
 10
24.1986999511719
 20
-28.83801984786987
 30
3.9123020172119
 70
   192
  0
VERTEX
  5
1B7
  8
COSTURA
 10
24.1986999511719
 20
-29.58794355392456
 30
3.9123020172119
 70
   192
  0
VERTEX
  5
1B8
  8
COSTURA
 10
22.09893798828122
 20
-29.58794355392456
 30
3.9123020172119
 70
   192
  0
VERTEX
  5
1B9
  8
COSTURA
 10
22.09893798828122
 20
-28.83801984786987
 30
3.9123020172119
 70
   192
  0
VERTEX
  5
1BA
  8
COSTURA
 10
21.5425720214844
 20
-28.83801984786987
 30
3.9123020172119
 70
   192
  0
VERTEX
  5
1BB
  8
COSTURA
 10
21.5425720214844
 20
-29.58794355392456
 30
3.9123020172119
 70
   192
  0
VERTEX
  5
1BC
  8
COSTURA
 10
19.44277954101565
 20
-29.58794355392456
 30
3.9123020172119
 70
   192
  0
VERTEX
  5
1BD
  8
COSTURA
 10
19.44277954101565
 20
-28.83801984786987
 30
3.9123020172119
 70
   192
  0
VERTEX
  5
1BE
  8
COSTURA
 10
18.86132812500003
 20
-28.83801984786987
 30
3.9123020172119
 70
   192
  0
VERTEX
  5
1BF
  8
COSTURA
 10
18.86132812500003
 20
-29.58794355392456
 30
3.9123020172119
 70
   192
  0
VERTEX
  5
1C0
  8
COSTURA
 10
16.76153564453122
 20
-29.58794355392456
 30
3.912300109863267
 70
   192
  0
VERTEX
  5
1C1
  8
COSTURA
 10
16.76153564453122
 20
-28.83801984786987
 30
3.912300109863267
 70
   192
  0
VERTEX
  5
1C2
  8
COSTURA
 10
16.18011474609384
 20
-28.83801984786987
 30
3.912298202514648
 70
   192
  0
VERTEX
  5
1C3
  8
COSTURA
 10
16.18011474609384
 20
-29.58794355392456
 30
3.912298202514648
 70
   192
  0
VERTEX
  5
1C4
  8
COSTURA
 10
14.08032226562503
 20
-29.58794355392456
 30
3.912298202514648
 70
   192
  0
VERTEX
  5
1C5
  8
COSTURA
 10
14.08032226562503
 20
-28.83801984786987
 30
3.912298202514648
 70
   192
  0
VERTEX
  5
1C6
  8
COSTURA
 10
13.4988708496094
 20
-28.83801984786987
 30
3.912300109863267
 70
   192
  0
VERTEX
  5
1C7
  8
COSTURA
 10
13.4988708496094
 20
-29.58794355392456
 30
3.912300109863267
 70
   192
  0
VERTEX
  5
1C8
  8
COSTURA
 10
11.39907836914065
 20
-29.58794355392456
 30
3.912300109863267
 70
   192
  0
VERTEX
  5
1C9
  8
COSTURA
 10
11.39907836914065
 20
-28.83801984786987
 30
3.912300109863267
 70
   192
  0
VERTEX
  5
1CA
  8
COSTURA
 10
10.81762695312503
 20
-28.83801984786987
 30
3.9123020172119
 70
   192
  0
VERTEX
  5
1CB
  8
COSTURA
 10
10.81762695312503
 20
-29.58794355392456
 30
3.9123020172119
 70
   192
  0
VERTEX
  5
1CC
  8
COSTURA
 10
8.717834472656222
 20
-29.58794355392456
 30
3.9123020172119
 70
   192
  0
VERTEX
  5
1CD
  8
COSTURA
 10
8.717834472656222
 20
-28.83801984786987
 30
3.9123020172119
 70
   192
  0
VERTEX
  5
1CE
  8
COSTURA
 10
8.136413574218835
 20
-28.83801984786987
 30
3.9123020172119
 70
   192
  0
VERTEX
  5
1CF
  8
COSTURA
 10
8.136413574218835
 20
-29.58794355392456
 30
3.9123020172119
 70
   192
  0
VERTEX
  5
1D0
  8
COSTURA
 10
6.036621093750028
 20
-29.58794355392456
 30
3.912300109863267
 70
   192
  0
VERTEX
  5
1D1
  8
COSTURA
 10
6.036621093750028
 20
-28.83801984786987
 30
3.912300109863267
 70
   192
  0
VERTEX
  5
1D2
  8
COSTURA
 10
69.72619628906253
 20
-28.83801984786987
 30
3.912300109863267
 70
   192
  0
VERTEX
  5
1D3
  8
COSTURA
 10
69.72619628906253
 20
-29.58794355392456
 30
3.912300109863267
 70
   192
  0
VERTEX
  5
1D4
  8
COSTURA
 10
67.62640380859384
 20
-29.58794355392456
 30
3.912300109863267
 70
   192
  0
VERTEX
  5
1D5
  8
COSTURA
 10
67.62640380859384
 20
-28.83801984786987
 30
3.912300109863267
 70
   192
  0
VERTEX
  5
1D6
  8
COSTURA
 10
67.04495239257812
 20
-28.83801984786987
 30
3.9123020172119
 70
   192
  0
VERTEX
  5
1D7
  8
COSTURA
 10
67.04495239257812
 20
-29.58794355392456
 30
3.9123020172119
 70
   192
  0
VERTEX
  5
1D8
  8
COSTURA
 10
64.94517517089844
 20
-29.58794355392456
 30
3.912300109863267
 70
   192
  0
VERTEX
  5
1D9
  8
COSTURA
 10
64.94517517089844
 20
-28.83801984786987
 30
3.912300109863267
 70
   192
  0
VERTEX
  5
1DA
  8
COSTURA
 10
64.36372375488284
 20
-28.83801984786987
 30
3.912300109863267
 70
   192
  0
VERTEX
  5
1DB
  8
COSTURA
 10
64.36372375488284
 20
-29.58794355392456
 30
3.912300109863267
 70
   192
  0
VERTEX
  5
1DC
  8
COSTURA
 10
62.26394653320312
 20
-29.58794355392456
 30
3.912300109863267
 70
   192
  0
VERTEX
  5
1DD
  8
COSTURA
 10
62.26394653320312
 20
-28.83801984786987
 30
3.912300109863267
 70
   192
  0
VERTEX
  5
1DE
  8
COSTURA
 10
61.68249511718753
 20
-28.83801984786987
 30
3.912300109863267
 70
   192
  0
VERTEX
  5
1DF
  8
COSTURA
 10
61.68249511718753
 20
-29.58794355392456
 30
3.912300109863267
 70
   192
  0
VERTEX
  5
1E0
  8
COSTURA
 10
59.58270263671884
 20
-29.58794355392456
 30
3.912300109863267
 70
   192
  0
VERTEX
  5
1E1
  8
COSTURA
 10
59.58270263671884
 20
-28.83801984786987
 30
3.912300109863267
 70
   192
  0
VERTEX
  5
1E2
  8
COSTURA
 10
59.00125122070312
 20
-28.83801984786987
 30
3.9123020172119
 70
   192
  0
VERTEX
  5
1E3
  8
COSTURA
 10
59.00125122070312
 20
-29.58794355392456
 30
3.9123020172119
 70
   192
  0
VERTEX
  5
1E4
  8
COSTURA
 10
56.90147399902344
 20
-29.58794355392456
 30
3.9123020172119
 70
   192
  0
VERTEX
  5
1E5
  8
COSTURA
 10
56.90147399902344
 20
-28.83801984786987
 30
3.9123020172119
 70
   192
  0
VERTEX
  5
1E6
  8
COSTURA
 10
56.34512329101562
 20
-28.83801984786987
 30
3.912300109863267
 70
   192
  0
VERTEX
  5
1E7
  8
COSTURA
 10
56.34512329101562
 20
-29.58794355392456
 30
3.912300109863267
 70
   192
  0
VERTEX
  5
1E8
  8
COSTURA
 10
54.24533081054693
 20
-29.58794355392456
 30
3.912300109863267
 70
   192
  0
VERTEX
  5
1E9
  8
COSTURA
 10
54.24533081054693
 20
-28.83801984786987
 30
3.912300109863267
 70
   192
  0
VERTEX
  5
1EA
  8
COSTURA
 10
53.66389465332034
 20
-28.83801984786987
 30
3.912300109863267
 70
   192
  0
VERTEX
  5
1EB
  8
COSTURA
 10
53.66389465332034
 20
-29.58794355392456
 30
3.912300109863267
 70
   192
  0
VERTEX
  5
1EC
  8
COSTURA
 10
51.56410217285162
 20
-29.58794736862183
 30
3.912300109863267
 70
   192
  0
VERTEX
  5
1ED
  8
COSTURA
 10
51.56410217285162
 20
-28.83802366256714
 30
3.912300109863267
 70
   192
  0
VERTEX
  5
1EE
  8
COSTURA
 10
50.98265075683594
 20
-28.83801984786987
 30
3.912296295166016
 70
   192
  0
VERTEX
  5
1EF
  8
COSTURA
 10
50.98265075683594
 20
-29.58794355392456
 30
3.912296295166016
 70
   192
  0
VERTEX
  5
1F0
  8
COSTURA
 10
48.88287353515622
 20
-29.58794736862183
 30
3.912298202514648
 70
   192
  0
VERTEX
  5
1F1
  8
COSTURA
 10
48.88287353515622
 20
-28.83802366256714
 30
3.912298202514648
 70
   192
  0
VERTEX
  5
1F2
  8
COSTURA
 10
48.30142211914065
 20
-28.83802366256714
 30
3.912300109863267
 70
   192
  0
VERTEX
  5
1F3
  8
COSTURA
 10
48.30142211914065
 20
-29.58794736862183
 30
3.912300109863267
 70
   192
  0
VERTEX
  5
1F4
  8
COSTURA
 10
46.20166015625003
 20
-29.58794736862183
 30
3.912298202514648
 70
   192
  0
VERTEX
  5
1F5
  8
COSTURA
 10
46.20166015625003
 20
-28.83802366256714
 30
3.912298202514648
 70
   192
  0
VERTEX
  5
1F6
  8
COSTURA
 10
45.62017822265622
 20
-28.83802366256714
 30
3.912300109863267
 70
   192
  0
VERTEX
  5
1F7
  8
COSTURA
 10
45.62017822265622
 20
-29.58794736862183
 30
3.912300109863267
 70
   192
  0
VERTEX
  5
1F8
  8
COSTURA
 10
43.52038574218753
 20
-29.58794736862183
 30
3.912300109863267
 70
   192
  0
VERTEX
  5
1F9
  8
COSTURA
 10
43.52038574218753
 20
-28.83802366256714
 30
3.912300109863267
 70
   192
  0
VERTEX
  5
1FA
  8
COSTURA
 10
42.93896484375003
 20
-28.83802366256714
 30
3.912300109863267
 70
   192
  0
VERTEX
  5
1FB
  8
COSTURA
 10
42.93896484375003
 20
-29.58794736862183
 30
3.912300109863267
 70
   192
  0
VERTEX
  5
1FC
  8
COSTURA
 10
40.83917236328122
 20
-29.58794736862183
 30
3.912300109863267
 70
   192
  0
VERTEX
  5
1FD
  8
COSTURA
 10
40.83917236328122
 20
-28.83802366256714
 30
3.912300109863267
 70
   192
  0
VERTEX
  5
1FE
  8
COSTURA
 10
40.25772094726565
 20
-28.83802366256714
 30
3.912300109863267
 70
   192
  0
VERTEX
  5
1FF
  8
COSTURA
 10
40.25772094726565
 20
-29.58794736862183
 30
3.912300109863267
 70
   192
  0
VERTEX
  5
200
  8
COSTURA
 10
38.1579284667969
 20
-29.58794736862183
 30
3.912300109863267
 70
   192
  0
VERTEX
  5
201
  8
COSTURA
 10
38.1579284667969
 20
-28.83802366256714
 30
3.912300109863267
 70
   192
  0
VERTEX
  5
202
  8
COSTURA
 10
37.57647705078122
 20
-28.83802366256714
 30
3.9123020172119
 70
   192
  0
VERTEX
  5
203
  8
COSTURA
 10
37.57647705078122
 20
-29.58794736862183
 30
3.9123020172119
 70
   192
  0
VERTEX
  5
204
  8
COSTURA
 10
35.47668457031253
 20
-29.58794736862183
 30
3.912300109863267
 70
   192
  0
VERTEX
  5
205
  8
COSTURA
 10
35.47668457031253
 20
-28.83802366256714
 30
3.912300109863267
 70
   192
  0
VERTEX
  5
206
  8
COSTURA
 10
0.0
 20
0.0
 30
0.0
 70
   128
 71
     1
 72
     2
 73
     3
 74
     4
  0
VERTEX
  5
207
  8
COSTURA
 10
0.0
 20
0.0
 30
0.0
 70
   128
 71
     5
 72
     6
 73
     7
 74
     8
  0
VERTEX
  5
208
  8
COSTURA
 10
0.0
 20
0.0
 30
0.0
 70
   128
 71
     9
 72
    10
 73
    11
 74
    12
  0
VERTEX
  5
209
  8
COSTURA
 10
0.0
 20
0.0
 30
0.0
 70
   128
 71
    13
 72
    14
 73
    15
 74
    16
  0
VERTEX
  5
20A
  8
COSTURA
 10
0.0
 20
0.0
 30
0.0
 70
   128
 71
    17
 72
    18
 73
    19
 74
    20
  0
VERTEX
  5
20B
  8
COSTURA
 10
0.0
 20
0.0
 30
0.0
 70
   128
 71
    21
 72
    22
 73
    23
 74
    24
  0
VERTEX
  5
20C
  8
COSTURA
 10
0.0
 20
0.0
 30
0.0
 70
   128
 71
    25
 72
    26
 73
    27
 74
    28
  0
VERTEX
  5
20D
  8
COSTURA
 10
0.0
 20
0.0
 30
0.0
 70
   128
 71
    29
 72
    30
 73
    31
 74
    32
  0
VERTEX
  5
20E
  8
COSTURA
 10
0.0
 20
0.0
 30
0.0
 70
   128
 71
    33
 72
    34
 73
    35
 74
    36
  0
VERTEX
  5
20F
  8
COSTURA
 10
0.0
 20
0.0
 30
0.0
 70
   128
 71
    37
 72
    38
 73
    39
 74
    40
  0
VERTEX
  5
210
  8
COSTURA
 10
0.0
 20
0.0
 30
0.0
 70
   128
 71
    41
 72
    42
 73
    43
 74
    44
  0
VERTEX
  5
211
  8
COSTURA
 10
0.0
 20
0.0
 30
0.0
 70
   128
 71
    45
 72
    46
 73
    47
 74
    48
  0
VERTEX
  5
212
  8
COSTURA
 10
0.0
 20
0.0
 30
0.0
 70
   128
 71
    49
 72
    50
 73
    51
 74
    52
  0
VERTEX
  5
213
  8
COSTURA
 10
0.0
 20
0.0
 30
0.0
 70
   128
 71
    53
 72
    54
 73
    55
 74
    56
  0
VERTEX
  5
214
  8
COSTURA
 10
0.0
 20
0.0
 30
0.0
 70
   128
 71
    57
 72
    58
 73
    59
 74
    60
  0
VERTEX
  5
215
  8
COSTURA
 10
0.0
 20
0.0
 30
0.0
 70
   128
 71
    61
 72
    62
 73
    63
 74
    64
  0
VERTEX
  5
216
  8
COSTURA
 10
0.0
 20
0.0
 30
0.0
 70
   128
 71
    65
 72
    66
 73
    67
 74
    68
  0
VERTEX
  5
217
  8
COSTURA
 10
0.0
 20
0.0
 30
0.0
 70
   128
 71
    69
 72
    70
 73
    71
 74
    72
  0
VERTEX
  5
218
  8
COSTURA
 10
0.0
 20
0.0
 30
0.0
 70
   128
 71
    73
 72
    74
 73
    75
 74
    76
  0
VERTEX
  5
219
  8
COSTURA
 10
0.0
 20
0.0
 30
0.0
 70
   128
 71
    77
 72
    78
 73
    79
 74
    80
  0
VERTEX
  5
21A
  8
COSTURA
 10
0.0
 20
0.0
 30
0.0
 70
   128
 71
    81
 72
    82
 73
    83
 74
    84
  0
VERTEX
  5
21B
  8
COSTURA
 10
0.0
 20
0.0
 30
0.0
 70
   128
 71
    85
 72
    86
 73
    87
 74
    88
  0
VERTEX
  5
21C
  8
COSTURA
 10
0.0
 20
0.0
 30
0.0
 70
   128
 71
    89
 72
    90
 73
    91
 74
    92
  0
VERTEX
  5
21D
  8
COSTURA
 10
0.0
 20
0.0
 30
0.0
 70
   128
 71
    93
 72
    94
 73
    95
 74
    96
  0
VERTEX
  5
21E
  8
COSTURA
 10
0.0
 20
0.0
 30
0.0
 70
   128
 71
    97
 72
    98
 73
    99
 74
   100
  0
VERTEX
  5
21F
  8
COSTURA
 10
0.0
 20
0.0
 30
0.0
 70
   128
 71
   101
 72
   102
 73
   103
 74
   104
  0
VERTEX
  5
220
  8
COSTURA
 10
0.0
 20
0.0
 30
0.0
 70
   128
 71
   105
 72
   106
 73
   107
 74
   108
  0
VERTEX
  5
221
  8
COSTURA
 10
0.0
 20
0.0
 30
0.0
 70
   128
 71
   109
 72
   110
 73
   111
 74
   112
  0
VERTEX
  5
222
  8
COSTURA
 10
0.0
 20
0.0
 30
0.0
 70
   128
 71
   113
 72
   114
 73
   115
 74
   116
  0
VERTEX
  5
223
  8
COSTURA
 10
0.0
 20
0.0
 30
0.0
 70
   128
 71
   117
 72
   118
 73
   119
 74
   120
  0
VERTEX
  5
224
  8
COSTURA
 10
0.0
 20
0.0
 30
0.0
 70
   128
 71
   121
 72
   122
 73
   123
 74
   124
  0
VERTEX
  5
225
  8
COSTURA
 10
0.0
 20
0.0
 30
0.0
 70
   128
 71
   125
 72
   126
 73
   127
 74
   128
  0
VERTEX
  5
226
  8
COSTURA
 10
0.0
 20
0.0
 30
0.0
 70
   128
 71
   129
 72
   130
 73
   131
 74
   132
  0
VERTEX
  5
227
  8
COSTURA
 10
0.0
 20
0.0
 30
0.0
 70
   128
 71
   133
 72
   134
 73
   135
 74
   136
  0
VERTEX
  5
228
  8
COSTURA
 10
0.0
 20
0.0
 30
0.0
 70
   128
 71
   137
 72
   138
 73
   139
 74
   140
  0
VERTEX
  5
229
  8
COSTURA
 10
0.0
 20
0.0
 30
0.0
 70
   128
 71
   141
 72
   142
 73
   143
 74
   144
  0
VERTEX
  5
22A
  8
COSTURA
 10
0.0
 20
0.0
 30
0.0
 70
   128
 71
   145
 72
   146
 73
   147
 74
   148
  0
VERTEX
  5
22B
  8
COSTURA
 10
0.0
 20
0.0
 30
0.0
 70
   128
 71
   149
 72
   150
 73
   151
 74
   152
  0
VERTEX
  5
22C
  8
COSTURA
 10
0.0
 20
0.0
 30
0.0
 70
   128
 71
   153
 72
   154
 73
   155
 74
   156
  0
VERTEX
  5
22D
  8
COSTURA
 10
0.0
 20
0.0
 30
0.0
 70
   128
 71
   157
 72
   158
 73
   159
 74
   160
  0
VERTEX
  5
22E
  8
COSTURA
 10
0.0
 20
0.0
 30
0.0
 70
   128
 71
   161
 72
   162
 73
   163
 74
   164
  0
VERTEX
  5
22F
  8
COSTURA
 10
0.0
 20
0.0
 30
0.0
 70
   128
 71
   165
 72
   166
 73
   167
 74
   168
  0
VERTEX
  5
230
  8
COSTURA
 10
0.0
 20
0.0
 30
0.0
 70
   128
 71
   169
 72
   170
 73
   171
 74
   172
  0
VERTEX
  5
231
  8
COSTURA
 10
0.0
 20
0.0
 30
0.0
 70
   128
 71
   173
 72
   174
 73
   175
 74
   176
  0
VERTEX
  5
232
  8
COSTURA
 10
0.0
 20
0.0
 30
0.0
 70
   128
 71
   177
 72
   178
 73
   179
 74
   180
  0
VERTEX
  5
233
  8
COSTURA
 10
0.0
 20
0.0
 30
0.0
 70
   128
 71
   181
 72
   182
 73
   183
 74
   184
  0
VERTEX
  5
234
  8
COSTURA
 10
0.0
 20
0.0
 30
0.0
 70
   128
 71
   185
 72
   186
 73
   187
 74
   188
  0
VERTEX
  5
235
  8
COSTURA
 10
0.0
 20
0.0
 30
0.0
 70
   128
 71
   189
 72
   190
 73
   191
 74
   192
  0
VERTEX
  5
236
  8
COSTURA
 10
0.0
 20
0.0
 30
0.0
 70
   128
 71
   193
 72
   194
 73
   195
 74
   196
  0
VERTEX
  5
237
  8
COSTURA
 10
0.0
 20
0.0
 30
0.0
 70
   128
 71
   197
 72
   198
 73
   199
 74
   200
  0
VERTEX
  5
238
  8
COSTURA
 10
0.0
 20
0.0
 30
0.0
 70
   128
 71
   201
 72
   202
 73
   203
 74
   204
  0
VERTEX
  5
239
  8
COSTURA
 10
0.0
 20
0.0
 30
0.0
 70
   128
 71
   205
 72
   206
 73
   207
 74
   208
  0
VERTEX
  5
23A
  8
COSTURA
 10
0.0
 20
0.0
 30
0.0
 70
   128
 71
   209
 72
   210
 73
   211
 74
   212
  0
VERTEX
  5
23B
  8
COSTURA
 10
0.0
 20
0.0
 30
0.0
 70
   128
 71
   213
 72
   214
 73
   215
 74
   216
  0
VERTEX
  5
23C
  8
COSTURA
 10
0.0
 20
0.0
 30
0.0
 70
   128
 71
   217
 72
   218
 73
   219
 74
   220
  0
VERTEX
  5
23D
  8
COSTURA
 10
0.0
 20
0.0
 30
0.0
 70
   128
 71
   221
 72
   222
 73
   223
 74
   224
  0
VERTEX
  5
23E
  8
COSTURA
 10
0.0
 20
0.0
 30
0.0
 70
   128
 71
   225
 72
   226
 73
   227
 74
   228
  0
VERTEX
  5
23F
  8
COSTURA
 10
0.0
 20
0.0
 30
0.0
 70
   128
 71
   229
 72
   230
 73
   231
 74
   232
  0
VERTEX
  5
240
  8
COSTURA
 10
0.0
 20
0.0
 30
0.0
 70
   128
 71
   233
 72
   234
 73
   235
 74
   236
  0
VERTEX
  5
241
  8
COSTURA
 10
0.0
 20
0.0
 30
0.0
 70
   128
 71
   237
 72
   238
 73
   239
 74
   240
  0
VERTEX
  5
242
  8
COSTURA
 10
0.0
 20
0.0
 30
0.0
 70
   128
 71
   241
 72
   242
 73
   243
 74
   244
  0
VERTEX
  5
243
  8
COSTURA
 10
0.0
 20
0.0
 30
0.0
 70
   128
 71
   245
 72
   246
 73
   247
 74
   248
  0
VERTEX
  5
244
  8
COSTURA
 10
0.0
 20
0.0
 30
0.0
 70
   128
 71
   249
 72
   250
 73
   251
 74
   252
  0
VERTEX
  5
245
  8
COSTURA
 10
0.0
 20
0.0
 30
0.0
 70
   128
 71
   253
 72
   254
 73
   255
 74
   256
  0
VERTEX
  5
246
  8
COSTURA
 10
0.0
 20
0.0
 30
0.0
 70
   128
 71
   257
 72
   258
 73
   259
 74
   260
  0
VERTEX
  5
247
  8
COSTURA
 10
0.0
 20
0.0
 30
0.0
 70
   128
 71
   261
 72
   262
 73
   263
 74
   264
  0
VERTEX
  5
248
  8
COSTURA
 10
0.0
 20
0.0
 30
0.0
 70
   128
 71
   265
 72
   266
 73
   267
 74
   268
  0
VERTEX
  5
249
  8
COSTURA
 10
0.0
 20
0.0
 30
0.0
 70
   128
 71
   269
 72
   270
 73
   271
 74
   272
  0
VERTEX
  5
24A
  8
COSTURA
 10
0.0
 20
0.0
 30
0.0
 70
   128
 71
   273
 72
   274
 73
   275
 74
   276
  0
VERTEX
  5
24B
  8
COSTURA
 10
0.0
 20
0.0
 30
0.0
 70
   128
 71
   277
 72
   278
 73
   279
 74
   280
  0
VERTEX
  5
24C
  8
COSTURA
 10
0.0
 20
0.0
 30
0.0
 70
   128
 71
   281
 72
   282
 73
   283
 74
   284
  0
VERTEX
  5
24D
  8
COSTURA
 10
0.0
 20
0.0
 30
0.0
 70
   128
 71
   285
 72
   286
 73
   287
 74
   288
  0
SEQEND
  5
602
  8
COSTURA
  0
POLYLINE
  5
24F
  8
COSTURA
 66
     1
 10
0.0
 20
0.0
 30
0.0
 70
    64
 71
   288
 72
    72
  0
VERTEX
  5
250
  8
COSTURA
 10
5.993530273437528
 20
-28.83802366256714
 30
6.617254257202148
 70
   192
  0
VERTEX
  5
251
  8
COSTURA
 10
5.993530273437528
 20
-29.58794736862183
 30
6.617254257202148
 70
   192
  0
VERTEX
  5
252
  8
COSTURA
 10
8.093292236328153
 20
-29.58794736862183
 30
6.617254257202148
 70
   192
  0
VERTEX
  5
253
  8
COSTURA
 10
8.093292236328153
 20
-28.83802366256714
 30
6.617254257202148
 70
   192
  0
VERTEX
  5
254
  8
COSTURA
 10
8.674743652343835
 20
-28.83801984786987
 30
6.6172580718994
 70
   192
  0
VERTEX
  5
255
  8
COSTURA
 10
8.674743652343835
 20
-29.58794355392456
 30
6.6172580718994
 70
   192
  0
VERTEX
  5
256
  8
COSTURA
 10
10.77453613281253
 20
-29.58794736862183
 30
6.617256164550767
 70
   192
  0
VERTEX
  5
257
  8
COSTURA
 10
10.77453613281253
 20
-28.83802366256714
 30
6.617256164550767
 70
   192
  0
VERTEX
  5
258
  8
COSTURA
 10
11.35598754882815
 20
-28.83802366256714
 30
6.617254257202148
 70
   192
  0
VERTEX
  5
259
  8
COSTURA
 10
11.35598754882815
 20
-29.58794736862183
 30
6.617254257202148
 70
   192
  0
VERTEX
  5
25A
  8
COSTURA
 10
13.4557800292969
 20
-29.58794736862183
 30
6.617254257202148
 70
   192
  0
VERTEX
  5
25B
  8
COSTURA
 10
13.4557800292969
 20
-28.83802366256714
 30
6.617254257202148
 70
   192
  0
VERTEX
  5
25C
  8
COSTURA
 10
14.03723144531253
 20
-28.83802366256714
 30
6.617252349853516
 70
   192
  0
VERTEX
  5
25D
  8
COSTURA
 10
14.03723144531253
 20
-29.58794736862183
 30
6.617252349853516
 70
   192
  0
VERTEX
  5
25E
  8
COSTURA
 10
16.13699340820315
 20
-29.58794736862183
 30
6.617252349853516
 70
   192
  0
VERTEX
  5
25F
  8
COSTURA
 10
16.13699340820315
 20
-28.83802366256714
 30
6.617252349853516
 70
   192
  0
VERTEX
  5
260
  8
COSTURA
 10
16.71844482421884
 20
-28.83802366256714
 30
6.617252349853516
 70
   192
  0
VERTEX
  5
261
  8
COSTURA
 10
16.71844482421884
 20
-29.58794736862183
 30
6.617252349853516
 70
   192
  0
VERTEX
  5
262
  8
COSTURA
 10
18.81823730468753
 20
-29.58794736862183
 30
6.617252349853516
 70
   192
  0
VERTEX
  5
263
  8
COSTURA
 10
18.81823730468753
 20
-28.83802366256714
 30
6.617252349853516
 70
   192
  0
VERTEX
  5
264
  8
COSTURA
 10
19.39968872070315
 20
-28.83802366256714
 30
6.617252349853516
 70
   192
  0
VERTEX
  5
265
  8
COSTURA
 10
19.39968872070315
 20
-29.58794736862183
 30
6.617252349853516
 70
   192
  0
VERTEX
  5
266
  8
COSTURA
 10
21.4994812011719
 20
-29.58794736862183
 30
6.617252349853516
 70
   192
  0
VERTEX
  5
267
  8
COSTURA
 10
21.4994812011719
 20
-28.83802366256714
 30
6.617252349853516
 70
   192
  0
VERTEX
  5
268
  8
COSTURA
 10
22.08093261718753
 20
-28.83802366256714
 30
6.617250442504869
 70
   192
  0
VERTEX
  5
269
  8
COSTURA
 10
22.08093261718753
 20
-29.58794736862183
 30
6.617250442504869
 70
   192
  0
VERTEX
  5
26A
  8
COSTURA
 10
24.18072509765622
 20
-29.58794736862183
 30
6.617250442504869
 70
   192
  0
VERTEX
  5
26B
  8
COSTURA
 10
24.18072509765622
 20
-28.83802366256714
 30
6.617250442504869
 70
   192
  0
VERTEX
  5
26C
  8
COSTURA
 10
24.73376464843753
 20
-28.8380274772644
 30
6.6172580718994
 70
   192
  0
VERTEX
  5
26D
  8
COSTURA
 10
24.73376464843753
 20
-29.58795118331909
 30
6.6172580718994
 70
   192
  0
VERTEX
  5
26E
  8
COSTURA
 10
26.83355712890622
 20
-29.58795118331909
 30
6.617259979248047
 70
   192
  0
VERTEX
  5
26F
  8
COSTURA
 10
26.83355712890622
 20
-28.8380274772644
 30
6.617259979248047
 70
   192
  0
VERTEX
  5
270
  8
COSTURA
 10
27.4150085449219
 20
-28.83802366256714
 30
6.617256164550767
 70
   192
  0
VERTEX
  5
271
  8
COSTURA
 10
27.4150085449219
 20
-29.58794736862183
 30
6.617256164550767
 70
   192
  0
VERTEX
  5
272
  8
COSTURA
 10
29.51477050781253
 20
-29.58794736862183
 30
6.6172580718994
 70
   192
  0
VERTEX
  5
273
  8
COSTURA
 10
29.51477050781253
 20
-28.83802366256714
 30
6.6172580718994
 70
   192
  0
VERTEX
  5
274
  8
COSTURA
 10
30.09625244140622
 20
-28.83802366256714
 30
6.6172580718994
 70
   192
  0
VERTEX
  5
275
  8
COSTURA
 10
30.09625244140622
 20
-29.58794736862183
 30
6.6172580718994
 70
   192
  0
VERTEX
  5
276
  8
COSTURA
 10
32.1960144042969
 20
-29.58794736862183
 30
6.6172580718994
 70
   192
  0
VERTEX
  5
277
  8
COSTURA
 10
32.1960144042969
 20
-28.83802366256714
 30
6.6172580718994
 70
   192
  0
VERTEX
  5
278
  8
COSTURA
 10
32.77746582031253
 20
-28.83802366256714
 30
6.6172580718994
 70
   192
  0
VERTEX
  5
279
  8
COSTURA
 10
32.77746582031253
 20
-29.58794736862183
 30
6.6172580718994
 70
   192
  0
VERTEX
  5
27A
  8
COSTURA
 10
34.87725830078122
 20
-29.58794736862183
 30
6.6172580718994
 70
   192
  0
VERTEX
  5
27B
  8
COSTURA
 10
34.87725830078122
 20
-28.83802366256714
 30
6.6172580718994
 70
   192
  0
VERTEX
  5
27C
  8
COSTURA
 10
35.4587097167969
 20
-28.83802366256714
 30
6.617256164550767
 70
   192
  0
VERTEX
  5
27D
  8
COSTURA
 10
35.4587097167969
 20
-29.58794736862183
 30
6.617256164550767
 70
   192
  0
VERTEX
  5
27E
  8
COSTURA
 10
37.55847167968753
 20
-29.58794736862183
 30
6.617256164550767
 70
   192
  0
VERTEX
  5
27F
  8
COSTURA
 10
37.55847167968753
 20
-28.83802366256714
 30
6.617256164550767
 70
   192
  0
VERTEX
  5
280
  8
COSTURA
 10
38.1148376464844
 20
-28.83802366256714
 30
6.617256164550767
 70
   192
  0
VERTEX
  5
281
  8
COSTURA
 10
38.1148376464844
 20
-29.58794736862183
 30
6.617256164550767
 70
   192
  0
VERTEX
  5
282
  8
COSTURA
 10
40.21463012695315
 20
-29.58794736862183
 30
6.617256164550767
 70
   192
  0
VERTEX
  5
283
  8
COSTURA
 10
40.21463012695315
 20
-28.83802366256714
 30
6.617256164550767
 70
   192
  0
VERTEX
  5
284
  8
COSTURA
 10
40.79608154296884
 20
-28.83802366256714
 30
6.617256164550767
 70
   192
  0
VERTEX
  5
285
  8
COSTURA
 10
40.79608154296884
 20
-29.58794736862183
 30
6.617256164550767
 70
   192
  0
VERTEX
  5
286
  8
COSTURA
 10
42.8958435058594
 20
-29.58794736862183
 30
6.617256164550767
 70
   192
  0
VERTEX
  5
287
  8
COSTURA
 10
42.8958435058594
 20
-28.83802366256714
 30
6.617256164550767
 70
   192
  0
VERTEX
  5
288
  8
COSTURA
 10
43.47729492187503
 20
-28.83802366256714
 30
6.6172580718994
 70
   192
  0
VERTEX
  5
289
  8
COSTURA
 10
43.47729492187503
 20
-29.58794736862183
 30
6.6172580718994
 70
   192
  0
VERTEX
  5
28A
  8
COSTURA
 10
45.57708740234384
 20
-29.58794736862183
 30
6.6172580718994
 70
   192
  0
VERTEX
  5
28B
  8
COSTURA
 10
45.57708740234384
 20
-28.83802366256714
 30
6.6172580718994
 70
   192
  0
VERTEX
  5
28C
  8
COSTURA
 10
46.1585388183594
 20
-28.83802366256714
 30
6.617256164550767
 70
   192
  0
VERTEX
  5
28D
  8
COSTURA
 10
46.1585388183594
 20
-29.58794736862183
 30
6.617256164550767
 70
   192
  0
VERTEX
  5
28E
  8
COSTURA
 10
48.25833129882815
 20
-29.58794736862183
 30
6.617256164550767
 70
   192
  0
VERTEX
  5
28F
  8
COSTURA
 10
48.25833129882815
 20
-28.83802366256714
 30
6.617256164550767
 70
   192
  0
VERTEX
  5
290
  8
COSTURA
 10
48.83978271484384
 20
-28.83802366256714
 30
6.617254257202148
 70
   192
  0
VERTEX
  5
291
  8
COSTURA
 10
48.83978271484384
 20
-29.58794736862183
 30
6.617254257202148
 70
   192
  0
VERTEX
  5
292
  8
COSTURA
 10
50.93955993652344
 20
-29.58794736862183
 30
6.617254257202148
 70
   192
  0
VERTEX
  5
293
  8
COSTURA
 10
50.93955993652344
 20
-28.83802366256714
 30
6.617254257202148
 70
   192
  0
VERTEX
  5
294
  8
COSTURA
 10
51.52101135253912
 20
-28.83802366256714
 30
6.617254257202148
 70
   192
  0
VERTEX
  5
295
  8
COSTURA
 10
51.52101135253912
 20
-29.58794736862183
 30
6.617254257202148
 70
   192
  0
VERTEX
  5
296
  8
COSTURA
 10
53.62078857421884
 20
-29.58794736862183
 30
6.617254257202148
 70
   192
  0
VERTEX
  5
297
  8
COSTURA
 10
53.62078857421884
 20
-28.83802366256714
 30
6.617254257202148
 70
   192
  0
VERTEX
  5
298
  8
COSTURA
 10
54.20223999023443
 20
-28.83802366256714
 30
6.617254257202148
 70
   192
  0
VERTEX
  5
299
  8
COSTURA
 10
54.20223999023443
 20
-29.58794736862183
 30
6.617254257202148
 70
   192
  0
VERTEX
  5
29A
  8
COSTURA
 10
56.30203247070312
 20
-29.58794736862183
 30
6.617254257202148
 70
   192
  0
VERTEX
  5
29B
  8
COSTURA
 10
56.30203247070312
 20
-28.83802366256714
 30
6.617254257202148
 70
   192
  0
VERTEX
  5
29C
  8
COSTURA
 10
56.88348388671884
 20
-28.83802366256714
 30
6.617252349853516
 70
   192
  0
VERTEX
  5
29D
  8
COSTURA
 10
56.88348388671884
 20
-29.58794736862183
 30
6.617252349853516
 70
   192
  0
VERTEX
  5
29E
  8
COSTURA
 10
58.98326110839844
 20
-29.58794736862183
 30
6.617252349853516
 70
   192
  0
VERTEX
  5
29F
  8
COSTURA
 10
58.98326110839844
 20
-28.83802366256714
 30
6.617252349853516
 70
   192
  0
VERTEX
  5
2A0
  8
COSTURA
 10
59.60156250000003
 20
-28.83802366256714
 30
6.6172580718994
 70
   192
  0
VERTEX
  5
2A1
  8
COSTURA
 10
59.60156250000003
 20
-29.58794736862183
 30
6.6172580718994
 70
   192
  0
VERTEX
  5
2A2
  8
COSTURA
 10
61.70135498046884
 20
-29.58794736862183
 30
6.6172580718994
 70
   192
  0
VERTEX
  5
2A3
  8
COSTURA
 10
61.70135498046884
 20
-28.83802366256714
 30
6.6172580718994
 70
   192
  0
VERTEX
  5
2A4
  8
COSTURA
 10
62.28280639648443
 20
-28.83802366256714
 30
6.617256164550767
 70
   192
  0
VERTEX
  5
2A5
  8
COSTURA
 10
62.28280639648443
 20
-29.58794736862183
 30
6.617256164550767
 70
   192
  0
VERTEX
  5
2A6
  8
COSTURA
 10
64.38258361816412
 20
-29.58794736862183
 30
6.617256164550767
 70
   192
  0
VERTEX
  5
2A7
  8
COSTURA
 10
64.38258361816412
 20
-28.83802366256714
 30
6.617256164550767
 70
   192
  0
VERTEX
  5
2A8
  8
COSTURA
 10
64.96403503417972
 20
-28.83802366256714
 30
6.617256164550767
 70
   192
  0
VERTEX
  5
2A9
  8
COSTURA
 10
64.96403503417972
 20
-29.58794736862183
 30
6.617256164550767
 70
   192
  0
VERTEX
  5
2AA
  8
COSTURA
 10
67.06381225585943
 20
-29.58794736862183
 30
6.617256164550767
 70
   192
  0
VERTEX
  5
2AB
  8
COSTURA
 10
67.06381225585943
 20
-28.83802366256714
 30
6.617256164550767
 70
   192
  0
VERTEX
  5
2AC
  8
COSTURA
 10
67.64526367187503
 20
-28.83802366256714
 30
6.617256164550767
 70
   192
  0
VERTEX
  5
2AD
  8
COSTURA
 10
67.64526367187503
 20
-29.58794736862183
 30
6.617256164550767
 70
   192
  0
VERTEX
  5
2AE
  8
COSTURA
 10
69.74505615234384
 20
-29.58794736862183
 30
6.617256164550767
 70
   192
  0
VERTEX
  5
2AF
  8
COSTURA
 10
69.74505615234384
 20
-28.83802366256714
 30
6.617256164550767
 70
   192
  0
VERTEX
  5
2B0
  8
COSTURA
 10
70.32650756835943
 20
-28.83802366256714
 30
6.617256164550767
 70
   192
  0
VERTEX
  5
2B1
  8
COSTURA
 10
70.32650756835943
 20
-29.58794736862183
 30
6.617256164550767
 70
   192
  0
VERTEX
  5
2B2
  8
COSTURA
 10
72.42628479003912
 20
-29.58794736862183
 30
6.617256164550767
 70
   192
  0
VERTEX
  5
2B3
  8
COSTURA
 10
72.42628479003912
 20
-28.83802366256714
 30
6.617256164550767
 70
   192
  0
VERTEX
  5
2B4
  8
COSTURA
 10
72.98263549804693
 20
-28.83802366256714
 30
6.617256164550767
 70
   192
  0
VERTEX
  5
2B5
  8
COSTURA
 10
72.98263549804693
 20
-29.58794736862183
 30
6.617256164550767
 70
   192
  0
VERTEX
  5
2B6
  8
COSTURA
 10
75.08242797851562
 20
-29.58794736862183
 30
6.617256164550767
 70
   192
  0
VERTEX
  5
2B7
  8
COSTURA
 10
75.08242797851562
 20
-28.83802366256714
 30
6.617256164550767
 70
   192
  0
VERTEX
  5
2B8
  8
COSTURA
 10
75.66387939453122
 20
-28.83802366256714
 30
6.617256164550767
 70
   192
  0
VERTEX
  5
2B9
  8
COSTURA
 10
75.66387939453122
 20
-29.58794736862183
 30
6.617256164550767
 70
   192
  0
VERTEX
  5
2BA
  8
COSTURA
 10
77.76365661621094
 20
-29.58794736862183
 30
6.617256164550767
 70
   192
  0
VERTEX
  5
2BB
  8
COSTURA
 10
77.76365661621094
 20
-28.83802366256714
 30
6.617256164550767
 70
   192
  0
VERTEX
  5
2BC
  8
COSTURA
 10
78.34510803222662
 20
-28.83802366256714
 30
6.6172580718994
 70
   192
  0
VERTEX
  5
2BD
  8
COSTURA
 10
78.34510803222662
 20
-29.58794736862183
 30
6.6172580718994
 70
   192
  0
VERTEX
  5
2BE
  8
COSTURA
 10
80.44488525390622
 20
-29.58794736862183
 30
6.6172580718994
 70
   192
  0
VERTEX
  5
2BF
  8
COSTURA
 10
80.44488525390622
 20
-28.83802366256714
 30
6.6172580718994
 70
   192
  0
VERTEX
  5
2C0
  8
COSTURA
 10
81.02633666992193
 20
-28.83802366256714
 30
6.617256164550767
 70
   192
  0
VERTEX
  5
2C1
  8
COSTURA
 10
81.02633666992193
 20
-29.58794736862183
 30
6.617256164550767
 70
   192
  0
VERTEX
  5
2C2
  8
COSTURA
 10
83.12612915039062
 20
-29.58794736862183
 30
6.617256164550767
 70
   192
  0
VERTEX
  5
2C3
  8
COSTURA
 10
83.12612915039062
 20
-28.83802366256714
 30
6.617256164550767
 70
   192
  0
VERTEX
  5
2C4
  8
COSTURA
 10
83.70756530761722
 20
-28.83802366256714
 30
6.617254257202148
 70
   192
  0
VERTEX
  5
2C5
  8
COSTURA
 10
83.70756530761722
 20
-29.58794736862183
 30
6.617254257202148
 70
   192
  0
VERTEX
  5
2C6
  8
COSTURA
 10
85.80735778808594
 20
-29.58794736862183
 30
6.617254257202148
 70
   192
  0
VERTEX
  5
2C7
  8
COSTURA
 10
85.80735778808594
 20
-28.83802366256714
 30
6.617254257202148
 70
   192
  0
VERTEX
  5
2C8
  8
COSTURA
 10
86.38880920410162
 20
-28.83802366256714
 30
6.617254257202148
 70
   192
  0
VERTEX
  5
2C9
  8
COSTURA
 10
86.38880920410162
 20
-29.58794736862183
 30
6.617254257202148
 70
   192
  0
VERTEX
  5
2CA
  8
COSTURA
 10
88.48858642578122
 20
-29.58794736862183
 30
6.617254257202148
 70
   192
  0
VERTEX
  5
2CB
  8
COSTURA
 10
88.48858642578122
 20
-28.83802366256714
 30
6.617254257202148
 70
   192
  0
VERTEX
  5
2CC
  8
COSTURA
 10
89.07003784179693
 20
-28.83802366256714
 30
6.617254257202148
 70
   192
  0
VERTEX
  5
2CD
  8
COSTURA
 10
89.07003784179693
 20
-29.58794736862183
 30
6.617254257202148
 70
   192
  0
VERTEX
  5
2CE
  8
COSTURA
 10
91.16983032226562
 20
-29.58794736862183
 30
6.617254257202148
 70
   192
  0
VERTEX
  5
2CF
  8
COSTURA
 10
91.16983032226562
 20
-28.83802366256714
 30
6.617254257202148
 70
   192
  0
VERTEX
  5
2D0
  8
COSTURA
 10
91.75128173828122
 20
-28.83802366256714
 30
6.617252349853516
 70
   192
  0
VERTEX
  5
2D1
  8
COSTURA
 10
91.75128173828122
 20
-29.58794736862183
 30
6.617252349853516
 70
   192
  0
VERTEX
  5
2D2
  8
COSTURA
 10
93.85105895996094
 20
-29.58794736862183
 30
6.617252349853516
 70
   192
  0
VERTEX
  5
2D3
  8
COSTURA
 10
93.85105895996094
 20
-28.83802366256714
 30
6.617252349853516
 70
   192
  0
VERTEX
  5
2D4
  8
COSTURA
 10
94.40411376953122
 20
-28.83802366256714
 30
6.6172580718994
 70
   192
  0
VERTEX
  5
2D5
  8
COSTURA
 10
94.40411376953122
 20
-29.58794736862183
 30
6.6172580718994
 70
   192
  0
VERTEX
  5
2D6
  8
COSTURA
 10
96.50390625000003
 20
-29.58794736862183
 30
6.6172580718994
 70
   192
  0
VERTEX
  5
2D7
  8
COSTURA
 10
96.50390625000003
 20
-28.83802366256714
 30
6.6172580718994
 70
   192
  0
VERTEX
  5
2D8
  8
COSTURA
 10
97.08535766601562
 20
-28.83802366256714
 30
6.617256164550767
 70
   192
  0
VERTEX
  5
2D9
  8
COSTURA
 10
97.08535766601562
 20
-29.58794736862183
 30
6.617256164550767
 70
   192
  0
VERTEX
  5
2DA
  8
COSTURA
 10
99.18513488769534
 20
-29.58794736862183
 30
6.617256164550767
 70
   192
  0
VERTEX
  5
2DB
  8
COSTURA
 10
99.18513488769534
 20
-28.83802366256714
 30
6.617256164550767
 70
   192
  0
VERTEX
  5
2DC
  8
COSTURA
 10
99.76658630371094
 20
-28.83802366256714
 30
6.617256164550767
 70
   192
  0
VERTEX
  5
2DD
  8
COSTURA
 10
99.76658630371094
 20
-29.58794736862183
 30
6.617256164550767
 70
   192
  0
VERTEX
  5
2DE
  8
COSTURA
 10
101.8663635253906
 20
-29.58794736862183
 30
6.617256164550767
 70
   192
  0
VERTEX
  5
2DF
  8
COSTURA
 10
101.8663635253906
 20
-28.83802366256714
 30
6.617256164550767
 70
   192
  0
VERTEX
  5
2E0
  8
COSTURA
 10
102.4478149414062
 20
-28.83802366256714
 30
6.617256164550767
 70
   192
  0
VERTEX
  5
2E1
  8
COSTURA
 10
102.4478149414062
 20
-29.58794736862183
 30
6.617256164550767
 70
   192
  0
VERTEX
  5
2E2
  8
COSTURA
 10
104.547607421875
 20
-29.58794736862183
 30
6.617256164550767
 70
   192
  0
VERTEX
  5
2E3
  8
COSTURA
 10
104.547607421875
 20
-28.83802366256714
 30
6.617256164550767
 70
   192
  0
VERTEX
  5
2E4
  8
COSTURA
 10
105.1290588378906
 20
-28.83802366256714
 30
6.617254257202148
 70
   192
  0
VERTEX
  5
2E5
  8
COSTURA
 10
105.1290588378906
 20
-29.58794736862183
 30
6.617254257202148
 70
   192
  0
VERTEX
  5
2E6
  8
COSTURA
 10
107.2288360595703
 20
-29.58794736862183
 30
6.617254257202148
 70
   192
  0
VERTEX
  5
2E7
  8
COSTURA
 10
107.2288360595703
 20
-28.83802366256714
 30
6.617254257202148
 70
   192
  0
VERTEX
  5
2E8
  8
COSTURA
 10
107.7851867675781
 20
-28.83802366256714
 30
6.617254257202148
 70
   192
  0
VERTEX
  5
2E9
  8
COSTURA
 10
107.7851867675781
 20
-29.58794736862183
 30
6.617254257202148
 70
   192
  0
VERTEX
  5
2EA
  8
COSTURA
 10
109.8849792480469
 20
-29.58794736862183
 30
6.617254257202148
 70
   192
  0
VERTEX
  5
2EB
  8
COSTURA
 10
109.8849792480469
 20
-28.83802366256714
 30
6.617254257202148
 70
   192
  0
VERTEX
  5
2EC
  8
COSTURA
 10
110.4664306640625
 20
-28.83802366256714
 30
6.617254257202148
 70
   192
  0
VERTEX
  5
2ED
  8
COSTURA
 10
110.4664306640625
 20
-29.58794736862183
 30
6.617254257202148
 70
   192
  0
VERTEX
  5
2EE
  8
COSTURA
 10
112.5662078857422
 20
-29.58794736862183
 30
6.617256164550767
 70
   192
  0
VERTEX
  5
2EF
  8
COSTURA
 10
112.5662078857422
 20
-28.83802366256714
 30
6.617256164550767
 70
   192
  0
VERTEX
  5
2F0
  8
COSTURA
 10
113.1476593017578
 20
-28.8380198478699
 30
6.6172580718994
 70
   192
  0
VERTEX
  5
2F1
  8
COSTURA
 10
113.1476593017578
 20
-29.58794355392456
 30
6.6172580718994
 70
   192
  0
VERTEX
  5
2F2
  8
COSTURA
 10
115.2474365234375
 20
-29.58794355392456
 30
6.6172580718994
 70
   192
  0
VERTEX
  5
2F3
  8
COSTURA
 10
115.2474365234375
 20
-28.8380198478699
 30
6.6172580718994
 70
   192
  0
VERTEX
  5
2F4
  8
COSTURA
 10
115.8288879394531
 20
-28.8380198478699
 30
6.617256164550767
 70
   192
  0
VERTEX
  5
2F5
  8
COSTURA
 10
115.8288879394531
 20
-29.58794355392456
 30
6.617256164550767
 70
   192
  0
VERTEX
  5
2F6
  8
COSTURA
 10
117.9286651611328
 20
-29.58794355392456
 30
6.617256164550767
 70
   192
  0
VERTEX
  5
2F7
  8
COSTURA
 10
117.9286651611328
 20
-28.8380198478699
 30
6.617256164550767
 70
   192
  0
VERTEX
  5
2F8
  8
COSTURA
 10
118.5101165771484
 20
-28.8380198478699
 30
6.617254257202148
 70
   192
  0
VERTEX
  5
2F9
  8
COSTURA
 10
118.5101165771484
 20
-29.58794355392456
 30
6.617254257202148
 70
   192
  0
VERTEX
  5
2FA
  8
COSTURA
 10
120.6099090576172
 20
-29.58794355392456
 30
6.617254257202148
 70
   192
  0
VERTEX
  5
2FB
  8
COSTURA
 10
120.6099090576172
 20
-28.8380198478699
 30
6.617254257202148
 70
   192
  0
VERTEX
  5
2FC
  8
COSTURA
 10
121.1913604736328
 20
-28.8380198478699
 30
6.617254257202148
 70
   192
  0
VERTEX
  5
2FD
  8
COSTURA
 10
121.1913604736328
 20
-29.58794355392456
 30
6.617254257202148
 70
   192
  0
VERTEX
  5
2FE
  8
COSTURA
 10
123.2911376953125
 20
-29.58794355392456
 30
6.617254257202148
 70
   192
  0
VERTEX
  5
2FF
  8
COSTURA
 10
123.2911376953125
 20
-28.8380198478699
 30
6.617254257202148
 70
   192
  0
VERTEX
  5
300
  8
COSTURA
 10
123.8725891113281
 20
-28.8380198478699
 30
6.617254257202148
 70
   192
  0
VERTEX
  5
301
  8
COSTURA
 10
123.8725891113281
 20
-29.58794355392456
 30
6.617254257202148
 70
   192
  0
VERTEX
  5
302
  8
COSTURA
 10
125.9723815917969
 20
-29.58794355392456
 30
6.617254257202148
 70
   192
  0
VERTEX
  5
303
  8
COSTURA
 10
125.9723815917969
 20
-28.8380198478699
 30
6.617254257202148
 70
   192
  0
VERTEX
  5
304
  8
COSTURA
 10
126.5538330078125
 20
-28.8380198478699
 30
6.617252349853516
 70
   192
  0
VERTEX
  5
305
  8
COSTURA
 10
126.5538330078125
 20
-29.58794355392456
 30
6.617252349853516
 70
   192
  0
VERTEX
  5
306
  8
COSTURA
 10
128.6536102294922
 20
-29.58794355392456
 30
6.617252349853516
 70
   192
  0
VERTEX
  5
307
  8
COSTURA
 10
128.6536102294922
 20
-28.8380198478699
 30
6.617252349853516
 70
   192
  0
VERTEX
  5
308
  8
COSTURA
 10
129.2371520996094
 20
-28.83802366256714
 30
6.6172580718994
 70
   192
  0
VERTEX
  5
309
  8
COSTURA
 10
129.2371520996094
 20
-29.58794736862183
 30
6.6172580718994
 70
   192
  0
VERTEX
  5
30A
  8
COSTURA
 10
131.3369445800781
 20
-29.58794736862183
 30
6.6172580718994
 70
   192
  0
VERTEX
  5
30B
  8
COSTURA
 10
131.3369445800781
 20
-28.83802366256714
 30
6.6172580718994
 70
   192
  0
VERTEX
  5
30C
  8
COSTURA
 10
131.9183959960938
 20
-28.83802366256714
 30
6.617256164550767
 70
   192
  0
VERTEX
  5
30D
  8
COSTURA
 10
131.9183959960938
 20
-29.58794736862183
 30
6.617256164550767
 70
   192
  0
VERTEX
  5
30E
  8
COSTURA
 10
134.0181732177734
 20
-29.58794736862183
 30
6.617256164550767
 70
   192
  0
VERTEX
  5
30F
  8
COSTURA
 10
134.0181732177734
 20
-28.83802366256714
 30
6.617256164550767
 70
   192
  0
VERTEX
  5
310
  8
COSTURA
 10
134.5996246337891
 20
-28.83802366256714
 30
6.617256164550767
 70
   192
  0
VERTEX
  5
311
  8
COSTURA
 10
134.5996246337891
 20
-29.58794736862183
 30
6.617256164550767
 70
   192
  0
VERTEX
  5
312
  8
COSTURA
 10
136.6994018554688
 20
-29.58794736862183
 30
6.617256164550767
 70
   192
  0
VERTEX
  5
313
  8
COSTURA
 10
136.6994018554688
 20
-28.83802366256714
 30
6.617256164550767
 70
   192
  0
VERTEX
  5
314
  8
COSTURA
 10
137.2808532714844
 20
-28.83802366256714
 30
6.617256164550767
 70
   192
  0
VERTEX
  5
315
  8
COSTURA
 10
137.2808532714844
 20
-29.58794736862183
 30
6.617256164550767
 70
   192
  0
VERTEX
  5
316
  8
COSTURA
 10
139.3806457519531
 20
-29.58794736862183
 30
6.617256164550767
 70
   192
  0
VERTEX
  5
317
  8
COSTURA
 10
139.3806457519531
 20
-28.83802366256714
 30
6.617256164550767
 70
   192
  0
VERTEX
  5
318
  8
COSTURA
 10
139.9620971679688
 20
-28.83802366256714
 30
6.617254257202148
 70
   192
  0
VERTEX
  5
319
  8
COSTURA
 10
139.9620971679688
 20
-29.58794736862183
 30
6.617254257202148
 70
   192
  0
VERTEX
  5
31A
  8
COSTURA
 10
142.0618743896484
 20
-29.58794736862183
 30
6.617254257202148
 70
   192
  0
VERTEX
  5
31B
  8
COSTURA
 10
142.0618743896484
 20
-28.83802366256714
 30
6.617254257202148
 70
   192
  0
VERTEX
  5
31C
  8
COSTURA
 10
142.6182250976562
 20
-28.83802366256714
 30
6.617254257202148
 70
   192
  0
VERTEX
  5
31D
  8
COSTURA
 10
142.6182250976562
 20
-29.58794736862183
 30
6.617254257202148
 70
   192
  0
VERTEX
  5
31E
  8
COSTURA
 10
144.718017578125
 20
-29.58794736862183
 30
6.617254257202148
 70
   192
  0
VERTEX
  5
31F
  8
COSTURA
 10
144.718017578125
 20
-28.83802366256714
 30
6.617254257202148
 70
   192
  0
VERTEX
  5
320
  8
COSTURA
 10
145.2994537353516
 20
-28.83802366256714
 30
6.617254257202148
 70
   192
  0
VERTEX
  5
321
  8
COSTURA
 10
145.2994537353516
 20
-29.58794736862183
 30
6.617254257202148
 70
   192
  0
VERTEX
  5
322
  8
COSTURA
 10
147.3992462158203
 20
-29.58794736862185
 30
6.617254257202148
 70
   192
  0
VERTEX
  5
323
  8
COSTURA
 10
147.3992462158203
 20
-28.83802366256717
 30
6.617254257202148
 70
   192
  0
VERTEX
  5
324
  8
COSTURA
 10
147.9806976318359
 20
-28.83802366256717
 30
6.6172580718994
 70
   192
  0
VERTEX
  5
325
  8
COSTURA
 10
147.9806976318359
 20
-29.58794736862185
 30
6.6172580718994
 70
   192
  0
VERTEX
  5
326
  8
COSTURA
 10
150.0804748535156
 20
-29.58794736862185
 30
6.617256164550767
 70
   192
  0
VERTEX
  5
327
  8
COSTURA
 10
150.0804748535156
 20
-28.83802366256717
 30
6.617256164550767
 70
   192
  0
VERTEX
  5
328
  8
COSTURA
 10
150.6619262695312
 20
-28.83802366256717
 30
6.617254257202148
 70
   192
  0
VERTEX
  5
329
  8
COSTURA
 10
150.6619262695312
 20
-29.58794736862185
 30
6.617254257202148
 70
   192
  0
VERTEX
  5
32A
  8
COSTURA
 10
152.7617034912109
 20
-29.58794736862185
 30
6.617254257202148
 70
   192
  0
VERTEX
  5
32B
  8
COSTURA
 10
152.7617034912109
 20
-28.83802366256717
 30
6.617254257202148
 70
   192
  0
VERTEX
  5
32C
  8
COSTURA
 10
153.3431549072266
 20
-28.83802366256717
 30
6.617252349853516
 70
   192
  0
VERTEX
  5
32D
  8
COSTURA
 10
153.3431549072266
 20
-29.58794736862185
 30
6.617252349853516
 70
   192
  0
VERTEX
  5
32E
  8
COSTURA
 10
155.4429473876953
 20
-29.58794736862185
 30
6.617252349853516
 70
   192
  0
VERTEX
  5
32F
  8
COSTURA
 10
155.4429473876953
 20
-28.83802366256717
 30
6.617252349853516
 70
   192
  0
VERTEX
  5
330
  8
COSTURA
 10
156.0243988037109
 20
-28.83802366256717
 30
6.617252349853516
 70
   192
  0
VERTEX
  5
331
  8
COSTURA
 10
156.0243988037109
 20
-29.58794736862185
 30
6.617252349853516
 70
   192
  0
VERTEX
  5
332
  8
COSTURA
 10
158.1241760253906
 20
-29.58794736862185
 30
6.617252349853516
 70
   192
  0
VERTEX
  5
333
  8
COSTURA
 10
158.1241760253906
 20
-28.83802366256717
 30
6.617252349853516
 70
   192
  0
VERTEX
  5
334
  8
COSTURA
 10
158.7056274414062
 20
-28.83802366256717
 30
6.617252349853516
 70
   192
  0
VERTEX
  5
335
  8
COSTURA
 10
158.7056274414062
 20
-29.58794736862185
 30
6.617252349853516
 70
   192
  0
VERTEX
  5
336
  8
COSTURA
 10
160.805419921875
 20
-29.58794736862185
 30
6.617254257202148
 70
   192
  0
VERTEX
  5
337
  8
COSTURA
 10
160.805419921875
 20
-28.83802366256717
 30
6.617254257202148
 70
   192
  0
VERTEX
  5
338
  8
COSTURA
 10
161.3868713378906
 20
-28.83802366256717
 30
6.617252349853516
 70
   192
  0
VERTEX
  5
339
  8
COSTURA
 10
161.3868713378906
 20
-29.58794736862185
 30
6.617252349853516
 70
   192
  0
VERTEX
  5
33A
  8
COSTURA
 10
163.4866485595703
 20
-29.58794736862185
 30
6.617252349853516
 70
   192
  0
VERTEX
  5
33B
  8
COSTURA
 10
163.4866485595703
 20
-28.83802366256717
 30
6.617252349853516
 70
   192
  0
VERTEX
  5
33C
  8
COSTURA
 10
164.0397186279297
 20
-28.83802366256717
 30
6.6172580718994
 70
   192
  0
VERTEX
  5
33D
  8
COSTURA
 10
164.0397186279297
 20
-29.58794736862185
 30
6.6172580718994
 70
   192
  0
VERTEX
  5
33E
  8
COSTURA
 10
166.1395111083984
 20
-29.58794736862185
 30
6.6172580718994
 70
   192
  0
VERTEX
  5
33F
  8
COSTURA
 10
166.1395111083984
 20
-28.83802366256717
 30
6.6172580718994
 70
   192
  0
VERTEX
  5
340
  8
COSTURA
 10
166.7209625244141
 20
-28.83802366256717
 30
6.617256164550767
 70
   192
  0
VERTEX
  5
341
  8
COSTURA
 10
166.7209625244141
 20
-29.58794736862185
 30
6.617256164550767
 70
   192
  0
VERTEX
  5
342
  8
COSTURA
 10
168.8207397460938
 20
-29.58794736862185
 30
6.617256164550767
 70
   192
  0
VERTEX
  5
343
  8
COSTURA
 10
168.8207397460938
 20
-28.83802366256717
 30
6.617256164550767
 70
   192
  0
VERTEX
  5
344
  8
COSTURA
 10
169.4021911621094
 20
-28.83802366256717
 30
6.617256164550767
 70
   192
  0
VERTEX
  5
345
  8
COSTURA
 10
169.4021911621094
 20
-29.58794736862185
 30
6.617256164550767
 70
   192
  0
VERTEX
  5
346
  8
COSTURA
 10
171.5019683837891
 20
-29.58794736862185
 30
6.617256164550767
 70
   192
  0
VERTEX
  5
347
  8
COSTURA
 10
171.5019683837891
 20
-28.83802366256717
 30
6.617256164550767
 70
   192
  0
VERTEX
  5
348
  8
COSTURA
 10
172.0834197998047
 20
-28.83802366256717
 30
6.617256164550767
 70
   192
  0
VERTEX
  5
349
  8
COSTURA
 10
172.0834197998047
 20
-29.58794736862185
 30
6.617256164550767
 70
   192
  0
VERTEX
  5
34A
  8
COSTURA
 10
174.1832122802734
 20
-29.58794736862185
 30
6.617256164550767
 70
   192
  0
VERTEX
  5
34B
  8
COSTURA
 10
174.1832122802734
 20
-28.83802366256717
 30
6.617256164550767
 70
   192
  0
VERTEX
  5
34C
  8
COSTURA
 10
174.7646636962891
 20
-28.83802366256717
 30
6.617254257202148
 70
   192
  0
VERTEX
  5
34D
  8
COSTURA
 10
174.7646636962891
 20
-29.58794736862185
 30
6.617254257202148
 70
   192
  0
VERTEX
  5
34E
  8
COSTURA
 10
176.8644409179688
 20
-29.58794736862185
 30
6.617254257202148
 70
   192
  0
VERTEX
  5
34F
  8
COSTURA
 10
176.8644409179688
 20
-28.83802366256717
 30
6.617254257202148
 70
   192
  0
VERTEX
  5
350
  8
COSTURA
 10
177.4207916259766
 20
-28.83802366256717
 30
6.617254257202148
 70
   192
  0
VERTEX
  5
351
  8
COSTURA
 10
177.4207916259766
 20
-29.58794736862185
 30
6.617254257202148
 70
   192
  0
VERTEX
  5
352
  8
COSTURA
 10
179.5205688476562
 20
-29.58794736862185
 30
6.617254257202148
 70
   192
  0
VERTEX
  5
353
  8
COSTURA
 10
179.5205688476562
 20
-28.83802366256717
 30
6.617254257202148
 70
   192
  0
VERTEX
  5
354
  8
COSTURA
 10
180.1020202636719
 20
-28.83802366256717
 30
6.617254257202148
 70
   192
  0
VERTEX
  5
355
  8
COSTURA
 10
180.1020202636719
 20
-29.58794736862185
 30
6.617254257202148
 70
   192
  0
VERTEX
  5
356
  8
COSTURA
 10
182.2018127441406
 20
-29.58794736862185
 30
6.617254257202148
 70
   192
  0
VERTEX
  5
357
  8
COSTURA
 10
182.2018127441406
 20
-28.83802366256717
 30
6.617254257202148
 70
   192
  0
VERTEX
  5
358
  8
COSTURA
 10
182.7832641601562
 20
-28.8380198478699
 30
6.6172580718994
 70
   192
  0
VERTEX
  5
359
  8
COSTURA
 10
182.7832641601562
 20
-29.58794355392459
 30
6.6172580718994
 70
   192
  0
VERTEX
  5
35A
  8
COSTURA
 10
184.8830413818359
 20
-29.58794736862185
 30
6.617256164550767
 70
   192
  0
VERTEX
  5
35B
  8
COSTURA
 10
184.8830413818359
 20
-28.83802366256717
 30
6.617256164550767
 70
   192
  0
VERTEX
  5
35C
  8
COSTURA
 10
185.4644927978516
 20
-28.83802366256717
 30
6.617254257202148
 70
   192
  0
VERTEX
  5
35D
  8
COSTURA
 10
185.4644927978516
 20
-29.58794736862185
 30
6.617254257202148
 70
   192
  0
VERTEX
  5
35E
  8
COSTURA
 10
187.5642700195312
 20
-29.58794736862185
 30
6.617254257202148
 70
   192
  0
VERTEX
  5
35F
  8
COSTURA
 10
187.5642700195312
 20
-28.83802366256717
 30
6.617254257202148
 70
   192
  0
VERTEX
  5
360
  8
COSTURA
 10
188.1457214355469
 20
-28.83802366256717
 30
6.617252349853516
 70
   192
  0
VERTEX
  5
361
  8
COSTURA
 10
188.1457214355469
 20
-29.58794736862185
 30
6.617252349853516
 70
   192
  0
VERTEX
  5
362
  8
COSTURA
 10
190.2455139160156
 20
-29.58794736862185
 30
6.617252349853516
 70
   192
  0
VERTEX
  5
363
  8
COSTURA
 10
190.2455139160156
 20
-28.83802366256717
 30
6.617252349853516
 70
   192
  0
VERTEX
  5
364
  8
COSTURA
 10
190.8269653320312
 20
-28.83802366256717
 30
6.617252349853516
 70
   192
  0
VERTEX
  5
365
  8
COSTURA
 10
190.8269653320312
 20
-29.58794736862185
 30
6.617252349853516
 70
   192
  0
VERTEX
  5
366
  8
COSTURA
 10
192.9267425537109
 20
-29.58794736862185
 30
6.617252349853516
 70
   192
  0
VERTEX
  5
367
  8
COSTURA
 10
192.9267425537109
 20
-28.83802366256717
 30
6.617252349853516
 70
   192
  0
VERTEX
  5
368
  8
COSTURA
 10
193.5081939697266
 20
-28.83802366256717
 30
6.617252349853516
 70
   192
  0
VERTEX
  5
369
  8
COSTURA
 10
193.5081939697266
 20
-29.58794736862185
 30
6.617252349853516
 70
   192
  0
VERTEX
  5
36A
  8
COSTURA
 10
195.6079711914062
 20
-29.58794736862185
 30
6.617252349853516
 70
   192
  0
VERTEX
  5
36B
  8
COSTURA
 10
195.6079711914062
 20
-28.83802366256717
 30
6.617252349853516
 70
   192
  0
VERTEX
  5
36C
  8
COSTURA
 10
196.1894226074219
 20
-28.83802366256717
 30
6.617250442504869
 70
   192
  0
VERTEX
  5
36D
  8
COSTURA
 10
196.1894226074219
 20
-29.58794736862185
 30
6.617250442504869
 70
   192
  0
VERTEX
  5
36E
  8
COSTURA
 10
198.2892150878906
 20
-29.58794736862185
 30
6.617250442504869
 70
   192
  0
VERTEX
  5
36F
  8
COSTURA
 10
198.2892150878906
 20
-28.83802366256717
 30
6.617250442504869
 70
   192
  0
VERTEX
  5
370
  8
COSTURA
 10
0.0
 20
0.0
 30
0.0
 70
   128
 71
     1
 72
     2
 73
     3
 74
     4
  0
VERTEX
  5
371
  8
COSTURA
 10
0.0
 20
0.0
 30
0.0
 70
   128
 71
     5
 72
     6
 73
     7
 74
     8
  0
VERTEX
  5
372
  8
COSTURA
 10
0.0
 20
0.0
 30
0.0
 70
   128
 71
     9
 72
    10
 73
    11
 74
    12
  0
VERTEX
  5
373
  8
COSTURA
 10
0.0
 20
0.0
 30
0.0
 70
   128
 71
    13
 72
    14
 73
    15
 74
    16
  0
VERTEX
  5
374
  8
COSTURA
 10
0.0
 20
0.0
 30
0.0
 70
   128
 71
    17
 72
    18
 73
    19
 74
    20
  0
VERTEX
  5
375
  8
COSTURA
 10
0.0
 20
0.0
 30
0.0
 70
   128
 71
    21
 72
    22
 73
    23
 74
    24
  0
VERTEX
  5
376
  8
COSTURA
 10
0.0
 20
0.0
 30
0.0
 70
   128
 71
    25
 72
    26
 73
    27
 74
    28
  0
VERTEX
  5
377
  8
COSTURA
 10
0.0
 20
0.0
 30
0.0
 70
   128
 71
    29
 72
    30
 73
    31
 74
    32
  0
VERTEX
  5
378
  8
COSTURA
 10
0.0
 20
0.0
 30
0.0
 70
   128
 71
    33
 72
    34
 73
    35
 74
    36
  0
VERTEX
  5
379
  8
COSTURA
 10
0.0
 20
0.0
 30
0.0
 70
   128
 71
    37
 72
    38
 73
    39
 74
    40
  0
VERTEX
  5
37A
  8
COSTURA
 10
0.0
 20
0.0
 30
0.0
 70
   128
 71
    41
 72
    42
 73
    43
 74
    44
  0
VERTEX
  5
37B
  8
COSTURA
 10
0.0
 20
0.0
 30
0.0
 70
   128
 71
    45
 72
    46
 73
    47
 74
    48
  0
VERTEX
  5
37C
  8
COSTURA
 10
0.0
 20
0.0
 30
0.0
 70
   128
 71
    49
 72
    50
 73
    51
 74
    52
  0
VERTEX
  5
37D
  8
COSTURA
 10
0.0
 20
0.0
 30
0.0
 70
   128
 71
    53
 72
    54
 73
    55
 74
    56
  0
VERTEX
  5
37E
  8
COSTURA
 10
0.0
 20
0.0
 30
0.0
 70
   128
 71
    57
 72
    58
 73
    59
 74
    60
  0
VERTEX
  5
37F
  8
COSTURA
 10
0.0
 20
0.0
 30
0.0
 70
   128
 71
    61
 72
    62
 73
    63
 74
    64
  0
VERTEX
  5
380
  8
COSTURA
 10
0.0
 20
0.0
 30
0.0
 70
   128
 71
    65
 72
    66
 73
    67
 74
    68
  0
VERTEX
  5
381
  8
COSTURA
 10
0.0
 20
0.0
 30
0.0
 70
   128
 71
    69
 72
    70
 73
    71
 74
    72
  0
VERTEX
  5
382
  8
COSTURA
 10
0.0
 20
0.0
 30
0.0
 70
   128
 71
    73
 72
    74
 73
    75
 74
    76
  0
VERTEX
  5
383
  8
COSTURA
 10
0.0
 20
0.0
 30
0.0
 70
   128
 71
    77
 72
    78
 73
    79
 74
    80
  0
VERTEX
  5
384
  8
COSTURA
 10
0.0
 20
0.0
 30
0.0
 70
   128
 71
    81
 72
    82
 73
    83
 74
    84
  0
VERTEX
  5
385
  8
COSTURA
 10
0.0
 20
0.0
 30
0.0
 70
   128
 71
    85
 72
    86
 73
    87
 74
    88
  0
VERTEX
  5
386
  8
COSTURA
 10
0.0
 20
0.0
 30
0.0
 70
   128
 71
    89
 72
    90
 73
    91
 74
    92
  0
VERTEX
  5
387
  8
COSTURA
 10
0.0
 20
0.0
 30
0.0
 70
   128
 71
    93
 72
    94
 73
    95
 74
    96
  0
VERTEX
  5
388
  8
COSTURA
 10
0.0
 20
0.0
 30
0.0
 70
   128
 71
    97
 72
    98
 73
    99
 74
   100
  0
VERTEX
  5
389
  8
COSTURA
 10
0.0
 20
0.0
 30
0.0
 70
   128
 71
   101
 72
   102
 73
   103
 74
   104
  0
VERTEX
  5
38A
  8
COSTURA
 10
0.0
 20
0.0
 30
0.0
 70
   128
 71
   105
 72
   106
 73
   107
 74
   108
  0
VERTEX
  5
38B
  8
COSTURA
 10
0.0
 20
0.0
 30
0.0
 70
   128
 71
   109
 72
   110
 73
   111
 74
   112
  0
VERTEX
  5
38C
  8
COSTURA
 10
0.0
 20
0.0
 30
0.0
 70
   128
 71
   113
 72
   114
 73
   115
 74
   116
  0
VERTEX
  5
38D
  8
COSTURA
 10
0.0
 20
0.0
 30
0.0
 70
   128
 71
   117
 72
   118
 73
   119
 74
   120
  0
VERTEX
  5
38E
  8
COSTURA
 10
0.0
 20
0.0
 30
0.0
 70
   128
 71
   121
 72
   122
 73
   123
 74
   124
  0
VERTEX
  5
38F
  8
COSTURA
 10
0.0
 20
0.0
 30
0.0
 70
   128
 71
   125
 72
   126
 73
   127
 74
   128
  0
VERTEX
  5
390
  8
COSTURA
 10
0.0
 20
0.0
 30
0.0
 70
   128
 71
   129
 72
   130
 73
   131
 74
   132
  0
VERTEX
  5
391
  8
COSTURA
 10
0.0
 20
0.0
 30
0.0
 70
   128
 71
   133
 72
   134
 73
   135
 74
   136
  0
VERTEX
  5
392
  8
COSTURA
 10
0.0
 20
0.0
 30
0.0
 70
   128
 71
   137
 72
   138
 73
   139
 74
   140
  0
VERTEX
  5
393
  8
COSTURA
 10
0.0
 20
0.0
 30
0.0
 70
   128
 71
   141
 72
   142
 73
   143
 74
   144
  0
VERTEX
  5
394
  8
COSTURA
 10
0.0
 20
0.0
 30
0.0
 70
   128
 71
   145
 72
   146
 73
   147
 74
   148
  0
VERTEX
  5
395
  8
COSTURA
 10
0.0
 20
0.0
 30
0.0
 70
   128
 71
   149
 72
   150
 73
   151
 74
   152
  0
VERTEX
  5
396
  8
COSTURA
 10
0.0
 20
0.0
 30
0.0
 70
   128
 71
   153
 72
   154
 73
   155
 74
   156
  0
VERTEX
  5
397
  8
COSTURA
 10
0.0
 20
0.0
 30
0.0
 70
   128
 71
   157
 72
   158
 73
   159
 74
   160
  0
VERTEX
  5
398
  8
COSTURA
 10
0.0
 20
0.0
 30
0.0
 70
   128
 71
   161
 72
   162
 73
   163
 74
   164
  0
VERTEX
  5
399
  8
COSTURA
 10
0.0
 20
0.0
 30
0.0
 70
   128
 71
   165
 72
   166
 73
   167
 74
   168
  0
VERTEX
  5
39A
  8
COSTURA
 10
0.0
 20
0.0
 30
0.0
 70
   128
 71
   169
 72
   170
 73
   171
 74
   172
  0
VERTEX
  5
39B
  8
COSTURA
 10
0.0
 20
0.0
 30
0.0
 70
   128
 71
   173
 72
   174
 73
   175
 74
   176
  0
VERTEX
  5
39C
  8
COSTURA
 10
0.0
 20
0.0
 30
0.0
 70
   128
 71
   177
 72
   178
 73
   179
 74
   180
  0
VERTEX
  5
39D
  8
COSTURA
 10
0.0
 20
0.0
 30
0.0
 70
   128
 71
   181
 72
   182
 73
   183
 74
   184
  0
VERTEX
  5
39E
  8
COSTURA
 10
0.0
 20
0.0
 30
0.0
 70
   128
 71
   185
 72
   186
 73
   187
 74
   188
  0
VERTEX
  5
39F
  8
COSTURA
 10
0.0
 20
0.0
 30
0.0
 70
   128
 71
   189
 72
   190
 73
   191
 74
   192
  0
VERTEX
  5
3A0
  8
COSTURA
 10
0.0
 20
0.0
 30
0.0
 70
   128
 71
   193
 72
   194
 73
   195
 74
   196
  0
VERTEX
  5
3A1
  8
COSTURA
 10
0.0
 20
0.0
 30
0.0
 70
   128
 71
   197
 72
   198
 73
   199
 74
   200
  0
VERTEX
  5
3A2
  8
COSTURA
 10
0.0
 20
0.0
 30
0.0
 70
   128
 71
   201
 72
   202
 73
   203
 74
   204
  0
VERTEX
  5
3A3
  8
COSTURA
 10
0.0
 20
0.0
 30
0.0
 70
   128
 71
   205
 72
   206
 73
   207
 74
   208
  0
VERTEX
  5
3A4
  8
COSTURA
 10
0.0
 20
0.0
 30
0.0
 70
   128
 71
   209
 72
   210
 73
   211
 74
   212
  0
VERTEX
  5
3A5
  8
COSTURA
 10
0.0
 20
0.0
 30
0.0
 70
   128
 71
   213
 72
   214
 73
   215
 74
   216
  0
VERTEX
  5
3A6
  8
COSTURA
 10
0.0
 20
0.0
 30
0.0
 70
   128
 71
   217
 72
   218
 73
   219
 74
   220
  0
VERTEX
  5
3A7
  8
COSTURA
 10
0.0
 20
0.0
 30
0.0
 70
   128
 71
   221
 72
   222
 73
   223
 74
   224
  0
VERTEX
  5
3A8
  8
COSTURA
 10
0.0
 20
0.0
 30
0.0
 70
   128
 71
   225
 72
   226
 73
   227
 74
   228
  0
VERTEX
  5
3A9
  8
COSTURA
 10
0.0
 20
0.0
 30
0.0
 70
   128
 71
   229
 72
   230
 73
   231
 74
   232
  0
VERTEX
  5
3AA
  8
COSTURA
 10
0.0
 20
0.0
 30
0.0
 70
   128
 71
   233
 72
   234
 73
   235
 74
   236
  0
VERTEX
  5
3AB
  8
COSTURA
 10
0.0
 20
0.0
 30
0.0
 70
   128
 71
   237
 72
   238
 73
   239
 74
   240
  0
VERTEX
  5
3AC
  8
COSTURA
 10
0.0
 20
0.0
 30
0.0
 70
   128
 71
   241
 72
   242
 73
   243
 74
   244
  0
VERTEX
  5
3AD
  8
COSTURA
 10
0.0
 20
0.0
 30
0.0
 70
   128
 71
   245
 72
   246
 73
   247
 74
   248
  0
VERTEX
  5
3AE
  8
COSTURA
 10
0.0
 20
0.0
 30
0.0
 70
   128
 71
   249
 72
   250
 73
   251
 74
   252
  0
VERTEX
  5
3AF
  8
COSTURA
 10
0.0
 20
0.0
 30
0.0
 70
   128
 71
   253
 72
   254
 73
   255
 74
   256
  0
VERTEX
  5
3B0
  8
COSTURA
 10
0.0
 20
0.0
 30
0.0
 70
   128
 71
   257
 72
   258
 73
   259
 74
   260
  0
VERTEX
  5
3B1
  8
COSTURA
 10
0.0
 20
0.0
 30
0.0
 70
   128
 71
   261
 72
   262
 73
   263
 74
   264
  0
VERTEX
  5
3B2
  8
COSTURA
 10
0.0
 20
0.0
 30
0.0
 70
   128
 71
   265
 72
   266
 73
   267
 74
   268
  0
VERTEX
  5
3B3
  8
COSTURA
 10
0.0
 20
0.0
 30
0.0
 70
   128
 71
   269
 72
   270
 73
   271
 74
   272
  0
VERTEX
  5
3B4
  8
COSTURA
 10
0.0
 20
0.0
 30
0.0
 70
   128
 71
   273
 72
   274
 73
   275
 74
   276
  0
VERTEX
  5
3B5
  8
COSTURA
 10
0.0
 20
0.0
 30
0.0
 70
   128
 71
   277
 72
   278
 73
   279
 74
   280
  0
VERTEX
  5
3B6
  8
COSTURA
 10
0.0
 20
0.0
 30
0.0
 70
   128
 71
   281
 72
   282
 73
   283
 74
   284
  0
VERTEX
  5
3B7
  8
COSTURA
 10
0.0
 20
0.0
 30
0.0
 70
   128
 71
   285
 72
   286
 73
   287
 74
   288
  0
SEQEND
  5
603
  8
COSTURA
  0
POLYLINE
  5
3B9
  8
METAL
 66
     1
 10
0.0
 20
0.0
 30
0.0
 70
    64
 71
   154
 72
    74
  0
VERTEX
  5
3BA
  8
METAL
 10
1.010040283203125
 20
-34.18101072311401
 30
1.85219573974608
 70
   192
  0
VERTEX
  5
3BB
  8
METAL
 10
1.010040283203125
 20
-34.18101072311401
 30
1.85219573974608
 70
   192
  0
VERTEX
  5
3BC
  8
METAL
 10
1.010040283203125
 20
-35.8972544670105
 30
2.312063217163086
 70
   192
  0
VERTEX
  5
3BD
  8
METAL
 10
1.010040283203125
 20
-35.8972544670105
 30
2.312063217163086
 70
   192
  0
VERTEX
  5
3BE
  8
METAL
 10
1.010040283203125
 20
-32.46476316452026
 30
2.312063217163086
 70
   192
  0
VERTEX
  5
3BF
  8
METAL
 10
1.010040283203125
 20
-32.46476316452026
 30
2.312063217163086
 70
   192
  0
VERTEX
  5
3C0
  8
METAL
 10
1.010040283203125
 20
-37.15363645553589
 30
3.56844329833983
 70
   192
  0
VERTEX
  5
3C1
  8
METAL
 10
1.010040283203125
 20
-37.15363645553589
 30
3.56844329833983
 70
   192
  0
VERTEX
  5
3C2
  8
METAL
 10
1.010040283203125
 20
-31.20838117599487
 30
3.56844329833983
 70
   192
  0
VERTEX
  5
3C3
  8
METAL
 10
1.010040283203125
 20
-31.20838117599487
 30
3.56844329833983
 70
   192
  0
VERTEX
  5
3C4
  8
METAL
 10
1.010040283203125
 20
-30.74851179122925
 30
5.284688949584961
 70
   192
  0
VERTEX
  5
3C5
  8
METAL
 10
1.010040283203125
 20
-30.74851179122925
 30
5.284688949584961
 70
   192
  0
VERTEX
  5
3C6
  8
METAL
 10
1.010040283203125
 20
-37.61350202560425
 30
5.28469085693358
 70
   192
  0
VERTEX
  5
3C7
  8
METAL
 10
1.010040283203125
 20
-37.61350202560425
 30
5.28469085693358
 70
   192
  0
VERTEX
  5
3C8
  8
METAL
 10
1.010040283203125
 20
-37.61350202560425
 30
5.28469085693358
 70
   192
  0
VERTEX
  5
3C9
  8
METAL
 10
1.010040283203125
 20
-31.20838117599487
 30
7.000936508178711
 70
   192
  0
VERTEX
  5
3CA
  8
METAL
 10
1.010040283203125
 20
-31.20838117599487
 30
7.000936508178711
 70
   192
  0
VERTEX
  5
3CB
  8
METAL
 10
1.010040283203125
 20
-37.15363645553589
 30
7.00093841552733
 70
   192
  0
VERTEX
  5
3CC
  8
METAL
 10
1.010040283203125
 20
-37.15363645553589
 30
7.00093841552733
 70
   192
  0
VERTEX
  5
3CD
  8
METAL
 10
1.010040283203125
 20
-35.8972544670105
 30
8.257318496704087
 70
   192
  0
VERTEX
  5
3CE
  8
METAL
 10
1.010040283203125
 20
-35.8972544670105
 30
8.257318496704087
 70
   192
  0
VERTEX
  5
3CF
  8
METAL
 10
1.010040283203125
 20
-32.46476316452026
 30
8.257318496704087
 70
   192
  0
VERTEX
  5
3D0
  8
METAL
 10
1.010040283203125
 20
-32.46476316452026
 30
8.257318496704087
 70
   192
  0
VERTEX
  5
3D1
  8
METAL
 10
1.010040283203125
 20
-34.18101072311401
 30
8.71718597412108
 70
   192
  0
VERTEX
  5
3D2
  8
METAL
 10
1.010040283203125
 20
-34.18101072311401
 30
8.71718597412108
 70
   192
  0
VERTEX
  5
3D3
  8
METAL
 10
4.357147216796903
 20
-34.18101072311401
 30
1.85219573974608
 70
   192
  0
VERTEX
  5
3D4
  8
METAL
 10
4.357147216796903
 20
-34.18101072311401
 30
1.85219573974608
 70
   192
  0
VERTEX
  5
3D5
  8
METAL
 10
4.357147216796903
 20
-35.8972544670105
 30
2.312063217163086
 70
   192
  0
VERTEX
  5
3D6
  8
METAL
 10
4.357147216796903
 20
-35.8972544670105
 30
2.312063217163086
 70
   192
  0
VERTEX
  5
3D7
  8
METAL
 10
4.357147216796903
 20
-32.46476316452026
 30
2.312063217163086
 70
   192
  0
VERTEX
  5
3D8
  8
METAL
 10
4.357147216796903
 20
-32.46476316452026
 30
2.312063217163086
 70
   192
  0
VERTEX
  5
3D9
  8
METAL
 10
4.357147216796903
 20
-34.18101072311401
 30
2.540315628051758
 70
   192
  0
VERTEX
  5
3DA
  8
METAL
 10
4.357147216796903
 20
-34.18101072311401
 30
2.540315628051758
 70
   192
  0
VERTEX
  5
3DB
  8
METAL
 10
4.357147216796903
 20
-32.80882215499878
 30
2.907991409301758
 70
   192
  0
VERTEX
  5
3DC
  8
METAL
 10
4.357147216796903
 20
-32.80882215499878
 30
2.907991409301758
 70
   192
  0
VERTEX
  5
3DD
  8
METAL
 10
4.357147216796903
 20
-35.55321455001831
 30
2.908000946044908
 70
   192
  0
VERTEX
  5
3DE
  8
METAL
 10
4.357147216796903
 20
-35.55321455001831
 30
2.908000946044908
 70
   192
  0
VERTEX
  5
3DF
  8
METAL
 10
4.357147216796903
 20
-31.20838117599487
 30
3.568441390991211
 70
   192
  0
VERTEX
  5
3E0
  8
METAL
 10
4.357147216796903
 20
-31.20838117599487
 30
3.568441390991211
 70
   192
  0
VERTEX
  5
3E1
  8
METAL
 10
4.357147216796903
 20
-37.15363645553589
 30
3.56844329833983
 70
   192
  0
VERTEX
  5
3E2
  8
METAL
 10
4.357147216796903
 20
-37.15363645553589
 30
3.56844329833983
 70
   192
  0
VERTEX
  5
3E3
  8
METAL
 10
4.357147216796903
 20
-36.55770826339722
 30
3.912502288818345
 70
   192
  0
VERTEX
  5
3E4
  8
METAL
 10
4.357147216796903
 20
-36.55770826339722
 30
3.912502288818345
 70
   192
  0
VERTEX
  5
3E5
  8
METAL
 10
4.357147216796903
 20
-31.80430173873901
 30
3.912519454956055
 70
   192
  0
VERTEX
  5
3E6
  8
METAL
 10
4.357147216796903
 20
-31.80430173873901
 30
3.912519454956055
 70
   192
  0
VERTEX
  5
3E7
  8
METAL
 10
4.357147216796903
 20
-36.92538404464722
 30
5.284669876098619
 70
   192
  0
VERTEX
  5
3E8
  8
METAL
 10
4.357147216796903
 20
-36.92538404464722
 30
5.284669876098619
 70
   192
  0
VERTEX
  5
3E9
  8
METAL
 10
4.357147216796903
 20
-36.92538404464722
 30
5.284669876098619
 70
   192
  0
VERTEX
  5
3EA
  8
METAL
 10
4.357147216796903
 20
-36.92538404464722
 30
5.284669876098619
 70
   192
  0
VERTEX
  5
3EB
  8
METAL
 10
4.357147216796903
 20
-31.43663358688354
 30
5.284669876098619
 70
   192
  0
VERTEX
  5
3EC
  8
METAL
 10
4.357147216796903
 20
-31.43663358688354
 30
5.284669876098619
 70
   192
  0
VERTEX
  5
3ED
  8
METAL
 10
4.357147216796903
 20
-30.74851560592651
 30
5.284688949584961
 70
   192
  0
VERTEX
  5
3EE
  8
METAL
 10
4.357147216796903
 20
-30.74851560592651
 30
5.284688949584961
 70
   192
  0
VERTEX
  5
3EF
  8
METAL
 10
4.357147216796903
 20
-37.61350202560425
 30
5.28469085693358
 70
   192
  0
VERTEX
  5
3F0
  8
METAL
 10
4.357147216796903
 20
-37.61350202560425
 30
5.28469085693358
 70
   192
  0
VERTEX
  5
3F1
  8
METAL
 10
4.357147216796903
 20
-37.61350202560425
 30
5.28469085693358
 70
   192
  0
VERTEX
  5
3F2
  8
METAL
 10
4.357147216796903
 20
-37.61350202560425
 30
5.28469085693358
 70
   192
  0
VERTEX
  5
3F3
  8
METAL
 10
4.357147216796903
 20
-36.55770826339722
 30
6.656877517700195
 70
   192
  0
VERTEX
  5
3F4
  8
METAL
 10
4.357147216796903
 20
-36.55770826339722
 30
6.656877517700195
 70
   192
  0
VERTEX
  5
3F5
  8
METAL
 10
4.357147216796903
 20
-31.80430936813354
 30
6.656877517700195
 70
   192
  0
VERTEX
  5
3F6
  8
METAL
 10
4.357147216796903
 20
-31.80430936813354
 30
6.656877517700195
 70
   192
  0
VERTEX
  5
3F7
  8
METAL
 10
4.357147216796903
 20
-31.20838117599487
 30
7.000936508178711
 70
   192
  0
VERTEX
  5
3F8
  8
METAL
 10
4.357147216796903
 20
-31.20838117599487
 30
7.000936508178711
 70
   192
  0
VERTEX
  5
3F9
  8
METAL
 10
4.357147216796903
 20
-37.15363645553589
 30
7.00093841552733
 70
   192
  0
VERTEX
  5
3FA
  8
METAL
 10
4.357147216796903
 20
-37.15363645553589
 30
7.00093841552733
 70
   192
  0
VERTEX
  5
3FB
  8
METAL
 10
4.357147216796903
 20
-35.55321455001831
 30
7.661378860473619
 70
   192
  0
VERTEX
  5
3FC
  8
METAL
 10
4.357147216796903
 20
-35.55321455001831
 30
7.661378860473619
 70
   192
  0
VERTEX
  5
3FD
  8
METAL
 10
4.357147216796903
 20
-32.80881834030151
 30
7.661388397216797
 70
   192
  0
VERTEX
  5
3FE
  8
METAL
 10
4.357147216796903
 20
-32.80881834030151
 30
7.661388397216797
 70
   192
  0
VERTEX
  5
3FF
  8
METAL
 10
4.357147216796903
 20
-34.18102979660034
 30
8.02906608581543
 70
   192
  0
VERTEX
  5
400
  8
METAL
 10
4.357147216796903
 20
-34.18102979660034
 30
8.02906608581543
 70
   192
  0
VERTEX
  5
401
  8
METAL
 10
4.357147216796903
 20
-32.464759349823
 30
8.257316589355469
 70
   192
  0
VERTEX
  5
402
  8
METAL
 10
4.357147216796903
 20
-32.464759349823
 30
8.257316589355469
 70
   192
  0
VERTEX
  5
403
  8
METAL
 10
4.357147216796903
 20
-35.8972544670105
 30
8.257318496704087
 70
   192
  0
VERTEX
  5
404
  8
METAL
 10
4.357147216796903
 20
-35.8972544670105
 30
8.257318496704087
 70
   192
  0
VERTEX
  5
405
  8
METAL
 10
4.357147216796903
 20
-34.18101072311401
 30
8.71718597412108
 70
   192
  0
VERTEX
  5
406
  8
METAL
 10
4.357147216796903
 20
-34.18101072311401
 30
8.71718597412108
 70
   192
  0
VERTEX
  5
407
  8
METAL
 10
200.3713912963867
 20
-34.18101072311404
 30
1.852191925048828
 70
   192
  0
VERTEX
  5
408
  8
METAL
 10
200.3713912963867
 20
-34.18101072311404
 30
1.852191925048828
 70
   192
  0
VERTEX
  5
409
  8
METAL
 10
200.3713912963867
 20
-35.89725828170779
 30
2.312059402465806
 70
   192
  0
VERTEX
  5
40A
  8
METAL
 10
200.3713912963867
 20
-35.89725828170779
 30
2.312059402465806
 70
   192
  0
VERTEX
  5
40B
  8
METAL
 10
200.3713912963867
 20
-32.46476316452029
 30
2.31205940246582
 70
   192
  0
VERTEX
  5
40C
  8
METAL
 10
200.3713912963867
 20
-32.46476316452029
 30
2.31205940246582
 70
   192
  0
VERTEX
  5
40D
  8
METAL
 10
200.3713912963867
 20
-34.18101072311404
 30
2.540311813354478
 70
   192
  0
VERTEX
  5
40E
  8
METAL
 10
200.3713912963867
 20
-34.18101072311404
 30
2.540311813354478
 70
   192
  0
VERTEX
  5
40F
  8
METAL
 10
200.3713912963867
 20
-32.80882215499881
 30
2.907987594604478
 70
   192
  0
VERTEX
  5
410
  8
METAL
 10
200.3713912963867
 20
-32.80882215499881
 30
2.907987594604478
 70
   192
  0
VERTEX
  5
411
  8
METAL
 10
200.3713912963867
 20
-35.55321455001834
 30
2.907997131347656
 70
   192
  0
VERTEX
  5
412
  8
METAL
 10
200.3713912963867
 20
-35.55321455001834
 30
2.907997131347656
 70
   192
  0
VERTEX
  5
413
  8
METAL
 10
200.3713912963867
 20
-37.15363645553592
 30
3.568439483642564
 70
   192
  0
VERTEX
  5
414
  8
METAL
 10
200.3713912963867
 20
-37.15363645553592
 30
3.568439483642564
 70
   192
  0
VERTEX
  5
415
  8
METAL
 10
200.3713912963867
 20
-31.2083811759949
 30
3.568439483642578
 70
   192
  0
VERTEX
  5
416
  8
METAL
 10
200.3713912963867
 20
-31.2083811759949
 30
3.568439483642578
 70
   192
  0
VERTEX
  5
417
  8
METAL
 10
200.3713912963867
 20
-36.55770826339725
 30
3.91249847412108
 70
   192
  0
VERTEX
  5
418
  8
METAL
 10
200.3713912963867
 20
-36.55770826339725
 30
3.91249847412108
 70
   192
  0
VERTEX
  5
419
  8
METAL
 10
200.3713912963867
 20
-31.80430173873904
 30
3.912515640258789
 70
   192
  0
VERTEX
  5
41A
  8
METAL
 10
200.3713912963867
 20
-31.80430173873904
 30
3.912515640258789
 70
   192
  0
VERTEX
  5
41B
  8
METAL
 10
200.3713912963867
 20
-36.92538404464725
 30
5.284666061401367
 70
   192
  0
VERTEX
  5
41C
  8
METAL
 10
200.3713912963867
 20
-36.92538404464725
 30
5.284666061401367
 70
   192
  0
VERTEX
  5
41D
  8
METAL
 10
200.3713912963867
 20
-36.92538404464725
 30
5.284666061401367
 70
   192
  0
VERTEX
  5
41E
  8
METAL
 10
200.3713912963867
 20
-36.92538404464725
 30
5.284666061401367
 70
   192
  0
VERTEX
  5
41F
  8
METAL
 10
200.3713912963867
 20
-31.43663358688357
 30
5.284666061401367
 70
   192
  0
VERTEX
  5
420
  8
METAL
 10
200.3713912963867
 20
-31.43663358688357
 30
5.284666061401367
 70
   192
  0
VERTEX
  5
421
  8
METAL
 10
200.3713912963867
 20
-30.74851560592654
 30
5.284685134887695
 70
   192
  0
VERTEX
  5
422
  8
METAL
 10
200.3713912963867
 20
-30.74851560592654
 30
5.284685134887695
 70
   192
  0
VERTEX
  5
423
  8
METAL
 10
200.3713912963867
 20
-37.61350584030154
 30
5.284687042236314
 70
   192
  0
VERTEX
  5
424
  8
METAL
 10
200.3713912963867
 20
-37.61350584030154
 30
5.284687042236314
 70
   192
  0
VERTEX
  5
425
  8
METAL
 10
200.3713912963867
 20
-37.61350584030154
 30
5.284687042236314
 70
   192
  0
VERTEX
  5
426
  8
METAL
 10
200.3713912963867
 20
-37.61350584030154
 30
5.284687042236314
 70
   192
  0
VERTEX
  5
427
  8
METAL
 10
200.3713912963867
 20
-31.80430936813357
 30
6.65687370300293
 70
   192
  0
VERTEX
  5
428
  8
METAL
 10
200.3713912963867
 20
-31.80430936813357
 30
6.65687370300293
 70
   192
  0
VERTEX
  5
429
  8
METAL
 10
200.3713912963867
 20
-36.55770826339725
 30
6.656875610351548
 70
   192
  0
VERTEX
  5
42A
  8
METAL
 10
200.3713912963867
 20
-36.55770826339725
 30
6.656875610351548
 70
   192
  0
VERTEX
  5
42B
  8
METAL
 10
200.3713912963867
 20
-31.2083811759949
 30
7.000932693481445
 70
   192
  0
VERTEX
  5
42C
  8
METAL
 10
200.3713912963867
 20
-31.2083811759949
 30
7.000932693481445
 70
   192
  0
VERTEX
  5
42D
  8
METAL
 10
200.3713912963867
 20
-37.15363645553592
 30
7.000934600830064
 70
   192
  0
VERTEX
  5
42E
  8
METAL
 10
200.3713912963867
 20
-37.15363645553592
 30
7.000934600830064
 70
   192
  0
VERTEX
  5
42F
  8
METAL
 10
200.3713912963867
 20
-32.80881834030154
 30
7.661384582519517
 70
   192
  0
VERTEX
  5
430
  8
METAL
 10
200.3713912963867
 20
-32.80881834030154
 30
7.661384582519517
 70
   192
  0
VERTEX
  5
431
  8
METAL
 10
200.3713912963867
 20
-35.55318021774295
 30
7.661396026611314
 70
   192
  0
VERTEX
  5
432
  8
METAL
 10
200.3713912963867
 20
-35.55318021774295
 30
7.661396026611314
 70
   192
  0
VERTEX
  5
433
  8
METAL
 10
200.3713912963867
 20
-34.18102979660034
 30
8.029064178466797
 70
   192
  0
VERTEX
  5
434
  8
METAL
 10
200.3713912963867
 20
-34.18102979660034
 30
8.029064178466797
 70
   192
  0
VERTEX
  5
435
  8
METAL
 10
200.3713912963867
 20
-35.89725828170779
 30
8.257314682006836
 70
   192
  0
VERTEX
  5
436
  8
METAL
 10
200.3713912963867
 20
-35.89725828170779
 30
8.257314682006836
 70
   192
  0
VERTEX
  5
437
  8
METAL
 10
200.3713912963867
 20
-32.46475934982303
 30
8.257314682006836
 70
   192
  0
VERTEX
  5
438
  8
METAL
 10
200.3713912963867
 20
-32.46475934982303
 30
8.257314682006836
 70
   192
  0
VERTEX
  5
439
  8
METAL
 10
200.3713912963867
 20
-34.18101072311404
 30
8.717182159423828
 70
   192
  0
VERTEX
  5
43A
  8
METAL
 10
200.3713912963867
 20
-34.18101072311404
 30
8.717182159423828
 70
   192
  0
VERTEX
  5
43B
  8
METAL
 10
203.7184906005859
 20
-34.18101072311404
 30
1.852191925048828
 70
   192
  0
VERTEX
  5
43C
  8
METAL
 10
203.7184906005859
 20
-34.18101072311404
 30
1.852191925048828
 70
   192
  0
VERTEX
  5
43D
  8
METAL
 10
203.7184906005859
 20
-35.89725828170779
 30
2.312059402465806
 70
   192
  0
VERTEX
  5
43E
  8
METAL
 10
203.7184906005859
 20
-35.89725828170779
 30
2.312059402465806
 70
   192
  0
VERTEX
  5
43F
  8
METAL
 10
203.7184906005859
 20
-32.46476316452029
 30
2.31205940246582
 70
   192
  0
VERTEX
  5
440
  8
METAL
 10
203.7184906005859
 20
-32.46476316452029
 30
2.31205940246582
 70
   192
  0
VERTEX
  5
441
  8
METAL
 10
203.7184906005859
 20
-31.2083811759949
 30
3.568437576293945
 70
   192
  0
VERTEX
  5
442
  8
METAL
 10
203.7184906005859
 20
-31.2083811759949
 30
3.568437576293945
 70
   192
  0
VERTEX
  5
443
  8
METAL
 10
203.7184906005859
 20
-37.15363645553592
 30
3.568439483642564
 70
   192
  0
VERTEX
  5
444
  8
METAL
 10
203.7184906005859
 20
-37.15363645553592
 30
3.568439483642564
 70
   192
  0
VERTEX
  5
445
  8
METAL
 10
203.7184906005859
 20
-30.74851560592654
 30
5.284685134887695
 70
   192
  0
VERTEX
  5
446
  8
METAL
 10
203.7184906005859
 20
-30.74851560592654
 30
5.284685134887695
 70
   192
  0
VERTEX
  5
447
  8
METAL
 10
203.7184906005859
 20
-37.61350584030154
 30
5.284687042236314
 70
   192
  0
VERTEX
  5
448
  8
METAL
 10
203.7184906005859
 20
-37.61350584030154
 30
5.284687042236314
 70
   192
  0
VERTEX
  5
449
  8
METAL
 10
203.7184906005859
 20
-37.61350584030154
 30
5.284687042236314
 70
   192
  0
VERTEX
  5
44A
  8
METAL
 10
203.7184906005859
 20
-31.2083811759949
 30
7.000932693481445
 70
   192
  0
VERTEX
  5
44B
  8
METAL
 10
203.7184906005859
 20
-31.2083811759949
 30
7.000932693481445
 70
   192
  0
VERTEX
  5
44C
  8
METAL
 10
203.7184906005859
 20
-37.15363645553592
 30
7.000934600830064
 70
   192
  0
VERTEX
  5
44D
  8
METAL
 10
203.7184906005859
 20
-37.15363645553592
 30
7.000934600830064
 70
   192
  0
VERTEX
  5
44E
  8
METAL
 10
203.7184906005859
 20
-32.46475934982303
 30
8.257312774658189
 70
   192
  0
VERTEX
  5
44F
  8
METAL
 10
203.7184906005859
 20
-32.46475934982303
 30
8.257312774658189
 70
   192
  0
VERTEX
  5
450
  8
METAL
 10
203.7184906005859
 20
-35.89725828170779
 30
8.257314682006836
 70
   192
  0
VERTEX
  5
451
  8
METAL
 10
203.7184906005859
 20
-35.89725828170779
 30
8.257314682006836
 70
   192
  0
VERTEX
  5
452
  8
METAL
 10
203.7184906005859
 20
-34.18101072311404
 30
8.717182159423828
 70
   192
  0
VERTEX
  5
453
  8
METAL
 10
203.7184906005859
 20
-34.18101072311404
 30
8.717182159423828
 70
   192
  0
VERTEX
  5
454
  8
METAL
 10
0.0
 20
0.0
 30
0.0
 70
   128
 71
   121
 72
   123
 73
    70
 74
    66
  0
VERTEX
  5
455
  8
METAL
 10
0.0
 20
0.0
 30
0.0
 70
   128
 71
   113
 72
   121
 73
    66
 74
    58
  0
VERTEX
  5
456
  8
METAL
 10
0.0
 20
0.0
 30
0.0
 70
   128
 71
   100
 72
   113
 73
    58
 74
    46
  0
VERTEX
  5
457
  8
METAL
 10
0.0
 20
0.0
 30
0.0
 70
   128
 71
    95
 72
   101
 73
    47
 74
    42
  0
VERTEX
  5
458
  8
METAL
 10
0.0
 20
0.0
 30
0.0
 70
   128
 71
    89
 72
    95
 73
    42
 74
    36
  0
VERTEX
  5
459
  8
METAL
 10
0.0
 20
0.0
 30
0.0
 70
   128
 71
    85
 72
    89
 73
    36
 74
    32
  0
VERTEX
  5
45A
  8
METAL
 10
0.0
 20
0.0
 30
0.0
 70
   128
 71
    87
 72
    85
 73
    32
 74
    34
  0
VERTEX
  5
45B
  8
METAL
 10
0.0
 20
0.0
 30
0.0
 70
   128
 71
    97
 72
    87
 73
    34
 74
    44
  0
VERTEX
  5
45C
  8
METAL
 10
0.0
 20
0.0
 30
0.0
 70
   128
 71
   103
 72
    97
 73
    44
 74
    50
  0
VERTEX
  5
45D
  8
METAL
 10
0.0
 20
0.0
 30
0.0
 70
   128
 71
   111
 72
   103
 73
    50
 74
    60
  0
VERTEX
  5
45E
  8
METAL
 10
0.0
 20
0.0
 30
0.0
 70
   128
 71
   119
 72
   111
 73
    60
 74
    68
  0
VERTEX
  5
45F
  8
METAL
 10
0.0
 20
0.0
 30
0.0
 70
   128
 71
   123
 72
   119
 73
    68
 74
    70
  0
VERTEX
  5
460
  8
METAL
 10
0.0
 20
0.0
 30
0.0
 70
   128
 71
     5
 72
     1
 73
    24
 74
    22
  0
VERTEX
  5
461
  8
METAL
 10
0.0
 20
0.0
 30
0.0
 70
   128
 71
   131
 72
   135
 73
   150
 74
   154
  0
VERTEX
  5
462
  8
METAL
 10
0.0
 20
0.0
 30
0.0
 70
   128
 71
   151
 72
   153
 73
   129
 74
   125
  0
VERTEX
  5
463
  8
METAL
 10
0.0
 20
0.0
 30
0.0
 70
   128
 71
    25
 72
    21
 73
    74
 74
    76
  0
VERTEX
  5
464
  8
METAL
 10
0.0
 20
0.0
 30
0.0
 70
   128
 71
   147
 72
   151
 73
   125
 74
   117
  0
VERTEX
  5
465
  8
METAL
 10
0.0
 20
0.0
 30
0.0
 70
   128
 71
    21
 72
    19
 73
    64
 74
    74
  0
VERTEX
  5
466
  8
METAL
 10
0.0
 20
0.0
 30
0.0
 70
   128
 71
   142
 72
   147
 73
   117
 74
   108
  0
VERTEX
  5
467
  8
METAL
 10
0.0
 20
0.0
 30
0.0
 70
   128
 71
    19
 72
    14
 73
    54
 74
    64
  0
VERTEX
  5
468
  8
METAL
 10
0.0
 20
0.0
 30
0.0
 70
   128
 71
   138
 72
   143
 73
   109
 74
    91
  0
VERTEX
  5
469
  8
METAL
 10
0.0
 20
0.0
 30
0.0
 70
   128
 71
    15
 72
     8
 73
    40
 74
    55
  0
VERTEX
  5
46A
  8
METAL
 10
0.0
 20
0.0
 30
0.0
 70
   128
 71
   132
 72
   138
 73
    91
 74
    81
  0
VERTEX
  5
46B
  8
METAL
 10
0.0
 20
0.0
 30
0.0
 70
   128
 71
     8
 72
     4
 73
    28
 74
    40
  0
VERTEX
  5
46C
  8
METAL
 10
0.0
 20
0.0
 30
0.0
 70
   128
 71
   130
 72
   132
 73
    81
 74
    79
  0
VERTEX
  5
46D
  8
METAL
 10
0.0
 20
0.0
 30
0.0
 70
   128
 71
     4
 72
     2
 73
    26
 74
    28
  0
VERTEX
  5
46E
  8
METAL
 10
0.0
 20
0.0
 30
0.0
 70
   128
 71
   134
 72
   130
 73
    79
 74
    83
  0
VERTEX
  5
46F
  8
METAL
 10
0.0
 20
0.0
 30
0.0
 70
   128
 71
     2
 72
     6
 73
    30
 74
    26
  0
VERTEX
  5
470
  8
METAL
 10
0.0
 20
0.0
 30
0.0
 70
   128
 71
   136
 72
   134
 73
    83
 74
    93
  0
VERTEX
  5
471
  8
METAL
 10
0.0
 20
0.0
 30
0.0
 70
   128
 71
     6
 72
    10
 73
    38
 74
    30
  0
VERTEX
  5
472
  8
METAL
 10
0.0
 20
0.0
 30
0.0
 70
   128
 71
   105
 72
   136
 73
    93
 74
    93
  0
VERTEX
  5
473
  8
METAL
 10
0.0
 20
0.0
 30
0.0
 70
   128
 71
    10
 72
    12
 73
    52
 74
    38
  0
VERTEX
  5
474
  8
METAL
 10
0.0
 20
0.0
 30
0.0
 70
   128
 71
   115
 72
   145
 73
   105
 74
   105
  0
VERTEX
  5
475
  8
METAL
 10
0.0
 20
0.0
 30
0.0
 70
   128
 71
    12
 72
    17
 73
    62
 74
    52
  0
VERTEX
  5
476
  8
METAL
 10
0.0
 20
0.0
 30
0.0
 70
   128
 71
   149
 72
   145
 73
   115
 74
   127
  0
VERTEX
  5
477
  8
METAL
 10
0.0
 20
0.0
 30
0.0
 70
   128
 71
    17
 72
    23
 73
    72
 74
    62
  0
VERTEX
  5
478
  8
METAL
 10
0.0
 20
0.0
 30
0.0
 70
   128
 71
   153
 72
   149
 73
   127
 74
   129
  0
VERTEX
  5
479
  8
METAL
 10
0.0
 20
0.0
 30
0.0
 70
   128
 71
    23
 72
    25
 73
    76
 74
    72
  0
VERTEX
  5
47A
  8
METAL
 10
0.0
 20
0.0
 30
0.0
 70
   128
 71
   124
 72
   128
 73
   122
 74
   120
  0
VERTEX
  5
47B
  8
METAL
 10
0.0
 20
0.0
 30
0.0
 70
   128
 71
   128
 72
   126
 73
   118
 74
   122
  0
VERTEX
  5
47C
  8
METAL
 10
0.0
 20
0.0
 30
0.0
 70
   128
 71
   126
 72
   114
 73
   110
 74
   118
  0
VERTEX
  5
47D
  8
METAL
 10
0.0
 20
0.0
 30
0.0
 70
   128
 71
   114
 72
   104
 73
   102
 74
   110
  0
VERTEX
  5
47E
  8
METAL
 10
0.0
 20
0.0
 30
0.0
 70
   128
 71
   104
 72
    92
 73
    96
 74
   102
  0
VERTEX
  5
47F
  8
METAL
 10
0.0
 20
0.0
 30
0.0
 70
   128
 71
    92
 72
    82
 73
    86
 74
    96
  0
VERTEX
  5
480
  8
METAL
 10
0.0
 20
0.0
 30
0.0
 70
   128
 71
    82
 72
    78
 73
    84
 74
    86
  0
VERTEX
  5
481
  8
METAL
 10
0.0
 20
0.0
 30
0.0
 70
   128
 71
    78
 72
    80
 73
    88
 74
    84
  0
VERTEX
  5
482
  8
METAL
 10
0.0
 20
0.0
 30
0.0
 70
   128
 71
    80
 72
    90
 73
    94
 74
    88
  0
VERTEX
  5
483
  8
METAL
 10
0.0
 20
0.0
 30
0.0
 70
   128
 71
    90
 72
   107
 73
    99
 74
    94
  0
VERTEX
  5
484
  8
METAL
 10
0.0
 20
0.0
 30
0.0
 70
   128
 71
   106
 72
   116
 73
   112
 74
    98
  0
VERTEX
  5
485
  8
METAL
 10
0.0
 20
0.0
 30
0.0
 70
   128
 71
   116
 72
   124
 73
   120
 74
   112
  0
VERTEX
  5
486
  8
METAL
 10
0.0
 20
0.0
 30
0.0
 70
   128
 71
    77
 72
    75
 73
    67
 74
    71
  0
VERTEX
  5
487
  8
METAL
 10
0.0
 20
0.0
 30
0.0
 70
   128
 71
    75
 72
    65
 73
    59
 74
    67
  0
VERTEX
  5
488
  8
METAL
 10
0.0
 20
0.0
 30
0.0
 70
   128
 71
    65
 72
    56
 73
    48
 74
    59
  0
VERTEX
  5
489
  8
METAL
 10
0.0
 20
0.0
 30
0.0
 70
   128
 71
    57
 72
    41
 73
    43
 74
    49
  0
VERTEX
  5
48A
  8
METAL
 10
0.0
 20
0.0
 30
0.0
 70
   128
 71
    41
 72
    29
 73
    37
 74
    43
  0
VERTEX
  5
48B
  8
METAL
 10
0.0
 20
0.0
 30
0.0
 70
   128
 71
    29
 72
    27
 73
    33
 74
    37
  0
VERTEX
  5
48C
  8
METAL
 10
0.0
 20
0.0
 30
0.0
 70
   128
 71
    27
 72
    31
 73
    35
 74
    33
  0
VERTEX
  5
48D
  8
METAL
 10
0.0
 20
0.0
 30
0.0
 70
   128
 71
    31
 72
    39
 73
    45
 74
    35
  0
VERTEX
  5
48E
  8
METAL
 10
0.0
 20
0.0
 30
0.0
 70
   128
 71
    39
 72
    53
 73
    51
 74
    45
  0
VERTEX
  5
48F
  8
METAL
 10
0.0
 20
0.0
 30
0.0
 70
   128
 71
    53
 72
    63
 73
    61
 74
    51
  0
VERTEX
  5
490
  8
METAL
 10
0.0
 20
0.0
 30
0.0
 70
   128
 71
    63
 72
    73
 73
    69
 74
    61
  0
VERTEX
  5
491
  8
METAL
 10
0.0
 20
0.0
 30
0.0
 70
   128
 71
    73
 72
    77
 73
    71
 74
    69
  0
VERTEX
  5
492
  8
METAL
 10
0.0
 20
0.0
 30
0.0
 70
   128
 71
     7
 72
    13
 73
    18
 74
    18
  0
VERTEX
  5
493
  8
METAL
 10
0.0
 20
0.0
 30
0.0
 70
   128
 71
     7
 72
    18
 73
    20
 74
     3
  0
VERTEX
  5
494
  8
METAL
 10
0.0
 20
0.0
 30
0.0
 70
   128
 71
     3
 72
    20
 73
    24
 74
     1
  0
VERTEX
  5
495
  8
METAL
 10
0.0
 20
0.0
 30
0.0
 70
   128
 71
    16
 72
     9
 73
     5
 74
    22
  0
VERTEX
  5
496
  8
METAL
 10
0.0
 20
0.0
 30
0.0
 70
   128
 71
    16
 72
    11
 73
     9
 74
     9
  0
VERTEX
  5
497
  8
METAL
 10
0.0
 20
0.0
 30
0.0
 70
   128
 71
   148
 72
   144
 73
   139
 74
   139
  0
VERTEX
  5
498
  8
METAL
 10
0.0
 20
0.0
 30
0.0
 70
   128
 71
   148
 72
   139
 73
   133
 74
   152
  0
VERTEX
  5
499
  8
METAL
 10
0.0
 20
0.0
 30
0.0
 70
   128
 71
   152
 72
   133
 73
   131
 74
   154
  0
VERTEX
  5
49A
  8
METAL
 10
0.0
 20
0.0
 30
0.0
 70
   128
 71
   137
 72
   146
 73
   150
 74
   135
  0
VERTEX
  5
49B
  8
METAL
 10
0.0
 20
0.0
 30
0.0
 70
   128
 71
   105
 72
   140
 73
   136
 74
   136
  0
VERTEX
  5
49C
  8
METAL
 10
0.0
 20
0.0
 30
0.0
 70
   128
 71
   145
 72
   140
 73
   105
 74
   105
  0
VERTEX
  5
49D
  8
METAL
 10
0.0
 20
0.0
 30
0.0
 70
   128
 71
   137
 72
   141
 73
   146
 74
   146
  0
SEQEND
  5
604
  8
METAL
  0
POLYLINE
  5
4A0
  8
COURO
 66
     1
 10
0.0
 20
0.0
 30
0.0
 70
    64
 71
   184
 72
    87
  0
VERTEX
  5
4A1
  8
COURO
 10
4.494812011718835
 20
-34.14701795578003
 30
1.749675750732408
 70
   192
  0
VERTEX
  5
4A2
  8
COURO
 10
4.494812011718835
 20
-34.14701795578003
 30
1.749675750732408
 70
   192
  0
VERTEX
  5
4A3
  8
COURO
 10
4.494812011718835
 20
-35.33120679855347
 30
1.904928207397447
 70
   192
  0
VERTEX
  5
4A4
  8
COURO
 10
4.494812011718835
 20
-35.33120679855347
 30
1.904928207397447
 70
   192
  0
VERTEX
  5
4A5
  8
COURO
 10
4.494812011718835
 20
-35.9426646232605
 30
2.129253387451158
 70
   192
  0
VERTEX
  5
4A6
  8
COURO
 10
4.494812011718835
 20
-35.9426646232605
 30
2.129253387451158
 70
   192
  0
VERTEX
  5
4A7
  8
COURO
 10
4.494812011718835
 20
-34.17855787277222
 30
2.257392883300767
 70
   192
  0
VERTEX
  5
4A8
  8
COURO
 10
4.494812011718835
 20
-34.17855787277222
 30
2.257392883300767
 70
   192
  0
VERTEX
  5
4A9
  8
COURO
 10
4.494812011718835
 20
-31.80474042892456
 30
2.340795516967759
 70
   192
  0
VERTEX
  5
4AA
  8
COURO
 10
4.494812011718835
 20
-31.80474042892456
 30
2.340795516967759
 70
   192
  0
VERTEX
  5
4AB
  8
COURO
 10
4.494812011718835
 20
-35.24837064743042
 30
2.398490905761705
 70
   192
  0
VERTEX
  5
4AC
  8
COURO
 10
4.494812011718835
 20
-35.24837064743042
 30
2.398490905761705
 70
   192
  0
VERTEX
  5
4AD
  8
COURO
 10
4.494812011718835
 20
-35.75933790206909
 30
2.595458984374986
 70
   192
  0
VERTEX
  5
4AE
  8
COURO
 10
4.494812011718835
 20
-35.75933790206909
 30
2.595458984374986
 70
   192
  0
VERTEX
  5
4AF
  8
COURO
 10
4.494812011718835
 20
-36.81795454025269
 30
2.615024566650376
 70
   192
  0
VERTEX
  5
4B0
  8
COURO
 10
4.494812011718835
 20
-36.81795454025269
 30
2.615024566650376
 70
   192
  0
VERTEX
  5
4B1
  8
COURO
 10
4.494812011718835
 20
-31.26394605636597
 30
2.76329231262207
 70
   192
  0
VERTEX
  5
4B2
  8
COURO
 10
4.494812011718835
 20
-31.26394605636597
 30
2.76329231262207
 70
   192
  0
VERTEX
  5
4B3
  8
COURO
 10
4.494812011718835
 20
-31.92280149459839
 30
2.826677322387695
 70
   192
  0
VERTEX
  5
4B4
  8
COURO
 10
4.494812011718835
 20
-31.92280149459839
 30
2.826677322387695
 70
   192
  0
VERTEX
  5
4B5
  8
COURO
 10
4.494812011718835
 20
-36.50900220870972
 30
3.01031112670897
 70
   192
  0
VERTEX
  5
4B6
  8
COURO
 10
4.494812011718835
 20
-36.50900220870972
 30
3.01031112670897
 70
   192
  0
VERTEX
  5
4B7
  8
COURO
 10
4.494812011718835
 20
-30.71899366378784
 30
3.14013671875
 70
   192
  0
VERTEX
  5
4B8
  8
COURO
 10
4.494812011718835
 20
-30.71899366378784
 30
3.14013671875
 70
   192
  0
VERTEX
  5
4B9
  8
COURO
 10
4.494812011718835
 20
-31.35179090499878
 30
3.202016830444336
 70
   192
  0
VERTEX
  5
4BA
  8
COURO
 10
4.494812011718835
 20
-31.35179090499878
 30
3.202016830444336
 70
   192
  0
VERTEX
  5
4BB
  8
COURO
 10
4.494812011718835
 20
-37.44138669967651
 30
3.302810668945298
 70
   192
  0
VERTEX
  5
4BC
  8
COURO
 10
4.494812011718835
 20
-37.44138669967651
 30
3.302810668945298
 70
   192
  0
VERTEX
  5
4BD
  8
COURO
 10
4.494812011718835
 20
-37.00973463058472
 30
3.560901641845689
 70
   192
  0
VERTEX
  5
4BE
  8
COURO
 10
4.494812011718835
 20
-37.00973463058472
 30
3.560901641845689
 70
   192
  0
VERTEX
  5
4BF
  8
COURO
 10
4.494812011718835
 20
-29.89195966720581
 30
3.922634124755859
 70
   192
  0
VERTEX
  5
4C0
  8
COURO
 10
4.494812011718835
 20
-29.89195966720581
 30
3.922634124755859
 70
   192
  0
VERTEX
  5
4C1
  8
COURO
 10
4.494812011718835
 20
-8.006986141204834
 30
3.922634124755859
 70
   192
  0
VERTEX
  5
4C2
  8
COURO
 10
4.494812011718835
 20
-8.006986141204834
 30
3.922634124755859
 70
   192
  0
VERTEX
  5
4C3
  8
COURO
 10
4.494812011718835
 20
-8.006986141204834
 30
3.922634124755859
 70
   192
  0
VERTEX
  5
4C4
  8
COURO
 10
4.494812011718835
 20
-37.78408765792847
 30
4.289356231689439
 70
   192
  0
VERTEX
  5
4C5
  8
COURO
 10
4.494812011718835
 20
-37.78408765792847
 30
4.289356231689439
 70
   192
  0
VERTEX
  5
4C6
  8
COURO
 10
4.494812011718835
 20
-37.2910418510437
 30
4.378982543945298
 70
   192
  0
VERTEX
  5
4C7
  8
COURO
 10
4.494812011718835
 20
-37.2910418510437
 30
4.378982543945298
 70
   192
  0
VERTEX
  5
4C8
  8
COURO
 10
4.494812011718835
 20
-30.77188062667847
 30
5.131336212158189
 70
   192
  0
VERTEX
  5
4C9
  8
COURO
 10
4.494812011718835
 20
-30.77188062667847
 30
5.131336212158189
 70
   192
  0
VERTEX
  5
4CA
  8
COURO
 10
4.494812011718835
 20
-29.89638090133667
 30
5.177841186523438
 70
   192
  0
VERTEX
  5
4CB
  8
COURO
 10
4.494812011718835
 20
-29.89638090133667
 30
5.177841186523438
 70
   192
  0
VERTEX
  5
4CC
  8
COURO
 10
4.494812011718835
 20
-8.006982326507568
 30
5.177841186523438
 70
   192
  0
VERTEX
  5
4CD
  8
COURO
 10
4.494812011718835
 20
-8.006982326507568
 30
5.177841186523438
 70
   192
  0
VERTEX
  5
4CE
  8
COURO
 10
4.494812011718835
 20
-8.006982326507568
 30
5.177841186523438
 70
   192
  0
VERTEX
  5
4CF
  8
COURO
 10
4.494812011718835
 20
-29.92132902145386
 30
5.334184646606445
 70
   192
  0
VERTEX
  5
4D0
  8
COURO
 10
4.494812011718835
 20
-29.92132902145386
 30
5.334184646606445
 70
   192
  0
VERTEX
  5
4D1
  8
COURO
 10
4.494812011718835
 20
-7.8576979637146
 30
5.334184646606445
 70
   192
  0
VERTEX
  5
4D2
  8
COURO
 10
4.494812011718835
 20
-7.8576979637146
 30
5.334184646606445
 70
   192
  0
VERTEX
  5
4D3
  8
COURO
 10
4.494812011718835
 20
-7.8576979637146
 30
5.334184646606445
 70
   192
  0
VERTEX
  5
4D4
  8
COURO
 10
4.494812011718835
 20
-30.79768705368042
 30
5.384071350097656
 70
   192
  0
VERTEX
  5
4D5
  8
COURO
 10
4.494812011718835
 20
-30.79768705368042
 30
5.384071350097656
 70
   192
  0
VERTEX
  5
4D6
  8
COURO
 10
4.494812011718835
 20
-37.34930753707886
 30
5.4367160797119
 70
   192
  0
VERTEX
  5
4D7
  8
COURO
 10
4.494812011718835
 20
-37.34930753707886
 30
5.4367160797119
 70
   192
  0
VERTEX
  5
4D8
  8
COURO
 10
4.494812011718835
 20
-37.849280834198
 30
5.465404510498047
 70
   192
  0
VERTEX
  5
4D9
  8
COURO
 10
4.494812011718835
 20
-37.849280834198
 30
5.465404510498047
 70
   192
  0
VERTEX
  5
4DA
  8
COURO
 10
4.494812011718835
 20
-37.17285871505737
 30
6.426116943359375
 70
   192
  0
VERTEX
  5
4DB
  8
COURO
 10
4.494812011718835
 20
-37.17285871505737
 30
6.426116943359375
 70
   192
  0
VERTEX
  5
4DC
  8
COURO
 10
4.494812011718835
 20
-29.91658735275269
 30
6.582803726196289
 70
   192
  0
VERTEX
  5
4DD
  8
COURO
 10
4.494812011718835
 20
-29.91658735275269
 30
6.582803726196289
 70
   192
  0
VERTEX
  5
4DE
  8
COURO
 10
4.494812011718835
 20
-7.857694149017334
 30
6.582803726196289
 70
   192
  0
VERTEX
  5
4DF
  8
COURO
 10
4.494812011718835
 20
-7.857694149017334
 30
6.582803726196289
 70
   192
  0
VERTEX
  5
4E0
  8
COURO
 10
4.494812011718835
 20
-7.857694149017334
 30
6.582803726196289
 70
   192
  0
VERTEX
  5
4E1
  8
COURO
 10
4.494812011718835
 20
-37.647132396698
 30
6.590547561645494
 70
   192
  0
VERTEX
  5
4E2
  8
COURO
 10
4.494812011718835
 20
-37.647132396698
 30
6.590547561645494
 70
   192
  0
VERTEX
  5
4E3
  8
COURO
 10
4.494812011718835
 20
-36.7785906791687
 30
7.114191055297837
 70
   192
  0
VERTEX
  5
4E4
  8
COURO
 10
4.494812011718835
 20
-36.7785906791687
 30
7.114191055297837
 70
   192
  0
VERTEX
  5
4E5
  8
COURO
 10
4.494812011718835
 20
-31.3774790763855
 30
7.338649749755859
 70
   192
  0
VERTEX
  5
4E6
  8
COURO
 10
4.494812011718835
 20
-31.3774790763855
 30
7.338649749755859
 70
   192
  0
VERTEX
  5
4E7
  8
COURO
 10
4.494812011718835
 20
-30.74103116989136
 30
7.394233703613267
 70
   192
  0
VERTEX
  5
4E8
  8
COURO
 10
4.494812011718835
 20
-30.74103116989136
 30
7.394233703613267
 70
   192
  0
VERTEX
  5
4E9
  8
COURO
 10
4.494812011718835
 20
-37.15945768356323
 30
7.440790176391587
 70
   192
  0
VERTEX
  5
4EA
  8
COURO
 10
4.494812011718835
 20
-37.15945768356323
 30
7.440790176391587
 70
   192
  0
VERTEX
  5
4EB
  8
COURO
 10
4.494812011718835
 20
-36.14390516281128
 30
7.648849487304688
 70
   192
  0
VERTEX
  5
4EC
  8
COURO
 10
4.494812011718835
 20
-36.14390516281128
 30
7.648849487304688
 70
   192
  0
VERTEX
  5
4ED
  8
COURO
 10
4.494812011718835
 20
-31.94724988937378
 30
7.722820281982408
 70
   192
  0
VERTEX
  5
4EE
  8
COURO
 10
4.494812011718835
 20
-31.94724988937378
 30
7.722820281982408
 70
   192
  0
VERTEX
  5
4EF
  8
COURO
 10
4.494812011718835
 20
-31.28345441818237
 30
7.7763671875
 70
   192
  0
VERTEX
  5
4F0
  8
COURO
 10
4.494812011718835
 20
-31.28345441818237
 30
7.7763671875
 70
   192
  0
VERTEX
  5
4F1
  8
COURO
 10
4.494812011718835
 20
-35.25319623947144
 30
8.056978225707994
 70
   192
  0
VERTEX
  5
4F2
  8
COURO
 10
4.494812011718835
 20
-35.25319623947144
 30
8.056978225707994
 70
   192
  0
VERTEX
  5
4F3
  8
COURO
 10
4.494812011718835
 20
-36.4094386100769
 30
8.073871612548814
 70
   192
  0
VERTEX
  5
4F4
  8
COURO
 10
4.494812011718835
 20
-36.4094386100769
 30
8.073871612548814
 70
   192
  0
VERTEX
  5
4F5
  8
COURO
 10
4.494812011718835
 20
-31.82093000411987
 30
8.206623077392578
 70
   192
  0
VERTEX
  5
4F6
  8
COURO
 10
4.494812011718835
 20
-31.82093000411987
 30
8.206623077392578
 70
   192
  0
VERTEX
  5
4F7
  8
COURO
 10
4.494812011718835
 20
-34.1474871635437
 30
8.319564819335938
 70
   192
  0
VERTEX
  5
4F8
  8
COURO
 10
4.494812011718835
 20
-34.1474871635437
 30
8.319564819335938
 70
   192
  0
VERTEX
  5
4F9
  8
COURO
 10
4.494812011718835
 20
-35.41286420822144
 30
8.531446456909165
 70
   192
  0
VERTEX
  5
4FA
  8
COURO
 10
4.494812011718835
 20
-35.41286420822144
 30
8.531446456909165
 70
   192
  0
VERTEX
  5
4FB
  8
COURO
 10
4.494812011718835
 20
-34.12871503829956
 30
8.832536697387695
 70
   192
  0
VERTEX
  5
4FC
  8
COURO
 10
4.494812011718835
 20
-34.12871503829956
 30
8.832536697387695
 70
   192
  0
VERTEX
  5
4FD
  8
COURO
 10
200.2032775878906
 20
-34.14701795578006
 30
1.749671936035156
 70
   192
  0
VERTEX
  5
4FE
  8
COURO
 10
200.2032775878906
 20
-34.14701795578006
 30
1.749671936035156
 70
   192
  0
VERTEX
  5
4FF
  8
COURO
 10
200.2032775878906
 20
-35.3312067985535
 30
1.904924392700195
 70
   192
  0
VERTEX
  5
500
  8
COURO
 10
200.2032775878906
 20
-35.3312067985535
 30
1.904924392700195
 70
   192
  0
VERTEX
  5
501
  8
COURO
 10
200.2032775878906
 20
-35.94266462326053
 30
2.129249572753906
 70
   192
  0
VERTEX
  5
502
  8
COURO
 10
200.2032775878906
 20
-35.94266462326053
 30
2.129249572753906
 70
   192
  0
VERTEX
  5
503
  8
COURO
 10
200.2032775878906
 20
-34.17855405807498
 30
2.257389068603516
 70
   192
  0
VERTEX
  5
504
  8
COURO
 10
200.2032775878906
 20
-34.17855405807498
 30
2.257389068603516
 70
   192
  0
VERTEX
  5
505
  8
COURO
 10
200.2032775878906
 20
-31.80473661422732
 30
2.340791702270508
 70
   192
  0
VERTEX
  5
506
  8
COURO
 10
200.2032775878906
 20
-31.80473661422732
 30
2.340791702270508
 70
   192
  0
VERTEX
  5
507
  8
COURO
 10
200.2032775878906
 20
-35.24837064743045
 30
2.398487091064439
 70
   192
  0
VERTEX
  5
508
  8
COURO
 10
200.2032775878906
 20
-35.24837064743045
 30
2.398487091064439
 70
   192
  0
VERTEX
  5
509
  8
COURO
 10
200.2032775878906
 20
-35.75933790206909
 30
2.595453262329087
 70
   192
  0
VERTEX
  5
50A
  8
COURO
 10
200.2032775878906
 20
-35.75933790206909
 30
2.595453262329087
 70
   192
  0
VERTEX
  5
50B
  8
COURO
 10
200.2032775878906
 20
-36.81795454025271
 30
2.615020751953125
 70
   192
  0
VERTEX
  5
50C
  8
COURO
 10
200.2032775878906
 20
-36.81795454025271
 30
2.615020751953125
 70
   192
  0
VERTEX
  5
50D
  8
COURO
 10
200.2032775878906
 20
-31.263946056366
 30
2.763288497924805
 70
   192
  0
VERTEX
  5
50E
  8
COURO
 10
200.2032775878906
 20
-31.263946056366
 30
2.763288497924805
 70
   192
  0
VERTEX
  5
50F
  8
COURO
 10
200.2032775878906
 20
-31.92279767990112
 30
2.82667350769043
 70
   192
  0
VERTEX
  5
510
  8
COURO
 10
200.2032775878906
 20
-31.92279767990112
 30
2.82667350769043
 70
   192
  0
VERTEX
  5
511
  8
COURO
 10
200.2032775878906
 20
-36.50900602340698
 30
3.010305404663086
 70
   192
  0
VERTEX
  5
512
  8
COURO
 10
200.2032775878906
 20
-36.50900602340698
 30
3.010305404663086
 70
   192
  0
VERTEX
  5
513
  8
COURO
 10
200.2032775878906
 20
-30.7189898490906
 30
3.140132904052734
 70
   192
  0
VERTEX
  5
514
  8
COURO
 10
200.2032775878906
 20
-30.7189898490906
 30
3.140132904052734
 70
   192
  0
VERTEX
  5
515
  8
COURO
 10
200.2032775878906
 20
-31.35179090499881
 30
3.20201301574707
 70
   192
  0
VERTEX
  5
516
  8
COURO
 10
200.2032775878906
 20
-31.35179090499881
 30
3.20201301574707
 70
   192
  0
VERTEX
  5
517
  8
COURO
 10
200.2032775878906
 20
-37.44138669967654
 30
3.3028049468994
 70
   192
  0
VERTEX
  5
518
  8
COURO
 10
200.2032775878906
 20
-37.44138669967654
 30
3.3028049468994
 70
   192
  0
VERTEX
  5
519
  8
COURO
 10
200.2032775878906
 20
-37.00973463058475
 30
3.560897827148438
 70
   192
  0
VERTEX
  5
51A
  8
COURO
 10
200.2032775878906
 20
-37.00973463058475
 30
3.560897827148438
 70
   192
  0
VERTEX
  5
51B
  8
COURO
 10
200.2032775878906
 20
-29.89195966720584
 30
3.922632217407227
 70
   192
  0
VERTEX
  5
51C
  8
COURO
 10
200.2032775878906
 20
-29.89195966720584
 30
3.922632217407227
 70
   192
  0
VERTEX
  5
51D
  8
COURO
 10
200.2032775878906
 20
-8.006977558136015
 30
3.922632217407227
 70
   192
  0
VERTEX
  5
51E
  8
COURO
 10
200.2032775878906
 20
-8.006977558136015
 30
3.922632217407227
 70
   192
  0
VERTEX
  5
51F
  8
COURO
 10
200.2032775878906
 20
-8.006977558136015
 30
3.922632217407227
 70
   192
  0
VERTEX
  5
520
  8
COURO
 10
200.2032775878906
 20
-37.7840876579285
 30
4.289352416992188
 70
   192
  0
VERTEX
  5
521
  8
COURO
 10
200.2032775878906
 20
-37.7840876579285
 30
4.289352416992188
 70
   192
  0
VERTEX
  5
522
  8
COURO
 10
200.2032775878906
 20
-37.29104185104373
 30
4.3789768218994
 70
   192
  0
VERTEX
  5
523
  8
COURO
 10
200.2032775878906
 20
-37.29104185104373
 30
4.3789768218994
 70
   192
  0
VERTEX
  5
524
  8
COURO
 10
200.2032775878906
 20
-30.7718806266785
 30
5.131332397460938
 70
   192
  0
VERTEX
  5
525
  8
COURO
 10
200.2032775878906
 20
-30.7718806266785
 30
5.131332397460938
 70
   192
  0
VERTEX
  5
526
  8
COURO
 10
200.2032775878906
 20
-29.8963809013367
 30
5.177837371826158
 70
   192
  0
VERTEX
  5
527
  8
COURO
 10
200.2032775878906
 20
-29.8963809013367
 30
5.177837371826158
 70
   192
  0
VERTEX
  5
528
  8
COURO
 10
200.2032775878906
 20
-8.006975650787382
 30
5.177837371826172
 70
   192
  0
VERTEX
  5
529
  8
COURO
 10
200.2032775878906
 20
-8.006975650787382
 30
5.177837371826172
 70
   192
  0
VERTEX
  5
52A
  8
COURO
 10
200.2032775878906
 20
-8.006975650787382
 30
5.177837371826172
 70
   192
  0
VERTEX
  5
52B
  8
COURO
 10
200.2032775878906
 20
-29.92132902145389
 30
5.334182739257798
 70
   192
  0
VERTEX
  5
52C
  8
COURO
 10
200.2032775878906
 20
-29.92132902145389
 30
5.334182739257798
 70
   192
  0
VERTEX
  5
52D
  8
COURO
 10
200.2032775878906
 20
-7.857691287994413
 30
5.334182739257812
 70
   192
  0
VERTEX
  5
52E
  8
COURO
 10
200.2032775878906
 20
-7.857691287994413
 30
5.334182739257812
 70
   192
  0
VERTEX
  5
52F
  8
COURO
 10
200.2032775878906
 20
-7.857691287994413
 30
5.334182739257812
 70
   192
  0
VERTEX
  5
530
  8
COURO
 10
200.2032775878906
 20
-30.79768705368045
 30
5.384069442749009
 70
   192
  0
VERTEX
  5
531
  8
COURO
 10
200.2032775878906
 20
-30.79768705368045
 30
5.384069442749009
 70
   192
  0
VERTEX
  5
532
  8
COURO
 10
200.2032775878906
 20
-37.34930753707889
 30
5.436710357666016
 70
   192
  0
VERTEX
  5
533
  8
COURO
 10
200.2032775878906
 20
-37.34930753707889
 30
5.436710357666016
 70
   192
  0
VERTEX
  5
534
  8
COURO
 10
200.2032775878906
 20
-37.84928464889529
 30
5.465398788452134
 70
   192
  0
VERTEX
  5
535
  8
COURO
 10
200.2032775878906
 20
-37.84928464889529
 30
5.465398788452134
 70
   192
  0
VERTEX
  5
536
  8
COURO
 10
200.2032775878906
 20
-37.1728587150574
 30
6.426113128662095
 70
   192
  0
VERTEX
  5
537
  8
COURO
 10
200.2032775878906
 20
-37.1728587150574
 30
6.426113128662095
 70
   192
  0
VERTEX
  5
538
  8
COURO
 10
200.2032775878906
 20
-29.91659116744998
 30
6.582801818847656
 70
   192
  0
VERTEX
  5
539
  8
COURO
 10
200.2032775878906
 20
-29.91659116744998
 30
6.582801818847656
 70
   192
  0
VERTEX
  5
53A
  8
COURO
 10
200.2032775878906
 20
-7.857687473297148
 30
6.582801818847656
 70
   192
  0
VERTEX
  5
53B
  8
COURO
 10
200.2032775878906
 20
-7.857687473297148
 30
6.582801818847656
 70
   192
  0
VERTEX
  5
53C
  8
COURO
 10
200.2032775878906
 20
-7.857687473297148
 30
6.582801818847656
 70
   192
  0
VERTEX
  5
53D
  8
COURO
 10
200.2032775878906
 20
-37.64713239669803
 30
6.590541839599595
 70
   192
  0
VERTEX
  5
53E
  8
COURO
 10
200.2032775878906
 20
-37.64713239669803
 30
6.590541839599595
 70
   192
  0
VERTEX
  5
53F
  8
COURO
 10
200.2032775878906
 20
-36.77859067916873
 30
7.114187240600586
 70
   192
  0
VERTEX
  5
540
  8
COURO
 10
200.2032775878906
 20
-36.77859067916873
 30
7.114187240600586
 70
   192
  0
VERTEX
  5
541
  8
COURO
 10
200.2032775878906
 20
-31.37747907638553
 30
7.338647842407227
 70
   192
  0
VERTEX
  5
542
  8
COURO
 10
200.2032775878906
 20
-31.37747907638553
 30
7.338647842407227
 70
   192
  0
VERTEX
  5
543
  8
COURO
 10
200.2032775878906
 20
-30.74103116989139
 30
7.394231796264648
 70
   192
  0
VERTEX
  5
544
  8
COURO
 10
200.2032775878906
 20
-30.74103116989139
 30
7.394231796264648
 70
   192
  0
VERTEX
  5
545
  8
COURO
 10
200.2032775878906
 20
-37.15945768356323
 30
7.440786361694336
 70
   192
  0
VERTEX
  5
546
  8
COURO
 10
200.2032775878906
 20
-37.15945768356323
 30
7.440786361694336
 70
   192
  0
VERTEX
  5
547
  8
COURO
 10
200.2032775878906
 20
-36.14390516281131
 30
7.648845672607408
 70
   192
  0
VERTEX
  5
548
  8
COURO
 10
200.2032775878906
 20
-36.14390516281131
 30
7.648845672607408
 70
   192
  0
VERTEX
  5
549
  8
COURO
 10
200.2032775878906
 20
-31.94725370407107
 30
7.722818374633789
 70
   192
  0
VERTEX
  5
54A
  8
COURO
 10
200.2032775878906
 20
-31.94725370407107
 30
7.722818374633789
 70
   192
  0
VERTEX
  5
54B
  8
COURO
 10
200.2032775878906
 20
-31.2834544181824
 30
7.776365280151367
 70
   192
  0
VERTEX
  5
54C
  8
COURO
 10
200.2032775878906
 20
-31.2834544181824
 30
7.776365280151367
 70
   192
  0
VERTEX
  5
54D
  8
COURO
 10
200.2032775878906
 20
-35.25319623947146
 30
8.056976318359375
 70
   192
  0
VERTEX
  5
54E
  8
COURO
 10
200.2032775878906
 20
-35.25319623947146
 30
8.056976318359375
 70
   192
  0
VERTEX
  5
54F
  8
COURO
 10
200.2032775878906
 20
-36.40943861007693
 30
8.073867797851548
 70
   192
  0
VERTEX
  5
550
  8
COURO
 10
200.2032775878906
 20
-36.40943861007693
 30
8.073867797851548
 70
   192
  0
VERTEX
  5
551
  8
COURO
 10
200.2032775878906
 20
-31.8209300041199
 30
8.206621170043945
 70
   192
  0
VERTEX
  5
552
  8
COURO
 10
200.2032775878906
 20
-31.8209300041199
 30
8.206621170043945
 70
   192
  0
VERTEX
  5
553
  8
COURO
 10
200.2032775878906
 20
-34.14748716354373
 30
8.319561004638658
 70
   192
  0
VERTEX
  5
554
  8
COURO
 10
200.2032775878906
 20
-34.14748716354373
 30
8.319561004638658
 70
   192
  0
VERTEX
  5
555
  8
COURO
 10
200.2032775878906
 20
-35.41286420822146
 30
8.531444549560547
 70
   192
  0
VERTEX
  5
556
  8
COURO
 10
200.2032775878906
 20
-35.41286420822146
 30
8.531444549560547
 70
   192
  0
VERTEX
  5
557
  8
COURO
 10
200.2032775878906
 20
-34.12871503829959
 30
8.832534790039048
 70
   192
  0
VERTEX
  5
558
  8
COURO
 10
200.2032775878906
 20
-34.12871503829959
 30
8.832534790039048
 70
   192
  0
VERTEX
  5
559
  8
COURO
 10
0.0
 20
0.0
 30
0.0
 70
   128
 71
   124
 72
   127
 73
   138
 74
   135
  0
VERTEX
  5
55A
  8
COURO
 10
0.0
 20
0.0
 30
0.0
 70
   128
 71
    32
 72
    34
 73
   125
 74
   123
  0
VERTEX
  5
55B
  8
COURO
 10
0.0
 20
0.0
 30
0.0
 70
   128
 71
    42
 72
    44
 73
    33
 74
    31
  0
VERTEX
  5
55C
  8
COURO
 10
0.0
 20
0.0
 30
0.0
 70
   128
 71
   134
 72
   137
 73
    46
 74
    43
  0
VERTEX
  5
55D
  8
COURO
 10
0.0
 20
0.0
 30
0.0
 70
   128
 71
   135
 72
   133
 73
   116
 74
   124
  0
VERTEX
  5
55E
  8
COURO
 10
0.0
 20
0.0
 30
0.0
 70
   128
 71
   123
 72
   115
 73
    24
 74
    32
  0
VERTEX
  5
55F
  8
COURO
 10
0.0
 20
0.0
 30
0.0
 70
   128
 71
    31
 72
    23
 73
    40
 74
    42
  0
VERTEX
  5
560
  8
COURO
 10
0.0
 20
0.0
 30
0.0
 70
   128
 71
    43
 72
    41
 73
   132
 74
   134
  0
VERTEX
  5
561
  8
COURO
 10
0.0
 20
0.0
 30
0.0
 70
   128
 71
   133
 72
   118
 73
   110
 74
   116
  0
VERTEX
  5
562
  8
COURO
 10
0.0
 20
0.0
 30
0.0
 70
   128
 71
   115
 72
   109
 73
    18
 74
    24
  0
VERTEX
  5
563
  8
COURO
 10
0.0
 20
0.0
 30
0.0
 70
   128
 71
    23
 72
    17
 73
    25
 74
    40
  0
VERTEX
  5
564
  8
COURO
 10
0.0
 20
0.0
 30
0.0
 70
   128
 71
    41
 72
    26
 73
   117
 74
   132
  0
VERTEX
  5
565
  8
COURO
 10
0.0
 20
0.0
 30
0.0
 70
   128
 71
   118
 72
   112
 73
   102
 74
   110
  0
VERTEX
  5
566
  8
COURO
 10
0.0
 20
0.0
 30
0.0
 70
   128
 71
   109
 72
   101
 73
    10
 74
    18
  0
VERTEX
  5
567
  8
COURO
 10
0.0
 20
0.0
 30
0.0
 70
   128
 71
    17
 72
     9
 73
    19
 74
    25
  0
VERTEX
  5
568
  8
COURO
 10
0.0
 20
0.0
 30
0.0
 70
   128
 71
    26
 72
    20
 73
   111
 74
   117
  0
VERTEX
  5
569
  8
COURO
 10
0.0
 20
0.0
 30
0.0
 70
   128
 71
    94
 72
   102
 73
   112
 74
   100
  0
VERTEX
  5
56A
  8
COURO
 10
0.0
 20
0.0
 30
0.0
 70
   128
 71
     2
 72
    10
 73
   101
 74
    93
  0
VERTEX
  5
56B
  8
COURO
 10
0.0
 20
0.0
 30
0.0
 70
   128
 71
     7
 72
    19
 73
     9
 74
     1
  0
VERTEX
  5
56C
  8
COURO
 10
0.0
 20
0.0
 30
0.0
 70
   128
 71
    99
 72
   111
 73
    20
 74
     8
  0
VERTEX
  5
56D
  8
COURO
 10
0.0
 20
0.0
 30
0.0
 70
   128
 71
    96
 72
    94
 73
   100
 74
   104
  0
VERTEX
  5
56E
  8
COURO
 10
0.0
 20
0.0
 30
0.0
 70
   128
 71
     4
 72
     2
 73
    93
 74
    95
  0
VERTEX
  5
56F
  8
COURO
 10
0.0
 20
0.0
 30
0.0
 70
   128
 71
    11
 72
     7
 73
     1
 74
     3
  0
VERTEX
  5
570
  8
COURO
 10
0.0
 20
0.0
 30
0.0
 70
   128
 71
   103
 72
    99
 73
     8
 74
    12
  0
VERTEX
  5
571
  8
COURO
 10
0.0
 20
0.0
 30
0.0
 70
   128
 71
   104
 72
   106
 73
    98
 74
    96
  0
VERTEX
  5
572
  8
COURO
 10
0.0
 20
0.0
 30
0.0
 70
   128
 71
    95
 72
    97
 73
     6
 74
     4
  0
VERTEX
  5
573
  8
COURO
 10
0.0
 20
0.0
 30
0.0
 70
   128
 71
     3
 72
     5
 73
    13
 74
    11
  0
VERTEX
  5
574
  8
COURO
 10
0.0
 20
0.0
 30
0.0
 70
   128
 71
    12
 72
    14
 73
   105
 74
   103
  0
VERTEX
  5
575
  8
COURO
 10
0.0
 20
0.0
 30
0.0
 70
   128
 71
   106
 72
   114
 73
   108
 74
    98
  0
VERTEX
  5
576
  8
COURO
 10
0.0
 20
0.0
 30
0.0
 70
   128
 71
    97
 72
   107
 73
    16
 74
     6
  0
VERTEX
  5
577
  8
COURO
 10
0.0
 20
0.0
 30
0.0
 70
   128
 71
     5
 72
    15
 73
    21
 74
    13
  0
VERTEX
  5
578
  8
COURO
 10
0.0
 20
0.0
 30
0.0
 70
   128
 71
    14
 72
    22
 73
   113
 74
   105
  0
VERTEX
  5
579
  8
COURO
 10
0.0
 20
0.0
 30
0.0
 70
   128
 71
   114
 72
   122
 73
   120
 74
   108
  0
VERTEX
  5
57A
  8
COURO
 10
0.0
 20
0.0
 30
0.0
 70
   128
 71
   107
 72
   119
 73
    28
 74
    16
  0
VERTEX
  5
57B
  8
COURO
 10
0.0
 20
0.0
 30
0.0
 70
   128
 71
    15
 72
    27
 73
    29
 74
    21
  0
VERTEX
  5
57C
  8
COURO
 10
0.0
 20
0.0
 30
0.0
 70
   128
 71
    22
 72
    30
 73
   121
 74
   113
  0
VERTEX
  5
57D
  8
COURO
 10
0.0
 20
0.0
 30
0.0
 70
   128
 71
   122
 72
   131
 73
   129
 74
   120
  0
VERTEX
  5
57E
  8
COURO
 10
0.0
 20
0.0
 30
0.0
 70
   128
 71
   119
 72
   128
 73
    37
 74
    28
  0
VERTEX
  5
57F
  8
COURO
 10
0.0
 20
0.0
 30
0.0
 70
   128
 71
    27
 72
    36
 73
    38
 74
    29
  0
VERTEX
  5
580
  8
COURO
 10
0.0
 20
0.0
 30
0.0
 70
   128
 71
    30
 72
    39
 73
   130
 74
   121
  0
VERTEX
  5
581
  8
COURO
 10
0.0
 20
0.0
 30
0.0
 70
   128
 71
   131
 72
   147
 73
   149
 74
   129
  0
VERTEX
  5
582
  8
COURO
 10
0.0
 20
0.0
 30
0.0
 70
   128
 71
   128
 72
   148
 73
    57
 74
    37
  0
VERTEX
  5
583
  8
COURO
 10
0.0
 20
0.0
 30
0.0
 70
   128
 71
    36
 72
    56
 73
    54
 74
    38
  0
VERTEX
  5
584
  8
COURO
 10
0.0
 20
0.0
 30
0.0
 70
   128
 71
    39
 72
    55
 73
   146
 74
   130
  0
VERTEX
  5
585
  8
COURO
 10
0.0
 20
0.0
 30
0.0
 70
   128
 71
   147
 72
   151
 73
   158
 74
   149
  0
VERTEX
  5
586
  8
COURO
 10
0.0
 20
0.0
 30
0.0
 70
   128
 71
   148
 72
   157
 73
    66
 74
    57
  0
VERTEX
  5
587
  8
COURO
 10
0.0
 20
0.0
 30
0.0
 70
   128
 71
    56
 72
    65
 73
    58
 74
    54
  0
VERTEX
  5
588
  8
COURO
 10
0.0
 20
0.0
 30
0.0
 70
   128
 71
    55
 72
    59
 73
   150
 74
   146
  0
VERTEX
  5
589
  8
COURO
 10
0.0
 20
0.0
 30
0.0
 70
   128
 71
   151
 72
   160
 73
   166
 74
   158
  0
VERTEX
  5
58A
  8
COURO
 10
0.0
 20
0.0
 30
0.0
 70
   128
 71
   157
 72
   165
 73
    74
 74
    66
  0
VERTEX
  5
58B
  8
COURO
 10
0.0
 20
0.0
 30
0.0
 70
   128
 71
    65
 72
    73
 73
    67
 74
    58
  0
VERTEX
  5
58C
  8
COURO
 10
0.0
 20
0.0
 30
0.0
 70
   128
 71
    59
 72
    68
 73
   159
 74
   150
  0
VERTEX
  5
58D
  8
COURO
 10
0.0
 20
0.0
 30
0.0
 70
   128
 71
   160
 72
   168
 73
   176
 74
   166
  0
VERTEX
  5
58E
  8
COURO
 10
0.0
 20
0.0
 30
0.0
 70
   128
 71
   165
 72
   175
 73
    84
 74
    74
  0
VERTEX
  5
58F
  8
COURO
 10
0.0
 20
0.0
 30
0.0
 70
   128
 71
    73
 72
    83
 73
    75
 74
    67
  0
VERTEX
  5
590
  8
COURO
 10
0.0
 20
0.0
 30
0.0
 70
   128
 71
    68
 72
    76
 73
   167
 74
   159
  0
VERTEX
  5
591
  8
COURO
 10
0.0
 20
0.0
 30
0.0
 70
   128
 71
   168
 72
   174
 73
   182
 74
   176
  0
VERTEX
  5
592
  8
COURO
 10
0.0
 20
0.0
 30
0.0
 70
   128
 71
   175
 72
   181
 73
    90
 74
    84
  0
VERTEX
  5
593
  8
COURO
 10
0.0
 20
0.0
 30
0.0
 70
   128
 71
    83
 72
    89
 73
    81
 74
    75
  0
VERTEX
  5
594
  8
COURO
 10
0.0
 20
0.0
 30
0.0
 70
   128
 71
    76
 72
    82
 73
   173
 74
   167
  0
VERTEX
  5
595
  8
COURO
 10
0.0
 20
0.0
 30
0.0
 70
   128
 71
   174
 72
   180
 73
   184
 74
   182
  0
VERTEX
  5
596
  8
COURO
 10
0.0
 20
0.0
 30
0.0
 70
   128
 71
   181
 72
   183
 73
    92
 74
    90
  0
VERTEX
  5
597
  8
COURO
 10
0.0
 20
0.0
 30
0.0
 70
   128
 71
    89
 72
    91
 73
    87
 74
    81
  0
VERTEX
  5
598
  8
COURO
 10
0.0
 20
0.0
 30
0.0
 70
   128
 71
    82
 72
    88
 73
   179
 74
   173
  0
VERTEX
  5
599
  8
COURO
 10
0.0
 20
0.0
 30
0.0
 70
   128
 71
   178
 72
   184
 73
   180
 74
   170
  0
VERTEX
  5
59A
  8
COURO
 10
0.0
 20
0.0
 30
0.0
 70
   128
 71
    86
 72
    92
 73
   183
 74
   177
  0
VERTEX
  5
59B
  8
COURO
 10
0.0
 20
0.0
 30
0.0
 70
   128
 71
    77
 72
    87
 73
    91
 74
    85
  0
VERTEX
  5
59C
  8
COURO
 10
0.0
 20
0.0
 30
0.0
 70
   128
 71
   169
 72
   179
 73
    88
 74
    78
  0
VERTEX
  5
59D
  8
COURO
 10
0.0
 20
0.0
 30
0.0
 70
   128
 71
   170
 72
   162
 73
   172
 74
   178
  0
VERTEX
  5
59E
  8
COURO
 10
0.0
 20
0.0
 30
0.0
 70
   128
 71
   177
 72
   171
 73
    80
 74
    86
  0
VERTEX
  5
59F
  8
COURO
 10
0.0
 20
0.0
 30
0.0
 70
   128
 71
    85
 72
    79
 73
    69
 74
    77
  0
VERTEX
  5
5A0
  8
COURO
 10
0.0
 20
0.0
 30
0.0
 70
   128
 71
    78
 72
    70
 73
   161
 74
   169
  0
VERTEX
  5
5A1
  8
COURO
 10
0.0
 20
0.0
 30
0.0
 70
   128
 71
   162
 72
   145
 73
   164
 74
   172
  0
VERTEX
  5
5A2
  8
COURO
 10
0.0
 20
0.0
 30
0.0
 70
   128
 71
   171
 72
   163
 73
    72
 74
    80
  0
VERTEX
  5
5A3
  8
COURO
 10
0.0
 20
0.0
 30
0.0
 70
   128
 71
    79
 72
    71
 73
    52
 74
    69
  0
VERTEX
  5
5A4
  8
COURO
 10
0.0
 20
0.0
 30
0.0
 70
   128
 71
    70
 72
    53
 73
   144
 74
   161
  0
VERTEX
  5
5A5
  8
COURO
 10
0.0
 20
0.0
 30
0.0
 70
   128
 71
   145
 72
   140
 73
   153
 74
   164
  0
VERTEX
  5
5A6
  8
COURO
 10
0.0
 20
0.0
 30
0.0
 70
   128
 71
   163
 72
   152
 73
    61
 74
    72
  0
VERTEX
  5
5A7
  8
COURO
 10
0.0
 20
0.0
 30
0.0
 70
   128
 71
    71
 72
    60
 73
    47
 74
    52
  0
VERTEX
  5
5A8
  8
COURO
 10
0.0
 20
0.0
 30
0.0
 70
   128
 71
    53
 72
    48
 73
   139
 74
   144
  0
VERTEX
  5
5A9
  8
COURO
 10
0.0
 20
0.0
 30
0.0
 70
   128
 71
   156
 72
   153
 73
   140
 74
   143
  0
VERTEX
  5
5AA
  8
COURO
 10
0.0
 20
0.0
 30
0.0
 70
   128
 71
    64
 72
    61
 73
   152
 74
   155
  0
VERTEX
  5
5AB
  8
COURO
 10
0.0
 20
0.0
 30
0.0
 70
   128
 71
    49
 72
    47
 73
    60
 74
    62
  0
VERTEX
  5
5AC
  8
COURO
 10
0.0
 20
0.0
 30
0.0
 70
   128
 71
   141
 72
   139
 73
    48
 74
    50
  0
VERTEX
  5
5AD
  8
COURO
 10
0.0
 20
0.0
 30
0.0
 70
   128
 71
    35
 72
    45
 73
   136
 74
   126
  0
VERTEX
  5
5AE
  8
COURO
 10
0.0
 20
0.0
 30
0.0
 70
   128
 71
    63
 72
   154
 73
   142
 74
   142
  0
VERTEX
  5
5AF
  8
COURO
 10
0.0
 20
0.0
 30
0.0
 70
   128
 71
    51
 72
    63
 73
   142
 74
   142
  0
SEQEND
  5
605
  8
COURO
  0
ENDSEC
  0
EOF
