  0
SECTION
  2
HEADER
  9
$ACADVER
  1
AC1009
  9
$DWGCODEPAGE
  3
undefined
  9
$INSBASE
 10
0.0
 20
0.0
 30
0.0
  9
$EXTMIN
 10
12.12
 20
-480.0
 30
0.0
  9
$EXTMAX
 10
250.45
 20
0.0
 30
52.0
  9
$LIMMIN
 10
0.0
 20
0.0
  9
$LIMMAX
 10
12.0
 20
9.0
  9
$ORTHOMODE
 70
     1
  9
$REGENMODE
 70
     1
  9
$FILLMODE
 70
     1
  9
$QTEXTMODE
 70
     0
  9
$MIRRTEXT
 70
     1
  9
$DRAGMODE
 70
     2
  9
$LTSCALE
 40
1.0
  9
$OSMODE
 70
    37
  9
$ATTMODE
 70
     1
  9
$TEXTSIZE
 40
0.2
  9
$TRACEWID
 40
0.05
  9
$TEXTSTYLE
  7
STANDARD
  9
$CLAYER
  8
0
  9
$CELTYPE
  6
BYBLOCK
  9
$CECOLOR
 62
   256
  9
$DIMSCALE
 40
1.0
  9
$DIMASZ
 40
0.18
  9
$DIMEXO
 40
0.0625
  9
$DIMDLI
 40
0.38
  9
$DIMRND
 40
0.0
  9
$DIMDLE
 40
0.0
  9
$DIMEXE
 40
0.18
  9
$DIMTP
 40
0.0
  9
$DIMTM
 40
0.0
  9
$DIMTXT
 40
0.18
  9
$DIMCEN
 40
0.09
  9
$DIMTSZ
 40
0.0
  9
$DIMTOL
 70
     0
  9
$DIMLIM
 70
     0
  9
$DIMTIH
 70
     1
  9
$DIMTOH
 70
     1
  9
$DIMSE1
 70
     0
  9
$DIMSE2
 70
     0
  9
$DIMTAD
 70
     0
  9
$DIMZIN
 70
     0
  9
$DIMBLK
  1

  9
$DIMASO
 70
     1
  9
$DIMSHO
 70
     1
  9
$DIMPOST
  1

  9
$DIMAPOST
  1

  9
$DIMALT
 70
     0
  9
$DIMALTD
 70
     2
  9
$DIMALTF
 40
25.4
  9
$DIMLFAC
 40
1.0
  9
$DIMTOFL
 70
     0
  9
$DIMTVP
 40
0.0
  9
$DIMTIX
 70
     0
  9
$DIMSOXD
 70
     0
  9
$DIMSAH
 70
     0
  9
$DIMBLK1
  1

  9
$DIMBLK2
  1

  9
$DIMSTYLE
  2
STANDARD
  9
$DIMCLRD
 70
     0
  9
$DIMCLRE
 70
     0
  9
$DIMCLRT
 70
     0
  9
$DIMTFAC
 40
1.0
  9
$DIMGAP
 40
0.09
  9
$LUNITS
 70
     2
  9
$LUPREC
 70
     4
  9
$SKETCHINC
 40
0.1
  9
$FILLETRAD
 40
0.5
  9
$AUNITS
 70
     0
  9
$AUPREC
 70
     0
  9
$MENU
  1
.
  9
$ELEVATION
 40
0.0
  9
$PELEVATION
 40
0.0
  9
$THICKNESS
 40
0.0
  9
$LIMCHECK
 70
     0
  9
$CHAMFERA
 40
0.5
  9
$CHAMFERB
 40
0.5
  9
$SKPOLY
 70
     0
  9
$TDCREATE
 40
2456499.62777456
  9
$TDUPDATE
 40
2456499.62777456
  9
$TDINDWG
 40
0.0046064931
  9
$TDUSRTIMER
 40
0.0046064931
  9
$USRTIMER
 70
     1
  9
$ANGBASE
 50
0.0
  9
$ANGDIR
 70
     0
  9
$PDMODE
 70
     0
  9
$PDSIZE
 40
0.0
  9
$PLINEWID
 40
0.0
  9
$COORDS
 70
     1
  9
$SPLFRAME
 70
     0
  9
$SPLINETYPE
 70
     6
  9
$SPLINESEGS
 70
     8
  9
$ATTDIA
 70
     0
  9
$ATTREQ
 70
     1
  9
$HANDLING
 70
     1
  9
$HANDSEED
  5
56F
  9
$SURFTAB1
 70
     6
  9
$SURFTAB2
 70
     6
  9
$SURFTYPE
 70
     6
  9
$SURFU
 70
     6
  9
$SURFV
 70
     6
  9
$UCSNAME
  2

  9
$UCSORG
 10
0.0
 20
0.0
 30
0.0
  9
$UCSXDIR
 10
1.0
 20
0.0
 30
0.0
  9
$UCSYDIR
 10
0.0
 20
1.0
 30
0.0
  9
$PUCSNAME
  2

  9
$PUCSORG
 10
0.0
 20
0.0
 30
0.0
  9
$PUCSXDIR
 10
1.0
 20
0.0
 30
0.0
  9
$PUCSYDIR
 10
0.0
 20
1.0
 30
0.0
  9
$USERI1
 70
     0
  9
$USERI2
 70
     0
  9
$USERI3
 70
     0
  9
$USERI4
 70
     0
  9
$USERI5
 70
     0
  9
$USERR1
 40
0.0
  9
$USERR2
 40
0.0
  9
$USERR3
 40
0.0
  9
$USERR4
 40
0.0
  9
$USERR5
 40
0.0
  9
$WORLDVIEW
 70
     1
  9
$SHADEDGE
 70
     3
  9
$SHADEDIF
 70
    70
  9
$TILEMODE
 70
     1
  9
$MAXACTVP
 70
    64
  9
$PLIMCHECK
 70
     0
  9
$PEXTMIN
 10
1.000000000000000E+20
 20
1.000000000000000E+20
 30
1.000000000000000E+20
  9
$PEXTMAX
 10
-1.000000000000000E+20
 20
-1.000000000000000E+20
 30
-1.000000000000000E+20
  9
$PLIMMIN
 10
0.0
 20
0.0
  9
$PLIMMAX
 10
12.0
 20
9.0
  9
$UNITMODE
 70
     0
  9
$VISRETAIN
 70
     1
  9
$PLINEGEN
 70
     0
  9
$PSLTSCALE
 70
     1
  0
ENDSEC
  0
SECTION
  2
TABLES
  0
TABLE
  2
VPORT
 70
     1
  0
VPORT
  2
*ACTIVE
 70
     0
 10
0.0
 20
0.0
 11
1.0
 21
1.0
 12
262.5381412528473
 22
-23.15380179365799
 13
0.0
 23
0.0
 14
0.5
 24
0.5
 15
0.5
 25
0.5
 16
-1.0
 26
-1.0
 36
1.0
 17
0.0
 27
0.0
 37
0.0
 40
428.0363912888644
 41
1.972972972850329
 42
50.0
 43
0.0
 44
0.0
 50
0.0
 51
0.0
 71
     0
 72
    16
 73
     0
 74
     2
 75
     0
 76
     0
 77
     0
 78
     0
  0
ENDTAB
  0
TABLE
  2
LTYPE
 70
     1
  0
LTYPE
  2
CONTINUOUS
 70
     0
  3
Solid line
 72
    65
 73
     0
 40
0.0
  0
ENDTAB
  0
TABLE
  2
LAYER
 70
     3
  0
LAYER
  2
0
 70
     0
 62
     7
  6
CONTINUOUS
  0
LAYER
  2
ACESSORIO
 70
     0
 62
     7
  6
CONTINUOUS
  0
LAYER
  2
DT_RENDER
 70
     0
 62
     7
  6
CONTINUOUS
  0
ENDTAB
  0
TABLE
  2
STYLE
 70
     1
  0
STYLE
  2
STANDARD
 70
     0
 40
0.0
 41
1.0
 50
0.0
 71
     0
 42
0.2
  3
txt
  4

  0
ENDTAB
  0
TABLE
  2
VIEW
 70
     0
  0
ENDTAB
  0
TABLE
  2
UCS
 70
     0
  0
ENDTAB
  0
TABLE
  2
APPID
 70
     4
  0
APPID
  2
ACAD
 70
     0
  0
APPID
  2
DTRENDER2
 70
     0
  0
APPID
  2
DT_MAT_ASSIGN
 70
     0
  0
APPID
  2
DT_MAT_MAPPING
 70
     0
  0
ENDTAB
  0
TABLE
  2
DIMSTYLE
 70
     1
  0
DIMSTYLE
  2
STANDARD
 70
     0
  3

  4

  5

  6

  7

 40
1.0
 41
0.18
 42
0.0625
 43
0.38
 44
0.18
 45
0.0
 46
0.0
 47
0.0
 48
0.0
140
0.18
141
0.09
142
0.0
143
25.4
144
1.0
145
0.0
146
1.0
147
0.09
 71
     0
 72
     0
 73
     1
 74
     1
 75
     0
 76
     0
 77
     0
 78
     0
170
     0
171
     2
172
     0
173
     0
174
     0
175
     0
176
     0
177
     0
178
     0
  0
ENDTAB
  0
ENDSEC
  0
SECTION
  2
BLOCKS
  0
BLOCK
  8
0
  2
$MODEL_SPACE
 70
     0
 10
0.0
 20
0.0
 30
0.0
  3
$MODEL_SPACE
  1

  0
ENDBLK
  5
21
  8
0
  0
BLOCK
 67
     1
  8
0
  2
$PAPER_SPACE
 70
     0
 10
0.0
 20
0.0
 30
0.0
  3
$PAPER_SPACE
  1

  0
ENDBLK
  5
76
 67
     1
  8
0
  0
BLOCK
  8
0
  2
DT_LIGHT
 70
     0
 10
0.0
 20
0.0
 30
0.0
  3
DT_LIGHT
  1

  0
ENDBLK
  5
561
  8
0
  0
BLOCK
  8
0
  2
DT_MATERIAL
 70
     0
 10
0.0
 20
0.0
 30
0.0
  3
DT_MATERIAL
  1

  0
ENDBLK
  5
563
  8
0
  0
BLOCK
  8
0
  2
DT_COLOR
 70
     0
 10
0.0
 20
0.0
 30
0.0
  3
DT_COLOR
  1

  0
ENDBLK
  5
565
  8
0
  0
BLOCK
  8
0
  2
DT_FLOOR
 70
     0
 10
0.0
 20
0.0
 30
0.0
  3
DT_FLOOR
  1

  0
ENDBLK
  5
567
  8
0
  0
BLOCK
  8
0
  2
DT_OPTIONS
 70
     0
 10
0.0
 20
0.0
 30
0.0
  3
DT_OPTIONS
  1

  0
ENDBLK
  5
569
  8
0
  0
BLOCK
  8
0
  2
DT_BACKGROUND
 70
     0
 10
0.0
 20
0.0
 30
0.0
  3
DT_BACKGROUND
  1

  0
ENDBLK
  5
56B
  8
0
  0
ENDSEC
  0
SECTION
  2
ENTITIES
  0
3DFACE
  5
6A
  8
ACESSORIO
 10
250.45
 20
-130.0
 30
2.0
 11
250.45
 21
-130.0
 31
0.0
 12
200.45
 22
-130.0
 32
0.0
 13
200.45
 23
-130.0
 33
2.0
  0
3DFACE
  5
556
  8
ACESSORIO
 10
250.45
 20
-150.0
 30
2.0
 11
250.45
 21
-150.0
 31
0.0
 12
200.45
 22
-150.0
 32
0.0
 13
200.45
 23
-150.0
 33
2.0
  0
3DFACE
  5
557
  8
ACESSORIO
 10
250.45
 20
-130.0
 30
0.0
 11
200.45
 21
-130.0
 31
0.0
 12
200.45
 22
-150.0
 32
0.0
 13
250.45
 23
-150.0
 33
0.0
  0
3DFACE
  5
6D
  8
ACESSORIO
 10
250.45
 20
-130.0
 30
2.0
 11
200.45
 21
-130.0
 31
2.0
 12
200.45
 22
-150.0
 32
2.0
 13
250.45
 23
-150.0
 33
2.0
  0
3DFACE
  5
6E
  8
ACESSORIO
 10
250.45
 20
-410.0
 30
2.0
 11
200.45
 21
-410.0
 31
2.0
 12
200.45
 22
-430.0
 32
2.0
 13
250.45
 23
-430.0
 33
2.0
  0
3DFACE
  5
6F
  8
ACESSORIO
 10
250.45
 20
-410.0
 30
0.0
 11
200.45
 21
-410.0
 31
0.0
 12
200.45
 22
-430.0
 32
0.0
 13
250.45
 23
-430.0
 33
0.0
  0
3DFACE
  5
70
  8
ACESSORIO
 10
250.45
 20
-430.0
 30
2.0
 11
250.45
 21
-430.0
 31
0.0
 12
200.45
 22
-430.0
 32
0.0
 13
200.45
 23
-430.0
 33
2.0
  0
3DFACE
  5
71
  8
ACESSORIO
 10
250.45
 20
-410.0
 30
2.0
 11
250.45
 21
-410.0
 31
0.0
 12
200.45
 22
-410.0
 32
0.0
 13
200.45
 23
-410.0
 33
2.0
  0
3DFACE
  5
7A
  8
ACESSORIO
 10
14.12
 20
0.0
 30
47.0
 11
14.12
 21
0.0
 31
7.0
 12
14.12
 22
-480.0
 32
7.0
 13
14.12
 23
-480.0
 33
47.0
  0
3DFACE
  5
7B
  8
ACESSORIO
 10
15.12
 20
0.0
 30
47.0
 11
15.12
 21
0.0
 31
7.0
 12
15.12
 22
-480.0
 32
7.0
 13
15.12
 23
-480.0
 33
47.0
  0
3DFACE
  5
8A
  8
ACESSORIO
 10
12.12
 20
-410.0
 30
2.0
 11
12.12
 21
-410.0
 31
0.0
 12
62.12
 22
-410.0
 32
0.0
 13
62.12
 23
-410.0
 33
2.0
  0
3DFACE
  5
8B
  8
ACESSORIO
 10
12.12
 20
-430.0
 30
2.0
 11
12.12
 21
-430.0
 31
0.0
 12
62.12
 22
-430.0
 32
0.0
 13
62.12
 23
-430.0
 33
2.0
  0
3DFACE
  5
8C
  8
ACESSORIO
 10
12.12
 20
-410.0
 30
0.0
 11
62.12
 21
-410.0
 31
0.0
 12
62.12
 22
-430.0
 32
0.0
 13
12.12
 23
-430.0
 33
0.0
  0
3DFACE
  5
8D
  8
ACESSORIO
 10
12.12
 20
-410.0
 30
2.0
 11
62.12
 21
-410.0
 31
2.0
 12
62.12
 22
-430.0
 32
2.0
 13
12.12
 23
-430.0
 33
2.0
  0
3DFACE
  5
8E
  8
ACESSORIO
 10
14.12
 20
-480.0
 30
47.0
 11
15.12
 21
-480.0
 31
47.0
 12
15.12
 22
-480.0
 32
7.0
 13
14.12
 23
-480.0
 33
7.0
  0
3DFACE
  5
8F
  8
ACESSORIO
 10
12.12
 20
-430.0
 30
42.0
 11
14.12
 21
-430.0
 31
42.0
 12
14.12
 22
-430.0
 32
2.0
 13
12.12
 23
-430.0
 33
2.0
  0
3DFACE
  5
90
  8
ACESSORIO
 10
12.12
 20
-410.0
 30
42.0
 11
12.12
 21
-430.0
 31
42.0
 12
12.12
 22
-430.0
 32
2.0
 13
12.12
 23
-410.0
 33
2.0
  0
3DFACE
  5
91
  8
ACESSORIO
 10
14.12
 20
-410.0
 30
42.0
 11
14.12
 21
-430.0
 31
42.0
 12
14.12
 22
-430.0
 32
2.0
 13
14.12
 23
-410.0
 33
2.0
  0
3DFACE
  5
558
  8
ACESSORIO
 10
13.83
 20
-410.0
 30
42.0
 11
12.12
 21
-410.0
 31
42.0
 12
12.12
 22
-410.0
 32
2.0
 13
14.12
 23
-410.0
 33
2.0
  0
3DFACE
  5
559
  8
ACESSORIO
 10
14.12
 20
-410.0
 30
2.0
 11
12.12
 21
-410.0
 31
2.0
 12
12.12
 22
-430.0
 32
2.0
 13
14.12
 23
-430.0
 33
2.0
  0
3DFACE
  5
94
  8
ACESSORIO
 10
12.12
 20
-410.0
 30
2.0
 11
12.12
 21
-410.0
 31
0.0
 12
12.12
 22
-430.0
 32
0.0
 13
12.12
 23
-430.0
 33
2.0
  0
3DFACE
  5
95
  8
ACESSORIO
 10
62.12
 20
-410.0
 30
2.0
 11
62.12
 21
-410.0
 31
0.0
 12
62.12
 22
-430.0
 32
0.0
 13
62.12
 23
-430.0
 33
2.0
  0
3DFACE
  5
9E
  8
ACESSORIO
 10
200.45
 20
-410.0
 30
2.0
 11
200.45
 21
-410.0
 31
0.0
 12
200.45
 22
-430.0
 32
0.0
 13
200.45
 23
-430.0
 33
2.0
  0
3DFACE
  5
B4
  8
ACESSORIO
 10
12.12
 20
-130.0
 30
2.0
 11
62.12
 21
-130.0
 31
2.0
 12
62.12
 22
-150.0
 32
2.0
 13
12.12
 23
-150.0
 33
2.0
  0
3DFACE
  5
B5
  8
ACESSORIO
 10
12.12
 20
-130.0
 30
0.0
 11
62.12
 21
-130.0
 31
0.0
 12
62.12
 22
-150.0
 32
0.0
 13
12.12
 23
-150.0
 33
0.0
  0
3DFACE
  5
B6
  8
ACESSORIO
 10
12.12
 20
-150.0
 30
2.0
 11
12.12
 21
-150.0
 31
0.0
 12
62.12
 22
-150.0
 32
0.0
 13
62.12
 23
-150.0
 33
2.0
  0
3DFACE
  5
B7
  8
ACESSORIO
 10
12.12
 20
-130.0
 30
2.0
 11
12.12
 21
-130.0
 31
0.0
 12
62.12
 22
-130.0
 32
0.0
 13
62.12
 23
-130.0
 33
2.0
  0
3DFACE
  5
B8
  8
ACESSORIO
 10
14.12
 20
-130.0
 30
42.0
 11
14.12
 21
-150.0
 31
42.0
 12
14.12
 22
-150.0
 32
2.0
 13
14.12
 23
-130.0
 33
2.0
  0
3DFACE
  5
B9
  8
ACESSORIO
 10
12.12
 20
-130.0
 30
42.0
 11
12.12
 21
-150.0
 31
42.0
 12
12.12
 22
-150.0
 32
2.0
 13
12.12
 23
-130.0
 33
2.0
  0
3DFACE
  5
BA
  8
ACESSORIO
 10
12.12
 20
-150.0
 30
42.0
 11
14.12
 21
-150.0
 31
42.0
 12
14.12
 22
-150.0
 32
2.0
 13
12.12
 23
-150.0
 33
2.0
  0
3DFACE
  5
BB
  8
ACESSORIO
 10
13.83
 20
-130.0
 30
42.0
 11
12.12
 21
-130.0
 31
42.0
 12
12.12
 22
-130.0
 32
2.0
 13
14.12
 23
-130.0
 33
2.0
  0
3DFACE
  5
BC
  8
ACESSORIO
 10
12.12
 20
-130.0
 30
2.0
 11
12.12
 21
-130.0
 31
0.0
 12
12.12
 22
-150.0
 32
0.0
 13
12.12
 23
-150.0
 33
2.0
  0
3DFACE
  5
BD
  8
ACESSORIO
 10
14.12
 20
-130.0
 30
2.0
 11
12.12
 21
-130.0
 31
2.0
 12
12.12
 22
-150.0
 32
2.0
 13
14.12
 23
-150.0
 33
2.0
  0
3DFACE
  5
BE
  8
ACESSORIO
 10
14.12
 20
0.0
 30
47.0
 11
15.12
 21
0.0
 31
47.0
 12
15.12
 22
0.0
 32
7.0
 13
14.12
 23
0.0
 33
7.0
  0
3DFACE
  5
BF
  8
ACESSORIO
 10
62.12
 20
-130.0
 30
2.0
 11
62.12
 21
-130.0
 31
0.0
 12
62.12
 22
-150.0
 32
0.0
 13
62.12
 23
-150.0
 33
2.0
  0
3DFACE
  5
C7
  8
ACESSORIO
 10
200.45
 20
-130.0
 30
2.0
 11
200.45
 21
-130.0
 31
0.0
 12
200.45
 22
-150.0
 32
0.0
 13
200.45
 23
-150.0
 33
2.0
  0
3DFACE
  5
D3
  8
ACESSORIO
 10
247.45
 20
0.0
 30
47.0
 11
247.45
 21
0.0
 31
7.0
 12
247.45
 22
-480.0
 32
7.0
 13
247.45
 23
-480.0
 33
47.0
  0
3DFACE
  5
D4
  8
ACESSORIO
 10
248.45
 20
0.0
 30
47.0
 11
248.45
 21
0.0
 31
7.0
 12
248.45
 22
-480.0
 32
7.0
 13
248.45
 23
-480.0
 33
47.0
  0
3DFACE
  5
D6
  8
ACESSORIO
 10
248.45
 20
-480.0
 30
47.0
 11
247.45
 21
-480.0
 31
47.0
 12
247.45
 22
-480.0
 32
7.0
 13
248.45
 23
-480.0
 33
7.0
  0
3DFACE
  5
D7
  8
ACESSORIO
 10
248.73
 20
-410.0
 30
42.0
 11
250.45
 21
-410.0
 31
42.0
 12
250.45
 22
-410.0
 32
2.0
 13
248.45
 23
-410.0
 33
2.0
  0
3DFACE
  5
D8
  8
ACESSORIO
 10
248.45
 20
-410.0
 30
42.0
 11
248.45
 21
-430.0
 31
42.0
 12
248.45
 22
-430.0
 32
2.0
 13
248.45
 23
-410.0
 33
2.0
  0
3DFACE
  5
D9
  8
ACESSORIO
 10
250.45
 20
-410.0
 30
42.0
 11
250.45
 21
-430.0
 31
42.0
 12
250.45
 22
-430.0
 32
2.0
 13
250.45
 23
-410.0
 33
2.0
  0
3DFACE
  5
DA
  8
ACESSORIO
 10
250.45
 20
-430.0
 30
42.0
 11
248.45
 21
-430.0
 31
42.0
 12
248.45
 22
-430.0
 32
2.0
 13
250.45
 23
-430.0
 33
2.0
  0
3DFACE
  5
DB
  8
ACESSORIO
 10
250.45
 20
-410.0
 30
2.0
 11
250.45
 21
-410.0
 31
0.0
 12
250.45
 22
-430.0
 32
0.0
 13
250.45
 23
-430.0
 33
2.0
  0
3DFACE
  5
DC
  8
ACESSORIO
 10
248.45
 20
-410.0
 30
2.0
 11
250.45
 21
-410.0
 31
2.0
 12
250.45
 22
-430.0
 32
2.0
 13
248.45
 23
-430.0
 33
2.0
  0
3DFACE
  5
DE
  8
ACESSORIO
 10
248.45
 20
-410.0
 30
42.0
 11
250.45
 21
-410.0
 31
42.0
 12
250.45
 22
-430.0
 32
42.0
 13
248.45
 23
-430.0
 33
42.0
  0
3DFACE
  5
DF
  8
ACESSORIO
 10
250.45
 20
-150.0
 30
42.0
 11
248.45
 21
-150.0
 31
42.0
 12
248.45
 22
-150.0
 32
2.0
 13
250.45
 23
-150.0
 33
2.0
  0
3DFACE
  5
E0
  8
ACESSORIO
 10
250.45
 20
-130.0
 30
42.0
 11
250.45
 21
-150.0
 31
42.0
 12
250.45
 22
-150.0
 32
2.0
 13
250.45
 23
-130.0
 33
2.0
  0
3DFACE
  5
E1
  8
ACESSORIO
 10
248.45
 20
-130.0
 30
42.0
 11
248.45
 21
-150.0
 31
42.0
 12
248.45
 22
-150.0
 32
2.0
 13
248.45
 23
-130.0
 33
2.0
  0
3DFACE
  5
E2
  8
ACESSORIO
 10
248.73
 20
-130.0
 30
42.0
 11
250.45
 21
-130.0
 31
42.0
 12
250.45
 22
-130.0
 32
2.0
 13
248.45
 23
-130.0
 33
2.0
  0
3DFACE
  5
E3
  8
ACESSORIO
 10
248.45
 20
-130.0
 30
2.0
 11
250.45
 21
-130.0
 31
2.0
 12
250.45
 22
-150.0
 32
2.0
 13
248.45
 23
-150.0
 33
2.0
  0
3DFACE
  5
E4
  8
ACESSORIO
 10
250.45
 20
-130.0
 30
2.0
 11
250.45
 21
-130.0
 31
0.0
 12
250.45
 22
-150.0
 32
0.0
 13
250.45
 23
-150.0
 33
2.0
  0
3DFACE
  5
E5
  8
ACESSORIO
 10
248.45
 20
-130.0
 30
42.0
 11
250.45
 21
-130.0
 31
42.0
 12
250.45
 22
-150.0
 32
42.0
 13
248.45
 23
-150.0
 33
42.0
  0
3DFACE
  5
4A2
  8
ACESSORIO
 10
238.45
 20
0.0
 30
47.0
 11
239.91
 21
0.0
 31
50.54
 12
239.91
 22
-480.0
 32
50.54
 13
238.45
 23
-480.0
 33
47.0
  0
3DFACE
  5
4A3
  8
ACESSORIO
 10
239.91
 20
0.0
 30
50.54
 11
243.45
 21
0.0
 31
52.0
 12
243.45
 22
-480.0
 32
52.0
 13
239.91
 23
-480.0
 33
50.54
  0
3DFACE
  5
4A4
  8
ACESSORIO
 10
243.45
 20
0.0
 30
52.0
 11
246.99
 21
0.0
 31
50.54
 12
246.99
 22
-480.0
 32
50.54
 13
243.45
 23
-480.0
 33
52.0
  0
3DFACE
  5
4A5
  8
ACESSORIO
 10
246.99
 20
0.0
 30
50.54
 11
248.45
 21
0.0
 31
47.0
 12
248.45
 22
-480.0
 32
47.0
 13
246.99
 23
-480.0
 33
50.54
  0
3DFACE
  5
4A6
  8
ACESSORIO
 10
238.45
 20
0.0
 30
7.0
 11
239.91
 21
0.0
 31
3.46
 12
239.91
 22
-480.0
 32
3.46
 13
238.45
 23
-480.0
 33
7.0
  0
3DFACE
  5
4A7
  8
ACESSORIO
 10
239.91
 20
0.0
 30
3.46
 11
243.45
 21
0.0
 31
2.0
 12
243.45
 22
-480.0
 32
2.0
 13
239.91
 23
-480.0
 33
3.46
  0
3DFACE
  5
4A8
  8
ACESSORIO
 10
243.45
 20
0.0
 30
2.0
 11
246.99
 21
0.0
 31
3.46
 12
246.99
 22
-480.0
 32
3.46
 13
243.45
 23
-480.0
 33
2.0
  0
3DFACE
  5
4A9
  8
ACESSORIO
 10
246.99
 20
0.0
 30
3.46
 11
248.45
 21
0.0
 31
7.0
 12
248.45
 22
-480.0
 32
7.0
 13
246.99
 23
-480.0
 33
3.46
  0
3DFACE
  5
51A
  8
ACESSORIO
 10
24.12
 20
0.0
 30
7.0
 11
22.65
 21
0.0
 31
3.46
 12
22.65
 22
-480.0
 32
3.46
 13
24.12
 23
-480.0
 33
7.0
  0
3DFACE
  5
51B
  8
ACESSORIO
 10
22.65
 20
0.0
 30
3.46
 11
19.12
 21
0.0
 31
2.0
 12
19.12
 22
-480.0
 32
2.0
 13
22.65
 23
-480.0
 33
3.46
  0
3DFACE
  5
51C
  8
ACESSORIO
 10
19.12
 20
0.0
 30
2.0
 11
15.58
 21
0.0
 31
3.46
 12
15.58
 22
-480.0
 32
3.46
 13
19.12
 23
-480.0
 33
2.0
  0
3DFACE
  5
51D
  8
ACESSORIO
 10
15.58
 20
0.0
 30
3.46
 11
14.12
 21
0.0
 31
7.0
 12
14.12
 22
-480.0
 32
7.0
 13
15.58
 23
-480.0
 33
3.46
  0
3DFACE
  5
51E
  8
ACESSORIO
 10
24.12
 20
0.0
 30
47.0
 11
22.65
 21
0.0
 31
50.54
 12
22.65
 22
-480.0
 32
50.54
 13
24.12
 23
-480.0
 33
47.0
  0
3DFACE
  5
51F
  8
ACESSORIO
 10
22.65
 20
0.0
 30
50.54
 11
19.12
 21
0.0
 31
52.0
 12
19.12
 22
-480.0
 32
52.0
 13
22.65
 23
-480.0
 33
50.54
  0
3DFACE
  5
520
  8
ACESSORIO
 10
19.12
 20
0.0
 30
52.0
 11
15.58
 21
0.0
 31
50.54
 12
15.58
 22
-480.0
 32
50.54
 13
19.12
 23
-480.0
 33
52.0
  0
3DFACE
  5
521
  8
ACESSORIO
 10
15.58
 20
0.0
 30
50.54
 11
14.12
 21
0.0
 31
47.0
 12
14.12
 22
-480.0
 32
47.0
 13
15.58
 23
-480.0
 33
50.54
  0
INSERT
  5
544
  8
DT_RENDER
  6
BYBLOCK
  2
DT_MATERIAL
 10
0.0
 20
0.0
 30
0.0
1001
DTRENDER2
1000
MATERIAL
1071
   200501
1040
0.25
1040
0.5
1040
0.0
1040
0.8
1040
80.0
1040
0.0
1071
        1
1000
DEFAULT
1071
       16
1000

1040
0.0
1040
0.0
1040
0.0
1040
1.0
1040
1.0
1040
1.0
1040
0.0
1071
 16777215
1040
1.0
1071
 16777215
1040
1.0
1071
 16777215
1040
1.0
1071
 16777215
1040
1.0
1071
 16777215
1040
2.187
1040
0.5
1071
        3
1040
2.5
  0
ENDSEC
  0
EOF
