  0
SECTION
  2
HEADER
  9
$ACADVER
  1
AC1014
  9
$ACADMAINTVER
 70
     9
  9
$DWGCODEPAGE
  3
UNDEFINED
  9
$INSBASE
 10
0.0
 20
0.0
 30
0.0
  9
$EXTMIN
 10
-80.78
 20
0.0
 30
0.0
  9
$EXTMAX
 10
80.74584492091319
 20
500.0
 30
61.05
  9
$LIMMIN
 10
0.0
 20
0.0
  9
$LIMMAX
 10
12.0
 20
9.0
  9
$ORTHOMODE
 70
     1
  9
$REGENMODE
 70
     1
  9
$FILLMODE
 70
     1
  9
$QTEXTMODE
 70
     0
  9
$MIRRTEXT
 70
     1
  9
$DRAGMODE
 70
     2
  9
$LTSCALE
 40
1.0
  9
$OSMODE
 70
    37
  9
$ATTMODE
 70
     1
  9
$TEXTSIZE
 40
0.2
  9
$TRACEWID
 40
0.05
  9
$TEXTSTYLE
  7
STANDARD
  9
$CLAYER
  8
0
  9
$CELTYPE
  6
BYBLOCK
  9
$CECOLOR
 62
   256
  9
$CELTSCALE
 40
1.0
  9
$DELOBJ
 70
     1
  9
$DISPSILH
 70
     0
  9
$DIMSCALE
 40
1.0
  9
$DIMASZ
 40
0.18
  9
$DIMEXO
 40
0.0625
  9
$DIMDLI
 40
0.38
  9
$DIMRND
 40
0.0
  9
$DIMDLE
 40
0.0
  9
$DIMEXE
 40
0.18
  9
$DIMTP
 40
0.0
  9
$DIMTM
 40
0.0
  9
$DIMTXT
 40
0.18
  9
$DIMCEN
 40
0.09
  9
$DIMTSZ
 40
0.0
  9
$DIMTOL
 70
     0
  9
$DIMLIM
 70
     0
  9
$DIMTIH
 70
     1
  9
$DIMTOH
 70
     1
  9
$DIMSE1
 70
     0
  9
$DIMSE2
 70
     0
  9
$DIMTAD
 70
     0
  9
$DIMZIN
 70
     0
  9
$DIMBLK
  1

  9
$DIMASO
 70
     1
  9
$DIMSHO
 70
     1
  9
$DIMPOST
  1

  9
$DIMAPOST
  1

  9
$DIMALT
 70
     0
  9
$DIMALTD
 70
     2
  9
$DIMALTF
 40
25.4
  9
$DIMLFAC
 40
1.0
  9
$DIMTOFL
 70
     0
  9
$DIMTVP
 40
0.0
  9
$DIMTIX
 70
     0
  9
$DIMSOXD
 70
     0
  9
$DIMSAH
 70
     0
  9
$DIMBLK1
  1

  9
$DIMBLK2
  1

  9
$DIMSTYLE
  2
STANDARD
  9
$DIMCLRD
 70
     0
  9
$DIMCLRE
 70
     0
  9
$DIMCLRT
 70
     0
  9
$DIMTFAC
 40
1.0
  9
$DIMGAP
 40
0.09
  9
$DIMJUST
 70
     0
  9
$DIMSD1
 70
     0
  9
$DIMSD2
 70
     0
  9
$DIMTOLJ
 70
     1
  9
$DIMTZIN
 70
     0
  9
$DIMALTZ
 70
     0
  9
$DIMALTTZ
 70
     0
  9
$DIMFIT
 70
     3
  9
$DIMUPT
 70
     0
  9
$DIMUNIT
 70
     2
  9
$DIMDEC
 70
     4
  9
$DIMTDEC
 70
     4
  9
$DIMALTU
 70
     2
  9
$DIMALTTD
 70
     2
  9
$DIMTXSTY
  7
STANDARD
  9
$DIMAUNIT
 70
     0
  9
$LUNITS
 70
     2
  9
$LUPREC
 70
     4
  9
$SKETCHINC
 40
0.1
  9
$FILLETRAD
 40
0.5
  9
$AUNITS
 70
     0
  9
$AUPREC
 70
     0
  9
$MENU
  1
.
  9
$ELEVATION
 40
0.0
  9
$PELEVATION
 40
0.0
  9
$THICKNESS
 40
0.0
  9
$LIMCHECK
 70
     0
  9
$CHAMFERA
 40
0.5
  9
$CHAMFERB
 40
0.5
  9
$CHAMFERC
 40
1.0
  9
$CHAMFERD
 40
0.0
  9
$SKPOLY
 70
     0
  9
$TDCREATE
 40
2456563.372835822
  9
$TDUPDATE
 40
2456563.372835822
  9
$TDINDWG
 40
0.0074189931
  9
$TDUSRTIMER
 40
0.0074073843
  9
$USRTIMER
 70
     1
  9
$ANGBASE
 50
0.0
  9
$ANGDIR
 70
     0
  9
$PDMODE
 70
     0
  9
$PDSIZE
 40
0.0
  9
$PLINEWID
 40
0.0
  9
$COORDS
 70
     1
  9
$SPLFRAME
 70
     0
  9
$SPLINETYPE
 70
     6
  9
$SPLINESEGS
 70
     8
  9
$ATTDIA
 70
     0
  9
$ATTREQ
 70
     1
  9
$HANDLING
 70
     1
  9
$HANDSEED
  5
11F7
  9
$SURFTAB1
 70
     6
  9
$SURFTAB2
 70
     6
  9
$SURFTYPE
 70
     6
  9
$SURFU
 70
     6
  9
$SURFV
 70
     6
  9
$UCSNAME
  2

  9
$UCSORG
 10
0.0
 20
0.0
 30
0.0
  9
$UCSXDIR
 10
1.0
 20
0.0
 30
0.0
  9
$UCSYDIR
 10
0.0
 20
1.0
 30
0.0
  9
$PUCSNAME
  2

  9
$PUCSORG
 10
0.0
 20
0.0
 30
0.0
  9
$PUCSXDIR
 10
1.0
 20
0.0
 30
0.0
  9
$PUCSYDIR
 10
0.0
 20
1.0
 30
0.0
  9
$USERI1
 70
     0
  9
$USERI2
 70
     0
  9
$USERI3
 70
     0
  9
$USERI4
 70
     0
  9
$USERI5
 70
     0
  9
$USERR1
 40
0.0
  9
$USERR2
 40
0.0
  9
$USERR3
 40
0.0
  9
$USERR4
 40
0.0
  9
$USERR5
 40
0.0
  9
$WORLDVIEW
 70
     1
  9
$SHADEDGE
 70
     3
  9
$SHADEDIF
 70
    70
  9
$TILEMODE
 70
     1
  9
$MAXACTVP
 70
    64
  9
$PINSBASE
 10
0.0
 20
0.0
 30
0.0
  9
$PLIMCHECK
 70
     0
  9
$PEXTMIN
 10
1.000000000000000E+20
 20
1.000000000000000E+20
 30
1.000000000000000E+20
  9
$PEXTMAX
 10
-1.000000000000000E+20
 20
-1.000000000000000E+20
 30
-1.000000000000000E+20
  9
$PLIMMIN
 10
0.0
 20
0.0
  9
$PLIMMAX
 10
12.0
 20
9.0
  9
$UNITMODE
 70
     0
  9
$VISRETAIN
 70
     1
  9
$PLINEGEN
 70
     0
  9
$PSLTSCALE
 70
     1
  9
$TREEDEPTH
 70
  3020
  9
$PICKSTYLE
 70
     1
  9
$CMLSTYLE
  2
STANDARD
  9
$CMLJUST
 70
     0
  9
$CMLSCALE
 40
1.0
  9
$PROXYGRAPHICS
 70
     1
  9
$MEASUREMENT
 70
     0
  0
ENDSEC
  0
SECTION
  2
CLASSES
  0
CLASS
  1
ACDBDICTIONARYWDFLT
  2
AcDbDictionaryWithDefault
  3
ObjectDBX Classes
 90
        0
280
     0
281
     0
  0
CLASS
  1
ACDBPLACEHOLDER
  2
AcDbPlaceHolder
  3
ObjectDBX Classes
 90
        0
280
     0
281
     0
  0
CLASS
  1
LAYOUT
  2
AcDbLayout
  3
ObjectDBX Classes
 90
        0
280
     0
281
     0
  0
CLASS
  1
DICTIONARYVAR
  2
AcDbDictionaryVar
  3
ObjectDBX Classes
 90
        0
280
     0
281
     0
  0
CLASS
  1
TABLESTYLE
  2
AcDbTableStyle
  3
ObjectDBX Classes
 90
     4095
280
     0
281
     0
  0
CLASS
  1
XRECORD
  2
AcDbXrecord
  3
AutoCAD 2000
 90
        0
280
     0
281
     0
  0
CLASS
  1
LWPOLYLINE
  2
AcDbPolyline
  3
AutoCAD 2000
 90
        0
280
     0
281
     1
  0
CLASS
  1
HATCH
  2
AcDbHatch
  3
AutoCAD 2000
 90
        0
280
     0
281
     1
  0
ENDSEC
  0
SECTION
  2
TABLES
  0
TABLE
  2
VPORT
  5
8
330
0
100
AcDbSymbolTable
 70
     2
  0
VPORT
  5
97
330
8
100
AcDbSymbolTableRecord
100
AcDbViewportTableRecord
  2
*ACTIVE
 70
     0
 10
0.0
 20
0.0
 11
1.0
 21
1.0
 12
176.788770940654
 22
-77.13154260682303
 13
0.0
 23
0.0
 14
0.5
 24
0.5
 15
0.5
 25
0.5
 16
1.0
 26
1.0
 36
1.0
 17
0.0
 27
0.0
 37
0.0
 40
326.3121897833083
 41
1.972972972850329
 42
50.0
 43
0.0
 44
0.0
 50
0.0
 51
0.0
 71
    16
 72
    16
 73
     0
 74
     1
 75
     0
 76
     0
 77
     0
 78
     0
  0
ENDTAB
  0
TABLE
  2
LTYPE
  5
5
330
0
100
AcDbSymbolTable
 70
     1
  0
LTYPE
  5
14
330
5
100
AcDbSymbolTableRecord
100
AcDbLinetypeTableRecord
  2
BYBLOCK
 70
     0
  3

 72
    65
 73
     0
 40
0.0
  0
LTYPE
  5
15
330
5
100
AcDbSymbolTableRecord
100
AcDbLinetypeTableRecord
  2
BYLAYER
 70
     0
  3

 72
    65
 73
     0
 40
0.0
  0
LTYPE
  5
16
330
5
100
AcDbSymbolTableRecord
100
AcDbLinetypeTableRecord
  2
CONTINUOUS
 70
     0
  3
Solid line
 72
    65
 73
     0
 40
0.0
  0
ENDTAB
  0
TABLE
  2
LAYER
  5
2
330
0
100
AcDbSymbolTable
 70
     2
  0
LAYER
  5
10
330
2
100
AcDbSymbolTableRecord
100
AcDbLayerTableRecord
  2
0
 70
     0
 62
     7
  6
CONTINUOUS
  0
LAYER
  5
11A6
330
2
100
AcDbSymbolTableRecord
100
AcDbLayerTableRecord
  2
ACESSORIO
 70
     0
 62
     7
  6
CONTINUOUS
  0
ENDTAB
  0
TABLE
  2
STYLE
  5
3
330
0
100
AcDbSymbolTable
 70
     1
  0
STYLE
  5
11
330
3
100
AcDbSymbolTableRecord
100
AcDbTextStyleTableRecord
  2
STANDARD
 70
     0
 40
0.0
 41
1.0
 50
0.0
 71
     0
 42
0.2
  3
txt
  4

  0
ENDTAB
  0
TABLE
  2
VIEW
  5
6
330
0
100
AcDbSymbolTable
 70
     0
  0
ENDTAB
  0
TABLE
  2
UCS
  5
7
330
0
100
AcDbSymbolTable
 70
     0
  0
ENDTAB
  0
TABLE
  2
APPID
  5
9
330
0
100
AcDbSymbolTable
 70
     1
  0
APPID
  5
12
330
9
100
AcDbSymbolTableRecord
100
AcDbRegAppTableRecord
  2
ACAD
 70
     0
  0
ENDTAB
  0
TABLE
  2
DIMSTYLE
  5
A
330
0
100
AcDbSymbolTable
 70
     1
  0
DIMSTYLE
105
27
330
A
100
AcDbSymbolTableRecord
100
AcDbDimStyleTableRecord
  2
STANDARD
 70
     0
  3

  4

  5

  6

  7

 40
1.0
 41
0.18
 42
0.0625
 43
0.38
 44
0.18
 45
0.0
 46
0.0
 47
0.0
 48
0.0
140
0.18
141
0.09
142
0.0
143
25.4
144
1.0
145
0.0
146
1.0
147
0.09
 71
     0
 72
     0
 73
     1
 74
     1
 75
     0
 76
     0
 77
     0
 78
     0
170
     0
171
     2
172
     0
173
     0
174
     0
175
     0
176
     0
177
     0
178
     0
270
     2
271
     4
272
     4
273
     2
274
     2
340
11
275
     0
280
     0
281
     0
282
     0
283
     1
284
     0
285
     0
286
     0
287
     3
288
     0
  0
ENDTAB
  0
TABLE
  2
BLOCK_RECORD
  5
1
330
0
100
AcDbSymbolTable
 70
     0
  0
BLOCK_RECORD
  5
1F
330
1
100
AcDbSymbolTableRecord
100
AcDbBlockTableRecord
  2
*MODEL_SPACE
  0
BLOCK_RECORD
  5
73
330
1
100
AcDbSymbolTableRecord
100
AcDbBlockTableRecord
  2
*PAPER_SPACE
  0
ENDTAB
  0
ENDSEC
  0
SECTION
  2
BLOCKS
  0
BLOCK
  5
20
330
1F
100
AcDbEntity
  8
0
100
AcDbBlockBegin
  2
*MODEL_SPACE
 70
     0
 71
     0
 10
0.0
 20
0.0
 30
0.0
  3
*MODEL_SPACE
  1

  0
ENDBLK
  5
21
330
1F
100
AcDbEntity
  8
0
100
AcDbBlockEnd
  0
BLOCK
  5
75
330
73
100
AcDbEntity
 67
     1
  8
0
100
AcDbBlockBegin
  2
*PAPER_SPACE
 70
     0
 71
     0
 10
0.0
 20
0.0
 30
0.0
  3
*PAPER_SPACE
  1

  0
ENDBLK
  5
76
330
73
100
AcDbEntity
 67
     1
  8
0
100
AcDbBlockEnd
  0
ENDSEC
  0
SECTION
  2
ENTITIES
  0
3DFACE
  5
FE
330
1F
100
AcDbEntity
  8
ACESSORIO
100
AcDbFace
 10
-31.06
 20
0.0
 30
0.0
 11
-29.12
 21
0.0
 31
0.0
 12
-29.12
 22
500.0
 32
0.0
 13
-31.06
 23
500.0
 33
0.0
  0
3DFACE
  5
FF
330
1F
100
AcDbEntity
  8
ACESSORIO
100
AcDbFace
 10
-29.12
 20
0.0
 30
0.0
 11
-19.41
 21
0.0
 31
0.0
 12
-19.41
 22
500.0
 32
0.0
 13
-29.12
 23
500.0
 33
0.0
  0
3DFACE
  5
100
330
1F
100
AcDbEntity
  8
ACESSORIO
100
AcDbFace
 10
-29.12
 20
0.0
 30
2.03
 11
-19.41
 21
0.0
 31
2.03
 12
-19.41
 22
500.0
 32
2.03
 13
-29.12
 23
500.0
 33
2.03
  0
3DFACE
  5
101
330
1F
100
AcDbEntity
  8
ACESSORIO
100
AcDbFace
 10
-19.41
 20
500.0
 30
0.0
 11
-19.41
 21
500.0
 31
2.03
 12
-19.41
 22
0.0
 32
2.03
 13
-19.41
 23
0.0
 33
0.0
  0
3DFACE
  5
102
330
1F
100
AcDbEntity
  8
ACESSORIO
100
AcDbFace
 10
-19.41
 20
500.0
 30
61.05
 11
-19.41
 21
500.0
 31
59.01
 12
-19.41
 22
0.0
 32
59.01
 13
-19.41
 23
0.0
 33
61.05
  0
3DFACE
  5
103
330
1F
100
AcDbEntity
  8
ACESSORIO
100
AcDbFace
 10
-29.12
 20
0.0
 30
59.01
 11
-19.41
 21
0.0
 31
59.01
 12
-19.41
 22
500.0
 32
59.01
 13
-29.12
 23
500.0
 33
59.01
  0
3DFACE
  5
104
330
1F
100
AcDbEntity
  8
ACESSORIO
100
AcDbFace
 10
-29.12
 20
0.0
 30
61.05
 11
-19.41
 21
0.0
 31
61.05
 12
-19.41
 22
500.0
 32
61.05
 13
-29.12
 23
500.0
 33
61.05
  0
3DFACE
  5
105
330
1F
100
AcDbEntity
  8
ACESSORIO
100
AcDbFace
 10
-29.12
 20
0.0
 30
0.0
 11
-31.06
 21
0.0
 31
0.0
 12
-31.06
 22
500.0
 32
0.0
 13
-29.12
 23
500.0
 33
0.0
  0
3DFACE
  5
106
330
1F
100
AcDbEntity
  8
ACESSORIO
100
AcDbFace
 10
-31.06
 20
0.0
 30
61.05
 11
-29.12
 21
0.0
 31
61.05
 12
-29.12
 22
500.0
 32
61.05
 13
-31.06
 23
500.0
 33
61.05
  0
3DFACE
  5
107
330
1F
100
AcDbEntity
  8
ACESSORIO
100
AcDbFace
 10
-29.12
 20
0.0
 30
61.05
 11
-29.12
 21
0.0
 31
0.0
 12
-29.12
 22
500.0
 32
0.0
 13
-29.12
 23
500.0
 33
61.05
  0
3DFACE
  5
108
330
1F
100
AcDbEntity
  8
ACESSORIO
100
AcDbFace
 10
-31.06
 20
0.0
 30
61.05
 11
-31.06
 21
0.0
 31
0.0
 12
-31.06
 22
500.0
 32
0.0
 13
-31.06
 23
500.0
 33
61.05
  0
3DFACE
  5
2B7
330
1F
100
AcDbEntity
  8
ACESSORIO
100
AcDbFace
 10
-32.21000000000001
 20
70.0
 30
2.03
 11
-32.21000000000001
 21
70.0
 31
0.0
 12
-80.78
 22
70.0
 32
0.0
 13
-80.78
 23
70.0
 33
2.03
  0
3DFACE
  5
2B8
330
1F
100
AcDbEntity
  8
ACESSORIO
100
AcDbFace
 10
-32.21000000000001
 20
90.0
 30
2.03
 11
-32.21000000000001
 21
90.0
 31
0.0
 12
-80.78
 22
90.0
 32
0.0
 13
-80.78
 23
90.0
 33
2.03
  0
3DFACE
  5
2B9
330
1F
100
AcDbEntity
  8
ACESSORIO
100
AcDbFace
 10
-32.21000000000001
 20
70.0
 30
0.0
 11
-80.78
 21
70.0
 31
0.0
 12
-80.78
 22
90.0
 32
0.0
 13
-32.21000000000001
 23
90.0
 33
0.0
  0
3DFACE
  5
2BA
330
1F
100
AcDbEntity
  8
ACESSORIO
100
AcDbFace
 10
-32.21000000000001
 20
70.0
 30
2.03
 11
-80.78
 21
70.0
 31
2.03
 12
-80.78
 22
90.0
 32
2.03
 13
-32.21000000000001
 23
90.0
 33
2.03
  0
3DFACE
  5
2BB
330
1F
100
AcDbEntity
  8
ACESSORIO
100
AcDbFace
 10
-80.78
 20
70.0
 30
2.03
 11
-80.78
 21
70.0
 31
0.0
 12
-80.78
 22
90.0
 32
0.0
 13
-80.78
 23
90.0
 33
2.03
  0
3DFACE
  5
2D3
330
1F
100
AcDbEntity
  8
ACESSORIO
100
AcDbFace
 10
-32.21000000000001
 20
70.0
 30
42.73
 11
-32.21000000000001
 21
90.0
 31
42.73
 12
-32.21000000000001
 22
90.0
 32
2.03
 13
-32.21000000000001
 23
70.0
 33
2.03
  0
3DFACE
  5
2D4
330
1F
100
AcDbEntity
  8
ACESSORIO
100
AcDbFace
 10
-32.21000000000001
 20
70.0
 30
2.03
 11
-32.21000000000001
 21
70.0
 31
0.0
 12
-32.21000000000001
 22
90.0
 32
0.0
 13
-32.21000000000001
 23
90.0
 33
2.03
  0
3DFACE
  5
2D5
330
1F
100
AcDbEntity
  8
ACESSORIO
100
AcDbFace
 10
-34.15000000000001
 20
70.0
 30
42.73
 11
-34.15000000000001
 21
90.0
 31
42.73
 12
-34.15000000000001
 22
90.0
 32
2.03
 13
-34.15000000000001
 23
70.0
 33
2.03
  0
3DFACE
  5
2D6
330
1F
100
AcDbEntity
  8
ACESSORIO
100
AcDbFace
 10
-34.15000000000001
 20
70.0
 30
2.03
 11
-32.21000000000001
 21
70.0
 31
2.03
 12
-32.21000000000001
 22
90.0
 32
2.03
 13
-34.15000000000001
 23
90.0
 33
2.03
  0
3DFACE
  5
2D7
330
1F
100
AcDbEntity
  8
ACESSORIO
100
AcDbFace
 10
-34.15000000000001
 20
90.0
 30
42.73
 11
-32.21000000000001
 21
90.0
 31
42.73
 12
-32.21000000000001
 22
70.0
 32
42.73
 13
-34.15000000000001
 23
70.0
 33
42.73
  0
3DFACE
  5
2D8
330
1F
100
AcDbEntity
  8
ACESSORIO
100
AcDbFace
 10
-34.15000000000001
 20
70.0
 30
42.73
 11
-32.21000000000001
 21
70.0
 31
42.73
 12
-32.21000000000001
 22
70.0
 32
2.03
 13
-34.15000000000001
 23
70.0
 33
2.03
  0
3DFACE
  5
2D9
330
1F
100
AcDbEntity
  8
ACESSORIO
100
AcDbFace
 10
-32.21000000000001
 20
90.0
 30
42.73
 11
-34.15000000000001
 21
90.0
 31
42.73
 12
-34.15000000000001
 22
90.0
 32
2.03
 13
-32.21000000000001
 23
90.0
 33
2.03
  0
3DFACE
  5
675
330
1F
100
AcDbEntity
  8
ACESSORIO
100
AcDbFace
 10
-32.21000000000001
 20
430.0
 30
2.03
 11
-32.21000000000001
 21
430.0
 31
0.0
 12
-32.21000000000001
 22
410.0
 32
0.0
 13
-32.21000000000001
 23
410.0
 33
2.03
  0
3DFACE
  5
676
330
1F
100
AcDbEntity
  8
ACESSORIO
100
AcDbFace
 10
-32.21000000000001
 20
430.0
 30
42.73
 11
-32.21000000000001
 21
410.0
 31
42.73
 12
-32.21000000000001
 22
410.0
 32
2.03
 13
-32.21000000000001
 23
430.0
 33
2.03
  0
3DFACE
  5
677
330
1F
100
AcDbEntity
  8
ACESSORIO
100
AcDbFace
 10
-34.15000000000001
 20
430.0
 30
42.73
 11
-34.15000000000001
 21
410.0
 31
42.73
 12
-34.15000000000001
 22
410.0
 32
2.03
 13
-34.15000000000001
 23
430.0
 33
2.03
  0
3DFACE
  5
678
330
1F
100
AcDbEntity
  8
ACESSORIO
100
AcDbFace
 10
-34.15000000000001
 20
430.0
 30
2.03
 11
-32.21000000000001
 21
430.0
 31
2.03
 12
-32.21000000000001
 22
410.0
 32
2.03
 13
-34.15000000000001
 23
410.0
 33
2.03
  0
3DFACE
  5
679
330
1F
100
AcDbEntity
  8
ACESSORIO
100
AcDbFace
 10
-34.15000000000001
 20
410.0
 30
42.73
 11
-32.21000000000001
 21
410.0
 31
42.73
 12
-32.21000000000001
 22
430.0
 32
42.73
 13
-34.15000000000001
 23
430.0
 33
42.73
  0
3DFACE
  5
67A
330
1F
100
AcDbEntity
  8
ACESSORIO
100
AcDbFace
 10
-80.78
 20
430.0
 30
2.03
 11
-80.78
 21
430.0
 31
0.0
 12
-80.78
 22
410.0
 32
0.0
 13
-80.78
 23
410.0
 33
2.03
  0
3DFACE
  5
67B
330
1F
100
AcDbEntity
  8
ACESSORIO
100
AcDbFace
 10
-32.21000000000001
 20
430.0
 30
2.03
 11
-80.78
 21
430.0
 31
2.03
 12
-80.78
 22
410.0
 32
2.03
 13
-32.21000000000001
 23
410.0
 33
2.03
  0
3DFACE
  5
67C
330
1F
100
AcDbEntity
  8
ACESSORIO
100
AcDbFace
 10
-32.21000000000001
 20
430.0
 30
0.0
 11
-80.78
 21
430.0
 31
0.0
 12
-80.78
 22
410.0
 32
0.0
 13
-32.21000000000001
 23
410.0
 33
0.0
  0
3DFACE
  5
683
330
1F
100
AcDbEntity
  8
ACESSORIO
100
AcDbFace
 10
-32.21000000000001
 20
410.0
 30
2.03
 11
-32.21000000000001
 21
410.0
 31
0.0
 12
-80.78
 22
410.0
 32
0.0
 13
-80.78
 23
410.0
 33
2.03
  0
3DFACE
  5
68C
330
1F
100
AcDbEntity
  8
ACESSORIO
100
AcDbFace
 10
-32.21000000000001
 20
410.0
 30
42.73
 11
-34.15000000000001
 21
410.0
 31
42.73
 12
-34.15000000000001
 22
410.0
 32
2.03
 13
-32.21000000000001
 23
410.0
 33
2.03
  0
3DFACE
  5
68D
330
1F
100
AcDbEntity
  8
ACESSORIO
100
AcDbFace
 10
-32.21000000000001
 20
430.0
 30
2.03
 11
-32.21000000000001
 21
430.0
 31
0.0
 12
-80.78
 22
430.0
 32
0.0
 13
-80.78
 23
430.0
 33
2.03
  0
3DFACE
  5
6A5
330
1F
100
AcDbEntity
  8
ACESSORIO
100
AcDbFace
 10
-34.15000000000001
 20
430.0
 30
42.73
 11
-32.21000000000001
 21
430.0
 31
42.73
 12
-32.21000000000001
 22
430.0
 32
2.03
 13
-34.15000000000001
 23
430.0
 33
2.03
  0
3DFACE
  5
705
330
1F
100
AcDbEntity
  8
ACESSORIO
100
AcDbFace
 10
-31.06
 20
500.0
 30
61.05
 11
-29.12
 21
500.0
 31
61.05
 12
-29.12
 22
500.0
 32
0.0
 13
-31.06
 23
500.0
 33
0.0
  0
3DFACE
  5
707
330
1F
100
AcDbEntity
  8
ACESSORIO
100
AcDbFace
 10
-19.41
 20
500.0
 30
0.0
 11
-19.41
 21
500.0
 31
2.03
 12
-29.12
 22
500.0
 32
2.03
 13
-29.12
 23
500.0
 33
0.0
  0
3DFACE
  5
709
330
1F
100
AcDbEntity
  8
ACESSORIO
100
AcDbFace
 10
-19.41
 20
500.0
 30
61.05
 11
-19.41
 21
500.0
 31
59.01
 12
-29.12
 22
500.0
 32
59.01
 13
-29.12
 23
500.0
 33
61.05
  0
3DFACE
  5
94B
330
1F
100
AcDbEntity
  8
ACESSORIO
100
AcDbFace
 10
31.06999999999999
 20
0.0
 30
61.05
 11
31.06999999999999
 21
0.0
 31
0.0
 12
31.06999999999999
 22
500.0
 32
0.0
 13
31.06999999999999
 23
500.0
 33
61.05
  0
3DFACE
  5
94C
330
1F
100
AcDbEntity
  8
ACESSORIO
100
AcDbFace
 10
29.13
 20
0.0
 30
61.05
 11
29.13
 21
0.0
 31
0.0
 12
29.13
 22
500.0
 32
0.0
 13
29.13
 23
500.0
 33
61.05
  0
3DFACE
  5
94D
330
1F
100
AcDbEntity
  8
ACESSORIO
100
AcDbFace
 10
31.06999999999999
 20
0.0
 30
61.05
 11
29.13
 21
0.0
 31
61.05
 12
29.13
 22
500.0
 32
61.05
 13
31.06999999999999
 23
500.0
 33
61.05
  0
3DFACE
  5
94E
330
1F
100
AcDbEntity
  8
ACESSORIO
100
AcDbFace
 10
29.13
 20
0.0
 30
0.0
 11
31.06999999999999
 21
0.0
 31
0.0
 12
31.06999999999999
 22
500.0
 32
0.0
 13
29.13
 23
500.0
 33
0.0
  0
3DFACE
  5
94F
330
1F
100
AcDbEntity
  8
ACESSORIO
100
AcDbFace
 10
29.13
 20
0.0
 30
61.05
 11
19.41
 21
0.0
 31
61.05
 12
19.41
 22
500.0
 32
61.05
 13
29.13
 23
500.0
 33
61.05
  0
3DFACE
  5
950
330
1F
100
AcDbEntity
  8
ACESSORIO
100
AcDbFace
 10
29.13
 20
0.0
 30
59.01
 11
19.41
 21
0.0
 31
59.01
 12
19.41
 22
500.0
 32
59.01
 13
29.13
 23
500.0
 33
59.01
  0
3DFACE
  5
951
330
1F
100
AcDbEntity
  8
ACESSORIO
100
AcDbFace
 10
19.41
 20
500.0
 30
61.05
 11
19.41
 21
500.0
 31
59.01
 12
19.41
 22
0.0
 32
59.01
 13
19.41
 23
0.0
 33
61.05
  0
3DFACE
  5
952
330
1F
100
AcDbEntity
  8
ACESSORIO
100
AcDbFace
 10
19.41
 20
500.0
 30
0.0
 11
19.41
 21
500.0
 31
2.03
 12
19.41
 22
0.0
 32
2.03
 13
19.41
 23
0.0
 33
0.0
  0
3DFACE
  5
953
330
1F
100
AcDbEntity
  8
ACESSORIO
100
AcDbFace
 10
29.13
 20
0.0
 30
2.03
 11
19.41
 21
0.0
 31
2.03
 12
19.41
 22
500.0
 32
2.03
 13
29.13
 23
500.0
 33
2.03
  0
3DFACE
  5
954
330
1F
100
AcDbEntity
  8
ACESSORIO
100
AcDbFace
 10
29.13
 20
0.0
 30
0.0
 11
19.41
 21
0.0
 31
0.0
 12
19.41
 22
500.0
 32
0.0
 13
29.13
 23
500.0
 33
0.0
  0
3DFACE
  5
955
330
1F
100
AcDbEntity
  8
ACESSORIO
100
AcDbFace
 10
31.06999999999999
 20
0.0
 30
0.0
 11
29.13
 21
0.0
 31
0.0
 12
29.13
 22
500.0
 32
0.0
 13
31.06999999999999
 23
500.0
 33
0.0
  0
3DFACE
  5
A38
330
1F
100
AcDbEntity
  8
ACESSORIO
100
AcDbFace
 10
32.17584492091319
 20
70.0
 30
2.03
 11
80.74584492091319
 21
70.0
 31
2.03
 12
80.74584492091319
 22
90.0
 32
2.03
 13
32.17584492091319
 23
90.0
 33
2.03
  0
3DFACE
  5
A39
330
1F
100
AcDbEntity
  8
ACESSORIO
100
AcDbFace
 10
32.17584492091319
 20
70.0
 30
0.0
 11
80.74584492091319
 21
70.0
 31
0.0
 12
80.74584492091319
 22
90.0
 32
0.0
 13
32.17584492091319
 23
90.0
 33
0.0
  0
3DFACE
  5
A3A
330
1F
100
AcDbEntity
  8
ACESSORIO
100
AcDbFace
 10
32.17584492091319
 20
90.0
 30
2.03
 11
32.17584492091319
 21
90.0
 31
0.0
 12
80.74584492091319
 22
90.0
 32
0.0
 13
80.74584492091319
 23
90.0
 33
2.03
  0
3DFACE
  5
A3B
330
1F
100
AcDbEntity
  8
ACESSORIO
100
AcDbFace
 10
32.17584492091319
 20
70.0
 30
2.03
 11
32.17584492091319
 21
70.0
 31
0.0
 12
80.74584492091319
 22
70.0
 32
0.0
 13
80.74584492091319
 23
70.0
 33
2.03
  0
3DFACE
  5
A3C
330
1F
100
AcDbEntity
  8
ACESSORIO
100
AcDbFace
 10
31.06999999999999
 20
0.0
 30
61.05
 11
29.13
 21
0.0
 31
61.05
 12
29.13
 22
0.0
 32
0.0
 13
31.06999999999999
 23
0.0
 33
0.0
  0
3DFACE
  5
A3E
330
1F
100
AcDbEntity
  8
ACESSORIO
100
AcDbFace
 10
19.41
 20
0.0
 30
0.0
 11
19.41
 21
0.0
 31
2.03
 12
29.13
 22
0.0
 32
2.03
 13
29.13
 23
0.0
 33
0.0
  0
3DFACE
  5
A40
330
1F
100
AcDbEntity
  8
ACESSORIO
100
AcDbFace
 10
19.41
 20
0.0
 30
61.05
 11
19.41
 21
0.0
 31
59.01
 12
29.13
 22
0.0
 32
59.01
 13
29.13
 23
0.0
 33
61.05
  0
3DFACE
  5
A47
330
1F
100
AcDbEntity
  8
ACESSORIO
100
AcDbFace
 10
32.17584492091319
 20
90.0
 30
42.73
 11
34.11584492091319
 21
90.0
 31
42.73
 12
34.11584492091319
 22
90.0
 32
2.03
 13
32.17584492091319
 23
90.0
 33
2.03
  0
3DFACE
  5
A48
330
1F
100
AcDbEntity
  8
ACESSORIO
100
AcDbFace
 10
34.11584492091319
 20
70.0
 30
42.73
 11
32.17584492091319
 21
70.0
 31
42.73
 12
32.17584492091319
 22
70.0
 32
2.03
 13
34.11584492091319
 23
70.0
 33
2.03
  0
3DFACE
  5
A49
330
1F
100
AcDbEntity
  8
ACESSORIO
100
AcDbFace
 10
34.11584492091319
 20
70.0
 30
2.03
 11
32.17584492091319
 21
70.0
 31
2.03
 12
32.17584492091319
 22
90.0
 32
2.03
 13
34.11584492091319
 23
90.0
 33
2.03
  0
3DFACE
  5
A4A
330
1F
100
AcDbEntity
  8
ACESSORIO
100
AcDbFace
 10
34.11584492091319
 20
90.0
 30
42.73
 11
32.17584492091319
 21
90.0
 31
42.73
 12
32.17584492091319
 22
70.0
 32
42.73
 13
34.11584492091319
 23
70.0
 33
42.73
  0
3DFACE
  5
A4F
330
1F
100
AcDbEntity
  8
ACESSORIO
100
AcDbFace
 10
32.17584492091319
 20
70.0
 30
42.73
 11
32.17584492091319
 21
90.0
 31
42.73
 12
32.17584492091319
 22
90.0
 32
2.03
 13
32.17584492091319
 23
70.0
 33
2.03
  0
3DFACE
  5
A50
330
1F
100
AcDbEntity
  8
ACESSORIO
100
AcDbFace
 10
32.17584492091319
 20
70.0
 30
2.03
 11
32.17584492091319
 21
70.0
 31
0.0
 12
32.17584492091319
 22
90.0
 32
0.0
 13
32.17584492091319
 23
90.0
 33
2.03
  0
3DFACE
  5
A51
330
1F
100
AcDbEntity
  8
ACESSORIO
100
AcDbFace
 10
34.11584492091319
 20
70.0
 30
42.73
 11
34.11584492091319
 21
90.0
 31
42.73
 12
34.11584492091319
 22
90.0
 32
2.03
 13
34.11584492091319
 23
70.0
 33
2.03
  0
3DFACE
  5
AA9
330
1F
100
AcDbEntity
  8
ACESSORIO
100
AcDbFace
 10
80.74584492091319
 20
70.0
 30
2.03
 11
80.74584492091319
 21
70.0
 31
0.0
 12
80.74584492091319
 22
90.0
 32
0.0
 13
80.74584492091319
 23
90.0
 33
2.03
  0
3DFACE
  5
DFB
330
1F
100
AcDbEntity
  8
ACESSORIO
100
AcDbFace
 10
80.74584492091319
 20
430.0
 30
2.03
 11
80.74584492091319
 21
430.0
 31
0.0
 12
80.74584492091319
 22
410.0
 32
0.0
 13
80.74584492091319
 23
410.0
 33
2.03
  0
3DFACE
  5
DFC
330
1F
100
AcDbEntity
  8
ACESSORIO
100
AcDbFace
 10
34.11584492091319
 20
410.0
 30
42.73
 11
32.17584492091319
 21
410.0
 31
42.73
 12
32.17584492091319
 22
430.0
 32
42.73
 13
34.11584492091319
 23
430.0
 33
42.73
  0
3DFACE
  5
DFD
330
1F
100
AcDbEntity
  8
ACESSORIO
100
AcDbFace
 10
34.11584492091319
 20
430.0
 30
2.03
 11
32.17584492091319
 21
430.0
 31
2.03
 12
32.17584492091319
 22
410.0
 32
2.03
 13
34.11584492091319
 23
410.0
 33
2.03
  0
3DFACE
  5
DFE
330
1F
100
AcDbEntity
  8
ACESSORIO
100
AcDbFace
 10
32.17584492091319
 20
430.0
 30
2.03
 11
32.17584492091319
 21
430.0
 31
0.0
 12
32.17584492091319
 22
410.0
 32
0.0
 13
32.17584492091319
 23
410.0
 33
2.03
  0
3DFACE
  5
DFF
330
1F
100
AcDbEntity
  8
ACESSORIO
100
AcDbFace
 10
32.17584492091319
 20
430.0
 30
42.73
 11
32.17584492091319
 21
410.0
 31
42.73
 12
32.17584492091319
 22
410.0
 32
2.03
 13
32.17584492091319
 23
430.0
 33
2.03
  0
3DFACE
  5
E00
330
1F
100
AcDbEntity
  8
ACESSORIO
100
AcDbFace
 10
34.11584492091319
 20
430.0
 30
42.73
 11
34.11584492091319
 21
410.0
 31
42.73
 12
34.11584492091319
 22
410.0
 32
2.03
 13
34.11584492091319
 23
430.0
 33
2.03
  0
3DFACE
  5
E01
330
1F
100
AcDbEntity
  8
ACESSORIO
100
AcDbFace
 10
32.17584492091319
 20
430.0
 30
0.0
 11
80.74584492091319
 21
430.0
 31
0.0
 12
80.74584492091319
 22
410.0
 32
0.0
 13
32.17584492091319
 23
410.0
 33
0.0
  0
3DFACE
  5
E02
330
1F
100
AcDbEntity
  8
ACESSORIO
100
AcDbFace
 10
32.17584492091319
 20
430.0
 30
2.03
 11
80.74584492091319
 21
430.0
 31
2.03
 12
80.74584492091319
 22
410.0
 32
2.03
 13
32.17584492091319
 23
410.0
 33
2.03
  0
3DFACE
  5
E07
330
1F
100
AcDbEntity
  8
ACESSORIO
100
AcDbFace
 10
32.17584492091319
 20
410.0
 30
2.03
 11
32.17584492091319
 21
410.0
 31
0.0
 12
80.74584492091319
 22
410.0
 32
0.0
 13
80.74584492091319
 23
410.0
 33
2.03
  0
3DFACE
  5
E0D
330
1F
100
AcDbEntity
  8
ACESSORIO
100
AcDbFace
 10
32.17584492091319
 20
410.0
 30
42.73
 11
34.11584492091319
 21
410.0
 31
42.73
 12
34.11584492091319
 22
410.0
 32
2.03
 13
32.17584492091319
 23
410.0
 33
2.03
  0
3DFACE
  5
E0E
330
1F
100
AcDbEntity
  8
ACESSORIO
100
AcDbFace
 10
32.17584492091319
 20
430.0
 30
2.03
 11
32.17584492091319
 21
430.0
 31
0.0
 12
80.74584492091319
 22
430.0
 32
0.0
 13
80.74584492091319
 23
430.0
 33
2.03
  0
3DFACE
  5
E14
330
1F
100
AcDbEntity
  8
ACESSORIO
100
AcDbFace
 10
34.11584492091319
 20
430.0
 30
42.73
 11
32.17584492091319
 21
430.0
 31
42.73
 12
32.17584492091319
 22
430.0
 32
2.03
 13
34.11584492091319
 23
430.0
 33
2.03
  0
3DFACE
  5
E70
330
1F
100
AcDbEntity
  8
ACESSORIO
100
AcDbFace
 10
31.06999999999999
 20
500.0
 30
61.05
 11
29.13
 21
500.0
 31
61.05
 12
29.13
 22
500.0
 32
0.0
 13
31.06999999999999
 23
500.0
 33
0.0
  0
3DFACE
  5
E72
330
1F
100
AcDbEntity
  8
ACESSORIO
100
AcDbFace
 10
19.41
 20
500.0
 30
0.0
 11
19.41
 21
500.0
 31
2.03
 12
29.13
 22
500.0
 32
2.03
 13
29.13
 23
500.0
 33
0.0
  0
3DFACE
  5
E74
330
1F
100
AcDbEntity
  8
ACESSORIO
100
AcDbFace
 10
19.41
 20
500.0
 30
61.05
 11
19.41
 21
500.0
 31
59.01
 12
29.13
 22
500.0
 32
59.01
 13
29.13
 23
500.0
 33
61.05
  0
3DFACE
  5
11CE
330
1F
100
AcDbEntity
  8
0
  6
BYBLOCK
100
AcDbFace
 10
-29.12
 20
0.0
 30
0.0
 11
-19.41
 21
0.0
 31
0.0
 12
-19.41
 22
0.0
 32
2.03
 13
-29.12
 23
0.0
 33
2.03
  0
3DFACE
  5
11CF
330
1F
100
AcDbEntity
  8
0
  6
BYBLOCK
100
AcDbFace
 10
-29.12
 20
0.0
 30
0.0
 11
-29.12
 21
0.0
 31
61.05
 12
-31.06
 22
0.0
 32
61.05
 13
-31.06
 23
0.0
 33
0.0
  0
3DFACE
  5
11D1
330
1F
100
AcDbEntity
  8
0
  6
BYBLOCK
100
AcDbFace
 10
-29.12
 20
0.0
 30
59.01
 11
-19.41
 21
0.0
 31
59.01
 12
-19.41
 22
0.0
 32
61.05
 13
-29.12
 23
0.0
 33
61.05
  0
ENDSEC
  0
SECTION
  2
OBJECTS
  0
DICTIONARY
  5
C
330
0
100
AcDbDictionary
  3
ACAD_COLOR
350
6C
  3
ACAD_GROUP
350
D
  3
ACAD_LAYOUT
350
1A
  3
ACAD_MATERIAL
350
6B
  3
ACAD_MLINESTYLE
350
17
  3
ACAD_PLOTSETTINGS
350
19
  3
ACAD_TABLESTYLE
350
92
  3
ACDBHEADERROUNDTRIPXREC
350
11D4
  3
ACDBVARIABLEDICTIONARY
350
59
  3
DWGPROPS
350
11F6
  0
DICTIONARY
  5
6C
102
{ACAD_REACTORS
330
C
102
}
330
C
100
AcDbDictionary
  0
DICTIONARY
  5
D
102
{ACAD_REACTORS
330
C
102
}
330
C
100
AcDbDictionary
  0
DICTIONARY
  5
1A
102
{ACAD_REACTORS
330
C
102
}
330
C
100
AcDbDictionary
  0
DICTIONARY
  5
6B
102
{ACAD_REACTORS
330
C
102
}
330
C
100
AcDbDictionary
  0
DICTIONARY
  5
17
102
{ACAD_REACTORS
330
C
102
}
330
C
100
AcDbDictionary
  3
STANDARD
350
18
  0
DICTIONARY
  5
19
102
{ACAD_REACTORS
330
C
102
}
330
C
100
AcDbDictionary
  0
DICTIONARY
  5
92
102
{ACAD_REACTORS
330
C
102
}
330
C
100
AcDbDictionary
  0
DICTIONARY
  5
11D4
102
{ACAD_REACTORS
330
C
102
}
330
C
100
AcDbDictionary
  3
CEPSNTYPE
350
11DD
  3
COLORDICT
350
11F4
  3
DIMSTYLEDATA
350
11F3
  3
FINGERPRINTGUID
350
11DE
  3
HYPERLINKBASE
350
11D7
  3
INSUNITS
350
11DC
  3
LAYOUTDICT
350
11D9
  3
LWETCUNION
350
11DB
  3
MATERIALDICT
350
11F5
  3
PLOTSETDICT
350
11DA
  3
PSVPSCALE
350
11E0
  3
PUCSBASE
350
11E3
  3
PUCSORGBACK
350
11E9
  3
PUCSORGBOTTOM
350
11E5
  3
PUCSORGFRONT
350
11E8
  3
PUCSORGLEFT
350
11E6
  3
PUCSORGRIGHT
350
11E7
  3
PUCSORGTOP
350
11E4
  3
PUCSORTHOREF
350
11E1
  3
PUCSORTHOVIEW
350
11E2
  3
STYLESHEET
350
11D8
  3
TSTACKALIGN
350
11D5
  3
TSTACKSIZE
350
11D6
  3
UCSBASE
350
11EC
  3
UCSORGBACK
350
11F2
  3
UCSORGBOTTOM
350
11EE
  3
UCSORGFRONT
350
11F1
  3
UCSORGLEFT
350
11EF
  3
UCSORGRIGHT
350
11F0
  3
UCSORGTOP
350
11ED
  3
UCSORTHOREF
350
11EA
  3
UCSORTHOVIEW
350
11EB
  3
VERSIONGUID
350
11DF
  0
DICTIONARY
  5
59
102
{ACAD_REACTORS
330
C
102
}
330
C
100
AcDbDictionary
  3
CTABLESTYLE
350
98
  3
DIMASSOC
350
11A0
  3
HALOGAP
350
11A1
  3
HIDETEXT
350
11A4
  3
INDEXCTL
350
11A2
  3
XCLIPFRAME
350
11A3
  0
XRECORD
  5
11F6
102
{ACAD_REACTORS
330
C
102
}
330
C
100
AcDbXrecord
  1
DWGPROPS COOKIE
  2

  3

  4

  6

  7

  8
fottrem
  9

300
=
301
=
302
=
303
=
304
=
305
=
306
=
307
=
308
=
309
=
 40
0.0
 41
2456563.497835822
 42
2456563.497835822
  1

 90
        0
  0
MLINESTYLE
  5
18
102
{ACAD_REACTORS
330
17
102
}
330
17
100
AcDbMlineStyle
  2
STANDARD
 70
     0
  3

 62
   256
 51
90.0
 52
90.0
 71
     2
 49
0.5
 62
   256
  6
BYLAYER
 49
-0.5
 62
   256
  6
BYLAYER
  0
XRECORD
  5
11DD
102
{ACAD_REACTORS
330
11D4
102
}
330
11D4
100
AcDbXrecord
 90
        0
  0
XRECORD
  5
11F4
102
{ACAD_REACTORS
330
11D4
102
}
330
11D4
100
AcDbXrecord
340
6C
  0
XRECORD
  5
11F3
102
{ACAD_REACTORS
330
11D4
102
}
330
11D4
100
AcDbXrecord
1000
DSTYLE
1002
{
1070
   340
340
11
1002
}
  0
XRECORD
  5
11DE
102
{ACAD_REACTORS
330
11D4
102
}
330
11D4
100
AcDbXrecord
  1
{BA1F4078-3130-405E-957B-281D683108F2}
  0
XRECORD
  5
11D7
102
{ACAD_REACTORS
330
11D4
102
}
330
11D4
100
AcDbXrecord
  1

  0
XRECORD
  5
11DC
102
{ACAD_REACTORS
330
11D4
102
}
330
11D4
100
AcDbXrecord
 90
        0
  0
XRECORD
  5
11D9
102
{ACAD_REACTORS
330
11D4
102
}
330
11D4
100
AcDbXrecord
340
1A
  0
XRECORD
  5
11DB
102
{ACAD_REACTORS
330
11D4
102
}
330
11D4
100
AcDbXrecord
 90
    10781
  0
XRECORD
  5
11F5
102
{ACAD_REACTORS
330
11D4
102
}
330
11D4
100
AcDbXrecord
340
6B
  0
XRECORD
  5
11DA
102
{ACAD_REACTORS
330
11D4
102
}
330
11D4
100
AcDbXrecord
340
19
  0
XRECORD
  5
11E0
102
{ACAD_REACTORS
330
11D4
102
}
330
11D4
100
AcDbXrecord
 40
0.0
  0
XRECORD
  5
11E3
102
{ACAD_REACTORS
330
11D4
102
}
330
11D4
100
AcDbXrecord
340
0
  0
XRECORD
  5
11E9
102
{ACAD_REACTORS
330
11D4
102
}
330
11D4
100
AcDbXrecord
 10
0.0
 20
0.0
 30
0.0
  0
XRECORD
  5
11E5
102
{ACAD_REACTORS
330
11D4
102
}
330
11D4
100
AcDbXrecord
 10
0.0
 20
0.0
 30
0.0
  0
XRECORD
  5
11E8
102
{ACAD_REACTORS
330
11D4
102
}
330
11D4
100
AcDbXrecord
 10
0.0
 20
0.0
 30
0.0
  0
XRECORD
  5
11E6
102
{ACAD_REACTORS
330
11D4
102
}
330
11D4
100
AcDbXrecord
 10
0.0
 20
0.0
 30
0.0
  0
XRECORD
  5
11E7
102
{ACAD_REACTORS
330
11D4
102
}
330
11D4
100
AcDbXrecord
 10
0.0
 20
0.0
 30
0.0
  0
XRECORD
  5
11E4
102
{ACAD_REACTORS
330
11D4
102
}
330
11D4
100
AcDbXrecord
 10
0.0
 20
0.0
 30
0.0
  0
XRECORD
  5
11E1
102
{ACAD_REACTORS
330
11D4
102
}
330
11D4
100
AcDbXrecord
340
0
  0
XRECORD
  5
11E2
102
{ACAD_REACTORS
330
11D4
102
}
330
11D4
100
AcDbXrecord
 70
     0
  0
XRECORD
  5
11D8
102
{ACAD_REACTORS
330
11D4
102
}
330
11D4
100
AcDbXrecord
  1

  0
XRECORD
  5
11D5
102
{ACAD_REACTORS
330
11D4
102
}
330
11D4
100
AcDbXrecord
 90
        1
  0
XRECORD
  5
11D6
102
{ACAD_REACTORS
330
11D4
102
}
330
11D4
100
AcDbXrecord
 90
       70
  0
XRECORD
  5
11EC
102
{ACAD_REACTORS
330
11D4
102
}
330
11D4
100
AcDbXrecord
340
0
  0
XRECORD
  5
11F2
102
{ACAD_REACTORS
330
11D4
102
}
330
11D4
100
AcDbXrecord
 10
0.0
 20
0.0
 30
0.0
  0
XRECORD
  5
11EE
102
{ACAD_REACTORS
330
11D4
102
}
330
11D4
100
AcDbXrecord
 10
0.0
 20
0.0
 30
0.0
  0
XRECORD
  5
11F1
102
{ACAD_REACTORS
330
11D4
102
}
330
11D4
100
AcDbXrecord
 10
0.0
 20
0.0
 30
0.0
  0
XRECORD
  5
11EF
102
{ACAD_REACTORS
330
11D4
102
}
330
11D4
100
AcDbXrecord
 10
0.0
 20
0.0
 30
0.0
  0
XRECORD
  5
11F0
102
{ACAD_REACTORS
330
11D4
102
}
330
11D4
100
AcDbXrecord
 10
0.0
 20
0.0
 30
0.0
  0
XRECORD
  5
11ED
102
{ACAD_REACTORS
330
11D4
102
}
330
11D4
100
AcDbXrecord
 10
0.0
 20
0.0
 30
0.0
  0
XRECORD
  5
11EA
102
{ACAD_REACTORS
330
11D4
102
}
330
11D4
100
AcDbXrecord
340
0
  0
XRECORD
  5
11EB
102
{ACAD_REACTORS
330
11D4
102
}
330
11D4
100
AcDbXrecord
 70
     0
  0
XRECORD
  5
11DF
102
{ACAD_REACTORS
330
11D4
102
}
330
11D4
100
AcDbXrecord
  1
{FAEB1C32-E019-11D5-929B-00C0DF256EC4}
  0
DICTIONARYVAR
  5
98
102
{ACAD_REACTORS
330
59
102
}
330
59
100
DictionaryVariables
280
     0
  1
Standard
  0
DICTIONARYVAR
  5
11A0
102
{ACAD_REACTORS
330
59
102
}
330
59
100
DictionaryVariables
280
     0
  1
2
  0
DICTIONARYVAR
  5
11A1
102
{ACAD_REACTORS
330
59
102
}
330
59
100
DictionaryVariables
280
     0
  1
0
  0
DICTIONARYVAR
  5
11A4
102
{ACAD_REACTORS
330
59
102
}
330
59
100
DictionaryVariables
280
     0
  1
1
  0
DICTIONARYVAR
  5
11A2
102
{ACAD_REACTORS
330
59
102
}
330
59
100
DictionaryVariables
280
     0
  1
0
  0
DICTIONARYVAR
  5
11A3
102
{ACAD_REACTORS
330
59
102
}
330
59
100
DictionaryVariables
280
     0
  1
0
  0
ENDSEC
  0
EOF
