0
SECTION
2
HEADER
9
$ACADVER
1
AC1009
0
ENDSEC
0
SECTION
2
TABLES
0
TABLE
2
LAYER
70
1
0
LAYER
2
ACESSORIO
70
0
62
9
6
CONTINUOUS
0
ENDTAB
0
ENDSEC
0
SECTION
2
ENTITIES
0
3DFACE
8
ACESSORIO
10
1000.000000000000000
20
-5.000000000000000
30
9.000000000000000
11
1000.000000000000000
21
-0.000000000000060
31
9.000000000000000
12
1000.000000000000000
22
-0.000000000000060
32
9.000000000000000
13
1000.000000000000000
23
-5.000000000000000
33
9.000000000000000
0
3DFACE
8
ACESSORIO
10
1000.000000000000000
20
-0.000000000000060
30
9.000000000000000
11
1000.000000000000000
21
-0.000000000000060
31
9.000000000000000
12
0.000000000000001
22
0.000000000000000
32
9.000000000000000
13
1000.000000000000000
23
-0.000000000000060
33
9.000000000000000
0
3DFACE
8
ACESSORIO
10
0.000000000000001
20
-5.000000000000000
30
10.000000000000000
11
0.000000000000001
21
-5.000000000000000
31
9.000000000000000
12
0.000000000000001
22
-5.000000000000000
32
10.000000000000000
13
0.000000000000001
23
-5.000000000000000
33
10.000000000000000
0
3DFACE
8
ACESSORIO
10
0.000000000000001
20
-5.000000000000000
30
10.000000000000000
11
0.000000000000001
21
0.000000000000000
31
10.000000000000000
12
0.000000000000001
22
0.000000000000000
32
10.000000000000000
13
0.000000000000001
23
-5.000000000000000
33
10.000000000000000
0
3DFACE
8
ACESSORIO
10
1000.000000000000000
20
-6.000000000000000
30
10.000000000000000
11
1000.000000000000000
21
-6.000000000000000
31
0.000000000000000
12
1000.000000000000000
22
-6.000000000000000
32
0.000000000000000
13
1000.000000000000000
23
-6.000000000000000
33
10.000000000000000
0
3DFACE
8
ACESSORIO
10
1000.000000000000000
20
-6.000000000000000
30
0.000000000000000
11
1000.000000000000000
21
-6.000000000000000
31
0.000000000000000
12
0.000000000000001
22
-6.000000000000000
32
0.000000000000000
13
1000.000000000000000
23
-6.000000000000000
33
0.000000000000000
0
3DFACE
8
ACESSORIO
10
0.000000000000001
20
-5.000000000000000
30
10.000000000000000
11
0.000000000000001
21
-6.000000000000000
31
10.000000000000000
12
0.000000000000001
22
-5.000000000000000
32
10.000000000000000
13
0.000000000000001
23
-5.000000000000000
33
10.000000000000000
0
3DFACE
8
ACESSORIO
10
0.000000000000001
20
-5.000000000000000
30
10.000000000000000
11
0.000000000000001
21
-5.000000000000000
31
0.000000000000000
12
0.000000000000001
22
-5.000000000000000
32
0.000000000000000
13
0.000000000000001
23
-5.000000000000000
33
10.000000000000000
0
3DFACE
8
ACESSORIO
10
1000.000000000000000
20
-17.000000000000000
30
9.000000000000000
11
1000.000000000000000
21
-22.000000000000000
31
9.000000000000000
12
1000.000000000000000
22
-22.000000000000000
32
9.000000000000000
13
1000.000000000000000
23
-17.000000000000000
33
9.000000000000000
0
3DFACE
8
ACESSORIO
10
1000.000000000000000
20
-22.000000000000000
30
9.000000000000000
11
1000.000000000000000
21
-22.000000000000000
31
9.000000000000000
12
0.000000000000000
22
-22.000000000000000
32
9.000000000000000
13
1000.000000000000000
23
-22.000000000000000
33
9.000000000000000
0
3DFACE
8
ACESSORIO
10
0.000000000000000
20
-17.000000000000000
30
10.000000000000000
11
0.000000000000000
21
-17.000000000000000
31
9.000000000000000
12
0.000000000000000
22
-17.000000000000000
32
10.000000000000000
13
0.000000000000000
23
-17.000000000000000
33
10.000000000000000
0
3DFACE
8
ACESSORIO
10
0.000000000000000
20
-17.000000000000000
30
10.000000000000000
11
0.000000000000000
21
-22.000000000000000
31
10.000000000000000
12
0.000000000000000
22
-22.000000000000000
32
10.000000000000000
13
0.000000000000000
23
-17.000000000000000
33
10.000000000000000
0
3DFACE
8
ACESSORIO
10
1000.000000000000000
20
-16.000000000000000
30
10.000000000000000
11
1000.000000000000000
21
-16.000000000000000
31
0.000000000000000
12
1000.000000000000000
22
-16.000000000000000
32
0.000000000000000
13
1000.000000000000000
23
-16.000000000000000
33
10.000000000000000
0
3DFACE
8
ACESSORIO
10
1000.000000000000000
20
-16.000000000000000
30
0.000000000000000
11
1000.000000000000000
21
-16.000000000000000
31
0.000000000000000
12
0.000000000000000
22
-16.000000000000000
32
0.000000000000000
13
1000.000000000000000
23
-16.000000000000000
33
0.000000000000000
0
3DFACE
8
ACESSORIO
10
0.000000000000000
20
-17.000000000000000
30
10.000000000000000
11
0.000000000000000
21
-16.000000000000000
31
10.000000000000000
12
0.000000000000000
22
-17.000000000000000
32
10.000000000000000
13
0.000000000000000
23
-17.000000000000000
33
10.000000000000000
0
3DFACE
8
ACESSORIO
10
0.000000000000000
20
-17.000000000000000
30
10.000000000000000
11
0.000000000000000
21
-17.000000000000000
31
0.000000000000000
12
0.000000000000000
22
-17.000000000000000
32
0.000000000000000
13
0.000000000000000
23
-17.000000000000000
33
10.000000000000000
0
3DFACE
8
ACESSORIO
10
1000.000000000000000
20
-6.000000000000000
30
0.000000000000000
11
1000.000000000000000
21
-16.000000000000000
31
0.000000000000000
12
1000.000000000000000
22
-16.000000000000000
32
0.000000000000000
13
1000.000000000000000
23
-6.000000000000000
33
0.000000000000000
0
3DFACE
8
ACESSORIO
10
1000.000000000000000
20
-16.000000000000000
30
0.000000000000000
11
1000.000000000000000
21
-16.000000000000000
31
0.000000000000000
12
0.000000000000000
22
-16.000000000000000
32
0.000000000000000
13
1000.000000000000000
23
-16.000000000000000
33
0.000000000000000
0
3DFACE
8
ACESSORIO
10
0.000000000000001
20
-6.000000000000000
30
1.000000000000000
11
0.000000000000001
21
-6.000000000000000
31
0.000000000000000
12
0.000000000000001
22
-6.000000000000000
32
1.000000000000000
13
0.000000000000001
23
-6.000000000000000
33
1.000000000000000
0
3DFACE
8
ACESSORIO
10
0.000000000000001
20
-6.000000000000000
30
1.000000000000000
11
0.000000000000000
21
-16.000000000000000
31
1.000000000000000
12
0.000000000000000
22
-16.000000000000000
32
1.000000000000000
13
0.000000000000001
23
-6.000000000000000
33
1.000000000000000
0
3DFACE
8
ACESSORIO
10
1000.000000000000000
20
-5.000000000000000
30
10.000000000000000
11
1000.000000000000000
21
-5.000000000000000
31
9.000000000000000
12
1000.000000000000000
22
-0.000000000000060
32
9.000000000000000
13
1000.000000000000000
23
-0.000000000000060
33
10.000000000000000
0
3DFACE
8
ACESSORIO
10
1000.000000000000000
20
-0.000000000000060
30
10.000000000000000
11
1000.000000000000000
21
-0.000000000000060
31
9.000000000000000
12
0.000000000000001
22
0.000000000000000
32
9.000000000000000
13
0.000000000000001
23
0.000000000000000
33
10.000000000000000
0
3DFACE
8
ACESSORIO
10
0.000000000000001
20
0.000000000000000
30
10.000000000000000
11
0.000000000000001
21
0.000000000000000
31
9.000000000000000
12
0.000000000000001
22
-5.000000000000000
32
9.000000000000000
13
0.000000000000001
23
-5.000000000000000
33
10.000000000000000
0
3DFACE
8
ACESSORIO
10
0.000000000000001
20
0.000000000000000
30
9.000000000000000
11
1000.000000000000000
21
-0.000000000000060
31
9.000000000000000
12
1000.000000000000000
22
-5.000000000000000
32
9.000000000000000
13
0.000000000000001
23
-5.000000000000000
33
9.000000000000000
0
3DFACE
8
ACESSORIO
10
0.000000000000001
20
-5.000000000000000
30
9.000000000000000
11
1000.000000000000000
21
-5.000000000000000
31
9.000000000000000
12
1000.000000000000000
22
-5.000000000000000
32
10.000000000000000
13
0.000000000000001
23
-5.000000000000000
33
10.000000000000000
0
3DFACE
8
ACESSORIO
10
0.000000000000001
20
-5.000000000000000
30
10.000000000000000
11
1000.000000000000000
21
-5.000000000000000
31
10.000000000000000
12
1000.000000000000000
22
-0.000000000000060
32
10.000000000000000
13
0.000000000000001
23
0.000000000000000
33
10.000000000000000
0
3DFACE
8
ACESSORIO
10
1000.000000000000000
20
-5.000000000000000
30
10.000000000000000
11
1000.000000000000000
21
-6.000000000000000
31
10.000000000000000
12
1000.000000000000000
22
-6.000000000000000
32
0.000000000000000
13
1000.000000000000000
23
-5.000000000000000
33
0.000000000000000
0
3DFACE
8
ACESSORIO
10
1000.000000000000000
20
-5.000000000000000
30
0.000000000000000
11
1000.000000000000000
21
-6.000000000000000
31
0.000000000000000
12
0.000000000000001
22
-6.000000000000000
32
0.000000000000000
13
0.000000000000001
23
-5.000000000000000
33
0.000000000000000
0
3DFACE
8
ACESSORIO
10
0.000000000000001
20
-5.000000000000000
30
0.000000000000000
11
0.000000000000001
21
-6.000000000000000
31
0.000000000000000
12
0.000000000000001
22
-6.000000000000000
32
10.000000000000000
13
0.000000000000001
23
-5.000000000000000
33
10.000000000000000
0
3DFACE
8
ACESSORIO
10
0.000000000000001
20
-6.000000000000000
30
0.000000000000000
11
1000.000000000000000
21
-6.000000000000000
31
0.000000000000000
12
1000.000000000000000
22
-6.000000000000000
32
10.000000000000000
13
0.000000000000001
23
-6.000000000000000
33
10.000000000000000
0
3DFACE
8
ACESSORIO
10
0.000000000000001
20
-6.000000000000000
30
10.000000000000000
11
1000.000000000000000
21
-6.000000000000000
31
10.000000000000000
12
1000.000000000000000
22
-5.000000000000000
32
10.000000000000000
13
0.000000000000001
23
-5.000000000000000
33
10.000000000000000
0
3DFACE
8
ACESSORIO
10
0.000000000000001
20
-5.000000000000000
30
10.000000000000000
11
1000.000000000000000
21
-5.000000000000000
31
10.000000000000000
12
1000.000000000000000
22
-5.000000000000000
32
0.000000000000000
13
0.000000000000001
23
-5.000000000000000
33
0.000000000000000
0
3DFACE
8
ACESSORIO
10
1000.000000000000000
20
-17.000000000000000
30
10.000000000000000
11
1000.000000000000000
21
-17.000000000000000
31
9.000000000000000
12
1000.000000000000000
22
-22.000000000000000
32
9.000000000000000
13
1000.000000000000000
23
-22.000000000000000
33
10.000000000000000
0
3DFACE
8
ACESSORIO
10
1000.000000000000000
20
-22.000000000000000
30
10.000000000000000
11
1000.000000000000000
21
-22.000000000000000
31
9.000000000000000
12
0.000000000000000
22
-22.000000000000000
32
9.000000000000000
13
0.000000000000000
23
-22.000000000000000
33
10.000000000000000
0
3DFACE
8
ACESSORIO
10
0.000000000000000
20
-22.000000000000000
30
10.000000000000000
11
0.000000000000000
21
-22.000000000000000
31
9.000000000000000
12
0.000000000000000
22
-17.000000000000000
32
9.000000000000000
13
0.000000000000000
23
-17.000000000000000
33
10.000000000000000
0
3DFACE
8
ACESSORIO
10
0.000000000000000
20
-22.000000000000000
30
9.000000000000000
11
1000.000000000000000
21
-22.000000000000000
31
9.000000000000000
12
1000.000000000000000
22
-17.000000000000000
32
9.000000000000000
13
0.000000000000000
23
-17.000000000000000
33
9.000000000000000
0
3DFACE
8
ACESSORIO
10
0.000000000000000
20
-17.000000000000000
30
9.000000000000000
11
1000.000000000000000
21
-17.000000000000000
31
9.000000000000000
12
1000.000000000000000
22
-17.000000000000000
32
10.000000000000000
13
0.000000000000000
23
-17.000000000000000
33
10.000000000000000
0
3DFACE
8
ACESSORIO
10
0.000000000000000
20
-17.000000000000000
30
10.000000000000000
11
1000.000000000000000
21
-17.000000000000000
31
10.000000000000000
12
1000.000000000000000
22
-22.000000000000000
32
10.000000000000000
13
0.000000000000000
23
-22.000000000000000
33
10.000000000000000
0
3DFACE
8
ACESSORIO
10
1000.000000000000000
20
-17.000000000000000
30
10.000000000000000
11
1000.000000000000000
21
-16.000000000000000
31
10.000000000000000
12
1000.000000000000000
22
-16.000000000000000
32
0.000000000000000
13
1000.000000000000000
23
-17.000000000000000
33
0.000000000000000
0
3DFACE
8
ACESSORIO
10
1000.000000000000000
20
-17.000000000000000
30
0.000000000000000
11
1000.000000000000000
21
-16.000000000000000
31
0.000000000000000
12
0.000000000000000
22
-16.000000000000000
32
0.000000000000000
13
0.000000000000000
23
-17.000000000000000
33
0.000000000000000
0
3DFACE
8
ACESSORIO
10
0.000000000000000
20
-17.000000000000000
30
0.000000000000000
11
0.000000000000000
21
-16.000000000000000
31
0.000000000000000
12
0.000000000000000
22
-16.000000000000000
32
10.000000000000000
13
0.000000000000000
23
-17.000000000000000
33
10.000000000000000
0
3DFACE
8
ACESSORIO
10
0.000000000000000
20
-16.000000000000000
30
0.000000000000000
11
1000.000000000000000
21
-16.000000000000000
31
0.000000000000000
12
1000.000000000000000
22
-16.000000000000000
32
10.000000000000000
13
0.000000000000000
23
-16.000000000000000
33
10.000000000000000
0
3DFACE
8
ACESSORIO
10
0.000000000000000
20
-16.000000000000000
30
10.000000000000000
11
1000.000000000000000
21
-16.000000000000000
31
10.000000000000000
12
1000.000000000000000
22
-17.000000000000000
32
10.000000000000000
13
0.000000000000000
23
-17.000000000000000
33
10.000000000000000
0
3DFACE
8
ACESSORIO
10
0.000000000000000
20
-17.000000000000000
30
10.000000000000000
11
1000.000000000000000
21
-17.000000000000000
31
10.000000000000000
12
1000.000000000000000
22
-17.000000000000000
32
0.000000000000000
13
0.000000000000000
23
-17.000000000000000
33
0.000000000000000
0
3DFACE
8
ACESSORIO
10
1000.000000000000000
20
-6.000000000000000
30
1.000000000000000
11
1000.000000000000000
21
-6.000000000000000
31
0.000000000000000
12
1000.000000000000000
22
-16.000000000000000
32
0.000000000000000
13
1000.000000000000000
23
-16.000000000000000
33
1.000000000000000
0
3DFACE
8
ACESSORIO
10
1000.000000000000000
20
-16.000000000000000
30
1.000000000000000
11
1000.000000000000000
21
-16.000000000000000
31
0.000000000000000
12
0.000000000000000
22
-16.000000000000000
32
0.000000000000000
13
0.000000000000000
23
-16.000000000000000
33
1.000000000000000
0
3DFACE
8
ACESSORIO
10
0.000000000000000
20
-16.000000000000000
30
1.000000000000000
11
0.000000000000000
21
-16.000000000000000
31
0.000000000000000
12
0.000000000000001
22
-6.000000000000000
32
0.000000000000000
13
0.000000000000001
23
-6.000000000000000
33
1.000000000000000
0
3DFACE
8
ACESSORIO
10
0.000000000000000
20
-16.000000000000000
30
0.000000000000000
11
1000.000000000000000
21
-16.000000000000000
31
0.000000000000000
12
1000.000000000000000
22
-6.000000000000000
32
0.000000000000000
13
0.000000000000001
23
-6.000000000000000
33
0.000000000000000
0
3DFACE
8
ACESSORIO
10
0.000000000000001
20
-6.000000000000000
30
0.000000000000000
11
1000.000000000000000
21
-6.000000000000000
31
0.000000000000000
12
1000.000000000000000
22
-6.000000000000000
32
1.000000000000000
13
0.000000000000001
23
-6.000000000000000
33
1.000000000000000
0
3DFACE
8
ACESSORIO
10
0.000000000000001
20
-6.000000000000000
30
1.000000000000000
11
1000.000000000000000
21
-6.000000000000000
31
1.000000000000000
12
1000.000000000000000
22
-16.000000000000000
32
1.000000000000000
13
0.000000000000000
23
-16.000000000000000
33
1.000000000000000
0
ENDSEC
0
EOF
