0
SECTION
2
HEADER
9
$ACADVER
1
AC1009
0
ENDSEC
0
SECTION
2
TABLES
0
TABLE
2
LAYER
70
2
0
LAYER
2
ACESSORIO
70
0
62
254
6
CONTINUOUS
0
LAYER
2
CROMADO
70
0
62
251
6
CONTINUOUS
0
ENDTAB
0
ENDSEC
0
SECTION
2
ENTITIES
0
3DFACE
8
ACESSORIO
10
122
20
-103.2871
30
1
11
122
21
-103.2871
31
0
12
122
22
-103.2871
32
0
13
122
23
-103.2871
33
1
0
3DFACE
8
ACESSORIO
10
122
20
-103.2871
30
0
11
122
21
-103.2871
31
0
12
122
22
-10.49765
32
0
13
122
23
-103.2871
33
0
0
3DFACE
8
ACESSORIO
10
116
20
-10.49765
30
1
11
122
21
-10.49765
31
1
12
116
22
-10.49765
32
1
13
116
23
-10.49765
33
1
0
3DFACE
8
ACESSORIO
10
116
20
-10.49765
30
1
11
116
21
-10.49765
31
0
12
116
22
-10.49765
32
0
13
116
23
-10.49765
33
1
0
3DFACE
8
ACESSORIO
10
122
20
-103.2871
30
29
11
122
21
-103.2871
31
30
12
122
22
-103.2871
32
30
13
122
23
-103.2871
33
29
0
3DFACE
8
ACESSORIO
10
122
20
-103.2871
30
30
11
122
21
-103.2871
31
30
12
122
22
-10.49765
32
30
13
122
23
-103.2871
33
30
0
3DFACE
8
ACESSORIO
10
116
20
-10.49765
30
29
11
122
21
-10.49765
31
29
12
116
22
-10.49765
32
29
13
116
23
-10.49765
33
29
0
3DFACE
8
ACESSORIO
10
116
20
-10.49765
30
29
11
116
21
-10.49765
31
30
12
116
22
-10.49765
32
30
13
116
23
-10.49765
33
29
0
3DFACE
8
ACESSORIO
10
115
20
-103.2871
30
0
11
116
21
-103.2871
31
0
12
116
22
-103.2871
32
0
13
115
23
-103.2871
33
0
0
3DFACE
8
ACESSORIO
10
116
20
-103.2871
30
0
11
116
21
-103.2871
31
0
12
116
22
-10.49765
32
0
13
116
23
-103.2871
33
0
0
3DFACE
8
ACESSORIO
10
115
20
-10.49765
30
30
11
115
21
-10.49765
31
0
12
115
22
-10.49765
32
30
13
115
23
-10.49765
33
30
0
3DFACE
8
ACESSORIO
10
115
20
-10.49765
30
30
11
116
21
-10.49765
31
30
12
116
22
-10.49765
32
30
13
115
23
-10.49765
33
30
0
3DFACE
8
ACESSORIO
10
111.598
20
-59.67876
30
13.03585
11
113.866
21
-59.67876
31
13.03585
12
115
22
-59.67876
32
15
13
110.464
23
-59.67876
33
15
70
4
0
3DFACE
8
ACESSORIO
10
115
20
-59.67876
30
15
11
110.464
21
-59.67876
31
15
12
111.598
22
-59.67876
32
16.96414
13
113.866
23
-59.67876
33
16.96414
70
1
0
3DFACE
8
ACESSORIO
10
116
20
-103.2871
30
1
11
122
21
-103.2871
31
1
12
122
22
-103.2871
32
0
13
116
23
-103.2871
33
0
0
3DFACE
8
ACESSORIO
10
116
20
-103.2871
30
0
11
122
21
-103.2871
31
0
12
122
22
-10.49765
32
0
13
116
23
-10.49765
33
0
0
3DFACE
8
ACESSORIO
10
116
20
-10.49765
30
0
11
122
21
-10.49765
31
0
12
122
22
-10.49765
32
1
13
116
23
-10.49765
33
1
0
3DFACE
8
ACESSORIO
10
122
20
-10.49765
30
0
11
122
21
-103.2871
31
0
12
122
22
-103.2871
32
1
13
122
23
-10.49765
33
1
0
3DFACE
8
ACESSORIO
10
122
20
-10.49765
30
1
11
122
21
-103.2871
31
1
12
116
22
-103.2871
32
1
13
116
23
-10.49765
33
1
0
3DFACE
8
ACESSORIO
10
116
20
-10.49765
30
1
11
116
21
-103.2871
31
1
12
116
22
-103.2871
32
0
13
116
23
-10.49765
33
0
0
3DFACE
8
ACESSORIO
10
116
20
-103.2871
30
29
11
122
21
-103.2871
31
29
12
122
22
-103.2871
32
30
13
116
23
-103.2871
33
30
0
3DFACE
8
ACESSORIO
10
116
20
-103.2871
30
30
11
122
21
-103.2871
31
30
12
122
22
-10.49765
32
30
13
116
23
-10.49765
33
30
0
3DFACE
8
ACESSORIO
10
116
20
-10.49765
30
30
11
122
21
-10.49765
31
30
12
122
22
-10.49765
32
29
13
116
23
-10.49765
33
29
0
3DFACE
8
ACESSORIO
10
122
20
-10.49765
30
30
11
122
21
-103.2871
31
30
12
122
22
-103.2871
32
29
13
122
23
-10.49765
33
29
0
3DFACE
8
ACESSORIO
10
122
20
-10.49765
30
29
11
122
21
-103.2871
31
29
12
116
22
-103.2871
32
29
13
116
23
-10.49765
33
29
0
3DFACE
8
ACESSORIO
10
116
20
-10.49765
30
29
11
116
21
-103.2871
31
29
12
116
22
-103.2871
32
30
13
116
23
-10.49765
33
30
0
3DFACE
8
ACESSORIO
10
115
20
-103.2871
30
30
11
115
21
-103.2871
31
0
12
116
22
-103.2871
32
0
13
116
23
-103.2871
33
30
0
3DFACE
8
ACESSORIO
10
116
20
-103.2871
30
30
11
116
21
-103.2871
31
0
12
116
22
-10.49765
32
0
13
116
23
-10.49765
33
30
0
3DFACE
8
ACESSORIO
10
116
20
-10.49765
30
30
11
116
21
-10.49765
31
0
12
115
22
-10.49765
32
0
13
115
23
-10.49765
33
30
0
3DFACE
8
ACESSORIO
10
116
20
-10.49765
30
0
11
116
21
-103.2871
31
0
12
115
22
-103.2871
32
0
13
115
23
-10.49765
33
0
0
3DFACE
8
ACESSORIO
10
115
20
-10.49765
30
0
11
115
21
-103.2871
31
0
12
115
22
-103.2871
32
30
13
115
23
-10.49765
33
30
0
3DFACE
8
ACESSORIO
10
115
20
-10.49765
30
30
11
115
21
-103.2871
31
30
12
116
22
-103.2871
32
30
13
116
23
-10.49765
33
30
0
POLYLINE
8
ACESSORIO
66
1
70
48
71
2
72
6
0
VERTEX
8
ACESSORIO
10
38.49055
20
-4.536
30
15
70
64
0
VERTEX
8
ACESSORIO
10
39.62455
20
-4.536
30
13.03585
70
64
0
VERTEX
8
ACESSORIO
10
41.89255
20
-4.536
30
13.03585
70
64
0
VERTEX
8
ACESSORIO
10
43.02655
20
-4.536
30
15
70
64
0
VERTEX
8
ACESSORIO
10
41.89255
20
-4.536
30
16.96414
70
64
0
VERTEX
8
ACESSORIO
10
39.62455
20
-4.536
30
16.96414
70
64
0
VERTEX
8
ACESSORIO
10
38.49055
20
-381.76
30
15
70
64
0
VERTEX
8
ACESSORIO
10
39.62455
20
-381.76
30
13.03585
70
64
0
VERTEX
8
ACESSORIO
10
41.89255
20
-381.76
30
13.03585
70
64
0
VERTEX
8
ACESSORIO
10
43.02655
20
-381.76
30
15
70
64
0
VERTEX
8
ACESSORIO
10
41.89255
20
-381.76
30
16.96414
70
64
0
VERTEX
8
ACESSORIO
10
39.62455
20
-381.76
30
16.96414
70
64
0
SEQEND
0
POLYLINE
8
ACESSORIO
66
1
70
48
71
2
72
6
0
VERTEX
8
ACESSORIO
10
75.57858
20
-4.536
30
15
70
64
0
VERTEX
8
ACESSORIO
10
76.71256
20
-4.536
30
13.03585
70
64
0
VERTEX
8
ACESSORIO
10
78.98058
20
-4.536
30
13.03585
70
64
0
VERTEX
8
ACESSORIO
10
80.11456
20
-4.536
30
15
70
64
0
VERTEX
8
ACESSORIO
10
78.98058
20
-4.536
30
16.96414
70
64
0
VERTEX
8
ACESSORIO
10
76.71256
20
-4.536
30
16.96414
70
64
0
VERTEX
8
ACESSORIO
10
75.57858
20
-381.76
30
15
70
64
0
VERTEX
8
ACESSORIO
10
76.71256
20
-381.76
30
13.03585
70
64
0
VERTEX
8
ACESSORIO
10
78.98058
20
-381.76
30
13.03585
70
64
0
VERTEX
8
ACESSORIO
10
80.11456
20
-381.76
30
15
70
64
0
VERTEX
8
ACESSORIO
10
78.98058
20
-381.76
30
16.96414
70
64
0
VERTEX
8
ACESSORIO
10
76.71256
20
-381.76
30
16.96414
70
64
0
SEQEND
0
POLYLINE
8
ACESSORIO
66
1
70
48
71
2
72
6
0
VERTEX
8
ACESSORIO
10
0.9719996
20
-4.67856
30
15
70
64
0
VERTEX
8
ACESSORIO
10
2.106
20
-4.67856
30
13.03585
70
64
0
VERTEX
8
ACESSORIO
10
4.374002
20
-4.67856
30
13.03585
70
64
0
VERTEX
8
ACESSORIO
10
5.508
20
-4.67856
30
15
70
64
0
VERTEX
8
ACESSORIO
10
4.374002
20
-4.67856
30
16.96414
70
64
0
VERTEX
8
ACESSORIO
10
2.106
20
-4.67856
30
16.96414
70
64
0
VERTEX
8
ACESSORIO
10
0.9719996
20
-381.76
30
15
70
64
0
VERTEX
8
ACESSORIO
10
2.106
20
-381.76
30
13.03585
70
64
0
VERTEX
8
ACESSORIO
10
4.374002
20
-381.76
30
13.03585
70
64
0
VERTEX
8
ACESSORIO
10
5.508
20
-381.76
30
15
70
64
0
VERTEX
8
ACESSORIO
10
4.374002
20
-381.76
30
16.96414
70
64
0
VERTEX
8
ACESSORIO
10
2.106
20
-381.76
30
16.96414
70
64
0
SEQEND
0
POLYLINE
8
ACESSORIO
66
1
70
48
71
2
72
6
0
VERTEX
8
ACESSORIO
10
5.508
20
-4.536
30
15
70
64
0
VERTEX
8
ACESSORIO
10
5.508
20
-3.402
30
13.03585
70
64
0
VERTEX
8
ACESSORIO
10
5.508
20
-1.134
30
13.03585
70
64
0
VERTEX
8
ACESSORIO
10
5.508
20
0
30
15
70
64
0
VERTEX
8
ACESSORIO
10
5.508
20
-1.134
30
16.96414
70
64
0
VERTEX
8
ACESSORIO
10
5.508
20
-3.402
30
16.96414
70
64
0
VERTEX
8
ACESSORIO
10
110.464
20
-4.536
30
15
70
64
0
VERTEX
8
ACESSORIO
10
110.464
20
-3.402
30
13.03585
70
64
0
VERTEX
8
ACESSORIO
10
110.464
20
-1.134
30
13.03585
70
64
0
VERTEX
8
ACESSORIO
10
110.464
20
0
30
15
70
64
0
VERTEX
8
ACESSORIO
10
110.464
20
-1.134
30
16.96414
70
64
0
VERTEX
8
ACESSORIO
10
110.464
20
-3.402
30
16.96414
70
64
0
SEQEND
0
POLYLINE
8
ACESSORIO
66
1
70
48
71
7
72
6
0
VERTEX
8
ACESSORIO
10
5.508
20
-4.67856
30
15
70
64
0
VERTEX
8
ACESSORIO
10
4.374002
20
-4.67856
30
16.96414
70
64
0
VERTEX
8
ACESSORIO
10
2.106
20
-4.67856
30
16.96414
70
64
0
VERTEX
8
ACESSORIO
10
0.9719996
20
-4.67856
30
15
70
64
0
VERTEX
8
ACESSORIO
10
2.106
20
-4.67856
30
13.03585
70
64
0
VERTEX
8
ACESSORIO
10
4.374002
20
-4.67856
30
13.03585
70
64
0
VERTEX
8
ACESSORIO
10
5.491988
20
-4.65776
30
15
70
64
0
VERTEX
8
ACESSORIO
10
4.395782
20
-4.36744
30
16.96414
70
64
0
VERTEX
8
ACESSORIO
10
2.203362
20
-3.78681
30
16.96414
70
64
0
VERTEX
8
ACESSORIO
10
1.107153
20
-3.4965
30
15
70
64
0
VERTEX
8
ACESSORIO
10
2.203362
20
-3.78681
30
13.03585
70
64
0
VERTEX
8
ACESSORIO
10
4.395782
20
-4.36744
30
13.03585
70
64
0
VERTEX
8
ACESSORIO
10
5.481833
20
-4.63354
30
15
70
64
0
VERTEX
8
ACESSORIO
10
4.49648
20
-4.07227
30
16.96414
70
64
0
VERTEX
8
ACESSORIO
10
2.525768
20
-2.94971
30
16.96414
70
64
0
VERTEX
8
ACESSORIO
10
1.540413
20
-2.38844
30
15
70
64
0
VERTEX
8
ACESSORIO
10
2.525768
20
-2.94971
30
13.03585
70
64
0
VERTEX
8
ACESSORIO
10
4.49648
20
-4.07227
30
13.03585
70
64
0
VERTEX
8
ACESSORIO
10
5.478218
20
-4.60754
30
15
70
64
0
VERTEX
8
ACESSORIO
10
4.669391
20
-3.81271
30
16.96414
70
64
0
VERTEX
8
ACESSORIO
10
3.051743
20
-2.22305
30
16.96414
70
64
0
VERTEX
8
ACESSORIO
10
2.242916
20
-1.42822
30
15
70
64
0
VERTEX
8
ACESSORIO
10
3.051743
20
-2.22305
30
13.03585
70
64
0
VERTEX
8
ACESSORIO
10
4.669391
20
-3.81271
30
13.03585
70
64
0
VERTEX
8
ACESSORIO
10
5.48138
20
-4.58148
30
15
70
64
0
VERTEX
8
ACESSORIO
10
4.902995
20
-3.60607
30
16.96414
70
64
0
VERTEX
8
ACESSORIO
10
3.746211
20
-1.65525
30
16.96414
70
64
0
VERTEX
8
ACESSORIO
10
3.167825
20
-0.67984
30
15
70
64
0
VERTEX
8
ACESSORIO
10
3.746211
20
-1.65525
30
13.03585
70
64
0
VERTEX
8
ACESSORIO
10
4.902995
20
-3.60607
30
13.03585
70
64
0
VERTEX
8
ACESSORIO
10
5.491107
20
-4.55709
30
15
70
64
0
VERTEX
8
ACESSORIO
10
5.181706
20
-3.46612
30
16.96414
70
64
0
VERTEX
8
ACESSORIO
10
4.562901
20
-1.28417
30
16.96414
70
64
0
VERTEX
8
ACESSORIO
10
4.253504
20
-0.19319
30
15
70
64
0
VERTEX
8
ACESSORIO
10
4.562901
20
-1.28417
30
13.03585
70
64
0
VERTEX
8
ACESSORIO
10
5.181706
20
-3.46612
30
13.03585
70
64
0
VERTEX
8
ACESSORIO
10
5.506756
20
-4.53601
30
15
70
64
0
VERTEX
8
ACESSORIO
10
5.508
20
-3.402
30
16.96414
70
64
0
VERTEX
8
ACESSORIO
10
5.508
20
-1.134
30
16.96414
70
64
0
VERTEX
8
ACESSORIO
10
5.508
20
0
30
15
70
64
0
VERTEX
8
ACESSORIO
10
5.508
20
-1.134
30
13.03585
70
64
0
VERTEX
8
ACESSORIO
10
5.508
20
-3.402
30
13.03585
70
64
0
SEQEND
0
POLYLINE
8
ACESSORIO
66
1
70
48
71
2
72
6
0
VERTEX
8
ACESSORIO
10
115
20
-4.67856
30
15
70
64
0
VERTEX
8
ACESSORIO
10
113.866
20
-4.67856
30
13.03585
70
64
0
VERTEX
8
ACESSORIO
10
111.598
20
-4.67856
30
13.03585
70
64
0
VERTEX
8
ACESSORIO
10
110.464
20
-4.67856
30
15
70
64
0
VERTEX
8
ACESSORIO
10
111.598
20
-4.67856
30
16.96414
70
64
0
VERTEX
8
ACESSORIO
10
113.866
20
-4.67856
30
16.96414
70
64
0
VERTEX
8
ACESSORIO
10
115
20
-59.67876
30
15
70
64
0
VERTEX
8
ACESSORIO
10
113.866
20
-59.67876
30
13.03585
70
64
0
VERTEX
8
ACESSORIO
10
111.598
20
-59.67876
30
13.03585
70
64
0
VERTEX
8
ACESSORIO
10
110.464
20
-59.67876
30
15
70
64
0
VERTEX
8
ACESSORIO
10
111.598
20
-59.67876
30
16.96414
70
64
0
VERTEX
8
ACESSORIO
10
113.866
20
-59.67876
30
16.96414
70
64
0
SEQEND
0
POLYLINE
8
ACESSORIO
66
1
70
48
71
7
72
6
0
VERTEX
8
ACESSORIO
10
110.464
20
-4.67856
30
15
70
64
0
VERTEX
8
ACESSORIO
10
111.598
20
-4.67856
30
16.96414
70
64
0
VERTEX
8
ACESSORIO
10
113.866
20
-4.67856
30
16.96414
70
64
0
VERTEX
8
ACESSORIO
10
115
20
-4.67856
30
15
70
64
0
VERTEX
8
ACESSORIO
10
113.866
20
-4.67856
30
13.03585
70
64
0
VERTEX
8
ACESSORIO
10
111.598
20
-4.67856
30
13.03585
70
64
0
VERTEX
8
ACESSORIO
10
110.48
20
-4.65776
30
15
70
64
0
VERTEX
8
ACESSORIO
10
111.5762
20
-4.36744
30
16.96414
70
64
0
VERTEX
8
ACESSORIO
10
113.7686
20
-3.78681
30
16.96414
70
64
0
VERTEX
8
ACESSORIO
10
114.8648
20
-3.4965
30
15
70
64
0
VERTEX
8
ACESSORIO
10
113.7686
20
-3.78681
30
13.03585
70
64
0
VERTEX
8
ACESSORIO
10
111.5762
20
-4.36744
30
13.03585
70
64
0
VERTEX
8
ACESSORIO
10
110.4902
20
-4.63354
30
15
70
64
0
VERTEX
8
ACESSORIO
10
111.4755
20
-4.07227
30
16.96414
70
64
0
VERTEX
8
ACESSORIO
10
113.4462
20
-2.94971
30
16.96414
70
64
0
VERTEX
8
ACESSORIO
10
114.4316
20
-2.38844
30
15
70
64
0
VERTEX
8
ACESSORIO
10
113.4462
20
-2.94971
30
13.03585
70
64
0
VERTEX
8
ACESSORIO
10
111.4755
20
-4.07227
30
13.03585
70
64
0
VERTEX
8
ACESSORIO
10
110.4938
20
-4.60754
30
15
70
64
0
VERTEX
8
ACESSORIO
10
111.3026
20
-3.81271
30
16.96414
70
64
0
VERTEX
8
ACESSORIO
10
112.9203
20
-2.22305
30
16.96414
70
64
0
VERTEX
8
ACESSORIO
10
113.7291
20
-1.42822
30
15
70
64
0
VERTEX
8
ACESSORIO
10
112.9203
20
-2.22305
30
13.03585
70
64
0
VERTEX
8
ACESSORIO
10
111.3026
20
-3.81271
30
13.03585
70
64
0
VERTEX
8
ACESSORIO
10
110.4906
20
-4.58148
30
15
70
64
0
VERTEX
8
ACESSORIO
10
111.069
20
-3.60607
30
16.96414
70
64
0
VERTEX
8
ACESSORIO
10
112.2258
20
-1.65525
30
16.96414
70
64
0
VERTEX
8
ACESSORIO
10
112.8042
20
-0.67984
30
15
70
64
0
VERTEX
8
ACESSORIO
10
112.2258
20
-1.65525
30
13.03585
70
64
0
VERTEX
8
ACESSORIO
10
111.069
20
-3.60607
30
13.03585
70
64
0
VERTEX
8
ACESSORIO
10
110.4809
20
-4.55709
30
15
70
64
0
VERTEX
8
ACESSORIO
10
110.7903
20
-3.46612
30
16.96414
70
64
0
VERTEX
8
ACESSORIO
10
111.4091
20
-1.28417
30
16.96414
70
64
0
VERTEX
8
ACESSORIO
10
111.7185
20
-0.19319
30
15
70
64
0
VERTEX
8
ACESSORIO
10
111.4091
20
-1.28417
30
13.03585
70
64
0
VERTEX
8
ACESSORIO
10
110.7903
20
-3.46612
30
13.03585
70
64
0
VERTEX
8
ACESSORIO
10
110.4652
20
-4.53601
30
15
70
64
0
VERTEX
8
ACESSORIO
10
110.464
20
-3.402
30
16.96414
70
64
0
VERTEX
8
ACESSORIO
10
110.464
20
-1.134
30
16.96414
70
64
0
VERTEX
8
ACESSORIO
10
110.464
20
0
30
15
70
64
0
VERTEX
8
ACESSORIO
10
110.464
20
-1.134
30
13.03585
70
64
0
VERTEX
8
ACESSORIO
10
110.464
20
-3.402
30
13.03585
70
64
0
SEQEND
0
3DFACE
8
CROMADO
10
39.43749
20
-378.52
30
17.28815
11
38.46753
21
-381.76
31
17.29102
12
37.51855
22
-381.76
32
15
13
38.11643
23
-378.52
33
15
0
3DFACE
8
CROMADO
10
37.51855
20
-381.76
30
15
11
38.11643
21
-378.52
31
15
12
39.43749
22
-378.52
32
12.71185
13
38.46753
23
-381.76
33
12.70898
0
3DFACE
8
CROMADO
10
39.43749
20
-378.52
30
12.71185
11
38.46753
21
-381.76
31
12.70898
12
40.75855
22
-381.76
32
11.76
13
40.75855
23
-378.52
33
12.71185
0
3DFACE
8
CROMADO
10
40.75855
20
-381.76
30
11.76
11
40.75855
21
-378.52
31
12.71185
12
42.07962
22
-378.52
32
12.71185
13
43.04958
23
-381.76
33
12.70898
0
3DFACE
8
CROMADO
10
42.07962
20
-378.52
30
12.71185
11
43.04958
21
-381.76
31
12.70898
12
43.99855
22
-381.76
32
15
13
43.40068
23
-378.52
33
15
0
3DFACE
8
CROMADO
10
43.99855
20
-381.76
30
15
11
43.40068
21
-378.52
31
15
12
42.07962
22
-378.52
32
17.28815
13
43.04958
23
-381.76
33
17.29102
0
3DFACE
8
CROMADO
10
42.07962
20
-378.52
30
17.28815
11
43.04958
21
-381.76
31
17.29102
12
40.75855
22
-381.76
32
18.24
13
40.75855
23
-378.52
33
17.28815
0
3DFACE
8
CROMADO
10
40.75855
20
-381.76
30
18.24
11
40.75855
21
-378.52
31
17.28815
12
39.43749
22
-378.52
32
17.28815
13
38.46753
23
-381.76
33
17.29102
0
3DFACE
8
CROMADO
10
77.84657
20
-381.76
30
18.24
11
77.84657
21
-378.52
31
17.28815
12
76.5255
22
-378.52
32
17.28815
13
75.55553
23
-381.76
33
17.29102
0
3DFACE
8
CROMADO
10
79.16763
20
-378.52
30
17.28815
11
80.1376
21
-381.76
31
17.29102
12
77.84657
22
-381.76
32
18.24
13
77.84657
23
-378.52
33
17.28815
0
3DFACE
8
CROMADO
10
81.08656
20
-381.76
30
15
11
80.48872
21
-378.52
31
15
12
79.16763
22
-378.52
32
17.28815
13
80.1376
23
-381.76
33
17.29102
0
3DFACE
8
CROMADO
10
79.16763
20
-378.52
30
12.71185
11
80.1376
21
-381.76
31
12.70898
12
81.08656
22
-381.76
32
15
13
80.48872
23
-378.52
33
15
0
3DFACE
8
CROMADO
10
77.84657
20
-381.76
30
11.76
11
77.84657
21
-378.52
31
12.71185
12
79.16763
22
-378.52
32
12.71185
13
80.1376
23
-381.76
33
12.70898
0
3DFACE
8
CROMADO
10
76.5255
20
-378.52
30
12.71185
11
75.55553
21
-381.76
31
12.70898
12
77.84657
22
-381.76
32
11.76
13
77.84657
23
-378.52
33
12.71185
0
3DFACE
8
CROMADO
10
74.60656
20
-381.76
30
15
11
75.2044
21
-378.52
31
15
12
76.5255
22
-378.52
32
12.71185
13
75.55553
23
-381.76
33
12.70898
0
3DFACE
8
CROMADO
10
76.5255
20
-378.52
30
17.28815
11
75.55553
21
-381.76
31
17.29102
12
74.60656
22
-381.76
32
15
13
75.2044
23
-378.52
33
15
0
3DFACE
8
CROMADO
10
1.918936
20
-378.52
30
17.28815
11
0.9489765
21
-381.76
31
17.29102
12
0
22
-381.76
32
15
13
0.5978771
23
-378.52
33
15
0
3DFACE
8
CROMADO
10
0
20
-381.76
30
15
11
0.5978771
21
-378.52
31
15
12
1.918936
22
-378.52
32
12.71185
13
0.9489765
23
-381.76
33
12.70898
0
3DFACE
8
CROMADO
10
1.918936
20
-378.52
30
12.71185
11
0.9489765
21
-381.76
31
12.70898
12
3.24
22
-381.76
32
11.76
13
3.24
23
-378.52
33
12.71185
0
3DFACE
8
CROMADO
10
3.24
20
-381.76
30
11.76
11
3.24
21
-378.52
31
12.71185
12
4.561064
22
-378.52
32
12.71185
13
5.531024
23
-381.76
33
12.70898
0
3DFACE
8
CROMADO
10
4.561064
20
-378.52
30
12.71185
11
5.531024
21
-381.76
31
12.70898
12
6.48
22
-381.76
32
15
13
5.882123
23
-378.52
33
15
0
3DFACE
8
CROMADO
10
6.48
20
-381.76
30
15
11
5.882123
21
-378.52
31
15
12
4.561064
22
-378.52
32
17.28815
13
5.531024
23
-381.76
33
17.29102
0
3DFACE
8
CROMADO
10
4.561064
20
-378.52
30
17.28815
11
5.531024
21
-381.76
31
17.29102
12
3.24
22
-381.76
32
18.24
13
3.24
23
-378.52
33
17.28815
0
3DFACE
8
CROMADO
10
3.24
20
-381.76
30
18.24
11
3.24
21
-378.52
31
17.28815
12
1.918936
22
-378.52
32
17.28815
13
0.9489765
23
-381.76
33
17.29102
0
POLYLINE
8
CROMADO
66
1
70
17
71
8
72
4
0
VERTEX
8
CROMADO
10
40.75855
20
-385
30
15
70
64
0
VERTEX
8
CROMADO
10
39.13855
20
-384.5659
30
15
70
64
0
VERTEX
8
CROMADO
10
37.95263
20
-383.38
30
15
70
64
0
VERTEX
8
CROMADO
10
37.51855
20
-381.76
30
15
70
64
0
VERTEX
8
CROMADO
10
40.75855
20
-385
30
15
70
64
0
VERTEX
8
CROMADO
10
39.61303
20
-384.5659
30
13.85448
70
64
0
VERTEX
8
CROMADO
10
38.77447
20
-383.38
30
13.01591
70
64
0
VERTEX
8
CROMADO
10
38.46753
20
-381.76
30
12.70898
70
64
0
VERTEX
8
CROMADO
10
40.75855
20
-385
30
15
70
64
0
VERTEX
8
CROMADO
10
40.75855
20
-384.5659
30
13.38
70
64
0
VERTEX
8
CROMADO
10
40.75855
20
-383.38
30
12.19408
70
64
0
VERTEX
8
CROMADO
10
40.75855
20
-381.76
30
11.76
70
64
0
VERTEX
8
CROMADO
10
40.75855
20
-385
30
15
70
64
0
VERTEX
8
CROMADO
10
41.90407
20
-384.5659
30
13.85448
70
64
0
VERTEX
8
CROMADO
10
42.74264
20
-383.38
30
13.01591
70
64
0
VERTEX
8
CROMADO
10
43.04958
20
-381.76
30
12.70898
70
64
0
VERTEX
8
CROMADO
10
40.75855
20
-385
30
15
70
64
0
VERTEX
8
CROMADO
10
42.37855
20
-384.5659
30
15
70
64
0
VERTEX
8
CROMADO
10
43.56448
20
-383.38
30
15
70
64
0
VERTEX
8
CROMADO
10
43.99855
20
-381.76
30
15
70
64
0
VERTEX
8
CROMADO
10
40.75855
20
-385
30
15
70
64
0
VERTEX
8
CROMADO
10
41.90407
20
-384.5659
30
16.14551
70
64
0
VERTEX
8
CROMADO
10
42.74264
20
-383.38
30
16.98409
70
64
0
VERTEX
8
CROMADO
10
43.04958
20
-381.76
30
17.29102
70
64
0
VERTEX
8
CROMADO
10
40.75855
20
-385
30
15
70
64
0
VERTEX
8
CROMADO
10
40.75855
20
-384.5659
30
16.62
70
64
0
VERTEX
8
CROMADO
10
40.75855
20
-383.38
30
17.80592
70
64
0
VERTEX
8
CROMADO
10
40.75855
20
-381.76
30
18.24
70
64
0
VERTEX
8
CROMADO
10
40.75855
20
-385
30
15
70
64
0
VERTEX
8
CROMADO
10
39.61303
20
-384.5659
30
16.14551
70
64
0
VERTEX
8
CROMADO
10
38.77447
20
-383.38
30
16.98409
70
64
0
VERTEX
8
CROMADO
10
38.46753
20
-381.76
30
17.29102
70
64
0
SEQEND
0
POLYLINE
8
CROMADO
66
1
70
48
71
2
72
6
0
VERTEX
8
CROMADO
10
42.07962
20
-378.52
30
17.28815
70
64
0
VERTEX
8
CROMADO
10
43.40068
20
-378.52
30
15
70
64
0
VERTEX
8
CROMADO
10
42.07962
20
-378.52
30
12.71185
70
64
0
VERTEX
8
CROMADO
10
39.43749
20
-378.52
30
12.71185
70
64
0
VERTEX
8
CROMADO
10
38.11643
20
-378.52
30
15
70
64
0
VERTEX
8
CROMADO
10
39.43749
20
-378.52
30
17.28815
70
64
0
VERTEX
8
CROMADO
10
42.07962
20
-376.576
30
17.28815
70
64
0
VERTEX
8
CROMADO
10
43.40068
20
-376.576
30
15
70
64
0
VERTEX
8
CROMADO
10
42.07962
20
-376.576
30
12.71185
70
64
0
VERTEX
8
CROMADO
10
39.43749
20
-376.576
30
12.71185
70
64
0
VERTEX
8
CROMADO
10
38.11643
20
-376.576
30
15
70
64
0
VERTEX
8
CROMADO
10
39.43749
20
-376.576
30
17.28815
70
64
0
SEQEND
0
POLYLINE
8
CROMADO
66
1
70
48
71
2
72
6
0
VERTEX
8
CROMADO
10
79.16763
20
-378.52
30
17.28815
70
64
0
VERTEX
8
CROMADO
10
80.48872
20
-378.52
30
15
70
64
0
VERTEX
8
CROMADO
10
79.16763
20
-378.52
30
12.71185
70
64
0
VERTEX
8
CROMADO
10
76.5255
20
-378.52
30
12.71185
70
64
0
VERTEX
8
CROMADO
10
75.2044
20
-378.52
30
15
70
64
0
VERTEX
8
CROMADO
10
76.5255
20
-378.52
30
17.28815
70
64
0
VERTEX
8
CROMADO
10
79.16763
20
-376.576
30
17.28815
70
64
0
VERTEX
8
CROMADO
10
80.48872
20
-376.576
30
15
70
64
0
VERTEX
8
CROMADO
10
79.16763
20
-376.576
30
12.71185
70
64
0
VERTEX
8
CROMADO
10
76.5255
20
-376.576
30
12.71185
70
64
0
VERTEX
8
CROMADO
10
75.2044
20
-376.576
30
15
70
64
0
VERTEX
8
CROMADO
10
76.5255
20
-376.576
30
17.28815
70
64
0
SEQEND
0
POLYLINE
8
CROMADO
66
1
70
17
71
8
72
4
0
VERTEX
8
CROMADO
10
77.84657
20
-385
30
15
70
64
0
VERTEX
8
CROMADO
10
76.22655
20
-384.5659
30
15
70
64
0
VERTEX
8
CROMADO
10
75.04064
20
-383.38
30
15
70
64
0
VERTEX
8
CROMADO
10
74.60656
20
-381.76
30
15
70
64
0
VERTEX
8
CROMADO
10
77.84657
20
-385
30
15
70
64
0
VERTEX
8
CROMADO
10
76.70103
20
-384.5659
30
13.85448
70
64
0
VERTEX
8
CROMADO
10
75.86246
20
-383.38
30
13.01591
70
64
0
VERTEX
8
CROMADO
10
75.55553
20
-381.76
30
12.70898
70
64
0
VERTEX
8
CROMADO
10
77.84657
20
-385
30
15
70
64
0
VERTEX
8
CROMADO
10
77.84657
20
-384.5659
30
13.38
70
64
0
VERTEX
8
CROMADO
10
77.84657
20
-383.38
30
12.19408
70
64
0
VERTEX
8
CROMADO
10
77.84657
20
-381.76
30
11.76
70
64
0
VERTEX
8
CROMADO
10
77.84657
20
-385
30
15
70
64
0
VERTEX
8
CROMADO
10
78.99207
20
-384.5659
30
13.85448
70
64
0
VERTEX
8
CROMADO
10
79.83067
20
-383.38
30
13.01591
70
64
0
VERTEX
8
CROMADO
10
80.1376
20
-381.76
30
12.70898
70
64
0
VERTEX
8
CROMADO
10
77.84657
20
-385
30
15
70
64
0
VERTEX
8
CROMADO
10
79.46656
20
-384.5659
30
15
70
64
0
VERTEX
8
CROMADO
10
80.65247
20
-383.38
30
15
70
64
0
VERTEX
8
CROMADO
10
81.08656
20
-381.76
30
15
70
64
0
VERTEX
8
CROMADO
10
77.84657
20
-385
30
15
70
64
0
VERTEX
8
CROMADO
10
78.99207
20
-384.5659
30
16.14551
70
64
0
VERTEX
8
CROMADO
10
79.83067
20
-383.38
30
16.98409
70
64
0
VERTEX
8
CROMADO
10
80.1376
20
-381.76
30
17.29102
70
64
0
VERTEX
8
CROMADO
10
77.84657
20
-385
30
15
70
64
0
VERTEX
8
CROMADO
10
77.84657
20
-384.5659
30
16.62
70
64
0
VERTEX
8
CROMADO
10
77.84657
20
-383.38
30
17.80592
70
64
0
VERTEX
8
CROMADO
10
77.84657
20
-381.76
30
18.24
70
64
0
VERTEX
8
CROMADO
10
77.84657
20
-385
30
15
70
64
0
VERTEX
8
CROMADO
10
76.70103
20
-384.5659
30
16.14551
70
64
0
VERTEX
8
CROMADO
10
75.86246
20
-383.38
30
16.98409
70
64
0
VERTEX
8
CROMADO
10
75.55553
20
-381.76
30
17.29102
70
64
0
SEQEND
0
POLYLINE
8
CROMADO
66
1
70
17
71
8
72
4
0
VERTEX
8
CROMADO
10
3.24
20
-385
30
15
70
64
0
VERTEX
8
CROMADO
10
1.62
20
-384.5659
30
15
70
64
0
VERTEX
8
CROMADO
10
0.4340758
20
-383.38
30
15
70
64
0
VERTEX
8
CROMADO
10
0
20
-381.76
30
15
70
64
0
VERTEX
8
CROMADO
10
3.24
20
-385
30
15
70
64
0
VERTEX
8
CROMADO
10
2.094491
20
-384.5659
30
13.85448
70
64
0
VERTEX
8
CROMADO
10
1.255915
20
-383.38
30
13.01591
70
64
0
VERTEX
8
CROMADO
10
0.9489765
20
-381.76
30
12.70898
70
64
0
VERTEX
8
CROMADO
10
3.24
20
-385
30
15
70
64
0
VERTEX
8
CROMADO
10
3.24
20
-384.5659
30
13.38
70
64
0
VERTEX
8
CROMADO
10
3.24
20
-383.38
30
12.19408
70
64
0
VERTEX
8
CROMADO
10
3.24
20
-381.76
30
11.76
70
64
0
VERTEX
8
CROMADO
10
3.24
20
-385
30
15
70
64
0
VERTEX
8
CROMADO
10
4.385515
20
-384.5659
30
13.85448
70
64
0
VERTEX
8
CROMADO
10
5.224085
20
-383.38
30
13.01591
70
64
0
VERTEX
8
CROMADO
10
5.531024
20
-381.76
30
12.70898
70
64
0
VERTEX
8
CROMADO
10
3.24
20
-385
30
15
70
64
0
VERTEX
8
CROMADO
10
4.86
20
-384.5659
30
15
70
64
0
VERTEX
8
CROMADO
10
6.045924
20
-383.38
30
15
70
64
0
VERTEX
8
CROMADO
10
6.48
20
-381.76
30
15
70
64
0
VERTEX
8
CROMADO
10
3.24
20
-385
30
15
70
64
0
VERTEX
8
CROMADO
10
4.385515
20
-384.5659
30
16.14551
70
64
0
VERTEX
8
CROMADO
10
5.224085
20
-383.38
30
16.98409
70
64
0
VERTEX
8
CROMADO
10
5.531024
20
-381.76
30
17.29102
70
64
0
VERTEX
8
CROMADO
10
3.24
20
-385
30
15
70
64
0
VERTEX
8
CROMADO
10
3.24
20
-384.5659
30
16.62
70
64
0
VERTEX
8
CROMADO
10
3.24
20
-383.38
30
17.80592
70
64
0
VERTEX
8
CROMADO
10
3.24
20
-381.76
30
18.24
70
64
0
VERTEX
8
CROMADO
10
3.24
20
-385
30
15
70
64
0
VERTEX
8
CROMADO
10
2.094491
20
-384.5659
30
16.14551
70
64
0
VERTEX
8
CROMADO
10
1.255915
20
-383.38
30
16.98409
70
64
0
VERTEX
8
CROMADO
10
0.9489765
20
-381.76
30
17.29102
70
64
0
SEQEND
0
POLYLINE
8
CROMADO
66
1
70
48
71
2
72
6
0
VERTEX
8
CROMADO
10
4.561064
20
-378.52
30
17.28815
70
64
0
VERTEX
8
CROMADO
10
5.882123
20
-378.52
30
15
70
64
0
VERTEX
8
CROMADO
10
4.561064
20
-378.52
30
12.71185
70
64
0
VERTEX
8
CROMADO
10
1.918936
20
-378.52
30
12.71185
70
64
0
VERTEX
8
CROMADO
10
0.5978771
20
-378.52
30
15
70
64
0
VERTEX
8
CROMADO
10
1.918936
20
-378.52
30
17.28815
70
64
0
VERTEX
8
CROMADO
10
4.561064
20
-376.576
30
17.28815
70
64
0
VERTEX
8
CROMADO
10
5.882123
20
-376.576
30
15
70
64
0
VERTEX
8
CROMADO
10
4.561064
20
-376.576
30
12.71185
70
64
0
VERTEX
8
CROMADO
10
1.918936
20
-376.576
30
12.71185
70
64
0
VERTEX
8
CROMADO
10
0.5978771
20
-376.576
30
15
70
64
0
VERTEX
8
CROMADO
10
1.918936
20
-376.576
30
17.28815
70
64
0
SEQEND
0
ENDSEC
0
EOF
