  0
SECTION
  2
HEADER
  9
$ACADVER
  1
AC1009
  9
$DWGCODEPAGE
  3
undefined
  9
$INSBASE
 10
0.0
 20
0.0
 30
0.0
  9
$EXTMIN
 10
-23.0
 20
-35.45078554345393
 30
-29.76447347225545
  9
$EXTMAX
 10
23.0
 20
14.5
 30
0.0000000000000217
  9
$LIMMIN
 10
0.0
 20
0.0
  9
$LIMMAX
 10
420.0
 20
297.0
  9
$ORTHOMODE
 70
     1
  9
$REGENMODE
 70
     1
  9
$FILLMODE
 70
     1
  9
$QTEXTMODE
 70
     0
  9
$MIRRTEXT
 70
     0
  9
$DRAGMODE
 70
     2
  9
$LTSCALE
 40
1.0
  9
$OSMODE
 70
    37
  9
$ATTMODE
 70
     1
  9
$TEXTSIZE
 40
2.5
  9
$TRACEWID
 40
1.0
  9
$TEXTSTYLE
  7
STANDARD
  9
$CLAYER
  8
0
  9
$CELTYPE
  6
BYLAYER
  9
$CECOLOR
 62
   256
  9
$DIMSCALE
 40
1.0
  9
$DIMASZ
 40
2.5
  9
$DIMEXO
 40
0.625
  9
$DIMDLI
 40
3.75
  9
$DIMRND
 40
0.0
  9
$DIMDLE
 40
0.0
  9
$DIMEXE
 40
1.25
  9
$DIMTP
 40
0.0
  9
$DIMTM
 40
0.0
  9
$DIMTXT
 40
2.5
  9
$DIMCEN
 40
2.5
  9
$DIMTSZ
 40
0.0
  9
$DIMTOL
 70
     0
  9
$DIMLIM
 70
     0
  9
$DIMTIH
 70
     0
  9
$DIMTOH
 70
     0
  9
$DIMSE1
 70
     0
  9
$DIMSE2
 70
     0
  9
$DIMTAD
 70
     1
  9
$DIMZIN
 70
     8
  9
$DIMBLK
  1

  9
$DIMASO
 70
     1
  9
$DIMSHO
 70
     1
  9
$DIMPOST
  1

  9
$DIMAPOST
  1

  9
$DIMALT
 70
     0
  9
$DIMALTD
 70
     3
  9
$DIMALTF
 40
0.03937007874016
  9
$DIMLFAC
 40
1.0
  9
$DIMTOFL
 70
     1
  9
$DIMTVP
 40
0.0
  9
$DIMTIX
 70
     0
  9
$DIMSOXD
 70
     0
  9
$DIMSAH
 70
     0
  9
$DIMBLK1
  1

  9
$DIMBLK2
  1

  9
$DIMSTYLE
  2
ISO-25
  9
$DIMCLRD
 70
     0
  9
$DIMCLRE
 70
     0
  9
$DIMCLRT
 70
     0
  9
$DIMTFAC
 40
1.0
  9
$DIMGAP
 40
0.625
  9
$LUNITS
 70
     2
  9
$LUPREC
 70
     4
  9
$SKETCHINC
 40
1.0
  9
$FILLETRAD
 40
0.0
  9
$AUNITS
 70
     0
  9
$AUPREC
 70
     0
  9
$MENU
  1
.
  9
$ELEVATION
 40
0.0
  9
$PELEVATION
 40
0.0
  9
$THICKNESS
 40
0.0
  9
$LIMCHECK
 70
     0
  9
$CHAMFERA
 40
0.0
  9
$CHAMFERB
 40
0.0
  9
$SKPOLY
 70
     0
  9
$TDCREATE
 40
2454178.505749051
  9
$TDUPDATE
 40
2454178.636739155
  9
$TDINDWG
 40
0.1611311806
  9
$TDUSRTIMER
 40
0.1611160764
  9
$USRTIMER
 70
     1
  9
$ANGBASE
 50
0.0
  9
$ANGDIR
 70
     0
  9
$PDMODE
 70
     0
  9
$PDSIZE
 40
0.0
  9
$PLINEWID
 40
0.0
  9
$COORDS
 70
     1
  9
$SPLFRAME
 70
     0
  9
$SPLINETYPE
 70
     6
  9
$SPLINESEGS
 70
     8
  9
$ATTDIA
 70
     0
  9
$ATTREQ
 70
     1
  9
$HANDLING
 70
     1
  9
$HANDSEED
  5
89A
  9
$SURFTAB1
 70
     6
  9
$SURFTAB2
 70
     2
  9
$SURFTYPE
 70
     6
  9
$SURFU
 70
     6
  9
$SURFV
 70
     6
  9
$UCSNAME
  2

  9
$UCSORG
 10
0.0
 20
0.0
 30
0.0
  9
$UCSXDIR
 10
0.0
 20
-1.0
 30
0.0
  9
$UCSYDIR
 10
0.0
 20
0.0
 30
1.0
  9
$PUCSNAME
  2

  9
$PUCSORG
 10
0.0
 20
0.0
 30
0.0
  9
$PUCSXDIR
 10
1.0
 20
0.0
 30
0.0
  9
$PUCSYDIR
 10
0.0
 20
1.0
 30
0.0
  9
$USERI1
 70
     0
  9
$USERI2
 70
     0
  9
$USERI3
 70
     0
  9
$USERI4
 70
     0
  9
$USERI5
 70
     0
  9
$USERR1
 40
0.0
  9
$USERR2
 40
0.0
  9
$USERR3
 40
0.0
  9
$USERR4
 40
0.0
  9
$USERR5
 40
0.0
  9
$WORLDVIEW
 70
     1
  9
$SHADEDGE
 70
     3
  9
$SHADEDIF
 70
    70
  9
$TILEMODE
 70
     1
  9
$MAXACTVP
 70
    64
  9
$PLIMCHECK
 70
     0
  9
$PEXTMIN
 10
0.0
 20
0.0
 30
0.0
  9
$PEXTMAX
 10
0.0
 20
0.0
 30
0.0
  9
$PLIMMIN
 10
0.0
 20
0.0
  9
$PLIMMAX
 10
0.0
 20
0.0
  9
$UNITMODE
 70
     0
  9
$VISRETAIN
 70
     1
  9
$PLINEGEN
 70
     0
  9
$PSLTSCALE
 70
     0
  0
ENDSEC
  0
SECTION
  2
TABLES
  0
TABLE
  2
VPORT
 70
     1
  0
VPORT
  2
*ACTIVE
 70
     0
 10
0.0
 20
0.0
 11
1.0
 21
1.0
 12
34.59303397221776
 22
-207.6753129126179
 13
0.0
 23
0.0
 14
10.0
 24
10.0
 15
10.0
 25
10.0
 16
-1.0
 26
-1.0
 36
1.0
 17
96.22578747377788
 27
134.6723325091945
 37
118.7802812908948
 40
80.92977711223777
 41
1.642184557438794
 42
156.921418836088
 43
0.0
 44
0.0
 50
0.0
 51
0.0
 71
    16
 72
  1000
 73
     0
 74
     1
 75
     0
 76
     0
 77
     0
 78
     0
  0
ENDTAB
  0
TABLE
  2
LTYPE
 70
     1
  0
LTYPE
  2
CONTINUOUS
 70
     0
  3
Solid line
 72
    65
 73
     0
 40
0.0
  0
ENDTAB
  0
TABLE
  2
LAYER
 70
     4
  0
LAYER
  2
0
 70
     0
 62
     7
  6
CONTINUOUS
  0
LAYER
  2
CORPO
 70
     0
 62
   253
  6
CONTINUOUS
  0
LAYER
  2
CONTORNO
 70
     0
 62
     1
  6
CONTINUOUS
  0
LAYER
  2
CONTATO
 70
     0
 62
     7
  6
CONTINUOUS
  0
ENDTAB
  0
TABLE
  2
STYLE
 70
     1
  0
STYLE
  2
STANDARD
 70
     0
 40
0.0
 41
1.0
 50
0.0
 71
     0
 42
2.5
  3
txt
  4

  0
ENDTAB
  0
TABLE
  2
VIEW
 70
     0
  0
ENDTAB
  0
TABLE
  2
UCS
 70
     0
  0
ENDTAB
  0
TABLE
  2
APPID
 70
     3
  0
APPID
  2
ACAD
 70
     0
  0
APPID
  2
ACAD_PSEXT
 70
     0
  0
APPID
  2
ACAECLAYERSTANDARD
 70
     0
  0
ENDTAB
  0
TABLE
  2
DIMSTYLE
 70
     2
  0
DIMSTYLE
  2
STANDARD
 70
     0
  3

  4

  5

  6

  7

 40
1.0
 41
0.18
 42
0.0625
 43
0.38
 44
0.18
 45
0.0
 46
0.0
 47
0.0
 48
0.0
140
0.18
141
0.09
142
0.0
143
25.4
144
1.0
145
0.0
146
1.0
147
0.09
 71
     0
 72
     0
 73
     1
 74
     1
 75
     0
 76
     0
 77
     0
 78
     0
170
     0
171
     2
172
     0
173
     0
174
     0
175
     0
176
     0
177
     0
178
     0
  0
DIMSTYLE
  2
ISO-25
 70
     0
  3

  4

  5

  6

  7

 40
1.0
 41
2.5
 42
0.625
 43
3.75
 44
1.25
 45
0.0
 46
0.0
 47
0.0
 48
0.0
140
2.5
141
2.5
142
0.0
143
0.03937007874016
144
1.0
145
0.0
146
1.0
147
0.625
 71
     0
 72
     0
 73
     0
 74
     0
 75
     0
 76
     0
 77
     1
 78
     8
170
     0
171
     3
172
     1
173
     0
174
     0
175
     0
176
     0
177
     0
178
     0
  0
ENDTAB
  0
ENDSEC
  0
SECTION
  2
BLOCKS
  0
BLOCK
  8
0
  2
$MODEL_SPACE
 70
     0
 10
0.0
 20
0.0
 30
0.0
  3
$MODEL_SPACE
  1

  0
ENDBLK
  5
21
  8
0
  0
BLOCK
 67
     1
  8
0
  2
$PAPER_SPACE
 70
     0
 10
0.0
 20
0.0
 30
0.0
  3
$PAPER_SPACE
  1

  0
ENDBLK
  5
76
 67
     1
  8
0
  0
BLOCK
  8
0
  2
DWG2
 70
     0
 10
0.0
 20
0.0
 30
0.0
  3
DWG2
  1

  0
POLYLINE
  5
70E
  8
CONTORNO
  6
BYBLOCK
 66
     1
 10
0.0
 20
0.0
 30
0.0
  0
VERTEX
  5
895
  8
CONTORNO
  6
BYBLOCK
 10
16.0
 20
7.5
 30
0.0
  0
VERTEX
  5
896
  8
CONTORNO
  6
BYBLOCK
 10
16.0
 20
-7.5
 30
0.0
  0
VERTEX
  5
897
  8
CONTORNO
  6
BYBLOCK
 10
-16.0
 20
-7.5
 30
0.0
  0
VERTEX
  5
898
  8
CONTORNO
  6
BYBLOCK
 10
-16.0
 20
7.5
 30
0.0
  0
VERTEX
  5
899
  8
CONTORNO
  6
BYBLOCK
 10
16.0
 20
7.5
 30
0.0
  0
SEQEND
  5
894
  8
CONTORNO
  6
BYBLOCK
  0
ENDBLK
  5
88A
  8
0
  0
ENDSEC
  0
SECTION
  2
ENTITIES
  0
3DFACE
  5
3BB
  8
CORPO
 10
-23.0
 20
-7.5
 30
-2.000000000000006
 11
-23.0
 21
-7.5
 31
-0.0000000000000057
 12
-23.0
 22
7.5
 32
-0.0000000000000057
 13
-23.0
 23
7.5
 33
-2.000000000000006
  0
3DFACE
  5
3BC
  8
CORPO
 10
-23.0
 20
-7.5
 30
-0.0000000000000057
 11
-23.0
 21
-7.5
 31
-0.0000000000000057
 12
-23.0
 22
7.5
 32
-0.0000000000000057
 13
-23.0
 23
7.5
 33
-0.0000000000000057
  0
3DFACE
  5
3BD
  8
CORPO
 10
-23.0
 20
7.5
 30
-2.000000000000006
 11
-23.0
 21
7.5
 31
-0.0000000000000057
 12
23.0
 22
7.5
 32
0.0000000000000199
 13
23.0
 23
7.5
 33
-1.99999999999998
  0
3DFACE
  5
3BE
  8
CORPO
 10
-23.0
 20
7.5
 30
-0.0000000000000057
 11
-23.0
 21
7.5
 31
-0.0000000000000057
 12
-23.0
 22
7.5
 32
-0.0000000000000057
 13
23.0
 23
7.5
 33
0.0000000000000199
  0
3DFACE
  5
3BF
  8
CORPO
 10
23.0
 20
7.5
 30
-1.99999999999998
 11
23.0
 21
7.5
 31
0.0000000000000199
 12
23.0
 22
-7.5
 32
-0.0000000000000085
 13
23.0
 23
-7.5
 33
-2.000000000000008
  0
3DFACE
  5
3C1
  8
CORPO
 10
23.0
 20
-7.5
 30
-2.000000000000008
 11
23.0
 21
-7.5
 31
-0.0000000000000085
 12
23.0
 22
-7.5
 32
-2.000000000000008
 13
23.0
 23
-7.5
 33
-2.000000000000008
  0
3DFACE
  5
3C2
  8
CORPO
 10
23.0
 20
-7.5
 30
-0.0000000000000085
 11
-23.0
 21
-7.5
 31
-0.0000000000000057
 12
-23.0
 22
-7.5
 32
-2.000000000000006
 13
23.0
 23
-7.5
 33
-2.000000000000008
  0
3DFACE
  5
3C3
  8
CORPO
 10
23.0
 20
-7.5
 30
-2.000000000000008
 11
23.0
 21
-7.5
 31
-2.000000000000008
 12
23.0
 22
7.5
 32
-1.99999999999998
 13
23.0
 23
7.5
 33
-1.99999999999998
  0
3DFACE
  5
3C4
  8
CORPO
 10
23.0
 20
-7.5
 30
-2.000000000000008
 11
-23.0
 21
-7.5
 31
-2.000000000000006
 12
-23.0
 22
7.5
 32
-2.000000000000006
 13
23.0
 23
7.5
 33
-1.99999999999998
  0
3DFACE
  5
3CA
  8
CORPO
 10
6.0
 20
14.5
 30
0.0000000000000209
 11
6.0
 21
14.5
 31
0.0000000000000209
 12
6.0
 22
14.5
 32
0.0000000000000209
 13
-5.99999999999989
 23
14.5
 33
0.0000000000000217
  0
3DFACE
  5
3CD
  8
CORPO
 10
-5.999999999999891
 20
-12.35
 30
-7.500000000000007
 11
-5.99999999999989
 21
-12.35
 31
-0.0000000000000067
 12
-5.999999999999891
 22
-12.35
 32
-7.500000000000007
 13
-5.999999999999891
 23
-12.35
 33
-7.500000000000007
  0
3DFACE
  5
3D1
  8
CORPO
 10
5.999999999999999
 20
-12.35
 30
-11.00000000000001
 11
6.0
 21
-12.35
 31
-0.0000000000000075
 12
6.0
 22
14.5
 32
0.0000000000000209
 13
5.999999999999999
 23
14.5
 33
-10.99999999999998
  0
3DFACE
  5
3D2
  8
CORPO
 10
6.0
 20
-12.35
 30
-0.0000000000000075
 11
6.0
 21
-12.35
 31
-0.0000000000000075
 12
6.0
 22
14.5
 32
0.0000000000000209
 13
6.0
 23
14.5
 33
0.0000000000000209
  0
3DFACE
  5
3D3
  8
CORPO
 10
5.999999999999999
 20
14.5
 30
-10.99999999999998
 11
6.0
 21
14.5
 31
0.0000000000000209
 12
-5.99999999999989
 22
14.5
 32
0.0000000000000217
 13
-5.999999999999891
 23
14.5
 33
-10.99999999999998
  0
3DFACE
  5
3D4
  8
CORPO
 10
6.0
 20
14.5
 30
0.0000000000000209
 11
6.0
 21
14.5
 31
0.0000000000000209
 12
6.0
 22
14.5
 32
0.0000000000000209
 13
-5.99999999999989
 23
14.5
 33
0.0000000000000217
  0
3DFACE
  5
3D5
  8
CORPO
 10
-5.999999999999891
 20
14.5
 30
-10.99999999999998
 11
-5.99999999999989
 21
14.5
 31
0.0000000000000217
 12
-5.99999999999989
 22
-12.35
 32
-0.0000000000000067
 13
-5.999999999999891
 23
-12.35
 33
-11.00000000000001
  0
3DFACE
  5
3D9
  8
CORPO
 10
-5.999999999999891
 20
-12.35
 30
-11.00000000000001
 11
-5.999999999999891
 21
-12.35
 31
-11.00000000000001
 12
-5.999999999999891
 22
14.5
 32
-10.99999999999998
 13
-5.999999999999891
 23
14.5
 33
-10.99999999999998
  0
3DFACE
  5
3DA
  8
CORPO
 10
-5.999999999999891
 20
-12.35
 30
-11.00000000000001
 11
5.999999999999999
 21
-12.35
 31
-11.00000000000001
 12
5.999999999999999
 22
14.5
 32
-10.99999999999998
 13
-5.999999999999891
 23
14.5
 33
-10.99999999999998
  0
3DFACE
  5
3DB
  8
CORPO
 10
5.999999999999998
 20
-22.22183278513614
 30
-29.76447347225545
 11
5.999999999999999
 21
-22.17158025344197
 31
-17.81472600394962
 12
6.0
 22
-12.35
 32
-0.0000000000000075
 13
5.999999999999999
 23
-12.35
 33
-11.00000000000001
  0
3DFACE
  5
3DF
  8
CORPO
 10
-5.999999999999891
 20
-12.35
 30
-11.00000000000001
 11
-5.99999999999989
 21
-12.35
 31
-0.0000000000000067
 12
-5.999999999999891
 22
-22.17158025344197
 32
-17.81472600394962
 13
-5.999999999999892
 23
-22.22183278513614
 33
-29.76447347225545
  0
3DFACE
  5
3E1
  8
CORPO
 10
-5.999999999999892
 20
-22.22183278513614
 30
-29.76447347225544
 11
-5.999999999999891
 21
-22.17158025344197
 31
-17.81472600394962
 12
-5.999999999999892
 22
-22.22183278513614
 32
-29.76447347225544
 13
-5.999999999999892
 23
-22.22183278513614
 33
-29.76447347225544
  0
3DFACE
  5
3E3
  8
CORPO
 10
-5.999999999999892
 20
-22.22183278513614
 30
-29.76447347225545
 11
-5.999999999999892
 21
-22.22183278513614
 31
-29.76447347225545
 12
-5.999999999999891
 22
-12.35
 32
-11.00000000000001
 13
-5.999999999999891
 23
-12.35
 33
-11.00000000000001
  0
3DFACE
  5
3E4
  8
CORPO
 10
-5.999999999999892
 20
-22.22183278513614
 30
-29.76447347225545
 11
5.999999999999998
 21
-22.22183278513614
 31
-29.76447347225545
 12
5.999999999999999
 22
-12.35
 32
-11.00000000000001
 13
-5.999999999999891
 23
-12.35
 33
-11.00000000000001
  0
LINE
  5
5E9
  8
0
 10
16.0
 20
0.0
 30
-0.000000000000001
 11
-16.0
 21
0.0
 31
0.000000000000001
210
-6.123031769111886E-17
220
0.0
230
-1.0
  0
LINE
  5
608
  8
0
 10
-16.0
 20
0.0
 30
0.000000000000001
 11
-16.0
 21
0.0
 31
-1.999999999999999
210
-1.0
220
0.0
230
6.123031769111886E-17
  0
LINE
  5
609
  8
0
 10
16.0
 20
0.0
 30
-0.000000000000001
 11
16.0
 21
0.0
 31
-2.000000000000001
210
-1.0
220
0.0
230
6.123031769111886E-17
  0
LINE
  5
60A
  8
0
 10
-20.24264068711928
 20
0.0
 30
-1.999999999999999
 11
-11.75735931288071
 21
0.0
 31
-1.999999999999999
210
-1.0
220
0.0
230
6.123031769111886E-17
  0
LINE
  5
61F
  8
0
 10
11.75735931288072
 20
0.0
 30
-2.000000000000001
 11
20.24264068711929
 21
0.0
 31
-2.000000000000001
210
-1.0
220
0.0
230
6.123031769111886E-17
  0
3DFACE
  5
67F
  8
CORPO
 10
5.999999999999999
 20
-35.45077235145884
 30
-18.77817459305205
 11
5.999999999999999
 21
-30.501024883153
 31
-13.82842712474621
 12
5.999999999999999
 22
-22.17158025344197
 32
-17.81472600394962
 13
5.999999999999998
 23
-22.22183278513614
 33
-29.76447347225544
  0
3DFACE
  5
680
  8
CORPO
 10
-5.999999999999892
 20
-22.22183278513614
 30
-29.76447347225544
 11
-5.999999999999891
 21
-22.17158025344197
 31
-17.81472600394962
 12
-5.999999999999891
 22
-30.501024883153
 32
-13.82842712474621
 13
-5.999999999999891
 23
-35.45077235145884
 33
-18.77817459305205
  0
3DFACE
  5
681
  8
CORPO
 10
-5.999999999999891
 20
-35.45077235145884
 30
-18.77817459305205
 11
-5.999999999999891
 21
-30.501024883153
 31
-13.82842712474621
 12
-5.999999999999891
 22
-35.45077235145884
 32
-18.77817459305205
 13
-5.999999999999891
 23
-35.45077235145884
 33
-18.77817459305205
  0
3DFACE
  5
683
  8
CORPO
 10
-5.999999999999891
 20
-35.45077235145884
 30
-18.77817459305205
 11
5.999999999999999
 21
-35.45077235145884
 31
-18.77817459305205
 12
5.999999999999998
 22
-22.22183278513614
 32
-29.76447347225544
 13
-5.999999999999892
 23
-22.22183278513614
 33
-29.76447347225544
  0
3DFACE
  5
684
  8
CORPO
 10
5.0
 20
-35.45078554345393
 30
-1.203826938772084
 11
5.0
 21
-34.69336771984005
 31
-1.262990696003019
 12
5.000134542518619
 22
-31.90424815991169
 32
-19.17734899653391
 13
5.000134542518619
 23
-34.64654787672382
 33
-18.55354300690389
  0
3DFACE
  5
685
  8
CORPO
 10
5.0
 20
-34.69336771984005
 30
-1.262990696003019
 11
5.0
 21
-34.69336771984005
 31
-1.262990696003019
 12
5.000134542518619
 22
-31.90424815991169
 32
-19.17734899653391
 13
5.000134542518619
 23
-31.90424815991169
 33
-19.17734899653391
  0
3DFACE
  5
686
  8
CORPO
 10
-4.999865457481381
 20
-34.64654787672382
 30
-18.55354300690389
 11
-4.999865457481381
 21
-31.90424815991169
 31
-19.17734899653391
 12
-5.0
 22
-34.69336771984005
 32
-1.262990696003019
 13
-5.0
 23
-35.45078554345393
 33
-1.203826938772084
  0
3DFACE
  5
687
  8
CORPO
 10
-5.0
 20
-35.45078554345393
 30
-1.203826938772084
 11
-5.0
 21
-35.45078554345393
 31
-1.203826938772084
 12
-4.999865457481381
 22
-34.64654787672382
 32
-18.55354300690389
 13
-4.999865457481381
 23
-34.64654787672382
 33
-18.55354300690389
  0
3DFACE
  5
688
  8
CORPO
 10
-5.0
 20
-35.45078554345393
 30
-1.203826938772084
 11
5.0
 21
-35.45078554345393
 31
-1.203826938772084
 12
5.000134542518619
 22
-34.64654787672382
 32
-18.55354300690389
 13
-4.999865457481381
 23
-34.64654787672382
 33
-18.55354300690389
  0
POLYLINE
  5
712
  8
CONTORNO
  6
BYBLOCK
 66
     1
 10
0.0
 20
0.0
 30
0.0000000000000071
  0
VERTEX
  5
88F
  8
CONTORNO
  6
BYBLOCK
 10
16.0
 20
7.5
 30
0.0
  0
VERTEX
  5
890
  8
CONTORNO
  6
BYBLOCK
 10
16.0
 20
-7.5
 30
0.0
  0
VERTEX
  5
891
  8
CONTORNO
  6
BYBLOCK
 10
-16.0
 20
-7.5
 30
0.0
  0
VERTEX
  5
892
  8
CONTORNO
  6
BYBLOCK
 10
-16.0
 20
7.5
 30
0.0
  0
VERTEX
  5
893
  8
CONTORNO
  6
BYBLOCK
 10
16.0
 20
7.5
 30
0.0
  0
SEQEND
  5
88E
  8
CONTORNO
  6
BYBLOCK
  0
ENDSEC
  0
EOF
