  0
SECTION
  2
HEADER
  9
$ACADVER
  1
AC1018
  9
$ACADMAINTVER
 70
     0
  9
$DWGCODEPAGE
  3
ANSI_1252
  9
$INSBASE
 10
0.0
 20
0.0
 30
0.0
  9
$EXTMIN
 10
-10.0
 20
-30.47951889038086
 30
-6.5
  9
$EXTMAX
 10
48.88723754882812
 20
0.0
 30
6.5142822265625
  9
$LIMMIN
 10
0.0
 20
0.0
  9
$LIMMAX
 10
12.0
 20
9.0
  9
$ORTHOMODE
 70
     0
  9
$REGENMODE
 70
     1
  9
$FILLMODE
 70
     1
  9
$QTEXTMODE
 70
     0
  9
$MIRRTEXT
 70
     1
  9
$LTSCALE
 40
1.0
  9
$ATTMODE
 70
     1
  9
$TEXTSIZE
 40
0.2
  9
$TRACEWID
 40
0.05
  9
$TEXTSTYLE
  7
Standard
  9
$CLAYER
  8
0
  9
$CELTYPE
  6
ByLayer
  9
$CECOLOR
 62
   256
  9
$CELTSCALE
 40
1.0
  9
$DISPSILH
 70
     0
  9
$DIMSCALE
 40
1.0
  9
$DIMASZ
 40
0.18
  9
$DIMEXO
 40
0.0625
  9
$DIMDLI
 40
0.38
  9
$DIMRND
 40
0.0
  9
$DIMDLE
 40
0.0
  9
$DIMEXE
 40
0.18
  9
$DIMTP
 40
0.0
  9
$DIMTM
 40
0.0
  9
$DIMTXT
 40
0.18
  9
$DIMCEN
 40
0.09
  9
$DIMTSZ
 40
0.0
  9
$DIMTOL
 70
     0
  9
$DIMLIM
 70
     0
  9
$DIMTIH
 70
     1
  9
$DIMTOH
 70
     1
  9
$DIMSE1
 70
     0
  9
$DIMSE2
 70
     0
  9
$DIMTAD
 70
     0
  9
$DIMZIN
 70
     0
  9
$DIMBLK
  1

  9
$DIMASO
 70
     1
  9
$DIMSHO
 70
     1
  9
$DIMPOST
  1

  9
$DIMAPOST
  1

  9
$DIMALT
 70
     0
  9
$DIMALTD
 70
     2
  9
$DIMALTF
 40
25.4
  9
$DIMLFAC
 40
1.0
  9
$DIMTOFL
 70
     0
  9
$DIMTVP
 40
0.0
  9
$DIMTIX
 70
     0
  9
$DIMSOXD
 70
     0
  9
$DIMSAH
 70
     0
  9
$DIMBLK1
  1

  9
$DIMBLK2
  1

  9
$DIMSTYLE
  2
Standard
  9
$DIMCLRD
 70
     0
  9
$DIMCLRE
 70
     0
  9
$DIMCLRT
 70
     0
  9
$DIMTFAC
 40
1.0
  9
$DIMGAP
 40
0.09
  9
$DIMJUST
 70
     0
  9
$DIMSD1
 70
     0
  9
$DIMSD2
 70
     0
  9
$DIMTOLJ
 70
     1
  9
$DIMTZIN
 70
     0
  9
$DIMALTZ
 70
     0
  9
$DIMALTTZ
 70
     0
  9
$DIMUPT
 70
     0
  9
$DIMDEC
 70
     4
  9
$DIMTDEC
 70
     4
  9
$DIMALTU
 70
     2
  9
$DIMALTTD
 70
     2
  9
$DIMTXSTY
  7
Standard
  9
$DIMAUNIT
 70
     0
  9
$DIMADEC
 70
     0
  9
$DIMALTRND
 40
0.0
  9
$DIMAZIN
 70
     0
  9
$DIMDSEP
 70
    46
  9
$DIMATFIT
 70
     3
  9
$DIMFRAC
 70
     0
  9
$DIMLDRBLK
  1

  9
$DIMLUNIT
 70
     2
  9
$DIMLWD
 70
    -2
  9
$DIMLWE
 70
    -2
  9
$DIMTMOVE
 70
     2
  9
$LUNITS
 70
     2
  9
$LUPREC
 70
     3
  9
$SKETCHINC
 40
0.1
  9
$FILLETRAD
 40
0.5
  9
$AUNITS
 70
     0
  9
$AUPREC
 70
     0
  9
$MENU
  1
.
  9
$ELEVATION
 40
0.0
  9
$PELEVATION
 40
0.0
  9
$THICKNESS
 40
0.0
  9
$LIMCHECK
 70
     0
  9
$CHAMFERA
 40
0.5
  9
$CHAMFERB
 40
0.5
  9
$CHAMFERC
 40
1.0
  9
$CHAMFERD
 40
0.0
  9
$SKPOLY
 70
     0
  9
$TDCREATE
 40
2456512.476922049
  9
$TDUCREATE
 40
2456512.601922049
  9
$TDUPDATE
 40
2456512.47692206
  9
$TDUUPDATE
 40
2456512.60192206
  9
$TDINDWG
 40
0.0000000116
  9
$TDUSRTIMER
 40
0.0000000116
  9
$USRTIMER
 70
     1
  9
$ANGBASE
 50
0.0
  9
$ANGDIR
 70
     0
  9
$PDMODE
 70
     0
  9
$PDSIZE
 40
0.0
  9
$PLINEWID
 40
0.0
  9
$SPLFRAME
 70
     0
  9
$SPLINETYPE
 70
     6
  9
$SPLINESEGS
 70
     8
  9
$HANDSEED
  5
182
  9
$SURFTAB1
 70
     6
  9
$SURFTAB2
 70
     6
  9
$SURFTYPE
 70
     6
  9
$SURFU
 70
     6
  9
$SURFV
 70
     6
  9
$UCSBASE
  2

  9
$UCSNAME
  2

  9
$UCSORG
 10
0.0
 20
0.0
 30
0.0
  9
$UCSXDIR
 10
1.0
 20
0.0
 30
0.0
  9
$UCSYDIR
 10
0.0
 20
1.0
 30
0.0
  9
$UCSORTHOREF
  2

  9
$UCSORTHOVIEW
 70
     0
  9
$UCSORGTOP
 10
0.0
 20
0.0
 30
0.0
  9
$UCSORGBOTTOM
 10
0.0
 20
0.0
 30
0.0
  9
$UCSORGLEFT
 10
0.0
 20
0.0
 30
0.0
  9
$UCSORGRIGHT
 10
0.0
 20
0.0
 30
0.0
  9
$UCSORGFRONT
 10
0.0
 20
0.0
 30
0.0
  9
$UCSORGBACK
 10
0.0
 20
0.0
 30
0.0
  9
$PUCSBASE
  2

  9
$PUCSNAME
  2

  9
$PUCSORG
 10
0.0
 20
0.0
 30
0.0
  9
$PUCSXDIR
 10
1.0
 20
0.0
 30
0.0
  9
$PUCSYDIR
 10
0.0
 20
1.0
 30
0.0
  9
$PUCSORTHOREF
  2

  9
$PUCSORTHOVIEW
 70
     0
  9
$PUCSORGTOP
 10
0.0
 20
0.0
 30
0.0
  9
$PUCSORGBOTTOM
 10
0.0
 20
0.0
 30
0.0
  9
$PUCSORGLEFT
 10
0.0
 20
0.0
 30
0.0
  9
$PUCSORGRIGHT
 10
0.0
 20
0.0
 30
0.0
  9
$PUCSORGFRONT
 10
0.0
 20
0.0
 30
0.0
  9
$PUCSORGBACK
 10
0.0
 20
0.0
 30
0.0
  9
$USERI1
 70
     0
  9
$USERI2
 70
     0
  9
$USERI3
 70
     0
  9
$USERI4
 70
     0
  9
$USERI5
 70
     0
  9
$USERR1
 40
0.0
  9
$USERR2
 40
0.0
  9
$USERR3
 40
0.0
  9
$USERR4
 40
0.0
  9
$USERR5
 40
0.0
  9
$WORLDVIEW
 70
     1
  9
$SHADEDGE
 70
     3
  9
$SHADEDIF
 70
    70
  9
$TILEMODE
 70
     1
  9
$MAXACTVP
 70
    64
  9
$PINSBASE
 10
0.0
 20
0.0
 30
0.0
  9
$PLIMCHECK
 70
     0
  9
$PEXTMIN
 10
1.000000000000000E+20
 20
1.000000000000000E+20
 30
1.000000000000000E+20
  9
$PEXTMAX
 10
-1.000000000000000E+20
 20
-1.000000000000000E+20
 30
-1.000000000000000E+20
  9
$PLIMMIN
 10
0.0
 20
0.0
  9
$PLIMMAX
 10
12.0
 20
9.0
  9
$UNITMODE
 70
     0
  9
$VISRETAIN
 70
     1
  9
$PLINEGEN
 70
     0
  9
$PSLTSCALE
 70
     1
  9
$TREEDEPTH
 70
  3020
  9
$CMLSTYLE
  2
Standard
  9
$CMLJUST
 70
     0
  9
$CMLSCALE
 40
1.0
  9
$PROXYGRAPHICS
 70
     1
  9
$MEASUREMENT
 70
     0
  9
$CELWEIGHT
370
    -1
  9
$ENDCAPS
280
     0
  9
$JOINSTYLE
280
     0
  9
$LWDISPLAY
290
     0
  9
$INSUNITS
 70
     4
  9
$HYPERLINKBASE
  1

  9
$STYLESHEET
  1

  9
$XEDIT
290
     1
  9
$CEPSNTYPE
380
     0
  9
$PSTYLEMODE
290
     1
  9
$FINGERPRINTGUID
  2
{B0CBA546-B998-4495-BD7E-F3D18E98DE3B}
  9
$VERSIONGUID
  2
{FAEB1C32-E019-11D5-929B-00C0DF256EC4}
  9
$EXTNAMES
290
     1
  9
$PSVPSCALE
 40
0.0
  9
$OLESTARTUP
290
     0
  9
$SORTENTS
280
   127
  9
$INDEXCTL
280
     0
  9
$HIDETEXT
280
     1
  9
$XCLIPFRAME
290
     0
  9
$HALOGAP
280
     0
  9
$OBSCOLOR
 70
   257
  9
$OBSLTYPE
280
     0
  9
$INTERSECTIONDISPLAY
280
     0
  9
$INTERSECTIONCOLOR
 70
   257
  9
$DIMASSOC
280
     2
  9
$PROJECTNAME
  1

  0
ENDSEC
  0
SECTION
  2
CLASSES
  0
CLASS
  1
ACDBDICTIONARYWDFLT
  2
AcDbDictionaryWithDefault
  3
ObjectDBX Classes
 90
        0
 91
        4
280
     0
281
     0
  0
CLASS
  1
VISUALSTYLE
  2
AcDbVisualStyle
  3
ObjectDBX Classes
 90
     4095
 91
        4
280
     0
281
     0
  0
ENDSEC
  0
SECTION
  2
TABLES
  0
TABLE
  2
VPORT
  5
8
330
0
100
AcDbSymbolTable
 70
     1
  0
VPORT
  5
29
330
8
100
AcDbSymbolTableRecord
100
AcDbViewportTableRecord
  2
*Active
 70
     0
 10
0.0
 20
0.0
 11
1.0
 21
1.0
 12
19.44361877441406
 22
-15.23975944519043
 13
0.0
 23
0.0
 14
0.5
 24
0.5
 15
0.5
 25
0.5
 16
0.0
 26
0.0
 36
1.0
 17
0.0
 27
0.0
 37
0.0
 40
31.08910926818848
 41
1.932026478522027
 42
50.0
 43
0.0
 44
0.0
 50
0.0
 51
0.0
 71
     0
 72
   100
 73
     1
 74
     3
 75
     0
 76
     0
 77
     0
 78
     0
281
     0
 65
     1
110
0.0
120
0.0
130
0.0
111
1.0
121
0.0
131
0.0
112
0.0
122
1.0
132
0.0
 79
     0
146
0.0
  0
ENDTAB
  0
TABLE
  2
LTYPE
  5
5
330
0
100
AcDbSymbolTable
 70
     1
  0
LTYPE
  5
14
330
5
100
AcDbSymbolTableRecord
100
AcDbLinetypeTableRecord
  2
ByBlock
 70
     0
  3

 72
    65
 73
     0
 40
0.0
  0
LTYPE
  5
15
330
5
100
AcDbSymbolTableRecord
100
AcDbLinetypeTableRecord
  2
ByLayer
 70
     0
  3

 72
    65
 73
     0
 40
0.0
  0
LTYPE
  5
16
330
5
100
AcDbSymbolTableRecord
100
AcDbLinetypeTableRecord
  2
Continuous
 70
     0
  3
Solid line
 72
    65
 73
     0
 40
0.0
  0
ENDTAB
  0
TABLE
  2
LAYER
  5
2
330
0
100
AcDbSymbolTable
 70
     2
  0
LAYER
  5
10
330
2
100
AcDbSymbolTableRecord
100
AcDbLayerTableRecord
  2
0
 70
     0
 62
     7
  6
Continuous
370
    -3
390
F
  0
LAYER
  5
3B
330
2
100
AcDbSymbolTableRecord
100
AcDbLayerTableRecord
  2
METAL
 70
     0
 62
   140
  6
Continuous
370
    -3
390
F
  0
ENDTAB
  0
TABLE
  2
STYLE
  5
3
330
0
100
AcDbSymbolTable
 70
     1
  0
STYLE
  5
11
330
3
100
AcDbSymbolTableRecord
100
AcDbTextStyleTableRecord
  2
Standard
 70
     0
 40
0.0
 41
1.0
 50
0.0
 71
     0
 42
0.2
  3
txt
  4

  0
ENDTAB
  0
TABLE
  2
VIEW
  5
6
330
0
100
AcDbSymbolTable
 70
     0
  0
ENDTAB
  0
TABLE
  2
UCS
  5
7
330
0
100
AcDbSymbolTable
 70
     0
  0
ENDTAB
  0
TABLE
  2
APPID
  5
9
330
0
100
AcDbSymbolTable
 70
     1
  0
APPID
  5
12
330
9
100
AcDbSymbolTableRecord
100
AcDbRegAppTableRecord
  2
ACAD
 70
     0
  0
ENDTAB
  0
TABLE
  2
DIMSTYLE
  5
A
330
0
100
AcDbSymbolTable
 70
     1
100
AcDbDimStyleTable
  0
DIMSTYLE
105
27
330
A
100
AcDbSymbolTableRecord
100
AcDbDimStyleTableRecord
  2
Standard
 70
     0
340
11
  0
ENDTAB
  0
TABLE
  2
BLOCK_RECORD
  5
1
330
0
100
AcDbSymbolTable
 70
     1
  0
BLOCK_RECORD
  5
1F
330
1
100
AcDbSymbolTableRecord
100
AcDbBlockTableRecord
  2
*Model_Space
340
22
  0
BLOCK_RECORD
  5
1B
330
1
100
AcDbSymbolTableRecord
100
AcDbBlockTableRecord
  2
*Paper_Space
340
1E
  0
BLOCK_RECORD
  5
23
330
1
100
AcDbSymbolTableRecord
100
AcDbBlockTableRecord
  2
*Paper_Space0
340
26
  0
ENDTAB
  0
ENDSEC
  0
SECTION
  2
BLOCKS
  0
BLOCK
  5
20
330
1F
100
AcDbEntity
  8
0
100
AcDbBlockBegin
  2
*Model_Space
 70
     0
 10
0.0
 20
0.0
 30
0.0
  3
*Model_Space
  1

  0
ENDBLK
  5
21
330
1F
100
AcDbEntity
  8
0
100
AcDbBlockEnd
  0
BLOCK
  5
1C
330
1B
100
AcDbEntity
 67
     1
  8
0
100
AcDbBlockBegin
  2
*Paper_Space
 70
     0
 10
0.0
 20
0.0
 30
0.0
  3
*Paper_Space
  1

  0
ENDBLK
  5
1D
330
1B
100
AcDbEntity
 67
     1
  8
0
100
AcDbBlockEnd
  0
BLOCK
  5
24
330
23
100
AcDbEntity
  8
0
100
AcDbBlockBegin
  2
*Paper_Space0
 70
     0
 10
0.0
 20
0.0
 30
0.0
  3
*Paper_Space0
  1

  0
ENDBLK
  5
25
330
23
100
AcDbEntity
  8
0
100
AcDbBlockEnd
  0
ENDSEC
  0
SECTION
  2
ENTITIES
  0
POLYLINE
  5
3C
330
1F
100
AcDbEntity
  8
METAL
100
AcDbPolyFaceMesh
 66
     1
 10
0.0
 20
0.0
 30
0.0
 70
    64
 71
   164
 72
   158
  0
VERTEX
  5
3D
330
3C
100
AcDbEntity
  8
METAL
100
AcDbVertex
100
AcDbPolyFaceMeshVertex
 10
48.88723754882812
 20
-28.81961059570312
 30
0.00714111328125
 70
   192
  0
VERTEX
  5
3E
330
3C
100
AcDbEntity
  8
METAL
100
AcDbVertex
100
AcDbPolyFaceMeshVertex
 10
48.8857307434082
 20
-27.19571685791016
 30
0.00714111328125
 70
   192
  0
VERTEX
  5
3F
330
3C
100
AcDbEntity
  8
METAL
100
AcDbVertex
100
AcDbPolyFaceMeshVertex
 10
48.88541030883789
 20
-26.85049819946289
 30
0.00714111328125
 70
   192
  0
VERTEX
  5
40
330
3C
100
AcDbEntity
  8
METAL
100
AcDbVertex
100
AcDbPolyFaceMeshVertex
 10
48.88369750976562
 20
-25.00012969970703
 30
0.00714111328125
 70
   192
  0
VERTEX
  5
41
330
3C
100
AcDbEntity
  8
METAL
100
AcDbVertex
100
AcDbPolyFaceMeshVertex
 10
48.8233757019043
 20
-28.47146224975586
 30
1.876495361328125
 70
   192
  0
VERTEX
  5
42
330
3C
100
AcDbEntity
  8
METAL
100
AcDbVertex
100
AcDbPolyFaceMeshVertex
 10
48.8233757019043
 20
-28.47146606445312
 30
-1.862213134765625
 70
   192
  0
VERTEX
  5
43
330
3C
100
AcDbEntity
  8
METAL
100
AcDbVertex
100
AcDbPolyFaceMeshVertex
 10
48.82219314575195
 20
-27.18738555908203
 30
1.8746337890625
 70
   192
  0
VERTEX
  5
44
330
3C
100
AcDbEntity
  8
METAL
100
AcDbVertex
100
AcDbPolyFaceMeshVertex
 10
48.82219314575195
 20
-27.18738555908203
 30
-1.860382080078125
 70
   192
  0
VERTEX
  5
45
330
3C
100
AcDbEntity
  8
METAL
100
AcDbVertex
100
AcDbPolyFaceMeshVertex
 10
48.82187652587891
 20
-26.8417854309082
 30
1.8741455078125
 70
   192
  0
VERTEX
  5
46
330
3C
100
AcDbEntity
  8
METAL
100
AcDbVertex
100
AcDbPolyFaceMeshVertex
 10
48.82187652587891
 20
-26.8417854309082
 30
-1.85986328125
 70
   192
  0
VERTEX
  5
47
330
3C
100
AcDbEntity
  8
METAL
100
AcDbVertex
100
AcDbPolyFaceMeshVertex
 10
48.82049179077148
 20
-25.34745025634766
 30
1.87200927734375
 70
   192
  0
VERTEX
  5
48
330
3C
100
AcDbEntity
  8
METAL
100
AcDbVertex
100
AcDbPolyFaceMeshVertex
 10
48.82049179077148
 20
-25.34745025634766
 30
-1.85772705078125
 70
   192
  0
VERTEX
  5
49
330
3C
100
AcDbEntity
  8
METAL
100
AcDbVertex
100
AcDbPolyFaceMeshVertex
 10
48.65556335449219
 20
-28.13443374633789
 30
3.74761962890625
 70
   192
  0
VERTEX
  5
4A
330
3C
100
AcDbEntity
  8
METAL
100
AcDbVertex
100
AcDbPolyFaceMeshVertex
 10
48.65556335449219
 20
-28.13443756103516
 30
-3.73333740234375
 70
   192
  0
VERTEX
  5
4B
330
3C
100
AcDbEntity
  8
METAL
100
AcDbVertex
100
AcDbPolyFaceMeshVertex
 10
48.65466690063477
 20
-27.16541290283203
 30
3.74444580078125
 70
   192
  0
VERTEX
  5
4C
330
3C
100
AcDbEntity
  8
METAL
100
AcDbVertex
100
AcDbPolyFaceMeshVertex
 10
48.65466690063477
 20
-27.1654167175293
 30
-3.73016357421875
 70
   192
  0
VERTEX
  5
4D
330
3C
100
AcDbEntity
  8
METAL
100
AcDbVertex
100
AcDbPolyFaceMeshVertex
 10
48.65434646606445
 20
-26.81880950927734
 30
3.743316650390625
 70
   192
  0
VERTEX
  5
4E
330
3C
100
AcDbEntity
  8
METAL
100
AcDbVertex
100
AcDbPolyFaceMeshVertex
 10
48.65434646606445
 20
-26.81880950927734
 30
-3.729034423828125
 70
   192
  0
VERTEX
  5
4F
330
3C
100
AcDbEntity
  8
METAL
100
AcDbVertex
100
AcDbPolyFaceMeshVertex
 10
48.65331649780273
 20
-25.7064323425293
 30
3.739654541015625
 70
   192
  0
VERTEX
  5
50
330
3C
100
AcDbEntity
  8
METAL
100
AcDbVertex
100
AcDbPolyFaceMeshVertex
 10
48.65331649780273
 20
-25.70643997192383
 30
-3.725372314453125
 70
   192
  0
VERTEX
  5
51
330
3C
100
AcDbEntity
  8
METAL
100
AcDbVertex
100
AcDbPolyFaceMeshVertex
 10
48.5771484375
 20
-23.95550155639648
 30
0.00714111328125
 70
   192
  0
VERTEX
  5
52
330
3C
100
AcDbEntity
  8
METAL
100
AcDbVertex
100
AcDbPolyFaceMeshVertex
 10
48.57242584228516
 20
-29.80836486816406
 30
0.00714111328125
 70
   192
  0
VERTEX
  5
53
330
3C
100
AcDbEntity
  8
METAL
100
AcDbVertex
100
AcDbPolyFaceMeshVertex
 10
48.5126953125
 20
-24.32794570922852
 30
1.981475830078125
 70
   192
  0
VERTEX
  5
54
330
3C
100
AcDbEntity
  8
METAL
100
AcDbVertex
100
AcDbPolyFaceMeshVertex
 10
48.5126953125
 20
-24.32794952392578
 30
-1.967193603515625
 70
   192
  0
VERTEX
  5
55
330
3C
100
AcDbEntity
  8
METAL
100
AcDbVertex
100
AcDbPolyFaceMeshVertex
 10
48.50807571411133
 20
-29.43444061279297
 30
1.98260498046875
 70
   192
  0
VERTEX
  5
56
330
3C
100
AcDbEntity
  8
METAL
100
AcDbVertex
100
AcDbPolyFaceMeshVertex
 10
48.50807571411133
 20
-29.4344482421875
 30
-1.96832275390625
 70
   192
  0
VERTEX
  5
57
330
3C
100
AcDbEntity
  8
METAL
100
AcDbVertex
100
AcDbPolyFaceMeshVertex
 10
48.3449821472168
 20
-24.70989608764648
 30
3.95648193359375
 70
   192
  0
VERTEX
  5
58
330
3C
100
AcDbEntity
  8
METAL
100
AcDbVertex
100
AcDbPolyFaceMeshVertex
 10
48.3449821472168
 20
-24.70989990234375
 30
-3.942230224609375
 70
   192
  0
VERTEX
  5
59
330
3C
100
AcDbEntity
  8
METAL
100
AcDbVertex
100
AcDbPolyFaceMeshVertex
 10
48.33984756469727
 20
-29.07164001464844
 30
3.95849609375
 70
   192
  0
VERTEX
  5
5A
330
3C
100
AcDbEntity
  8
METAL
100
AcDbVertex
100
AcDbPolyFaceMeshVertex
 10
48.33984756469727
 20
-29.0716438293457
 30
-3.9442138671875
 70
   192
  0
VERTEX
  5
5B
330
3C
100
AcDbEntity
  8
METAL
100
AcDbVertex
100
AcDbPolyFaceMeshVertex
 10
48.21691131591797
 20
-27.1080207824707
 30
5.5216064453125
 70
   192
  0
VERTEX
  5
5C
330
3C
100
AcDbEntity
  8
METAL
100
AcDbVertex
100
AcDbPolyFaceMeshVertex
 10
48.21691131591797
 20
-27.10802841186523
 30
-5.50732421875
 70
   192
  0
VERTEX
  5
5D
330
3C
100
AcDbEntity
  8
METAL
100
AcDbVertex
100
AcDbPolyFaceMeshVertex
 10
48.21658706665039
 20
-26.75876235961914
 30
5.52154541015625
 70
   192
  0
VERTEX
  5
5E
330
3C
100
AcDbEntity
  8
METAL
100
AcDbVertex
100
AcDbPolyFaceMeshVertex
 10
48.21658706665039
 20
-26.75876617431641
 30
-5.507293701171875
 70
   192
  0
VERTEX
  5
5F
330
3C
100
AcDbEntity
  8
METAL
100
AcDbVertex
100
AcDbPolyFaceMeshVertex
 10
47.90403747558594
 20
-26.09697723388672
 30
6.26611328125
 70
   192
  0
VERTEX
  5
60
330
3C
100
AcDbEntity
  8
METAL
100
AcDbVertex
100
AcDbPolyFaceMeshVertex
 10
47.90403747558594
 20
-26.09698104858398
 30
-6.2518310546875
 70
   192
  0
VERTEX
  5
61
330
3C
100
AcDbEntity
  8
METAL
100
AcDbVertex
100
AcDbPolyFaceMeshVertex
 10
47.90108871459961
 20
-27.70050430297852
 30
6.26611328125
 70
   192
  0
VERTEX
  5
62
330
3C
100
AcDbEntity
  8
METAL
100
AcDbVertex
100
AcDbPolyFaceMeshVertex
 10
47.90108871459961
 20
-27.70051574707031
 30
-6.2518310546875
 70
   192
  0
VERTEX
  5
63
330
3C
100
AcDbEntity
  8
METAL
100
AcDbVertex
100
AcDbPolyFaceMeshVertex
 10
47.65988159179688
 20
-23.3839225769043
 30
0.00714111328125
 70
   192
  0
VERTEX
  5
64
330
3C
100
AcDbEntity
  8
METAL
100
AcDbVertex
100
AcDbPolyFaceMeshVertex
 10
47.62563323974609
 20
-30.21232986450195
 30
0.00714111328125
 70
   192
  0
VERTEX
  5
65
330
3C
100
AcDbEntity
  8
METAL
100
AcDbVertex
100
AcDbPolyFaceMeshVertex
 10
47.59164810180664
 20
-23.77742385864258
 30
2.0179443359375
 70
   192
  0
VERTEX
  5
66
330
3C
100
AcDbEntity
  8
METAL
100
AcDbVertex
100
AcDbPolyFaceMeshVertex
 10
47.59164810180664
 20
-23.77742385864258
 30
-2.003692626953125
 70
   192
  0
VERTEX
  5
67
330
3C
100
AcDbEntity
  8
METAL
100
AcDbVertex
100
AcDbPolyFaceMeshVertex
 10
47.55985260009766
 20
-29.81377029418945
 30
2.0179443359375
 70
   192
  0
VERTEX
  5
68
330
3C
100
AcDbEntity
  8
METAL
100
AcDbVertex
100
AcDbPolyFaceMeshVertex
 10
47.55985260009766
 20
-29.81377410888672
 30
-2.003692626953125
 70
   192
  0
VERTEX
  5
69
330
3C
100
AcDbEntity
  8
METAL
100
AcDbVertex
100
AcDbPolyFaceMeshVertex
 10
47.42224502563477
 20
-24.17294692993164
 30
4.028778076171875
 70
   192
  0
VERTEX
  5
6A
330
3C
100
AcDbEntity
  8
METAL
100
AcDbVertex
100
AcDbPolyFaceMeshVertex
 10
47.42224502563477
 20
-24.17295074462891
 30
-4.014495849609375
 70
   192
  0
VERTEX
  5
6B
330
3C
100
AcDbEntity
  8
METAL
100
AcDbVertex
100
AcDbPolyFaceMeshVertex
 10
47.39042663574219
 20
-29.42426300048828
 30
4.028778076171875
 70
   192
  0
VERTEX
  5
6C
330
3C
100
AcDbEntity
  8
METAL
100
AcDbVertex
100
AcDbPolyFaceMeshVertex
 10
47.39042663574219
 20
-29.42426300048828
 30
-4.014495849609375
 70
   192
  0
VERTEX
  5
6D
330
3C
100
AcDbEntity
  8
METAL
100
AcDbVertex
100
AcDbPolyFaceMeshVertex
 10
46.96787643432617
 20
-25.72782897949219
 30
-6.5
 70
   192
  0
VERTEX
  5
6E
330
3C
100
AcDbEntity
  8
METAL
100
AcDbVertex
100
AcDbPolyFaceMeshVertex
 10
46.96787261962891
 20
-25.72782516479492
 30
6.5142822265625
 70
   192
  0
VERTEX
  5
6F
330
3C
100
AcDbEntity
  8
METAL
100
AcDbVertex
100
AcDbPolyFaceMeshVertex
 10
46.95212554931641
 20
-27.84854888916016
 30
6.5142822265625
 70
   192
  0
VERTEX
  5
70
330
3C
100
AcDbEntity
  8
METAL
100
AcDbVertex
100
AcDbPolyFaceMeshVertex
 10
46.95212554931641
 20
-27.84855651855469
 30
-6.5
 70
   192
  0
VERTEX
  5
71
330
3C
100
AcDbEntity
  8
METAL
100
AcDbVertex
100
AcDbPolyFaceMeshVertex
 10
41.94049835205078
 20
-22.58245849609375
 30
0.00714111328125
 70
   192
  0
VERTEX
  5
72
330
3C
100
AcDbEntity
  8
METAL
100
AcDbVertex
100
AcDbPolyFaceMeshVertex
 10
41.93900680541992
 20
-23.04214477539062
 30
2.0179443359375
 70
   192
  0
VERTEX
  5
73
330
3C
100
AcDbEntity
  8
METAL
100
AcDbVertex
100
AcDbPolyFaceMeshVertex
 10
41.93900680541992
 20
-23.04214096069336
 30
-2.003692626953125
 70
   192
  0
VERTEX
  5
74
330
3C
100
AcDbEntity
  8
METAL
100
AcDbVertex
100
AcDbPolyFaceMeshVertex
 10
41.93751525878906
 20
-23.50181579589844
 30
4.028778076171875
 70
   192
  0
VERTEX
  5
75
330
3C
100
AcDbEntity
  8
METAL
100
AcDbVertex
100
AcDbPolyFaceMeshVertex
 10
41.93751525878906
 20
-23.50181579589844
 30
-4.014495849609375
 70
   192
  0
VERTEX
  5
76
330
3C
100
AcDbEntity
  8
METAL
100
AcDbVertex
100
AcDbPolyFaceMeshVertex
 10
41.92517471313477
 20
-25.32884979248047
 30
6.5142822265625
 70
   192
  0
VERTEX
  5
77
330
3C
100
AcDbEntity
  8
METAL
100
AcDbVertex
100
AcDbPolyFaceMeshVertex
 10
41.92517471313477
 20
-25.3288459777832
 30
-6.5
 70
   192
  0
VERTEX
  5
78
330
3C
100
AcDbEntity
  8
METAL
100
AcDbVertex
100
AcDbPolyFaceMeshVertex
 10
41.92005157470703
 20
-27.72280883789062
 30
6.5142822265625
 70
   192
  0
VERTEX
  5
79
330
3C
100
AcDbEntity
  8
METAL
100
AcDbVertex
100
AcDbPolyFaceMeshVertex
 10
41.92005157470703
 20
-27.72280883789062
 30
-6.5
 70
   192
  0
VERTEX
  5
7A
330
3C
100
AcDbEntity
  8
METAL
100
AcDbVertex
100
AcDbPolyFaceMeshVertex
 10
41.9122428894043
 20
-29.56015396118164
 30
4.028778076171875
 70
   192
  0
VERTEX
  5
7B
330
3C
100
AcDbEntity
  8
METAL
100
AcDbVertex
100
AcDbPolyFaceMeshVertex
 10
41.9122428894043
 20
-29.56015396118164
 30
-4.014495849609375
 70
   192
  0
VERTEX
  5
7C
330
3C
100
AcDbEntity
  8
METAL
100
AcDbVertex
100
AcDbPolyFaceMeshVertex
 10
41.91075134277344
 20
-30.01983642578125
 30
2.0179443359375
 70
   192
  0
VERTEX
  5
7D
330
3C
100
AcDbEntity
  8
METAL
100
AcDbVertex
100
AcDbPolyFaceMeshVertex
 10
41.91075134277344
 20
-30.01983642578125
 30
-2.003692626953125
 70
   192
  0
VERTEX
  5
7E
330
3C
100
AcDbEntity
  8
METAL
100
AcDbVertex
100
AcDbPolyFaceMeshVertex
 10
41.90925979614258
 20
-30.47951889038086
 30
0.00714111328125
 70
   192
  0
VERTEX
  5
7F
330
3C
100
AcDbEntity
  8
METAL
100
AcDbVertex
100
AcDbPolyFaceMeshVertex
 10
38.30926513671875
 20
-21.3847541809082
 30
0.00714111328125
 70
   192
  0
VERTEX
  5
80
330
3C
100
AcDbEntity
  8
METAL
100
AcDbVertex
100
AcDbPolyFaceMeshVertex
 10
38.17090606689453
 20
-21.93914413452148
 30
1.918365478515625
 70
   192
  0
VERTEX
  5
81
330
3C
100
AcDbEntity
  8
METAL
100
AcDbVertex
100
AcDbPolyFaceMeshVertex
 10
38.17090606689453
 20
-21.93914031982422
 30
-1.90411376953125
 70
   192
  0
VERTEX
  5
82
330
3C
100
AcDbEntity
  8
METAL
100
AcDbVertex
100
AcDbPolyFaceMeshVertex
 10
38.03255081176758
 20
-22.4935302734375
 30
3.829620361328125
 70
   192
  0
VERTEX
  5
83
330
3C
100
AcDbEntity
  8
METAL
100
AcDbVertex
100
AcDbPolyFaceMeshVertex
 10
38.03255081176758
 20
-22.4935302734375
 30
-3.815338134765625
 70
   192
  0
VERTEX
  5
84
330
3C
100
AcDbEntity
  8
METAL
100
AcDbVertex
100
AcDbPolyFaceMeshVertex
 10
37.50115966796875
 20
-24.55197906494141
 30
6.192047119140625
 70
   192
  0
VERTEX
  5
85
330
3C
100
AcDbEntity
  8
METAL
100
AcDbVertex
100
AcDbPolyFaceMeshVertex
 10
37.50115966796875
 20
-24.55197906494141
 30
-6.177764892578125
 70
   192
  0
VERTEX
  5
86
330
3C
100
AcDbEntity
  8
METAL
100
AcDbVertex
100
AcDbPolyFaceMeshVertex
 10
36.90319061279297
 20
-26.88938522338867
 30
6.192047119140625
 70
   192
  0
VERTEX
  5
87
330
3C
100
AcDbEntity
  8
METAL
100
AcDbVertex
100
AcDbPolyFaceMeshVertex
 10
36.90319061279297
 20
-26.88938140869141
 30
-6.177764892578125
 70
   192
  0
VERTEX
  5
88
330
3C
100
AcDbEntity
  8
METAL
100
AcDbVertex
100
AcDbPolyFaceMeshVertex
 10
36.31923675537109
 20
-29.06115341186523
 30
3.829620361328125
 70
   192
  0
VERTEX
  5
89
330
3C
100
AcDbEntity
  8
METAL
100
AcDbVertex
100
AcDbPolyFaceMeshVertex
 10
36.31923675537109
 20
-29.06115341186523
 30
-3.815338134765625
 70
   192
  0
VERTEX
  5
8A
330
3C
100
AcDbEntity
  8
METAL
100
AcDbVertex
100
AcDbPolyFaceMeshVertex
 10
36.18086242675781
 20
-29.61553955078125
 30
1.918365478515625
 70
   192
  0
VERTEX
  5
8B
330
3C
100
AcDbEntity
  8
METAL
100
AcDbVertex
100
AcDbPolyFaceMeshVertex
 10
36.18086242675781
 20
-29.61553955078125
 30
-1.90411376953125
 70
   192
  0
VERTEX
  5
8C
330
3C
100
AcDbEntity
  8
METAL
100
AcDbVertex
100
AcDbPolyFaceMeshVertex
 10
36.04250717163086
 20
-30.16992568969727
 30
0.00714111328125
 70
   192
  0
VERTEX
  5
8D
330
3C
100
AcDbEntity
  8
METAL
100
AcDbVertex
100
AcDbPolyFaceMeshVertex
 10
32.42467498779297
 20
-18.72688674926758
 30
0.00714111328125
 70
   192
  0
VERTEX
  5
8E
330
3C
100
AcDbEntity
  8
METAL
100
AcDbVertex
100
AcDbPolyFaceMeshVertex
 10
32.14341735839844
 20
-19.31710815429688
 30
1.751739501953125
 70
   192
  0
VERTEX
  5
8F
330
3C
100
AcDbEntity
  8
METAL
100
AcDbVertex
100
AcDbPolyFaceMeshVertex
 10
32.14341735839844
 20
-19.31710815429688
 30
-1.737457275390625
 70
   192
  0
VERTEX
  5
90
330
3C
100
AcDbEntity
  8
METAL
100
AcDbVertex
100
AcDbPolyFaceMeshVertex
 10
31.86214828491211
 20
-19.90732192993164
 30
3.496337890625
 70
   192
  0
VERTEX
  5
91
330
3C
100
AcDbEntity
  8
METAL
100
AcDbVertex
100
AcDbPolyFaceMeshVertex
 10
31.86214828491211
 20
-19.90732192993164
 30
-3.4820556640625
 70
   192
  0
VERTEX
  5
92
330
3C
100
AcDbEntity
  8
METAL
100
AcDbVertex
100
AcDbPolyFaceMeshVertex
 10
30.97482681274414
 20
-21.82066345214844
 30
5.65277099609375
 70
   192
  0
VERTEX
  5
93
330
3C
100
AcDbEntity
  8
METAL
100
AcDbVertex
100
AcDbPolyFaceMeshVertex
 10
30.97482681274414
 20
-21.82066345214844
 30
-5.63848876953125
 70
   192
  0
VERTEX
  5
94
330
3C
100
AcDbEntity
  8
METAL
100
AcDbVertex
100
AcDbPolyFaceMeshVertex
 10
29.81740188598633
 20
-24.16226196289062
 30
5.65277099609375
 70
   192
  0
VERTEX
  5
95
330
3C
100
AcDbEntity
  8
METAL
100
AcDbVertex
100
AcDbPolyFaceMeshVertex
 10
29.81740188598633
 20
-24.16226196289062
 30
-5.63848876953125
 70
   192
  0
VERTEX
  5
96
330
3C
100
AcDbEntity
  8
METAL
100
AcDbVertex
100
AcDbPolyFaceMeshVertex
 10
28.34468460083008
 20
-27.25266647338867
 30
3.496337890625
 70
   192
  0
VERTEX
  5
97
330
3C
100
AcDbEntity
  8
METAL
100
AcDbVertex
100
AcDbPolyFaceMeshVertex
 10
28.34468460083008
 20
-27.25266647338867
 30
-3.4820556640625
 70
   192
  0
VERTEX
  5
98
330
3C
100
AcDbEntity
  8
METAL
100
AcDbVertex
100
AcDbPolyFaceMeshVertex
 10
28.06341552734375
 20
-27.84288024902344
 30
1.751739501953125
 70
   192
  0
VERTEX
  5
99
330
3C
100
AcDbEntity
  8
METAL
100
AcDbVertex
100
AcDbPolyFaceMeshVertex
 10
28.06341552734375
 20
-27.84288024902344
 30
-1.737457275390625
 70
   192
  0
VERTEX
  5
9A
330
3C
100
AcDbEntity
  8
METAL
100
AcDbVertex
100
AcDbPolyFaceMeshVertex
 10
27.78214263916016
 20
-28.43309783935547
 30
0.00714111328125
 70
   192
  0
VERTEX
  5
9B
330
3C
100
AcDbEntity
  8
METAL
100
AcDbVertex
100
AcDbPolyFaceMeshVertex
 10
25.88427734375
 20
-14.4296875
 30
0.00714111328125
 70
   192
  0
VERTEX
  5
9C
330
3C
100
AcDbEntity
  8
METAL
100
AcDbVertex
100
AcDbPolyFaceMeshVertex
 10
25.57911682128906
 20
-15.11296844482422
 30
1.642181396484375
 70
   192
  0
VERTEX
  5
9D
330
3C
100
AcDbEntity
  8
METAL
100
AcDbVertex
100
AcDbPolyFaceMeshVertex
 10
25.57911682128906
 20
-15.11296844482422
 30
-1.627899169921875
 70
   192
  0
VERTEX
  5
9E
330
3C
100
AcDbEntity
  8
METAL
100
AcDbVertex
100
AcDbPolyFaceMeshVertex
 10
25.27395629882812
 20
-15.7962532043457
 30
3.277191162109375
 70
   192
  0
VERTEX
  5
9F
330
3C
100
AcDbEntity
  8
METAL
100
AcDbVertex
100
AcDbPolyFaceMeshVertex
 10
25.27395629882812
 20
-15.7962532043457
 30
-3.262939453125
 70
   192
  0
VERTEX
  5
A0
330
3C
100
AcDbEntity
  8
METAL
100
AcDbVertex
100
AcDbPolyFaceMeshVertex
 10
24.34804534912109
 20
-18.31255722045898
 30
5.117431640625
 70
   192
  0
VERTEX
  5
A1
330
3C
100
AcDbEntity
  8
METAL
100
AcDbVertex
100
AcDbPolyFaceMeshVertex
 10
24.34804534912109
 20
-18.31255722045898
 30
-5.1031494140625
 70
   192
  0
VERTEX
  5
A2
330
3C
100
AcDbEntity
  8
METAL
100
AcDbVertex
100
AcDbPolyFaceMeshVertex
 10
22.84299468994141
 20
-21.48878479003906
 30
5.117431640625
 70
   192
  0
VERTEX
  5
A3
330
3C
100
AcDbEntity
  8
METAL
100
AcDbVertex
100
AcDbPolyFaceMeshVertex
 10
22.84299468994141
 20
-21.48878479003906
 30
-5.1031494140625
 70
   192
  0
VERTEX
  5
A4
330
3C
100
AcDbEntity
  8
METAL
100
AcDbVertex
100
AcDbPolyFaceMeshVertex
 10
21.24516296386719
 20
-25.06650161743164
 30
3.277191162109375
 70
   192
  0
VERTEX
  5
A5
330
3C
100
AcDbEntity
  8
METAL
100
AcDbVertex
100
AcDbPolyFaceMeshVertex
 10
21.24516296386719
 20
-25.06650161743164
 30
-3.262939453125
 70
   192
  0
VERTEX
  5
A6
330
3C
100
AcDbEntity
  8
METAL
100
AcDbVertex
100
AcDbPolyFaceMeshVertex
 10
21.17787170410156
 20
-9.428226470947266
 30
0.00714111328125
 70
   192
  0
VERTEX
  5
A7
330
3C
100
AcDbEntity
  8
METAL
100
AcDbVertex
100
AcDbPolyFaceMeshVertex
 10
20.94001007080078
 20
-25.74978637695312
 30
1.642181396484375
 70
   192
  0
VERTEX
  5
A8
330
3C
100
AcDbEntity
  8
METAL
100
AcDbVertex
100
AcDbPolyFaceMeshVertex
 10
20.94001007080078
 20
-25.74978637695312
 30
-1.627899169921875
 70
   192
  0
VERTEX
  5
A9
330
3C
100
AcDbEntity
  8
METAL
100
AcDbVertex
100
AcDbPolyFaceMeshVertex
 10
20.78615570068359
 20
-10.16746139526367
 30
1.466705322265625
 70
   192
  0
VERTEX
  5
AA
330
3C
100
AcDbEntity
  8
METAL
100
AcDbVertex
100
AcDbPolyFaceMeshVertex
 10
20.78615570068359
 20
-10.16746520996094
 30
-1.452423095703125
 70
   192
  0
VERTEX
  5
AB
330
3C
100
AcDbEntity
  8
METAL
100
AcDbVertex
100
AcDbPolyFaceMeshVertex
 10
20.63484954833984
 20
-26.43307113647461
 30
0.00714111328125
 70
   192
  0
VERTEX
  5
AC
330
3C
100
AcDbEntity
  8
METAL
100
AcDbVertex
100
AcDbPolyFaceMeshVertex
 10
20.39444732666016
 20
-10.90669631958008
 30
2.926239013671875
 70
   192
  0
VERTEX
  5
AD
330
3C
100
AcDbEntity
  8
METAL
100
AcDbVertex
100
AcDbPolyFaceMeshVertex
 10
20.39444732666016
 20
-10.90670013427734
 30
-2.911956787109375
 70
   192
  0
VERTEX
  5
AE
330
3C
100
AcDbEntity
  8
METAL
100
AcDbVertex
100
AcDbPolyFaceMeshVertex
 10
18.73989105224609
 20
-5.278513431549072
 30
0.00714111328125
 70
   192
  0
VERTEX
  5
AF
330
3C
100
AcDbEntity
  8
METAL
100
AcDbVertex
100
AcDbPolyFaceMeshVertex
 10
18.34342193603516
 20
-14.77738952636719
 30
4.730377197265625
 70
   192
  0
VERTEX
  5
B0
330
3C
100
AcDbEntity
  8
METAL
100
AcDbVertex
100
AcDbPolyFaceMeshVertex
 10
18.34342193603516
 20
-14.77739715576172
 30
-4.716094970703125
 70
   192
  0
VERTEX
  5
B1
330
3C
100
AcDbEntity
  8
METAL
100
AcDbVertex
100
AcDbPolyFaceMeshVertex
 10
18.04942321777344
 20
-5.864824295043945
 30
1.34906005859375
 70
   192
  0
VERTEX
  5
B2
330
3C
100
AcDbEntity
  8
METAL
100
AcDbVertex
100
AcDbPolyFaceMeshVertex
 10
18.04942321777344
 20
-5.864824295043945
 30
-1.33477783203125
 70
   192
  0
VERTEX
  5
B3
330
3C
100
AcDbEntity
  8
METAL
100
AcDbVertex
100
AcDbPolyFaceMeshVertex
 10
17.38466644287109
 20
-2.870975494384766
 30
0.00714111328125
 70
   192
  0
VERTEX
  5
B4
330
3C
100
AcDbEntity
  8
METAL
100
AcDbVertex
100
AcDbPolyFaceMeshVertex
 10
17.22187805175781
 20
-6.676218509674072
 30
2.69097900390625
 70
   192
  0
VERTEX
  5
B5
330
3C
100
AcDbEntity
  8
METAL
100
AcDbVertex
100
AcDbPolyFaceMeshVertex
 10
17.22187805175781
 20
-6.676218509674072
 30
-2.67669677734375
 70
   192
  0
VERTEX
  5
B6
330
3C
100
AcDbEntity
  8
METAL
100
AcDbVertex
100
AcDbPolyFaceMeshVertex
 10
16.59683227539062
 20
-3.341144561767578
 30
1.218658447265625
 70
   192
  0
VERTEX
  5
B7
330
3C
100
AcDbEntity
  8
METAL
100
AcDbVertex
100
AcDbPolyFaceMeshVertex
 10
16.59683227539062
 20
-3.341148376464844
 30
-1.204376220703125
 70
   192
  0
VERTEX
  5
B8
330
3C
100
AcDbEntity
  8
METAL
100
AcDbVertex
100
AcDbPolyFaceMeshVertex
 10
16.32464599609375
 20
0.0
 30
0.00714111328125
 70
   192
  0
VERTEX
  5
B9
330
3C
100
AcDbEntity
  8
METAL
100
AcDbVertex
100
AcDbPolyFaceMeshVertex
 10
16.18006896972656
 20
-18.55455017089844
 30
4.730377197265625
 70
   192
  0
VERTEX
  5
BA
330
3C
100
AcDbEntity
  8
METAL
100
AcDbVertex
100
AcDbPolyFaceMeshVertex
 10
16.18006896972656
 20
-18.5545539855957
 30
-4.716094970703125
 70
   192
  0
VERTEX
  5
BB
330
3C
100
AcDbEntity
  8
METAL
100
AcDbVertex
100
AcDbPolyFaceMeshVertex
 10
15.33486938476562
 20
-0.0000782012939453
 30
1.0531005859375
 70
   192
  0
VERTEX
  5
BC
330
3C
100
AcDbEntity
  8
METAL
100
AcDbVertex
100
AcDbPolyFaceMeshVertex
 10
15.33486938476562
 20
-0.0000782012939453
 30
-1.038818359375
 70
   192
  0
VERTEX
  5
BD
330
3C
100
AcDbEntity
  8
METAL
100
AcDbVertex
100
AcDbPolyFaceMeshVertex
 10
15.28464508056641
 20
-4.011161327362061
 30
2.43017578125
 70
   192
  0
VERTEX
  5
BE
330
3C
100
AcDbEntity
  8
METAL
100
AcDbVertex
100
AcDbPolyFaceMeshVertex
 10
15.28464508056641
 20
-4.011161327362061
 30
-2.415863037109375
 70
   192
  0
VERTEX
  5
BF
330
3C
100
AcDbEntity
  8
METAL
100
AcDbVertex
100
AcDbPolyFaceMeshVertex
 10
14.48826599121094
 20
-21.80694198608398
 30
2.926239013671875
 70
   192
  0
VERTEX
  5
C0
330
3C
100
AcDbEntity
  8
METAL
100
AcDbVertex
100
AcDbPolyFaceMeshVertex
 10
14.48826599121094
 20
-21.80693435668945
 30
-2.9119873046875
 70
   192
  0
VERTEX
  5
C1
330
3C
100
AcDbEntity
  8
METAL
100
AcDbVertex
100
AcDbPolyFaceMeshVertex
 10
14.09654998779297
 20
-22.54618453979492
 30
1.466705322265625
 70
   192
  0
VERTEX
  5
C2
330
3C
100
AcDbEntity
  8
METAL
100
AcDbVertex
100
AcDbPolyFaceMeshVertex
 10
14.09654998779297
 20
-22.54618453979492
 30
-1.452423095703125
 70
   192
  0
VERTEX
  5
C3
330
3C
100
AcDbEntity
  8
METAL
100
AcDbVertex
100
AcDbPolyFaceMeshVertex
 10
13.70484161376953
 20
-23.28541564941406
 30
0.00714111328125
 70
   192
  0
VERTEX
  5
C4
330
3C
100
AcDbEntity
  8
METAL
100
AcDbVertex
100
AcDbPolyFaceMeshVertex
 10
13.64033508300781
 20
-9.79898452758789
 30
4.34967041015625
 70
   192
  0
VERTEX
  5
C5
330
3C
100
AcDbEntity
  8
METAL
100
AcDbVertex
100
AcDbPolyFaceMeshVertex
 10
13.64033508300781
 20
-9.798988342285156
 30
-4.33538818359375
 70
   192
  0
VERTEX
  5
C6
330
3C
100
AcDbEntity
  8
METAL
100
AcDbVertex
100
AcDbPolyFaceMeshVertex
 10
13.04864501953125
 20
-0.0001621246337891
 30
2.099090576171875
 70
   192
  0
VERTEX
  5
C7
330
3C
100
AcDbEntity
  8
METAL
100
AcDbVertex
100
AcDbPolyFaceMeshVertex
 10
13.04864501953125
 20
-0.0001621246337891
 30
-2.084808349609375
 70
   192
  0
VERTEX
  5
C8
330
3C
100
AcDbEntity
  8
METAL
100
AcDbVertex
100
AcDbPolyFaceMeshVertex
 10
10.38790893554688
 20
-5.883125305175781
 30
3.92767333984375
 70
   192
  0
VERTEX
  5
C9
330
3C
100
AcDbEntity
  8
METAL
100
AcDbVertex
100
AcDbPolyFaceMeshVertex
 10
10.38790893554688
 20
-5.883129596710205
 30
-3.91339111328125
 70
   192
  0
VERTEX
  5
CA
330
3C
100
AcDbEntity
  8
METAL
100
AcDbVertex
100
AcDbPolyFaceMeshVertex
 10
9.284080505371094
 20
-13.43617248535156
 30
4.34967041015625
 70
   192
  0
VERTEX
  5
CB
330
3C
100
AcDbEntity
  8
METAL
100
AcDbVertex
100
AcDbPolyFaceMeshVertex
 10
9.284080505371094
 20
-13.43618011474609
 30
-4.33538818359375
 70
   192
  0
VERTEX
  5
CC
330
3C
100
AcDbEntity
  8
METAL
100
AcDbVertex
100
AcDbPolyFaceMeshVertex
 10
6.850357055664062
 20
-0.0005874633789062
 30
3.3919677734375
 70
   192
  0
VERTEX
  5
CD
330
3C
100
AcDbEntity
  8
METAL
100
AcDbVertex
100
AcDbPolyFaceMeshVertex
 10
6.850357055664062
 20
-0.0005893707275391
 30
-3.377685546875
 70
   192
  0
VERTEX
  5
CE
330
3C
100
AcDbEntity
  8
METAL
100
AcDbVertex
100
AcDbPolyFaceMeshVertex
 10
6.024986267089844
 20
-16.47090530395508
 30
2.69097900390625
 70
   192
  0
VERTEX
  5
CF
330
3C
100
AcDbEntity
  8
METAL
100
AcDbVertex
100
AcDbPolyFaceMeshVertex
 10
6.024986267089844
 20
-16.47090911865234
 30
-2.67669677734375
 70
   192
  0
VERTEX
  5
D0
330
3C
100
AcDbEntity
  8
METAL
100
AcDbVertex
100
AcDbPolyFaceMeshVertex
 10
5.503021240234375
 20
-17.03667068481445
 30
1.34906005859375
 70
   192
  0
VERTEX
  5
D1
330
3C
100
AcDbEntity
  8
METAL
100
AcDbVertex
100
AcDbPolyFaceMeshVertex
 10
5.503021240234375
 20
-17.03667068481445
 30
-1.33477783203125
 70
   192
  0
VERTEX
  5
D2
330
3C
100
AcDbEntity
  8
METAL
100
AcDbVertex
100
AcDbPolyFaceMeshVertex
 10
4.981048583984375
 20
-17.6024284362793
 30
0.00714111328125
 70
   192
  0
VERTEX
  5
D3
330
3C
100
AcDbEntity
  8
METAL
100
AcDbVertex
100
AcDbPolyFaceMeshVertex
 10
3.734481811523438
 20
-8.350151062011719
 30
3.92767333984375
 70
   192
  0
VERTEX
  5
D4
330
3C
100
AcDbEntity
  8
METAL
100
AcDbVertex
100
AcDbPolyFaceMeshVertex
 10
3.734481811523438
 20
-8.350154876708984
 30
-3.91339111328125
 70
   192
  0
VERTEX
  5
D5
330
3C
100
AcDbEntity
  8
METAL
100
AcDbVertex
100
AcDbPolyFaceMeshVertex
 10
0.0889968872070312
 20
-9.98324203491211
 30
2.43017578125
 70
   192
  0
VERTEX
  5
D6
330
3C
100
AcDbEntity
  8
METAL
100
AcDbVertex
100
AcDbPolyFaceMeshVertex
 10
0.0889968872070312
 20
-9.98324203491211
 30
-2.4158935546875
 70
   192
  0
VERTEX
  5
D7
330
3C
100
AcDbEntity
  8
METAL
100
AcDbVertex
100
AcDbPolyFaceMeshVertex
 10
-0.9390029907226562
 20
-10.36442184448242
 30
1.218658447265625
 70
   192
  0
VERTEX
  5
D8
330
3C
100
AcDbEntity
  8
METAL
100
AcDbVertex
100
AcDbPolyFaceMeshVertex
 10
-0.9390029907226562
 20
-10.36442184448242
 30
-1.204376220703125
 70
   192
  0
VERTEX
  5
D9
330
3C
100
AcDbEntity
  8
METAL
100
AcDbVertex
100
AcDbPolyFaceMeshVertex
 10
-1.967033386230469
 20
-10.7455940246582
 30
0.00714111328125
 70
   192
  0
VERTEX
  5
DA
330
3C
100
AcDbEntity
  8
METAL
100
AcDbVertex
100
AcDbPolyFaceMeshVertex
 10
-2.519790649414062
 20
-0.0011138916015625
 30
3.3919677734375
 70
   192
  0
VERTEX
  5
DB
330
3C
100
AcDbEntity
  8
METAL
100
AcDbVertex
100
AcDbPolyFaceMeshVertex
 10
-2.519790649414062
 20
-0.0011138916015625
 30
-3.377685546875
 70
   192
  0
VERTEX
  5
DC
330
3C
100
AcDbEntity
  8
METAL
100
AcDbVertex
100
AcDbPolyFaceMeshVertex
 10
-7.79400634765625
 20
-0.0015392303466797
 30
2.0643310546875
 70
   192
  0
VERTEX
  5
DD
330
3C
100
AcDbEntity
  8
METAL
100
AcDbVertex
100
AcDbPolyFaceMeshVertex
 10
-7.79400634765625
 20
-0.0015392303466797
 30
-2.050048828125
 70
   192
  0
VERTEX
  5
DE
330
3C
100
AcDbEntity
  8
METAL
100
AcDbVertex
100
AcDbPolyFaceMeshVertex
 10
-9.65130615234375
 20
-0.0016231536865234
 30
1.0531005859375
 70
   192
  0
VERTEX
  5
DF
330
3C
100
AcDbEntity
  8
METAL
100
AcDbVertex
100
AcDbPolyFaceMeshVertex
 10
-9.65130615234375
 20
-0.0016231536865234
 30
-1.038818359375
 70
   192
  0
VERTEX
  5
E0
330
3C
100
AcDbEntity
  8
METAL
100
AcDbVertex
100
AcDbPolyFaceMeshVertex
 10
-10.0
 20
-0.0017051696777344
 30
0.00714111328125
 70
   192
  0
VERTEX
  5
E1
330
3C
100
AcDbEntity
  8
METAL
100
AcDbFaceRecord
 10
0.0
 20
0.0
 30
0.0
 70
   128
 71
   157
 72
   155
 73
   162
 74
   164
  0
VERTEX
  5
E2
330
3C
100
AcDbEntity
  8
METAL
100
AcDbFaceRecord
 10
0.0
 20
0.0
 30
0.0
 70
   128
 71
   153
 72
   151
 73
   158
 74
   160
  0
VERTEX
  5
E3
330
3C
100
AcDbEntity
  8
METAL
100
AcDbFaceRecord
 10
0.0
 20
0.0
 30
0.0
 70
   128
 71
   151
 72
   140
 73
   144
 74
   158
  0
VERTEX
  5
E4
330
3C
100
AcDbEntity
  8
METAL
100
AcDbFaceRecord
 10
0.0
 20
0.0
 30
0.0
 70
   128
 71
   140
 72
   129
 73
   138
 74
   144
  0
VERTEX
  5
E5
330
3C
100
AcDbEntity
  8
METAL
100
AcDbFaceRecord
 10
0.0
 20
0.0
 30
0.0
 70
   128
 71
   129
 72
   122
 73
   127
 74
   138
  0
VERTEX
  5
E6
330
3C
100
AcDbEntity
  8
METAL
100
AcDbFaceRecord
 10
0.0
 20
0.0
 30
0.0
 70
   128
 71
   135
 72
   133
 73
   148
 74
   150
  0
VERTEX
  5
E7
330
3C
100
AcDbEntity
  8
METAL
100
AcDbFaceRecord
 10
0.0
 20
0.0
 30
0.0
 70
   128
 71
   125
 72
   142
 73
   146
 74
   131
  0
VERTEX
  5
E8
330
3C
100
AcDbEntity
  8
METAL
100
AcDbFaceRecord
 10
0.0
 20
0.0
 30
0.0
 70
   128
 71
   115
 72
   136
 73
   142
 74
   125
  0
VERTEX
  5
E9
330
3C
100
AcDbEntity
  8
METAL
100
AcDbFaceRecord
 10
0.0
 20
0.0
 30
0.0
 70
   128
 71
   112
 72
   120
 73
   136
 74
   115
  0
VERTEX
  5
EA
330
3C
100
AcDbEntity
  8
METAL
100
AcDbFaceRecord
 10
0.0
 20
0.0
 30
0.0
 70
   128
 71
   120
 72
   112
 73
   109
 74
   117
  0
VERTEX
  5
EB
330
3C
100
AcDbEntity
  8
METAL
100
AcDbFaceRecord
 10
0.0
 20
0.0
 30
0.0
 70
   128
 71
   111
 72
   107
 73
   133
 74
   135
  0
VERTEX
  5
EC
330
3C
100
AcDbEntity
  8
METAL
100
AcDbFaceRecord
 10
0.0
 20
0.0
 30
0.0
 70
   128
 71
   102
 72
   125
 73
   131
 74
   104
  0
VERTEX
  5
ED
330
3C
100
AcDbEntity
  8
METAL
100
AcDbFaceRecord
 10
0.0
 20
0.0
 30
0.0
 70
   128
 71
   100
 72
   115
 73
   125
 74
   102
  0
VERTEX
  5
EE
330
3C
100
AcDbEntity
  8
METAL
100
AcDbFaceRecord
 10
0.0
 20
0.0
 30
0.0
 70
   128
 71
    98
 72
   112
 73
   115
 74
   100
  0
VERTEX
  5
EF
330
3C
100
AcDbEntity
  8
METAL
100
AcDbFaceRecord
 10
0.0
 20
0.0
 30
0.0
 70
   128
 71
   112
 72
    98
 73
    96
 74
   109
  0
VERTEX
  5
F0
330
3C
100
AcDbEntity
  8
METAL
100
AcDbFaceRecord
 10
0.0
 20
0.0
 30
0.0
 70
   128
 71
    94
 72
    92
 73
   107
 74
   111
  0
VERTEX
  5
F1
330
3C
100
AcDbEntity
  8
METAL
100
AcDbFaceRecord
 10
0.0
 20
0.0
 30
0.0
 70
   128
 71
    88
 72
   102
 73
   104
 74
    90
  0
VERTEX
  5
F2
330
3C
100
AcDbEntity
  8
METAL
100
AcDbFaceRecord
 10
0.0
 20
0.0
 30
0.0
 70
   128
 71
    86
 72
   100
 73
   102
 74
    88
  0
VERTEX
  5
F3
330
3C
100
AcDbEntity
  8
METAL
100
AcDbFaceRecord
 10
0.0
 20
0.0
 30
0.0
 70
   128
 71
    84
 72
    98
 73
   100
 74
    86
  0
VERTEX
  5
F4
330
3C
100
AcDbEntity
  8
METAL
100
AcDbFaceRecord
 10
0.0
 20
0.0
 30
0.0
 70
   128
 71
    98
 72
    84
 73
    82
 74
    96
  0
VERTEX
  5
F5
330
3C
100
AcDbEntity
  8
METAL
100
AcDbFaceRecord
 10
0.0
 20
0.0
 30
0.0
 70
   128
 71
    80
 72
    78
 73
    92
 74
    94
  0
VERTEX
  5
F6
330
3C
100
AcDbEntity
  8
METAL
100
AcDbFaceRecord
 10
0.0
 20
0.0
 30
0.0
 70
   128
 71
    74
 72
    88
 73
    90
 74
    76
  0
VERTEX
  5
F7
330
3C
100
AcDbEntity
  8
METAL
100
AcDbFaceRecord
 10
0.0
 20
0.0
 30
0.0
 70
   128
 71
    72
 72
    86
 73
    88
 74
    74
  0
VERTEX
  5
F8
330
3C
100
AcDbEntity
  8
METAL
100
AcDbFaceRecord
 10
0.0
 20
0.0
 30
0.0
 70
   128
 71
    70
 72
    84
 73
    86
 74
    72
  0
VERTEX
  5
F9
330
3C
100
AcDbEntity
  8
METAL
100
AcDbFaceRecord
 10
0.0
 20
0.0
 30
0.0
 70
   128
 71
    84
 72
    70
 73
    68
 74
    82
  0
VERTEX
  5
FA
330
3C
100
AcDbEntity
  8
METAL
100
AcDbFaceRecord
 10
0.0
 20
0.0
 30
0.0
 70
   128
 71
    66
 72
    64
 73
    78
 74
    80
  0
VERTEX
  5
FB
330
3C
100
AcDbEntity
  8
METAL
100
AcDbFaceRecord
 10
0.0
 20
0.0
 30
0.0
 70
   128
 71
    60
 72
    74
 73
    76
 74
    62
  0
VERTEX
  5
FC
330
3C
100
AcDbEntity
  8
METAL
100
AcDbFaceRecord
 10
0.0
 20
0.0
 30
0.0
 70
   128
 71
    58
 72
    72
 73
    74
 74
    60
  0
VERTEX
  5
FD
330
3C
100
AcDbEntity
  8
METAL
100
AcDbFaceRecord
 10
0.0
 20
0.0
 30
0.0
 70
   128
 71
    56
 72
    70
 73
    72
 74
    58
  0
VERTEX
  5
FE
330
3C
100
AcDbEntity
  8
METAL
100
AcDbFaceRecord
 10
0.0
 20
0.0
 30
0.0
 70
   128
 71
    70
 72
    56
 73
    54
 74
    68
  0
VERTEX
  5
FF
330
3C
100
AcDbEntity
  8
METAL
100
AcDbFaceRecord
 10
0.0
 20
0.0
 30
0.0
 70
   128
 71
    40
 72
    43
 73
    64
 74
    66
  0
VERTEX
  5
100
330
3C
100
AcDbEntity
  8
METAL
100
AcDbFaceRecord
 10
0.0
 20
0.0
 30
0.0
 70
   128
 71
    47
 72
    51
 73
    60
 74
    62
  0
VERTEX
  5
101
330
3C
100
AcDbEntity
  8
METAL
100
AcDbFaceRecord
 10
0.0
 20
0.0
 30
0.0
 70
   128
 71
    51
 72
    50
 73
    58
 74
    60
  0
VERTEX
  5
102
330
3C
100
AcDbEntity
  8
METAL
100
AcDbFaceRecord
 10
0.0
 20
0.0
 30
0.0
 70
   128
 71
    50
 72
    45
 73
    56
 74
    58
  0
VERTEX
  5
103
330
3C
100
AcDbEntity
  8
METAL
100
AcDbFaceRecord
 10
0.0
 20
0.0
 30
0.0
 70
   128
 71
    45
 72
    41
 73
    54
 74
    56
  0
VERTEX
  5
104
330
3C
100
AcDbEntity
  8
METAL
100
AcDbFaceRecord
 10
0.0
 20
0.0
 30
0.0
 70
   128
 71
   150
 72
   148
 73
   155
 74
   157
  0
VERTEX
  5
105
330
3C
100
AcDbEntity
  8
METAL
100
AcDbFaceRecord
 10
0.0
 20
0.0
 30
0.0
 70
   128
 71
   146
 72
   142
 73
   151
 74
   153
  0
VERTEX
  5
106
330
3C
100
AcDbEntity
  8
METAL
100
AcDbFaceRecord
 10
0.0
 20
0.0
 30
0.0
 70
   128
 71
   142
 72
   136
 73
   140
 74
   151
  0
VERTEX
  5
107
330
3C
100
AcDbEntity
  8
METAL
100
AcDbFaceRecord
 10
0.0
 20
0.0
 30
0.0
 70
   128
 71
   136
 72
   120
 73
   129
 74
   140
  0
VERTEX
  5
108
330
3C
100
AcDbEntity
  8
METAL
100
AcDbFaceRecord
 10
0.0
 20
0.0
 30
0.0
 70
   128
 71
   120
 72
   117
 73
   122
 74
   129
  0
VERTEX
  5
109
330
3C
100
AcDbEntity
  8
METAL
100
AcDbFaceRecord
 10
0.0
 20
0.0
 30
0.0
 70
   128
 71
   155
 72
   153
 73
   160
 74
   162
  0
VERTEX
  5
10A
330
3C
100
AcDbEntity
  8
METAL
100
AcDbFaceRecord
 10
0.0
 20
0.0
 30
0.0
 70
   128
 71
   133
 72
   131
 73
   146
 74
   148
  0
VERTEX
  5
10B
330
3C
100
AcDbEntity
  8
METAL
100
AcDbFaceRecord
 10
0.0
 20
0.0
 30
0.0
 70
   128
 71
   104
 72
   131
 73
   133
 74
   107
  0
VERTEX
  5
10C
330
3C
100
AcDbEntity
  8
METAL
100
AcDbFaceRecord
 10
0.0
 20
0.0
 30
0.0
 70
   128
 71
    90
 72
   104
 73
   107
 74
    92
  0
VERTEX
  5
10D
330
3C
100
AcDbEntity
  8
METAL
100
AcDbFaceRecord
 10
0.0
 20
0.0
 30
0.0
 70
   128
 71
    76
 72
    90
 73
    92
 74
    78
  0
VERTEX
  5
10E
330
3C
100
AcDbEntity
  8
METAL
100
AcDbFaceRecord
 10
0.0
 20
0.0
 30
0.0
 70
   128
 71
    62
 72
    76
 73
    78
 74
    64
  0
VERTEX
  5
10F
330
3C
100
AcDbEntity
  8
METAL
100
AcDbFaceRecord
 10
0.0
 20
0.0
 30
0.0
 70
   128
 71
   148
 72
   146
 73
   153
 74
   155
  0
VERTEX
  5
110
330
3C
100
AcDbEntity
  8
METAL
100
AcDbFaceRecord
 10
0.0
 20
0.0
 30
0.0
 70
   128
 71
   122
 72
   119
 73
   124
 74
   127
  0
VERTEX
  5
111
330
3C
100
AcDbEntity
  8
METAL
100
AcDbFaceRecord
 10
0.0
 20
0.0
 30
0.0
 70
   128
 71
   106
 72
   114
 73
   117
 74
   109
  0
VERTEX
  5
112
330
3C
100
AcDbEntity
  8
METAL
100
AcDbFaceRecord
 10
0.0
 20
0.0
 30
0.0
 70
   128
 71
    95
 72
   106
 73
   109
 74
    96
  0
VERTEX
  5
113
330
3C
100
AcDbEntity
  8
METAL
100
AcDbFaceRecord
 10
0.0
 20
0.0
 30
0.0
 70
   128
 71
    81
 72
    95
 73
    96
 74
    82
  0
VERTEX
  5
114
330
3C
100
AcDbEntity
  8
METAL
100
AcDbFaceRecord
 10
0.0
 20
0.0
 30
0.0
 70
   128
 71
    67
 72
    81
 73
    82
 74
    68
  0
VERTEX
  5
115
330
3C
100
AcDbEntity
  8
METAL
100
AcDbFaceRecord
 10
0.0
 20
0.0
 30
0.0
 70
   128
 71
    53
 72
    67
 73
    68
 74
    54
  0
VERTEX
  5
116
330
3C
100
AcDbEntity
  8
METAL
100
AcDbFaceRecord
 10
0.0
 20
0.0
 30
0.0
 70
   128
 71
   114
 72
   119
 73
   122
 74
   117
  0
VERTEX
  5
117
330
3C
100
AcDbEntity
  8
METAL
100
AcDbFaceRecord
 10
0.0
 20
0.0
 30
0.0
 70
   128
 71
   157
 72
   164
 73
   163
 74
   156
  0
VERTEX
  5
118
330
3C
100
AcDbEntity
  8
METAL
100
AcDbFaceRecord
 10
0.0
 20
0.0
 30
0.0
 70
   128
 71
   154
 72
   161
 73
   159
 74
   152
  0
VERTEX
  5
119
330
3C
100
AcDbEntity
  8
METAL
100
AcDbFaceRecord
 10
0.0
 20
0.0
 30
0.0
 70
   128
 71
   152
 72
   159
 73
   145
 74
   141
  0
VERTEX
  5
11A
330
3C
100
AcDbEntity
  8
METAL
100
AcDbFaceRecord
 10
0.0
 20
0.0
 30
0.0
 70
   128
 71
   141
 72
   145
 73
   139
 74
   130
  0
VERTEX
  5
11B
330
3C
100
AcDbEntity
  8
METAL
100
AcDbFaceRecord
 10
0.0
 20
0.0
 30
0.0
 70
   128
 71
   130
 72
   139
 73
   128
 74
   123
  0
VERTEX
  5
11C
330
3C
100
AcDbEntity
  8
METAL
100
AcDbFaceRecord
 10
0.0
 20
0.0
 30
0.0
 70
   128
 71
   135
 72
   150
 73
   149
 74
   134
  0
VERTEX
  5
11D
330
3C
100
AcDbEntity
  8
METAL
100
AcDbFaceRecord
 10
0.0
 20
0.0
 30
0.0
 70
   128
 71
   126
 72
   132
 73
   147
 74
   143
  0
VERTEX
  5
11E
330
3C
100
AcDbEntity
  8
METAL
100
AcDbFaceRecord
 10
0.0
 20
0.0
 30
0.0
 70
   128
 71
   116
 72
   126
 73
   143
 74
   137
  0
VERTEX
  5
11F
330
3C
100
AcDbEntity
  8
METAL
100
AcDbFaceRecord
 10
0.0
 20
0.0
 30
0.0
 70
   128
 71
   113
 72
   116
 73
   137
 74
   121
  0
VERTEX
  5
120
330
3C
100
AcDbEntity
  8
METAL
100
AcDbFaceRecord
 10
0.0
 20
0.0
 30
0.0
 70
   128
 71
   121
 72
   118
 73
   110
 74
   113
  0
VERTEX
  5
121
330
3C
100
AcDbEntity
  8
METAL
100
AcDbFaceRecord
 10
0.0
 20
0.0
 30
0.0
 70
   128
 71
   111
 72
   135
 73
   134
 74
   108
  0
VERTEX
  5
122
330
3C
100
AcDbEntity
  8
METAL
100
AcDbFaceRecord
 10
0.0
 20
0.0
 30
0.0
 70
   128
 71
   103
 72
   105
 73
   132
 74
   126
  0
VERTEX
  5
123
330
3C
100
AcDbEntity
  8
METAL
100
AcDbFaceRecord
 10
0.0
 20
0.0
 30
0.0
 70
   128
 71
   101
 72
   103
 73
   126
 74
   116
  0
VERTEX
  5
124
330
3C
100
AcDbEntity
  8
METAL
100
AcDbFaceRecord
 10
0.0
 20
0.0
 30
0.0
 70
   128
 71
    99
 72
   101
 73
   116
 74
   113
  0
VERTEX
  5
125
330
3C
100
AcDbEntity
  8
METAL
100
AcDbFaceRecord
 10
0.0
 20
0.0
 30
0.0
 70
   128
 71
   113
 72
   110
 73
    97
 74
    99
  0
VERTEX
  5
126
330
3C
100
AcDbEntity
  8
METAL
100
AcDbFaceRecord
 10
0.0
 20
0.0
 30
0.0
 70
   128
 71
    94
 72
   111
 73
   108
 74
    93
  0
VERTEX
  5
127
330
3C
100
AcDbEntity
  8
METAL
100
AcDbFaceRecord
 10
0.0
 20
0.0
 30
0.0
 70
   128
 71
    89
 72
    91
 73
   105
 74
   103
  0
VERTEX
  5
128
330
3C
100
AcDbEntity
  8
METAL
100
AcDbFaceRecord
 10
0.0
 20
0.0
 30
0.0
 70
   128
 71
    87
 72
    89
 73
   103
 74
   101
  0
VERTEX
  5
129
330
3C
100
AcDbEntity
  8
METAL
100
AcDbFaceRecord
 10
0.0
 20
0.0
 30
0.0
 70
   128
 71
    85
 72
    87
 73
   101
 74
    99
  0
VERTEX
  5
12A
330
3C
100
AcDbEntity
  8
METAL
100
AcDbFaceRecord
 10
0.0
 20
0.0
 30
0.0
 70
   128
 71
    99
 72
    97
 73
    83
 74
    85
  0
VERTEX
  5
12B
330
3C
100
AcDbEntity
  8
METAL
100
AcDbFaceRecord
 10
0.0
 20
0.0
 30
0.0
 70
   128
 71
    80
 72
    94
 73
    93
 74
    79
  0
VERTEX
  5
12C
330
3C
100
AcDbEntity
  8
METAL
100
AcDbFaceRecord
 10
0.0
 20
0.0
 30
0.0
 70
   128
 71
    75
 72
    77
 73
    91
 74
    89
  0
VERTEX
  5
12D
330
3C
100
AcDbEntity
  8
METAL
100
AcDbFaceRecord
 10
0.0
 20
0.0
 30
0.0
 70
   128
 71
    73
 72
    75
 73
    89
 74
    87
  0
VERTEX
  5
12E
330
3C
100
AcDbEntity
  8
METAL
100
AcDbFaceRecord
 10
0.0
 20
0.0
 30
0.0
 70
   128
 71
    71
 72
    73
 73
    87
 74
    85
  0
VERTEX
  5
12F
330
3C
100
AcDbEntity
  8
METAL
100
AcDbFaceRecord
 10
0.0
 20
0.0
 30
0.0
 70
   128
 71
    85
 72
    83
 73
    69
 74
    71
  0
VERTEX
  5
130
330
3C
100
AcDbEntity
  8
METAL
100
AcDbFaceRecord
 10
0.0
 20
0.0
 30
0.0
 70
   128
 71
    66
 72
    80
 73
    79
 74
    65
  0
VERTEX
  5
131
330
3C
100
AcDbEntity
  8
METAL
100
AcDbFaceRecord
 10
0.0
 20
0.0
 30
0.0
 70
   128
 71
    61
 72
    63
 73
    77
 74
    75
  0
VERTEX
  5
132
330
3C
100
AcDbEntity
  8
METAL
100
AcDbFaceRecord
 10
0.0
 20
0.0
 30
0.0
 70
   128
 71
    59
 72
    61
 73
    75
 74
    73
  0
VERTEX
  5
133
330
3C
100
AcDbEntity
  8
METAL
100
AcDbFaceRecord
 10
0.0
 20
0.0
 30
0.0
 70
   128
 71
    57
 72
    59
 73
    73
 74
    71
  0
VERTEX
  5
134
330
3C
100
AcDbEntity
  8
METAL
100
AcDbFaceRecord
 10
0.0
 20
0.0
 30
0.0
 70
   128
 71
    71
 72
    69
 73
    55
 74
    57
  0
VERTEX
  5
135
330
3C
100
AcDbEntity
  8
METAL
100
AcDbFaceRecord
 10
0.0
 20
0.0
 30
0.0
 70
   128
 71
    65
 72
    44
 73
    40
 74
    66
  0
VERTEX
  5
136
330
3C
100
AcDbEntity
  8
METAL
100
AcDbFaceRecord
 10
0.0
 20
0.0
 30
0.0
 70
   128
 71
    61
 72
    52
 73
    48
 74
    63
  0
VERTEX
  5
137
330
3C
100
AcDbEntity
  8
METAL
100
AcDbFaceRecord
 10
0.0
 20
0.0
 30
0.0
 70
   128
 71
    59
 72
    49
 73
    52
 74
    61
  0
VERTEX
  5
138
330
3C
100
AcDbEntity
  8
METAL
100
AcDbFaceRecord
 10
0.0
 20
0.0
 30
0.0
 70
   128
 71
    57
 72
    46
 73
    49
 74
    59
  0
VERTEX
  5
139
330
3C
100
AcDbEntity
  8
METAL
100
AcDbFaceRecord
 10
0.0
 20
0.0
 30
0.0
 70
   128
 71
    55
 72
    42
 73
    46
 74
    57
  0
VERTEX
  5
13A
330
3C
100
AcDbEntity
  8
METAL
100
AcDbFaceRecord
 10
0.0
 20
0.0
 30
0.0
 70
   128
 71
   150
 72
   157
 73
   156
 74
   149
  0
VERTEX
  5
13B
330
3C
100
AcDbEntity
  8
METAL
100
AcDbFaceRecord
 10
0.0
 20
0.0
 30
0.0
 70
   128
 71
   147
 72
   154
 73
   152
 74
   143
  0
VERTEX
  5
13C
330
3C
100
AcDbEntity
  8
METAL
100
AcDbFaceRecord
 10
0.0
 20
0.0
 30
0.0
 70
   128
 71
   143
 72
   152
 73
   141
 74
   137
  0
VERTEX
  5
13D
330
3C
100
AcDbEntity
  8
METAL
100
AcDbFaceRecord
 10
0.0
 20
0.0
 30
0.0
 70
   128
 71
   137
 72
   141
 73
   130
 74
   121
  0
VERTEX
  5
13E
330
3C
100
AcDbEntity
  8
METAL
100
AcDbFaceRecord
 10
0.0
 20
0.0
 30
0.0
 70
   128
 71
   121
 72
   130
 73
   123
 74
   118
  0
VERTEX
  5
13F
330
3C
100
AcDbEntity
  8
METAL
100
AcDbFaceRecord
 10
0.0
 20
0.0
 30
0.0
 70
   128
 71
   156
 72
   163
 73
   161
 74
   154
  0
VERTEX
  5
140
330
3C
100
AcDbEntity
  8
METAL
100
AcDbFaceRecord
 10
0.0
 20
0.0
 30
0.0
 70
   128
 71
   134
 72
   149
 73
   147
 74
   132
  0
VERTEX
  5
141
330
3C
100
AcDbEntity
  8
METAL
100
AcDbFaceRecord
 10
0.0
 20
0.0
 30
0.0
 70
   128
 71
   105
 72
   108
 73
   134
 74
   132
  0
VERTEX
  5
142
330
3C
100
AcDbEntity
  8
METAL
100
AcDbFaceRecord
 10
0.0
 20
0.0
 30
0.0
 70
   128
 71
    91
 72
    93
 73
   108
 74
   105
  0
VERTEX
  5
143
330
3C
100
AcDbEntity
  8
METAL
100
AcDbFaceRecord
 10
0.0
 20
0.0
 30
0.0
 70
   128
 71
    77
 72
    79
 73
    93
 74
    91
  0
VERTEX
  5
144
330
3C
100
AcDbEntity
  8
METAL
100
AcDbFaceRecord
 10
0.0
 20
0.0
 30
0.0
 70
   128
 71
    63
 72
    65
 73
    79
 74
    77
  0
VERTEX
  5
145
330
3C
100
AcDbEntity
  8
METAL
100
AcDbFaceRecord
 10
0.0
 20
0.0
 30
0.0
 70
   128
 71
   149
 72
   156
 73
   154
 74
   147
  0
VERTEX
  5
146
330
3C
100
AcDbEntity
  8
METAL
100
AcDbFaceRecord
 10
0.0
 20
0.0
 30
0.0
 70
   128
 71
   123
 72
   128
 73
   124
 74
   119
  0
VERTEX
  5
147
330
3C
100
AcDbEntity
  8
METAL
100
AcDbFaceRecord
 10
0.0
 20
0.0
 30
0.0
 70
   128
 71
   106
 72
   110
 73
   118
 74
   114
  0
VERTEX
  5
148
330
3C
100
AcDbEntity
  8
METAL
100
AcDbFaceRecord
 10
0.0
 20
0.0
 30
0.0
 70
   128
 71
    95
 72
    97
 73
   110
 74
   106
  0
VERTEX
  5
149
330
3C
100
AcDbEntity
  8
METAL
100
AcDbFaceRecord
 10
0.0
 20
0.0
 30
0.0
 70
   128
 71
    81
 72
    83
 73
    97
 74
    95
  0
VERTEX
  5
14A
330
3C
100
AcDbEntity
  8
METAL
100
AcDbFaceRecord
 10
0.0
 20
0.0
 30
0.0
 70
   128
 71
    67
 72
    69
 73
    83
 74
    81
  0
VERTEX
  5
14B
330
3C
100
AcDbEntity
  8
METAL
100
AcDbFaceRecord
 10
0.0
 20
0.0
 30
0.0
 70
   128
 71
    53
 72
    55
 73
    69
 74
    67
  0
VERTEX
  5
14C
330
3C
100
AcDbEntity
  8
METAL
100
AcDbFaceRecord
 10
0.0
 20
0.0
 30
0.0
 70
   128
 71
   114
 72
   118
 73
   123
 74
   119
  0
VERTEX
  5
14D
330
3C
100
AcDbEntity
  8
METAL
100
AcDbFaceRecord
 10
0.0
 20
0.0
 30
0.0
 70
   128
 71
    62
 72
    64
 73
    43
 74
    47
  0
VERTEX
  5
14E
330
3C
100
AcDbEntity
  8
METAL
100
AcDbFaceRecord
 10
0.0
 20
0.0
 30
0.0
 70
   128
 71
    53
 72
    54
 73
    41
 74
    39
  0
VERTEX
  5
14F
330
3C
100
AcDbEntity
  8
METAL
100
AcDbFaceRecord
 10
0.0
 20
0.0
 30
0.0
 70
   128
 71
    44
 72
    65
 73
    63
 74
    48
  0
VERTEX
  5
150
330
3C
100
AcDbEntity
  8
METAL
100
AcDbFaceRecord
 10
0.0
 20
0.0
 30
0.0
 70
   128
 71
    42
 72
    55
 73
    53
 74
    39
  0
VERTEX
  5
151
330
3C
100
AcDbEntity
  8
METAL
100
AcDbFaceRecord
 10
0.0
 20
0.0
 30
0.0
 70
   128
 71
     2
 72
     7
 73
     5
 74
     1
  0
VERTEX
  5
152
330
3C
100
AcDbEntity
  8
METAL
100
AcDbFaceRecord
 10
0.0
 20
0.0
 30
0.0
 70
   128
 71
    25
 72
    43
 73
    40
 74
    22
  0
VERTEX
  5
153
330
3C
100
AcDbEntity
  8
METAL
100
AcDbFaceRecord
 10
0.0
 20
0.0
 30
0.0
 70
   128
 71
    37
 72
    51
 73
    47
 74
    29
  0
VERTEX
  5
154
330
3C
100
AcDbEntity
  8
METAL
100
AcDbFaceRecord
 10
0.0
 20
0.0
 30
0.0
 70
   128
 71
    35
 72
    50
 73
    51
 74
    37
  0
VERTEX
  5
155
330
3C
100
AcDbEntity
  8
METAL
100
AcDbFaceRecord
 10
0.0
 20
0.0
 30
0.0
 70
   128
 71
    27
 72
    45
 73
    50
 74
    35
  0
VERTEX
  5
156
330
3C
100
AcDbEntity
  8
METAL
100
AcDbFaceRecord
 10
0.0
 20
0.0
 30
0.0
 70
   128
 71
    23
 72
    41
 73
    45
 74
    27
  0
VERTEX
  5
157
330
3C
100
AcDbEntity
  8
METAL
100
AcDbFaceRecord
 10
0.0
 20
0.0
 30
0.0
 70
   128
 71
    29
 72
    47
 73
    43
 74
    25
  0
VERTEX
  5
158
330
3C
100
AcDbEntity
  8
METAL
100
AcDbFaceRecord
 10
0.0
 20
0.0
 30
0.0
 70
   128
 71
    21
 72
    39
 73
    41
 74
    23
  0
VERTEX
  5
159
330
3C
100
AcDbEntity
  8
METAL
100
AcDbFaceRecord
 10
0.0
 20
0.0
 30
0.0
 70
   128
 71
    22
 72
    40
 73
    44
 74
    26
  0
VERTEX
  5
15A
330
3C
100
AcDbEntity
  8
METAL
100
AcDbFaceRecord
 10
0.0
 20
0.0
 30
0.0
 70
   128
 71
    30
 72
    48
 73
    52
 74
    38
  0
VERTEX
  5
15B
330
3C
100
AcDbEntity
  8
METAL
100
AcDbFaceRecord
 10
0.0
 20
0.0
 30
0.0
 70
   128
 71
    38
 72
    52
 73
    49
 74
    36
  0
VERTEX
  5
15C
330
3C
100
AcDbEntity
  8
METAL
100
AcDbFaceRecord
 10
0.0
 20
0.0
 30
0.0
 70
   128
 71
    36
 72
    49
 73
    46
 74
    28
  0
VERTEX
  5
15D
330
3C
100
AcDbEntity
  8
METAL
100
AcDbFaceRecord
 10
0.0
 20
0.0
 30
0.0
 70
   128
 71
    28
 72
    46
 73
    42
 74
    24
  0
VERTEX
  5
15E
330
3C
100
AcDbEntity
  8
METAL
100
AcDbFaceRecord
 10
0.0
 20
0.0
 30
0.0
 70
   128
 71
    26
 72
    44
 73
    48
 74
    30
  0
VERTEX
  5
15F
330
3C
100
AcDbEntity
  8
METAL
100
AcDbFaceRecord
 10
0.0
 20
0.0
 30
0.0
 70
   128
 71
    24
 72
    42
 73
    39
 74
    21
  0
VERTEX
  5
160
330
3C
100
AcDbEntity
  8
METAL
100
AcDbFaceRecord
 10
0.0
 20
0.0
 30
0.0
 70
   128
 71
     5
 72
    25
 73
    22
 74
     1
  0
VERTEX
  5
161
330
3C
100
AcDbEntity
  8
METAL
100
AcDbFaceRecord
 10
0.0
 20
0.0
 30
0.0
 70
   128
 71
    31
 72
    37
 73
    29
 74
    13
  0
VERTEX
  5
162
330
3C
100
AcDbEntity
  8
METAL
100
AcDbFaceRecord
 10
0.0
 20
0.0
 30
0.0
 70
   128
 71
    33
 72
    35
 73
    37
 74
    31
  0
VERTEX
  5
163
330
3C
100
AcDbEntity
  8
METAL
100
AcDbFaceRecord
 10
0.0
 20
0.0
 30
0.0
 70
   128
 71
    19
 72
    27
 73
    35
 74
    33
  0
VERTEX
  5
164
330
3C
100
AcDbEntity
  8
METAL
100
AcDbFaceRecord
 10
0.0
 20
0.0
 30
0.0
 70
   128
 71
    11
 72
    23
 73
    27
 74
    19
  0
VERTEX
  5
165
330
3C
100
AcDbEntity
  8
METAL
100
AcDbFaceRecord
 10
0.0
 20
0.0
 30
0.0
 70
   128
 71
    13
 72
    29
 73
    25
 74
     5
  0
VERTEX
  5
166
330
3C
100
AcDbEntity
  8
METAL
100
AcDbFaceRecord
 10
0.0
 20
0.0
 30
0.0
 70
   128
 71
     4
 72
    21
 73
    23
 74
    11
  0
VERTEX
  5
167
330
3C
100
AcDbEntity
  8
METAL
100
AcDbFaceRecord
 10
0.0
 20
0.0
 30
0.0
 70
   128
 71
     1
 72
    22
 73
    26
 74
     6
  0
VERTEX
  5
168
330
3C
100
AcDbEntity
  8
METAL
100
AcDbFaceRecord
 10
0.0
 20
0.0
 30
0.0
 70
   128
 71
    14
 72
    30
 73
    38
 74
    32
  0
VERTEX
  5
169
330
3C
100
AcDbEntity
  8
METAL
100
AcDbFaceRecord
 10
0.0
 20
0.0
 30
0.0
 70
   128
 71
    32
 72
    38
 73
    36
 74
    34
  0
VERTEX
  5
16A
330
3C
100
AcDbEntity
  8
METAL
100
AcDbFaceRecord
 10
0.0
 20
0.0
 30
0.0
 70
   128
 71
    34
 72
    36
 73
    28
 74
    20
  0
VERTEX
  5
16B
330
3C
100
AcDbEntity
  8
METAL
100
AcDbFaceRecord
 10
0.0
 20
0.0
 30
0.0
 70
   128
 71
    20
 72
    28
 73
    24
 74
    12
  0
VERTEX
  5
16C
330
3C
100
AcDbEntity
  8
METAL
100
AcDbFaceRecord
 10
0.0
 20
0.0
 30
0.0
 70
   128
 71
     6
 72
    26
 73
    30
 74
    14
  0
VERTEX
  5
16D
330
3C
100
AcDbEntity
  8
METAL
100
AcDbFaceRecord
 10
0.0
 20
0.0
 30
0.0
 70
   128
 71
    12
 72
    24
 73
    21
 74
     4
  0
VERTEX
  5
16E
330
3C
100
AcDbEntity
  8
METAL
100
AcDbFaceRecord
 10
0.0
 20
0.0
 30
0.0
 70
   128
 71
     6
 72
     8
 73
     2
 74
     1
  0
VERTEX
  5
16F
330
3C
100
AcDbEntity
  8
METAL
100
AcDbFaceRecord
 10
0.0
 20
0.0
 30
0.0
 70
   128
 71
    14
 72
    16
 73
     8
 74
     6
  0
VERTEX
  5
170
330
3C
100
AcDbEntity
  8
METAL
100
AcDbFaceRecord
 10
0.0
 20
0.0
 30
0.0
 70
   128
 71
    14
 72
    32
 73
    16
 74
    16
  0
VERTEX
  5
171
330
3C
100
AcDbEntity
  8
METAL
100
AcDbFaceRecord
 10
0.0
 20
0.0
 30
0.0
 70
   128
 71
    13
 72
     5
 73
     7
 74
    15
  0
VERTEX
  5
172
330
3C
100
AcDbEntity
  8
METAL
100
AcDbFaceRecord
 10
0.0
 20
0.0
 30
0.0
 70
   128
 71
    31
 72
    13
 73
    15
 74
    15
  0
VERTEX
  5
173
330
3C
100
AcDbEntity
  8
METAL
100
AcDbFaceRecord
 10
0.0
 20
0.0
 30
0.0
 70
   128
 71
    34
 72
    20
 73
    18
 74
    18
  0
VERTEX
  5
174
330
3C
100
AcDbEntity
  8
METAL
100
AcDbFaceRecord
 10
0.0
 20
0.0
 30
0.0
 70
   128
 71
    20
 72
    12
 73
    10
 74
    18
  0
VERTEX
  5
175
330
3C
100
AcDbEntity
  8
METAL
100
AcDbFaceRecord
 10
0.0
 20
0.0
 30
0.0
 70
   128
 71
    12
 72
     4
 73
     3
 74
    10
  0
VERTEX
  5
176
330
3C
100
AcDbEntity
  8
METAL
100
AcDbFaceRecord
 10
0.0
 20
0.0
 30
0.0
 70
   128
 71
     3
 72
     4
 73
    11
 74
     9
  0
VERTEX
  5
177
330
3C
100
AcDbEntity
  8
METAL
100
AcDbFaceRecord
 10
0.0
 20
0.0
 30
0.0
 70
   128
 71
     9
 72
    11
 73
    19
 74
    17
  0
VERTEX
  5
178
330
3C
100
AcDbEntity
  8
METAL
100
AcDbFaceRecord
 10
0.0
 20
0.0
 30
0.0
 70
   128
 71
    17
 72
    19
 73
    33
 74
    33
  0
VERTEX
  5
179
330
3C
100
AcDbEntity
  8
METAL
100
AcDbFaceRecord
 10
0.0
 20
0.0
 30
0.0
 70
   128
 71
    31
 72
    15
 73
    17
 74
    33
  0
VERTEX
  5
17A
330
3C
100
AcDbEntity
  8
METAL
100
AcDbFaceRecord
 10
0.0
 20
0.0
 30
0.0
 70
   128
 71
    15
 72
     7
 73
     9
 74
    17
  0
VERTEX
  5
17B
330
3C
100
AcDbEntity
  8
METAL
100
AcDbFaceRecord
 10
0.0
 20
0.0
 30
0.0
 70
   128
 71
     7
 72
     2
 73
     3
 74
     9
  0
VERTEX
  5
17C
330
3C
100
AcDbEntity
  8
METAL
100
AcDbFaceRecord
 10
0.0
 20
0.0
 30
0.0
 70
   128
 71
     2
 72
     8
 73
    10
 74
     3
  0
VERTEX
  5
17D
330
3C
100
AcDbEntity
  8
METAL
100
AcDbFaceRecord
 10
0.0
 20
0.0
 30
0.0
 70
   128
 71
     8
 72
    16
 73
    18
 74
    10
  0
VERTEX
  5
17E
330
3C
100
AcDbEntity
  8
METAL
100
AcDbFaceRecord
 10
0.0
 20
0.0
 30
0.0
 70
   128
 71
    34
 72
    18
 73
    16
 74
    32
  0
SEQEND
  5
17F
330
3C
100
AcDbEntity
  8
METAL
  0
ENDSEC
  0
SECTION
  2
OBJECTS
  0
DICTIONARY
  5
C
330
0
100
AcDbDictionary
281
     1
  3
ACAD_GROUP
350
D
  3
ACAD_LAYOUT
350
1A
  3
ACAD_MLEADERSTYLE
350
181
  3
ACAD_MLINESTYLE
350
17
  3
ACAD_PLOTSETTINGS
350
19
  3
ACAD_PLOTSTYLENAME
350
E
  3
ACAD_TABLESTYLE
350
180
  3
ACAD_VISUALSTYLE
350
2A
  0
DICTIONARY
  5
D
102
{ACAD_REACTORS
330
C
102
}
330
C
100
AcDbDictionary
281
     1
  0
DICTIONARY
  5
1A
102
{ACAD_REACTORS
330
C
102
}
330
C
100
AcDbDictionary
281
     1
  3
Layout1
350
1E
  3
Layout2
350
26
  3
Model
350
22
  0
DICTIONARY
  5
181
102
{ACAD_REACTORS
330
C
102
}
330
C
100
AcDbDictionary
281
     1
  0
DICTIONARY
  5
17
102
{ACAD_REACTORS
330
C
102
}
330
C
100
AcDbDictionary
281
     1
  3
Standard
350
18
  0
DICTIONARY
  5
19
102
{ACAD_REACTORS
330
C
102
}
330
C
100
AcDbDictionary
281
     1
  0
ACDBDICTIONARYWDFLT
  5
E
102
{ACAD_REACTORS
330
C
102
}
330
C
100
AcDbDictionary
281
     1
  3
Normal
350
F
100
AcDbDictionaryWithDefault
340
F
  0
DICTIONARY
  5
180
102
{ACAD_REACTORS
330
C
102
}
330
C
100
AcDbDictionary
281
     1
  0
DICTIONARY
  5
2A
102
{ACAD_REACTORS
330
C
102
}
330
C
100
AcDbDictionary
281
     1
  3
2dWireframe
350
2F
  3
3D Hidden
350
31
  3
3dWireframe
350
30
  3
Basic
350
32
  3
Brighten
350
36
  3
ColorChange
350
3A
  3
Conceptual
350
34
  3
Dim
350
35
  3
Facepattern
350
39
  3
Flat
350
2B
  3
FlatWithEdges
350
2C
  3
Gouraud
350
2D
  3
GouraudWithEdges
350
2E
  3
Linepattern
350
38
  3
Realistic
350
33
  3
Thicken
350
37
  0
LAYOUT
  5
1E
102
{ACAD_REACTORS
330
1A
102
}
330
1A
100
AcDbPlotSettings
  1

  2
none_device
  4

  6

 40
0.0
 41
0.0
 42
0.0
 43
0.0
 44
0.0
 45
0.0
 46
0.0
 47
0.0
 48
0.0
 49
0.0
140
0.0
141
0.0
142
1.0
143
1.0
 70
   688
 72
     0
 73
     0
 74
     5
  7

 75
    16
 76
     0
 77
     2
 78
   300
147
1.0
148
0.0
149
0.0
100
AcDbLayout
  1
Layout1
 70
     1
 71
     1
 10
0.0
 20
0.0
 11
12.0
 21
9.0
 12
0.0
 22
0.0
 32
0.0
 14
1.000000000000000E+20
 24
1.000000000000000E+20
 34
1.000000000000000E+20
 15
-1.000000000000000E+20
 25
-1.000000000000000E+20
 35
-1.000000000000000E+20
146
0.0
 13
0.0
 23
0.0
 33
0.0
 16
1.0
 26
0.0
 36
0.0
 17
0.0
 27
1.0
 37
0.0
 76
     0
330
1B
  0
LAYOUT
  5
26
102
{ACAD_REACTORS
330
1A
102
}
330
1A
100
AcDbPlotSettings
  1

  2
none_device
  4

  6

 40
0.0
 41
0.0
 42
0.0
 43
0.0
 44
0.0
 45
0.0
 46
0.0
 47
0.0
 48
0.0
 49
0.0
140
0.0
141
0.0
142
1.0
143
1.0
 70
   688
 72
     0
 73
     0
 74
     5
  7

 75
    16
 76
     0
 77
     2
 78
   300
147
1.0
148
0.0
149
0.0
100
AcDbLayout
  1
Layout2
 70
     1
 71
     2
 10
0.0
 20
0.0
 11
0.0
 21
0.0
 12
0.0
 22
0.0
 32
0.0
 14
0.0
 24
0.0
 34
0.0
 15
0.0
 25
0.0
 35
0.0
146
0.0
 13
0.0
 23
0.0
 33
0.0
 16
1.0
 26
0.0
 36
0.0
 17
0.0
 27
1.0
 37
0.0
 76
     0
330
23
  0
LAYOUT
  5
22
102
{ACAD_REACTORS
330
1A
102
}
330
1A
100
AcDbPlotSettings
  1

  2
none_device
  4

  6

 40
0.0
 41
0.0
 42
0.0
 43
0.0
 44
0.0
 45
0.0
 46
0.0
 47
0.0
 48
0.0
 49
0.0
140
0.0
141
0.0
142
1.0
143
1.0
 70
  1712
 72
     0
 73
     0
 74
     0
  7

 75
     0
 76
     0
 77
     2
 78
   300
147
1.0
148
0.0
149
0.0
100
AcDbLayout
  1
Model
 70
     1
 71
     0
 10
0.0
 20
0.0
 11
12.0
 21
9.0
 12
0.0
 22
0.0
 32
0.0
 14
-10.0
 24
-30.47951889038086
 34
-6.5
 15
48.88723754882812
 25
0.0
 35
6.5142822265625
146
0.0
 13
0.0
 23
0.0
 33
0.0
 16
1.0
 26
0.0
 36
0.0
 17
0.0
 27
1.0
 37
0.0
 76
     0
330
1F
331
29
  0
MLINESTYLE
  5
18
102
{ACAD_REACTORS
330
17
102
}
330
17
100
AcDbMlineStyle
  2
Standard
 70
     0
  3

 62
   256
 51
90.0
 52
90.0
 71
     2
 49
0.5
 62
   256
  6
BYLAYER
 49
-0.5
 62
   256
  6
BYLAYER
  0
ACDBPLACEHOLDER
  5
F
102
{ACAD_REACTORS
330
E
102
}
330
E
  0
VISUALSTYLE
  5
2F
102
{ACAD_REACTORS
330
2A
102
}
330
2A
100
AcDbVisualStyle
  2
2dWireframe
 70
     4
 71
     0
 72
     2
 73
     0
 90
        0
 40
-0.6
 41
-30.0
 62
     5
 63
     7
421
 16777215
 74
     1
 91
        4
 64
     7
 65
   257
 75
     1
175
     1
 42
1.0
 92
        0
 66
   257
 43
1.0
 76
     1
 77
     6
 78
     2
 67
     7
 79
     5
170
     0
171
     0
290
     0
174
     0
 93
        1
 44
0.0
173
     0
291
     0
 45
0.0
1001
ACAD
1000
AcDbSavedByObjectVersion
1070
     0
  0
VISUALSTYLE
  5
31
102
{ACAD_REACTORS
330
2A
102
}
330
2A
100
AcDbVisualStyle
  2
3D Hidden
 70
     6
 71
     1
 72
     2
 73
     2
 90
        0
 40
-0.6
 41
-30.0
 62
     5
 63
     7
421
 16777215
 74
     2
 91
        2
 64
     7
 65
   257
 75
     2
175
     1
 42
40.0
 92
        0
 66
   257
 43
1.0
 76
     1
 77
     6
 78
     2
 67
     7
 79
     3
170
     0
171
     0
290
     0
174
     0
 93
        1
 44
0.0
173
     0
291
     0
 45
0.0
1001
ACAD
1000
AcDbSavedByObjectVersion
1070
     0
  0
VISUALSTYLE
  5
30
102
{ACAD_REACTORS
330
2A
102
}
330
2A
100
AcDbVisualStyle
  2
3dWireframe
 70
     5
 71
     0
 72
     2
 73
     0
 90
        0
 40
-0.6
 41
-30.0
 62
     5
 63
     7
421
 16777215
 74
     1
 91
        4
 64
     7
 65
   257
 75
     1
175
     1
 42
1.0
 92
        0
 66
   257
 43
1.0
 76
     1
 77
     6
 78
     2
 67
     7
 79
     5
170
     0
171
     0
290
     0
174
     0
 93
        1
 44
0.0
173
     0
291
     0
 45
0.0
1001
ACAD
1000
AcDbSavedByObjectVersion
1070
     0
  0
VISUALSTYLE
  5
32
102
{ACAD_REACTORS
330
2A
102
}
330
2A
100
AcDbVisualStyle
  2
Basic
 70
     7
 71
     1
 72
     0
 73
     1
 90
        0
 40
-0.6
 41
-30.0
 62
     5
 63
     7
421
 16777215
 74
     0
 91
        4
 64
     7
 65
   257
 75
     1
175
     1
 42
1.0
 92
        8
 66
     7
 43
1.0
 76
     1
 77
     6
 78
     2
 67
     7
 79
     5
170
     0
171
     0
290
     0
174
     0
 93
        1
 44
0.0
173
     0
291
     1
 45
0.0
1001
ACAD
1000
AcDbSavedByObjectVersion
1070
     0
  0
VISUALSTYLE
  5
36
102
{ACAD_REACTORS
330
2A
102
}
330
2A
100
AcDbVisualStyle
  2
Brighten
 70
    12
 71
     2
 72
     2
 73
     0
 90
        0
 40
-0.6
 41
-30.0
 62
     5
 63
     7
421
 16777215
 74
     1
 91
        4
 64
     7
 65
   257
 75
     1
175
     1
 42
1.0
 92
        8
 66
     7
 43
1.0
 76
     1
 77
     6
 78
     2
 67
     7
 79
     5
170
     0
171
     0
290
     0
174
     0
 93
        1
 44
50.0
173
     0
291
     1
 45
0.0
1001
ACAD
1000
AcDbSavedByObjectVersion
1070
     0
  0
VISUALSTYLE
  5
3A
102
{ACAD_REACTORS
330
2A
102
}
330
2A
100
AcDbVisualStyle
  2
ColorChange
 70
    16
 71
     2
 72
     2
 73
     3
 90
        0
 40
-0.6
 41
-30.0
 62
     5
 63
     8
421
  8421504
 74
     1
 91
        4
 64
     7
 65
   257
 75
     1
175
     1
 42
1.0
 92
        8
 66
     8
424
  8421504
 43
1.0
 76
     1
 77
     6
 78
     2
 67
     7
 79
     5
170
     0
171
     0
290
     0
174
     0
 93
        1
 44
0.0
173
     0
291
     1
 45
0.0
1001
ACAD
1000
AcDbSavedByObjectVersion
1070
     0
  0
VISUALSTYLE
  5
34
102
{ACAD_REACTORS
330
2A
102
}
330
2A
100
AcDbVisualStyle
  2
Conceptual
 70
     9
 71
     3
 72
     2
 73
     0
 90
        0
 40
-0.6
 41
-30.0
 62
     5
 63
     7
421
 16777215
 74
     2
 91
        2
 64
     7
 65
   257
 75
     1
175
     1
 42
40.0
 92
        8
 66
     7
 43
1.0
 76
     1
 77
     6
 78
     2
 67
     7
 79
     3
170
     0
171
     0
290
     0
174
     0
 93
        1
 44
0.0
173
     0
291
     0
 45
0.0
1001
ACAD
1000
AcDbSavedByObjectVersion
1070
     0
  0
VISUALSTYLE
  5
35
102
{ACAD_REACTORS
330
2A
102
}
330
2A
100
AcDbVisualStyle
  2
Dim
 70
    11
 71
     2
 72
     2
 73
     0
 90
        0
 40
-0.6
 41
-30.0
 62
     5
 63
     7
421
 16777215
 74
     1
 91
        4
 64
     7
 65
   257
 75
     1
175
     1
 42
1.0
 92
        8
 66
     7
 43
1.0
 76
     1
 77
     6
 78
     2
 67
     7
 79
     5
170
     0
171
     0
290
     0
174
     0
 93
        1
 44
-50.0
173
     0
291
     1
 45
0.0
1001
ACAD
1000
AcDbSavedByObjectVersion
1070
     0
  0
VISUALSTYLE
  5
39
102
{ACAD_REACTORS
330
2A
102
}
330
2A
100
AcDbVisualStyle
  2
Facepattern
 70
    15
 71
     2
 72
     2
 73
     0
 90
        0
 40
-0.6
 41
-30.0
 62
     5
 63
     7
421
 16777215
 74
     1
 91
        4
 64
     7
 65
   257
 75
     1
175
     1
 42
1.0
 92
        8
 66
     7
 43
1.0
 76
     1
 77
     6
 78
     2
 67
     7
 79
     5
170
     0
171
     0
290
     0
174
     0
 93
        1
 44
0.0
173
     0
291
     1
 45
0.0
1001
ACAD
1000
AcDbSavedByObjectVersion
1070
     0
  0
VISUALSTYLE
  5
2B
102
{ACAD_REACTORS
330
2A
102
}
330
2A
100
AcDbVisualStyle
  2
Flat
 70
     0
 71
     2
 72
     1
 73
     1
 90
        2
 40
-0.6
 41
30.0
 62
     5
 63
     7
421
 16777215
 74
     0
 91
        4
 64
     7
 65
   257
 75
     1
175
     1
 42
1.0
 92
        8
 66
     7
 43
1.0
 76
     1
 77
     6
 78
     2
 67
     7
 79
     5
170
     0
171
     0
290
     0
174
     0
 93
       13
 44
0.0
173
     0
291
     1
 45
0.0
1001
ACAD
1000
AcDbSavedByObjectVersion
1070
     0
  0
VISUALSTYLE
  5
2C
102
{ACAD_REACTORS
330
2A
102
}
330
2A
100
AcDbVisualStyle
  2
FlatWithEdges
 70
     1
 71
     2
 72
     1
 73
     1
 90
        2
 40
-0.6
 41
30.0
 62
     5
 63
     7
421
 16777215
 74
     1
 91
        4
 64
     7
 65
   257
 75
     1
175
     1
 42
1.0
 92
        0
 66
   257
 43
1.0
 76
     1
 77
     6
 78
     2
 67
     7
 79
     5
170
     0
171
     0
290
     0
174
     0
 93
       13
 44
0.0
173
     0
291
     1
 45
0.0
1001
ACAD
1000
AcDbSavedByObjectVersion
1070
     0
  0
VISUALSTYLE
  5
2D
102
{ACAD_REACTORS
330
2A
102
}
330
2A
100
AcDbVisualStyle
  2
Gouraud
 70
     2
 71
     2
 72
     2
 73
     1
 90
        2
 40
-0.6
 41
30.0
 62
     5
 63
     7
421
 16777215
 74
     0
 91
        4
 64
     7
 65
   257
 75
     1
175
     1
 42
1.0
 92
        0
 66
     7
 43
1.0
 76
     1
 77
     6
 78
     2
 67
     7
 79
     5
170
     0
171
     0
290
     0
174
     0
 93
       13
 44
0.0
173
     0
291
     1
 45
0.0
1001
ACAD
1000
AcDbSavedByObjectVersion
1070
     0
  0
VISUALSTYLE
  5
2E
102
{ACAD_REACTORS
330
2A
102
}
330
2A
100
AcDbVisualStyle
  2
GouraudWithEdges
 70
     3
 71
     2
 72
     2
 73
     1
 90
        2
 40
-0.6
 41
30.0
 62
     5
 63
     7
421
 16777215
 74
     1
 91
        4
 64
     7
 65
   257
 75
     1
175
     1
 42
1.0
 92
        0
 66
   257
 43
1.0
 76
     1
 77
     6
 78
     2
 67
     7
 79
     5
170
     0
171
     0
290
     0
174
     0
 93
       13
 44
0.0
173
     0
291
     1
 45
0.0
1001
ACAD
1000
AcDbSavedByObjectVersion
1070
     0
  0
VISUALSTYLE
  5
38
102
{ACAD_REACTORS
330
2A
102
}
330
2A
100
AcDbVisualStyle
  2
Linepattern
 70
    14
 71
     2
 72
     2
 73
     0
 90
        0
 40
-0.6
 41
-30.0
 62
     5
 63
     7
421
 16777215
 74
     1
 91
        4
 64
     7
 65
   257
 75
     7
175
     7
 42
1.0
 92
        8
 66
     7
 43
1.0
 76
     1
 77
     6
 78
     2
 67
     7
 79
     5
170
     0
171
     0
290
     0
174
     0
 93
        1
 44
0.0
173
     0
291
     1
 45
0.0
1001
ACAD
1000
AcDbSavedByObjectVersion
1070
     0
  0
VISUALSTYLE
  5
33
102
{ACAD_REACTORS
330
2A
102
}
330
2A
100
AcDbVisualStyle
  2
Realistic
 70
     8
 71
     2
 72
     2
 73
     0
 90
        0
 40
-0.6
 41
-30.0
 62
     5
 63
     7
421
 16777215
 74
     1
 91
        0
 64
     7
 65
   257
 75
     1
175
     1
 42
1.0
 92
        8
 66
     8
424
  7895160
 43
1.0
 76
     1
 77
     6
 78
     2
 67
     7
 79
     5
170
     0
171
     0
290
     0
174
     0
 93
       13
 44
0.0
173
     0
291
     0
 45
0.0
1001
ACAD
1000
AcDbSavedByObjectVersion
1070
     0
  0
VISUALSTYLE
  5
37
102
{ACAD_REACTORS
330
2A
102
}
330
2A
100
AcDbVisualStyle
  2
Thicken
 70
    13
 71
     2
 72
     2
 73
     0
 90
        0
 40
-0.6
 41
-30.0
 62
     5
 63
     7
421
 16777215
 74
     1
 91
        4
 64
     7
 65
   257
 75
     1
175
     1
 42
1.0
 92
       12
 66
     7
 43
1.0
 76
     1
 77
     6
 78
     2
 67
     7
 79
     5
170
     0
171
     0
290
     0
174
     0
 93
        1
 44
0.0
173
     0
291
     1
 45
0.0
1001
ACAD
1000
AcDbSavedByObjectVersion
1070
     0
  0
ENDSEC
  0
EOF
