  0
SECTION
  2
HEADER
  9
$ACADVER
  1
AC1009
  9
$DWGCODEPAGE
  3
ansi_1252
  9
$INSBASE
 10
0.0
 20
0.0
 30
0.0
  9
$EXTMIN
 10
-5.5
 20
-24.64905548095702
 30
-37.5
  9
$EXTMAX
 10
5.876392745971678
 20
0.0
 30
17.56045532226563
  9
$LIMMIN
 10
0.0
 20
0.0
  9
$LIMMAX
 10
12.0
 20
9.0
  9
$ORTHOMODE
 70
     1
  9
$REGENMODE
 70
     1
  9
$FILLMODE
 70
     1
  9
$QTEXTMODE
 70
     0
  9
$MIRRTEXT
 70
     1
  9
$DRAGMODE
 70
     2
  9
$LTSCALE
 40
1.0
  9
$OSMODE
 70
    37
  9
$ATTMODE
 70
     1
  9
$TEXTSIZE
 40
0.2
  9
$TRACEWID
 40
0.05
  9
$TEXTSTYLE
  7
STANDARD
  9
$CLAYER
  8
0
  9
$CELTYPE
  6
BYLAYER
  9
$CECOLOR
 62
   256
  9
$DIMSCALE
 40
1.0
  9
$DIMASZ
 40
0.18
  9
$DIMEXO
 40
0.0625
  9
$DIMDLI
 40
0.38
  9
$DIMRND
 40
0.0
  9
$DIMDLE
 40
0.0
  9
$DIMEXE
 40
0.18
  9
$DIMTP
 40
0.0
  9
$DIMTM
 40
0.0
  9
$DIMTXT
 40
0.18
  9
$DIMCEN
 40
0.09
  9
$DIMTSZ
 40
0.0
  9
$DIMTOL
 70
     0
  9
$DIMLIM
 70
     0
  9
$DIMTIH
 70
     1
  9
$DIMTOH
 70
     1
  9
$DIMSE1
 70
     0
  9
$DIMSE2
 70
     0
  9
$DIMTAD
 70
     0
  9
$DIMZIN
 70
     0
  9
$DIMBLK
  1

  9
$DIMASO
 70
     1
  9
$DIMSHO
 70
     1
  9
$DIMPOST
  1

  9
$DIMAPOST
  1

  9
$DIMALT
 70
     0
  9
$DIMALTD
 70
     2
  9
$DIMALTF
 40
25.4
  9
$DIMLFAC
 40
1.0
  9
$DIMTOFL
 70
     0
  9
$DIMTVP
 40
0.0
  9
$DIMTIX
 70
     0
  9
$DIMSOXD
 70
     0
  9
$DIMSAH
 70
     0
  9
$DIMBLK1
  1

  9
$DIMBLK2
  1

  9
$DIMSTYLE
  2
STANDARD
  9
$DIMCLRD
 70
     0
  9
$DIMCLRE
 70
     0
  9
$DIMCLRT
 70
     0
  9
$DIMTFAC
 40
1.0
  9
$DIMGAP
 40
0.09
  9
$LUNITS
 70
     2
  9
$LUPREC
 70
     3
  9
$SKETCHINC
 40
0.1
  9
$FILLETRAD
 40
0.5
  9
$AUNITS
 70
     0
  9
$AUPREC
 70
     0
  9
$MENU
  1
.
  9
$ELEVATION
 40
0.0
  9
$PELEVATION
 40
0.0
  9
$THICKNESS
 40
0.0
  9
$LIMCHECK
 70
     0
  9
$CHAMFERA
 40
0.5
  9
$CHAMFERB
 40
0.5
  9
$SKPOLY
 70
     0
  9
$TDCREATE
 40
2456496.672855648
  9
$TDUPDATE
 40
2456496.67285566
  9
$TDINDWG
 40
0.0018518519
  9
$TDUSRTIMER
 40
0.0018518519
  9
$USRTIMER
 70
     1
  9
$ANGBASE
 50
0.0
  9
$ANGDIR
 70
     0
  9
$PDMODE
 70
     0
  9
$PDSIZE
 40
0.0
  9
$PLINEWID
 40
0.0
  9
$COORDS
 70
     1
  9
$SPLFRAME
 70
     0
  9
$SPLINETYPE
 70
     6
  9
$SPLINESEGS
 70
     8
  9
$ATTDIA
 70
     0
  9
$ATTREQ
 70
     1
  9
$HANDLING
 70
     1
  9
$HANDSEED
  5
38D
  9
$SURFTAB1
 70
     6
  9
$SURFTAB2
 70
     6
  9
$SURFTYPE
 70
     6
  9
$SURFU
 70
     6
  9
$SURFV
 70
     6
  9
$UCSNAME
  2

  9
$UCSORG
 10
0.0
 20
0.0
 30
0.0
  9
$UCSXDIR
 10
0.0
 20
1.0
 30
0.0
  9
$UCSYDIR
 10
0.0
 20
0.0
 30
1.0
  9
$PUCSNAME
  2

  9
$PUCSORG
 10
0.0
 20
0.0
 30
0.0
  9
$PUCSXDIR
 10
1.0
 20
0.0
 30
0.0
  9
$PUCSYDIR
 10
0.0
 20
1.0
 30
0.0
  9
$USERI1
 70
     0
  9
$USERI2
 70
     0
  9
$USERI3
 70
     0
  9
$USERI4
 70
     0
  9
$USERI5
 70
     0
  9
$USERR1
 40
0.0
  9
$USERR2
 40
0.0
  9
$USERR3
 40
0.0
  9
$USERR4
 40
0.0
  9
$USERR5
 40
0.0
  9
$WORLDVIEW
 70
     1
  9
$SHADEDGE
 70
     3
  9
$SHADEDIF
 70
    70
  9
$TILEMODE
 70
     1
  9
$MAXACTVP
 70
    64
  9
$PLIMCHECK
 70
     0
  9
$PEXTMIN
 10
1.000000000000000E+20
 20
1.000000000000000E+20
 30
1.000000000000000E+20
  9
$PEXTMAX
 10
-1.000000000000000E+20
 20
-1.000000000000000E+20
 30
-1.000000000000000E+20
  9
$PLIMMIN
 10
0.0
 20
0.0
  9
$PLIMMAX
 10
12.0
 20
9.0
  9
$UNITMODE
 70
     0
  9
$VISRETAIN
 70
     1
  9
$PLINEGEN
 70
     0
  9
$PSLTSCALE
 70
     1
  0
ENDSEC
  0
SECTION
  2
TABLES
  0
TABLE
  2
VPORT
 70
     1
  0
VPORT
  2
*ACTIVE
 70
     0
 10
0.0
 20
0.0
 11
1.0
 21
1.0
 12
8.847832071747073
 22
-13.09492156059471
 13
0.0
 23
0.0
 14
0.5
 24
0.5
 15
0.5
 25
0.5
 16
-1.0
 26
-1.0
 36
1.0
 17
0.0
 27
0.0
 37
0.0
 40
76.07160148765949
 41
5.016261407234424
 42
50.0
 43
0.0
 44
0.0
 50
0.0
 51
0.0
 71
    16
 72
   100
 73
     0
 74
     1
 75
     0
 76
     0
 77
     0
 78
     0
  0
ENDTAB
  0
TABLE
  2
LTYPE
 70
     1
  0
LTYPE
  2
CONTINUOUS
 70
     0
  3
Solid line
 72
    65
 73
     0
 40
0.0
  0
ENDTAB
  0
TABLE
  2
LAYER
 70
     2
  0
LAYER
  2
0
 70
     0
 62
     7
  6
CONTINUOUS
  0
LAYER
  2
METAL
 70
     0
 62
    76
  6
CONTINUOUS
  0
ENDTAB
  0
TABLE
  2
STYLE
 70
     1
  0
STYLE
  2
STANDARD
 70
     0
 40
0.0
 41
1.0
 50
0.0
 71
     0
 42
0.2
  3
txt
  4

  0
ENDTAB
  0
TABLE
  2
VIEW
 70
     0
  0
ENDTAB
  0
TABLE
  2
UCS
 70
     0
  0
ENDTAB
  0
TABLE
  2
APPID
 70
     1
  0
APPID
  2
ACAD
 70
     0
  0
ENDTAB
  0
TABLE
  2
DIMSTYLE
 70
     1
  0
DIMSTYLE
  2
STANDARD
 70
     0
  3

  4

  5

  6

  7

 40
1.0
 41
0.18
 42
0.0625
 43
0.38
 44
0.18
 45
0.0
 46
0.0
 47
0.0
 48
0.0
140
0.18
141
0.09
142
0.0
143
25.4
144
1.0
145
0.0
146
1.0
147
0.09
 71
     0
 72
     0
 73
     1
 74
     1
 75
     0
 76
     0
 77
     0
 78
     0
170
     0
171
     2
172
     0
173
     0
174
     0
175
     0
176
     0
177
     0
178
     0
  0
ENDTAB
  0
ENDSEC
  0
SECTION
  2
BLOCKS
  0
BLOCK
  8
0
  2
$MODEL_SPACE
 70
     0
 10
0.0
 20
0.0
 30
0.0
  3
$MODEL_SPACE
  1

  0
ENDBLK
  5
21
  8
0
  0
BLOCK
 67
     1
  8
0
  2
$PAPER_SPACE
 70
     0
 10
0.0
 20
0.0
 30
0.0
  3
$PAPER_SPACE
  1

  0
ENDBLK
  5
76
 67
     1
  8
0
  0
ENDSEC
  0
SECTION
  2
ENTITIES
  0
POLYLINE
  5
3C
  8
METAL
 66
     1
 10
0.0
 20
0.0
 30
0.0
 70
    64
 71
   340
 72
   329
  0
VERTEX
  5
3D
  8
METAL
 10
2.627132797241199
 20
-23.82118606567383
 30
-37.41970825195312
 70
   192
  0
VERTEX
  5
3E
  8
METAL
 10
-2.266326904296889
 20
-20.17774581909178
 30
-37.145263671875
 70
   192
  0
VERTEX
  5
3F
  8
METAL
 10
2.642347717285151
 20
-20.17774581909178
 30
-37.14523315429693
 70
   192
  0
VERTEX
  5
40
  8
METAL
 10
3.40037193298339
 20
-20.93589401245116
 30
-37.12277221679693
 70
   192
  0
VERTEX
  5
41
  8
METAL
 10
-3.023984909057631
 20
-20.93745040893553
 30
-37.12261962890625
 70
   192
  0
VERTEX
  5
42
  8
METAL
 10
-2.531505584716811
 20
-20.17193222045898
 30
-37.0927734375
 70
   192
  0
VERTEX
  5
43
  8
METAL
 10
3.40254440307616
 20
-20.66709518432616
 30
-37.07797241210932
 70
   192
  0
VERTEX
  5
44
  8
METAL
 10
3.40020217895507
 20
-23.81070327758788
 30
-37.04159545898432
 70
   192
  0
VERTEX
  5
45
  8
METAL
 10
-3.023808479309089
 20
-23.81070327758788
 30
-37.04159545898432
 70
   192
  0
VERTEX
  5
46
  8
METAL
 10
2.64281311035155
 20
-24.56756210327148
 30
-37.01986694335932
 70
   192
  0
VERTEX
  5
47
  8
METAL
 10
-2.266044616699229
 20
-24.56756210327148
 30
-37.01986694335932
 70
   192
  0
VERTEX
  5
48
  8
METAL
 10
-3.025971412658699
 20
-24.07204818725586
 30
-36.98159790039062
 70
   192
  0
VERTEX
  5
49
  8
METAL
 10
2.907898330688472
 20
-24.56610488891601
 30
-36.96737670898432
 70
   192
  0
VERTEX
  5
4A
  8
METAL
 10
3.135946655273429
 20
-20.12407684326172
 30
-36.67483520507812
 70
   192
  0
VERTEX
  5
4B
  8
METAL
 10
-2.759600639343269
 20
-20.12395477294922
 30
-36.67379760742193
 70
   192
  0
VERTEX
  5
4C
  8
METAL
 10
3.420210266113269
 20
-20.40886306762695
 30
-36.666015625
 70
   192
  0
VERTEX
  5
4D
  8
METAL
 10
-3.0438632965088
 20
-20.40874099731445
 30
-36.66494750976562
 70
   192
  0
VERTEX
  5
4E
  8
METAL
 10
-3.138597488403331
 20
-20.88351058959961
 30
-36.65127563476562
 70
   192
  0
VERTEX
  5
4F
  8
METAL
 10
3.420107269287101
 20
-24.27064132690428
 30
-36.55551147460932
 70
   192
  0
VERTEX
  5
50
  8
METAL
 10
3.13596572875975
 20
-24.55445861816406
 30
-36.5472412109375
 70
   192
  0
VERTEX
  5
51
  8
METAL
 10
-2.286020278930671
 20
-24.64905166625976
 30
-36.54415893554693
 70
   192
  0
VERTEX
  5
52
  8
METAL
 10
2.99548759460448
 20
-19.12703323364256
 30
-28.82223510742193
 70
   192
  0
VERTEX
  5
53
  8
METAL
 10
3.46871795654296
 20
-19.22164916992187
 30
-28.81997680664062
 70
   192
  0
VERTEX
  5
54
  8
METAL
 10
-3.092327117919929
 20
-19.22164916992187
 30
-28.81997680664062
 70
   192
  0
VERTEX
  5
55
  8
METAL
 10
3.752657318115219
 20
-19.50550460815428
 30
-28.81307983398432
 70
   192
  0
VERTEX
  5
56
  8
METAL
 10
-3.376266479492202
 20
-19.50550460815428
 30
-28.81307983398432
 70
   192
  0
VERTEX
  5
57
  8
METAL
 10
-3.4709119796753
 20
-19.97859573364256
 30
-28.8016357421875
 70
   192
  0
VERTEX
  5
58
  8
METAL
 10
3.847305679321281
 20
-23.57983779907226
 30
-28.71444702148432
 70
   192
  0
VERTEX
  5
2E7
  8
METAL
 10
3.752659225463859
 20
-24.05292892456053
 30
-28.7030029296875
 70
   192
  0
VERTEX
  5
2E8
  8
METAL
 10
3.468719863891589
 20
-24.33678817749023
 30
-28.69613647460932
 70
   192
  0
VERTEX
  5
5B
  8
METAL
 10
-2.61909484863282
 20
-24.43140029907226
 30
-28.69384765625
 70
   192
  0
VERTEX
  5
5C
  8
METAL
 10
3.247349166870109
 20
-18.43311309814452
 30
-25.43304443359375
 70
   192
  0
VERTEX
  5
5D
  8
METAL
 10
3.720579528808582
 20
-18.52773666381836
 30
-25.43096923828125
 70
   192
  0
VERTEX
  5
2E9
  8
METAL
 10
-3.344188690185561
 20
-18.52773666381836
 30
-25.43096923828125
 70
   192
  0
VERTEX
  5
5F
  8
METAL
 10
4.004516983032222
 20
-18.81160736083984
 30
-25.42474365234375
 70
   192
  0
VERTEX
  5
60
  8
METAL
 10
-3.62812614440919
 20
-18.81160736083984
 30
-25.42474365234375
 70
   192
  0
VERTEX
  5
61
  8
METAL
 10
-3.722772598266609
 20
-19.28472518920898
 30
-25.41433715820312
 70
   192
  0
VERTEX
  5
62
  8
METAL
 10
4.099165344238269
 20
-23.42201614379883
 30
-25.3233642578125
 70
   192
  0
VERTEX
  5
63
  8
METAL
 10
4.004518890380851
 20
-23.89513778686523
 30
-25.31295776367193
 70
   192
  0
VERTEX
  5
64
  8
METAL
 10
3.720581436157222
 20
-24.17900466918945
 30
-25.30673217773432
 70
   192
  0
VERTEX
  5
65
  8
METAL
 10
-2.870956420898452
 20
-24.27362442016601
 30
-25.30465698242193
 70
   192
  0
VERTEX
  5
66
  8
METAL
 10
3.351517105102531
 20
-17.63859176635741
 30
-22.04385375976562
 70
   192
  0
VERTEX
  5
67
  8
METAL
 10
3.824747467041011
 20
-17.73321914672851
 30
-22.0419921875
 70
   192
  0
VERTEX
  5
68
  8
METAL
 10
-3.448356628417979
 20
-17.73321914672851
 30
-22.0419921875
 70
   192
  0
VERTEX
  5
69
  8
METAL
 10
4.108686828613269
 20
-18.01710128784178
 30
-22.03634643554693
 70
   192
  0
VERTEX
  5
6A
  8
METAL
 10
-3.732295036315929
 20
-18.01710128784178
 30
-22.03634643554693
 70
   192
  0
VERTEX
  5
2EA
  8
METAL
 10
-3.826940536499031
 20
-18.49023818969726
 30
-22.0269775390625
 70
   192
  0
VERTEX
  5
2EB
  8
METAL
 10
4.203333282470691
 20
-23.26420593261717
 30
-21.93234252929693
 70
   192
  0
VERTEX
  5
6D
  8
METAL
 10
4.108686828613269
 20
-23.73734664916991
 30
-21.92294311523432
 70
   192
  0
VERTEX
  5
6E
  8
METAL
 10
3.82474937438964
 20
-24.0212287902832
 30
-21.91732788085932
 70
   192
  0
VERTEX
  5
6F
  8
METAL
 10
-2.97512340545655
 20
-24.11584854125976
 30
-21.91543579101562
 70
   192
  0
VERTEX
  5
70
  8
METAL
 10
3.578442001342761
 20
-16.4684944152832
 30
-18.82507324218749
 70
   192
  0
VERTEX
  5
71
  8
METAL
 10
4.051672363281241
 20
-16.56312561035156
 30
-18.82345581054692
 70
   192
  0
VERTEX
  5
72
  8
METAL
 10
-3.67528343200685
 20
-16.56312561035156
 30
-18.82345581054692
 70
   192
  0
VERTEX
  5
2EC
  8
METAL
 10
4.335611724853511
 20
-16.8470230102539
 30
-18.81860351562499
 70
   192
  0
VERTEX
  5
2ED
  8
METAL
 10
-3.959220886230479
 20
-16.8470230102539
 30
-18.81860351562499
 70
   192
  0
VERTEX
  5
2EE
  8
METAL
 10
4.43025817871094
 20
-23.12537002563476
 30
-18.71124267578125
 70
   192
  0
VERTEX
  5
2EF
  8
METAL
 10
4.335611724853511
 20
-23.59852981567383
 30
-18.70315551757812
 70
   192
  0
VERTEX
  5
77
  8
METAL
 10
4.051674270629871
 20
-23.88242721557616
 30
-18.69827270507812
 70
   192
  0
VERTEX
  5
78
  8
METAL
 10
3.578443908691401
 20
-23.97705841064452
 30
-18.69668579101562
 70
   192
  0
VERTEX
  5
79
  8
METAL
 10
3.787336730957019
 20
-15.76544570922851
 30
-17.13973999023431
 70
   192
  0
VERTEX
  5
7A
  8
METAL
 10
-3.410945892333981
 20
-15.76544570922851
 30
-17.13973999023431
 70
   192
  0
VERTEX
  5
7B
  8
METAL
 10
4.26344528198241
 20
-15.83061599731445
 30
-17.07113647460931
 70
   192
  0
VERTEX
  5
7C
  8
METAL
 10
-3.88603591918946
 20
-15.83063125610351
 30
-17.07113647460931
 70
   192
  0
VERTEX
  5
7D
  8
METAL
 10
4.556019210815421
 20
-16.02612686157226
 30
-16.86541748046874
 70
   192
  0
VERTEX
  5
7E
  8
METAL
 10
-4.17555046081544
 20
-16.02619552612303
 30
-16.86535644531249
 70
   192
  0
VERTEX
  5
7F
  8
METAL
 10
-4.27949142456055
 20
-16.35213851928711
 30
-16.52239990234374
 70
   192
  0
VERTEX
  5
80
  8
METAL
 10
3.787336730957019
 20
-15.39185714721678
 30
-16.26986694335931
 70
   192
  0
VERTEX
  5
81
  8
METAL
 10
-3.410945892333981
 20
-15.39185714721678
 30
-16.26986694335931
 70
   192
  0
VERTEX
  5
82
  8
METAL
 10
4.264929199218741
 20
-15.44091796874999
 30
-16.18905639648431
 70
   192
  0
VERTEX
  5
83
  8
METAL
 10
-3.88853931427003
 20
-15.44091796874999
 30
-16.18905639648431
 70
   192
  0
VERTEX
  5
84
  8
METAL
 10
4.56195487976073
 20
-15.58810043334961
 30
-15.94659423828124
 70
   192
  0
VERTEX
  5
85
  8
METAL
 10
-4.185564994812019
 20
-15.58810043334961
 30
-15.94659423828124
 70
   192
  0
VERTEX
  5
86
  8
METAL
 10
4.67841377258301
 20
-15.92272567749023
 30
-15.47601318359374
 70
   192
  0
VERTEX
  5
87
  8
METAL
 10
3.787336730957019
 20
-14.96108627319336
 30
-15.35302734374999
 70
   192
  0
VERTEX
  5
88
  8
METAL
 10
-3.410945892333981
 20
-14.96108627319336
 30
-15.35302734374999
 70
   192
  0
VERTEX
  5
89
  8
METAL
 10
4.264997863769519
 20
-14.99811553955077
 30
-15.26605224609374
 70
   192
  0
VERTEX
  5
8A
  8
METAL
 10
-3.888607978820801
 20
-14.99811553955077
 30
-15.26605224609374
 70
   192
  0
VERTEX
  5
8B
  8
METAL
 10
4.562231445312491
 20
-15.10920333862303
 30
-15.00506591796874
 70
   192
  0
VERTEX
  5
8C
  8
METAL
 10
-4.18584060668946
 20
-15.10920333862303
 30
-15.00506591796874
 70
   192
  0
VERTEX
  5
8D
  8
METAL
 10
-4.302643775939941
 20
-15.37496185302734
 30
-14.34649658203124
 70
   192
  0
VERTEX
  5
8E
  8
METAL
 10
3.787336730957019
 20
-14.33735275268553
 30
-14.33493041992192
 70
   192
  0
VERTEX
  5
8F
  8
METAL
 10
-3.410945892333981
 20
-14.33735275268553
 30
-14.33493041992192
 70
   192
  0
VERTEX
  5
90
  8
METAL
 10
4.26532783508301
 20
-14.36357498168945
 30
-14.24411010742192
 70
   192
  0
VERTEX
  5
91
  8
METAL
 10
-3.888938903808601
 20
-14.36357498168945
 30
-14.24411010742192
 70
   192
  0
VERTEX
  5
2F0
  8
METAL
 10
4.563551330566401
 20
-14.44224548339842
 30
-13.97164916992192
 70
   192
  0
VERTEX
  5
2F1
  8
METAL
 10
-4.187162399291999
 20
-14.44224548339842
 30
-13.97164916992192
 70
   192
  0
VERTEX
  5
94
  8
METAL
 10
4.682005310058589
 20
-14.65450668334961
 30
-13.29342651367192
 70
   192
  0
VERTEX
  5
95
  8
METAL
 10
-4.30561733245851
 20
-14.65450286865234
 30
-13.29342651367192
 70
   192
  0
VERTEX
  5
96
  8
METAL
 10
3.787336730957019
 20
-13.49127578735351
 30
-13.24270629882812
 70
   192
  0
VERTEX
  5
2F2
  8
METAL
 10
-3.410945892333981
 20
-13.49127578735351
 30
-13.24270629882812
 70
   192
  0
VERTEX
  5
2F3
  8
METAL
 10
4.265354537963869
 20
-13.51018524169922
 30
-13.15008544921874
 70
   192
  0
VERTEX
  5
99
  8
METAL
 10
-3.88896369934082
 20
-13.51018524169922
 30
-13.15008544921874
 70
   192
  0
VERTEX
  5
9A
  8
METAL
 10
-4.187263488769531
 20
-13.56692504882812
 30
-12.87225341796874
 70
   192
  0
VERTEX
  5
9B
  8
METAL
 10
-4.305847167968761
 20
-13.6614875793457
 30
-12.18615722656249
 70
   192
  0
VERTEX
  5
9C
  8
METAL
 10
4.005096817016589
 20
-12.49835586547851
 30
-12.17871093749999
 70
   192
  0
VERTEX
  5
9D
  8
METAL
 10
4.482277297973621
 20
-12.51758956909178
 30
-12.08612060546874
 70
   192
  0
VERTEX
  5
9E
  8
METAL
 10
-4.1058864593506
 20
-12.51758956909178
 30
-12.08612060546874
 70
   192
  0
VERTEX
  5
9F
  8
METAL
 10
4.778061294555659
 20
-12.57527923583984
 30
-11.80834960937499
 70
   192
  0
VERTEX
  5
A0
  8
METAL
 10
-4.401671409606941
 20
-12.57527923583984
 30
-11.80834960937499
 70
   192
  0
VERTEX
  5
A1
  8
METAL
 10
-4.516061782836911
 20
-12.67143630981445
 30
-11.34542846679692
 70
   192
  0
VERTEX
  5
A2
  8
METAL
 10
4.005098724365229
 20
-10.97945022583006
 30
-11.03872680664062
 70
   192
  0
VERTEX
  5
A3
  8
METAL
 10
4.48217239379883
 20
-10.99554443359374
 30
-10.94555664062499
 70
   192
  0
VERTEX
  5
A4
  8
METAL
 10
-4.105781555175781
 20
-10.99554443359374
 30
-10.94555664062499
 70
   192
  0
VERTEX
  5
A5
  8
METAL
 10
4.777645492553699
 20
-11.04382705688476
 30
-10.66598510742192
 70
   192
  0
VERTEX
  5
A6
  8
METAL
 10
-4.401252746582031
 20
-11.04382705688476
 30
-10.66598510742192
 70
   192
  0
VERTEX
  5
A7
  8
METAL
 10
-4.515121459960941
 20
-11.12429046630859
 30
-10.20004272460931
 70
   192
  0
VERTEX
  5
A8
  8
METAL
 10
4.005098724365229
 20
-8.945823669433587
 30
-9.89923095703124
 70
   192
  0
VERTEX
  5
A9
  8
METAL
 10
4.48217239379883
 20
-8.961914062499993
 30
-9.80603027343749
 70
   192
  0
VERTEX
  5
AA
  8
METAL
 10
-4.105781555175781
 20
-8.961914062499993
 30
-9.80603027343749
 70
   192
  0
VERTEX
  5
AB
  8
METAL
 10
4.777645492553699
 20
-9.010196685791009
 30
-9.52648925781249
 70
   192
  0
VERTEX
  5
AC
  8
METAL
 10
4.950527572631842
 20
-22.62048721313476
 30
-9.196044921875
 70
   192
  0
VERTEX
  5
AD
  8
METAL
 10
-4.515121459960941
 20
-9.090660095214837
 30
-9.06054687499999
 70
   192
  0
VERTEX
  5
AE
  8
METAL
 10
4.870275878906241
 20
-22.94633865356445
 30
-8.853179931640621
 70
   192
  0
VERTEX
  5
AF
  8
METAL
 10
4.005098724365229
 20
-6.35640716552734
 30
-8.69006347656249
 70
   192
  0
VERTEX
  5
B0
  8
METAL
 10
4.594972991943351
 20
-23.14184951782226
 30
-8.6474609375
 70
   192
  0
VERTEX
  5
B1
  8
METAL
 10
4.482202911376941
 20
-6.36870193481445
 30
-8.59631347656249
 70
   192
  0
VERTEX
  5
B2
  8
METAL
 10
-4.10581016540527
 20
-6.36870193481445
 30
-8.59631347656249
 70
   192
  0
VERTEX
  5
B3
  8
METAL
 10
4.124620819091799
 20
-23.2070198059082
 30
-8.578887939453121
 70
   192
  0
VERTEX
  5
B4
  8
METAL
 10
-3.628705978393569
 20
-23.2070198059082
 30
-8.578887939453121
 70
   192
  0
VERTEX
  5
B5
  8
METAL
 10
-4.401369094848629
 20
-6.405590057373036
 30
-8.31500244140624
 70
   192
  0
VERTEX
  5
B6
  8
METAL
 10
4.005098724365229
 20
-5.047523498535153
 30
-8.287750244140621
 70
   192
  0
VERTEX
  5
B7
  8
METAL
 10
4.482212448120119
 20
-5.053749084472653
 30
-8.193389892578121
 70
   192
  0
VERTEX
  5
B8
  8
METAL
 10
-4.10582160949707
 20
-5.053749084472653
 30
-8.193389892578121
 70
   192
  0
VERTEX
  5
B9
  8
METAL
 10
4.005098724365229
 20
-3.365016937255863
 30
-7.931823730468739
 70
   192
  0
VERTEX
  5
BA
  8
METAL
 10
-4.4014139175415
 20
-5.072429656982418
 30
-7.910308837890621
 70
   192
  0
VERTEX
  5
BB
  8
METAL
 10
-4.515382766723629
 20
-6.467071533203121
 30
-7.846191406249989
 70
   192
  0
VERTEX
  5
BC
  8
METAL
 10
4.482248687744129
 20
-3.365016937255863
 30
-7.837249755859311
 70
   192
  0
VERTEX
  5
BD
  8
METAL
 10
4.005098724365229
 20
-1.68250846862793
 30
-7.694030761718739
 70
   192
  0
VERTEX
  5
BE
  8
METAL
 10
-4.10590839385986
 20
-1.68250656127929
 30
-7.599456787109311
 70
   192
  0
VERTEX
  5
BF
  8
METAL
 10
4.77794876098633
 20
-3.365016937255863
 30
-7.553558349609311
 70
   192
  0
VERTEX
  5
C0
  8
METAL
 10
-3.628705978393569
 20
0.0
 30
-7.476959228515621
 70
   192
  0
VERTEX
  5
C1
  8
METAL
 10
-4.515482902526859
 20
-5.10356521606445
 30
-7.438507080078121
 70
   192
  0
VERTEX
  5
C2
  8
METAL
 10
4.482309722900379
 20
0.0
 30
-7.382385253906239
 70
   192
  0
VERTEX
  5
C3
  8
METAL
 10
-4.10591888427734
 20
0.0
 30
-7.382385253906239
 70
   192
  0
VERTEX
  5
C4
  8
METAL
 10
-4.401763916015629
 20
-1.68250656127929
 30
-7.315765380859311
 70
   192
  0
VERTEX
  5
C5
  8
METAL
 10
4.77819099426269
 20
0.0
 30
-7.098693847656239
 70
   192
  0
VERTEX
  5
C6
  8
METAL
 10
-4.401800155639659
 20
0.0
 30
-7.098693847656239
 70
   192
  0
VERTEX
  5
C7
  8
METAL
 10
4.892197036743159
 20
-3.365016937255863
 30
-7.080749511718739
 70
   192
  0
VERTEX
  5
C8
  8
METAL
 10
-4.516269683837891
 20
-1.68250656127929
 30
-6.842956542968739
 70
   192
  0
VERTEX
  5
C9
  8
METAL
 10
4.892742538452151
 20
0.0
 30
-6.625885009765621
 70
   192
  0
VERTEX
  5
CA
  8
METAL
 10
5.266361618041991
 20
-22.28743362426756
 30
-4.420257568359318
 70
   192
  0
VERTEX
  5
CB
  8
METAL
 10
5.193527603149409
 20
-22.53273391723633
 30
-4.01617431640625
 70
   192
  0
VERTEX
  5
CC
  8
METAL
 10
4.922678375244129
 20
-22.67991256713866
 30
-3.773712158203125
 70
   192
  0
VERTEX
  5
CD
  8
METAL
 10
4.453810119628901
 20
-22.72897338867187
 30
-3.692901611328125
 70
   192
  0
VERTEX
  5
CE
  8
METAL
 10
-4.07741641998291
 20
-22.72896957397461
 30
-3.692901611328125
 70
   192
  0
VERTEX
  5
CF
  8
METAL
 10
5.45033874511719
 20
-21.67536544799804
 30
0.4573974609375
 70
   192
  0
VERTEX
  5
D0
  8
METAL
 10
5.377848052978521
 20
-21.86051177978516
 30
0.892333984375
 70
   192
  0
VERTEX
  5
D1
  8
METAL
 10
5.107204818725592
 20
-21.97159957885742
 30
1.1533203125
 70
   192
  0
VERTEX
  5
D2
  8
METAL
 10
4.638405227661121
 20
-22.00862884521484
 30
1.24029541015625
 70
   192
  0
VERTEX
  5
D3
  8
METAL
 10
-4.26201248168945
 20
-22.00862503051757
 30
1.24029541015625
 70
   192
  0
VERTEX
  5
D4
  8
METAL
 10
5.716186904907229
 20
-20.49124908447266
 30
5.64883422851562
 70
   192
  0
VERTEX
  5
D5
  8
METAL
 10
5.645349884033202
 20
-20.62236404418945
 30
6.102935791015621
 70
   192
  0
VERTEX
  5
D6
  8
METAL
 10
5.375696563720702
 20
-20.70103073120117
 30
6.375335693359379
 70
   192
  0
VERTEX
  5
D7
  8
METAL
 10
4.907226943969729
 20
-20.72725296020507
 30
6.466156005859379
 70
   192
  0
VERTEX
  5
D8
  8
METAL
 10
-4.53083419799805
 20
-20.72724914550781
 30
6.466156005859379
 70
   192
  0
VERTEX
  5
D9
  8
METAL
 10
5.867906951904299
 20
-19.07727813720703
 30
9.452239990234379
 70
   192
  0
VERTEX
  5
DA
  8
METAL
 10
5.527620697021479
 20
-19.22858047485352
 30
10.19314575195312
 70
   192
  0
VERTEX
  5
DB
  8
METAL
 10
5.059177780151369
 20
-19.24748992919923
 30
10.28573608398438
 70
   192
  0
VERTEX
  5
DC
  8
METAL
 10
5.875452423095702
 20
-17.45865631103516
 30
11.70297241210938
 70
   192
  0
VERTEX
  5
DD
  8
METAL
 10
5.52845993041992
 20
-17.61250305175781
 30
12.44369506835938
 70
   192
  0
VERTEX
  5
DE
  8
METAL
 10
5.059177780151369
 20
-17.63173294067384
 30
12.53622436523438
 70
   192
  0
VERTEX
  5
DF
  8
METAL
 10
5.876392745971678
 20
-15.24708938598634
 30
13.67324829101562
 70
   192
  0
VERTEX
  5
E0
  8
METAL
 10
5.800968551635741
 20
-15.32755279541016
 30
14.13919067382812
 70
   192
  0
VERTEX
  5
E1
  8
METAL
 10
5.528562927246089
 20
-15.37583541870117
 30
14.41873168945312
 70
   192
  0
VERTEX
  5
E2
  8
METAL
 10
-4.682785034179691
 20
-15.39192581176757
 30
14.51193237304688
 70
   192
  0
VERTEX
  5
E3
  8
METAL
 10
5.876390838623049
 20
-13.21345901489257
 30
14.81271362304688
 70
   192
  0
VERTEX
  5
E4
  8
METAL
 10
5.800968551635741
 20
-13.29392242431641
 30
15.27865600585938
 70
   192
  0
VERTEX
  5
E5
  8
METAL
 10
5.528562927246089
 20
-13.34220504760742
 30
15.55825805664062
 70
   192
  0
VERTEX
  5
E6
  8
METAL
 10
-4.682785034179691
 20
-13.35829544067384
 30
15.65145874023438
 70
   192
  0
VERTEX
  5
E7
  8
METAL
 10
5.87612953186035
 20
-9.591884613037116
 30
15.98159790039063
 70
   192
  0
VERTEX
  5
E8
  8
METAL
 10
5.800852203369139
 20
-9.65336608886718
 30
16.45040893554688
 70
   192
  0
VERTEX
  5
E9
  8
METAL
 10
-5.499639511108398
 20
-6.68115234375
 30
16.46774291992188
 70
   192
  0
VERTEX
  5
EA
  8
METAL
 10
5.875706100463869
 20
-3.365016937255866
 30
16.64205932617188
 70
   192
  0
VERTEX
  5
EB
  8
METAL
 10
-5.49885272979736
 20
-1.682506561279293
 30
16.66757202148438
 70
   192
  0
VERTEX
  5
EC
  8
METAL
 10
5.875162506103521
 20
-0.0000000000000036
 30
16.70938110351563
 70
   192
  0
VERTEX
  5
ED
  8
METAL
 10
-5.498771667480469
 20
-0.0000000000000036
 30
16.70938110351563
 70
   192
  0
VERTEX
  5
EE
  8
METAL
 10
5.528532409667971
 20
-9.690254211425781
 30
16.73171997070312
 70
   192
  0
VERTEX
  5
EF
  8
METAL
 10
-4.682785034179691
 20
-9.70254898071289
 30
16.82546997070312
 70
   192
  0
VERTEX
  5
F0
  8
METAL
 10
-5.42441558837891
 20
-6.712287902832031
 30
16.93954467773438
 70
   192
  0
VERTEX
  5
F1
  8
METAL
 10
5.800663375854491
 20
-3.365016937255866
 30
17.11489868164063
 70
   192
  0
VERTEX
  5
F2
  8
METAL
 10
-5.424066543579102
 20
-1.682506561279293
 30
17.14035034179688
 70
   192
  0
VERTEX
  5
F3
  8
METAL
 10
5.80042114257812
 20
-0.0000000000000036
 30
17.18222045898438
 70
   192
  0
VERTEX
  5
F4
  8
METAL
 10
-5.424030303955082
 20
-0.0000000000000036
 30
17.18222045898438
 70
   192
  0
VERTEX
  5
F5
  8
METAL
 10
5.5285228729248
 20
-6.73096847534179
 30
17.22262573242188
 70
   192
  0
VERTEX
  5
F6
  8
METAL
 10
-4.682785034179691
 20
-6.737197875976562
 30
17.31698608398438
 70
   192
  0
VERTEX
  5
F7
  8
METAL
 10
5.52848663330078
 20
-3.365016937255866
 30
17.39859008789063
 70
   192
  0
VERTEX
  5
F8
  8
METAL
 10
-5.152044296264648
 20
-1.682506561279293
 30
17.42404174804688
 70
   192
  0
VERTEX
  5
F9
  8
METAL
 10
5.52842559814453
 20
-0.0000000000000036
 30
17.46591186523438
 70
   192
  0
VERTEX
  5
FA
  8
METAL
 10
-5.152035713195801
 20
-0.0000000000000036
 30
17.46591186523438
 70
   192
  0
VERTEX
  5
FB
  8
METAL
 10
-4.682785987854
 20
-3.365016937255866
 30
17.49313354492188
 70
   192
  0
VERTEX
  5
FC
  8
METAL
 10
5.059175872802729
 20
-0.0000000000000036
 30
17.56045532226563
 70
   192
  0
VERTEX
  5
FD
  8
METAL
 10
-4.682785987854
 20
-0.0000000000000036
 30
17.56045532226563
 70
   192
  0
VERTEX
  5
FE
  8
METAL
 10
-4.682785987854
 20
-0.0000000000000036
 30
17.56045532226563
 70
   192
  0
VERTEX
  5
FF
  8
METAL
 10
5.059175872802729
 20
-0.0000000000000036
 30
17.56045532226563
 70
   192
  0
VERTEX
  5
100
  8
METAL
 10
-4.682785987854
 20
-1.682506561279293
 30
17.51864624023438
 70
   192
  0
VERTEX
  5
101
  8
METAL
 10
5.059175872802729
 20
-1.682508468627933
 30
17.51864624023438
 70
   192
  0
VERTEX
  5
102
  8
METAL
 10
5.059175872802729
 20
-3.365016937255866
 30
17.49313354492188
 70
   192
  0
VERTEX
  5
103
  8
METAL
 10
-5.152035713195801
 20
-0.0000000000000036
 30
17.46591186523438
 70
   192
  0
VERTEX
  5
104
  8
METAL
 10
5.52842559814453
 20
-0.0000000000000036
 30
17.46591186523438
 70
   192
  0
VERTEX
  5
105
  8
METAL
 10
5.52843513488769
 20
-1.682508468627933
 30
17.42404174804688
 70
   192
  0
VERTEX
  5
106
  8
METAL
 10
-5.152095794677741
 20
-3.365016937255866
 30
17.39859008789063
 70
   192
  0
VERTEX
  5
107
  8
METAL
 10
5.059175872802729
 20
-6.737197875976562
 30
17.31698608398438
 70
   192
  0
VERTEX
  5
108
  8
METAL
 10
-5.152132034301761
 20
-6.73096847534179
 30
17.22262573242188
 70
   192
  0
VERTEX
  5
109
  8
METAL
 10
-5.424030303955082
 20
-0.0000000000000036
 30
17.18222045898438
 70
   192
  0
VERTEX
  5
10A
  8
METAL
 10
5.80042114257812
 20
-0.0000000000000036
 30
17.18222045898438
 70
   192
  0
VERTEX
  5
10B
  8
METAL
 10
5.800457382202151
 20
-1.682508468627933
 30
17.14035034179688
 70
   192
  0
VERTEX
  5
10C
  8
METAL
 10
-5.424272537231449
 20
-3.365016937255866
 30
17.11489868164063
 70
   192
  0
VERTEX
  5
10D
  8
METAL
 10
5.800806427001952
 20
-6.712287902832031
 30
16.93954467773438
 70
   192
  0
VERTEX
  5
10E
  8
METAL
 10
5.059175872802729
 20
-9.70254898071289
 30
16.82546997070312
 70
   192
  0
VERTEX
  5
10F
  8
METAL
 10
-5.152142524719238
 20
-9.690254211425781
 30
16.73171997070312
 70
   192
  0
VERTEX
  5
110
  8
METAL
 10
-5.498771667480469
 20
-0.0000000000000036
 30
16.70938110351563
 70
   192
  0
VERTEX
  5
111
  8
METAL
 10
5.875162506103521
 20
-0.0000000000000036
 30
16.70938110351563
 70
   192
  0
VERTEX
  5
112
  8
METAL
 10
5.875242614746089
 20
-1.682508468627933
 30
16.66757202148438
 70
   192
  0
VERTEX
  5
113
  8
METAL
 10
-5.49931716918945
 20
-3.365016937255866
 30
16.64205932617188
 70
   192
  0
VERTEX
  5
114
  8
METAL
 10
5.87603034973144
 20
-6.68115234375
 30
16.46774291992188
 70
   192
  0
VERTEX
  5
115
  8
METAL
 10
-5.424460411071781
 20
-9.65336608886718
 30
16.45040893554688
 70
   192
  0
VERTEX
  5
116
  8
METAL
 10
-5.499738693237308
 20
-9.591884613037116
 30
15.98159790039063
 70
   192
  0
VERTEX
  5
117
  8
METAL
 10
5.059175872802729
 20
-13.35829544067384
 30
15.65145874023438
 70
   192
  0
VERTEX
  5
118
  8
METAL
 10
-5.15217113494873
 20
-13.34220123291016
 30
15.55825805664062
 70
   192
  0
VERTEX
  5
119
  8
METAL
 10
-5.424575805664059
 20
-13.29392242431641
 30
15.27865600585938
 70
   192
  0
VERTEX
  5
11A
  8
METAL
 10
-5.5
 20
-13.21345520019531
 30
14.81271362304688
 70
   192
  0
VERTEX
  5
11B
  8
METAL
 10
5.059177780151369
 20
-15.39192581176757
 30
14.51193237304688
 70
   192
  0
VERTEX
  5
11C
  8
METAL
 10
-5.152170181274411
 20
-15.37583160400391
 30
14.41873168945312
 70
   192
  0
VERTEX
  5
11D
  8
METAL
 10
-5.424575805664059
 20
-15.32755279541016
 30
14.13919067382812
 70
   192
  0
VERTEX
  5
11E
  8
METAL
 10
-5.5
 20
-15.24708557128906
 30
13.67324829101562
 70
   192
  0
VERTEX
  5
11F
  8
METAL
 10
-4.682785034179691
 20
-17.63173294067384
 30
12.53622436523438
 70
   192
  0
VERTEX
  5
120
  8
METAL
 10
-5.152066230773929
 20
-17.61249923706054
 30
12.44369506835938
 70
   192
  0
VERTEX
  5
121
  8
METAL
 10
-5.42415809631348
 20
-17.5548095703125
 30
12.16592407226562
 70
   192
  0
VERTEX
  5
122
  8
METAL
 10
5.800550842285158
 20
-17.5548095703125
 30
12.16592407226562
 70
   192
  0
VERTEX
  5
123
  8
METAL
 10
-5.49906063079834
 20
-17.45865631103516
 30
11.70297241210938
 70
   192
  0
VERTEX
  5
124
  8
METAL
 10
-4.682785034179691
 20
-19.24748611450195
 30
10.28573608398438
 70
   192
  0
VERTEX
  5
125
  8
METAL
 10
-5.151227951049808
 20
-19.22857666015625
 30
10.19314575195312
 70
   192
  0
VERTEX
  5
126
  8
METAL
 10
-5.420804977416989
 20
-19.17184066772462
 30
9.915313720703129
 70
   192
  0
VERTEX
  5
127
  8
METAL
 10
5.79719772338867
 20
-19.17184066772462
 30
9.915313720703129
 70
   192
  0
VERTEX
  5
128
  8
METAL
 10
-5.491514205932621
 20
-19.07727432250977
 30
9.452239990234379
 70
   192
  0
VERTEX
  5
129
  8
METAL
 10
-4.99930381774902
 20
-20.70102691650391
 30
6.375335693359379
 70
   192
  0
VERTEX
  5
12A
  8
METAL
 10
-5.26895713806152
 20
-20.62236022949218
 30
6.102935791015621
 70
   192
  0
VERTEX
  5
12B
  8
METAL
 10
-5.33979415893555
 20
-20.49124526977539
 30
5.64883422851562
 70
   192
  0
VERTEX
  5
12C
  8
METAL
 10
-4.73081207275391
 20
-21.97159576416016
 30
1.1533203125
 70
   192
  0
VERTEX
  5
12D
  8
METAL
 10
-5.001456260681149
 20
-21.86050796508789
 30
0.892333984375
 70
   192
  0
VERTEX
  5
12E
  8
METAL
 10
-5.073945045471191
 20
-21.67536163330078
 30
0.4573974609375
 70
   192
  0
VERTEX
  5
12F
  8
METAL
 10
-4.546284675598159
 20
-22.67991256713866
 30
-3.773712158203125
 70
   192
  0
VERTEX
  5
130
  8
METAL
 10
-4.817134857177749
 20
-22.53273010253906
 30
-4.01617431640625
 70
   192
  0
VERTEX
  5
131
  8
METAL
 10
-4.889968872070309
 20
-22.28742980957031
 30
-4.420257568359318
 70
   192
  0
VERTEX
  5
132
  8
METAL
 10
-4.516351699829109
 20
0.0
 30
-6.625885009765621
 70
   192
  0
VERTEX
  5
133
  8
METAL
 10
-4.516351699829109
 20
0.0
 30
-6.625885009765621
 70
   192
  0
VERTEX
  5
134
  8
METAL
 10
4.892742538452151
 20
0.0
 30
-6.625885009765621
 70
   192
  0
VERTEX
  5
135
  8
METAL
 10
4.89266052246094
 20
-1.68250846862793
 30
-6.842956542968739
 70
   192
  0
VERTEX
  5
136
  8
METAL
 10
-4.515806198120121
 20
-3.365016937255863
 30
-7.080749511718739
 70
   192
  0
VERTEX
  5
137
  8
METAL
 10
-4.401800155639659
 20
0.0
 30
-7.098693847656239
 70
   192
  0
VERTEX
  5
138
  8
METAL
 10
4.77819099426269
 20
0.0
 30
-7.098693847656239
 70
   192
  0
VERTEX
  5
139
  8
METAL
 10
4.77815475463866
 20
-1.68250846862793
 30
-7.315765380859311
 70
   192
  0
VERTEX
  5
13A
  8
METAL
 10
-4.10591888427734
 20
0.0
 30
-7.382385253906239
 70
   192
  0
VERTEX
  5
13B
  8
METAL
 10
4.482309722900379
 20
0.0
 30
-7.382385253906239
 70
   192
  0
VERTEX
  5
13C
  8
METAL
 10
4.891874694824221
 20
-5.10356521606445
 30
-7.438507080078121
 70
   192
  0
VERTEX
  5
13D
  8
METAL
 10
-3.628705978393569
 20
0.0
 30
-7.476959228515621
 70
   192
  0
VERTEX
  5
13E
  8
METAL
 10
4.005098724365229
 20
0.0
 30
-7.476959228515621
 70
   192
  0
VERTEX
  5
13F
  8
METAL
 10
4.005098724365229
 20
0.0
 30
-7.476959228515621
 70
   192
  0
VERTEX
  5
140
  8
METAL
 10
-4.401557922363281
 20
-3.365016937255863
 30
-7.553558349609311
 70
   192
  0
VERTEX
  5
141
  8
METAL
 10
4.482300186157229
 20
-1.68250846862793
 30
-7.599456787109311
 70
   192
  0
VERTEX
  5
142
  8
METAL
 10
-3.628705978393569
 20
-1.68250656127929
 30
-7.694030761718739
 70
   192
  0
VERTEX
  5
143
  8
METAL
 10
-4.10585784912109
 20
-3.365016937255863
 30
-7.837249755859311
 70
   192
  0
VERTEX
  5
144
  8
METAL
 10
4.8917755126953
 20
-6.467071533203121
 30
-7.846191406249989
 70
   192
  0
VERTEX
  5
145
  8
METAL
 10
4.777805709838869
 20
-5.072429656982418
 30
-7.910308837890621
 70
   192
  0
VERTEX
  5
146
  8
METAL
 10
-3.628705978393569
 20
-3.365016937255863
 30
-7.931823730468739
 70
   192
  0
VERTEX
  5
147
  8
METAL
 10
-3.628705978393569
 20
-5.047523498535153
 30
-8.287750244140621
 70
   192
  0
VERTEX
  5
148
  8
METAL
 10
4.7777618408203
 20
-6.405590057373036
 30
-8.31500244140624
 70
   192
  0
VERTEX
  5
149
  8
METAL
 10
-4.100077629089359
 20
-23.14183044433592
 30
-8.6474609375
 70
   192
  0
VERTEX
  5
14A
  8
METAL
 10
-3.628705978393569
 20
-6.35640716552734
 30
-8.69006347656249
 70
   192
  0
VERTEX
  5
14B
  8
METAL
 10
-4.378438949584961
 20
-22.94626235961913
 30
-8.853240966796928
 70
   192
  0
VERTEX
  5
14C
  8
METAL
 10
4.891512298583979
 20
-9.090660095214837
 30
-9.06054687499999
 70
   192
  0
VERTEX
  5
14D
  8
METAL
 10
-4.463790893554691
 20
-22.62032318115234
 30
-9.196197509765618
 70
   192
  0
VERTEX
  5
14E
  8
METAL
 10
-4.401252746582031
 20
-9.010196685791009
 30
-9.52648925781249
 70
   192
  0
VERTEX
  5
14F
  8
METAL
 10
-3.628705978393569
 20
-8.945823669433587
 30
-9.89923095703124
 70
   192
  0
VERTEX
  5
150
  8
METAL
 10
4.891512298583979
 20
-11.12429046630859
 30
-10.20004272460931
 70
   192
  0
VERTEX
  5
151
  8
METAL
 10
-3.628705978393569
 20
-10.97945022583006
 30
-11.03872680664062
 70
   192
  0
VERTEX
  5
152
  8
METAL
 10
4.89245071411133
 20
-12.67143630981445
 30
-11.34542846679692
 70
   192
  0
VERTEX
  5
153
  8
METAL
 10
-3.628706932067871
 20
-12.49835586547851
 30
-12.17871093749999
 70
   192
  0
VERTEX
  5
154
  8
METAL
 10
4.682236099243159
 20
-13.6614875793457
 30
-12.18615722656249
 70
   192
  0
VERTEX
  5
155
  8
METAL
 10
4.56365432739258
 20
-13.56692504882812
 30
-12.87225341796874
 70
   192
  0
VERTEX
  5
156
  8
METAL
 10
4.67903366088866
 20
-15.37496185302734
 30
-14.34649658203124
 70
   192
  0
VERTEX
  5
157
  8
METAL
 10
-4.302023887634281
 20
-15.92272567749023
 30
-15.47601318359374
 70
   192
  0
VERTEX
  5
158
  8
METAL
 10
4.66505851745605
 20
-16.35197830200195
 30
-16.52255249023431
 70
   192
  0
VERTEX
  5
159
  8
METAL
 10
-3.202051162719741
 20
-23.97705459594726
 30
-18.69668579101562
 70
   192
  0
VERTEX
  5
15A
  8
METAL
 10
-3.67528152465821
 20
-23.8824234008789
 30
-18.69827270507812
 70
   192
  0
VERTEX
  5
15B
  8
METAL
 10
-3.959219932556159
 20
-23.59852600097656
 30
-18.70315551757812
 70
   192
  0
VERTEX
  5
15C
  8
METAL
 10
-4.053865432739261
 20
-23.12536239624023
 30
-18.71124267578125
 70
   192
  0
VERTEX
  5
15D
  8
METAL
 10
-4.053867340087891
 20
-17.32018661499023
 30
-18.81051635742192
 70
   192
  0
VERTEX
  5
15E
  8
METAL
 10
4.43025817871094
 20
-17.32018661499023
 30
-18.81051635742192
 70
   192
  0
VERTEX
  5
15F
  8
METAL
 10
-3.20205211639405
 20
-16.4684944152832
 30
-18.82507324218749
 70
   192
  0
VERTEX
  5
160
  8
METAL
 10
3.35151901245116
 20
-24.11585617065428
 30
-21.91543579101562
 70
   192
  0
VERTEX
  5
161
  8
METAL
 10
-3.44835472106935
 20
-24.02122116088866
 30
-21.91732788085932
 70
   192
  0
VERTEX
  5
162
  8
METAL
 10
-3.732294082641609
 20
-23.73733901977538
 30
-21.92294311523432
 70
   192
  0
VERTEX
  5
163
  8
METAL
 10
-3.826940536499031
 20
-23.26420211791991
 30
-21.93234252929693
 70
   192
  0
VERTEX
  5
164
  8
METAL
 10
4.203333282470691
 20
-18.49023818969726
 30
-22.0269775390625
 70
   192
  0
VERTEX
  5
165
  8
METAL
 10
-2.975126266479499
 20
-17.63859176635741
 30
-22.04385375976562
 70
   192
  0
VERTEX
  5
166
  8
METAL
 10
3.247351074218741
 20
-24.27362823486327
 30
-25.30465698242193
 70
   192
  0
VERTEX
  5
167
  8
METAL
 10
-3.344186782836921
 20
-24.17900085449217
 30
-25.30673217773432
 70
   192
  0
VERTEX
  5
168
  8
METAL
 10
-3.62812519073487
 20
-23.8951301574707
 30
-25.31295776367193
 70
   192
  0
VERTEX
  5
169
  8
METAL
 10
-3.722771644592299
 20
-23.42201614379883
 30
-25.3233642578125
 70
   192
  0
VERTEX
  5
16A
  8
METAL
 10
4.09916343688964
 20
-19.28472518920898
 30
-25.41433715820312
 70
   192
  0
VERTEX
  5
16B
  8
METAL
 10
-2.870958328247081
 20
-18.43311309814452
 30
-25.43304443359375
 70
   192
  0
VERTEX
  5
16C
  8
METAL
 10
2.995489501953109
 20
-24.43140411376952
 30
-28.69384765625
 70
   192
  0
VERTEX
  5
16D
  8
METAL
 10
-3.09232616424562
 20
-24.3367805480957
 30
-28.69613647460932
 70
   192
  0
VERTEX
  5
16E
  8
METAL
 10
-3.376264572143569
 20
-24.05292892456053
 30
-28.7030029296875
 70
   192
  0
VERTEX
  5
16F
  8
METAL
 10
-3.470911026000991
 20
-23.57983398437499
 30
-28.71444702148432
 70
   192
  0
VERTEX
  5
170
  8
METAL
 10
3.847303771972651
 20
-19.97859573364256
 30
-28.8016357421875
 70
   192
  0
VERTEX
  5
171
  8
METAL
 10
-2.61909675598146
 20
-19.12703323364256
 30
-28.82223510742193
 70
   192
  0
VERTEX
  5
172
  8
METAL
 10
2.662414932250972
 20
-24.64905548095702
 30
-36.54415893554693
 70
   192
  0
VERTEX
  5
173
  8
METAL
 10
-2.75958633422853
 20
-24.55444717407226
 30
-36.54690551757812
 70
   192
  0
VERTEX
  5
174
  8
METAL
 10
-3.04372787475587
 20
-24.27062988281249
 30
-36.55517578125
 70
   192
  0
VERTEX
  5
175
  8
METAL
 10
-3.138446807861339
 20
-23.7975959777832
 30
-36.5689697265625
 70
   192
  0
VERTEX
  5
176
  8
METAL
 10
3.514841461181629
 20
-23.79760360717773
 30
-36.5689697265625
 70
   192
  0
VERTEX
  5
177
  8
METAL
 10
3.514990234374991
 20
-20.88351058959961
 30
-36.65127563476562
 70
   192
  0
VERTEX
  5
178
  8
METAL
 10
-2.285810470581069
 20
-20.02914810180663
 30
-36.67779541015625
 70
   192
  0
VERTEX
  5
179
  8
METAL
 10
2.662201309204089
 20
-20.02914810180663
 30
-36.67779541015625
 70
   192
  0
VERTEX
  5
17A
  8
METAL
 10
3.07228317260741
 20
-24.56174087524413
 30
-36.809814453125
 70
   192
  0
VERTEX
  5
17B
  8
METAL
 10
-3.032611846923839
 20
-24.22535324096678
 30
-36.8194580078125
 70
   192
  0
VERTEX
  5
17C
  8
METAL
 10
3.409155273437491
 20
-20.49141693115234
 30
-36.92568969726562
 70
   192
  0
VERTEX
  5
17D
  8
METAL
 10
-2.695930480957038
 20
-20.15400314331053
 30
-36.93563842773432
 70
   192
  0
VERTEX
  5
17E
  8
METAL
 10
-2.74181079864503
 20
-24.48200988769531
 30
-36.96975708007812
 70
   192
  0
VERTEX
  5
17F
  8
METAL
 10
3.318212890624991
 20
-24.28229141235351
 30
-36.97561645507812
 70
   192
  0
VERTEX
  5
180
  8
METAL
 10
-2.941988945007331
 20
-20.45676803588866
 30
-37.08389282226562
 70
   192
  0
VERTEX
  5
181
  8
METAL
 10
3.118275070190421
 20
-20.25616073608398
 30
-37.09036254882812
 70
   192
  0
VERTEX
  5
182
  8
METAL
 10
3.05519332885741
 20
-24.28927993774413
 30
-37.22769165039062
 70
   192
  0
VERTEX
  5
183
  8
METAL
 10
-2.73125076293946
 20
-24.23671340942383
 30
-37.22918701171875
 70
   192
  0
VERTEX
  5
184
  8
METAL
 10
-2.254283905029311
 20
-24.29160690307616
 30
-37.31170654296875
 70
   192
  0
VERTEX
  5
185
  8
METAL
 10
2.631052398681639
 20
-24.29160690307616
 30
-37.31173706054693
 70
   192
  0
VERTEX
  5
186
  8
METAL
 10
-2.727905273437511
 20
-23.81856536865234
 30
-37.32516479492193
 70
   192
  0
VERTEX
  5
187
  8
METAL
 10
3.1042999267578
 20
-23.81856918334961
 30
-37.32516479492193
 70
   192
  0
VERTEX
  5
188
  8
METAL
 10
3.107765579223621
 20
-20.53724670410156
 30
-37.333984375
 70
   192
  0
VERTEX
  5
189
  8
METAL
 10
-2.678913116455089
 20
-20.48517990112303
 30
-37.33535766601562
 70
   192
  0
VERTEX
  5
18A
  8
METAL
 10
-2.728033065795909
 20
-20.96888351440428
 30
-37.405517578125
 70
   192
  0
VERTEX
  5
18B
  8
METAL
 10
3.104418182373038
 20
-20.96732711791991
 30
-37.40570068359375
 70
   192
  0
VERTEX
  5
18C
  8
METAL
 10
2.63065757751464
 20
-20.49396133422851
 30
-37.4193115234375
 70
   192
  0
VERTEX
  5
18D
  8
METAL
 10
-2.254636764526381
 20
-20.49396514892577
 30
-37.41934204101562
 70
   192
  0
VERTEX
  5
18E
  8
METAL
 10
-2.250738143920909
 20
-23.82118606567383
 30
-37.41970825195312
 70
   192
  0
VERTEX
  5
18F
  8
METAL
 10
-2.250740051269538
 20
-20.97780609130859
 30
-37.5
 70
   192
  0
VERTEX
  5
190
  8
METAL
 10
2.62713088989257
 20
-20.97780609130859
 30
-37.5
 70
   192
  0
VERTEX
  5
191
  8
METAL
 10
0.0
 20
0.0
 30
0.0
 70
   128
 71
   194
 72
   195
 73
   200
 74
   183
  0
VERTEX
  5
192
  8
METAL
 10
0.0
 20
0.0
 30
0.0
 70
   128
 71
   194
 72
   183
 73
   213
 74
   259
  0
VERTEX
  5
193
  8
METAL
 10
0.0
 20
0.0
 30
0.0
 70
   128
 71
   213
 72
   248
 73
   252
 74
   134
  0
VERTEX
  5
194
  8
METAL
 10
0.0
 20
0.0
 30
0.0
 70
   128
 71
   213
 72
   134
 73
   259
 74
   259
  0
VERTEX
  5
195
  8
METAL
 10
0.0
 20
0.0
 30
0.0
 70
   128
 71
   259
 72
   257
 73
   254
 74
   251
  0
VERTEX
  5
196
  8
METAL
 10
0.0
 20
0.0
 30
0.0
 70
   128
 71
   259
 72
   251
 73
   247
 74
   194
  0
VERTEX
  5
197
  8
METAL
 10
0.0
 20
0.0
 30
0.0
 70
   128
 71
   199
 72
   194
 73
   247
 74
   205
  0
VERTEX
  5
198
  8
METAL
 10
0.0
 20
0.0
 30
0.0
 70
   128
 71
   212
 72
   205
 73
   247
 74
   247
  0
VERTEX
  5
199
  8
METAL
 10
0.0
 20
0.0
 30
0.0
 70
   128
 71
   173
 72
   215
 73
   250
 74
   133
  0
VERTEX
  5
19A
  8
METAL
 10
0.0
 20
0.0
 30
0.0
 70
   128
 71
   266
 72
   125
 73
   122
 74
   267
  0
VERTEX
  5
19B
  8
METAL
 10
0.0
 20
0.0
 30
0.0
 70
   128
 71
   139
 72
   174
 73
   216
 74
   256
  0
VERTEX
  5
19C
  8
METAL
 10
0.0
 20
0.0
 30
0.0
 70
   128
 71
   198
 72
   191
 73
   186
 74
   203
  0
VERTEX
  5
19D
  8
METAL
 10
0.0
 20
0.0
 30
0.0
 70
   128
 71
   175
 72
   177
 73
   246
 74
   140
  0
VERTEX
  5
19E
  8
METAL
 10
0.0
 20
0.0
 30
0.0
 70
   128
 71
   215
 72
   175
 73
   140
 74
   250
  0
VERTEX
  5
19F
  8
METAL
 10
0.0
 20
0.0
 30
0.0
 70
   128
 71
   133
 72
   127
 73
   218
 74
   173
  0
VERTEX
  5
1A0
  8
METAL
 10
0.0
 20
0.0
 30
0.0
 70
   128
 71
   132
 72
   258
 73
   129
 74
   262
  0
VERTEX
  5
1A1
  8
METAL
 10
0.0
 20
0.0
 30
0.0
 70
   128
 71
   262
 72
   129
 73
   125
 74
   266
  0
VERTEX
  5
1A2
  8
METAL
 10
0.0
 20
0.0
 30
0.0
 70
   128
 71
   115
 72
   270
 73
   267
 74
   122
  0
VERTEX
  5
1A3
  8
METAL
 10
0.0
 20
0.0
 30
0.0
 70
   128
 71
   141
 72
   176
 73
   214
 74
   249
  0
VERTEX
  5
1A4
  8
METAL
 10
0.0
 20
0.0
 30
0.0
 70
   128
 71
   249
 72
   214
 73
   174
 74
   139
  0
VERTEX
  5
1A5
  8
METAL
 10
0.0
 20
0.0
 30
0.0
 70
   128
 71
   171
 72
   264
 73
   256
 74
   216
  0
VERTEX
  5
1A6
  8
METAL
 10
0.0
 20
0.0
 30
0.0
 70
   128
 71
   192
 72
   193
 73
   196
 74
   197
  0
VERTEX
  5
1A7
  8
METAL
 10
0.0
 20
0.0
 30
0.0
 70
   128
 71
   197
 72
   196
 73
   191
 74
   198
  0
VERTEX
  5
1A8
  8
METAL
 10
0.0
 20
0.0
 30
0.0
 70
   128
 71
   179
 72
   210
 73
   203
 74
   186
  0
VERTEX
  5
1A9
  8
METAL
 10
0.0
 20
0.0
 30
0.0
 70
   128
 71
   218
 72
   127
 73
   113
 74
   222
  0
VERTEX
  5
1AA
  8
METAL
 10
0.0
 20
0.0
 30
0.0
 70
   128
 71
   270
 72
   115
 73
   108
 74
   275
  0
VERTEX
  5
1AB
  8
METAL
 10
0.0
 20
0.0
 30
0.0
 70
   128
 71
   264
 72
   171
 73
   167
 74
   272
  0
VERTEX
  5
1AC
  8
METAL
 10
0.0
 20
0.0
 30
0.0
 70
   128
 71
   210
 72
   179
 73
   170
 74
   219
  0
VERTEX
  5
1AD
  8
METAL
 10
0.0
 20
0.0
 30
0.0
 70
   128
 71
   222
 72
   113
 73
   107
 74
   226
  0
VERTEX
  5
1AE
  8
METAL
 10
0.0
 20
0.0
 30
0.0
 70
   128
 71
   275
 72
   108
 73
   102
 74
   277
  0
VERTEX
  5
1AF
  8
METAL
 10
0.0
 20
0.0
 30
0.0
 70
   128
 71
   272
 72
   167
 73
   163
 74
   276
  0
VERTEX
  5
1B0
  8
METAL
 10
0.0
 20
0.0
 30
0.0
 70
   128
 71
   219
 72
   170
 73
   166
 74
   223
  0
VERTEX
  5
1B1
  8
METAL
 10
0.0
 20
0.0
 30
0.0
 70
   128
 71
   226
 72
   107
 73
   101
 74
   231
  0
VERTEX
  5
1B2
  8
METAL
 10
0.0
 20
0.0
 30
0.0
 70
   128
 71
   277
 72
   102
 73
    96
 74
   279
  0
VERTEX
  5
1B3
  8
METAL
 10
0.0
 20
0.0
 30
0.0
 70
   128
 71
   276
 72
   163
 73
   160
 74
   278
  0
VERTEX
  5
1B4
  8
METAL
 10
0.0
 20
0.0
 30
0.0
 70
   128
 71
   223
 72
   166
 73
   227
 74
   162
  0
VERTEX
  5
1B5
  8
METAL
 10
0.0
 20
0.0
 30
0.0
 70
   128
 71
   231
 72
   101
 73
    95
 74
   236
  0
VERTEX
  5
1B6
  8
METAL
 10
0.0
 20
0.0
 30
0.0
 70
   128
 71
   279
 72
    96
 73
    90
 74
    91
  0
VERTEX
  5
1B7
  8
METAL
 10
0.0
 20
0.0
 30
0.0
 70
   128
 71
   278
 72
   160
 73
   157
 74
   280
  0
VERTEX
  5
1B8
  8
METAL
 10
0.0
 20
0.0
 30
0.0
 70
   128
 71
   162
 72
   227
 73
   232
 74
   159
  0
VERTEX
  5
1B9
  8
METAL
 10
0.0
 20
0.0
 30
0.0
 70
   128
 71
    89
 72
    81
 73
   242
 74
   239
  0
VERTEX
  5
1BA
  8
METAL
 10
0.0
 20
0.0
 30
0.0
 70
   128
 71
    75
 72
    76
 73
    83
 74
    82
  0
VERTEX
  5
1BB
  8
METAL
 10
0.0
 20
0.0
 30
0.0
 70
   128
 71
   147
 72
   282
 73
    88
 74
   152
  0
VERTEX
  5
1BC
  8
METAL
 10
0.0
 20
0.0
 30
0.0
 70
   128
 71
   151
 72
   150
 73
   155
 74
   156
  0
VERTEX
  5
1BD
  8
METAL
 10
0.0
 20
0.0
 30
0.0
 70
   128
 71
   283
 72
    67
 73
   273
 74
   245
  0
VERTEX
  5
1BE
  8
METAL
 10
0.0
 20
0.0
 30
0.0
 70
   128
 71
    81
 72
   283
 73
   245
 74
   242
  0
VERTEX
  5
1BF
  8
METAL
 10
0.0
 20
0.0
 30
0.0
 70
   128
 71
   239
 72
   236
 73
    95
 74
    89
  0
VERTEX
  5
1C0
  8
METAL
 10
0.0
 20
0.0
 30
0.0
 70
   128
 71
    61
 72
    62
 73
    69
 74
    68
  0
VERTEX
  5
1C1
  8
METAL
 10
0.0
 20
0.0
 30
0.0
 70
   128
 71
    68
 72
    69
 73
    76
 74
    75
  0
VERTEX
  5
1C2
  8
METAL
 10
0.0
 20
0.0
 30
0.0
 70
   128
 71
    91
 72
    90
 73
    82
 74
    83
  0
VERTEX
  5
1C3
  8
METAL
 10
0.0
 20
0.0
 30
0.0
 70
   128
 71
   112
 72
   284
 73
    74
 74
   142
  0
VERTEX
  5
1C4
  8
METAL
 10
0.0
 20
0.0
 30
0.0
 70
   128
 71
   142
 72
    74
 73
   282
 74
   147
  0
VERTEX
  5
1C5
  8
METAL
 10
0.0
 20
0.0
 30
0.0
 70
   128
 71
   280
 72
   157
 73
   152
 74
    88
  0
VERTEX
  5
1C6
  8
METAL
 10
0.0
 20
0.0
 30
0.0
 70
   128
 71
   120
 72
   119
 73
   145
 74
   146
  0
VERTEX
  5
1C7
  8
METAL
 10
0.0
 20
0.0
 30
0.0
 70
   128
 71
   146
 72
   145
 73
   150
 74
   151
  0
VERTEX
  5
1C8
  8
METAL
 10
0.0
 20
0.0
 30
0.0
 70
   128
 71
   159
 72
   232
 73
   156
 74
   155
  0
VERTEX
  5
1C9
  8
METAL
 10
0.0
 20
0.0
 30
0.0
 70
   128
 71
   273
 72
    67
 73
   289
 74
   288
  0
VERTEX
  5
1CA
  8
METAL
 10
0.0
 20
0.0
 30
0.0
 70
   128
 71
    62
 72
    61
 73
    52
 74
   291
  0
VERTEX
  5
1CB
  8
METAL
 10
0.0
 20
0.0
 30
0.0
 70
   128
 71
   284
 72
   112
 73
    57
 74
   290
  0
VERTEX
  5
1CC
  8
METAL
 10
0.0
 20
0.0
 30
0.0
 70
   128
 71
   119
 72
   120
 73
   285
 74
    60
  0
VERTEX
  5
1CD
  8
METAL
 10
0.0
 20
0.0
 30
0.0
 70
   128
 71
   288
 72
   289
 73
    47
 74
   295
  0
VERTEX
  5
1CE
  8
METAL
 10
0.0
 20
0.0
 30
0.0
 70
   128
 71
   291
 72
    52
 73
    42
 74
   297
  0
VERTEX
  5
1CF
  8
METAL
 10
0.0
 20
0.0
 30
0.0
 70
   128
 71
   290
 72
    57
 73
    48
 74
   296
  0
VERTEX
  5
1D0
  8
METAL
 10
0.0
 20
0.0
 30
0.0
 70
   128
 71
    60
 72
   285
 73
    51
 74
   292
  0
VERTEX
  5
1D1
  8
METAL
 10
0.0
 20
0.0
 30
0.0
 70
   128
 71
   295
 72
    47
 73
    37
 74
   301
  0
VERTEX
  5
1D2
  8
METAL
 10
0.0
 20
0.0
 30
0.0
 70
   128
 71
    42
 72
    32
 73
   303
 74
   297
  0
VERTEX
  5
1D3
  8
METAL
 10
0.0
 20
0.0
 30
0.0
 70
   128
 71
    48
 72
    38
 73
   302
 74
   296
  0
VERTEX
  5
1D4
  8
METAL
 10
0.0
 20
0.0
 30
0.0
 70
   128
 71
    51
 72
    41
 73
   298
 74
   292
  0
VERTEX
  5
1D5
  8
METAL
 10
0.0
 20
0.0
 30
0.0
 70
   128
 71
    27
 72
   307
 73
   301
 74
    37
  0
VERTEX
  5
1D6
  8
METAL
 10
0.0
 20
0.0
 30
0.0
 70
   128
 71
    22
 72
   309
 73
   303
 74
    32
  0
VERTEX
  5
1D7
  8
METAL
 10
0.0
 20
0.0
 30
0.0
 70
   128
 71
    38
 72
    28
 73
   308
 74
   302
  0
VERTEX
  5
1D8
  8
METAL
 10
0.0
 20
0.0
 30
0.0
 70
   128
 71
    31
 72
   304
 73
   298
 74
    41
  0
VERTEX
  5
1D9
  8
METAL
 10
0.0
 20
0.0
 30
0.0
 70
   128
 71
   307
 72
    27
 73
    18
 74
   313
  0
VERTEX
  5
1DA
  8
METAL
 10
0.0
 20
0.0
 30
0.0
 70
   128
 71
   309
 72
    22
 73
   317
 74
   316
  0
VERTEX
  5
1DB
  8
METAL
 10
0.0
 20
0.0
 30
0.0
 70
   128
 71
   308
 72
    28
 73
   314
 74
   315
  0
VERTEX
  5
1DC
  8
METAL
 10
0.0
 20
0.0
 30
0.0
 70
   128
 71
   304
 72
    31
 73
    21
 74
   310
  0
VERTEX
  5
1DD
  8
METAL
 10
0.0
 20
0.0
 30
0.0
 70
   128
 71
   340
 72
     1
 73
   338
 74
   339
  0
VERTEX
  5
1DE
  8
METAL
 10
0.0
 20
0.0
 30
0.0
 70
   128
 71
   313
 72
   319
 73
   312
 74
   312
  0
VERTEX
  5
1DF
  8
METAL
 10
0.0
 20
0.0
 30
0.0
 70
   128
 71
   316
 72
   321
 73
    15
 74
    15
  0
VERTEX
  5
1E0
  8
METAL
 10
0.0
 20
0.0
 30
0.0
 70
   128
 71
   310
 72
   318
 73
    20
 74
    20
  0
VERTEX
  5
1E1
  8
METAL
 10
0.0
 20
0.0
 30
0.0
 70
   128
 71
   315
 72
   320
 73
    16
 74
    16
  0
VERTEX
  5
1E2
  8
METAL
 10
0.0
 20
0.0
 30
0.0
 70
   128
 71
   208
 72
   215
 73
   173
 74
   180
  0
VERTEX
  5
1E3
  8
METAL
 10
0.0
 20
0.0
 30
0.0
 70
   128
 71
   126
 72
   133
 73
   250
 74
   260
  0
VERTEX
  5
1E4
  8
METAL
 10
0.0
 20
0.0
 30
0.0
 70
   128
 71
   123
 72
   122
 73
   125
 74
   128
  0
VERTEX
  5
1E5
  8
METAL
 10
0.0
 20
0.0
 30
0.0
 70
   128
 71
   209
 72
   216
 73
   174
 74
   181
  0
VERTEX
  5
1E6
  8
METAL
 10
0.0
 20
0.0
 30
0.0
 70
   128
 71
   184
 72
   177
 73
   175
 74
   182
  0
VERTEX
  5
1E7
  8
METAL
 10
0.0
 20
0.0
 30
0.0
 70
   128
 71
   136
 72
   140
 73
   246
 74
   138
  0
VERTEX
  5
1E8
  8
METAL
 10
0.0
 20
0.0
 30
0.0
 70
   128
 71
   182
 72
   175
 73
   215
 74
   208
  0
VERTEX
  5
1E9
  8
METAL
 10
0.0
 20
0.0
 30
0.0
 70
   128
 71
   260
 72
   250
 73
   140
 74
   136
  0
VERTEX
  5
1EA
  8
METAL
 10
0.0
 20
0.0
 30
0.0
 70
   128
 71
   121
 72
   127
 73
   133
 74
   126
  0
VERTEX
  5
1EB
  8
METAL
 10
0.0
 20
0.0
 30
0.0
 70
   128
 71
   180
 72
   173
 73
   218
 74
   217
  0
VERTEX
  5
1EC
  8
METAL
 10
0.0
 20
0.0
 30
0.0
 70
   128
 71
   261
 72
   129
 73
   258
 74
   255
  0
VERTEX
  5
1ED
  8
METAL
 10
0.0
 20
0.0
 30
0.0
 70
   128
 71
   128
 72
   125
 73
   129
 74
   261
  0
VERTEX
  5
1EE
  8
METAL
 10
0.0
 20
0.0
 30
0.0
 70
   128
 71
   117
 72
   115
 73
   122
 74
   123
  0
VERTEX
  5
1EF
  8
METAL
 10
0.0
 20
0.0
 30
0.0
 70
   128
 71
   207
 72
   214
 73
   176
 74
   206
  0
VERTEX
  5
1F0
  8
METAL
 10
0.0
 20
0.0
 30
0.0
 70
   128
 71
   181
 72
   174
 73
   214
 74
   207
  0
VERTEX
  5
1F1
  8
METAL
 10
0.0
 20
0.0
 30
0.0
 70
   128
 71
   172
 72
   171
 73
   216
 74
   209
  0
VERTEX
  5
1F2
  8
METAL
 10
0.0
 20
0.0
 30
0.0
 70
   128
 71
   274
 72
   113
 73
   127
 74
   121
  0
VERTEX
  5
1F3
  8
METAL
 10
0.0
 20
0.0
 30
0.0
 70
   128
 71
   217
 72
   218
 73
   222
 74
   221
  0
VERTEX
  5
1F4
  8
METAL
 10
0.0
 20
0.0
 30
0.0
 70
   128
 71
   109
 72
   108
 73
   115
 74
   117
  0
VERTEX
  5
1F5
  8
METAL
 10
0.0
 20
0.0
 30
0.0
 70
   128
 71
   168
 72
   167
 73
   171
 74
   172
  0
VERTEX
  5
1F6
  8
METAL
 10
0.0
 20
0.0
 30
0.0
 70
   128
 71
   106
 72
   107
 73
   113
 74
   274
  0
VERTEX
  5
1F7
  8
METAL
 10
0.0
 20
0.0
 30
0.0
 70
   128
 71
   221
 72
   222
 73
   226
 74
   225
  0
VERTEX
  5
1F8
  8
METAL
 10
0.0
 20
0.0
 30
0.0
 70
   128
 71
   103
 72
   102
 73
   108
 74
   109
  0
VERTEX
  5
1F9
  8
METAL
 10
0.0
 20
0.0
 30
0.0
 70
   128
 71
   164
 72
   163
 73
   167
 74
   168
  0
VERTEX
  5
1FA
  8
METAL
 10
0.0
 20
0.0
 30
0.0
 70
   128
 71
   100
 72
   101
 73
   107
 74
   106
  0
VERTEX
  5
1FB
  8
METAL
 10
0.0
 20
0.0
 30
0.0
 70
   128
 71
   225
 72
   226
 73
   231
 74
   229
  0
VERTEX
  5
1FC
  8
METAL
 10
0.0
 20
0.0
 30
0.0
 70
   128
 71
    97
 72
    96
 73
   102
 74
   103
  0
VERTEX
  5
1FD
  8
METAL
 10
0.0
 20
0.0
 30
0.0
 70
   128
 71
   230
 72
   160
 73
   163
 74
   164
  0
VERTEX
  5
1FE
  8
METAL
 10
0.0
 20
0.0
 30
0.0
 70
   128
 71
    94
 72
    95
 73
   101
 74
   100
  0
VERTEX
  5
1FF
  8
METAL
 10
0.0
 20
0.0
 30
0.0
 70
   128
 71
   229
 72
   231
 73
   236
 74
   234
  0
VERTEX
  5
200
  8
METAL
 10
0.0
 20
0.0
 30
0.0
 70
   128
 71
    92
 72
    90
 73
    96
 74
    97
  0
VERTEX
  5
201
  8
METAL
 10
0.0
 20
0.0
 30
0.0
 70
   128
 71
   235
 72
   157
 73
   160
 74
   230
  0
VERTEX
  5
202
  8
METAL
 10
0.0
 20
0.0
 30
0.0
 70
   128
 71
    80
 72
    81
 73
    89
 74
    87
  0
VERTEX
  5
203
  8
METAL
 10
0.0
 20
0.0
 30
0.0
 70
   128
 71
   238
 72
   239
 73
   242
 74
   241
  0
VERTEX
  5
204
  8
METAL
 10
0.0
 20
0.0
 30
0.0
 70
   128
 71
    77
 72
    75
 73
    82
 74
    84
  0
VERTEX
  5
205
  8
METAL
 10
0.0
 20
0.0
 30
0.0
 70
   128
 71
   148
 72
   147
 73
   152
 74
   153
  0
VERTEX
  5
206
  8
METAL
 10
0.0
 20
0.0
 30
0.0
 70
   128
 71
    66
 72
    67
 73
   283
 74
    73
  0
VERTEX
  5
207
  8
METAL
 10
0.0
 20
0.0
 30
0.0
 70
   128
 71
   244
 72
   245
 73
   273
 74
   271
  0
VERTEX
  5
208
  8
METAL
 10
0.0
 20
0.0
 30
0.0
 70
   128
 71
    73
 72
   283
 73
    81
 74
    80
  0
VERTEX
  5
209
  8
METAL
 10
0.0
 20
0.0
 30
0.0
 70
   128
 71
   241
 72
   242
 73
   245
 74
   244
  0
VERTEX
  5
20A
  8
METAL
 10
0.0
 20
0.0
 30
0.0
 70
   128
 71
   234
 72
   236
 73
   239
 74
   238
  0
VERTEX
  5
20B
  8
METAL
 10
0.0
 20
0.0
 30
0.0
 70
   128
 71
    87
 72
    89
 73
    95
 74
    94
  0
VERTEX
  5
20C
  8
METAL
 10
0.0
 20
0.0
 30
0.0
 70
   128
 71
    63
 72
    61
 73
    68
 74
    70
  0
VERTEX
  5
20D
  8
METAL
 10
0.0
 20
0.0
 30
0.0
 70
   128
 71
    70
 72
    68
 73
    75
 74
    77
  0
VERTEX
  5
20E
  8
METAL
 10
0.0
 20
0.0
 30
0.0
 70
   128
 71
    84
 72
    82
 73
    90
 74
    92
  0
VERTEX
  5
20F
  8
METAL
 10
0.0
 20
0.0
 30
0.0
 70
   128
 71
   114
 72
   112
 73
   142
 74
   143
  0
VERTEX
  5
210
  8
METAL
 10
0.0
 20
0.0
 30
0.0
 70
   128
 71
   143
 72
   142
 73
   147
 74
   148
  0
VERTEX
  5
211
  8
METAL
 10
0.0
 20
0.0
 30
0.0
 70
   128
 71
   153
 72
   152
 73
   157
 74
   235
  0
VERTEX
  5
212
  8
METAL
 10
0.0
 20
0.0
 30
0.0
 70
   128
 71
    56
 72
   289
 73
    67
 74
    66
  0
VERTEX
  5
213
  8
METAL
 10
0.0
 20
0.0
 30
0.0
 70
   128
 71
   271
 72
   273
 73
   288
 74
   287
  0
VERTEX
  5
214
  8
METAL
 10
0.0
 20
0.0
 30
0.0
 70
   128
 71
    53
 72
    52
 73
    61
 74
    63
  0
VERTEX
  5
215
  8
METAL
 10
0.0
 20
0.0
 30
0.0
 70
   128
 71
    58
 72
    57
 73
   112
 74
   114
  0
VERTEX
  5
216
  8
METAL
 10
0.0
 20
0.0
 30
0.0
 70
   128
 71
    46
 72
    47
 73
   289
 74
    56
  0
VERTEX
  5
217
  8
METAL
 10
0.0
 20
0.0
 30
0.0
 70
   128
 71
   287
 72
   288
 73
   295
 74
   294
  0
VERTEX
  5
218
  8
METAL
 10
0.0
 20
0.0
 30
0.0
 70
   128
 71
    43
 72
    42
 73
    52
 74
    53
  0
VERTEX
  5
219
  8
METAL
 10
0.0
 20
0.0
 30
0.0
 70
   128
 71
    49
 72
    48
 73
    57
 74
    58
  0
VERTEX
  5
21A
  8
METAL
 10
0.0
 20
0.0
 30
0.0
 70
   128
 71
    36
 72
    37
 73
    47
 74
    46
  0
VERTEX
  5
21B
  8
METAL
 10
0.0
 20
0.0
 30
0.0
 70
   128
 71
   294
 72
   295
 73
   301
 74
   300
  0
VERTEX
  5
21C
  8
METAL
 10
0.0
 20
0.0
 30
0.0
 70
   128
 71
    33
 72
    32
 73
    42
 74
    43
  0
VERTEX
  5
21D
  8
METAL
 10
0.0
 20
0.0
 30
0.0
 70
   128
 71
    39
 72
    38
 73
    48
 74
    49
  0
VERTEX
  5
21E
  8
METAL
 10
0.0
 20
0.0
 30
0.0
 70
   128
 71
    26
 72
    27
 73
    37
 74
    36
  0
VERTEX
  5
21F
  8
METAL
 10
0.0
 20
0.0
 30
0.0
 70
   128
 71
   300
 72
   301
 73
   307
 74
   306
  0
VERTEX
  5
220
  8
METAL
 10
0.0
 20
0.0
 30
0.0
 70
   128
 71
    23
 72
    22
 73
    32
 74
    33
  0
VERTEX
  5
221
  8
METAL
 10
0.0
 20
0.0
 30
0.0
 70
   128
 71
    29
 72
    28
 73
    38
 74
    39
  0
VERTEX
  5
222
  8
METAL
 10
0.0
 20
0.0
 30
0.0
 70
   128
 71
    17
 72
    18
 73
    27
 74
    26
  0
VERTEX
  5
223
  8
METAL
 10
0.0
 20
0.0
 30
0.0
 70
   128
 71
     9
 72
   313
 73
    18
 74
     5
  0
VERTEX
  5
224
  8
METAL
 10
0.0
 20
0.0
 30
0.0
 70
   128
 71
   306
 72
   307
 73
   313
 74
   312
  0
VERTEX
  5
225
  8
METAL
 10
0.0
 20
0.0
 30
0.0
 70
   128
 71
    14
 72
   317
 73
    22
 74
    23
  0
VERTEX
  5
226
  8
METAL
 10
0.0
 20
0.0
 30
0.0
 70
   128
 71
     2
 72
   316
 73
   317
 74
     3
  0
VERTEX
  5
227
  8
METAL
 10
0.0
 20
0.0
 30
0.0
 70
   128
 71
    19
 72
   314
 73
    28
 74
    29
  0
VERTEX
  5
228
  8
METAL
 10
0.0
 20
0.0
 30
0.0
 70
   128
 71
     4
 72
   315
 73
   314
 74
     8
  0
VERTEX
  5
229
  8
METAL
 10
0.0
 20
0.0
 30
0.0
 70
   128
 71
    10
 72
   310
 73
    21
 74
    11
  0
VERTEX
  5
22A
  8
METAL
 10
0.0
 20
0.0
 30
0.0
 70
   128
 71
   313
 72
     9
 73
    12
 74
    12
  0
VERTEX
  5
22B
  8
METAL
 10
0.0
 20
0.0
 30
0.0
 70
   128
 71
   327
 72
    12
 73
     9
 74
   330
  0
VERTEX
  5
22C
  8
METAL
 10
0.0
 20
0.0
 30
0.0
 70
   128
 71
   328
 72
   327
 73
   330
 74
   338
  0
VERTEX
  5
22D
  8
METAL
 10
0.0
 20
0.0
 30
0.0
 70
   128
 71
   313
 72
    12
 73
   319
 74
   319
  0
VERTEX
  5
22E
  8
METAL
 10
0.0
 20
0.0
 30
0.0
 70
   128
 71
   322
 72
   319
 73
    12
 74
   327
  0
VERTEX
  5
22F
  8
METAL
 10
0.0
 20
0.0
 30
0.0
 70
   128
 71
    11
 72
   322
 73
   327
 74
   328
  0
VERTEX
  5
230
  8
METAL
 10
0.0
 20
0.0
 30
0.0
 70
   128
 71
   311
 72
   312
 73
   319
 74
   322
  0
VERTEX
  5
231
  8
METAL
 10
0.0
 20
0.0
 30
0.0
 70
   128
 71
    21
 72
   311
 73
   322
 74
    11
  0
VERTEX
  5
232
  8
METAL
 10
0.0
 20
0.0
 30
0.0
 70
   128
 71
   316
 72
     2
 73
     6
 74
     6
  0
VERTEX
  5
233
  8
METAL
 10
0.0
 20
0.0
 30
0.0
 70
   128
 71
   333
 72
     6
 73
     2
 74
   337
  0
VERTEX
  5
234
  8
METAL
 10
0.0
 20
0.0
 30
0.0
 70
   128
 71
   334
 72
   333
 73
   337
 74
   339
  0
VERTEX
  5
235
  8
METAL
 10
0.0
 20
0.0
 30
0.0
 70
   128
 71
   316
 72
     6
 73
   321
 74
   321
  0
VERTEX
  5
236
  8
METAL
 10
0.0
 20
0.0
 30
0.0
 70
   128
 71
   324
 72
   321
 73
     6
 74
   333
  0
VERTEX
  5
237
  8
METAL
 10
0.0
 20
0.0
 30
0.0
 70
   128
 71
     5
 72
   324
 73
   333
 74
   334
  0
VERTEX
  5
238
  8
METAL
 10
0.0
 20
0.0
 30
0.0
 70
   128
 71
    17
 72
    15
 73
   321
 74
   324
  0
VERTEX
  5
239
  8
METAL
 10
0.0
 20
0.0
 30
0.0
 70
   128
 71
    18
 72
    17
 73
   324
 74
     5
  0
VERTEX
  5
23A
  8
METAL
 10
0.0
 20
0.0
 30
0.0
 70
   128
 71
   310
 72
    10
 73
    13
 74
    13
  0
VERTEX
  5
23B
  8
METAL
 10
0.0
 20
0.0
 30
0.0
 70
   128
 71
   326
 72
    13
 73
    10
 74
   329
  0
VERTEX
  5
23C
  8
METAL
 10
0.0
 20
0.0
 30
0.0
 70
   128
 71
   331
 72
   326
 73
   329
 74
     1
  0
VERTEX
  5
23D
  8
METAL
 10
0.0
 20
0.0
 30
0.0
 70
   128
 71
   310
 72
    13
 73
   318
 74
   318
  0
VERTEX
  5
23E
  8
METAL
 10
0.0
 20
0.0
 30
0.0
 70
   128
 71
   323
 72
   318
 73
    13
 74
   326
  0
VERTEX
  5
23F
  8
METAL
 10
0.0
 20
0.0
 30
0.0
 70
   128
 71
     8
 72
   323
 73
   326
 74
   331
  0
VERTEX
  5
240
  8
METAL
 10
0.0
 20
0.0
 30
0.0
 70
   128
 71
    19
 72
    20
 73
   318
 74
   323
  0
VERTEX
  5
241
  8
METAL
 10
0.0
 20
0.0
 30
0.0
 70
   128
 71
   314
 72
    19
 73
   323
 74
     8
  0
VERTEX
  5
242
  8
METAL
 10
0.0
 20
0.0
 30
0.0
 70
   128
 71
   315
 72
     4
 73
     7
 74
     7
  0
VERTEX
  5
243
  8
METAL
 10
0.0
 20
0.0
 30
0.0
 70
   128
 71
   332
 72
     7
 73
     4
 74
   335
  0
VERTEX
  5
244
  8
METAL
 10
0.0
 20
0.0
 30
0.0
 70
   128
 71
   336
 72
   332
 73
   335
 74
   340
  0
VERTEX
  5
245
  8
METAL
 10
0.0
 20
0.0
 30
0.0
 70
   128
 71
   315
 72
     7
 73
   320
 74
   320
  0
VERTEX
  5
246
  8
METAL
 10
0.0
 20
0.0
 30
0.0
 70
   128
 71
   325
 72
   320
 73
     7
 74
   332
  0
VERTEX
  5
247
  8
METAL
 10
0.0
 20
0.0
 30
0.0
 70
   128
 71
     3
 72
   325
 73
   332
 74
   336
  0
VERTEX
  5
248
  8
METAL
 10
0.0
 20
0.0
 30
0.0
 70
   128
 71
    14
 72
    16
 73
   320
 74
   325
  0
VERTEX
  5
249
  8
METAL
 10
0.0
 20
0.0
 30
0.0
 70
   128
 71
   317
 72
    14
 73
   325
 74
     3
  0
VERTEX
  5
24A
  8
METAL
 10
0.0
 20
0.0
 30
0.0
 70
   128
 71
   202
 72
   208
 73
   180
 74
   204
  0
VERTEX
  5
24B
  8
METAL
 10
0.0
 20
0.0
 30
0.0
 70
   128
 71
   191
 72
   202
 73
   204
 74
   186
  0
VERTEX
  5
24C
  8
METAL
 10
0.0
 20
0.0
 30
0.0
 70
   128
 71
   124
 72
   126
 73
   260
 74
   263
  0
VERTEX
  5
24D
  8
METAL
 10
0.0
 20
0.0
 30
0.0
 70
   128
 71
   267
 72
   124
 73
   263
 74
   266
  0
VERTEX
  5
24E
  8
METAL
 10
0.0
 20
0.0
 30
0.0
 70
   128
 71
   265
 72
   123
 73
   128
 74
   131
  0
VERTEX
  5
24F
  8
METAL
 10
0.0
 20
0.0
 30
0.0
 70
   128
 71
   256
 72
   265
 73
   131
 74
   139
  0
VERTEX
  5
250
  8
METAL
 10
0.0
 20
0.0
 30
0.0
 70
   128
 71
   185
 72
   209
 73
   181
 74
   187
  0
VERTEX
  5
251
  8
METAL
 10
0.0
 20
0.0
 30
0.0
 70
   128
 71
   203
 72
   185
 73
   187
 74
   198
  0
VERTEX
  5
252
  8
METAL
 10
0.0
 20
0.0
 30
0.0
 70
   128
 71
   190
 72
   184
 73
   182
 74
   188
  0
VERTEX
  5
253
  8
METAL
 10
0.0
 20
0.0
 30
0.0
 70
   128
 71
   193
 72
   190
 73
   188
 74
   196
  0
VERTEX
  5
254
  8
METAL
 10
0.0
 20
0.0
 30
0.0
 70
   128
 71
   130
 72
   136
 73
   138
 74
   135
  0
VERTEX
  5
255
  8
METAL
 10
0.0
 20
0.0
 30
0.0
 70
   128
 71
   262
 72
   130
 73
   135
 74
   132
  0
VERTEX
  5
256
  8
METAL
 10
0.0
 20
0.0
 30
0.0
 70
   128
 71
   188
 72
   182
 73
   208
 74
   202
  0
VERTEX
  5
257
  8
METAL
 10
0.0
 20
0.0
 30
0.0
 70
   128
 71
   196
 72
   188
 73
   202
 74
   191
  0
VERTEX
  5
258
  8
METAL
 10
0.0
 20
0.0
 30
0.0
 70
   128
 71
   263
 72
   260
 73
   136
 74
   130
  0
VERTEX
  5
259
  8
METAL
 10
0.0
 20
0.0
 30
0.0
 70
   128
 71
   266
 72
   263
 73
   130
 74
   262
  0
VERTEX
  5
25A
  8
METAL
 10
0.0
 20
0.0
 30
0.0
 70
   128
 71
   118
 72
   121
 73
   126
 74
   124
  0
VERTEX
  5
25B
  8
METAL
 10
0.0
 20
0.0
 30
0.0
 70
   128
 71
   270
 72
   118
 73
   124
 74
   267
  0
VERTEX
  5
25C
  8
METAL
 10
0.0
 20
0.0
 30
0.0
 70
   128
 71
   204
 72
   180
 73
   217
 74
   211
  0
VERTEX
  5
25D
  8
METAL
 10
0.0
 20
0.0
 30
0.0
 70
   128
 71
   186
 72
   204
 73
   211
 74
   179
  0
VERTEX
  5
25E
  8
METAL
 10
0.0
 20
0.0
 30
0.0
 70
   128
 71
   253
 72
   261
 73
   255
 74
   137
  0
VERTEX
  5
25F
  8
METAL
 10
0.0
 20
0.0
 30
0.0
 70
   128
 71
   249
 72
   253
 73
   137
 74
   141
  0
VERTEX
  5
260
  8
METAL
 10
0.0
 20
0.0
 30
0.0
 70
   128
 71
   131
 72
   128
 73
   261
 74
   253
  0
VERTEX
  5
261
  8
METAL
 10
0.0
 20
0.0
 30
0.0
 70
   128
 71
   139
 72
   131
 73
   253
 74
   249
  0
VERTEX
  5
262
  8
METAL
 10
0.0
 20
0.0
 30
0.0
 70
   128
 71
   268
 72
   117
 73
   123
 74
   265
  0
VERTEX
  5
263
  8
METAL
 10
0.0
 20
0.0
 30
0.0
 70
   128
 71
   264
 72
   268
 73
   265
 74
   256
  0
VERTEX
  5
264
  8
METAL
 10
0.0
 20
0.0
 30
0.0
 70
   128
 71
   201
 72
   207
 73
   206
 74
   189
  0
VERTEX
  5
265
  8
METAL
 10
0.0
 20
0.0
 30
0.0
 70
   128
 71
   197
 72
   201
 73
   189
 74
   192
  0
VERTEX
  5
266
  8
METAL
 10
0.0
 20
0.0
 30
0.0
 70
   128
 71
   187
 72
   181
 73
   207
 74
   201
  0
VERTEX
  5
267
  8
METAL
 10
0.0
 20
0.0
 30
0.0
 70
   128
 71
   198
 72
   187
 73
   201
 74
   197
  0
VERTEX
  5
268
  8
METAL
 10
0.0
 20
0.0
 30
0.0
 70
   128
 71
   178
 72
   172
 73
   209
 74
   185
  0
VERTEX
  5
269
  8
METAL
 10
0.0
 20
0.0
 30
0.0
 70
   128
 71
   210
 72
   178
 73
   185
 74
   203
  0
VERTEX
  5
26A
  8
METAL
 10
0.0
 20
0.0
 30
0.0
 70
   128
 71
   110
 72
   274
 73
   121
 74
   118
  0
VERTEX
  5
26B
  8
METAL
 10
0.0
 20
0.0
 30
0.0
 70
   128
 71
   275
 72
   110
 73
   118
 74
   270
  0
VERTEX
  5
26C
  8
METAL
 10
0.0
 20
0.0
 30
0.0
 70
   128
 71
   211
 72
   217
 73
   221
 74
   220
  0
VERTEX
  5
26D
  8
METAL
 10
0.0
 20
0.0
 30
0.0
 70
   128
 71
   179
 72
   211
 73
   220
 74
   170
  0
VERTEX
  5
26E
  8
METAL
 10
0.0
 20
0.0
 30
0.0
 70
   128
 71
   111
 72
   109
 73
   117
 74
   268
  0
VERTEX
  5
26F
  8
METAL
 10
0.0
 20
0.0
 30
0.0
 70
   128
 71
   272
 72
   111
 73
   268
 74
   264
  0
VERTEX
  5
270
  8
METAL
 10
0.0
 20
0.0
 30
0.0
 70
   128
 71
   169
 72
   168
 73
   172
 74
   178
  0
VERTEX
  5
271
  8
METAL
 10
0.0
 20
0.0
 30
0.0
 70
   128
 71
   219
 72
   169
 73
   178
 74
   210
  0
VERTEX
  5
272
  8
METAL
 10
0.0
 20
0.0
 30
0.0
 70
   128
 71
   104
 72
   106
 73
   274
 74
   110
  0
VERTEX
  5
273
  8
METAL
 10
0.0
 20
0.0
 30
0.0
 70
   128
 71
   277
 72
   104
 73
   110
 74
   275
  0
VERTEX
  5
274
  8
METAL
 10
0.0
 20
0.0
 30
0.0
 70
   128
 71
   220
 72
   221
 73
   225
 74
   224
  0
VERTEX
  5
275
  8
METAL
 10
0.0
 20
0.0
 30
0.0
 70
   128
 71
   170
 72
   220
 73
   224
 74
   166
  0
VERTEX
  5
276
  8
METAL
 10
0.0
 20
0.0
 30
0.0
 70
   128
 71
   105
 72
   103
 73
   109
 74
   111
  0
VERTEX
  5
277
  8
METAL
 10
0.0
 20
0.0
 30
0.0
 70
   128
 71
   276
 72
   105
 73
   111
 74
   272
  0
VERTEX
  5
278
  8
METAL
 10
0.0
 20
0.0
 30
0.0
 70
   128
 71
   165
 72
   164
 73
   168
 74
   169
  0
VERTEX
  5
279
  8
METAL
 10
0.0
 20
0.0
 30
0.0
 70
   128
 71
   223
 72
   165
 73
   169
 74
   219
  0
VERTEX
  5
27A
  8
METAL
 10
0.0
 20
0.0
 30
0.0
 70
   128
 71
    98
 72
   100
 73
   106
 74
   104
  0
VERTEX
  5
27B
  8
METAL
 10
0.0
 20
0.0
 30
0.0
 70
   128
 71
   279
 72
    98
 73
   104
 74
   277
  0
VERTEX
  5
27C
  8
METAL
 10
0.0
 20
0.0
 30
0.0
 70
   128
 71
   224
 72
   225
 73
   229
 74
   228
  0
VERTEX
  5
27D
  8
METAL
 10
0.0
 20
0.0
 30
0.0
 70
   128
 71
   166
 72
   224
 73
   228
 74
   227
  0
VERTEX
  5
27E
  8
METAL
 10
0.0
 20
0.0
 30
0.0
 70
   128
 71
    99
 72
    97
 73
   103
 74
   105
  0
VERTEX
  5
27F
  8
METAL
 10
0.0
 20
0.0
 30
0.0
 70
   128
 71
   278
 72
    99
 73
   105
 74
   276
  0
VERTEX
  5
280
  8
METAL
 10
0.0
 20
0.0
 30
0.0
 70
   128
 71
   161
 72
   230
 73
   164
 74
   165
  0
VERTEX
  5
281
  8
METAL
 10
0.0
 20
0.0
 30
0.0
 70
   128
 71
   162
 72
   161
 73
   165
 74
   223
  0
VERTEX
  5
282
  8
METAL
 10
0.0
 20
0.0
 30
0.0
 70
   128
 71
    93
 72
    94
 73
   100
 74
    98
  0
VERTEX
  5
283
  8
METAL
 10
0.0
 20
0.0
 30
0.0
 70
   128
 71
    91
 72
    93
 73
    98
 74
   279
  0
VERTEX
  5
284
  8
METAL
 10
0.0
 20
0.0
 30
0.0
 70
   128
 71
   228
 72
   229
 73
   234
 74
   233
  0
VERTEX
  5
285
  8
METAL
 10
0.0
 20
0.0
 30
0.0
 70
   128
 71
   227
 72
   228
 73
   233
 74
   232
  0
VERTEX
  5
286
  8
METAL
 10
0.0
 20
0.0
 30
0.0
 70
   128
 71
   281
 72
    92
 73
    97
 74
    99
  0
VERTEX
  5
287
  8
METAL
 10
0.0
 20
0.0
 30
0.0
 70
   128
 71
   280
 72
   281
 73
    99
 74
   278
  0
VERTEX
  5
288
  8
METAL
 10
0.0
 20
0.0
 30
0.0
 70
   128
 71
   158
 72
   235
 73
   230
 74
   161
  0
VERTEX
  5
289
  8
METAL
 10
0.0
 20
0.0
 30
0.0
 70
   128
 71
   159
 72
   158
 73
   161
 74
   162
  0
VERTEX
  5
28A
  8
METAL
 10
0.0
 20
0.0
 30
0.0
 70
   128
 71
    78
 72
    80
 73
    87
 74
    85
  0
VERTEX
  5
28B
  8
METAL
 10
0.0
 20
0.0
 30
0.0
 70
   128
 71
    76
 72
    78
 73
    85
 74
    83
  0
VERTEX
  5
28C
  8
METAL
 10
0.0
 20
0.0
 30
0.0
 70
   128
 71
   237
 72
   238
 73
   241
 74
   240
  0
VERTEX
  5
28D
  8
METAL
 10
0.0
 20
0.0
 30
0.0
 70
   128
 71
   156
 72
   237
 73
   240
 74
   151
  0
VERTEX
  5
28E
  8
METAL
 10
0.0
 20
0.0
 30
0.0
 70
   128
 71
    79
 72
    77
 73
    84
 74
    86
  0
VERTEX
  5
28F
  8
METAL
 10
0.0
 20
0.0
 30
0.0
 70
   128
 71
   282
 72
    79
 73
    86
 74
    88
  0
VERTEX
  5
290
  8
METAL
 10
0.0
 20
0.0
 30
0.0
 70
   128
 71
   149
 72
   148
 73
   153
 74
   154
  0
VERTEX
  5
291
  8
METAL
 10
0.0
 20
0.0
 30
0.0
 70
   128
 71
   150
 72
   149
 73
   154
 74
   155
  0
VERTEX
  5
292
  8
METAL
 10
0.0
 20
0.0
 30
0.0
 70
   128
 71
    64
 72
    66
 73
    73
 74
    71
  0
VERTEX
  5
293
  8
METAL
 10
0.0
 20
0.0
 30
0.0
 70
   128
 71
    62
 72
    64
 73
    71
 74
    69
  0
VERTEX
  5
294
  8
METAL
 10
0.0
 20
0.0
 30
0.0
 70
   128
 71
   243
 72
   244
 73
   271
 74
   269
  0
VERTEX
  5
295
  8
METAL
 10
0.0
 20
0.0
 30
0.0
 70
   128
 71
   146
 72
   243
 73
   269
 74
   120
  0
VERTEX
  5
296
  8
METAL
 10
0.0
 20
0.0
 30
0.0
 70
   128
 71
    71
 72
    73
 73
    80
 74
    78
  0
VERTEX
  5
297
  8
METAL
 10
0.0
 20
0.0
 30
0.0
 70
   128
 71
    69
 72
    71
 73
    78
 74
    76
  0
VERTEX
  5
298
  8
METAL
 10
0.0
 20
0.0
 30
0.0
 70
   128
 71
   240
 72
   241
 73
   244
 74
   243
  0
VERTEX
  5
299
  8
METAL
 10
0.0
 20
0.0
 30
0.0
 70
   128
 71
   151
 72
   240
 73
   243
 74
   146
  0
VERTEX
  5
29A
  8
METAL
 10
0.0
 20
0.0
 30
0.0
 70
   128
 71
   233
 72
   234
 73
   238
 74
   237
  0
VERTEX
  5
29B
  8
METAL
 10
0.0
 20
0.0
 30
0.0
 70
   128
 71
   232
 72
   233
 73
   237
 74
   156
  0
VERTEX
  5
29C
  8
METAL
 10
0.0
 20
0.0
 30
0.0
 70
   128
 71
    85
 72
    87
 73
    94
 74
    93
  0
VERTEX
  5
29D
  8
METAL
 10
0.0
 20
0.0
 30
0.0
 70
   128
 71
    83
 72
    85
 73
    93
 74
    91
  0
VERTEX
  5
29E
  8
METAL
 10
0.0
 20
0.0
 30
0.0
 70
   128
 71
    65
 72
    63
 73
    70
 74
    72
  0
VERTEX
  5
29F
  8
METAL
 10
0.0
 20
0.0
 30
0.0
 70
   128
 71
   284
 72
    65
 73
    72
 74
    74
  0
VERTEX
  5
2A0
  8
METAL
 10
0.0
 20
0.0
 30
0.0
 70
   128
 71
    72
 72
    70
 73
    77
 74
    79
  0
VERTEX
  5
2A1
  8
METAL
 10
0.0
 20
0.0
 30
0.0
 70
   128
 71
    74
 72
    72
 73
    79
 74
   282
  0
VERTEX
  5
2A2
  8
METAL
 10
0.0
 20
0.0
 30
0.0
 70
   128
 71
    86
 72
    84
 73
    92
 74
   281
  0
VERTEX
  5
2A3
  8
METAL
 10
0.0
 20
0.0
 30
0.0
 70
   128
 71
    88
 72
    86
 73
   281
 74
   280
  0
VERTEX
  5
2A4
  8
METAL
 10
0.0
 20
0.0
 30
0.0
 70
   128
 71
   116
 72
   114
 73
   143
 74
   144
  0
VERTEX
  5
2A5
  8
METAL
 10
0.0
 20
0.0
 30
0.0
 70
   128
 71
   119
 72
   116
 73
   144
 74
   145
  0
VERTEX
  5
2A6
  8
METAL
 10
0.0
 20
0.0
 30
0.0
 70
   128
 71
   144
 72
   143
 73
   148
 74
   149
  0
VERTEX
  5
2A7
  8
METAL
 10
0.0
 20
0.0
 30
0.0
 70
   128
 71
   145
 72
   144
 73
   149
 74
   150
  0
VERTEX
  5
2A8
  8
METAL
 10
0.0
 20
0.0
 30
0.0
 70
   128
 71
   154
 72
   153
 73
   235
 74
   158
  0
VERTEX
  5
2A9
  8
METAL
 10
0.0
 20
0.0
 30
0.0
 70
   128
 71
   155
 72
   154
 73
   158
 74
   159
  0
VERTEX
  5
2AA
  8
METAL
 10
0.0
 20
0.0
 30
0.0
 70
   128
 71
    54
 72
    56
 73
    66
 74
    64
  0
VERTEX
  5
2AB
  8
METAL
 10
0.0
 20
0.0
 30
0.0
 70
   128
 71
   291
 72
    54
 73
    64
 74
    62
  0
VERTEX
  5
2AC
  8
METAL
 10
0.0
 20
0.0
 30
0.0
 70
   128
 71
   269
 72
   271
 73
   287
 74
   286
  0
VERTEX
  5
2AD
  8
METAL
 10
0.0
 20
0.0
 30
0.0
 70
   128
 71
   120
 72
   269
 73
   286
 74
   285
  0
VERTEX
  5
2AE
  8
METAL
 10
0.0
 20
0.0
 30
0.0
 70
   128
 71
    55
 72
    53
 73
    63
 74
    65
  0
VERTEX
  5
2AF
  8
METAL
 10
0.0
 20
0.0
 30
0.0
 70
   128
 71
   290
 72
    55
 73
    65
 74
   284
  0
VERTEX
  5
2B0
  8
METAL
 10
0.0
 20
0.0
 30
0.0
 70
   128
 71
    59
 72
    58
 73
   114
 74
   116
  0
VERTEX
  5
2B1
  8
METAL
 10
0.0
 20
0.0
 30
0.0
 70
   128
 71
    60
 72
    59
 73
   116
 74
   119
  0
VERTEX
  5
2B2
  8
METAL
 10
0.0
 20
0.0
 30
0.0
 70
   128
 71
    44
 72
    46
 73
    56
 74
    54
  0
VERTEX
  5
2B3
  8
METAL
 10
0.0
 20
0.0
 30
0.0
 70
   128
 71
   297
 72
    44
 73
    54
 74
   291
  0
VERTEX
  5
2B4
  8
METAL
 10
0.0
 20
0.0
 30
0.0
 70
   128
 71
   286
 72
   287
 73
   294
 74
   293
  0
VERTEX
  5
2B5
  8
METAL
 10
0.0
 20
0.0
 30
0.0
 70
   128
 71
   285
 72
   286
 73
   293
 74
    51
  0
VERTEX
  5
2B6
  8
METAL
 10
0.0
 20
0.0
 30
0.0
 70
   128
 71
    45
 72
    43
 73
    53
 74
    55
  0
VERTEX
  5
2B7
  8
METAL
 10
0.0
 20
0.0
 30
0.0
 70
   128
 71
   296
 72
    45
 73
    55
 74
   290
  0
VERTEX
  5
2B8
  8
METAL
 10
0.0
 20
0.0
 30
0.0
 70
   128
 71
    50
 72
    49
 73
    58
 74
    59
  0
VERTEX
  5
2B9
  8
METAL
 10
0.0
 20
0.0
 30
0.0
 70
   128
 71
   292
 72
    50
 73
    59
 74
    60
  0
VERTEX
  5
2BA
  8
METAL
 10
0.0
 20
0.0
 30
0.0
 70
   128
 71
    34
 72
    36
 73
    46
 74
    44
  0
VERTEX
  5
2BB
  8
METAL
 10
0.0
 20
0.0
 30
0.0
 70
   128
 71
   303
 72
    34
 73
    44
 74
   297
  0
VERTEX
  5
2BC
  8
METAL
 10
0.0
 20
0.0
 30
0.0
 70
   128
 71
   293
 72
   294
 73
   300
 74
   299
  0
VERTEX
  5
2BD
  8
METAL
 10
0.0
 20
0.0
 30
0.0
 70
   128
 71
    51
 72
   293
 73
   299
 74
    41
  0
VERTEX
  5
2BE
  8
METAL
 10
0.0
 20
0.0
 30
0.0
 70
   128
 71
    35
 72
    33
 73
    43
 74
    45
  0
VERTEX
  5
2BF
  8
METAL
 10
0.0
 20
0.0
 30
0.0
 70
   128
 71
   302
 72
    35
 73
    45
 74
   296
  0
VERTEX
  5
2C0
  8
METAL
 10
0.0
 20
0.0
 30
0.0
 70
   128
 71
    40
 72
    39
 73
    49
 74
    50
  0
VERTEX
  5
2C1
  8
METAL
 10
0.0
 20
0.0
 30
0.0
 70
   128
 71
   298
 72
    40
 73
    50
 74
   292
  0
VERTEX
  5
2C2
  8
METAL
 10
0.0
 20
0.0
 30
0.0
 70
   128
 71
    24
 72
    26
 73
    36
 74
    34
  0
VERTEX
  5
2C3
  8
METAL
 10
0.0
 20
0.0
 30
0.0
 70
   128
 71
   309
 72
    24
 73
    34
 74
   303
  0
VERTEX
  5
2C4
  8
METAL
 10
0.0
 20
0.0
 30
0.0
 70
   128
 71
   299
 72
   300
 73
   306
 74
   305
  0
VERTEX
  5
2C5
  8
METAL
 10
0.0
 20
0.0
 30
0.0
 70
   128
 71
    41
 72
   299
 73
   305
 74
    31
  0
VERTEX
  5
2C6
  8
METAL
 10
0.0
 20
0.0
 30
0.0
 70
   128
 71
    25
 72
    23
 73
    33
 74
    35
  0
VERTEX
  5
2C7
  8
METAL
 10
0.0
 20
0.0
 30
0.0
 70
   128
 71
   308
 72
    25
 73
    35
 74
   302
  0
VERTEX
  5
2C8
  8
METAL
 10
0.0
 20
0.0
 30
0.0
 70
   128
 71
    30
 72
    29
 73
    39
 74
    40
  0
VERTEX
  5
2C9
  8
METAL
 10
0.0
 20
0.0
 30
0.0
 70
   128
 71
   304
 72
    30
 73
    40
 74
   298
  0
VERTEX
  5
2CA
  8
METAL
 10
0.0
 20
0.0
 30
0.0
 70
   128
 71
    15
 72
    17
 73
    26
 74
    24
  0
VERTEX
  5
2CB
  8
METAL
 10
0.0
 20
0.0
 30
0.0
 70
   128
 71
   316
 72
    15
 73
    24
 74
   309
  0
VERTEX
  5
2CC
  8
METAL
 10
0.0
 20
0.0
 30
0.0
 70
   128
 71
   330
 72
     9
 73
     5
 74
   334
  0
VERTEX
  5
2CD
  8
METAL
 10
0.0
 20
0.0
 30
0.0
 70
   128
 71
   338
 72
   330
 73
   334
 74
   339
  0
VERTEX
  5
2CE
  8
METAL
 10
0.0
 20
0.0
 30
0.0
 70
   128
 71
   305
 72
   306
 73
   312
 74
   311
  0
VERTEX
  5
2CF
  8
METAL
 10
0.0
 20
0.0
 30
0.0
 70
   128
 71
    31
 72
   305
 73
   311
 74
    21
  0
VERTEX
  5
2D0
  8
METAL
 10
0.0
 20
0.0
 30
0.0
 70
   128
 71
    16
 72
    14
 73
    23
 74
    25
  0
VERTEX
  5
2D1
  8
METAL
 10
0.0
 20
0.0
 30
0.0
 70
   128
 71
   315
 72
    16
 73
    25
 74
   308
  0
VERTEX
  5
2D2
  8
METAL
 10
0.0
 20
0.0
 30
0.0
 70
   128
 71
   337
 72
     2
 73
     3
 74
   336
  0
VERTEX
  5
2D3
  8
METAL
 10
0.0
 20
0.0
 30
0.0
 70
   128
 71
   339
 72
   337
 73
   336
 74
   340
  0
VERTEX
  5
2D4
  8
METAL
 10
0.0
 20
0.0
 30
0.0
 70
   128
 71
    20
 72
    19
 73
    29
 74
    30
  0
VERTEX
  5
2D5
  8
METAL
 10
0.0
 20
0.0
 30
0.0
 70
   128
 71
   310
 72
    20
 73
    30
 74
   304
  0
VERTEX
  5
2D6
  8
METAL
 10
0.0
 20
0.0
 30
0.0
 70
   128
 71
   335
 72
     4
 73
     8
 74
   331
  0
VERTEX
  5
2D7
  8
METAL
 10
0.0
 20
0.0
 30
0.0
 70
   128
 71
   340
 72
   335
 73
   331
 74
     1
  0
VERTEX
  5
2D8
  8
METAL
 10
0.0
 20
0.0
 30
0.0
 70
   128
 71
   329
 72
    10
 73
    11
 74
   328
  0
VERTEX
  5
2D9
  8
METAL
 10
0.0
 20
0.0
 30
0.0
 70
   128
 71
     1
 72
   329
 73
   328
 74
   338
  0
SEQEND
  5
389
  8
METAL
  0
ENDSEC
  0
EOF
