  0
SECTION
  2
HEADER
  9
$ACADVER
  1
AC1009
  9
$DWGCODEPAGE
  3
ansi_1252
  9
$INSBASE
 10
0.0
 20
0.0
 30
0.0
  9
$EXTMIN
 10
-7.5
 20
-30.49002838134766
 30
-7.5
  9
$EXTMAX
 10
7.332786560058601
 20
0.0
 30
7.332788467407227
  9
$LIMMIN
 10
0.0
 20
0.0
  9
$LIMMAX
 10
12.0
 20
9.0
  9
$ORTHOMODE
 70
     1
  9
$REGENMODE
 70
     1
  9
$FILLMODE
 70
     1
  9
$QTEXTMODE
 70
     0
  9
$MIRRTEXT
 70
     1
  9
$DRAGMODE
 70
     2
  9
$LTSCALE
 40
1.0
  9
$OSMODE
 70
    37
  9
$ATTMODE
 70
     1
  9
$TEXTSIZE
 40
0.2
  9
$TRACEWID
 40
0.05
  9
$TEXTSTYLE
  7
STANDARD
  9
$CLAYER
  8
0
  9
$CELTYPE
  6
BYLAYER
  9
$CECOLOR
 62
   256
  9
$DIMSCALE
 40
1.0
  9
$DIMASZ
 40
0.18
  9
$DIMEXO
 40
0.0625
  9
$DIMDLI
 40
0.38
  9
$DIMRND
 40
0.0
  9
$DIMDLE
 40
0.0
  9
$DIMEXE
 40
0.18
  9
$DIMTP
 40
0.0
  9
$DIMTM
 40
0.0
  9
$DIMTXT
 40
0.18
  9
$DIMCEN
 40
0.09
  9
$DIMTSZ
 40
0.0
  9
$DIMTOL
 70
     0
  9
$DIMLIM
 70
     0
  9
$DIMTIH
 70
     1
  9
$DIMTOH
 70
     1
  9
$DIMSE1
 70
     0
  9
$DIMSE2
 70
     0
  9
$DIMTAD
 70
     0
  9
$DIMZIN
 70
     0
  9
$DIMBLK
  1

  9
$DIMASO
 70
     1
  9
$DIMSHO
 70
     1
  9
$DIMPOST
  1

  9
$DIMAPOST
  1

  9
$DIMALT
 70
     0
  9
$DIMALTD
 70
     2
  9
$DIMALTF
 40
25.4
  9
$DIMLFAC
 40
1.0
  9
$DIMTOFL
 70
     0
  9
$DIMTVP
 40
0.0
  9
$DIMTIX
 70
     0
  9
$DIMSOXD
 70
     0
  9
$DIMSAH
 70
     0
  9
$DIMBLK1
  1

  9
$DIMBLK2
  1

  9
$DIMSTYLE
  2
STANDARD
  9
$DIMCLRD
 70
     0
  9
$DIMCLRE
 70
     0
  9
$DIMCLRT
 70
     0
  9
$DIMTFAC
 40
1.0
  9
$DIMGAP
 40
0.09
  9
$LUNITS
 70
     2
  9
$LUPREC
 70
     3
  9
$SKETCHINC
 40
0.1
  9
$FILLETRAD
 40
0.5
  9
$AUNITS
 70
     0
  9
$AUPREC
 70
     0
  9
$MENU
  1
.
  9
$ELEVATION
 40
0.0
  9
$PELEVATION
 40
0.0
  9
$THICKNESS
 40
0.0
  9
$LIMCHECK
 70
     0
  9
$CHAMFERA
 40
0.5
  9
$CHAMFERB
 40
0.5
  9
$SKPOLY
 70
     0
  9
$TDCREATE
 40
2456496.736795625
  9
$TDUPDATE
 40
2456496.736795625
  9
$TDINDWG
 40
0.0007985995
  9
$TDUSRTIMER
 40
0.0007985995
  9
$USRTIMER
 70
     1
  9
$ANGBASE
 50
0.0
  9
$ANGDIR
 70
     0
  9
$PDMODE
 70
     0
  9
$PDSIZE
 40
0.0
  9
$PLINEWID
 40
0.0
  9
$COORDS
 70
     1
  9
$SPLFRAME
 70
     0
  9
$SPLINETYPE
 70
     6
  9
$SPLINESEGS
 70
     8
  9
$ATTDIA
 70
     0
  9
$ATTREQ
 70
     1
  9
$HANDLING
 70
     1
  9
$HANDSEED
  5
EC
  9
$SURFTAB1
 70
     6
  9
$SURFTAB2
 70
     6
  9
$SURFTYPE
 70
     6
  9
$SURFU
 70
     6
  9
$SURFV
 70
     6
  9
$UCSNAME
  2

  9
$UCSORG
 10
0.0
 20
0.0
 30
0.0
  9
$UCSXDIR
 10
1.0
 20
0.0
 30
0.0
  9
$UCSYDIR
 10
0.0
 20
0.0
 30
1.0
  9
$PUCSNAME
  2

  9
$PUCSORG
 10
0.0
 20
0.0
 30
0.0
  9
$PUCSXDIR
 10
1.0
 20
0.0
 30
0.0
  9
$PUCSYDIR
 10
0.0
 20
1.0
 30
0.0
  9
$USERI1
 70
     0
  9
$USERI2
 70
     0
  9
$USERI3
 70
     0
  9
$USERI4
 70
     0
  9
$USERI5
 70
     0
  9
$USERR1
 40
0.0
  9
$USERR2
 40
0.0
  9
$USERR3
 40
0.0
  9
$USERR4
 40
0.0
  9
$USERR5
 40
0.0
  9
$WORLDVIEW
 70
     1
  9
$SHADEDGE
 70
     3
  9
$SHADEDIF
 70
    70
  9
$TILEMODE
 70
     1
  9
$MAXACTVP
 70
    64
  9
$PLIMCHECK
 70
     0
  9
$PEXTMIN
 10
1.000000000000000E+20
 20
1.000000000000000E+20
 30
1.000000000000000E+20
  9
$PEXTMAX
 10
-1.000000000000000E+20
 20
-1.000000000000000E+20
 30
-1.000000000000000E+20
  9
$PLIMMIN
 10
0.0
 20
0.0
  9
$PLIMMAX
 10
12.0
 20
9.0
  9
$UNITMODE
 70
     0
  9
$VISRETAIN
 70
     1
  9
$PLINEGEN
 70
     0
  9
$PSLTSCALE
 70
     1
  0
ENDSEC
  0
SECTION
  2
TABLES
  0
TABLE
  2
VPORT
 70
     1
  0
VPORT
  2
*ACTIVE
 70
     0
 10
0.0
 20
0.0
 11
1.0
 21
1.0
 12
10.72073403486656
 22
-6.326147104266094
 13
0.0
 23
0.0
 14
0.5
 24
0.5
 15
0.5
 25
0.5
 16
-1.0
 26
-1.0
 36
1.0
 17
0.0
 27
0.0
 37
0.0
 40
39.03270055482921
 41
1.000000128590041
 42
50.0
 43
0.0
 44
0.0
 50
0.0
 51
0.0
 71
    16
 72
   100
 73
     0
 74
     1
 75
     0
 76
     0
 77
     0
 78
     0
  0
ENDTAB
  0
TABLE
  2
LTYPE
 70
     1
  0
LTYPE
  2
CONTINUOUS
 70
     0
  3
Solid line
 72
    65
 73
     0
 40
0.0
  0
ENDTAB
  0
TABLE
  2
LAYER
 70
     2
  0
LAYER
  2
0
 70
     0
 62
     7
  6
CONTINUOUS
  0
LAYER
  2
METAL
 70
     0
 62
   190
  6
CONTINUOUS
  0
ENDTAB
  0
TABLE
  2
STYLE
 70
     1
  0
STYLE
  2
STANDARD
 70
     0
 40
0.0
 41
1.0
 50
0.0
 71
     0
 42
0.2
  3
txt
  4

  0
ENDTAB
  0
TABLE
  2
VIEW
 70
     0
  0
ENDTAB
  0
TABLE
  2
UCS
 70
     0
  0
ENDTAB
  0
TABLE
  2
APPID
 70
     1
  0
APPID
  2
ACAD
 70
     0
  0
ENDTAB
  0
TABLE
  2
DIMSTYLE
 70
     1
  0
DIMSTYLE
  2
STANDARD
 70
     0
  3

  4

  5

  6

  7

 40
1.0
 41
0.18
 42
0.0625
 43
0.38
 44
0.18
 45
0.0
 46
0.0
 47
0.0
 48
0.0
140
0.18
141
0.09
142
0.0
143
25.4
144
1.0
145
0.0
146
1.0
147
0.09
 71
     0
 72
     0
 73
     1
 74
     1
 75
     0
 76
     0
 77
     0
 78
     0
170
     0
171
     2
172
     0
173
     0
174
     0
175
     0
176
     0
177
     0
178
     0
  0
ENDTAB
  0
ENDSEC
  0
SECTION
  2
BLOCKS
  0
BLOCK
  8
0
  2
$MODEL_SPACE
 70
     0
 10
0.0
 20
0.0
 30
0.0
  3
$MODEL_SPACE
  1

  0
ENDBLK
  5
21
  8
0
  0
BLOCK
 67
     1
  8
0
  2
$PAPER_SPACE
 70
     0
 10
0.0
 20
0.0
 30
0.0
  3
$PAPER_SPACE
  1

  0
ENDBLK
  5
76
 67
     1
  8
0
  0
ENDSEC
  0
SECTION
  2
ENTITIES
  0
POLYLINE
  5
3C
  8
METAL
 66
     1
 10
0.0
 20
0.0
 30
0.0
 70
    64
 71
    60
 72
    36
  0
VERTEX
  5
3D
  8
METAL
 10
-0.0826988220214808
 20
-20.56494140625
 30
-5.200785636901863
 70
   192
  0
VERTEX
  5
3E
  8
METAL
 10
2.745790481567388
 20
-21.22979736328125
 30
-4.452366828918464
 70
   192
  0
VERTEX
  5
3F
  8
METAL
 10
-2.911193847656254
 20
-21.22979736328125
 30
-4.45236253738404
 70
   192
  0
VERTEX
  5
40
  8
METAL
 10
-6.50639343261718
 20
0.0
 30
-3.791798830032349
 70
   192
  0
VERTEX
  5
41
  8
METAL
 10
1.99535751342774
 20
-7.456729888916016
 30
-3.684477806091316
 70
   192
  0
VERTEX
  5
42
  8
METAL
 10
4.816390037536618
 20
-23.04621505737305
 30
-2.407640695571907
 70
   192
  0
VERTEX
  5
43
  8
METAL
 10
-4.981790542602543
 20
-23.04621887207031
 30
-2.40763974189759
 70
   192
  0
VERTEX
  5
44
  8
METAL
 10
3.517265319824219
 20
-7.456729888916016
 30
-2.162569761276252
 70
   192
  0
VERTEX
  5
45
  8
METAL
 10
7.332786560058601
 20
0.0
 30
-0.0836057662963867
 70
   192
  0
VERTEX
  5
46
  8
METAL
 10
4.07432174682617
 20
-7.456729888916016
 30
-0.0836047660559487
 70
   192
  0
VERTEX
  5
47
  8
METAL
 10
-7.5
 20
0.0
 30
-0.0836027655750513
 70
   192
  0
VERTEX
  5
48
  8
METAL
 10
5.574281692504886
 20
-25.52748107910156
 30
0.3855022490024496
 70
   192
  0
VERTEX
  5
49
  8
METAL
 10
-5.739681243896483
 20
-25.52748489379883
 30
0.3855032324790884
 70
   192
  0
VERTEX
  5
4A
  8
METAL
 10
4.816390037536616
 20
-28.00875473022461
 30
3.178646326065056
 70
   192
  0
VERTEX
  5
4B
  8
METAL
 10
-6.506389617919918
 20
0.0
 30
3.624593257904046
 70
   192
  0
VERTEX
  5
4C
  8
METAL
 10
2.745791435241696
 20
-29.82516479492188
 30
5.223369121551507
 70
   192
  0
VERTEX
  5
4D
  8
METAL
 10
-0.0826988220214826
 20
-30.49002838134766
 30
5.97178936004638
 70
   192
  0
VERTEX
  5
4E
  8
METAL
 10
3.624590873718262
 20
0.0
 30
6.339179039001465
 70
   192
  0
VERTEX
  5
4F
  8
METAL
 10
-3.791801452636719
 20
0.0
 30
6.339180469512939
 70
   192
  0
VERTEX
  5
50
  8
METAL
 10
-0.0836048126220703
 20
0.0
 30
7.332788467407227
 70
   192
  0
VERTEX
  5
51
  8
METAL
 10
-0.0836048126220703
 20
0.0
 30
7.332788467407227
 70
   192
  0
VERTEX
  5
52
  8
METAL
 10
-3.791801452636719
 20
0.0
 30
6.339180469512939
 70
   192
  0
VERTEX
  5
53
  8
METAL
 10
3.624590873718262
 20
0.0
 30
6.339179039001465
 70
   192
  0
VERTEX
  5
54
  8
METAL
 10
-0.0826988220214826
 20
-30.49002838134766
 30
5.97178936004638
 70
   192
  0
VERTEX
  5
55
  8
METAL
 10
-2.911188125610353
 20
-29.82516479492188
 30
5.223370075225823
 70
   192
  0
VERTEX
  5
56
  8
METAL
 10
-2.911188125610353
 20
-29.82516479492188
 30
5.223370075225823
 70
   192
  0
VERTEX
  5
57
  8
METAL
 10
2.745791435241696
 20
-29.82516479492188
 30
5.223369121551507
 70
   192
  0
VERTEX
  5
58
  8
METAL
 10
-0.0836067199707013
 20
-7.456729888916016
 30
4.074323177337639
 70
   192
  0
VERTEX
  5
AA
  8
METAL
 10
-6.506389617919918
 20
0.0
 30
3.624593257904046
 70
   192
  0
VERTEX
  5
AB
  8
METAL
 10
6.33917808532715
 20
0.0
 30
3.62459135055542
 70
   192
  0
VERTEX
  5
5B
  8
METAL
 10
6.33917808532715
 20
0.0
 30
3.62459135055542
 70
   192
  0
VERTEX
  5
5C
  8
METAL
 10
-2.162570953369142
 20
-7.456729888916016
 30
3.517267227172844
 70
   192
  0
VERTEX
  5
5D
  8
METAL
 10
1.995358467102049
 20
-7.456729888916016
 30
3.517267227172844
 70
   192
  0
VERTEX
  5
AC
  8
METAL
 10
-4.981786727905275
 20
-28.00875854492188
 30
3.178648233413689
 70
   192
  0
VERTEX
  5
5F
  8
METAL
 10
-4.981786727905275
 20
-28.00875854492188
 30
3.178648233413689
 70
   192
  0
VERTEX
  5
60
  8
METAL
 10
4.816390037536616
 20
-28.00875473022461
 30
3.178646326065056
 70
   192
  0
VERTEX
  5
61
  8
METAL
 10
-3.68447875976562
 20
-7.456729888916016
 30
1.995360136032097
 70
   192
  0
VERTEX
  5
62
  8
METAL
 10
3.517265319824219
 20
-7.456729888916016
 30
1.995359182357781
 70
   192
  0
VERTEX
  5
63
  8
METAL
 10
-5.739681243896483
 20
-25.52748489379883
 30
0.3855032324790884
 70
   192
  0
VERTEX
  5
64
  8
METAL
 10
5.574281692504886
 20
-25.52748107910156
 30
0.3855022490024496
 70
   192
  0
VERTEX
  5
65
  8
METAL
 10
-7.5
 20
0.0
 30
-0.0836027655750513
 70
   192
  0
VERTEX
  5
66
  8
METAL
 10
-4.24153518676758
 20
-7.456729888916016
 30
-0.0836037658155036
 70
   192
  0
VERTEX
  5
67
  8
METAL
 10
7.332786560058601
 20
0.0
 30
-0.0836057662963867
 70
   192
  0
VERTEX
  5
68
  8
METAL
 10
-3.68448066711426
 20
-7.456729888916016
 30
-2.162567853927619
 70
   192
  0
VERTEX
  5
69
  8
METAL
 10
-4.981790542602543
 20
-23.04621887207031
 30
-2.40763974189759
 70
   192
  0
VERTEX
  5
6A
  8
METAL
 10
4.816390037536618
 20
-23.04621505737305
 30
-2.407640695571907
 70
   192
  0
VERTEX
  5
AD
  8
METAL
 10
-2.162572860717772
 20
-7.456729888916016
 30
-3.684475660324104
 70
   192
  0
VERTEX
  5
AE
  8
METAL
 10
-6.50639343261718
 20
0.0
 30
-3.791798830032349
 70
   192
  0
VERTEX
  5
6D
  8
METAL
 10
6.33917903900147
 20
0.0
 30
-3.791802883148193
 70
   192
  0
VERTEX
  5
6E
  8
METAL
 10
6.33917903900147
 20
0.0
 30
-3.791802883148193
 70
   192
  0
VERTEX
  5
6F
  8
METAL
 10
-0.0836067199707013
 20
-7.456729888916016
 30
-4.241533756256111
 70
   192
  0
VERTEX
  5
70
  8
METAL
 10
-2.911193847656254
 20
-21.22979736328125
 30
-4.45236253738404
 70
   192
  0
VERTEX
  5
71
  8
METAL
 10
2.745790481567388
 20
-21.22979736328125
 30
-4.452366828918464
 70
   192
  0
VERTEX
  5
72
  8
METAL
 10
-0.0826988220214808
 20
-20.56494140625
 30
-5.200785636901863
 70
   192
  0
VERTEX
  5
AF
  8
METAL
 10
-3.79180908203125
 20
0.0
 30
-6.506388664245605
 70
   192
  0
VERTEX
  5
B0
  8
METAL
 10
-3.79180908203125
 20
0.0
 30
-6.506388664245605
 70
   192
  0
VERTEX
  5
B1
  8
METAL
 10
3.624590873718262
 20
0.0
 30
-6.506390571594238
 70
   192
  0
VERTEX
  5
B2
  8
METAL
 10
3.624590873718262
 20
0.0
 30
-6.506390571594238
 70
   192
  0
VERTEX
  5
77
  8
METAL
 10
-0.0836067199706996
 20
0.0
 30
-7.5
 70
   192
  0
VERTEX
  5
78
  8
METAL
 10
-0.0836067199706996
 20
0.0
 30
-7.5
 70
   192
  0
VERTEX
  5
79
  8
METAL
 10
0.0
 20
0.0
 30
0.0
 70
   128
 71
    57
 72
     5
 73
    51
 74
    59
  0
VERTEX
  5
7A
  8
METAL
 10
0.0
 20
0.0
 30
0.0
 70
   128
 71
    49
 72
     8
 73
     5
 74
    57
  0
VERTEX
  5
7B
  8
METAL
 10
0.0
 20
0.0
 30
0.0
 70
   128
 71
    43
 72
    10
 73
     8
 74
    49
  0
VERTEX
  5
7C
  8
METAL
 10
0.0
 20
0.0
 30
0.0
 70
   128
 71
    30
 72
    38
 73
    10
 74
    43
  0
VERTEX
  5
7D
  8
METAL
 10
0.0
 20
0.0
 30
0.0
 70
   128
 71
    23
 72
    33
 73
    38
 74
    30
  0
VERTEX
  5
7E
  8
METAL
 10
0.0
 20
0.0
 30
0.0
 70
   128
 71
    20
 72
    28
 73
    33
 74
    23
  0
VERTEX
  5
7F
  8
METAL
 10
0.0
 20
0.0
 30
0.0
 70
   128
 71
    22
 72
    32
 73
    28
 74
    20
  0
VERTEX
  5
80
  8
METAL
 10
0.0
 20
0.0
 30
0.0
 70
   128
 71
    29
 72
    37
 73
    32
 74
    22
  0
VERTEX
  5
81
  8
METAL
 10
0.0
 20
0.0
 30
0.0
 70
   128
 71
    41
 72
    42
 73
    37
 74
    29
  0
VERTEX
  5
82
  8
METAL
 10
0.0
 20
0.0
 30
0.0
 70
   128
 71
    48
 72
    44
 73
    42
 74
    41
  0
VERTEX
  5
83
  8
METAL
 10
0.0
 20
0.0
 30
0.0
 70
   128
 71
    55
 72
    47
 73
    44
 74
    48
  0
VERTEX
  5
84
  8
METAL
 10
0.0
 20
0.0
 30
0.0
 70
   128
 71
    59
 72
    51
 73
    47
 74
    55
  0
VERTEX
  5
85
  8
METAL
 10
0.0
 20
0.0
 30
0.0
 70
   128
 71
     4
 72
    11
 73
    15
 74
    60
  0
VERTEX
  5
86
  8
METAL
 10
0.0
 20
0.0
 30
0.0
 70
   128
 71
    15
 72
    19
 73
    21
 74
    31
  0
VERTEX
  5
87
  8
METAL
 10
0.0
 20
0.0
 30
0.0
 70
   128
 71
    21
 72
    18
 73
    31
 74
    31
  0
VERTEX
  5
88
  8
METAL
 10
0.0
 20
0.0
 30
0.0
 70
   128
 71
    31
 72
     9
 73
    50
 74
    60
  0
VERTEX
  5
89
  8
METAL
 10
0.0
 20
0.0
 30
0.0
 70
   128
 71
    50
 72
    58
 73
    60
 74
    60
  0
VERTEX
  5
8A
  8
METAL
 10
0.0
 20
0.0
 30
0.0
 70
   128
 71
    15
 72
    31
 73
    60
 74
    60
  0
VERTEX
  5
8B
  8
METAL
 10
0.0
 20
0.0
 30
0.0
 70
   128
 71
    56
 72
     4
 73
    60
 74
    60
  0
VERTEX
  5
8C
  8
METAL
 10
0.0
 20
0.0
 30
0.0
 70
   128
 71
    53
 72
    54
 73
    51
 74
     5
  0
VERTEX
  5
8D
  8
METAL
 10
0.0
 20
0.0
 30
0.0
 70
   128
 71
    46
 72
    53
 73
     5
 74
     8
  0
VERTEX
  5
8E
  8
METAL
 10
0.0
 20
0.0
 30
0.0
 70
   128
 71
    40
 72
    46
 73
     8
 74
    10
  0
VERTEX
  5
8F
  8
METAL
 10
0.0
 20
0.0
 30
0.0
 70
   128
 71
    36
 72
    40
 73
    10
 74
    38
  0
VERTEX
  5
90
  8
METAL
 10
0.0
 20
0.0
 30
0.0
 70
   128
 71
    27
 72
    36
 73
    38
 74
    33
  0
VERTEX
  5
91
  8
METAL
 10
0.0
 20
0.0
 30
0.0
 70
   128
 71
    24
 72
    27
 73
    33
 74
    28
  0
VERTEX
  5
B3
  8
METAL
 10
0.0
 20
0.0
 30
0.0
 70
   128
 71
    25
 72
    24
 73
    28
 74
    32
  0
VERTEX
  5
B4
  8
METAL
 10
0.0
 20
0.0
 30
0.0
 70
   128
 71
    34
 72
    25
 73
    32
 74
    37
  0
VERTEX
  5
94
  8
METAL
 10
0.0
 20
0.0
 30
0.0
 70
   128
 71
    39
 72
    34
 73
    37
 74
    42
  0
VERTEX
  5
95
  8
METAL
 10
0.0
 20
0.0
 30
0.0
 70
   128
 71
    45
 72
    39
 73
    42
 74
    44
  0
VERTEX
  5
96
  8
METAL
 10
0.0
 20
0.0
 30
0.0
 70
   128
 71
    52
 72
    45
 73
    44
 74
    47
  0
VERTEX
  5
B5
  8
METAL
 10
0.0
 20
0.0
 30
0.0
 70
   128
 71
    54
 72
    52
 73
    47
 74
    51
  0
VERTEX
  5
B6
  8
METAL
 10
0.0
 20
0.0
 30
0.0
 70
   128
 71
    13
 72
     7
 73
     3
 74
    35
  0
VERTEX
  5
99
  8
METAL
 10
0.0
 20
0.0
 30
0.0
 70
   128
 71
    35
 72
     3
 73
     1
 74
    26
  0
VERTEX
  5
9A
  8
METAL
 10
0.0
 20
0.0
 30
0.0
 70
   128
 71
    26
 72
     1
 73
     2
 74
    17
  0
VERTEX
  5
9B
  8
METAL
 10
0.0
 20
0.0
 30
0.0
 70
   128
 71
    17
 72
     2
 73
     6
 74
    16
  0
VERTEX
  5
9C
  8
METAL
 10
0.0
 20
0.0
 30
0.0
 70
   128
 71
     6
 72
    12
 73
    14
 74
    16
  0
SEQEND
  5
E8
  8
METAL
  0
ENDSEC
  0
EOF
