  0
SECTION
  2
HEADER
  9
$ACADVER
  1
AC1009
  9
$DWGCODEPAGE
  3
ansi_1252
  9
$INSBASE
 10
0.0
 20
0.0
 30
0.0
  9
$EXTMIN
 10
-12.46759335285879
 20
-45.14081210079203
 30
-8.375006910204515
  9
$EXTMAX
 10
15.86315807474244
 20
21.14539096557176
 30
9.179274220321146
  9
$LIMMIN
 10
0.0
 20
0.0
  9
$LIMMAX
 10
420.0
 20
297.0
  9
$ORTHOMODE
 70
     0
  9
$REGENMODE
 70
     1
  9
$FILLMODE
 70
     1
  9
$QTEXTMODE
 70
     0
  9
$MIRRTEXT
 70
     0
  9
$DRAGMODE
 70
     2
  9
$LTSCALE
 40
1.0
  9
$OSMODE
 70
    37
  9
$ATTMODE
 70
     1
  9
$TEXTSIZE
 40
2.5
  9
$TRACEWID
 40
1.0
  9
$TEXTSTYLE
  7
STANDARD
  9
$CLAYER
  8
0
  9
$CELTYPE
  6
BYLAYER
  9
$CECOLOR
 62
   256
  9
$DIMSCALE
 40
1.0
  9
$DIMASZ
 40
2.5
  9
$DIMEXO
 40
0.625
  9
$DIMDLI
 40
3.75
  9
$DIMRND
 40
0.0
  9
$DIMDLE
 40
0.0
  9
$DIMEXE
 40
1.25
  9
$DIMTP
 40
0.0
  9
$DIMTM
 40
0.0
  9
$DIMTXT
 40
2.5
  9
$DIMCEN
 40
2.5
  9
$DIMTSZ
 40
0.0
  9
$DIMTOL
 70
     0
  9
$DIMLIM
 70
     0
  9
$DIMTIH
 70
     0
  9
$DIMTOH
 70
     0
  9
$DIMSE1
 70
     0
  9
$DIMSE2
 70
     0
  9
$DIMTAD
 70
     1
  9
$DIMZIN
 70
     8
  9
$DIMBLK
  1

  9
$DIMASO
 70
     1
  9
$DIMSHO
 70
     1
  9
$DIMPOST
  1

  9
$DIMAPOST
  1

  9
$DIMALT
 70
     0
  9
$DIMALTD
 70
     3
  9
$DIMALTF
 40
0.03937007874016
  9
$DIMLFAC
 40
1.0
  9
$DIMTOFL
 70
     1
  9
$DIMTVP
 40
0.0
  9
$DIMTIX
 70
     0
  9
$DIMSOXD
 70
     0
  9
$DIMSAH
 70
     0
  9
$DIMBLK1
  1

  9
$DIMBLK2
  1

  9
$DIMSTYLE
  2
ISO-25
  9
$DIMCLRD
 70
     0
  9
$DIMCLRE
 70
     0
  9
$DIMCLRT
 70
     0
  9
$DIMTFAC
 40
1.0
  9
$DIMGAP
 40
0.625
  9
$LUNITS
 70
     2
  9
$LUPREC
 70
     4
  9
$SKETCHINC
 40
1.0
  9
$FILLETRAD
 40
0.0
  9
$AUNITS
 70
     0
  9
$AUPREC
 70
     0
  9
$MENU
  1
.
  9
$ELEVATION
 40
0.0
  9
$PELEVATION
 40
0.0
  9
$THICKNESS
 40
0.0
  9
$LIMCHECK
 70
     0
  9
$CHAMFERA
 40
0.0
  9
$CHAMFERB
 40
0.0
  9
$SKPOLY
 70
     0
  9
$TDCREATE
 40
2453368.608089202
  9
$TDUPDATE
 40
2456680.394304537
  9
$TDINDWG
 40
0.1117444444
  9
$TDUSRTIMER
 40
0.1117443866
  9
$USRTIMER
 70
     1
  9
$ANGBASE
 50
0.0
  9
$ANGDIR
 70
     0
  9
$PDMODE
 70
     0
  9
$PDSIZE
 40
0.0
  9
$PLINEWID
 40
0.0
  9
$COORDS
 70
     1
  9
$SPLFRAME
 70
     0
  9
$SPLINETYPE
 70
     6
  9
$SPLINESEGS
 70
     8
  9
$ATTDIA
 70
     0
  9
$ATTREQ
 70
     1
  9
$HANDLING
 70
     1
  9
$HANDSEED
  5
87E
  9
$SURFTAB1
 70
    20
  9
$SURFTAB2
 70
     6
  9
$SURFTYPE
 70
     6
  9
$SURFU
 70
     6
  9
$SURFV
 70
     6
  9
$UCSNAME
  2

  9
$UCSORG
 10
0.0
 20
0.0
 30
0.0
  9
$UCSXDIR
 10
1.0
 20
0.0
 30
0.0
  9
$UCSYDIR
 10
0.0
 20
1.0
 30
0.0
  9
$PUCSNAME
  2

  9
$PUCSORG
 10
0.0
 20
0.0
 30
0.0
  9
$PUCSXDIR
 10
1.0
 20
0.0
 30
0.0
  9
$PUCSYDIR
 10
0.0
 20
1.0
 30
0.0
  9
$USERI1
 70
     0
  9
$USERI2
 70
     0
  9
$USERI3
 70
     0
  9
$USERI4
 70
     0
  9
$USERI5
 70
     0
  9
$USERR1
 40
0.0
  9
$USERR2
 40
0.0
  9
$USERR3
 40
0.0
  9
$USERR4
 40
0.0
  9
$USERR5
 40
0.0
  9
$WORLDVIEW
 70
     1
  9
$SHADEDGE
 70
     3
  9
$SHADEDIF
 70
    70
  9
$TILEMODE
 70
     1
  9
$MAXACTVP
 70
    64
  9
$PLIMCHECK
 70
     0
  9
$PEXTMIN
 10
1.000000000000000E+20
 20
1.000000000000000E+20
 30
1.000000000000000E+20
  9
$PEXTMAX
 10
-1.000000000000000E+20
 20
-1.000000000000000E+20
 30
-1.000000000000000E+20
  9
$PLIMMIN
 10
0.0
 20
0.0
  9
$PLIMMAX
 10
420.0
 20
297.0
  9
$UNITMODE
 70
     0
  9
$VISRETAIN
 70
     1
  9
$PLINEGEN
 70
     0
  9
$PSLTSCALE
 70
     1
  0
ENDSEC
  0
SECTION
  2
TABLES
  0
TABLE
  2
VPORT
 70
     1
  0
VPORT
  2
*ACTIVE
 70
     0
 10
0.0
 20
0.0
 11
1.0
 21
1.0
 12
17.75125460207871
 22
14.82042485894517
 13
0.0
 23
0.0
 14
10.0
 24
10.0
 15
10.0
 25
10.0
 16
-1.0
 26
-1.0
 36
1.0
 17
-29.38020849082358
 27
-17.97163641197801
 37
0.776852665287438
 40
67.52428106709023
 41
2.157392686804451
 42
50.0
 43
0.0
 44
0.0
 50
0.0
 51
0.0
 71
    16
 72
  1000
 73
     0
 74
     1
 75
     0
 76
     0
 77
     0
 78
     0
  0
ENDTAB
  0
TABLE
  2
LTYPE
 70
     1
  0
LTYPE
  2
CONTINUOUS
 70
     0
  3
Solid line
 72
    65
 73
     0
 40
0.0
  0
ENDTAB
  0
TABLE
  2
LAYER
 70
     6
  0
LAYER
  2
0
 70
     0
 62
     7
  6
CONTINUOUS
  0
LAYER
  2
DT_RENDER
 70
     0
 62
     7
  6
CONTINUOUS
  0
LAYER
  2
ACESSORIOS
 70
     0
 62
     1
  6
CONTINUOUS
  0
LAYER
  2
AUX
 70
     0
 62
     3
  6
CONTINUOUS
  0
LAYER
  2
CINZA
 70
     0
 62
     9
  6
CONTINUOUS
  0
LAYER
  2
PRETO
 70
     0
 62
    28
  6
CONTINUOUS
  0
ENDTAB
  0
TABLE
  2
STYLE
 70
     1
  0
STYLE
  2
STANDARD
 70
     0
 40
0.0
 41
1.0
 50
0.0
 71
     0
 42
2.5
  3
txt
  4

  0
ENDTAB
  0
TABLE
  2
VIEW
 70
     1
  0
VIEW
  2
TEST
 70
     0
 40
297.0
 10
260.2016129032258
 20
148.5
 41
520.4032258064517
 11
0.0
 21
0.0
 31
1.0
 12
0.0
 22
0.0
 32
0.0
 42
50.0
 43
0.0
 44
0.0
 50
0.0
 71
     0
  0
ENDTAB
  0
TABLE
  2
UCS
 70
     0
  0
ENDTAB
  0
TABLE
  2
APPID
 70
     4
  0
APPID
  2
ACAD
 70
     0
  0
APPID
  2
DTRENDER2
 70
     0
  0
APPID
  2
DT_MAT_ASSIGN
 70
     0
  0
APPID
  2
DT_MAT_MAPPING
 70
     0
  0
ENDTAB
  0
TABLE
  2
DIMSTYLE
 70
     2
  0
DIMSTYLE
  2
STANDARD
 70
     0
  3

  4

  5

  6

  7

 40
1.0
 41
0.18
 42
0.0625
 43
0.38
 44
0.18
 45
0.0
 46
0.0
 47
0.0
 48
0.0
140
0.18
141
0.09
142
0.0
143
25.4
144
1.0
145
0.0
146
1.0
147
0.09
 71
     0
 72
     0
 73
     1
 74
     1
 75
     0
 76
     0
 77
     0
 78
     0
170
     0
171
     2
172
     0
173
     0
174
     0
175
     0
176
     0
177
     0
178
     0
  0
DIMSTYLE
  2
ISO-25
 70
     0
  3

  4

  5

  6

  7

 40
1.0
 41
2.5
 42
0.625
 43
3.75
 44
1.25
 45
0.0
 46
0.0
 47
0.0
 48
0.0
140
2.5
141
2.5
142
0.0
143
0.03937007874016
144
1.0
145
0.0
146
1.0
147
0.625
 71
     0
 72
     0
 73
     0
 74
     0
 75
     0
 76
     0
 77
     1
 78
     8
170
     0
171
     3
172
     1
173
     0
174
     0
175
     0
176
     0
177
     0
178
     0
  0
ENDTAB
  0
ENDSEC
  0
SECTION
  2
BLOCKS
  0
BLOCK
  8
0
  2
$MODEL_SPACE
 70
     0
 10
0.0
 20
0.0
 30
0.0
  3
$MODEL_SPACE
  1

  0
ENDBLK
  5
21
  8
0
  0
BLOCK
 67
     1
  8
0
  2
$PAPER_SPACE
 70
     0
 10
0.0
 20
0.0
 30
0.0
  3
$PAPER_SPACE
  1

  0
ENDBLK
  5
76
 67
     1
  8
0
  0
BLOCK
  8
0
  2
DT_LIGHT
 70
     0
 10
0.0
 20
0.0
 30
0.0
  3
DT_LIGHT
  1

  0
ENDBLK
  5
86A
  8
0
  0
BLOCK
  8
0
  2
DT_MATERIAL
 70
     0
 10
0.0
 20
0.0
 30
0.0
  3
DT_MATERIAL
  1

  0
ENDBLK
  5
86C
  8
0
  0
BLOCK
  8
0
  2
DT_COLOR
 70
     0
 10
0.0
 20
0.0
 30
0.0
  3
DT_COLOR
  1

  0
ENDBLK
  5
86E
  8
0
  0
BLOCK
  8
0
  2
DT_FLOOR
 70
     0
 10
0.0
 20
0.0
 30
0.0
  3
DT_FLOOR
  1

  0
ENDBLK
  5
870
  8
0
  0
BLOCK
  8
0
  2
DT_OPTIONS
 70
     0
 10
0.0
 20
0.0
 30
0.0
  3
DT_OPTIONS
  1

  0
ENDBLK
  5
872
  8
0
  0
BLOCK
  8
0
  2
DT_BACKGROUND
 70
     0
 10
0.0
 20
0.0
 30
0.0
  3
DT_BACKGROUND
  1

  0
ENDBLK
  5
874
  8
0
  0
ENDSEC
  0
SECTION
  2
ENTITIES
  0
INSERT
  5
148
  8
DT_RENDER
  2
DT_MATERIAL
 10
16.86610045277901
 20
-7.140809363886831
 30
0.0000023335800559
1001
DTRENDER2
1000
MATERIAL
1071
   200501
1040
0.25
1040
0.5
1040
0.0
1040
0.8
1040
80.0
1040
0.0
1071
        1
1000
DEFAULT
1071
       16
1000

1040
0.0
1040
0.0
1040
0.0
1040
1.0
1040
1.0
1040
1.0
1040
0.0
1071
 16777215
1040
1.0
1071
 16777215
1040
1.0
1071
 16777215
1040
1.0
1071
 16777215
1040
1.0
1071
 16777215
1040
2.186999999999999
1040
0.5
1071
        3
1040
2.5
  0
3DFACE
  5
64
  8
ACESSORIOS
 10
10.57580886429339
 20
21.14518650317968
 30
8.374993089861405
 11
10.63929821929423
 21
17.50913385820698
 31
8.374994278104854
 12
10.63929821929423
 22
17.50912838439246
 32
-8.37500572189425
 13
10.57580886429339
 23
21.14518102936517
 33
-8.3750069101377
  0
3DFACE
  5
65
  8
ACESSORIOS
 10
10.63929821929423
 20
17.50912838439246
 30
-8.37500572189425
 11
13.82981738846516
 21
13.56494471662189
 31
-8.375004432955157
 12
13.82981738846516
 22
13.5649501904364
 32
8.37499556704395
 13
10.63929821929423
 23
17.50913385820698
 33
8.374994278104854
  0
3DFACE
  5
66
  8
ACESSORIOS
 10
13.65131130369229
 20
10.33944187772352
 30
-8.37500337887729
 11
13.82981738846516
 21
13.56494471662189
 31
-8.375004432955157
 12
13.82981738846516
 22
13.5649501904364
 32
8.37499556704395
 13
13.65131130369229
 23
10.33944735153804
 33
8.374996621121815
  0
3DFACE
  5
67
  8
ACESSORIOS
 10
11.7192677225435
 20
10.44636521727922
 30
-8.375003413819291
 11
13.65131130369229
 21
10.33944187772352
 31
-8.37500337887729
 12
13.65131130369229
 22
10.33944735153804
 32
8.374996621121815
 13
11.7192677225435
 23
10.44637069109373
 33
8.374996586179813
  0
3DFACE
  5
68
  8
ACESSORIOS
 10
11.7192677225435
 20
10.44636521727922
 30
-8.375003413819291
 11
11.82878683258673
 21
12.42531288624829
 31
-8.375004060529292
 12
11.82878683258673
 22
12.42531836006281
 32
8.374995939469814
 13
11.7192677225435
 23
10.44637069109373
 33
8.374996586179813
  0
3DFACE
  5
69
  8
ACESSORIOS
 10
11.82878683258673
 20
12.42531836006281
 30
8.374995939469814
 11
10.72806705694202
 21
12.42531836006281
 31
8.374995939469814
 12
10.72806705694202
 22
12.42531288624829
 32
-8.375004060529292
 13
11.82878683258673
 23
12.42531288624829
 33
-8.375004060529292
  0
3DFACE
  5
6A
  8
ACESSORIOS
 10
11.7192677225435
 20
10.44637069109373
 30
8.374996586179813
 11
13.65131130369229
 21
10.33944735153804
 31
8.374996621121815
 12
13.82981738846516
 22
13.5649501904364
 32
8.37499556704395
 13
11.82878683258673
 23
12.42531836006281
 33
8.374995939469814
  0
3DFACE
  5
14A
  8
ACESSORIOS
 10
11.82878683258673
 20
12.42531288624829
 30
-8.375004060529292
 11
13.82981738846516
 21
13.56494471662189
 31
-8.375004432955157
 12
13.65131130369229
 22
10.33944187772352
 32
-8.37500337887729
 13
11.7192677225435
 23
10.44636521727922
 33
-8.375003413819291
  0
3DFACE
  5
6D
  8
ACESSORIOS
 10
10.72806705694202
 20
12.42531836006281
 30
8.374995939469814
 11
10.89973537234502
 21
2.593827202672394
 31
8.374999152350952
 12
10.89973537234502
 22
2.593821728857876
 32
-8.375000847648153
 13
10.72806705694202
 23
12.42531288624829
 33
-8.375004060529292
  0
3DFACE
  5
6E
  8
ACESSORIOS
 10
10.01009909544077
 20
-22.88051497234222
 30
8.375007477235972
 11
10.89973537234502
 21
2.593827202672394
 31
8.374999152350952
 12
10.89973537234502
 22
2.593821728857876
 32
-8.375000847648153
 13
10.01009909544077
 23
-22.88052044615674
 33
-8.374992522763135
  0
3DFACE
  5
6F
  8
ACESSORIOS
 10
10.01009909544077
 20
-22.88052044615674
 30
-8.374992522763135
 11
14.06540236478862
 21
-22.89113722954477
 31
-8.374992519293622
 12
14.06540236478862
 22
-22.89113175573025
 32
8.37500748070548
 13
10.01009909544077
 23
-22.88051497234222
 33
8.375007477235972
  0
3DFACE
  5
70
  8
ACESSORIOS
 10
14.07121586234256
 20
-29.19315817078011
 30
-8.37499045982534
 11
15.85970117736765
 21
-28.16294964730558
 31
-8.374990796492229
 12
15.85970117736765
 22
-28.16294417349106
 32
8.375009203506876
 13
14.07121586234256
 23
-29.1931526969656
 33
8.375009540173762
  0
3DFACE
  5
71
  8
ACESSORIOS
 10
15.85970117736765
 20
-28.16294964730558
 30
-8.374990796492229
 11
15.86315807474243
 21
-24.69247795852388
 31
-8.374991930624665
 12
15.86315807474243
 22
-24.69247248470936
 32
8.37500806937444
 13
15.85970117736765
 23
-28.16294417349106
 33
8.375009203506876
  0
3DFACE
  5
35E
  8
AUX
 10
4.010114196317708
 20
-45.14080662697753
 30
8.375014751785686
 11
8.297873649305519
 21
-41.20391472436573
 31
8.375013465229497
 12
8.297873649305519
 22
-41.20392019818033
 32
-8.374986534769604
 13
4.010114196317708
 23
-45.14081210079203
 33
-8.374985248213424
  0
3DFACE
  5
35F
  8
AUX
 10
12.30977938932643
 20
-35.87988114432723
 30
-8.374988274638394
 11
8.297873649305519
 21
-41.20392019818033
 31
-8.374986534769604
 12
8.297873649305519
 22
-41.20391472436573
 32
8.375013465229497
 13
12.30977938932643
 23
-35.87987567051273
 33
8.375011725360705
  0
3DFACE
  5
360
  8
AUX
 10
12.30977938932643
 20
-35.87987567051273
 30
8.375011725360705
 11
13.90130618195759
 21
-31.6230875208713
 31
8.375010334264067
 12
13.90130618195758
 22
-31.62309299468581
 32
-8.37498966573504
 13
12.30977938932643
 23
-35.87988114432723
 33
-8.374988274638394
  0
3DFACE
  5
361
  8
AUX
 10
13.90130618195758
 20
-31.62309299468581
 30
-8.37498966573504
 11
14.07121586234256
 21
-29.19315817078011
 31
-8.37499045982534
 12
14.07121586234256
 22
-29.1931526969656
 32
8.375009540173762
 13
13.90130618195759
 23
-31.6230875208713
 33
8.375010334264067
  0
3DFACE
  5
362
  8
AUX
 10
14.07121586234256
 20
-29.1931526969656
 30
8.375009540173762
 11
15.85970117736765
 21
-28.16294417349106
 31
8.375009203506876
 12
15.85970117736765
 22
-28.16294964730558
 32
-8.374990796492229
 13
14.07121586234256
 23
-29.19315817078011
 33
-8.37499045982534
  0
3DFACE
  5
363
  8
AUX
 10
15.85970117736765
 20
-28.16294964730558
 30
-8.374990796492229
 11
15.86315807474243
 21
-24.69247795852388
 31
-8.374991930624665
 12
15.86315807474243
 22
-24.69247248470936
 32
8.37500806937444
 13
15.85970117736765
 23
-28.16294417349106
 33
8.375009203506876
  0
3DFACE
  5
364
  8
AUX
 10
15.86315807474244
 20
-24.69247795852393
 30
-8.374991930624663
 11
14.06540236478862
 21
-22.89113722954477
 31
-8.374992519293622
 12
14.06540236478862
 22
-22.89113175573025
 32
8.37500748070548
 13
15.86315807474244
 23
-24.69247248470933
 33
8.375008069374434
  0
3DFACE
  5
4BC
  8
ACESSORIOS
 10
4.010114196317708
 20
-45.14081210079203
 30
-8.374985248213424
 11
1.366100452779008
 21
-45.14081210079203
 31
-8.374985248213424
 12
1.366100452779008
 22
-45.14080662697753
 32
8.375014751785686
 13
4.010114196317708
 23
-45.14080662697753
 33
8.375014751785686
  0
3DFACE
  5
4BD
  8
ACESSORIOS
 10
-12.02980941567029
 20
-36.18010540451053
 30
8.375011823474257
 11
-12.46759335285879
 21
-42.44080662697772
 31
8.375013869439465
 12
-12.46759335285879
 22
-42.44081210079223
 32
-8.374986130559643
 13
-12.02980941567029
 23
-36.18011087832503
 33
-8.374988176524854
  0
3DFACE
  5
4BE
  8
ACESSORIOS
 10
-12.46759335285879
 20
-42.44081210079223
 30
-8.374986130559643
 11
1.366100452779008
 21
-42.44081210079223
 31
-8.374986130559643
 12
1.366100452779008
 22
-42.44080662697772
 32
8.375013869439465
 13
-12.46759335285877
 23
-42.44080662697768
 33
8.375013869439462
  0
3DFACE
  5
4C5
  8
ACESSORIOS
 10
1.478649280881998
 20
21.14538549175724
 30
-8.375006910204515
 11
10.57580886429339
 21
21.14518102936517
 31
-8.3750069101377
 12
10.72806705694202
 22
12.42531288624829
 32
-8.375004060529292
 13
0.916850046782999
 23
13.11138915118919
 33
-8.375004284735512
  0
3DFACE
  5
4C6
  8
ACESSORIOS
 10
0.916850046782999
 20
13.11138915118919
 30
-8.375004284735512
 11
10.72806705694202
 21
12.42531288624829
 31
-8.375004060529292
 12
10.89973537234502
 22
2.593821728857876
 32
-8.375000847648153
 13
-0.2808996170495099
 23
-4.01700090719129
 33
-8.37499868726505
  0
3DFACE
  5
4C7
  8
ACESSORIOS
 10
10.89973537234502
 20
2.593821728857876
 30
-8.375000847648153
 11
10.01009909544077
 21
-22.88052044615674
 31
-8.374992522763135
 12
-1.478649280882031
 22
-21.14539096557177
 32
-8.374993089794595
 13
-0.2808996170495099
 23
-4.01700090719129
 33
-8.37499868726505
  0
3DFACE
  5
4C8
  8
ACESSORIOS
 10
10.63929821929423
 20
17.50912838439246
 30
-8.37500572189425
 11
13.82981738846516
 21
13.56494471662189
 31
-8.375004432955157
 12
11.82878683258673
 22
12.42531288624829
 32
-8.375004060529292
 13
10.72806705694202
 23
12.42531288624829
 33
-8.375004060529292
  0
3DFACE
  5
4C9
  8
ACESSORIOS
 10
13.82981738846516
 20
13.56494471662189
 30
-8.375004432955157
 11
11.82878683258673
 21
12.42531288624829
 31
-8.375004060529292
 12
11.7192677225435
 22
10.44636521727922
 32
-8.375003413819291
 13
13.65131130369229
 23
10.33944187772352
 33
-8.37500337887729
  0
3DFACE
  5
4CA
  8
ACESSORIOS
 10
13.82981738846516
 20
13.5649501904364
 30
8.37499556704395
 11
11.82878683258673
 21
12.42531836006281
 31
8.374995939469814
 12
11.7192677225435
 22
10.44637069109373
 32
8.374996586179813
 13
13.65131130369229
 23
10.33944735153804
 33
8.374996621121815
  0
3DFACE
  5
4CB
  8
ACESSORIOS
 10
13.82981738846516
 20
13.5649501904364
 30
8.37499556704395
 11
10.63929821929423
 21
17.50913385820698
 31
8.374994278104854
 12
10.72806705694202
 22
12.42531836006281
 32
8.374995939469814
 13
11.82878683258673
 23
12.42531836006281
 33
8.374995939469814
  0
3DFACE
  5
4CC
  8
ACESSORIOS
 10
1.478649280881998
 20
21.14539096557176
 30
8.374993089794588
 11
10.57580886429339
 21
21.14518650317968
 31
8.374993089861405
 12
10.72806705694202
 22
12.42531836006281
 32
8.374995939469814
 13
0.9168500467830292
 23
13.11139462500371
 33
8.3749957152636
  0
3DFACE
  5
4CD
  8
ACESSORIOS
 10
0.9168500467830292
 20
13.11139462500371
 30
8.3749957152636
 11
10.72806705694202
 21
12.42531836006281
 31
8.374995939469814
 12
10.89973537234502
 22
2.593827202672394
 32
8.374999152350952
 13
0.0000000000000178
 23
0.0000027369072662
 33
8.374999999999556
  0
3DFACE
  5
4CE
  8
ACESSORIOS
 10
10.89973537234502
 20
2.593827202672394
 30
8.374999152350952
 11
10.01009909544077
 21
-22.88051497234222
 31
8.375007477235972
 12
-1.478649280882031
 22
-21.14538549175726
 32
8.375006910204512
 13
0.0000000000000178
 23
0.0000027369072662
 33
8.374999999999556
  0
3DFACE
  5
501
  8
ACESSORIOS
 10
14.06540236478862
 20
-22.89113175573025
 30
8.37500748070548
 11
15.86315807474243
 21
-24.69247248470936
 31
8.37500806937444
 12
15.85970117736765
 22
-28.16294417349106
 32
8.375009203506876
 13
14.07121586234256
 23
-29.1931526969656
 33
8.375009540173762
  0
3DFACE
  5
502
  8
ACESSORIOS
 10
14.06540236478862
 20
-22.89113722954476
 30
-8.374992519293622
 11
15.86315807474243
 21
-24.69247795852387
 31
-8.374991930624665
 12
15.85970117736765
 22
-28.16294964730557
 32
-8.374990796492229
 13
14.07121586234256
 23
-29.19315817078011
 33
-8.37499045982534
  0
3DFACE
  5
503
  8
ACESSORIOS
 10
-12.46759335285879
 20
-42.44080662697772
 30
8.375013869439465
 11
-12.02980941567029
 21
-36.18010540451053
 31
8.375011823474257
 12
-9.184553167683191
 22
-32.12580743641593
 32
8.375010498550367
 13
-9.184553167683191
 23
-42.44080662697768
 33
8.375013869439462
  0
3DFACE
  5
504
  8
ACESSORIOS
 10
-9.184553167683191
 20
-42.44080662697768
 30
8.375013869439462
 11
-9.184553167683191
 21
-32.12580743641593
 31
8.375010498550367
 12
-7.133851247220591
 22
-30.98646758426193
 32
8.375010126219916
 13
-7.133851247220591
 23
-42.44080662697768
 33
8.375013869439462
  0
3DFACE
  5
505
  8
ACESSORIOS
 10
1.366100452779008
 20
-42.44080662697772
 30
8.375013869439465
 11
8.297873649305519
 21
-41.20391472436573
 31
8.375013465229497
 12
4.010114196317708
 22
-45.14080662697753
 32
8.375014751785686
 13
1.366100452779008
 23
-45.14080662697753
 33
8.375014751785686
  0
3DFACE
  5
506
  8
ACESSORIOS
 10
-7.133851247220591
 20
-42.44080662697768
 30
8.375013869439462
 11
-7.133851247220591
 21
-36.71363710561981
 31
8.375011997829688
 12
12.30977938932643
 22
-35.87987567051273
 32
8.375011725360705
 13
8.297873649305519
 23
-41.20391472436573
 33
8.375013465229497
  0
3DFACE
  5
507
  8
ACESSORIOS
 10
-7.133851247220591
 20
-36.71363710561981
 30
8.375011997829688
 11
-7.133851247220591
 21
-30.98646758426193
 31
8.375010126219916
 12
13.90130618195759
 22
-31.6230875208713
 32
8.375010334264067
 13
12.30977938932643
 23
-35.87987567051273
 33
8.375011725360705
  0
3DFACE
  5
508
  8
ACESSORIOS
 10
10.01009909544077
 20
-22.88051497234222
 30
8.375007477235972
 11
14.06540236478862
 21
-22.89113175573025
 31
8.37500748070548
 12
14.07121586234256
 22
-29.19315269696563
 32
8.375009540173766
 13
13.90130618195759
 23
-31.6230875208713
 33
8.375010334264067
  0
3DFACE
  5
509
  8
ACESSORIOS
 10
10.01009909544077
 20
-22.88051497234222
 30
8.375007477235972
 11
4.265724907279369
 21
-22.01295023204974
 31
8.37500719372024
 12
3.383727467368498
 22
-31.30477755256662
 32
8.37501023024199
 13
13.90130618195759
 23
-31.6230875208713
 33
8.375010334264067
  0
LINE
  5
50A
  8
ACESSORIOS
 10
4.265724907279369
 20
-22.01295023204974
 30
8.37500719372024
 11
3.383727467368498
 21
-31.30477755256662
 31
8.37501023024199
  0
POLYLINE
  5
50B
  8
ACESSORIOS
 66
     1
 10
0.0
 20
0.0
 30
0.0
 70
    16
 71
     2
 72
     7
  0
VERTEX
  5
50C
  8
ACESSORIOS
 10
-1.478649280882031
 20
-21.14538549175726
 30
8.375006910204512
 70
    64
  0
VERTEX
  5
50D
  8
ACESSORIOS
 10
-1.651141066438392
 20
-22.36454164174444
 30
8.70763037200849
 70
    64
  0
VERTEX
  5
50E
  8
ACESSORIOS
 10
-1.937590276407061
 20
-23.58583393413749
 30
8.938301360123099
 70
    64
  0
VERTEX
  5
50F
  8
ACESSORIOS
 10
-2.33959867588387
 20
-24.7880463151589
 30
9.080038471334369
 70
    64
  0
VERTEX
  5
510
  8
ACESSORIOS
 10
-2.854435967332922
 20
-25.95294784894446
 30
9.15211409721854
 70
    64
  0
VERTEX
  5
511
  8
ACESSORIOS
 10
-3.476522865878731
 20
-27.06641971752847
 30
9.177271270564383
 70
    64
  0
VERTEX
  5
512
  8
ACESSORIOS
 10
-4.19869542891411
 20
-28.11810308385816
 30
9.179274220321142
 70
    64
  0
VERTEX
  5
513
  8
ACESSORIOS
 10
4.265724907279369
 20
-22.01295023204974
 30
8.37500719372024
 70
    64
  0
VERTEX
  5
514
  8
ACESSORIOS
 10
4.118725333960889
 20
-23.56158811880255
 30
8.375007699807199
 70
    64
  0
VERTEX
  5
515
  8
ACESSORIOS
 10
3.971725760642409
 20
-25.11022600555536
 30
8.37500820589416
 70
    64
  0
VERTEX
  5
516
  8
ACESSORIOS
 10
3.824726187323929
 20
-26.65886389230818
 30
8.375008711981117
 70
    64
  0
VERTEX
  5
517
  8
ACESSORIOS
 10
3.677726614005458
 20
-28.20750177906099
 30
8.375009218068072
 70
    64
  0
VERTEX
  5
518
  8
ACESSORIOS
 10
3.530727040686978
 20
-29.7561396658138
 30
8.375009724155031
 70
    64
  0
VERTEX
  5
519
  8
ACESSORIOS
 10
3.383727467368498
 20
-31.30477755256662
 30
8.37501023024199
 70
    64
  0
SEQEND
  5
875
  8
ACESSORIOS
  0
LINE
  5
51B
  8
ACESSORIOS
 10
-7.133851247220591
 20
-30.98646758426193
 30
8.375010126219916
 11
3.383727467368498
 21
-31.30477755256662
 31
8.37501023024199
  0
POLYLINE
  5
51C
  8
ACESSORIOS
 66
     1
 10
0.0
 20
0.0
 30
0.0
 70
    16
 71
     2
 72
     7
  0
VERTEX
  5
51D
  8
ACESSORIOS
 10
-7.133851247220591
 20
-30.98646758426193
 30
8.375010126219916
 70
    64
  0
VERTEX
  5
51E
  8
ACESSORIOS
 10
-6.603819731689143
 20
-30.58494034961761
 30
8.60398518712635
 70
    64
  0
VERTEX
  5
51F
  8
ACESSORIOS
 10
-6.086384956910951
 20
-30.15168243415973
 30
8.801735289091074
 70
    64
  0
VERTEX
  5
520
  8
ACESSORIOS
 10
-5.584061320375611
 20
-29.68693788908335
 30
8.963631723325117
 70
    64
  0
VERTEX
  5
521
  8
ACESSORIOS
 10
-5.099712992309712
 20
-29.19173470234813
 30
9.084728512090798
 70
    64
  0
VERTEX
  5
522
  8
ACESSORIOS
 10
-4.636693420128022
 20
-28.66774825131118
 30
9.158776907111546
 70
    64
  0
VERTEX
  5
523
  8
ACESSORIOS
 10
-4.198695428914093
 20
-28.11810308385813
 30
9.179274220321146
 70
    64
  0
VERTEX
  5
524
  8
ACESSORIOS
 10
-7.133851247220591
 20
-30.98646758426193
 30
8.375010126219916
 70
    64
  0
VERTEX
  5
525
  8
ACESSORIOS
 10
-5.380921461455742
 20
-31.03951924564604
 30
8.375010143556928
 70
    64
  0
VERTEX
  5
526
  8
ACESSORIOS
 10
-3.627991675690893
 20
-31.09257090703016
 30
8.375010160893941
 70
    64
  0
VERTEX
  5
527
  8
ACESSORIOS
 10
-1.875061889926041
 20
-31.14562256841427
 30
8.375010178230955
 70
    64
  0
VERTEX
  5
528
  8
ACESSORIOS
 10
-0.1221321041611922
 20
-31.19867422979839
 30
8.375010195567965
 70
    64
  0
VERTEX
  5
529
  8
ACESSORIOS
 10
1.630797681603648
 20
-31.2517258911825
 30
8.375010212904979
 70
    64
  0
VERTEX
  5
52A
  8
ACESSORIOS
 10
3.383727467368498
 20
-31.30477755256662
 30
8.37501023024199
 70
    64
  0
SEQEND
  5
876
  8
ACESSORIOS
  0
3DFACE
  5
5A6
  8
ACESSORIOS
 10
8.297873649305519
 20
-41.20391472436573
 30
8.375013465229497
 11
-7.133851247220591
 21
-42.44080662697768
 31
8.375013869439462
 12
1.366100452779008
 22
-42.44080662697772
 32
8.375013869439465
 13
4.831987051042269
 23
-41.82236067567173
 33
8.375013667334482
  0
LINE
  5
6FB
  8
AUX
 10
-9.184553167683191
 20
-32.12581291023043
 30
-8.374989501448734
 11
-12.02980941567029
 21
-36.18011087832503
 31
-8.374988176524854
  0
LINE
  5
6FC
  8
AUX
 10
-12.02980941567029
 20
-36.18010540451053
 30
8.375011823474257
 11
-9.184553167683191
 21
-32.12580743641593
 31
8.375010498550367
  0
3DFACE
  5
6FD
  8
AUX
 10
1.478649280881998
 20
21.14538549175724
 30
-8.375006910204515
 11
-1.478649280882031
 21
-21.14539096557177
 31
-8.374993089794595
 12
-1.478649280881992
 22
-21.14538549175723
 32
8.375006910204517
 13
1.478649280882028
 23
21.14539096557176
 33
8.374993089794595
  0
3DFACE
  5
782
  8
AUX
 10
-7.133851247220591
 20
-30.98646758426193
 30
8.375010126219916
 11
-7.133851247220591
 21
-30.98647305807643
 31
-8.374989873779183
 12
-9.184553167683191
 22
-32.12581291023043
 32
-8.374989501448734
 13
-9.18455316768318
 23
-32.12580743641595
 33
8.375010498550365
  0
3DFACE
  5
783
  8
AUX
 10
-9.184553167683191
 20
-32.12581291023043
 30
-8.374989501448734
 11
-12.02980941567028
 21
-36.18011087832502
 31
-8.374988176524852
 12
-12.02980941567028
 22
-36.18010540451049
 32
8.375011823474253
 13
-9.18455316768318
 23
-32.12580743641595
 33
8.375010498550365
  0
3DFACE
  5
784
  8
AUX
 10
10.57580886429339
 20
21.14518650317968
 30
8.374993089861405
 11
10.57580886429339
 21
21.14518102936517
 31
-8.3750069101377
 12
1.478649280881998
 22
21.14538549175724
 32
-8.375006910204515
 13
1.478649280882028
 23
21.14539096557176
 33
8.374993089794595
  0
POLYLINE
  5
799
  8
ACESSORIOS
 66
     1
 10
0.0
 20
0.0
 30
0.0
 70
    16
 71
     2
 72
     7
  0
VERTEX
  5
79A
  8
ACESSORIOS
 10
-1.478649280882031
 20
-21.14539096557177
 30
-8.374993089794593
 70
    64
  0
VERTEX
  5
79B
  8
ACESSORIOS
 10
-1.651141066438392
 20
-22.36454711555895
 30
-8.042369627990615
 70
    64
  0
VERTEX
  5
79C
  8
ACESSORIOS
 10
-1.937590276407061
 20
-23.585839407952
 30
-7.811698639876008
 70
    64
  0
VERTEX
  5
79D
  8
ACESSORIOS
 10
-2.33959867588387
 20
-24.78805178897341
 30
-7.669961528664736
 70
    64
  0
VERTEX
  5
79E
  8
ACESSORIOS
 10
-2.854435967332922
 20
-25.95295332275897
 30
-7.597885902780565
 70
    64
  0
VERTEX
  5
79F
  8
ACESSORIOS
 10
-3.476522865878731
 20
-27.06642519134298
 30
-7.572728729434722
 70
    64
  0
VERTEX
  5
7A0
  8
ACESSORIOS
 10
-4.19869542891411
 20
-28.11810855767267
 30
-7.570725779677963
 70
    64
  0
VERTEX
  5
7A1
  8
ACESSORIOS
 10
4.265724907279369
 20
-22.01295570586425
 30
-8.374992806278865
 70
    64
  0
VERTEX
  5
7A2
  8
ACESSORIOS
 10
4.118725333960889
 20
-23.56159359261706
 30
-8.374992300191906
 70
    64
  0
VERTEX
  5
7A3
  8
ACESSORIOS
 10
3.971725760642409
 20
-25.11023147936987
 30
-8.374991794104945
 70
    64
  0
VERTEX
  5
7A4
  8
ACESSORIOS
 10
3.824726187323929
 20
-26.65886936612269
 30
-8.374991288017988
 70
    64
  0
VERTEX
  5
7A5
  8
ACESSORIOS
 10
3.677726614005458
 20
-28.2075072528755
 30
-8.374990781931032
 70
    64
  0
VERTEX
  5
7A6
  8
ACESSORIOS
 10
3.530727040686978
 20
-29.75614513962831
 30
-8.374990275844073
 70
    64
  0
VERTEX
  5
7A7
  8
ACESSORIOS
 10
3.383727467368498
 20
-31.30478302638113
 30
-8.374989769757114
 70
    64
  0
SEQEND
  5
877
  8
ACESSORIOS
  0
POLYLINE
  5
7A9
  8
ACESSORIOS
 66
     1
 10
0.0
 20
0.0
 30
0.0
 70
    16
 71
     2
 72
     7
  0
VERTEX
  5
7AA
  8
ACESSORIOS
 10
-7.133851247220591
 20
-30.98647305807644
 30
-8.374989873779189
 70
    64
  0
VERTEX
  5
7AB
  8
ACESSORIOS
 10
-6.603819731689143
 20
-30.58494582343212
 30
-8.146014812872755
 70
    64
  0
VERTEX
  5
7AC
  8
ACESSORIOS
 10
-6.086384956910951
 20
-30.15168790797424
 30
-7.948264710908031
 70
    64
  0
VERTEX
  5
7AD
  8
ACESSORIOS
 10
-5.584061320375611
 20
-29.68694336289786
 30
-7.786368276673988
 70
    64
  0
VERTEX
  5
7AE
  8
ACESSORIOS
 10
-5.099712992309712
 20
-29.19174017616264
 30
-7.665271487908306
 70
    64
  0
VERTEX
  5
7AF
  8
ACESSORIOS
 10
-4.636693420128022
 20
-28.66775372512569
 30
-7.591223092887558
 70
    64
  0
VERTEX
  5
7B0
  8
ACESSORIOS
 10
-4.198695428914093
 20
-28.11810855767264
 30
-7.570725779677959
 70
    64
  0
VERTEX
  5
7B1
  8
ACESSORIOS
 10
-7.133851247220591
 20
-30.98647305807644
 30
-8.374989873779189
 70
    64
  0
VERTEX
  5
7B2
  8
ACESSORIOS
 10
-5.380921461455742
 20
-31.03952471946055
 30
-8.374989856442177
 70
    64
  0
VERTEX
  5
7B3
  8
ACESSORIOS
 10
-3.627991675690893
 20
-31.09257638084467
 30
-8.374989839105163
 70
    64
  0
VERTEX
  5
7B4
  8
ACESSORIOS
 10
-1.875061889926041
 20
-31.14562804222878
 30
-8.37498982176815
 70
    64
  0
VERTEX
  5
7B5
  8
ACESSORIOS
 10
-0.1221321041611922
 20
-31.1986797036129
 30
-8.37498980443114
 70
    64
  0
VERTEX
  5
7B6
  8
ACESSORIOS
 10
1.630797681603648
 20
-31.25173136499701
 30
-8.374989787094126
 70
    64
  0
VERTEX
  5
7B7
  8
ACESSORIOS
 10
3.383727467368498
 20
-31.30478302638113
 30
-8.374989769757114
 70
    64
  0
SEQEND
  5
878
  8
ACESSORIOS
  0
3DFACE
  5
7B9
  8
AUX
 10
-1.478649280882031
 20
-21.14539096557177
 30
-8.374993089794593
 11
-1.651141066438392
 21
-22.36454711555895
 31
-8.042369627990615
 12
-1.651141066438392
 22
-22.36454164174444
 32
8.70763037200849
 13
-1.478649280882031
 23
-21.14538549175726
 33
8.375006910204512
  0
3DFACE
  5
7BA
  8
AUX
 10
-1.651141066438392
 20
-22.36454164174444
 30
8.70763037200849
 11
-1.937590276407061
 21
-23.58583393413749
 31
8.938301360123099
 12
-1.937590276407061
 22
-23.585839407952
 32
-7.811698639876008
 13
-1.651141066438392
 23
-22.36454711555895
 33
-8.042369627990615
  0
3DFACE
  5
7BB
  8
AUX
 10
-1.937590276407061
 20
-23.585839407952
 30
-7.811698639876008
 11
-2.33959867588387
 21
-24.78805178897341
 31
-7.669961528664736
 12
-2.33959867588387
 22
-24.7880463151589
 32
9.080038471334369
 13
-1.937590276407061
 23
-23.58583393413749
 33
8.938301360123099
  0
3DFACE
  5
7BC
  8
AUX
 10
-2.33959867588387
 20
-24.7880463151589
 30
9.080038471334369
 11
-2.33959867588387
 21
-24.78805178897341
 31
-7.669961528664736
 12
-2.854435967332922
 22
-25.95295332275897
 32
-7.597885902780565
 13
-2.854435967332922
 23
-25.95294784894446
 33
9.15211409721854
  0
3DFACE
  5
7BD
  8
AUX
 10
-2.854435967332922
 20
-25.95294784894446
 30
9.15211409721854
 11
-3.476522865878731
 21
-27.06641971752847
 31
9.177271270564383
 12
-3.476522865878731
 22
-27.06642519134298
 32
-7.572728729434722
 13
-2.854435967332922
 23
-25.95295332275897
 33
-7.597885902780565
  0
3DFACE
  5
7BE
  8
AUX
 10
-3.476522865878731
 20
-27.06642519134298
 30
-7.572728729434722
 11
-4.19869542891411
 21
-28.11810855767267
 31
-7.570725779677963
 12
-4.19869542891411
 22
-28.11810308385816
 32
9.179274220321142
 13
-3.476522865878731
 23
-27.06641971752847
 33
9.177271270564383
  0
3DFACE
  5
7BF
  8
ACESSORIOS
 10
-6.603819731689143
 20
-30.58494034961761
 30
8.60398518712635
 11
-7.133851247220591
 21
-30.98646758426193
 31
8.375010126219916
 12
-7.133851247220591
 22
-30.98647305807644
 32
-8.374989873779189
 13
-6.603819731689143
 23
-30.58494582343212
 33
-8.146014812872755
  0
3DFACE
  5
7C0
  8
ACESSORIOS
 10
-6.603819731689143
 20
-30.58494034961761
 30
8.60398518712635
 11
-6.603819731689143
 21
-30.58494582343212
 31
-8.146014812872755
 12
-6.086384956910951
 22
-30.15168790797424
 32
-7.948264710908031
 13
-6.086384956910951
 23
-30.15168243415973
 33
8.801735289091074
  0
3DFACE
  5
7C1
  8
ACESSORIOS
 10
-6.086384956910951
 20
-30.15168790797424
 30
-7.948264710908031
 11
-6.086384956910951
 21
-30.15168243415973
 31
8.801735289091074
 12
-5.584061320375611
 22
-29.68693788908335
 32
8.963631723325117
 13
-5.584061320375611
 23
-29.68694336289786
 33
-7.786368276673988
  0
3DFACE
  5
7C2
  8
ACESSORIOS
 10
-5.584061320375611
 20
-29.68693788908335
 30
8.963631723325117
 11
-5.584061320375611
 21
-29.68694336289786
 31
-7.786368276673988
 12
-5.099712992309712
 22
-29.19174017616264
 32
-7.665271487908306
 13
-5.099712992309712
 23
-29.19173470234813
 33
9.084728512090798
  0
3DFACE
  5
7C3
  8
ACESSORIOS
 10
-5.099712992309712
 20
-29.19174017616264
 30
-7.665271487908306
 11
-5.099712992309712
 21
-29.19173470234813
 31
9.084728512090798
 12
-4.636693420128022
 22
-28.66774825131118
 32
9.158776907111546
 13
-4.636693420128022
 23
-28.66775372512569
 33
-7.591223092887558
  0
3DFACE
  5
7C4
  8
ACESSORIOS
 10
-4.636693420128022
 20
-28.66774825131118
 30
9.158776907111546
 11
-4.636693420128022
 21
-28.66775372512569
 31
-7.591223092887558
 12
-4.19869542891411
 22
-28.11810855767267
 32
-7.570725779677963
 13
-4.19869542891411
 23
-28.11810308385816
 33
9.179274220321142
  0
3DFACE
  5
7C5
  8
ACESSORIOS
 10
10.01009909544077
 20
-22.88052044615672
 30
-8.37499252276314
 11
4.265724907279369
 21
-22.01295570586424
 31
-8.374992806278872
 12
3.383727467368498
 22
-31.30478302638112
 32
-8.374989769757121
 13
13.90130618195759
 23
-31.6230929946858
 33
-8.374989665735045
  0
3DFACE
  5
7C6
  8
ACESSORIOS
 10
-7.133851247220591
 20
-36.71364257943431
 30
-8.374988002169424
 11
-7.133851247220591
 21
-30.98647305807643
 31
-8.374989873779196
 12
13.90130618195759
 22
-31.6230929946858
 32
-8.374989665735045
 13
12.30977938932643
 23
-35.87988114432723
 33
-8.374988274638406
  0
3DFACE
  5
7C7
  8
ACESSORIOS
 10
10.01009909544077
 20
-22.88052044615672
 30
-8.37499252276314
 11
14.06540236478862
 21
-22.89113722954475
 31
-8.374992519293631
 12
14.07121586234256
 22
-29.19315817078013
 32
-8.374990459825346
 13
13.90130618195759
 23
-31.6230929946858
 33
-8.374989665735045
  0
3DFACE
  5
7C8
  8
ACESSORIOS
 10
-7.133851247220591
 20
-42.44081210079219
 30
-8.37498613055965
 11
-7.133851247220591
 21
-36.71364257943431
 31
-8.374988002169424
 12
12.30977938932643
 22
-35.87988114432723
 32
-8.374988274638406
 13
8.297873649305519
 23
-41.20392019818023
 33
-8.374986534769615
  0
3DFACE
  5
7C9
  8
ACESSORIOS
 10
-9.184553167683191
 20
-42.44081210079219
 30
-8.37498613055965
 11
-9.184553167683191
 21
-32.12581291023043
 31
-8.374989501448745
 12
-7.133851247220591
 22
-30.98647305807643
 32
-8.374989873779196
 13
-7.133851247220591
 23
-42.44081210079219
 33
-8.37498613055965
  0
3DFACE
  5
7CA
  8
ACESSORIOS
 10
-12.46759335285879
 20
-42.44081210079221
 30
-8.374986130559646
 11
-12.02980941567029
 21
-36.18011087832503
 31
-8.374988176524855
 12
-9.184553167683191
 22
-32.12581291023043
 32
-8.374989501448745
 13
-9.184553167683191
 23
-42.44081210079219
 33
-8.37498613055965
  0
3DFACE
  5
7F8
  8
ACESSORIOS
 10
1.366100452779008
 20
-42.44080662697772
 30
8.375013869439465
 11
1.366100452779008
 21
-45.14080662697753
 31
8.375014751785686
 12
1.366100452779008
 22
-45.14081210079203
 32
-8.374985248213424
 13
1.366100452779008
 23
-42.44081210079223
 33
-8.374986130559643
  0
LINE
  5
7F9
  8
ACESSORIOS
 10
-1.47864928088201
 20
-21.1453882286645
 30
0.0000069102049607
 11
1.478649280882014
 21
21.1453882286645
 31
-0.0000069102049607
  0
3DFACE
  5
815
  8
CINZA
 10
-0.9582910788129397
 20
9.321735584566325
 30
0.6014900897950413
 11
-0.9187938979992258
 21
9.676543945104472
 31
-0.1815069102049605
 12
-0.9041898983706254
 22
9.807733591017742
 32
-0.1815069102049605
 13
-0.9612782605551519
 23
9.294901338811352
 33
1.429487089795041
 70
    10
  0
3DFACE
  5
816
  8
CINZA
 10
-0.9612782605551519
 20
9.294901338811352
 30
1.429487089795041
 11
-1.084084621068378
 21
8.191715679995273
 31
1.663490089795039
 12
-1.019362349987085
 22
8.77312433801995
 32
0.727487089795043
 13
-0.9582910788129397
 23
9.321735584566325
 33
0.6014900897950413
 70
    10
  0
3DFACE
  5
817
  8
CINZA
 10
-1.019362349987085
 20
8.77312433801995
 30
0.727487089795043
 11
-1.040936440347516
 21
8.579321452011726
 31
0.301487089795041
 12
-1.183989254891304
 22
7.294259238634056
 32
0.8144870897950427
 13
-1.084084621068378
 23
8.191715679995273
 33
1.663490089795039
 70
    10
  0
3DFACE
  5
818
  8
CINZA
 10
-1.040936440347516
 20
8.579321452011726
 30
0.301487089795041
 11
-1.025336713471512
 21
8.719455846509977
 31
-0.1365099102049618
 12
-1.154117437469166
 22
7.562601696183926
 32
-0.2355099102049549
 13
-1.183989254891304
 23
7.294259238634056
 33
0.8144870897950427
 70
    10
  0
3DFACE
  5
819
  8
CINZA
 10
-0.9987839868740565
 20
8.957982475443194
 30
-0.4215099102049584
 11
-0.9639335332148974
 21
9.27104867591803
 31
-0.5685099102049604
 12
-1.00542216852342
 22
8.898350818209892
 32
-1.567512910204959
 13
-1.097692893449576
 23
8.069470782666986
 33
-1.054509910204958
 70
    10
  0
3DFACE
  5
81A
  8
CINZA
 10
-1.293851161188268
 20
6.307355311422936
 30
2.773490089795042
 11
-1.423959521515801
 21
5.138574829650167
 31
2.773490089795042
 12
-1.275596161652522
 22
6.471342368814481
 32
-1.444509910204958
 13
-1.14482398316006
 23
7.646086016310524
 33
-1.444509910204958
  0
3DFACE
  5
81B
  8
CINZA
 10
-1.025336713471512
 20
8.719455846509977
 30
-0.1365099102049618
 11
-0.9987839868740565
 21
8.957982475443194
 31
-0.4215099102049584
 12
-1.097692893449576
 22
8.069470782666986
 32
-1.054509910204958
 13
-1.154117437469166
 23
7.562601696183926
 33
-0.2355099102049549
 70
    10
  0
3DFACE
  5
81C
  8
CINZA
 10
-0.8779690808556393
 20
10.04327863708928
 30
2.773490089795042
 11
-1.008077441183166
 21
8.874498155316568
 31
2.773490089795042
 12
-0.8600459904023567
 22
10.2042841116192
 32
-1.444509910204958
 13
-0.7292738119098904
 23
11.37902775911528
 33
-1.444509910204958
  0
3DFACE
  5
81D
  8
CINZA
 10
-0.9041898983706254
 20
9.807733591017742
 30
-0.1815069102049605
 11
-0.9187938979992258
 21
9.676543945104472
 31
-0.1815069102049605
 12
-0.8985474439686643
 22
9.858420499666066
 32
-1.375512910204955
 13
-0.8683437174640601
 23
10.12974454007759
 33
-1.20750991020496
 70
     3
  0
3DFACE
  5
81E
  8
CINZA
 10
-0.9639335332148974
 20
9.27104867591803
 30
-0.5685099102049604
 11
-0.9187938979992258
 21
9.676543945104472
 31
-0.1815069102049605
 12
-0.8985474439686643
 22
9.858420499666066
 32
-1.375512910204955
 13
-1.00542216852342
 23
8.898350818209892
 33
-1.567512910204959
 70
    10
  0
3DFACE
  5
81F
  8
PRETO
 10
-1.812790854859705
 20
-5.727111234436681
 30
4.516493089795039
 11
-1.812790854859705
 21
-5.727111234436681
 31
-4.516506910204962
 12
0.4307892469465835
 22
14.42726336288921
 32
-4.516506910204962
 13
1.178649280882013
 23
21.1453882286645
 33
4.516493089795039
  0
3DFACE
  5
820
  8
CINZA
 10
-1.455158975267806
 20
4.858306040653693
 30
-1.423506910204958
 11
-1.556723154503073
 21
3.945941684984133
 31
-1.093509910204959
 12
-1.585064871055031
 22
3.691344324426551
 32
-0.2947269102049588
 13
-1.541123427627067
 23
4.086076079482412
 33
-0.5745129102049602
 70
    10
  0
3DFACE
  5
821
  8
CINZA
 10
-1.362224432176714
 20
5.693149241919927
 30
-1.111509910204963
 11
-1.455158975267806
 21
4.858306040653693
 31
-1.423506910204958
 12
-1.541123427627067
 22
4.086076079482412
 32
-0.5745129102049602
 13
-1.505609155802968
 23
4.405105445680606
 33
-0.5745129102049602
 70
    10
  0
3DFACE
  5
822
  8
CINZA
 10
-1.355254341444887
 20
5.755762482014855
 30
-0.448512910204959
 11
-1.362224432176714
 21
5.693149241919927
 31
-1.111509910204963
 12
-1.505609155802968
 22
4.405105445680606
 32
-0.5745129102049602
 13
-1.492332792504244
 23
4.524368760147186
 33
-0.286509910204964
 70
    10
  0
3DFACE
  5
823
  8
CINZA
 10
-1.432921066742438
 20
5.058072092385248
 30
1.627487089795042
 11
-1.563029427069965
 21
3.889291610612535
 31
1.627487089795042
 12
-1.492332792504244
 22
4.524368760147186
 32
-0.286509910204964
 13
-1.355254341444887
 23
5.755762482014855
 33
-0.448512910204959
 70
     4
  0
3DFACE
  5
824
  8
CINZA
 10
-1.81627605699319
 20
1.614343887162039
 30
1.627487089795042
 11
-1.947048235485653
 21
0.439600239665996
 31
1.627487089795042
 12
-1.838845874601028
 22
1.411596252568804
 32
-1.444509910204958
 13
-1.708073696108565
 23
2.586339900064847
 33
-1.444509910204958
  0
3DFACE
  5
825
  8
CINZA
 10
-1.652976788418847
 20
3.081282655101246
 30
1.627487089795042
 11
-1.783085148746371
 21
1.912502173328561
 31
1.627487089795042
 12
-1.675214696944212
 22
2.881516603369718
 32
-1.444509910204958
 13
-1.544442518451746
 23
4.056260250865789
 33
-1.444509910204958
  0
3DFACE
  5
826
  8
CINZA
 10
-1.988204961711713
 20
0.0698839648194797
 30
1.555487089795042
 11
-2.10868795864766
 21
-1.012430613964927
 31
1.59748708979504
 12
-2.000820825936327
 22
-0.0434459997523968
 32
0.607487089795042
 13
-1.946052508238253
 23
0.4485449882509494
 33
0.7394870897950434
 70
    10
  0
3DFACE
  5
827
  8
CINZA
 10
-1.934439009442691
 20
0.5528705725806203
 30
1.279487089795043
 11
-1.988204961711713
 21
0.0698839648194797
 31
1.555487089795042
 12
-1.946052508238253
 22
0.4485449882509494
 32
0.7394870897950434
 13
-1.90555960017713
 23
0.8122980973741352
 33
0.4454900897950425
 70
    10
  0
3DFACE
  5
828
  8
CINZA
 10
-2.000820825936327
 20
-0.0434459997523968
 30
0.607487089795042
 11
-2.002145143175377
 21
-0.0553425153704598
 31
0.4454900897950425
 12
-2.154332095668686
 22
-1.422457889101127
 32
1.214999089795042
 13
-2.10868795864766
 23
-1.012430613964927
 33
1.59748708979504
 70
    10
  0
3DFACE
  5
829
  8
CINZA
 10
-2.13291732166784
 20
-1.230086162866503
 30
0.4454900897950425
 11
-2.182703684038069
 21
-1.677323592116287
 31
0.7634900897950367
 12
-2.23116241007842
 22
-2.112634689919353
 32
1.603487089795044
 13
-2.002145143175377
 23
-0.0553425153704598
 33
0.4454900897950425
 70
    10
  0
3DFACE
  5
82A
  8
CINZA
 10
-2.182703684038069
 20
-1.677323592116287
 30
0.7634900897950367
 11
-2.224192319346592
 21
-2.050021449824426
 31
0.607487089795042
 12
-2.338369043715645
 22
-3.075685954237207
 32
1.474487089795046
 13
-2.23116241007842
 23
-2.112634689919353
 33
1.603487089795044
 70
    10
  0
3DFACE
  5
82B
  8
CINZA
 10
-2.224192319346592
 20
-2.050021449824426
 30
0.607487089795042
 11
-2.221537046686846
 21
-2.026168786931104
 31
0.3314900897950417
 12
-2.356292134168928
 22
-3.236691428767129
 32
0.4454900897950425
 13
-2.338369043715645
 23
-3.075685954237207
 33
1.474487089795046
 70
    10
  0
3DFACE
  5
82C
  8
CINZA
 10
-2.221537046686846
 20
-2.026168786931104
 30
0.3314900897950417
 11
-2.356292134168928
 21
-3.236691428767129
 31
0.4454900897950425
 12
-2.285263590520734
 22
-2.598632696370771
 32
-1.444509910204958
 13
-2.155155230193207
 23
-1.429852214598059
 33
-1.444509910204958
 70
     1
  0
3DFACE
  5
82D
  8
CINZA
 10
-2.002145143175377
 20
-0.0553425153704598
 30
0.4454900897950425
 11
-2.13291732166784
 21
-1.230086162866503
 31
0.4454900897950425
 12
-2.062220687102119
 22
-0.5950090133318517
 32
-1.444509910204958
 13
-1.931448508609653
 23
0.5797346341642192
 33
-1.444509910204958
 70
     1
  0
3DFACE
  5
862
  8
PRETO
 10
-1.514632568693192
 20
-5.760302142683499
 30
4.516493089795039
 11
-1.514632568693192
 21
-5.760302142683499
 31
-4.516506910204962
 12
0.7289475331130963
 22
14.39407245464239
 32
-4.516506910204962
 13
1.476807567048526
 23
21.11219732041768
 33
4.516493089795039
  0
ENDSEC
  0
EOF
