  0
SECTION
  2
HEADER
  9
$ACADVER
  1
AC1009
  9
$INSBASE
 10
0.0
 20
0.0
 30
0.0
  9
$EXTMIN
 10
-554.89322781480882
 20
-16.999900000009799
 30
-7.9282028999999978
  9
$EXTMAX
 10
553.10677218519106
 20
13.0
 30
1.0
  9
$LIMMIN
 10
0.0
 20
0.0
  9
$LIMMAX
 10
420.0
 20
297.0
  9
$ORTHOMODE
 70
     1
  9
$REGENMODE
 70
     1
  9
$FILLMODE
 70
     1
  9
$QTEXTMODE
 70
     0
  9
$MIRRTEXT
 70
     0
  9
$DRAGMODE
 70
     2
  9
$LTSCALE
 40
1.0
  9
$OSMODE
 70
   759
  9
$ATTMODE
 70
     1
  9
$TEXTSIZE
 40
2.5
  9
$TRACEWID
 40
1.0
  9
$TEXTSTYLE
  7
STANDARD
  9
$CLAYER
  8
0
  9
$CELTYPE
  6
BYLAYER
  9
$CECOLOR
 62
   256
  9
$DIMSCALE
 40
1.0
  9
$DIMASZ
 40
2.5
  9
$DIMEXO
 40
0.625
  9
$DIMDLI
 40
3.75
  9
$DIMRND
 40
0.0
  9
$DIMDLE
 40
0.0
  9
$DIMEXE
 40
1.25
  9
$DIMTP
 40
0.0
  9
$DIMTM
 40
0.0
  9
$DIMTXT
 40
2.5
  9
$DIMCEN
 40
2.5
  9
$DIMTSZ
 40
0.0
  9
$DIMTOL
 70
     0
  9
$DIMLIM
 70
     0
  9
$DIMTIH
 70
     0
  9
$DIMTOH
 70
     0
  9
$DIMSE1
 70
     0
  9
$DIMSE2
 70
     0
  9
$DIMTAD
 70
     1
  9
$DIMZIN
 70
     8
  9
$DIMBLK
  1

  9
$DIMASO
 70
     1
  9
$DIMSHO
 70
     1
  9
$DIMPOST
  1

  9
$DIMAPOST
  1

  9
$DIMALT
 70
     0
  9
$DIMALTD
 70
     3
  9
$DIMALTF
 40
0.03937007874016
  9
$DIMLFAC
 40
1.0
  9
$DIMTOFL
 70
     1
  9
$DIMTVP
 40
0.0
  9
$DIMTIX
 70
     0
  9
$DIMSOXD
 70
     0
  9
$DIMSAH
 70
     0
  9
$DIMBLK1
  1

  9
$DIMBLK2
  1

  9
$DIMSTYLE
  2
ISO-25
  9
$DIMCLRD
 70
     0
  9
$DIMCLRE
 70
     0
  9
$DIMCLRT
 70
     0
  9
$DIMTFAC
 40
1.0
  9
$DIMGAP
 40
0.625
  9
$LUNITS
 70
     2
  9
$LUPREC
 70
     4
  9
$SKETCHINC
 40
1.0
  9
$FILLETRAD
 40
0.0
  9
$AUNITS
 70
     0
  9
$AUPREC
 70
     0
  9
$MENU
  1
.
  9
$ELEVATION
 40
0.0
  9
$PELEVATION
 40
0.0
  9
$THICKNESS
 40
0.0
  9
$LIMCHECK
 70
     0
  9
$BLIPMODE
 70
     0
  9
$CHAMFERA
 40
0.0
  9
$CHAMFERB
 40
0.0
  9
$SKPOLY
 70
     0
  9
$TDCREATE
 40
2457494.6130830329
  9
$TDUPDATE
 40
2457494.6227825931
  9
$TDINDWG
 40
0.005249838
  9
$TDUSRTIMER
 40
0.0052498148
  9
$USRTIMER
 70
     1
  9
$ANGBASE
 50
0.0
  9
$ANGDIR
 70
     0
  9
$PDMODE
 70
     0
  9
$PDSIZE
 40
0.0
  9
$PLINEWID
 40
0.0
  9
$COORDS
 70
     1
  9
$SPLFRAME
 70
     0
  9
$SPLINETYPE
 70
     6
  9
$SPLINESEGS
 70
     8
  9
$ATTDIA
 70
     0
  9
$ATTREQ
 70
     1
  9
$HANDLING
 70
     1
  9
$HANDSEED
  5
393
  9
$SURFTAB1
 70
     6
  9
$SURFTAB2
 70
     6
  9
$SURFTYPE
 70
     6
  9
$SURFU
 70
     6
  9
$SURFV
 70
     6
  9
$UCSNAME
  2

  9
$UCSORG
 10
0.0
 20
0.0
 30
0.0
  9
$UCSXDIR
 10
1.0
 20
0.0
 30
0.0
  9
$UCSYDIR
 10
0.0
 20
1.0
 30
0.0
  9
$PUCSNAME
  2

  9
$PUCSORG
 10
0.0
 20
0.0
 30
0.0
  9
$PUCSXDIR
 10
1.0
 20
0.0
 30
0.0
  9
$PUCSYDIR
 10
0.0
 20
1.0
 30
0.0
  9
$USERI1
 70
     0
  9
$USERI2
 70
     0
  9
$USERI3
 70
     0
  9
$USERI4
 70
     0
  9
$USERI5
 70
     0
  9
$USERR1
 40
0.0
  9
$USERR2
 40
0.0
  9
$USERR3
 40
0.0
  9
$USERR4
 40
0.0
  9
$USERR5
 40
0.0
  9
$WORLDVIEW
 70
     1
  9
$SHADEDGE
 70
     3
  9
$SHADEDIF
 70
    70
  9
$TILEMODE
 70
     1
  9
$MAXACTVP
 70
    64
  9
$PLIMCHECK
 70
     0
  9
$PEXTMIN
 10
0.0
 20
0.0
 30
0.0
  9
$PEXTMAX
 10
0.0
 20
0.0
 30
0.0
  9
$PLIMMIN
 10
0.0
 20
0.0
  9
$PLIMMAX
 10
12.0
 20
9.0
  9
$UNITMODE
 70
     0
  9
$VISRETAIN
 70
     1
  9
$PLINEGEN
 70
     0
  9
$PSLTSCALE
 70
     1
  0
ENDSEC
  0
SECTION
  2
TABLES
  0
TABLE
  2
VPORT
 70
     1
  0
VPORT
  2
*ACTIVE
 70
     0
 10
0.0
 20
0.0
 11
1.0
 21
1.0
 12
147.65016186245151
 22
-99.695606299927817
 13
0.0
 23
0.0
 14
10.0
 24
10.0
 15
10.0
 25
10.0
 16
37.960402491760313
 26
-16.951659715596289
 36
10.25390505504901
 17
-61.411787068253282
 27
-199.13315604569121
 37
118.7783915389724
 40
351.7965424245599
 41
2.5463320463320458
 42
50.0
 43
0.0
 44
0.0
 50
0.0
 51
0.0000000000000018
 71
     0
 72
  1000
 73
     1
 74
     3
 75
     0
 76
     1
 77
     0
 78
     0
  0
ENDTAB
  0
TABLE
  2
LTYPE
 70
     2
  0
LTYPE
  2
CONTINUOUS
 70
     0
  3
Solid line
 72
    65
 73
     0
 40
0.0
  0
LTYPE
  2
PHANTOM2
 70
     0
  3
Phantom (.5x) ___ _ _ ___ _ _ ___ _ _ ___ _ _
 72
    65
 73
     6
 40
1.25
 49
0.625
 49
-0.125
 49
0.125
 49
-0.125
 49
0.125
 49
-0.125
  0
ENDTAB
  0
TABLE
  2
LAYER
 70
     2
  0
LAYER
  2
0
 70
     0
 62
     7
  6
CONTINUOUS
  0
LAYER
  2
BRANCO
 70
     0
 62
     6
  6
CONTINUOUS
  0
ENDTAB
  0
TABLE
  2
STYLE
 70
     2
  0
STYLE
  2
STANDARD
 70
     0
 40
0.0
 41
1.0
 50
0.0
 71
     0
 42
2.5
  3
txt
  4

  0
STYLE
  2
ANNOTATIVE
 70
     0
 40
0.0
 41
1.0
 50
0.0
 71
     0
 42
2.5
  3
txt
  4

  0
ENDTAB
  0
TABLE
  2
VIEW
 70
     0
  0
ENDTAB
  0
TABLE
  2
UCS
 70
     0
  0
ENDTAB
  0
TABLE
  2
APPID
 70
     8
  0
APPID
  2
ACAD
 70
     0
  0
APPID
  2
ACAD_PSEXT
 70
     0
  0
APPID
  2
ACADANNOPO
 70
     0
  0
APPID
  2
ACADANNOTATIVE
 70
     0
  0
APPID
  2
ACAD_DSTYLE_DIMJAG
 70
     0
  0
APPID
  2
ACAD_DSTYLE_DIMTALN
 70
     0
  0
APPID
  2
ACAD_MLEADERVER
 70
     0
  0
APPID
  2
ACAD_NAV_VCDISPLAY
 70
     0
  0
ENDTAB
  0
TABLE
  2
DIMSTYLE
 70
     3
  0
DIMSTYLE
  2
STANDARD
 70
     0
  3

  4

  5

  6

  7

 40
1.0
 41
0.18
 42
0.0625
 43
0.38
 44
0.18
 45
0.0
 46
0.0
 47
0.0
 48
0.0
140
0.18
141
0.09
142
0.0
143
25.399999999999999
144
1.0
145
0.0
146
1.0
147
0.09
 71
     0
 72
     0
 73
     1
 74
     1
 75
     0
 76
     0
 77
     0
 78
     0
170
     0
171
     2
172
     0
173
     0
174
     0
175
     0
176
     0
177
     0
178
     0
  0
DIMSTYLE
  2
ANNOTATIVE
 70
     0
  3

  4

  5

  6

  7

 40
0.0
 41
2.5
 42
0.625
 43
3.75
 44
1.25
 45
0.0
 46
0.0
 47
0.0
 48
0.0
140
2.5
141
2.5
142
0.0
143
0.03937007874016
144
1.0
145
0.0
146
1.0
147
0.625
 71
     0
 72
     0
 73
     0
 74
     0
 75
     0
 76
     0
 77
     1
 78
     8
170
     0
171
     3
172
     1
173
     0
174
     0
175
     0
176
     0
177
     0
178
     0
  0
DIMSTYLE
  2
ISO-25
 70
     0
  3

  4

  5

  6

  7

 40
1.0
 41
2.5
 42
0.625
 43
3.75
 44
1.25
 45
0.0
 46
0.0
 47
0.0
 48
0.0
140
2.5
141
2.5
142
0.0
143
0.03937007874016
144
1.0
145
0.0
146
1.0
147
0.625
 71
     0
 72
     0
 73
     0
 74
     0
 75
     0
 76
     0
 77
     1
 78
     8
170
     0
171
     3
172
     1
173
     0
174
     0
175
     0
176
     0
177
     0
178
     0
  0
ENDTAB
  0
ENDSEC
  0
SECTION
  2
BLOCKS
  0
BLOCK
  8
0
  2
$MODEL_SPACE
 70
     0
 10
0.0
 20
0.0
 30
0.0
  3
$MODEL_SPACE
  1

  0
ENDBLK
  5
21
  8
0
  0
BLOCK
 67
     1
  8
0
  2
$PAPER_SPACE
 70
     0
 10
0.0
 20
0.0
 30
0.0
  3
$PAPER_SPACE
  1

  0
ENDBLK
  5
D5
 67
     1
  8
0
  0
ENDSEC
  0
SECTION
  2
ENTITIES
  0
3DFACE
  5
263
  8
BRANCO
 10
550.52947218519398
 20
13.0
 30
1.0
 11
553.10677218519106
 21
13.0
 31
-3.4641009999999981
 12
553.10677218519106
 22
-16.999900000009799
 32
-3.4641009999999981
 13
550.52947218519398
 23
-16.999900000009799
 33
1.0
  0
3DFACE
  5
264
  8
BRANCO
 10
553.10677218519106
 20
-16.999900000009799
 30
-3.4641009999999981
 11
550.52947218519398
 21
-16.999900000009799
 31
-7.9282028999999978
 12
550.52947218519398
 22
13.0
 32
-7.9282028999999978
 13
553.10677218519106
 23
13.0
 33
-3.4641009999999981
  0
3DFACE
  5
265
  8
BRANCO
 10
550.52947218519398
 20
13.0
 30
1.0
 11
545.37467218519373
 21
13.0
 31
1.0
 12
545.37467218519373
 22
-16.999900000009799
 32
1.0
 13
550.52947218519398
 23
-16.999900000009799
 33
1.0
  0
3DFACE
  5
266
  8
BRANCO
 10
542.7973721851929
 20
-16.999900000009799
 30
-3.4641009999999981
 11
545.37467218519373
 21
-16.999900000009799
 31
1.0
 12
545.37467218519373
 22
13.0
 32
1.0
 13
542.7973721851929
 23
13.0
 33
-3.4641009999999981
  0
3DFACE
  5
267
  8
BRANCO
 10
542.7973721851929
 20
13.0
 30
-3.4641009999999981
 11
545.37467218519373
 21
13.0
 31
-7.9282028999999978
 12
545.37467218519373
 22
-16.999900000009799
 32
-7.9282028999999978
 13
542.7973721851929
 23
-16.999900000009799
 33
-3.4641009999999981
  0
3DFACE
  5
268
  8
BRANCO
 10
545.37467218519373
 20
13.0
 30
-7.9282028999999978
 11
550.52947218519398
 21
13.0
 31
-7.9282028999999978
 12
550.52947218519398
 22
-16.999900000009799
 32
-7.9282028999999978
 13
545.37467218519373
 23
-16.999900000009799
 33
-7.9282028999999978
  0
3DFACE
  5
269
  8
BRANCO
 10
515.37467218519373
 20
-4.5773000000008324
 30
1.0
 11
545.37467218519373
 21
-4.5773000000008324
 31
1.0
 12
545.37467218519373
 22
0.5773999999983062
 32
1.0
 13
515.37467218519373
 23
0.5773999999983062
 33
1.0
  0
3DFACE
  5
26A
  8
BRANCO
 10
545.37467218519373
 20
0.5773999999983062
 30
1.0
 11
515.37467218519373
 21
0.5773999999983062
 31
1.0
 12
515.37467218519373
 22
3.1546999999991381
 32
-3.4641009999999981
 13
542.7973721851929
 23
3.1546999999991381
 33
-3.4641009999999981
  0
3DFACE
  5
26B
  8
BRANCO
 10
515.37467218519373
 20
0.5773999999983062
 30
-7.9282028999999978
 11
515.37467218519373
 21
3.1546999999991381
 31
-3.4641009999999981
 12
542.7973721851929
 22
3.1546999999991381
 32
-3.4641009999999981
 13
545.37467218519373
 23
0.5773999999983062
 33
-7.9282028999999978
  0
3DFACE
  5
26C
  8
BRANCO
 10
515.37467218519373
 20
-4.5773000000008324
 30
-7.9282028999999978
 11
515.37467218519373
 21
0.5773999999983062
 31
-7.9282028999999978
 12
545.37467218519373
 22
0.5773999999983062
 32
-7.9282028999999978
 13
545.37467218519373
 23
-4.5773000000008324
 33
-7.9282028999999978
  0
3DFACE
  5
26D
  8
BRANCO
 10
515.37467218519373
 20
-4.5773000000008324
 30
-7.9282028999999978
 11
515.37467218519373
 21
-7.1546999999991376
 31
-3.4641009999999981
 12
542.7973721851929
 22
-7.1546999999991376
 32
-3.4641009999999981
 13
545.37467218519373
 23
-4.5773000000008324
 33
-7.9282028999999978
  0
3DFACE
  5
26E
  8
BRANCO
 10
515.37467218519373
 20
-7.1546999999991376
 30
-3.4641009999999981
 11
515.37467218519373
 21
-4.5773000000008324
 31
1.0
 12
545.37467218519373
 22
-4.5773000000008324
 32
1.0
 13
542.7973721851929
 23
-7.1546999999991376
 33
-3.4641009999999981
  0
3DFACE
  5
26F
  8
BRANCO
 10
-552.31587781480926
 20
13.0
 30
1.0
 11
-554.89322781480882
 21
13.0
 31
-3.4641009999999981
 12
-554.89322781480882
 22
-16.999900000009799
 32
-3.4641009999999981
 13
-552.31587781480926
 23
-16.999900000009799
 33
1.0
  0
3DFACE
  5
270
  8
BRANCO
 10
-554.89322781480882
 20
-16.999900000009799
 30
-3.4641009999999981
 11
-552.31587781480926
 21
-16.999900000009799
 31
-7.9282028999999978
 12
-552.31587781480926
 22
13.0
 32
-7.9282028999999978
 13
-554.89322781480882
 23
13.0
 33
-3.4641009999999981
  0
3DFACE
  5
271
  8
BRANCO
 10
-552.31587781480926
 20
13.0
 30
1.0
 11
-547.16117781481
 21
13.0
 31
1.0
 12
-547.16117781481
 22
-16.999900000009799
 32
1.0
 13
-552.31587781480926
 23
-16.999900000009799
 33
1.0
  0
3DFACE
  5
272
  8
BRANCO
 10
-544.58382681481021
 20
-16.999900000009799
 30
-3.4641009999999981
 11
-547.16117781481
 21
-16.999900000009799
 31
1.0
 12
-547.16117781481
 22
13.0
 32
1.0
 13
-544.58382681481021
 23
13.0
 33
-3.4641009999999981
  0
3DFACE
  5
273
  8
BRANCO
 10
-544.58382681481021
 20
13.0
 30
-3.4641009999999981
 11
-547.16117781481
 21
13.0
 31
-7.9282028999999978
 12
-547.16117781481
 22
-16.999900000009799
 32
-7.9282028999999978
 13
-544.58382681481021
 23
-16.999900000009799
 33
-3.4641009999999981
  0
3DFACE
  5
274
  8
BRANCO
 10
-547.16117781481
 20
13.0
 30
-7.9282028999999978
 11
-552.31587781480926
 21
13.0
 31
-7.9282028999999978
 12
-552.31587781480926
 22
-16.999900000009799
 32
-7.9282028999999978
 13
-547.16117781481
 23
-16.999900000009799
 33
-7.9282028999999978
  0
3DFACE
  5
275
  8
BRANCO
 10
-517.16117781481012
 20
-4.5773000000008324
 30
1.0
 11
-547.16117781481
 21
-4.5773000000008324
 31
1.0
 12
-547.16117781481
 22
0.5773999999983062
 32
1.0
 13
-517.16117781481012
 23
0.5773999999983062
 33
1.0
  0
3DFACE
  5
276
  8
BRANCO
 10
-547.16117781481
 20
0.5773999999983062
 30
1.0
 11
-517.16117781481012
 21
0.5773999999983062
 31
1.0
 12
-517.16117781481012
 22
3.1546999999991381
 32
-3.4641009999999981
 13
-544.58382681481021
 23
3.1546999999991381
 33
-3.4641009999999981
  0
3DFACE
  5
277
  8
BRANCO
 10
-517.16117781481012
 20
0.5773999999983062
 30
-7.9282028999999978
 11
-517.16117781481012
 21
3.1546999999991381
 31
-3.4641009999999981
 12
-544.58382681481021
 22
3.1546999999991381
 32
-3.4641009999999981
 13
-547.16117781481
 23
0.5773999999983062
 33
-7.9282028999999978
  0
3DFACE
  5
278
  8
BRANCO
 10
-517.16117781481012
 20
-4.5773000000008324
 30
-7.9282028999999978
 11
-517.16117781481012
 21
0.5773999999983062
 31
-7.9282028999999978
 12
-547.16117781481
 22
0.5773999999983062
 32
-7.9282028999999978
 13
-547.16117781481
 23
-4.5773000000008324
 33
-7.9282028999999978
  0
3DFACE
  5
279
  8
BRANCO
 10
-517.16117781481012
 20
-4.5773000000008324
 30
-7.9282028999999978
 11
-517.16117781481012
 21
-7.1546999999991376
 31
-3.4641009999999981
 12
-544.58382681481021
 22
-7.1546999999991376
 32
-3.4641009999999981
 13
-547.16117781481
 23
-4.5773000000008324
 33
-7.9282028999999978
  0
3DFACE
  5
27A
  8
BRANCO
 10
-517.16117781481012
 20
-7.1546999999991376
 30
-3.4641009999999981
 11
-517.16117781481012
 21
-4.5773000000008324
 31
1.0
 12
-547.16117781481
 22
-4.5773000000008324
 32
1.0
 13
-544.58382681481021
 23
-7.1546999999991376
 33
-3.4641009999999981
  0
3DFACE
  5
27B
  8
BRANCO
 10
515.63051124671983
 20
-6.0
 30
-3.4641009999999981
 11
515.63051124671983
 21
-4.0
 31
0.0
 12
-517.16117781481
 22
-3.9999624783490502
 32
0.0000216631338161
 13
-517.16117781481
 23
-5.9999624783490502
 33
-3.464079336866182
  0
3DFACE
  5
27C
  8
BRANCO
 10
515.63051124671983
 20
-4.0
 30
0.0
 11
515.63051124671983
 21
0.0
 31
0.0
 12
-517.16117781481
 22
0.0000375216509498
 32
0.0000216631338161
 13
-517.16117781481
 23
-3.9999624783490502
 33
0.0000216631338161
  0
3DFACE
  5
27D
  8
BRANCO
 10
515.63051124671983
 20
0.0
 30
0.0
 11
515.63051124671983
 21
2.0
 31
-3.4641009999999981
 12
-515.63051124671983
 22
2.0
 32
-3.4641009999999981
 13
-517.16117781481
 23
0.0000375216509498
 33
0.0000216631338161
  0
3DFACE
  5
27E
  8
BRANCO
 10
515.63051124671983
 20
2.0
 30
-3.4641009999999981
 11
515.63051124671983
 21
0.0
 31
-6.9282029999999937
 12
-517.16117781481
 22
0.0000375216509498
 32
-6.9281813368661771
 13
-515.63051124671983
 23
2.0
 33
-3.4641009999999981
  0
3DFACE
  5
27F
  8
BRANCO
 10
515.63051124671983
 20
0.0
 30
-6.9282029999999937
 11
515.63051124671983
 21
-4.0
 31
-6.9282029999999937
 12
-517.16117781481
 22
-3.9999624783490502
 32
-6.9281813368661771
 13
-517.16117781481
 23
0.0000375216509498
 33
-6.9281813368661771
  0
3DFACE
  5
280
  8
BRANCO
 10
515.63051124671983
 20
-4.0
 30
-6.9282029999999937
 11
515.63051124671983
 21
-6.0
 31
-3.4641009999999981
 12
-517.16117781481
 22
-5.9999624783490502
 32
-3.464079336866182
 13
-517.16117781481
 23
-3.9999624783490502
 33
-6.9281813368661771
  0
3DFACE
  5
281
  8
BRANCO
 10
515.37467218519373
 20
0.5773999999983062
 30
-7.9282028999999978
 11
515.37467218519373
 21
3.1546999999991381
 31
-3.4641009999999981
 12
515.37467218519373
 22
0.5773999999983062
 32
1.0
 13
515.37467218519373
 23
-4.5773000000008324
 33
1.0
  0
3DFACE
  5
282
  8
BRANCO
 10
515.37467218519373
 20
0.5773999999983062
 30
1.0
 11
515.37467218519373
 21
-4.5773000000008324
 31
1.0
 12
515.37467218519373
 22
-7.1546999999991376
 32
-3.4641009999999981
 13
515.37467218519373
 23
-4.5773000000008324
 33
-7.9282028999999978
  0
3DFACE
  5
283
  8
BRANCO
 10
515.37467218519373
 20
-7.1546999999991376
 30
-3.4641009999999981
 11
515.37467218519373
 21
-4.5773000000008324
 31
-7.9282028999999978
 12
515.37467218519373
 22
0.5773999999983062
 32
-7.9282028999999978
 13
515.37467218519373
 23
-4.5773000000008324
 33
1.0
  0
3DFACE
  5
284
  8
BRANCO
 10
-517.16117781481012
 20
-4.5773000000008324
 30
-7.9282028999999978
 11
-517.16117781481012
 21
-7.1546999999991376
 31
-3.4641009999999981
 12
-517.16117781481012
 22
-4.5773000000008324
 32
1.0
 13
-517.16117781481012
 23
0.5773999999983062
 33
1.0
  0
3DFACE
  5
285
  8
BRANCO
 10
-517.16117781481012
 20
-4.5773000000008324
 30
1.0
 11
-517.16117781481012
 21
0.5773999999983062
 31
1.0
 12
-517.16117781481012
 22
3.1546999999991381
 32
-3.4641009999999981
 13
-517.16117781481012
 23
0.5773999999983062
 33
-7.9282028999999978
  0
3DFACE
  5
286
  8
BRANCO
 10
545.37467218519373
 20
-16.999900000009799
 30
-7.9282028999999978
 11
542.7973721851929
 21
-16.999900000009799
 31
-3.4641009999999981
 12
545.37467218519373
 22
-16.999900000009799
 32
1.0
 13
550.52947218519398
 23
-16.999900000009799
 33
1.0
  0
3DFACE
  5
287
  8
BRANCO
 10
545.37467218519373
 20
-16.999900000009799
 30
1.0
 11
550.52947218519398
 21
-16.999900000009799
 31
1.0
 12
553.10677218519106
 22
-16.999900000009799
 32
-3.4641009999999981
 13
550.52947218519398
 23
-16.999900000009799
 33
-7.9282028999999978
  0
3DFACE
  5
288
  8
BRANCO
 10
553.10677218519106
 20
-16.999900000009799
 30
-3.4641009999999981
 11
550.52947218519398
 21
-16.999900000009799
 31
-7.9282028999999978
 12
545.37467218519373
 22
-16.999900000009799
 32
-7.9282028999999978
 13
547.95207218519204
 23
-16.999900000009799
 33
-3.4641014499999989
  0
3DFACE
  5
289
  8
BRANCO
 10
550.52947218519398
 20
13.0
 30
-7.9282028999999978
 11
553.10677218519106
 21
13.0
 31
-3.4641009999999981
 12
550.52947218519398
 22
13.0
 32
1.0
 13
545.37467218519373
 23
13.0
 33
1.0
  0
3DFACE
  5
28A
  8
BRANCO
 10
550.52947218519398
 20
13.0
 30
1.0
 11
545.37467218519373
 21
13.0
 31
1.0
 12
542.7973721851929
 22
13.0
 32
-3.4641009999999981
 13
545.37467218519373
 23
13.0
 33
-7.9282028999999978
  0
3DFACE
  5
28B
  8
BRANCO
 10
542.7973721851929
 20
13.0
 30
-3.4641009999999981
 11
545.37467218519373
 21
13.0
 31
-7.9282028999999978
 12
550.52947218519398
 22
13.0
 32
-7.9282028999999978
 13
547.95207218519204
 23
13.0
 33
-3.4641014499999989
  0
3DFACE
  5
28C
  8
BRANCO
 10
-547.16117781481
 20
13.0
 30
-7.9282028999999978
 11
-544.58382681481021
 21
13.0
 31
-3.4641009999999981
 12
-547.16117781481
 22
13.0
 32
1.0
 13
-552.31587781480926
 23
13.0
 33
1.0
  0
3DFACE
  5
28D
  8
BRANCO
 10
-547.16117781481
 20
13.0
 30
1.0
 11
-552.31587781480926
 21
13.0
 31
1.0
 12
-554.89322781480882
 22
13.0
 32
-3.464100999999999
 13
-552.31587781480926
 23
13.0
 33
-7.9282028999999978
  0
3DFACE
  5
28E
  8
BRANCO
 10
-554.89322781480882
 20
13.0
 30
-3.464100999999999
 11
-552.31587781480926
 21
13.0
 31
-7.9282028999999978
 12
-547.16117781481
 22
13.0
 32
-7.9282028999999961
 13
-549.73852781480957
 23
13.0
 33
-3.464101449999998
  0
3DFACE
  5
28F
  8
BRANCO
 10
-552.31587781480926
 20
-16.999900000009799
 30
-7.9282028999999978
 11
-554.89322781480882
 21
-16.999900000009799
 31
-3.4641009999999981
 12
-552.31587781480926
 22
-16.999900000009799
 32
1.0
 13
-547.16117781481
 23
-16.999900000009799
 33
1.0
  0
3DFACE
  5
290
  8
BRANCO
 10
-552.31587781480926
 20
-16.999900000009799
 30
1.0
 11
-547.16117781481
 21
-16.999900000009799
 31
1.0
 12
-544.58382681481021
 22
-16.999900000009799
 32
-3.4641009999999981
 13
-547.16117781481
 23
-16.999900000009799
 33
-7.9282028999999978
  0
3DFACE
  5
291
  8
BRANCO
 10
-544.58382681481021
 20
-16.999900000009799
 30
-3.4641009999999981
 11
-547.16117781481
 21
-16.999900000009799
 31
-7.9282028999999978
 12
-552.31587781480926
 22
-16.999900000009799
 32
-7.9282028999999961
 13
-549.73852781480957
 23
-16.999900000009799
 33
-3.464101449999998
  0
ENDSEC
  0
EOF
