  0
SECTION
  2
HEADER
  9
$ACADVER
  1
AC1018
  9
$ACADMAINTVER
 70
     0
  9
$DWGCODEPAGE
  3
ANSI_1252
  9
$INSBASE
 10
0.0
 20
0.0
 30
0.0
  9
$EXTMIN
 10
-63.5
 20
-28.91614532470703
 30
-6.0
  9
$EXTMAX
 10
63.76995468139648
 20
0.0
 30
6.383636474609375
  9
$LIMMIN
 10
0.0
 20
0.0
  9
$LIMMAX
 10
12.0
 20
9.0
  9
$ORTHOMODE
 70
     0
  9
$REGENMODE
 70
     1
  9
$FILLMODE
 70
     1
  9
$QTEXTMODE
 70
     0
  9
$MIRRTEXT
 70
     1
  9
$LTSCALE
 40
1.0
  9
$ATTMODE
 70
     1
  9
$TEXTSIZE
 40
0.2
  9
$TRACEWID
 40
0.05
  9
$TEXTSTYLE
  7
Standard
  9
$CLAYER
  8
0
  9
$CELTYPE
  6
ByLayer
  9
$CECOLOR
 62
   256
  9
$CELTSCALE
 40
1.0
  9
$DISPSILH
 70
     0
  9
$DIMSCALE
 40
1.0
  9
$DIMASZ
 40
0.18
  9
$DIMEXO
 40
0.0625
  9
$DIMDLI
 40
0.38
  9
$DIMRND
 40
0.0
  9
$DIMDLE
 40
0.0
  9
$DIMEXE
 40
0.18
  9
$DIMTP
 40
0.0
  9
$DIMTM
 40
0.0
  9
$DIMTXT
 40
0.18
  9
$DIMCEN
 40
0.09
  9
$DIMTSZ
 40
0.0
  9
$DIMTOL
 70
     0
  9
$DIMLIM
 70
     0
  9
$DIMTIH
 70
     1
  9
$DIMTOH
 70
     1
  9
$DIMSE1
 70
     0
  9
$DIMSE2
 70
     0
  9
$DIMTAD
 70
     0
  9
$DIMZIN
 70
     0
  9
$DIMBLK
  1

  9
$DIMASO
 70
     1
  9
$DIMSHO
 70
     1
  9
$DIMPOST
  1

  9
$DIMAPOST
  1

  9
$DIMALT
 70
     0
  9
$DIMALTD
 70
     2
  9
$DIMALTF
 40
25.4
  9
$DIMLFAC
 40
1.0
  9
$DIMTOFL
 70
     0
  9
$DIMTVP
 40
0.0
  9
$DIMTIX
 70
     0
  9
$DIMSOXD
 70
     0
  9
$DIMSAH
 70
     0
  9
$DIMBLK1
  1

  9
$DIMBLK2
  1

  9
$DIMSTYLE
  2
Standard
  9
$DIMCLRD
 70
     0
  9
$DIMCLRE
 70
     0
  9
$DIMCLRT
 70
     0
  9
$DIMTFAC
 40
1.0
  9
$DIMGAP
 40
0.09
  9
$DIMJUST
 70
     0
  9
$DIMSD1
 70
     0
  9
$DIMSD2
 70
     0
  9
$DIMTOLJ
 70
     1
  9
$DIMTZIN
 70
     0
  9
$DIMALTZ
 70
     0
  9
$DIMALTTZ
 70
     0
  9
$DIMUPT
 70
     0
  9
$DIMDEC
 70
     4
  9
$DIMTDEC
 70
     4
  9
$DIMALTU
 70
     2
  9
$DIMALTTD
 70
     2
  9
$DIMTXSTY
  7
Standard
  9
$DIMAUNIT
 70
     0
  9
$DIMADEC
 70
     0
  9
$DIMALTRND
 40
0.0
  9
$DIMAZIN
 70
     0
  9
$DIMDSEP
 70
    46
  9
$DIMATFIT
 70
     3
  9
$DIMFRAC
 70
     0
  9
$DIMLDRBLK
  1

  9
$DIMLUNIT
 70
     2
  9
$DIMLWD
 70
    -2
  9
$DIMLWE
 70
    -2
  9
$DIMTMOVE
 70
     2
  9
$LUNITS
 70
     2
  9
$LUPREC
 70
     3
  9
$SKETCHINC
 40
0.1
  9
$FILLETRAD
 40
0.5
  9
$AUNITS
 70
     0
  9
$AUPREC
 70
     0
  9
$MENU
  1
.
  9
$ELEVATION
 40
0.0
  9
$PELEVATION
 40
0.0
  9
$THICKNESS
 40
0.0
  9
$LIMCHECK
 70
     0
  9
$CHAMFERA
 40
0.5
  9
$CHAMFERB
 40
0.5
  9
$CHAMFERC
 40
1.0
  9
$CHAMFERD
 40
0.0
  9
$SKPOLY
 70
     0
  9
$TDCREATE
 40
2456512.48404522
  9
$TDUCREATE
 40
2456512.60904522
  9
$TDUPDATE
 40
2456512.484045231
  9
$TDUUPDATE
 40
2456512.609045231
  9
$TDINDWG
 40
0.0000000116
  9
$TDUSRTIMER
 40
0.0000000116
  9
$USRTIMER
 70
     1
  9
$ANGBASE
 50
0.0
  9
$ANGDIR
 70
     0
  9
$PDMODE
 70
     0
  9
$PDSIZE
 40
0.0
  9
$PLINEWID
 40
0.0
  9
$SPLFRAME
 70
     0
  9
$SPLINETYPE
 70
     6
  9
$SPLINESEGS
 70
     8
  9
$HANDSEED
  5
482
  9
$SURFTAB1
 70
     6
  9
$SURFTAB2
 70
     6
  9
$SURFTYPE
 70
     6
  9
$SURFU
 70
     6
  9
$SURFV
 70
     6
  9
$UCSBASE
  2

  9
$UCSNAME
  2

  9
$UCSORG
 10
0.0
 20
0.0
 30
0.0
  9
$UCSXDIR
 10
1.0
 20
0.0
 30
0.0
  9
$UCSYDIR
 10
0.0
 20
1.0
 30
0.0
  9
$UCSORTHOREF
  2

  9
$UCSORTHOVIEW
 70
     0
  9
$UCSORGTOP
 10
0.0
 20
0.0
 30
0.0
  9
$UCSORGBOTTOM
 10
0.0
 20
0.0
 30
0.0
  9
$UCSORGLEFT
 10
0.0
 20
0.0
 30
0.0
  9
$UCSORGRIGHT
 10
0.0
 20
0.0
 30
0.0
  9
$UCSORGFRONT
 10
0.0
 20
0.0
 30
0.0
  9
$UCSORGBACK
 10
0.0
 20
0.0
 30
0.0
  9
$PUCSBASE
  2

  9
$PUCSNAME
  2

  9
$PUCSORG
 10
0.0
 20
0.0
 30
0.0
  9
$PUCSXDIR
 10
1.0
 20
0.0
 30
0.0
  9
$PUCSYDIR
 10
0.0
 20
1.0
 30
0.0
  9
$PUCSORTHOREF
  2

  9
$PUCSORTHOVIEW
 70
     0
  9
$PUCSORGTOP
 10
0.0
 20
0.0
 30
0.0
  9
$PUCSORGBOTTOM
 10
0.0
 20
0.0
 30
0.0
  9
$PUCSORGLEFT
 10
0.0
 20
0.0
 30
0.0
  9
$PUCSORGRIGHT
 10
0.0
 20
0.0
 30
0.0
  9
$PUCSORGFRONT
 10
0.0
 20
0.0
 30
0.0
  9
$PUCSORGBACK
 10
0.0
 20
0.0
 30
0.0
  9
$USERI1
 70
     0
  9
$USERI2
 70
     0
  9
$USERI3
 70
     0
  9
$USERI4
 70
     0
  9
$USERI5
 70
     0
  9
$USERR1
 40
0.0
  9
$USERR2
 40
0.0
  9
$USERR3
 40
0.0
  9
$USERR4
 40
0.0
  9
$USERR5
 40
0.0
  9
$WORLDVIEW
 70
     1
  9
$SHADEDGE
 70
     3
  9
$SHADEDIF
 70
    70
  9
$TILEMODE
 70
     1
  9
$MAXACTVP
 70
    64
  9
$PINSBASE
 10
0.0
 20
0.0
 30
0.0
  9
$PLIMCHECK
 70
     0
  9
$PEXTMIN
 10
1.000000000000000E+20
 20
1.000000000000000E+20
 30
1.000000000000000E+20
  9
$PEXTMAX
 10
-1.000000000000000E+20
 20
-1.000000000000000E+20
 30
-1.000000000000000E+20
  9
$PLIMMIN
 10
0.0
 20
0.0
  9
$PLIMMAX
 10
12.0
 20
9.0
  9
$UNITMODE
 70
     0
  9
$VISRETAIN
 70
     1
  9
$PLINEGEN
 70
     0
  9
$PSLTSCALE
 70
     1
  9
$TREEDEPTH
 70
  3020
  9
$CMLSTYLE
  2
Standard
  9
$CMLJUST
 70
     0
  9
$CMLSCALE
 40
1.0
  9
$PROXYGRAPHICS
 70
     1
  9
$MEASUREMENT
 70
     0
  9
$CELWEIGHT
370
    -1
  9
$ENDCAPS
280
     0
  9
$JOINSTYLE
280
     0
  9
$LWDISPLAY
290
     0
  9
$INSUNITS
 70
     4
  9
$HYPERLINKBASE
  1

  9
$STYLESHEET
  1

  9
$XEDIT
290
     1
  9
$CEPSNTYPE
380
     0
  9
$PSTYLEMODE
290
     1
  9
$FINGERPRINTGUID
  2
{2606F19C-3292-4B63-A001-02C8840CE2F8}
  9
$VERSIONGUID
  2
{FAEB1C32-E019-11D5-929B-00C0DF256EC4}
  9
$EXTNAMES
290
     1
  9
$PSVPSCALE
 40
0.0
  9
$OLESTARTUP
290
     0
  9
$SORTENTS
280
   127
  9
$INDEXCTL
280
     0
  9
$HIDETEXT
280
     1
  9
$XCLIPFRAME
290
     0
  9
$HALOGAP
280
     0
  9
$OBSCOLOR
 70
   257
  9
$OBSLTYPE
280
     0
  9
$INTERSECTIONDISPLAY
280
     0
  9
$INTERSECTIONCOLOR
 70
   257
  9
$DIMASSOC
280
     2
  9
$PROJECTNAME
  1

  0
ENDSEC
  0
SECTION
  2
CLASSES
  0
CLASS
  1
ACDBDICTIONARYWDFLT
  2
AcDbDictionaryWithDefault
  3
ObjectDBX Classes
 90
        0
 91
        4
280
     0
281
     0
  0
CLASS
  1
VISUALSTYLE
  2
AcDbVisualStyle
  3
ObjectDBX Classes
 90
     4095
 91
        4
280
     0
281
     0
  0
ENDSEC
  0
SECTION
  2
TABLES
  0
TABLE
  2
VPORT
  5
8
330
0
100
AcDbSymbolTable
 70
     1
  0
VPORT
  5
29
330
8
100
AcDbSymbolTableRecord
100
AcDbViewportTableRecord
  2
*Active
 70
     0
 10
0.0
 20
0.0
 11
1.0
 21
1.0
 12
0.1349773406982422
 22
-14.45807266235352
 13
0.0
 23
0.0
 14
0.5
 24
0.5
 15
0.5
 25
0.5
 16
0.0
 26
0.0
 36
1.0
 17
0.0
 27
0.0
 37
0.0
 40
29.49446823120117
 41
4.401345796690692
 42
50.0
 43
0.0
 44
0.0
 50
0.0
 51
0.0
 71
     0
 72
   100
 73
     1
 74
     3
 75
     0
 76
     0
 77
     0
 78
     0
281
     0
 65
     1
110
0.0
120
0.0
130
0.0
111
1.0
121
0.0
131
0.0
112
0.0
122
1.0
132
0.0
 79
     0
146
0.0
  0
ENDTAB
  0
TABLE
  2
LTYPE
  5
5
330
0
100
AcDbSymbolTable
 70
     1
  0
LTYPE
  5
14
330
5
100
AcDbSymbolTableRecord
100
AcDbLinetypeTableRecord
  2
ByBlock
 70
     0
  3

 72
    65
 73
     0
 40
0.0
  0
LTYPE
  5
15
330
5
100
AcDbSymbolTableRecord
100
AcDbLinetypeTableRecord
  2
ByLayer
 70
     0
  3

 72
    65
 73
     0
 40
0.0
  0
LTYPE
  5
16
330
5
100
AcDbSymbolTableRecord
100
AcDbLinetypeTableRecord
  2
Continuous
 70
     0
  3
Solid line
 72
    65
 73
     0
 40
0.0
  0
ENDTAB
  0
TABLE
  2
LAYER
  5
2
330
0
100
AcDbSymbolTable
 70
     2
  0
LAYER
  5
10
330
2
100
AcDbSymbolTableRecord
100
AcDbLayerTableRecord
  2
0
 70
     0
 62
     7
  6
Continuous
370
    -3
390
F
  0
LAYER
  5
3B
330
2
100
AcDbSymbolTableRecord
100
AcDbLayerTableRecord
  2
METAL
 70
     0
 62
   208
  6
Continuous
370
    -3
390
F
  0
ENDTAB
  0
TABLE
  2
STYLE
  5
3
330
0
100
AcDbSymbolTable
 70
     1
  0
STYLE
  5
11
330
3
100
AcDbSymbolTableRecord
100
AcDbTextStyleTableRecord
  2
Standard
 70
     0
 40
0.0
 41
1.0
 50
0.0
 71
     0
 42
0.2
  3
txt
  4

  0
ENDTAB
  0
TABLE
  2
VIEW
  5
6
330
0
100
AcDbSymbolTable
 70
     0
  0
ENDTAB
  0
TABLE
  2
UCS
  5
7
330
0
100
AcDbSymbolTable
 70
     0
  0
ENDTAB
  0
TABLE
  2
APPID
  5
9
330
0
100
AcDbSymbolTable
 70
     1
  0
APPID
  5
12
330
9
100
AcDbSymbolTableRecord
100
AcDbRegAppTableRecord
  2
ACAD
 70
     0
  0
ENDTAB
  0
TABLE
  2
DIMSTYLE
  5
A
330
0
100
AcDbSymbolTable
 70
     1
100
AcDbDimStyleTable
  0
DIMSTYLE
105
27
330
A
100
AcDbSymbolTableRecord
100
AcDbDimStyleTableRecord
  2
Standard
 70
     0
340
11
  0
ENDTAB
  0
TABLE
  2
BLOCK_RECORD
  5
1
330
0
100
AcDbSymbolTable
 70
     1
  0
BLOCK_RECORD
  5
1F
330
1
100
AcDbSymbolTableRecord
100
AcDbBlockTableRecord
  2
*Model_Space
340
22
  0
BLOCK_RECORD
  5
1B
330
1
100
AcDbSymbolTableRecord
100
AcDbBlockTableRecord
  2
*Paper_Space
340
1E
  0
BLOCK_RECORD
  5
23
330
1
100
AcDbSymbolTableRecord
100
AcDbBlockTableRecord
  2
*Paper_Space0
340
26
  0
ENDTAB
  0
ENDSEC
  0
SECTION
  2
BLOCKS
  0
BLOCK
  5
20
330
1F
100
AcDbEntity
  8
0
100
AcDbBlockBegin
  2
*Model_Space
 70
     0
 10
0.0
 20
0.0
 30
0.0
  3
*Model_Space
  1

  0
ENDBLK
  5
21
330
1F
100
AcDbEntity
  8
0
100
AcDbBlockEnd
  0
BLOCK
  5
1C
330
1B
100
AcDbEntity
 67
     1
  8
0
100
AcDbBlockBegin
  2
*Paper_Space
 70
     0
 10
0.0
 20
0.0
 30
0.0
  3
*Paper_Space
  1

  0
ENDBLK
  5
1D
330
1B
100
AcDbEntity
 67
     1
  8
0
100
AcDbBlockEnd
  0
BLOCK
  5
24
330
23
100
AcDbEntity
  8
0
100
AcDbBlockBegin
  2
*Paper_Space0
 70
     0
 10
0.0
 20
0.0
 30
0.0
  3
*Paper_Space0
  1

  0
ENDBLK
  5
25
330
23
100
AcDbEntity
  8
0
100
AcDbBlockEnd
  0
ENDSEC
  0
SECTION
  2
ENTITIES
  0
POLYLINE
  5
3C
330
1F
100
AcDbEntity
  8
METAL
100
AcDbPolyFaceMesh
 66
     1
 10
0.0
 20
0.0
 30
0.0
 70
    64
 71
   610
 72
   480
  0
VERTEX
  5
3D
330
3C
100
AcDbEntity
  8
METAL
100
AcDbVertex
100
AcDbPolyFaceMeshVertex
 10
63.76995468139648
 20
-23.25666046142578
 30
0.609954833984375
 70
   192
  0
VERTEX
  5
3E
330
3C
100
AcDbEntity
  8
METAL
100
AcDbVertex
100
AcDbPolyFaceMeshVertex
 10
63.7409782409668
 20
-23.24847412109375
 30
-0.236083984375
 70
   192
  0
VERTEX
  5
3F
330
3C
100
AcDbEntity
  8
METAL
100
AcDbVertex
100
AcDbPolyFaceMeshVertex
 10
63.60260391235352
 20
-24.13340759277344
 30
0.593505859375
 70
   192
  0
VERTEX
  5
40
330
3C
100
AcDbEntity
  8
METAL
100
AcDbVertex
100
AcDbPolyFaceMeshVertex
 10
63.56992721557617
 20
-24.14337158203125
 30
-0.214996337890625
 70
   192
  0
VERTEX
  5
41
330
3C
100
AcDbEntity
  8
METAL
100
AcDbVertex
100
AcDbPolyFaceMeshVertex
 10
63.24345779418945
 20
-21.22403717041016
 30
0.766998291015625
 70
   192
  0
VERTEX
  5
42
330
3C
100
AcDbEntity
  8
METAL
100
AcDbVertex
100
AcDbPolyFaceMeshVertex
 10
63.20705032348633
 20
-21.2373046875
 30
-0.408477783203125
 70
   192
  0
VERTEX
  5
43
330
3C
100
AcDbEntity
  8
METAL
100
AcDbVertex
100
AcDbPolyFaceMeshVertex
 10
63.02719497680664
 20
-24.88059234619141
 30
0.609710693359375
 70
   192
  0
VERTEX
  5
44
330
3C
100
AcDbEntity
  8
METAL
100
AcDbVertex
100
AcDbPolyFaceMeshVertex
 10
62.98404312133789
 20
-24.89646911621094
 30
-0.22906494140625
 70
   192
  0
VERTEX
  5
45
330
3C
100
AcDbEntity
  8
METAL
100
AcDbVertex
100
AcDbPolyFaceMeshVertex
 10
62.3731575012207
 20
-19.47661590576172
 30
0.918609619140625
 70
   192
  0
VERTEX
  5
46
330
3C
100
AcDbEntity
  8
METAL
100
AcDbVertex
100
AcDbPolyFaceMeshVertex
 10
62.34337997436523
 20
-19.50363922119141
 30
-0.566375732421875
 70
   192
  0
VERTEX
  5
47
330
3C
100
AcDbEntity
  8
METAL
100
AcDbVertex
100
AcDbPolyFaceMeshVertex
 10
61.9180793762207
 20
-25.30167388916016
 30
0.783782958984375
 70
   192
  0
VERTEX
  5
48
330
3C
100
AcDbEntity
  8
METAL
100
AcDbVertex
100
AcDbPolyFaceMeshVertex
 10
61.88570785522461
 20
-25.29842376708984
 30
-0.40386962890625
 70
   192
  0
VERTEX
  5
49
330
3C
100
AcDbEntity
  8
METAL
100
AcDbVertex
100
AcDbPolyFaceMeshVertex
 10
61.61484146118164
 20
-17.80820465087891
 30
0.966949462890625
 70
   192
  0
VERTEX
  5
4A
330
3C
100
AcDbEntity
  8
METAL
100
AcDbVertex
100
AcDbPolyFaceMeshVertex
 10
61.59123611450195
 20
-17.82293701171875
 30
-0.611602783203125
 70
   192
  0
VERTEX
  5
4B
330
3C
100
AcDbEntity
  8
METAL
100
AcDbVertex
100
AcDbPolyFaceMeshVertex
 10
60.7819938659668
 20
-22.05644226074219
 30
2.694915771484375
 70
   192
  0
VERTEX
  5
4C
330
3C
100
AcDbEntity
  8
METAL
100
AcDbVertex
100
AcDbPolyFaceMeshVertex
 10
60.78156661987305
 20
-22.05455017089844
 30
-2.311676025390625
 70
   192
  0
VERTEX
  5
4D
330
3C
100
AcDbEntity
  8
METAL
100
AcDbVertex
100
AcDbPolyFaceMeshVertex
 10
60.60011672973633
 20
-22.93198394775391
 30
2.557769775390625
 70
   192
  0
VERTEX
  5
4E
330
3C
100
AcDbEntity
  8
METAL
100
AcDbVertex
100
AcDbPolyFaceMeshVertex
 10
60.59665298461914
 20
-22.91750335693359
 30
-2.18194580078125
 70
   192
  0
VERTEX
  5
4F
330
3C
100
AcDbEntity
  8
METAL
100
AcDbVertex
100
AcDbPolyFaceMeshVertex
 10
60.4771614074707
 20
-25.45410919189453
 30
0.98638916015625
 70
   192
  0
VERTEX
  5
50
330
3C
100
AcDbEntity
  8
METAL
100
AcDbVertex
100
AcDbPolyFaceMeshVertex
 10
60.4624137878418
 20
-25.44931030273438
 30
-0.606719970703125
 70
   192
  0
VERTEX
  5
51
330
3C
100
AcDbEntity
  8
METAL
100
AcDbVertex
100
AcDbPolyFaceMeshVertex
 10
60.44318771362305
 20
-20.29994964599609
 30
3.08038330078125
 70
   192
  0
VERTEX
  5
52
330
3C
100
AcDbEntity
  8
METAL
100
AcDbVertex
100
AcDbPolyFaceMeshVertex
 10
60.4429817199707
 20
-20.30008697509766
 30
-2.69659423828125
 70
   192
  0
VERTEX
  5
53
330
3C
100
AcDbEntity
  8
METAL
100
AcDbVertex
100
AcDbPolyFaceMeshVertex
 10
60.42264175415039
 20
-23.84245300292969
 30
2.3739013671875
 70
   192
  0
VERTEX
  5
54
330
3C
100
AcDbEntity
  8
METAL
100
AcDbVertex
100
AcDbPolyFaceMeshVertex
 10
60.41361618041992
 20
-23.81547546386719
 30
-2.01153564453125
 70
   192
  0
VERTEX
  5
55
330
3C
100
AcDbEntity
  8
METAL
100
AcDbVertex
100
AcDbPolyFaceMeshVertex
 10
59.99733352661133
 20
-14.82654571533203
 30
1.071319580078125
 70
   192
  0
VERTEX
  5
56
330
3C
100
AcDbEntity
  8
METAL
100
AcDbVertex
100
AcDbPolyFaceMeshVertex
 10
59.98019790649414
 20
-14.82324981689453
 30
-0.708038330078125
 70
   192
  0
VERTEX
  5
57
330
3C
100
AcDbEntity
  8
METAL
100
AcDbVertex
100
AcDbPolyFaceMeshVertex
 10
59.9062385559082
 20
-24.29026031494141
 30
2.34393310546875
 70
   192
  0
VERTEX
  5
58
330
3C
100
AcDbEntity
  8
METAL
100
AcDbVertex
100
AcDbPolyFaceMeshVertex
 10
59.89719772338867
 20
-24.26650238037109
 30
-1.983551025390625
 70
   192
  0
VERTEX
  5
59
330
3C
100
AcDbEntity
  8
METAL
100
AcDbVertex
100
AcDbPolyFaceMeshVertex
 10
59.78958511352539
 20
-18.66187286376953
 30
3.4356689453125
 70
   192
  0
VERTEX
  5
5A
330
3C
100
AcDbEntity
  8
METAL
100
AcDbVertex
100
AcDbPolyFaceMeshVertex
 10
59.78958511352539
 20
-18.66187286376953
 30
-3.0516357421875
 70
   192
  0
VERTEX
  5
5B
330
3C
100
AcDbEntity
  8
METAL
100
AcDbVertex
100
AcDbPolyFaceMeshVertex
 10
59.25960159301758
 20
-24.80785369873047
 30
2.311279296875
 70
   192
  0
VERTEX
  5
5C
330
3C
100
AcDbEntity
  8
METAL
100
AcDbVertex
100
AcDbPolyFaceMeshVertex
 10
59.24899673461914
 20
-24.79024505615234
 30
-1.95166015625
 70
   192
  0
VERTEX
  5
5D
330
3C
100
AcDbEntity
  8
METAL
100
AcDbVertex
100
AcDbPolyFaceMeshVertex
 10
59.16467666625977
 20
-17.14639282226562
 30
3.524322509765625
 70
   192
  0
VERTEX
  5
5E
330
3C
100
AcDbEntity
  8
METAL
100
AcDbVertex
100
AcDbPolyFaceMeshVertex
 10
59.16467666625977
 20
-17.14639282226562
 30
-3.140289306640625
 70
   192
  0
VERTEX
  5
5F
330
3C
100
AcDbEntity
  8
METAL
100
AcDbVertex
100
AcDbPolyFaceMeshVertex
 10
58.38553237915039
 20
-11.82804870605469
 30
1.1522216796875
 70
   192
  0
VERTEX
  5
60
330
3C
100
AcDbEntity
  8
METAL
100
AcDbVertex
100
AcDbPolyFaceMeshVertex
 10
58.37636947631836
 20
-11.81413269042969
 30
-0.774658203125
 70
   192
  0
VERTEX
  5
61
330
3C
100
AcDbEntity
  8
METAL
100
AcDbVertex
100
AcDbPolyFaceMeshVertex
 10
57.76359939575195
 20
-14.29435729980469
 30
3.75921630859375
 70
   192
  0
VERTEX
  5
62
330
3C
100
AcDbEntity
  8
METAL
100
AcDbVertex
100
AcDbPolyFaceMeshVertex
 10
57.76359939575195
 20
-14.29435729980469
 30
-3.37518310546875
 70
   192
  0
VERTEX
  5
63
330
3C
100
AcDbEntity
  8
METAL
100
AcDbVertex
100
AcDbPolyFaceMeshVertex
 10
57.27190780639648
 20
-25.77797698974609
 30
1.280975341796875
 70
   192
  0
VERTEX
  5
64
330
3C
100
AcDbEntity
  8
METAL
100
AcDbVertex
100
AcDbPolyFaceMeshVertex
 10
57.25271987915039
 20
-25.77616119384766
 30
-0.895050048828125
 70
   192
  0
VERTEX
  5
65
330
3C
100
AcDbEntity
  8
METAL
100
AcDbVertex
100
AcDbPolyFaceMeshVertex
 10
56.36251449584961
 20
-11.44232177734375
 30
3.99407958984375
 70
   192
  0
VERTEX
  5
66
330
3C
100
AcDbEntity
  8
METAL
100
AcDbVertex
100
AcDbPolyFaceMeshVertex
 10
56.36251449584961
 20
-11.44232177734375
 30
-3.610076904296875
 70
   192
  0
VERTEX
  5
67
330
3C
100
AcDbEntity
  8
METAL
100
AcDbVertex
100
AcDbPolyFaceMeshVertex
 10
56.24196243286133
 20
-20.18330383300781
 30
3.002105712890625
 70
   192
  0
VERTEX
  5
68
330
3C
100
AcDbEntity
  8
METAL
100
AcDbVertex
100
AcDbPolyFaceMeshVertex
 10
56.24196243286133
 20
-20.18330383300781
 30
-2.61810302734375
 70
   192
  0
VERTEX
  5
69
330
3C
100
AcDbEntity
  8
METAL
100
AcDbVertex
100
AcDbPolyFaceMeshVertex
 10
56.08584976196289
 20
-18.64868927001953
 30
3.434112548828125
 70
   192
  0
VERTEX
  5
6A
330
3C
100
AcDbEntity
  8
METAL
100
AcDbVertex
100
AcDbPolyFaceMeshVertex
 10
56.08584976196289
 20
-18.64868927001953
 30
-3.050079345703125
 70
   192
  0
VERTEX
  5
6B
330
3C
100
AcDbEntity
  8
METAL
100
AcDbVertex
100
AcDbPolyFaceMeshVertex
 10
56.0476188659668
 20
-20.92862701416016
 30
2.863616943359375
 70
   192
  0
VERTEX
  5
6C
330
3C
100
AcDbEntity
  8
METAL
100
AcDbVertex
100
AcDbPolyFaceMeshVertex
 10
56.0476188659668
 20
-20.92863464355469
 30
-2.4796142578125
 70
   192
  0
VERTEX
  5
6D
330
3C
100
AcDbEntity
  8
METAL
100
AcDbVertex
100
AcDbPolyFaceMeshVertex
 10
56.04549026489258
 20
-25.12648773193359
 30
2.344482421875
 70
   192
  0
VERTEX
  5
6E
330
3C
100
AcDbEntity
  8
METAL
100
AcDbVertex
100
AcDbPolyFaceMeshVertex
 10
56.03316116333008
 20
-25.12193298339844
 30
-1.9683837890625
 70
   192
  0
VERTEX
  5
6F
330
3C
100
AcDbEntity
  8
METAL
100
AcDbVertex
100
AcDbPolyFaceMeshVertex
 10
55.85327529907227
 20
-21.67395782470703
 30
2.72515869140625
 70
   192
  0
VERTEX
  5
70
330
3C
100
AcDbEntity
  8
METAL
100
AcDbVertex
100
AcDbPolyFaceMeshVertex
 10
55.85327529907227
 20
-21.67395782470703
 30
-2.34112548828125
 70
   192
  0
VERTEX
  5
71
330
3C
100
AcDbEntity
  8
METAL
100
AcDbVertex
100
AcDbPolyFaceMeshVertex
 10
55.67441177368164
 20
-17.18172454833984
 30
3.832611083984375
 70
   192
  0
VERTEX
  5
72
330
3C
100
AcDbEntity
  8
METAL
100
AcDbVertex
100
AcDbPolyFaceMeshVertex
 10
55.67441177368164
 20
-17.18172454833984
 30
-3.370208740234375
 70
   192
  0
VERTEX
  5
73
330
3C
100
AcDbEntity
  8
METAL
100
AcDbVertex
100
AcDbPolyFaceMeshVertex
 10
55.34672927856445
 20
-22.26782989501953
 30
2.72515869140625
 70
   192
  0
VERTEX
  5
74
330
3C
100
AcDbEntity
  8
METAL
100
AcDbVertex
100
AcDbPolyFaceMeshVertex
 10
55.34672927856445
 20
-22.26782989501953
 30
-2.34112548828125
 70
   192
  0
VERTEX
  5
75
330
3C
100
AcDbEntity
  8
METAL
100
AcDbVertex
100
AcDbPolyFaceMeshVertex
 10
55.21194839477539
 20
-15.94519805908203
 30
3.93212890625
 70
   192
  0
VERTEX
  5
76
330
3C
100
AcDbEntity
  8
METAL
100
AcDbVertex
100
AcDbPolyFaceMeshVertex
 10
55.21194839477539
 20
-15.94519805908203
 30
-3.548095703125
 70
   192
  0
VERTEX
  5
77
330
3C
100
AcDbEntity
  8
METAL
100
AcDbVertex
100
AcDbPolyFaceMeshVertex
 10
54.7407112121582
 20
-22.73043060302734
 30
2.724945068359375
 70
   192
  0
VERTEX
  5
78
330
3C
100
AcDbEntity
  8
METAL
100
AcDbVertex
100
AcDbPolyFaceMeshVertex
 10
54.74062728881836
 20
-22.73005676269531
 30
-2.34112548828125
 70
   192
  0
VERTEX
  5
79
330
3C
100
AcDbEntity
  8
METAL
100
AcDbVertex
100
AcDbPolyFaceMeshVertex
 10
54.24843978881836
 20
-13.35346984863281
 30
4.19573974609375
 70
   192
  0
VERTEX
  5
7A
330
3C
100
AcDbEntity
  8
METAL
100
AcDbVertex
100
AcDbPolyFaceMeshVertex
 10
54.24843978881836
 20
-13.35346984863281
 30
-3.811737060546875
 70
   192
  0
VERTEX
  5
7B
330
3C
100
AcDbEntity
  8
METAL
100
AcDbVertex
100
AcDbPolyFaceMeshVertex
 10
53.28491592407227
 20
-10.76174163818359
 30
4.459381103515625
 70
   192
  0
VERTEX
  5
7C
330
3C
100
AcDbEntity
  8
METAL
100
AcDbVertex
100
AcDbPolyFaceMeshVertex
 10
53.28491592407227
 20
-10.76174163818359
 30
-4.075347900390625
 70
   192
  0
VERTEX
  5
7D
330
3C
100
AcDbEntity
  8
METAL
100
AcDbVertex
100
AcDbPolyFaceMeshVertex
 10
53.05077743530273
 20
-3.924644470214844
 30
-0.811126708984375
 70
   192
  0
VERTEX
  5
7E
330
3C
100
AcDbEntity
  8
METAL
100
AcDbVertex
100
AcDbPolyFaceMeshVertex
 10
53.03899765014648
 20
-3.931068420410156
 30
1.217498779296875
 70
   192
  0
VERTEX
  5
7F
330
3C
100
AcDbEntity
  8
METAL
100
AcDbVertex
100
AcDbPolyFaceMeshVertex
 10
52.87594985961914
 20
-23.730712890625
 30
2.72021484375
 70
   192
  0
VERTEX
  5
80
330
3C
100
AcDbEntity
  8
METAL
100
AcDbVertex
100
AcDbPolyFaceMeshVertex
 10
52.8749885559082
 20
-23.73223876953125
 30
-2.335052490234375
 70
   192
  0
VERTEX
  5
81
330
3C
100
AcDbEntity
  8
METAL
100
AcDbVertex
100
AcDbPolyFaceMeshVertex
 10
51.6712760925293
 20
-3.946914672851562
 30
4.1470947265625
 70
   192
  0
VERTEX
  5
82
330
3C
100
AcDbEntity
  8
METAL
100
AcDbVertex
100
AcDbPolyFaceMeshVertex
 10
51.6712760925293
 20
-3.946914672851562
 30
-3.7630615234375
 70
   192
  0
VERTEX
  5
83
330
3C
100
AcDbEntity
  8
METAL
100
AcDbVertex
100
AcDbPolyFaceMeshVertex
 10
50.09566879272461
 20
-16.37834167480469
 30
3.434112548828125
 70
   192
  0
VERTEX
  5
84
330
3C
100
AcDbEntity
  8
METAL
100
AcDbVertex
100
AcDbPolyFaceMeshVertex
 10
50.09566879272461
 20
-16.37834930419922
 30
-3.050079345703125
 70
   192
  0
VERTEX
  5
85
330
3C
100
AcDbEntity
  8
METAL
100
AcDbVertex
100
AcDbPolyFaceMeshVertex
 10
50.01684951782227
 20
-15.14680480957031
 30
3.832611083984375
 70
   192
  0
VERTEX
  5
86
330
3C
100
AcDbEntity
  8
METAL
100
AcDbVertex
100
AcDbPolyFaceMeshVertex
 10
50.01684951782227
 20
-15.14681243896484
 30
-3.370208740234375
 70
   192
  0
VERTEX
  5
87
330
3C
100
AcDbEntity
  8
METAL
100
AcDbVertex
100
AcDbPolyFaceMeshVertex
 10
50.00088882446289
 20
-17.61070251464844
 30
3.002105712890625
 70
   192
  0
VERTEX
  5
88
330
3C
100
AcDbEntity
  8
METAL
100
AcDbVertex
100
AcDbPolyFaceMeshVertex
 10
50.00088882446289
 20
-17.61071014404297
 30
-2.61810302734375
 70
   192
  0
VERTEX
  5
89
330
3C
100
AcDbEntity
  8
METAL
100
AcDbVertex
100
AcDbPolyFaceMeshVertex
 10
49.7790412902832
 20
-18.23731994628906
 30
2.863616943359375
 70
   192
  0
VERTEX
  5
8A
330
3C
100
AcDbEntity
  8
METAL
100
AcDbVertex
100
AcDbPolyFaceMeshVertex
 10
49.7790412902832
 20
-18.23731994628906
 30
-2.4796142578125
 70
   192
  0
VERTEX
  5
8B
330
3C
100
AcDbEntity
  8
METAL
100
AcDbVertex
100
AcDbPolyFaceMeshVertex
 10
49.7777214050293
 20
-14.29380035400391
 30
3.93212890625
 70
   192
  0
VERTEX
  5
8C
330
3C
100
AcDbEntity
  8
METAL
100
AcDbVertex
100
AcDbPolyFaceMeshVertex
 10
49.7777214050293
 20
-14.29380035400391
 30
-3.548095703125
 70
   192
  0
VERTEX
  5
8D
330
3C
100
AcDbEntity
  8
METAL
100
AcDbVertex
100
AcDbPolyFaceMeshVertex
 10
49.7093620300293
 20
-0.0016021728515625
 30
-0.8756103515625
 70
   192
  0
VERTEX
  5
8E
330
3C
100
AcDbEntity
  8
METAL
100
AcDbVertex
100
AcDbPolyFaceMeshVertex
 10
49.70916366577148
 20
-0.0011215209960938
 30
1.253326416015625
 70
   192
  0
VERTEX
  5
8F
330
3C
100
AcDbEntity
  8
METAL
100
AcDbVertex
100
AcDbPolyFaceMeshVertex
 10
49.55717086791992
 20
-18.86392974853516
 30
2.72515869140625
 70
   192
  0
VERTEX
  5
90
330
3C
100
AcDbEntity
  8
METAL
100
AcDbVertex
100
AcDbPolyFaceMeshVertex
 10
49.55717086791992
 20
-18.86392974853516
 30
-2.34112548828125
 70
   192
  0
VERTEX
  5
91
330
3C
100
AcDbEntity
  8
METAL
100
AcDbVertex
100
AcDbPolyFaceMeshVertex
 10
49.40502548217773
 20
-3.946914672851562
 30
4.631103515625
 70
   192
  0
VERTEX
  5
92
330
3C
100
AcDbEntity
  8
METAL
100
AcDbVertex
100
AcDbPolyFaceMeshVertex
 10
49.40502548217773
 20
-3.946914672851562
 30
-4.247100830078125
 70
   192
  0
VERTEX
  5
93
330
3C
100
AcDbEntity
  8
METAL
100
AcDbVertex
100
AcDbPolyFaceMeshVertex
 10
49.24515914916992
 20
-12.05994415283203
 30
4.19573974609375
 70
   192
  0
VERTEX
  5
94
330
3C
100
AcDbEntity
  8
METAL
100
AcDbVertex
100
AcDbPolyFaceMeshVertex
 10
49.24515914916992
 20
-12.05994415283203
 30
-3.811737060546875
 70
   192
  0
VERTEX
  5
95
330
3C
100
AcDbEntity
  8
METAL
100
AcDbVertex
100
AcDbPolyFaceMeshVertex
 10
48.89773941040039
 20
-19.43097686767578
 30
2.72515869140625
 70
   192
  0
VERTEX
  5
96
330
3C
100
AcDbEntity
  8
METAL
100
AcDbVertex
100
AcDbPolyFaceMeshVertex
 10
48.89773941040039
 20
-19.43098449707031
 30
-2.34112548828125
 70
   192
  0
VERTEX
  5
97
330
3C
100
AcDbEntity
  8
METAL
100
AcDbVertex
100
AcDbPolyFaceMeshVertex
 10
48.71256637573242
 20
-9.826080322265625
 30
4.459381103515625
 70
   192
  0
VERTEX
  5
98
330
3C
100
AcDbEntity
  8
METAL
100
AcDbVertex
100
AcDbPolyFaceMeshVertex
 10
48.71256637573242
 20
-9.826080322265625
 30
-4.075347900390625
 70
   192
  0
VERTEX
  5
99
330
3C
100
AcDbEntity
  8
METAL
100
AcDbVertex
100
AcDbPolyFaceMeshVertex
 10
48.34599685668945
 20
0.0
 30
4.1470947265625
 70
   192
  0
VERTEX
  5
9A
330
3C
100
AcDbEntity
  8
METAL
100
AcDbVertex
100
AcDbPolyFaceMeshVertex
 10
48.34599685668945
 20
0.0
 30
-3.7630615234375
 70
   192
  0
VERTEX
  5
9B
330
3C
100
AcDbEntity
  8
METAL
100
AcDbVertex
100
AcDbPolyFaceMeshVertex
 10
48.23830032348633
 20
-19.99803161621094
 30
2.72515869140625
 70
   192
  0
VERTEX
  5
9C
330
3C
100
AcDbEntity
  8
METAL
100
AcDbVertex
100
AcDbPolyFaceMeshVertex
 10
48.23830032348633
 20
-19.99803161621094
 30
-2.34112548828125
 70
   192
  0
VERTEX
  5
9D
330
3C
100
AcDbEntity
  8
METAL
100
AcDbVertex
100
AcDbPolyFaceMeshVertex
 10
47.20735549926758
 20
0.0
 30
4.631103515625
 70
   192
  0
VERTEX
  5
9E
330
3C
100
AcDbEntity
  8
METAL
100
AcDbVertex
100
AcDbPolyFaceMeshVertex
 10
47.20735549926758
 20
0.0
 30
4.631103515625
 70
   192
  0
VERTEX
  5
9F
330
3C
100
AcDbEntity
  8
METAL
100
AcDbVertex
100
AcDbPolyFaceMeshVertex
 10
47.20735549926758
 20
0.0
 30
-4.247100830078125
 70
   192
  0
VERTEX
  5
A0
330
3C
100
AcDbEntity
  8
METAL
100
AcDbVertex
100
AcDbPolyFaceMeshVertex
 10
47.20735549926758
 20
0.0
 30
-4.247100830078125
 70
   192
  0
VERTEX
  5
A1
330
3C
100
AcDbEntity
  8
METAL
100
AcDbVertex
100
AcDbPolyFaceMeshVertex
 10
46.60071182250977
 20
-3.946914672851562
 30
4.631103515625
 70
   192
  0
VERTEX
  5
A2
330
3C
100
AcDbEntity
  8
METAL
100
AcDbVertex
100
AcDbPolyFaceMeshVertex
 10
46.60071182250977
 20
-3.946914672851562
 30
-4.247100830078125
 70
   192
  0
VERTEX
  5
A3
330
3C
100
AcDbEntity
  8
METAL
100
AcDbVertex
100
AcDbPolyFaceMeshVertex
 10
46.37257766723633
 20
-20.99199676513672
 30
2.72515869140625
 70
   192
  0
VERTEX
  5
A4
330
3C
100
AcDbEntity
  8
METAL
100
AcDbVertex
100
AcDbPolyFaceMeshVertex
 10
46.37257766723633
 20
-20.99200439453125
 30
-2.34112548828125
 70
   192
  0
VERTEX
  5
A5
330
3C
100
AcDbEntity
  8
METAL
100
AcDbVertex
100
AcDbPolyFaceMeshVertex
 10
45.90167617797852
 20
-13.66665649414062
 30
3.4356689453125
 70
   192
  0
VERTEX
  5
A6
330
3C
100
AcDbEntity
  8
METAL
100
AcDbVertex
100
AcDbPolyFaceMeshVertex
 10
45.90167617797852
 20
-13.66665649414062
 30
-3.0516357421875
 70
   192
  0
VERTEX
  5
A7
330
3C
100
AcDbEntity
  8
METAL
100
AcDbVertex
100
AcDbPolyFaceMeshVertex
 10
45.82499313354492
 20
-13.09261322021484
 30
3.524322509765625
 70
   192
  0
VERTEX
  5
A8
330
3C
100
AcDbEntity
  8
METAL
100
AcDbVertex
100
AcDbPolyFaceMeshVertex
 10
45.82499313354492
 20
-13.09261322021484
 30
-3.140289306640625
 70
   192
  0
VERTEX
  5
A9
330
3C
100
AcDbEntity
  8
METAL
100
AcDbVertex
100
AcDbPolyFaceMeshVertex
 10
45.7385139465332
 20
-14.72694396972656
 30
3.080596923828125
 70
   192
  0
VERTEX
  5
AA
330
3C
100
AcDbEntity
  8
METAL
100
AcDbVertex
100
AcDbPolyFaceMeshVertex
 10
45.7385139465332
 20
-14.72694396972656
 30
-2.69659423828125
 70
   192
  0
VERTEX
  5
AB
330
3C
100
AcDbEntity
  8
METAL
100
AcDbVertex
100
AcDbPolyFaceMeshVertex
 10
45.60587692260742
 20
-11.11905670166016
 30
3.75921630859375
 70
   192
  0
VERTEX
  5
AC
330
3C
100
AcDbEntity
  8
METAL
100
AcDbVertex
100
AcDbPolyFaceMeshVertex
 10
45.60587692260742
 20
-11.11905670166016
 30
-3.37518310546875
 70
   192
  0
VERTEX
  5
AD
330
3C
100
AcDbEntity
  8
METAL
100
AcDbVertex
100
AcDbPolyFaceMeshVertex
 10
45.46129989624023
 20
-15.73945617675781
 30
2.695709228515625
 70
   192
  0
VERTEX
  5
AE
330
3C
100
AcDbEntity
  8
METAL
100
AcDbVertex
100
AcDbPolyFaceMeshVertex
 10
45.46129989624023
 20
-15.73945617675781
 30
-2.311676025390625
 70
   192
  0
VERTEX
  5
AF
330
3C
100
AcDbEntity
  8
METAL
100
AcDbVertex
100
AcDbPolyFaceMeshVertex
 10
45.3867301940918
 20
-9.145500183105469
 30
3.99407958984375
 70
   192
  0
VERTEX
  5
B0
330
3C
100
AcDbEntity
  8
METAL
100
AcDbVertex
100
AcDbPolyFaceMeshVertex
 10
45.3867301940918
 20
-9.145500183105469
 30
-3.610076904296875
 70
   192
  0
VERTEX
  5
B1
330
3C
100
AcDbEntity
  8
METAL
100
AcDbVertex
100
AcDbPolyFaceMeshVertex
 10
45.23015975952148
 20
-16.25717926025391
 30
2.57232666015625
 70
   192
  0
VERTEX
  5
B2
330
3C
100
AcDbEntity
  8
METAL
100
AcDbVertex
100
AcDbPolyFaceMeshVertex
 10
45.23015975952148
 20
-16.25717926025391
 30
-2.188323974609375
 70
   192
  0
VERTEX
  5
B3
330
3C
100
AcDbEntity
  8
METAL
100
AcDbVertex
100
AcDbPolyFaceMeshVertex
 10
45.11285781860352
 20
0.0
 30
4.631103515625
 70
   192
  0
VERTEX
  5
B4
330
3C
100
AcDbEntity
  8
METAL
100
AcDbVertex
100
AcDbPolyFaceMeshVertex
 10
45.11285781860352
 20
0.0
 30
4.631103515625
 70
   192
  0
VERTEX
  5
B5
330
3C
100
AcDbEntity
  8
METAL
100
AcDbVertex
100
AcDbPolyFaceMeshVertex
 10
45.11285781860352
 20
0.0
 30
-4.247100830078125
 70
   192
  0
VERTEX
  5
B6
330
3C
100
AcDbEntity
  8
METAL
100
AcDbVertex
100
AcDbPolyFaceMeshVertex
 10
45.11285781860352
 20
0.0
 30
-4.247100830078125
 70
   192
  0
VERTEX
  5
B7
330
3C
100
AcDbEntity
  8
METAL
100
AcDbVertex
100
AcDbPolyFaceMeshVertex
 10
44.99905776977539
 20
-16.77489471435547
 30
2.448944091796875
 70
   192
  0
VERTEX
  5
B8
330
3C
100
AcDbEntity
  8
METAL
100
AcDbVertex
100
AcDbPolyFaceMeshVertex
 10
44.99905776977539
 20
-16.77489471435547
 30
-2.06494140625
 70
   192
  0
VERTEX
  5
B9
330
3C
100
AcDbEntity
  8
METAL
100
AcDbVertex
100
AcDbPolyFaceMeshVertex
 10
44.3396110534668
 20
-17.34194183349609
 30
2.448944091796875
 70
   192
  0
VERTEX
  5
BA
330
3C
100
AcDbEntity
  8
METAL
100
AcDbVertex
100
AcDbPolyFaceMeshVertex
 10
44.3396110534668
 20
-17.34194183349609
 30
-2.06494140625
 70
   192
  0
VERTEX
  5
BB
330
3C
100
AcDbEntity
  8
METAL
100
AcDbVertex
100
AcDbPolyFaceMeshVertex
 10
44.26948928833008
 20
-3.946914672851562
 30
4.1470947265625
 70
   192
  0
VERTEX
  5
BC
330
3C
100
AcDbEntity
  8
METAL
100
AcDbVertex
100
AcDbPolyFaceMeshVertex
 10
44.26948928833008
 20
-3.946914672851562
 30
-3.7630615234375
 70
   192
  0
VERTEX
  5
BD
330
3C
100
AcDbEntity
  8
METAL
100
AcDbVertex
100
AcDbPolyFaceMeshVertex
 10
43.68017959594727
 20
-17.90899658203125
 30
2.448944091796875
 70
   192
  0
VERTEX
  5
BE
330
3C
100
AcDbEntity
  8
METAL
100
AcDbVertex
100
AcDbPolyFaceMeshVertex
 10
43.68017959594727
 20
-17.90899658203125
 30
-2.06494140625
 70
   192
  0
VERTEX
  5
BF
330
3C
100
AcDbEntity
  8
METAL
100
AcDbVertex
100
AcDbPolyFaceMeshVertex
 10
43.45335006713867
 20
-12.37189483642578
 30
2.3009033203125
 70
   192
  0
VERTEX
  5
C0
330
3C
100
AcDbEntity
  8
METAL
100
AcDbVertex
100
AcDbPolyFaceMeshVertex
 10
43.45335006713867
 20
-12.37189483642578
 30
-1.9168701171875
 70
   192
  0
VERTEX
  5
C1
330
3C
100
AcDbEntity
  8
METAL
100
AcDbVertex
100
AcDbPolyFaceMeshVertex
 10
43.43255996704102
 20
-12.77855682373047
 30
2.244781494140625
 70
   192
  0
VERTEX
  5
C2
330
3C
100
AcDbEntity
  8
METAL
100
AcDbVertex
100
AcDbPolyFaceMeshVertex
 10
43.43255996704102
 20
-12.77855682373047
 30
-1.86077880859375
 70
   192
  0
VERTEX
  5
C3
330
3C
100
AcDbEntity
  8
METAL
100
AcDbVertex
100
AcDbPolyFaceMeshVertex
 10
43.42229080200195
 20
-10.55451965332031
 30
2.449554443359375
 70
   192
  0
VERTEX
  5
C4
330
3C
100
AcDbEntity
  8
METAL
100
AcDbVertex
100
AcDbPolyFaceMeshVertex
 10
43.42229080200195
 20
-10.55452728271484
 30
-2.065521240234375
 70
   192
  0
VERTEX
  5
C5
330
3C
100
AcDbEntity
  8
METAL
100
AcDbVertex
100
AcDbPolyFaceMeshVertex
 10
43.39123916625977
 20
-8.737152099609375
 30
2.59820556640625
 70
   192
  0
VERTEX
  5
C6
330
3C
100
AcDbEntity
  8
METAL
100
AcDbVertex
100
AcDbPolyFaceMeshVertex
 10
43.39123916625977
 20
-8.737152099609375
 30
-2.21417236328125
 70
   192
  0
VERTEX
  5
C7
330
3C
100
AcDbEntity
  8
METAL
100
AcDbVertex
100
AcDbPolyFaceMeshVertex
 10
43.2889518737793
 20
0.0
 30
4.1470947265625
 70
   192
  0
VERTEX
  5
C8
330
3C
100
AcDbEntity
  8
METAL
100
AcDbVertex
100
AcDbPolyFaceMeshVertex
 10
43.2889518737793
 20
0.0
 30
4.1470947265625
 70
   192
  0
VERTEX
  5
C9
330
3C
100
AcDbEntity
  8
METAL
100
AcDbVertex
100
AcDbPolyFaceMeshVertex
 10
43.2889518737793
 20
0.0
 30
-3.7630615234375
 70
   192
  0
VERTEX
  5
CA
330
3C
100
AcDbEntity
  8
METAL
100
AcDbVertex
100
AcDbPolyFaceMeshVertex
 10
43.2889518737793
 20
0.0
 30
-3.7630615234375
 70
   192
  0
VERTEX
  5
CB
330
3C
100
AcDbEntity
  8
METAL
100
AcDbVertex
100
AcDbPolyFaceMeshVertex
 10
43.12424087524414
 20
-13.73609924316406
 30
2.02008056640625
 70
   192
  0
VERTEX
  5
CC
330
3C
100
AcDbEntity
  8
METAL
100
AcDbVertex
100
AcDbPolyFaceMeshVertex
 10
43.12424087524414
 20
-13.73609924316406
 30
-1.636077880859375
 70
   192
  0
VERTEX
  5
CD
330
3C
100
AcDbEntity
  8
METAL
100
AcDbVertex
100
AcDbPolyFaceMeshVertex
 10
42.87097549438477
 20
-10.42950439453125
 30
0.1920166015625
 70
   192
  0
VERTEX
  5
CE
330
3C
100
AcDbEntity
  8
METAL
100
AcDbVertex
100
AcDbPolyFaceMeshVertex
 10
42.73752975463867
 20
-14.61669921875
 30
1.776519775390625
 70
   192
  0
VERTEX
  5
CF
330
3C
100
AcDbEntity
  8
METAL
100
AcDbVertex
100
AcDbPolyFaceMeshVertex
 10
42.73752975463867
 20
-14.61669921875
 30
-1.392486572265625
 70
   192
  0
VERTEX
  5
D0
330
3C
100
AcDbEntity
  8
METAL
100
AcDbVertex
100
AcDbPolyFaceMeshVertex
 10
42.7260627746582
 20
-8.601036071777344
 30
0.1920166015625
 70
   192
  0
VERTEX
  5
D1
330
3C
100
AcDbEntity
  8
METAL
100
AcDbVertex
100
AcDbPolyFaceMeshVertex
 10
42.66335678100586
 20
-3.946914672851562
 30
2.695037841796875
 70
   192
  0
VERTEX
  5
D2
330
3C
100
AcDbEntity
  8
METAL
100
AcDbVertex
100
AcDbPolyFaceMeshVertex
 10
42.66335678100586
 20
-3.946914672851562
 30
-2.311004638671875
 70
   192
  0
VERTEX
  5
D3
330
3C
100
AcDbEntity
  8
METAL
100
AcDbVertex
100
AcDbPolyFaceMeshVertex
 10
42.66280746459961
 20
-12.13165283203125
 30
0.1920166015625
 70
   192
  0
VERTEX
  5
D4
330
3C
100
AcDbEntity
  8
METAL
100
AcDbVertex
100
AcDbPolyFaceMeshVertex
 10
42.60953140258789
 20
-12.48252105712891
 30
0.1920166015625
 70
   192
  0
VERTEX
  5
D5
330
3C
100
AcDbEntity
  8
METAL
100
AcDbVertex
100
AcDbPolyFaceMeshVertex
 10
42.50085067749023
 20
-15.06908416748047
 30
1.69842529296875
 70
   192
  0
VERTEX
  5
D6
330
3C
100
AcDbEntity
  8
METAL
100
AcDbVertex
100
AcDbPolyFaceMeshVertex
 10
42.50085067749023
 20
-15.06908416748047
 30
-1.31439208984375
 70
   192
  0
VERTEX
  5
D7
330
3C
100
AcDbEntity
  8
METAL
100
AcDbVertex
100
AcDbPolyFaceMeshVertex
 10
42.26415634155273
 20
-15.52146911621094
 30
1.620330810546875
 70
   192
  0
VERTEX
  5
D8
330
3C
100
AcDbEntity
  8
METAL
100
AcDbVertex
100
AcDbPolyFaceMeshVertex
 10
42.26415634155273
 20
-15.52146911621094
 30
-1.236328125
 70
   192
  0
VERTEX
  5
D9
330
3C
100
AcDbEntity
  8
METAL
100
AcDbVertex
100
AcDbPolyFaceMeshVertex
 10
42.2528190612793
 20
-13.40581512451172
 30
0.1920166015625
 70
   192
  0
VERTEX
  5
DA
330
3C
100
AcDbEntity
  8
METAL
100
AcDbVertex
100
AcDbPolyFaceMeshVertex
 10
42.21008682250977
 20
-3.946914672851562
 30
0.1920166015625
 70
   192
  0
VERTEX
  5
DB
330
3C
100
AcDbEntity
  8
METAL
100
AcDbVertex
100
AcDbPolyFaceMeshVertex
 10
42.18990707397461
 20
0.0
 30
2.695037841796875
 70
   192
  0
VERTEX
  5
DC
330
3C
100
AcDbEntity
  8
METAL
100
AcDbVertex
100
AcDbPolyFaceMeshVertex
 10
42.18990707397461
 20
0.0
 30
2.695037841796875
 70
   192
  0
VERTEX
  5
DD
330
3C
100
AcDbEntity
  8
METAL
100
AcDbVertex
100
AcDbPolyFaceMeshVertex
 10
42.18990707397461
 20
0.0
 30
-2.311004638671875
 70
   192
  0
VERTEX
  5
DE
330
3C
100
AcDbEntity
  8
METAL
100
AcDbVertex
100
AcDbPolyFaceMeshVertex
 10
42.18990707397461
 20
0.0
 30
-2.311004638671875
 70
   192
  0
VERTEX
  5
DF
330
3C
100
AcDbEntity
  8
METAL
100
AcDbVertex
100
AcDbPolyFaceMeshVertex
 10
41.82959365844727
 20
-14.24244689941406
 30
0.1920166015625
 70
   192
  0
VERTEX
  5
E0
330
3C
100
AcDbEntity
  8
METAL
100
AcDbVertex
100
AcDbPolyFaceMeshVertex
 10
41.81445693969727
 20
-18.90296173095703
 30
2.448944091796875
 70
   192
  0
VERTEX
  5
E1
330
3C
100
AcDbEntity
  8
METAL
100
AcDbVertex
100
AcDbPolyFaceMeshVertex
 10
41.81445693969727
 20
-18.90296173095703
 30
-2.06494140625
 70
   192
  0
VERTEX
  5
E2
330
3C
100
AcDbEntity
  8
METAL
100
AcDbVertex
100
AcDbPolyFaceMeshVertex
 10
41.73666000366211
 20
0.0
 30
0.1920166015625
 70
   192
  0
VERTEX
  5
E3
330
3C
100
AcDbEntity
  8
METAL
100
AcDbVertex
100
AcDbPolyFaceMeshVertex
 10
41.73666000366211
 20
0.0
 30
0.1920166015625
 70
   192
  0
VERTEX
  5
E4
330
3C
100
AcDbEntity
  8
METAL
100
AcDbVertex
100
AcDbPolyFaceMeshVertex
 10
41.6047477722168
 20
-16.08851623535156
 30
1.620330810546875
 70
   192
  0
VERTEX
  5
E5
330
3C
100
AcDbEntity
  8
METAL
100
AcDbVertex
100
AcDbPolyFaceMeshVertex
 10
41.6047477722168
 20
-16.08851623535156
 30
-1.236328125
 70
   192
  0
VERTEX
  5
E6
330
3C
100
AcDbEntity
  8
METAL
100
AcDbVertex
100
AcDbPolyFaceMeshVertex
 10
41.59108352661133
 20
-14.67305755615234
 30
0.1920166015625
 70
   192
  0
VERTEX
  5
E7
330
3C
100
AcDbEntity
  8
METAL
100
AcDbVertex
100
AcDbPolyFaceMeshVertex
 10
41.59108352661133
 20
-14.67305755615234
 30
0.1920166015625
 70
   192
  0
VERTEX
  5
E8
330
3C
100
AcDbEntity
  8
METAL
100
AcDbVertex
100
AcDbPolyFaceMeshVertex
 10
41.3525505065918
 20
-15.10366058349609
 30
0.1920166015625
 70
   192
  0
VERTEX
  5
E9
330
3C
100
AcDbEntity
  8
METAL
100
AcDbVertex
100
AcDbPolyFaceMeshVertex
 10
41.3525505065918
 20
-15.10366058349609
 30
0.1920166015625
 70
   192
  0
VERTEX
  5
EA
330
3C
100
AcDbEntity
  8
METAL
100
AcDbVertex
100
AcDbPolyFaceMeshVertex
 10
40.94528579711914
 20
-16.65557098388672
 30
1.620330810546875
 70
   192
  0
VERTEX
  5
EB
330
3C
100
AcDbEntity
  8
METAL
100
AcDbVertex
100
AcDbPolyFaceMeshVertex
 10
40.94528579711914
 20
-16.65557098388672
 30
-1.236328125
 70
   192
  0
VERTEX
  5
EC
330
3C
100
AcDbEntity
  8
METAL
100
AcDbVertex
100
AcDbPolyFaceMeshVertex
 10
40.69311141967773
 20
-15.67071533203125
 30
0.1920166015625
 70
   192
  0
VERTEX
  5
ED
330
3C
100
AcDbEntity
  8
METAL
100
AcDbVertex
100
AcDbPolyFaceMeshVertex
 10
40.69311141967773
 20
-15.67071533203125
 30
0.1920166015625
 70
   192
  0
VERTEX
  5
EE
330
3C
100
AcDbEntity
  8
METAL
100
AcDbVertex
100
AcDbPolyFaceMeshVertex
 10
40.0336799621582
 20
-16.23776245117188
 30
0.1920166015625
 70
   192
  0
VERTEX
  5
EF
330
3C
100
AcDbEntity
  8
METAL
100
AcDbVertex
100
AcDbPolyFaceMeshVertex
 10
39.07956314086914
 20
-17.6495361328125
 30
1.620330810546875
 70
   192
  0
VERTEX
  5
F0
330
3C
100
AcDbEntity
  8
METAL
100
AcDbVertex
100
AcDbPolyFaceMeshVertex
 10
39.07956314086914
 20
-17.6495361328125
 30
-1.236328125
 70
   192
  0
VERTEX
  5
F1
330
3C
100
AcDbEntity
  8
METAL
100
AcDbVertex
100
AcDbPolyFaceMeshVertex
 10
38.1679573059082
 20
-17.23173522949219
 30
0.1920166015625
 70
   192
  0
VERTEX
  5
F2
330
3C
100
AcDbEntity
  8
METAL
100
AcDbVertex
100
AcDbPolyFaceMeshVertex
 10
30.71262741088867
 20
-28.00213623046875
 30
-2.885009765625
 70
   192
  0
VERTEX
  5
F3
330
3C
100
AcDbEntity
  8
METAL
100
AcDbVertex
100
AcDbPolyFaceMeshVertex
 10
30.71262741088867
 20
-28.00213623046875
 30
-2.885009765625
 70
   192
  0
VERTEX
  5
F4
330
3C
100
AcDbEntity
  8
METAL
100
AcDbVertex
100
AcDbPolyFaceMeshVertex
 10
30.71259689331055
 20
-27.99919891357422
 30
3.267791748046875
 70
   192
  0
VERTEX
  5
F5
330
3C
100
AcDbEntity
  8
METAL
100
AcDbVertex
100
AcDbPolyFaceMeshVertex
 10
30.71259689331055
 20
-27.99919891357422
 30
3.267791748046875
 70
   192
  0
VERTEX
  5
F6
330
3C
100
AcDbEntity
  8
METAL
100
AcDbVertex
100
AcDbPolyFaceMeshVertex
 10
30.70573043823242
 20
-27.36891937255859
 30
-3.5714111328125
 70
   192
  0
VERTEX
  5
F7
330
3C
100
AcDbEntity
  8
METAL
100
AcDbVertex
100
AcDbPolyFaceMeshVertex
 10
30.70573043823242
 20
-27.36891937255859
 30
-3.5714111328125
 70
   192
  0
VERTEX
  5
F8
330
3C
100
AcDbEntity
  8
METAL
100
AcDbVertex
100
AcDbPolyFaceMeshVertex
 10
30.70569229125977
 20
-27.36191940307617
 30
3.97381591796875
 70
   192
  0
VERTEX
  5
F9
330
3C
100
AcDbEntity
  8
METAL
100
AcDbVertex
100
AcDbPolyFaceMeshVertex
 10
30.70569229125977
 20
-27.36191940307617
 30
3.97381591796875
 70
   192
  0
VERTEX
  5
FA
330
3C
100
AcDbEntity
  8
METAL
100
AcDbVertex
100
AcDbPolyFaceMeshVertex
 10
30.69331741333008
 20
-27.1424560546875
 30
3.499176025390625
 70
   192
  0
VERTEX
  5
FB
330
3C
100
AcDbEntity
  8
METAL
100
AcDbVertex
100
AcDbPolyFaceMeshVertex
 10
30.69331741333008
 20
-27.1424560546875
 30
3.499176025390625
 70
   192
  0
VERTEX
  5
FC
330
3C
100
AcDbEntity
  8
METAL
100
AcDbVertex
100
AcDbPolyFaceMeshVertex
 10
30.69042587280273
 20
-27.14990997314453
 30
-3.0966796875
 70
   192
  0
VERTEX
  5
FD
330
3C
100
AcDbEntity
  8
METAL
100
AcDbVertex
100
AcDbPolyFaceMeshVertex
 10
30.69042587280273
 20
-27.14990997314453
 30
-3.0966796875
 70
   192
  0
VERTEX
  5
FE
330
3C
100
AcDbEntity
  8
METAL
100
AcDbVertex
100
AcDbPolyFaceMeshVertex
 10
30.68712997436523
 20
-25.94214630126953
 30
4.542236328125
 70
   192
  0
VERTEX
  5
FF
330
3C
100
AcDbEntity
  8
METAL
100
AcDbVertex
100
AcDbPolyFaceMeshVertex
 10
30.68712997436523
 20
-25.94214630126953
 30
4.542236328125
 70
   192
  0
VERTEX
  5
100
330
3C
100
AcDbEntity
  8
METAL
100
AcDbVertex
100
AcDbPolyFaceMeshVertex
 10
30.68712997436523
 20
-25.94293975830078
 30
-4.156097412109375
 70
   192
  0
VERTEX
  5
101
330
3C
100
AcDbEntity
  8
METAL
100
AcDbVertex
100
AcDbPolyFaceMeshVertex
 10
30.68712997436523
 20
-25.94293975830078
 30
-4.156097412109375
 70
   192
  0
VERTEX
  5
102
330
3C
100
AcDbEntity
  8
METAL
100
AcDbVertex
100
AcDbPolyFaceMeshVertex
 10
30.68664932250977
 20
-25.87847137451172
 30
4.001708984375
 70
   192
  0
VERTEX
  5
103
330
3C
100
AcDbEntity
  8
METAL
100
AcDbVertex
100
AcDbPolyFaceMeshVertex
 10
30.68664932250977
 20
-25.87847137451172
 30
4.001708984375
 70
   192
  0
VERTEX
  5
104
330
3C
100
AcDbEntity
  8
METAL
100
AcDbVertex
100
AcDbPolyFaceMeshVertex
 10
30.68352890014648
 20
-25.87776947021484
 30
-3.615875244140625
 70
   192
  0
VERTEX
  5
105
330
3C
100
AcDbEntity
  8
METAL
100
AcDbVertex
100
AcDbPolyFaceMeshVertex
 10
30.68352890014648
 20
-25.87776947021484
 30
-3.615875244140625
 70
   192
  0
VERTEX
  5
106
330
3C
100
AcDbEntity
  8
METAL
100
AcDbVertex
100
AcDbPolyFaceMeshVertex
 10
30.67770767211914
 20
-27.59284210205078
 30
3.052886962890625
 70
   192
  0
VERTEX
  5
107
330
3C
100
AcDbEntity
  8
METAL
100
AcDbVertex
100
AcDbPolyFaceMeshVertex
 10
30.67770767211914
 20
-27.59284210205078
 30
3.052886962890625
 70
   192
  0
VERTEX
  5
108
330
3C
100
AcDbEntity
  8
METAL
100
AcDbVertex
100
AcDbPolyFaceMeshVertex
 10
30.67660140991211
 20
-27.59639358520508
 30
-2.668853759765625
 70
   192
  0
VERTEX
  5
109
330
3C
100
AcDbEntity
  8
METAL
100
AcDbVertex
100
AcDbPolyFaceMeshVertex
 10
30.67660140991211
 20
-27.59639358520508
 30
-2.668853759765625
 70
   192
  0
VERTEX
  5
10A
330
3C
100
AcDbEntity
  8
METAL
100
AcDbVertex
100
AcDbPolyFaceMeshVertex
 10
30.65861892700195
 20
-23.47290802001953
 30
3.981964111328125
 70
   192
  0
VERTEX
  5
10B
330
3C
100
AcDbEntity
  8
METAL
100
AcDbVertex
100
AcDbPolyFaceMeshVertex
 10
30.65861892700195
 20
-23.47290802001953
 30
3.981964111328125
 70
   192
  0
VERTEX
  5
10C
330
3C
100
AcDbEntity
  8
METAL
100
AcDbVertex
100
AcDbPolyFaceMeshVertex
 10
30.65554428100586
 20
-23.47293853759766
 30
-3.5968017578125
 70
   192
  0
VERTEX
  5
10D
330
3C
100
AcDbEntity
  8
METAL
100
AcDbVertex
100
AcDbPolyFaceMeshVertex
 10
30.65554428100586
 20
-23.47293853759766
 30
-3.5968017578125
 70
   192
  0
VERTEX
  5
10E
330
3C
100
AcDbEntity
  8
METAL
100
AcDbVertex
100
AcDbPolyFaceMeshVertex
 10
30.64887619018555
 20
-23.43245697021484
 30
4.525604248046875
 70
   192
  0
VERTEX
  5
10F
330
3C
100
AcDbEntity
  8
METAL
100
AcDbVertex
100
AcDbPolyFaceMeshVertex
 10
30.64887619018555
 20
-23.43245697021484
 30
4.525604248046875
 70
   192
  0
VERTEX
  5
110
330
3C
100
AcDbEntity
  8
METAL
100
AcDbVertex
100
AcDbPolyFaceMeshVertex
 10
30.64887619018555
 20
-23.43245697021484
 30
-4.14056396484375
 70
   192
  0
VERTEX
  5
111
330
3C
100
AcDbEntity
  8
METAL
100
AcDbVertex
100
AcDbPolyFaceMeshVertex
 10
30.64887619018555
 20
-23.43245697021484
 30
-4.14056396484375
 70
   192
  0
VERTEX
  5
112
330
3C
100
AcDbEntity
  8
METAL
100
AcDbVertex
100
AcDbPolyFaceMeshVertex
 10
30.64406967163086
 20
-21.41184234619141
 30
3.55010986328125
 70
   192
  0
VERTEX
  5
113
330
3C
100
AcDbEntity
  8
METAL
100
AcDbVertex
100
AcDbPolyFaceMeshVertex
 10
30.64406967163086
 20
-21.41184234619141
 30
3.55010986328125
 70
   192
  0
VERTEX
  5
114
330
3C
100
AcDbEntity
  8
METAL
100
AcDbVertex
100
AcDbPolyFaceMeshVertex
 10
30.64123916625977
 20
-21.41226959228516
 30
-3.165008544921875
 70
   192
  0
VERTEX
  5
115
330
3C
100
AcDbEntity
  8
METAL
100
AcDbVertex
100
AcDbPolyFaceMeshVertex
 10
30.64123916625977
 20
-21.41226959228516
 30
-3.165008544921875
 70
   192
  0
VERTEX
  5
116
330
3C
100
AcDbEntity
  8
METAL
100
AcDbVertex
100
AcDbPolyFaceMeshVertex
 10
30.63533401489258
 20
-20.26822662353516
 30
2.344512939453125
 70
   192
  0
VERTEX
  5
117
330
3C
100
AcDbEntity
  8
METAL
100
AcDbVertex
100
AcDbPolyFaceMeshVertex
 10
30.63533401489258
 20
-20.26822662353516
 30
2.344512939453125
 70
   192
  0
VERTEX
  5
118
330
3C
100
AcDbEntity
  8
METAL
100
AcDbVertex
100
AcDbPolyFaceMeshVertex
 10
30.63372421264648
 20
-20.26876068115234
 30
-1.960113525390625
 70
   192
  0
VERTEX
  5
119
330
3C
100
AcDbEntity
  8
METAL
100
AcDbVertex
100
AcDbPolyFaceMeshVertex
 10
30.63372421264648
 20
-20.26876068115234
 30
-1.960113525390625
 70
   192
  0
VERTEX
  5
11A
330
3C
100
AcDbEntity
  8
METAL
100
AcDbVertex
100
AcDbPolyFaceMeshVertex
 10
30.63012313842773
 20
-19.88666534423828
 30
0.192169189453125
 70
   192
  0
VERTEX
  5
11B
330
3C
100
AcDbEntity
  8
METAL
100
AcDbVertex
100
AcDbPolyFaceMeshVertex
 10
30.63012313842773
 20
-19.88666534423828
 30
0.192169189453125
 70
   192
  0
VERTEX
  5
11C
330
3C
100
AcDbEntity
  8
METAL
100
AcDbVertex
100
AcDbPolyFaceMeshVertex
 10
30.62234878540039
 20
-21.21726989746094
 30
4.03997802734375
 70
   192
  0
VERTEX
  5
11D
330
3C
100
AcDbEntity
  8
METAL
100
AcDbVertex
100
AcDbPolyFaceMeshVertex
 10
30.62234878540039
 20
-21.21726989746094
 30
4.03997802734375
 70
   192
  0
VERTEX
  5
11E
330
3C
100
AcDbEntity
  8
METAL
100
AcDbVertex
100
AcDbPolyFaceMeshVertex
 10
30.62234878540039
 20
-21.21726989746094
 30
-3.654937744140625
 70
   192
  0
VERTEX
  5
11F
330
3C
100
AcDbEntity
  8
METAL
100
AcDbVertex
100
AcDbPolyFaceMeshVertex
 10
30.62234878540039
 20
-21.21726989746094
 30
-3.654937744140625
 70
   192
  0
VERTEX
  5
120
330
3C
100
AcDbEntity
  8
METAL
100
AcDbVertex
100
AcDbPolyFaceMeshVertex
 10
30.60644912719727
 20
-19.88704681396484
 30
2.622161865234375
 70
   192
  0
VERTEX
  5
121
330
3C
100
AcDbEntity
  8
METAL
100
AcDbVertex
100
AcDbPolyFaceMeshVertex
 10
30.60644912719727
 20
-19.88704681396484
 30
2.622161865234375
 70
   192
  0
VERTEX
  5
122
330
3C
100
AcDbEntity
  8
METAL
100
AcDbVertex
100
AcDbPolyFaceMeshVertex
 10
30.60644912719727
 20
-19.88704681396484
 30
-2.237091064453125
 70
   192
  0
VERTEX
  5
123
330
3C
100
AcDbEntity
  8
METAL
100
AcDbVertex
100
AcDbPolyFaceMeshVertex
 10
30.60644912719727
 20
-19.88704681396484
 30
-2.237091064453125
 70
   192
  0
VERTEX
  5
124
330
3C
100
AcDbEntity
  8
METAL
100
AcDbVertex
100
AcDbPolyFaceMeshVertex
 10
30.60114669799805
 20
-19.44344329833984
 30
0.192535400390625
 70
   192
  0
VERTEX
  5
125
330
3C
100
AcDbEntity
  8
METAL
100
AcDbVertex
100
AcDbPolyFaceMeshVertex
 10
30.60114669799805
 20
-19.44344329833984
 30
0.192535400390625
 70
   192
  0
VERTEX
  5
126
330
3C
100
AcDbEntity
  8
METAL
100
AcDbVertex
100
AcDbPolyFaceMeshVertex
 10
29.99359512329102
 20
-28.07532119750977
 30
3.361541748046875
 70
   192
  0
VERTEX
  5
127
330
3C
100
AcDbEntity
  8
METAL
100
AcDbVertex
100
AcDbPolyFaceMeshVertex
 10
29.99359512329102
 20
-28.07532119750977
 30
3.361541748046875
 70
   192
  0
VERTEX
  5
128
330
3C
100
AcDbEntity
  8
METAL
100
AcDbVertex
100
AcDbPolyFaceMeshVertex
 10
29.99359512329102
 20
-28.07813262939453
 30
-2.988800048828125
 70
   192
  0
VERTEX
  5
129
330
3C
100
AcDbEntity
  8
METAL
100
AcDbVertex
100
AcDbPolyFaceMeshVertex
 10
29.99359512329102
 20
-28.07813262939453
 30
-2.988800048828125
 70
   192
  0
VERTEX
  5
12A
330
3C
100
AcDbEntity
  8
METAL
100
AcDbVertex
100
AcDbPolyFaceMeshVertex
 10
29.9906120300293
 20
-27.44055938720703
 30
3.96868896484375
 70
   192
  0
VERTEX
  5
12B
330
3C
100
AcDbEntity
  8
METAL
100
AcDbVertex
100
AcDbPolyFaceMeshVertex
 10
29.9906120300293
 20
-27.44055938720703
 30
3.96868896484375
 70
   192
  0
VERTEX
  5
12C
330
3C
100
AcDbEntity
  8
METAL
100
AcDbVertex
100
AcDbPolyFaceMeshVertex
 10
29.9906120300293
 20
-27.44723510742188
 30
-3.578277587890625
 70
   192
  0
VERTEX
  5
12D
330
3C
100
AcDbEntity
  8
METAL
100
AcDbVertex
100
AcDbPolyFaceMeshVertex
 10
29.9906120300293
 20
-27.44723510742188
 30
-3.578277587890625
 70
   192
  0
VERTEX
  5
12E
330
3C
100
AcDbEntity
  8
METAL
100
AcDbVertex
100
AcDbPolyFaceMeshVertex
 10
29.98260116577148
 20
-26.06610870361328
 30
4.521881103515625
 70
   192
  0
VERTEX
  5
12F
330
3C
100
AcDbEntity
  8
METAL
100
AcDbVertex
100
AcDbPolyFaceMeshVertex
 10
29.98260116577148
 20
-26.06610870361328
 30
4.521881103515625
 70
   192
  0
VERTEX
  5
130
330
3C
100
AcDbEntity
  8
METAL
100
AcDbVertex
100
AcDbPolyFaceMeshVertex
 10
29.98260116577148
 20
-26.06687164306641
 30
-4.146087646484375
 70
   192
  0
VERTEX
  5
131
330
3C
100
AcDbEntity
  8
METAL
100
AcDbVertex
100
AcDbPolyFaceMeshVertex
 10
29.98260116577148
 20
-26.06687164306641
 30
-4.146087646484375
 70
   192
  0
VERTEX
  5
132
330
3C
100
AcDbEntity
  8
METAL
100
AcDbVertex
100
AcDbPolyFaceMeshVertex
 10
29.98102188110352
 20
-25.99175262451172
 30
3.983428955078125
 70
   192
  0
VERTEX
  5
133
330
3C
100
AcDbEntity
  8
METAL
100
AcDbVertex
100
AcDbPolyFaceMeshVertex
 10
29.98102188110352
 20
-25.99175262451172
 30
3.983428955078125
 70
   192
  0
VERTEX
  5
134
330
3C
100
AcDbEntity
  8
METAL
100
AcDbVertex
100
AcDbPolyFaceMeshVertex
 10
29.97942733764648
 20
-20.34201812744141
 30
2.31561279296875
 70
   192
  0
VERTEX
  5
135
330
3C
100
AcDbEntity
  8
METAL
100
AcDbVertex
100
AcDbPolyFaceMeshVertex
 10
29.97942733764648
 20
-20.34201812744141
 30
2.31561279296875
 70
   192
  0
VERTEX
  5
136
330
3C
100
AcDbEntity
  8
METAL
100
AcDbVertex
100
AcDbPolyFaceMeshVertex
 10
29.97879409790039
 20
-21.48255157470703
 30
3.51409912109375
 70
   192
  0
VERTEX
  5
137
330
3C
100
AcDbEntity
  8
METAL
100
AcDbVertex
100
AcDbPolyFaceMeshVertex
 10
29.97879409790039
 20
-21.48255157470703
 30
3.51409912109375
 70
   192
  0
VERTEX
  5
138
330
3C
100
AcDbEntity
  8
METAL
100
AcDbVertex
100
AcDbPolyFaceMeshVertex
 10
29.97870254516602
 20
-27.22872161865234
 30
3.48883056640625
 70
   192
  0
VERTEX
  5
139
330
3C
100
AcDbEntity
  8
METAL
100
AcDbVertex
100
AcDbPolyFaceMeshVertex
 10
29.97870254516602
 20
-27.22872161865234
 30
3.48883056640625
 70
   192
  0
VERTEX
  5
13A
330
3C
100
AcDbEntity
  8
METAL
100
AcDbVertex
100
AcDbPolyFaceMeshVertex
 10
29.97790145874023
 20
-25.99103546142578
 30
-3.608001708984375
 70
   192
  0
VERTEX
  5
13B
330
3C
100
AcDbEntity
  8
METAL
100
AcDbVertex
100
AcDbPolyFaceMeshVertex
 10
29.97790145874023
 20
-25.99103546142578
 30
-3.608001708984375
 70
   192
  0
VERTEX
  5
13C
330
3C
100
AcDbEntity
  8
METAL
100
AcDbVertex
100
AcDbPolyFaceMeshVertex
 10
29.97774887084961
 20
-20.341796875
 30
-1.93994140625
 70
   192
  0
VERTEX
  5
13D
330
3C
100
AcDbEntity
  8
METAL
100
AcDbVertex
100
AcDbPolyFaceMeshVertex
 10
29.97774887084961
 20
-20.341796875
 30
-1.93994140625
 70
   192
  0
VERTEX
  5
13E
330
3C
100
AcDbEntity
  8
METAL
100
AcDbVertex
100
AcDbPolyFaceMeshVertex
 10
29.97732925415039
 20
-19.96205902099609
 30
0.187774658203125
 70
   192
  0
VERTEX
  5
13F
330
3C
100
AcDbEntity
  8
METAL
100
AcDbVertex
100
AcDbPolyFaceMeshVertex
 10
29.97732925415039
 20
-19.96205902099609
 30
0.187774658203125
 70
   192
  0
VERTEX
  5
140
330
3C
100
AcDbEntity
  8
METAL
100
AcDbVertex
100
AcDbPolyFaceMeshVertex
 10
29.97591781616211
 20
-21.48239898681641
 30
-3.138946533203125
 70
   192
  0
VERTEX
  5
141
330
3C
100
AcDbEntity
  8
METAL
100
AcDbVertex
100
AcDbPolyFaceMeshVertex
 10
29.97591781616211
 20
-21.48239898681641
 30
-3.138946533203125
 70
   192
  0
VERTEX
  5
142
330
3C
100
AcDbEntity
  8
METAL
100
AcDbVertex
100
AcDbPolyFaceMeshVertex
 10
29.97582626342773
 20
-27.23678970336914
 30
-3.09771728515625
 70
   192
  0
VERTEX
  5
143
330
3C
100
AcDbEntity
  8
METAL
100
AcDbVertex
100
AcDbPolyFaceMeshVertex
 10
29.97582626342773
 20
-27.23678970336914
 30
-3.09771728515625
 70
   192
  0
VERTEX
  5
144
330
3C
100
AcDbEntity
  8
METAL
100
AcDbVertex
100
AcDbPolyFaceMeshVertex
 10
29.9758186340332
 20
-23.50638580322266
 30
3.953155517578125
 70
   192
  0
VERTEX
  5
145
330
3C
100
AcDbEntity
  8
METAL
100
AcDbVertex
100
AcDbPolyFaceMeshVertex
 10
29.9758186340332
 20
-23.50638580322266
 30
3.953155517578125
 70
   192
  0
VERTEX
  5
146
330
3C
100
AcDbEntity
  8
METAL
100
AcDbVertex
100
AcDbPolyFaceMeshVertex
 10
29.97275161743164
 20
-23.50633239746094
 30
-3.5782470703125
 70
   192
  0
VERTEX
  5
147
330
3C
100
AcDbEntity
  8
METAL
100
AcDbVertex
100
AcDbPolyFaceMeshVertex
 10
29.97275161743164
 20
-23.50633239746094
 30
-3.5782470703125
 70
   192
  0
VERTEX
  5
148
330
3C
100
AcDbEntity
  8
METAL
100
AcDbVertex
100
AcDbPolyFaceMeshVertex
 10
29.96606063842773
 20
-23.46541595458984
 30
4.496734619140625
 70
   192
  0
VERTEX
  5
149
330
3C
100
AcDbEntity
  8
METAL
100
AcDbVertex
100
AcDbPolyFaceMeshVertex
 10
29.96606063842773
 20
-23.46541595458984
 30
4.496734619140625
 70
   192
  0
VERTEX
  5
14A
330
3C
100
AcDbEntity
  8
METAL
100
AcDbVertex
100
AcDbPolyFaceMeshVertex
 10
29.96606063842773
 20
-23.46541595458984
 30
-4.1219482421875
 70
   192
  0
VERTEX
  5
14B
330
3C
100
AcDbEntity
  8
METAL
100
AcDbVertex
100
AcDbPolyFaceMeshVertex
 10
29.96606063842773
 20
-23.46541595458984
 30
-4.1219482421875
 70
   192
  0
VERTEX
  5
14C
330
3C
100
AcDbEntity
  8
METAL
100
AcDbVertex
100
AcDbPolyFaceMeshVertex
 10
29.95792770385742
 20
-27.68003845214844
 30
3.117767333984375
 70
   192
  0
VERTEX
  5
14D
330
3C
100
AcDbEntity
  8
METAL
100
AcDbVertex
100
AcDbPolyFaceMeshVertex
 10
29.95792770385742
 20
-27.68003845214844
 30
3.117767333984375
 70
   192
  0
VERTEX
  5
14E
330
3C
100
AcDbEntity
  8
METAL
100
AcDbVertex
100
AcDbPolyFaceMeshVertex
 10
29.95748519897461
 20
-21.29512786865234
 30
4.008209228515625
 70
   192
  0
VERTEX
  5
14F
330
3C
100
AcDbEntity
  8
METAL
100
AcDbVertex
100
AcDbPolyFaceMeshVertex
 10
29.95748519897461
 20
-21.29512786865234
 30
4.008209228515625
 70
   192
  0
VERTEX
  5
150
330
3C
100
AcDbEntity
  8
METAL
100
AcDbVertex
100
AcDbPolyFaceMeshVertex
 10
29.95748519897461
 20
-21.29512786865234
 30
-3.6334228515625
 70
   192
  0
VERTEX
  5
151
330
3C
100
AcDbEntity
  8
METAL
100
AcDbVertex
100
AcDbPolyFaceMeshVertex
 10
29.95748519897461
 20
-21.29512786865234
 30
-3.6334228515625
 70
   192
  0
VERTEX
  5
152
330
3C
100
AcDbEntity
  8
METAL
100
AcDbVertex
100
AcDbPolyFaceMeshVertex
 10
29.95663070678711
 20
-27.6844596862793
 30
-2.74163818359375
 70
   192
  0
VERTEX
  5
153
330
3C
100
AcDbEntity
  8
METAL
100
AcDbVertex
100
AcDbPolyFaceMeshVertex
 10
29.95663070678711
 20
-27.6844596862793
 30
-2.74163818359375
 70
   192
  0
VERTEX
  5
154
330
3C
100
AcDbEntity
  8
METAL
100
AcDbVertex
100
AcDbPolyFaceMeshVertex
 10
29.95063400268555
 20
-19.96312713623047
 30
2.59796142578125
 70
   192
  0
VERTEX
  5
155
330
3C
100
AcDbEntity
  8
METAL
100
AcDbVertex
100
AcDbPolyFaceMeshVertex
 10
29.95063400268555
 20
-19.96312713623047
 30
2.59796142578125
 70
   192
  0
VERTEX
  5
156
330
3C
100
AcDbEntity
  8
METAL
100
AcDbVertex
100
AcDbPolyFaceMeshVertex
 10
29.95063400268555
 20
-19.96312713623047
 30
-2.223175048828125
 70
   192
  0
VERTEX
  5
157
330
3C
100
AcDbEntity
  8
METAL
100
AcDbVertex
100
AcDbPolyFaceMeshVertex
 10
29.95063400268555
 20
-19.96312713623047
 30
-2.223175048828125
 70
   192
  0
VERTEX
  5
158
330
3C
100
AcDbEntity
  8
METAL
100
AcDbVertex
100
AcDbPolyFaceMeshVertex
 10
29.94832229614258
 20
-19.51883697509766
 30
0.1873779296875
 70
   192
  0
VERTEX
  5
159
330
3C
100
AcDbEntity
  8
METAL
100
AcDbVertex
100
AcDbPolyFaceMeshVertex
 10
29.94832229614258
 20
-19.51883697509766
 30
0.1873779296875
 70
   192
  0
VERTEX
  5
15A
330
3C
100
AcDbEntity
  8
METAL
100
AcDbVertex
100
AcDbPolyFaceMeshVertex
 10
16.1236457824707
 20
-28.91366577148438
 30
4.344635009765625
 70
   192
  0
VERTEX
  5
15B
330
3C
100
AcDbEntity
  8
METAL
100
AcDbVertex
100
AcDbPolyFaceMeshVertex
 10
16.1236457824707
 20
-28.91614532470703
 30
-3.963897705078125
 70
   192
  0
VERTEX
  5
15C
330
3C
100
AcDbEntity
  8
METAL
100
AcDbVertex
100
AcDbPolyFaceMeshVertex
 10
16.12282180786133
 20
-28.28518676757812
 30
5.09112548828125
 70
   192
  0
VERTEX
  5
15D
330
3C
100
AcDbEntity
  8
METAL
100
AcDbVertex
100
AcDbPolyFaceMeshVertex
 10
16.12282180786133
 20
-28.29106903076172
 30
-4.69281005859375
 70
   192
  0
VERTEX
  5
15E
330
3C
100
AcDbEntity
  8
METAL
100
AcDbVertex
100
AcDbPolyFaceMeshVertex
 10
16.12060928344727
 20
-27.02405548095703
 30
5.767120361328125
 70
   192
  0
VERTEX
  5
15F
330
3C
100
AcDbEntity
  8
METAL
100
AcDbVertex
100
AcDbPolyFaceMeshVertex
 10
16.12060928344727
 20
-27.02472686767578
 30
-5.383331298828125
 70
   192
  0
VERTEX
  5
160
330
3C
100
AcDbEntity
  8
METAL
100
AcDbVertex
100
AcDbPolyFaceMeshVertex
 10
16.11603927612305
 20
-25.00376129150391
 30
5.711669921875
 70
   192
  0
VERTEX
  5
161
330
3C
100
AcDbEntity
  8
METAL
100
AcDbVertex
100
AcDbPolyFaceMeshVertex
 10
16.11603927612305
 20
-25.00848388671875
 30
-5.328887939453125
 70
   192
  0
VERTEX
  5
162
330
3C
100
AcDbEntity
  8
METAL
100
AcDbVertex
100
AcDbPolyFaceMeshVertex
 10
16.11288070678711
 20
-22.76235198974609
 30
5.07086181640625
 70
   192
  0
VERTEX
  5
163
330
3C
100
AcDbEntity
  8
METAL
100
AcDbVertex
100
AcDbPolyFaceMeshVertex
 10
16.11288070678711
 20
-22.76235198974609
 30
-4.688079833984375
 70
   192
  0
VERTEX
  5
164
330
3C
100
AcDbEntity
  8
METAL
100
AcDbVertex
100
AcDbPolyFaceMeshVertex
 10
16.11099624633789
 20
-21.42591094970703
 30
3.26385498046875
 70
   192
  0
VERTEX
  5
165
330
3C
100
AcDbEntity
  8
METAL
100
AcDbVertex
100
AcDbPolyFaceMeshVertex
 10
16.11099624633789
 20
-21.42591094970703
 30
-2.881072998046875
 70
   192
  0
VERTEX
  5
166
330
3C
100
AcDbEntity
  8
METAL
100
AcDbVertex
100
AcDbPolyFaceMeshVertex
 10
16.1103630065918
 20
-20.97988891601562
 30
0.19140625
 70
   192
  0
VERTEX
  5
167
330
3C
100
AcDbEntity
  8
METAL
100
AcDbVertex
100
AcDbPolyFaceMeshVertex
 10
0.1349682807922363
 20
-27.03334808349609
 30
6.383636474609375
 70
   192
  0
VERTEX
  5
168
330
3C
100
AcDbEntity
  8
METAL
100
AcDbVertex
100
AcDbPolyFaceMeshVertex
 10
0.1349682807922363
 20
-25.56765747070312
 30
6.31817626953125
 70
   192
  0
VERTEX
  5
169
330
3C
100
AcDbEntity
  8
METAL
100
AcDbVertex
100
AcDbPolyFaceMeshVertex
 10
0.1349682807922363
 20
-28.27472686767578
 30
5.63885498046875
 70
   192
  0
VERTEX
  5
16A
330
3C
100
AcDbEntity
  8
METAL
100
AcDbVertex
100
AcDbPolyFaceMeshVertex
 10
0.1349682807922363
 20
-23.34199523925781
 30
5.60443115234375
 70
   192
  0
VERTEX
  5
16B
330
3C
100
AcDbEntity
  8
METAL
100
AcDbVertex
100
AcDbPolyFaceMeshVertex
 10
0.1349682807922363
 20
-28.90211486816406
 30
5.037322998046875
 70
   192
  0
VERTEX
  5
16C
330
3C
100
AcDbEntity
  8
METAL
100
AcDbVertex
100
AcDbPolyFaceMeshVertex
 10
0.1349682807922363
 20
-22.00476837158203
 30
3.5987548828125
 70
   192
  0
VERTEX
  5
16D
330
3C
100
AcDbEntity
  8
METAL
100
AcDbVertex
100
AcDbPolyFaceMeshVertex
 10
0.1349682807922363
 20
-21.55844116210938
 30
0.1912841796875
 70
   192
  0
VERTEX
  5
16E
330
3C
100
AcDbEntity
  8
METAL
100
AcDbVertex
100
AcDbPolyFaceMeshVertex
 10
0.1349682807922363
 20
-22.00476837158203
 30
-3.2161865234375
 70
   192
  0
VERTEX
  5
16F
330
3C
100
AcDbEntity
  8
METAL
100
AcDbVertex
100
AcDbPolyFaceMeshVertex
 10
0.1349682807922363
 20
-28.904541015625
 30
-4.656890869140625
 70
   192
  0
VERTEX
  5
170
330
3C
100
AcDbEntity
  8
METAL
100
AcDbVertex
100
AcDbPolyFaceMeshVertex
 10
0.1349682807922363
 20
-23.34199523925781
 30
-5.221832275390625
 70
   192
  0
VERTEX
  5
171
330
3C
100
AcDbEntity
  8
METAL
100
AcDbVertex
100
AcDbPolyFaceMeshVertex
 10
0.1349682807922363
 20
-28.28046798706055
 30
-5.239776611328125
 70
   192
  0
VERTEX
  5
172
330
3C
100
AcDbEntity
  8
METAL
100
AcDbVertex
100
AcDbPolyFaceMeshVertex
 10
0.1349682807922363
 20
-25.57182312011719
 30
-5.93560791015625
 70
   192
  0
VERTEX
  5
173
330
3C
100
AcDbEntity
  8
METAL
100
AcDbVertex
100
AcDbPolyFaceMeshVertex
 10
0.1349682807922363
 20
-27.03400421142578
 30
-6.0
 70
   192
  0
VERTEX
  5
174
330
3C
100
AcDbEntity
  8
METAL
100
AcDbVertex
100
AcDbPolyFaceMeshVertex
 10
-15.84040832519531
 20
-20.97988891601562
 30
0.19140625
 70
   192
  0
VERTEX
  5
175
330
3C
100
AcDbEntity
  8
METAL
100
AcDbVertex
100
AcDbPolyFaceMeshVertex
 10
-15.84104537963867
 20
-21.42591094970703
 30
3.26385498046875
 70
   192
  0
VERTEX
  5
176
330
3C
100
AcDbEntity
  8
METAL
100
AcDbVertex
100
AcDbPolyFaceMeshVertex
 10
-15.84104537963867
 20
-21.42591094970703
 30
-2.881072998046875
 70
   192
  0
VERTEX
  5
177
330
3C
100
AcDbEntity
  8
METAL
100
AcDbVertex
100
AcDbPolyFaceMeshVertex
 10
-15.84293746948242
 20
-22.76235198974609
 30
5.07086181640625
 70
   192
  0
VERTEX
  5
178
330
3C
100
AcDbEntity
  8
METAL
100
AcDbVertex
100
AcDbPolyFaceMeshVertex
 10
-15.84293746948242
 20
-22.76235198974609
 30
-4.688079833984375
 70
   192
  0
VERTEX
  5
179
330
3C
100
AcDbEntity
  8
METAL
100
AcDbVertex
100
AcDbPolyFaceMeshVertex
 10
-15.84609985351562
 20
-25.00376129150391
 30
5.711669921875
 70
   192
  0
VERTEX
  5
17A
330
3C
100
AcDbEntity
  8
METAL
100
AcDbVertex
100
AcDbPolyFaceMeshVertex
 10
-15.84609985351562
 20
-25.00848388671875
 30
-5.328887939453125
 70
   192
  0
VERTEX
  5
17B
330
3C
100
AcDbEntity
  8
METAL
100
AcDbVertex
100
AcDbPolyFaceMeshVertex
 10
-15.85066986083984
 20
-27.02405548095703
 30
5.767120361328125
 70
   192
  0
VERTEX
  5
17C
330
3C
100
AcDbEntity
  8
METAL
100
AcDbVertex
100
AcDbPolyFaceMeshVertex
 10
-15.85066986083984
 20
-27.02472686767578
 30
-5.383331298828125
 70
   192
  0
VERTEX
  5
17D
330
3C
100
AcDbEntity
  8
METAL
100
AcDbVertex
100
AcDbPolyFaceMeshVertex
 10
-15.85287857055664
 20
-28.28518676757812
 30
5.09112548828125
 70
   192
  0
VERTEX
  5
17E
330
3C
100
AcDbEntity
  8
METAL
100
AcDbVertex
100
AcDbPolyFaceMeshVertex
 10
-15.85288619995117
 20
-28.29106903076172
 30
-4.69281005859375
 70
   192
  0
VERTEX
  5
17F
330
3C
100
AcDbEntity
  8
METAL
100
AcDbVertex
100
AcDbPolyFaceMeshVertex
 10
-15.85369873046875
 20
-28.91366577148438
 30
4.344635009765625
 70
   192
  0
VERTEX
  5
180
330
3C
100
AcDbEntity
  8
METAL
100
AcDbVertex
100
AcDbPolyFaceMeshVertex
 10
-15.85370254516602
 20
-28.91614532470703
 30
-3.963897705078125
 70
   192
  0
VERTEX
  5
181
330
3C
100
AcDbEntity
  8
METAL
100
AcDbVertex
100
AcDbPolyFaceMeshVertex
 10
-29.67838668823242
 20
-19.51883697509766
 30
0.1873779296875
 70
   192
  0
VERTEX
  5
182
330
3C
100
AcDbEntity
  8
METAL
100
AcDbVertex
100
AcDbPolyFaceMeshVertex
 10
-29.67838668823242
 20
-19.51883697509766
 30
0.1873779296875
 70
   192
  0
VERTEX
  5
183
330
3C
100
AcDbEntity
  8
METAL
100
AcDbVertex
100
AcDbPolyFaceMeshVertex
 10
-29.68067932128906
 20
-19.96312713623047
 30
2.59796142578125
 70
   192
  0
VERTEX
  5
184
330
3C
100
AcDbEntity
  8
METAL
100
AcDbVertex
100
AcDbPolyFaceMeshVertex
 10
-29.68067932128906
 20
-19.96312713623047
 30
2.59796142578125
 70
   192
  0
VERTEX
  5
185
330
3C
100
AcDbEntity
  8
METAL
100
AcDbVertex
100
AcDbPolyFaceMeshVertex
 10
-29.68067932128906
 20
-19.96312713623047
 30
-2.223175048828125
 70
   192
  0
VERTEX
  5
186
330
3C
100
AcDbEntity
  8
METAL
100
AcDbVertex
100
AcDbPolyFaceMeshVertex
 10
-29.68067932128906
 20
-19.96312713623047
 30
-2.223175048828125
 70
   192
  0
VERTEX
  5
187
330
3C
100
AcDbEntity
  8
METAL
100
AcDbVertex
100
AcDbPolyFaceMeshVertex
 10
-29.68667602539062
 20
-27.6844596862793
 30
-2.74163818359375
 70
   192
  0
VERTEX
  5
188
330
3C
100
AcDbEntity
  8
METAL
100
AcDbVertex
100
AcDbPolyFaceMeshVertex
 10
-29.68667602539062
 20
-27.6844596862793
 30
-2.74163818359375
 70
   192
  0
VERTEX
  5
189
330
3C
100
AcDbEntity
  8
METAL
100
AcDbVertex
100
AcDbPolyFaceMeshVertex
 10
-29.68754768371582
 20
-21.29512786865234
 30
4.008209228515625
 70
   192
  0
VERTEX
  5
18A
330
3C
100
AcDbEntity
  8
METAL
100
AcDbVertex
100
AcDbPolyFaceMeshVertex
 10
-29.68754768371582
 20
-21.29512786865234
 30
4.008209228515625
 70
   192
  0
VERTEX
  5
18B
330
3C
100
AcDbEntity
  8
METAL
100
AcDbVertex
100
AcDbPolyFaceMeshVertex
 10
-29.68754768371582
 20
-21.29512786865234
 30
-3.6334228515625
 70
   192
  0
VERTEX
  5
18C
330
3C
100
AcDbEntity
  8
METAL
100
AcDbVertex
100
AcDbPolyFaceMeshVertex
 10
-29.68754768371582
 20
-21.29512786865234
 30
-3.6334228515625
 70
   192
  0
VERTEX
  5
18D
330
3C
100
AcDbEntity
  8
METAL
100
AcDbVertex
100
AcDbPolyFaceMeshVertex
 10
-29.68799209594727
 20
-27.68003845214844
 30
3.117767333984375
 70
   192
  0
VERTEX
  5
18E
330
3C
100
AcDbEntity
  8
METAL
100
AcDbVertex
100
AcDbPolyFaceMeshVertex
 10
-29.68799209594727
 20
-27.68003845214844
 30
3.117767333984375
 70
   192
  0
VERTEX
  5
18F
330
3C
100
AcDbEntity
  8
METAL
100
AcDbVertex
100
AcDbPolyFaceMeshVertex
 10
-29.69612121582031
 20
-23.46541595458984
 30
4.496734619140625
 70
   192
  0
VERTEX
  5
190
330
3C
100
AcDbEntity
  8
METAL
100
AcDbVertex
100
AcDbPolyFaceMeshVertex
 10
-29.69612121582031
 20
-23.46541595458984
 30
4.496734619140625
 70
   192
  0
VERTEX
  5
191
330
3C
100
AcDbEntity
  8
METAL
100
AcDbVertex
100
AcDbPolyFaceMeshVertex
 10
-29.69612121582031
 20
-23.46541595458984
 30
-4.1219482421875
 70
   192
  0
VERTEX
  5
192
330
3C
100
AcDbEntity
  8
METAL
100
AcDbVertex
100
AcDbPolyFaceMeshVertex
 10
-29.69612121582031
 20
-23.46541595458984
 30
-4.1219482421875
 70
   192
  0
VERTEX
  5
193
330
3C
100
AcDbEntity
  8
METAL
100
AcDbVertex
100
AcDbPolyFaceMeshVertex
 10
-29.70281219482422
 20
-23.50633239746094
 30
-3.5782470703125
 70
   192
  0
VERTEX
  5
194
330
3C
100
AcDbEntity
  8
METAL
100
AcDbVertex
100
AcDbPolyFaceMeshVertex
 10
-29.70281219482422
 20
-23.50633239746094
 30
-3.5782470703125
 70
   192
  0
VERTEX
  5
195
330
3C
100
AcDbEntity
  8
METAL
100
AcDbVertex
100
AcDbPolyFaceMeshVertex
 10
-29.70588111877441
 20
-23.50638580322266
 30
3.953155517578125
 70
   192
  0
VERTEX
  5
196
330
3C
100
AcDbEntity
  8
METAL
100
AcDbVertex
100
AcDbPolyFaceMeshVertex
 10
-29.70588111877441
 20
-23.50638580322266
 30
3.953155517578125
 70
   192
  0
VERTEX
  5
197
330
3C
100
AcDbEntity
  8
METAL
100
AcDbVertex
100
AcDbPolyFaceMeshVertex
 10
-29.70588684082031
 20
-27.23678970336914
 30
-3.09771728515625
 70
   192
  0
VERTEX
  5
198
330
3C
100
AcDbEntity
  8
METAL
100
AcDbVertex
100
AcDbPolyFaceMeshVertex
 10
-29.70588684082031
 20
-27.23678970336914
 30
-3.09771728515625
 70
   192
  0
VERTEX
  5
199
330
3C
100
AcDbEntity
  8
METAL
100
AcDbVertex
100
AcDbPolyFaceMeshVertex
 10
-29.70597839355469
 20
-21.48239898681641
 30
-3.138946533203125
 70
   192
  0
VERTEX
  5
19A
330
3C
100
AcDbEntity
  8
METAL
100
AcDbVertex
100
AcDbPolyFaceMeshVertex
 10
-29.70597839355469
 20
-21.48239898681641
 30
-3.138946533203125
 70
   192
  0
VERTEX
  5
19B
330
3C
100
AcDbEntity
  8
METAL
100
AcDbVertex
100
AcDbPolyFaceMeshVertex
 10
-29.70737648010254
 20
-19.96205902099609
 30
0.187774658203125
 70
   192
  0
VERTEX
  5
19C
330
3C
100
AcDbEntity
  8
METAL
100
AcDbVertex
100
AcDbPolyFaceMeshVertex
 10
-29.70737648010254
 20
-19.96205902099609
 30
0.187774658203125
 70
   192
  0
VERTEX
  5
19D
330
3C
100
AcDbEntity
  8
METAL
100
AcDbVertex
100
AcDbPolyFaceMeshVertex
 10
-29.70781326293945
 20
-20.341796875
 30
-1.93994140625
 70
   192
  0
VERTEX
  5
19E
330
3C
100
AcDbEntity
  8
METAL
100
AcDbVertex
100
AcDbPolyFaceMeshVertex
 10
-29.70781326293945
 20
-20.341796875
 30
-1.93994140625
 70
   192
  0
VERTEX
  5
19F
330
3C
100
AcDbEntity
  8
METAL
100
AcDbVertex
100
AcDbPolyFaceMeshVertex
 10
-29.70795059204102
 20
-25.99103546142578
 30
-3.608001708984375
 70
   192
  0
VERTEX
  5
1A0
330
3C
100
AcDbEntity
  8
METAL
100
AcDbVertex
100
AcDbPolyFaceMeshVertex
 10
-29.70795059204102
 20
-25.99103546142578
 30
-3.608001708984375
 70
   192
  0
VERTEX
  5
1A1
330
3C
100
AcDbEntity
  8
METAL
100
AcDbVertex
100
AcDbPolyFaceMeshVertex
 10
-29.70876121520996
 20
-27.22872161865234
 30
3.48883056640625
 70
   192
  0
VERTEX
  5
1A2
330
3C
100
AcDbEntity
  8
METAL
100
AcDbVertex
100
AcDbPolyFaceMeshVertex
 10
-29.70876121520996
 20
-27.22872161865234
 30
3.48883056640625
 70
   192
  0
VERTEX
  5
1A3
330
3C
100
AcDbEntity
  8
METAL
100
AcDbVertex
100
AcDbPolyFaceMeshVertex
 10
-29.7088508605957
 20
-21.48255157470703
 30
3.51409912109375
 70
   192
  0
VERTEX
  5
1A4
330
3C
100
AcDbEntity
  8
METAL
100
AcDbVertex
100
AcDbPolyFaceMeshVertex
 10
-29.7088508605957
 20
-21.48255157470703
 30
3.51409912109375
 70
   192
  0
VERTEX
  5
1A5
330
3C
100
AcDbEntity
  8
METAL
100
AcDbVertex
100
AcDbPolyFaceMeshVertex
 10
-29.70948028564453
 20
-20.34201812744141
 30
2.31561279296875
 70
   192
  0
VERTEX
  5
1A6
330
3C
100
AcDbEntity
  8
METAL
100
AcDbVertex
100
AcDbPolyFaceMeshVertex
 10
-29.70948028564453
 20
-20.34201812744141
 30
2.31561279296875
 70
   192
  0
VERTEX
  5
1A7
330
3C
100
AcDbEntity
  8
METAL
100
AcDbVertex
100
AcDbPolyFaceMeshVertex
 10
-29.7110767364502
 20
-25.99175262451172
 30
3.983428955078125
 70
   192
  0
VERTEX
  5
1A8
330
3C
100
AcDbEntity
  8
METAL
100
AcDbVertex
100
AcDbPolyFaceMeshVertex
 10
-29.7110767364502
 20
-25.99175262451172
 30
3.983428955078125
 70
   192
  0
VERTEX
  5
1A9
330
3C
100
AcDbEntity
  8
METAL
100
AcDbVertex
100
AcDbPolyFaceMeshVertex
 10
-29.7126407623291
 20
-26.06610870361328
 30
4.521881103515625
 70
   192
  0
VERTEX
  5
1AA
330
3C
100
AcDbEntity
  8
METAL
100
AcDbVertex
100
AcDbPolyFaceMeshVertex
 10
-29.7126407623291
 20
-26.06610870361328
 30
4.521881103515625
 70
   192
  0
VERTEX
  5
1AB
330
3C
100
AcDbEntity
  8
METAL
100
AcDbVertex
100
AcDbPolyFaceMeshVertex
 10
-29.7126407623291
 20
-26.06687164306641
 30
-4.146087646484375
 70
   192
  0
VERTEX
  5
1AC
330
3C
100
AcDbEntity
  8
METAL
100
AcDbVertex
100
AcDbPolyFaceMeshVertex
 10
-29.7126407623291
 20
-26.06687164306641
 30
-4.146087646484375
 70
   192
  0
VERTEX
  5
1AD
330
3C
100
AcDbEntity
  8
METAL
100
AcDbVertex
100
AcDbPolyFaceMeshVertex
 10
-29.72065925598145
 20
-27.44055938720703
 30
3.96868896484375
 70
   192
  0
VERTEX
  5
1AE
330
3C
100
AcDbEntity
  8
METAL
100
AcDbVertex
100
AcDbPolyFaceMeshVertex
 10
-29.72065925598145
 20
-27.44055938720703
 30
3.96868896484375
 70
   192
  0
VERTEX
  5
1AF
330
3C
100
AcDbEntity
  8
METAL
100
AcDbVertex
100
AcDbPolyFaceMeshVertex
 10
-29.72067642211914
 20
-27.44723510742188
 30
-3.578277587890625
 70
   192
  0
VERTEX
  5
1B0
330
3C
100
AcDbEntity
  8
METAL
100
AcDbVertex
100
AcDbPolyFaceMeshVertex
 10
-29.72067642211914
 20
-27.44723510742188
 30
-3.578277587890625
 70
   192
  0
VERTEX
  5
1B1
330
3C
100
AcDbEntity
  8
METAL
100
AcDbVertex
100
AcDbPolyFaceMeshVertex
 10
-29.72363662719727
 20
-28.07532119750977
 30
3.361541748046875
 70
   192
  0
VERTEX
  5
1B2
330
3C
100
AcDbEntity
  8
METAL
100
AcDbVertex
100
AcDbPolyFaceMeshVertex
 10
-29.72363662719727
 20
-28.07532119750977
 30
3.361541748046875
 70
   192
  0
VERTEX
  5
1B3
330
3C
100
AcDbEntity
  8
METAL
100
AcDbVertex
100
AcDbPolyFaceMeshVertex
 10
-29.72364807128906
 20
-28.07813262939453
 30
-2.988800048828125
 70
   192
  0
VERTEX
  5
1B4
330
3C
100
AcDbEntity
  8
METAL
100
AcDbVertex
100
AcDbPolyFaceMeshVertex
 10
-29.72364807128906
 20
-28.07813262939453
 30
-2.988800048828125
 70
   192
  0
VERTEX
  5
1B5
330
3C
100
AcDbEntity
  8
METAL
100
AcDbVertex
100
AcDbPolyFaceMeshVertex
 10
-30.3311939239502
 20
-19.44344329833984
 30
0.192535400390625
 70
   192
  0
VERTEX
  5
1B6
330
3C
100
AcDbEntity
  8
METAL
100
AcDbVertex
100
AcDbPolyFaceMeshVertex
 10
-30.3311939239502
 20
-19.44344329833984
 30
0.192535400390625
 70
   192
  0
VERTEX
  5
1B7
330
3C
100
AcDbEntity
  8
METAL
100
AcDbVertex
100
AcDbPolyFaceMeshVertex
 10
-30.33649635314941
 20
-19.88704681396484
 30
2.622161865234375
 70
   192
  0
VERTEX
  5
1B8
330
3C
100
AcDbEntity
  8
METAL
100
AcDbVertex
100
AcDbPolyFaceMeshVertex
 10
-30.33649635314941
 20
-19.88704681396484
 30
2.622161865234375
 70
   192
  0
VERTEX
  5
1B9
330
3C
100
AcDbEntity
  8
METAL
100
AcDbVertex
100
AcDbPolyFaceMeshVertex
 10
-30.33649635314941
 20
-19.88704681396484
 30
-2.237091064453125
 70
   192
  0
VERTEX
  5
1BA
330
3C
100
AcDbEntity
  8
METAL
100
AcDbVertex
100
AcDbPolyFaceMeshVertex
 10
-30.33649635314941
 20
-19.88704681396484
 30
-2.237091064453125
 70
   192
  0
VERTEX
  5
1BB
330
3C
100
AcDbEntity
  8
METAL
100
AcDbVertex
100
AcDbPolyFaceMeshVertex
 10
-30.3524112701416
 20
-21.21726989746094
 30
4.03997802734375
 70
   192
  0
VERTEX
  5
1BC
330
3C
100
AcDbEntity
  8
METAL
100
AcDbVertex
100
AcDbPolyFaceMeshVertex
 10
-30.3524112701416
 20
-21.21726989746094
 30
4.03997802734375
 70
   192
  0
VERTEX
  5
1BD
330
3C
100
AcDbEntity
  8
METAL
100
AcDbVertex
100
AcDbPolyFaceMeshVertex
 10
-30.3524112701416
 20
-21.21726989746094
 30
-3.654937744140625
 70
   192
  0
VERTEX
  5
1BE
330
3C
100
AcDbEntity
  8
METAL
100
AcDbVertex
100
AcDbPolyFaceMeshVertex
 10
-30.3524112701416
 20
-21.21726989746094
 30
-3.654937744140625
 70
   192
  0
VERTEX
  5
1BF
330
3C
100
AcDbEntity
  8
METAL
100
AcDbVertex
100
AcDbPolyFaceMeshVertex
 10
-30.36018371582031
 20
-19.88666534423828
 30
0.192169189453125
 70
   192
  0
VERTEX
  5
1C0
330
3C
100
AcDbEntity
  8
METAL
100
AcDbVertex
100
AcDbPolyFaceMeshVertex
 10
-30.36018371582031
 20
-19.88666534423828
 30
0.192169189453125
 70
   192
  0
VERTEX
  5
1C1
330
3C
100
AcDbEntity
  8
METAL
100
AcDbVertex
100
AcDbPolyFaceMeshVertex
 10
-30.36378479003906
 20
-20.26876068115234
 30
-1.960113525390625
 70
   192
  0
VERTEX
  5
1C2
330
3C
100
AcDbEntity
  8
METAL
100
AcDbVertex
100
AcDbPolyFaceMeshVertex
 10
-30.36378479003906
 20
-20.26876068115234
 30
-1.960113525390625
 70
   192
  0
VERTEX
  5
1C3
330
3C
100
AcDbEntity
  8
METAL
100
AcDbVertex
100
AcDbPolyFaceMeshVertex
 10
-30.36538887023926
 20
-20.26822662353516
 30
2.344512939453125
 70
   192
  0
VERTEX
  5
1C4
330
3C
100
AcDbEntity
  8
METAL
100
AcDbVertex
100
AcDbPolyFaceMeshVertex
 10
-30.36538887023926
 20
-20.26822662353516
 30
2.344512939453125
 70
   192
  0
VERTEX
  5
1C5
330
3C
100
AcDbEntity
  8
METAL
100
AcDbVertex
100
AcDbPolyFaceMeshVertex
 10
-30.37129974365234
 20
-21.41226959228516
 30
-3.165008544921875
 70
   192
  0
VERTEX
  5
1C6
330
3C
100
AcDbEntity
  8
METAL
100
AcDbVertex
100
AcDbPolyFaceMeshVertex
 10
-30.37129974365234
 20
-21.41226959228516
 30
-3.165008544921875
 70
   192
  0
VERTEX
  5
1C7
330
3C
100
AcDbEntity
  8
METAL
100
AcDbVertex
100
AcDbPolyFaceMeshVertex
 10
-30.37411117553711
 20
-21.41184234619141
 30
3.55010986328125
 70
   192
  0
VERTEX
  5
1C8
330
3C
100
AcDbEntity
  8
METAL
100
AcDbVertex
100
AcDbPolyFaceMeshVertex
 10
-30.37411117553711
 20
-21.41184234619141
 30
3.55010986328125
 70
   192
  0
VERTEX
  5
1C9
330
3C
100
AcDbEntity
  8
METAL
100
AcDbVertex
100
AcDbPolyFaceMeshVertex
 10
-30.37893295288086
 20
-23.43245697021484
 30
4.525604248046875
 70
   192
  0
VERTEX
  5
1CA
330
3C
100
AcDbEntity
  8
METAL
100
AcDbVertex
100
AcDbPolyFaceMeshVertex
 10
-30.37893295288086
 20
-23.43245697021484
 30
4.525604248046875
 70
   192
  0
VERTEX
  5
1CB
330
3C
100
AcDbEntity
  8
METAL
100
AcDbVertex
100
AcDbPolyFaceMeshVertex
 10
-30.37893295288086
 20
-23.43245697021484
 30
-4.14056396484375
 70
   192
  0
VERTEX
  5
1CC
330
3C
100
AcDbEntity
  8
METAL
100
AcDbVertex
100
AcDbPolyFaceMeshVertex
 10
-30.37893295288086
 20
-23.43245697021484
 30
-4.14056396484375
 70
   192
  0
VERTEX
  5
1CD
330
3C
100
AcDbEntity
  8
METAL
100
AcDbVertex
100
AcDbPolyFaceMeshVertex
 10
-30.38560676574707
 20
-23.47293853759766
 30
-3.5968017578125
 70
   192
  0
VERTEX
  5
1CE
330
3C
100
AcDbEntity
  8
METAL
100
AcDbVertex
100
AcDbPolyFaceMeshVertex
 10
-30.38560676574707
 20
-23.47293853759766
 30
-3.5968017578125
 70
   192
  0
VERTEX
  5
1CF
330
3C
100
AcDbEntity
  8
METAL
100
AcDbVertex
100
AcDbPolyFaceMeshVertex
 10
-30.3886775970459
 20
-23.47290802001953
 30
3.981964111328125
 70
   192
  0
VERTEX
  5
1D0
330
3C
100
AcDbEntity
  8
METAL
100
AcDbVertex
100
AcDbPolyFaceMeshVertex
 10
-30.3886775970459
 20
-23.47290802001953
 30
3.981964111328125
 70
   192
  0
VERTEX
  5
1D1
330
3C
100
AcDbEntity
  8
METAL
100
AcDbVertex
100
AcDbPolyFaceMeshVertex
 10
-30.40666198730469
 20
-27.59639358520508
 30
-2.668853759765625
 70
   192
  0
VERTEX
  5
1D2
330
3C
100
AcDbEntity
  8
METAL
100
AcDbVertex
100
AcDbPolyFaceMeshVertex
 10
-30.40666198730469
 20
-27.59639358520508
 30
-2.668853759765625
 70
   192
  0
VERTEX
  5
1D3
330
3C
100
AcDbEntity
  8
METAL
100
AcDbVertex
100
AcDbPolyFaceMeshVertex
 10
-30.40775299072266
 20
-27.59284210205078
 30
3.052886962890625
 70
   192
  0
VERTEX
  5
1D4
330
3C
100
AcDbEntity
  8
METAL
100
AcDbVertex
100
AcDbPolyFaceMeshVertex
 10
-30.40775299072266
 20
-27.59284210205078
 30
3.052886962890625
 70
   192
  0
VERTEX
  5
1D5
330
3C
100
AcDbEntity
  8
METAL
100
AcDbVertex
100
AcDbPolyFaceMeshVertex
 10
-30.41357040405273
 20
-25.87776947021484
 30
-3.615875244140625
 70
   192
  0
VERTEX
  5
1D6
330
3C
100
AcDbEntity
  8
METAL
100
AcDbVertex
100
AcDbPolyFaceMeshVertex
 10
-30.41357040405273
 20
-25.87776947021484
 30
-3.615875244140625
 70
   192
  0
VERTEX
  5
1D7
330
3C
100
AcDbEntity
  8
METAL
100
AcDbVertex
100
AcDbPolyFaceMeshVertex
 10
-30.41670799255371
 20
-25.87847137451172
 30
4.001708984375
 70
   192
  0
VERTEX
  5
1D8
330
3C
100
AcDbEntity
  8
METAL
100
AcDbVertex
100
AcDbPolyFaceMeshVertex
 10
-30.41670799255371
 20
-25.87847137451172
 30
4.001708984375
 70
   192
  0
VERTEX
  5
1D9
330
3C
100
AcDbEntity
  8
METAL
100
AcDbVertex
100
AcDbPolyFaceMeshVertex
 10
-30.41718482971191
 20
-25.94214630126953
 30
4.542236328125
 70
   192
  0
VERTEX
  5
1DA
330
3C
100
AcDbEntity
  8
METAL
100
AcDbVertex
100
AcDbPolyFaceMeshVertex
 10
-30.41718482971191
 20
-25.94214630126953
 30
4.542236328125
 70
   192
  0
VERTEX
  5
1DB
330
3C
100
AcDbEntity
  8
METAL
100
AcDbVertex
100
AcDbPolyFaceMeshVertex
 10
-30.41718864440918
 20
-25.94293975830078
 30
-4.156097412109375
 70
   192
  0
VERTEX
  5
1DC
330
3C
100
AcDbEntity
  8
METAL
100
AcDbVertex
100
AcDbPolyFaceMeshVertex
 10
-30.41718864440918
 20
-25.94293975830078
 30
-4.156097412109375
 70
   192
  0
VERTEX
  5
1DD
330
3C
100
AcDbEntity
  8
METAL
100
AcDbVertex
100
AcDbPolyFaceMeshVertex
 10
-30.42049026489258
 20
-27.14990997314453
 30
-3.0966796875
 70
   192
  0
VERTEX
  5
1DE
330
3C
100
AcDbEntity
  8
METAL
100
AcDbVertex
100
AcDbPolyFaceMeshVertex
 10
-30.42049026489258
 20
-27.14990997314453
 30
-3.0966796875
 70
   192
  0
VERTEX
  5
1DF
330
3C
100
AcDbEntity
  8
METAL
100
AcDbVertex
100
AcDbPolyFaceMeshVertex
 10
-30.42336654663086
 20
-27.1424560546875
 30
3.499176025390625
 70
   192
  0
VERTEX
  5
1E0
330
3C
100
AcDbEntity
  8
METAL
100
AcDbVertex
100
AcDbPolyFaceMeshVertex
 10
-30.42336654663086
 20
-27.1424560546875
 30
3.499176025390625
 70
   192
  0
VERTEX
  5
1E1
330
3C
100
AcDbEntity
  8
METAL
100
AcDbVertex
100
AcDbPolyFaceMeshVertex
 10
-30.43575286865234
 20
-27.36191940307617
 30
3.97381591796875
 70
   192
  0
VERTEX
  5
1E2
330
3C
100
AcDbEntity
  8
METAL
100
AcDbVertex
100
AcDbPolyFaceMeshVertex
 10
-30.43575286865234
 20
-27.36191940307617
 30
3.97381591796875
 70
   192
  0
VERTEX
  5
1E3
330
3C
100
AcDbEntity
  8
METAL
100
AcDbVertex
100
AcDbPolyFaceMeshVertex
 10
-30.435791015625
 20
-27.36891937255859
 30
-3.5714111328125
 70
   192
  0
VERTEX
  5
1E4
330
3C
100
AcDbEntity
  8
METAL
100
AcDbVertex
100
AcDbPolyFaceMeshVertex
 10
-30.435791015625
 20
-27.36891937255859
 30
-3.5714111328125
 70
   192
  0
VERTEX
  5
1E5
330
3C
100
AcDbEntity
  8
METAL
100
AcDbVertex
100
AcDbPolyFaceMeshVertex
 10
-30.44264793395996
 20
-27.99919891357422
 30
3.267791748046875
 70
   192
  0
VERTEX
  5
1E6
330
3C
100
AcDbEntity
  8
METAL
100
AcDbVertex
100
AcDbPolyFaceMeshVertex
 10
-30.44264793395996
 20
-27.99919891357422
 30
3.267791748046875
 70
   192
  0
VERTEX
  5
1E7
330
3C
100
AcDbEntity
  8
METAL
100
AcDbVertex
100
AcDbPolyFaceMeshVertex
 10
-30.44267463684082
 20
-28.00213623046875
 30
-2.885009765625
 70
   192
  0
VERTEX
  5
1E8
330
3C
100
AcDbEntity
  8
METAL
100
AcDbVertex
100
AcDbPolyFaceMeshVertex
 10
-30.44267463684082
 20
-28.00213623046875
 30
-2.885009765625
 70
   192
  0
VERTEX
  5
1E9
330
3C
100
AcDbEntity
  8
METAL
100
AcDbVertex
100
AcDbPolyFaceMeshVertex
 10
-37.89800262451172
 20
-17.23173522949219
 30
0.1920166015625
 70
   192
  0
VERTEX
  5
1EA
330
3C
100
AcDbEntity
  8
METAL
100
AcDbVertex
100
AcDbPolyFaceMeshVertex
 10
-38.80962371826172
 20
-17.6495361328125
 30
1.620330810546875
 70
   192
  0
VERTEX
  5
1EB
330
3C
100
AcDbEntity
  8
METAL
100
AcDbVertex
100
AcDbPolyFaceMeshVertex
 10
-38.80962371826172
 20
-17.6495361328125
 30
-1.236328125
 70
   192
  0
VERTEX
  5
1EC
330
3C
100
AcDbEntity
  8
METAL
100
AcDbVertex
100
AcDbPolyFaceMeshVertex
 10
-39.76372909545898
 20
-16.23776245117188
 30
0.1920166015625
 70
   192
  0
VERTEX
  5
1ED
330
3C
100
AcDbEntity
  8
METAL
100
AcDbVertex
100
AcDbPolyFaceMeshVertex
 10
-39.76372909545898
 20
-16.23776245117188
 30
0.1920166015625
 70
   192
  0
VERTEX
  5
1EE
330
3C
100
AcDbEntity
  8
METAL
100
AcDbVertex
100
AcDbPolyFaceMeshVertex
 10
-40.42316055297852
 20
-15.67071533203125
 30
0.1920166015625
 70
   192
  0
VERTEX
  5
1EF
330
3C
100
AcDbEntity
  8
METAL
100
AcDbVertex
100
AcDbPolyFaceMeshVertex
 10
-40.42316055297852
 20
-15.67071533203125
 30
0.1920166015625
 70
   192
  0
VERTEX
  5
1F0
330
3C
100
AcDbEntity
  8
METAL
100
AcDbVertex
100
AcDbPolyFaceMeshVertex
 10
-40.67534637451172
 20
-16.65557098388672
 30
1.620330810546875
 70
   192
  0
VERTEX
  5
1F1
330
3C
100
AcDbEntity
  8
METAL
100
AcDbVertex
100
AcDbPolyFaceMeshVertex
 10
-40.67534637451172
 20
-16.65557098388672
 30
-1.236328125
 70
   192
  0
VERTEX
  5
1F2
330
3C
100
AcDbEntity
  8
METAL
100
AcDbVertex
100
AcDbPolyFaceMeshVertex
 10
-41.08259963989258
 20
-15.10366058349609
 30
0.1920166015625
 70
   192
  0
VERTEX
  5
1F3
330
3C
100
AcDbEntity
  8
METAL
100
AcDbVertex
100
AcDbPolyFaceMeshVertex
 10
-41.08259963989258
 20
-15.10366058349609
 30
0.1920166015625
 70
   192
  0
VERTEX
  5
1F4
330
3C
100
AcDbEntity
  8
METAL
100
AcDbVertex
100
AcDbPolyFaceMeshVertex
 10
-41.32112884521484
 20
-14.67305755615234
 30
0.1920166015625
 70
   192
  0
VERTEX
  5
1F5
330
3C
100
AcDbEntity
  8
METAL
100
AcDbVertex
100
AcDbPolyFaceMeshVertex
 10
-41.32112884521484
 20
-14.67305755615234
 30
0.1920166015625
 70
   192
  0
VERTEX
  5
1F6
330
3C
100
AcDbEntity
  8
METAL
100
AcDbVertex
100
AcDbPolyFaceMeshVertex
 10
-41.33478546142578
 20
-16.08851623535156
 30
1.620330810546875
 70
   192
  0
VERTEX
  5
1F7
330
3C
100
AcDbEntity
  8
METAL
100
AcDbVertex
100
AcDbPolyFaceMeshVertex
 10
-41.33478546142578
 20
-16.08851623535156
 30
-1.236328125
 70
   192
  0
VERTEX
  5
1F8
330
3C
100
AcDbEntity
  8
METAL
100
AcDbVertex
100
AcDbPolyFaceMeshVertex
 10
-41.46670913696289
 20
0.0
 30
0.1920166015625
 70
   192
  0
VERTEX
  5
1F9
330
3C
100
AcDbEntity
  8
METAL
100
AcDbVertex
100
AcDbPolyFaceMeshVertex
 10
-41.46670913696289
 20
0.0
 30
0.1920166015625
 70
   192
  0
VERTEX
  5
1FA
330
3C
100
AcDbEntity
  8
METAL
100
AcDbVertex
100
AcDbPolyFaceMeshVertex
 10
-41.54450225830078
 20
-18.90296173095703
 30
2.448944091796875
 70
   192
  0
VERTEX
  5
1FB
330
3C
100
AcDbEntity
  8
METAL
100
AcDbVertex
100
AcDbPolyFaceMeshVertex
 10
-41.54450225830078
 20
-18.90296173095703
 30
-2.06494140625
 70
   192
  0
VERTEX
  5
1FC
330
3C
100
AcDbEntity
  8
METAL
100
AcDbVertex
100
AcDbPolyFaceMeshVertex
 10
-41.55965423583984
 20
-14.24244689941406
 30
0.1920166015625
 70
   192
  0
VERTEX
  5
1FD
330
3C
100
AcDbEntity
  8
METAL
100
AcDbVertex
100
AcDbPolyFaceMeshVertex
 10
-41.91996002197266
 20
0.0
 30
2.695037841796875
 70
   192
  0
VERTEX
  5
1FE
330
3C
100
AcDbEntity
  8
METAL
100
AcDbVertex
100
AcDbPolyFaceMeshVertex
 10
-41.91996002197266
 20
0.0
 30
2.695037841796875
 70
   192
  0
VERTEX
  5
1FF
330
3C
100
AcDbEntity
  8
METAL
100
AcDbVertex
100
AcDbPolyFaceMeshVertex
 10
-41.91996002197266
 20
0.0
 30
-2.311004638671875
 70
   192
  0
VERTEX
  5
200
330
3C
100
AcDbEntity
  8
METAL
100
AcDbVertex
100
AcDbPolyFaceMeshVertex
 10
-41.91996002197266
 20
0.0
 30
-2.311004638671875
 70
   192
  0
VERTEX
  5
201
330
3C
100
AcDbEntity
  8
METAL
100
AcDbVertex
100
AcDbPolyFaceMeshVertex
 10
-41.94015121459961
 20
-3.946914672851562
 30
0.1920166015625
 70
   192
  0
VERTEX
  5
202
330
3C
100
AcDbEntity
  8
METAL
100
AcDbVertex
100
AcDbPolyFaceMeshVertex
 10
-41.98286819458008
 20
-13.40581512451172
 30
0.1920166015625
 70
   192
  0
VERTEX
  5
203
330
3C
100
AcDbEntity
  8
METAL
100
AcDbVertex
100
AcDbPolyFaceMeshVertex
 10
-41.99422454833984
 20
-15.52146911621094
 30
1.620330810546875
 70
   192
  0
VERTEX
  5
204
330
3C
100
AcDbEntity
  8
METAL
100
AcDbVertex
100
AcDbPolyFaceMeshVertex
 10
-41.99422454833984
 20
-15.52146911621094
 30
-1.236328125
 70
   192
  0
VERTEX
  5
205
330
3C
100
AcDbEntity
  8
METAL
100
AcDbVertex
100
AcDbPolyFaceMeshVertex
 10
-42.23089599609375
 20
-15.06908416748047
 30
1.69842529296875
 70
   192
  0
VERTEX
  5
206
330
3C
100
AcDbEntity
  8
METAL
100
AcDbVertex
100
AcDbPolyFaceMeshVertex
 10
-42.23089599609375
 20
-15.06908416748047
 30
-1.31439208984375
 70
   192
  0
VERTEX
  5
207
330
3C
100
AcDbEntity
  8
METAL
100
AcDbVertex
100
AcDbPolyFaceMeshVertex
 10
-42.33958435058594
 20
-12.48252868652344
 30
0.1920166015625
 70
   192
  0
VERTEX
  5
208
330
3C
100
AcDbEntity
  8
METAL
100
AcDbVertex
100
AcDbPolyFaceMeshVertex
 10
-42.39286041259766
 20
-12.13165283203125
 30
0.1920166015625
 70
   192
  0
VERTEX
  5
209
330
3C
100
AcDbEntity
  8
METAL
100
AcDbVertex
100
AcDbPolyFaceMeshVertex
 10
-42.39340209960938
 20
-3.946914672851562
 30
2.695037841796875
 70
   192
  0
VERTEX
  5
20A
330
3C
100
AcDbEntity
  8
METAL
100
AcDbVertex
100
AcDbPolyFaceMeshVertex
 10
-42.39340209960938
 20
-3.946914672851562
 30
-2.311004638671875
 70
   192
  0
VERTEX
  5
20B
330
3C
100
AcDbEntity
  8
METAL
100
AcDbVertex
100
AcDbPolyFaceMeshVertex
 10
-42.45612335205078
 20
-8.601036071777344
 30
0.1920166015625
 70
   192
  0
VERTEX
  5
20C
330
3C
100
AcDbEntity
  8
METAL
100
AcDbVertex
100
AcDbPolyFaceMeshVertex
 10
-42.46757507324219
 20
-14.61669921875
 30
1.776519775390625
 70
   192
  0
VERTEX
  5
20D
330
3C
100
AcDbEntity
  8
METAL
100
AcDbVertex
100
AcDbPolyFaceMeshVertex
 10
-42.46757507324219
 20
-14.61669921875
 30
-1.392486572265625
 70
   192
  0
VERTEX
  5
20E
330
3C
100
AcDbEntity
  8
METAL
100
AcDbVertex
100
AcDbPolyFaceMeshVertex
 10
-42.60102462768555
 20
-10.42950439453125
 30
0.1920166015625
 70
   192
  0
VERTEX
  5
20F
330
3C
100
AcDbEntity
  8
METAL
100
AcDbVertex
100
AcDbPolyFaceMeshVertex
 10
-42.85429000854492
 20
-13.73609924316406
 30
2.02008056640625
 70
   192
  0
VERTEX
  5
210
330
3C
100
AcDbEntity
  8
METAL
100
AcDbVertex
100
AcDbPolyFaceMeshVertex
 10
-42.85429000854492
 20
-13.73609924316406
 30
-1.636077880859375
 70
   192
  0
VERTEX
  5
211
330
3C
100
AcDbEntity
  8
METAL
100
AcDbVertex
100
AcDbPolyFaceMeshVertex
 10
-43.01901245117188
 20
0.0
 30
4.1470947265625
 70
   192
  0
VERTEX
  5
212
330
3C
100
AcDbEntity
  8
METAL
100
AcDbVertex
100
AcDbPolyFaceMeshVertex
 10
-43.01901245117188
 20
0.0
 30
4.1470947265625
 70
   192
  0
VERTEX
  5
213
330
3C
100
AcDbEntity
  8
METAL
100
AcDbVertex
100
AcDbPolyFaceMeshVertex
 10
-43.01901245117188
 20
0.0
 30
-3.7630615234375
 70
   192
  0
VERTEX
  5
214
330
3C
100
AcDbEntity
  8
METAL
100
AcDbVertex
100
AcDbPolyFaceMeshVertex
 10
-43.01901245117188
 20
0.0
 30
-3.7630615234375
 70
   192
  0
VERTEX
  5
215
330
3C
100
AcDbEntity
  8
METAL
100
AcDbVertex
100
AcDbPolyFaceMeshVertex
 10
-43.12129211425781
 20
-8.737152099609375
 30
2.59820556640625
 70
   192
  0
VERTEX
  5
216
330
3C
100
AcDbEntity
  8
METAL
100
AcDbVertex
100
AcDbPolyFaceMeshVertex
 10
-43.12129211425781
 20
-8.737152099609375
 30
-2.21417236328125
 70
   192
  0
VERTEX
  5
217
330
3C
100
AcDbEntity
  8
METAL
100
AcDbVertex
100
AcDbPolyFaceMeshVertex
 10
-43.15234756469727
 20
-10.55451965332031
 30
2.449554443359375
 70
   192
  0
VERTEX
  5
218
330
3C
100
AcDbEntity
  8
METAL
100
AcDbVertex
100
AcDbPolyFaceMeshVertex
 10
-43.15234756469727
 20
-10.55452728271484
 30
-2.065521240234375
 70
   192
  0
VERTEX
  5
219
330
3C
100
AcDbEntity
  8
METAL
100
AcDbVertex
100
AcDbPolyFaceMeshVertex
 10
-43.16261672973633
 20
-12.77855682373047
 30
2.244781494140625
 70
   192
  0
VERTEX
  5
21A
330
3C
100
AcDbEntity
  8
METAL
100
AcDbVertex
100
AcDbPolyFaceMeshVertex
 10
-43.16261672973633
 20
-12.77855682373047
 30
-1.86077880859375
 70
   192
  0
VERTEX
  5
21B
330
3C
100
AcDbEntity
  8
METAL
100
AcDbVertex
100
AcDbPolyFaceMeshVertex
 10
-43.18340301513672
 20
-12.37189483642578
 30
2.3009033203125
 70
   192
  0
VERTEX
  5
21C
330
3C
100
AcDbEntity
  8
METAL
100
AcDbVertex
100
AcDbPolyFaceMeshVertex
 10
-43.18340301513672
 20
-12.37189483642578
 30
-1.9168701171875
 70
   192
  0
VERTEX
  5
21D
330
3C
100
AcDbEntity
  8
METAL
100
AcDbVertex
100
AcDbPolyFaceMeshVertex
 10
-43.41022872924805
 20
-17.90899658203125
 30
2.448944091796875
 70
   192
  0
VERTEX
  5
21E
330
3C
100
AcDbEntity
  8
METAL
100
AcDbVertex
100
AcDbPolyFaceMeshVertex
 10
-43.41022872924805
 20
-17.90899658203125
 30
-2.06494140625
 70
   192
  0
VERTEX
  5
21F
330
3C
100
AcDbEntity
  8
METAL
100
AcDbVertex
100
AcDbPolyFaceMeshVertex
 10
-43.99954223632812
 20
-3.946914672851562
 30
4.1470947265625
 70
   192
  0
VERTEX
  5
220
330
3C
100
AcDbEntity
  8
METAL
100
AcDbVertex
100
AcDbPolyFaceMeshVertex
 10
-43.99954223632812
 20
-3.946914672851562
 30
-3.7630615234375
 70
   192
  0
VERTEX
  5
221
330
3C
100
AcDbEntity
  8
METAL
100
AcDbVertex
100
AcDbPolyFaceMeshVertex
 10
-44.06966781616211
 20
-17.34194183349609
 30
2.448944091796875
 70
   192
  0
VERTEX
  5
222
330
3C
100
AcDbEntity
  8
METAL
100
AcDbVertex
100
AcDbPolyFaceMeshVertex
 10
-44.06966781616211
 20
-17.34194183349609
 30
-2.06494140625
 70
   192
  0
VERTEX
  5
223
330
3C
100
AcDbEntity
  8
METAL
100
AcDbVertex
100
AcDbPolyFaceMeshVertex
 10
-44.72910308837891
 20
-16.77489471435547
 30
2.448944091796875
 70
   192
  0
VERTEX
  5
224
330
3C
100
AcDbEntity
  8
METAL
100
AcDbVertex
100
AcDbPolyFaceMeshVertex
 10
-44.72910308837891
 20
-16.77489471435547
 30
-2.06494140625
 70
   192
  0
VERTEX
  5
225
330
3C
100
AcDbEntity
  8
METAL
100
AcDbVertex
100
AcDbPolyFaceMeshVertex
 10
-44.84289932250977
 20
0.0
 30
4.631103515625
 70
   192
  0
VERTEX
  5
226
330
3C
100
AcDbEntity
  8
METAL
100
AcDbVertex
100
AcDbPolyFaceMeshVertex
 10
-44.84289932250977
 20
0.0
 30
4.631103515625
 70
   192
  0
VERTEX
  5
227
330
3C
100
AcDbEntity
  8
METAL
100
AcDbVertex
100
AcDbPolyFaceMeshVertex
 10
-44.84289932250977
 20
0.0
 30
-4.247100830078125
 70
   192
  0
VERTEX
  5
228
330
3C
100
AcDbEntity
  8
METAL
100
AcDbVertex
100
AcDbPolyFaceMeshVertex
 10
-44.84289932250977
 20
0.0
 30
-4.247100830078125
 70
   192
  0
VERTEX
  5
229
330
3C
100
AcDbEntity
  8
METAL
100
AcDbVertex
100
AcDbPolyFaceMeshVertex
 10
-44.96022415161133
 20
-16.25717926025391
 30
2.57232666015625
 70
   192
  0
VERTEX
  5
22A
330
3C
100
AcDbEntity
  8
METAL
100
AcDbVertex
100
AcDbPolyFaceMeshVertex
 10
-44.96022415161133
 20
-16.25717926025391
 30
-2.188323974609375
 70
   192
  0
VERTEX
  5
22B
330
3C
100
AcDbEntity
  8
METAL
100
AcDbVertex
100
AcDbPolyFaceMeshVertex
 10
-45.11679458618164
 20
-9.145500183105469
 30
3.99407958984375
 70
   192
  0
VERTEX
  5
22C
330
3C
100
AcDbEntity
  8
METAL
100
AcDbVertex
100
AcDbPolyFaceMeshVertex
 10
-45.11679458618164
 20
-9.145500183105469
 30
-3.610076904296875
 70
   192
  0
VERTEX
  5
22D
330
3C
100
AcDbEntity
  8
METAL
100
AcDbVertex
100
AcDbPolyFaceMeshVertex
 10
-45.19134521484375
 20
-15.73945617675781
 30
2.695709228515625
 70
   192
  0
VERTEX
  5
22E
330
3C
100
AcDbEntity
  8
METAL
100
AcDbVertex
100
AcDbPolyFaceMeshVertex
 10
-45.19134521484375
 20
-15.73945617675781
 30
-2.311676025390625
 70
   192
  0
VERTEX
  5
22F
330
3C
100
AcDbEntity
  8
METAL
100
AcDbVertex
100
AcDbPolyFaceMeshVertex
 10
-45.33591842651367
 20
-11.11905670166016
 30
3.75921630859375
 70
   192
  0
VERTEX
  5
230
330
3C
100
AcDbEntity
  8
METAL
100
AcDbVertex
100
AcDbPolyFaceMeshVertex
 10
-45.33591842651367
 20
-11.11905670166016
 30
-3.37518310546875
 70
   192
  0
VERTEX
  5
231
330
3C
100
AcDbEntity
  8
METAL
100
AcDbVertex
100
AcDbPolyFaceMeshVertex
 10
-45.46858215332031
 20
-14.72694396972656
 30
3.080596923828125
 70
   192
  0
VERTEX
  5
232
330
3C
100
AcDbEntity
  8
METAL
100
AcDbVertex
100
AcDbPolyFaceMeshVertex
 10
-45.46858215332031
 20
-14.72694396972656
 30
-2.69659423828125
 70
   192
  0
VERTEX
  5
233
330
3C
100
AcDbEntity
  8
METAL
100
AcDbVertex
100
AcDbPolyFaceMeshVertex
 10
-45.55504989624023
 20
-13.09261322021484
 30
3.524322509765625
 70
   192
  0
VERTEX
  5
234
330
3C
100
AcDbEntity
  8
METAL
100
AcDbVertex
100
AcDbPolyFaceMeshVertex
 10
-45.55504989624023
 20
-13.09261322021484
 30
-3.140289306640625
 70
   192
  0
VERTEX
  5
235
330
3C
100
AcDbEntity
  8
METAL
100
AcDbVertex
100
AcDbPolyFaceMeshVertex
 10
-45.63173294067383
 20
-13.66664886474609
 30
3.4356689453125
 70
   192
  0
VERTEX
  5
236
330
3C
100
AcDbEntity
  8
METAL
100
AcDbVertex
100
AcDbPolyFaceMeshVertex
 10
-45.63173294067383
 20
-13.66665649414062
 30
-3.0516357421875
 70
   192
  0
VERTEX
  5
237
330
3C
100
AcDbEntity
  8
METAL
100
AcDbVertex
100
AcDbPolyFaceMeshVertex
 10
-46.10263061523438
 20
-20.99199676513672
 30
2.72515869140625
 70
   192
  0
VERTEX
  5
238
330
3C
100
AcDbEntity
  8
METAL
100
AcDbVertex
100
AcDbPolyFaceMeshVertex
 10
-46.10263061523438
 20
-20.99200439453125
 30
-2.34112548828125
 70
   192
  0
VERTEX
  5
239
330
3C
100
AcDbEntity
  8
METAL
100
AcDbVertex
100
AcDbPolyFaceMeshVertex
 10
-46.33076858520508
 20
-3.946914672851562
 30
4.631103515625
 70
   192
  0
VERTEX
  5
23A
330
3C
100
AcDbEntity
  8
METAL
100
AcDbVertex
100
AcDbPolyFaceMeshVertex
 10
-46.33076858520508
 20
-3.946914672851562
 30
-4.247100830078125
 70
   192
  0
VERTEX
  5
23B
330
3C
100
AcDbEntity
  8
METAL
100
AcDbVertex
100
AcDbPolyFaceMeshVertex
 10
-46.93740081787109
 20
0.0
 30
4.631103515625
 70
   192
  0
VERTEX
  5
23C
330
3C
100
AcDbEntity
  8
METAL
100
AcDbVertex
100
AcDbPolyFaceMeshVertex
 10
-46.93740081787109
 20
0.0
 30
4.631103515625
 70
   192
  0
VERTEX
  5
23D
330
3C
100
AcDbEntity
  8
METAL
100
AcDbVertex
100
AcDbPolyFaceMeshVertex
 10
-46.93740081787109
 20
0.0
 30
-4.247100830078125
 70
   192
  0
VERTEX
  5
23E
330
3C
100
AcDbEntity
  8
METAL
100
AcDbVertex
100
AcDbPolyFaceMeshVertex
 10
-46.93740081787109
 20
0.0
 30
-4.247100830078125
 70
   192
  0
VERTEX
  5
23F
330
3C
100
AcDbEntity
  8
METAL
100
AcDbVertex
100
AcDbPolyFaceMeshVertex
 10
-47.96835327148438
 20
-19.99803161621094
 30
2.72515869140625
 70
   192
  0
VERTEX
  5
240
330
3C
100
AcDbEntity
  8
METAL
100
AcDbVertex
100
AcDbPolyFaceMeshVertex
 10
-47.96835327148438
 20
-19.99803161621094
 30
-2.34112548828125
 70
   192
  0
VERTEX
  5
241
330
3C
100
AcDbEntity
  8
METAL
100
AcDbVertex
100
AcDbPolyFaceMeshVertex
 10
-48.07604598999023
 20
0.0
 30
4.1470947265625
 70
   192
  0
VERTEX
  5
242
330
3C
100
AcDbEntity
  8
METAL
100
AcDbVertex
100
AcDbPolyFaceMeshVertex
 10
-48.07604598999023
 20
0.0
 30
-3.7630615234375
 70
   192
  0
VERTEX
  5
243
330
3C
100
AcDbEntity
  8
METAL
100
AcDbVertex
100
AcDbPolyFaceMeshVertex
 10
-48.44263076782227
 20
-9.826080322265625
 30
4.459381103515625
 70
   192
  0
VERTEX
  5
244
330
3C
100
AcDbEntity
  8
METAL
100
AcDbVertex
100
AcDbPolyFaceMeshVertex
 10
-48.44263076782227
 20
-9.826080322265625
 30
-4.075347900390625
 70
   192
  0
VERTEX
  5
245
330
3C
100
AcDbEntity
  8
METAL
100
AcDbVertex
100
AcDbPolyFaceMeshVertex
 10
-48.62778854370117
 20
-19.43097686767578
 30
2.72515869140625
 70
   192
  0
VERTEX
  5
246
330
3C
100
AcDbEntity
  8
METAL
100
AcDbVertex
100
AcDbPolyFaceMeshVertex
 10
-48.62778854370117
 20
-19.43098449707031
 30
-2.34112548828125
 70
   192
  0
VERTEX
  5
247
330
3C
100
AcDbEntity
  8
METAL
100
AcDbVertex
100
AcDbPolyFaceMeshVertex
 10
-48.9752082824707
 20
-12.05994415283203
 30
4.19573974609375
 70
   192
  0
VERTEX
  5
248
330
3C
100
AcDbEntity
  8
METAL
100
AcDbVertex
100
AcDbPolyFaceMeshVertex
 10
-48.9752082824707
 20
-12.05994415283203
 30
-3.811737060546875
 70
   192
  0
VERTEX
  5
249
330
3C
100
AcDbEntity
  8
METAL
100
AcDbVertex
100
AcDbPolyFaceMeshVertex
 10
-49.13507843017578
 20
-3.946914672851562
 30
4.631103515625
 70
   192
  0
VERTEX
  5
24A
330
3C
100
AcDbEntity
  8
METAL
100
AcDbVertex
100
AcDbPolyFaceMeshVertex
 10
-49.13507843017578
 20
-3.946914672851562
 30
-4.247100830078125
 70
   192
  0
VERTEX
  5
24B
330
3C
100
AcDbEntity
  8
METAL
100
AcDbVertex
100
AcDbPolyFaceMeshVertex
 10
-49.28722763061523
 20
-18.86392974853516
 30
2.72515869140625
 70
   192
  0
VERTEX
  5
24C
330
3C
100
AcDbEntity
  8
METAL
100
AcDbVertex
100
AcDbPolyFaceMeshVertex
 10
-49.28722763061523
 20
-18.86392974853516
 30
-2.34112548828125
 70
   192
  0
VERTEX
  5
24D
330
3C
100
AcDbEntity
  8
METAL
100
AcDbVertex
100
AcDbPolyFaceMeshVertex
 10
-49.43921661376953
 20
-0.0011215209960938
 30
1.253326416015625
 70
   192
  0
VERTEX
  5
24E
330
3C
100
AcDbEntity
  8
METAL
100
AcDbVertex
100
AcDbPolyFaceMeshVertex
 10
-49.43941116333008
 20
-0.0016021728515625
 30
-0.8756103515625
 70
   192
  0
VERTEX
  5
24F
330
3C
100
AcDbEntity
  8
METAL
100
AcDbVertex
100
AcDbPolyFaceMeshVertex
 10
-49.50778579711914
 20
-14.29380035400391
 30
3.93212890625
 70
   192
  0
VERTEX
  5
250
330
3C
100
AcDbEntity
  8
METAL
100
AcDbVertex
100
AcDbPolyFaceMeshVertex
 10
-49.50778579711914
 20
-14.29380035400391
 30
-3.548095703125
 70
   192
  0
VERTEX
  5
251
330
3C
100
AcDbEntity
  8
METAL
100
AcDbVertex
100
AcDbPolyFaceMeshVertex
 10
-49.50909423828125
 20
-18.23731994628906
 30
2.863616943359375
 70
   192
  0
VERTEX
  5
252
330
3C
100
AcDbEntity
  8
METAL
100
AcDbVertex
100
AcDbPolyFaceMeshVertex
 10
-49.50909423828125
 20
-18.23731994628906
 30
-2.4796142578125
 70
   192
  0
VERTEX
  5
253
330
3C
100
AcDbEntity
  8
METAL
100
AcDbVertex
100
AcDbPolyFaceMeshVertex
 10
-49.73095703125
 20
-17.61070251464844
 30
3.002105712890625
 70
   192
  0
VERTEX
  5
254
330
3C
100
AcDbEntity
  8
METAL
100
AcDbVertex
100
AcDbPolyFaceMeshVertex
 10
-49.73095703125
 20
-17.61071014404297
 30
-2.61810302734375
 70
   192
  0
VERTEX
  5
255
330
3C
100
AcDbEntity
  8
METAL
100
AcDbVertex
100
AcDbPolyFaceMeshVertex
 10
-49.74691772460938
 20
-15.14680480957031
 30
3.832611083984375
 70
   192
  0
VERTEX
  5
256
330
3C
100
AcDbEntity
  8
METAL
100
AcDbVertex
100
AcDbPolyFaceMeshVertex
 10
-49.74691772460938
 20
-15.14681243896484
 30
-3.370208740234375
 70
   192
  0
VERTEX
  5
257
330
3C
100
AcDbEntity
  8
METAL
100
AcDbVertex
100
AcDbPolyFaceMeshVertex
 10
-49.82571792602539
 20
-16.37834167480469
 30
3.434112548828125
 70
   192
  0
VERTEX
  5
258
330
3C
100
AcDbEntity
  8
METAL
100
AcDbVertex
100
AcDbPolyFaceMeshVertex
 10
-49.82571792602539
 20
-16.37834930419922
 30
-3.050079345703125
 70
   192
  0
VERTEX
  5
259
330
3C
100
AcDbEntity
  8
METAL
100
AcDbVertex
100
AcDbPolyFaceMeshVertex
 10
-51.40134429931641
 20
-3.946914672851562
 30
4.1470947265625
 70
   192
  0
VERTEX
  5
25A
330
3C
100
AcDbEntity
  8
METAL
100
AcDbVertex
100
AcDbPolyFaceMeshVertex
 10
-51.40134429931641
 20
-3.946914672851562
 30
-3.7630615234375
 70
   192
  0
VERTEX
  5
25B
330
3C
100
AcDbEntity
  8
METAL
100
AcDbVertex
100
AcDbPolyFaceMeshVertex
 10
-52.60504150390625
 20
-23.73223876953125
 30
-2.335052490234375
 70
   192
  0
VERTEX
  5
25C
330
3C
100
AcDbEntity
  8
METAL
100
AcDbVertex
100
AcDbPolyFaceMeshVertex
 10
-52.60600280761719
 20
-23.730712890625
 30
2.72021484375
 70
   192
  0
VERTEX
  5
25D
330
3C
100
AcDbEntity
  8
METAL
100
AcDbVertex
100
AcDbPolyFaceMeshVertex
 10
-52.76905059814453
 20
-3.931060791015625
 30
1.217498779296875
 70
   192
  0
VERTEX
  5
25E
330
3C
100
AcDbEntity
  8
METAL
100
AcDbVertex
100
AcDbPolyFaceMeshVertex
 10
-52.78084182739258
 20
-3.924644470214844
 30
-0.811126708984375
 70
   192
  0
VERTEX
  5
25F
330
3C
100
AcDbEntity
  8
METAL
100
AcDbVertex
100
AcDbPolyFaceMeshVertex
 10
-53.01498031616211
 20
-10.76174163818359
 30
4.459381103515625
 70
   192
  0
VERTEX
  5
260
330
3C
100
AcDbEntity
  8
METAL
100
AcDbVertex
100
AcDbPolyFaceMeshVertex
 10
-53.01498031616211
 20
-10.76174163818359
 30
-4.075347900390625
 70
   192
  0
VERTEX
  5
261
330
3C
100
AcDbEntity
  8
METAL
100
AcDbVertex
100
AcDbPolyFaceMeshVertex
 10
-53.97848892211914
 20
-13.35346984863281
 30
4.19573974609375
 70
   192
  0
VERTEX
  5
262
330
3C
100
AcDbEntity
  8
METAL
100
AcDbVertex
100
AcDbPolyFaceMeshVertex
 10
-53.97848892211914
 20
-13.35346984863281
 30
-3.811737060546875
 70
   192
  0
VERTEX
  5
263
330
3C
100
AcDbEntity
  8
METAL
100
AcDbVertex
100
AcDbPolyFaceMeshVertex
 10
-54.47067642211914
 20
-22.73005676269531
 30
-2.34112548828125
 70
   192
  0
VERTEX
  5
264
330
3C
100
AcDbEntity
  8
METAL
100
AcDbVertex
100
AcDbPolyFaceMeshVertex
 10
-54.47075271606445
 20
-22.73043060302734
 30
2.724945068359375
 70
   192
  0
VERTEX
  5
265
330
3C
100
AcDbEntity
  8
METAL
100
AcDbVertex
100
AcDbPolyFaceMeshVertex
 10
-54.94199371337891
 20
-15.94519805908203
 30
3.93212890625
 70
   192
  0
VERTEX
  5
266
330
3C
100
AcDbEntity
  8
METAL
100
AcDbVertex
100
AcDbPolyFaceMeshVertex
 10
-54.94199371337891
 20
-15.94519805908203
 30
-3.548095703125
 70
   192
  0
VERTEX
  5
267
330
3C
100
AcDbEntity
  8
METAL
100
AcDbVertex
100
AcDbPolyFaceMeshVertex
 10
-55.0767822265625
 20
-22.26782989501953
 30
2.72515869140625
 70
   192
  0
VERTEX
  5
268
330
3C
100
AcDbEntity
  8
METAL
100
AcDbVertex
100
AcDbPolyFaceMeshVertex
 10
-55.0767822265625
 20
-22.26782989501953
 30
-2.34112548828125
 70
   192
  0
VERTEX
  5
269
330
3C
100
AcDbEntity
  8
METAL
100
AcDbVertex
100
AcDbPolyFaceMeshVertex
 10
-55.40446090698242
 20
-17.18172454833984
 30
3.832611083984375
 70
   192
  0
VERTEX
  5
26A
330
3C
100
AcDbEntity
  8
METAL
100
AcDbVertex
100
AcDbPolyFaceMeshVertex
 10
-55.40446090698242
 20
-17.18172454833984
 30
-3.370208740234375
 70
   192
  0
VERTEX
  5
26B
330
3C
100
AcDbEntity
  8
METAL
100
AcDbVertex
100
AcDbPolyFaceMeshVertex
 10
-55.58332061767578
 20
-21.67395782470703
 30
2.72515869140625
 70
   192
  0
VERTEX
  5
26C
330
3C
100
AcDbEntity
  8
METAL
100
AcDbVertex
100
AcDbPolyFaceMeshVertex
 10
-55.58332061767578
 20
-21.67395782470703
 30
-2.34112548828125
 70
   192
  0
VERTEX
  5
26D
330
3C
100
AcDbEntity
  8
METAL
100
AcDbVertex
100
AcDbPolyFaceMeshVertex
 10
-55.76321792602539
 20
-25.12193298339844
 30
-1.9683837890625
 70
   192
  0
VERTEX
  5
26E
330
3C
100
AcDbEntity
  8
METAL
100
AcDbVertex
100
AcDbPolyFaceMeshVertex
 10
-55.77555847167969
 20
-25.12648773193359
 30
2.344482421875
 70
   192
  0
VERTEX
  5
26F
330
3C
100
AcDbEntity
  8
METAL
100
AcDbVertex
100
AcDbPolyFaceMeshVertex
 10
-55.77766418457031
 20
-20.92862701416016
 30
2.863616943359375
 70
   192
  0
VERTEX
  5
270
330
3C
100
AcDbEntity
  8
METAL
100
AcDbVertex
100
AcDbPolyFaceMeshVertex
 10
-55.77766418457031
 20
-20.92863464355469
 30
-2.4796142578125
 70
   192
  0
VERTEX
  5
271
330
3C
100
AcDbEntity
  8
METAL
100
AcDbVertex
100
AcDbPolyFaceMeshVertex
 10
-55.81590270996094
 20
-18.64868927001953
 30
3.434112548828125
 70
   192
  0
VERTEX
  5
272
330
3C
100
AcDbEntity
  8
METAL
100
AcDbVertex
100
AcDbPolyFaceMeshVertex
 10
-55.81590270996094
 20
-18.64868927001953
 30
-3.050079345703125
 70
   192
  0
VERTEX
  5
273
330
3C
100
AcDbEntity
  8
METAL
100
AcDbVertex
100
AcDbPolyFaceMeshVertex
 10
-55.97200775146484
 20
-20.18330383300781
 30
3.002105712890625
 70
   192
  0
VERTEX
  5
274
330
3C
100
AcDbEntity
  8
METAL
100
AcDbVertex
100
AcDbPolyFaceMeshVertex
 10
-55.97200775146484
 20
-20.18330383300781
 30
-2.61810302734375
 70
   192
  0
VERTEX
  5
275
330
3C
100
AcDbEntity
  8
METAL
100
AcDbVertex
100
AcDbPolyFaceMeshVertex
 10
-56.09256744384766
 20
-11.44232177734375
 30
3.99407958984375
 70
   192
  0
VERTEX
  5
276
330
3C
100
AcDbEntity
  8
METAL
100
AcDbVertex
100
AcDbPolyFaceMeshVertex
 10
-56.09256744384766
 20
-11.44232177734375
 30
-3.610076904296875
 70
   192
  0
VERTEX
  5
277
330
3C
100
AcDbEntity
  8
METAL
100
AcDbVertex
100
AcDbPolyFaceMeshVertex
 10
-56.98277282714844
 20
-25.77616119384766
 30
-0.91888427734375
 70
   192
  0
VERTEX
  5
278
330
3C
100
AcDbEntity
  8
METAL
100
AcDbVertex
100
AcDbPolyFaceMeshVertex
 10
-57.00196075439453
 20
-25.77797698974609
 30
1.304840087890625
 70
   192
  0
VERTEX
  5
279
330
3C
100
AcDbEntity
  8
METAL
100
AcDbVertex
100
AcDbPolyFaceMeshVertex
 10
-57.49364852905273
 20
-14.29435729980469
 30
3.75921630859375
 70
   192
  0
VERTEX
  5
27A
330
3C
100
AcDbEntity
  8
METAL
100
AcDbVertex
100
AcDbPolyFaceMeshVertex
 10
-57.49364852905273
 20
-14.29435729980469
 30
-3.37518310546875
 70
   192
  0
VERTEX
  5
27B
330
3C
100
AcDbEntity
  8
METAL
100
AcDbVertex
100
AcDbPolyFaceMeshVertex
 10
-58.10641479492188
 20
-11.81413269042969
 30
-0.774658203125
 70
   192
  0
VERTEX
  5
27C
330
3C
100
AcDbEntity
  8
METAL
100
AcDbVertex
100
AcDbPolyFaceMeshVertex
 10
-58.11558151245117
 20
-11.82804870605469
 30
1.1522216796875
 70
   192
  0
VERTEX
  5
27D
330
3C
100
AcDbEntity
  8
METAL
100
AcDbVertex
100
AcDbPolyFaceMeshVertex
 10
-58.89472579956055
 20
-17.14639282226562
 30
3.524322509765625
 70
   192
  0
VERTEX
  5
27E
330
3C
100
AcDbEntity
  8
METAL
100
AcDbVertex
100
AcDbPolyFaceMeshVertex
 10
-58.89472579956055
 20
-17.14639282226562
 30
-3.140289306640625
 70
   192
  0
VERTEX
  5
27F
330
3C
100
AcDbEntity
  8
METAL
100
AcDbVertex
100
AcDbPolyFaceMeshVertex
 10
-58.97905349731445
 20
-24.79024505615234
 30
-1.95166015625
 70
   192
  0
VERTEX
  5
280
330
3C
100
AcDbEntity
  8
METAL
100
AcDbVertex
100
AcDbPolyFaceMeshVertex
 10
-58.98965072631836
 20
-24.80785369873047
 30
2.311279296875
 70
   192
  0
VERTEX
  5
281
330
3C
100
AcDbEntity
  8
METAL
100
AcDbVertex
100
AcDbPolyFaceMeshVertex
 10
-59.5196418762207
 20
-18.66187286376953
 30
3.4356689453125
 70
   192
  0
VERTEX
  5
282
330
3C
100
AcDbEntity
  8
METAL
100
AcDbVertex
100
AcDbPolyFaceMeshVertex
 10
-59.5196418762207
 20
-18.66187286376953
 30
-3.0516357421875
 70
   192
  0
VERTEX
  5
283
330
3C
100
AcDbEntity
  8
METAL
100
AcDbVertex
100
AcDbPolyFaceMeshVertex
 10
-59.62724685668945
 20
-24.26650238037109
 30
-1.983551025390625
 70
   192
  0
VERTEX
  5
284
330
3C
100
AcDbEntity
  8
METAL
100
AcDbVertex
100
AcDbPolyFaceMeshVertex
 10
-59.63628387451172
 20
-24.29026031494141
 30
2.34393310546875
 70
   192
  0
VERTEX
  5
285
330
3C
100
AcDbEntity
  8
METAL
100
AcDbVertex
100
AcDbPolyFaceMeshVertex
 10
-59.71025085449219
 20
-14.82324981689453
 30
-0.708038330078125
 70
   192
  0
VERTEX
  5
286
330
3C
100
AcDbEntity
  8
METAL
100
AcDbVertex
100
AcDbPolyFaceMeshVertex
 10
-59.72739028930664
 20
-14.82654571533203
 30
1.071319580078125
 70
   192
  0
VERTEX
  5
287
330
3C
100
AcDbEntity
  8
METAL
100
AcDbVertex
100
AcDbPolyFaceMeshVertex
 10
-60.14368438720703
 20
-23.81547546386719
 30
-2.01153564453125
 70
   192
  0
VERTEX
  5
288
330
3C
100
AcDbEntity
  8
METAL
100
AcDbVertex
100
AcDbPolyFaceMeshVertex
 10
-60.1526985168457
 20
-23.84245300292969
 30
2.3739013671875
 70
   192
  0
VERTEX
  5
289
330
3C
100
AcDbEntity
  8
METAL
100
AcDbVertex
100
AcDbPolyFaceMeshVertex
 10
-60.17303466796875
 20
-20.30008697509766
 30
-2.69659423828125
 70
   192
  0
VERTEX
  5
28A
330
3C
100
AcDbEntity
  8
METAL
100
AcDbVertex
100
AcDbPolyFaceMeshVertex
 10
-60.17323303222656
 20
-20.29994964599609
 30
3.08038330078125
 70
   192
  0
VERTEX
  5
28B
330
3C
100
AcDbEntity
  8
METAL
100
AcDbVertex
100
AcDbPolyFaceMeshVertex
 10
-60.19247436523438
 20
-25.44931030273438
 30
-0.632965087890625
 70
   192
  0
VERTEX
  5
28C
330
3C
100
AcDbEntity
  8
METAL
100
AcDbVertex
100
AcDbPolyFaceMeshVertex
 10
-60.20721817016602
 20
-25.45410919189453
 30
1.012603759765625
 70
   192
  0
VERTEX
  5
28D
330
3C
100
AcDbEntity
  8
METAL
100
AcDbVertex
100
AcDbPolyFaceMeshVertex
 10
-60.32670211791992
 20
-22.91750335693359
 30
-2.18194580078125
 70
   192
  0
VERTEX
  5
28E
330
3C
100
AcDbEntity
  8
METAL
100
AcDbVertex
100
AcDbPolyFaceMeshVertex
 10
-60.33016586303711
 20
-22.93198394775391
 30
2.557769775390625
 70
   192
  0
VERTEX
  5
28F
330
3C
100
AcDbEntity
  8
METAL
100
AcDbVertex
100
AcDbPolyFaceMeshVertex
 10
-60.51161575317383
 20
-22.05455017089844
 30
-2.311676025390625
 70
   192
  0
VERTEX
  5
290
330
3C
100
AcDbEntity
  8
METAL
100
AcDbVertex
100
AcDbPolyFaceMeshVertex
 10
-60.51203918457031
 20
-22.05644226074219
 30
2.694915771484375
 70
   192
  0
VERTEX
  5
291
330
3C
100
AcDbEntity
  8
METAL
100
AcDbVertex
100
AcDbPolyFaceMeshVertex
 10
-61.32128143310547
 20
-17.82293701171875
 30
-0.611602783203125
 70
   192
  0
VERTEX
  5
292
330
3C
100
AcDbEntity
  8
METAL
100
AcDbVertex
100
AcDbPolyFaceMeshVertex
 10
-61.34489440917969
 20
-17.80820465087891
 30
0.966949462890625
 70
   192
  0
VERTEX
  5
293
330
3C
100
AcDbEntity
  8
METAL
100
AcDbVertex
100
AcDbPolyFaceMeshVertex
 10
-61.61575317382812
 20
-25.29842376708984
 30
-0.40386962890625
 70
   192
  0
VERTEX
  5
294
330
3C
100
AcDbEntity
  8
METAL
100
AcDbVertex
100
AcDbPolyFaceMeshVertex
 10
-61.64812850952148
 20
-25.30167388916016
 30
0.783782958984375
 70
   192
  0
VERTEX
  5
295
330
3C
100
AcDbEntity
  8
METAL
100
AcDbVertex
100
AcDbPolyFaceMeshVertex
 10
-62.07344818115234
 20
-19.50363922119141
 30
-0.566375732421875
 70
   192
  0
VERTEX
  5
296
330
3C
100
AcDbEntity
  8
METAL
100
AcDbVertex
100
AcDbPolyFaceMeshVertex
 10
-62.10320663452148
 20
-19.47661590576172
 30
0.918609619140625
 70
   192
  0
VERTEX
  5
297
330
3C
100
AcDbEntity
  8
METAL
100
AcDbVertex
100
AcDbPolyFaceMeshVertex
 10
-62.71409225463867
 20
-24.89646911621094
 30
-0.22906494140625
 70
   192
  0
VERTEX
  5
298
330
3C
100
AcDbEntity
  8
METAL
100
AcDbVertex
100
AcDbPolyFaceMeshVertex
 10
-62.75724411010742
 20
-24.88059234619141
 30
0.609710693359375
 70
   192
  0
VERTEX
  5
299
330
3C
100
AcDbEntity
  8
METAL
100
AcDbVertex
100
AcDbPolyFaceMeshVertex
 10
-62.93711471557617
 20
-21.2373046875
 30
-0.408477783203125
 70
   192
  0
VERTEX
  5
29A
330
3C
100
AcDbEntity
  8
METAL
100
AcDbVertex
100
AcDbPolyFaceMeshVertex
 10
-62.97350692749023
 20
-21.22403717041016
 30
0.766998291015625
 70
   192
  0
VERTEX
  5
29B
330
3C
100
AcDbEntity
  8
METAL
100
AcDbVertex
100
AcDbPolyFaceMeshVertex
 10
-63.29998016357422
 20
-24.14337158203125
 30
-0.214996337890625
 70
   192
  0
VERTEX
  5
29C
330
3C
100
AcDbEntity
  8
METAL
100
AcDbVertex
100
AcDbPolyFaceMeshVertex
 10
-63.33266830444336
 20
-24.13340759277344
 30
0.593505859375
 70
   192
  0
VERTEX
  5
29D
330
3C
100
AcDbEntity
  8
METAL
100
AcDbVertex
100
AcDbPolyFaceMeshVertex
 10
-63.47102737426758
 20
-23.24847412109375
 30
-0.236083984375
 70
   192
  0
VERTEX
  5
29E
330
3C
100
AcDbEntity
  8
METAL
100
AcDbVertex
100
AcDbPolyFaceMeshVertex
 10
-63.5
 20
-23.25666046142578
 30
0.609954833984375
 70
   192
  0
VERTEX
  5
29F
330
3C
100
AcDbEntity
  8
METAL
100
AcDbFaceRecord
 10
0.0
 20
0.0
 30
0.0
 70
   128
 71
   530
 72
   529
 73
   517
 74
   512
  0
VERTEX
  5
2A0
330
3C
100
AcDbEntity
  8
METAL
100
AcDbFaceRecord
 10
0.0
 20
0.0
 30
0.0
 70
   128
 71
   512
 72
   490
 73
   470
 74
   450
  0
VERTEX
  5
2A1
330
3C
100
AcDbEntity
  8
METAL
100
AcDbFaceRecord
 10
0.0
 20
0.0
 30
0.0
 70
   128
 71
   512
 72
   450
 73
   445
 74
   530
  0
VERTEX
  5
2A2
330
3C
100
AcDbEntity
  8
METAL
100
AcDbFaceRecord
 10
0.0
 20
0.0
 30
0.0
 70
   128
 71
   445
 72
   452
 73
   472
 74
   492
  0
VERTEX
  5
2A3
330
3C
100
AcDbEntity
  8
METAL
100
AcDbFaceRecord
 10
0.0
 20
0.0
 30
0.0
 70
   128
 71
   530
 72
   445
 73
   492
 74
   518
  0
VERTEX
  5
2A4
330
3C
100
AcDbEntity
  8
METAL
100
AcDbFaceRecord
 10
0.0
 20
0.0
 30
0.0
 70
   128
 71
   513
 72
   518
 73
   492
 74
   492
  0
VERTEX
  5
2A5
330
3C
100
AcDbEntity
  8
METAL
100
AcDbFaceRecord
 10
0.0
 20
0.0
 30
0.0
 70
   128
 71
   514
 72
   491
 73
   510
 74
   526
  0
VERTEX
  5
2A6
330
3C
100
AcDbEntity
  8
METAL
100
AcDbFaceRecord
 10
0.0
 20
0.0
 30
0.0
 70
   128
 71
   489
 72
   511
 73
   525
 74
   509
  0
VERTEX
  5
2A7
330
3C
100
AcDbEntity
  8
METAL
100
AcDbFaceRecord
 10
0.0
 20
0.0
 30
0.0
 70
   128
 71
   484
 72
   510
 73
   491
 74
   471
  0
VERTEX
  5
2A8
330
3C
100
AcDbEntity
  8
METAL
100
AcDbFaceRecord
 10
0.0
 20
0.0
 30
0.0
 70
   128
 71
   518
 72
   514
 73
   526
 74
   542
  0
VERTEX
  5
2A9
330
3C
100
AcDbEntity
  8
METAL
100
AcDbFaceRecord
 10
0.0
 20
0.0
 30
0.0
 70
   128
 71
   461
 72
   453
 73
   444
 74
   449
  0
VERTEX
  5
2AA
330
3C
100
AcDbEntity
  8
METAL
100
AcDbFaceRecord
 10
0.0
 20
0.0
 30
0.0
 70
   128
 71
   541
 72
   525
 73
   511
 74
   517
  0
VERTEX
  5
2AB
330
3C
100
AcDbEntity
  8
METAL
100
AcDbFaceRecord
 10
0.0
 20
0.0
 30
0.0
 70
   128
 71
   462
 72
   484
 73
   471
 74
   451
  0
VERTEX
  5
2AC
330
3C
100
AcDbEntity
  8
METAL
100
AcDbFaceRecord
 10
0.0
 20
0.0
 30
0.0
 70
   128
 71
   453
 72
   462
 73
   451
 74
   444
  0
VERTEX
  5
2AD
330
3C
100
AcDbEntity
  8
METAL
100
AcDbFaceRecord
 10
0.0
 20
0.0
 30
0.0
 70
   128
 71
   530
 72
   518
 73
   542
 74
   546
  0
VERTEX
  5
2AE
330
3C
100
AcDbEntity
  8
METAL
100
AcDbFaceRecord
 10
0.0
 20
0.0
 30
0.0
 70
   128
 71
   483
 72
   461
 73
   449
 74
   469
  0
VERTEX
  5
2AF
330
3C
100
AcDbEntity
  8
METAL
100
AcDbFaceRecord
 10
0.0
 20
0.0
 30
0.0
 70
   128
 71
   509
 72
   483
 73
   469
 74
   489
  0
VERTEX
  5
2B0
330
3C
100
AcDbEntity
  8
METAL
100
AcDbFaceRecord
 10
0.0
 20
0.0
 30
0.0
 70
   128
 71
   545
 72
   541
 73
   517
 74
   529
  0
VERTEX
  5
2B1
330
3C
100
AcDbEntity
  8
METAL
100
AcDbFaceRecord
 10
0.0
 20
0.0
 30
0.0
 70
   128
 71
   530
 72
   546
 73
   545
 74
   529
  0
VERTEX
  5
2B2
330
3C
100
AcDbEntity
  8
METAL
100
AcDbFaceRecord
 10
0.0
 20
0.0
 30
0.0
 70
   128
 71
   526
 72
   510
 73
   520
 74
   548
  0
VERTEX
  5
2B3
330
3C
100
AcDbEntity
  8
METAL
100
AcDbFaceRecord
 10
0.0
 20
0.0
 30
0.0
 70
   128
 71
   509
 72
   525
 73
   547
 74
   519
  0
VERTEX
  5
2B4
330
3C
100
AcDbEntity
  8
METAL
100
AcDbFaceRecord
 10
0.0
 20
0.0
 30
0.0
 70
   128
 71
   542
 72
   526
 73
   548
 74
   570
  0
VERTEX
  5
2B5
330
3C
100
AcDbEntity
  8
METAL
100
AcDbFaceRecord
 10
0.0
 20
0.0
 30
0.0
 70
   128
 71
   462
 72
   453
 73
   463
 74
   474
  0
VERTEX
  5
2B6
330
3C
100
AcDbEntity
  8
METAL
100
AcDbFaceRecord
 10
0.0
 20
0.0
 30
0.0
 70
   128
 71
   545
 72
   546
 73
   575
 74
   576
  0
VERTEX
  5
2B7
330
3C
100
AcDbEntity
  8
METAL
100
AcDbFaceRecord
 10
0.0
 20
0.0
 30
0.0
 70
   128
 71
   483
 72
   509
 73
   519
 74
   495
  0
VERTEX
  5
2B8
330
3C
100
AcDbEntity
  8
METAL
100
AcDbFaceRecord
 10
0.0
 20
0.0
 30
0.0
 70
   128
 71
   546
 72
   542
 73
   570
 74
   575
  0
VERTEX
  5
2B9
330
3C
100
AcDbEntity
  8
METAL
100
AcDbFaceRecord
 10
0.0
 20
0.0
 30
0.0
 70
   128
 71
   510
 72
   484
 73
   496
 74
   520
  0
VERTEX
  5
2BA
330
3C
100
AcDbEntity
  8
METAL
100
AcDbFaceRecord
 10
0.0
 20
0.0
 30
0.0
 70
   128
 71
   484
 72
   462
 73
   474
 74
   496
  0
VERTEX
  5
2BB
330
3C
100
AcDbEntity
  8
METAL
100
AcDbFaceRecord
 10
0.0
 20
0.0
 30
0.0
 70
   128
 71
   525
 72
   541
 73
   569
 74
   547
  0
VERTEX
  5
2BC
330
3C
100
AcDbEntity
  8
METAL
100
AcDbFaceRecord
 10
0.0
 20
0.0
 30
0.0
 70
   128
 71
   541
 72
   545
 73
   576
 74
   569
  0
VERTEX
  5
2BD
330
3C
100
AcDbEntity
  8
METAL
100
AcDbFaceRecord
 10
0.0
 20
0.0
 30
0.0
 70
   128
 71
   453
 72
   461
 73
   473
 74
   463
  0
VERTEX
  5
2BE
330
3C
100
AcDbEntity
  8
METAL
100
AcDbFaceRecord
 10
0.0
 20
0.0
 30
0.0
 70
   128
 71
   461
 72
   483
 73
   495
 74
   473
  0
VERTEX
  5
2BF
330
3C
100
AcDbEntity
  8
METAL
100
AcDbFaceRecord
 10
0.0
 20
0.0
 30
0.0
 70
   128
 71
   548
 72
   520
 73
   524
 74
   550
  0
VERTEX
  5
2C0
330
3C
100
AcDbEntity
  8
METAL
100
AcDbFaceRecord
 10
0.0
 20
0.0
 30
0.0
 70
   128
 71
   547
 72
   549
 73
   523
 74
   519
  0
VERTEX
  5
2C1
330
3C
100
AcDbEntity
  8
METAL
100
AcDbFaceRecord
 10
0.0
 20
0.0
 30
0.0
 70
   128
 71
   570
 72
   548
 73
   550
 74
   574
  0
VERTEX
  5
2C2
330
3C
100
AcDbEntity
  8
METAL
100
AcDbFaceRecord
 10
0.0
 20
0.0
 30
0.0
 70
   128
 71
   463
 72
   466
 73
   476
 74
   474
  0
VERTEX
  5
2C3
330
3C
100
AcDbEntity
  8
METAL
100
AcDbFaceRecord
 10
0.0
 20
0.0
 30
0.0
 70
   128
 71
   576
 72
   575
 73
   585
 74
   586
  0
VERTEX
  5
2C4
330
3C
100
AcDbEntity
  8
METAL
100
AcDbFaceRecord
 10
0.0
 20
0.0
 30
0.0
 70
   128
 71
   519
 72
   523
 73
   499
 74
   495
  0
VERTEX
  5
2C5
330
3C
100
AcDbEntity
  8
METAL
100
AcDbFaceRecord
 10
0.0
 20
0.0
 30
0.0
 70
   128
 71
   575
 72
   570
 73
   574
 74
   585
  0
VERTEX
  5
2C6
330
3C
100
AcDbEntity
  8
METAL
100
AcDbFaceRecord
 10
0.0
 20
0.0
 30
0.0
 70
   128
 71
   520
 72
   496
 73
   500
 74
   524
  0
VERTEX
  5
2C7
330
3C
100
AcDbEntity
  8
METAL
100
AcDbFaceRecord
 10
0.0
 20
0.0
 30
0.0
 70
   128
 71
   496
 72
   474
 73
   476
 74
   500
  0
VERTEX
  5
2C8
330
3C
100
AcDbEntity
  8
METAL
100
AcDbFaceRecord
 10
0.0
 20
0.0
 30
0.0
 70
   128
 71
   569
 72
   573
 73
   549
 74
   547
  0
VERTEX
  5
2C9
330
3C
100
AcDbEntity
  8
METAL
100
AcDbFaceRecord
 10
0.0
 20
0.0
 30
0.0
 70
   128
 71
   576
 72
   586
 73
   573
 74
   569
  0
VERTEX
  5
2CA
330
3C
100
AcDbEntity
  8
METAL
100
AcDbFaceRecord
 10
0.0
 20
0.0
 30
0.0
 70
   128
 71
   473
 72
   475
 73
   466
 74
   463
  0
VERTEX
  5
2CB
330
3C
100
AcDbEntity
  8
METAL
100
AcDbFaceRecord
 10
0.0
 20
0.0
 30
0.0
 70
   128
 71
   495
 72
   499
 73
   475
 74
   473
  0
VERTEX
  5
2CC
330
3C
100
AcDbEntity
  8
METAL
100
AcDbFaceRecord
 10
0.0
 20
0.0
 30
0.0
 70
   128
 71
   554
 72
   532
 73
   538
 74
   558
  0
VERTEX
  5
2CD
330
3C
100
AcDbEntity
  8
METAL
100
AcDbFaceRecord
 10
0.0
 20
0.0
 30
0.0
 70
   128
 71
   531
 72
   553
 73
   557
 74
   537
  0
VERTEX
  5
2CE
330
3C
100
AcDbEntity
  8
METAL
100
AcDbFaceRecord
 10
0.0
 20
0.0
 30
0.0
 70
   128
 71
   578
 72
   554
 73
   558
 74
   582
  0
VERTEX
  5
2CF
330
3C
100
AcDbEntity
  8
METAL
100
AcDbFaceRecord
 10
0.0
 20
0.0
 30
0.0
 70
   128
 71
   480
 72
   460
 73
   459
 74
   478
  0
VERTEX
  5
2D0
330
3C
100
AcDbEntity
  8
METAL
100
AcDbFaceRecord
 10
0.0
 20
0.0
 30
0.0
 70
   128
 71
   598
 72
   597
 73
   601
 74
   602
  0
VERTEX
  5
2D1
330
3C
100
AcDbEntity
  8
METAL
100
AcDbFaceRecord
 10
0.0
 20
0.0
 30
0.0
 70
   128
 71
   503
 72
   531
 73
   537
 74
   505
  0
VERTEX
  5
2D2
330
3C
100
AcDbEntity
  8
METAL
100
AcDbFaceRecord
 10
0.0
 20
0.0
 30
0.0
 70
   128
 71
   597
 72
   578
 73
   582
 74
   601
  0
VERTEX
  5
2D3
330
3C
100
AcDbEntity
  8
METAL
100
AcDbFaceRecord
 10
0.0
 20
0.0
 30
0.0
 70
   128
 71
   532
 72
   504
 73
   506
 74
   538
  0
VERTEX
  5
2D4
330
3C
100
AcDbEntity
  8
METAL
100
AcDbFaceRecord
 10
0.0
 20
0.0
 30
0.0
 70
   128
 71
   504
 72
   480
 73
   478
 74
   506
  0
VERTEX
  5
2D5
330
3C
100
AcDbEntity
  8
METAL
100
AcDbFaceRecord
 10
0.0
 20
0.0
 30
0.0
 70
   128
 71
   553
 72
   577
 73
   581
 74
   557
  0
VERTEX
  5
2D6
330
3C
100
AcDbEntity
  8
METAL
100
AcDbFaceRecord
 10
0.0
 20
0.0
 30
0.0
 70
   128
 71
   577
 72
   598
 73
   602
 74
   581
  0
VERTEX
  5
2D7
330
3C
100
AcDbEntity
  8
METAL
100
AcDbFaceRecord
 10
0.0
 20
0.0
 30
0.0
 70
   128
 71
   460
 72
   479
 73
   477
 74
   459
  0
VERTEX
  5
2D8
330
3C
100
AcDbEntity
  8
METAL
100
AcDbFaceRecord
 10
0.0
 20
0.0
 30
0.0
 70
   128
 71
   479
 72
   503
 73
   505
 74
   477
  0
VERTEX
  5
2D9
330
3C
100
AcDbEntity
  8
METAL
100
AcDbFaceRecord
 10
0.0
 20
0.0
 30
0.0
 70
   128
 71
   558
 72
   538
 73
   540
 74
   566
  0
VERTEX
  5
2DA
330
3C
100
AcDbEntity
  8
METAL
100
AcDbFaceRecord
 10
0.0
 20
0.0
 30
0.0
 70
   128
 71
   537
 72
   557
 73
   565
 74
   539
  0
VERTEX
  5
2DB
330
3C
100
AcDbEntity
  8
METAL
100
AcDbFaceRecord
 10
0.0
 20
0.0
 30
0.0
 70
   128
 71
   582
 72
   558
 73
   566
 74
   589
  0
VERTEX
  5
2DC
330
3C
100
AcDbEntity
  8
METAL
100
AcDbFaceRecord
 10
0.0
 20
0.0
 30
0.0
 70
   128
 71
   478
 72
   459
 73
   454
 74
   468
  0
VERTEX
  5
2DD
330
3C
100
AcDbEntity
  8
METAL
100
AcDbFaceRecord
 10
0.0
 20
0.0
 30
0.0
 70
   128
 71
   602
 72
   601
 73
   605
 74
   606
  0
VERTEX
  5
2DE
330
3C
100
AcDbEntity
  8
METAL
100
AcDbFaceRecord
 10
0.0
 20
0.0
 30
0.0
 70
   128
 71
   505
 72
   537
 73
   539
 74
   501
  0
VERTEX
  5
2DF
330
3C
100
AcDbEntity
  8
METAL
100
AcDbFaceRecord
 10
0.0
 20
0.0
 30
0.0
 70
   128
 71
   601
 72
   582
 73
   589
 74
   605
  0
VERTEX
  5
2E0
330
3C
100
AcDbEntity
  8
METAL
100
AcDbFaceRecord
 10
0.0
 20
0.0
 30
0.0
 70
   128
 71
   538
 72
   506
 73
   502
 74
   540
  0
VERTEX
  5
2E1
330
3C
100
AcDbEntity
  8
METAL
100
AcDbFaceRecord
 10
0.0
 20
0.0
 30
0.0
 70
   128
 71
   506
 72
   478
 73
   468
 74
   502
  0
VERTEX
  5
2E2
330
3C
100
AcDbEntity
  8
METAL
100
AcDbFaceRecord
 10
0.0
 20
0.0
 30
0.0
 70
   128
 71
   557
 72
   581
 73
   590
 74
   565
  0
VERTEX
  5
2E3
330
3C
100
AcDbEntity
  8
METAL
100
AcDbFaceRecord
 10
0.0
 20
0.0
 30
0.0
 70
   128
 71
   581
 72
   602
 73
   606
 74
   590
  0
VERTEX
  5
2E4
330
3C
100
AcDbEntity
  8
METAL
100
AcDbFaceRecord
 10
0.0
 20
0.0
 30
0.0
 70
   128
 71
   459
 72
   477
 73
   467
 74
   454
  0
VERTEX
  5
2E5
330
3C
100
AcDbEntity
  8
METAL
100
AcDbFaceRecord
 10
0.0
 20
0.0
 30
0.0
 70
   128
 71
   477
 72
   505
 73
   501
 74
   467
  0
VERTEX
  5
2E6
330
3C
100
AcDbEntity
  8
METAL
100
AcDbFaceRecord
 10
0.0
 20
0.0
 30
0.0
 70
   128
 71
   566
 72
   540
 73
   536
 74
   568
  0
VERTEX
  5
2E7
330
3C
100
AcDbEntity
  8
METAL
100
AcDbFaceRecord
 10
0.0
 20
0.0
 30
0.0
 70
   128
 71
   539
 72
   565
 73
   567
 74
   535
  0
VERTEX
  5
2E8
330
3C
100
AcDbEntity
  8
METAL
100
AcDbFaceRecord
 10
0.0
 20
0.0
 30
0.0
 70
   128
 71
   589
 72
   566
 73
   568
 74
   595
  0
VERTEX
  5
2E9
330
3C
100
AcDbEntity
  8
METAL
100
AcDbFaceRecord
 10
0.0
 20
0.0
 30
0.0
 70
   128
 71
   468
 72
   454
 73
   448
 74
   465
  0
VERTEX
  5
2EA
330
3C
100
AcDbEntity
  8
METAL
100
AcDbFaceRecord
 10
0.0
 20
0.0
 30
0.0
 70
   128
 71
   606
 72
   605
 73
   609
 74
   610
  0
VERTEX
  5
2EB
330
3C
100
AcDbEntity
  8
METAL
100
AcDbFaceRecord
 10
0.0
 20
0.0
 30
0.0
 70
   128
 71
   501
 72
   539
 73
   535
 74
   497
  0
VERTEX
  5
2EC
330
3C
100
AcDbEntity
  8
METAL
100
AcDbFaceRecord
 10
0.0
 20
0.0
 30
0.0
 70
   128
 71
   605
 72
   589
 73
   595
 74
   609
  0
VERTEX
  5
2ED
330
3C
100
AcDbEntity
  8
METAL
100
AcDbFaceRecord
 10
0.0
 20
0.0
 30
0.0
 70
   128
 71
   540
 72
   502
 73
   498
 74
   536
  0
VERTEX
  5
2EE
330
3C
100
AcDbEntity
  8
METAL
100
AcDbFaceRecord
 10
0.0
 20
0.0
 30
0.0
 70
   128
 71
   502
 72
   468
 73
   465
 74
   498
  0
VERTEX
  5
2EF
330
3C
100
AcDbEntity
  8
METAL
100
AcDbFaceRecord
 10
0.0
 20
0.0
 30
0.0
 70
   128
 71
   565
 72
   590
 73
   596
 74
   567
  0
VERTEX
  5
2F0
330
3C
100
AcDbEntity
  8
METAL
100
AcDbFaceRecord
 10
0.0
 20
0.0
 30
0.0
 70
   128
 71
   590
 72
   606
 73
   610
 74
   596
  0
VERTEX
  5
2F1
330
3C
100
AcDbEntity
  8
METAL
100
AcDbFaceRecord
 10
0.0
 20
0.0
 30
0.0
 70
   128
 71
   454
 72
   467
 73
   464
 74
   448
  0
VERTEX
  5
2F2
330
3C
100
AcDbEntity
  8
METAL
100
AcDbFaceRecord
 10
0.0
 20
0.0
 30
0.0
 70
   128
 71
   467
 72
   501
 73
   497
 74
   464
  0
VERTEX
  5
2F3
330
3C
100
AcDbEntity
  8
METAL
100
AcDbFaceRecord
 10
0.0
 20
0.0
 30
0.0
 70
   128
 71
   536
 72
   534
 73
   564
 74
   568
  0
VERTEX
  5
2F4
330
3C
100
AcDbEntity
  8
METAL
100
AcDbFaceRecord
 10
0.0
 20
0.0
 30
0.0
 70
   128
 71
   535
 72
   567
 73
   563
 74
   533
  0
VERTEX
  5
2F5
330
3C
100
AcDbEntity
  8
METAL
100
AcDbFaceRecord
 10
0.0
 20
0.0
 30
0.0
 70
   128
 71
   568
 72
   564
 73
   593
 74
   595
  0
VERTEX
  5
2F6
330
3C
100
AcDbEntity
  8
METAL
100
AcDbFaceRecord
 10
0.0
 20
0.0
 30
0.0
 70
   128
 71
   448
 72
   441
 73
   458
 74
   465
  0
VERTEX
  5
2F7
330
3C
100
AcDbEntity
  8
METAL
100
AcDbFaceRecord
 10
0.0
 20
0.0
 30
0.0
 70
   128
 71
   610
 72
   609
 73
   607
 74
   608
  0
VERTEX
  5
2F8
330
3C
100
AcDbEntity
  8
METAL
100
AcDbFaceRecord
 10
0.0
 20
0.0
 30
0.0
 70
   128
 71
   497
 72
   535
 73
   533
 74
   493
  0
VERTEX
  5
2F9
330
3C
100
AcDbEntity
  8
METAL
100
AcDbFaceRecord
 10
0.0
 20
0.0
 30
0.0
 70
   128
 71
   609
 72
   595
 73
   593
 74
   607
  0
VERTEX
  5
2FA
330
3C
100
AcDbEntity
  8
METAL
100
AcDbFaceRecord
 10
0.0
 20
0.0
 30
0.0
 70
   128
 71
   498
 72
   494
 73
   534
 74
   536
  0
VERTEX
  5
2FB
330
3C
100
AcDbEntity
  8
METAL
100
AcDbFaceRecord
 10
0.0
 20
0.0
 30
0.0
 70
   128
 71
   465
 72
   458
 73
   494
 74
   498
  0
VERTEX
  5
2FC
330
3C
100
AcDbEntity
  8
METAL
100
AcDbFaceRecord
 10
0.0
 20
0.0
 30
0.0
 70
   128
 71
   596
 72
   594
 73
   563
 74
   567
  0
VERTEX
  5
2FD
330
3C
100
AcDbEntity
  8
METAL
100
AcDbFaceRecord
 10
0.0
 20
0.0
 30
0.0
 70
   128
 71
   610
 72
   608
 73
   594
 74
   596
  0
VERTEX
  5
2FE
330
3C
100
AcDbEntity
  8
METAL
100
AcDbFaceRecord
 10
0.0
 20
0.0
 30
0.0
 70
   128
 71
   448
 72
   464
 73
   457
 74
   440
  0
VERTEX
  5
2FF
330
3C
100
AcDbEntity
  8
METAL
100
AcDbFaceRecord
 10
0.0
 20
0.0
 30
0.0
 70
   128
 71
   464
 72
   497
 73
   493
 74
   457
  0
VERTEX
  5
300
330
3C
100
AcDbEntity
  8
METAL
100
AcDbFaceRecord
 10
0.0
 20
0.0
 30
0.0
 70
   128
 71
   534
 72
   528
 73
   560
 74
   564
  0
VERTEX
  5
301
330
3C
100
AcDbEntity
  8
METAL
100
AcDbFaceRecord
 10
0.0
 20
0.0
 30
0.0
 70
   128
 71
   559
 72
   527
 73
   533
 74
   563
  0
VERTEX
  5
302
330
3C
100
AcDbEntity
  8
METAL
100
AcDbFaceRecord
 10
0.0
 20
0.0
 30
0.0
 70
   128
 71
   560
 72
   587
 73
   593
 74
   564
  0
VERTEX
  5
303
330
3C
100
AcDbEntity
  8
METAL
100
AcDbFaceRecord
 10
0.0
 20
0.0
 30
0.0
 70
   128
 71
   441
 72
   439
 73
   456
 74
   458
  0
VERTEX
  5
304
330
3C
100
AcDbEntity
  8
METAL
100
AcDbFaceRecord
 10
0.0
 20
0.0
 30
0.0
 70
   128
 71
   603
 72
   604
 73
   608
 74
   607
  0
VERTEX
  5
305
330
3C
100
AcDbEntity
  8
METAL
100
AcDbFaceRecord
 10
0.0
 20
0.0
 30
0.0
 70
   128
 71
   527
 72
   487
 73
   493
 74
   533
  0
VERTEX
  5
306
330
3C
100
AcDbEntity
  8
METAL
100
AcDbFaceRecord
 10
0.0
 20
0.0
 30
0.0
 70
   128
 71
   587
 72
   603
 73
   607
 74
   593
  0
VERTEX
  5
307
330
3C
100
AcDbEntity
  8
METAL
100
AcDbFaceRecord
 10
0.0
 20
0.0
 30
0.0
 70
   128
 71
   494
 72
   488
 73
   528
 74
   534
  0
VERTEX
  5
308
330
3C
100
AcDbEntity
  8
METAL
100
AcDbFaceRecord
 10
0.0
 20
0.0
 30
0.0
 70
   128
 71
   458
 72
   456
 73
   488
 74
   494
  0
VERTEX
  5
309
330
3C
100
AcDbEntity
  8
METAL
100
AcDbFaceRecord
 10
0.0
 20
0.0
 30
0.0
 70
   128
 71
   594
 72
   588
 73
   559
 74
   563
  0
VERTEX
  5
30A
330
3C
100
AcDbEntity
  8
METAL
100
AcDbFaceRecord
 10
0.0
 20
0.0
 30
0.0
 70
   128
 71
   608
 72
   604
 73
   588
 74
   594
  0
VERTEX
  5
30B
330
3C
100
AcDbEntity
  8
METAL
100
AcDbFaceRecord
 10
0.0
 20
0.0
 30
0.0
 70
   128
 71
   455
 72
   438
 73
   440
 74
   457
  0
VERTEX
  5
30C
330
3C
100
AcDbEntity
  8
METAL
100
AcDbFaceRecord
 10
0.0
 20
0.0
 30
0.0
 70
   128
 71
   487
 72
   455
 73
   457
 74
   493
  0
VERTEX
  5
30D
330
3C
100
AcDbEntity
  8
METAL
100
AcDbFaceRecord
 10
0.0
 20
0.0
 30
0.0
 70
   128
 71
   528
 72
   522
 73
   556
 74
   560
  0
VERTEX
  5
30E
330
3C
100
AcDbEntity
  8
METAL
100
AcDbFaceRecord
 10
0.0
 20
0.0
 30
0.0
 70
   128
 71
   527
 72
   559
 73
   555
 74
   521
  0
VERTEX
  5
30F
330
3C
100
AcDbEntity
  8
METAL
100
AcDbFaceRecord
 10
0.0
 20
0.0
 30
0.0
 70
   128
 71
   560
 72
   556
 73
   583
 74
   587
  0
VERTEX
  5
310
330
3C
100
AcDbEntity
  8
METAL
100
AcDbFaceRecord
 10
0.0
 20
0.0
 30
0.0
 70
   128
 71
   439
 72
   435
 73
   443
 74
   456
  0
VERTEX
  5
311
330
3C
100
AcDbEntity
  8
METAL
100
AcDbFaceRecord
 10
0.0
 20
0.0
 30
0.0
 70
   128
 71
   603
 72
   599
 73
   600
 74
   604
  0
VERTEX
  5
312
330
3C
100
AcDbEntity
  8
METAL
100
AcDbFaceRecord
 10
0.0
 20
0.0
 30
0.0
 70
   128
 71
   487
 72
   527
 73
   521
 74
   485
  0
VERTEX
  5
313
330
3C
100
AcDbEntity
  8
METAL
100
AcDbFaceRecord
 10
0.0
 20
0.0
 30
0.0
 70
   128
 71
   587
 72
   583
 73
   599
 74
   603
  0
VERTEX
  5
314
330
3C
100
AcDbEntity
  8
METAL
100
AcDbFaceRecord
 10
0.0
 20
0.0
 30
0.0
 70
   128
 71
   488
 72
   486
 73
   522
 74
   528
  0
VERTEX
  5
315
330
3C
100
AcDbEntity
  8
METAL
100
AcDbFaceRecord
 10
0.0
 20
0.0
 30
0.0
 70
   128
 71
   456
 72
   443
 73
   486
 74
   488
  0
VERTEX
  5
316
330
3C
100
AcDbEntity
  8
METAL
100
AcDbFaceRecord
 10
0.0
 20
0.0
 30
0.0
 70
   128
 71
   559
 72
   588
 73
   584
 74
   555
  0
VERTEX
  5
317
330
3C
100
AcDbEntity
  8
METAL
100
AcDbFaceRecord
 10
0.0
 20
0.0
 30
0.0
 70
   128
 71
   588
 72
   604
 73
   600
 74
   584
  0
VERTEX
  5
318
330
3C
100
AcDbEntity
  8
METAL
100
AcDbFaceRecord
 10
0.0
 20
0.0
 30
0.0
 70
   128
 71
   438
 72
   455
 73
   442
 74
   434
  0
VERTEX
  5
319
330
3C
100
AcDbEntity
  8
METAL
100
AcDbFaceRecord
 10
0.0
 20
0.0
 30
0.0
 70
   128
 71
   455
 72
   487
 73
   485
 74
   442
  0
VERTEX
  5
31A
330
3C
100
AcDbEntity
  8
METAL
100
AcDbFaceRecord
 10
0.0
 20
0.0
 30
0.0
 70
   128
 71
   522
 72
   516
 73
   551
 74
   556
  0
VERTEX
  5
31B
330
3C
100
AcDbEntity
  8
METAL
100
AcDbFaceRecord
 10
0.0
 20
0.0
 30
0.0
 70
   128
 71
   552
 72
   515
 73
   521
 74
   555
  0
VERTEX
  5
31C
330
3C
100
AcDbEntity
  8
METAL
100
AcDbFaceRecord
 10
0.0
 20
0.0
 30
0.0
 70
   128
 71
   556
 72
   551
 73
   579
 74
   583
  0
VERTEX
  5
31D
330
3C
100
AcDbEntity
  8
METAL
100
AcDbFaceRecord
 10
0.0
 20
0.0
 30
0.0
 70
   128
 71
   435
 72
   433
 73
   437
 74
   443
  0
VERTEX
  5
31E
330
3C
100
AcDbEntity
  8
METAL
100
AcDbFaceRecord
 10
0.0
 20
0.0
 30
0.0
 70
   128
 71
   599
 72
   591
 73
   592
 74
   600
  0
VERTEX
  5
31F
330
3C
100
AcDbEntity
  8
METAL
100
AcDbFaceRecord
 10
0.0
 20
0.0
 30
0.0
 70
   128
 71
   515
 72
   481
 73
   485
 74
   521
  0
VERTEX
  5
320
330
3C
100
AcDbEntity
  8
METAL
100
AcDbFaceRecord
 10
0.0
 20
0.0
 30
0.0
 70
   128
 71
   583
 72
   579
 73
   591
 74
   599
  0
VERTEX
  5
321
330
3C
100
AcDbEntity
  8
METAL
100
AcDbFaceRecord
 10
0.0
 20
0.0
 30
0.0
 70
   128
 71
   486
 72
   482
 73
   516
 74
   522
  0
VERTEX
  5
322
330
3C
100
AcDbEntity
  8
METAL
100
AcDbFaceRecord
 10
0.0
 20
0.0
 30
0.0
 70
   128
 71
   443
 72
   437
 73
   482
 74
   486
  0
VERTEX
  5
323
330
3C
100
AcDbEntity
  8
METAL
100
AcDbFaceRecord
 10
0.0
 20
0.0
 30
0.0
 70
   128
 71
   580
 72
   552
 73
   555
 74
   584
  0
VERTEX
  5
324
330
3C
100
AcDbEntity
  8
METAL
100
AcDbFaceRecord
 10
0.0
 20
0.0
 30
0.0
 70
   128
 71
   592
 72
   580
 73
   584
 74
   600
  0
VERTEX
  5
325
330
3C
100
AcDbEntity
  8
METAL
100
AcDbFaceRecord
 10
0.0
 20
0.0
 30
0.0
 70
   128
 71
   436
 72
   432
 73
   434
 74
   442
  0
VERTEX
  5
326
330
3C
100
AcDbEntity
  8
METAL
100
AcDbFaceRecord
 10
0.0
 20
0.0
 30
0.0
 70
   128
 71
   481
 72
   436
 73
   442
 74
   485
  0
VERTEX
  5
327
330
3C
100
AcDbEntity
  8
METAL
100
AcDbFaceRecord
 10
0.0
 20
0.0
 30
0.0
 70
   128
 71
   532
 72
   554
 73
   550
 74
   524
  0
VERTEX
  5
328
330
3C
100
AcDbEntity
  8
METAL
100
AcDbFaceRecord
 10
0.0
 20
0.0
 30
0.0
 70
   128
 71
   549
 72
   553
 73
   531
 74
   523
  0
VERTEX
  5
329
330
3C
100
AcDbEntity
  8
METAL
100
AcDbFaceRecord
 10
0.0
 20
0.0
 30
0.0
 70
   128
 71
   554
 72
   578
 73
   574
 74
   550
  0
VERTEX
  5
32A
330
3C
100
AcDbEntity
  8
METAL
100
AcDbFaceRecord
 10
0.0
 20
0.0
 30
0.0
 70
   128
 71
   460
 72
   480
 73
   476
 74
   466
  0
VERTEX
  5
32B
330
3C
100
AcDbEntity
  8
METAL
100
AcDbFaceRecord
 10
0.0
 20
0.0
 30
0.0
 70
   128
 71
   597
 72
   598
 73
   586
 74
   585
  0
VERTEX
  5
32C
330
3C
100
AcDbEntity
  8
METAL
100
AcDbFaceRecord
 10
0.0
 20
0.0
 30
0.0
 70
   128
 71
   523
 72
   531
 73
   503
 74
   499
  0
VERTEX
  5
32D
330
3C
100
AcDbEntity
  8
METAL
100
AcDbFaceRecord
 10
0.0
 20
0.0
 30
0.0
 70
   128
 71
   578
 72
   597
 73
   585
 74
   574
  0
VERTEX
  5
32E
330
3C
100
AcDbEntity
  8
METAL
100
AcDbFaceRecord
 10
0.0
 20
0.0
 30
0.0
 70
   128
 71
   504
 72
   532
 73
   524
 74
   500
  0
VERTEX
  5
32F
330
3C
100
AcDbEntity
  8
METAL
100
AcDbFaceRecord
 10
0.0
 20
0.0
 30
0.0
 70
   128
 71
   480
 72
   504
 73
   500
 74
   476
  0
VERTEX
  5
330
330
3C
100
AcDbEntity
  8
METAL
100
AcDbFaceRecord
 10
0.0
 20
0.0
 30
0.0
 70
   128
 71
   573
 72
   577
 73
   553
 74
   549
  0
VERTEX
  5
331
330
3C
100
AcDbEntity
  8
METAL
100
AcDbFaceRecord
 10
0.0
 20
0.0
 30
0.0
 70
   128
 71
   586
 72
   598
 73
   577
 74
   573
  0
VERTEX
  5
332
330
3C
100
AcDbEntity
  8
METAL
100
AcDbFaceRecord
 10
0.0
 20
0.0
 30
0.0
 70
   128
 71
   475
 72
   479
 73
   460
 74
   466
  0
VERTEX
  5
333
330
3C
100
AcDbEntity
  8
METAL
100
AcDbFaceRecord
 10
0.0
 20
0.0
 30
0.0
 70
   128
 71
   499
 72
   503
 73
   479
 74
   475
  0
VERTEX
  5
334
330
3C
100
AcDbEntity
  8
METAL
100
AcDbFaceRecord
 10
0.0
 20
0.0
 30
0.0
 70
   128
 71
   551
 72
   516
 73
   508
 74
   543
  0
VERTEX
  5
335
330
3C
100
AcDbEntity
  8
METAL
100
AcDbFaceRecord
 10
0.0
 20
0.0
 30
0.0
 70
   128
 71
   515
 72
   552
 73
   544
 74
   507
  0
VERTEX
  5
336
330
3C
100
AcDbEntity
  8
METAL
100
AcDbFaceRecord
 10
0.0
 20
0.0
 30
0.0
 70
   128
 71
   579
 72
   551
 73
   543
 74
   561
  0
VERTEX
  5
337
330
3C
100
AcDbEntity
  8
METAL
100
AcDbFaceRecord
 10
0.0
 20
0.0
 30
0.0
 70
   128
 71
   437
 72
   432
 73
   429
 74
   431
  0
VERTEX
  5
338
330
3C
100
AcDbEntity
  8
METAL
100
AcDbFaceRecord
 10
0.0
 20
0.0
 30
0.0
 70
   128
 71
   592
 72
   591
 73
   571
 74
   572
  0
VERTEX
  5
339
330
3C
100
AcDbEntity
  8
METAL
100
AcDbFaceRecord
 10
0.0
 20
0.0
 30
0.0
 70
   128
 71
   481
 72
   515
 73
   507
 74
   446
  0
VERTEX
  5
33A
330
3C
100
AcDbEntity
  8
METAL
100
AcDbFaceRecord
 10
0.0
 20
0.0
 30
0.0
 70
   128
 71
   591
 72
   579
 73
   561
 74
   571
  0
VERTEX
  5
33B
330
3C
100
AcDbEntity
  8
METAL
100
AcDbFaceRecord
 10
0.0
 20
0.0
 30
0.0
 70
   128
 71
   516
 72
   482
 73
   447
 74
   508
  0
VERTEX
  5
33C
330
3C
100
AcDbEntity
  8
METAL
100
AcDbFaceRecord
 10
0.0
 20
0.0
 30
0.0
 70
   128
 71
   482
 72
   437
 73
   431
 74
   447
  0
VERTEX
  5
33D
330
3C
100
AcDbEntity
  8
METAL
100
AcDbFaceRecord
 10
0.0
 20
0.0
 30
0.0
 70
   128
 71
   552
 72
   580
 73
   562
 74
   544
  0
VERTEX
  5
33E
330
3C
100
AcDbEntity
  8
METAL
100
AcDbFaceRecord
 10
0.0
 20
0.0
 30
0.0
 70
   128
 71
   580
 72
   592
 73
   572
 74
   562
  0
VERTEX
  5
33F
330
3C
100
AcDbEntity
  8
METAL
100
AcDbFaceRecord
 10
0.0
 20
0.0
 30
0.0
 70
   128
 71
   432
 72
   436
 73
   430
 74
   429
  0
VERTEX
  5
340
330
3C
100
AcDbEntity
  8
METAL
100
AcDbFaceRecord
 10
0.0
 20
0.0
 30
0.0
 70
   128
 71
   436
 72
   481
 73
   446
 74
   430
  0
VERTEX
  5
341
330
3C
100
AcDbEntity
  8
METAL
100
AcDbFaceRecord
 10
0.0
 20
0.0
 30
0.0
 70
   128
 71
   543
 72
   508
 73
   400
 74
   416
  0
VERTEX
  5
342
330
3C
100
AcDbEntity
  8
METAL
100
AcDbFaceRecord
 10
0.0
 20
0.0
 30
0.0
 70
   128
 71
   507
 72
   544
 73
   414
 74
   398
  0
VERTEX
  5
343
330
3C
100
AcDbEntity
  8
METAL
100
AcDbFaceRecord
 10
0.0
 20
0.0
 30
0.0
 70
   128
 71
   571
 72
   561
 73
   424
 74
   428
  0
VERTEX
  5
344
330
3C
100
AcDbEntity
  8
METAL
100
AcDbFaceRecord
 10
0.0
 20
0.0
 30
0.0
 70
   128
 71
   447
 72
   431
 73
   382
 74
   386
  0
VERTEX
  5
345
330
3C
100
AcDbEntity
  8
METAL
100
AcDbFaceRecord
 10
0.0
 20
0.0
 30
0.0
 70
   128
 71
   367
 72
   320
 73
   322
 74
   371
  0
VERTEX
  5
346
330
3C
100
AcDbEntity
  8
METAL
100
AcDbFaceRecord
 10
0.0
 20
0.0
 30
0.0
 70
   128
 71
   329
 72
   325
 73
   312
 74
   314
  0
VERTEX
  5
347
330
3C
100
AcDbEntity
  8
METAL
100
AcDbFaceRecord
 10
0.0
 20
0.0
 30
0.0
 70
   128
 71
   333
 72
   339
 73
   317
 74
   315
  0
VERTEX
  5
348
330
3C
100
AcDbEntity
  8
METAL
100
AcDbFaceRecord
 10
0.0
 20
0.0
 30
0.0
 70
   128
 71
   373
 72
   375
 73
   324
 74
   323
  0
VERTEX
  5
349
330
3C
100
AcDbEntity
  8
METAL
100
AcDbFaceRecord
 10
0.0
 20
0.0
 30
0.0
 70
   128
 71
   335
 72
   316
 73
   318
 74
   341
  0
VERTEX
  5
34A
330
3C
100
AcDbEntity
  8
METAL
100
AcDbFaceRecord
 10
0.0
 20
0.0
 30
0.0
 70
   128
 71
   365
 72
   369
 73
   321
 74
   319
  0
VERTEX
  5
34B
330
3C
100
AcDbEntity
  8
METAL
100
AcDbFaceRecord
 10
0.0
 20
0.0
 30
0.0
 70
   128
 71
   373
 72
   323
 73
   321
 74
   369
  0
VERTEX
  5
34C
330
3C
100
AcDbEntity
  8
METAL
100
AcDbFaceRecord
 10
0.0
 20
0.0
 30
0.0
 70
   128
 71
   325
 72
   327
 73
   313
 74
   312
  0
VERTEX
  5
34D
330
3C
100
AcDbEntity
  8
METAL
100
AcDbFaceRecord
 10
0.0
 20
0.0
 30
0.0
 70
   128
 71
   333
 72
   315
 73
   313
 74
   327
  0
VERTEX
  5
34E
330
3C
100
AcDbEntity
  8
METAL
100
AcDbFaceRecord
 10
0.0
 20
0.0
 30
0.0
 70
   128
 71
   402
 72
   343
 73
   355
 74
   410
  0
VERTEX
  5
34F
330
3C
100
AcDbEntity
  8
METAL
100
AcDbFaceRecord
 10
0.0
 20
0.0
 30
0.0
 70
   128
 71
   363
 72
   345
 73
   404
 74
   412
  0
VERTEX
  5
350
330
3C
100
AcDbEntity
  8
METAL
100
AcDbFaceRecord
 10
0.0
 20
0.0
 30
0.0
 70
   128
 71
   418
 72
   347
 73
   331
 74
   406
  0
VERTEX
  5
351
330
3C
100
AcDbEntity
  8
METAL
100
AcDbFaceRecord
 10
0.0
 20
0.0
 30
0.0
 70
   128
 71
   390
 72
   353
 73
   349
 74
   394
  0
VERTEX
  5
352
330
3C
100
AcDbEntity
  8
METAL
100
AcDbFaceRecord
 10
0.0
 20
0.0
 30
0.0
 70
   128
 71
   561
 72
   543
 73
   416
 74
   424
  0
VERTEX
  5
353
330
3C
100
AcDbEntity
  8
METAL
100
AcDbFaceRecord
 10
0.0
 20
0.0
 30
0.0
 70
   128
 71
   431
 72
   429
 73
   378
 74
   382
  0
VERTEX
  5
354
330
3C
100
AcDbEntity
  8
METAL
100
AcDbFaceRecord
 10
0.0
 20
0.0
 30
0.0
 70
   128
 71
   446
 72
   507
 73
   398
 74
   384
  0
VERTEX
  5
355
330
3C
100
AcDbEntity
  8
METAL
100
AcDbFaceRecord
 10
0.0
 20
0.0
 30
0.0
 70
   128
 71
   572
 72
   571
 73
   428
 74
   426
  0
VERTEX
  5
356
330
3C
100
AcDbEntity
  8
METAL
100
AcDbFaceRecord
 10
0.0
 20
0.0
 30
0.0
 70
   128
 71
   508
 72
   447
 73
   386
 74
   400
  0
VERTEX
  5
357
330
3C
100
AcDbEntity
  8
METAL
100
AcDbFaceRecord
 10
0.0
 20
0.0
 30
0.0
 70
   128
 71
   544
 72
   562
 73
   422
 74
   414
  0
VERTEX
  5
358
330
3C
100
AcDbEntity
  8
METAL
100
AcDbFaceRecord
 10
0.0
 20
0.0
 30
0.0
 70
   128
 71
   562
 72
   572
 73
   426
 74
   422
  0
VERTEX
  5
359
330
3C
100
AcDbEntity
  8
METAL
100
AcDbFaceRecord
 10
0.0
 20
0.0
 30
0.0
 70
   128
 71
   429
 72
   430
 73
   380
 74
   378
  0
VERTEX
  5
35A
330
3C
100
AcDbEntity
  8
METAL
100
AcDbFaceRecord
 10
0.0
 20
0.0
 30
0.0
 70
   128
 71
   430
 72
   446
 73
   384
 74
   380
  0
VERTEX
  5
35B
330
3C
100
AcDbEntity
  8
METAL
100
AcDbFaceRecord
 10
0.0
 20
0.0
 30
0.0
 70
   128
 71
   347
 72
   418
 73
   410
 74
   355
  0
VERTEX
  5
35C
330
3C
100
AcDbEntity
  8
METAL
100
AcDbFaceRecord
 10
0.0
 20
0.0
 30
0.0
 70
   128
 71
   353
 72
   390
 73
   388
 74
   351
  0
VERTEX
  5
35D
330
3C
100
AcDbEntity
  8
METAL
100
AcDbFaceRecord
 10
0.0
 20
0.0
 30
0.0
 70
   128
 71
   396
 72
   404
 73
   345
 74
   359
  0
VERTEX
  5
35E
330
3C
100
AcDbEntity
  8
METAL
100
AcDbFaceRecord
 10
0.0
 20
0.0
 30
0.0
 70
   128
 71
   408
 72
   406
 73
   331
 74
   337
  0
VERTEX
  5
35F
330
3C
100
AcDbEntity
  8
METAL
100
AcDbFaceRecord
 10
0.0
 20
0.0
 30
0.0
 70
   128
 71
   343
 72
   402
 73
   394
 74
   349
  0
VERTEX
  5
360
330
3C
100
AcDbEntity
  8
METAL
100
AcDbFaceRecord
 10
0.0
 20
0.0
 30
0.0
 70
   128
 71
   412
 72
   420
 73
   357
 74
   363
  0
VERTEX
  5
361
330
3C
100
AcDbEntity
  8
METAL
100
AcDbFaceRecord
 10
0.0
 20
0.0
 30
0.0
 70
   128
 71
   420
 72
   408
 73
   337
 74
   357
  0
VERTEX
  5
362
330
3C
100
AcDbEntity
  8
METAL
100
AcDbFaceRecord
 10
0.0
 20
0.0
 30
0.0
 70
   128
 71
   388
 72
   392
 73
   361
 74
   351
  0
VERTEX
  5
363
330
3C
100
AcDbEntity
  8
METAL
100
AcDbFaceRecord
 10
0.0
 20
0.0
 30
0.0
 70
   128
 71
   392
 72
   396
 73
   359
 74
   361
  0
VERTEX
  5
364
330
3C
100
AcDbEntity
  8
METAL
100
AcDbFaceRecord
 10
0.0
 20
0.0
 30
0.0
 70
   128
 71
   318
 72
   320
 73
   367
 74
   341
  0
VERTEX
  5
365
330
3C
100
AcDbEntity
  8
METAL
100
AcDbFaceRecord
 10
0.0
 20
0.0
 30
0.0
 70
   128
 71
   319
 72
   317
 73
   339
 74
   365
  0
VERTEX
  5
366
330
3C
100
AcDbEntity
  8
METAL
100
AcDbFaceRecord
 10
0.0
 20
0.0
 30
0.0
 70
   128
 71
   371
 72
   322
 73
   324
 74
   375
  0
VERTEX
  5
367
330
3C
100
AcDbEntity
  8
METAL
100
AcDbFaceRecord
 10
0.0
 20
0.0
 30
0.0
 70
   128
 71
   329
 72
   314
 73
   316
 74
   335
  0
VERTEX
  5
368
330
3C
100
AcDbEntity
  8
METAL
100
AcDbFaceRecord
 10
0.0
 20
0.0
 30
0.0
 70
   128
 71
   415
 72
   399
 73
   401
 74
   409
  0
VERTEX
  5
369
330
3C
100
AcDbEntity
  8
METAL
100
AcDbFaceRecord
 10
0.0
 20
0.0
 30
0.0
 70
   128
 71
   399
 72
   385
 73
   393
 74
   401
  0
VERTEX
  5
36A
330
3C
100
AcDbEntity
  8
METAL
100
AcDbFaceRecord
 10
0.0
 20
0.0
 30
0.0
 70
   128
 71
   385
 72
   381
 73
   389
 74
   393
  0
VERTEX
  5
36B
330
3C
100
AcDbEntity
  8
METAL
100
AcDbFaceRecord
 10
0.0
 20
0.0
 30
0.0
 70
   128
 71
   381
 72
   377
 73
   387
 74
   389
  0
VERTEX
  5
36C
330
3C
100
AcDbEntity
  8
METAL
100
AcDbFaceRecord
 10
0.0
 20
0.0
 30
0.0
 70
   128
 71
   377
 72
   379
 73
   391
 74
   387
  0
VERTEX
  5
36D
330
3C
100
AcDbEntity
  8
METAL
100
AcDbFaceRecord
 10
0.0
 20
0.0
 30
0.0
 70
   128
 71
   379
 72
   383
 73
   395
 74
   391
  0
VERTEX
  5
36E
330
3C
100
AcDbEntity
  8
METAL
100
AcDbFaceRecord
 10
0.0
 20
0.0
 30
0.0
 70
   128
 71
   383
 72
   397
 73
   403
 74
   395
  0
VERTEX
  5
36F
330
3C
100
AcDbEntity
  8
METAL
100
AcDbFaceRecord
 10
0.0
 20
0.0
 30
0.0
 70
   128
 71
   397
 72
   413
 73
   411
 74
   403
  0
VERTEX
  5
370
330
3C
100
AcDbEntity
  8
METAL
100
AcDbFaceRecord
 10
0.0
 20
0.0
 30
0.0
 70
   128
 71
   413
 72
   421
 73
   419
 74
   411
  0
VERTEX
  5
371
330
3C
100
AcDbEntity
  8
METAL
100
AcDbFaceRecord
 10
0.0
 20
0.0
 30
0.0
 70
   128
 71
   421
 72
   425
 73
   407
 74
   419
  0
VERTEX
  5
372
330
3C
100
AcDbEntity
  8
METAL
100
AcDbFaceRecord
 10
0.0
 20
0.0
 30
0.0
 70
   128
 71
   425
 72
   427
 73
   405
 74
   407
  0
VERTEX
  5
373
330
3C
100
AcDbEntity
  8
METAL
100
AcDbFaceRecord
 10
0.0
 20
0.0
 30
0.0
 70
   128
 71
   427
 72
   423
 73
   417
 74
   405
  0
VERTEX
  5
374
330
3C
100
AcDbEntity
  8
METAL
100
AcDbFaceRecord
 10
0.0
 20
0.0
 30
0.0
 70
   128
 71
   423
 72
   415
 73
   409
 74
   417
  0
VERTEX
  5
375
330
3C
100
AcDbEntity
  8
METAL
100
AcDbFaceRecord
 10
0.0
 20
0.0
 30
0.0
 70
   128
 71
   368
 72
   372
 73
   348
 74
   356
  0
VERTEX
  5
376
330
3C
100
AcDbEntity
  8
METAL
100
AcDbFaceRecord
 10
0.0
 20
0.0
 30
0.0
 70
   128
 71
   372
 72
   376
 73
   332
 74
   348
  0
VERTEX
  5
377
330
3C
100
AcDbEntity
  8
METAL
100
AcDbFaceRecord
 10
0.0
 20
0.0
 30
0.0
 70
   128
 71
   376
 72
   374
 73
   338
 74
   332
  0
VERTEX
  5
378
330
3C
100
AcDbEntity
  8
METAL
100
AcDbFaceRecord
 10
0.0
 20
0.0
 30
0.0
 70
   128
 71
   374
 72
   370
 73
   358
 74
   338
  0
VERTEX
  5
379
330
3C
100
AcDbEntity
  8
METAL
100
AcDbFaceRecord
 10
0.0
 20
0.0
 30
0.0
 70
   128
 71
   370
 72
   366
 73
   364
 74
   358
  0
VERTEX
  5
37A
330
3C
100
AcDbEntity
  8
METAL
100
AcDbFaceRecord
 10
0.0
 20
0.0
 30
0.0
 70
   128
 71
   366
 72
   340
 73
   346
 74
   364
  0
VERTEX
  5
37B
330
3C
100
AcDbEntity
  8
METAL
100
AcDbFaceRecord
 10
0.0
 20
0.0
 30
0.0
 70
   128
 71
   340
 72
   334
 73
   360
 74
   346
  0
VERTEX
  5
37C
330
3C
100
AcDbEntity
  8
METAL
100
AcDbFaceRecord
 10
0.0
 20
0.0
 30
0.0
 70
   128
 71
   334
 72
   328
 73
   362
 74
   360
  0
VERTEX
  5
37D
330
3C
100
AcDbEntity
  8
METAL
100
AcDbFaceRecord
 10
0.0
 20
0.0
 30
0.0
 70
   128
 71
   328
 72
   326
 73
   352
 74
   362
  0
VERTEX
  5
37E
330
3C
100
AcDbEntity
  8
METAL
100
AcDbFaceRecord
 10
0.0
 20
0.0
 30
0.0
 70
   128
 71
   326
 72
   330
 73
   354
 74
   352
  0
VERTEX
  5
37F
330
3C
100
AcDbEntity
  8
METAL
100
AcDbFaceRecord
 10
0.0
 20
0.0
 30
0.0
 70
   128
 71
   330
 72
   336
 73
   350
 74
   354
  0
VERTEX
  5
380
330
3C
100
AcDbEntity
  8
METAL
100
AcDbFaceRecord
 10
0.0
 20
0.0
 30
0.0
 70
   128
 71
   336
 72
   342
 73
   344
 74
   350
  0
VERTEX
  5
381
330
3C
100
AcDbEntity
  8
METAL
100
AcDbFaceRecord
 10
0.0
 20
0.0
 30
0.0
 70
   128
 71
   342
 72
   368
 73
   356
 74
   344
  0
VERTEX
  5
382
330
3C
100
AcDbEntity
  8
METAL
100
AcDbFaceRecord
 10
0.0
 20
0.0
 30
0.0
 70
   128
 71
   320
 72
   318
 73
   310
 74
   311
  0
VERTEX
  5
383
330
3C
100
AcDbEntity
  8
METAL
100
AcDbFaceRecord
 10
0.0
 20
0.0
 30
0.0
 70
   128
 71
   317
 72
   319
 73
   299
 74
   300
  0
VERTEX
  5
384
330
3C
100
AcDbEntity
  8
METAL
100
AcDbFaceRecord
 10
0.0
 20
0.0
 30
0.0
 70
   128
 71
   324
 72
   322
 73
   309
 74
   307
  0
VERTEX
  5
385
330
3C
100
AcDbEntity
  8
METAL
100
AcDbFaceRecord
 10
0.0
 20
0.0
 30
0.0
 70
   128
 71
   316
 72
   314
 73
   306
 74
   308
  0
VERTEX
  5
386
330
3C
100
AcDbEntity
  8
METAL
100
AcDbFaceRecord
 10
0.0
 20
0.0
 30
0.0
 70
   128
 71
   322
 72
   320
 73
   311
 74
   309
  0
VERTEX
  5
387
330
3C
100
AcDbEntity
  8
METAL
100
AcDbFaceRecord
 10
0.0
 20
0.0
 30
0.0
 70
   128
 71
   314
 72
   312
 73
   305
 74
   306
  0
VERTEX
  5
388
330
3C
100
AcDbEntity
  8
METAL
100
AcDbFaceRecord
 10
0.0
 20
0.0
 30
0.0
 70
   128
 71
   302
 72
   315
 73
   317
 74
   300
  0
VERTEX
  5
389
330
3C
100
AcDbEntity
  8
METAL
100
AcDbFaceRecord
 10
0.0
 20
0.0
 30
0.0
 70
   128
 71
   323
 72
   324
 73
   307
 74
   303
  0
VERTEX
  5
38A
330
3C
100
AcDbEntity
  8
METAL
100
AcDbFaceRecord
 10
0.0
 20
0.0
 30
0.0
 70
   128
 71
   318
 72
   316
 73
   308
 74
   310
  0
VERTEX
  5
38B
330
3C
100
AcDbEntity
  8
METAL
100
AcDbFaceRecord
 10
0.0
 20
0.0
 30
0.0
 70
   128
 71
   319
 72
   321
 73
   301
 74
   299
  0
VERTEX
  5
38C
330
3C
100
AcDbEntity
  8
METAL
100
AcDbFaceRecord
 10
0.0
 20
0.0
 30
0.0
 70
   128
 71
   321
 72
   323
 73
   303
 74
   301
  0
VERTEX
  5
38D
330
3C
100
AcDbEntity
  8
METAL
100
AcDbFaceRecord
 10
0.0
 20
0.0
 30
0.0
 70
   128
 71
   312
 72
   313
 73
   304
 74
   305
  0
VERTEX
  5
38E
330
3C
100
AcDbEntity
  8
METAL
100
AcDbFaceRecord
 10
0.0
 20
0.0
 30
0.0
 70
   128
 71
   313
 72
   315
 73
   302
 74
   304
  0
VERTEX
  5
38F
330
3C
100
AcDbEntity
  8
METAL
100
AcDbFaceRecord
 10
0.0
 20
0.0
 30
0.0
 70
   128
 71
   141
 72
   161
 73
   166
 74
   121
  0
VERTEX
  5
390
330
3C
100
AcDbEntity
  8
METAL
100
AcDbFaceRecord
 10
0.0
 20
0.0
 30
0.0
 70
   128
 71
   139
 72
   119
 73
    98
 74
   159
  0
VERTEX
  5
391
330
3C
100
AcDbEntity
  8
METAL
100
AcDbFaceRecord
 10
0.0
 20
0.0
 30
0.0
 70
   128
 71
   166
 72
   159
 73
    98
 74
    81
  0
VERTEX
  5
392
330
3C
100
AcDbEntity
  8
METAL
100
AcDbFaceRecord
 10
0.0
 20
0.0
 30
0.0
 70
   128
 71
    93
 72
    82
 73
    81
 74
    98
  0
VERTEX
  5
393
330
3C
100
AcDbEntity
  8
METAL
100
AcDbFaceRecord
 10
0.0
 20
0.0
 30
0.0
 70
   128
 71
   121
 72
   166
 73
    81
 74
    94
  0
VERTEX
  5
394
330
3C
100
AcDbEntity
  8
METAL
100
AcDbFaceRecord
 10
0.0
 20
0.0
 30
0.0
 70
   128
 71
    99
 72
   121
 73
    94
 74
    94
  0
VERTEX
  5
395
330
3C
100
AcDbEntity
  8
METAL
100
AcDbFaceRecord
 10
0.0
 20
0.0
 30
0.0
 70
   128
 71
   100
 72
    86
 73
   102
 74
   122
  0
VERTEX
  5
396
330
3C
100
AcDbEntity
  8
METAL
100
AcDbFaceRecord
 10
0.0
 20
0.0
 30
0.0
 70
   128
 71
   120
 72
   101
 73
    85
 74
    97
  0
VERTEX
  5
397
330
3C
100
AcDbEntity
  8
METAL
100
AcDbFaceRecord
 10
0.0
 20
0.0
 30
0.0
 70
   128
 71
   128
 72
   142
 73
   122
 74
   102
  0
VERTEX
  5
398
330
3C
100
AcDbEntity
  8
METAL
100
AcDbFaceRecord
 10
0.0
 20
0.0
 30
0.0
 70
   128
 71
    94
 72
    70
 73
    86
 74
   100
  0
VERTEX
  5
399
330
3C
100
AcDbEntity
  8
METAL
100
AcDbFaceRecord
 10
0.0
 20
0.0
 30
0.0
 70
   128
 71
   149
 72
   160
 73
   167
 74
   158
  0
VERTEX
  5
39A
330
3C
100
AcDbEntity
  8
METAL
100
AcDbFaceRecord
 10
0.0
 20
0.0
 30
0.0
 70
   128
 71
    69
 72
    93
 73
    97
 74
    85
  0
VERTEX
  5
39B
330
3C
100
AcDbEntity
  8
METAL
100
AcDbFaceRecord
 10
0.0
 20
0.0
 30
0.0
 70
   128
 71
   150
 72
   162
 73
   142
 74
   128
  0
VERTEX
  5
39C
330
3C
100
AcDbEntity
  8
METAL
100
AcDbFaceRecord
 10
0.0
 20
0.0
 30
0.0
 70
   128
 71
   158
 72
   167
 73
   162
 74
   150
  0
VERTEX
  5
39D
330
3C
100
AcDbEntity
  8
METAL
100
AcDbFaceRecord
 10
0.0
 20
0.0
 30
0.0
 70
   128
 71
    81
 72
    65
 73
    70
 74
    94
  0
VERTEX
  5
39E
330
3C
100
AcDbEntity
  8
METAL
100
AcDbFaceRecord
 10
0.0
 20
0.0
 30
0.0
 70
   128
 71
   127
 72
   140
 73
   160
 74
   149
  0
VERTEX
  5
39F
330
3C
100
AcDbEntity
  8
METAL
100
AcDbFaceRecord
 10
0.0
 20
0.0
 30
0.0
 70
   128
 71
   101
 72
   120
 73
   140
 74
   127
  0
VERTEX
  5
3A0
330
3C
100
AcDbEntity
  8
METAL
100
AcDbFaceRecord
 10
0.0
 20
0.0
 30
0.0
 70
   128
 71
    66
 72
    82
 73
    93
 74
    69
  0
VERTEX
  5
3A1
330
3C
100
AcDbEntity
  8
METAL
100
AcDbFaceRecord
 10
0.0
 20
0.0
 30
0.0
 70
   128
 71
    81
 72
    82
 73
    66
 74
    65
  0
VERTEX
  5
3A2
330
3C
100
AcDbEntity
  8
METAL
100
AcDbFaceRecord
 10
0.0
 20
0.0
 30
0.0
 70
   128
 71
    86
 72
    64
 73
    92
 74
   102
  0
VERTEX
  5
3A3
330
3C
100
AcDbEntity
  8
METAL
100
AcDbFaceRecord
 10
0.0
 20
0.0
 30
0.0
 70
   128
 71
   101
 72
    91
 73
    63
 74
    85
  0
VERTEX
  5
3A4
330
3C
100
AcDbEntity
  8
METAL
100
AcDbFaceRecord
 10
0.0
 20
0.0
 30
0.0
 70
   128
 71
    70
 72
    42
 73
    64
 74
    86
  0
VERTEX
  5
3A5
330
3C
100
AcDbEntity
  8
METAL
100
AcDbFaceRecord
 10
0.0
 20
0.0
 30
0.0
 70
   128
 71
   150
 72
   138
 73
   148
 74
   158
  0
VERTEX
  5
3A6
330
3C
100
AcDbEntity
  8
METAL
100
AcDbFaceRecord
 10
0.0
 20
0.0
 30
0.0
 70
   128
 71
    66
 72
    35
 73
    36
 74
    65
  0
VERTEX
  5
3A7
330
3C
100
AcDbEntity
  8
METAL
100
AcDbFaceRecord
 10
0.0
 20
0.0
 30
0.0
 70
   128
 71
   127
 72
   115
 73
    91
 74
   101
  0
VERTEX
  5
3A8
330
3C
100
AcDbEntity
  8
METAL
100
AcDbFaceRecord
 10
0.0
 20
0.0
 30
0.0
 70
   128
 71
    65
 72
    36
 73
    42
 74
    70
  0
VERTEX
  5
3A9
330
3C
100
AcDbEntity
  8
METAL
100
AcDbFaceRecord
 10
0.0
 20
0.0
 30
0.0
 70
   128
 71
   102
 72
    92
 73
   116
 74
   128
  0
VERTEX
  5
3AA
330
3C
100
AcDbEntity
  8
METAL
100
AcDbFaceRecord
 10
0.0
 20
0.0
 30
0.0
 70
   128
 71
   128
 72
   116
 73
   138
 74
   150
  0
VERTEX
  5
3AB
330
3C
100
AcDbEntity
  8
METAL
100
AcDbFaceRecord
 10
0.0
 20
0.0
 30
0.0
 70
   128
 71
    85
 72
    63
 73
    41
 74
    69
  0
VERTEX
  5
3AC
330
3C
100
AcDbEntity
  8
METAL
100
AcDbFaceRecord
 10
0.0
 20
0.0
 30
0.0
 70
   128
 71
    69
 72
    41
 73
    35
 74
    66
  0
VERTEX
  5
3AD
330
3C
100
AcDbEntity
  8
METAL
100
AcDbFaceRecord
 10
0.0
 20
0.0
 30
0.0
 70
   128
 71
   158
 72
   148
 73
   137
 74
   149
  0
VERTEX
  5
3AE
330
3C
100
AcDbEntity
  8
METAL
100
AcDbFaceRecord
 10
0.0
 20
0.0
 30
0.0
 70
   128
 71
   149
 72
   137
 73
   115
 74
   127
  0
VERTEX
  5
3AF
330
3C
100
AcDbEntity
  8
METAL
100
AcDbFaceRecord
 10
0.0
 20
0.0
 30
0.0
 70
   128
 71
    64
 72
    62
 73
    88
 74
    92
  0
VERTEX
  5
3B0
330
3C
100
AcDbEntity
  8
METAL
100
AcDbFaceRecord
 10
0.0
 20
0.0
 30
0.0
 70
   128
 71
    63
 72
    91
 73
    87
 74
    61
  0
VERTEX
  5
3B1
330
3C
100
AcDbEntity
  8
METAL
100
AcDbFaceRecord
 10
0.0
 20
0.0
 30
0.0
 70
   128
 71
    42
 72
    38
 73
    62
 74
    64
  0
VERTEX
  5
3B2
330
3C
100
AcDbEntity
  8
METAL
100
AcDbFaceRecord
 10
0.0
 20
0.0
 30
0.0
 70
   128
 71
   148
 72
   138
 73
   136
 74
   145
  0
VERTEX
  5
3B3
330
3C
100
AcDbEntity
  8
METAL
100
AcDbFaceRecord
 10
0.0
 20
0.0
 30
0.0
 70
   128
 71
    35
 72
    25
 73
    26
 74
    36
  0
VERTEX
  5
3B4
330
3C
100
AcDbEntity
  8
METAL
100
AcDbFaceRecord
 10
0.0
 20
0.0
 30
0.0
 70
   128
 71
    91
 72
   115
 73
   111
 74
    87
  0
VERTEX
  5
3B5
330
3C
100
AcDbEntity
  8
METAL
100
AcDbFaceRecord
 10
0.0
 20
0.0
 30
0.0
 70
   128
 71
    36
 72
    26
 73
    38
 74
    42
  0
VERTEX
  5
3B6
330
3C
100
AcDbEntity
  8
METAL
100
AcDbFaceRecord
 10
0.0
 20
0.0
 30
0.0
 70
   128
 71
    92
 72
    88
 73
   112
 74
   116
  0
VERTEX
  5
3B7
330
3C
100
AcDbEntity
  8
METAL
100
AcDbFaceRecord
 10
0.0
 20
0.0
 30
0.0
 70
   128
 71
   116
 72
   112
 73
   136
 74
   138
  0
VERTEX
  5
3B8
330
3C
100
AcDbEntity
  8
METAL
100
AcDbFaceRecord
 10
0.0
 20
0.0
 30
0.0
 70
   128
 71
    41
 72
    63
 73
    61
 74
    37
  0
VERTEX
  5
3B9
330
3C
100
AcDbEntity
  8
METAL
100
AcDbFaceRecord
 10
0.0
 20
0.0
 30
0.0
 70
   128
 71
    35
 72
    41
 73
    37
 74
    25
  0
VERTEX
  5
3BA
330
3C
100
AcDbEntity
  8
METAL
100
AcDbFaceRecord
 10
0.0
 20
0.0
 30
0.0
 70
   128
 71
   137
 72
   148
 73
   145
 74
   135
  0
VERTEX
  5
3BB
330
3C
100
AcDbEntity
  8
METAL
100
AcDbFaceRecord
 10
0.0
 20
0.0
 30
0.0
 70
   128
 71
   115
 72
   137
 73
   135
 74
   111
  0
VERTEX
  5
3BC
330
3C
100
AcDbEntity
  8
METAL
100
AcDbFaceRecord
 10
0.0
 20
0.0
 30
0.0
 70
   128
 71
    58
 72
    54
 73
    74
 74
    80
  0
VERTEX
  5
3BD
330
3C
100
AcDbEntity
  8
METAL
100
AcDbFaceRecord
 10
0.0
 20
0.0
 30
0.0
 70
   128
 71
    79
 72
    73
 73
    53
 74
    57
  0
VERTEX
  5
3BE
330
3C
100
AcDbEntity
  8
METAL
100
AcDbFaceRecord
 10
0.0
 20
0.0
 30
0.0
 70
   128
 71
    34
 72
    30
 73
    54
 74
    58
  0
VERTEX
  5
3BF
330
3C
100
AcDbEntity
  8
METAL
100
AcDbFaceRecord
 10
0.0
 20
0.0
 30
0.0
 70
   128
 71
   132
 72
   134
 73
   152
 74
   151
  0
VERTEX
  5
3C0
330
3C
100
AcDbEntity
  8
METAL
100
AcDbFaceRecord
 10
0.0
 20
0.0
 30
0.0
 70
   128
 71
    13
 72
     9
 73
    10
 74
    14
  0
VERTEX
  5
3C1
330
3C
100
AcDbEntity
  8
METAL
100
AcDbFaceRecord
 10
0.0
 20
0.0
 30
0.0
 70
   128
 71
   107
 72
   105
 73
    73
 74
    79
  0
VERTEX
  5
3C2
330
3C
100
AcDbEntity
  8
METAL
100
AcDbFaceRecord
 10
0.0
 20
0.0
 30
0.0
 70
   128
 71
    14
 72
    10
 73
    30
 74
    34
  0
VERTEX
  5
3C3
330
3C
100
AcDbEntity
  8
METAL
100
AcDbFaceRecord
 10
0.0
 20
0.0
 30
0.0
 70
   128
 71
    80
 72
    74
 73
   106
 74
   108
  0
VERTEX
  5
3C4
330
3C
100
AcDbEntity
  8
METAL
100
AcDbFaceRecord
 10
0.0
 20
0.0
 30
0.0
 70
   128
 71
   108
 72
   106
 73
   134
 74
   132
  0
VERTEX
  5
3C5
330
3C
100
AcDbEntity
  8
METAL
100
AcDbFaceRecord
 10
0.0
 20
0.0
 30
0.0
 70
   128
 71
    57
 72
    53
 73
    29
 74
    33
  0
VERTEX
  5
3C6
330
3C
100
AcDbEntity
  8
METAL
100
AcDbFaceRecord
 10
0.0
 20
0.0
 30
0.0
 70
   128
 71
    33
 72
    29
 73
     9
 74
    13
  0
VERTEX
  5
3C7
330
3C
100
AcDbEntity
  8
METAL
100
AcDbFaceRecord
 10
0.0
 20
0.0
 30
0.0
 70
   128
 71
   151
 72
   152
 73
   133
 74
   131
  0
VERTEX
  5
3C8
330
3C
100
AcDbEntity
  8
METAL
100
AcDbFaceRecord
 10
0.0
 20
0.0
 30
0.0
 70
   128
 71
   131
 72
   133
 73
   105
 74
   107
  0
VERTEX
  5
3C9
330
3C
100
AcDbEntity
  8
METAL
100
AcDbFaceRecord
 10
0.0
 20
0.0
 30
0.0
 70
   128
 71
    54
 72
    46
 73
    72
 74
    74
  0
VERTEX
  5
3CA
330
3C
100
AcDbEntity
  8
METAL
100
AcDbFaceRecord
 10
0.0
 20
0.0
 30
0.0
 70
   128
 71
    73
 72
    71
 73
    45
 74
    53
  0
VERTEX
  5
3CB
330
3C
100
AcDbEntity
  8
METAL
100
AcDbFaceRecord
 10
0.0
 20
0.0
 30
0.0
 70
   128
 71
    30
 72
    22
 73
    46
 74
    54
  0
VERTEX
  5
3CC
330
3C
100
AcDbEntity
  8
METAL
100
AcDbFaceRecord
 10
0.0
 20
0.0
 30
0.0
 70
   128
 71
   134
 72
   144
 73
   157
 74
   152
  0
VERTEX
  5
3CD
330
3C
100
AcDbEntity
  8
METAL
100
AcDbFaceRecord
 10
0.0
 20
0.0
 30
0.0
 70
   128
 71
     9
 72
     5
 73
     6
 74
    10
  0
VERTEX
  5
3CE
330
3C
100
AcDbEntity
  8
METAL
100
AcDbFaceRecord
 10
0.0
 20
0.0
 30
0.0
 70
   128
 71
   105
 72
   109
 73
    71
 74
    73
  0
VERTEX
  5
3CF
330
3C
100
AcDbEntity
  8
METAL
100
AcDbFaceRecord
 10
0.0
 20
0.0
 30
0.0
 70
   128
 71
    10
 72
     6
 73
    22
 74
    30
  0
VERTEX
  5
3D0
330
3C
100
AcDbEntity
  8
METAL
100
AcDbFaceRecord
 10
0.0
 20
0.0
 30
0.0
 70
   128
 71
    74
 72
    72
 73
   110
 74
   106
  0
VERTEX
  5
3D1
330
3C
100
AcDbEntity
  8
METAL
100
AcDbFaceRecord
 10
0.0
 20
0.0
 30
0.0
 70
   128
 71
   106
 72
   110
 73
   144
 74
   134
  0
VERTEX
  5
3D2
330
3C
100
AcDbEntity
  8
METAL
100
AcDbFaceRecord
 10
0.0
 20
0.0
 30
0.0
 70
   128
 71
    53
 72
    45
 73
    21
 74
    29
  0
VERTEX
  5
3D3
330
3C
100
AcDbEntity
  8
METAL
100
AcDbFaceRecord
 10
0.0
 20
0.0
 30
0.0
 70
   128
 71
    29
 72
    21
 73
     5
 74
     9
  0
VERTEX
  5
3D4
330
3C
100
AcDbEntity
  8
METAL
100
AcDbFaceRecord
 10
0.0
 20
0.0
 30
0.0
 70
   128
 71
   152
 72
   157
 73
   143
 74
   133
  0
VERTEX
  5
3D5
330
3C
100
AcDbEntity
  8
METAL
100
AcDbFaceRecord
 10
0.0
 20
0.0
 30
0.0
 70
   128
 71
   133
 72
   143
 73
   109
 74
   105
  0
VERTEX
  5
3D6
330
3C
100
AcDbEntity
  8
METAL
100
AcDbFaceRecord
 10
0.0
 20
0.0
 30
0.0
 70
   128
 71
    46
 72
    44
 73
    76
 74
    72
  0
VERTEX
  5
3D7
330
3C
100
AcDbEntity
  8
METAL
100
AcDbFaceRecord
 10
0.0
 20
0.0
 30
0.0
 70
   128
 71
    71
 72
    75
 73
    43
 74
    45
  0
VERTEX
  5
3D8
330
3C
100
AcDbEntity
  8
METAL
100
AcDbFaceRecord
 10
0.0
 20
0.0
 30
0.0
 70
   128
 71
    22
 72
    16
 73
    44
 74
    46
  0
VERTEX
  5
3D9
330
3C
100
AcDbEntity
  8
METAL
100
AcDbFaceRecord
 10
0.0
 20
0.0
 30
0.0
 70
   128
 71
   144
 72
   147
 73
   163
 74
   157
  0
VERTEX
  5
3DA
330
3C
100
AcDbEntity
  8
METAL
100
AcDbFaceRecord
 10
0.0
 20
0.0
 30
0.0
 70
   128
 71
     5
 72
     1
 73
     2
 74
     6
  0
VERTEX
  5
3DB
330
3C
100
AcDbEntity
  8
METAL
100
AcDbFaceRecord
 10
0.0
 20
0.0
 30
0.0
 70
   128
 71
   109
 72
   113
 73
    75
 74
    71
  0
VERTEX
  5
3DC
330
3C
100
AcDbEntity
  8
METAL
100
AcDbFaceRecord
 10
0.0
 20
0.0
 30
0.0
 70
   128
 71
     6
 72
     2
 73
    16
 74
    22
  0
VERTEX
  5
3DD
330
3C
100
AcDbEntity
  8
METAL
100
AcDbFaceRecord
 10
0.0
 20
0.0
 30
0.0
 70
   128
 71
    72
 72
    76
 73
   114
 74
   110
  0
VERTEX
  5
3DE
330
3C
100
AcDbEntity
  8
METAL
100
AcDbFaceRecord
 10
0.0
 20
0.0
 30
0.0
 70
   128
 71
   110
 72
   114
 73
   147
 74
   144
  0
VERTEX
  5
3DF
330
3C
100
AcDbEntity
  8
METAL
100
AcDbFaceRecord
 10
0.0
 20
0.0
 30
0.0
 70
   128
 71
    45
 72
    43
 73
    15
 74
    21
  0
VERTEX
  5
3E0
330
3C
100
AcDbEntity
  8
METAL
100
AcDbFaceRecord
 10
0.0
 20
0.0
 30
0.0
 70
   128
 71
    21
 72
    15
 73
     1
 74
     5
  0
VERTEX
  5
3E1
330
3C
100
AcDbEntity
  8
METAL
100
AcDbFaceRecord
 10
0.0
 20
0.0
 30
0.0
 70
   128
 71
   157
 72
   163
 73
   146
 74
   143
  0
VERTEX
  5
3E2
330
3C
100
AcDbEntity
  8
METAL
100
AcDbFaceRecord
 10
0.0
 20
0.0
 30
0.0
 70
   128
 71
   143
 72
   146
 73
   113
 74
   109
  0
VERTEX
  5
3E3
330
3C
100
AcDbEntity
  8
METAL
100
AcDbFaceRecord
 10
0.0
 20
0.0
 30
0.0
 70
   128
 71
    76
 72
    44
 73
    48
 74
    78
  0
VERTEX
  5
3E4
330
3C
100
AcDbEntity
  8
METAL
100
AcDbFaceRecord
 10
0.0
 20
0.0
 30
0.0
 70
   128
 71
    75
 72
    77
 73
    47
 74
    43
  0
VERTEX
  5
3E5
330
3C
100
AcDbEntity
  8
METAL
100
AcDbFaceRecord
 10
0.0
 20
0.0
 30
0.0
 70
   128
 71
    44
 72
    16
 73
    18
 74
    48
  0
VERTEX
  5
3E6
330
3C
100
AcDbEntity
  8
METAL
100
AcDbFaceRecord
 10
0.0
 20
0.0
 30
0.0
 70
   128
 71
   163
 72
   147
 73
   154
 74
   171
  0
VERTEX
  5
3E7
330
3C
100
AcDbEntity
  8
METAL
100
AcDbFaceRecord
 10
0.0
 20
0.0
 30
0.0
 70
   128
 71
     1
 72
     3
 73
     4
 74
     2
  0
VERTEX
  5
3E8
330
3C
100
AcDbEntity
  8
METAL
100
AcDbFaceRecord
 10
0.0
 20
0.0
 30
0.0
 70
   128
 71
   113
 72
   117
 73
    77
 74
    75
  0
VERTEX
  5
3E9
330
3C
100
AcDbEntity
  8
METAL
100
AcDbFaceRecord
 10
0.0
 20
0.0
 30
0.0
 70
   128
 71
     2
 72
     4
 73
    18
 74
    16
  0
VERTEX
  5
3EA
330
3C
100
AcDbEntity
  8
METAL
100
AcDbFaceRecord
 10
0.0
 20
0.0
 30
0.0
 70
   128
 71
   114
 72
    76
 73
    78
 74
   118
  0
VERTEX
  5
3EB
330
3C
100
AcDbEntity
  8
METAL
100
AcDbFaceRecord
 10
0.0
 20
0.0
 30
0.0
 70
   128
 71
   147
 72
   114
 73
   118
 74
   154
  0
VERTEX
  5
3EC
330
3C
100
AcDbEntity
  8
METAL
100
AcDbFaceRecord
 10
0.0
 20
0.0
 30
0.0
 70
   128
 71
    15
 72
    43
 73
    47
 74
    17
  0
VERTEX
  5
3ED
330
3C
100
AcDbEntity
  8
METAL
100
AcDbFaceRecord
 10
0.0
 20
0.0
 30
0.0
 70
   128
 71
     1
 72
    15
 73
    17
 74
     3
  0
VERTEX
  5
3EE
330
3C
100
AcDbEntity
  8
METAL
100
AcDbFaceRecord
 10
0.0
 20
0.0
 30
0.0
 70
   128
 71
   163
 72
   170
 73
   153
 74
   146
  0
VERTEX
  5
3EF
330
3C
100
AcDbEntity
  8
METAL
100
AcDbFaceRecord
 10
0.0
 20
0.0
 30
0.0
 70
   128
 71
   146
 72
   153
 73
   117
 74
   113
  0
VERTEX
  5
3F0
330
3C
100
AcDbEntity
  8
METAL
100
AcDbFaceRecord
 10
0.0
 20
0.0
 30
0.0
 70
   128
 71
    78
 72
    48
 73
    52
 74
    84
  0
VERTEX
  5
3F1
330
3C
100
AcDbEntity
  8
METAL
100
AcDbFaceRecord
 10
0.0
 20
0.0
 30
0.0
 70
   128
 71
    51
 72
    47
 73
    77
 74
    83
  0
VERTEX
  5
3F2
330
3C
100
AcDbEntity
  8
METAL
100
AcDbFaceRecord
 10
0.0
 20
0.0
 30
0.0
 70
   128
 71
    52
 72
    48
 73
    18
 74
    24
  0
VERTEX
  5
3F3
330
3C
100
AcDbEntity
  8
METAL
100
AcDbFaceRecord
 10
0.0
 20
0.0
 30
0.0
 70
   128
 71
   171
 72
   154
 73
   156
 74
   173
  0
VERTEX
  5
3F4
330
3C
100
AcDbEntity
  8
METAL
100
AcDbFaceRecord
 10
0.0
 20
0.0
 30
0.0
 70
   128
 71
     8
 72
     4
 73
     3
 74
     7
  0
VERTEX
  5
3F5
330
3C
100
AcDbEntity
  8
METAL
100
AcDbFaceRecord
 10
0.0
 20
0.0
 30
0.0
 70
   128
 71
    83
 72
    77
 73
   117
 74
   123
  0
VERTEX
  5
3F6
330
3C
100
AcDbEntity
  8
METAL
100
AcDbFaceRecord
 10
0.0
 20
0.0
 30
0.0
 70
   128
 71
    24
 72
    18
 73
     4
 74
     8
  0
VERTEX
  5
3F7
330
3C
100
AcDbEntity
  8
METAL
100
AcDbFaceRecord
 10
0.0
 20
0.0
 30
0.0
 70
   128
 71
   118
 72
    78
 73
    84
 74
   124
  0
VERTEX
  5
3F8
330
3C
100
AcDbEntity
  8
METAL
100
AcDbFaceRecord
 10
0.0
 20
0.0
 30
0.0
 70
   128
 71
   154
 72
   118
 73
   124
 74
   156
  0
VERTEX
  5
3F9
330
3C
100
AcDbEntity
  8
METAL
100
AcDbFaceRecord
 10
0.0
 20
0.0
 30
0.0
 70
   128
 71
    17
 72
    47
 73
    51
 74
    23
  0
VERTEX
  5
3FA
330
3C
100
AcDbEntity
  8
METAL
100
AcDbFaceRecord
 10
0.0
 20
0.0
 30
0.0
 70
   128
 71
     3
 72
    17
 73
    23
 74
     7
  0
VERTEX
  5
3FB
330
3C
100
AcDbEntity
  8
METAL
100
AcDbFaceRecord
 10
0.0
 20
0.0
 30
0.0
 70
   128
 71
   155
 72
   153
 73
   170
 74
   172
  0
VERTEX
  5
3FC
330
3C
100
AcDbEntity
  8
METAL
100
AcDbFaceRecord
 10
0.0
 20
0.0
 30
0.0
 70
   128
 71
   123
 72
   117
 73
   153
 74
   155
  0
VERTEX
  5
3FD
330
3C
100
AcDbEntity
  8
METAL
100
AcDbFaceRecord
 10
0.0
 20
0.0
 30
0.0
 70
   128
 71
    84
 72
    52
 73
    56
 74
    90
  0
VERTEX
  5
3FE
330
3C
100
AcDbEntity
  8
METAL
100
AcDbFaceRecord
 10
0.0
 20
0.0
 30
0.0
 70
   128
 71
    83
 72
    89
 73
    55
 74
    51
  0
VERTEX
  5
3FF
330
3C
100
AcDbEntity
  8
METAL
100
AcDbFaceRecord
 10
0.0
 20
0.0
 30
0.0
 70
   128
 71
    52
 72
    24
 73
    28
 74
    56
  0
VERTEX
  5
400
330
3C
100
AcDbEntity
  8
METAL
100
AcDbFaceRecord
 10
0.0
 20
0.0
 30
0.0
 70
   128
 71
   173
 72
   156
 73
   169
 74
   177
  0
VERTEX
  5
401
330
3C
100
AcDbEntity
  8
METAL
100
AcDbFaceRecord
 10
0.0
 20
0.0
 30
0.0
 70
   128
 71
     8
 72
     7
 73
    11
 74
    12
  0
VERTEX
  5
402
330
3C
100
AcDbEntity
  8
METAL
100
AcDbFaceRecord
 10
0.0
 20
0.0
 30
0.0
 70
   128
 71
   123
 72
   125
 73
    89
 74
    83
  0
VERTEX
  5
403
330
3C
100
AcDbEntity
  8
METAL
100
AcDbFaceRecord
 10
0.0
 20
0.0
 30
0.0
 70
   128
 71
    24
 72
     8
 73
    12
 74
    28
  0
VERTEX
  5
404
330
3C
100
AcDbEntity
  8
METAL
100
AcDbFaceRecord
 10
0.0
 20
0.0
 30
0.0
 70
   128
 71
   124
 72
    84
 73
    90
 74
   126
  0
VERTEX
  5
405
330
3C
100
AcDbEntity
  8
METAL
100
AcDbFaceRecord
 10
0.0
 20
0.0
 30
0.0
 70
   128
 71
   156
 72
   124
 73
   126
 74
   169
  0
VERTEX
  5
406
330
3C
100
AcDbEntity
  8
METAL
100
AcDbFaceRecord
 10
0.0
 20
0.0
 30
0.0
 70
   128
 71
    51
 72
    55
 73
    27
 74
    23
  0
VERTEX
  5
407
330
3C
100
AcDbEntity
  8
METAL
100
AcDbFaceRecord
 10
0.0
 20
0.0
 30
0.0
 70
   128
 71
    23
 72
    27
 73
    11
 74
     7
  0
VERTEX
  5
408
330
3C
100
AcDbEntity
  8
METAL
100
AcDbFaceRecord
 10
0.0
 20
0.0
 30
0.0
 70
   128
 71
   172
 72
   176
 73
   168
 74
   155
  0
VERTEX
  5
409
330
3C
100
AcDbEntity
  8
METAL
100
AcDbFaceRecord
 10
0.0
 20
0.0
 30
0.0
 70
   128
 71
   155
 72
   168
 73
   125
 74
   123
  0
VERTEX
  5
40A
330
3C
100
AcDbEntity
  8
METAL
100
AcDbFaceRecord
 10
0.0
 20
0.0
 30
0.0
 70
   128
 71
    90
 72
    56
 73
    60
 74
    96
  0
VERTEX
  5
40B
330
3C
100
AcDbEntity
  8
METAL
100
AcDbFaceRecord
 10
0.0
 20
0.0
 30
0.0
 70
   128
 71
    59
 72
    55
 73
    89
 74
    95
  0
VERTEX
  5
40C
330
3C
100
AcDbEntity
  8
METAL
100
AcDbFaceRecord
 10
0.0
 20
0.0
 30
0.0
 70
   128
 71
    56
 72
    28
 73
    32
 74
    60
  0
VERTEX
  5
40D
330
3C
100
AcDbEntity
  8
METAL
100
AcDbFaceRecord
 10
0.0
 20
0.0
 30
0.0
 70
   128
 71
   177
 72
   169
 73
   175
 74
   178
  0
VERTEX
  5
40E
330
3C
100
AcDbEntity
  8
METAL
100
AcDbFaceRecord
 10
0.0
 20
0.0
 30
0.0
 70
   128
 71
    12
 72
    11
 73
    19
 74
    20
  0
VERTEX
  5
40F
330
3C
100
AcDbEntity
  8
METAL
100
AcDbFaceRecord
 10
0.0
 20
0.0
 30
0.0
 70
   128
 71
    95
 72
    89
 73
   125
 74
   129
  0
VERTEX
  5
410
330
3C
100
AcDbEntity
  8
METAL
100
AcDbFaceRecord
 10
0.0
 20
0.0
 30
0.0
 70
   128
 71
    28
 72
    12
 73
    20
 74
    32
  0
VERTEX
  5
411
330
3C
100
AcDbEntity
  8
METAL
100
AcDbFaceRecord
 10
0.0
 20
0.0
 30
0.0
 70
   128
 71
   126
 72
    90
 73
    96
 74
   130
  0
VERTEX
  5
412
330
3C
100
AcDbEntity
  8
METAL
100
AcDbFaceRecord
 10
0.0
 20
0.0
 30
0.0
 70
   128
 71
   169
 72
   126
 73
   130
 74
   175
  0
VERTEX
  5
413
330
3C
100
AcDbEntity
  8
METAL
100
AcDbFaceRecord
 10
0.0
 20
0.0
 30
0.0
 70
   128
 71
    31
 72
    27
 73
    55
 74
    59
  0
VERTEX
  5
414
330
3C
100
AcDbEntity
  8
METAL
100
AcDbFaceRecord
 10
0.0
 20
0.0
 30
0.0
 70
   128
 71
    19
 72
    11
 73
    27
 74
    31
  0
VERTEX
  5
415
330
3C
100
AcDbEntity
  8
METAL
100
AcDbFaceRecord
 10
0.0
 20
0.0
 30
0.0
 70
   128
 71
   174
 72
   168
 73
   176
 74
   178
  0
VERTEX
  5
416
330
3C
100
AcDbEntity
  8
METAL
100
AcDbFaceRecord
 10
0.0
 20
0.0
 30
0.0
 70
   128
 71
   129
 72
   125
 73
   168
 74
   174
  0
VERTEX
  5
417
330
3C
100
AcDbEntity
  8
METAL
100
AcDbFaceRecord
 10
0.0
 20
0.0
 30
0.0
 70
   128
 71
    80
 72
    88
 73
    62
 74
    58
  0
VERTEX
  5
418
330
3C
100
AcDbEntity
  8
METAL
100
AcDbFaceRecord
 10
0.0
 20
0.0
 30
0.0
 70
   128
 71
    61
 72
    87
 73
    79
 74
    57
  0
VERTEX
  5
419
330
3C
100
AcDbEntity
  8
METAL
100
AcDbFaceRecord
 10
0.0
 20
0.0
 30
0.0
 70
   128
 71
    58
 72
    62
 73
    38
 74
    34
  0
VERTEX
  5
41A
330
3C
100
AcDbEntity
  8
METAL
100
AcDbFaceRecord
 10
0.0
 20
0.0
 30
0.0
 70
   128
 71
   151
 72
   145
 73
   136
 74
   132
  0
VERTEX
  5
41B
330
3C
100
AcDbEntity
  8
METAL
100
AcDbFaceRecord
 10
0.0
 20
0.0
 30
0.0
 70
   128
 71
    14
 72
    26
 73
    25
 74
    13
  0
VERTEX
  5
41C
330
3C
100
AcDbEntity
  8
METAL
100
AcDbFaceRecord
 10
0.0
 20
0.0
 30
0.0
 70
   128
 71
    87
 72
   111
 73
   107
 74
    79
  0
VERTEX
  5
41D
330
3C
100
AcDbEntity
  8
METAL
100
AcDbFaceRecord
 10
0.0
 20
0.0
 30
0.0
 70
   128
 71
    34
 72
    38
 73
    26
 74
    14
  0
VERTEX
  5
41E
330
3C
100
AcDbEntity
  8
METAL
100
AcDbFaceRecord
 10
0.0
 20
0.0
 30
0.0
 70
   128
 71
   108
 72
   112
 73
    88
 74
    80
  0
VERTEX
  5
41F
330
3C
100
AcDbEntity
  8
METAL
100
AcDbFaceRecord
 10
0.0
 20
0.0
 30
0.0
 70
   128
 71
   132
 72
   136
 73
   112
 74
   108
  0
VERTEX
  5
420
330
3C
100
AcDbEntity
  8
METAL
100
AcDbFaceRecord
 10
0.0
 20
0.0
 30
0.0
 70
   128
 71
    37
 72
    61
 73
    57
 74
    33
  0
VERTEX
  5
421
330
3C
100
AcDbEntity
  8
METAL
100
AcDbFaceRecord
 10
0.0
 20
0.0
 30
0.0
 70
   128
 71
    25
 72
    37
 73
    33
 74
    13
  0
VERTEX
  5
422
330
3C
100
AcDbEntity
  8
METAL
100
AcDbFaceRecord
 10
0.0
 20
0.0
 30
0.0
 70
   128
 71
   135
 72
   145
 73
   151
 74
   131
  0
VERTEX
  5
423
330
3C
100
AcDbEntity
  8
METAL
100
AcDbFaceRecord
 10
0.0
 20
0.0
 30
0.0
 70
   128
 71
   111
 72
   135
 73
   131
 74
   107
  0
VERTEX
  5
424
330
3C
100
AcDbEntity
  8
METAL
100
AcDbFaceRecord
 10
0.0
 20
0.0
 30
0.0
 70
   128
 71
    60
 72
    68
 73
   104
 74
    96
  0
VERTEX
  5
425
330
3C
100
AcDbEntity
  8
METAL
100
AcDbFaceRecord
 10
0.0
 20
0.0
 30
0.0
 70
   128
 71
    95
 72
   103
 73
    67
 74
    59
  0
VERTEX
  5
426
330
3C
100
AcDbEntity
  8
METAL
100
AcDbFaceRecord
 10
0.0
 20
0.0
 30
0.0
 70
   128
 71
    32
 72
    50
 73
    68
 74
    60
  0
VERTEX
  5
427
330
3C
100
AcDbEntity
  8
METAL
100
AcDbFaceRecord
 10
0.0
 20
0.0
 30
0.0
 70
   128
 71
   175
 72
   180
 73
   181
 74
   178
  0
VERTEX
  5
428
330
3C
100
AcDbEntity
  8
METAL
100
AcDbFaceRecord
 10
0.0
 20
0.0
 30
0.0
 70
   128
 71
    19
 72
    39
 73
    40
 74
    20
  0
VERTEX
  5
429
330
3C
100
AcDbEntity
  8
METAL
100
AcDbFaceRecord
 10
0.0
 20
0.0
 30
0.0
 70
   128
 71
   129
 72
   164
 73
   103
 74
    95
  0
VERTEX
  5
42A
330
3C
100
AcDbEntity
  8
METAL
100
AcDbFaceRecord
 10
0.0
 20
0.0
 30
0.0
 70
   128
 71
    20
 72
    40
 73
    50
 74
    32
  0
VERTEX
  5
42B
330
3C
100
AcDbEntity
  8
METAL
100
AcDbFaceRecord
 10
0.0
 20
0.0
 30
0.0
 70
   128
 71
    96
 72
   104
 73
   165
 74
   130
  0
VERTEX
  5
42C
330
3C
100
AcDbEntity
  8
METAL
100
AcDbFaceRecord
 10
0.0
 20
0.0
 30
0.0
 70
   128
 71
   130
 72
   165
 73
   180
 74
   175
  0
VERTEX
  5
42D
330
3C
100
AcDbEntity
  8
METAL
100
AcDbFaceRecord
 10
0.0
 20
0.0
 30
0.0
 70
   128
 71
    59
 72
    67
 73
    49
 74
    31
  0
VERTEX
  5
42E
330
3C
100
AcDbEntity
  8
METAL
100
AcDbFaceRecord
 10
0.0
 20
0.0
 30
0.0
 70
   128
 71
    31
 72
    49
 73
    39
 74
    19
  0
VERTEX
  5
42F
330
3C
100
AcDbEntity
  8
METAL
100
AcDbFaceRecord
 10
0.0
 20
0.0
 30
0.0
 70
   128
 71
   178
 72
   181
 73
   179
 74
   174
  0
VERTEX
  5
430
330
3C
100
AcDbEntity
  8
METAL
100
AcDbFaceRecord
 10
0.0
 20
0.0
 30
0.0
 70
   128
 71
   174
 72
   179
 73
   164
 74
   129
  0
VERTEX
  5
431
330
3C
100
AcDbEntity
  8
METAL
100
AcDbFaceRecord
 10
0.0
 20
0.0
 30
0.0
 70
   128
 71
    68
 72
   196
 73
   212
 74
   104
  0
VERTEX
  5
432
330
3C
100
AcDbEntity
  8
METAL
100
AcDbFaceRecord
 10
0.0
 20
0.0
 30
0.0
 70
   128
 71
   103
 72
   210
 73
   194
 74
    67
  0
VERTEX
  5
433
330
3C
100
AcDbEntity
  8
METAL
100
AcDbFaceRecord
 10
0.0
 20
0.0
 30
0.0
 70
   128
 71
    40
 72
   182
 73
   186
 74
    50
  0
VERTEX
  5
434
330
3C
100
AcDbEntity
  8
METAL
100
AcDbFaceRecord
 10
0.0
 20
0.0
 30
0.0
 70
   128
 71
   165
 72
   226
 73
   230
 74
   180
  0
VERTEX
  5
435
330
3C
100
AcDbEntity
  8
METAL
100
AcDbFaceRecord
 10
0.0
 20
0.0
 30
0.0
 70
   128
 71
   245
 72
   241
 73
   289
 74
   291
  0
VERTEX
  5
436
330
3C
100
AcDbEntity
  8
METAL
100
AcDbFaceRecord
 10
0.0
 20
0.0
 30
0.0
 70
   128
 71
   283
 72
   297
 73
   298
 74
   285
  0
VERTEX
  5
437
330
3C
100
AcDbEntity
  8
METAL
100
AcDbFaceRecord
 10
0.0
 20
0.0
 30
0.0
 70
   128
 71
   275
 72
   294
 73
   292
 74
   269
  0
VERTEX
  5
438
330
3C
100
AcDbEntity
  8
METAL
100
AcDbFaceRecord
 10
0.0
 20
0.0
 30
0.0
 70
   128
 71
   235
 72
   286
 73
   287
 74
   237
  0
VERTEX
  5
439
330
3C
100
AcDbEntity
  8
METAL
100
AcDbFaceRecord
 10
0.0
 20
0.0
 30
0.0
 70
   128
 71
   277
 72
   271
 73
   293
 74
   295
  0
VERTEX
  5
43A
330
3C
100
AcDbEntity
  8
METAL
100
AcDbFaceRecord
 10
0.0
 20
0.0
 30
0.0
 70
   128
 71
   243
 72
   290
 73
   288
 74
   239
  0
VERTEX
  5
43B
330
3C
100
AcDbEntity
  8
METAL
100
AcDbFaceRecord
 10
0.0
 20
0.0
 30
0.0
 70
   128
 71
   235
 72
   239
 73
   288
 74
   286
  0
VERTEX
  5
43C
330
3C
100
AcDbEntity
  8
METAL
100
AcDbFaceRecord
 10
0.0
 20
0.0
 30
0.0
 70
   128
 71
   285
 72
   298
 73
   296
 74
   281
  0
VERTEX
  5
43D
330
3C
100
AcDbEntity
  8
METAL
100
AcDbFaceRecord
 10
0.0
 20
0.0
 30
0.0
 70
   128
 71
   275
 72
   281
 73
   296
 74
   294
  0
VERTEX
  5
43E
330
3C
100
AcDbEntity
  8
METAL
100
AcDbFaceRecord
 10
0.0
 20
0.0
 30
0.0
 70
   128
 71
   208
 72
   200
 73
   255
 74
   267
  0
VERTEX
  5
43F
330
3C
100
AcDbEntity
  8
METAL
100
AcDbFaceRecord
 10
0.0
 20
0.0
 30
0.0
 70
   128
 71
   247
 72
   198
 73
   206
 74
   265
  0
VERTEX
  5
440
330
3C
100
AcDbEntity
  8
METAL
100
AcDbFaceRecord
 10
0.0
 20
0.0
 30
0.0
 70
   128
 71
   192
 72
   204
 73
   279
 74
   263
  0
VERTEX
  5
441
330
3C
100
AcDbEntity
  8
METAL
100
AcDbFaceRecord
 10
0.0
 20
0.0
 30
0.0
 70
   128
 71
   220
 72
   216
 73
   261
 74
   257
  0
VERTEX
  5
442
330
3C
100
AcDbEntity
  8
METAL
100
AcDbFaceRecord
 10
0.0
 20
0.0
 30
0.0
 70
   128
 71
   196
 72
    68
 73
    50
 74
   186
  0
VERTEX
  5
443
330
3C
100
AcDbEntity
  8
METAL
100
AcDbFaceRecord
 10
0.0
 20
0.0
 30
0.0
 70
   128
 71
   232
 72
   181
 73
   180
 74
   230
  0
VERTEX
  5
444
330
3C
100
AcDbEntity
  8
METAL
100
AcDbFaceRecord
 10
0.0
 20
0.0
 30
0.0
 70
   128
 71
   210
 72
   103
 73
   164
 74
   224
  0
VERTEX
  5
445
330
3C
100
AcDbEntity
  8
METAL
100
AcDbFaceRecord
 10
0.0
 20
0.0
 30
0.0
 70
   128
 71
   182
 72
    40
 73
    39
 74
   184
  0
VERTEX
  5
446
330
3C
100
AcDbEntity
  8
METAL
100
AcDbFaceRecord
 10
0.0
 20
0.0
 30
0.0
 70
   128
 71
   226
 72
   165
 73
   104
 74
   212
  0
VERTEX
  5
447
330
3C
100
AcDbEntity
  8
METAL
100
AcDbFaceRecord
 10
0.0
 20
0.0
 30
0.0
 70
   128
 71
   188
 72
    49
 73
    67
 74
   194
  0
VERTEX
  5
448
330
3C
100
AcDbEntity
  8
METAL
100
AcDbFaceRecord
 10
0.0
 20
0.0
 30
0.0
 70
   128
 71
   184
 72
    39
 73
    49
 74
   188
  0
VERTEX
  5
449
330
3C
100
AcDbEntity
  8
METAL
100
AcDbFaceRecord
 10
0.0
 20
0.0
 30
0.0
 70
   128
 71
   228
 72
   179
 73
   181
 74
   232
  0
VERTEX
  5
44A
330
3C
100
AcDbEntity
  8
METAL
100
AcDbFaceRecord
 10
0.0
 20
0.0
 30
0.0
 70
   128
 71
   224
 72
   164
 73
   179
 74
   228
  0
VERTEX
  5
44B
330
3C
100
AcDbEntity
  8
METAL
100
AcDbFaceRecord
 10
0.0
 20
0.0
 30
0.0
 70
   128
 71
   263
 72
   255
 73
   200
 74
   192
  0
VERTEX
  5
44C
330
3C
100
AcDbEntity
  8
METAL
100
AcDbFaceRecord
 10
0.0
 20
0.0
 30
0.0
 70
   128
 71
   257
 72
   259
 73
   222
 74
   220
  0
VERTEX
  5
44D
330
3C
100
AcDbEntity
  8
METAL
100
AcDbFaceRecord
 10
0.0
 20
0.0
 30
0.0
 70
   128
 71
   214
 72
   251
 73
   265
 74
   206
  0
VERTEX
  5
44E
330
3C
100
AcDbEntity
  8
METAL
100
AcDbFaceRecord
 10
0.0
 20
0.0
 30
0.0
 70
   128
 71
   202
 72
   273
 73
   279
 74
   204
  0
VERTEX
  5
44F
330
3C
100
AcDbEntity
  8
METAL
100
AcDbFaceRecord
 10
0.0
 20
0.0
 30
0.0
 70
   128
 71
   267
 72
   261
 73
   216
 74
   208
  0
VERTEX
  5
450
330
3C
100
AcDbEntity
  8
METAL
100
AcDbFaceRecord
 10
0.0
 20
0.0
 30
0.0
 70
   128
 71
   198
 72
   247
 73
   253
 74
   190
  0
VERTEX
  5
451
330
3C
100
AcDbEntity
  8
METAL
100
AcDbFaceRecord
 10
0.0
 20
0.0
 30
0.0
 70
   128
 71
   190
 72
   253
 73
   273
 74
   202
  0
VERTEX
  5
452
330
3C
100
AcDbEntity
  8
METAL
100
AcDbFaceRecord
 10
0.0
 20
0.0
 30
0.0
 70
   128
 71
   222
 72
   259
 73
   249
 74
   218
  0
VERTEX
  5
453
330
3C
100
AcDbEntity
  8
METAL
100
AcDbFaceRecord
 10
0.0
 20
0.0
 30
0.0
 70
   128
 71
   218
 72
   249
 73
   251
 74
   214
  0
VERTEX
  5
454
330
3C
100
AcDbEntity
  8
METAL
100
AcDbFaceRecord
 10
0.0
 20
0.0
 30
0.0
 70
   128
 71
   293
 72
   271
 73
   245
 74
   291
  0
VERTEX
  5
455
330
3C
100
AcDbEntity
  8
METAL
100
AcDbFaceRecord
 10
0.0
 20
0.0
 30
0.0
 70
   128
 71
   290
 72
   243
 73
   269
 74
   292
  0
VERTEX
  5
456
330
3C
100
AcDbEntity
  8
METAL
100
AcDbFaceRecord
 10
0.0
 20
0.0
 30
0.0
 70
   128
 71
   241
 72
   237
 73
   287
 74
   289
  0
VERTEX
  5
457
330
3C
100
AcDbEntity
  8
METAL
100
AcDbFaceRecord
 10
0.0
 20
0.0
 30
0.0
 70
   128
 71
   283
 72
   277
 73
   295
 74
   297
  0
VERTEX
  5
458
330
3C
100
AcDbEntity
  8
METAL
100
AcDbFaceRecord
 10
0.0
 20
0.0
 30
0.0
 70
   128
 71
   197
 72
   201
 73
   209
 74
   213
  0
VERTEX
  5
459
330
3C
100
AcDbEntity
  8
METAL
100
AcDbFaceRecord
 10
0.0
 20
0.0
 30
0.0
 70
   128
 71
   213
 72
   209
 73
   217
 74
   227
  0
VERTEX
  5
45A
330
3C
100
AcDbEntity
  8
METAL
100
AcDbFaceRecord
 10
0.0
 20
0.0
 30
0.0
 70
   128
 71
   227
 72
   217
 73
   221
 74
   231
  0
VERTEX
  5
45B
330
3C
100
AcDbEntity
  8
METAL
100
AcDbFaceRecord
 10
0.0
 20
0.0
 30
0.0
 70
   128
 71
   231
 72
   221
 73
   223
 74
   233
  0
VERTEX
  5
45C
330
3C
100
AcDbEntity
  8
METAL
100
AcDbFaceRecord
 10
0.0
 20
0.0
 30
0.0
 70
   128
 71
   233
 72
   223
 73
   219
 74
   229
  0
VERTEX
  5
45D
330
3C
100
AcDbEntity
  8
METAL
100
AcDbFaceRecord
 10
0.0
 20
0.0
 30
0.0
 70
   128
 71
   229
 72
   219
 73
   215
 74
   225
  0
VERTEX
  5
45E
330
3C
100
AcDbEntity
  8
METAL
100
AcDbFaceRecord
 10
0.0
 20
0.0
 30
0.0
 70
   128
 71
   225
 72
   215
 73
   207
 74
   211
  0
VERTEX
  5
45F
330
3C
100
AcDbEntity
  8
METAL
100
AcDbFaceRecord
 10
0.0
 20
0.0
 30
0.0
 70
   128
 71
   211
 72
   207
 73
   199
 74
   195
  0
VERTEX
  5
460
330
3C
100
AcDbEntity
  8
METAL
100
AcDbFaceRecord
 10
0.0
 20
0.0
 30
0.0
 70
   128
 71
   195
 72
   199
 73
   191
 74
   189
  0
VERTEX
  5
461
330
3C
100
AcDbEntity
  8
METAL
100
AcDbFaceRecord
 10
0.0
 20
0.0
 30
0.0
 70
   128
 71
   189
 72
   191
 73
   203
 74
   185
  0
VERTEX
  5
462
330
3C
100
AcDbEntity
  8
METAL
100
AcDbFaceRecord
 10
0.0
 20
0.0
 30
0.0
 70
   128
 71
   185
 72
   203
 73
   205
 74
   183
  0
VERTEX
  5
463
330
3C
100
AcDbEntity
  8
METAL
100
AcDbFaceRecord
 10
0.0
 20
0.0
 30
0.0
 70
   128
 71
   183
 72
   205
 73
   193
 74
   187
  0
VERTEX
  5
464
330
3C
100
AcDbEntity
  8
METAL
100
AcDbFaceRecord
 10
0.0
 20
0.0
 30
0.0
 70
   128
 71
   187
 72
   193
 73
   201
 74
   197
  0
VERTEX
  5
465
330
3C
100
AcDbEntity
  8
METAL
100
AcDbFaceRecord
 10
0.0
 20
0.0
 30
0.0
 70
   128
 71
   244
 72
   254
 73
   262
 74
   240
  0
VERTEX
  5
466
330
3C
100
AcDbEntity
  8
METAL
100
AcDbFaceRecord
 10
0.0
 20
0.0
 30
0.0
 70
   128
 71
   240
 72
   262
 73
   278
 74
   236
  0
VERTEX
  5
467
330
3C
100
AcDbEntity
  8
METAL
100
AcDbFaceRecord
 10
0.0
 20
0.0
 30
0.0
 70
   128
 71
   236
 72
   278
 73
   272
 74
   234
  0
VERTEX
  5
468
330
3C
100
AcDbEntity
  8
METAL
100
AcDbFaceRecord
 10
0.0
 20
0.0
 30
0.0
 70
   128
 71
   234
 72
   272
 73
   252
 74
   238
  0
VERTEX
  5
469
330
3C
100
AcDbEntity
  8
METAL
100
AcDbFaceRecord
 10
0.0
 20
0.0
 30
0.0
 70
   128
 71
   238
 72
   252
 73
   246
 74
   242
  0
VERTEX
  5
46A
330
3C
100
AcDbEntity
  8
METAL
100
AcDbFaceRecord
 10
0.0
 20
0.0
 30
0.0
 70
   128
 71
   242
 72
   246
 73
   264
 74
   268
  0
VERTEX
  5
46B
330
3C
100
AcDbEntity
  8
METAL
100
AcDbFaceRecord
 10
0.0
 20
0.0
 30
0.0
 70
   128
 71
   268
 72
   264
 73
   250
 74
   274
  0
VERTEX
  5
46C
330
3C
100
AcDbEntity
  8
METAL
100
AcDbFaceRecord
 10
0.0
 20
0.0
 30
0.0
 70
   128
 71
   274
 72
   250
 73
   248
 74
   280
  0
VERTEX
  5
46D
330
3C
100
AcDbEntity
  8
METAL
100
AcDbFaceRecord
 10
0.0
 20
0.0
 30
0.0
 70
   128
 71
   280
 72
   248
 73
   258
 74
   284
  0
VERTEX
  5
46E
330
3C
100
AcDbEntity
  8
METAL
100
AcDbFaceRecord
 10
0.0
 20
0.0
 30
0.0
 70
   128
 71
   284
 72
   258
 73
   256
 74
   282
  0
VERTEX
  5
46F
330
3C
100
AcDbEntity
  8
METAL
100
AcDbFaceRecord
 10
0.0
 20
0.0
 30
0.0
 70
   128
 71
   282
 72
   256
 73
   260
 74
   276
  0
VERTEX
  5
470
330
3C
100
AcDbEntity
  8
METAL
100
AcDbFaceRecord
 10
0.0
 20
0.0
 30
0.0
 70
   128
 71
   276
 72
   260
 73
   266
 74
   270
  0
VERTEX
  5
471
330
3C
100
AcDbEntity
  8
METAL
100
AcDbFaceRecord
 10
0.0
 20
0.0
 30
0.0
 70
   128
 71
   270
 72
   266
 73
   254
 74
   244
  0
VERTEX
  5
472
330
3C
100
AcDbEntity
  8
METAL
100
AcDbFaceRecord
 10
0.0
 20
0.0
 30
0.0
 70
   128
 71
   291
 72
   311
 73
   310
 74
   293
  0
VERTEX
  5
473
330
3C
100
AcDbEntity
  8
METAL
100
AcDbFaceRecord
 10
0.0
 20
0.0
 30
0.0
 70
   128
 71
   292
 72
   300
 73
   299
 74
   290
  0
VERTEX
  5
474
330
3C
100
AcDbEntity
  8
METAL
100
AcDbFaceRecord
 10
0.0
 20
0.0
 30
0.0
 70
   128
 71
   287
 72
   307
 73
   309
 74
   289
  0
VERTEX
  5
475
330
3C
100
AcDbEntity
  8
METAL
100
AcDbFaceRecord
 10
0.0
 20
0.0
 30
0.0
 70
   128
 71
   295
 72
   308
 73
   306
 74
   297
  0
VERTEX
  5
476
330
3C
100
AcDbEntity
  8
METAL
100
AcDbFaceRecord
 10
0.0
 20
0.0
 30
0.0
 70
   128
 71
   289
 72
   309
 73
   311
 74
   291
  0
VERTEX
  5
477
330
3C
100
AcDbEntity
  8
METAL
100
AcDbFaceRecord
 10
0.0
 20
0.0
 30
0.0
 70
   128
 71
   297
 72
   306
 73
   305
 74
   298
  0
VERTEX
  5
478
330
3C
100
AcDbEntity
  8
METAL
100
AcDbFaceRecord
 10
0.0
 20
0.0
 30
0.0
 70
   128
 71
   302
 72
   300
 73
   292
 74
   294
  0
VERTEX
  5
479
330
3C
100
AcDbEntity
  8
METAL
100
AcDbFaceRecord
 10
0.0
 20
0.0
 30
0.0
 70
   128
 71
   286
 72
   303
 73
   307
 74
   287
  0
VERTEX
  5
47A
330
3C
100
AcDbEntity
  8
METAL
100
AcDbFaceRecord
 10
0.0
 20
0.0
 30
0.0
 70
   128
 71
   293
 72
   310
 73
   308
 74
   295
  0
VERTEX
  5
47B
330
3C
100
AcDbEntity
  8
METAL
100
AcDbFaceRecord
 10
0.0
 20
0.0
 30
0.0
 70
   128
 71
   290
 72
   299
 73
   301
 74
   288
  0
VERTEX
  5
47C
330
3C
100
AcDbEntity
  8
METAL
100
AcDbFaceRecord
 10
0.0
 20
0.0
 30
0.0
 70
   128
 71
   288
 72
   301
 73
   303
 74
   286
  0
VERTEX
  5
47D
330
3C
100
AcDbEntity
  8
METAL
100
AcDbFaceRecord
 10
0.0
 20
0.0
 30
0.0
 70
   128
 71
   298
 72
   305
 73
   304
 74
   296
  0
VERTEX
  5
47E
330
3C
100
AcDbEntity
  8
METAL
100
AcDbFaceRecord
 10
0.0
 20
0.0
 30
0.0
 70
   128
 71
   296
 72
   304
 73
   302
 74
   294
  0
SEQEND
  5
47F
330
3C
100
AcDbEntity
  8
METAL
  0
ENDSEC
  0
SECTION
  2
OBJECTS
  0
DICTIONARY
  5
C
330
0
100
AcDbDictionary
281
     1
  3
ACAD_GROUP
350
D
  3
ACAD_LAYOUT
350
1A
  3
ACAD_MLEADERSTYLE
350
481
  3
ACAD_MLINESTYLE
350
17
  3
ACAD_PLOTSETTINGS
350
19
  3
ACAD_PLOTSTYLENAME
350
E
  3
ACAD_TABLESTYLE
350
480
  3
ACAD_VISUALSTYLE
350
2A
  0
DICTIONARY
  5
D
102
{ACAD_REACTORS
330
C
102
}
330
C
100
AcDbDictionary
281
     1
  0
DICTIONARY
  5
1A
102
{ACAD_REACTORS
330
C
102
}
330
C
100
AcDbDictionary
281
     1
  3
Layout1
350
1E
  3
Layout2
350
26
  3
Model
350
22
  0
DICTIONARY
  5
481
102
{ACAD_REACTORS
330
C
102
}
330
C
100
AcDbDictionary
281
     1
  0
DICTIONARY
  5
17
102
{ACAD_REACTORS
330
C
102
}
330
C
100
AcDbDictionary
281
     1
  3
Standard
350
18
  0
DICTIONARY
  5
19
102
{ACAD_REACTORS
330
C
102
}
330
C
100
AcDbDictionary
281
     1
  0
ACDBDICTIONARYWDFLT
  5
E
102
{ACAD_REACTORS
330
C
102
}
330
C
100
AcDbDictionary
281
     1
  3
Normal
350
F
100
AcDbDictionaryWithDefault
340
F
  0
DICTIONARY
  5
480
102
{ACAD_REACTORS
330
C
102
}
330
C
100
AcDbDictionary
281
     1
  0
DICTIONARY
  5
2A
102
{ACAD_REACTORS
330
C
102
}
330
C
100
AcDbDictionary
281
     1
  3
2dWireframe
350
2F
  3
3D Hidden
350
31
  3
3dWireframe
350
30
  3
Basic
350
32
  3
Brighten
350
36
  3
ColorChange
350
3A
  3
Conceptual
350
34
  3
Dim
350
35
  3
Facepattern
350
39
  3
Flat
350
2B
  3
FlatWithEdges
350
2C
  3
Gouraud
350
2D
  3
GouraudWithEdges
350
2E
  3
Linepattern
350
38
  3
Realistic
350
33
  3
Thicken
350
37
  0
LAYOUT
  5
1E
102
{ACAD_REACTORS
330
1A
102
}
330
1A
100
AcDbPlotSettings
  1

  2
none_device
  4

  6

 40
0.0
 41
0.0
 42
0.0
 43
0.0
 44
0.0
 45
0.0
 46
0.0
 47
0.0
 48
0.0
 49
0.0
140
0.0
141
0.0
142
1.0
143
1.0
 70
   688
 72
     0
 73
     0
 74
     5
  7

 75
    16
 76
     0
 77
     2
 78
   300
147
1.0
148
0.0
149
0.0
100
AcDbLayout
  1
Layout1
 70
     1
 71
     1
 10
0.0
 20
0.0
 11
12.0
 21
9.0
 12
0.0
 22
0.0
 32
0.0
 14
1.000000000000000E+20
 24
1.000000000000000E+20
 34
1.000000000000000E+20
 15
-1.000000000000000E+20
 25
-1.000000000000000E+20
 35
-1.000000000000000E+20
146
0.0
 13
0.0
 23
0.0
 33
0.0
 16
1.0
 26
0.0
 36
0.0
 17
0.0
 27
1.0
 37
0.0
 76
     0
330
1B
  0
LAYOUT
  5
26
102
{ACAD_REACTORS
330
1A
102
}
330
1A
100
AcDbPlotSettings
  1

  2
none_device
  4

  6

 40
0.0
 41
0.0
 42
0.0
 43
0.0
 44
0.0
 45
0.0
 46
0.0
 47
0.0
 48
0.0
 49
0.0
140
0.0
141
0.0
142
1.0
143
1.0
 70
   688
 72
     0
 73
     0
 74
     5
  7

 75
    16
 76
     0
 77
     2
 78
   300
147
1.0
148
0.0
149
0.0
100
AcDbLayout
  1
Layout2
 70
     1
 71
     2
 10
0.0
 20
0.0
 11
0.0
 21
0.0
 12
0.0
 22
0.0
 32
0.0
 14
0.0
 24
0.0
 34
0.0
 15
0.0
 25
0.0
 35
0.0
146
0.0
 13
0.0
 23
0.0
 33
0.0
 16
1.0
 26
0.0
 36
0.0
 17
0.0
 27
1.0
 37
0.0
 76
     0
330
23
  0
LAYOUT
  5
22
102
{ACAD_REACTORS
330
1A
102
}
330
1A
100
AcDbPlotSettings
  1

  2
none_device
  4

  6

 40
0.0
 41
0.0
 42
0.0
 43
0.0
 44
0.0
 45
0.0
 46
0.0
 47
0.0
 48
0.0
 49
0.0
140
0.0
141
0.0
142
1.0
143
1.0
 70
  1712
 72
     0
 73
     0
 74
     0
  7

 75
     0
 76
     0
 77
     2
 78
   300
147
1.0
148
0.0
149
0.0
100
AcDbLayout
  1
Model
 70
     1
 71
     0
 10
0.0
 20
0.0
 11
12.0
 21
9.0
 12
0.0
 22
0.0
 32
0.0
 14
-63.5
 24
-28.91614532470703
 34
-6.0
 15
63.76995468139648
 25
0.0
 35
6.383636474609375
146
0.0
 13
0.0
 23
0.0
 33
0.0
 16
1.0
 26
0.0
 36
0.0
 17
0.0
 27
1.0
 37
0.0
 76
     0
330
1F
331
29
  0
MLINESTYLE
  5
18
102
{ACAD_REACTORS
330
17
102
}
330
17
100
AcDbMlineStyle
  2
Standard
 70
     0
  3

 62
   256
 51
90.0
 52
90.0
 71
     2
 49
0.5
 62
   256
  6
BYLAYER
 49
-0.5
 62
   256
  6
BYLAYER
  0
ACDBPLACEHOLDER
  5
F
102
{ACAD_REACTORS
330
E
102
}
330
E
  0
VISUALSTYLE
  5
2F
102
{ACAD_REACTORS
330
2A
102
}
330
2A
100
AcDbVisualStyle
  2
2dWireframe
 70
     4
 71
     0
 72
     2
 73
     0
 90
        0
 40
-0.6
 41
-30.0
 62
     5
 63
     7
421
 16777215
 74
     1
 91
        4
 64
     7
 65
   257
 75
     1
175
     1
 42
1.0
 92
        0
 66
   257
 43
1.0
 76
     1
 77
     6
 78
     2
 67
     7
 79
     5
170
     0
171
     0
290
     0
174
     0
 93
        1
 44
0.0
173
     0
291
     0
 45
0.0
1001
ACAD
1000
AcDbSavedByObjectVersion
1070
     0
  0
VISUALSTYLE
  5
31
102
{ACAD_REACTORS
330
2A
102
}
330
2A
100
AcDbVisualStyle
  2
3D Hidden
 70
     6
 71
     1
 72
     2
 73
     2
 90
        0
 40
-0.6
 41
-30.0
 62
     5
 63
     7
421
 16777215
 74
     2
 91
        2
 64
     7
 65
   257
 75
     2
175
     1
 42
40.0
 92
        0
 66
   257
 43
1.0
 76
     1
 77
     6
 78
     2
 67
     7
 79
     3
170
     0
171
     0
290
     0
174
     0
 93
        1
 44
0.0
173
     0
291
     0
 45
0.0
1001
ACAD
1000
AcDbSavedByObjectVersion
1070
     0
  0
VISUALSTYLE
  5
30
102
{ACAD_REACTORS
330
2A
102
}
330
2A
100
AcDbVisualStyle
  2
3dWireframe
 70
     5
 71
     0
 72
     2
 73
     0
 90
        0
 40
-0.6
 41
-30.0
 62
     5
 63
     7
421
 16777215
 74
     1
 91
        4
 64
     7
 65
   257
 75
     1
175
     1
 42
1.0
 92
        0
 66
   257
 43
1.0
 76
     1
 77
     6
 78
     2
 67
     7
 79
     5
170
     0
171
     0
290
     0
174
     0
 93
        1
 44
0.0
173
     0
291
     0
 45
0.0
1001
ACAD
1000
AcDbSavedByObjectVersion
1070
     0
  0
VISUALSTYLE
  5
32
102
{ACAD_REACTORS
330
2A
102
}
330
2A
100
AcDbVisualStyle
  2
Basic
 70
     7
 71
     1
 72
     0
 73
     1
 90
        0
 40
-0.6
 41
-30.0
 62
     5
 63
     7
421
 16777215
 74
     0
 91
        4
 64
     7
 65
   257
 75
     1
175
     1
 42
1.0
 92
        8
 66
     7
 43
1.0
 76
     1
 77
     6
 78
     2
 67
     7
 79
     5
170
     0
171
     0
290
     0
174
     0
 93
        1
 44
0.0
173
     0
291
     1
 45
0.0
1001
ACAD
1000
AcDbSavedByObjectVersion
1070
     0
  0
VISUALSTYLE
  5
36
102
{ACAD_REACTORS
330
2A
102
}
330
2A
100
AcDbVisualStyle
  2
Brighten
 70
    12
 71
     2
 72
     2
 73
     0
 90
        0
 40
-0.6
 41
-30.0
 62
     5
 63
     7
421
 16777215
 74
     1
 91
        4
 64
     7
 65
   257
 75
     1
175
     1
 42
1.0
 92
        8
 66
     7
 43
1.0
 76
     1
 77
     6
 78
     2
 67
     7
 79
     5
170
     0
171
     0
290
     0
174
     0
 93
        1
 44
50.0
173
     0
291
     1
 45
0.0
1001
ACAD
1000
AcDbSavedByObjectVersion
1070
     0
  0
VISUALSTYLE
  5
3A
102
{ACAD_REACTORS
330
2A
102
}
330
2A
100
AcDbVisualStyle
  2
ColorChange
 70
    16
 71
     2
 72
     2
 73
     3
 90
        0
 40
-0.6
 41
-30.0
 62
     5
 63
     8
421
  8421504
 74
     1
 91
        4
 64
     7
 65
   257
 75
     1
175
     1
 42
1.0
 92
        8
 66
     8
424
  8421504
 43
1.0
 76
     1
 77
     6
 78
     2
 67
     7
 79
     5
170
     0
171
     0
290
     0
174
     0
 93
        1
 44
0.0
173
     0
291
     1
 45
0.0
1001
ACAD
1000
AcDbSavedByObjectVersion
1070
     0
  0
VISUALSTYLE
  5
34
102
{ACAD_REACTORS
330
2A
102
}
330
2A
100
AcDbVisualStyle
  2
Conceptual
 70
     9
 71
     3
 72
     2
 73
     0
 90
        0
 40
-0.6
 41
-30.0
 62
     5
 63
     7
421
 16777215
 74
     2
 91
        2
 64
     7
 65
   257
 75
     1
175
     1
 42
40.0
 92
        8
 66
     7
 43
1.0
 76
     1
 77
     6
 78
     2
 67
     7
 79
     3
170
     0
171
     0
290
     0
174
     0
 93
        1
 44
0.0
173
     0
291
     0
 45
0.0
1001
ACAD
1000
AcDbSavedByObjectVersion
1070
     0
  0
VISUALSTYLE
  5
35
102
{ACAD_REACTORS
330
2A
102
}
330
2A
100
AcDbVisualStyle
  2
Dim
 70
    11
 71
     2
 72
     2
 73
     0
 90
        0
 40
-0.6
 41
-30.0
 62
     5
 63
     7
421
 16777215
 74
     1
 91
        4
 64
     7
 65
   257
 75
     1
175
     1
 42
1.0
 92
        8
 66
     7
 43
1.0
 76
     1
 77
     6
 78
     2
 67
     7
 79
     5
170
     0
171
     0
290
     0
174
     0
 93
        1
 44
-50.0
173
     0
291
     1
 45
0.0
1001
ACAD
1000
AcDbSavedByObjectVersion
1070
     0
  0
VISUALSTYLE
  5
39
102
{ACAD_REACTORS
330
2A
102
}
330
2A
100
AcDbVisualStyle
  2
Facepattern
 70
    15
 71
     2
 72
     2
 73
     0
 90
        0
 40
-0.6
 41
-30.0
 62
     5
 63
     7
421
 16777215
 74
     1
 91
        4
 64
     7
 65
   257
 75
     1
175
     1
 42
1.0
 92
        8
 66
     7
 43
1.0
 76
     1
 77
     6
 78
     2
 67
     7
 79
     5
170
     0
171
     0
290
     0
174
     0
 93
        1
 44
0.0
173
     0
291
     1
 45
0.0
1001
ACAD
1000
AcDbSavedByObjectVersion
1070
     0
  0
VISUALSTYLE
  5
2B
102
{ACAD_REACTORS
330
2A
102
}
330
2A
100
AcDbVisualStyle
  2
Flat
 70
     0
 71
     2
 72
     1
 73
     1
 90
        2
 40
-0.6
 41
30.0
 62
     5
 63
     7
421
 16777215
 74
     0
 91
        4
 64
     7
 65
   257
 75
     1
175
     1
 42
1.0
 92
        8
 66
     7
 43
1.0
 76
     1
 77
     6
 78
     2
 67
     7
 79
     5
170
     0
171
     0
290
     0
174
     0
 93
       13
 44
0.0
173
     0
291
     1
 45
0.0
1001
ACAD
1000
AcDbSavedByObjectVersion
1070
     0
  0
VISUALSTYLE
  5
2C
102
{ACAD_REACTORS
330
2A
102
}
330
2A
100
AcDbVisualStyle
  2
FlatWithEdges
 70
     1
 71
     2
 72
     1
 73
     1
 90
        2
 40
-0.6
 41
30.0
 62
     5
 63
     7
421
 16777215
 74
     1
 91
        4
 64
     7
 65
   257
 75
     1
175
     1
 42
1.0
 92
        0
 66
   257
 43
1.0
 76
     1
 77
     6
 78
     2
 67
     7
 79
     5
170
     0
171
     0
290
     0
174
     0
 93
       13
 44
0.0
173
     0
291
     1
 45
0.0
1001
ACAD
1000
AcDbSavedByObjectVersion
1070
     0
  0
VISUALSTYLE
  5
2D
102
{ACAD_REACTORS
330
2A
102
}
330
2A
100
AcDbVisualStyle
  2
Gouraud
 70
     2
 71
     2
 72
     2
 73
     1
 90
        2
 40
-0.6
 41
30.0
 62
     5
 63
     7
421
 16777215
 74
     0
 91
        4
 64
     7
 65
   257
 75
     1
175
     1
 42
1.0
 92
        0
 66
     7
 43
1.0
 76
     1
 77
     6
 78
     2
 67
     7
 79
     5
170
     0
171
     0
290
     0
174
     0
 93
       13
 44
0.0
173
     0
291
     1
 45
0.0
1001
ACAD
1000
AcDbSavedByObjectVersion
1070
     0
  0
VISUALSTYLE
  5
2E
102
{ACAD_REACTORS
330
2A
102
}
330
2A
100
AcDbVisualStyle
  2
GouraudWithEdges
 70
     3
 71
     2
 72
     2
 73
     1
 90
        2
 40
-0.6
 41
30.0
 62
     5
 63
     7
421
 16777215
 74
     1
 91
        4
 64
     7
 65
   257
 75
     1
175
     1
 42
1.0
 92
        0
 66
   257
 43
1.0
 76
     1
 77
     6
 78
     2
 67
     7
 79
     5
170
     0
171
     0
290
     0
174
     0
 93
       13
 44
0.0
173
     0
291
     1
 45
0.0
1001
ACAD
1000
AcDbSavedByObjectVersion
1070
     0
  0
VISUALSTYLE
  5
38
102
{ACAD_REACTORS
330
2A
102
}
330
2A
100
AcDbVisualStyle
  2
Linepattern
 70
    14
 71
     2
 72
     2
 73
     0
 90
        0
 40
-0.6
 41
-30.0
 62
     5
 63
     7
421
 16777215
 74
     1
 91
        4
 64
     7
 65
   257
 75
     7
175
     7
 42
1.0
 92
        8
 66
     7
 43
1.0
 76
     1
 77
     6
 78
     2
 67
     7
 79
     5
170
     0
171
     0
290
     0
174
     0
 93
        1
 44
0.0
173
     0
291
     1
 45
0.0
1001
ACAD
1000
AcDbSavedByObjectVersion
1070
     0
  0
VISUALSTYLE
  5
33
102
{ACAD_REACTORS
330
2A
102
}
330
2A
100
AcDbVisualStyle
  2
Realistic
 70
     8
 71
     2
 72
     2
 73
     0
 90
        0
 40
-0.6
 41
-30.0
 62
     5
 63
     7
421
 16777215
 74
     1
 91
        0
 64
     7
 65
   257
 75
     1
175
     1
 42
1.0
 92
        8
 66
     8
424
  7895160
 43
1.0
 76
     1
 77
     6
 78
     2
 67
     7
 79
     5
170
     0
171
     0
290
     0
174
     0
 93
       13
 44
0.0
173
     0
291
     0
 45
0.0
1001
ACAD
1000
AcDbSavedByObjectVersion
1070
     0
  0
VISUALSTYLE
  5
37
102
{ACAD_REACTORS
330
2A
102
}
330
2A
100
AcDbVisualStyle
  2
Thicken
 70
    13
 71
     2
 72
     2
 73
     0
 90
        0
 40
-0.6
 41
-30.0
 62
     5
 63
     7
421
 16777215
 74
     1
 91
        4
 64
     7
 65
   257
 75
     1
175
     1
 42
1.0
 92
       12
 66
     7
 43
1.0
 76
     1
 77
     6
 78
     2
 67
     7
 79
     5
170
     0
171
     0
290
     0
174
     0
 93
        1
 44
0.0
173
     0
291
     1
 45
0.0
1001
ACAD
1000
AcDbSavedByObjectVersion
1070
     0
  0
ENDSEC
  0
EOF
