  0
SECTION
  2
HEADER
  9
$ACADVER
  1
AC1009
  9
$INSBASE
 10
0.0
 20
0.0
 30
0.0
  9
$EXTMIN
 10
-0.00003413186
 20
-0.7087402701084001
 30
-1.0782480000000001
  9
$EXTMAX
 10
50.000004131860003
 20
29.291260000000001
 30
44.465450584623397
  9
$LIMMIN
 10
0.0
 20
0.0
  9
$LIMMAX
 10
12.0
 20
9.0
  9
$ORTHOMODE
 70
     0
  9
$REGENMODE
 70
     1
  9
$FILLMODE
 70
     1
  9
$QTEXTMODE
 70
     0
  9
$MIRRTEXT
 70
     0
  9
$DRAGMODE
 70
     2
  9
$LTSCALE
 40
1.0
  9
$OSMODE
 70
   759
  9
$ATTMODE
 70
     1
  9
$TEXTSIZE
 40
0.2
  9
$TRACEWID
 40
0.05
  9
$TEXTSTYLE
  7
STANDARD
  9
$CLAYER
  8
0
  9
$CELTYPE
  6
CONTINUOUS
  9
$CECOLOR
 62
   256
  9
$DIMSCALE
 40
1.0
  9
$DIMASZ
 40
0.18
  9
$DIMEXO
 40
0.0625
  9
$DIMDLI
 40
0.38
  9
$DIMRND
 40
0.0
  9
$DIMDLE
 40
0.0
  9
$DIMEXE
 40
0.18
  9
$DIMTP
 40
0.0
  9
$DIMTM
 40
0.0
  9
$DIMTXT
 40
0.18
  9
$DIMCEN
 40
0.09
  9
$DIMTSZ
 40
0.0
  9
$DIMTOL
 70
     0
  9
$DIMLIM
 70
     0
  9
$DIMTIH
 70
     1
  9
$DIMTOH
 70
     1
  9
$DIMSE1
 70
     0
  9
$DIMSE2
 70
     0
  9
$DIMTAD
 70
     0
  9
$DIMZIN
 70
     0
  9
$DIMBLK
  1

  9
$DIMASO
 70
     1
  9
$DIMSHO
 70
     1
  9
$DIMPOST
  1

  9
$DIMAPOST
  1

  9
$DIMALT
 70
     0
  9
$DIMALTD
 70
     2
  9
$DIMALTF
 40
25.399999999999999
  9
$DIMLFAC
 40
1.0
  9
$DIMTOFL
 70
     0
  9
$DIMTVP
 40
0.0
  9
$DIMTIX
 70
     0
  9
$DIMSOXD
 70
     0
  9
$DIMSAH
 70
     0
  9
$DIMBLK1
  1

  9
$DIMBLK2
  1

  9
$DIMSTYLE
  2
STANDARD
  9
$DIMCLRD
 70
     0
  9
$DIMCLRE
 70
     0
  9
$DIMCLRT
 70
     0
  9
$DIMTFAC
 40
1.0
  9
$DIMGAP
 40
0.09
  9
$LUNITS
 70
     2
  9
$LUPREC
 70
     4
  9
$SKETCHINC
 40
0.1
  9
$FILLETRAD
 40
0.0
  9
$AUNITS
 70
     0
  9
$AUPREC
 70
     0
  9
$MENU
  1
.
  9
$ELEVATION
 40
0.0
  9
$PELEVATION
 40
0.0
  9
$THICKNESS
 40
0.0
  9
$LIMCHECK
 70
     0
  9
$BLIPMODE
 70
     0
  9
$CHAMFERA
 40
0.0
  9
$CHAMFERB
 40
0.0
  9
$SKPOLY
 70
     0
  9
$TDCREATE
 40
2457472.4431367712
  9
$TDUPDATE
 40
2457472.4443976162
  9
$TDINDWG
 40
0.0012615509
  9
$TDUSRTIMER
 40
0.0012615509
  9
$USRTIMER
 70
     1
  9
$ANGBASE
 50
0.0
  9
$ANGDIR
 70
     0
  9
$PDMODE
 70
     0
  9
$PDSIZE
 40
0.0
  9
$PLINEWID
 40
0.0
  9
$COORDS
 70
     1
  9
$SPLFRAME
 70
     0
  9
$SPLINETYPE
 70
     6
  9
$SPLINESEGS
 70
     8
  9
$ATTDIA
 70
     0
  9
$ATTREQ
 70
     1
  9
$HANDLING
 70
     1
  9
$HANDSEED
  5
19E
  9
$SURFTAB1
 70
     6
  9
$SURFTAB2
 70
     6
  9
$SURFTYPE
 70
     6
  9
$SURFU
 70
     6
  9
$SURFV
 70
     6
  9
$UCSNAME
  2

  9
$UCSORG
 10
0.0
 20
0.0
 30
0.0
  9
$UCSXDIR
 10
1.0
 20
0.0
 30
0.0
  9
$UCSYDIR
 10
0.0
 20
1.0
 30
0.0
  9
$PUCSNAME
  2

  9
$PUCSORG
 10
0.0
 20
0.0
 30
0.0
  9
$PUCSXDIR
 10
1.0
 20
0.0
 30
0.0
  9
$PUCSYDIR
 10
0.0
 20
1.0
 30
0.0
  9
$USERI1
 70
     0
  9
$USERI2
 70
     0
  9
$USERI3
 70
     0
  9
$USERI4
 70
     0
  9
$USERI5
 70
     0
  9
$USERR1
 40
0.0
  9
$USERR2
 40
0.0
  9
$USERR3
 40
0.0
  9
$USERR4
 40
0.0
  9
$USERR5
 40
0.0
  9
$WORLDVIEW
 70
     1
  9
$SHADEDGE
 70
     3
  9
$SHADEDIF
 70
    70
  9
$TILEMODE
 70
     1
  9
$MAXACTVP
 70
    64
  9
$PLIMCHECK
 70
     0
  9
$PEXTMIN
 10
1.0000000000000000E+020
 20
1.0000000000000000E+020
 30
1.0000000000000000E+020
  9
$PEXTMAX
 10
-1.0000000000000000E+020
 20
-1.0000000000000000E+020
 30
-1.0000000000000000E+020
  9
$PLIMMIN
 10
0.0
 20
0.0
  9
$PLIMMAX
 10
12.0
 20
9.0
  9
$UNITMODE
 70
     0
  9
$VISRETAIN
 70
     1
  9
$PLINEGEN
 70
     0
  9
$PSLTSCALE
 70
     1
  0
ENDSEC
  0
SECTION
  2
TABLES
  0
TABLE
  2
VPORT
 70
     1
  0
VPORT
  2
*ACTIVE
 70
     0
 10
0.0
 20
0.0
 11
1.0
 21
1.0
 12
-2.8199234070183361
 22
3.5779605517028439
 13
0.0
 23
0.0
 14
1.0
 24
1.0
 15
0.0
 25
0.0
 16
-152.57909603477819
 26
-173.4881295193733
 36
67.871701866283274
 17
24.291170856569352
 27
11.322513817510259
 37
12.51172069515987
 40
118.42886293366
 41
2.544401544401544
 42
50.0
 43
0.0
 44
0.0
 50
0.0
 51
0.0000000000000166
 71
     0
 72
   100
 73
     1
 74
     1
 75
     0
 76
     0
 77
     0
 78
     0
  0
ENDTAB
  0
TABLE
  2
LTYPE
 70
     2
  0
LTYPE
  2
CONTINUOUS
 70
     0
  3
Solid line
 72
    65
 73
     0
 40
0.0
  0
LTYPE
  2
PHANTOM2
 70
     0
  3
Phantom (.5x) ___ _ _ ___ _ _ ___ _ _ ___ _ _
 72
    65
 73
     6
 40
1.25
 49
0.625
 49
-0.125
 49
0.125
 49
-0.125
 49
0.125
 49
-0.125
  0
ENDTAB
  0
TABLE
  2
LAYER
 70
     2
  0
LAYER
  2
0
 70
     0
 62
     7
  6
CONTINUOUS
  0
LAYER
  2
ESTRUTURA
 70
     0
 62
     7
  6
CONTINUOUS
  0
ENDTAB
  0
TABLE
  2
STYLE
 70
     2
  0
STYLE
  2
STANDARD
 70
     0
 40
0.0
 41
1.0
 50
0.0
 71
     0
 42
0.2
  3
txt
  4

  0
STYLE
  2
ANNOTATIVE
 70
     0
 40
0.0
 41
1.0
 50
0.0
 71
     0
 42
0.2
  3
txt
  4

  0
ENDTAB
  0
TABLE
  2
VIEW
 70
     0
  0
ENDTAB
  0
TABLE
  2
UCS
 70
     0
  0
ENDTAB
  0
TABLE
  2
APPID
 70
     4
  0
APPID
  2
ACAD
 70
     0
  0
APPID
  2
ACADANNOTATIVE
 70
     0
  0
APPID
  2
ACAD_NAV_VCDISPLAY
 70
     0
  0
APPID
  2
ACAD_MLEADERVER
 70
     0
  0
ENDTAB
  0
TABLE
  2
DIMSTYLE
 70
     2
  0
DIMSTYLE
  2
STANDARD
 70
     0
  3

  4

  5

  6

  7

 40
1.0
 41
0.18
 42
0.0625
 43
0.38
 44
0.18
 45
0.0
 46
0.0
 47
0.0
 48
0.0
140
0.18
141
0.09
142
0.0
143
25.399999999999999
144
1.0
145
0.0
146
1.0
147
0.09
 71
     0
 72
     0
 73
     1
 74
     1
 75
     0
 76
     0
 77
     0
 78
     0
170
     0
171
     2
172
     0
173
     0
174
     0
175
     0
176
     0
177
     0
178
     0
  0
DIMSTYLE
  2
ANNOTATIVE
 70
     0
  3

  4

  5

  6

  7

 40
1.0
 41
0.18
 42
0.0625
 43
0.38
 44
0.18
 45
0.0
 46
0.0
 47
0.0
 48
0.0
140
0.18
141
0.09
142
0.0
143
25.399999999999999
144
1.0
145
0.0
146
1.0
147
0.09
 71
     0
 72
     0
 73
     1
 74
     1
 75
     0
 76
     0
 77
     0
 78
     0
170
     0
171
     2
172
     0
173
     0
174
     0
175
     0
176
     0
177
     0
178
     0
  0
ENDTAB
  0
ENDSEC
  0
SECTION
  2
BLOCKS
  0
BLOCK
  8
0
  2
$MODEL_SPACE
 70
     0
 10
0.0
 20
0.0
 30
0.0
  3
$MODEL_SPACE
  1

  0
ENDBLK
  5
72
  8
0
  0
BLOCK
 67
     1
  8
0
  2
$PAPER_SPACE
 70
     0
 10
0.0
 20
0.0
 30
0.0
  3
$PAPER_SPACE
  1

  0
ENDBLK
  5
6E
 67
     1
  8
0
  0
ENDSEC
  0
SECTION
  2
ENTITIES
  0
3DFACE
  5
77
  8
ESTRUTURA
 10
50.000004131860003
 20
29.291259329891599
 30
11.173460584623401
 11
50.000004131860003
 21
21.715329329891599
 31
11.173460584623401
 12
0.0
 22
21.715329329891599
 32
11.173460584623401
 13
50.000004131860003
 23
29.291259329891599
 33
11.173460584623401
  0
3DFACE
  5
78
  8
ESTRUTURA
 10
50.000004131860003
 20
29.291259329891599
 30
11.173460584623401
 11
0.0
 21
21.715329329891599
 31
11.173460584623401
 12
0.0
 22
29.291259329891599
 32
11.173460584623401
 13
50.000004131860003
 23
29.291259329891599
 33
11.173460584623401
  0
3DFACE
  5
79
  8
ESTRUTURA
 10
50.000004131860003
 20
21.715329329891599
 30
11.173460584623401
 11
50.000004131860003
 21
21.715329329891599
 31
-0.0001220702766001
 12
0.0
 22
21.715329329891599
 32
-0.0001220702766001
 13
50.000004131860003
 23
21.715329329891599
 33
11.173460584623401
  0
3DFACE
  5
7A
  8
ESTRUTURA
 10
50.000004131860003
 20
21.715329329891599
 30
11.173460584623401
 11
0.0
 21
21.715329329891599
 31
-0.0001220702766001
 12
0.0
 22
21.715329329891599
 32
11.173460584623401
 13
50.000004131860003
 23
21.715329329891599
 33
11.173460584623401
  0
3DFACE
  5
7B
  8
ESTRUTURA
 10
50.000004131860003
 20
21.715329329891599
 30
-0.0001220702766001
 11
50.000004131860003
 21
16.725949329891598
 31
-0.0001220702766001
 12
0.0
 22
16.725949329891598
 32
-0.0001220702766001
 13
50.000004131860003
 23
21.715329329891599
 33
-0.0001220702766001
  0
3DFACE
  5
7C
  8
ESTRUTURA
 10
50.000004131860003
 20
21.715329329891599
 30
-0.0001220702766001
 11
0.0
 21
16.725949329891598
 31
-0.0001220702766001
 12
0.0
 22
21.715329329891599
 32
-0.0001220702766001
 13
50.000004131860003
 23
21.715329329891599
 33
-0.0001220702766001
  0
3DFACE
  5
7D
  8
ESTRUTURA
 10
0.0
 20
16.725949329891598
 30
-0.0001220702766001
 11
0.0
 21
16.725949329891598
 31
1.4687495846234
 12
50.000004131860003
 22
16.725949329891598
 32
1.4687495846234
 13
0.0
 23
16.725949329891598
 33
-0.0001220702766001
  0
3DFACE
  5
7E
  8
ESTRUTURA
 10
0.0
 20
16.725949329891598
 30
-0.0001220702766001
 11
50.000004131860003
 21
16.725949329891598
 31
1.4687495846234
 12
50.000004131860003
 22
16.725949329891598
 32
-0.0001220702766001
 13
0.0
 23
16.725949329891598
 33
-0.0001220702766001
  0
3DFACE
  5
7F
  8
ESTRUTURA
 10
0.0
 20
16.725949329891598
 30
1.4687495846234
 11
0.0
 21
20.034669329891599
 31
1.4687495846234
 12
50.000004131860003
 22
20.034669329891599
 32
1.4687495846234
 13
0.0
 23
16.725949329891598
 33
1.4687495846234
  0
3DFACE
  5
80
  8
ESTRUTURA
 10
0.0
 20
16.725949329891598
 30
1.4687495846234
 11
50.000004131860003
 21
20.034669329891599
 31
1.4687495846234
 12
50.000004131860003
 22
16.725949329891598
 32
1.4687495846234
 13
0.0
 23
16.725949329891598
 33
1.4687495846234
  0
3DFACE
  5
81
  8
ESTRUTURA
 10
0.0
 20
20.034669329891599
 30
1.4687495846234
 11
0.0
 21
20.034669329891599
 31
2.5178225846233988
 12
50.000004131860003
 22
20.034669329891599
 32
2.5178225846233988
 13
0.0
 23
20.034669329891599
 33
1.4687495846234
  0
3DFACE
  5
82
  8
ESTRUTURA
 10
0.0
 20
20.034669329891599
 30
1.4687495846234
 11
50.000004131860003
 21
20.034669329891599
 31
2.5178225846233988
 12
50.000004131860003
 22
20.034669329891599
 32
1.4687495846234
 13
0.0
 23
20.034669329891599
 33
1.4687495846234
  0
3DFACE
  5
83
  8
ESTRUTURA
 10
0.0
 20
20.034669329891599
 30
2.5178225846233988
 11
0.0
 21
18.406619329891601
 31
2.5178225846233988
 12
50.000004131860003
 22
18.406619329891601
 32
2.5178225846233988
 13
0.0
 23
20.034669329891599
 33
2.5178225846233988
  0
3DFACE
  5
84
  8
ESTRUTURA
 10
0.0
 20
20.034669329891599
 30
2.5178225846233988
 11
50.000004131860003
 21
18.406619329891601
 31
2.5178225846233988
 12
50.000004131860003
 22
20.034669329891599
 32
2.5178225846233988
 13
0.0
 23
20.034669329891599
 33
2.5178225846233988
  0
3DFACE
  5
85
  8
ESTRUTURA
 10
50.000004131860003
 20
18.406619329891601
 30
2.5178225846233988
 11
50.000004131860003
 21
18.406619329891601
 31
3.6719975846234001
 12
0.0
 22
18.406619329891601
 32
3.6719975846234001
 13
50.000004131860003
 23
18.406619329891601
 33
2.5178225846233988
  0
3DFACE
  5
86
  8
ESTRUTURA
 10
50.000004131860003
 20
18.406619329891601
 30
2.5178225846233988
 11
0.0
 21
18.406619329891601
 31
3.6719975846234001
 12
0.0
 22
18.406619329891601
 32
2.5178225846233988
 13
50.000004131860003
 23
18.406619329891601
 33
2.5178225846233988
  0
3DFACE
  5
87
  8
ESTRUTURA
 10
50.000004131860003
 20
18.406619329891601
 30
3.6719975846234001
 11
50.000004131860003
 21
17.505249329891601
 31
5.9587405846233992
 12
0.0
 22
17.505249329891601
 32
5.9587405846233992
 13
50.000004131860003
 23
18.406619329891601
 33
3.6719975846234001
  0
3DFACE
  5
88
  8
ESTRUTURA
 10
50.000004131860003
 20
18.406619329891601
 30
3.6719975846234001
 11
0.0
 21
17.505249329891601
 31
5.9587405846233992
 12
0.0
 22
18.406619329891601
 32
3.6719975846234001
 13
50.000004131860003
 23
18.406619329891601
 33
3.6719975846234001
  0
3DFACE
  5
89
  8
ESTRUTURA
 10
50.000004131860003
 20
29.291259329891599
 30
11.173460584623401
 11
50.000004131860003
 21
29.291259329891599
 31
14.4150405846234
 12
0.0
 22
29.291259329891599
 32
14.4150405846234
 13
50.000004131860003
 23
29.291259329891599
 33
11.173460584623401
  0
3DFACE
  5
8A
  8
ESTRUTURA
 10
50.000004131860003
 20
29.291259329891599
 30
11.173460584623401
 11
0.0
 21
29.291259329891599
 31
14.4150405846234
 12
0.0
 22
29.291259329891599
 32
11.173460584623401
 13
50.000004131860003
 23
29.291259329891599
 33
11.173460584623401
  0
3DFACE
  5
8B
  8
ESTRUTURA
 10
0.0
 20
27.359619329891601
 30
14.4150405846234
 11
50.000004131860003
 21
27.359619329891601
 31
14.4150405846234
 12
50.000004131860003
 22
29.291259329891599
 32
14.4150405846234
 13
0.0
 23
27.359619329891601
 33
14.4150405846234
  0
3DFACE
  5
8C
  8
ESTRUTURA
 10
0.0
 20
27.359619329891601
 30
14.4150405846234
 11
50.000004131860003
 21
29.291259329891599
 31
14.4150405846234
 12
0.0
 22
29.291259329891599
 32
14.4150405846234
 13
0.0
 23
27.359619329891601
 33
14.4150405846234
  0
3DFACE
  5
8D
  8
ESTRUTURA
 10
0.0
 20
27.359619329891601
 30
12.5899605846234
 11
50.000004131860003
 21
27.359619329891601
 31
12.5899605846234
 12
50.000004131860003
 22
27.359619329891601
 32
14.4150405846234
 13
0.0
 23
27.359619329891601
 33
12.5899605846234
  0
3DFACE
  5
8E
  8
ESTRUTURA
 10
0.0
 20
27.359619329891601
 30
12.5899605846234
 11
50.000004131860003
 21
27.359619329891601
 31
14.4150405846234
 12
0.0
 22
27.359619329891601
 32
14.4150405846234
 13
0.0
 23
27.359619329891601
 33
12.5899605846234
  0
3DFACE
  5
8F
  8
ESTRUTURA
 10
0.0
 20
24.423099329891599
 30
12.5899605846234
 11
50.000004131860003
 21
24.423099329891599
 31
12.5899605846234
 12
50.000004131860003
 22
27.359619329891601
 32
12.5899605846234
 13
0.0
 23
24.423099329891599
 33
12.5899605846234
  0
3DFACE
  5
90
  8
ESTRUTURA
 10
0.0
 20
24.423099329891599
 30
12.5899605846234
 11
50.000004131860003
 21
27.359619329891601
 31
12.5899605846234
 12
0.0
 22
27.359619329891601
 32
12.5899605846234
 13
0.0
 23
24.423099329891599
 33
12.5899605846234
  0
3DFACE
  5
91
  8
ESTRUTURA
 10
0.0
 20
24.423099329891599
 30
12.5899605846234
 11
50.000004131860003
 21
24.423099329891599
 31
12.5899605846234
 12
50.000004131860003
 22
24.423099329891599
 32
14.4150405846234
 13
0.0
 23
24.423099329891599
 33
12.5899605846234
  0
3DFACE
  5
92
  8
ESTRUTURA
 10
0.0
 20
24.423099329891599
 30
12.5899605846234
 11
50.000004131860003
 21
24.423099329891599
 31
14.4150405846234
 12
0.0
 22
24.423099329891599
 32
14.4150405846234
 13
0.0
 23
24.423099329891599
 33
12.5899605846234
  0
3DFACE
  5
93
  8
ESTRUTURA
 10
0.0
 20
24.423099329891599
 30
14.4150405846234
 11
0.0
 21
22.745119329891601
 31
14.4150405846234
 12
50.000004131860003
 22
22.745119329891601
 32
14.4150405846234
 13
0.0
 23
24.423099329891599
 33
14.4150405846234
  0
3DFACE
  5
94
  8
ESTRUTURA
 10
0.0
 20
24.423099329891599
 30
14.4150405846234
 11
50.000004131860003
 21
22.745119329891601
 31
14.4150405846234
 12
50.000004131860003
 22
24.423099329891599
 32
14.4150405846234
 13
0.0
 23
24.423099329891599
 33
14.4150405846234
  0
3DFACE
  5
95
  8
ESTRUTURA
 10
0.0
 20
22.745119329891601
 30
14.4150405846234
 11
50.000004131860003
 21
22.745119329891601
 31
14.4150405846234
 12
50.000004131860003
 22
22.745119329891601
 32
17.9720505846234
 13
0.0
 23
22.745119329891601
 33
14.4150405846234
  0
3DFACE
  5
96
  8
ESTRUTURA
 10
0.0
 20
22.745119329891601
 30
14.4150405846234
 11
50.000004131860003
 21
22.745119329891601
 31
17.9720505846234
 12
0.0
 22
22.745119329891601
 32
17.9720505846234
 13
0.0
 23
22.745119329891601
 33
14.4150405846234
  0
3DFACE
  5
97
  8
ESTRUTURA
 10
0.0
 20
22.745119329891601
 30
17.9720505846234
 11
50.000004131860003
 21
22.745119329891601
 31
17.9720505846234
 12
50.000004131860003
 22
24.423099329891599
 32
17.9720505846234
 13
0.0
 23
22.745119329891601
 33
17.9720505846234
  0
3DFACE
  5
98
  8
ESTRUTURA
 10
0.0
 20
22.745119329891601
 30
17.9720505846234
 11
50.000004131860003
 21
24.423099329891599
 31
17.9720505846234
 12
0.0
 22
24.423099329891599
 32
17.9720505846234
 13
0.0
 23
22.745119329891601
 33
17.9720505846234
  0
3DFACE
  5
99
  8
ESTRUTURA
 10
0.0
 20
24.423099329891599
 30
17.9720505846234
 11
50.000004131860003
 21
24.423099329891599
 31
17.9720505846234
 12
50.000004131860003
 22
24.423099329891599
 32
19.387330584623399
 13
0.0
 23
24.423099329891599
 33
17.9720505846234
  0
3DFACE
  5
9A
  8
ESTRUTURA
 10
0.0
 20
24.423099329891599
 30
17.9720505846234
 11
50.000004131860003
 21
24.423099329891599
 31
19.387330584623399
 12
0.0
 22
24.423099329891599
 32
19.387330584623399
 13
0.0
 23
24.423099329891599
 33
17.9720505846234
  0
3DFACE
  5
9B
  8
ESTRUTURA
 10
0.0
 20
24.423099329891599
 30
19.387330584623399
 11
50.000004131860003
 21
24.423099329891599
 31
19.387330584623399
 12
50.000004131860003
 22
27.359619329891601
 32
19.387330584623399
 13
0.0
 23
24.423099329891599
 33
19.387330584623399
  0
3DFACE
  5
9C
  8
ESTRUTURA
 10
0.0
 20
24.423099329891599
 30
19.387330584623399
 11
50.000004131860003
 21
27.359619329891601
 31
19.387330584623399
 12
0.0
 22
27.359619329891601
 32
19.387330584623399
 13
0.0
 23
24.423099329891599
 33
19.387330584623399
  0
3DFACE
  5
9D
  8
ESTRUTURA
 10
0.0
 20
27.359619329891601
 30
19.387330584623399
 11
50.000004131860003
 21
27.359619329891601
 31
19.387330584623399
 12
50.000004131860003
 22
27.359619329891601
 32
17.9720505846234
 13
0.0
 23
27.359619329891601
 33
19.387330584623399
  0
3DFACE
  5
9E
  8
ESTRUTURA
 10
0.0
 20
27.359619329891601
 30
19.387330584623399
 11
50.000004131860003
 21
27.359619329891601
 31
17.9720505846234
 12
0.0
 22
27.359619329891601
 32
17.9720505846234
 13
0.0
 23
27.359619329891601
 33
19.387330584623399
  0
3DFACE
  5
9F
  8
ESTRUTURA
 10
0.0
 20
27.359619329891601
 30
17.9720505846234
 11
50.000004131860003
 21
27.359619329891601
 31
17.9720505846234
 12
50.000004131860003
 22
29.291259329891599
 32
17.9720505846234
 13
0.0
 23
27.359619329891601
 33
17.9720505846234
  0
3DFACE
  5
A0
  8
ESTRUTURA
 10
0.0
 20
27.359619329891601
 30
17.9720505846234
 11
50.000004131860003
 21
29.291259329891599
 31
17.9720505846234
 12
0.0
 22
29.291259329891599
 32
17.9720505846234
 13
0.0
 23
27.359619329891601
 33
17.9720505846234
  0
3DFACE
  5
A1
  8
ESTRUTURA
 10
0.0
 20
29.291259329891599
 30
17.9720505846234
 11
50.000004131860003
 21
29.291259329891599
 31
17.9720505846234
 12
50.000004131860003
 22
29.291259329891599
 32
21.076290584623401
 13
0.0
 23
29.291259329891599
 33
17.9720505846234
  0
3DFACE
  5
A2
  8
ESTRUTURA
 10
0.0
 20
29.291259329891599
 30
17.9720505846234
 11
50.000004131860003
 21
29.291259329891599
 31
21.076290584623401
 12
0.0
 22
29.291259329891599
 32
21.076290584623401
 13
0.0
 23
29.291259329891599
 33
17.9720505846234
  0
3DFACE
  5
A3
  8
ESTRUTURA
 10
0.0
 20
29.291259329891599
 30
21.076290584623401
 11
0.0
 21
22.745119329891601
 31
21.076290584623401
 12
50.000004131860003
 22
22.745119329891601
 32
21.076290584623401
 13
0.0
 23
29.291259329891599
 33
21.076290584623401
  0
3DFACE
  5
A4
  8
ESTRUTURA
 10
0.0
 20
29.291259329891599
 30
21.076290584623401
 11
50.000004131860003
 21
22.745119329891601
 31
21.076290584623401
 12
50.000004131860003
 22
29.291259329891599
 32
21.076290584623401
 13
0.0
 23
29.291259329891599
 33
21.076290584623401
  0
3DFACE
  5
A5
  8
ESTRUTURA
 10
0.0
 20
22.745119329891601
 30
21.076290584623401
 11
50.000004131860003
 21
22.745119329891601
 31
21.076290584623401
 12
50.000004131860003
 22
22.745119329891601
 32
27.691530584623401
 13
0.0
 23
22.745119329891601
 33
21.076290584623401
  0
3DFACE
  5
A6
  8
ESTRUTURA
 10
0.0
 20
22.745119329891601
 30
21.076290584623401
 11
50.000004131860003
 21
22.745119329891601
 31
27.691530584623401
 12
0.0
 22
22.745119329891601
 32
27.691530584623401
 13
0.0
 23
22.745119329891601
 33
21.076290584623401
  0
3DFACE
  5
A7
  8
ESTRUTURA
 10
0.0
 20
22.745119329891601
 30
27.691530584623401
 11
50.000004131860003
 21
22.745119329891601
 31
27.691530584623401
 12
50.000004131860003
 22
29.291259329891599
 32
27.691530584623401
 13
0.0
 23
22.745119329891601
 33
27.691530584623401
  0
3DFACE
  5
A8
  8
ESTRUTURA
 10
0.0
 20
22.745119329891601
 30
27.691530584623401
 11
50.000004131860003
 21
29.291259329891599
 31
27.691530584623401
 12
0.0
 22
29.291259329891599
 32
27.691530584623401
 13
0.0
 23
22.745119329891601
 33
27.691530584623401
  0
3DFACE
  5
A9
  8
ESTRUTURA
 10
0.0
 20
29.291259329891599
 30
27.691530584623401
 11
50.000004131860003
 21
29.291259329891599
 31
27.691530584623401
 12
50.000004131860003
 22
29.291259329891599
 32
31.112920584623399
 13
0.0
 23
29.291259329891599
 33
27.691530584623401
  0
3DFACE
  5
AA
  8
ESTRUTURA
 10
0.0
 20
29.291259329891599
 30
27.691530584623401
 11
50.000004131860003
 21
29.291259329891599
 31
31.112920584623399
 12
0.0
 22
29.291259329891599
 32
31.112920584623399
 13
0.0
 23
29.291259329891599
 33
27.691530584623401
  0
3DFACE
  5
AB
  8
ESTRUTURA
 10
0.0
 20
27.359619329891601
 30
31.112920584623399
 11
50.000004131860003
 21
27.359619329891601
 31
31.112920584623399
 12
50.000004131860003
 22
29.291259329891599
 32
31.112920584623399
 13
0.0
 23
27.359619329891601
 33
31.112920584623399
  0
3DFACE
  5
AC
  8
ESTRUTURA
 10
0.0
 20
27.359619329891601
 30
31.112920584623399
 11
50.000004131860003
 21
29.291259329891599
 31
31.112920584623399
 12
0.0
 22
29.291259329891599
 32
31.112920584623399
 13
0.0
 23
27.359619329891601
 33
31.112920584623399
  0
3DFACE
  5
AD
  8
ESTRUTURA
 10
0.0
 20
27.359619329891601
 30
31.112920584623399
 11
0.0
 21
27.359619329891601
 31
29.259640584623401
 12
50.000004131860003
 22
27.359619329891601
 32
29.259640584623401
 13
0.0
 23
27.359619329891601
 33
31.112920584623399
  0
3DFACE
  5
AE
  8
ESTRUTURA
 10
0.0
 20
27.359619329891601
 30
31.112920584623399
 11
50.000004131860003
 21
27.359619329891601
 31
29.259640584623401
 12
50.000004131860003
 22
27.359619329891601
 32
31.112920584623399
 13
0.0
 23
27.359619329891601
 33
31.112920584623399
  0
3DFACE
  5
AF
  8
ESTRUTURA
 10
0.0
 20
27.359619329891601
 30
29.259640584623401
 11
0.0
 21
24.423099329891599
 31
29.259640584623401
 12
50.000004131860003
 22
24.423099329891599
 32
29.259640584623401
 13
0.0
 23
27.359619329891601
 33
29.259640584623401
  0
3DFACE
  5
B0
  8
ESTRUTURA
 10
0.0
 20
27.359619329891601
 30
29.259640584623401
 11
50.000004131860003
 21
24.423099329891599
 31
29.259640584623401
 12
50.000004131860003
 22
27.359619329891601
 32
29.259640584623401
 13
0.0
 23
27.359619329891601
 33
29.259640584623401
  0
3DFACE
  5
B1
  8
ESTRUTURA
 10
0.0
 20
24.423099329891599
 30
29.259640584623401
 11
50.000004131860003
 21
24.423099329891599
 31
29.259640584623401
 12
50.000004131860003
 22
24.423099329891599
 32
31.112920584623399
 13
0.0
 23
24.423099329891599
 33
29.259640584623401
  0
3DFACE
  5
B2
  8
ESTRUTURA
 10
0.0
 20
24.423099329891599
 30
29.259640584623401
 11
50.000004131860003
 21
24.423099329891599
 31
31.112920584623399
 12
0.0
 22
24.423099329891599
 32
31.112920584623399
 13
0.0
 23
24.423099329891599
 33
29.259640584623401
  0
3DFACE
  5
B3
  8
ESTRUTURA
 10
0.0
 20
24.423099329891599
 30
31.112920584623399
 11
0.0
 21
22.745119329891601
 31
31.112920584623399
 12
50.000004131860003
 22
22.745119329891601
 32
31.112920584623399
 13
0.0
 23
24.423099329891599
 33
31.112920584623399
  0
3DFACE
  5
B4
  8
ESTRUTURA
 10
0.0
 20
24.423099329891599
 30
31.112920584623399
 11
50.000004131860003
 21
22.745119329891601
 31
31.112920584623399
 12
50.000004131860003
 22
24.423099329891599
 32
31.112920584623399
 13
0.0
 23
24.423099329891599
 33
31.112920584623399
  0
3DFACE
  5
B5
  8
ESTRUTURA
 10
0.0
 20
22.745119329891601
 30
31.112920584623399
 11
50.000004131860003
 21
22.745119329891601
 31
31.112920584623399
 12
50.000004131860003
 22
22.745119329891601
 32
34.622070584623401
 13
0.0
 23
22.745119329891601
 33
31.112920584623399
  0
3DFACE
  5
B6
  8
ESTRUTURA
 10
0.0
 20
22.745119329891601
 30
31.112920584623399
 11
50.000004131860003
 21
22.745119329891601
 31
34.622070584623401
 12
0.0
 22
22.745119329891601
 32
34.622070584623401
 13
0.0
 23
22.745119329891601
 33
31.112920584623399
  0
3DFACE
  5
B7
  8
ESTRUTURA
 10
0.0
 20
22.745119329891601
 30
34.622070584623401
 11
50.000004131860003
 21
22.745119329891601
 31
34.622070584623401
 12
50.000004131860003
 22
24.423099329891599
 32
34.622070584623401
 13
0.0
 23
22.745119329891601
 33
34.622070584623401
  0
3DFACE
  5
B8
  8
ESTRUTURA
 10
0.0
 20
22.745119329891601
 30
34.622070584623401
 11
50.000004131860003
 21
24.423099329891599
 31
34.622070584623401
 12
0.0
 22
24.423099329891599
 32
34.622070584623401
 13
0.0
 23
22.745119329891601
 33
34.622070584623401
  0
3DFACE
  5
B9
  8
ESTRUTURA
 10
0.0
 20
24.423099329891599
 30
34.622070584623401
 11
50.000004131860003
 21
24.423099329891599
 31
34.622070584623401
 12
50.000004131860003
 22
24.423099329891599
 32
36.036250584623403
 13
0.0
 23
24.423099329891599
 33
34.622070584623401
  0
3DFACE
  5
BA
  8
ESTRUTURA
 10
0.0
 20
24.423099329891599
 30
34.622070584623401
 11
50.000004131860003
 21
24.423099329891599
 31
36.036250584623403
 12
0.0
 22
24.423099329891599
 32
36.036250584623403
 13
0.0
 23
24.423099329891599
 33
34.622070584623401
  0
3DFACE
  5
BB
  8
ESTRUTURA
 10
0.0
 20
24.423099329891599
 30
36.036250584623403
 11
50.000004131860003
 21
24.423099329891599
 31
36.036250584623403
 12
50.000004131860003
 22
27.359619329891601
 32
36.036250584623403
 13
0.0
 23
24.423099329891599
 33
36.036250584623403
  0
3DFACE
  5
BC
  8
ESTRUTURA
 10
0.0
 20
24.423099329891599
 30
36.036250584623403
 11
50.000004131860003
 21
27.359619329891601
 31
36.036250584623403
 12
0.0
 22
27.359619329891601
 32
36.036250584623403
 13
0.0
 23
24.423099329891599
 33
36.036250584623403
  0
3DFACE
  5
BD
  8
ESTRUTURA
 10
0.0
 20
27.359619329891601
 30
36.036250584623403
 11
50.000004131860003
 21
27.359619329891601
 31
36.036250584623403
 12
50.000004131860003
 22
27.359619329891601
 32
34.622070584623401
 13
0.0
 23
27.359619329891601
 33
36.036250584623403
  0
3DFACE
  5
BE
  8
ESTRUTURA
 10
0.0
 20
27.359619329891601
 30
36.036250584623403
 11
50.000004131860003
 21
27.359619329891601
 31
34.622070584623401
 12
0.0
 22
27.359619329891601
 32
34.622070584623401
 13
0.0
 23
27.359619329891601
 33
36.036250584623403
  0
3DFACE
  5
BF
  8
ESTRUTURA
 10
0.0
 20
27.359619329891601
 30
34.622070584623401
 11
50.000004131860003
 21
27.359619329891601
 31
34.622070584623401
 12
50.000004131860003
 22
29.291259329891599
 32
34.622070584623401
 13
0.0
 23
27.359619329891601
 33
34.622070584623401
  0
3DFACE
  5
C0
  8
ESTRUTURA
 10
0.0
 20
27.359619329891601
 30
34.622070584623401
 11
50.000004131860003
 21
29.291259329891599
 31
34.622070584623401
 12
0.0
 22
29.291259329891599
 32
34.622070584623401
 13
0.0
 23
27.359619329891601
 33
34.622070584623401
  0
3DFACE
  5
C1
  8
ESTRUTURA
 10
0.0
 20
29.291259329891599
 30
34.622070584623401
 11
50.000004131860003
 21
29.291259329891599
 31
34.622070584623401
 12
50.000004131860003
 22
29.291259329891599
 32
37.555170584623397
 13
0.0
 23
29.291259329891599
 33
34.622070584623401
  0
3DFACE
  5
C2
  8
ESTRUTURA
 10
0.0
 20
29.291259329891599
 30
34.622070584623401
 11
50.000004131860003
 21
29.291259329891599
 31
37.555170584623397
 12
0.0
 22
29.291259329891599
 32
37.555170584623397
 13
0.0
 23
29.291259329891599
 33
34.622070584623401
  0
3DFACE
  5
C3
  8
ESTRUTURA
 10
0.0
 20
29.291259329891599
 30
37.555170584623397
 11
0.0
 21
22.745119329891601
 31
37.555170584623397
 12
50.000004131860003
 22
22.745119329891601
 32
37.555170584623397
 13
0.0
 23
29.291259329891599
 33
37.555170584623397
  0
3DFACE
  5
C4
  8
ESTRUTURA
 10
0.0
 20
29.291259329891599
 30
37.555170584623397
 11
50.000004131860003
 21
22.745119329891601
 31
37.555170584623397
 12
50.000004131860003
 22
29.291259329891599
 32
37.555170584623397
 13
0.0
 23
29.291259329891599
 33
37.555170584623397
  0
3DFACE
  5
C5
  8
ESTRUTURA
 10
0.0
 20
22.745119329891601
 30
37.555170584623397
 11
50.000004131860003
 21
22.745119329891601
 31
37.555170584623397
 12
50.000004131860003
 22
22.745119329891601
 32
39.388300584623401
 13
0.0
 23
22.745119329891601
 33
37.555170584623397
  0
3DFACE
  5
C6
  8
ESTRUTURA
 10
0.0
 20
22.745119329891601
 30
37.555170584623397
 11
50.000004131860003
 21
22.745119329891601
 31
39.388300584623401
 12
0.0
 22
22.745119329891601
 32
39.388300584623401
 13
0.0
 23
22.745119329891601
 33
37.555170584623397
  0
3DFACE
  5
C7
  8
ESTRUTURA
 10
0.0
 20
22.745119329891601
 30
39.388300584623401
 11
50.000004131860003
 21
22.745119329891601
 31
39.388300584623401
 12
50.000004131860003
 22
24.514399329891599
 32
39.388300584623401
 13
0.0
 23
22.745119329891601
 33
39.388300584623401
  0
3DFACE
  5
C8
  8
ESTRUTURA
 10
0.0
 20
22.745119329891601
 30
39.388300584623401
 11
50.000004131860003
 21
24.514399329891599
 31
39.388300584623401
 12
0.0
 22
24.514399329891599
 32
39.388300584623401
 13
0.0
 23
22.745119329891601
 33
39.388300584623401
  0
3DFACE
  5
C9
  8
ESTRUTURA
 10
0.0
 20
24.514399329891599
 30
39.388300584623401
 11
50.000004131860003
 21
24.514399329891599
 31
39.388300584623401
 12
50.000004131860003
 22
26.721919329891598
 32
41.802240584623391
 13
0.0
 23
24.514399329891599
 33
39.388300584623401
  0
3DFACE
  5
CA
  8
ESTRUTURA
 10
0.0
 20
24.514399329891599
 30
39.388300584623401
 11
50.000004131860003
 21
26.721919329891598
 31
41.802240584623391
 12
0.0
 22
26.721919329891598
 32
41.802240584623391
 13
0.0
 23
24.514399329891599
 33
39.388300584623401
  0
3DFACE
  5
CB
  8
ESTRUTURA
 10
0.0
 20
26.721919329891598
 30
41.802240584623391
 11
50.000004131860003
 21
26.721919329891598
 31
41.802240584623391
 12
50.000004131860003
 22
26.721919329891598
 32
43.346920584623398
 13
0.0
 23
26.721919329891598
 33
41.802240584623391
  0
3DFACE
  5
CC
  8
ESTRUTURA
 10
0.0
 20
26.721919329891598
 30
41.802240584623391
 11
50.000004131860003
 21
26.721919329891598
 31
43.346920584623398
 12
0.0
 22
26.721919329891598
 32
43.346920584623398
 13
0.0
 23
26.721919329891598
 33
41.802240584623391
  0
3DFACE
  5
CD
  8
ESTRUTURA
 10
0.0
 20
26.721919329891598
 30
43.346920584623398
 11
50.000004131860003
 21
26.721919329891598
 31
43.346920584623398
 12
50.000004131860003
 22
29.291259329891599
 32
43.346920584623398
 13
0.0
 23
26.721919329891598
 33
43.346920584623398
  0
3DFACE
  5
CE
  8
ESTRUTURA
 10
0.0
 20
26.721919329891598
 30
43.346920584623398
 11
50.000004131860003
 21
29.291259329891599
 31
43.346920584623398
 12
0.0
 22
29.291259329891599
 32
43.346920584623398
 13
0.0
 23
26.721919329891598
 33
43.346920584623398
  0
3DFACE
  5
CF
  8
ESTRUTURA
 10
0.0
 20
29.291259329891599
 30
43.346920584623398
 11
50.000004131860003
 21
29.291259329891599
 31
43.346920584623398
 12
50.000004131860003
 22
29.291259329891599
 32
44.465450584623397
 13
0.0
 23
29.291259329891599
 33
43.346920584623398
  0
3DFACE
  5
D0
  8
ESTRUTURA
 10
0.0
 20
29.291259329891599
 30
43.346920584623398
 11
50.000004131860003
 21
29.291259329891599
 31
44.465450584623397
 12
0.0
 22
29.291259329891599
 32
44.465450584623397
 13
0.0
 23
29.291259329891599
 33
43.346920584623398
  0
3DFACE
  5
D1
  8
ESTRUTURA
 10
0.0
 20
29.291259329891599
 30
44.465450584623397
 11
0.0
 21
21.234009329891599
 31
44.465450584623397
 12
50.000004131860003
 22
21.234009329891599
 32
44.465450584623397
 13
0.0
 23
29.291259329891599
 33
44.465450584623397
  0
3DFACE
  5
D2
  8
ESTRUTURA
 10
0.0
 20
29.291259329891599
 30
44.465450584623397
 11
50.000004131860003
 21
21.234009329891599
 31
44.465450584623397
 12
50.000004131860003
 22
29.291259329891599
 32
44.465450584623397
 13
0.0
 23
29.291259329891599
 33
44.465450584623397
  0
3DFACE
  5
D3
  8
ESTRUTURA
 10
50.000004131860003
 20
21.234009329891599
 30
44.465450584623397
 11
0.0
 21
21.234009329891599
 31
44.465450584623397
 12
0.0
 22
21.234009329891599
 32
15.000730584623399
 13
50.000004131860003
 23
21.234009329891599
 33
44.465450584623397
  0
3DFACE
  5
D4
  8
ESTRUTURA
 10
50.000004131860003
 20
21.234009329891599
 30
44.465450584623397
 11
0.0
 21
21.234009329891599
 31
15.000730584623399
 12
50.000004131860003
 22
21.234009329891599
 32
15.000730584623399
 13
50.000004131860003
 23
21.234009329891599
 33
44.465450584623397
  0
3DFACE
  5
D5
  8
ESTRUTURA
 10
0.0
 20
9.9523933298915992
 30
3.4102785846233989
 11
50.000004131860003
 21
9.9523933298915992
 31
3.4102785846233989
 12
50.000004131860003
 22
5.612670329891599
 32
3.4102785846233989
 13
0.0
 23
9.9523933298915992
 33
3.4102785846233989
  0
3DFACE
  5
D6
  8
ESTRUTURA
 10
0.0
 20
9.9523933298915992
 30
3.4102785846233989
 11
50.000004131860003
 21
5.612670329891599
 31
3.4102785846233989
 12
0.0
 22
5.612670329891599
 32
3.4102785846233989
 13
0.0
 23
9.9523933298915992
 33
3.4102785846233989
  0
3DFACE
  5
D7
  8
ESTRUTURA
 10
0.0
 20
5.612670329891599
 30
3.4102785846233989
 11
50.000004131860003
 21
5.612670329891599
 31
3.4102785846233989
 12
50.000004131860003
 22
5.612670329891599
 32
-0.0000000000000001
 13
0.0
 23
5.612670329891599
 33
3.4102785846233989
  0
3DFACE
  5
D8
  8
ESTRUTURA
 10
0.0
 20
5.612670329891599
 30
3.4102785846233989
 11
50.000004131860003
 21
5.612670329891599
 31
-0.0000000000000001
 12
0.0
 22
5.612670329891599
 32
-0.0000000000000001
 13
0.0
 23
5.612670329891599
 33
3.4102785846233989
  0
3DFACE
  5
D9
  8
ESTRUTURA
 10
50.000004131860003
 20
5.612670329891599
 30
-0.0000000000000001
 11
0.0
 21
5.612670329891599
 31
-0.0000000000000001
 12
0.0
 22
0.0
 32
-0.0000000000000001
 13
50.000004131860003
 23
5.612670329891599
 33
-0.0000000000000001
  0
3DFACE
  5
DA
  8
ESTRUTURA
 10
50.000004131860003
 20
5.612670329891599
 30
-0.0000000000000001
 11
0.0
 21
0.0
 31
-0.0000000000000001
 12
50.000004131860003
 22
0.0
 32
-0.0000000000000001
 13
50.000004131860003
 23
5.612670329891599
 33
-0.0000000000000001
  0
3DFACE
  5
DB
  8
ESTRUTURA
 10
0.0
 20
0.0
 30
-0.0000000000000001
 11
50.000004131860003
 21
0.0
 31
-0.0000000000000001
 12
50.000004131860003
 22
0.0
 32
-1.0782474153766
 13
0.0
 23
0.0
 33
-0.0000000000000001
  0
3DFACE
  5
DC
  8
ESTRUTURA
 10
0.0
 20
0.0
 30
-0.0000000000000001
 11
50.000004131860003
 21
0.0
 31
-1.0782474153766
 12
0.0
 22
0.0
 32
-1.0782474153766
 13
0.0
 23
0.0
 33
-0.0000000000000001
  0
3DFACE
  5
DD
  8
ESTRUTURA
 10
50.000004131860003
 20
0.0
 30
-1.0782474153766
 11
0.0
 21
0.0
 31
-1.0782474153766
 12
0.0
 22
-0.7087402701084001
 32
-1.0782474153766
 13
50.000004131860003
 23
0.0
 33
-1.0782474153766
  0
3DFACE
  5
DE
  8
ESTRUTURA
 10
50.000004131860003
 20
0.0
 30
-1.0782474153766
 11
0.0
 21
-0.7087402701084001
 31
-1.0782474153766
 12
50.000004131860003
 22
-0.7087402701084001
 32
-1.0782474153766
 13
50.000004131860003
 23
0.0
 33
-1.0782474153766
  0
3DFACE
  5
DF
  8
ESTRUTURA
 10
0.0
 20
-0.7087402701084001
 30
-1.0782474153766
 11
50.000004131860003
 21
-0.7087402701084001
 31
-1.0782474153766
 12
50.000004131860003
 22
-0.7087402701084001
 32
1.436035584623399
 13
0.0
 23
-0.7087402701084001
 33
-1.0782474153766
  0
3DFACE
  5
E0
  8
ESTRUTURA
 10
0.0
 20
-0.7087402701084001
 30
-1.0782474153766
 11
50.000004131860003
 21
-0.7087402701084001
 31
1.436035584623399
 12
0.0
 22
-0.7087402701084001
 32
1.436035584623399
 13
0.0
 23
-0.7087402701084001
 33
-1.0782474153766
  0
3DFACE
  5
E1
  8
ESTRUTURA
 10
50.000004131860003
 20
-0.7087402701084001
 30
1.436035584623399
 11
0.0
 21
-0.7087402701084001
 31
1.436035584623399
 12
0.0
 22
4.0942383298916001
 32
1.436035584623399
 13
50.000004131860003
 23
-0.7087402701084001
 33
1.436035584623399
  0
3DFACE
  5
E2
  8
ESTRUTURA
 10
50.000004131860003
 20
-0.7087402701084001
 30
1.436035584623399
 11
0.0
 21
4.0942383298916001
 31
1.436035584623399
 12
50.000004131860003
 22
4.0942383298916001
 32
1.436035584623399
 13
50.000004131860003
 23
-0.7087402701084001
 33
1.436035584623399
  0
3DFACE
  5
E3
  8
ESTRUTURA
 10
0.0
 20
4.0942383298916001
 30
1.436035584623399
 11
50.000004131860003
 21
4.0942383298916001
 31
1.436035584623399
 12
50.000004131860003
 22
4.0942383298916001
 32
3.371826584623399
 13
0.0
 23
4.0942383298916001
 33
1.436035584623399
  0
3DFACE
  5
E4
  8
ESTRUTURA
 10
0.0
 20
4.0942383298916001
 30
1.436035584623399
 11
50.000004131860003
 21
4.0942383298916001
 31
3.371826584623399
 12
0.0
 22
4.0942383298916001
 32
3.371826584623399
 13
0.0
 23
4.0942383298916001
 33
1.436035584623399
  0
3DFACE
  5
E5
  8
ESTRUTURA
 10
0.0
 20
4.0942383298916001
 30
3.371826584623399
 11
50.000004131860003
 21
4.0942383298916001
 31
3.371826584623399
 12
50.000004131860003
 22
-0.7087402701084001
 32
3.371826584623399
 13
0.0
 23
4.0942383298916001
 33
3.371826584623399
  0
3DFACE
  5
E6
  8
ESTRUTURA
 10
0.0
 20
4.0942383298916001
 30
3.371826584623399
 11
50.000004131860003
 21
-0.7087402701084001
 31
3.371826584623399
 12
0.0
 22
-0.7087402701084001
 32
3.371826584623399
 13
0.0
 23
4.0942383298916001
 33
3.371826584623399
  0
3DFACE
  5
E7
  8
ESTRUTURA
 10
0.0
 20
-0.7087402701084001
 30
3.371826584623399
 11
50.000004131860003
 21
-0.7087402701084001
 31
3.371826584623399
 12
50.000004131860003
 22
-0.7087402701084001
 32
4.8725585846234001
 13
0.0
 23
-0.7087402701084001
 33
3.371826584623399
  0
3DFACE
  5
E8
  8
ESTRUTURA
 10
0.0
 20
-0.7087402701084001
 30
3.371826584623399
 11
50.000004131860003
 21
-0.7087402701084001
 31
4.8725585846234001
 12
0.0
 22
-0.7087402701084001
 32
4.8725585846234001
 13
0.0
 23
-0.7087402701084001
 33
3.371826584623399
  0
3DFACE
  5
E9
  8
ESTRUTURA
 10
0.0
 20
-0.7087402701084001
 30
4.8725585846234001
 11
50.000004131860003
 21
-0.7087402701084001
 31
4.8725585846234001
 12
50.000004131860003
 22
10.583009329891601
 32
4.8725585846234001
 13
0.0
 23
-0.7087402701084001
 33
4.8725585846234001
  0
3DFACE
  5
EA
  8
ESTRUTURA
 10
0.0
 20
-0.7087402701084001
 30
4.8725585846234001
 11
50.000004131860003
 21
10.583009329891601
 31
4.8725585846234001
 12
0.0
 22
10.583009329891601
 32
4.8725585846234001
 13
0.0
 23
-0.7087402701084001
 33
4.8725585846234001
  0
3DFACE
  5
EB
  8
ESTRUTURA
 10
0.0
 20
9.9523933298915992
 30
3.4102785846233989
 11
50.000004131860003
 21
9.9523933298915992
 31
3.4102785846233989
 12
50.000004131860003
 22
10.4704593298916
 32
3.427368584623399
 13
0.0
 23
9.9523933298915992
 33
3.4102785846233989
  0
3DFACE
  5
EC
  8
ESTRUTURA
 10
0.0
 20
9.9523933298915992
 30
3.4102785846233989
 11
50.000004131860003
 21
10.4704593298916
 31
3.427368584623399
 12
0.0
 22
10.4704593298916
 32
3.427368584623399
 13
0.0
 23
9.9523933298915992
 33
3.4102785846233989
  0
3DFACE
  5
ED
  8
ESTRUTURA
 10
50.000004131860003
 20
10.4704593298916
 30
3.427368584623399
 11
0.0
 21
10.4704593298916
 31
3.427368584623399
 12
0.0
 22
11.4514193298916
 32
3.5169675846234001
 13
50.000004131860003
 23
10.4704593298916
 33
3.427368584623399
  0
3DFACE
  5
EE
  8
ESTRUTURA
 10
50.000004131860003
 20
10.4704593298916
 30
3.427368584623399
 11
0.0
 21
11.4514193298916
 31
3.5169675846234001
 12
50.000004131860003
 22
11.4514193298916
 32
3.5169675846234001
 13
50.000004131860003
 23
10.4704593298916
 33
3.427368584623399
  0
3DFACE
  5
EF
  8
ESTRUTURA
 10
0.0
 20
11.4514193298916
 30
3.5169675846234001
 11
50.000004131860003
 21
11.4514193298916
 31
3.5169675846234001
 12
50.000004131860003
 22
12.1021693298916
 32
3.6182865846233989
 13
0.0
 23
11.4514193298916
 33
3.5169675846234001
  0
3DFACE
  5
F0
  8
ESTRUTURA
 10
0.0
 20
11.4514193298916
 30
3.5169675846234001
 11
50.000004131860003
 21
12.1021693298916
 31
3.6182865846233989
 12
0.0
 22
12.1021693298916
 32
3.6182865846233989
 13
0.0
 23
11.4514193298916
 33
3.5169675846234001
  0
3DFACE
  5
F1
  8
ESTRUTURA
 10
50.000004131860003
 20
12.1021693298916
 30
3.6182865846233989
 11
0.0
 21
12.1021693298916
 31
3.6182865846233989
 12
0.0
 22
12.733769329891601
 32
3.7493895846233989
 13
50.000004131860003
 23
12.1021693298916
 33
3.6182865846233989
  0
3DFACE
  5
F2
  8
ESTRUTURA
 10
50.000004131860003
 20
12.1021693298916
 30
3.6182865846233989
 11
0.0
 21
12.733769329891601
 31
3.7493895846233989
 12
50.000004131860003
 22
12.733769329891601
 32
3.7493895846233989
 13
50.000004131860003
 23
12.1021693298916
 33
3.6182865846233989
  0
3DFACE
  5
F3
  8
ESTRUTURA
 10
0.0
 20
12.733769329891601
 30
3.7493895846233989
 11
50.000004131860003
 21
12.733769329891601
 31
3.7493895846233989
 12
50.000004131860003
 22
13.296269329891601
 32
3.8941655846233991
 13
0.0
 23
12.733769329891601
 33
3.7493895846233989
  0
3DFACE
  5
F4
  8
ESTRUTURA
 10
0.0
 20
12.733769329891601
 30
3.7493895846233989
 11
50.000004131860003
 21
13.296269329891601
 31
3.8941655846233991
 12
0.0
 22
13.296269329891601
 32
3.8941655846233991
 13
0.0
 23
12.733769329891601
 33
3.7493895846233989
  0
3DFACE
  5
F5
  8
ESTRUTURA
 10
50.000004131860003
 20
13.296269329891601
 30
3.8941655846233991
 11
0.0
 21
13.296269329891601
 31
3.8941655846233991
 12
0.0
 22
13.929439329891601
 32
4.0899655846233989
 13
50.000004131860003
 23
13.296269329891601
 33
3.8941655846233991
  0
3DFACE
  5
F6
  8
ESTRUTURA
 10
50.000004131860003
 20
13.296269329891601
 30
3.8941655846233991
 11
0.0
 21
13.929439329891601
 31
4.0899655846233989
 12
50.000004131860003
 22
13.929439329891601
 32
4.0899655846233989
 13
50.000004131860003
 23
13.296269329891601
 33
3.8941655846233991
  0
3DFACE
  5
F7
  8
ESTRUTURA
 10
0.0
 20
13.929439329891601
 30
4.0899655846233989
 11
50.000004131860003
 21
13.929439329891601
 31
4.0899655846233989
 12
50.000004131860003
 22
14.449459329891599
 32
4.2778325846234004
 13
0.0
 23
13.929439329891601
 33
4.0899655846233989
  0
3DFACE
  5
F8
  8
ESTRUTURA
 10
0.0
 20
13.929439329891601
 30
4.0899655846233989
 11
50.000004131860003
 21
14.449459329891599
 31
4.2778325846234004
 12
0.0
 22
14.449459329891599
 32
4.2778325846234004
 13
0.0
 23
13.929439329891601
 33
4.0899655846233989
  0
3DFACE
  5
F9
  8
ESTRUTURA
 10
50.000004131860003
 20
14.449459329891599
 30
4.2778325846234004
 11
0.0
 21
14.449459329891599
 31
4.2778325846234004
 12
0.0
 22
15.185299329891601
 32
4.5878905846234002
 13
50.000004131860003
 23
14.449459329891599
 33
4.2778325846234004
  0
3DFACE
  5
FA
  8
ESTRUTURA
 10
50.000004131860003
 20
14.449459329891599
 30
4.2778325846234004
 11
0.0
 21
15.185299329891601
 31
4.5878905846234002
 12
50.000004131860003
 22
15.185299329891601
 32
4.5878905846234002
 13
50.000004131860003
 23
14.449459329891599
 33
4.2778325846234004
  0
3DFACE
  5
FB
  8
ESTRUTURA
 10
0.0
 20
15.185299329891601
 30
4.5878905846234002
 11
50.000004131860003
 21
15.185299329891601
 31
4.5878905846234002
 12
50.000004131860003
 22
15.705569329891601
 32
4.8404545846233988
 13
0.0
 23
15.185299329891601
 33
4.5878905846234002
  0
3DFACE
  5
FC
  8
ESTRUTURA
 10
0.0
 20
15.185299329891601
 30
4.5878905846234002
 11
50.000004131860003
 21
15.705569329891601
 31
4.8404545846233988
 12
0.0
 22
15.705569329891601
 32
4.8404545846233988
 13
0.0
 23
15.185299329891601
 33
4.5878905846234002
  0
3DFACE
  5
FD
  8
ESTRUTURA
 10
50.000004131860003
 20
15.705569329891601
 30
4.8404545846233988
 11
0.0
 21
15.705569329891601
 31
4.8404545846233988
 12
0.0
 22
16.2841793298916
 32
5.1563725846233988
 13
50.000004131860003
 23
15.705569329891601
 33
4.8404545846233988
  0
3DFACE
  5
FE
  8
ESTRUTURA
 10
50.000004131860003
 20
15.705569329891601
 30
4.8404545846233988
 11
0.0
 21
16.2841793298916
 31
5.1563725846233988
 12
50.000004131860003
 22
16.2841793298916
 32
5.1563725846233988
 13
50.000004131860003
 23
15.705569329891601
 33
4.8404545846233988
  0
3DFACE
  5
FF
  8
ESTRUTURA
 10
0.0
 20
16.2841793298916
 30
5.1563725846233988
 11
50.000004131860003
 21
16.2841793298916
 31
5.1563725846233988
 12
50.000004131860003
 22
16.676879329891602
 32
5.3931885846233998
 13
0.0
 23
16.2841793298916
 33
5.1563725846233988
  0
3DFACE
  5
100
  8
ESTRUTURA
 10
0.0
 20
16.2841793298916
 30
5.1563725846233988
 11
50.000004131860003
 21
16.676879329891602
 31
5.3931885846233998
 12
0.0
 22
16.676879329891602
 32
5.3931885846233998
 13
0.0
 23
16.2841793298916
 33
5.1563725846233988
  0
3DFACE
  5
101
  8
ESTRUTURA
 10
50.000004131860003
 20
16.676879329891602
 30
5.3931885846233998
 11
0.0
 21
16.676879329891602
 31
5.3931885846233998
 12
0.0
 22
17.065919329891599
 32
5.6470945846233986
 13
50.000004131860003
 23
16.676879329891602
 33
5.3931885846233998
  0
3DFACE
  5
102
  8
ESTRUTURA
 10
50.000004131860003
 20
16.676879329891602
 30
5.3931885846233998
 11
0.0
 21
17.065919329891599
 31
5.6470945846233986
 12
50.000004131860003
 22
17.065919329891599
 32
5.6470945846233986
 13
50.000004131860003
 23
16.676879329891602
 33
5.3931885846233998
  0
3DFACE
  5
103
  8
ESTRUTURA
 10
0.0
 20
17.065919329891599
 30
5.6470945846233986
 11
50.000004131860003
 21
17.065919329891599
 31
5.6470945846233986
 12
50.000004131860003
 22
17.505249329891601
 32
5.9587405846233992
 13
0.0
 23
17.065919329891599
 33
5.6470945846233986
  0
3DFACE
  5
104
  8
ESTRUTURA
 10
0.0
 20
17.065919329891599
 30
5.6470945846233986
 11
50.000004131860003
 21
17.505249329891601
 31
5.9587405846233992
 12
0.0
 22
17.505249329891601
 32
5.9587405846233992
 13
0.0
 23
17.065919329891599
 33
5.6470945846233986
  0
3DFACE
  5
105
  8
ESTRUTURA
 10
0.0
 20
10.583009329891601
 30
4.8725585846234001
 11
50.000004131860003
 21
10.583009329891601
 31
4.8725585846234001
 12
50.000004131860003
 22
11.0317393298916
 32
4.941894584623399
 13
0.0
 23
10.583009329891601
 33
4.8725585846234001
  0
3DFACE
  5
106
  8
ESTRUTURA
 10
0.0
 20
10.583009329891601
 30
4.8725585846234001
 11
50.000004131860003
 21
11.0317393298916
 31
4.941894584623399
 12
0.0
 22
11.0317393298916
 32
4.941894584623399
 13
0.0
 23
10.583009329891601
 33
4.8725585846234001
  0
3DFACE
  5
107
  8
ESTRUTURA
 10
50.000004131860003
 20
11.0317393298916
 30
4.941894584623399
 11
0.0
 21
11.0317393298916
 31
4.941894584623399
 12
0.0
 22
11.4444593298916
 32
5.0205075846233997
 13
50.000004131860003
 23
11.0317393298916
 33
4.941894584623399
  0
3DFACE
  5
108
  8
ESTRUTURA
 10
50.000004131860003
 20
11.0317393298916
 30
4.941894584623399
 11
0.0
 21
11.4444593298916
 31
5.0205075846233997
 12
50.000004131860003
 22
11.4444593298916
 32
5.0205075846233997
 13
50.000004131860003
 23
11.0317393298916
 33
4.941894584623399
  0
3DFACE
  5
109
  8
ESTRUTURA
 10
0.0
 20
11.4444593298916
 30
5.0205075846233997
 11
50.000004131860003
 21
11.4444593298916
 31
5.0205075846233997
 12
50.000004131860003
 22
11.8789093298916
 32
5.1188965846233989
 13
0.0
 23
11.4444593298916
 33
5.0205075846233997
  0
3DFACE
  5
10A
  8
ESTRUTURA
 10
0.0
 20
11.4444593298916
 30
5.0205075846233997
 11
50.000004131860003
 21
11.8789093298916
 31
5.1188965846233989
 12
0.0
 22
11.8789093298916
 32
5.1188965846233989
 13
0.0
 23
11.4444593298916
 33
5.0205075846233997
  0
3DFACE
  5
10B
  8
ESTRUTURA
 10
50.000004131860003
 20
11.8789093298916
 30
5.1188965846233989
 11
0.0
 21
11.8789093298916
 31
5.1188965846233989
 12
0.0
 22
12.345339329891599
 32
5.2426755846233997
 13
50.000004131860003
 23
11.8789093298916
 33
5.1188965846233989
  0
3DFACE
  5
10C
  8
ESTRUTURA
 10
50.000004131860003
 20
11.8789093298916
 30
5.1188965846233989
 11
0.0
 21
12.345339329891599
 31
5.2426755846233997
 12
50.000004131860003
 22
12.345339329891599
 32
5.2426755846233997
 13
50.000004131860003
 23
11.8789093298916
 33
5.1188965846233989
  0
3DFACE
  5
10D
  8
ESTRUTURA
 10
0.0
 20
12.345339329891599
 30
5.2426755846233997
 11
50.000004131860003
 21
12.345339329891599
 31
5.2426755846233997
 12
50.000004131860003
 22
12.7519493298916
 32
5.366577584623399
 13
0.0
 23
12.345339329891599
 33
5.2426755846233997
  0
3DFACE
  5
10E
  8
ESTRUTURA
 10
0.0
 20
12.345339329891599
 30
5.2426755846233997
 11
50.000004131860003
 21
12.7519493298916
 31
5.366577584623399
 12
0.0
 22
12.7519493298916
 32
5.366577584623399
 13
0.0
 23
12.345339329891599
 33
5.2426755846233997
  0
3DFACE
  5
10F
  8
ESTRUTURA
 10
50.000004131860003
 20
12.7519493298916
 30
5.366577584623399
 11
0.0
 21
12.7519493298916
 31
5.366577584623399
 12
0.0
 22
13.1701693298916
 32
5.5100095846233996
 13
50.000004131860003
 23
12.7519493298916
 33
5.366577584623399
  0
3DFACE
  5
110
  8
ESTRUTURA
 10
50.000004131860003
 20
12.7519493298916
 30
5.366577584623399
 11
0.0
 21
13.1701693298916
 31
5.5100095846233996
 12
50.000004131860003
 22
13.1701693298916
 32
5.5100095846233996
 13
50.000004131860003
 23
12.7519493298916
 33
5.366577584623399
  0
3DFACE
  5
111
  8
ESTRUTURA
 10
0.0
 20
13.1701693298916
 30
5.5100095846233996
 11
50.000004131860003
 21
13.1701693298916
 31
5.5100095846233996
 12
50.000004131860003
 22
13.5699493298916
 32
5.6627195846233986
 13
0.0
 23
13.1701693298916
 33
5.5100095846233996
  0
3DFACE
  5
112
  8
ESTRUTURA
 10
0.0
 20
13.1701693298916
 30
5.5100095846233996
 11
50.000004131860003
 21
13.5699493298916
 31
5.6627195846233986
 12
0.0
 22
13.5699493298916
 32
5.6627195846233986
 13
0.0
 23
13.1701693298916
 33
5.5100095846233996
  0
3DFACE
  5
113
  8
ESTRUTURA
 10
50.000004131860003
 20
13.5699493298916
 30
5.6627195846233986
 11
0.0
 21
13.5699493298916
 31
5.6627195846233986
 12
0.0
 22
13.935669329891599
 32
5.816284584623399
 13
50.000004131860003
 23
13.5699493298916
 33
5.6627195846233986
  0
3DFACE
  5
114
  8
ESTRUTURA
 10
50.000004131860003
 20
13.5699493298916
 30
5.6627195846233986
 11
0.0
 21
13.935669329891599
 31
5.816284584623399
 12
50.000004131860003
 22
13.935669329891599
 32
5.816284584623399
 13
50.000004131860003
 23
13.5699493298916
 33
5.6627195846233986
  0
3DFACE
  5
115
  8
ESTRUTURA
 10
0.0
 20
13.935669329891599
 30
5.816284584623399
 11
50.000004131860003
 21
13.935669329891599
 31
5.816284584623399
 12
50.000004131860003
 22
14.2947993298916
 32
5.9807125846233991
 13
0.0
 23
13.935669329891599
 33
5.816284584623399
  0
3DFACE
  5
116
  8
ESTRUTURA
 10
0.0
 20
13.935669329891599
 30
5.816284584623399
 11
50.000004131860003
 21
14.2947993298916
 31
5.9807125846233991
 12
0.0
 22
14.2947993298916
 32
5.9807125846233991
 13
0.0
 23
13.935669329891599
 33
5.816284584623399
  0
3DFACE
  5
117
  8
ESTRUTURA
 10
50.000004131860003
 20
14.2947993298916
 30
5.9807125846233991
 11
0.0
 21
14.2947993298916
 31
5.9807125846233991
 12
0.0
 22
14.676149329891601
 32
6.1705325846234
 13
50.000004131860003
 23
14.2947993298916
 33
5.9807125846233991
  0
3DFACE
  5
118
  8
ESTRUTURA
 10
50.000004131860003
 20
14.2947993298916
 30
5.9807125846233991
 11
0.0
 21
14.676149329891601
 31
6.1705325846234
 12
50.000004131860003
 22
14.676149329891601
 32
6.1705325846234
 13
50.000004131860003
 23
14.2947993298916
 33
5.9807125846233991
  0
3DFACE
  5
119
  8
ESTRUTURA
 10
0.0
 20
14.676149329891601
 30
6.1705325846234
 11
50.000004131860003
 21
14.676149329891601
 31
6.1705325846234
 12
50.000004131860003
 22
15.003659329891599
 32
6.3468015846233987
 13
0.0
 23
14.676149329891601
 33
6.1705325846234
  0
3DFACE
  5
11A
  8
ESTRUTURA
 10
0.0
 20
14.676149329891601
 30
6.1705325846234
 11
50.000004131860003
 21
15.003659329891599
 31
6.3468015846233987
 12
0.0
 22
15.003659329891599
 32
6.3468015846233987
 13
0.0
 23
14.676149329891601
 33
6.1705325846234
  0
3DFACE
  5
11B
  8
ESTRUTURA
 10
50.000004131860003
 20
15.003659329891599
 30
6.3468015846233987
 11
0.0
 21
15.003659329891599
 31
6.3468015846233987
 12
0.0
 22
15.385739329891599
 32
6.568603584623399
 13
50.000004131860003
 23
15.003659329891599
 33
6.3468015846233987
  0
3DFACE
  5
11C
  8
ESTRUTURA
 10
50.000004131860003
 20
15.003659329891599
 30
6.3468015846233987
 11
0.0
 21
15.385739329891599
 31
6.568603584623399
 12
50.000004131860003
 22
15.385739329891599
 32
6.568603584623399
 13
50.000004131860003
 23
15.003659329891599
 33
6.3468015846233987
  0
3DFACE
  5
11D
  8
ESTRUTURA
 10
0.0
 20
15.385739329891599
 30
6.568603584623399
 11
50.000004131860003
 21
15.385739329891599
 31
6.568603584623399
 12
50.000004131860003
 22
15.6793193298916
 32
6.7515865846234
 13
0.0
 23
15.385739329891599
 33
6.568603584623399
  0
3DFACE
  5
11E
  8
ESTRUTURA
 10
0.0
 20
15.385739329891599
 30
6.568603584623399
 11
50.000004131860003
 21
15.6793193298916
 31
6.7515865846234
 12
0.0
 22
15.6793193298916
 32
6.7515865846234
 13
0.0
 23
15.385739329891599
 33
6.568603584623399
  0
3DFACE
  5
11F
  8
ESTRUTURA
 10
50.000004131860003
 20
15.6793193298916
 30
6.7515865846234
 11
0.0
 21
15.6793193298916
 31
6.7515865846234
 12
0.0
 22
16.021359329891599
 32
6.9793705846233989
 13
50.000004131860003
 23
15.6793193298916
 33
6.7515865846234
  0
3DFACE
  5
120
  8
ESTRUTURA
 10
50.000004131860003
 20
15.6793193298916
 30
6.7515865846234
 11
0.0
 21
16.021359329891599
 31
6.9793705846233989
 12
50.000004131860003
 22
16.021359329891599
 32
6.9793705846233989
 13
50.000004131860003
 23
15.6793193298916
 33
6.7515865846234
  0
3DFACE
  5
121
  8
ESTRUTURA
 10
0.0
 20
16.021359329891599
 30
6.9793705846233989
 11
50.000004131860003
 21
16.021359329891599
 31
6.9793705846233989
 12
50.000004131860003
 22
16.471799329891599
 32
7.3050535846233986
 13
0.0
 23
16.021359329891599
 33
6.9793705846233989
  0
3DFACE
  5
122
  8
ESTRUTURA
 10
0.0
 20
16.021359329891599
 30
6.9793705846233989
 11
50.000004131860003
 21
16.471799329891599
 31
7.3050535846233986
 12
0.0
 22
16.471799329891599
 32
7.3050535846233986
 13
0.0
 23
16.021359329891599
 33
6.9793705846233989
  0
3DFACE
  5
123
  8
ESTRUTURA
 10
50.000004131860003
 20
16.471799329891599
 30
7.3050535846233986
 11
0.0
 21
16.471799329891599
 31
7.3050535846233986
 12
0.0
 22
16.874879329891598
 32
7.6235355846233999
 13
50.000004131860003
 23
16.471799329891599
 33
7.3050535846233986
  0
3DFACE
  5
124
  8
ESTRUTURA
 10
50.000004131860003
 20
16.471799329891599
 30
7.3050535846233986
 11
0.0
 21
16.874879329891598
 31
7.6235355846233999
 12
50.000004131860003
 22
16.874879329891598
 32
7.6235355846233999
 13
50.000004131860003
 23
16.471799329891599
 33
7.3050535846233986
  0
3DFACE
  5
125
  8
ESTRUTURA
 10
0.0
 20
16.874879329891598
 30
7.6235355846233999
 11
50.000004131860003
 21
16.874879329891598
 31
7.6235355846233999
 12
50.000004131860003
 22
17.265379329891601
 32
7.9588625846234002
 13
0.0
 23
16.874879329891598
 33
7.6235355846233999
  0
3DFACE
  5
126
  8
ESTRUTURA
 10
0.0
 20
16.874879329891598
 30
7.6235355846233999
 11
50.000004131860003
 21
17.265379329891601
 31
7.9588625846234002
 12
0.0
 22
17.265379329891601
 32
7.9588625846234002
 13
0.0
 23
16.874879329891598
 33
7.6235355846233999
  0
3DFACE
  5
127
  8
ESTRUTURA
 10
50.000004131860003
 20
17.265379329891601
 30
7.9588625846234002
 11
0.0
 21
17.265379329891601
 31
7.9588625846234002
 12
0.0
 22
17.544429329891599
 32
8.2163085846234001
 13
50.000004131860003
 23
17.265379329891601
 33
7.9588625846234002
  0
3DFACE
  5
128
  8
ESTRUTURA
 10
50.000004131860003
 20
17.265379329891601
 30
7.9588625846234002
 11
0.0
 21
17.544429329891599
 31
8.2163085846234001
 12
50.000004131860003
 22
17.544429329891599
 32
8.2163085846234001
 13
50.000004131860003
 23
17.265379329891601
 33
7.9588625846234002
  0
3DFACE
  5
129
  8
ESTRUTURA
 10
0.0
 20
17.544429329891599
 30
8.2163085846234001
 11
50.000004131860003
 21
17.544429329891599
 31
8.2163085846234001
 12
50.000004131860003
 22
17.8726793298916
 32
8.5400385846233995
 13
0.0
 23
17.544429329891599
 33
8.2163085846234001
  0
3DFACE
  5
12A
  8
ESTRUTURA
 10
0.0
 20
17.544429329891599
 30
8.2163085846234001
 11
50.000004131860003
 21
17.8726793298916
 31
8.5400385846233995
 12
0.0
 22
17.8726793298916
 32
8.5400385846233995
 13
0.0
 23
17.544429329891599
 33
8.2163085846234001
  0
3DFACE
  5
12B
  8
ESTRUTURA
 10
50.000004131860003
 20
17.8726793298916
 30
8.5400385846233995
 11
0.0
 21
17.8726793298916
 31
8.5400385846233995
 12
0.0
 22
18.239379329891602
 32
8.9317625846234012
 13
50.000004131860003
 23
17.8726793298916
 33
8.5400385846233995
  0
3DFACE
  5
12C
  8
ESTRUTURA
 10
50.000004131860003
 20
17.8726793298916
 30
8.5400385846233995
 11
0.0
 21
18.239379329891602
 31
8.9317625846234012
 12
50.000004131860003
 22
18.239379329891602
 32
8.9317625846234012
 13
50.000004131860003
 23
17.8726793298916
 33
8.5400385846233995
  0
3DFACE
  5
12D
  8
ESTRUTURA
 10
0.0
 20
18.239379329891602
 30
8.9317625846234012
 11
50.000004131860003
 21
18.239379329891602
 31
8.9317625846234012
 12
50.000004131860003
 22
18.672849329891601
 32
9.4417725846234006
 13
0.0
 23
18.239379329891602
 33
8.9317625846234012
  0
3DFACE
  5
12E
  8
ESTRUTURA
 10
0.0
 20
18.239379329891602
 30
8.9317625846234012
 11
50.000004131860003
 21
18.672849329891601
 31
9.4417725846234006
 12
0.0
 22
18.672849329891601
 32
9.4417725846234006
 13
0.0
 23
18.239379329891602
 33
8.9317625846234012
  0
3DFACE
  5
12F
  8
ESTRUTURA
 10
50.000004131860003
 20
18.672849329891601
 30
9.4417725846234006
 11
0.0
 21
18.672849329891601
 31
9.4417725846234006
 12
0.0
 22
18.928959329891601
 32
9.7708735846234003
 13
50.000004131860003
 23
18.672849329891601
 33
9.4417725846234006
  0
3DFACE
  5
130
  8
ESTRUTURA
 10
50.000004131860003
 20
18.672849329891601
 30
9.4417725846234006
 11
0.0
 21
18.928959329891601
 31
9.7708735846234003
 12
50.000004131860003
 22
18.928959329891601
 32
9.7708735846234003
 13
50.000004131860003
 23
18.672849329891601
 33
9.4417725846234006
  0
3DFACE
  5
131
  8
ESTRUTURA
 10
0.0
 20
18.928959329891601
 30
9.7708735846234003
 11
50.000004131860003
 21
18.928959329891601
 31
9.7708735846234003
 12
50.000004131860003
 22
19.1619893298916
 32
10.0911905846234
 13
0.0
 23
18.928959329891601
 33
9.7708735846234003
  0
3DFACE
  5
132
  8
ESTRUTURA
 10
0.0
 20
18.928959329891601
 30
9.7708735846234003
 11
50.000004131860003
 21
19.1619893298916
 31
10.0911905846234
 12
0.0
 22
19.1619893298916
 32
10.0911905846234
 13
0.0
 23
18.928959329891601
 33
9.7708735846234003
  0
3DFACE
  5
133
  8
ESTRUTURA
 10
50.000004131860003
 20
19.1619893298916
 30
10.0911905846234
 11
0.0
 21
19.1619893298916
 31
10.0911905846234
 12
0.0
 22
19.361449329891599
 32
10.3834205846234
 13
50.000004131860003
 23
19.1619893298916
 33
10.0911905846234
  0
3DFACE
  5
134
  8
ESTRUTURA
 10
50.000004131860003
 20
19.1619893298916
 30
10.0911905846234
 11
0.0
 21
19.361449329891599
 31
10.3834205846234
 12
50.000004131860003
 22
19.361449329891599
 32
10.3834205846234
 13
50.000004131860003
 23
19.1619893298916
 33
10.0911905846234
  0
3DFACE
  5
135
  8
ESTRUTURA
 10
0.0
 20
19.361449329891599
 30
10.3834205846234
 11
50.000004131860003
 21
19.361449329891599
 31
10.3834205846234
 12
50.000004131860003
 22
19.626459329891599
 32
10.801270584623399
 13
0.0
 23
19.361449329891599
 33
10.3834205846234
  0
3DFACE
  5
136
  8
ESTRUTURA
 10
0.0
 20
19.361449329891599
 30
10.3834205846234
 11
50.000004131860003
 21
19.626459329891599
 31
10.801270584623399
 12
0.0
 22
19.626459329891599
 32
10.801270584623399
 13
0.0
 23
19.361449329891599
 33
10.3834205846234
  0
3DFACE
  5
137
  8
ESTRUTURA
 10
50.000004131860003
 20
19.626459329891599
 30
10.801270584623399
 11
0.0
 21
19.626459329891599
 31
10.801270584623399
 12
0.0
 22
19.838129329891601
 32
11.1635705846234
 13
50.000004131860003
 23
19.626459329891599
 33
10.801270584623399
  0
3DFACE
  5
138
  8
ESTRUTURA
 10
50.000004131860003
 20
19.626459329891599
 30
10.801270584623399
 11
0.0
 21
19.838129329891601
 31
11.1635705846234
 12
50.000004131860003
 22
19.838129329891601
 32
11.1635705846234
 13
50.000004131860003
 23
19.626459329891599
 33
10.801270584623399
  0
3DFACE
  5
139
  8
ESTRUTURA
 10
0.0
 20
19.838129329891601
 30
11.1635705846234
 11
50.000004131860003
 21
19.838129329891601
 31
11.1635705846234
 12
50.000004131860003
 22
20.0111093298916
 32
11.481930584623401
 13
0.0
 23
19.838129329891601
 33
11.1635705846234
  0
3DFACE
  5
13A
  8
ESTRUTURA
 10
0.0
 20
19.838129329891601
 30
11.1635705846234
 11
50.000004131860003
 21
20.0111093298916
 31
11.481930584623401
 12
0.0
 22
20.0111093298916
 32
11.481930584623401
 13
0.0
 23
19.838129329891601
 33
11.1635705846234
  0
3DFACE
  5
13B
  8
ESTRUTURA
 10
50.000004131860003
 20
20.0111093298916
 30
11.481930584623401
 11
0.0
 21
20.0111093298916
 31
11.481930584623401
 12
0.0
 22
20.1876193298916
 32
11.831300584623399
 13
50.000004131860003
 23
20.0111093298916
 33
11.481930584623401
  0
3DFACE
  5
13C
  8
ESTRUTURA
 10
50.000004131860003
 20
20.0111093298916
 30
11.481930584623401
 11
0.0
 21
20.1876193298916
 31
11.831300584623399
 12
50.000004131860003
 22
20.1876193298916
 32
11.831300584623399
 13
50.000004131860003
 23
20.0111093298916
 33
11.481930584623401
  0
3DFACE
  5
13D
  8
ESTRUTURA
 10
0.0
 20
20.1876193298916
 30
11.831300584623399
 11
50.000004131860003
 21
20.1876193298916
 31
11.831300584623399
 12
50.000004131860003
 22
20.3491193298916
 32
12.177120584623401
 13
0.0
 23
20.1876193298916
 33
11.831300584623399
  0
3DFACE
  5
13E
  8
ESTRUTURA
 10
0.0
 20
20.1876193298916
 30
11.831300584623399
 11
50.000004131860003
 21
20.3491193298916
 31
12.177120584623401
 12
0.0
 22
20.3491193298916
 32
12.177120584623401
 13
0.0
 23
20.1876193298916
 33
11.831300584623399
  0
3DFACE
  5
13F
  8
ESTRUTURA
 10
50.000004131860003
 20
20.3491193298916
 30
12.177120584623401
 11
0.0
 21
20.3491193298916
 31
12.177120584623401
 12
0.0
 22
20.520509329891599
 32
12.5773905846234
 13
50.000004131860003
 23
20.3491193298916
 33
12.177120584623401
  0
3DFACE
  5
140
  8
ESTRUTURA
 10
50.000004131860003
 20
20.3491193298916
 30
12.177120584623401
 11
0.0
 21
20.520509329891599
 31
12.5773905846234
 12
50.000004131860003
 22
20.520509329891599
 32
12.5773905846234
 13
50.000004131860003
 23
20.3491193298916
 33
12.177120584623401
  0
3DFACE
  5
141
  8
ESTRUTURA
 10
0.0
 20
20.520509329891599
 30
12.5773905846234
 11
50.000004131860003
 21
20.520509329891599
 31
12.5773905846234
 12
50.000004131860003
 22
20.644409329891602
 32
12.8936805846234
 13
0.0
 23
20.520509329891599
 33
12.5773905846234
  0
3DFACE
  5
142
  8
ESTRUTURA
 10
0.0
 20
20.520509329891599
 30
12.5773905846234
 11
50.000004131860003
 21
20.644409329891602
 31
12.8936805846234
 12
0.0
 22
20.644409329891602
 32
12.8936805846234
 13
0.0
 23
20.520509329891599
 33
12.5773905846234
  0
3DFACE
  5
143
  8
ESTRUTURA
 10
50.000004131860003
 20
20.644409329891602
 30
12.8936805846234
 11
0.0
 21
20.644409329891602
 31
12.8936805846234
 12
0.0
 22
20.757569329891599
 32
13.206910584623399
 13
50.000004131860003
 23
20.644409329891602
 33
12.8936805846234
  0
3DFACE
  5
144
  8
ESTRUTURA
 10
50.000004131860003
 20
20.644409329891602
 30
12.8936805846234
 11
0.0
 21
20.757569329891599
 31
13.206910584623399
 12
50.000004131860003
 22
20.757569329891599
 32
13.206910584623399
 13
50.000004131860003
 23
20.644409329891602
 33
12.8936805846234
  0
3DFACE
  5
145
  8
ESTRUTURA
 10
0.0
 20
20.757569329891599
 30
13.206910584623399
 11
50.000004131860003
 21
20.757569329891599
 31
13.206910584623399
 12
50.000004131860003
 22
20.883909329891601
 32
13.591430584623399
 13
0.0
 23
20.757569329891599
 33
13.206910584623399
  0
3DFACE
  5
146
  8
ESTRUTURA
 10
0.0
 20
20.757569329891599
 30
13.206910584623399
 11
50.000004131860003
 21
20.883909329891601
 31
13.591430584623399
 12
0.0
 22
20.883909329891601
 32
13.591430584623399
 13
0.0
 23
20.757569329891599
 33
13.206910584623399
  0
3DFACE
  5
147
  8
ESTRUTURA
 10
50.000004131860003
 20
20.883909329891601
 30
13.591430584623399
 11
0.0
 21
20.883909329891601
 31
13.591430584623399
 12
0.0
 22
21.012449329891599
 32
14.0333205846234
 13
50.000004131860003
 23
20.883909329891601
 33
13.591430584623399
  0
3DFACE
  5
148
  8
ESTRUTURA
 10
50.000004131860003
 20
20.883909329891601
 30
13.591430584623399
 11
0.0
 21
21.012449329891599
 31
14.0333205846234
 12
50.000004131860003
 22
21.012449329891599
 32
14.0333205846234
 13
50.000004131860003
 23
20.883909329891601
 33
13.591430584623399
  0
3DFACE
  5
149
  8
ESTRUTURA
 10
0.0
 20
21.012449329891599
 30
14.0333205846234
 11
50.000004131860003
 21
21.012449329891599
 31
14.0333205846234
 12
50.000004131860003
 22
21.127439329891601
 32
14.4917005846234
 13
0.0
 23
21.012449329891599
 33
14.0333205846234
  0
3DFACE
  5
14A
  8
ESTRUTURA
 10
0.0
 20
21.012449329891599
 30
14.0333205846234
 11
50.000004131860003
 21
21.127439329891601
 31
14.4917005846234
 12
0.0
 22
21.127439329891601
 32
14.4917005846234
 13
0.0
 23
21.012449329891599
 33
14.0333205846234
  0
3DFACE
  5
14B
  8
ESTRUTURA
 10
50.000004131860003
 20
21.127439329891601
 30
14.4917005846234
 11
0.0
 21
21.127439329891601
 31
14.4917005846234
 12
0.0
 22
21.234009329891599
 32
15.000730584623399
 13
50.000004131860003
 23
21.127439329891601
 33
14.4917005846234
  0
3DFACE
  5
14C
  8
ESTRUTURA
 10
50.000004131860003
 20
21.127439329891601
 30
14.4917005846234
 11
0.0
 21
21.234009329891599
 31
15.000730584623399
 12
50.000004131860003
 22
21.234009329891599
 32
15.000730584623399
 13
50.000004131860003
 23
21.127439329891601
 33
14.4917005846234
  0
ENDSEC
  0
EOF
