  0
SECTION
  2
HEADER
  9
$ACADVER
  1
AC1009
  9
$DWGCODEPAGE
  3
ansi_1252
  9
$INSBASE
 10
0.0
 20
0.0
 30
0.0
  9
$EXTMIN
 10
-0.0000000000000071
 20
-20.00000000000001
 30
-15.0
  9
$EXTMAX
 10
400.0
 20
1.0
 30
35.0
  9
$LIMMIN
 10
0.0
 20
0.0
  9
$LIMMAX
 10
12.0
 20
9.0
  9
$ORTHOMODE
 70
     1
  9
$REGENMODE
 70
     1
  9
$FILLMODE
 70
     1
  9
$QTEXTMODE
 70
     0
  9
$MIRRTEXT
 70
     0
  9
$DRAGMODE
 70
     2
  9
$LTSCALE
 40
1.0
  9
$OSMODE
 70
    37
  9
$ATTMODE
 70
     1
  9
$TEXTSIZE
 40
0.2
  9
$TRACEWID
 40
0.05
  9
$TEXTSTYLE
  7
STANDARD
  9
$CLAYER
  8
0
  9
$CELTYPE
  6
BYLAYER
  9
$CECOLOR
 62
   256
  9
$DIMSCALE
 40
1.0
  9
$DIMASZ
 40
0.18
  9
$DIMEXO
 40
0.0625
  9
$DIMDLI
 40
0.38
  9
$DIMRND
 40
0.0
  9
$DIMDLE
 40
0.0
  9
$DIMEXE
 40
0.18
  9
$DIMTP
 40
0.0
  9
$DIMTM
 40
0.0
  9
$DIMTXT
 40
0.18
  9
$DIMCEN
 40
0.09
  9
$DIMTSZ
 40
0.0
  9
$DIMTOL
 70
     0
  9
$DIMLIM
 70
     0
  9
$DIMTIH
 70
     1
  9
$DIMTOH
 70
     1
  9
$DIMSE1
 70
     0
  9
$DIMSE2
 70
     0
  9
$DIMTAD
 70
     0
  9
$DIMZIN
 70
     0
  9
$DIMBLK
  1

  9
$DIMASO
 70
     1
  9
$DIMSHO
 70
     1
  9
$DIMPOST
  1

  9
$DIMAPOST
  1

  9
$DIMALT
 70
     0
  9
$DIMALTD
 70
     2
  9
$DIMALTF
 40
25.4
  9
$DIMLFAC
 40
1.0
  9
$DIMTOFL
 70
     0
  9
$DIMTVP
 40
0.0
  9
$DIMTIX
 70
     0
  9
$DIMSOXD
 70
     0
  9
$DIMSAH
 70
     0
  9
$DIMBLK1
  1

  9
$DIMBLK2
  1

  9
$DIMSTYLE
  2
STANDARD
  9
$DIMCLRD
 70
     0
  9
$DIMCLRE
 70
     0
  9
$DIMCLRT
 70
     0
  9
$DIMTFAC
 40
1.0
  9
$DIMGAP
 40
0.09
  9
$LUNITS
 70
     2
  9
$LUPREC
 70
     4
  9
$SKETCHINC
 40
0.1
  9
$FILLETRAD
 40
5.0
  9
$AUNITS
 70
     0
  9
$AUPREC
 70
     0
  9
$MENU
  1
.
  9
$ELEVATION
 40
0.0
  9
$PELEVATION
 40
0.0
  9
$THICKNESS
 40
0.0
  9
$LIMCHECK
 70
     0
  9
$CHAMFERA
 40
0.0
  9
$CHAMFERB
 40
0.0
  9
$SKPOLY
 70
     0
  9
$TDCREATE
 40
2455376.668309294
  9
$TDUPDATE
 40
2455376.676107465
  9
$TDINDWG
 40
0.0108847222
  9
$TDUSRTIMER
 40
0.0108621875
  9
$USRTIMER
 70
     1
  9
$ANGBASE
 50
0.0
  9
$ANGDIR
 70
     0
  9
$PDMODE
 70
     0
  9
$PDSIZE
 40
0.0
  9
$PLINEWID
 40
0.0
  9
$COORDS
 70
     1
  9
$SPLFRAME
 70
     1
  9
$SPLINETYPE
 70
     6
  9
$SPLINESEGS
 70
     8
  9
$ATTDIA
 70
     0
  9
$ATTREQ
 70
     1
  9
$HANDLING
 70
     1
  9
$HANDSEED
  5
4D6
  9
$SURFTAB1
 70
     3
  9
$SURFTAB2
 70
     6
  9
$SURFTYPE
 70
     6
  9
$SURFU
 70
     6
  9
$SURFV
 70
     6
  9
$UCSNAME
  2

  9
$UCSORG
 10
0.0
 20
0.0
 30
0.0
  9
$UCSXDIR
 10
1.0
 20
0.0
 30
0.0
  9
$UCSYDIR
 10
0.0
 20
1.0
 30
0.0
  9
$PUCSNAME
  2

  9
$PUCSORG
 10
0.0
 20
0.0
 30
0.0
  9
$PUCSXDIR
 10
1.0
 20
0.0
 30
0.0
  9
$PUCSYDIR
 10
0.0
 20
1.0
 30
0.0
  9
$USERI1
 70
     0
  9
$USERI2
 70
     0
  9
$USERI3
 70
     0
  9
$USERI4
 70
     0
  9
$USERI5
 70
     0
  9
$USERR1
 40
0.0
  9
$USERR2
 40
0.0
  9
$USERR3
 40
0.0
  9
$USERR4
 40
0.0
  9
$USERR5
 40
0.0
  9
$WORLDVIEW
 70
     1
  9
$SHADEDGE
 70
     3
  9
$SHADEDIF
 70
    70
  9
$TILEMODE
 70
     1
  9
$MAXACTVP
 70
    64
  9
$PLIMCHECK
 70
     0
  9
$PEXTMIN
 10
0.0
 20
0.0
 30
0.0
  9
$PEXTMAX
 10
0.0
 20
0.0
 30
0.0
  9
$PLIMMIN
 10
0.0
 20
0.0
  9
$PLIMMAX
 10
12.0
 20
9.0
  9
$UNITMODE
 70
     0
  9
$VISRETAIN
 70
     1
  9
$PLINEGEN
 70
     0
  9
$PSLTSCALE
 70
     1
  0
ENDSEC
  0
SECTION
  2
TABLES
  0
TABLE
  2
VPORT
 70
     1
  0
VPORT
  2
*ACTIVE
 70
     0
 10
0.0
 20
0.0
 11
1.0
 21
1.0
 12
1.061093119919521
 22
0.5363226524650655
 13
0.0
 23
0.0
 14
0.5
 24
0.5
 15
0.5
 25
0.5
 16
-1.0
 26
-1.0
 36
1.0
 17
0.0
 27
0.0
 37
0.0
 40
11.81026194127092
 41
1.701534170153417
 42
50.0
 43
0.0
 44
0.0
 50
0.0
 51
0.0
 71
    16
 72
  1000
 73
     0
 74
     1
 75
     0
 76
     0
 77
     0
 78
     0
  0
ENDTAB
  0
TABLE
  2
LTYPE
 70
     1
  0
LTYPE
  2
CONTINUOUS
 70
     0
  3
Solid line
 72
    65
 73
     0
 40
0.0
  0
ENDTAB
  0
TABLE
  2
LAYER
 70
     3
  0
LAYER
  2
0
 70
     0
 62
     7
  6
CONTINUOUS
  0
LAYER
  2
ACESSORIO
 70
     0
 62
     1
  6
CONTINUOUS
  0
LAYER
  2
CONTORNO
 70
     0
 62
     2
  6
CONTINUOUS
  0
ENDTAB
  0
TABLE
  2
STYLE
 70
     1
  0
STYLE
  2
STANDARD
 70
     0
 40
0.0
 41
1.0
 50
0.0
 71
     0
 42
0.2
  3
IC-txt.shx
  4

  0
ENDTAB
  0
TABLE
  2
VIEW
 70
     0
  0
ENDTAB
  0
TABLE
  2
UCS
 70
     0
  0
ENDTAB
  0
TABLE
  2
APPID
 70
     1
  0
APPID
  2
ACAD
 70
     0
  0
ENDTAB
  0
TABLE
  2
DIMSTYLE
 70
     1
  0
DIMSTYLE
  2
STANDARD
 70
     0
  3

  4

  5

  6

  7

 40
1.0
 41
0.18
 42
0.0625
 43
0.38
 44
0.18
 45
0.0
 46
0.0
 47
0.0
 48
0.0
140
0.18
141
0.09
142
0.0
143
25.4
144
1.0
145
0.0
146
1.0
147
0.09
 71
     0
 72
     0
 73
     1
 74
     1
 75
     0
 76
     0
 77
     0
 78
     0
170
     0
171
     2
172
     0
173
     0
174
     0
175
     0
176
     0
177
     0
178
     0
  0
ENDTAB
  0
ENDSEC
  0
SECTION
  2
BLOCKS
  0
BLOCK
  8
0
  2
$MODEL_SPACE
 70
     0
 10
0.0
 20
0.0
 30
0.0
  3
$MODEL_SPACE
  1

  0
ENDBLK
  5
21
  8
0
  0
BLOCK
 67
     1
  8
0
  2
$PAPER_SPACE
 70
     0
 10
0.0
 20
0.0
 30
0.0
  3
$PAPER_SPACE
  1

  0
ENDBLK
  5
76
 67
     1
  8
0
  0
ENDSEC
  0
SECTION
  2
ENTITIES
  0
3DFACE
  5
290
  8
ACESSORIO
 10
0.0
 20
-10.00000000000001
 30
0.0
 11
400.0
 21
-10.00000000000001
 31
0.0
 12
400.0
 22
-18.00000000000001
 32
0.0
 13
0.0
 23
-18.00000000000001
 33
0.0
  0
3DFACE
  5
291
  8
ACESSORIO
 10
400.0
 20
-18.00000000000001
 30
0.0
 11
0.0
 21
-18.00000000000001
 31
0.0
 12
0.0
 22
-18.00000000000001
 32
-1.999999999999996
 13
400.0
 23
-18.00000000000001
 33
-1.999999999999996
  0
3DFACE
  5
292
  8
ACESSORIO
 10
0.0
 20
-18.00000000000001
 30
-1.999999999999996
 11
400.0
 21
-18.00000000000001
 31
-1.999999999999996
 12
400.0
 22
-19.00000000000001
 32
-1.999999999999996
 13
-0.0000000000000071
 23
-19.00000000000001
 33
-1.999999999999996
  0
3DFACE
  5
293
  8
ACESSORIO
 10
400.0
 20
-19.00000000000001
 30
-1.999999999999996
 11
-0.0000000000000071
 21
-19.00000000000001
 31
-1.999999999999996
 12
-0.0000000000000071
 22
-19.00000000000001
 32
1.0
 13
400.0
 23
-19.00000000000001
 33
1.0
  0
3DFACE
  5
294
  8
ACESSORIO
 10
-0.0000000000000071
 20
-19.00000000000001
 30
1.0
 11
400.0
 21
-19.00000000000001
 31
1.0
 12
400.0
 22
-3.621474456303929
 32
7.2345373825795
 13
0.0
 23
-3.621474456303915
 33
7.2345373825795
  0
3DFACE
  5
295
  8
ACESSORIO
 10
0.0
 20
-8.000000000000014
 30
0.0
 11
400.0
 21
-8.000000000000014
 31
0.0
 12
400.0
 22
0.9999999999999858
 32
0.0
 13
0.0
 23
1.0
 33
0.0
  0
3DFACE
  5
296
  8
ACESSORIO
 10
400.0
 20
0.9999999999999858
 30
0.0
 11
0.0
 21
1.0
 31
0.0
 12
0.0
 22
1.0
 32
35.0
 13
400.0
 23
0.9999999999999858
 33
35.0
  0
3DFACE
  5
297
  8
ACESSORIO
 10
0.0
 20
1.0
 30
35.0
 11
400.0
 21
0.9999999999999858
 31
35.0
 12
400.0
 22
-19.00000000000001
 32
35.0
 13
-0.0000000000000071
 23
-19.0
 33
35.0
  0
3DFACE
  5
298
  8
ACESSORIO
 10
400.0
 20
-19.00000000000001
 30
35.0
 11
-0.0000000000000071
 21
-19.0
 31
35.0
 12
-0.0000000000000071
 22
-19.0
 32
25.0
 13
400.0
 23
-19.00000000000001
 33
25.0
  0
3DFACE
  5
299
  8
ACESSORIO
 10
-0.0000000000000071
 20
-19.0
 30
25.0
 11
400.0
 21
-19.00000000000001
 31
25.0
 12
400.0
 22
-17.50000000000001
 32
25.0
 13
0.0
 23
-17.5
 33
25.0
  0
3DFACE
  5
29A
  8
ACESSORIO
 10
400.0
 20
-17.50000000000001
 30
25.0
 11
0.0
 21
-17.5
 31
25.0
 12
0.0
 22
-17.5
 32
33.5
 13
400.0
 23
-17.50000000000001
 33
33.5
  0
3DFACE
  5
29B
  8
ACESSORIO
 10
0.0
 20
-17.5
 30
33.5
 11
400.0
 21
-17.50000000000001
 31
33.5
 12
400.0
 22
-0.500000000000014
 32
33.5
 13
0.0
 23
-0.5
 33
33.5
  0
3DFACE
  5
29C
  8
ACESSORIO
 10
400.0
 20
-0.500000000000014
 30
33.5
 11
0.0
 21
-0.5
 31
33.5
 12
0.0
 22
-0.5
 32
11.86823372369652
 13
400.0
 23
-0.500000000000028
 33
11.86823372369652
  0
POLYLINE
  5
29D
  8
ACESSORIO
 66
     1
 10
0.0
 20
0.0
 30
0.0
 70
    16
 71
     2
 72
     4
  0
VERTEX
  5
29E
  8
ACESSORIO
 10
400.0
 20
-3.621474456303929
 30
7.2345373825795
 70
    64
  0
VERTEX
  5
29F
  8
ACESSORIO
 10
400.0
 20
-1.982286368121066
 30
8.314968914525519
 70
    64
  0
VERTEX
  5
2A0
  8
ACESSORIO
 10
400.0
 20
-0.885426988366405
 30
9.94321010817836
 70
    64
  0
VERTEX
  5
2A1
  8
ACESSORIO
 10
400.0
 20
-0.500000000000028
 30
11.86823372369652
 70
    64
  0
VERTEX
  5
2A2
  8
ACESSORIO
 10
0.0
 20
-3.621474456303915
 30
7.2345373825795
 70
    64
  0
VERTEX
  5
2A3
  8
ACESSORIO
 10
0.0
 20
-1.982286368121052
 30
8.314968914525519
 70
    64
  0
VERTEX
  5
2A4
  8
ACESSORIO
 10
0.0
 20
-0.8854269883663901
 30
9.94321010817836
 70
    64
  0
VERTEX
  5
2A5
  8
ACESSORIO
 10
0.0
 20
-0.5
 30
11.86823372369652
 70
    64
  0
SEQEND
  5
4CC
  8
ACESSORIO
  0
3DFACE
  5
2A7
  8
ACESSORIO
 10
400.0
 20
-17.50000000000001
 30
25.0
 11
400.0
 21
-19.00000000000001
 31
25.0
 12
400.0
 22
-19.00000000000001
 32
35.0
 13
400.0
 23
-17.50000000000001
 33
33.5
 70
     4
  0
3DFACE
  5
2A8
  8
ACESSORIO
 10
400.0
 20
-19.00000000000001
 30
35.0
 11
400.0
 21
-17.50000000000001
 31
33.5
 12
400.0
 22
-0.500000000000014
 32
33.5
 13
400.0
 23
0.9999999999999858
 33
35.0
 70
     5
  0
3DFACE
  5
2A9
  8
ACESSORIO
 10
400.0
 20
-0.500000000000014
 30
33.5
 11
400.0
 21
0.9999999999999858
 31
35.0
 12
400.0
 22
0.9999999999999858
 32
0.0
 13
400.0
 23
-0.500000000000028
 33
11.86823372369652
 70
     5
  0
3DFACE
  5
2AA
  8
ACESSORIO
 10
400.0
 20
0.9999999999999858
 30
0.0
 11
400.0
 21
-0.500000000000028
 31
11.86823372369652
 12
400.0
 22
-0.885426988366405
 32
9.94321010817836
 13
400.0
 23
0.9999999999999858
 33
0.0
 70
     5
  0
3DFACE
  5
2AD
  8
ACESSORIO
 10
400.0
 20
-1.982286368121066
 30
8.314968914525519
 11
400.0
 21
-3.621474456303929
 31
7.2345373825795
 12
400.0
 22
0.9999999999999858
 32
0.0
 13
400.0
 23
-1.982286368121066
 33
8.314968914525519
 70
     6
  0
3DFACE
  5
2AE
  8
ACESSORIO
 10
400.0
 20
0.9999999999999858
 30
0.0
 11
400.0
 21
-3.621474456303929
 31
7.2345373825795
 12
400.0
 22
-19.00000000000001
 32
1.0
 13
400.0
 23
-18.00000000000001
 33
0.0
 70
    13
  0
3DFACE
  5
2AF
  8
ACESSORIO
 10
400.0
 20
-19.00000000000001
 30
1.0
 11
400.0
 21
-18.00000000000001
 31
0.0
 12
400.0
 22
-18.00000000000001
 32
-1.999999999999996
 13
400.0
 23
-19.00000000000001
 33
-1.999999999999996
 70
     1
  0
3DFACE
  5
2B0
  8
ACESSORIO
 10
400.0
 20
-0.885426988366405
 30
9.94321010817836
 11
400.0
 21
-1.982286368121066
 31
8.314968914525519
 12
400.0
 22
0.9999999999999858
 32
0.0
 13
400.0
 23
-0.885426988366405
 33
9.94321010817836
 70
     6
  0
3DFACE
  5
2B7
  8
ACESSORIO
 10
0.0
 20
-17.5
 30
25.0
 11
-0.0000000000000071
 21
-19.0
 31
25.0
 12
-0.0000000000000071
 22
-19.0
 32
35.0
 13
0.0
 23
-17.5
 33
33.5
 70
     4
  0
3DFACE
  5
2B8
  8
ACESSORIO
 10
-0.0000000000000071
 20
-19.0
 30
35.0
 11
0.0
 21
-17.5
 31
33.5
 12
0.0
 22
-0.5
 32
33.5
 13
0.0
 23
1.0
 33
35.0
 70
     5
  0
3DFACE
  5
2B9
  8
ACESSORIO
 10
0.0
 20
-0.5
 30
33.5
 11
0.0
 21
1.0
 31
35.0
 12
0.0
 22
1.0
 32
0.0
 13
0.0
 23
-0.5
 33
11.86823372369652
 70
     5
  0
3DFACE
  5
2BA
  8
ACESSORIO
 10
0.0
 20
1.0
 30
0.0
 11
0.0
 21
-0.5
 31
11.86823372369652
 12
0.0
 22
-0.8854269883663901
 32
9.94321010817836
 13
0.0
 23
1.0
 33
0.0
 70
     5
  0
3DFACE
  5
2BB
  8
ACESSORIO
 10
0.0
 20
-1.982286368121052
 30
8.314968914525519
 11
0.0
 21
-3.621474456303915
 31
7.2345373825795
 12
0.0
 22
1.0
 32
0.0
 13
0.0
 23
-1.982286368121052
 33
8.314968914525519
 70
     6
  0
3DFACE
  5
2BC
  8
ACESSORIO
 10
0.0
 20
1.0
 30
0.0
 11
0.0
 21
-3.621474456303915
 31
7.2345373825795
 12
-0.0000000000000071
 22
-19.00000000000001
 32
1.0
 13
0.0
 23
-18.00000000000001
 33
0.0
 70
    13
  0
3DFACE
  5
2BD
  8
ACESSORIO
 10
-0.0000000000000071
 20
-19.00000000000001
 30
1.0
 11
0.0
 21
-18.00000000000001
 31
0.0
 12
0.0
 22
-18.00000000000001
 32
-1.999999999999996
 13
-0.0000000000000071
 23
-19.00000000000001
 33
-1.999999999999996
 70
     1
  0
3DFACE
  5
2BE
  8
ACESSORIO
 10
0.0
 20
-0.8854269883663901
 30
9.94321010817836
 11
0.0
 21
-1.982286368121052
 31
8.314968914525519
 12
0.0
 22
1.0
 32
0.0
 13
0.0
 23
-0.8854269883663901
 33
9.94321010817836
 70
     6
  0
3DFACE
  5
392
  8
ACESSORIO
 10
400.0
 20
-0.000000000000014
 30
-15.0
 11
400.0
 21
-0.000000000000014
 31
0.0
 12
0.0
 22
0.0
 32
0.0
 13
0.0
 23
0.0
 33
-15.0
  0
3DFACE
  5
393
  8
ACESSORIO
 10
0.0
 20
0.0
 30
-15.0
 11
0.0
 21
1.0
 31
-15.0
 12
0.0
 22
1.0
 32
0.0
 13
0.0
 23
0.0
 33
0.0
  0
3DFACE
  5
394
  8
ACESSORIO
 10
400.0
 20
0.9999999999999858
 30
-15.0
 11
400.0
 21
-0.000000000000014
 31
-15.0
 12
400.0
 22
-0.000000000000014
 32
0.0
 13
400.0
 23
0.9999999999999858
 33
0.0
  0
3DFACE
  5
395
  8
ACESSORIO
 10
400.0
 20
0.9999999999999858
 30
-15.0
 11
400.0
 21
-0.000000000000014
 31
-15.0
 12
0.0
 22
0.0
 32
-15.0
 13
0.0
 23
1.0
 33
-15.0
  0
3DFACE
  5
396
  8
ACESSORIO
 10
0.0
 20
1.0
 30
0.0
 11
0.0
 21
1.0
 31
-15.0
 12
400.0
 22
0.9999999999999858
 32
-15.0
 13
400.0
 23
0.9999999999999858
 33
0.0
  0
POLYLINE
  5
3AD
  8
CONTORNO
 66
     1
 10
0.0
 20
0.0
 30
-15.0
  0
VERTEX
  5
4D1
  8
CONTORNO
 10
-0.0000000000000071
 20
0.05
 30
0.0
  0
VERTEX
  5
4D2
  8
CONTORNO
 10
400.0
 20
0.0499999999999858
 30
0.0
  0
VERTEX
  5
4D3
  8
CONTORNO
 10
400.0
 20
-0.050000000000014
 30
0.0
  0
VERTEX
  5
4D4
  8
CONTORNO
 10
-0.0000000000000071
 20
-0.05
 30
0.0
  0
VERTEX
  5
4D5
  8
CONTORNO
 10
-0.0000000000000071
 20
0.05
 30
0.0
  0
SEQEND
  5
4D0
  8
CONTORNO
  0
ENDSEC
  0
EOF
