  0
SECTION
  2
HEADER
  9
$ACADVER
  1
AC1009
  9
$DWGCODEPAGE
  3
ansi_1252
  9
$INSBASE
 10
0.0
 20
0.0
 30
0.0
  9
$EXTMIN
 10
-271.0
 20
-32.02435302734381
 30
-5.0
  9
$EXTMAX
 10
270.6872863769531
 20
0.0
 30
4.696529388427734
  9
$LIMMIN
 10
0.0
 20
0.0
  9
$LIMMAX
 10
12.0
 20
9.0
  9
$ORTHOMODE
 70
     1
  9
$REGENMODE
 70
     1
  9
$FILLMODE
 70
     1
  9
$QTEXTMODE
 70
     0
  9
$MIRRTEXT
 70
     1
  9
$DRAGMODE
 70
     2
  9
$LTSCALE
 40
1.0
  9
$OSMODE
 70
    37
  9
$ATTMODE
 70
     1
  9
$TEXTSIZE
 40
0.2
  9
$TRACEWID
 40
0.05
  9
$TEXTSTYLE
  7
STANDARD
  9
$CLAYER
  8
0
  9
$CELTYPE
  6
BYLAYER
  9
$CECOLOR
 62
   256
  9
$DIMSCALE
 40
1.0
  9
$DIMASZ
 40
0.18
  9
$DIMEXO
 40
0.0625
  9
$DIMDLI
 40
0.38
  9
$DIMRND
 40
0.0
  9
$DIMDLE
 40
0.0
  9
$DIMEXE
 40
0.18
  9
$DIMTP
 40
0.0
  9
$DIMTM
 40
0.0
  9
$DIMTXT
 40
0.18
  9
$DIMCEN
 40
0.09
  9
$DIMTSZ
 40
0.0
  9
$DIMTOL
 70
     0
  9
$DIMLIM
 70
     0
  9
$DIMTIH
 70
     1
  9
$DIMTOH
 70
     1
  9
$DIMSE1
 70
     0
  9
$DIMSE2
 70
     0
  9
$DIMTAD
 70
     0
  9
$DIMZIN
 70
     0
  9
$DIMBLK
  1

  9
$DIMASO
 70
     1
  9
$DIMSHO
 70
     1
  9
$DIMPOST
  1

  9
$DIMAPOST
  1

  9
$DIMALT
 70
     0
  9
$DIMALTD
 70
     2
  9
$DIMALTF
 40
25.4
  9
$DIMLFAC
 40
1.0
  9
$DIMTOFL
 70
     0
  9
$DIMTVP
 40
0.0
  9
$DIMTIX
 70
     0
  9
$DIMSOXD
 70
     0
  9
$DIMSAH
 70
     0
  9
$DIMBLK1
  1

  9
$DIMBLK2
  1

  9
$DIMSTYLE
  2
STANDARD
  9
$DIMCLRD
 70
     0
  9
$DIMCLRE
 70
     0
  9
$DIMCLRT
 70
     0
  9
$DIMTFAC
 40
1.0
  9
$DIMGAP
 40
0.09
  9
$LUNITS
 70
     2
  9
$LUPREC
 70
     3
  9
$SKETCHINC
 40
0.1
  9
$FILLETRAD
 40
0.5
  9
$AUNITS
 70
     0
  9
$AUPREC
 70
     0
  9
$MENU
  1
.
  9
$ELEVATION
 40
0.0
  9
$PELEVATION
 40
0.0
  9
$THICKNESS
 40
0.0
  9
$LIMCHECK
 70
     0
  9
$CHAMFERA
 40
0.5
  9
$CHAMFERB
 40
0.5
  9
$SKPOLY
 70
     0
  9
$TDCREATE
 40
2456499.628293403
  9
$TDUPDATE
 40
2456499.628293403
  9
$TDINDWG
 40
0.0007060185
  9
$TDUSRTIMER
 40
0.0007060185
  9
$USRTIMER
 70
     1
  9
$ANGBASE
 50
0.0
  9
$ANGDIR
 70
     0
  9
$PDMODE
 70
     0
  9
$PDSIZE
 40
0.0
  9
$PLINEWID
 40
0.0
  9
$COORDS
 70
     1
  9
$SPLFRAME
 70
     0
  9
$SPLINETYPE
 70
     6
  9
$SPLINESEGS
 70
     8
  9
$ATTDIA
 70
     0
  9
$ATTREQ
 70
     1
  9
$HANDLING
 70
     1
  9
$HANDSEED
  5
249
  9
$SURFTAB1
 70
     6
  9
$SURFTAB2
 70
     6
  9
$SURFTYPE
 70
     6
  9
$SURFU
 70
     6
  9
$SURFV
 70
     6
  9
$UCSNAME
  2

  9
$UCSORG
 10
0.0
 20
0.0
 30
0.0
  9
$UCSXDIR
 10
1.0
 20
0.0
 30
0.0
  9
$UCSYDIR
 10
0.0
 20
0.0
 30
1.0
  9
$PUCSNAME
  2

  9
$PUCSORG
 10
0.0
 20
0.0
 30
0.0
  9
$PUCSXDIR
 10
1.0
 20
0.0
 30
0.0
  9
$PUCSYDIR
 10
0.0
 20
1.0
 30
0.0
  9
$USERI1
 70
     0
  9
$USERI2
 70
     0
  9
$USERI3
 70
     0
  9
$USERI4
 70
     0
  9
$USERI5
 70
     0
  9
$USERR1
 40
0.0
  9
$USERR2
 40
0.0
  9
$USERR3
 40
0.0
  9
$USERR4
 40
0.0
  9
$USERR5
 40
0.0
  9
$WORLDVIEW
 70
     1
  9
$SHADEDGE
 70
     3
  9
$SHADEDIF
 70
    70
  9
$TILEMODE
 70
     1
  9
$MAXACTVP
 70
    64
  9
$PLIMCHECK
 70
     0
  9
$PEXTMIN
 10
1.000000000000000E+20
 20
1.000000000000000E+20
 30
1.000000000000000E+20
  9
$PEXTMAX
 10
-1.000000000000000E+20
 20
-1.000000000000000E+20
 30
-1.000000000000000E+20
  9
$PLIMMIN
 10
0.0
 20
0.0
  9
$PLIMMAX
 10
12.0
 20
9.0
  9
$UNITMODE
 70
     0
  9
$VISRETAIN
 70
     1
  9
$PLINEGEN
 70
     0
  9
$PSLTSCALE
 70
     1
  0
ENDSEC
  0
SECTION
  2
TABLES
  0
TABLE
  2
VPORT
 70
     1
  0
VPORT
  2
*ACTIVE
 70
     0
 10
0.0
 20
0.0
 11
1.0
 21
1.0
 12
11.21175763266045
 22
-6.724667447699402
 13
0.0
 23
0.0
 14
0.5
 24
0.5
 15
0.5
 25
0.5
 16
-1.0
 26
-1.0
 36
1.0
 17
0.0
 27
0.0
 37
0.0
 40
308.7208233506397
 41
55.864038015852
 42
50.0
 43
0.0
 44
0.0
 50
0.0
 51
0.0
 71
    16
 72
   100
 73
     0
 74
     1
 75
     0
 76
     0
 77
     0
 78
     0
  0
ENDTAB
  0
TABLE
  2
LTYPE
 70
     1
  0
LTYPE
  2
CONTINUOUS
 70
     0
  3
Solid line
 72
    65
 73
     0
 40
0.0
  0
ENDTAB
  0
TABLE
  2
LAYER
 70
     2
  0
LAYER
  2
0
 70
     0
 62
     7
  6
CONTINUOUS
  0
LAYER
  2
METAL
 70
     0
 62
    70
  6
CONTINUOUS
  0
ENDTAB
  0
TABLE
  2
STYLE
 70
     1
  0
STYLE
  2
STANDARD
 70
     0
 40
0.0
 41
1.0
 50
0.0
 71
     0
 42
0.2
  3
txt
  4

  0
ENDTAB
  0
TABLE
  2
VIEW
 70
     0
  0
ENDTAB
  0
TABLE
  2
UCS
 70
     0
  0
ENDTAB
  0
TABLE
  2
APPID
 70
     1
  0
APPID
  2
ACAD
 70
     0
  0
ENDTAB
  0
TABLE
  2
DIMSTYLE
 70
     1
  0
DIMSTYLE
  2
STANDARD
 70
     0
  3

  4

  5

  6

  7

 40
1.0
 41
0.18
 42
0.0625
 43
0.38
 44
0.18
 45
0.0
 46
0.0
 47
0.0
 48
0.0
140
0.18
141
0.09
142
0.0
143
25.4
144
1.0
145
0.0
146
1.0
147
0.09
 71
     0
 72
     0
 73
     1
 74
     1
 75
     0
 76
     0
 77
     0
 78
     0
170
     0
171
     2
172
     0
173
     0
174
     0
175
     0
176
     0
177
     0
178
     0
  0
ENDTAB
  0
ENDSEC
  0
SECTION
  2
BLOCKS
  0
BLOCK
  8
0
  2
$MODEL_SPACE
 70
     0
 10
0.0
 20
0.0
 30
0.0
  3
$MODEL_SPACE
  1

  0
ENDBLK
  5
21
  8
0
  0
BLOCK
 67
     1
  8
0
  2
$PAPER_SPACE
 70
     0
 10
0.0
 20
0.0
 30
0.0
  3
$PAPER_SPACE
  1

  0
ENDBLK
  5
76
 67
     1
  8
0
  0
ENDSEC
  0
SECTION
  2
ENTITIES
  0
POLYLINE
  5
3C
  8
METAL
 66
     1
 10
0.0
 20
0.0
 30
0.0
 70
    64
 71
   340
 72
   155
  0
VERTEX
  5
3D
  8
METAL
 10
270.6872863769531
 20
-1.684677124023416
 30
4.696529388427734
 70
   192
  0
VERTEX
  5
3E
  8
METAL
 10
270.6872863769531
 20
-1.684677124023416
 30
4.696529388427734
 70
   192
  0
VERTEX
  5
3F
  8
METAL
 10
270.6872863769531
 20
-0.0000000000000071
 30
4.696529388427734
 70
   192
  0
VERTEX
  5
40
  8
METAL
 10
270.6872863769531
 20
-0.0000000000000071
 30
4.696529388427734
 70
   192
  0
VERTEX
  5
41
  8
METAL
 10
270.6872863769531
 20
-0.0000000000000071
 30
4.696529388427734
 70
   192
  0
VERTEX
  5
42
  8
METAL
 10
270.6872863769531
 20
-6.106964111328104
 30
4.513130187988281
 70
   192
  0
VERTEX
  5
43
  8
METAL
 10
270.6872863769531
 20
-6.106964111328104
 30
4.513130187988281
 70
   192
  0
VERTEX
  5
44
  8
METAL
 10
270.6872863769531
 20
-11.02925109863282
 30
4.283092498779297
 70
   192
  0
VERTEX
  5
45
  8
METAL
 10
270.6872863769531
 20
-11.02925109863282
 30
4.283092498779297
 70
   192
  0
VERTEX
  5
46
  8
METAL
 10
270.6872863769531
 20
-13.24040222167969
 30
4.193351745605469
 70
   192
  0
VERTEX
  5
47
  8
METAL
 10
270.6872863769531
 20
-13.24040222167969
 30
4.193351745605469
 70
   192
  0
VERTEX
  5
48
  8
METAL
 10
270.6872863769531
 20
-15.45153808593751
 30
3.986572265625
 70
   192
  0
VERTEX
  5
49
  8
METAL
 10
270.6872863769531
 20
-15.45153808593751
 30
3.986572265625
 70
   192
  0
VERTEX
  5
4A
  8
METAL
 10
270.6872863769531
 20
-17.66267395019531
 30
3.827259063720703
 70
   192
  0
VERTEX
  5
4B
  8
METAL
 10
270.6872863769531
 20
-17.66267395019531
 30
3.827259063720703
 70
   192
  0
VERTEX
  5
4C
  8
METAL
 10
270.6872863769531
 20
-18.76824951171881
 30
3.707084655761719
 70
   192
  0
VERTEX
  5
4D
  8
METAL
 10
270.6872863769531
 20
-18.76824951171881
 30
3.707084655761719
 70
   192
  0
VERTEX
  5
4E
  8
METAL
 10
270.6872863769531
 20
-19.87380981445312
 30
3.5869140625
 70
   192
  0
VERTEX
  5
4F
  8
METAL
 10
270.6872863769531
 20
-19.87380981445312
 30
3.5869140625
 70
   192
  0
VERTEX
  5
50
  8
METAL
 10
270.6872863769531
 20
-20.71615600585938
 30
3.49493408203125
 70
   192
  0
VERTEX
  5
51
  8
METAL
 10
270.6872863769531
 20
-20.71615600585938
 30
3.49493408203125
 70
   192
  0
VERTEX
  5
52
  8
METAL
 10
270.6872863769531
 20
-21.55850219726562
 30
3.393535614013672
 70
   192
  0
VERTEX
  5
53
  8
METAL
 10
270.6872863769531
 20
-21.55850219726562
 30
3.393535614013672
 70
   192
  0
VERTEX
  5
54
  8
METAL
 10
270.6872863769531
 20
-23.84442138671881
 30
3.136260986328125
 70
   192
  0
VERTEX
  5
55
  8
METAL
 10
270.6872863769531
 20
-23.84442138671881
 30
3.136260986328125
 70
   192
  0
VERTEX
  5
56
  8
METAL
 10
270.6872863769531
 20
-26.13034057617188
 30
2.878982543945312
 70
   192
  0
VERTEX
  5
57
  8
METAL
 10
270.6872863769531
 20
-26.13034057617188
 30
2.878982543945312
 70
   192
  0
VERTEX
  5
58
  8
METAL
 10
270.6872863769531
 20
-26.13034057617188
 30
2.878982543945312
 70
   192
  0
VERTEX
  5
239
  8
METAL
 10
270.6872863769531
 20
-26.13034057617188
 30
-3.182468414306641
 70
   192
  0
VERTEX
  5
23A
  8
METAL
 10
270.6872863769531
 20
-26.13034057617188
 30
-3.182468414306641
 70
   192
  0
VERTEX
  5
5B
  8
METAL
 10
270.6872863769531
 20
-26.13034057617188
 30
-3.182468414306641
 70
   192
  0
VERTEX
  5
5C
  8
METAL
 10
270.6872863769531
 20
-23.84442138671881
 30
-3.439739227294893
 70
   192
  0
VERTEX
  5
5D
  8
METAL
 10
270.6872863769531
 20
-23.84442138671881
 30
-3.439739227294893
 70
   192
  0
VERTEX
  5
23B
  8
METAL
 10
270.6872863769531
 20
-21.55850219726562
 30
-3.697013854980469
 70
   192
  0
VERTEX
  5
5F
  8
METAL
 10
270.6872863769531
 20
-21.55850219726562
 30
-3.697013854980469
 70
   192
  0
VERTEX
  5
60
  8
METAL
 10
270.6872863769531
 20
-20.71615600585938
 30
-3.798412322998047
 70
   192
  0
VERTEX
  5
61
  8
METAL
 10
270.6872863769531
 20
-20.71615600585938
 30
-3.798412322998047
 70
   192
  0
VERTEX
  5
62
  8
METAL
 10
270.6872863769531
 20
-19.87380981445312
 30
-3.890388488769531
 70
   192
  0
VERTEX
  5
63
  8
METAL
 10
270.6872863769531
 20
-19.87380981445312
 30
-3.890388488769531
 70
   192
  0
VERTEX
  5
64
  8
METAL
 10
270.6872863769531
 20
-18.76824951171881
 30
-4.010562896728516
 70
   192
  0
VERTEX
  5
65
  8
METAL
 10
270.6872863769531
 20
-18.76824951171881
 30
-4.010562896728516
 70
   192
  0
VERTEX
  5
66
  8
METAL
 10
270.6872863769531
 20
-17.66267395019531
 30
-4.130733489990234
 70
   192
  0
VERTEX
  5
67
  8
METAL
 10
270.6872863769531
 20
-17.66267395019531
 30
-4.130733489990234
 70
   192
  0
VERTEX
  5
68
  8
METAL
 10
270.6872863769531
 20
-15.4515380859375
 30
-4.290050506591797
 70
   192
  0
VERTEX
  5
69
  8
METAL
 10
270.6872863769531
 20
-15.4515380859375
 30
-4.290050506591797
 70
   192
  0
VERTEX
  5
6A
  8
METAL
 10
270.6872863769531
 20
-13.24040222167969
 30
-4.496829986572266
 70
   192
  0
VERTEX
  5
23C
  8
METAL
 10
270.6872863769531
 20
-13.24040222167969
 30
-4.496829986572266
 70
   192
  0
VERTEX
  5
23D
  8
METAL
 10
270.6872863769531
 20
-11.02925109863281
 30
-4.586570739746094
 70
   192
  0
VERTEX
  5
6D
  8
METAL
 10
270.6872863769531
 20
-11.02925109863281
 30
-4.586570739746094
 70
   192
  0
VERTEX
  5
6E
  8
METAL
 10
270.6872863769531
 20
-6.106964111328097
 30
-4.816604614257784
 70
   192
  0
VERTEX
  5
6F
  8
METAL
 10
270.6872863769531
 20
-6.106964111328097
 30
-4.816604614257784
 70
   192
  0
VERTEX
  5
70
  8
METAL
 10
270.6872863769531
 20
0.0
 30
-4.999996185302734
 70
   192
  0
VERTEX
  5
71
  8
METAL
 10
270.6872863769531
 20
0.0
 30
-4.999996185302734
 70
   192
  0
VERTEX
  5
72
  8
METAL
 10
270.6872863769531
 20
0.0
 30
-4.999996185302734
 70
   192
  0
VERTEX
  5
23E
  8
METAL
 10
270.6872863769531
 20
-1.6846923828125
 30
-5.0
 70
   192
  0
VERTEX
  5
23F
  8
METAL
 10
270.6872863769531
 20
-1.6846923828125
 30
-5.0
 70
   192
  0
VERTEX
  5
240
  8
METAL
 10
270.5030822753907
 20
-27.419677734375
 30
2.692096710205107
 70
   192
  0
VERTEX
  5
241
  8
METAL
 10
270.5030822753907
 20
-27.419677734375
 30
2.692096710205107
 70
   192
  0
VERTEX
  5
77
  8
METAL
 10
270.5030822753907
 20
-27.419677734375
 30
-2.995578765869141
 70
   192
  0
VERTEX
  5
78
  8
METAL
 10
270.5030822753907
 20
-27.419677734375
 30
-2.995578765869141
 70
   192
  0
VERTEX
  5
79
  8
METAL
 10
270.3188781738281
 20
-28.708984375
 30
2.505207061767607
 70
   192
  0
VERTEX
  5
7A
  8
METAL
 10
270.3188781738281
 20
-28.708984375
 30
2.505207061767607
 70
   192
  0
VERTEX
  5
7B
  8
METAL
 10
270.3188781738281
 20
-28.708984375
 30
2.505207061767607
 70
   192
  0
VERTEX
  5
7C
  8
METAL
 10
270.3188781738281
 20
-28.708984375
 30
-2.808692932128906
 70
   192
  0
VERTEX
  5
7D
  8
METAL
 10
270.3188781738281
 20
-28.708984375
 30
-2.808692932128906
 70
   192
  0
VERTEX
  5
7E
  8
METAL
 10
270.3188781738281
 20
-28.708984375
 30
-2.808692932128906
 70
   192
  0
VERTEX
  5
7F
  8
METAL
 10
269.2137756347657
 20
-30.55084228515619
 30
2.197574615478516
 70
   192
  0
VERTEX
  5
80
  8
METAL
 10
269.2137756347657
 20
-30.55084228515619
 30
2.197574615478516
 70
   192
  0
VERTEX
  5
81
  8
METAL
 10
269.2137756347657
 20
-30.55084228515619
 30
2.197574615478516
 70
   192
  0
VERTEX
  5
82
  8
METAL
 10
269.2137756347657
 20
-30.55084228515619
 30
-2.501060485839844
 70
   192
  0
VERTEX
  5
83
  8
METAL
 10
269.2137756347657
 20
-30.55084228515619
 30
-2.501060485839844
 70
   192
  0
VERTEX
  5
84
  8
METAL
 10
269.2137756347657
 20
-30.55084228515619
 30
-2.501060485839844
 70
   192
  0
VERTEX
  5
85
  8
METAL
 10
267.3718566894531
 20
-31.65597534179688
 30
2.020065307617216
 70
   192
  0
VERTEX
  5
86
  8
METAL
 10
267.3718566894531
 20
-31.65597534179688
 30
2.020065307617216
 70
   192
  0
VERTEX
  5
87
  8
METAL
 10
267.3718566894531
 20
-31.65597534179688
 30
2.020065307617216
 70
   192
  0
VERTEX
  5
88
  8
METAL
 10
267.3718566894531
 20
-31.65597534179688
 30
-2.323551177978516
 70
   192
  0
VERTEX
  5
89
  8
METAL
 10
267.3718566894531
 20
-31.65597534179688
 30
-2.323551177978516
 70
   192
  0
VERTEX
  5
8A
  8
METAL
 10
267.3718566894531
 20
-31.65597534179688
 30
-2.323551177978516
 70
   192
  0
VERTEX
  5
8B
  8
METAL
 10
264.7932434082031
 20
-32.02435302734381
 30
2.020065307617216
 70
   192
  0
VERTEX
  5
8C
  8
METAL
 10
264.7932434082031
 20
-32.02435302734381
 30
2.020065307617216
 70
   192
  0
VERTEX
  5
8D
  8
METAL
 10
264.7932434082031
 20
-32.02435302734381
 30
2.020065307617216
 70
   192
  0
VERTEX
  5
8E
  8
METAL
 10
264.7932434082031
 20
-32.02435302734381
 30
-2.323551177978516
 70
   192
  0
VERTEX
  5
8F
  8
METAL
 10
264.7932434082031
 20
-32.02435302734381
 30
-2.323551177978516
 70
   192
  0
VERTEX
  5
90
  8
METAL
 10
264.7932434082031
 20
-32.02435302734381
 30
-2.323551177978516
 70
   192
  0
VERTEX
  5
91
  8
METAL
 10
160.9989471435547
 20
-0.0000000000000071
 30
4.696529388427734
 70
   192
  0
VERTEX
  5
242
  8
METAL
 10
160.9989471435547
 20
-0.0000000000000071
 30
4.696529388427734
 70
   192
  0
VERTEX
  5
243
  8
METAL
 10
160.9989471435547
 20
-0.0000000000000071
 30
4.696529388427734
 70
   192
  0
VERTEX
  5
94
  8
METAL
 10
160.9989471435547
 20
0.0
 30
-4.999996185302734
 70
   192
  0
VERTEX
  5
95
  8
METAL
 10
160.9989471435547
 20
0.0
 30
-4.999996185302734
 70
   192
  0
VERTEX
  5
96
  8
METAL
 10
160.9989471435547
 20
0.0
 30
-4.999996185302734
 70
   192
  0
VERTEX
  5
244
  8
METAL
 10
158.1284637451172
 20
-1.684677124023416
 30
4.696525573730469
 70
   192
  0
VERTEX
  5
245
  8
METAL
 10
158.1284637451172
 20
-1.684677124023416
 30
4.696525573730469
 70
   192
  0
VERTEX
  5
99
  8
METAL
 10
158.1284637451172
 20
-1.684677124023416
 30
4.696525573730469
 70
   192
  0
VERTEX
  5
9A
  8
METAL
 10
158.1284637451172
 20
-1.684677124023409
 30
-5.0
 70
   192
  0
VERTEX
  5
9B
  8
METAL
 10
158.1284637451172
 20
-1.684677124023409
 30
-5.0
 70
   192
  0
VERTEX
  5
9C
  8
METAL
 10
158.1284637451172
 20
-1.684677124023409
 30
-5.0
 70
   192
  0
VERTEX
  5
9D
  8
METAL
 10
148.7035369873047
 20
-6.106964111328104
 30
4.513130187988281
 70
   192
  0
VERTEX
  5
9E
  8
METAL
 10
148.7035369873047
 20
-6.106964111328104
 30
4.513130187988281
 70
   192
  0
VERTEX
  5
9F
  8
METAL
 10
148.7035369873047
 20
-6.106964111328104
 30
4.513130187988281
 70
   192
  0
VERTEX
  5
A0
  8
METAL
 10
148.7035369873047
 20
-6.106964111328097
 30
-4.816604614257784
 70
   192
  0
VERTEX
  5
A1
  8
METAL
 10
148.7035369873047
 20
-6.106964111328097
 30
-4.816604614257784
 70
   192
  0
VERTEX
  5
A2
  8
METAL
 10
148.7035369873047
 20
-6.106964111328097
 30
-4.816604614257784
 70
   192
  0
VERTEX
  5
A3
  8
METAL
 10
137.9336090087891
 20
-11.02925109863282
 30
4.283088684082031
 70
   192
  0
VERTEX
  5
A4
  8
METAL
 10
137.9336090087891
 20
-11.02925109863282
 30
4.283088684082031
 70
   192
  0
VERTEX
  5
A5
  8
METAL
 10
137.9336090087891
 20
-11.02925109863282
 30
4.283088684082031
 70
   192
  0
VERTEX
  5
A6
  8
METAL
 10
137.9336090087891
 20
-11.02925109863281
 30
-4.586574554443359
 70
   192
  0
VERTEX
  5
A7
  8
METAL
 10
137.9336090087891
 20
-11.02925109863281
 30
-4.586574554443359
 70
   192
  0
VERTEX
  5
A8
  8
METAL
 10
137.9336090087891
 20
-11.02925109863281
 30
-4.586574554443359
 70
   192
  0
VERTEX
  5
A9
  8
METAL
 10
131.2074127197266
 20
-13.24040222167969
 30
4.193347930908203
 70
   192
  0
VERTEX
  5
AA
  8
METAL
 10
131.2074127197266
 20
-13.24040222167969
 30
4.193347930908203
 70
   192
  0
VERTEX
  5
AB
  8
METAL
 10
131.2073822021485
 20
-13.24040222167969
 30
-4.496829986572266
 70
   192
  0
VERTEX
  5
AC
  8
METAL
 10
131.2073822021485
 20
-13.24040222167969
 30
-4.496829986572266
 70
   192
  0
VERTEX
  5
AD
  8
METAL
 10
124.481185913086
 20
-15.45153808593751
 30
3.986572265625
 70
   192
  0
VERTEX
  5
AE
  8
METAL
 10
124.481185913086
 20
-15.45153808593751
 30
3.986572265625
 70
   192
  0
VERTEX
  5
AF
  8
METAL
 10
124.481185913086
 20
-15.45153808593751
 30
3.986572265625
 70
   192
  0
VERTEX
  5
B0
  8
METAL
 10
124.481185913086
 20
-15.4515380859375
 30
-4.290054321289034
 70
   192
  0
VERTEX
  5
B1
  8
METAL
 10
124.481185913086
 20
-15.4515380859375
 30
-4.290054321289034
 70
   192
  0
VERTEX
  5
B2
  8
METAL
 10
124.481185913086
 20
-15.4515380859375
 30
-4.290054321289034
 70
   192
  0
VERTEX
  5
B3
  8
METAL
 10
115.6994781494141
 20
-17.6626892089844
 30
3.827259063720703
 70
   192
  0
VERTEX
  5
B4
  8
METAL
 10
115.6994781494141
 20
-17.6626892089844
 30
3.827259063720703
 70
   192
  0
VERTEX
  5
B5
  8
METAL
 10
115.6994781494141
 20
-17.6626892089844
 30
3.827259063720703
 70
   192
  0
VERTEX
  5
B6
  8
METAL
 10
115.6994781494141
 20
-17.66267395019531
 30
-4.1307373046875
 70
   192
  0
VERTEX
  5
B7
  8
METAL
 10
115.6994781494141
 20
-17.66267395019531
 30
-4.1307373046875
 70
   192
  0
VERTEX
  5
B8
  8
METAL
 10
115.6994781494141
 20
-17.66267395019531
 30
-4.1307373046875
 70
   192
  0
VERTEX
  5
B9
  8
METAL
 10
111.7512664794922
 20
-18.76824951171881
 30
3.707084655761719
 70
   192
  0
VERTEX
  5
BA
  8
METAL
 10
111.7512664794922
 20
-18.76824951171881
 30
3.707084655761719
 70
   192
  0
VERTEX
  5
BB
  8
METAL
 10
111.7512664794922
 20
-18.76824951171881
 30
3.707084655761719
 70
   192
  0
VERTEX
  5
BC
  8
METAL
 10
111.7512664794922
 20
-18.76824951171881
 30
-4.010562896728516
 70
   192
  0
VERTEX
  5
BD
  8
METAL
 10
111.7512664794922
 20
-18.76824951171881
 30
-4.010562896728516
 70
   192
  0
VERTEX
  5
BE
  8
METAL
 10
111.7512664794922
 20
-18.76824951171881
 30
-4.010562896728516
 70
   192
  0
VERTEX
  5
BF
  8
METAL
 10
105.725570678711
 20
-19.87384033203119
 30
3.586910247802734
 70
   192
  0
VERTEX
  5
C0
  8
METAL
 10
105.725570678711
 20
-19.87384033203119
 30
3.586910247802734
 70
   192
  0
VERTEX
  5
C1
  8
METAL
 10
105.725570678711
 20
-19.87384033203119
 30
3.586910247802734
 70
   192
  0
VERTEX
  5
C2
  8
METAL
 10
105.725570678711
 20
-19.87380981445312
 30
-3.890388488769531
 70
   192
  0
VERTEX
  5
C3
  8
METAL
 10
105.725570678711
 20
-19.87380981445312
 30
-3.890388488769531
 70
   192
  0
VERTEX
  5
C4
  8
METAL
 10
105.725570678711
 20
-19.87380981445312
 30
-3.890388488769531
 70
   192
  0
VERTEX
  5
C5
  8
METAL
 10
99.44279479980469
 20
-20.71615600585938
 30
3.494930267333984
 70
   192
  0
VERTEX
  5
C6
  8
METAL
 10
99.44279479980469
 20
-20.71615600585938
 30
3.494930267333984
 70
   192
  0
VERTEX
  5
C7
  8
METAL
 10
99.44279479980469
 20
-20.71615600585938
 30
3.494930267333984
 70
   192
  0
VERTEX
  5
C8
  8
METAL
 10
99.44279479980469
 20
-20.71615600585938
 30
-3.798416137695284
 70
   192
  0
VERTEX
  5
C9
  8
METAL
 10
99.44279479980469
 20
-20.71615600585938
 30
-3.798416137695284
 70
   192
  0
VERTEX
  5
CA
  8
METAL
 10
99.44279479980469
 20
-20.71615600585938
 30
-3.798416137695284
 70
   192
  0
VERTEX
  5
CB
  8
METAL
 10
-61.24620056152341
 20
-21.55850219726562
 30
3.393531799316406
 70
   192
  0
VERTEX
  5
CC
  8
METAL
 10
-61.24620056152341
 20
-21.55850219726562
 30
3.393531799316406
 70
   192
  0
VERTEX
  5
CD
  8
METAL
 10
-61.24620056152341
 20
-21.55850219726562
 30
3.393531799316406
 70
   192
  0
VERTEX
  5
CE
  8
METAL
 10
-61.24620056152341
 20
-23.84423828125
 30
3.134426116943359
 70
   192
  0
VERTEX
  5
CF
  8
METAL
 10
-61.24620056152341
 20
-26.12997436523438
 30
2.875316619873075
 70
   192
  0
VERTEX
  5
D0
  8
METAL
 10
-61.24620056152341
 20
-27.41925048828119
 30
2.688247680664062
 70
   192
  0
VERTEX
  5
D1
  8
METAL
 10
-61.24620056152341
 20
-28.70852661132812
 30
2.501178741455107
 70
   192
  0
VERTEX
  5
D2
  8
METAL
 10
-61.24620056152341
 20
-30.55419921875
 30
2.233379364013672
 70
   192
  0
VERTEX
  5
D3
  8
METAL
 10
-61.24620056152341
 20
-31.66253662109381
 30
2.072563171386719
 70
   192
  0
VERTEX
  5
D4
  8
METAL
 10
-61.24620056152341
 20
-32.02435302734381
 30
2.020065307617216
 70
   192
  0
VERTEX
  5
D5
  8
METAL
 10
-61.24620056152341
 20
-32.02435302734381
 30
2.020065307617216
 70
   192
  0
VERTEX
  5
D6
  8
METAL
 10
-61.24620056152341
 20
-32.02435302734381
 30
-2.323551177978516
 70
   192
  0
VERTEX
  5
D7
  8
METAL
 10
-61.24620056152341
 20
-32.02435302734381
 30
-2.323551177978516
 70
   192
  0
VERTEX
  5
D8
  8
METAL
 10
-61.24620056152341
 20
-31.66070556640619
 30
-2.376312255859375
 70
   192
  0
VERTEX
  5
D9
  8
METAL
 10
-61.24620056152341
 20
-30.55419921875
 30
-2.536861419677734
 70
   192
  0
VERTEX
  5
DA
  8
METAL
 10
-61.24620056152341
 20
-28.70858764648438
 30
-2.804656982421875
 70
   192
  0
VERTEX
  5
DB
  8
METAL
 10
-61.24620056152341
 20
-27.41928100585938
 30
-2.991729736328125
 70
   192
  0
VERTEX
  5
DC
  8
METAL
 10
-61.24620056152341
 20
-26.12994384765619
 30
-3.178806304931641
 70
   192
  0
VERTEX
  5
DD
  8
METAL
 10
-61.24620056152341
 20
-23.84423828125
 30
-3.437911987304688
 70
   192
  0
VERTEX
  5
DE
  8
METAL
 10
-61.24620056152341
 20
-21.55850219726562
 30
-3.697017669677734
 70
   192
  0
VERTEX
  5
DF
  8
METAL
 10
-61.24620056152341
 20
-21.55850219726562
 30
-3.697017669677734
 70
   192
  0
VERTEX
  5
E0
  8
METAL
 10
-61.24620056152341
 20
-21.55850219726562
 30
-3.697017669677734
 70
   192
  0
VERTEX
  5
E1
  8
METAL
 10
-70.8527677953243
 20
-21.55850219726562
 30
3.393531799316406
 70
   192
  0
VERTEX
  5
E2
  8
METAL
 10
-70.8527677953243
 20
-21.55850219726562
 30
3.393531799316406
 70
   192
  0
VERTEX
  5
E3
  8
METAL
 10
-70.8527677953243
 20
-23.84423828125
 30
3.134426116943359
 70
   192
  0
VERTEX
  5
E4
  8
METAL
 10
-70.8527677953243
 20
-26.12997436523438
 30
2.875316619873075
 70
   192
  0
VERTEX
  5
E5
  8
METAL
 10
-70.8527677953243
 20
-27.41925048828119
 30
2.688247680664062
 70
   192
  0
VERTEX
  5
E6
  8
METAL
 10
-70.8527677953243
 20
-28.70852661132812
 30
2.501182556152344
 70
   192
  0
VERTEX
  5
E7
  8
METAL
 10
-70.8527677953243
 20
-30.55419921875
 30
2.233379364013672
 70
   192
  0
VERTEX
  5
E8
  8
METAL
 10
-70.8527677953243
 20
-31.66253662109381
 30
2.072563171386719
 70
   192
  0
VERTEX
  5
E9
  8
METAL
 10
-70.8527677953243
 20
-32.02435302734381
 30
2.020065307617216
 70
   192
  0
VERTEX
  5
EA
  8
METAL
 10
-70.8527677953243
 20
-32.02435302734381
 30
2.020065307617216
 70
   192
  0
VERTEX
  5
EB
  8
METAL
 10
-70.8527677953243
 20
-32.02435302734381
 30
-2.323551177978516
 70
   192
  0
VERTEX
  5
EC
  8
METAL
 10
-70.8527677953243
 20
-32.02435302734381
 30
-2.323551177978516
 70
   192
  0
VERTEX
  5
ED
  8
METAL
 10
-70.8527677953243
 20
-31.66070556640619
 30
-2.376312255859375
 70
   192
  0
VERTEX
  5
EE
  8
METAL
 10
-70.8527677953243
 20
-30.55419921875
 30
-2.536861419677734
 70
   192
  0
VERTEX
  5
EF
  8
METAL
 10
-70.8527677953243
 20
-28.70858764648438
 30
-2.804656982421875
 70
   192
  0
VERTEX
  5
F0
  8
METAL
 10
-70.8527677953243
 20
-27.41928100585938
 30
-2.991729736328125
 70
   192
  0
VERTEX
  5
F1
  8
METAL
 10
-70.8527677953243
 20
-26.12994384765619
 30
-3.178806304931641
 70
   192
  0
VERTEX
  5
F2
  8
METAL
 10
-70.8527677953243
 20
-23.84423828125
 30
-3.437911987304688
 70
   192
  0
VERTEX
  5
F3
  8
METAL
 10
-70.8527677953243
 20
-21.55850219726562
 30
-3.697017669677734
 70
   192
  0
VERTEX
  5
F4
  8
METAL
 10
-70.8527677953243
 20
-21.55850219726562
 30
-3.697017669677734
 70
   192
  0
VERTEX
  5
F5
  8
METAL
 10
-240.6918487548828
 20
-21.55850219726562
 30
3.393531799316406
 70
   192
  0
VERTEX
  5
F6
  8
METAL
 10
-240.6918487548828
 20
-21.55850219726562
 30
3.393531799316406
 70
   192
  0
VERTEX
  5
F7
  8
METAL
 10
-240.6918487548828
 20
-21.55850219726562
 30
3.393531799316406
 70
   192
  0
VERTEX
  5
F8
  8
METAL
 10
-240.6918487548828
 20
-23.84423828125
 30
3.134422302246094
 70
   192
  0
VERTEX
  5
F9
  8
METAL
 10
-240.6918487548828
 20
-26.12997436523438
 30
2.875316619873075
 70
   192
  0
VERTEX
  5
FA
  8
METAL
 10
-240.6918487548828
 20
-27.41925048828119
 30
2.688247680664062
 70
   192
  0
VERTEX
  5
FB
  8
METAL
 10
-240.6918487548828
 20
-28.70852661132812
 30
2.501178741455107
 70
   192
  0
VERTEX
  5
FC
  8
METAL
 10
-240.6918487548828
 20
-30.55419921875
 30
2.233375549316406
 70
   192
  0
VERTEX
  5
FD
  8
METAL
 10
-240.6918487548828
 20
-31.66253662109381
 30
2.072563171386719
 70
   192
  0
VERTEX
  5
FE
  8
METAL
 10
-240.6918487548828
 20
-32.02435302734381
 30
2.020065307617216
 70
   192
  0
VERTEX
  5
FF
  8
METAL
 10
-240.6918487548828
 20
-32.02435302734381
 30
2.020065307617216
 70
   192
  0
VERTEX
  5
100
  8
METAL
 10
-240.6918487548828
 20
-32.02435302734381
 30
-2.323551177978516
 70
   192
  0
VERTEX
  5
101
  8
METAL
 10
-240.6918487548828
 20
-32.02435302734381
 30
-2.323551177978516
 70
   192
  0
VERTEX
  5
102
  8
METAL
 10
-240.6918487548828
 20
-31.66070556640619
 30
-2.376312255859375
 70
   192
  0
VERTEX
  5
103
  8
METAL
 10
-240.6918487548828
 20
-30.55419921875
 30
-2.536861419677734
 70
   192
  0
VERTEX
  5
104
  8
METAL
 10
-240.6918487548828
 20
-28.70858764648438
 30
-2.804656982421875
 70
   192
  0
VERTEX
  5
105
  8
METAL
 10
-240.6918487548828
 20
-27.41928100585938
 30
-2.991733551025391
 70
   192
  0
VERTEX
  5
106
  8
METAL
 10
-240.6918487548828
 20
-26.12997436523438
 30
-3.178806304931641
 70
   192
  0
VERTEX
  5
107
  8
METAL
 10
-240.6918487548828
 20
-23.84423828125
 30
-3.437911987304688
 70
   192
  0
VERTEX
  5
108
  8
METAL
 10
-240.6918487548828
 20
-21.55850219726562
 30
-3.697017669677734
 70
   192
  0
VERTEX
  5
109
  8
METAL
 10
-240.6918487548828
 20
-21.55850219726562
 30
-3.697017669677734
 70
   192
  0
VERTEX
  5
10A
  8
METAL
 10
-240.6918487548828
 20
-21.55850219726562
 30
-3.697017669677734
 70
   192
  0
VERTEX
  5
10B
  8
METAL
 10
-243.7357177734375
 20
-20.71615600585938
 30
3.494930267333984
 70
   192
  0
VERTEX
  5
10C
  8
METAL
 10
-243.7357177734375
 20
-20.71615600585938
 30
3.494930267333984
 70
   192
  0
VERTEX
  5
10D
  8
METAL
 10
-243.7357177734375
 20
-20.71615600585938
 30
3.494930267333984
 70
   192
  0
VERTEX
  5
10E
  8
METAL
 10
-243.7357177734375
 20
-20.71615600585938
 30
-3.798416137695284
 70
   192
  0
VERTEX
  5
10F
  8
METAL
 10
-243.7357177734375
 20
-20.71615600585938
 30
-3.798416137695284
 70
   192
  0
VERTEX
  5
110
  8
METAL
 10
-243.7357177734375
 20
-20.71615600585938
 30
-3.798416137695284
 70
   192
  0
VERTEX
  5
111
  8
METAL
 10
-245.2259979248047
 20
-19.87384033203119
 30
3.586910247802734
 70
   192
  0
VERTEX
  5
112
  8
METAL
 10
-245.2259979248047
 20
-19.87384033203119
 30
3.586910247802734
 70
   192
  0
VERTEX
  5
113
  8
METAL
 10
-245.2259979248047
 20
-19.87384033203119
 30
3.586910247802734
 70
   192
  0
VERTEX
  5
114
  8
METAL
 10
-245.2259979248047
 20
-19.87380981445312
 30
-3.890392303466797
 70
   192
  0
VERTEX
  5
115
  8
METAL
 10
-245.2259979248047
 20
-19.87380981445312
 30
-3.890392303466797
 70
   192
  0
VERTEX
  5
116
  8
METAL
 10
-245.2259979248047
 20
-19.87380981445312
 30
-3.890392303466797
 70
   192
  0
VERTEX
  5
117
  8
METAL
 10
-246.5407257080078
 20
-18.76824951171881
 30
3.707080841064453
 70
   192
  0
VERTEX
  5
118
  8
METAL
 10
-246.5407257080078
 20
-18.76824951171881
 30
3.707080841064453
 70
   192
  0
VERTEX
  5
119
  8
METAL
 10
-246.5407257080078
 20
-18.76824951171881
 30
3.707080841064453
 70
   192
  0
VERTEX
  5
11A
  8
METAL
 10
-246.5407257080078
 20
-18.76824951171881
 30
-4.010566711425781
 70
   192
  0
VERTEX
  5
11B
  8
METAL
 10
-246.5407257080078
 20
-18.76824951171881
 30
-4.010566711425781
 70
   192
  0
VERTEX
  5
11C
  8
METAL
 10
-246.5407257080078
 20
-18.76824951171881
 30
-4.010566711425781
 70
   192
  0
VERTEX
  5
11D
  8
METAL
 10
-247.529541015625
 20
-17.6626892089844
 30
3.827255249023466
 70
   192
  0
VERTEX
  5
11E
  8
METAL
 10
-247.529541015625
 20
-17.6626892089844
 30
3.827255249023466
 70
   192
  0
VERTEX
  5
11F
  8
METAL
 10
-247.529541015625
 20
-17.6626892089844
 30
3.827255249023466
 70
   192
  0
VERTEX
  5
120
  8
METAL
 10
-247.529541015625
 20
-17.66267395019531
 30
-4.130741119384766
 70
   192
  0
VERTEX
  5
121
  8
METAL
 10
-247.529541015625
 20
-17.66267395019531
 30
-4.130741119384766
 70
   192
  0
VERTEX
  5
122
  8
METAL
 10
-247.529541015625
 20
-17.66267395019531
 30
-4.130741119384766
 70
   192
  0
VERTEX
  5
123
  8
METAL
 10
-248.825210571289
 20
-15.45153808593751
 30
3.986568450927734
 70
   192
  0
VERTEX
  5
124
  8
METAL
 10
-248.825210571289
 20
-15.45153808593751
 30
3.986568450927734
 70
   192
  0
VERTEX
  5
125
  8
METAL
 10
-248.825210571289
 20
-15.45153808593751
 30
3.986568450927734
 70
   192
  0
VERTEX
  5
126
  8
METAL
 10
-248.825210571289
 20
-15.4515380859375
 30
-4.290054321289034
 70
   192
  0
VERTEX
  5
127
  8
METAL
 10
-248.825210571289
 20
-15.4515380859375
 30
-4.290054321289034
 70
   192
  0
VERTEX
  5
128
  8
METAL
 10
-248.825210571289
 20
-15.4515380859375
 30
-4.290054321289034
 70
   192
  0
VERTEX
  5
129
  8
METAL
 10
-251.4480743408203
 20
-11.02925109863282
 30
4.283092498779297
 70
   192
  0
VERTEX
  5
12A
  8
METAL
 10
-251.4480743408203
 20
-11.02925109863282
 30
4.283092498779297
 70
   192
  0
VERTEX
  5
12B
  8
METAL
 10
-251.4480743408203
 20
-11.02925109863282
 30
4.283092498779297
 70
   192
  0
VERTEX
  5
12C
  8
METAL
 10
-251.4480743408203
 20
-11.02925109863281
 30
-4.586574554443359
 70
   192
  0
VERTEX
  5
12D
  8
METAL
 10
-251.4480743408203
 20
-11.02925109863281
 30
-4.586574554443359
 70
   192
  0
VERTEX
  5
12E
  8
METAL
 10
-251.4480743408203
 20
-11.02925109863281
 30
-4.586574554443359
 70
   192
  0
VERTEX
  5
12F
  8
METAL
 10
-253.9807739257812
 20
-6.106964111328104
 30
4.513126373291016
 70
   192
  0
VERTEX
  5
130
  8
METAL
 10
-253.9807739257812
 20
-6.106964111328104
 30
4.513126373291016
 70
   192
  0
VERTEX
  5
131
  8
METAL
 10
-253.9807739257812
 20
-6.106964111328104
 30
4.513126373291016
 70
   192
  0
VERTEX
  5
132
  8
METAL
 10
-253.9807739257812
 20
-6.106964111328097
 30
-4.816604614257784
 70
   192
  0
VERTEX
  5
133
  8
METAL
 10
-253.9807739257812
 20
-6.106964111328097
 30
-4.816604614257784
 70
   192
  0
VERTEX
  5
134
  8
METAL
 10
-253.9807739257812
 20
-6.106964111328097
 30
-4.816604614257784
 70
   192
  0
VERTEX
  5
135
  8
METAL
 10
-256.5942993164062
 20
-1.684677124023416
 30
4.696521759033203
 70
   192
  0
VERTEX
  5
136
  8
METAL
 10
-256.5942993164062
 20
-1.684677124023416
 30
4.696521759033203
 70
   192
  0
VERTEX
  5
137
  8
METAL
 10
-256.5942993164062
 20
-1.684677124023416
 30
4.696521759033203
 70
   192
  0
VERTEX
  5
138
  8
METAL
 10
-256.5942993164062
 20
-1.684677124023409
 30
-5.0
 70
   192
  0
VERTEX
  5
139
  8
METAL
 10
-256.5942993164062
 20
-1.684677124023409
 30
-5.0
 70
   192
  0
VERTEX
  5
13A
  8
METAL
 10
-256.5942993164062
 20
-1.684677124023409
 30
-5.0
 70
   192
  0
VERTEX
  5
13B
  8
METAL
 10
-257.5573577880859
 20
-0.0000000000000071
 30
4.696521759033203
 70
   192
  0
VERTEX
  5
13C
  8
METAL
 10
-257.5573577880859
 20
-0.0000000000000071
 30
4.696521759033203
 70
   192
  0
VERTEX
  5
13D
  8
METAL
 10
-257.5573577880859
 20
-0.0000000000000071
 30
4.696521759033203
 70
   192
  0
VERTEX
  5
13E
  8
METAL
 10
-257.5573577880859
 20
0.0
 30
-5.0
 70
   192
  0
VERTEX
  5
13F
  8
METAL
 10
-257.5573577880859
 20
0.0
 30
-5.0
 70
   192
  0
VERTEX
  5
140
  8
METAL
 10
-257.5573577880859
 20
0.0
 30
-5.0
 70
   192
  0
VERTEX
  5
141
  8
METAL
 10
-265.1059875488281
 20
-32.02435302734381
 30
2.020065307617216
 70
   192
  0
VERTEX
  5
142
  8
METAL
 10
-265.1059875488281
 20
-32.02435302734381
 30
2.020065307617216
 70
   192
  0
VERTEX
  5
143
  8
METAL
 10
-265.1059875488281
 20
-32.02435302734381
 30
2.020065307617216
 70
   192
  0
VERTEX
  5
144
  8
METAL
 10
-265.1059875488281
 20
-32.02435302734381
 30
-2.323551177978516
 70
   192
  0
VERTEX
  5
145
  8
METAL
 10
-265.1059875488281
 20
-32.02435302734381
 30
-2.323551177978516
 70
   192
  0
VERTEX
  5
146
  8
METAL
 10
-265.1059875488281
 20
-32.02435302734381
 30
-2.323551177978516
 70
   192
  0
VERTEX
  5
147
  8
METAL
 10
-267.6846160888672
 20
-31.65597534179688
 30
2.020065307617216
 70
   192
  0
VERTEX
  5
148
  8
METAL
 10
-267.6846160888672
 20
-31.65597534179688
 30
2.020065307617216
 70
   192
  0
VERTEX
  5
149
  8
METAL
 10
-267.6846160888672
 20
-31.65597534179688
 30
2.020065307617216
 70
   192
  0
VERTEX
  5
14A
  8
METAL
 10
-267.6846160888672
 20
-31.65597534179688
 30
-2.323551177978516
 70
   192
  0
VERTEX
  5
14B
  8
METAL
 10
-267.6846160888672
 20
-31.65597534179688
 30
-2.323551177978516
 70
   192
  0
VERTEX
  5
14C
  8
METAL
 10
-267.6846160888672
 20
-31.65597534179688
 30
-2.323551177978516
 70
   192
  0
VERTEX
  5
14D
  8
METAL
 10
-269.5264892578125
 20
-30.55084228515619
 30
2.197574615478516
 70
   192
  0
VERTEX
  5
14E
  8
METAL
 10
-269.5264892578125
 20
-30.55084228515619
 30
2.197574615478516
 70
   192
  0
VERTEX
  5
14F
  8
METAL
 10
-269.5264892578125
 20
-30.55084228515619
 30
2.197574615478516
 70
   192
  0
VERTEX
  5
150
  8
METAL
 10
-269.5264892578125
 20
-30.55084228515619
 30
-2.501060485839844
 70
   192
  0
VERTEX
  5
151
  8
METAL
 10
-269.5264892578125
 20
-30.55084228515619
 30
-2.501060485839844
 70
   192
  0
VERTEX
  5
152
  8
METAL
 10
-269.5264892578125
 20
-30.55084228515619
 30
-2.501060485839844
 70
   192
  0
VERTEX
  5
153
  8
METAL
 10
-270.6316223144531
 20
-28.708984375
 30
2.505203247070312
 70
   192
  0
VERTEX
  5
154
  8
METAL
 10
-270.6316223144531
 20
-28.708984375
 30
2.505203247070312
 70
   192
  0
VERTEX
  5
155
  8
METAL
 10
-270.6316223144531
 20
-28.708984375
 30
2.505203247070312
 70
   192
  0
VERTEX
  5
156
  8
METAL
 10
-270.6316223144531
 20
-28.708984375
 30
-2.808692932128906
 70
   192
  0
VERTEX
  5
157
  8
METAL
 10
-270.6316223144531
 20
-28.708984375
 30
-2.808692932128906
 70
   192
  0
VERTEX
  5
158
  8
METAL
 10
-270.6316223144531
 20
-28.708984375
 30
-2.808692932128906
 70
   192
  0
VERTEX
  5
159
  8
METAL
 10
-270.8158111572265
 20
-27.419677734375
 30
2.692092895507812
 70
   192
  0
VERTEX
  5
15A
  8
METAL
 10
-270.8158111572265
 20
-27.419677734375
 30
2.692092895507812
 70
   192
  0
VERTEX
  5
15B
  8
METAL
 10
-270.8158111572265
 20
-27.419677734375
 30
-2.995582580566406
 70
   192
  0
VERTEX
  5
15C
  8
METAL
 10
-270.8158111572265
 20
-27.419677734375
 30
-2.995582580566406
 70
   192
  0
VERTEX
  5
15D
  8
METAL
 10
-270.9999847412109
 20
-15.45153808593751
 30
3.986568450927734
 70
   192
  0
VERTEX
  5
15E
  8
METAL
 10
-270.9999847412109
 20
-15.45153808593751
 30
3.986568450927734
 70
   192
  0
VERTEX
  5
15F
  8
METAL
 10
-270.9999847412109
 20
-15.4515380859375
 30
-4.290054321289034
 70
   192
  0
VERTEX
  5
160
  8
METAL
 10
-270.9999847412109
 20
-15.4515380859375
 30
-4.290054321289034
 70
   192
  0
VERTEX
  5
161
  8
METAL
 10
-271.0
 20
-0.0000000000000071
 30
4.696525573730469
 70
   192
  0
VERTEX
  5
162
  8
METAL
 10
-271.0
 20
-0.0000000000000071
 30
4.696525573730469
 70
   192
  0
VERTEX
  5
163
  8
METAL
 10
-271.0
 20
-0.0000000000000071
 30
4.696525573730469
 70
   192
  0
VERTEX
  5
164
  8
METAL
 10
-271.0
 20
-1.684677124023416
 30
4.696521759033203
 70
   192
  0
VERTEX
  5
165
  8
METAL
 10
-271.0
 20
-1.684677124023416
 30
4.696521759033203
 70
   192
  0
VERTEX
  5
166
  8
METAL
 10
-271.0
 20
-6.106964111328104
 30
4.513126373291016
 70
   192
  0
VERTEX
  5
167
  8
METAL
 10
-271.0
 20
-6.106964111328104
 30
4.513126373291016
 70
   192
  0
VERTEX
  5
168
  8
METAL
 10
-271.0
 20
-11.02925109863282
 30
4.283092498779297
 70
   192
  0
VERTEX
  5
169
  8
METAL
 10
-271.0
 20
-11.02925109863282
 30
4.283092498779297
 70
   192
  0
VERTEX
  5
16A
  8
METAL
 10
-271.0
 20
-17.66267395019531
 30
3.827255249023466
 70
   192
  0
VERTEX
  5
16B
  8
METAL
 10
-271.0
 20
-17.66267395019531
 30
3.827255249023466
 70
   192
  0
VERTEX
  5
16C
  8
METAL
 10
-271.0
 20
-18.76824951171881
 30
3.707080841064453
 70
   192
  0
VERTEX
  5
16D
  8
METAL
 10
-271.0
 20
-18.76824951171881
 30
3.707080841064453
 70
   192
  0
VERTEX
  5
16E
  8
METAL
 10
-271.0
 20
-19.87380981445312
 30
3.586910247802734
 70
   192
  0
VERTEX
  5
16F
  8
METAL
 10
-271.0
 20
-19.87380981445312
 30
3.586910247802734
 70
   192
  0
VERTEX
  5
170
  8
METAL
 10
-271.0
 20
-20.71615600585938
 30
3.494930267333984
 70
   192
  0
VERTEX
  5
171
  8
METAL
 10
-271.0
 20
-20.71615600585938
 30
3.494930267333984
 70
   192
  0
VERTEX
  5
172
  8
METAL
 10
-271.0
 20
-21.55850219726562
 30
3.393531799316406
 70
   192
  0
VERTEX
  5
173
  8
METAL
 10
-271.0
 20
-21.55850219726562
 30
3.393531799316406
 70
   192
  0
VERTEX
  5
174
  8
METAL
 10
-271.0
 20
-23.84442138671881
 30
3.136257171630859
 70
   192
  0
VERTEX
  5
175
  8
METAL
 10
-271.0
 20
-23.84442138671881
 30
3.136257171630859
 70
   192
  0
VERTEX
  5
176
  8
METAL
 10
-271.0
 20
-26.13034057617188
 30
2.878982543945312
 70
   192
  0
VERTEX
  5
177
  8
METAL
 10
-271.0
 20
-26.13034057617188
 30
2.878982543945312
 70
   192
  0
VERTEX
  5
178
  8
METAL
 10
-271.0
 20
-26.13034057617188
 30
2.878982543945312
 70
   192
  0
VERTEX
  5
179
  8
METAL
 10
-271.0
 20
-26.13034057617188
 30
-3.182468414306641
 70
   192
  0
VERTEX
  5
17A
  8
METAL
 10
-271.0
 20
-26.13034057617188
 30
-3.182468414306641
 70
   192
  0
VERTEX
  5
17B
  8
METAL
 10
-271.0
 20
-26.13034057617188
 30
-3.182468414306641
 70
   192
  0
VERTEX
  5
17C
  8
METAL
 10
-271.0
 20
-23.84442138671881
 30
-3.439743041992188
 70
   192
  0
VERTEX
  5
17D
  8
METAL
 10
-271.0
 20
-23.84442138671881
 30
-3.439743041992188
 70
   192
  0
VERTEX
  5
17E
  8
METAL
 10
-271.0
 20
-21.55850219726562
 30
-3.697017669677734
 70
   192
  0
VERTEX
  5
17F
  8
METAL
 10
-271.0
 20
-21.55850219726562
 30
-3.697017669677734
 70
   192
  0
VERTEX
  5
180
  8
METAL
 10
-271.0
 20
-20.71615600585938
 30
-3.798416137695284
 70
   192
  0
VERTEX
  5
181
  8
METAL
 10
-271.0
 20
-20.71615600585938
 30
-3.798416137695284
 70
   192
  0
VERTEX
  5
182
  8
METAL
 10
-271.0
 20
-19.87380981445312
 30
-3.890392303466797
 70
   192
  0
VERTEX
  5
183
  8
METAL
 10
-271.0
 20
-19.87380981445312
 30
-3.890392303466797
 70
   192
  0
VERTEX
  5
184
  8
METAL
 10
-271.0
 20
-18.76824951171881
 30
-4.010566711425781
 70
   192
  0
VERTEX
  5
185
  8
METAL
 10
-271.0
 20
-18.76824951171881
 30
-4.010566711425781
 70
   192
  0
VERTEX
  5
186
  8
METAL
 10
-271.0
 20
-17.66267395019531
 30
-4.130741119384766
 70
   192
  0
VERTEX
  5
187
  8
METAL
 10
-271.0
 20
-17.66267395019531
 30
-4.130741119384766
 70
   192
  0
VERTEX
  5
188
  8
METAL
 10
-271.0
 20
-11.02925109863281
 30
-4.586574554443359
 70
   192
  0
VERTEX
  5
189
  8
METAL
 10
-271.0
 20
-11.02925109863281
 30
-4.586574554443359
 70
   192
  0
VERTEX
  5
18A
  8
METAL
 10
-271.0
 20
-6.106964111328097
 30
-4.816604614257784
 70
   192
  0
VERTEX
  5
18B
  8
METAL
 10
-271.0
 20
-6.106964111328097
 30
-4.816604614257784
 70
   192
  0
VERTEX
  5
18C
  8
METAL
 10
-271.0
 20
-1.6846923828125
 30
-5.0
 70
   192
  0
VERTEX
  5
18D
  8
METAL
 10
-271.0
 20
-1.6846923828125
 30
-5.0
 70
   192
  0
VERTEX
  5
18E
  8
METAL
 10
-271.0
 20
0.0
 30
-5.0
 70
   192
  0
VERTEX
  5
18F
  8
METAL
 10
-271.0
 20
0.0
 30
-5.0
 70
   192
  0
VERTEX
  5
190
  8
METAL
 10
-271.0
 20
0.0
 30
-5.0
 70
   192
  0
VERTEX
  5
191
  8
METAL
 10
0.0
 20
0.0
 30
0.0
 70
   128
 71
   248
 72
   242
 73
   332
 74
   334
  0
VERTEX
  5
192
  8
METAL
 10
0.0
 20
0.0
 30
0.0
 70
   128
 71
   300
 72
   239
 73
   245
 74
   298
  0
VERTEX
  5
193
  8
METAL
 10
0.0
 20
0.0
 30
0.0
 70
   128
 71
   294
 72
   257
 73
   259
 74
   338
  0
VERTEX
  5
194
  8
METAL
 10
0.0
 20
0.0
 30
0.0
 70
   128
 71
   316
 72
   313
 73
   321
 74
   319
  0
VERTEX
  5
195
  8
METAL
 10
0.0
 20
0.0
 30
0.0
 70
   128
 71
   285
 72
   190
 73
   189
 74
   314
  0
VERTEX
  5
196
  8
METAL
 10
0.0
 20
0.0
 30
0.0
 70
   128
 71
   301
 72
   333
 73
   292
 74
   290
  0
VERTEX
  5
197
  8
METAL
 10
0.0
 20
0.0
 30
0.0
 70
   128
 71
   261
 72
   264
 73
   196
 74
   195
  0
VERTEX
  5
198
  8
METAL
 10
0.0
 20
0.0
 30
0.0
 70
   128
 71
   282
 72
   287
 73
   201
 74
   200
  0
VERTEX
  5
199
  8
METAL
 10
0.0
 20
0.0
 30
0.0
 70
   128
 71
   169
 72
   190
 73
   191
 74
   170
  0
VERTEX
  5
19A
  8
METAL
 10
0.0
 20
0.0
 30
0.0
 70
   128
 71
   218
 72
   212
 73
   324
 74
   326
  0
VERTEX
  5
19B
  8
METAL
 10
0.0
 20
0.0
 30
0.0
 70
   128
 71
   236
 72
   230
 73
   330
 74
   291
  0
VERTEX
  5
19C
  8
METAL
 10
0.0
 20
0.0
 30
0.0
 70
   128
 71
   242
 72
   236
 73
   291
 74
   332
  0
VERTEX
  5
19D
  8
METAL
 10
0.0
 20
0.0
 30
0.0
 70
   128
 71
   336
 72
   339
 73
   260
 74
   254
  0
VERTEX
  5
19E
  8
METAL
 10
0.0
 20
0.0
 30
0.0
 70
   128
 71
   334
 72
   336
 73
   254
 74
   248
  0
VERTEX
  5
19F
  8
METAL
 10
0.0
 20
0.0
 30
0.0
 70
   128
 71
   308
 72
   209
 73
   215
 74
   306
  0
VERTEX
  5
1A0
  8
METAL
 10
0.0
 20
0.0
 30
0.0
 70
   128
 71
   302
 72
   227
 73
   233
 74
   289
  0
VERTEX
  5
1A1
  8
METAL
 10
0.0
 20
0.0
 30
0.0
 70
   128
 71
   289
 72
   233
 73
   239
 74
   300
  0
VERTEX
  5
1A2
  8
METAL
 10
0.0
 20
0.0
 30
0.0
 70
   128
 71
   251
 72
   293
 73
   296
 74
   296
  0
VERTEX
  5
1A3
  8
METAL
 10
0.0
 20
0.0
 30
0.0
 70
   128
 71
   251
 72
   296
 73
   298
 74
   245
  0
VERTEX
  5
1A4
  8
METAL
 10
0.0
 20
0.0
 30
0.0
 70
   128
 71
   295
 72
   340
 73
   337
 74
   297
  0
VERTEX
  5
1A5
  8
METAL
 10
0.0
 20
0.0
 30
0.0
 70
   128
 71
   297
 72
   337
 73
   335
 74
   299
  0
VERTEX
  5
1A6
  8
METAL
 10
0.0
 20
0.0
 30
0.0
 70
   128
 71
   299
 72
   335
 73
   333
 74
   301
  0
VERTEX
  5
1A7
  8
METAL
 10
0.0
 20
0.0
 30
0.0
 70
   128
 71
   325
 72
   309
 73
   307
 74
   327
  0
VERTEX
  5
1A8
  8
METAL
 10
0.0
 20
0.0
 30
0.0
 70
   128
 71
   331
 72
   303
 73
   290
 74
   292
  0
VERTEX
  5
1A9
  8
METAL
 10
0.0
 20
0.0
 30
0.0
 70
   128
 71
   230
 72
   224
 73
   328
 74
   330
  0
VERTEX
  5
1AA
  8
METAL
 10
0.0
 20
0.0
 30
0.0
 70
   128
 71
   304
 72
   221
 73
   227
 74
   302
  0
VERTEX
  5
1AB
  8
METAL
 10
0.0
 20
0.0
 30
0.0
 70
   128
 71
   329
 72
   305
 73
   303
 74
   331
  0
VERTEX
  5
1AC
  8
METAL
 10
0.0
 20
0.0
 30
0.0
 70
   128
 71
   212
 72
   206
 73
   322
 74
   324
  0
VERTEX
  5
1AD
  8
METAL
 10
0.0
 20
0.0
 30
0.0
 70
   128
 71
   310
 72
   186
 73
   209
 74
   308
  0
VERTEX
  5
1AE
  8
METAL
 10
0.0
 20
0.0
 30
0.0
 70
   128
 71
   323
 72
   311
 73
   309
 74
   325
  0
VERTEX
  5
1AF
  8
METAL
 10
0.0
 20
0.0
 30
0.0
 70
   128
 71
   271
 72
   266
 73
   263
 74
   268
  0
VERTEX
  5
1B0
  8
METAL
 10
0.0
 20
0.0
 30
0.0
 70
   128
 71
   277
 72
   272
 73
   269
 74
   274
  0
VERTEX
  5
1B1
  8
METAL
 10
0.0
 20
0.0
 30
0.0
 70
   128
 71
   283
 72
   278
 73
   275
 74
   280
  0
VERTEX
  5
1B2
  8
METAL
 10
0.0
 20
0.0
 30
0.0
 70
   128
 71
   286
 72
   288
 73
   284
 74
   281
  0
VERTEX
  5
1B3
  8
METAL
 10
0.0
 20
0.0
 30
0.0
 70
   128
 71
   187
 72
   166
 73
   183
 74
   205
  0
VERTEX
  5
1B4
  8
METAL
 10
0.0
 20
0.0
 30
0.0
 70
   128
 71
   251
 72
   256
 73
   293
 74
   293
  0
VERTEX
  5
1B5
  8
METAL
 10
0.0
 20
0.0
 30
0.0
 70
   128
 71
   258
 72
   255
 73
   249
 74
   252
  0
VERTEX
  5
1B6
  8
METAL
 10
0.0
 20
0.0
 30
0.0
 70
   128
 71
   253
 72
   250
 73
   244
 74
   247
  0
VERTEX
  5
1B7
  8
METAL
 10
0.0
 20
0.0
 30
0.0
 70
   128
 71
   246
 72
   243
 73
   237
 74
   240
  0
VERTEX
  5
1B8
  8
METAL
 10
0.0
 20
0.0
 30
0.0
 70
   128
 71
   241
 72
   238
 73
   232
 74
   235
  0
VERTEX
  5
1B9
  8
METAL
 10
0.0
 20
0.0
 30
0.0
 70
   128
 71
   234
 72
   231
 73
   225
 74
   228
  0
VERTEX
  5
1BA
  8
METAL
 10
0.0
 20
0.0
 30
0.0
 70
   128
 71
   211
 72
   208
 73
   185
 74
   204
  0
VERTEX
  5
1BB
  8
METAL
 10
0.0
 20
0.0
 30
0.0
 70
   128
 71
   217
 72
   214
 73
   207
 74
   210
  0
VERTEX
  5
1BC
  8
METAL
 10
0.0
 20
0.0
 30
0.0
 70
   128
 71
   223
 72
   220
 73
   213
 74
   216
  0
VERTEX
  5
1BD
  8
METAL
 10
0.0
 20
0.0
 30
0.0
 70
   128
 71
   224
 72
   218
 73
   326
 74
   328
  0
VERTEX
  5
1BE
  8
METAL
 10
0.0
 20
0.0
 30
0.0
 70
   128
 71
   306
 72
   215
 73
   221
 74
   304
  0
VERTEX
  5
1BF
  8
METAL
 10
0.0
 20
0.0
 30
0.0
 70
   128
 71
   327
 72
   307
 73
   305
 74
   329
  0
VERTEX
  5
1C0
  8
METAL
 10
0.0
 20
0.0
 30
0.0
 70
   128
 71
   229
 72
   226
 73
   219
 74
   222
  0
VERTEX
  5
1C1
  8
METAL
 10
0.0
 20
0.0
 30
0.0
 70
   128
 71
   195
 72
   196
 73
   175
 74
   174
  0
VERTEX
  5
1C2
  8
METAL
 10
0.0
 20
0.0
 30
0.0
 70
   128
 71
   201
 72
   180
 73
   179
 74
   200
  0
VERTEX
  5
1C3
  8
METAL
 10
0.0
 20
0.0
 30
0.0
 70
   128
 71
   100
 72
    51
 73
    49
 74
   106
  0
VERTEX
  5
1C4
  8
METAL
 10
0.0
 20
0.0
 30
0.0
 70
   128
 71
     9
 72
     7
 73
    97
 74
   103
  0
VERTEX
  5
1C5
  8
METAL
 10
0.0
 20
0.0
 30
0.0
 70
   128
 71
     5
 72
    53
 73
    88
 74
    86
  0
VERTEX
  5
1C6
  8
METAL
 10
0.0
 20
0.0
 30
0.0
 70
   128
 71
    32
 72
    24
 73
    26
 74
    29
  0
VERTEX
  5
1C7
  8
METAL
 10
0.0
 20
0.0
 30
0.0
 70
   128
 71
   148
 72
    58
 73
    28
 74
   147
  0
VERTEX
  5
1C8
  8
METAL
 10
0.0
 20
0.0
 30
0.0
 70
   128
 71
    44
 72
    46
 73
    10
 74
    12
  0
VERTEX
  5
1C9
  8
METAL
 10
0.0
 20
0.0
 30
0.0
 70
   128
 71
    81
 72
   153
 73
   154
 74
    84
  0
VERTEX
  5
1CA
  8
METAL
 10
0.0
 20
0.0
 30
0.0
 70
   128
 71
   159
 72
    60
 73
    66
 74
   158
  0
VERTEX
  5
1CB
  8
METAL
 10
0.0
 20
0.0
 30
0.0
 70
   128
 71
   148
 72
   169
 73
   170
 74
   149
  0
VERTEX
  5
1CC
  8
METAL
 10
0.0
 20
0.0
 30
0.0
 70
   128
 71
   134
 72
    39
 73
    37
 74
   140
  0
VERTEX
  5
1CD
  8
METAL
 10
0.0
 20
0.0
 30
0.0
 70
   128
 71
   116
 72
    45
 73
    43
 74
   122
  0
VERTEX
  5
1CE
  8
METAL
 10
0.0
 20
0.0
 30
0.0
 70
   128
 71
   106
 72
    49
 73
    47
 74
   111
  0
VERTEX
  5
1CF
  8
METAL
 10
0.0
 20
0.0
 30
0.0
 70
   128
 71
    56
 72
    94
 73
    89
 74
    54
  0
VERTEX
  5
1D0
  8
METAL
 10
0.0
 20
0.0
 30
0.0
 70
   128
 71
    51
 72
   100
 73
    94
 74
    56
  0
VERTEX
  5
1D1
  8
METAL
 10
0.0
 20
0.0
 30
0.0
 70
   128
 71
    21
 72
    19
 73
   131
 74
   137
  0
VERTEX
  5
1D2
  8
METAL
 10
0.0
 20
0.0
 30
0.0
 70
   128
 71
    15
 72
    13
 73
   113
 74
   119
  0
VERTEX
  5
1D3
  8
METAL
 10
0.0
 20
0.0
 30
0.0
 70
   128
 71
   103
 72
   109
 73
    11
 74
     9
  0
VERTEX
  5
1D4
  8
METAL
 10
0.0
 20
0.0
 30
0.0
 70
   128
 71
     4
 72
    85
 73
    91
 74
     2
  0
VERTEX
  5
1D5
  8
METAL
 10
0.0
 20
0.0
 30
0.0
 70
   128
 71
    91
 72
    97
 73
     7
 74
     2
  0
VERTEX
  5
1D6
  8
METAL
 10
0.0
 20
0.0
 30
0.0
 70
   128
 71
     3
 72
     1
 73
    55
 74
    52
  0
VERTEX
  5
1D7
  8
METAL
 10
0.0
 20
0.0
 30
0.0
 70
   128
 71
     1
 72
     6
 73
    50
 74
    55
  0
VERTEX
  5
1D8
  8
METAL
 10
0.0
 20
0.0
 30
0.0
 70
   128
 71
     6
 72
     8
 73
    48
 74
    50
  0
VERTEX
  5
1D9
  8
METAL
 10
0.0
 20
0.0
 30
0.0
 70
   128
 71
    36
 72
    38
 73
    18
 74
    20
  0
VERTEX
  5
1DA
  8
METAL
 10
0.0
 20
0.0
 30
0.0
 70
   128
 71
    42
 72
    44
 73
    12
 74
    14
  0
VERTEX
  5
1DB
  8
METAL
 10
0.0
 20
0.0
 30
0.0
 70
   128
 71
   122
 72
    43
 73
    41
 74
   128
  0
VERTEX
  5
1DC
  8
METAL
 10
0.0
 20
0.0
 30
0.0
 70
   128
 71
    17
 72
    15
 73
   119
 74
   125
  0
VERTEX
  5
1DD
  8
METAL
 10
0.0
 20
0.0
 30
0.0
 70
   128
 71
    40
 72
    42
 73
    14
 74
    16
  0
VERTEX
  5
1DE
  8
METAL
 10
0.0
 20
0.0
 30
0.0
 70
   128
 71
   140
 72
    37
 73
    35
 74
   163
  0
VERTEX
  5
1DF
  8
METAL
 10
0.0
 20
0.0
 30
0.0
 70
   128
 71
    23
 72
    21
 73
   137
 74
   143
  0
VERTEX
  5
1E0
  8
METAL
 10
0.0
 20
0.0
 30
0.0
 70
   128
 71
    34
 72
    36
 73
    20
 74
    22
  0
VERTEX
  5
1E1
  8
METAL
 10
0.0
 20
0.0
 30
0.0
 70
   128
 71
    77
 72
    74
 73
    79
 74
    82
  0
VERTEX
  5
1E2
  8
METAL
 10
0.0
 20
0.0
 30
0.0
 70
   128
 71
    71
 72
    68
 73
    73
 74
    76
  0
VERTEX
  5
1E3
  8
METAL
 10
0.0
 20
0.0
 30
0.0
 70
   128
 71
    65
 72
    62
 73
    67
 74
    70
  0
VERTEX
  5
1E4
  8
METAL
 10
0.0
 20
0.0
 30
0.0
 70
   128
 71
    64
 72
    59
 73
    57
 74
    61
  0
VERTEX
  5
1E5
  8
METAL
 10
0.0
 20
0.0
 30
0.0
 70
   128
 71
   144
 72
   162
 73
   183
 74
   166
  0
VERTEX
  5
1E6
  8
METAL
 10
0.0
 20
0.0
 30
0.0
 70
   128
 71
    90
 72
    96
 73
    93
 74
    87
  0
VERTEX
  5
1E7
  8
METAL
 10
0.0
 20
0.0
 30
0.0
 70
   128
 71
    95
 72
   102
 73
    99
 74
    92
  0
VERTEX
  5
1E8
  8
METAL
 10
0.0
 20
0.0
 30
0.0
 70
   128
 71
   101
 72
   108
 73
   105
 74
    98
  0
VERTEX
  5
1E9
  8
METAL
 10
0.0
 20
0.0
 30
0.0
 70
   128
 71
   115
 72
   110
 73
   112
 74
   118
  0
VERTEX
  5
1EA
  8
METAL
 10
0.0
 20
0.0
 30
0.0
 70
   128
 71
   117
 72
   123
 73
   120
 74
   114
  0
VERTEX
  5
1EB
  8
METAL
 10
0.0
 20
0.0
 30
0.0
 70
   128
 71
   141
 72
   164
 73
   145
 74
   138
  0
VERTEX
  5
1EC
  8
METAL
 10
0.0
 20
0.0
 30
0.0
 70
   128
 71
   135
 72
   142
 73
   139
 74
   132
  0
VERTEX
  5
1ED
  8
METAL
 10
0.0
 20
0.0
 30
0.0
 70
   128
 71
   129
 72
   136
 73
   133
 74
   126
  0
VERTEX
  5
1EE
  8
METAL
 10
0.0
 20
0.0
 30
0.0
 70
   128
 71
   128
 72
    41
 73
    39
 74
   134
  0
VERTEX
  5
1EF
  8
METAL
 10
0.0
 20
0.0
 30
0.0
 70
   128
 71
    19
 72
    17
 73
   125
 74
   131
  0
VERTEX
  5
1F0
  8
METAL
 10
0.0
 20
0.0
 30
0.0
 70
   128
 71
    38
 72
    40
 73
    16
 74
    18
  0
VERTEX
  5
1F1
  8
METAL
 10
0.0
 20
0.0
 30
0.0
 70
   128
 71
   124
 72
   130
 73
   127
 74
   121
  0
VERTEX
  5
1F2
  8
METAL
 10
0.0
 20
0.0
 30
0.0
 70
   128
 71
   153
 72
   174
 73
   175
 74
   154
  0
VERTEX
  5
1F3
  8
METAL
 10
0.0
 20
0.0
 30
0.0
 70
   128
 71
   180
 72
   159
 73
   158
 74
   179
  0
VERTEX
  5
1F4
  8
METAL
 10
0.0
 20
0.0
 30
0.0
 70
   128
 71
   320
 72
   203
 73
   202
 74
   317
  0
VERTEX
  5
1F5
  8
METAL
 10
0.0
 20
0.0
 30
0.0
 70
   128
 71
   203
 72
   182
 73
   181
 74
   202
  0
VERTEX
  5
1F6
  8
METAL
 10
0.0
 20
0.0
 30
0.0
 70
   128
 71
   182
 72
   161
 73
   160
 74
   181
  0
VERTEX
  5
1F7
  8
METAL
 10
0.0
 20
0.0
 30
0.0
 70
   128
 71
   161
 72
    33
 73
    31
 74
   160
  0
VERTEX
  5
1F8
  8
METAL
 10
0.0
 20
0.0
 30
0.0
 70
   128
 71
    78
 72
   156
 73
   157
 74
    72
  0
VERTEX
  5
1F9
  8
METAL
 10
0.0
 20
0.0
 30
0.0
 70
   128
 71
   156
 72
   177
 73
   178
 74
   157
  0
VERTEX
  5
1FA
  8
METAL
 10
0.0
 20
0.0
 30
0.0
 70
   128
 71
   177
 72
   198
 73
   199
 74
   178
  0
VERTEX
  5
1FB
  8
METAL
 10
0.0
 20
0.0
 30
0.0
 70
   128
 71
   199
 72
   198
 73
   270
 74
   276
  0
VERTEX
  5
1FC
  8
METAL
 10
0.0
 20
0.0
 30
0.0
 70
   128
 71
   276
 72
   282
 73
   200
 74
   199
  0
VERTEX
  5
1FD
  8
METAL
 10
0.0
 20
0.0
 30
0.0
 70
   128
 71
   200
 72
   179
 73
   178
 74
   199
  0
VERTEX
  5
1FE
  8
METAL
 10
0.0
 20
0.0
 30
0.0
 70
   128
 71
   179
 72
   158
 73
   157
 74
   178
  0
VERTEX
  5
1FF
  8
METAL
 10
0.0
 20
0.0
 30
0.0
 70
   128
 71
   158
 72
    66
 73
    72
 74
   157
  0
VERTEX
  5
200
  8
METAL
 10
0.0
 20
0.0
 30
0.0
 70
   128
 71
    83
 72
   155
 73
   156
 74
    78
  0
VERTEX
  5
201
  8
METAL
 10
0.0
 20
0.0
 30
0.0
 70
   128
 71
   155
 72
   176
 73
   177
 74
   156
  0
VERTEX
  5
202
  8
METAL
 10
0.0
 20
0.0
 30
0.0
 70
   128
 71
   176
 72
   197
 73
   198
 74
   177
  0
VERTEX
  5
203
  8
METAL
 10
0.0
 20
0.0
 30
0.0
 70
   128
 71
   198
 72
   197
 73
   265
 74
   270
  0
VERTEX
  5
204
  8
METAL
 10
0.0
 20
0.0
 30
0.0
 70
   128
 71
    25
 72
   146
 73
   147
 74
    28
  0
VERTEX
  5
205
  8
METAL
 10
0.0
 20
0.0
 30
0.0
 70
   128
 71
   146
 72
   167
 73
   168
 74
   147
  0
VERTEX
  5
206
  8
METAL
 10
0.0
 20
0.0
 30
0.0
 70
   128
 71
   167
 72
   188
 73
   189
 74
   168
  0
VERTEX
  5
207
  8
METAL
 10
0.0
 20
0.0
 30
0.0
 70
   128
 71
   188
 72
   312
 73
   314
 74
   189
  0
VERTEX
  5
208
  8
METAL
 10
0.0
 20
0.0
 30
0.0
 70
   128
 71
   267
 72
   193
 73
   192
 74
   273
  0
VERTEX
  5
209
  8
METAL
 10
0.0
 20
0.0
 30
0.0
 70
   128
 71
   193
 72
   172
 73
   171
 74
   192
  0
VERTEX
  5
20A
  8
METAL
 10
0.0
 20
0.0
 30
0.0
 70
   128
 71
   172
 72
   151
 73
   150
 74
   171
  0
VERTEX
  5
20B
  8
METAL
 10
0.0
 20
0.0
 30
0.0
 70
   128
 71
   150
 72
   151
 73
    75
 74
    69
  0
VERTEX
  5
20C
  8
METAL
 10
0.0
 20
0.0
 30
0.0
 70
   128
 71
    69
 72
    63
 73
   149
 74
   150
  0
VERTEX
  5
20D
  8
METAL
 10
0.0
 20
0.0
 30
0.0
 70
   128
 71
   149
 72
   170
 73
   171
 74
   150
  0
VERTEX
  5
20E
  8
METAL
 10
0.0
 20
0.0
 30
0.0
 70
   128
 71
   170
 72
   191
 73
   192
 74
   171
  0
VERTEX
  5
20F
  8
METAL
 10
0.0
 20
0.0
 30
0.0
 70
   128
 71
   191
 72
   279
 73
   273
 74
   192
  0
VERTEX
  5
210
  8
METAL
 10
0.0
 20
0.0
 30
0.0
 70
   128
 71
   262
 72
   194
 73
   193
 74
   267
  0
VERTEX
  5
211
  8
METAL
 10
0.0
 20
0.0
 30
0.0
 70
   128
 71
   194
 72
   173
 73
   172
 74
   193
  0
VERTEX
  5
212
  8
METAL
 10
0.0
 20
0.0
 30
0.0
 70
   128
 71
   173
 72
   152
 73
   151
 74
   172
  0
VERTEX
  5
213
  8
METAL
 10
0.0
 20
0.0
 30
0.0
 70
   128
 71
   151
 72
   152
 73
    80
 74
    75
  0
VERTEX
  5
214
  8
METAL
 10
0.0
 20
0.0
 30
0.0
 70
   128
 71
    48
 72
     8
 73
    10
 74
    46
  0
VERTEX
  5
215
  8
METAL
 10
0.0
 20
0.0
 30
0.0
 70
   128
 71
    45
 72
   116
 73
   111
 74
    47
  0
VERTEX
  5
216
  8
METAL
 10
0.0
 20
0.0
 30
0.0
 70
   128
 71
   109
 72
   113
 73
    13
 74
    11
  0
VERTEX
  5
217
  8
METAL
 10
0.0
 20
0.0
 30
0.0
 70
   128
 71
   104
 72
   107
 73
   112
 74
   110
  0
VERTEX
  5
218
  8
METAL
 10
0.0
 20
0.0
 30
0.0
 70
   128
 71
   311
 72
   323
 73
   321
 74
   313
  0
VERTEX
  5
219
  8
METAL
 10
0.0
 20
0.0
 30
0.0
 70
   128
 71
    34
 72
    22
 73
    24
 74
    32
  0
VERTEX
  5
21A
  8
METAL
 10
0.0
 20
0.0
 30
0.0
 70
   128
 71
   322
 72
   206
 73
   203
 74
   320
  0
VERTEX
  5
21B
  8
METAL
 10
0.0
 20
0.0
 30
0.0
 70
   128
 71
   206
 72
   184
 73
   182
 74
   203
  0
VERTEX
  5
21C
  8
METAL
 10
0.0
 20
0.0
 30
0.0
 70
   128
 71
   184
 72
   163
 73
   161
 74
   182
  0
VERTEX
  5
21D
  8
METAL
 10
0.0
 20
0.0
 30
0.0
 70
   128
 71
   163
 72
    35
 73
    33
 74
   161
  0
VERTEX
  5
21E
  8
METAL
 10
0.0
 20
0.0
 30
0.0
 70
   128
 71
    23
 72
   143
 73
   146
 74
    25
  0
VERTEX
  5
21F
  8
METAL
 10
0.0
 20
0.0
 30
0.0
 70
   128
 71
   143
 72
   165
 73
   167
 74
   146
  0
VERTEX
  5
220
  8
METAL
 10
0.0
 20
0.0
 30
0.0
 70
   128
 71
   165
 72
   186
 73
   188
 74
   167
  0
VERTEX
  5
221
  8
METAL
 10
0.0
 20
0.0
 30
0.0
 70
   128
 71
   186
 72
   310
 73
   312
 74
   188
  0
VERTEX
  5
222
  8
METAL
 10
0.0
 20
0.0
 30
0.0
 70
   128
 71
   279
 72
   191
 73
   190
 74
   285
  0
VERTEX
  5
223
  8
METAL
 10
0.0
 20
0.0
 30
0.0
 70
   128
 71
   287
 72
   317
 73
   202
 74
   201
  0
VERTEX
  5
224
  8
METAL
 10
0.0
 20
0.0
 30
0.0
 70
   128
 71
   168
 72
   189
 73
   190
 74
   169
  0
VERTEX
  5
225
  8
METAL
 10
0.0
 20
0.0
 30
0.0
 70
   128
 71
   315
 72
   318
 73
   288
 74
   286
  0
VERTEX
  5
226
  8
METAL
 10
0.0
 20
0.0
 30
0.0
 70
   128
 71
   202
 72
   181
 73
   180
 74
   201
  0
VERTEX
  5
227
  8
METAL
 10
0.0
 20
0.0
 30
0.0
 70
   128
 71
   149
 72
    63
 73
    58
 74
   148
  0
VERTEX
  5
228
  8
METAL
 10
0.0
 20
0.0
 30
0.0
 70
   128
 71
   160
 72
    31
 73
    60
 74
   159
  0
VERTEX
  5
229
  8
METAL
 10
0.0
 20
0.0
 30
0.0
 70
   128
 71
   147
 72
   168
 73
   169
 74
   148
  0
VERTEX
  5
22A
  8
METAL
 10
0.0
 20
0.0
 30
0.0
 70
   128
 71
    30
 72
    27
 73
    57
 74
    59
  0
VERTEX
  5
22B
  8
METAL
 10
0.0
 20
0.0
 30
0.0
 70
   128
 71
   181
 72
   160
 73
   159
 74
   180
  0
SEQEND
  5
238
  8
METAL
  0
ENDSEC
  0
EOF
