  0
SECTION
  2
HEADER
  9
$ACADVER
  1
AC1009
  9
$DWGCODEPAGE
  3
ansi_1252
  9
$INSBASE
 10
0.0
 20
0.0
 30
0.0
  9
$EXTMIN
 10
-195.0
 20
-29.43212890625
 30
-20.0
  9
$EXTMAX
 10
194.947868347168
 20
0.0
 30
20.57023525238037
  9
$LIMMIN
 10
0.0
 20
0.0
  9
$LIMMAX
 10
12.0
 20
9.0
  9
$ORTHOMODE
 70
     1
  9
$REGENMODE
 70
     1
  9
$FILLMODE
 70
     1
  9
$QTEXTMODE
 70
     0
  9
$MIRRTEXT
 70
     1
  9
$DRAGMODE
 70
     2
  9
$LTSCALE
 40
1.0
  9
$OSMODE
 70
    37
  9
$ATTMODE
 70
     1
  9
$TEXTSIZE
 40
0.2
  9
$TRACEWID
 40
0.05
  9
$TEXTSTYLE
  7
STANDARD
  9
$CLAYER
  8
0
  9
$CELTYPE
  6
BYLAYER
  9
$CECOLOR
 62
   256
  9
$DIMSCALE
 40
1.0
  9
$DIMASZ
 40
0.18
  9
$DIMEXO
 40
0.0625
  9
$DIMDLI
 40
0.38
  9
$DIMRND
 40
0.0
  9
$DIMDLE
 40
0.0
  9
$DIMEXE
 40
0.18
  9
$DIMTP
 40
0.0
  9
$DIMTM
 40
0.0
  9
$DIMTXT
 40
0.18
  9
$DIMCEN
 40
0.09
  9
$DIMTSZ
 40
0.0
  9
$DIMTOL
 70
     0
  9
$DIMLIM
 70
     0
  9
$DIMTIH
 70
     1
  9
$DIMTOH
 70
     1
  9
$DIMSE1
 70
     0
  9
$DIMSE2
 70
     0
  9
$DIMTAD
 70
     0
  9
$DIMZIN
 70
     0
  9
$DIMBLK
  1

  9
$DIMASO
 70
     1
  9
$DIMSHO
 70
     1
  9
$DIMPOST
  1

  9
$DIMAPOST
  1

  9
$DIMALT
 70
     0
  9
$DIMALTD
 70
     2
  9
$DIMALTF
 40
25.4
  9
$DIMLFAC
 40
1.0
  9
$DIMTOFL
 70
     0
  9
$DIMTVP
 40
0.0
  9
$DIMTIX
 70
     0
  9
$DIMSOXD
 70
     0
  9
$DIMSAH
 70
     0
  9
$DIMBLK1
  1

  9
$DIMBLK2
  1

  9
$DIMSTYLE
  2
STANDARD
  9
$DIMCLRD
 70
     0
  9
$DIMCLRE
 70
     0
  9
$DIMCLRT
 70
     0
  9
$DIMTFAC
 40
1.0
  9
$DIMGAP
 40
0.09
  9
$LUNITS
 70
     2
  9
$LUPREC
 70
     3
  9
$SKETCHINC
 40
0.1
  9
$FILLETRAD
 40
0.5
  9
$AUNITS
 70
     0
  9
$AUPREC
 70
     0
  9
$MENU
  1
.
  9
$ELEVATION
 40
0.0
  9
$PELEVATION
 40
0.0
  9
$THICKNESS
 40
0.0
  9
$LIMCHECK
 70
     0
  9
$CHAMFERA
 40
0.5
  9
$CHAMFERB
 40
0.5
  9
$SKPOLY
 70
     0
  9
$TDCREATE
 40
2456498.744423646
  9
$TDUPDATE
 40
2456498.744423646
  9
$TDINDWG
 40
0.0008333333
  9
$TDUSRTIMER
 40
0.0008333333
  9
$USRTIMER
 70
     1
  9
$ANGBASE
 50
0.0
  9
$ANGDIR
 70
     0
  9
$PDMODE
 70
     0
  9
$PDSIZE
 40
0.0
  9
$PLINEWID
 40
0.0
  9
$COORDS
 70
     1
  9
$SPLFRAME
 70
     0
  9
$SPLINETYPE
 70
     6
  9
$SPLINESEGS
 70
     8
  9
$ATTDIA
 70
     0
  9
$ATTREQ
 70
     1
  9
$HANDLING
 70
     1
  9
$HANDSEED
  5
27D
  9
$SURFTAB1
 70
     6
  9
$SURFTAB2
 70
     6
  9
$SURFTYPE
 70
     6
  9
$SURFU
 70
     6
  9
$SURFV
 70
     6
  9
$UCSNAME
  2

  9
$UCSORG
 10
0.0
 20
0.0
 30
0.0
  9
$UCSXDIR
 10
1.0
 20
0.0
 30
0.0
  9
$UCSYDIR
 10
0.0
 20
0.0
 30
1.0
  9
$PUCSNAME
  2

  9
$PUCSORG
 10
0.0
 20
0.0
 30
0.0
  9
$PUCSXDIR
 10
1.0
 20
0.0
 30
0.0
  9
$PUCSYDIR
 10
0.0
 20
1.0
 30
0.0
  9
$USERI1
 70
     0
  9
$USERI2
 70
     0
  9
$USERI3
 70
     0
  9
$USERI4
 70
     0
  9
$USERI5
 70
     0
  9
$USERR1
 40
0.0
  9
$USERR2
 40
0.0
  9
$USERR3
 40
0.0
  9
$USERR4
 40
0.0
  9
$USERR5
 40
0.0
  9
$WORLDVIEW
 70
     1
  9
$SHADEDGE
 70
     3
  9
$SHADEDIF
 70
    70
  9
$TILEMODE
 70
     1
  9
$MAXACTVP
 70
    64
  9
$PLIMCHECK
 70
     0
  9
$PEXTMIN
 10
1.000000000000000E+20
 20
1.000000000000000E+20
 30
1.000000000000000E+20
  9
$PEXTMAX
 10
-1.000000000000000E+20
 20
-1.000000000000000E+20
 30
-1.000000000000000E+20
  9
$PLIMMIN
 10
0.0
 20
0.0
  9
$PLIMMAX
 10
12.0
 20
9.0
  9
$UNITMODE
 70
     0
  9
$VISRETAIN
 70
     1
  9
$PLINEGEN
 70
     0
  9
$PSLTSCALE
 70
     1
  0
ENDSEC
  0
SECTION
  2
TABLES
  0
TABLE
  2
VPORT
 70
     1
  0
VPORT
  2
*ACTIVE
 70
     0
 10
0.0
 20
0.0
 11
1.0
 21
1.0
 12
10.38739764456701
 22
-5.785651917471644
 13
0.0
 23
0.0
 14
0.5
 24
0.5
 15
0.5
 25
0.5
 16
-1.0
 26
-1.0
 36
1.0
 17
0.0
 27
0.0
 37
0.0
 40
260.5291972631732
 41
13.24905410645852
 42
50.0
 43
0.0
 44
0.0
 50
0.0
 51
0.0
 71
    16
 72
   100
 73
     0
 74
     1
 75
     0
 76
     0
 77
     0
 78
     0
  0
ENDTAB
  0
TABLE
  2
LTYPE
 70
     1
  0
LTYPE
  2
CONTINUOUS
 70
     0
  3
Solid line
 72
    65
 73
     0
 40
0.0
  0
ENDTAB
  0
TABLE
  2
LAYER
 70
     2
  0
LAYER
  2
0
 70
     0
 62
     7
  6
CONTINUOUS
  0
LAYER
  2
METAL
 70
     0
 62
   180
  6
CONTINUOUS
  0
ENDTAB
  0
TABLE
  2
STYLE
 70
     1
  0
STYLE
  2
STANDARD
 70
     0
 40
0.0
 41
1.0
 50
0.0
 71
     0
 42
0.2
  3
txt
  4

  0
ENDTAB
  0
TABLE
  2
VIEW
 70
     0
  0
ENDTAB
  0
TABLE
  2
UCS
 70
     0
  0
ENDTAB
  0
TABLE
  2
APPID
 70
     1
  0
APPID
  2
ACAD
 70
     0
  0
ENDTAB
  0
TABLE
  2
DIMSTYLE
 70
     1
  0
DIMSTYLE
  2
STANDARD
 70
     0
  3

  4

  5

  6

  7

 40
1.0
 41
0.18
 42
0.0625
 43
0.38
 44
0.18
 45
0.0
 46
0.0
 47
0.0
 48
0.0
140
0.18
141
0.09
142
0.0
143
25.4
144
1.0
145
0.0
146
1.0
147
0.09
 71
     0
 72
     0
 73
     1
 74
     1
 75
     0
 76
     0
 77
     0
 78
     0
170
     0
171
     2
172
     0
173
     0
174
     0
175
     0
176
     0
177
     0
178
     0
  0
ENDTAB
  0
ENDSEC
  0
SECTION
  2
BLOCKS
  0
BLOCK
  8
0
  2
$MODEL_SPACE
 70
     0
 10
0.0
 20
0.0
 30
0.0
  3
$MODEL_SPACE
  1

  0
ENDBLK
  5
21
  8
0
  0
BLOCK
 67
     1
  8
0
  2
$PAPER_SPACE
 70
     0
 10
0.0
 20
0.0
 30
0.0
  3
$PAPER_SPACE
  1

  0
ENDBLK
  5
76
 67
     1
  8
0
  0
ENDSEC
  0
SECTION
  2
ENTITIES
  0
POLYLINE
  5
3C
  8
METAL
 66
     1
 10
0.0
 20
0.0
 30
0.0
 70
    64
 71
   303
 72
   194
  0
VERTEX
  5
3D
  8
METAL
 10
194.947868347168
 20
-0.4075927734375
 30
17.61720943450928
 70
   192
  0
VERTEX
  5
3E
  8
METAL
 10
194.947868347168
 20
-0.4075927734375
 30
17.61720943450928
 70
   192
  0
VERTEX
  5
3F
  8
METAL
 10
194.947868347168
 20
-0.4075927734375
 30
12.98129510879517
 70
   192
  0
VERTEX
  5
40
  8
METAL
 10
194.947868347168
 20
-0.4075927734375
 30
12.98129510879517
 70
   192
  0
VERTEX
  5
41
  8
METAL
 10
194.947868347168
 20
-29.43209838867188
 30
17.61721324920654
 70
   192
  0
VERTEX
  5
42
  8
METAL
 10
194.947868347168
 20
-29.43209838867188
 30
17.61721324920654
 70
   192
  0
VERTEX
  5
43
  8
METAL
 10
194.947868347168
 20
-29.43209838867188
 30
12.98129796981812
 70
   192
  0
VERTEX
  5
44
  8
METAL
 10
194.947868347168
 20
-29.43209838867188
 30
12.98129796981812
 70
   192
  0
VERTEX
  5
45
  8
METAL
 10
194.2096481323243
 20
-1.145843505859375
 30
19.83197498321533
 70
   192
  0
VERTEX
  5
46
  8
METAL
 10
194.2096481323243
 20
-1.145843505859375
 30
19.83197498321533
 70
   192
  0
VERTEX
  5
47
  8
METAL
 10
194.2096481323243
 20
-1.145843505859375
 30
19.83197498321533
 70
   192
  0
VERTEX
  5
48
  8
METAL
 10
194.2096481323243
 20
-1.145843505859375
 30
10.76652908325195
 70
   192
  0
VERTEX
  5
49
  8
METAL
 10
194.2096481323243
 20
-1.145843505859375
 30
10.76652908325195
 70
   192
  0
VERTEX
  5
4A
  8
METAL
 10
194.2096481323243
 20
-1.145843505859375
 30
10.76652908325195
 70
   192
  0
VERTEX
  5
4B
  8
METAL
 10
194.2096481323243
 20
-28.69384765625
 30
19.8319787979126
 70
   192
  0
VERTEX
  5
4C
  8
METAL
 10
194.2096481323243
 20
-28.69384765625
 30
19.8319787979126
 70
   192
  0
VERTEX
  5
4D
  8
METAL
 10
194.2096481323243
 20
-28.69384765625
 30
19.8319787979126
 70
   192
  0
VERTEX
  5
4E
  8
METAL
 10
194.2096481323243
 20
-28.69384765625
 30
10.76653301715851
 70
   192
  0
VERTEX
  5
4F
  8
METAL
 10
194.2096481323243
 20
-28.69384765625
 30
10.76653301715851
 70
   192
  0
VERTEX
  5
50
  8
METAL
 10
194.2096481323243
 20
-28.69384765625
 30
10.76653301715851
 70
   192
  0
VERTEX
  5
51
  8
METAL
 10
191.9948654174805
 20
-3.360626220703125
 30
20.57022857666016
 70
   192
  0
VERTEX
  5
52
  8
METAL
 10
191.9948654174805
 20
-3.360626220703125
 30
10.02827405929565
 70
   192
  0
VERTEX
  5
53
  8
METAL
 10
191.9948654174805
 20
-26.47906494140631
 30
20.57023334503174
 70
   192
  0
VERTEX
  5
54
  8
METAL
 10
191.9948654174805
 20
-26.47906494140631
 30
10.02827805280685
 70
   192
  0
VERTEX
  5
55
  8
METAL
 10
155.1493301391602
 20
-0.4075927734375
 30
17.61720943450928
 70
   192
  0
VERTEX
  5
56
  8
METAL
 10
155.1493301391602
 20
-0.4075927734375
 30
17.61720943450928
 70
   192
  0
VERTEX
  5
57
  8
METAL
 10
155.1493301391602
 20
-0.4075927734375
 30
12.98129415512085
 70
   192
  0
VERTEX
  5
58
  8
METAL
 10
155.1493301391602
 20
-0.4075927734375
 30
12.98129415512085
 70
   192
  0
VERTEX
  5
23B
  8
METAL
 10
155.1493301391602
 20
-1.145843505859375
 30
19.83197498321533
 70
   192
  0
VERTEX
  5
23C
  8
METAL
 10
155.1493301391602
 20
-1.145843505859375
 30
19.83197498321533
 70
   192
  0
VERTEX
  5
5B
  8
METAL
 10
155.1493301391602
 20
-1.145843505859375
 30
19.83197498321533
 70
   192
  0
VERTEX
  5
5C
  8
METAL
 10
155.1493301391602
 20
-1.145843505859375
 30
10.76652801036835
 70
   192
  0
VERTEX
  5
5D
  8
METAL
 10
155.1493301391602
 20
-1.145843505859375
 30
10.76652801036835
 70
   192
  0
VERTEX
  5
23D
  8
METAL
 10
155.1493301391602
 20
-1.145843505859375
 30
10.76652801036835
 70
   192
  0
VERTEX
  5
5F
  8
METAL
 10
155.1493301391602
 20
-3.360626220703125
 30
20.57022857666016
 70
   192
  0
VERTEX
  5
60
  8
METAL
 10
155.1493301391602
 20
-3.360626220703125
 30
10.02827405929565
 70
   192
  0
VERTEX
  5
61
  8
METAL
 10
155.1493301391602
 20
-26.47906494140631
 30
20.57023334503174
 70
   192
  0
VERTEX
  5
62
  8
METAL
 10
155.1493301391602
 20
-26.47906494140631
 30
10.02827703952789
 70
   192
  0
VERTEX
  5
63
  8
METAL
 10
155.1493301391602
 20
-28.69384765625
 30
19.8319787979126
 70
   192
  0
VERTEX
  5
64
  8
METAL
 10
155.1493301391602
 20
-28.69384765625
 30
19.8319787979126
 70
   192
  0
VERTEX
  5
65
  8
METAL
 10
155.1493301391602
 20
-28.69384765625
 30
10.76653206348419
 70
   192
  0
VERTEX
  5
66
  8
METAL
 10
155.1493301391602
 20
-28.69384765625
 30
10.76653206348419
 70
   192
  0
VERTEX
  5
67
  8
METAL
 10
155.1493301391602
 20
-29.43209838867188
 30
17.61721324920654
 70
   192
  0
VERTEX
  5
68
  8
METAL
 10
155.1493301391602
 20
-29.43209838867188
 30
12.9812970161438
 70
   192
  0
VERTEX
  5
69
  8
METAL
 10
150.7046585083008
 20
-5.642913818359375
 30
17.61720943450928
 70
   192
  0
VERTEX
  5
6A
  8
METAL
 10
150.7046585083008
 20
-5.642913818359375
 30
12.98129606246948
 70
   192
  0
VERTEX
  5
23E
  8
METAL
 10
150.7046585083008
 20
-6.381164550781307
 30
19.83197498321533
 70
   192
  0
VERTEX
  5
23F
  8
METAL
 10
150.7046585083008
 20
-6.381164550781307
 30
19.83197498321533
 70
   192
  0
VERTEX
  5
6D
  8
METAL
 10
150.7046585083008
 20
-6.381164550781307
 30
10.76653003692627
 70
   192
  0
VERTEX
  5
6E
  8
METAL
 10
150.7046585083008
 20
-6.381164550781307
 30
10.76653003692627
 70
   192
  0
VERTEX
  5
6F
  8
METAL
 10
150.7046585083008
 20
-8.595916748046875
 30
20.57023143768311
 70
   192
  0
VERTEX
  5
70
  8
METAL
 10
150.7046585083008
 20
-8.595916748046875
 30
10.02827507257462
 70
   192
  0
VERTEX
  5
71
  8
METAL
 10
150.7046585083008
 20
-26.47906494140631
 30
20.57023334503174
 70
   192
  0
VERTEX
  5
72
  8
METAL
 10
150.7046585083008
 20
-26.47906494140631
 30
10.02827805280685
 70
   192
  0
VERTEX
  5
240
  8
METAL
 10
150.7046585083008
 20
-28.69384765625
 30
19.8319787979126
 70
   192
  0
VERTEX
  5
241
  8
METAL
 10
150.7046585083008
 20
-28.69384765625
 30
19.8319787979126
 70
   192
  0
VERTEX
  5
242
  8
METAL
 10
150.7046585083008
 20
-28.69384765625
 30
10.76653301715851
 70
   192
  0
VERTEX
  5
243
  8
METAL
 10
150.7046585083008
 20
-28.69384765625
 30
10.76653301715851
 70
   192
  0
VERTEX
  5
77
  8
METAL
 10
150.7046585083008
 20
-29.43209838867188
 30
17.61721324920654
 70
   192
  0
VERTEX
  5
78
  8
METAL
 10
150.7046585083008
 20
-29.43209838867188
 30
12.98129796981812
 70
   192
  0
VERTEX
  5
79
  8
METAL
 10
146.2599563598633
 20
-9.634216308593693
 30
17.61721134185791
 70
   192
  0
VERTEX
  5
7A
  8
METAL
 10
146.2599563598633
 20
-9.634216308593693
 30
12.98129606246948
 70
   192
  0
VERTEX
  5
7B
  8
METAL
 10
146.2599563598633
 20
-10.37246704101562
 30
19.83197689056396
 70
   192
  0
VERTEX
  5
7C
  8
METAL
 10
146.2599563598633
 20
-10.37246704101562
 30
19.83197689056396
 70
   192
  0
VERTEX
  5
7D
  8
METAL
 10
146.2599563598633
 20
-10.37246704101562
 30
10.76653003692627
 70
   192
  0
VERTEX
  5
7E
  8
METAL
 10
146.2599563598633
 20
-10.37246704101562
 30
10.76653003692627
 70
   192
  0
VERTEX
  5
7F
  8
METAL
 10
146.2599563598633
 20
-12.58721923828131
 30
20.57023143768311
 70
   192
  0
VERTEX
  5
80
  8
METAL
 10
146.2599563598633
 20
-12.58721923828131
 30
10.02827602624893
 70
   192
  0
VERTEX
  5
81
  8
METAL
 10
146.2599563598633
 20
-26.47906494140631
 30
20.57023334503174
 70
   192
  0
VERTEX
  5
82
  8
METAL
 10
146.2599563598633
 20
-26.47906494140631
 30
10.02827805280685
 70
   192
  0
VERTEX
  5
83
  8
METAL
 10
146.2599563598633
 20
-28.69384765625
 30
19.8319787979126
 70
   192
  0
VERTEX
  5
84
  8
METAL
 10
146.2599563598633
 20
-28.69384765625
 30
19.8319787979126
 70
   192
  0
VERTEX
  5
85
  8
METAL
 10
146.2599563598633
 20
-28.69384765625
 30
10.76653301715851
 70
   192
  0
VERTEX
  5
86
  8
METAL
 10
146.2599563598633
 20
-28.69384765625
 30
10.76653301715851
 70
   192
  0
VERTEX
  5
87
  8
METAL
 10
146.2599563598633
 20
-29.43209838867188
 30
17.61721324920654
 70
   192
  0
VERTEX
  5
88
  8
METAL
 10
146.2599563598633
 20
-29.43209838867188
 30
12.98129796981812
 70
   192
  0
VERTEX
  5
89
  8
METAL
 10
140.0560379028321
 20
-13.68618774414062
 30
17.61721324920654
 70
   192
  0
VERTEX
  5
8A
  8
METAL
 10
140.0560379028321
 20
-13.68618774414062
 30
12.98129606246948
 70
   192
  0
VERTEX
  5
8B
  8
METAL
 10
140.0560379028321
 20
-14.4244384765625
 30
19.8319787979126
 70
   192
  0
VERTEX
  5
8C
  8
METAL
 10
140.0560379028321
 20
-14.4244384765625
 30
19.8319787979126
 70
   192
  0
VERTEX
  5
8D
  8
METAL
 10
140.0560379028321
 20
-14.4244384765625
 30
10.76653099060059
 70
   192
  0
VERTEX
  5
8E
  8
METAL
 10
140.0560379028321
 20
-14.4244384765625
 30
10.76653099060059
 70
   192
  0
VERTEX
  5
8F
  8
METAL
 10
140.0560379028321
 20
-16.63922119140631
 30
20.57023334503174
 70
   192
  0
VERTEX
  5
90
  8
METAL
 10
140.0560379028321
 20
-16.63922119140631
 30
10.02827602624893
 70
   192
  0
VERTEX
  5
91
  8
METAL
 10
140.0560379028321
 20
-26.47906494140631
 30
20.57023334503174
 70
   192
  0
VERTEX
  5
244
  8
METAL
 10
140.0560379028321
 20
-26.47906494140631
 30
10.02827805280685
 70
   192
  0
VERTEX
  5
245
  8
METAL
 10
140.0560379028321
 20
-28.69384765625
 30
19.8319787979126
 70
   192
  0
VERTEX
  5
94
  8
METAL
 10
140.0560379028321
 20
-28.69384765625
 30
19.8319787979126
 70
   192
  0
VERTEX
  5
95
  8
METAL
 10
140.0560379028321
 20
-28.69384765625
 30
10.76653301715851
 70
   192
  0
VERTEX
  5
96
  8
METAL
 10
140.0560379028321
 20
-28.69384765625
 30
10.76653301715851
 70
   192
  0
VERTEX
  5
246
  8
METAL
 10
140.0560379028321
 20
-29.43209838867188
 30
17.61721324920654
 70
   192
  0
VERTEX
  5
247
  8
METAL
 10
140.0560379028321
 20
-29.43209838867188
 30
12.98129796981812
 70
   192
  0
VERTEX
  5
99
  8
METAL
 10
130.3020401000977
 20
-17.79977416992188
 30
17.61721134185791
 70
   192
  0
VERTEX
  5
9A
  8
METAL
 10
130.3020401000977
 20
-17.79977416992188
 30
12.9812970161438
 70
   192
  0
VERTEX
  5
9B
  8
METAL
 10
130.3020401000977
 20
-18.53802490234369
 30
19.83197689056396
 70
   192
  0
VERTEX
  5
9C
  8
METAL
 10
130.3020401000977
 20
-18.53802490234369
 30
19.83197689056396
 70
   192
  0
VERTEX
  5
9D
  8
METAL
 10
130.3020401000977
 20
-18.53802490234369
 30
10.76653301715851
 70
   192
  0
VERTEX
  5
9E
  8
METAL
 10
130.3020401000977
 20
-18.53802490234369
 30
10.76653301715851
 70
   192
  0
VERTEX
  5
9F
  8
METAL
 10
130.3020401000977
 20
-20.75277709960938
 30
20.57023143768311
 70
   192
  0
VERTEX
  5
A0
  8
METAL
 10
130.3020401000977
 20
-20.75277709960938
 30
10.02827805280685
 70
   192
  0
VERTEX
  5
A1
  8
METAL
 10
130.3020401000977
 20
-26.47906494140631
 30
20.57023334503174
 70
   192
  0
VERTEX
  5
A2
  8
METAL
 10
130.3020401000977
 20
-26.47909545898438
 30
10.02827906608582
 70
   192
  0
VERTEX
  5
A3
  8
METAL
 10
130.3020401000977
 20
-28.69384765625
 30
19.8319787979126
 70
   192
  0
VERTEX
  5
A4
  8
METAL
 10
130.3020401000977
 20
-28.69384765625
 30
19.8319787979126
 70
   192
  0
VERTEX
  5
A5
  8
METAL
 10
130.3020401000977
 20
-28.69384765625
 30
10.76653409004211
 70
   192
  0
VERTEX
  5
A6
  8
METAL
 10
130.3020401000977
 20
-28.69384765625
 30
10.76653409004211
 70
   192
  0
VERTEX
  5
A7
  8
METAL
 10
130.3020401000977
 20
-29.43209838867188
 30
17.61721324920654
 70
   192
  0
VERTEX
  5
A8
  8
METAL
 10
130.3020401000977
 20
-29.43209838867188
 30
12.98129916191101
 70
   192
  0
VERTEX
  5
A9
  8
METAL
 10
124.4520339965821
 20
-19.35140991210938
 30
17.61721134185791
 70
   192
  0
VERTEX
  5
AA
  8
METAL
 10
124.4520339965821
 20
-19.35140991210938
 30
12.98129796981812
 70
   192
  0
VERTEX
  5
AB
  8
METAL
 10
124.4520339965821
 20
-20.08966064453131
 30
19.83197689056396
 70
   192
  0
VERTEX
  5
AC
  8
METAL
 10
124.4520339965821
 20
-20.08966064453131
 30
19.83197689056396
 70
   192
  0
VERTEX
  5
AD
  8
METAL
 10
124.4520339965821
 20
-20.08966064453131
 30
10.76653301715851
 70
   192
  0
VERTEX
  5
AE
  8
METAL
 10
124.4520339965821
 20
-20.08966064453131
 30
10.76653301715851
 70
   192
  0
VERTEX
  5
AF
  8
METAL
 10
124.4520339965821
 20
-22.30441284179688
 30
20.57023334503174
 70
   192
  0
VERTEX
  5
B0
  8
METAL
 10
124.4520339965821
 20
-22.304443359375
 30
10.02827805280685
 70
   192
  0
VERTEX
  5
B1
  8
METAL
 10
124.4520339965821
 20
-26.47906494140631
 30
20.57023334503174
 70
   192
  0
VERTEX
  5
B2
  8
METAL
 10
124.4520339965821
 20
-26.47909545898438
 30
10.02827906608582
 70
   192
  0
VERTEX
  5
B3
  8
METAL
 10
124.4520339965821
 20
-28.69384765625
 30
19.8319787979126
 70
   192
  0
VERTEX
  5
B4
  8
METAL
 10
124.4520339965821
 20
-28.69384765625
 30
19.8319787979126
 70
   192
  0
VERTEX
  5
B5
  8
METAL
 10
124.4520339965821
 20
-28.69384765625
 30
10.76653409004211
 70
   192
  0
VERTEX
  5
B6
  8
METAL
 10
124.4520339965821
 20
-28.69384765625
 30
10.76653409004211
 70
   192
  0
VERTEX
  5
B7
  8
METAL
 10
124.4520339965821
 20
-29.43209838867188
 30
17.61721324920654
 70
   192
  0
VERTEX
  5
B8
  8
METAL
 10
124.4520339965821
 20
-29.43209838867188
 30
12.98129916191101
 70
   192
  0
VERTEX
  5
B9
  8
METAL
 10
-149.8715133666992
 20
-19.3514404296875
 30
17.61721134185791
 70
   192
  0
VERTEX
  5
BA
  8
METAL
 10
-149.8715133666992
 20
-19.3514404296875
 30
12.98129606246948
 70
   192
  0
VERTEX
  5
BB
  8
METAL
 10
-149.984130859375
 20
-20.08969116210938
 30
19.83197689056396
 70
   192
  0
VERTEX
  5
BC
  8
METAL
 10
-149.984130859375
 20
-20.08969116210938
 30
19.83197689056396
 70
   192
  0
VERTEX
  5
BD
  8
METAL
 10
-149.984130859375
 20
-20.08969116210938
 30
10.76653099060059
 70
   192
  0
VERTEX
  5
BE
  8
METAL
 10
-149.984130859375
 20
-20.08969116210938
 30
10.76653099060059
 70
   192
  0
VERTEX
  5
BF
  8
METAL
 10
-150.3219833374023
 20
-22.304443359375
 30
20.57023334503174
 70
   192
  0
VERTEX
  5
C0
  8
METAL
 10
-150.3219833374023
 20
-22.304443359375
 30
10.02827507257462
 70
   192
  0
VERTEX
  5
C1
  8
METAL
 10
-162.2618789672851
 20
-15.48114013671869
 30
17.61720943450928
 70
   192
  0
VERTEX
  5
C2
  8
METAL
 10
-162.2618865966797
 20
-15.48114013671869
 30
12.98129606246948
 70
   192
  0
VERTEX
  5
C3
  8
METAL
 10
-162.5561752319336
 20
-16.16265869140631
 30
19.83197498321533
 70
   192
  0
VERTEX
  5
C4
  8
METAL
 10
-162.5561752319336
 20
-16.16265869140631
 30
19.83197498321533
 70
   192
  0
VERTEX
  5
C5
  8
METAL
 10
-162.5561752319336
 20
-16.16265869140631
 30
10.76653099060059
 70
   192
  0
VERTEX
  5
C6
  8
METAL
 10
-162.5561752319336
 20
-16.16265869140631
 30
10.76653099060059
 70
   192
  0
VERTEX
  5
C7
  8
METAL
 10
-163.4390640258789
 20
-18.2071533203125
 30
20.57022857666016
 70
   192
  0
VERTEX
  5
C8
  8
METAL
 10
-163.4390640258789
 20
-18.20718383789062
 30
10.02827703952789
 70
   192
  0
VERTEX
  5
C9
  8
METAL
 10
-169.1402282714843
 20
-11.61087036132812
 30
17.61721515655518
 70
   192
  0
VERTEX
  5
CA
  8
METAL
 10
-169.1402359008789
 20
-11.61087036132812
 30
12.98129796981812
 70
   192
  0
VERTEX
  5
CB
  8
METAL
 10
-169.5405883789062
 20
-12.23269653320312
 30
19.83198070526123
 70
   192
  0
VERTEX
  5
CC
  8
METAL
 10
-169.5405883789062
 20
-12.23269653320312
 30
19.83198070526123
 70
   192
  0
VERTEX
  5
CD
  8
METAL
 10
-169.5405883789062
 20
-12.23269653320312
 30
10.76653301715851
 70
   192
  0
VERTEX
  5
CE
  8
METAL
 10
-169.5405883789062
 20
-12.23269653320312
 30
10.76653301715851
 70
   192
  0
VERTEX
  5
CF
  8
METAL
 10
-170.7416534423828
 20
-14.09817504882812
 30
20.57023525238037
 70
   192
  0
VERTEX
  5
D0
  8
METAL
 10
-170.7416610717773
 20
-14.09817504882812
 30
10.02827805280685
 70
   192
  0
VERTEX
  5
D1
  8
METAL
 10
-174.4313049316406
 20
-7.740570068359375
 30
17.61720943450928
 70
   192
  0
VERTEX
  5
D2
  8
METAL
 10
-174.4313125610351
 20
-7.740570068359375
 30
12.98129606246948
 70
   192
  0
VERTEX
  5
D3
  8
METAL
 10
-174.9299087524414
 20
-8.29052734375
 30
19.83197498321533
 70
   192
  0
VERTEX
  5
D4
  8
METAL
 10
-174.9299087524414
 20
-8.29052734375
 30
19.83197498321533
 70
   192
  0
VERTEX
  5
D5
  8
METAL
 10
-174.9299087524414
 20
-8.29052734375
 30
10.76653099060059
 70
   192
  0
VERTEX
  5
D6
  8
METAL
 10
-174.9299087524414
 20
-8.29052734375
 30
10.76653099060059
 70
   192
  0
VERTEX
  5
D7
  8
METAL
 10
-176.4257125854492
 20
-9.9404296875
 30
20.57023143768311
 70
   192
  0
VERTEX
  5
D8
  8
METAL
 10
-176.4257125854492
 20
-9.9404296875
 30
10.02827602624893
 70
   192
  0
VERTEX
  5
D9
  8
METAL
 10
-177.8909225463867
 20
-3.870269775390625
 30
17.61720943450928
 70
   192
  0
VERTEX
  5
DA
  8
METAL
 10
-177.8909225463867
 20
-3.870300292968693
 30
12.98129606246948
 70
   192
  0
VERTEX
  5
DB
  8
METAL
 10
-178.4646835327148
 20
-4.336181640625
 30
10.76653206348419
 70
   192
  0
VERTEX
  5
DC
  8
METAL
 10
-178.4646835327148
 20
-4.336181640625
 30
10.76653206348419
 70
   192
  0
VERTEX
  5
DD
  8
METAL
 10
-178.6291732788086
 20
-3.870269775390625
 30
19.83197498321533
 70
   192
  0
VERTEX
  5
DE
  8
METAL
 10
-178.6291732788086
 20
-3.870269775390625
 30
19.83197498321533
 70
   192
  0
VERTEX
  5
DF
  8
METAL
 10
-180.1859664916992
 20
-5.733825683593693
 30
10.02827703952789
 70
   192
  0
VERTEX
  5
E0
  8
METAL
 10
-180.7400436401367
 20
0.0
 30
17.61720943450928
 70
   192
  0
VERTEX
  5
E1
  8
METAL
 10
-180.7400436401367
 20
0.0
 30
17.61720943450928
 70
   192
  0
VERTEX
  5
E2
  8
METAL
 10
-180.7400512695312
 20
0.0
 30
12.98129415512085
 70
   192
  0
VERTEX
  5
E3
  8
METAL
 10
-180.7400512695312
 20
0.0
 30
12.98129415512085
 70
   192
  0
VERTEX
  5
E4
  8
METAL
 10
-180.8439407348633
 20
-3.870269775390625
 30
20.57022857666016
 70
   192
  0
VERTEX
  5
E5
  8
METAL
 10
-181.4783020019531
 20
0.0
 30
19.83197498321533
 70
   192
  0
VERTEX
  5
E6
  8
METAL
 10
-181.4783020019531
 20
0.0
 30
19.83197498321533
 70
   192
  0
VERTEX
  5
E7
  8
METAL
 10
-181.4783020019531
 20
0.0
 30
19.83197498321533
 70
   192
  0
VERTEX
  5
E8
  8
METAL
 10
-181.4783020019531
 20
0.0
 30
10.76652801036835
 70
   192
  0
VERTEX
  5
E9
  8
METAL
 10
-181.4783020019531
 20
0.0
 30
10.76652801036835
 70
   192
  0
VERTEX
  5
EA
  8
METAL
 10
-181.4783020019531
 20
0.0
 30
10.76652801036835
 70
   192
  0
VERTEX
  5
EB
  8
METAL
 10
-183.6930618286133
 20
0.0
 30
20.57022857666016
 70
   192
  0
VERTEX
  5
EC
  8
METAL
 10
-183.6930618286133
 20
0.0
 30
20.57022857666016
 70
   192
  0
VERTEX
  5
ED
  8
METAL
 10
-183.6930694580078
 20
0.0
 30
10.02827405929565
 70
   192
  0
VERTEX
  5
EE
  8
METAL
 10
-183.6930694580078
 20
0.0
 30
10.02827405929565
 70
   192
  0
VERTEX
  5
EF
  8
METAL
 10
-184.6683959960937
 20
-19.3514404296875
 30
20.57023143768311
 70
   192
  0
VERTEX
  5
F0
  8
METAL
 10
-184.6683959960937
 20
-19.3514404296875
 30
10.02827602624893
 70
   192
  0
VERTEX
  5
F1
  8
METAL
 10
-184.6683959960937
 20
-19.3514404296875
 30
10.02827602624893
 70
   192
  0
VERTEX
  5
F2
  8
METAL
 10
-184.6683959960937
 20
-19.3514404296875
 30
-19.99999618530273
 70
   192
  0
VERTEX
  5
F3
  8
METAL
 10
-184.6683959960937
 20
-19.3514404296875
 30
-19.99999618530273
 70
   192
  0
VERTEX
  5
F4
  8
METAL
 10
-184.6683959960937
 20
-26.47909545898438
 30
20.57023334503174
 70
   192
  0
VERTEX
  5
F5
  8
METAL
 10
-184.6683959960937
 20
-26.47909545898438
 30
10.02827703952789
 70
   192
  0
VERTEX
  5
F6
  8
METAL
 10
-184.6683959960937
 20
-26.47909545898438
 30
10.02827703952789
 70
   192
  0
VERTEX
  5
F7
  8
METAL
 10
-184.6683959960937
 20
-26.4791259765625
 30
-19.99999618530273
 70
   192
  0
VERTEX
  5
F8
  8
METAL
 10
-184.6683959960937
 20
-26.4791259765625
 30
-19.99999618530273
 70
   192
  0
VERTEX
  5
F9
  8
METAL
 10
-184.6683959960937
 20
-28.69387817382812
 30
19.8319787979126
 70
   192
  0
VERTEX
  5
FA
  8
METAL
 10
-184.6683959960937
 20
-28.69387817382812
 30
19.8319787979126
 70
   192
  0
VERTEX
  5
FB
  8
METAL
 10
-184.6683959960937
 20
-29.43212890625
 30
17.61721324920654
 70
   192
  0
VERTEX
  5
FC
  8
METAL
 10
-184.700325012207
 20
-15.48114013671869
 30
20.57023143768311
 70
   192
  0
VERTEX
  5
FD
  8
METAL
 10
-184.7003326416015
 20
-15.48114013671869
 30
10.02827602624893
 70
   192
  0
VERTEX
  5
FE
  8
METAL
 10
-184.7003326416015
 20
-15.48114013671869
 30
10.02827602624893
 70
   192
  0
VERTEX
  5
FF
  8
METAL
 10
-184.7003326416015
 20
-15.48114013671869
 30
-19.99999618530273
 70
   192
  0
VERTEX
  5
100
  8
METAL
 10
-184.7003326416015
 20
-15.48114013671869
 30
-19.99999618530273
 70
   192
  0
VERTEX
  5
101
  8
METAL
 10
-184.7180557250976
 20
-11.61087036132812
 30
20.57023143768311
 70
   192
  0
VERTEX
  5
102
  8
METAL
 10
-184.7180557250976
 20
-11.61087036132812
 30
10.02827703952789
 70
   192
  0
VERTEX
  5
103
  8
METAL
 10
-184.7180557250976
 20
-11.61087036132812
 30
10.02827703952789
 70
   192
  0
VERTEX
  5
104
  8
METAL
 10
-184.7180557250976
 20
-11.61087036132812
 30
-19.99999618530273
 70
   192
  0
VERTEX
  5
105
  8
METAL
 10
-184.7180557250976
 20
-11.61087036132812
 30
-19.99999618530273
 70
   192
  0
VERTEX
  5
106
  8
METAL
 10
-184.7316970825195
 20
-7.740570068359375
 30
20.57022857666016
 70
   192
  0
VERTEX
  5
107
  8
METAL
 10
-184.7316970825195
 20
-7.740570068359375
 30
10.02827507257462
 70
   192
  0
VERTEX
  5
108
  8
METAL
 10
-184.7316970825195
 20
-7.740570068359375
 30
10.02827507257462
 70
   192
  0
VERTEX
  5
109
  8
METAL
 10
-184.7316970825195
 20
-7.740570068359375
 30
-20.0
 70
   192
  0
VERTEX
  5
10A
  8
METAL
 10
-184.7316970825195
 20
-7.740570068359375
 30
-20.0
 70
   192
  0
VERTEX
  5
10B
  8
METAL
 10
-184.7406158447265
 20
-3.870269775390625
 30
20.57022857666016
 70
   192
  0
VERTEX
  5
10C
  8
METAL
 10
-184.7406158447265
 20
-3.870300292968693
 30
10.02827507257462
 70
   192
  0
VERTEX
  5
10D
  8
METAL
 10
-184.7406158447265
 20
-3.870300292968693
 30
10.02827507257462
 70
   192
  0
VERTEX
  5
10E
  8
METAL
 10
-184.7406158447265
 20
-3.870300292968693
 30
-20.0
 70
   192
  0
VERTEX
  5
10F
  8
METAL
 10
-184.7406158447265
 20
-3.870300292968693
 30
-20.0
 70
   192
  0
VERTEX
  5
110
  8
METAL
 10
-184.7479553222656
 20
0.0
 30
20.57022857666016
 70
   192
  0
VERTEX
  5
111
  8
METAL
 10
-184.7479553222656
 20
0.0
 30
20.57022857666016
 70
   192
  0
VERTEX
  5
112
  8
METAL
 10
-184.7479553222656
 20
0.0
 30
10.02827405929565
 70
   192
  0
VERTEX
  5
113
  8
METAL
 10
-184.7479553222656
 20
0.0
 30
10.02827405929565
 70
   192
  0
VERTEX
  5
114
  8
METAL
 10
-184.7479553222656
 20
0.0
 30
10.02827405929565
 70
   192
  0
VERTEX
  5
115
  8
METAL
 10
-184.7479553222656
 20
0.0
 30
-20.0
 70
   192
  0
VERTEX
  5
116
  8
METAL
 10
-184.7479553222656
 20
0.0
 30
-20.0
 70
   192
  0
VERTEX
  5
117
  8
METAL
 10
-184.7479553222656
 20
0.0
 30
-20.0
 70
   192
  0
VERTEX
  5
118
  8
METAL
 10
-185.4066467285156
 20
-28.69387817382812
 30
10.76653206348419
 70
   192
  0
VERTEX
  5
119
  8
METAL
 10
-185.4066467285156
 20
-28.69387817382812
 30
10.76653206348419
 70
   192
  0
VERTEX
  5
11A
  8
METAL
 10
-185.4066467285156
 20
-28.69387817382812
 30
10.76653206348419
 70
   192
  0
VERTEX
  5
11B
  8
METAL
 10
-185.4066467285156
 20
-28.69387817382812
 30
-19.99999618530273
 70
   192
  0
VERTEX
  5
11C
  8
METAL
 10
-185.4066467285156
 20
-28.69387817382812
 30
-19.99999618530273
 70
   192
  0
VERTEX
  5
11D
  8
METAL
 10
-185.4066467285156
 20
-28.69387817382812
 30
-19.99999618530273
 70
   192
  0
VERTEX
  5
11E
  8
METAL
 10
-187.6214141845703
 20
-29.43212890625
 30
12.9812970161438
 70
   192
  0
VERTEX
  5
11F
  8
METAL
 10
-187.6214141845703
 20
-29.43212890625
 30
-19.99999618530273
 70
   192
  0
VERTEX
  5
120
  8
METAL
 10
-187.6214141845703
 20
-29.43212890625
 30
-19.99999618530273
 70
   192
  0
VERTEX
  5
121
  8
METAL
 10
-192.0469741821289
 20
-7.740570068359375
 30
20.57022857666016
 70
   192
  0
VERTEX
  5
122
  8
METAL
 10
-192.0469741821289
 20
-11.61087036132812
 30
20.57023143768311
 70
   192
  0
VERTEX
  5
123
  8
METAL
 10
-192.0469741821289
 20
-15.48114013671869
 30
20.57023143768311
 70
   192
  0
VERTEX
  5
124
  8
METAL
 10
-192.0469741821289
 20
-19.3514404296875
 30
20.57023143768311
 70
   192
  0
VERTEX
  5
125
  8
METAL
 10
-192.0469741821289
 20
-26.47909545898438
 30
20.57023143768311
 70
   192
  0
VERTEX
  5
126
  8
METAL
 10
-192.0469741821289
 20
-28.69387817382812
 30
19.83197498321533
 70
   192
  0
VERTEX
  5
127
  8
METAL
 10
-192.0469741821289
 20
-28.69387817382812
 30
19.83197498321533
 70
   192
  0
VERTEX
  5
128
  8
METAL
 10
-192.0469741821289
 20
-29.43212890625
 30
17.61721134185791
 70
   192
  0
VERTEX
  5
129
  8
METAL
 10
-192.0469741821289
 20
-29.43212890625
 30
10.02827703952789
 70
   192
  0
VERTEX
  5
12A
  8
METAL
 10
-192.0469741821289
 20
-29.43212890625
 30
-19.99999618530273
 70
   192
  0
VERTEX
  5
12B
  8
METAL
 10
-192.0469741821289
 20
-29.43212890625
 30
-19.99999618530273
 70
   192
  0
VERTEX
  5
12C
  8
METAL
 10
-192.0469818115234
 20
0.0
 30
20.57022857666016
 70
   192
  0
VERTEX
  5
12D
  8
METAL
 10
-192.0469818115234
 20
0.0
 30
20.57022857666016
 70
   192
  0
VERTEX
  5
12E
  8
METAL
 10
-192.0469818115234
 20
0.0
 30
10.02827304601669
 70
   192
  0
VERTEX
  5
12F
  8
METAL
 10
-192.0469818115234
 20
0.0
 30
-20.0
 70
   192
  0
VERTEX
  5
130
  8
METAL
 10
-192.0469818115234
 20
0.0
 30
-20.0
 70
   192
  0
VERTEX
  5
131
  8
METAL
 10
-192.0469818115234
 20
-3.870300292968693
 30
20.57022857666016
 70
   192
  0
VERTEX
  5
132
  8
METAL
 10
-194.2617416381836
 20
-0.684173583984375
 30
19.88605403900146
 70
   192
  0
VERTEX
  5
133
  8
METAL
 10
-194.2617416381836
 20
-0.684173583984375
 30
19.88605403900146
 70
   192
  0
VERTEX
  5
134
  8
METAL
 10
-194.2617416381836
 20
-0.684173583984375
 30
19.88605403900146
 70
   192
  0
VERTEX
  5
135
  8
METAL
 10
-194.2617416381836
 20
-0.738250732421875
 30
10.02827304601669
 70
   192
  0
VERTEX
  5
136
  8
METAL
 10
-194.2617416381836
 20
-0.738250732421875
 30
10.02827304601669
 70
   192
  0
VERTEX
  5
137
  8
METAL
 10
-194.2617416381836
 20
-7.740570068359375
 30
19.83197498321533
 70
   192
  0
VERTEX
  5
138
  8
METAL
 10
-194.2617416381836
 20
-7.740570068359375
 30
19.83197498321533
 70
   192
  0
VERTEX
  5
139
  8
METAL
 10
-194.2617416381836
 20
-11.61087036132812
 30
19.83197689056396
 70
   192
  0
VERTEX
  5
13A
  8
METAL
 10
-194.2617416381836
 20
-11.61087036132812
 30
19.83197689056396
 70
   192
  0
VERTEX
  5
13B
  8
METAL
 10
-194.2617416381836
 20
-15.48114013671869
 30
19.83197689056396
 70
   192
  0
VERTEX
  5
13C
  8
METAL
 10
-194.2617416381836
 20
-15.48114013671869
 30
19.83197689056396
 70
   192
  0
VERTEX
  5
13D
  8
METAL
 10
-194.2617416381836
 20
-19.3514404296875
 30
19.83197689056396
 70
   192
  0
VERTEX
  5
13E
  8
METAL
 10
-194.2617416381836
 20
-19.3514404296875
 30
19.83197689056396
 70
   192
  0
VERTEX
  5
13F
  8
METAL
 10
-194.2617416381836
 20
-26.47909545898438
 30
19.83197689056396
 70
   192
  0
VERTEX
  5
140
  8
METAL
 10
-194.2617416381836
 20
-26.47909545898438
 30
19.83197689056396
 70
   192
  0
VERTEX
  5
141
  8
METAL
 10
-194.2617416381836
 20
-28.14019775390631
 30
19.27828311920166
 70
   192
  0
VERTEX
  5
142
  8
METAL
 10
-194.2617416381836
 20
-28.14019775390631
 30
19.27828311920166
 70
   192
  0
VERTEX
  5
143
  8
METAL
 10
-194.2617416381836
 20
-28.14019775390631
 30
19.27828311920166
 70
   192
  0
VERTEX
  5
144
  8
METAL
 10
-194.2617416381836
 20
-28.69387817382812
 30
17.61721134185791
 70
   192
  0
VERTEX
  5
145
  8
METAL
 10
-194.2617416381836
 20
-28.69387817382812
 30
17.61721134185791
 70
   192
  0
VERTEX
  5
146
  8
METAL
 10
-194.2617416381836
 20
-28.69387817382812
 30
10.02827703952789
 70
   192
  0
VERTEX
  5
147
  8
METAL
 10
-194.2617416381836
 20
-28.69387817382812
 30
10.02827703952789
 70
   192
  0
VERTEX
  5
148
  8
METAL
 10
-194.2617416381836
 20
-28.69387817382812
 30
-19.99999618530273
 70
   192
  0
VERTEX
  5
149
  8
METAL
 10
-194.2617416381836
 20
-28.69387817382812
 30
-19.99999618530273
 70
   192
  0
VERTEX
  5
14A
  8
METAL
 10
-194.2617416381836
 20
-28.69387817382812
 30
-19.99999618530273
 70
   192
  0
VERTEX
  5
14B
  8
METAL
 10
-194.2617492675781
 20
-0.738250732421875
 30
-20.0
 70
   192
  0
VERTEX
  5
14C
  8
METAL
 10
-194.2617492675781
 20
-0.738250732421875
 30
-20.0
 70
   192
  0
VERTEX
  5
14D
  8
METAL
 10
-194.2617492675781
 20
-0.738250732421875
 30
-20.0
 70
   192
  0
VERTEX
  5
14E
  8
METAL
 10
-194.2617492675781
 20
-3.870300292968693
 30
19.83197498321533
 70
   192
  0
VERTEX
  5
14F
  8
METAL
 10
-194.2617492675781
 20
-3.870300292968693
 30
19.83197498321533
 70
   192
  0
VERTEX
  5
150
  8
METAL
 10
-194.9999923706054
 20
-26.47909545898438
 30
17.61721134185791
 70
   192
  0
VERTEX
  5
151
  8
METAL
 10
-195.0
 20
-2.7366943359375
 30
17.83352375030518
 70
   192
  0
VERTEX
  5
152
  8
METAL
 10
-195.0
 20
-2.953033447265625
 30
10.02827405929565
 70
   192
  0
VERTEX
  5
153
  8
METAL
 10
-195.0
 20
-2.953033447265625
 30
-20.0
 70
   192
  0
VERTEX
  5
154
  8
METAL
 10
-195.0
 20
-2.953033447265625
 30
-20.0
 70
   192
  0
VERTEX
  5
155
  8
METAL
 10
-195.0
 20
-3.870300292968693
 30
17.61720943450928
 70
   192
  0
VERTEX
  5
156
  8
METAL
 10
-195.0
 20
-3.870300292968693
 30
10.02827405929565
 70
   192
  0
VERTEX
  5
157
  8
METAL
 10
-195.0
 20
-3.870300292968693
 30
-20.0
 70
   192
  0
VERTEX
  5
158
  8
METAL
 10
-195.0
 20
-3.870300292968693
 30
-20.0
 70
   192
  0
VERTEX
  5
159
  8
METAL
 10
-195.0
 20
-7.740570068359375
 30
17.61720943450928
 70
   192
  0
VERTEX
  5
15A
  8
METAL
 10
-195.0
 20
-7.740570068359375
 30
10.02827405929565
 70
   192
  0
VERTEX
  5
15B
  8
METAL
 10
-195.0
 20
-7.740570068359375
 30
-20.0
 70
   192
  0
VERTEX
  5
15C
  8
METAL
 10
-195.0
 20
-7.740570068359375
 30
-20.0
 70
   192
  0
VERTEX
  5
15D
  8
METAL
 10
-195.0
 20
-11.61087036132812
 30
17.61721134185791
 70
   192
  0
VERTEX
  5
15E
  8
METAL
 10
-195.0
 20
-11.61087036132812
 30
10.02827507257462
 70
   192
  0
VERTEX
  5
15F
  8
METAL
 10
-195.0
 20
-11.61087036132812
 30
-19.99999618530273
 70
   192
  0
VERTEX
  5
160
  8
METAL
 10
-195.0
 20
-11.61087036132812
 30
-19.99999618530273
 70
   192
  0
VERTEX
  5
161
  8
METAL
 10
-195.0
 20
-15.48114013671869
 30
17.61721134185791
 70
   192
  0
VERTEX
  5
162
  8
METAL
 10
-195.0
 20
-15.48114013671869
 30
10.02827405929565
 70
   192
  0
VERTEX
  5
163
  8
METAL
 10
-195.0
 20
-15.48117065429688
 30
-19.99999618530273
 70
   192
  0
VERTEX
  5
164
  8
METAL
 10
-195.0
 20
-15.48117065429688
 30
-19.99999618530273
 70
   192
  0
VERTEX
  5
165
  8
METAL
 10
-195.0
 20
-19.3514404296875
 30
17.61721134185791
 70
   192
  0
VERTEX
  5
166
  8
METAL
 10
-195.0
 20
-19.3514404296875
 30
10.02827507257462
 70
   192
  0
VERTEX
  5
167
  8
METAL
 10
-195.0
 20
-19.3514404296875
 30
-19.99999618530273
 70
   192
  0
VERTEX
  5
168
  8
METAL
 10
-195.0
 20
-19.3514404296875
 30
-19.99999618530273
 70
   192
  0
VERTEX
  5
169
  8
METAL
 10
-195.0
 20
-26.47909545898438
 30
10.02827703952789
 70
   192
  0
VERTEX
  5
16A
  8
METAL
 10
-195.0
 20
-26.4791259765625
 30
-19.99999618530273
 70
   192
  0
VERTEX
  5
16B
  8
METAL
 10
-195.0
 20
-26.4791259765625
 30
-19.99999618530273
 70
   192
  0
VERTEX
  5
16C
  8
METAL
 10
0.0
 20
0.0
 30
0.0
 70
   128
 71
   150
 72
   149
 73
   141
 74
   142
  0
VERTEX
  5
16D
  8
METAL
 10
0.0
 20
0.0
 30
0.0
 70
   128
 71
   285
 72
   286
 73
   290
 74
   289
  0
VERTEX
  5
16E
  8
METAL
 10
0.0
 20
0.0
 30
0.0
 70
   128
 71
   179
 72
   117
 73
   115
 74
   131
  0
VERTEX
  5
16F
  8
METAL
 10
0.0
 20
0.0
 30
0.0
 70
   128
 71
   179
 72
   184
 73
   117
 74
   117
  0
VERTEX
  5
170
  8
METAL
 10
0.0
 20
0.0
 30
0.0
 70
   128
 71
   192
 72
   179
 73
   131
 74
   139
  0
VERTEX
  5
171
  8
METAL
 10
0.0
 20
0.0
 30
0.0
 70
   128
 71
   197
 72
   192
 73
   139
 74
   147
  0
VERTEX
  5
172
  8
METAL
 10
0.0
 20
0.0
 30
0.0
 70
   128
 71
   202
 72
   197
 73
   147
 74
   155
  0
VERTEX
  5
173
  8
METAL
 10
0.0
 20
0.0
 30
0.0
 70
   128
 71
   155
 72
   168
 73
   207
 74
   202
  0
VERTEX
  5
174
  8
METAL
 10
0.0
 20
0.0
 30
0.0
 70
   128
 71
   191
 72
   226
 73
   124
 74
   123
  0
VERTEX
  5
175
  8
METAL
 10
0.0
 20
0.0
 30
0.0
 70
   128
 71
   226
 72
   237
 73
   239
 74
   228
  0
VERTEX
  5
176
  8
METAL
 10
0.0
 20
0.0
 30
0.0
 70
   128
 71
   226
 72
   191
 73
   236
 74
   237
  0
VERTEX
  5
177
  8
METAL
 10
0.0
 20
0.0
 30
0.0
 70
   128
 71
   175
 72
   171
 73
   165
 74
   167
  0
VERTEX
  5
178
  8
METAL
 10
0.0
 20
0.0
 30
0.0
 70
   128
 71
   167
 72
   215
 73
   212
 74
   175
  0
VERTEX
  5
179
  8
METAL
 10
0.0
 20
0.0
 30
0.0
 70
   128
 71
   177
 72
   215
 73
   167
 74
   174
  0
VERTEX
  5
17A
  8
METAL
 10
0.0
 20
0.0
 30
0.0
 70
   128
 71
   297
 72
   298
 73
   301
 74
   276
  0
VERTEX
  5
17B
  8
METAL
 10
0.0
 20
0.0
 30
0.0
 70
   128
 71
   163
 72
   209
 73
   216
 74
   178
  0
VERTEX
  5
17C
  8
METAL
 10
0.0
 20
0.0
 30
0.0
 70
   128
 71
   156
 72
   204
 73
   209
 74
   163
  0
VERTEX
  5
17D
  8
METAL
 10
0.0
 20
0.0
 30
0.0
 70
   128
 71
   148
 72
   199
 73
   204
 74
   156
  0
VERTEX
  5
17E
  8
METAL
 10
0.0
 20
0.0
 30
0.0
 70
   128
 71
   140
 72
   194
 73
   199
 74
   148
  0
VERTEX
  5
17F
  8
METAL
 10
0.0
 20
0.0
 30
0.0
 70
   128
 71
   186
 72
   132
 73
   116
 74
   118
  0
VERTEX
  5
180
  8
METAL
 10
0.0
 20
0.0
 30
0.0
 70
   128
 71
   140
 72
   132
 73
   186
 74
   181
  0
VERTEX
  5
181
  8
METAL
 10
0.0
 20
0.0
 30
0.0
 70
   128
 71
   140
 72
   181
 73
   194
 74
   194
  0
VERTEX
  5
182
  8
METAL
 10
0.0
 20
0.0
 30
0.0
 70
   128
 71
   134
 72
   133
 73
   125
 74
   126
  0
VERTEX
  5
183
  8
METAL
 10
0.0
 20
0.0
 30
0.0
 70
   128
 71
   142
 72
   141
 73
   133
 74
   134
  0
VERTEX
  5
184
  8
METAL
 10
0.0
 20
0.0
 30
0.0
 70
   128
 71
   157
 72
   158
 73
   166
 74
   164
  0
VERTEX
  5
185
  8
METAL
 10
0.0
 20
0.0
 30
0.0
 70
   128
 71
   149
 72
   150
 73
   158
 74
   157
  0
VERTEX
  5
186
  8
METAL
 10
0.0
 20
0.0
 30
0.0
 70
   128
 71
   293
 72
   294
 73
   298
 74
   297
  0
VERTEX
  5
187
  8
METAL
 10
0.0
 20
0.0
 30
0.0
 70
   128
 71
   289
 72
   290
 73
   294
 74
   293
  0
VERTEX
  5
188
  8
METAL
 10
0.0
 20
0.0
 30
0.0
 70
   128
 71
   282
 72
   281
 73
   277
 74
   278
  0
VERTEX
  5
189
  8
METAL
 10
0.0
 20
0.0
 30
0.0
 70
   128
 71
   286
 72
   285
 73
   281
 74
   282
  0
VERTEX
  5
18A
  8
METAL
 10
0.0
 20
0.0
 30
0.0
 70
   128
 71
   207
 72
   213
 73
   240
 74
   245
  0
VERTEX
  5
18B
  8
METAL
 10
0.0
 20
0.0
 30
0.0
 70
   128
 71
   202
 72
   207
 73
   245
 74
   229
  0
VERTEX
  5
18C
  8
METAL
 10
0.0
 20
0.0
 30
0.0
 70
   128
 71
   295
 72
   196
 73
   183
 74
   299
  0
VERTEX
  5
18D
  8
METAL
 10
0.0
 20
0.0
 30
0.0
 70
   128
 71
   291
 72
   201
 73
   196
 74
   295
  0
VERTEX
  5
18E
  8
METAL
 10
0.0
 20
0.0
 30
0.0
 70
   128
 71
   109
 72
   110
 73
   126
 74
   125
  0
VERTEX
  5
18F
  8
METAL
 10
0.0
 20
0.0
 30
0.0
 70
   128
 71
   197
 72
   202
 73
   229
 74
   230
  0
VERTEX
  5
190
  8
METAL
 10
0.0
 20
0.0
 30
0.0
 70
   128
 71
   238
 72
   268
 73
   302
 74
   299
  0
VERTEX
  5
191
  8
METAL
 10
0.0
 20
0.0
 30
0.0
 70
   128
 71
   188
 72
   225
 73
   227
 74
   238
  0
VERTEX
  5
192
  8
METAL
 10
0.0
 20
0.0
 30
0.0
 70
   128
 71
   183
 72
   188
 73
   238
 74
   299
  0
VERTEX
  5
193
  8
METAL
 10
0.0
 20
0.0
 30
0.0
 70
   128
 71
   212
 72
   215
 73
   242
 74
   241
  0
VERTEX
  5
194
  8
METAL
 10
0.0
 20
0.0
 30
0.0
 70
   128
 71
   184
 72
   179
 73
   232
 74
   233
  0
VERTEX
  5
195
  8
METAL
 10
0.0
 20
0.0
 30
0.0
 70
   128
 71
   201
 72
   291
 73
   287
 74
   206
  0
VERTEX
  5
196
  8
METAL
 10
0.0
 20
0.0
 30
0.0
 70
   128
 71
   179
 72
   192
 73
   231
 74
   232
  0
VERTEX
  5
197
  8
METAL
 10
0.0
 20
0.0
 30
0.0
 70
   128
 71
   192
 72
   197
 73
   230
 74
   231
  0
VERTEX
  5
198
  8
METAL
 10
0.0
 20
0.0
 30
0.0
 70
   128
 71
   213
 72
   207
 73
   168
 74
   176
  0
VERTEX
  5
199
  8
METAL
 10
0.0
 20
0.0
 30
0.0
 70
   128
 71
   279
 72
   271
 73
   243
 74
   219
  0
VERTEX
  5
19A
  8
METAL
 10
0.0
 20
0.0
 30
0.0
 70
   128
 71
   211
 72
   283
 73
   279
 74
   219
  0
VERTEX
  5
19B
  8
METAL
 10
0.0
 20
0.0
 30
0.0
 70
   128
 71
   206
 72
   287
 73
   283
 74
   211
  0
VERTEX
  5
19C
  8
METAL
 10
0.0
 20
0.0
 30
0.0
 70
   128
 71
   300
 72
   303
 73
   301
 74
   298
  0
VERTEX
  5
19D
  8
METAL
 10
0.0
 20
0.0
 30
0.0
 70
   128
 71
   187
 72
   182
 73
   180
 74
   185
  0
VERTEX
  5
19E
  8
METAL
 10
0.0
 20
0.0
 30
0.0
 70
   128
 71
   182
 72
   195
 73
   193
 74
   180
  0
VERTEX
  5
19F
  8
METAL
 10
0.0
 20
0.0
 30
0.0
 70
   128
 71
   195
 72
   200
 73
   198
 74
   193
  0
VERTEX
  5
1A0
  8
METAL
 10
0.0
 20
0.0
 30
0.0
 70
   128
 71
   200
 72
   205
 73
   203
 74
   198
  0
VERTEX
  5
1A1
  8
METAL
 10
0.0
 20
0.0
 30
0.0
 70
   128
 71
   205
 72
   210
 73
   208
 74
   203
  0
VERTEX
  5
1A2
  8
METAL
 10
0.0
 20
0.0
 30
0.0
 70
   128
 71
   210
 72
   217
 73
   214
 74
   208
  0
VERTEX
  5
1A3
  8
METAL
 10
0.0
 20
0.0
 30
0.0
 70
   128
 71
   218
 72
   244
 73
   242
 74
   215
  0
VERTEX
  5
1A4
  8
METAL
 10
0.0
 20
0.0
 30
0.0
 70
   128
 71
   280
 72
   284
 73
   282
 74
   278
  0
VERTEX
  5
1A5
  8
METAL
 10
0.0
 20
0.0
 30
0.0
 70
   128
 71
   284
 72
   288
 73
   286
 74
   282
  0
VERTEX
  5
1A6
  8
METAL
 10
0.0
 20
0.0
 30
0.0
 70
   128
 71
   288
 72
   292
 73
   290
 74
   286
  0
VERTEX
  5
1A7
  8
METAL
 10
0.0
 20
0.0
 30
0.0
 70
   128
 71
   292
 72
   296
 73
   294
 74
   290
  0
VERTEX
  5
1A8
  8
METAL
 10
0.0
 20
0.0
 30
0.0
 70
   128
 71
   296
 72
   300
 73
   298
 74
   294
  0
VERTEX
  5
1A9
  8
METAL
 10
0.0
 20
0.0
 30
0.0
 70
   128
 71
   108
 72
   107
 73
   123
 74
   124
  0
VERTEX
  5
1AA
  8
METAL
 10
0.0
 20
0.0
 30
0.0
 70
   128
 71
   101
 72
    99
 73
   115
 74
   117
  0
VERTEX
  5
1AB
  8
METAL
 10
0.0
 20
0.0
 30
0.0
 70
   128
 71
   100
 72
   102
 73
   118
 74
   116
  0
VERTEX
  5
1AC
  8
METAL
 10
0.0
 20
0.0
 30
0.0
 70
   128
 71
    93
 72
    94
 73
   110
 74
   109
  0
VERTEX
  5
1AD
  8
METAL
 10
0.0
 20
0.0
 30
0.0
 70
   128
 71
    92
 72
    91
 73
   107
 74
   108
  0
VERTEX
  5
1AE
  8
METAL
 10
0.0
 20
0.0
 30
0.0
 70
   128
 71
    85
 72
    83
 73
    99
 74
   101
  0
VERTEX
  5
1AF
  8
METAL
 10
0.0
 20
0.0
 30
0.0
 70
   128
 71
    84
 72
    86
 73
   102
 74
   100
  0
VERTEX
  5
1B0
  8
METAL
 10
0.0
 20
0.0
 30
0.0
 70
   128
 71
    77
 72
    78
 73
    94
 74
    93
  0
VERTEX
  5
1B1
  8
METAL
 10
0.0
 20
0.0
 30
0.0
 70
   128
 71
    76
 72
    75
 73
    91
 74
    92
  0
VERTEX
  5
1B2
  8
METAL
 10
0.0
 20
0.0
 30
0.0
 70
   128
 71
    69
 72
    67
 73
    83
 74
    85
  0
VERTEX
  5
1B3
  8
METAL
 10
0.0
 20
0.0
 30
0.0
 70
   128
 71
    68
 72
    70
 73
    86
 74
    84
  0
VERTEX
  5
1B4
  8
METAL
 10
0.0
 20
0.0
 30
0.0
 70
   128
 71
    61
 72
    62
 73
    78
 74
    77
  0
VERTEX
  5
1B5
  8
METAL
 10
0.0
 20
0.0
 30
0.0
 70
   128
 71
    76
 72
    60
 73
    59
 74
    75
  0
VERTEX
  5
1B6
  8
METAL
 10
0.0
 20
0.0
 30
0.0
 70
   128
 71
    69
 72
    53
 73
    51
 74
    67
  0
VERTEX
  5
1B7
  8
METAL
 10
0.0
 20
0.0
 30
0.0
 70
   128
 71
    52
 72
    54
 73
    70
 74
    68
  0
VERTEX
  5
1B8
  8
METAL
 10
0.0
 20
0.0
 30
0.0
 70
   128
 71
    61
 72
    45
 73
    46
 74
    62
  0
VERTEX
  5
1B9
  8
METAL
 10
0.0
 20
0.0
 30
0.0
 70
   128
 71
    59
 72
    60
 73
    44
 74
    43
  0
VERTEX
  5
1BA
  8
METAL
 10
0.0
 20
0.0
 30
0.0
 70
   128
 71
    53
 72
    37
 73
    35
 74
    51
  0
VERTEX
  5
1BB
  8
METAL
 10
0.0
 20
0.0
 30
0.0
 70
   128
 71
    54
 72
    52
 73
    36
 74
    38
  0
VERTEX
  5
1BC
  8
METAL
 10
0.0
 20
0.0
 30
0.0
 70
   128
 71
    46
 72
    45
 73
    26
 74
    28
  0
VERTEX
  5
1BD
  8
METAL
 10
0.0
 20
0.0
 30
0.0
 70
   128
 71
     8
 72
     6
 73
    43
 74
    44
  0
VERTEX
  5
1BE
  8
METAL
 10
0.0
 20
0.0
 30
0.0
 70
   128
 71
    23
 72
    21
 73
    35
 74
    37
  0
VERTEX
  5
1BF
  8
METAL
 10
0.0
 20
0.0
 30
0.0
 70
   128
 71
    22
 72
    24
 73
    38
 74
    36
  0
VERTEX
  5
1C0
  8
METAL
 10
0.0
 20
0.0
 30
0.0
 70
   128
 71
     2
 72
     4
 73
    27
 74
    25
  0
VERTEX
  5
1C1
  8
METAL
 10
0.0
 20
0.0
 30
0.0
 70
   128
 71
     5
 72
     7
 73
     3
 74
     1
  0
VERTEX
  5
1C2
  8
METAL
 10
0.0
 20
0.0
 30
0.0
 70
   128
 71
   265
 72
   263
 73
   276
 74
   276
  0
VERTEX
  5
1C3
  8
METAL
 10
0.0
 20
0.0
 30
0.0
 70
   128
 71
   172
 72
   166
 73
   158
 74
   159
  0
VERTEX
  5
1C4
  8
METAL
 10
0.0
 20
0.0
 30
0.0
 70
   128
 71
   248
 72
   277
 73
   281
 74
   275
  0
VERTEX
  5
1C5
  8
METAL
 10
0.0
 20
0.0
 30
0.0
 70
   128
 71
   265
 72
   276
 73
   301
 74
   267
  0
VERTEX
  5
1C6
  8
METAL
 10
0.0
 20
0.0
 30
0.0
 70
   128
 71
   250
 72
   278
 73
   277
 74
   248
  0
VERTEX
  5
1C7
  8
METAL
 10
0.0
 20
0.0
 30
0.0
 70
   128
 71
   119
 72
   117
 73
   184
 74
   189
  0
VERTEX
  5
1C8
  8
METAL
 10
0.0
 20
0.0
 30
0.0
 70
   128
 71
   127
 72
   125
 73
   133
 74
   135
  0
VERTEX
  5
1C9
  8
METAL
 10
0.0
 20
0.0
 30
0.0
 70
   128
 71
   258
 72
   297
 73
   276
 74
   260
  0
VERTEX
  5
1CA
  8
METAL
 10
0.0
 20
0.0
 30
0.0
 70
   128
 71
   159
 72
   158
 73
   150
 74
   153
  0
VERTEX
  5
1CB
  8
METAL
 10
0.0
 20
0.0
 30
0.0
 70
   128
 71
   153
 72
   150
 73
   142
 74
   145
  0
VERTEX
  5
1CC
  8
METAL
 10
0.0
 20
0.0
 30
0.0
 70
   128
 71
   145
 72
   142
 73
   134
 74
   137
  0
VERTEX
  5
1CD
  8
METAL
 10
0.0
 20
0.0
 30
0.0
 70
   128
 71
   137
 72
   134
 73
   126
 74
   130
  0
VERTEX
  5
1CE
  8
METAL
 10
0.0
 20
0.0
 30
0.0
 70
   128
 71
   275
 72
   281
 73
   285
 74
   252
  0
VERTEX
  5
1CF
  8
METAL
 10
0.0
 20
0.0
 30
0.0
 70
   128
 71
   252
 72
   285
 73
   289
 74
   254
  0
VERTEX
  5
1D0
  8
METAL
 10
0.0
 20
0.0
 30
0.0
 70
   128
 71
   254
 72
   289
 73
   293
 74
   256
  0
VERTEX
  5
1D1
  8
METAL
 10
0.0
 20
0.0
 30
0.0
 70
   128
 71
   256
 72
   293
 73
   297
 74
   258
  0
VERTEX
  5
1D2
  8
METAL
 10
0.0
 20
0.0
 30
0.0
 70
   128
 71
   135
 72
   133
 73
   141
 74
   143
  0
VERTEX
  5
1D3
  8
METAL
 10
0.0
 20
0.0
 30
0.0
 70
   128
 71
   143
 72
   141
 73
   149
 74
   151
  0
VERTEX
  5
1D4
  8
METAL
 10
0.0
 20
0.0
 30
0.0
 70
   128
 71
   151
 72
   149
 73
   157
 74
   161
  0
VERTEX
  5
1D5
  8
METAL
 10
0.0
 20
0.0
 30
0.0
 70
   128
 71
   161
 72
   157
 73
   164
 74
   169
  0
VERTEX
  5
1D6
  8
METAL
 10
0.0
 20
0.0
 30
0.0
 70
   128
 71
   222
 72
   186
 73
   118
 74
   121
  0
VERTEX
  5
1D7
  8
METAL
 10
0.0
 20
0.0
 30
0.0
 70
   128
 71
   130
 72
   126
 73
   110
 74
   114
  0
VERTEX
  5
1D8
  8
METAL
 10
0.0
 20
0.0
 30
0.0
 70
   128
 71
   128
 72
   131
 73
   115
 74
   112
  0
VERTEX
  5
1D9
  8
METAL
 10
0.0
 20
0.0
 30
0.0
 70
   128
 71
   189
 72
   184
 73
   233
 74
   235
  0
VERTEX
  5
1DA
  8
METAL
 10
0.0
 20
0.0
 30
0.0
 70
   128
 71
   267
 72
   301
 73
   303
 74
   270
  0
VERTEX
  5
1DB
  8
METAL
 10
0.0
 20
0.0
 30
0.0
 70
   128
 71
   221
 72
   226
 73
   228
 74
   224
  0
VERTEX
  5
1DC
  8
METAL
 10
0.0
 20
0.0
 30
0.0
 70
   128
 71
   249
 72
   242
 73
   244
 74
   272
  0
VERTEX
  5
1DD
  8
METAL
 10
0.0
 20
0.0
 30
0.0
 70
   128
 71
   120
 72
   123
 73
   107
 74
   104
  0
VERTEX
  5
1DE
  8
METAL
 10
0.0
 20
0.0
 30
0.0
 70
   128
 71
   121
 72
   118
 73
   102
 74
   105
  0
VERTEX
  5
1DF
  8
METAL
 10
0.0
 20
0.0
 30
0.0
 70
   128
 71
   114
 72
   110
 73
    94
 74
    98
  0
VERTEX
  5
1E0
  8
METAL
 10
0.0
 20
0.0
 30
0.0
 70
   128
 71
   112
 72
   115
 73
    99
 74
    95
  0
VERTEX
  5
1E1
  8
METAL
 10
0.0
 20
0.0
 30
0.0
 70
   128
 71
   104
 72
   107
 73
    91
 74
    88
  0
VERTEX
  5
1E2
  8
METAL
 10
0.0
 20
0.0
 30
0.0
 70
   128
 71
   105
 72
   102
 73
    86
 74
    89
  0
VERTEX
  5
1E3
  8
METAL
 10
0.0
 20
0.0
 30
0.0
 70
   128
 71
    98
 72
    94
 73
    78
 74
    82
  0
VERTEX
  5
1E4
  8
METAL
 10
0.0
 20
0.0
 30
0.0
 70
   128
 71
    95
 72
    99
 73
    83
 74
    79
  0
VERTEX
  5
1E5
  8
METAL
 10
0.0
 20
0.0
 30
0.0
 70
   128
 71
    88
 72
    91
 73
    75
 74
    72
  0
VERTEX
  5
1E6
  8
METAL
 10
0.0
 20
0.0
 30
0.0
 70
   128
 71
    89
 72
    86
 73
    70
 74
    73
  0
VERTEX
  5
1E7
  8
METAL
 10
0.0
 20
0.0
 30
0.0
 70
   128
 71
    82
 72
    78
 73
    62
 74
    66
  0
VERTEX
  5
1E8
  8
METAL
 10
0.0
 20
0.0
 30
0.0
 70
   128
 71
    79
 72
    83
 73
    67
 74
    63
  0
VERTEX
  5
1E9
  8
METAL
 10
0.0
 20
0.0
 30
0.0
 70
   128
 71
    72
 72
    75
 73
    59
 74
    56
  0
VERTEX
  5
1EA
  8
METAL
 10
0.0
 20
0.0
 30
0.0
 70
   128
 71
    73
 72
    70
 73
    54
 74
    57
  0
VERTEX
  5
1EB
  8
METAL
 10
0.0
 20
0.0
 30
0.0
 70
   128
 71
    66
 72
    62
 73
    46
 74
    50
  0
VERTEX
  5
1EC
  8
METAL
 10
0.0
 20
0.0
 30
0.0
 70
   128
 71
    63
 72
    67
 73
    51
 74
    47
  0
VERTEX
  5
1ED
  8
METAL
 10
0.0
 20
0.0
 30
0.0
 70
   128
 71
    56
 72
    59
 73
    43
 74
    40
  0
VERTEX
  5
1EE
  8
METAL
 10
0.0
 20
0.0
 30
0.0
 70
   128
 71
    57
 72
    54
 73
    38
 74
    41
  0
VERTEX
  5
1EF
  8
METAL
 10
0.0
 20
0.0
 30
0.0
 70
   128
 71
    50
 72
    46
 73
    28
 74
    34
  0
VERTEX
  5
1F0
  8
METAL
 10
0.0
 20
0.0
 30
0.0
 70
   128
 71
    47
 72
    51
 73
    35
 74
    30
  0
VERTEX
  5
1F1
  8
METAL
 10
0.0
 20
0.0
 30
0.0
 70
   128
 71
    40
 72
    43
 73
     6
 74
    17
  0
VERTEX
  5
1F2
  8
METAL
 10
0.0
 20
0.0
 30
0.0
 70
   128
 71
    41
 72
    38
 73
    24
 74
    19
  0
VERTEX
  5
1F3
  8
METAL
 10
0.0
 20
0.0
 30
0.0
 70
   128
 71
    32
 72
    27
 73
     4
 74
    13
  0
VERTEX
  5
1F4
  8
METAL
 10
0.0
 20
0.0
 30
0.0
 70
   128
 71
    30
 72
    35
 73
    21
 74
    11
  0
VERTEX
  5
1F5
  8
METAL
 10
0.0
 20
0.0
 30
0.0
 70
   128
 71
    11
 72
    21
 73
    23
 74
    16
  0
VERTEX
  5
1F6
  8
METAL
 10
0.0
 20
0.0
 30
0.0
 70
   128
 71
    19
 72
    24
 73
    22
 74
    14
  0
VERTEX
  5
1F7
  8
METAL
 10
0.0
 20
0.0
 30
0.0
 70
   128
 71
   263
 72
   260
 73
   276
 74
   276
  0
VERTEX
  5
1F8
  8
METAL
 10
0.0
 20
0.0
 30
0.0
 70
   128
 71
   233
 72
   259
 73
   261
 74
   235
  0
VERTEX
  5
1F9
  8
METAL
 10
0.0
 20
0.0
 30
0.0
 70
   128
 71
   234
 72
   262
 73
   264
 74
   236
  0
VERTEX
  5
1FA
  8
METAL
 10
0.0
 20
0.0
 30
0.0
 70
   128
 71
   178
 72
   173
 73
   160
 74
   163
  0
VERTEX
  5
1FB
  8
METAL
 10
0.0
 20
0.0
 30
0.0
 70
   128
 71
   240
 72
   246
 73
   274
 74
   245
  0
VERTEX
  5
1FC
  8
METAL
 10
0.0
 20
0.0
 30
0.0
 70
   128
 71
   236
 72
   264
 73
   266
 74
   237
  0
VERTEX
  5
1FD
  8
METAL
 10
0.0
 20
0.0
 30
0.0
 70
   128
 71
   242
 72
   249
 73
   247
 74
   241
  0
VERTEX
  5
1FE
  8
METAL
 10
0.0
 20
0.0
 30
0.0
 70
   128
 71
   123
 72
   120
 73
   190
 74
   191
  0
VERTEX
  5
1FF
  8
METAL
 10
0.0
 20
0.0
 30
0.0
 70
   128
 71
   131
 72
   128
 73
   136
 74
   139
  0
VERTEX
  5
200
  8
METAL
 10
0.0
 20
0.0
 30
0.0
 70
   128
 71
   232
 72
   257
 73
   259
 74
   233
  0
VERTEX
  5
201
  8
METAL
 10
0.0
 20
0.0
 30
0.0
 70
   128
 71
   163
 72
   160
 73
   154
 74
   156
  0
VERTEX
  5
202
  8
METAL
 10
0.0
 20
0.0
 30
0.0
 70
   128
 71
   156
 72
   154
 73
   146
 74
   148
  0
VERTEX
  5
203
  8
METAL
 10
0.0
 20
0.0
 30
0.0
 70
   128
 71
   148
 72
   146
 73
   138
 74
   140
  0
VERTEX
  5
204
  8
METAL
 10
0.0
 20
0.0
 30
0.0
 70
   128
 71
   140
 72
   138
 73
   129
 74
   132
  0
VERTEX
  5
205
  8
METAL
 10
0.0
 20
0.0
 30
0.0
 70
   128
 71
   245
 72
   274
 73
   251
 74
   229
  0
VERTEX
  5
206
  8
METAL
 10
0.0
 20
0.0
 30
0.0
 70
   128
 71
   229
 72
   251
 73
   253
 74
   230
  0
VERTEX
  5
207
  8
METAL
 10
0.0
 20
0.0
 30
0.0
 70
   128
 71
   230
 72
   253
 73
   255
 74
   231
  0
VERTEX
  5
208
  8
METAL
 10
0.0
 20
0.0
 30
0.0
 70
   128
 71
   231
 72
   255
 73
   257
 74
   232
  0
VERTEX
  5
209
  8
METAL
 10
0.0
 20
0.0
 30
0.0
 70
   128
 71
   139
 72
   136
 73
   144
 74
   147
  0
VERTEX
  5
20A
  8
METAL
 10
0.0
 20
0.0
 30
0.0
 70
   128
 71
   147
 72
   144
 73
   152
 74
   155
  0
VERTEX
  5
20B
  8
METAL
 10
0.0
 20
0.0
 30
0.0
 70
   128
 71
   155
 72
   152
 73
   162
 74
   168
  0
VERTEX
  5
20C
  8
METAL
 10
0.0
 20
0.0
 30
0.0
 70
   128
 71
   168
 72
   162
 73
   170
 74
   176
  0
VERTEX
  5
20D
  8
METAL
 10
0.0
 20
0.0
 30
0.0
 70
   128
 71
   226
 72
   221
 73
   122
 74
   124
  0
VERTEX
  5
20E
  8
METAL
 10
0.0
 20
0.0
 30
0.0
 70
   128
 71
   132
 72
   129
 73
   113
 74
   116
  0
VERTEX
  5
20F
  8
METAL
 10
0.0
 20
0.0
 30
0.0
 70
   128
 71
   125
 72
   127
 73
   111
 74
   109
  0
VERTEX
  5
210
  8
METAL
 10
0.0
 20
0.0
 30
0.0
 70
   128
 71
   191
 72
   190
 73
   234
 74
   236
  0
VERTEX
  5
211
  8
METAL
 10
0.0
 20
0.0
 30
0.0
 70
   128
 71
   237
 72
   266
 73
   269
 74
   239
  0
VERTEX
  5
212
  8
METAL
 10
0.0
 20
0.0
 30
0.0
 70
   128
 71
   185
 72
   220
 73
   223
 74
   187
  0
VERTEX
  5
213
  8
METAL
 10
0.0
 20
0.0
 30
0.0
 70
   128
 71
   278
 72
   250
 73
   273
 74
   280
  0
VERTEX
  5
214
  8
METAL
 10
0.0
 20
0.0
 30
0.0
 70
   128
 71
   117
 72
   119
 73
   103
 74
   101
  0
VERTEX
  5
215
  8
METAL
 10
0.0
 20
0.0
 30
0.0
 70
   128
 71
   124
 72
   122
 73
   106
 74
   108
  0
VERTEX
  5
216
  8
METAL
 10
0.0
 20
0.0
 30
0.0
 70
   128
 71
   116
 72
   113
 73
    97
 74
   100
  0
VERTEX
  5
217
  8
METAL
 10
0.0
 20
0.0
 30
0.0
 70
   128
 71
   109
 72
   111
 73
    96
 74
    93
  0
VERTEX
  5
218
  8
METAL
 10
0.0
 20
0.0
 30
0.0
 70
   128
 71
   101
 72
   103
 73
    87
 74
    85
  0
VERTEX
  5
219
  8
METAL
 10
0.0
 20
0.0
 30
0.0
 70
   128
 71
   108
 72
   106
 73
    90
 74
    92
  0
VERTEX
  5
21A
  8
METAL
 10
0.0
 20
0.0
 30
0.0
 70
   128
 71
   100
 72
    97
 73
    81
 74
    84
  0
VERTEX
  5
21B
  8
METAL
 10
0.0
 20
0.0
 30
0.0
 70
   128
 71
    93
 72
    96
 73
    80
 74
    77
  0
VERTEX
  5
21C
  8
METAL
 10
0.0
 20
0.0
 30
0.0
 70
   128
 71
    85
 72
    87
 73
    71
 74
    69
  0
VERTEX
  5
21D
  8
METAL
 10
0.0
 20
0.0
 30
0.0
 70
   128
 71
    92
 72
    90
 73
    74
 74
    76
  0
VERTEX
  5
21E
  8
METAL
 10
0.0
 20
0.0
 30
0.0
 70
   128
 71
    84
 72
    81
 73
    65
 74
    68
  0
VERTEX
  5
21F
  8
METAL
 10
0.0
 20
0.0
 30
0.0
 70
   128
 71
    77
 72
    80
 73
    64
 74
    61
  0
VERTEX
  5
220
  8
METAL
 10
0.0
 20
0.0
 30
0.0
 70
   128
 71
    69
 72
    71
 73
    55
 74
    53
  0
VERTEX
  5
221
  8
METAL
 10
0.0
 20
0.0
 30
0.0
 70
   128
 71
    76
 72
    74
 73
    58
 74
    60
  0
VERTEX
  5
222
  8
METAL
 10
0.0
 20
0.0
 30
0.0
 70
   128
 71
    68
 72
    65
 73
    49
 74
    52
  0
VERTEX
  5
223
  8
METAL
 10
0.0
 20
0.0
 30
0.0
 70
   128
 71
    61
 72
    64
 73
    48
 74
    45
  0
VERTEX
  5
224
  8
METAL
 10
0.0
 20
0.0
 30
0.0
 70
   128
 71
    53
 72
    55
 73
    39
 74
    37
  0
VERTEX
  5
225
  8
METAL
 10
0.0
 20
0.0
 30
0.0
 70
   128
 71
    60
 72
    58
 73
    42
 74
    44
  0
VERTEX
  5
226
  8
METAL
 10
0.0
 20
0.0
 30
0.0
 70
   128
 71
    52
 72
    49
 73
    33
 74
    36
  0
VERTEX
  5
227
  8
METAL
 10
0.0
 20
0.0
 30
0.0
 70
   128
 71
    45
 72
    48
 73
    31
 74
    26
  0
VERTEX
  5
228
  8
METAL
 10
0.0
 20
0.0
 30
0.0
 70
   128
 71
    37
 72
    39
 73
    16
 74
    23
  0
VERTEX
  5
229
  8
METAL
 10
0.0
 20
0.0
 30
0.0
 70
   128
 71
    44
 72
    42
 73
    20
 74
     8
  0
VERTEX
  5
22A
  8
METAL
 10
0.0
 20
0.0
 30
0.0
 70
   128
 71
    36
 72
    33
 73
    14
 74
    22
  0
VERTEX
  5
22B
  8
METAL
 10
0.0
 20
0.0
 30
0.0
 70
   128
 71
    25
 72
    29
 73
    10
 74
     2
  0
VERTEX
  5
22C
  8
METAL
 10
0.0
 20
0.0
 30
0.0
 70
   128
 71
     1
 72
     9
 73
    15
 74
     5
  0
VERTEX
  5
22D
  8
METAL
 10
0.0
 20
0.0
 30
0.0
 70
   128
 71
     7
 72
    18
 73
    12
 74
     3
  0
SEQEND
  5
279
  8
METAL
  0
ENDSEC
  0
EOF
