  0
SECTION
  2
HEADER
  9
$ACADVER
  1
AC1009
  9
$DWGCODEPAGE
  3
ansi_1252
  9
$INSBASE
 10
0.0
 20
0.0
 30
0.0
  9
$EXTMIN
 10
-37.5
 20
-24.98650352656841
 30
-37.5
  9
$EXTMAX
 10
37.76345729827881
 20
0.0
 30
36.81287336349487
  9
$LIMMIN
 10
0.0
 20
0.0
  9
$LIMMAX
 10
12.0
 20
9.0
  9
$ORTHOMODE
 70
     1
  9
$REGENMODE
 70
     1
  9
$FILLMODE
 70
     1
  9
$QTEXTMODE
 70
     0
  9
$MIRRTEXT
 70
     1
  9
$DRAGMODE
 70
     2
  9
$LTSCALE
 40
1.0
  9
$OSMODE
 70
    37
  9
$ATTMODE
 70
     1
  9
$TEXTSIZE
 40
0.2
  9
$TRACEWID
 40
0.05
  9
$TEXTSTYLE
  7
STANDARD
  9
$CLAYER
  8
0
  9
$CELTYPE
  6
BYLAYER
  9
$CECOLOR
 62
   256
  9
$DIMSCALE
 40
1.0
  9
$DIMASZ
 40
0.18
  9
$DIMEXO
 40
0.0625
  9
$DIMDLI
 40
0.38
  9
$DIMRND
 40
0.0
  9
$DIMDLE
 40
0.0
  9
$DIMEXE
 40
0.18
  9
$DIMTP
 40
0.0
  9
$DIMTM
 40
0.0
  9
$DIMTXT
 40
0.18
  9
$DIMCEN
 40
0.09
  9
$DIMTSZ
 40
0.0
  9
$DIMTOL
 70
     0
  9
$DIMLIM
 70
     0
  9
$DIMTIH
 70
     1
  9
$DIMTOH
 70
     1
  9
$DIMSE1
 70
     0
  9
$DIMSE2
 70
     0
  9
$DIMTAD
 70
     0
  9
$DIMZIN
 70
     0
  9
$DIMBLK
  1

  9
$DIMASO
 70
     1
  9
$DIMSHO
 70
     1
  9
$DIMPOST
  1

  9
$DIMAPOST
  1

  9
$DIMALT
 70
     0
  9
$DIMALTD
 70
     2
  9
$DIMALTF
 40
25.4
  9
$DIMLFAC
 40
1.0
  9
$DIMTOFL
 70
     0
  9
$DIMTVP
 40
0.0
  9
$DIMTIX
 70
     0
  9
$DIMSOXD
 70
     0
  9
$DIMSAH
 70
     0
  9
$DIMBLK1
  1

  9
$DIMBLK2
  1

  9
$DIMSTYLE
  2
STANDARD
  9
$DIMCLRD
 70
     0
  9
$DIMCLRE
 70
     0
  9
$DIMCLRT
 70
     0
  9
$DIMTFAC
 40
1.0
  9
$DIMGAP
 40
0.09
  9
$LUNITS
 70
     2
  9
$LUPREC
 70
     3
  9
$SKETCHINC
 40
0.1
  9
$FILLETRAD
 40
0.5
  9
$AUNITS
 70
     0
  9
$AUPREC
 70
     0
  9
$MENU
  1
.
  9
$ELEVATION
 40
0.0
  9
$PELEVATION
 40
0.0
  9
$THICKNESS
 40
0.0
  9
$LIMCHECK
 70
     0
  9
$CHAMFERA
 40
0.5
  9
$CHAMFERB
 40
0.5
  9
$SKPOLY
 70
     0
  9
$TDCREATE
 40
2456503.440578067
  9
$TDUPDATE
 40
2456503.440578079
  9
$TDINDWG
 40
0.0039120486
  9
$TDUSRTIMER
 40
0.0039120486
  9
$USRTIMER
 70
     1
  9
$ANGBASE
 50
0.0
  9
$ANGDIR
 70
     0
  9
$PDMODE
 70
     0
  9
$PDSIZE
 40
0.0
  9
$PLINEWID
 40
0.0
  9
$COORDS
 70
     1
  9
$SPLFRAME
 70
     0
  9
$SPLINETYPE
 70
     6
  9
$SPLINESEGS
 70
     8
  9
$ATTDIA
 70
     0
  9
$ATTREQ
 70
     1
  9
$HANDLING
 70
     1
  9
$HANDSEED
  5
706
  9
$SURFTAB1
 70
     6
  9
$SURFTAB2
 70
     6
  9
$SURFTYPE
 70
     6
  9
$SURFU
 70
     6
  9
$SURFV
 70
     6
  9
$UCSNAME
  2

  9
$UCSORG
 10
0.0
 20
0.0
 30
0.0
  9
$UCSXDIR
 10
1.0
 20
0.0
 30
0.0
  9
$UCSYDIR
 10
0.0
 20
0.0
 30
1.0
  9
$PUCSNAME
  2

  9
$PUCSORG
 10
0.0
 20
0.0
 30
0.0
  9
$PUCSXDIR
 10
1.0
 20
0.0
 30
0.0
  9
$PUCSYDIR
 10
0.0
 20
1.0
 30
0.0
  9
$USERI1
 70
     0
  9
$USERI2
 70
     0
  9
$USERI3
 70
     0
  9
$USERI4
 70
     0
  9
$USERI5
 70
     0
  9
$USERR1
 40
0.0
  9
$USERR2
 40
0.0
  9
$USERR3
 40
0.0
  9
$USERR4
 40
0.0
  9
$USERR5
 40
0.0
  9
$WORLDVIEW
 70
     1
  9
$SHADEDGE
 70
     3
  9
$SHADEDIF
 70
    70
  9
$TILEMODE
 70
     1
  9
$MAXACTVP
 70
    64
  9
$PLIMCHECK
 70
     0
  9
$PEXTMIN
 10
1.000000000000000E+20
 20
1.000000000000000E+20
 30
1.000000000000000E+20
  9
$PEXTMAX
 10
-1.000000000000000E+20
 20
-1.000000000000000E+20
 30
-1.000000000000000E+20
  9
$PLIMMIN
 10
0.0
 20
0.0
  9
$PLIMMAX
 10
12.0
 20
9.0
  9
$UNITMODE
 70
     0
  9
$VISRETAIN
 70
     1
  9
$PLINEGEN
 70
     0
  9
$PSLTSCALE
 70
     1
  0
ENDSEC
  0
SECTION
  2
TABLES
  0
TABLE
  2
VPORT
 70
     1
  0
VPORT
  2
*ACTIVE
 70
     0
 10
0.0
 20
0.0
 11
1.0
 21
1.0
 12
8.927209261972068
 22
-5.327088953564546
 13
0.0
 23
0.0
 14
0.5
 24
0.5
 15
0.5
 25
0.5
 16
-1.0
 26
-1.0
 36
1.0
 17
0.0
 27
0.0
 37
0.0
 40
129.5439297361778
 41
1.024179965834464
 42
50.0
 43
0.0
 44
0.0
 50
0.0
 51
0.0
 71
    16
 72
   100
 73
     0
 74
     1
 75
     0
 76
     0
 77
     0
 78
     0
  0
ENDTAB
  0
TABLE
  2
LTYPE
 70
     1
  0
LTYPE
  2
CONTINUOUS
 70
     0
  3
Solid line
 72
    65
 73
     0
 40
0.0
  0
ENDTAB
  0
TABLE
  2
LAYER
 70
     5
  0
LAYER
  2
0
 70
     0
 62
     7
  6
CONTINUOUS
  0
LAYER
  2
CRISTAL
 70
     0
 62
    20
  6
CONTINUOUS
  0
LAYER
  2
METAL
 70
     0
 62
   150
  6
CONTINUOUS
  0
LAYER
  2
CRISTAL2
 70
     0
 62
   121
  6
CONTINUOUS
  0
LAYER
  2
CRISTAL3
 70
     0
 62
   231
  6
CONTINUOUS
  0
ENDTAB
  0
TABLE
  2
STYLE
 70
     1
  0
STYLE
  2
STANDARD
 70
     0
 40
0.0
 41
1.0
 50
0.0
 71
     0
 42
0.2
  3
txt
  4

  0
ENDTAB
  0
TABLE
  2
VIEW
 70
     0
  0
ENDTAB
  0
TABLE
  2
UCS
 70
     0
  0
ENDTAB
  0
TABLE
  2
APPID
 70
     1
  0
APPID
  2
ACAD
 70
     0
  0
ENDTAB
  0
TABLE
  2
DIMSTYLE
 70
     1
  0
DIMSTYLE
  2
STANDARD
 70
     0
  3

  4

  5

  6

  7

 40
1.0
 41
0.18
 42
0.0625
 43
0.38
 44
0.18
 45
0.0
 46
0.0
 47
0.0
 48
0.0
140
0.18
141
0.09
142
0.0
143
25.4
144
1.0
145
0.0
146
1.0
147
0.09
 71
     0
 72
     0
 73
     1
 74
     1
 75
     0
 76
     0
 77
     0
 78
     0
170
     0
171
     2
172
     0
173
     0
174
     0
175
     0
176
     0
177
     0
178
     0
  0
ENDTAB
  0
ENDSEC
  0
SECTION
  2
BLOCKS
  0
BLOCK
  8
0
  2
$MODEL_SPACE
 70
     0
 10
0.0
 20
0.0
 30
0.0
  3
$MODEL_SPACE
  1

  0
ENDBLK
  5
21
  8
0
  0
BLOCK
 67
     1
  8
0
  2
$PAPER_SPACE
 70
     0
 10
0.0
 20
0.0
 30
0.0
  3
$PAPER_SPACE
  1

  0
ENDBLK
  5
76
 67
     1
  8
0
  0
ENDSEC
  0
SECTION
  2
ENTITIES
  0
POLYLINE
  5
4A
  8
CRISTAL2
 66
     1
 10
0.0
 20
0.0
 30
0.0
 70
    64
 71
     4
 72
     1
  0
VERTEX
  5
4B
  8
CRISTAL2
 10
-28.91363578714237
 20
-24.98650352656841
 30
-29.79008886061504
 70
   192
  0
VERTEX
  5
4C
  8
CRISTAL2
 10
-32.91363578714237
 20
-24.98650352656841
 30
-29.79008886061504
 70
   192
  0
VERTEX
  5
4D
  8
CRISTAL2
 10
-32.91363578714237
 20
-24.98650352656841
 30
-35.79008892021969
 70
   192
  0
VERTEX
  5
4E
  8
CRISTAL2
 10
-28.91363578714237
 20
-24.98650352656841
 30
-35.790089873894
 70
   192
  0
VERTEX
  5
4F
  8
CRISTAL
 10
0.0
 20
0.0
 30
0.0
 70
   128
 71
     1
 72
     2
 73
     3
 74
     4
  0
SEQEND
  5
6FD
  8
CRISTAL2
  0
POLYLINE
  5
52
  8
METAL
 66
     1
 10
0.0
 20
0.0
 30
0.0
 70
    64
 71
    56
 72
    38
  0
VERTEX
  5
53
  8
METAL
 10
6.17233943939209
 20
-21.99142241477967
 30
34.14329290390015
 70
   192
  0
VERTEX
  5
54
  8
METAL
 10
5.569376468658447
 20
-21.99142241477967
 30
31.50154066085814
 70
   192
  0
VERTEX
  5
55
  8
METAL
 10
5.088359355926514
 20
-21.35386562347413
 30
34.14329290390015
 70
   192
  0
VERTEX
  5
56
  8
METAL
 10
4.59274435043335
 20
-21.35386562347413
 30
31.97186231613159
 70
   192
  0
VERTEX
  5
57
  8
METAL
 10
4.31038236618042
 20
-20.71630764007569
 30
34.14329290390015
 70
   192
  0
VERTEX
  5
58
  8
METAL
 10
3.891811370849609
 20
-20.71630764007569
 30
32.30941343307495
 70
   192
  0
VERTEX
  5
5E7
  8
METAL
 10
3.879912376403809
 20
-21.99142241477967
 30
29.3830199241638
 70
   192
  0
VERTEX
  5
5E8
  8
METAL
 10
3.838409423828125
 20
-20.07875061035157
 30
34.14329290390015
 70
   192
  0
VERTEX
  5
5B
  8
METAL
 10
3.672438144683838
 20
-19.44119358062745
 30
34.14329290390015
 70
   192
  0
VERTEX
  5
5C
  8
METAL
 10
3.672438144683838
 20
-0.0924854278564524
 30
34.14329290390015
 70
   192
  0
VERTEX
  5
5D
  8
METAL
 10
3.672438144683838
 20
-0.0924854278564524
 30
34.14329290390015
 70
   192
  0
VERTEX
  5
5E9
  8
METAL
 10
3.466578483581543
 20
-20.07875061035157
 30
32.51419401168823
 70
   192
  0
VERTEX
  5
5F
  8
METAL
 10
3.317043304443359
 20
-0.0924854278564524
 30
32.5862078666687
 70
   192
  0
VERTEX
  5
60
  8
METAL
 10
3.317043304443359
 20
-0.0924854278564524
 30
32.5862078666687
 70
   192
  0
VERTEX
  5
61
  8
METAL
 10
3.317043304443359
 20
-19.44119358062745
 30
32.58620595932007
 70
   192
  0
VERTEX
  5
62
  8
METAL
 10
3.204062461853027
 20
-21.35386562347413
 30
30.23050832748412
 70
   192
  0
VERTEX
  5
63
  8
METAL
 10
2.719001293182373
 20
-20.71630764007569
 30
30.83875608444212
 70
   192
  0
VERTEX
  5
64
  8
METAL
 10
2.42473030090332
 20
-20.07875061035157
 30
31.20775938034056
 70
   192
  0
VERTEX
  5
65
  8
METAL
 10
2.321250438690186
 20
-19.44119358062745
 30
31.33752012252806
 70
   192
  0
VERTEX
  5
66
  8
METAL
 10
2.321250438690186
 20
-0.0924854278564524
 30
31.33752012252806
 70
   192
  0
VERTEX
  5
67
  8
METAL
 10
2.321250438690186
 20
-0.0924854278564524
 30
31.33752012252806
 70
   192
  0
VERTEX
  5
68
  8
METAL
 10
1.438565254211426
 20
-21.99142241477967
 30
28.20732831954955
 70
   192
  0
VERTEX
  5
69
  8
METAL
 10
1.197357177734375
 20
-21.35386562347413
 30
29.26413106918334
 70
   192
  0
VERTEX
  5
6A
  8
METAL
 10
1.02424144744873
 20
-20.71630764007569
 30
30.02260160446166
 70
   192
  0
VERTEX
  5
5EA
  8
METAL
 10
0.9192171096801758
 20
-20.07875061035157
 30
30.48274183273314
 70
   192
  0
VERTEX
  5
5EB
  8
METAL
 10
0.8822860717773438
 20
-19.44119358062745
 30
30.64455175399779
 70
   192
  0
VERTEX
  5
6D
  8
METAL
 10
0.8822860717773438
 20
-0.0924854278564524
 30
30.64455175399779
 70
   192
  0
VERTEX
  5
6E
  8
METAL
 10
0.8822860717773438
 20
-0.0924854278564524
 30
30.64455175399779
 70
   192
  0
VERTEX
  5
6F
  8
METAL
 10
-0.71484375
 20
-19.44119358062745
 30
30.64455175399779
 70
   192
  0
VERTEX
  5
70
  8
METAL
 10
-0.71484375
 20
-0.0924854278564524
 30
30.64455175399779
 70
   192
  0
VERTEX
  5
71
  8
METAL
 10
-0.71484375
 20
-0.0924854278564524
 30
30.64455175399779
 70
   192
  0
VERTEX
  5
72
  8
METAL
 10
-0.7517757415771484
 20
-20.07875061035157
 30
30.48274183273314
 70
   192
  0
VERTEX
  5
5EC
  8
METAL
 10
-0.8568000793457031
 20
-20.71630764007569
 30
30.02260160446166
 70
   192
  0
VERTEX
  5
5ED
  8
METAL
 10
-1.029915809631348
 20
-21.35386562347413
 30
29.26413106918334
 70
   192
  0
VERTEX
  5
5EE
  8
METAL
 10
-1.271123886108398
 20
-21.99142241477967
 30
28.20732831954955
 70
   192
  0
VERTEX
  5
5EF
  8
METAL
 10
-2.153807640075684
 20
-19.44119358062745
 30
31.33752012252806
 70
   192
  0
VERTEX
  5
77
  8
METAL
 10
-2.153807640075684
 20
-0.0924854278564524
 30
31.33752012252806
 70
   192
  0
VERTEX
  5
78
  8
METAL
 10
-2.153807640075684
 20
-0.0924854278564524
 30
31.33752012252806
 70
   192
  0
VERTEX
  5
79
  8
METAL
 10
-2.257287979125969
 20
-20.07875061035157
 30
31.20775938034056
 70
   192
  0
VERTEX
  5
7A
  8
METAL
 10
-2.551559448242188
 20
-20.71630764007569
 30
30.83875608444212
 70
   192
  0
VERTEX
  5
7B
  8
METAL
 10
-3.036619186401374
 20
-21.35386562347413
 30
30.23050832748412
 70
   192
  0
VERTEX
  5
7C
  8
METAL
 10
-3.149600982666016
 20
-19.44119358062745
 30
32.58620595932007
 70
   192
  0
VERTEX
  5
7D
  8
METAL
 10
-3.149600982666016
 20
-0.0924854278564524
 30
32.58620595932007
 70
   192
  0
VERTEX
  5
7E
  8
METAL
 10
-3.149600982666016
 20
-0.0924854278564524
 30
32.58620595932007
 70
   192
  0
VERTEX
  5
7F
  8
METAL
 10
-3.299135208129883
 20
-20.07875061035157
 30
32.51419401168823
 70
   192
  0
VERTEX
  5
80
  8
METAL
 10
-3.504996299743652
 20
-19.44119358062745
 30
34.14329290390015
 70
   192
  0
VERTEX
  5
81
  8
METAL
 10
-3.504996299743652
 20
-0.0924854278564524
 30
34.14329290390015
 70
   192
  0
VERTEX
  5
82
  8
METAL
 10
-3.504996299743652
 20
-0.0924854278564524
 30
34.14329290390015
 70
   192
  0
VERTEX
  5
83
  8
METAL
 10
-3.670967102050781
 20
-20.07875061035157
 30
34.14329290390015
 70
   192
  0
VERTEX
  5
84
  8
METAL
 10
-3.712470054626465
 20
-21.99142241477967
 30
29.3830199241638
 70
   192
  0
VERTEX
  5
85
  8
METAL
 10
-3.724369049072266
 20
-20.71630764007569
 30
32.30941343307495
 70
   192
  0
VERTEX
  5
86
  8
METAL
 10
-4.142940521240234
 20
-20.71630764007569
 30
34.14329290390015
 70
   192
  0
VERTEX
  5
87
  8
METAL
 10
-4.425302505493164
 20
-21.35386562347413
 30
31.97186231613159
 70
   192
  0
VERTEX
  5
88
  8
METAL
 10
-4.920917510986328
 20
-21.35386562347413
 30
34.14329290390015
 70
   192
  0
VERTEX
  5
89
  8
METAL
 10
-5.401933670043945
 20
-21.99142241477967
 30
31.50154066085814
 70
   192
  0
VERTEX
  5
8A
  8
METAL
 10
-6.004897117614743
 20
-21.99142241477967
 30
34.14329290390015
 70
   192
  0
VERTEX
  5
8B
  8
METAL
 10
0.0
 20
0.0
 30
0.0
 70
   128
 71
    13
 72
    10
 73
     9
 74
    15
  0
VERTEX
  5
8C
  8
METAL
 10
0.0
 20
0.0
 30
0.0
 70
   128
 71
    20
 72
    13
 73
    15
 74
    19
  0
VERTEX
  5
8D
  8
METAL
 10
0.0
 20
0.0
 30
0.0
 70
   128
 71
    27
 72
    20
 73
    19
 74
    26
  0
VERTEX
  5
8E
  8
METAL
 10
0.0
 20
0.0
 30
0.0
 70
   128
 71
    31
 72
    27
 73
    26
 74
    29
  0
VERTEX
  5
8F
  8
METAL
 10
0.0
 20
0.0
 30
0.0
 70
   128
 71
    38
 72
    31
 73
    29
 74
    36
  0
VERTEX
  5
90
  8
METAL
 10
0.0
 20
0.0
 30
0.0
 70
   128
 71
    44
 72
    38
 73
    36
 74
    42
  0
VERTEX
  5
91
  8
METAL
 10
0.0
 20
0.0
 30
0.0
 70
   128
 71
    48
 72
    44
 73
    42
 74
    46
  0
VERTEX
  5
5F0
  8
METAL
 10
0.0
 20
0.0
 30
0.0
 70
   128
 71
     3
 72
     1
 73
     2
 74
     4
  0
VERTEX
  5
5F1
  8
METAL
 10
0.0
 20
0.0
 30
0.0
 70
   128
 71
     4
 72
     2
 73
     7
 74
    16
  0
VERTEX
  5
94
  8
METAL
 10
0.0
 20
0.0
 30
0.0
 70
   128
 71
    16
 72
     7
 73
    22
 74
    23
  0
VERTEX
  5
95
  8
METAL
 10
0.0
 20
0.0
 30
0.0
 70
   128
 71
    23
 72
    22
 73
    35
 74
    34
  0
VERTEX
  5
96
  8
METAL
 10
0.0
 20
0.0
 30
0.0
 70
   128
 71
    34
 72
    35
 73
    50
 74
    41
  0
VERTEX
  5
5F2
  8
METAL
 10
0.0
 20
0.0
 30
0.0
 70
   128
 71
    41
 72
    50
 73
    55
 74
    53
  0
VERTEX
  5
5F3
  8
METAL
 10
0.0
 20
0.0
 30
0.0
 70
   128
 71
    53
 72
    55
 73
    56
 74
    54
  0
VERTEX
  5
99
  8
METAL
 10
0.0
 20
0.0
 30
0.0
 70
   128
 71
     5
 72
     3
 73
     4
 74
     6
  0
VERTEX
  5
9A
  8
METAL
 10
0.0
 20
0.0
 30
0.0
 70
   128
 71
     8
 72
     5
 73
     6
 74
    12
  0
VERTEX
  5
9B
  8
METAL
 10
0.0
 20
0.0
 30
0.0
 70
   128
 71
     9
 72
     8
 73
    12
 74
    15
  0
VERTEX
  5
9C
  8
METAL
 10
0.0
 20
0.0
 30
0.0
 70
   128
 71
     6
 72
     4
 73
    16
 74
    17
  0
VERTEX
  5
9D
  8
METAL
 10
0.0
 20
0.0
 30
0.0
 70
   128
 71
    12
 72
     6
 73
    17
 74
    18
  0
VERTEX
  5
9E
  8
METAL
 10
0.0
 20
0.0
 30
0.0
 70
   128
 71
    15
 72
    12
 73
    18
 74
    19
  0
VERTEX
  5
9F
  8
METAL
 10
0.0
 20
0.0
 30
0.0
 70
   128
 71
    17
 72
    16
 73
    23
 74
    24
  0
VERTEX
  5
A0
  8
METAL
 10
0.0
 20
0.0
 30
0.0
 70
   128
 71
    18
 72
    17
 73
    24
 74
    25
  0
VERTEX
  5
A1
  8
METAL
 10
0.0
 20
0.0
 30
0.0
 70
   128
 71
    19
 72
    18
 73
    25
 74
    26
  0
VERTEX
  5
A2
  8
METAL
 10
0.0
 20
0.0
 30
0.0
 70
   128
 71
    24
 72
    23
 73
    34
 74
    33
  0
VERTEX
  5
A3
  8
METAL
 10
0.0
 20
0.0
 30
0.0
 70
   128
 71
    25
 72
    24
 73
    33
 74
    32
  0
VERTEX
  5
A4
  8
METAL
 10
0.0
 20
0.0
 30
0.0
 70
   128
 71
    26
 72
    25
 73
    32
 74
    29
  0
VERTEX
  5
A5
  8
METAL
 10
0.0
 20
0.0
 30
0.0
 70
   128
 71
    33
 72
    34
 73
    41
 74
    40
  0
VERTEX
  5
A6
  8
METAL
 10
0.0
 20
0.0
 30
0.0
 70
   128
 71
    32
 72
    33
 73
    40
 74
    39
  0
VERTEX
  5
A7
  8
METAL
 10
0.0
 20
0.0
 30
0.0
 70
   128
 71
    29
 72
    32
 73
    39
 74
    36
  0
VERTEX
  5
A8
  8
METAL
 10
0.0
 20
0.0
 30
0.0
 70
   128
 71
    40
 72
    41
 73
    53
 74
    51
  0
VERTEX
  5
A9
  8
METAL
 10
0.0
 20
0.0
 30
0.0
 70
   128
 71
    39
 72
    40
 73
    51
 74
    45
  0
VERTEX
  5
AA
  8
METAL
 10
0.0
 20
0.0
 30
0.0
 70
   128
 71
    36
 72
    39
 73
    45
 74
    42
  0
VERTEX
  5
AB
  8
METAL
 10
0.0
 20
0.0
 30
0.0
 70
   128
 71
    51
 72
    53
 73
    54
 74
    52
  0
VERTEX
  5
AC
  8
METAL
 10
0.0
 20
0.0
 30
0.0
 70
   128
 71
    45
 72
    51
 73
    52
 74
    49
  0
VERTEX
  5
AD
  8
METAL
 10
0.0
 20
0.0
 30
0.0
 70
   128
 71
    42
 72
    45
 73
    49
 74
    46
  0
VERTEX
  5
AE
  8
METAL
 10
0.0
 20
0.0
 30
0.0
 70
   128
 71
    47
 72
    11
 73
    14
 74
    43
  0
VERTEX
  5
AF
  8
METAL
 10
0.0
 20
0.0
 30
0.0
 70
   128
 71
    43
 72
    14
 73
    21
 74
    37
  0
VERTEX
  5
B0
  8
METAL
 10
0.0
 20
0.0
 30
0.0
 70
   128
 71
    37
 72
    21
 73
    28
 74
    30
  0
SEQEND
  5
6FE
  8
METAL
  0
POLYLINE
  5
B2
  8
METAL
 66
     1
 10
0.0
 20
0.0
 30
0.0
 70
    64
 71
   952
 72
   352
  0
VERTEX
  5
B3
  8
METAL
 10
37.76345729827881
 20
-24.35965955257417
 30
35.67605543136595
 70
   192
  0
VERTEX
  5
B4
  8
METAL
 10
37.76345729827881
 20
-24.35965955257417
 30
35.67605543136595
 70
   192
  0
VERTEX
  5
B5
  8
METAL
 10
37.76345729827881
 20
-24.35965955257417
 30
35.67605543136595
 70
   192
  0
VERTEX
  5
B6
  8
METAL
 10
37.76345729827881
 20
-22.67895960807801
 30
35.67605543136595
 70
   192
  0
VERTEX
  5
B7
  8
METAL
 10
37.76345729827881
 20
-22.67895960807801
 30
35.67605543136595
 70
   192
  0
VERTEX
  5
B8
  8
METAL
 10
37.76345729827881
 20
-22.67895960807801
 30
35.67605543136595
 70
   192
  0
VERTEX
  5
B9
  8
METAL
 10
37.76345729827881
 20
-24.35965955257417
 30
34.14928007125853
 70
   192
  0
VERTEX
  5
BA
  8
METAL
 10
37.76345729827881
 20
-24.35965955257417
 30
34.14928007125853
 70
   192
  0
VERTEX
  5
BB
  8
METAL
 10
37.76345729827881
 20
-22.67895960807801
 30
34.14928007125853
 70
   192
  0
VERTEX
  5
BC
  8
METAL
 10
37.76345729827881
 20
-22.67895960807801
 30
34.14928007125853
 70
   192
  0
VERTEX
  5
BD
  8
METAL
 10
37.76345729827881
 20
-24.35965955257416
 30
-0.3435635566711568
 70
   192
  0
VERTEX
  5
BE
  8
METAL
 10
37.76345729827881
 20
-24.35965955257416
 30
-0.3435635566711568
 70
   192
  0
VERTEX
  5
BF
  8
METAL
 10
37.76345729827881
 20
-22.67895960807801
 30
-0.3435635566711568
 70
   192
  0
VERTEX
  5
C0
  8
METAL
 10
37.76345729827881
 20
-22.67895960807801
 30
-0.3435635566711568
 70
   192
  0
VERTEX
  5
C1
  8
METAL
 10
37.76345729827881
 20
-24.35965955257415
 30
-34.83640718460083
 70
   192
  0
VERTEX
  5
C2
  8
METAL
 10
37.76345729827881
 20
-24.35965955257415
 30
-34.83640718460083
 70
   192
  0
VERTEX
  5
C3
  8
METAL
 10
37.76345729827881
 20
-22.678959608078
 30
-34.83640718460083
 70
   192
  0
VERTEX
  5
C4
  8
METAL
 10
37.76345729827881
 20
-22.678959608078
 30
-34.83640718460083
 70
   192
  0
VERTEX
  5
C5
  8
METAL
 10
37.76345729827881
 20
-24.35965955257415
 30
-36.36318397521973
 70
   192
  0
VERTEX
  5
C6
  8
METAL
 10
37.76345729827881
 20
-24.35965955257415
 30
-36.36318397521973
 70
   192
  0
VERTEX
  5
C7
  8
METAL
 10
37.76345729827881
 20
-24.35965955257415
 30
-36.36318397521973
 70
   192
  0
VERTEX
  5
C8
  8
METAL
 10
37.76345729827881
 20
-22.678959608078
 30
-36.36318397521973
 70
   192
  0
VERTEX
  5
C9
  8
METAL
 10
37.76345729827881
 20
-22.678959608078
 30
-36.36318397521973
 70
   192
  0
VERTEX
  5
CA
  8
METAL
 10
37.76345729827881
 20
-22.678959608078
 30
-36.36318397521973
 70
   192
  0
VERTEX
  5
CB
  8
METAL
 10
37.62675380706787
 20
-22.26884746551515
 30
35.65387296676636
 70
   192
  0
VERTEX
  5
CC
  8
METAL
 10
37.62675380706787
 20
-22.26884746551515
 30
35.65387296676636
 70
   192
  0
VERTEX
  5
CD
  8
METAL
 10
37.62675380706787
 20
-22.26884746551515
 30
35.65387296676636
 70
   192
  0
VERTEX
  5
CE
  8
METAL
 10
37.62675380706787
 20
-22.26884746551515
 30
35.65387296676636
 70
   192
  0
VERTEX
  5
CF
  8
METAL
 10
37.62675380706787
 20
-22.26884746551515
 30
34.14928007125854
 70
   192
  0
VERTEX
  5
D0
  8
METAL
 10
37.62675380706787
 20
-22.26884746551515
 30
34.14928007125854
 70
   192
  0
VERTEX
  5
D1
  8
METAL
 10
37.62675380706787
 20
-22.26884746551515
 30
34.14928007125854
 70
   192
  0
VERTEX
  5
D2
  8
METAL
 10
37.62675380706787
 20
-22.26884746551515
 30
34.14928007125854
 70
   192
  0
VERTEX
  5
D3
  8
METAL
 10
37.62675380706787
 20
-22.26884746551514
 30
-0.3435635566711568
 70
   192
  0
VERTEX
  5
D4
  8
METAL
 10
37.62675380706787
 20
-22.26884746551514
 30
-0.3435635566711568
 70
   192
  0
VERTEX
  5
D5
  8
METAL
 10
37.62675380706787
 20
-22.26884746551513
 30
-34.83640718460083
 70
   192
  0
VERTEX
  5
D6
  8
METAL
 10
37.62675380706787
 20
-22.26884746551513
 30
-34.83640718460083
 70
   192
  0
VERTEX
  5
D7
  8
METAL
 10
37.62675380706787
 20
-22.26884746551513
 30
-34.83640718460083
 70
   192
  0
VERTEX
  5
D8
  8
METAL
 10
37.62675380706787
 20
-22.26884746551513
 30
-34.83640718460083
 70
   192
  0
VERTEX
  5
D9
  8
METAL
 10
37.62675380706787
 20
-22.26884746551513
 30
-36.34100008010864
 70
   192
  0
VERTEX
  5
DA
  8
METAL
 10
37.62675380706787
 20
-22.26884746551513
 30
-36.34100008010864
 70
   192
  0
VERTEX
  5
DB
  8
METAL
 10
37.62675380706787
 20
-22.26884746551513
 30
-36.34100008010864
 70
   192
  0
VERTEX
  5
DC
  8
METAL
 10
37.62675380706787
 20
-22.26884746551513
 30
-36.34100008010864
 70
   192
  0
VERTEX
  5
DD
  8
METAL
 10
37.61586666107178
 20
-24.80243453383447
 30
35.52846479415892
 70
   192
  0
VERTEX
  5
DE
  8
METAL
 10
37.61586666107178
 20
-24.80243453383447
 30
35.52846479415892
 70
   192
  0
VERTEX
  5
DF
  8
METAL
 10
37.61586666107178
 20
-24.80243453383447
 30
35.52846479415892
 70
   192
  0
VERTEX
  5
E0
  8
METAL
 10
37.61586666107178
 20
-24.80243453383447
 30
35.52846479415892
 70
   192
  0
VERTEX
  5
E1
  8
METAL
 10
37.61586666107178
 20
-24.80243453383447
 30
34.14928007125853
 70
   192
  0
VERTEX
  5
E2
  8
METAL
 10
37.61586666107178
 20
-24.80243453383447
 30
34.14928007125853
 70
   192
  0
VERTEX
  5
E3
  8
METAL
 10
37.61586666107178
 20
-24.80243453383447
 30
34.14928007125853
 70
   192
  0
VERTEX
  5
E4
  8
METAL
 10
37.61586666107178
 20
-24.80243453383447
 30
34.14928007125853
 70
   192
  0
VERTEX
  5
E5
  8
METAL
 10
37.61586666107178
 20
-24.80243453383446
 30
-0.3435635566711568
 70
   192
  0
VERTEX
  5
E6
  8
METAL
 10
37.61586666107178
 20
-24.80243453383446
 30
-0.3435635566711568
 70
   192
  0
VERTEX
  5
E7
  8
METAL
 10
37.61586666107178
 20
-24.80243453383445
 30
-34.83640718460083
 70
   192
  0
VERTEX
  5
E8
  8
METAL
 10
37.61586666107178
 20
-24.80243453383445
 30
-34.83640718460083
 70
   192
  0
VERTEX
  5
E9
  8
METAL
 10
37.61586666107178
 20
-24.80243453383445
 30
-34.83640718460083
 70
   192
  0
VERTEX
  5
EA
  8
METAL
 10
37.61586666107178
 20
-24.80243453383445
 30
-34.83640718460083
 70
   192
  0
VERTEX
  5
EB
  8
METAL
 10
37.61586666107178
 20
-24.80243453383445
 30
-36.21559429168701
 70
   192
  0
VERTEX
  5
EC
  8
METAL
 10
37.61586666107178
 20
-24.80243453383445
 30
-36.21559429168701
 70
   192
  0
VERTEX
  5
ED
  8
METAL
 10
37.61586666107178
 20
-24.80243453383445
 30
-36.21559429168701
 70
   192
  0
VERTEX
  5
EE
  8
METAL
 10
37.61586666107178
 20
-24.80243453383445
 30
-36.21559429168701
 70
   192
  0
VERTEX
  5
EF
  8
METAL
 10
37.47925281524658
 20
-24.35990250110627
 30
36.52867078781125
 70
   192
  0
VERTEX
  5
F0
  8
METAL
 10
37.47925281524658
 20
-24.35990250110627
 30
36.52867078781125
 70
   192
  0
VERTEX
  5
F1
  8
METAL
 10
37.47925281524658
 20
-24.35990250110627
 30
36.52867078781125
 70
   192
  0
VERTEX
  5
F2
  8
METAL
 10
37.47925281524658
 20
-22.67895960807801
 30
36.52867078781125
 70
   192
  0
VERTEX
  5
F3
  8
METAL
 10
37.47925281524658
 20
-22.67895960807801
 30
36.52867078781125
 70
   192
  0
VERTEX
  5
F4
  8
METAL
 10
37.47925281524658
 20
-22.67895960807801
 30
36.52867078781125
 70
   192
  0
VERTEX
  5
F5
  8
METAL
 10
37.47925281524658
 20
-24.35990250110626
 30
-37.21579599380493
 70
   192
  0
VERTEX
  5
F6
  8
METAL
 10
37.47925281524658
 20
-24.35990250110626
 30
-37.21579599380493
 70
   192
  0
VERTEX
  5
F7
  8
METAL
 10
37.47925281524658
 20
-24.35990250110626
 30
-37.21579599380493
 70
   192
  0
VERTEX
  5
F8
  8
METAL
 10
37.47925281524658
 20
-22.678959608078
 30
-37.21579599380493
 70
   192
  0
VERTEX
  5
F9
  8
METAL
 10
37.47925281524658
 20
-22.678959608078
 30
-37.21579599380493
 70
   192
  0
VERTEX
  5
FA
  8
METAL
 10
37.47925281524658
 20
-22.678959608078
 30
-37.21579599380493
 70
   192
  0
VERTEX
  5
FB
  8
METAL
 10
37.37117862701416
 20
-22.26884746551515
 30
36.42059278488159
 70
   192
  0
VERTEX
  5
FC
  8
METAL
 10
37.37117862701416
 20
-22.26884746551515
 30
36.42059278488159
 70
   192
  0
VERTEX
  5
FD
  8
METAL
 10
37.37117862701416
 20
-22.26884746551515
 30
36.42059278488159
 70
   192
  0
VERTEX
  5
FE
  8
METAL
 10
37.37117862701416
 20
-22.26884746551515
 30
36.42059278488159
 70
   192
  0
VERTEX
  5
FF
  8
METAL
 10
37.37117862701416
 20
-22.26884746551513
 30
-37.10772228240967
 70
   192
  0
VERTEX
  5
100
  8
METAL
 10
37.37117862701416
 20
-22.26884746551513
 30
-37.10772228240967
 70
   192
  0
VERTEX
  5
101
  8
METAL
 10
37.37117862701416
 20
-22.26884746551513
 30
-37.10772228240967
 70
   192
  0
VERTEX
  5
102
  8
METAL
 10
37.37117862701416
 20
-22.26884746551513
 30
-37.10772228240967
 70
   192
  0
VERTEX
  5
103
  8
METAL
 10
37.33166217803955
 20
-24.80249652266503
 30
36.38108015060423
 70
   192
  0
VERTEX
  5
104
  8
METAL
 10
37.33166217803955
 20
-24.80249652266503
 30
36.38108015060423
 70
   192
  0
VERTEX
  5
105
  8
METAL
 10
37.33166217803955
 20
-24.80249652266503
 30
36.38108015060423
 70
   192
  0
VERTEX
  5
106
  8
METAL
 10
37.33166217803955
 20
-24.80249652266503
 30
36.38108015060423
 70
   192
  0
VERTEX
  5
107
  8
METAL
 10
37.33166217803955
 20
-24.80249652266502
 30
-37.0682053565979
 70
   192
  0
VERTEX
  5
108
  8
METAL
 10
37.33166217803955
 20
-24.80249652266502
 30
-37.0682053565979
 70
   192
  0
VERTEX
  5
109
  8
METAL
 10
37.33166217803955
 20
-24.80249652266502
 30
-37.0682053565979
 70
   192
  0
VERTEX
  5
10A
  8
METAL
 10
37.33166217803955
 20
-24.80249652266502
 30
-37.0682053565979
 70
   192
  0
VERTEX
  5
10B
  8
METAL
 10
37.21664142608643
 20
-22.13214349746705
 30
35.58732175827026
 70
   192
  0
VERTEX
  5
10C
  8
METAL
 10
37.21664142608643
 20
-22.13214349746705
 30
35.58732175827026
 70
   192
  0
VERTEX
  5
10D
  8
METAL
 10
37.21664142608643
 20
-22.13214349746705
 30
35.58732175827026
 70
   192
  0
VERTEX
  5
10E
  8
METAL
 10
37.21664142608643
 20
-22.13214349746705
 30
34.14928007125854
 70
   192
  0
VERTEX
  5
10F
  8
METAL
 10
37.21664142608643
 20
-22.13214349746705
 30
34.14928007125854
 70
   192
  0
VERTEX
  5
110
  8
METAL
 10
37.21664142608643
 20
-22.13214349746705
 30
34.14928007125854
 70
   192
  0
VERTEX
  5
111
  8
METAL
 10
37.21664142608643
 20
-22.13214349746704
 30
-0.3435635566711568
 70
   192
  0
VERTEX
  5
112
  8
METAL
 10
37.21664142608643
 20
-22.13214349746704
 30
-0.3435635566711568
 70
   192
  0
VERTEX
  5
113
  8
METAL
 10
37.21664142608643
 20
-22.13214349746704
 30
-34.83640718460083
 70
   192
  0
VERTEX
  5
114
  8
METAL
 10
37.21664142608643
 20
-22.13214349746704
 30
-34.83640718460083
 70
   192
  0
VERTEX
  5
115
  8
METAL
 10
37.21664142608643
 20
-22.13214349746704
 30
-34.83640718460083
 70
   192
  0
VERTEX
  5
116
  8
METAL
 10
37.21664142608643
 20
-22.13214349746704
 30
-36.27444934844971
 70
   192
  0
VERTEX
  5
117
  8
METAL
 10
37.21664142608643
 20
-22.13214349746704
 30
-36.27444934844971
 70
   192
  0
VERTEX
  5
118
  8
METAL
 10
37.21664142608643
 20
-22.13214349746704
 30
-36.27444934844971
 70
   192
  0
VERTEX
  5
119
  8
METAL
 10
37.17309093475342
 20
-24.95002654194833
 30
35.08569288253784
 70
   192
  0
VERTEX
  5
11A
  8
METAL
 10
37.17309093475342
 20
-24.95002654194833
 30
35.08569288253784
 70
   192
  0
VERTEX
  5
11B
  8
METAL
 10
37.17309093475342
 20
-24.95002654194833
 30
35.08569288253784
 70
   192
  0
VERTEX
  5
11C
  8
METAL
 10
37.17309093475342
 20
-24.95002654194833
 30
34.14928007125853
 70
   192
  0
VERTEX
  5
11D
  8
METAL
 10
37.17309093475342
 20
-24.95002654194833
 30
34.14928007125853
 70
   192
  0
VERTEX
  5
11E
  8
METAL
 10
37.17309093475342
 20
-24.95002654194833
 30
34.14928007125853
 70
   192
  0
VERTEX
  5
11F
  8
METAL
 10
37.17309093475342
 20
-24.95002654194832
 30
-0.3435635566711568
 70
   192
  0
VERTEX
  5
120
  8
METAL
 10
37.17309093475342
 20
-24.95002654194832
 30
-0.3435635566711568
 70
   192
  0
VERTEX
  5
121
  8
METAL
 10
37.17309093475342
 20
-24.95002654194831
 30
-34.83640718460083
 70
   192
  0
VERTEX
  5
122
  8
METAL
 10
37.17309093475342
 20
-24.95002654194831
 30
-34.83640718460083
 70
   192
  0
VERTEX
  5
123
  8
METAL
 10
37.17309093475342
 20
-24.95002654194831
 30
-34.83640718460083
 70
   192
  0
VERTEX
  5
124
  8
METAL
 10
37.17309093475342
 20
-24.95002654194831
 30
-35.77281808853149
 70
   192
  0
VERTEX
  5
125
  8
METAL
 10
37.17309093475342
 20
-24.95002654194831
 30
-35.77281808853149
 70
   192
  0
VERTEX
  5
126
  8
METAL
 10
37.17309093475342
 20
-24.95002654194831
 30
-35.77281808853149
 70
   192
  0
VERTEX
  5
127
  8
METAL
 10
37.04695606231689
 20
-22.13214349746705
 30
36.09637403488159
 70
   192
  0
VERTEX
  5
128
  8
METAL
 10
37.04695606231689
 20
-22.13214349746705
 30
36.09637403488159
 70
   192
  0
VERTEX
  5
129
  8
METAL
 10
37.04695606231689
 20
-22.13214349746705
 30
36.09637403488159
 70
   192
  0
VERTEX
  5
12A
  8
METAL
 10
37.04695606231689
 20
-22.13214349746704
 30
-36.78349924087524
 70
   192
  0
VERTEX
  5
12B
  8
METAL
 10
37.04695606231689
 20
-22.13214349746704
 30
-36.78349924087524
 70
   192
  0
VERTEX
  5
12C
  8
METAL
 10
37.04695606231689
 20
-22.13214349746704
 30
-36.78349924087524
 70
   192
  0
VERTEX
  5
12D
  8
METAL
 10
36.88888645172119
 20
-24.95002654194833
 30
35.93830060958861
 70
   192
  0
VERTEX
  5
12E
  8
METAL
 10
36.88888645172119
 20
-24.95002654194833
 30
35.93830060958861
 70
   192
  0
VERTEX
  5
12F
  8
METAL
 10
36.88888645172119
 20
-24.95002654194833
 30
35.93830060958861
 70
   192
  0
VERTEX
  5
130
  8
METAL
 10
36.88888645172119
 20
-24.95002654194831
 30
-36.62542915344238
 70
   192
  0
VERTEX
  5
131
  8
METAL
 10
36.88888645172119
 20
-24.95002654194831
 30
-36.62542915344238
 70
   192
  0
VERTEX
  5
132
  8
METAL
 10
36.88888645172119
 20
-24.95002654194831
 30
-36.62542915344238
 70
   192
  0
VERTEX
  5
133
  8
METAL
 10
36.62664127349854
 20
-24.36063152551652
 30
36.81287336349486
 70
   192
  0
VERTEX
  5
134
  8
METAL
 10
36.62664127349854
 20
-24.36063152551652
 30
36.81287336349486
 70
   192
  0
VERTEX
  5
135
  8
METAL
 10
36.62664127349854
 20
-24.36063152551652
 30
36.81287336349486
 70
   192
  0
VERTEX
  5
136
  8
METAL
 10
36.62664127349854
 20
-22.67895960807801
 30
36.81287336349486
 70
   192
  0
VERTEX
  5
137
  8
METAL
 10
36.62664127349854
 20
-22.67895960807801
 30
36.81287336349486
 70
   192
  0
VERTEX
  5
138
  8
METAL
 10
36.62664127349854
 20
-22.67895960807801
 30
36.81287336349486
 70
   192
  0
VERTEX
  5
139
  8
METAL
 10
36.62664127349854
 20
-24.36063152551651
 30
-37.5
 70
   192
  0
VERTEX
  5
13A
  8
METAL
 10
36.62664127349854
 20
-24.36063152551651
 30
-37.5
 70
   192
  0
VERTEX
  5
13B
  8
METAL
 10
36.62664127349854
 20
-24.36063152551651
 30
-37.5
 70
   192
  0
VERTEX
  5
13C
  8
METAL
 10
36.62664127349854
 20
-22.678959608078
 30
-37.5
 70
   192
  0
VERTEX
  5
13D
  8
METAL
 10
36.62664127349854
 20
-22.678959608078
 30
-37.5
 70
   192
  0
VERTEX
  5
13E
  8
METAL
 10
36.62664127349854
 20
-22.678959608078
 30
-37.5
 70
   192
  0
VERTEX
  5
13F
  8
METAL
 10
36.60445690155029
 20
-22.26884746551515
 30
36.67616987228394
 70
   192
  0
VERTEX
  5
140
  8
METAL
 10
36.60445690155029
 20
-22.26884746551515
 30
36.67616987228394
 70
   192
  0
VERTEX
  5
141
  8
METAL
 10
36.60445690155029
 20
-22.26884746551515
 30
36.67616987228394
 70
   192
  0
VERTEX
  5
142
  8
METAL
 10
36.60445690155029
 20
-22.26884746551515
 30
36.67616987228394
 70
   192
  0
VERTEX
  5
143
  8
METAL
 10
36.60445690155029
 20
-22.26884746551513
 30
-37.36329698562622
 70
   192
  0
VERTEX
  5
144
  8
METAL
 10
36.60445690155029
 20
-22.26884746551513
 30
-37.36329698562622
 70
   192
  0
VERTEX
  5
145
  8
METAL
 10
36.60445690155029
 20
-22.26884746551513
 30
-37.36329698562622
 70
   192
  0
VERTEX
  5
146
  8
METAL
 10
36.60445690155029
 20
-22.26884746551513
 30
-37.36329698562622
 70
   192
  0
VERTEX
  5
147
  8
METAL
 10
36.5379056930542
 20
-22.13214349746705
 30
36.26605939865112
 70
   192
  0
VERTEX
  5
148
  8
METAL
 10
36.5379056930542
 20
-22.13214349746705
 30
36.26605939865112
 70
   192
  0
VERTEX
  5
149
  8
METAL
 10
36.5379056930542
 20
-22.13214349746705
 30
36.26605939865112
 70
   192
  0
VERTEX
  5
14A
  8
METAL
 10
36.5379056930542
 20
-22.13214349746704
 30
-36.95318412780762
 70
   192
  0
VERTEX
  5
14B
  8
METAL
 10
36.5379056930542
 20
-22.13214349746704
 30
-36.95318412780762
 70
   192
  0
VERTEX
  5
14C
  8
METAL
 10
36.5379056930542
 20
-22.13214349746704
 30
-36.95318412780762
 70
   192
  0
VERTEX
  5
14D
  8
METAL
 10
36.4790506362915
 20
-24.80268251895906
 30
36.66528272628784
 70
   192
  0
VERTEX
  5
14E
  8
METAL
 10
36.4790506362915
 20
-24.80268251895906
 30
36.66528272628784
 70
   192
  0
VERTEX
  5
14F
  8
METAL
 10
36.4790506362915
 20
-24.80268251895906
 30
36.66528272628784
 70
   192
  0
VERTEX
  5
150
  8
METAL
 10
36.4790506362915
 20
-24.80268251895906
 30
36.66528272628784
 70
   192
  0
VERTEX
  5
151
  8
METAL
 10
36.4790506362915
 20
-24.80268251895904
 30
-37.35241031646729
 70
   192
  0
VERTEX
  5
152
  8
METAL
 10
36.4790506362915
 20
-24.80268251895904
 30
-37.35241031646729
 70
   192
  0
VERTEX
  5
153
  8
METAL
 10
36.4790506362915
 20
-24.80268251895904
 30
-37.35241031646729
 70
   192
  0
VERTEX
  5
154
  8
METAL
 10
36.4790506362915
 20
-24.80268251895904
 30
-37.35241031646729
 70
   192
  0
VERTEX
  5
155
  8
METAL
 10
36.03627490997314
 20
-24.95002654194833
 30
36.22250699996947
 70
   192
  0
VERTEX
  5
156
  8
METAL
 10
36.03627490997314
 20
-24.95002654194833
 30
36.22250699996947
 70
   192
  0
VERTEX
  5
157
  8
METAL
 10
36.03627490997314
 20
-24.95002654194833
 30
36.22250699996947
 70
   192
  0
VERTEX
  5
158
  8
METAL
 10
36.03627490997314
 20
-24.95002654194831
 30
-36.90963411331177
 70
   192
  0
VERTEX
  5
159
  8
METAL
 10
36.03627490997314
 20
-24.95002654194831
 30
-36.90963411331177
 70
   192
  0
VERTEX
  5
15A
  8
METAL
 10
36.03627490997314
 20
-24.95002654194831
 30
-36.90963411331177
 70
   192
  0
VERTEX
  5
15B
  8
METAL
 10
12.15145635604858
 20
-22.13214349746705
 30
36.26605939865112
 70
   192
  0
VERTEX
  5
15C
  8
METAL
 10
12.15145635604858
 20
-22.13214349746705
 30
36.26605939865112
 70
   192
  0
VERTEX
  5
15D
  8
METAL
 10
12.15145635604858
 20
-22.13214349746705
 30
36.26605939865112
 70
   192
  0
VERTEX
  5
15E
  8
METAL
 10
12.15145635604858
 20
-22.13214349746705
 30
36.26605939865112
 70
   192
  0
VERTEX
  5
15F
  8
METAL
 10
12.15145635604858
 20
-22.13214349746705
 30
34.14928007125854
 70
   192
  0
VERTEX
  5
160
  8
METAL
 10
12.15145635604858
 20
-22.13214349746705
 30
34.14928007125854
 70
   192
  0
VERTEX
  5
161
  8
METAL
 10
12.15145635604858
 20
-22.13214349746705
 30
34.14928007125854
 70
   192
  0
VERTEX
  5
162
  8
METAL
 10
12.15145635604858
 20
-22.13214349746704
 30
-34.83640718460083
 70
   192
  0
VERTEX
  5
163
  8
METAL
 10
12.15145635604858
 20
-22.13214349746704
 30
-34.83640718460083
 70
   192
  0
VERTEX
  5
164
  8
METAL
 10
12.15145635604858
 20
-22.13214349746704
 30
-34.83640718460083
 70
   192
  0
VERTEX
  5
165
  8
METAL
 10
12.15145635604858
 20
-22.13214349746704
 30
-36.95318412780762
 70
   192
  0
VERTEX
  5
166
  8
METAL
 10
12.15145635604858
 20
-22.13214349746704
 30
-36.95318412780762
 70
   192
  0
VERTEX
  5
167
  8
METAL
 10
12.15145635604858
 20
-22.13214349746704
 30
-36.95318412780762
 70
   192
  0
VERTEX
  5
168
  8
METAL
 10
12.15145635604858
 20
-22.13214349746704
 30
-36.95318412780762
 70
   192
  0
VERTEX
  5
169
  8
METAL
 10
12.14174032211304
 20
-22.26884746551515
 30
36.67616987228394
 70
   192
  0
VERTEX
  5
16A
  8
METAL
 10
12.14174032211304
 20
-22.26884746551515
 30
36.67616987228394
 70
   192
  0
VERTEX
  5
16B
  8
METAL
 10
12.14174032211304
 20
-22.26884746551515
 30
36.67616987228394
 70
   192
  0
VERTEX
  5
16C
  8
METAL
 10
12.14174032211304
 20
-22.26884746551515
 30
36.67616987228394
 70
   192
  0
VERTEX
  5
16D
  8
METAL
 10
12.14174032211304
 20
-22.26884746551513
 30
-37.36329698562622
 70
   192
  0
VERTEX
  5
16E
  8
METAL
 10
12.14174032211304
 20
-22.26884746551513
 30
-37.36329698562622
 70
   192
  0
VERTEX
  5
16F
  8
METAL
 10
12.14174032211304
 20
-22.26884746551513
 30
-37.36329698562622
 70
   192
  0
VERTEX
  5
170
  8
METAL
 10
12.14174032211304
 20
-22.26884746551513
 30
-37.36329698562622
 70
   192
  0
VERTEX
  5
171
  8
METAL
 10
12.13148736953735
 20
-24.95002654194833
 30
35.08568906784056
 70
   192
  0
VERTEX
  5
172
  8
METAL
 10
12.13148736953735
 20
-24.95002654194833
 30
34.14928007125853
 70
   192
  0
VERTEX
  5
173
  8
METAL
 10
12.13148736953735
 20
-24.95002654194832
 30
-0.3435635566711568
 70
   192
  0
VERTEX
  5
174
  8
METAL
 10
12.13148736953735
 20
-24.95002654194831
 30
-34.83640718460083
 70
   192
  0
VERTEX
  5
175
  8
METAL
 10
12.13148736953735
 20
-24.95002654194831
 30
-35.77281618118286
 70
   192
  0
VERTEX
  5
176
  8
METAL
 10
12.12763738632202
 20
-24.95002654194833
 30
35.93830442428587
 70
   192
  0
VERTEX
  5
177
  8
METAL
 10
12.12763738632202
 20
-24.95002654194831
 30
-36.62543106079102
 70
   192
  0
VERTEX
  5
178
  8
METAL
 10
12.12257933616638
 20
-24.36542254686357
 30
36.81287336349486
 70
   192
  0
VERTEX
  5
179
  8
METAL
 10
12.12257933616638
 20
-24.36542254686357
 30
36.81287336349486
 70
   192
  0
VERTEX
  5
17A
  8
METAL
 10
12.12257933616638
 20
-24.36542254686357
 30
36.81287336349486
 70
   192
  0
VERTEX
  5
17B
  8
METAL
 10
12.12257933616638
 20
-24.36542254686355
 30
-37.5
 70
   192
  0
VERTEX
  5
17C
  8
METAL
 10
12.12257933616638
 20
-24.36542254686355
 30
-37.5
 70
   192
  0
VERTEX
  5
17D
  8
METAL
 10
12.12257933616638
 20
-24.36542254686355
 30
-37.5
 70
   192
  0
VERTEX
  5
17E
  8
METAL
 10
12.12170934677124
 20
-24.80387753248216
 30
36.66528272628784
 70
   192
  0
VERTEX
  5
17F
  8
METAL
 10
12.12170934677124
 20
-24.80387753248216
 30
36.66528272628784
 70
   192
  0
VERTEX
  5
180
  8
METAL
 10
12.12170934677124
 20
-24.80387753248216
 30
36.66528272628784
 70
   192
  0
VERTEX
  5
181
  8
METAL
 10
12.12170934677124
 20
-24.80387753248216
 30
36.66528272628784
 70
   192
  0
VERTEX
  5
182
  8
METAL
 10
12.12170934677124
 20
-24.80387753248214
 30
-37.35241031646729
 70
   192
  0
VERTEX
  5
183
  8
METAL
 10
12.12170934677124
 20
-24.80387753248214
 30
-37.35241031646729
 70
   192
  0
VERTEX
  5
184
  8
METAL
 10
12.12170934677124
 20
-24.80387753248214
 30
-37.35241031646729
 70
   192
  0
VERTEX
  5
185
  8
METAL
 10
12.12170934677124
 20
-24.80387753248214
 30
-37.35241031646729
 70
   192
  0
VERTEX
  5
186
  8
METAL
 10
12.11608839035034
 20
-24.95002654194833
 30
36.22250699996947
 70
   192
  0
VERTEX
  5
187
  8
METAL
 10
12.11608839035034
 20
-24.95002654194833
 30
36.22250699996947
 70
   192
  0
VERTEX
  5
188
  8
METAL
 10
12.11608839035034
 20
-24.95002654194833
 30
36.22250699996947
 70
   192
  0
VERTEX
  5
189
  8
METAL
 10
12.11608839035034
 20
-24.95002654194831
 30
-36.90963411331177
 70
   192
  0
VERTEX
  5
18A
  8
METAL
 10
12.11608839035034
 20
-24.95002654194831
 30
-36.90963411331177
 70
   192
  0
VERTEX
  5
18B
  8
METAL
 10
12.11608839035034
 20
-24.95002654194831
 30
-36.90963411331177
 70
   192
  0
VERTEX
  5
18C
  8
METAL
 10
12.11259436607361
 20
-22.67895960807801
 30
36.81287336349486
 70
   192
  0
VERTEX
  5
18D
  8
METAL
 10
12.11259436607361
 20
-22.67895960807801
 30
36.81287336349486
 70
   192
  0
VERTEX
  5
18E
  8
METAL
 10
12.11259436607361
 20
-22.67895960807801
 30
36.81287336349486
 70
   192
  0
VERTEX
  5
18F
  8
METAL
 10
12.11259436607361
 20
-22.678959608078
 30
-37.5
 70
   192
  0
VERTEX
  5
190
  8
METAL
 10
12.11259436607361
 20
-22.678959608078
 30
-37.5
 70
   192
  0
VERTEX
  5
191
  8
METAL
 10
12.11259436607361
 20
-22.678959608078
 30
-37.5
 70
   192
  0
VERTEX
  5
192
  8
METAL
 10
10.34589433670044
 20
-21.87420654296876
 30
36.26605939865112
 70
   192
  0
VERTEX
  5
193
  8
METAL
 10
10.34589433670044
 20
-21.87420654296876
 30
36.26605939865112
 70
   192
  0
VERTEX
  5
194
  8
METAL
 10
10.34589433670044
 20
-21.87420654296876
 30
36.26605939865112
 70
   192
  0
VERTEX
  5
195
  8
METAL
 10
10.34589433670044
 20
-21.87420654296876
 30
36.26605939865112
 70
   192
  0
VERTEX
  5
196
  8
METAL
 10
10.34589433670044
 20
-21.87420654296876
 30
34.14928007125854
 70
   192
  0
VERTEX
  5
197
  8
METAL
 10
10.34589433670044
 20
-21.87420654296876
 30
34.14928007125854
 70
   192
  0
VERTEX
  5
198
  8
METAL
 10
10.34589433670044
 20
-21.87420654296876
 30
34.14928007125854
 70
   192
  0
VERTEX
  5
199
  8
METAL
 10
10.34589433670044
 20
-21.87420654296876
 30
34.14928007125854
 70
   192
  0
VERTEX
  5
19A
  8
METAL
 10
10.34589433670044
 20
-22.13214349746705
 30
33.89134168624878
 70
   192
  0
VERTEX
  5
19B
  8
METAL
 10
10.34589433670044
 20
-22.13214349746705
 30
33.89134168624878
 70
   192
  0
VERTEX
  5
19C
  8
METAL
 10
10.34589433670044
 20
-22.13214349746705
 30
33.89134168624878
 70
   192
  0
VERTEX
  5
19D
  8
METAL
 10
10.34589433670044
 20
-22.13214349746704
 30
-34.57846927642822
 70
   192
  0
VERTEX
  5
19E
  8
METAL
 10
10.34589433670044
 20
-22.13214349746704
 30
-34.57846927642822
 70
   192
  0
VERTEX
  5
19F
  8
METAL
 10
10.34589433670044
 20
-22.13214349746704
 30
-34.57846927642822
 70
   192
  0
VERTEX
  5
1A0
  8
METAL
 10
10.34589433670044
 20
-21.87420654296875
 30
-34.83640718460083
 70
   192
  0
VERTEX
  5
1A1
  8
METAL
 10
10.34589433670044
 20
-21.87420654296875
 30
-34.83640718460083
 70
   192
  0
VERTEX
  5
1A2
  8
METAL
 10
10.34589433670044
 20
-21.87420654296875
 30
-34.83640718460083
 70
   192
  0
VERTEX
  5
1A3
  8
METAL
 10
10.34589433670044
 20
-21.87420654296875
 30
-34.83640718460083
 70
   192
  0
VERTEX
  5
1A4
  8
METAL
 10
10.34589433670044
 20
-21.87420654296875
 30
-36.95318412780762
 70
   192
  0
VERTEX
  5
1A5
  8
METAL
 10
10.34589433670044
 20
-21.87420654296875
 30
-36.95318412780762
 70
   192
  0
VERTEX
  5
1A6
  8
METAL
 10
10.34589433670044
 20
-21.87420654296875
 30
-36.95318412780762
 70
   192
  0
VERTEX
  5
1A7
  8
METAL
 10
10.34589433670044
 20
-21.87420654296875
 30
-36.95318412780762
 70
   192
  0
VERTEX
  5
1A8
  8
METAL
 10
10.29923236370087
 20
-22.00563263893129
 30
36.67616987228394
 70
   192
  0
VERTEX
  5
1A9
  8
METAL
 10
10.29923236370087
 20
-22.00563263893129
 30
36.67616987228394
 70
   192
  0
VERTEX
  5
1AA
  8
METAL
 10
10.29923236370087
 20
-22.00563263893129
 30
36.67616987228394
 70
   192
  0
VERTEX
  5
1AB
  8
METAL
 10
10.29923236370087
 20
-22.00563263893129
 30
36.67616987228394
 70
   192
  0
VERTEX
  5
1AC
  8
METAL
 10
10.29923236370087
 20
-22.00563263893127
 30
-37.36329698562622
 70
   192
  0
VERTEX
  5
1AD
  8
METAL
 10
10.29923236370087
 20
-22.00563263893127
 30
-37.36329698562622
 70
   192
  0
VERTEX
  5
1AE
  8
METAL
 10
10.29923236370087
 20
-22.00563263893127
 30
-37.36329698562622
 70
   192
  0
VERTEX
  5
1AF
  8
METAL
 10
10.29923236370087
 20
-22.00563263893127
 30
-37.36329698562622
 70
   192
  0
VERTEX
  5
1B0
  8
METAL
 10
10.15924733877182
 20
-22.3999104499817
 30
36.81287336349486
 70
   192
  0
VERTEX
  5
1B1
  8
METAL
 10
10.15924733877182
 20
-22.3999104499817
 30
36.81287336349486
 70
   192
  0
VERTEX
  5
1B2
  8
METAL
 10
10.15924733877182
 20
-22.3999104499817
 30
36.81287336349486
 70
   192
  0
VERTEX
  5
1B3
  8
METAL
 10
10.15924733877182
 20
-22.39991044998169
 30
-37.5
 70
   192
  0
VERTEX
  5
1B4
  8
METAL
 10
10.15924733877182
 20
-22.39991044998169
 30
-37.5
 70
   192
  0
VERTEX
  5
1B5
  8
METAL
 10
10.15924733877182
 20
-22.39991044998169
 30
-37.5
 70
   192
  0
VERTEX
  5
1B6
  8
METAL
 10
9.056206360459328
 20
-21.1003932952881
 30
36.26605939865112
 70
   192
  0
VERTEX
  5
1B7
  8
METAL
 10
9.056206360459328
 20
-21.1003932952881
 30
36.26605939865112
 70
   192
  0
VERTEX
  5
1B8
  8
METAL
 10
9.056206360459328
 20
-21.1003932952881
 30
36.26605939865112
 70
   192
  0
VERTEX
  5
1B9
  8
METAL
 10
9.056206360459328
 20
-21.1003932952881
 30
36.26605939865112
 70
   192
  0
VERTEX
  5
1BA
  8
METAL
 10
9.056206360459328
 20
-21.1003932952881
 30
34.14928007125854
 70
   192
  0
VERTEX
  5
1BB
  8
METAL
 10
9.056206360459328
 20
-21.1003932952881
 30
34.14928007125854
 70
   192
  0
VERTEX
  5
1BC
  8
METAL
 10
9.056206360459328
 20
-21.1003932952881
 30
34.14928007125854
 70
   192
  0
VERTEX
  5
1BD
  8
METAL
 10
9.056206360459328
 20
-21.1003932952881
 30
34.14928007125854
 70
   192
  0
VERTEX
  5
1BE
  8
METAL
 10
9.056206360459328
 20
-21.1003932952881
 30
34.14928007125854
 70
   192
  0
VERTEX
  5
1BF
  8
METAL
 10
9.056206360459328
 20
-22.13214349746705
 30
33.11753034591675
 70
   192
  0
VERTEX
  5
1C0
  8
METAL
 10
9.056206360459328
 20
-22.13214349746705
 30
33.11753034591675
 70
   192
  0
VERTEX
  5
1C1
  8
METAL
 10
9.056206360459328
 20
-22.13214349746705
 30
33.11753034591675
 70
   192
  0
VERTEX
  5
1C2
  8
METAL
 10
9.056206360459328
 20
-22.13214349746704
 30
-33.80465722084045
 70
   192
  0
VERTEX
  5
1C3
  8
METAL
 10
9.056206360459328
 20
-22.13214349746704
 30
-33.80465722084045
 70
   192
  0
VERTEX
  5
1C4
  8
METAL
 10
9.056206360459328
 20
-22.13214349746704
 30
-33.80465722084045
 70
   192
  0
VERTEX
  5
1C5
  8
METAL
 10
9.056206360459328
 20
-21.10039329528808
 30
-34.83640718460083
 70
   192
  0
VERTEX
  5
1C6
  8
METAL
 10
9.056206360459328
 20
-21.10039329528808
 30
-34.83640718460083
 70
   192
  0
VERTEX
  5
1C7
  8
METAL
 10
9.056206360459328
 20
-21.10039329528808
 30
-34.83640718460083
 70
   192
  0
VERTEX
  5
1C8
  8
METAL
 10
9.056206360459328
 20
-21.10039329528808
 30
-34.83640718460083
 70
   192
  0
VERTEX
  5
1C9
  8
METAL
 10
9.056206360459328
 20
-21.10039329528808
 30
-34.83640718460083
 70
   192
  0
VERTEX
  5
1CA
  8
METAL
 10
9.056206360459328
 20
-21.10039329528808
 30
-36.95318412780762
 70
   192
  0
VERTEX
  5
1CB
  8
METAL
 10
9.056206360459328
 20
-21.10039329528808
 30
-36.95318412780762
 70
   192
  0
VERTEX
  5
1CC
  8
METAL
 10
9.056206360459328
 20
-21.10039329528808
 30
-36.95318412780762
 70
   192
  0
VERTEX
  5
1CD
  8
METAL
 10
9.056206360459328
 20
-21.10039329528808
 30
-36.95318412780762
 70
   192
  0
VERTEX
  5
1CE
  8
METAL
 10
8.956567347049713
 20
-21.20003271102906
 30
36.67616987228394
 70
   192
  0
VERTEX
  5
1CF
  8
METAL
 10
8.956567347049713
 20
-21.20003271102906
 30
36.67616987228394
 70
   192
  0
VERTEX
  5
1D0
  8
METAL
 10
8.956567347049713
 20
-21.20003271102906
 30
36.67616987228394
 70
   192
  0
VERTEX
  5
1D1
  8
METAL
 10
8.956567347049713
 20
-21.20003271102906
 30
36.67616987228394
 70
   192
  0
VERTEX
  5
1D2
  8
METAL
 10
8.956567347049713
 20
-21.20003271102905
 30
-37.36329698562622
 70
   192
  0
VERTEX
  5
1D3
  8
METAL
 10
8.956567347049713
 20
-21.20003271102905
 30
-37.36329698562622
 70
   192
  0
VERTEX
  5
1D4
  8
METAL
 10
8.956567347049713
 20
-21.20003271102905
 30
-37.36329698562622
 70
   192
  0
VERTEX
  5
1D5
  8
METAL
 10
8.956567347049713
 20
-21.20003271102905
 30
-37.36329698562622
 70
   192
  0
VERTEX
  5
1D6
  8
METAL
 10
8.657649338245392
 20
-21.49895048141481
 30
36.81287336349487
 70
   192
  0
VERTEX
  5
1D7
  8
METAL
 10
8.657649338245392
 20
-21.49895048141481
 30
36.81287336349487
 70
   192
  0
VERTEX
  5
1D8
  8
METAL
 10
8.657649338245392
 20
-21.49895048141481
 30
36.81287336349487
 70
   192
  0
VERTEX
  5
1D9
  8
METAL
 10
8.657649338245392
 20
-21.49895048141479
 30
-37.5
 70
   192
  0
VERTEX
  5
1DA
  8
METAL
 10
8.657649338245392
 20
-21.49895048141479
 30
-37.5
 70
   192
  0
VERTEX
  5
1DB
  8
METAL
 10
8.657649338245392
 20
-21.49895048141479
 30
-37.5
 70
   192
  0
VERTEX
  5
1DC
  8
METAL
 10
8.282394349575043
 20
-19.81070661544801
 30
36.26605939865112
 70
   192
  0
VERTEX
  5
1DD
  8
METAL
 10
8.282394349575043
 20
-19.81070661544801
 30
36.26605939865112
 70
   192
  0
VERTEX
  5
1DE
  8
METAL
 10
8.282394349575043
 20
-19.81070661544801
 30
36.26605939865112
 70
   192
  0
VERTEX
  5
1DF
  8
METAL
 10
8.282394349575043
 20
-19.81070661544801
 30
36.26605939865112
 70
   192
  0
VERTEX
  5
1E0
  8
METAL
 10
8.282394349575043
 20
-19.81070661544801
 30
34.14928007125854
 70
   192
  0
VERTEX
  5
1E1
  8
METAL
 10
8.282394349575043
 20
-19.81070661544801
 30
34.14928007125854
 70
   192
  0
VERTEX
  5
1E2
  8
METAL
 10
8.282394349575043
 20
-19.81070661544801
 30
34.14928007125854
 70
   192
  0
VERTEX
  5
1E3
  8
METAL
 10
8.282394349575043
 20
-19.81070661544799
 30
-34.83640718460083
 70
   192
  0
VERTEX
  5
1E4
  8
METAL
 10
8.282394349575043
 20
-19.81070661544799
 30
-34.83640718460083
 70
   192
  0
VERTEX
  5
1E5
  8
METAL
 10
8.282394349575043
 20
-19.81070661544799
 30
-34.83640718460083
 70
   192
  0
VERTEX
  5
1E6
  8
METAL
 10
8.282394349575043
 20
-19.81070661544799
 30
-36.95318412780762
 70
   192
  0
VERTEX
  5
1E7
  8
METAL
 10
8.282394349575043
 20
-19.81070661544799
 30
-36.95318412780762
 70
   192
  0
VERTEX
  5
1E8
  8
METAL
 10
8.282394349575043
 20
-19.81070661544799
 30
-36.95318412780762
 70
   192
  0
VERTEX
  5
1E9
  8
METAL
 10
8.282394349575043
 20
-19.81070661544799
 30
-36.95318412780762
 70
   192
  0
VERTEX
  5
1EA
  8
METAL
 10
8.150968313217163
 20
-19.85736751556398
 30
36.67616987228394
 70
   192
  0
VERTEX
  5
1EB
  8
METAL
 10
8.150968313217163
 20
-19.85736751556398
 30
36.67616987228394
 70
   192
  0
VERTEX
  5
1EC
  8
METAL
 10
8.150968313217163
 20
-19.85736751556398
 30
36.67616987228394
 70
   192
  0
VERTEX
  5
1ED
  8
METAL
 10
8.150968313217163
 20
-19.85736751556398
 30
36.67616987228394
 70
   192
  0
VERTEX
  5
1EE
  8
METAL
 10
8.150968313217163
 20
-19.85736751556396
 30
-37.36329698562622
 70
   192
  0
VERTEX
  5
1EF
  8
METAL
 10
8.150968313217163
 20
-19.85736751556396
 30
-37.36329698562622
 70
   192
  0
VERTEX
  5
1F0
  8
METAL
 10
8.150968313217163
 20
-19.85736751556396
 30
-37.36329698562622
 70
   192
  0
VERTEX
  5
1F1
  8
METAL
 10
8.150968313217163
 20
-19.85736751556396
 30
-37.36329698562622
 70
   192
  0
VERTEX
  5
1F2
  8
METAL
 10
8.024457335472107
 20
-18.00514364242553
 30
-34.83640718460083
 70
   192
  0
VERTEX
  5
1F3
  8
METAL
 10
8.024457335472107
 20
-18.00514364242553
 30
-34.83640718460083
 70
   192
  0
VERTEX
  5
1F4
  8
METAL
 10
8.024457335472107
 20
-18.00514364242553
 30
-34.83640718460083
 70
   192
  0
VERTEX
  5
1F5
  8
METAL
 10
8.024457335472107
 20
0.0
 30
-34.83640718460083
 70
   192
  0
VERTEX
  5
1F6
  8
METAL
 10
8.024457335472107
 20
0.0
 30
-34.83640718460083
 70
   192
  0
VERTEX
  5
1F7
  8
METAL
 10
8.024457335472107
 20
0.0
 30
-34.83640718460083
 70
   192
  0
VERTEX
  5
1F8
  8
METAL
 10
8.024457335472107
 20
-18.00514364242553
 30
-36.95318412780762
 70
   192
  0
VERTEX
  5
1F9
  8
METAL
 10
8.024457335472107
 20
-18.00514364242553
 30
-36.95318412780762
 70
   192
  0
VERTEX
  5
1FA
  8
METAL
 10
8.024457335472107
 20
-18.00514364242553
 30
-36.95318412780762
 70
   192
  0
VERTEX
  5
1FB
  8
METAL
 10
8.024457335472107
 20
-18.00514364242553
 30
-36.95318412780762
 70
   192
  0
VERTEX
  5
1FC
  8
METAL
 10
8.024457335472107
 20
0.0
 30
-36.95318412780762
 70
   192
  0
VERTEX
  5
1FD
  8
METAL
 10
8.024457335472107
 20
0.0
 30
-36.95318412780762
 70
   192
  0
VERTEX
  5
1FE
  8
METAL
 10
8.024457335472107
 20
0.0
 30
-36.95318412780762
 70
   192
  0
VERTEX
  5
1FF
  8
METAL
 10
8.02445638179779
 20
-18.00514364242555
 30
36.26605939865112
 70
   192
  0
VERTEX
  5
200
  8
METAL
 10
8.02445638179779
 20
-18.00514364242555
 30
36.26605939865112
 70
   192
  0
VERTEX
  5
201
  8
METAL
 10
8.02445638179779
 20
-18.00514364242555
 30
36.26605939865112
 70
   192
  0
VERTEX
  5
202
  8
METAL
 10
8.02445638179779
 20
-18.00514364242555
 30
36.26605939865112
 70
   192
  0
VERTEX
  5
203
  8
METAL
 10
8.02445638179779
 20
-0.0000000000000142
 30
36.26605939865112
 70
   192
  0
VERTEX
  5
204
  8
METAL
 10
8.02445638179779
 20
-0.0000000000000142
 30
36.26605939865112
 70
   192
  0
VERTEX
  5
205
  8
METAL
 10
8.02445638179779
 20
-0.0000000000000142
 30
36.26605939865112
 70
   192
  0
VERTEX
  5
206
  8
METAL
 10
8.02445638179779
 20
-18.00514364242555
 30
34.14928007125854
 70
   192
  0
VERTEX
  5
207
  8
METAL
 10
8.02445638179779
 20
-18.00514364242555
 30
34.14928007125854
 70
   192
  0
VERTEX
  5
208
  8
METAL
 10
8.02445638179779
 20
-18.00514364242555
 30
34.14928007125854
 70
   192
  0
VERTEX
  5
209
  8
METAL
 10
8.02445638179779
 20
-0.0000000000000142
 30
34.14928007125854
 70
   192
  0
VERTEX
  5
20A
  8
METAL
 10
8.02445638179779
 20
-0.0000000000000142
 30
34.14928007125854
 70
   192
  0
VERTEX
  5
20B
  8
METAL
 10
8.02445638179779
 20
-0.0000000000000142
 30
34.14928007125854
 70
   192
  0
VERTEX
  5
20C
  8
METAL
 10
8.02445638179779
 20
-24.95002654194832
 30
-0.3435635566711568
 70
   192
  0
VERTEX
  5
20D
  8
METAL
 10
8.02445638179779
 20
-22.13214349746704
 30
-0.3435635566711568
 70
   192
  0
VERTEX
  5
20E
  8
METAL
 10
8.024455308914185
 20
-24.95002654194833
 30
36.22250699996947
 70
   192
  0
VERTEX
  5
20F
  8
METAL
 10
8.024455308914185
 20
-24.95002654194833
 30
36.22250699996947
 70
   192
  0
VERTEX
  5
210
  8
METAL
 10
8.024455308914185
 20
-24.95002654194833
 30
36.22250699996947
 70
   192
  0
VERTEX
  5
211
  8
METAL
 10
8.024455308914185
 20
-24.95002654194833
 30
36.22250699996947
 70
   192
  0
VERTEX
  5
212
  8
METAL
 10
8.024455308914185
 20
-24.95002654194833
 30
35.93830442428587
 70
   192
  0
VERTEX
  5
213
  8
METAL
 10
8.024455308914185
 20
-24.95002654194833
 30
35.93830442428587
 70
   192
  0
VERTEX
  5
214
  8
METAL
 10
8.024455308914185
 20
-24.95002654194833
 30
35.08568906784056
 70
   192
  0
VERTEX
  5
215
  8
METAL
 10
8.024455308914185
 20
-24.95002654194833
 30
35.08568906784056
 70
   192
  0
VERTEX
  5
216
  8
METAL
 10
8.024455308914185
 20
-24.95002654194833
 30
34.14928007125853
 70
   192
  0
VERTEX
  5
217
  8
METAL
 10
8.024455308914185
 20
-24.95002654194831
 30
-34.83640718460083
 70
   192
  0
VERTEX
  5
218
  8
METAL
 10
8.024455308914185
 20
-24.95002654194831
 30
-35.77281618118286
 70
   192
  0
VERTEX
  5
219
  8
METAL
 10
8.024455308914185
 20
-24.95002654194831
 30
-35.77281618118286
 70
   192
  0
VERTEX
  5
21A
  8
METAL
 10
8.024455308914185
 20
-24.95002654194831
 30
-36.62543106079102
 70
   192
  0
VERTEX
  5
21B
  8
METAL
 10
8.024455308914185
 20
-24.95002654194831
 30
-36.62543106079102
 70
   192
  0
VERTEX
  5
21C
  8
METAL
 10
8.024455308914185
 20
-24.95002654194831
 30
-36.90963411331177
 70
   192
  0
VERTEX
  5
21D
  8
METAL
 10
8.024455308914185
 20
-24.95002654194831
 30
-36.90963411331177
 70
   192
  0
VERTEX
  5
21E
  8
METAL
 10
8.024455308914185
 20
-24.95002654194831
 30
-36.90963411331177
 70
   192
  0
VERTEX
  5
21F
  8
METAL
 10
8.024455308914185
 20
-24.95002654194831
 30
-36.90963411331177
 70
   192
  0
VERTEX
  5
220
  8
METAL
 10
7.996673345565796
 20
-24.80507251620294
 30
36.66528272628784
 70
   192
  0
VERTEX
  5
221
  8
METAL
 10
7.996673345565796
 20
-24.80507251620294
 30
36.66528272628784
 70
   192
  0
VERTEX
  5
222
  8
METAL
 10
7.996673345565796
 20
-24.80507251620294
 30
36.66528272628784
 70
   192
  0
VERTEX
  5
223
  8
METAL
 10
7.996673345565796
 20
-24.80507251620294
 30
36.66528272628784
 70
   192
  0
VERTEX
  5
224
  8
METAL
 10
7.996673345565796
 20
-24.80507251620292
 30
-37.35241031646729
 70
   192
  0
VERTEX
  5
225
  8
METAL
 10
7.996673345565796
 20
-24.80507251620292
 30
-37.35241031646729
 70
   192
  0
VERTEX
  5
226
  8
METAL
 10
7.996673345565796
 20
-24.80507251620292
 30
-37.35241031646729
 70
   192
  0
VERTEX
  5
227
  8
METAL
 10
7.996673345565796
 20
-24.80507251620292
 30
-37.35241031646729
 70
   192
  0
VERTEX
  5
228
  8
METAL
 10
7.91332733631134
 20
-24.37021350860595
 30
-37.5
 70
   192
  0
VERTEX
  5
229
  8
METAL
 10
7.91332733631134
 20
-24.37021350860595
 30
-37.5
 70
   192
  0
VERTEX
  5
22A
  8
METAL
 10
7.91332733631134
 20
-24.37021350860595
 30
-37.5
 70
   192
  0
VERTEX
  5
22B
  8
METAL
 10
7.913326382637024
 20
-24.37021350860597
 30
36.81287336349486
 70
   192
  0
VERTEX
  5
22C
  8
METAL
 10
7.913326382637024
 20
-24.37021350860597
 30
36.81287336349486
 70
   192
  0
VERTEX
  5
22D
  8
METAL
 10
7.913326382637024
 20
-24.37021350860597
 30
36.81287336349486
 70
   192
  0
VERTEX
  5
22E
  8
METAL
 10
7.887752413749695
 20
-18.01485872268678
 30
36.67616987228394
 70
   192
  0
VERTEX
  5
22F
  8
METAL
 10
7.887752413749695
 20
-18.01485872268678
 30
36.67616987228394
 70
   192
  0
VERTEX
  5
230
  8
METAL
 10
7.887752413749695
 20
-18.01485872268678
 30
36.67616987228394
 70
   192
  0
VERTEX
  5
231
  8
METAL
 10
7.887752413749695
 20
-18.01485872268678
 30
36.67616987228394
 70
   192
  0
VERTEX
  5
232
  8
METAL
 10
7.887752413749695
 20
-0.0000000000000142
 30
36.67616987228394
 70
   192
  0
VERTEX
  5
233
  8
METAL
 10
7.887752413749695
 20
-0.0000000000000142
 30
36.67616987228394
 70
   192
  0
VERTEX
  5
234
  8
METAL
 10
7.887752413749695
 20
-0.0000000000000142
 30
36.67616987228394
 70
   192
  0
VERTEX
  5
235
  8
METAL
 10
7.887752413749695
 20
-18.01485872268676
 30
-37.36329698562622
 70
   192
  0
VERTEX
  5
236
  8
METAL
 10
7.887752413749695
 20
-18.01485872268676
 30
-37.36329698562622
 70
   192
  0
VERTEX
  5
237
  8
METAL
 10
7.887752413749695
 20
-18.01485872268676
 30
-37.36329698562622
 70
   192
  0
VERTEX
  5
238
  8
METAL
 10
7.887752413749695
 20
-18.01485872268676
 30
-37.36329698562622
 70
   192
  0
VERTEX
  5
239
  8
METAL
 10
7.887752413749695
 20
0.0
 30
-37.36329698562622
 70
   192
  0
VERTEX
  5
23A
  8
METAL
 10
7.887752413749695
 20
0.0
 30
-37.36329698562622
 70
   192
  0
VERTEX
  5
23B
  8
METAL
 10
7.887752413749695
 20
0.0
 30
-37.36329698562622
 70
   192
  0
VERTEX
  5
23C
  8
METAL
 10
7.842750310897827
 20
-22.3999104499817
 30
36.81287336349486
 70
   192
  0
VERTEX
  5
23D
  8
METAL
 10
7.842749357223511
 20
-22.39991044998169
 30
-37.5
 70
   192
  0
VERTEX
  5
23E
  8
METAL
 10
7.810476303100586
 20
-21.49895048141481
 30
36.81287336349487
 70
   192
  0
VERTEX
  5
23F
  8
METAL
 10
7.810476303100586
 20
-21.49895048141479
 30
-37.49999809265137
 70
   192
  0
VERTEX
  5
240
  8
METAL
 10
7.76651930809021
 20
-19.81070661544801
 30
34.14928007125854
 70
   192
  0
VERTEX
  5
241
  8
METAL
 10
7.76651930809021
 20
-22.13214349746705
 30
31.82784223556517
 70
   192
  0
VERTEX
  5
242
  8
METAL
 10
7.766518354415894
 20
-22.13214349746704
 30
-32.51496922969818
 70
   192
  0
VERTEX
  5
243
  8
METAL
 10
7.766518354415894
 20
-19.81070661544799
 30
-34.83640718460083
 70
   192
  0
VERTEX
  5
244
  8
METAL
 10
7.756690382957458
 20
-19.99735260009767
 30
36.81287336349487
 70
   192
  0
VERTEX
  5
245
  8
METAL
 10
7.756690382957458
 20
-19.99735260009767
 30
36.81287336349487
 70
   192
  0
VERTEX
  5
246
  8
METAL
 10
7.756690382957458
 20
-19.99735260009767
 30
36.81287336349487
 70
   192
  0
VERTEX
  5
247
  8
METAL
 10
7.756690382957458
 20
-19.99735260009765
 30
-37.5
 70
   192
  0
VERTEX
  5
248
  8
METAL
 10
7.756690382957458
 20
-19.99735260009765
 30
-37.5
 70
   192
  0
VERTEX
  5
249
  8
METAL
 10
7.756690382957458
 20
-19.99735260009765
 30
-37.5
 70
   192
  0
VERTEX
  5
24A
  8
METAL
 10
7.477640390396118
 20
-18.04400444030763
 30
36.81287336349487
 70
   192
  0
VERTEX
  5
24B
  8
METAL
 10
7.477640390396118
 20
-18.04400444030763
 30
36.81287336349487
 70
   192
  0
VERTEX
  5
24C
  8
METAL
 10
7.477640390396118
 20
-18.04400444030763
 30
36.81287336349487
 70
   192
  0
VERTEX
  5
24D
  8
METAL
 10
7.477640390396118
 20
-0.0000000000000142
 30
36.81287336349487
 70
   192
  0
VERTEX
  5
24E
  8
METAL
 10
7.477640390396118
 20
-0.0000000000000142
 30
36.81287336349487
 70
   192
  0
VERTEX
  5
24F
  8
METAL
 10
7.477640390396118
 20
-0.0000000000000142
 30
36.81287336349487
 70
   192
  0
VERTEX
  5
250
  8
METAL
 10
7.477640390396118
 20
-18.04400444030761
 30
-37.5
 70
   192
  0
VERTEX
  5
251
  8
METAL
 10
7.477640390396118
 20
-18.04400444030761
 30
-37.5
 70
   192
  0
VERTEX
  5
252
  8
METAL
 10
7.477640390396118
 20
-18.04400444030761
 30
-37.5
 70
   192
  0
VERTEX
  5
253
  8
METAL
 10
7.477640390396118
 20
0.0
 30
-37.5
 70
   192
  0
VERTEX
  5
254
  8
METAL
 10
7.477640390396118
 20
0.0
 30
-37.5
 70
   192
  0
VERTEX
  5
255
  8
METAL
 10
7.477640390396118
 20
0.0
 30
-37.5
 70
   192
  0
VERTEX
  5
256
  8
METAL
 10
6.992706298828125
 20
-21.1003932952881
 30
34.14928007125854
 70
   192
  0
VERTEX
  5
257
  8
METAL
 10
6.992706298828125
 20
-21.1003932952881
 30
34.14928007125854
 70
   192
  0
VERTEX
  5
258
  8
METAL
 10
6.992706298828125
 20
-21.1003932952881
 30
34.14928007125854
 70
   192
  0
VERTEX
  5
259
  8
METAL
 10
6.992706298828125
 20
-22.13214349746705
 30
33.11753034591675
 70
   192
  0
VERTEX
  5
25A
  8
METAL
 10
6.992706298828125
 20
-22.13214349746705
 30
33.11753034591675
 70
   192
  0
VERTEX
  5
25B
  8
METAL
 10
6.992706298828125
 20
-22.13214349746705
 30
33.11753034591675
 70
   192
  0
VERTEX
  5
25C
  8
METAL
 10
6.992706298828125
 20
-22.13214349746704
 30
-33.80465722084045
 70
   192
  0
VERTEX
  5
25D
  8
METAL
 10
6.992706298828125
 20
-22.13214349746704
 30
-33.80465722084045
 70
   192
  0
VERTEX
  5
25E
  8
METAL
 10
6.992706298828125
 20
-22.13214349746704
 30
-33.80465722084045
 70
   192
  0
VERTEX
  5
25F
  8
METAL
 10
6.992706298828125
 20
-21.10039329528808
 30
-34.83640718460083
 70
   192
  0
VERTEX
  5
260
  8
METAL
 10
6.992706298828125
 20
-21.10039329528808
 30
-34.83640718460083
 70
   192
  0
VERTEX
  5
261
  8
METAL
 10
6.992706298828125
 20
-21.10039329528808
 30
-34.83640718460083
 70
   192
  0
VERTEX
  5
262
  8
METAL
 10
5.703019380569458
 20
-21.87420654296876
 30
34.14928007125854
 70
   192
  0
VERTEX
  5
263
  8
METAL
 10
5.703019380569458
 20
-21.87420654296876
 30
34.14928007125854
 70
   192
  0
VERTEX
  5
264
  8
METAL
 10
5.703019380569458
 20
-21.87420654296876
 30
34.14928007125854
 70
   192
  0
VERTEX
  5
265
  8
METAL
 10
5.703019380569458
 20
-22.13214349746705
 30
33.89134168624878
 70
   192
  0
VERTEX
  5
266
  8
METAL
 10
5.703019380569458
 20
-22.13214349746705
 30
33.89134168624878
 70
   192
  0
VERTEX
  5
267
  8
METAL
 10
5.703019380569458
 20
-22.13214349746705
 30
33.89134168624878
 70
   192
  0
VERTEX
  5
268
  8
METAL
 10
5.703019380569458
 20
-22.13214349746704
 30
-34.57846927642822
 70
   192
  0
VERTEX
  5
269
  8
METAL
 10
5.703019380569458
 20
-22.13214349746704
 30
-34.57846927642822
 70
   192
  0
VERTEX
  5
26A
  8
METAL
 10
5.703019380569458
 20
-22.13214349746704
 30
-34.57846927642822
 70
   192
  0
VERTEX
  5
26B
  8
METAL
 10
5.703019380569458
 20
-21.87420654296875
 30
-34.83640718460083
 70
   192
  0
VERTEX
  5
26C
  8
METAL
 10
5.703019380569458
 20
-21.87420654296875
 30
-34.83640718460083
 70
   192
  0
VERTEX
  5
26D
  8
METAL
 10
5.703019380569458
 20
-21.87420654296875
 30
-34.83640718460083
 70
   192
  0
VERTEX
  5
26E
  8
METAL
 10
3.897456169128418
 20
-22.13214349746705
 30
34.14928007125854
 70
   192
  0
VERTEX
  5
26F
  8
METAL
 10
3.897456169128418
 20
-22.13214349746705
 30
34.14928007125854
 70
   192
  0
VERTEX
  5
270
  8
METAL
 10
3.897456169128418
 20
-22.13214349746705
 30
34.14928007125854
 70
   192
  0
VERTEX
  5
271
  8
METAL
 10
3.897456169128418
 20
-22.13214349746704
 30
-34.83640718460083
 70
   192
  0
VERTEX
  5
272
  8
METAL
 10
3.897456169128418
 20
-22.13214349746704
 30
-34.83640718460083
 70
   192
  0
VERTEX
  5
273
  8
METAL
 10
3.897456169128418
 20
-22.13214349746704
 30
-34.83640718460083
 70
   192
  0
VERTEX
  5
274
  8
METAL
 10
0.1317291259765625
 20
0.0
 30
-37.36329698562622
 70
   192
  0
VERTEX
  5
275
  8
METAL
 10
0.1317281723022461
 20
-24.36495351791383
 30
36.81287336349486
 70
   192
  0
VERTEX
  5
276
  8
METAL
 10
0.1317281723022461
 20
-24.36495351791383
 30
36.81287336349486
 70
   192
  0
VERTEX
  5
277
  8
METAL
 10
0.1317281723022461
 20
-24.36495351791383
 30
36.81287336349486
 70
   192
  0
VERTEX
  5
278
  8
METAL
 10
0.1317281723022461
 20
-22.3999104499817
 30
36.81287336349486
 70
   192
  0
VERTEX
  5
279
  8
METAL
 10
0.1317281723022461
 20
-21.49895048141481
 30
36.81287336349487
 70
   192
  0
VERTEX
  5
27A
  8
METAL
 10
0.1317281723022461
 20
-19.99735355377198
 30
36.81287336349487
 70
   192
  0
VERTEX
  5
27B
  8
METAL
 10
0.1317281723022461
 20
-18.04400444030763
 30
36.81287336349487
 70
   192
  0
VERTEX
  5
27C
  8
METAL
 10
0.1317281723022461
 20
-0.0000000000000142
 30
36.81287336349487
 70
   192
  0
VERTEX
  5
27D
  8
METAL
 10
0.1317281723022461
 20
-0.0000000000000142
 30
36.81287336349487
 70
   192
  0
VERTEX
  5
27E
  8
METAL
 10
0.1317281723022461
 20
-0.0000000000000142
 30
36.67616987228394
 70
   192
  0
VERTEX
  5
27F
  8
METAL
 10
0.1317281723022461
 20
-24.80375051498414
 30
36.66528272628784
 70
   192
  0
VERTEX
  5
280
  8
METAL
 10
0.1317281723022461
 20
-24.80375051498414
 30
36.66528272628784
 70
   192
  0
VERTEX
  5
281
  8
METAL
 10
0.1317281723022461
 20
-24.80375051498414
 30
36.66528272628784
 70
   192
  0
VERTEX
  5
282
  8
METAL
 10
0.1317281723022461
 20
-24.80375051498414
 30
36.66528272628784
 70
   192
  0
VERTEX
  5
283
  8
METAL
 10
0.1317281723022461
 20
-0.0000000000000142
 30
36.26605939865112
 70
   192
  0
VERTEX
  5
284
  8
METAL
 10
0.1317281723022461
 20
-24.95002654194833
 30
36.22250699996947
 70
   192
  0
VERTEX
  5
285
  8
METAL
 10
0.1317281723022461
 20
-24.95002654194833
 30
36.22250699996947
 70
   192
  0
VERTEX
  5
286
  8
METAL
 10
0.1317281723022461
 20
-24.95002654194833
 30
36.22250699996947
 70
   192
  0
VERTEX
  5
287
  8
METAL
 10
0.1317281723022461
 20
-24.95002654194833
 30
35.93830442428587
 70
   192
  0
VERTEX
  5
288
  8
METAL
 10
0.1317281723022461
 20
-24.95002654194833
 30
35.08568906784056
 70
   192
  0
VERTEX
  5
289
  8
METAL
 10
0.1317281723022461
 20
-24.95002654194833
 30
34.14928007125853
 70
   192
  0
VERTEX
  5
28A
  8
METAL
 10
0.1317281723022461
 20
-22.13214349746705
 30
34.14928007125854
 70
   192
  0
VERTEX
  5
28B
  8
METAL
 10
0.1317281723022461
 20
-22.13214349746705
 30
34.14928007125854
 70
   192
  0
VERTEX
  5
28C
  8
METAL
 10
0.1317281723022461
 20
-0.0000000000000142
 30
34.14928007125854
 70
   192
  0
VERTEX
  5
28D
  8
METAL
 10
0.1317281723022461
 20
-0.0000000000000142
 30
34.14928007125854
 70
   192
  0
VERTEX
  5
28E
  8
METAL
 10
0.1317281723022461
 20
-24.95002654194832
 30
-0.3435635566711568
 70
   192
  0
VERTEX
  5
28F
  8
METAL
 10
0.1317281723022461
 20
-22.13214349746704
 30
-0.3435635566711568
 70
   192
  0
VERTEX
  5
290
  8
METAL
 10
0.1317281723022461
 20
-24.95002654194831
 30
-34.83640718460083
 70
   192
  0
VERTEX
  5
291
  8
METAL
 10
0.1317281723022461
 20
-22.13214349746704
 30
-34.83640718460083
 70
   192
  0
VERTEX
  5
292
  8
METAL
 10
0.1317281723022461
 20
-22.13214349746704
 30
-34.83640718460083
 70
   192
  0
VERTEX
  5
293
  8
METAL
 10
0.1317281723022461
 20
0.0
 30
-34.83640718460083
 70
   192
  0
VERTEX
  5
294
  8
METAL
 10
0.1317281723022461
 20
0.0
 30
-34.83640718460083
 70
   192
  0
VERTEX
  5
295
  8
METAL
 10
0.1317281723022461
 20
-24.95002654194831
 30
-35.77281618118286
 70
   192
  0
VERTEX
  5
296
  8
METAL
 10
0.1317281723022461
 20
-24.95002654194831
 30
-36.62543106079102
 70
   192
  0
VERTEX
  5
297
  8
METAL
 10
0.1317281723022461
 20
-24.95002654194831
 30
-36.90963411331177
 70
   192
  0
VERTEX
  5
298
  8
METAL
 10
0.1317281723022461
 20
-24.95002654194831
 30
-36.90963411331177
 70
   192
  0
VERTEX
  5
299
  8
METAL
 10
0.1317281723022461
 20
-24.95002654194831
 30
-36.90963411331177
 70
   192
  0
VERTEX
  5
29A
  8
METAL
 10
0.1317281723022461
 20
0.0
 30
-36.95318412780762
 70
   192
  0
VERTEX
  5
29B
  8
METAL
 10
0.1317281723022461
 20
-24.80375051498413
 30
-37.35241031646729
 70
   192
  0
VERTEX
  5
29C
  8
METAL
 10
0.1317281723022461
 20
-24.80375051498413
 30
-37.35241031646729
 70
   192
  0
VERTEX
  5
29D
  8
METAL
 10
0.1317281723022461
 20
-24.80375051498413
 30
-37.35241031646729
 70
   192
  0
VERTEX
  5
29E
  8
METAL
 10
0.1317281723022461
 20
-24.80375051498413
 30
-37.35241031646729
 70
   192
  0
VERTEX
  5
29F
  8
METAL
 10
0.1317281723022461
 20
-24.36495351791381
 30
-37.5
 70
   192
  0
VERTEX
  5
2A0
  8
METAL
 10
0.1317281723022461
 20
-24.36495351791381
 30
-37.5
 70
   192
  0
VERTEX
  5
2A1
  8
METAL
 10
0.1317281723022461
 20
-24.36495351791381
 30
-37.5
 70
   192
  0
VERTEX
  5
2A2
  8
METAL
 10
0.1317281723022461
 20
-22.39991044998169
 30
-37.5
 70
   192
  0
VERTEX
  5
2A3
  8
METAL
 10
0.1317281723022461
 20
-21.49895048141479
 30
-37.5
 70
   192
  0
VERTEX
  5
2A4
  8
METAL
 10
0.1317281723022461
 20
-19.99735355377197
 30
-37.5
 70
   192
  0
VERTEX
  5
2A5
  8
METAL
 10
0.1317281723022461
 20
-18.04400444030761
 30
-37.5
 70
   192
  0
VERTEX
  5
2A6
  8
METAL
 10
0.1317281723022461
 20
0.0
 30
-37.5
 70
   192
  0
VERTEX
  5
2A7
  8
METAL
 10
0.1317281723022461
 20
0.0
 30
-37.5
 70
   192
  0
VERTEX
  5
2A8
  8
METAL
 10
-3.633999824523926
 20
-22.13214349746704
 30
-34.83640718460083
 70
   192
  0
VERTEX
  5
2A9
  8
METAL
 10
-3.633999824523926
 20
-22.13214349746704
 30
-34.83640718460083
 70
   192
  0
VERTEX
  5
2AA
  8
METAL
 10
-3.633999824523926
 20
-22.13214349746704
 30
-34.83640718460083
 70
   192
  0
VERTEX
  5
2AB
  8
METAL
 10
-3.634000778198242
 20
-22.13214349746705
 30
34.14928007125854
 70
   192
  0
VERTEX
  5
2AC
  8
METAL
 10
-3.634000778198242
 20
-22.13214349746705
 30
34.14928007125854
 70
   192
  0
VERTEX
  5
2AD
  8
METAL
 10
-3.634000778198242
 20
-22.13214349746705
 30
34.14928007125854
 70
   192
  0
VERTEX
  5
2AE
  8
METAL
 10
-5.43956279754638
 20
-21.87420654296876
 30
34.14928007125854
 70
   192
  0
VERTEX
  5
2AF
  8
METAL
 10
-5.43956279754638
 20
-21.87420654296876
 30
34.14928007125854
 70
   192
  0
VERTEX
  5
2B0
  8
METAL
 10
-5.43956279754638
 20
-21.87420654296876
 30
34.14928007125854
 70
   192
  0
VERTEX
  5
2B1
  8
METAL
 10
-5.43956279754638
 20
-22.13214349746705
 30
33.89134168624878
 70
   192
  0
VERTEX
  5
2B2
  8
METAL
 10
-5.43956279754638
 20
-22.13214349746705
 30
33.89134168624878
 70
   192
  0
VERTEX
  5
2B3
  8
METAL
 10
-5.43956279754638
 20
-22.13214349746705
 30
33.89134168624878
 70
   192
  0
VERTEX
  5
2B4
  8
METAL
 10
-5.43956279754638
 20
-22.13214349746704
 30
-34.57846927642822
 70
   192
  0
VERTEX
  5
2B5
  8
METAL
 10
-5.43956279754638
 20
-22.13214349746704
 30
-34.57846927642822
 70
   192
  0
VERTEX
  5
2B6
  8
METAL
 10
-5.43956279754638
 20
-22.13214349746704
 30
-34.57846927642822
 70
   192
  0
VERTEX
  5
2B7
  8
METAL
 10
-5.43956279754638
 20
-21.87420654296875
 30
-34.83640718460083
 70
   192
  0
VERTEX
  5
2B8
  8
METAL
 10
-5.43956279754638
 20
-21.87420654296875
 30
-34.83640718460083
 70
   192
  0
VERTEX
  5
2B9
  8
METAL
 10
-5.43956279754638
 20
-21.87420654296875
 30
-34.83640718460083
 70
   192
  0
VERTEX
  5
2BA
  8
METAL
 10
-6.729249000549309
 20
-22.13214349746704
 30
-33.80465722084045
 70
   192
  0
VERTEX
  5
2BB
  8
METAL
 10
-6.729249000549309
 20
-22.13214349746704
 30
-33.80465722084045
 70
   192
  0
VERTEX
  5
2BC
  8
METAL
 10
-6.729249000549309
 20
-22.13214349746704
 30
-33.80465722084045
 70
   192
  0
VERTEX
  5
2BD
  8
METAL
 10
-6.729249000549309
 20
-21.10039329528808
 30
-34.83640718460083
 70
   192
  0
VERTEX
  5
2BE
  8
METAL
 10
-6.729249000549309
 20
-21.10039329528808
 30
-34.83640718460083
 70
   192
  0
VERTEX
  5
2BF
  8
METAL
 10
-6.729249000549309
 20
-21.10039329528808
 30
-34.83640718460083
 70
   192
  0
VERTEX
  5
2C0
  8
METAL
 10
-6.729249954223633
 20
-21.1003932952881
 30
34.14928007125854
 70
   192
  0
VERTEX
  5
2C1
  8
METAL
 10
-6.729249954223633
 20
-21.1003932952881
 30
34.14928007125854
 70
   192
  0
VERTEX
  5
2C2
  8
METAL
 10
-6.729249954223633
 20
-21.1003932952881
 30
34.14928007125854
 70
   192
  0
VERTEX
  5
2C3
  8
METAL
 10
-6.729249954223633
 20
-22.13214349746705
 30
33.11753034591675
 70
   192
  0
VERTEX
  5
2C4
  8
METAL
 10
-6.729249954223633
 20
-22.13214349746705
 30
33.11753034591675
 70
   192
  0
VERTEX
  5
2C5
  8
METAL
 10
-6.729249954223633
 20
-22.13214349746705
 30
33.11753034591675
 70
   192
  0
VERTEX
  5
2C6
  8
METAL
 10
-7.214183807373043
 20
-18.04400444030763
 30
36.81287336349487
 70
   192
  0
VERTEX
  5
2C7
  8
METAL
 10
-7.214183807373043
 20
-18.04400444030763
 30
36.81287336349487
 70
   192
  0
VERTEX
  5
2C8
  8
METAL
 10
-7.214183807373043
 20
-18.04400444030763
 30
36.81287336349487
 70
   192
  0
VERTEX
  5
2C9
  8
METAL
 10
-7.214183807373043
 20
-0.0000000000000142
 30
36.81287336349487
 70
   192
  0
VERTEX
  5
2CA
  8
METAL
 10
-7.214183807373043
 20
-0.0000000000000142
 30
36.81287336349487
 70
   192
  0
VERTEX
  5
2CB
  8
METAL
 10
-7.214183807373043
 20
-0.0000000000000142
 30
36.81287336349487
 70
   192
  0
VERTEX
  5
2CC
  8
METAL
 10
-7.214183807373043
 20
-18.04400444030761
 30
-37.5
 70
   192
  0
VERTEX
  5
2CD
  8
METAL
 10
-7.214183807373043
 20
-18.04400444030761
 30
-37.5
 70
   192
  0
VERTEX
  5
2CE
  8
METAL
 10
-7.214183807373043
 20
-18.04400444030761
 30
-37.5
 70
   192
  0
VERTEX
  5
2CF
  8
METAL
 10
-7.214183807373043
 20
0.0
 30
-37.5
 70
   192
  0
VERTEX
  5
2D0
  8
METAL
 10
-7.214183807373043
 20
0.0
 30
-37.5
 70
   192
  0
VERTEX
  5
2D1
  8
METAL
 10
-7.214183807373043
 20
0.0
 30
-37.5
 70
   192
  0
VERTEX
  5
2D2
  8
METAL
 10
-7.493232727050781
 20
-19.99735260009767
 30
36.81287336349487
 70
   192
  0
VERTEX
  5
2D3
  8
METAL
 10
-7.493232727050781
 20
-19.99735260009767
 30
36.81287336349487
 70
   192
  0
VERTEX
  5
2D4
  8
METAL
 10
-7.493232727050781
 20
-19.99735260009767
 30
36.81287336349487
 70
   192
  0
VERTEX
  5
2D5
  8
METAL
 10
-7.493232727050781
 20
-19.99735260009765
 30
-37.5
 70
   192
  0
VERTEX
  5
2D6
  8
METAL
 10
-7.493232727050781
 20
-19.99735260009765
 30
-37.5
 70
   192
  0
VERTEX
  5
2D7
  8
METAL
 10
-7.493232727050781
 20
-19.99735260009765
 30
-37.5
 70
   192
  0
VERTEX
  5
2D8
  8
METAL
 10
-7.5030632019043
 20
-19.81070661544801
 30
34.14928007125854
 70
   192
  0
VERTEX
  5
2D9
  8
METAL
 10
-7.5030632019043
 20
-22.13214349746705
 30
31.82784223556517
 70
   192
  0
VERTEX
  5
2DA
  8
METAL
 10
-7.5030632019043
 20
-22.13214349746704
 30
-32.51496922969818
 70
   192
  0
VERTEX
  5
2DB
  8
METAL
 10
-7.5030632019043
 20
-19.81070661544799
 30
-34.83640718460083
 70
   192
  0
VERTEX
  5
2DC
  8
METAL
 10
-7.54701995849609
 20
-21.49895048141481
 30
36.81287336349487
 70
   192
  0
VERTEX
  5
2DD
  8
METAL
 10
-7.54701995849609
 20
-21.49895048141479
 30
-37.49999809265137
 70
   192
  0
VERTEX
  5
2DE
  8
METAL
 10
-7.579292297363281
 20
-22.39991044998169
 30
-37.5
 70
   192
  0
VERTEX
  5
2DF
  8
METAL
 10
-7.579294204711911
 20
-22.3999104499817
 30
36.81287336349486
 70
   192
  0
VERTEX
  5
2E0
  8
METAL
 10
-7.624294281005863
 20
-18.01485872268676
 30
-37.36329698562622
 70
   192
  0
VERTEX
  5
2E1
  8
METAL
 10
-7.624294281005863
 20
-18.01485872268676
 30
-37.36329698562622
 70
   192
  0
VERTEX
  5
2E2
  8
METAL
 10
-7.624294281005863
 20
-18.01485872268676
 30
-37.36329698562622
 70
   192
  0
VERTEX
  5
2E3
  8
METAL
 10
-7.624294281005863
 20
-18.01485872268676
 30
-37.36329698562622
 70
   192
  0
VERTEX
  5
2E4
  8
METAL
 10
-7.624294281005863
 20
0.0
 30
-37.36329698562622
 70
   192
  0
VERTEX
  5
2E5
  8
METAL
 10
-7.624294281005863
 20
0.0
 30
-37.36329698562622
 70
   192
  0
VERTEX
  5
2E6
  8
METAL
 10
-7.624294281005863
 20
0.0
 30
-37.36329698562622
 70
   192
  0
VERTEX
  5
2E7
  8
METAL
 10
-7.624296188354492
 20
-18.01485872268678
 30
36.67616987228394
 70
   192
  0
VERTEX
  5
2E8
  8
METAL
 10
-7.624296188354492
 20
-18.01485872268678
 30
36.67616987228394
 70
   192
  0
VERTEX
  5
2E9
  8
METAL
 10
-7.624296188354492
 20
-18.01485872268678
 30
36.67616987228394
 70
   192
  0
VERTEX
  5
2EA
  8
METAL
 10
-7.624296188354492
 20
-18.01485872268678
 30
36.67616987228394
 70
   192
  0
VERTEX
  5
2EB
  8
METAL
 10
-7.624296188354492
 20
-0.0000000000000142
 30
36.67616987228394
 70
   192
  0
VERTEX
  5
2EC
  8
METAL
 10
-7.624296188354492
 20
-0.0000000000000142
 30
36.67616987228394
 70
   192
  0
VERTEX
  5
2ED
  8
METAL
 10
-7.624296188354492
 20
-0.0000000000000142
 30
36.67616987228394
 70
   192
  0
VERTEX
  5
2EE
  8
METAL
 10
-7.649869918823242
 20
-24.37021350860597
 30
36.81287336349486
 70
   192
  0
VERTEX
  5
2EF
  8
METAL
 10
-7.649869918823242
 20
-24.37021350860597
 30
36.81287336349486
 70
   192
  0
VERTEX
  5
2F0
  8
METAL
 10
-7.649869918823242
 20
-24.37021350860597
 30
36.81287336349486
 70
   192
  0
VERTEX
  5
2F1
  8
METAL
 10
-7.649871826171871
 20
-24.37021350860595
 30
-37.5
 70
   192
  0
VERTEX
  5
2F2
  8
METAL
 10
-7.649871826171871
 20
-24.37021350860595
 30
-37.5
 70
   192
  0
VERTEX
  5
2F3
  8
METAL
 10
-7.649871826171871
 20
-24.37021350860595
 30
-37.5
 70
   192
  0
VERTEX
  5
2F4
  8
METAL
 10
-7.733215332031254
 20
-24.80507251620292
 30
-37.35241031646729
 70
   192
  0
VERTEX
  5
2F5
  8
METAL
 10
-7.733215332031254
 20
-24.80507251620292
 30
-37.35241031646729
 70
   192
  0
VERTEX
  5
2F6
  8
METAL
 10
-7.733215332031254
 20
-24.80507251620292
 30
-37.35241031646729
 70
   192
  0
VERTEX
  5
2F7
  8
METAL
 10
-7.733215332031254
 20
-24.80507251620292
 30
-37.35241031646729
 70
   192
  0
VERTEX
  5
2F8
  8
METAL
 10
-7.733217239379883
 20
-24.80507251620294
 30
36.66528272628784
 70
   192
  0
VERTEX
  5
2F9
  8
METAL
 10
-7.733217239379883
 20
-24.80507251620294
 30
36.66528272628784
 70
   192
  0
VERTEX
  5
2FA
  8
METAL
 10
-7.733217239379883
 20
-24.80507251620294
 30
36.66528272628784
 70
   192
  0
VERTEX
  5
2FB
  8
METAL
 10
-7.733217239379883
 20
-24.80507251620294
 30
36.66528272628784
 70
   192
  0
VERTEX
  5
2FC
  8
METAL
 10
-7.7609977722168
 20
-24.95002654194833
 30
35.08568906784056
 70
   192
  0
VERTEX
  5
2FD
  8
METAL
 10
-7.7609977722168
 20
-24.95002654194833
 30
35.08568906784056
 70
   192
  0
VERTEX
  5
2FE
  8
METAL
 10
-7.7609977722168
 20
-24.95002654194831
 30
-34.83640718460083
 70
   192
  0
VERTEX
  5
2FF
  8
METAL
 10
-7.7609977722168
 20
-24.95002654194831
 30
-35.77281618118286
 70
   192
  0
VERTEX
  5
300
  8
METAL
 10
-7.7609977722168
 20
-24.95002654194831
 30
-35.77281618118286
 70
   192
  0
VERTEX
  5
301
  8
METAL
 10
-7.7609977722168
 20
-24.95002654194831
 30
-36.62543106079102
 70
   192
  0
VERTEX
  5
302
  8
METAL
 10
-7.7609977722168
 20
-24.95002654194831
 30
-36.62543106079102
 70
   192
  0
VERTEX
  5
303
  8
METAL
 10
-7.7609977722168
 20
-24.95002654194831
 30
-36.90963411331177
 70
   192
  0
VERTEX
  5
304
  8
METAL
 10
-7.7609977722168
 20
-24.95002654194831
 30
-36.90963411331177
 70
   192
  0
VERTEX
  5
305
  8
METAL
 10
-7.7609977722168
 20
-24.95002654194831
 30
-36.90963411331177
 70
   192
  0
VERTEX
  5
306
  8
METAL
 10
-7.7609977722168
 20
-24.95002654194831
 30
-36.90963411331177
 70
   192
  0
VERTEX
  5
307
  8
METAL
 10
-7.760999679565433
 20
-18.00514364242555
 30
36.26605939865112
 70
   192
  0
VERTEX
  5
308
  8
METAL
 10
-7.760999679565433
 20
-18.00514364242555
 30
36.26605939865112
 70
   192
  0
VERTEX
  5
309
  8
METAL
 10
-7.760999679565433
 20
-18.00514364242555
 30
36.26605939865112
 70
   192
  0
VERTEX
  5
30A
  8
METAL
 10
-7.760999679565433
 20
-18.00514364242555
 30
36.26605939865112
 70
   192
  0
VERTEX
  5
30B
  8
METAL
 10
-7.760999679565433
 20
-0.0000000000000142
 30
36.26605939865112
 70
   192
  0
VERTEX
  5
30C
  8
METAL
 10
-7.760999679565433
 20
-0.0000000000000142
 30
36.26605939865112
 70
   192
  0
VERTEX
  5
30D
  8
METAL
 10
-7.760999679565433
 20
-0.0000000000000142
 30
36.26605939865112
 70
   192
  0
VERTEX
  5
30E
  8
METAL
 10
-7.760999679565433
 20
-24.95002654194833
 30
36.22250699996947
 70
   192
  0
VERTEX
  5
30F
  8
METAL
 10
-7.760999679565433
 20
-24.95002654194833
 30
36.22250699996947
 70
   192
  0
VERTEX
  5
310
  8
METAL
 10
-7.760999679565433
 20
-24.95002654194833
 30
36.22250699996947
 70
   192
  0
VERTEX
  5
311
  8
METAL
 10
-7.760999679565433
 20
-24.95002654194833
 30
36.22250699996947
 70
   192
  0
VERTEX
  5
312
  8
METAL
 10
-7.760999679565433
 20
-24.95002654194833
 30
35.93830442428587
 70
   192
  0
VERTEX
  5
313
  8
METAL
 10
-7.760999679565433
 20
-24.95002654194833
 30
35.93830442428587
 70
   192
  0
VERTEX
  5
314
  8
METAL
 10
-7.760999679565433
 20
-24.95002654194833
 30
34.14928007125853
 70
   192
  0
VERTEX
  5
315
  8
METAL
 10
-7.760999679565433
 20
-18.00514364242555
 30
34.14928007125854
 70
   192
  0
VERTEX
  5
316
  8
METAL
 10
-7.760999679565433
 20
-18.00514364242555
 30
34.14928007125854
 70
   192
  0
VERTEX
  5
317
  8
METAL
 10
-7.760999679565433
 20
-18.00514364242555
 30
34.14928007125854
 70
   192
  0
VERTEX
  5
318
  8
METAL
 10
-7.760999679565433
 20
-0.0000000000000142
 30
34.14928007125854
 70
   192
  0
VERTEX
  5
319
  8
METAL
 10
-7.760999679565433
 20
-0.0000000000000142
 30
34.14928007125854
 70
   192
  0
VERTEX
  5
31A
  8
METAL
 10
-7.760999679565433
 20
-0.0000000000000142
 30
34.14928007125854
 70
   192
  0
VERTEX
  5
31B
  8
METAL
 10
-7.760999679565433
 20
-24.95002654194832
 30
-0.3435635566711568
 70
   192
  0
VERTEX
  5
31C
  8
METAL
 10
-7.760999679565433
 20
-22.13214349746704
 30
-0.3435635566711568
 70
   192
  0
VERTEX
  5
31D
  8
METAL
 10
-7.761001586914062
 20
-18.00514364242553
 30
-34.83640718460083
 70
   192
  0
VERTEX
  5
31E
  8
METAL
 10
-7.761001586914062
 20
-18.00514364242553
 30
-34.83640718460083
 70
   192
  0
VERTEX
  5
31F
  8
METAL
 10
-7.761001586914062
 20
-18.00514364242553
 30
-34.83640718460083
 70
   192
  0
VERTEX
  5
320
  8
METAL
 10
-7.761001586914062
 20
0.0
 30
-34.83640718460083
 70
   192
  0
VERTEX
  5
321
  8
METAL
 10
-7.761001586914062
 20
0.0
 30
-34.83640718460083
 70
   192
  0
VERTEX
  5
322
  8
METAL
 10
-7.761001586914062
 20
0.0
 30
-34.83640718460083
 70
   192
  0
VERTEX
  5
323
  8
METAL
 10
-7.761001586914062
 20
-18.00514364242553
 30
-36.95318412780762
 70
   192
  0
VERTEX
  5
324
  8
METAL
 10
-7.761001586914062
 20
-18.00514364242553
 30
-36.95318412780762
 70
   192
  0
VERTEX
  5
325
  8
METAL
 10
-7.761001586914062
 20
-18.00514364242553
 30
-36.95318412780762
 70
   192
  0
VERTEX
  5
326
  8
METAL
 10
-7.761001586914062
 20
-18.00514364242553
 30
-36.95318412780762
 70
   192
  0
VERTEX
  5
327
  8
METAL
 10
-7.761001586914062
 20
0.0
 30
-36.95318412780762
 70
   192
  0
VERTEX
  5
328
  8
METAL
 10
-7.761001586914062
 20
0.0
 30
-36.95318412780762
 70
   192
  0
VERTEX
  5
329
  8
METAL
 10
-7.761001586914062
 20
0.0
 30
-36.95318412780762
 70
   192
  0
VERTEX
  5
32A
  8
METAL
 10
-7.887512207031254
 20
-19.85736751556398
 30
36.67616987228394
 70
   192
  0
VERTEX
  5
32B
  8
METAL
 10
-7.887512207031254
 20
-19.85736751556398
 30
36.67616987228394
 70
   192
  0
VERTEX
  5
32C
  8
METAL
 10
-7.887512207031254
 20
-19.85736751556398
 30
36.67616987228394
 70
   192
  0
VERTEX
  5
32D
  8
METAL
 10
-7.887512207031254
 20
-19.85736751556398
 30
36.67616987228394
 70
   192
  0
VERTEX
  5
32E
  8
METAL
 10
-7.887512207031254
 20
-19.85736751556396
 30
-37.36329698562622
 70
   192
  0
VERTEX
  5
32F
  8
METAL
 10
-7.887512207031254
 20
-19.85736751556396
 30
-37.36329698562622
 70
   192
  0
VERTEX
  5
330
  8
METAL
 10
-7.887512207031254
 20
-19.85736751556396
 30
-37.36329698562622
 70
   192
  0
VERTEX
  5
331
  8
METAL
 10
-7.887512207031254
 20
-19.85736751556396
 30
-37.36329698562622
 70
   192
  0
VERTEX
  5
332
  8
METAL
 10
-8.018936157226562
 20
-19.81070661544799
 30
-34.83640718460083
 70
   192
  0
VERTEX
  5
333
  8
METAL
 10
-8.018936157226562
 20
-19.81070661544799
 30
-34.83640718460083
 70
   192
  0
VERTEX
  5
334
  8
METAL
 10
-8.018936157226562
 20
-19.81070661544799
 30
-34.83640718460083
 70
   192
  0
VERTEX
  5
335
  8
METAL
 10
-8.018936157226562
 20
-19.81070661544799
 30
-36.95318412780762
 70
   192
  0
VERTEX
  5
336
  8
METAL
 10
-8.018936157226562
 20
-19.81070661544799
 30
-36.95318412780762
 70
   192
  0
VERTEX
  5
337
  8
METAL
 10
-8.018936157226562
 20
-19.81070661544799
 30
-36.95318412780762
 70
   192
  0
VERTEX
  5
338
  8
METAL
 10
-8.018936157226562
 20
-19.81070661544799
 30
-36.95318412780762
 70
   192
  0
VERTEX
  5
339
  8
METAL
 10
-8.018938064575192
 20
-19.81070661544801
 30
36.26605939865112
 70
   192
  0
VERTEX
  5
33A
  8
METAL
 10
-8.018938064575192
 20
-19.81070661544801
 30
36.26605939865112
 70
   192
  0
VERTEX
  5
33B
  8
METAL
 10
-8.018938064575192
 20
-19.81070661544801
 30
36.26605939865112
 70
   192
  0
VERTEX
  5
33C
  8
METAL
 10
-8.018938064575192
 20
-19.81070661544801
 30
36.26605939865112
 70
   192
  0
VERTEX
  5
33D
  8
METAL
 10
-8.018938064575192
 20
-19.81070661544801
 30
34.14928007125854
 70
   192
  0
VERTEX
  5
33E
  8
METAL
 10
-8.018938064575192
 20
-19.81070661544801
 30
34.14928007125854
 70
   192
  0
VERTEX
  5
33F
  8
METAL
 10
-8.018938064575192
 20
-19.81070661544801
 30
34.14928007125854
 70
   192
  0
VERTEX
  5
340
  8
METAL
 10
-8.394191741943363
 20
-21.49895048141481
 30
36.81287336349487
 70
   192
  0
VERTEX
  5
341
  8
METAL
 10
-8.394191741943363
 20
-21.49895048141481
 30
36.81287336349487
 70
   192
  0
VERTEX
  5
342
  8
METAL
 10
-8.394191741943363
 20
-21.49895048141481
 30
36.81287336349487
 70
   192
  0
VERTEX
  5
343
  8
METAL
 10
-8.394191741943363
 20
-21.49895048141479
 30
-37.5
 70
   192
  0
VERTEX
  5
344
  8
METAL
 10
-8.394191741943363
 20
-21.49895048141479
 30
-37.5
 70
   192
  0
VERTEX
  5
345
  8
METAL
 10
-8.394191741943363
 20
-21.49895048141479
 30
-37.5
 70
   192
  0
VERTEX
  5
346
  8
METAL
 10
-8.69311141967773
 20
-21.20003271102906
 30
36.67616987228394
 70
   192
  0
VERTEX
  5
347
  8
METAL
 10
-8.69311141967773
 20
-21.20003271102906
 30
36.67616987228394
 70
   192
  0
VERTEX
  5
348
  8
METAL
 10
-8.69311141967773
 20
-21.20003271102906
 30
36.67616987228394
 70
   192
  0
VERTEX
  5
349
  8
METAL
 10
-8.69311141967773
 20
-21.20003271102906
 30
36.67616987228394
 70
   192
  0
VERTEX
  5
34A
  8
METAL
 10
-8.69311141967773
 20
-21.20003271102905
 30
-37.36329698562622
 70
   192
  0
VERTEX
  5
34B
  8
METAL
 10
-8.69311141967773
 20
-21.20003271102905
 30
-37.36329698562622
 70
   192
  0
VERTEX
  5
34C
  8
METAL
 10
-8.69311141967773
 20
-21.20003271102905
 30
-37.36329698562622
 70
   192
  0
VERTEX
  5
34D
  8
METAL
 10
-8.69311141967773
 20
-21.20003271102905
 30
-37.36329698562622
 70
   192
  0
VERTEX
  5
34E
  8
METAL
 10
-8.792751312255863
 20
-21.1003932952881
 30
36.26605939865112
 70
   192
  0
VERTEX
  5
34F
  8
METAL
 10
-8.792751312255863
 20
-21.1003932952881
 30
36.26605939865112
 70
   192
  0
VERTEX
  5
350
  8
METAL
 10
-8.792751312255863
 20
-21.1003932952881
 30
36.26605939865112
 70
   192
  0
VERTEX
  5
351
  8
METAL
 10
-8.792751312255863
 20
-21.1003932952881
 30
36.26605939865112
 70
   192
  0
VERTEX
  5
352
  8
METAL
 10
-8.792751312255863
 20
-21.1003932952881
 30
34.14928007125854
 70
   192
  0
VERTEX
  5
353
  8
METAL
 10
-8.792751312255863
 20
-21.1003932952881
 30
34.14928007125854
 70
   192
  0
VERTEX
  5
354
  8
METAL
 10
-8.792751312255863
 20
-21.1003932952881
 30
34.14928007125854
 70
   192
  0
VERTEX
  5
355
  8
METAL
 10
-8.792751312255863
 20
-21.1003932952881
 30
34.14928007125854
 70
   192
  0
VERTEX
  5
356
  8
METAL
 10
-8.792751312255863
 20
-21.1003932952881
 30
34.14928007125854
 70
   192
  0
VERTEX
  5
357
  8
METAL
 10
-8.792751312255863
 20
-22.13214349746705
 30
33.11753034591675
 70
   192
  0
VERTEX
  5
358
  8
METAL
 10
-8.792751312255863
 20
-22.13214349746705
 30
33.11753034591675
 70
   192
  0
VERTEX
  5
359
  8
METAL
 10
-8.792751312255863
 20
-22.13214349746705
 30
33.11753034591675
 70
   192
  0
VERTEX
  5
35A
  8
METAL
 10
-8.792751312255863
 20
-22.13214349746704
 30
-33.80465722084045
 70
   192
  0
VERTEX
  5
35B
  8
METAL
 10
-8.792751312255863
 20
-22.13214349746704
 30
-33.80465722084045
 70
   192
  0
VERTEX
  5
35C
  8
METAL
 10
-8.792751312255863
 20
-22.13214349746704
 30
-33.80465722084045
 70
   192
  0
VERTEX
  5
35D
  8
METAL
 10
-8.792751312255863
 20
-21.10039329528808
 30
-34.83640718460083
 70
   192
  0
VERTEX
  5
35E
  8
METAL
 10
-8.792751312255863
 20
-21.10039329528808
 30
-34.83640718460083
 70
   192
  0
VERTEX
  5
35F
  8
METAL
 10
-8.792751312255863
 20
-21.10039329528808
 30
-34.83640718460083
 70
   192
  0
VERTEX
  5
360
  8
METAL
 10
-8.792751312255863
 20
-21.10039329528808
 30
-34.83640718460083
 70
   192
  0
VERTEX
  5
361
  8
METAL
 10
-8.792751312255863
 20
-21.10039329528808
 30
-34.83640718460083
 70
   192
  0
VERTEX
  5
362
  8
METAL
 10
-8.792751312255863
 20
-21.10039329528808
 30
-36.95318412780762
 70
   192
  0
VERTEX
  5
363
  8
METAL
 10
-8.792751312255863
 20
-21.10039329528808
 30
-36.95318412780762
 70
   192
  0
VERTEX
  5
364
  8
METAL
 10
-8.792751312255863
 20
-21.10039329528808
 30
-36.95318412780762
 70
   192
  0
VERTEX
  5
365
  8
METAL
 10
-8.792751312255863
 20
-21.10039329528808
 30
-36.95318412780762
 70
   192
  0
VERTEX
  5
366
  8
METAL
 10
-9.895790100097653
 20
-22.3999104499817
 30
36.81287336349486
 70
   192
  0
VERTEX
  5
367
  8
METAL
 10
-9.895790100097653
 20
-22.3999104499817
 30
36.81287336349486
 70
   192
  0
VERTEX
  5
368
  8
METAL
 10
-9.895790100097653
 20
-22.3999104499817
 30
36.81287336349486
 70
   192
  0
VERTEX
  5
369
  8
METAL
 10
-9.895790100097653
 20
-22.39991044998169
 30
-37.5
 70
   192
  0
VERTEX
  5
36A
  8
METAL
 10
-9.895790100097653
 20
-22.39991044998169
 30
-37.5
 70
   192
  0
VERTEX
  5
36B
  8
METAL
 10
-9.895790100097653
 20
-22.39991044998169
 30
-37.5
 70
   192
  0
VERTEX
  5
36C
  8
METAL
 10
-10.03577423095703
 20
-22.00563263893127
 30
-37.36329698562622
 70
   192
  0
VERTEX
  5
36D
  8
METAL
 10
-10.03577423095703
 20
-22.00563263893127
 30
-37.36329698562622
 70
   192
  0
VERTEX
  5
36E
  8
METAL
 10
-10.03577423095703
 20
-22.00563263893127
 30
-37.36329698562622
 70
   192
  0
VERTEX
  5
36F
  8
METAL
 10
-10.03577423095703
 20
-22.00563263893127
 30
-37.36329698562622
 70
   192
  0
VERTEX
  5
370
  8
METAL
 10
-10.03577613830566
 20
-22.00563263893129
 30
36.67616987228394
 70
   192
  0
VERTEX
  5
371
  8
METAL
 10
-10.03577613830566
 20
-22.00563263893129
 30
36.67616987228394
 70
   192
  0
VERTEX
  5
372
  8
METAL
 10
-10.03577613830566
 20
-22.00563263893129
 30
36.67616987228394
 70
   192
  0
VERTEX
  5
373
  8
METAL
 10
-10.03577613830566
 20
-22.00563263893129
 30
36.67616987228394
 70
   192
  0
VERTEX
  5
374
  8
METAL
 10
-10.08243560791015
 20
-22.13214349746704
 30
-34.57846927642822
 70
   192
  0
VERTEX
  5
375
  8
METAL
 10
-10.08243560791015
 20
-22.13214349746704
 30
-34.57846927642822
 70
   192
  0
VERTEX
  5
376
  8
METAL
 10
-10.08243560791015
 20
-22.13214349746704
 30
-34.57846927642822
 70
   192
  0
VERTEX
  5
377
  8
METAL
 10
-10.08243560791015
 20
-21.87420654296875
 30
-34.83640718460083
 70
   192
  0
VERTEX
  5
378
  8
METAL
 10
-10.08243560791015
 20
-21.87420654296875
 30
-34.83640718460083
 70
   192
  0
VERTEX
  5
379
  8
METAL
 10
-10.08243560791015
 20
-21.87420654296875
 30
-34.83640718460083
 70
   192
  0
VERTEX
  5
37A
  8
METAL
 10
-10.08243560791015
 20
-21.87420654296875
 30
-34.83640718460083
 70
   192
  0
VERTEX
  5
37B
  8
METAL
 10
-10.08243560791015
 20
-21.87420654296875
 30
-36.95318412780762
 70
   192
  0
VERTEX
  5
37C
  8
METAL
 10
-10.08243560791015
 20
-21.87420654296875
 30
-36.95318412780762
 70
   192
  0
VERTEX
  5
37D
  8
METAL
 10
-10.08243560791015
 20
-21.87420654296875
 30
-36.95318412780762
 70
   192
  0
VERTEX
  5
37E
  8
METAL
 10
-10.08243560791015
 20
-21.87420654296875
 30
-36.95318412780762
 70
   192
  0
VERTEX
  5
37F
  8
METAL
 10
-10.08243751525879
 20
-21.87420654296876
 30
36.26605939865112
 70
   192
  0
VERTEX
  5
380
  8
METAL
 10
-10.08243751525879
 20
-21.87420654296876
 30
36.26605939865112
 70
   192
  0
VERTEX
  5
381
  8
METAL
 10
-10.08243751525879
 20
-21.87420654296876
 30
36.26605939865112
 70
   192
  0
VERTEX
  5
382
  8
METAL
 10
-10.08243751525879
 20
-21.87420654296876
 30
36.26605939865112
 70
   192
  0
VERTEX
  5
383
  8
METAL
 10
-10.08243751525879
 20
-21.87420654296876
 30
34.14928007125854
 70
   192
  0
VERTEX
  5
384
  8
METAL
 10
-10.08243751525879
 20
-21.87420654296876
 30
34.14928007125854
 70
   192
  0
VERTEX
  5
385
  8
METAL
 10
-10.08243751525879
 20
-21.87420654296876
 30
34.14928007125854
 70
   192
  0
VERTEX
  5
386
  8
METAL
 10
-10.08243751525879
 20
-21.87420654296876
 30
34.14928007125854
 70
   192
  0
VERTEX
  5
387
  8
METAL
 10
-10.08243751525879
 20
-22.13214349746705
 30
33.89134168624878
 70
   192
  0
VERTEX
  5
388
  8
METAL
 10
-10.08243751525879
 20
-22.13214349746705
 30
33.89134168624878
 70
   192
  0
VERTEX
  5
389
  8
METAL
 10
-10.08243751525879
 20
-22.13214349746705
 30
33.89134168624878
 70
   192
  0
VERTEX
  5
38A
  8
METAL
 10
-11.84913635253906
 20
-22.678959608078
 30
-37.5
 70
   192
  0
VERTEX
  5
38B
  8
METAL
 10
-11.84913635253906
 20
-22.678959608078
 30
-37.5
 70
   192
  0
VERTEX
  5
38C
  8
METAL
 10
-11.84913635253906
 20
-22.678959608078
 30
-37.5
 70
   192
  0
VERTEX
  5
38D
  8
METAL
 10
-11.84913825988769
 20
-22.67895960807801
 30
36.81287336349486
 70
   192
  0
VERTEX
  5
38E
  8
METAL
 10
-11.84913825988769
 20
-22.67895960807801
 30
36.81287336349486
 70
   192
  0
VERTEX
  5
38F
  8
METAL
 10
-11.84913825988769
 20
-22.67895960807801
 30
36.81287336349486
 70
   192
  0
VERTEX
  5
390
  8
METAL
 10
-11.85263061523437
 20
-24.95002654194833
 30
36.22250699996947
 70
   192
  0
VERTEX
  5
391
  8
METAL
 10
-11.85263061523437
 20
-24.95002654194833
 30
36.22250699996947
 70
   192
  0
VERTEX
  5
392
  8
METAL
 10
-11.85263061523437
 20
-24.95002654194833
 30
36.22250699996947
 70
   192
  0
VERTEX
  5
393
  8
METAL
 10
-11.85263061523437
 20
-24.95002654194831
 30
-36.90963411331177
 70
   192
  0
VERTEX
  5
394
  8
METAL
 10
-11.85263061523437
 20
-24.95002654194831
 30
-36.90963411331177
 70
   192
  0
VERTEX
  5
395
  8
METAL
 10
-11.85263061523437
 20
-24.95002654194831
 30
-36.90963411331177
 70
   192
  0
VERTEX
  5
396
  8
METAL
 10
-11.8582534790039
 20
-24.80387753248216
 30
36.66528272628784
 70
   192
  0
VERTEX
  5
397
  8
METAL
 10
-11.8582534790039
 20
-24.80387753248216
 30
36.66528272628784
 70
   192
  0
VERTEX
  5
398
  8
METAL
 10
-11.8582534790039
 20
-24.80387753248216
 30
36.66528272628784
 70
   192
  0
VERTEX
  5
399
  8
METAL
 10
-11.8582534790039
 20
-24.80387753248216
 30
36.66528272628784
 70
   192
  0
VERTEX
  5
39A
  8
METAL
 10
-11.8582534790039
 20
-24.80387753248214
 30
-37.35241031646729
 70
   192
  0
VERTEX
  5
39B
  8
METAL
 10
-11.8582534790039
 20
-24.80387753248214
 30
-37.35241031646729
 70
   192
  0
VERTEX
  5
39C
  8
METAL
 10
-11.8582534790039
 20
-24.80387753248214
 30
-37.35241031646729
 70
   192
  0
VERTEX
  5
39D
  8
METAL
 10
-11.8582534790039
 20
-24.80387753248214
 30
-37.35241031646729
 70
   192
  0
VERTEX
  5
39E
  8
METAL
 10
-11.85912322998047
 20
-24.36542254686357
 30
36.81287336349486
 70
   192
  0
VERTEX
  5
39F
  8
METAL
 10
-11.85912322998047
 20
-24.36542254686357
 30
36.81287336349486
 70
   192
  0
VERTEX
  5
3A0
  8
METAL
 10
-11.85912322998047
 20
-24.36542254686357
 30
36.81287336349486
 70
   192
  0
VERTEX
  5
3A1
  8
METAL
 10
-11.85912322998047
 20
-24.36542254686355
 30
-37.5
 70
   192
  0
VERTEX
  5
3A2
  8
METAL
 10
-11.85912322998047
 20
-24.36542254686355
 30
-37.5
 70
   192
  0
VERTEX
  5
3A3
  8
METAL
 10
-11.85912322998047
 20
-24.36542254686355
 30
-37.5
 70
   192
  0
VERTEX
  5
3A4
  8
METAL
 10
-11.86418151855469
 20
-24.95002654194833
 30
35.93830442428587
 70
   192
  0
VERTEX
  5
3A5
  8
METAL
 10
-11.86418151855469
 20
-24.95002654194831
 30
-36.62543106079102
 70
   192
  0
VERTEX
  5
3A6
  8
METAL
 10
-11.8680305480957
 20
-24.95002654194833
 30
35.08568906784056
 70
   192
  0
VERTEX
  5
3A7
  8
METAL
 10
-11.8680305480957
 20
-24.95002654194833
 30
34.14928007125853
 70
   192
  0
VERTEX
  5
3A8
  8
METAL
 10
-11.8680305480957
 20
-24.95002654194832
 30
-0.3435635566711568
 70
   192
  0
VERTEX
  5
3A9
  8
METAL
 10
-11.8680305480957
 20
-24.95002654194831
 30
-34.83640718460083
 70
   192
  0
VERTEX
  5
3AA
  8
METAL
 10
-11.8680305480957
 20
-24.95002654194831
 30
-35.77281618118286
 70
   192
  0
VERTEX
  5
3AB
  8
METAL
 10
-11.8782844543457
 20
-22.26884746551515
 30
36.67616987228394
 70
   192
  0
VERTEX
  5
3AC
  8
METAL
 10
-11.8782844543457
 20
-22.26884746551515
 30
36.67616987228394
 70
   192
  0
VERTEX
  5
3AD
  8
METAL
 10
-11.8782844543457
 20
-22.26884746551515
 30
36.67616987228394
 70
   192
  0
VERTEX
  5
3AE
  8
METAL
 10
-11.8782844543457
 20
-22.26884746551515
 30
36.67616987228394
 70
   192
  0
VERTEX
  5
3AF
  8
METAL
 10
-11.8782844543457
 20
-22.26884746551513
 30
-37.36329698562622
 70
   192
  0
VERTEX
  5
3B0
  8
METAL
 10
-11.8782844543457
 20
-22.26884746551513
 30
-37.36329698562622
 70
   192
  0
VERTEX
  5
3B1
  8
METAL
 10
-11.8782844543457
 20
-22.26884746551513
 30
-37.36329698562622
 70
   192
  0
VERTEX
  5
3B2
  8
METAL
 10
-11.8782844543457
 20
-22.26884746551513
 30
-37.36329698562622
 70
   192
  0
VERTEX
  5
3B3
  8
METAL
 10
-11.88800048828125
 20
-22.13214349746705
 30
36.26605939865112
 70
   192
  0
VERTEX
  5
3B4
  8
METAL
 10
-11.88800048828125
 20
-22.13214349746705
 30
36.26605939865112
 70
   192
  0
VERTEX
  5
3B5
  8
METAL
 10
-11.88800048828125
 20
-22.13214349746705
 30
36.26605939865112
 70
   192
  0
VERTEX
  5
3B6
  8
METAL
 10
-11.88800048828125
 20
-22.13214349746705
 30
36.26605939865112
 70
   192
  0
VERTEX
  5
3B7
  8
METAL
 10
-11.88800048828125
 20
-22.13214349746705
 30
34.14928007125854
 70
   192
  0
VERTEX
  5
3B8
  8
METAL
 10
-11.88800048828125
 20
-22.13214349746705
 30
34.14928007125854
 70
   192
  0
VERTEX
  5
3B9
  8
METAL
 10
-11.88800048828125
 20
-22.13214349746705
 30
34.14928007125854
 70
   192
  0
VERTEX
  5
3BA
  8
METAL
 10
-11.88800048828125
 20
-22.13214349746704
 30
-34.83640718460083
 70
   192
  0
VERTEX
  5
3BB
  8
METAL
 10
-11.88800048828125
 20
-22.13214349746704
 30
-34.83640718460083
 70
   192
  0
VERTEX
  5
3BC
  8
METAL
 10
-11.88800048828125
 20
-22.13214349746704
 30
-34.83640718460083
 70
   192
  0
VERTEX
  5
3BD
  8
METAL
 10
-11.88800048828125
 20
-22.13214349746704
 30
-36.95318412780762
 70
   192
  0
VERTEX
  5
3BE
  8
METAL
 10
-11.88800048828125
 20
-22.13214349746704
 30
-36.95318412780762
 70
   192
  0
VERTEX
  5
3BF
  8
METAL
 10
-11.88800048828125
 20
-22.13214349746704
 30
-36.95318412780762
 70
   192
  0
VERTEX
  5
3C0
  8
METAL
 10
-11.88800048828125
 20
-22.13214349746704
 30
-36.95318412780762
 70
   192
  0
VERTEX
  5
3C1
  8
METAL
 10
-35.77281951904297
 20
-24.95002654194833
 30
36.22250699996947
 70
   192
  0
VERTEX
  5
3C2
  8
METAL
 10
-35.77281951904297
 20
-24.95002654194833
 30
36.22250699996947
 70
   192
  0
VERTEX
  5
3C3
  8
METAL
 10
-35.77281951904297
 20
-24.95002654194833
 30
36.22250699996947
 70
   192
  0
VERTEX
  5
3C4
  8
METAL
 10
-35.77281951904297
 20
-24.95002654194831
 30
-36.90963411331177
 70
   192
  0
VERTEX
  5
3C5
  8
METAL
 10
-35.77281951904297
 20
-24.95002654194831
 30
-36.90963411331177
 70
   192
  0
VERTEX
  5
3C6
  8
METAL
 10
-35.77281951904297
 20
-24.95002654194831
 30
-36.90963411331177
 70
   192
  0
VERTEX
  5
3C7
  8
METAL
 10
-36.21559143066406
 20
-24.80268251895904
 30
-37.35241031646729
 70
   192
  0
VERTEX
  5
3C8
  8
METAL
 10
-36.21559143066406
 20
-24.80268251895904
 30
-37.35241031646729
 70
   192
  0
VERTEX
  5
3C9
  8
METAL
 10
-36.21559143066406
 20
-24.80268251895904
 30
-37.35241031646729
 70
   192
  0
VERTEX
  5
3CA
  8
METAL
 10
-36.21559143066406
 20
-24.80268251895904
 30
-37.35241031646729
 70
   192
  0
VERTEX
  5
3CB
  8
METAL
 10
-36.21559524536133
 20
-24.80268251895906
 30
36.66528272628784
 70
   192
  0
VERTEX
  5
3CC
  8
METAL
 10
-36.21559524536133
 20
-24.80268251895906
 30
36.66528272628784
 70
   192
  0
VERTEX
  5
3CD
  8
METAL
 10
-36.21559524536133
 20
-24.80268251895906
 30
36.66528272628784
 70
   192
  0
VERTEX
  5
3CE
  8
METAL
 10
-36.21559524536133
 20
-24.80268251895906
 30
36.66528272628784
 70
   192
  0
VERTEX
  5
3CF
  8
METAL
 10
-36.27444839477539
 20
-22.13214349746705
 30
36.26605939865112
 70
   192
  0
VERTEX
  5
3D0
  8
METAL
 10
-36.27444839477539
 20
-22.13214349746705
 30
36.26605939865112
 70
   192
  0
VERTEX
  5
3D1
  8
METAL
 10
-36.27444839477539
 20
-22.13214349746705
 30
36.26605939865112
 70
   192
  0
VERTEX
  5
3D2
  8
METAL
 10
-36.27444839477539
 20
-22.13214349746704
 30
-36.95318412780762
 70
   192
  0
VERTEX
  5
3D3
  8
METAL
 10
-36.27444839477539
 20
-22.13214349746704
 30
-36.95318412780762
 70
   192
  0
VERTEX
  5
3D4
  8
METAL
 10
-36.27444839477539
 20
-22.13214349746704
 30
-36.95318412780762
 70
   192
  0
VERTEX
  5
3D5
  8
METAL
 10
-36.34099960327148
 20
-22.26884746551515
 30
36.67616987228394
 70
   192
  0
VERTEX
  5
3D6
  8
METAL
 10
-36.34099960327148
 20
-22.26884746551515
 30
36.67616987228394
 70
   192
  0
VERTEX
  5
3D7
  8
METAL
 10
-36.34099960327148
 20
-22.26884746551515
 30
36.67616987228394
 70
   192
  0
VERTEX
  5
3D8
  8
METAL
 10
-36.34099960327148
 20
-22.26884746551515
 30
36.67616987228394
 70
   192
  0
VERTEX
  5
3D9
  8
METAL
 10
-36.34099960327148
 20
-22.26884746551513
 30
-37.36329698562622
 70
   192
  0
VERTEX
  5
3DA
  8
METAL
 10
-36.34099960327148
 20
-22.26884746551513
 30
-37.36329698562622
 70
   192
  0
VERTEX
  5
3DB
  8
METAL
 10
-36.34099960327148
 20
-22.26884746551513
 30
-37.36329698562622
 70
   192
  0
VERTEX
  5
3DC
  8
METAL
 10
-36.34099960327148
 20
-22.26884746551513
 30
-37.36329698562622
 70
   192
  0
VERTEX
  5
3DD
  8
METAL
 10
-36.36318206787109
 20
-24.36063152551651
 30
-37.5
 70
   192
  0
VERTEX
  5
3DE
  8
METAL
 10
-36.36318206787109
 20
-24.36063152551651
 30
-37.5
 70
   192
  0
VERTEX
  5
3DF
  8
METAL
 10
-36.36318206787109
 20
-24.36063152551651
 30
-37.5
 70
   192
  0
VERTEX
  5
3E0
  8
METAL
 10
-36.36318206787109
 20
-22.678959608078
 30
-37.5
 70
   192
  0
VERTEX
  5
3E1
  8
METAL
 10
-36.36318206787109
 20
-22.678959608078
 30
-37.5
 70
   192
  0
VERTEX
  5
3E2
  8
METAL
 10
-36.36318206787109
 20
-22.678959608078
 30
-37.5
 70
   192
  0
VERTEX
  5
3E3
  8
METAL
 10
-36.36318588256836
 20
-24.36063152551652
 30
36.81287336349486
 70
   192
  0
VERTEX
  5
3E4
  8
METAL
 10
-36.36318588256836
 20
-24.36063152551652
 30
36.81287336349486
 70
   192
  0
VERTEX
  5
3E5
  8
METAL
 10
-36.36318588256836
 20
-24.36063152551652
 30
36.81287336349486
 70
   192
  0
VERTEX
  5
3E6
  8
METAL
 10
-36.36318588256836
 20
-22.67895960807801
 30
36.81287336349486
 70
   192
  0
VERTEX
  5
3E7
  8
METAL
 10
-36.36318588256836
 20
-22.67895960807801
 30
36.81287336349486
 70
   192
  0
VERTEX
  5
3E8
  8
METAL
 10
-36.36318588256836
 20
-22.67895960807801
 30
36.81287336349486
 70
   192
  0
VERTEX
  5
3E9
  8
METAL
 10
-36.62542724609375
 20
-24.95002654194831
 30
-36.62542915344238
 70
   192
  0
VERTEX
  5
3EA
  8
METAL
 10
-36.62542724609375
 20
-24.95002654194831
 30
-36.62542915344238
 70
   192
  0
VERTEX
  5
3EB
  8
METAL
 10
-36.62542724609375
 20
-24.95002654194831
 30
-36.62542915344238
 70
   192
  0
VERTEX
  5
3EC
  8
METAL
 10
-36.62543106079102
 20
-24.95002654194833
 30
35.93830060958861
 70
   192
  0
VERTEX
  5
3ED
  8
METAL
 10
-36.62543106079102
 20
-24.95002654194833
 30
35.93830060958861
 70
   192
  0
VERTEX
  5
3EE
  8
METAL
 10
-36.62543106079102
 20
-24.95002654194833
 30
35.93830060958861
 70
   192
  0
VERTEX
  5
3EF
  8
METAL
 10
-36.78350067138672
 20
-22.13214349746705
 30
36.09637403488159
 70
   192
  0
VERTEX
  5
3F0
  8
METAL
 10
-36.78350067138672
 20
-22.13214349746705
 30
36.09637403488159
 70
   192
  0
VERTEX
  5
3F1
  8
METAL
 10
-36.78350067138672
 20
-22.13214349746705
 30
36.09637403488159
 70
   192
  0
VERTEX
  5
3F2
  8
METAL
 10
-36.78350067138672
 20
-22.13214349746704
 30
-36.78349924087524
 70
   192
  0
VERTEX
  5
3F3
  8
METAL
 10
-36.78350067138672
 20
-22.13214349746704
 30
-36.78349924087524
 70
   192
  0
VERTEX
  5
3F4
  8
METAL
 10
-36.78350067138672
 20
-22.13214349746704
 30
-36.78349924087524
 70
   192
  0
VERTEX
  5
3F5
  8
METAL
 10
-36.90963363647461
 20
-24.95002654194833
 30
35.08569288253784
 70
   192
  0
VERTEX
  5
3F6
  8
METAL
 10
-36.90963363647461
 20
-24.95002654194833
 30
35.08569288253784
 70
   192
  0
VERTEX
  5
3F7
  8
METAL
 10
-36.90963363647461
 20
-24.95002654194833
 30
35.08569288253784
 70
   192
  0
VERTEX
  5
3F8
  8
METAL
 10
-36.90963363647461
 20
-24.95002654194833
 30
34.14928007125853
 70
   192
  0
VERTEX
  5
3F9
  8
METAL
 10
-36.90963363647461
 20
-24.95002654194833
 30
34.14928007125853
 70
   192
  0
VERTEX
  5
3FA
  8
METAL
 10
-36.90963363647461
 20
-24.95002654194833
 30
34.14928007125853
 70
   192
  0
VERTEX
  5
3FB
  8
METAL
 10
-36.90963363647461
 20
-24.95002654194832
 30
-0.3435635566711568
 70
   192
  0
VERTEX
  5
3FC
  8
METAL
 10
-36.90963363647461
 20
-24.95002654194832
 30
-0.3435635566711568
 70
   192
  0
VERTEX
  5
3FD
  8
METAL
 10
-36.90963363647461
 20
-24.95002654194831
 30
-34.83640718460083
 70
   192
  0
VERTEX
  5
3FE
  8
METAL
 10
-36.90963363647461
 20
-24.95002654194831
 30
-34.83640718460083
 70
   192
  0
VERTEX
  5
3FF
  8
METAL
 10
-36.90963363647461
 20
-24.95002654194831
 30
-34.83640718460083
 70
   192
  0
VERTEX
  5
400
  8
METAL
 10
-36.90963363647461
 20
-24.95002654194831
 30
-35.77281808853149
 70
   192
  0
VERTEX
  5
401
  8
METAL
 10
-36.90963363647461
 20
-24.95002654194831
 30
-35.77281808853149
 70
   192
  0
VERTEX
  5
402
  8
METAL
 10
-36.90963363647461
 20
-24.95002654194831
 30
-35.77281808853149
 70
   192
  0
VERTEX
  5
403
  8
METAL
 10
-36.95318603515625
 20
-22.13214349746705
 30
35.58732175827026
 70
   192
  0
VERTEX
  5
404
  8
METAL
 10
-36.95318603515625
 20
-22.13214349746705
 30
35.58732175827026
 70
   192
  0
VERTEX
  5
405
  8
METAL
 10
-36.95318603515625
 20
-22.13214349746705
 30
35.58732175827026
 70
   192
  0
VERTEX
  5
406
  8
METAL
 10
-36.95318603515625
 20
-22.13214349746705
 30
34.14928007125854
 70
   192
  0
VERTEX
  5
407
  8
METAL
 10
-36.95318603515625
 20
-22.13214349746705
 30
34.14928007125854
 70
   192
  0
VERTEX
  5
408
  8
METAL
 10
-36.95318603515625
 20
-22.13214349746705
 30
34.14928007125854
 70
   192
  0
VERTEX
  5
409
  8
METAL
 10
-36.95318603515625
 20
-22.13214349746704
 30
-0.3435635566711568
 70
   192
  0
VERTEX
  5
40A
  8
METAL
 10
-36.95318603515625
 20
-22.13214349746704
 30
-0.3435635566711568
 70
   192
  0
VERTEX
  5
40B
  8
METAL
 10
-36.95318603515625
 20
-22.13214349746704
 30
-0.3435635566711568
 70
   192
  0
VERTEX
  5
40C
  8
METAL
 10
-36.95318603515625
 20
-22.13214349746704
 30
-34.83640718460083
 70
   192
  0
VERTEX
  5
40D
  8
METAL
 10
-36.95318603515625
 20
-22.13214349746704
 30
-34.83640718460083
 70
   192
  0
VERTEX
  5
40E
  8
METAL
 10
-36.95318603515625
 20
-22.13214349746704
 30
-34.83640718460083
 70
   192
  0
VERTEX
  5
40F
  8
METAL
 10
-36.95318603515625
 20
-22.13214349746704
 30
-36.27444934844971
 70
   192
  0
VERTEX
  5
410
  8
METAL
 10
-36.95318603515625
 20
-22.13214349746704
 30
-36.27444934844971
 70
   192
  0
VERTEX
  5
411
  8
METAL
 10
-36.95318603515625
 20
-22.13214349746704
 30
-36.27444934844971
 70
   192
  0
VERTEX
  5
412
  8
METAL
 10
-37.06820678710938
 20
-24.80249652266503
 30
36.38108015060423
 70
   192
  0
VERTEX
  5
413
  8
METAL
 10
-37.06820678710938
 20
-24.80249652266503
 30
36.38108015060423
 70
   192
  0
VERTEX
  5
414
  8
METAL
 10
-37.06820678710938
 20
-24.80249652266503
 30
36.38108015060423
 70
   192
  0
VERTEX
  5
415
  8
METAL
 10
-37.06820678710938
 20
-24.80249652266503
 30
36.38108015060423
 70
   192
  0
VERTEX
  5
416
  8
METAL
 10
-37.06820678710938
 20
-24.80249652266502
 30
-37.0682053565979
 70
   192
  0
VERTEX
  5
417
  8
METAL
 10
-37.06820678710938
 20
-24.80249652266502
 30
-37.0682053565979
 70
   192
  0
VERTEX
  5
418
  8
METAL
 10
-37.06820678710938
 20
-24.80249652266502
 30
-37.0682053565979
 70
   192
  0
VERTEX
  5
419
  8
METAL
 10
-37.06820678710938
 20
-24.80249652266502
 30
-37.0682053565979
 70
   192
  0
VERTEX
  5
41A
  8
METAL
 10
-37.10771942138672
 20
-22.26884746551513
 30
-37.10772228240967
 70
   192
  0
VERTEX
  5
41B
  8
METAL
 10
-37.10771942138672
 20
-22.26884746551513
 30
-37.10772228240967
 70
   192
  0
VERTEX
  5
41C
  8
METAL
 10
-37.10771942138672
 20
-22.26884746551513
 30
-37.10772228240967
 70
   192
  0
VERTEX
  5
41D
  8
METAL
 10
-37.10771942138672
 20
-22.26884746551513
 30
-37.10772228240967
 70
   192
  0
VERTEX
  5
41E
  8
METAL
 10
-37.10772323608398
 20
-22.26884746551515
 30
36.42059278488159
 70
   192
  0
VERTEX
  5
41F
  8
METAL
 10
-37.10772323608398
 20
-22.26884746551515
 30
36.42059278488159
 70
   192
  0
VERTEX
  5
420
  8
METAL
 10
-37.10772323608398
 20
-22.26884746551515
 30
36.42059278488159
 70
   192
  0
VERTEX
  5
421
  8
METAL
 10
-37.10772323608398
 20
-22.26884746551515
 30
36.42059278488159
 70
   192
  0
VERTEX
  5
422
  8
METAL
 10
-37.21579742431641
 20
-24.35990250110627
 30
36.52867078781125
 70
   192
  0
VERTEX
  5
423
  8
METAL
 10
-37.21579742431641
 20
-24.35990250110627
 30
36.52867078781125
 70
   192
  0
VERTEX
  5
424
  8
METAL
 10
-37.21579742431641
 20
-24.35990250110627
 30
36.52867078781125
 70
   192
  0
VERTEX
  5
425
  8
METAL
 10
-37.21579742431641
 20
-22.67895960807801
 30
36.52867078781125
 70
   192
  0
VERTEX
  5
426
  8
METAL
 10
-37.21579742431641
 20
-22.67895960807801
 30
36.52867078781125
 70
   192
  0
VERTEX
  5
427
  8
METAL
 10
-37.21579742431641
 20
-22.67895960807801
 30
36.52867078781125
 70
   192
  0
VERTEX
  5
428
  8
METAL
 10
-37.21579742431641
 20
-24.35990250110626
 30
-37.21579599380493
 70
   192
  0
VERTEX
  5
429
  8
METAL
 10
-37.21579742431641
 20
-24.35990250110626
 30
-37.21579599380493
 70
   192
  0
VERTEX
  5
42A
  8
METAL
 10
-37.21579742431641
 20
-24.35990250110626
 30
-37.21579599380493
 70
   192
  0
VERTEX
  5
42B
  8
METAL
 10
-37.21579742431641
 20
-22.678959608078
 30
-37.21579599380493
 70
   192
  0
VERTEX
  5
42C
  8
METAL
 10
-37.21579742431641
 20
-22.678959608078
 30
-37.21579599380493
 70
   192
  0
VERTEX
  5
42D
  8
METAL
 10
-37.21579742431641
 20
-22.678959608078
 30
-37.21579599380493
 70
   192
  0
VERTEX
  5
42E
  8
METAL
 10
-37.35240936279297
 20
-24.80243453383447
 30
35.52846479415892
 70
   192
  0
VERTEX
  5
42F
  8
METAL
 10
-37.35240936279297
 20
-24.80243453383447
 30
35.52846479415892
 70
   192
  0
VERTEX
  5
430
  8
METAL
 10
-37.35240936279297
 20
-24.80243453383447
 30
35.52846479415892
 70
   192
  0
VERTEX
  5
431
  8
METAL
 10
-37.35240936279297
 20
-24.80243453383447
 30
35.52846479415892
 70
   192
  0
VERTEX
  5
432
  8
METAL
 10
-37.35240936279297
 20
-24.80243453383447
 30
34.14928007125853
 70
   192
  0
VERTEX
  5
433
  8
METAL
 10
-37.35240936279297
 20
-24.80243453383447
 30
34.14928007125853
 70
   192
  0
VERTEX
  5
434
  8
METAL
 10
-37.35240936279297
 20
-24.80243453383447
 30
34.14928007125853
 70
   192
  0
VERTEX
  5
435
  8
METAL
 10
-37.35240936279297
 20
-24.80243453383447
 30
34.14928007125853
 70
   192
  0
VERTEX
  5
436
  8
METAL
 10
-37.35240936279297
 20
-24.80243453383446
 30
-0.3435635566711568
 70
   192
  0
VERTEX
  5
437
  8
METAL
 10
-37.35240936279297
 20
-24.80243453383446
 30
-0.3435635566711568
 70
   192
  0
VERTEX
  5
438
  8
METAL
 10
-37.35240936279297
 20
-24.80243453383445
 30
-34.83640718460083
 70
   192
  0
VERTEX
  5
439
  8
METAL
 10
-37.35240936279297
 20
-24.80243453383445
 30
-34.83640718460083
 70
   192
  0
VERTEX
  5
43A
  8
METAL
 10
-37.35240936279297
 20
-24.80243453383445
 30
-34.83640718460083
 70
   192
  0
VERTEX
  5
43B
  8
METAL
 10
-37.35240936279297
 20
-24.80243453383445
 30
-34.83640718460083
 70
   192
  0
VERTEX
  5
43C
  8
METAL
 10
-37.35240936279297
 20
-24.80243453383445
 30
-36.21559429168701
 70
   192
  0
VERTEX
  5
43D
  8
METAL
 10
-37.35240936279297
 20
-24.80243453383445
 30
-36.21559429168701
 70
   192
  0
VERTEX
  5
43E
  8
METAL
 10
-37.35240936279297
 20
-24.80243453383445
 30
-36.21559429168701
 70
   192
  0
VERTEX
  5
43F
  8
METAL
 10
-37.35240936279297
 20
-24.80243453383445
 30
-36.21559429168701
 70
   192
  0
VERTEX
  5
440
  8
METAL
 10
-37.36329650878906
 20
-22.26884746551515
 30
35.65387296676636
 70
   192
  0
VERTEX
  5
441
  8
METAL
 10
-37.36329650878906
 20
-22.26884746551515
 30
35.65387296676636
 70
   192
  0
VERTEX
  5
442
  8
METAL
 10
-37.36329650878906
 20
-22.26884746551515
 30
35.65387296676636
 70
   192
  0
VERTEX
  5
443
  8
METAL
 10
-37.36329650878906
 20
-22.26884746551515
 30
35.65387296676636
 70
   192
  0
VERTEX
  5
444
  8
METAL
 10
-37.36329650878906
 20
-22.26884746551515
 30
34.14928007125854
 70
   192
  0
VERTEX
  5
445
  8
METAL
 10
-37.36329650878906
 20
-22.26884746551515
 30
34.14928007125854
 70
   192
  0
VERTEX
  5
446
  8
METAL
 10
-37.36329650878906
 20
-22.26884746551515
 30
34.14928007125854
 70
   192
  0
VERTEX
  5
447
  8
METAL
 10
-37.36329650878906
 20
-22.26884746551515
 30
34.14928007125854
 70
   192
  0
VERTEX
  5
448
  8
METAL
 10
-37.36329650878906
 20
-22.26884746551514
 30
-0.3435635566711568
 70
   192
  0
VERTEX
  5
449
  8
METAL
 10
-37.36329650878906
 20
-22.26884746551514
 30
-0.3435635566711568
 70
   192
  0
VERTEX
  5
44A
  8
METAL
 10
-37.36329650878906
 20
-22.26884746551514
 30
-0.3435635566711568
 70
   192
  0
VERTEX
  5
44B
  8
METAL
 10
-37.36329650878906
 20
-22.26884746551513
 30
-34.83640718460083
 70
   192
  0
VERTEX
  5
44C
  8
METAL
 10
-37.36329650878906
 20
-22.26884746551513
 30
-34.83640718460083
 70
   192
  0
VERTEX
  5
44D
  8
METAL
 10
-37.36329650878906
 20
-22.26884746551513
 30
-34.83640718460083
 70
   192
  0
VERTEX
  5
44E
  8
METAL
 10
-37.36329650878906
 20
-22.26884746551513
 30
-34.83640718460083
 70
   192
  0
VERTEX
  5
44F
  8
METAL
 10
-37.36329650878906
 20
-22.26884746551513
 30
-36.34100008010864
 70
   192
  0
VERTEX
  5
450
  8
METAL
 10
-37.36329650878906
 20
-22.26884746551513
 30
-36.34100008010864
 70
   192
  0
VERTEX
  5
451
  8
METAL
 10
-37.36329650878906
 20
-22.26884746551513
 30
-36.34100008010864
 70
   192
  0
VERTEX
  5
452
  8
METAL
 10
-37.36329650878906
 20
-22.26884746551513
 30
-36.34100008010864
 70
   192
  0
VERTEX
  5
453
  8
METAL
 10
-37.5
 20
-24.35965955257417
 30
35.67605543136595
 70
   192
  0
VERTEX
  5
454
  8
METAL
 10
-37.5
 20
-24.35965955257417
 30
35.67605543136595
 70
   192
  0
VERTEX
  5
455
  8
METAL
 10
-37.5
 20
-24.35965955257417
 30
35.67605543136595
 70
   192
  0
VERTEX
  5
456
  8
METAL
 10
-37.5
 20
-22.67895960807801
 30
35.67605543136595
 70
   192
  0
VERTEX
  5
457
  8
METAL
 10
-37.5
 20
-22.67895960807801
 30
35.67605543136595
 70
   192
  0
VERTEX
  5
458
  8
METAL
 10
-37.5
 20
-22.67895960807801
 30
35.67605543136595
 70
   192
  0
VERTEX
  5
459
  8
METAL
 10
-37.5
 20
-24.35965955257417
 30
34.14928007125853
 70
   192
  0
VERTEX
  5
45A
  8
METAL
 10
-37.5
 20
-24.35965955257417
 30
34.14928007125853
 70
   192
  0
VERTEX
  5
45B
  8
METAL
 10
-37.5
 20
-22.67895960807801
 30
34.14928007125853
 70
   192
  0
VERTEX
  5
45C
  8
METAL
 10
-37.5
 20
-22.67895960807801
 30
34.14928007125853
 70
   192
  0
VERTEX
  5
45D
  8
METAL
 10
-37.5
 20
-24.35965955257416
 30
-0.3435635566711568
 70
   192
  0
VERTEX
  5
45E
  8
METAL
 10
-37.5
 20
-24.35965955257416
 30
-0.3435635566711568
 70
   192
  0
VERTEX
  5
45F
  8
METAL
 10
-37.5
 20
-22.67895960807801
 30
-0.3435635566711568
 70
   192
  0
VERTEX
  5
460
  8
METAL
 10
-37.5
 20
-22.67895960807801
 30
-0.3435635566711568
 70
   192
  0
VERTEX
  5
461
  8
METAL
 10
-37.5
 20
-24.35965955257415
 30
-34.83640718460083
 70
   192
  0
VERTEX
  5
462
  8
METAL
 10
-37.5
 20
-24.35965955257415
 30
-34.83640718460083
 70
   192
  0
VERTEX
  5
463
  8
METAL
 10
-37.5
 20
-22.678959608078
 30
-34.83640718460083
 70
   192
  0
VERTEX
  5
464
  8
METAL
 10
-37.5
 20
-22.678959608078
 30
-34.83640718460083
 70
   192
  0
VERTEX
  5
465
  8
METAL
 10
-37.5
 20
-24.35965955257415
 30
-36.36318397521973
 70
   192
  0
VERTEX
  5
466
  8
METAL
 10
-37.5
 20
-24.35965955257415
 30
-36.36318397521973
 70
   192
  0
VERTEX
  5
467
  8
METAL
 10
-37.5
 20
-24.35965955257415
 30
-36.36318397521973
 70
   192
  0
VERTEX
  5
468
  8
METAL
 10
-37.5
 20
-22.678959608078
 30
-36.36318397521973
 70
   192
  0
VERTEX
  5
469
  8
METAL
 10
-37.5
 20
-22.678959608078
 30
-36.36318397521973
 70
   192
  0
VERTEX
  5
46A
  8
METAL
 10
-37.5
 20
-22.678959608078
 30
-36.36318397521973
 70
   192
  0
VERTEX
  5
46B
  8
METAL
 10
0.0
 20
0.0
 30
0.0
 70
   128
 71
   347
 72
   399
 73
   270
 74
   175
  0
VERTEX
  5
46C
  8
METAL
 10
0.0
 20
0.0
 30
0.0
 70
   128
 71
   270
 72
   234
 73
   175
 74
   175
  0
VERTEX
  5
46D
  8
METAL
 10
0.0
 20
0.0
 30
0.0
 70
   128
 71
    96
 72
   347
 73
   175
 74
    94
  0
VERTEX
  5
46E
  8
METAL
 10
0.0
 20
0.0
 30
0.0
 70
   128
 71
   125
 72
   196
 73
   191
 74
   105
  0
VERTEX
  5
46F
  8
METAL
 10
0.0
 20
0.0
 30
0.0
 70
   128
 71
   175
 72
   172
 73
   151
 74
    94
  0
VERTEX
  5
470
  8
METAL
 10
0.0
 20
0.0
 30
0.0
 70
   128
 71
    94
 72
   151
 73
   119
 74
    91
  0
VERTEX
  5
471
  8
METAL
 10
0.0
 20
0.0
 30
0.0
 70
   128
 71
     9
 72
     4
 73
     1
 74
     7
  0
VERTEX
  5
472
  8
METAL
 10
0.0
 20
0.0
 30
0.0
 70
   128
 71
   340
 72
   343
 73
   337
 74
   333
  0
VERTEX
  5
473
  8
METAL
 10
0.0
 20
0.0
 30
0.0
 70
   128
 71
   271
 72
   424
 73
   420
 74
   267
  0
VERTEX
  5
474
  8
METAL
 10
0.0
 20
0.0
 30
0.0
 70
   128
 71
   230
 72
   226
 73
   169
 74
   173
  0
VERTEX
  5
475
  8
METAL
 10
0.0
 20
0.0
 30
0.0
 70
   128
 71
   304
 72
   398
 73
   342
 74
   342
  0
VERTEX
  5
476
  8
METAL
 10
0.0
 20
0.0
 30
0.0
 70
   128
 71
   433
 72
   436
 73
   446
 74
   446
  0
VERTEX
  5
477
  8
METAL
 10
0.0
 20
0.0
 30
0.0
 70
   128
 71
   233
 72
   231
 73
   174
 74
   174
  0
VERTEX
  5
478
  8
METAL
 10
0.0
 20
0.0
 30
0.0
 70
   128
 71
   398
 72
   304
 73
   268
 74
   421
  0
VERTEX
  5
479
  8
METAL
 10
0.0
 20
0.0
 30
0.0
 70
   128
 71
   437
 72
   434
 73
   422
 74
   425
  0
VERTEX
  5
47A
  8
METAL
 10
0.0
 20
0.0
 30
0.0
 70
   128
 71
   423
 72
   270
 73
   399
 74
   399
  0
VERTEX
  5
47B
  8
METAL
 10
0.0
 20
0.0
 30
0.0
 70
   128
 71
   229
 72
   232
 73
   269
 74
   266
  0
VERTEX
  5
47C
  8
METAL
 10
0.0
 20
0.0
 30
0.0
 70
   128
 71
   265
 72
   262
 73
   224
 74
   228
  0
VERTEX
  5
47D
  8
METAL
 10
0.0
 20
0.0
 30
0.0
 70
   128
 71
   303
 72
   300
 73
   260
 74
   264
  0
VERTEX
  5
47E
  8
METAL
 10
0.0
 20
0.0
 30
0.0
 70
   128
 71
   341
 72
   334
 73
   298
 74
   302
  0
VERTEX
  5
47F
  8
METAL
 10
0.0
 20
0.0
 30
0.0
 70
   128
 71
   470
 72
   354
 73
   352
 74
   469
  0
VERTEX
  5
480
  8
METAL
 10
0.0
 20
0.0
 30
0.0
 70
   128
 71
    49
 72
    45
 73
   103
 74
   106
  0
VERTEX
  5
481
  8
METAL
 10
0.0
 20
0.0
 30
0.0
 70
   128
 71
   379
 72
   453
 73
   464
 74
   369
  0
VERTEX
  5
482
  8
METAL
 10
0.0
 20
0.0
 30
0.0
 70
   128
 71
   212
 72
   205
 73
   367
 74
   348
  0
VERTEX
  5
483
  8
METAL
 10
0.0
 20
0.0
 30
0.0
 70
   128
 71
    50
 72
   107
 73
   109
 74
    52
  0
VERTEX
  5
484
  8
METAL
 10
0.0
 20
0.0
 30
0.0
 70
   128
 71
     8
 72
     2
 73
    43
 74
    47
  0
VERTEX
  5
485
  8
METAL
 10
0.0
 20
0.0
 30
0.0
 70
   128
 71
   351
 72
   368
 73
   463
 74
   468
  0
VERTEX
  5
486
  8
METAL
 10
0.0
 20
0.0
 30
0.0
 70
   128
 71
   366
 72
   204
 73
   198
 74
   377
  0
VERTEX
  5
487
  8
METAL
 10
0.0
 20
0.0
 30
0.0
 70
   128
 71
     8
 72
    48
 73
    51
 74
    12
  0
VERTEX
  5
488
  8
METAL
 10
0.0
 20
0.0
 30
0.0
 70
   128
 71
    62
 72
    65
 73
   133
 74
   130
  0
VERTEX
  5
489
  8
METAL
 10
0.0
 20
0.0
 30
0.0
 70
   128
 71
    83
 72
   123
 73
   104
 74
    46
  0
VERTEX
  5
48A
  8
METAL
 10
0.0
 20
0.0
 30
0.0
 70
   128
 71
    61
 72
    81
 73
    44
 74
     3
  0
VERTEX
  5
48B
  8
METAL
 10
0.0
 20
0.0
 30
0.0
 70
   128
 71
     1
 72
     4
 73
    65
 74
    62
  0
VERTEX
  5
48C
  8
METAL
 10
0.0
 20
0.0
 30
0.0
 70
   128
 71
   156
 72
   163
 73
   124
 74
    84
  0
VERTEX
  5
48D
  8
METAL
 10
0.0
 20
0.0
 30
0.0
 70
   128
 71
   129
 72
   155
 73
    82
 74
    63
  0
VERTEX
  5
48E
  8
METAL
 10
0.0
 20
0.0
 30
0.0
 70
   128
 71
   186
 72
   144
 73
   150
 74
   171
  0
VERTEX
  5
48F
  8
METAL
 10
0.0
 20
0.0
 30
0.0
 70
   128
 71
    27
 72
    32
 73
    93
 74
    89
  0
VERTEX
  5
490
  8
METAL
 10
0.0
 20
0.0
 30
0.0
 70
   128
 71
   384
 72
   380
 73
   335
 74
   338
  0
VERTEX
  5
491
  8
METAL
 10
0.0
 20
0.0
 30
0.0
 70
   128
 71
   314
 72
   383
 73
   409
 74
   402
  0
VERTEX
  5
492
  8
METAL
 10
0.0
 20
0.0
 30
0.0
 70
   128
 71
   184
 72
   249
 73
   255
 74
   218
  0
VERTEX
  5
493
  8
METAL
 10
0.0
 20
0.0
 30
0.0
 70
   128
 71
   247
 72
   287
 73
   293
 74
   254
  0
VERTEX
  5
494
  8
METAL
 10
0.0
 20
0.0
 30
0.0
 70
   128
 71
   286
 72
   315
 73
   403
 74
   292
  0
VERTEX
  5
495
  8
METAL
 10
0.0
 20
0.0
 30
0.0
 70
   128
 71
    74
 72
   141
 73
   132
 74
    66
  0
VERTEX
  5
496
  8
METAL
 10
0.0
 20
0.0
 30
0.0
 70
   128
 71
    26
 72
    73
 73
    64
 74
     6
  0
VERTEX
  5
497
  8
METAL
 10
0.0
 20
0.0
 30
0.0
 70
   128
 71
   220
 72
   134
 73
   143
 74
   185
  0
VERTEX
  5
498
  8
METAL
 10
0.0
 20
0.0
 30
0.0
 70
   128
 71
     5
 72
    10
 73
    30
 74
    25
  0
VERTEX
  5
499
  8
METAL
 10
0.0
 20
0.0
 30
0.0
 70
   128
 71
   411
 72
   408
 73
   382
 74
   385
  0
VERTEX
  5
49A
  8
METAL
 10
0.0
 20
0.0
 30
0.0
 70
   128
 71
   299
 72
   336
 73
   381
 74
   312
  0
VERTEX
  5
49B
  8
METAL
 10
0.0
 20
0.0
 30
0.0
 70
   128
 71
   170
 72
   227
 73
   248
 74
   183
  0
VERTEX
  5
49C
  8
METAL
 10
0.0
 20
0.0
 30
0.0
 70
   128
 71
   225
 72
   263
 73
   285
 74
   246
  0
VERTEX
  5
49D
  8
METAL
 10
0.0
 20
0.0
 30
0.0
 70
   128
 71
   261
 72
   301
 73
   313
 74
   284
  0
VERTEX
  5
49E
  8
METAL
 10
0.0
 20
0.0
 30
0.0
 70
   128
 71
   118
 72
   149
 73
   142
 74
    76
  0
VERTEX
  5
49F
  8
METAL
 10
0.0
 20
0.0
 30
0.0
 70
   128
 71
    90
 72
   117
 73
    75
 74
    28
  0
VERTEX
  5
4A0
  8
METAL
 10
0.0
 20
0.0
 30
0.0
 70
   128
 71
   356
 72
   471
 73
   476
 74
   346
  0
VERTEX
  5
4A1
  8
METAL
 10
0.0
 20
0.0
 30
0.0
 70
   128
 71
   475
 72
   345
 73
   342
 74
   445
  0
VERTEX
  5
4A2
  8
METAL
 10
0.0
 20
0.0
 30
0.0
 70
   128
 71
   342
 72
   398
 73
   421
 74
   445
  0
VERTEX
  5
4A3
  8
METAL
 10
0.0
 20
0.0
 30
0.0
 70
   128
 71
   421
 72
   432
 73
   445
 74
   445
  0
VERTEX
  5
4A4
  8
METAL
 10
0.0
 20
0.0
 30
0.0
 70
   128
 71
   473
 72
   475
 73
   445
 74
   445
  0
VERTEX
  5
4A5
  8
METAL
 10
0.0
 20
0.0
 30
0.0
 70
   128
 71
   456
 72
   404
 73
   410
 74
   457
  0
VERTEX
  5
4A6
  8
METAL
 10
0.0
 20
0.0
 30
0.0
 70
   128
 71
     7
 72
    11
 73
    13
 74
     9
  0
VERTEX
  5
4A7
  8
METAL
 10
0.0
 20
0.0
 30
0.0
 70
   128
 71
   193
 72
   192
 73
   356
 74
   346
  0
VERTEX
  5
4A8
  8
METAL
 10
0.0
 20
0.0
 30
0.0
 70
   128
 71
   477
 72
   472
 73
   444
 74
   347
  0
VERTEX
  5
4A9
  8
METAL
 10
0.0
 20
0.0
 30
0.0
 70
   128
 71
   444
 72
   435
 73
   423
 74
   347
  0
VERTEX
  5
4AA
  8
METAL
 10
0.0
 20
0.0
 30
0.0
 70
   128
 71
   347
 72
   423
 73
   399
 74
   399
  0
VERTEX
  5
4AB
  8
METAL
 10
0.0
 20
0.0
 30
0.0
 70
   128
 71
    31
 72
    34
 73
    95
 74
    92
  0
VERTEX
  5
4AC
  8
METAL
 10
0.0
 20
0.0
 30
0.0
 70
   128
 71
    10
 72
    14
 73
    33
 74
    29
  0
VERTEX
  5
4AD
  8
METAL
 10
0.0
 20
0.0
 30
0.0
 70
   128
 71
   471
 72
   356
 73
   354
 74
   470
  0
VERTEX
  5
4AE
  8
METAL
 10
0.0
 20
0.0
 30
0.0
 70
   128
 71
   356
 72
   192
 73
   191
 74
   355
  0
VERTEX
  5
4AF
  8
METAL
 10
0.0
 20
0.0
 30
0.0
 70
   128
 71
   165
 72
   214
 73
   196
 74
   125
  0
VERTEX
  5
4B0
  8
METAL
 10
0.0
 20
0.0
 30
0.0
 70
   128
 71
   349
 72
   467
 73
   469
 74
   352
  0
VERTEX
  5
4B1
  8
METAL
 10
0.0
 20
0.0
 30
0.0
 70
   128
 71
   412
 72
   458
 73
   457
 74
   410
  0
VERTEX
  5
4B2
  8
METAL
 10
0.0
 20
0.0
 30
0.0
 70
   128
 71
   452
 72
   378
 73
   394
 74
   454
  0
VERTEX
  5
4B3
  8
METAL
 10
0.0
 20
0.0
 30
0.0
 70
   128
 71
   404
 72
   456
 73
   455
 74
   396
  0
VERTEX
  5
4B4
  8
METAL
 10
0.0
 20
0.0
 30
0.0
 70
   128
 71
   455
 72
   454
 73
   394
 74
   396
  0
VERTEX
  5
4B5
  8
METAL
 10
0.0
 20
0.0
 30
0.0
 70
   128
 71
   200
 72
   219
 73
   256
 74
   394
  0
VERTEX
  5
4B6
  8
METAL
 10
0.0
 20
0.0
 30
0.0
 70
   128
 71
   378
 72
   200
 73
   394
 74
   394
  0
VERTEX
  5
4B7
  8
METAL
 10
0.0
 20
0.0
 30
0.0
 70
   128
 71
   394
 72
   256
 73
   294
 74
   396
  0
VERTEX
  5
4B8
  8
METAL
 10
0.0
 20
0.0
 30
0.0
 70
   128
 71
   396
 72
   294
 73
   404
 74
   404
  0
VERTEX
  5
4B9
  8
METAL
 10
0.0
 20
0.0
 30
0.0
 70
   128
 71
   196
 72
   353
 73
   355
 74
   191
  0
VERTEX
  5
4BA
  8
METAL
 10
0.0
 20
0.0
 30
0.0
 70
   128
 71
   164
 72
   158
 73
   207
 74
   213
  0
VERTEX
  5
4BB
  8
METAL
 10
0.0
 20
0.0
 30
0.0
 70
   128
 71
   157
 72
   131
 73
   199
 74
   206
  0
VERTEX
  5
4BC
  8
METAL
 10
0.0
 20
0.0
 30
0.0
 70
   128
 71
   110
 72
   108
 73
   192
 74
   193
  0
VERTEX
  5
4BD
  8
METAL
 10
0.0
 20
0.0
 30
0.0
 70
   128
 71
   108
 72
   105
 73
   191
 74
   192
  0
VERTEX
  5
4BE
  8
METAL
 10
0.0
 20
0.0
 30
0.0
 70
   128
 71
   214
 72
   350
 73
   353
 74
   196
  0
VERTEX
  5
4BF
  8
METAL
 10
0.0
 20
0.0
 30
0.0
 70
   128
 71
   200
 72
   130
 73
   133
 74
   219
  0
VERTEX
  5
4C0
  8
METAL
 10
0.0
 20
0.0
 30
0.0
 70
   128
 71
   773
 72
   725
 73
   677
 74
   618
  0
VERTEX
  5
4C1
  8
METAL
 10
0.0
 20
0.0
 30
0.0
 70
   128
 71
   677
 72
   551
 73
   618
 74
   618
  0
VERTEX
  5
4C2
  8
METAL
 10
0.0
 20
0.0
 30
0.0
 70
   128
 71
   773
 72
   618
 73
   855
 74
   852
  0
VERTEX
  5
4C3
  8
METAL
 10
0.0
 20
0.0
 30
0.0
 70
   128
 71
   826
 72
   835
 73
   756
 74
   754
  0
VERTEX
  5
4C4
  8
METAL
 10
0.0
 20
0.0
 30
0.0
 70
   128
 71
   852
 72
   849
 73
   829
 74
   798
  0
VERTEX
  5
4C5
  8
METAL
 10
0.0
 20
0.0
 30
0.0
 70
   128
 71
   798
 72
   770
 73
   773
 74
   852
  0
VERTEX
  5
4C6
  8
METAL
 10
0.0
 20
0.0
 30
0.0
 70
   128
 71
   938
 72
   936
 73
   931
 74
   934
  0
VERTEX
  5
4C7
  8
METAL
 10
0.0
 20
0.0
 30
0.0
 70
   128
 71
   613
 72
   600
 73
   603
 74
   616
  0
VERTEX
  5
4C8
  8
METAL
 10
0.0
 20
0.0
 30
0.0
 70
   128
 71
   678
 72
   672
 73
   527
 74
   531
  0
VERTEX
  5
4C9
  8
METAL
 10
0.0
 20
0.0
 30
0.0
 70
   128
 71
   722
 72
   775
 73
   772
 74
   718
  0
VERTEX
  5
4CA
  8
METAL
 10
0.0
 20
0.0
 30
0.0
 70
   128
 71
   651
 72
   611
 73
   550
 74
   550
  0
VERTEX
  5
4CB
  8
METAL
 10
0.0
 20
0.0
 30
0.0
 70
   128
 71
   509
 72
   505
 73
   512
 74
   512
  0
VERTEX
  5
4CC
  8
METAL
 10
0.0
 20
0.0
 30
0.0
 70
   128
 71
   726
 72
   774
 73
   721
 74
   721
  0
VERTEX
  5
4CD
  8
METAL
 10
0.0
 20
0.0
 30
0.0
 70
   128
 71
   550
 72
   528
 73
   673
 74
   651
  0
VERTEX
  5
4CE
  8
METAL
 10
0.0
 20
0.0
 30
0.0
 70
   128
 71
   511
 72
   529
 73
   526
 74
   508
  0
VERTEX
  5
4CF
  8
METAL
 10
0.0
 20
0.0
 30
0.0
 70
   128
 71
   530
 72
   551
 73
   677
 74
   677
  0
VERTEX
  5
4D0
  8
METAL
 10
0.0
 20
0.0
 30
0.0
 70
   128
 71
   723
 72
   674
 73
   679
 74
   727
  0
VERTEX
  5
4D1
  8
METAL
 10
0.0
 20
0.0
 30
0.0
 70
   128
 71
   675
 72
   724
 73
   720
 74
   669
  0
VERTEX
  5
4D2
  8
METAL
 10
0.0
 20
0.0
 30
0.0
 70
   128
 71
   652
 72
   676
 73
   671
 74
   648
  0
VERTEX
  5
4D3
  8
METAL
 10
0.0
 20
0.0
 30
0.0
 70
   128
 71
   612
 72
   653
 73
   650
 74
   599
  0
VERTEX
  5
4D4
  8
METAL
 10
0.0
 20
0.0
 30
0.0
 70
   128
 71
   470
 72
   469
 73
   608
 74
   586
  0
VERTEX
  5
4D5
  8
METAL
 10
0.0
 20
0.0
 30
0.0
 70
   128
 71
   896
 72
   839
 73
   837
 74
   893
  0
VERTEX
  5
4D6
  8
METAL
 10
0.0
 20
0.0
 30
0.0
 70
   128
 71
   572
 72
   582
 73
   461
 74
   451
  0
VERTEX
  5
4D7
  8
METAL
 10
0.0
 20
0.0
 30
0.0
 70
   128
 71
   736
 72
   607
 73
   584
 74
   742
  0
VERTEX
  5
4D8
  8
METAL
 10
0.0
 20
0.0
 30
0.0
 70
   128
 71
   897
 72
   900
 73
   842
 74
   840
  0
VERTEX
  5
4D9
  8
METAL
 10
0.0
 20
0.0
 30
0.0
 70
   128
 71
   935
 72
   898
 73
   895
 74
   930
  0
VERTEX
  5
4DA
  8
METAL
 10
0.0
 20
0.0
 30
0.0
 70
   128
 71
   604
 72
   466
 73
   462
 74
   583
  0
VERTEX
  5
4DB
  8
METAL
 10
0.0
 20
0.0
 30
0.0
 70
   128
 71
   585
 72
   574
 73
   750
 74
   743
  0
VERTEX
  5
4DC
  8
METAL
 10
0.0
 20
0.0
 30
0.0
 70
   128
 71
   935
 72
   939
 73
   901
 74
   899
  0
VERTEX
  5
4DD
  8
METAL
 10
0.0
 20
0.0
 30
0.0
 70
   128
 71
   881
 72
   818
 73
   821
 74
   884
  0
VERTEX
  5
4DE
  8
METAL
 10
0.0
 20
0.0
 30
0.0
 70
   128
 71
   865
 72
   892
 73
   836
 74
   828
  0
VERTEX
  5
4DF
  8
METAL
 10
0.0
 20
0.0
 30
0.0
 70
   128
 71
   882
 72
   929
 73
   894
 74
   867
  0
VERTEX
  5
4E0
  8
METAL
 10
0.0
 20
0.0
 30
0.0
 70
   128
 71
   931
 72
   881
 73
   884
 74
   934
  0
VERTEX
  5
4E1
  8
METAL
 10
0.0
 20
0.0
 30
0.0
 70
   128
 71
   795
 72
   864
 73
   827
 74
   785
  0
VERTEX
  5
4E2
  8
METAL
 10
0.0
 20
0.0
 30
0.0
 70
   128
 71
   819
 72
   880
 73
   866
 74
   796
  0
VERTEX
  5
4E3
  8
METAL
 10
0.0
 20
0.0
 30
0.0
 70
   128
 71
   762
 72
   769
 73
   797
 74
   804
  0
VERTEX
  5
4E4
  8
METAL
 10
0.0
 20
0.0
 30
0.0
 70
   128
 71
   911
 72
   851
 73
   853
 74
   914
  0
VERTEX
  5
4E5
  8
METAL
 10
0.0
 20
0.0
 30
0.0
 70
   128
 71
   571
 72
   602
 73
   598
 74
   568
  0
VERTEX
  5
4E6
  8
METAL
 10
0.0
 20
0.0
 30
0.0
 70
   128
 71
   633
 72
   546
 73
   533
 74
   565
  0
VERTEX
  5
4E7
  8
METAL
 10
0.0
 20
0.0
 30
0.0
 70
   128
 71
   763
 72
   733
 73
   693
 74
   702
  0
VERTEX
  5
4E8
  8
METAL
 10
0.0
 20
0.0
 30
0.0
 70
   128
 71
   704
 72
   694
 73
   655
 74
   660
  0
VERTEX
  5
4E9
  8
METAL
 10
0.0
 20
0.0
 30
0.0
 70
   128
 71
   661
 72
   656
 73
   545
 74
   632
  0
VERTEX
  5
4EA
  8
METAL
 10
0.0
 20
0.0
 30
0.0
 70
   128
 71
   878
 72
   883
 73
   822
 74
   806
  0
VERTEX
  5
4EB
  8
METAL
 10
0.0
 20
0.0
 30
0.0
 70
   128
 71
   912
 72
   932
 73
   885
 74
   879
  0
VERTEX
  5
4EC
  8
METAL
 10
0.0
 20
0.0
 30
0.0
 70
   128
 71
   732
 72
   761
 73
   803
 74
   820
  0
VERTEX
  5
4ED
  8
METAL
 10
0.0
 20
0.0
 30
0.0
 70
   128
 71
   933
 72
   913
 73
   917
 74
   937
  0
VERTEX
  5
4EE
  8
METAL
 10
0.0
 20
0.0
 30
0.0
 70
   128
 71
   537
 72
   570
 73
   566
 74
   534
  0
VERTEX
  5
4EF
  8
METAL
 10
0.0
 20
0.0
 30
0.0
 70
   128
 71
   649
 72
   635
 73
   567
 74
   597
  0
VERTEX
  5
4F0
  8
METAL
 10
0.0
 20
0.0
 30
0.0
 70
   128
 71
   771
 72
   764
 73
   703
 74
   717
  0
VERTEX
  5
4F1
  8
METAL
 10
0.0
 20
0.0
 30
0.0
 70
   128
 71
   719
 72
   705
 73
   662
 74
   668
  0
VERTEX
  5
4F2
  8
METAL
 10
0.0
 20
0.0
 30
0.0
 70
   128
 71
   670
 72
   663
 73
   634
 74
   647
  0
VERTEX
  5
4F3
  8
METAL
 10
0.0
 20
0.0
 30
0.0
 70
   128
 71
   830
 72
   876
 73
   805
 74
   799
  0
VERTEX
  5
4F4
  8
METAL
 10
0.0
 20
0.0
 30
0.0
 70
   128
 71
   850
 72
   910
 73
   877
 74
   831
  0
VERTEX
  5
4F5
  8
METAL
 10
0.0
 20
0.0
 30
0.0
 70
   128
 71
   610
 72
   617
 73
   476
 74
   471
  0
VERTEX
  5
4F6
  8
METAL
 10
0.0
 20
0.0
 30
0.0
 70
   128
 71
   507
 72
   510
 73
   528
 74
   611
  0
VERTEX
  5
4F7
  8
METAL
 10
0.0
 20
0.0
 30
0.0
 70
   128
 71
   528
 72
   550
 73
   611
 74
   611
  0
VERTEX
  5
4F8
  8
METAL
 10
0.0
 20
0.0
 30
0.0
 70
   128
 71
   611
 72
   615
 73
   475
 74
   507
  0
VERTEX
  5
4F9
  8
METAL
 10
0.0
 20
0.0
 30
0.0
 70
   128
 71
   473
 72
   507
 73
   475
 74
   475
  0
VERTEX
  5
4FA
  8
METAL
 10
0.0
 20
0.0
 30
0.0
 70
   128
 71
   456
 72
   457
 73
   532
 74
   544
  0
VERTEX
  5
4FB
  8
METAL
 10
0.0
 20
0.0
 30
0.0
 70
   128
 71
   936
 72
   938
 73
   942
 74
   940
  0
VERTEX
  5
4FC
  8
METAL
 10
0.0
 20
0.0
 30
0.0
 70
   128
 71
   758
 72
   617
 73
   610
 74
   757
  0
VERTEX
  5
4FD
  8
METAL
 10
0.0
 20
0.0
 30
0.0
 70
   128
 71
   618
 72
   551
 73
   530
 74
   506
  0
VERTEX
  5
4FE
  8
METAL
 10
0.0
 20
0.0
 30
0.0
 70
   128
 71
   530
 72
   513
 73
   506
 74
   506
  0
VERTEX
  5
4FF
  8
METAL
 10
0.0
 20
0.0
 30
0.0
 70
   128
 71
   506
 72
   472
 73
   477
 74
   618
  0
VERTEX
  5
500
  8
METAL
 10
0.0
 20
0.0
 30
0.0
 70
   128
 71
   915
 72
   854
 73
   856
 74
   918
  0
VERTEX
  5
501
  8
METAL
 10
0.0
 20
0.0
 30
0.0
 70
   128
 71
   937
 72
   916
 73
   920
 74
   941
  0
VERTEX
  5
502
  8
METAL
 10
0.0
 20
0.0
 30
0.0
 70
   128
 71
   471
 72
   470
 73
   586
 74
   610
  0
VERTEX
  5
503
  8
METAL
 10
0.0
 20
0.0
 30
0.0
 70
   128
 71
   610
 72
   587
 73
   756
 74
   757
  0
VERTEX
  5
504
  8
METAL
 10
0.0
 20
0.0
 30
0.0
 70
   128
 71
   783
 72
   826
 73
   754
 74
   734
  0
VERTEX
  5
505
  8
METAL
 10
0.0
 20
0.0
 30
0.0
 70
   128
 71
   605
 72
   608
 73
   469
 74
   467
  0
VERTEX
  5
506
  8
METAL
 10
0.0
 20
0.0
 30
0.0
 70
   128
 71
   535
 72
   532
 73
   457
 74
   458
  0
VERTEX
  5
507
  8
METAL
 10
0.0
 20
0.0
 30
0.0
 70
   128
 71
   452
 72
   454
 73
   557
 74
   573
  0
VERTEX
  5
508
  8
METAL
 10
0.0
 20
0.0
 30
0.0
 70
   128
 71
   544
 72
   554
 73
   455
 74
   456
  0
VERTEX
  5
509
  8
METAL
 10
0.0
 20
0.0
 30
0.0
 70
   128
 71
   455
 72
   554
 73
   557
 74
   454
  0
VERTEX
  5
50A
  8
METAL
 10
0.0
 20
0.0
 30
0.0
 70
   128
 71
   692
 72
   731
 73
   748
 74
   557
  0
VERTEX
  5
50B
  8
METAL
 10
0.0
 20
0.0
 30
0.0
 70
   128
 71
   573
 72
   557
 73
   748
 74
   748
  0
VERTEX
  5
50C
  8
METAL
 10
0.0
 20
0.0
 30
0.0
 70
   128
 71
   557
 72
   554
 73
   654
 74
   692
  0
VERTEX
  5
50D
  8
METAL
 10
0.0
 20
0.0
 30
0.0
 70
   128
 71
   554
 72
   544
 73
   654
 74
   654
  0
VERTEX
  5
50E
  8
METAL
 10
0.0
 20
0.0
 30
0.0
 70
   128
 71
   754
 72
   756
 73
   587
 74
   609
  0
VERTEX
  5
50F
  8
METAL
 10
0.0
 20
0.0
 30
0.0
 70
   128
 71
   784
 72
   735
 73
   740
 74
   793
  0
VERTEX
  5
510
  8
METAL
 10
0.0
 20
0.0
 30
0.0
 70
   128
 71
   794
 72
   741
 73
   749
 74
   817
  0
VERTEX
  5
511
  8
METAL
 10
0.0
 20
0.0
 30
0.0
 70
   128
 71
   841
 72
   758
 73
   757
 74
   838
  0
VERTEX
  5
512
  8
METAL
 10
0.0
 20
0.0
 30
0.0
 70
   128
 71
   838
 72
   757
 73
   756
 74
   835
  0
VERTEX
  5
513
  8
METAL
 10
0.0
 20
0.0
 30
0.0
 70
   128
 71
   734
 72
   754
 73
   609
 74
   606
  0
VERTEX
  5
514
  8
METAL
 10
0.0
 20
0.0
 30
0.0
 70
   128
 71
   748
 72
   731
 73
   821
 74
   818
  0
VERTEX
  5
515
  8
METAL
 10
0.0
 20
0.0
 30
0.0
 70
   128
 71
   178
 72
   237
 73
   274
 74
   347
  0
VERTEX
  5
516
  8
METAL
 10
0.0
 20
0.0
 30
0.0
 70
   128
 71
   274
 72
   400
 73
   347
 74
   347
  0
VERTEX
  5
517
  8
METAL
 10
0.0
 20
0.0
 30
0.0
 70
   128
 71
   178
 72
   347
 73
    96
 74
    99
  0
VERTEX
  5
518
  8
METAL
 10
0.0
 20
0.0
 30
0.0
 70
   128
 71
   128
 72
   116
 73
   195
 74
   197
  0
VERTEX
  5
519
  8
METAL
 10
0.0
 20
0.0
 30
0.0
 70
   128
 71
    99
 72
   102
 73
   122
 74
   153
  0
VERTEX
  5
51A
  8
METAL
 10
0.0
 20
0.0
 30
0.0
 70
   128
 71
   153
 72
   181
 73
   178
 74
    99
  0
VERTEX
  5
51B
  8
METAL
 10
0.0
 20
0.0
 30
0.0
 70
   128
 71
    17
 72
    15
 73
    19
 74
    22
  0
VERTEX
  5
51C
  8
METAL
 10
0.0
 20
0.0
 30
0.0
 70
   128
 71
   320
 72
   326
 73
   330
 74
   323
  0
VERTEX
  5
51D
  8
METAL
 10
0.0
 20
0.0
 30
0.0
 70
   128
 71
   273
 72
   279
 73
   430
 74
   426
  0
VERTEX
  5
51E
  8
METAL
 10
0.0
 20
0.0
 30
0.0
 70
   128
 71
   240
 72
   176
 73
   179
 74
   244
  0
VERTEX
  5
51F
  8
METAL
 10
0.0
 20
0.0
 30
0.0
 70
   128
 71
   307
 72
   322
 73
   401
 74
   401
  0
VERTEX
  5
520
  8
METAL
 10
0.0
 20
0.0
 30
0.0
 70
   128
 71
   442
 72
   449
 73
   439
 74
   439
  0
VERTEX
  5
521
  8
METAL
 10
0.0
 20
0.0
 30
0.0
 70
   128
 71
   236
 72
   177
 73
   241
 74
   241
  0
VERTEX
  5
522
  8
METAL
 10
0.0
 20
0.0
 30
0.0
 70
   128
 71
   401
 72
   429
 73
   278
 74
   307
  0
VERTEX
  5
523
  8
METAL
 10
0.0
 20
0.0
 30
0.0
 70
   128
 71
   440
 72
   428
 73
   431
 74
   443
  0
VERTEX
  5
524
  8
METAL
 10
0.0
 20
0.0
 30
0.0
 70
   128
 71
   427
 72
   400
 73
   274
 74
   274
  0
VERTEX
  5
525
  8
METAL
 10
0.0
 20
0.0
 30
0.0
 70
   128
 71
   239
 72
   277
 73
   272
 74
   235
  0
VERTEX
  5
526
  8
METAL
 10
0.0
 20
0.0
 30
0.0
 70
   128
 71
   276
 72
   238
 73
   242
 74
   282
  0
VERTEX
  5
527
  8
METAL
 10
0.0
 20
0.0
 30
0.0
 70
   128
 71
   306
 72
   275
 73
   280
 74
   310
  0
VERTEX
  5
528
  8
METAL
 10
0.0
 20
0.0
 30
0.0
 70
   128
 71
   321
 72
   305
 73
   308
 74
   327
  0
VERTEX
  5
529
  8
METAL
 10
0.0
 20
0.0
 30
0.0
 70
   128
 71
   483
 72
   484
 73
   360
 74
   358
  0
VERTEX
  5
52A
  8
METAL
 10
0.0
 20
0.0
 30
0.0
 70
   128
 71
    55
 72
   111
 73
   114
 74
    59
  0
VERTEX
  5
52B
  8
METAL
 10
0.0
 20
0.0
 30
0.0
 70
   128
 71
   376
 72
   373
 73
   492
 74
   495
  0
VERTEX
  5
52C
  8
METAL
 10
0.0
 20
0.0
 30
0.0
 70
   128
 71
   215
 72
   362
 73
   371
 74
   209
  0
VERTEX
  5
52D
  8
METAL
 10
0.0
 20
0.0
 30
0.0
 70
   128
 71
    56
 72
    52
 73
   109
 74
   112
  0
VERTEX
  5
52E
  8
METAL
 10
0.0
 20
0.0
 30
0.0
 70
   128
 71
    16
 72
    53
 73
    57
 74
    20
  0
VERTEX
  5
52F
  8
METAL
 10
0.0
 20
0.0
 30
0.0
 70
   128
 71
   365
 72
   487
 73
   491
 74
   372
  0
VERTEX
  5
530
  8
METAL
 10
0.0
 20
0.0
 30
0.0
 70
   128
 71
   370
 72
   374
 73
   201
 74
   208
  0
VERTEX
  5
531
  8
METAL
 10
0.0
 20
0.0
 30
0.0
 70
   128
 71
    16
 72
    12
 73
    51
 74
    54
  0
VERTEX
  5
532
  8
METAL
 10
0.0
 20
0.0
 30
0.0
 70
   128
 71
    68
 72
   136
 73
   139
 74
    71
  0
VERTEX
  5
533
  8
METAL
 10
0.0
 20
0.0
 30
0.0
 70
   128
 71
    87
 72
    60
 73
   115
 74
   126
  0
VERTEX
  5
534
  8
METAL
 10
0.0
 20
0.0
 30
0.0
 70
   128
 71
    67
 72
    21
 73
    58
 74
    85
  0
VERTEX
  5
535
  8
METAL
 10
0.0
 20
0.0
 30
0.0
 70
   128
 71
    19
 72
    68
 73
    71
 74
    22
  0
VERTEX
  5
536
  8
METAL
 10
0.0
 20
0.0
 30
0.0
 70
   128
 71
   160
 72
    88
 73
   127
 74
   166
  0
VERTEX
  5
537
  8
METAL
 10
0.0
 20
0.0
 30
0.0
 70
   128
 71
   135
 72
    69
 73
    86
 74
   159
  0
VERTEX
  5
538
  8
METAL
 10
0.0
 20
0.0
 30
0.0
 70
   128
 71
   189
 72
   182
 73
   154
 74
   147
  0
VERTEX
  5
539
  8
METAL
 10
0.0
 20
0.0
 30
0.0
 70
   128
 71
    41
 72
   100
 73
    98
 74
    38
  0
VERTEX
  5
53A
  8
METAL
 10
0.0
 20
0.0
 30
0.0
 70
   128
 71
   391
 72
   331
 73
   328
 74
   387
  0
VERTEX
  5
53B
  8
METAL
 10
0.0
 20
0.0
 30
0.0
 70
   128
 71
   318
 72
   405
 73
   415
 74
   390
  0
VERTEX
  5
53C
  8
METAL
 10
0.0
 20
0.0
 30
0.0
 70
   128
 71
   188
 72
   221
 73
   258
 74
   253
  0
VERTEX
  5
53D
  8
METAL
 10
0.0
 20
0.0
 30
0.0
 70
   128
 71
   251
 72
   257
 73
   296
 74
   291
  0
VERTEX
  5
53E
  8
METAL
 10
0.0
 20
0.0
 30
0.0
 70
   128
 71
   290
 72
   295
 73
   406
 74
   319
  0
VERTEX
  5
53F
  8
METAL
 10
0.0
 20
0.0
 30
0.0
 70
   128
 71
    78
 72
    72
 73
   138
 74
   145
  0
VERTEX
  5
540
  8
METAL
 10
0.0
 20
0.0
 30
0.0
 70
   128
 71
    40
 72
    24
 73
    70
 74
    77
  0
VERTEX
  5
541
  8
METAL
 10
0.0
 20
0.0
 30
0.0
 70
   128
 71
   222
 72
   190
 73
   148
 74
   140
  0
VERTEX
  5
542
  8
METAL
 10
0.0
 20
0.0
 30
0.0
 70
   128
 71
    23
 72
    39
 73
    36
 74
    18
  0
VERTEX
  5
543
  8
METAL
 10
0.0
 20
0.0
 30
0.0
 70
   128
 71
   417
 72
   392
 73
   389
 74
   414
  0
VERTEX
  5
544
  8
METAL
 10
0.0
 20
0.0
 30
0.0
 70
   128
 71
   309
 72
   316
 73
   388
 74
   329
  0
VERTEX
  5
545
  8
METAL
 10
0.0
 20
0.0
 30
0.0
 70
   128
 71
   180
 72
   187
 73
   252
 74
   245
  0
VERTEX
  5
546
  8
METAL
 10
0.0
 20
0.0
 30
0.0
 70
   128
 71
   243
 72
   250
 73
   289
 74
   283
  0
VERTEX
  5
547
  8
METAL
 10
0.0
 20
0.0
 30
0.0
 70
   128
 71
   281
 72
   288
 73
   317
 74
   311
  0
VERTEX
  5
548
  8
METAL
 10
0.0
 20
0.0
 30
0.0
 70
   128
 71
   121
 72
    80
 73
   146
 74
   152
  0
VERTEX
  5
549
  8
METAL
 10
0.0
 20
0.0
 30
0.0
 70
   128
 71
   101
 72
    42
 73
    79
 74
   120
  0
VERTEX
  5
54A
  8
METAL
 10
0.0
 20
0.0
 30
0.0
 70
   128
 71
   357
 72
   346
 73
   476
 74
   478
  0
VERTEX
  5
54B
  8
METAL
 10
0.0
 20
0.0
 30
0.0
 70
   128
 71
   447
 72
   441
 73
   429
 74
   322
  0
VERTEX
  5
54C
  8
METAL
 10
0.0
 20
0.0
 30
0.0
 70
   128
 71
   429
 72
   401
 73
   322
 74
   322
  0
VERTEX
  5
54D
  8
METAL
 10
0.0
 20
0.0
 30
0.0
 70
   128
 71
   322
 72
   324
 73
   481
 74
   447
  0
VERTEX
  5
54E
  8
METAL
 10
0.0
 20
0.0
 30
0.0
 70
   128
 71
   479
 72
   447
 73
   481
 74
   481
  0
VERTEX
  5
54F
  8
METAL
 10
0.0
 20
0.0
 30
0.0
 70
   128
 71
   498
 72
   499
 73
   416
 74
   407
  0
VERTEX
  5
550
  8
METAL
 10
0.0
 20
0.0
 30
0.0
 70
   128
 71
    15
 72
    17
 73
    13
 74
    11
  0
VERTEX
  5
551
  8
METAL
 10
0.0
 20
0.0
 30
0.0
 70
   128
 71
   193
 72
   346
 73
   357
 74
   194
  0
VERTEX
  5
552
  8
METAL
 10
0.0
 20
0.0
 30
0.0
 70
   128
 71
   347
 72
   400
 73
   427
 74
   448
  0
VERTEX
  5
553
  8
METAL
 10
0.0
 20
0.0
 30
0.0
 70
   128
 71
   427
 72
   438
 73
   448
 74
   448
  0
VERTEX
  5
554
  8
METAL
 10
0.0
 20
0.0
 30
0.0
 70
   128
 71
   448
 72
   480
 73
   477
 74
   347
  0
VERTEX
  5
555
  8
METAL
 10
0.0
 20
0.0
 30
0.0
 70
   128
 71
    37
 72
    97
 73
    95
 74
    34
  0
VERTEX
  5
556
  8
METAL
 10
0.0
 20
0.0
 30
0.0
 70
   128
 71
    18
 72
    35
 73
    33
 74
    14
  0
VERTEX
  5
557
  8
METAL
 10
0.0
 20
0.0
 30
0.0
 70
   128
 71
   478
 72
   483
 73
   358
 74
   357
  0
VERTEX
  5
558
  8
METAL
 10
0.0
 20
0.0
 30
0.0
 70
   128
 71
   357
 72
   359
 73
   195
 74
   194
  0
VERTEX
  5
559
  8
METAL
 10
0.0
 20
0.0
 30
0.0
 70
   128
 71
   168
 72
   128
 73
   197
 74
   217
  0
VERTEX
  5
55A
  8
METAL
 10
0.0
 20
0.0
 30
0.0
 70
   128
 71
   363
 72
   360
 73
   484
 74
   486
  0
VERTEX
  5
55B
  8
METAL
 10
0.0
 20
0.0
 30
0.0
 70
   128
 71
   419
 72
   416
 73
   499
 74
   501
  0
VERTEX
  5
55C
  8
METAL
 10
0.0
 20
0.0
 30
0.0
 70
   128
 71
   494
 72
   496
 73
   395
 74
   375
  0
VERTEX
  5
55D
  8
METAL
 10
0.0
 20
0.0
 30
0.0
 70
   128
 71
   407
 72
   397
 73
   497
 74
   498
  0
VERTEX
  5
55E
  8
METAL
 10
0.0
 20
0.0
 30
0.0
 70
   128
 71
   497
 72
   397
 73
   395
 74
   496
  0
VERTEX
  5
55F
  8
METAL
 10
0.0
 20
0.0
 30
0.0
 70
   128
 71
   259
 72
   223
 73
   203
 74
   395
  0
VERTEX
  5
560
  8
METAL
 10
0.0
 20
0.0
 30
0.0
 70
   128
 71
   375
 72
   395
 73
   203
 74
   203
  0
VERTEX
  5
561
  8
METAL
 10
0.0
 20
0.0
 30
0.0
 70
   128
 71
   395
 72
   397
 73
   297
 74
   259
  0
VERTEX
  5
562
  8
METAL
 10
0.0
 20
0.0
 30
0.0
 70
   128
 71
   397
 72
   407
 73
   297
 74
   297
  0
VERTEX
  5
563
  8
METAL
 10
0.0
 20
0.0
 30
0.0
 70
   128
 71
   197
 72
   195
 73
   359
 74
   361
  0
VERTEX
  5
564
  8
METAL
 10
0.0
 20
0.0
 30
0.0
 70
   128
 71
   167
 72
   216
 73
   211
 74
   162
  0
VERTEX
  5
565
  8
METAL
 10
0.0
 20
0.0
 30
0.0
 70
   128
 71
   161
 72
   210
 73
   202
 74
   137
  0
VERTEX
  5
566
  8
METAL
 10
0.0
 20
0.0
 30
0.0
 70
   128
 71
   110
 72
   193
 73
   194
 74
   113
  0
VERTEX
  5
567
  8
METAL
 10
0.0
 20
0.0
 30
0.0
 70
   128
 71
   113
 72
   194
 73
   195
 74
   116
  0
VERTEX
  5
568
  8
METAL
 10
0.0
 20
0.0
 30
0.0
 70
   128
 71
   217
 72
   197
 73
   361
 74
   364
  0
VERTEX
  5
569
  8
METAL
 10
0.0
 20
0.0
 30
0.0
 70
   128
 71
   203
 72
   223
 73
   139
 74
   136
  0
VERTEX
  5
56A
  8
METAL
 10
0.0
 20
0.0
 30
0.0
 70
   128
 71
   618
 72
   552
 73
   681
 74
   776
  0
VERTEX
  5
56B
  8
METAL
 10
0.0
 20
0.0
 30
0.0
 70
   128
 71
   681
 72
   706
 73
   776
 74
   776
  0
VERTEX
  5
56C
  8
METAL
 10
0.0
 20
0.0
 30
0.0
 70
   128
 71
   855
 72
   618
 73
   776
 74
   858
  0
VERTEX
  5
56D
  8
METAL
 10
0.0
 20
0.0
 30
0.0
 70
   128
 71
   823
 72
   755
 73
   760
 74
   846
  0
VERTEX
  5
56E
  8
METAL
 10
0.0
 20
0.0
 30
0.0
 70
   128
 71
   776
 72
   779
 73
   800
 74
   858
  0
VERTEX
  5
56F
  8
METAL
 10
0.0
 20
0.0
 30
0.0
 70
   128
 71
   858
 72
   800
 73
   832
 74
   861
  0
VERTEX
  5
570
  8
METAL
 10
0.0
 20
0.0
 30
0.0
 70
   128
 71
   946
 72
   952
 73
   949
 74
   944
  0
VERTEX
  5
571
  8
METAL
 10
0.0
 20
0.0
 30
0.0
 70
   128
 71
   621
 72
   624
 73
   631
 74
   628
  0
VERTEX
  5
572
  8
METAL
 10
0.0
 20
0.0
 30
0.0
 70
   128
 71
   680
 72
   521
 73
   525
 74
   684
  0
VERTEX
  5
573
  8
METAL
 10
0.0
 20
0.0
 30
0.0
 70
   128
 71
   710
 72
   714
 73
   782
 74
   778
  0
VERTEX
  5
574
  8
METAL
 10
0.0
 20
0.0
 30
0.0
 70
   128
 71
   640
 72
   553
 73
   619
 74
   619
  0
VERTEX
  5
575
  8
METAL
 10
0.0
 20
0.0
 30
0.0
 70
   128
 71
   518
 72
   515
 73
   502
 74
   502
  0
VERTEX
  5
576
  8
METAL
 10
0.0
 20
0.0
 30
0.0
 70
   128
 71
   707
 72
   709
 73
   777
 74
   777
  0
VERTEX
  5
577
  8
METAL
 10
0.0
 20
0.0
 30
0.0
 70
   128
 71
   553
 72
   640
 73
   683
 74
   524
  0
VERTEX
  5
578
  8
METAL
 10
0.0
 20
0.0
 30
0.0
 70
   128
 71
   514
 72
   517
 73
   523
 74
   520
  0
VERTEX
  5
579
  8
METAL
 10
0.0
 20
0.0
 30
0.0
 70
   128
 71
   522
 72
   681
 73
   552
 74
   552
  0
VERTEX
  5
57A
  8
METAL
 10
0.0
 20
0.0
 30
0.0
 70
   128
 71
   711
 72
   708
 73
   682
 74
   685
  0
VERTEX
  5
57B
  8
METAL
 10
0.0
 20
0.0
 30
0.0
 70
   128
 71
   686
 72
   689
 73
   716
 74
   712
  0
VERTEX
  5
57C
  8
METAL
 10
0.0
 20
0.0
 30
0.0
 70
   128
 71
   641
 72
   644
 73
   691
 74
   687
  0
VERTEX
  5
57D
  8
METAL
 10
0.0
 20
0.0
 30
0.0
 70
   128
 71
   620
 72
   627
 73
   646
 74
   642
  0
VERTEX
  5
57E
  8
METAL
 10
0.0
 20
0.0
 30
0.0
 70
   128
 71
   483
 72
   589
 73
   591
 74
   484
  0
VERTEX
  5
57F
  8
METAL
 10
0.0
 20
0.0
 30
0.0
 70
   128
 71
   902
 72
   907
 73
   848
 74
   844
  0
VERTEX
  5
580
  8
METAL
 10
0.0
 20
0.0
 30
0.0
 70
   128
 71
   575
 72
   493
 73
   489
 74
   578
  0
VERTEX
  5
581
  8
METAL
 10
0.0
 20
0.0
 30
0.0
 70
   128
 71
   739
 72
   746
 73
   580
 74
   596
  0
VERTEX
  5
582
  8
METAL
 10
0.0
 20
0.0
 30
0.0
 70
   128
 71
   903
 72
   845
 73
   842
 74
   900
  0
VERTEX
  5
583
  8
METAL
 10
0.0
 20
0.0
 30
0.0
 70
   128
 71
   943
 72
   948
 73
   909
 74
   904
  0
VERTEX
  5
584
  8
METAL
 10
0.0
 20
0.0
 30
0.0
 70
   128
 71
   593
 72
   579
 73
   490
 74
   485
  0
VERTEX
  5
585
  8
METAL
 10
0.0
 20
0.0
 30
0.0
 70
   128
 71
   581
 72
   747
 73
   753
 74
   577
  0
VERTEX
  5
586
  8
METAL
 10
0.0
 20
0.0
 30
0.0
 70
   128
 71
   943
 72
   905
 73
   901
 74
   939
  0
VERTEX
  5
587
  8
METAL
 10
0.0
 20
0.0
 30
0.0
 70
   128
 71
   887
 72
   890
 73
   815
 74
   812
  0
VERTEX
  5
588
  8
METAL
 10
0.0
 20
0.0
 30
0.0
 70
   128
 71
   869
 72
   825
 73
   847
 74
   906
  0
VERTEX
  5
589
  8
METAL
 10
0.0
 20
0.0
 30
0.0
 70
   128
 71
   888
 72
   871
 73
   908
 74
   947
  0
VERTEX
  5
58A
  8
METAL
 10
0.0
 20
0.0
 30
0.0
 70
   128
 71
   949
 72
   952
 73
   890
 74
   887
  0
VERTEX
  5
58B
  8
METAL
 10
0.0
 20
0.0
 30
0.0
 70
   128
 71
   791
 72
   788
 73
   824
 74
   868
  0
VERTEX
  5
58C
  8
METAL
 10
0.0
 20
0.0
 30
0.0
 70
   128
 71
   813
 72
   792
 73
   870
 74
   886
  0
VERTEX
  5
58D
  8
METAL
 10
0.0
 20
0.0
 30
0.0
 70
   128
 71
   765
 72
   807
 73
   801
 74
   780
  0
VERTEX
  5
58E
  8
METAL
 10
0.0
 20
0.0
 30
0.0
 70
   128
 71
   926
 72
   922
 73
   860
 74
   863
  0
VERTEX
  5
58F
  8
METAL
 10
0.0
 20
0.0
 30
0.0
 70
   128
 71
   564
 72
   561
 73
   626
 74
   630
  0
VERTEX
  5
590
  8
METAL
 10
0.0
 20
0.0
 30
0.0
 70
   128
 71
   637
 72
   558
 73
   539
 74
   549
  0
VERTEX
  5
591
  8
METAL
 10
0.0
 20
0.0
 30
0.0
 70
   128
 71
   767
 72
   698
 73
   696
 74
   730
  0
VERTEX
  5
592
  8
METAL
 10
0.0
 20
0.0
 30
0.0
 70
   128
 71
   700
 72
   664
 73
   658
 74
   697
  0
VERTEX
  5
593
  8
METAL
 10
0.0
 20
0.0
 30
0.0
 70
   128
 71
   665
 72
   636
 73
   548
 74
   659
  0
VERTEX
  5
594
  8
METAL
 10
0.0
 20
0.0
 30
0.0
 70
   128
 71
   874
 72
   810
 73
   816
 74
   889
  0
VERTEX
  5
595
  8
METAL
 10
0.0
 20
0.0
 30
0.0
 70
   128
 71
   927
 72
   875
 73
   891
 74
   950
  0
VERTEX
  5
596
  8
METAL
 10
0.0
 20
0.0
 30
0.0
 70
   128
 71
   728
 72
   814
 73
   808
 74
   766
  0
VERTEX
  5
597
  8
METAL
 10
0.0
 20
0.0
 30
0.0
 70
   128
 71
   951
 72
   945
 73
   924
 74
   928
  0
VERTEX
  5
598
  8
METAL
 10
0.0
 20
0.0
 30
0.0
 70
   128
 71
   543
 72
   540
 73
   559
 74
   563
  0
VERTEX
  5
599
  8
METAL
 10
0.0
 20
0.0
 30
0.0
 70
   128
 71
   645
 72
   625
 73
   560
 74
   639
  0
VERTEX
  5
59A
  8
METAL
 10
0.0
 20
0.0
 30
0.0
 70
   128
 71
   781
 72
   713
 73
   699
 74
   768
  0
VERTEX
  5
59B
  8
METAL
 10
0.0
 20
0.0
 30
0.0
 70
   128
 71
   715
 72
   688
 73
   666
 74
   701
  0
VERTEX
  5
59C
  8
METAL
 10
0.0
 20
0.0
 30
0.0
 70
   128
 71
   690
 72
   643
 73
   638
 74
   667
  0
VERTEX
  5
59D
  8
METAL
 10
0.0
 20
0.0
 30
0.0
 70
   128
 71
   833
 72
   802
 73
   809
 74
   872
  0
VERTEX
  5
59E
  8
METAL
 10
0.0
 20
0.0
 30
0.0
 70
   128
 71
   862
 72
   834
 73
   873
 74
   925
  0
VERTEX
  5
59F
  8
METAL
 10
0.0
 20
0.0
 30
0.0
 70
   128
 71
   588
 72
   478
 73
   476
 74
   617
  0
VERTEX
  5
5A0
  8
METAL
 10
0.0
 20
0.0
 30
0.0
 70
   128
 71
   481
 72
   622
 73
   619
 74
   503
  0
VERTEX
  5
5A1
  8
METAL
 10
0.0
 20
0.0
 30
0.0
 70
   128
 71
   619
 72
   553
 73
   524
 74
   503
  0
VERTEX
  5
5A2
  8
METAL
 10
0.0
 20
0.0
 30
0.0
 70
   128
 71
   524
 72
   519
 73
   503
 74
   503
  0
VERTEX
  5
5A3
  8
METAL
 10
0.0
 20
0.0
 30
0.0
 70
   128
 71
   479
 72
   481
 73
   503
 74
   503
  0
VERTEX
  5
5A4
  8
METAL
 10
0.0
 20
0.0
 30
0.0
 70
   128
 71
   498
 72
   547
 73
   538
 74
   499
  0
VERTEX
  5
5A5
  8
METAL
 10
0.0
 20
0.0
 30
0.0
 70
   128
 71
   944
 72
   940
 73
   942
 74
   946
  0
VERTEX
  5
5A6
  8
METAL
 10
0.0
 20
0.0
 30
0.0
 70
   128
 71
   758
 72
   759
 73
   588
 74
   617
  0
VERTEX
  5
5A7
  8
METAL
 10
0.0
 20
0.0
 30
0.0
 70
   128
 71
   477
 72
   480
 73
   504
 74
   618
  0
VERTEX
  5
5A8
  8
METAL
 10
0.0
 20
0.0
 30
0.0
 70
   128
 71
   504
 72
   516
 73
   522
 74
   618
  0
VERTEX
  5
5A9
  8
METAL
 10
0.0
 20
0.0
 30
0.0
 70
   128
 71
   618
 72
   522
 73
   552
 74
   552
  0
VERTEX
  5
5AA
  8
METAL
 10
0.0
 20
0.0
 30
0.0
 70
   128
 71
   921
 72
   919
 73
   857
 74
   859
  0
VERTEX
  5
5AB
  8
METAL
 10
0.0
 20
0.0
 30
0.0
 70
   128
 71
   945
 72
   941
 73
   920
 74
   923
  0
VERTEX
  5
5AC
  8
METAL
 10
0.0
 20
0.0
 30
0.0
 70
   128
 71
   478
 72
   588
 73
   589
 74
   483
  0
VERTEX
  5
5AD
  8
METAL
 10
0.0
 20
0.0
 30
0.0
 70
   128
 71
   588
 72
   759
 73
   760
 74
   590
  0
VERTEX
  5
5AE
  8
METAL
 10
0.0
 20
0.0
 30
0.0
 70
   128
 71
   786
 72
   737
 73
   755
 74
   823
  0
VERTEX
  5
5AF
  8
METAL
 10
0.0
 20
0.0
 30
0.0
 70
   128
 71
   594
 72
   486
 73
   484
 74
   591
  0
VERTEX
  5
5B0
  8
METAL
 10
0.0
 20
0.0
 30
0.0
 70
   128
 71
   542
 72
   501
 73
   499
 74
   538
  0
VERTEX
  5
5B1
  8
METAL
 10
0.0
 20
0.0
 30
0.0
 70
   128
 71
   494
 72
   576
 73
   556
 74
   496
  0
VERTEX
  5
5B2
  8
METAL
 10
0.0
 20
0.0
 30
0.0
 70
   128
 71
   547
 72
   498
 73
   497
 74
   555
  0
VERTEX
  5
5B3
  8
METAL
 10
0.0
 20
0.0
 30
0.0
 70
   128
 71
   497
 72
   496
 73
   556
 74
   555
  0
VERTEX
  5
5B4
  8
METAL
 10
0.0
 20
0.0
 30
0.0
 70
   128
 71
   751
 72
   729
 73
   695
 74
   556
  0
VERTEX
  5
5B5
  8
METAL
 10
0.0
 20
0.0
 30
0.0
 70
   128
 71
   576
 72
   751
 73
   556
 74
   556
  0
VERTEX
  5
5B6
  8
METAL
 10
0.0
 20
0.0
 30
0.0
 70
   128
 71
   556
 72
   695
 73
   657
 74
   555
  0
VERTEX
  5
5B7
  8
METAL
 10
0.0
 20
0.0
 30
0.0
 70
   128
 71
   555
 72
   657
 73
   547
 74
   547
  0
VERTEX
  5
5B8
  8
METAL
 10
0.0
 20
0.0
 30
0.0
 70
   128
 71
   755
 72
   592
 73
   590
 74
   760
  0
VERTEX
  5
5B9
  8
METAL
 10
0.0
 20
0.0
 30
0.0
 70
   128
 71
   787
 72
   789
 73
   744
 74
   738
  0
VERTEX
  5
5BA
  8
METAL
 10
0.0
 20
0.0
 30
0.0
 70
   128
 71
   790
 72
   811
 73
   752
 74
   745
  0
VERTEX
  5
5BB
  8
METAL
 10
0.0
 20
0.0
 30
0.0
 70
   128
 71
   841
 72
   843
 73
   759
 74
   758
  0
VERTEX
  5
5BC
  8
METAL
 10
0.0
 20
0.0
 30
0.0
 70
   128
 71
   843
 72
   846
 73
   760
 74
   759
  0
VERTEX
  5
5BD
  8
METAL
 10
0.0
 20
0.0
 30
0.0
 70
   128
 71
   737
 72
   595
 73
   592
 74
   755
  0
VERTEX
  5
5BE
  8
METAL
 10
0.0
 20
0.0
 30
0.0
 70
   128
 71
   751
 72
   812
 73
   815
 74
   729
  0
VERTEX
  5
5BF
  8
METAL
 10
0.0
 20
0.0
 30
0.0
 70
   128
 71
   474
 72
   465
 73
   339
 74
   344
  0
VERTEX
  5
5C0
  8
METAL
 10
0.0
 20
0.0
 30
0.0
 70
   128
 71
   488
 72
   482
 73
   325
 74
   332
  0
VERTEX
  5
5C1
  8
METAL
 10
0.0
 20
0.0
 30
0.0
 70
   128
 71
   386
 72
   339
 73
   465
 74
   460
  0
VERTEX
  5
5C2
  8
METAL
 10
0.0
 20
0.0
 30
0.0
 70
   128
 71
   413
 72
   386
 73
   460
 74
   459
  0
VERTEX
  5
5C3
  8
METAL
 10
0.0
 20
0.0
 30
0.0
 70
   128
 71
   614
 72
   601
 73
   465
 74
   474
  0
VERTEX
  5
5C4
  8
METAL
 10
0.0
 20
0.0
 30
0.0
 70
   128
 71
   465
 72
   601
 73
   569
 74
   460
  0
VERTEX
  5
5C5
  8
METAL
 10
0.0
 20
0.0
 30
0.0
 70
   128
 71
   460
 72
   569
 73
   536
 74
   459
  0
VERTEX
  5
5C6
  8
METAL
 10
0.0
 20
0.0
 30
0.0
 70
   128
 71
   393
 72
   450
 73
   488
 74
   332
  0
VERTEX
  5
5C7
  8
METAL
 10
0.0
 20
0.0
 30
0.0
 70
   128
 71
   418
 72
   500
 73
   450
 74
   393
  0
VERTEX
  5
5C8
  8
METAL
 10
0.0
 20
0.0
 30
0.0
 70
   128
 71
   541
 72
   562
 73
   450
 74
   500
  0
VERTEX
  5
5C9
  8
METAL
 10
0.0
 20
0.0
 30
0.0
 70
   128
 71
   562
 72
   629
 73
   488
 74
   450
  0
VERTEX
  5
5CA
  8
METAL
 10
0.0
 20
0.0
 30
0.0
 70
   128
 71
   629
 72
   623
 73
   482
 74
   488
  0
SEQEND
  5
6FF
  8
METAL
  0
POLYLINE
  5
5D4
  8
CRISTAL3
 66
     1
 10
0.0
 20
0.0
 30
0.0
 70
    64
 71
     4
 72
     1
  0
VERTEX
  5
5D5
  8
CRISTAL3
 10
-21.1882710623103
 20
-24.98650352656841
 30
-29.79008886061504
 70
   192
  0
VERTEX
  5
5D6
  8
CRISTAL3
 10
-25.18827106231031
 20
-24.98650352656841
 30
-29.79008886061504
 70
   192
  0
VERTEX
  5
5D7
  8
CRISTAL3
 10
-25.18827106231031
 20
-24.98650352656841
 30
-35.79008892021969
 70
   192
  0
VERTEX
  5
5D8
  8
CRISTAL3
 10
-21.1882710623103
 20
-24.98650352656841
 30
-35.790089873894
 70
   192
  0
VERTEX
  5
5D9
  8
CRISTAL
 10
0.0
 20
0.0
 30
0.0
 70
   128
 71
     1
 72
     2
 73
     3
 74
     4
  0
SEQEND
  5
700
  8
CRISTAL3
  0
POLYLINE
  5
5DB
  8
CRISTAL
 66
     1
 10
0.0
 20
0.0
 30
0.0
 70
    64
 71
     4
 72
     1
  0
VERTEX
  5
5DC
  8
CRISTAL
 10
-24.77082929439634
 20
-24.98650352656841
 30
-22.10806357605286
 70
   192
  0
VERTEX
  5
5DD
  8
CRISTAL
 10
-28.77082929439634
 20
-24.98650352656841
 30
-22.10806357605286
 70
   192
  0
VERTEX
  5
5DE
  8
CRISTAL
 10
-28.77082929439634
 20
-24.98650352656841
 30
-28.1080636356575
 70
   192
  0
VERTEX
  5
5DF
  8
CRISTAL
 10
-24.77082929439634
 20
-24.98650352656841
 30
-28.10806458933182
 70
   192
  0
VERTEX
  5
5E0
  8
CRISTAL
 10
0.0
 20
0.0
 30
0.0
 70
   128
 71
     1
 72
     2
 73
     3
 74
     4
  0
SEQEND
  5
701
  8
CRISTAL
  0
POLYLINE
  5
69C
  8
METAL
 66
     1
 10
0.0
 20
0.0
 30
0.0
 70
    64
 71
    56
 72
    38
  0
VERTEX
  5
69D
  8
METAL
 10
-6.033172159601356
 20
-21.99142241477967
 30
-34.71728066190156
 70
   192
  0
VERTEX
  5
69E
  8
METAL
 10
-5.430209188867713
 20
-21.99142241477967
 30
-32.07552841885956
 70
   192
  0
VERTEX
  5
69F
  8
METAL
 10
-4.949192076135779
 20
-21.35386562347413
 30
-34.71728066190156
 70
   192
  0
VERTEX
  5
6A0
  8
METAL
 10
-4.453577070642615
 20
-21.35386562347413
 30
-32.545850074133
 70
   192
  0
VERTEX
  5
6A1
  8
METAL
 10
-4.171215086389686
 20
-20.71630764007569
 30
-34.71728066190156
 70
   192
  0
VERTEX
  5
6A2
  8
METAL
 10
-3.752644091058874
 20
-20.71630764007569
 30
-32.88340119107637
 70
   192
  0
VERTEX
  5
6A3
  8
METAL
 10
-3.740745096613074
 20
-21.99142241477967
 30
-29.95700768216522
 70
   192
  0
VERTEX
  5
6A4
  8
METAL
 10
-3.699242144037391
 20
-20.07875061035157
 30
-34.71728066190156
 70
   192
  0
VERTEX
  5
6A5
  8
METAL
 10
-3.533270864893104
 20
-19.44119358062745
 30
-34.71728066190156
 70
   192
  0
VERTEX
  5
6A6
  8
METAL
 10
-3.533270864893104
 20
-0.0924854278564524
 30
-34.71728066190156
 70
   192
  0
VERTEX
  5
6A7
  8
METAL
 10
-3.533270864893104
 20
-0.0924854278564524
 30
-34.71728066190156
 70
   192
  0
VERTEX
  5
6A8
  8
METAL
 10
-3.327411203790808
 20
-20.07875061035157
 30
-33.08818176968965
 70
   192
  0
VERTEX
  5
6A9
  8
METAL
 10
-3.177876024652624
 20
-0.0924854278564524
 30
-33.16019562467012
 70
   192
  0
VERTEX
  5
6AA
  8
METAL
 10
-3.177876024652624
 20
-0.0924854278564524
 30
-33.16019562467012
 70
   192
  0
VERTEX
  5
6AB
  8
METAL
 10
-3.177876024652624
 20
-19.44119358062745
 30
-33.16019371732148
 70
   192
  0
VERTEX
  5
6AC
  8
METAL
 10
-3.064895182062292
 20
-21.35386562347413
 30
-30.80449608548554
 70
   192
  0
VERTEX
  5
6AD
  8
METAL
 10
-2.579834013391638
 20
-20.71630764007569
 30
-31.41274384244354
 70
   192
  0
VERTEX
  5
6AE
  8
METAL
 10
-2.285563021112585
 20
-20.07875061035157
 30
-31.78174713834197
 70
   192
  0
VERTEX
  5
6AF
  8
METAL
 10
-2.182083158899451
 20
-19.44119358062745
 30
-31.91150788052947
 70
   192
  0
VERTEX
  5
6B0
  8
METAL
 10
-2.182083158899451
 20
-0.0924854278564524
 30
-31.91150788052947
 70
   192
  0
VERTEX
  5
6B1
  8
METAL
 10
-2.182083158899451
 20
-0.0924854278564524
 30
-31.91150788052947
 70
   192
  0
VERTEX
  5
6B2
  8
METAL
 10
-1.299397974420691
 20
-21.99142241477967
 30
-28.78131607755097
 70
   192
  0
VERTEX
  5
6B3
  8
METAL
 10
-1.05818989794364
 20
-21.35386562347413
 30
-29.83811882718475
 70
   192
  0
VERTEX
  5
6B4
  8
METAL
 10
-0.8850741676579953
 20
-20.71630764007569
 30
-30.59658936246307
 70
   192
  0
VERTEX
  5
6B5
  8
METAL
 10
-0.780049829889441
 20
-20.07875061035157
 30
-31.05672959073456
 70
   192
  0
VERTEX
  5
6B6
  8
METAL
 10
-0.743118791986609
 20
-19.44119358062745
 30
-31.2185395119992
 70
   192
  0
VERTEX
  5
6B7
  8
METAL
 10
-0.743118791986609
 20
-0.0924854278564524
 30
-31.2185395119992
 70
   192
  0
VERTEX
  5
6B8
  8
METAL
 10
-0.743118791986609
 20
-0.0924854278564524
 30
-31.2185395119992
 70
   192
  0
VERTEX
  5
6B9
  8
METAL
 10
0.8540110297907346
 20
-19.44119358062745
 30
-31.2185395119992
 70
   192
  0
VERTEX
  5
6BA
  8
METAL
 10
0.8540110297907346
 20
-0.0924854278564524
 30
-31.2185395119992
 70
   192
  0
VERTEX
  5
6BB
  8
METAL
 10
0.8540110297907346
 20
-0.0924854278564524
 30
-31.2185395119992
 70
   192
  0
VERTEX
  5
6BC
  8
METAL
 10
0.8909430213678831
 20
-20.07875061035157
 30
-31.05672959073456
 70
   192
  0
VERTEX
  5
6BD
  8
METAL
 10
0.995967359136438
 20
-20.71630764007569
 30
-30.59658936246307
 70
   192
  0
VERTEX
  5
6BE
  8
METAL
 10
1.169083089422083
 20
-21.35386562347413
 30
-29.83811882718475
 70
   192
  0
VERTEX
  5
6BF
  8
METAL
 10
1.410291165899133
 20
-21.99142241477967
 30
-28.78131607755097
 70
   192
  0
VERTEX
  5
6C0
  8
METAL
 10
2.292974919866419
 20
-19.44119358062745
 30
-31.91150788052947
 70
   192
  0
VERTEX
  5
6C1
  8
METAL
 10
2.292974919866419
 20
-0.0924854278564524
 30
-31.91150788052947
 70
   192
  0
VERTEX
  5
6C2
  8
METAL
 10
2.292974919866419
 20
-0.0924854278564524
 30
-31.91150788052947
 70
   192
  0
VERTEX
  5
6C3
  8
METAL
 10
2.396455258916704
 20
-20.07875061035157
 30
-31.78174713834197
 70
   192
  0
VERTEX
  5
6C4
  8
METAL
 10
2.690726728032923
 20
-20.71630764007569
 30
-31.41274384244354
 70
   192
  0
VERTEX
  5
6C5
  8
METAL
 10
3.175786466192108
 20
-21.35386562347413
 30
-30.80449608548554
 70
   192
  0
VERTEX
  5
6C6
  8
METAL
 10
3.288768262456751
 20
-19.44119358062745
 30
-33.16019371732148
 70
   192
  0
VERTEX
  5
6C7
  8
METAL
 10
3.288768262456751
 20
-0.0924854278564524
 30
-33.16019371732148
 70
   192
  0
VERTEX
  5
6C8
  8
METAL
 10
3.288768262456751
 20
-0.0924854278564524
 30
-33.16019371732148
 70
   192
  0
VERTEX
  5
6C9
  8
METAL
 10
3.438302487920617
 20
-20.07875061035157
 30
-33.08818176968965
 70
   192
  0
VERTEX
  5
6CA
  8
METAL
 10
3.644163579534387
 20
-19.44119358062745
 30
-34.71728066190156
 70
   192
  0
VERTEX
  5
6CB
  8
METAL
 10
3.644163579534387
 20
-0.0924854278564524
 30
-34.71728066190156
 70
   192
  0
VERTEX
  5
6CC
  8
METAL
 10
3.644163579534387
 20
-0.0924854278564524
 30
-34.71728066190156
 70
   192
  0
VERTEX
  5
6CD
  8
METAL
 10
3.810134381841515
 20
-20.07875061035157
 30
-34.71728066190156
 70
   192
  0
VERTEX
  5
6CE
  8
METAL
 10
3.8516373344172
 20
-21.99142241477967
 30
-29.95700768216522
 70
   192
  0
VERTEX
  5
6CF
  8
METAL
 10
3.863536328863001
 20
-20.71630764007569
 30
-32.88340119107637
 70
   192
  0
VERTEX
  5
6D0
  8
METAL
 10
4.282107801030969
 20
-20.71630764007569
 30
-34.71728066190156
 70
   192
  0
VERTEX
  5
6D1
  8
METAL
 10
4.564469785283898
 20
-21.35386562347413
 30
-32.54585007413301
 70
   192
  0
VERTEX
  5
6D2
  8
METAL
 10
5.060084790777062
 20
-21.35386562347413
 30
-34.71728066190156
 70
   192
  0
VERTEX
  5
6D3
  8
METAL
 10
5.541100949834679
 20
-21.99142241477967
 30
-32.07552841885956
 70
   192
  0
VERTEX
  5
6D4
  8
METAL
 10
6.144064397405478
 20
-21.99142241477967
 30
-34.71728066190156
 70
   192
  0
VERTEX
  5
6D5
  8
METAL
 10
0.0
 20
0.0
 30
0.0
 70
   128
 71
    13
 72
    10
 73
     9
 74
    15
  0
VERTEX
  5
6D6
  8
METAL
 10
0.0
 20
0.0
 30
0.0
 70
   128
 71
    20
 72
    13
 73
    15
 74
    19
  0
VERTEX
  5
6D7
  8
METAL
 10
0.0
 20
0.0
 30
0.0
 70
   128
 71
    27
 72
    20
 73
    19
 74
    26
  0
VERTEX
  5
6D8
  8
METAL
 10
0.0
 20
0.0
 30
0.0
 70
   128
 71
    31
 72
    27
 73
    26
 74
    29
  0
VERTEX
  5
6D9
  8
METAL
 10
0.0
 20
0.0
 30
0.0
 70
   128
 71
    38
 72
    31
 73
    29
 74
    36
  0
VERTEX
  5
6DA
  8
METAL
 10
0.0
 20
0.0
 30
0.0
 70
   128
 71
    44
 72
    38
 73
    36
 74
    42
  0
VERTEX
  5
6DB
  8
METAL
 10
0.0
 20
0.0
 30
0.0
 70
   128
 71
    48
 72
    44
 73
    42
 74
    46
  0
VERTEX
  5
6DC
  8
METAL
 10
0.0
 20
0.0
 30
0.0
 70
   128
 71
     3
 72
     1
 73
     2
 74
     4
  0
VERTEX
  5
6DD
  8
METAL
 10
0.0
 20
0.0
 30
0.0
 70
   128
 71
     4
 72
     2
 73
     7
 74
    16
  0
VERTEX
  5
6DE
  8
METAL
 10
0.0
 20
0.0
 30
0.0
 70
   128
 71
    16
 72
     7
 73
    22
 74
    23
  0
VERTEX
  5
6DF
  8
METAL
 10
0.0
 20
0.0
 30
0.0
 70
   128
 71
    23
 72
    22
 73
    35
 74
    34
  0
VERTEX
  5
6E0
  8
METAL
 10
0.0
 20
0.0
 30
0.0
 70
   128
 71
    34
 72
    35
 73
    50
 74
    41
  0
VERTEX
  5
6E1
  8
METAL
 10
0.0
 20
0.0
 30
0.0
 70
   128
 71
    41
 72
    50
 73
    55
 74
    53
  0
VERTEX
  5
6E2
  8
METAL
 10
0.0
 20
0.0
 30
0.0
 70
   128
 71
    53
 72
    55
 73
    56
 74
    54
  0
VERTEX
  5
6E3
  8
METAL
 10
0.0
 20
0.0
 30
0.0
 70
   128
 71
     5
 72
     3
 73
     4
 74
     6
  0
VERTEX
  5
6E4
  8
METAL
 10
0.0
 20
0.0
 30
0.0
 70
   128
 71
     8
 72
     5
 73
     6
 74
    12
  0
VERTEX
  5
6E5
  8
METAL
 10
0.0
 20
0.0
 30
0.0
 70
   128
 71
     9
 72
     8
 73
    12
 74
    15
  0
VERTEX
  5
6E6
  8
METAL
 10
0.0
 20
0.0
 30
0.0
 70
   128
 71
     6
 72
     4
 73
    16
 74
    17
  0
VERTEX
  5
6E7
  8
METAL
 10
0.0
 20
0.0
 30
0.0
 70
   128
 71
    12
 72
     6
 73
    17
 74
    18
  0
VERTEX
  5
6E8
  8
METAL
 10
0.0
 20
0.0
 30
0.0
 70
   128
 71
    15
 72
    12
 73
    18
 74
    19
  0
VERTEX
  5
6E9
  8
METAL
 10
0.0
 20
0.0
 30
0.0
 70
   128
 71
    17
 72
    16
 73
    23
 74
    24
  0
VERTEX
  5
6EA
  8
METAL
 10
0.0
 20
0.0
 30
0.0
 70
   128
 71
    18
 72
    17
 73
    24
 74
    25
  0
VERTEX
  5
6EB
  8
METAL
 10
0.0
 20
0.0
 30
0.0
 70
   128
 71
    19
 72
    18
 73
    25
 74
    26
  0
VERTEX
  5
6EC
  8
METAL
 10
0.0
 20
0.0
 30
0.0
 70
   128
 71
    24
 72
    23
 73
    34
 74
    33
  0
VERTEX
  5
6ED
  8
METAL
 10
0.0
 20
0.0
 30
0.0
 70
   128
 71
    25
 72
    24
 73
    33
 74
    32
  0
VERTEX
  5
6EE
  8
METAL
 10
0.0
 20
0.0
 30
0.0
 70
   128
 71
    26
 72
    25
 73
    32
 74
    29
  0
VERTEX
  5
6EF
  8
METAL
 10
0.0
 20
0.0
 30
0.0
 70
   128
 71
    33
 72
    34
 73
    41
 74
    40
  0
VERTEX
  5
6F0
  8
METAL
 10
0.0
 20
0.0
 30
0.0
 70
   128
 71
    32
 72
    33
 73
    40
 74
    39
  0
VERTEX
  5
6F1
  8
METAL
 10
0.0
 20
0.0
 30
0.0
 70
   128
 71
    29
 72
    32
 73
    39
 74
    36
  0
VERTEX
  5
6F2
  8
METAL
 10
0.0
 20
0.0
 30
0.0
 70
   128
 71
    40
 72
    41
 73
    53
 74
    51
  0
VERTEX
  5
6F3
  8
METAL
 10
0.0
 20
0.0
 30
0.0
 70
   128
 71
    39
 72
    40
 73
    51
 74
    45
  0
VERTEX
  5
6F4
  8
METAL
 10
0.0
 20
0.0
 30
0.0
 70
   128
 71
    36
 72
    39
 73
    45
 74
    42
  0
VERTEX
  5
6F5
  8
METAL
 10
0.0
 20
0.0
 30
0.0
 70
   128
 71
    51
 72
    53
 73
    54
 74
    52
  0
VERTEX
  5
6F6
  8
METAL
 10
0.0
 20
0.0
 30
0.0
 70
   128
 71
    45
 72
    51
 73
    52
 74
    49
  0
VERTEX
  5
6F7
  8
METAL
 10
0.0
 20
0.0
 30
0.0
 70
   128
 71
    42
 72
    45
 73
    49
 74
    46
  0
VERTEX
  5
6F8
  8
METAL
 10
0.0
 20
0.0
 30
0.0
 70
   128
 71
    47
 72
    11
 73
    14
 74
    43
  0
VERTEX
  5
6F9
  8
METAL
 10
0.0
 20
0.0
 30
0.0
 70
   128
 71
    43
 72
    14
 73
    21
 74
    37
  0
VERTEX
  5
6FA
  8
METAL
 10
0.0
 20
0.0
 30
0.0
 70
   128
 71
    37
 72
    21
 73
    28
 74
    30
  0
SEQEND
  5
702
  8
METAL
  0
ENDSEC
  0
EOF
