0
SECTION
2
HEADER
9
$ACADVER
1
AC1009
0
ENDSEC
0
SECTION
2
TABLES
0
TABLE
2
LAYER
70
2
0
LAYER
2
PRETO
70
0
62
88
6
CONTINUOUS
0
LAYER
2
ACESSORIO
70
0
62
254
6
CONTINUOUS
0
ENDTAB
0
ENDSEC
0
SECTION
2
ENTITIES
0
3DFACE
8
PRETO
10
19.77
20
-105
30
51.14
11
25.35
21
-103.45
31
51.14
12
14.65
22
-103.45
32
51.14
13
19.77
23
-105
33
51.14
0
3DFACE
8
PRETO
10
19.77
20
-105
30
54
11
25.35
21
-103.45
31
54
12
14.65
22
-103.45
32
54
13
19.77
23
-105
33
54
0
3DFACE
8
PRETO
10
40
20
0
30
68
11
40
21
0
31
71.73
12
39.51
22
-5.4
32
71.73
13
39.51
23
-5.4
33
68
0
3DFACE
8
PRETO
10
39.51
20
-5.4
30
68
11
39.51
21
-5.4
31
71.73
12
38.47
22
-10.73
32
71.73
13
38.47
23
-10.73
33
68
0
3DFACE
8
PRETO
10
36.21
20
-17.64
30
68
11
36.21
21
-17.64
31
71.73
12
33.06
22
-24.19
32
71.73
13
33.06
23
-24.19
33
68
0
3DFACE
8
PRETO
10
38.47
20
-10.73
30
68
11
38.47
21
-10.73
31
71.73
12
36.21
22
-17.64
32
71.73
13
36.21
23
-17.64
33
68
0
3DFACE
8
PRETO
10
30.71
20
-28.07
30
68
11
30.71
21
-28.07
31
71.73
12
27.37
22
-31.15
32
71.73
13
27.37
23
-31.15
33
68
0
3DFACE
8
PRETO
10
25
20
-32.37
30
68
11
25
21
-32.37
31
71.73
12
22.45
22
-33.1
32
71.73
13
22.45
23
-33.1
33
68
0
3DFACE
8
PRETO
10
27.37
20
-31.15
30
68
11
27.37
21
-31.15
31
71.73
12
25
22
-32.37
32
71.73
13
25
23
-32.37
33
68
0
3DFACE
8
PRETO
10
33.06
20
-24.19
30
68
11
33.06
21
-24.19
31
71.73
12
30.71
22
-28.07
32
71.73
13
30.71
23
-28.07
33
68
0
3DFACE
8
PRETO
10
19.73
20
-33.34
30
68
11
19.73
21
-33.34
31
71.73
12
17.03
22
-32.99
32
71.73
13
17.03
23
-32.99
33
68
0
3DFACE
8
PRETO
10
15.58
20
-32.31
30
68
11
15.58
21
-32.31
31
71.73
12
14.02
22
-31.93
32
71.73
13
14.02
23
-31.93
33
68
0
3DFACE
8
PRETO
10
17.03
20
-32.99
30
68
11
17.03
21
-32.99
31
71.73
12
15.58
22
-32.31
32
71.73
13
15.58
23
-32.31
33
68
0
3DFACE
8
PRETO
10
10.98
20
-29.89
30
68
11
10.98
21
-29.89
31
71.73
12
8.63
22
-27.09
32
71.73
13
8.63
23
-27.09
33
68
0
3DFACE
8
PRETO
10
14.02
20
-31.93
30
68
11
14.02
21
-31.93
31
71.73
12
10.98
22
-29.89
32
71.73
13
10.98
23
-29.89
33
68
0
3DFACE
8
PRETO
10
0.23
20
-2.63
30
68
11
0.23
21
-2.63
31
71.73
12
0
22
0
32
71.73
13
0
23
0
33
68
0
3DFACE
8
PRETO
10
0.92
20
-8.01
30
68
11
0.92
21
-8.01
31
71.73
12
0.47
22
-5.26
32
71.73
13
0.47
23
-5.26
33
68
0
3DFACE
8
PRETO
10
0.47
20
-5.26
30
68
11
0.47
21
-5.26
31
71.73
12
0.23
22
-2.63
32
71.73
13
0.23
23
-2.63
33
68
0
3DFACE
8
PRETO
10
1.53
20
-10.73
30
68
11
1.53
21
-10.73
31
71.73
12
0.92
22
-8.01
32
71.73
13
0.92
23
-8.01
33
68
0
3DFACE
8
PRETO
10
6.95
20
-24.2
30
68
11
6.95
21
-24.2
31
71.73
12
5.38
22
-21.25
32
71.73
13
5.38
23
-21.25
33
68
0
3DFACE
8
PRETO
10
4.09
20
-18.31
30
68
11
4.09
21
-18.31
31
71.73
12
3.06
22
-15.27
32
71.73
13
3.06
23
-15.27
33
68
0
3DFACE
8
PRETO
10
3.06
20
-15.27
30
68
11
3.06
21
-15.27
31
71.73
12
2.21
22
-13.03
32
71.73
13
2.21
23
-13.03
33
68
0
3DFACE
8
PRETO
10
5.38
20
-21.25
30
68
11
5.38
21
-21.25
31
71.73
12
4.09
22
-18.31
32
71.73
13
4.09
23
-18.31
33
68
0
3DFACE
8
PRETO
10
2.21
20
-13.03
30
68
11
2.21
21
-13.03
31
71.73
12
1.53
22
-10.73
32
71.73
13
1.53
23
-10.73
33
68
0
3DFACE
8
PRETO
10
8.63
20
-27.09
30
68
11
8.63
21
-27.09
31
71.73
12
6.95
22
-24.2
32
71.73
13
6.95
23
-24.2
33
68
0
3DFACE
8
PRETO
10
22.45
20
-33.1
30
68
11
22.45
21
-33.1
31
71.73
12
19.73
22
-33.34
32
71.73
13
19.73
23
-33.34
33
68
0
3DFACE
8
PRETO
10
39.87
20
-5.27
30
51.14
11
39.87
21
-5.27
31
54
12
40
22
0
32
54
13
40
23
0
33
51.14
0
3DFACE
8
PRETO
10
39.72
20
-10.84
30
51.14
11
39.72
21
-10.84
31
54
12
39.87
22
-5.27
32
54
13
39.87
23
-5.27
33
51.14
0
3DFACE
8
PRETO
10
39.55
20
-16.42
30
51.14
11
39.55
21
-16.42
31
54
12
39.72
22
-10.84
32
54
13
39.72
23
-10.84
33
51.14
0
3DFACE
8
PRETO
10
39.37
20
-21.99
30
51.14
11
39.37
21
-21.99
31
54
12
39.55
22
-16.42
32
54
13
39.55
23
-16.42
33
51.14
0
3DFACE
8
PRETO
10
39.15
20
-27.56
30
51.14
11
39.15
21
-27.56
31
54
12
39.37
22
-21.99
32
54
13
39.37
23
-21.99
33
51.14
0
3DFACE
8
PRETO
10
38.93
20
-33.13
30
51.14
11
38.93
21
-33.13
31
54
12
39.15
22
-27.56
32
54
13
39.15
23
-27.56
33
51.14
0
3DFACE
8
PRETO
10
38.68
20
-38.7
30
51.14
11
38.68
21
-38.7
31
54
12
38.93
22
-33.13
32
54
13
38.93
23
-33.13
33
51.14
0
3DFACE
8
PRETO
10
38.42
20
-44.28
30
51.14
11
38.42
21
-44.28
31
54
12
38.68
22
-38.7
32
54
13
38.68
23
-38.7
33
51.14
0
3DFACE
8
PRETO
10
38.13
20
-49.85
30
51.14
11
38.13
21
-49.85
31
54
12
38.42
22
-44.28
32
54
13
38.42
23
-44.28
33
51.14
0
3DFACE
8
PRETO
10
37.67
20
-55.55
30
51.14
11
37.67
21
-55.55
31
54
12
38.13
22
-49.85
32
54
13
38.13
23
-49.85
33
51.14
0
3DFACE
8
PRETO
10
37.08
20
-61.09
30
51.14
11
37.08
21
-61.09
31
54
12
37.67
22
-55.55
32
54
13
37.67
23
-55.55
33
51.14
0
3DFACE
8
PRETO
10
36.35
20
-66.61
30
51.14
11
36.35
21
-66.61
31
54
12
37.08
22
-61.09
32
54
13
37.08
23
-61.09
33
51.14
0
3DFACE
8
PRETO
10
35.5
20
-72.14
30
51.14
11
35.5
21
-72.14
31
54
12
36.35
22
-66.61
32
54
13
36.35
23
-66.61
33
51.14
0
3DFACE
8
PRETO
10
34.52
20
-77.63
30
51.14
11
34.52
21
-77.63
31
54
12
35.5
22
-72.14
32
54
13
35.5
23
-72.14
33
51.14
0
3DFACE
8
PRETO
10
33.42
20
-83.11
30
51.14
11
33.42
21
-83.11
31
54
12
34.52
22
-77.63
32
54
13
34.52
23
-77.63
33
51.14
0
3DFACE
8
PRETO
10
32.18
20
-88.55
30
51.14
11
32.18
21
-88.55
31
54
12
33.42
22
-83.11
32
54
13
33.42
23
-83.11
33
51.14
0
3DFACE
8
PRETO
10
30.82
20
-93.98
30
51.14
11
30.82
21
-93.98
31
54
12
32.18
22
-88.55
32
54
13
32.18
23
-88.55
33
51.14
0
3DFACE
8
PRETO
10
29.18
20
-99.33
30
51.14
11
29.18
21
-99.33
31
54
12
30.82
22
-93.98
32
54
13
30.82
23
-93.98
33
51.14
0
3DFACE
8
PRETO
10
25.35
20
-103.45
30
51.14
11
25.35
21
-103.45
31
54
12
29.18
22
-99.33
32
54
13
29.18
23
-99.33
33
51.14
0
3DFACE
8
PRETO
10
19.77
20
-105
30
51.14
11
19.77
21
-105
31
54
12
25.35
22
-103.45
32
54
13
25.35
23
-103.45
33
51.14
0
3DFACE
8
PRETO
10
0.13
20
-5.27
30
51.14
11
0.13
21
-5.27
31
54
12
0
22
0
32
54
13
0
23
0
33
51.14
0
3DFACE
8
PRETO
10
0.28
20
-10.84
30
51.14
11
0.28
21
-10.84
31
54
12
0.13
22
-5.27
32
54
13
0.13
23
-5.27
33
51.14
0
3DFACE
8
PRETO
10
0.45
20
-16.42
30
51.14
11
0.45
21
-16.42
31
54
12
0.28
22
-10.84
32
54
13
0.28
23
-10.84
33
51.14
0
3DFACE
8
PRETO
10
0.63
20
-21.99
30
51.14
11
0.63
21
-21.99
31
54
12
0.45
22
-16.42
32
54
13
0.45
23
-16.42
33
51.14
0
3DFACE
8
PRETO
10
0.85
20
-27.56
30
51.14
11
0.85
21
-27.56
31
54
12
0.63
22
-21.99
32
54
13
0.63
23
-21.99
33
51.14
0
3DFACE
8
PRETO
10
1.07
20
-33.13
30
51.14
11
1.07
21
-33.13
31
54
12
0.85
22
-27.56
32
54
13
0.85
23
-27.56
33
51.14
0
3DFACE
8
PRETO
10
1.32
20
-38.7
30
51.14
11
1.32
21
-38.7
31
54
12
1.07
22
-33.13
32
54
13
1.07
23
-33.13
33
51.14
0
3DFACE
8
PRETO
10
1.58
20
-44.28
30
51.14
11
1.58
21
-44.28
31
54
12
1.32
22
-38.7
32
54
13
1.32
23
-38.7
33
51.14
0
3DFACE
8
PRETO
10
1.87
20
-49.85
30
51.14
11
1.87
21
-49.85
31
54
12
1.58
22
-44.28
32
54
13
1.58
23
-44.28
33
51.14
0
3DFACE
8
PRETO
10
2.33
20
-55.55
30
51.14
11
2.33
21
-55.55
31
54
12
1.87
22
-49.85
32
54
13
1.87
23
-49.85
33
51.14
0
3DFACE
8
PRETO
10
2.92
20
-61.09
30
51.14
11
2.92
21
-61.09
31
54
12
2.33
22
-55.55
32
54
13
2.33
23
-55.55
33
51.14
0
3DFACE
8
PRETO
10
3.65
20
-66.61
30
51.14
11
3.65
21
-66.61
31
54
12
2.92
22
-61.09
32
54
13
2.92
23
-61.09
33
51.14
0
3DFACE
8
PRETO
10
4.5
20
-72.14
30
51.14
11
4.5
21
-72.14
31
54
12
3.65
22
-66.61
32
54
13
3.65
23
-66.61
33
51.14
0
3DFACE
8
PRETO
10
5.48
20
-77.63
30
51.14
11
5.48
21
-77.63
31
54
12
4.5
22
-72.14
32
54
13
4.5
23
-72.14
33
51.14
0
3DFACE
8
PRETO
10
6.58
20
-83.11
30
51.14
11
6.58
21
-83.11
31
54
12
5.48
22
-77.63
32
54
13
5.48
23
-77.63
33
51.14
0
3DFACE
8
PRETO
10
7.82
20
-88.55
30
51.14
11
7.82
21
-88.55
31
54
12
6.58
22
-83.11
32
54
13
6.58
23
-83.11
33
51.14
0
3DFACE
8
PRETO
10
9.18
20
-93.98
30
51.14
11
9.18
21
-93.98
31
54
12
7.82
22
-88.55
32
54
13
7.82
23
-88.55
33
51.14
0
3DFACE
8
PRETO
10
10.83
20
-99.33
30
51.14
11
10.83
21
-99.33
31
54
12
9.18
22
-93.98
32
54
13
9.18
23
-93.98
33
51.14
0
3DFACE
8
PRETO
10
14.65
20
-103.45
30
51.14
11
14.65
21
-103.45
31
54
12
10.83
22
-99.33
32
54
13
10.83
23
-99.33
33
51.14
0
3DFACE
8
PRETO
10
19.77
20
-105
30
51.14
11
19.77
21
-105
31
54
12
14.65
22
-103.45
32
54
13
14.65
23
-103.45
33
51.14
0
3DFACE
8
PRETO
10
0.13
20
-5.27
30
51.14
11
39.87
21
-5.27
31
51.14
12
40
22
0
32
51.14
13
0
23
0
33
51.14
0
3DFACE
8
PRETO
10
0.28
20
-10.84
30
51.14
11
39.72
21
-10.84
31
51.14
12
39.87
22
-5.27
32
51.14
13
0.13
23
-5.27
33
51.14
0
3DFACE
8
PRETO
10
0.45
20
-16.42
30
51.14
11
39.55
21
-16.42
31
51.14
12
39.72
22
-10.84
32
51.14
13
0.28
23
-10.84
33
51.14
0
3DFACE
8
PRETO
10
0.63
20
-21.99
30
51.14
11
39.37
21
-21.99
31
51.14
12
39.55
22
-16.42
32
51.14
13
0.45
23
-16.42
33
51.14
0
3DFACE
8
PRETO
10
0.85
20
-27.56
30
51.14
11
39.15
21
-27.56
31
51.14
12
39.37
22
-21.99
32
51.14
13
0.63
23
-21.99
33
51.14
0
3DFACE
8
PRETO
10
1.07
20
-33.13
30
51.14
11
38.93
21
-33.13
31
51.14
12
39.15
22
-27.56
32
51.14
13
0.85
23
-27.56
33
51.14
0
3DFACE
8
PRETO
10
1.32
20
-38.7
30
51.14
11
38.68
21
-38.7
31
51.14
12
38.93
22
-33.13
32
51.14
13
1.07
23
-33.13
33
51.14
0
3DFACE
8
PRETO
10
1.58
20
-44.28
30
51.14
11
38.42
21
-44.28
31
51.14
12
38.68
22
-38.7
32
51.14
13
1.32
23
-38.7
33
51.14
0
3DFACE
8
PRETO
10
1.87
20
-49.85
30
51.14
11
38.13
21
-49.85
31
51.14
12
38.42
22
-44.28
32
51.14
13
1.58
23
-44.28
33
51.14
0
3DFACE
8
PRETO
10
2.33
20
-55.55
30
51.14
11
37.67
21
-55.55
31
51.14
12
38.13
22
-49.85
32
51.14
13
1.87
23
-49.85
33
51.14
0
3DFACE
8
PRETO
10
2.92
20
-61.09
30
51.14
11
37.08
21
-61.09
31
51.14
12
37.67
22
-55.55
32
51.14
13
2.33
23
-55.55
33
51.14
0
3DFACE
8
PRETO
10
3.65
20
-66.61
30
51.14
11
36.35
21
-66.61
31
51.14
12
37.08
22
-61.09
32
51.14
13
2.92
23
-61.09
33
51.14
0
3DFACE
8
PRETO
10
4.5
20
-72.14
30
51.14
11
35.5
21
-72.14
31
51.14
12
36.35
22
-66.61
32
51.14
13
3.65
23
-66.61
33
51.14
0
3DFACE
8
PRETO
10
5.48
20
-77.63
30
51.14
11
34.52
21
-77.63
31
51.14
12
35.5
22
-72.14
32
51.14
13
4.5
23
-72.14
33
51.14
0
3DFACE
8
PRETO
10
6.58
20
-83.11
30
51.14
11
33.42
21
-83.11
31
51.14
12
34.52
22
-77.63
32
51.14
13
5.48
23
-77.63
33
51.14
0
3DFACE
8
PRETO
10
7.82
20
-88.55
30
51.14
11
32.18
21
-88.55
31
51.14
12
33.42
22
-83.11
32
51.14
13
6.58
23
-83.11
33
51.14
0
3DFACE
8
PRETO
10
9.18
20
-93.98
30
51.14
11
30.82
21
-93.98
31
51.14
12
32.18
22
-88.55
32
51.14
13
7.82
23
-88.55
33
51.14
0
3DFACE
8
PRETO
10
10.83
20
-99.33
30
51.14
11
29.18
21
-99.33
31
51.14
12
30.82
22
-93.98
32
51.14
13
9.18
23
-93.98
33
51.14
0
3DFACE
8
PRETO
10
14.65
20
-103.45
30
51.14
11
25.35
21
-103.45
31
51.14
12
29.18
22
-99.33
32
51.14
13
10.83
23
-99.33
33
51.14
0
3DFACE
8
PRETO
10
0.13
20
-5.27
30
54
11
39.87
21
-5.27
31
54
12
40
22
0
32
54
13
0
23
0
33
54
0
3DFACE
8
PRETO
10
0.28
20
-10.84
30
54
11
39.72
21
-10.84
31
54
12
39.87
22
-5.27
32
54
13
0.13
23
-5.27
33
54
0
3DFACE
8
PRETO
10
0.45
20
-16.42
30
54
11
39.55
21
-16.42
31
54
12
39.72
22
-10.84
32
54
13
0.28
23
-10.84
33
54
0
3DFACE
8
PRETO
10
0.63
20
-21.99
30
54
11
39.37
21
-21.99
31
54
12
39.55
22
-16.42
32
54
13
0.45
23
-16.42
33
54
0
3DFACE
8
PRETO
10
0.85
20
-27.56
30
54
11
39.15
21
-27.56
31
54
12
39.37
22
-21.99
32
54
13
0.63
23
-21.99
33
54
0
3DFACE
8
PRETO
10
1.07
20
-33.13
30
54
11
38.93
21
-33.13
31
54
12
39.15
22
-27.56
32
54
13
0.85
23
-27.56
33
54
0
3DFACE
8
PRETO
10
1.32
20
-38.7
30
54
11
38.68
21
-38.7
31
54
12
38.93
22
-33.13
32
54
13
1.07
23
-33.13
33
54
0
3DFACE
8
PRETO
10
1.58
20
-44.28
30
54
11
38.42
21
-44.28
31
54
12
38.68
22
-38.7
32
54
13
1.32
23
-38.7
33
54
0
3DFACE
8
PRETO
10
1.87
20
-49.85
30
54
11
38.13
21
-49.85
31
54
12
38.42
22
-44.28
32
54
13
1.58
23
-44.28
33
54
0
3DFACE
8
PRETO
10
2.33
20
-55.55
30
54
11
37.67
21
-55.55
31
54
12
38.13
22
-49.85
32
54
13
1.87
23
-49.85
33
54
0
3DFACE
8
PRETO
10
2.92
20
-61.09
30
54
11
37.08
21
-61.09
31
54
12
37.67
22
-55.55
32
54
13
2.33
23
-55.55
33
54
0
3DFACE
8
PRETO
10
3.65
20
-66.61
30
54
11
36.35
21
-66.61
31
54
12
37.08
22
-61.09
32
54
13
2.92
23
-61.09
33
54
0
3DFACE
8
PRETO
10
4.5
20
-72.14
30
54
11
35.5
21
-72.14
31
54
12
36.35
22
-66.61
32
54
13
3.65
23
-66.61
33
54
0
3DFACE
8
PRETO
10
5.48
20
-77.63
30
54
11
34.52
21
-77.63
31
54
12
35.5
22
-72.14
32
54
13
4.5
23
-72.14
33
54
0
3DFACE
8
PRETO
10
6.58
20
-83.11
30
54
11
33.42
21
-83.11
31
54
12
34.52
22
-77.63
32
54
13
5.48
23
-77.63
33
54
0
3DFACE
8
PRETO
10
7.82
20
-88.55
30
54
11
32.18
21
-88.55
31
54
12
33.42
22
-83.11
32
54
13
6.58
23
-83.11
33
54
0
3DFACE
8
PRETO
10
9.18
20
-93.98
30
54
11
30.82
21
-93.98
31
54
12
32.18
22
-88.55
32
54
13
7.82
23
-88.55
33
54
0
3DFACE
8
PRETO
10
10.83
20
-99.33
30
54
11
29.18
21
-99.33
31
54
12
30.82
22
-93.98
32
54
13
9.18
23
-93.98
33
54
0
3DFACE
8
PRETO
10
14.65
20
-103.45
30
54
11
25.35
21
-103.45
31
54
12
29.18
22
-99.33
32
54
13
10.83
23
-99.33
33
54
0
3DFACE
8
ACESSORIO
10
19.77
20
-33.34
30
71.73
11
24.13
21
-32.67
31
71.73
12
15.87
22
-32.67
32
71.73
13
19.77
23
-33.34
33
71.73
0
3DFACE
8
ACESSORIO
10
19.77
20
0
30
0.13
11
24.5
21
0
31
1.45
12
15.5
22
0
32
1.45
13
19.77
23
0
33
0.13
0
3DFACE
8
ACESSORIO
10
10
20
0
30
51.14
11
10
21
0
31
71.73
12
10
22
-1.28
32
71.73
13
10
23
-1.28
33
51.14
0
3DFACE
8
ACESSORIO
10
30
20
0
30
51.14
11
30
21
0
31
71.73
12
10
22
0
32
71.73
13
10
23
0
33
51.14
0
3DFACE
8
ACESSORIO
10
30
20
-1.28
30
51.14
11
30
21
-1.28
31
71.73
12
30
22
0
32
71.73
13
30
23
0
33
51.14
0
3DFACE
8
ACESSORIO
10
35
20
-1.28
30
51.14
11
35
21
-1.28
31
71.73
12
30
22
-1.28
32
71.73
13
30
23
-1.28
33
51.14
0
3DFACE
8
ACESSORIO
10
35
20
-2.86
30
51.14
11
35
21
-2.86
31
71.73
12
35
22
-1.28
32
71.73
13
35
23
-1.28
33
51.14
0
3DFACE
8
ACESSORIO
10
5
20
-2.86
30
51.14
11
5
21
-2.86
31
71.73
12
35
22
-2.86
32
71.73
13
35
23
-2.86
33
51.14
0
3DFACE
8
ACESSORIO
10
5
20
-1.28
30
51.14
11
5
21
-1.28
31
71.73
12
5
22
-2.86
32
71.73
13
5
23
-2.86
33
51.14
0
3DFACE
8
ACESSORIO
10
10
20
-1.28
30
51.14
11
10
21
-1.28
31
71.73
12
5
22
-1.28
32
71.73
13
5
23
-1.28
33
51.14
0
3DFACE
8
ACESSORIO
10
0.92
20
-8.01
30
71.73
11
38.99
21
-8.07
31
71.73
12
40
22
0
32
71.73
13
0
23
0
33
71.73
0
3DFACE
8
ACESSORIO
10
3.22
20
-16.21
30
71.73
11
36.78
21
-16.21
31
71.73
12
38.99
22
-8.07
32
71.73
13
0.92
23
-8.01
33
71.73
0
3DFACE
8
ACESSORIO
10
6.78
20
-23.93
30
71.73
11
33.22
21
-23.93
31
71.73
12
36.78
22
-16.21
32
71.73
13
3.22
23
-16.21
33
71.73
0
3DFACE
8
ACESSORIO
10
8.969998
20
-27.59
30
71.73
11
31.03
21
-27.59
31
71.73
12
33.22
22
-23.93
32
71.73
13
6.78
23
-23.93
33
71.73
0
3DFACE
8
ACESSORIO
10
11.97
20
-30.69
30
71.73
11
28.05
21
-30.69
31
71.73
12
31.03
22
-27.59
32
71.73
13
8.969998
23
-27.59
33
71.73
0
3DFACE
8
ACESSORIO
10
15.87
20
-32.67
30
71.73
11
24.13
21
-32.67
31
71.73
12
28.05
22
-30.69
32
71.73
13
11.97
23
-30.69
33
71.73
0
3DFACE
8
ACESSORIO
10
32.8
20
-24.62
30
71.78
11
31.37
21
-27.09
31
71.73
12
31.87
22
-26.17
32
71.73
13
33.32
23
-23.76
33
71.73
0
3DFACE
8
ACESSORIO
10
32.17
20
-25.43
30
71.85001
11
30.8
21
-27.94
31
71.73
12
31.37
22
-27.09
32
71.73
13
32.8
23
-24.62
33
71.78
0
3DFACE
8
ACESSORIO
10
31.42
20
-26.19
30
71.93
11
30.15
21
-28.76
31
71.73
12
30.8
22
-27.94
32
71.73
13
32.17
23
-25.43
33
71.85001
0
3DFACE
8
ACESSORIO
10
30.58
20
-26.88
30
72.03
11
29.43
21
-29.52
31
71.73
12
30.15
22
-28.76
32
71.73
13
31.42
23
-26.19
33
71.93
0
3DFACE
8
ACESSORIO
10
29.67
20
-27.53
30
72.15
11
28.65
21
-30.21
31
71.73
12
29.43
22
-29.52
32
71.73
13
30.58
23
-26.88
33
72.03
0
3DFACE
8
ACESSORIO
10
28.68
20
-28.1
30
72.28
11
27.82
21
-30.86
31
71.73
12
28.65
22
-30.21
32
71.73
13
29.67
23
-27.53
33
72.15
0
3DFACE
8
ACESSORIO
10
27.65
20
-28.6
30
72.39
11
26.92
21
-31.43
31
71.73
12
27.82
22
-30.86
32
71.73
13
28.68
23
-28.1
33
72.28
0
3DFACE
8
ACESSORIO
10
26.57
20
-29.03
30
72.52
11
25.98
21
-31.93
31
71.73
12
26.92
22
-31.43
32
71.73
13
27.65
23
-28.6
33
72.39
0
3DFACE
8
ACESSORIO
10
25.45
20
-29.39
30
72.64
11
25.02
21
-32.36
31
71.73
12
25.98
22
-31.93
32
71.73
13
26.57
23
-29.03
33
72.52
0
3DFACE
8
ACESSORIO
10
24.32
20
-29.69
30
72.74
11
24
21
-32.72
31
71.73
12
25.02
22
-32.36
32
71.73
13
25.45
23
-29.39
33
72.64
0
3DFACE
8
ACESSORIO
10
23.17
20
-29.91
30
72.83
11
22.97
21
-32.99
31
71.73
12
24
22
-32.72
32
71.73
13
24.32
23
-29.69
33
72.74
0
3DFACE
8
ACESSORIO
10
22.02
20
-30.07
30
72.9
11
21.92
21
-33.2
31
71.73
12
22.97
22
-32.99
32
71.73
13
23.17
23
-29.91
33
72.83
0
3DFACE
8
ACESSORIO
10
20.88
20
-30.16
30
72.95
11
20.85
21
-33.31
31
71.73
12
21.92
22
-33.2
32
71.73
13
22.02
23
-30.07
33
72.9
0
3DFACE
8
ACESSORIO
10
19.77
20
-30.2
30
72.96001
11
19.77
21
-33.34
31
71.73
12
20.85
22
-33.31
32
71.73
13
20.88
23
-30.16
33
72.95
0
3DFACE
8
ACESSORIO
10
34.13
20
-22.05
30
71.89
11
32.8
21
-24.62
31
71.78
12
33.32
22
-23.76
32
71.73
13
34.62
23
-21.25
33
71.73
0
3DFACE
8
ACESSORIO
10
33.42
20
-22.79
30
72.04
11
32.17
21
-25.43
31
71.85001
12
32.8
22
-24.62
32
71.78
13
34.13
23
-22.05
33
71.89
0
3DFACE
8
ACESSORIO
10
32.57
20
-23.47
30
72.21999
11
31.42
21
-26.19
31
71.93
12
32.17
22
-25.43
32
71.85001
13
33.42
23
-22.79
33
72.04
0
3DFACE
8
ACESSORIO
10
31.62
20
-24.1
30
72.42
11
30.58
21
-26.88
31
72.03
12
31.42
22
-26.19
32
71.93
13
32.57
23
-23.47
33
72.21999
0
3DFACE
8
ACESSORIO
10
30.58
20
-24.67
30
72.64
11
29.67
21
-27.53
31
72.15
12
30.58
22
-26.88
32
72.03
13
31.62
23
-24.1
33
72.42
0
3DFACE
8
ACESSORIO
10
29.48
20
-25.18
30
72.87
11
28.68
21
-28.1
31
72.28
12
29.67
22
-27.53
32
72.15
13
30.58
23
-24.67
33
72.64
0
3DFACE
8
ACESSORIO
10
28.33
20
-25.62
30
73.09
11
27.65
21
-28.6
31
72.39
12
28.68
22
-28.1
32
72.28
13
29.48
23
-25.18
33
72.87
0
3DFACE
8
ACESSORIO
10
27.12
20
-26
30
73.31001
11
26.57
21
-29.03
31
72.52
12
27.65
22
-28.6
32
72.39
13
28.33
23
-25.62
33
73.09
0
3DFACE
8
ACESSORIO
10
25.88
20
-26.31
30
73.52
11
25.45
21
-29.39
31
72.64
12
26.57
22
-29.03
32
72.52
13
27.12
23
-26
33
73.31001
0
3DFACE
8
ACESSORIO
10
24.63
20
-26.57
30
73.7
11
24.32
21
-29.69
31
72.74
12
25.45
22
-29.39
32
72.64
13
25.88
23
-26.31
33
73.52
0
3DFACE
8
ACESSORIO
10
23.38
20
-26.75
30
73.85001
11
23.17
21
-29.91
31
72.83
12
24.32
22
-29.69
32
72.74
13
24.63
23
-26.57
33
73.7
0
3DFACE
8
ACESSORIO
10
22.15
20
-26.88
30
73.98
11
22.02
21
-30.07
31
72.9
12
23.17
22
-29.91
32
72.83
13
23.38
23
-26.75
33
73.85001
0
3DFACE
8
ACESSORIO
10
20.93
20
-26.96
30
74.05
11
20.88
21
-30.16
31
72.95
12
22.02
22
-30.07
32
72.9
13
22.15
23
-26.88
33
73.98
0
3DFACE
8
ACESSORIO
10
19.77
20
-26.98
30
74.07
11
19.77
21
-30.2
31
72.96001
12
20.88
22
-30.16
32
72.95
13
20.93
23
-26.96
33
74.05
0
3DFACE
8
ACESSORIO
10
35.37
20
-19.4
30
72.03
11
34.13
21
-22.05
31
71.89
12
34.62
22
-21.25
32
71.73
13
35.8
23
-18.69
33
71.73
0
3DFACE
8
ACESSORIO
10
34.53
20
-20.05
30
72.28999
11
33.42
21
-22.79
31
72.04
12
34.13
22
-22.05
32
71.89
13
35.37
23
-19.4
33
72.03
0
3DFACE
8
ACESSORIO
10
33.6
20
-20.65
30
72.56
11
32.57
21
-23.47
31
72.21999
12
33.42
22
-22.79
32
72.04
13
34.53
23
-20.05
33
72.28999
0
3DFACE
8
ACESSORIO
10
32.55
20
-21.18
30
72.86
11
31.62
21
-24.1
31
72.42
12
32.57
22
-23.47
32
72.21999
13
33.6
23
-20.65
33
72.56
0
3DFACE
8
ACESSORIO
10
31.42
20
-21.69
30
73.17
11
30.58
21
-24.67
31
72.64
12
31.62
22
-24.1
32
72.42
13
32.55
23
-21.18
33
72.86
0
3DFACE
8
ACESSORIO
10
30.22
20
-22.13
30
73.49001
11
29.48
21
-25.18
31
72.87
12
30.58
22
-24.67
32
72.64
13
31.42
23
-21.69
33
73.17
0
3DFACE
8
ACESSORIO
10
28.95
20
-22.51
30
73.78999
11
28.33
21
-25.62
31
73.09
12
29.48
22
-25.18
32
72.87
13
30.22
23
-22.13
33
73.49001
0
3DFACE
8
ACESSORIO
10
27.63
20
-22.84
30
74.09
11
27.12
21
-26
31
73.31001
12
28.33
22
-25.62
32
73.09
13
28.95
23
-22.51
33
73.78999
0
3DFACE
8
ACESSORIO
10
26.3
20
-23.11
30
74.36001
11
25.88
21
-26.31
31
73.52
12
27.12
22
-26
32
73.31001
13
27.63
23
-22.84
33
74.09
0
3DFACE
8
ACESSORIO
10
24.97
20
-23.33
30
74.59
11
24.63
21
-26.57
31
73.7
12
25.88
22
-26.31
32
73.52
13
26.3
23
-23.11
33
74.36001
0
3DFACE
8
ACESSORIO
10
23.62
20
-23.5
30
74.8
11
23.38
21
-26.75
31
73.85001
12
24.63
22
-26.57
32
73.7
13
24.97
23
-23.33
33
74.59
0
3DFACE
8
ACESSORIO
10
22.3
20
-23.61
30
74.94
11
22.15
21
-26.88
31
73.98
12
23.38
22
-26.75
32
73.85001
13
23.62
23
-23.5
33
74.8
0
3DFACE
8
ACESSORIO
10
21
20
-23.68
30
75.04
11
20.93
21
-26.96
31
74.05
12
22.15
22
-26.88
32
73.98
13
22.3
23
-23.61
33
74.94
0
3DFACE
8
ACESSORIO
10
19.77
20
-23.69
30
75.07
11
19.77
21
-26.98
31
74.07
12
20.93
22
-26.96
32
74.05
13
21
23
-23.68
33
75.04
0
3DFACE
8
ACESSORIO
10
36.45
20
-16.67
30
72.21
11
35.37
21
-19.4
31
72.03
12
35.8
22
-18.69
32
71.73
13
36.83
23
-16.08
33
71.73
0
3DFACE
8
ACESSORIO
10
35.53
20
-17.2
30
72.57
11
34.53
21
-20.05
31
72.28999
12
35.37
22
-19.4
32
72.03
13
36.45
23
-16.67
33
72.21
0
3DFACE
8
ACESSORIO
10
34.5
20
-17.71
30
72.95
11
33.6
21
-20.65
31
72.56
12
34.53
22
-20.05
32
72.28999
13
35.53
23
-17.2
33
72.57
0
3DFACE
8
ACESSORIO
10
33.37
20
-18.18
30
73.34
11
32.55
21
-21.18
31
72.86
12
33.6
22
-20.65
32
72.56
13
34.5
23
-17.71
33
72.95
0
3DFACE
8
ACESSORIO
10
32.13
20
-18.59
30
73.71999
11
31.42
21
-21.69
31
73.17
12
32.55
22
-21.18
32
72.86
13
33.37
23
-18.18
33
73.34
0
3DFACE
8
ACESSORIO
10
30.85
20
-18.97
30
74.1
11
30.22
21
-22.13
31
73.49001
12
31.42
22
-21.69
32
73.17
13
32.13
23
-18.59
33
73.71999
0
3DFACE
8
ACESSORIO
10
29.5
20
-19.3
30
74.47
11
28.95
21
-22.51
31
73.78999
12
30.22
22
-22.13
32
73.49001
13
30.85
23
-18.97
33
74.1
0
3DFACE
8
ACESSORIO
10
28.12
20
-19.6
30
74.82001
11
27.63
21
-22.84
31
74.09
12
28.95
22
-22.51
32
73.78999
13
29.5
23
-19.3
33
74.47
0
3DFACE
8
ACESSORIO
10
26.7
20
-19.84
30
75.13
11
26.3
21
-23.11
31
74.36001
12
27.63
22
-22.84
32
74.09
13
28.12
23
-19.6
33
74.82001
0
3DFACE
8
ACESSORIO
10
25.28
20
-20.05
30
75.4
11
24.97
21
-23.33
31
74.59
12
26.3
22
-23.11
32
74.36001
13
26.7
23
-19.84
33
75.13
0
3DFACE
8
ACESSORIO
10
23.85
20
-20.19
30
75.62
11
23.62
21
-23.5
31
74.8
12
24.97
22
-23.33
32
74.59
13
25.28
23
-20.05
33
75.4
0
3DFACE
8
ACESSORIO
10
22.45
20
-20.3
30
75.78999
11
22.3
21
-23.61
31
74.94
12
23.62
22
-23.5
32
74.8
13
23.85
23
-20.19
33
75.62
0
3DFACE
8
ACESSORIO
10
21.08
20
-20.36
30
75.9
11
21
21
-23.68
31
75.04
12
22.3
22
-23.61
32
74.94
13
22.45
23
-20.3
33
75.78999
0
3DFACE
8
ACESSORIO
10
19.77
20
-20.36
30
75.92
11
19.77
21
-23.69
31
75.07
12
21
22
-23.68
32
75.04
13
21.08
23
-20.36
33
75.9
0
3DFACE
8
ACESSORIO
10
37.42
20
-13.87
30
72.39
11
36.45
21
-16.67
31
72.21
12
36.83
22
-16.08
32
71.73
13
37.72
23
-13.43
33
71.73
0
3DFACE
8
ACESSORIO
10
36.42
20
-14.32
30
72.87
11
35.53
21
-17.2
31
72.57
12
36.45
22
-16.67
32
72.21
13
37.42
23
-13.87
33
72.39
0
3DFACE
8
ACESSORIO
10
35.28
20
-14.71
30
73.34
11
34.5
21
-17.71
31
72.95
12
35.53
22
-17.2
32
72.57
13
36.42
23
-14.32
33
72.87
0
3DFACE
8
ACESSORIO
10
34.07
20
-15.09
30
73.8
11
33.37
21
-18.18
31
73.34
12
34.5
22
-17.71
32
72.95
13
35.28
23
-14.71
33
73.34
0
3DFACE
8
ACESSORIO
10
32.77
20
-15.45
30
74.25
11
32.13
21
-18.59
31
73.71999
12
33.37
22
-18.18
32
73.34
13
34.07
23
-15.09
33
73.8
0
3DFACE
8
ACESSORIO
10
31.4
20
-15.77
30
74.68999
11
30.85
21
-18.97
31
74.1
12
32.13
22
-18.59
32
73.71999
13
32.77
23
-15.45
33
74.25
0
3DFACE
8
ACESSORIO
10
29.98
20
-16.05
30
75.11
11
29.5
21
-19.3
31
74.47
12
30.85
22
-18.97
32
74.1
13
31.4
23
-15.77
33
74.68999
0
3DFACE
8
ACESSORIO
10
28.53
20
-16.3
30
75.5
11
28.12
21
-19.6
31
74.82001
12
29.5
22
-19.3
32
74.47
13
29.98
23
-16.05
33
75.11
0
3DFACE
8
ACESSORIO
10
27.07
20
-16.51
30
75.83
11
26.7
21
-19.84
31
75.13
12
28.12
22
-19.6
32
74.82001
13
28.53
23
-16.3
33
75.5
0
3DFACE
8
ACESSORIO
10
25.57
20
-16.68
30
76.13
11
25.28
21
-20.05
31
75.4
12
26.7
22
-19.84
32
75.13
13
27.07
23
-16.51
33
75.83
0
3DFACE
8
ACESSORIO
10
24.08
20
-16.83
30
76.36
11
23.85
21
-20.19
31
75.62
12
25.28
22
-20.05
32
75.4
13
25.57
23
-16.68
33
76.13
0
3DFACE
8
ACESSORIO
10
22.62
20
-16.92
30
76.53
11
22.45
21
-20.3
31
75.78999
12
23.85
22
-20.19
32
75.62
13
24.08
23
-16.83
33
76.36
0
3DFACE
8
ACESSORIO
10
21.17
20
-16.98
30
76.63
11
21.08
21
-20.36
31
75.9
12
22.45
22
-20.3
32
75.78999
13
22.62
23
-16.92
33
76.53
0
3DFACE
8
ACESSORIO
10
19.77
20
-17
30
76.66
11
19.77
21
-20.36
31
75.92
12
21.08
22
-20.36
32
75.9
13
21.17
23
-16.98
33
76.63
0
3DFACE
8
ACESSORIO
10
38.25
20
-11.06
30
72.59
11
37.42
21
-13.87
31
72.39
12
37.72
22
-13.43
32
71.73
13
38.47
23
-10.73
33
71.73
0
3DFACE
8
ACESSORIO
10
37.15
20
-11.38
30
73.15
11
36.42
21
-14.32
31
72.87
12
37.42
22
-13.87
32
72.39
13
38.25
23
-11.06
33
72.59
0
3DFACE
8
ACESSORIO
10
35.93
20
-11.68
30
73.71
11
35.28
21
-14.71
31
73.34
12
36.42
22
-14.32
32
72.87
13
37.15
23
-11.38
33
73.15
0
3DFACE
8
ACESSORIO
10
34.65
20
-11.98
30
74.24
11
34.07
21
-15.09
31
73.8
12
35.28
22
-14.71
32
73.34
13
35.93
23
-11.68
33
73.71
0
3DFACE
8
ACESSORIO
10
33.28
20
-12.25
30
74.75999
11
32.77
21
-15.45
31
74.25
12
34.07
22
-15.09
32
73.8
13
34.65
23
-11.98
33
74.24
0
3DFACE
8
ACESSORIO
10
31.87
20
-12.52
30
75.24
11
31.4
21
-15.77
31
74.68999
12
32.77
22
-15.45
32
74.25
13
33.28
23
-12.25
33
74.75999
0
3DFACE
8
ACESSORIO
10
30.4
20
-12.75
30
75.68
11
29.98
21
-16.05
31
75.11
12
31.4
22
-15.77
32
74.68999
13
31.87
23
-12.52
33
75.24
0
3DFACE
8
ACESSORIO
10
28.9
20
-12.96
30
76.09
11
28.53
21
-16.3
31
75.5
12
29.98
22
-16.05
32
75.11
13
30.4
23
-12.75
33
75.68
0
3DFACE
8
ACESSORIO
10
27.38
20
-13.15
30
76.44
11
27.07
21
-16.51
31
75.83
12
28.53
22
-16.3
32
75.5
13
28.9
23
-12.96
33
76.09
0
3DFACE
8
ACESSORIO
10
25.85
20
-13.31
30
76.74
11
25.57
21
-16.68
31
76.13
12
27.07
22
-16.51
32
75.83
13
27.38
23
-13.15
33
76.44
0
3DFACE
8
ACESSORIO
10
24.3
20
-13.42
30
76.97
11
24.08
21
-16.83
31
76.36
12
25.57
22
-16.68
32
76.13
13
25.85
23
-13.31
33
76.74
0
3DFACE
8
ACESSORIO
10
22.77
20
-13.51
30
77.14
11
22.62
21
-16.92
31
76.53
12
24.08
22
-16.83
32
76.36
13
24.3
23
-13.42
33
76.97
0
3DFACE
8
ACESSORIO
10
21.25
20
-13.56
30
77.24
11
21.17
21
-16.98
31
76.63
12
22.62
22
-16.92
32
76.53
13
22.77
23
-13.51
33
77.14
0
3DFACE
8
ACESSORIO
10
19.77
20
-13.57
30
77.25
11
19.77
21
-17
31
76.66
12
21.17
22
-16.98
32
76.63
13
21.25
23
-13.56
33
77.24
0
3DFACE
8
ACESSORIO
10
38.92
20
-8.21
30
72.75
11
38.25
21
-11.06
31
72.59
12
38.47
22
-10.73
32
71.73
13
39.08
23
-8
33
71.73
0
3DFACE
8
ACESSORIO
10
37.73
20
-8.41
30
73.43
11
37.15
21
-11.38
31
73.15
12
38.25
22
-11.06
32
72.59
13
38.92
23
-8.21
33
72.75
0
3DFACE
8
ACESSORIO
10
36.47
20
-8.63
30
74.05
11
35.93
21
-11.68
31
73.71
12
37.15
22
-11.38
32
73.15
13
37.73
23
-8.41
33
73.43
0
3DFACE
8
ACESSORIO
10
35.12
20
-8.84
30
74.64
11
34.65
21
-11.98
31
74.24
12
35.93
22
-11.68
32
73.71
13
36.47
23
-8.63
33
74.05
0
3DFACE
8
ACESSORIO
10
33.7
20
-9.04
30
75.18
11
33.28
21
-12.25
31
74.75999
12
34.65
22
-11.98
32
74.24
13
35.12
23
-8.84
33
74.64
0
3DFACE
8
ACESSORIO
10
32.25
20
-9.25
30
75.7
11
31.87
21
-12.52
31
75.24
12
33.28
22
-12.25
32
74.75999
13
33.7
23
-9.04
33
75.18
0
3DFACE
8
ACESSORIO
10
30.75
20
-9.44
30
76.17
11
30.4
21
-12.75
31
75.68
12
31.87
22
-12.52
32
75.24
13
32.25
23
-9.25
33
75.7
0
3DFACE
8
ACESSORIO
10
29.22
20
-9.610002
30
76.58
11
28.9
21
-12.96
31
76.09
12
30.4
22
-12.75
32
75.68
13
30.75
23
-9.44
33
76.17
0
3DFACE
8
ACESSORIO
10
27.65
20
-9.75
30
76.93
11
27.38
21
-13.15
31
76.44
12
28.9
22
-12.96
32
76.09
13
29.22
23
-9.610002
33
76.58
0
3DFACE
8
ACESSORIO
10
26.07
20
-9.9
30
77.23
11
25.85
21
-13.31
31
76.74
12
27.38
22
-13.15
32
76.44
13
27.65
23
-9.75
33
76.93
0
3DFACE
8
ACESSORIO
10
24.48
20
-9.99
30
77.46001
11
24.3
21
-13.42
31
76.97
12
25.85
22
-13.31
32
76.74
13
26.07
23
-9.9
33
77.23
0
3DFACE
8
ACESSORIO
10
22.9
20
-10.07
30
77.63
11
22.77
21
-13.51
31
77.14
12
24.3
22
-13.42
32
76.97
13
24.48
23
-9.99
33
77.46001
0
3DFACE
8
ACESSORIO
10
21.33
20
-10.12
30
77.71999
11
21.25
21
-13.56
31
77.24
12
22.77
22
-13.51
32
77.14
13
22.9
23
-10.07
33
77.63
0
3DFACE
8
ACESSORIO
10
19.77
20
-10.13
30
77.73
11
19.77
21
-13.57
31
77.25
12
21.25
22
-13.56
32
77.24
13
21.33
23
-10.12
33
77.71999
0
3DFACE
8
ACESSORIO
10
39.43
20
-5.35
30
72.9
11
38.92
21
-8.21
31
72.75
12
39.08
22
-8
32
71.73
13
39.53
23
-5.26
33
71.73
0
3DFACE
8
ACESSORIO
10
38.2
20
-5.48
30
73.63
11
37.73
21
-8.41
31
73.43
12
38.92
22
-8.21
32
72.75
13
39.43
23
-5.35
33
72.9
0
3DFACE
8
ACESSORIO
10
36.85
20
-5.6
30
74.32001
11
36.47
21
-8.63
31
74.05
12
37.73
22
-8.41
32
73.43
13
38.2
23
-5.48
33
73.63
0
3DFACE
8
ACESSORIO
10
35.47
20
-5.73
30
74.95
11
35.12
21
-8.84
31
74.64
12
36.47
22
-8.63
32
74.05
13
36.85
23
-5.6
33
74.32001
0
3DFACE
8
ACESSORIO
10
34.02
20
-5.87
30
75.53
11
33.7
21
-9.04
31
75.18
12
35.12
22
-8.84
32
74.64
13
35.47
23
-5.73
33
74.95
0
3DFACE
8
ACESSORIO
10
32.53
20
-6.01
30
76.06
11
32.25
21
-9.25
31
75.7
12
33.7
22
-9.04
32
75.18
13
34.02
23
-5.87
33
75.53
0
3DFACE
8
ACESSORIO
10
31.02
20
-6.14
30
76.54
11
30.75
21
-9.44
31
76.17
12
32.25
22
-9.25
32
75.7
13
32.53
23
-6.01
33
76.06
0
3DFACE
8
ACESSORIO
10
29.45
20
-6.27
30
76.96001
11
29.22
21
-9.610002
31
76.58
12
30.75
22
-9.44
32
76.17
13
31.02
23
-6.14
33
76.54
0
3DFACE
8
ACESSORIO
10
27.87
20
-6.38
30
77.31001
11
27.65
21
-9.75
31
76.93
12
29.22
22
-9.610002
32
76.58
13
29.45
23
-6.27
33
76.96001
0
3DFACE
8
ACESSORIO
10
26.25
20
-6.47
30
77.6
11
26.07
21
-9.9
31
77.23
12
27.65
22
-9.75
32
76.93
13
27.87
23
-6.38
33
77.31001
0
3DFACE
8
ACESSORIO
10
24.63
20
-6.55
30
77.82001
11
24.48
21
-9.99
31
77.46001
12
26.07
22
-9.9
32
77.23
13
26.25
23
-6.47
33
77.6
0
3DFACE
8
ACESSORIO
10
23.02
20
-6.61
30
77.98
11
22.9
21
-10.07
31
77.63
12
24.48
22
-9.99
32
77.46001
13
24.63
23
-6.55
33
77.82001
0
3DFACE
8
ACESSORIO
10
21.38
20
-6.66
30
78.06
11
21.33
21
-10.12
31
77.71999
12
22.9
22
-10.07
32
77.63
13
23.02
23
-6.61
33
77.98
0
3DFACE
8
ACESSORIO
10
19.77
20
-6.68
30
78.07
11
19.77
21
-10.13
31
77.73
12
21.33
22
-10.12
32
77.71999
13
21.38
23
-6.66
33
78.06
0
3DFACE
8
ACESSORIO
10
39.78
20
-2.51
30
72.99001
11
39.43
21
-5.35
31
72.9
12
39.53
22
-5.26
32
71.73
13
39.85
23
-2.48
33
71.73
0
3DFACE
8
ACESSORIO
10
38.5
20
-2.56
30
73.78
11
38.2
21
-5.48
31
73.63
12
39.43
22
-5.35
32
72.9
13
39.78
23
-2.51
33
72.99001
0
3DFACE
8
ACESSORIO
10
37.13
20
-2.62
30
74.5
11
36.85
21
-5.6
31
74.32001
12
38.2
22
-5.48
32
73.63
13
38.5
23
-2.56
33
73.78
0
3DFACE
8
ACESSORIO
10
35.7
20
-2.68
30
75.16
11
35.47
21
-5.73
31
74.95
12
36.85
22
-5.6
32
74.32001
13
37.13
23
-2.62
33
74.5
0
3DFACE
8
ACESSORIO
10
34.23
20
-2.75
30
75.75
11
34.02
21
-5.87
31
75.53
12
35.47
22
-5.73
32
74.95
13
35.7
23
-2.68
33
75.16
0
3DFACE
8
ACESSORIO
10
32.73
20
-2.81
30
76.3
11
32.53
21
-6.01
31
76.06
12
34.02
22
-5.87
32
75.53
13
34.23
23
-2.75
33
75.75
0
3DFACE
8
ACESSORIO
10
31.18
20
-2.89
30
76.78
11
31.02
21
-6.14
31
76.54
12
32.53
22
-6.01
32
76.06
13
32.73
23
-2.81
33
76.3
0
3DFACE
8
ACESSORIO
10
29.6
20
-2.95
30
77.2
11
29.45
21
-6.27
31
76.96001
12
31.02
22
-6.14
32
76.54
13
31.18
23
-2.89
33
76.78
0
3DFACE
8
ACESSORIO
10
28
20
-3.01
30
77.55
11
27.87
21
-6.38
31
77.31001
12
29.45
22
-6.27
32
76.96001
13
29.6
23
-2.95
33
77.2
0
3DFACE
8
ACESSORIO
10
26.38
20
-3.08
30
77.84
11
26.25
21
-6.47
31
77.6
12
27.87
22
-6.38
32
77.31001
13
28
23
-3.01
33
77.55
0
3DFACE
8
ACESSORIO
10
24.73
20
-3.12
30
78.04
11
24.63
21
-6.55
31
77.82001
12
26.25
22
-6.47
32
77.6
13
26.38
23
-3.08
33
77.84
0
3DFACE
8
ACESSORIO
10
23.08
20
-3.16
30
78.18
11
23.02
21
-6.61
31
77.98
12
24.63
22
-6.55
32
77.82001
13
24.73
23
-3.12
33
78.04
0
3DFACE
8
ACESSORIO
10
21.43
20
-3.19
30
78.25999
11
21.38
21
-6.66
31
78.06
12
23.02
22
-6.61
32
77.98
13
23.08
23
-3.16
33
78.18
0
3DFACE
8
ACESSORIO
10
19.77
20
-3.19
30
78.25999
11
19.77
21
-6.68
31
78.07
12
21.38
22
-6.66
32
78.06
13
21.43
23
-3.19
33
78.25999
0
3DFACE
8
ACESSORIO
10
39.95
20
0
30
73.03
11
39.78
21
-2.51
31
72.99001
12
39.85
22
-2.48
32
71.73
13
40
23
0
33
71.73
0
3DFACE
8
ACESSORIO
10
38.65
20
0
30
73.83
11
38.5
21
-2.56
31
73.78
12
39.78
22
-2.51
32
72.99001
13
39.95
23
0
33
73.03
0
3DFACE
8
ACESSORIO
10
37.27
20
0
30
74.56
11
37.13
21
-2.62
31
74.5
12
38.5
22
-2.56
32
73.78
13
38.65
23
0
33
73.83
0
3DFACE
8
ACESSORIO
10
35.83
20
0
30
75.24
11
35.7
21
-2.68
31
75.16
12
37.13
22
-2.62
32
74.5
13
37.27
23
0
33
74.56
0
3DFACE
8
ACESSORIO
10
34.35
20
0
30
75.84
11
34.23
21
-2.75
31
75.75
12
35.7
22
-2.68
32
75.16
13
35.83
23
0
33
75.24
0
3DFACE
8
ACESSORIO
10
32.83
20
0
30
76.39
11
32.73
21
-2.81
31
76.3
12
34.23
22
-2.75
32
75.75
13
34.35
23
0
33
75.84
0
3DFACE
8
ACESSORIO
10
31.27
20
0
30
76.87
11
31.18
21
-2.89
31
76.78
12
32.73
22
-2.81
32
76.3
13
32.83
23
0
33
76.39
0
3DFACE
8
ACESSORIO
10
29.68
20
0
30
77.28
11
29.6
21
-2.95
31
77.2
12
31.18
22
-2.89
32
76.78
13
31.27
23
0
33
76.87
0
3DFACE
8
ACESSORIO
10
28.07
20
0
30
77.63
11
28
21
-3.01
31
77.55
12
29.6
22
-2.95
32
77.2
13
29.68
23
0
33
77.28
0
3DFACE
8
ACESSORIO
10
26.43
20
0
30
77.91
11
26.38
21
-3.08
31
77.84
12
28
22
-3.01
32
77.55
13
28.07
23
0
33
77.63
0
3DFACE
8
ACESSORIO
10
24.78
20
0
30
78.12
11
24.73
21
-3.12
31
78.04
12
26.38
22
-3.08
32
77.84
13
26.43
23
0
33
77.91
0
3DFACE
8
ACESSORIO
10
23.12
20
0
30
78.25999
11
23.08
21
-3.16
31
78.18
12
24.73
22
-3.12
32
78.04
13
24.78
23
0
33
78.12
0
3DFACE
8
ACESSORIO
10
21.45
20
0
30
78.34
11
21.43
21
-3.19
31
78.25999
12
23.08
22
-3.16
32
78.18
13
23.12
23
0
33
78.25999
0
3DFACE
8
ACESSORIO
10
19.77
20
0
30
78.34
11
19.77
21
-3.19
31
78.25999
12
21.43
22
-3.19
32
78.25999
13
21.45
23
0
33
78.34
0
3DFACE
8
ACESSORIO
10
7.2
20
-24.62
30
71.78
11
8.63
21
-27.09
31
71.73
12
8.13
22
-26.17
32
71.73
13
6.68
23
-23.76
33
71.73
0
3DFACE
8
ACESSORIO
10
7.83
20
-25.43
30
71.85001
11
9.2
21
-27.94
31
71.73
12
8.63
22
-27.09
32
71.73
13
7.2
23
-24.62
33
71.78
0
3DFACE
8
ACESSORIO
10
8.58
20
-26.19
30
71.93
11
9.85
21
-28.76
31
71.73
12
9.2
22
-27.94
32
71.73
13
7.83
23
-25.43
33
71.85001
0
3DFACE
8
ACESSORIO
10
9.419998
20
-26.88
30
72.03
11
10.57
21
-29.52
31
71.73
12
9.85
22
-28.76
32
71.73
13
8.58
23
-26.19
33
71.93
0
3DFACE
8
ACESSORIO
10
10.33
20
-27.53
30
72.15
11
11.35
21
-30.21
31
71.73
12
10.57
22
-29.52
32
71.73
13
9.419998
23
-26.88
33
72.03
0
3DFACE
8
ACESSORIO
10
11.32
20
-28.1
30
72.28
11
12.18
21
-30.86
31
71.73
12
11.35
22
-30.21
32
71.73
13
10.33
23
-27.53
33
72.15
0
3DFACE
8
ACESSORIO
10
12.35
20
-28.6
30
72.39
11
13.08
21
-31.43
31
71.73
12
12.18
22
-30.86
32
71.73
13
11.32
23
-28.1
33
72.28
0
3DFACE
8
ACESSORIO
10
13.43
20
-29.03
30
72.52
11
14.02
21
-31.93
31
71.73
12
13.08
22
-31.43
32
71.73
13
12.35
23
-28.6
33
72.39
0
3DFACE
8
ACESSORIO
10
14.55
20
-29.39
30
72.64
11
14.98
21
-32.36
31
71.73
12
14.02
22
-31.93
32
71.73
13
13.43
23
-29.03
33
72.52
0
3DFACE
8
ACESSORIO
10
15.68
20
-29.69
30
72.74
11
16
21
-32.72
31
71.73
12
14.98
22
-32.36
32
71.73
13
14.55
23
-29.39
33
72.64
0
3DFACE
8
ACESSORIO
10
16.83
20
-29.91
30
72.83
11
17.03
21
-32.99
31
71.73
12
16
22
-32.72
32
71.73
13
15.68
23
-29.69
33
72.74
0
3DFACE
8
ACESSORIO
10
17.98
20
-30.07
30
72.9
11
18.08
21
-33.2
31
71.73
12
17.03
22
-32.99
32
71.73
13
16.83
23
-29.91
33
72.83
0
3DFACE
8
ACESSORIO
10
19.12
20
-30.16
30
72.95
11
19.17
21
-33.31
31
71.73
12
18.08
22
-33.2
32
71.73
13
17.98
23
-30.07
33
72.9
0
3DFACE
8
ACESSORIO
10
19.77
20
-30.2
30
72.96001
11
19.77
21
-33.34
31
71.73
12
19.17
22
-33.31
32
71.73
13
19.12
23
-30.16
33
72.95
0
3DFACE
8
ACESSORIO
10
5.87
20
-22.05
30
71.89
11
7.2
21
-24.62
31
71.78
12
6.68
22
-23.76
32
71.73
13
5.38
23
-21.25
33
71.73
0
3DFACE
8
ACESSORIO
10
6.58
20
-22.79
30
72.04
11
7.83
21
-25.43
31
71.85001
12
7.2
22
-24.62
32
71.78
13
5.87
23
-22.05
33
71.89
0
3DFACE
8
ACESSORIO
10
7.43
20
-23.47
30
72.21999
11
8.58
21
-26.19
31
71.93
12
7.83
22
-25.43
32
71.85001
13
6.58
23
-22.79
33
72.04
0
3DFACE
8
ACESSORIO
10
8.38
20
-24.1
30
72.42
11
9.419998
21
-26.88
31
72.03
12
8.58
22
-26.19
32
71.93
13
7.43
23
-23.47
33
72.21999
0
3DFACE
8
ACESSORIO
10
9.419998
20
-24.67
30
72.64
11
10.33
21
-27.53
31
72.15
12
9.419998
22
-26.88
32
72.03
13
8.38
23
-24.1
33
72.42
0
3DFACE
8
ACESSORIO
10
10.52
20
-25.18
30
72.87
11
11.32
21
-28.1
31
72.28
12
10.33
22
-27.53
32
72.15
13
9.419998
23
-24.67
33
72.64
0
3DFACE
8
ACESSORIO
10
11.67
20
-25.62
30
73.09
11
12.35
21
-28.6
31
72.39
12
11.32
22
-28.1
32
72.28
13
10.52
23
-25.18
33
72.87
0
3DFACE
8
ACESSORIO
10
12.88
20
-26
30
73.31001
11
13.43
21
-29.03
31
72.52
12
12.35
22
-28.6
32
72.39
13
11.67
23
-25.62
33
73.09
0
3DFACE
8
ACESSORIO
10
14.12
20
-26.31
30
73.52
11
14.55
21
-29.39
31
72.64
12
13.43
22
-29.03
32
72.52
13
12.88
23
-26
33
73.31001
0
3DFACE
8
ACESSORIO
10
15.37
20
-26.57
30
73.7
11
15.68
21
-29.69
31
72.74
12
14.55
22
-29.39
32
72.64
13
14.12
23
-26.31
33
73.52
0
3DFACE
8
ACESSORIO
10
16.62
20
-26.75
30
73.85001
11
16.83
21
-29.91
31
72.83
12
15.68
22
-29.69
32
72.74
13
15.37
23
-26.57
33
73.7
0
3DFACE
8
ACESSORIO
10
17.87
20
-26.88
30
73.98
11
17.98
21
-30.07
31
72.9
12
16.83
22
-29.91
32
72.83
13
16.62
23
-26.75
33
73.85001
0
3DFACE
8
ACESSORIO
10
19.07
20
-26.96
30
74.05
11
19.12
21
-30.16
31
72.95
12
17.98
22
-30.07
32
72.9
13
17.87
23
-26.88
33
73.98
0
3DFACE
8
ACESSORIO
10
19.77
20
-26.98
30
74.07
11
19.77
21
-30.2
31
72.96001
12
19.12
22
-30.16
32
72.95
13
19.07
23
-26.96
33
74.05
0
3DFACE
8
ACESSORIO
10
4.63
20
-19.4
30
72.03
11
5.87
21
-22.05
31
71.89
12
5.38
22
-21.25
32
71.73
13
4.2
23
-18.69
33
71.73
0
3DFACE
8
ACESSORIO
10
5.47
20
-20.05
30
72.28999
11
6.58
21
-22.79
31
72.04
12
5.87
22
-22.05
32
71.89
13
4.63
23
-19.4
33
72.03
0
3DFACE
8
ACESSORIO
10
6.4
20
-20.65
30
72.56
11
7.43
21
-23.47
31
72.21999
12
6.58
22
-22.79
32
72.04
13
5.47
23
-20.05
33
72.28999
0
3DFACE
8
ACESSORIO
10
7.45
20
-21.18
30
72.86
11
8.38
21
-24.1
31
72.42
12
7.43
22
-23.47
32
72.21999
13
6.4
23
-20.65
33
72.56
0
3DFACE
8
ACESSORIO
10
8.58
20
-21.69
30
73.17
11
9.419998
21
-24.67
31
72.64
12
8.38
22
-24.1
32
72.42
13
7.45
23
-21.18
33
72.86
0
3DFACE
8
ACESSORIO
10
9.78
20
-22.13
30
73.49001
11
10.52
21
-25.18
31
72.87
12
9.419998
22
-24.67
32
72.64
13
8.58
23
-21.69
33
73.17
0
3DFACE
8
ACESSORIO
10
11.05
20
-22.51
30
73.78999
11
11.67
21
-25.62
31
73.09
12
10.52
22
-25.18
32
72.87
13
9.78
23
-22.13
33
73.49001
0
3DFACE
8
ACESSORIO
10
12.37
20
-22.84
30
74.09
11
12.88
21
-26
31
73.31001
12
11.67
22
-25.62
32
73.09
13
11.05
23
-22.51
33
73.78999
0
3DFACE
8
ACESSORIO
10
13.7
20
-23.11
30
74.36001
11
14.12
21
-26.31
31
73.52
12
12.88
22
-26
32
73.31001
13
12.37
23
-22.84
33
74.09
0
3DFACE
8
ACESSORIO
10
15.05
20
-23.33
30
74.59
11
15.37
21
-26.57
31
73.7
12
14.12
22
-26.31
32
73.52
13
13.7
23
-23.11
33
74.36001
0
3DFACE
8
ACESSORIO
10
16.38
20
-23.5
30
74.8
11
16.62
21
-26.75
31
73.85001
12
15.37
22
-26.57
32
73.7
13
15.05
23
-23.33
33
74.59
0
3DFACE
8
ACESSORIO
10
17.72
20
-23.61
30
74.94
11
17.87
21
-26.88
31
73.98
12
16.62
22
-26.75
32
73.85001
13
16.38
23
-23.5
33
74.8
0
3DFACE
8
ACESSORIO
10
19
20
-23.68
30
75.04
11
19.07
21
-26.96
31
74.05
12
17.87
22
-26.88
32
73.98
13
17.72
23
-23.61
33
74.94
0
3DFACE
8
ACESSORIO
10
19.77
20
-23.69
30
75.07
11
19.77
21
-26.98
31
74.07
12
19.07
22
-26.96
32
74.05
13
19
23
-23.68
33
75.04
0
3DFACE
8
ACESSORIO
10
3.55
20
-16.67
30
72.21
11
4.63
21
-19.4
31
72.03
12
4.2
22
-18.69
32
71.73
13
3.17
23
-16.08
33
71.73
0
3DFACE
8
ACESSORIO
10
4.47
20
-17.2
30
72.57
11
5.47
21
-20.05
31
72.28999
12
4.63
22
-19.4
32
72.03
13
3.55
23
-16.67
33
72.21
0
3DFACE
8
ACESSORIO
10
5.5
20
-17.71
30
72.95
11
6.4
21
-20.65
31
72.56
12
5.47
22
-20.05
32
72.28999
13
4.47
23
-17.2
33
72.57
0
3DFACE
8
ACESSORIO
10
6.63
20
-18.18
30
73.34
11
7.45
21
-21.18
31
72.86
12
6.4
22
-20.65
32
72.56
13
5.5
23
-17.71
33
72.95
0
3DFACE
8
ACESSORIO
10
7.87
20
-18.59
30
73.71999
11
8.58
21
-21.69
31
73.17
12
7.45
22
-21.18
32
72.86
13
6.63
23
-18.18
33
73.34
0
3DFACE
8
ACESSORIO
10
9.150002
20
-18.97
30
74.1
11
9.78
21
-22.13
31
73.49001
12
8.58
22
-21.69
32
73.17
13
7.87
23
-18.59
33
73.71999
0
3DFACE
8
ACESSORIO
10
10.5
20
-19.3
30
74.47
11
11.05
21
-22.51
31
73.78999
12
9.78
22
-22.13
32
73.49001
13
9.150002
23
-18.97
33
74.1
0
3DFACE
8
ACESSORIO
10
11.88
20
-19.6
30
74.82001
11
12.37
21
-22.84
31
74.09
12
11.05
22
-22.51
32
73.78999
13
10.5
23
-19.3
33
74.47
0
3DFACE
8
ACESSORIO
10
13.3
20
-19.84
30
75.13
11
13.7
21
-23.11
31
74.36001
12
12.37
22
-22.84
32
74.09
13
11.88
23
-19.6
33
74.82001
0
3DFACE
8
ACESSORIO
10
14.73
20
-20.05
30
75.4
11
15.05
21
-23.33
31
74.59
12
13.7
22
-23.11
32
74.36001
13
13.3
23
-19.84
33
75.13
0
3DFACE
8
ACESSORIO
10
16.15
20
-20.19
30
75.62
11
16.38
21
-23.5
31
74.8
12
15.05
22
-23.33
32
74.59
13
14.73
23
-20.05
33
75.4
0
3DFACE
8
ACESSORIO
10
17.55
20
-20.3
30
75.78999
11
17.72
21
-23.61
31
74.94
12
16.38
22
-23.5
32
74.8
13
16.15
23
-20.19
33
75.62
0
3DFACE
8
ACESSORIO
10
18.92
20
-20.36
30
75.9
11
19
21
-23.68
31
75.04
12
17.72
22
-23.61
32
74.94
13
17.55
23
-20.3
33
75.78999
0
3DFACE
8
ACESSORIO
10
19.77
20
-20.36
30
75.92
11
19.77
21
-23.69
31
75.07
12
19
22
-23.68
32
75.04
13
18.92
23
-20.36
33
75.9
0
3DFACE
8
ACESSORIO
10
2.58
20
-13.87
30
72.39
11
3.55
21
-16.67
31
72.21
12
3.17
22
-16.08
32
71.73
13
2.28
23
-13.43
33
71.73
0
3DFACE
8
ACESSORIO
10
3.58
20
-14.32
30
72.87
11
4.47
21
-17.2
31
72.57
12
3.55
22
-16.67
32
72.21
13
2.58
23
-13.87
33
72.39
0
3DFACE
8
ACESSORIO
10
4.72
20
-14.71
30
73.34
11
5.5
21
-17.71
31
72.95
12
4.47
22
-17.2
32
72.57
13
3.58
23
-14.32
33
72.87
0
3DFACE
8
ACESSORIO
10
5.93
20
-15.09
30
73.8
11
6.63
21
-18.18
31
73.34
12
5.5
22
-17.71
32
72.95
13
4.72
23
-14.71
33
73.34
0
3DFACE
8
ACESSORIO
10
7.23
20
-15.45
30
74.25
11
7.87
21
-18.59
31
73.71999
12
6.63
22
-18.18
32
73.34
13
5.93
23
-15.09
33
73.8
0
3DFACE
8
ACESSORIO
10
8.599998
20
-15.77
30
74.68999
11
9.150002
21
-18.97
31
74.1
12
7.87
22
-18.59
32
73.71999
13
7.23
23
-15.45
33
74.25
0
3DFACE
8
ACESSORIO
10
10.02
20
-16.05
30
75.11
11
10.5
21
-19.3
31
74.47
12
9.150002
22
-18.97
32
74.1
13
8.599998
23
-15.77
33
74.68999
0
3DFACE
8
ACESSORIO
10
11.47
20
-16.3
30
75.5
11
11.88
21
-19.6
31
74.82001
12
10.5
22
-19.3
32
74.47
13
10.02
23
-16.05
33
75.11
0
3DFACE
8
ACESSORIO
10
12.93
20
-16.51
30
75.83
11
13.3
21
-19.84
31
75.13
12
11.88
22
-19.6
32
74.82001
13
11.47
23
-16.3
33
75.5
0
3DFACE
8
ACESSORIO
10
14.43
20
-16.68
30
76.13
11
14.73
21
-20.05
31
75.4
12
13.3
22
-19.84
32
75.13
13
12.93
23
-16.51
33
75.83
0
3DFACE
8
ACESSORIO
10
15.92
20
-16.83
30
76.36
11
16.15
21
-20.19
31
75.62
12
14.73
22
-20.05
32
75.4
13
14.43
23
-16.68
33
76.13
0
3DFACE
8
ACESSORIO
10
17.38
20
-16.92
30
76.53
11
17.55
21
-20.3
31
75.78999
12
16.15
22
-20.19
32
75.62
13
15.92
23
-16.83
33
76.36
0
3DFACE
8
ACESSORIO
10
18.83
20
-16.98
30
76.63
11
18.92
21
-20.36
31
75.9
12
17.55
22
-20.3
32
75.78999
13
17.38
23
-16.92
33
76.53
0
3DFACE
8
ACESSORIO
10
19.77
20
-17
30
76.66
11
19.77
21
-20.36
31
75.92
12
18.92
22
-20.36
32
75.9
13
18.83
23
-16.98
33
76.63
0
3DFACE
8
ACESSORIO
10
1.75
20
-11.06
30
72.59
11
2.58
21
-13.87
31
72.39
12
2.28
22
-13.43
32
71.73
13
1.53
23
-10.73
33
71.73
0
3DFACE
8
ACESSORIO
10
2.85
20
-11.38
30
73.15
11
3.58
21
-14.32
31
72.87
12
2.58
22
-13.87
32
72.39
13
1.75
23
-11.06
33
72.59
0
3DFACE
8
ACESSORIO
10
4.07
20
-11.68
30
73.71
11
4.72
21
-14.71
31
73.34
12
3.58
22
-14.32
32
72.87
13
2.85
23
-11.38
33
73.15
0
3DFACE
8
ACESSORIO
10
5.35
20
-11.98
30
74.24
11
5.93
21
-15.09
31
73.8
12
4.72
22
-14.71
32
73.34
13
4.07
23
-11.68
33
73.71
0
3DFACE
8
ACESSORIO
10
6.72
20
-12.25
30
74.75999
11
7.23
21
-15.45
31
74.25
12
5.93
22
-15.09
32
73.8
13
5.35
23
-11.98
33
74.24
0
3DFACE
8
ACESSORIO
10
8.13
20
-12.52
30
75.24
11
8.599998
21
-15.77
31
74.68999
12
7.23
22
-15.45
32
74.25
13
6.72
23
-12.25
33
74.75999
0
3DFACE
8
ACESSORIO
10
9.6
20
-12.75
30
75.68
11
10.02
21
-16.05
31
75.11
12
8.599998
22
-15.77
32
74.68999
13
8.13
23
-12.52
33
75.24
0
3DFACE
8
ACESSORIO
10
11.1
20
-12.96
30
76.09
11
11.47
21
-16.3
31
75.5
12
10.02
22
-16.05
32
75.11
13
9.6
23
-12.75
33
75.68
0
3DFACE
8
ACESSORIO
10
12.62
20
-13.15
30
76.44
11
12.93
21
-16.51
31
75.83
12
11.47
22
-16.3
32
75.5
13
11.1
23
-12.96
33
76.09
0
3DFACE
8
ACESSORIO
10
14.17
20
-13.31
30
76.74
11
14.43
21
-16.68
31
76.13
12
12.93
22
-16.51
32
75.83
13
12.62
23
-13.15
33
76.44
0
3DFACE
8
ACESSORIO
10
15.7
20
-13.42
30
76.97
11
15.92
21
-16.83
31
76.36
12
14.43
22
-16.68
32
76.13
13
14.17
23
-13.31
33
76.74
0
3DFACE
8
ACESSORIO
10
17.23
20
-13.51
30
77.14
11
17.38
21
-16.92
31
76.53
12
15.92
22
-16.83
32
76.36
13
15.7
23
-13.42
33
76.97
0
3DFACE
8
ACESSORIO
10
18.75
20
-13.56
30
77.24
11
18.83
21
-16.98
31
76.63
12
17.38
22
-16.92
32
76.53
13
17.23
23
-13.51
33
77.14
0
3DFACE
8
ACESSORIO
10
19.77
20
-13.57
30
77.25
11
19.77
21
-17
31
76.66
12
18.83
22
-16.98
32
76.63
13
18.75
23
-13.56
33
77.24
0
3DFACE
8
ACESSORIO
10
1.08
20
-8.21
30
72.75
11
1.75
21
-11.06
31
72.59
12
1.53
22
-10.73
32
71.73
13
0.92
23
-8
33
71.73
0
3DFACE
8
ACESSORIO
10
2.27
20
-8.41
30
73.43
11
2.85
21
-11.38
31
73.15
12
1.75
22
-11.06
32
72.59
13
1.08
23
-8.21
33
72.75
0
3DFACE
8
ACESSORIO
10
3.53
20
-8.63
30
74.05
11
4.07
21
-11.68
31
73.71
12
2.85
22
-11.38
32
73.15
13
2.27
23
-8.41
33
73.43
0
3DFACE
8
ACESSORIO
10
4.88
20
-8.84
30
74.64
11
5.35
21
-11.98
31
74.24
12
4.07
22
-11.68
32
73.71
13
3.53
23
-8.63
33
74.05
0
3DFACE
8
ACESSORIO
10
6.3
20
-9.04
30
75.18
11
6.72
21
-12.25
31
74.75999
12
5.35
22
-11.98
32
74.24
13
4.88
23
-8.84
33
74.64
0
3DFACE
8
ACESSORIO
10
7.75
20
-9.25
30
75.7
11
8.13
21
-12.52
31
75.24
12
6.72
22
-12.25
32
74.75999
13
6.3
23
-9.04
33
75.18
0
3DFACE
8
ACESSORIO
10
9.25
20
-9.44
30
76.17
11
9.6
21
-12.75
31
75.68
12
8.13
22
-12.52
32
75.24
13
7.75
23
-9.25
33
75.7
0
3DFACE
8
ACESSORIO
10
10.78
20
-9.610002
30
76.58
11
11.1
21
-12.96
31
76.09
12
9.6
22
-12.75
32
75.68
13
9.25
23
-9.44
33
76.17
0
3DFACE
8
ACESSORIO
10
12.35
20
-9.75
30
76.93
11
12.62
21
-13.15
31
76.44
12
11.1
22
-12.96
32
76.09
13
10.78
23
-9.610002
33
76.58
0
3DFACE
8
ACESSORIO
10
13.93
20
-9.9
30
77.23
11
14.17
21
-13.31
31
76.74
12
12.62
22
-13.15
32
76.44
13
12.35
23
-9.75
33
76.93
0
3DFACE
8
ACESSORIO
10
15.52
20
-9.99
30
77.46001
11
15.7
21
-13.42
31
76.97
12
14.17
22
-13.31
32
76.74
13
13.93
23
-9.9
33
77.23
0
3DFACE
8
ACESSORIO
10
17.1
20
-10.07
30
77.63
11
17.23
21
-13.51
31
77.14
12
15.7
22
-13.42
32
76.97
13
15.52
23
-9.99
33
77.46001
0
3DFACE
8
ACESSORIO
10
18.68
20
-10.12
30
77.71999
11
18.75
21
-13.56
31
77.24
12
17.23
22
-13.51
32
77.14
13
17.1
23
-10.07
33
77.63
0
3DFACE
8
ACESSORIO
10
19.77
20
-10.13
30
77.73
11
19.77
21
-13.57
31
77.25
12
18.75
22
-13.56
32
77.24
13
18.68
23
-10.12
33
77.71999
0
3DFACE
8
ACESSORIO
10
0.57
20
-5.35
30
72.9
11
1.08
21
-8.21
31
72.75
12
0.92
22
-8
32
71.73
13
0.47
23
-5.26
33
71.73
0
3DFACE
8
ACESSORIO
10
1.82
20
-5.48
30
73.63
11
2.27
21
-8.41
31
73.43
12
1.08
22
-8.21
32
72.75
13
0.57
23
-5.35
33
72.9
0
3DFACE
8
ACESSORIO
10
3.15
20
-5.6
30
74.32001
11
3.53
21
-8.63
31
74.05
12
2.27
22
-8.41
32
73.43
13
1.82
23
-5.48
33
73.63
0
3DFACE
8
ACESSORIO
10
4.53
20
-5.73
30
74.95
11
4.88
21
-8.84
31
74.64
12
3.53
22
-8.63
32
74.05
13
3.15
23
-5.6
33
74.32001
0
3DFACE
8
ACESSORIO
10
5.98
20
-5.87
30
75.53
11
6.3
21
-9.04
31
75.18
12
4.88
22
-8.84
32
74.64
13
4.53
23
-5.73
33
74.95
0
3DFACE
8
ACESSORIO
10
7.47
20
-6.01
30
76.06
11
7.75
21
-9.25
31
75.7
12
6.3
22
-9.04
32
75.18
13
5.98
23
-5.87
33
75.53
0
3DFACE
8
ACESSORIO
10
9
20
-6.14
30
76.54
11
9.25
21
-9.44
31
76.17
12
7.75
22
-9.25
32
75.7
13
7.47
23
-6.01
33
76.06
0
3DFACE
8
ACESSORIO
10
10.55
20
-6.27
30
76.96001
11
10.78
21
-9.610002
31
76.58
12
9.25
22
-9.44
32
76.17
13
9
23
-6.14
33
76.54
0
3DFACE
8
ACESSORIO
10
12.13
20
-6.38
30
77.31001
11
12.35
21
-9.75
31
76.93
12
10.78
22
-9.610002
32
76.58
13
10.55
23
-6.27
33
76.96001
0
3DFACE
8
ACESSORIO
10
13.75
20
-6.47
30
77.6
11
13.93
21
-9.9
31
77.23
12
12.35
22
-9.75
32
76.93
13
12.13
23
-6.38
33
77.31001
0
3DFACE
8
ACESSORIO
10
15.37
20
-6.55
30
77.82001
11
15.52
21
-9.99
31
77.46001
12
13.93
22
-9.9
32
77.23
13
13.75
23
-6.47
33
77.6
0
3DFACE
8
ACESSORIO
10
16.98
20
-6.61
30
77.98
11
17.1
21
-10.07
31
77.63
12
15.52
22
-9.99
32
77.46001
13
15.37
23
-6.55
33
77.82001
0
3DFACE
8
ACESSORIO
10
18.62
20
-6.66
30
78.06
11
18.68
21
-10.12
31
77.71999
12
17.1
22
-10.07
32
77.63
13
16.98
23
-6.61
33
77.98
0
3DFACE
8
ACESSORIO
10
19.77
20
-6.68
30
78.07
11
19.77
21
-10.13
31
77.73
12
18.68
22
-10.12
32
77.71999
13
18.62
23
-6.66
33
78.06
0
3DFACE
8
ACESSORIO
10
0.22
20
-2.51
30
72.99001
11
0.57
21
-5.35
31
72.9
12
0.47
22
-5.26
32
71.73
13
0.17
23
-2.48
33
71.73
0
3DFACE
8
ACESSORIO
10
1.5
20
-2.56
30
73.78
11
1.82
21
-5.48
31
73.63
12
0.57
22
-5.35
32
72.9
13
0.22
23
-2.51
33
72.99001
0
3DFACE
8
ACESSORIO
10
2.88
20
-2.62
30
74.5
11
3.15
21
-5.6
31
74.32001
12
1.82
22
-5.48
32
73.63
13
1.5
23
-2.56
33
73.78
0
3DFACE
8
ACESSORIO
10
4.3
20
-2.68
30
75.16
11
4.53
21
-5.73
31
74.95
12
3.15
22
-5.6
32
74.32001
13
2.88
23
-2.62
33
74.5
0
3DFACE
8
ACESSORIO
10
5.77
20
-2.75
30
75.75
11
5.98
21
-5.87
31
75.53
12
4.53
22
-5.73
32
74.95
13
4.3
23
-2.68
33
75.16
0
3DFACE
8
ACESSORIO
10
7.27
20
-2.81
30
76.3
11
7.47
21
-6.01
31
76.06
12
5.98
22
-5.87
32
75.53
13
5.77
23
-2.75
33
75.75
0
3DFACE
8
ACESSORIO
10
8.820002
20
-2.89
30
76.78
11
9
21
-6.14
31
76.54
12
7.47
22
-6.01
32
76.06
13
7.27
23
-2.81
33
76.3
0
3DFACE
8
ACESSORIO
10
10.4
20
-2.95
30
77.2
11
10.55
21
-6.27
31
76.96001
12
9
22
-6.14
32
76.54
13
8.820002
23
-2.89
33
76.78
0
3DFACE
8
ACESSORIO
10
12
20
-3.01
30
77.55
11
12.13
21
-6.38
31
77.31001
12
10.55
22
-6.27
32
76.96001
13
10.4
23
-2.95
33
77.2
0
3DFACE
8
ACESSORIO
10
13.62
20
-3.08
30
77.84
11
13.75
21
-6.47
31
77.6
12
12.13
22
-6.38
32
77.31001
13
12
23
-3.01
33
77.55
0
3DFACE
8
ACESSORIO
10
15.27
20
-3.12
30
78.04
11
15.37
21
-6.55
31
77.82001
12
13.75
22
-6.47
32
77.6
13
13.62
23
-3.08
33
77.84
0
3DFACE
8
ACESSORIO
10
16.92
20
-3.16
30
78.18
11
16.98
21
-6.61
31
77.98
12
15.37
22
-6.55
32
77.82001
13
15.27
23
-3.12
33
78.04
0
3DFACE
8
ACESSORIO
10
18.57
20
-3.19
30
78.25999
11
18.62
21
-6.66
31
78.06
12
16.98
22
-6.61
32
77.98
13
16.92
23
-3.16
33
78.18
0
3DFACE
8
ACESSORIO
10
19.77
20
-3.19
30
78.25999
11
19.77
21
-6.68
31
78.07
12
18.62
22
-6.66
32
78.06
13
18.57
23
-3.19
33
78.25999
0
3DFACE
8
ACESSORIO
10
0.05
20
0
30
73.03
11
0.22
21
-2.51
31
72.99001
12
0.17
22
-2.48
32
71.73
13
0
23
0
33
71.73
0
3DFACE
8
ACESSORIO
10
1.35
20
0
30
73.83
11
1.5
21
-2.56
31
73.78
12
0.22
22
-2.51
32
72.99001
13
0.05
23
0
33
73.03
0
3DFACE
8
ACESSORIO
10
2.73
20
0
30
74.56
11
2.88
21
-2.62
31
74.5
12
1.5
22
-2.56
32
73.78
13
1.35
23
0
33
73.83
0
3DFACE
8
ACESSORIO
10
4.17
20
0
30
75.24
11
4.3
21
-2.68
31
75.16
12
2.88
22
-2.62
32
74.5
13
2.73
23
0
33
74.56
0
3DFACE
8
ACESSORIO
10
5.65
20
0
30
75.84
11
5.77
21
-2.75
31
75.75
12
4.3
22
-2.68
32
75.16
13
4.17
23
0
33
75.24
0
3DFACE
8
ACESSORIO
10
7.17
20
0
30
76.39
11
7.27
21
-2.81
31
76.3
12
5.77
22
-2.75
32
75.75
13
5.65
23
0
33
75.84
0
3DFACE
8
ACESSORIO
10
8.73
20
0
30
76.87
11
8.820002
21
-2.89
31
76.78
12
7.27
22
-2.81
32
76.3
13
7.17
23
0
33
76.39
0
3DFACE
8
ACESSORIO
10
10.32
20
0
30
77.28
11
10.4
21
-2.95
31
77.2
12
8.820002
22
-2.89
32
76.78
13
8.73
23
0
33
76.87
0
3DFACE
8
ACESSORIO
10
11.93
20
0
30
77.63
11
12
21
-3.01
31
77.55
12
10.4
22
-2.95
32
77.2
13
10.32
23
0
33
77.28
0
3DFACE
8
ACESSORIO
10
13.57
20
0
30
77.91
11
13.62
21
-3.08
31
77.84
12
12
22
-3.01
32
77.55
13
11.93
23
0
33
77.63
0
3DFACE
8
ACESSORIO
10
15.22
20
0
30
78.12
11
15.27
21
-3.12
31
78.04
12
13.62
22
-3.08
32
77.84
13
13.57
23
0
33
77.91
0
3DFACE
8
ACESSORIO
10
16.88
20
0
30
78.25999
11
16.92
21
-3.16
31
78.18
12
15.27
22
-3.12
32
78.04
13
15.22
23
0
33
78.12
0
3DFACE
8
ACESSORIO
10
18.57
20
0
30
78.34
11
18.57
21
-3.19
31
78.25999
12
16.92
22
-3.16
32
78.18
13
16.88
23
0
33
78.25999
0
3DFACE
8
ACESSORIO
10
19.77
20
0
30
78.34
11
19.77
21
-3.19
31
78.25999
12
18.57
22
-3.19
32
78.25999
13
18.57
23
0
33
78.34
0
3DFACE
8
ACESSORIO
10
0.47
20
0
30
47.19
11
39.53
21
0
31
47.19
12
40
22
0
32
51.14
13
0
23
0
33
51.14
0
3DFACE
8
ACESSORIO
10
1.03
20
0
30
43.23
11
38.97
21
0
31
43.23
12
39.53
22
0
32
47.19
13
0.47
23
0
33
47.19
0
3DFACE
8
ACESSORIO
10
1.72
20
0
30
39.28
11
38.28
21
0
31
39.28
12
38.97
22
0
32
43.23
13
1.03
23
0
33
43.23
0
3DFACE
8
ACESSORIO
10
2.52
20
0
30
35.35
11
37.48
21
0
31
35.35
12
38.28
22
0
32
39.28
13
1.72
23
0
33
39.28
0
3DFACE
8
ACESSORIO
10
3.43
20
0
30
31.63
11
36.57
21
0
31
31.63
12
37.48
22
0
32
35.35
13
2.52
23
0
33
35.35
0
3DFACE
8
ACESSORIO
10
4.45
20
0
30
27.74
11
35.55
21
0
31
27.74
12
36.57
22
0
32
31.63
13
3.43
23
0
33
31.63
0
3DFACE
8
ACESSORIO
10
5.58
20
0
30
23.84
11
34.42
21
0
31
23.84
12
35.55
22
0
32
27.74
13
4.45
23
0
33
27.74
0
3DFACE
8
ACESSORIO
10
6.83
20
0
30
19.99
11
33.17
21
0
31
19.99
12
34.42
22
0
32
23.84
13
5.58
23
0
33
23.84
0
3DFACE
8
ACESSORIO
10
8.179998
20
0
30
16.15
11
31.82
21
0
31
16.15
12
33.17
22
0
32
19.99
13
6.83
23
0
33
19.99
0
3DFACE
8
ACESSORIO
10
9.650002
20
0
30
12.34
11
30.35
21
0
31
12.34
12
31.82
22
0
32
16.15
13
8.179998
23
0
33
16.15
0
3DFACE
8
ACESSORIO
10
11.22
20
0
30
8.55
11
28.78
21
0
31
8.55
12
30.35
22
0
32
12.34
13
9.650002
23
0
33
12.34
0
3DFACE
8
ACESSORIO
10
12.88
20
0
30
4.78
11
27.12
21
0
31
4.78
12
28.78
22
0
32
8.55
13
11.22
23
0
33
8.55
0
3DFACE
8
ACESSORIO
10
15.5
20
0
30
1.45
11
24.5
21
0
31
1.45
12
27.12
22
0
32
4.78
13
12.88
23
0
33
4.78
0
3DFACE
8
ACESSORIO
10
19.88
20
-49.49
30
7.58
11
19.77
21
-51.73
31
8.26
12
19.77
22
-46.34
32
6.38
13
19.77
23
-44.12
33
5.66
0
3DFACE
8
ACESSORIO
10
20.12
20
-54.9
30
9.74
11
19.77
21
-57.14
31
10.4
12
19.77
22
-51.73
32
8.26
13
19.88
23
-49.49
33
7.58
0
3DFACE
8
ACESSORIO
10
20.47
20
-60.04
30
12.14
11
19.77
21
-62.24
31
12.75
12
19.77
22
-57.14
32
10.4
13
20.12
23
-54.9
33
9.74
0
3DFACE
8
ACESSORIO
10
20.92
20
-65.05
30
14.78
11
19.77
21
-67.2
31
15.34
12
19.77
22
-62.24
32
12.75
13
20.47
23
-60.04
33
12.14
0
3DFACE
8
ACESSORIO
10
21.43
20
-69.89
30
17.65
11
19.77
21
-71.98
31
18.13
12
19.77
22
-67.2
32
15.34
13
20.92
23
-65.05
33
14.78
0
3DFACE
8
ACESSORIO
10
22
20
-74.55
30
20.72
11
19.77
21
-76.56
31
21.12
12
19.77
22
-71.98
32
18.13
13
21.43
23
-69.89
33
17.65
0
3DFACE
8
ACESSORIO
10
22.58
20
-79.02
30
23.99
11
19.77
21
-80.94
31
24.31
12
19.77
22
-76.56
32
21.12
13
22
23
-74.55
33
20.72
0
3DFACE
8
ACESSORIO
10
23.17
20
-83.28
30
27.44
11
19.77
21
-85.11
31
27.7
12
19.77
22
-80.94
32
24.31
13
22.58
23
-79.02
33
23.99
0
3DFACE
8
ACESSORIO
10
23.73
20
-87.31001
30
31.06
11
19.77
21
-89.06
31
31.25
12
19.77
22
-85.11
32
27.7
13
23.17
23
-83.28
33
27.44
0
3DFACE
8
ACESSORIO
10
24.25
20
-91.09
30
34.85
11
19.77
21
-92.75
31
34.78
12
19.77
22
-89.06
32
31.25
13
23.73
23
-87.31001
33
31.06
0
3DFACE
8
ACESSORIO
10
24.68
20
-94.61
30
38.6
11
19.77
21
-96.21
31
38.66
12
19.77
22
-92.75
32
34.78
13
24.25
23
-91.09
33
34.85
0
3DFACE
8
ACESSORIO
10
25.03
20
-97.85001
30
42.66
11
19.77
21
-99.41
31
42.7
12
19.77
22
-96.21
32
38.66
13
24.68
23
-94.61
33
38.6
0
3DFACE
8
ACESSORIO
10
25.27
20
-100.8
30
46.85
11
19.77
21
-102.35
31
46.86
12
19.77
22
-99.41
32
42.7
13
25.03
23
-97.85001
33
42.66
0
3DFACE
8
ACESSORIO
10
25.35
20
-103.45
30
51.14
11
19.77
21
-105
31
51.14
12
19.77
22
-102.35
32
46.86
13
25.27
23
-100.8
33
46.85
0
3DFACE
8
ACESSORIO
10
20.03
20
-47.13
30
6.91
11
19.88
21
-49.49
31
7.58
12
19.77
22
-44.12
32
5.66
13
19.77
23
-41.88
33
5
0
3DFACE
8
ACESSORIO
10
20.47
20
-52.26
30
9.120002
11
20.12
21
-54.9
31
9.74
12
19.88
22
-49.49
32
7.58
13
20.03
23
-47.13
33
6.91
0
3DFACE
8
ACESSORIO
10
21.07
20
-57.39
30
11.59
11
20.47
21
-60.04
31
12.14
12
20.12
22
-54.9
32
9.74
13
20.47
23
-52.26
33
9.120002
0
3DFACE
8
ACESSORIO
10
21.82
20
-62.24
30
14.3
11
20.92
21
-65.05
31
14.78
12
20.47
22
-60.04
32
12.14
13
21.07
23
-57.39
33
11.59
0
3DFACE
8
ACESSORIO
10
22.68
20
-66.93
30
17.22
11
21.43
21
-69.89
31
17.65
12
20.92
22
-65.05
32
14.78
13
21.82
23
-62.24
33
14.3
0
3DFACE
8
ACESSORIO
10
23.62
20
-71.43
30
20.37
11
22
21
-74.55
31
20.72
12
21.43
22
-69.89
32
17.65
13
22.68
23
-66.93
33
17.22
0
3DFACE
8
ACESSORIO
10
24.6
20
-75.74
30
23.7
11
22.58
21
-79.02
31
23.99
12
22
22
-74.55
32
20.72
13
23.62
23
-71.43
33
20.37
0
3DFACE
8
ACESSORIO
10
25.57
20
-79.82001
30
27.23
11
23.17
21
-83.28
31
27.44
12
22.58
22
-79.02
32
23.99
13
24.6
23
-75.74
33
23.7
0
3DFACE
8
ACESSORIO
10
26.5
20
-83.71
30
30.92
11
23.73
21
-87.31001
31
31.06
12
23.17
22
-83.28
32
27.44
13
25.57
23
-79.82001
33
27.23
0
3DFACE
8
ACESSORIO
10
27.35
20
-87.34
30
34.76
11
24.25
21
-91.09
31
34.85
12
23.73
22
-87.31001
32
31.06
13
26.5
23
-83.71
33
30.92
0
3DFACE
8
ACESSORIO
10
28.08
20
-90.75
30
38.55
11
24.68
21
-94.61
31
38.6
12
24.25
22
-91.09
32
34.85
13
27.35
23
-87.34
33
34.76
0
3DFACE
8
ACESSORIO
10
28.65
20
-93.87
30
42.65
11
25.03
21
-97.85001
31
42.66
12
24.68
22
-94.61
32
38.6
13
28.08
23
-90.75
33
38.55
0
3DFACE
8
ACESSORIO
10
29.03
20
-96.75
30
46.85
11
25.27
21
-100.8
31
46.85
12
25.03
22
-97.85001
32
42.66
13
28.65
23
-93.87
33
42.65
0
3DFACE
8
ACESSORIO
10
29.18
20
-99.33
30
51.14
11
25.35
21
-103.45
31
51.14
12
25.27
22
-100.8
32
46.85
13
29.03
23
-96.75
33
46.85
0
3DFACE
8
ACESSORIO
10
20.2
20
-44.67
30
6.27
11
20.03
21
-47.13
31
6.91
12
19.77
22
-41.88
32
5
13
19.77
23
-39.62
33
4.38
0
3DFACE
8
ACESSORIO
10
20.75
20
-49.58
30
8.53
11
20.47
21
-52.26
31
9.120002
12
20.03
22
-47.13
32
6.91
13
20.2
23
-44.67
33
6.27
0
3DFACE
8
ACESSORIO
10
21.47
20
-54.49
30
11.08
11
21.07
21
-57.39
31
11.59
12
20.47
22
-52.26
32
9.120002
13
20.75
23
-49.58
33
8.53
0
3DFACE
8
ACESSORIO
10
22.35
20
-59.07
30
13.86
11
21.82
21
-62.24
31
14.3
12
21.07
22
-57.39
32
11.59
13
21.47
23
-54.49
33
11.08
0
3DFACE
8
ACESSORIO
10
23.37
20
-63.49
30
16.86
11
22.68
21
-66.93
31
17.22
12
21.82
22
-62.24
32
14.3
13
22.35
23
-59.07
33
13.86
0
3DFACE
8
ACESSORIO
10
24.45
20
-67.71999
30
20.08
11
23.62
21
-71.43
31
20.37
12
22.68
22
-66.93
32
17.22
13
23.37
23
-63.49
33
16.86
0
3DFACE
8
ACESSORIO
10
25.57
20
-71.75999
30
23.48
11
24.6
21
-75.74
31
23.7
12
23.62
22
-71.43
32
20.37
13
24.45
23
-67.71999
33
20.08
0
3DFACE
8
ACESSORIO
10
26.68
20
-75.59
30
27.06
11
25.57
21
-79.82001
31
27.23
12
24.6
22
-75.74
32
23.7
13
25.57
23
-71.75999
33
23.48
0
3DFACE
8
ACESSORIO
10
27.75
20
-79.21999
30
30.8
11
26.5
21
-83.71
31
30.92
12
25.57
22
-79.82001
32
27.23
13
26.68
23
-75.59
33
27.06
0
3DFACE
8
ACESSORIO
10
28.72
20
-82.63
30
34.69
11
27.35
21
-87.34
31
34.76
12
26.5
22
-83.71
32
30.92
13
27.75
23
-79.21999
33
30.8
0
3DFACE
8
ACESSORIO
10
29.55
20
-85.82001
30
38.51
11
28.08
21
-90.75
31
38.55
12
27.35
22
-87.34
32
34.76
13
28.72
23
-82.63
33
34.69
0
3DFACE
8
ACESSORIO
10
30.2
20
-88.77
30
42.63
11
28.65
21
-93.87
31
42.65
12
28.08
22
-90.75
32
38.55
13
29.55
23
-85.82001
33
38.51
0
3DFACE
8
ACESSORIO
10
30.65
20
-91.5
30
46.85
11
29.03
21
-96.75
31
46.85
12
28.65
22
-93.87
32
42.65
13
30.2
23
-88.77
33
42.63
0
3DFACE
8
ACESSORIO
10
30.82
20
-93.98
30
51.14
11
29.18
21
-99.33
31
51.14
12
29.03
22
-96.75
32
46.85
13
30.65
23
-91.5
33
46.85
0
3DFACE
8
ACESSORIO
10
20.42
20
-42.16
30
5.66
11
20.2
21
-44.67
31
6.27
12
19.77
22
-39.62
32
4.38
13
19.77
23
-37.35
33
3.8
0
3DFACE
8
ACESSORIO
10
21.1
20
-46.82
30
8
11
20.75
21
-49.58
31
8.53
12
20.2
22
-44.67
32
6.27
13
20.42
23
-42.16
33
5.66
0
3DFACE
8
ACESSORIO
10
21.92
20
-51.32
30
10.63
11
21.47
21
-54.49
31
11.08
12
20.75
22
-49.58
32
8.53
13
21.1
23
-46.82
33
8
0
3DFACE
8
ACESSORIO
10
22.92
20
-55.78
30
13.49
11
22.35
21
-59.07
31
13.86
12
21.47
22
-54.49
32
11.08
13
21.92
23
-51.32
33
10.63
0
3DFACE
8
ACESSORIO
10
24.03
20
-59.93
30
16.56
11
23.37
21
-63.49
31
16.86
12
22.35
22
-59.07
32
13.86
13
22.92
23
-55.78
33
13.49
0
3DFACE
8
ACESSORIO
10
25.22
20
-63.9
30
19.84
11
24.45
21
-67.71999
31
20.08
12
23.37
22
-63.49
32
16.86
13
24.03
23
-59.93
33
16.56
0
3DFACE
8
ACESSORIO
10
26.45
20
-67.68
30
23.3
11
25.57
21
-71.75999
31
23.48
12
24.45
22
-67.71999
32
20.08
13
25.22
23
-63.9
33
19.84
0
3DFACE
8
ACESSORIO
10
27.65
20
-71.27
30
26.95
11
26.68
21
-75.59
31
27.06
12
25.57
22
-71.75999
32
23.48
13
26.45
23
-67.68
33
23.3
0
3DFACE
8
ACESSORIO
10
28.82
20
-74.66
30
30.74
11
27.75
21
-79.21999
31
30.8
12
26.68
22
-75.59
32
27.06
13
27.65
23
-71.27
33
26.95
0
3DFACE
8
ACESSORIO
10
29.87
20
-77.87
30
34.66
11
28.72
21
-82.63
31
34.69
12
27.75
22
-79.21999
32
30.8
13
28.82
23
-74.66
33
30.74
0
3DFACE
8
ACESSORIO
10
30.78
20
-80.85001
30
38.51
11
29.55
21
-85.82001
31
38.51
12
28.72
22
-82.63
32
34.69
13
29.87
23
-77.87
33
34.66
0
3DFACE
8
ACESSORIO
10
31.5
20
-83.63
30
42.65
11
30.2
21
-88.77
31
42.63
12
29.55
22
-85.82001
32
38.51
13
30.78
23
-80.85001
33
38.51
0
3DFACE
8
ACESSORIO
10
31.98
20
-86.2
30
46.86
11
30.65
21
-91.5
31
46.85
12
30.2
22
-88.77
32
42.63
13
31.5
23
-83.63
33
42.65
0
3DFACE
8
ACESSORIO
10
32.18
20
-88.55
30
51.14
11
30.82
21
-93.98
31
51.14
12
30.65
22
-91.5
32
46.85
13
31.98
23
-86.2
33
46.86
0
3DFACE
8
ACESSORIO
10
20.67
20
-39.59
30
5.09
11
20.42
21
-42.16
31
5.66
12
19.77
22
-37.35
32
3.8
13
19.77
23
-35.06
33
3.26
0
3DFACE
8
ACESSORIO
10
21.5
20
-43.96
30
7.5
11
21.1
21
-46.82
31
8
12
20.42
22
-42.16
32
5.66
13
20.67
23
-39.59
33
5.09
0
3DFACE
8
ACESSORIO
10
22.42
20
-48.19
30
10.22
11
21.92
21
-51.32
31
10.63
12
21.1
22
-46.82
32
8
13
21.5
23
-43.96
33
7.5
0
3DFACE
8
ACESSORIO
10
23.5
20
-52.25
30
13.15
11
22.92
21
-55.78
31
13.49
12
21.92
22
-51.32
32
10.63
13
22.42
23
-48.19
33
10.22
0
3DFACE
8
ACESSORIO
10
24.7
20
-56.29
30
16.31
11
24.03
21
-59.93
31
16.56
12
22.92
22
-55.78
32
13.49
13
23.5
23
-52.25
33
13.15
0
3DFACE
8
ACESSORIO
10
25.98
20
-60
30
19.66
11
25.22
21
-63.9
31
19.84
12
24.03
22
-59.93
32
16.56
13
24.7
23
-56.29
33
16.31
0
3DFACE
8
ACESSORIO
10
27.3
20
-63.55
30
23.17
11
26.45
21
-67.68
31
23.3
12
25.22
22
-63.9
32
19.84
13
25.98
23
-60
33
19.66
0
3DFACE
8
ACESSORIO
10
28.58
20
-66.91
30
26.86
11
27.65
21
-71.27
31
26.95
12
26.45
22
-67.68
32
23.3
13
27.3
23
-63.55
33
23.17
0
3DFACE
8
ACESSORIO
10
29.82
20
-70.08
30
30.69
11
28.82
21
-74.66
31
30.74
12
27.65
22
-71.27
32
26.95
13
28.58
23
-66.91
33
26.86
0
3DFACE
8
ACESSORIO
10
30.93
20
-73.07
30
34.64
11
29.87
21
-77.87
31
34.66
12
28.82
22
-74.66
32
30.74
13
29.82
23
-70.08
33
30.69
0
3DFACE
8
ACESSORIO
10
31.9
20
-75.88
30
38.51
11
30.78
21
-80.85001
31
38.51
12
29.87
22
-77.87
32
34.66
13
30.93
23
-73.07
33
34.64
0
3DFACE
8
ACESSORIO
10
32.67
20
-78.48
30
42.66
11
31.5
21
-83.63
31
42.65
12
30.78
22
-80.85001
32
38.51
13
31.9
23
-75.88
33
38.51
0
3DFACE
8
ACESSORIO
10
33.18
20
-80.88
30
46.88
11
31.98
21
-86.2
31
46.86
12
31.5
22
-83.63
32
42.65
13
32.67
23
-78.48
33
42.66
0
3DFACE
8
ACESSORIO
10
33.42
20
-83.11
30
51.14
11
32.18
21
-88.55
31
51.14
12
31.98
22
-86.2
32
46.86
13
33.18
23
-80.88
33
46.88
0
3DFACE
8
ACESSORIO
10
20.93
20
-36.97
30
4.56
11
20.67
21
-39.59
31
5.09
12
19.77
22
-35.06
32
3.26
13
19.77
23
-32.77
33
2.75
0
3DFACE
8
ACESSORIO
10
21.93
20
-41.04
30
7.05
11
21.5
21
-43.96
31
7.5
12
20.67
22
-39.59
32
5.09
13
20.93
23
-36.97
33
4.56
0
3DFACE
8
ACESSORIO
10
22.95
20
-44.99
30
9.85
11
22.42
21
-48.19
31
10.22
12
21.5
22
-43.96
32
7.5
13
21.93
23
-41.04
33
7.05
0
3DFACE
8
ACESSORIO
10
24.12
20
-48.78
30
12.87
11
23.5
21
-52.25
31
13.15
12
22.42
22
-48.19
32
10.22
13
22.95
23
-44.99
33
9.85
0
3DFACE
8
ACESSORIO
10
25.4
20
-52.41
30
16.1
11
24.7
21
-56.29
31
16.31
12
23.5
22
-52.25
32
13.15
13
24.12
23
-48.78
33
12.87
0
3DFACE
8
ACESSORIO
10
26.75
20
-56.03
30
19.5
11
25.98
21
-60
31
19.66
12
24.7
22
-56.29
32
16.31
13
25.4
23
-52.41
33
16.1
0
3DFACE
8
ACESSORIO
10
28.12
20
-59.35
30
23.08
11
27.3
21
-63.55
31
23.17
12
25.98
22
-60
32
19.66
13
26.75
23
-56.03
33
19.5
0
3DFACE
8
ACESSORIO
10
29.47
20
-62.49
30
26.81
11
28.58
21
-66.91
31
26.86
12
27.3
22
-63.55
32
23.17
13
28.12
23
-59.35
33
23.08
0
3DFACE
8
ACESSORIO
10
30.75
20
-65.46
30
30.67
11
29.82
21
-70.08
31
30.69
12
28.58
22
-66.91
32
26.86
13
29.47
23
-62.49
33
26.81
0
3DFACE
8
ACESSORIO
10
31.92
20
-68.27
30
34.66
11
30.93
21
-73.07
31
34.64
12
29.82
22
-70.08
32
30.69
13
30.75
23
-65.46
33
30.67
0
3DFACE
8
ACESSORIO
10
32.92
20
-70.87
30
38.53
11
31.9
21
-75.88
31
38.51
12
30.93
22
-73.07
32
34.64
13
31.92
23
-68.27
33
34.66
0
3DFACE
8
ACESSORIO
10
33.72
20
-73.32001
30
42.69
11
32.67
21
-78.48
31
42.66
12
31.9
22
-75.88
32
38.51
13
32.92
23
-70.87
33
38.53
0
3DFACE
8
ACESSORIO
10
34.27
20
-75.56
30
46.89
11
33.18
21
-80.88
31
46.88
12
32.67
22
-78.48
32
42.66
13
33.72
23
-73.32001
33
42.69
0
3DFACE
8
ACESSORIO
10
34.52
20
-77.63
30
51.14
11
33.42
21
-83.11
31
51.14
12
33.18
22
-80.88
32
46.88
13
34.27
23
-75.56
33
46.89
0
3DFACE
8
ACESSORIO
10
21.25
20
-34.32
30
4.06
11
20.93
21
-36.97
31
4.56
12
19.77
22
-32.77
32
2.75
13
19.77
23
-30.45
33
2.3
0
3DFACE
8
ACESSORIO
10
22.4
20
-38.07
30
6.63
11
21.93
21
-41.04
31
7.05
12
20.93
22
-36.97
32
4.56
13
21.25
23
-34.32
33
4.06
0
3DFACE
8
ACESSORIO
10
23.5
20
-41.7
30
9.53
11
22.95
21
-44.99
31
9.85
12
21.93
22
-41.04
32
7.05
13
22.4
23
-38.07
33
6.63
0
3DFACE
8
ACESSORIO
10
24.73
20
-45.22
30
12.63
11
24.12
21
-48.78
31
12.87
12
22.95
22
-44.99
32
9.85
13
23.5
23
-41.7
33
9.53
0
3DFACE
8
ACESSORIO
10
26.08
20
-48.62
30
15.93
11
25.4
21
-52.41
31
16.1
12
24.12
22
-48.78
32
12.87
13
24.73
23
-45.22
33
12.63
0
3DFACE
8
ACESSORIO
10
27.5
20
-51.85
30
19.4
11
26.75
21
-56.03
31
19.5
12
25.4
22
-52.41
32
16.1
13
26.08
23
-48.62
33
15.93
0
3DFACE
8
ACESSORIO
10
28.92
20
-55.09
30
23.03
11
28.12
21
-59.35
31
23.08
12
26.75
22
-56.03
32
19.5
13
27.5
23
-51.85
33
19.4
0
3DFACE
8
ACESSORIO
10
30.3
20
-58.04
30
26.79
11
29.47
21
-62.49
31
26.81
12
28.12
22
-59.35
32
23.08
13
28.92
23
-55.09
33
23.03
0
3DFACE
8
ACESSORIO
10
31.62
20
-60.82
30
30.69
11
30.75
21
-65.46
31
30.67
12
29.47
22
-62.49
32
26.81
13
30.3
23
-58.04
33
26.79
0
3DFACE
8
ACESSORIO
10
32.8
20
-63.44
30
34.68
11
31.92
21
-68.27
31
34.66
12
30.75
22
-65.46
32
30.67
13
31.62
23
-60.82
33
30.69
0
3DFACE
8
ACESSORIO
10
33.83
20
-65.89
30
38.56
11
32.92
21
-70.87
31
38.53
12
31.92
22
-68.27
32
34.66
13
32.8
23
-63.44
33
34.68
0
3DFACE
8
ACESSORIO
10
34.65
20
-68.14
30
42.71
11
33.72
21
-73.32001
31
42.69
12
32.92
22
-70.87
32
38.53
13
33.83
23
-65.89
33
38.56
0
3DFACE
8
ACESSORIO
10
35.23
20
-70.24
30
46.91
11
34.27
21
-75.56
31
46.89
12
33.72
22
-73.32001
32
42.69
13
34.65
23
-68.14
33
42.71
0
3DFACE
8
ACESSORIO
10
35.5
20
-72.14
30
51.14
11
34.52
21
-77.63
31
51.14
12
34.27
22
-75.56
32
46.89
13
35.23
23
-70.24
33
46.91
0
3DFACE
8
ACESSORIO
10
21.57
20
-31.62
30
3.61
11
21.25
21
-34.32
31
4.06
12
19.77
22
-30.45
32
2.3
13
19.77
23
-28.11
33
1.89
0
3DFACE
8
ACESSORIO
10
22.88
20
-35.04
30
6.26
11
22.4
21
-38.07
31
6.63
12
21.25
22
-34.32
32
4.06
13
21.57
23
-31.62
33
3.61
0
3DFACE
8
ACESSORIO
10
24.07
20
-38.39
30
9.26
11
23.5
21
-41.7
31
9.53
12
22.4
22
-38.07
32
6.63
13
22.88
23
-35.04
33
6.26
0
3DFACE
8
ACESSORIO
10
25.37
20
-41.62
30
12.44
11
24.73
21
-45.22
31
12.63
12
23.5
22
-41.7
32
9.53
13
24.07
23
-38.39
33
9.26
0
3DFACE
8
ACESSORIO
10
26.77
20
-44.77
30
15.8
11
26.08
21
-48.62
31
15.93
12
24.73
22
-45.22
32
12.63
13
25.37
23
-41.62
33
12.44
0
3DFACE
8
ACESSORIO
10
28.22
20
-47.78
30
19.33
11
27.5
21
-51.85
31
19.4
12
26.08
22
-48.62
32
15.93
13
26.77
23
-44.77
33
15.8
0
3DFACE
8
ACESSORIO
10
29.65
20
-50.67
30
23
11
28.92
21
-55.09
31
23.03
12
27.5
22
-51.85
32
19.4
13
28.22
23
-47.78
33
19.33
0
3DFACE
8
ACESSORIO
10
31.07
20
-53.56
30
26.81
11
30.3
21
-58.04
31
26.79
12
28.92
22
-55.09
32
23.03
13
29.65
23
-50.67
33
23
0
3DFACE
8
ACESSORIO
10
32.38
20
-56.16
30
30.71
11
31.62
21
-60.82
31
30.69
12
30.3
22
-58.04
32
26.79
13
31.07
23
-53.56
33
26.81
0
3DFACE
8
ACESSORIO
10
33.6
20
-58.59
30
34.72
11
32.8
21
-63.44
31
34.68
12
31.62
22
-60.82
32
30.69
13
32.38
23
-56.16
33
30.71
0
3DFACE
8
ACESSORIO
10
34.63
20
-60.88
30
38.61
11
33.83
21
-65.89
31
38.56
12
32.8
22
-63.44
32
34.68
13
33.6
23
-58.59
33
34.72
0
3DFACE
8
ACESSORIO
10
35.47
20
-62.98
30
42.75
11
34.65
21
-68.14
31
42.71
12
33.83
22
-65.89
32
38.56
13
34.63
23
-60.88
33
38.61
0
3DFACE
8
ACESSORIO
10
36.05
20
-64.89
30
46.94
11
35.23
21
-70.24
31
46.91
12
34.65
22
-68.14
32
42.71
13
35.47
23
-62.98
33
42.75
0
3DFACE
8
ACESSORIO
10
36.35
20
-66.61
30
51.14
11
35.5
21
-72.14
31
51.14
12
35.23
22
-70.24
32
46.91
13
36.05
23
-64.89
33
46.94
0
3DFACE
8
ACESSORIO
10
21.9
20
-28.9
30
3.18
11
21.57
21
-31.62
31
3.61
12
19.77
22
-28.11
32
1.89
13
19.77
23
-25.78
33
1.5
0
3DFACE
8
ACESSORIO
10
23.37
20
-32
30
5.92
11
22.88
21
-35.04
31
6.26
12
21.57
22
-31.62
32
3.61
13
21.9
23
-28.9
33
3.18
0
3DFACE
8
ACESSORIO
10
24.63
20
-35.03
30
9.01
11
24.07
21
-38.39
31
9.26
12
22.88
22
-35.04
32
6.26
13
23.37
23
-32
33
5.92
0
3DFACE
8
ACESSORIO
10
26
20
-37.99
30
12.28
11
25.37
21
-41.62
31
12.44
12
24.07
22
-38.39
32
9.26
13
24.63
23
-35.03
33
9.01
0
3DFACE
8
ACESSORIO
10
27.43
20
-40.88
30
15.71
11
26.77
21
-44.77
31
15.8
12
25.37
22
-41.62
32
12.44
13
26
23
-37.99
33
12.28
0
3DFACE
8
ACESSORIO
10
28.9
20
-43.68
30
19.29
11
28.22
21
-47.78
31
19.33
12
26.77
22
-44.77
32
15.8
13
27.43
23
-40.88
33
15.71
0
3DFACE
8
ACESSORIO
10
30.35
20
-46.36
30
23
11
29.65
21
-50.67
31
23
12
28.22
22
-47.78
32
19.33
13
28.9
23
-43.68
33
19.29
0
3DFACE
8
ACESSORIO
10
31.77
20
-48.92
30
26.83
11
31.07
21
-53.56
31
26.81
12
29.65
22
-50.67
32
23
13
30.35
23
-46.36
33
23
0
3DFACE
8
ACESSORIO
10
33.08
20
-51.33
30
30.76
11
32.38
21
-56.16
31
30.71
12
31.07
22
-53.56
32
26.81
13
31.77
23
-48.92
33
26.83
0
3DFACE
8
ACESSORIO
10
34.28
20
-53.75
30
34.78
11
33.6
21
-58.59
31
34.72
12
32.38
22
-56.16
32
30.71
13
33.08
23
-51.33
33
30.76
0
3DFACE
8
ACESSORIO
10
35.32
20
-55.86
30
38.66
11
34.63
21
-60.88
31
38.61
12
33.6
22
-58.59
32
34.72
13
34.28
23
-53.75
33
34.78
0
3DFACE
8
ACESSORIO
10
36.15
20
-57.79
30
42.8
11
35.47
21
-62.98
31
42.75
12
34.63
22
-60.88
32
38.61
13
35.32
23
-55.86
33
38.66
0
3DFACE
8
ACESSORIO
10
36.75
20
-59.54
30
46.97
11
36.05
21
-64.89
31
46.94
12
35.47
22
-62.98
32
42.75
13
36.15
23
-57.79
33
42.8
0
3DFACE
8
ACESSORIO
10
37.08
20
-61.09
30
51.14
11
36.35
21
-66.61
31
51.14
12
36.05
22
-64.89
32
46.94
13
36.75
23
-59.54
33
46.97
0
3DFACE
8
ACESSORIO
10
22.25
20
-26.17
30
2.81
11
21.9
21
-28.9
31
3.18
12
19.77
22
-25.78
32
1.5
13
19.77
23
-23.44
33
1.16
0
3DFACE
8
ACESSORIO
10
23.87
20
-28.92
30
5.63
11
23.37
21
-32
31
5.92
12
21.9
22
-28.9
32
3.18
13
22.25
23
-26.17
33
2.81
0
3DFACE
8
ACESSORIO
10
25.2
20
-31.63
30
8.820002
11
24.63
21
-35.03
31
9.01
12
23.37
22
-32
32
5.92
13
23.87
23
-28.92
33
5.63
0
3DFACE
8
ACESSORIO
10
26.6
20
-34.33
30
12.17
11
26
21
-37.99
31
12.28
12
24.63
22
-35.03
32
9.01
13
25.2
23
-31.63
33
8.820002
0
3DFACE
8
ACESSORIO
10
28.07
20
-36.97
30
15.66
11
27.43
21
-40.88
31
15.71
12
26
22
-37.99
32
12.28
13
26.6
23
-34.33
33
12.17
0
3DFACE
8
ACESSORIO
10
29.53
20
-39.54
30
19.29
11
28.9
21
-43.68
31
19.29
12
27.43
22
-40.88
32
15.71
13
28.07
23
-36.97
33
15.66
0
3DFACE
8
ACESSORIO
10
30.98
20
-42.02
30
23.04
11
30.35
21
-46.36
31
23
12
28.9
22
-43.68
32
19.29
13
29.53
23
-39.54
33
19.29
0
3DFACE
8
ACESSORIO
10
32.38
20
-44.39
30
26.9
11
31.77
21
-48.92
31
26.83
12
30.35
22
-46.36
32
23
13
30.98
23
-42.02
33
23.04
0
3DFACE
8
ACESSORIO
10
33.68
20
-46.64
30
30.83
11
33.08
21
-51.33
31
30.76
12
31.77
22
-48.92
32
26.83
13
32.38
23
-44.39
33
26.9
0
3DFACE
8
ACESSORIO
10
34.87
20
-48.74
30
34.85
11
34.28
21
-53.75
31
34.78
12
33.08
22
-51.33
32
30.76
13
33.68
23
-46.64
33
30.83
0
3DFACE
8
ACESSORIO
10
35.9
20
-50.69
30
38.73
11
35.32
21
-55.86
31
38.66
12
34.28
22
-53.75
32
34.78
13
34.87
23
-48.74
33
34.85
0
3DFACE
8
ACESSORIO
10
36.72
20
-52.45
30
42.84
11
36.15
21
-57.79
31
42.8
12
35.32
22
-55.86
32
38.66
13
35.9
23
-50.69
33
38.73
0
3DFACE
8
ACESSORIO
10
37.33
20
-54.17
30
46.99
11
36.75
21
-59.54
31
46.97
12
36.15
22
-57.79
32
42.8
13
36.72
23
-52.45
33
42.84
0
3DFACE
8
ACESSORIO
10
37.67
20
-55.55
30
51.14
11
37.08
21
-61.09
31
51.14
12
36.75
22
-59.54
32
46.97
13
37.33
23
-54.17
33
46.99
0
3DFACE
8
ACESSORIO
10
22.58
20
-23.42
30
2.47
11
22.25
21
-26.17
31
2.81
12
19.77
22
-23.44
32
1.16
13
19.77
23
-21.09
33
0.88
0
3DFACE
8
ACESSORIO
10
24.37
20
-25.82
30
5.37
11
23.87
21
-28.92
31
5.63
12
22.25
22
-26.17
32
2.81
13
22.58
23
-23.42
33
2.47
0
3DFACE
8
ACESSORIO
10
25.75
20
-28.24
30
8.650002
11
25.2
21
-31.63
31
8.820002
12
23.87
22
-28.92
32
5.63
13
24.37
23
-25.82
33
5.37
0
3DFACE
8
ACESSORIO
10
27.18
20
-30.65
30
12.08
11
26.6
21
-34.33
31
12.17
12
25.2
22
-31.63
32
8.820002
13
25.75
23
-28.24
33
8.650002
0
3DFACE
8
ACESSORIO
10
28.65
20
-33.05
30
15.63
11
28.07
21
-36.97
31
15.66
12
26.6
22
-34.33
32
12.17
13
27.18
23
-30.65
33
12.08
0
3DFACE
8
ACESSORIO
10
30.12
20
-35.39
30
19.32
11
29.53
21
-39.54
31
19.29
12
28.07
22
-36.97
32
15.66
13
28.65
23
-33.05
33
15.63
0
3DFACE
8
ACESSORIO
10
31.55
20
-37.68
30
23.09
11
30.98
21
-42.02
31
23.04
12
29.53
22
-39.54
32
19.29
13
30.12
23
-35.39
33
19.32
0
3DFACE
8
ACESSORIO
10
32.92
20
-39.86
30
26.96
11
32.38
21
-44.39
31
26.9
12
30.98
22
-42.02
32
23.04
13
31.55
23
-37.68
33
23.09
0
3DFACE
8
ACESSORIO
10
34.2
20
-41.92
30
30.92
11
33.68
21
-46.64
31
30.83
12
32.38
22
-44.39
32
26.9
13
32.92
23
-39.86
33
26.96
0
3DFACE
8
ACESSORIO
10
35.35
20
-43.87
30
34.73
11
34.87
21
-48.74
31
34.85
12
33.68
22
-46.64
32
30.83
13
34.2
23
-41.92
33
30.92
0
3DFACE
8
ACESSORIO
10
36.35
20
-45.65
30
38.79
11
35.9
21
-50.69
31
38.73
12
34.87
22
-48.74
32
34.85
13
35.35
23
-43.87
33
34.73
0
3DFACE
8
ACESSORIO
10
37.17
20
-47.24
30
42.89
11
36.72
21
-52.45
31
42.84
12
35.9
22
-50.69
32
38.73
13
36.35
23
-45.65
33
38.79
0
3DFACE
8
ACESSORIO
10
37.77
20
-48.65
30
47.02
11
37.33
21
-54.17
31
46.99
12
36.72
22
-52.45
32
42.84
13
37.17
23
-47.24
33
42.89
0
3DFACE
8
ACESSORIO
10
38.13
20
-49.85
30
51.14
11
37.67
21
-55.55
31
51.14
12
37.33
22
-54.17
32
46.99
13
37.77
23
-48.65
33
47.02
0
3DFACE
8
ACESSORIO
10
22.92
20
-20.69
30
2.17
11
22.58
21
-23.42
31
2.47
12
19.77
22
-21.09
32
0.88
13
19.77
23
-18.72
33
0.62
0
3DFACE
8
ACESSORIO
10
24.83
20
-22.75
30
5.16
11
24.37
21
-25.82
31
5.37
12
22.58
22
-23.42
32
2.47
13
22.92
23
-20.69
33
2.17
0
3DFACE
8
ACESSORIO
10
26.27
20
-24.86
30
8.52
11
25.75
21
-28.24
31
8.650002
12
24.37
22
-25.82
32
5.37
13
24.83
23
-22.75
33
5.16
0
3DFACE
8
ACESSORIO
10
27.73
20
-26.99
30
12.03
11
27.18
21
-30.65
31
12.08
12
25.75
22
-28.24
32
8.650002
13
26.27
23
-24.86
33
8.52
0
3DFACE
8
ACESSORIO
10
29.18
20
-29.14
30
15.63
11
28.65
21
-33.05
31
15.63
12
27.18
22
-30.65
32
12.08
13
27.73
23
-26.99
33
12.03
0
3DFACE
8
ACESSORIO
10
30.63
20
-31.25
30
19.36
11
30.12
21
-35.39
31
19.32
12
28.65
22
-33.05
32
15.63
13
29.18
23
-29.14
33
15.63
0
3DFACE
8
ACESSORIO
10
32.03
20
-33.32
30
23.16
11
31.55
21
-37.68
31
23.09
12
30.12
22
-35.39
32
19.32
13
30.63
23
-31.25
33
19.36
0
3DFACE
8
ACESSORIO
10
33.35
20
-35.33
30
27.05
11
32.92
21
-39.86
31
26.96
12
31.55
22
-37.68
32
23.09
13
32.03
23
-33.32
33
23.16
0
3DFACE
8
ACESSORIO
10
34.58
20
-37.22
30
31
11
34.2
21
-41.92
31
30.92
12
32.92
22
-39.86
32
26.96
13
33.35
23
-35.33
33
27.05
0
3DFACE
8
ACESSORIO
10
35.68
20
-38.99
30
34.81
11
35.35
21
-43.87
31
34.73
12
34.2
22
-41.92
32
30.92
13
34.58
23
-37.22
33
31
0
3DFACE
8
ACESSORIO
10
36.65
20
-40.6
30
38.86
11
36.35
21
-45.65
31
38.79
12
35.35
22
-43.87
32
34.73
13
35.68
23
-38.99
33
34.81
0
3DFACE
8
ACESSORIO
10
37.43
20
-42.04
30
42.94
11
37.17
21
-47.24
31
42.89
12
36.35
22
-45.65
32
38.79
13
36.65
23
-40.6
33
38.86
0
3DFACE
8
ACESSORIO
10
38.03
20
-43.27
30
47.04
11
37.77
21
-48.65
31
47.02
12
37.17
22
-47.24
32
42.89
13
37.43
23
-42.04
33
42.94
0
3DFACE
8
ACESSORIO
10
38.42
20
-44.28
30
51.14
11
38.13
21
-49.85
31
51.14
12
37.77
22
-48.65
32
47.02
13
38.03
23
-43.27
33
47.04
0
3DFACE
8
ACESSORIO
10
23.23
20
-17.96
30
1.91
11
22.92
21
-20.69
31
2.17
12
19.77
22
-18.72
32
0.62
13
19.77
23
-16.35
33
0.41
0
3DFACE
8
ACESSORIO
10
25.28
20
-19.68
30
4.98
11
24.83
21
-22.75
31
5.16
12
22.92
22
-20.69
32
2.17
13
23.23
23
-17.96
33
1.91
0
3DFACE
8
ACESSORIO
10
26.77
20
-21.48
30
8.429998
11
26.27
21
-24.86
31
8.52
12
24.83
22
-22.75
32
5.16
13
25.28
23
-19.68
33
4.98
0
3DFACE
8
ACESSORIO
10
28.25
20
-23.35
30
12
11
27.73
21
-26.99
31
12.03
12
26.27
22
-24.86
32
8.52
13
26.77
23
-21.48
33
8.429998
0
3DFACE
8
ACESSORIO
10
29.7
20
-25.24
30
15.66
11
29.18
21
-29.14
31
15.63
12
27.73
22
-26.99
32
12.03
13
28.25
23
-23.35
33
12
0
3DFACE
8
ACESSORIO
10
31.12
20
-27.13
30
19.41
11
30.63
21
-31.25
31
19.36
12
29.18
22
-29.14
32
15.63
13
29.7
23
-25.24
33
15.66
0
3DFACE
8
ACESSORIO
10
32.48
20
-29
30
23.24
11
32.03
21
-33.32
31
23.16
12
30.63
22
-31.25
32
19.36
13
31.12
23
-27.13
33
19.41
0
3DFACE
8
ACESSORIO
10
33.77
20
-30.8
30
27.14
11
33.35
21
-35.33
31
27.05
12
32.03
22
-33.32
32
23.16
13
32.48
23
-29
33
23.24
0
3DFACE
8
ACESSORIO
10
34.93
20
-32.5
30
31.1
11
34.58
21
-37.22
31
31
12
33.35
22
-35.33
32
27.05
13
33.77
23
-30.8
33
27.14
0
3DFACE
8
ACESSORIO
10
36
20
-34.1
30
34.9
11
35.68
21
-38.99
31
34.81
12
34.58
22
-37.22
32
31
13
34.93
23
-32.5
33
31.1
0
3DFACE
8
ACESSORIO
10
36.93
20
-35.53
30
38.94
11
36.65
21
-40.6
31
38.86
12
35.68
22
-38.99
32
34.81
13
36
23
-34.1
33
34.9
0
3DFACE
8
ACESSORIO
10
37.7
20
-36.81
30
43
11
37.43
21
-42.04
31
42.94
12
36.65
22
-40.6
32
38.86
13
36.93
23
-35.53
33
38.94
0
3DFACE
8
ACESSORIO
10
38.28
20
-37.87
30
47.07
11
38.03
21
-43.27
31
47.04
12
37.43
22
-42.04
32
42.94
13
37.7
23
-36.81
33
43
0
3DFACE
8
ACESSORIO
10
38.68
20
-38.7
30
51.14
11
38.42
21
-44.28
31
51.14
12
38.03
22
-43.27
32
47.04
13
38.28
23
-37.87
33
47.07
0
3DFACE
8
ACESSORIO
10
23.53
20
-15.23
30
1.71
11
23.23
21
-17.96
31
1.91
12
19.77
22
-16.35
32
0.41
13
19.77
23
-13.98
33
0.25
0
3DFACE
8
ACESSORIO
10
25.7
20
-16.64
30
4.84
11
25.28
21
-19.68
31
4.98
12
23.23
22
-17.96
32
1.91
13
23.53
23
-15.23
33
1.71
0
3DFACE
8
ACESSORIO
10
27.23
20
-18.15
30
8.37
11
26.77
21
-21.48
31
8.429998
12
25.28
22
-19.68
32
4.98
13
25.7
23
-16.64
33
4.84
0
3DFACE
8
ACESSORIO
10
28.72
20
-19.75
30
12
11
28.25
21
-23.35
31
12
12
26.77
22
-21.48
32
8.429998
13
27.23
23
-18.15
33
8.37
0
3DFACE
8
ACESSORIO
10
30.18
20
-21.39
30
15.7
11
29.7
21
-25.24
31
15.66
12
28.25
22
-23.35
32
12
13
28.72
23
-19.75
33
12
0
3DFACE
8
ACESSORIO
10
31.57
20
-23.05
30
19.49
11
31.12
21
-27.13
31
19.41
12
29.7
22
-25.24
32
15.66
13
30.18
23
-21.39
33
15.7
0
3DFACE
8
ACESSORIO
10
32.9
20
-24.69
30
23.33
11
32.48
21
-29
31
23.24
12
31.12
22
-27.13
32
19.41
13
31.57
23
-23.05
33
19.49
0
3DFACE
8
ACESSORIO
10
34.13
20
-26.27
30
27.23
11
33.77
21
-30.8
31
27.14
12
32.48
22
-29
32
23.24
13
32.9
23
-24.69
33
23.33
0
3DFACE
8
ACESSORIO
10
35.28
20
-27.8
30
31.19
11
34.93
21
-32.5
31
31.1
12
33.77
22
-30.8
32
27.14
13
34.13
23
-26.27
33
27.23
0
3DFACE
8
ACESSORIO
10
36.3
20
-29.2
30
34.98
11
36
21
-34.1
31
34.9
12
34.93
22
-32.5
32
31.1
13
35.28
23
-27.8
33
31.19
0
3DFACE
8
ACESSORIO
10
37.18
20
-30.46
30
39
11
36.93
21
-35.53
31
38.94
12
36
22
-34.1
32
34.9
13
36.3
23
-29.2
33
34.98
0
3DFACE
8
ACESSORIO
10
37.93
20
-31.57
30
43.05
11
37.7
21
-36.81
31
43
12
36.93
22
-35.53
32
38.94
13
37.18
23
-30.46
33
39
0
3DFACE
8
ACESSORIO
10
38.52
20
-32.47
30
47.09
11
38.28
21
-37.87
31
47.07
12
37.7
22
-36.81
32
43
13
37.93
23
-31.57
33
43.05
0
3DFACE
8
ACESSORIO
10
38.93
20
-33.13
30
51.14
11
38.68
21
-38.7
31
51.14
12
38.28
22
-37.87
32
47.07
13
38.52
23
-32.47
33
47.09
0
3DFACE
8
ACESSORIO
10
23.8
20
-12.55
30
1.54
11
23.53
21
-15.23
31
1.71
12
19.77
22
-13.98
32
0.25
13
19.77
23
-11.6
33
0.13
0
3DFACE
8
ACESSORIO
10
26.08
20
-13.64
30
4.73
11
25.7
21
-16.64
31
4.84
12
23.53
22
-15.23
32
1.71
13
23.8
23
-12.55
33
1.54
0
3DFACE
8
ACESSORIO
10
27.65
20
-14.87
30
8.34
11
27.23
21
-18.15
31
8.37
12
25.7
22
-16.64
32
4.84
13
26.08
23
-13.64
33
4.73
0
3DFACE
8
ACESSORIO
10
29.17
20
-16.19
30
12.01
11
28.72
21
-19.75
31
12
12
27.23
22
-18.15
32
8.37
13
27.65
23
-14.87
33
8.34
0
3DFACE
8
ACESSORIO
10
30.62
20
-17.57
30
15.76
11
30.18
21
-21.39
31
15.7
12
28.72
22
-19.75
32
12
13
29.17
23
-16.19
33
12.01
0
3DFACE
8
ACESSORIO
10
31.98
20
-18.99
30
19.56
11
31.57
21
-23.05
31
19.49
12
30.18
22
-21.39
32
15.7
13
30.62
23
-17.57
33
15.76
0
3DFACE
8
ACESSORIO
10
33.28
20
-20.39
30
23.43
11
32.9
21
-24.69
31
23.33
12
31.57
22
-23.05
32
19.49
13
31.98
23
-18.99
33
19.56
0
3DFACE
8
ACESSORIO
10
34.48
20
-21.77
30
27.34
11
34.13
21
-26.27
31
27.23
12
32.9
22
-24.69
32
23.33
13
33.28
23
-20.39
33
23.43
0
3DFACE
8
ACESSORIO
10
35.58
20
-23.08
30
31.28
11
35.28
21
-27.8
31
31.19
12
34.13
22
-26.27
32
27.23
13
34.48
23
-21.77
33
27.34
0
3DFACE
8
ACESSORIO
10
36.57
20
-24.29
30
35.07
11
36.3
21
-29.2
31
34.98
12
35.28
22
-27.8
32
31.19
13
35.58
23
-23.08
33
31.28
0
3DFACE
8
ACESSORIO
10
37.43
20
-25.38
30
39.06
11
37.18
21
-30.46
31
39
12
36.3
22
-29.2
32
34.98
13
36.57
23
-24.29
33
35.07
0
3DFACE
8
ACESSORIO
10
38.15
20
-26.31
30
43.09
11
37.93
21
-31.57
31
43.05
12
37.18
22
-30.46
32
39
13
37.43
23
-25.38
33
39.06
0
3DFACE
8
ACESSORIO
10
38.73
20
-27.05
30
47.12
11
38.52
21
-32.47
31
47.09
12
37.93
22
-31.57
32
43.05
13
38.15
23
-26.31
33
43.09
0
3DFACE
8
ACESSORIO
10
39.15
20
-27.56
30
51.14
11
38.93
21
-33.13
31
51.14
12
38.52
22
-32.47
32
47.09
13
38.73
23
-27.05
33
47.12
0
3DFACE
8
ACESSORIO
10
24.03
20
-9.88
30
1.42
11
23.8
21
-12.55
31
1.54
12
19.77
22
-11.6
32
0.13
13
19.77
23
-9.22
33
0.04
0
3DFACE
8
ACESSORIO
10
26.43
20
-10.7
30
4.67
11
26.08
21
-13.64
31
4.73
12
23.8
22
-12.55
32
1.54
13
24.03
23
-9.88
33
1.42
0
3DFACE
8
ACESSORIO
10
28.02
20
-11.65
30
8.33
11
27.65
21
-14.87
31
8.34
12
26.08
22
-13.64
32
4.73
13
26.43
23
-10.7
33
4.67
0
3DFACE
8
ACESSORIO
10
29.55
20
-12.71
30
12.05
11
29.17
21
-16.19
31
12.01
12
27.65
22
-14.87
32
8.34
13
28.02
23
-11.65
33
8.33
0
3DFACE
8
ACESSORIO
10
31
20
-13.83
30
15.83
11
30.62
21
-17.57
31
15.76
12
29.17
22
-16.19
32
12.01
13
29.55
23
-12.71
33
12.05
0
3DFACE
8
ACESSORIO
10
32.35
20
-14.98
30
19.66
11
31.98
21
-18.99
31
19.56
12
30.62
22
-17.57
32
15.76
13
31
23
-13.83
33
15.83
0
3DFACE
8
ACESSORIO
10
33.62
20
-16.15
30
23.52
11
33.28
21
-20.39
31
23.43
12
31.98
22
-18.99
32
19.56
13
32.35
23
-14.98
33
19.66
0
3DFACE
8
ACESSORIO
10
34.8
20
-17.3
30
27.44
11
34.48
21
-21.77
31
27.34
12
33.28
22
-20.39
32
23.43
13
33.62
23
-16.15
33
23.52
0
3DFACE
8
ACESSORIO
10
35.87
20
-18.39
30
31.37
11
35.58
21
-23.08
31
31.28
12
34.48
22
-21.77
32
27.34
13
34.8
23
-17.3
33
27.44
0
3DFACE
8
ACESSORIO
10
36.82
20
-19.4
30
35.15
11
36.57
21
-24.29
31
35.07
12
35.58
22
-23.08
32
31.28
13
35.87
23
-18.39
33
31.37
0
3DFACE
8
ACESSORIO
10
37.65
20
-20.28
30
39.13
11
37.43
21
-25.38
31
39.06
12
36.57
22
-24.29
32
35.07
13
36.82
23
-19.4
33
35.15
0
3DFACE
8
ACESSORIO
10
38.35
20
-21.04
30
43.13
11
38.15
21
-26.31
31
43.09
12
37.43
22
-25.38
32
39.06
13
37.65
23
-20.28
33
39.13
0
3DFACE
8
ACESSORIO
10
38.93
20
-21.62
30
47.13
11
38.73
21
-27.05
31
47.12
12
38.15
22
-26.31
32
43.09
13
38.35
23
-21.04
33
43.13
0
3DFACE
8
ACESSORIO
10
39.37
20
-21.99
30
51.14
11
39.15
21
-27.56
31
51.14
12
38.73
22
-27.05
32
47.12
13
38.93
23
-21.62
33
47.13
0
3DFACE
8
ACESSORIO
10
24.22
20
-7.26
30
1.36
11
24.03
21
-9.88
31
1.42
12
19.77
22
-9.22
32
0.04
13
19.77
23
-6.83
33
0
0
3DFACE
8
ACESSORIO
10
26.7
20
-7.83
30
4.64
11
26.43
21
-10.7
31
4.67
12
24.03
22
-9.88
32
1.42
13
24.22
23
-7.26
33
1.36
0
3DFACE
8
ACESSORIO
10
28.33
20
-8.51
30
8.349998
11
28.02
21
-11.65
31
8.33
12
26.43
22
-10.7
32
4.67
13
26.7
23
-7.83
33
4.64
0
3DFACE
8
ACESSORIO
10
29.87
20
-9.3
30
12.1
11
29.55
21
-12.71
31
12.05
12
28.02
22
-11.65
32
8.33
13
28.33
23
-8.51
33
8.349998
0
3DFACE
8
ACESSORIO
10
31.32
20
-10.15
30
15.91
11
31
21
-13.83
31
15.83
12
29.55
22
-12.71
32
12.05
13
29.87
23
-9.3
33
12.1
0
3DFACE
8
ACESSORIO
10
32.67
20
-11.03
30
19.75
11
32.35
21
-14.98
31
19.66
12
31
22
-13.83
32
15.83
13
31.32
23
-10.15
33
15.91
0
3DFACE
8
ACESSORIO
10
33.92
20
-11.95
30
23.63
11
33.62
21
-16.15
31
23.52
12
32.35
22
-14.98
32
19.66
13
32.67
23
-11.03
33
19.75
0
3DFACE
8
ACESSORIO
10
35.07
20
-12.83
30
27.53
11
34.8
21
-17.3
31
27.44
12
33.62
22
-16.15
32
23.52
13
33.92
23
-11.95
33
23.63
0
3DFACE
8
ACESSORIO
10
36.1
20
-13.7
30
31.46
11
35.87
21
-18.39
31
31.37
12
34.8
22
-17.3
32
27.44
13
35.07
23
-12.83
33
27.53
0
3DFACE
8
ACESSORIO
10
37.03
20
-14.47
30
35.21
11
36.82
21
-19.4
31
35.15
12
35.87
22
-18.39
32
31.37
13
36.1
23
-13.7
33
31.46
0
3DFACE
8
ACESSORIO
10
37.83
20
-15.17
30
39.18
11
37.65
21
-20.28
31
39.13
12
36.82
22
-19.4
32
35.15
13
37.03
23
-14.47
33
35.21
0
3DFACE
8
ACESSORIO
10
38.53
20
-15.75
30
43.16
11
38.35
21
-21.04
31
43.13
12
37.65
22
-20.28
32
39.13
13
37.83
23
-15.17
33
39.18
0
3DFACE
8
ACESSORIO
10
39.1
20
-16.16
30
47.15
11
38.93
21
-21.62
31
47.13
12
38.35
22
-21.04
32
43.13
13
38.53
23
-15.75
33
43.16
0
3DFACE
8
ACESSORIO
10
39.55
20
-16.42
30
51.14
11
39.37
21
-21.99
31
51.14
12
38.93
22
-21.62
32
47.13
13
39.1
23
-16.16
33
47.15
0
3DFACE
8
ACESSORIO
10
24.37
20
-4.69
30
1.33
11
24.22
21
-7.26
31
1.36
12
19.77
22
-6.83
32
0
13
19.77
23
-4.47
33
0
0
3DFACE
8
ACESSORIO
10
26.92
20
-5.02
30
4.66
11
26.7
21
-7.83
31
4.64
12
24.22
22
-7.26
32
1.36
13
24.37
23
-4.69
33
1.33
0
3DFACE
8
ACESSORIO
10
28.57
20
-5.46
30
8.39
11
28.33
21
-8.51
31
8.349998
12
26.7
22
-7.83
32
4.64
13
26.92
23
-5.02
33
4.66
0
3DFACE
8
ACESSORIO
10
30.12
20
-5.98
30
12.18
11
29.87
21
-9.3
31
12.1
12
28.33
22
-8.51
32
8.349998
13
28.57
23
-5.46
33
8.39
0
3DFACE
8
ACESSORIO
10
31.57
20
-6.55
30
16
11
31.32
21
-10.15
31
15.91
12
29.87
22
-9.3
32
12.1
13
30.12
23
-5.98
33
12.18
0
3DFACE
8
ACESSORIO
10
32.92
20
-7.17
30
19.84
11
32.67
21
-11.03
31
19.75
12
31.32
22
-10.15
32
15.91
13
31.57
23
-6.55
33
16
0
3DFACE
8
ACESSORIO
10
34.15
20
-7.8
30
23.72
11
33.92
21
-11.95
31
23.63
12
32.67
22
-11.03
32
19.75
13
32.92
23
-7.17
33
19.84
0
3DFACE
8
ACESSORIO
10
35.28
20
-8.41
30
27.61
11
35.07
21
-12.83
31
27.53
12
33.92
22
-11.95
32
23.63
13
34.15
23
-7.8
33
23.72
0
3DFACE
8
ACESSORIO
10
36.3
20
-9.01
30
31.53
11
36.1
21
-13.7
31
31.46
12
35.07
22
-12.83
32
27.53
13
35.28
23
-8.41
33
27.61
0
3DFACE
8
ACESSORIO
10
37.22
20
-9.56
30
35.28
11
37.03
21
-14.47
31
35.21
12
36.1
22
-13.7
32
31.46
13
36.3
23
-9.01
33
31.53
0
3DFACE
8
ACESSORIO
10
38.02
20
-10.04
30
39.23
11
37.83
21
-15.17
31
39.18
12
37.03
22
-14.47
32
35.21
13
37.22
23
-9.56
33
35.28
0
3DFACE
8
ACESSORIO
10
38.7
20
-10.43
30
43.19
11
38.53
21
-15.75
31
43.16
12
37.83
22
-15.17
32
39.18
13
38.02
23
-10.04
33
39.23
0
3DFACE
8
ACESSORIO
10
39.27
20
-10.7
30
47.17
11
39.1
21
-16.16
31
47.15
12
38.53
22
-15.75
32
43.16
13
38.7
23
-10.43
33
43.19
0
3DFACE
8
ACESSORIO
10
39.72
20
-10.84
30
51.14
11
39.55
21
-16.42
31
51.14
12
39.1
22
-16.16
32
47.15
13
39.27
23
-10.7
33
47.17
0
3DFACE
8
ACESSORIO
10
24.47
20
-2.16
30
1.37
11
24.37
21
-4.69
31
1.33
12
19.77
22
-4.47
32
0
13
19.77
23
-2.08
33
0.05
0
3DFACE
8
ACESSORIO
10
27.05
20
-2.3
30
4.71
11
26.92
21
-5.02
31
4.66
12
24.37
22
-4.69
32
1.33
13
24.47
23
-2.16
33
1.37
0
3DFACE
8
ACESSORIO
10
28.72
20
-2.52
30
8.469998
11
28.57
21
-5.46
31
8.39
12
26.92
22
-5.02
32
4.66
13
27.05
23
-2.3
33
4.71
0
3DFACE
8
ACESSORIO
10
30.28
20
-2.78
30
12.26
11
30.12
21
-5.98
31
12.18
12
28.57
22
-5.46
32
8.39
13
28.72
23
-2.52
33
8.469998
0
3DFACE
8
ACESSORIO
10
31.73
20
-3.08
30
16.07
11
31.57
21
-6.55
31
16
12
30.12
22
-5.98
32
12.18
13
30.28
23
-2.78
33
12.26
0
3DFACE
8
ACESSORIO
10
33.08
20
-3.39
30
19.91
11
32.92
21
-7.17
31
19.84
12
31.57
22
-6.55
32
16
13
31.73
23
-3.08
33
16.07
0
3DFACE
8
ACESSORIO
10
34.32
20
-3.71
30
23.79
11
34.15
21
-7.8
31
23.72
12
32.92
22
-7.17
32
19.84
13
33.08
23
-3.39
33
19.91
0
3DFACE
8
ACESSORIO
10
35.45
20
-4.04
30
27.67
11
35.28
21
-8.41
31
27.61
12
34.15
22
-7.8
32
23.72
13
34.32
23
-3.71
33
23.79
0
3DFACE
8
ACESSORIO
10
36.47
20
-4.36
30
31.59
11
36.3
21
-9.01
31
31.53
12
35.28
22
-8.41
32
27.61
13
35.45
23
-4.04
33
27.67
0
3DFACE
8
ACESSORIO
10
37.37
20
-4.64
30
35.33
11
37.22
21
-9.56
31
35.28
12
36.3
22
-9.01
32
31.53
13
36.47
23
-4.36
33
31.59
0
3DFACE
8
ACESSORIO
10
38.17
20
-4.88
30
39.26
11
38.02
21
-10.04
31
39.23
12
37.22
22
-9.56
32
35.28
13
37.37
23
-4.64
33
35.33
0
3DFACE
8
ACESSORIO
10
38.85
20
-5.08
30
43.22
11
38.7
21
-10.43
31
43.19
12
38.02
22
-10.04
32
39.23
13
38.17
23
-4.88
33
39.26
0
3DFACE
8
ACESSORIO
10
39.42
20
-5.21
30
47.17
11
39.27
21
-10.7
31
47.17
12
38.7
22
-10.43
32
43.19
13
38.85
23
-5.08
33
43.22
0
3DFACE
8
ACESSORIO
10
39.87
20
-5.27
30
51.14
11
39.72
21
-10.84
31
51.14
12
39.27
22
-10.7
32
47.17
13
39.42
23
-5.21
33
47.17
0
3DFACE
8
ACESSORIO
10
24.5
20
0
30
1.45
11
24.47
21
-2.16
31
1.37
12
19.77
22
-2.08
32
0.05
13
19.77
23
0
33
0.13
0
3DFACE
8
ACESSORIO
10
27.12
20
0
30
4.78
11
27.05
21
-2.3
31
4.71
12
24.47
22
-2.16
32
1.37
13
24.5
23
0
33
1.45
0
3DFACE
8
ACESSORIO
10
28.78
20
0
30
8.55
11
28.72
21
-2.52
31
8.469998
12
27.05
22
-2.3
32
4.71
13
27.12
23
0
33
4.78
0
3DFACE
8
ACESSORIO
10
30.35
20
0
30
12.34
11
30.28
21
-2.78
31
12.26
12
28.72
22
-2.52
32
8.469998
13
28.78
23
0
33
8.55
0
3DFACE
8
ACESSORIO
10
31.82
20
0
30
16.15
11
31.73
21
-3.08
31
16.07
12
30.28
22
-2.78
32
12.26
13
30.35
23
0
33
12.34
0
3DFACE
8
ACESSORIO
10
33.17
20
0
30
19.99
11
33.08
21
-3.39
31
19.91
12
31.73
22
-3.08
32
16.07
13
31.82
23
0
33
16.15
0
3DFACE
8
ACESSORIO
10
34.42
20
0
30
23.84
11
34.32
21
-3.71
31
23.79
12
33.08
22
-3.39
32
19.91
13
33.17
23
0
33
19.99
0
3DFACE
8
ACESSORIO
10
35.55
20
0
30
27.74
11
35.45
21
-4.04
31
27.67
12
34.32
22
-3.71
32
23.79
13
34.42
23
0
33
23.84
0
3DFACE
8
ACESSORIO
10
36.57
20
0
30
31.63
11
36.47
21
-4.36
31
31.59
12
35.45
22
-4.04
32
27.67
13
35.55
23
0
33
27.74
0
3DFACE
8
ACESSORIO
10
37.48
20
0
30
35.35
11
37.37
21
-4.64
31
35.33
12
36.47
22
-4.36
32
31.59
13
36.57
23
0
33
31.63
0
3DFACE
8
ACESSORIO
10
38.28
20
0
30
39.28
11
38.17
21
-4.88
31
39.26
12
37.37
22
-4.64
32
35.33
13
37.48
23
0
33
35.35
0
3DFACE
8
ACESSORIO
10
38.97
20
0
30
43.23
11
38.85
21
-5.08
31
43.22
12
38.17
22
-4.88
32
39.26
13
38.28
23
0
33
39.28
0
3DFACE
8
ACESSORIO
10
39.53
20
0
30
47.19
11
39.42
21
-5.21
31
47.17
12
38.85
22
-5.08
32
43.22
13
38.97
23
0
33
43.23
0
3DFACE
8
ACESSORIO
10
40
20
0
30
51.14
11
39.87
21
-5.27
31
51.14
12
39.42
22
-5.21
32
47.17
13
39.53
23
0
33
47.19
0
3DFACE
8
ACESSORIO
10
19.65
20
-49.49
30
7.58
11
19.77
21
-51.73
31
8.26
12
19.77
22
-46.34
32
6.38
13
19.77
23
-44.12
33
5.66
0
3DFACE
8
ACESSORIO
10
19.88
20
-54.9
30
9.74
11
19.77
21
-57.14
31
10.4
12
19.77
22
-51.73
32
8.26
13
19.65
23
-49.49
33
7.58
0
3DFACE
8
ACESSORIO
10
19.53
20
-60.04
30
12.14
11
19.77
21
-62.24
31
12.75
12
19.77
22
-57.14
32
10.4
13
19.88
23
-54.9
33
9.74
0
3DFACE
8
ACESSORIO
10
19.08
20
-65.05
30
14.78
11
19.77
21
-67.2
31
15.34
12
19.77
22
-62.24
32
12.75
13
19.53
23
-60.04
33
12.14
0
3DFACE
8
ACESSORIO
10
18.57
20
-69.89
30
17.65
11
19.77
21
-71.98
31
18.13
12
19.77
22
-67.2
32
15.34
13
19.08
23
-65.05
33
14.78
0
3DFACE
8
ACESSORIO
10
18
20
-74.55
30
20.72
11
19.77
21
-76.56
31
21.12
12
19.77
22
-71.98
32
18.13
13
18.57
23
-69.89
33
17.65
0
3DFACE
8
ACESSORIO
10
17.42
20
-79.02
30
23.99
11
19.77
21
-80.94
31
24.31
12
19.77
22
-76.56
32
21.12
13
18
23
-74.55
33
20.72
0
3DFACE
8
ACESSORIO
10
16.83
20
-83.28
30
27.44
11
19.77
21
-85.11
31
27.7
12
19.77
22
-80.94
32
24.31
13
17.42
23
-79.02
33
23.99
0
3DFACE
8
ACESSORIO
10
16.27
20
-87.31001
30
31.06
11
19.77
21
-89.06
31
31.25
12
19.77
22
-85.11
32
27.7
13
16.83
23
-83.28
33
27.44
0
3DFACE
8
ACESSORIO
10
15.75
20
-91.09
30
34.85
11
19.77
21
-92.75
31
34.78
12
19.77
22
-89.06
32
31.25
13
16.27
23
-87.31001
33
31.06
0
3DFACE
8
ACESSORIO
10
15.32
20
-94.61
30
38.6
11
19.77
21
-96.21
31
38.66
12
19.77
22
-92.75
32
34.78
13
15.75
23
-91.09
33
34.85
0
3DFACE
8
ACESSORIO
10
14.97
20
-97.85001
30
42.66
11
19.77
21
-99.41
31
42.7
12
19.77
22
-96.21
32
38.66
13
15.32
23
-94.61
33
38.6
0
3DFACE
8
ACESSORIO
10
14.73
20
-100.8
30
46.85
11
19.77
21
-102.35
31
46.86
12
19.77
22
-99.41
32
42.7
13
14.97
23
-97.85001
33
42.66
0
3DFACE
8
ACESSORIO
10
14.65
20
-103.45
30
51.14
11
19.77
21
-105
31
51.14
12
19.77
22
-102.35
32
46.86
13
14.73
23
-100.8
33
46.85
0
3DFACE
8
ACESSORIO
10
19.97
20
-47.13
30
6.91
11
19.65
21
-49.49
31
7.58
12
19.77
22
-44.12
32
5.66
13
19.77
23
-41.88
33
5
0
3DFACE
8
ACESSORIO
10
19.53
20
-52.26
30
9.120002
11
19.88
21
-54.9
31
9.74
12
19.65
22
-49.49
32
7.58
13
19.97
23
-47.13
33
6.91
0
3DFACE
8
ACESSORIO
10
18.93
20
-57.39
30
11.59
11
19.53
21
-60.04
31
12.14
12
19.88
22
-54.9
32
9.74
13
19.53
23
-52.26
33
9.120002
0
3DFACE
8
ACESSORIO
10
18.18
20
-62.24
30
14.3
11
19.08
21
-65.05
31
14.78
12
19.53
22
-60.04
32
12.14
13
18.93
23
-57.39
33
11.59
0
3DFACE
8
ACESSORIO
10
17.32
20
-66.93
30
17.22
11
18.57
21
-69.89
31
17.65
12
19.08
22
-65.05
32
14.78
13
18.18
23
-62.24
33
14.3
0
3DFACE
8
ACESSORIO
10
16.38
20
-71.43
30
20.37
11
18
21
-74.55
31
20.72
12
18.57
22
-69.89
32
17.65
13
17.32
23
-66.93
33
17.22
0
3DFACE
8
ACESSORIO
10
15.4
20
-75.74
30
23.7
11
17.42
21
-79.02
31
23.99
12
18
22
-74.55
32
20.72
13
16.38
23
-71.43
33
20.37
0
3DFACE
8
ACESSORIO
10
14.43
20
-79.82001
30
27.23
11
16.83
21
-83.28
31
27.44
12
17.42
22
-79.02
32
23.99
13
15.4
23
-75.74
33
23.7
0
3DFACE
8
ACESSORIO
10
13.5
20
-83.71
30
30.92
11
16.27
21
-87.31001
31
31.06
12
16.83
22
-83.28
32
27.44
13
14.43
23
-79.82001
33
27.23
0
3DFACE
8
ACESSORIO
10
12.65
20
-87.34
30
34.76
11
15.75
21
-91.09
31
34.85
12
16.27
22
-87.31001
32
31.06
13
13.5
23
-83.71
33
30.92
0
3DFACE
8
ACESSORIO
10
11.92
20
-90.75
30
38.55
11
15.32
21
-94.61
31
38.6
12
15.75
22
-91.09
32
34.85
13
12.65
23
-87.34
33
34.76
0
3DFACE
8
ACESSORIO
10
11.35
20
-93.87
30
42.65
11
14.97
21
-97.85001
31
42.66
12
15.32
22
-94.61
32
38.6
13
11.92
23
-90.75
33
38.55
0
3DFACE
8
ACESSORIO
10
10.97
20
-96.75
30
46.85
11
14.73
21
-100.8
31
46.85
12
14.97
22
-97.85001
32
42.66
13
11.35
23
-93.87
33
42.65
0
3DFACE
8
ACESSORIO
10
10.83
20
-99.33
30
51.14
11
14.65
21
-103.45
31
51.14
12
14.73
22
-100.8
32
46.85
13
10.97
23
-96.75
33
46.85
0
3DFACE
8
ACESSORIO
10
19.8
20
-44.67
30
6.27
11
19.97
21
-47.13
31
6.91
12
19.77
22
-41.88
32
5
13
19.77
23
-39.62
33
4.38
0
3DFACE
8
ACESSORIO
10
19.25
20
-49.58
30
8.53
11
19.53
21
-52.26
31
9.120002
12
19.97
22
-47.13
32
6.91
13
19.8
23
-44.67
33
6.27
0
3DFACE
8
ACESSORIO
10
18.53
20
-54.49
30
11.08
11
18.93
21
-57.39
31
11.59
12
19.53
22
-52.26
32
9.120002
13
19.25
23
-49.58
33
8.53
0
3DFACE
8
ACESSORIO
10
17.65
20
-59.07
30
13.86
11
18.18
21
-62.24
31
14.3
12
18.93
22
-57.39
32
11.59
13
18.53
23
-54.49
33
11.08
0
3DFACE
8
ACESSORIO
10
16.63
20
-63.49
30
16.86
11
17.32
21
-66.93
31
17.22
12
18.18
22
-62.24
32
14.3
13
17.65
23
-59.07
33
13.86
0
3DFACE
8
ACESSORIO
10
15.55
20
-67.71999
30
20.08
11
16.38
21
-71.43
31
20.37
12
17.32
22
-66.93
32
17.22
13
16.63
23
-63.49
33
16.86
0
3DFACE
8
ACESSORIO
10
14.43
20
-71.75999
30
23.48
11
15.4
21
-75.74
31
23.7
12
16.38
22
-71.43
32
20.37
13
15.55
23
-67.71999
33
20.08
0
3DFACE
8
ACESSORIO
10
13.32
20
-75.59
30
27.06
11
14.43
21
-79.82001
31
27.23
12
15.4
22
-75.74
32
23.7
13
14.43
23
-71.75999
33
23.48
0
3DFACE
8
ACESSORIO
10
12.27
20
-79.21999
30
30.8
11
13.5
21
-83.71
31
30.92
12
14.43
22
-79.82001
32
27.23
13
13.32
23
-75.59
33
27.06
0
3DFACE
8
ACESSORIO
10
11.28
20
-82.63
30
34.69
11
12.65
21
-87.34
31
34.76
12
13.5
22
-83.71
32
30.92
13
12.27
23
-79.21999
33
30.8
0
3DFACE
8
ACESSORIO
10
10.45
20
-85.82001
30
38.51
11
11.92
21
-90.75
31
38.55
12
12.65
22
-87.34
32
34.76
13
11.28
23
-82.63
33
34.69
0
3DFACE
8
ACESSORIO
10
9.8
20
-88.77
30
42.63
11
11.35
21
-93.87
31
42.65
12
11.92
22
-90.75
32
38.55
13
10.45
23
-85.82001
33
38.51
0
3DFACE
8
ACESSORIO
10
9.37
20
-91.5
30
46.85
11
10.97
21
-96.75
31
46.85
12
11.35
22
-93.87
32
42.65
13
9.8
23
-88.77
33
42.63
0
3DFACE
8
ACESSORIO
10
9.18
20
-93.98
30
51.14
11
10.83
21
-99.33
31
51.14
12
10.97
22
-96.75
32
46.85
13
9.37
23
-91.5
33
46.85
0
3DFACE
8
ACESSORIO
10
19.58
20
-42.16
30
5.66
11
19.8
21
-44.67
31
6.27
12
19.77
22
-39.62
32
4.38
13
19.77
23
-37.35
33
3.8
0
3DFACE
8
ACESSORIO
10
18.9
20
-46.82
30
8
11
19.25
21
-49.58
31
8.53
12
19.8
22
-44.67
32
6.27
13
19.58
23
-42.16
33
5.66
0
3DFACE
8
ACESSORIO
10
18.08
20
-51.32
30
10.63
11
18.53
21
-54.49
31
11.08
12
19.25
22
-49.58
32
8.53
13
18.9
23
-46.82
33
8
0
3DFACE
8
ACESSORIO
10
17.08
20
-55.78
30
13.49
11
17.65
21
-59.07
31
13.86
12
18.53
22
-54.49
32
11.08
13
18.08
23
-51.32
33
10.63
0
3DFACE
8
ACESSORIO
10
15.98
20
-59.93
30
16.56
11
16.63
21
-63.49
31
16.86
12
17.65
22
-59.07
32
13.86
13
17.08
23
-55.78
33
13.49
0
3DFACE
8
ACESSORIO
10
14.78
20
-63.9
30
19.84
11
15.55
21
-67.71999
31
20.08
12
16.63
22
-63.49
32
16.86
13
15.98
23
-59.93
33
16.56
0
3DFACE
8
ACESSORIO
10
13.55
20
-67.68
30
23.3
11
14.43
21
-71.75999
31
23.48
12
15.55
22
-67.71999
32
20.08
13
14.78
23
-63.9
33
19.84
0
3DFACE
8
ACESSORIO
10
12.35
20
-71.27
30
26.95
11
13.32
21
-75.59
31
27.06
12
14.43
22
-71.75999
32
23.48
13
13.55
23
-67.68
33
23.3
0
3DFACE
8
ACESSORIO
10
11.18
20
-74.66
30
30.74
11
12.27
21
-79.21999
31
30.8
12
13.32
22
-75.59
32
27.06
13
12.35
23
-71.27
33
26.95
0
3DFACE
8
ACESSORIO
10
10.13
20
-77.87
30
34.66
11
11.28
21
-82.63
31
34.69
12
12.27
22
-79.21999
32
30.8
13
11.18
23
-74.66
33
30.74
0
3DFACE
8
ACESSORIO
10
9.22
20
-80.85001
30
38.51
11
10.45
21
-85.82001
31
38.51
12
11.28
22
-82.63
32
34.69
13
10.13
23
-77.87
33
34.66
0
3DFACE
8
ACESSORIO
10
8.5
20
-83.63
30
42.65
11
9.8
21
-88.77
31
42.63
12
10.45
22
-85.82001
32
38.51
13
9.22
23
-80.85001
33
38.51
0
3DFACE
8
ACESSORIO
10
8.02
20
-86.2
30
46.86
11
9.37
21
-91.5
31
46.85
12
9.8
22
-88.77
32
42.63
13
8.5
23
-83.63
33
42.65
0
3DFACE
8
ACESSORIO
10
7.82
20
-88.55
30
51.14
11
9.18
21
-93.98
31
51.14
12
9.37
22
-91.5
32
46.85
13
8.02
23
-86.2
33
46.86
0
3DFACE
8
ACESSORIO
10
19.33
20
-39.59
30
5.09
11
19.58
21
-42.16
31
5.66
12
19.77
22
-37.35
32
3.8
13
19.77
23
-35.06
33
3.26
0
3DFACE
8
ACESSORIO
10
18.5
20
-43.96
30
7.5
11
18.9
21
-46.82
31
8
12
19.58
22
-42.16
32
5.66
13
19.33
23
-39.59
33
5.09
0
3DFACE
8
ACESSORIO
10
17.58
20
-48.19
30
10.22
11
18.08
21
-51.32
31
10.63
12
18.9
22
-46.82
32
8
13
18.5
23
-43.96
33
7.5
0
3DFACE
8
ACESSORIO
10
16.5
20
-52.25
30
13.15
11
17.08
21
-55.78
31
13.49
12
18.08
22
-51.32
32
10.63
13
17.58
23
-48.19
33
10.22
0
3DFACE
8
ACESSORIO
10
15.3
20
-56.29
30
16.31
11
15.98
21
-59.93
31
16.56
12
17.08
22
-55.78
32
13.49
13
16.5
23
-52.25
33
13.15
0
3DFACE
8
ACESSORIO
10
14.02
20
-60
30
19.66
11
14.78
21
-63.9
31
19.84
12
15.98
22
-59.93
32
16.56
13
15.3
23
-56.29
33
16.31
0
3DFACE
8
ACESSORIO
10
12.7
20
-63.55
30
23.17
11
13.55
21
-67.68
31
23.3
12
14.78
22
-63.9
32
19.84
13
14.02
23
-60
33
19.66
0
3DFACE
8
ACESSORIO
10
11.42
20
-66.91
30
26.86
11
12.35
21
-71.27
31
26.95
12
13.55
22
-67.68
32
23.3
13
12.7
23
-63.55
33
23.17
0
3DFACE
8
ACESSORIO
10
10.18
20
-70.08
30
30.69
11
11.18
21
-74.66
31
30.74
12
12.35
22
-71.27
32
26.95
13
11.42
23
-66.91
33
26.86
0
3DFACE
8
ACESSORIO
10
9.07
20
-73.07
30
34.64
11
10.13
21
-77.87
31
34.66
12
11.18
22
-74.66
32
30.74
13
10.18
23
-70.08
33
30.69
0
3DFACE
8
ACESSORIO
10
8.099998
20
-75.88
30
38.51
11
9.22
21
-80.85001
31
38.51
12
10.13
22
-77.87
32
34.66
13
9.07
23
-73.07
33
34.64
0
3DFACE
8
ACESSORIO
10
7.33
20
-78.48
30
42.66
11
8.5
21
-83.63
31
42.65
12
9.22
22
-80.85001
32
38.51
13
8.099998
23
-75.88
33
38.51
0
3DFACE
8
ACESSORIO
10
6.82
20
-80.88
30
46.88
11
8.02
21
-86.2
31
46.86
12
8.5
22
-83.63
32
42.65
13
7.33
23
-78.48
33
42.66
0
3DFACE
8
ACESSORIO
10
6.58
20
-83.11
30
51.14
11
7.82
21
-88.55
31
51.14
12
8.02
22
-86.2
32
46.86
13
6.82
23
-80.88
33
46.88
0
3DFACE
8
ACESSORIO
10
19.07
20
-36.97
30
4.56
11
19.33
21
-39.59
31
5.09
12
19.77
22
-35.06
32
3.26
13
19.77
23
-32.77
33
2.75
0
3DFACE
8
ACESSORIO
10
18.07
20
-41.04
30
7.05
11
18.5
21
-43.96
31
7.5
12
19.33
22
-39.59
32
5.09
13
19.07
23
-36.97
33
4.56
0
3DFACE
8
ACESSORIO
10
17.07
20
-44.99
30
9.85
11
17.58
21
-48.19
31
10.22
12
18.5
22
-43.96
32
7.5
13
18.07
23
-41.04
33
7.05
0
3DFACE
8
ACESSORIO
10
15.88
20
-48.78
30
12.87
11
16.5
21
-52.25
31
13.15
12
17.58
22
-48.19
32
10.22
13
17.07
23
-44.99
33
9.85
0
3DFACE
8
ACESSORIO
10
14.6
20
-52.41
30
16.1
11
15.3
21
-56.29
31
16.31
12
16.5
22
-52.25
32
13.15
13
15.88
23
-48.78
33
12.87
0
3DFACE
8
ACESSORIO
10
13.25
20
-56.03
30
19.5
11
14.02
21
-60
31
19.66
12
15.3
22
-56.29
32
16.31
13
14.6
23
-52.41
33
16.1
0
3DFACE
8
ACESSORIO
10
11.88
20
-59.35
30
23.08
11
12.7
21
-63.55
31
23.17
12
14.02
22
-60
32
19.66
13
13.25
23
-56.03
33
19.5
0
3DFACE
8
ACESSORIO
10
10.53
20
-62.49
30
26.81
11
11.42
21
-66.91
31
26.86
12
12.7
22
-63.55
32
23.17
13
11.88
23
-59.35
33
23.08
0
3DFACE
8
ACESSORIO
10
9.25
20
-65.46
30
30.67
11
10.18
21
-70.08
31
30.69
12
11.42
22
-66.91
32
26.86
13
10.53
23
-62.49
33
26.81
0
3DFACE
8
ACESSORIO
10
8.08
20
-68.27
30
34.66
11
9.07
21
-73.07
31
34.64
12
10.18
22
-70.08
32
30.69
13
9.25
23
-65.46
33
30.67
0
3DFACE
8
ACESSORIO
10
7.08
20
-70.87
30
38.53
11
8.099998
21
-75.88
31
38.51
12
9.07
22
-73.07
32
34.64
13
8.08
23
-68.27
33
34.66
0
3DFACE
8
ACESSORIO
10
6.28
20
-73.32001
30
42.69
11
7.33
21
-78.48
31
42.66
12
8.099998
22
-75.88
32
38.51
13
7.08
23
-70.87
33
38.53
0
3DFACE
8
ACESSORIO
10
5.73
20
-75.56
30
46.89
11
6.82
21
-80.88
31
46.88
12
7.33
22
-78.48
32
42.66
13
6.28
23
-73.32001
33
42.69
0
3DFACE
8
ACESSORIO
10
5.48
20
-77.63
30
51.14
11
6.58
21
-83.11
31
51.14
12
6.82
22
-80.88
32
46.88
13
5.73
23
-75.56
33
46.89
0
3DFACE
8
ACESSORIO
10
18.75
20
-34.32
30
4.06
11
19.07
21
-36.97
31
4.56
12
19.77
22
-32.77
32
2.75
13
19.77
23
-30.45
33
2.3
0
3DFACE
8
ACESSORIO
10
17.62
20
-38.07
30
6.63
11
18.07
21
-41.04
31
7.05
12
19.07
22
-36.97
32
4.56
13
18.75
23
-34.32
33
4.06
0
3DFACE
8
ACESSORIO
10
16.5
20
-41.7
30
9.53
11
17.07
21
-44.99
31
9.85
12
18.07
22
-41.04
32
7.05
13
17.62
23
-38.07
33
6.63
0
3DFACE
8
ACESSORIO
10
15.27
20
-45.22
30
12.63
11
15.88
21
-48.78
31
12.87
12
17.07
22
-44.99
32
9.85
13
16.5
23
-41.7
33
9.53
0
3DFACE
8
ACESSORIO
10
13.92
20
-48.62
30
15.93
11
14.6
21
-52.41
31
16.1
12
15.88
22
-48.78
32
12.87
13
15.27
23
-45.22
33
12.63
0
3DFACE
8
ACESSORIO
10
12.5
20
-51.85
30
19.4
11
13.25
21
-56.03
31
19.5
12
14.6
22
-52.41
32
16.1
13
13.92
23
-48.62
33
15.93
0
3DFACE
8
ACESSORIO
10
11.08
20
-55.09
30
23.03
11
11.88
21
-59.35
31
23.08
12
13.25
22
-56.03
32
19.5
13
12.5
23
-51.85
33
19.4
0
3DFACE
8
ACESSORIO
10
9.7
20
-58.04
30
26.79
11
10.53
21
-62.49
31
26.81
12
11.88
22
-59.35
32
23.08
13
11.08
23
-55.09
33
23.03
0
3DFACE
8
ACESSORIO
10
8.38
20
-60.82
30
30.69
11
9.25
21
-65.46
31
30.67
12
10.53
22
-62.49
32
26.81
13
9.7
23
-58.04
33
26.79
0
3DFACE
8
ACESSORIO
10
7.2
20
-63.44
30
34.68
11
8.08
21
-68.27
31
34.66
12
9.25
22
-65.46
32
30.67
13
8.38
23
-60.82
33
30.69
0
3DFACE
8
ACESSORIO
10
6.17
20
-65.89
30
38.56
11
7.08
21
-70.87
31
38.53
12
8.08
22
-68.27
32
34.66
13
7.2
23
-63.44
33
34.68
0
3DFACE
8
ACESSORIO
10
5.35
20
-68.14
30
42.71
11
6.28
21
-73.32001
31
42.69
12
7.08
22
-70.87
32
38.53
13
6.17
23
-65.89
33
38.56
0
3DFACE
8
ACESSORIO
10
4.77
20
-70.24
30
46.91
11
5.73
21
-75.56
31
46.89
12
6.28
22
-73.32001
32
42.69
13
5.35
23
-68.14
33
42.71
0
3DFACE
8
ACESSORIO
10
4.5
20
-72.14
30
51.14
11
5.48
21
-77.63
31
51.14
12
5.73
22
-75.56
32
46.89
13
4.77
23
-70.24
33
46.91
0
3DFACE
8
ACESSORIO
10
18.43
20
-31.62
30
3.61
11
18.75
21
-34.32
31
4.06
12
19.77
22
-30.45
32
2.3
13
19.77
23
-28.11
33
1.89
0
3DFACE
8
ACESSORIO
10
17.13
20
-35.04
30
6.26
11
17.62
21
-38.07
31
6.63
12
18.75
22
-34.32
32
4.06
13
18.43
23
-31.62
33
3.61
0
3DFACE
8
ACESSORIO
10
15.93
20
-38.39
30
9.26
11
16.5
21
-41.7
31
9.53
12
17.62
22
-38.07
32
6.63
13
17.13
23
-35.04
33
6.26
0
3DFACE
8
ACESSORIO
10
14.63
20
-41.62
30
12.44
11
15.27
21
-45.22
31
12.63
12
16.5
22
-41.7
32
9.53
13
15.93
23
-38.39
33
9.26
0
3DFACE
8
ACESSORIO
10
13.23
20
-44.77
30
15.8
11
13.92
21
-48.62
31
15.93
12
15.27
22
-45.22
32
12.63
13
14.63
23
-41.62
33
12.44
0
3DFACE
8
ACESSORIO
10
11.78
20
-47.78
30
19.33
11
12.5
21
-51.85
31
19.4
12
13.92
22
-48.62
32
15.93
13
13.23
23
-44.77
33
15.8
0
3DFACE
8
ACESSORIO
10
10.35
20
-50.67
30
23
11
11.08
21
-55.09
31
23.03
12
12.5
22
-51.85
32
19.4
13
11.78
23
-47.78
33
19.33
0
3DFACE
8
ACESSORIO
10
8.929998
20
-53.56
30
26.81
11
9.7
21
-58.04
31
26.79
12
11.08
22
-55.09
32
23.03
13
10.35
23
-50.67
33
23
0
3DFACE
8
ACESSORIO
10
7.62
20
-56.16
30
30.71
11
8.38
21
-60.82
31
30.69
12
9.7
22
-58.04
32
26.79
13
8.929998
23
-53.56
33
26.81
0
3DFACE
8
ACESSORIO
10
6.42
20
-58.59
30
34.72
11
7.2
21
-63.44
31
34.68
12
8.38
22
-60.82
32
30.69
13
7.62
23
-56.16
33
30.71
0
3DFACE
8
ACESSORIO
10
5.37
20
-60.88
30
38.61
11
6.17
21
-65.89
31
38.56
12
7.2
22
-63.44
32
34.68
13
6.42
23
-58.59
33
34.72
0
3DFACE
8
ACESSORIO
10
4.53
20
-62.98
30
42.75
11
5.35
21
-68.14
31
42.71
12
6.17
22
-65.89
32
38.56
13
5.37
23
-60.88
33
38.61
0
3DFACE
8
ACESSORIO
10
3.95
20
-64.89
30
46.94
11
4.77
21
-70.24
31
46.91
12
5.35
22
-68.14
32
42.71
13
4.53
23
-62.98
33
42.75
0
3DFACE
8
ACESSORIO
10
3.65
20
-66.61
30
51.14
11
4.5
21
-72.14
31
51.14
12
4.77
22
-70.24
32
46.91
13
3.95
23
-64.89
33
46.94
0
3DFACE
8
ACESSORIO
10
18.1
20
-28.9
30
3.18
11
18.43
21
-31.62
31
3.61
12
19.77
22
-28.11
32
1.89
13
19.77
23
-25.78
33
1.5
0
3DFACE
8
ACESSORIO
10
16.63
20
-32
30
5.92
11
17.13
21
-35.04
31
6.26
12
18.43
22
-31.62
32
3.61
13
18.1
23
-28.9
33
3.18
0
3DFACE
8
ACESSORIO
10
15.37
20
-35.03
30
9.01
11
15.93
21
-38.39
31
9.26
12
17.13
22
-35.04
32
6.26
13
16.63
23
-32
33
5.92
0
3DFACE
8
ACESSORIO
10
14
20
-37.99
30
12.28
11
14.63
21
-41.62
31
12.44
12
15.93
22
-38.39
32
9.26
13
15.37
23
-35.03
33
9.01
0
3DFACE
8
ACESSORIO
10
12.57
20
-40.88
30
15.71
11
13.23
21
-44.77
31
15.8
12
14.63
22
-41.62
32
12.44
13
14
23
-37.99
33
12.28
0
3DFACE
8
ACESSORIO
10
11.1
20
-43.68
30
19.29
11
11.78
21
-47.78
31
19.33
12
13.23
22
-44.77
32
15.8
13
12.57
23
-40.88
33
15.71
0
3DFACE
8
ACESSORIO
10
9.650002
20
-46.36
30
23
11
10.35
21
-50.67
31
23
12
11.78
22
-47.78
32
19.33
13
11.1
23
-43.68
33
19.29
0
3DFACE
8
ACESSORIO
10
8.25
20
-48.92
30
26.83
11
8.929998
21
-53.56
31
26.81
12
10.35
22
-50.67
32
23
13
9.650002
23
-46.36
33
23
0
3DFACE
8
ACESSORIO
10
6.92
20
-51.33
30
30.76
11
7.62
21
-56.16
31
30.71
12
8.929998
22
-53.56
32
26.81
13
8.25
23
-48.92
33
26.83
0
3DFACE
8
ACESSORIO
10
5.72
20
-53.75
30
34.78
11
6.42
21
-58.59
31
34.72
12
7.62
22
-56.16
32
30.71
13
6.92
23
-51.33
33
30.76
0
3DFACE
8
ACESSORIO
10
4.68
20
-55.86
30
38.66
11
5.37
21
-60.88
31
38.61
12
6.42
22
-58.59
32
34.72
13
5.72
23
-53.75
33
34.78
0
3DFACE
8
ACESSORIO
10
3.85
20
-57.79
30
42.8
11
4.53
21
-62.98
31
42.75
12
5.37
22
-60.88
32
38.61
13
4.68
23
-55.86
33
38.66
0
3DFACE
8
ACESSORIO
10
3.25
20
-59.54
30
46.97
11
3.95
21
-64.89
31
46.94
12
4.53
22
-62.98
32
42.75
13
3.85
23
-57.79
33
42.8
0
3DFACE
8
ACESSORIO
10
2.92
20
-61.09
30
51.14
11
3.65
21
-66.61
31
51.14
12
3.95
22
-64.89
32
46.94
13
3.25
23
-59.54
33
46.97
0
3DFACE
8
ACESSORIO
10
17.75
20
-26.17
30
2.81
11
18.1
21
-28.9
31
3.18
12
19.77
22
-25.78
32
1.5
13
19.77
23
-23.44
33
1.16
0
3DFACE
8
ACESSORIO
10
16.13
20
-28.92
30
5.63
11
16.63
21
-32
31
5.92
12
18.1
22
-28.9
32
3.18
13
17.75
23
-26.17
33
2.81
0
3DFACE
8
ACESSORIO
10
14.8
20
-31.63
30
8.820002
11
15.37
21
-35.03
31
9.01
12
16.63
22
-32
32
5.92
13
16.13
23
-28.92
33
5.63
0
3DFACE
8
ACESSORIO
10
13.4
20
-34.33
30
12.17
11
14
21
-37.99
31
12.28
12
15.37
22
-35.03
32
9.01
13
14.8
23
-31.63
33
8.820002
0
3DFACE
8
ACESSORIO
10
11.93
20
-36.97
30
15.66
11
12.57
21
-40.88
31
15.71
12
14
22
-37.99
32
12.28
13
13.4
23
-34.33
33
12.17
0
3DFACE
8
ACESSORIO
10
10.47
20
-39.54
30
19.29
11
11.1
21
-43.68
31
19.29
12
12.57
22
-40.88
32
15.71
13
11.93
23
-36.97
33
15.66
0
3DFACE
8
ACESSORIO
10
9.02
20
-42.02
30
23.04
11
9.650002
21
-46.36
31
23
12
11.1
22
-43.68
32
19.29
13
10.47
23
-39.54
33
19.29
0
3DFACE
8
ACESSORIO
10
7.62
20
-44.39
30
26.9
11
8.25
21
-48.92
31
26.83
12
9.650002
22
-46.36
32
23
13
9.02
23
-42.02
33
23.04
0
3DFACE
8
ACESSORIO
10
6.32
20
-46.64
30
30.83
11
6.92
21
-51.33
31
30.76
12
8.25
22
-48.92
32
26.83
13
7.62
23
-44.39
33
26.9
0
3DFACE
8
ACESSORIO
10
5.13
20
-48.74
30
34.85
11
5.72
21
-53.75
31
34.78
12
6.92
22
-51.33
32
30.76
13
6.32
23
-46.64
33
30.83
0
3DFACE
8
ACESSORIO
10
4.12
20
-50.69
30
38.73
11
4.68
21
-55.86
31
38.66
12
5.72
22
-53.75
32
34.78
13
5.13
23
-48.74
33
34.85
0
3DFACE
8
ACESSORIO
10
3.28
20
-52.45
30
42.84
11
3.85
21
-57.79
31
42.8
12
4.68
22
-55.86
32
38.66
13
4.12
23
-50.69
33
38.73
0
3DFACE
8
ACESSORIO
10
2.67
20
-54.17
30
46.99
11
3.25
21
-59.54
31
46.97
12
3.85
22
-57.79
32
42.8
13
3.28
23
-52.45
33
42.84
0
3DFACE
8
ACESSORIO
10
2.33
20
-55.55
30
51.14
11
2.92
21
-61.09
31
51.14
12
3.25
22
-59.54
32
46.97
13
2.67
23
-54.17
33
46.99
0
3DFACE
8
ACESSORIO
10
17.42
20
-23.42
30
2.47
11
17.75
21
-26.17
31
2.81
12
19.77
22
-23.44
32
1.16
13
19.77
23
-21.09
33
0.88
0
3DFACE
8
ACESSORIO
10
15.63
20
-25.82
30
5.37
11
16.13
21
-28.92
31
5.63
12
17.75
22
-26.17
32
2.81
13
17.42
23
-23.42
33
2.47
0
3DFACE
8
ACESSORIO
10
14.25
20
-28.24
30
8.650002
11
14.8
21
-31.63
31
8.820002
12
16.13
22
-28.92
32
5.63
13
15.63
23
-25.82
33
5.37
0
3DFACE
8
ACESSORIO
10
12.82
20
-30.65
30
12.08
11
13.4
21
-34.33
31
12.17
12
14.8
22
-31.63
32
8.820002
13
14.25
23
-28.24
33
8.650002
0
3DFACE
8
ACESSORIO
10
11.35
20
-33.05
30
15.63
11
11.93
21
-36.97
31
15.66
12
13.4
22
-34.33
32
12.17
13
12.82
23
-30.65
33
12.08
0
3DFACE
8
ACESSORIO
10
9.88
20
-35.39
30
19.32
11
10.47
21
-39.54
31
19.29
12
11.93
22
-36.97
32
15.66
13
11.35
23
-33.05
33
15.63
0
3DFACE
8
ACESSORIO
10
8.449998
20
-37.68
30
23.09
11
9.02
21
-42.02
31
23.04
12
10.47
22
-39.54
32
19.29
13
9.88
23
-35.39
33
19.32
0
3DFACE
8
ACESSORIO
10
7.08
20
-39.86
30
26.96
11
7.62
21
-44.39
31
26.9
12
9.02
22
-42.02
32
23.04
13
8.449998
23
-37.68
33
23.09
0
3DFACE
8
ACESSORIO
10
5.8
20
-41.92
30
30.92
11
6.32
21
-46.64
31
30.83
12
7.62
22
-44.39
32
26.9
13
7.08
23
-39.86
33
26.96
0
3DFACE
8
ACESSORIO
10
4.65
20
-43.87
30
34.73
11
5.13
21
-48.74
31
34.85
12
6.32
22
-46.64
32
30.83
13
5.8
23
-41.92
33
30.92
0
3DFACE
8
ACESSORIO
10
3.65
20
-45.65
30
38.79
11
4.12
21
-50.69
31
38.73
12
5.13
22
-48.74
32
34.85
13
4.65
23
-43.87
33
34.73
0
3DFACE
8
ACESSORIO
10
2.83
20
-47.24
30
42.89
11
3.28
21
-52.45
31
42.84
12
4.12
22
-50.69
32
38.73
13
3.65
23
-45.65
33
38.79
0
3DFACE
8
ACESSORIO
10
2.23
20
-48.65
30
47.02
11
2.67
21
-54.17
31
46.99
12
3.28
22
-52.45
32
42.84
13
2.83
23
-47.24
33
42.89
0
3DFACE
8
ACESSORIO
10
1.87
20
-49.85
30
51.14
11
2.33
21
-55.55
31
51.14
12
2.67
22
-54.17
32
46.99
13
2.23
23
-48.65
33
47.02
0
3DFACE
8
ACESSORIO
10
17.08
20
-20.69
30
2.17
11
17.42
21
-23.42
31
2.47
12
19.77
22
-21.09
32
0.88
13
19.77
23
-18.72
33
0.62
0
3DFACE
8
ACESSORIO
10
15.17
20
-22.75
30
5.16
11
15.63
21
-25.82
31
5.37
12
17.42
22
-23.42
32
2.47
13
17.08
23
-20.69
33
2.17
0
3DFACE
8
ACESSORIO
10
13.73
20
-24.86
30
8.52
11
14.25
21
-28.24
31
8.650002
12
15.63
22
-25.82
32
5.37
13
15.17
23
-22.75
33
5.16
0
3DFACE
8
ACESSORIO
10
12.27
20
-26.99
30
12.03
11
12.82
21
-30.65
31
12.08
12
14.25
22
-28.24
32
8.650002
13
13.73
23
-24.86
33
8.52
0
3DFACE
8
ACESSORIO
10
10.82
20
-29.14
30
15.63
11
11.35
21
-33.05
31
15.63
12
12.82
22
-30.65
32
12.08
13
12.27
23
-26.99
33
12.03
0
3DFACE
8
ACESSORIO
10
9.37
20
-31.25
30
19.36
11
9.88
21
-35.39
31
19.32
12
11.35
22
-33.05
32
15.63
13
10.82
23
-29.14
33
15.63
0
3DFACE
8
ACESSORIO
10
7.97
20
-33.32
30
23.16
11
8.449998
21
-37.68
31
23.09
12
9.88
22
-35.39
32
19.32
13
9.37
23
-31.25
33
19.36
0
3DFACE
8
ACESSORIO
10
6.65
20
-35.33
30
27.05
11
7.08
21
-39.86
31
26.96
12
8.449998
22
-37.68
32
23.09
13
7.97
23
-33.32
33
23.16
0
3DFACE
8
ACESSORIO
10
5.42
20
-37.22
30
31
11
5.8
21
-41.92
31
30.92
12
7.08
22
-39.86
32
26.96
13
6.65
23
-35.33
33
27.05
0
3DFACE
8
ACESSORIO
10
4.32
20
-38.99
30
34.81
11
4.65
21
-43.87
31
34.73
12
5.8
22
-41.92
32
30.92
13
5.42
23
-37.22
33
31
0
3DFACE
8
ACESSORIO
10
3.35
20
-40.6
30
38.86
11
3.65
21
-45.65
31
38.79
12
4.65
22
-43.87
32
34.73
13
4.32
23
-38.99
33
34.81
0
3DFACE
8
ACESSORIO
10
2.57
20
-42.04
30
42.94
11
2.83
21
-47.24
31
42.89
12
3.65
22
-45.65
32
38.79
13
3.35
23
-40.6
33
38.86
0
3DFACE
8
ACESSORIO
10
1.97
20
-43.27
30
47.04
11
2.23
21
-48.65
31
47.02
12
2.83
22
-47.24
32
42.89
13
2.57
23
-42.04
33
42.94
0
3DFACE
8
ACESSORIO
10
1.58
20
-44.28
30
51.14
11
1.87
21
-49.85
31
51.14
12
2.23
22
-48.65
32
47.02
13
1.97
23
-43.27
33
47.04
0
3DFACE
8
ACESSORIO
10
16.77
20
-17.96
30
1.91
11
17.08
21
-20.69
31
2.17
12
19.77
22
-18.72
32
0.62
13
19.77
23
-16.35
33
0.41
0
3DFACE
8
ACESSORIO
10
14.72
20
-19.68
30
4.98
11
15.17
21
-22.75
31
5.16
12
17.08
22
-20.69
32
2.17
13
16.77
23
-17.96
33
1.91
0
3DFACE
8
ACESSORIO
10
13.23
20
-21.48
30
8.429998
11
13.73
21
-24.86
31
8.52
12
15.17
22
-22.75
32
5.16
13
14.72
23
-19.68
33
4.98
0
3DFACE
8
ACESSORIO
10
11.77
20
-23.35
30
12
11
12.27
21
-26.99
31
12.03
12
13.73
22
-24.86
32
8.52
13
13.23
23
-21.48
33
8.429998
0
3DFACE
8
ACESSORIO
10
10.3
20
-25.24
30
15.66
11
10.82
21
-29.14
31
15.63
12
12.27
22
-26.99
32
12.03
13
11.77
23
-23.35
33
12
0
3DFACE
8
ACESSORIO
10
8.88
20
-27.13
30
19.41
11
9.37
21
-31.25
31
19.36
12
10.82
22
-29.14
32
15.63
13
10.3
23
-25.24
33
15.66
0
3DFACE
8
ACESSORIO
10
7.52
20
-29
30
23.24
11
7.97
21
-33.32
31
23.16
12
9.37
22
-31.25
32
19.36
13
8.88
23
-27.13
33
19.41
0
3DFACE
8
ACESSORIO
10
6.25
20
-30.8
30
27.14
11
6.65
21
-35.33
31
27.05
12
7.97
22
-33.32
32
23.16
13
7.52
23
-29
33
23.24
0
3DFACE
8
ACESSORIO
10
5.07
20
-32.5
30
31.1
11
5.42
21
-37.22
31
31
12
6.65
22
-35.33
32
27.05
13
6.25
23
-30.8
33
27.14
0
3DFACE
8
ACESSORIO
10
4
20
-34.1
30
34.9
11
4.32
21
-38.99
31
34.81
12
5.42
22
-37.22
32
31
13
5.07
23
-32.5
33
31.1
0
3DFACE
8
ACESSORIO
10
3.07
20
-35.53
30
38.94
11
3.35
21
-40.6
31
38.86
12
4.32
22
-38.99
32
34.81
13
4
23
-34.1
33
34.9
0
3DFACE
8
ACESSORIO
10
2.3
20
-36.81
30
43
11
2.57
21
-42.04
31
42.94
12
3.35
22
-40.6
32
38.86
13
3.07
23
-35.53
33
38.94
0
3DFACE
8
ACESSORIO
10
1.72
20
-37.87
30
47.07
11
1.97
21
-43.27
31
47.04
12
2.57
22
-42.04
32
42.94
13
2.3
23
-36.81
33
43
0
3DFACE
8
ACESSORIO
10
1.32
20
-38.7
30
51.14
11
1.58
21
-44.28
31
51.14
12
1.97
22
-43.27
32
47.04
13
1.72
23
-37.87
33
47.07
0
3DFACE
8
ACESSORIO
10
16.47
20
-15.23
30
1.71
11
16.77
21
-17.96
31
1.91
12
19.77
22
-16.35
32
0.41
13
19.77
23
-13.98
33
0.25
0
3DFACE
8
ACESSORIO
10
14.3
20
-16.64
30
4.84
11
14.72
21
-19.68
31
4.98
12
16.77
22
-17.96
32
1.91
13
16.47
23
-15.23
33
1.71
0
3DFACE
8
ACESSORIO
10
12.77
20
-18.15
30
8.37
11
13.23
21
-21.48
31
8.429998
12
14.72
22
-19.68
32
4.98
13
14.3
23
-16.64
33
4.84
0
3DFACE
8
ACESSORIO
10
11.28
20
-19.75
30
12
11
11.77
21
-23.35
31
12
12
13.23
22
-21.48
32
8.429998
13
12.77
23
-18.15
33
8.37
0
3DFACE
8
ACESSORIO
10
9.820002
20
-21.39
30
15.7
11
10.3
21
-25.24
31
15.66
12
11.77
22
-23.35
32
12
13
11.28
23
-19.75
33
12
0
3DFACE
8
ACESSORIO
10
8.429998
20
-23.05
30
19.49
11
8.88
21
-27.13
31
19.41
12
10.3
22
-25.24
32
15.66
13
9.820002
23
-21.39
33
15.7
0
3DFACE
8
ACESSORIO
10
7.1
20
-24.69
30
23.33
11
7.52
21
-29
31
23.24
12
8.88
22
-27.13
32
19.41
13
8.429998
23
-23.05
33
19.49
0
3DFACE
8
ACESSORIO
10
5.87
20
-26.27
30
27.23
11
6.25
21
-30.8
31
27.14
12
7.52
22
-29
32
23.24
13
7.1
23
-24.69
33
23.33
0
3DFACE
8
ACESSORIO
10
4.73
20
-27.8
30
31.19
11
5.07
21
-32.5
31
31.1
12
6.25
22
-30.8
32
27.14
13
5.87
23
-26.27
33
27.23
0
3DFACE
8
ACESSORIO
10
3.7
20
-29.2
30
34.98
11
4
21
-34.1
31
34.9
12
5.07
22
-32.5
32
31.1
13
4.73
23
-27.8
33
31.19
0
3DFACE
8
ACESSORIO
10
2.82
20
-30.46
30
39
11
3.07
21
-35.53
31
38.94
12
4
22
-34.1
32
34.9
13
3.7
23
-29.2
33
34.98
0
3DFACE
8
ACESSORIO
10
2.07
20
-31.57
30
43.05
11
2.3
21
-36.81
31
43
12
3.07
22
-35.53
32
38.94
13
2.82
23
-30.46
33
39
0
3DFACE
8
ACESSORIO
10
1.48
20
-32.47
30
47.09
11
1.72
21
-37.87
31
47.07
12
2.3
22
-36.81
32
43
13
2.07
23
-31.57
33
43.05
0
3DFACE
8
ACESSORIO
10
1.07
20
-33.13
30
51.14
11
1.32
21
-38.7
31
51.14
12
1.72
22
-37.87
32
47.07
13
1.48
23
-32.47
33
47.09
0
3DFACE
8
ACESSORIO
10
16.2
20
-12.55
30
1.54
11
16.47
21
-15.23
31
1.71
12
19.77
22
-13.98
32
0.25
13
19.77
23
-11.6
33
0.13
0
3DFACE
8
ACESSORIO
10
13.92
20
-13.64
30
4.73
11
14.3
21
-16.64
31
4.84
12
16.47
22
-15.23
32
1.71
13
16.2
23
-12.55
33
1.54
0
3DFACE
8
ACESSORIO
10
12.35
20
-14.87
30
8.34
11
12.77
21
-18.15
31
8.37
12
14.3
22
-16.64
32
4.84
13
13.92
23
-13.64
33
4.73
0
3DFACE
8
ACESSORIO
10
10.83
20
-16.19
30
12.01
11
11.28
21
-19.75
31
12
12
12.77
22
-18.15
32
8.37
13
12.35
23
-14.87
33
8.34
0
3DFACE
8
ACESSORIO
10
9.38
20
-17.57
30
15.76
11
9.820002
21
-21.39
31
15.7
12
11.28
22
-19.75
32
12
13
10.83
23
-16.19
33
12.01
0
3DFACE
8
ACESSORIO
10
8.02
20
-18.99
30
19.56
11
8.429998
21
-23.05
31
19.49
12
9.820002
22
-21.39
32
15.7
13
9.38
23
-17.57
33
15.76
0
3DFACE
8
ACESSORIO
10
6.72
20
-20.39
30
23.43
11
7.1
21
-24.69
31
23.33
12
8.429998
22
-23.05
32
19.49
13
8.02
23
-18.99
33
19.56
0
3DFACE
8
ACESSORIO
10
5.52
20
-21.77
30
27.34
11
5.87
21
-26.27
31
27.23
12
7.1
22
-24.69
32
23.33
13
6.72
23
-20.39
33
23.43
0
3DFACE
8
ACESSORIO
10
4.42
20
-23.08
30
31.28
11
4.73
21
-27.8
31
31.19
12
5.87
22
-26.27
32
27.23
13
5.52
23
-21.77
33
27.34
0
3DFACE
8
ACESSORIO
10
3.43
20
-24.29
30
35.07
11
3.7
21
-29.2
31
34.98
12
4.73
22
-27.8
32
31.19
13
4.42
23
-23.08
33
31.28
0
3DFACE
8
ACESSORIO
10
2.57
20
-25.38
30
39.06
11
2.82
21
-30.46
31
39
12
3.7
22
-29.2
32
34.98
13
3.43
23
-24.29
33
35.07
0
3DFACE
8
ACESSORIO
10
1.85
20
-26.31
30
43.09
11
2.07
21
-31.57
31
43.05
12
2.82
22
-30.46
32
39
13
2.57
23
-25.38
33
39.06
0
3DFACE
8
ACESSORIO
10
1.27
20
-27.05
30
47.12
11
1.48
21
-32.47
31
47.09
12
2.07
22
-31.57
32
43.05
13
1.85
23
-26.31
33
43.09
0
3DFACE
8
ACESSORIO
10
0.85
20
-27.56
30
51.14
11
1.07
21
-33.13
31
51.14
12
1.48
22
-32.47
32
47.09
13
1.27
23
-27.05
33
47.12
0
3DFACE
8
ACESSORIO
10
15.97
20
-9.88
30
1.42
11
16.2
21
-12.55
31
1.54
12
19.77
22
-11.6
32
0.13
13
19.77
23
-9.22
33
0.04
0
3DFACE
8
ACESSORIO
10
13.57
20
-10.7
30
4.67
11
13.92
21
-13.64
31
4.73
12
16.2
22
-12.55
32
1.54
13
15.97
23
-9.88
33
1.42
0
3DFACE
8
ACESSORIO
10
11.98
20
-11.65
30
8.33
11
12.35
21
-14.87
31
8.34
12
13.92
22
-13.64
32
4.73
13
13.57
23
-10.7
33
4.67
0
3DFACE
8
ACESSORIO
10
10.45
20
-12.71
30
12.05
11
10.83
21
-16.19
31
12.01
12
12.35
22
-14.87
32
8.34
13
11.98
23
-11.65
33
8.33
0
3DFACE
8
ACESSORIO
10
9
20
-13.83
30
15.83
11
9.38
21
-17.57
31
15.76
12
10.83
22
-16.19
32
12.01
13
10.45
23
-12.71
33
12.05
0
3DFACE
8
ACESSORIO
10
7.65
20
-14.98
30
19.66
11
8.02
21
-18.99
31
19.56
12
9.38
22
-17.57
32
15.76
13
9
23
-13.83
33
15.83
0
3DFACE
8
ACESSORIO
10
6.38
20
-16.15
30
23.52
11
6.72
21
-20.39
31
23.43
12
8.02
22
-18.99
32
19.56
13
7.65
23
-14.98
33
19.66
0
3DFACE
8
ACESSORIO
10
5.2
20
-17.3
30
27.44
11
5.52
21
-21.77
31
27.34
12
6.72
22
-20.39
32
23.43
13
6.38
23
-16.15
33
23.52
0
3DFACE
8
ACESSORIO
10
4.13
20
-18.39
30
31.37
11
4.42
21
-23.08
31
31.28
12
5.52
22
-21.77
32
27.34
13
5.2
23
-17.3
33
27.44
0
3DFACE
8
ACESSORIO
10
3.18
20
-19.4
30
35.15
11
3.43
21
-24.29
31
35.07
12
4.42
22
-23.08
32
31.28
13
4.13
23
-18.39
33
31.37
0
3DFACE
8
ACESSORIO
10
2.35
20
-20.28
30
39.13
11
2.57
21
-25.38
31
39.06
12
3.43
22
-24.29
32
35.07
13
3.18
23
-19.4
33
35.15
0
3DFACE
8
ACESSORIO
10
1.65
20
-21.04
30
43.13
11
1.85
21
-26.31
31
43.09
12
2.57
22
-25.38
32
39.06
13
2.35
23
-20.28
33
39.13
0
3DFACE
8
ACESSORIO
10
1.07
20
-21.62
30
47.13
11
1.27
21
-27.05
31
47.12
12
1.85
22
-26.31
32
43.09
13
1.65
23
-21.04
33
43.13
0
3DFACE
8
ACESSORIO
10
0.63
20
-21.99
30
51.14
11
0.85
21
-27.56
31
51.14
12
1.27
22
-27.05
32
47.12
13
1.07
23
-21.62
33
47.13
0
3DFACE
8
ACESSORIO
10
15.78
20
-7.26
30
1.36
11
15.97
21
-9.88
31
1.42
12
19.77
22
-9.22
32
0.04
13
19.77
23
-6.83
33
0
0
3DFACE
8
ACESSORIO
10
13.3
20
-7.83
30
4.64
11
13.57
21
-10.7
31
4.67
12
15.97
22
-9.88
32
1.42
13
15.78
23
-7.26
33
1.36
0
3DFACE
8
ACESSORIO
10
11.67
20
-8.51
30
8.349998
11
11.98
21
-11.65
31
8.33
12
13.57
22
-10.7
32
4.67
13
13.3
23
-7.83
33
4.64
0
3DFACE
8
ACESSORIO
10
10.13
20
-9.3
30
12.1
11
10.45
21
-12.71
31
12.05
12
11.98
22
-11.65
32
8.33
13
11.67
23
-8.51
33
8.349998
0
3DFACE
8
ACESSORIO
10
8.679998
20
-10.15
30
15.91
11
9
21
-13.83
31
15.83
12
10.45
22
-12.71
32
12.05
13
10.13
23
-9.3
33
12.1
0
3DFACE
8
ACESSORIO
10
7.33
20
-11.03
30
19.75
11
7.65
21
-14.98
31
19.66
12
9
22
-13.83
32
15.83
13
8.679998
23
-10.15
33
15.91
0
3DFACE
8
ACESSORIO
10
6.08
20
-11.95
30
23.63
11
6.38
21
-16.15
31
23.52
12
7.65
22
-14.98
32
19.66
13
7.33
23
-11.03
33
19.75
0
3DFACE
8
ACESSORIO
10
4.93
20
-12.83
30
27.53
11
5.2
21
-17.3
31
27.44
12
6.38
22
-16.15
32
23.52
13
6.08
23
-11.95
33
23.63
0
3DFACE
8
ACESSORIO
10
3.9
20
-13.7
30
31.46
11
4.13
21
-18.39
31
31.37
12
5.2
22
-17.3
32
27.44
13
4.93
23
-12.83
33
27.53
0
3DFACE
8
ACESSORIO
10
2.97
20
-14.47
30
35.21
11
3.18
21
-19.4
31
35.15
12
4.13
22
-18.39
32
31.37
13
3.9
23
-13.7
33
31.46
0
3DFACE
8
ACESSORIO
10
2.17
20
-15.17
30
39.18
11
2.35
21
-20.28
31
39.13
12
3.18
22
-19.4
32
35.15
13
2.97
23
-14.47
33
35.21
0
3DFACE
8
ACESSORIO
10
1.47
20
-15.75
30
43.16
11
1.65
21
-21.04
31
43.13
12
2.35
22
-20.28
32
39.13
13
2.17
23
-15.17
33
39.18
0
3DFACE
8
ACESSORIO
10
0.9
20
-16.16
30
47.15
11
1.07
21
-21.62
31
47.13
12
1.65
22
-21.04
32
43.13
13
1.47
23
-15.75
33
43.16
0
3DFACE
8
ACESSORIO
10
0.45
20
-16.42
30
51.14
11
0.63
21
-21.99
31
51.14
12
1.07
22
-21.62
32
47.13
13
0.9
23
-16.16
33
47.15
0
3DFACE
8
ACESSORIO
10
15.63
20
-4.69
30
1.33
11
15.78
21
-7.26
31
1.36
12
19.77
22
-6.83
32
0
13
19.77
23
-4.47
33
0
0
3DFACE
8
ACESSORIO
10
13.08
20
-5.02
30
4.66
11
13.3
21
-7.83
31
4.64
12
15.78
22
-7.26
32
1.36
13
15.63
23
-4.69
33
1.33
0
3DFACE
8
ACESSORIO
10
11.43
20
-5.46
30
8.39
11
11.67
21
-8.51
31
8.349998
12
13.3
22
-7.83
32
4.64
13
13.08
23
-5.02
33
4.66
0
3DFACE
8
ACESSORIO
10
9.88
20
-5.98
30
12.18
11
10.13
21
-9.3
31
12.1
12
11.67
22
-8.51
32
8.349998
13
11.43
23
-5.46
33
8.39
0
3DFACE
8
ACESSORIO
10
8.429998
20
-6.55
30
16
11
8.679998
21
-10.15
31
15.91
12
10.13
22
-9.3
32
12.1
13
9.88
23
-5.98
33
12.18
0
3DFACE
8
ACESSORIO
10
7.1
20
-7.17
30
19.84
11
7.33
21
-11.03
31
19.75
12
8.679998
22
-10.15
32
15.91
13
8.429998
23
-6.55
33
16
0
3DFACE
8
ACESSORIO
10
5.85
20
-7.8
30
23.72
11
6.08
21
-11.95
31
23.63
12
7.33
22
-11.03
32
19.75
13
7.1
23
-7.17
33
19.84
0
3DFACE
8
ACESSORIO
10
4.72
20
-8.41
30
27.61
11
4.93
21
-12.83
31
27.53
12
6.08
22
-11.95
32
23.63
13
5.85
23
-7.8
33
23.72
0
3DFACE
8
ACESSORIO
10
3.7
20
-9.01
30
31.53
11
3.9
21
-13.7
31
31.46
12
4.93
22
-12.83
32
27.53
13
4.72
23
-8.41
33
27.61
0
3DFACE
8
ACESSORIO
10
2.78
20
-9.56
30
35.28
11
2.97
21
-14.47
31
35.21
12
3.9
22
-13.7
32
31.46
13
3.7
23
-9.01
33
31.53
0
3DFACE
8
ACESSORIO
10
1.98
20
-10.04
30
39.23
11
2.17
21
-15.17
31
39.18
12
2.97
22
-14.47
32
35.21
13
2.78
23
-9.56
33
35.28
0
3DFACE
8
ACESSORIO
10
1.3
20
-10.43
30
43.19
11
1.47
21
-15.75
31
43.16
12
2.17
22
-15.17
32
39.18
13
1.98
23
-10.04
33
39.23
0
3DFACE
8
ACESSORIO
10
0.73
20
-10.7
30
47.17
11
0.9
21
-16.16
31
47.15
12
1.47
22
-15.75
32
43.16
13
1.3
23
-10.43
33
43.19
0
3DFACE
8
ACESSORIO
10
0.28
20
-10.84
30
51.14
11
0.45
21
-16.42
31
51.14
12
0.9
22
-16.16
32
47.15
13
0.73
23
-10.7
33
47.17
0
3DFACE
8
ACESSORIO
10
15.53
20
-2.16
30
1.37
11
15.63
21
-4.69
31
1.33
12
19.77
22
-4.47
32
0
13
19.77
23
-2.08
33
0.05
0
3DFACE
8
ACESSORIO
10
12.95
20
-2.3
30
4.71
11
13.08
21
-5.02
31
4.66
12
15.63
22
-4.69
32
1.33
13
15.53
23
-2.16
33
1.37
0
3DFACE
8
ACESSORIO
10
11.28
20
-2.52
30
8.469998
11
11.43
21
-5.46
31
8.39
12
13.08
22
-5.02
32
4.66
13
12.95
23
-2.3
33
4.71
0
3DFACE
8
ACESSORIO
10
9.72
20
-2.78
30
12.26
11
9.88
21
-5.98
31
12.18
12
11.43
22
-5.46
32
8.39
13
11.28
23
-2.52
33
8.469998
0
3DFACE
8
ACESSORIO
10
8.27
20
-3.08
30
16.07
11
8.429998
21
-6.55
31
16
12
9.88
22
-5.98
32
12.18
13
9.72
23
-2.78
33
12.26
0
3DFACE
8
ACESSORIO
10
6.92
20
-3.39
30
19.91
11
7.1
21
-7.17
31
19.84
12
8.429998
22
-6.55
32
16
13
8.27
23
-3.08
33
16.07
0
3DFACE
8
ACESSORIO
10
5.68
20
-3.71
30
23.79
11
5.85
21
-7.8
31
23.72
12
7.1
22
-7.17
32
19.84
13
6.92
23
-3.39
33
19.91
0
3DFACE
8
ACESSORIO
10
4.55
20
-4.04
30
27.67
11
4.72
21
-8.41
31
27.61
12
5.85
22
-7.8
32
23.72
13
5.68
23
-3.71
33
23.79
0
3DFACE
8
ACESSORIO
10
3.55
20
-4.36
30
31.59
11
3.7
21
-9.01
31
31.53
12
4.72
22
-8.41
32
27.61
13
4.55
23
-4.04
33
27.67
0
3DFACE
8
ACESSORIO
10
2.63
20
-4.64
30
35.33
11
2.78
21
-9.56
31
35.28
12
3.7
22
-9.01
32
31.53
13
3.55
23
-4.36
33
31.59
0
3DFACE
8
ACESSORIO
10
1.85
20
-4.88
30
39.26
11
1.98
21
-10.04
31
39.23
12
2.78
22
-9.56
32
35.28
13
2.63
23
-4.64
33
35.33
0
3DFACE
8
ACESSORIO
10
1.17
20
-5.08
30
43.22
11
1.3
21
-10.43
31
43.19
12
1.98
22
-10.04
32
39.23
13
1.85
23
-4.88
33
39.26
0
3DFACE
8
ACESSORIO
10
0.58
20
-5.21
30
47.17
11
0.73
21
-10.7
31
47.17
12
1.3
22
-10.43
32
43.19
13
1.17
23
-5.08
33
43.22
0
3DFACE
8
ACESSORIO
10
0.13
20
-5.27
30
51.14
11
0.28
21
-10.84
31
51.14
12
0.73
22
-10.7
32
47.17
13
0.58
23
-5.21
33
47.17
0
3DFACE
8
ACESSORIO
10
15.5
20
0
30
1.45
11
15.53
21
-2.16
31
1.37
12
19.77
22
-2.08
32
0.05
13
19.77
23
0
33
0.13
0
3DFACE
8
ACESSORIO
10
12.88
20
0
30
4.78
11
12.95
21
-2.3
31
4.71
12
15.53
22
-2.16
32
1.37
13
15.5
23
0
33
1.45
0
3DFACE
8
ACESSORIO
10
11.22
20
0
30
8.55
11
11.28
21
-2.52
31
8.469998
12
12.95
22
-2.3
32
4.71
13
12.88
23
0
33
4.78
0
3DFACE
8
ACESSORIO
10
9.650002
20
0
30
12.34
11
9.72
21
-2.78
31
12.26
12
11.28
22
-2.52
32
8.469998
13
11.22
23
0
33
8.55
0
3DFACE
8
ACESSORIO
10
8.179998
20
0
30
16.15
11
8.27
21
-3.08
31
16.07
12
9.72
22
-2.78
32
12.26
13
9.650002
23
0
33
12.34
0
3DFACE
8
ACESSORIO
10
6.83
20
0
30
19.99
11
6.92
21
-3.39
31
19.91
12
8.27
22
-3.08
32
16.07
13
8.179998
23
0
33
16.15
0
3DFACE
8
ACESSORIO
10
5.58
20
0
30
23.84
11
5.68
21
-3.71
31
23.79
12
6.92
22
-3.39
32
19.91
13
6.83
23
0
33
19.99
0
3DFACE
8
ACESSORIO
10
4.45
20
0
30
27.74
11
4.55
21
-4.04
31
27.67
12
5.68
22
-3.71
32
23.79
13
5.58
23
0
33
23.84
0
3DFACE
8
ACESSORIO
10
3.43
20
0
30
31.63
11
3.55
21
-4.36
31
31.59
12
4.55
22
-4.04
32
27.67
13
4.45
23
0
33
27.74
0
3DFACE
8
ACESSORIO
10
2.52
20
0
30
35.35
11
2.63
21
-4.64
31
35.33
12
3.55
22
-4.36
32
31.59
13
3.43
23
0
33
31.63
0
3DFACE
8
ACESSORIO
10
1.72
20
0
30
39.28
11
1.85
21
-4.88
31
39.26
12
2.63
22
-4.64
32
35.33
13
2.52
23
0
33
35.35
0
3DFACE
8
ACESSORIO
10
1.03
20
0
30
43.23
11
1.17
21
-5.08
31
43.22
12
1.85
22
-4.88
32
39.26
13
1.72
23
0
33
39.28
0
3DFACE
8
ACESSORIO
10
0.47
20
0
30
47.19
11
0.58
21
-5.21
31
47.17
12
1.17
22
-5.08
32
43.22
13
1.03
23
0
33
43.23
0
3DFACE
8
ACESSORIO
10
0
20
0
30
51.14
11
0.13
21
-5.27
31
51.14
12
0.58
22
-5.21
32
47.17
13
0.47
23
0
33
47.19
0
3DFACE
8
ACESSORIO
10
40
20
0
30
71.73
11
33.33
21
0
31
71.73
12
33.49
22
0
32
73.87
13
39.98
23
0
33
72.38
0
3DFACE
8
ACESSORIO
10
33.33
20
0
30
71.73
11
26.67
21
0
31
71.73
12
26.81
22
0
32
74.78999
13
33.49
23
0
33
73.87
0
3DFACE
8
ACESSORIO
10
26.67
20
0
30
71.73
11
20
21
0
31
71.73
12
20
22
0
32
75.04
13
26.81
23
0
33
74.78999
0
3DFACE
8
ACESSORIO
10
20
20
0
30
71.73
11
13.33
21
0
31
71.73
12
13.19
22
0
32
74.78999
13
20
23
0
33
75.04
0
3DFACE
8
ACESSORIO
10
13.33
20
0
30
71.73
11
6.67
21
0
31
71.73
12
6.49
22
0
32
73.9
13
13.19
23
0
33
74.78999
0
3DFACE
8
ACESSORIO
10
6.67
20
0
30
71.73
11
0
21
0
31
71.73
12
0.02
22
0
32
72.38
13
6.49
23
0
33
73.9
0
3DFACE
8
ACESSORIO
10
39.98
20
0
30
72.38
11
33.49
21
0
31
73.87
12
33.65
22
0
32
76.02
13
39.95
23
0
33
73.03
0
3DFACE
8
ACESSORIO
10
33.49
20
0
30
73.87
11
26.81
21
0
31
74.78999
12
26.94
22
0
32
77.86
13
33.65
23
0
33
76.02
0
3DFACE
8
ACESSORIO
10
26.81
20
0
30
74.78999
11
20
21
0
31
75.04
12
20
22
0
32
78.34
13
26.94
23
0
33
77.86
0
3DFACE
8
ACESSORIO
10
20
20
0
30
75.04
11
13.19
21
0
31
74.78999
12
13.05
22
0
32
77.85001
13
20
23
0
33
78.34
0
3DFACE
8
ACESSORIO
10
13.19
20
0
30
74.78999
11
6.49
21
0
31
73.9
12
6.32
22
0
32
76.07
13
13.05
23
0
33
77.85001
0
3DFACE
8
ACESSORIO
10
6.49
20
0
30
73.9
11
0.02
21
0
31
72.38
12
0.05
22
0
32
73.03
13
6.32
23
0
33
76.07
0
ENDSEC
0
EOF
