  0
SECTION
  2
HEADER
  9
$ACADVER
  1
AC1021
  9
$ACADMAINTVER
 70
     1
  9
$DWGCODEPAGE
  3
ANSI_1252
  9
$LASTSAVEDBY
  1
jardiel.mezzomo
  9
$INSBASE
 10
0.0
 20
0.0
 30
0.0
  9
$EXTMIN
 10
0.0
 20
0.0
 30
-13.30000000000002
  9
$EXTMAX
 10
411.7758150358675
 20
88.49698223447523
 30
0.0
  9
$LIMMIN
 10
0.0
 20
0.0
  9
$LIMMAX
 10
420.0
 20
297.0
  9
$ORTHOMODE
 70
     1
  9
$REGENMODE
 70
     1
  9
$FILLMODE
 70
     1
  9
$QTEXTMODE
 70
     0
  9
$MIRRTEXT
 70
     0
  9
$LTSCALE
 40
1.0
  9
$ATTMODE
 70
     1
  9
$TEXTSIZE
 40
2.5
  9
$TRACEWID
 40
1.0
  9
$TEXTSTYLE
  7
STANDARD
  9
$CLAYER
  8
0
  9
$CELTYPE
  6
BYLAYER
  9
$CECOLOR
 62
   256
  9
$CELTSCALE
 40
1.0
  9
$DISPSILH
 70
     0
  9
$DIMSCALE
 40
1.0
  9
$DIMASZ
 40
2.5
  9
$DIMEXO
 40
0.625
  9
$DIMDLI
 40
3.75
  9
$DIMRND
 40
0.0
  9
$DIMDLE
 40
0.0
  9
$DIMEXE
 40
1.25
  9
$DIMTP
 40
0.0
  9
$DIMTM
 40
0.0
  9
$DIMTXT
 40
2.5
  9
$DIMCEN
 40
2.5
  9
$DIMTSZ
 40
0.0
  9
$DIMTOL
 70
     0
  9
$DIMLIM
 70
     0
  9
$DIMTIH
 70
     0
  9
$DIMTOH
 70
     0
  9
$DIMSE1
 70
     0
  9
$DIMSE2
 70
     0
  9
$DIMTAD
 70
     1
  9
$DIMZIN
 70
     8
  9
$DIMBLK
  1

  9
$DIMASO
 70
     1
  9
$DIMSHO
 70
     1
  9
$DIMPOST
  1

  9
$DIMAPOST
  1

  9
$DIMALT
 70
     0
  9
$DIMALTD
 70
     3
  9
$DIMALTF
 40
0.03937007874016
  9
$DIMLFAC
 40
1.0
  9
$DIMTOFL
 70
     1
  9
$DIMTVP
 40
0.0
  9
$DIMTIX
 70
     0
  9
$DIMSOXD
 70
     0
  9
$DIMSAH
 70
     0
  9
$DIMBLK1
  1

  9
$DIMBLK2
  1

  9
$DIMSTYLE
  2
ISO-25
  9
$DIMCLRD
 70
     0
  9
$DIMCLRE
 70
     0
  9
$DIMCLRT
 70
     0
  9
$DIMTFAC
 40
1.0
  9
$DIMGAP
 40
0.625
  9
$DIMJUST
 70
     0
  9
$DIMSD1
 70
     0
  9
$DIMSD2
 70
     0
  9
$DIMTOLJ
 70
     0
  9
$DIMTZIN
 70
     8
  9
$DIMALTZ
 70
     0
  9
$DIMALTTZ
 70
     0
  9
$DIMUPT
 70
     0
  9
$DIMDEC
 70
     2
  9
$DIMTDEC
 70
     2
  9
$DIMALTU
 70
     2
  9
$DIMALTTD
 70
     3
  9
$DIMTXSTY
  7
STANDARD
  9
$DIMAUNIT
 70
     0
  9
$DIMADEC
 70
     0
  9
$DIMALTRND
 40
0.0
  9
$DIMAZIN
 70
     0
  9
$DIMDSEP
 70
    46
  9
$DIMATFIT
 70
     3
  9
$DIMFRAC
 70
     0
  9
$DIMLDRBLK
  1

  9
$DIMLUNIT
 70
     2
  9
$DIMLWD
 70
    -2
  9
$DIMLWE
 70
    -2
  9
$DIMTMOVE
 70
     0
  9
$DIMFXL
 40
1.0
  9
$DIMFXLON
 70
     0
  9
$DIMJOGANG
 40
1.570796326794896
  9
$DIMTFILL
 70
     0
  9
$DIMTFILLCLR
 70
     0
  9
$DIMARCSYM
 70
     0
  9
$DIMLTYPE
  6

  9
$DIMLTEX1
  6

  9
$DIMLTEX2
  6

  9
$LUNITS
 70
     2
  9
$LUPREC
 70
     4
  9
$SKETCHINC
 40
1.0
  9
$FILLETRAD
 40
0.0
  9
$AUNITS
 70
     0
  9
$AUPREC
 70
     0
  9
$MENU
  1
.
  9
$ELEVATION
 40
0.0
  9
$PELEVATION
 40
0.0
  9
$THICKNESS
 40
0.0
  9
$LIMCHECK
 70
     0
  9
$CHAMFERA
 40
0.0
  9
$CHAMFERB
 40
0.0
  9
$CHAMFERC
 40
0.0
  9
$CHAMFERD
 40
0.0
  9
$SKPOLY
 70
     0
  9
$TDCREATE
 40
2456251.314361760
  9
$TDUCREATE
 40
2456251.397695092
  9
$TDUPDATE
 40
2456679.358444815
  9
$TDUUPDATE
 40
2456679.441778149
  9
$TDINDWG
 40
0.0789221296
  9
$TDUSRTIMER
 40
0.0789219329
  9
$USRTIMER
 70
     1
  9
$ANGBASE
 50
0.0
  9
$ANGDIR
 70
     0
  9
$PDMODE
 70
     0
  9
$PDSIZE
 40
0.0
  9
$PLINEWID
 40
0.0
  9
$SPLFRAME
 70
     0
  9
$SPLINETYPE
 70
     6
  9
$SPLINESEGS
 70
     8
  9
$HANDSEED
  5
37F
  9
$SURFTAB1
 70
     6
  9
$SURFTAB2
 70
     6
  9
$SURFTYPE
 70
     6
  9
$SURFU
 70
     6
  9
$SURFV
 70
     6
  9
$UCSBASE
  2

  9
$UCSNAME
  2

  9
$UCSORG
 10
0.0
 20
0.0
 30
0.0
  9
$UCSXDIR
 10
0.0
 20
1.0
 30
0.0
  9
$UCSYDIR
 10
0.0
 20
0.0
 30
1.0
  9
$UCSORTHOREF
  2

  9
$UCSORTHOVIEW
 70
     6
  9
$UCSORGTOP
 10
0.0
 20
0.0
 30
0.0
  9
$UCSORGBOTTOM
 10
0.0
 20
0.0
 30
0.0
  9
$UCSORGLEFT
 10
0.0
 20
0.0
 30
0.0
  9
$UCSORGRIGHT
 10
0.0
 20
0.0
 30
0.0
  9
$UCSORGFRONT
 10
0.0
 20
0.0
 30
0.0
  9
$UCSORGBACK
 10
0.0
 20
0.0
 30
0.0
  9
$PUCSBASE
  2

  9
$PUCSNAME
  2

  9
$PUCSORG
 10
0.0
 20
0.0
 30
0.0
  9
$PUCSXDIR
 10
1.0
 20
0.0
 30
0.0
  9
$PUCSYDIR
 10
0.0
 20
1.0
 30
0.0
  9
$PUCSORTHOREF
  2

  9
$PUCSORTHOVIEW
 70
     0
  9
$PUCSORGTOP
 10
0.0
 20
0.0
 30
0.0
  9
$PUCSORGBOTTOM
 10
0.0
 20
0.0
 30
0.0
  9
$PUCSORGLEFT
 10
0.0
 20
0.0
 30
0.0
  9
$PUCSORGRIGHT
 10
0.0
 20
0.0
 30
0.0
  9
$PUCSORGFRONT
 10
0.0
 20
0.0
 30
0.0
  9
$PUCSORGBACK
 10
0.0
 20
0.0
 30
0.0
  9
$USERI1
 70
     0
  9
$USERI2
 70
     0
  9
$USERI3
 70
     0
  9
$USERI4
 70
     0
  9
$USERI5
 70
     0
  9
$USERR1
 40
0.0
  9
$USERR2
 40
0.0
  9
$USERR3
 40
0.0
  9
$USERR4
 40
0.0
  9
$USERR5
 40
0.0
  9
$WORLDVIEW
 70
     1
  9
$SHADEDGE
 70
     3
  9
$SHADEDIF
 70
    70
  9
$TILEMODE
 70
     1
  9
$MAXACTVP
 70
    64
  9
$PINSBASE
 10
0.0
 20
0.0
 30
0.0
  9
$PLIMCHECK
 70
     0
  9
$PEXTMIN
 10
1.000000000000000E+20
 20
1.000000000000000E+20
 30
1.000000000000000E+20
  9
$PEXTMAX
 10
-1.000000000000000E+20
 20
-1.000000000000000E+20
 30
-1.000000000000000E+20
  9
$PLIMMIN
 10
0.0
 20
0.0
  9
$PLIMMAX
 10
420.0
 20
297.0
  9
$UNITMODE
 70
     0
  9
$VISRETAIN
 70
     1
  9
$PLINEGEN
 70
     0
  9
$PSLTSCALE
 70
     1
  9
$TREEDEPTH
 70
  3020
  9
$CMLSTYLE
  2
STANDARD
  9
$CMLJUST
 70
     0
  9
$CMLSCALE
 40
20.0
  9
$PROXYGRAPHICS
 70
     1
  9
$MEASUREMENT
 70
     1
  9
$CELWEIGHT
370
    -1
  9
$ENDCAPS
280
     0
  9
$JOINSTYLE
280
     0
  9
$LWDISPLAY
290
     0
  9
$INSUNITS
 70
     4
  9
$HYPERLINKBASE
  1

  9
$STYLESHEET
  1

  9
$XEDIT
290
     1
  9
$CEPSNTYPE
380
     0
  9
$PSTYLEMODE
290
     1
  9
$FINGERPRINTGUID
  2
{A817FBF1-0379-4059-B045-9EA5B33A8D6B}
  9
$VERSIONGUID
  2
{92E68EAA-2744-4BE6-912E-9DE112F2939E}
  9
$EXTNAMES
290
     1
  9
$PSVPSCALE
 40
0.0
  9
$OLESTARTUP
290
     0
  9
$SORTENTS
280
   127
  9
$INDEXCTL
280
     0
  9
$HIDETEXT
280
     1
  9
$XCLIPFRAME
290
     0
  9
$HALOGAP
280
     0
  9
$OBSCOLOR
 70
   257
  9
$OBSLTYPE
280
     0
  9
$INTERSECTIONDISPLAY
280
     0
  9
$INTERSECTIONCOLOR
 70
   257
  9
$DIMASSOC
280
     2
  9
$PROJECTNAME
  1

  9
$CAMERADISPLAY
290
     0
  9
$LENSLENGTH
 40
50.0
  9
$CAMERAHEIGHT
 40
0.0
  9
$STEPSPERSEC
 40
2.0
  9
$STEPSIZE
 40
6.0
  9
$3DDWFPREC
 40
2.0
  9
$PSOLWIDTH
 40
0.25
  9
$PSOLHEIGHT
 40
4.0
  9
$LOFTANG1
 40
1.570796326794896
  9
$LOFTANG2
 40
1.570796326794896
  9
$LOFTMAG1
 40
0.0
  9
$LOFTMAG2
 40
0.0
  9
$LOFTPARAM
 70
     7
  9
$LOFTNORMALS
280
     1
  9
$LATITUDE
 40
37.795
  9
$LONGITUDE
 40
-122.394
  9
$NORTHDIRECTION
 40
0.0
  9
$TIMEZONE
 70
 -8000
  9
$LIGHTGLYPHDISPLAY
280
     1
  9
$TILEMODELIGHTSYNCH
280
     1
  9
$CMATERIAL
347
26B
  9
$SOLIDHIST
280
     1
  9
$SHOWHIST
280
     1
  9
$DWFFRAME
280
     2
  9
$DGNFRAME
280
     0
  9
$REALWORLDSCALE
290
     1
  9
$INTERFERECOLOR
 62
     1
  9
$INTERFEREOBJVS
345
33
  9
$INTERFEREVPVS
346
30
  9
$CSHADOW
280
     0
  9
$SHADOWPLANELOCATION
 40
0.0
  0
ENDSEC
  0
SECTION
  2
CLASSES
  0
CLASS
  1
ACDBDICTIONARYWDFLT
  2
AcDbDictionaryWithDefault
  3
ObjectDBX Classes
 90
        0
 91
        1
280
     0
281
     0
  0
CLASS
  1
ACDBPLACEHOLDER
  2
AcDbPlaceHolder
  3
ObjectDBX Classes
 90
        0
 91
        1
280
     0
281
     0
  0
CLASS
  1
LAYOUT
  2
AcDbLayout
  3
ObjectDBX Classes
 90
        0
 91
        2
280
     0
281
     0
  0
CLASS
  1
DICTIONARYVAR
  2
AcDbDictionaryVar
  3
ObjectDBX Classes
 90
        0
 91
       12
280
     0
281
     0
  0
CLASS
  1
TABLESTYLE
  2
AcDbTableStyle
  3
ObjectDBX Classes
 90
     4095
 91
        1
280
     0
281
     0
  0
CLASS
  1
MATERIAL
  2
AcDbMaterial
  3
ObjectDBX Classes
 90
     1024
 91
        3
280
     0
281
     0
  0
CLASS
  1
CELLSTYLEMAP
  2
AcDbCellStyleMap
  3
ObjectDBX Classes
 90
     1152
 91
        0
280
     1
281
     0
  0
CLASS
  1
MLEADERSTYLE
  2
AcDbMLeaderStyle
  3
ACDB_MLEADERSTYLE_CLASS
 90
     4095
 91
        2
280
     1
281
     0
  0
CLASS
  1
SCALE
  2
AcDbScale
  3
ObjectDBX Classes
 90
     1153
 91
       34
280
     1
281
     0
  0
CLASS
  1
VISUALSTYLE
  2
AcDbVisualStyle
  3
ObjectDBX Classes
 90
     4095
 91
       20
280
     0
281
     0
  0
CLASS
  1
ACAD_PROXY_OBJECT_WRAPPER
  2
AcDbProxyObjectWrapper
  3
ObjectDBX Classes
 90
        0
 91
        0
280
     0
281
     0
  0
CLASS
  1
XRECORD
  2
AcDbXrecord
  3
ObjectDBX Classes
 90
        0
 91
       77
280
     0
281
     0
  0
CLASS
  1
LWPOLYLINE
  2
AcDbPolyline
  3
ObjectDBX Classes
 90
        0
 91
        0
280
     0
281
     1
  0
CLASS
  1
HATCH
  2
AcDbHatch
  3
ObjectDBX Classes
 90
        0
 91
        0
280
     0
281
     1
  0
CLASS
  1
SOLID_BACKGROUND
  2
AcDbSolidBackground
  3
SCENEOE
 90
     4095
 91
        1
280
     0
281
     0
  0
CLASS
  1
NPOCOLLECTION
  2
AcDbImpNonPersistentObjectsCollection
  3
ObjectDBX Classes
 90
     1153
 91
        1
280
     0
281
     0
  0
ENDSEC
  0
SECTION
  2
TABLES
  0
TABLE
  2
VPORT
  5
8
330
0
100
AcDbSymbolTable
 70
     1
  0
VPORT
  5
97
330
8
100
AcDbSymbolTableRecord
100
AcDbViewportTableRecord
  2
*ACTIVE
 70
     0
 10
0.0
 20
0.0
 11
1.0
 21
1.0
 12
0.0
 22
0.0
 13
0.0
 23
0.0
 14
10.0
 24
10.0
 15
10.0
 25
10.0
 16
-584.1509877914145
 26
-751.8415263921198
 36
664.3605101042027
 17
142.1354963137251
 27
271.4922466173296
 37
-88.77040049644277
 40
410.1216361261748
 41
2.157392686804451
 42
50.0
 43
0.0
 44
0.0
 50
0.0
 51
0.0000000000000032
 71
     0
 72
    16
 73
     1
 74
     3
 75
     0
 76
     0
 77
     0
 78
     0
281
     0
 65
     1
110
0.0
120
0.0
130
0.0
111
0.0
121
1.0
131
0.0
112
0.0
122
0.0
132
1.0
 79
     0
146
0.0
348
2F
 60
     3
 61
     5
292
     1
282
     1
141
0.0
142
0.0
 63
   250
421
  3355443
  0
ENDTAB
  0
TABLE
  2
LTYPE
  5
5
330
0
100
AcDbSymbolTable
 70
     1
  0
LTYPE
  5
14
330
5
100
AcDbSymbolTableRecord
100
AcDbLinetypeTableRecord
  2
BYBLOCK
 70
     0
  3

 72
    65
 73
     0
 40
0.0
  0
LTYPE
  5
15
330
5
100
AcDbSymbolTableRecord
100
AcDbLinetypeTableRecord
  2
BYLAYER
 70
     0
  3

 72
    65
 73
     0
 40
0.0
  0
LTYPE
  5
16
330
5
100
AcDbSymbolTableRecord
100
AcDbLinetypeTableRecord
  2
CONTINUOUS
 70
     0
  3
Solid line
 72
    65
 73
     0
 40
0.0
  0
ENDTAB
  0
TABLE
  2
LAYER
  5
2
330
0
100
AcDbSymbolTable
 70
     2
  0
LAYER
  5
10
330
2
100
AcDbSymbolTableRecord
100
AcDbLayerTableRecord
  2
0
 70
     0
 62
     7
  6
CONTINUOUS
370
    -3
390
36F
347
272
  0
LAYER
  5
ED
330
2
100
AcDbSymbolTableRecord
100
AcDbLayerTableRecord
  2
ACESSORIOS
 70
     0
 62
     2
  6
CONTINUOUS
370
    -3
390
36F
347
272
  0
ENDTAB
  0
TABLE
  2
STYLE
  5
3
330
0
100
AcDbSymbolTable
 70
     2
  0
STYLE
  5
11
330
3
100
AcDbSymbolTableRecord
100
AcDbTextStyleTableRecord
  2
STANDARD
 70
     0
 40
0.0
 41
1.0
 50
0.0
 71
     0
 42
2.5
  3
txt
  4

  0
STYLE
  5
55
330
3
100
AcDbSymbolTableRecord
100
AcDbTextStyleTableRecord
  2
ANNOTATIVE
 70
     0
 40
0.0
 41
1.0
 50
0.0
 71
     0
 42
0.2
  3
txt
  4

1001
ACADANNOTATIVE
1000
AnnotativeData
1002
{
1070
     1
1070
     1
1002
}
  0
ENDTAB
  0
TABLE
  2
VIEW
  5
6
330
0
100
AcDbSymbolTable
 70
     0
  0
ENDTAB
  0
TABLE
  2
UCS
  5
7
330
0
100
AcDbSymbolTable
 70
     0
  0
ENDTAB
  0
TABLE
  2
APPID
  5
9
330
0
100
AcDbSymbolTable
 70
     5
  0
APPID
  5
12
330
9
100
AcDbSymbolTableRecord
100
AcDbRegAppTableRecord
  2
ACAD
 70
     0
  0
APPID
  5
32A
330
9
100
AcDbSymbolTableRecord
100
AcDbRegAppTableRecord
  2
ACADANNOTATIVE
 70
     0
  0
APPID
  5
32B
330
9
100
AcDbSymbolTableRecord
100
AcDbRegAppTableRecord
  2
ACAD_DSTYLE_DIMJOGGED_JOGA
 70
     0
  0
APPID
  5
32C
330
9
100
AcDbSymbolTableRecord
100
AcDbRegAppTableRecord
  2
ACAD_MLEADERVER
 70
     0
  0
APPID
  5
37D
330
9
100
AcDbSymbolTableRecord
100
AcDbRegAppTableRecord
  2
DCO15
 70
     0
  0
ENDTAB
  0
TABLE
  2
DIMSTYLE
  5
A
330
0
100
AcDbSymbolTable
 70
     3
100
AcDbDimStyleTable
 71
     0
  0
DIMSTYLE
105
27
330
A
100
AcDbSymbolTableRecord
100
AcDbDimStyleTableRecord
  2
STANDARD
 70
     0
340
11
  0
DIMSTYLE
105
53
330
A
100
AcDbSymbolTableRecord
100
AcDbDimStyleTableRecord
  2
ISO-25
 70
     0
 41
2.5
 42
0.625
 43
3.75
 44
1.25
 73
     0
 74
     0
 77
     1
 78
     8
140
2.5
141
2.5
143
0.03937007874016
147
0.625
171
     3
172
     1
271
     2
272
     2
274
     3
283
     0
284
     8
340
11
  0
DIMSTYLE
105
54
330
A
100
AcDbSymbolTableRecord
100
AcDbDimStyleTableRecord
  2
ANNOTATIVE
 70
     0
340
11
1001
ACADANNOTATIVE
1000
AnnotativeData
1002
{
1070
     1
1070
     1
1002
}
  0
ENDTAB
  0
TABLE
  2
BLOCK_RECORD
  5
1
330
0
100
AcDbSymbolTable
 70
     0
  0
BLOCK_RECORD
  5
1F
330
1
100
AcDbSymbolTableRecord
100
AcDbBlockTableRecord
  2
*MODEL_SPACE
340
373
 70
     0
280
     1
281
     0
  0
BLOCK_RECORD
  5
73
330
1
100
AcDbSymbolTableRecord
100
AcDbBlockTableRecord
  2
*PAPER_SPACE
340
374
 70
     0
280
     1
281
     0
  0
ENDTAB
  0
ENDSEC
  0
SECTION
  2
BLOCKS
  0
BLOCK
  5
20
330
1F
100
AcDbEntity
  8
0
100
AcDbBlockBegin
  2
*MODEL_SPACE
 70
     0
 10
0.0
 20
0.0
 30
0.0
  3
*MODEL_SPACE
  1

  0
ENDBLK
  5
21
330
1F
100
AcDbEntity
  8
0
100
AcDbBlockEnd
  0
BLOCK
  5
75
330
73
100
AcDbEntity
 67
     1
  8
0
100
AcDbBlockBegin
  2
*PAPER_SPACE
 70
     0
 10
0.0
 20
0.0
 30
0.0
  3
*PAPER_SPACE
  1

  0
ENDBLK
  5
76
330
73
100
AcDbEntity
 67
     1
  8
0
100
AcDbBlockEnd
  0
ENDSEC
  0
SECTION
  2
ENTITIES
  0
3DFACE
  5
F3
330
1F
100
AcDbEntity
  8
ACESSORIOS
100
AcDbFace
 10
411.7758150358675
 20
19.6906391705439
 30
-3.092968912108091
 11
387.8008150358679
 21
19.6906391705439
 31
-3.092968912108091
 12
387.8008150358679
 22
19.6906391705439
 32
-0.2000000000000028
 13
411.7758150358675
 23
19.6906391705439
 33
-0.2000000000000028
  0
3DFACE
  5
F4
330
1F
100
AcDbEntity
  8
ACESSORIOS
100
AcDbFace
 10
387.8008150358679
 20
12.92346281956401
 30
-13.3
 11
387.8008150358679
 21
26.34999999911782
 31
-13.3
 12
387.8008150358679
 22
19.6906391705439
 32
-3.092968912108091
 13
387.8008150358679
 23
12.92346281956401
 33
-7.0
  0
3DFACE
  5
F5
330
1F
100
AcDbEntity
  8
ACESSORIOS
100
AcDbFace
 10
387.8008150358679
 20
19.6906391705439
 30
-3.092968912108091
 11
387.8008150358679
 21
19.6906391705439
 31
-0.2000000000000028
 12
387.8008150358679
 22
26.34999999911782
 32
-0.2000000000000028
 13
387.8008150358679
 23
26.34999999911782
 33
-13.3
  0
3DFACE
  5
F6
330
1F
100
AcDbEntity
  8
ACESSORIOS
100
AcDbFace
 10
388.6870964766784
 20
31.37635182145088
 30
-13.3
 11
388.6870964766784
 21
31.37635182145089
 31
-0.2000000000000028
 12
387.8008150358679
 22
26.34999999911782
 32
-0.2000000000000028
 13
387.8008150358679
 23
26.34999999911782
 33
-13.3
  0
3DFACE
  5
F7
330
1F
100
AcDbEntity
  8
ACESSORIOS
100
AcDbFace
 10
387.8529762954077
 20
32.53858143517791
 30
-13.3
 11
382.746854401868
 21
29.61427785398547
 31
-13.3
 12
382.746854401868
 22
29.61427785398547
 32
-0.2000000000000028
 13
387.8529762954077
 23
32.53858143517793
 33
-0.2000000000000028
  0
3DFACE
  5
F8
330
1F
100
AcDbEntity
  8
ACESSORIOS
100
AcDbFace
 10
382.1976637361061
 20
33.04726962686448
 30
-13.3
 11
382.746854401868
 21
29.61427785398547
 31
-13.3
 12
382.746854401868
 22
29.61427785398547
 32
-0.2000000000000028
 13
382.1976637361061
 23
33.04726962686448
 33
-0.2000000000000028
  0
3DFACE
  5
F9
330
1F
100
AcDbEntity
  8
ACESSORIOS
100
AcDbFace
 10
382.1976637361061
 20
33.04726962686448
 30
-0.2000000000000028
 11
383.8252806307409
 21
34.06637771879466
 31
-0.2000000000000028
 12
383.8252806307409
 22
34.06637771879466
 32
-13.3
 13
382.1976637361061
 23
33.04726962686448
 33
-13.3
  0
3DFACE
  5
FA
330
1F
100
AcDbEntity
  8
ACESSORIOS
100
AcDbFace
 10
382.6162945901551
 20
38.88352218827016
 30
-13.3
 11
383.8252806307409
 21
34.06637771879466
 31
-13.3
 12
383.8252806307409
 22
34.06637771879466
 32
-0.2000000000000028
 13
382.6162945901551
 23
38.88352218827016
 33
-0.2000000000000028
  0
3DFACE
  5
FB
330
1F
100
AcDbEntity
  8
ACESSORIOS
100
AcDbFace
 10
374.6763173808654
 20
48.54571047723661
 30
-13.3
 11
374.6763173808654
 21
48.54571047723662
 31
-0.2000000000000028
 12
374.2613177159483
 22
62.62092073756519
 32
-0.200000000000017
 13
374.2613177159483
 23
62.62092073756519
 33
-13.30000000000001
  0
3DFACE
  5
FC
330
1F
100
AcDbEntity
  8
ACESSORIOS
100
AcDbFace
 10
374.2613177159483
 20
62.62092073756519
 30
-13.30000000000001
 11
361.6407192601712
 21
88.49698223447521
 31
-13.30000000000001
 12
361.6407192601712
 22
88.49698223447523
 32
-0.200000000000017
 13
374.2613177159483
 23
62.62092073756519
 33
-0.200000000000017
  0
3DFACE
  5
FD
330
1F
100
AcDbEntity
  8
ACESSORIOS
100
AcDbFace
 10
335.353143476594
 20
20.36959217609412
 30
-13.3
 11
335.353143476594
 21
20.36959217609412
 31
-0.2000000000000028
 12
356.6719719667734
 22
22.01789662251461
 32
-0.2000000000000028
 13
356.2758150358675
 23
21.98726702056473
 33
-13.3
  0
3DFACE
  5
FE
330
1F
100
AcDbEntity
  8
ACESSORIOS
100
AcDbFace
 10
358.2758150358675
 20
12.92346281956401
 30
-7.965184180590284
 11
358.2758150358675
 21
19.6906391705439
 31
-0.2000000000000028
 12
358.2758150358675
 22
19.6906391705439
 32
-10.43894086899202
 13
358.2758150358675
 23
19.6906391705439
 33
-10.43894086899202
  0
3DFACE
  5
102
330
1F
100
AcDbEntity
  8
ACESSORIOS
100
AcDbFace
 10
358.2758150358675
 20
1.964490471062674
 30
-13.30000000000002
 11
358.2758150358675
 21
0.0
 31
-13.30000000000002
 12
358.2758150358675
 22
0.0
 32
-6.650000000000005
 13
358.2758150358675
 23
1.964490471062674
 33
-11.79999999999999
  0
3DFACE
  5
104
330
1F
100
AcDbEntity
  8
ACESSORIOS
100
AcDbFace
 10
358.2758150358675
 20
12.92346281956401
 30
-7.0
 11
358.2758150358675
 21
4.199999999999988
 31
-7.0
 12
358.2758150358675
 22
6.199999999999988
 32
0.0
 13
358.2758150358675
 23
6.199999999999988
 33
0.0
  0
3DFACE
  5
105
330
1F
100
AcDbEntity
  8
ACESSORIOS
100
AcDbFace
 10
358.2758150358675
 20
4.199999999999988
 30
-7.0
 11
358.2758150358675
 21
6.199999999999988
 31
0.0
 12
358.2758150358675
 22
0.0
 32
0.0
 13
358.2758150358675
 23
0.0
 33
-6.650000000000005
  0
3DFACE
  5
107
330
1F
100
AcDbEntity
  8
ACESSORIOS
100
AcDbFace
 10
358.2758150358675
 20
0.0
 30
-6.650000000000005
 11
358.2758150358675
 21
4.199999999999988
 31
-7.0
 12
358.2758150358675
 22
2.376392342463717
 32
-10.15858111592445
 13
358.2758150358675
 23
1.964490471062674
 33
-11.79999999999999
  0
3DFACE
  5
108
330
1F
100
AcDbEntity
  8
ACESSORIOS
100
AcDbFace
 10
358.2758150358675
 20
6.199999999999988
 30
0.0
 11
358.2758150358675
 21
0.0
 31
0.0
 12
411.7758150358675
 22
0.0
 32
0.0
 13
411.7758150358675
 23
6.199999999999988
 33
0.0
  0
3DFACE
  5
195
330
1F
100
AcDbEntity
  8
ACESSORIOS
100
AcDbFace
 10
331.3008150358756
 20
75.4199063544162
 30
-13.3
 11
331.9145111297516
 21
23.79845555852769
 31
-13.3
 12
331.9145111297516
 22
23.79845555852769
 32
-0.2000000000000028
 13
331.3008150358756
 23
75.4199063544162
 33
-0.200000000000017
  0
3DFACE
  5
196
330
1F
100
AcDbEntity
  8
ACESSORIOS
100
AcDbFace
 10
334.0031386160156
 20
80.50416791116539
 30
-0.200000000000017
 11
361.6407192601712
 21
88.49698223447523
 31
-0.200000000000017
 12
361.6407192601712
 22
88.49698223447521
 32
-13.30000000000001
 13
334.0031386160156
 23
80.50416791116539
 33
-13.3
  0
3DFACE
  5
197
330
1F
100
AcDbEntity
  8
ACESSORIOS
100
AcDbFace
 10
361.6407192601712
 20
88.49698223447521
 30
-13.30000000000001
 11
374.2613177159483
 21
62.62092073756519
 31
-13.30000000000001
 12
374.2613177159483
 22
62.62092073756519
 32
-0.200000000000017
 13
361.6407192601712
 23
88.49698223447523
 33
-0.200000000000017
  0
3DFACE
  5
198
330
1F
100
AcDbEntity
  8
ACESSORIOS
100
AcDbFace
 10
374.6763173808654
 20
48.54571047723661
 30
-13.3
 11
374.6763173808654
 21
48.54571047723662
 31
-0.2000000000000028
 12
374.2613177159483
 22
62.62092073756519
 32
-0.200000000000017
 13
374.2613177159483
 23
62.62092073756519
 33
-13.30000000000001
  0
3DFACE
  5
1DC
330
1F
100
AcDbEntity
  8
ACESSORIOS
100
AcDbFace
 10
334.0031386160156
 20
80.50416791116539
 30
-0.200000000000017
 11
331.3008150358756
 21
75.4199063544162
 31
-0.200000000000017
 12
331.3008150358756
 22
75.4199063544162
 32
-13.3
 13
334.0031386160156
 23
80.50416791116539
 33
-13.3
  0
3DFACE
  5
1DD
330
1F
100
AcDbEntity
  8
ACESSORIOS
100
AcDbFace
 10
335.353143476594
 20
20.36959217609412
 30
-0.2000000000000028
 11
331.9145111297518
 21
23.79845555852769
 31
-0.2000000000000028
 12
331.9145111297518
 22
23.79845555852768
 32
-13.3
 13
335.353143476594
 23
20.36959217609412
 33
-13.3
  0
3DFACE
  5
1DE
330
1F
100
AcDbEntity
  8
ACESSORIOS
100
AcDbFace
 10
358.0630191626314
 20
20.60685006773977
 30
-10.77386384385974
 11
358.0630191626314
 21
20.60685006773977
 31
-0.2000000000000028
 12
356.6719719667734
 22
22.01789662251461
 32
-0.2000000000000028
 13
356.2758150358675
 23
21.98726702056473
 33
-11.27847839692062
  0
3DFACE
  5
1DF
330
1F
100
AcDbEntity
  8
ACESSORIOS
100
AcDbFace
 10
356.2758150358675
 20
21.98726702056473
 30
-11.27847839692062
 11
356.2758150358675
 21
27.51731500365567
 31
-13.3
 12
356.2758150358675
 22
21.98726702056473
 32
-13.3
 13
356.2758150358675
 23
21.98726702056473
 33
-13.3
  0
3DFACE
  5
1E0
330
1F
100
AcDbEntity
  8
ACESSORIOS
100
AcDbFace
 10
356.2758150358675
 20
21.98726702056473
 30
-11.27847839692062
 11
356.2758150358675
 21
21.98726702056473
 31
-13.3
 12
356.6719719667734
 22
22.01789662251461
 32
-0.2000000000000028
 13
356.6719719667734
 23
22.01789662251461
 33
-0.2000000000000028
  0
3DFACE
  5
1E1
330
1F
100
AcDbEntity
  8
ACESSORIOS
100
AcDbFace
 10
358.2758150358675
 20
19.6906391705439
 30
-0.2000000000000028
 11
358.0630191626315
 21
20.6068500677398
 31
-0.2000000000000028
 12
358.0630191626315
 22
20.6068500677398
 32
-10.7738638438597
 13
358.2758150358675
 23
19.6906391705439
 33
-10.43894086899202
  0
3DFACE
  5
1E2
330
1F
100
AcDbEntity
  8
ACESSORIOS
100
AcDbFace
 10
374.6763173808654
 20
48.54571047723662
 30
-0.2000000000000028
 11
380.9160154476918
 21
39.5725910740825
 31
-0.2000000000000028
 12
380.9160154476918
 22
39.5725910740825
 32
-13.3
 13
374.6763173808654
 23
48.54571047723661
 33
-13.3
  0
3DFACE
  5
1E3
330
1F
100
AcDbEntity
  8
ACESSORIOS
100
AcDbFace
 10
380.9160154476918
 20
39.5725910740825
 30
-13.3
 11
382.6162945901551
 21
38.88352218827016
 31
-13.3
 12
382.6162945901551
 22
38.88352218827016
 32
-0.2000000000000028
 13
380.9160154476918
 23
39.5725910740825
 33
-0.2000000000000028
  0
3DFACE
  5
1E5
330
1F
100
AcDbEntity
  8
ACESSORIOS
100
AcDbFace
 10
382.1976637361061
 20
33.04726962686448
 30
-13.3
 11
382.1976637361061
 21
33.04726962686448
 31
-0.2000000000000028
 12
383.8252806307409
 22
34.06637771879466
 32
-0.2000000000000028
 13
383.8252806307409
 23
34.06637771879466
 33
-13.3
  0
3DFACE
  5
1E6
330
1F
100
AcDbEntity
  8
ACESSORIOS
100
AcDbFace
 10
382.1976637361061
 20
33.04726962686448
 30
-13.3
 11
382.746854401868
 21
29.61427785398547
 31
-13.3
 12
382.746854401868
 22
29.61427785398547
 32
-0.2000000000000028
 13
382.1976637361061
 23
33.04726962686448
 33
-0.2000000000000028
  0
3DFACE
  5
1E7
330
1F
100
AcDbEntity
  8
ACESSORIOS
100
AcDbFace
 10
382.746854401868
 20
29.61427785398547
 30
-0.2000000000000028
 11
387.8529762954077
 21
32.53858143517793
 31
-0.2000000000000028
 12
387.8529762954077
 22
32.53858143517791
 32
-13.3
 13
382.746854401868
 23
29.61427785398547
 33
-13.3
  0
3DFACE
  5
1E8
330
1F
100
AcDbEntity
  8
ACESSORIOS
100
AcDbFace
 10
387.8529762954077
 20
32.53858143517791
 30
-13.3
 11
388.6870964766784
 21
31.37635182145088
 31
-13.3
 12
388.6870964766784
 22
31.37635182145089
 32
-0.2000000000000028
 13
387.8529762954077
 23
32.53858143517793
 33
-0.2000000000000028
  0
3DFACE
  5
1E9
330
1F
100
AcDbEntity
  8
ACESSORIOS
100
AcDbFace
 10
388.6870964766784
 20
31.37635182145089
 30
-0.2000000000000028
 11
387.8008150358679
 21
26.34999999911782
 31
-0.2000000000000028
 12
387.8008150358679
 22
26.34999999911782
 32
-13.3
 13
388.6870964766784
 23
31.37635182145088
 33
-13.3
  0
3DFACE
  5
1EA
330
1F
100
AcDbEntity
  8
ACESSORIOS
100
AcDbFace
 10
387.8008150358679
 20
19.6906391705439
 30
-0.2000000000000028
 11
411.7758150358675
 21
19.6906391705439
 31
-0.2000000000000028
 12
411.7758150358675
 22
19.6906391705439
 32
-3.092968912108091
 13
387.8008150358679
 23
19.6906391705439
 33
-3.092968912108091
  0
3DFACE
  5
1EE
330
1F
100
AcDbEntity
  8
ACESSORIOS
100
AcDbFace
 10
399.7758150358675
 20
3.0
 30
-11.79999999999999
 11
399.7758150358675
 21
1.964490471062717
 31
-11.79999999999999
 12
399.7758150358675
 22
2.376392342463717
 32
-10.1585811159244
 13
399.7758150358675
 23
4.199999999999988
 33
-7.0
  0
3DFACE
  5
1F0
330
1F
100
AcDbEntity
  8
ACESSORIOS
100
AcDbFace
 10
399.7758150358675
 20
3.0
 30
-11.79999999999999
 11
399.7758150358675
 21
1.964490471062717
 31
-11.79999999999999
 12
411.7758150358675
 22
0.0
 32
-11.80000000000001
 13
411.7758150358675
 23
2.999999999999971
 33
-11.79999999999999
  0
3DFACE
  5
1F1
330
1F
100
AcDbEntity
  8
ACESSORIOS
100
AcDbFace
 10
399.7758150358675
 20
1.964490471062717
 30
-11.79999999999999
 11
391.5971353794274
 21
1.964490471062717
 31
-11.79999999999999
 12
391.5971353794274
 22
0.0
 32
-11.79999999999999
 13
411.7758150358675
 23
0.0
 33
-11.80000000000001
  0
3DFACE
  5
205
330
1F
100
AcDbEntity
  8
ACESSORIOS
100
AcDbFace
 10
358.2758150358675
 20
0.0
 30
-13.30000000000002
 11
367.0971353794275
 21
0.0
 31
-13.3
 12
368.5971353794275
 22
0.0
 32
-11.79999999999999
 13
358.2758150358675
 23
0.0
 33
0.0
  0
3DFACE
  5
206
330
1F
100
AcDbEntity
  8
ACESSORIOS
100
AcDbFace
 10
358.2758150358675
 20
0.0
 30
0.0
 11
385.0258150358675
 21
0.0
 31
0.0
 12
380.3544946923078
 22
0.0
 32
-11.79999999999999
 13
368.5971353794275
 23
0.0
 33
-11.79999999999999
  0
3DFACE
  5
207
330
1F
100
AcDbEntity
  8
ACESSORIOS
100
AcDbFace
 10
385.0258150358675
 20
0.0
 30
0.0
 11
391.5971353794274
 21
0.0
 31
-11.79999999999999
 12
380.3544946923078
 22
0.0
 32
-11.79999999999999
 13
380.3544946923078
 23
0.0
 33
-11.79999999999999
  0
3DFACE
  5
208
330
1F
100
AcDbEntity
  8
ACESSORIOS
100
AcDbFace
 10
380.3544946923078
 20
0.0
 30
-11.79999999999999
 11
381.8544946923078
 21
0.0
 31
-13.3
 12
390.0971353794275
 22
0.0
 32
-13.3
 13
391.5971353794274
 23
0.0
 33
-11.79999999999999
  0
3DFACE
  5
209
330
1F
100
AcDbEntity
  8
ACESSORIOS
100
AcDbFace
 10
391.5971353794274
 20
0.0
 30
-11.79999999999999
 11
411.7758150358675
 21
0.0
 31
-11.80000000000001
 12
411.7758150358675
 22
0.0
 32
0.0
 13
385.0258150358675
 23
0.0
 33
0.0
  0
3DFACE
  5
20A
330
1F
100
AcDbEntity
  8
ACESSORIOS
100
AcDbFace
 10
368.2758150358675
 20
12.92346281956399
 30
-7.965184180590298
 11
368.2758150358675
 21
27.51731500365566
 31
-13.3
 12
368.2758150358675
 22
12.92346281956399
 32
-13.3
 13
368.2758150358675
 23
12.92346281956399
 33
-13.3
  0
3DFACE
  5
20B
330
1F
100
AcDbEntity
  8
ACESSORIOS
100
AcDbFace
 10
368.2758150358675
 20
27.51731500365566
 30
-13.3
 11
356.2758150358675
 21
27.51731500365566
 31
-13.3
 12
356.2758150358675
 22
21.98726702056469
 32
-11.2784783969206
 13
368.2758150358675
 23
20.22038891160983
 33
-10.63259209029517
  0
3DFACE
  5
20C
330
1F
100
AcDbEntity
  8
ACESSORIOS
100
AcDbFace
 10
356.2758150358675
 20
21.98726702056469
 30
-11.2784783969206
 11
358.0630191626315
 21
20.6068500677398
 31
-10.7738638438597
 12
358.2758150358675
 22
19.6906391705439
 32
-10.43894086899202
 13
368.2758150358675
 23
20.22038891160983
 33
-10.63259209029517
  0
3DFACE
  5
20D
330
1F
100
AcDbEntity
  8
ACESSORIOS
100
AcDbFace
 10
358.2758150358675
 20
19.6906391705439
 30
-10.43894086899202
 11
358.2758150358675
 21
12.92346281956401
 31
-7.965184180590284
 12
368.2758150358675
 22
12.92346281956399
 32
-7.965184180590298
 13
368.2758150358675
 23
20.22038891160983
 33
-10.63259209029517
  0
3DFACE
  5
20E
330
1F
100
AcDbEntity
  8
ACESSORIOS
100
AcDbFace
 10
368.2758150358675
 20
12.92346281956399
 30
-13.3
 11
387.8008150358679
 21
12.92346281956401
 31
-13.3
 12
387.8008150358679
 22
12.92346281956401
 32
-7.0
 13
368.2758150358675
 23
12.92346281956399
 33
-7.965184180590298
  0
3DFACE
  5
20F
330
1F
100
AcDbEntity
  8
ACESSORIOS
100
AcDbFace
 10
387.8008150358679
 20
12.92346281956399
 30
-7.0
 11
368.2758150358675
 21
12.92346281956399
 31
-7.965184180590298
 12
358.2758150358675
 22
12.92346281956401
 32
-7.965184180590284
 13
358.2758150358675
 23
12.92346281956401
 33
-7.0
  0
3DFACE
  5
210
330
1F
100
AcDbEntity
  8
ACESSORIOS
100
AcDbFace
 10
331.3008150358756
 20
75.4199063544162
 30
-0.200000000000017
 11
374.2613177159483
 21
62.62092073756519
 31
-0.200000000000017
 12
361.6407192601712
 22
88.49698223447523
 32
-0.200000000000017
 13
334.0031386160156
 23
80.50416791116539
 33
-0.200000000000017
  0
3DFACE
  5
211
330
1F
100
AcDbEntity
  8
ACESSORIOS
100
AcDbFace
 10
331.3008150358756
 20
75.4199063544162
 30
-0.200000000000017
 11
331.9145111297516
 21
23.79845555852769
 31
-0.2000000000000028
 12
374.6763173808654
 22
48.54571047723662
 32
-0.2000000000000028
 13
374.2613177159483
 23
62.62092073756519
 33
-0.200000000000017
  0
3DFACE
  5
212
330
1F
100
AcDbEntity
  8
ACESSORIOS
100
AcDbFace
 10
380.9160154476918
 20
39.5725910740825
 30
-0.2000000000000028
 11
335.353143476594
 21
20.36959217609412
 31
-0.2000000000000028
 12
331.9145111297518
 22
23.79845555852769
 32
-0.2000000000000028
 13
374.6763173808654
 23
48.54571047723662
 33
-0.2000000000000028
  0
3DFACE
  5
213
330
1F
100
AcDbEntity
  8
ACESSORIOS
100
AcDbFace
 10
335.353143476594
 20
20.36959217609412
 30
-0.2000000000000028
 11
356.6719719667734
 21
22.01789662251461
 31
-0.2000000000000028
 12
382.6162945901551
 22
38.88352218827016
 32
-0.2000000000000028
 13
380.9160154476918
 23
39.5725910740825
 33
-0.2000000000000028
  0
3DFACE
  5
214
330
1F
100
AcDbEntity
  8
ACESSORIOS
100
AcDbFace
 10
383.8252806307409
 20
34.06637771879466
 30
-0.2000000000000028
 11
382.6162945901551
 21
38.88352218827016
 31
-0.2000000000000028
 12
369.6441332784642
 22
30.45070940539238
 32
-0.2000000000000028
 13
382.1976637361061
 23
33.04726962686448
 33
-0.2000000000000028
  0
3DFACE
  5
215
330
1F
100
AcDbEntity
  8
ACESSORIOS
100
AcDbFace
 10
369.6441332784642
 20
30.45070940539238
 30
-0.2000000000000028
 11
356.6719719667734
 21
22.01789662251461
 31
-0.2000000000000028
 12
358.0630191626314
 22
20.60685006773977
 32
-0.2000000000000028
 13
382.1976637361061
 23
33.04726962686448
 33
-0.2000000000000028
  0
3DFACE
  5
216
330
1F
100
AcDbEntity
  8
ACESSORIOS
100
AcDbFace
 10
358.0630191626314
 20
20.60685006773977
 30
-0.2000000000000028
 11
358.2758150358675
 21
19.6906391705439
 31
-0.2000000000000028
 12
382.746854401868
 22
29.61427785398547
 32
-0.2000000000000028
 13
382.1976637361061
 23
33.04726962686448
 33
-0.2000000000000028
  0
3DFACE
  5
219
330
1F
100
AcDbEntity
  8
ACESSORIOS
100
AcDbFace
 10
358.2758150358675
 20
6.199999999999988
 30
0.0
 11
411.7758150358675
 21
6.199999999999988
 31
0.0
 12
411.7758150358675
 22
19.6906391705439
 32
-0.2000000000000028
 13
387.8008150358679
 23
19.6906391705439
 33
-0.2000000000000028
  0
3DFACE
  5
21A
330
1F
100
AcDbEntity
  8
ACESSORIOS
100
AcDbFace
 10
387.8008150358679
 20
19.6906391705439
 30
-0.2000000000000028
 11
387.8008150358679
 21
26.34999999911782
 31
-0.2000000000000028
 12
358.2758150358675
 22
19.6906391705439
 32
-0.2000000000000028
 13
358.2758150358675
 23
6.199999999999988
 33
0.0
  0
3DFACE
  5
21B
330
1F
100
AcDbEntity
  8
ACESSORIOS
100
AcDbFace
 10
358.2758150358675
 20
19.6906391705439
 30
-0.2000000000000028
 11
387.8008150358679
 21
26.34999999911782
 31
-0.2000000000000028
 12
382.746854401868
 22
29.61427785398547
 32
-0.2000000000000028
 13
382.746854401868
 23
29.61427785398547
 33
-0.2000000000000028
  0
3DFACE
  5
21C
330
1F
100
AcDbEntity
  8
ACESSORIOS
100
AcDbFace
 10
382.746854401868
 20
29.61427785398547
 30
-0.2000000000000028
 11
387.8529762954077
 21
32.53858143517793
 31
-0.2000000000000028
 12
388.6870964766784
 22
31.37635182145089
 32
-0.2000000000000028
 13
387.8008150358679
 23
26.34999999911782
 33
-0.2000000000000028
  0
3DFACE
  5
21D
330
1F
100
AcDbEntity
  8
ACESSORIOS
100
AcDbFace
 10
368.2758150358675
 20
27.51731500365566
 30
-13.3
 11
382.746854401868
 21
29.61427785398547
 31
-13.3
 12
387.8008150358679
 22
12.92346281956401
 32
-13.3
 13
368.2758150358675
 23
12.92346281956399
 33
-13.3
  0
3DFACE
  5
21E
330
1F
100
AcDbEntity
  8
ACESSORIOS
100
AcDbFace
 10
387.8008150358679
 20
26.34999999911782
 30
-13.3
 11
387.8008150358679
 21
12.92346281956401
 31
-13.3
 12
382.746854401868
 22
29.61427785398547
 32
-13.3
 13
387.8529762954077
 23
32.53858143517791
 33
-13.3
  0
3DFACE
  5
21F
330
1F
100
AcDbEntity
  8
ACESSORIOS
100
AcDbFace
 10
387.8529762954077
 20
32.53858143517791
 30
-13.3
 11
388.6870964766784
 21
31.37635182145088
 31
-13.3
 12
387.8008150358679
 22
26.34999999911782
 32
-13.3
 13
387.8008150358679
 23
26.34999999911782
 33
-13.3
  0
3DFACE
  5
220
330
1F
100
AcDbEntity
  8
ACESSORIOS
100
AcDbFace
 10
356.2758150358675
 20
27.51731500365567
 30
-13.3
 11
331.9145111297518
 21
23.79845555852768
 31
-13.3
 12
335.353143476594
 22
20.36959217609412
 32
-13.3
 13
356.2758150358675
 23
21.98726702056473
 33
-13.3
  0
3DFACE
  5
222
330
1F
100
AcDbEntity
  8
ACESSORIOS
100
AcDbFace
 10
374.2613177159483
 20
62.62092073756519
 30
-13.30000000000001
 11
374.6763173808654
 21
48.54571047723661
 31
-13.3
 12
331.9145111297516
 22
23.79845555852769
 32
-13.3
 13
331.3008150358756
 23
75.4199063544162
 33
-13.3
  0
3DFACE
  5
226
330
1F
100
AcDbEntity
  8
ACESSORIOS
100
AcDbFace
 10
356.2758150358675
 20
27.51731500365567
 30
-13.3
 11
380.9160154476918
 21
39.5725910740825
 31
-13.3
 12
374.6763173808654
 22
48.54571047723661
 32
-13.3
 13
331.9145111297516
 23
23.79845555852769
 33
-13.3
  0
3DFACE
  5
227
330
1F
100
AcDbEntity
  8
ACESSORIOS
100
AcDbFace
 10
380.9160154476918
 20
39.5725910740825
 30
-13.3
 11
356.2758150358675
 21
27.51731500365567
 31
-13.3
 12
368.2758150358675
 22
27.51731500365566
 32
-13.3
 13
382.6162945901551
 23
38.88352218827016
 33
-13.3
  0
3DFACE
  5
228
330
1F
100
AcDbEntity
  8
ACESSORIOS
100
AcDbFace
 10
382.6162945901551
 20
38.88352218827016
 30
-13.3
 11
383.8252806307409
 21
34.06637771879466
 31
-13.3
 12
382.1976637361061
 22
33.04726962686448
 32
-13.3
 13
368.2758150358675
 23
27.51731500365566
 33
-13.3
  0
3DFACE
  5
229
330
1F
100
AcDbEntity
  8
ACESSORIOS
100
AcDbFace
 10
382.1976637361061
 20
33.04726962686448
 30
-13.3
 11
382.746854401868
 21
29.61427785398547
 31
-13.3
 12
368.2758150358675
 22
27.51731500365566
 32
-13.3
 13
368.2758150358675
 23
27.51731500365566
 33
-13.3
  0
3DFACE
  5
22A
330
1F
100
AcDbEntity
  8
ACESSORIOS
100
AcDbFace
 10
374.2613177159483
 20
62.62092073756519
 30
-13.30000000000001
 11
331.3008150358756
 21
75.4199063544162
 31
-13.3
 12
334.0031386160156
 22
80.50416791116539
 32
-13.3
 13
361.6407192601712
 23
88.49698223447521
 33
-13.30000000000001
  0
LINE
  5
238
330
1F
100
AcDbEntity
  8
ACESSORIOS
100
AcDbLine
 10
367.0971353794275
 20
0.0
 30
-13.3
 11
367.0971353794275
 21
1.964490471062674
 31
-13.3
  0
LINE
  5
23C
330
1F
100
AcDbEntity
  8
ACESSORIOS
100
AcDbLine
 10
390.0971353794275
 20
0.0
 30
-13.3
 11
390.0971353794275
 21
1.964490471062674
 31
-13.3
  0
3DFACE
  5
23E
330
1F
100
AcDbEntity
  8
ACESSORIOS
100
AcDbFace
 10
391.5971353794274
 20
1.964490471062717
 30
-11.79999999999999
 11
380.3544946923078
 21
1.964490471062674
 31
-11.79999999999999
 12
381.8544946923078
 22
1.964490471062674
 32
-13.3
 13
390.0971353794275
 23
1.964490471062674
 33
-13.3
  0
3DFACE
  5
23F
330
1F
100
AcDbEntity
  8
ACESSORIOS
100
AcDbFace
 10
390.0971353794275
 20
1.964490471062674
 30
-13.3
 11
390.0971353794275
 21
0.0
 31
-13.3
 12
381.8544946923078
 22
0.0
 32
-13.3
 13
381.8544946923078
 23
1.964490471062674
 33
-13.3
  0
3DFACE
  5
240
330
1F
100
AcDbEntity
  8
ACESSORIOS
100
AcDbFace
 10
381.8544946923078
 20
1.964490471062674
 30
-13.3
 11
380.3544946923078
 21
1.964490471062674
 31
-11.79999999999999
 12
380.3544946923078
 22
0.0
 32
-11.79999999999999
 13
381.8544946923078
 23
0.0
 33
-13.3
  0
3DFACE
  5
241
330
1F
100
AcDbEntity
  8
ACESSORIOS
100
AcDbFace
 10
390.0971353794275
 20
0.0
 30
-13.3
 11
391.5971353794274
 21
0.0
 31
-11.79999999999999
 12
391.5971353794274
 22
1.964490471062717
 32
-11.79999999999999
 13
390.0971353794275
 23
1.964490471062674
 33
-13.3
  0
3DFACE
  5
242
330
1F
100
AcDbEntity
  8
ACESSORIOS
100
AcDbFace
 10
368.5971353794275
 20
1.964490471062674
 30
-11.79999999999999
 11
358.2758150358675
 21
1.964490471062674
 31
-11.79999999999999
 12
358.2758150358675
 22
1.964490471062674
 32
-13.30000000000002
 13
367.0971353794275
 23
1.964490471062674
 33
-13.3
  0
3DFACE
  5
243
330
1F
100
AcDbEntity
  8
ACESSORIOS
100
AcDbFace
 10
367.0971353794275
 20
1.964490471062674
 30
-13.3
 11
367.0971353794275
 21
0.0
 31
-13.3
 12
358.2758150358675
 22
0.0
 32
-13.30000000000002
 13
358.2758150358675
 23
1.964490471062674
 33
-13.30000000000002
  0
3DFACE
  5
244
330
1F
100
AcDbEntity
  8
ACESSORIOS
100
AcDbFace
 10
367.0971353794275
 20
0.0
 30
-13.3
 11
368.5971353794275
 21
0.0
 31
-11.79999999999999
 12
368.5971353794275
 22
1.964490471062674
 32
-11.79999999999999
 13
367.0971353794275
 23
1.964490471062674
 33
-13.3
  0
3DFACE
  5
245
330
1F
100
AcDbEntity
  8
ACESSORIOS
100
AcDbFace
 10
368.5971353794275
 20
1.964490471062674
 30
-11.79999999999999
 11
380.3544946923078
 21
1.964490471062674
 31
-11.79999999999999
 12
380.3544946923078
 22
0.0
 32
-11.79999999999999
 13
368.5971353794275
 23
0.0
 33
-11.79999999999999
  0
3DFACE
  5
248
330
1F
100
AcDbEntity
  8
ACESSORIOS
100
AcDbFace
 10
391.5971353794274
 20
2.376392342463759
 30
-10.15858111592446
 11
391.5971353794274
 21
1.964490471062717
 31
-11.79999999999999
 12
358.2758150358675
 22
1.964490471062674
 32
-11.79999999999999
 13
358.2758150358675
 23
2.376392342463717
 33
-10.15858111592445
  0
3DFACE
  5
249
330
1F
100
AcDbEntity
  8
ACESSORIOS
100
AcDbFace
 10
358.2758150358675
 20
2.376392342463717
 30
-10.15858111592445
 11
358.2758150358675
 21
4.199999999999988
 31
-7.0
 12
391.5971353794274
 22
4.200000000000017
 32
-7.0
 13
391.5971353794274
 23
2.376392342463759
 33
-10.15858111592446
  0
3DFACE
  5
24C
330
1F
100
AcDbEntity
  8
ACESSORIOS
100
AcDbFace
 10
358.2758150358675
 20
12.92346281956401
 30
-7.0
 11
358.2758150358675
 21
12.94531958527194
 31
-0.1000000000000085
 12
358.2758150358675
 22
6.199999999999988
 32
0.0
 13
358.2758150358675
 23
6.199999999999988
 33
0.0
  0
3DFACE
  5
24D
330
1F
100
AcDbEntity
  8
ACESSORIOS
100
AcDbFace
 10
358.2758150358675
 20
12.92346281956401
 30
-7.0
 11
358.2758150358675
 21
12.94531958527194
 31
-0.1000000000000085
 12
358.2758150358675
 22
19.6906391705439
 32
-0.2000000000000028
 13
358.2758150358675
 23
12.92346281956401
 33
-7.965184180590284
  0
3DFACE
  5
24F
330
1F
100
AcDbEntity
  8
ACESSORIOS
100
AcDbFace
 10
391.5971353794274
 20
3.0
 30
-11.79999999999999
 11
391.5971353794274
 21
1.964490471062717
 31
-11.79999999999999
 12
391.5971353794274
 22
2.376392342463717
 32
-10.1585811159244
 13
391.5971353794274
 23
4.199999999999988
 33
-7.0
  0
3DFACE
  5
250
330
1F
100
AcDbEntity
  8
ACESSORIOS
100
AcDbFace
 10
391.5971353794274
 20
1.964490471062717
 30
-11.79999999999999
 11
391.5971353794274
 21
3.0
 31
-11.79999999999999
 12
399.7758150358675
 22
3.0
 32
-11.79999999999999
 13
399.7758150358675
 23
1.964490471062717
 33
-11.79999999999999
  0
3DFACE
  5
251
330
1F
100
AcDbEntity
  8
ACESSORIOS
100
AcDbFace
 10
399.7758150358675
 20
3.0
 30
-11.79999999999999
 11
391.5971353794274
 21
3.0
 31
-11.79999999999999
 12
391.5971353794274
 22
12.92346281956399
 32
-7.0
 13
399.7758150358675
 23
12.92346281956399
 33
-7.0
  0
3DFACE
  5
252
330
1F
100
AcDbEntity
  8
ACESSORIOS
100
AcDbFace
 10
399.7758150358675
 20
4.199999999999988
 30
-7.0
 11
399.7758150358675
 21
12.92346281956399
 31
-7.0
 12
399.7758150358675
 22
3.0
 32
-11.79999999999999
 13
399.7758150358675
 23
3.0
 33
-11.79999999999999
  0
3DFACE
  5
256
330
1F
100
AcDbEntity
  8
ACESSORIOS
100
AcDbFace
 10
411.7758150358675
 20
12.92346281956398
 30
-7.0
 11
387.8008150358679
 21
12.92346281956401
 31
-7.0
 12
387.8008150358679
 22
19.6906391705439
 32
-3.092968912108091
 13
411.7758150358675
 23
19.6906391705439
 33
-3.092968912108091
  0
3DFACE
  5
258
330
1F
100
AcDbEntity
  8
ACESSORIOS
100
AcDbFace
 10
411.7758150358675
 20
2.999999999999971
 30
-11.79999999999999
 11
399.7758150358675
 21
3.0
 31
-11.79999999999999
 12
399.7758150358675
 22
12.92346281956399
 32
-7.0
 13
411.7758150358675
 23
12.92346281956398
 33
-7.0
  0
3DFACE
  5
259
330
1F
100
AcDbEntity
  8
ACESSORIOS
100
AcDbFace
 10
391.5971353794274
 20
12.92346281956399
 30
-7.0
 11
391.5971353794274
 21
4.200000000000017
 31
-7.0
 12
391.5971353794274
 22
3.0
 32
-11.79999999999999
 13
391.5971353794274
 23
3.0
 33
-11.79999999999999
  0
3DFACE
  5
25B
330
1F
100
AcDbEntity
  8
ACESSORIOS
100
AcDbFace
 10
391.5971353794274
 20
12.92346281956399
 30
-7.0
 11
358.2758150358675
 21
12.92346281956401
 31
-7.0
 12
358.2758150358675
 22
4.199999999999988
 32
-7.0
 13
391.5971353794274
 23
4.200000000000017
 33
-7.0
  0
3DFACE
  5
25C
330
1F
100
AcDbEntity
  8
ACESSORIOS
100
AcDbFace
 10
411.7758150358675
 20
6.199999999999988
 30
0.0
 11
411.7758150358675
 21
7.961731409781975
 31
-9.399999999999991
 12
411.7758150358675
 22
2.999999999999971
 32
-11.79999999999999
 13
411.7758150358675
 23
0.0
 33
-11.80000000000001
  0
3DFACE
  5
25D
330
1F
100
AcDbEntity
  8
ACESSORIOS
100
AcDbFace
 10
411.7758150358675
 20
0.0
 30
-11.80000000000001
 11
411.7758150358675
 21
0.0
 31
0.0
 12
411.7758150358675
 22
6.199999999999988
 32
0.0
 13
411.7758150358675
 23
6.199999999999988
 33
0.0
  0
3DFACE
  5
25E
330
1F
100
AcDbEntity
  8
ACESSORIOS
100
AcDbFace
 10
411.7758150358675
 20
6.199999999999988
 30
0.0
 11
411.7758150358675
 21
19.6906391705439
 31
-0.2000000000000028
 12
411.7758150358675
 22
19.6906391705439
 32
-3.092968912108091
 13
411.7758150358675
 23
12.92346281956398
 33
-7.0
  0
3DFACE
  5
25F
330
1F
100
AcDbEntity
  8
ACESSORIOS
100
AcDbFace
 10
411.7758150358675
 20
12.92346281956398
 30
-7.0
 11
411.7758150358675
 21
6.199999999999988
 31
0.0
 12
411.7758150358675
 22
7.961731409781975
 32
-9.399999999999991
 13
411.7758150358675
 23
7.961731409781975
 33
-9.399999999999991
  0
3DFACE
  5
28C
330
1F
100
AcDbEntity
  8
ACESSORIOS
100
AcDbFace
 10
0.0
 20
19.6906391705439
 30
-3.092968912108091
 11
23.97499999999968
 21
19.6906391705439
 31
-3.092968912108091
 12
23.97499999999968
 22
19.6906391705439
 32
-0.2000000000000028
 13
0.0
 23
19.6906391705439
 33
-0.2000000000000028
  0
3DFACE
  5
28D
330
1F
100
AcDbEntity
  8
ACESSORIOS
100
AcDbFace
 10
23.97499999999968
 20
12.92346281956401
 30
-13.3
 11
23.97499999999968
 21
26.34999999911782
 31
-13.3
 12
23.97499999999968
 22
19.6906391705439
 32
-3.092968912108091
 13
23.97499999999968
 23
12.92346281956401
 33
-7.0
  0
3DFACE
  5
28E
330
1F
100
AcDbEntity
  8
ACESSORIOS
100
AcDbFace
 10
23.97499999999968
 20
19.6906391705439
 30
-3.092968912108091
 11
23.97499999999968
 21
19.6906391705439
 31
-0.2000000000000028
 12
23.97499999999968
 22
26.34999999911782
 32
-0.2000000000000028
 13
23.97499999999968
 23
26.34999999911782
 33
-13.3
  0
3DFACE
  5
28F
330
1F
100
AcDbEntity
  8
ACESSORIOS
100
AcDbFace
 10
23.0887185591892
 20
31.37635182145088
 30
-13.3
 11
23.0887185591892
 21
31.37635182145089
 31
-0.2000000000000028
 12
23.97499999999968
 22
26.34999999911782
 32
-0.2000000000000028
 13
23.97499999999968
 23
26.34999999911782
 33
-13.3
  0
3DFACE
  5
290
330
1F
100
AcDbEntity
  8
ACESSORIOS
100
AcDbFace
 10
23.92283874046007
 20
32.53858143517791
 30
-13.3
 11
29.02896063399953
 21
29.61427785398547
 31
-13.3
 12
29.02896063399953
 22
29.61427785398547
 32
-0.2000000000000028
 13
23.92283874046007
 23
32.53858143517793
 33
-0.2000000000000028
  0
3DFACE
  5
291
330
1F
100
AcDbEntity
  8
ACESSORIOS
100
AcDbFace
 10
29.57815129976166
 20
33.04726962686448
 30
-13.3
 11
29.02896063399953
 21
29.61427785398547
 31
-13.3
 12
29.02896063399953
 22
29.61427785398547
 32
-0.2000000000000028
 13
29.57815129976166
 23
33.04726962686448
 33
-0.2000000000000028
  0
3DFACE
  5
292
330
1F
100
AcDbEntity
  8
ACESSORIOS
100
AcDbFace
 10
29.57815129976166
 20
33.04726962686448
 30
-0.2000000000000028
 11
27.95053440512669
 21
34.06637771879466
 31
-0.2000000000000028
 12
27.95053440512669
 22
34.06637771879466
 32
-13.3
 13
29.57815129976166
 23
33.04726962686448
 33
-13.3
  0
3DFACE
  5
293
330
1F
100
AcDbEntity
  8
ACESSORIOS
100
AcDbFace
 10
29.15952044571254
 20
38.88352218827016
 30
-13.3
 11
27.95053440512669
 21
34.06637771879466
 31
-13.3
 12
27.95053440512669
 22
34.06637771879466
 32
-0.2000000000000028
 13
29.15952044571254
 23
38.88352218827016
 33
-0.2000000000000028
  0
3DFACE
  5
294
330
1F
100
AcDbEntity
  8
ACESSORIOS
100
AcDbFace
 10
37.09949765500216
 20
48.54571047723661
 30
-13.3
 11
37.09949765500216
 21
48.54571047723662
 31
-0.2000000000000028
 12
37.51449731991926
 22
62.62092073756519
 32
-0.200000000000017
 13
37.51449731991926
 23
62.62092073756519
 33
-13.30000000000001
  0
3DFACE
  5
295
330
1F
100
AcDbEntity
  8
ACESSORIOS
100
AcDbFace
 10
37.51449731991926
 20
62.62092073756519
 30
-13.30000000000001
 11
50.1350957756964
 21
88.49698223447521
 31
-13.30000000000001
 12
50.1350957756964
 22
88.49698223447523
 32
-0.200000000000017
 13
37.51449731991926
 23
62.62092073756519
 33
-0.200000000000017
  0
3DFACE
  5
296
330
1F
100
AcDbEntity
  8
ACESSORIOS
100
AcDbFace
 10
76.42267155927362
 20
20.36959217609412
 30
-13.3
 11
76.42267155927362
 21
20.36959217609412
 31
-0.2000000000000028
 12
55.10384306909424
 22
22.01789662251461
 32
-0.2000000000000028
 13
55.5
 23
21.98726702056473
 33
-13.3
  0
3DFACE
  5
297
330
1F
100
AcDbEntity
  8
ACESSORIOS
100
AcDbFace
 10
53.5
 20
12.92346281956401
 30
-7.965184180590284
 11
53.5
 21
19.6906391705439
 31
-0.2000000000000028
 12
53.5
 22
19.6906391705439
 32
-10.43894086899202
 13
53.5
 23
19.6906391705439
 33
-10.43894086899202
  0
3DFACE
  5
298
330
1F
100
AcDbEntity
  8
ACESSORIOS
100
AcDbFace
 10
53.5
 20
1.964490471062674
 30
-13.30000000000002
 11
53.5
 21
0.0
 31
-13.30000000000002
 12
53.5
 22
0.0
 32
-6.650000000000005
 13
53.5
 23
1.964490471062674
 33
-11.79999999999999
  0
3DFACE
  5
299
330
1F
100
AcDbEntity
  8
ACESSORIOS
100
AcDbFace
 10
53.5
 20
12.92346281956401
 30
-7.0
 11
53.5
 21
4.199999999999988
 31
-7.0
 12
53.5
 22
6.199999999999988
 32
0.0
 13
53.5
 23
6.199999999999988
 33
0.0
  0
3DFACE
  5
29A
330
1F
100
AcDbEntity
  8
ACESSORIOS
100
AcDbFace
 10
53.5
 20
4.199999999999988
 30
-7.0
 11
53.5
 21
6.199999999999988
 31
0.0
 12
53.5
 22
0.0
 32
0.0
 13
53.5
 23
0.0
 33
-6.650000000000005
  0
3DFACE
  5
29B
330
1F
100
AcDbEntity
  8
ACESSORIOS
100
AcDbFace
 10
53.5
 20
0.0
 30
-6.650000000000005
 11
53.5
 21
4.199999999999988
 31
-7.0
 12
53.5
 22
2.376392342463717
 32
-10.15858111592445
 13
53.5
 23
1.964490471062674
 33
-11.79999999999999
  0
3DFACE
  5
29C
330
1F
100
AcDbEntity
  8
ACESSORIOS
100
AcDbFace
 10
53.5
 20
6.199999999999988
 30
0.0
 11
53.5
 21
0.0
 31
0.0
 12
0.0
 22
0.0
 32
0.0
 13
0.0
 23
6.199999999999988
 33
0.0
  0
3DFACE
  5
29D
330
1F
100
AcDbEntity
  8
ACESSORIOS
100
AcDbFace
 10
80.47499999999201
 20
75.4199063544162
 30
-13.3
 11
79.86130390611599
 21
23.79845555852769
 31
-13.3
 12
79.86130390611599
 22
23.79845555852769
 32
-0.2000000000000028
 13
80.47499999999201
 23
75.4199063544162
 33
-0.200000000000017
  0
3DFACE
  5
29E
330
1F
100
AcDbEntity
  8
ACESSORIOS
100
AcDbFace
 10
77.77267641985202
 20
80.50416791116539
 30
-0.200000000000017
 11
50.1350957756964
 21
88.49698223447523
 31
-0.200000000000017
 12
50.1350957756964
 22
88.49698223447521
 32
-13.30000000000001
 13
77.77267641985202
 23
80.50416791116539
 33
-13.3
  0
3DFACE
  5
29F
330
1F
100
AcDbEntity
  8
ACESSORIOS
100
AcDbFace
 10
50.1350957756964
 20
88.49698223447521
 30
-13.30000000000001
 11
37.51449731991926
 21
62.62092073756519
 31
-13.30000000000001
 12
37.51449731991926
 22
62.62092073756519
 32
-0.200000000000017
 13
50.1350957756964
 23
88.49698223447523
 33
-0.200000000000017
  0
3DFACE
  5
2A0
330
1F
100
AcDbEntity
  8
ACESSORIOS
100
AcDbFace
 10
37.09949765500216
 20
48.54571047723661
 30
-13.3
 11
37.09949765500216
 21
48.54571047723662
 31
-0.2000000000000028
 12
37.51449731991926
 22
62.62092073756519
 32
-0.200000000000017
 13
37.51449731991926
 23
62.62092073756519
 33
-13.30000000000001
  0
3DFACE
  5
2A1
330
1F
100
AcDbEntity
  8
ACESSORIOS
100
AcDbFace
 10
77.77267641985202
 20
80.50416791116539
 30
-0.200000000000017
 11
80.47499999999201
 21
75.4199063544162
 31
-0.200000000000017
 12
80.47499999999201
 22
75.4199063544162
 32
-13.3
 13
77.77267641985202
 23
80.50416791116539
 33
-13.3
  0
3DFACE
  5
2A2
330
1F
100
AcDbEntity
  8
ACESSORIOS
100
AcDbFace
 10
76.42267155927362
 20
20.36959217609412
 30
-0.2000000000000028
 11
79.86130390611577
 21
23.79845555852769
 31
-0.2000000000000028
 12
79.86130390611577
 22
23.79845555852768
 32
-13.3
 13
76.42267155927362
 23
20.36959217609412
 33
-13.3
  0
3DFACE
  5
2A3
330
1F
100
AcDbEntity
  8
ACESSORIOS
100
AcDbFace
 10
53.71279587323613
 20
20.60685006773977
 30
-10.77386384385974
 11
53.71279587323613
 21
20.60685006773977
 31
-0.2000000000000028
 12
55.10384306909424
 22
22.01789662251461
 32
-0.2000000000000028
 13
55.5
 23
21.98726702056473
 33
-11.27847839692062
  0
3DFACE
  5
2A4
330
1F
100
AcDbEntity
  8
ACESSORIOS
100
AcDbFace
 10
55.5
 20
21.98726702056473
 30
-11.27847839692062
 11
55.5
 21
27.51731500365567
 31
-13.3
 12
55.5
 22
21.98726702056473
 32
-13.3
 13
55.5
 23
21.98726702056473
 33
-13.3
  0
3DFACE
  5
2A5
330
1F
100
AcDbEntity
  8
ACESSORIOS
100
AcDbFace
 10
55.5
 20
21.98726702056473
 30
-11.27847839692062
 11
55.5
 21
21.98726702056473
 31
-13.3
 12
55.10384306909424
 22
22.01789662251461
 32
-0.2000000000000028
 13
55.10384306909424
 23
22.01789662251461
 33
-0.2000000000000028
  0
3DFACE
  5
2A6
330
1F
100
AcDbEntity
  8
ACESSORIOS
100
AcDbFace
 10
53.5
 20
19.6906391705439
 30
-0.2000000000000028
 11
53.71279587323607
 21
20.6068500677398
 31
-0.2000000000000028
 12
53.71279587323607
 22
20.6068500677398
 32
-10.7738638438597
 13
53.5
 23
19.6906391705439
 33
-10.43894086899202
  0
3DFACE
  5
2A7
330
1F
100
AcDbEntity
  8
ACESSORIOS
100
AcDbFace
 10
37.09949765500216
 20
48.54571047723662
 30
-0.2000000000000028
 11
30.85979958817575
 21
39.5725910740825
 31
-0.2000000000000028
 12
30.85979958817575
 22
39.5725910740825
 32
-13.3
 13
37.09949765500216
 23
48.54571047723661
 33
-13.3
  0
3DFACE
  5
2A8
330
1F
100
AcDbEntity
  8
ACESSORIOS
100
AcDbFace
 10
30.8597995881758
 20
39.5725910740825
 30
-13.3
 11
29.15952044571254
 21
38.88352218827016
 31
-13.3
 12
29.15952044571254
 22
38.88352218827016
 32
-0.2000000000000028
 13
30.8597995881758
 23
39.5725910740825
 33
-0.2000000000000028
  0
3DFACE
  5
2AA
330
1F
100
AcDbEntity
  8
ACESSORIOS
100
AcDbFace
 10
29.57815129976166
 20
33.04726962686448
 30
-13.3
 11
29.57815129976166
 21
33.04726962686448
 31
-0.2000000000000028
 12
27.95053440512669
 22
34.06637771879466
 32
-0.2000000000000028
 13
27.95053440512669
 23
34.06637771879466
 33
-13.3
  0
3DFACE
  5
2AB
330
1F
100
AcDbEntity
  8
ACESSORIOS
100
AcDbFace
 10
29.57815129976166
 20
33.04726962686448
 30
-13.3
 11
29.02896063399953
 21
29.61427785398547
 31
-13.3
 12
29.02896063399953
 22
29.61427785398547
 32
-0.2000000000000028
 13
29.57815129976166
 23
33.04726962686448
 33
-0.2000000000000028
  0
3DFACE
  5
2AC
330
1F
100
AcDbEntity
  8
ACESSORIOS
100
AcDbFace
 10
29.02896063399953
 20
29.61427785398547
 30
-0.2000000000000028
 11
23.92283874046007
 21
32.53858143517793
 31
-0.2000000000000028
 12
23.92283874046007
 22
32.53858143517791
 32
-13.3
 13
29.02896063399953
 23
29.61427785398547
 33
-13.3
  0
3DFACE
  5
2AD
330
1F
100
AcDbEntity
  8
ACESSORIOS
100
AcDbFace
 10
23.92283874046007
 20
32.53858143517791
 30
-13.3
 11
23.0887185591892
 21
31.37635182145088
 31
-13.3
 12
23.0887185591892
 22
31.37635182145089
 32
-0.2000000000000028
 13
23.92283874046007
 23
32.53858143517793
 33
-0.2000000000000028
  0
3DFACE
  5
2AE
330
1F
100
AcDbEntity
  8
ACESSORIOS
100
AcDbFace
 10
23.0887185591892
 20
31.37635182145089
 30
-0.2000000000000028
 11
23.97499999999968
 21
26.34999999911782
 31
-0.2000000000000028
 12
23.97499999999968
 22
26.34999999911782
 32
-13.3
 13
23.0887185591892
 23
31.37635182145088
 33
-13.3
  0
3DFACE
  5
2AF
330
1F
100
AcDbEntity
  8
ACESSORIOS
100
AcDbFace
 10
23.97499999999968
 20
19.6906391705439
 30
-0.2000000000000028
 11
0.0
 21
19.6906391705439
 31
-0.2000000000000028
 12
0.0
 22
19.6906391705439
 32
-3.092968912108091
 13
23.97499999999968
 23
19.6906391705439
 33
-3.092968912108091
  0
3DFACE
  5
2B0
330
1F
100
AcDbEntity
  8
ACESSORIOS
100
AcDbFace
 10
12.0
 20
3.0
 30
-11.79999999999999
 11
12.0
 21
1.964490471062717
 31
-11.79999999999999
 12
12.0
 22
2.376392342463717
 32
-10.1585811159244
 13
12.0
 23
4.199999999999988
 33
-7.0
  0
3DFACE
  5
2B1
330
1F
100
AcDbEntity
  8
ACESSORIOS
100
AcDbFace
 10
12.0
 20
3.0
 30
-11.79999999999999
 11
12.0
 21
1.964490471062717
 31
-11.79999999999999
 12
0.0
 22
0.0
 32
-11.80000000000001
 13
0.0
 23
2.999999999999971
 33
-11.79999999999999
  0
3DFACE
  5
2B2
330
1F
100
AcDbEntity
  8
ACESSORIOS
100
AcDbFace
 10
12.0
 20
1.964490471062717
 30
-11.79999999999999
 11
20.17867965644012
 21
1.964490471062717
 31
-11.79999999999999
 12
20.17867965644012
 22
0.0
 32
-11.79999999999999
 13
0.0
 23
0.0
 33
-11.80000000000001
  0
3DFACE
  5
2B3
330
1F
100
AcDbEntity
  8
ACESSORIOS
100
AcDbFace
 10
53.5
 20
0.0
 30
-13.30000000000002
 11
44.67867965644011
 21
0.0
 31
-13.3
 12
43.17867965644011
 22
0.0
 32
-11.79999999999999
 13
53.5
 23
0.0
 33
0.0
  0
3DFACE
  5
2B4
330
1F
100
AcDbEntity
  8
ACESSORIOS
100
AcDbFace
 10
53.5
 20
0.0
 30
0.0
 11
26.75
 21
0.0
 31
0.0
 12
31.42132034355978
 22
0.0
 32
-11.79999999999999
 13
43.17867965644011
 23
0.0
 33
-11.79999999999999
  0
3DFACE
  5
2B5
330
1F
100
AcDbEntity
  8
ACESSORIOS
100
AcDbFace
 10
26.75
 20
0.0
 30
0.0
 11
20.17867965644012
 21
0.0
 31
-11.79999999999999
 12
31.42132034355978
 22
0.0
 32
-11.79999999999999
 13
31.42132034355978
 23
0.0
 33
-11.79999999999999
  0
3DFACE
  5
2B6
330
1F
100
AcDbEntity
  8
ACESSORIOS
100
AcDbFace
 10
31.42132034355978
 20
0.0
 30
-11.79999999999999
 11
29.92132034355978
 21
0.0
 31
-13.3
 12
21.67867965644012
 22
0.0
 32
-13.3
 13
20.17867965644012
 23
0.0
 33
-11.79999999999999
  0
3DFACE
  5
2B7
330
1F
100
AcDbEntity
  8
ACESSORIOS
100
AcDbFace
 10
20.17867965644012
 20
0.0
 30
-11.79999999999999
 11
0.0
 21
0.0
 31
-11.80000000000001
 12
0.0
 22
0.0
 32
0.0
 13
26.75
 23
0.0
 33
0.0
  0
3DFACE
  5
2B8
330
1F
100
AcDbEntity
  8
ACESSORIOS
100
AcDbFace
 10
43.5
 20
12.92346281956399
 30
-7.965184180590298
 11
43.5
 21
27.51731500365566
 31
-13.3
 12
43.5
 22
12.92346281956399
 32
-13.3
 13
43.5
 23
12.92346281956399
 33
-13.3
  0
3DFACE
  5
2B9
330
1F
100
AcDbEntity
  8
ACESSORIOS
100
AcDbFace
 10
43.5
 20
27.51731500365566
 30
-13.3
 11
55.5
 21
27.51731500365566
 31
-13.3
 12
55.5
 22
21.98726702056469
 32
-11.2784783969206
 13
43.5
 23
20.22038891160983
 33
-10.63259209029517
  0
3DFACE
  5
2BA
330
1F
100
AcDbEntity
  8
ACESSORIOS
100
AcDbFace
 10
55.5
 20
21.98726702056469
 30
-11.2784783969206
 11
53.71279587323607
 21
20.6068500677398
 31
-10.7738638438597
 12
53.5
 22
19.6906391705439
 32
-10.43894086899202
 13
43.5
 23
20.22038891160983
 33
-10.63259209029517
  0
3DFACE
  5
2BB
330
1F
100
AcDbEntity
  8
ACESSORIOS
100
AcDbFace
 10
53.5
 20
19.6906391705439
 30
-10.43894086899202
 11
53.5
 21
12.92346281956401
 31
-7.965184180590284
 12
43.5
 22
12.92346281956399
 32
-7.965184180590298
 13
43.5
 23
20.22038891160983
 33
-10.63259209029517
  0
3DFACE
  5
2BC
330
1F
100
AcDbEntity
  8
ACESSORIOS
100
AcDbFace
 10
43.5
 20
12.92346281956399
 30
-13.3
 11
23.97499999999968
 21
12.92346281956401
 31
-13.3
 12
23.97499999999968
 22
12.92346281956401
 32
-7.0
 13
43.5
 23
12.92346281956399
 33
-7.965184180590298
  0
3DFACE
  5
2BD
330
1F
100
AcDbEntity
  8
ACESSORIOS
100
AcDbFace
 10
23.97499999999968
 20
12.92346281956399
 30
-7.0
 11
43.5
 21
12.92346281956399
 31
-7.965184180590298
 12
53.5
 22
12.92346281956401
 32
-7.965184180590284
 13
53.5
 23
12.92346281956401
 33
-7.0
  0
3DFACE
  5
2BE
330
1F
100
AcDbEntity
  8
ACESSORIOS
100
AcDbFace
 10
80.47499999999201
 20
75.4199063544162
 30
-0.200000000000017
 11
37.51449731991926
 21
62.62092073756519
 31
-0.200000000000017
 12
50.1350957756964
 22
88.49698223447523
 32
-0.200000000000017
 13
77.77267641985202
 23
80.50416791116539
 33
-0.200000000000017
  0
3DFACE
  5
2BF
330
1F
100
AcDbEntity
  8
ACESSORIOS
100
AcDbFace
 10
80.47499999999201
 20
75.4199063544162
 30
-0.200000000000017
 11
79.86130390611599
 21
23.79845555852769
 31
-0.2000000000000028
 12
37.09949765500216
 22
48.54571047723662
 32
-0.2000000000000028
 13
37.51449731991926
 23
62.62092073756519
 33
-0.200000000000017
  0
3DFACE
  5
2C0
330
1F
100
AcDbEntity
  8
ACESSORIOS
100
AcDbFace
 10
30.85979958817575
 20
39.5725910740825
 30
-0.2000000000000028
 11
76.42267155927362
 21
20.36959217609412
 31
-0.2000000000000028
 12
79.86130390611577
 22
23.79845555852769
 32
-0.2000000000000028
 13
37.09949765500216
 23
48.54571047723662
 33
-0.2000000000000028
  0
3DFACE
  5
2C1
330
1F
100
AcDbEntity
  8
ACESSORIOS
100
AcDbFace
 10
76.42267155927362
 20
20.36959217609412
 30
-0.2000000000000028
 11
55.10384306909424
 21
22.01789662251461
 31
-0.2000000000000028
 12
29.15952044571254
 22
38.88352218827016
 32
-0.2000000000000028
 13
30.85979958817575
 23
39.5725910740825
 33
-0.2000000000000028
  0
3DFACE
  5
2C2
330
1F
100
AcDbEntity
  8
ACESSORIOS
100
AcDbFace
 10
27.95053440512669
 20
34.06637771879466
 30
-0.2000000000000028
 11
29.15952044571254
 21
38.88352218827016
 31
-0.2000000000000028
 12
42.13168175740338
 22
30.45070940539238
 32
-0.2000000000000028
 13
29.57815129976166
 23
33.04726962686448
 33
-0.2000000000000028
  0
3DFACE
  5
2C3
330
1F
100
AcDbEntity
  8
ACESSORIOS
100
AcDbFace
 10
42.13168175740338
 20
30.45070940539238
 30
-0.2000000000000028
 11
55.10384306909424
 21
22.01789662251461
 31
-0.2000000000000028
 12
53.71279587323613
 22
20.60685006773977
 32
-0.2000000000000028
 13
29.57815129976166
 23
33.04726962686448
 33
-0.2000000000000028
  0
3DFACE
  5
2C4
330
1F
100
AcDbEntity
  8
ACESSORIOS
100
AcDbFace
 10
53.71279587323613
 20
20.60685006773977
 30
-0.2000000000000028
 11
53.5
 21
19.6906391705439
 31
-0.2000000000000028
 12
29.02896063399953
 22
29.61427785398547
 32
-0.2000000000000028
 13
29.57815129976166
 23
33.04726962686448
 33
-0.2000000000000028
  0
3DFACE
  5
2C5
330
1F
100
AcDbEntity
  8
ACESSORIOS
100
AcDbFace
 10
53.5
 20
6.199999999999988
 30
0.0
 11
0.0
 21
6.199999999999988
 31
0.0
 12
0.0
 22
19.6906391705439
 32
-0.2000000000000028
 13
23.97499999999968
 23
19.6906391705439
 33
-0.2000000000000028
  0
3DFACE
  5
2C6
330
1F
100
AcDbEntity
  8
ACESSORIOS
100
AcDbFace
 10
23.97499999999968
 20
19.6906391705439
 30
-0.2000000000000028
 11
23.97499999999968
 21
26.34999999911782
 31
-0.2000000000000028
 12
53.5
 22
19.6906391705439
 32
-0.2000000000000028
 13
53.5
 23
6.199999999999988
 33
0.0
  0
3DFACE
  5
2C7
330
1F
100
AcDbEntity
  8
ACESSORIOS
100
AcDbFace
 10
53.5
 20
19.6906391705439
 30
-0.2000000000000028
 11
23.97499999999968
 21
26.34999999911782
 31
-0.2000000000000028
 12
29.02896063399953
 22
29.61427785398547
 32
-0.2000000000000028
 13
29.02896063399953
 23
29.61427785398547
 33
-0.2000000000000028
  0
3DFACE
  5
2C8
330
1F
100
AcDbEntity
  8
ACESSORIOS
100
AcDbFace
 10
29.02896063399953
 20
29.61427785398547
 30
-0.2000000000000028
 11
23.92283874046007
 21
32.53858143517793
 31
-0.2000000000000028
 12
23.0887185591892
 22
31.37635182145089
 32
-0.2000000000000028
 13
23.97499999999968
 23
26.34999999911782
 33
-0.2000000000000028
  0
3DFACE
  5
2C9
330
1F
100
AcDbEntity
  8
ACESSORIOS
100
AcDbFace
 10
43.5
 20
27.51731500365566
 30
-13.3
 11
29.02896063399953
 21
29.61427785398547
 31
-13.3
 12
23.97499999999968
 22
12.92346281956401
 32
-13.3
 13
43.5
 23
12.92346281956399
 33
-13.3
  0
3DFACE
  5
2CA
330
1F
100
AcDbEntity
  8
ACESSORIOS
100
AcDbFace
 10
23.97499999999968
 20
26.34999999911782
 30
-13.3
 11
23.97499999999968
 21
12.92346281956401
 31
-13.3
 12
29.02896063399953
 22
29.61427785398547
 32
-13.3
 13
23.92283874046007
 23
32.53858143517791
 33
-13.3
  0
3DFACE
  5
2CB
330
1F
100
AcDbEntity
  8
ACESSORIOS
100
AcDbFace
 10
23.92283874046007
 20
32.53858143517791
 30
-13.3
 11
23.0887185591892
 21
31.37635182145088
 31
-13.3
 12
23.97499999999968
 22
26.34999999911782
 32
-13.3
 13
23.97499999999968
 23
26.34999999911782
 33
-13.3
  0
3DFACE
  5
2CC
330
1F
100
AcDbEntity
  8
ACESSORIOS
100
AcDbFace
 10
55.5
 20
27.51731500365567
 30
-13.3
 11
79.86130390611577
 21
23.79845555852768
 31
-13.3
 12
76.42267155927362
 22
20.36959217609412
 32
-13.3
 13
55.5
 23
21.98726702056473
 33
-13.3
  0
3DFACE
  5
2CD
330
1F
100
AcDbEntity
  8
ACESSORIOS
100
AcDbFace
 10
37.51449731991926
 20
62.62092073756519
 30
-13.30000000000001
 11
37.09949765500216
 21
48.54571047723661
 31
-13.3
 12
79.86130390611599
 22
23.79845555852769
 32
-13.3
 13
80.47499999999201
 23
75.4199063544162
 33
-13.3
  0
3DFACE
  5
2CE
330
1F
100
AcDbEntity
  8
ACESSORIOS
100
AcDbFace
 10
55.5
 20
27.51731500365567
 30
-13.3
 11
30.85979958817575
 21
39.5725910740825
 31
-13.3
 12
37.09949765500216
 22
48.54571047723661
 32
-13.3
 13
79.86130390611599
 23
23.79845555852769
 33
-13.3
  0
3DFACE
  5
2CF
330
1F
100
AcDbEntity
  8
ACESSORIOS
100
AcDbFace
 10
30.85979958817575
 20
39.5725910740825
 30
-13.3
 11
55.5
 21
27.51731500365567
 31
-13.3
 12
43.5
 22
27.51731500365566
 32
-13.3
 13
29.15952044571254
 23
38.88352218827016
 33
-13.3
  0
3DFACE
  5
2D0
330
1F
100
AcDbEntity
  8
ACESSORIOS
100
AcDbFace
 10
29.15952044571254
 20
38.88352218827016
 30
-13.3
 11
27.95053440512669
 21
34.06637771879466
 31
-13.3
 12
29.57815129976166
 22
33.04726962686448
 32
-13.3
 13
43.5
 23
27.51731500365566
 33
-13.3
  0
3DFACE
  5
2D1
330
1F
100
AcDbEntity
  8
ACESSORIOS
100
AcDbFace
 10
29.57815129976166
 20
33.04726962686448
 30
-13.3
 11
29.02896063399953
 21
29.61427785398547
 31
-13.3
 12
43.5
 22
27.51731500365566
 32
-13.3
 13
43.5
 23
27.51731500365566
 33
-13.3
  0
3DFACE
  5
2D2
330
1F
100
AcDbEntity
  8
ACESSORIOS
100
AcDbFace
 10
37.51449731991926
 20
62.62092073756519
 30
-13.30000000000001
 11
80.47499999999201
 21
75.4199063544162
 31
-13.3
 12
77.77267641985202
 22
80.50416791116539
 32
-13.3
 13
50.1350957756964
 23
88.49698223447521
 33
-13.30000000000001
  0
LINE
  5
2D3
330
1F
100
AcDbEntity
  8
ACESSORIOS
100
AcDbLine
 10
44.67867965644011
 20
0.0
 30
-13.3
 11
44.67867965644011
 21
1.964490471062674
 31
-13.3
  0
LINE
  5
2D4
330
1F
100
AcDbEntity
  8
ACESSORIOS
100
AcDbLine
 10
21.67867965644012
 20
0.0
 30
-13.3
 11
21.67867965644012
 21
1.964490471062674
 31
-13.3
  0
3DFACE
  5
2D5
330
1F
100
AcDbEntity
  8
ACESSORIOS
100
AcDbFace
 10
20.17867965644012
 20
1.964490471062717
 30
-11.79999999999999
 11
31.42132034355978
 21
1.964490471062674
 31
-11.79999999999999
 12
29.92132034355978
 22
1.964490471062674
 32
-13.3
 13
21.67867965644012
 23
1.964490471062674
 33
-13.3
  0
3DFACE
  5
2D6
330
1F
100
AcDbEntity
  8
ACESSORIOS
100
AcDbFace
 10
21.67867965644012
 20
1.964490471062674
 30
-13.3
 11
21.67867965644012
 21
0.0
 31
-13.3
 12
29.92132034355978
 22
0.0
 32
-13.3
 13
29.92132034355978
 23
1.964490471062674
 33
-13.3
  0
3DFACE
  5
2D7
330
1F
100
AcDbEntity
  8
ACESSORIOS
100
AcDbFace
 10
29.92132034355978
 20
1.964490471062674
 30
-13.3
 11
31.42132034355978
 21
1.964490471062674
 31
-11.79999999999999
 12
31.42132034355978
 22
0.0
 32
-11.79999999999999
 13
29.92132034355978
 23
0.0
 33
-13.3
  0
3DFACE
  5
2D8
330
1F
100
AcDbEntity
  8
ACESSORIOS
100
AcDbFace
 10
21.67867965644012
 20
0.0
 30
-13.3
 11
20.17867965644012
 21
0.0
 31
-11.79999999999999
 12
20.17867965644012
 22
1.964490471062717
 32
-11.79999999999999
 13
21.67867965644012
 23
1.964490471062674
 33
-13.3
  0
3DFACE
  5
2D9
330
1F
100
AcDbEntity
  8
ACESSORIOS
100
AcDbFace
 10
43.17867965644011
 20
1.964490471062674
 30
-11.79999999999999
 11
53.5
 21
1.964490471062674
 31
-11.79999999999999
 12
53.5
 22
1.964490471062674
 32
-13.30000000000002
 13
44.67867965644011
 23
1.964490471062674
 33
-13.3
  0
3DFACE
  5
2DA
330
1F
100
AcDbEntity
  8
ACESSORIOS
100
AcDbFace
 10
44.67867965644011
 20
1.964490471062674
 30
-13.3
 11
44.67867965644011
 21
0.0
 31
-13.3
 12
53.5
 22
0.0
 32
-13.30000000000002
 13
53.5
 23
1.964490471062674
 33
-13.30000000000002
  0
3DFACE
  5
2DB
330
1F
100
AcDbEntity
  8
ACESSORIOS
100
AcDbFace
 10
44.67867965644011
 20
0.0
 30
-13.3
 11
43.17867965644011
 21
0.0
 31
-11.79999999999999
 12
43.17867965644011
 22
1.964490471062674
 32
-11.79999999999999
 13
44.67867965644011
 23
1.964490471062674
 33
-13.3
  0
3DFACE
  5
2DC
330
1F
100
AcDbEntity
  8
ACESSORIOS
100
AcDbFace
 10
43.17867965644011
 20
1.964490471062674
 30
-11.79999999999999
 11
31.42132034355978
 21
1.964490471062674
 31
-11.79999999999999
 12
31.42132034355978
 22
0.0
 32
-11.79999999999999
 13
43.17867965644011
 23
0.0
 33
-11.79999999999999
  0
3DFACE
  5
2DD
330
1F
100
AcDbEntity
  8
ACESSORIOS
100
AcDbFace
 10
20.17867965644012
 20
2.376392342463759
 30
-10.15858111592446
 11
20.17867965644012
 21
1.964490471062717
 31
-11.79999999999999
 12
53.5
 22
1.964490471062674
 32
-11.79999999999999
 13
53.5
 23
2.376392342463717
 33
-10.15858111592445
  0
3DFACE
  5
2DE
330
1F
100
AcDbEntity
  8
ACESSORIOS
100
AcDbFace
 10
53.5
 20
2.376392342463717
 30
-10.15858111592445
 11
53.5
 21
4.199999999999988
 31
-7.0
 12
20.17867965644012
 22
4.200000000000017
 32
-7.0
 13
20.17867965644012
 23
2.376392342463759
 33
-10.15858111592446
  0
3DFACE
  5
2DF
330
1F
100
AcDbEntity
  8
ACESSORIOS
100
AcDbFace
 10
53.5
 20
12.92346281956401
 30
-7.0
 11
53.5
 21
12.94531958527194
 31
-0.1000000000000085
 12
53.5
 22
6.199999999999988
 32
0.0
 13
53.5
 23
6.199999999999988
 33
0.0
  0
3DFACE
  5
2E0
330
1F
100
AcDbEntity
  8
ACESSORIOS
100
AcDbFace
 10
53.5
 20
12.92346281956401
 30
-7.0
 11
53.5
 21
12.94531958527194
 31
-0.1000000000000085
 12
53.5
 22
19.6906391705439
 32
-0.2000000000000028
 13
53.5
 23
12.92346281956401
 33
-7.965184180590284
  0
3DFACE
  5
2E1
330
1F
100
AcDbEntity
  8
ACESSORIOS
100
AcDbFace
 10
20.17867965644012
 20
3.0
 30
-11.79999999999999
 11
20.17867965644012
 21
1.964490471062717
 31
-11.79999999999999
 12
20.17867965644012
 22
2.376392342463717
 32
-10.1585811159244
 13
20.17867965644012
 23
4.199999999999988
 33
-7.0
  0
3DFACE
  5
2E2
330
1F
100
AcDbEntity
  8
ACESSORIOS
100
AcDbFace
 10
20.17867965644012
 20
1.964490471062717
 30
-11.79999999999999
 11
20.17867965644012
 21
3.0
 31
-11.79999999999999
 12
12.0
 22
3.0
 32
-11.79999999999999
 13
12.0
 23
1.964490471062717
 33
-11.79999999999999
  0
3DFACE
  5
2E3
330
1F
100
AcDbEntity
  8
ACESSORIOS
100
AcDbFace
 10
12.0
 20
3.0
 30
-11.79999999999999
 11
20.17867965644012
 21
3.0
 31
-11.79999999999999
 12
20.17867965644012
 22
12.92346281956399
 32
-7.0
 13
12.0
 23
12.92346281956399
 33
-7.0
  0
3DFACE
  5
2E4
330
1F
100
AcDbEntity
  8
ACESSORIOS
100
AcDbFace
 10
12.0
 20
4.199999999999988
 30
-7.0
 11
12.0
 21
12.92346281956399
 31
-7.0
 12
12.0
 22
3.0
 32
-11.79999999999999
 13
12.0
 23
3.0
 33
-11.79999999999999
  0
3DFACE
  5
2E5
330
1F
100
AcDbEntity
  8
ACESSORIOS
100
AcDbFace
 10
0.0
 20
12.92346281956398
 30
-7.0
 11
23.97499999999968
 21
12.92346281956401
 31
-7.0
 12
23.97499999999968
 22
19.6906391705439
 32
-3.092968912108091
 13
0.0
 23
19.6906391705439
 33
-3.092968912108091
  0
3DFACE
  5
2E6
330
1F
100
AcDbEntity
  8
ACESSORIOS
100
AcDbFace
 10
0.0
 20
2.999999999999971
 30
-11.79999999999999
 11
12.0
 21
3.0
 31
-11.79999999999999
 12
12.0
 22
12.92346281956399
 32
-7.0
 13
0.0
 23
12.92346281956398
 33
-7.0
  0
3DFACE
  5
2E7
330
1F
100
AcDbEntity
  8
ACESSORIOS
100
AcDbFace
 10
20.17867965644012
 20
12.92346281956399
 30
-7.0
 11
20.17867965644012
 21
4.200000000000017
 31
-7.0
 12
20.17867965644012
 22
3.0
 32
-11.79999999999999
 13
20.17867965644012
 23
3.0
 33
-11.79999999999999
  0
3DFACE
  5
2E8
330
1F
100
AcDbEntity
  8
ACESSORIOS
100
AcDbFace
 10
20.17867965644012
 20
12.92346281956399
 30
-7.0
 11
53.5
 21
12.92346281956401
 31
-7.0
 12
53.5
 22
4.199999999999988
 32
-7.0
 13
20.17867965644012
 23
4.200000000000017
 33
-7.0
  0
3DFACE
  5
2E9
330
1F
100
AcDbEntity
  8
ACESSORIOS
100
AcDbFace
 10
0.0
 20
6.199999999999988
 30
0.0
 11
0.0
 21
7.961731409781975
 31
-9.399999999999991
 12
0.0
 22
2.999999999999971
 32
-11.79999999999999
 13
0.0
 23
0.0
 33
-11.80000000000001
  0
3DFACE
  5
2EA
330
1F
100
AcDbEntity
  8
ACESSORIOS
100
AcDbFace
 10
0.0
 20
0.0
 30
-11.80000000000001
 11
0.0
 21
0.0
 31
0.0
 12
0.0
 22
6.199999999999988
 32
0.0
 13
0.0
 23
6.199999999999988
 33
0.0
  0
3DFACE
  5
2EB
330
1F
100
AcDbEntity
  8
ACESSORIOS
100
AcDbFace
 10
0.0
 20
6.199999999999988
 30
0.0
 11
0.0
 21
19.6906391705439
 31
-0.2000000000000028
 12
0.0
 22
19.6906391705439
 32
-3.092968912108091
 13
0.0
 23
12.92346281956398
 33
-7.0
  0
3DFACE
  5
2EC
330
1F
100
AcDbEntity
  8
ACESSORIOS
100
AcDbFace
 10
0.0
 20
12.92346281956398
 30
-7.0
 11
0.0
 21
6.199999999999988
 31
0.0
 12
0.0
 22
7.961731409781975
 32
-9.399999999999991
 13
0.0
 23
7.961731409781975
 33
-9.399999999999991
  0
ENDSEC
  0
SECTION
  2
OBJECTS
  0
DICTIONARY
  5
C
330
0
100
AcDbDictionary
281
     1
  3
ACAD_BACKGROUND
350
378
  3
ACAD_COLOR
350
6C
  3
ACAD_GROUP
350
D
  3
ACAD_LAYOUT
350
372
  3
ACAD_MATERIAL
350
6B
  3
ACAD_MLEADERSTYLE
350
61
  3
ACAD_MLINESTYLE
350
17
  3
ACAD_PLOTSETTINGS
350
19
  3
ACAD_PLOTSTYLENAME
350
36E
  3
ACAD_SCALELIST
350
3D
  3
ACAD_TABLESTYLE
350
92
  3
ACAD_VISUALSTYLE
350
29
  3
ACDB_RECOMPOSE_DATA
350
B9
  3
ACDBHEADERROUNDTRIPXREC
350
346
  3
ACDBVARIABLEDICTIONARY
350
59
  3
ASE_INDEX_DICTIONARY
350
37C
  0
DICTIONARY
  5
378
102
{ACAD_REACTORS
330
C
102
}
330
C
100
AcDbDictionary
281
     1
  0
DICTIONARY
  5
6C
102
{ACAD_REACTORS
330
C
102
}
330
C
100
AcDbDictionary
281
     1
  0
DICTIONARY
  5
D
102
{ACAD_REACTORS
330
C
102
}
330
C
100
AcDbDictionary
281
     1
  0
DICTIONARY
  5
372
102
{ACAD_REACTORS
330
C
102
}
330
C
100
AcDbDictionary
281
     1
  3
Layout1
350
374
  3
Model
350
373
  0
DICTIONARY
  5
6B
102
{ACAD_REACTORS
330
C
102
}
330
C
100
AcDbDictionary
281
     1
  3
BYBLOCK
350
267
  3
BYLAYER
350
26B
  3
GLOBAL
350
272
  0
DICTIONARY
  5
61
102
{ACAD_REACTORS
330
C
102
}
330
C
100
AcDbDictionary
281
     1
  3
STANDARD
350
62
  0
DICTIONARY
  5
17
102
{ACAD_REACTORS
330
C
102
}
330
C
100
AcDbDictionary
281
     1
  3
STANDARD
350
18
  0
DICTIONARY
  5
19
102
{ACAD_REACTORS
330
C
102
}
330
C
100
AcDbDictionary
281
     1
  0
ACDBDICTIONARYWDFLT
  5
36E
102
{ACAD_REACTORS
330
C
102
}
330
C
100
AcDbDictionary
281
     1
  3
Normal
350
36F
100
AcDbDictionaryWithDefault
340
36F
  0
DICTIONARY
  5
3D
102
{ACAD_REACTORS
330
C
102
}
330
C
100
AcDbDictionary
281
     1
  3
A0
350
3E
  3
A1
350
3F
  3
A2
350
40
  3
A3
350
41
  3
A4
350
42
  3
A5
350
43
  3
A6
350
44
  3
A7
350
45
  3
A8
350
46
  3
A9
350
47
  3
B0
350
48
  3
B1
350
49
  3
B2
350
4A
  3
B3
350
4B
  3
B4
350
4C
  3
B5
350
4D
  3
B6
350
4E
  0
DICTIONARY
  5
92
102
{ACAD_REACTORS
330
C
102
}
330
C
100
AcDbDictionary
281
     1
  3
Standard
350
371
  0
DICTIONARY
  5
29
102
{ACAD_REACTORS
330
C
102
}
330
C
100
AcDbDictionary
281
     1
  3
2DWIREFRAME
350
2F
  3
3D Hidden
350
370
  3
3D_HIDDEN
350
31
  3
3DWIREFRAME
350
30
  3
BASIC
350
2E
  3
BRIGHTEN
350
35
  3
COLORCHANGE
350
39
  3
CONCEPTUAL
350
32
  3
DIM
350
34
  3
EDGECOLOROFF
350
3C
  3
FACEPATTERN
350
38
  3
FLAT
350
2A
  3
FLATWITHEDGES
350
2B
  3
GOURAUD
350
2C
  3
GOURAUDWITHEDGES
350
2D
  3
JITTEROFF
350
3A
  3
LINEPATTERN
350
37
  3
OVERHANGOFF
350
3B
  3
REALISTIC
350
33
  3
THICKEN
350
36
  0
XRECORD
  5
B9
102
{ACAD_REACTORS
330
C
102
}
330
C
100
AcDbXrecord
280
     1
 90
        1
330
60
  0
DICTIONARY
  5
346
102
{ACAD_REACTORS
330
C
102
}
330
C
100
AcDbDictionary
281
     1
  3
CEPSNTYPE
350
34F
  3
COLORDICT
350
366
  3
DIMSTYLEDATA
350
365
  3
FINGERPRINTGUID
350
350
  3
HYPERLINKBASE
350
349
  3
INSUNITS
350
34E
  3
LAYOUTDICT
350
34B
  3
LWETCUNION
350
34D
  3
MATERIALDICT
350
367
  3
PLOTSETDICT
350
34C
  3
PSVPSCALE
350
352
  3
PUCSBASE
350
355
  3
PUCSORGBACK
350
35B
  3
PUCSORGBOTTOM
350
357
  3
PUCSORGFRONT
350
35A
  3
PUCSORGLEFT
350
358
  3
PUCSORGRIGHT
350
359
  3
PUCSORGTOP
350
356
  3
PUCSORTHOREF
350
353
  3
PUCSORTHOVIEW
350
354
  3
STYLESHEET
350
34A
  3
TSTACKALIGN
350
347
  3
TSTACKSIZE
350
348
  3
UCSBASE
350
35E
  3
UCSORGBACK
350
364
  3
UCSORGBOTTOM
350
360
  3
UCSORGFRONT
350
363
  3
UCSORGLEFT
350
361
  3
UCSORGRIGHT
350
362
  3
UCSORGTOP
350
35F
  3
UCSORTHOREF
350
35C
  3
UCSORTHOVIEW
350
35D
  3
VERSIONGUID
350
351
  0
DICTIONARY
  5
59
102
{ACAD_REACTORS
330
C
102
}
330
C
100
AcDbDictionary
281
     1
  3
CANNOSCALE
350
B2
  3
CMLEADERSTYLE
350
B0
  3
CTABLESTYLE
350
AF
  3
DIMASSOC
350
E9
  3
HALOGAP
350
EA
  3
HIDETEXT
350
EC
  3
INDEXCTL
350
EB
  3
LAYEREVAL
350
B4
  3
LAYERNOTIFY
350
B5
  3
LIGHTINGUNITS
350
B3
  3
MSLTSCALE
350
B1
  3
XCLIPFRAME
350
B6
  0
DICTIONARY
  5
37C
102
{ACAD_REACTORS
330
C
102
}
330
C
100
AcDbDictionary
281
     1
  3
ASEBlockHierarchyIndexRecord
350
37E
1001
DCO15
1040
1803699065.632
  0
LAYOUT
  5
374
102
{ACAD_REACTORS
330
372
102
}
330
372
100
AcDbPlotSettings
  1

  2
Bullzip PDF Printer
  4

  6

 40
0.0
 41
0.0
 42
0.0
 43
0.0
 44
0.0
 45
0.0
 46
0.0
 47
0.0
 48
0.0
 49
0.0
140
0.0
141
0.0
142
1.0
143
1.0
 70
   688
 72
     0
 73
     0
 74
     5
  7

 75
    16
147
1.0
 76
     0
 77
     2
 78
   300
148
0.0
149
0.0
100
AcDbLayout
  1
Layout1
 70
     1
 71
     1
 10
0.0
 20
0.0
 11
420.0
 21
297.0
 12
0.0
 22
0.0
 32
0.0
 14
1.000000000000000E+20
 24
1.000000000000000E+20
 34
1.000000000000000E+20
 15
-1.000000000000000E+20
 25
-1.000000000000000E+20
 35
-1.000000000000000E+20
146
0.0
 13
0.0
 23
0.0
 33
0.0
 16
1.0
 26
0.0
 36
0.0
 17
0.0
 27
1.0
 37
0.0
 76
     0
330
73
  0
LAYOUT
  5
373
102
{ACAD_REACTORS
330
372
102
}
330
372
100
AcDbPlotSettings
  1

  2
Bullzip PDF Printer
  4

  6

 40
0.0
 41
0.0
 42
0.0
 43
0.0
 44
0.0
 45
0.0
 46
0.0
 47
0.0
 48
0.0
 49
0.0
140
0.0
141
0.0
142
1.0
143
1.0
 70
  1712
 72
     0
 73
     0
 74
     0
  7

 75
     0
147
1.0
 76
     0
 77
     2
 78
   300
148
0.0
149
0.0
100
AcDbLayout
  1
Model
 70
     1
 71
     0
 10
0.0
 20
0.0
 11
12.0
 21
9.0
 12
0.0
 22
0.0
 32
0.0
 14
0.0
 24
0.0
 34
0.0
 15
0.0
 25
0.0
 35
0.0
146
0.0
 13
0.0
 23
0.0
 33
0.0
 16
1.0
 26
0.0
 36
0.0
 17
0.0
 27
1.0
 37
0.0
 76
     0
330
1F
331
97
  0
MATERIAL
  5
267
102
{ACAD_XDICTIONARY
360
32D
102
}
102
{ACAD_REACTORS
330
6B
102
}
330
6B
100
AcDbMaterial
  1
BYBLOCK
 72
     0
 43
0.0208333333333333
 43
0.0
 43
0.0
 43
0.0
 43
0.0
 43
0.0208333333333333
 43
0.0
 43
0.0
 43
0.0
 43
0.0
 43
1.0
 43
0.0
 43
0.0
 43
0.0
 43
0.0
 43
1.0
 77
     0
 47
0.0208333333333333
 47
0.0
 47
0.0
 47
0.0
 47
0.0
 47
0.0208333333333333
 47
0.0
 47
0.0
 47
0.0
 47
0.0
 47
1.0
 47
0.0
 47
0.0
 47
0.0
 47
0.0
 47
1.0
171
     0
 49
0.0208333333333333
 49
0.0
 49
0.0
 49
0.0
 49
0.0
 49
0.0208333333333333
 49
0.0
 49
0.0
 49
0.0
 49
0.0
 49
1.0
 49
0.0
 49
0.0
 49
0.0
 49
0.0
 49
1.0
175
     0
142
0.0208333333333333
142
0.0
142
0.0
142
0.0
142
0.0
142
0.0208333333333333
142
0.0
142
0.0
142
0.0
142
0.0
142
1.0
142
0.0
142
0.0
142
0.0
142
0.0
142
1.0
179
     0
144
0.0208333333333333
144
0.0
144
0.0
144
0.0
144
0.0
144
0.0208333333333333
144
0.0
144
0.0
144
0.0
144
0.0
144
1.0
144
0.0
144
0.0
144
0.0
144
0.0
144
1.0
147
0.0208333333333333
147
0.0
147
0.0
147
0.0
147
0.0
147
0.0208333333333333
147
0.0
147
0.0
147
0.0
147
0.0
147
1.0
147
0.0
147
0.0
147
0.0
147
0.0
147
1.0
  0
MATERIAL
  5
26B
102
{ACAD_XDICTIONARY
360
32E
102
}
102
{ACAD_REACTORS
330
6B
102
}
330
6B
100
AcDbMaterial
  1
BYLAYER
 72
     0
 43
0.0208333333333333
 43
0.0
 43
0.0
 43
0.0
 43
0.0
 43
0.0208333333333333
 43
0.0
 43
0.0
 43
0.0
 43
0.0
 43
1.0
 43
0.0
 43
0.0
 43
0.0
 43
0.0
 43
1.0
 77
     0
 47
0.0208333333333333
 47
0.0
 47
0.0
 47
0.0
 47
0.0
 47
0.0208333333333333
 47
0.0
 47
0.0
 47
0.0
 47
0.0
 47
1.0
 47
0.0
 47
0.0
 47
0.0
 47
0.0
 47
1.0
171
     0
 49
0.0208333333333333
 49
0.0
 49
0.0
 49
0.0
 49
0.0
 49
0.0208333333333333
 49
0.0
 49
0.0
 49
0.0
 49
0.0
 49
1.0
 49
0.0
 49
0.0
 49
0.0
 49
0.0
 49
1.0
175
     0
142
0.0208333333333333
142
0.0
142
0.0
142
0.0
142
0.0
142
0.0208333333333333
142
0.0
142
0.0
142
0.0
142
0.0
142
1.0
142
0.0
142
0.0
142
0.0
142
0.0
142
1.0
179
     0
144
0.0208333333333333
144
0.0
144
0.0
144
0.0
144
0.0
144
0.0208333333333333
144
0.0
144
0.0
144
0.0
144
0.0
144
1.0
144
0.0
144
0.0
144
0.0
144
0.0
144
1.0
147
0.0208333333333333
147
0.0
147
0.0
147
0.0
147
0.0
147
0.0208333333333333
147
0.0
147
0.0
147
0.0
147
0.0
147
1.0
147
0.0
147
0.0
147
0.0
147
0.0
147
1.0
  0
MATERIAL
  5
272
102
{ACAD_XDICTIONARY
360
32F
102
}
102
{ACAD_REACTORS
330
6B
102
}
330
6B
100
AcDbMaterial
  1
GLOBAL
 72
     0
 43
0.0208333333333333
 43
0.0
 43
0.0
 43
0.0
 43
0.0
 43
0.0208333333333333
 43
0.0
 43
0.0
 43
0.0
 43
0.0
 43
1.0
 43
0.0
 43
0.0
 43
0.0
 43
0.0
 43
1.0
 77
     0
 47
0.0208333333333333
 47
0.0
 47
0.0
 47
0.0
 47
0.0
 47
0.0208333333333333
 47
0.0
 47
0.0
 47
0.0
 47
0.0
 47
1.0
 47
0.0
 47
0.0
 47
0.0
 47
0.0
 47
1.0
171
     0
 49
0.0208333333333333
 49
0.0
 49
0.0
 49
0.0
 49
0.0
 49
0.0208333333333333
 49
0.0
 49
0.0
 49
0.0
 49
0.0
 49
1.0
 49
0.0
 49
0.0
 49
0.0
 49
0.0
 49
1.0
175
     0
142
0.0208333333333333
142
0.0
142
0.0
142
0.0
142
0.0
142
0.0208333333333333
142
0.0
142
0.0
142
0.0
142
0.0
142
1.0
142
0.0
142
0.0
142
0.0
142
0.0
142
1.0
179
     0
144
0.0208333333333333
144
0.0
144
0.0
144
0.0
144
0.0
144
0.0208333333333333
144
0.0
144
0.0
144
0.0
144
0.0
144
1.0
144
0.0
144
0.0
144
0.0
144
0.0
144
1.0
147
0.0208333333333333
147
0.0
147
0.0
147
0.0
147
0.0
147
0.0208333333333333
147
0.0
147
0.0
147
0.0
147
0.0
147
1.0
147
0.0
147
0.0
147
0.0
147
0.0
147
1.0
  0
MLEADERSTYLE
  5
62
102
{ACAD_REACTORS
330
61
102
}
330
61
100
AcDbMLeaderStyle
170
     2
171
     1
172
     0
 90
        2
 40
0.0
 41
0.0
173
     1
 91
-1056964608
340
14
 92
       -2
290
     1
 42
0.09
291
     1
 43
0.36
  3
Standard
 44
0.18
300

342
11
174
     1
178
     6
175
     1
176
     0
 93
-1056964608
 45
0.18
292
     0
297
     0
 46
0.18
 94
-1056964608
 47
1.0
 49
1.0
140
1.0
293
     1
141
0.0
294
     1
177
     0
142
1.0
295
     0
296
     0
143
0.125
1001
ACAD_MLEADERVER
1070
     2
1001
ACAD
  0
MLINESTYLE
  5
18
102
{ACAD_REACTORS
330
17
102
}
330
17
100
AcDbMlineStyle
  2
STANDARD
 70
     0
  3

 62
   256
 51
90.0
 52
90.0
 71
     2
 49
0.5
 62
   256
  6
BYLAYER
 49
-0.5
 62
   256
  6
BYLAYER
  0
ACDBPLACEHOLDER
  5
36F
102
{ACAD_REACTORS
330
36E
102
}
330
36E
  0
SCALE
  5
3E
102
{ACAD_REACTORS
330
3D
102
}
330
3D
100
AcDbScale
 70
     0
300
1:1
140
1.0
141
1.0
290
     1
1001
ACAD
  0
SCALE
  5
3F
102
{ACAD_REACTORS
330
3D
102
}
330
3D
100
AcDbScale
 70
     0
300
1:2
140
1.0
141
2.0
290
     0
1001
ACAD
  0
SCALE
  5
40
102
{ACAD_REACTORS
330
3D
102
}
330
3D
100
AcDbScale
 70
     0
300
1:4
140
1.0
141
4.0
290
     0
1001
ACAD
  0
SCALE
  5
41
102
{ACAD_REACTORS
330
3D
102
}
330
3D
100
AcDbScale
 70
     0
300
1:5
140
1.0
141
5.0
290
     0
1001
ACAD
  0
SCALE
  5
42
102
{ACAD_REACTORS
330
3D
102
}
330
3D
100
AcDbScale
 70
     0
300
1:8
140
1.0
141
8.0
290
     0
1001
ACAD
  0
SCALE
  5
43
102
{ACAD_REACTORS
330
3D
102
}
330
3D
100
AcDbScale
 70
     0
300
1:10
140
1.0
141
10.0
290
     0
1001
ACAD
  0
SCALE
  5
44
102
{ACAD_REACTORS
330
3D
102
}
330
3D
100
AcDbScale
 70
     0
300
1:16
140
1.0
141
16.0
290
     0
1001
ACAD
  0
SCALE
  5
45
102
{ACAD_REACTORS
330
3D
102
}
330
3D
100
AcDbScale
 70
     0
300
1:20
140
1.0
141
20.0
290
     0
1001
ACAD
  0
SCALE
  5
46
102
{ACAD_REACTORS
330
3D
102
}
330
3D
100
AcDbScale
 70
     0
300
1:30
140
1.0
141
30.0
290
     0
1001
ACAD
  0
SCALE
  5
47
102
{ACAD_REACTORS
330
3D
102
}
330
3D
100
AcDbScale
 70
     0
300
1:40
140
1.0
141
40.0
290
     0
1001
ACAD
  0
SCALE
  5
48
102
{ACAD_REACTORS
330
3D
102
}
330
3D
100
AcDbScale
 70
     0
300
1:50
140
1.0
141
50.0
290
     0
1001
ACAD
  0
SCALE
  5
49
102
{ACAD_REACTORS
330
3D
102
}
330
3D
100
AcDbScale
 70
     0
300
1:100
140
1.0
141
100.0
290
     0
1001
ACAD
  0
SCALE
  5
4A
102
{ACAD_REACTORS
330
3D
102
}
330
3D
100
AcDbScale
 70
     0
300
2:1
140
2.0
141
1.0
290
     0
1001
ACAD
  0
SCALE
  5
4B
102
{ACAD_REACTORS
330
3D
102
}
330
3D
100
AcDbScale
 70
     0
300
4:1
140
4.0
141
1.0
290
     0
1001
ACAD
  0
SCALE
  5
4C
102
{ACAD_REACTORS
330
3D
102
}
330
3D
100
AcDbScale
 70
     0
300
8:1
140
8.0
141
1.0
290
     0
1001
ACAD
  0
SCALE
  5
4D
102
{ACAD_REACTORS
330
3D
102
}
330
3D
100
AcDbScale
 70
     0
300
10:1
140
10.0
141
1.0
290
     0
1001
ACAD
  0
SCALE
  5
4E
102
{ACAD_REACTORS
330
3D
102
}
330
3D
100
AcDbScale
 70
     0
300
100:1
140
100.0
141
1.0
290
     0
1001
ACAD
  0
TABLESTYLE
  5
371
102
{ACAD_REACTORS
330
92
102
}
330
92
100
AcDbTableStyle
  3
Standard
 70
     0
 71
     0
 40
1.5
 41
1.5
280
     0
281
     0
  7
STANDARD
140
4.5
170
     2
 62
     0
 63
     7
283
     0
 90
      512
 91
        0
  1

274
    -2
284
     1
 64
     0
275
    -2
285
     1
 65
     0
276
    -2
286
     1
 66
     0
277
    -2
287
     1
 67
     0
278
    -2
288
     1
 68
     0
279
    -2
289
     1
 69
     0
  7
STANDARD
140
6.0
170
     5
 62
     0
 63
     7
283
     0
 90
      512
 91
        0
  1

274
    -2
284
     1
 64
     0
275
    -2
285
     1
 65
     0
276
    -2
286
     1
 66
     0
277
    -2
287
     1
 67
     0
278
    -2
288
     1
 68
     0
279
    -2
289
     1
 69
     0
  7
STANDARD
140
4.5
170
     5
 62
     0
 63
     7
283
     0
 90
      512
 91
        0
  1

274
    -2
284
     1
 64
     0
275
    -2
285
     1
 65
     0
276
    -2
286
     1
 66
     0
277
    -2
287
     1
 67
     0
278
    -2
288
     1
 68
     0
279
    -2
289
     1
 69
     0
  0
VISUALSTYLE
  5
2F
102
{ACAD_XDICTIONARY
360
331
102
}
102
{ACAD_REACTORS
330
29
102
}
330
29
100
AcDbVisualStyle
  2
2dWireframe
 70
     4
 71
     0
 72
     2
 73
     0
 90
        0
 40
-0.6
 41
-30.0
 62
     5
 63
     7
 74
     1
 91
        4
 64
     7
 65
   257
 75
     1
175
     1
 42
1.0
 92
        0
 66
   257
 43
1.0
 76
     1
 77
     6
 78
     2
 67
     7
 79
     5
170
     0
171
     0
290
     0
174
     0
 93
        1
 44
0.0
173
     0
291
     0
 45
0.0
1001
ACAD
1000
AcDbSavedByObjectVersion
1070
     0
  0
VISUALSTYLE
  5
370
102
{ACAD_REACTORS
330
29
102
}
330
29
100
AcDbVisualStyle
  2
3D Hidden
 70
     6
 71
     1
 72
     2
 73
     2
 90
        0
 40
-0.6
 41
-30.0
 62
     5
 63
     7
421
 16777215
 74
     2
 91
        2
 64
     7
 65
   257
 75
     2
175
     1
 42
40.0
 92
        0
 66
   257
 43
1.0
 76
     1
 77
     6
 78
     2
 67
     7
 79
     3
170
     0
171
     0
290
     0
174
     0
 93
        1
 44
0.0
173
     0
291
     0
 45
0.0
  0
VISUALSTYLE
  5
31
102
{ACAD_XDICTIONARY
360
332
102
}
102
{ACAD_REACTORS
330
29
102
}
330
29
100
AcDbVisualStyle
  2
3D Hidden
 70
     6
 71
     1
 72
     2
 73
     2
 90
        0
 40
-0.6
 41
-30.0
 62
     5
 63
     7
 74
     2
 91
        2
 64
     7
 65
   257
 75
     2
175
     1
 42
179.0
 92
        0
 66
   257
 43
1.0
 76
     1
 77
     6
 78
     2
 67
     7
 79
     3
170
     0
171
     0
290
     0
174
     0
 93
        1
 44
0.0
173
     0
291
     0
 45
0.0
1001
ACAD
1000
AcDbSavedByObjectVersion
1070
     0
  0
VISUALSTYLE
  5
30
102
{ACAD_XDICTIONARY
360
333
102
}
102
{ACAD_REACTORS
330
29
102
}
330
29
100
AcDbVisualStyle
  2
3dWireframe
 70
     5
 71
     0
 72
     2
 73
     0
 90
        0
 40
-0.6
 41
-30.0
 62
     5
 63
     7
 74
     1
 91
        4
 64
     7
 65
   257
 75
     1
175
     1
 42
1.0
 92
        0
 66
   257
 43
1.0
 76
     1
 77
     6
 78
     2
 67
     7
 79
     5
170
     0
171
     0
290
     0
174
     0
 93
        1
 44
0.0
173
     0
291
     0
 45
0.0
1001
ACAD
1000
AcDbSavedByObjectVersion
1070
     0
  0
VISUALSTYLE
  5
2E
102
{ACAD_XDICTIONARY
360
334
102
}
102
{ACAD_REACTORS
330
29
102
}
330
29
100
AcDbVisualStyle
  2
Basic
 70
     7
 71
     1
 72
     0
 73
     1
 90
        0
 40
-0.6
 41
-30.0
 62
     5
 63
     7
 74
     0
 91
        4
 64
     7
 65
   257
 75
     1
175
     1
 42
1.0
 92
        8
 66
     7
 43
1.0
 76
     1
 77
     6
 78
     2
 67
     7
 79
     5
170
     0
171
     0
290
     0
174
     0
 93
        1
 44
0.0
173
     0
291
     1
 45
0.0
1001
ACAD
1000
AcDbSavedByObjectVersion
1070
     0
  0
VISUALSTYLE
  5
35
102
{ACAD_XDICTIONARY
360
335
102
}
102
{ACAD_REACTORS
330
29
102
}
330
29
100
AcDbVisualStyle
  2
Brighten
 70
    12
 71
     2
 72
     2
 73
     0
 90
        0
 40
-0.6
 41
-30.0
 62
     5
 63
     7
 74
     1
 91
        4
 64
     7
 65
   257
 75
     1
175
     1
 42
1.0
 92
        8
 66
     7
 43
1.0
 76
     1
 77
     6
 78
     2
 67
     7
 79
     5
170
     0
171
     0
290
     0
174
     0
 93
        1
 44
50.0
173
     0
291
     1
 45
0.0
1001
ACAD
1000
AcDbSavedByObjectVersion
1070
     0
  0
VISUALSTYLE
  5
39
102
{ACAD_XDICTIONARY
360
336
102
}
102
{ACAD_REACTORS
330
29
102
}
330
29
100
AcDbVisualStyle
  2
ColorChange
 70
    16
 71
     2
 72
     2
 73
     3
 90
        0
 40
-0.6
 41
-30.0
 62
     5
 63
     8
 74
     1
 91
        4
 64
     7
 65
   257
 75
     1
175
     1
 42
1.0
 92
        8
 66
     8
 43
1.0
 76
     1
 77
     6
 78
     2
 67
     7
 79
     5
170
     0
171
     0
290
     0
174
     0
 93
        1
 44
0.0
173
     0
291
     1
 45
0.0
1001
ACAD
1000
AcDbSavedByObjectVersion
1070
     0
  0
VISUALSTYLE
  5
32
102
{ACAD_XDICTIONARY
360
337
102
}
102
{ACAD_REACTORS
330
29
102
}
330
29
100
AcDbVisualStyle
  2
Conceptual
 70
     9
 71
     3
 72
     2
 73
     0
 90
        0
 40
-0.6
 41
-30.0
 62
     5
 63
     7
 74
     2
 91
        2
 64
     7
 65
   257
 75
     1
175
     1
 42
179.0
 92
        8
 66
     7
 43
1.0
 76
     1
 77
     6
 78
     2
 67
     7
 79
     3
170
     0
171
     0
290
     0
174
     0
 93
        1
 44
0.0
173
     0
291
     0
 45
0.0
1001
ACAD
1000
AcDbSavedByObjectVersion
1070
     0
  0
VISUALSTYLE
  5
34
102
{ACAD_XDICTIONARY
360
338
102
}
102
{ACAD_REACTORS
330
29
102
}
330
29
100
AcDbVisualStyle
  2
Dim
 70
    11
 71
     2
 72
     2
 73
     0
 90
        0
 40
-0.6
 41
-30.0
 62
     5
 63
     7
 74
     1
 91
        4
 64
     7
 65
   257
 75
     1
175
     1
 42
1.0
 92
        8
 66
     7
 43
1.0
 76
     1
 77
     6
 78
     2
 67
     7
 79
     5
170
     0
171
     0
290
     0
174
     0
 93
        1
 44
-50.0
173
     0
291
     1
 45
0.0
1001
ACAD
1000
AcDbSavedByObjectVersion
1070
     0
  0
VISUALSTYLE
  5
3C
102
{ACAD_XDICTIONARY
360
339
102
}
102
{ACAD_REACTORS
330
29
102
}
330
29
100
AcDbVisualStyle
  2
EdgeColorOff
 70
    22
 71
     2
 72
     2
 73
     0
 90
        0
 40
-0.6
 41
-30.0
 62
     5
 63
     7
 74
     1
 91
        4
 64
     7
 65
   257
 75
     1
175
     1
 42
1.0
 92
        8
 66
     7
 43
1.0
 76
     1
 77
     6
 78
     2
 67
     7
 79
     5
170
     0
171
     0
290
     0
174
     0
 93
        1
 44
0.0
173
     0
291
     1
 45
0.0
1001
ACAD
1000
AcDbSavedByObjectVersion
1070
     0
  0
VISUALSTYLE
  5
38
102
{ACAD_XDICTIONARY
360
33A
102
}
102
{ACAD_REACTORS
330
29
102
}
330
29
100
AcDbVisualStyle
  2
Facepattern
 70
    15
 71
     2
 72
     2
 73
     0
 90
        0
 40
-0.6
 41
-30.0
 62
     5
 63
     7
 74
     1
 91
        4
 64
     7
 65
   257
 75
     1
175
     1
 42
1.0
 92
        8
 66
     7
 43
1.0
 76
     1
 77
     6
 78
     2
 67
     7
 79
     5
170
     0
171
     0
290
     0
174
     0
 93
        1
 44
0.0
173
     0
291
     1
 45
0.0
1001
ACAD
1000
AcDbSavedByObjectVersion
1070
     0
  0
VISUALSTYLE
  5
2A
102
{ACAD_XDICTIONARY
360
33B
102
}
102
{ACAD_REACTORS
330
29
102
}
330
29
100
AcDbVisualStyle
  2
Flat
 70
     0
 71
     2
 72
     1
 73
     1
 90
        2
 40
-0.6
 41
30.0
 62
     5
 63
     7
 74
     0
 91
        4
 64
     7
 65
   257
 75
     1
175
     1
 42
1.0
 92
        8
 66
     7
 43
1.0
 76
     1
 77
     6
 78
     2
 67
     7
 79
     5
170
     0
171
     0
290
     0
174
     0
 93
       13
 44
0.0
173
     0
291
     1
 45
0.0
1001
ACAD
1000
AcDbSavedByObjectVersion
1070
     0
  0
VISUALSTYLE
  5
2B
102
{ACAD_XDICTIONARY
360
33C
102
}
102
{ACAD_REACTORS
330
29
102
}
330
29
100
AcDbVisualStyle
  2
FlatWithEdges
 70
     1
 71
     2
 72
     1
 73
     1
 90
        2
 40
-0.6
 41
30.0
 62
     5
 63
     7
 74
     1
 91
        4
 64
     7
 65
   257
 75
     1
175
     1
 42
1.0
 92
        0
 66
   257
 43
1.0
 76
     1
 77
     6
 78
     2
 67
     7
 79
     5
170
     0
171
     0
290
     0
174
     0
 93
       13
 44
0.0
173
     0
291
     1
 45
0.0
1001
ACAD
1000
AcDbSavedByObjectVersion
1070
     0
  0
VISUALSTYLE
  5
2C
102
{ACAD_XDICTIONARY
360
33D
102
}
102
{ACAD_REACTORS
330
29
102
}
330
29
100
AcDbVisualStyle
  2
Gouraud
 70
     2
 71
     2
 72
     2
 73
     1
 90
        2
 40
-0.6
 41
30.0
 62
     5
 63
     7
 74
     0
 91
        4
 64
     7
 65
   257
 75
     1
175
     1
 42
1.0
 92
        0
 66
     7
 43
1.0
 76
     1
 77
     6
 78
     2
 67
     7
 79
     5
170
     0
171
     0
290
     0
174
     0
 93
       13
 44
0.0
173
     0
291
     1
 45
0.0
1001
ACAD
1000
AcDbSavedByObjectVersion
1070
     0
  0
VISUALSTYLE
  5
2D
102
{ACAD_XDICTIONARY
360
33E
102
}
102
{ACAD_REACTORS
330
29
102
}
330
29
100
AcDbVisualStyle
  2
GouraudWithEdges
 70
     3
 71
     2
 72
     2
 73
     1
 90
        2
 40
-0.6
 41
30.0
 62
     5
 63
     7
 74
     1
 91
        4
 64
     7
 65
   257
 75
     1
175
     1
 42
1.0
 92
        0
 66
   257
 43
1.0
 76
     1
 77
     6
 78
     2
 67
     7
 79
     5
170
     0
171
     0
290
     0
174
     0
 93
       13
 44
0.0
173
     0
291
     1
 45
0.0
1001
ACAD
1000
AcDbSavedByObjectVersion
1070
     0
  0
VISUALSTYLE
  5
3A
102
{ACAD_XDICTIONARY
360
33F
102
}
102
{ACAD_REACTORS
330
29
102
}
330
29
100
AcDbVisualStyle
  2
JitterOff
 70
    20
 71
     2
 72
     2
 73
     0
 90
        0
 40
-0.6
 41
-30.0
 62
     5
 63
     7
 74
     1
 91
        4
 64
     7
 65
   257
 75
     1
175
     1
 42
1.0
 92
       10
 66
     7
 43
1.0
 76
     1
 77
     6
 78
     2
 67
     7
 79
     5
170
     0
171
     0
290
     0
174
     0
 93
        1
 44
0.0
173
     0
291
     1
 45
0.0
1001
ACAD
1000
AcDbSavedByObjectVersion
1070
     0
  0
VISUALSTYLE
  5
37
102
{ACAD_XDICTIONARY
360
340
102
}
102
{ACAD_REACTORS
330
29
102
}
330
29
100
AcDbVisualStyle
  2
Linepattern
 70
    14
 71
     2
 72
     2
 73
     0
 90
        0
 40
-0.6
 41
-30.0
 62
     5
 63
     7
 74
     1
 91
        4
 64
     7
 65
   257
 75
     7
175
     7
 42
1.0
 92
        8
 66
     7
 43
1.0
 76
     1
 77
     6
 78
     2
 67
     7
 79
     5
170
     0
171
     0
290
     0
174
     0
 93
        1
 44
0.0
173
     0
291
     1
 45
0.0
1001
ACAD
1000
AcDbSavedByObjectVersion
1070
     0
  0
VISUALSTYLE
  5
3B
102
{ACAD_XDICTIONARY
360
341
102
}
102
{ACAD_REACTORS
330
29
102
}
330
29
100
AcDbVisualStyle
  2
OverhangOff
 70
    21
 71
     2
 72
     2
 73
     0
 90
        0
 40
-0.6
 41
-30.0
 62
     5
 63
     7
 74
     1
 91
        4
 64
     7
 65
   257
 75
     1
175
     1
 42
1.0
 92
        9
 66
     7
 43
1.0
 76
     1
 77
     6
 78
     2
 67
     7
 79
     5
170
     0
171
     0
290
     0
174
     0
 93
        1
 44
0.0
173
     0
291
     1
 45
0.0
1001
ACAD
1000
AcDbSavedByObjectVersion
1070
     0
  0
VISUALSTYLE
  5
33
102
{ACAD_XDICTIONARY
360
342
102
}
102
{ACAD_REACTORS
330
29
102
}
330
29
100
AcDbVisualStyle
  2
Realistic
 70
     8
 71
     2
 72
     2
 73
     0
 90
        0
 40
-0.6
 41
-30.0
 62
     5
 63
     7
 74
     1
 91
        0
 64
     7
 65
   257
 75
     1
175
     1
 42
1.0
 92
        8
 66
     8
 43
1.0
 76
     1
 77
     6
 78
     2
 67
     7
 79
     5
170
     0
171
     0
290
     0
174
     0
 93
       13
 44
0.0
173
     0
291
     0
 45
0.0
1001
ACAD
1000
AcDbSavedByObjectVersion
1070
     0
  0
VISUALSTYLE
  5
36
102
{ACAD_XDICTIONARY
360
343
102
}
102
{ACAD_REACTORS
330
29
102
}
330
29
100
AcDbVisualStyle
  2
Thicken
 70
    13
 71
     2
 72
     2
 73
     0
 90
        0
 40
-0.6
 41
-30.0
 62
     5
 63
     7
 74
     1
 91
        4
 64
     7
 65
   257
 75
     1
175
     1
 42
1.0
 92
       12
 66
     7
 43
1.0
 76
     1
 77
     6
 78
     2
 67
     7
 79
     5
170
     0
171
     0
290
     0
174
     0
 93
        1
 44
0.0
173
     0
291
     1
 45
0.0
1001
ACAD
1000
AcDbSavedByObjectVersion
1070
     0
  0
XRECORD
  5
34F
102
{ACAD_REACTORS
330
346
102
}
330
346
100
AcDbXrecord
280
     1
 90
        0
  0
XRECORD
  5
366
102
{ACAD_REACTORS
330
346
102
}
330
346
100
AcDbXrecord
280
     1
340
6C
  0
XRECORD
  5
365
102
{ACAD_REACTORS
330
346
102
}
330
346
100
AcDbXrecord
280
     1
1000
DSTYLE
1002
{
1070
   340
340
11
1002
}
  0
XRECORD
  5
350
102
{ACAD_REACTORS
330
346
102
}
330
346
100
AcDbXrecord
280
     1
  1
{A817FBF1-0379-4059-B045-9EA5B33A8D6B}
  0
XRECORD
  5
349
102
{ACAD_REACTORS
330
346
102
}
330
346
100
AcDbXrecord
280
     1
  1

  0
XRECORD
  5
34E
102
{ACAD_REACTORS
330
346
102
}
330
346
100
AcDbXrecord
280
     1
 90
        4
  0
XRECORD
  5
34B
102
{ACAD_REACTORS
330
346
102
}
330
346
100
AcDbXrecord
280
     1
340
1A
  0
XRECORD
  5
34D
102
{ACAD_REACTORS
330
346
102
}
330
346
100
AcDbXrecord
280
     1
 90
    10781
  0
XRECORD
  5
367
102
{ACAD_REACTORS
330
346
102
}
330
346
100
AcDbXrecord
280
     1
340
6B
  0
XRECORD
  5
34C
102
{ACAD_REACTORS
330
346
102
}
330
346
100
AcDbXrecord
280
     1
340
19
  0
XRECORD
  5
352
102
{ACAD_REACTORS
330
346
102
}
330
346
100
AcDbXrecord
280
     1
 40
0.0
  0
XRECORD
  5
355
102
{ACAD_REACTORS
330
346
102
}
330
346
100
AcDbXrecord
280
     1
340
0
  0
XRECORD
  5
35B
102
{ACAD_REACTORS
330
346
102
}
330
346
100
AcDbXrecord
280
     1
 10
0.0
 20
0.0
 30
0.0
  0
XRECORD
  5
357
102
{ACAD_REACTORS
330
346
102
}
330
346
100
AcDbXrecord
280
     1
 10
0.0
 20
0.0
 30
0.0
  0
XRECORD
  5
35A
102
{ACAD_REACTORS
330
346
102
}
330
346
100
AcDbXrecord
280
     1
 10
0.0
 20
0.0
 30
0.0
  0
XRECORD
  5
358
102
{ACAD_REACTORS
330
346
102
}
330
346
100
AcDbXrecord
280
     1
 10
0.0
 20
0.0
 30
0.0
  0
XRECORD
  5
359
102
{ACAD_REACTORS
330
346
102
}
330
346
100
AcDbXrecord
280
     1
 10
0.0
 20
0.0
 30
0.0
  0
XRECORD
  5
356
102
{ACAD_REACTORS
330
346
102
}
330
346
100
AcDbXrecord
280
     1
 10
0.0
 20
0.0
 30
0.0
  0
XRECORD
  5
353
102
{ACAD_REACTORS
330
346
102
}
330
346
100
AcDbXrecord
280
     1
340
0
  0
XRECORD
  5
354
102
{ACAD_REACTORS
330
346
102
}
330
346
100
AcDbXrecord
280
     1
 70
     0
  0
XRECORD
  5
34A
102
{ACAD_REACTORS
330
346
102
}
330
346
100
AcDbXrecord
280
     1
  1

  0
XRECORD
  5
347
102
{ACAD_REACTORS
330
346
102
}
330
346
100
AcDbXrecord
280
     1
 90
        1
  0
XRECORD
  5
348
102
{ACAD_REACTORS
330
346
102
}
330
346
100
AcDbXrecord
280
     1
 90
       70
  0
XRECORD
  5
35E
102
{ACAD_REACTORS
330
346
102
}
330
346
100
AcDbXrecord
280
     1
340
0
  0
XRECORD
  5
364
102
{ACAD_REACTORS
330
346
102
}
330
346
100
AcDbXrecord
280
     1
 10
0.0
 20
0.0
 30
0.0
  0
XRECORD
  5
360
102
{ACAD_REACTORS
330
346
102
}
330
346
100
AcDbXrecord
280
     1
 10
0.0
 20
0.0
 30
0.0
  0
XRECORD
  5
363
102
{ACAD_REACTORS
330
346
102
}
330
346
100
AcDbXrecord
280
     1
 10
0.0
 20
0.0
 30
0.0
  0
XRECORD
  5
361
102
{ACAD_REACTORS
330
346
102
}
330
346
100
AcDbXrecord
280
     1
 10
0.0
 20
0.0
 30
0.0
  0
XRECORD
  5
362
102
{ACAD_REACTORS
330
346
102
}
330
346
100
AcDbXrecord
280
     1
 10
0.0
 20
0.0
 30
0.0
  0
XRECORD
  5
35F
102
{ACAD_REACTORS
330
346
102
}
330
346
100
AcDbXrecord
280
     1
 10
0.0
 20
0.0
 30
0.0
  0
XRECORD
  5
35C
102
{ACAD_REACTORS
330
346
102
}
330
346
100
AcDbXrecord
280
     1
340
0
  0
XRECORD
  5
35D
102
{ACAD_REACTORS
330
346
102
}
330
346
100
AcDbXrecord
280
     1
 70
     0
  0
XRECORD
  5
351
102
{ACAD_REACTORS
330
346
102
}
330
346
100
AcDbXrecord
280
     1
  1
{C17B6F13-AD01-4420-9D6B-5F2BF7F98410}
  0
DICTIONARYVAR
  5
B2
102
{ACAD_REACTORS
330
59
102
}
330
59
100
DictionaryVariables
280
     0
  1
1:1
  0
DICTIONARYVAR
  5
B0
102
{ACAD_REACTORS
330
59
102
}
330
59
100
DictionaryVariables
280
     0
  1
STANDARD
  0
DICTIONARYVAR
  5
AF
102
{ACAD_REACTORS
330
59
102
}
330
59
100
DictionaryVariables
280
     0
  1
STANDARD
  0
DICTIONARYVAR
  5
E9
102
{ACAD_REACTORS
330
59
102
}
330
59
100
DictionaryVariables
280
     0
  1
2
  0
DICTIONARYVAR
  5
EA
102
{ACAD_REACTORS
330
59
102
}
330
59
100
DictionaryVariables
280
     0
  1
0
  0
DICTIONARYVAR
  5
EC
102
{ACAD_REACTORS
330
59
102
}
330
59
100
DictionaryVariables
280
     0
  1
1
  0
DICTIONARYVAR
  5
EB
102
{ACAD_REACTORS
330
59
102
}
330
59
100
DictionaryVariables
280
     0
  1
0
  0
DICTIONARYVAR
  5
B4
102
{ACAD_REACTORS
330
59
102
}
330
59
100
DictionaryVariables
280
     0
  1
0
  0
DICTIONARYVAR
  5
B5
102
{ACAD_REACTORS
330
59
102
}
330
59
100
DictionaryVariables
280
     0
  1
0
  0
DICTIONARYVAR
  5
B3
102
{ACAD_REACTORS
330
59
102
}
330
59
100
DictionaryVariables
280
     0
  1
2
  0
DICTIONARYVAR
  5
B1
102
{ACAD_REACTORS
330
59
102
}
330
59
100
DictionaryVariables
280
     0
  1
1
  0
DICTIONARYVAR
  5
B6
102
{ACAD_REACTORS
330
59
102
}
330
59
100
DictionaryVariables
280
     0
  1
0
  0
XRECORD
  5
37E
102
{ACAD_REACTORS
330
37C
102
}
330
37C
100
AcDbXrecord
280
     1
  0
DICTIONARY
  5
32D
330
267
100
AcDbDictionary
280
     1
281
     1
  3
ACAD_XREC_ROUNDTRIP
360
369
  3
BUMPTILE
360
1C
  3
DIFFUSETILE
360
1B
  3
OPACITYTILE
360
269
  3
REFLECTIONTILE
360
1E
  3
REFRACTIONTILE
360
26A
  3
SPECULARTILE
360
1D
  0
DICTIONARY
  5
32E
330
26B
100
AcDbDictionary
280
     1
281
     1
  3
ACAD_XREC_ROUNDTRIP
360
36A
  3
BUMPTILE
360
26D
  3
DIFFUSETILE
360
13
  3
OPACITYTILE
360
26E
  3
REFLECTIONTILE
360
26F
  3
REFRACTIONTILE
360
270
  3
SPECULARTILE
360
271
  0
DICTIONARY
  5
32F
330
272
100
AcDbDictionary
280
     1
281
     1
  3
ACAD_XREC_ROUNDTRIP
360
36B
  3
BUMPTILE
360
24
  3
DIFFUSETILE
360
23
  3
OPACITYTILE
360
274
  3
REFLECTIONTILE
360
26
  3
REFRACTIONTILE
360
28
  3
SPECULARTILE
360
25
  0
DICTIONARY
  5
331
330
2F
100
AcDbDictionary
280
     1
281
     1
  3
ACAD_XREC_ROUNDTRIP
360
CA
  0
DICTIONARY
  5
332
330
31
100
AcDbDictionary
280
     1
281
     1
  3
ACAD_XREC_ROUNDTRIP
360
CE
  0
DICTIONARY
  5
333
330
30
100
AcDbDictionary
280
     1
281
     1
  3
ACAD_XREC_ROUNDTRIP
360
CC
  0
DICTIONARY
  5
334
330
2E
100
AcDbDictionary
280
     1
281
     1
  3
ACAD_XREC_ROUNDTRIP
360
C8
  0
DICTIONARY
  5
335
330
35
100
AcDbDictionary
280
     1
281
     1
  3
ACAD_XREC_ROUNDTRIP
360
D6
  0
DICTIONARY
  5
336
330
39
100
AcDbDictionary
280
     1
281
     1
  3
ACAD_XREC_ROUNDTRIP
360
DE
  0
DICTIONARY
  5
337
330
32
100
AcDbDictionary
280
     1
281
     1
  3
ACAD_XREC_ROUNDTRIP
360
D0
  0
DICTIONARY
  5
338
330
34
100
AcDbDictionary
280
     1
281
     1
  3
ACAD_XREC_ROUNDTRIP
360
D4
  0
DICTIONARY
  5
339
330
3C
100
AcDbDictionary
280
     1
281
     1
  3
ACAD_XREC_ROUNDTRIP
360
E4
  0
DICTIONARY
  5
33A
330
38
100
AcDbDictionary
280
     1
281
     1
  3
ACAD_XREC_ROUNDTRIP
360
DC
  0
DICTIONARY
  5
33B
330
2A
100
AcDbDictionary
280
     1
281
     1
  3
ACAD_XREC_ROUNDTRIP
360
C0
  0
DICTIONARY
  5
33C
330
2B
100
AcDbDictionary
280
     1
281
     1
  3
ACAD_XREC_ROUNDTRIP
360
C2
  0
DICTIONARY
  5
33D
330
2C
100
AcDbDictionary
280
     1
281
     1
  3
ACAD_XREC_ROUNDTRIP
360
C4
  0
DICTIONARY
  5
33E
330
2D
100
AcDbDictionary
280
     1
281
     1
  3
ACAD_XREC_ROUNDTRIP
360
C6
  0
DICTIONARY
  5
33F
330
3A
100
AcDbDictionary
280
     1
281
     1
  3
ACAD_XREC_ROUNDTRIP
360
E0
  0
DICTIONARY
  5
340
330
37
100
AcDbDictionary
280
     1
281
     1
  3
ACAD_XREC_ROUNDTRIP
360
DA
  0
DICTIONARY
  5
341
330
3B
100
AcDbDictionary
280
     1
281
     1
  3
ACAD_XREC_ROUNDTRIP
360
E2
  0
DICTIONARY
  5
342
330
33
100
AcDbDictionary
280
     1
281
     1
  3
ACAD_XREC_ROUNDTRIP
360
D2
  0
DICTIONARY
  5
343
330
36
100
AcDbDictionary
280
     1
281
     1
  3
ACAD_XREC_ROUNDTRIP
360
D8
  0
XRECORD
  5
369
102
{ACAD_REACTORS
330
32D
102
}
330
32D
100
AcDbXrecord
280
     1
102
MATERIAL
148
0.0
149
0.0
149
0.0
 93
        0
 94
      127
282
     0
 72
     0
 77
     0
171
     0
175
     0
179
     0
273
     0
  0
XRECORD
  5
1C
102
{ACAD_REACTORS
330
32D
102
}
330
32D
100
AcDbXrecord
280
     1
270
     1
271
     1
  0
XRECORD
  5
1B
102
{ACAD_REACTORS
330
32D
102
}
330
32D
100
AcDbXrecord
280
     1
270
     1
271
     1
  0
XRECORD
  5
269
102
{ACAD_REACTORS
330
32D
102
}
330
32D
100
AcDbXrecord
280
     1
270
     1
271
     1
  0
XRECORD
  5
1E
102
{ACAD_REACTORS
330
32D
102
}
330
32D
100
AcDbXrecord
280
     1
270
     1
271
     1
  0
XRECORD
  5
26A
102
{ACAD_REACTORS
330
32D
102
}
330
32D
100
AcDbXrecord
280
     1
270
     1
271
     1
  0
XRECORD
  5
1D
102
{ACAD_REACTORS
330
32D
102
}
330
32D
100
AcDbXrecord
280
     1
270
     1
271
     1
  0
XRECORD
  5
36A
102
{ACAD_REACTORS
330
32E
102
}
330
32E
100
AcDbXrecord
280
     1
102
MATERIAL
148
0.0
149
0.0
149
0.0
 93
        0
 94
      127
282
     0
 72
     0
 77
     0
171
     0
175
     0
179
     0
273
     0
  0
XRECORD
  5
26D
102
{ACAD_REACTORS
330
32E
102
}
330
32E
100
AcDbXrecord
280
     1
270
     1
271
     1
  0
XRECORD
  5
13
102
{ACAD_REACTORS
330
32E
102
}
330
32E
100
AcDbXrecord
280
     1
270
     1
271
     1
  0
XRECORD
  5
26E
102
{ACAD_REACTORS
330
32E
102
}
330
32E
100
AcDbXrecord
280
     1
270
     1
271
     1
  0
XRECORD
  5
26F
102
{ACAD_REACTORS
330
32E
102
}
330
32E
100
AcDbXrecord
280
     1
270
     1
271
     1
  0
XRECORD
  5
270
102
{ACAD_REACTORS
330
32E
102
}
330
32E
100
AcDbXrecord
280
     1
270
     1
271
     1
  0
XRECORD
  5
271
102
{ACAD_REACTORS
330
32E
102
}
330
32E
100
AcDbXrecord
280
     1
270
     1
271
     1
  0
XRECORD
  5
36B
102
{ACAD_REACTORS
330
32F
102
}
330
32F
100
AcDbXrecord
280
     1
102
MATERIAL
148
0.0
149
0.0
149
0.0
 93
        0
 94
      127
282
     0
 72
     0
 77
     0
171
     0
175
     0
179
     0
273
     0
  0
XRECORD
  5
24
102
{ACAD_REACTORS
330
32F
102
}
330
32F
100
AcDbXrecord
280
     1
270
     1
271
     1
  0
XRECORD
  5
23
102
{ACAD_REACTORS
330
32F
102
}
330
32F
100
AcDbXrecord
280
     1
270
     1
271
     1
  0
XRECORD
  5
274
102
{ACAD_REACTORS
330
32F
102
}
330
32F
100
AcDbXrecord
280
     1
270
     1
271
     1
  0
XRECORD
  5
26
102
{ACAD_REACTORS
330
32F
102
}
330
32F
100
AcDbXrecord
280
     1
270
     1
271
     1
  0
XRECORD
  5
28
102
{ACAD_REACTORS
330
32F
102
}
330
32F
100
AcDbXrecord
280
     1
270
     1
271
     1
  0
XRECORD
  5
25
102
{ACAD_REACTORS
330
32F
102
}
330
32F
100
AcDbXrecord
280
     1
270
     1
271
     1
  0
XRECORD
  5
CA
102
{ACAD_REACTORS
330
331
102
}
330
331
100
AcDbXrecord
280
     1
102
RTVSPropertyOp0
 70
     1
102
RTVSPropertyOp1
 70
     1
102
RTVSPropertyOp2
 70
     1
102
RTVSPropertyOp3
 70
     1
102
RTVSPropertyOp4
 70
     1
102
RTVSPropertyOp5
 70
     1
102
RTVSPropertyOp6
 70
     1
102
RTVSPropertyOp7
 70
     1
102
RTVSPropertyOp8
 70
     1
102
RTVSPropertyOp9
 70
     1
102
RTVSPropertyOp10
 70
     1
102
RTVSPropertyOp11
 70
     1
102
RTVSPropertyOp12
 70
     1
102
RTVSPropertyOp13
 70
     1
102
RTVSPropertyOp14
 70
     1
102
RTVSPropertyOp15
 70
     1
102
RTVSPropertyOp16
 70
     1
102
RTVSPropertyOp17
 70
     1
102
RTVSPropertyOp18
 70
     1
102
RTVSPropertyOp19
 70
     1
102
RTVSPropertyOp20
 70
     1
102
RTVSPropertyOp21
 70
     1
102
RTVSPropertyOp22
 70
     1
102
RTVSPropertyOp23
 70
     1
102
RTVSPropertyOp24
 70
     1
102
RTVSPropertyOp25
 70
     1
102
RTVSPropertyOp26
 70
     1
102
RTVSPropertyOp27
 70
     1
  0
XRECORD
  5
CE
102
{ACAD_REACTORS
330
332
102
}
330
332
100
AcDbXrecord
280
     1
102
RTVSPropertyOp0
 70
     1
102
RTVSPropertyOp1
 70
     1
102
RTVSPropertyOp2
 70
     1
102
RTVSPropertyOp3
 70
     1
102
RTVSPropertyOp4
 70
     1
102
RTVSPropertyOp5
 70
     1
102
RTVSPropertyOp6
 70
     1
102
RTVSPropertyOp7
 70
     1
102
RTVSPropertyOp8
 70
     1
102
RTVSPropertyOp9
 70
     1
102
RTVSPropertyOp10
 70
     1
102
RTVSPropertyOp11
 70
     1
102
RTVSPropertyOp12
 70
     1
102
RTVSPropertyOp13
 70
     1
102
RTVSPropertyOp14
 70
     1
102
RTVSPropertyOp15
 70
     1
102
RTVSPropertyOp16
 70
     1
102
RTVSPropertyOp17
 70
     1
102
RTVSPropertyOp18
 70
     1
102
RTVSPropertyOp19
 70
     1
102
RTVSPropertyOp20
 70
     1
102
RTVSPropertyOp21
 70
     1
102
RTVSPropertyOp22
 70
     1
102
RTVSPropertyOp23
 70
     1
102
RTVSPropertyOp24
 70
     1
102
RTVSPropertyOp25
 70
     1
102
RTVSPropertyOp26
 70
     1
102
RTVSPropertyOp27
 70
     1
  0
XRECORD
  5
CC
102
{ACAD_REACTORS
330
333
102
}
330
333
100
AcDbXrecord
280
     1
102
RTVSPropertyOp0
 70
     1
102
RTVSPropertyOp1
 70
     1
102
RTVSPropertyOp2
 70
     1
102
RTVSPropertyOp3
 70
     1
102
RTVSPropertyOp4
 70
     1
102
RTVSPropertyOp5
 70
     1
102
RTVSPropertyOp6
 70
     1
102
RTVSPropertyOp7
 70
     1
102
RTVSPropertyOp8
 70
     1
102
RTVSPropertyOp9
 70
     1
102
RTVSPropertyOp10
 70
     1
102
RTVSPropertyOp11
 70
     1
102
RTVSPropertyOp12
 70
     1
102
RTVSPropertyOp13
 70
     1
102
RTVSPropertyOp14
 70
     1
102
RTVSPropertyOp15
 70
     1
102
RTVSPropertyOp16
 70
     1
102
RTVSPropertyOp17
 70
     1
102
RTVSPropertyOp18
 70
     1
102
RTVSPropertyOp19
 70
     1
102
RTVSPropertyOp20
 70
     1
102
RTVSPropertyOp21
 70
     1
102
RTVSPropertyOp22
 70
     1
102
RTVSPropertyOp23
 70
     1
102
RTVSPropertyOp24
 70
     1
102
RTVSPropertyOp25
 70
     1
102
RTVSPropertyOp26
 70
     1
102
RTVSPropertyOp27
 70
     1
  0
XRECORD
  5
C8
102
{ACAD_REACTORS
330
334
102
}
330
334
100
AcDbXrecord
280
     1
102
RTVSPropertyOp0
 70
     1
102
RTVSPropertyOp1
 70
     1
102
RTVSPropertyOp2
 70
     1
102
RTVSPropertyOp3
 70
     1
102
RTVSPropertyOp4
 70
     1
102
RTVSPropertyOp5
 70
     1
102
RTVSPropertyOp6
 70
     1
102
RTVSPropertyOp7
 70
     1
102
RTVSPropertyOp8
 70
     1
102
RTVSPropertyOp9
 70
     1
102
RTVSPropertyOp10
 70
     1
102
RTVSPropertyOp11
 70
     1
102
RTVSPropertyOp12
 70
     1
102
RTVSPropertyOp13
 70
     1
102
RTVSPropertyOp14
 70
     1
102
RTVSPropertyOp15
 70
     1
102
RTVSPropertyOp16
 70
     1
102
RTVSPropertyOp17
 70
     1
102
RTVSPropertyOp18
 70
     1
102
RTVSPropertyOp19
 70
     1
102
RTVSPropertyOp20
 70
     1
102
RTVSPropertyOp21
 70
     1
102
RTVSPropertyOp22
 70
     1
102
RTVSPropertyOp23
 70
     1
102
RTVSPropertyOp24
 70
     1
102
RTVSPropertyOp25
 70
     1
102
RTVSPropertyOp26
 70
     1
102
RTVSPropertyOp27
 70
     1
  0
XRECORD
  5
D6
102
{ACAD_REACTORS
330
335
102
}
330
335
100
AcDbXrecord
280
     1
102
RTVSPropertyOp0
 70
     1
102
RTVSPropertyOp1
 70
     1
102
RTVSPropertyOp2
 70
     1
102
RTVSPropertyOp3
 70
     1
102
RTVSPropertyOp4
 70
     1
102
RTVSPropertyOp5
 70
     1
102
RTVSPropertyOp6
 70
     1
102
RTVSPropertyOp7
 70
     1
102
RTVSPropertyOp8
 70
     1
102
RTVSPropertyOp9
 70
     1
102
RTVSPropertyOp10
 70
     1
102
RTVSPropertyOp11
 70
     1
102
RTVSPropertyOp12
 70
     1
102
RTVSPropertyOp13
 70
     1
102
RTVSPropertyOp14
 70
     1
102
RTVSPropertyOp15
 70
     1
102
RTVSPropertyOp16
 70
     1
102
RTVSPropertyOp17
 70
     1
102
RTVSPropertyOp18
 70
     1
102
RTVSPropertyOp19
 70
     1
102
RTVSPropertyOp20
 70
     1
102
RTVSPropertyOp21
 70
     1
102
RTVSPropertyOp22
 70
     1
102
RTVSPropertyOp23
 70
     1
102
RTVSPropertyOp24
 70
     1
102
RTVSPropertyOp25
 70
     1
102
RTVSPropertyOp26
 70
     1
102
RTVSPropertyOp27
 70
     1
  0
XRECORD
  5
DE
102
{ACAD_REACTORS
330
336
102
}
330
336
100
AcDbXrecord
280
     1
102
RTVSPropertyOp0
 70
     1
102
RTVSPropertyOp1
 70
     1
102
RTVSPropertyOp2
 70
     1
102
RTVSPropertyOp3
 70
     1
102
RTVSPropertyOp4
 70
     1
102
RTVSPropertyOp5
 70
     1
102
RTVSPropertyOp6
 70
     1
102
RTVSPropertyOp7
 70
     1
102
RTVSPropertyOp8
 70
     1
102
RTVSPropertyOp9
 70
     1
102
RTVSPropertyOp10
 70
     1
102
RTVSPropertyOp11
 70
     1
102
RTVSPropertyOp12
 70
     1
102
RTVSPropertyOp13
 70
     1
102
RTVSPropertyOp14
 70
     1
102
RTVSPropertyOp15
 70
     1
102
RTVSPropertyOp16
 70
     1
102
RTVSPropertyOp17
 70
     1
102
RTVSPropertyOp18
 70
     1
102
RTVSPropertyOp19
 70
     1
102
RTVSPropertyOp20
 70
     1
102
RTVSPropertyOp21
 70
     1
102
RTVSPropertyOp22
 70
     1
102
RTVSPropertyOp23
 70
     1
102
RTVSPropertyOp24
 70
     1
102
RTVSPropertyOp25
 70
     1
102
RTVSPropertyOp26
 70
     1
102
RTVSPropertyOp27
 70
     1
  0
XRECORD
  5
D0
102
{ACAD_REACTORS
330
337
102
}
330
337
100
AcDbXrecord
280
     1
102
RTVSPropertyOp0
 70
     1
102
RTVSPropertyOp1
 70
     1
102
RTVSPropertyOp2
 70
     1
102
RTVSPropertyOp3
 70
     1
102
RTVSPropertyOp4
 70
     1
102
RTVSPropertyOp5
 70
     1
102
RTVSPropertyOp6
 70
     1
102
RTVSPropertyOp7
 70
     1
102
RTVSPropertyOp8
 70
     1
102
RTVSPropertyOp9
 70
     1
102
RTVSPropertyOp10
 70
     1
102
RTVSPropertyOp11
 70
     1
102
RTVSPropertyOp12
 70
     1
102
RTVSPropertyOp13
 70
     1
102
RTVSPropertyOp14
 70
     1
102
RTVSPropertyOp15
 70
     1
102
RTVSPropertyOp16
 70
     1
102
RTVSPropertyOp17
 70
     1
102
RTVSPropertyOp18
 70
     1
102
RTVSPropertyOp19
 70
     1
102
RTVSPropertyOp20
 70
     1
102
RTVSPropertyOp21
 70
     1
102
RTVSPropertyOp22
 70
     1
102
RTVSPropertyOp23
 70
     1
102
RTVSPropertyOp24
 70
     1
102
RTVSPropertyOp25
 70
     1
102
RTVSPropertyOp26
 70
     1
102
RTVSPropertyOp27
 70
     1
  0
XRECORD
  5
D4
102
{ACAD_REACTORS
330
338
102
}
330
338
100
AcDbXrecord
280
     1
102
RTVSPropertyOp0
 70
     1
102
RTVSPropertyOp1
 70
     1
102
RTVSPropertyOp2
 70
     1
102
RTVSPropertyOp3
 70
     1
102
RTVSPropertyOp4
 70
     1
102
RTVSPropertyOp5
 70
     1
102
RTVSPropertyOp6
 70
     1
102
RTVSPropertyOp7
 70
     1
102
RTVSPropertyOp8
 70
     1
102
RTVSPropertyOp9
 70
     1
102
RTVSPropertyOp10
 70
     1
102
RTVSPropertyOp11
 70
     1
102
RTVSPropertyOp12
 70
     1
102
RTVSPropertyOp13
 70
     1
102
RTVSPropertyOp14
 70
     1
102
RTVSPropertyOp15
 70
     1
102
RTVSPropertyOp16
 70
     1
102
RTVSPropertyOp17
 70
     1
102
RTVSPropertyOp18
 70
     1
102
RTVSPropertyOp19
 70
     1
102
RTVSPropertyOp20
 70
     1
102
RTVSPropertyOp21
 70
     1
102
RTVSPropertyOp22
 70
     1
102
RTVSPropertyOp23
 70
     1
102
RTVSPropertyOp24
 70
     1
102
RTVSPropertyOp25
 70
     1
102
RTVSPropertyOp26
 70
     1
102
RTVSPropertyOp27
 70
     1
  0
XRECORD
  5
E4
102
{ACAD_REACTORS
330
339
102
}
330
339
100
AcDbXrecord
280
     1
102
RTVSPropertyOp0
 70
     0
102
RTVSPropertyOp1
 70
     0
102
RTVSPropertyOp2
 70
     0
102
RTVSPropertyOp3
 70
     0
102
RTVSPropertyOp4
 70
     0
102
RTVSPropertyOp5
 70
     0
102
RTVSPropertyOp6
 70
     0
102
RTVSPropertyOp7
 70
     0
102
RTVSPropertyOp8
 70
     0
102
RTVSPropertyOp9
 70
     0
102
RTVSPropertyOp10
 70
     0
102
RTVSPropertyOp11
 70
     0
102
RTVSPropertyOp12
 70
     0
102
RTVSPropertyOp13
 70
     0
102
RTVSPropertyOp14
 70
     2
102
RTVSPropertyOp15
 70
     0
102
RTVSPropertyOp16
 70
     0
102
RTVSPropertyOp17
 70
     0
102
RTVSPropertyOp18
 70
     0
102
RTVSPropertyOp19
 70
     0
102
RTVSPropertyOp20
 70
     0
102
RTVSPropertyOp21
 70
     0
102
RTVSPropertyOp22
 70
     0
102
RTVSPropertyOp23
 70
     0
102
RTVSPropertyOp24
 70
     0
102
RTVSPropertyOp25
 70
     0
102
RTVSPropertyOp26
 70
     0
102
RTVSPropertyOp27
 70
     0
  0
XRECORD
  5
DC
102
{ACAD_REACTORS
330
33A
102
}
330
33A
100
AcDbXrecord
280
     1
102
RTVSPropertyOp0
 70
     1
102
RTVSPropertyOp1
 70
     1
102
RTVSPropertyOp2
 70
     1
102
RTVSPropertyOp3
 70
     1
102
RTVSPropertyOp4
 70
     1
102
RTVSPropertyOp5
 70
     1
102
RTVSPropertyOp6
 70
     1
102
RTVSPropertyOp7
 70
     1
102
RTVSPropertyOp8
 70
     1
102
RTVSPropertyOp9
 70
     1
102
RTVSPropertyOp10
 70
     1
102
RTVSPropertyOp11
 70
     1
102
RTVSPropertyOp12
 70
     1
102
RTVSPropertyOp13
 70
     1
102
RTVSPropertyOp14
 70
     1
102
RTVSPropertyOp15
 70
     1
102
RTVSPropertyOp16
 70
     1
102
RTVSPropertyOp17
 70
     1
102
RTVSPropertyOp18
 70
     1
102
RTVSPropertyOp19
 70
     1
102
RTVSPropertyOp20
 70
     1
102
RTVSPropertyOp21
 70
     1
102
RTVSPropertyOp22
 70
     1
102
RTVSPropertyOp23
 70
     1
102
RTVSPropertyOp24
 70
     1
102
RTVSPropertyOp25
 70
     1
102
RTVSPropertyOp26
 70
     1
102
RTVSPropertyOp27
 70
     1
  0
XRECORD
  5
C0
102
{ACAD_REACTORS
330
33B
102
}
330
33B
100
AcDbXrecord
280
     1
102
RTVSPropertyOp0
 70
     1
102
RTVSPropertyOp1
 70
     1
102
RTVSPropertyOp2
 70
     1
102
RTVSPropertyOp3
 70
     1
102
RTVSPropertyOp4
 70
     1
102
RTVSPropertyOp5
 70
     1
102
RTVSPropertyOp6
 70
     1
102
RTVSPropertyOp7
 70
     1
102
RTVSPropertyOp8
 70
     1
102
RTVSPropertyOp9
 70
     1
102
RTVSPropertyOp10
 70
     1
102
RTVSPropertyOp11
 70
     1
102
RTVSPropertyOp12
 70
     1
102
RTVSPropertyOp13
 70
     1
102
RTVSPropertyOp14
 70
     1
102
RTVSPropertyOp15
 70
     1
102
RTVSPropertyOp16
 70
     1
102
RTVSPropertyOp17
 70
     1
102
RTVSPropertyOp18
 70
     1
102
RTVSPropertyOp19
 70
     1
102
RTVSPropertyOp20
 70
     1
102
RTVSPropertyOp21
 70
     1
102
RTVSPropertyOp22
 70
     1
102
RTVSPropertyOp23
 70
     1
102
RTVSPropertyOp24
 70
     1
102
RTVSPropertyOp25
 70
     1
102
RTVSPropertyOp26
 70
     1
102
RTVSPropertyOp27
 70
     1
  0
XRECORD
  5
C2
102
{ACAD_REACTORS
330
33C
102
}
330
33C
100
AcDbXrecord
280
     1
102
RTVSPropertyOp0
 70
     1
102
RTVSPropertyOp1
 70
     1
102
RTVSPropertyOp2
 70
     1
102
RTVSPropertyOp3
 70
     1
102
RTVSPropertyOp4
 70
     1
102
RTVSPropertyOp5
 70
     1
102
RTVSPropertyOp6
 70
     1
102
RTVSPropertyOp7
 70
     1
102
RTVSPropertyOp8
 70
     1
102
RTVSPropertyOp9
 70
     1
102
RTVSPropertyOp10
 70
     1
102
RTVSPropertyOp11
 70
     1
102
RTVSPropertyOp12
 70
     1
102
RTVSPropertyOp13
 70
     1
102
RTVSPropertyOp14
 70
     1
102
RTVSPropertyOp15
 70
     1
102
RTVSPropertyOp16
 70
     1
102
RTVSPropertyOp17
 70
     1
102
RTVSPropertyOp18
 70
     1
102
RTVSPropertyOp19
 70
     1
102
RTVSPropertyOp20
 70
     1
102
RTVSPropertyOp21
 70
     1
102
RTVSPropertyOp22
 70
     1
102
RTVSPropertyOp23
 70
     1
102
RTVSPropertyOp24
 70
     1
102
RTVSPropertyOp25
 70
     1
102
RTVSPropertyOp26
 70
     1
102
RTVSPropertyOp27
 70
     1
  0
XRECORD
  5
C4
102
{ACAD_REACTORS
330
33D
102
}
330
33D
100
AcDbXrecord
280
     1
102
RTVSPropertyOp0
 70
     1
102
RTVSPropertyOp1
 70
     1
102
RTVSPropertyOp2
 70
     1
102
RTVSPropertyOp3
 70
     1
102
RTVSPropertyOp4
 70
     1
102
RTVSPropertyOp5
 70
     1
102
RTVSPropertyOp6
 70
     1
102
RTVSPropertyOp7
 70
     1
102
RTVSPropertyOp8
 70
     1
102
RTVSPropertyOp9
 70
     1
102
RTVSPropertyOp10
 70
     1
102
RTVSPropertyOp11
 70
     1
102
RTVSPropertyOp12
 70
     1
102
RTVSPropertyOp13
 70
     1
102
RTVSPropertyOp14
 70
     1
102
RTVSPropertyOp15
 70
     1
102
RTVSPropertyOp16
 70
     1
102
RTVSPropertyOp17
 70
     1
102
RTVSPropertyOp18
 70
     1
102
RTVSPropertyOp19
 70
     1
102
RTVSPropertyOp20
 70
     1
102
RTVSPropertyOp21
 70
     1
102
RTVSPropertyOp22
 70
     1
102
RTVSPropertyOp23
 70
     1
102
RTVSPropertyOp24
 70
     1
102
RTVSPropertyOp25
 70
     1
102
RTVSPropertyOp26
 70
     1
102
RTVSPropertyOp27
 70
     1
  0
XRECORD
  5
C6
102
{ACAD_REACTORS
330
33E
102
}
330
33E
100
AcDbXrecord
280
     1
102
RTVSPropertyOp0
 70
     1
102
RTVSPropertyOp1
 70
     1
102
RTVSPropertyOp2
 70
     1
102
RTVSPropertyOp3
 70
     1
102
RTVSPropertyOp4
 70
     1
102
RTVSPropertyOp5
 70
     1
102
RTVSPropertyOp6
 70
     1
102
RTVSPropertyOp7
 70
     1
102
RTVSPropertyOp8
 70
     1
102
RTVSPropertyOp9
 70
     1
102
RTVSPropertyOp10
 70
     1
102
RTVSPropertyOp11
 70
     1
102
RTVSPropertyOp12
 70
     1
102
RTVSPropertyOp13
 70
     1
102
RTVSPropertyOp14
 70
     1
102
RTVSPropertyOp15
 70
     1
102
RTVSPropertyOp16
 70
     1
102
RTVSPropertyOp17
 70
     1
102
RTVSPropertyOp18
 70
     1
102
RTVSPropertyOp19
 70
     1
102
RTVSPropertyOp20
 70
     1
102
RTVSPropertyOp21
 70
     1
102
RTVSPropertyOp22
 70
     1
102
RTVSPropertyOp23
 70
     1
102
RTVSPropertyOp24
 70
     1
102
RTVSPropertyOp25
 70
     1
102
RTVSPropertyOp26
 70
     1
102
RTVSPropertyOp27
 70
     1
  0
XRECORD
  5
E0
102
{ACAD_REACTORS
330
33F
102
}
330
33F
100
AcDbXrecord
280
     1
102
RTVSPropertyOp0
 70
     0
102
RTVSPropertyOp1
 70
     0
102
RTVSPropertyOp2
 70
     0
102
RTVSPropertyOp3
 70
     0
102
RTVSPropertyOp4
 70
     0
102
RTVSPropertyOp5
 70
     0
102
RTVSPropertyOp6
 70
     0
102
RTVSPropertyOp7
 70
     0
102
RTVSPropertyOp8
 70
     0
102
RTVSPropertyOp9
 70
     0
102
RTVSPropertyOp10
 70
     0
102
RTVSPropertyOp11
 70
     0
102
RTVSPropertyOp12
 70
     0
102
RTVSPropertyOp13
 70
     0
102
RTVSPropertyOp14
 70
     2
102
RTVSPropertyOp15
 70
     0
102
RTVSPropertyOp16
 70
     0
102
RTVSPropertyOp17
 70
     0
102
RTVSPropertyOp18
 70
     0
102
RTVSPropertyOp19
 70
     0
102
RTVSPropertyOp20
 70
     0
102
RTVSPropertyOp21
 70
     0
102
RTVSPropertyOp22
 70
     0
102
RTVSPropertyOp23
 70
     0
102
RTVSPropertyOp24
 70
     0
102
RTVSPropertyOp25
 70
     0
102
RTVSPropertyOp26
 70
     0
102
RTVSPropertyOp27
 70
     0
  0
XRECORD
  5
DA
102
{ACAD_REACTORS
330
340
102
}
330
340
100
AcDbXrecord
280
     1
102
RTVSPropertyOp0
 70
     1
102
RTVSPropertyOp1
 70
     1
102
RTVSPropertyOp2
 70
     1
102
RTVSPropertyOp3
 70
     1
102
RTVSPropertyOp4
 70
     1
102
RTVSPropertyOp5
 70
     1
102
RTVSPropertyOp6
 70
     1
102
RTVSPropertyOp7
 70
     1
102
RTVSPropertyOp8
 70
     1
102
RTVSPropertyOp9
 70
     1
102
RTVSPropertyOp10
 70
     1
102
RTVSPropertyOp11
 70
     1
102
RTVSPropertyOp12
 70
     1
102
RTVSPropertyOp13
 70
     1
102
RTVSPropertyOp14
 70
     1
102
RTVSPropertyOp15
 70
     1
102
RTVSPropertyOp16
 70
     1
102
RTVSPropertyOp17
 70
     1
102
RTVSPropertyOp18
 70
     1
102
RTVSPropertyOp19
 70
     1
102
RTVSPropertyOp20
 70
     1
102
RTVSPropertyOp21
 70
     1
102
RTVSPropertyOp22
 70
     1
102
RTVSPropertyOp23
 70
     1
102
RTVSPropertyOp24
 70
     1
102
RTVSPropertyOp25
 70
     1
102
RTVSPropertyOp26
 70
     1
102
RTVSPropertyOp27
 70
     1
  0
XRECORD
  5
E2
102
{ACAD_REACTORS
330
341
102
}
330
341
100
AcDbXrecord
280
     1
102
RTVSPropertyOp0
 70
     0
102
RTVSPropertyOp1
 70
     0
102
RTVSPropertyOp2
 70
     0
102
RTVSPropertyOp3
 70
     0
102
RTVSPropertyOp4
 70
     0
102
RTVSPropertyOp5
 70
     0
102
RTVSPropertyOp6
 70
     0
102
RTVSPropertyOp7
 70
     0
102
RTVSPropertyOp8
 70
     0
102
RTVSPropertyOp9
 70
     0
102
RTVSPropertyOp10
 70
     0
102
RTVSPropertyOp11
 70
     0
102
RTVSPropertyOp12
 70
     0
102
RTVSPropertyOp13
 70
     0
102
RTVSPropertyOp14
 70
     2
102
RTVSPropertyOp15
 70
     0
102
RTVSPropertyOp16
 70
     0
102
RTVSPropertyOp17
 70
     0
102
RTVSPropertyOp18
 70
     0
102
RTVSPropertyOp19
 70
     0
102
RTVSPropertyOp20
 70
     0
102
RTVSPropertyOp21
 70
     0
102
RTVSPropertyOp22
 70
     0
102
RTVSPropertyOp23
 70
     0
102
RTVSPropertyOp24
 70
     0
102
RTVSPropertyOp25
 70
     0
102
RTVSPropertyOp26
 70
     0
102
RTVSPropertyOp27
 70
     0
  0
XRECORD
  5
D2
102
{ACAD_REACTORS
330
342
102
}
330
342
100
AcDbXrecord
280
     1
102
RTVSPropertyOp0
 70
     1
102
RTVSPropertyOp1
 70
     1
102
RTVSPropertyOp2
 70
     1
102
RTVSPropertyOp3
 70
     1
102
RTVSPropertyOp4
 70
     1
102
RTVSPropertyOp5
 70
     1
102
RTVSPropertyOp6
 70
     1
102
RTVSPropertyOp7
 70
     1
102
RTVSPropertyOp8
 70
     1
102
RTVSPropertyOp9
 70
     1
102
RTVSPropertyOp10
 70
     1
102
RTVSPropertyOp11
 70
     1
102
RTVSPropertyOp12
 70
     1
102
RTVSPropertyOp13
 70
     1
102
RTVSPropertyOp14
 70
     1
102
RTVSPropertyOp15
 70
     1
102
RTVSPropertyOp16
 70
     1
102
RTVSPropertyOp17
 70
     1
102
RTVSPropertyOp18
 70
     1
102
RTVSPropertyOp19
 70
     1
102
RTVSPropertyOp20
 70
     1
102
RTVSPropertyOp21
 70
     1
102
RTVSPropertyOp22
 70
     1
102
RTVSPropertyOp23
 70
     1
102
RTVSPropertyOp24
 70
     1
102
RTVSPropertyOp25
 70
     1
102
RTVSPropertyOp26
 70
     1
102
RTVSPropertyOp27
 70
     1
  0
XRECORD
  5
D8
102
{ACAD_REACTORS
330
343
102
}
330
343
100
AcDbXrecord
280
     1
102
RTVSPropertyOp0
 70
     1
102
RTVSPropertyOp1
 70
     1
102
RTVSPropertyOp2
 70
     1
102
RTVSPropertyOp3
 70
     1
102
RTVSPropertyOp4
 70
     1
102
RTVSPropertyOp5
 70
     1
102
RTVSPropertyOp6
 70
     1
102
RTVSPropertyOp7
 70
     1
102
RTVSPropertyOp8
 70
     1
102
RTVSPropertyOp9
 70
     1
102
RTVSPropertyOp10
 70
     1
102
RTVSPropertyOp11
 70
     1
102
RTVSPropertyOp12
 70
     1
102
RTVSPropertyOp13
 70
     1
102
RTVSPropertyOp14
 70
     1
102
RTVSPropertyOp15
 70
     1
102
RTVSPropertyOp16
 70
     1
102
RTVSPropertyOp17
 70
     1
102
RTVSPropertyOp18
 70
     1
102
RTVSPropertyOp19
 70
     1
102
RTVSPropertyOp20
 70
     1
102
RTVSPropertyOp21
 70
     1
102
RTVSPropertyOp22
 70
     1
102
RTVSPropertyOp23
 70
     1
102
RTVSPropertyOp24
 70
     1
102
RTVSPropertyOp25
 70
     1
102
RTVSPropertyOp26
 70
     1
102
RTVSPropertyOp27
 70
     1
  0
ENDSEC
  0
EOF
