  0
SECTION
  2
HEADER
  9
$ACADVER
  1
AC1021
  9
$ACADMAINTVER
 70
     1
  9
$DWGCODEPAGE
  3
ANSI_1252
  9
$LASTSAVEDBY
  1
jardiel.mezzomo
  9
$INSBASE
 10
0.0
 20
0.0
 30
0.0
  9
$EXTMIN
 10
0.0030000000000427
 20
-49.00000000000003
 30
-0.0000000000000213
  9
$EXTMAX
 10
301.2130552571595
 20
0.0
 30
14.39999999999999
  9
$LIMMIN
 10
0.0
 20
0.0
  9
$LIMMAX
 10
420.0
 20
297.0
  9
$ORTHOMODE
 70
     1
  9
$REGENMODE
 70
     1
  9
$FILLMODE
 70
     1
  9
$QTEXTMODE
 70
     0
  9
$MIRRTEXT
 70
     0
  9
$LTSCALE
 40
1.0
  9
$ATTMODE
 70
     1
  9
$TEXTSIZE
 40
2.5
  9
$TRACEWID
 40
1.0
  9
$TEXTSTYLE
  7
Standard
  9
$CLAYER
  8
0
  9
$CELTYPE
  6
ByLayer
  9
$CECOLOR
 62
   256
  9
$CELTSCALE
 40
1.0
  9
$DISPSILH
 70
     0
  9
$DIMSCALE
 40
1.0
  9
$DIMASZ
 40
2.5
  9
$DIMEXO
 40
0.625
  9
$DIMDLI
 40
3.75
  9
$DIMRND
 40
0.0
  9
$DIMDLE
 40
0.0
  9
$DIMEXE
 40
1.25
  9
$DIMTP
 40
0.0
  9
$DIMTM
 40
0.0
  9
$DIMTXT
 40
2.5
  9
$DIMCEN
 40
2.5
  9
$DIMTSZ
 40
0.0
  9
$DIMTOL
 70
     0
  9
$DIMLIM
 70
     0
  9
$DIMTIH
 70
     0
  9
$DIMTOH
 70
     0
  9
$DIMSE1
 70
     0
  9
$DIMSE2
 70
     0
  9
$DIMTAD
 70
     1
  9
$DIMZIN
 70
     8
  9
$DIMBLK
  1

  9
$DIMASO
 70
     1
  9
$DIMSHO
 70
     1
  9
$DIMPOST
  1

  9
$DIMAPOST
  1

  9
$DIMALT
 70
     0
  9
$DIMALTD
 70
     3
  9
$DIMALTF
 40
0.03937007874016
  9
$DIMLFAC
 40
1.0
  9
$DIMTOFL
 70
     1
  9
$DIMTVP
 40
0.0
  9
$DIMTIX
 70
     0
  9
$DIMSOXD
 70
     0
  9
$DIMSAH
 70
     0
  9
$DIMBLK1
  1

  9
$DIMBLK2
  1

  9
$DIMSTYLE
  2
ISO-25
  9
$DIMCLRD
 70
     0
  9
$DIMCLRE
 70
     0
  9
$DIMCLRT
 70
     0
  9
$DIMTFAC
 40
1.0
  9
$DIMGAP
 40
0.625
  9
$DIMJUST
 70
     0
  9
$DIMSD1
 70
     0
  9
$DIMSD2
 70
     0
  9
$DIMTOLJ
 70
     0
  9
$DIMTZIN
 70
     8
  9
$DIMALTZ
 70
     0
  9
$DIMALTTZ
 70
     0
  9
$DIMUPT
 70
     0
  9
$DIMDEC
 70
     2
  9
$DIMTDEC
 70
     2
  9
$DIMALTU
 70
     2
  9
$DIMALTTD
 70
     3
  9
$DIMTXSTY
  7
Standard
  9
$DIMAUNIT
 70
     0
  9
$DIMADEC
 70
     0
  9
$DIMALTRND
 40
0.0
  9
$DIMAZIN
 70
     0
  9
$DIMDSEP
 70
    44
  9
$DIMATFIT
 70
     3
  9
$DIMFRAC
 70
     0
  9
$DIMLDRBLK
  1

  9
$DIMLUNIT
 70
     2
  9
$DIMLWD
 70
    -2
  9
$DIMLWE
 70
    -2
  9
$DIMTMOVE
 70
     0
  9
$DIMFXL
 40
1.0
  9
$DIMFXLON
 70
     0
  9
$DIMJOGANG
 40
0.7853981633974483
  9
$DIMTFILL
 70
     0
  9
$DIMTFILLCLR
 70
     0
  9
$DIMARCSYM
 70
     0
  9
$DIMLTYPE
  6

  9
$DIMLTEX1
  6

  9
$DIMLTEX2
  6

  9
$LUNITS
 70
     2
  9
$LUPREC
 70
     4
  9
$SKETCHINC
 40
1.0
  9
$FILLETRAD
 40
0.0
  9
$AUNITS
 70
     0
  9
$AUPREC
 70
     0
  9
$MENU
  1
.
  9
$ELEVATION
 40
0.0
  9
$PELEVATION
 40
0.0
  9
$THICKNESS
 40
0.0
  9
$LIMCHECK
 70
     0
  9
$CHAMFERA
 40
0.0
  9
$CHAMFERB
 40
0.0
  9
$CHAMFERC
 40
0.0
  9
$CHAMFERD
 40
0.0
  9
$SKPOLY
 70
     0
  9
$TDCREATE
 40
2456191.246581540
  9
$TDUCREATE
 40
2456191.329914873
  9
$TDUPDATE
 40
2456680.590620602
  9
$TDUUPDATE
 40
2456680.673953935
  9
$TDINDWG
 40
0.0242614120
  9
$TDUSRTIMER
 40
0.0242612500
  9
$USRTIMER
 70
     1
  9
$ANGBASE
 50
0.0
  9
$ANGDIR
 70
     0
  9
$PDMODE
 70
     0
  9
$PDSIZE
 40
0.0
  9
$PLINEWID
 40
0.0
  9
$SPLFRAME
 70
     0
  9
$SPLINETYPE
 70
     6
  9
$SPLINESEGS
 70
     8
  9
$HANDSEED
  5
3EF
  9
$SURFTAB1
 70
     6
  9
$SURFTAB2
 70
     6
  9
$SURFTYPE
 70
     6
  9
$SURFU
 70
     6
  9
$SURFV
 70
     6
  9
$UCSBASE
  2

  9
$UCSNAME
  2

  9
$UCSORG
 10
0.0
 20
0.0
 30
0.0
  9
$UCSXDIR
 10
1.0
 20
0.0
 30
0.0
  9
$UCSYDIR
 10
0.0
 20
1.0
 30
0.0
  9
$UCSORTHOREF
  2

  9
$UCSORTHOVIEW
 70
     1
  9
$UCSORGTOP
 10
0.0
 20
0.0
 30
0.0
  9
$UCSORGBOTTOM
 10
0.0
 20
0.0
 30
0.0
  9
$UCSORGLEFT
 10
0.0
 20
0.0
 30
0.0
  9
$UCSORGRIGHT
 10
0.0
 20
0.0
 30
0.0
  9
$UCSORGFRONT
 10
0.0
 20
0.0
 30
0.0
  9
$UCSORGBACK
 10
0.0
 20
0.0
 30
0.0
  9
$PUCSBASE
  2

  9
$PUCSNAME
  2

  9
$PUCSORG
 10
0.0
 20
0.0
 30
0.0
  9
$PUCSXDIR
 10
1.0
 20
0.0
 30
0.0
  9
$PUCSYDIR
 10
0.0
 20
1.0
 30
0.0
  9
$PUCSORTHOREF
  2

  9
$PUCSORTHOVIEW
 70
     0
  9
$PUCSORGTOP
 10
0.0
 20
0.0
 30
0.0
  9
$PUCSORGBOTTOM
 10
0.0
 20
0.0
 30
0.0
  9
$PUCSORGLEFT
 10
0.0
 20
0.0
 30
0.0
  9
$PUCSORGRIGHT
 10
0.0
 20
0.0
 30
0.0
  9
$PUCSORGFRONT
 10
0.0
 20
0.0
 30
0.0
  9
$PUCSORGBACK
 10
0.0
 20
0.0
 30
0.0
  9
$USERI1
 70
     0
  9
$USERI2
 70
     0
  9
$USERI3
 70
     0
  9
$USERI4
 70
     0
  9
$USERI5
 70
     0
  9
$USERR1
 40
0.0
  9
$USERR2
 40
0.0
  9
$USERR3
 40
0.0
  9
$USERR4
 40
0.0
  9
$USERR5
 40
0.0
  9
$WORLDVIEW
 70
     1
  9
$SHADEDGE
 70
     3
  9
$SHADEDIF
 70
    70
  9
$TILEMODE
 70
     1
  9
$MAXACTVP
 70
    64
  9
$PINSBASE
 10
0.0
 20
0.0
 30
0.0
  9
$PLIMCHECK
 70
     0
  9
$PEXTMIN
 10
1.000000000000000E+20
 20
1.000000000000000E+20
 30
1.000000000000000E+20
  9
$PEXTMAX
 10
-1.000000000000000E+20
 20
-1.000000000000000E+20
 30
-1.000000000000000E+20
  9
$PLIMMIN
 10
0.0
 20
0.0
  9
$PLIMMAX
 10
420.0
 20
297.0
  9
$UNITMODE
 70
     0
  9
$VISRETAIN
 70
     1
  9
$PLINEGEN
 70
     0
  9
$PSLTSCALE
 70
     1
  9
$TREEDEPTH
 70
  3020
  9
$CMLSTYLE
  2
Standard
  9
$CMLJUST
 70
     0
  9
$CMLSCALE
 40
20.0
  9
$PROXYGRAPHICS
 70
     1
  9
$MEASUREMENT
 70
     1
  9
$CELWEIGHT
370
    -1
  9
$ENDCAPS
280
     0
  9
$JOINSTYLE
280
     0
  9
$LWDISPLAY
290
     0
  9
$INSUNITS
 70
     4
  9
$HYPERLINKBASE
  1

  9
$STYLESHEET
  1

  9
$XEDIT
290
     1
  9
$CEPSNTYPE
380
     0
  9
$PSTYLEMODE
290
     1
  9
$FINGERPRINTGUID
  2
{58C31228-92BB-458F-8898-6A09BE462EF0}
  9
$VERSIONGUID
  2
{3998F9D4-1C57-4588-AE87-0DB3AE6CFFA4}
  9
$EXTNAMES
290
     1
  9
$PSVPSCALE
 40
0.0
  9
$OLESTARTUP
290
     0
  9
$SORTENTS
280
   127
  9
$INDEXCTL
280
     0
  9
$HIDETEXT
280
     1
  9
$XCLIPFRAME
290
     0
  9
$HALOGAP
280
     0
  9
$OBSCOLOR
 70
   257
  9
$OBSLTYPE
280
     0
  9
$INTERSECTIONDISPLAY
280
     0
  9
$INTERSECTIONCOLOR
 70
   257
  9
$DIMASSOC
280
     2
  9
$PROJECTNAME
  1

  9
$CAMERADISPLAY
290
     0
  9
$LENSLENGTH
 40
50.0
  9
$CAMERAHEIGHT
 40
0.0
  9
$STEPSPERSEC
 40
2.0
  9
$STEPSIZE
 40
6.0
  9
$3DDWFPREC
 40
2.0
  9
$PSOLWIDTH
 40
0.25
  9
$PSOLHEIGHT
 40
4.0
  9
$LOFTANG1
 40
1.570796326794896
  9
$LOFTANG2
 40
1.570796326794896
  9
$LOFTMAG1
 40
1.0
  9
$LOFTMAG2
 40
1.0
  9
$LOFTPARAM
 70
     7
  9
$LOFTNORMALS
280
     1
  9
$LATITUDE
 40
37.795
  9
$LONGITUDE
 40
-122.394
  9
$NORTHDIRECTION
 40
0.0
  9
$TIMEZONE
 70
 -8000
  9
$LIGHTGLYPHDISPLAY
280
     1
  9
$TILEMODELIGHTSYNCH
280
     1
  9
$CMATERIAL
347
2F7
  9
$SOLIDHIST
280
     1
  9
$SHOWHIST
280
     1
  9
$DWFFRAME
280
     0
  9
$DGNFRAME
280
     2
  9
$REALWORLDSCALE
290
     1
  9
$INTERFERECOLOR
 62
   256
  9
$INTERFEREOBJVS
345
33
  9
$INTERFEREVPVS
346
30
  9
$CSHADOW
280
     0
  9
$SHADOWPLANELOCATION
 40
0.0
  0
ENDSEC
  0
SECTION
  2
CLASSES
  0
CLASS
  1
ACDBDICTIONARYWDFLT
  2
AcDbDictionaryWithDefault
  3
ObjectDBX Classes
 90
        0
 91
        1
280
     0
281
     0
  0
CLASS
  1
ACDBPLACEHOLDER
  2
AcDbPlaceHolder
  3
ObjectDBX Classes
 90
        0
 91
        1
280
     0
281
     0
  0
CLASS
  1
LAYOUT
  2
AcDbLayout
  3
ObjectDBX Classes
 90
        0
 91
        3
280
     0
281
     0
  0
CLASS
  1
DICTIONARYVAR
  2
AcDbDictionaryVar
  3
ObjectDBX Classes
 90
        0
 91
       12
280
     0
281
     0
  0
CLASS
  1
TABLESTYLE
  2
AcDbTableStyle
  3
ObjectDBX Classes
 90
     4095
 91
        1
280
     0
281
     0
  0
CLASS
  1
MATERIAL
  2
AcDbMaterial
  3
ObjectDBX Classes
 90
     1024
 91
        3
280
     0
281
     0
  0
CLASS
  1
CELLSTYLEMAP
  2
AcDbCellStyleMap
  3
ObjectDBX Classes
 90
     1152
 91
        1
280
     1
281
     0
  0
CLASS
  1
MLEADERSTYLE
  2
AcDbMLeaderStyle
  3
ACDB_MLEADERSTYLE_CLASS
 90
     4095
 91
        1
280
     1
281
     0
  0
CLASS
  1
SCALE
  2
AcDbScale
  3
ObjectDBX Classes
 90
     1153
 91
       17
280
     1
281
     0
  0
CLASS
  1
VISUALSTYLE
  2
AcDbVisualStyle
  3
ObjectDBX Classes
 90
     4095
 91
       19
280
     0
281
     0
  0
CLASS
  1
SOLID_BACKGROUND
  2
AcDbSolidBackground
  3
SCENEOE
 90
     4095
 91
        0
280
     0
281
     0
  0
CLASS
  1
NPOCOLLECTION
  2
AcDbImpNonPersistentObjectsCollection
  3
ObjectDBX Classes
 90
     1153
 91
        0
280
     0
281
     0
  0
ENDSEC
  0
SECTION
  2
TABLES
  0
TABLE
  2
VPORT
  5
8
330
0
100
AcDbSymbolTable
 70
     1
  0
VPORT
  5
97
330
8
100
AcDbSymbolTableRecord
100
AcDbViewportTableRecord
  2
*Active
 70
     0
 10
0.0
 20
0.0
 11
1.0
 21
1.0
 12
-126.7953644046111
 22
-185.8812824961745
 13
0.0
 23
0.0
 14
10.0
 24
10.0
 15
10.0
 25
10.0
 16
0.0
 26
0.0
 36
1.0
 17
305.7178289987245
 27
155.1387292854301
 37
-94.99043177106122
 40
140.2344978335321
 41
2.157392686804451
 42
50.0
 43
0.0
 44
0.0
 50
0.0
 51
0.0
 71
     0
 72
    16
 73
     1
 74
     3
 75
     0
 76
     0
 77
     0
 78
     0
281
     0
 65
     1
110
0.0
120
0.0
130
0.0
111
1.0
121
0.0
131
0.0
112
0.0
122
1.0
132
0.0
 79
     0
146
0.0
348
2F
 60
     0
 61
     5
292
     1
282
     1
141
0.0
142
0.0
 63
   250
421
  3355443
  0
ENDTAB
  0
TABLE
  2
LTYPE
  5
5
330
0
100
AcDbSymbolTable
 70
     1
  0
LTYPE
  5
14
330
5
100
AcDbSymbolTableRecord
100
AcDbLinetypeTableRecord
  2
ByBlock
 70
     0
  3

 72
    65
 73
     0
 40
0.0
  0
LTYPE
  5
15
330
5
100
AcDbSymbolTableRecord
100
AcDbLinetypeTableRecord
  2
ByLayer
 70
     0
  3

 72
    65
 73
     0
 40
0.0
  0
LTYPE
  5
16
330
5
100
AcDbSymbolTableRecord
100
AcDbLinetypeTableRecord
  2
Continuous
 70
     0
  3
Solid line
 72
    65
 73
     0
 40
0.0
  0
ENDTAB
  0
TABLE
  2
LAYER
  5
2
330
0
100
AcDbSymbolTable
 70
     2
  0
LAYER
  5
10
330
2
100
AcDbSymbolTableRecord
100
AcDbLayerTableRecord
  2
0
 70
     0
 62
     7
  6
Continuous
370
    -3
390
F
347
2FE
  0
LAYER
  5
ED
330
2
100
AcDbSymbolTableRecord
100
AcDbLayerTableRecord
  2
ACESSORIOS
 70
     0
 62
     2
  6
Continuous
370
    -3
390
F
347
2FE
  0
ENDTAB
  0
TABLE
  2
STYLE
  5
3
330
0
100
AcDbSymbolTable
 70
     2
  0
STYLE
  5
11
330
3
100
AcDbSymbolTableRecord
100
AcDbTextStyleTableRecord
  2
Standard
 70
     0
 40
0.0
 41
1.0
 50
0.0
 71
     0
 42
2.5
  3
txt
  4

  0
STYLE
  5
55
330
3
100
AcDbSymbolTableRecord
100
AcDbTextStyleTableRecord
  2
Annotative
 70
     0
 40
0.0
 41
1.0
 50
0.0
 71
     0
 42
0.2
  3
txt
  4

1001
AcadAnnotative
1000
AnnotativeData
1002
{
1070
     1
1070
     1
1002
}
  0
ENDTAB
  0
TABLE
  2
VIEW
  5
6
330
0
100
AcDbSymbolTable
 70
     0
  0
ENDTAB
  0
TABLE
  2
UCS
  5
7
330
0
100
AcDbSymbolTable
 70
     0
  0
ENDTAB
  0
TABLE
  2
APPID
  5
9
330
0
100
AcDbSymbolTable
 70
     4
  0
APPID
  5
12
330
9
100
AcDbSymbolTableRecord
100
AcDbRegAppTableRecord
  2
ACAD
 70
     0
  0
APPID
  5
3B2
330
9
100
AcDbSymbolTableRecord
100
AcDbRegAppTableRecord
  2
AcadAnnotative
 70
     0
  0
APPID
  5
3B3
330
9
100
AcDbSymbolTableRecord
100
AcDbRegAppTableRecord
  2
ACAD_DSTYLE_DIMJOGGED_JOGANGLE_SYMBOL
 70
     0
  0
APPID
  5
3B4
330
9
100
AcDbSymbolTableRecord
100
AcDbRegAppTableRecord
  2
ACAD_MLEADERVER
 70
     0
  0
ENDTAB
  0
TABLE
  2
DIMSTYLE
  5
A
330
0
100
AcDbSymbolTable
 70
     3
100
AcDbDimStyleTable
 71
     0
  0
DIMSTYLE
105
27
330
A
100
AcDbSymbolTableRecord
100
AcDbDimStyleTableRecord
  2
Standard
 70
     0
278
     0
340
11
  0
DIMSTYLE
105
53
330
A
100
AcDbSymbolTableRecord
100
AcDbDimStyleTableRecord
  2
ISO-25
 70
     0
 41
2.5
 42
0.625
 43
3.75
 44
1.25
 73
     0
 74
     0
 77
     1
 78
     8
140
2.5
141
2.5
143
0.03937007874016
147
0.625
171
     3
172
     1
271
     2
272
     2
274
     3
278
    44
283
     0
284
     8
340
11
  0
DIMSTYLE
105
54
330
A
100
AcDbSymbolTableRecord
100
AcDbDimStyleTableRecord
  2
Annotative
 70
     0
340
11
1001
AcadAnnotative
1000
AnnotativeData
1002
{
1070
     1
1070
     1
1002
}
  0
ENDTAB
  0
TABLE
  2
BLOCK_RECORD
  5
1
330
0
100
AcDbSymbolTable
 70
     1
  0
BLOCK_RECORD
  5
1F
330
1
100
AcDbSymbolTableRecord
100
AcDbBlockTableRecord
  2
*Model_Space
340
22
 70
     0
280
     1
281
     0
  0
BLOCK_RECORD
  5
73
330
1
100
AcDbSymbolTableRecord
100
AcDbBlockTableRecord
  2
*Paper_Space
340
74
 70
     0
280
     1
281
     0
  0
BLOCK_RECORD
  5
315
330
1
100
AcDbSymbolTableRecord
100
AcDbBlockTableRecord
  2
*Paper_Space0
340
6E
 70
     0
280
     1
281
     0
  0
ENDTAB
  0
ENDSEC
  0
SECTION
  2
BLOCKS
  0
BLOCK
  5
20
330
1F
100
AcDbEntity
  8
0
100
AcDbBlockBegin
  2
*Model_Space
 70
     0
 10
0.0
 20
0.0
 30
0.0
  3
*Model_Space
  1

  0
ENDBLK
  5
21
330
1F
100
AcDbEntity
  8
0
100
AcDbBlockEnd
  0
BLOCK
  5
75
330
73
100
AcDbEntity
 67
     1
  8
0
100
AcDbBlockBegin
  2
*Paper_Space
 70
     0
 10
0.0
 20
0.0
 30
0.0
  3
*Paper_Space
  1

  0
ENDBLK
  5
76
330
73
100
AcDbEntity
 67
     1
  8
0
100
AcDbBlockEnd
  0
BLOCK
  5
3CC
330
315
100
AcDbEntity
 67
     1
  8
0
100
AcDbBlockBegin
  2
*Paper_Space0
 70
     0
 10
0.0
 20
0.0
 30
0.0
  3
*Paper_Space0
  1

  0
ENDBLK
  5
3CD
330
315
100
AcDbEntity
 67
     1
  8
0
100
AcDbBlockEnd
  0
ENDSEC
  0
SECTION
  2
ENTITIES
  0
3DFACE
  5
165
330
1F
100
AcDbEntity
  8
ACESSORIOS
100
AcDbFace
 10
26.35999999999902
 20
-37.99852229776004
 30
1.399999999999997
 11
3.360000000000013
 21
-35.69926164859403
 31
12.89999999999999
 12
3.359999999999671
 22
-43.0
 32
7.899999999999455
 13
3.360000000000013
 23
-43.0
 33
1.399999999999997
  0
3DFACE
  5
166
330
1F
100
AcDbEntity
  8
ACESSORIOS
100
AcDbFace
 10
26.35999999999902
 20
-37.99852229776004
 30
1.399999999999997
 11
29.18983854648601
 21
-30.05000000000001
 31
12.89999999999999
 12
3.360000000000013
 22
-35.69926164859403
 32
12.89999999999999
 13
3.360000000000013
 23
-35.69926164859403
 33
12.89999999999999
  0
3DFACE
  5
167
330
1F
100
AcDbEntity
  8
ACESSORIOS
100
AcDbFace
 10
29.18983854648601
 20
-30.05000000000001
 30
12.89999999999999
 11
4.860000000000011
 21
-30.05000000000001
 31
12.89999999999999
 12
3.360000000000013
 22
-35.69926164859403
 32
12.89999999999999
 13
3.360000000000013
 23
-35.69926164859403
 33
12.89999999999999
  0
3DFACE
  5
168
330
1F
100
AcDbEntity
  8
ACESSORIOS
100
AcDbFace
 10
4.860000000000011
 20
-18.95000000000002
 30
12.89999999999999
 11
3.360000000000013
 21
-13.30073835140501
 31
12.89999999999999
 12
3.360000000000013
 22
-35.69926164859403
 32
12.89999999999999
 13
4.860000000000011
 23
-30.05000000000001
 33
12.89999999999999
  0
3DFACE
  5
169
330
1F
100
AcDbEntity
  8
ACESSORIOS
100
AcDbFace
 10
26.35999999999902
 20
-11.00147770223987
 30
1.399999999999997
 11
29.18983854648601
 21
-18.94999999999987
 31
12.89999999999999
 12
3.360000000000013
 22
-13.30073835140587
 32
12.89999999999999
 13
3.360000000000013
 23
-13.30073835140587
 33
12.89999999999999
  0
3DFACE
  5
16A
330
1F
100
AcDbEntity
  8
ACESSORIOS
100
AcDbFace
 10
26.35999999999902
 20
-11.00147770223987
 30
1.399999999999997
 11
3.360000000000013
 21
-13.30073835140587
 31
12.89999999999999
 12
3.359999999999671
 22
-5.999999999999886
 32
7.899999999999455
 13
3.360000000000013
 23
-5.999999999999886
 33
1.399999999999997
  0
3DFACE
  5
16B
330
1F
100
AcDbEntity
  8
ACESSORIOS
100
AcDbFace
 10
29.18983854648601
 20
-18.94999999999987
 30
12.89999999999999
 11
4.860000000000011
 21
-18.94999999999987
 31
12.89999999999999
 12
3.360000000000013
 22
-13.30073835140587
 32
12.89999999999999
 13
3.360000000000013
 23
-13.30073835140587
 33
12.89999999999999
  0
3DFACE
  5
16C
330
1F
100
AcDbEntity
  8
ACESSORIOS
100
AcDbFace
 10
96.36000000000002
 20
-33.46552531865601
 30
7.899999999999597
 11
96.36000000000002
 21
-30.05000000000001
 31
10.2301599654524
 12
29.18983854648601
 22
-30.05000000000001
 32
12.89999999999999
 13
26.35999999999902
 23
-37.99852229776004
 33
1.399999999999997
  0
3DFACE
  5
16D
330
1F
100
AcDbEntity
  8
ACESSORIOS
100
AcDbFace
 10
96.36000000000002
 20
-33.46552531865601
 30
7.899999999999597
 11
26.35999999999902
 21
-37.99852229776004
 31
1.399999999999997
 12
26.3599999999995
 22
-37.99852229776011
 32
-0.0000000000000142
 13
96.36000000000002
 23
-33.46552531865601
 33
0.0
  0
3DFACE
  5
16E
330
1F
100
AcDbEntity
  8
ACESSORIOS
100
AcDbFace
 10
96.36000000000002
 20
-15.53447468134399
 30
7.900000000000593
 11
26.35999999999902
 21
-11.00147770224001
 31
1.399999999999997
 12
29.18983854649301
 22
-18.95000000000002
 32
12.89999999999999
 13
96.36000000000002
 23
-18.95000000000002
 33
10.2301599654531
  0
3DFACE
  5
16F
330
1F
100
AcDbEntity
  8
ACESSORIOS
100
AcDbFace
 10
96.36000000000002
 20
-15.53447468134399
 30
7.900000000000593
 11
96.36000000000002
 21
-15.53447468134399
 31
0.0
 12
26.35999999999979
 22
-11.00147770224029
 32
-0.0000000000000213
 13
26.35999999999902
 23
-11.00147770224001
 33
1.399999999999997
  0
3DFACE
  5
170
330
1F
100
AcDbEntity
  8
ACESSORIOS
100
AcDbFace
 10
26.35999999999979
 20
-11.00147770224029
 30
-0.0000000000000213
 11
26.3599999999995
 21
-37.99852229776011
 31
-0.0000000000000142
 12
26.35999999999902
 22
-37.99852229776004
 32
1.399999999999997
 13
26.35999999999902
 23
-11.00147770224001
 33
1.399999999999997
  0
3DFACE
  5
17B
330
1F
100
AcDbEntity
  8
ACESSORIOS
100
AcDbFace
 10
3.360000000002002
 20
-6.0
 30
1.399999999999997
 11
3.359999999999671
 21
-6.000000000000027
 31
7.90000000000059
 12
3.359999999999671
 22
-0.0000000000000284
 32
13.09999999999998
 13
3.360000000000013
 23
0.0
 33
1.399999999999997
  0
3DFACE
  5
17C
330
1F
100
AcDbEntity
  8
ACESSORIOS
100
AcDbFace
 10
3.359999999999671
 20
-0.0000000000000284
 30
13.09999999999998
 11
1.860000000000013
 21
0.0
 31
12.54299999999999
 12
1.860000000000013
 22
0.0
 32
1.399999999999997
 13
3.360000000000013
 23
0.0
 33
1.399999999999997
  0
3DFACE
  5
17D
330
1F
100
AcDbEntity
  8
ACESSORIOS
100
AcDbFace
 10
3.360000000000013
 20
-13.30073835140501
 30
12.89999999999999
 11
3.359999999999671
 21
-6.000000000000027
 31
7.90000000000059
 12
3.359999999999671
 22
-0.0000000000000284
 32
13.09999999999998
 13
3.359999999999671
 23
-24.50000000000003
 33
13.09999999999998
  0
3DFACE
  5
17F
330
1F
100
AcDbEntity
  8
ACESSORIOS
100
AcDbFace
 10
3.360000000000013
 20
-13.30073835140501
 30
12.89999999999999
 11
3.360000000000013
 21
-35.69926164859403
 31
12.89999999999999
 12
3.359999999999671
 22
-24.50000000000003
 32
13.09999999999998
 13
3.359999999999671
 23
-24.50000000000003
 33
13.09999999999998
  0
3DFACE
  5
180
330
1F
100
AcDbEntity
  8
ACESSORIOS
100
AcDbFace
 10
3.359999999999671
 20
-24.50000000000003
 30
13.09999999999998
 11
3.359999999999671
 21
-49.00000000000003
 31
13.09999999999999
 12
3.360000000000013
 22
-35.69926164859403
 32
12.89999999999999
 13
3.360000000000013
 23
-35.69926164859403
 33
12.89999999999999
  0
3DFACE
  5
181
330
1F
100
AcDbEntity
  8
ACESSORIOS
100
AcDbFace
 10
3.360000000000013
 20
-43.0
 30
1.399999999999997
 11
3.360000000000013
 21
-49.0
 31
1.399999999999997
 12
3.360000000000013
 22
-49.0
 32
13.1
 13
3.360000000000013
 23
-43.0
 33
7.899999999999495
  0
3DFACE
  5
182
330
1F
100
AcDbEntity
  8
ACESSORIOS
100
AcDbFace
 10
3.360000000000013
 20
-43.0
 30
7.899999999999495
 11
3.360000000000013
 21
-49.0
 31
13.1
 12
3.360000000000013
 22
-35.69926164859403
 32
12.89999999999999
 13
3.360000000000013
 23
-35.69926164859403
 33
12.89999999999999
  0
3DFACE
  5
183
330
1F
100
AcDbEntity
  8
ACESSORIOS
100
AcDbFace
 10
96.36000000000002
 20
-18.94999999999999
 30
6.899999999999977
 11
96.35999999999963
 21
-18.94999999999996
 31
10.23015996545309
 12
96.35999999999967
 22
-15.53447468134422
 32
7.900000000000593
 13
96.35999999999963
 23
-15.53447468134362
 33
-0.0000000000000213
  0
3DFACE
  5
184
330
1F
100
AcDbEntity
  8
ACESSORIOS
100
AcDbFace
 10
96.3599999999999
 20
-33.46552531865626
 30
-0.0000000000000142
 11
96.36000000000002
 21
-30.05000000000001
 31
6.899999999999995
 12
96.35999999999963
 22
-30.04999999999995
 32
10.23015996545239
 13
96.3599999999996
 23
-33.46552531865626
 33
7.899999999999572
  0
LINE
  5
195
330
1F
100
AcDbEntity
  8
ACESSORIOS
100
AcDbLine
 10
96.36000000000016
 20
-25.24330343736628
 30
1.399999999999997
 11
96.35999999999977
 21
-24.49999999999994
 31
-0.0000000000000213
  0
LINE
  5
196
330
1F
100
AcDbEntity
  8
ACESSORIOS
100
AcDbLine
 10
96.35999999999977
 20
-24.49999999999994
 30
-0.0000000000000213
 11
96.36000000000002
 21
-23.75669656263406
 31
1.399999999999997
  0
LINE
  5
197
330
1F
100
AcDbEntity
  8
ACESSORIOS
100
AcDbLine
 10
96.36000000000002
 20
-23.75669656263406
 30
1.399999999999997
 11
96.36000000000016
 21
-25.24330343736628
 31
1.399999999999997
  0
POLYLINE
  5
19A
330
1F
100
AcDbEntity
  8
ACESSORIOS
100
AcDbPolygonMesh
 66
     1
 10
0.0
 20
0.0
 30
0.0
 70
    16
 71
     2
 72
     7
  0
VERTEX
  5
19B
330
19A
100
AcDbEntity
  8
ACESSORIOS
100
AcDbVertex
100
AcDbPolygonMeshVertex
 10
96.36000000000002
 20
-25.24330343736597
 30
1.399999999999997
 70
    64
  0
VERTEX
  5
19C
330
19A
100
AcDbEntity
  8
ACESSORIOS
100
AcDbVertex
100
AcDbPolygonMeshVertex
 10
96.36000000000002
 20
-26.52631876273404
 30
1.733131289475988
 70
    64
  0
VERTEX
  5
19D
330
19A
100
AcDbEntity
  8
ACESSORIOS
100
AcDbVertex
100
AcDbPolygonMeshVertex
 10
96.36000000000002
 20
-27.6937443020085
 30
2.361002607030016
 70
    64
  0
VERTEX
  5
19E
330
19A
100
AcDbEntity
  8
ACESSORIOS
100
AcDbVertex
100
AcDbPolygonMeshVertex
 10
96.36000000000002
 20
-28.67898516851767
 30
3.247797519125003
 70
    64
  0
VERTEX
  5
19F
330
19A
100
AcDbEntity
  8
ACESSORIOS
100
AcDbVertex
100
AcDbPolygonMeshVertex
 10
96.36000000000002
 20
-29.42583905929473
 30
4.342929496097845
 70
    64
  0
VERTEX
  5
1A0
330
19A
100
AcDbEntity
  8
ACESSORIOS
100
AcDbVertex
100
AcDbPolygonMeshVertex
 10
96.36000000000002
 20
-29.89170227196783
 30
5.583927581606118
 70
    64
  0
VERTEX
  5
1A1
330
19A
100
AcDbEntity
  8
ACESSORIOS
100
AcDbVertex
100
AcDbPolygonMeshVertex
 10
96.36000000000002
 20
-30.05000000000001
 30
6.899999999999997
 70
    64
  0
VERTEX
  5
1A2
330
19A
100
AcDbEntity
  8
ACESSORIOS
100
AcDbVertex
100
AcDbPolygonMeshVertex
 10
96.35999999999977
 20
-24.49999999999994
 30
-0.0000000000000213
 70
    64
  0
VERTEX
  5
1A3
330
19A
100
AcDbEntity
  8
ACESSORIOS
100
AcDbVertex
100
AcDbPolygonMeshVertex
 10
96.35999999999981
 20
-25.994254219776
 30
-0.0000000000000213
 70
    64
  0
VERTEX
  5
1A4
330
19A
100
AcDbEntity
  8
ACESSORIOS
100
AcDbVertex
100
AcDbPolygonMeshVertex
 10
96.35999999999981
 20
-27.48850843955205
 30
-0.0000000000000213
 70
    64
  0
VERTEX
  5
1A5
330
19A
100
AcDbEntity
  8
ACESSORIOS
100
AcDbVertex
100
AcDbPolygonMeshVertex
 10
96.35999999999985
 20
-28.9827626593281
 30
-0.0000000000000213
 70
    64
  0
VERTEX
  5
1A6
330
19A
100
AcDbEntity
  8
ACESSORIOS
100
AcDbVertex
100
AcDbPolygonMeshVertex
 10
96.35999999999986
 20
-30.47701687910417
 30
-0.0000000000000142
 70
    64
  0
VERTEX
  5
1A7
330
19A
100
AcDbEntity
  8
ACESSORIOS
100
AcDbVertex
100
AcDbPolygonMeshVertex
 10
96.35999999999986
 20
-31.97127109888021
 30
-0.0000000000000142
 70
    64
  0
VERTEX
  5
1A8
330
19A
100
AcDbEntity
  8
ACESSORIOS
100
AcDbVertex
100
AcDbPolygonMeshVertex
 10
96.3599999999999
 20
-33.46552531865626
 30
-0.0000000000000142
 70
    64
  0
SEQEND
  5
3CE
330
19A
100
AcDbEntity
  8
ACESSORIOS
  0
POLYLINE
  5
1AA
330
1F
100
AcDbEntity
  8
ACESSORIOS
100
AcDbPolygonMesh
 66
     1
 10
0.0
 20
0.0
 30
0.0
 70
    16
 71
     2
 72
     7
  0
VERTEX
  5
1AB
330
1AA
100
AcDbEntity
  8
ACESSORIOS
100
AcDbVertex
100
AcDbPolygonMeshVertex
 10
96.36000000000002
 20
-23.75669656263406
 30
1.399999999999997
 70
    64
  0
VERTEX
  5
1AC
330
1AA
100
AcDbEntity
  8
ACESSORIOS
100
AcDbVertex
100
AcDbPolygonMeshVertex
 10
96.36000000000002
 20
-22.47368123726596
 30
1.733131289476004
 70
    64
  0
VERTEX
  5
1AD
330
1AA
100
AcDbEntity
  8
ACESSORIOS
100
AcDbVertex
100
AcDbPolygonMeshVertex
 10
96.36000000000002
 20
-21.3062556979915
 30
2.361002607030023
 70
    64
  0
VERTEX
  5
1AE
330
1AA
100
AcDbEntity
  8
ACESSORIOS
100
AcDbVertex
100
AcDbPolygonMeshVertex
 10
96.36000000000002
 20
-20.32101483148236
 30
3.247797519125001
 70
    64
  0
VERTEX
  5
1AF
330
1AA
100
AcDbEntity
  8
ACESSORIOS
100
AcDbVertex
100
AcDbPolygonMeshVertex
 10
96.36000000000002
 20
-19.57416094070527
 30
4.342929496097831
 70
    64
  0
VERTEX
  5
1B0
330
1AA
100
AcDbEntity
  8
ACESSORIOS
100
AcDbVertex
100
AcDbPolygonMeshVertex
 10
96.36000000000002
 20
-19.10829772803217
 30
5.583927581606097
 70
    64
  0
VERTEX
  5
1B1
330
1AA
100
AcDbEntity
  8
ACESSORIOS
100
AcDbVertex
100
AcDbPolygonMeshVertex
 10
96.36000000000002
 20
-18.94999999999999
 30
6.899999999999977
 70
    64
  0
VERTEX
  5
1B2
330
1AA
100
AcDbEntity
  8
ACESSORIOS
100
AcDbVertex
100
AcDbPolygonMeshVertex
 10
96.35999999999977
 20
-24.49999999999994
 30
-0.0000000000000213
 70
    64
  0
VERTEX
  5
1B3
330
1AA
100
AcDbEntity
  8
ACESSORIOS
100
AcDbVertex
100
AcDbPolygonMeshVertex
 10
96.35999999999977
 20
-23.00574578022389
 30
-0.0000000000000213
 70
    64
  0
VERTEX
  5
1B4
330
1AA
100
AcDbEntity
  8
ACESSORIOS
100
AcDbVertex
100
AcDbPolygonMeshVertex
 10
96.35999999999974
 20
-21.51149156044784
 30
-0.0000000000000213
 70
    64
  0
VERTEX
  5
1B5
330
1AA
100
AcDbEntity
  8
ACESSORIOS
100
AcDbVertex
100
AcDbPolygonMeshVertex
 10
96.35999999999974
 20
-20.01723734067178
 30
-0.0000000000000213
 70
    64
  0
VERTEX
  5
1B6
330
1AA
100
AcDbEntity
  8
ACESSORIOS
100
AcDbVertex
100
AcDbPolygonMeshVertex
 10
96.35999999999969
 20
-18.52298312089573
 30
-0.0000000000000213
 70
    64
  0
VERTEX
  5
1B7
330
1AA
100
AcDbEntity
  8
ACESSORIOS
100
AcDbVertex
100
AcDbPolygonMeshVertex
 10
96.35999999999967
 20
-17.02872890111968
 30
-0.0000000000000213
 70
    64
  0
VERTEX
  5
1B8
330
1AA
100
AcDbEntity
  8
ACESSORIOS
100
AcDbVertex
100
AcDbPolygonMeshVertex
 10
96.35999999999963
 20
-15.53447468134362
 30
-0.0000000000000213
 70
    64
  0
SEQEND
  5
3CF
330
1AA
100
AcDbEntity
  8
ACESSORIOS
  0
3DFACE
  5
1BA
330
1F
100
AcDbEntity
  8
ACESSORIOS
100
AcDbFace
 10
3.360000000000013
 20
-49.0
 30
13.1
 11
1.860000000000013
 21
-49.0
 31
12.54299999999999
 12
1.860000000000013
 22
-49.0
 32
1.399999999999997
 13
3.360000000000013
 23
-49.0
 33
1.399999999999997
  0
3DFACE
  5
1BB
330
1F
100
AcDbEntity
  8
ACESSORIOS
100
AcDbFace
 10
1.860000000000013
 20
-49.0
 30
1.399999999999997
 11
1.860000000000013
 21
0.0
 31
1.399999999999997
 12
1.860000000000013
 22
0.0
 32
12.54299999999999
 13
1.860000000000013
 23
-49.0
 33
12.54299999999999
  0
3DFACE
  5
1BC
330
1F
100
AcDbEntity
  8
ACESSORIOS
100
AcDbFace
 10
3.360000000000013
 20
-49.0
 30
1.399999999999997
 11
3.360000000000013
 21
0.0
 31
1.399999999999997
 12
1.860000000000013
 22
0.0
 32
1.399999999999997
 13
1.860000000000013
 23
-49.0
 33
1.399999999999997
  0
3DFACE
  5
1BD
330
1F
100
AcDbEntity
  8
ACESSORIOS
100
AcDbFace
 10
3.360000000002002
 20
-6.0
 30
1.399999999999997
 11
26.35999999999902
 21
-11.00147770224001
 31
1.399999999999997
 12
26.35999999999902
 22
-37.99852229776004
 32
1.399999999999997
 13
3.360000000000013
 23
-43.0
 33
1.399999999999997
  0
3DFACE
  5
1BE
330
1F
100
AcDbEntity
  8
ACESSORIOS
100
AcDbFace
 10
3.360000000000013
 20
-49.0
 30
13.1
 11
2.060000000000002
 21
-49.0
 31
14.39999999999999
 12
0.0030000000000427
 22
-49.0
 32
14.39999999999999
 13
1.860000000000013
 23
-49.0
 33
12.54299999999999
  0
3DFACE
  5
1BF
330
1F
100
AcDbEntity
  8
ACESSORIOS
100
AcDbFace
 10
3.360000000000013
 20
0.0
 30
13.1
 11
2.060000000000002
 21
0.0
 31
14.39999999999999
 12
0.0030000000000427
 22
0.0
 32
14.39999999999999
 13
1.860000000000013
 23
0.0
 33
12.54299999999999
  0
3DFACE
  5
1C0
330
1F
100
AcDbEntity
  8
ACESSORIOS
100
AcDbFace
 10
1.860000000000013
 20
-49.0
 30
12.54299999999999
 11
1.860000000000013
 21
0.0
 31
12.54299999999999
 12
0.0030000000000427
 22
0.0
 32
14.39999999999999
 13
0.0030000000000427
 23
-49.0
 33
14.39999999999999
  0
3DFACE
  5
1C1
330
1F
100
AcDbEntity
  8
ACESSORIOS
100
AcDbFace
 10
0.0030000000000427
 20
-49.0
 30
14.39999999999999
 11
2.060000000000002
 21
-49.0
 31
14.39999999999999
 12
2.060000000000002
 22
0.0
 32
14.39999999999999
 13
0.0030000000000427
 23
0.0
 33
14.39999999999999
  0
3DFACE
  5
1C2
330
1F
100
AcDbEntity
  8
ACESSORIOS
100
AcDbFace
 10
2.060000000000002
 20
0.0
 30
14.39999999999999
 11
3.360000000000013
 21
0.0
 31
13.1
 12
3.360000000000013
 22
-49.0
 32
13.1
 13
2.060000000000002
 23
-49.0
 33
14.39999999999999
  0
3DFACE
  5
1C3
330
1F
100
AcDbEntity
  8
ACESSORIOS
100
AcDbFace
 10
26.35999999999979
 20
-11.00147770224029
 30
-0.0000000000000213
 11
26.3599999999995
 21
-37.99852229776011
 31
-0.0000000000000142
 12
96.36000000000002
 22
-33.46552531865601
 32
0.0
 13
96.36000000000002
 23
-15.53447468134399
 33
0.0
  0
3DFACE
  5
1C4
330
1F
100
AcDbEntity
  8
ACESSORIOS
100
AcDbFace
 10
29.18983854648601
 20
-30.05000000000001
 30
12.89999999999999
 11
29.18983854648601
 21
-18.94999999999987
 31
12.89999999999999
 12
4.860000000000011
 22
-18.95000000000002
 32
12.89999999999999
 13
4.860000000000011
 23
-30.05000000000001
 33
12.89999999999999
  0
3DFACE
  5
1C5
330
1F
100
AcDbEntity
  8
ACESSORIOS
100
AcDbFace
 10
96.36000000000002
 20
-30.05000000000001
 30
10.2301599654524
 11
96.36000000000002
 21
-18.95000000000002
 31
10.2301599654531
 12
29.18983854648601
 22
-18.94999999999987
 32
12.89999999999999
 13
29.18983854648601
 23
-30.05000000000001
 33
12.89999999999999
  0
POLYLINE
  5
1CE
330
1F
100
AcDbEntity
  8
ACESSORIOS
100
AcDbPolygonMesh
 66
     1
 10
0.0
 20
0.0
 30
0.0
 70
    16
 71
     2
 72
     7
  0
VERTEX
  5
1CF
330
1CE
100
AcDbEntity
  8
ACESSORIOS
100
AcDbVertex
100
AcDbPolygonMeshVertex
 10
96.36000000000002
 20
-18.94999999999999
 30
6.899999999999977
 70
    64
  0
VERTEX
  5
1D0
330
1CE
100
AcDbEntity
  8
ACESSORIOS
100
AcDbVertex
100
AcDbPolygonMeshVertex
 10
96.36000000000002
 20
-19.10829772803217
 30
5.583927581606097
 70
    64
  0
VERTEX
  5
1D1
330
1CE
100
AcDbEntity
  8
ACESSORIOS
100
AcDbVertex
100
AcDbPolygonMeshVertex
 10
96.36000000000002
 20
-19.57416094070527
 30
4.342929496097831
 70
    64
  0
VERTEX
  5
1D2
330
1CE
100
AcDbEntity
  8
ACESSORIOS
100
AcDbVertex
100
AcDbPolygonMeshVertex
 10
96.36000000000002
 20
-20.32101483148236
 30
3.247797519125001
 70
    64
  0
VERTEX
  5
1D3
330
1CE
100
AcDbEntity
  8
ACESSORIOS
100
AcDbVertex
100
AcDbPolygonMeshVertex
 10
96.36000000000002
 20
-21.3062556979915
 30
2.361002607030023
 70
    64
  0
VERTEX
  5
1D4
330
1CE
100
AcDbEntity
  8
ACESSORIOS
100
AcDbVertex
100
AcDbPolygonMeshVertex
 10
96.36000000000002
 20
-22.47368123726596
 30
1.733131289476004
 70
    64
  0
VERTEX
  5
1D5
330
1CE
100
AcDbEntity
  8
ACESSORIOS
100
AcDbVertex
100
AcDbPolygonMeshVertex
 10
96.36000000000002
 20
-23.75669656263406
 30
1.399999999999997
 70
    64
  0
VERTEX
  5
1D6
330
1CE
100
AcDbEntity
  8
ACESSORIOS
100
AcDbVertex
100
AcDbPolygonMeshVertex
 10
96.36000000000002
 20
-18.94999999999999
 30
6.899999999999977
 70
    64
  0
VERTEX
  5
1D7
330
1CE
100
AcDbEntity
  8
ACESSORIOS
100
AcDbVertex
100
AcDbPolygonMeshVertex
 10
96.36000000000002
 20
-19.75111609377228
 30
6.899999999999977
 70
    64
  0
VERTEX
  5
1D8
330
1CE
100
AcDbEntity
  8
ACESSORIOS
100
AcDbVertex
100
AcDbPolygonMeshVertex
 10
96.36000000000002
 20
-20.55223218754457
 30
6.89999999999998
 70
    64
  0
VERTEX
  5
1D9
330
1CE
100
AcDbEntity
  8
ACESSORIOS
100
AcDbVertex
100
AcDbPolygonMeshVertex
 10
96.36000000000002
 20
-21.3533482813169
 30
6.89999999999998
 70
    64
  0
VERTEX
  5
1DA
330
1CE
100
AcDbEntity
  8
ACESSORIOS
100
AcDbVertex
100
AcDbPolygonMeshVertex
 10
96.36000000000002
 20
-22.15446437508919
 30
6.89999999999998
 70
    64
  0
VERTEX
  5
1DB
330
1CE
100
AcDbEntity
  8
ACESSORIOS
100
AcDbVertex
100
AcDbPolygonMeshVertex
 10
96.36000000000002
 20
-22.95558046886148
 30
6.899999999999981
 70
    64
  0
VERTEX
  5
1DC
330
1CE
100
AcDbEntity
  8
ACESSORIOS
100
AcDbVertex
100
AcDbPolygonMeshVertex
 10
96.36000000000002
 20
-23.75669656263378
 30
6.899999999999981
 70
    64
  0
SEQEND
  5
3D0
330
1CE
100
AcDbEntity
  8
ACESSORIOS
  0
POLYLINE
  5
1DE
330
1F
100
AcDbEntity
  8
ACESSORIOS
100
AcDbPolygonMesh
 66
     1
 10
0.0
 20
0.0
 30
0.0
 70
    16
 71
     2
 72
     7
  0
VERTEX
  5
1DF
330
1DE
100
AcDbEntity
  8
ACESSORIOS
100
AcDbVertex
100
AcDbPolygonMeshVertex
 10
96.36000000000002
 20
-25.24330343736597
 30
1.399999999999997
 70
    64
  0
VERTEX
  5
1E0
330
1DE
100
AcDbEntity
  8
ACESSORIOS
100
AcDbVertex
100
AcDbPolygonMeshVertex
 10
96.36000000000002
 20
-26.52631876273404
 30
1.733131289475988
 70
    64
  0
VERTEX
  5
1E1
330
1DE
100
AcDbEntity
  8
ACESSORIOS
100
AcDbVertex
100
AcDbPolygonMeshVertex
 10
96.36000000000002
 20
-27.6937443020085
 30
2.361002607030016
 70
    64
  0
VERTEX
  5
1E2
330
1DE
100
AcDbEntity
  8
ACESSORIOS
100
AcDbVertex
100
AcDbPolygonMeshVertex
 10
96.36000000000002
 20
-28.67898516851767
 30
3.247797519125003
 70
    64
  0
VERTEX
  5
1E3
330
1DE
100
AcDbEntity
  8
ACESSORIOS
100
AcDbVertex
100
AcDbPolygonMeshVertex
 10
96.36000000000002
 20
-29.42583905929473
 30
4.342929496097845
 70
    64
  0
VERTEX
  5
1E4
330
1DE
100
AcDbEntity
  8
ACESSORIOS
100
AcDbVertex
100
AcDbPolygonMeshVertex
 10
96.36000000000002
 20
-29.89170227196783
 30
5.583927581606118
 70
    64
  0
VERTEX
  5
1E5
330
1DE
100
AcDbEntity
  8
ACESSORIOS
100
AcDbVertex
100
AcDbPolygonMeshVertex
 10
96.36000000000002
 20
-30.05000000000001
 30
6.899999999999997
 70
    64
  0
VERTEX
  5
1E6
330
1DE
100
AcDbEntity
  8
ACESSORIOS
100
AcDbVertex
100
AcDbPolygonMeshVertex
 10
96.36000000000002
 20
-25.243303437366
 30
6.899999999999991
 70
    64
  0
VERTEX
  5
1E7
330
1DE
100
AcDbEntity
  8
ACESSORIOS
100
AcDbVertex
100
AcDbPolygonMeshVertex
 10
96.36000000000002
 20
-26.04441953113834
 30
6.899999999999991
 70
    64
  0
VERTEX
  5
1E8
330
1DE
100
AcDbEntity
  8
ACESSORIOS
100
AcDbVertex
100
AcDbPolygonMeshVertex
 10
96.36000000000002
 20
-26.84553562491068
 30
6.899999999999991
 70
    64
  0
VERTEX
  5
1E9
330
1DE
100
AcDbEntity
  8
ACESSORIOS
100
AcDbVertex
100
AcDbPolygonMeshVertex
 10
96.36000000000002
 20
-27.64665171868299
 30
6.899999999999991
 70
    64
  0
VERTEX
  5
1EA
330
1DE
100
AcDbEntity
  8
ACESSORIOS
100
AcDbVertex
100
AcDbPolygonMeshVertex
 10
96.36000000000002
 20
-28.44776781245534
 30
6.899999999999995
 70
    64
  0
VERTEX
  5
1EB
330
1DE
100
AcDbEntity
  8
ACESSORIOS
100
AcDbVertex
100
AcDbPolygonMeshVertex
 10
96.36000000000002
 20
-29.24888390622769
 30
6.899999999999995
 70
    64
  0
VERTEX
  5
1EC
330
1DE
100
AcDbEntity
  8
ACESSORIOS
100
AcDbVertex
100
AcDbPolygonMeshVertex
 10
96.36000000000002
 20
-30.05000000000001
 30
6.899999999999995
 70
    64
  0
SEQEND
  5
3D1
330
1DE
100
AcDbEntity
  8
ACESSORIOS
  0
3DFACE
  5
1EE
330
1F
100
AcDbEntity
  8
ACESSORIOS
100
AcDbFace
 10
96.36000000000002
 20
-25.243303437366
 30
6.899999999999991
 11
96.36000000000002
 21
-23.75669656263378
 31
6.899999999999981
 12
96.36000000000002
 22
-23.75669656263406
 32
1.399999999999997
 13
96.36000000000016
 23
-25.24330343736628
 33
1.399999999999997
  0
3DFACE
  5
1EF
330
1F
100
AcDbEntity
  8
ACESSORIOS
100
AcDbFace
 10
96.36000000000002
 20
-30.05000000000001
 30
6.899999999999995
 11
96.35999999999963
 21
-30.04999999999995
 31
10.23015996545239
 12
96.35999999999963
 22
-18.94999999999996
 32
10.23015996545309
 13
96.36000000000002
 23
-18.94999999999999
 33
6.899999999999977
  0
3DFACE
  5
2AB
330
1F
100
AcDbEntity
  8
ACESSORIOS
100
AcDbFace
 10
274.8560552571604
 20
-37.99852229776004
 30
1.399999999999997
 11
297.8560552571595
 21
-35.69926164859403
 31
12.89999999999999
 12
297.8560552571598
 22
-43.0
 32
7.899999999999455
 13
297.8560552571595
 23
-43.0
 33
1.399999999999997
  0
3DFACE
  5
2AC
330
1F
100
AcDbEntity
  8
ACESSORIOS
100
AcDbFace
 10
274.8560552571604
 20
-37.99852229776004
 30
1.399999999999997
 11
272.0262167106735
 21
-30.05000000000001
 31
12.89999999999999
 12
297.8560552571595
 22
-35.69926164859403
 32
12.89999999999999
 13
297.8560552571595
 23
-35.69926164859403
 33
12.89999999999999
  0
3DFACE
  5
2AD
330
1F
100
AcDbEntity
  8
ACESSORIOS
100
AcDbFace
 10
272.0262167106735
 20
-30.05000000000001
 30
12.89999999999999
 11
296.3560552571595
 21
-30.05000000000001
 31
12.89999999999999
 12
297.8560552571595
 22
-35.69926164859403
 32
12.89999999999999
 13
297.8560552571595
 23
-35.69926164859403
 33
12.89999999999999
  0
3DFACE
  5
2AE
330
1F
100
AcDbEntity
  8
ACESSORIOS
100
AcDbFace
 10
296.3560552571595
 20
-18.95000000000002
 30
12.89999999999999
 11
297.8560552571595
 21
-13.30073835140501
 31
12.89999999999999
 12
297.8560552571595
 22
-35.69926164859403
 32
12.89999999999999
 13
296.3560552571595
 23
-30.05000000000001
 33
12.89999999999999
  0
3DFACE
  5
2AF
330
1F
100
AcDbEntity
  8
ACESSORIOS
100
AcDbFace
 10
274.8560552571604
 20
-11.00147770223987
 30
1.399999999999997
 11
272.0262167106735
 21
-18.94999999999987
 31
12.89999999999999
 12
297.8560552571595
 22
-13.30073835140587
 32
12.89999999999999
 13
297.8560552571595
 23
-13.30073835140587
 33
12.89999999999999
  0
3DFACE
  5
2B0
330
1F
100
AcDbEntity
  8
ACESSORIOS
100
AcDbFace
 10
274.8560552571604
 20
-11.00147770223987
 30
1.399999999999997
 11
297.8560552571595
 21
-13.30073835140587
 31
12.89999999999999
 12
297.8560552571598
 22
-5.999999999999886
 32
7.899999999999455
 13
297.8560552571595
 23
-5.999999999999886
 33
1.399999999999997
  0
3DFACE
  5
2B1
330
1F
100
AcDbEntity
  8
ACESSORIOS
100
AcDbFace
 10
272.0262167106735
 20
-18.94999999999987
 30
12.89999999999999
 11
296.3560552571595
 21
-18.94999999999987
 31
12.89999999999999
 12
297.8560552571595
 22
-13.30073835140587
 32
12.89999999999999
 13
297.8560552571595
 23
-13.30073835140587
 33
12.89999999999999
  0
3DFACE
  5
2B2
330
1F
100
AcDbEntity
  8
ACESSORIOS
100
AcDbFace
 10
204.8560552571595
 20
-33.46552531865601
 30
7.899999999999597
 11
204.8560552571595
 21
-30.05000000000001
 31
10.2301599654524
 12
272.0262167106735
 22
-30.05000000000001
 32
12.89999999999999
 13
274.8560552571604
 23
-37.99852229776004
 33
1.399999999999997
  0
3DFACE
  5
2B3
330
1F
100
AcDbEntity
  8
ACESSORIOS
100
AcDbFace
 10
204.8560552571595
 20
-33.46552531865601
 30
7.899999999999597
 11
274.8560552571604
 21
-37.99852229776004
 31
1.399999999999997
 12
274.85605525716
 22
-37.99852229776011
 32
-0.0000000000000142
 13
204.8560552571595
 23
-33.46552531865601
 33
0.0
  0
3DFACE
  5
2B4
330
1F
100
AcDbEntity
  8
ACESSORIOS
100
AcDbFace
 10
204.8560552571595
 20
-15.53447468134399
 30
7.900000000000593
 11
274.8560552571604
 21
-11.00147770224001
 31
1.399999999999997
 12
272.0262167106664
 22
-18.95000000000002
 32
12.89999999999999
 13
204.8560552571595
 23
-18.95000000000002
 33
10.2301599654531
  0
3DFACE
  5
2B5
330
1F
100
AcDbEntity
  8
ACESSORIOS
100
AcDbFace
 10
204.8560552571595
 20
-15.53447468134399
 30
7.900000000000593
 11
204.8560552571595
 21
-15.53447468134399
 31
0.0
 12
274.8560552571597
 22
-11.00147770224029
 32
-0.0000000000000213
 13
274.8560552571604
 23
-11.00147770224001
 33
1.399999999999997
  0
3DFACE
  5
2B6
330
1F
100
AcDbEntity
  8
ACESSORIOS
100
AcDbFace
 10
274.8560552571597
 20
-11.00147770224029
 30
-0.0000000000000213
 11
274.85605525716
 21
-37.99852229776011
 31
-0.0000000000000142
 12
274.8560552571604
 22
-37.99852229776004
 32
1.399999999999997
 13
274.8560552571604
 23
-11.00147770224001
 33
1.399999999999997
  0
3DFACE
  5
2B7
330
1F
100
AcDbEntity
  8
ACESSORIOS
100
AcDbFace
 10
297.8560552571575
 20
-6.0
 30
1.399999999999997
 11
297.8560552571598
 21
-6.000000000000027
 31
7.90000000000059
 12
297.8560552571598
 22
-0.0000000000000284
 32
13.09999999999998
 13
297.8560552571595
 23
0.0
 33
1.399999999999997
  0
3DFACE
  5
2B8
330
1F
100
AcDbEntity
  8
ACESSORIOS
100
AcDbFace
 10
297.8560552571598
 20
-0.0000000000000284
 30
13.09999999999998
 11
299.3560552571595
 21
0.0
 31
12.54299999999999
 12
299.3560552571595
 22
0.0
 32
1.399999999999997
 13
297.8560552571595
 23
0.0
 33
1.399999999999997
  0
3DFACE
  5
2B9
330
1F
100
AcDbEntity
  8
ACESSORIOS
100
AcDbFace
 10
297.8560552571595
 20
-13.30073835140501
 30
12.89999999999999
 11
297.8560552571598
 21
-6.000000000000027
 31
7.90000000000059
 12
297.8560552571598
 22
-0.0000000000000284
 32
13.09999999999998
 13
297.8560552571598
 23
-24.50000000000003
 33
13.09999999999998
  0
3DFACE
  5
2BA
330
1F
100
AcDbEntity
  8
ACESSORIOS
100
AcDbFace
 10
297.8560552571595
 20
-13.30073835140501
 30
12.89999999999999
 11
297.8560552571595
 21
-35.69926164859403
 31
12.89999999999999
 12
297.8560552571598
 22
-24.50000000000003
 32
13.09999999999998
 13
297.8560552571598
 23
-24.50000000000003
 33
13.09999999999998
  0
3DFACE
  5
2BB
330
1F
100
AcDbEntity
  8
ACESSORIOS
100
AcDbFace
 10
297.8560552571598
 20
-24.50000000000003
 30
13.09999999999998
 11
297.8560552571598
 21
-49.00000000000003
 31
13.09999999999999
 12
297.8560552571595
 22
-35.69926164859403
 32
12.89999999999999
 13
297.8560552571595
 23
-35.69926164859403
 33
12.89999999999999
  0
3DFACE
  5
2BC
330
1F
100
AcDbEntity
  8
ACESSORIOS
100
AcDbFace
 10
297.8560552571595
 20
-43.0
 30
1.399999999999997
 11
297.8560552571595
 21
-49.0
 31
1.399999999999997
 12
297.8560552571595
 22
-49.0
 32
13.1
 13
297.8560552571595
 23
-43.0
 33
7.899999999999495
  0
3DFACE
  5
2BD
330
1F
100
AcDbEntity
  8
ACESSORIOS
100
AcDbFace
 10
297.8560552571595
 20
-43.0
 30
7.899999999999495
 11
297.8560552571595
 21
-49.0
 31
13.1
 12
297.8560552571595
 22
-35.69926164859403
 32
12.89999999999999
 13
297.8560552571595
 23
-35.69926164859403
 33
12.89999999999999
  0
3DFACE
  5
2BE
330
1F
100
AcDbEntity
  8
ACESSORIOS
100
AcDbFace
 10
204.8560552571595
 20
-18.94999999999999
 30
6.899999999999977
 11
204.8560552571598
 21
-18.94999999999996
 31
10.23015996545309
 12
204.8560552571598
 22
-15.53447468134422
 32
7.900000000000593
 13
204.8560552571598
 23
-15.53447468134362
 33
-0.0000000000000213
  0
3DFACE
  5
2BF
330
1F
100
AcDbEntity
  8
ACESSORIOS
100
AcDbFace
 10
204.8560552571596
 20
-33.46552531865626
 30
-0.0000000000000142
 11
204.8560552571595
 21
-30.05000000000001
 31
6.899999999999995
 12
204.8560552571598
 22
-30.04999999999995
 32
10.23015996545239
 13
204.8560552571599
 23
-33.46552531865626
 33
7.899999999999572
  0
LINE
  5
2C0
330
1F
100
AcDbEntity
  8
ACESSORIOS
100
AcDbLine
 10
204.8560552571593
 20
-25.24330343736628
 30
1.399999999999997
 11
204.8560552571597
 21
-24.49999999999994
 31
-0.0000000000000213
  0
LINE
  5
2C1
330
1F
100
AcDbEntity
  8
ACESSORIOS
100
AcDbLine
 10
204.8560552571597
 20
-24.49999999999994
 30
-0.0000000000000213
 11
204.8560552571595
 21
-23.75669656263406
 31
1.399999999999997
  0
LINE
  5
2C2
330
1F
100
AcDbEntity
  8
ACESSORIOS
100
AcDbLine
 10
204.8560552571595
 20
-23.75669656263406
 30
1.399999999999997
 11
204.8560552571593
 21
-25.24330343736628
 31
1.399999999999997
  0
POLYLINE
  5
2C3
330
1F
100
AcDbEntity
  8
ACESSORIOS
100
AcDbPolygonMesh
 66
     1
 10
0.0
 20
0.0
 30
0.0
 70
    16
 71
     2
 72
     7
  0
VERTEX
  5
2C4
330
2C3
100
AcDbEntity
  8
ACESSORIOS
100
AcDbVertex
100
AcDbPolygonMeshVertex
 10
204.8560552571595
 20
-25.24330343736597
 30
1.399999999999997
 70
    64
  0
VERTEX
  5
2C5
330
2C3
100
AcDbEntity
  8
ACESSORIOS
100
AcDbVertex
100
AcDbPolygonMeshVertex
 10
204.8560552571595
 20
-26.52631876273404
 30
1.733131289475988
 70
    64
  0
VERTEX
  5
2C6
330
2C3
100
AcDbEntity
  8
ACESSORIOS
100
AcDbVertex
100
AcDbPolygonMeshVertex
 10
204.8560552571595
 20
-27.6937443020085
 30
2.361002607030016
 70
    64
  0
VERTEX
  5
2C7
330
2C3
100
AcDbEntity
  8
ACESSORIOS
100
AcDbVertex
100
AcDbPolygonMeshVertex
 10
204.8560552571595
 20
-28.67898516851767
 30
3.247797519125003
 70
    64
  0
VERTEX
  5
2C8
330
2C3
100
AcDbEntity
  8
ACESSORIOS
100
AcDbVertex
100
AcDbPolygonMeshVertex
 10
204.8560552571595
 20
-29.42583905929473
 30
4.342929496097845
 70
    64
  0
VERTEX
  5
2C9
330
2C3
100
AcDbEntity
  8
ACESSORIOS
100
AcDbVertex
100
AcDbPolygonMeshVertex
 10
204.8560552571595
 20
-29.89170227196783
 30
5.583927581606118
 70
    64
  0
VERTEX
  5
2CA
330
2C3
100
AcDbEntity
  8
ACESSORIOS
100
AcDbVertex
100
AcDbPolygonMeshVertex
 10
204.8560552571595
 20
-30.05000000000001
 30
6.899999999999997
 70
    64
  0
VERTEX
  5
2CB
330
2C3
100
AcDbEntity
  8
ACESSORIOS
100
AcDbVertex
100
AcDbPolygonMeshVertex
 10
204.8560552571597
 20
-24.49999999999994
 30
-0.0000000000000213
 70
    64
  0
VERTEX
  5
2CC
330
2C3
100
AcDbEntity
  8
ACESSORIOS
100
AcDbVertex
100
AcDbPolygonMeshVertex
 10
204.8560552571597
 20
-25.994254219776
 30
-0.0000000000000213
 70
    64
  0
VERTEX
  5
2CD
330
2C3
100
AcDbEntity
  8
ACESSORIOS
100
AcDbVertex
100
AcDbPolygonMeshVertex
 10
204.8560552571597
 20
-27.48850843955205
 30
-0.0000000000000213
 70
    64
  0
VERTEX
  5
2CE
330
2C3
100
AcDbEntity
  8
ACESSORIOS
100
AcDbVertex
100
AcDbPolygonMeshVertex
 10
204.8560552571597
 20
-28.9827626593281
 30
-0.0000000000000213
 70
    64
  0
VERTEX
  5
2CF
330
2C3
100
AcDbEntity
  8
ACESSORIOS
100
AcDbVertex
100
AcDbPolygonMeshVertex
 10
204.8560552571596
 20
-30.47701687910417
 30
-0.0000000000000142
 70
    64
  0
VERTEX
  5
2D0
330
2C3
100
AcDbEntity
  8
ACESSORIOS
100
AcDbVertex
100
AcDbPolygonMeshVertex
 10
204.8560552571596
 20
-31.97127109888021
 30
-0.0000000000000142
 70
    64
  0
VERTEX
  5
2D1
330
2C3
100
AcDbEntity
  8
ACESSORIOS
100
AcDbVertex
100
AcDbPolygonMeshVertex
 10
204.8560552571596
 20
-33.46552531865626
 30
-0.0000000000000142
 70
    64
  0
SEQEND
  5
3D8
330
2C3
100
AcDbEntity
  8
ACESSORIOS
  0
POLYLINE
  5
2D3
330
1F
100
AcDbEntity
  8
ACESSORIOS
100
AcDbPolygonMesh
 66
     1
 10
0.0
 20
0.0
 30
0.0
 70
    16
 71
     2
 72
     7
  0
VERTEX
  5
2D4
330
2D3
100
AcDbEntity
  8
ACESSORIOS
100
AcDbVertex
100
AcDbPolygonMeshVertex
 10
204.8560552571595
 20
-23.75669656263406
 30
1.399999999999997
 70
    64
  0
VERTEX
  5
2D5
330
2D3
100
AcDbEntity
  8
ACESSORIOS
100
AcDbVertex
100
AcDbPolygonMeshVertex
 10
204.8560552571595
 20
-22.47368123726596
 30
1.733131289476004
 70
    64
  0
VERTEX
  5
2D6
330
2D3
100
AcDbEntity
  8
ACESSORIOS
100
AcDbVertex
100
AcDbPolygonMeshVertex
 10
204.8560552571595
 20
-21.3062556979915
 30
2.361002607030023
 70
    64
  0
VERTEX
  5
2D7
330
2D3
100
AcDbEntity
  8
ACESSORIOS
100
AcDbVertex
100
AcDbPolygonMeshVertex
 10
204.8560552571595
 20
-20.32101483148236
 30
3.247797519125001
 70
    64
  0
VERTEX
  5
2D8
330
2D3
100
AcDbEntity
  8
ACESSORIOS
100
AcDbVertex
100
AcDbPolygonMeshVertex
 10
204.8560552571595
 20
-19.57416094070527
 30
4.342929496097831
 70
    64
  0
VERTEX
  5
2D9
330
2D3
100
AcDbEntity
  8
ACESSORIOS
100
AcDbVertex
100
AcDbPolygonMeshVertex
 10
204.8560552571595
 20
-19.10829772803217
 30
5.583927581606097
 70
    64
  0
VERTEX
  5
2DA
330
2D3
100
AcDbEntity
  8
ACESSORIOS
100
AcDbVertex
100
AcDbPolygonMeshVertex
 10
204.8560552571595
 20
-18.94999999999999
 30
6.899999999999977
 70
    64
  0
VERTEX
  5
2DB
330
2D3
100
AcDbEntity
  8
ACESSORIOS
100
AcDbVertex
100
AcDbPolygonMeshVertex
 10
204.8560552571597
 20
-24.49999999999994
 30
-0.0000000000000213
 70
    64
  0
VERTEX
  5
2DC
330
2D3
100
AcDbEntity
  8
ACESSORIOS
100
AcDbVertex
100
AcDbPolygonMeshVertex
 10
204.8560552571597
 20
-23.00574578022389
 30
-0.0000000000000213
 70
    64
  0
VERTEX
  5
2DD
330
2D3
100
AcDbEntity
  8
ACESSORIOS
100
AcDbVertex
100
AcDbPolygonMeshVertex
 10
204.8560552571597
 20
-21.51149156044784
 30
-0.0000000000000213
 70
    64
  0
VERTEX
  5
2DE
330
2D3
100
AcDbEntity
  8
ACESSORIOS
100
AcDbVertex
100
AcDbPolygonMeshVertex
 10
204.8560552571597
 20
-20.01723734067178
 30
-0.0000000000000213
 70
    64
  0
VERTEX
  5
2DF
330
2D3
100
AcDbEntity
  8
ACESSORIOS
100
AcDbVertex
100
AcDbPolygonMeshVertex
 10
204.8560552571597
 20
-18.52298312089573
 30
-0.0000000000000213
 70
    64
  0
VERTEX
  5
2E0
330
2D3
100
AcDbEntity
  8
ACESSORIOS
100
AcDbVertex
100
AcDbPolygonMeshVertex
 10
204.8560552571598
 20
-17.02872890111968
 30
-0.0000000000000213
 70
    64
  0
VERTEX
  5
2E1
330
2D3
100
AcDbEntity
  8
ACESSORIOS
100
AcDbVertex
100
AcDbPolygonMeshVertex
 10
204.8560552571598
 20
-15.53447468134362
 30
-0.0000000000000213
 70
    64
  0
SEQEND
  5
3D9
330
2D3
100
AcDbEntity
  8
ACESSORIOS
  0
3DFACE
  5
2E3
330
1F
100
AcDbEntity
  8
ACESSORIOS
100
AcDbFace
 10
297.8560552571595
 20
-49.0
 30
13.1
 11
299.3560552571595
 21
-49.0
 31
12.54299999999999
 12
299.3560552571595
 22
-49.0
 32
1.399999999999997
 13
297.8560552571595
 23
-49.0
 33
1.399999999999997
  0
3DFACE
  5
2E4
330
1F
100
AcDbEntity
  8
ACESSORIOS
100
AcDbFace
 10
299.3560552571595
 20
-49.0
 30
1.399999999999997
 11
299.3560552571595
 21
0.0
 31
1.399999999999997
 12
299.3560552571595
 22
0.0
 32
12.54299999999999
 13
299.3560552571595
 23
-49.0
 33
12.54299999999999
  0
3DFACE
  5
2E5
330
1F
100
AcDbEntity
  8
ACESSORIOS
100
AcDbFace
 10
297.8560552571595
 20
-49.0
 30
1.399999999999997
 11
297.8560552571595
 21
0.0
 31
1.399999999999997
 12
299.3560552571595
 22
0.0
 32
1.399999999999997
 13
299.3560552571595
 23
-49.0
 33
1.399999999999997
  0
3DFACE
  5
2E6
330
1F
100
AcDbEntity
  8
ACESSORIOS
100
AcDbFace
 10
297.8560552571575
 20
-6.0
 30
1.399999999999997
 11
274.8560552571604
 21
-11.00147770224001
 31
1.399999999999997
 12
274.8560552571604
 22
-37.99852229776004
 32
1.399999999999997
 13
297.8560552571595
 23
-43.0
 33
1.399999999999997
  0
3DFACE
  5
2E7
330
1F
100
AcDbEntity
  8
ACESSORIOS
100
AcDbFace
 10
297.8560552571595
 20
-49.0
 30
13.1
 11
299.1560552571595
 21
-49.0
 31
14.39999999999999
 12
301.2130552571595
 22
-49.0
 32
14.39999999999999
 13
299.3560552571595
 23
-49.0
 33
12.54299999999999
  0
3DFACE
  5
2E8
330
1F
100
AcDbEntity
  8
ACESSORIOS
100
AcDbFace
 10
297.8560552571595
 20
0.0
 30
13.1
 11
299.1560552571595
 21
0.0
 31
14.39999999999999
 12
301.2130552571595
 22
0.0
 32
14.39999999999999
 13
299.3560552571595
 23
0.0
 33
12.54299999999999
  0
3DFACE
  5
2E9
330
1F
100
AcDbEntity
  8
ACESSORIOS
100
AcDbFace
 10
299.3560552571595
 20
-49.0
 30
12.54299999999999
 11
299.3560552571595
 21
0.0
 31
12.54299999999999
 12
301.2130552571595
 22
0.0
 32
14.39999999999999
 13
301.2130552571595
 23
-49.0
 33
14.39999999999999
  0
3DFACE
  5
2EA
330
1F
100
AcDbEntity
  8
ACESSORIOS
100
AcDbFace
 10
301.2130552571595
 20
-49.0
 30
14.39999999999999
 11
299.1560552571595
 21
-49.0
 31
14.39999999999999
 12
299.1560552571595
 22
0.0
 32
14.39999999999999
 13
301.2130552571595
 23
0.0
 33
14.39999999999999
  0
3DFACE
  5
2EB
330
1F
100
AcDbEntity
  8
ACESSORIOS
100
AcDbFace
 10
299.1560552571595
 20
0.0
 30
14.39999999999999
 11
297.8560552571595
 21
0.0
 31
13.1
 12
297.8560552571595
 22
-49.0
 32
13.1
 13
299.1560552571595
 23
-49.0
 33
14.39999999999999
  0
3DFACE
  5
2EC
330
1F
100
AcDbEntity
  8
ACESSORIOS
100
AcDbFace
 10
274.8560552571597
 20
-11.00147770224029
 30
-0.0000000000000213
 11
274.85605525716
 21
-37.99852229776011
 31
-0.0000000000000142
 12
204.8560552571595
 22
-33.46552531865601
 32
0.0
 13
204.8560552571595
 23
-15.53447468134399
 33
0.0
  0
3DFACE
  5
2ED
330
1F
100
AcDbEntity
  8
ACESSORIOS
100
AcDbFace
 10
272.0262167106735
 20
-30.05000000000001
 30
12.89999999999999
 11
272.0262167106735
 21
-18.94999999999987
 31
12.89999999999999
 12
296.3560552571595
 22
-18.95000000000002
 32
12.89999999999999
 13
296.3560552571595
 23
-30.05000000000001
 33
12.89999999999999
  0
3DFACE
  5
2EE
330
1F
100
AcDbEntity
  8
ACESSORIOS
100
AcDbFace
 10
204.8560552571595
 20
-30.05000000000001
 30
10.2301599654524
 11
204.8560552571595
 21
-18.95000000000002
 31
10.2301599654531
 12
272.0262167106735
 22
-18.94999999999987
 32
12.89999999999999
 13
272.0262167106735
 23
-30.05000000000001
 33
12.89999999999999
  0
3DFACE
  5
38D
330
1F
100
AcDbEntity
  8
ACESSORIOS
100
AcDbFace
 10
204.8560552571593
 20
-25.24330343736628
 30
1.399999999999997
 11
204.8560552571595
 21
-23.75669656263406
 31
1.399999999999997
 12
204.8560552571597
 22
-24.49999999999994
 32
-0.0000000000000213
 13
204.8560552571597
 23
-24.49999999999994
 33
-0.0000000000000213
  0
POLYLINE
  5
38E
330
1F
100
AcDbEntity
  8
ACESSORIOS
100
AcDbPolygonMesh
 66
     1
 10
0.0
 20
0.0
 30
0.0
 70
    16
 71
     2
 72
     7
  0
VERTEX
  5
38F
330
38E
100
AcDbEntity
  8
ACESSORIOS
100
AcDbVertex
100
AcDbPolygonMeshVertex
 10
204.8560552571595
 20
-18.94999999999999
 30
6.899999999999977
 70
    64
  0
VERTEX
  5
390
330
38E
100
AcDbEntity
  8
ACESSORIOS
100
AcDbVertex
100
AcDbPolygonMeshVertex
 10
204.8560552571595
 20
-19.10829772803217
 30
5.583927581606097
 70
    64
  0
VERTEX
  5
391
330
38E
100
AcDbEntity
  8
ACESSORIOS
100
AcDbVertex
100
AcDbPolygonMeshVertex
 10
204.8560552571595
 20
-19.57416094070527
 30
4.342929496097831
 70
    64
  0
VERTEX
  5
392
330
38E
100
AcDbEntity
  8
ACESSORIOS
100
AcDbVertex
100
AcDbPolygonMeshVertex
 10
204.8560552571595
 20
-20.32101483148236
 30
3.247797519125001
 70
    64
  0
VERTEX
  5
393
330
38E
100
AcDbEntity
  8
ACESSORIOS
100
AcDbVertex
100
AcDbPolygonMeshVertex
 10
204.8560552571595
 20
-21.3062556979915
 30
2.361002607030023
 70
    64
  0
VERTEX
  5
394
330
38E
100
AcDbEntity
  8
ACESSORIOS
100
AcDbVertex
100
AcDbPolygonMeshVertex
 10
204.8560552571595
 20
-22.47368123726596
 30
1.733131289476004
 70
    64
  0
VERTEX
  5
395
330
38E
100
AcDbEntity
  8
ACESSORIOS
100
AcDbVertex
100
AcDbPolygonMeshVertex
 10
204.8560552571595
 20
-23.75669656263406
 30
1.399999999999997
 70
    64
  0
VERTEX
  5
396
330
38E
100
AcDbEntity
  8
ACESSORIOS
100
AcDbVertex
100
AcDbPolygonMeshVertex
 10
204.8560552571595
 20
-18.94999999999999
 30
6.899999999999977
 70
    64
  0
VERTEX
  5
397
330
38E
100
AcDbEntity
  8
ACESSORIOS
100
AcDbVertex
100
AcDbPolygonMeshVertex
 10
204.8560552571595
 20
-19.75111609377228
 30
6.899999999999977
 70
    64
  0
VERTEX
  5
398
330
38E
100
AcDbEntity
  8
ACESSORIOS
100
AcDbVertex
100
AcDbPolygonMeshVertex
 10
204.8560552571595
 20
-20.55223218754457
 30
6.89999999999998
 70
    64
  0
VERTEX
  5
399
330
38E
100
AcDbEntity
  8
ACESSORIOS
100
AcDbVertex
100
AcDbPolygonMeshVertex
 10
204.8560552571595
 20
-21.3533482813169
 30
6.89999999999998
 70
    64
  0
VERTEX
  5
39A
330
38E
100
AcDbEntity
  8
ACESSORIOS
100
AcDbVertex
100
AcDbPolygonMeshVertex
 10
204.8560552571595
 20
-22.15446437508919
 30
6.89999999999998
 70
    64
  0
VERTEX
  5
39B
330
38E
100
AcDbEntity
  8
ACESSORIOS
100
AcDbVertex
100
AcDbPolygonMeshVertex
 10
204.8560552571595
 20
-22.95558046886148
 30
6.899999999999981
 70
    64
  0
VERTEX
  5
39C
330
38E
100
AcDbEntity
  8
ACESSORIOS
100
AcDbVertex
100
AcDbPolygonMeshVertex
 10
204.8560552571595
 20
-23.75669656263378
 30
6.899999999999981
 70
    64
  0
SEQEND
  5
3DA
330
38E
100
AcDbEntity
  8
ACESSORIOS
  0
3DFACE
  5
39E
330
1F
100
AcDbEntity
  8
ACESSORIOS
100
AcDbFace
 10
204.8560552571595
 20
-25.243303437366
 30
6.899999999999991
 11
204.8560552571595
 21
-23.75669656263378
 31
6.899999999999981
 12
204.8560552571595
 22
-23.75669656263406
 32
1.399999999999997
 13
204.8560552571596
 23
-25.24330343736628
 33
1.399999999999997
  0
3DFACE
  5
39F
330
1F
100
AcDbEntity
  8
ACESSORIOS
100
AcDbFace
 10
204.8560552571595
 20
-30.05000000000001
 30
6.899999999999995
 11
204.8560552571591
 21
-30.04999999999995
 31
10.23015996545239
 12
204.8560552571591
 22
-18.94999999999996
 32
10.23015996545309
 13
204.8560552571595
 23
-18.94999999999999
 33
6.899999999999977
  0
POLYLINE
  5
3A0
330
1F
100
AcDbEntity
  8
ACESSORIOS
100
AcDbPolygonMesh
 66
     1
 10
0.0
 20
0.0
 30
0.0
 70
    16
 71
     2
 72
     7
  0
VERTEX
  5
3A1
330
3A0
100
AcDbEntity
  8
ACESSORIOS
100
AcDbVertex
100
AcDbPolygonMeshVertex
 10
204.8560552571595
 20
-25.24330343736597
 30
1.399999999999997
 70
    64
  0
VERTEX
  5
3A2
330
3A0
100
AcDbEntity
  8
ACESSORIOS
100
AcDbVertex
100
AcDbPolygonMeshVertex
 10
204.8560552571595
 20
-26.52631876273404
 30
1.733131289475988
 70
    64
  0
VERTEX
  5
3A3
330
3A0
100
AcDbEntity
  8
ACESSORIOS
100
AcDbVertex
100
AcDbPolygonMeshVertex
 10
204.8560552571595
 20
-27.6937443020085
 30
2.361002607030016
 70
    64
  0
VERTEX
  5
3A4
330
3A0
100
AcDbEntity
  8
ACESSORIOS
100
AcDbVertex
100
AcDbPolygonMeshVertex
 10
204.8560552571595
 20
-28.67898516851767
 30
3.247797519125003
 70
    64
  0
VERTEX
  5
3A5
330
3A0
100
AcDbEntity
  8
ACESSORIOS
100
AcDbVertex
100
AcDbPolygonMeshVertex
 10
204.8560552571595
 20
-29.42583905929473
 30
4.342929496097845
 70
    64
  0
VERTEX
  5
3A6
330
3A0
100
AcDbEntity
  8
ACESSORIOS
100
AcDbVertex
100
AcDbPolygonMeshVertex
 10
204.8560552571595
 20
-29.89170227196783
 30
5.583927581606118
 70
    64
  0
VERTEX
  5
3A7
330
3A0
100
AcDbEntity
  8
ACESSORIOS
100
AcDbVertex
100
AcDbPolygonMeshVertex
 10
204.8560552571595
 20
-30.05000000000001
 30
6.899999999999997
 70
    64
  0
VERTEX
  5
3A8
330
3A0
100
AcDbEntity
  8
ACESSORIOS
100
AcDbVertex
100
AcDbPolygonMeshVertex
 10
204.8560552571595
 20
-25.243303437366
 30
6.899999999999991
 70
    64
  0
VERTEX
  5
3A9
330
3A0
100
AcDbEntity
  8
ACESSORIOS
100
AcDbVertex
100
AcDbPolygonMeshVertex
 10
204.8560552571595
 20
-26.04441953113834
 30
6.899999999999991
 70
    64
  0
VERTEX
  5
3AA
330
3A0
100
AcDbEntity
  8
ACESSORIOS
100
AcDbVertex
100
AcDbPolygonMeshVertex
 10
204.8560552571595
 20
-26.84553562491068
 30
6.899999999999991
 70
    64
  0
VERTEX
  5
3AB
330
3A0
100
AcDbEntity
  8
ACESSORIOS
100
AcDbVertex
100
AcDbPolygonMeshVertex
 10
204.8560552571595
 20
-27.64665171868299
 30
6.899999999999991
 70
    64
  0
VERTEX
  5
3AC
330
3A0
100
AcDbEntity
  8
ACESSORIOS
100
AcDbVertex
100
AcDbPolygonMeshVertex
 10
204.8560552571595
 20
-28.44776781245534
 30
6.899999999999995
 70
    64
  0
VERTEX
  5
3AD
330
3A0
100
AcDbEntity
  8
ACESSORIOS
100
AcDbVertex
100
AcDbPolygonMeshVertex
 10
204.8560552571595
 20
-29.24888390622769
 30
6.899999999999995
 70
    64
  0
VERTEX
  5
3AE
330
3A0
100
AcDbEntity
  8
ACESSORIOS
100
AcDbVertex
100
AcDbPolygonMeshVertex
 10
204.8560552571595
 20
-30.05000000000001
 30
6.899999999999995
 70
    64
  0
SEQEND
  5
3DB
330
3A0
100
AcDbEntity
  8
ACESSORIOS
  0
3DFACE
  5
3B0
330
1F
100
AcDbEntity
  8
ACESSORIOS
100
AcDbFace
 10
96.36000000000016
 20
-25.24330343736628
 30
1.399999999999997
 11
96.36000000000002
 21
-23.75669656263406
 31
1.399999999999997
 12
96.35999999999977
 22
-24.49999999999994
 32
-0.0000000000000213
 13
96.35999999999977
 23
-24.49999999999994
 33
-0.0000000000000213
  0
ENDSEC
  0
SECTION
  2
OBJECTS
  0
DICTIONARY
  5
C
330
0
100
AcDbDictionary
281
     1
  3
ACAD_2007HEADERVARS_RT
350
BA
  3
ACAD_BACKGROUND
350
3E0
  3
ACAD_COLOR
350
6C
  3
ACAD_GROUP
350
D
  3
ACAD_LAYOUT
350
1A
  3
ACAD_MATERIAL
350
6B
  3
ACAD_MLEADERSTYLE
350
61
  3
ACAD_MLINESTYLE
350
17
  3
ACAD_PLOTSETTINGS
350
19
  3
ACAD_PLOTSTYLENAME
350
E
  3
ACAD_SCALELIST
350
3D
  3
ACAD_TABLESTYLE
350
92
  3
ACAD_VISUALSTYLE
350
29
  3
ACDB_RECOMPOSE_DATA
350
B9
  3
AcDbVariableDictionary
350
59
  0
DICTIONARY
  5
BA
102
{ACAD_REACTORS
330
C
102
}
330
C
100
AcDbDictionary
281
     1
  3
DIMJOGANG
350
BB
  0
DICTIONARY
  5
3E0
102
{ACAD_REACTORS
330
C
102
}
330
C
100
AcDbDictionary
281
     1
  0
DICTIONARY
  5
6C
102
{ACAD_REACTORS
330
C
102
}
330
C
100
AcDbDictionary
281
     1
  0
DICTIONARY
  5
D
102
{ACAD_REACTORS
330
C
102
}
330
C
100
AcDbDictionary
281
     1
  0
DICTIONARY
  5
1A
102
{ACAD_REACTORS
330
C
102
}
330
C
100
AcDbDictionary
281
     1
  3
Layout1
350
74
  3
Layout2
350
6E
  3
Model
350
22
  0
DICTIONARY
  5
6B
102
{ACAD_REACTORS
330
C
102
}
330
C
100
AcDbDictionary
281
     1
  3
BYBLOCK
350
2F3
  3
BYLAYER
350
2F7
  3
GLOBAL
350
2FE
  0
DICTIONARY
  5
61
102
{ACAD_REACTORS
330
C
102
}
330
C
100
AcDbDictionary
281
     1
  3
STANDARD
350
62
  0
DICTIONARY
  5
17
102
{ACAD_REACTORS
330
C
102
}
330
C
100
AcDbDictionary
281
     1
  3
Standard
350
18
  0
DICTIONARY
  5
19
102
{ACAD_REACTORS
330
C
102
}
330
C
100
AcDbDictionary
281
     1
  0
ACDBDICTIONARYWDFLT
  5
E
102
{ACAD_REACTORS
330
C
102
}
330
C
100
AcDbDictionary
281
     1
  3
Normal
350
F
100
AcDbDictionaryWithDefault
340
F
  0
DICTIONARY
  5
3D
102
{ACAD_REACTORS
330
C
102
}
330
C
100
AcDbDictionary
281
     1
  3
A0
350
3E
  3
A1
350
3F
  3
A2
350
40
  3
A3
350
41
  3
A4
350
42
  3
A5
350
43
  3
A6
350
44
  3
A7
350
45
  3
A8
350
46
  3
A9
350
47
  3
B0
350
48
  3
B1
350
49
  3
B2
350
4A
  3
B3
350
4B
  3
B4
350
4C
  3
B5
350
4D
  3
B6
350
4E
  0
DICTIONARY
  5
92
102
{ACAD_REACTORS
330
C
102
}
330
C
100
AcDbDictionary
281
     1
  3
STANDARD
350
60
  0
DICTIONARY
  5
29
102
{ACAD_REACTORS
330
C
102
}
330
C
100
AcDbDictionary
281
     1
  3
2DWIREFRAME
350
2F
  3
3D HIDDEN
350
31
  3
3DWIREFRAME
350
30
  3
BASIC
350
2E
  3
BRIGHTEN
350
35
  3
COLORCHANGE
350
39
  3
CONCEPTUAL
350
32
  3
DIM
350
34
  3
EDGECOLOROFF
350
3C
  3
FACEPATTERN
350
38
  3
FLAT
350
2A
  3
FLATWITHEDGES
350
2B
  3
GOURAUD
350
2C
  3
GOURAUDWITHEDGES
350
2D
  3
JITTEROFF
350
3A
  3
LINEPATTERN
350
37
  3
OVERHANGOFF
350
3B
  3
REALISTIC
350
33
  3
THICKEN
350
36
  0
XRECORD
  5
B9
102
{ACAD_REACTORS
330
C
102
}
330
C
100
AcDbXrecord
280
     1
 90
        1
330
60
  0
DICTIONARY
  5
59
102
{ACAD_REACTORS
330
C
102
}
330
C
100
AcDbDictionary
281
     1
  3
CANNOSCALE
350
B2
  3
CMLEADERSTYLE
350
B0
  3
CTABLESTYLE
350
AF
  3
DIMASSOC
350
E9
  3
HALOGAP
350
EA
  3
HIDETEXT
350
EC
  3
INDEXCTL
350
EB
  3
LAYEREVAL
350
B4
  3
LAYERNOTIFY
350
B5
  3
LIGHTINGUNITS
350
B3
  3
MSLTSCALE
350
B1
  3
XCLIPFRAME
350
B6
  0
XRECORD
  5
BB
102
{ACAD_REACTORS
330
BA
102
}
330
BA
100
AcDbXrecord
280
     1
 40
1.570796326794894
  0
LAYOUT
  5
74
102
{ACAD_REACTORS
330
1A
102
}
330
1A
100
AcDbPlotSettings
  1

  2
\\ADSCCNDC1\hq601xrx1
  4

  6

 40
0.0
 41
0.0
 42
0.0
 43
0.0
 44
0.0
 45
0.0
 46
0.0
 47
0.0
 48
0.0
 49
0.0
140
0.0
141
0.0
142
1.0
143
1.0
 70
   688
 72
     0
 73
     0
 74
     5
  7

 75
    16
147
1.0
 76
     0
 77
     2
 78
   300
148
0.0
149
0.0
100
AcDbLayout
  1
Layout1
 70
     1
 71
     1
 10
0.0
 20
0.0
 11
420.0
 21
297.0
 12
0.0
 22
0.0
 32
0.0
 14
1.000000000000000E+20
 24
1.000000000000000E+20
 34
1.000000000000000E+20
 15
-1.000000000000000E+20
 25
-1.000000000000000E+20
 35
-1.000000000000000E+20
146
0.0
 13
0.0
 23
0.0
 33
0.0
 16
1.0
 26
0.0
 36
0.0
 17
0.0
 27
1.0
 37
0.0
 76
     0
330
73
  0
LAYOUT
  5
6E
102
{ACAD_REACTORS
330
1A
102
}
330
1A
100
AcDbPlotSettings
  1

  2
none_device
  4
Letter_(8.50_x_11.00_Inches)
  6

 40
6.349999999999997
 41
6.349999999999997
 42
6.350005079999997
 43
6.350005079999997
 44
215.9
 45
279.4
 46
0.0
 47
0.0
 48
0.0
 49
0.0
140
0.0
141
0.0
142
1.0
143
1.0
 70
   688
 72
     0
 73
     0
 74
     5
  7

 75
    16
147
1.0
 76
     0
 77
     2
 78
   300
148
0.0
149
0.0
100
AcDbLayout
  1
Layout2
 70
     1
 71
     2
 10
0.0
 20
0.0
 11
12.0
 21
9.0
 12
0.0
 22
0.0
 32
0.0
 14
0.0
 24
0.0
 34
0.0
 15
0.0
 25
0.0
 35
0.0
146
0.0
 13
0.0
 23
0.0
 33
0.0
 16
1.0
 26
0.0
 36
0.0
 17
0.0
 27
1.0
 37
0.0
 76
     0
330
315
  0
LAYOUT
  5
22
102
{ACAD_REACTORS
330
1A
102
}
330
1A
100
AcDbPlotSettings
  1

  2
none_device
  4
Letter_(8.50_x_11.00_Inches)
  6

 40
6.349999999999997
 41
6.349999999999997
 42
6.350005079999997
 43
6.350005079999997
 44
215.9
 45
279.4
 46
0.0
 47
0.0
 48
0.0
 49
0.0
140
0.0
141
0.0
142
1.0
143
35.71588973934737
 70
 11952
 72
     0
 73
     0
 74
     0
  7

 75
     0
147
0.0279987425008294
 76
     0
 77
     2
 78
   300
148
0.0
149
0.0
100
AcDbLayout
  1
Model
 70
     1
 71
     0
 10
0.0
 20
0.0
 11
420.0
 21
297.0
 12
0.0
 22
0.0
 32
0.0
 14
0.0030000000000427
 24
-49.00000000000003
 34
-0.0000000000000213
 15
301.2130552571595
 25
0.0
 35
14.39999999999999
146
0.0
 13
0.0
 23
0.0
 33
0.0
 16
1.0
 26
0.0
 36
0.0
 17
0.0
 27
1.0
 37
0.0
 76
     0
330
1F
331
97
  0
MATERIAL
  5
2F3
102
{ACAD_XDICTIONARY
360
3B5
102
}
102
{ACAD_REACTORS
330
6B
102
}
330
6B
100
AcDbMaterial
  1
BYBLOCK
 72
     0
 43
0.0208333333333333
 43
0.0
 43
0.0
 43
0.0
 43
0.0
 43
0.0208333333333333
 43
0.0
 43
0.0
 43
0.0
 43
0.0
 43
1.0
 43
0.0
 43
0.0
 43
0.0
 43
0.0
 43
1.0
 77
     0
 47
0.0208333333333333
 47
0.0
 47
0.0
 47
0.0
 47
0.0
 47
0.0208333333333333
 47
0.0
 47
0.0
 47
0.0
 47
0.0
 47
1.0
 47
0.0
 47
0.0
 47
0.0
 47
0.0
 47
1.0
171
     0
 49
0.0208333333333333
 49
0.0
 49
0.0
 49
0.0
 49
0.0
 49
0.0208333333333333
 49
0.0
 49
0.0
 49
0.0
 49
0.0
 49
1.0
 49
0.0
 49
0.0
 49
0.0
 49
0.0
 49
1.0
175
     0
142
0.0208333333333333
142
0.0
142
0.0
142
0.0
142
0.0
142
0.0208333333333333
142
0.0
142
0.0
142
0.0
142
0.0
142
1.0
142
0.0
142
0.0
142
0.0
142
0.0
142
1.0
179
     0
144
0.0208333333333333
144
0.0
144
0.0
144
0.0
144
0.0
144
0.0208333333333333
144
0.0
144
0.0
144
0.0
144
0.0
144
1.0
144
0.0
144
0.0
144
0.0
144
0.0
144
1.0
147
0.0208333333333333
147
0.0
147
0.0
147
0.0
147
0.0
147
0.0208333333333333
147
0.0
147
0.0
147
0.0
147
0.0
147
1.0
147
0.0
147
0.0
147
0.0
147
0.0
147
1.0
 94
      127
  0
MATERIAL
  5
2F7
102
{ACAD_XDICTIONARY
360
3B6
102
}
102
{ACAD_REACTORS
330
6B
102
}
330
6B
100
AcDbMaterial
  1
BYLAYER
 72
     0
 43
0.0208333333333333
 43
0.0
 43
0.0
 43
0.0
 43
0.0
 43
0.0208333333333333
 43
0.0
 43
0.0
 43
0.0
 43
0.0
 43
1.0
 43
0.0
 43
0.0
 43
0.0
 43
0.0
 43
1.0
 77
     0
 47
0.0208333333333333
 47
0.0
 47
0.0
 47
0.0
 47
0.0
 47
0.0208333333333333
 47
0.0
 47
0.0
 47
0.0
 47
0.0
 47
1.0
 47
0.0
 47
0.0
 47
0.0
 47
0.0
 47
1.0
171
     0
 49
0.0208333333333333
 49
0.0
 49
0.0
 49
0.0
 49
0.0
 49
0.0208333333333333
 49
0.0
 49
0.0
 49
0.0
 49
0.0
 49
1.0
 49
0.0
 49
0.0
 49
0.0
 49
0.0
 49
1.0
175
     0
142
0.0208333333333333
142
0.0
142
0.0
142
0.0
142
0.0
142
0.0208333333333333
142
0.0
142
0.0
142
0.0
142
0.0
142
1.0
142
0.0
142
0.0
142
0.0
142
0.0
142
1.0
179
     0
144
0.0208333333333333
144
0.0
144
0.0
144
0.0
144
0.0
144
0.0208333333333333
144
0.0
144
0.0
144
0.0
144
0.0
144
1.0
144
0.0
144
0.0
144
0.0
144
0.0
144
1.0
147
0.0208333333333333
147
0.0
147
0.0
147
0.0
147
0.0
147
0.0208333333333333
147
0.0
147
0.0
147
0.0
147
0.0
147
1.0
147
0.0
147
0.0
147
0.0
147
0.0
147
1.0
 94
      127
  0
MATERIAL
  5
2FE
102
{ACAD_XDICTIONARY
360
3B7
102
}
102
{ACAD_REACTORS
330
6B
102
}
330
6B
100
AcDbMaterial
  1
GLOBAL
 72
     0
 43
0.0208333333333333
 43
0.0
 43
0.0
 43
0.0
 43
0.0
 43
0.0208333333333333
 43
0.0
 43
0.0
 43
0.0
 43
0.0
 43
1.0
 43
0.0
 43
0.0
 43
0.0
 43
0.0
 43
1.0
 77
     0
 47
0.0208333333333333
 47
0.0
 47
0.0
 47
0.0
 47
0.0
 47
0.0208333333333333
 47
0.0
 47
0.0
 47
0.0
 47
0.0
 47
1.0
 47
0.0
 47
0.0
 47
0.0
 47
0.0
 47
1.0
171
     0
 49
0.0208333333333333
 49
0.0
 49
0.0
 49
0.0
 49
0.0
 49
0.0208333333333333
 49
0.0
 49
0.0
 49
0.0
 49
0.0
 49
1.0
 49
0.0
 49
0.0
 49
0.0
 49
0.0
 49
1.0
175
     0
142
0.0208333333333333
142
0.0
142
0.0
142
0.0
142
0.0
142
0.0208333333333333
142
0.0
142
0.0
142
0.0
142
0.0
142
1.0
142
0.0
142
0.0
142
0.0
142
0.0
142
1.0
179
     0
144
0.0208333333333333
144
0.0
144
0.0
144
0.0
144
0.0
144
0.0208333333333333
144
0.0
144
0.0
144
0.0
144
0.0
144
1.0
144
0.0
144
0.0
144
0.0
144
0.0
144
1.0
147
0.0208333333333333
147
0.0
147
0.0
147
0.0
147
0.0
147
0.0208333333333333
147
0.0
147
0.0
147
0.0
147
0.0
147
1.0
147
0.0
147
0.0
147
0.0
147
0.0
147
1.0
 94
      127
  0
MLEADERSTYLE
  5
62
102
{ACAD_REACTORS
330
61
102
}
330
61
100
AcDbMLeaderStyle
170
     2
171
     1
172
     0
 90
        2
 40
0.0
 41
0.0
173
     1
 91
-1056964608
340
14
 92
       -2
290
     1
 42
0.09
291
     1
 43
0.36
  3
Standard
 44
0.18
300

342
11
174
     1
178
     6
175
     1
176
     0
 93
-1056964608
 45
0.18
292
     0
297
     0
 46
0.18
 94
-1056964608
 47
1.0
 49
1.0
140
1.0
293
     1
141
0.0
294
     1
177
     0
142
1.0
295
     0
296
     0
143
0.125
1001
ACAD_MLEADERVER
1070
     2
  0
MLINESTYLE
  5
18
102
{ACAD_REACTORS
330
17
102
}
330
17
100
AcDbMlineStyle
  2
STANDARD
 70
     0
  3

 62
   256
 51
90.0
 52
90.0
 71
     2
 49
0.5
 62
   256
  6
BYLAYER
 49
-0.5
 62
   256
  6
BYLAYER
  0
ACDBPLACEHOLDER
  5
F
102
{ACAD_REACTORS
330
E
102
}
330
E
  0
SCALE
  5
3E
102
{ACAD_REACTORS
330
3D
102
}
330
3D
100
AcDbScale
 70
     0
300
1:1
140
1.0
141
1.0
290
     1
  0
SCALE
  5
3F
102
{ACAD_REACTORS
330
3D
102
}
330
3D
100
AcDbScale
 70
     0
300
1:2
140
1.0
141
2.0
290
     0
  0
SCALE
  5
40
102
{ACAD_REACTORS
330
3D
102
}
330
3D
100
AcDbScale
 70
     0
300
1:4
140
1.0
141
4.0
290
     0
  0
SCALE
  5
41
102
{ACAD_REACTORS
330
3D
102
}
330
3D
100
AcDbScale
 70
     0
300
1:5
140
1.0
141
5.0
290
     0
  0
SCALE
  5
42
102
{ACAD_REACTORS
330
3D
102
}
330
3D
100
AcDbScale
 70
     0
300
1:8
140
1.0
141
8.0
290
     0
  0
SCALE
  5
43
102
{ACAD_REACTORS
330
3D
102
}
330
3D
100
AcDbScale
 70
     0
300
1:10
140
1.0
141
10.0
290
     0
  0
SCALE
  5
44
102
{ACAD_REACTORS
330
3D
102
}
330
3D
100
AcDbScale
 70
     0
300
1:16
140
1.0
141
16.0
290
     0
  0
SCALE
  5
45
102
{ACAD_REACTORS
330
3D
102
}
330
3D
100
AcDbScale
 70
     0
300
1:20
140
1.0
141
20.0
290
     0
  0
SCALE
  5
46
102
{ACAD_REACTORS
330
3D
102
}
330
3D
100
AcDbScale
 70
     0
300
1:30
140
1.0
141
30.0
290
     0
  0
SCALE
  5
47
102
{ACAD_REACTORS
330
3D
102
}
330
3D
100
AcDbScale
 70
     0
300
1:40
140
1.0
141
40.0
290
     0
  0
SCALE
  5
48
102
{ACAD_REACTORS
330
3D
102
}
330
3D
100
AcDbScale
 70
     0
300
1:50
140
1.0
141
50.0
290
     0
  0
SCALE
  5
49
102
{ACAD_REACTORS
330
3D
102
}
330
3D
100
AcDbScale
 70
     0
300
1:100
140
1.0
141
100.0
290
     0
  0
SCALE
  5
4A
102
{ACAD_REACTORS
330
3D
102
}
330
3D
100
AcDbScale
 70
     0
300
2:1
140
2.0
141
1.0
290
     0
  0
SCALE
  5
4B
102
{ACAD_REACTORS
330
3D
102
}
330
3D
100
AcDbScale
 70
     0
300
4:1
140
4.0
141
1.0
290
     0
  0
SCALE
  5
4C
102
{ACAD_REACTORS
330
3D
102
}
330
3D
100
AcDbScale
 70
     0
300
8:1
140
8.0
141
1.0
290
     0
  0
SCALE
  5
4D
102
{ACAD_REACTORS
330
3D
102
}
330
3D
100
AcDbScale
 70
     0
300
10:1
140
10.0
141
1.0
290
     0
  0
SCALE
  5
4E
102
{ACAD_REACTORS
330
3D
102
}
330
3D
100
AcDbScale
 70
     0
300
100:1
140
100.0
141
1.0
290
     0
  0
TABLESTYLE
  5
60
102
{ACAD_XDICTIONARY
360
3B8
102
}
102
{ACAD_REACTORS
330
92
102
}
330
92
100
AcDbTableStyle
  3
Standard
 70
     0
 71
     0
 40
1.5
 41
1.5
280
     0
281
     0
  7
Standard
140
4.5
170
     2
 62
     0
 63
     7
283
     0
 90
      512
 91
        0
  1

274
    -2
284
     1
 64
     0
275
    -2
285
     1
 65
     0
276
    -2
286
     1
 66
     0
277
    -2
287
     1
 67
     0
278
    -2
288
     1
 68
     0
279
    -2
289
     1
 69
     0
  7
Standard
140
6.0
170
     5
 62
     0
 63
     7
283
     0
 90
      512
 91
        0
  1

274
    -2
284
     1
 64
     0
275
    -2
285
     1
 65
     0
276
    -2
286
     1
 66
     0
277
    -2
287
     1
 67
     0
278
    -2
288
     1
 68
     0
279
    -2
289
     1
 69
     0
  7
Standard
140
4.5
170
     5
 62
     0
 63
     7
283
     0
 90
      512
 91
        0
  1

274
    -2
284
     1
 64
     0
275
    -2
285
     1
 65
     0
276
    -2
286
     1
 66
     0
277
    -2
287
     1
 67
     0
278
    -2
288
     1
 68
     0
279
    -2
289
     1
 69
     0
  0
VISUALSTYLE
  5
2F
102
{ACAD_XDICTIONARY
360
3B9
102
}
102
{ACAD_REACTORS
330
29
102
}
330
29
100
AcDbVisualStyle
  2
2dWireframe
 70
     4
 71
     0
 72
     2
 73
     0
 90
        0
 40
-0.6
 41
-30.0
 62
     5
 63
     7
421
 16777215
 74
     1
 91
        4
 64
     7
 65
   257
 75
     1
175
     1
 42
1.0
 92
        0
 66
   257
 43
1.0
 76
     1
 77
     6
 78
     2
 67
     7
 79
     5
170
     0
171
     0
290
     0
174
     0
 93
        1
 44
0.0
173
     0
291
     0
 45
0.0
  0
VISUALSTYLE
  5
31
102
{ACAD_XDICTIONARY
360
3BA
102
}
102
{ACAD_REACTORS
330
29
102
}
330
29
100
AcDbVisualStyle
  2
3D Hidden
 70
     6
 71
     1
 72
     2
 73
     2
 90
        0
 40
-0.6
 41
-30.0
 62
     5
 63
     7
421
 16777215
 74
     2
 91
        2
 64
     7
 65
   257
 75
     2
175
     1
 42
179.0
 92
        0
 66
   257
 43
1.0
 76
     1
 77
     6
 78
     2
 67
     7
 79
     3
170
     0
171
     0
290
     0
174
     0
 93
        1
 44
0.0
173
     0
291
     0
 45
0.0
  0
VISUALSTYLE
  5
30
102
{ACAD_XDICTIONARY
360
3BB
102
}
102
{ACAD_REACTORS
330
29
102
}
330
29
100
AcDbVisualStyle
  2
3dWireframe
 70
     5
 71
     0
 72
     2
 73
     0
 90
        0
 40
-0.6
 41
-30.0
 62
     5
 63
     7
421
 16777215
 74
     1
 91
        4
 64
     7
 65
   257
 75
     1
175
     1
 42
1.0
 92
        0
 66
   257
 43
1.0
 76
     1
 77
     6
 78
     2
 67
     7
 79
     5
170
     0
171
     0
290
     0
174
     0
 93
        1
 44
0.0
173
     0
291
     0
 45
0.0
  0
VISUALSTYLE
  5
2E
102
{ACAD_XDICTIONARY
360
3BC
102
}
102
{ACAD_REACTORS
330
29
102
}
330
29
100
AcDbVisualStyle
  2
Basic
 70
     7
 71
     1
 72
     0
 73
     1
 90
        0
 40
-0.6
 41
-30.0
 62
     5
 63
     7
421
 16777215
 74
     0
 91
        4
 64
     7
 65
   257
 75
     1
175
     1
 42
1.0
 92
        8
 66
     7
 43
1.0
 76
     1
 77
     6
 78
     2
 67
     7
 79
     5
170
     0
171
     0
290
     0
174
     0
 93
        1
 44
0.0
173
     0
291
     1
 45
0.0
  0
VISUALSTYLE
  5
35
102
{ACAD_XDICTIONARY
360
3BD
102
}
102
{ACAD_REACTORS
330
29
102
}
330
29
100
AcDbVisualStyle
  2
Brighten
 70
    12
 71
     2
 72
     2
 73
     0
 90
        0
 40
-0.6
 41
-30.0
 62
     5
 63
     7
421
 16777215
 74
     1
 91
        4
 64
     7
 65
   257
 75
     1
175
     1
 42
1.0
 92
        8
 66
     7
 43
1.0
 76
     1
 77
     6
 78
     2
 67
     7
 79
     5
170
     0
171
     0
290
     0
174
     0
 93
        1
 44
50.0
173
     0
291
     1
 45
0.0
  0
VISUALSTYLE
  5
39
102
{ACAD_XDICTIONARY
360
3BE
102
}
102
{ACAD_REACTORS
330
29
102
}
330
29
100
AcDbVisualStyle
  2
ColorChange
 70
    16
 71
     2
 72
     2
 73
     3
 90
        0
 40
-0.6
 41
-30.0
 62
     5
 63
     8
421
  8421504
 74
     1
 91
        4
 64
     7
 65
   257
 75
     1
175
     1
 42
1.0
 92
        8
 66
     8
424
  8421504
 43
1.0
 76
     1
 77
     6
 78
     2
 67
     7
 79
     5
170
     0
171
     0
290
     0
174
     0
 93
        1
 44
0.0
173
     0
291
     1
 45
0.0
  0
VISUALSTYLE
  5
32
102
{ACAD_XDICTIONARY
360
3BF
102
}
102
{ACAD_REACTORS
330
29
102
}
330
29
100
AcDbVisualStyle
  2
Conceptual
 70
     9
 71
     3
 72
     2
 73
     0
 90
        0
 40
-0.6
 41
-30.0
 62
     5
 63
     7
421
 16777215
 74
     2
 91
        2
 64
     7
 65
   257
 75
     1
175
     1
 42
179.0
 92
        8
 66
     7
 43
1.0
 76
     1
 77
     6
 78
     2
 67
     7
 79
     3
170
     0
171
     0
290
     0
174
     0
 93
        1
 44
0.0
173
     0
291
     0
 45
0.0
  0
VISUALSTYLE
  5
34
102
{ACAD_XDICTIONARY
360
3C0
102
}
102
{ACAD_REACTORS
330
29
102
}
330
29
100
AcDbVisualStyle
  2
Dim
 70
    11
 71
     2
 72
     2
 73
     0
 90
        0
 40
-0.6
 41
-30.0
 62
     5
 63
     7
421
 16777215
 74
     1
 91
        4
 64
     7
 65
   257
 75
     1
175
     1
 42
1.0
 92
        8
 66
     7
 43
1.0
 76
     1
 77
     6
 78
     2
 67
     7
 79
     5
170
     0
171
     0
290
     0
174
     0
 93
        1
 44
-50.0
173
     0
291
     1
 45
0.0
  0
VISUALSTYLE
  5
3C
102
{ACAD_XDICTIONARY
360
3C1
102
}
102
{ACAD_REACTORS
330
29
102
}
330
29
100
AcDbVisualStyle
  2
EdgeColorOff
 70
    22
 71
     2
 72
     2
 73
     0
 90
        0
 40
-0.6
 41
-30.0
 62
     5
 63
     7
421
 16777215
 74
     1
 91
        4
 64
     7
 65
   257
 75
     1
175
     1
 42
1.0
 92
        8
 66
     7
 43
1.0
 76
     1
 77
     6
 78
     2
 67
     7
 79
     5
170
     0
171
     0
290
     0
174
     0
 93
        1
 44
0.0
173
     0
291
     1
 45
0.0
  0
VISUALSTYLE
  5
38
102
{ACAD_XDICTIONARY
360
3C2
102
}
102
{ACAD_REACTORS
330
29
102
}
330
29
100
AcDbVisualStyle
  2
Facepattern
 70
    15
 71
     2
 72
     2
 73
     0
 90
        0
 40
-0.6
 41
-30.0
 62
     5
 63
     7
421
 16777215
 74
     1
 91
        4
 64
     7
 65
   257
 75
     1
175
     1
 42
1.0
 92
        8
 66
     7
 43
1.0
 76
     1
 77
     6
 78
     2
 67
     7
 79
     5
170
     0
171
     0
290
     0
174
     0
 93
        1
 44
0.0
173
     0
291
     1
 45
0.0
  0
VISUALSTYLE
  5
2A
102
{ACAD_XDICTIONARY
360
3C3
102
}
102
{ACAD_REACTORS
330
29
102
}
330
29
100
AcDbVisualStyle
  2
Flat
 70
     0
 71
     2
 72
     1
 73
     1
 90
        2
 40
-0.6
 41
30.0
 62
     5
 63
     7
421
 16777215
 74
     0
 91
        4
 64
     7
 65
   257
 75
     1
175
     1
 42
1.0
 92
        8
 66
     7
 43
1.0
 76
     1
 77
     6
 78
     2
 67
     7
 79
     5
170
     0
171
     0
290
     0
174
     0
 93
       13
 44
0.0
173
     0
291
     1
 45
0.0
  0
VISUALSTYLE
  5
2B
102
{ACAD_XDICTIONARY
360
3C4
102
}
102
{ACAD_REACTORS
330
29
102
}
330
29
100
AcDbVisualStyle
  2
FlatWithEdges
 70
     1
 71
     2
 72
     1
 73
     1
 90
        2
 40
-0.6
 41
30.0
 62
     5
 63
     7
421
 16777215
 74
     1
 91
        4
 64
     7
 65
   257
 75
     1
175
     1
 42
1.0
 92
        0
 66
   257
 43
1.0
 76
     1
 77
     6
 78
     2
 67
     7
 79
     5
170
     0
171
     0
290
     0
174
     0
 93
       13
 44
0.0
173
     0
291
     1
 45
0.0
  0
VISUALSTYLE
  5
2C
102
{ACAD_XDICTIONARY
360
3C5
102
}
102
{ACAD_REACTORS
330
29
102
}
330
29
100
AcDbVisualStyle
  2
Gouraud
 70
     2
 71
     2
 72
     2
 73
     1
 90
        2
 40
-0.6
 41
30.0
 62
     5
 63
     7
421
 16777215
 74
     0
 91
        4
 64
     7
 65
   257
 75
     1
175
     1
 42
1.0
 92
        0
 66
     7
 43
1.0
 76
     1
 77
     6
 78
     2
 67
     7
 79
     5
170
     0
171
     0
290
     0
174
     0
 93
       13
 44
0.0
173
     0
291
     1
 45
0.0
  0
VISUALSTYLE
  5
2D
102
{ACAD_XDICTIONARY
360
3C6
102
}
102
{ACAD_REACTORS
330
29
102
}
330
29
100
AcDbVisualStyle
  2
GouraudWithEdges
 70
     3
 71
     2
 72
     2
 73
     1
 90
        2
 40
-0.6
 41
30.0
 62
     5
 63
     7
421
 16777215
 74
     1
 91
        4
 64
     7
 65
   257
 75
     1
175
     1
 42
1.0
 92
        0
 66
   257
 43
1.0
 76
     1
 77
     6
 78
     2
 67
     7
 79
     5
170
     0
171
     0
290
     0
174
     0
 93
       13
 44
0.0
173
     0
291
     1
 45
0.0
  0
VISUALSTYLE
  5
3A
102
{ACAD_XDICTIONARY
360
3C7
102
}
102
{ACAD_REACTORS
330
29
102
}
330
29
100
AcDbVisualStyle
  2
JitterOff
 70
    20
 71
     2
 72
     2
 73
     0
 90
        0
 40
-0.6
 41
-30.0
 62
     5
 63
     7
421
 16777215
 74
     1
 91
        4
 64
     7
 65
   257
 75
     1
175
     1
 42
1.0
 92
       10
 66
     7
 43
1.0
 76
     1
 77
     6
 78
     2
 67
     7
 79
     5
170
     0
171
     0
290
     0
174
     0
 93
        1
 44
0.0
173
     0
291
     1
 45
0.0
  0
VISUALSTYLE
  5
37
102
{ACAD_XDICTIONARY
360
3C8
102
}
102
{ACAD_REACTORS
330
29
102
}
330
29
100
AcDbVisualStyle
  2
Linepattern
 70
    14
 71
     2
 72
     2
 73
     0
 90
        0
 40
-0.6
 41
-30.0
 62
     5
 63
     7
421
 16777215
 74
     1
 91
        4
 64
     7
 65
   257
 75
     7
175
     7
 42
1.0
 92
        8
 66
     7
 43
1.0
 76
     1
 77
     6
 78
     2
 67
     7
 79
     5
170
     0
171
     0
290
     0
174
     0
 93
        1
 44
0.0
173
     0
291
     1
 45
0.0
  0
VISUALSTYLE
  5
3B
102
{ACAD_XDICTIONARY
360
3C9
102
}
102
{ACAD_REACTORS
330
29
102
}
330
29
100
AcDbVisualStyle
  2
OverhangOff
 70
    21
 71
     2
 72
     2
 73
     0
 90
        0
 40
-0.6
 41
-30.0
 62
     5
 63
     7
421
 16777215
 74
     1
 91
        4
 64
     7
 65
   257
 75
     1
175
     1
 42
1.0
 92
        9
 66
     7
 43
1.0
 76
     1
 77
     6
 78
     2
 67
     7
 79
     5
170
     0
171
     0
290
     0
174
     0
 93
        1
 44
0.0
173
     0
291
     1
 45
0.0
  0
VISUALSTYLE
  5
33
102
{ACAD_XDICTIONARY
360
3CA
102
}
102
{ACAD_REACTORS
330
29
102
}
330
29
100
AcDbVisualStyle
  2
Realistic
 70
     8
 71
     2
 72
     2
 73
     0
 90
        0
 40
-0.6
 41
-30.0
 62
     5
 63
     7
421
 16777215
 74
     1
 91
        0
 64
     7
 65
   257
 75
     1
175
     1
 42
1.0
 92
        8
 66
     8
424
  7895160
 43
1.0
 76
     1
 77
     6
 78
     2
 67
     7
 79
     5
170
     0
171
     0
290
     0
174
     0
 93
       13
 44
0.0
173
     0
291
     0
 45
0.0
  0
VISUALSTYLE
  5
36
102
{ACAD_XDICTIONARY
360
3CB
102
}
102
{ACAD_REACTORS
330
29
102
}
330
29
100
AcDbVisualStyle
  2
Thicken
 70
    13
 71
     2
 72
     2
 73
     0
 90
        0
 40
-0.6
 41
-30.0
 62
     5
 63
     7
421
 16777215
 74
     1
 91
        4
 64
     7
 65
   257
 75
     1
175
     1
 42
1.0
 92
       12
 66
     7
 43
1.0
 76
     1
 77
     6
 78
     2
 67
     7
 79
     5
170
     0
171
     0
290
     0
174
     0
 93
        1
 44
0.0
173
     0
291
     1
 45
0.0
  0
DICTIONARYVAR
  5
B2
102
{ACAD_REACTORS
330
59
102
}
330
59
100
DictionaryVariables
280
     0
  1
1:1
  0
DICTIONARYVAR
  5
B0
102
{ACAD_REACTORS
330
59
102
}
330
59
100
DictionaryVariables
280
     0
  1
STANDARD
  0
DICTIONARYVAR
  5
AF
102
{ACAD_REACTORS
330
59
102
}
330
59
100
DictionaryVariables
280
     0
  1
STANDARD
  0
DICTIONARYVAR
  5
E9
102
{ACAD_REACTORS
330
59
102
}
330
59
100
DictionaryVariables
280
     0
  1
2
  0
DICTIONARYVAR
  5
EA
102
{ACAD_REACTORS
330
59
102
}
330
59
100
DictionaryVariables
280
     0
  1
0
  0
DICTIONARYVAR
  5
EC
102
{ACAD_REACTORS
330
59
102
}
330
59
100
DictionaryVariables
280
     0
  1
1
  0
DICTIONARYVAR
  5
EB
102
{ACAD_REACTORS
330
59
102
}
330
59
100
DictionaryVariables
280
     0
  1
0
  0
DICTIONARYVAR
  5
B4
102
{ACAD_REACTORS
330
59
102
}
330
59
100
DictionaryVariables
280
     0
  1
0
  0
DICTIONARYVAR
  5
B5
102
{ACAD_REACTORS
330
59
102
}
330
59
100
DictionaryVariables
280
     0
  1
0
  0
DICTIONARYVAR
  5
B3
102
{ACAD_REACTORS
330
59
102
}
330
59
100
DictionaryVariables
280
     0
  1
2
  0
DICTIONARYVAR
  5
B1
102
{ACAD_REACTORS
330
59
102
}
330
59
100
DictionaryVariables
280
     0
  1
1
  0
DICTIONARYVAR
  5
B6
102
{ACAD_REACTORS
330
59
102
}
330
59
100
DictionaryVariables
280
     0
  1
0
  0
DICTIONARY
  5
3B5
330
2F3
100
AcDbDictionary
280
     1
281
     1
  3
BUMPTILE
360
1C
  3
DIFFUSETILE
360
1B
  3
OPACITYTILE
360
2F5
  3
REFLECTIONTILE
360
1E
  3
REFRACTIONTILE
360
2F6
  3
SPECULARTILE
360
1D
  0
DICTIONARY
  5
3B6
330
2F7
100
AcDbDictionary
280
     1
281
     1
  3
BUMPTILE
360
2F9
  3
DIFFUSETILE
360
13
  3
OPACITYTILE
360
2FA
  3
REFLECTIONTILE
360
2FB
  3
REFRACTIONTILE
360
2FC
  3
SPECULARTILE
360
2FD
  0
DICTIONARY
  5
3B7
330
2FE
100
AcDbDictionary
280
     1
281
     1
  3
BUMPTILE
360
24
  3
DIFFUSETILE
360
23
  3
OPACITYTILE
360
300
  3
REFLECTIONTILE
360
26
  3
REFRACTIONTILE
360
28
  3
SPECULARTILE
360
25
  0
DICTIONARY
  5
3B8
330
60
100
AcDbDictionary
280
     1
281
     1
  3
ACAD_ROUNDTRIP_2008_TABLESTYLE_CELLSTYLEMAP
360
B8
  0
DICTIONARY
  5
3B9
330
2F
100
AcDbDictionary
280
     1
281
     1
  3
ACAD_XREC_ROUNDTRIP
360
CA
  0
DICTIONARY
  5
3BA
330
31
100
AcDbDictionary
280
     1
281
     1
  3
ACAD_XREC_ROUNDTRIP
360
CE
  0
DICTIONARY
  5
3BB
330
30
100
AcDbDictionary
280
     1
281
     1
  3
ACAD_XREC_ROUNDTRIP
360
CC
  0
DICTIONARY
  5
3BC
330
2E
100
AcDbDictionary
280
     1
281
     1
  3
ACAD_XREC_ROUNDTRIP
360
C8
  0
DICTIONARY
  5
3BD
330
35
100
AcDbDictionary
280
     1
281
     1
  3
ACAD_XREC_ROUNDTRIP
360
D6
  0
DICTIONARY
  5
3BE
330
39
100
AcDbDictionary
280
     1
281
     1
  3
ACAD_XREC_ROUNDTRIP
360
DE
  0
DICTIONARY
  5
3BF
330
32
100
AcDbDictionary
280
     1
281
     1
  3
ACAD_XREC_ROUNDTRIP
360
D0
  0
DICTIONARY
  5
3C0
330
34
100
AcDbDictionary
280
     1
281
     1
  3
ACAD_XREC_ROUNDTRIP
360
D4
  0
DICTIONARY
  5
3C1
330
3C
100
AcDbDictionary
280
     1
281
     1
  3
ACAD_XREC_ROUNDTRIP
360
E4
  0
DICTIONARY
  5
3C2
330
38
100
AcDbDictionary
280
     1
281
     1
  3
ACAD_XREC_ROUNDTRIP
360
DC
  0
DICTIONARY
  5
3C3
330
2A
100
AcDbDictionary
280
     1
281
     1
  3
ACAD_XREC_ROUNDTRIP
360
C0
  0
DICTIONARY
  5
3C4
330
2B
100
AcDbDictionary
280
     1
281
     1
  3
ACAD_XREC_ROUNDTRIP
360
C2
  0
DICTIONARY
  5
3C5
330
2C
100
AcDbDictionary
280
     1
281
     1
  3
ACAD_XREC_ROUNDTRIP
360
C4
  0
DICTIONARY
  5
3C6
330
2D
100
AcDbDictionary
280
     1
281
     1
  3
ACAD_XREC_ROUNDTRIP
360
C6
  0
DICTIONARY
  5
3C7
330
3A
100
AcDbDictionary
280
     1
281
     1
  3
ACAD_XREC_ROUNDTRIP
360
E0
  0
DICTIONARY
  5
3C8
330
37
100
AcDbDictionary
280
     1
281
     1
  3
ACAD_XREC_ROUNDTRIP
360
DA
  0
DICTIONARY
  5
3C9
330
3B
100
AcDbDictionary
280
     1
281
     1
  3
ACAD_XREC_ROUNDTRIP
360
E2
  0
DICTIONARY
  5
3CA
330
33
100
AcDbDictionary
280
     1
281
     1
  3
ACAD_XREC_ROUNDTRIP
360
D2
  0
DICTIONARY
  5
3CB
330
36
100
AcDbDictionary
280
     1
281
     1
  3
ACAD_XREC_ROUNDTRIP
360
D8
  0
XRECORD
  5
1C
102
{ACAD_REACTORS
330
3B5
102
}
330
3B5
100
AcDbXrecord
280
     1
270
     1
271
     1
  0
XRECORD
  5
1B
102
{ACAD_REACTORS
330
3B5
102
}
330
3B5
100
AcDbXrecord
280
     1
270
     1
271
     1
  0
XRECORD
  5
2F5
102
{ACAD_REACTORS
330
3B5
102
}
330
3B5
100
AcDbXrecord
280
     1
270
     1
271
     1
  0
XRECORD
  5
1E
102
{ACAD_REACTORS
330
3B5
102
}
330
3B5
100
AcDbXrecord
280
     1
270
     1
271
     1
  0
XRECORD
  5
2F6
102
{ACAD_REACTORS
330
3B5
102
}
330
3B5
100
AcDbXrecord
280
     1
270
     1
271
     1
  0
XRECORD
  5
1D
102
{ACAD_REACTORS
330
3B5
102
}
330
3B5
100
AcDbXrecord
280
     1
270
     1
271
     1
  0
XRECORD
  5
2F9
102
{ACAD_REACTORS
330
3B6
102
}
330
3B6
100
AcDbXrecord
280
     1
270
     1
271
     1
  0
XRECORD
  5
13
102
{ACAD_REACTORS
330
3B6
102
}
330
3B6
100
AcDbXrecord
280
     1
270
     1
271
     1
  0
XRECORD
  5
2FA
102
{ACAD_REACTORS
330
3B6
102
}
330
3B6
100
AcDbXrecord
280
     1
270
     1
271
     1
  0
XRECORD
  5
2FB
102
{ACAD_REACTORS
330
3B6
102
}
330
3B6
100
AcDbXrecord
280
     1
270
     1
271
     1
  0
XRECORD
  5
2FC
102
{ACAD_REACTORS
330
3B6
102
}
330
3B6
100
AcDbXrecord
280
     1
270
     1
271
     1
  0
XRECORD
  5
2FD
102
{ACAD_REACTORS
330
3B6
102
}
330
3B6
100
AcDbXrecord
280
     1
270
     1
271
     1
  0
XRECORD
  5
24
102
{ACAD_REACTORS
330
3B7
102
}
330
3B7
100
AcDbXrecord
280
     1
270
     1
271
     1
  0
XRECORD
  5
23
102
{ACAD_REACTORS
330
3B7
102
}
330
3B7
100
AcDbXrecord
280
     1
270
     1
271
     1
  0
XRECORD
  5
300
102
{ACAD_REACTORS
330
3B7
102
}
330
3B7
100
AcDbXrecord
280
     1
270
     1
271
     1
  0
XRECORD
  5
26
102
{ACAD_REACTORS
330
3B7
102
}
330
3B7
100
AcDbXrecord
280
     1
270
     1
271
     1
  0
XRECORD
  5
28
102
{ACAD_REACTORS
330
3B7
102
}
330
3B7
100
AcDbXrecord
280
     1
270
     1
271
     1
  0
XRECORD
  5
25
102
{ACAD_REACTORS
330
3B7
102
}
330
3B7
100
AcDbXrecord
280
     1
270
     1
271
     1
  0
CELLSTYLEMAP
  5
B8
102
{ACAD_REACTORS
330
3B8
102
}
330
3B8
100
AcDbCellStyleMap
 90
        3
300
CELLSTYLE
  1
TABLEFORMAT_BEGIN
 90
        5
170
     1
 91
        0
 92
    32768
 62
   257
 93
        1
300
CONTENTFORMAT
  1
CONTENTFORMAT_BEGIN
 90
        0
 91
        0
 92
      512
 93
        0
300

 40
0.0
140
1.0
 94
        5
 62
     0
340
11
144
6.0
309
CONTENTFORMAT_END
171
     1
301
MARGIN
  1
CELLMARGIN_BEGIN
 40
1.5
 40
1.5
 40
1.5
 40
1.5
 40
4.5
 40
4.5
309
CELLMARGIN_END
 94
        6
 95
        1
302
GRIDFORMAT
  1
GRIDFORMAT_BEGIN
 90
        0
 91
        1
 62
     0
 92
       -2
340
0
 93
        0
 40
1.125
309
GRIDFORMAT_END
 95
        2
302
GRIDFORMAT
  1
GRIDFORMAT_BEGIN
 90
        0
 91
        1
 62
     0
 92
       -2
340
0
 93
        0
 40
1.125
309
GRIDFORMAT_END
 95
        4
302
GRIDFORMAT
  1
GRIDFORMAT_BEGIN
 90
        0
 91
        1
 62
     0
 92
       -2
340
0
 93
        0
 40
1.125
309
GRIDFORMAT_END
 95
        8
302
GRIDFORMAT
  1
GRIDFORMAT_BEGIN
 90
        0
 91
        1
 62
     0
 92
       -2
340
0
 93
        0
 40
1.125
309
GRIDFORMAT_END
 95
       16
302
GRIDFORMAT
  1
GRIDFORMAT_BEGIN
 90
        0
 91
        1
 62
     0
 92
       -2
340
0
 93
        0
 40
1.125
309
GRIDFORMAT_END
 95
       32
302
GRIDFORMAT
  1
GRIDFORMAT_BEGIN
 90
        0
 91
        1
 62
     0
 92
       -2
340
0
 93
        0
 40
1.125
309
GRIDFORMAT_END
309
TABLEFORMAT_END
  1
CELLSTYLE_BEGIN
 90
        1
 91
        1
300
_TITLE
309
CELLSTYLE_END
300
CELLSTYLE
  1
TABLEFORMAT_BEGIN
 90
        5
170
     1
 91
        0
 92
        0
 62
   257
 93
        1
300
CONTENTFORMAT
  1
CONTENTFORMAT_BEGIN
 90
        0
 91
        0
 92
      512
 93
        0
300

 40
0.0
140
1.0
 94
        5
 62
     0
340
11
144
4.5
309
CONTENTFORMAT_END
171
     1
301
MARGIN
  1
CELLMARGIN_BEGIN
 40
1.5
 40
1.5
 40
1.5
 40
1.5
 40
4.5
 40
4.5
309
CELLMARGIN_END
 94
        6
 95
        1
302
GRIDFORMAT
  1
GRIDFORMAT_BEGIN
 90
        0
 91
        1
 62
     0
 92
       -2
340
0
 93
        0
 40
1.125
309
GRIDFORMAT_END
 95
        2
302
GRIDFORMAT
  1
GRIDFORMAT_BEGIN
 90
        0
 91
        1
 62
     0
 92
       -2
340
0
 93
        0
 40
1.125
309
GRIDFORMAT_END
 95
        4
302
GRIDFORMAT
  1
GRIDFORMAT_BEGIN
 90
        0
 91
        1
 62
     0
 92
       -2
340
0
 93
        0
 40
1.125
309
GRIDFORMAT_END
 95
        8
302
GRIDFORMAT
  1
GRIDFORMAT_BEGIN
 90
        0
 91
        1
 62
     0
 92
       -2
340
0
 93
        0
 40
1.125
309
GRIDFORMAT_END
 95
       16
302
GRIDFORMAT
  1
GRIDFORMAT_BEGIN
 90
        0
 91
        1
 62
     0
 92
       -2
340
0
 93
        0
 40
1.125
309
GRIDFORMAT_END
 95
       32
302
GRIDFORMAT
  1
GRIDFORMAT_BEGIN
 90
        0
 91
        1
 62
     0
 92
       -2
340
0
 93
        0
 40
1.125
309
GRIDFORMAT_END
309
TABLEFORMAT_END
  1
CELLSTYLE_BEGIN
 90
        2
 91
        1
300
_HEADER
309
CELLSTYLE_END
300
CELLSTYLE
  1
TABLEFORMAT_BEGIN
 90
        5
170
     1
 91
        0
 92
        0
 62
   257
 93
        1
300
CONTENTFORMAT
  1
CONTENTFORMAT_BEGIN
 90
        0
 91
        0
 92
      512
 93
        0
300

 40
0.0
140
1.0
 94
        2
 62
     0
340
11
144
4.5
309
CONTENTFORMAT_END
171
     1
301
MARGIN
  1
CELLMARGIN_BEGIN
 40
1.5
 40
1.5
 40
1.5
 40
1.5
 40
4.5
 40
4.5
309
CELLMARGIN_END
 94
        6
 95
        1
302
GRIDFORMAT
  1
GRIDFORMAT_BEGIN
 90
        0
 91
        1
 62
     0
 92
       -2
340
0
 93
        0
 40
1.125
309
GRIDFORMAT_END
 95
        2
302
GRIDFORMAT
  1
GRIDFORMAT_BEGIN
 90
        0
 91
        1
 62
     0
 92
       -2
340
0
 93
        0
 40
1.125
309
GRIDFORMAT_END
 95
        4
302
GRIDFORMAT
  1
GRIDFORMAT_BEGIN
 90
        0
 91
        1
 62
     0
 92
       -2
340
0
 93
        0
 40
1.125
309
GRIDFORMAT_END
 95
        8
302
GRIDFORMAT
  1
GRIDFORMAT_BEGIN
 90
        0
 91
        1
 62
     0
 92
       -2
340
0
 93
        0
 40
1.125
309
GRIDFORMAT_END
 95
       16
302
GRIDFORMAT
  1
GRIDFORMAT_BEGIN
 90
        0
 91
        1
 62
     0
 92
       -2
340
0
 93
        0
 40
1.125
309
GRIDFORMAT_END
 95
       32
302
GRIDFORMAT
  1
GRIDFORMAT_BEGIN
 90
        0
 91
        1
 62
     0
 92
       -2
340
0
 93
        0
 40
1.125
309
GRIDFORMAT_END
309
TABLEFORMAT_END
  1
CELLSTYLE_BEGIN
 90
        3
 91
        2
300
_DATA
309
CELLSTYLE_END
  0
XRECORD
  5
CA
102
{ACAD_REACTORS
330
3B9
102
}
330
3B9
100
AcDbXrecord
280
     1
102
RTVSPropertyOp0
 70
     1
102
RTVSPropertyOp1
 70
     1
102
RTVSPropertyOp2
 70
     1
102
RTVSPropertyOp3
 70
     1
102
RTVSPropertyOp4
 70
     1
102
RTVSPropertyOp5
 70
     1
102
RTVSPropertyOp6
 70
     1
102
RTVSPropertyOp7
 70
     1
102
RTVSPropertyOp8
 70
     1
102
RTVSPropertyOp9
 70
     1
102
RTVSPropertyOp10
 70
     1
102
RTVSPropertyOp11
 70
     1
102
RTVSPropertyOp12
 70
     1
102
RTVSPropertyOp13
 70
     1
102
RTVSPropertyOp14
 70
     1
102
RTVSPropertyOp15
 70
     1
102
RTVSPropertyOp16
 70
     1
102
RTVSPropertyOp17
 70
     1
102
RTVSPropertyOp18
 70
     1
102
RTVSPropertyOp19
 70
     1
102
RTVSPropertyOp20
 70
     1
102
RTVSPropertyOp21
 70
     1
102
RTVSPropertyOp22
 70
     1
102
RTVSPropertyOp23
 70
     1
102
RTVSPropertyOp24
 70
     1
102
RTVSPropertyOp25
 70
     1
102
RTVSPropertyOp26
 70
     1
102
RTVSPropertyOp27
 70
     1
  0
XRECORD
  5
CE
102
{ACAD_REACTORS
330
3BA
102
}
330
3BA
100
AcDbXrecord
280
     1
102
RTVSPropertyOp0
 70
     1
102
RTVSPropertyOp1
 70
     1
102
RTVSPropertyOp2
 70
     1
102
RTVSPropertyOp3
 70
     1
102
RTVSPropertyOp4
 70
     1
102
RTVSPropertyOp5
 70
     1
102
RTVSPropertyOp6
 70
     1
102
RTVSPropertyOp7
 70
     1
102
RTVSPropertyOp8
 70
     1
102
RTVSPropertyOp9
 70
     1
102
RTVSPropertyOp10
 70
     1
102
RTVSPropertyOp11
 70
     1
102
RTVSPropertyOp12
 70
     1
102
RTVSPropertyOp13
 70
     1
102
RTVSPropertyOp14
 70
     1
102
RTVSPropertyOp15
 70
     1
102
RTVSPropertyOp16
 70
     1
102
RTVSPropertyOp17
 70
     1
102
RTVSPropertyOp18
 70
     1
102
RTVSPropertyOp19
 70
     1
102
RTVSPropertyOp20
 70
     1
102
RTVSPropertyOp21
 70
     1
102
RTVSPropertyOp22
 70
     1
102
RTVSPropertyOp23
 70
     1
102
RTVSPropertyOp24
 70
     1
102
RTVSPropertyOp25
 70
     1
102
RTVSPropertyOp26
 70
     1
102
RTVSPropertyOp27
 70
     1
  0
XRECORD
  5
CC
102
{ACAD_REACTORS
330
3BB
102
}
330
3BB
100
AcDbXrecord
280
     1
102
RTVSPropertyOp0
 70
     1
102
RTVSPropertyOp1
 70
     1
102
RTVSPropertyOp2
 70
     1
102
RTVSPropertyOp3
 70
     1
102
RTVSPropertyOp4
 70
     1
102
RTVSPropertyOp5
 70
     1
102
RTVSPropertyOp6
 70
     1
102
RTVSPropertyOp7
 70
     1
102
RTVSPropertyOp8
 70
     1
102
RTVSPropertyOp9
 70
     1
102
RTVSPropertyOp10
 70
     1
102
RTVSPropertyOp11
 70
     1
102
RTVSPropertyOp12
 70
     1
102
RTVSPropertyOp13
 70
     1
102
RTVSPropertyOp14
 70
     1
102
RTVSPropertyOp15
 70
     1
102
RTVSPropertyOp16
 70
     1
102
RTVSPropertyOp17
 70
     1
102
RTVSPropertyOp18
 70
     1
102
RTVSPropertyOp19
 70
     1
102
RTVSPropertyOp20
 70
     1
102
RTVSPropertyOp21
 70
     1
102
RTVSPropertyOp22
 70
     1
102
RTVSPropertyOp23
 70
     1
102
RTVSPropertyOp24
 70
     1
102
RTVSPropertyOp25
 70
     1
102
RTVSPropertyOp26
 70
     1
102
RTVSPropertyOp27
 70
     1
  0
XRECORD
  5
C8
102
{ACAD_REACTORS
330
3BC
102
}
330
3BC
100
AcDbXrecord
280
     1
102
RTVSPropertyOp0
 70
     1
102
RTVSPropertyOp1
 70
     1
102
RTVSPropertyOp2
 70
     1
102
RTVSPropertyOp3
 70
     1
102
RTVSPropertyOp4
 70
     1
102
RTVSPropertyOp5
 70
     1
102
RTVSPropertyOp6
 70
     1
102
RTVSPropertyOp7
 70
     1
102
RTVSPropertyOp8
 70
     1
102
RTVSPropertyOp9
 70
     1
102
RTVSPropertyOp10
 70
     1
102
RTVSPropertyOp11
 70
     1
102
RTVSPropertyOp12
 70
     1
102
RTVSPropertyOp13
 70
     1
102
RTVSPropertyOp14
 70
     1
102
RTVSPropertyOp15
 70
     1
102
RTVSPropertyOp16
 70
     1
102
RTVSPropertyOp17
 70
     1
102
RTVSPropertyOp18
 70
     1
102
RTVSPropertyOp19
 70
     1
102
RTVSPropertyOp20
 70
     1
102
RTVSPropertyOp21
 70
     1
102
RTVSPropertyOp22
 70
     1
102
RTVSPropertyOp23
 70
     1
102
RTVSPropertyOp24
 70
     1
102
RTVSPropertyOp25
 70
     1
102
RTVSPropertyOp26
 70
     1
102
RTVSPropertyOp27
 70
     1
  0
XRECORD
  5
D6
102
{ACAD_REACTORS
330
3BD
102
}
330
3BD
100
AcDbXrecord
280
     1
102
RTVSPropertyOp0
 70
     1
102
RTVSPropertyOp1
 70
     1
102
RTVSPropertyOp2
 70
     1
102
RTVSPropertyOp3
 70
     1
102
RTVSPropertyOp4
 70
     1
102
RTVSPropertyOp5
 70
     1
102
RTVSPropertyOp6
 70
     1
102
RTVSPropertyOp7
 70
     1
102
RTVSPropertyOp8
 70
     1
102
RTVSPropertyOp9
 70
     1
102
RTVSPropertyOp10
 70
     1
102
RTVSPropertyOp11
 70
     1
102
RTVSPropertyOp12
 70
     1
102
RTVSPropertyOp13
 70
     1
102
RTVSPropertyOp14
 70
     1
102
RTVSPropertyOp15
 70
     1
102
RTVSPropertyOp16
 70
     1
102
RTVSPropertyOp17
 70
     1
102
RTVSPropertyOp18
 70
     1
102
RTVSPropertyOp19
 70
     1
102
RTVSPropertyOp20
 70
     1
102
RTVSPropertyOp21
 70
     1
102
RTVSPropertyOp22
 70
     1
102
RTVSPropertyOp23
 70
     1
102
RTVSPropertyOp24
 70
     1
102
RTVSPropertyOp25
 70
     1
102
RTVSPropertyOp26
 70
     1
102
RTVSPropertyOp27
 70
     1
  0
XRECORD
  5
DE
102
{ACAD_REACTORS
330
3BE
102
}
330
3BE
100
AcDbXrecord
280
     1
102
RTVSPropertyOp0
 70
     1
102
RTVSPropertyOp1
 70
     1
102
RTVSPropertyOp2
 70
     1
102
RTVSPropertyOp3
 70
     1
102
RTVSPropertyOp4
 70
     1
102
RTVSPropertyOp5
 70
     1
102
RTVSPropertyOp6
 70
     1
102
RTVSPropertyOp7
 70
     1
102
RTVSPropertyOp8
 70
     1
102
RTVSPropertyOp9
 70
     1
102
RTVSPropertyOp10
 70
     1
102
RTVSPropertyOp11
 70
     1
102
RTVSPropertyOp12
 70
     1
102
RTVSPropertyOp13
 70
     1
102
RTVSPropertyOp14
 70
     1
102
RTVSPropertyOp15
 70
     1
102
RTVSPropertyOp16
 70
     1
102
RTVSPropertyOp17
 70
     1
102
RTVSPropertyOp18
 70
     1
102
RTVSPropertyOp19
 70
     1
102
RTVSPropertyOp20
 70
     1
102
RTVSPropertyOp21
 70
     1
102
RTVSPropertyOp22
 70
     1
102
RTVSPropertyOp23
 70
     1
102
RTVSPropertyOp24
 70
     1
102
RTVSPropertyOp25
 70
     1
102
RTVSPropertyOp26
 70
     1
102
RTVSPropertyOp27
 70
     1
  0
XRECORD
  5
D0
102
{ACAD_REACTORS
330
3BF
102
}
330
3BF
100
AcDbXrecord
280
     1
102
RTVSPropertyOp0
 70
     1
102
RTVSPropertyOp1
 70
     1
102
RTVSPropertyOp2
 70
     1
102
RTVSPropertyOp3
 70
     1
102
RTVSPropertyOp4
 70
     1
102
RTVSPropertyOp5
 70
     1
102
RTVSPropertyOp6
 70
     1
102
RTVSPropertyOp7
 70
     1
102
RTVSPropertyOp8
 70
     1
102
RTVSPropertyOp9
 70
     1
102
RTVSPropertyOp10
 70
     1
102
RTVSPropertyOp11
 70
     1
102
RTVSPropertyOp12
 70
     1
102
RTVSPropertyOp13
 70
     1
102
RTVSPropertyOp14
 70
     1
102
RTVSPropertyOp15
 70
     1
102
RTVSPropertyOp16
 70
     1
102
RTVSPropertyOp17
 70
     1
102
RTVSPropertyOp18
 70
     1
102
RTVSPropertyOp19
 70
     1
102
RTVSPropertyOp20
 70
     1
102
RTVSPropertyOp21
 70
     1
102
RTVSPropertyOp22
 70
     1
102
RTVSPropertyOp23
 70
     1
102
RTVSPropertyOp24
 70
     1
102
RTVSPropertyOp25
 70
     1
102
RTVSPropertyOp26
 70
     1
102
RTVSPropertyOp27
 70
     1
  0
XRECORD
  5
D4
102
{ACAD_REACTORS
330
3C0
102
}
330
3C0
100
AcDbXrecord
280
     1
102
RTVSPropertyOp0
 70
     1
102
RTVSPropertyOp1
 70
     1
102
RTVSPropertyOp2
 70
     1
102
RTVSPropertyOp3
 70
     1
102
RTVSPropertyOp4
 70
     1
102
RTVSPropertyOp5
 70
     1
102
RTVSPropertyOp6
 70
     1
102
RTVSPropertyOp7
 70
     1
102
RTVSPropertyOp8
 70
     1
102
RTVSPropertyOp9
 70
     1
102
RTVSPropertyOp10
 70
     1
102
RTVSPropertyOp11
 70
     1
102
RTVSPropertyOp12
 70
     1
102
RTVSPropertyOp13
 70
     1
102
RTVSPropertyOp14
 70
     1
102
RTVSPropertyOp15
 70
     1
102
RTVSPropertyOp16
 70
     1
102
RTVSPropertyOp17
 70
     1
102
RTVSPropertyOp18
 70
     1
102
RTVSPropertyOp19
 70
     1
102
RTVSPropertyOp20
 70
     1
102
RTVSPropertyOp21
 70
     1
102
RTVSPropertyOp22
 70
     1
102
RTVSPropertyOp23
 70
     1
102
RTVSPropertyOp24
 70
     1
102
RTVSPropertyOp25
 70
     1
102
RTVSPropertyOp26
 70
     1
102
RTVSPropertyOp27
 70
     1
  0
XRECORD
  5
E4
102
{ACAD_REACTORS
330
3C1
102
}
330
3C1
100
AcDbXrecord
280
     1
102
RTVSPropertyOp0
 70
     0
102
RTVSPropertyOp1
 70
     0
102
RTVSPropertyOp2
 70
     0
102
RTVSPropertyOp3
 70
     0
102
RTVSPropertyOp4
 70
     0
102
RTVSPropertyOp5
 70
     0
102
RTVSPropertyOp6
 70
     0
102
RTVSPropertyOp7
 70
     0
102
RTVSPropertyOp8
 70
     0
102
RTVSPropertyOp9
 70
     0
102
RTVSPropertyOp10
 70
     0
102
RTVSPropertyOp11
 70
     0
102
RTVSPropertyOp12
 70
     0
102
RTVSPropertyOp13
 70
     0
102
RTVSPropertyOp14
 70
     2
102
RTVSPropertyOp15
 70
     0
102
RTVSPropertyOp16
 70
     0
102
RTVSPropertyOp17
 70
     0
102
RTVSPropertyOp18
 70
     0
102
RTVSPropertyOp19
 70
     0
102
RTVSPropertyOp20
 70
     0
102
RTVSPropertyOp21
 70
     0
102
RTVSPropertyOp22
 70
     0
102
RTVSPropertyOp23
 70
     0
102
RTVSPropertyOp24
 70
     0
102
RTVSPropertyOp25
 70
     0
102
RTVSPropertyOp26
 70
     0
102
RTVSPropertyOp27
 70
     0
  0
XRECORD
  5
DC
102
{ACAD_REACTORS
330
3C2
102
}
330
3C2
100
AcDbXrecord
280
     1
102
RTVSPropertyOp0
 70
     1
102
RTVSPropertyOp1
 70
     1
102
RTVSPropertyOp2
 70
     1
102
RTVSPropertyOp3
 70
     1
102
RTVSPropertyOp4
 70
     1
102
RTVSPropertyOp5
 70
     1
102
RTVSPropertyOp6
 70
     1
102
RTVSPropertyOp7
 70
     1
102
RTVSPropertyOp8
 70
     1
102
RTVSPropertyOp9
 70
     1
102
RTVSPropertyOp10
 70
     1
102
RTVSPropertyOp11
 70
     1
102
RTVSPropertyOp12
 70
     1
102
RTVSPropertyOp13
 70
     1
102
RTVSPropertyOp14
 70
     1
102
RTVSPropertyOp15
 70
     1
102
RTVSPropertyOp16
 70
     1
102
RTVSPropertyOp17
 70
     1
102
RTVSPropertyOp18
 70
     1
102
RTVSPropertyOp19
 70
     1
102
RTVSPropertyOp20
 70
     1
102
RTVSPropertyOp21
 70
     1
102
RTVSPropertyOp22
 70
     1
102
RTVSPropertyOp23
 70
     1
102
RTVSPropertyOp24
 70
     1
102
RTVSPropertyOp25
 70
     1
102
RTVSPropertyOp26
 70
     1
102
RTVSPropertyOp27
 70
     1
  0
XRECORD
  5
C0
102
{ACAD_REACTORS
330
3C3
102
}
330
3C3
100
AcDbXrecord
280
     1
102
RTVSPropertyOp0
 70
     1
102
RTVSPropertyOp1
 70
     1
102
RTVSPropertyOp2
 70
     1
102
RTVSPropertyOp3
 70
     1
102
RTVSPropertyOp4
 70
     1
102
RTVSPropertyOp5
 70
     1
102
RTVSPropertyOp6
 70
     1
102
RTVSPropertyOp7
 70
     1
102
RTVSPropertyOp8
 70
     1
102
RTVSPropertyOp9
 70
     1
102
RTVSPropertyOp10
 70
     1
102
RTVSPropertyOp11
 70
     1
102
RTVSPropertyOp12
 70
     1
102
RTVSPropertyOp13
 70
     1
102
RTVSPropertyOp14
 70
     1
102
RTVSPropertyOp15
 70
     1
102
RTVSPropertyOp16
 70
     1
102
RTVSPropertyOp17
 70
     1
102
RTVSPropertyOp18
 70
     1
102
RTVSPropertyOp19
 70
     1
102
RTVSPropertyOp20
 70
     1
102
RTVSPropertyOp21
 70
     1
102
RTVSPropertyOp22
 70
     1
102
RTVSPropertyOp23
 70
     1
102
RTVSPropertyOp24
 70
     1
102
RTVSPropertyOp25
 70
     1
102
RTVSPropertyOp26
 70
     1
102
RTVSPropertyOp27
 70
     1
  0
XRECORD
  5
C2
102
{ACAD_REACTORS
330
3C4
102
}
330
3C4
100
AcDbXrecord
280
     1
102
RTVSPropertyOp0
 70
     1
102
RTVSPropertyOp1
 70
     1
102
RTVSPropertyOp2
 70
     1
102
RTVSPropertyOp3
 70
     1
102
RTVSPropertyOp4
 70
     1
102
RTVSPropertyOp5
 70
     1
102
RTVSPropertyOp6
 70
     1
102
RTVSPropertyOp7
 70
     1
102
RTVSPropertyOp8
 70
     1
102
RTVSPropertyOp9
 70
     1
102
RTVSPropertyOp10
 70
     1
102
RTVSPropertyOp11
 70
     1
102
RTVSPropertyOp12
 70
     1
102
RTVSPropertyOp13
 70
     1
102
RTVSPropertyOp14
 70
     1
102
RTVSPropertyOp15
 70
     1
102
RTVSPropertyOp16
 70
     1
102
RTVSPropertyOp17
 70
     1
102
RTVSPropertyOp18
 70
     1
102
RTVSPropertyOp19
 70
     1
102
RTVSPropertyOp20
 70
     1
102
RTVSPropertyOp21
 70
     1
102
RTVSPropertyOp22
 70
     1
102
RTVSPropertyOp23
 70
     1
102
RTVSPropertyOp24
 70
     1
102
RTVSPropertyOp25
 70
     1
102
RTVSPropertyOp26
 70
     1
102
RTVSPropertyOp27
 70
     1
  0
XRECORD
  5
C4
102
{ACAD_REACTORS
330
3C5
102
}
330
3C5
100
AcDbXrecord
280
     1
102
RTVSPropertyOp0
 70
     1
102
RTVSPropertyOp1
 70
     1
102
RTVSPropertyOp2
 70
     1
102
RTVSPropertyOp3
 70
     1
102
RTVSPropertyOp4
 70
     1
102
RTVSPropertyOp5
 70
     1
102
RTVSPropertyOp6
 70
     1
102
RTVSPropertyOp7
 70
     1
102
RTVSPropertyOp8
 70
     1
102
RTVSPropertyOp9
 70
     1
102
RTVSPropertyOp10
 70
     1
102
RTVSPropertyOp11
 70
     1
102
RTVSPropertyOp12
 70
     1
102
RTVSPropertyOp13
 70
     1
102
RTVSPropertyOp14
 70
     1
102
RTVSPropertyOp15
 70
     1
102
RTVSPropertyOp16
 70
     1
102
RTVSPropertyOp17
 70
     1
102
RTVSPropertyOp18
 70
     1
102
RTVSPropertyOp19
 70
     1
102
RTVSPropertyOp20
 70
     1
102
RTVSPropertyOp21
 70
     1
102
RTVSPropertyOp22
 70
     1
102
RTVSPropertyOp23
 70
     1
102
RTVSPropertyOp24
 70
     1
102
RTVSPropertyOp25
 70
     1
102
RTVSPropertyOp26
 70
     1
102
RTVSPropertyOp27
 70
     1
  0
XRECORD
  5
C6
102
{ACAD_REACTORS
330
3C6
102
}
330
3C6
100
AcDbXrecord
280
     1
102
RTVSPropertyOp0
 70
     1
102
RTVSPropertyOp1
 70
     1
102
RTVSPropertyOp2
 70
     1
102
RTVSPropertyOp3
 70
     1
102
RTVSPropertyOp4
 70
     1
102
RTVSPropertyOp5
 70
     1
102
RTVSPropertyOp6
 70
     1
102
RTVSPropertyOp7
 70
     1
102
RTVSPropertyOp8
 70
     1
102
RTVSPropertyOp9
 70
     1
102
RTVSPropertyOp10
 70
     1
102
RTVSPropertyOp11
 70
     1
102
RTVSPropertyOp12
 70
     1
102
RTVSPropertyOp13
 70
     1
102
RTVSPropertyOp14
 70
     1
102
RTVSPropertyOp15
 70
     1
102
RTVSPropertyOp16
 70
     1
102
RTVSPropertyOp17
 70
     1
102
RTVSPropertyOp18
 70
     1
102
RTVSPropertyOp19
 70
     1
102
RTVSPropertyOp20
 70
     1
102
RTVSPropertyOp21
 70
     1
102
RTVSPropertyOp22
 70
     1
102
RTVSPropertyOp23
 70
     1
102
RTVSPropertyOp24
 70
     1
102
RTVSPropertyOp25
 70
     1
102
RTVSPropertyOp26
 70
     1
102
RTVSPropertyOp27
 70
     1
  0
XRECORD
  5
E0
102
{ACAD_REACTORS
330
3C7
102
}
330
3C7
100
AcDbXrecord
280
     1
102
RTVSPropertyOp0
 70
     0
102
RTVSPropertyOp1
 70
     0
102
RTVSPropertyOp2
 70
     0
102
RTVSPropertyOp3
 70
     0
102
RTVSPropertyOp4
 70
     0
102
RTVSPropertyOp5
 70
     0
102
RTVSPropertyOp6
 70
     0
102
RTVSPropertyOp7
 70
     0
102
RTVSPropertyOp8
 70
     0
102
RTVSPropertyOp9
 70
     0
102
RTVSPropertyOp10
 70
     0
102
RTVSPropertyOp11
 70
     0
102
RTVSPropertyOp12
 70
     0
102
RTVSPropertyOp13
 70
     0
102
RTVSPropertyOp14
 70
     2
102
RTVSPropertyOp15
 70
     0
102
RTVSPropertyOp16
 70
     0
102
RTVSPropertyOp17
 70
     0
102
RTVSPropertyOp18
 70
     0
102
RTVSPropertyOp19
 70
     0
102
RTVSPropertyOp20
 70
     0
102
RTVSPropertyOp21
 70
     0
102
RTVSPropertyOp22
 70
     0
102
RTVSPropertyOp23
 70
     0
102
RTVSPropertyOp24
 70
     0
102
RTVSPropertyOp25
 70
     0
102
RTVSPropertyOp26
 70
     0
102
RTVSPropertyOp27
 70
     0
  0
XRECORD
  5
DA
102
{ACAD_REACTORS
330
3C8
102
}
330
3C8
100
AcDbXrecord
280
     1
102
RTVSPropertyOp0
 70
     1
102
RTVSPropertyOp1
 70
     1
102
RTVSPropertyOp2
 70
     1
102
RTVSPropertyOp3
 70
     1
102
RTVSPropertyOp4
 70
     1
102
RTVSPropertyOp5
 70
     1
102
RTVSPropertyOp6
 70
     1
102
RTVSPropertyOp7
 70
     1
102
RTVSPropertyOp8
 70
     1
102
RTVSPropertyOp9
 70
     1
102
RTVSPropertyOp10
 70
     1
102
RTVSPropertyOp11
 70
     1
102
RTVSPropertyOp12
 70
     1
102
RTVSPropertyOp13
 70
     1
102
RTVSPropertyOp14
 70
     1
102
RTVSPropertyOp15
 70
     1
102
RTVSPropertyOp16
 70
     1
102
RTVSPropertyOp17
 70
     1
102
RTVSPropertyOp18
 70
     1
102
RTVSPropertyOp19
 70
     1
102
RTVSPropertyOp20
 70
     1
102
RTVSPropertyOp21
 70
     1
102
RTVSPropertyOp22
 70
     1
102
RTVSPropertyOp23
 70
     1
102
RTVSPropertyOp24
 70
     1
102
RTVSPropertyOp25
 70
     1
102
RTVSPropertyOp26
 70
     1
102
RTVSPropertyOp27
 70
     1
  0
XRECORD
  5
E2
102
{ACAD_REACTORS
330
3C9
102
}
330
3C9
100
AcDbXrecord
280
     1
102
RTVSPropertyOp0
 70
     0
102
RTVSPropertyOp1
 70
     0
102
RTVSPropertyOp2
 70
     0
102
RTVSPropertyOp3
 70
     0
102
RTVSPropertyOp4
 70
     0
102
RTVSPropertyOp5
 70
     0
102
RTVSPropertyOp6
 70
     0
102
RTVSPropertyOp7
 70
     0
102
RTVSPropertyOp8
 70
     0
102
RTVSPropertyOp9
 70
     0
102
RTVSPropertyOp10
 70
     0
102
RTVSPropertyOp11
 70
     0
102
RTVSPropertyOp12
 70
     0
102
RTVSPropertyOp13
 70
     0
102
RTVSPropertyOp14
 70
     2
102
RTVSPropertyOp15
 70
     0
102
RTVSPropertyOp16
 70
     0
102
RTVSPropertyOp17
 70
     0
102
RTVSPropertyOp18
 70
     0
102
RTVSPropertyOp19
 70
     0
102
RTVSPropertyOp20
 70
     0
102
RTVSPropertyOp21
 70
     0
102
RTVSPropertyOp22
 70
     0
102
RTVSPropertyOp23
 70
     0
102
RTVSPropertyOp24
 70
     0
102
RTVSPropertyOp25
 70
     0
102
RTVSPropertyOp26
 70
     0
102
RTVSPropertyOp27
 70
     0
  0
XRECORD
  5
D2
102
{ACAD_REACTORS
330
3CA
102
}
330
3CA
100
AcDbXrecord
280
     1
102
RTVSPropertyOp0
 70
     1
102
RTVSPropertyOp1
 70
     1
102
RTVSPropertyOp2
 70
     1
102
RTVSPropertyOp3
 70
     1
102
RTVSPropertyOp4
 70
     1
102
RTVSPropertyOp5
 70
     1
102
RTVSPropertyOp6
 70
     1
102
RTVSPropertyOp7
 70
     1
102
RTVSPropertyOp8
 70
     1
102
RTVSPropertyOp9
 70
     1
102
RTVSPropertyOp10
 70
     1
102
RTVSPropertyOp11
 70
     1
102
RTVSPropertyOp12
 70
     1
102
RTVSPropertyOp13
 70
     1
102
RTVSPropertyOp14
 70
     1
102
RTVSPropertyOp15
 70
     1
102
RTVSPropertyOp16
 70
     1
102
RTVSPropertyOp17
 70
     1
102
RTVSPropertyOp18
 70
     1
102
RTVSPropertyOp19
 70
     1
102
RTVSPropertyOp20
 70
     1
102
RTVSPropertyOp21
 70
     1
102
RTVSPropertyOp22
 70
     1
102
RTVSPropertyOp23
 70
     1
102
RTVSPropertyOp24
 70
     1
102
RTVSPropertyOp25
 70
     1
102
RTVSPropertyOp26
 70
     1
102
RTVSPropertyOp27
 70
     1
  0
XRECORD
  5
D8
102
{ACAD_REACTORS
330
3CB
102
}
330
3CB
100
AcDbXrecord
280
     1
102
RTVSPropertyOp0
 70
     1
102
RTVSPropertyOp1
 70
     1
102
RTVSPropertyOp2
 70
     1
102
RTVSPropertyOp3
 70
     1
102
RTVSPropertyOp4
 70
     1
102
RTVSPropertyOp5
 70
     1
102
RTVSPropertyOp6
 70
     1
102
RTVSPropertyOp7
 70
     1
102
RTVSPropertyOp8
 70
     1
102
RTVSPropertyOp9
 70
     1
102
RTVSPropertyOp10
 70
     1
102
RTVSPropertyOp11
 70
     1
102
RTVSPropertyOp12
 70
     1
102
RTVSPropertyOp13
 70
     1
102
RTVSPropertyOp14
 70
     1
102
RTVSPropertyOp15
 70
     1
102
RTVSPropertyOp16
 70
     1
102
RTVSPropertyOp17
 70
     1
102
RTVSPropertyOp18
 70
     1
102
RTVSPropertyOp19
 70
     1
102
RTVSPropertyOp20
 70
     1
102
RTVSPropertyOp21
 70
     1
102
RTVSPropertyOp22
 70
     1
102
RTVSPropertyOp23
 70
     1
102
RTVSPropertyOp24
 70
     1
102
RTVSPropertyOp25
 70
     1
102
RTVSPropertyOp26
 70
     1
102
RTVSPropertyOp27
 70
     1
  0
ENDSEC
  0
EOF
