  0
SECTION
  2
HEADER
  9
$ACADVER
  1
AC1014
  9
$ACADMAINTVER
 70
     9
  9
$DWGCODEPAGE
  3
ANSI_1252
  9
$INSBASE
 10
0.0
 20
0.0
 30
0.0
  9
$EXTMIN
 10
-0.0000000000000568
 20
-414.0
 30
-21.59999999999998
  9
$EXTMAX
 10
191.5309697059713
 20
0.0
 30
0.0000000000002487
  9
$LIMMIN
 10
0.0
 20
0.0
  9
$LIMMAX
 10
12.0
 20
9.0
  9
$ORTHOMODE
 70
     1
  9
$REGENMODE
 70
     1
  9
$FILLMODE
 70
     1
  9
$QTEXTMODE
 70
     0
  9
$MIRRTEXT
 70
     0
  9
$DRAGMODE
 70
     2
  9
$LTSCALE
 40
1.0
  9
$OSMODE
 70
    37
  9
$ATTMODE
 70
     1
  9
$TEXTSIZE
 40
0.2
  9
$TRACEWID
 40
0.05
  9
$TEXTSTYLE
  7
STANDARD
  9
$CLAYER
  8
ACESSORIOS
  9
$CELTYPE
  6
BYLAYER
  9
$CECOLOR
 62
   256
  9
$CELTSCALE
 40
1.0
  9
$DELOBJ
 70
     1
  9
$DISPSILH
 70
     0
  9
$DIMSCALE
 40
1.0
  9
$DIMASZ
 40
0.18
  9
$DIMEXO
 40
0.0625
  9
$DIMDLI
 40
0.38
  9
$DIMRND
 40
0.0
  9
$DIMDLE
 40
0.0
  9
$DIMEXE
 40
0.18
  9
$DIMTP
 40
0.0
  9
$DIMTM
 40
0.0
  9
$DIMTXT
 40
0.18
  9
$DIMCEN
 40
0.09
  9
$DIMTSZ
 40
0.0
  9
$DIMTOL
 70
     0
  9
$DIMLIM
 70
     0
  9
$DIMTIH
 70
     1
  9
$DIMTOH
 70
     1
  9
$DIMSE1
 70
     0
  9
$DIMSE2
 70
     0
  9
$DIMTAD
 70
     0
  9
$DIMZIN
 70
     0
  9
$DIMBLK
  1

  9
$DIMASO
 70
     1
  9
$DIMSHO
 70
     1
  9
$DIMPOST
  1

  9
$DIMAPOST
  1

  9
$DIMALT
 70
     0
  9
$DIMALTD
 70
     2
  9
$DIMALTF
 40
25.4
  9
$DIMLFAC
 40
1.0
  9
$DIMTOFL
 70
     0
  9
$DIMTVP
 40
0.0
  9
$DIMTIX
 70
     0
  9
$DIMSOXD
 70
     0
  9
$DIMSAH
 70
     0
  9
$DIMBLK1
  1

  9
$DIMBLK2
  1

  9
$DIMSTYLE
  2
STANDARD
  9
$DIMCLRD
 70
     0
  9
$DIMCLRE
 70
     0
  9
$DIMCLRT
 70
     0
  9
$DIMTFAC
 40
1.0
  9
$DIMGAP
 40
0.09
  9
$DIMJUST
 70
     0
  9
$DIMSD1
 70
     0
  9
$DIMSD2
 70
     0
  9
$DIMTOLJ
 70
     1
  9
$DIMTZIN
 70
     0
  9
$DIMALTZ
 70
     0
  9
$DIMALTTZ
 70
     0
  9
$DIMFIT
 70
     3
  9
$DIMUPT
 70
     0
  9
$DIMUNIT
 70
     2
  9
$DIMDEC
 70
     4
  9
$DIMTDEC
 70
     4
  9
$DIMALTU
 70
     2
  9
$DIMALTTD
 70
     2
  9
$DIMTXSTY
  7
STANDARD
  9
$DIMAUNIT
 70
     0
  9
$LUNITS
 70
     2
  9
$LUPREC
 70
     4
  9
$SKETCHINC
 40
0.1
  9
$FILLETRAD
 40
0.0
  9
$AUNITS
 70
     0
  9
$AUPREC
 70
     0
  9
$MENU
  1
.
  9
$ELEVATION
 40
0.0
  9
$PELEVATION
 40
0.0
  9
$THICKNESS
 40
0.0
  9
$LIMCHECK
 70
     0
  9
$CHAMFERA
 40
0.0
  9
$CHAMFERB
 40
0.0
  9
$CHAMFERC
 40
0.0
  9
$CHAMFERD
 40
0.0
  9
$SKPOLY
 70
     0
  9
$TDCREATE
 40
2456581.739797986
  9
$TDUPDATE
 40
2456679.483149167
  9
$TDINDWG
 40
0.0596374306
  9
$TDUSRTIMER
 40
0.0596372454
  9
$USRTIMER
 70
     1
  9
$ANGBASE
 50
0.0
  9
$ANGDIR
 70
     0
  9
$PDMODE
 70
     0
  9
$PDSIZE
 40
0.0
  9
$PLINEWID
 40
0.0
  9
$COORDS
 70
     1
  9
$SPLFRAME
 70
     0
  9
$SPLINETYPE
 70
     6
  9
$SPLINESEGS
 70
     8
  9
$ATTDIA
 70
     0
  9
$ATTREQ
 70
     1
  9
$HANDLING
 70
     1
  9
$HANDSEED
  5
C09
  9
$SURFTAB1
 70
     6
  9
$SURFTAB2
 70
     6
  9
$SURFTYPE
 70
     6
  9
$SURFU
 70
     6
  9
$SURFV
 70
     6
  9
$UCSNAME
  2

  9
$UCSORG
 10
0.0
 20
0.0
 30
0.0
  9
$UCSXDIR
 10
1.0
 20
0.0
 30
0.0
  9
$UCSYDIR
 10
0.0
 20
1.0
 30
0.0
  9
$PUCSNAME
  2

  9
$PUCSORG
 10
0.0
 20
0.0
 30
0.0
  9
$PUCSXDIR
 10
1.0
 20
0.0
 30
0.0
  9
$PUCSYDIR
 10
0.0
 20
1.0
 30
0.0
  9
$USERI1
 70
     0
  9
$USERI2
 70
     0
  9
$USERI3
 70
     0
  9
$USERI4
 70
     0
  9
$USERI5
 70
     0
  9
$USERR1
 40
0.0
  9
$USERR2
 40
0.0
  9
$USERR3
 40
0.0
  9
$USERR4
 40
0.0
  9
$USERR5
 40
0.0
  9
$WORLDVIEW
 70
     1
  9
$SHADEDGE
 70
     3
  9
$SHADEDIF
 70
    70
  9
$TILEMODE
 70
     1
  9
$MAXACTVP
 70
    64
  9
$PINSBASE
 10
0.0
 20
0.0
 30
0.0
  9
$PLIMCHECK
 70
     0
  9
$PEXTMIN
 10
0.0
 20
0.0
 30
0.0
  9
$PEXTMAX
 10
0.0
 20
0.0
 30
0.0
  9
$PLIMMIN
 10
0.0
 20
0.0
  9
$PLIMMAX
 10
12.0
 20
9.0
  9
$UNITMODE
 70
     0
  9
$VISRETAIN
 70
     1
  9
$PLINEGEN
 70
     0
  9
$PSLTSCALE
 70
     1
  9
$TREEDEPTH
 70
  3020
  9
$PICKSTYLE
 70
     1
  9
$CMLSTYLE
  2
STANDARD
  9
$CMLJUST
 70
     0
  9
$CMLSCALE
 40
1.0
  9
$PROXYGRAPHICS
 70
     1
  9
$MEASUREMENT
 70
     0
  0
ENDSEC
  0
SECTION
  2
CLASSES
  0
CLASS
  1
ACDBDICTIONARYWDFLT
  2
AcDbDictionaryWithDefault
  3
ObjectDBX Classes
 90
        0
280
     0
281
     0
  0
CLASS
  1
ACDBPLACEHOLDER
  2
AcDbPlaceHolder
  3
ObjectDBX Classes
 90
        0
280
     0
281
     0
  0
CLASS
  1
LAYOUT
  2
AcDbLayout
  3
ObjectDBX Classes
 90
        0
280
     0
281
     0
  0
CLASS
  1
DICTIONARYVAR
  2
AcDbDictionaryVar
  3
ObjectDBX Classes
 90
        0
280
     0
281
     0
  0
CLASS
  1
TABLESTYLE
  2
AcDbTableStyle
  3
ObjectDBX Classes
 90
     4095
280
     0
281
     0
  0
CLASS
  1
MATERIAL
  2
AcDbMaterial
  3
ObjectDBX Classes
 90
     1024
280
     0
281
     0
  0
CLASS
  1
VISUALSTYLE
  2
AcDbVisualStyle
  3
ObjectDBX Classes
 90
     4095
280
     0
281
     0
  0
CLASS
  1
XRECORD
  2
AcDbXrecord
  3
AutoCAD 2000
 90
        0
280
     0
281
     0
  0
CLASS
  1
LWPOLYLINE
  2
AcDbPolyline
  3
AutoCAD 2000
 90
        0
280
     0
281
     1
  0
CLASS
  1
HATCH
  2
AcDbHatch
  3
AutoCAD 2000
 90
        0
280
     0
281
     1
  0
ENDSEC
  0
SECTION
  2
TABLES
  0
TABLE
  2
VPORT
  5
8
102
{ACAD_XDICTIONARY
360
C07
102
}
330
0
100
AcDbSymbolTable
 70
     2
  0
VPORT
  5
97
330
8
100
AcDbSymbolTableRecord
100
AcDbViewportTableRecord
  2
*ACTIVE
 70
     0
 10
0.0
 20
0.0
 11
1.0
 21
1.0
 12
214.087527448779
 22
-54.22946372336463
 13
0.0
 23
0.0
 14
0.5
 24
0.5
 15
0.5
 25
0.5
 16
-1.0
 26
-1.0
 36
1.0
 17
0.0
 27
0.0
 37
0.0
 40
270.1401755404957
 41
2.157392686804452
 42
50.0
 43
0.0
 44
0.0
 50
0.0
 51
0.0
 71
    16
 72
  1000
 73
     0
 74
     3
 75
     0
 76
     0
 77
     0
 78
     0
  0
ENDTAB
  0
TABLE
  2
LTYPE
  5
5
330
0
100
AcDbSymbolTable
 70
     1
  0
LTYPE
  5
14
330
5
100
AcDbSymbolTableRecord
100
AcDbLinetypeTableRecord
  2
BYBLOCK
 70
     0
  3

 72
    65
 73
     0
 40
0.0
  0
LTYPE
  5
15
330
5
100
AcDbSymbolTableRecord
100
AcDbLinetypeTableRecord
  2
BYLAYER
 70
     0
  3

 72
    65
 73
     0
 40
0.0
  0
LTYPE
  5
16
330
5
100
AcDbSymbolTableRecord
100
AcDbLinetypeTableRecord
  2
CONTINUOUS
 70
     0
  3
Solid line
 72
    65
 73
     0
 40
0.0
  0
ENDTAB
  0
TABLE
  2
LAYER
  5
2
330
0
100
AcDbSymbolTable
 70
     5
  0
LAYER
  5
10
330
2
100
AcDbSymbolTableRecord
100
AcDbLayerTableRecord
  2
0
 70
     0
 62
     7
  6
CONTINUOUS
  0
LAYER
  5
AB
330
2
100
AcDbSymbolTableRecord
100
AcDbLayerTableRecord
  2
ACESSORIOS
 70
     0
 62
   252
  6
CONTINUOUS
  0
LAYER
  5
7B4
330
2
100
AcDbSymbolTableRecord
100
AcDbLayerTableRecord
  2
DEFPOINTS
 70
     0
 62
     7
  6
CONTINUOUS
  0
LAYER
  5
824
330
2
100
AcDbSymbolTableRecord
100
AcDbLayerTableRecord
  2
1
 70
     0
 62
     2
  6
CONTINUOUS
  0
LAYER
  5
825
330
2
100
AcDbSymbolTableRecord
100
AcDbLayerTableRecord
  2
6
 70
     0
 62
     3
  6
CONTINUOUS
  0
ENDTAB
  0
TABLE
  2
STYLE
  5
3
330
0
100
AcDbSymbolTable
 70
     2
  0
STYLE
  5
11
330
3
100
AcDbSymbolTableRecord
100
AcDbTextStyleTableRecord
  2
STANDARD
 70
     0
 40
0.0
 41
1.0
 50
0.0
 71
     0
 42
0.2
  3
IC-txt.shx
  4

  0
STYLE
  5
826
330
3
100
AcDbSymbolTableRecord
100
AcDbTextStyleTableRecord
  2
BESCHLAG
 70
     0
 40
0.0
 41
1.0
 50
0.0
 71
     0
 42
3.5
  3

  4

1001
ACAD
1000
Arial
1071
       34
  0
ENDTAB
  0
TABLE
  2
VIEW
  5
6
330
0
100
AcDbSymbolTable
 70
     0
  0
ENDTAB
  0
TABLE
  2
UCS
  5
7
330
0
100
AcDbSymbolTable
 70
     0
  0
ENDTAB
  0
TABLE
  2
APPID
  5
9
330
0
100
AcDbSymbolTable
 70
     2
  0
APPID
  5
12
330
9
100
AcDbSymbolTableRecord
100
AcDbRegAppTableRecord
  2
ACAD
 70
     0
  0
APPID
  5
BB9
330
9
100
AcDbSymbolTableRecord
100
AcDbRegAppTableRecord
  2
DCO15
 70
     0
  0
ENDTAB
  0
TABLE
  2
DIMSTYLE
  5
A
330
0
100
AcDbSymbolTable
 70
     2
  0
DIMSTYLE
105
27
330
A
100
AcDbSymbolTableRecord
100
AcDbDimStyleTableRecord
  2
STANDARD
 70
     0
  3

  4

  5

  6

  7

 40
1.0
 41
0.18
 42
0.0625
 43
0.38
 44
0.18
 45
0.0
 46
0.0
 47
0.0
 48
0.0
140
0.18
141
0.09
142
0.0
143
25.4
144
1.0
145
0.0
146
1.0
147
0.09
 71
     0
 72
     0
 73
     1
 74
     1
 75
     0
 76
     0
 77
     0
 78
     0
170
     0
171
     2
172
     0
173
     0
174
     0
175
     0
176
     0
177
     0
178
     0
270
     2
271
     4
272
     4
273
     2
274
     2
340
11
275
     0
280
     0
281
     0
282
     0
283
     1
284
     0
285
     0
286
     0
287
     3
288
     0
  0
DIMSTYLE
105
827
330
A
100
AcDbSymbolTableRecord
100
AcDbDimStyleTableRecord
  2
BESCHLAG
 70
     0
  3

  4

  5

  6

  7

 40
1.0
 41
3.0
 42
1.0
 43
8.0
 44
1.0
 45
0.0
 46
0.0
 47
0.0
 48
0.0
140
3.5
141
2.0
142
0.0
143
0.039370078740157
144
1.0
145
0.0
146
0.71
147
1.0
 71
     0
 72
     0
 73
     0
 74
     0
 75
     0
 76
     0
 77
     1
 78
     8
170
     0
171
     2
172
     1
173
     0
174
     1
175
     0
176
   256
177
   256
178
   256
179
     1
270
     2
271
     1
272
     1
273
     2
274
     2
340
826
275
     0
280
     0
281
     0
282
     0
283
     1
284
     8
285
     8
286
     8
287
     5
288
     0
  0
ENDTAB
  0
TABLE
  2
BLOCK_RECORD
  5
1
330
0
100
AcDbSymbolTable
 70
     2
  0
BLOCK_RECORD
  5
1F
330
1
100
AcDbSymbolTableRecord
100
AcDbBlockTableRecord
  2
*MODEL_SPACE
  0
BLOCK_RECORD
  5
73
330
1
100
AcDbSymbolTableRecord
100
AcDbBlockTableRecord
  2
*PAPER_SPACE
  0
BLOCK_RECORD
  5
610
330
1
100
AcDbSymbolTableRecord
100
AcDbBlockTableRecord
  2
DWG2
  0
BLOCK_RECORD
  5
805
330
1
100
AcDbSymbolTableRecord
100
AcDbBlockTableRecord
  2
MOVENTO_LADENSCH
  0
ENDTAB
  0
ENDSEC
  0
SECTION
  2
BLOCKS
  0
BLOCK
  5
20
330
1F
100
AcDbEntity
  8
0
100
AcDbBlockBegin
  2
*MODEL_SPACE
 70
     0
 71
     0
 10
0.0
 20
0.0
 30
0.0
  3
*MODEL_SPACE
  1

  0
ENDBLK
  5
21
330
1F
100
AcDbEntity
  8
0
100
AcDbBlockEnd
  0
BLOCK
  5
75
330
73
100
AcDbEntity
 67
     1
  8
0
100
AcDbBlockBegin
  2
*PAPER_SPACE
 70
     0
 71
     0
 10
0.0
 20
0.0
 30
0.0
  3
*PAPER_SPACE
  1

  0
ENDBLK
  5
76
330
73
100
AcDbEntity
 67
     1
  8
0
100
AcDbBlockEnd
  0
BLOCK
  5
BBA
330
610
100
AcDbEntity
  8
0
100
AcDbBlockBegin
  2
DWG2
 70
     0
 71
     0
 10
0.0
 20
0.0
 30
0.0
  3
DWG2
  1

  0
ENDBLK
  5
BBB
330
610
100
AcDbEntity
  8
0
100
AcDbBlockEnd
  0
BLOCK
  5
BBC
330
805
100
AcDbEntity
  8
0
100
AcDbBlockBegin
  2
MOVENTO_LADENSCH
 70
     0
 71
     0
 10
0.0
 20
0.0
 30
0.0
  3
MOVENTO_LADENSCH
  1

  0
ARC
  5
807
330
805
100
AcDbEntity
  8
6
  6
CONTINUOUS
100
AcDbCircle
 10
177.3763802095813
 20
143.006652638067
 30
0.0
 40
0.9999999999999856
100
AcDbArc
 50
126.8698976458456
 51
180.0
  0
ARC
  5
808
330
805
100
AcDbEntity
  8
6
  6
CONTINUOUS
100
AcDbCircle
 10
177.3763802095813
 20
148.006652638067
 30
0.0
 40
0.9999999999999916
100
AcDbArc
 50
180.0
 51
233.1301023541556
  0
ARC
  5
809
330
805
100
AcDbEntity
  8
6
  6
CONTINUOUS
100
AcDbCircle
 10
175.8763802095813
 20
145.006652638067
 30
0.0
 40
1.500000000000031
100
AcDbArc
 50
306.8698976458432
 51
0.0
  0
ARC
  5
80A
330
805
100
AcDbEntity
  8
6
  6
CONTINUOUS
100
AcDbCircle
 10
175.8763802095813
 20
146.006652638067
 30
0.0
 40
1.500000000000014
100
AcDbArc
 50
0.0
 51
53.13010235415679
  0
ARC
  5
80B
330
805
100
AcDbEntity
  8
6
  6
CONTINUOUS
100
AcDbCircle
 10
174.6763802095813
 20
148.806652638067
 30
0.0
 40
1.700000000000017
100
AcDbArc
 50
0.0000000000016284
 51
90.0
  0
ARC
  5
80C
330
805
100
AcDbEntity
  8
6
  6
CONTINUOUS
100
AcDbCircle
 10
174.6763802095813
 20
148.806652638067
 30
0.0
 40
0.7000000000001309
100
AcDbArc
 50
0.0000000000024427
 51
90.0
  0
ARC
  5
80D
330
805
100
AcDbEntity
  8
6
  6
CONTINUOUS
100
AcDbCircle
 10
148.3763802095814
 20
148.806652638067
 30
0.0
 40
0.7000000000000455
100
AcDbArc
 50
90.0
 51
180.0
  0
ARC
  5
80E
330
805
100
AcDbEntity
  8
6
  6
CONTINUOUS
100
AcDbCircle
 10
148.3763802095814
 20
148.806652638067
 30
0.0
 40
1.700000000000002
100
AcDbArc
 50
90.00000000000406
 51
180.0
  0
ARC
  5
80F
330
805
100
AcDbEntity
  8
6
  6
CONTINUOUS
100
AcDbCircle
 10
148.3763802095814
 20
130.606652638067
 30
0.0
 40
1.700000000000045
100
AcDbArc
 50
180.0
 51
270.0000000000008
  0
LINE
  5
810
330
805
100
AcDbEntity
  8
6
  6
CONTINUOUS
100
AcDbLine
 10
171.976380781786
 20
132.7066523340834
 30
0.0
 11
171.976380781786
 21
133.7066524979961
 31
0.0
  0
LINE
  5
811
330
805
100
AcDbEntity
  8
6
  6
CONTINUOUS
100
AcDbLine
 10
148.3763798936768
 20
129.9066524339211
 30
0.0
 11
151.0763808950348
 21
129.9066524339211
 31
0.0
  0
LINE
  5
812
330
805
100
AcDbEntity
  8
6
  6
CONTINUOUS
100
AcDbLine
 10
151.0763808950348
 20
128.9066527356697
 30
0.0
 11
151.0763808950348
 21
129.9066524339211
 31
0.0
  0
LINE
  5
813
330
805
100
AcDbEntity
  8
6
  6
CONTINUOUS
100
AcDbLine
 10
146.6763809188766
 20
148.8066529241693
 30
0.0
 11
146.6763809188766
 21
130.6066526417923
 31
0.0
  0
LINE
  5
814
330
805
100
AcDbEntity
  8
6
  6
CONTINUOUS
100
AcDbLine
 10
148.3763798936768
 20
128.9066527356697
 30
0.0
 11
151.0763808950348
 21
128.9066527356697
 31
0.0
  0
ARC
  5
815
330
805
100
AcDbEntity
  8
6
  6
CONTINUOUS
100
AcDbCircle
 10
148.3763802095814
 20
130.606652638067
 30
0.0
 40
0.7000000000000172
100
AcDbArc
 50
180.0
 51
270.0000000000008
  0
LINE
  5
816
330
805
100
AcDbEntity
  8
6
  6
CONTINUOUS
100
AcDbLine
 10
174.6763799204988
 20
149.5066517350567
 30
0.0
 11
148.3763798936768
 21
149.5066517350567
 31
0.0
  0
LINE
  5
817
330
805
100
AcDbEntity
  8
6
  6
CONTINUOUS
100
AcDbLine
 10
174.6763799204988
 20
150.5066518989695
 30
0.0
 11
148.3763798936768
 21
150.5066518989695
 31
0.0
  0
LINE
  5
818
330
805
100
AcDbEntity
  8
6
  6
CONTINUOUS
100
AcDbLine
 10
147.6763792201443
 20
148.8066529241693
 30
0.0
 11
147.6763792201443
 21
130.6066526417923
 31
0.0
  0
LINE
  5
819
330
805
100
AcDbEntity
  8
6
  6
CONTINUOUS
100
AcDbLine
 10
171.976380781786
 20
132.7066523340834
 30
0.0
 11
174.6763799204988
 21
132.7066523340834
 31
0.0
  0
ARC
  5
81A
330
805
100
AcDbEntity
  8
6
  6
CONTINUOUS
100
AcDbCircle
 10
174.6763802095813
 20
134.406652638067
 30
0.0
 40
1.700000000000017
100
AcDbArc
 50
270.0000000000008
 51
0.0
  0
LINE
  5
81B
330
805
100
AcDbEntity
  8
6
  6
CONTINUOUS
100
AcDbLine
 10
171.976380781786
 20
133.7066524979961
 30
0.0
 11
174.6763799204988
 21
133.7066524979961
 31
0.0
  0
LINE
  5
81C
330
805
100
AcDbEntity
  8
6
  6
CONTINUOUS
100
AcDbLine
 10
175.3763805940313
 20
134.406652240206
 30
0.0
 11
175.3763805940313
 21
148.8066529241693
 31
0.0
  0
LINE
  5
81D
330
805
100
AcDbEntity
  8
6
  6
CONTINUOUS
100
AcDbLine
 10
176.3763807579441
 20
134.406652240206
 30
0.0
 11
176.3763807579441
 21
143.0076998845543
 31
0.0
  0
LINE
  5
81E
330
805
100
AcDbEntity
  8
6
  6
CONTINUOUS
100
AcDbLine
 10
176.3763807579441
 20
148.0056053915743
 30
0.0
 11
176.3763807579441
 21
148.8066529241693
 31
0.0
  0
ARC
  5
81F
330
805
100
AcDbEntity
  8
6
  6
CONTINUOUS
100
AcDbCircle
 10
174.6763802095813
 20
134.406652638067
 30
0.0
 40
0.7000000000001309
100
AcDbArc
 50
270.0000000000008
 51
0.0
  0
LINE
  5
820
330
805
100
AcDbEntity
  8
6
  6
CONTINUOUS
100
AcDbLine
 10
177.3763809218569
 20
145.5066529420507
 30
0.0
 11
177.3763809218569
 21
146.0066520926845
 31
0.0
  0
LINE
  5
821
330
805
100
AcDbEntity
  8
6
  6
CONTINUOUS
100
AcDbLine
 10
177.3763809218569
 20
145.0066519287718
 30
0.0
 11
177.3763809218569
 21
145.5066529420507
 31
0.0
  0
LINE
  5
822
330
805
100
AcDbEntity
  8
6
  6
CONTINUOUS
100
AcDbLine
 10
171.976380781786
 20
133.7180686501158
 30
0.0
 11
171.976380781786
 21
133.7066524979961
 31
0.0
  0
ENDBLK
  5
BBD
330
805
100
AcDbEntity
  8
0
100
AcDbBlockEnd
  0
ENDSEC
  0
SECTION
  2
ENTITIES
  0
3DFACE
  5
E2
330
1F
100
AcDbEntity
  8
ACESSORIOS
100
AcDbFace
 10
190.5309697059712
 20
-414.0
 30
-1.69999999999993
 11
191.5309697059712
 21
-414.0
 31
-1.699999999999942
 12
191.5309697059712
 22
-414.0
 32
-16.09999999999993
 13
190.5309697059712
 23
-414.0
 33
-16.09999999999982
  0
3DFACE
  5
E3
330
1F
100
AcDbEntity
  8
ACESSORIOS
100
AcDbFace
 10
189.8309697059714
 20
-414.0
 30
-16.79999999999998
 11
189.8309697059714
 21
-414.0
 31
-17.79999999999998
 12
187.1309697059714
 22
-414.0
 32
-17.79999999999998
 13
187.1309697059714
 23
-414.0
 33
-16.79999999999998
  0
POLYLINE
  5
136
330
1F
100
AcDbEntity
  8
ACESSORIOS
100
AcDbPolygonMesh
 66
     1
 10
0.0
 20
0.0
 30
0.0
 70
    16
 71
     2
 72
     7
  0
VERTEX
  5
137
330
136
100
AcDbEntity
  8
ACESSORIOS
100
AcDbVertex
100
AcDbPolygonMeshVertex
 10
190.5309697059712
 20
-414.0
 30
-16.09999999999982
 70
    64
  0
VERTEX
  5
138
330
136
100
AcDbEntity
  8
ACESSORIOS
100
AcDbVertex
100
AcDbPolygonMeshVertex
 10
190.5071177843737
 20
-414.0
 30
-16.2811733315716
 70
    64
  0
VERTEX
  5
139
330
136
100
AcDbEntity
  8
ACESSORIOS
100
AcDbVertex
100
AcDbPolygonMeshVertex
 10
190.4371874886205
 20
-414.0
 30
-16.44999999999986
 70
    64
  0
VERTEX
  5
13A
330
136
100
AcDbEntity
  8
ACESSORIOS
100
AcDbVertex
100
AcDbPolygonMeshVertex
 10
190.325944452802
 20
-414.0
 30
-16.59497474683047
 70
    64
  0
VERTEX
  5
13B
330
136
100
AcDbEntity
  8
ACESSORIOS
100
AcDbVertex
100
AcDbPolygonMeshVertex
 10
190.1809697059714
 20
-414.0
 30
-16.70621778264902
 70
    64
  0
VERTEX
  5
13C
330
136
100
AcDbEntity
  8
ACESSORIOS
100
AcDbVertex
100
AcDbPolygonMeshVertex
 10
190.0121430375432
 20
-414.0
 30
-16.7761480784023
 70
    64
  0
VERTEX
  5
13D
330
136
100
AcDbEntity
  8
ACESSORIOS
100
AcDbVertex
100
AcDbPolygonMeshVertex
 10
189.8309697059714
 20
-414.0
 30
-16.79999999999998
 70
    64
  0
VERTEX
  5
13E
330
136
100
AcDbEntity
  8
ACESSORIOS
100
AcDbVertex
100
AcDbPolygonMeshVertex
 10
191.5309697059712
 20
-414.0
 30
-16.09999999999993
 70
    64
  0
VERTEX
  5
13F
330
136
100
AcDbEntity
  8
ACESSORIOS
100
AcDbVertex
100
AcDbPolygonMeshVertex
 10
191.4730436106627
 20
-414.0
 30
-16.53999237667421
 70
    64
  0
VERTEX
  5
140
330
136
100
AcDbEntity
  8
ACESSORIOS
100
AcDbVertex
100
AcDbPolygonMeshVertex
 10
191.3032128924049
 20
-414.0
 30
-16.94999999999992
 70
    64
  0
VERTEX
  5
141
330
136
100
AcDbEntity
  8
ACESSORIOS
100
AcDbVertex
100
AcDbPolygonMeshVertex
 10
191.0330512339885
 20
-414.0
 30
-17.30208152801706
 70
    64
  0
VERTEX
  5
142
330
136
100
AcDbEntity
  8
ACESSORIOS
100
AcDbVertex
100
AcDbPolygonMeshVertex
 10
190.6809697059714
 20
-414.0
 30
-17.57224318643349
 70
    64
  0
VERTEX
  5
143
330
136
100
AcDbEntity
  8
ACESSORIOS
100
AcDbVertex
100
AcDbPolygonMeshVertex
 10
190.2709620826457
 20
-414.0
 30
-17.74207390469138
 70
    64
  0
VERTEX
  5
144
330
136
100
AcDbEntity
  8
ACESSORIOS
100
AcDbVertex
100
AcDbPolygonMeshVertex
 10
189.8309697059714
 20
-414.0
 30
-17.79999999999998
 70
    64
  0
SEQEND
  5
BBE
330
136
100
AcDbEntity
  8
ACESSORIOS
  0
POLYLINE
  5
1DF
330
1F
100
AcDbEntity
  8
ACESSORIOS
100
AcDbPolygonMesh
 66
     1
 10
0.0
 20
0.0
 30
0.0
 70
    16
 71
     2
 72
     7
  0
VERTEX
  5
1E0
330
1DF
100
AcDbEntity
  8
ACESSORIOS
100
AcDbVertex
100
AcDbPolygonMeshVertex
 10
190.5309697059711
 20
-414.0
 30
-1.69999999999993
 70
    64
  0
VERTEX
  5
1E1
330
1DF
100
AcDbEntity
  8
ACESSORIOS
100
AcDbVertex
100
AcDbPolygonMeshVertex
 10
190.5071177843735
 20
-414.0
 30
-1.518826668428211
 70
    64
  0
VERTEX
  5
1E2
330
1DF
100
AcDbEntity
  8
ACESSORIOS
100
AcDbVertex
100
AcDbPolygonMeshVertex
 10
190.4371874886203
 20
-414.0
 30
-1.350000000000009
 70
    64
  0
VERTEX
  5
1E3
330
1DF
100
AcDbEntity
  8
ACESSORIOS
100
AcDbVertex
100
AcDbPolygonMeshVertex
 10
190.3259444528019
 20
-414.0
 30
-1.205025253169442
 70
    64
  0
VERTEX
  5
1E4
330
1DF
100
AcDbEntity
  8
ACESSORIOS
100
AcDbVertex
100
AcDbPolygonMeshVertex
 10
190.1809697059713
 20
-414.0
 30
-1.09378221735092
 70
    64
  0
VERTEX
  5
1E5
330
1DF
100
AcDbEntity
  8
ACESSORIOS
100
AcDbVertex
100
AcDbPolygonMeshVertex
 10
190.0121430375432
 20
-414.0
 30
-1.023851921597672
 70
    64
  0
VERTEX
  5
1E6
330
1DF
100
AcDbEntity
  8
ACESSORIOS
100
AcDbVertex
100
AcDbPolygonMeshVertex
 10
189.8309697059714
 20
-414.0
 30
-1.0
 70
    64
  0
VERTEX
  5
1E7
330
1DF
100
AcDbEntity
  8
ACESSORIOS
100
AcDbVertex
100
AcDbPolygonMeshVertex
 10
191.5309697059712
 20
-414.0
 30
-1.69999999999993
 70
    64
  0
VERTEX
  5
1E8
330
1DF
100
AcDbEntity
  8
ACESSORIOS
100
AcDbVertex
100
AcDbPolygonMeshVertex
 10
191.4730436106627
 20
-414.0
 30
-1.260007623325681
 70
    64
  0
VERTEX
  5
1E9
330
1DF
100
AcDbEntity
  8
ACESSORIOS
100
AcDbVertex
100
AcDbPolygonMeshVertex
 10
191.3032128924049
 20
-414.0
 30
-0.8499999999999908
 70
    64
  0
VERTEX
  5
1EA
330
1DF
100
AcDbEntity
  8
ACESSORIOS
100
AcDbVertex
100
AcDbPolygonMeshVertex
 10
191.0330512339885
 20
-414.0
 30
-0.4979184719828815
 70
    64
  0
VERTEX
  5
1EB
330
1DF
100
AcDbEntity
  8
ACESSORIOS
100
AcDbVertex
100
AcDbPolygonMeshVertex
 10
190.6809697059714
 20
-414.0
 30
-0.2277568135664687
 70
    64
  0
VERTEX
  5
1EC
330
1DF
100
AcDbEntity
  8
ACESSORIOS
100
AcDbVertex
100
AcDbPolygonMeshVertex
 10
190.2709620826457
 20
-414.0
 30
-0.0579260953085985
 70
    64
  0
VERTEX
  5
1ED
330
1DF
100
AcDbEntity
  8
ACESSORIOS
100
AcDbVertex
100
AcDbPolygonMeshVertex
 10
189.8309697059714
 20
-414.0
 30
0.0
 70
    64
  0
SEQEND
  5
BBF
330
1DF
100
AcDbEntity
  8
ACESSORIOS
  0
3DFACE
  5
201
330
1F
100
AcDbEntity
  8
ACESSORIOS
100
AcDbFace
 10
189.8309697059715
 20
0.0
 30
0.0
 11
162.5309697059714
 21
0.0
 31
0.0
 12
162.5309697059714
 22
0.0
 32
-1.0
 13
189.8309697059715
 23
0.0
 33
-1.0
  0
3DFACE
  5
202
330
1F
100
AcDbEntity
  8
ACESSORIOS
100
AcDbFace
 10
190.5309697059713
 20
0.0
 30
-1.69999999999993
 11
191.5309697059713
 21
0.0
 31
-1.699999999999942
 12
191.5309697059713
 22
0.0
 32
-16.09999999999993
 13
190.5309697059713
 23
0.0
 33
-16.09999999999982
  0
3DFACE
  5
203
330
1F
100
AcDbEntity
  8
ACESSORIOS
100
AcDbFace
 10
189.8309697059715
 20
0.0
 30
-16.79999999999998
 11
189.8309697059715
 21
0.0
 31
-17.79999999999998
 12
187.1309697059715
 22
0.0
 32
-17.79999999999998
 13
187.1309697059715
 23
0.0
 33
-16.79999999999998
  0
POLYLINE
  5
204
330
1F
100
AcDbEntity
  8
ACESSORIOS
100
AcDbPolygonMesh
 66
     1
 10
0.0
 20
0.0
 30
0.0
 70
    16
 71
     2
 72
     7
  0
VERTEX
  5
205
330
204
100
AcDbEntity
  8
ACESSORIOS
100
AcDbVertex
100
AcDbPolygonMeshVertex
 10
161.8309697059717
 20
0.0
 30
-1.69999999999993
 70
    64
  0
VERTEX
  5
206
330
204
100
AcDbEntity
  8
ACESSORIOS
100
AcDbVertex
100
AcDbPolygonMeshVertex
 10
161.8548216275693
 20
0.0
 30
-1.518826668428211
 70
    64
  0
VERTEX
  5
207
330
204
100
AcDbEntity
  8
ACESSORIOS
100
AcDbVertex
100
AcDbPolygonMeshVertex
 10
161.9247519233225
 20
0.0
 30
-1.350000000000009
 70
    64
  0
VERTEX
  5
208
330
204
100
AcDbEntity
  8
ACESSORIOS
100
AcDbVertex
100
AcDbPolygonMeshVertex
 10
162.035994959141
 20
0.0
 30
-1.205025253169442
 70
    64
  0
VERTEX
  5
209
330
204
100
AcDbEntity
  8
ACESSORIOS
100
AcDbVertex
100
AcDbPolygonMeshVertex
 10
162.1809697059715
 20
0.0
 30
-1.09378221735092
 70
    64
  0
VERTEX
  5
20A
330
204
100
AcDbEntity
  8
ACESSORIOS
100
AcDbVertex
100
AcDbPolygonMeshVertex
 10
162.3497963743997
 20
0.0
 30
-1.023851921597672
 70
    64
  0
VERTEX
  5
20B
330
204
100
AcDbEntity
  8
ACESSORIOS
100
AcDbVertex
100
AcDbPolygonMeshVertex
 10
162.5309697059714
 20
0.0
 30
-1.0
 70
    64
  0
VERTEX
  5
20C
330
204
100
AcDbEntity
  8
ACESSORIOS
100
AcDbVertex
100
AcDbPolygonMeshVertex
 10
160.8309697059716
 20
0.0
 30
-1.69999999999993
 70
    64
  0
VERTEX
  5
20D
330
204
100
AcDbEntity
  8
ACESSORIOS
100
AcDbVertex
100
AcDbPolygonMeshVertex
 10
160.8888958012801
 20
0.0
 30
-1.260007623325681
 70
    64
  0
VERTEX
  5
20E
330
204
100
AcDbEntity
  8
ACESSORIOS
100
AcDbVertex
100
AcDbPolygonMeshVertex
 10
161.058726519538
 20
0.0
 30
-0.8499999999999908
 70
    64
  0
VERTEX
  5
20F
330
204
100
AcDbEntity
  8
ACESSORIOS
100
AcDbVertex
100
AcDbPolygonMeshVertex
 10
161.3288881779544
 20
0.0
 30
-0.4979184719828815
 70
    64
  0
VERTEX
  5
210
330
204
100
AcDbEntity
  8
ACESSORIOS
100
AcDbVertex
100
AcDbPolygonMeshVertex
 10
161.6809697059714
 20
0.0
 30
-0.2277568135664687
 70
    64
  0
VERTEX
  5
211
330
204
100
AcDbEntity
  8
ACESSORIOS
100
AcDbVertex
100
AcDbPolygonMeshVertex
 10
162.0909773292971
 20
0.0
 30
-0.0579260953085985
 70
    64
  0
VERTEX
  5
212
330
204
100
AcDbEntity
  8
ACESSORIOS
100
AcDbVertex
100
AcDbPolygonMeshVertex
 10
162.5309697059714
 20
0.0
 30
0.0
 70
    64
  0
SEQEND
  5
BC0
330
204
100
AcDbEntity
  8
ACESSORIOS
  0
POLYLINE
  5
214
330
1F
100
AcDbEntity
  8
ACESSORIOS
100
AcDbPolygonMesh
 66
     1
 10
0.0
 20
0.0
 30
0.0
 70
    16
 71
     2
 72
     7
  0
VERTEX
  5
215
330
214
100
AcDbEntity
  8
ACESSORIOS
100
AcDbVertex
100
AcDbPolygonMeshVertex
 10
190.5309697059713
 20
0.0
 30
-16.09999999999982
 70
    64
  0
VERTEX
  5
216
330
214
100
AcDbEntity
  8
ACESSORIOS
100
AcDbVertex
100
AcDbPolygonMeshVertex
 10
190.5071177843737
 20
0.0
 30
-16.2811733315716
 70
    64
  0
VERTEX
  5
217
330
214
100
AcDbEntity
  8
ACESSORIOS
100
AcDbVertex
100
AcDbPolygonMeshVertex
 10
190.4371874886205
 20
0.0
 30
-16.44999999999986
 70
    64
  0
VERTEX
  5
218
330
214
100
AcDbEntity
  8
ACESSORIOS
100
AcDbVertex
100
AcDbPolygonMeshVertex
 10
190.325944452802
 20
0.0
 30
-16.59497474683047
 70
    64
  0
VERTEX
  5
219
330
214
100
AcDbEntity
  8
ACESSORIOS
100
AcDbVertex
100
AcDbPolygonMeshVertex
 10
190.1809697059714
 20
0.0
 30
-16.70621778264902
 70
    64
  0
VERTEX
  5
21A
330
214
100
AcDbEntity
  8
ACESSORIOS
100
AcDbVertex
100
AcDbPolygonMeshVertex
 10
190.0121430375432
 20
0.0
 30
-16.7761480784023
 70
    64
  0
VERTEX
  5
21B
330
214
100
AcDbEntity
  8
ACESSORIOS
100
AcDbVertex
100
AcDbPolygonMeshVertex
 10
189.8309697059715
 20
0.0
 30
-16.79999999999998
 70
    64
  0
VERTEX
  5
21C
330
214
100
AcDbEntity
  8
ACESSORIOS
100
AcDbVertex
100
AcDbPolygonMeshVertex
 10
191.5309697059713
 20
0.0
 30
-16.09999999999993
 70
    64
  0
VERTEX
  5
21D
330
214
100
AcDbEntity
  8
ACESSORIOS
100
AcDbVertex
100
AcDbPolygonMeshVertex
 10
191.4730436106627
 20
0.0
 30
-16.53999237667421
 70
    64
  0
VERTEX
  5
21E
330
214
100
AcDbEntity
  8
ACESSORIOS
100
AcDbVertex
100
AcDbPolygonMeshVertex
 10
191.3032128924049
 20
0.0
 30
-16.94999999999992
 70
    64
  0
VERTEX
  5
21F
330
214
100
AcDbEntity
  8
ACESSORIOS
100
AcDbVertex
100
AcDbPolygonMeshVertex
 10
191.0330512339885
 20
0.0
 30
-17.30208152801706
 70
    64
  0
VERTEX
  5
220
330
214
100
AcDbEntity
  8
ACESSORIOS
100
AcDbVertex
100
AcDbPolygonMeshVertex
 10
190.6809697059714
 20
0.0
 30
-17.57224318643349
 70
    64
  0
VERTEX
  5
221
330
214
100
AcDbEntity
  8
ACESSORIOS
100
AcDbVertex
100
AcDbPolygonMeshVertex
 10
190.2709620826457
 20
0.0
 30
-17.74207390469138
 70
    64
  0
VERTEX
  5
222
330
214
100
AcDbEntity
  8
ACESSORIOS
100
AcDbVertex
100
AcDbPolygonMeshVertex
 10
189.8309697059715
 20
0.0
 30
-17.79999999999998
 70
    64
  0
SEQEND
  5
BC1
330
214
100
AcDbEntity
  8
ACESSORIOS
  0
POLYLINE
  5
224
330
1F
100
AcDbEntity
  8
ACESSORIOS
100
AcDbPolygonMesh
 66
     1
 10
0.0
 20
0.0
 30
0.0
 70
    16
 71
     2
 72
     7
  0
VERTEX
  5
225
330
224
100
AcDbEntity
  8
ACESSORIOS
100
AcDbVertex
100
AcDbPolygonMeshVertex
 10
190.5309697059712
 20
0.0
 30
-1.69999999999993
 70
    64
  0
VERTEX
  5
226
330
224
100
AcDbEntity
  8
ACESSORIOS
100
AcDbVertex
100
AcDbPolygonMeshVertex
 10
190.5071177843736
 20
0.0
 30
-1.518826668428211
 70
    64
  0
VERTEX
  5
227
330
224
100
AcDbEntity
  8
ACESSORIOS
100
AcDbVertex
100
AcDbPolygonMeshVertex
 10
190.4371874886204
 20
0.0
 30
-1.350000000000009
 70
    64
  0
VERTEX
  5
228
330
224
100
AcDbEntity
  8
ACESSORIOS
100
AcDbVertex
100
AcDbPolygonMeshVertex
 10
190.3259444528019
 20
0.0
 30
-1.205025253169442
 70
    64
  0
VERTEX
  5
229
330
224
100
AcDbEntity
  8
ACESSORIOS
100
AcDbVertex
100
AcDbPolygonMeshVertex
 10
190.1809697059714
 20
0.0
 30
-1.09378221735092
 70
    64
  0
VERTEX
  5
22A
330
224
100
AcDbEntity
  8
ACESSORIOS
100
AcDbVertex
100
AcDbPolygonMeshVertex
 10
190.0121430375432
 20
0.0
 30
-1.023851921597672
 70
    64
  0
VERTEX
  5
22B
330
224
100
AcDbEntity
  8
ACESSORIOS
100
AcDbVertex
100
AcDbPolygonMeshVertex
 10
189.8309697059715
 20
0.0
 30
-1.0
 70
    64
  0
VERTEX
  5
22C
330
224
100
AcDbEntity
  8
ACESSORIOS
100
AcDbVertex
100
AcDbPolygonMeshVertex
 10
191.5309697059713
 20
0.0
 30
-1.69999999999993
 70
    64
  0
VERTEX
  5
22D
330
224
100
AcDbEntity
  8
ACESSORIOS
100
AcDbVertex
100
AcDbPolygonMeshVertex
 10
191.4730436106627
 20
0.0
 30
-1.260007623325681
 70
    64
  0
VERTEX
  5
22E
330
224
100
AcDbEntity
  8
ACESSORIOS
100
AcDbVertex
100
AcDbPolygonMeshVertex
 10
191.3032128924049
 20
0.0
 30
-0.8499999999999908
 70
    64
  0
VERTEX
  5
22F
330
224
100
AcDbEntity
  8
ACESSORIOS
100
AcDbVertex
100
AcDbPolygonMeshVertex
 10
191.0330512339885
 20
0.0
 30
-0.4979184719828815
 70
    64
  0
VERTEX
  5
230
330
224
100
AcDbEntity
  8
ACESSORIOS
100
AcDbVertex
100
AcDbPolygonMeshVertex
 10
190.6809697059714
 20
0.0
 30
-0.2277568135664687
 70
    64
  0
VERTEX
  5
231
330
224
100
AcDbEntity
  8
ACESSORIOS
100
AcDbVertex
100
AcDbPolygonMeshVertex
 10
190.2709620826457
 20
0.0
 30
-0.0579260953085985
 70
    64
  0
VERTEX
  5
232
330
224
100
AcDbEntity
  8
ACESSORIOS
100
AcDbVertex
100
AcDbPolygonMeshVertex
 10
189.8309697059715
 20
0.0
 30
0.0
 70
    64
  0
SEQEND
  5
BC2
330
224
100
AcDbEntity
  8
ACESSORIOS
  0
3DFACE
  5
234
330
1F
100
AcDbEntity
  8
ACESSORIOS
100
AcDbFace
 10
161.8309697059716
 20
0.0
 30
-1.69999999999993
 11
160.8309697059716
 21
0.0
 31
-1.699999999999942
 12
160.8309697059716
 22
0.0
 32
-19.89999999999993
 13
161.8309697059716
 23
0.0
 33
-19.89999999999982
  0
3DFACE
  5
235
330
1F
100
AcDbEntity
  8
ACESSORIOS
100
AcDbFace
 10
162.5309697059714
 20
0.0
 30
-20.59999999999998
 11
162.5309697059714
 21
0.0
 31
-21.59999999999998
 12
165.2309697059714
 22
0.0
 32
-21.59999999999998
 13
165.2309697059714
 23
0.0
 33
-20.59999999999998
  0
POLYLINE
  5
236
330
1F
100
AcDbEntity
  8
ACESSORIOS
100
AcDbPolygonMesh
 66
     1
 10
0.0
 20
0.0
 30
0.0
 70
    16
 71
     2
 72
     7
  0
VERTEX
  5
237
330
236
100
AcDbEntity
  8
ACESSORIOS
100
AcDbVertex
100
AcDbPolygonMeshVertex
 10
161.8309697059716
 20
0.0
 30
-19.89999999999982
 70
    64
  0
VERTEX
  5
238
330
236
100
AcDbEntity
  8
ACESSORIOS
100
AcDbVertex
100
AcDbPolygonMeshVertex
 10
161.8548216275692
 20
0.0
 30
-20.08117333157159
 70
    64
  0
VERTEX
  5
239
330
236
100
AcDbEntity
  8
ACESSORIOS
100
AcDbVertex
100
AcDbPolygonMeshVertex
 10
161.9247519233224
 20
0.0
 30
-20.24999999999985
 70
    64
  0
VERTEX
  5
23A
330
236
100
AcDbEntity
  8
ACESSORIOS
100
AcDbVertex
100
AcDbPolygonMeshVertex
 10
162.0359949591408
 20
0.0
 30
-20.39497474683047
 70
    64
  0
VERTEX
  5
23B
330
236
100
AcDbEntity
  8
ACESSORIOS
100
AcDbVertex
100
AcDbPolygonMeshVertex
 10
162.1809697059714
 20
0.0
 30
-20.50621778264902
 70
    64
  0
VERTEX
  5
23C
330
236
100
AcDbEntity
  8
ACESSORIOS
100
AcDbVertex
100
AcDbPolygonMeshVertex
 10
162.3497963743996
 20
0.0
 30
-20.5761480784023
 70
    64
  0
VERTEX
  5
23D
330
236
100
AcDbEntity
  8
ACESSORIOS
100
AcDbVertex
100
AcDbPolygonMeshVertex
 10
162.5309697059714
 20
0.0
 30
-20.59999999999998
 70
    64
  0
VERTEX
  5
23E
330
236
100
AcDbEntity
  8
ACESSORIOS
100
AcDbVertex
100
AcDbPolygonMeshVertex
 10
160.8309697059716
 20
0.0
 30
-19.89999999999993
 70
    64
  0
VERTEX
  5
23F
330
236
100
AcDbEntity
  8
ACESSORIOS
100
AcDbVertex
100
AcDbPolygonMeshVertex
 10
160.8888958012801
 20
0.0
 30
-20.33999237667421
 70
    64
  0
VERTEX
  5
240
330
236
100
AcDbEntity
  8
ACESSORIOS
100
AcDbVertex
100
AcDbPolygonMeshVertex
 10
161.0587265195379
 20
0.0
 30
-20.74999999999992
 70
    64
  0
VERTEX
  5
241
330
236
100
AcDbEntity
  8
ACESSORIOS
100
AcDbVertex
100
AcDbPolygonMeshVertex
 10
161.3288881779543
 20
0.0
 30
-21.10208152801706
 70
    64
  0
VERTEX
  5
242
330
236
100
AcDbEntity
  8
ACESSORIOS
100
AcDbVertex
100
AcDbPolygonMeshVertex
 10
161.6809697059714
 20
0.0
 30
-21.37224318643348
 70
    64
  0
VERTEX
  5
243
330
236
100
AcDbEntity
  8
ACESSORIOS
100
AcDbVertex
100
AcDbPolygonMeshVertex
 10
162.0909773292971
 20
0.0
 30
-21.54207390469137
 70
    64
  0
VERTEX
  5
244
330
236
100
AcDbEntity
  8
ACESSORIOS
100
AcDbVertex
100
AcDbPolygonMeshVertex
 10
162.5309697059714
 20
0.0
 30
-21.59999999999998
 70
    64
  0
SEQEND
  5
BC3
330
236
100
AcDbEntity
  8
ACESSORIOS
  0
3DFACE
  5
246
330
1F
100
AcDbEntity
  8
ACESSORIOS
100
AcDbFace
 10
162.5309697059714
 20
0.0
 30
0.0
 11
162.5309697059714
 21
-414.0
 31
0.0
 12
189.8309697059714
 22
-414.0
 32
0.0
 13
189.8309697059715
 23
0.0
 33
0.0
  0
3DFACE
  5
247
330
1F
100
AcDbEntity
  8
ACESSORIOS
100
AcDbFace
 10
162.5309697059714
 20
0.0
 30
-1.0
 11
162.5309697059714
 21
-414.0
 31
-1.0
 12
189.8309697059714
 22
-414.0
 32
-1.0
 13
189.8309697059715
 23
0.0
 33
-1.0
  0
3DFACE
  5
248
330
1F
100
AcDbEntity
  8
ACESSORIOS
100
AcDbFace
 10
191.5309697059713
 20
0.0
 30
-1.699999999999942
 11
191.5309697059712
 21
-414.0
 31
-1.699999999999942
 12
191.5309697059712
 22
-414.0
 32
-16.09999999999993
 13
191.5309697059713
 23
0.0
 33
-16.09999999999993
  0
3DFACE
  5
249
330
1F
100
AcDbEntity
  8
ACESSORIOS
100
AcDbFace
 10
190.5309697059713
 20
0.0
 30
-1.699999999999822
 11
190.5309697059712
 21
-414.0
 31
-1.699999999999822
 12
190.5309697059712
 22
-414.0
 32
-16.09999999999982
 13
190.5309697059713
 23
0.0
 33
-16.09999999999982
  0
3DFACE
  5
24A
330
1F
100
AcDbEntity
  8
ACESSORIOS
100
AcDbFace
 10
187.1309697059715
 20
0.0
 30
-16.79999999999998
 11
187.1309697059714
 21
-414.0
 31
-16.79999999999998
 12
189.8309697059714
 22
-414.0
 32
-16.79999999999998
 13
189.8309697059715
 23
0.0
 33
-16.79999999999998
  0
3DFACE
  5
24B
330
1F
100
AcDbEntity
  8
ACESSORIOS
100
AcDbFace
 10
187.1309697059715
 20
0.0
 30
-17.79999999999998
 11
187.1309697059714
 21
-414.0
 31
-17.79999999999998
 12
189.8309697059714
 22
-414.0
 32
-17.79999999999998
 13
189.8309697059715
 23
0.0
 33
-17.79999999999998
  0
3DFACE
  5
24C
330
1F
100
AcDbEntity
  8
ACESSORIOS
100
AcDbFace
 10
187.1309697059715
 20
0.0
 30
-17.79999999999998
 11
187.1309697059715
 21
0.0
 31
-16.79999999999998
 12
187.1309697059714
 22
-414.0
 32
-16.79999999999998
 13
187.1309697059714
 23
-414.0
 33
-17.79999999999998
  0
3DFACE
  5
24D
330
1F
100
AcDbEntity
  8
ACESSORIOS
100
AcDbFace
 10
162.5309697059714
 20
0.0
 30
-20.59999999999998
 11
162.5309697059714
 21
-414.0
 31
-20.59999999999997
 12
165.2309697059713
 22
-414.0
 32
-20.59999999999997
 13
165.2309697059714
 23
0.0
 33
-20.59999999999998
  0
3DFACE
  5
24E
330
1F
100
AcDbEntity
  8
ACESSORIOS
100
AcDbFace
 10
162.5309697059714
 20
0.0
 30
-21.59999999999998
 11
162.5309697059714
 21
-414.0
 31
-21.59999999999997
 12
165.2309697059713
 22
-414.0
 32
-21.59999999999997
 13
165.2309697059714
 23
0.0
 33
-21.59999999999998
  0
3DFACE
  5
24F
330
1F
100
AcDbEntity
  8
ACESSORIOS
100
AcDbFace
 10
165.2309697059714
 20
0.0
 30
-21.59999999999998
 11
165.2309697059714
 21
0.0
 31
-20.59999999999998
 12
165.2309697059713
 22
-414.0
 32
-20.59999999999997
 13
165.2309697059713
 23
-414.0
 33
-21.59999999999997
  0
3DFACE
  5
250
330
1F
100
AcDbEntity
  8
ACESSORIOS
100
AcDbFace
 10
161.8309697059716
 20
0.0
 30
-1.699999999999822
 11
161.8309697059715
 21
-414.0
 31
-1.699999999999982
 12
161.8309697059715
 22
-414.0
 32
-19.89999999999981
 13
161.8309697059716
 23
0.0
 33
-19.89999999999982
  0
3DFACE
  5
251
330
1F
100
AcDbEntity
  8
ACESSORIOS
100
AcDbFace
 10
160.8309697059716
 20
0.0
 30
-1.699999999999712
 11
160.8309697059715
 21
-414.0
 31
-1.699999999999982
 12
160.8309697059715
 22
-414.0
 32
-19.8999999999999
 13
160.8309697059716
 23
0.0
 33
-19.89999999999971
  0
POLYLINE
  5
2EF
330
1F
100
AcDbEntity
  8
ACESSORIOS
100
AcDbPolygonMesh
 66
     1
 10
0.0
 20
0.0
 30
0.0
 70
    16
 71
     2
 72
     7
  0
VERTEX
  5
2F0
330
2EF
100
AcDbEntity
  8
ACESSORIOS
100
AcDbVertex
100
AcDbPolygonMeshVertex
 10
162.5309697059714
 20
0.0
 30
0.0
 70
    64
  0
VERTEX
  5
2F1
330
2EF
100
AcDbEntity
  8
ACESSORIOS
100
AcDbVertex
100
AcDbPolygonMeshVertex
 10
162.0909773292971
 20
0.0
 30
-0.0579260953085985
 70
    64
  0
VERTEX
  5
2F2
330
2EF
100
AcDbEntity
  8
ACESSORIOS
100
AcDbVertex
100
AcDbPolygonMeshVertex
 10
161.6809697059714
 20
0.0
 30
-0.2277568135664687
 70
    64
  0
VERTEX
  5
2F3
330
2EF
100
AcDbEntity
  8
ACESSORIOS
100
AcDbVertex
100
AcDbPolygonMeshVertex
 10
161.3288881779544
 20
0.0
 30
-0.4979184719828815
 70
    64
  0
VERTEX
  5
2F4
330
2EF
100
AcDbEntity
  8
ACESSORIOS
100
AcDbVertex
100
AcDbPolygonMeshVertex
 10
161.058726519538
 20
0.0
 30
-0.8499999999999908
 70
    64
  0
VERTEX
  5
2F5
330
2EF
100
AcDbEntity
  8
ACESSORIOS
100
AcDbVertex
100
AcDbPolygonMeshVertex
 10
160.8888958012801
 20
0.0
 30
-1.260007623325681
 70
    64
  0
VERTEX
  5
2F6
330
2EF
100
AcDbEntity
  8
ACESSORIOS
100
AcDbVertex
100
AcDbPolygonMeshVertex
 10
160.8309697059716
 20
0.0
 30
-1.69999999999993
 70
    64
  0
VERTEX
  5
2F7
330
2EF
100
AcDbEntity
  8
ACESSORIOS
100
AcDbVertex
100
AcDbPolygonMeshVertex
 10
162.5309697059714
 20
-414.0
 30
0.0000000000000284
 70
    64
  0
VERTEX
  5
2F8
330
2EF
100
AcDbEntity
  8
ACESSORIOS
100
AcDbVertex
100
AcDbPolygonMeshVertex
 10
162.0909773292963
 20
-414.0
 30
-0.0579260953084102
 70
    64
  0
VERTEX
  5
2F9
330
2EF
100
AcDbEntity
  8
ACESSORIOS
100
AcDbVertex
100
AcDbPolygonMeshVertex
 10
161.6809697059707
 20
-414.0
 30
-0.2277568135663302
 70
    64
  0
VERTEX
  5
2FA
330
2EF
100
AcDbEntity
  8
ACESSORIOS
100
AcDbVertex
100
AcDbPolygonMeshVertex
 10
161.3288881779536
 20
-414.0
 30
-0.4979184719827998
 70
    64
  0
VERTEX
  5
2FB
330
2EF
100
AcDbEntity
  8
ACESSORIOS
100
AcDbVertex
100
AcDbPolygonMeshVertex
 10
161.0587265195372
 20
-414.0
 30
-0.8499999999999623
 70
    64
  0
VERTEX
  5
2FC
330
2EF
100
AcDbEntity
  8
ACESSORIOS
100
AcDbVertex
100
AcDbPolygonMeshVertex
 10
160.8888958012794
 20
-414.0
 30
-1.260007623325691
 70
    64
  0
VERTEX
  5
2FD
330
2EF
100
AcDbEntity
  8
ACESSORIOS
100
AcDbVertex
100
AcDbPolygonMeshVertex
 10
160.8309697059715
 20
-414.0
 30
-1.699999999999982
 70
    64
  0
SEQEND
  5
BC4
330
2EF
100
AcDbEntity
  8
ACESSORIOS
  0
POLYLINE
  5
2FF
330
1F
100
AcDbEntity
  8
ACESSORIOS
100
AcDbPolygonMesh
 66
     1
 10
0.0
 20
0.0
 30
0.0
 70
    16
 71
     2
 72
     7
  0
VERTEX
  5
300
330
2FF
100
AcDbEntity
  8
ACESSORIOS
100
AcDbVertex
100
AcDbPolygonMeshVertex
 10
162.5309697059714
 20
-414.0
 30
-0.9999999999999538
 70
    64
  0
VERTEX
  5
301
330
2FF
100
AcDbEntity
  8
ACESSORIOS
100
AcDbVertex
100
AcDbPolygonMeshVertex
 10
162.3497963743989
 20
-414.0
 30
-1.023851921597451
 70
    64
  0
VERTEX
  5
302
330
2FF
100
AcDbEntity
  8
ACESSORIOS
100
AcDbVertex
100
AcDbPolygonMeshVertex
 10
162.1809697059707
 20
-414.0
 30
-1.093782217350739
 70
    64
  0
VERTEX
  5
303
330
2FF
100
AcDbEntity
  8
ACESSORIOS
100
AcDbVertex
100
AcDbPolygonMeshVertex
 10
162.0359949591401
 20
-414.0
 30
-1.20502525316931
 70
    64
  0
VERTEX
  5
304
330
2FF
100
AcDbEntity
  8
ACESSORIOS
100
AcDbVertex
100
AcDbPolygonMeshVertex
 10
161.9247519233217
 20
-414.0
 30
-1.349999999999941
 70
    64
  0
VERTEX
  5
305
330
2FF
100
AcDbEntity
  8
ACESSORIOS
100
AcDbVertex
100
AcDbPolygonMeshVertex
 10
161.8548216275685
 20
-414.0
 30
-1.518826668428202
 70
    64
  0
VERTEX
  5
306
330
2FF
100
AcDbEntity
  8
ACESSORIOS
100
AcDbVertex
100
AcDbPolygonMeshVertex
 10
161.8309697059715
 20
-414.0
 30
-1.699999999999982
 70
    64
  0
VERTEX
  5
307
330
2FF
100
AcDbEntity
  8
ACESSORIOS
100
AcDbVertex
100
AcDbPolygonMeshVertex
 10
162.5309697059714
 20
0.0
 30
-1.0
 70
    64
  0
VERTEX
  5
308
330
2FF
100
AcDbEntity
  8
ACESSORIOS
100
AcDbVertex
100
AcDbPolygonMeshVertex
 10
162.3497963743997
 20
0.0
 30
-1.023851921597672
 70
    64
  0
VERTEX
  5
309
330
2FF
100
AcDbEntity
  8
ACESSORIOS
100
AcDbVertex
100
AcDbPolygonMeshVertex
 10
162.1809697059715
 20
0.0
 30
-1.09378221735092
 70
    64
  0
VERTEX
  5
30A
330
2FF
100
AcDbEntity
  8
ACESSORIOS
100
AcDbVertex
100
AcDbPolygonMeshVertex
 10
162.035994959141
 20
0.0
 30
-1.205025253169442
 70
    64
  0
VERTEX
  5
30B
330
2FF
100
AcDbEntity
  8
ACESSORIOS
100
AcDbVertex
100
AcDbPolygonMeshVertex
 10
161.9247519233225
 20
0.0
 30
-1.350000000000009
 70
    64
  0
VERTEX
  5
30C
330
2FF
100
AcDbEntity
  8
ACESSORIOS
100
AcDbVertex
100
AcDbPolygonMeshVertex
 10
161.8548216275693
 20
0.0
 30
-1.518826668428211
 70
    64
  0
VERTEX
  5
30D
330
2FF
100
AcDbEntity
  8
ACESSORIOS
100
AcDbVertex
100
AcDbPolygonMeshVertex
 10
161.8309697059717
 20
0.0
 30
-1.69999999999993
 70
    64
  0
SEQEND
  5
BC5
330
2FF
100
AcDbEntity
  8
ACESSORIOS
  0
POLYLINE
  5
30F
330
1F
100
AcDbEntity
  8
ACESSORIOS
100
AcDbPolygonMesh
 66
     1
 10
0.0
 20
0.0
 30
0.0
 70
    16
 71
     2
 72
     7
  0
VERTEX
  5
310
330
30F
100
AcDbEntity
  8
ACESSORIOS
100
AcDbVertex
100
AcDbPolygonMeshVertex
 10
161.8309697059716
 20
0.0
 30
-19.89999999999982
 70
    64
  0
VERTEX
  5
311
330
30F
100
AcDbEntity
  8
ACESSORIOS
100
AcDbVertex
100
AcDbPolygonMeshVertex
 10
161.8548216275692
 20
0.0
 30
-20.08117333157159
 70
    64
  0
VERTEX
  5
312
330
30F
100
AcDbEntity
  8
ACESSORIOS
100
AcDbVertex
100
AcDbPolygonMeshVertex
 10
161.9247519233224
 20
0.0
 30
-20.24999999999985
 70
    64
  0
VERTEX
  5
313
330
30F
100
AcDbEntity
  8
ACESSORIOS
100
AcDbVertex
100
AcDbPolygonMeshVertex
 10
162.0359949591408
 20
0.0
 30
-20.39497474683047
 70
    64
  0
VERTEX
  5
314
330
30F
100
AcDbEntity
  8
ACESSORIOS
100
AcDbVertex
100
AcDbPolygonMeshVertex
 10
162.1809697059714
 20
0.0
 30
-20.50621778264902
 70
    64
  0
VERTEX
  5
315
330
30F
100
AcDbEntity
  8
ACESSORIOS
100
AcDbVertex
100
AcDbPolygonMeshVertex
 10
162.3497963743996
 20
0.0
 30
-20.5761480784023
 70
    64
  0
VERTEX
  5
316
330
30F
100
AcDbEntity
  8
ACESSORIOS
100
AcDbVertex
100
AcDbPolygonMeshVertex
 10
162.5309697059714
 20
0.0
 30
-20.59999999999998
 70
    64
  0
VERTEX
  5
317
330
30F
100
AcDbEntity
  8
ACESSORIOS
100
AcDbVertex
100
AcDbPolygonMeshVertex
 10
161.8309697059715
 20
-414.0
 30
-19.89999999999981
 70
    64
  0
VERTEX
  5
318
330
30F
100
AcDbEntity
  8
ACESSORIOS
100
AcDbVertex
100
AcDbPolygonMeshVertex
 10
161.8548216275691
 20
-414.0
 30
-20.08117333157158
 70
    64
  0
VERTEX
  5
319
330
30F
100
AcDbEntity
  8
ACESSORIOS
100
AcDbVertex
100
AcDbPolygonMeshVertex
 10
161.9247519233223
 20
-414.0
 30
-20.24999999999984
 70
    64
  0
VERTEX
  5
31A
330
30F
100
AcDbEntity
  8
ACESSORIOS
100
AcDbVertex
100
AcDbPolygonMeshVertex
 10
162.0359949591408
 20
-414.0
 30
-20.39497474683045
 70
    64
  0
VERTEX
  5
31B
330
30F
100
AcDbEntity
  8
ACESSORIOS
100
AcDbVertex
100
AcDbPolygonMeshVertex
 10
162.1809697059714
 20
-414.0
 30
-20.50621778264901
 70
    64
  0
VERTEX
  5
31C
330
30F
100
AcDbEntity
  8
ACESSORIOS
100
AcDbVertex
100
AcDbPolygonMeshVertex
 10
162.3497963743996
 20
-414.0
 30
-20.57614807840228
 70
    64
  0
VERTEX
  5
31D
330
30F
100
AcDbEntity
  8
ACESSORIOS
100
AcDbVertex
100
AcDbPolygonMeshVertex
 10
162.5309697059714
 20
-414.0
 30
-20.59999999999997
 70
    64
  0
SEQEND
  5
BC6
330
30F
100
AcDbEntity
  8
ACESSORIOS
  0
POLYLINE
  5
31F
330
1F
100
AcDbEntity
  8
ACESSORIOS
100
AcDbPolygonMesh
 66
     1
 10
0.0
 20
0.0
 30
0.0
 70
    16
 71
     2
 72
     7
  0
VERTEX
  5
320
330
31F
100
AcDbEntity
  8
ACESSORIOS
100
AcDbVertex
100
AcDbPolygonMeshVertex
 10
160.8309697059715
 20
-414.0
 30
-19.8999999999999
 70
    64
  0
VERTEX
  5
321
330
31F
100
AcDbEntity
  8
ACESSORIOS
100
AcDbVertex
100
AcDbPolygonMeshVertex
 10
160.8888958012801
 20
-414.0
 30
-20.33999237667417
 70
    64
  0
VERTEX
  5
322
330
31F
100
AcDbEntity
  8
ACESSORIOS
100
AcDbVertex
100
AcDbPolygonMeshVertex
 10
161.0587265195379
 20
-414.0
 30
-20.74999999999989
 70
    64
  0
VERTEX
  5
323
330
31F
100
AcDbEntity
  8
ACESSORIOS
100
AcDbVertex
100
AcDbPolygonMeshVertex
 10
161.3288881779543
 20
-414.0
 30
-21.10208152801703
 70
    64
  0
VERTEX
  5
324
330
31F
100
AcDbEntity
  8
ACESSORIOS
100
AcDbVertex
100
AcDbPolygonMeshVertex
 10
161.6809697059714
 20
-414.0
 30
-21.37224318643346
 70
    64
  0
VERTEX
  5
325
330
31F
100
AcDbEntity
  8
ACESSORIOS
100
AcDbVertex
100
AcDbPolygonMeshVertex
 10
162.0909773292971
 20
-414.0
 30
-21.54207390469136
 70
    64
  0
VERTEX
  5
326
330
31F
100
AcDbEntity
  8
ACESSORIOS
100
AcDbVertex
100
AcDbPolygonMeshVertex
 10
162.5309697059714
 20
-414.0
 30
-21.59999999999997
 70
    64
  0
VERTEX
  5
327
330
31F
100
AcDbEntity
  8
ACESSORIOS
100
AcDbVertex
100
AcDbPolygonMeshVertex
 10
160.8309697059716
 20
0.0
 30
-19.89999999999994
 70
    64
  0
VERTEX
  5
328
330
31F
100
AcDbEntity
  8
ACESSORIOS
100
AcDbVertex
100
AcDbPolygonMeshVertex
 10
160.8888958012801
 20
0.0
 30
-20.33999237667421
 70
    64
  0
VERTEX
  5
329
330
31F
100
AcDbEntity
  8
ACESSORIOS
100
AcDbVertex
100
AcDbPolygonMeshVertex
 10
161.0587265195379
 20
0.0
 30
-20.74999999999992
 70
    64
  0
VERTEX
  5
32A
330
31F
100
AcDbEntity
  8
ACESSORIOS
100
AcDbVertex
100
AcDbPolygonMeshVertex
 10
161.3288881779543
 20
0.0
 30
-21.10208152801706
 70
    64
  0
VERTEX
  5
32B
330
31F
100
AcDbEntity
  8
ACESSORIOS
100
AcDbVertex
100
AcDbPolygonMeshVertex
 10
161.6809697059714
 20
0.0
 30
-21.37224318643349
 70
    64
  0
VERTEX
  5
32C
330
31F
100
AcDbEntity
  8
ACESSORIOS
100
AcDbVertex
100
AcDbPolygonMeshVertex
 10
162.0909773292971
 20
0.0
 30
-21.54207390469137
 70
    64
  0
VERTEX
  5
32D
330
31F
100
AcDbEntity
  8
ACESSORIOS
100
AcDbVertex
100
AcDbPolygonMeshVertex
 10
162.5309697059714
 20
0.0
 30
-21.59999999999998
 70
    64
  0
SEQEND
  5
BC7
330
31F
100
AcDbEntity
  8
ACESSORIOS
  0
POLYLINE
  5
32F
330
1F
100
AcDbEntity
  8
ACESSORIOS
100
AcDbPolygonMesh
 66
     1
 10
0.0
 20
0.0
 30
0.0
 70
    16
 71
     2
 72
     7
  0
VERTEX
  5
330
330
32F
100
AcDbEntity
  8
ACESSORIOS
100
AcDbVertex
100
AcDbPolygonMeshVertex
 10
189.8309697059715
 20
0.0
 30
-17.79999999999998
 70
    64
  0
VERTEX
  5
331
330
32F
100
AcDbEntity
  8
ACESSORIOS
100
AcDbVertex
100
AcDbPolygonMeshVertex
 10
190.2709620826457
 20
0.0
 30
-17.74207390469138
 70
    64
  0
VERTEX
  5
332
330
32F
100
AcDbEntity
  8
ACESSORIOS
100
AcDbVertex
100
AcDbPolygonMeshVertex
 10
190.6809697059714
 20
0.0
 30
-17.57224318643349
 70
    64
  0
VERTEX
  5
333
330
32F
100
AcDbEntity
  8
ACESSORIOS
100
AcDbVertex
100
AcDbPolygonMeshVertex
 10
191.0330512339885
 20
0.0
 30
-17.30208152801706
 70
    64
  0
VERTEX
  5
334
330
32F
100
AcDbEntity
  8
ACESSORIOS
100
AcDbVertex
100
AcDbPolygonMeshVertex
 10
191.3032128924049
 20
0.0
 30
-16.94999999999992
 70
    64
  0
VERTEX
  5
335
330
32F
100
AcDbEntity
  8
ACESSORIOS
100
AcDbVertex
100
AcDbPolygonMeshVertex
 10
191.4730436106627
 20
0.0
 30
-16.53999237667421
 70
    64
  0
VERTEX
  5
336
330
32F
100
AcDbEntity
  8
ACESSORIOS
100
AcDbVertex
100
AcDbPolygonMeshVertex
 10
191.5309697059713
 20
0.0
 30
-16.09999999999993
 70
    64
  0
VERTEX
  5
337
330
32F
100
AcDbEntity
  8
ACESSORIOS
100
AcDbVertex
100
AcDbPolygonMeshVertex
 10
189.8309697059714
 20
-414.0
 30
-17.79999999999998
 70
    64
  0
VERTEX
  5
338
330
32F
100
AcDbEntity
  8
ACESSORIOS
100
AcDbVertex
100
AcDbPolygonMeshVertex
 10
190.2709620826457
 20
-414.0
 30
-17.74207390469138
 70
    64
  0
VERTEX
  5
339
330
32F
100
AcDbEntity
  8
ACESSORIOS
100
AcDbVertex
100
AcDbPolygonMeshVertex
 10
190.6809697059714
 20
-414.0
 30
-17.57224318643349
 70
    64
  0
VERTEX
  5
33A
330
32F
100
AcDbEntity
  8
ACESSORIOS
100
AcDbVertex
100
AcDbPolygonMeshVertex
 10
191.0330512339885
 20
-414.0
 30
-17.30208152801706
 70
    64
  0
VERTEX
  5
33B
330
32F
100
AcDbEntity
  8
ACESSORIOS
100
AcDbVertex
100
AcDbPolygonMeshVertex
 10
191.3032128924049
 20
-414.0
 30
-16.94999999999992
 70
    64
  0
VERTEX
  5
33C
330
32F
100
AcDbEntity
  8
ACESSORIOS
100
AcDbVertex
100
AcDbPolygonMeshVertex
 10
191.4730436106627
 20
-414.0
 30
-16.53999237667421
 70
    64
  0
VERTEX
  5
33D
330
32F
100
AcDbEntity
  8
ACESSORIOS
100
AcDbVertex
100
AcDbPolygonMeshVertex
 10
191.5309697059712
 20
-414.0
 30
-16.09999999999993
 70
    64
  0
SEQEND
  5
BC8
330
32F
100
AcDbEntity
  8
ACESSORIOS
  0
POLYLINE
  5
33F
330
1F
100
AcDbEntity
  8
ACESSORIOS
100
AcDbPolygonMesh
 66
     1
 10
0.0
 20
0.0
 30
0.0
 70
    16
 71
     2
 72
     7
  0
VERTEX
  5
340
330
33F
100
AcDbEntity
  8
ACESSORIOS
100
AcDbVertex
100
AcDbPolygonMeshVertex
 10
189.8309697059714
 20
-414.0
 30
-16.79999999999998
 70
    64
  0
VERTEX
  5
341
330
33F
100
AcDbEntity
  8
ACESSORIOS
100
AcDbVertex
100
AcDbPolygonMeshVertex
 10
190.0121430375432
 20
-414.0
 30
-16.7761480784023
 70
    64
  0
VERTEX
  5
342
330
33F
100
AcDbEntity
  8
ACESSORIOS
100
AcDbVertex
100
AcDbPolygonMeshVertex
 10
190.1809697059714
 20
-414.0
 30
-16.70621778264902
 70
    64
  0
VERTEX
  5
343
330
33F
100
AcDbEntity
  8
ACESSORIOS
100
AcDbVertex
100
AcDbPolygonMeshVertex
 10
190.325944452802
 20
-414.0
 30
-16.59497474683047
 70
    64
  0
VERTEX
  5
344
330
33F
100
AcDbEntity
  8
ACESSORIOS
100
AcDbVertex
100
AcDbPolygonMeshVertex
 10
190.4371874886205
 20
-414.0
 30
-16.44999999999986
 70
    64
  0
VERTEX
  5
345
330
33F
100
AcDbEntity
  8
ACESSORIOS
100
AcDbVertex
100
AcDbPolygonMeshVertex
 10
190.5071177843737
 20
-414.0
 30
-16.2811733315716
 70
    64
  0
VERTEX
  5
346
330
33F
100
AcDbEntity
  8
ACESSORIOS
100
AcDbVertex
100
AcDbPolygonMeshVertex
 10
190.5309697059712
 20
-414.0
 30
-16.09999999999982
 70
    64
  0
VERTEX
  5
347
330
33F
100
AcDbEntity
  8
ACESSORIOS
100
AcDbVertex
100
AcDbPolygonMeshVertex
 10
189.8309697059715
 20
0.0
 30
-16.79999999999998
 70
    64
  0
VERTEX
  5
348
330
33F
100
AcDbEntity
  8
ACESSORIOS
100
AcDbVertex
100
AcDbPolygonMeshVertex
 10
190.0121430375432
 20
0.0
 30
-16.7761480784023
 70
    64
  0
VERTEX
  5
349
330
33F
100
AcDbEntity
  8
ACESSORIOS
100
AcDbVertex
100
AcDbPolygonMeshVertex
 10
190.1809697059714
 20
0.0
 30
-16.70621778264902
 70
    64
  0
VERTEX
  5
34A
330
33F
100
AcDbEntity
  8
ACESSORIOS
100
AcDbVertex
100
AcDbPolygonMeshVertex
 10
190.325944452802
 20
0.0
 30
-16.59497474683047
 70
    64
  0
VERTEX
  5
34B
330
33F
100
AcDbEntity
  8
ACESSORIOS
100
AcDbVertex
100
AcDbPolygonMeshVertex
 10
190.4371874886205
 20
0.0
 30
-16.44999999999985
 70
    64
  0
VERTEX
  5
34C
330
33F
100
AcDbEntity
  8
ACESSORIOS
100
AcDbVertex
100
AcDbPolygonMeshVertex
 10
190.5071177843737
 20
0.0
 30
-16.2811733315716
 70
    64
  0
VERTEX
  5
34D
330
33F
100
AcDbEntity
  8
ACESSORIOS
100
AcDbVertex
100
AcDbPolygonMeshVertex
 10
190.5309697059713
 20
0.0
 30
-16.09999999999982
 70
    64
  0
SEQEND
  5
BC9
330
33F
100
AcDbEntity
  8
ACESSORIOS
  0
POLYLINE
  5
34F
330
1F
100
AcDbEntity
  8
ACESSORIOS
100
AcDbPolygonMesh
 66
     1
 10
0.0
 20
0.0
 30
0.0
 70
    16
 71
     2
 72
     7
  0
VERTEX
  5
350
330
34F
100
AcDbEntity
  8
ACESSORIOS
100
AcDbVertex
100
AcDbPolygonMeshVertex
 10
190.5309697059712
 20
0.0
 30
-1.69999999999993
 70
    64
  0
VERTEX
  5
351
330
34F
100
AcDbEntity
  8
ACESSORIOS
100
AcDbVertex
100
AcDbPolygonMeshVertex
 10
190.5071177843736
 20
0.0
 30
-1.518826668428211
 70
    64
  0
VERTEX
  5
352
330
34F
100
AcDbEntity
  8
ACESSORIOS
100
AcDbVertex
100
AcDbPolygonMeshVertex
 10
190.4371874886204
 20
0.0
 30
-1.350000000000009
 70
    64
  0
VERTEX
  5
353
330
34F
100
AcDbEntity
  8
ACESSORIOS
100
AcDbVertex
100
AcDbPolygonMeshVertex
 10
190.3259444528019
 20
0.0
 30
-1.205025253169442
 70
    64
  0
VERTEX
  5
354
330
34F
100
AcDbEntity
  8
ACESSORIOS
100
AcDbVertex
100
AcDbPolygonMeshVertex
 10
190.1809697059714
 20
0.0
 30
-1.09378221735092
 70
    64
  0
VERTEX
  5
355
330
34F
100
AcDbEntity
  8
ACESSORIOS
100
AcDbVertex
100
AcDbPolygonMeshVertex
 10
190.0121430375432
 20
0.0
 30
-1.023851921597672
 70
    64
  0
VERTEX
  5
356
330
34F
100
AcDbEntity
  8
ACESSORIOS
100
AcDbVertex
100
AcDbPolygonMeshVertex
 10
189.8309697059715
 20
0.0
 30
-1.0
 70
    64
  0
VERTEX
  5
357
330
34F
100
AcDbEntity
  8
ACESSORIOS
100
AcDbVertex
100
AcDbPolygonMeshVertex
 10
190.5309697059711
 20
-414.0
 30
-1.69999999999993
 70
    64
  0
VERTEX
  5
358
330
34F
100
AcDbEntity
  8
ACESSORIOS
100
AcDbVertex
100
AcDbPolygonMeshVertex
 10
190.5071177843735
 20
-414.0
 30
-1.518826668428211
 70
    64
  0
VERTEX
  5
359
330
34F
100
AcDbEntity
  8
ACESSORIOS
100
AcDbVertex
100
AcDbPolygonMeshVertex
 10
190.4371874886203
 20
-414.0
 30
-1.350000000000009
 70
    64
  0
VERTEX
  5
35A
330
34F
100
AcDbEntity
  8
ACESSORIOS
100
AcDbVertex
100
AcDbPolygonMeshVertex
 10
190.3259444528019
 20
-414.0
 30
-1.205025253169442
 70
    64
  0
VERTEX
  5
35B
330
34F
100
AcDbEntity
  8
ACESSORIOS
100
AcDbVertex
100
AcDbPolygonMeshVertex
 10
190.1809697059713
 20
-414.0
 30
-1.09378221735092
 70
    64
  0
VERTEX
  5
35C
330
34F
100
AcDbEntity
  8
ACESSORIOS
100
AcDbVertex
100
AcDbPolygonMeshVertex
 10
190.0121430375432
 20
-414.0
 30
-1.023851921597672
 70
    64
  0
VERTEX
  5
35D
330
34F
100
AcDbEntity
  8
ACESSORIOS
100
AcDbVertex
100
AcDbPolygonMeshVertex
 10
189.8309697059714
 20
-414.0
 30
-1.0
 70
    64
  0
SEQEND
  5
BCA
330
34F
100
AcDbEntity
  8
ACESSORIOS
  0
POLYLINE
  5
35F
330
1F
100
AcDbEntity
  8
ACESSORIOS
100
AcDbPolygonMesh
 66
     1
 10
0.0
 20
0.0
 30
0.0
 70
    16
 71
     2
 72
     7
  0
VERTEX
  5
360
330
35F
100
AcDbEntity
  8
ACESSORIOS
100
AcDbVertex
100
AcDbPolygonMeshVertex
 10
191.5309697059712
 20
-414.0
 30
-1.69999999999993
 70
    64
  0
VERTEX
  5
361
330
35F
100
AcDbEntity
  8
ACESSORIOS
100
AcDbVertex
100
AcDbPolygonMeshVertex
 10
191.4730436106627
 20
-414.0
 30
-1.260007623325681
 70
    64
  0
VERTEX
  5
362
330
35F
100
AcDbEntity
  8
ACESSORIOS
100
AcDbVertex
100
AcDbPolygonMeshVertex
 10
191.3032128924049
 20
-414.0
 30
-0.8499999999999908
 70
    64
  0
VERTEX
  5
363
330
35F
100
AcDbEntity
  8
ACESSORIOS
100
AcDbVertex
100
AcDbPolygonMeshVertex
 10
191.0330512339885
 20
-414.0
 30
-0.4979184719828815
 70
    64
  0
VERTEX
  5
364
330
35F
100
AcDbEntity
  8
ACESSORIOS
100
AcDbVertex
100
AcDbPolygonMeshVertex
 10
190.6809697059714
 20
-414.0
 30
-0.2277568135664687
 70
    64
  0
VERTEX
  5
365
330
35F
100
AcDbEntity
  8
ACESSORIOS
100
AcDbVertex
100
AcDbPolygonMeshVertex
 10
190.2709620826457
 20
-414.0
 30
-0.0579260953085985
 70
    64
  0
VERTEX
  5
366
330
35F
100
AcDbEntity
  8
ACESSORIOS
100
AcDbVertex
100
AcDbPolygonMeshVertex
 10
189.8309697059714
 20
-414.0
 30
0.0
 70
    64
  0
VERTEX
  5
367
330
35F
100
AcDbEntity
  8
ACESSORIOS
100
AcDbVertex
100
AcDbPolygonMeshVertex
 10
191.5309697059713
 20
0.0
 30
-1.69999999999993
 70
    64
  0
VERTEX
  5
368
330
35F
100
AcDbEntity
  8
ACESSORIOS
100
AcDbVertex
100
AcDbPolygonMeshVertex
 10
191.4730436106627
 20
0.0
 30
-1.260007623325681
 70
    64
  0
VERTEX
  5
369
330
35F
100
AcDbEntity
  8
ACESSORIOS
100
AcDbVertex
100
AcDbPolygonMeshVertex
 10
191.3032128924049
 20
0.0
 30
-0.8499999999999908
 70
    64
  0
VERTEX
  5
36A
330
35F
100
AcDbEntity
  8
ACESSORIOS
100
AcDbVertex
100
AcDbPolygonMeshVertex
 10
191.0330512339885
 20
0.0
 30
-0.4979184719828815
 70
    64
  0
VERTEX
  5
36B
330
35F
100
AcDbEntity
  8
ACESSORIOS
100
AcDbVertex
100
AcDbPolygonMeshVertex
 10
190.6809697059714
 20
0.0
 30
-0.2277568135664687
 70
    64
  0
VERTEX
  5
36C
330
35F
100
AcDbEntity
  8
ACESSORIOS
100
AcDbVertex
100
AcDbPolygonMeshVertex
 10
190.2709620826457
 20
0.0
 30
-0.0579260953085985
 70
    64
  0
VERTEX
  5
36D
330
35F
100
AcDbEntity
  8
ACESSORIOS
100
AcDbVertex
100
AcDbPolygonMeshVertex
 10
189.8309697059715
 20
0.0
 30
0.0
 70
    64
  0
SEQEND
  5
BCB
330
35F
100
AcDbEntity
  8
ACESSORIOS
  0
3DFACE
  5
613
330
1F
100
AcDbEntity
  8
ACESSORIOS
100
AcDbFace
 10
175.7309697059714
 20
-414.0
 30
-0.9999999999999538
 11
175.7309697059714
 21
-414.0
 31
-0.9999999999999538
 12
162.5309697059714
 22
-414.0
 32
-0.9999999999999538
 13
162.5309697059714
 23
-414.0
 33
-0.9999999999999538
  0
3DFACE
  5
614
330
1F
100
AcDbEntity
  8
ACESSORIOS
100
AcDbFace
 10
175.7309697059714
 20
-414.0
 30
0.0000000000000284
 11
175.7309697059714
 21
-414.0
 31
0.0000000000000284
 12
162.5309697059714
 22
-414.0
 32
0.0000000000000284
 13
162.5309697059714
 23
-414.0
 33
0.0000000000000284
  0
3DFACE
  5
61B
330
1F
100
AcDbEntity
  8
ACESSORIOS
100
AcDbFace
 10
161.8309697059715
 20
-414.0
 30
-1.699999999999982
 11
160.8309697059715
 21
-414.0
 31
-1.699999999999982
 12
160.8309697059715
 22
-414.0
 32
-19.8999999999999
 13
161.8309697059715
 23
-414.0
 33
-19.89999999999981
  0
3DFACE
  5
61C
330
1F
100
AcDbEntity
  8
ACESSORIOS
100
AcDbFace
 10
162.5309697059714
 20
-414.0
 30
-20.59999999999997
 11
162.5309697059714
 21
-414.0
 31
-21.59999999999997
 12
165.2309697059713
 22
-414.0
 32
-21.59999999999997
 13
165.2309697059713
 23
-414.0
 33
-20.59999999999997
  0
POLYLINE
  5
620
330
1F
100
AcDbEntity
  8
ACESSORIOS
100
AcDbPolygonMesh
 66
     1
 10
0.0
 20
0.0
 30
0.0
 70
    16
 71
     2
 72
     7
  0
VERTEX
  5
621
330
620
100
AcDbEntity
  8
ACESSORIOS
100
AcDbVertex
100
AcDbPolygonMeshVertex
 10
162.5309697059707
 20
-414.0
 30
-0.9999999999997513
 70
    64
  0
VERTEX
  5
622
330
620
100
AcDbEntity
  8
ACESSORIOS
100
AcDbVertex
100
AcDbPolygonMeshVertex
 10
162.3497963743989
 20
-414.0
 30
-1.023851921597451
 70
    64
  0
VERTEX
  5
623
330
620
100
AcDbEntity
  8
ACESSORIOS
100
AcDbVertex
100
AcDbPolygonMeshVertex
 10
162.1809697059707
 20
-414.0
 30
-1.093782217350739
 70
    64
  0
VERTEX
  5
624
330
620
100
AcDbEntity
  8
ACESSORIOS
100
AcDbVertex
100
AcDbPolygonMeshVertex
 10
162.0359949591401
 20
-414.0
 30
-1.20502525316931
 70
    64
  0
VERTEX
  5
625
330
620
100
AcDbEntity
  8
ACESSORIOS
100
AcDbVertex
100
AcDbPolygonMeshVertex
 10
161.9247519233217
 20
-414.0
 30
-1.349999999999941
 70
    64
  0
VERTEX
  5
626
330
620
100
AcDbEntity
  8
ACESSORIOS
100
AcDbVertex
100
AcDbPolygonMeshVertex
 10
161.8548216275685
 20
-414.0
 30
-1.518826668428202
 70
    64
  0
VERTEX
  5
627
330
620
100
AcDbEntity
  8
ACESSORIOS
100
AcDbVertex
100
AcDbPolygonMeshVertex
 10
161.8309697059709
 20
-414.0
 30
-1.699999999999982
 70
    64
  0
VERTEX
  5
628
330
620
100
AcDbEntity
  8
ACESSORIOS
100
AcDbVertex
100
AcDbPolygonMeshVertex
 10
162.5309697059706
 20
-414.0
 30
0.0000000000002487
 70
    64
  0
VERTEX
  5
629
330
620
100
AcDbEntity
  8
ACESSORIOS
100
AcDbVertex
100
AcDbPolygonMeshVertex
 10
162.0909773292963
 20
-414.0
 30
-0.0579260953084102
 70
    64
  0
VERTEX
  5
62A
330
620
100
AcDbEntity
  8
ACESSORIOS
100
AcDbVertex
100
AcDbPolygonMeshVertex
 10
161.6809697059707
 20
-414.0
 30
-0.2277568135663302
 70
    64
  0
VERTEX
  5
62B
330
620
100
AcDbEntity
  8
ACESSORIOS
100
AcDbVertex
100
AcDbPolygonMeshVertex
 10
161.3288881779536
 20
-414.0
 30
-0.4979184719827998
 70
    64
  0
VERTEX
  5
62C
330
620
100
AcDbEntity
  8
ACESSORIOS
100
AcDbVertex
100
AcDbPolygonMeshVertex
 10
161.0587265195372
 20
-414.0
 30
-0.8499999999999623
 70
    64
  0
VERTEX
  5
62D
330
620
100
AcDbEntity
  8
ACESSORIOS
100
AcDbVertex
100
AcDbPolygonMeshVertex
 10
160.8888958012794
 20
-414.0
 30
-1.260007623325691
 70
    64
  0
VERTEX
  5
62E
330
620
100
AcDbEntity
  8
ACESSORIOS
100
AcDbVertex
100
AcDbPolygonMeshVertex
 10
160.8309697059709
 20
-414.0
 30
-1.699999999999982
 70
    64
  0
SEQEND
  5
BCC
330
620
100
AcDbEntity
  8
ACESSORIOS
  0
POLYLINE
  5
640
330
1F
100
AcDbEntity
  8
ACESSORIOS
100
AcDbPolygonMesh
 66
     1
 10
0.0
 20
0.0
 30
0.0
 70
    16
 71
     2
 72
     7
  0
VERTEX
  5
641
330
640
100
AcDbEntity
  8
ACESSORIOS
100
AcDbVertex
100
AcDbPolygonMeshVertex
 10
161.8309697059715
 20
-414.0
 30
-19.89999999999981
 70
    64
  0
VERTEX
  5
642
330
640
100
AcDbEntity
  8
ACESSORIOS
100
AcDbVertex
100
AcDbPolygonMeshVertex
 10
161.8548216275691
 20
-414.0
 30
-20.08117333157158
 70
    64
  0
VERTEX
  5
643
330
640
100
AcDbEntity
  8
ACESSORIOS
100
AcDbVertex
100
AcDbPolygonMeshVertex
 10
161.9247519233223
 20
-414.0
 30
-20.24999999999984
 70
    64
  0
VERTEX
  5
644
330
640
100
AcDbEntity
  8
ACESSORIOS
100
AcDbVertex
100
AcDbPolygonMeshVertex
 10
162.0359949591408
 20
-414.0
 30
-20.39497474683045
 70
    64
  0
VERTEX
  5
645
330
640
100
AcDbEntity
  8
ACESSORIOS
100
AcDbVertex
100
AcDbPolygonMeshVertex
 10
162.1809697059714
 20
-414.0
 30
-20.50621778264901
 70
    64
  0
VERTEX
  5
646
330
640
100
AcDbEntity
  8
ACESSORIOS
100
AcDbVertex
100
AcDbPolygonMeshVertex
 10
162.3497963743996
 20
-414.0
 30
-20.57614807840228
 70
    64
  0
VERTEX
  5
647
330
640
100
AcDbEntity
  8
ACESSORIOS
100
AcDbVertex
100
AcDbPolygonMeshVertex
 10
162.5309697059714
 20
-414.0
 30
-20.59999999999997
 70
    64
  0
VERTEX
  5
648
330
640
100
AcDbEntity
  8
ACESSORIOS
100
AcDbVertex
100
AcDbPolygonMeshVertex
 10
160.8309697059715
 20
-414.0
 30
-19.8999999999999
 70
    64
  0
VERTEX
  5
649
330
640
100
AcDbEntity
  8
ACESSORIOS
100
AcDbVertex
100
AcDbPolygonMeshVertex
 10
160.8888958012801
 20
-414.0
 30
-20.33999237667417
 70
    64
  0
VERTEX
  5
64A
330
640
100
AcDbEntity
  8
ACESSORIOS
100
AcDbVertex
100
AcDbPolygonMeshVertex
 10
161.0587265195379
 20
-414.0
 30
-20.74999999999989
 70
    64
  0
VERTEX
  5
64B
330
640
100
AcDbEntity
  8
ACESSORIOS
100
AcDbVertex
100
AcDbPolygonMeshVertex
 10
161.3288881779543
 20
-414.0
 30
-21.10208152801703
 70
    64
  0
VERTEX
  5
64C
330
640
100
AcDbEntity
  8
ACESSORIOS
100
AcDbVertex
100
AcDbPolygonMeshVertex
 10
161.6809697059714
 20
-414.0
 30
-21.37224318643346
 70
    64
  0
VERTEX
  5
64D
330
640
100
AcDbEntity
  8
ACESSORIOS
100
AcDbVertex
100
AcDbPolygonMeshVertex
 10
162.0909773292971
 20
-414.0
 30
-21.54207390469136
 70
    64
  0
VERTEX
  5
64E
330
640
100
AcDbEntity
  8
ACESSORIOS
100
AcDbVertex
100
AcDbPolygonMeshVertex
 10
162.5309697059714
 20
-414.0
 30
-21.59999999999997
 70
    64
  0
SEQEND
  5
BCD
330
640
100
AcDbEntity
  8
ACESSORIOS
  0
3DFACE
  5
7DA
330
1F
100
AcDbEntity
  8
ACESSORIOS
100
AcDbFace
 10
162.5309697059714
 20
-414.0
 30
-1.0
 11
162.5309697059714
 21
-414.0
 31
0.0
 12
189.8309697059714
 22
-414.0
 32
0.0
 13
189.8309697059714
 23
-414.0
 33
-1.0
  0
3DFACE
  5
A9E
330
1F
100
AcDbEntity
  8
ACESSORIOS
100
AcDbFace
 10
1.0
 20
-414.0
 30
-1.69999999999993
 11
0.0
 21
-414.0
 31
-1.699999999999942
 12
0.0
 22
-414.0
 32
-16.09999999999993
 13
1.0
 23
-414.0
 33
-16.09999999999982
  0
3DFACE
  5
A9F
330
1F
100
AcDbEntity
  8
ACESSORIOS
100
AcDbFace
 10
1.699999999999818
 20
-414.0
 30
-16.79999999999998
 11
1.699999999999818
 21
-414.0
 31
-17.79999999999998
 12
4.399999999999821
 22
-414.0
 32
-17.79999999999998
 13
4.399999999999821
 23
-414.0
 33
-16.79999999999998
  0
POLYLINE
  5
AA0
330
1F
100
AcDbEntity
  8
ACESSORIOS
100
AcDbPolygonMesh
 66
     1
 10
0.0
 20
0.0
 30
0.0
 70
    16
 71
     2
 72
     7
  0
VERTEX
  5
AA1
330
AA0
100
AcDbEntity
  8
ACESSORIOS
100
AcDbVertex
100
AcDbPolygonMeshVertex
 10
1.0
 20
-414.0
 30
-16.09999999999982
 70
    64
  0
VERTEX
  5
AA2
330
AA0
100
AcDbEntity
  8
ACESSORIOS
100
AcDbVertex
100
AcDbPolygonMeshVertex
 10
1.023851921597554
 20
-414.0
 30
-16.2811733315716
 70
    64
  0
VERTEX
  5
AA3
330
AA0
100
AcDbEntity
  8
ACESSORIOS
100
AcDbVertex
100
AcDbPolygonMeshVertex
 10
1.093782217350743
 20
-414.0
 30
-16.44999999999986
 70
    64
  0
VERTEX
  5
AA4
330
AA0
100
AcDbEntity
  8
ACESSORIOS
100
AcDbVertex
100
AcDbPolygonMeshVertex
 10
1.205025253169254
 20
-414.0
 30
-16.59497474683047
 70
    64
  0
VERTEX
  5
AA5
330
AA0
100
AcDbEntity
  8
ACESSORIOS
100
AcDbVertex
100
AcDbPolygonMeshVertex
 10
1.349999999999802
 20
-414.0
 30
-16.70621778264902
 70
    64
  0
VERTEX
  5
AA6
330
AA0
100
AcDbEntity
  8
ACESSORIOS
100
AcDbVertex
100
AcDbPolygonMeshVertex
 10
1.518826668428005
 20
-414.0
 30
-16.7761480784023
 70
    64
  0
VERTEX
  5
AA7
330
AA0
100
AcDbEntity
  8
ACESSORIOS
100
AcDbVertex
100
AcDbPolygonMeshVertex
 10
1.699999999999818
 20
-414.0
 30
-16.79999999999998
 70
    64
  0
VERTEX
  5
AA8
330
AA0
100
AcDbEntity
  8
ACESSORIOS
100
AcDbVertex
100
AcDbPolygonMeshVertex
 10
0.0
 20
-414.0
 30
-16.09999999999993
 70
    64
  0
VERTEX
  5
AA9
330
AA0
100
AcDbEntity
  8
ACESSORIOS
100
AcDbVertex
100
AcDbPolygonMeshVertex
 10
0.057926095308531
 20
-414.0
 30
-16.53999237667421
 70
    64
  0
VERTEX
  5
AAA
330
AA0
100
AcDbEntity
  8
ACESSORIOS
100
AcDbVertex
100
AcDbPolygonMeshVertex
 10
0.2277568135663728
 20
-414.0
 30
-16.94999999999992
 70
    64
  0
VERTEX
  5
AAB
330
AA0
100
AcDbEntity
  8
ACESSORIOS
100
AcDbVertex
100
AcDbPolygonMeshVertex
 10
0.4979184719827643
 20
-414.0
 30
-17.30208152801706
 70
    64
  0
VERTEX
  5
AAC
330
AA0
100
AcDbEntity
  8
ACESSORIOS
100
AcDbVertex
100
AcDbPolygonMeshVertex
 10
0.8499999999998522
 20
-414.0
 30
-17.57224318643349
 70
    64
  0
VERTEX
  5
AAD
330
AA0
100
AcDbEntity
  8
ACESSORIOS
100
AcDbVertex
100
AcDbPolygonMeshVertex
 10
1.260007623325528
 20
-414.0
 30
-17.74207390469138
 70
    64
  0
VERTEX
  5
AAE
330
AA0
100
AcDbEntity
  8
ACESSORIOS
100
AcDbVertex
100
AcDbPolygonMeshVertex
 10
1.699999999999818
 20
-414.0
 30
-17.79999999999998
 70
    64
  0
SEQEND
  5
BCE
330
AA0
100
AcDbEntity
  8
ACESSORIOS
  0
POLYLINE
  5
AB0
330
1F
100
AcDbEntity
  8
ACESSORIOS
100
AcDbPolygonMesh
 66
     1
 10
0.0
 20
0.0
 30
0.0
 70
    16
 71
     2
 72
     7
  0
VERTEX
  5
AB1
330
AB0
100
AcDbEntity
  8
ACESSORIOS
100
AcDbVertex
100
AcDbPolygonMeshVertex
 10
1.000000000000114
 20
-414.0
 30
-1.69999999999993
 70
    64
  0
VERTEX
  5
AB2
330
AB0
100
AcDbEntity
  8
ACESSORIOS
100
AcDbVertex
100
AcDbPolygonMeshVertex
 10
1.023851921597725
 20
-414.0
 30
-1.518826668428211
 70
    64
  0
VERTEX
  5
AB3
330
AB0
100
AcDbEntity
  8
ACESSORIOS
100
AcDbVertex
100
AcDbPolygonMeshVertex
 10
1.093782217350906
 20
-414.0
 30
-1.350000000000009
 70
    64
  0
VERTEX
  5
AB4
330
AB0
100
AcDbEntity
  8
ACESSORIOS
100
AcDbVertex
100
AcDbPolygonMeshVertex
 10
1.205025253169367
 20
-414.0
 30
-1.205025253169442
 70
    64
  0
VERTEX
  5
AB5
330
AB0
100
AcDbEntity
  8
ACESSORIOS
100
AcDbVertex
100
AcDbPolygonMeshVertex
 10
1.349999999999909
 20
-414.0
 30
-1.09378221735092
 70
    64
  0
VERTEX
  5
AB6
330
AB0
100
AcDbEntity
  8
ACESSORIOS
100
AcDbVertex
100
AcDbPolygonMeshVertex
 10
1.518826668428062
 20
-414.0
 30
-1.023851921597672
 70
    64
  0
VERTEX
  5
AB7
330
AB0
100
AcDbEntity
  8
ACESSORIOS
100
AcDbVertex
100
AcDbPolygonMeshVertex
 10
1.699999999999818
 20
-414.0
 30
-1.0
 70
    64
  0
VERTEX
  5
AB8
330
AB0
100
AcDbEntity
  8
ACESSORIOS
100
AcDbVertex
100
AcDbPolygonMeshVertex
 10
0.0
 20
-414.0
 30
-1.69999999999993
 70
    64
  0
VERTEX
  5
AB9
330
AB0
100
AcDbEntity
  8
ACESSORIOS
100
AcDbVertex
100
AcDbPolygonMeshVertex
 10
0.057926095308531
 20
-414.0
 30
-1.260007623325681
 70
    64
  0
VERTEX
  5
ABA
330
AB0
100
AcDbEntity
  8
ACESSORIOS
100
AcDbVertex
100
AcDbPolygonMeshVertex
 10
0.2277568135663728
 20
-414.0
 30
-0.8499999999999908
 70
    64
  0
VERTEX
  5
ABB
330
AB0
100
AcDbEntity
  8
ACESSORIOS
100
AcDbVertex
100
AcDbPolygonMeshVertex
 10
0.4979184719827643
 20
-414.0
 30
-0.4979184719828815
 70
    64
  0
VERTEX
  5
ABC
330
AB0
100
AcDbEntity
  8
ACESSORIOS
100
AcDbVertex
100
AcDbPolygonMeshVertex
 10
0.8499999999998522
 20
-414.0
 30
-0.2277568135664687
 70
    64
  0
VERTEX
  5
ABD
330
AB0
100
AcDbEntity
  8
ACESSORIOS
100
AcDbVertex
100
AcDbPolygonMeshVertex
 10
1.260007623325528
 20
-414.0
 30
-0.0579260953085985
 70
    64
  0
VERTEX
  5
ABE
330
AB0
100
AcDbEntity
  8
ACESSORIOS
100
AcDbVertex
100
AcDbPolygonMeshVertex
 10
1.699999999999818
 20
-414.0
 30
0.0
 70
    64
  0
SEQEND
  5
BCF
330
AB0
100
AcDbEntity
  8
ACESSORIOS
  0
3DFACE
  5
AC0
330
1F
100
AcDbEntity
  8
ACESSORIOS
100
AcDbFace
 10
1.699999999999761
 20
0.0
 30
0.0
 11
28.99999999999986
 21
0.0
 31
0.0
 12
28.99999999999986
 22
0.0
 32
-1.0
 13
1.699999999999761
 23
0.0
 33
-1.0
  0
3DFACE
  5
AC1
330
1F
100
AcDbEntity
  8
ACESSORIOS
100
AcDbFace
 10
0.9999999999999432
 20
0.0
 30
-1.69999999999993
 11
-0.0000000000000568
 21
0.0
 31
-1.699999999999942
 12
-0.0000000000000568
 22
0.0
 32
-16.09999999999993
 13
0.9999999999999432
 23
0.0
 33
-16.09999999999982
  0
3DFACE
  5
AC2
330
1F
100
AcDbEntity
  8
ACESSORIOS
100
AcDbFace
 10
1.699999999999761
 20
0.0
 30
-16.79999999999998
 11
1.699999999999761
 21
0.0
 31
-17.79999999999998
 12
4.399999999999764
 22
0.0
 32
-17.79999999999998
 13
4.399999999999764
 23
0.0
 33
-16.79999999999998
  0
POLYLINE
  5
AC3
330
1F
100
AcDbEntity
  8
ACESSORIOS
100
AcDbPolygonMesh
 66
     1
 10
0.0
 20
0.0
 30
0.0
 70
    16
 71
     2
 72
     7
  0
VERTEX
  5
AC4
330
AC3
100
AcDbEntity
  8
ACESSORIOS
100
AcDbVertex
100
AcDbPolygonMeshVertex
 10
29.69999999999956
 20
0.0
 30
-1.69999999999993
 70
    64
  0
VERTEX
  5
AC5
330
AC3
100
AcDbEntity
  8
ACESSORIOS
100
AcDbVertex
100
AcDbPolygonMeshVertex
 10
29.67614807840195
 20
0.0
 30
-1.518826668428211
 70
    64
  0
VERTEX
  5
AC6
330
AC3
100
AcDbEntity
  8
ACESSORIOS
100
AcDbVertex
100
AcDbPolygonMeshVertex
 10
29.60621778264877
 20
0.0
 30
-1.350000000000009
 70
    64
  0
VERTEX
  5
AC7
330
AC3
100
AcDbEntity
  8
ACESSORIOS
100
AcDbVertex
100
AcDbPolygonMeshVertex
 10
29.49497474683028
 20
0.0
 30
-1.205025253169442
 70
    64
  0
VERTEX
  5
AC8
330
AC3
100
AcDbEntity
  8
ACESSORIOS
100
AcDbVertex
100
AcDbPolygonMeshVertex
 10
29.34999999999977
 20
0.0
 30
-1.09378221735092
 70
    64
  0
VERTEX
  5
AC9
330
AC3
100
AcDbEntity
  8
ACESSORIOS
100
AcDbVertex
100
AcDbPolygonMeshVertex
 10
29.18117333157159
 20
0.0
 30
-1.023851921597672
 70
    64
  0
VERTEX
  5
ACA
330
AC3
100
AcDbEntity
  8
ACESSORIOS
100
AcDbVertex
100
AcDbPolygonMeshVertex
 10
28.99999999999986
 20
0.0
 30
-1.0
 70
    64
  0
VERTEX
  5
ACB
330
AC3
100
AcDbEntity
  8
ACESSORIOS
100
AcDbVertex
100
AcDbPolygonMeshVertex
 10
30.69999999999968
 20
0.0
 30
-1.69999999999993
 70
    64
  0
VERTEX
  5
ACC
330
AC3
100
AcDbEntity
  8
ACESSORIOS
100
AcDbVertex
100
AcDbPolygonMeshVertex
 10
30.6420739046911
 20
0.0
 30
-1.260007623325681
 70
    64
  0
VERTEX
  5
ACD
330
AC3
100
AcDbEntity
  8
ACESSORIOS
100
AcDbVertex
100
AcDbPolygonMeshVertex
 10
30.47224318643327
 20
0.0
 30
-0.8499999999999908
 70
    64
  0
VERTEX
  5
ACE
330
AC3
100
AcDbEntity
  8
ACESSORIOS
100
AcDbVertex
100
AcDbPolygonMeshVertex
 10
30.20208152801689
 20
0.0
 30
-0.4979184719828815
 70
    64
  0
VERTEX
  5
ACF
330
AC3
100
AcDbEntity
  8
ACESSORIOS
100
AcDbVertex
100
AcDbPolygonMeshVertex
 10
29.8499999999998
 20
0.0
 30
-0.2277568135664687
 70
    64
  0
VERTEX
  5
AD0
330
AC3
100
AcDbEntity
  8
ACESSORIOS
100
AcDbVertex
100
AcDbPolygonMeshVertex
 10
29.43999237667413
 20
0.0
 30
-0.0579260953085985
 70
    64
  0
VERTEX
  5
AD1
330
AC3
100
AcDbEntity
  8
ACESSORIOS
100
AcDbVertex
100
AcDbPolygonMeshVertex
 10
28.99999999999986
 20
0.0
 30
0.0
 70
    64
  0
SEQEND
  5
BD0
330
AC3
100
AcDbEntity
  8
ACESSORIOS
  0
POLYLINE
  5
AD3
330
1F
100
AcDbEntity
  8
ACESSORIOS
100
AcDbPolygonMesh
 66
     1
 10
0.0
 20
0.0
 30
0.0
 70
    16
 71
     2
 72
     7
  0
VERTEX
  5
AD4
330
AD3
100
AcDbEntity
  8
ACESSORIOS
100
AcDbVertex
100
AcDbPolygonMeshVertex
 10
0.9999999999999432
 20
0.0
 30
-16.09999999999982
 70
    64
  0
VERTEX
  5
AD5
330
AD3
100
AcDbEntity
  8
ACESSORIOS
100
AcDbVertex
100
AcDbPolygonMeshVertex
 10
1.023851921597554
 20
0.0
 30
-16.2811733315716
 70
    64
  0
VERTEX
  5
AD6
330
AD3
100
AcDbEntity
  8
ACESSORIOS
100
AcDbVertex
100
AcDbPolygonMeshVertex
 10
1.093782217350743
 20
0.0
 30
-16.44999999999986
 70
    64
  0
VERTEX
  5
AD7
330
AD3
100
AcDbEntity
  8
ACESSORIOS
100
AcDbVertex
100
AcDbPolygonMeshVertex
 10
1.205025253169211
 20
0.0
 30
-16.59497474683047
 70
    64
  0
VERTEX
  5
AD8
330
AD3
100
AcDbEntity
  8
ACESSORIOS
100
AcDbVertex
100
AcDbPolygonMeshVertex
 10
1.349999999999802
 20
0.0
 30
-16.70621778264902
 70
    64
  0
VERTEX
  5
AD9
330
AD3
100
AcDbEntity
  8
ACESSORIOS
100
AcDbVertex
100
AcDbPolygonMeshVertex
 10
1.518826668428005
 20
0.0
 30
-16.7761480784023
 70
    64
  0
VERTEX
  5
ADA
330
AD3
100
AcDbEntity
  8
ACESSORIOS
100
AcDbVertex
100
AcDbPolygonMeshVertex
 10
1.699999999999761
 20
0.0
 30
-16.79999999999998
 70
    64
  0
VERTEX
  5
ADB
330
AD3
100
AcDbEntity
  8
ACESSORIOS
100
AcDbVertex
100
AcDbPolygonMeshVertex
 10
-0.0000000000000568
 20
0.0
 30
-16.09999999999993
 70
    64
  0
VERTEX
  5
ADC
330
AD3
100
AcDbEntity
  8
ACESSORIOS
100
AcDbVertex
100
AcDbPolygonMeshVertex
 10
0.057926095308531
 20
0.0
 30
-16.53999237667421
 70
    64
  0
VERTEX
  5
ADD
330
AD3
100
AcDbEntity
  8
ACESSORIOS
100
AcDbVertex
100
AcDbPolygonMeshVertex
 10
0.2277568135663159
 20
0.0
 30
-16.94999999999992
 70
    64
  0
VERTEX
  5
ADE
330
AD3
100
AcDbEntity
  8
ACESSORIOS
100
AcDbVertex
100
AcDbPolygonMeshVertex
 10
0.4979184719827074
 20
0.0
 30
-17.30208152801706
 70
    64
  0
VERTEX
  5
ADF
330
AD3
100
AcDbEntity
  8
ACESSORIOS
100
AcDbVertex
100
AcDbPolygonMeshVertex
 10
0.8499999999998025
 20
0.0
 30
-17.57224318643349
 70
    64
  0
VERTEX
  5
AE0
330
AD3
100
AcDbEntity
  8
ACESSORIOS
100
AcDbVertex
100
AcDbPolygonMeshVertex
 10
1.260007623325528
 20
0.0
 30
-17.74207390469138
 70
    64
  0
VERTEX
  5
AE1
330
AD3
100
AcDbEntity
  8
ACESSORIOS
100
AcDbVertex
100
AcDbPolygonMeshVertex
 10
1.699999999999761
 20
0.0
 30
-17.79999999999998
 70
    64
  0
SEQEND
  5
BD1
330
AD3
100
AcDbEntity
  8
ACESSORIOS
  0
POLYLINE
  5
AE3
330
1F
100
AcDbEntity
  8
ACESSORIOS
100
AcDbPolygonMesh
 66
     1
 10
0.0
 20
0.0
 30
0.0
 70
    16
 71
     2
 72
     7
  0
VERTEX
  5
AE4
330
AE3
100
AcDbEntity
  8
ACESSORIOS
100
AcDbVertex
100
AcDbPolygonMeshVertex
 10
1.000000000000064
 20
0.0
 30
-1.69999999999993
 70
    64
  0
VERTEX
  5
AE5
330
AE3
100
AcDbEntity
  8
ACESSORIOS
100
AcDbVertex
100
AcDbPolygonMeshVertex
 10
1.023851921597675
 20
0.0
 30
-1.518826668428211
 70
    64
  0
VERTEX
  5
AE6
330
AE3
100
AcDbEntity
  8
ACESSORIOS
100
AcDbVertex
100
AcDbPolygonMeshVertex
 10
1.093782217350849
 20
0.0
 30
-1.350000000000009
 70
    64
  0
VERTEX
  5
AE7
330
AE3
100
AcDbEntity
  8
ACESSORIOS
100
AcDbVertex
100
AcDbPolygonMeshVertex
 10
1.205025253169367
 20
0.0
 30
-1.205025253169442
 70
    64
  0
VERTEX
  5
AE8
330
AE3
100
AcDbEntity
  8
ACESSORIOS
100
AcDbVertex
100
AcDbPolygonMeshVertex
 10
1.349999999999852
 20
0.0
 30
-1.09378221735092
 70
    64
  0
VERTEX
  5
AE9
330
AE3
100
AcDbEntity
  8
ACESSORIOS
100
AcDbVertex
100
AcDbPolygonMeshVertex
 10
1.518826668428062
 20
0.0
 30
-1.023851921597672
 70
    64
  0
VERTEX
  5
AEA
330
AE3
100
AcDbEntity
  8
ACESSORIOS
100
AcDbVertex
100
AcDbPolygonMeshVertex
 10
1.699999999999761
 20
0.0
 30
-1.0
 70
    64
  0
VERTEX
  5
AEB
330
AE3
100
AcDbEntity
  8
ACESSORIOS
100
AcDbVertex
100
AcDbPolygonMeshVertex
 10
-0.0000000000000568
 20
0.0
 30
-1.69999999999993
 70
    64
  0
VERTEX
  5
AEC
330
AE3
100
AcDbEntity
  8
ACESSORIOS
100
AcDbVertex
100
AcDbPolygonMeshVertex
 10
0.057926095308531
 20
0.0
 30
-1.260007623325681
 70
    64
  0
VERTEX
  5
AED
330
AE3
100
AcDbEntity
  8
ACESSORIOS
100
AcDbVertex
100
AcDbPolygonMeshVertex
 10
0.2277568135663728
 20
0.0
 30
-0.8499999999999908
 70
    64
  0
VERTEX
  5
AEE
330
AE3
100
AcDbEntity
  8
ACESSORIOS
100
AcDbVertex
100
AcDbPolygonMeshVertex
 10
0.4979184719827643
 20
0.0
 30
-0.4979184719828815
 70
    64
  0
VERTEX
  5
AEF
330
AE3
100
AcDbEntity
  8
ACESSORIOS
100
AcDbVertex
100
AcDbPolygonMeshVertex
 10
0.8499999999998522
 20
0.0
 30
-0.2277568135664687
 70
    64
  0
VERTEX
  5
AF0
330
AE3
100
AcDbEntity
  8
ACESSORIOS
100
AcDbVertex
100
AcDbPolygonMeshVertex
 10
1.260007623325528
 20
0.0
 30
-0.0579260953085985
 70
    64
  0
VERTEX
  5
AF1
330
AE3
100
AcDbEntity
  8
ACESSORIOS
100
AcDbVertex
100
AcDbPolygonMeshVertex
 10
1.699999999999761
 20
0.0
 30
0.0
 70
    64
  0
SEQEND
  5
BD2
330
AE3
100
AcDbEntity
  8
ACESSORIOS
  0
3DFACE
  5
AF3
330
1F
100
AcDbEntity
  8
ACESSORIOS
100
AcDbFace
 10
29.69999999999968
 20
0.0
 30
-1.69999999999993
 11
30.69999999999968
 21
0.0
 31
-1.699999999999942
 12
30.69999999999968
 22
0.0
 32
-19.89999999999993
 13
29.69999999999968
 23
0.0
 33
-19.89999999999982
  0
3DFACE
  5
AF4
330
1F
100
AcDbEntity
  8
ACESSORIOS
100
AcDbFace
 10
28.99999999999986
 20
0.0
 30
-20.59999999999998
 11
28.99999999999986
 21
0.0
 31
-21.59999999999998
 12
26.29999999999986
 22
0.0
 32
-21.59999999999998
 13
26.29999999999986
 23
0.0
 33
-20.59999999999998
  0
POLYLINE
  5
AF5
330
1F
100
AcDbEntity
  8
ACESSORIOS
100
AcDbPolygonMesh
 66
     1
 10
0.0
 20
0.0
 30
0.0
 70
    16
 71
     2
 72
     7
  0
VERTEX
  5
AF6
330
AF5
100
AcDbEntity
  8
ACESSORIOS
100
AcDbVertex
100
AcDbPolygonMeshVertex
 10
29.69999999999968
 20
0.0
 30
-19.89999999999982
 70
    64
  0
VERTEX
  5
AF7
330
AF5
100
AcDbEntity
  8
ACESSORIOS
100
AcDbVertex
100
AcDbPolygonMeshVertex
 10
29.67614807840209
 20
0.0
 30
-20.08117333157159
 70
    64
  0
VERTEX
  5
AF8
330
AF5
100
AcDbEntity
  8
ACESSORIOS
100
AcDbVertex
100
AcDbPolygonMeshVertex
 10
29.60621778264888
 20
0.0
 30
-20.24999999999985
 70
    64
  0
VERTEX
  5
AF9
330
AF5
100
AcDbEntity
  8
ACESSORIOS
100
AcDbVertex
100
AcDbPolygonMeshVertex
 10
29.49497474683042
 20
0.0
 30
-20.39497474683047
 70
    64
  0
VERTEX
  5
AFA
330
AF5
100
AcDbEntity
  8
ACESSORIOS
100
AcDbVertex
100
AcDbPolygonMeshVertex
 10
29.34999999999985
 20
0.0
 30
-20.50621778264902
 70
    64
  0
VERTEX
  5
AFB
330
AF5
100
AcDbEntity
  8
ACESSORIOS
100
AcDbVertex
100
AcDbPolygonMeshVertex
 10
29.18117333157161
 20
0.0
 30
-20.5761480784023
 70
    64
  0
VERTEX
  5
AFC
330
AF5
100
AcDbEntity
  8
ACESSORIOS
100
AcDbVertex
100
AcDbPolygonMeshVertex
 10
28.99999999999986
 20
0.0
 30
-20.59999999999998
 70
    64
  0
VERTEX
  5
AFD
330
AF5
100
AcDbEntity
  8
ACESSORIOS
100
AcDbVertex
100
AcDbPolygonMeshVertex
 10
30.69999999999968
 20
0.0
 30
-19.89999999999993
 70
    64
  0
VERTEX
  5
AFE
330
AF5
100
AcDbEntity
  8
ACESSORIOS
100
AcDbVertex
100
AcDbPolygonMeshVertex
 10
30.64207390469113
 20
0.0
 30
-20.33999237667421
 70
    64
  0
VERTEX
  5
AFF
330
AF5
100
AcDbEntity
  8
ACESSORIOS
100
AcDbVertex
100
AcDbPolygonMeshVertex
 10
30.4722431864333
 20
0.0
 30
-20.74999999999992
 70
    64
  0
VERTEX
  5
B00
330
AF5
100
AcDbEntity
  8
ACESSORIOS
100
AcDbVertex
100
AcDbPolygonMeshVertex
 10
30.20208152801692
 20
0.0
 30
-21.10208152801706
 70
    64
  0
VERTEX
  5
B01
330
AF5
100
AcDbEntity
  8
ACESSORIOS
100
AcDbVertex
100
AcDbPolygonMeshVertex
 10
29.84999999999982
 20
0.0
 30
-21.37224318643348
 70
    64
  0
VERTEX
  5
B02
330
AF5
100
AcDbEntity
  8
ACESSORIOS
100
AcDbVertex
100
AcDbPolygonMeshVertex
 10
29.43999237667413
 20
0.0
 30
-21.54207390469137
 70
    64
  0
VERTEX
  5
B03
330
AF5
100
AcDbEntity
  8
ACESSORIOS
100
AcDbVertex
100
AcDbPolygonMeshVertex
 10
28.99999999999986
 20
0.0
 30
-21.59999999999998
 70
    64
  0
SEQEND
  5
BD3
330
AF5
100
AcDbEntity
  8
ACESSORIOS
  0
3DFACE
  5
B05
330
1F
100
AcDbEntity
  8
ACESSORIOS
100
AcDbFace
 10
28.99999999999986
 20
0.0
 30
0.0
 11
28.99999999999989
 21
-414.0
 31
0.0
 12
1.699999999999818
 22
-414.0
 32
0.0
 13
1.699999999999761
 23
0.0
 33
0.0
  0
3DFACE
  5
B06
330
1F
100
AcDbEntity
  8
ACESSORIOS
100
AcDbFace
 10
28.99999999999986
 20
0.0
 30
-1.0
 11
28.99999999999989
 21
-414.0
 31
-1.0
 12
1.699999999999818
 22
-414.0
 32
-1.0
 13
1.699999999999761
 23
0.0
 33
-1.0
  0
3DFACE
  5
B07
330
1F
100
AcDbEntity
  8
ACESSORIOS
100
AcDbFace
 10
-0.0000000000000568
 20
0.0
 30
-1.699999999999942
 11
0.0
 21
-414.0
 31
-1.699999999999942
 12
0.0
 22
-414.0
 32
-16.09999999999993
 13
-0.0000000000000568
 23
0.0
 33
-16.09999999999993
  0
3DFACE
  5
B08
330
1F
100
AcDbEntity
  8
ACESSORIOS
100
AcDbFace
 10
0.9999999999999432
 20
0.0
 30
-1.699999999999822
 11
1.0
 21
-414.0
 31
-1.699999999999822
 12
1.0
 22
-414.0
 32
-16.09999999999982
 13
0.9999999999999432
 23
0.0
 33
-16.09999999999982
  0
3DFACE
  5
B09
330
1F
100
AcDbEntity
  8
ACESSORIOS
100
AcDbFace
 10
4.399999999999764
 20
0.0
 30
-16.79999999999998
 11
4.399999999999821
 21
-414.0
 31
-16.79999999999998
 12
1.699999999999818
 22
-414.0
 32
-16.79999999999998
 13
1.699999999999761
 23
0.0
 33
-16.79999999999998
  0
3DFACE
  5
B0A
330
1F
100
AcDbEntity
  8
ACESSORIOS
100
AcDbFace
 10
4.399999999999764
 20
0.0
 30
-17.79999999999998
 11
4.399999999999821
 21
-414.0
 31
-17.79999999999998
 12
1.699999999999818
 22
-414.0
 32
-17.79999999999998
 13
1.699999999999761
 23
0.0
 33
-17.79999999999998
  0
3DFACE
  5
B0B
330
1F
100
AcDbEntity
  8
ACESSORIOS
100
AcDbFace
 10
4.399999999999764
 20
0.0
 30
-17.79999999999998
 11
4.399999999999764
 21
0.0
 31
-16.79999999999998
 12
4.399999999999821
 22
-414.0
 32
-16.79999999999998
 13
4.399999999999821
 23
-414.0
 33
-17.79999999999998
  0
3DFACE
  5
B0C
330
1F
100
AcDbEntity
  8
ACESSORIOS
100
AcDbFace
 10
28.99999999999986
 20
0.0
 30
-20.59999999999998
 11
28.99999999999989
 21
-414.0
 31
-20.59999999999997
 12
26.29999999999988
 22
-414.0
 32
-20.59999999999997
 13
26.29999999999986
 23
0.0
 33
-20.59999999999998
  0
3DFACE
  5
B0D
330
1F
100
AcDbEntity
  8
ACESSORIOS
100
AcDbFace
 10
28.99999999999986
 20
0.0
 30
-21.59999999999998
 11
28.99999999999989
 21
-414.0
 31
-21.59999999999997
 12
26.29999999999988
 22
-414.0
 32
-21.59999999999997
 13
26.29999999999986
 23
0.0
 33
-21.59999999999998
  0
3DFACE
  5
B0E
330
1F
100
AcDbEntity
  8
ACESSORIOS
100
AcDbFace
 10
26.29999999999986
 20
0.0
 30
-21.59999999999998
 11
26.29999999999986
 21
0.0
 31
-20.59999999999998
 12
26.29999999999988
 22
-414.0
 32
-20.59999999999997
 13
26.29999999999988
 23
-414.0
 33
-21.59999999999997
  0
3DFACE
  5
B0F
330
1F
100
AcDbEntity
  8
ACESSORIOS
100
AcDbFace
 10
29.69999999999968
 20
0.0
 30
-1.699999999999822
 11
29.6999999999997
 21
-414.0
 31
-1.699999999999982
 12
29.6999999999997
 22
-414.0
 32
-19.89999999999981
 13
29.69999999999968
 23
0.0
 33
-19.89999999999982
  0
3DFACE
  5
B10
330
1F
100
AcDbEntity
  8
ACESSORIOS
100
AcDbFace
 10
30.69999999999968
 20
0.0
 30
-1.699999999999712
 11
30.6999999999997
 21
-414.0
 31
-1.699999999999982
 12
30.6999999999997
 22
-414.0
 32
-19.8999999999999
 13
30.69999999999968
 23
0.0
 33
-19.89999999999971
  0
POLYLINE
  5
B11
330
1F
100
AcDbEntity
  8
ACESSORIOS
100
AcDbPolygonMesh
 66
     1
 10
0.0
 20
0.0
 30
0.0
 70
    16
 71
     2
 72
     7
  0
VERTEX
  5
B12
330
B11
100
AcDbEntity
  8
ACESSORIOS
100
AcDbVertex
100
AcDbPolygonMeshVertex
 10
28.99999999999986
 20
0.0
 30
0.0
 70
    64
  0
VERTEX
  5
B13
330
B11
100
AcDbEntity
  8
ACESSORIOS
100
AcDbVertex
100
AcDbPolygonMeshVertex
 10
29.43999237667413
 20
0.0
 30
-0.0579260953085985
 70
    64
  0
VERTEX
  5
B14
330
B11
100
AcDbEntity
  8
ACESSORIOS
100
AcDbVertex
100
AcDbPolygonMeshVertex
 10
29.8499999999998
 20
0.0
 30
-0.2277568135664687
 70
    64
  0
VERTEX
  5
B15
330
B11
100
AcDbEntity
  8
ACESSORIOS
100
AcDbVertex
100
AcDbPolygonMeshVertex
 10
30.20208152801689
 20
0.0
 30
-0.4979184719828815
 70
    64
  0
VERTEX
  5
B16
330
B11
100
AcDbEntity
  8
ACESSORIOS
100
AcDbVertex
100
AcDbPolygonMeshVertex
 10
30.47224318643327
 20
0.0
 30
-0.8499999999999908
 70
    64
  0
VERTEX
  5
B17
330
B11
100
AcDbEntity
  8
ACESSORIOS
100
AcDbVertex
100
AcDbPolygonMeshVertex
 10
30.6420739046911
 20
0.0
 30
-1.260007623325681
 70
    64
  0
VERTEX
  5
B18
330
B11
100
AcDbEntity
  8
ACESSORIOS
100
AcDbVertex
100
AcDbPolygonMeshVertex
 10
30.69999999999968
 20
0.0
 30
-1.69999999999993
 70
    64
  0
VERTEX
  5
B19
330
B11
100
AcDbEntity
  8
ACESSORIOS
100
AcDbVertex
100
AcDbPolygonMeshVertex
 10
28.9999999999999
 20
-414.0
 30
0.0000000000000284
 70
    64
  0
VERTEX
  5
B1A
330
B11
100
AcDbEntity
  8
ACESSORIOS
100
AcDbVertex
100
AcDbPolygonMeshVertex
 10
29.43999237667492
 20
-414.0
 30
-0.0579260953084102
 70
    64
  0
VERTEX
  5
B1B
330
B11
100
AcDbEntity
  8
ACESSORIOS
100
AcDbVertex
100
AcDbPolygonMeshVertex
 10
29.85000000000061
 20
-414.0
 30
-0.2277568135663302
 70
    64
  0
VERTEX
  5
B1C
330
B11
100
AcDbEntity
  8
ACESSORIOS
100
AcDbVertex
100
AcDbPolygonMeshVertex
 10
30.20208152801767
 20
-414.0
 30
-0.4979184719827998
 70
    64
  0
VERTEX
  5
B1D
330
B11
100
AcDbEntity
  8
ACESSORIOS
100
AcDbVertex
100
AcDbPolygonMeshVertex
 10
30.47224318643403
 20
-414.0
 30
-0.8499999999999623
 70
    64
  0
VERTEX
  5
B1E
330
B11
100
AcDbEntity
  8
ACESSORIOS
100
AcDbVertex
100
AcDbPolygonMeshVertex
 10
30.64207390469183
 20
-414.0
 30
-1.260007623325691
 70
    64
  0
VERTEX
  5
B1F
330
B11
100
AcDbEntity
  8
ACESSORIOS
100
AcDbVertex
100
AcDbPolygonMeshVertex
 10
30.6999999999997
 20
-414.0
 30
-1.699999999999982
 70
    64
  0
SEQEND
  5
BD4
330
B11
100
AcDbEntity
  8
ACESSORIOS
  0
POLYLINE
  5
B21
330
1F
100
AcDbEntity
  8
ACESSORIOS
100
AcDbPolygonMesh
 66
     1
 10
0.0
 20
0.0
 30
0.0
 70
    16
 71
     2
 72
     7
  0
VERTEX
  5
B22
330
B21
100
AcDbEntity
  8
ACESSORIOS
100
AcDbVertex
100
AcDbPolygonMeshVertex
 10
28.99999999999989
 20
-414.0
 30
-0.9999999999999538
 70
    64
  0
VERTEX
  5
B23
330
B21
100
AcDbEntity
  8
ACESSORIOS
100
AcDbVertex
100
AcDbPolygonMeshVertex
 10
29.18117333157232
 20
-414.0
 30
-1.023851921597451
 70
    64
  0
VERTEX
  5
B24
330
B21
100
AcDbEntity
  8
ACESSORIOS
100
AcDbVertex
100
AcDbPolygonMeshVertex
 10
29.35000000000055
 20
-414.0
 30
-1.093782217350739
 70
    64
  0
VERTEX
  5
B25
330
B21
100
AcDbEntity
  8
ACESSORIOS
100
AcDbVertex
100
AcDbPolygonMeshVertex
 10
29.49497474683109
 20
-414.0
 30
-1.20502525316931
 70
    64
  0
VERTEX
  5
B26
330
B21
100
AcDbEntity
  8
ACESSORIOS
100
AcDbVertex
100
AcDbPolygonMeshVertex
 10
29.60621778264957
 20
-414.0
 30
-1.349999999999941
 70
    64
  0
VERTEX
  5
B27
330
B21
100
AcDbEntity
  8
ACESSORIOS
100
AcDbVertex
100
AcDbPolygonMeshVertex
 10
29.67614807840275
 20
-414.0
 30
-1.518826668428202
 70
    64
  0
VERTEX
  5
B28
330
B21
100
AcDbEntity
  8
ACESSORIOS
100
AcDbVertex
100
AcDbPolygonMeshVertex
 10
29.6999999999997
 20
-414.0
 30
-1.699999999999982
 70
    64
  0
VERTEX
  5
B29
330
B21
100
AcDbEntity
  8
ACESSORIOS
100
AcDbVertex
100
AcDbPolygonMeshVertex
 10
28.99999999999986
 20
0.0
 30
-1.0
 70
    64
  0
VERTEX
  5
B2A
330
B21
100
AcDbEntity
  8
ACESSORIOS
100
AcDbVertex
100
AcDbPolygonMeshVertex
 10
29.18117333157159
 20
0.0
 30
-1.023851921597672
 70
    64
  0
VERTEX
  5
B2B
330
B21
100
AcDbEntity
  8
ACESSORIOS
100
AcDbVertex
100
AcDbPolygonMeshVertex
 10
29.34999999999977
 20
0.0
 30
-1.09378221735092
 70
    64
  0
VERTEX
  5
B2C
330
B21
100
AcDbEntity
  8
ACESSORIOS
100
AcDbVertex
100
AcDbPolygonMeshVertex
 10
29.49497474683028
 20
0.0
 30
-1.205025253169442
 70
    64
  0
VERTEX
  5
B2D
330
B21
100
AcDbEntity
  8
ACESSORIOS
100
AcDbVertex
100
AcDbPolygonMeshVertex
 10
29.60621778264877
 20
0.0
 30
-1.350000000000009
 70
    64
  0
VERTEX
  5
B2E
330
B21
100
AcDbEntity
  8
ACESSORIOS
100
AcDbVertex
100
AcDbPolygonMeshVertex
 10
29.67614807840195
 20
0.0
 30
-1.518826668428211
 70
    64
  0
VERTEX
  5
B2F
330
B21
100
AcDbEntity
  8
ACESSORIOS
100
AcDbVertex
100
AcDbPolygonMeshVertex
 10
29.69999999999956
 20
0.0
 30
-1.69999999999993
 70
    64
  0
SEQEND
  5
BD5
330
B21
100
AcDbEntity
  8
ACESSORIOS
  0
POLYLINE
  5
B31
330
1F
100
AcDbEntity
  8
ACESSORIOS
100
AcDbPolygonMesh
 66
     1
 10
0.0
 20
0.0
 30
0.0
 70
    16
 71
     2
 72
     7
  0
VERTEX
  5
B32
330
B31
100
AcDbEntity
  8
ACESSORIOS
100
AcDbVertex
100
AcDbPolygonMeshVertex
 10
29.69999999999968
 20
0.0
 30
-19.89999999999982
 70
    64
  0
VERTEX
  5
B33
330
B31
100
AcDbEntity
  8
ACESSORIOS
100
AcDbVertex
100
AcDbPolygonMeshVertex
 10
29.67614807840209
 20
0.0
 30
-20.08117333157159
 70
    64
  0
VERTEX
  5
B34
330
B31
100
AcDbEntity
  8
ACESSORIOS
100
AcDbVertex
100
AcDbPolygonMeshVertex
 10
29.60621778264888
 20
0.0
 30
-20.24999999999985
 70
    64
  0
VERTEX
  5
B35
330
B31
100
AcDbEntity
  8
ACESSORIOS
100
AcDbVertex
100
AcDbPolygonMeshVertex
 10
29.49497474683042
 20
0.0
 30
-20.39497474683047
 70
    64
  0
VERTEX
  5
B36
330
B31
100
AcDbEntity
  8
ACESSORIOS
100
AcDbVertex
100
AcDbPolygonMeshVertex
 10
29.34999999999985
 20
0.0
 30
-20.50621778264902
 70
    64
  0
VERTEX
  5
B37
330
B31
100
AcDbEntity
  8
ACESSORIOS
100
AcDbVertex
100
AcDbPolygonMeshVertex
 10
29.18117333157161
 20
0.0
 30
-20.5761480784023
 70
    64
  0
VERTEX
  5
B38
330
B31
100
AcDbEntity
  8
ACESSORIOS
100
AcDbVertex
100
AcDbPolygonMeshVertex
 10
28.99999999999986
 20
0.0
 30
-20.59999999999998
 70
    64
  0
VERTEX
  5
B39
330
B31
100
AcDbEntity
  8
ACESSORIOS
100
AcDbVertex
100
AcDbPolygonMeshVertex
 10
29.6999999999997
 20
-414.0
 30
-19.89999999999981
 70
    64
  0
VERTEX
  5
B3A
330
B31
100
AcDbEntity
  8
ACESSORIOS
100
AcDbVertex
100
AcDbPolygonMeshVertex
 10
29.67614807840211
 20
-414.0
 30
-20.08117333157158
 70
    64
  0
VERTEX
  5
B3B
330
B31
100
AcDbEntity
  8
ACESSORIOS
100
AcDbVertex
100
AcDbPolygonMeshVertex
 10
29.60621778264891
 20
-414.0
 30
-20.24999999999984
 70
    64
  0
VERTEX
  5
B3C
330
B31
100
AcDbEntity
  8
ACESSORIOS
100
AcDbVertex
100
AcDbPolygonMeshVertex
 10
29.49497474683044
 20
-414.0
 30
-20.39497474683045
 70
    64
  0
VERTEX
  5
B3D
330
B31
100
AcDbEntity
  8
ACESSORIOS
100
AcDbVertex
100
AcDbPolygonMeshVertex
 10
29.34999999999987
 20
-414.0
 30
-20.50621778264901
 70
    64
  0
VERTEX
  5
B3E
330
B31
100
AcDbEntity
  8
ACESSORIOS
100
AcDbVertex
100
AcDbPolygonMeshVertex
 10
29.18117333157164
 20
-414.0
 30
-20.57614807840228
 70
    64
  0
VERTEX
  5
B3F
330
B31
100
AcDbEntity
  8
ACESSORIOS
100
AcDbVertex
100
AcDbPolygonMeshVertex
 10
28.99999999999989
 20
-414.0
 30
-20.59999999999997
 70
    64
  0
SEQEND
  5
BD6
330
B31
100
AcDbEntity
  8
ACESSORIOS
  0
POLYLINE
  5
B41
330
1F
100
AcDbEntity
  8
ACESSORIOS
100
AcDbPolygonMesh
 66
     1
 10
0.0
 20
0.0
 30
0.0
 70
    16
 71
     2
 72
     7
  0
VERTEX
  5
B42
330
B41
100
AcDbEntity
  8
ACESSORIOS
100
AcDbVertex
100
AcDbPolygonMeshVertex
 10
30.6999999999997
 20
-414.0
 30
-19.8999999999999
 70
    64
  0
VERTEX
  5
B43
330
B41
100
AcDbEntity
  8
ACESSORIOS
100
AcDbVertex
100
AcDbPolygonMeshVertex
 10
30.64207390469116
 20
-414.0
 30
-20.33999237667417
 70
    64
  0
VERTEX
  5
B44
330
B41
100
AcDbEntity
  8
ACESSORIOS
100
AcDbVertex
100
AcDbPolygonMeshVertex
 10
30.47224318643333
 20
-414.0
 30
-20.74999999999989
 70
    64
  0
VERTEX
  5
B45
330
B41
100
AcDbEntity
  8
ACESSORIOS
100
AcDbVertex
100
AcDbPolygonMeshVertex
 10
30.20208152801695
 20
-414.0
 30
-21.10208152801703
 70
    64
  0
VERTEX
  5
B46
330
B41
100
AcDbEntity
  8
ACESSORIOS
100
AcDbVertex
100
AcDbPolygonMeshVertex
 10
29.84999999999985
 20
-414.0
 30
-21.37224318643346
 70
    64
  0
VERTEX
  5
B47
330
B41
100
AcDbEntity
  8
ACESSORIOS
100
AcDbVertex
100
AcDbPolygonMeshVertex
 10
29.43999237667416
 20
-414.0
 30
-21.54207390469136
 70
    64
  0
VERTEX
  5
B48
330
B41
100
AcDbEntity
  8
ACESSORIOS
100
AcDbVertex
100
AcDbPolygonMeshVertex
 10
28.99999999999989
 20
-414.0
 30
-21.59999999999997
 70
    64
  0
VERTEX
  5
B49
330
B41
100
AcDbEntity
  8
ACESSORIOS
100
AcDbVertex
100
AcDbPolygonMeshVertex
 10
30.69999999999968
 20
0.0
 30
-19.89999999999994
 70
    64
  0
VERTEX
  5
B4A
330
B41
100
AcDbEntity
  8
ACESSORIOS
100
AcDbVertex
100
AcDbPolygonMeshVertex
 10
30.64207390469113
 20
0.0
 30
-20.33999237667421
 70
    64
  0
VERTEX
  5
B4B
330
B41
100
AcDbEntity
  8
ACESSORIOS
100
AcDbVertex
100
AcDbPolygonMeshVertex
 10
30.4722431864333
 20
0.0
 30
-20.74999999999992
 70
    64
  0
VERTEX
  5
B4C
330
B41
100
AcDbEntity
  8
ACESSORIOS
100
AcDbVertex
100
AcDbPolygonMeshVertex
 10
30.20208152801692
 20
0.0
 30
-21.10208152801706
 70
    64
  0
VERTEX
  5
B4D
330
B41
100
AcDbEntity
  8
ACESSORIOS
100
AcDbVertex
100
AcDbPolygonMeshVertex
 10
29.84999999999982
 20
0.0
 30
-21.37224318643349
 70
    64
  0
VERTEX
  5
B4E
330
B41
100
AcDbEntity
  8
ACESSORIOS
100
AcDbVertex
100
AcDbPolygonMeshVertex
 10
29.43999237667413
 20
0.0
 30
-21.54207390469137
 70
    64
  0
VERTEX
  5
B4F
330
B41
100
AcDbEntity
  8
ACESSORIOS
100
AcDbVertex
100
AcDbPolygonMeshVertex
 10
28.99999999999986
 20
0.0
 30
-21.59999999999998
 70
    64
  0
SEQEND
  5
BD7
330
B41
100
AcDbEntity
  8
ACESSORIOS
  0
POLYLINE
  5
B51
330
1F
100
AcDbEntity
  8
ACESSORIOS
100
AcDbPolygonMesh
 66
     1
 10
0.0
 20
0.0
 30
0.0
 70
    16
 71
     2
 72
     7
  0
VERTEX
  5
B52
330
B51
100
AcDbEntity
  8
ACESSORIOS
100
AcDbVertex
100
AcDbPolygonMeshVertex
 10
1.699999999999761
 20
0.0
 30
-17.79999999999998
 70
    64
  0
VERTEX
  5
B53
330
B51
100
AcDbEntity
  8
ACESSORIOS
100
AcDbVertex
100
AcDbPolygonMeshVertex
 10
1.260007623325528
 20
0.0
 30
-17.74207390469138
 70
    64
  0
VERTEX
  5
B54
330
B51
100
AcDbEntity
  8
ACESSORIOS
100
AcDbVertex
100
AcDbPolygonMeshVertex
 10
0.8499999999998025
 20
0.0
 30
-17.57224318643349
 70
    64
  0
VERTEX
  5
B55
330
B51
100
AcDbEntity
  8
ACESSORIOS
100
AcDbVertex
100
AcDbPolygonMeshVertex
 10
0.4979184719827074
 20
0.0
 30
-17.30208152801706
 70
    64
  0
VERTEX
  5
B56
330
B51
100
AcDbEntity
  8
ACESSORIOS
100
AcDbVertex
100
AcDbPolygonMeshVertex
 10
0.2277568135663159
 20
0.0
 30
-16.94999999999992
 70
    64
  0
VERTEX
  5
B57
330
B51
100
AcDbEntity
  8
ACESSORIOS
100
AcDbVertex
100
AcDbPolygonMeshVertex
 10
0.057926095308531
 20
0.0
 30
-16.53999237667421
 70
    64
  0
VERTEX
  5
B58
330
B51
100
AcDbEntity
  8
ACESSORIOS
100
AcDbVertex
100
AcDbPolygonMeshVertex
 10
-0.0000000000000568
 20
0.0
 30
-16.09999999999993
 70
    64
  0
VERTEX
  5
B59
330
B51
100
AcDbEntity
  8
ACESSORIOS
100
AcDbVertex
100
AcDbPolygonMeshVertex
 10
1.699999999999818
 20
-414.0
 30
-17.79999999999998
 70
    64
  0
VERTEX
  5
B5A
330
B51
100
AcDbEntity
  8
ACESSORIOS
100
AcDbVertex
100
AcDbPolygonMeshVertex
 10
1.260007623325528
 20
-414.0
 30
-17.74207390469138
 70
    64
  0
VERTEX
  5
B5B
330
B51
100
AcDbEntity
  8
ACESSORIOS
100
AcDbVertex
100
AcDbPolygonMeshVertex
 10
0.8499999999998522
 20
-414.0
 30
-17.57224318643349
 70
    64
  0
VERTEX
  5
B5C
330
B51
100
AcDbEntity
  8
ACESSORIOS
100
AcDbVertex
100
AcDbPolygonMeshVertex
 10
0.4979184719827643
 20
-414.0
 30
-17.30208152801706
 70
    64
  0
VERTEX
  5
B5D
330
B51
100
AcDbEntity
  8
ACESSORIOS
100
AcDbVertex
100
AcDbPolygonMeshVertex
 10
0.2277568135663728
 20
-414.0
 30
-16.94999999999992
 70
    64
  0
VERTEX
  5
B5E
330
B51
100
AcDbEntity
  8
ACESSORIOS
100
AcDbVertex
100
AcDbPolygonMeshVertex
 10
0.057926095308531
 20
-414.0
 30
-16.53999237667421
 70
    64
  0
VERTEX
  5
B5F
330
B51
100
AcDbEntity
  8
ACESSORIOS
100
AcDbVertex
100
AcDbPolygonMeshVertex
 10
0.0
 20
-414.0
 30
-16.09999999999993
 70
    64
  0
SEQEND
  5
BD8
330
B51
100
AcDbEntity
  8
ACESSORIOS
  0
POLYLINE
  5
B61
330
1F
100
AcDbEntity
  8
ACESSORIOS
100
AcDbPolygonMesh
 66
     1
 10
0.0
 20
0.0
 30
0.0
 70
    16
 71
     2
 72
     7
  0
VERTEX
  5
B62
330
B61
100
AcDbEntity
  8
ACESSORIOS
100
AcDbVertex
100
AcDbPolygonMeshVertex
 10
1.699999999999818
 20
-414.0
 30
-16.79999999999998
 70
    64
  0
VERTEX
  5
B63
330
B61
100
AcDbEntity
  8
ACESSORIOS
100
AcDbVertex
100
AcDbPolygonMeshVertex
 10
1.518826668428005
 20
-414.0
 30
-16.7761480784023
 70
    64
  0
VERTEX
  5
B64
330
B61
100
AcDbEntity
  8
ACESSORIOS
100
AcDbVertex
100
AcDbPolygonMeshVertex
 10
1.349999999999802
 20
-414.0
 30
-16.70621778264902
 70
    64
  0
VERTEX
  5
B65
330
B61
100
AcDbEntity
  8
ACESSORIOS
100
AcDbVertex
100
AcDbPolygonMeshVertex
 10
1.205025253169254
 20
-414.0
 30
-16.59497474683047
 70
    64
  0
VERTEX
  5
B66
330
B61
100
AcDbEntity
  8
ACESSORIOS
100
AcDbVertex
100
AcDbPolygonMeshVertex
 10
1.093782217350743
 20
-414.0
 30
-16.44999999999986
 70
    64
  0
VERTEX
  5
B67
330
B61
100
AcDbEntity
  8
ACESSORIOS
100
AcDbVertex
100
AcDbPolygonMeshVertex
 10
1.023851921597554
 20
-414.0
 30
-16.2811733315716
 70
    64
  0
VERTEX
  5
B68
330
B61
100
AcDbEntity
  8
ACESSORIOS
100
AcDbVertex
100
AcDbPolygonMeshVertex
 10
1.0
 20
-414.0
 30
-16.09999999999982
 70
    64
  0
VERTEX
  5
B69
330
B61
100
AcDbEntity
  8
ACESSORIOS
100
AcDbVertex
100
AcDbPolygonMeshVertex
 10
1.699999999999761
 20
0.0
 30
-16.79999999999998
 70
    64
  0
VERTEX
  5
B6A
330
B61
100
AcDbEntity
  8
ACESSORIOS
100
AcDbVertex
100
AcDbPolygonMeshVertex
 10
1.518826668428005
 20
0.0
 30
-16.7761480784023
 70
    64
  0
VERTEX
  5
B6B
330
B61
100
AcDbEntity
  8
ACESSORIOS
100
AcDbVertex
100
AcDbPolygonMeshVertex
 10
1.349999999999802
 20
0.0
 30
-16.70621778264902
 70
    64
  0
VERTEX
  5
B6C
330
B61
100
AcDbEntity
  8
ACESSORIOS
100
AcDbVertex
100
AcDbPolygonMeshVertex
 10
1.205025253169211
 20
0.0
 30
-16.59497474683047
 70
    64
  0
VERTEX
  5
B6D
330
B61
100
AcDbEntity
  8
ACESSORIOS
100
AcDbVertex
100
AcDbPolygonMeshVertex
 10
1.093782217350743
 20
0.0
 30
-16.44999999999985
 70
    64
  0
VERTEX
  5
B6E
330
B61
100
AcDbEntity
  8
ACESSORIOS
100
AcDbVertex
100
AcDbPolygonMeshVertex
 10
1.023851921597554
 20
0.0
 30
-16.2811733315716
 70
    64
  0
VERTEX
  5
B6F
330
B61
100
AcDbEntity
  8
ACESSORIOS
100
AcDbVertex
100
AcDbPolygonMeshVertex
 10
0.9999999999999432
 20
0.0
 30
-16.09999999999982
 70
    64
  0
SEQEND
  5
BD9
330
B61
100
AcDbEntity
  8
ACESSORIOS
  0
POLYLINE
  5
B71
330
1F
100
AcDbEntity
  8
ACESSORIOS
100
AcDbPolygonMesh
 66
     1
 10
0.0
 20
0.0
 30
0.0
 70
    16
 71
     2
 72
     7
  0
VERTEX
  5
B72
330
B71
100
AcDbEntity
  8
ACESSORIOS
100
AcDbVertex
100
AcDbPolygonMeshVertex
 10
1.000000000000064
 20
0.0
 30
-1.69999999999993
 70
    64
  0
VERTEX
  5
B73
330
B71
100
AcDbEntity
  8
ACESSORIOS
100
AcDbVertex
100
AcDbPolygonMeshVertex
 10
1.023851921597675
 20
0.0
 30
-1.518826668428211
 70
    64
  0
VERTEX
  5
B74
330
B71
100
AcDbEntity
  8
ACESSORIOS
100
AcDbVertex
100
AcDbPolygonMeshVertex
 10
1.093782217350849
 20
0.0
 30
-1.350000000000009
 70
    64
  0
VERTEX
  5
B75
330
B71
100
AcDbEntity
  8
ACESSORIOS
100
AcDbVertex
100
AcDbPolygonMeshVertex
 10
1.205025253169367
 20
0.0
 30
-1.205025253169442
 70
    64
  0
VERTEX
  5
B76
330
B71
100
AcDbEntity
  8
ACESSORIOS
100
AcDbVertex
100
AcDbPolygonMeshVertex
 10
1.349999999999852
 20
0.0
 30
-1.09378221735092
 70
    64
  0
VERTEX
  5
B77
330
B71
100
AcDbEntity
  8
ACESSORIOS
100
AcDbVertex
100
AcDbPolygonMeshVertex
 10
1.518826668428062
 20
0.0
 30
-1.023851921597672
 70
    64
  0
VERTEX
  5
B78
330
B71
100
AcDbEntity
  8
ACESSORIOS
100
AcDbVertex
100
AcDbPolygonMeshVertex
 10
1.699999999999761
 20
0.0
 30
-1.0
 70
    64
  0
VERTEX
  5
B79
330
B71
100
AcDbEntity
  8
ACESSORIOS
100
AcDbVertex
100
AcDbPolygonMeshVertex
 10
1.000000000000114
 20
-414.0
 30
-1.69999999999993
 70
    64
  0
VERTEX
  5
B7A
330
B71
100
AcDbEntity
  8
ACESSORIOS
100
AcDbVertex
100
AcDbPolygonMeshVertex
 10
1.023851921597725
 20
-414.0
 30
-1.518826668428211
 70
    64
  0
VERTEX
  5
B7B
330
B71
100
AcDbEntity
  8
ACESSORIOS
100
AcDbVertex
100
AcDbPolygonMeshVertex
 10
1.093782217350906
 20
-414.0
 30
-1.350000000000009
 70
    64
  0
VERTEX
  5
B7C
330
B71
100
AcDbEntity
  8
ACESSORIOS
100
AcDbVertex
100
AcDbPolygonMeshVertex
 10
1.205025253169367
 20
-414.0
 30
-1.205025253169442
 70
    64
  0
VERTEX
  5
B7D
330
B71
100
AcDbEntity
  8
ACESSORIOS
100
AcDbVertex
100
AcDbPolygonMeshVertex
 10
1.349999999999909
 20
-414.0
 30
-1.09378221735092
 70
    64
  0
VERTEX
  5
B7E
330
B71
100
AcDbEntity
  8
ACESSORIOS
100
AcDbVertex
100
AcDbPolygonMeshVertex
 10
1.518826668428062
 20
-414.0
 30
-1.023851921597672
 70
    64
  0
VERTEX
  5
B7F
330
B71
100
AcDbEntity
  8
ACESSORIOS
100
AcDbVertex
100
AcDbPolygonMeshVertex
 10
1.699999999999818
 20
-414.0
 30
-1.0
 70
    64
  0
SEQEND
  5
BDA
330
B71
100
AcDbEntity
  8
ACESSORIOS
  0
POLYLINE
  5
B81
330
1F
100
AcDbEntity
  8
ACESSORIOS
100
AcDbPolygonMesh
 66
     1
 10
0.0
 20
0.0
 30
0.0
 70
    16
 71
     2
 72
     7
  0
VERTEX
  5
B82
330
B81
100
AcDbEntity
  8
ACESSORIOS
100
AcDbVertex
100
AcDbPolygonMeshVertex
 10
0.0
 20
-414.0
 30
-1.69999999999993
 70
    64
  0
VERTEX
  5
B83
330
B81
100
AcDbEntity
  8
ACESSORIOS
100
AcDbVertex
100
AcDbPolygonMeshVertex
 10
0.057926095308531
 20
-414.0
 30
-1.260007623325681
 70
    64
  0
VERTEX
  5
B84
330
B81
100
AcDbEntity
  8
ACESSORIOS
100
AcDbVertex
100
AcDbPolygonMeshVertex
 10
0.2277568135663728
 20
-414.0
 30
-0.8499999999999908
 70
    64
  0
VERTEX
  5
B85
330
B81
100
AcDbEntity
  8
ACESSORIOS
100
AcDbVertex
100
AcDbPolygonMeshVertex
 10
0.4979184719827643
 20
-414.0
 30
-0.4979184719828815
 70
    64
  0
VERTEX
  5
B86
330
B81
100
AcDbEntity
  8
ACESSORIOS
100
AcDbVertex
100
AcDbPolygonMeshVertex
 10
0.8499999999998522
 20
-414.0
 30
-0.2277568135664687
 70
    64
  0
VERTEX
  5
B87
330
B81
100
AcDbEntity
  8
ACESSORIOS
100
AcDbVertex
100
AcDbPolygonMeshVertex
 10
1.260007623325528
 20
-414.0
 30
-0.0579260953085985
 70
    64
  0
VERTEX
  5
B88
330
B81
100
AcDbEntity
  8
ACESSORIOS
100
AcDbVertex
100
AcDbPolygonMeshVertex
 10
1.699999999999818
 20
-414.0
 30
0.0
 70
    64
  0
VERTEX
  5
B89
330
B81
100
AcDbEntity
  8
ACESSORIOS
100
AcDbVertex
100
AcDbPolygonMeshVertex
 10
-0.0000000000000568
 20
0.0
 30
-1.69999999999993
 70
    64
  0
VERTEX
  5
B8A
330
B81
100
AcDbEntity
  8
ACESSORIOS
100
AcDbVertex
100
AcDbPolygonMeshVertex
 10
0.057926095308531
 20
0.0
 30
-1.260007623325681
 70
    64
  0
VERTEX
  5
B8B
330
B81
100
AcDbEntity
  8
ACESSORIOS
100
AcDbVertex
100
AcDbPolygonMeshVertex
 10
0.2277568135663728
 20
0.0
 30
-0.8499999999999908
 70
    64
  0
VERTEX
  5
B8C
330
B81
100
AcDbEntity
  8
ACESSORIOS
100
AcDbVertex
100
AcDbPolygonMeshVertex
 10
0.4979184719827643
 20
0.0
 30
-0.4979184719828815
 70
    64
  0
VERTEX
  5
B8D
330
B81
100
AcDbEntity
  8
ACESSORIOS
100
AcDbVertex
100
AcDbPolygonMeshVertex
 10
0.8499999999998522
 20
0.0
 30
-0.2277568135664687
 70
    64
  0
VERTEX
  5
B8E
330
B81
100
AcDbEntity
  8
ACESSORIOS
100
AcDbVertex
100
AcDbPolygonMeshVertex
 10
1.260007623325528
 20
0.0
 30
-0.0579260953085985
 70
    64
  0
VERTEX
  5
B8F
330
B81
100
AcDbEntity
  8
ACESSORIOS
100
AcDbVertex
100
AcDbPolygonMeshVertex
 10
1.699999999999761
 20
0.0
 30
0.0
 70
    64
  0
SEQEND
  5
BDB
330
B81
100
AcDbEntity
  8
ACESSORIOS
  0
3DFACE
  5
B91
330
1F
100
AcDbEntity
  8
ACESSORIOS
100
AcDbFace
 10
15.79999999999983
 20
-414.0
 30
-0.9999999999999538
 11
15.79999999999983
 21
-414.0
 31
-0.9999999999999538
 12
28.99999999999989
 22
-414.0
 32
-0.9999999999999538
 13
28.99999999999989
 23
-414.0
 33
-0.9999999999999538
  0
3DFACE
  5
B92
330
1F
100
AcDbEntity
  8
ACESSORIOS
100
AcDbFace
 10
15.79999999999986
 20
-414.0
 30
0.0000000000000284
 11
15.79999999999986
 21
-414.0
 31
0.0000000000000284
 12
28.9999999999999
 22
-414.0
 32
0.0000000000000284
 13
28.9999999999999
 23
-414.0
 33
0.0000000000000284
  0
3DFACE
  5
B93
330
1F
100
AcDbEntity
  8
ACESSORIOS
100
AcDbFace
 10
29.6999999999997
 20
-414.0
 30
-1.699999999999982
 11
30.6999999999997
 21
-414.0
 31
-1.699999999999982
 12
30.6999999999997
 22
-414.0
 32
-19.8999999999999
 13
29.6999999999997
 23
-414.0
 33
-19.89999999999981
  0
3DFACE
  5
B94
330
1F
100
AcDbEntity
  8
ACESSORIOS
100
AcDbFace
 10
28.99999999999989
 20
-414.0
 30
-20.59999999999997
 11
28.99999999999989
 21
-414.0
 31
-21.59999999999997
 12
26.29999999999988
 22
-414.0
 32
-21.59999999999997
 13
26.29999999999988
 23
-414.0
 33
-20.59999999999997
  0
POLYLINE
  5
B95
330
1F
100
AcDbEntity
  8
ACESSORIOS
100
AcDbPolygonMesh
 66
     1
 10
0.0
 20
0.0
 30
0.0
 70
    16
 71
     2
 72
     7
  0
VERTEX
  5
B96
330
B95
100
AcDbEntity
  8
ACESSORIOS
100
AcDbVertex
100
AcDbPolygonMeshVertex
 10
29.00000000000057
 20
-414.0
 30
-0.9999999999997513
 70
    64
  0
VERTEX
  5
B97
330
B95
100
AcDbEntity
  8
ACESSORIOS
100
AcDbVertex
100
AcDbPolygonMeshVertex
 10
29.18117333157232
 20
-414.0
 30
-1.023851921597451
 70
    64
  0
VERTEX
  5
B98
330
B95
100
AcDbEntity
  8
ACESSORIOS
100
AcDbVertex
100
AcDbPolygonMeshVertex
 10
29.35000000000055
 20
-414.0
 30
-1.093782217350739
 70
    64
  0
VERTEX
  5
B99
330
B95
100
AcDbEntity
  8
ACESSORIOS
100
AcDbVertex
100
AcDbPolygonMeshVertex
 10
29.49497474683109
 20
-414.0
 30
-1.20502525316931
 70
    64
  0
VERTEX
  5
B9A
330
B95
100
AcDbEntity
  8
ACESSORIOS
100
AcDbVertex
100
AcDbPolygonMeshVertex
 10
29.60621778264957
 20
-414.0
 30
-1.349999999999941
 70
    64
  0
VERTEX
  5
B9B
330
B95
100
AcDbEntity
  8
ACESSORIOS
100
AcDbVertex
100
AcDbPolygonMeshVertex
 10
29.67614807840275
 20
-414.0
 30
-1.518826668428202
 70
    64
  0
VERTEX
  5
B9C
330
B95
100
AcDbEntity
  8
ACESSORIOS
100
AcDbVertex
100
AcDbPolygonMeshVertex
 10
29.70000000000033
 20
-414.0
 30
-1.699999999999982
 70
    64
  0
VERTEX
  5
B9D
330
B95
100
AcDbEntity
  8
ACESSORIOS
100
AcDbVertex
100
AcDbPolygonMeshVertex
 10
29.00000000000065
 20
-414.0
 30
0.0000000000002487
 70
    64
  0
VERTEX
  5
B9E
330
B95
100
AcDbEntity
  8
ACESSORIOS
100
AcDbVertex
100
AcDbPolygonMeshVertex
 10
29.43999237667492
 20
-414.0
 30
-0.0579260953084102
 70
    64
  0
VERTEX
  5
B9F
330
B95
100
AcDbEntity
  8
ACESSORIOS
100
AcDbVertex
100
AcDbPolygonMeshVertex
 10
29.85000000000061
 20
-414.0
 30
-0.2277568135663302
 70
    64
  0
VERTEX
  5
BA0
330
B95
100
AcDbEntity
  8
ACESSORIOS
100
AcDbVertex
100
AcDbPolygonMeshVertex
 10
30.20208152801767
 20
-414.0
 30
-0.4979184719827998
 70
    64
  0
VERTEX
  5
BA1
330
B95
100
AcDbEntity
  8
ACESSORIOS
100
AcDbVertex
100
AcDbPolygonMeshVertex
 10
30.47224318643403
 20
-414.0
 30
-0.8499999999999623
 70
    64
  0
VERTEX
  5
BA2
330
B95
100
AcDbEntity
  8
ACESSORIOS
100
AcDbVertex
100
AcDbPolygonMeshVertex
 10
30.64207390469183
 20
-414.0
 30
-1.260007623325691
 70
    64
  0
VERTEX
  5
BA3
330
B95
100
AcDbEntity
  8
ACESSORIOS
100
AcDbVertex
100
AcDbPolygonMeshVertex
 10
30.70000000000033
 20
-414.0
 30
-1.699999999999982
 70
    64
  0
SEQEND
  5
BDC
330
B95
100
AcDbEntity
  8
ACESSORIOS
  0
POLYLINE
  5
BA5
330
1F
100
AcDbEntity
  8
ACESSORIOS
100
AcDbPolygonMesh
 66
     1
 10
0.0
 20
0.0
 30
0.0
 70
    16
 71
     2
 72
     7
  0
VERTEX
  5
BA6
330
BA5
100
AcDbEntity
  8
ACESSORIOS
100
AcDbVertex
100
AcDbPolygonMeshVertex
 10
29.6999999999997
 20
-414.0
 30
-19.89999999999981
 70
    64
  0
VERTEX
  5
BA7
330
BA5
100
AcDbEntity
  8
ACESSORIOS
100
AcDbVertex
100
AcDbPolygonMeshVertex
 10
29.67614807840211
 20
-414.0
 30
-20.08117333157158
 70
    64
  0
VERTEX
  5
BA8
330
BA5
100
AcDbEntity
  8
ACESSORIOS
100
AcDbVertex
100
AcDbPolygonMeshVertex
 10
29.60621778264891
 20
-414.0
 30
-20.24999999999984
 70
    64
  0
VERTEX
  5
BA9
330
BA5
100
AcDbEntity
  8
ACESSORIOS
100
AcDbVertex
100
AcDbPolygonMeshVertex
 10
29.49497474683044
 20
-414.0
 30
-20.39497474683045
 70
    64
  0
VERTEX
  5
BAA
330
BA5
100
AcDbEntity
  8
ACESSORIOS
100
AcDbVertex
100
AcDbPolygonMeshVertex
 10
29.34999999999987
 20
-414.0
 30
-20.50621778264901
 70
    64
  0
VERTEX
  5
BAB
330
BA5
100
AcDbEntity
  8
ACESSORIOS
100
AcDbVertex
100
AcDbPolygonMeshVertex
 10
29.18117333157164
 20
-414.0
 30
-20.57614807840228
 70
    64
  0
VERTEX
  5
BAC
330
BA5
100
AcDbEntity
  8
ACESSORIOS
100
AcDbVertex
100
AcDbPolygonMeshVertex
 10
28.99999999999989
 20
-414.0
 30
-20.59999999999997
 70
    64
  0
VERTEX
  5
BAD
330
BA5
100
AcDbEntity
  8
ACESSORIOS
100
AcDbVertex
100
AcDbPolygonMeshVertex
 10
30.6999999999997
 20
-414.0
 30
-19.8999999999999
 70
    64
  0
VERTEX
  5
BAE
330
BA5
100
AcDbEntity
  8
ACESSORIOS
100
AcDbVertex
100
AcDbPolygonMeshVertex
 10
30.64207390469116
 20
-414.0
 30
-20.33999237667417
 70
    64
  0
VERTEX
  5
BAF
330
BA5
100
AcDbEntity
  8
ACESSORIOS
100
AcDbVertex
100
AcDbPolygonMeshVertex
 10
30.47224318643333
 20
-414.0
 30
-20.74999999999989
 70
    64
  0
VERTEX
  5
BB0
330
BA5
100
AcDbEntity
  8
ACESSORIOS
100
AcDbVertex
100
AcDbPolygonMeshVertex
 10
30.20208152801695
 20
-414.0
 30
-21.10208152801703
 70
    64
  0
VERTEX
  5
BB1
330
BA5
100
AcDbEntity
  8
ACESSORIOS
100
AcDbVertex
100
AcDbPolygonMeshVertex
 10
29.84999999999985
 20
-414.0
 30
-21.37224318643346
 70
    64
  0
VERTEX
  5
BB2
330
BA5
100
AcDbEntity
  8
ACESSORIOS
100
AcDbVertex
100
AcDbPolygonMeshVertex
 10
29.43999237667416
 20
-414.0
 30
-21.54207390469136
 70
    64
  0
VERTEX
  5
BB3
330
BA5
100
AcDbEntity
  8
ACESSORIOS
100
AcDbVertex
100
AcDbPolygonMeshVertex
 10
28.99999999999989
 20
-414.0
 30
-21.59999999999997
 70
    64
  0
SEQEND
  5
BDD
330
BA5
100
AcDbEntity
  8
ACESSORIOS
  0
3DFACE
  5
BB5
330
1F
100
AcDbEntity
  8
ACESSORIOS
100
AcDbFace
 10
28.99999999999989
 20
-414.0
 30
-1.0
 11
28.99999999999989
 21
-414.0
 31
0.0
 12
1.699999999999818
 22
-414.0
 32
0.0
 13
1.699999999999818
 23
-414.0
 33
-1.0
  0
ENDSEC
  0
SECTION
  2
OBJECTS
  0
DICTIONARY
  5
C
330
0
100
AcDbDictionary
  3
ACAD_BACKGROUND
350
7D7
  3
ACAD_COLOR
350
6C
  3
ACAD_GROUP
350
D
  3
ACAD_LAYOUT
350
1A
  3
ACAD_MATERIAL
350
6B
  3
ACAD_MLINESTYLE
350
17
  3
ACAD_PLOTSETTINGS
350
19
  3
ACAD_TABLESTYLE
350
92
  3
ACAD_VISUALSTYLE
350
79D
  3
ACDBHEADERROUNDTRIPXREC
350
BDE
  3
ACDBVARIABLEDICTIONARY
350
59
  3
ASE_INDEX_DICTIONARY
350
982
  3
DWGPROPS
350
C00
  0
DICTIONARY
  5
C07
330
8
100
AcDbDictionary
280
     1
  3
ACAD_XREC_ROUNDTRIP
360
C08
  0
DICTIONARY
  5
7D7
102
{ACAD_REACTORS
330
C
102
}
330
C
100
AcDbDictionary
  0
DICTIONARY
  5
6C
102
{ACAD_REACTORS
330
C
102
}
330
C
100
AcDbDictionary
  0
DICTIONARY
  5
D
102
{ACAD_REACTORS
330
C
102
}
330
C
100
AcDbDictionary
  0
DICTIONARY
  5
1A
102
{ACAD_REACTORS
330
C
102
}
330
C
100
AcDbDictionary
  0
DICTIONARY
  5
6B
102
{ACAD_REACTORS
330
C
102
}
330
C
100
AcDbDictionary
  3
BYBLOCK
350
79B
  3
BYLAYER
350
79A
  3
GLOBAL
350
79C
  0
DICTIONARY
  5
17
102
{ACAD_REACTORS
330
C
102
}
330
C
100
AcDbDictionary
  3
STANDARD
350
18
  0
DICTIONARY
  5
19
102
{ACAD_REACTORS
330
C
102
}
330
C
100
AcDbDictionary
  0
DICTIONARY
  5
92
102
{ACAD_REACTORS
330
C
102
}
330
C
100
AcDbDictionary
  0
DICTIONARY
  5
79D
102
{ACAD_REACTORS
330
C
102
}
330
C
100
AcDbDictionary
  3
2DWIREFRAME
350
7A3
  3
3D_HIDDEN
350
7A5
  3
3DWIREFRAME
350
7A4
  3
BASIC
350
7A2
  3
BRIGHTEN
350
7A9
  3
COLORCHANGE
350
7AD
  3
CONCEPTUAL
350
7A6
  3
DIM
350
7A8
  3
FACEPATTERN
350
7AC
  3
FLAT
350
79E
  3
FLATWITHEDGES
350
79F
  3
GOURAUD
350
7A0
  3
GOURAUDWITHEDGES
350
7A1
  3
LINEPATTERN
350
7AB
  3
REALISTIC
350
7A7
  3
THICKEN
350
7AA
  0
DICTIONARY
  5
BDE
102
{ACAD_REACTORS
330
C
102
}
330
C
100
AcDbDictionary
  3
CEPSNTYPE
350
BE7
  3
COLORDICT
350
BFE
  3
DIMSTYLEDATA
350
BFD
  3
FINGERPRINTGUID
350
BE8
  3
HYPERLINKBASE
350
BE1
  3
INSUNITS
350
BE6
  3
LAYOUTDICT
350
BE3
  3
LWETCUNION
350
BE5
  3
MATERIALDICT
350
BFF
  3
PLOTSETDICT
350
BE4
  3
PSVPSCALE
350
BEA
  3
PUCSBASE
350
BED
  3
PUCSORGBACK
350
BF3
  3
PUCSORGBOTTOM
350
BEF
  3
PUCSORGFRONT
350
BF2
  3
PUCSORGLEFT
350
BF0
  3
PUCSORGRIGHT
350
BF1
  3
PUCSORGTOP
350
BEE
  3
PUCSORTHOREF
350
BEB
  3
PUCSORTHOVIEW
350
BEC
  3
STYLESHEET
350
BE2
  3
TSTACKALIGN
350
BDF
  3
TSTACKSIZE
350
BE0
  3
UCSBASE
350
BF6
  3
UCSORGBACK
350
BFC
  3
UCSORGBOTTOM
350
BF8
  3
UCSORGFRONT
350
BFB
  3
UCSORGLEFT
350
BF9
  3
UCSORGRIGHT
350
BFA
  3
UCSORGTOP
350
BF7
  3
UCSORTHOREF
350
BF4
  3
UCSORTHOVIEW
350
BF5
  3
VERSIONGUID
350
BE9
  0
DICTIONARY
  5
59
102
{ACAD_REACTORS
330
C
102
}
330
C
100
AcDbDictionary
  3
CTABLESTYLE
350
9C
  3
DIMASSOC
350
370
  3
HALOGAP
350
A8
  3
HIDETEXT
350
371
  3
INDEXCTL
350
A9
  3
XCLIPFRAME
350
AA
  0
DICTIONARY
  5
982
102
{ACAD_REACTORS
330
C
102
}
330
C
100
AcDbDictionary
  3
ASEBLOCKHIERARCHYINDEXRECORD
350
983
  0
XRECORD
  5
C00
102
{ACAD_REACTORS
330
C
102
}
330
C
100
AcDbXrecord
  1
DWGPROPS COOKIE
  2

  3

  4

  6

  7

  8
fottrem
  9

300
=
301
=
302
=
303
=
304
=
305
=
306
=
307
=
308
=
309
=
 40
0.0
 41
2456581.82313132
 42
2456679.5664825
  1

 90
        0
  0
XRECORD
  5
C08
102
{ACAD_REACTORS
330
C07
102
}
330
C07
100
AcDbXrecord
102
VTR_0.000_0.000_1.000_1.000_VISUALSTYLE
340
7A3
102
VTR_0.000_0.000_1.000_1.000_GRIDDISPLAY
 70
     0
102
VTR_0.000_0.000_1.000_1.000_GRIDMAJOR
 70
     5
102
VTR_0.000_0.000_1.000_1.000_DEFAULTLIGHTING
280
     1
102
VTR_0.000_0.000_1.000_1.000_DEFAULTLIGHTINGTYPE
 70
     1
102
VTR_0.000_0.000_1.000_1.000_BRIGHTNESS
141
0.0
102
VTR_0.000_0.000_1.000_1.000_CONTRAST
142
0.0
  0
MATERIAL
  5
79B
102
{ACAD_REACTORS
330
6B
102
}
102
{ACAD_XDICTIONARY
360
C01
102
}
330
6B
100
AcDbMaterial
  1
BYBLOCK
  0
MATERIAL
  5
79A
102
{ACAD_REACTORS
330
6B
102
}
102
{ACAD_XDICTIONARY
360
C03
102
}
330
6B
100
AcDbMaterial
  1
BYLAYER
  0
MATERIAL
  5
79C
102
{ACAD_REACTORS
330
6B
102
}
102
{ACAD_XDICTIONARY
360
C05
102
}
330
6B
100
AcDbMaterial
  1
GLOBAL
  0
MLINESTYLE
  5
18
102
{ACAD_REACTORS
330
17
102
}
330
17
100
AcDbMlineStyle
  2
Standard
 70
     0
  3

 62
   256
 51
90.0
 52
90.0
 71
     2
 49
0.5
 62
   256
  6
BYLAYER
 49
-0.5
 62
   256
  6
BYLAYER
  0
VISUALSTYLE
  5
7A3
102
{ACAD_REACTORS
330
79D
102
}
330
79D
100
AcDbVisualStyle
  2
2dWireframe
 70
     4
 71
     0
 72
     2
 73
     0
 90
        0
 40
-0.6
 41
-30.0
 62
     5
 63
     7
 74
     1
 91
        4
 64
     7
 65
   257
 75
     1
175
     1
 42
1.0
 92
        0
 66
   257
 43
1.0
 76
     1
 77
     6
 78
     2
 67
     7
 79
     5
170
     0
171
     0
290
     0
174
     0
 93
        1
 44
0.0
173
     0
291
     0
 45
0.0
1001
ACAD
1000
AcDbSavedByObjectVersion
1070
     0
  0
VISUALSTYLE
  5
7A5
102
{ACAD_REACTORS
330
79D
102
}
330
79D
100
AcDbVisualStyle
  2
3D Hidden
 70
     6
 71
     1
 72
     2
 73
     2
 90
        0
 40
-0.6
 41
-30.0
 62
     5
 63
     7
 74
     2
 91
        2
 64
     7
 65
   257
 75
     2
175
     1
 42
40.0
 92
        0
 66
   257
 43
1.0
 76
     1
 77
     6
 78
     2
 67
     7
 79
     3
170
     0
171
     0
290
     0
174
     0
 93
        1
 44
0.0
173
     0
291
     0
 45
0.0
1001
ACAD
1000
AcDbSavedByObjectVersion
1070
     0
  0
VISUALSTYLE
  5
7A4
102
{ACAD_REACTORS
330
79D
102
}
330
79D
100
AcDbVisualStyle
  2
3dWireframe
 70
     5
 71
     0
 72
     2
 73
     0
 90
        0
 40
-0.6
 41
-30.0
 62
     5
 63
     7
 74
     1
 91
        4
 64
     7
 65
   257
 75
     1
175
     1
 42
1.0
 92
        0
 66
   257
 43
1.0
 76
     1
 77
     6
 78
     2
 67
     7
 79
     5
170
     0
171
     0
290
     0
174
     0
 93
        1
 44
0.0
173
     0
291
     0
 45
0.0
1001
ACAD
1000
AcDbSavedByObjectVersion
1070
     0
  0
VISUALSTYLE
  5
7A2
102
{ACAD_REACTORS
330
79D
102
}
330
79D
100
AcDbVisualStyle
  2
Basic
 70
     7
 71
     1
 72
     0
 73
     1
 90
        0
 40
-0.6
 41
-30.0
 62
     5
 63
     7
 74
     0
 91
        4
 64
     7
 65
   257
 75
     1
175
     1
 42
1.0
 92
        8
 66
     7
 43
1.0
 76
     1
 77
     6
 78
     2
 67
     7
 79
     5
170
     0
171
     0
290
     0
174
     0
 93
        1
 44
0.0
173
     0
291
     1
 45
0.0
1001
ACAD
1000
AcDbSavedByObjectVersion
1070
     0
  0
VISUALSTYLE
  5
7A9
102
{ACAD_REACTORS
330
79D
102
}
330
79D
100
AcDbVisualStyle
  2
Brighten
 70
    12
 71
     2
 72
     2
 73
     0
 90
        0
 40
-0.6
 41
-30.0
 62
     5
 63
     7
 74
     1
 91
        4
 64
     7
 65
   257
 75
     1
175
     1
 42
1.0
 92
        8
 66
     7
 43
1.0
 76
     1
 77
     6
 78
     2
 67
     7
 79
     5
170
     0
171
     0
290
     0
174
     0
 93
        1
 44
50.0
173
     0
291
     1
 45
0.0
1001
ACAD
1000
AcDbSavedByObjectVersion
1070
     0
  0
VISUALSTYLE
  5
7AD
102
{ACAD_REACTORS
330
79D
102
}
330
79D
100
AcDbVisualStyle
  2
ColorChange
 70
    16
 71
     2
 72
     2
 73
     3
 90
        0
 40
-0.6
 41
-30.0
 62
     5
 63
     8
 74
     1
 91
        4
 64
     7
 65
   257
 75
     1
175
     1
 42
1.0
 92
        8
 66
     8
 43
1.0
 76
     1
 77
     6
 78
     2
 67
     7
 79
     5
170
     0
171
     0
290
     0
174
     0
 93
        1
 44
0.0
173
     0
291
     1
 45
0.0
1001
ACAD
1000
AcDbSavedByObjectVersion
1070
     0
  0
VISUALSTYLE
  5
7A6
102
{ACAD_REACTORS
330
79D
102
}
330
79D
100
AcDbVisualStyle
  2
Conceptual
 70
     9
 71
     3
 72
     2
 73
     0
 90
        0
 40
-0.6
 41
-30.0
 62
     5
 63
     7
 74
     2
 91
        2
 64
     7
 65
   257
 75
     1
175
     1
 42
40.0
 92
        8
 66
     7
 43
1.0
 76
     1
 77
     6
 78
     2
 67
     7
 79
     3
170
     0
171
     0
290
     0
174
     0
 93
        1
 44
0.0
173
     0
291
     0
 45
0.0
1001
ACAD
1000
AcDbSavedByObjectVersion
1070
     0
  0
VISUALSTYLE
  5
7A8
102
{ACAD_REACTORS
330
79D
102
}
330
79D
100
AcDbVisualStyle
  2
Dim
 70
    11
 71
     2
 72
     2
 73
     0
 90
        0
 40
-0.6
 41
-30.0
 62
     5
 63
     7
 74
     1
 91
        4
 64
     7
 65
   257
 75
     1
175
     1
 42
1.0
 92
        8
 66
     7
 43
1.0
 76
     1
 77
     6
 78
     2
 67
     7
 79
     5
170
     0
171
     0
290
     0
174
     0
 93
        1
 44
-50.0
173
     0
291
     1
 45
0.0
1001
ACAD
1000
AcDbSavedByObjectVersion
1070
     0
  0
VISUALSTYLE
  5
7AC
102
{ACAD_REACTORS
330
79D
102
}
330
79D
100
AcDbVisualStyle
  2
Facepattern
 70
    15
 71
     2
 72
     2
 73
     0
 90
        0
 40
-0.6
 41
-30.0
 62
     5
 63
     7
 74
     1
 91
        4
 64
     7
 65
   257
 75
     1
175
     1
 42
1.0
 92
        8
 66
     7
 43
1.0
 76
     1
 77
     6
 78
     2
 67
     7
 79
     5
170
     0
171
     0
290
     0
174
     0
 93
        1
 44
0.0
173
     0
291
     1
 45
0.0
1001
ACAD
1000
AcDbSavedByObjectVersion
1070
     0
  0
VISUALSTYLE
  5
79E
102
{ACAD_REACTORS
330
79D
102
}
330
79D
100
AcDbVisualStyle
  2
Flat
 70
     0
 71
     2
 72
     1
 73
     1
 90
        2
 40
-0.6
 41
30.0
 62
     5
 63
     7
 74
     0
 91
        4
 64
     7
 65
   257
 75
     1
175
     1
 42
1.0
 92
        8
 66
     7
 43
1.0
 76
     1
 77
     6
 78
     2
 67
     7
 79
     5
170
     0
171
     0
290
     0
174
     0
 93
       13
 44
0.0
173
     0
291
     1
 45
0.0
1001
ACAD
1000
AcDbSavedByObjectVersion
1070
     0
  0
VISUALSTYLE
  5
79F
102
{ACAD_REACTORS
330
79D
102
}
330
79D
100
AcDbVisualStyle
  2
FlatWithEdges
 70
     1
 71
     2
 72
     1
 73
     1
 90
        2
 40
-0.6
 41
30.0
 62
     5
 63
     7
 74
     1
 91
        4
 64
     7
 65
   257
 75
     1
175
     1
 42
1.0
 92
        0
 66
   257
 43
1.0
 76
     1
 77
     6
 78
     2
 67
     7
 79
     5
170
     0
171
     0
290
     0
174
     0
 93
       13
 44
0.0
173
     0
291
     1
 45
0.0
1001
ACAD
1000
AcDbSavedByObjectVersion
1070
     0
  0
VISUALSTYLE
  5
7A0
102
{ACAD_REACTORS
330
79D
102
}
330
79D
100
AcDbVisualStyle
  2
Gouraud
 70
     2
 71
     2
 72
     2
 73
     1
 90
        2
 40
-0.6
 41
30.0
 62
     5
 63
     7
 74
     0
 91
        4
 64
     7
 65
   257
 75
     1
175
     1
 42
1.0
 92
        0
 66
     7
 43
1.0
 76
     1
 77
     6
 78
     2
 67
     7
 79
     5
170
     0
171
     0
290
     0
174
     0
 93
       13
 44
0.0
173
     0
291
     1
 45
0.0
1001
ACAD
1000
AcDbSavedByObjectVersion
1070
     0
  0
VISUALSTYLE
  5
7A1
102
{ACAD_REACTORS
330
79D
102
}
330
79D
100
AcDbVisualStyle
  2
GouraudWithEdges
 70
     3
 71
     2
 72
     2
 73
     1
 90
        2
 40
-0.6
 41
30.0
 62
     5
 63
     7
 74
     1
 91
        4
 64
     7
 65
   257
 75
     1
175
     1
 42
1.0
 92
        0
 66
   257
 43
1.0
 76
     1
 77
     6
 78
     2
 67
     7
 79
     5
170
     0
171
     0
290
     0
174
     0
 93
       13
 44
0.0
173
     0
291
     1
 45
0.0
1001
ACAD
1000
AcDbSavedByObjectVersion
1070
     0
  0
VISUALSTYLE
  5
7AB
102
{ACAD_REACTORS
330
79D
102
}
330
79D
100
AcDbVisualStyle
  2
Linepattern
 70
    14
 71
     2
 72
     2
 73
     0
 90
        0
 40
-0.6
 41
-30.0
 62
     5
 63
     7
 74
     1
 91
        4
 64
     7
 65
   257
 75
     7
175
     7
 42
1.0
 92
        8
 66
     7
 43
1.0
 76
     1
 77
     6
 78
     2
 67
     7
 79
     5
170
     0
171
     0
290
     0
174
     0
 93
        1
 44
0.0
173
     0
291
     1
 45
0.0
1001
ACAD
1000
AcDbSavedByObjectVersion
1070
     0
  0
VISUALSTYLE
  5
7A7
102
{ACAD_REACTORS
330
79D
102
}
330
79D
100
AcDbVisualStyle
  2
Realistic
 70
     8
 71
     2
 72
     2
 73
     0
 90
        0
 40
-0.6
 41
-30.0
 62
     5
 63
     7
 74
     1
 91
        0
 64
     7
 65
   257
 75
     1
175
     1
 42
1.0
 92
        8
 66
     8
 43
1.0
 76
     1
 77
     6
 78
     2
 67
     7
 79
     5
170
     0
171
     0
290
     0
174
     0
 93
       13
 44
0.0
173
     0
291
     0
 45
0.0
1001
ACAD
1000
AcDbSavedByObjectVersion
1070
     0
  0
VISUALSTYLE
  5
7AA
102
{ACAD_REACTORS
330
79D
102
}
330
79D
100
AcDbVisualStyle
  2
Thicken
 70
    13
 71
     2
 72
     2
 73
     0
 90
        0
 40
-0.6
 41
-30.0
 62
     5
 63
     7
 74
     1
 91
        4
 64
     7
 65
   257
 75
     1
175
     1
 42
1.0
 92
       12
 66
     7
 43
1.0
 76
     1
 77
     6
 78
     2
 67
     7
 79
     5
170
     0
171
     0
290
     0
174
     0
 93
        1
 44
0.0
173
     0
291
     1
 45
0.0
1001
ACAD
1000
AcDbSavedByObjectVersion
1070
     0
  0
XRECORD
  5
BE7
102
{ACAD_REACTORS
330
BDE
102
}
330
BDE
100
AcDbXrecord
 90
        0
  0
XRECORD
  5
BFE
102
{ACAD_REACTORS
330
BDE
102
}
330
BDE
100
AcDbXrecord
340
6C
  0
XRECORD
  5
BFD
102
{ACAD_REACTORS
330
BDE
102
}
330
BDE
100
AcDbXrecord
1000
DSTYLE
1002
{
1070
   340
340
11
1002
}
  0
XRECORD
  5
BE8
102
{ACAD_REACTORS
330
BDE
102
}
330
BDE
100
AcDbXrecord
  1
{27A9EFC6-7A58-4BDD-8152-33C6988E8119}
  0
XRECORD
  5
BE1
102
{ACAD_REACTORS
330
BDE
102
}
330
BDE
100
AcDbXrecord
  1

  0
XRECORD
  5
BE6
102
{ACAD_REACTORS
330
BDE
102
}
330
BDE
100
AcDbXrecord
 90
        1
  0
XRECORD
  5
BE3
102
{ACAD_REACTORS
330
BDE
102
}
330
BDE
100
AcDbXrecord
340
1A
  0
XRECORD
  5
BE5
102
{ACAD_REACTORS
330
BDE
102
}
330
BDE
100
AcDbXrecord
 90
    11805
  0
XRECORD
  5
BFF
102
{ACAD_REACTORS
330
BDE
102
}
330
BDE
100
AcDbXrecord
340
6B
  0
XRECORD
  5
BE4
102
{ACAD_REACTORS
330
BDE
102
}
330
BDE
100
AcDbXrecord
340
19
  0
XRECORD
  5
BEA
102
{ACAD_REACTORS
330
BDE
102
}
330
BDE
100
AcDbXrecord
 40
0.0
  0
XRECORD
  5
BED
102
{ACAD_REACTORS
330
BDE
102
}
330
BDE
100
AcDbXrecord
340
0
  0
XRECORD
  5
BF3
102
{ACAD_REACTORS
330
BDE
102
}
330
BDE
100
AcDbXrecord
 10
0.0
 20
0.0
 30
0.0
  0
XRECORD
  5
BEF
102
{ACAD_REACTORS
330
BDE
102
}
330
BDE
100
AcDbXrecord
 10
0.0
 20
0.0
 30
0.0
  0
XRECORD
  5
BF2
102
{ACAD_REACTORS
330
BDE
102
}
330
BDE
100
AcDbXrecord
 10
0.0
 20
0.0
 30
0.0
  0
XRECORD
  5
BF0
102
{ACAD_REACTORS
330
BDE
102
}
330
BDE
100
AcDbXrecord
 10
0.0
 20
0.0
 30
0.0
  0
XRECORD
  5
BF1
102
{ACAD_REACTORS
330
BDE
102
}
330
BDE
100
AcDbXrecord
 10
0.0
 20
0.0
 30
0.0
  0
XRECORD
  5
BEE
102
{ACAD_REACTORS
330
BDE
102
}
330
BDE
100
AcDbXrecord
 10
0.0
 20
0.0
 30
0.0
  0
XRECORD
  5
BEB
102
{ACAD_REACTORS
330
BDE
102
}
330
BDE
100
AcDbXrecord
340
0
  0
XRECORD
  5
BEC
102
{ACAD_REACTORS
330
BDE
102
}
330
BDE
100
AcDbXrecord
 70
     0
  0
XRECORD
  5
BE2
102
{ACAD_REACTORS
330
BDE
102
}
330
BDE
100
AcDbXrecord
  1

  0
XRECORD
  5
BDF
102
{ACAD_REACTORS
330
BDE
102
}
330
BDE
100
AcDbXrecord
 90
        1
  0
XRECORD
  5
BE0
102
{ACAD_REACTORS
330
BDE
102
}
330
BDE
100
AcDbXrecord
 90
       70
  0
XRECORD
  5
BF6
102
{ACAD_REACTORS
330
BDE
102
}
330
BDE
100
AcDbXrecord
340
0
  0
XRECORD
  5
BFC
102
{ACAD_REACTORS
330
BDE
102
}
330
BDE
100
AcDbXrecord
 10
0.0
 20
0.0
 30
0.0
  0
XRECORD
  5
BF8
102
{ACAD_REACTORS
330
BDE
102
}
330
BDE
100
AcDbXrecord
 10
0.0
 20
0.0
 30
0.0
  0
XRECORD
  5
BFB
102
{ACAD_REACTORS
330
BDE
102
}
330
BDE
100
AcDbXrecord
 10
0.0
 20
0.0
 30
0.0
  0
XRECORD
  5
BF9
102
{ACAD_REACTORS
330
BDE
102
}
330
BDE
100
AcDbXrecord
 10
0.0
 20
0.0
 30
0.0
  0
XRECORD
  5
BFA
102
{ACAD_REACTORS
330
BDE
102
}
330
BDE
100
AcDbXrecord
 10
0.0
 20
0.0
 30
0.0
  0
XRECORD
  5
BF7
102
{ACAD_REACTORS
330
BDE
102
}
330
BDE
100
AcDbXrecord
 10
0.0
 20
0.0
 30
0.0
  0
XRECORD
  5
BF4
102
{ACAD_REACTORS
330
BDE
102
}
330
BDE
100
AcDbXrecord
340
0
  0
XRECORD
  5
BF5
102
{ACAD_REACTORS
330
BDE
102
}
330
BDE
100
AcDbXrecord
 70
     0
  0
XRECORD
  5
BE9
102
{ACAD_REACTORS
330
BDE
102
}
330
BDE
100
AcDbXrecord
  1
{AC5B1AF0-B1B2-43CC-9AD6-0B8F07ECB03C}
  0
DICTIONARYVAR
  5
9C
102
{ACAD_REACTORS
330
59
102
}
330
59
100
DictionaryVariables
280
     0
  1

  0
DICTIONARYVAR
  5
370
102
{ACAD_REACTORS
330
59
102
}
330
59
100
DictionaryVariables
280
     0
  1
2
  0
DICTIONARYVAR
  5
A8
102
{ACAD_REACTORS
330
59
102
}
330
59
100
DictionaryVariables
280
     0
  1
0
  0
DICTIONARYVAR
  5
371
102
{ACAD_REACTORS
330
59
102
}
330
59
100
DictionaryVariables
280
     0
  1
1
  0
DICTIONARYVAR
  5
A9
102
{ACAD_REACTORS
330
59
102
}
330
59
100
DictionaryVariables
280
     0
  1
0
  0
DICTIONARYVAR
  5
AA
102
{ACAD_REACTORS
330
59
102
}
330
59
100
DictionaryVariables
280
     0
  1
0
  0
XRECORD
  5
983
102
{ACAD_REACTORS
330
982
102
}
330
982
100
AcDbXrecord
  0
DICTIONARY
  5
C01
330
79B
100
AcDbDictionary
280
     1
  3
ACAD_XREC_ROUNDTRIP
360
C02
  0
DICTIONARY
  5
C03
330
79A
100
AcDbDictionary
280
     1
  3
ACAD_XREC_ROUNDTRIP
360
C04
  0
DICTIONARY
  5
C05
330
79C
100
AcDbDictionary
280
     1
  3
ACAD_XREC_ROUNDTRIP
360
C06
  0
XRECORD
  5
C02
102
{ACAD_REACTORS
330
C01
102
}
330
C01
100
AcDbXrecord
102
MATERIAL
148
0.0
149
0.0
149
0.0
 93
        0
 94
       63
282
     0
 72
     1
 77
     1
171
     1
175
     1
179
     1
273
     0
  0
XRECORD
  5
C04
102
{ACAD_REACTORS
330
C03
102
}
330
C03
100
AcDbXrecord
102
MATERIAL
148
0.0
149
0.0
149
0.0
 93
        0
 94
       63
282
     0
 72
     1
 77
     1
171
     1
175
     1
179
     1
273
     0
  0
XRECORD
  5
C06
102
{ACAD_REACTORS
330
C05
102
}
330
C05
100
AcDbXrecord
102
MATERIAL
148
0.0
149
0.0
149
0.0
 93
        0
 94
       63
282
     0
 72
     1
 77
     1
171
     1
175
     1
179
     1
273
     0
  0
ENDSEC
  0
EOF
