  0
SECTION
  2
HEADER
  9
$ACADVER
  1
AC1021
  9
$ACADMAINTVER
 70
    39
  9
$DWGCODEPAGE
  3
UNDEFINED
  9
$LASTSAVEDBY
  1
fottrem
  9
$INSBASE
 10
0.0
 20
0.0
 30
0.0
  9
$EXTMIN
 10
-34.0
 20
-5.0
 30
-5.0
  9
$EXTMAX
 10
16.0
 20
5.0
 30
5.0
  9
$LIMMIN
 10
0.0
 20
0.0
  9
$LIMMAX
 10
12.0
 20
9.0
  9
$ORTHOMODE
 70
     1
  9
$REGENMODE
 70
     1
  9
$FILLMODE
 70
     1
  9
$QTEXTMODE
 70
     0
  9
$MIRRTEXT
 70
     1
  9
$LTSCALE
 40
1.0
  9
$ATTMODE
 70
     1
  9
$TEXTSIZE
 40
0.2
  9
$TRACEWID
 40
0.05
  9
$TEXTSTYLE
  7
Standard
  9
$CLAYER
  8
CONTORNO
  9
$CELTYPE
  6
ByBlock
  9
$CECOLOR
 62
   256
  9
$CELTSCALE
 40
1.0
  9
$DISPSILH
 70
     0
  9
$DIMSCALE
 40
1.0
  9
$DIMASZ
 40
0.18
  9
$DIMEXO
 40
0.0625
  9
$DIMDLI
 40
0.38
  9
$DIMRND
 40
0.0
  9
$DIMDLE
 40
0.0
  9
$DIMEXE
 40
0.18
  9
$DIMTP
 40
0.0
  9
$DIMTM
 40
0.0
  9
$DIMTXT
 40
0.18
  9
$DIMCEN
 40
0.09
  9
$DIMTSZ
 40
0.0
  9
$DIMTOL
 70
     0
  9
$DIMLIM
 70
     0
  9
$DIMTIH
 70
     1
  9
$DIMTOH
 70
     1
  9
$DIMSE1
 70
     0
  9
$DIMSE2
 70
     0
  9
$DIMTAD
 70
     0
  9
$DIMZIN
 70
     0
  9
$DIMBLK
  1

  9
$DIMASO
 70
     1
  9
$DIMSHO
 70
     1
  9
$DIMPOST
  1

  9
$DIMAPOST
  1

  9
$DIMALT
 70
     0
  9
$DIMALTD
 70
     2
  9
$DIMALTF
 40
25.4
  9
$DIMLFAC
 40
1.0
  9
$DIMTOFL
 70
     0
  9
$DIMTVP
 40
0.0
  9
$DIMTIX
 70
     0
  9
$DIMSOXD
 70
     0
  9
$DIMSAH
 70
     0
  9
$DIMBLK1
  1

  9
$DIMBLK2
  1

  9
$DIMSTYLE
  2
Standard
  9
$DIMCLRD
 70
     0
  9
$DIMCLRE
 70
     0
  9
$DIMCLRT
 70
     0
  9
$DIMTFAC
 40
1.0
  9
$DIMGAP
 40
0.09
  9
$DIMJUST
 70
     0
  9
$DIMSD1
 70
     0
  9
$DIMSD2
 70
     0
  9
$DIMTOLJ
 70
     1
  9
$DIMTZIN
 70
     0
  9
$DIMALTZ
 70
     0
  9
$DIMALTTZ
 70
     0
  9
$DIMUPT
 70
     0
  9
$DIMDEC
 70
     4
  9
$DIMTDEC
 70
     4
  9
$DIMALTU
 70
     2
  9
$DIMALTTD
 70
     2
  9
$DIMTXSTY
  7
Standard
  9
$DIMAUNIT
 70
     0
  9
$DIMADEC
 70
     0
  9
$DIMALTRND
 40
0.0
  9
$DIMAZIN
 70
     0
  9
$DIMDSEP
 70
    46
  9
$DIMATFIT
 70
     3
  9
$DIMFRAC
 70
     0
  9
$DIMLDRBLK
  1

  9
$DIMLUNIT
 70
     2
  9
$DIMLWD
 70
    -2
  9
$DIMLWE
 70
    -2
  9
$DIMTMOVE
 70
     0
  9
$DIMFXL
 40
1.0
  9
$DIMFXLON
 70
     0
  9
$DIMJOGANG
 40
0.7853981633974483
  9
$DIMTFILL
 70
     0
  9
$DIMTFILLCLR
 70
     0
  9
$DIMARCSYM
 70
     0
  9
$DIMLTYPE
  6

  9
$DIMLTEX1
  6

  9
$DIMLTEX2
  6

  9
$LUNITS
 70
     2
  9
$LUPREC
 70
     4
  9
$SKETCHINC
 40
0.1
  9
$FILLETRAD
 40
0.5
  9
$AUNITS
 70
     0
  9
$AUPREC
 70
     0
  9
$MENU
  1
.
  9
$ELEVATION
 40
0.0
  9
$PELEVATION
 40
0.0
  9
$THICKNESS
 40
0.0
  9
$LIMCHECK
 70
     0
  9
$CHAMFERA
 40
0.5
  9
$CHAMFERB
 40
0.5
  9
$CHAMFERC
 40
1.0
  9
$CHAMFERD
 40
0.0
  9
$SKPOLY
 70
     0
  9
$TDCREATE
 40
2456010.495129526
  9
$TDUCREATE
 40
2456010.578462859
  9
$TDUPDATE
 40
2456010.495129502
  9
$TDUUPDATE
 40
2456010.578462836
  9
$TDINDWG
 40
0.0160879167
  9
$TDUSRTIMER
 40
0.016076331
  9
$USRTIMER
 70
     1
  9
$ANGBASE
 50
0.0
  9
$ANGDIR
 70
     0
  9
$PDMODE
 70
     0
  9
$PDSIZE
 40
0.0
  9
$PLINEWID
 40
0.0
  9
$SPLFRAME
 70
     0
  9
$SPLINETYPE
 70
     6
  9
$SPLINESEGS
 70
     8
  9
$HANDSEED
  5
2E9
  9
$SURFTAB1
 70
     6
  9
$SURFTAB2
 70
     6
  9
$SURFTYPE
 70
     6
  9
$SURFU
 70
     6
  9
$SURFV
 70
     6
  9
$UCSBASE
  2

  9
$UCSNAME
  2

  9
$UCSORG
 10
0.0
 20
0.0
 30
0.0
  9
$UCSXDIR
 10
1.0
 20
0.0
 30
0.0
  9
$UCSYDIR
 10
0.0
 20
1.0
 30
0.0
  9
$UCSORTHOREF
  2

  9
$UCSORTHOVIEW
 70
     0
  9
$UCSORGTOP
 10
0.0
 20
0.0
 30
0.0
  9
$UCSORGBOTTOM
 10
0.0
 20
0.0
 30
0.0
  9
$UCSORGLEFT
 10
0.0
 20
0.0
 30
0.0
  9
$UCSORGRIGHT
 10
0.0
 20
0.0
 30
0.0
  9
$UCSORGFRONT
 10
0.0
 20
0.0
 30
0.0
  9
$UCSORGBACK
 10
0.0
 20
0.0
 30
0.0
  9
$PUCSBASE
  2

  9
$PUCSNAME
  2

  9
$PUCSORG
 10
0.0
 20
0.0
 30
0.0
  9
$PUCSXDIR
 10
1.0
 20
0.0
 30
0.0
  9
$PUCSYDIR
 10
0.0
 20
1.0
 30
0.0
  9
$PUCSORTHOREF
  2

  9
$PUCSORTHOVIEW
 70
     0
  9
$PUCSORGTOP
 10
0.0
 20
0.0
 30
0.0
  9
$PUCSORGBOTTOM
 10
0.0
 20
0.0
 30
0.0
  9
$PUCSORGLEFT
 10
0.0
 20
0.0
 30
0.0
  9
$PUCSORGRIGHT
 10
0.0
 20
0.0
 30
0.0
  9
$PUCSORGFRONT
 10
0.0
 20
0.0
 30
0.0
  9
$PUCSORGBACK
 10
0.0
 20
0.0
 30
0.0
  9
$USERI1
 70
     0
  9
$USERI2
 70
     0
  9
$USERI3
 70
     0
  9
$USERI4
 70
     0
  9
$USERI5
 70
     0
  9
$USERR1
 40
0.0
  9
$USERR2
 40
0.0
  9
$USERR3
 40
0.0
  9
$USERR4
 40
0.0
  9
$USERR5
 40
0.0
  9
$WORLDVIEW
 70
     1
  9
$SHADEDGE
 70
     3
  9
$SHADEDIF
 70
    70
  9
$TILEMODE
 70
     1
  9
$MAXACTVP
 70
    64
  9
$PINSBASE
 10
0.0
 20
0.0
 30
0.0
  9
$PLIMCHECK
 70
     0
  9
$PEXTMIN
 10
1.000000000000000E+20
 20
1.000000000000000E+20
 30
1.000000000000000E+20
  9
$PEXTMAX
 10
-1.000000000000000E+20
 20
-1.000000000000000E+20
 30
-1.000000000000000E+20
  9
$PLIMMIN
 10
0.0
 20
0.0
  9
$PLIMMAX
 10
12.0
 20
9.0
  9
$UNITMODE
 70
     0
  9
$VISRETAIN
 70
     1
  9
$PLINEGEN
 70
     0
  9
$PSLTSCALE
 70
     1
  9
$TREEDEPTH
 70
  3020
  9
$CMLSTYLE
  2
Standard
  9
$CMLJUST
 70
     0
  9
$CMLSCALE
 40
1.0
  9
$PROXYGRAPHICS
 70
     1
  9
$MEASUREMENT
 70
     0
  9
$CELWEIGHT
370
    -1
  9
$ENDCAPS
280
     0
  9
$JOINSTYLE
280
     0
  9
$LWDISPLAY
290
     0
  9
$INSUNITS
 70
     0
  9
$HYPERLINKBASE
  1

  9
$STYLESHEET
  1

  9
$XEDIT
290
     1
  9
$CEPSNTYPE
380
     0
  9
$PSTYLEMODE
290
     1
  9
$FINGERPRINTGUID
  2
{AA7400FD-DC8E-4BB1-8EBF-04965052088A}
  9
$VERSIONGUID
  2
{FAEB1C32-E019-11D5-929B-00C0DF256EC4}
  9
$EXTNAMES
290
     1
  9
$PSVPSCALE
 40
0.0
  9
$OLESTARTUP
290
     0
  9
$SORTENTS
280
   127
  9
$INDEXCTL
280
     0
  9
$HIDETEXT
280
     1
  9
$XCLIPFRAME
290
     0
  9
$HALOGAP
280
     0
  9
$OBSCOLOR
 70
   257
  9
$OBSLTYPE
280
     0
  9
$INTERSECTIONDISPLAY
280
     0
  9
$INTERSECTIONCOLOR
 70
   257
  9
$DIMASSOC
280
     2
  9
$PROJECTNAME
  1

  9
$CAMERADISPLAY
290
     0
  9
$LENSLENGTH
 40
50.0
  9
$CAMERAHEIGHT
 40
0.0
  9
$STEPSPERSEC
 40
2.0
  9
$STEPSIZE
 40
6.0
  9
$3DDWFPREC
 40
2.0
  9
$PSOLWIDTH
 40
0.25
  9
$PSOLHEIGHT
 40
4.0
  9
$LOFTANG1
 40
1.570796326794897
  9
$LOFTANG2
 40
1.570796326794897
  9
$LOFTMAG1
 40
1.0
  9
$LOFTMAG2
 40
1.0
  9
$LOFTPARAM
 70
     7
  9
$LOFTNORMALS
280
     1
  9
$LATITUDE
 40
37.795
  9
$LONGITUDE
 40
-122.394
  9
$NORTHDIRECTION
 40
0.0
  9
$TIMEZONE
 70
 -8000
  9
$LIGHTGLYPHDISPLAY
280
     1
  9
$TILEMODELIGHTSYNCH
280
     1
  9
$SOLIDHIST
280
     1
  9
$SHOWHIST
280
     1
  9
$DWFFRAME
280
     0
  9
$DGNFRAME
280
     2
  9
$REALWORLDSCALE
290
     1
  9
$INTERFERECOLOR
 62
   256
  9
$CSHADOW
280
     0
  9
$SHADOWPLANELOCATION
 40
0.0
  0
ENDSEC
  0
SECTION
  2
CLASSES
  0
CLASS
  1
ACDBDICTIONARYWDFLT
  2
AcDbDictionaryWithDefault
  3
ObjectDBX Classes
 90
        0
 91
        3
280
     0
281
     0
  0
CLASS
  1
ACDBPLACEHOLDER
  2
AcDbPlaceHolder
  3
ObjectDBX Classes
 90
        0
 91
        1
280
     0
281
     0
  0
CLASS
  1
LAYOUT
  2
AcDbLayout
  3
ObjectDBX Classes
 90
        0
 91
        1
280
     0
281
     0
  0
CLASS
  1
DICTIONARYVAR
  2
AcDbDictionaryVar
  3
ObjectDBX Classes
 90
        0
 91
        3
280
     0
281
     0
  0
CLASS
  1
TABLESTYLE
  2
AcDbTableStyle
  3
ObjectDBX Classes
 90
     4095
 91
        3
280
     0
281
     0
  0
ENDSEC
  0
SECTION
  2
TABLES
  0
TABLE
  2
VPORT
  5
8
330
0
100
AcDbSymbolTable
 70
     2
  0
VPORT
  5
97
330
8
100
AcDbSymbolTableRecord
100
AcDbViewportTableRecord
  2
*ACTIVE
 70
     0
 10
0.0
 20
0.0
 11
1.0
 21
1.0
 12
-5.723662859764368
 22
-7.855624942432219
 13
0.0
 23
0.0
 14
0.5
 24
0.5
 15
0.5
 25
0.5
 16
-1.0
 26
-1.0
 36
1.0
 17
0.0
 27
0.0
 37
0.0
 40
5.542146285061037
 41
1.972972972850329
 42
50.0
 43
0.0
 44
0.0
 50
0.0
 51
0.0
 71
    16
 72
   100
 73
     0
 74
     1
 75
     0
 76
     0
 77
     0
 78
     0
281
     0
 65
     1
110
0.0
120
0.0
130
0.0
111
1.0
121
0.0
131
0.0
112
0.0
122
1.0
132
0.0
 79
     0
146
0.0
 60
     3
 61
     5
292
     1
282
     1
141
0.0
142
0.0
 63
   256
  0
ENDTAB
  0
TABLE
  2
LTYPE
  5
5
330
0
100
AcDbSymbolTable
 70
     1
  0
LTYPE
  5
14
330
5
100
AcDbSymbolTableRecord
100
AcDbLinetypeTableRecord
  2
ByBlock
 70
     0
  3

 72
    65
 73
     0
 40
0.0
  0
LTYPE
  5
15
330
5
100
AcDbSymbolTableRecord
100
AcDbLinetypeTableRecord
  2
ByLayer
 70
     0
  3

 72
    65
 73
     0
 40
0.0
  0
LTYPE
  5
16
330
5
100
AcDbSymbolTableRecord
100
AcDbLinetypeTableRecord
  2
Continuous
 70
     0
  3
Solid line
 72
    65
 73
     0
 40
0.0
  0
ENDTAB
  0
TABLE
  2
LAYER
  5
2
330
0
100
AcDbSymbolTable
 70
     4
  0
LAYER
  5
10
330
2
100
AcDbSymbolTableRecord
100
AcDbLayerTableRecord
  2
0
 70
     0
 62
     7
  6
Continuous
370
    -3
390
F
347
0
  0
LAYER
  5
290
330
2
100
AcDbSymbolTableRecord
100
AcDbLayerTableRecord
  2
ACESSORIO
 70
     0
 62
     7
  6
Continuous
370
    -3
390
F
347
0
  0
LAYER
  5
291
330
2
100
AcDbSymbolTableRecord
100
AcDbLayerTableRecord
  2
CONTORNO
 70
     0
 62
     1
  6
Continuous
370
    -3
390
F
347
0
  0
LAYER
  5
292
330
2
100
AcDbSymbolTableRecord
100
AcDbLayerTableRecord
  2
DT_RENDER
 70
     0
 62
     7
  6
Continuous
370
    -3
390
F
347
0
  0
ENDTAB
  0
TABLE
  2
STYLE
  5
3
330
0
100
AcDbSymbolTable
 70
     1
  0
STYLE
  5
11
330
3
100
AcDbSymbolTableRecord
100
AcDbTextStyleTableRecord
  2
Standard
 70
     0
 40
0.0
 41
1.0
 50
0.0
 71
     0
 42
0.2
  3
txt
  4

  0
ENDTAB
  0
TABLE
  2
VIEW
  5
6
330
0
100
AcDbSymbolTable
 70
     0
  0
ENDTAB
  0
TABLE
  2
UCS
  5
7
330
0
100
AcDbSymbolTable
 70
     0
  0
ENDTAB
  0
TABLE
  2
APPID
  5
9
330
0
100
AcDbSymbolTable
 70
     4
  0
APPID
  5
12
330
9
100
AcDbSymbolTableRecord
100
AcDbRegAppTableRecord
  2
ACAD
 70
     0
  0
APPID
  5
2D8
330
9
100
AcDbSymbolTableRecord
100
AcDbRegAppTableRecord
  2
DTRENDER2
 70
     0
  0
APPID
  5
2D9
330
9
100
AcDbSymbolTableRecord
100
AcDbRegAppTableRecord
  2
DT_MAT_ASSIGN
 70
     0
  0
APPID
  5
2DA
330
9
100
AcDbSymbolTableRecord
100
AcDbRegAppTableRecord
  2
DT_MAT_MAPPING
 70
     0
  0
ENDTAB
  0
TABLE
  2
DIMSTYLE
  5
A
330
0
100
AcDbSymbolTable
 70
     1
100
AcDbDimStyleTable
  0
DIMSTYLE
105
27
330
A
100
AcDbSymbolTableRecord
100
AcDbDimStyleTableRecord
  2
Standard
 70
     0
340
11
  0
ENDTAB
  0
TABLE
  2
BLOCK_RECORD
  5
1
330
0
100
AcDbSymbolTable
 70
     6
  0
BLOCK_RECORD
  5
1F
330
1
100
AcDbSymbolTableRecord
100
AcDbBlockTableRecord
  2
*Model_Space
340
22
 70
     0
280
     1
281
     0
  0
BLOCK_RECORD
  5
73
330
1
100
AcDbSymbolTableRecord
100
AcDbBlockTableRecord
  2
*Paper_Space
340
74
 70
     0
280
     1
281
     0
  0
BLOCK_RECORD
  5
29C
330
1
100
AcDbSymbolTableRecord
100
AcDbBlockTableRecord
  2
DT_LIGHT
340
0
 70
     0
280
     1
281
     0
  0
BLOCK_RECORD
  5
29E
330
1
100
AcDbSymbolTableRecord
100
AcDbBlockTableRecord
  2
DT_MATERIAL
340
0
102
{BLKREFS
331
1EB
102
}
 70
     0
280
     1
281
     0
  0
BLOCK_RECORD
  5
2A0
330
1
100
AcDbSymbolTableRecord
100
AcDbBlockTableRecord
  2
DT_COLOR
340
0
 70
     0
280
     1
281
     0
  0
BLOCK_RECORD
  5
2A2
330
1
100
AcDbSymbolTableRecord
100
AcDbBlockTableRecord
  2
DT_FLOOR
340
0
 70
     0
280
     1
281
     0
  0
BLOCK_RECORD
  5
2A4
330
1
100
AcDbSymbolTableRecord
100
AcDbBlockTableRecord
  2
DT_OPTIONS
340
0
 70
     0
280
     1
281
     0
  0
BLOCK_RECORD
  5
2A6
330
1
100
AcDbSymbolTableRecord
100
AcDbBlockTableRecord
  2
DT_BACKGROUND
340
0
 70
     0
280
     1
281
     0
  0
ENDTAB
  0
ENDSEC
  0
SECTION
  2
BLOCKS
  0
BLOCK
  5
20
330
1F
100
AcDbEntity
  8
0
100
AcDbBlockBegin
  2
*Model_Space
 70
     0
 71
     0
 10
0.0
 20
0.0
 30
0.0
  3
*Model_Space
  1

  0
ENDBLK
  5
21
330
1F
100
AcDbEntity
  8
0
100
AcDbBlockEnd
  0
BLOCK
  5
75
330
73
100
AcDbEntity
 67
     1
  8
0
100
AcDbBlockBegin
  2
*Paper_Space
 70
     0
 71
     0
 10
0.0
 20
0.0
 30
0.0
  3
*Paper_Space
  1

  0
ENDBLK
  5
76
330
73
100
AcDbEntity
 67
     1
  8
0
100
AcDbBlockEnd
  0
BLOCK
  5
2DD
330
29C
100
AcDbEntity
  8
0
100
AcDbBlockBegin
  2
DT_LIGHT
 70
     0
 71
     0
 10
0.0
 20
0.0
 30
0.0
  3
DT_LIGHT
  1

  0
ENDBLK
  5
2DE
330
29C
100
AcDbEntity
  8
0
100
AcDbBlockEnd
  0
BLOCK
  5
2DF
330
29E
100
AcDbEntity
  8
0
100
AcDbBlockBegin
  2
DT_MATERIAL
 70
     0
 71
     0
 10
0.0
 20
0.0
 30
0.0
  3
DT_MATERIAL
  1

  0
ENDBLK
  5
2E0
330
29E
100
AcDbEntity
  8
0
100
AcDbBlockEnd
  0
BLOCK
  5
2E1
330
2A0
100
AcDbEntity
  8
0
100
AcDbBlockBegin
  2
DT_COLOR
 70
     0
 71
     0
 10
0.0
 20
0.0
 30
0.0
  3
DT_COLOR
  1

  0
ENDBLK
  5
2E2
330
2A0
100
AcDbEntity
  8
0
100
AcDbBlockEnd
  0
BLOCK
  5
2E3
330
2A2
100
AcDbEntity
  8
0
100
AcDbBlockBegin
  2
DT_FLOOR
 70
     0
 71
     0
 10
0.0
 20
0.0
 30
0.0
  3
DT_FLOOR
  1

  0
ENDBLK
  5
2E4
330
2A2
100
AcDbEntity
  8
0
100
AcDbBlockEnd
  0
BLOCK
  5
2E5
330
2A4
100
AcDbEntity
  8
0
100
AcDbBlockBegin
  2
DT_OPTIONS
 70
     0
 71
     0
 10
0.0
 20
0.0
 30
0.0
  3
DT_OPTIONS
  1

  0
ENDBLK
  5
2E6
330
2A4
100
AcDbEntity
  8
0
100
AcDbBlockEnd
  0
BLOCK
  5
2E7
330
2A6
100
AcDbEntity
  8
0
100
AcDbBlockBegin
  2
DT_BACKGROUND
 70
     0
 71
     0
 10
0.0
 20
0.0
 30
0.0
  3
DT_BACKGROUND
  1

  0
ENDBLK
  5
2E8
330
2A6
100
AcDbEntity
  8
0
100
AcDbBlockEnd
  0
ENDSEC
  0
SECTION
  2
ENTITIES
  0
LWPOLYLINE
  5
178
330
1F
100
AcDbEntity
  8
ACESSORIO
  6
ByBlock
100
AcDbPolyline
 90
        5
 70
     0
 43
0.0
 38
-5.0
 10
-8.949999999999989
 20
5.0
 10
-8.949999999999989
 20
-5.0
 10
-9.049999999999997
 20
-5.0
 10
-9.049999999999997
 20
5.0
 10
-8.949999999999989
 20
5.0
  0
3DFACE
  5
1BA
330
1F
100
AcDbEntity
  8
ACESSORIO
  6
ByBlock
100
AcDbFace
 10
-31.5
 20
0.0000000000000044
 30
4.0
 11
13.5
 21
-0.0000000000000009
 31
4.0
 12
13.5
 22
-2.828427
 32
2.828427
 13
-31.5
 23
-2.828427
 33
2.828427
  0
3DFACE
  5
1BB
330
1F
100
AcDbEntity
  8
ACESSORIO
  6
ByBlock
100
AcDbFace
 10
-31.5
 20
-4.0
 30
0.0
 11
-31.5
 21
-2.828427
 31
2.828427
 12
13.5
 22
-2.828427
 32
2.828427
 13
13.5
 23
-4.0
 33
0.0
  0
3DFACE
  5
1BC
330
1F
100
AcDbEntity
  8
ACESSORIO
  6
ByBlock
100
AcDbFace
 10
-31.5
 20
-2.828427
 30
-2.828427
 11
-31.5
 21
-4.0
 31
0.0
 12
13.5
 22
-4.0
 32
0.0
 13
13.5
 23
-2.828427
 33
-2.828427
  0
3DFACE
  5
1BD
330
1F
100
AcDbEntity
  8
ACESSORIO
  6
ByBlock
100
AcDbFace
 10
-34.0
 20
0.0000000000000044
 30
1.5
 11
-31.5
 21
0.0000000000000044
 31
4.0
 12
-31.5
 22
-2.828427
 32
2.828427
 13
-34.0
 23
-1.06066
 33
1.06066
  0
3DFACE
  5
1BE
330
1F
100
AcDbEntity
  8
ACESSORIO
  6
ByBlock
100
AcDbFace
 10
-34.0
 20
-1.5
 30
0.0
 11
-34.0
 21
-1.06066
 31
1.06066
 12
-31.5
 22
-2.828427
 32
2.828427
 13
-31.5
 23
-4.0
 33
0.0
  0
3DFACE
  5
1BF
330
1F
100
AcDbEntity
  8
ACESSORIO
  6
ByBlock
100
AcDbFace
 10
-34.0
 20
-1.06066
 30
-1.06066
 11
-34.0
 21
-1.5
 31
0.0
 12
-31.5
 22
-4.0
 32
0.0
 13
-31.5
 23
-2.828427
 33
-2.828427
  0
3DFACE
  5
1C0
330
1F
100
AcDbEntity
  8
ACESSORIO
  6
ByBlock
100
AcDbFace
 10
-34.0
 20
0.0000000000000053
 30
-1.5
 11
-34.0
 21
-1.06066
 31
-1.06066
 12
-31.5
 22
-2.828427
 32
-2.828427
 13
-31.5
 23
0.0000000000000044
 33
-4.0
  0
3DFACE
  5
1C1
330
1F
100
AcDbEntity
  8
ACESSORIO
  6
ByBlock
100
AcDbFace
 10
-31.5
 20
0.0000000000000044
 30
-4.0
 11
-31.5
 21
-2.828427
 31
-2.828427
 12
13.5
 22
-2.828427
 32
-2.828427
 13
13.5
 23
-0.0000000000000009
 33
-4.0
  0
3DFACE
  5
1C2
330
1F
100
AcDbEntity
  8
ACESSORIO
  6
ByBlock
100
AcDbFace
 10
13.5
 20
-0.0000000000000009
 30
4.0
 11
16.0
 21
-0.0000000000000018
 31
1.5
 12
16.0
 22
-1.06066
 32
1.06066
 13
13.5
 23
-2.828427
 33
2.828427
  0
3DFACE
  5
1C3
330
1F
100
AcDbEntity
  8
ACESSORIO
  6
ByBlock
100
AcDbFace
 10
13.5
 20
-2.828427
 30
2.828427
 11
16.0
 21
-1.06066
 31
1.06066
 12
16.0
 22
-1.5
 32
0.0
 13
13.5
 23
-4.0
 33
0.0
  0
3DFACE
  5
1C4
330
1F
100
AcDbEntity
  8
ACESSORIO
  6
ByBlock
100
AcDbFace
 10
16.0
 20
-1.5
 30
0.0
 11
16.0
 21
-1.06066
 31
-1.06066
 12
13.5
 22
-2.828427
 32
-2.828427
 13
13.5
 23
-4.0
 33
0.0
  0
3DFACE
  5
1C5
330
1F
100
AcDbEntity
  8
ACESSORIO
  6
ByBlock
100
AcDbFace
 10
16.0
 20
-1.06066
 30
-1.06066
 11
16.0
 21
-0.0000000000000009
 31
-1.5
 12
13.5
 22
-0.0000000000000009
 32
-4.0
 13
13.5
 23
-2.828427
 33
-2.828427
  0
3DFACE
  5
1C6
330
1F
100
AcDbEntity
  8
ACESSORIO
  6
ByBlock
100
AcDbFace
 10
16.0
 20
-0.0000000000000009
 30
-1.5
 11
16.0
 21
1.06066
 31
-1.06066
 12
13.5
 22
2.828427
 32
-2.828427
 13
13.5
 23
-0.0000000000000009
 33
-4.0
  0
3DFACE
  5
1C7
330
1F
100
AcDbEntity
  8
ACESSORIO
  6
ByBlock
100
AcDbFace
 10
16.0
 20
1.06066
 30
-1.06066
 11
16.0
 21
1.5
 31
0.0
 12
13.5
 22
4.0
 32
0.0
 13
13.5
 23
2.828427
 33
-2.828427
  0
3DFACE
  5
1C8
330
1F
100
AcDbEntity
  8
ACESSORIO
  6
ByBlock
100
AcDbFace
 10
16.0
 20
1.06066
 30
1.06066
 11
13.5
 21
2.828427
 31
2.828427
 12
13.5
 22
4.0
 32
0.0
 13
16.0
 23
1.5
 33
0.0
  0
3DFACE
  5
1C9
330
1F
100
AcDbEntity
  8
ACESSORIO
  6
ByBlock
100
AcDbFace
 10
16.0
 20
-0.0000000000000018
 30
1.5
 11
13.5
 21
-0.0000000000000009
 31
4.0
 12
13.5
 22
2.828427
 32
2.828427
 13
16.0
 23
1.06066
 33
1.06066
  0
3DFACE
  5
1CA
330
1F
100
AcDbEntity
  8
ACESSORIO
  6
ByBlock
100
AcDbFace
 10
16.0
 20
-1.06066
 30
1.06066
 11
16.0
 21
-0.0000000000000018
 31
1.5
 12
16.0
 22
1.06066
 32
1.06066
 13
16.0
 23
1.5
 33
0.0
  0
3DFACE
  5
1CB
330
1F
100
AcDbEntity
  8
ACESSORIO
  6
ByBlock
100
AcDbFace
 10
16.0
 20
-1.5
 30
0.0
 11
16.0
 21
-1.06066
 31
1.06066
 12
16.0
 22
1.5
 32
0.0
 13
16.0
 23
1.06066
 33
-1.06066
  0
3DFACE
  5
1CC
330
1F
100
AcDbEntity
  8
ACESSORIO
  6
ByBlock
100
AcDbFace
 10
16.0
 20
-1.06066
 30
-1.06066
 11
16.0
 21
-1.5
 31
0.0
 12
16.0
 22
1.06066
 32
-1.06066
 13
16.0
 23
-0.0000000000000009
 33
-1.5
  0
3DFACE
  5
1CD
330
1F
100
AcDbEntity
  8
ACESSORIO
  6
ByBlock
100
AcDbFace
 10
-31.5
 20
0.0000000000000044
 30
4.0
 11
-31.5
 21
2.828427
 31
2.828427
 12
-34.0
 22
1.06066
 32
1.06066
 13
-34.0
 23
0.0000000000000044
 33
1.5
  0
3DFACE
  5
1CE
330
1F
100
AcDbEntity
  8
ACESSORIO
  6
ByBlock
100
AcDbFace
 10
-34.0
 20
1.06066
 30
1.06066
 11
-31.5
 21
2.828427
 31
2.828427
 12
-31.5
 22
4.0
 32
0.0
 13
-34.0
 23
1.5
 33
0.0
  0
3DFACE
  5
1CF
330
1F
100
AcDbEntity
  8
ACESSORIO
  6
ByBlock
100
AcDbFace
 10
-34.0
 20
1.5
 30
0.0
 11
-31.5
 21
4.0
 31
0.0
 12
-31.5
 22
2.828427
 32
-2.828427
 13
-34.0
 23
1.06066
 33
-1.06066
  0
3DFACE
  5
1D0
330
1F
100
AcDbEntity
  8
ACESSORIO
  6
ByBlock
100
AcDbFace
 10
-34.0
 20
0.0000000000000053
 30
-1.5
 11
-34.0
 21
1.06066
 31
-1.06066
 12
-31.5
 22
2.828427
 32
-2.828427
 13
-31.5
 23
0.0000000000000044
 33
-4.0
  0
3DFACE
  5
1D1
330
1F
100
AcDbEntity
  8
ACESSORIO
  6
ByBlock
100
AcDbFace
 10
-34.0
 20
-1.06066
 30
1.06066
 11
-34.0
 21
0.0000000000000044
 31
1.5
 12
-34.0
 22
1.06066
 32
1.06066
 13
-34.0
 23
1.5
 33
0.0
  0
3DFACE
  5
1D2
330
1F
100
AcDbEntity
  8
ACESSORIO
  6
ByBlock
100
AcDbFace
 10
-34.0
 20
-1.5
 30
0.0
 11
-34.0
 21
-1.06066
 31
1.06066
 12
-34.0
 22
1.5
 32
0.0
 13
-34.0
 23
1.06066
 33
-1.06066
  0
3DFACE
  5
1D3
330
1F
100
AcDbEntity
  8
ACESSORIO
  6
ByBlock
100
AcDbFace
 10
-34.0
 20
-1.06066
 30
-1.06066
 11
-34.0
 21
-1.5
 31
0.0
 12
-34.0
 22
1.06066
 32
-1.06066
 13
-34.0
 23
0.0000000000000053
 33
-1.5
  0
INSERT
  5
1EB
330
1F
100
AcDbEntity
  8
DT_RENDER
  6
ByBlock
100
AcDbBlockReference
  2
DT_MATERIAL
 10
0.0
 20
0.0
 30
0.0
1001
DTRENDER2
1000
MATERIAL
1071
   200501
1040
0.25
1040
0.5
1040
0.0
1040
0.8
1040
80.0
1040
0.0
1071
        1
1000
DEFAULT
1071
       16
1000

1040
0.0
1040
0.0
1040
0.0
1040
1.0
1040
1.0
1040
1.0
1040
0.0
1071
 16777215
1040
1.0
1071
 16777215
1040
1.0
1071
 16777215
1040
1.0
1071
 16777215
1040
1.0
1071
 16777215
1040
2.187
1040
0.5
1071
        3
1040
2.5
  0
3DFACE
  5
1EC
330
1F
100
AcDbEntity
  8
ACESSORIO
  6
ByBlock
100
AcDbFace
 10
13.5
 20
4.0
 30
0.0
 11
13.5
 21
2.828427
 31
2.828427
 12
-31.5
 22
2.828427
 32
2.828427
 13
-31.5
 23
4.0
 33
0.0
  0
3DFACE
  5
1ED
330
1F
100
AcDbEntity
  8
ACESSORIO
  6
ByBlock
100
AcDbFace
 10
13.5
 20
2.828427
 30
2.828427
 11
13.5
 21
-0.0000000000000009
 31
4.0
 12
-31.5
 22
0.0000000000000044
 32
4.0
 13
-31.5
 23
2.828427
 33
2.828427
  0
3DFACE
  5
1EE
330
1F
100
AcDbEntity
  8
ACESSORIO
  6
ByBlock
100
AcDbFace
 10
13.5
 20
2.828427
 30
-2.828427
 11
13.5
 21
4.0
 31
0.0
 12
-31.5
 22
4.0
 32
0.0
 13
-31.5
 23
2.828427
 33
-2.828427
  0
3DFACE
  5
1EF
330
1F
100
AcDbEntity
  8
ACESSORIO
  6
ByBlock
100
AcDbFace
 10
13.5
 20
-0.0000000000000009
 30
-4.0
 11
13.5
 21
2.828427
 31
-2.828427
 12
-31.5
 22
2.828427
 32
-2.828427
 13
-31.5
 23
0.0000000000000044
 33
-4.0
  0
3DFACE
  5
1F0
330
1F
100
AcDbEntity
  8
ACESSORIO
  6
ByBlock
100
AcDbFace
 10
-9.049999999999997
 20
5.0
 30
5.0
 11
-9.049999999999997
 21
-5.0
 31
5.0
 12
-9.049999999999997
 22
-5.0
 32
-5.0
 13
-9.049999999999997
 23
5.0
 33
-5.0
  0
3DFACE
  5
1F1
330
1F
100
AcDbEntity
  8
ACESSORIO
  6
ByBlock
100
AcDbFace
 10
-9.049999999999997
 20
5.0
 30
5.0
 11
-8.949999999999989
 21
5.0
 31
5.0
 12
-8.949999999999989
 22
-5.0
 32
5.0
 13
-9.049999999999997
 23
-5.0
 33
5.0
  0
3DFACE
  5
1F2
330
1F
100
AcDbEntity
  8
ACESSORIO
  6
ByBlock
100
AcDbFace
 10
-9.049999999999997
 20
-5.0
 30
5.0
 11
-8.949999999999989
 21
-5.0
 31
5.0
 12
-8.949999999999989
 22
-5.0
 32
-5.0
 13
-9.049999999999997
 23
-5.0
 33
-5.0
  0
3DFACE
  5
1F3
330
1F
100
AcDbEntity
  8
ACESSORIO
  6
ByBlock
100
AcDbFace
 10
-9.049999999999997
 20
-5.0
 30
-5.0
 11
-8.949999999999989
 21
-5.0
 31
-5.0
 12
-8.949999999999989
 22
5.0
 32
-5.0
 13
-9.049999999999997
 23
5.0
 33
-5.0
  0
3DFACE
  5
1F4
330
1F
100
AcDbEntity
  8
ACESSORIO
  6
ByBlock
100
AcDbFace
 10
-9.049999999999997
 20
5.0
 30
5.0
 11
-9.049999999999997
 21
5.0
 31
-5.0
 12
-8.949999999999989
 22
5.0
 32
-5.0
 13
-8.949999999999989
 23
5.0
 33
5.0
  0
3DFACE
  5
1F5
330
1F
100
AcDbEntity
  8
ACESSORIO
  6
ByBlock
100
AcDbFace
 10
-8.949999999999989
 20
-5.0
 30
5.0
 11
-8.949999999999989
 21
5.0
 31
5.0
 12
-8.949999999999989
 22
5.0
 32
-5.0
 13
-8.949999999999989
 23
-5.0
 33
-5.0
  0
3DFACE
  5
24D
330
1F
100
AcDbEntity
  8
ACESSORIO
  6
ByBlock
100
AcDbFace
 10
-34.0
 20
1.06066
 30
1.06066
 11
-31.5
 21
2.828427
 31
2.828427
 12
-31.5
 22
0.0000000000000044
 32
4.0
 13
-34.0
 23
0.0000000000000044
 33
1.5
  0
3DFACE
  5
24E
330
1F
100
AcDbEntity
  8
ACESSORIO
  6
ByBlock
100
AcDbFace
 10
-34.0
 20
1.5
 30
0.0
 11
-31.5
 21
4.0
 31
0.0
 12
-31.5
 22
2.828427
 32
2.828427
 13
-34.0
 23
1.06066
 33
1.06066
  0
3DFACE
  5
250
330
1F
100
AcDbEntity
  8
ACESSORIO
  6
ByBlock
100
AcDbFace
 10
-34.0
 20
1.06066
 30
-1.06066
 11
-31.5
 21
2.828427
 31
-2.828427
 12
-31.5
 22
4.0
 32
0.0
 13
-34.0
 23
1.5
 33
0.0
  0
3DFACE
  5
251
330
1F
100
AcDbEntity
  8
ACESSORIO
  6
ByBlock
100
AcDbFace
 10
-34.0
 20
1.06066
 30
-1.06066
 11
-34.0
 21
-1.5
 31
0.0
 12
-34.0
 22
-1.06066
 32
-1.06066
 13
-34.0
 23
0.0000000000000053
 33
-1.5
  0
3DFACE
  5
252
330
1F
100
AcDbEntity
  8
ACESSORIO
  6
ByBlock
100
AcDbFace
 10
-34.0
 20
1.06066
 30
-1.06066
 11
-34.0
 21
1.5
 31
0.0
 12
-34.0
 22
-1.06066
 32
1.06066
 13
-34.0
 23
-1.5
 33
0.0
  0
3DFACE
  5
253
330
1F
100
AcDbEntity
  8
ACESSORIO
  6
ByBlock
100
AcDbFace
 10
-34.0
 20
1.5
 30
0.0
 11
-34.0
 21
1.06066
 31
1.06066
 12
-34.0
 22
0.0000000000000044
 32
1.5
 13
-34.0
 23
-1.06066
 33
1.06066
  0
3DFACE
  5
254
330
1F
100
AcDbEntity
  8
ACESSORIO
  6
ByBlock
100
AcDbFace
 10
-31.5
 20
2.828427
 30
-2.828427
 11
-31.5
 21
4.0
 31
0.0
 12
-34.0
 22
1.5
 32
0.0
 13
-34.0
 23
1.06066
 33
-1.06066
  0
3DFACE
  5
255
330
1F
100
AcDbEntity
  8
ACESSORIO
  6
ByBlock
100
AcDbFace
 10
-31.5
 20
2.828427
 30
-2.828427
 11
-34.0
 21
1.06066
 31
-1.06066
 12
-34.0
 22
0.0000000000000053
 32
-1.5
 13
-31.5
 23
0.0000000000000044
 33
-4.0
  0
LWPOLYLINE
  5
2D6
330
1F
100
AcDbEntity
  8
CONTORNO
  6
ByBlock
100
AcDbPolyline
 90
        5
 70
     0
 43
0.0
 38
-5.0
 10
-9.049999999999997
 20
-5.0
 10
-8.949999999999989
 20
-5.0
 10
-8.949999999999989
 20
5.0
 10
-9.049999999999997
 20
5.0
 10
-9.049999999999997
 20
-5.0
  0
ENDSEC
  0
SECTION
  2
OBJECTS
  0
DICTIONARY
  5
C
330
0
100
AcDbDictionary
281
     1
  3
ACAD_COLOR
350
6C
  3
ACAD_GROUP
350
D
  3
ACAD_LAYOUT
350
1A
  3
ACAD_MATERIAL
350
6B
  3
ACAD_MLINESTYLE
350
17
  3
ACAD_PLOTSETTINGS
350
19
  3
ACAD_PLOTSTYLENAME
350
E
  3
ACAD_TABLESTYLE
350
92
  3
AcDbVariableDictionary
350
59
  0
DICTIONARY
  5
6C
102
{ACAD_REACTORS
330
C
102
}
330
C
100
AcDbDictionary
281
     1
  0
DICTIONARY
  5
D
102
{ACAD_REACTORS
330
C
102
}
330
C
100
AcDbDictionary
281
     1
  0
DICTIONARY
  5
1A
102
{ACAD_REACTORS
330
C
102
}
330
C
100
AcDbDictionary
281
     1
  3
Layout1
350
74
  3
Model
350
22
  0
DICTIONARY
  5
6B
102
{ACAD_REACTORS
330
C
102
}
330
C
100
AcDbDictionary
281
     1
  0
DICTIONARY
  5
17
102
{ACAD_REACTORS
330
C
102
}
330
C
100
AcDbDictionary
281
     1
  3
Standard
350
18
  0
DICTIONARY
  5
19
102
{ACAD_REACTORS
330
C
102
}
330
C
100
AcDbDictionary
281
     1
  0
ACDBDICTIONARYWDFLT
  5
E
102
{ACAD_REACTORS
330
C
102
}
330
C
100
AcDbDictionary
281
     1
  3
Normal
350
F
100
AcDbDictionaryWithDefault
340
F
  0
DICTIONARY
  5
92
102
{ACAD_REACTORS
330
C
102
}
330
C
100
AcDbDictionary
281
     1
  3
STANDARD
350
2DB
  0
DICTIONARY
  5
59
102
{ACAD_REACTORS
330
C
102
}
330
C
100
AcDbDictionary
281
     1
  3
CTABLESTYLE
350
2DC
  3
DIMASSOC
350
2A8
  3
HALOGAP
350
2A9
  3
HIDETEXT
350
2AC
  3
INDEXCTL
350
2AA
  3
XCLIPFRAME
350
2AB
  0
LAYOUT
  5
74
102
{ACAD_REACTORS
330
1A
102
}
330
1A
100
AcDbPlotSettings
  1

  2
none_device
  4
Letter_(8.50_x_11.00_Inches)
  6

 40
6.35
 41
6.35
 42
6.35000508
 43
6.35000508
 44
215.9
 45
279.4
 46
0.0
 47
0.0
 48
0.0
 49
0.0
140
0.0
141
0.0
142
1.0
143
1.0
 70
   688
 72
     0
 73
     0
 74
     5
  7

 75
    16
 76
     0
 77
     2
 78
   300
147
1.0
148
0.0
149
0.0
100
AcDbLayout
  1
Layout1
 70
     1
 71
     1
 10
0.0
 20
0.0
 11
12.0
 21
9.0
 12
0.0
 22
0.0
 32
0.0
 14
1.000000000000000E+20
 24
1.000000000000000E+20
 34
1.000000000000000E+20
 15
-1.000000000000000E+20
 25
-1.000000000000000E+20
 35
-1.000000000000000E+20
146
0.0
 13
0.0
 23
0.0
 33
0.0
 16
1.0
 26
0.0
 36
0.0
 17
0.0
 27
1.0
 37
0.0
 76
     0
330
73
  0
LAYOUT
  5
22
102
{ACAD_REACTORS
330
1A
102
}
330
1A
100
AcDbPlotSettings
  1

  2
none_device
  4
Letter_(8.50_x_11.00_Inches)
  6

 40
6.35
 41
6.35
 42
6.35000508
 43
6.35000508
 44
215.9
 45
279.4
 46
0.0
 47
0.0
 48
0.0
 49
0.0
140
0.0
141
0.0
142
1.0
143
1.366813138171363
 70
 11952
 72
     0
 73
     0
 74
     0
  7

 75
     0
 76
     0
 77
     2
 78
   300
147
0.7316289052780715
148
0.0
149
0.0
100
AcDbLayout
  1
Model
 70
     1
 71
     0
 10
0.0
 20
0.0
 11
12.0
 21
9.0
 12
0.0
 22
0.0
 32
0.0
 14
-34.0
 24
-5.0
 34
-5.0
 15
16.0
 25
5.0
 35
5.0
146
0.0
 13
0.0
 23
0.0
 33
0.0
 16
1.0
 26
0.0
 36
0.0
 17
0.0
 27
1.0
 37
0.0
 76
     0
330
1F
331
97
  0
MLINESTYLE
  5
18
102
{ACAD_REACTORS
330
17
102
}
330
17
100
AcDbMlineStyle
  2
Standard
 70
     0
  3

 62
   256
 51
90.0
 52
90.0
 71
     2
 49
0.5
 62
   256
  6
BYLAYER
 49
-0.5
 62
   256
  6
BYLAYER
  0
ACDBPLACEHOLDER
  5
F
102
{ACAD_REACTORS
330
E
102
}
330
E
  0
TABLESTYLE
  5
2DB
102
{ACAD_REACTORS
330
92
102
}
330
92
100
AcDbTableStyle
  3
Standard
 70
     0
 71
     0
 40
0.06
 41
0.06
280
     0
281
     0
  7
Standard
140
0.18
170
     2
 62
     0
 63
     7
283
     0
 90
      512
 91
        0
  1

274
    -2
284
     1
 64
     0
275
    -2
285
     1
 65
     0
276
    -2
286
     1
 66
     0
277
    -2
287
     1
 67
     0
278
    -2
288
     1
 68
     0
279
    -2
289
     1
 69
     0
  7
Standard
140
0.25
170
     5
 62
     0
 63
     7
283
     0
 90
      512
 91
        0
  1

274
    -2
284
     1
 64
     0
275
    -2
285
     1
 65
     0
276
    -2
286
     1
 66
     0
277
    -2
287
     1
 67
     0
278
    -2
288
     1
 68
     0
279
    -2
289
     1
 69
     0
  7
Standard
140
0.18
170
     5
 62
     0
 63
     7
283
     0
 90
      512
 91
        0
  1

274
    -2
284
     1
 64
     0
275
    -2
285
     1
 65
     0
276
    -2
286
     1
 66
     0
277
    -2
287
     1
 67
     0
278
    -2
288
     1
 68
     0
279
    -2
289
     1
 69
     0
  0
DICTIONARYVAR
  5
2DC
102
{ACAD_REACTORS
330
59
102
}
330
59
100
DictionaryVariables
280
     0
  1

  0
DICTIONARYVAR
  5
2A8
102
{ACAD_REACTORS
330
59
102
}
330
59
100
DictionaryVariables
280
     0
  1
2
  0
DICTIONARYVAR
  5
2A9
102
{ACAD_REACTORS
330
59
102
}
330
59
100
DictionaryVariables
280
     0
  1
0
  0
DICTIONARYVAR
  5
2AC
102
{ACAD_REACTORS
330
59
102
}
330
59
100
DictionaryVariables
280
     0
  1
1
  0
DICTIONARYVAR
  5
2AA
102
{ACAD_REACTORS
330
59
102
}
330
59
100
DictionaryVariables
280
     0
  1
0
  0
DICTIONARYVAR
  5
2AB
102
{ACAD_REACTORS
330
59
102
}
330
59
100
DictionaryVariables
280
     0
  1
0
  0
ENDSEC
  0
EOF
