  0
SECTION
  2
HEADER
  9
$ACADVER
  1
AC1021
  9
$ACADMAINTVER
 70
    39
  9
$DWGCODEPAGE
  3
ANSI_1252
  9
$LASTSAVEDBY
  1
fottrem
  9
$INSBASE
 10
0.0
 20
0.0
 30
0.0
  9
$EXTMIN
 10
-26.00000000000002
 20
-51.00000385847749
 30
-28.49998846413864
  9
$EXTMAX
 10
11.99999999999998
 20
28.282769373169
 30
28.50001258160198
  9
$LIMMIN
 10
0.0
 20
0.0
  9
$LIMMAX
 10
420.0
 20
297.0
  9
$ORTHOMODE
 70
     1
  9
$REGENMODE
 70
     1
  9
$FILLMODE
 70
     1
  9
$QTEXTMODE
 70
     0
  9
$MIRRTEXT
 70
     0
  9
$LTSCALE
 40
1.0
  9
$ATTMODE
 70
     1
  9
$TEXTSIZE
 40
2.5
  9
$TRACEWID
 40
1.0
  9
$TEXTSTYLE
  7
Standard
  9
$CLAYER
  8
ACESSORIOS
  9
$CELTYPE
  6
ByLayer
  9
$CECOLOR
 62
   256
  9
$CELTSCALE
 40
1.0
  9
$DISPSILH
 70
     0
  9
$DIMSCALE
 40
1.0
  9
$DIMASZ
 40
2.5
  9
$DIMEXO
 40
0.625
  9
$DIMDLI
 40
3.75
  9
$DIMRND
 40
0.0
  9
$DIMDLE
 40
0.0
  9
$DIMEXE
 40
1.25
  9
$DIMTP
 40
0.0
  9
$DIMTM
 40
0.0
  9
$DIMTXT
 40
2.5
  9
$DIMCEN
 40
2.5
  9
$DIMTSZ
 40
0.0
  9
$DIMTOL
 70
     0
  9
$DIMLIM
 70
     0
  9
$DIMTIH
 70
     0
  9
$DIMTOH
 70
     0
  9
$DIMSE1
 70
     0
  9
$DIMSE2
 70
     0
  9
$DIMTAD
 70
     1
  9
$DIMZIN
 70
     8
  9
$DIMBLK
  1

  9
$DIMASO
 70
     1
  9
$DIMSHO
 70
     1
  9
$DIMPOST
  1

  9
$DIMAPOST
  1

  9
$DIMALT
 70
     0
  9
$DIMALTD
 70
     3
  9
$DIMALTF
 40
0.03937007874016
  9
$DIMLFAC
 40
1.0
  9
$DIMTOFL
 70
     1
  9
$DIMTVP
 40
0.0
  9
$DIMTIX
 70
     0
  9
$DIMSOXD
 70
     0
  9
$DIMSAH
 70
     0
  9
$DIMBLK1
  1

  9
$DIMBLK2
  1

  9
$DIMSTYLE
  2
ISO-25
  9
$DIMCLRD
 70
     0
  9
$DIMCLRE
 70
     0
  9
$DIMCLRT
 70
     0
  9
$DIMTFAC
 40
1.0
  9
$DIMGAP
 40
0.625
  9
$DIMJUST
 70
     0
  9
$DIMSD1
 70
     0
  9
$DIMSD2
 70
     0
  9
$DIMTOLJ
 70
     0
  9
$DIMTZIN
 70
     8
  9
$DIMALTZ
 70
     0
  9
$DIMALTTZ
 70
     0
  9
$DIMUPT
 70
     0
  9
$DIMDEC
 70
     2
  9
$DIMTDEC
 70
     2
  9
$DIMALTU
 70
     2
  9
$DIMALTTD
 70
     3
  9
$DIMTXSTY
  7
Standard
  9
$DIMAUNIT
 70
     0
  9
$DIMADEC
 70
     0
  9
$DIMALTRND
 40
0.0
  9
$DIMAZIN
 70
     0
  9
$DIMDSEP
 70
    44
  9
$DIMATFIT
 70
     3
  9
$DIMFRAC
 70
     0
  9
$DIMLDRBLK
  1

  9
$DIMLUNIT
 70
     2
  9
$DIMLWD
 70
    -2
  9
$DIMLWE
 70
    -2
  9
$DIMTMOVE
 70
     0
  9
$DIMFXL
 40
1.0
  9
$DIMFXLON
 70
     0
  9
$DIMJOGANG
 40
0.7853981633974483
  9
$DIMTFILL
 70
     0
  9
$DIMTFILLCLR
 70
     0
  9
$DIMARCSYM
 70
     0
  9
$DIMLTYPE
  6

  9
$DIMLTEX1
  6

  9
$DIMLTEX2
  6

  9
$LUNITS
 70
     2
  9
$LUPREC
 70
     4
  9
$SKETCHINC
 40
1.0
  9
$FILLETRAD
 40
0.0
  9
$AUNITS
 70
     0
  9
$AUPREC
 70
     0
  9
$MENU
  1
.
  9
$ELEVATION
 40
0.0
  9
$PELEVATION
 40
0.0
  9
$THICKNESS
 40
0.0
  9
$LIMCHECK
 70
     0
  9
$CHAMFERA
 40
0.0
  9
$CHAMFERB
 40
0.0
  9
$CHAMFERC
 40
0.0
  9
$CHAMFERD
 40
0.0
  9
$SKPOLY
 70
     0
  9
$TDCREATE
 40
2453368.649741586
  9
$TDUCREATE
 40
2453368.733074919
  9
$TDUPDATE
 40
2453368.649741609
  9
$TDUUPDATE
 40
2453368.733074942
  9
$TDINDWG
 40
0.0101414005
  9
$TDUSRTIMER
 40
0.0101414005
  9
$USRTIMER
 70
     1
  9
$ANGBASE
 50
0.0
  9
$ANGDIR
 70
     0
  9
$PDMODE
 70
     0
  9
$PDSIZE
 40
0.0
  9
$PLINEWID
 40
0.0
  9
$SPLFRAME
 70
     0
  9
$SPLINETYPE
 70
     6
  9
$SPLINESEGS
 70
     8
  9
$HANDSEED
  5
45B
  9
$SURFTAB1
 70
     6
  9
$SURFTAB2
 70
     6
  9
$SURFTYPE
 70
     6
  9
$SURFU
 70
     6
  9
$SURFV
 70
     6
  9
$UCSBASE
  2

  9
$UCSNAME
  2

  9
$UCSORG
 10
0.0
 20
0.0
 30
0.0
  9
$UCSXDIR
 10
1.0
 20
0.0
 30
0.0
  9
$UCSYDIR
 10
0.0
 20
1.0
 30
0.0
  9
$UCSORTHOREF
  2

  9
$UCSORTHOVIEW
 70
     0
  9
$UCSORGTOP
 10
0.0
 20
0.0
 30
0.0
  9
$UCSORGBOTTOM
 10
0.0
 20
0.0
 30
0.0
  9
$UCSORGLEFT
 10
0.0
 20
0.0
 30
0.0
  9
$UCSORGRIGHT
 10
0.0
 20
0.0
 30
0.0
  9
$UCSORGFRONT
 10
0.0
 20
0.0
 30
0.0
  9
$UCSORGBACK
 10
0.0
 20
0.0
 30
0.0
  9
$PUCSBASE
  2

  9
$PUCSNAME
  2

  9
$PUCSORG
 10
0.0
 20
0.0
 30
0.0
  9
$PUCSXDIR
 10
1.0
 20
0.0
 30
0.0
  9
$PUCSYDIR
 10
0.0
 20
1.0
 30
0.0
  9
$PUCSORTHOREF
  2

  9
$PUCSORTHOVIEW
 70
     0
  9
$PUCSORGTOP
 10
0.0
 20
0.0
 30
0.0
  9
$PUCSORGBOTTOM
 10
0.0
 20
0.0
 30
0.0
  9
$PUCSORGLEFT
 10
0.0
 20
0.0
 30
0.0
  9
$PUCSORGRIGHT
 10
0.0
 20
0.0
 30
0.0
  9
$PUCSORGFRONT
 10
0.0
 20
0.0
 30
0.0
  9
$PUCSORGBACK
 10
0.0
 20
0.0
 30
0.0
  9
$USERI1
 70
     0
  9
$USERI2
 70
     0
  9
$USERI3
 70
     0
  9
$USERI4
 70
     0
  9
$USERI5
 70
     0
  9
$USERR1
 40
0.0
  9
$USERR2
 40
0.0
  9
$USERR3
 40
0.0
  9
$USERR4
 40
0.0
  9
$USERR5
 40
0.0
  9
$WORLDVIEW
 70
     1
  9
$SHADEDGE
 70
     3
  9
$SHADEDIF
 70
    70
  9
$TILEMODE
 70
     1
  9
$MAXACTVP
 70
    64
  9
$PINSBASE
 10
0.0
 20
0.0
 30
0.0
  9
$PLIMCHECK
 70
     0
  9
$PEXTMIN
 10
1.000000000000000E+20
 20
1.000000000000000E+20
 30
1.000000000000000E+20
  9
$PEXTMAX
 10
-1.000000000000000E+20
 20
-1.000000000000000E+20
 30
-1.000000000000000E+20
  9
$PLIMMIN
 10
0.0
 20
0.0
  9
$PLIMMAX
 10
420.0
 20
297.0
  9
$UNITMODE
 70
     0
  9
$VISRETAIN
 70
     1
  9
$PLINEGEN
 70
     0
  9
$PSLTSCALE
 70
     1
  9
$TREEDEPTH
 70
  3020
  9
$CMLSTYLE
  2
Standard
  9
$CMLJUST
 70
     0
  9
$CMLSCALE
 40
20.0
  9
$PROXYGRAPHICS
 70
     1
  9
$MEASUREMENT
 70
     1
  9
$CELWEIGHT
370
    -1
  9
$ENDCAPS
280
     0
  9
$JOINSTYLE
280
     0
  9
$LWDISPLAY
290
     0
  9
$INSUNITS
 70
     4
  9
$HYPERLINKBASE
  1

  9
$STYLESHEET
  1

  9
$XEDIT
290
     1
  9
$CEPSNTYPE
380
     0
  9
$PSTYLEMODE
290
     1
  9
$FINGERPRINTGUID
  2
{8F96DFD2-E2A7-4564-B487-72B18259D7D6}
  9
$VERSIONGUID
  2
{A9504609-5482-4732-8047-FB78D8005A89}
  9
$EXTNAMES
290
     1
  9
$PSVPSCALE
 40
0.0
  9
$OLESTARTUP
290
     0
  9
$SORTENTS
280
   127
  9
$INDEXCTL
280
     0
  9
$HIDETEXT
280
     1
  9
$XCLIPFRAME
290
     0
  9
$HALOGAP
280
     0
  9
$OBSCOLOR
 70
   257
  9
$OBSLTYPE
280
     0
  9
$INTERSECTIONDISPLAY
280
     0
  9
$INTERSECTIONCOLOR
 70
   257
  9
$DIMASSOC
280
     2
  9
$PROJECTNAME
  1

  9
$CAMERADISPLAY
290
     0
  9
$LENSLENGTH
 40
50.0
  9
$CAMERAHEIGHT
 40
0.0
  9
$STEPSPERSEC
 40
2.0
  9
$STEPSIZE
 40
6.0
  9
$3DDWFPREC
 40
2.0
  9
$PSOLWIDTH
 40
0.25
  9
$PSOLHEIGHT
 40
4.0
  9
$LOFTANG1
 40
1.570796326794897
  9
$LOFTANG2
 40
1.570796326794897
  9
$LOFTMAG1
 40
1.0
  9
$LOFTMAG2
 40
1.0
  9
$LOFTPARAM
 70
     7
  9
$LOFTNORMALS
280
     1
  9
$LATITUDE
 40
37.795
  9
$LONGITUDE
 40
-122.394
  9
$NORTHDIRECTION
 40
0.0
  9
$TIMEZONE
 70
 -8000
  9
$LIGHTGLYPHDISPLAY
280
     1
  9
$TILEMODELIGHTSYNCH
280
     1
  9
$SOLIDHIST
280
     1
  9
$SHOWHIST
280
     1
  9
$DWFFRAME
280
     0
  9
$DGNFRAME
280
     2
  9
$REALWORLDSCALE
290
     1
  9
$INTERFERECOLOR
 62
   256
  9
$CSHADOW
280
     0
  9
$SHADOWPLANELOCATION
 40
0.0
  0
ENDSEC
  0
SECTION
  2
CLASSES
  0
CLASS
  1
ACDBDICTIONARYWDFLT
  2
AcDbDictionaryWithDefault
  3
ObjectDBX Classes
 90
        0
 91
        3
280
     0
281
     0
  0
CLASS
  1
ACDBPLACEHOLDER
  2
AcDbPlaceHolder
  3
ObjectDBX Classes
 90
        0
 91
        1
280
     0
281
     0
  0
CLASS
  1
LAYOUT
  2
AcDbLayout
  3
ObjectDBX Classes
 90
        0
 91
        1
280
     0
281
     0
  0
CLASS
  1
DICTIONARYVAR
  2
AcDbDictionaryVar
  3
ObjectDBX Classes
 90
        0
 91
        3
280
     0
281
     0
  0
CLASS
  1
TABLESTYLE
  2
AcDbTableStyle
  3
ObjectDBX Classes
 90
     4095
 91
        3
280
     0
281
     0
  0
ENDSEC
  0
SECTION
  2
TABLES
  0
TABLE
  2
VPORT
  5
8
330
0
100
AcDbSymbolTable
 70
     2
  0
VPORT
  5
97
330
8
100
AcDbSymbolTableRecord
100
AcDbViewportTableRecord
  2
*Active
 70
     0
 10
0.0
 20
0.0
 11
1.0
 21
1.0
 12
24.33723739782228
 22
10.38689001130873
 13
0.0
 23
0.0
 14
10.0
 24
10.0
 15
10.0
 25
10.0
 16
1.089848237423379
 26
0.8777962596208735
 36
1.020639282989217
 17
0.0
 27
0.0
 37
0.0
 40
124.3641817698941
 41
1.752199413489736
 42
50.0
 43
0.0
 44
0.0
 50
0.0
 51
349.3708088568522
 71
     0
 72
    16
 73
     0
 74
     3
 75
     0
 76
     0
 77
     0
 78
     0
281
     0
 65
     1
110
0.0
120
0.0
130
0.0
111
1.0
121
0.0
131
0.0
112
0.0
122
1.0
132
0.0
 79
     0
146
0.0
 60
     0
 61
     5
292
     1
282
     1
141
0.0
142
0.0
 63
   256
  0
ENDTAB
  0
TABLE
  2
LTYPE
  5
5
330
0
100
AcDbSymbolTable
 70
     1
  0
LTYPE
  5
14
330
5
100
AcDbSymbolTableRecord
100
AcDbLinetypeTableRecord
  2
ByBlock
 70
     0
  3

 72
    65
 73
     0
 40
0.0
  0
LTYPE
  5
15
330
5
100
AcDbSymbolTableRecord
100
AcDbLinetypeTableRecord
  2
ByLayer
 70
     0
  3

 72
    65
 73
     0
 40
0.0
  0
LTYPE
  5
16
330
5
100
AcDbSymbolTableRecord
100
AcDbLinetypeTableRecord
  2
Continuous
 70
     0
  3
Solid line
 72
    65
 73
     0
 40
0.0
  0
ENDTAB
  0
TABLE
  2
LAYER
  5
2
330
0
100
AcDbSymbolTable
 70
     4
  0
LAYER
  5
10
330
2
100
AcDbSymbolTableRecord
100
AcDbLayerTableRecord
  2
0
 70
     0
 62
     7
  6
Continuous
370
    -3
390
F
347
0
  0
LAYER
  5
42
330
2
100
AcDbSymbolTableRecord
100
AcDbLayerTableRecord
  2
ACESSORIOS
 70
     0
 62
     1
  6
Continuous
370
    -3
390
F
347
0
  0
LAYER
  5
43
330
2
100
AcDbSymbolTableRecord
100
AcDbLayerTableRecord
  2
AUX
 70
     0
 62
     3
  6
Continuous
370
    -3
390
F
347
0
  0
LAYER
  5
3F3
330
2
100
AcDbSymbolTableRecord
100
AcDbLayerTableRecord
  2
DT_RENDER
 70
     0
 62
     7
  6
Continuous
370
    -3
390
F
347
0
  0
ENDTAB
  0
TABLE
  2
STYLE
  5
3
330
0
100
AcDbSymbolTable
 70
     1
  0
STYLE
  5
11
330
3
100
AcDbSymbolTableRecord
100
AcDbTextStyleTableRecord
  2
Standard
 70
     0
 40
0.0
 41
1.0
 50
0.0
 71
     0
 42
2.5
  3
txt
  4

  0
ENDTAB
  0
TABLE
  2
VIEW
  5
6
330
0
100
AcDbSymbolTable
 70
     1
  0
VIEW
  5
30
330
6
100
AcDbSymbolTableRecord
100
AcDbViewTableRecord
  2
Test
 70
     0
 40
297.0
 10
260.2016129032258
 20
148.5
 41
520.4032258064516
 11
0.0
 21
0.0
 31
1.0
 12
0.0
 22
0.0
 32
0.0
 42
50.0
 43
0.0
 44
0.0
 50
0.0
 71
     0
281
     0
 72
     0
 73
     0
  0
ENDTAB
  0
TABLE
  2
UCS
  5
7
330
0
100
AcDbSymbolTable
 70
     0
  0
ENDTAB
  0
TABLE
  2
APPID
  5
9
330
0
100
AcDbSymbolTable
 70
     4
  0
APPID
  5
12
330
9
100
AcDbSymbolTableRecord
100
AcDbRegAppTableRecord
  2
ACAD
 70
     0
  0
APPID
  5
430
330
9
100
AcDbSymbolTableRecord
100
AcDbRegAppTableRecord
  2
dtrender2
 70
     0
  0
APPID
  5
431
330
9
100
AcDbSymbolTableRecord
100
AcDbRegAppTableRecord
  2
dt_mat_assign
 70
     0
  0
APPID
  5
432
330
9
100
AcDbSymbolTableRecord
100
AcDbRegAppTableRecord
  2
dt_mat_mapping
 70
     0
  0
ENDTAB
  0
TABLE
  2
DIMSTYLE
  5
A
330
0
100
AcDbSymbolTable
 70
     2
100
AcDbDimStyleTable
  0
DIMSTYLE
105
27
330
A
100
AcDbSymbolTableRecord
100
AcDbDimStyleTableRecord
  2
Standard
 70
     0
278
     0
340
11
  0
DIMSTYLE
105
2B
330
A
100
AcDbSymbolTableRecord
100
AcDbDimStyleTableRecord
  2
ISO-25
 70
     0
 41
2.5
 42
0.625
 43
3.75
 44
1.25
 73
     0
 74
     0
 77
     1
 78
     8
140
2.5
141
2.5
143
0.03937007874016
147
0.625
171
     3
172
     1
271
     2
272
     2
274
     3
278
    44
283
     0
284
     8
340
11
  0
ENDTAB
  0
TABLE
  2
BLOCK_RECORD
  5
1
330
0
100
AcDbSymbolTable
 70
     7
  0
BLOCK_RECORD
  5
1F
330
1
100
AcDbSymbolTableRecord
100
AcDbBlockTableRecord
  2
*Model_Space
340
22
 70
     0
280
     1
281
     0
  0
BLOCK_RECORD
  5
73
330
1
100
AcDbSymbolTableRecord
100
AcDbBlockTableRecord
  2
*Paper_Space
340
74
 70
     0
280
     1
281
     0
  0
BLOCK_RECORD
  5
433
330
1
100
AcDbSymbolTableRecord
100
AcDbBlockTableRecord
  2
*Paper_Space0
340
2A
 70
     0
280
     1
281
     0
  0
BLOCK_RECORD
  5
3F5
330
1
100
AcDbSymbolTableRecord
100
AcDbBlockTableRecord
  2
DT_LIGHT
340
0
 70
     0
280
     1
281
     0
  0
BLOCK_RECORD
  5
3F8
330
1
100
AcDbSymbolTableRecord
100
AcDbBlockTableRecord
  2
DT_MATERIAL
340
0
102
{BLKREFS
331
409
102
}
 70
     0
280
     1
281
     0
  0
BLOCK_RECORD
  5
3FB
330
1
100
AcDbSymbolTableRecord
100
AcDbBlockTableRecord
  2
DT_COLOR
340
0
 70
     0
280
     1
281
     0
  0
BLOCK_RECORD
  5
3FE
330
1
100
AcDbSymbolTableRecord
100
AcDbBlockTableRecord
  2
DT_FLOOR
340
0
 70
     0
280
     1
281
     0
  0
BLOCK_RECORD
  5
401
330
1
100
AcDbSymbolTableRecord
100
AcDbBlockTableRecord
  2
DT_OPTIONS
340
0
 70
     0
280
     1
281
     0
  0
BLOCK_RECORD
  5
404
330
1
100
AcDbSymbolTableRecord
100
AcDbBlockTableRecord
  2
DT_BACKGROUND
340
0
 70
     0
280
     1
281
     0
  0
ENDTAB
  0
ENDSEC
  0
SECTION
  2
BLOCKS
  0
BLOCK
  5
20
330
1F
100
AcDbEntity
  8
0
100
AcDbBlockBegin
  2
*Model_Space
 70
     0
 71
     0
 10
0.0
 20
0.0
 30
0.0
  3
*Model_Space
  1

  0
ENDBLK
  5
21
330
1F
100
AcDbEntity
  8
0
100
AcDbBlockEnd
  0
BLOCK
  5
75
330
73
100
AcDbEntity
 67
     1
  8
0
100
AcDbBlockBegin
  2
*Paper_Space
 70
     0
 71
     0
 10
0.0
 20
0.0
 30
0.0
  3
*Paper_Space
  1

  0
ENDBLK
  5
76
330
73
100
AcDbEntity
 67
     1
  8
0
100
AcDbBlockEnd
  0
BLOCK
  5
434
330
433
100
AcDbEntity
  8
0
100
AcDbBlockBegin
  2
*Paper_Space0
 70
     0
 71
     0
 10
0.0
 20
0.0
 30
0.0
  3
*Paper_Space0
  1

  0
ENDBLK
  5
435
330
433
100
AcDbEntity
  8
0
100
AcDbBlockEnd
  0
BLOCK
  5
436
330
3F5
100
AcDbEntity
  8
0
100
AcDbBlockBegin
  2
DT_LIGHT
 70
     0
 71
     0
 10
0.0
 20
0.0
 30
0.0
  3
DT_LIGHT
  1

  0
ENDBLK
  5
437
330
3F5
100
AcDbEntity
  8
0
100
AcDbBlockEnd
  0
BLOCK
  5
438
330
3F8
100
AcDbEntity
  8
0
100
AcDbBlockBegin
  2
DT_MATERIAL
 70
     0
 71
     0
 10
0.0
 20
0.0
 30
0.0
  3
DT_MATERIAL
  1

  0
ENDBLK
  5
439
330
3F8
100
AcDbEntity
  8
0
100
AcDbBlockEnd
  0
BLOCK
  5
43A
330
3FB
100
AcDbEntity
  8
0
100
AcDbBlockBegin
  2
DT_COLOR
 70
     0
 71
     0
 10
0.0
 20
0.0
 30
0.0
  3
DT_COLOR
  1

  0
ENDBLK
  5
43B
330
3FB
100
AcDbEntity
  8
0
100
AcDbBlockEnd
  0
BLOCK
  5
43C
330
3FE
100
AcDbEntity
  8
0
100
AcDbBlockBegin
  2
DT_FLOOR
 70
     0
 71
     0
 10
0.0
 20
0.0
 30
0.0
  3
DT_FLOOR
  1

  0
ENDBLK
  5
43D
330
3FE
100
AcDbEntity
  8
0
100
AcDbBlockEnd
  0
BLOCK
  5
43E
330
401
100
AcDbEntity
  8
0
100
AcDbBlockBegin
  2
DT_OPTIONS
 70
     0
 71
     0
 10
0.0
 20
0.0
 30
0.0
  3
DT_OPTIONS
  1

  0
ENDBLK
  5
43F
330
401
100
AcDbEntity
  8
0
100
AcDbBlockEnd
  0
BLOCK
  5
440
330
404
100
AcDbEntity
  8
0
100
AcDbBlockBegin
  2
DT_BACKGROUND
 70
     0
 71
     0
 10
0.0
 20
0.0
 30
0.0
  3
DT_BACKGROUND
  1

  0
ENDBLK
  5
441
330
404
100
AcDbEntity
  8
0
100
AcDbBlockEnd
  0
ENDSEC
  0
SECTION
  2
ENTITIES
  0
POLYLINE
  5
44
330
1F
100
AcDbEntity
  8
ACESSORIOS
100
AcDbPolygonMesh
 66
     1
 10
0.0
 20
0.0
 30
0.0
 70
    16
 71
     2
 72
    21
  0
VERTEX
  5
45
330
44
100
AcDbEntity
  8
ACESSORIOS
100
AcDbVertex
100
AcDbPolygonMeshVertex
 10
-6.000000000000025
 20
-38.49999395880121
 30
18.48621542524253
 70
    64
  0
VERTEX
  5
46
330
44
100
AcDbEntity
  8
ACESSORIOS
100
AcDbVertex
100
AcDbPolygonMeshVertex
 10
-3.162348687417234
 20
-38.49999405579769
 30
18.18940393761133
 70
    64
  0
VERTEX
  5
47
330
44
100
AcDbEntity
  8
ACESSORIOS
100
AcDbVertex
100
AcDbPolygonMeshVertex
 10
-0.4040828825557963
 20
-38.49999429423075
 30
17.45979323269748
 70
    64
  0
VERTEX
  5
48
330
44
100
AcDbEntity
  8
ACESSORIOS
100
AcDbVertex
100
AcDbPolygonMeshVertex
 10
2.209192499378184
 20
-38.49999466842929
 30
16.31473698553296
 70
    64
  0
VERTEX
  5
49
330
44
100
AcDbEntity
  8
ACESSORIOS
100
AcDbVertex
100
AcDbPolygonMeshVertex
 10
4.615321117418678
 20
-38.49999516949307
 30
14.78147017755753
 70
    64
  0
VERTEX
  5
4A
330
44
100
AcDbEntity
  8
ACESSORIOS
100
AcDbVertex
100
AcDbPolygonMeshVertex
 10
6.757073583562812
 20
-38.49999578550433
 30
12.89646131689985
 70
    64
  0
VERTEX
  5
4B
330
44
100
AcDbEntity
  8
ACESSORIOS
100
AcDbVertex
100
AcDbPolygonMeshVertex
 10
8.583508654698292
 20
-38.49999650181137
 30
10.70454504068885
 70
    64
  0
VERTEX
  5
4C
330
44
100
AcDbEntity
  8
ACESSORIOS
100
AcDbVertex
100
AcDbPolygonMeshVertex
 10
10.05118486200073
 20
-38.49999730137697
 30
8.257855730312375
 70
    64
  0
VERTEX
  5
4D
330
44
100
AcDbEntity
  8
ACESSORIOS
100
AcDbVertex
100
AcDbPolygonMeshVertex
 10
11.12519375938768
 20
-38.49999816518353
 30
5.61458750341489
 70
    64
  0
VERTEX
  5
4E
330
44
100
AcDbEntity
  8
ACESSORIOS
100
AcDbVertex
100
AcDbPolygonMeshVertex
 10
11.77999021537855
 20
-38.49999907268559
 30
2.83761007602845
 70
    64
  0
VERTEX
  5
4F
330
44
100
AcDbEntity
  8
ACESSORIOS
100
AcDbVertex
100
AcDbPolygonMeshVertex
 10
11.99999999999998
 20
-38.50000000229831
 30
-0.0070265836633991
 70
    64
  0
VERTEX
  5
50
330
44
100
AcDbEntity
  8
ACESSORIOS
100
AcDbVertex
100
AcDbPolygonMeshVertex
 10
11.77999021537855
 20
-38.50000093191107
 30
-2.851663243355246
 70
    64
  0
VERTEX
  5
51
330
44
100
AcDbEntity
  8
ACESSORIOS
100
AcDbVertex
100
AcDbPolygonMeshVertex
 10
11.12519375938769
 20
-38.50000183941312
 30
-5.62864067074169
 70
    64
  0
VERTEX
  5
52
330
44
100
AcDbEntity
  8
ACESSORIOS
100
AcDbVertex
100
AcDbPolygonMeshVertex
 10
10.05118486200075
 20
-38.5000027032197
 30
-8.27190889763917
 70
    64
  0
VERTEX
  5
53
330
44
100
AcDbEntity
  8
ACESSORIOS
100
AcDbVertex
100
AcDbPolygonMeshVertex
 10
8.583508654698315
 20
-38.50000350278527
 30
-10.71859820801565
 70
    64
  0
VERTEX
  5
54
330
44
100
AcDbEntity
  8
ACESSORIOS
100
AcDbVertex
100
AcDbPolygonMeshVertex
 10
6.757073583562844
 20
-38.50000421909231
 30
-12.91051448422665
 70
    64
  0
VERTEX
  5
55
330
44
100
AcDbEntity
  8
ACESSORIOS
100
AcDbVertex
100
AcDbPolygonMeshVertex
 10
4.615321117418713
 20
-38.50000483510362
 30
-14.79552334488434
 70
    64
  0
VERTEX
  5
56
330
44
100
AcDbEntity
  8
ACESSORIOS
100
AcDbVertex
100
AcDbPolygonMeshVertex
 10
2.209192499378226
 20
-38.50000533616736
 30
-16.32879015285977
 70
    64
  0
VERTEX
  5
57
330
44
100
AcDbEntity
  8
ACESSORIOS
100
AcDbVertex
100
AcDbPolygonMeshVertex
 10
-0.4040828825557501
 20
-38.5000057103659
 30
-17.47384640002429
 70
    64
  0
VERTEX
  5
58
330
44
100
AcDbEntity
  8
ACESSORIOS
100
AcDbVertex
100
AcDbPolygonMeshVertex
 10
-3.162348687417184
 20
-38.50000594879895
 30
-18.20345710493815
 70
    64
  0
VERTEX
  5
443
330
44
100
AcDbEntity
  8
ACESSORIOS
100
AcDbVertex
100
AcDbPolygonMeshVertex
 10
-6.000000000000004
 20
-38.50000604579542
 30
-18.50026859256936
 70
    64
  0
VERTEX
  5
444
330
44
100
AcDbEntity
  8
ACESSORIOS
100
AcDbVertex
100
AcDbPolygonMeshVertex
 10
-6.000000000000025
 20
-37.99999395880125
 30
18.48621526184508
 70
    64
  0
VERTEX
  5
5B
330
44
100
AcDbEntity
  8
ACESSORIOS
100
AcDbVertex
100
AcDbPolygonMeshVertex
 10
-3.162348687417234
 20
-37.99999405579774
 30
18.18940377421388
 70
    64
  0
VERTEX
  5
5C
330
44
100
AcDbEntity
  8
ACESSORIOS
100
AcDbVertex
100
AcDbPolygonMeshVertex
 10
-0.4040828825557963
 20
-37.99999429423078
 30
17.45979306930004
 70
    64
  0
VERTEX
  5
5D
330
44
100
AcDbEntity
  8
ACESSORIOS
100
AcDbVertex
100
AcDbPolygonMeshVertex
 10
2.209192499378184
 20
-37.99999466842933
 30
16.31473682213551
 70
    64
  0
VERTEX
  5
445
330
44
100
AcDbEntity
  8
ACESSORIOS
100
AcDbVertex
100
AcDbPolygonMeshVertex
 10
4.615321117418678
 20
-37.9999951694931
 30
14.78147001416008
 70
    64
  0
VERTEX
  5
5F
330
44
100
AcDbEntity
  8
ACESSORIOS
100
AcDbVertex
100
AcDbPolygonMeshVertex
 10
6.757073583562812
 20
-37.99999578550437
 30
12.8964611535024
 70
    64
  0
VERTEX
  5
60
330
44
100
AcDbEntity
  8
ACESSORIOS
100
AcDbVertex
100
AcDbPolygonMeshVertex
 10
8.583508654698292
 20
-37.99999650181143
 30
10.7045448772914
 70
    64
  0
VERTEX
  5
61
330
44
100
AcDbEntity
  8
ACESSORIOS
100
AcDbVertex
100
AcDbPolygonMeshVertex
 10
10.05118486200073
 20
-37.999997301377
 30
8.257855566914925
 70
    64
  0
VERTEX
  5
62
330
44
100
AcDbEntity
  8
ACESSORIOS
100
AcDbVertex
100
AcDbPolygonMeshVertex
 10
11.12519375938768
 20
-37.99999816518356
 30
5.614587340017441
 70
    64
  0
VERTEX
  5
63
330
44
100
AcDbEntity
  8
ACESSORIOS
100
AcDbVertex
100
AcDbPolygonMeshVertex
 10
11.77999021537855
 20
-37.99999907268562
 30
2.837609912631001
 70
    64
  0
VERTEX
  5
64
330
44
100
AcDbEntity
  8
ACESSORIOS
100
AcDbVertex
100
AcDbPolygonMeshVertex
 10
11.99999999999998
 20
-38.00000000229836
 30
-0.0070267470608474
 70
    64
  0
VERTEX
  5
65
330
44
100
AcDbEntity
  8
ACESSORIOS
100
AcDbVertex
100
AcDbPolygonMeshVertex
 10
11.77999021537855
 20
-38.0000009319111
 30
-2.851663406752697
 70
    64
  0
VERTEX
  5
66
330
44
100
AcDbEntity
  8
ACESSORIOS
100
AcDbVertex
100
AcDbPolygonMeshVertex
 10
11.12519375938769
 20
-38.00000183941315
 30
-5.628640834139137
 70
    64
  0
VERTEX
  5
67
330
44
100
AcDbEntity
  8
ACESSORIOS
100
AcDbVertex
100
AcDbPolygonMeshVertex
 10
10.05118486200075
 20
-38.00000270321973
 30
-8.271909061036618
 70
    64
  0
VERTEX
  5
68
330
44
100
AcDbEntity
  8
ACESSORIOS
100
AcDbVertex
100
AcDbPolygonMeshVertex
 10
8.583508654698315
 20
-38.00000350278531
 30
-10.7185983714131
 70
    64
  0
VERTEX
  5
69
330
44
100
AcDbEntity
  8
ACESSORIOS
100
AcDbVertex
100
AcDbPolygonMeshVertex
 10
6.757073583562844
 20
-38.00000421909234
 30
-12.9105146476241
 70
    64
  0
VERTEX
  5
6A
330
44
100
AcDbEntity
  8
ACESSORIOS
100
AcDbVertex
100
AcDbPolygonMeshVertex
 10
4.615321117418713
 20
-38.00000483510363
 30
-14.79552350828179
 70
    64
  0
VERTEX
  5
446
330
44
100
AcDbEntity
  8
ACESSORIOS
100
AcDbVertex
100
AcDbPolygonMeshVertex
 10
2.209192499378226
 20
-38.0000053361674
 30
-16.32879031625722
 70
    64
  0
VERTEX
  5
447
330
44
100
AcDbEntity
  8
ACESSORIOS
100
AcDbVertex
100
AcDbPolygonMeshVertex
 10
-0.4040828825557501
 20
-38.00000571036593
 30
-17.47384656342175
 70
    64
  0
VERTEX
  5
6D
330
44
100
AcDbEntity
  8
ACESSORIOS
100
AcDbVertex
100
AcDbPolygonMeshVertex
 10
-3.162348687417184
 20
-38.00000594879901
 30
-18.2034572683356
 70
    64
  0
VERTEX
  5
6E
330
44
100
AcDbEntity
  8
ACESSORIOS
100
AcDbVertex
100
AcDbPolygonMeshVertex
 10
-6.000000000000004
 20
-38.00000604579547
 30
-18.50026875596681
 70
    64
  0
SEQEND
  5
442
330
44
100
AcDbEntity
  8
ACESSORIOS
  0
POLYLINE
  5
9A
330
1F
100
AcDbEntity
  8
ACESSORIOS
100
AcDbPolygonMesh
 66
     1
 10
0.0
 20
0.0
 30
0.0
 70
    16
 71
     2
 72
    21
  0
VERTEX
  5
9B
330
9A
100
AcDbEntity
  8
ACESSORIOS
100
AcDbVertex
100
AcDbPolygonMeshVertex
 10
-19.42323488914445
 20
-50.99999614611789
 30
11.79297750127217
 70
    64
  0
VERTEX
  5
9C
330
9A
100
AcDbEntity
  8
ACESSORIOS
100
AcDbVertex
100
AcDbPolygonMeshVertex
 10
-20.26026727629981
 20
-50.9999964689051
 30
10.80524111648216
 70
    64
  0
VERTEX
  5
9D
330
9A
100
AcDbEntity
  8
ACESSORIOS
100
AcDbVertex
100
AcDbPolygonMeshVertex
 10
-21.02198342426887
 20
-50.99999681103217
 30
9.758324265481944
 70
    64
  0
VERTEX
  5
9E
330
9A
100
AcDbEntity
  8
ACESSORIOS
100
AcDbVertex
100
AcDbPolygonMeshVertex
 10
-21.70421411202993
 20
-50.99999717062652
 30
8.657957203242214
 70
    64
  0
VERTEX
  5
9F
330
9A
100
AcDbEntity
  8
ACESSORIOS
100
AcDbVertex
100
AcDbPolygonMeshVertex
 10
-22.30322517885574
 20
-50.9999975457199
 30
7.510162742197369
 70
    64
  0
VERTEX
  5
A0
330
9A
100
AcDbEntity
  8
ACESSORIOS
100
AcDbVertex
100
AcDbPolygonMeshVertex
 10
-22.81573796308381
 20
-50.99999793425925
 30
6.321223286637164
 70
    64
  0
VERTEX
  5
A1
330
9A
100
AcDbEntity
  8
ACESSORIOS
100
AcDbVertex
100
AcDbPolygonMeshVertex
 10
-23.23894724773196
 20
-50.99999833411791
 30
5.097646446233341
 70
    64
  0
VERTEX
  5
A2
330
9A
100
AcDbEntity
  8
ACESSORIOS
100
AcDbVertex
100
AcDbPolygonMeshVertex
 10
-23.5705366147344
 20
-50.99999874310728
 30
3.846129416914164
 70
    64
  0
VERTEX
  5
A3
330
9A
100
AcDbEntity
  8
ACESSORIOS
100
AcDbVertex
100
AcDbPolygonMeshVertex
 10
-23.8086911237579
 20
-50.99999915898878
 30
2.573522324046627
 70
    64
  0
VERTEX
  5
A4
330
9A
100
AcDbEntity
  8
ACESSORIOS
100
AcDbVertex
100
AcDbPolygonMeshVertex
 10
-23.95210724620044
 20
-50.99999957948612
 30
1.286790728565845
 70
    64
  0
VERTEX
  5
A5
330
9A
100
AcDbEntity
  8
ACESSORIOS
100
AcDbVertex
100
AcDbPolygonMeshVertex
 10
-24.00000000000001
 20
-51.00000000229769
 30
-0.0070224987272083
 70
    64
  0
VERTEX
  5
A6
330
9A
100
AcDbEntity
  8
ACESSORIOS
100
AcDbVertex
100
AcDbPolygonMeshVertex
 10
-23.95210724620044
 20
-51.00000042510924
 30
-1.300835726020262
 70
    64
  0
VERTEX
  5
A7
330
9A
100
AcDbEntity
  8
ACESSORIOS
100
AcDbVertex
100
AcDbPolygonMeshVertex
 10
-23.8086911237579
 20
-51.00000084560656
 30
-2.587567321501043
 70
    64
  0
VERTEX
  5
A8
330
9A
100
AcDbEntity
  8
ACESSORIOS
100
AcDbVertex
100
AcDbPolygonMeshVertex
 10
-23.5705366147344
 20
-51.00000126148804
 30
-3.860174414368581
 70
    64
  0
VERTEX
  5
A9
330
9A
100
AcDbEntity
  8
ACESSORIOS
100
AcDbVertex
100
AcDbPolygonMeshVertex
 10
-23.23894724773196
 20
-51.00000167047744
 30
-5.111691443687759
 70
    64
  0
VERTEX
  5
AA
330
9A
100
AcDbEntity
  8
ACESSORIOS
100
AcDbVertex
100
AcDbPolygonMeshVertex
 10
-22.81573796308379
 20
-51.0000020703361
 30
-6.335268284091581
 70
    64
  0
VERTEX
  5
AB
330
9A
100
AcDbEntity
  8
ACESSORIOS
100
AcDbVertex
100
AcDbPolygonMeshVertex
 10
-22.30322517885574
 20
-51.00000245887545
 30
-7.524207739651789
 70
    64
  0
VERTEX
  5
AC
330
9A
100
AcDbEntity
  8
ACESSORIOS
100
AcDbVertex
100
AcDbPolygonMeshVertex
 10
-21.70421411202993
 20
-51.00000283396883
 30
-8.672002200696635
 70
    64
  0
VERTEX
  5
AD
330
9A
100
AcDbEntity
  8
ACESSORIOS
100
AcDbVertex
100
AcDbPolygonMeshVertex
 10
-21.02198342426887
 20
-51.00000319356317
 30
-9.772369262936365
 70
    64
  0
VERTEX
  5
AE
330
9A
100
AcDbEntity
  8
ACESSORIOS
100
AcDbVertex
100
AcDbPolygonMeshVertex
 10
-20.2602672762998
 20
-51.00000353569026
 30
-10.81928611393658
 70
    64
  0
VERTEX
  5
AF
330
9A
100
AcDbEntity
  8
ACESSORIOS
100
AcDbVertex
100
AcDbPolygonMeshVertex
 10
-19.42323488914445
 20
-51.00000385847746
 30
-11.80702249872659
 70
    64
  0
VERTEX
  5
B0
330
9A
100
AcDbEntity
  8
ACESSORIOS
100
AcDbVertex
100
AcDbPolygonMeshVertex
 10
-19.42323488914445
 20
-38.49999614611854
 30
11.79297341633596
 70
    64
  0
VERTEX
  5
B1
330
9A
100
AcDbEntity
  8
ACESSORIOS
100
AcDbVertex
100
AcDbPolygonMeshVertex
 10
-20.26026727629981
 20
-38.49999646890576
 30
10.80523703154595
 70
    64
  0
VERTEX
  5
B2
330
9A
100
AcDbEntity
  8
ACESSORIOS
100
AcDbVertex
100
AcDbPolygonMeshVertex
 10
-21.02198342426887
 20
-38.49999681103285
 30
9.758320180545738
 70
    64
  0
VERTEX
  5
B3
330
9A
100
AcDbEntity
  8
ACESSORIOS
100
AcDbVertex
100
AcDbPolygonMeshVertex
 10
-21.70421411202993
 20
-38.49999717062718
 30
8.657953118306004
 70
    64
  0
VERTEX
  5
B4
330
9A
100
AcDbEntity
  8
ACESSORIOS
100
AcDbVertex
100
AcDbPolygonMeshVertex
 10
-22.30322517885574
 20
-38.49999754572055
 30
7.510158657261158
 70
    64
  0
VERTEX
  5
B5
330
9A
100
AcDbEntity
  8
ACESSORIOS
100
AcDbVertex
100
AcDbPolygonMeshVertex
 10
-22.81573796308381
 20
-38.4999979342599
 30
6.321219201700956
 70
    64
  0
VERTEX
  5
B6
330
9A
100
AcDbEntity
  8
ACESSORIOS
100
AcDbVertex
100
AcDbPolygonMeshVertex
 10
-23.23894724773196
 20
-38.49999833411858
 30
5.097642361297131
 70
    64
  0
VERTEX
  5
B7
330
9A
100
AcDbEntity
  8
ACESSORIOS
100
AcDbVertex
100
AcDbPolygonMeshVertex
 10
-23.5705366147344
 20
-38.49999874310796
 30
3.846125331977957
 70
    64
  0
VERTEX
  5
B8
330
9A
100
AcDbEntity
  8
ACESSORIOS
100
AcDbVertex
100
AcDbPolygonMeshVertex
 10
-23.8086911237579
 20
-38.49999915898945
 30
2.573518239110419
 70
    64
  0
VERTEX
  5
B9
330
9A
100
AcDbEntity
  8
ACESSORIOS
100
AcDbVertex
100
AcDbPolygonMeshVertex
 10
-23.95210724620044
 20
-38.49999957948678
 30
1.286786643629636
 70
    64
  0
VERTEX
  5
BA
330
9A
100
AcDbEntity
  8
ACESSORIOS
100
AcDbVertex
100
AcDbPolygonMeshVertex
 10
-24.00000000000001
 20
-38.50000000229831
 30
-0.007026583663417
 70
    64
  0
VERTEX
  5
BB
330
9A
100
AcDbEntity
  8
ACESSORIOS
100
AcDbVertex
100
AcDbPolygonMeshVertex
 10
-23.95210724620044
 20
-38.5000004251099
 30
-1.30083981095647
 70
    64
  0
VERTEX
  5
BC
330
9A
100
AcDbEntity
  8
ACESSORIOS
100
AcDbVertex
100
AcDbPolygonMeshVertex
 10
-23.8086911237579
 20
-38.50000084560721
 30
-2.587571406437251
 70
    64
  0
VERTEX
  5
BD
330
9A
100
AcDbEntity
  8
ACESSORIOS
100
AcDbVertex
100
AcDbPolygonMeshVertex
 10
-23.5705366147344
 20
-38.50000126148871
 30
-3.860178499304791
 70
    64
  0
VERTEX
  5
BE
330
9A
100
AcDbEntity
  8
ACESSORIOS
100
AcDbVertex
100
AcDbPolygonMeshVertex
 10
-23.23894724773196
 20
-38.50000167047809
 30
-5.111695528623967
 70
    64
  0
VERTEX
  5
BF
330
9A
100
AcDbEntity
  8
ACESSORIOS
100
AcDbVertex
100
AcDbPolygonMeshVertex
 10
-22.81573796308379
 20
-38.50000207033676
 30
-6.335272369027793
 70
    64
  0
VERTEX
  5
C0
330
9A
100
AcDbEntity
  8
ACESSORIOS
100
AcDbVertex
100
AcDbPolygonMeshVertex
 10
-22.30322517885574
 20
-38.5000024588761
 30
-7.524211824587996
 70
    64
  0
VERTEX
  5
C1
330
9A
100
AcDbEntity
  8
ACESSORIOS
100
AcDbVertex
100
AcDbPolygonMeshVertex
 10
-21.70421411202993
 20
-38.50000283396948
 30
-8.672006285632845
 70
    64
  0
VERTEX
  5
C2
330
9A
100
AcDbEntity
  8
ACESSORIOS
100
AcDbVertex
100
AcDbPolygonMeshVertex
 10
-21.02198342426887
 20
-38.50000319356382
 30
-9.772373347872575
 70
    64
  0
VERTEX
  5
C3
330
9A
100
AcDbEntity
  8
ACESSORIOS
100
AcDbVertex
100
AcDbPolygonMeshVertex
 10
-20.2602672762998
 20
-38.50000353569089
 30
-10.81929019887279
 70
    64
  0
VERTEX
  5
C4
330
9A
100
AcDbEntity
  8
ACESSORIOS
100
AcDbVertex
100
AcDbPolygonMeshVertex
 10
-19.42323488914445
 20
-38.50000385847812
 30
-11.80702658366279
 70
    64
  0
SEQEND
  5
448
330
9A
100
AcDbEntity
  8
ACESSORIOS
  0
3DFACE
  5
F0
330
1F
100
AcDbEntity
  8
ACESSORIOS
100
AcDbFace
 10
-22.00000000000001
 20
-38.50000931365249
 30
-28.49998741839494
 11
-22.00000000000001
 21
-35.30000931365269
 31
-28.49998846413864
 12
-10.00000000000001
 22
-35.30000931365269
 32
-28.49998846413864
 13
-10.00000000000001
 23
-38.50000931365249
 33
-28.49998741839494
  0
3DFACE
  5
F1
330
1F
100
AcDbEntity
  8
ACESSORIOS
100
AcDbFace
 10
-19.42323488914441
 20
-51.00000385847749
 30
-11.80702249872654
 11
-19.42323488914441
 21
-38.50000385847809
 31
-11.80702658366284
 12
-3.560815559085814
 22
-38.50000385847809
 32
-11.80702658366274
 13
-3.560815559085814
 23
-51.00000385847749
 33
-11.80702249872654
  0
3DFACE
  5
F2
330
1F
100
AcDbEntity
  8
ACESSORIOS
100
AcDbFace
 10
-3.560815559085814
 20
-51.00000385847749
 30
-11.80702249872654
 11
-3.560815559085814
 21
-38.50000385847809
 31
-11.80702658366274
 12
-1.251414875456014
 22
-38.5000025512985
 32
-7.807026583662997
 13
-1.251414875456014
 23
-51.00000255129789
 33
-7.807022498726788
  0
3DFACE
  5
F3
330
1F
100
AcDbEntity
  8
ACESSORIOS
100
AcDbFace
 10
-1.251414875456014
 20
-51.00000255129789
 30
-7.807022498726788
 11
-1.251414875456014
 21
-38.5000025512985
 31
-7.807026583662997
 12
9.165567337316562
 22
-38.5000025512985
 32
-7.807026583662997
 13
9.165567337316562
 23
-51.00000255129789
 33
-7.807022498726788
  0
POLYLINE
  5
F4
330
1F
100
AcDbEntity
  8
ACESSORIOS
100
AcDbPolygonMesh
 66
     1
 10
0.0
 20
0.0
 30
0.0
 70
    16
 71
     2
 72
     7
  0
VERTEX
  5
F5
330
F4
100
AcDbEntity
  8
ACESSORIOS
100
AcDbVertex
100
AcDbPolygonMeshVertex
 10
9.165567337316563
 20
-50.99999745329747
 30
7.792977501272374
 70
    64
  0
VERTEX
  5
F6
330
F4
100
AcDbEntity
  8
ACESSORIOS
100
AcDbVertex
100
AcDbPolygonMeshVertex
 10
9.719125751961794
 20
-50.99999785463205
 30
6.564884366258378
 70
    64
  0
VERTEX
  5
F7
330
F4
100
AcDbEntity
  8
ACESSORIOS
100
AcDbVertex
100
AcDbPolygonMeshVertex
 10
10.17658010473406
 20
-50.9999982686923
 30
5.29785035652433
 70
    64
  0
VERTEX
  5
F8
330
F4
100
AcDbEntity
  8
ACESSORIOS
100
AcDbVertex
100
AcDbPolygonMeshVertex
 10
10.53521981664808
 20
-50.99999869302477
 30
3.999383097125293
 70
    64
  0
VERTEX
  5
F9
330
F4
100
AcDbEntity
  8
ACESSORIOS
100
AcDbVertex
100
AcDbPolygonMeshVertex
 10
10.7929198204474
 20
-50.99999912511515
 30
2.677176466248391
 70
    64
  0
VERTEX
  5
FA
330
F4
100
AcDbEntity
  8
ACESSORIOS
100
AcDbVertex
100
AcDbPolygonMeshVertex
 10
10.94815315238018
 20
-50.99999956240314
 30
1.339065006260821
 70
    64
  0
VERTEX
  5
FB
330
F4
100
AcDbEntity
  8
ACESSORIOS
100
AcDbVertex
100
AcDbPolygonMeshVertex
 10
10.99999999999999
 20
-51.00000000229769
 30
-0.007022498727207
 70
    64
  0
VERTEX
  5
FC
330
F4
100
AcDbEntity
  8
ACESSORIOS
100
AcDbVertex
100
AcDbPolygonMeshVertex
 10
9.165567337316563
 20
-38.49999745329814
 30
7.792973416336165
 70
    64
  0
VERTEX
  5
FD
330
F4
100
AcDbEntity
  8
ACESSORIOS
100
AcDbVertex
100
AcDbPolygonMeshVertex
 10
9.719125751961794
 20
-38.4999978546327
 30
6.564880281322169
 70
    64
  0
VERTEX
  5
FE
330
F4
100
AcDbEntity
  8
ACESSORIOS
100
AcDbVertex
100
AcDbPolygonMeshVertex
 10
10.17658010473406
 20
-38.49999826869296
 30
5.297846271588122
 70
    64
  0
VERTEX
  5
FF
330
F4
100
AcDbEntity
  8
ACESSORIOS
100
AcDbVertex
100
AcDbPolygonMeshVertex
 10
10.53521981664808
 20
-38.49999869302544
 30
3.999379012189082
 70
    64
  0
VERTEX
  5
100
330
F4
100
AcDbEntity
  8
ACESSORIOS
100
AcDbVertex
100
AcDbPolygonMeshVertex
 10
10.7929198204474
 20
-38.4999991251158
 30
2.677172381312181
 70
    64
  0
VERTEX
  5
101
330
F4
100
AcDbEntity
  8
ACESSORIOS
100
AcDbVertex
100
AcDbPolygonMeshVertex
 10
10.94815315238018
 20
-38.49999956240381
 30
1.339060921324614
 70
    64
  0
VERTEX
  5
102
330
F4
100
AcDbEntity
  8
ACESSORIOS
100
AcDbVertex
100
AcDbPolygonMeshVertex
 10
10.99999999999999
 20
-38.50000000229831
 30
-0.0070265836634157
 70
    64
  0
SEQEND
  5
449
330
F4
100
AcDbEntity
  8
ACESSORIOS
  0
3DFACE
  5
112
330
1F
100
AcDbEntity
  8
ACESSORIOS
100
AcDbFace
 10
-1.251414875456014
 20
-50.9999974532975
 30
7.792977501272371
 11
-1.251414875456014
 21
-38.4999974532981
 31
7.792973416336159
 12
9.16556733731656
 22
-38.4999974532981
 32
7.792973416336171
 13
9.165567337316562
 23
-50.9999974532975
 33
7.792977501272371
  0
POLYLINE
  5
113
330
1F
100
AcDbEntity
  8
ACESSORIOS
100
AcDbPolygonMesh
 66
     1
 10
0.0
 20
0.0
 30
0.0
 70
    16
 71
     2
 72
     7
  0
VERTEX
  5
114
330
113
100
AcDbEntity
  8
ACESSORIOS
100
AcDbVertex
100
AcDbPolygonMeshVertex
 10
10.99999999999999
 20
-51.00000000229769
 30
-0.007022498727207
 70
    64
  0
VERTEX
  5
115
330
113
100
AcDbEntity
  8
ACESSORIOS
100
AcDbVertex
100
AcDbPolygonMeshVertex
 10
10.94815315238018
 20
-51.0000004421922
 30
-1.353110003715241
 70
    64
  0
VERTEX
  5
116
330
113
100
AcDbEntity
  8
ACESSORIOS
100
AcDbVertex
100
AcDbPolygonMeshVertex
 10
10.7929198204474
 20
-51.0000008794802
 30
-2.691221463702809
 70
    64
  0
VERTEX
  5
117
330
113
100
AcDbEntity
  8
ACESSORIOS
100
AcDbVertex
100
AcDbPolygonMeshVertex
 10
10.53521981664808
 20
-51.00000131157058
 30
-4.01342809457971
 70
    64
  0
VERTEX
  5
118
330
113
100
AcDbEntity
  8
ACESSORIOS
100
AcDbVertex
100
AcDbPolygonMeshVertex
 10
10.17658010473406
 20
-51.00000173590305
 30
-5.311895353978746
 70
    64
  0
VERTEX
  5
119
330
113
100
AcDbEntity
  8
ACESSORIOS
100
AcDbVertex
100
AcDbPolygonMeshVertex
 10
9.719125751961794
 20
-51.00000214996329
 30
-6.578929363712795
 70
    64
  0
VERTEX
  5
11A
330
113
100
AcDbEntity
  8
ACESSORIOS
100
AcDbVertex
100
AcDbPolygonMeshVertex
 10
9.165567337316565
 20
-51.00000255129788
 30
-7.807022498726787
 70
    64
  0
VERTEX
  5
11B
330
113
100
AcDbEntity
  8
ACESSORIOS
100
AcDbVertex
100
AcDbPolygonMeshVertex
 10
10.99999999999999
 20
-38.50000000229831
 30
-0.0070265836634157
 70
    64
  0
VERTEX
  5
11C
330
113
100
AcDbEntity
  8
ACESSORIOS
100
AcDbVertex
100
AcDbPolygonMeshVertex
 10
10.94815315238018
 20
-38.50000044219285
 30
-1.353114088651449
 70
    64
  0
VERTEX
  5
11D
330
113
100
AcDbEntity
  8
ACESSORIOS
100
AcDbVertex
100
AcDbPolygonMeshVertex
 10
10.7929198204474
 20
-38.50000087948086
 30
-2.691225548639017
 70
    64
  0
VERTEX
  5
11E
330
113
100
AcDbEntity
  8
ACESSORIOS
100
AcDbVertex
100
AcDbPolygonMeshVertex
 10
10.53521981664808
 20
-38.50000131157123
 30
-4.013432179515918
 70
    64
  0
VERTEX
  5
11F
330
113
100
AcDbEntity
  8
ACESSORIOS
100
AcDbVertex
100
AcDbPolygonMeshVertex
 10
10.17658010473406
 20
-38.5000017359037
 30
-5.311899438914956
 70
    64
  0
VERTEX
  5
120
330
113
100
AcDbEntity
  8
ACESSORIOS
100
AcDbVertex
100
AcDbPolygonMeshVertex
 10
9.719125751961794
 20
-38.50000214996395
 30
-6.578933448649002
 70
    64
  0
VERTEX
  5
121
330
113
100
AcDbEntity
  8
ACESSORIOS
100
AcDbVertex
100
AcDbPolygonMeshVertex
 10
9.165567337316565
 20
-38.50000255129853
 30
-7.807026583662997
 70
    64
  0
SEQEND
  5
44A
330
113
100
AcDbEntity
  8
ACESSORIOS
  0
POLYLINE
  5
131
330
1F
100
AcDbEntity
  8
ACESSORIOS
100
AcDbPolygonMesh
 66
     1
 10
0.0
 20
0.0
 30
0.0
 70
    16
 71
     2
 72
     7
  0
VERTEX
  5
132
330
131
100
AcDbEntity
  8
ACESSORIOS
100
AcDbVertex
100
AcDbPolygonMeshVertex
 10
-10.00000000000001
 20
-38.49999068634342
 30
28.50001258160197
 70
    64
  0
VERTEX
  5
133
330
131
100
AcDbEntity
  8
ACESSORIOS
100
AcDbVertex
100
AcDbPolygonMeshVertex
 10
-8.964723819589935
 20
-38.49999073088448
 30
28.36371588675825
 70
    64
  0
VERTEX
  5
134
330
131
100
AcDbEntity
  8
ACESSORIOS
100
AcDbVertex
100
AcDbPolygonMeshVertex
 10
-8.000000000000014
 20
-38.49999086147226
 30
27.96411419673975
 70
    64
  0
VERTEX
  5
135
330
131
100
AcDbEntity
  8
ACESSORIOS
100
AcDbVertex
100
AcDbPolygonMeshVertex
 10
-7.171572875253823
 20
-38.49999106920745
 30
27.32843970634823
 70
    64
  0
VERTEX
  5
136
330
131
100
AcDbEntity
  8
ACESSORIOS
100
AcDbVertex
100
AcDbPolygonMeshVertex
 10
-6.535898384862264
 20
-38.49999133993321
 30
26.50001258160208
 70
    64
  0
VERTEX
  5
137
330
131
100
AcDbEntity
  8
ACESSORIOS
100
AcDbVertex
100
AcDbPolygonMeshVertex
 10
-6.136296694843745
 20
-38.49999165520004
 30
25.53528876201221
 70
    64
  0
VERTEX
  5
138
330
131
100
AcDbEntity
  8
ACESSORIOS
100
AcDbVertex
100
AcDbPolygonMeshVertex
 10
-6.000000000000014
 20
-38.49999199352299
 30
24.50001258160218
 70
    64
  0
VERTEX
  5
139
330
131
100
AcDbEntity
  8
ACESSORIOS
100
AcDbVertex
100
AcDbPolygonMeshVertex
 10
-10.00000000000001
 20
-35.29999068634358
 30
28.5000115358583
 70
    64
  0
VERTEX
  5
13A
330
131
100
AcDbEntity
  8
ACESSORIOS
100
AcDbVertex
100
AcDbPolygonMeshVertex
 10
-8.964723819589935
 20
-35.29999073088465
 30
28.36371484101458
 70
    64
  0
VERTEX
  5
13B
330
131
100
AcDbEntity
  8
ACESSORIOS
100
AcDbVertex
100
AcDbPolygonMeshVertex
 10
-8.000000000000014
 20
-35.29999086147244
 30
27.96411315099608
 70
    64
  0
VERTEX
  5
13C
330
131
100
AcDbEntity
  8
ACESSORIOS
100
AcDbVertex
100
AcDbPolygonMeshVertex
 10
-7.171572875253823
 20
-35.29999106920763
 30
27.32843866060456
 70
    64
  0
VERTEX
  5
13D
330
131
100
AcDbEntity
  8
ACESSORIOS
100
AcDbVertex
100
AcDbPolygonMeshVertex
 10
-6.535898384862264
 20
-35.29999133993338
 30
26.50001153585841
 70
    64
  0
VERTEX
  5
13E
330
131
100
AcDbEntity
  8
ACESSORIOS
100
AcDbVertex
100
AcDbPolygonMeshVertex
 10
-6.136296694843745
 20
-35.29999165520021
 30
25.53528771626855
 70
    64
  0
VERTEX
  5
13F
330
131
100
AcDbEntity
  8
ACESSORIOS
100
AcDbVertex
100
AcDbPolygonMeshVertex
 10
-6.000000000000014
 20
-35.29999199352317
 30
24.50001153585851
 70
    64
  0
SEQEND
  5
44B
330
131
100
AcDbEntity
  8
ACESSORIOS
  0
POLYLINE
  5
14F
330
1F
100
AcDbEntity
  8
ACESSORIOS
100
AcDbPolygonMesh
 66
     1
 10
0.0
 20
0.0
 30
0.0
 70
    16
 71
     2
 72
     7
  0
VERTEX
  5
150
330
14F
100
AcDbEntity
  8
ACESSORIOS
100
AcDbVertex
100
AcDbPolygonMeshVertex
 10
-22.00000000000001
 20
-38.49999068634342
 30
28.50001258160198
 70
    64
  0
VERTEX
  5
151
330
14F
100
AcDbEntity
  8
ACESSORIOS
100
AcDbVertex
100
AcDbPolygonMeshVertex
 10
-23.0352761804101
 20
-38.49999073088448
 30
28.36371588675826
 70
    64
  0
VERTEX
  5
152
330
14F
100
AcDbEntity
  8
ACESSORIOS
100
AcDbVertex
100
AcDbPolygonMeshVertex
 10
-24.00000000000002
 20
-38.49999086147226
 30
27.96411419673977
 70
    64
  0
VERTEX
  5
153
330
14F
100
AcDbEntity
  8
ACESSORIOS
100
AcDbVertex
100
AcDbPolygonMeshVertex
 10
-24.82842712474621
 20
-38.49999106920745
 30
27.32843970634823
 70
    64
  0
VERTEX
  5
154
330
14F
100
AcDbEntity
  8
ACESSORIOS
100
AcDbVertex
100
AcDbPolygonMeshVertex
 10
-25.46410161513779
 20
-38.49999133993321
 30
26.50001258160208
 70
    64
  0
VERTEX
  5
155
330
14F
100
AcDbEntity
  8
ACESSORIOS
100
AcDbVertex
100
AcDbPolygonMeshVertex
 10
-25.86370330515631
 20
-38.49999165520004
 30
25.53528876201222
 70
    64
  0
VERTEX
  5
156
330
14F
100
AcDbEntity
  8
ACESSORIOS
100
AcDbVertex
100
AcDbPolygonMeshVertex
 10
-26.00000000000002
 20
-38.49999199352299
 30
24.50001258160219
 70
    64
  0
VERTEX
  5
157
330
14F
100
AcDbEntity
  8
ACESSORIOS
100
AcDbVertex
100
AcDbPolygonMeshVertex
 10
-22.00000000000001
 20
-35.29999068634358
 30
28.50001153585832
 70
    64
  0
VERTEX
  5
158
330
14F
100
AcDbEntity
  8
ACESSORIOS
100
AcDbVertex
100
AcDbPolygonMeshVertex
 10
-23.0352761804101
 20
-35.29999073088465
 30
28.36371484101459
 70
    64
  0
VERTEX
  5
159
330
14F
100
AcDbEntity
  8
ACESSORIOS
100
AcDbVertex
100
AcDbPolygonMeshVertex
 10
-24.00000000000002
 20
-35.29999086147244
 30
27.9641131509961
 70
    64
  0
VERTEX
  5
15A
330
14F
100
AcDbEntity
  8
ACESSORIOS
100
AcDbVertex
100
AcDbPolygonMeshVertex
 10
-24.82842712474621
 20
-35.29999106920763
 30
27.32843866060456
 70
    64
  0
VERTEX
  5
15B
330
14F
100
AcDbEntity
  8
ACESSORIOS
100
AcDbVertex
100
AcDbPolygonMeshVertex
 10
-25.46410161513779
 20
-35.29999133993338
 30
26.50001153585841
 70
    64
  0
VERTEX
  5
15C
330
14F
100
AcDbEntity
  8
ACESSORIOS
100
AcDbVertex
100
AcDbPolygonMeshVertex
 10
-25.86370330515631
 20
-35.29999165520021
 30
25.53528771626855
 70
    64
  0
VERTEX
  5
15D
330
14F
100
AcDbEntity
  8
ACESSORIOS
100
AcDbVertex
100
AcDbPolygonMeshVertex
 10
-26.00000000000002
 20
-35.29999199352317
 30
24.50001153585852
 70
    64
  0
SEQEND
  5
44C
330
14F
100
AcDbEntity
  8
ACESSORIOS
  0
POLYLINE
  5
16D
330
1F
100
AcDbEntity
  8
ACESSORIOS
100
AcDbPolygonMesh
 66
     1
 10
0.0
 20
0.0
 30
0.0
 70
    16
 71
     2
 72
     7
  0
VERTEX
  5
16E
330
16D
100
AcDbEntity
  8
ACESSORIOS
100
AcDbVertex
100
AcDbPolygonMeshVertex
 10
-21.99999999999999
 20
-38.50000931365256
 30
-28.49998741839502
 70
    64
  0
VERTEX
  5
16F
330
16D
100
AcDbEntity
  8
ACESSORIOS
100
AcDbVertex
100
AcDbPolygonMeshVertex
 10
-23.03527618041007
 20
-38.50000926911149
 30
-28.36369072355131
 70
    64
  0
VERTEX
  5
170
330
16D
100
AcDbEntity
  8
ACESSORIOS
100
AcDbVertex
100
AcDbPolygonMeshVertex
 10
-23.99999999999999
 20
-38.5000091385237
 30
-27.96408903353281
 70
    64
  0
VERTEX
  5
171
330
16D
100
AcDbEntity
  8
ACESSORIOS
100
AcDbVertex
100
AcDbPolygonMeshVertex
 10
-24.82842712474618
 20
-38.50000893078853
 30
-27.32841454314128
 70
    64
  0
VERTEX
  5
172
330
16D
100
AcDbEntity
  8
ACESSORIOS
100
AcDbVertex
100
AcDbPolygonMeshVertex
 10
-25.46410161513776
 20
-38.50000866006278
 30
-26.49998741839513
 70
    64
  0
VERTEX
  5
173
330
16D
100
AcDbEntity
  8
ACESSORIOS
100
AcDbVertex
100
AcDbPolygonMeshVertex
 10
-25.86370330515627
 20
-38.50000834479594
 30
-25.53526359880527
 70
    64
  0
VERTEX
  5
174
330
16D
100
AcDbEntity
  8
ACESSORIOS
100
AcDbVertex
100
AcDbPolygonMeshVertex
 10
-26.00000000000001
 20
-38.50000800647299
 30
-24.49998741839524
 70
    64
  0
VERTEX
  5
175
330
16D
100
AcDbEntity
  8
ACESSORIOS
100
AcDbVertex
100
AcDbPolygonMeshVertex
 10
-21.99999999999999
 20
-35.30000931365267
 30
-28.49998846413864
 70
    64
  0
VERTEX
  5
176
330
16D
100
AcDbEntity
  8
ACESSORIOS
100
AcDbVertex
100
AcDbPolygonMeshVertex
 10
-23.03527618041007
 20
-35.30000926911162
 30
-28.36369176929491
 70
    64
  0
VERTEX
  5
177
330
16D
100
AcDbEntity
  8
ACESSORIOS
100
AcDbVertex
100
AcDbPolygonMeshVertex
 10
-23.99999999999999
 20
-35.30000913852381
 30
-27.96409007927641
 70
    64
  0
VERTEX
  5
178
330
16D
100
AcDbEntity
  8
ACESSORIOS
100
AcDbVertex
100
AcDbPolygonMeshVertex
 10
-24.82842712474618
 20
-35.30000893078864
 30
-27.32841558888489
 70
    64
  0
VERTEX
  5
179
330
16D
100
AcDbEntity
  8
ACESSORIOS
100
AcDbVertex
100
AcDbPolygonMeshVertex
 10
-25.46410161513776
 20
-35.30000866006289
 30
-26.49998846413874
 70
    64
  0
VERTEX
  5
17A
330
16D
100
AcDbEntity
  8
ACESSORIOS
100
AcDbVertex
100
AcDbPolygonMeshVertex
 10
-25.86370330515627
 20
-35.30000834479606
 30
-25.53526464454887
 70
    64
  0
VERTEX
  5
17B
330
16D
100
AcDbEntity
  8
ACESSORIOS
100
AcDbVertex
100
AcDbPolygonMeshVertex
 10
-26.00000000000001
 20
-35.30000800647309
 30
-24.49998846413884
 70
    64
  0
SEQEND
  5
44D
330
16D
100
AcDbEntity
  8
ACESSORIOS
  0
POLYLINE
  5
18B
330
1F
100
AcDbEntity
  8
ACESSORIOS
100
AcDbPolygonMesh
 66
     1
 10
0.0
 20
0.0
 30
0.0
 70
    16
 71
     2
 72
     7
  0
VERTEX
  5
18C
330
18B
100
AcDbEntity
  8
ACESSORIOS
100
AcDbVertex
100
AcDbPolygonMeshVertex
 10
-10.00000000000002
 20
-38.50000931365256
 30
-28.49998741839502
 70
    64
  0
VERTEX
  5
18D
330
18B
100
AcDbEntity
  8
ACESSORIOS
100
AcDbVertex
100
AcDbPolygonMeshVertex
 10
-8.964723819589945
 20
-38.50000926911149
 30
-28.3636907235513
 70
    64
  0
VERTEX
  5
18E
330
18B
100
AcDbEntity
  8
ACESSORIOS
100
AcDbVertex
100
AcDbPolygonMeshVertex
 10
-8.000000000000025
 20
-38.5000091385237
 30
-27.96408903353281
 70
    64
  0
VERTEX
  5
18F
330
18B
100
AcDbEntity
  8
ACESSORIOS
100
AcDbVertex
100
AcDbPolygonMeshVertex
 10
-7.171572875253833
 20
-38.50000893078853
 30
-27.32841454314128
 70
    64
  0
VERTEX
  5
190
330
18B
100
AcDbEntity
  8
ACESSORIOS
100
AcDbVertex
100
AcDbPolygonMeshVertex
 10
-6.535898384862264
 20
-38.50000866006278
 30
-26.49998741839513
 70
    64
  0
VERTEX
  5
191
330
18B
100
AcDbEntity
  8
ACESSORIOS
100
AcDbVertex
100
AcDbPolygonMeshVertex
 10
-6.136296694843745
 20
-38.50000834479594
 30
-25.53526359880527
 70
    64
  0
VERTEX
  5
192
330
18B
100
AcDbEntity
  8
ACESSORIOS
100
AcDbVertex
100
AcDbPolygonMeshVertex
 10
-6.000000000000014
 20
-38.50000800647299
 30
-24.49998741839523
 70
    64
  0
VERTEX
  5
193
330
18B
100
AcDbEntity
  8
ACESSORIOS
100
AcDbVertex
100
AcDbPolygonMeshVertex
 10
-10.00000000000002
 20
-35.30000931365267
 30
-28.49998846413862
 70
    64
  0
VERTEX
  5
194
330
18B
100
AcDbEntity
  8
ACESSORIOS
100
AcDbVertex
100
AcDbPolygonMeshVertex
 10
-8.964723819589945
 20
-35.30000926911162
 30
-28.36369176929491
 70
    64
  0
VERTEX
  5
195
330
18B
100
AcDbEntity
  8
ACESSORIOS
100
AcDbVertex
100
AcDbPolygonMeshVertex
 10
-8.000000000000025
 20
-35.30000913852381
 30
-27.96409007927641
 70
    64
  0
VERTEX
  5
196
330
18B
100
AcDbEntity
  8
ACESSORIOS
100
AcDbVertex
100
AcDbPolygonMeshVertex
 10
-7.171572875253833
 20
-35.30000893078864
 30
-27.32841558888488
 70
    64
  0
VERTEX
  5
197
330
18B
100
AcDbEntity
  8
ACESSORIOS
100
AcDbVertex
100
AcDbPolygonMeshVertex
 10
-6.535898384862264
 20
-35.30000866006289
 30
-26.49998846413873
 70
    64
  0
VERTEX
  5
198
330
18B
100
AcDbEntity
  8
ACESSORIOS
100
AcDbVertex
100
AcDbPolygonMeshVertex
 10
-6.136296694843745
 20
-35.30000834479606
 30
-25.53526464454887
 70
    64
  0
VERTEX
  5
199
330
18B
100
AcDbEntity
  8
ACESSORIOS
100
AcDbVertex
100
AcDbPolygonMeshVertex
 10
-6.000000000000014
 20
-35.30000800647309
 30
-24.49998846413884
 70
    64
  0
SEQEND
  5
44E
330
18B
100
AcDbEntity
  8
ACESSORIOS
  0
POLYLINE
  5
1A9
330
1F
100
AcDbEntity
  8
ACESSORIOS
100
AcDbPolygonMesh
 66
     1
 10
0.0
 20
0.0
 30
0.0
 70
    16
 71
     2
 72
     7
  0
VERTEX
  5
1AA
330
1A9
100
AcDbEntity
  8
ACESSORIOS
100
AcDbVertex
100
AcDbPolygonMeshVertex
 10
-21.99999999999999
 20
-38.50000931365256
 30
-28.49998741839502
 70
    64
  0
VERTEX
  5
1AB
330
1A9
100
AcDbEntity
  8
ACESSORIOS
100
AcDbVertex
100
AcDbPolygonMeshVertex
 10
-23.03527618041007
 20
-38.50000926911149
 30
-28.36369072355131
 70
    64
  0
VERTEX
  5
1AC
330
1A9
100
AcDbEntity
  8
ACESSORIOS
100
AcDbVertex
100
AcDbPolygonMeshVertex
 10
-23.99999999999999
 20
-38.5000091385237
 30
-27.96408903353281
 70
    64
  0
VERTEX
  5
1AD
330
1A9
100
AcDbEntity
  8
ACESSORIOS
100
AcDbVertex
100
AcDbPolygonMeshVertex
 10
-24.82842712474618
 20
-38.50000893078853
 30
-27.32841454314128
 70
    64
  0
VERTEX
  5
1AE
330
1A9
100
AcDbEntity
  8
ACESSORIOS
100
AcDbVertex
100
AcDbPolygonMeshVertex
 10
-25.46410161513776
 20
-38.50000866006278
 30
-26.49998741839513
 70
    64
  0
VERTEX
  5
1AF
330
1A9
100
AcDbEntity
  8
ACESSORIOS
100
AcDbVertex
100
AcDbPolygonMeshVertex
 10
-25.86370330515627
 20
-38.50000834479594
 30
-25.53526359880527
 70
    64
  0
VERTEX
  5
1B0
330
1A9
100
AcDbEntity
  8
ACESSORIOS
100
AcDbVertex
100
AcDbPolygonMeshVertex
 10
-26.00000000000001
 20
-38.50000800647299
 30
-24.49998741839524
 70
    64
  0
VERTEX
  5
1B1
330
1A9
100
AcDbEntity
  8
ACESSORIOS
100
AcDbVertex
100
AcDbPolygonMeshVertex
 10
-10.00000000000002
 20
-38.50000931365256
 30
-28.49998741839502
 70
    64
  0
VERTEX
  5
1B2
330
1A9
100
AcDbEntity
  8
ACESSORIOS
100
AcDbVertex
100
AcDbPolygonMeshVertex
 10
-8.964723819589945
 20
-38.50000926911149
 30
-28.3636907235513
 70
    64
  0
VERTEX
  5
1B3
330
1A9
100
AcDbEntity
  8
ACESSORIOS
100
AcDbVertex
100
AcDbPolygonMeshVertex
 10
-8.000000000000025
 20
-38.5000091385237
 30
-27.96408903353281
 70
    64
  0
VERTEX
  5
1B4
330
1A9
100
AcDbEntity
  8
ACESSORIOS
100
AcDbVertex
100
AcDbPolygonMeshVertex
 10
-7.171572875253833
 20
-38.50000893078853
 30
-27.32841454314128
 70
    64
  0
VERTEX
  5
1B5
330
1A9
100
AcDbEntity
  8
ACESSORIOS
100
AcDbVertex
100
AcDbPolygonMeshVertex
 10
-6.535898384862264
 20
-38.50000866006278
 30
-26.49998741839513
 70
    64
  0
VERTEX
  5
1B6
330
1A9
100
AcDbEntity
  8
ACESSORIOS
100
AcDbVertex
100
AcDbPolygonMeshVertex
 10
-6.136296694843745
 20
-38.50000834479594
 30
-25.53526359880527
 70
    64
  0
VERTEX
  5
1B7
330
1A9
100
AcDbEntity
  8
ACESSORIOS
100
AcDbVertex
100
AcDbPolygonMeshVertex
 10
-6.000000000000014
 20
-38.50000800647299
 30
-24.49998741839523
 70
    64
  0
SEQEND
  5
44F
330
1A9
100
AcDbEntity
  8
ACESSORIOS
  0
POLYLINE
  5
1C7
330
1F
100
AcDbEntity
  8
ACESSORIOS
100
AcDbPolygonMesh
 66
     1
 10
0.0
 20
0.0
 30
0.0
 70
    16
 71
     2
 72
     7
  0
VERTEX
  5
1C8
330
1C7
100
AcDbEntity
  8
ACESSORIOS
100
AcDbVertex
100
AcDbPolygonMeshVertex
 10
-10.00000000000002
 20
-35.30000931365267
 30
-28.49998846413862
 70
    64
  0
VERTEX
  5
1C9
330
1C7
100
AcDbEntity
  8
ACESSORIOS
100
AcDbVertex
100
AcDbPolygonMeshVertex
 10
-8.964723819589945
 20
-35.30000926911162
 30
-28.36369176929491
 70
    64
  0
VERTEX
  5
1CA
330
1C7
100
AcDbEntity
  8
ACESSORIOS
100
AcDbVertex
100
AcDbPolygonMeshVertex
 10
-8.000000000000025
 20
-35.30000913852381
 30
-27.96409007927641
 70
    64
  0
VERTEX
  5
1CB
330
1C7
100
AcDbEntity
  8
ACESSORIOS
100
AcDbVertex
100
AcDbPolygonMeshVertex
 10
-7.171572875253833
 20
-35.30000893078864
 30
-27.32841558888488
 70
    64
  0
VERTEX
  5
1CC
330
1C7
100
AcDbEntity
  8
ACESSORIOS
100
AcDbVertex
100
AcDbPolygonMeshVertex
 10
-6.535898384862264
 20
-35.30000866006289
 30
-26.49998846413873
 70
    64
  0
VERTEX
  5
1CD
330
1C7
100
AcDbEntity
  8
ACESSORIOS
100
AcDbVertex
100
AcDbPolygonMeshVertex
 10
-6.136296694843745
 20
-35.30000834479606
 30
-25.53526464454887
 70
    64
  0
VERTEX
  5
1CE
330
1C7
100
AcDbEntity
  8
ACESSORIOS
100
AcDbVertex
100
AcDbPolygonMeshVertex
 10
-6.000000000000014
 20
-35.30000800647309
 30
-24.49998846413884
 70
    64
  0
VERTEX
  5
1CF
330
1C7
100
AcDbEntity
  8
ACESSORIOS
100
AcDbVertex
100
AcDbPolygonMeshVertex
 10
-21.99999999999999
 20
-35.30000931365267
 30
-28.49998846413864
 70
    64
  0
VERTEX
  5
1D0
330
1C7
100
AcDbEntity
  8
ACESSORIOS
100
AcDbVertex
100
AcDbPolygonMeshVertex
 10
-23.03527618041007
 20
-35.30000926911162
 30
-28.36369176929491
 70
    64
  0
VERTEX
  5
1D1
330
1C7
100
AcDbEntity
  8
ACESSORIOS
100
AcDbVertex
100
AcDbPolygonMeshVertex
 10
-23.99999999999999
 20
-35.30000913852381
 30
-27.96409007927641
 70
    64
  0
VERTEX
  5
1D2
330
1C7
100
AcDbEntity
  8
ACESSORIOS
100
AcDbVertex
100
AcDbPolygonMeshVertex
 10
-24.82842712474618
 20
-35.30000893078864
 30
-27.32841558888489
 70
    64
  0
VERTEX
  5
1D3
330
1C7
100
AcDbEntity
  8
ACESSORIOS
100
AcDbVertex
100
AcDbPolygonMeshVertex
 10
-25.46410161513776
 20
-35.30000866006289
 30
-26.49998846413874
 70
    64
  0
VERTEX
  5
1D4
330
1C7
100
AcDbEntity
  8
ACESSORIOS
100
AcDbVertex
100
AcDbPolygonMeshVertex
 10
-25.86370330515627
 20
-35.30000834479606
 30
-25.53526464454887
 70
    64
  0
VERTEX
  5
1D5
330
1C7
100
AcDbEntity
  8
ACESSORIOS
100
AcDbVertex
100
AcDbPolygonMeshVertex
 10
-26.00000000000001
 20
-35.30000800647309
 30
-24.49998846413884
 70
    64
  0
SEQEND
  5
450
330
1C7
100
AcDbEntity
  8
ACESSORIOS
  0
3DFACE
  5
1E5
330
1F
100
AcDbEntity
  8
ACESSORIOS
100
AcDbFace
 10
-6.000000000000014
 20
-38.00000273920559
 30
-8.382026747060419
 11
-6.000000000000014
 21
-35.30000273920579
 31
-8.382027629406638
 12
-6.000000000000014
 22
-35.30000800647309
 32
-24.49998846413884
 13
-6.000000000000014
 23
-38.50000800647299
 33
-24.49998741839524
  0
3DFACE
  5
1E6
330
1F
100
AcDbEntity
  8
ACESSORIOS
100
AcDbFace
 10
-26.00000000000001
 20
-38.50000800647299
 30
-24.49998741839524
 11
-26.00000000000001
 21
-35.30000800647309
 31
-24.49998846413884
 12
-26.00000000000001
 22
-35.29999199352319
 32
24.50001153585856
 13
-26.00000000000001
 23
-38.49999199352299
 33
24.50001258160216
  0
3DFACE
  5
1E7
330
1F
100
AcDbEntity
  8
ACESSORIOS
100
AcDbFace
 10
-22.00000000000001
 20
-38.49999068634339
 30
28.50001258160196
 11
-22.00000000000001
 21
-35.29999068634358
 31
28.50001153585826
 12
-10.00000000000001
 22
-35.29999068634358
 32
28.50001153585826
 13
-10.00000000000001
 23
-38.49999068634339
 33
28.50001258160196
  0
POLYLINE
  5
1E8
330
1F
100
AcDbEntity
  8
ACESSORIOS
100
AcDbPolygonMesh
 66
     1
 10
0.0
 20
0.0
 30
0.0
 70
    16
 71
     2
 72
     7
  0
VERTEX
  5
1E9
330
1E8
100
AcDbEntity
  8
ACESSORIOS
100
AcDbVertex
100
AcDbPolygonMeshVertex
 10
-26.00000000000002
 20
-35.29999199352317
 30
24.50001153585852
 70
    64
  0
VERTEX
  5
1EA
330
1E8
100
AcDbEntity
  8
ACESSORIOS
100
AcDbVertex
100
AcDbPolygonMeshVertex
 10
-25.86370330515631
 20
-35.29999165520021
 30
25.53528771626855
 70
    64
  0
VERTEX
  5
1EB
330
1E8
100
AcDbEntity
  8
ACESSORIOS
100
AcDbVertex
100
AcDbPolygonMeshVertex
 10
-25.46410161513779
 20
-35.29999133993338
 30
26.50001153585841
 70
    64
  0
VERTEX
  5
1EC
330
1E8
100
AcDbEntity
  8
ACESSORIOS
100
AcDbVertex
100
AcDbPolygonMeshVertex
 10
-24.82842712474621
 20
-35.29999106920763
 30
27.32843866060456
 70
    64
  0
VERTEX
  5
1ED
330
1E8
100
AcDbEntity
  8
ACESSORIOS
100
AcDbVertex
100
AcDbPolygonMeshVertex
 10
-24.00000000000002
 20
-35.29999086147244
 30
27.9641131509961
 70
    64
  0
VERTEX
  5
1EE
330
1E8
100
AcDbEntity
  8
ACESSORIOS
100
AcDbVertex
100
AcDbPolygonMeshVertex
 10
-23.0352761804101
 20
-35.29999073088465
 30
28.36371484101459
 70
    64
  0
VERTEX
  5
1EF
330
1E8
100
AcDbEntity
  8
ACESSORIOS
100
AcDbVertex
100
AcDbPolygonMeshVertex
 10
-22.00000000000001
 20
-35.29999068634358
 30
28.50001153585832
 70
    64
  0
VERTEX
  5
1F0
330
1E8
100
AcDbEntity
  8
ACESSORIOS
100
AcDbVertex
100
AcDbPolygonMeshVertex
 10
-6.000000000000014
 20
-35.29999199352317
 30
24.50001153585851
 70
    64
  0
VERTEX
  5
1F1
330
1E8
100
AcDbEntity
  8
ACESSORIOS
100
AcDbVertex
100
AcDbPolygonMeshVertex
 10
-6.136296694843745
 20
-35.29999165520021
 30
25.53528771626855
 70
    64
  0
VERTEX
  5
1F2
330
1E8
100
AcDbEntity
  8
ACESSORIOS
100
AcDbVertex
100
AcDbPolygonMeshVertex
 10
-6.535898384862264
 20
-35.29999133993338
 30
26.50001153585841
 70
    64
  0
VERTEX
  5
1F3
330
1E8
100
AcDbEntity
  8
ACESSORIOS
100
AcDbVertex
100
AcDbPolygonMeshVertex
 10
-7.171572875253823
 20
-35.29999106920763
 30
27.32843866060456
 70
    64
  0
VERTEX
  5
1F4
330
1E8
100
AcDbEntity
  8
ACESSORIOS
100
AcDbVertex
100
AcDbPolygonMeshVertex
 10
-8.000000000000014
 20
-35.29999086147244
 30
27.96411315099608
 70
    64
  0
VERTEX
  5
1F5
330
1E8
100
AcDbEntity
  8
ACESSORIOS
100
AcDbVertex
100
AcDbPolygonMeshVertex
 10
-8.964723819589935
 20
-35.29999073088465
 30
28.36371484101458
 70
    64
  0
VERTEX
  5
1F6
330
1E8
100
AcDbEntity
  8
ACESSORIOS
100
AcDbVertex
100
AcDbPolygonMeshVertex
 10
-10.00000000000001
 20
-35.29999068634358
 30
28.5000115358583
 70
    64
  0
SEQEND
  5
451
330
1E8
100
AcDbEntity
  8
ACESSORIOS
  0
POLYLINE
  5
206
330
1F
100
AcDbEntity
  8
ACESSORIOS
100
AcDbPolygonMesh
 66
     1
 10
0.0
 20
0.0
 30
0.0
 70
    16
 71
     2
 72
     7
  0
VERTEX
  5
207
330
206
100
AcDbEntity
  8
ACESSORIOS
100
AcDbVertex
100
AcDbPolygonMeshVertex
 10
-26.00000000000002
 20
-38.49999199352299
 30
24.50001258160219
 70
    64
  0
VERTEX
  5
208
330
206
100
AcDbEntity
  8
ACESSORIOS
100
AcDbVertex
100
AcDbPolygonMeshVertex
 10
-25.86370330515631
 20
-38.49999165520004
 30
25.53528876201222
 70
    64
  0
VERTEX
  5
209
330
206
100
AcDbEntity
  8
ACESSORIOS
100
AcDbVertex
100
AcDbPolygonMeshVertex
 10
-25.46410161513779
 20
-38.49999133993321
 30
26.50001258160208
 70
    64
  0
VERTEX
  5
20A
330
206
100
AcDbEntity
  8
ACESSORIOS
100
AcDbVertex
100
AcDbPolygonMeshVertex
 10
-24.82842712474621
 20
-38.49999106920745
 30
27.32843970634823
 70
    64
  0
VERTEX
  5
20B
330
206
100
AcDbEntity
  8
ACESSORIOS
100
AcDbVertex
100
AcDbPolygonMeshVertex
 10
-24.00000000000002
 20
-38.49999086147226
 30
27.96411419673977
 70
    64
  0
VERTEX
  5
20C
330
206
100
AcDbEntity
  8
ACESSORIOS
100
AcDbVertex
100
AcDbPolygonMeshVertex
 10
-23.0352761804101
 20
-38.49999073088448
 30
28.36371588675826
 70
    64
  0
VERTEX
  5
20D
330
206
100
AcDbEntity
  8
ACESSORIOS
100
AcDbVertex
100
AcDbPolygonMeshVertex
 10
-22.00000000000001
 20
-38.49999068634342
 30
28.50001258160198
 70
    64
  0
VERTEX
  5
20E
330
206
100
AcDbEntity
  8
ACESSORIOS
100
AcDbVertex
100
AcDbPolygonMeshVertex
 10
-6.000000000000014
 20
-38.49999199352299
 30
24.50001258160218
 70
    64
  0
VERTEX
  5
20F
330
206
100
AcDbEntity
  8
ACESSORIOS
100
AcDbVertex
100
AcDbPolygonMeshVertex
 10
-6.136296694843745
 20
-38.49999165520004
 30
25.53528876201221
 70
    64
  0
VERTEX
  5
210
330
206
100
AcDbEntity
  8
ACESSORIOS
100
AcDbVertex
100
AcDbPolygonMeshVertex
 10
-6.535898384862264
 20
-38.49999133993321
 30
26.50001258160208
 70
    64
  0
VERTEX
  5
211
330
206
100
AcDbEntity
  8
ACESSORIOS
100
AcDbVertex
100
AcDbPolygonMeshVertex
 10
-7.171572875253823
 20
-38.49999106920745
 30
27.32843970634823
 70
    64
  0
VERTEX
  5
212
330
206
100
AcDbEntity
  8
ACESSORIOS
100
AcDbVertex
100
AcDbPolygonMeshVertex
 10
-8.000000000000014
 20
-38.49999086147226
 30
27.96411419673975
 70
    64
  0
VERTEX
  5
213
330
206
100
AcDbEntity
  8
ACESSORIOS
100
AcDbVertex
100
AcDbPolygonMeshVertex
 10
-8.964723819589935
 20
-38.49999073088448
 30
28.36371588675825
 70
    64
  0
VERTEX
  5
214
330
206
100
AcDbEntity
  8
ACESSORIOS
100
AcDbVertex
100
AcDbPolygonMeshVertex
 10
-10.00000000000001
 20
-38.49999068634342
 30
28.50001258160197
 70
    64
  0
SEQEND
  5
452
330
206
100
AcDbEntity
  8
ACESSORIOS
  0
3DFACE
  5
224
330
1F
100
AcDbEntity
  8
ACESSORIOS
100
AcDbFace
 10
-19.42323488914441
 20
-50.99999614611789
 30
11.79297750127216
 11
-3.560815559085814
 21
-50.99999614611789
 31
11.79297750127216
 12
-3.560815559085814
 22
-38.4999961461186
 32
11.79297341633596
 13
-19.42323488914441
 23
-38.4999961461186
 33
11.79297341633596
  0
3DFACE
  5
225
330
1F
100
AcDbEntity
  8
ACESSORIOS
100
AcDbFace
 10
-3.560815559085814
 20
-50.99999614611789
 30
11.79297750127216
 11
-1.251414875456014
 21
-50.9999974532975
 31
7.792977501272371
 12
-1.251414875456014
 22
-38.4999974532981
 32
7.792973416336159
 13
-3.560815559085814
 23
-38.4999961461186
 33
11.79297341633596
  0
LINE
  5
226
330
1F
100
AcDbEntity
  8
ACESSORIOS
100
AcDbLine
 10
-1.251414875456014
 20
-51.00000255129789
 30
-7.807022498726788
 11
-1.251414875456014
 21
-51.00000000229769
 31
-0.0070224987272085
  0
LINE
  5
227
330
1F
100
AcDbEntity
  8
ACESSORIOS
100
AcDbLine
 10
-1.251414875456014
 20
-51.00000000229769
 30
-0.0070224987272085
 11
-1.251414875456014
 21
-50.9999974532975
 31
7.792977501272371
  0
LINE
  5
228
330
1F
100
AcDbEntity
  8
ACESSORIOS
100
AcDbLine
 10
-1.251414875456014
 20
-38.5000025512985
 30
-7.807026583662999
 11
-1.251414875456014
 21
-38.50000000229829
 31
-0.0070265836634191
  0
LINE
  5
229
330
1F
100
AcDbEntity
  8
ACESSORIOS
100
AcDbLine
 10
-1.251414875456014
 20
-38.50000000229829
 30
-0.0070265836634191
 11
-1.251414875456014
 21
-38.4999974532981
 31
7.792973416336159
  0
POLYLINE
  5
22A
330
1F
100
AcDbEntity
  8
ACESSORIOS
100
AcDbPolygonMesh
 66
     1
 10
0.0
 20
0.0
 30
0.0
 70
    16
 71
     2
 72
     7
  0
VERTEX
  5
22B
330
22A
100
AcDbEntity
  8
ACESSORIOS
100
AcDbVertex
100
AcDbPolygonMeshVertex
 10
9.165567337316565
 20
-51.00000255129788
 30
-7.807022498726787
 70
    64
  0
VERTEX
  5
22C
330
22A
100
AcDbEntity
  8
ACESSORIOS
100
AcDbVertex
100
AcDbPolygonMeshVertex
 10
9.719125751961794
 20
-51.00000214996329
 30
-6.578929363712795
 70
    64
  0
VERTEX
  5
22D
330
22A
100
AcDbEntity
  8
ACESSORIOS
100
AcDbVertex
100
AcDbPolygonMeshVertex
 10
10.17658010473406
 20
-51.00000173590305
 30
-5.311895353978746
 70
    64
  0
VERTEX
  5
22E
330
22A
100
AcDbEntity
  8
ACESSORIOS
100
AcDbVertex
100
AcDbPolygonMeshVertex
 10
10.53521981664808
 20
-51.00000131157058
 30
-4.01342809457971
 70
    64
  0
VERTEX
  5
22F
330
22A
100
AcDbEntity
  8
ACESSORIOS
100
AcDbVertex
100
AcDbPolygonMeshVertex
 10
10.7929198204474
 20
-51.0000008794802
 30
-2.691221463702809
 70
    64
  0
VERTEX
  5
230
330
22A
100
AcDbEntity
  8
ACESSORIOS
100
AcDbVertex
100
AcDbPolygonMeshVertex
 10
10.94815315238018
 20
-51.0000004421922
 30
-1.353110003715241
 70
    64
  0
VERTEX
  5
231
330
22A
100
AcDbEntity
  8
ACESSORIOS
100
AcDbVertex
100
AcDbPolygonMeshVertex
 10
10.99999999999999
 20
-51.00000000229769
 30
-0.007022498727207
 70
    64
  0
VERTEX
  5
232
330
22A
100
AcDbEntity
  8
ACESSORIOS
100
AcDbVertex
100
AcDbPolygonMeshVertex
 10
-1.251414875456014
 20
-51.00000255129789
 30
-7.807022498726788
 70
    64
  0
VERTEX
  5
233
330
22A
100
AcDbEntity
  8
ACESSORIOS
100
AcDbVertex
100
AcDbPolygonMeshVertex
 10
-1.251414875456014
 20
-51.00000212646452
 30
-6.507022498726857
 70
    64
  0
VERTEX
  5
234
330
22A
100
AcDbEntity
  8
ACESSORIOS
100
AcDbVertex
100
AcDbPolygonMeshVertex
 10
-1.251414875456014
 20
-51.00000170163117
 30
-5.207022498726928
 70
    64
  0
VERTEX
  5
235
330
22A
100
AcDbEntity
  8
ACESSORIOS
100
AcDbVertex
100
AcDbPolygonMeshVertex
 10
-1.251414875456014
 20
-51.00000127679778
 30
-3.907022498726997
 70
    64
  0
VERTEX
  5
236
330
22A
100
AcDbEntity
  8
ACESSORIOS
100
AcDbVertex
100
AcDbPolygonMeshVertex
 10
-1.251414875456014
 20
-51.00000085196442
 30
-2.607022498727068
 70
    64
  0
VERTEX
  5
237
330
22A
100
AcDbEntity
  8
ACESSORIOS
100
AcDbVertex
100
AcDbPolygonMeshVertex
 10
-1.251414875456014
 20
-51.00000042713105
 30
-1.307022498727139
 70
    64
  0
VERTEX
  5
238
330
22A
100
AcDbEntity
  8
ACESSORIOS
100
AcDbVertex
100
AcDbPolygonMeshVertex
 10
-1.251414875456014
 20
-51.00000000229769
 30
-0.0070224987272085
 70
    64
  0
SEQEND
  5
453
330
22A
100
AcDbEntity
  8
ACESSORIOS
  0
POLYLINE
  5
248
330
1F
100
AcDbEntity
  8
ACESSORIOS
100
AcDbPolygonMesh
 66
     1
 10
0.0
 20
0.0
 30
0.0
 70
    16
 71
     2
 72
     7
  0
VERTEX
  5
249
330
248
100
AcDbEntity
  8
ACESSORIOS
100
AcDbVertex
100
AcDbPolygonMeshVertex
 10
10.99999999999999
 20
-51.00000000229769
 30
-0.007022498727207
 70
    64
  0
VERTEX
  5
24A
330
248
100
AcDbEntity
  8
ACESSORIOS
100
AcDbVertex
100
AcDbPolygonMeshVertex
 10
10.94815315238018
 20
-50.99999956240314
 30
1.339065006260821
 70
    64
  0
VERTEX
  5
24B
330
248
100
AcDbEntity
  8
ACESSORIOS
100
AcDbVertex
100
AcDbPolygonMeshVertex
 10
10.7929198204474
 20
-50.99999912511515
 30
2.677176466248391
 70
    64
  0
VERTEX
  5
24C
330
248
100
AcDbEntity
  8
ACESSORIOS
100
AcDbVertex
100
AcDbPolygonMeshVertex
 10
10.53521981664808
 20
-50.99999869302477
 30
3.999383097125293
 70
    64
  0
VERTEX
  5
24D
330
248
100
AcDbEntity
  8
ACESSORIOS
100
AcDbVertex
100
AcDbPolygonMeshVertex
 10
10.17658010473406
 20
-50.9999982686923
 30
5.29785035652433
 70
    64
  0
VERTEX
  5
24E
330
248
100
AcDbEntity
  8
ACESSORIOS
100
AcDbVertex
100
AcDbPolygonMeshVertex
 10
9.719125751961794
 20
-50.99999785463205
 30
6.564884366258378
 70
    64
  0
VERTEX
  5
24F
330
248
100
AcDbEntity
  8
ACESSORIOS
100
AcDbVertex
100
AcDbPolygonMeshVertex
 10
9.165567337316563
 20
-50.99999745329747
 30
7.792977501272374
 70
    64
  0
VERTEX
  5
250
330
248
100
AcDbEntity
  8
ACESSORIOS
100
AcDbVertex
100
AcDbPolygonMeshVertex
 10
-1.251414875456014
 20
-51.00000000229769
 30
-0.0070224987272085
 70
    64
  0
VERTEX
  5
251
330
248
100
AcDbEntity
  8
ACESSORIOS
100
AcDbVertex
100
AcDbPolygonMeshVertex
 10
-1.251414875456014
 20
-50.9999995774643
 30
1.29297750127272
 70
    64
  0
VERTEX
  5
252
330
248
100
AcDbEntity
  8
ACESSORIOS
100
AcDbVertex
100
AcDbPolygonMeshVertex
 10
-1.251414875456014
 20
-50.99999915263096
 30
2.59297750127265
 70
    64
  0
VERTEX
  5
253
330
248
100
AcDbEntity
  8
ACESSORIOS
100
AcDbVertex
100
AcDbPolygonMeshVertex
 10
-1.251414875456014
 20
-50.99999872779758
 30
3.89297750127258
 70
    64
  0
VERTEX
  5
254
330
248
100
AcDbEntity
  8
ACESSORIOS
100
AcDbVertex
100
AcDbPolygonMeshVertex
 10
-1.251414875456014
 20
-50.99999830296422
 30
5.192977501272511
 70
    64
  0
VERTEX
  5
255
330
248
100
AcDbEntity
  8
ACESSORIOS
100
AcDbVertex
100
AcDbPolygonMeshVertex
 10
-1.251414875456014
 20
-50.99999787813086
 30
6.49297750127244
 70
    64
  0
VERTEX
  5
256
330
248
100
AcDbEntity
  8
ACESSORIOS
100
AcDbVertex
100
AcDbPolygonMeshVertex
 10
-1.251414875456014
 20
-50.9999974532975
 30
7.792977501272371
 70
    64
  0
SEQEND
  5
454
330
248
100
AcDbEntity
  8
ACESSORIOS
  0
POLYLINE
  5
266
330
1F
100
AcDbEntity
  8
ACESSORIOS
100
AcDbPolygonMesh
 66
     1
 10
0.0
 20
0.0
 30
0.0
 70
    16
 71
     2
 72
     7
  0
VERTEX
  5
267
330
266
100
AcDbEntity
  8
ACESSORIOS
100
AcDbVertex
100
AcDbPolygonMeshVertex
 10
9.165567337316565
 20
-38.50000255129853
 30
-7.807026583662997
 70
    64
  0
VERTEX
  5
268
330
266
100
AcDbEntity
  8
ACESSORIOS
100
AcDbVertex
100
AcDbPolygonMeshVertex
 10
9.719125751961794
 20
-38.50000214996395
 30
-6.578933448649002
 70
    64
  0
VERTEX
  5
269
330
266
100
AcDbEntity
  8
ACESSORIOS
100
AcDbVertex
100
AcDbPolygonMeshVertex
 10
10.17658010473406
 20
-38.5000017359037
 30
-5.311899438914956
 70
    64
  0
VERTEX
  5
26A
330
266
100
AcDbEntity
  8
ACESSORIOS
100
AcDbVertex
100
AcDbPolygonMeshVertex
 10
10.53521981664808
 20
-38.50000131157123
 30
-4.013432179515918
 70
    64
  0
VERTEX
  5
26B
330
266
100
AcDbEntity
  8
ACESSORIOS
100
AcDbVertex
100
AcDbPolygonMeshVertex
 10
10.7929198204474
 20
-38.50000087948086
 30
-2.691225548639017
 70
    64
  0
VERTEX
  5
26C
330
266
100
AcDbEntity
  8
ACESSORIOS
100
AcDbVertex
100
AcDbPolygonMeshVertex
 10
10.94815315238018
 20
-38.50000044219285
 30
-1.353114088651449
 70
    64
  0
VERTEX
  5
26D
330
266
100
AcDbEntity
  8
ACESSORIOS
100
AcDbVertex
100
AcDbPolygonMeshVertex
 10
10.99999999999999
 20
-38.50000000229831
 30
-0.0070265836634157
 70
    64
  0
VERTEX
  5
26E
330
266
100
AcDbEntity
  8
ACESSORIOS
100
AcDbVertex
100
AcDbPolygonMeshVertex
 10
-1.251414875456014
 20
-38.5000025512985
 30
-7.807026583662999
 70
    64
  0
VERTEX
  5
26F
330
266
100
AcDbEntity
  8
ACESSORIOS
100
AcDbVertex
100
AcDbPolygonMeshVertex
 10
-1.251414875456014
 20
-38.50000212646511
 30
-6.50702658366307
 70
    64
  0
VERTEX
  5
270
330
266
100
AcDbEntity
  8
ACESSORIOS
100
AcDbVertex
100
AcDbPolygonMeshVertex
 10
-1.251414875456014
 20
-38.50000170163175
 30
-5.207026583663137
 70
    64
  0
VERTEX
  5
271
330
266
100
AcDbEntity
  8
ACESSORIOS
100
AcDbVertex
100
AcDbPolygonMeshVertex
 10
-1.251414875456014
 20
-38.50000127679839
 30
-3.907026583663209
 70
    64
  0
VERTEX
  5
272
330
266
100
AcDbEntity
  8
ACESSORIOS
100
AcDbVertex
100
AcDbPolygonMeshVertex
 10
-1.251414875456014
 20
-38.50000085196502
 30
-2.607026583663278
 70
    64
  0
VERTEX
  5
273
330
266
100
AcDbEntity
  8
ACESSORIOS
100
AcDbVertex
100
AcDbPolygonMeshVertex
 10
-1.251414875456014
 20
-38.50000042713165
 30
-1.307026583663349
 70
    64
  0
VERTEX
  5
274
330
266
100
AcDbEntity
  8
ACESSORIOS
100
AcDbVertex
100
AcDbPolygonMeshVertex
 10
-1.251414875456014
 20
-38.50000000229829
 30
-0.0070265836634191
 70
    64
  0
SEQEND
  5
455
330
266
100
AcDbEntity
  8
ACESSORIOS
  0
POLYLINE
  5
284
330
1F
100
AcDbEntity
  8
ACESSORIOS
100
AcDbPolygonMesh
 66
     1
 10
0.0
 20
0.0
 30
0.0
 70
    16
 71
     2
 72
     7
  0
VERTEX
  5
285
330
284
100
AcDbEntity
  8
ACESSORIOS
100
AcDbVertex
100
AcDbPolygonMeshVertex
 10
10.99999999999999
 20
-38.50000000229831
 30
-0.0070265836634157
 70
    64
  0
VERTEX
  5
286
330
284
100
AcDbEntity
  8
ACESSORIOS
100
AcDbVertex
100
AcDbPolygonMeshVertex
 10
10.94815315238018
 20
-38.49999956240381
 30
1.339060921324614
 70
    64
  0
VERTEX
  5
287
330
284
100
AcDbEntity
  8
ACESSORIOS
100
AcDbVertex
100
AcDbPolygonMeshVertex
 10
10.7929198204474
 20
-38.4999991251158
 30
2.677172381312181
 70
    64
  0
VERTEX
  5
288
330
284
100
AcDbEntity
  8
ACESSORIOS
100
AcDbVertex
100
AcDbPolygonMeshVertex
 10
10.53521981664808
 20
-38.49999869302544
 30
3.999379012189082
 70
    64
  0
VERTEX
  5
289
330
284
100
AcDbEntity
  8
ACESSORIOS
100
AcDbVertex
100
AcDbPolygonMeshVertex
 10
10.17658010473406
 20
-38.49999826869296
 30
5.297846271588122
 70
    64
  0
VERTEX
  5
28A
330
284
100
AcDbEntity
  8
ACESSORIOS
100
AcDbVertex
100
AcDbPolygonMeshVertex
 10
9.719125751961794
 20
-38.4999978546327
 30
6.564880281322169
 70
    64
  0
VERTEX
  5
28B
330
284
100
AcDbEntity
  8
ACESSORIOS
100
AcDbVertex
100
AcDbPolygonMeshVertex
 10
9.165567337316563
 20
-38.49999745329814
 30
7.792973416336165
 70
    64
  0
VERTEX
  5
28C
330
284
100
AcDbEntity
  8
ACESSORIOS
100
AcDbVertex
100
AcDbPolygonMeshVertex
 10
-1.251414875456014
 20
-38.50000000229829
 30
-0.0070265836634191
 70
    64
  0
VERTEX
  5
28D
330
284
100
AcDbEntity
  8
ACESSORIOS
100
AcDbVertex
100
AcDbPolygonMeshVertex
 10
-1.251414875456014
 20
-38.49999957746493
 30
1.292973416336509
 70
    64
  0
VERTEX
  5
28E
330
284
100
AcDbEntity
  8
ACESSORIOS
100
AcDbVertex
100
AcDbPolygonMeshVertex
 10
-1.251414875456014
 20
-38.49999915263155
 30
2.592973416336439
 70
    64
  0
VERTEX
  5
28F
330
284
100
AcDbEntity
  8
ACESSORIOS
100
AcDbVertex
100
AcDbPolygonMeshVertex
 10
-1.251414875456014
 20
-38.49999872779818
 30
3.892973416336369
 70
    64
  0
VERTEX
  5
290
330
284
100
AcDbEntity
  8
ACESSORIOS
100
AcDbVertex
100
AcDbPolygonMeshVertex
 10
-1.251414875456014
 20
-38.49999830296482
 30
5.192973416336298
 70
    64
  0
VERTEX
  5
291
330
284
100
AcDbEntity
  8
ACESSORIOS
100
AcDbVertex
100
AcDbPolygonMeshVertex
 10
-1.251414875456014
 20
-38.49999787813146
 30
6.49297341633623
 70
    64
  0
VERTEX
  5
292
330
284
100
AcDbEntity
  8
ACESSORIOS
100
AcDbVertex
100
AcDbPolygonMeshVertex
 10
-1.251414875456014
 20
-38.4999974532981
 30
7.792973416336159
 70
    64
  0
SEQEND
  5
456
330
284
100
AcDbEntity
  8
ACESSORIOS
  0
POLYLINE
  5
2A2
330
1F
100
AcDbEntity
  8
ACESSORIOS
100
AcDbPolygonMesh
 66
     1
 10
0.0
 20
0.0
 30
0.0
 70
    16
 71
     2
 72
     7
  0
VERTEX
  5
2A3
330
2A2
100
AcDbEntity
  8
ACESSORIOS
100
AcDbVertex
100
AcDbPolygonMeshVertex
 10
-19.42323488914445
 20
-50.99999614611789
 30
11.79297750127217
 70
    64
  0
VERTEX
  5
2A4
330
2A2
100
AcDbEntity
  8
ACESSORIOS
100
AcDbVertex
100
AcDbPolygonMeshVertex
 10
-19.42323488914445
 20
-50.99999743151115
 30
7.859644167939043
 70
    64
  0
VERTEX
  5
2A5
330
2A2
100
AcDbEntity
  8
ACESSORIOS
100
AcDbVertex
100
AcDbPolygonMeshVertex
 10
-19.42323488914445
 20
-50.99999871690442
 30
3.926310834605915
 70
    64
  0
VERTEX
  5
2A6
330
2A2
100
AcDbEntity
  8
ACESSORIOS
100
AcDbVertex
100
AcDbPolygonMeshVertex
 10
-19.42323488914445
 20
-51.00000000229769
 30
-0.0070224987272098
 70
    64
  0
VERTEX
  5
2A7
330
2A2
100
AcDbEntity
  8
ACESSORIOS
100
AcDbVertex
100
AcDbPolygonMeshVertex
 10
-19.42323488914445
 20
-51.00000128769093
 30
-3.940355832060335
 70
    64
  0
VERTEX
  5
2A8
330
2A2
100
AcDbEntity
  8
ACESSORIOS
100
AcDbVertex
100
AcDbPolygonMeshVertex
 10
-19.42323488914445
 20
-51.0000025730842
 30
-7.87368916539346
 70
    64
  0
VERTEX
  5
2A9
330
2A2
100
AcDbEntity
  8
ACESSORIOS
100
AcDbVertex
100
AcDbPolygonMeshVertex
 10
-19.42323488914445
 20
-51.00000385847746
 30
-11.80702249872659
 70
    64
  0
VERTEX
  5
2AA
330
2A2
100
AcDbEntity
  8
ACESSORIOS
100
AcDbVertex
100
AcDbPolygonMeshVertex
 10
-19.42323488914445
 20
-50.99999614611789
 30
11.79297750127217
 70
    64
  0
VERTEX
  5
2AB
330
2A2
100
AcDbEntity
  8
ACESSORIOS
100
AcDbVertex
100
AcDbPolygonMeshVertex
 10
-21.91330255698331
 20
-50.99999729403529
 30
8.280323535250425
 70
    64
  0
VERTEX
  5
2AC
330
2A2
100
AcDbEntity
  8
ACESSORIOS
100
AcDbVertex
100
AcDbPolygonMeshVertex
 10
-23.47030928927355
 20
-50.99999860590027
 30
4.265986116568834
 70
    64
  0
VERTEX
  5
2AD
330
2A2
100
AcDbEntity
  8
ACESSORIOS
100
AcDbVertex
100
AcDbPolygonMeshVertex
 10
-24.00000000000001
 20
-51.00000000229769
 30
-0.0070224987272105
 70
    64
  0
VERTEX
  5
2AE
330
2A2
100
AcDbEntity
  8
ACESSORIOS
100
AcDbVertex
100
AcDbPolygonMeshVertex
 10
-23.47030928927355
 20
-51.00000139869507
 30
-4.280031114023253
 70
    64
  0
VERTEX
  5
2AF
330
2A2
100
AcDbEntity
  8
ACESSORIOS
100
AcDbVertex
100
AcDbPolygonMeshVertex
 10
-21.91330255698331
 20
-51.00000271056006
 30
-8.294368532704844
 70
    64
  0
VERTEX
  5
2B0
330
2A2
100
AcDbEntity
  8
ACESSORIOS
100
AcDbVertex
100
AcDbPolygonMeshVertex
 10
-19.42323488914445
 20
-51.00000385847746
 30
-11.80702249872659
 70
    64
  0
SEQEND
  5
457
330
2A2
100
AcDbEntity
  8
ACESSORIOS
  0
POLYLINE
  5
2C0
330
1F
100
AcDbEntity
  8
ACESSORIOS
100
AcDbPolygonMesh
 66
     1
 10
0.0
 20
0.0
 30
0.0
 70
    16
 71
     2
 72
     7
  0
VERTEX
  5
2C1
330
2C0
100
AcDbEntity
  8
ACESSORIOS
100
AcDbVertex
100
AcDbPolygonMeshVertex
 10
-19.42323488914445
 20
-38.4999961461186
 30
11.79297341633597
 70
    64
  0
VERTEX
  5
2C2
330
2C0
100
AcDbEntity
  8
ACESSORIOS
100
AcDbVertex
100
AcDbPolygonMeshVertex
 10
-19.42323488914445
 20
-38.49999743151186
 30
7.859640083002841
 70
    64
  0
VERTEX
  5
2C3
330
2C0
100
AcDbEntity
  8
ACESSORIOS
100
AcDbVertex
100
AcDbPolygonMeshVertex
 10
-19.42323488914445
 20
-38.49999871690512
 30
3.926306749669715
 70
    64
  0
VERTEX
  5
2C4
330
2C0
100
AcDbEntity
  8
ACESSORIOS
100
AcDbVertex
100
AcDbPolygonMeshVertex
 10
-19.42323488914445
 20
-38.50000000229837
 30
-0.0070265836634107
 70
    64
  0
VERTEX
  5
2C5
330
2C0
100
AcDbEntity
  8
ACESSORIOS
100
AcDbVertex
100
AcDbPolygonMeshVertex
 10
-19.42323488914445
 20
-38.50000128769164
 30
-3.940359916996535
 70
    64
  0
VERTEX
  5
2C6
330
2C0
100
AcDbEntity
  8
ACESSORIOS
100
AcDbVertex
100
AcDbPolygonMeshVertex
 10
-19.42323488914445
 20
-38.50000257308491
 30
-7.873693250329661
 70
    64
  0
VERTEX
  5
2C7
330
2C0
100
AcDbEntity
  8
ACESSORIOS
100
AcDbVertex
100
AcDbPolygonMeshVertex
 10
-19.42323488914445
 20
-38.50000385847816
 30
-11.80702658366279
 70
    64
  0
VERTEX
  5
2C8
330
2C0
100
AcDbEntity
  8
ACESSORIOS
100
AcDbVertex
100
AcDbPolygonMeshVertex
 10
-19.42323488914445
 20
-38.4999961461186
 30
11.79297341633597
 70
    64
  0
VERTEX
  5
2C9
330
2C0
100
AcDbEntity
  8
ACESSORIOS
100
AcDbVertex
100
AcDbPolygonMeshVertex
 10
-21.91330255698331
 20
-38.499997294036
 30
8.280319450314225
 70
    64
  0
VERTEX
  5
2CA
330
2C0
100
AcDbEntity
  8
ACESSORIOS
100
AcDbVertex
100
AcDbPolygonMeshVertex
 10
-23.47030928927355
 20
-38.49999860590096
 30
4.265982031632633
 70
    64
  0
VERTEX
  5
2CB
330
2C0
100
AcDbEntity
  8
ACESSORIOS
100
AcDbVertex
100
AcDbPolygonMeshVertex
 10
-24.00000000000001
 20
-38.50000000229837
 30
-0.0070265836634114
 70
    64
  0
VERTEX
  5
2CC
330
2C0
100
AcDbEntity
  8
ACESSORIOS
100
AcDbVertex
100
AcDbPolygonMeshVertex
 10
-23.47030928927355
 20
-38.50000139869578
 30
-4.280035198959452
 70
    64
  0
VERTEX
  5
2CD
330
2C0
100
AcDbEntity
  8
ACESSORIOS
100
AcDbVertex
100
AcDbPolygonMeshVertex
 10
-21.91330255698331
 20
-38.50000271056077
 30
-8.294372617641045
 70
    64
  0
VERTEX
  5
2CE
330
2C0
100
AcDbEntity
  8
ACESSORIOS
100
AcDbVertex
100
AcDbPolygonMeshVertex
 10
-19.42323488914445
 20
-38.50000385847816
 30
-11.80702658366279
 70
    64
  0
SEQEND
  5
458
330
2C0
100
AcDbEntity
  8
ACESSORIOS
  0
3DFACE
  5
2DE
330
1F
100
AcDbEntity
  8
ACESSORIOS
100
AcDbFace
 10
-3.560815559085814
 20
-50.99999614611789
 30
11.79297750127216
 11
-3.560815559085814
 21
-51.00000385847749
 31
-11.80702249872654
 12
-1.251414875456014
 22
-51.00000255129789
 32
-7.807022498726788
 13
-1.251414875456014
 23
-50.9999974532975
 33
7.792977501272371
  0
3DFACE
  5
2DF
330
1F
100
AcDbEntity
  8
ACESSORIOS
100
AcDbFace
 10
-19.42323488914441
 20
-50.99999614611789
 30
11.79297750127216
 11
-19.42323488914441
 21
-51.00000385847749
 31
-11.80702249872654
 12
-3.560815559085814
 22
-51.00000385847749
 32
-11.80702249872654
 13
-3.560815559085814
 23
-50.99999614611789
 33
11.79297750127216
  0
3DFACE
  5
2E0
330
1F
100
AcDbEntity
  8
ACESSORIOS
100
AcDbFace
 10
-19.42323488914441
 20
-38.49999614611848
 30
11.79297341633595
 11
-19.42323488914441
 21
-38.50000385847809
 31
-11.80702658366275
 12
-3.560815559085814
 22
-38.50000385847809
 32
-11.80702658366275
 13
-3.560815559085814
 23
-38.49999614611848
 33
11.79297341633595
  0
3DFACE
  5
2E1
330
1F
100
AcDbEntity
  8
ACESSORIOS
100
AcDbFace
 10
-3.560815559085814
 20
-38.49999614611848
 30
11.79297341633595
 11
-3.560815559085814
 21
-38.50000385847809
 31
-11.80702658366275
 12
-1.251414875456014
 22
-38.5000025512985
 32
-7.807026583662999
 13
-1.251414875456014
 23
-38.4999974532981
 33
7.792973416336159
  0
3DFACE
  5
2E3
330
1F
100
AcDbEntity
  8
ACESSORIOS
100
AcDbFace
 10
-26.00000000000001
 20
-38.50000800647299
 30
-24.49998741839524
 11
-6.000000000000014
 21
-38.50000800647299
 31
-24.49998741839524
 12
-6.000000000000014
 22
-38.49999199352299
 32
24.50001258160216
 13
-26.00000000000001
 23
-38.49999199352299
 33
24.50001258160216
  0
3DFACE
  5
2E4
330
1F
100
AcDbEntity
  8
ACESSORIOS
100
AcDbFace
 10
-6.000000000000014
 20
-35.29999395880142
 30
18.48621437949884
 11
-6.000000000000014
 21
-38.49999395880119
 31
18.48621542524256
 12
-6.000000000000014
 22
-38.49999199352299
 32
24.50001258160216
 13
-6.000000000000014
 23
-35.29999199352319
 33
24.50001153585856
  0
3DFACE
  5
2E5
330
1F
100
AcDbEntity
  8
ACESSORIOS
100
AcDbFace
 10
-6.000000000000014
 20
-35.30000800647309
 30
-24.49998846413884
 11
-26.00000000000001
 21
-35.30000800647309
 31
-24.49998846413884
 12
-26.00000000000002
 22
-35.29999199352317
 32
24.50001153585852
 13
-6.000000000000014
 23
-35.29999199352319
 33
24.50001153585856
  0
POLYLINE
  5
2E6
330
1F
100
AcDbEntity
  8
ACESSORIOS
100
AcDbPolygonMesh
 66
     1
 10
0.0
 20
0.0
 30
0.0
 70
    16
 71
     2
 72
    21
  0
VERTEX
  5
2E7
330
2E6
100
AcDbEntity
  8
ACESSORIOS
100
AcDbVertex
100
AcDbPolygonMeshVertex
 10
-6.000000000000004
 20
-38.50000604579542
 30
-18.50026859256936
 70
    64
  0
VERTEX
  5
2E8
330
2E6
100
AcDbEntity
  8
ACESSORIOS
100
AcDbVertex
100
AcDbPolygonMeshVertex
 10
-3.162348687417184
 20
-38.50000594879895
 30
-18.20345710493815
 70
    64
  0
VERTEX
  5
2E9
330
2E6
100
AcDbEntity
  8
ACESSORIOS
100
AcDbVertex
100
AcDbPolygonMeshVertex
 10
-0.4040828825557501
 20
-38.5000057103659
 30
-17.47384640002429
 70
    64
  0
VERTEX
  5
2EA
330
2E6
100
AcDbEntity
  8
ACESSORIOS
100
AcDbVertex
100
AcDbPolygonMeshVertex
 10
2.209192499378226
 20
-38.50000533616736
 30
-16.32879015285977
 70
    64
  0
VERTEX
  5
2EB
330
2E6
100
AcDbEntity
  8
ACESSORIOS
100
AcDbVertex
100
AcDbPolygonMeshVertex
 10
4.615321117418713
 20
-38.50000483510362
 30
-14.79552334488434
 70
    64
  0
VERTEX
  5
2EC
330
2E6
100
AcDbEntity
  8
ACESSORIOS
100
AcDbVertex
100
AcDbPolygonMeshVertex
 10
6.757073583562844
 20
-38.50000421909231
 30
-12.91051448422665
 70
    64
  0
VERTEX
  5
2ED
330
2E6
100
AcDbEntity
  8
ACESSORIOS
100
AcDbVertex
100
AcDbPolygonMeshVertex
 10
8.583508654698315
 20
-38.50000350278527
 30
-10.71859820801565
 70
    64
  0
VERTEX
  5
2EE
330
2E6
100
AcDbEntity
  8
ACESSORIOS
100
AcDbVertex
100
AcDbPolygonMeshVertex
 10
10.05118486200075
 20
-38.5000027032197
 30
-8.27190889763917
 70
    64
  0
VERTEX
  5
2EF
330
2E6
100
AcDbEntity
  8
ACESSORIOS
100
AcDbVertex
100
AcDbPolygonMeshVertex
 10
11.12519375938769
 20
-38.50000183941312
 30
-5.62864067074169
 70
    64
  0
VERTEX
  5
2F0
330
2E6
100
AcDbEntity
  8
ACESSORIOS
100
AcDbVertex
100
AcDbPolygonMeshVertex
 10
11.77999021537855
 20
-38.50000093191107
 30
-2.851663243355246
 70
    64
  0
VERTEX
  5
2F1
330
2E6
100
AcDbEntity
  8
ACESSORIOS
100
AcDbVertex
100
AcDbPolygonMeshVertex
 10
11.99999999999998
 20
-38.50000000229831
 30
-0.0070265836633991
 70
    64
  0
VERTEX
  5
2F2
330
2E6
100
AcDbEntity
  8
ACESSORIOS
100
AcDbVertex
100
AcDbPolygonMeshVertex
 10
11.77999021537855
 20
-38.49999907268559
 30
2.83761007602845
 70
    64
  0
VERTEX
  5
2F3
330
2E6
100
AcDbEntity
  8
ACESSORIOS
100
AcDbVertex
100
AcDbPolygonMeshVertex
 10
11.12519375938768
 20
-38.49999816518353
 30
5.61458750341489
 70
    64
  0
VERTEX
  5
2F4
330
2E6
100
AcDbEntity
  8
ACESSORIOS
100
AcDbVertex
100
AcDbPolygonMeshVertex
 10
10.05118486200073
 20
-38.49999730137697
 30
8.257855730312375
 70
    64
  0
VERTEX
  5
2F5
330
2E6
100
AcDbEntity
  8
ACESSORIOS
100
AcDbVertex
100
AcDbPolygonMeshVertex
 10
8.583508654698292
 20
-38.49999650181137
 30
10.70454504068885
 70
    64
  0
VERTEX
  5
2F6
330
2E6
100
AcDbEntity
  8
ACESSORIOS
100
AcDbVertex
100
AcDbPolygonMeshVertex
 10
6.757073583562812
 20
-38.49999578550433
 30
12.89646131689985
 70
    64
  0
VERTEX
  5
2F7
330
2E6
100
AcDbEntity
  8
ACESSORIOS
100
AcDbVertex
100
AcDbPolygonMeshVertex
 10
4.615321117418678
 20
-38.49999516949307
 30
14.78147017755753
 70
    64
  0
VERTEX
  5
2F8
330
2E6
100
AcDbEntity
  8
ACESSORIOS
100
AcDbVertex
100
AcDbPolygonMeshVertex
 10
2.209192499378184
 20
-38.49999466842929
 30
16.31473698553296
 70
    64
  0
VERTEX
  5
2F9
330
2E6
100
AcDbEntity
  8
ACESSORIOS
100
AcDbVertex
100
AcDbPolygonMeshVertex
 10
-0.4040828825557963
 20
-38.49999429423075
 30
17.45979323269748
 70
    64
  0
VERTEX
  5
2FA
330
2E6
100
AcDbEntity
  8
ACESSORIOS
100
AcDbVertex
100
AcDbPolygonMeshVertex
 10
-3.162348687417234
 20
-38.49999405579769
 30
18.18940393761133
 70
    64
  0
VERTEX
  5
2FB
330
2E6
100
AcDbEntity
  8
ACESSORIOS
100
AcDbVertex
100
AcDbPolygonMeshVertex
 10
-6.000000000000025
 20
-38.49999395880121
 30
18.48621542524253
 70
    64
  0
VERTEX
  5
2FC
330
2E6
100
AcDbEntity
  8
ACESSORIOS
100
AcDbVertex
100
AcDbPolygonMeshVertex
 10
-6.000000000000014
 20
-38.50000604579539
 30
-18.50026859256934
 70
    64
  0
VERTEX
  5
2FD
330
2E6
100
AcDbEntity
  8
ACESSORIOS
100
AcDbVertex
100
AcDbPolygonMeshVertex
 10
-6.000000000000014
 20
-38.50000544144569
 30
-16.65094439167876
 70
    64
  0
VERTEX
  5
2FE
330
2E6
100
AcDbEntity
  8
ACESSORIOS
100
AcDbVertex
100
AcDbPolygonMeshVertex
 10
-6.000000000000014
 20
-38.50000483709598
 30
-14.80162019078816
 70
    64
  0
VERTEX
  5
2FF
330
2E6
100
AcDbEntity
  8
ACESSORIOS
100
AcDbVertex
100
AcDbPolygonMeshVertex
 10
-6.000000000000014
 20
-38.50000423274626
 30
-12.95229598989757
 70
    64
  0
VERTEX
  5
300
330
2E6
100
AcDbEntity
  8
ACESSORIOS
100
AcDbVertex
100
AcDbPolygonMeshVertex
 10
-6.000000000000014
 20
-38.50000362839655
 30
-11.10297178900697
 70
    64
  0
VERTEX
  5
301
330
2E6
100
AcDbEntity
  8
ACESSORIOS
100
AcDbVertex
100
AcDbPolygonMeshVertex
 10
-6.000000000000014
 20
-38.50000302404684
 30
-9.253647588116372
 70
    64
  0
VERTEX
  5
302
330
2E6
100
AcDbEntity
  8
ACESSORIOS
100
AcDbVertex
100
AcDbPolygonMeshVertex
 10
-6.000000000000014
 20
-38.50000241969715
 30
-7.404323387225776
 70
    64
  0
VERTEX
  5
303
330
2E6
100
AcDbEntity
  8
ACESSORIOS
100
AcDbVertex
100
AcDbPolygonMeshVertex
 10
-6.000000000000014
 20
-38.50000181534744
 30
-5.554999186335179
 70
    64
  0
VERTEX
  5
304
330
2E6
100
AcDbEntity
  8
ACESSORIOS
100
AcDbVertex
100
AcDbPolygonMeshVertex
 10
-6.000000000000014
 20
-38.5000012109977
 30
-3.705674985444582
 70
    64
  0
VERTEX
  5
305
330
2E6
100
AcDbEntity
  8
ACESSORIOS
100
AcDbVertex
100
AcDbPolygonMeshVertex
 10
-6.000000000000014
 20
-38.50000060664799
 30
-1.856350784553985
 70
    64
  0
VERTEX
  5
306
330
2E6
100
AcDbEntity
  8
ACESSORIOS
100
AcDbVertex
100
AcDbPolygonMeshVertex
 10
-6.000000000000014
 20
-38.50000000229829
 30
-0.0070265836633894
 70
    64
  0
VERTEX
  5
307
330
2E6
100
AcDbEntity
  8
ACESSORIOS
100
AcDbVertex
100
AcDbPolygonMeshVertex
 10
-6.000000000000014
 20
-38.49999939794858
 30
1.842297617227207
 70
    64
  0
VERTEX
  5
308
330
2E6
100
AcDbEntity
  8
ACESSORIOS
100
AcDbVertex
100
AcDbPolygonMeshVertex
 10
-6.000000000000014
 20
-38.49999879359887
 30
3.691621818117802
 70
    64
  0
VERTEX
  5
309
330
2E6
100
AcDbEntity
  8
ACESSORIOS
100
AcDbVertex
100
AcDbPolygonMeshVertex
 10
-6.000000000000014
 20
-38.49999818924916
 30
5.540946019008397
 70
    64
  0
VERTEX
  5
30A
330
2E6
100
AcDbEntity
  8
ACESSORIOS
100
AcDbVertex
100
AcDbPolygonMeshVertex
 10
-6.000000000000014
 20
-38.49999758489945
 30
7.390270219898992
 70
    64
  0
VERTEX
  5
30B
330
2E6
100
AcDbEntity
  8
ACESSORIOS
100
AcDbVertex
100
AcDbPolygonMeshVertex
 10
-6.000000000000014
 20
-38.49999698054975
 30
9.239594420789585
 70
    64
  0
VERTEX
  5
30C
330
2E6
100
AcDbEntity
  8
ACESSORIOS
100
AcDbVertex
100
AcDbPolygonMeshVertex
 10
-6.000000000000014
 20
-38.49999637620004
 30
11.08891862168018
 70
    64
  0
VERTEX
  5
30D
330
2E6
100
AcDbEntity
  8
ACESSORIOS
100
AcDbVertex
100
AcDbPolygonMeshVertex
 10
-6.000000000000014
 20
-38.4999957718503
 30
12.93824282257078
 70
    64
  0
VERTEX
  5
30E
330
2E6
100
AcDbEntity
  8
ACESSORIOS
100
AcDbVertex
100
AcDbPolygonMeshVertex
 10
-6.000000000000014
 20
-38.49999516750061
 30
14.78756702346137
 70
    64
  0
VERTEX
  5
30F
330
2E6
100
AcDbEntity
  8
ACESSORIOS
100
AcDbVertex
100
AcDbPolygonMeshVertex
 10
-6.000000000000014
 20
-38.4999945631509
 30
16.63689122435197
 70
    64
  0
VERTEX
  5
310
330
2E6
100
AcDbEntity
  8
ACESSORIOS
100
AcDbVertex
100
AcDbPolygonMeshVertex
 10
-6.000000000000014
 20
-38.49999395880119
 30
18.48621542524256
 70
    64
  0
SEQEND
  5
459
330
2E6
100
AcDbEntity
  8
ACESSORIOS
  0
LINE
  5
33C
330
1F
100
AcDbEntity
  8
ACESSORIOS
100
AcDbLine
 10
-6.000000000000014
 20
-38.49999395880119
 30
18.48621542524256
 11
-6.000000000000014
 21
-38.50000604579539
 31
-18.50026859256934
  0
POLYLINE
  5
33D
330
1F
100
AcDbEntity
  8
ACESSORIOS
100
AcDbPolygonMesh
 66
     1
 10
0.0
 20
0.0
 30
0.0
 70
    16
 71
     2
 72
    21
  0
VERTEX
  5
33E
330
33D
100
AcDbEntity
  8
ACESSORIOS
100
AcDbVertex
100
AcDbPolygonMeshVertex
 10
-6.000000000000014
 20
-37.99999395880129
 30
18.48621526184506
 70
    64
  0
VERTEX
  5
33F
330
33D
100
AcDbEntity
  8
ACESSORIOS
100
AcDbVertex
100
AcDbPolygonMeshVertex
 10
-6.000000000000014
 20
-37.999994563151
 30
16.63689106095446
 70
    64
  0
VERTEX
  5
340
330
33D
100
AcDbEntity
  8
ACESSORIOS
100
AcDbVertex
100
AcDbPolygonMeshVertex
 10
-6.000000000000014
 20
-37.99999516750071
 30
14.78756686006387
 70
    64
  0
VERTEX
  5
341
330
33D
100
AcDbEntity
  8
ACESSORIOS
100
AcDbVertex
100
AcDbPolygonMeshVertex
 10
-6.000000000000014
 20
-37.99999577185041
 30
12.93824265917327
 70
    64
  0
VERTEX
  5
342
330
33D
100
AcDbEntity
  8
ACESSORIOS
100
AcDbVertex
100
AcDbPolygonMeshVertex
 10
-6.000000000000014
 20
-37.99999637620012
 30
11.08891845828268
 70
    64
  0
VERTEX
  5
343
330
33D
100
AcDbEntity
  8
ACESSORIOS
100
AcDbVertex
100
AcDbPolygonMeshVertex
 10
-6.000000000000014
 20
-37.99999698054986
 30
9.239594257392085
 70
    64
  0
VERTEX
  5
344
330
33D
100
AcDbEntity
  8
ACESSORIOS
100
AcDbVertex
100
AcDbPolygonMeshVertex
 10
-6.000000000000014
 20
-37.99999758489954
 30
7.39027005650149
 70
    64
  0
VERTEX
  5
345
330
33D
100
AcDbEntity
  8
ACESSORIOS
100
AcDbVertex
100
AcDbPolygonMeshVertex
 10
-6.000000000000014
 20
-37.99999818924926
 30
5.540945855610895
 70
    64
  0
VERTEX
  5
346
330
33D
100
AcDbEntity
  8
ACESSORIOS
100
AcDbVertex
100
AcDbPolygonMeshVertex
 10
-6.000000000000014
 20
-37.99999879359897
 30
3.691621654720299
 70
    64
  0
VERTEX
  5
347
330
33D
100
AcDbEntity
  8
ACESSORIOS
100
AcDbVertex
100
AcDbPolygonMeshVertex
 10
-6.000000000000014
 20
-37.99999939794868
 30
1.842297453829704
 70
    64
  0
VERTEX
  5
348
330
33D
100
AcDbEntity
  8
ACESSORIOS
100
AcDbVertex
100
AcDbPolygonMeshVertex
 10
-6.000000000000014
 20
-38.0000000022984
 30
-0.0070267470608911
 70
    64
  0
VERTEX
  5
349
330
33D
100
AcDbEntity
  8
ACESSORIOS
100
AcDbVertex
100
AcDbPolygonMeshVertex
 10
-6.000000000000014
 20
-38.00000060664811
 30
-1.856350947951488
 70
    64
  0
VERTEX
  5
34A
330
33D
100
AcDbEntity
  8
ACESSORIOS
100
AcDbVertex
100
AcDbPolygonMeshVertex
 10
-6.000000000000014
 20
-38.00000121099782
 30
-3.705675148842085
 70
    64
  0
VERTEX
  5
34B
330
33D
100
AcDbEntity
  8
ACESSORIOS
100
AcDbVertex
100
AcDbPolygonMeshVertex
 10
-6.000000000000014
 20
-38.00000181534752
 30
-5.554999349732681
 70
    64
  0
VERTEX
  5
34C
330
33D
100
AcDbEntity
  8
ACESSORIOS
100
AcDbVertex
100
AcDbPolygonMeshVertex
 10
-6.000000000000014
 20
-38.00000241969723
 30
-7.404323550623277
 70
    64
  0
VERTEX
  5
34D
330
33D
100
AcDbEntity
  8
ACESSORIOS
100
AcDbVertex
100
AcDbPolygonMeshVertex
 10
-6.000000000000014
 20
-38.00000302404693
 30
-9.253647751513874
 70
    64
  0
VERTEX
  5
34E
330
33D
100
AcDbEntity
  8
ACESSORIOS
100
AcDbVertex
100
AcDbPolygonMeshVertex
 10
-6.000000000000014
 20
-38.00000362839665
 30
-11.10297195240447
 70
    64
  0
VERTEX
  5
34F
330
33D
100
AcDbEntity
  8
ACESSORIOS
100
AcDbVertex
100
AcDbPolygonMeshVertex
 10
-6.000000000000014
 20
-38.00000423274636
 30
-12.95229615329507
 70
    64
  0
VERTEX
  5
350
330
33D
100
AcDbEntity
  8
ACESSORIOS
100
AcDbVertex
100
AcDbPolygonMeshVertex
 10
-6.000000000000014
 20
-38.00000483709606
 30
-14.80162035418567
 70
    64
  0
VERTEX
  5
351
330
33D
100
AcDbEntity
  8
ACESSORIOS
100
AcDbVertex
100
AcDbPolygonMeshVertex
 10
-6.000000000000014
 20
-38.00000544144577
 30
-16.65094455507626
 70
    64
  0
VERTEX
  5
352
330
33D
100
AcDbEntity
  8
ACESSORIOS
100
AcDbVertex
100
AcDbPolygonMeshVertex
 10
-6.000000000000014
 20
-38.00000604579551
 30
-18.50026875596684
 70
    64
  0
VERTEX
  5
353
330
33D
100
AcDbEntity
  8
ACESSORIOS
100
AcDbVertex
100
AcDbPolygonMeshVertex
 10
-6.000000000000025
 20
-37.99999395880125
 30
18.48621526184508
 70
    64
  0
VERTEX
  5
354
330
33D
100
AcDbEntity
  8
ACESSORIOS
100
AcDbVertex
100
AcDbPolygonMeshVertex
 10
-3.162348687417234
 20
-37.99999405579774
 30
18.18940377421388
 70
    64
  0
VERTEX
  5
355
330
33D
100
AcDbEntity
  8
ACESSORIOS
100
AcDbVertex
100
AcDbPolygonMeshVertex
 10
-0.4040828825557963
 20
-37.99999429423078
 30
17.45979306930004
 70
    64
  0
VERTEX
  5
356
330
33D
100
AcDbEntity
  8
ACESSORIOS
100
AcDbVertex
100
AcDbPolygonMeshVertex
 10
2.209192499378184
 20
-37.99999466842933
 30
16.31473682213551
 70
    64
  0
VERTEX
  5
357
330
33D
100
AcDbEntity
  8
ACESSORIOS
100
AcDbVertex
100
AcDbPolygonMeshVertex
 10
4.615321117418678
 20
-37.9999951694931
 30
14.78147001416008
 70
    64
  0
VERTEX
  5
358
330
33D
100
AcDbEntity
  8
ACESSORIOS
100
AcDbVertex
100
AcDbPolygonMeshVertex
 10
6.757073583562812
 20
-37.99999578550437
 30
12.8964611535024
 70
    64
  0
VERTEX
  5
359
330
33D
100
AcDbEntity
  8
ACESSORIOS
100
AcDbVertex
100
AcDbPolygonMeshVertex
 10
8.583508654698292
 20
-37.99999650181143
 30
10.7045448772914
 70
    64
  0
VERTEX
  5
35A
330
33D
100
AcDbEntity
  8
ACESSORIOS
100
AcDbVertex
100
AcDbPolygonMeshVertex
 10
10.05118486200073
 20
-37.999997301377
 30
8.257855566914925
 70
    64
  0
VERTEX
  5
35B
330
33D
100
AcDbEntity
  8
ACESSORIOS
100
AcDbVertex
100
AcDbPolygonMeshVertex
 10
11.12519375938768
 20
-37.99999816518356
 30
5.614587340017441
 70
    64
  0
VERTEX
  5
35C
330
33D
100
AcDbEntity
  8
ACESSORIOS
100
AcDbVertex
100
AcDbPolygonMeshVertex
 10
11.77999021537855
 20
-37.99999907268562
 30
2.837609912631001
 70
    64
  0
VERTEX
  5
35D
330
33D
100
AcDbEntity
  8
ACESSORIOS
100
AcDbVertex
100
AcDbPolygonMeshVertex
 10
11.99999999999998
 20
-38.00000000229836
 30
-0.0070267470608474
 70
    64
  0
VERTEX
  5
35E
330
33D
100
AcDbEntity
  8
ACESSORIOS
100
AcDbVertex
100
AcDbPolygonMeshVertex
 10
11.77999021537855
 20
-38.0000009319111
 30
-2.851663406752697
 70
    64
  0
VERTEX
  5
35F
330
33D
100
AcDbEntity
  8
ACESSORIOS
100
AcDbVertex
100
AcDbPolygonMeshVertex
 10
11.12519375938769
 20
-38.00000183941315
 30
-5.628640834139137
 70
    64
  0
VERTEX
  5
360
330
33D
100
AcDbEntity
  8
ACESSORIOS
100
AcDbVertex
100
AcDbPolygonMeshVertex
 10
10.05118486200075
 20
-38.00000270321973
 30
-8.271909061036618
 70
    64
  0
VERTEX
  5
361
330
33D
100
AcDbEntity
  8
ACESSORIOS
100
AcDbVertex
100
AcDbPolygonMeshVertex
 10
8.583508654698315
 20
-38.00000350278531
 30
-10.7185983714131
 70
    64
  0
VERTEX
  5
362
330
33D
100
AcDbEntity
  8
ACESSORIOS
100
AcDbVertex
100
AcDbPolygonMeshVertex
 10
6.757073583562844
 20
-38.00000421909234
 30
-12.9105146476241
 70
    64
  0
VERTEX
  5
363
330
33D
100
AcDbEntity
  8
ACESSORIOS
100
AcDbVertex
100
AcDbPolygonMeshVertex
 10
4.615321117418713
 20
-38.00000483510363
 30
-14.79552350828179
 70
    64
  0
VERTEX
  5
364
330
33D
100
AcDbEntity
  8
ACESSORIOS
100
AcDbVertex
100
AcDbPolygonMeshVertex
 10
2.209192499378226
 20
-38.0000053361674
 30
-16.32879031625722
 70
    64
  0
VERTEX
  5
365
330
33D
100
AcDbEntity
  8
ACESSORIOS
100
AcDbVertex
100
AcDbPolygonMeshVertex
 10
-0.4040828825557501
 20
-38.00000571036593
 30
-17.47384656342175
 70
    64
  0
VERTEX
  5
366
330
33D
100
AcDbEntity
  8
ACESSORIOS
100
AcDbVertex
100
AcDbPolygonMeshVertex
 10
-3.162348687417184
 20
-38.00000594879901
 30
-18.2034572683356
 70
    64
  0
VERTEX
  5
367
330
33D
100
AcDbEntity
  8
ACESSORIOS
100
AcDbVertex
100
AcDbPolygonMeshVertex
 10
-6.000000000000004
 20
-38.00000604579547
 30
-18.50026875596681
 70
    64
  0
SEQEND
  5
45A
330
33D
100
AcDbEntity
  8
ACESSORIOS
  0
LINE
  5
393
330
1F
100
AcDbEntity
  8
ACESSORIOS
100
AcDbLine
 10
-6.000000000000014
 20
-37.99999395880129
 30
18.48621526184506
 11
-6.000000000000014
 21
-38.00000604579551
 31
-18.50026875596684
  0
3DFACE
  5
3F0
330
1F
100
AcDbEntity
  8
ACESSORIOS
100
AcDbFace
 10
-6.285902900107645
 20
28.2589526844245
 30
8.449990765118928
 11
-6.285902900107645
 21
28.25894716159075
 31
-8.450009234880168
 12
-15.38318709635118
 22
28.28276385033525
 32
-8.450009242663342
 13
-15.38318709635118
 23
28.282769373169
 33
8.449990757335755
  0
3DFACE
  5
3F1
330
1F
100
AcDbEntity
  8
ACESSORIOS
100
AcDbFace
 10
-15.38318709635118
 20
28.282769373169
 30
8.449990757335755
 11
-15.38318709635118
 21
28.28276385033525
 31
-8.450009242663342
 12
-19.9966315099064
 22
-35.30000276141499
 32
-8.449988464139695
 13
-19.9966315099064
 23
-35.29999723858123
 33
8.450011535859401
  0
INSERT
  5
409
330
1F
100
AcDbEntity
  8
DT_RENDER
100
AcDbBlockReference
  2
DT_MATERIAL
 10
0.0
 20
0.0
 30
0.0
1001
dtrender2
1000
MATERIAL
1071
   200501
1040
0.25
1040
0.5
1040
0.0
1040
0.8
1040
80.0
1040
0.0
1071
        1
1000
DEFAULT
1071
       16
1000

1040
0.0
1040
0.0
1040
0.0
1040
1.0
1040
1.0
1040
1.0
1040
0.0
1071
 16777215
1040
1.0
1071
 16777215
1040
1.0
1071
 16777215
1040
1.0
1071
 16777215
1040
1.0
1071
 16777215
1040
2.187
1040
0.5
1071
        3
1040
2.5
  0
3DFACE
  5
40A
330
1F
100
AcDbEntity
  8
ACESSORIOS
100
AcDbFace
 10
-6.148535085944332
 20
19.00010729485055
 30
8.44999379086235
 11
-6.148535085944332
 21
19.0001017720168
 31
-8.450006209136747
 12
-6.010676286266119
 22
9.708163048326146
 32
-8.45000317257859
 13
-6.010676286266119
 23
9.708168571159899
 33
8.449996827420506
  0
3DFACE
  5
40B
330
1F
100
AcDbEntity
  8
ACESSORIOS
100
AcDbFace
 10
-6.285902900107645
 20
28.2589526844245
 30
8.449990765118928
 11
-6.232422114711134
 21
24.65424858168184
 31
8.449991943117832
 12
-6.232422114711134
 22
24.65424305884809
 32
-8.450008056881265
 13
-6.285902900107645
 23
28.25894716159075
 33
-8.450009234880168
  0
3DFACE
  5
40C
330
1F
100
AcDbEntity
  8
ACESSORIOS
100
AcDbFace
 10
-3.03620899701608
 20
20.7070979325338
 30
8.44999323302652
 11
-6.232422114711134
 21
24.65424858168184
 31
8.449991943117832
 12
-6.232422114711134
 22
24.65424305884809
 32
-8.450008056881265
 13
-3.03620899701608
 23
20.7070924097
 33
-8.45000676697258
  0
3DFACE
  5
40D
330
1F
100
AcDbEntity
  8
ACESSORIOS
100
AcDbFace
 10
-3.21478914908671
 20
17.48025673993447
 30
8.449994287541754
 11
-3.03620899701608
 21
20.7070979325338
 31
8.44999323302652
 12
-3.03620899701608
 22
20.7070924097
 32
-8.45000676697258
 13
-3.21478914908671
 23
17.48025121710072
 33
-8.450005712457342
  0
3DFACE
  5
40E
330
1F
100
AcDbEntity
  8
ACESSORIOS
100
AcDbFace
 10
-3.21478914908671
 20
17.48025673993447
 30
8.449994287541754
 11
-3.21478914908671
 21
17.48025121710072
 31
-8.450005712457342
 12
-5.146832730235503
 22
17.58717455665641
 32
-8.450005747399343
 13
-5.146832730235503
 23
17.58718007949016
 33
8.449994252599755
  0
3DFACE
  5
40F
330
1F
100
AcDbEntity
  8
ACESSORIOS
100
AcDbFace
 10
-5.146832730235503
 20
17.58718007949016
 30
8.449994252599755
 11
-5.0686482990203
 21
18.9999280267837
 31
8.44999379092094
 12
-5.0686482990203
 22
18.99992250395
 32
-8.45000620907816
 13
-5.146832730235503
 23
17.58717455665641
 33
-8.450005747399343
  0
3DFACE
  5
410
330
1F
100
AcDbEntity
  8
ACESSORIOS
100
AcDbFace
 10
-5.0686482990203
 20
18.9999280267837
 30
8.44999379092094
 11
-5.0686482990203
 21
18.99992250395
 31
-8.45000620907816
 12
-6.14853508594433
 22
19.0001017720168
 32
-8.45000620913675
 13
-6.14853508594433
 23
19.0001072948506
 33
8.44999379086235
  0
3DFACE
  5
411
330
1F
100
AcDbEntity
  8
ACESSORIOS
100
AcDbFace
 10
-6.966034692275847
 20
-15.73941751669041
 30
8.450005143561771
 11
-6.966034692275847
 21
-15.73942303952416
 31
-8.449994856437325
 12
-6.010676286266119
 22
9.708163048326146
 32
-8.45000317257859
 13
-6.010676286266119
 23
9.708168571159899
 33
8.449996827420506
  0
3DFACE
  5
412
330
1F
100
AcDbEntity
  8
ACESSORIOS
100
AcDbFace
 10
-2.80069808799039
 20
-15.7503223673338
 30
8.450005147125422
 11
-2.80069808799039
 21
-15.75032789016756
 31
-8.449994852873674
 12
-6.966034692275847
 22
-15.73942303952416
 32
-8.449994856437325
 13
-6.966034692275847
 23
-15.73941751669041
 33
8.450005143561771
  0
3DFACE
  5
413
330
1F
100
AcDbEntity
  8
ACESSORIOS
100
AcDbFace
 10
-1.002942378036574
 20
-17.55166309631291
 30
8.45000573579438
 11
-1.002942378036574
 21
-17.55166861914667
 31
-8.449994264204717
 12
-2.80069808799039
 22
-15.75032789016756
 32
-8.449994852873674
 13
-2.80069808799039
 23
-15.7503223673338
 33
8.450005147125422
  0
3DFACE
  5
414
330
1F
100
AcDbEntity
  8
ACESSORIOS
100
AcDbFace
 10
-1.002942378036574
 20
-17.55166861914667
 30
-8.449994264204717
 11
-1.006399275411355
 21
-21.02214030792836
 31
-8.449993130072281
 12
-1.006399275411355
 22
-21.02213478509461
 32
8.450006869926815
 13
-1.002942378036574
 23
-17.55166309631291
 33
8.45000573579438
  0
3DFACE
  5
415
330
1F
100
AcDbEntity
  8
ACESSORIOS
100
AcDbFace
 10
-1.006399275411355
 20
-21.02214030792836
 30
-8.449993130072281
 11
-3.541230630589713
 21
-22.48226125258293
 31
-8.449992652912208
 12
-3.541230630589713
 22
-22.48225572974917
 32
8.450007347086888
 13
-1.006399275411355
 23
-21.02213478509461
 33
8.450006869926815
  0
3DFACE
  5
416
330
1F
100
AcDbEntity
  8
ACESSORIOS
100
AcDbFace
 10
-4.693528392294039
 20
-37.90000276141485
 30
-8.449987614472963
 11
-3.541230630589713
 21
-22.48226125258293
 31
-8.449992652912208
 12
-3.541230630589713
 22
-22.48225572974917
 32
8.450007347086888
 13
-4.693528392294039
 23
-37.89999723858109
 33
8.450012385526133
  0
3DFACE
  5
417
330
1F
100
AcDbEntity
  8
ACESSORIOS
100
AcDbFace
 10
-4.693528392294039
 20
-37.89999723858109
 30
8.450012385526133
 11
-6.000000000000014
 21
-37.99999726539109
 31
8.367973252938691
 12
-6.0
 22
-37.90000276141485
 32
-8.449987614472963
 13
-4.693528392294039
 23
-37.90000276141485
 33
-8.449987614472963
  0
3DFACE
  5
418
330
1F
100
AcDbEntity
  8
ACESSORIOS
100
AcDbFace
 10
-6.000000000000014
 20
-37.99999726539109
 30
8.367973252938691
 11
-6.0
 21
-37.90000276141485
 31
-8.449987614472963
 12
-6.0
 22
-35.30000276141499
 32
-8.449988464139695
 13
-6.0
 23
-35.29999723858123
 33
8.450011535859401
  0
3DFACE
  5
419
330
1F
100
AcDbEntity
  8
ACESSORIOS
100
AcDbFace
 10
-6.0
 20
-35.29999723858123
 30
8.450011535859401
 11
-19.9966315099064
 21
-35.2999972385812
 31
8.4500115358594
 12
-19.9966315099064
 22
-35.30000276141499
 32
-8.449988464139695
 13
-6.0
 23
-35.30000276141499
 33
-8.449988464139695
  0
3DFACE
  5
41A
330
1F
100
AcDbEntity
  8
ACESSORIOS
100
AcDbFace
 10
-15.38318709635118
 20
28.282769373169
 30
8.449990757335755
 11
-6.285902900107645
 21
28.2589526844245
 31
8.449990765118928
 12
-6.148535085944332
 22
19.00010729485055
 32
8.44999379086235
 13
-16.00482916623631
 23
19.71526121604957
 33
8.449993557153698
  0
3DFACE
  5
41B
330
1F
100
AcDbEntity
  8
ACESSORIOS
100
AcDbFace
 10
-3.21478914908671
 20
17.48025673993447
 30
8.449994287541754
 11
-5.146832730235503
 21
17.58718007949016
 31
8.449994252599755
 12
-5.0686482990203
 22
18.9999280267837
 32
8.44999379092094
 13
-3.136604717871512
 23
18.893004687228
 33
8.449993825862935
  0
3DFACE
  5
41C
330
1F
100
AcDbEntity
  8
ACESSORIOS
100
AcDbFace
 10
-3.136604717871512
 20
18.893004687228
 30
8.449993825862935
 11
-6.148535085944332
 21
19.00010729485055
 31
8.44999379086235
 12
-6.232422114711134
 22
24.65424858168184
 32
8.449991943117832
 13
-3.03620899701608
 23
20.7070979325338
 33
8.44999323302652
  0
3DFACE
  5
41D
330
1F
100
AcDbEntity
  8
ACESSORIOS
100
AcDbFace
 10
-16.00482916623631
 20
19.71526121604957
 30
8.449993557153698
 11
-6.148535085944332
 21
19.00010729485055
 31
8.44999379086235
 12
-6.010676286266119
 22
9.708168571159899
 32
8.449996827420506
 13
-16.67478167220599
 23
10.48193574173204
 33
8.449996574557343
  0
3DFACE
  5
41E
330
1F
100
AcDbEntity
  8
ACESSORIOS
100
AcDbFace
 10
-16.67478167220599
 20
10.48193574173204
 30
8.449996574557343
 11
-6.010676286266119
 21
9.708168571159899
 31
8.449996827420506
 12
-6.966034692275847
 22
-15.73941751669041
 32
8.450005143561771
 13
-18.51654341107937
 23
-14.90133460897636
 33
8.450004869680555
  0
3DFACE
  5
41F
330
1F
100
AcDbEntity
  8
ACESSORIOS
100
AcDbFace
 10
-1.006399275411355
 20
-21.02213478509461
 30
8.450006869926815
 11
-1.002942378036574
 21
-17.55166309631291
 31
8.45000573579438
 12
-2.80069808799039
 22
-15.7503223673338
 32
8.450005147125422
 13
-3.541230630589713
 23
-22.48225572974917
 33
8.450007347086888
  0
3DFACE
  5
420
330
1F
100
AcDbEntity
  8
ACESSORIOS
100
AcDbFace
 10
-4.693528392294039
 20
-37.89999723858109
 30
8.450012385526133
 11
-6.000000000000014
 21
-37.99999726539109
 31
8.367973252938691
 12
-6.0
 22
-35.29999723858123
 32
8.450011535859401
 13
-4.50754508315695
 23
-35.41154097273565
 33
8.450011572311324
  0
3DFACE
  5
421
330
1F
100
AcDbEntity
  8
ACESSORIOS
100
AcDbFace
 10
-6.0
 20
-35.29999723858123
 30
8.450011535859401
 11
-19.9966315099064
 21
-35.29999723858123
 31
8.450011535859401
 12
-19.25658746049288
 22
-25.1006659237788
 32
8.450008202769979
 13
-4.50754508315695
 23
-35.41154097273565
 33
8.450011572311324
  0
3DFACE
  5
422
330
1F
100
AcDbEntity
  8
ACESSORIOS
100
AcDbFace
 10
-3.541230630589713
 20
-22.48225572974917
 30
8.450007347086888
 11
-6.966034692275847
 21
-15.73941751669041
 31
8.450005143561771
 12
-18.51654341107937
 22
-14.90133460897636
 32
8.450004869680555
 13
-19.25658746049288
 23
-25.1006659237788
 33
8.450008202769979
  0
3DFACE
  5
423
330
1F
100
AcDbEntity
  8
ACESSORIOS
100
AcDbFace
 10
-3.541230630589713
 20
-22.48225572974917
 30
8.450007347086888
 11
-2.80069808799039
 21
-15.7503223673338
 31
8.450005147125422
 12
-4.883366390133118
 22
-15.74486994201211
 32
8.450005145343596
 13
-6.966034692275847
 23
-15.73941751669041
 33
8.450005143561771
  0
3DFACE
  5
424
330
1F
100
AcDbEntity
  8
ACESSORIOS
100
AcDbFace
 10
-4.50754508315695
 20
-35.41154097273565
 30
8.450011572311324
 11
-3.541230630589713
 21
-22.48225572974917
 31
8.450007347086888
 12
-19.25658746049288
 22
-25.1006659237788
 32
8.450008202769979
 13
-11.88206627182492
 23
-30.25610344825722
 33
8.450009887540652
  0
3DFACE
  5
425
330
1F
100
AcDbEntity
  8
ACESSORIOS
100
AcDbFace
 10
-3.541230630589713
 20
-22.48226125258293
 30
-8.449992652912208
 11
-6.966034692275847
 21
-15.73942303952416
 31
-8.449994856437325
 12
-18.51654341107937
 22
-14.90134013181012
 32
-8.449995130318541
 13
-19.25658746049288
 23
-25.10067144661255
 33
-8.449991797229117
  0
3DFACE
  5
426
330
1F
100
AcDbEntity
  8
ACESSORIOS
100
AcDbFace
 10
-6.0
 20
-35.30000276141499
 30
-8.449988464139695
 11
-19.9966315099064
 21
-35.30000276141499
 31
-8.449988464139695
 12
-19.25658746049288
 22
-25.10067144661255
 32
-8.449991797229117
 13
-4.50754508315695
 23
-35.4115464955694
 33
-8.449988427687773
  0
3DFACE
  5
427
330
1F
100
AcDbEntity
  8
ACESSORIOS
100
AcDbFace
 10
-4.50754508315695
 20
-35.4115464955694
 30
-8.449988427687773
 11
-3.541230630589713
 21
-22.48226125258293
 31
-8.449992652912208
 12
-19.25658746049288
 22
-25.10067144661255
 32
-8.449991797229117
 13
-11.88206627182492
 23
-30.25610897109098
 33
-8.449990112458444
  0
3DFACE
  5
428
330
1F
100
AcDbEntity
  8
ACESSORIOS
100
AcDbFace
 10
-16.00482916623631
 20
19.71525569321582
 30
-8.450006442845398
 11
-6.148535085944332
 21
19.0001017720168
 31
-8.450006209136745
 12
-6.010676286266119
 22
9.708163048326146
 32
-8.45000317257859
 13
-16.67478167220599
 23
10.48193021889829
 33
-8.450003425441754
  0
3DFACE
  5
429
330
1F
100
AcDbEntity
  8
ACESSORIOS
100
AcDbFace
 10
-16.67478167220599
 20
10.48193021889829
 30
-8.450003425441754
 11
-6.010676286266119
 21
9.708163048326146
 31
-8.45000317257859
 12
-6.966034692275847
 22
-15.73942303952416
 32
-8.449994856437325
 13
-18.51654341107937
 23
-14.90134013181012
 33
-8.449995130318541
  0
3DFACE
  5
42A
330
1F
100
AcDbEntity
  8
ACESSORIOS
100
AcDbFace
 10
-15.38318709635118
 20
28.28276385033525
 30
-8.450009242663342
 11
-6.285902900107645
 21
28.25894716159075
 31
-8.450009234880168
 12
-6.148535085944332
 22
19.0001017720168
 32
-8.450006209136745
 13
-16.00482916623631
 23
19.71525569321582
 33
-8.450006442845398
  0
3DFACE
  5
42B
330
1F
100
AcDbEntity
  8
ACESSORIOS
100
AcDbFace
 10
-3.136604717871512
 20
18.89299916439425
 30
-8.450006174136162
 11
-6.148535085944332
 21
19.0001017720168
 31
-8.450006209136745
 12
-6.232422114711134
 22
24.65424305884809
 32
-8.450008056881265
 13
-3.03620899701608
 23
20.70709240970005
 33
-8.450006766972576
  0
3DFACE
  5
42C
330
1F
100
AcDbEntity
  8
ACESSORIOS
100
AcDbFace
 10
-3.21478914908671
 20
17.48025121710072
 30
-8.450005712457342
 11
-5.146832730235503
 21
17.58717455665641
 31
-8.450005747399342
 12
-5.0686482990203
 22
18.99992250394995
 32
-8.450006209078156
 13
-3.136604717871512
 23
18.89299916439425
 33
-8.450006174136162
  0
3DFACE
  5
42D
330
1F
100
AcDbEntity
  8
ACESSORIOS
100
AcDbFace
 10
-3.541230630589713
 20
-22.48226125258293
 30
-8.449992652912208
 11
-2.80069808799039
 21
-15.75032789016756
 31
-8.449994852873674
 12
-4.883366390133118
 22
-15.74487546484586
 32
-8.4499948546555
 13
-6.966034692275847
 23
-15.73942303952416
 33
-8.449994856437325
  0
3DFACE
  5
42E
330
1F
100
AcDbEntity
  8
ACESSORIOS
100
AcDbFace
 10
-1.006399275411355
 20
-21.02214030792836
 30
-8.449993130072281
 11
-1.002942378036574
 21
-17.55166861914667
 31
-8.449994264204717
 12
-2.80069808799039
 22
-15.75032789016756
 32
-8.449994852873674
 13
-3.541230630589713
 23
-22.48226125258293
 33
-8.449992652912208
  0
ENDSEC
  0
SECTION
  2
OBJECTS
  0
DICTIONARY
  5
C
330
0
100
AcDbDictionary
281
     1
  3
ACAD_COLOR
350
6C
  3
ACAD_GROUP
350
D
  3
ACAD_LAYOUT
350
1A
  3
ACAD_MATERIAL
350
6B
  3
ACAD_MLINESTYLE
350
17
  3
ACAD_PLOTSETTINGS
350
19
  3
ACAD_PLOTSTYLENAME
350
E
  3
ACAD_TABLESTYLE
350
92
  3
AcDbVariableDictionary
350
59
  0
DICTIONARY
  5
6C
102
{ACAD_REACTORS
330
C
102
}
330
C
100
AcDbDictionary
281
     1
  0
DICTIONARY
  5
D
102
{ACAD_REACTORS
330
C
102
}
330
C
100
AcDbDictionary
281
     1
  0
DICTIONARY
  5
1A
102
{ACAD_REACTORS
330
C
102
}
330
C
100
AcDbDictionary
281
     1
  3
Layout1
350
74
  3
Layout2
350
2A
  3
Model
350
22
  0
DICTIONARY
  5
6B
102
{ACAD_REACTORS
330
C
102
}
330
C
100
AcDbDictionary
281
     1
  0
DICTIONARY
  5
17
102
{ACAD_REACTORS
330
C
102
}
330
C
100
AcDbDictionary
281
     1
  3
Standard
350
18
  0
DICTIONARY
  5
19
102
{ACAD_REACTORS
330
C
102
}
330
C
100
AcDbDictionary
281
     1
  0
ACDBDICTIONARYWDFLT
  5
E
102
{ACAD_REACTORS
330
C
102
}
330
C
100
AcDbDictionary
281
     1
  3
Normal
350
F
100
AcDbDictionaryWithDefault
340
F
  0
DICTIONARY
  5
92
102
{ACAD_REACTORS
330
C
102
}
330
C
100
AcDbDictionary
281
     1
  3
STANDARD
350
1E
  0
DICTIONARY
  5
59
102
{ACAD_REACTORS
330
C
102
}
330
C
100
AcDbDictionary
281
     1
  3
CTABLESTYLE
350
32
  3
DIMASSOC
350
34
  3
HALOGAP
350
3F
  3
HIDETEXT
350
33
  3
INDEXCTL
350
40
  3
PROJECTNAME
350
35
  3
XCLIPFRAME
350
41
  0
LAYOUT
  5
74
102
{ACAD_REACTORS
330
1A
102
}
330
1A
100
AcDbPlotSettings
  1

  2
\\ADSCCNDC1\hq601xrx1
  4

  6

 40
0.0
 41
0.0
 42
0.0
 43
0.0
 44
0.0
 45
0.0
 46
0.0
 47
0.0
 48
0.0
 49
0.0
140
0.0
141
0.0
142
1.0
143
1.0
 70
   688
 72
     0
 73
     0
 74
     5
  7

 75
    16
 76
     0
 77
     2
 78
   300
147
1.0
148
0.0
149
0.0
100
AcDbLayout
  1
Layout1
 70
     1
 71
     1
 10
0.0
 20
0.0
 11
420.0
 21
297.0
 12
0.0
 22
0.0
 32
0.0
 14
1.000000000000000E+20
 24
1.000000000000000E+20
 34
1.000000000000000E+20
 15
-1.000000000000000E+20
 25
-1.000000000000000E+20
 35
-1.000000000000000E+20
146
0.0
 13
0.0
 23
0.0
 33
0.0
 16
1.0
 26
0.0
 36
0.0
 17
0.0
 27
1.0
 37
0.0
 76
     0
330
73
  0
LAYOUT
  5
2A
102
{ACAD_REACTORS
330
1A
102
}
330
1A
100
AcDbPlotSettings
  1

  2
none_device
  4

  6

 40
0.0
 41
0.0
 42
0.0
 43
0.0
 44
0.0
 45
0.0
 46
0.0
 47
0.0
 48
0.0
 49
0.0
140
0.0
141
0.0
142
1.0
143
1.0
 70
   688
 72
     0
 73
     0
 74
     5
  7

 75
    16
 76
     0
 77
     2
 78
   300
147
1.0
148
0.0
149
0.0
100
AcDbLayout
  1
Layout2
 70
     1
 71
     2
 10
0.0
 20
0.0
 11
12.0
 21
9.0
 12
0.0
 22
0.0
 32
0.0
 14
0.0
 24
0.0
 34
0.0
 15
0.0
 25
0.0
 35
0.0
146
0.0
 13
0.0
 23
0.0
 33
0.0
 16
1.0
 26
0.0
 36
0.0
 17
0.0
 27
1.0
 37
0.0
 76
     0
330
433
  0
LAYOUT
  5
22
102
{ACAD_REACTORS
330
1A
102
}
330
1A
100
AcDbPlotSettings
  1

  2
none_device
  4
Letter_(8.50_x_11.00_Inches)
  6

 40
6.349999904632568
 41
6.349999904632568
 42
6.350006103515625
 43
6.350006103515625
 44
215.8999938964844
 45
279.3999938964844
 46
0.0
 47
0.0
 48
0.0
 49
0.0
140
0.0
141
0.0
142
1.0
143
27.23885741810484
 70
 11952
 72
     0
 73
     0
 74
     0
  7

 75
     0
 76
     0
 77
     2
 78
   300
147
0.0367122594259527
148
0.0
149
0.0
100
AcDbLayout
  1
Model
 70
     1
 71
     0
 10
0.0
 20
0.0
 11
420.0
 21
297.0
 12
0.0
 22
0.0
 32
0.0
 14
-26.00000000000002
 24
-51.00000385847749
 34
-28.49998846413864
 15
11.99999999999998
 25
28.282769373169
 35
28.50001258160198
146
0.0
 13
0.0
 23
0.0
 33
0.0
 16
1.0
 26
0.0
 36
0.0
 17
0.0
 27
1.0
 37
0.0
 76
     0
330
1F
331
97
  0
MLINESTYLE
  5
18
102
{ACAD_REACTORS
330
17
102
}
330
17
100
AcDbMlineStyle
  2
Standard
 70
     0
  3

 62
   256
 51
90.0
 52
90.0
 71
     2
 49
0.5
 62
   256
  6
BYLAYER
 49
-0.5
 62
   256
  6
BYLAYER
  0
ACDBPLACEHOLDER
  5
F
102
{ACAD_REACTORS
330
E
102
}
330
E
  0
TABLESTYLE
  5
1E
102
{ACAD_REACTORS
330
92
102
}
330
92
100
AcDbTableStyle
  3
Standard
 70
     0
 71
     0
 40
1.5
 41
1.5
280
     0
281
     0
  7
Standard
140
4.5
170
     2
 62
     0
 63
     7
283
     0
 90
      512
 91
        0
  1

274
    -2
284
     1
 64
     0
275
    -2
285
     1
 65
     0
276
    -2
286
     1
 66
     0
277
    -2
287
     1
 67
     0
278
    -2
288
     1
 68
     0
279
    -2
289
     1
 69
     0
  7
Standard
140
6.0
170
     5
 62
     0
 63
     7
283
     0
 90
      512
 91
        0
  1

274
    -2
284
     1
 64
     0
275
    -2
285
     1
 65
     0
276
    -2
286
     1
 66
     0
277
    -2
287
     1
 67
     0
278
    -2
288
     1
 68
     0
279
    -2
289
     1
 69
     0
  7
Standard
140
4.5
170
     5
 62
     0
 63
     7
283
     0
 90
      512
 91
        0
  1

274
    -2
284
     1
 64
     0
275
    -2
285
     1
 65
     0
276
    -2
286
     1
 66
     0
277
    -2
287
     1
 67
     0
278
    -2
288
     1
 68
     0
279
    -2
289
     1
 69
     0
  0
DICTIONARYVAR
  5
32
102
{ACAD_REACTORS
330
59
102
}
330
59
100
DictionaryVariables
280
     0
  1

  0
DICTIONARYVAR
  5
34
102
{ACAD_REACTORS
330
59
102
}
330
59
100
DictionaryVariables
280
     0
  1
2
  0
DICTIONARYVAR
  5
3F
102
{ACAD_REACTORS
330
59
102
}
330
59
100
DictionaryVariables
280
     0
  1
0
  0
DICTIONARYVAR
  5
33
102
{ACAD_REACTORS
330
59
102
}
330
59
100
DictionaryVariables
280
     0
  1
1
  0
DICTIONARYVAR
  5
40
102
{ACAD_REACTORS
330
59
102
}
330
59
100
DictionaryVariables
280
     0
  1
0
  0
DICTIONARYVAR
  5
35
102
{ACAD_REACTORS
330
59
102
}
330
59
100
DictionaryVariables
280
     0
  1

  0
DICTIONARYVAR
  5
41
102
{ACAD_REACTORS
330
59
102
}
330
59
100
DictionaryVariables
280
     0
  1
0
  0
ENDSEC
  0
EOF
