  0
SECTION
  2
HEADER
  9
$ACADVER
  1
AC1027
  9
$ACADMAINTVER
 70
     8
  9
$DWGCODEPAGE
  3
ANSI_1252
  9
$LASTSAVEDBY
  1
User
  9
$REQUIREDVERSIONS
160
                 0
  9
$INSBASE
 10
0.0
 20
0.0
 30
0.0
  9
$EXTMIN
 10
-842.2103489371187
 20
-150.9264511037443
 30
0.0
  9
$EXTMAX
 10
-804.7723884280923
 20
474.2404161162518
 30
18.00000000000979
  9
$LIMMIN
 10
0.0
 20
0.0
  9
$LIMMAX
 10
12.0
 20
9.0
  9
$ORTHOMODE
 70
     1
  9
$REGENMODE
 70
     1
  9
$FILLMODE
 70
     1
  9
$QTEXTMODE
 70
     0
  9
$MIRRTEXT
 70
     1
  9
$LTSCALE
 40
1.0
  9
$ATTMODE
 70
     1
  9
$TEXTSIZE
 40
0.2
  9
$TRACEWID
 40
0.05
  9
$TEXTSTYLE
  7
Standard
  9
$CLAYER
  8
0
  9
$CELTYPE
  6
ByLayer
  9
$CECOLOR
 62
   256
  9
$CELTSCALE
 40
1.0
  9
$DISPSILH
 70
     0
  9
$DIMSCALE
 40
1.0
  9
$DIMASZ
 40
0.18
  9
$DIMEXO
 40
0.0625
  9
$DIMDLI
 40
0.38
  9
$DIMRND
 40
0.0
  9
$DIMDLE
 40
0.0
  9
$DIMEXE
 40
0.18
  9
$DIMTP
 40
0.0
  9
$DIMTM
 40
0.0
  9
$DIMTXT
 40
0.18
  9
$DIMCEN
 40
0.09
  9
$DIMTSZ
 40
0.0
  9
$DIMTOL
 70
     0
  9
$DIMLIM
 70
     0
  9
$DIMTIH
 70
     1
  9
$DIMTOH
 70
     1
  9
$DIMSE1
 70
     0
  9
$DIMSE2
 70
     0
  9
$DIMTAD
 70
     0
  9
$DIMZIN
 70
     0
  9
$DIMBLK
  1

  9
$DIMASO
 70
     1
  9
$DIMSHO
 70
     1
  9
$DIMPOST
  1

  9
$DIMAPOST
  1

  9
$DIMALT
 70
     0
  9
$DIMALTD
 70
     2
  9
$DIMALTF
 40
25.4
  9
$DIMLFAC
 40
1.0
  9
$DIMTOFL
 70
     0
  9
$DIMTVP
 40
0.0
  9
$DIMTIX
 70
     0
  9
$DIMSOXD
 70
     0
  9
$DIMSAH
 70
     0
  9
$DIMBLK1
  1

  9
$DIMBLK2
  1

  9
$DIMSTYLE
  2
Standard
  9
$DIMCLRD
 70
     0
  9
$DIMCLRE
 70
     0
  9
$DIMCLRT
 70
     0
  9
$DIMTFAC
 40
1.0
  9
$DIMGAP
 40
0.09
  9
$DIMJUST
 70
     0
  9
$DIMSD1
 70
     0
  9
$DIMSD2
 70
     0
  9
$DIMTOLJ
 70
     1
  9
$DIMTZIN
 70
     0
  9
$DIMALTZ
 70
     0
  9
$DIMALTTZ
 70
     0
  9
$DIMUPT
 70
     0
  9
$DIMDEC
 70
     4
  9
$DIMTDEC
 70
     4
  9
$DIMALTU
 70
     2
  9
$DIMALTTD
 70
     2
  9
$DIMTXSTY
  7
Standard
  9
$DIMAUNIT
 70
     0
  9
$DIMADEC
 70
     0
  9
$DIMALTRND
 40
0.0
  9
$DIMAZIN
 70
     0
  9
$DIMDSEP
 70
    46
  9
$DIMATFIT
 70
     3
  9
$DIMFRAC
 70
     0
  9
$DIMLDRBLK
  1

  9
$DIMLUNIT
 70
     2
  9
$DIMLWD
 70
    -2
  9
$DIMLWE
 70
    -2
  9
$DIMTMOVE
 70
     2
  9
$DIMFXL
 40
1.0
  9
$DIMFXLON
 70
     0
  9
$DIMJOGANG
 40
0.7853981633974483
  9
$DIMTFILL
 70
     0
  9
$DIMTFILLCLR
 70
     0
  9
$DIMARCSYM
 70
     0
  9
$DIMLTYPE
  6

  9
$DIMLTEX1
  6

  9
$DIMLTEX2
  6

  9
$DIMTXTDIRECTION
 70
     0
  9
$LUNITS
 70
     2
  9
$LUPREC
 70
     3
  9
$SKETCHINC
 40
0.1
  9
$FILLETRAD
 40
0.5
  9
$AUNITS
 70
     0
  9
$AUPREC
 70
     0
  9
$MENU
  1
.
  9
$ELEVATION
 40
0.0
  9
$PELEVATION
 40
0.0
  9
$THICKNESS
 40
0.0
  9
$LIMCHECK
 70
     0
  9
$CHAMFERA
 40
0.5
  9
$CHAMFERB
 40
0.5
  9
$CHAMFERC
 40
1.0
  9
$CHAMFERD
 40
0.0
  9
$SKPOLY
 70
     0
  9
$TDCREATE
 40
2458432.627986077
  9
$TDUCREATE
 40
2458432.711319410
  9
$TDUPDATE
 40
2458463.419405023
  9
$TDUUPDATE
 40
2458463.502738357
  9
$TDINDWG
 40
0.2975413773
  9
$TDUSRTIMER
 40
0.2975397338
  9
$USRTIMER
 70
     1
  9
$ANGBASE
 50
0.0
  9
$ANGDIR
 70
     0
  9
$PDMODE
 70
     0
  9
$PDSIZE
 40
0.0
  9
$PLINEWID
 40
0.0
  9
$SPLFRAME
 70
     0
  9
$SPLINETYPE
 70
     6
  9
$SPLINESEGS
 70
     8
  9
$HANDSEED
  5
6AB
  9
$SURFTAB1
 70
     6
  9
$SURFTAB2
 70
     6
  9
$SURFTYPE
 70
     6
  9
$SURFU
 70
     6
  9
$SURFV
 70
     6
  9
$UCSBASE
  2

  9
$UCSNAME
  2

  9
$UCSORG
 10
-841.121485356302
 20
-148.8721068684121
 30
-3.274300132235716
  9
$UCSXDIR
 10
1.0
 20
0.0
 30
0.0
  9
$UCSYDIR
 10
0.0
 20
1.0
 30
0.0
  9
$UCSORTHOREF
  2

  9
$UCSORTHOVIEW
 70
     0
  9
$UCSORGTOP
 10
0.0
 20
0.0
 30
0.0
  9
$UCSORGBOTTOM
 10
0.0
 20
0.0
 30
0.0
  9
$UCSORGLEFT
 10
0.0
 20
0.0
 30
0.0
  9
$UCSORGRIGHT
 10
0.0
 20
0.0
 30
0.0
  9
$UCSORGFRONT
 10
0.0
 20
0.0
 30
0.0
  9
$UCSORGBACK
 10
0.0
 20
0.0
 30
0.0
  9
$PUCSBASE
  2

  9
$PUCSNAME
  2

  9
$PUCSORG
 10
0.0
 20
0.0
 30
0.0
  9
$PUCSXDIR
 10
1.0
 20
0.0
 30
0.0
  9
$PUCSYDIR
 10
0.0
 20
1.0
 30
0.0
  9
$PUCSORTHOREF
  2

  9
$PUCSORTHOVIEW
 70
     0
  9
$PUCSORGTOP
 10
0.0
 20
0.0
 30
0.0
  9
$PUCSORGBOTTOM
 10
0.0
 20
0.0
 30
0.0
  9
$PUCSORGLEFT
 10
0.0
 20
0.0
 30
0.0
  9
$PUCSORGRIGHT
 10
0.0
 20
0.0
 30
0.0
  9
$PUCSORGFRONT
 10
0.0
 20
0.0
 30
0.0
  9
$PUCSORGBACK
 10
0.0
 20
0.0
 30
0.0
  9
$USERI1
 70
     0
  9
$USERI2
 70
     0
  9
$USERI3
 70
     0
  9
$USERI4
 70
     0
  9
$USERI5
 70
     0
  9
$USERR1
 40
0.0
  9
$USERR2
 40
0.0
  9
$USERR3
 40
0.0
  9
$USERR4
 40
0.0
  9
$USERR5
 40
0.0
  9
$WORLDVIEW
 70
     1
  9
$SHADEDGE
 70
     3
  9
$SHADEDIF
 70
    70
  9
$TILEMODE
 70
     1
  9
$MAXACTVP
 70
    64
  9
$PINSBASE
 10
0.0
 20
0.0
 30
0.0
  9
$PLIMCHECK
 70
     0
  9
$PEXTMIN
 10
1.000000000000000E+20
 20
1.000000000000000E+20
 30
1.000000000000000E+20
  9
$PEXTMAX
 10
-1.000000000000000E+20
 20
-1.000000000000000E+20
 30
-1.000000000000000E+20
  9
$PLIMMIN
 10
0.0
 20
0.0
  9
$PLIMMAX
 10
12.0
 20
9.0
  9
$UNITMODE
 70
     0
  9
$VISRETAIN
 70
     1
  9
$PLINEGEN
 70
     0
  9
$PSLTSCALE
 70
     1
  9
$TREEDEPTH
 70
  3020
  9
$CMLSTYLE
  2
Standard
  9
$CMLJUST
 70
     0
  9
$CMLSCALE
 40
1.0
  9
$PROXYGRAPHICS
 70
     1
  9
$MEASUREMENT
 70
     0
  9
$CELWEIGHT
370
    -1
  9
$ENDCAPS
280
     0
  9
$JOINSTYLE
280
     0
  9
$LWDISPLAY
290
     0
  9
$INSUNITS
 70
     4
  9
$HYPERLINKBASE
  1

  9
$STYLESHEET
  1

  9
$XEDIT
290
     1
  9
$CEPSNTYPE
380
     0
  9
$PSTYLEMODE
290
     1
  9
$FINGERPRINTGUID
  2
{865CF6FA-9723-4BCF-89AB-4B6E6D7390D5}
  9
$VERSIONGUID
  2
{363B13FD-A0FE-4FEB-B4B8-58997CEAB70D}
  9
$EXTNAMES
290
     1
  9
$PSVPSCALE
 40
0.0
  9
$OLESTARTUP
290
     0
  9
$SORTENTS
280
   127
  9
$INDEXCTL
280
     0
  9
$HIDETEXT
280
     1
  9
$XCLIPFRAME
280
     0
  9
$HALOGAP
280
     0
  9
$OBSCOLOR
 70
   257
  9
$OBSLTYPE
280
     0
  9
$INTERSECTIONDISPLAY
280
     0
  9
$INTERSECTIONCOLOR
 70
   257
  9
$DIMASSOC
280
     2
  9
$PROJECTNAME
  1

  9
$CAMERADISPLAY
290
     0
  9
$LENSLENGTH
 40
50.0
  9
$CAMERAHEIGHT
 40
0.0
  9
$STEPSPERSEC
 40
2.0
  9
$STEPSIZE
 40
6.0
  9
$3DDWFPREC
 40
2.0
  9
$PSOLWIDTH
 40
0.25
  9
$PSOLHEIGHT
 40
4.0
  9
$LOFTANG1
 40
1.570796326794896
  9
$LOFTANG2
 40
1.570796326794896
  9
$LOFTMAG1
 40
0.0
  9
$LOFTMAG2
 40
0.0
  9
$LOFTPARAM
 70
     7
  9
$LOFTNORMALS
280
     1
  9
$LATITUDE
 40
37.795
  9
$LONGITUDE
 40
-122.394
  9
$NORTHDIRECTION
 40
0.0
  9
$TIMEZONE
 70
 -8000
  9
$LIGHTGLYPHDISPLAY
280
     1
  9
$TILEMODELIGHTSYNCH
280
     1
  9
$CMATERIAL
347
146
  9
$SOLIDHIST
280
     0
  9
$SHOWHIST
280
     1
  9
$DWFFRAME
280
     2
  9
$DGNFRAME
280
     0
  9
$REALWORLDSCALE
290
     1
  9
$INTERFERECOLOR
 62
     1
  9
$INTERFEREOBJVS
345
33
  9
$INTERFEREVPVS
346
15E
  9
$CSHADOW
280
     0
  9
$SHADOWPLANELOCATION
 40
0.0
  0
ENDSEC
  0
SECTION
  2
CLASSES
  0
CLASS
  1
ACDBDICTIONARYWDFLT
  2
AcDbDictionaryWithDefault
  3
ObjectDBX Classes
 90
        0
 91
        1
280
     0
281
     0
  0
CLASS
  1
VISUALSTYLE
  2
AcDbVisualStyle
  3
ObjectDBX Classes
 90
     4095
 91
       26
280
     0
281
     0
  0
CLASS
  1
MATERIAL
  2
AcDbMaterial
  3
ObjectDBX Classes
 90
     1153
 91
        3
280
     0
281
     0
  0
CLASS
  1
TABLESTYLE
  2
AcDbTableStyle
  3
ObjectDBX Classes
 90
     4095
 91
        1
280
     0
281
     0
  0
CLASS
  1
SCALE
  2
AcDbScale
  3
ObjectDBX Classes
 90
     1153
 91
       17
280
     0
281
     0
  0
CLASS
  1
MLEADERSTYLE
  2
AcDbMLeaderStyle
  3
ACDB_MLEADERSTYLE_CLASS
 90
     4095
 91
        1
280
     0
281
     0
  0
CLASS
  1
ACDBSECTIONVIEWSTYLE
  2
AcDbSectionViewStyle
  3
ObjectDBX Classes
 90
     1025
 91
        1
280
     0
281
     0
  0
CLASS
  1
ACDBDETAILVIEWSTYLE
  2
AcDbDetailViewStyle
  3
ObjectDBX Classes
 90
     1025
 91
        1
280
     0
281
     0
  0
CLASS
  1
SOLID_BACKGROUND
  2
AcDbSolidBackground
  3
SCENEOE
 90
     4095
 91
        0
280
     0
281
     0
  0
CLASS
  1
NPOCOLLECTION
  2
AcDbImpNonPersistentObjectsCollection
  3
ObjectDBX Classes
 90
     1153
 91
        0
280
     0
281
     0
  0
CLASS
  1
DICTIONARYVAR
  2
AcDbDictionaryVar
  3
ObjectDBX Classes
 90
        0
 91
        9
280
     0
281
     0
  0
CLASS
  1
CELLSTYLEMAP
  2
AcDbCellStyleMap
  3
ObjectDBX Classes
 90
     1152
 91
        1
280
     0
281
     0
  0
ENDSEC
  0
SECTION
  2
TABLES
  0
TABLE
  2
VPORT
  5
8
330
0
100
AcDbSymbolTable
 70
     1
  0
VPORT
  5
29
330
8
100
AcDbSymbolTableRecord
100
AcDbViewportTableRecord
  2
*Active
 70
     0
 10
0.0
 20
0.0
 11
1.0
 21
1.0
 12
210.2233801949818
 22
-400.7646990342635
 13
0.0
 23
0.0
 14
0.5
 24
0.5
 15
0.5
 25
0.5
 16
-984.346639853631
 26
506.1609005674799
 36
404.6710981073165
 17
-15075.27671208787
 27
7650.327437672416
 37
6270.653350180499
 40
353.291057290726
 41
2.575815738963531
 42
50.0
 43
0.0
 44
0.0
 50
0.0
 51
0.0000000000000177
 71
     0
 72
   100
 73
     1
 74
     3
 75
     0
 76
     0
 77
     0
 78
     0
281
     0
 65
     1
110
-841.121485356302
120
-148.8721068684121
130
-3.274300132235716
111
1.0
121
0.0
131
0.0
112
0.0
122
1.0
132
0.0
 79
     0
146
0.0
348
2F
 60
     3
 61
     5
292
     1
282
     1
141
0.0
142
0.0
 63
   250
421
  3355443
1001
ACAD_NAV_VCDISPLAY
1070
     3
  0
ENDTAB
  0
TABLE
  2
LTYPE
  5
5
330
0
100
AcDbSymbolTable
 70
     2
  0
LTYPE
  5
14
330
5
100
AcDbSymbolTableRecord
100
AcDbLinetypeTableRecord
  2
ByBlock
 70
     0
  3

 72
    65
 73
     0
 40
0.0
  0
LTYPE
  5
15
330
5
100
AcDbSymbolTableRecord
100
AcDbLinetypeTableRecord
  2
ByLayer
 70
     0
  3

 72
    65
 73
     0
 40
0.0
  0
LTYPE
  5
16
330
5
100
AcDbSymbolTableRecord
100
AcDbLinetypeTableRecord
  2
Continuous
 70
     0
  3
Solid line
 72
    65
 73
     0
 40
0.0
  0
LTYPE
  5
17E
330
5
100
AcDbSymbolTableRecord
100
AcDbLinetypeTableRecord
  2
PHANTOM2
 70
     0
  3
Phantom (.5x) ___ _ _ ___ _ _ ___ _ _ ___ _ _
 72
    65
 73
     6
 40
1.25
 49
0.625
 74
     0
 49
-0.125
 74
     0
 49
0.125
 74
     0
 49
-0.125
 74
     0
 49
0.125
 74
     0
 49
-0.125
 74
     0
  0
ENDTAB
  0
TABLE
  2
LAYER
  5
2
102
{ACAD_XDICTIONARY
360
19D
102
}
330
0
100
AcDbSymbolTable
 70
     2
  0
LAYER
  5
10
102
{ACAD_XDICTIONARY
360
18B
102
}
330
2
100
AcDbSymbolTableRecord
100
AcDbLayerTableRecord
  2
0
 70
     0
 62
     1
  6
Continuous
370
    -3
390
F
347
156
348
0
  0
LAYER
  5
3B
102
{ACAD_XDICTIONARY
360
18D
102
}
330
2
100
AcDbSymbolTableRecord
100
AcDbLayerTableRecord
  2
IGES level 0
 70
     0
 62
   253
  6
Continuous
370
    -3
390
F
347
156
348
0
  0
ENDTAB
  0
TABLE
  2
STYLE
  5
3
330
0
100
AcDbSymbolTable
 70
     1
  0
STYLE
  5
11
330
3
100
AcDbSymbolTableRecord
100
AcDbTextStyleTableRecord
  2
Standard
 70
     0
 40
0.0
 41
1.0
 50
0.0
 71
     0
 42
0.2
  3
txt
  4

  0
ENDTAB
  0
TABLE
  2
VIEW
  5
6
330
0
100
AcDbSymbolTable
 70
     0
  0
ENDTAB
  0
TABLE
  2
UCS
  5
7
330
0
100
AcDbSymbolTable
 70
     0
  0
ENDTAB
  0
TABLE
  2
APPID
  5
9
330
0
100
AcDbSymbolTable
 70
     2
  0
APPID
  5
12
330
9
100
AcDbSymbolTableRecord
100
AcDbRegAppTableRecord
  2
ACAD
 70
     0
  0
APPID
  5
18F
330
9
100
AcDbSymbolTableRecord
100
AcDbRegAppTableRecord
  2
ACAD_NAV_VCDISPLAY
 70
     0
  0
ENDTAB
  0
TABLE
  2
DIMSTYLE
  5
A
330
0
100
AcDbSymbolTable
 70
     1
100
AcDbDimStyleTable
 71
     0
  0
DIMSTYLE
105
27
330
A
100
AcDbSymbolTableRecord
100
AcDbDimStyleTableRecord
  2
Standard
 70
     0
340
11
  0
ENDTAB
  0
TABLE
  2
BLOCK_RECORD
  5
1
330
0
100
AcDbSymbolTable
 70
     1
  0
BLOCK_RECORD
  5
1F
330
1
100
AcDbSymbolTableRecord
100
AcDbBlockTableRecord
  2
*Model_Space
340
22
 70
     0
280
     1
281
     0
  0
BLOCK_RECORD
  5
1B
330
1
100
AcDbSymbolTableRecord
100
AcDbBlockTableRecord
  2
*Paper_Space
340
1E
 70
     0
280
     1
281
     0
  0
BLOCK_RECORD
  5
23
330
1
100
AcDbSymbolTableRecord
100
AcDbBlockTableRecord
  2
*Paper_Space0
340
26
 70
     0
280
     1
281
     0
  0
ENDTAB
  0
ENDSEC
  0
SECTION
  2
BLOCKS
  0
BLOCK
  5
20
330
1F
100
AcDbEntity
  8
0
100
AcDbBlockBegin
  2
*Model_Space
 70
     0
 10
0.0
 20
0.0
 30
0.0
  3
*Model_Space
  1

  0
ENDBLK
  5
21
330
1F
100
AcDbEntity
  8
0
100
AcDbBlockEnd
  0
BLOCK
  5
1C
330
1B
100
AcDbEntity
 67
     1
  8
0
100
AcDbBlockBegin
  2
*Paper_Space
 70
     0
 10
0.0
 20
0.0
 30
0.0
  3
*Paper_Space
  1

  0
ENDBLK
  5
1D
330
1B
100
AcDbEntity
 67
     1
  8
0
100
AcDbBlockEnd
  0
BLOCK
  5
24
330
23
100
AcDbEntity
 67
     1
  8
0
100
AcDbBlockBegin
  2
*Paper_Space0
 70
     0
 10
0.0
 20
0.0
 30
0.0
  3
*Paper_Space0
  1

  0
ENDBLK
  5
25
330
23
100
AcDbEntity
 67
     1
  8
0
100
AcDbBlockEnd
  0
ENDSEC
  0
SECTION
  2
ENTITIES
  0
SPLINE
  5
3C
102
{ACAD_REACTORS
330
672
102
}
330
1F
100
AcDbEntity
  8
IGES level 0
100
AcDbSpline
210
-0.0000000000001059
220
-0.707106781186552
230
-0.7071067811865431
 70
    12
 71
     3
 72
     8
 73
     4
 74
     0
 42
0.0000000001
 43
0.0000000001
 40
1.5707963267949
 40
1.5707963267949
 40
1.5707963267949
 40
1.5707963267949
 40
3.14159265358979
 40
3.14159265358979
 40
3.14159265358979
 40
3.14159265358979
 10
-806.7723884280926
 20
-147.7925521406783
 30
8.200000000000004
 41
1.0
 10
-806.7723884280928
 20
-147.6753948531528
 30
8.082842712474619
 41
0.8047378541243599
 10
-806.689545715618
 20
-147.5925521406784
 30
8.000000000000003
 41
0.8047378541243599
 10
-806.5723884280927
 20
-147.5925521406783
 30
8.000000000000003
 41
1.0
  0
SPLINE
  5
3D
102
{ACAD_REACTORS
330
672
102
}
330
1F
100
AcDbEntity
  8
IGES level 0
100
AcDbSpline
210
0.0
220
0.0
230
1.0
 70
    24
 71
     2
 72
     6
 73
     3
 74
     0
 42
0.0000000001
 43
0.0000000001
 40
3.14159265358979
 40
3.14159265358979
 40
3.14159265358979
 40
3.143192653589788
 40
3.143192653589788
 40
3.143192653589788
 10
-806.5723884280927
 20
-147.5925521406783
 30
8.000000000000003
 10
-805.7723884280926
 20
-147.5925521406783
 30
8.000000000000005
 10
-804.9723884280927
 20
-147.5925521406783
 30
8.000000000000005
  0
SPLINE
  5
3E
102
{ACAD_REACTORS
330
672
102
}
330
1F
100
AcDbEntity
  8
IGES level 0
100
AcDbSpline
210
0.0000000000001101
220
-0.7071067811865495
230
-0.7071067811865457
 70
    12
 71
     3
 72
     8
 73
     4
 74
     0
 42
0.0000000001
 43
0.0000000001
 40
3.143192653589788
 40
3.143192653589788
 40
3.143192653589788
 40
3.143192653589788
 40
4.713988980384688
 40
4.713988980384688
 40
4.713988980384688
 40
4.713988980384688
 10
-804.9723884280927
 20
-147.5925521406783
 30
8.000000000000005
 41
1.0
 10
-804.8552311405673
 20
-147.5925521406784
 30
8.000000000000003
 41
0.8047378541243599
 10
-804.7723884280927
 20
-147.6753948531528
 30
8.082842712474622
 41
0.8047378541243599
 10
-804.7723884280927
 20
-147.7925521406783
 30
8.200000000000004
 41
1.0
  0
SPLINE
  5
3F
102
{ACAD_REACTORS
330
672
102
}
330
1F
100
AcDbEntity
  8
IGES level 0
100
AcDbSpline
210
1.0
220
0.0
230
0.0
 70
    24
 71
     2
 72
     6
 73
     3
 74
     0
 42
0.0000000001
 43
0.0000000001
 40
4.713988980384688
 40
4.713988980384688
 40
4.713988980384688
 40
4.71794877835933
 40
4.71794877835933
 40
4.71794877835933
 10
-804.7723884280927
 20
-147.7925521406785
 30
8.199999999999825
 10
-804.7723884280927
 20
-149.1925521406785
 30
9.599999999999864
 10
-804.7723884280927
 20
-150.5925521406784
 30
10.99999999999991
  0
SPLINE
  5
40
102
{ACAD_REACTORS
330
672
102
}
330
1F
100
AcDbEntity
  8
IGES level 0
100
AcDbSpline
210
0.0
220
0.0
230
1.0
 70
    24
 71
     2
 72
     6
 73
     3
 74
     0
 42
0.0000000001
 43
0.0000000001
 40
4.71794877835933
 40
4.71794877835933
 40
4.71794877835933
 40
4.719948778359329
 40
4.719948778359329
 40
4.719948778359329
 10
-804.7723884280927
 20
-150.5925521406783
 30
11.0
 10
-805.7723884280926
 20
-150.5925521406784
 30
11.0
 10
-806.7723884280926
 20
-150.5925521406783
 30
11.0
  0
SPLINE
  5
41
102
{ACAD_REACTORS
330
672
102
}
330
1F
100
AcDbEntity
  8
IGES level 0
100
AcDbSpline
210
1.0
220
0.0
230
0.0
 70
    24
 71
     2
 72
     6
 73
     3
 74
     0
 42
0.0000000001
 43
0.0000000001
 40
4.719948778359329
 40
4.719948778359329
 40
4.719948778359329
 40
4.723908576333968
 40
4.723908576333968
 40
4.723908576333968
 10
-806.7723884280926
 20
-150.5925521406784
 30
10.99999999999984
 10
-806.7723884280926
 20
-149.1925521406785
 30
9.599999999999834
 10
-806.7723884280926
 20
-147.7925521406785
 30
8.199999999999819
  0
SPLINE
  5
44
102
{ACAD_REACTORS
330
672
102
}
330
1F
100
AcDbEntity
  8
IGES level 0
100
AcDbSpline
210
-0.000000000001217
220
0.7071067811868614
230
-0.707106781186234
 70
    12
 71
     3
 72
     8
 73
     4
 74
     0
 42
0.0000000001
 43
0.0000000001
 40
4.71238898038469
 40
4.71238898038469
 40
4.71238898038469
 40
4.71238898038469
 40
6.283185307179588
 40
6.283185307179588
 40
6.283185307179588
 40
6.283185307179588
 10
-804.7723884280923
 20
470.6074478593214
 30
8.199999999999995
 41
1.0
 10
-804.7723884280923
 20
470.4902905717964
 30
8.082842712474622
 41
0.8047378541243599
 10
-804.8552311405668
 20
470.4074478593214
 30
8.000000000000001
 41
0.8047378541243599
 10
-804.9723884280924
 20
470.4074478593214
 30
7.999999999999994
 41
1.0
  0
SPLINE
  5
45
102
{ACAD_REACTORS
330
672
102
}
330
1F
100
AcDbEntity
  8
IGES level 0
100
AcDbSpline
210
0.0
220
0.0
230
1.0
 70
    24
 71
     2
 72
     6
 73
     3
 74
     0
 42
0.0000000001
 43
0.0000000001
 40
6.283185307179588
 40
6.283185307179588
 40
6.283185307179588
 40
6.284785307179589
 40
6.284785307179589
 40
6.284785307179589
 10
-804.9723884280924
 20
470.4074478593214
 30
7.999999999999994
 10
-805.7723884280923
 20
470.4074478593214
 30
7.999999999999994
 10
-806.5723884280922
 20
470.4074478593214
 30
8.000000000000001
  0
SPLINE
  5
46
102
{ACAD_REACTORS
330
672
102
}
330
1F
100
AcDbEntity
  8
IGES level 0
100
AcDbSpline
210
0.0000000000012705
220
0.7071067811868741
230
-0.7071067811862211
 70
    12
 71
     3
 72
     8
 73
     4
 74
     0
 42
0.0000000001
 43
0.0000000001
 40
6.284785307179589
 40
6.284785307179589
 40
6.284785307179589
 40
6.284785307179589
 40
7.85558163397449
 40
7.85558163397449
 40
7.85558163397449
 40
7.85558163397449
 10
-806.5723884280922
 20
470.4074478593214
 30
8.000000000000001
 41
1.0
 10
-806.6895457156176
 20
470.4074478593214
 30
7.999999999999995
 41
0.8047378541243599
 10
-806.7723884280923
 20
470.4902905717964
 30
8.082842712474619
 41
0.8047378541243599
 10
-806.7723884280923
 20
470.6074478593214
 30
8.199999999999992
 41
1.0
  0
SPLINE
  5
47
102
{ACAD_REACTORS
330
672
102
}
330
1F
100
AcDbEntity
  8
IGES level 0
100
AcDbSpline
210
-1.0
220
0.0
230
0.0
 70
    24
 71
     2
 72
     6
 73
     3
 74
     0
 42
0.0000000001
 43
0.0000000001
 40
7.85558163397449
 40
7.85558163397449
 40
7.85558163397449
 40
7.859541431949138
 40
7.859541431949138
 40
7.859541431949138
 10
-806.7723884280923
 20
470.6074478593214
 30
8.199999999999906
 10
-806.7723884280923
 20
472.0074478593216
 30
9.599999999999925
 10
-806.7723884280923
 20
473.4074478593217
 30
10.99999999999994
  0
SPLINE
  5
48
102
{ACAD_REACTORS
330
672
102
}
330
1F
100
AcDbEntity
  8
IGES level 0
100
AcDbSpline
210
0.0
220
0.0
230
1.0
 70
    24
 71
     2
 72
     6
 73
     3
 74
     0
 42
0.0000000001
 43
0.0000000001
 40
7.859541431949138
 40
7.859541431949138
 40
7.859541431949138
 40
7.861541431949137
 40
7.861541431949137
 40
7.861541431949137
 10
-806.7723884280923
 20
473.4074478593214
 30
11.0
 10
-805.7723884280923
 20
473.4074478593214
 30
11.0
 10
-804.7723884280923
 20
473.4074478593214
 30
11.0
  0
SPLINE
  5
49
102
{ACAD_REACTORS
330
672
102
}
330
1F
100
AcDbEntity
  8
IGES level 0
100
AcDbSpline
210
-1.0
220
0.0
230
0.0
 70
    24
 71
     2
 72
     6
 73
     3
 74
     0
 42
0.0000000001
 43
0.0000000001
 40
7.861541431949137
 40
7.861541431949137
 40
7.861541431949137
 40
7.865501229923778
 40
7.865501229923778
 40
7.865501229923778
 10
-804.7723884280923
 20
473.4074478593214
 30
10.99999999999988
 10
-804.7723884280923
 20
472.0074478593216
 30
9.5999999999999
 10
-804.7723884280923
 20
470.6074478593214
 30
8.199999999999938
  0
SPLINE
  5
59
102
{ACAD_REACTORS
330
672
102
}
330
1F
100
AcDbEntity
  8
IGES level 0
100
AcDbSpline
210
0.0
220
-1.0
230
0.0
 70
    28
 71
     2
 72
     6
 73
     3
 74
     0
 42
0.0000000001
 43
0.0000000001
 40
9.285090623537966
 40
9.285090623537966
 40
9.285090623537966
 40
9.28699593989635
 40
9.28699593989635
 40
9.28699593989635
 10
-842.2076091674382
 20
161.4074478593217
 30
11.99761835455201
 41
1.0
 10
-842.2089790522784
 20
161.4074478593217
 30
11.99880917727601
 41
1.0
 10
-842.2103489371187
 20
161.4074478593217
 30
12.0
 41
1.0
  0
SPLINE
  5
68
102
{ACAD_REACTORS
330
672
102
}
330
1F
100
AcDbEntity
  8
IGES level 0
100
AcDbSpline
210
1.0
220
0.0
230
0.0
 70
    24
 71
     2
 72
     6
 73
     3
 74
     0
 42
0.0000000001
 43
0.0000000001
 40
4.71238898038469
 40
4.71238898038469
 40
4.71238898038469
 40
4.713888980384687
 40
4.713888980384687
 40
4.713888980384687
 10
-817.4723884280927
 20
-150.5925521406783
 30
16.5
 10
-817.4723884280927
 20
-150.5925521406784
 30
17.25
 10
-817.4723884280927
 20
-150.5925521406783
 30
18.0
  0
SPLINE
  5
77
102
{ACAD_REACTORS
330
672
102
}
330
1F
100
AcDbEntity
  8
IGES level 0
100
AcDbSpline
210
0.0
220
0.0
230
1.0
 70
    24
 71
     2
 72
     6
 73
     3
 74
     0
 42
0.0000000001
 43
0.0000000001
 40
0.003
 40
0.003
 40
0.003
 40
0.005
 40
0.005
 40
0.005
 10
-806.7723884280926
 20
-150.5925521406783
 30
11.0
 10
-805.7723884280926
 20
-150.5925521406784
 30
11.0
 10
-804.7723884280927
 20
-150.5925521406783
 30
11.0
  0
SPLINE
  5
78
102
{ACAD_REACTORS
330
672
102
}
330
1F
100
AcDbEntity
  8
IGES level 0
100
AcDbSpline
210
1.0
220
0.0
230
0.0
 70
    24
 71
     2
 72
     6
 73
     3
 74
     0
 42
0.0000000001
 43
0.0000000001
 40
0.005
 40
0.005
 40
0.005
 40
0.011
 40
0.011
 40
0.011
 10
-804.7723884280927
 20
-150.5925521406783
 30
11.00000000000001
 10
-804.7723884280927
 20
-150.5925521406783
 30
14.00000000000001
 10
-804.7723884280927
 20
-150.5925521406783
 30
17.00000000000001
  0
SPLINE
  5
79
102
{ACAD_REACTORS
330
672
102
}
330
1F
100
AcDbEntity
  8
IGES level 0
100
AcDbSpline
210
0.0
220
1.0
230
0.0
 70
    12
 71
     3
 72
     8
 73
     4
 74
     0
 42
0.0000000001
 43
0.0000000001
 40
0.011
 40
0.011
 40
0.011
 40
0.011
 40
1.5817963267949
 40
1.5817963267949
 40
1.5817963267949
 40
1.5817963267949
 10
-804.7723884280927
 20
-150.5925521406783
 30
17.0
 41
1.0
 10
-804.7723884280927
 20
-150.5925521406783
 30
17.58578643762692
 41
0.8047378541243599
 10
-805.1866019904657
 20
-150.5925521406783
 30
18.0
 41
0.8047378541243599
 10
-805.7723884280926
 20
-150.5925521406783
 30
18.0
 41
1.0
  0
SPLINE
  5
7A
102
{ACAD_REACTORS
330
672
102
}
330
1F
100
AcDbEntity
  8
IGES level 0
100
AcDbSpline
210
0.0
220
0.0
230
1.0
 70
    24
 71
     2
 72
     6
 73
     3
 74
     0
 42
0.0000000001
 43
0.0000000001
 40
1.5817963267949
 40
1.5817963267949
 40
1.5817963267949
 40
1.5934963267949
 40
1.5934963267949
 40
1.5934963267949
 10
-805.7723884280926
 20
-150.5925521406783
 30
18.0
 10
-811.6223884280927
 20
-150.5925521406784
 30
17.99999999999999
 10
-817.4723884280927
 20
-150.5925521406783
 30
18.0
  0
SPLINE
  5
7B
102
{ACAD_REACTORS
330
672
102
}
330
1F
100
AcDbEntity
  8
IGES level 0
100
AcDbSpline
210
1.0
220
0.0
230
0.0
 70
    24
 71
     2
 72
     6
 73
     3
 74
     0
 42
0.0000000001
 43
0.0000000001
 40
1.5934963267949
 40
1.5934963267949
 40
1.5934963267949
 40
1.5949963267949
 40
1.5949963267949
 40
1.5949963267949
 10
-817.4723884280927
 20
-150.5925521406783
 30
18.0
 10
-817.4723884280927
 20
-150.5925521406784
 30
17.25
 10
-817.4723884280927
 20
-150.5925521406783
 30
16.5
  0
SPLINE
  5
7C
102
{ACAD_REACTORS
330
672
102
}
330
1F
100
AcDbEntity
  8
IGES level 0
100
AcDbSpline
210
0.0
220
0.0
230
1.0
 70
    24
 71
     2
 72
     6
 73
     3
 74
     0
 42
0.0000000001
 43
0.0000000001
 40
1.5949963267949
 40
1.5949963267949
 40
1.5949963267949
 40
1.6031963267949
 40
1.6031963267949
 40
1.6031963267949
 10
-817.4723884280927
 20
-150.5925521406783
 30
16.5
 10
-813.3723884280927
 20
-150.5925521406783
 30
16.49999999999999
 10
-809.2723884280927
 20
-150.5925521406783
 30
16.5
  0
SPLINE
  5
7F
102
{ACAD_REACTORS
330
672
102
}
330
1F
100
AcDbEntity
  8
IGES level 0
100
AcDbSpline
210
0.0
220
0.0
230
1.0
 70
    24
 71
     2
 72
     6
 73
     3
 74
     0
 42
0.0000000001
 43
0.0000000001
 40
0.0
 40
0.0
 40
0.0
 40
0.1614197347336439
 40
0.1614197347336439
 40
0.1614197347336439
 10
-804.7723884280927
 20
-150.5925521406783
 30
14.50000000000001
 10
-805.7974037436514
 20
-150.5925521406783
 30
14.50000000000001
 10
-806.8224190592101
 20
-150.5925521406783
 30
14.50000000000001
  0
SPLINE
  5
83
102
{ACAD_REACTORS
330
672
102
}
330
1F
100
AcDbEntity
  8
IGES level 0
100
AcDbSpline
210
1.0
220
0.0
230
0.0
 70
    24
 71
     2
 72
     6
 73
     3
 74
     0
 42
0.0000000001
 43
0.0000000001
 40
4.713488980384691
 40
4.713488980384691
 40
4.713488980384691
 40
4.714988980384691
 40
4.714988980384691
 40
4.714988980384691
 10
-817.4723884280922
 20
473.4074478593214
 30
18.0
 10
-817.4723884280922
 20
473.4074478593214
 30
17.25
 10
-817.4723884280922
 20
473.4074478593214
 30
16.5
  0
SPLINE
  5
8F
102
{ACAD_REACTORS
330
672
102
}
330
1F
100
AcDbEntity
  8
IGES level 0
100
AcDbSpline
210
1.0
220
0.0
230
0.0
 70
    24
 71
     2
 72
     6
 73
     3
 74
     0
 42
0.0000000001
 43
0.0000000001
 40
-0.70414962951135
 40
-0.70414962951135
 40
-0.70414962951135
 40
-0.69814962951135
 40
-0.69814962951135
 40
-0.69814962951135
 10
-804.7723884280923
 20
473.4074478593214
 30
17.00000000000001
 10
-804.7723884280923
 20
473.4074478593214
 30
13.9999999999999
 10
-804.7723884280923
 20
473.4074478593214
 30
10.99999999999979
  0
SPLINE
  5
90
102
{ACAD_REACTORS
330
672
102
}
330
1F
100
AcDbEntity
  8
IGES level 0
100
AcDbSpline
210
0.0
220
0.0
230
1.0
 70
    24
 71
     2
 72
     6
 73
     3
 74
     0
 42
0.0000000001
 43
0.0000000001
 40
-0.69814962951135
 40
-0.69814962951135
 40
-0.69814962951135
 40
-0.69614962951135
 40
-0.69614962951135
 40
-0.69614962951135
 10
-804.7723884280923
 20
473.4074478593214
 30
11.0
 10
-805.7723884280923
 20
473.4074478593214
 30
11.0
 10
-806.7723884280923
 20
473.4074478593214
 30
11.0
  0
SPLINE
  5
93
102
{ACAD_REACTORS
330
672
102
}
330
1F
100
AcDbEntity
  8
IGES level 0
100
AcDbSpline
210
0.0
220
0.0
230
1.0
 70
    24
 71
     2
 72
     6
 73
     3
 74
     0
 42
0.0000000001
 43
0.0000000001
 40
0.8776466972835502
 40
0.8776466972835502
 40
0.8776466972835502
 40
0.88584669728355
 40
0.88584669728355
 40
0.88584669728355
 10
-809.2723884280923
 20
473.4074478593214
 30
16.49999999999999
 10
-813.3723884280923
 20
473.4074478593217
 30
16.49999999999999
 10
-817.4723884280922
 20
473.4074478593214
 30
16.5
  0
SPLINE
  5
94
102
{ACAD_REACTORS
330
672
102
}
330
1F
100
AcDbEntity
  8
IGES level 0
100
AcDbSpline
210
1.0
220
0.0
230
0.0
 70
    24
 71
     2
 72
     6
 73
     3
 74
     0
 42
0.0000000001
 43
0.0000000001
 40
0.88584669728355
 40
0.88584669728355
 40
0.88584669728355
 40
0.8873466972835501
 40
0.8873466972835501
 40
0.8873466972835501
 10
-817.4723884280922
 20
473.4074478593214
 30
16.5
 10
-817.4723884280922
 20
473.4074478593214
 30
17.25
 10
-817.4723884280922
 20
473.4074478593214
 30
18.0
  0
SPLINE
  5
95
102
{ACAD_REACTORS
330
672
102
}
330
1F
100
AcDbEntity
  8
IGES level 0
100
AcDbSpline
210
0.0
220
0.0
230
1.0
 70
    24
 71
     2
 72
     6
 73
     3
 74
     0
 42
0.0000000001
 43
0.0000000001
 40
0.8873466972835501
 40
0.8873466972835501
 40
0.8873466972835501
 40
0.89904669728355
 40
0.89904669728355
 40
0.89904669728355
 10
-817.4723884280922
 20
473.4074478593214
 30
18.0
 10
-811.6223884280923
 20
473.4074478593214
 30
17.99999999999999
 10
-805.7723884280923
 20
473.4074478593214
 30
18.0
  0
SPLINE
  5
96
102
{ACAD_REACTORS
330
672
102
}
330
1F
100
AcDbEntity
  8
IGES level 0
100
AcDbSpline
210
0.0
220
1.0
230
0.0
 70
    12
 71
     3
 72
     8
 73
     4
 74
     0
 42
0.0000000001
 43
0.0000000001
 40
0.89904669728355
 40
0.89904669728355
 40
0.89904669728355
 40
0.89904669728355
 40
2.46984302407845
 40
2.46984302407845
 40
2.46984302407845
 40
2.46984302407845
 10
-805.7723884280923
 20
473.4074478593214
 30
18.0
 41
1.0
 10
-805.1866019904654
 20
473.4074478593214
 30
18.0
 41
0.8047378541243599
 10
-804.7723884280923
 20
473.4074478593214
 30
17.58578643762691
 41
0.8047378541243599
 10
-804.7723884280923
 20
473.4074478593214
 30
17.0
 41
1.0
  0
SPLINE
  5
98
102
{ACAD_REACTORS
330
672
102
}
330
1F
100
AcDbEntity
  8
IGES level 0
100
AcDbSpline
210
0.0
220
0.0
230
1.0
 70
    24
 71
     2
 72
     6
 73
     3
 74
     0
 42
0.0000000001
 43
0.0000000001
 40
0.0
 40
0.0
 40
0.0
 40
0.1614197347336425
 40
0.1614197347336425
 40
0.1614197347336425
 10
-804.7723884280923
 20
473.4074478593217
 30
14.4999999999999
 10
-805.7974037436508
 20
473.4074478593214
 30
14.49999999999989
 10
-806.8224190592095
 20
473.4074478593214
 30
14.4999999999999
  0
SPLINE
  5
DE
102
{ACAD_REACTORS
330
672
102
}
330
1F
100
AcDbEntity
  8
IGES level 0
100
AcDbSpline
210
0.0
220
-1.0
230
0.0
 70
    12
 71
     3
 72
     8
 73
     4
 74
     0
 42
0.0000000001
 43
0.0000000001
 40
0.0
 40
0.0
 40
0.0
 40
0.0
 40
1.0
 40
1.0
 40
1.0
 40
1.0
 10
-839.4723884280924
 20
161.4074478593217
 30
0.0000000000000036
 41
1.0
 10
-839.355231140567
 20
161.4074478593217
 30
0.0000000000000071
 41
0.8047378541243599
 10
-839.2723884280924
 20
161.4074478593217
 30
0.0828427124746227
 41
0.8047378541243599
 10
-839.2723884280924
 20
161.4074478593217
 30
0.2000000000000028
 41
1.0
  0
SPLINE
  5
E4
102
{ACAD_REACTORS
330
672
102
}
330
1F
100
AcDbEntity
  8
IGES level 0
100
AcDbSpline
210
0.0
220
0.0
230
1.0
 70
    24
 71
     2
 72
     6
 73
     3
 74
     0
 42
0.0000000001
 43
0.0000000001
 40
0.0
 40
0.0
 40
0.0
 40
1.0
 40
1.0
 40
1.0
 10
-840.5723884280925
 20
161.4074478593217
 30
0.0
 10
-840.0223884280924
 20
161.4074478593217
 30
0.0
 10
-839.4723884280924
 20
161.4074478593217
 30
0.0000000000000036
  0
SPLINE
  5
EA
102
{ACAD_REACTORS
330
672
102
}
330
1F
100
AcDbEntity
  8
IGES level 0
100
AcDbSpline
210
-0.0000000000002427
220
-1.0
230
-0.0000000000002427
 70
    12
 71
     3
 72
     8
 73
     4
 74
     0
 42
0.0000000001
 43
0.0000000001
 40
0.0
 40
0.0
 40
0.0
 40
0.0
 40
1.0
 40
1.0
 40
1.0
 40
1.0
 10
-840.7723884280924
 20
161.4074478593217
 30
0.1999999999999993
 41
1.0
 10
-840.7723884280924
 20
161.4074478593217
 30
0.0828427124746192
 41
0.80473785412437
 10
-840.6895457156178
 20
161.4074478593217
 30
-0.0000000000000036
 41
0.80473785412437
 10
-840.5723884280925
 20
161.4074478593217
 30
0.0
 41
1.0
  0
SPLINE
  5
FD
102
{ACAD_REACTORS
330
672
102
}
330
1F
100
AcDbEntity
  8
IGES level 0
100
AcDbSpline
210
0.0
220
-1.0
230
0.0
 70
    12
 71
     3
 72
     8
 73
     4
 74
     0
 42
0.0000000001
 43
0.0000000001
 40
0.0
 40
0.0
 40
0.0
 40
0.0
 40
1.0
 40
1.0
 40
1.0
 40
1.0
 10
-840.4723884280924
 20
161.4074478593217
 30
18.0
 41
1.0
 10
-840.6481243593805
 20
161.4074478593217
 30
18.0
 41
0.8047378541243599
 10
-840.7723884280924
 20
161.4074478593217
 30
17.87573593128806
 41
0.8047378541243599
 10
-840.7723884280924
 20
161.4074478593217
 30
17.7
 41
1.0
  0
SPLINE
  5
101
102
{ACAD_REACTORS
330
672
102
}
330
1F
100
AcDbEntity
  8
IGES level 0
100
AcDbSpline
210
0.0
220
0.0
230
1.0
 70
    24
 71
     2
 72
     6
 73
     3
 74
     0
 42
0.0000000001
 43
0.0000000001
 40
1.567796326794899
 40
1.567796326794899
 40
1.567796326794899
 40
1.5794963267949
 40
1.5794963267949
 40
1.5794963267949
 10
-817.4723884280927
 20
-150.5925521406783
 30
18.0
 10
-811.6223884280927
 20
-150.5925521406784
 30
17.99999999999999
 10
-805.7723884280926
 20
-150.5925521406783
 30
18.0
  0
SPLINE
  5
102
102
{ACAD_REACTORS
330
672
102
}
330
1F
100
AcDbEntity
  8
IGES level 0
100
AcDbSpline
210
0.0
220
0.0
230
1.0
 70
    24
 71
     2
 72
     6
 73
     3
 74
     0
 42
0.0000000001
 43
0.0000000001
 40
1.5794963267949
 40
1.5794963267949
 40
1.5794963267949
 40
2.203496326794898
 40
2.203496326794898
 40
2.203496326794898
 10
-805.7723884280926
 20
-150.5925521406782
 30
18.0
 10
-805.7723884280925
 20
161.4074478593217
 30
18.0
 10
-805.7723884280923
 20
473.4074478593214
 30
18.0
  0
SPLINE
  5
103
102
{ACAD_REACTORS
330
672
102
}
330
1F
100
AcDbEntity
  8
IGES level 0
100
AcDbSpline
210
0.0
220
0.0
230
1.0
 70
    24
 71
     2
 72
     6
 73
     3
 74
     0
 42
0.0000000001
 43
0.0000000001
 40
2.203496326794898
 40
2.203496326794898
 40
2.203496326794898
 40
2.2151963267949
 40
2.2151963267949
 40
2.2151963267949
 10
-805.7723884280923
 20
473.4074478593214
 30
18.0
 10
-811.6223884280923
 20
473.4074478593214
 30
17.99999999999999
 10
-817.4723884280922
 20
473.4074478593214
 30
18.0
  0
SPLINE
  5
10B
102
{ACAD_REACTORS
330
672
102
}
330
1F
100
AcDbEntity
  8
IGES level 0
100
AcDbSpline
210
0.0
220
1.0
230
0.0
 70
    12
 71
     3
 72
     8
 73
     4
 74
     0
 42
0.0000000001
 43
0.0000000001
 40
0.0
 40
0.0
 40
0.0
 40
0.0
 40
1.0
 40
1.0
 40
1.0
 40
1.0
 10
-804.7723884280923
 20
473.4074478593214
 30
17.0
 41
1.0
 10
-804.7723884280923
 20
473.4074478593214
 30
17.58578643762691
 41
0.8047378541243599
 10
-805.1866019904654
 20
473.4074478593214
 30
18.0
 41
0.8047378541243599
 10
-805.7723884280923
 20
473.4074478593214
 30
18.0
 41
1.0
  0
SPLINE
  5
10C
102
{ACAD_REACTORS
330
672
102
}
330
1F
100
AcDbEntity
  8
IGES level 0
100
AcDbSpline
210
0.0
220
0.0
230
1.0
 70
    28
 71
     2
 72
     6
 73
     3
 74
     0
 42
0.0000000001
 43
0.0000000001
 40
0.0
 40
0.0
 40
0.0
 40
1.0
 40
1.0
 40
1.0
 10
-805.7723884280923
 20
473.4074478593214
 30
18.0
 41
1.0
 10
-805.7723884280925
 20
161.4074478593217
 30
18.0
 41
1.0
 10
-805.7723884280926
 20
-150.5925521406782
 30
18.0
 41
1.0
  0
SPLINE
  5
10D
102
{ACAD_REACTORS
330
672
102
}
330
1F
100
AcDbEntity
  8
IGES level 0
100
AcDbSpline
210
0.0
220
1.0
230
0.0
 70
    12
 71
     3
 72
     8
 73
     4
 74
     0
 42
0.0000000001
 43
0.0000000001
 40
-1.0
 40
-1.0
 40
-1.0
 40
-1.0
 40
0.0
 40
0.0
 40
0.0
 40
0.0
 10
-805.7723884280926
 20
-150.5925521406782
 30
18.0
 41
1.0
 10
-805.1866019904659
 20
-150.5925521406782
 30
18.0
 41
0.8047378541243599
 10
-804.7723884280927
 20
-150.5925521406782
 30
17.58578643762692
 41
0.8047378541243599
 10
-804.7723884280927
 20
-150.5925521406782
 30
17.0
 41
1.0
  0
SPLINE
  5
10E
102
{ACAD_REACTORS
330
672
102
}
330
1F
100
AcDbEntity
  8
IGES level 0
100
AcDbSpline
210
0.0
220
0.0
230
1.0
 70
    28
 71
     2
 72
     6
 73
     3
 74
     0
 42
0.0000000001
 43
0.0000000001
 40
-1.0
 40
-1.0
 40
-1.0
 40
0.0
 40
0.0
 40
0.0
 10
-804.7723884280927
 20
-150.5925521406782
 30
17.0
 41
1.0
 10
-804.7723884280925
 20
161.4074478593217
 30
17.0
 41
1.0
 10
-804.7723884280923
 20
473.4074478593214
 30
17.0
 41
1.0
  0
SPLINE
  5
110
102
{ACAD_REACTORS
330
672
102
}
330
1F
100
AcDbEntity
  8
IGES level 0
100
AcDbSpline
210
0.0
220
0.0
230
1.0
 70
    28
 71
     2
 72
     6
 73
     3
 74
     0
 42
0.0000000001
 43
0.0000000001
 40
0.0
 40
0.0
 40
0.0
 40
1.0
 40
1.0
 40
1.0
 10
-805.0652816469057
 20
473.4074478593214
 30
17.70710678118654
 41
0.85355339059327
 10
-805.065281646906
 20
161.4074478593217
 30
17.70710678118655
 41
0.85355339059327
 10
-805.0652816469062
 20
-150.592552140678
 30
17.70710678118655
 41
0.85355339059327
  0
SPLINE
  5
111
102
{ACAD_REACTORS
330
672
102
}
330
1F
100
AcDbEntity
  8
IGES level 0
100
AcDbSpline
210
0.0
220
0.0
230
1.0
 70
    24
 71
     2
 72
     6
 73
     3
 74
     0
 42
0.0000000001
 43
0.0000000001
 40
-0.6612
 40
-0.6612
 40
-0.6612
 40
-0.0428
 40
-0.0428
 40
-0.0428
 10
-804.7723884280927
 20
-147.7925521406783
 30
8.200000000000004
 10
-804.7723884280925
 20
161.4074478593217
 30
8.200000000000001
 10
-804.7723884280923
 20
470.6074478593214
 30
8.199999999999995
  0
SPLINE
  5
112
102
{ACAD_REACTORS
330
672
102
}
330
1F
100
AcDbEntity
  8
IGES level 0
100
AcDbSpline
210
1.0
220
0.0
230
0.0
 70
    24
 71
     2
 72
     6
 73
     3
 74
     0
 42
0.0000000001
 43
0.0000000001
 40
-0.0428
 40
-0.0428
 40
-0.0428
 40
-0.03884020202536
 40
-0.03884020202536
 40
-0.03884020202536
 10
-804.7723884280923
 20
470.6074478593214
 30
8.199999999999938
 10
-804.7723884280923
 20
472.0074478593216
 30
9.5999999999999
 10
-804.7723884280923
 20
473.4074478593214
 30
10.99999999999988
  0
SPLINE
  5
113
102
{ACAD_REACTORS
330
672
102
}
330
1F
100
AcDbEntity
  8
IGES level 0
100
AcDbSpline
210
1.0
220
0.0
230
0.0
 70
    24
 71
     2
 72
     6
 73
     3
 74
     0
 42
0.0000000001
 43
0.0000000001
 40
-0.03884020202536
 40
-0.03884020202536
 40
-0.03884020202536
 40
-0.03284020202536
 40
-0.03284020202536
 40
-0.03284020202536
 10
-804.7723884280923
 20
473.4074478593214
 30
10.99999999999979
 10
-804.7723884280923
 20
473.4074478593214
 30
13.9999999999999
 10
-804.7723884280923
 20
473.4074478593214
 30
17.00000000000001
  0
SPLINE
  5
114
102
{ACAD_REACTORS
330
672
102
}
330
1F
100
AcDbEntity
  8
IGES level 0
100
AcDbSpline
210
0.0
220
0.0
230
1.0
 70
    24
 71
     2
 72
     6
 73
     3
 74
     0
 42
0.0000000001
 43
0.0000000001
 40
-0.03284020202536
 40
-0.03284020202536
 40
-0.03284020202536
 40
0.59115979797464
 40
0.59115979797464
 40
0.59115979797464
 10
-804.7723884280923
 20
473.4074478593214
 30
17.0
 10
-804.7723884280925
 20
161.4074478593217
 30
17.0
 10
-804.7723884280927
 20
-150.5925521406782
 30
17.0
  0
SPLINE
  5
115
102
{ACAD_REACTORS
330
672
102
}
330
1F
100
AcDbEntity
  8
IGES level 0
100
AcDbSpline
210
1.0
220
0.0
230
0.0
 70
    24
 71
     2
 72
     6
 73
     3
 74
     0
 42
0.0000000001
 43
0.0000000001
 40
0.59115979797464
 40
0.59115979797464
 40
0.59115979797464
 40
0.5971597979746402
 40
0.5971597979746402
 40
0.5971597979746402
 10
-804.7723884280927
 20
-150.5925521406783
 30
17.00000000000001
 10
-804.7723884280927
 20
-150.5925521406783
 30
14.00000000000001
 10
-804.7723884280927
 20
-150.5925521406783
 30
11.00000000000001
  0
SPLINE
  5
116
102
{ACAD_REACTORS
330
672
102
}
330
1F
100
AcDbEntity
  8
IGES level 0
100
AcDbSpline
210
1.0
220
0.0
230
0.0
 70
    24
 71
     2
 72
     6
 73
     3
 74
     0
 42
0.0000000001
 43
0.0000000001
 40
0.5971597979746402
 40
0.5971597979746402
 40
0.5971597979746402
 40
0.60111959594928
 40
0.60111959594928
 40
0.60111959594928
 10
-804.7723884280927
 20
-150.5925521406784
 30
10.99999999999991
 10
-804.7723884280927
 20
-149.1925521406785
 30
9.599999999999864
 10
-804.7723884280927
 20
-147.7925521406785
 30
8.199999999999825
  0
SPLINE
  5
119
102
{ACAD_REACTORS
330
672
102
}
330
1F
100
AcDbEntity
  8
IGES level 0
100
AcDbSpline
210
0.0
220
0.0
230
1.0
 70
    24
 71
     2
 72
     6
 73
     3
 74
     0
 42
0.0000000001
 43
0.0000000001
 40
-0.661
 40
-0.661
 40
-0.661
 40
-0.043
 40
-0.043
 40
-0.043
 10
-804.9723884280927
 20
-147.5925521406784
 30
8.0
 10
-804.9723884280924
 20
161.4074478593217
 30
7.999999999999998
 10
-804.9723884280924
 20
470.4074478593214
 30
7.999999999999994
  0
SPLINE
  5
11A
102
{ACAD_REACTORS
330
672
102
}
330
1F
100
AcDbEntity
  8
IGES level 0
100
AcDbSpline
210
-0.0000000000012169
220
0.7071067811868616
230
-0.7071067811862336
 70
    12
 71
     3
 72
     8
 73
     4
 74
     0
 42
0.0000000001
 43
0.0000000001
 40
-0.043
 40
-0.043
 40
-0.043
 40
-0.043
 40
1.527796326794899
 40
1.527796326794899
 40
1.527796326794899
 40
1.527796326794899
 10
-804.9723884280924
 20
470.4074478593214
 30
7.999999999999994
 41
1.0
 10
-804.8552311405668
 20
470.4074478593214
 30
8.000000000000001
 41
0.8047378541243599
 10
-804.7723884280923
 20
470.4902905717964
 30
8.082842712474622
 41
0.8047378541243599
 10
-804.7723884280923
 20
470.6074478593214
 30
8.199999999999995
 41
1.0
  0
SPLINE
  5
11B
102
{ACAD_REACTORS
330
672
102
}
330
1F
100
AcDbEntity
  8
IGES level 0
100
AcDbSpline
210
0.0
220
0.0
230
1.0
 70
    24
 71
     2
 72
     6
 73
     3
 74
     0
 42
0.0000000001
 43
0.0000000001
 40
1.527796326794899
 40
1.527796326794899
 40
1.527796326794899
 40
2.146196326794898
 40
2.146196326794898
 40
2.146196326794898
 10
-804.7723884280923
 20
470.6074478593214
 30
8.199999999999995
 10
-804.7723884280925
 20
161.4074478593217
 30
8.200000000000001
 10
-804.7723884280927
 20
-147.7925521406783
 30
8.200000000000004
  0
SPLINE
  5
11C
102
{ACAD_REACTORS
330
672
102
}
330
1F
100
AcDbEntity
  8
IGES level 0
100
AcDbSpline
210
0.0000000000001103
220
-0.7071067811865494
230
-0.7071067811865458
 70
    12
 71
     3
 72
     8
 73
     4
 74
     0
 42
0.0000000001
 43
0.0000000001
 40
2.146196326794898
 40
2.146196326794898
 40
2.146196326794898
 40
2.146196326794898
 40
3.716992653589799
 40
3.716992653589799
 40
3.716992653589799
 40
3.716992653589799
 10
-804.7723884280927
 20
-147.7925521406783
 30
8.200000000000004
 41
1.0
 10
-804.7723884280927
 20
-147.6753948531528
 30
8.082842712474622
 41
0.8047378541243599
 10
-804.8552311405673
 20
-147.5925521406784
 30
8.000000000000003
 41
0.8047378541243599
 10
-804.9723884280927
 20
-147.5925521406783
 30
8.000000000000005
 41
1.0
  0
SPLINE
  5
11D
102
{ACAD_REACTORS
330
672
102
}
330
1F
100
AcDbEntity
  8
IGES level 0
100
AcDbSpline
210
0.0
220
-1.0
230
0.0
 70
    12
 71
     3
 72
     8
 73
     4
 74
     0
 42
0.0000000001
 43
0.0000000001
 40
0.0
 40
0.0
 40
0.0
 40
0.0
 40
1.0
 40
1.0
 40
1.0
 40
1.0
 10
-804.9723884280924
 20
161.4074478593217
 30
7.999999999999998
 41
1.0
 10
-804.8552311405673
 20
161.4074478593217
 30
8.0
 41
0.8047378541243599
 10
-804.7723884280923
 20
161.4074478593217
 30
8.082842712474619
 41
0.8047378541243599
 10
-804.7723884280925
 20
161.4074478593217
 30
8.200000000000001
 41
1.0
  0
SPLINE
  5
11E
102
{ACAD_REACTORS
330
672
102
}
330
1F
100
AcDbEntity
  8
IGES level 0
100
AcDbSpline
210
0.0
220
0.0
230
1.0
 70
    28
 71
     2
 72
     6
 73
     3
 74
     0
 42
0.0000000001
 43
0.0000000001
 40
0.00615483115332
 40
0.00615483115332
 40
0.00615483115332
 40
0.99384516884668
 40
0.99384516884668
 40
0.99384516884668
 10
-804.830967071855
 20
470.4660265030858
 30
8.058578643762693
 41
0.85355339059327
 10
-804.8309670718552
 20
161.4074478593217
 30
8.05857864376269
 41
0.85355339059327
 10
-804.8309670718554
 20
-147.6511307844426
 30
8.058578643762695
 41
0.85355339059327
  0
SPLINE
  5
11F
102
{ACAD_REACTORS
330
672
102
}
330
1F
100
AcDbEntity
  8
IGES level 0
100
AcDbSpline
210
0.0
220
0.0
230
1.0
 70
    24
 71
     2
 72
     6
 73
     3
 74
     0
 42
0.0000000001
 43
0.0000000001
 40
0.0
 40
0.0
 40
0.0
 40
1.0
 40
1.0
 40
1.0
 10
-806.5723884280922
 20
470.4074478593214
 30
8.000000000000001
 10
-805.7723884280923
 20
470.4074478593214
 30
7.999999999999994
 10
-804.9723884280924
 20
470.4074478593214
 30
7.999999999999994
  0
SPLINE
  5
120
102
{ACAD_REACTORS
330
672
102
}
330
1F
100
AcDbEntity
  8
IGES level 0
100
AcDbSpline
210
0.0
220
0.0
230
1.0
 70
    24
 71
     2
 72
     6
 73
     3
 74
     0
 42
0.0000000001
 43
0.0000000001
 40
0.0
 40
0.0
 40
0.0
 40
1.0
 40
1.0
 40
1.0
 10
-804.9723884280924
 20
470.4074478593214
 30
7.999999999999994
 10
-804.9723884280924
 20
161.4074478593217
 30
7.999999999999998
 10
-804.9723884280927
 20
-147.5925521406784
 30
8.0
  0
SPLINE
  5
121
102
{ACAD_REACTORS
330
672
102
}
330
1F
100
AcDbEntity
  8
IGES level 0
100
AcDbSpline
210
0.0
220
0.0
230
1.0
 70
    24
 71
     2
 72
     6
 73
     3
 74
     0
 42
0.0000000001
 43
0.0000000001
 40
-1.0
 40
-1.0
 40
-1.0
 40
0.0
 40
0.0
 40
0.0
 10
-804.9723884280927
 20
-147.5925521406784
 30
8.0
 10
-805.7723884280926
 20
-147.5925521406784
 30
8.000000000000001
 10
-806.5723884280927
 20
-147.5925521406784
 30
8.0
  0
SPLINE
  5
122
102
{ACAD_REACTORS
330
672
102
}
330
1F
100
AcDbEntity
  8
IGES level 0
100
AcDbSpline
210
0.0
220
0.0
230
1.0
 70
    24
 71
     2
 72
     6
 73
     3
 74
     0
 42
0.0000000001
 43
0.0000000001
 40
-1.0
 40
-1.0
 40
-1.0
 40
0.0
 40
0.0
 40
0.0
 10
-806.5723884280927
 20
-147.5925521406784
 30
8.0
 10
-806.5723884280924
 20
161.4074478593217
 30
8.000000000000001
 10
-806.5723884280922
 20
470.4074478593214
 30
8.000000000000001
  0
SPLINE
  5
123
102
{ACAD_REACTORS
330
672
102
}
330
1F
100
AcDbEntity
  8
IGES level 0
100
AcDbSpline
210
0.0
220
0.0
230
1.0
 70
    24
 71
     2
 72
     6
 73
     3
 74
     0
 42
0.0000000001
 43
0.0000000001
 40
0.0
 40
0.0
 40
0.0
 40
1.0
 40
1.0
 40
1.0
 10
-806.5723884280924
 20
161.4074478593217
 30
8.000000000000001
 10
-805.7723884280925
 20
161.4074478593217
 30
8.0
 10
-804.9723884280924
 20
161.4074478593217
 30
7.999999999999998
  0
SPLINE
  5
125
102
{ACAD_REACTORS
330
672
102
}
330
1F
100
AcDbEntity
  8
IGES level 0
100
AcDbSpline
210
0.0
220
0.0
230
1.0
 70
    24
 71
     2
 72
     6
 73
     3
 74
     0
 42
0.0000000001
 43
0.0000000001
 40
-0.6612
 40
-0.6612
 40
-0.6612
 40
-0.0428
 40
-0.0428
 40
-0.0428
 10
-806.7723884280926
 20
-147.7925521406783
 30
8.200000000000004
 10
-806.7723884280924
 20
161.4074478593217
 30
8.199999999999999
 10
-806.7723884280923
 20
470.6074478593214
 30
8.199999999999992
  0
SPLINE
  5
126
102
{ACAD_REACTORS
330
672
102
}
330
1F
100
AcDbEntity
  8
IGES level 0
100
AcDbSpline
210
0.0000000000012715
220
0.7071067811868739
230
-0.7071067811862213
 70
    12
 71
     3
 72
     8
 73
     4
 74
     0
 42
0.0000000001
 43
0.0000000001
 40
-0.0428
 40
-0.0428
 40
-0.0428
 40
-0.0428
 40
1.527996326794899
 40
1.527996326794899
 40
1.527996326794899
 40
1.527996326794899
 10
-806.7723884280923
 20
470.6074478593214
 30
8.199999999999992
 41
1.0
 10
-806.7723884280923
 20
470.4902905717964
 30
8.082842712474619
 41
0.8047378541243599
 10
-806.6895457156176
 20
470.4074478593214
 30
7.999999999999995
 41
0.8047378541243599
 10
-806.5723884280922
 20
470.4074478593214
 30
8.000000000000001
 41
1.0
  0
SPLINE
  5
127
102
{ACAD_REACTORS
330
672
102
}
330
1F
100
AcDbEntity
  8
IGES level 0
100
AcDbSpline
210
0.0
220
0.0
230
1.0
 70
    24
 71
     2
 72
     6
 73
     3
 74
     0
 42
0.0000000001
 43
0.0000000001
 40
1.527996326794899
 40
1.527996326794899
 40
1.527996326794899
 40
2.145996326794898
 40
2.145996326794898
 40
2.145996326794898
 10
-806.5723884280922
 20
470.4074478593214
 30
8.000000000000001
 10
-806.5723884280924
 20
161.4074478593217
 30
8.000000000000001
 10
-806.5723884280927
 20
-147.5925521406784
 30
8.0
  0
SPLINE
  5
128
102
{ACAD_REACTORS
330
672
102
}
330
1F
100
AcDbEntity
  8
IGES level 0
100
AcDbSpline
210
-0.0000000000001056
220
-0.7071067811865523
230
-0.7071067811865431
 70
    12
 71
     3
 72
     8
 73
     4
 74
     0
 42
0.0000000001
 43
0.0000000001
 40
2.145996326794898
 40
2.145996326794898
 40
2.145996326794898
 40
2.145996326794898
 40
3.716792653589788
 40
3.716792653589788
 40
3.716792653589788
 40
3.716792653589788
 10
-806.5723884280927
 20
-147.5925521406783
 30
8.000000000000003
 41
1.0
 10
-806.689545715618
 20
-147.5925521406784
 30
8.000000000000003
 41
0.8047378541243599
 10
-806.7723884280928
 20
-147.6753948531528
 30
8.082842712474619
 41
0.8047378541243599
 10
-806.7723884280926
 20
-147.7925521406783
 30
8.200000000000004
 41
1.0
  0
SPLINE
  5
129
102
{ACAD_REACTORS
330
672
102
}
330
1F
100
AcDbEntity
  8
IGES level 0
100
AcDbSpline
210
0.0
220
1.0
230
0.0
 70
    12
 71
     3
 72
     8
 73
     4
 74
     0
 42
0.0000000001
 43
0.0000000001
 40
0.0
 40
0.0
 40
0.0
 40
0.0
 40
1.0
 40
1.0
 40
1.0
 40
1.0
 10
-806.7723884280924
 20
161.4074478593217
 30
8.199999999999999
 41
1.0
 10
-806.7723884280924
 20
161.4074478593217
 30
8.082842712474622
 41
0.8047378541243599
 10
-806.6895457156178
 20
161.4074478593217
 30
7.999999999999998
 41
0.8047378541243599
 10
-806.5723884280924
 20
161.4074478593217
 30
7.999999999999998
 41
1.0
  0
SPLINE
  5
12A
102
{ACAD_REACTORS
330
672
102
}
330
1F
100
AcDbEntity
  8
IGES level 0
100
AcDbSpline
210
0.0
220
0.0
230
1.0
 70
    28
 71
     2
 72
     6
 73
     3
 74
     0
 42
0.0000000001
 43
0.0000000001
 40
0.00615483115332
 40
0.00615483115332
 40
0.00615483115332
 40
0.99384516884668
 40
0.99384516884668
 40
0.99384516884668
 10
-806.7138097843296
 20
470.4660265030858
 30
8.058578643762686
 41
0.85355339059327
 10
-806.7138097843297
 20
161.4074478593217
 30
8.058578643762691
 41
0.85355339059327
 10
-806.7138097843299
 20
-147.6511307844426
 30
8.058578643762698
 41
0.85355339059327
  0
SPLINE
  5
12C
102
{ACAD_REACTORS
330
672
102
}
330
1F
100
AcDbEntity
  8
IGES level 0
100
AcDbSpline
210
-1.0
220
0.0
230
0.0
 70
    24
 71
     2
 72
     6
 73
     3
 74
     0
 42
0.0000000001
 43
0.0000000001
 40
0.003
 40
0.003
 40
0.003
 40
0.00695979797465
 40
0.00695979797465
 40
0.00695979797465
 10
-806.7723884280923
 20
473.4074478593217
 30
10.99999999999994
 10
-806.7723884280923
 20
472.0074478593216
 30
9.599999999999925
 10
-806.7723884280923
 20
470.6074478593214
 30
8.199999999999906
  0
SPLINE
  5
12D
102
{ACAD_REACTORS
330
672
102
}
330
1F
100
AcDbEntity
  8
IGES level 0
100
AcDbSpline
210
0.0
220
0.0
230
1.0
 70
    24
 71
     2
 72
     6
 73
     3
 74
     0
 42
0.0000000001
 43
0.0000000001
 40
0.00695979797465
 40
0.00695979797465
 40
0.00695979797465
 40
0.62535979797465
 40
0.62535979797465
 40
0.62535979797465
 10
-806.7723884280923
 20
470.6074478593214
 30
8.199999999999992
 10
-806.7723884280924
 20
161.4074478593217
 30
8.199999999999999
 10
-806.7723884280926
 20
-147.7925521406783
 30
8.200000000000004
  0
SPLINE
  5
12E
102
{ACAD_REACTORS
330
672
102
}
330
1F
100
AcDbEntity
  8
IGES level 0
100
AcDbSpline
210
1.0
220
0.0
230
0.0
 70
    24
 71
     2
 72
     6
 73
     3
 74
     0
 42
0.0000000001
 43
0.0000000001
 40
0.62535979797465
 40
0.62535979797465
 40
0.62535979797465
 40
0.6293195959492901
 40
0.6293195959492901
 40
0.6293195959492901
 10
-806.7723884280926
 20
-147.7925521406785
 30
8.199999999999819
 10
-806.7723884280926
 20
-149.1925521406785
 30
9.599999999999834
 10
-806.7723884280926
 20
-150.5925521406784
 30
10.99999999999984
  0
SPLINE
  5
136
102
{ACAD_REACTORS
330
672
102
}
330
1F
100
AcDbEntity
  8
IGES level 0
100
AcDbSpline
210
0.0
220
0.0
230
1.0
 70
    28
 71
     2
 72
     6
 73
     3
 74
     0
 42
0.0000000001
 43
0.0000000001
 40
-1.0
 40
-1.0
 40
-1.0
 40
0.0
 40
0.0
 40
0.0
 10
-809.2723884280927
 20
-150.5925521406782
 30
16.5
 41
1.0
 10
-809.2723884280925
 20
161.4074478593217
 30
16.49999999999999
 41
1.0
 10
-809.2723884280923
 20
473.4074478593214
 30
16.49999999999999
 41
1.0
  0
SPLINE
  5
138
102
{ACAD_REACTORS
330
672
102
}
330
1F
100
AcDbEntity
  8
IGES level 0
100
AcDbSpline
210
0.0
220
0.0
230
1.0
 70
    28
 71
     2
 72
     6
 73
     3
 74
     0
 42
0.0000000001
 43
0.0000000001
 40
0.0
 40
0.0
 40
0.0
 40
1.0
 40
1.0
 40
1.0
 10
-807.504621475126
 20
473.4074478593214
 30
15.76776695296637
 41
0.85355339059327
 10
-807.504621475126
 20
161.4074478593217
 30
15.76776695296637
 41
0.85355339059327
 10
-807.5046214751264
 20
-150.592552140678
 30
15.76776695296637
 41
0.85355339059327
  0
SPLINE
  5
139
102
{ACAD_REACTORS
330
672
102
}
330
1F
100
AcDbEntity
  8
IGES level 0
100
AcDbSpline
210
0.0
220
0.0
230
1.0
 70
    24
 71
     2
 72
     6
 73
     3
 74
     0
 42
0.0000000001
 43
0.0000000001
 40
-0.0097
 40
-0.0097
 40
-0.0097
 40
-0.0015
 40
-0.0015
 40
-0.0015
 10
-809.2723884280927
 20
-150.5925521406783
 30
16.5
 10
-813.3723884280927
 20
-150.5925521406783
 30
16.49999999999999
 10
-817.4723884280927
 20
-150.5925521406783
 30
16.5
  0
SPLINE
  5
13D
102
{ACAD_REACTORS
330
672
102
}
330
1F
100
AcDbEntity
  8
IGES level 0
100
AcDbSpline
210
0.0
220
0.0
230
1.0
 70
    24
 71
     2
 72
     6
 73
     3
 74
     0
 42
0.0000000001
 43
0.0000000001
 40
1.670501398773919
 40
1.670501398773919
 40
1.670501398773919
 40
1.678701398773918
 40
1.678701398773918
 40
1.678701398773918
 10
-817.4723884280922
 20
473.4074478593214
 30
16.5
 10
-813.3723884280923
 20
473.4074478593217
 30
16.49999999999999
 10
-809.2723884280923
 20
473.4074478593214
 30
16.49999999999999
  0
SPLINE
  5
13E
102
{ACAD_REACTORS
330
672
102
}
330
1F
100
AcDbEntity
  8
IGES level 0
100
AcDbSpline
210
0.0
220
0.0
230
1.0
 70
    24
 71
     2
 72
     6
 73
     3
 74
     0
 42
0.0000000001
 43
0.0000000001
 40
1.678701398773918
 40
1.678701398773918
 40
1.678701398773918
 40
2.302701398773919
 40
2.302701398773919
 40
2.302701398773919
 10
-809.2723884280923
 20
473.4074478593214
 30
16.49999999999999
 10
-809.2723884280925
 20
161.4074478593217
 30
16.5
 10
-809.2723884280927
 20
-150.5925521406782
 30
16.5
  0
3DFACE
  5
18A
102
{ACAD_REACTORS
330
672
102
}
330
1F
100
AcDbEntity
  8
0
100
AcDbFace
 10
-805.7723884280923
 20
473.4074478593217
 30
18.0
 11
-840.4723884280922
 21
473.4074478593217
 31
18.0
 12
-840.4723884280926
 22
-150.5925521406785
 32
17.99999999999988
 13
-805.7723884280926
 23
-150.5925521406784
 33
18.0
  0
3DFACE
  5
1AD
102
{ACAD_REACTORS
330
672
102
}
330
1F
100
AcDbEntity
  8
0
100
AcDbFace
 10
-817.4723884280959
 20
473.4074478593214
 30
17.99999999986492
 11
-817.4723884280922
 21
473.4074478593214
 31
16.49999999990454
 12
-839.1845204624484
 22
473.679381107601
 32
16.81213203435599
 13
-840.4723884280922
 23
473.4074478593217
 33
18.0
  0
3DFACE
  5
1C0
102
{ACAD_REACTORS
330
672
102
}
330
1F
100
AcDbEntity
  8
0
100
AcDbFace
 10
-809.2723884280923
 20
473.4074478593217
 30
16.5
 11
-809.2723884280921
 21
473.4074478593217
 31
18.0
 12
-817.4723884280959
 22
473.4074478593217
 32
18.0
 13
-817.4723884281913
 23
473.4074478593214
 33
16.50000000000044
  0
3DFACE
  5
1C1
102
{ACAD_REACTORS
330
672
102
}
330
1F
100
AcDbEntity
  8
0
100
AcDbFace
 10
-809.2723884280921
 20
473.4074478593217
 30
18.0
 11
-808.6700197845161
 21
473.4074478593217
 31
18.0
 12
-808.6677466388088
 22
473.4074478593217
 32
16.42577993780396
 13
-809.2723884280918
 23
473.4074478593217
 33
16.5
  0
3DFACE
  5
1D3
102
{ACAD_REACTORS
330
672
102
}
330
1F
100
AcDbEntity
  8
0
100
AcDbFace
 10
-808.6677466388088
 20
473.4074478593217
 30
16.42577993780398
 11
-808.2373692267552
 21
473.4074478593217
 31
16.27568346939188
 12
-808.237369226755
 22
473.4074478593217
 32
18.0
 13
-808.670018882405
 23
473.4074478593217
 33
17.99937526160978
  0
3DFACE
  5
1D4
102
{ACAD_REACTORS
330
672
102
}
330
1F
100
AcDbEntity
  8
0
100
AcDbFace
 10
-808.2373692267552
 20
473.4074478593217
 30
16.27568346939188
 11
-808.0129878172943
 21
473.4074478593217
 31
16.15960878436858
 12
-808.0129878172945
 22
473.4074478593217
 32
18.0
 13
-808.237369226755
 23
473.4074478593217
 33
18.00000000000002
  0
3DFACE
  5
1D5
102
{ACAD_REACTORS
330
672
102
}
330
1F
100
AcDbEntity
  8
0
100
AcDbFace
 10
-808.0129878172943
 20
473.4074478593217
 30
16.15960878437545
 11
-807.7987605042853
 21
473.4074478593217
 31
16.01951002527252
 12
-807.7987605042853
 22
473.4074478593217
 32
18.0
 13
-808.0129878172945
 23
473.4074478593217
 33
18.0
  0
3DFACE
  5
1D6
102
{ACAD_REACTORS
330
672
102
}
330
1F
100
AcDbEntity
  8
0
100
AcDbFace
 10
-807.7987605042853
 20
473.4074478593217
 30
16.01951002527252
 11
-807.5984572546119
 21
473.4074478593217
 31
15.85686683056439
 12
-807.5984572546117
 22
473.4074478593217
 32
18.0
 13
-807.7987605042853
 23
473.4074478593217
 33
18.0
  0
3DFACE
  5
1D7
102
{ACAD_REACTORS
330
672
102
}
330
1F
100
AcDbEntity
  8
0
100
AcDbFace
 10
-807.5984572546119
 20
473.4074478593217
 30
15.8568668305645
 11
-807.5046238199057
 21
473.4074478593217
 31
15.76776929774297
 12
-807.5046238199053
 22
473.4074478593217
 32
18.0
 13
-807.5984572546117
 23
473.4074478593217
 33
18.0
  0
3DFACE
  5
1E9
102
{ACAD_REACTORS
330
672
102
}
330
1F
100
AcDbEntity
  8
0
100
AcDbFace
 10
-807.5046238199057
 20
473.4074478593217
 30
15.76776929774298
 11
-807.3790538853268
 21
473.4074478593217
 31
15.63256984817535
 12
-807.3790538853268
 22
473.4074478593217
 32
18.0
 13
-807.5046238199053
 23
473.4074478593217
 33
17.99999999999997
  0
3DFACE
  5
1EA
102
{ACAD_REACTORS
330
672
102
}
330
1F
100
AcDbEntity
  8
0
100
AcDbFace
 10
-807.3790538853268
 20
473.4074478593217
 30
15.63256984817535
 11
-807.2528784028197
 21
473.4074478593217
 31
15.473627923807
 12
-807.2528784028197
 22
473.4074478593217
 32
18.0
 13
-807.3790538853268
 23
473.4074478593217
 33
17.99999999999996
  0
3DFACE
  5
1EB
102
{ACAD_REACTORS
330
672
102
}
330
1F
100
AcDbEntity
  8
0
100
AcDbFace
 10
-807.2528784028197
 20
473.4074478593217
 30
15.473627923807
 11
-807.1525628770768
 21
473.4074478593217
 31
15.32526964549192
 12
-807.1525628770768
 22
473.4074478593217
 32
18.0
 13
-807.2528784028197
 23
473.4074478593217
 33
18.0
  0
3DFACE
  5
1EC
102
{ACAD_REACTORS
330
672
102
}
330
1F
100
AcDbEntity
  8
0
100
AcDbFace
 10
-807.1525628770771
 20
473.4074478593217
 30
15.3252696454924
 11
-807.0798623641898
 21
473.4074478593217
 31
15.20117836273735
 12
-807.0798623641895
 22
473.4074478593217
 32
18.0
 13
-807.1525628770768
 23
473.4074478593217
 33
18.0
  0
3DFACE
  5
1ED
102
{ACAD_REACTORS
330
672
102
}
330
1F
100
AcDbEntity
  8
0
100
AcDbFace
 10
-807.0798623641898
 20
473.4074478593217
 30
15.20117836273735
 11
-807.0157320837514
 21
473.4074478593217
 31
15.07587273575758
 12
-807.0157320837514
 22
473.4074478593217
 32
18.0
 13
-807.0798623641895
 23
473.4074478593217
 33
17.99999999999996
  0
3DFACE
  5
1EE
102
{ACAD_REACTORS
330
672
102
}
330
1F
100
AcDbEntity
  8
0
100
AcDbFace
 10
-807.0157320837514
 20
473.4074478593217
 30
15.07587273575758
 11
-806.9628275650329
 21
473.4074478593217
 31
14.95704159775028
 12
-806.9628275650327
 22
473.4074478593217
 32
18.0
 13
-807.0157320837514
 23
473.4074478593217
 33
18.0
  0
3DFACE
  5
1EF
102
{ACAD_REACTORS
330
672
102
}
330
1F
100
AcDbEntity
  8
0
100
AcDbFace
 10
-806.9628275650329
 20
473.4074478593217
 30
14.95704159775028
 11
-806.8999394212061
 21
473.4074478593217
 31
14.78834364951133
 12
-806.8999394212058
 22
473.4074478593217
 32
18.0
 13
-806.9628275650327
 23
473.4074478593217
 33
18.0
  0
3DFACE
  5
1F0
102
{ACAD_REACTORS
330
672
102
}
330
1F
100
AcDbEntity
  8
0
100
AcDbFace
 10
-806.8999394212061
 20
473.4074478593217
 30
14.78834364951133
 11
-806.8601441510882
 21
473.4074478593217
 31
14.6565649610365
 12
-806.8601441510885
 22
473.4074478593217
 32
18.0
 13
-806.8999394212058
 23
473.4074478593217
 33
18.0
  0
3DFACE
  5
1F1
102
{ACAD_REACTORS
330
672
102
}
330
1F
100
AcDbEntity
  8
0
100
AcDbFace
 10
-806.8601441510883
 20
473.4074478593217
 30
14.65656496103705
 11
-806.8224190592095
 21
473.4074478593217
 31
14.4999999999999
 12
-806.8224190592093
 22
473.4074478593217
 32
18.0
 13
-806.8601441510885
 23
473.4074478593217
 33
18.0
  0
3DFACE
  5
214
102
{ACAD_REACTORS
330
672
102
}
330
1F
100
AcDbEntity
  8
0
100
AcDbFace
 10
-805.7723884280921
 20
473.4074478593217
 30
18.0
 11
-805.6825339901944
 21
473.4074478593217
 31
14.4999999999999
 12
-806.8224190592095
 22
473.4074478593214
 32
14.49999999999995
 13
-806.8224190592093
 23
473.4074478593217
 33
18.0
  0
3DFACE
  5
263
102
{ACAD_REACTORS
330
672
102
}
330
1F
100
AcDbEntity
  8
0
100
AcDbFace
 10
-805.7723884280923
 20
473.4074478593217
 30
18.0
 11
-805.5866666572953
 21
473.4074478593217
 31
17.98260237321721
 12
-805.5866666572953
 22
473.4074478593217
 32
14.4999999999999
 13
-805.6825339901944
 23
473.4074478593217
 33
14.4999999999999
  0
3DFACE
  5
264
102
{ACAD_REACTORS
330
672
102
}
330
1F
100
AcDbEntity
  8
0
100
AcDbFace
 10
-805.5866666572953
 20
473.4074478593217
 30
17.98260237321721
 11
-805.4661619247182
 21
473.4074478593217
 31
17.9519586801071
 12
-805.4661619247182
 22
473.4074478593217
 32
14.4999999999999
 13
-805.5866666572953
 23
473.4074478593217
 33
14.4999999999999
  0
3DFACE
  5
265
102
{ACAD_REACTORS
330
672
102
}
330
1F
100
AcDbEntity
  8
0
100
AcDbFace
 10
-805.4661619247182
 20
473.4074478593217
 30
17.9519586801071
 11
-805.3216226133677
 21
473.4074478593217
 31
17.8926422465219
 12
-805.3216226133677
 22
473.4074478593217
 32
14.4999999999999
 13
-805.4661619247182
 23
473.4074478593217
 33
14.4999999999999
  0
3DFACE
  5
266
102
{ACAD_REACTORS
330
672
102
}
330
1F
100
AcDbEntity
  8
0
100
AcDbFace
 10
-805.3216226133677
 20
473.4074478593217
 30
17.8926422465219
 11
-805.1829372585695
 21
473.4074478593217
 31
17.80780401010901
 12
-805.1829372585695
 22
473.4074478593217
 32
14.4999999999999
 13
-805.3216226133677
 23
473.4074478593217
 33
14.4999999999999
  0
3DFACE
  5
267
102
{ACAD_REACTORS
330
672
102
}
330
1F
100
AcDbEntity
  8
0
100
AcDbFace
 10
-805.1829372585695
 20
473.4074478593217
 30
17.80780401010901
 11
-805.0652875229026
 21
473.4074478593217
 31
17.7071126571346
 12
-805.0652875229026
 22
473.4074478593217
 32
14.4999999999999
 13
-805.1829372585695
 23
473.4074478593217
 33
14.4999999999999
  0
3DFACE
  5
268
102
{ACAD_REACTORS
330
672
102
}
330
1F
100
AcDbEntity
  8
0
100
AcDbFace
 10
-805.0652875229026
 20
473.4074478593217
 30
17.7071126571346
 11
-804.9645844179831
 21
473.4074478593217
 31
17.5894511695228
 12
-804.9645844179831
 22
473.4074478593217
 32
14.4999999999999
 13
-805.0652875229026
 23
473.4074478593217
 33
14.4999999999999
  0
3DFACE
  5
28C
102
{ACAD_REACTORS
330
672
102
}
330
1F
100
AcDbEntity
  8
0
100
AcDbFace
 10
-804.9645844179831
 20
473.4074478593217
 30
17.5894511695228
 11
-804.8829143693504
 21
473.4074478593217
 31
17.45698566588602
 12
-804.8829143693504
 22
473.4074478593217
 32
14.4999999999999
 13
-804.9645844179831
 23
473.4074478593217
 33
14.4999999999999
  0
3DFACE
  5
28D
102
{ACAD_REACTORS
330
672
102
}
330
1F
100
AcDbEntity
  8
0
100
AcDbFace
 10
-804.8829143693504
 20
473.4074478593217
 30
17.45698566588602
 11
-804.8373288753397
 21
473.4074478593217
 31
17.35449066674067
 12
-804.8373288753397
 22
473.4074478593217
 32
14.4999999999999
 13
-804.8829143693504
 23
473.4074478593217
 33
14.4999999999999
  0
3DFACE
  5
28E
102
{ACAD_REACTORS
330
672
102
}
330
1F
100
AcDbEntity
  8
0
100
AcDbFace
 10
-804.8373288753397
 20
473.4074478593217
 30
17.35449066674067
 11
-804.803374431599
 21
473.4074478593217
 31
17.24700581896023
 12
-804.803374431599
 22
473.4074478593217
 32
14.4999999999999
 13
-804.8373288753397
 23
473.4074478593217
 33
14.4999999999999
  0
3DFACE
  5
28F
102
{ACAD_REACTORS
330
672
102
}
330
1F
100
AcDbEntity
  8
0
100
AcDbFace
 10
-804.803374431599
 20
473.4074478593217
 30
17.24700581896023
 11
-804.7756605083746
 21
473.4074478593217
 31
17.08082978445768
 12
-804.7723884280923
 22
473.4074478593217
 32
14.4999999999999
 13
-804.803374431599
 23
473.4074478593217
 33
14.4999999999999
  0
3DFACE
  5
2A1
102
{ACAD_REACTORS
330
672
102
}
330
1F
100
AcDbEntity
  8
0
100
AcDbFace
 10
-804.7723884280923
 20
473.4074478593217
 30
14.49999999999997
 11
-806.8224190592095
 21
473.4074478593214
 31
14.49999999999999
 12
-806.7723884280923
 22
473.4074478593217
 32
10.99999999999995
 13
-804.7723884280923
 23
473.4074478593217
 33
11.00000000000001
  0
3DFACE
  5
2B3
102
{ACAD_REACTORS
330
672
102
}
330
1F
100
AcDbEntity
  8
0
100
AcDbFace
 10
-804.7723884280923
 20
473.4074478593217
 30
11.00000000000012
 11
-804.7723884280923
 21
470.6074478593214
 31
8.199999999999956
 12
-806.7723884280923
 22
470.6074478593214
 32
8.199999999999919
 13
-806.7723884280923
 23
473.4074478593217
 33
10.99999999999995
  0
3DFACE
  5
2D6
102
{ACAD_REACTORS
330
672
102
}
330
1F
100
AcDbEntity
  8
0
100
AcDbFace
 10
-804.7723884280923
 20
470.6074478593214
 30
8.199999999999999
 11
-804.7801086364549
 21
470.5524162163525
 31
8.144968357030927
 12
-806.7646682197297
 22
470.5524162163525
 32
8.144968357030927
 13
-806.7723884280923
 23
470.6074478593214
 33
8.199999999999919
  0
3DFACE
  5
2D7
102
{ACAD_REACTORS
330
672
102
}
330
1F
100
AcDbEntity
  8
0
100
AcDbFace
 10
-804.7801086364549
 20
470.5524162163525
 30
8.144968357030927
 11
-804.7947316267263
 21
470.5155889407102
 31
8.108141081388799
 12
-806.7518432032983
 22
470.5191529916577
 32
8.111705132336121
 13
-806.7646682197297
 23
470.5524162163525
 33
8.144968357030927
  0
3DFACE
  5
2D8
102
{ACAD_REACTORS
330
672
102
}
330
1F
100
AcDbEntity
  8
0
100
AcDbFace
 10
-804.7947316267263
 20
470.5155889407102
 30
8.108141081388799
 11
-804.8309670718548
 21
470.4660265030842
 31
8.058578643762691
 12
-806.7138097843296
 22
470.4660265030858
 32
8.058578643762691
 13
-806.7518432032983
 23
470.5191529916577
 33
8.111705132336121
  0
3DFACE
  5
2D9
102
{ACAD_REACTORS
330
672
102
}
330
1F
100
AcDbEntity
  8
0
100
AcDbFace
 10
-804.8309670718548
 20
470.4660265030842
 30
8.058578643762691
 11
-804.8716363792284
 21
470.434679156572
 31
8.027231297250514
 12
-806.6731404769562
 22
470.434679156572
 32
8.027231297250514
 13
-806.7138097843297
 23
470.4660265030844
 33
8.058578643762825
  0
3DFACE
  5
2DA
102
{ACAD_REACTORS
330
672
102
}
330
1F
100
AcDbEntity
  8
0
100
AcDbFace
 10
-804.8716363792284
 20
470.434679156572
 30
8.027231297250514
 11
-804.9012865061975
 21
470.4205133341453
 31
8.01306547482374
 12
-806.6443371378655
 22
470.4208376153314
 32
8.013389756009955
 13
-806.6731404769562
 23
470.434679156572
 33
8.027231297250514
  0
3DFACE
  5
2DB
102
{ACAD_REACTORS
330
672
102
}
330
1F
100
AcDbEntity
  8
0
100
AcDbFace
 10
-804.9012865061975
 20
470.4205133341453
 30
8.01306547482374
 11
-804.9452493497367
 21
470.409297738388
 31
8.001849879066352
 12
-806.6090212473671
 22
470.4108313886178
 32
8.003383529296302
 13
-806.6443371378655
 23
470.4208376153314
 33
8.013389756009955
  0
3DFACE
  5
2ED
102
{ACAD_REACTORS
330
672
102
}
330
1F
100
AcDbEntity
  8
0
100
AcDbFace
 10
-804.9452493497367
 20
470.409297738388
 30
8.001849879066352
 11
-804.9744111937316
 21
470.4074478593216
 31
8.0
 12
-806.5723884280922
 22
470.4074478593214
 32
8.0
 13
-806.6090212473671
 23
470.4108313886178
 33
8.003383529296302
  0
3DFACE
  5
2FF
102
{ACAD_REACTORS
330
672
102
}
330
1F
100
AcDbEntity
  8
0
100
AcDbFace
 10
-804.7723884280923
 20
473.4074478593217
 30
17.00000000000021
 11
-804.7723884280923
 21
473.4074478593217
 31
11.00000000000012
 12
-804.7723884280927
 22
-150.5925521406785
 32
10.9999999999999
 13
-804.7723884280927
 23
-150.5925521406784
 33
17.00000000000001
  0
3DFACE
  5
36C
102
{ACAD_REACTORS
330
672
102
}
330
1F
100
AcDbEntity
  8
0
100
AcDbFace
 10
-804.7723884280923
 20
470.6074478593214
 30
8.20000000000005
 11
-804.7723884280923
 21
473.4074478593217
 31
11.00000000000003
 12
-804.7723884280927
 22
-150.5925521406784
 32
10.9999999999999
 13
-804.7723884280927
 23
-147.7925521406783
 33
8.199999999999999
  0
3DFACE
  5
374
102
{ACAD_REACTORS
330
672
102
}
330
1F
100
AcDbEntity
  8
0
100
AcDbFace
 10
-804.7723884280927
 20
-147.792552140679
 30
8.200000000000731
 11
-804.7801086364554
 21
-147.7375204977094
 31
8.144968357030927
 12
-804.7801086364549
 22
470.5524162163525
 32
8.144968357030927
 13
-804.7723884280923
 23
470.6074478593213
 33
8.199999999999828
  0
3DFACE
  5
375
102
{ACAD_REACTORS
330
672
102
}
330
1F
100
AcDbEntity
  8
0
100
AcDbFace
 10
-804.7801086364549
 20
470.5524162163527
 30
8.144968357030927
 11
-804.7947316267263
 21
470.5155889407102
 31
8.108141081388778
 12
-804.7947316267267
 22
-147.7006932220672
 32
8.108141081388799
 13
-804.7801086364552
 23
-147.7375204977094
 33
8.144968357031007
  0
3DFACE
  5
384
102
{ACAD_REACTORS
330
672
102
}
330
1F
100
AcDbEntity
  8
0
100
AcDbFace
 10
-804.7947316267263
 20
470.5155889407102
 30
8.108141081388799
 11
-804.8309670718548
 21
470.4660265030858
 31
8.058578643762691
 12
-804.8309670718554
 22
-147.6511307844428
 32
8.058578643762691
 13
-804.7947316267267
 23
-147.7006932220672
 33
8.108141081388799
  0
3DFACE
  5
385
102
{ACAD_REACTORS
330
672
102
}
330
1F
100
AcDbEntity
  8
0
100
AcDbFace
 10
-804.8309670718554
 20
-147.6511307844428
 30
8.058578643762691
 11
-804.8716363792289
 21
-147.6197834379289
 31
8.027231297250514
 12
-804.8716363792284
 22
470.434679156572
 32
8.027231297250514
 13
-804.8309670718548
 23
470.4660265030842
 33
8.058578643762691
  0
3DFACE
  5
38D
102
{ACAD_REACTORS
330
672
102
}
330
1F
100
AcDbEntity
  8
0
100
AcDbFace
 10
-804.8716363792284
 20
470.4346791565718
 30
8.027231297250514
 11
-804.9012865061975
 21
470.4205133341453
 31
8.01306547482374
 12
-804.9009232234627
 22
-147.6057561971272
 32
8.013204056448772
 13
-804.8716363792289
 23
-147.6197834379287
 33
8.027231297250514
  0
3DFACE
  5
38E
102
{ACAD_REACTORS
330
672
102
}
330
1F
100
AcDbEntity
  8
0
100
AcDbFace
 10
-804.9009232234627
 20
-147.6057561971271
 30
8.013204056448772
 11
-804.9723884280927
 21
-147.5925521406784
 31
8.0
 12
-804.9723884280922
 22
470.4074478593216
 32
8.0
 13
-804.9452493497367
 23
470.409297738388
 33
8.001849879066352
  0
3DFACE
  5
3A4
102
{ACAD_REACTORS
330
672
102
}
330
1F
100
AcDbEntity
  8
0
100
AcDbFace
 10
-805.7723884280921
 20
473.4074478593217
 30
18.0
 11
-805.5866666572953
 21
473.4074478593217
 31
17.98260237321721
 12
-805.6085815529248
 22
-150.5925521406783
 32
17.98649242655381
 13
-805.7723884280926
 23
-150.592552140678
 33
18.0
  0
3DFACE
  5
3A5
102
{ACAD_REACTORS
330
672
102
}
330
1F
100
AcDbEntity
  8
0
100
AcDbFace
 10
-805.5866666572953
 20
473.4074478593217
 30
17.98260237321721
 11
-805.4661619247182
 21
473.4074478593217
 31
17.9519586801071
 12
-805.4661619246997
 22
-150.5925521406784
 32
17.95195868010107
 13
-805.6085815527415
 23
-150.5925469236121
 33
17.98649242652128
  0
3DFACE
  5
3B4
102
{ACAD_REACTORS
330
672
102
}
330
1F
100
AcDbEntity
  8
0
100
AcDbFace
 10
-805.4661619247182
 20
473.4074478593217
 30
17.9519586801071
 11
-805.3216226133677
 21
473.4074478593217
 31
17.8926422465219
 12
-805.3216226001804
 22
-150.5925521406784
 32
17.89264223986238
 13
-805.4661619246997
 23
-150.5925521406783
 33
17.95195868010107
  0
3DFACE
  5
3B5
102
{ACAD_REACTORS
330
672
102
}
330
1F
100
AcDbEntity
  8
0
100
AcDbFace
 10
-805.3216226133677
 20
473.4074478593217
 30
17.8926422465219
 11
-805.1829372585695
 21
473.4074478593217
 31
17.807804010109
 12
-805.1829372495935
 22
-150.5925521406783
 32
17.80780400355905
 13
-805.3216226001804
 23
-150.5925521406784
 33
17.89264223986238
  0
3DFACE
  5
3B6
102
{ACAD_REACTORS
330
672
102
}
330
1F
100
AcDbEntity
  8
0
100
AcDbFace
 10
-805.0652757709576
 20
473.4074478593217
 30
17.70710090518967
 11
-804.9645844179831
 21
473.4074478593217
 31
17.5894511695228
 12
-804.9645844245299
 22
-150.5925521406782
 32
17.58945117849401
 13
-805.0652757709581
 23
-150.5925521406784
 33
17.70710090518967
  0
3DFACE
  5
3B7
102
{ACAD_REACTORS
330
672
102
}
330
1F
100
AcDbEntity
  8
0
100
AcDbFace
 10
-805.1829372495935
 20
-150.592552140681
 30
17.80780400355905
 11
-805.0652757709581
 21
-150.5925521406782
 31
17.70710090518967
 12
-805.0652875229026
 22
473.4074478593217
 32
17.70710090518967
 13
-805.1829372585695
 23
473.4074478593189
 33
17.80780401010899
  0
3DFACE
  5
3BF
102
{ACAD_REACTORS
330
672
102
}
330
1F
100
AcDbEntity
  8
0
100
AcDbFace
 10
-804.9645844179831
 20
473.4074478593217
 30
17.5894511695228
 11
-804.8829143693504
 21
473.4074478593217
 31
17.45698566588602
 12
-804.8829143699242
 22
-150.5925521406784
 32
17.45698566700188
 13
-804.9645844179837
 23
-150.5925521406784
 33
17.5894511695228
  0
3DFACE
  5
3C0
102
{ACAD_REACTORS
330
672
102
}
330
1F
100
AcDbEntity
  8
0
100
AcDbFace
 10
-804.8829143693504
 20
473.4074478593217
 30
17.45698566588602
 11
-804.8373288753397
 21
473.4074478593217
 31
17.35449066674067
 12
-804.8373288753454
 22
-150.5925521406784
 32
17.35449066675449
 13
-804.8829143699242
 23
-150.5925521406784
 33
17.45698566700188
  0
3DFACE
  5
3C8
102
{ACAD_REACTORS
330
672
102
}
330
1F
100
AcDbEntity
  8
0
100
AcDbFace
 10
-804.8373288753397
 20
473.4074478593217
 30
17.35449066674067
 11
-804.803374431599
 21
473.4074478593217
 31
17.24700581896023
 12
-804.8033744316088
 22
-150.5925521406782
 32
17.24700581899672
 13
-804.8373288753454
 23
-150.5925521406784
 33
17.35449066675449
  0
3DFACE
  5
3D0
102
{ACAD_REACTORS
330
672
102
}
330
1F
100
AcDbEntity
  8
0
100
AcDbFace
 10
-804.803374431599
 20
473.4074478593217
 30
17.24700581896023
 11
-804.7823201263119
 21
473.4074478593217
 31
17.14058718935151
 12
-804.7823201263176
 22
-150.5925521406784
 32
17.14058718938894
 13
-804.8033744316088
 23
-150.5925521406782
 33
17.24700581899672
  0
3DFACE
  5
3D1
102
{ACAD_REACTORS
330
672
102
}
330
1F
100
AcDbEntity
  8
0
100
AcDbFace
 10
-804.7823201263119
 20
473.4074478593217
 30
17.14058718935151
 11
-804.7723884280923
 21
473.4074478593217
 31
17.0
 12
-804.7723884280927
 22
-150.5925521406783
 32
17.00000000000021
 13
-804.7823201263176
 23
-150.5925521406783
 33
17.14058718938894
  0
3DFACE
  5
41D
102
{ACAD_REACTORS
330
672
102
}
330
1F
100
AcDbEntity
  8
0
100
AcDbFace
 10
-840.4723884280926
 20
-150.5925521406785
 30
17.99999999999988
 11
-839.1845204624488
 21
-150.9264511037443
 31
16.81213203435586
 12
-817.9947148577525
 22
-150.5924363818612
 32
16.49989178751918
 13
-817.98016407269
 23
-150.5925521406784
 33
17.99999999991189
  0
3DFACE
  5
41E
102
{ACAD_REACTORS
330
672
102
}
330
1F
100
AcDbEntity
  8
0
100
AcDbFace
 10
-817.4723884281917
 20
-150.5925521406784
 30
16.50000000000034
 11
-817.4723884280961
 21
-150.5925521406785
 31
17.99999999999988
 12
-809.2723884280927
 22
-150.5925521406785
 32
17.99999999999988
 13
-809.2723884280927
 23
-150.5925521406785
 33
16.49999999999988
  0
3DFACE
  5
41F
102
{ACAD_REACTORS
330
672
102
}
330
1F
100
AcDbEntity
  8
0
100
AcDbFace
 10
-809.2723884280921
 20
-150.5925521406785
 30
16.49999999999989
 11
-808.6677466388092
 21
-150.5925521406785
 31
16.42577993780384
 12
-808.6700197845166
 22
-150.5925521406785
 32
17.99999999999988
 13
-809.2723884280927
 23
-150.5925521406785
 33
17.99999999999988
  0
3DFACE
  5
420
102
{ACAD_REACTORS
330
672
102
}
330
1F
100
AcDbEntity
  8
0
100
AcDbFace
 10
-808.6700188824055
 20
-150.5925521406785
 30
17.99937526160967
 11
-808.2373692267553
 21
-150.5925521406785
 31
17.99999999999988
 12
-808.2373692267555
 22
-150.5925521406785
 32
16.27568346939177
 13
-808.6677466388092
 23
-150.5925521406785
 33
16.42577993780387
  0
3DFACE
  5
421
102
{ACAD_REACTORS
330
672
102
}
330
1F
100
AcDbEntity
  8
0
100
AcDbFace
 10
-808.2373692267553
 20
-150.5925521406785
 30
17.9999999999999
 11
-808.0129878172948
 21
-150.5925521406785
 31
17.99999999999988
 12
-808.0129878172948
 22
-150.5925521406785
 32
16.15960878436846
 13
-808.2373692267555
 23
-150.5925521406785
 33
16.27568346939177
  0
3DFACE
  5
422
102
{ACAD_REACTORS
330
672
102
}
330
1F
100
AcDbEntity
  8
0
100
AcDbFace
 10
-808.0129878172948
 20
-150.5925521406785
 30
17.99999999999988
 11
-807.7987605042856
 21
-150.5925521406785
 31
17.99999999999988
 12
-807.7987605042856
 22
-150.5925521406785
 32
16.01951002527242
 13
-808.0129878172948
 23
-150.5925521406785
 33
16.15960878437533
  0
3DFACE
  5
423
102
{ACAD_REACTORS
330
672
102
}
330
1F
100
AcDbEntity
  8
0
100
AcDbFace
 10
-807.7987605042856
 20
-150.5925521406785
 30
17.99999999999989
 11
-807.5984572546122
 21
-150.5925521406785
 31
17.99999999999988
 12
-807.5984572546122
 22
-150.5925521406785
 32
15.85686683056428
 13
-807.7987605042856
 23
-150.5925521406785
 33
16.01951002527242
  0
3DFACE
  5
424
102
{ACAD_REACTORS
330
672
102
}
330
1F
100
AcDbEntity
  8
0
100
AcDbFace
 10
-807.5984572546122
 20
-150.5925521406785
 30
17.99999999999988
 11
-807.5046238199059
 21
-150.5925521406785
 31
17.99999999999988
 12
-807.504623819906
 22
-150.5925521406784
 32
15.76776929774285
 13
-807.5984572546122
 23
-150.5925521406785
 33
15.85686683056439
  0
3DFACE
  5
425
102
{ACAD_REACTORS
330
672
102
}
330
1F
100
AcDbEntity
  8
0
100
AcDbFace
 10
-807.5046238199059
 20
-150.5925521406785
 30
17.99999999999985
 11
-807.3790538853272
 21
-150.5925521406785
 31
17.99999999999988
 12
-807.3790538853272
 22
-150.5925521406785
 32
15.63256984817523
 13
-807.504623819906
 23
-150.5925521406784
 33
15.76776929774287
  0
3DFACE
  5
426
102
{ACAD_REACTORS
330
672
102
}
330
1F
100
AcDbEntity
  8
0
100
AcDbFace
 10
-807.3790538853272
 20
-150.5925521406785
 30
17.99999999999985
 11
-807.25287840282
 21
-150.5925521406785
 31
17.99999999999988
 12
-807.2528784028202
 22
-150.5925521406785
 32
15.47362792380688
 13
-807.3790538853272
 23
-150.5925521406785
 33
15.63256984817523
  0
3DFACE
  5
427
102
{ACAD_REACTORS
330
672
102
}
330
1F
100
AcDbEntity
  8
0
100
AcDbFace
 10
-807.25287840282
 20
-150.5925521406785
 30
17.99999999999988
 11
-807.1525628770773
 21
-150.5925521406785
 31
17.99999999999988
 12
-807.1525628770771
 22
-150.5925521406785
 32
15.3252696454918
 13
-807.2528784028202
 23
-150.5925521406785
 33
15.47362792380688
  0
3DFACE
  5
428
102
{ACAD_REACTORS
330
672
102
}
330
1F
100
AcDbEntity
  8
0
100
AcDbFace
 10
-807.1525628770773
 20
-150.5925521406785
 30
17.99999999999988
 11
-807.0798623641898
 21
-150.5925521406785
 31
17.99999999999988
 12
-807.0798623641902
 22
-150.5925521406785
 32
15.20117836273724
 13
-807.1525628770775
 23
-150.5925521406785
 33
15.32526964549229
  0
3DFACE
  5
429
102
{ACAD_REACTORS
330
672
102
}
330
1F
100
AcDbEntity
  8
0
100
AcDbFace
 10
-807.0798623641898
 20
-150.5925521406785
 30
17.99999999999984
 11
-807.0157320837518
 21
-150.5925521406785
 31
17.99999999999988
 12
-807.015732083752
 22
-150.5925521406785
 32
15.07587273575746
 13
-807.0798623641902
 23
-150.5925521406785
 33
15.20117836273724
  0
3DFACE
  5
42A
102
{ACAD_REACTORS
330
672
102
}
330
1F
100
AcDbEntity
  8
0
100
AcDbFace
 10
-807.0157320837518
 20
-150.5925521406785
 30
17.99999999999988
 11
-806.962827565033
 21
-150.5925521406785
 31
17.99999999999988
 12
-806.9628275650332
 22
-150.5925521406785
 32
14.95704159775016
 13
-807.015732083752
 23
-150.5925521406785
 33
15.07587273575746
  0
3DFACE
  5
42B
102
{ACAD_REACTORS
330
672
102
}
330
1F
100
AcDbEntity
  8
0
100
AcDbFace
 10
-806.962827565033
 20
-150.5925521406785
 30
17.99999999999988
 11
-806.8999394212063
 21
-150.5925521406785
 31
17.99999999999988
 12
-806.8999394212065
 22
-150.5925521406785
 32
14.78834364951122
 13
-806.9628275650332
 23
-150.5925521406785
 33
14.95704159775016
  0
3DFACE
  5
42C
102
{ACAD_REACTORS
330
672
102
}
330
1F
100
AcDbEntity
  8
0
100
AcDbFace
 10
-806.8999394212063
 20
-150.5925521406785
 30
17.99999999999988
 11
-806.8601441510889
 21
-150.5925521406785
 31
17.99999999999988
 12
-806.8601441510885
 22
-150.5925521406785
 32
14.65656496103638
 13
-806.8999394212065
 23
-150.5925521406785
 33
14.78834364951122
  0
3DFACE
  5
42D
102
{ACAD_REACTORS
330
672
102
}
330
1F
100
AcDbEntity
  8
0
100
AcDbFace
 10
-806.8601441510889
 20
-150.5925521406785
 30
17.99999999999988
 11
-806.8224190592097
 21
-150.5925521406785
 31
17.99999999999988
 12
-806.8224190592099
 22
-150.5925521406785
 32
14.49999999999979
 13
-806.8601441510887
 23
-150.5925521406785
 33
14.65656496103694
  0
3DFACE
  5
42E
102
{ACAD_REACTORS
330
672
102
}
330
1F
100
AcDbEntity
  8
0
100
AcDbFace
 10
-806.8224190592097
 20
-150.5925521406785
 30
17.99999999999988
 11
-806.8224190592099
 21
-150.5925521406784
 31
14.49999999999984
 12
-805.682533990195
 22
-150.5925521406785
 32
14.49999999999979
 13
-805.7723884280925
 23
-150.5925521406785
 33
17.99999999999988
  0
3DFACE
  5
42F
102
{ACAD_REACTORS
330
672
102
}
330
1F
100
AcDbEntity
  8
0
100
AcDbFace
 10
-805.682533990195
 20
-150.5925521406785
 30
14.49999999999979
 11
-805.5866666572958
 21
-150.5925521406785
 31
14.49999999999979
 12
-805.6085815529248
 22
-150.5925521406783
 32
17.98649242655381
 13
-805.7723884280926
 23
-150.5925521406785
 33
17.99999999999988
  0
3DFACE
  5
430
102
{ACAD_REACTORS
330
672
102
}
330
1F
100
AcDbEntity
  8
0
100
AcDbFace
 10
-805.5866666572958
 20
-150.5925521406785
 30
14.49999999999979
 11
-805.4661619247186
 21
-150.5925521406785
 31
14.49999999999979
 12
-805.4661619247186
 22
-150.5925521406785
 32
17.95195868010698
 13
-805.6085815527415
 23
-150.5925469236121
 33
17.98649242652128
  0
3DFACE
  5
431
102
{ACAD_REACTORS
330
672
102
}
330
1F
100
AcDbEntity
  8
0
100
AcDbFace
 10
-805.4661619247186
 20
-150.5925521406785
 30
14.49999999999979
 11
-805.3216226133681
 21
-150.5925521406785
 31
14.49999999999979
 12
-805.3216226133681
 22
-150.5925521406785
 32
17.89264224652179
 13
-805.4661619247186
 23
-150.5925521406785
 33
17.95195868010698
  0
3DFACE
  5
432
102
{ACAD_REACTORS
330
672
102
}
330
1F
100
AcDbEntity
  8
0
100
AcDbFace
 10
-805.3216226133681
 20
-150.5925521406785
 30
14.49999999999979
 11
-805.1829372585698
 21
-150.5925521406785
 31
14.49999999999979
 12
-805.1829372585698
 22
-150.5925521406785
 32
17.8078040101089
 13
-805.3216226133681
 23
-150.5925521406785
 33
17.89264224652179
  0
3DFACE
  5
433
102
{ACAD_REACTORS
330
672
102
}
330
1F
100
AcDbEntity
  8
0
100
AcDbFace
 10
-805.1829372585698
 20
-150.5925521406785
 30
14.49999999999979
 11
-805.065287522903
 21
-150.5925521406785
 31
14.49999999999979
 12
-805.065287522903
 22
-150.5925521406785
 32
17.70711265713448
 13
-805.1829372585698
 23
-150.5925521406785
 33
17.8078040101089
  0
3DFACE
  5
434
102
{ACAD_REACTORS
330
672
102
}
330
1F
100
AcDbEntity
  8
0
100
AcDbFace
 10
-805.065287522903
 20
-150.5925521406785
 30
14.49999999999979
 11
-804.9645844179837
 21
-150.5925521406785
 31
14.49999999999979
 12
-804.9645844179837
 22
-150.5925521406785
 32
17.58945116952269
 13
-805.065287522903
 23
-150.5925521406785
 33
17.70711265713448
  0
3DFACE
  5
435
102
{ACAD_REACTORS
330
672
102
}
330
1F
100
AcDbEntity
  8
0
100
AcDbFace
 10
-804.9645844179837
 20
-150.5925521406785
 30
14.49999999999979
 11
-804.8829143693508
 21
-150.5925521406785
 31
14.49999999999979
 12
-804.8829143693508
 22
-150.5925521406785
 32
17.4569856658859
 13
-804.9645844179837
 23
-150.5925521406785
 33
17.58945116952269
  0
3DFACE
  5
436
102
{ACAD_REACTORS
330
672
102
}
330
1F
100
AcDbEntity
  8
0
100
AcDbFace
 10
-804.8829143693508
 20
-150.5925521406785
 30
14.49999999999979
 11
-804.8373288753401
 21
-150.5925521406785
 31
14.49999999999979
 12
-804.8373288753401
 22
-150.5925521406785
 32
17.35449066674056
 13
-804.8829143693508
 23
-150.5925521406785
 33
17.4569856658859
  0
3DFACE
  5
437
102
{ACAD_REACTORS
330
672
102
}
330
1F
100
AcDbEntity
  8
0
100
AcDbFace
 10
-804.8373288753401
 20
-150.5925521406785
 30
14.49999999999979
 11
-804.8033744315993
 21
-150.5925521406785
 31
14.49999999999979
 12
-804.8033744315993
 22
-150.5925521406785
 32
17.24700581896012
 13
-804.8373288753401
 23
-150.5925521406785
 33
17.35449066674056
  0
3DFACE
  5
438
102
{ACAD_REACTORS
330
672
102
}
330
1F
100
AcDbEntity
  8
0
100
AcDbFace
 10
-804.8033744315993
 20
-150.5925521406785
 30
14.49999999999979
 11
-804.7723884280927
 21
-150.5925521406785
 31
14.49999999999979
 12
-804.7756605083751
 22
-150.5925521406785
 32
17.08082978445757
 13
-804.8033744315993
 23
-150.5925521406785
 33
17.24700581896012
  0
3DFACE
  5
439
102
{ACAD_REACTORS
330
672
102
}
330
1F
100
AcDbEntity
  8
0
100
AcDbFace
 10
-804.7723884280927
 20
-150.5925521406785
 30
10.9999999999999
 11
-806.7723884280926
 21
-150.5925521406785
 31
10.99999999999983
 12
-806.8224190592099
 22
-150.5925521406784
 32
14.49999999999988
 13
-804.7723884280927
 23
-150.5925521406784
 33
14.50000000000001
  0
3DFACE
  5
43A
102
{ACAD_REACTORS
330
672
102
}
330
1F
100
AcDbEntity
  8
0
100
AcDbFace
 10
-806.7723884280926
 20
-150.5925521406785
 30
10.99999999999983
 11
-806.7723884280926
 21
-147.7925521406785
 31
8.199999999999803
 12
-804.7723884280927
 22
-147.7925521406786
 32
8.199999999999842
 13
-804.7723884280927
 23
-150.5925521406785
 33
11.00000000000001
  0
3DFACE
  5
43B
102
{ACAD_REACTORS
330
672
102
}
330
1F
100
AcDbEntity
  8
0
100
AcDbFace
 10
-806.7723884280926
 20
-147.7925521406785
 30
8.199999999999803
 11
-806.7646682197301
 21
-147.7375204977095
 31
8.144968357030814
 12
-804.7801086364554
 22
-147.7375204977095
 32
8.144968357030814
 13
-804.7723884280927
 23
-147.7925521406783
 33
8.199999999999883
  0
3DFACE
  5
43C
102
{ACAD_REACTORS
330
672
102
}
330
1F
100
AcDbEntity
  8
0
100
AcDbFace
 10
-806.7646682197301
 20
-147.7375204977095
 30
8.144968357030814
 11
-806.7518432032986
 21
-147.7042572730146
 31
8.111705132336007
 12
-804.7947316267267
 22
-147.7006932220673
 32
8.108141081388684
 13
-804.7801086364554
 23
-147.7375204977095
 33
8.144968357030814
  0
3DFACE
  5
43D
102
{ACAD_REACTORS
330
672
102
}
330
1F
100
AcDbEntity
  8
0
100
AcDbFace
 10
-806.7518432032986
 20
-147.7042572730146
 30
8.111705132336007
 11
-806.7138097843299
 21
-147.6511307844428
 31
8.058578643762576
 12
-804.8309670718554
 22
-147.6511307844412
 32
8.058578643762576
 13
-804.7947316267267
 23
-147.7006932220673
 33
8.108141081388684
  0
3DFACE
  5
43E
102
{ACAD_REACTORS
330
672
102
}
330
1F
100
AcDbEntity
  8
0
100
AcDbFace
 10
-806.7138097843301
 20
-147.6511307844413
 30
8.058578643762713
 11
-806.6731404769566
 21
-147.619783437929
 31
8.0272312972504
 12
-804.8716363792289
 22
-147.619783437929
 32
8.0272312972504
 13
-804.8309670718554
 23
-147.6511307844412
 33
8.058578643762576
  0
3DFACE
  5
43F
102
{ACAD_REACTORS
330
672
102
}
330
1F
100
AcDbEntity
  8
0
100
AcDbFace
 10
-806.6443371378658
 20
-147.6059418966886
 30
8.013389756009841
 11
-806.6090212473675
 21
-147.5959356699747
 31
8.003383529296186
 12
-804.9452493497373
 22
-147.5944020197449
 32
8.001849879066236
 13
-804.9012865061978
 23
-147.6056176155023
 33
8.013065474823626
  0
3DFACE
  5
440
102
{ACAD_REACTORS
330
672
102
}
330
1F
100
AcDbEntity
  8
0
100
AcDbFace
 10
-806.6090212473675
 20
-147.5959356699747
 30
8.003383529296186
 11
-806.5723884280927
 21
-147.5925521406783
 31
7.999999999999886
 12
-804.974411193732
 22
-147.5925521406785
 32
7.999999999999886
 13
-804.9452493497373
 23
-147.5944020197449
 33
8.001849879066236
  0
3DFACE
  5
47B
102
{ACAD_REACTORS
330
672
102
}
330
1F
100
AcDbEntity
  8
0
100
AcDbFace
 10
-840.4723884280922
 20
473.4074478593217
 30
18.0
 11
-840.6845204624483
 21
473.4074478593217
 31
17.91213203435596
 12
-840.6845204624486
 22
-150.5425544356976
 32
17.91213203435596
 13
-840.4723884280926
 23
-150.5925521406785
 33
17.99999999999988
  0
3DFACE
  5
492
102
{ACAD_REACTORS
330
672
102
}
330
1F
100
AcDbEntity
  8
0
100
AcDbFace
 10
-840.6845204624483
 20
473.4074478593217
 30
17.91213203435596
 11
-840.7723884280922
 21
473.4318611018701
 31
17.7
 12
-840.7723884280926
 22
-150.486496346766
 32
17.7
 13
-840.6845204624486
 23
-150.5425544356976
 33
17.91213203435596
  0
3DFACE
  5
49A
102
{ACAD_REACTORS
330
672
102
}
330
1F
100
AcDbEntity
  8
0
100
AcDbFace
 10
-840.7723884280926
 20
-150.486496346766
 30
17.7
 11
-840.7723884280926
 21
-150.486496346766
 31
0.2
 12
-840.7723884280922
 22
474.1193358645793
 32
0.2
 13
-840.7723884280922
 23
473.4318611018701
 33
17.70000000000004
  0
3DFACE
  5
4B7
102
{ACAD_REACTORS
330
4C1
330
672
102
}
330
1F
100
AcDbEntity
  8
0
100
AcDbFace
 10
-840.7723884280926
 20
-150.486496346766
 30
17.7
 11
-840.6845204624486
 21
-150.5425544356976
 31
17.91213203435596
 12
-840.7723884280926
 22
-150.486496346766
 32
0.1999999999999993
 13
-840.5723884280927
 23
-150.4529799452078
 33
0.0
  0
3DFACE
  5
4B8
102
{ACAD_REACTORS
330
4C1
330
672
102
}
330
1F
100
AcDbEntity
  8
0
100
AcDbFace
 10
-840.6845204624486
 20
-150.5425544356976
 30
17.91213203435596
 11
-840.4723884280926
 21
-150.5925521406785
 31
17.99999999999988
 12
-840.0219169137283
 22
-150.3696307944069
 32
0.0
 13
-840.5723884280927
 23
-150.4529799452078
 33
0.0000000000000151
  0
3DFACE
  5
4B9
102
{ACAD_REACTORS
330
4C1
330
672
102
}
330
1F
100
AcDbEntity
  8
0
100
AcDbFace
 10
-840.0223884280926
 20
-150.3696344107641
 30
0.0
 11
-839.4723884280926
 21
-150.3654160950934
 31
0.0
 12
-839.1845204624488
 22
-150.9264511037443
 32
16.81213203435586
 13
-840.4723884280926
 23
-150.5925521406785
 33
17.99999999999988
  0
3DFACE
  5
4C2
102
{ACAD_REACTORS
330
672
102
}
330
1F
100
AcDbEntity
  8
0
100
AcDbFace
 10
-840.7723884280922
 20
473.4318611018701
 30
17.70000000000004
 11
-840.6845204624483
 21
473.4074478593217
 31
17.91213203435596
 12
-840.7723884280922
 22
474.1193358645793
 32
0.2000000000000008
 13
-840.5723884280924
 23
474.1528522661373
 33
0.0000000000000016
  0
3DFACE
  5
4C3
102
{ACAD_REACTORS
330
672
102
}
330
1F
100
AcDbEntity
  8
0
100
AcDbFace
 10
-840.6845204624483
 20
473.4074478593217
 30
17.91213203435596
 11
-840.4723884280922
 21
473.4074478593217
 31
17.99999999999999
 12
-840.0192588575121
 22
474.1968833159666
 32
0.0000000000000016
 13
-840.5723884280924
 23
474.1528522661373
 33
0.0000000000000167
  0
3DFACE
  5
4C4
102
{ACAD_REACTORS
330
672
102
}
330
1F
100
AcDbEntity
  8
0
100
AcDbFace
 10
-840.0192588575121
 20
474.1968833159666
 30
0.0000000000000016
 11
-839.4723884280923
 21
474.2404161162518
 31
0.0000000000000016
 12
-839.1845204624482
 22
473.679381107601
 32
16.81213203435586
 13
-840.4723884280922
 23
473.4074478593217
 33
18.0
  0
3DFACE
  5
4D4
102
{ACAD_REACTORS
330
672
102
}
330
1F
100
AcDbEntity
  8
0
100
AcDbFace
 10
-804.9452493497367
 20
470.409297738388
 30
8.001849879066352
 11
-804.9012865061975
 21
470.4205133341453
 31
8.01306547482374
 12
-804.9012865061978
 22
-147.6056176155023
 32
8.013065474823626
 13
-804.8716363792296
 23
-147.6197834379284
 33
8.027231297249789
  0
3DFACE
  5
4F1
102
{ACAD_REACTORS
330
672
102
}
330
1F
100
AcDbEntity
  8
0
100
AcDbFace
 10
-806.8223828398554
 20
-150.5925521406784
 30
14.49746619745217
 11
-806.7723884280926
 21
-150.5925521406784
 31
11.0
 12
-806.7723884280928
 22
473.4074478593217
 32
11.00000000004053
 13
-806.8224190592095
 23
473.4074478593217
 33
14.4999999999999
  0
3DFACE
  5
4F2
102
{ACAD_REACTORS
330
672
102
}
330
1F
100
AcDbEntity
  8
0
100
AcDbFace
 10
-806.8224190592095
 20
473.4074478593217
 30
14.4999999999999
 11
-806.8224190592093
 21
473.4074478593217
 31
18.0
 12
-806.8224190592097
 22
-150.5925521406785
 32
17.99999999997973
 13
-806.8223828398554
 23
-150.5925521406782
 33
14.49746619745217
  0
3DFACE
  5
501
102
{ACAD_REACTORS
330
672
102
}
330
1F
100
AcDbEntity
  8
0
100
AcDbFace
 10
-806.7723884280926
 20
-150.5925521406785
 30
11.00000000000008
 11
-806.7723884280926
 21
-147.7925521406783
 31
8.199999999999999
 12
-806.7723884280571
 22
470.6074478593214
 32
8.199999999999921
 13
-806.7723884280928
 23
473.4074478593625
 33
11.00000000004053
  0
3DFACE
  5
510
102
{ACAD_REACTORS
330
672
102
}
330
1F
100
AcDbEntity
  8
0
100
AcDbFace
 10
-806.7723884280578
 20
-147.7925521406785
 30
8.199999999999807
 11
-806.7646682197301
 21
-147.7375204977095
 31
8.144968357030814
 12
-806.7646682197295
 22
470.5524162163525
 32
8.14496835703073
 13
-806.7723884280571
 23
470.6074478593214
 33
8.199999999999921
  0
3DFACE
  5
511
102
{ACAD_REACTORS
330
672
102
}
330
1F
100
AcDbEntity
  8
0
100
AcDbFace
 10
-806.7646682197295
 20
470.5524162163523
 30
8.14496835703073
 11
-806.7500452294583
 21
470.5155889407102
 31
8.108141081388799
 12
-806.7518432032986
 22
-147.7042572730146
 32
8.111705132336007
 13
-806.7646682197301
 23
-147.7375204977093
 33
8.144968357030926
  0
3DFACE
  5
512
102
{ACAD_REACTORS
330
672
102
}
330
1F
100
AcDbEntity
  8
0
100
AcDbFace
 10
-806.7518432032986
 20
-147.7042572730147
 30
8.111705132336007
 11
-806.7138097843299
 21
-147.6511307844428
 31
8.058578643762576
 12
-806.713809783807
 22
470.4660265030858
 32
8.058578643762691
 13
-806.7500452294583
 23
470.5155889407097
 33
8.108141081388799
  0
3DFACE
  5
513
102
{ACAD_REACTORS
330
672
102
}
330
1F
100
AcDbEntity
  8
0
100
AcDbFace
 10
-840.7723884280922
 20
474.1193358645793
 30
0.2000000000000194
 11
-840.5723884280924
 21
474.1528522661373
 31
0.0000000000007152
 12
-840.5723884280927
 22
-150.4529799452078
 32
0.0000000000029775
 13
-840.7723884280926
 23
-150.486496346766
 33
0.1999999999999842
  0
3DFACE
  5
514
102
{ACAD_REACTORS
330
672
102
}
330
1F
100
AcDbEntity
  8
0
100
AcDbFace
 10
-840.5723884280924
 20
474.1528522661373
 30
0.0000000000000016
 11
-839.4723884280923
 21
474.2404161162518
 31
0.0000000000000016
 12
-839.4723884280926
 22
-150.3654160950934
 32
0.0
 13
-840.5723884280927
 23
-150.4529799452077
 33
0.0000000000029775
  0
3DFACE
  5
51C
102
{ACAD_REACTORS
330
672
102
}
330
1F
100
AcDbEntity
  8
0
100
AcDbFace
 10
-804.9723884280922
 20
470.4074478593214
 30
8.0
 11
-806.5723884280922
 21
470.4074478593214
 31
8.0
 12
-806.5723884281805
 22
-147.5925521406783
 32
7.999999999999886
 13
-804.9723884280924
 23
-147.5925521406785
 33
8.000000000000042
  0
3DFACE
  5
539
102
{ACAD_REACTORS
330
672
102
}
330
1F
100
AcDbEntity
  8
0
100
AcDbFace
 10
-806.7138097843301
 20
-147.6511307844413
 30
8.058578643762713
 11
-806.6731404769566
 21
-147.6197834379289
 31
8.027231297250514
 12
-806.6731404769555
 22
470.4346791565718
 32
8.027231297250217
 13
-806.713809783807
 23
470.4660265026815
 33
8.058578643762691
  0
3DFACE
  5
541
102
{ACAD_REACTORS
330
672
102
}
330
1F
100
AcDbEntity
  8
0
100
AcDbFace
 10
-806.6731404769555
 20
470.4346791565718
 30
8.027231297250217
 11
-806.6443371378655
 21
470.4208376153314
 31
8.013389756009955
 12
-806.6443371378658
 22
-147.6059418966886
 32
8.013389756009841
 13
-806.6731404769566
 23
-147.619783437929
 33
8.027231297250628
  0
3DFACE
  5
549
102
{ACAD_REACTORS
330
672
102
}
330
1F
100
AcDbEntity
  8
0
100
AcDbFace
 10
-806.6443371378658
 20
-147.6059418966886
 30
8.013389756009841
 11
-806.599527506448
 21
-147.5944020197447
 31
8.001849879066348
 12
-806.6090212473671
 22
470.4108313886178
 32
8.003383529296302
 13
-806.6443371378655
 23
470.4208376153314
 33
8.013389756009955
  0
3DFACE
  5
551
102
{ACAD_REACTORS
330
672
102
}
330
1F
100
AcDbEntity
  8
0
100
AcDbFace
 10
-806.8999394212061
 20
473.4074478593217
 30
14.78834364951133
 11
-806.8223828398551
 21
473.4074478593214
 31
14.49746619745209
 12
-806.8224190592099
 22
-150.5925521406784
 32
14.49999999999978
 13
-806.8999394212065
 23
-150.5925521406785
 33
14.78834364951122
  0
3DFACE
  5
552
102
{ACAD_REACTORS
330
672
102
}
330
1F
100
AcDbEntity
  8
0
100
AcDbFace
 10
-806.8999394212065
 20
-150.5925521406782
 30
14.78834364951122
 11
-806.962827565033
 21
-150.5925521406785
 31
14.95704159774958
 12
-806.9628275650329
 22
473.4074478593217
 32
14.95704159775628
 13
-806.8999394212061
 23
473.4074478593217
 33
14.78834364951178
  0
3DFACE
  5
553
102
{ACAD_REACTORS
330
672
102
}
330
1F
100
AcDbEntity
  8
0
100
AcDbFace
 10
-807.0798623641904
 20
473.4074478593217
 30
15.20117836273839
 11
-806.9628275650101
 21
473.4074478593217
 31
14.95704159769563
 12
-806.8999394212067
 22
-150.5925521406785
 32
14.78834364951196
 13
-806.8223828660572
 23
-150.5925521406782
 33
14.5
  0
3DFACE
  5
554
102
{ACAD_REACTORS
330
672
102
}
330
1F
100
AcDbEntity
  8
0
100
AcDbFace
 10
-806.9628275650332
 20
-150.5925521406785
 30
14.95704159775631
 11
-807.0798623641907
 21
-150.5925521406785
 31
15.20117836273827
 12
-807.0798623641893
 22
473.4074478593217
 32
15.20117836273646
 13
-806.9628275649861
 23
473.4074478593217
 33
14.95704159764532
  0
3DFACE
  5
555
102
{ACAD_REACTORS
330
672
102
}
330
1F
100
AcDbEntity
  8
0
100
AcDbFace
 10
-807.079862231067
 20
473.4071252356194
 30
15.20117800021153
 11
-807.2528784028197
 21
473.4074478593217
 31
15.47362792382967
 12
-807.2528784028202
 22
-150.5925521406785
 32
15.47362792382967
 13
-807.079862364192
 23
-150.5925521406785
 33
15.20117836274061
  0
3DFACE
  5
55D
102
{ACAD_REACTORS
330
672
102
}
330
1F
100
AcDbEntity
  8
0
100
AcDbFace
 10
-807.2528784025825
 20
-150.5925521406785
 30
15.47362792345542
 11
-807.5046191303497
 21
-150.5925521406784
 31
15.76776460818666
 12
-807.5046238199057
 22
473.4074478593217
 32
15.76776929774303
 13
-807.2528784028197
 23
473.4074478593217
 33
15.47362792382967
  0
3DFACE
  5
55E
102
{ACAD_REACTORS
330
672
102
}
330
1F
100
AcDbEntity
  8
0
100
AcDbFace
 10
-807.5046191303492
 20
473.4074478593217
 30
15.76776460818665
 11
-807.7987605042853
 21
473.4074478593217
 31
16.01951002527252
 12
-807.7987605042856
 22
-150.5925521406785
 32
16.01951002527242
 13
-807.504623819906
 23
-150.5925521406784
 33
15.76776929774275
  0
3DFACE
  5
566
102
{ACAD_REACTORS
330
672
102
}
330
1F
100
AcDbEntity
  8
0
100
AcDbFace
 10
-807.7987605042856
 20
-150.5925521406785
 30
16.0195100252723
 11
-808.0129878171977
 21
-150.5925521406785
 31
16.15960878431177
 12
-808.0129878171845
 22
473.4074478593217
 32
16.15960878431177
 13
-807.7987605042853
 23
473.4074478593217
 33
16.01951002527252
  0
3DFACE
  5
56E
102
{ACAD_REACTORS
330
672
102
}
330
1F
100
AcDbEntity
  8
0
100
AcDbFace
 10
-808.0129878172943
 20
473.4074478593217
 30
16.15960878436858
 11
-808.2373692267546
 21
473.4074478593217
 31
16.27568346939163
 12
-808.2373692267642
 22
-150.5925521406785
 32
16.27568346939572
 13
-808.0129878172948
 23
-150.5925521406785
 33
16.15960878437545
  0
3DFACE
  5
576
102
{ACAD_REACTORS
330
672
102
}
330
1F
100
AcDbEntity
  8
0
100
AcDbFace
 10
-808.2373692267555
 20
-150.5925521406785
 30
16.27568346939123
 11
-808.6677466388092
 21
-150.5925521406785
 31
16.42577993780399
 12
-808.6677466388088
 22
473.4074478593214
 32
16.425779937804
 13
-808.2373692267552
 23
473.4074478593217
 33
16.27568346939189
  0
3DFACE
  5
577
102
{ACAD_REACTORS
330
672
102
}
330
1F
100
AcDbEntity
  8
0
100
AcDbFace
 10
-808.6677466388087
 20
473.4074478593214
 30
16.42577993780394
 11
-809.2723884280923
 21
473.4074478593217
 31
16.5
 12
-809.2723884281056
 22
-150.5925521406785
 32
16.49999999999988
 13
-808.6677466388092
 23
-150.5925521406785
 33
16.42577993780384
  0
3DFACE
  5
58D
102
{ACAD_REACTORS
330
672
102
}
330
1F
100
AcDbEntity
  8
0
100
AcDbFace
 10
-809.2723884280918
 20
473.4074478593217
 30
16.49999999999993
 11
-817.4723884281913
 21
473.4074478593214
 31
16.49999999990454
 12
-817.4723884281917
 22
-150.5925521406784
 32
16.50000000000034
 13
-809.2723884281054
 23
-150.5925521406784
 33
16.50000000000153
  0
3DFACE
  5
58E
102
{ACAD_REACTORS
330
672
102
}
330
1F
100
AcDbEntity
  8
0
100
AcDbFace
 10
-817.4723884280927
 20
-150.5925521406784
 30
16.50000000000034
 11
-817.9947148577525
 21
-150.5924363818612
 31
16.49989178751918
 12
-817.9800227800534
 22
-150.5925521406785
 32
17.99999999991188
 13
-817.4723884280961
 23
-150.5925521406785
 33
17.99999999987956
  0
3DFACE
  5
619
102
{ACAD_REACTORS
330
672
102
}
330
1F
100
AcDbEntity
  8
0
100
AcDbFace
 10
-839.4723884280926
 20
-150.3531935524019
 30
0.0
 11
-839.1845204624488
 21
-150.9264511037443
 31
16.81213203435586
 12
-839.1845204624484
 22
473.679381107601
 32
16.81213203435599
 13
-839.4723884280923
 23
474.2404161162518
 33
0.0000000000000016
  0
3DFACE
  5
628
102
{ACAD_REACTORS
330
672
102
}
330
1F
100
AcDbEntity
  8
0
100
AcDbFace
 10
-839.1845204624488
 20
-150.9264511037443
 30
16.81213203435586
 11
-817.4723884280927
 21
-150.5925521406784
 31
16.50000000000034
 12
-817.4723884280922
 22
473.4074478593214
 32
16.49999999990454
 13
-839.1843652989752
 23
473.6790787045866
 33
16.82119392767915
  0
3DFACE
  5
630
102
{ACAD_REACTORS
330
672
102
}
330
1F
100
AcDbEntity
  8
0
100
AcDbFace
 10
-805.7723884281028
 20
-150.5925521406785
 30
18.00000000000083
 11
-840.4723884280926
 21
-150.5925521406785
 31
17.99999999999988
 12
-840.4723884280892
 22
473.4074478593217
 32
18.0
 13
-805.7723884280921
 23
473.4074478593214
 33
18.0
  0
3DFACE
  5
631
102
{ACAD_REACTORS
330
672
102
}
330
1F
100
AcDbEntity
  8
0
100
AcDbFace
 10
-839.1845204624488
 20
-150.9264511037443
 30
16.81213203435586
 11
-840.4723884280926
 21
-150.5925521406785
 31
17.99999999999988
 12
-809.2723884280927
 22
-150.5925521406785
 32
18.00000000000979
 13
-809.2723884280921
 23
-150.5925521406784
 33
16.50000000000153
  0
3DFACE
  5
64E
102
{ACAD_REACTORS
330
672
102
}
330
1F
100
AcDbEntity
  8
0
100
AcDbFace
 10
-804.7723884280927
 20
-150.5925521406785
 30
10.9999999999999
 11
-804.7723884280927
 21
-150.5925521406785
 31
17.00000000000001
 12
-804.7723884281101
 22
473.4074478593217
 32
17.00000000025106
 13
-804.7723884280923
 23
473.4074478593217
 33
10.99999999999979
  0
ENDSEC
  0
SECTION
  2
OBJECTS
  0
DICTIONARY
  5
C
330
0
100
AcDbDictionary
281
     1
  3
ACAD_BACKGROUND
350
185
  3
ACAD_CIP_PREVIOUS_PRODUCT_INFO
350
184
  3
ACAD_COLOR
350
168
  3
ACAD_DETAILVIEWSTYLE
350
180
  3
ACAD_GROUP
350
D
  3
ACAD_LAYOUT
350
1A
  3
ACAD_MATERIAL
350
145
  3
ACAD_MLEADERSTYLE
350
142
  3
ACAD_MLINESTYLE
350
17
  3
ACAD_PLOTSETTINGS
350
19
  3
ACAD_PLOTSTYLENAME
350
E
  3
ACAD_SCALELIST
350
16A
  3
ACAD_SECTIONVIEWSTYLE
350
17D
  3
ACAD_TABLESTYLE
350
141
  3
ACAD_VISUALSTYLE
350
2A
  3
ACDB_RECOMPOSE_DATA
350
6AA
  3
AcDbVariableDictionary
350
35C
  0
DICTIONARY
  5
19D
330
2
100
AcDbDictionary
280
     1
281
     1
  3
ACAD_LAYERSTATES
360
19E
  0
DICTIONARY
  5
18B
330
10
100
AcDbDictionary
280
     1
281
     1
  3
ADSK_XREC_LAYER_RECONCILED
360
18C
  0
DICTIONARY
  5
18D
330
3B
100
AcDbDictionary
280
     1
281
     1
  3
ADSK_XREC_LAYER_RECONCILED
360
18E
  0
DICTIONARY
  5
185
102
{ACAD_REACTORS
330
C
102
}
330
C
100
AcDbDictionary
281
     1
  0
XRECORD
  5
184
102
{ACAD_REACTORS
330
C
102
}
330
C
100
AcDbXrecord
280
     1
300
ACD
300
2013
300
ACD_F_S
  0
DICTIONARY
  5
168
102
{ACAD_REACTORS
330
C
102
}
330
C
100
AcDbDictionary
281
     1
  0
DICTIONARY
  5
180
102
{ACAD_REACTORS
330
C
102
}
330
C
100
AcDbDictionary
281
     1
  3
Imperial24
350
181
  0
DICTIONARY
  5
D
102
{ACAD_REACTORS
330
C
102
}
330
C
100
AcDbDictionary
281
     1
  3
*A1
350
4C1
  3
*A2
350
672
  0
DICTIONARY
  5
1A
102
{ACAD_REACTORS
330
C
102
}
330
C
100
AcDbDictionary
281
     1
  3
Layout1
350
1E
  3
Layout2
350
26
  3
Model
350
22
  0
DICTIONARY
  5
145
102
{ACAD_REACTORS
330
C
102
}
330
C
100
AcDbDictionary
281
     1
  3
ByBlock
350
14E
  3
ByLayer
350
146
  3
Global
350
156
  0
DICTIONARY
  5
142
102
{ACAD_REACTORS
330
C
102
}
330
C
100
AcDbDictionary
281
     1
  3
Standard
350
17C
  0
DICTIONARY
  5
17
102
{ACAD_REACTORS
330
C
102
}
330
C
100
AcDbDictionary
281
     1
  3
Standard
350
18
  0
DICTIONARY
  5
19
102
{ACAD_REACTORS
330
C
102
}
330
C
100
AcDbDictionary
281
     1
  0
ACDBDICTIONARYWDFLT
  5
E
102
{ACAD_REACTORS
330
C
102
}
330
C
100
AcDbDictionary
281
     1
  3
Normal
350
F
100
AcDbDictionaryWithDefault
340
F
  0
DICTIONARY
  5
16A
102
{ACAD_REACTORS
330
C
102
}
330
C
100
AcDbDictionary
281
     1
  3
A0
350
16B
  3
A1
350
16C
  3
A2
350
16D
  3
A3
350
16E
  3
A4
350
16F
  3
A5
350
170
  3
A6
350
171
  3
A7
350
172
  3
A8
350
173
  3
A9
350
174
  3
B0
350
175
  3
B1
350
176
  3
B2
350
177
  3
B3
350
178
  3
B4
350
179
  3
B5
350
17A
  3
B6
350
17B
  0
DICTIONARY
  5
17D
102
{ACAD_REACTORS
330
C
102
}
330
C
100
AcDbDictionary
281
     1
  3
Imperial24
350
17F
  0
DICTIONARY
  5
141
102
{ACAD_REACTORS
330
C
102
}
330
C
100
AcDbDictionary
281
     1
  3
Standard
350
169
  0
DICTIONARY
  5
2A
102
{ACAD_REACTORS
330
C
102
}
330
C
100
AcDbDictionary
281
     1
  3
2dWireframe
350
2F
  3
3D Hidden
350
31
  3
3dWireframe
350
30
  3
Basic
350
32
  3
Brighten
350
36
  3
ColorChange
350
3A
  3
Conceptual
350
34
  3
Dim
350
35
  3
EdgeColorOff
350
167
  3
Facepattern
350
39
  3
Flat
350
2B
  3
FlatWithEdges
350
2C
  3
Gouraud
350
2D
  3
GouraudWithEdges
350
2E
  3
Hidden
350
15F
  3
JitterOff
350
165
  3
Linepattern
350
38
  3
OverhangOff
350
166
  3
Realistic
350
33
  3
Shaded
350
164
  3
Shaded with edges
350
163
  3
Shades of Gray
350
160
  3
Sketchy
350
161
  3
Thicken
350
37
  3
Wireframe
350
15E
  3
X-Ray
350
162
  0
XRECORD
  5
6AA
102
{ACAD_REACTORS
330
C
102
}
330
C
100
AcDbXrecord
280
     1
 90
        1
330
169
  0
DICTIONARY
  5
35C
102
{ACAD_REACTORS
330
C
102
}
330
C
100
AcDbDictionary
281
     1
  3
CANNOSCALE
350
362
  3
CMLEADERSTYLE
350
35E
  3
CTABLESTYLE
350
35D
  3
CVIEWDETAILSTYLE
350
35F
  3
CVIEWSECTIONSTYLE
350
360
  3
LAYEREVAL
350
364
  3
LAYERNOTIFY
350
365
  3
LIGHTINGUNITS
350
363
  3
MSLTSCALE
350
361
  0
DICTIONARY
  5
19E
102
{ACAD_REACTORS
330
19D
102
}
330
19D
100
AcDbDictionary
281
     1
  0
XRECORD
  5
18C
102
{ACAD_REACTORS
330
18B
102
}
330
18B
100
AcDbXrecord
280
     1
290
     1
  0
XRECORD
  5
18E
102
{ACAD_REACTORS
330
18D
102
}
330
18D
100
AcDbXrecord
280
     1
290
     1
  0
ACDBDETAILVIEWSTYLE
  5
181
102
{ACAD_REACTORS
330
180
102
}
330
180
100
AcDbModelDocViewStyle
 70
     0
  3
Imperial24
290
     0
100
AcDbDetailViewStyle
 70
     0
 71
     0
 90
        3
 71
     1
340
11
 62
   256
 40
0.24
340
0
 62
   256
 40
0.24
300

 40
0.36
280
     3
 71
     2
340
16
 90
       25
 62
   256
 71
     3
340
11
 62
   256
 40
0.24
 90
        1
 40
0.75
 90
        1
300
%<\AcVar ViewType \f "%tc1">% %<\AcVar ViewDetailId>%\PSCALE %<\AcVar ViewScale \f "%sn">%
 71
     4
340
16
 90
       25
 62
   256
340
16
 90
       25
 62
   256
280
     0
  0
GROUP
  5
4C1
102
{ACAD_REACTORS
330
D
102
}
330
D
100
AcDbGroup
300

 70
     1
 71
     1
340
4B8
340
4B7
340
4B9
  0
GROUP
  5
672
102
{ACAD_REACTORS
330
D
102
}
330
D
100
AcDbGroup
300

 70
     1
 71
     1
340
64E
340
631
340
630
340
628
340
619
340
58E
340
58D
340
577
340
576
340
56E
340
566
340
55E
340
55D
340
555
340
554
340
553
340
552
340
551
340
549
340
541
340
539
340
51C
340
514
340
513
340
512
340
511
340
510
340
501
340
4F2
340
4F1
340
4D4
340
4C4
340
4C3
340
4C2
340
4B9
340
4B8
340
4B7
340
49A
340
492
340
47B
340
440
340
43F
340
43E
340
43D
340
43C
340
43B
340
43A
340
439
340
438
340
437
340
436
340
435
340
434
340
433
340
432
340
431
340
430
340
42F
340
42E
340
42D
340
42C
340
42B
340
42A
340
429
340
428
340
427
340
426
340
425
340
424
340
423
340
422
340
421
340
420
340
41F
340
41E
340
41D
340
3D1
340
3D0
340
3C8
340
3C0
340
3BF
340
3B7
340
3B6
340
3B5
340
3B4
340
3A5
340
3A4
340
38E
340
38D
340
385
340
384
340
375
340
374
340
36C
340
2FF
340
2ED
340
2DB
340
2DA
340
2D9
340
2D8
340
2D7
340
2D6
340
2B3
340
2A1
340
28F
340
28E
340
28D
340
28C
340
268
340
267
340
266
340
265
340
264
340
263
340
214
340
1F1
340
1F0
340
1EF
340
1EE
340
1ED
340
1EC
340
1EB
340
1EA
340
1E9
340
1D7
340
1D6
340
1D5
340
1D4
340
1D3
340
1C1
340
1C0
340
1AD
340
18A
340
13E
340
13D
340
139
340
138
340
136
340
12E
340
12D
340
12C
340
12A
340
129
340
128
340
127
340
126
340
125
340
123
340
122
340
121
340
120
340
11F
340
11E
340
11D
340
11C
340
11B
340
11A
340
119
340
116
340
115
340
114
340
113
340
112
340
111
340
110
340
10E
340
10D
340
10C
340
10B
340
103
340
102
340
101
340
FD
340
EA
340
E4
340
DE
340
98
340
96
340
95
340
94
340
93
340
90
340
8F
340
83
340
7F
340
7C
340
7B
340
7A
340
79
340
78
340
77
340
68
340
59
340
49
340
48
340
47
340
46
340
45
340
44
340
41
340
40
340
3F
340
3E
340
3D
340
3C
  0
LAYOUT
  5
1E
102
{ACAD_REACTORS
330
1A
102
}
330
1A
100
AcDbPlotSettings
  1

  2
none_device
  4

  6

 40
0.0
 41
0.0
 42
0.0
 43
0.0
 44
0.0
 45
0.0
 46
0.0
 47
0.0
 48
0.0
 49
0.0
140
0.0
141
0.0
142
1.0
143
1.0
 70
   688
 72
     0
 73
     0
 74
     5
  7

 75
    16
147
1.0
 76
     0
 77
     2
 78
   300
148
0.0
149
0.0
100
AcDbLayout
  1
Layout1
 70
     1
 71
     1
 10
0.0
 20
0.0
 11
12.0
 21
9.0
 12
0.0
 22
0.0
 32
0.0
 14
1.000000000000000E+20
 24
1.000000000000000E+20
 34
1.000000000000000E+20
 15
-1.000000000000000E+20
 25
-1.000000000000000E+20
 35
-1.000000000000000E+20
146
0.0
 13
0.0
 23
0.0
 33
0.0
 16
1.0
 26
0.0
 36
0.0
 17
0.0
 27
1.0
 37
0.0
 76
     0
330
1B
  0
LAYOUT
  5
26
102
{ACAD_REACTORS
330
1A
102
}
330
1A
100
AcDbPlotSettings
  1

  2
none_device
  4

  6

 40
0.0
 41
0.0
 42
0.0
 43
0.0
 44
0.0
 45
0.0
 46
0.0
 47
0.0
 48
0.0
 49
0.0
140
0.0
141
0.0
142
1.0
143
1.0
 70
   688
 72
     0
 73
     0
 74
     5
  7

 75
    16
147
1.0
 76
     0
 77
     2
 78
   300
148
0.0
149
0.0
100
AcDbLayout
  1
Layout2
 70
     1
 71
     2
 10
0.0
 20
0.0
 11
0.0
 21
0.0
 12
0.0
 22
0.0
 32
0.0
 14
0.0
 24
0.0
 34
0.0
 15
0.0
 25
0.0
 35
0.0
146
0.0
 13
0.0
 23
0.0
 33
0.0
 16
1.0
 26
0.0
 36
0.0
 17
0.0
 27
1.0
 37
0.0
 76
     0
330
23
  0
LAYOUT
  5
22
102
{ACAD_REACTORS
330
1A
102
}
330
1A
100
AcDbPlotSettings
  1

  2
none_device
  4

  6

 40
0.0
 41
0.0
 42
0.0
 43
0.0
 44
0.0
 45
0.0
 46
0.0
 47
0.0
 48
0.0
 49
0.0
140
0.0
141
0.0
142
1.0
143
1.0
 70
  1712
 72
     0
 73
     0
 74
     0
  7

 75
     0
147
1.0
 76
     0
 77
     2
 78
   300
148
0.0
149
0.0
100
AcDbLayout
  1
Model
 70
     1
 71
     0
 10
0.0
 20
0.0
 11
12.0
 21
9.0
 12
0.0
 22
0.0
 32
0.0
 14
-36.00000000000001
 24
-352.0000000000002
 34
0.0
 15
1.43796050902626
 25
352.0000000000002
 35
18.00000000000001
146
0.0
 13
0.0
 23
0.0
 33
0.0
 16
1.0
 26
0.0
 36
0.0
 17
0.0
 27
1.0
 37
0.0
 76
     0
330
1F
331
29
  0
MATERIAL
  5
14E
102
{ACAD_XDICTIONARY
360
14F
102
}
102
{ACAD_REACTORS
330
145
102
}
330
145
100
AcDbMaterial
  1
ByBlock
 72
     0
 43
0.0008202099737533
 43
0.0
 43
0.0
 43
0.0
 43
0.0
 43
0.0008202099737533
 43
0.0
 43
0.0
 43
0.0
 43
0.0
 43
1.0
 43
0.0
 43
0.0
 43
0.0
 43
0.0
 43
1.0
 77
     0
 47
0.0008202099737533
 47
0.0
 47
0.0
 47
0.0
 47
0.0
 47
0.0008202099737533
 47
0.0
 47
0.0
 47
0.0
 47
0.0
 47
1.0
 47
0.0
 47
0.0
 47
0.0
 47
0.0
 47
1.0
171
     0
 49
0.0008202099737533
 49
0.0
 49
0.0
 49
0.0
 49
0.0
 49
0.0008202099737533
 49
0.0
 49
0.0
 49
0.0
 49
0.0
 49
1.0
 49
0.0
 49
0.0
 49
0.0
 49
0.0
 49
1.0
175
     0
142
0.0008202099737533
142
0.0
142
0.0
142
0.0
142
0.0
142
0.0008202099737533
142
0.0
142
0.0
142
0.0
142
0.0
142
1.0
142
0.0
142
0.0
142
0.0
142
0.0
142
1.0
179
     0
144
0.0008202099737533
144
0.0
144
0.0
144
0.0
144
0.0
144
0.0008202099737533
144
0.0
144
0.0
144
0.0
144
0.0
144
1.0
144
0.0
144
0.0
144
0.0
144
0.0
144
1.0
147
0.0008202099737533
147
0.0
147
0.0
147
0.0
147
0.0
147
0.0008202099737533
147
0.0
147
0.0
147
0.0
147
0.0
147
1.0
147
0.0
147
0.0
147
0.0
147
0.0
147
1.0
  0
MATERIAL
  5
146
102
{ACAD_XDICTIONARY
360
147
102
}
102
{ACAD_REACTORS
330
145
102
}
330
145
100
AcDbMaterial
  1
ByLayer
 72
     0
 43
0.0008202099737533
 43
0.0
 43
0.0
 43
0.0
 43
0.0
 43
0.0008202099737533
 43
0.0
 43
0.0
 43
0.0
 43
0.0
 43
1.0
 43
0.0
 43
0.0
 43
0.0
 43
0.0
 43
1.0
 77
     0
 47
0.0008202099737533
 47
0.0
 47
0.0
 47
0.0
 47
0.0
 47
0.0008202099737533
 47
0.0
 47
0.0
 47
0.0
 47
0.0
 47
1.0
 47
0.0
 47
0.0
 47
0.0
 47
0.0
 47
1.0
171
     0
 49
0.0008202099737533
 49
0.0
 49
0.0
 49
0.0
 49
0.0
 49
0.0008202099737533
 49
0.0
 49
0.0
 49
0.0
 49
0.0
 49
1.0
 49
0.0
 49
0.0
 49
0.0
 49
0.0
 49
1.0
175
     0
142
0.0008202099737533
142
0.0
142
0.0
142
0.0
142
0.0
142
0.0008202099737533
142
0.0
142
0.0
142
0.0
142
0.0
142
1.0
142
0.0
142
0.0
142
0.0
142
0.0
142
1.0
179
     0
144
0.0008202099737533
144
0.0
144
0.0
144
0.0
144
0.0
144
0.0008202099737533
144
0.0
144
0.0
144
0.0
144
0.0
144
1.0
144
0.0
144
0.0
144
0.0
144
0.0
144
1.0
147
0.0008202099737533
147
0.0
147
0.0
147
0.0
147
0.0
147
0.0008202099737533
147
0.0
147
0.0
147
0.0
147
0.0
147
1.0
147
0.0
147
0.0
147
0.0
147
0.0
147
1.0
  0
MATERIAL
  5
156
102
{ACAD_XDICTIONARY
360
157
102
}
102
{ACAD_REACTORS
330
145
102
}
330
145
100
AcDbMaterial
  1
Global
 72
     0
 43
0.0008202099737533
 43
0.0
 43
0.0
 43
0.0
 43
0.0
 43
0.0008202099737533
 43
0.0
 43
0.0
 43
0.0
 43
0.0
 43
1.0
 43
0.0
 43
0.0
 43
0.0
 43
0.0
 43
1.0
 77
     0
 47
0.0008202099737533
 47
0.0
 47
0.0
 47
0.0
 47
0.0
 47
0.0008202099737533
 47
0.0
 47
0.0
 47
0.0
 47
0.0
 47
1.0
 47
0.0
 47
0.0
 47
0.0
 47
0.0
 47
1.0
171
     0
 49
0.0008202099737533
 49
0.0
 49
0.0
 49
0.0
 49
0.0
 49
0.0008202099737533
 49
0.0
 49
0.0
 49
0.0
 49
0.0
 49
1.0
 49
0.0
 49
0.0
 49
0.0
 49
0.0
 49
1.0
175
     0
142
0.0008202099737533
142
0.0
142
0.0
142
0.0
142
0.0
142
0.0008202099737533
142
0.0
142
0.0
142
0.0
142
0.0
142
1.0
142
0.0
142
0.0
142
0.0
142
0.0
142
1.0
179
     0
144
0.0008202099737533
144
0.0
144
0.0
144
0.0
144
0.0
144
0.0008202099737533
144
0.0
144
0.0
144
0.0
144
0.0
144
1.0
144
0.0
144
0.0
144
0.0
144
0.0
144
1.0
147
0.0008202099737533
147
0.0
147
0.0
147
0.0
147
0.0
147
0.0008202099737533
147
0.0
147
0.0
147
0.0
147
0.0
147
1.0
147
0.0
147
0.0
147
0.0
147
0.0
147
1.0
  0
MLEADERSTYLE
  5
17C
102
{ACAD_REACTORS
330
142
102
}
330
142
100
AcDbMLeaderStyle
179
     2
170
     2
171
     1
172
     0
 90
        2
 40
0.0
 41
0.0
173
     1
 91
-1056964608
340
14
 92
       -2
290
     1
 42
0.09
291
     1
 43
0.36
  3
Standard
 44
0.18
300

342
11
174
     1
178
     6
175
     1
176
     0
 93
-1056964608
 45
0.18
292
     0
297
     0
 46
0.18
 94
-1056964608
 47
1.0
 49
1.0
140
1.0
293
     1
141
0.0
294
     1
177
     0
142
1.0
295
     0
296
     0
143
0.125
271
     0
272
     9
273
     9
298
     0
  0
MLINESTYLE
  5
18
102
{ACAD_REACTORS
330
17
102
}
330
17
100
AcDbMlineStyle
  2
STANDARD
 70
     0
  3

 62
   256
 51
90.0
 52
90.0
 71
     2
 49
0.5
 62
   256
  6
BYLAYER
 49
-0.5
 62
   256
  6
BYLAYER
  0
ACDBPLACEHOLDER
  5
F
102
{ACAD_REACTORS
330
E
102
}
330
E
  0
SCALE
  5
16B
102
{ACAD_REACTORS
330
16A
102
}
330
16A
100
AcDbScale
 70
     0
300
1:1
140
1.0
141
1.0
290
     1
  0
SCALE
  5
16C
102
{ACAD_REACTORS
330
16A
102
}
330
16A
100
AcDbScale
 70
     0
300
1/128" = 1'-0"
140
0.0078125
141
12.0
290
     0
  0
SCALE
  5
16D
102
{ACAD_REACTORS
330
16A
102
}
330
16A
100
AcDbScale
 70
     0
300
1/64" = 1'-0"
140
0.015625
141
12.0
290
     0
  0
SCALE
  5
16E
102
{ACAD_REACTORS
330
16A
102
}
330
16A
100
AcDbScale
 70
     0
300
1/32" = 1'-0"
140
0.03125
141
12.0
290
     0
  0
SCALE
  5
16F
102
{ACAD_REACTORS
330
16A
102
}
330
16A
100
AcDbScale
 70
     0
300
1/16" = 1'-0"
140
0.0625
141
12.0
290
     0
  0
SCALE
  5
170
102
{ACAD_REACTORS
330
16A
102
}
330
16A
100
AcDbScale
 70
     0
300
3/32" = 1'-0"
140
0.09375
141
12.0
290
     0
  0
SCALE
  5
171
102
{ACAD_REACTORS
330
16A
102
}
330
16A
100
AcDbScale
 70
     0
300
1/8" = 1'-0"
140
0.125
141
12.0
290
     0
  0
SCALE
  5
172
102
{ACAD_REACTORS
330
16A
102
}
330
16A
100
AcDbScale
 70
     0
300
3/16" = 1'-0"
140
0.1875
141
12.0
290
     0
  0
SCALE
  5
173
102
{ACAD_REACTORS
330
16A
102
}
330
16A
100
AcDbScale
 70
     0
300
1/4" = 1'-0"
140
0.25
141
12.0
290
     0
  0
SCALE
  5
174
102
{ACAD_REACTORS
330
16A
102
}
330
16A
100
AcDbScale
 70
     0
300
3/8" = 1'-0"
140
0.375
141
12.0
290
     0
  0
SCALE
  5
175
102
{ACAD_REACTORS
330
16A
102
}
330
16A
100
AcDbScale
 70
     0
300
1/2" = 1'-0"
140
0.5
141
12.0
290
     0
  0
SCALE
  5
176
102
{ACAD_REACTORS
330
16A
102
}
330
16A
100
AcDbScale
 70
     0
300
3/4" = 1'-0"
140
0.75
141
12.0
290
     0
  0
SCALE
  5
177
102
{ACAD_REACTORS
330
16A
102
}
330
16A
100
AcDbScale
 70
     0
300
1" = 1'-0"
140
1.0
141
12.0
290
     0
  0
SCALE
  5
178
102
{ACAD_REACTORS
330
16A
102
}
330
16A
100
AcDbScale
 70
     0
300
1-1/2" = 1'-0"
140
1.5
141
12.0
290
     0
  0
SCALE
  5
179
102
{ACAD_REACTORS
330
16A
102
}
330
16A
100
AcDbScale
 70
     0
300
3" = 1'-0"
140
3.0
141
12.0
290
     0
  0
SCALE
  5
17A
102
{ACAD_REACTORS
330
16A
102
}
330
16A
100
AcDbScale
 70
     0
300
6" = 1'-0"
140
6.0
141
12.0
290
     0
  0
SCALE
  5
17B
102
{ACAD_REACTORS
330
16A
102
}
330
16A
100
AcDbScale
 70
     0
300
1'-0" = 1'-0"
140
12.0
141
12.0
290
     0
  0
ACDBSECTIONVIEWSTYLE
  5
17F
102
{ACAD_REACTORS
330
17D
102
}
330
17D
100
AcDbModelDocViewStyle
 70
     0
  3
Imperial24
290
     0
100
AcDbSectionViewStyle
 70
     0
 71
     0
 90
       78
 71
     1
340
11
 62
   256
 40
0.24
340
0
340
0
 62
   256
 40
0.24
300
I, O, Q, S, X, Z
 40
0.48
 90
        3
 40
0.18
 90
        1
 71
     2
340
17E
 90
       25
 62
   256
340
16
 90
       50
 62
   256
 40
0.24
 40
0.0
 40
0.24
 71
     3
340
11
 62
   256
 40
0.24
 90
        1
 40
0.75
 90
        1
300
%<\AcVar ViewType \f "%tc1">% %<\AcVar ViewSectionStartId>%-%<\AcVar ViewSectionEndId>%\PSCALE %<\AcVar ViewScale \f "%sn">%
 71
     4
 62
   256
 62
   257
300
ANSI31
 40
1.0
 90
        0
290
     0
290
     0
 90
        6
 40
0.0
 40
1.570796326794896
 40
0.2617993877991494
 40
1.308996938995747
 40
-0.2617993877991494
 40
1.832595714594045
  0
TABLESTYLE
  5
169
102
{ACAD_XDICTIONARY
360
667
102
}
102
{ACAD_REACTORS
330
141
102
}
330
141
100
AcDbTableStyle
280
     0
  3
Standard
 70
     0
 71
     0
 40
0.06
 41
0.06
280
     0
281
     0
  7
Standard
140
0.18
170
     2
 62
     0
 63
     7
283
     0
 90
      512
 91
        0
  1

274
    -2
284
     1
 64
     0
275
    -2
285
     1
 65
     0
276
    -2
286
     1
 66
     0
277
    -2
287
     1
 67
     0
278
    -2
288
     1
 68
     0
279
    -2
289
     1
 69
     0
  7
Standard
140
0.25
170
     5
 62
     0
 63
     7
283
     0
 90
      512
 91
        0
  1

274
    -2
284
     1
 64
     0
275
    -2
285
     1
 65
     0
276
    -2
286
     1
 66
     0
277
    -2
287
     1
 67
     0
278
    -2
288
     1
 68
     0
279
    -2
289
     1
 69
     0
  7
Standard
140
0.18
170
     5
 62
     0
 63
     7
283
     0
 90
      512
 91
        0
  1

274
    -2
284
     1
 64
     0
275
    -2
285
     1
 65
     0
276
    -2
286
     1
 66
     0
277
    -2
287
     1
 67
     0
278
    -2
288
     1
 68
     0
279
    -2
289
     1
 69
     0
  0
VISUALSTYLE
  5
2F
102
{ACAD_REACTORS
330
2A
102
}
330
2A
100
AcDbVisualStyle
  2

 70
     4
177
     3
291
     0
 70
    58
 90
        0
176
     1
 90
        2
176
     1
 90
        0
176
     1
 90
        0
176
     1
 40
0.6
176
     1
 40
30.0
176
     1
 62
     7
420
 16777215
176
     1
 90
        1
176
     1
 90
        4
176
     1
 62
     7
176
     1
 62
   257
176
     1
 90
        1
176
     1
 90
        1
176
     1
 40
1.0
176
     1
 90
        0
176
     1
 62
   257
176
     1
 40
1.0
176
     1
 90
        1
176
     1
 90
        6
176
     1
 90
        2
176
     1
 62
     7
176
     1
 90
        5
176
     1
 90
        0
176
     1
 90
        0
176
     1
290
     0
176
     1
 90
        1
176
     1
 40
0.0
176
     1
 90
        0
176
     1
290
     1
176
     1
290
     1
176
     1
290
     0
176
     1
290
     0
176
     1
290
     0
176
     1
290
     0
176
     1
290
     0
176
     1
290
     0
176
     1
290
     0
176
     1
 90
       50
176
     1
 40
0.0
176
     1
 40
1.0
176
     1
 90
        0
176
     1
 62
    18
176
     1
 90
       50
176
     1
 90
        3
176
     1
 62
     5
420
      255
176
     1
290
     0
176
     1
 90
       50
176
     1
 90
       50
176
     1
 90
       50
176
     1
290
     0
176
     1
 90
       50
176
     1
 62
   256
176
     0
 40
1.0
176
     0
 90
        2
176
     1
  1
strokes_ogs.tif
176
     1
290
     0
176
     1
 40
1.0
176
     1
 40
1.0
176
     1
  0
VISUALSTYLE
  5
31
102
{ACAD_REACTORS
330
2A
102
}
330
2A
100
AcDbVisualStyle
  2

 70
     6
177
     3
291
     0
 70
    58
 90
        1
176
     1
 90
        2
176
     1
 90
        2
176
     1
 90
        0
176
     1
 40
0.6
176
     1
 40
30.0
176
     1
 62
     7
420
 16777215
176
     1
 90
        2
176
     1
 90
        2
176
     1
 62
     7
176
     1
 62
   257
176
     1
 90
        2
176
     1
 90
        1
176
     1
 40
40.0
176
     1
 90
        0
176
     1
 62
   257
176
     1
 40
1.0
176
     1
 90
        1
176
     1
 90
        6
176
     1
 90
        2
176
     1
 62
     7
176
     1
 90
        3
176
     1
 90
        0
176
     1
 90
        0
176
     1
290
     0
176
     1
 90
        1
176
     1
 40
0.0
176
     1
 90
        0
176
     1
290
     0
176
     1
290
     1
176
     1
290
     1
176
     1
290
     0
176
     1
290
     0
176
     1
290
     0
176
     1
290
     0
176
     1
290
     0
176
     1
290
     0
176
     1
 90
       50
176
     1
 40
0.0
176
     1
 40
1.0
176
     1
 90
        0
176
     1
 62
    18
176
     1
 90
       50
176
     1
 90
        3
176
     1
 62
     5
420
      255
176
     1
290
     0
176
     1
 90
       50
176
     1
 90
       50
176
     1
 90
       50
176
     1
290
     0
176
     1
 90
       50
176
     1
 62
   256
176
     0
 40
1.0
176
     0
 90
        2
176
     1
  1
strokes_ogs.tif
176
     1
290
     0
176
     1
 40
1.0
176
     1
 40
1.0
176
     1
  0
VISUALSTYLE
  5
30
102
{ACAD_REACTORS
330
2A
102
}
330
2A
100
AcDbVisualStyle
  2

 70
     5
177
     3
291
     0
 70
    58
 90
        0
176
     1
 90
        2
176
     1
 90
        0
176
     1
 90
        0
176
     1
 40
0.6
176
     1
 40
30.0
176
     1
 62
     7
420
 16777215
176
     1
 90
        1
176
     1
 90
        4
176
     1
 62
     7
176
     1
 62
   257
176
     1
 90
        1
176
     1
 90
        1
176
     1
 40
1.0
176
     1
 90
        0
176
     1
 62
   257
176
     1
 40
1.0
176
     1
 90
        1
176
     1
 90
        6
176
     1
 90
        2
176
     1
 62
     7
176
     1
 90
        5
176
     1
 90
        0
176
     1
 90
        0
176
     1
290
     0
176
     1
 90
        1
176
     1
 40
0.0
176
     1
 90
        0
176
     1
290
     0
176
     1
290
     1
176
     1
290
     1
176
     1
290
     0
176
     1
290
     0
176
     1
290
     0
176
     1
290
     0
176
     1
290
     0
176
     1
290
     0
176
     1
 90
       50
176
     1
 40
0.0
176
     1
 40
1.0
176
     1
 90
        0
176
     1
 62
    18
176
     1
 90
       50
176
     1
 90
        3
176
     1
 62
     5
420
      255
176
     1
290
     0
176
     1
 90
       50
176
     1
 90
       50
176
     1
 90
       50
176
     1
290
     0
176
     1
 90
       50
176
     1
 62
   256
176
     0
 40
1.0
176
     0
 90
        2
176
     1
  1
strokes_ogs.tif
176
     1
290
     0
176
     1
 40
1.0
176
     1
 40
1.0
176
     1
  0
VISUALSTYLE
  5
32
102
{ACAD_REACTORS
330
2A
102
}
330
2A
100
AcDbVisualStyle
  2

 70
     7
177
     3
291
     1
 70
    58
 90
        1
176
     1
 90
        0
176
     1
 90
        1
176
     1
 90
        0
176
     1
 40
0.6
176
     1
 40
30.0
176
     1
 62
     7
420
 16777215
176
     1
 90
        0
176
     1
 90
        4
176
     1
 62
     7
176
     1
 62
   257
176
     1
 90
        1
176
     1
 90
        1
176
     1
 40
1.0
176
     1
 90
        8
176
     1
 62
     7
176
     1
 40
1.0
176
     1
 90
        1
176
     1
 90
        6
176
     1
 90
        2
176
     1
 62
     7
176
     1
 90
        5
176
     1
 90
        0
176
     1
 90
        0
176
     1
290
     0
176
     1
 90
        1
176
     1
 40
0.0
176
     1
 90
        0
176
     1
290
     0
176
     1
290
     1
176
     1
290
     1
176
     1
290
     0
176
     1
290
     0
176
     1
290
     0
176
     1
290
     0
176
     1
290
     0
176
     1
290
     0
176
     1
 90
       50
176
     1
 40
0.0
176
     1
 40
1.0
176
     1
 90
        0
176
     1
 62
    18
176
     1
 90
       50
176
     1
 90
        3
176
     1
 62
     5
420
      255
176
     1
290
     0
176
     1
 90
       50
176
     1
 90
       50
176
     1
 90
       50
176
     1
290
     0
176
     1
 90
       50
176
     1
 62
   256
176
     0
 40
1.0
176
     0
 90
        2
176
     1
  1
strokes_ogs.tif
176
     1
290
     0
176
     1
 40
1.0
176
     1
 40
1.0
176
     1
  0
VISUALSTYLE
  5
36
102
{ACAD_REACTORS
330
2A
102
}
330
2A
100
AcDbVisualStyle
  2

 70
    12
177
     3
291
     1
 70
    58
 90
        2
176
     1
 90
        2
176
     1
 90
        0
176
     1
 90
        0
176
     1
 40
0.6
176
     1
 40
30.0
176
     1
 62
     7
420
 16777215
176
     1
 90
        1
176
     1
 90
        4
176
     1
 62
     7
176
     1
 62
   257
176
     1
 90
        1
176
     1
 90
        1
176
     1
 40
1.0
176
     1
 90
        8
176
     1
 62
     7
176
     1
 40
1.0
176
     1
 90
        1
176
     1
 90
        6
176
     1
 90
        2
176
     1
 62
     7
176
     1
 90
        5
176
     1
 90
        0
176
     1
 90
        0
176
     1
290
     0
176
     1
 90
        1
176
     1
 40
50.0
176
     1
 90
        0
176
     1
290
     0
176
     1
290
     1
176
     1
290
     1
176
     1
290
     0
176
     1
290
     0
176
     1
290
     0
176
     1
290
     0
176
     1
290
     0
176
     1
290
     0
176
     1
 90
       50
176
     1
 40
0.0
176
     1
 40
1.0
176
     1
 90
        0
176
     1
 62
    18
176
     1
 90
       50
176
     1
 90
        3
176
     1
 62
     5
420
      255
176
     1
290
     0
176
     1
 90
       50
176
     1
 90
       50
176
     1
 90
       50
176
     1
290
     0
176
     1
 90
       50
176
     1
 62
   256
176
     0
 40
1.0
176
     0
 90
        2
176
     1
  1
strokes_ogs.tif
176
     1
290
     0
176
     1
 40
1.0
176
     1
 40
1.0
176
     1
  0
VISUALSTYLE
  5
3A
102
{ACAD_REACTORS
330
2A
102
}
330
2A
100
AcDbVisualStyle
  2

 70
    16
177
     3
291
     1
 70
    58
 90
        2
176
     1
 90
        2
176
     1
 90
        3
176
     1
 90
        0
176
     1
 40
0.6
176
     1
 40
30.0
176
     1
 62
     8
420
  8421504
176
     1
 90
        1
176
     1
 90
        4
176
     1
 62
     7
176
     1
 62
   257
176
     1
 90
        1
176
     1
 90
        1
176
     1
 40
1.0
176
     1
 90
        8
176
     1
 62
     8
420
  8421504
176
     1
 40
1.0
176
     1
 90
        1
176
     1
 90
        6
176
     1
 90
        2
176
     1
 62
     7
176
     1
 90
        5
176
     1
 90
        0
176
     1
 90
        0
176
     1
290
     0
176
     1
 90
        1
176
     1
 40
0.0
176
     1
 90
        0
176
     1
290
     0
176
     1
290
     1
176
     1
290
     1
176
     1
290
     0
176
     1
290
     0
176
     1
290
     0
176
     1
290
     0
176
     1
290
     0
176
     1
290
     0
176
     1
 90
       50
176
     1
 40
0.0
176
     1
 40
1.0
176
     1
 90
        0
176
     1
 62
    18
176
     1
 90
       50
176
     1
 90
        3
176
     1
 62
     5
420
      255
176
     1
290
     0
176
     1
 90
       50
176
     1
 90
       50
176
     1
 90
       50
176
     1
290
     0
176
     1
 90
       50
176
     1
 62
   256
176
     0
 40
1.0
176
     0
 90
        2
176
     1
  1
strokes_ogs.tif
176
     1
290
     0
176
     1
 40
1.0
176
     1
 40
1.0
176
     1
  0
VISUALSTYLE
  5
34
102
{ACAD_REACTORS
330
2A
102
}
330
2A
100
AcDbVisualStyle
  2

 70
     9
177
     3
291
     0
 70
    58
 90
        3
176
     1
 90
        2
176
     1
 90
        0
176
     1
 90
        0
176
     1
 40
0.6
176
     1
 40
30.0
176
     1
 62
     7
420
 16777215
176
     1
 90
        2
176
     1
 90
        2
176
     1
 62
     7
176
     1
 62
   257
176
     1
 90
        1
176
     1
 90
        1
176
     1
 40
40.0
176
     1
 90
        8
176
     1
 62
     7
176
     1
 40
1.0
176
     1
 90
        1
176
     1
 90
        6
176
     1
 90
        2
176
     1
 62
     7
176
     1
 90
        3
176
     1
 90
        0
176
     1
 90
        0
176
     1
290
     0
176
     1
 90
        1
176
     1
 40
0.0
176
     1
 90
        0
176
     1
290
     0
176
     1
290
     1
176
     1
290
     1
176
     1
290
     0
176
     1
290
     0
176
     1
290
     0
176
     1
290
     0
176
     1
290
     0
176
     1
290
     0
176
     1
 90
       50
176
     1
 40
0.0
176
     1
 40
1.0
176
     1
 90
        0
176
     1
 62
    18
176
     1
 90
       50
176
     1
 90
        3
176
     1
 62
     5
420
      255
176
     1
290
     0
176
     1
 90
       50
176
     1
 90
       50
176
     1
 90
       50
176
     1
290
     0
176
     1
 90
       50
176
     1
 62
   256
176
     0
 40
1.0
176
     0
 90
        2
176
     1
  1
strokes_ogs.tif
176
     1
290
     0
176
     1
 40
1.0
176
     1
 40
1.0
176
     1
  0
VISUALSTYLE
  5
35
102
{ACAD_REACTORS
330
2A
102
}
330
2A
100
AcDbVisualStyle
  2

 70
    11
177
     3
291
     1
 70
    58
 90
        2
176
     1
 90
        2
176
     1
 90
        0
176
     1
 90
        0
176
     1
 40
0.6
176
     1
 40
30.0
176
     1
 62
     7
420
 16777215
176
     1
 90
        1
176
     1
 90
        4
176
     1
 62
     7
176
     1
 62
   257
176
     1
 90
        1
176
     1
 90
        1
176
     1
 40
1.0
176
     1
 90
        8
176
     1
 62
     7
176
     1
 40
1.0
176
     1
 90
        1
176
     1
 90
        6
176
     1
 90
        2
176
     1
 62
     7
176
     1
 90
        5
176
     1
 90
        0
176
     1
 90
        0
176
     1
290
     0
176
     1
 90
        1
176
     1
 40
-50.0
176
     1
 90
        0
176
     1
290
     0
176
     1
290
     1
176
     1
290
     1
176
     1
290
     0
176
     1
290
     0
176
     1
290
     0
176
     1
290
     0
176
     1
290
     0
176
     1
290
     0
176
     1
 90
       50
176
     1
 40
0.0
176
     1
 40
1.0
176
     1
 90
        0
176
     1
 62
    18
176
     1
 90
       50
176
     1
 90
        3
176
     1
 62
     5
420
      255
176
     1
290
     0
176
     1
 90
       50
176
     1
 90
       50
176
     1
 90
       50
176
     1
290
     0
176
     1
 90
       50
176
     1
 62
   256
176
     0
 40
1.0
176
     0
 90
        2
176
     1
  1
strokes_ogs.tif
176
     1
290
     0
176
     1
 40
1.0
176
     1
 40
1.0
176
     1
  0
VISUALSTYLE
  5
167
102
{ACAD_REACTORS
330
2A
102
}
330
2A
100
AcDbVisualStyle
  2
EdgeColorOff
 70
    22
177
     3
291
     1
 70
    58
 90
        2
176
     0
 90
        2
176
     0
 90
        0
176
     0
 90
        0
176
     0
 40
0.6
176
     0
 40
30.0
176
     0
 62
     7
420
 16777215
176
     0
 90
        1
176
     0
 90
        4
176
     0
 62
     7
176
     0
 62
   257
176
     0
 90
        1
176
     0
 90
        1
176
     0
 40
1.0
176
     0
 90
        8
176
     2
 62
     7
176
     0
 40
1.0
176
     0
 90
        1
176
     0
 90
        6
176
     0
 90
        2
176
     0
 62
     7
176
     0
 90
        5
176
     0
 90
        0
176
     0
 90
        0
176
     0
290
     0
176
     0
 90
        1
176
     0
 40
0.0
176
     0
 90
        0
176
     0
290
     0
176
     1
290
     1
176
     1
290
     1
176
     1
290
     0
176
     1
290
     0
176
     1
290
     0
176
     1
290
     0
176
     1
290
     0
176
     1
290
     0
176
     1
 90
       50
176
     0
 40
0.0
176
     0
 40
1.0
176
     0
 90
        0
176
     0
 62
    18
176
     0
 90
       50
176
     0
 90
        3
176
     0
 62
     5
420
      255
176
     0
290
     0
176
     1
 90
       50
176
     0
 90
       50
176
     0
 90
       50
176
     0
290
     0
176
     1
 90
       50
176
     0
 62
   256
176
     0
 40
1.0
176
     0
 90
        2
176
     0
  1
strokes_ogs.tif
176
     0
290
     0
176
     1
 40
1.0
176
     0
 40
1.0
176
     0
  0
VISUALSTYLE
  5
39
102
{ACAD_REACTORS
330
2A
102
}
330
2A
100
AcDbVisualStyle
  2

 70
    15
177
     3
291
     1
 70
    58
 90
        2
176
     1
 90
        2
176
     1
 90
        0
176
     1
 90
        0
176
     1
 40
0.6
176
     1
 40
30.0
176
     1
 62
     7
420
 16777215
176
     1
 90
        1
176
     1
 90
        4
176
     1
 62
     7
176
     1
 62
   257
176
     1
 90
        1
176
     1
 90
        1
176
     1
 40
1.0
176
     1
 90
        8
176
     1
 62
     7
176
     1
 40
1.0
176
     1
 90
        1
176
     1
 90
        6
176
     1
 90
        2
176
     1
 62
     7
176
     1
 90
        5
176
     1
 90
        0
176
     1
 90
        0
176
     1
290
     0
176
     1
 90
        1
176
     1
 40
0.0
176
     1
 90
        0
176
     1
290
     0
176
     1
290
     1
176
     1
290
     1
176
     1
290
     0
176
     1
290
     0
176
     1
290
     0
176
     1
290
     0
176
     1
290
     0
176
     1
290
     0
176
     1
 90
       50
176
     1
 40
0.0
176
     1
 40
1.0
176
     1
 90
        0
176
     1
 62
    18
176
     1
 90
       50
176
     1
 90
        3
176
     1
 62
     5
420
      255
176
     1
290
     0
176
     1
 90
       50
176
     1
 90
       50
176
     1
 90
       50
176
     1
290
     0
176
     1
 90
       50
176
     1
 62
   256
176
     0
 40
1.0
176
     0
 90
        2
176
     1
  1
strokes_ogs.tif
176
     1
290
     0
176
     1
 40
1.0
176
     1
 40
1.0
176
     1
  0
VISUALSTYLE
  5
2B
102
{ACAD_REACTORS
330
2A
102
}
330
2A
100
AcDbVisualStyle
  2

 70
     0
177
     3
291
     1
 70
    58
 90
        2
176
     1
 90
        1
176
     1
 90
        1
176
     1
 90
        2
176
     1
 40
0.6
176
     1
 40
30.0
176
     1
 62
     7
420
 16777215
176
     1
 90
        0
176
     1
 90
        4
176
     1
 62
     7
176
     1
 62
   257
176
     1
 90
        1
176
     1
 90
        1
176
     1
 40
1.0
176
     1
 90
        8
176
     1
 62
     7
176
     1
 40
1.0
176
     1
 90
        1
176
     1
 90
        6
176
     1
 90
        2
176
     1
 62
     7
176
     1
 90
        5
176
     1
 90
        0
176
     1
 90
        0
176
     1
290
     0
176
     1
 90
       13
176
     1
 40
0.0
176
     1
 90
        0
176
     1
290
     0
176
     1
290
     1
176
     1
290
     1
176
     1
290
     0
176
     1
290
     0
176
     1
290
     0
176
     1
290
     0
176
     1
290
     0
176
     1
290
     0
176
     1
 90
       50
176
     1
 40
0.0
176
     1
 40
1.0
176
     1
 90
        0
176
     1
 62
    18
176
     1
 90
       50
176
     1
 90
        3
176
     1
 62
     5
420
      255
176
     1
290
     0
176
     1
 90
       50
176
     1
 90
       50
176
     1
 90
       50
176
     1
290
     0
176
     1
 90
       50
176
     1
 62
   256
176
     0
 40
1.0
176
     0
 90
        2
176
     1
  1
strokes_ogs.tif
176
     1
290
     0
176
     1
 40
1.0
176
     1
 40
1.0
176
     1
  0
VISUALSTYLE
  5
2C
102
{ACAD_REACTORS
330
2A
102
}
330
2A
100
AcDbVisualStyle
  2

 70
     1
177
     3
291
     1
 70
    58
 90
        2
176
     1
 90
        1
176
     1
 90
        1
176
     1
 90
        2
176
     1
 40
0.6
176
     1
 40
30.0
176
     1
 62
     7
420
 16777215
176
     1
 90
        1
176
     1
 90
        4
176
     1
 62
     7
176
     1
 62
   257
176
     1
 90
        1
176
     1
 90
        1
176
     1
 40
1.0
176
     1
 90
        0
176
     1
 62
   257
176
     1
 40
1.0
176
     1
 90
        1
176
     1
 90
        6
176
     1
 90
        2
176
     1
 62
     7
176
     1
 90
        5
176
     1
 90
        0
176
     1
 90
        0
176
     1
290
     0
176
     1
 90
       13
176
     1
 40
0.0
176
     1
 90
        0
176
     1
290
     0
176
     1
290
     1
176
     1
290
     1
176
     1
290
     0
176
     1
290
     0
176
     1
290
     0
176
     1
290
     0
176
     1
290
     0
176
     1
290
     0
176
     1
 90
       50
176
     1
 40
0.0
176
     1
 40
1.0
176
     1
 90
        0
176
     1
 62
    18
176
     1
 90
       50
176
     1
 90
        3
176
     1
 62
     5
420
      255
176
     1
290
     0
176
     1
 90
       50
176
     1
 90
       50
176
     1
 90
       50
176
     1
290
     0
176
     1
 90
       50
176
     1
 62
   256
176
     0
 40
1.0
176
     0
 90
        2
176
     1
  1
strokes_ogs.tif
176
     1
290
     0
176
     1
 40
1.0
176
     1
 40
1.0
176
     1
  0
VISUALSTYLE
  5
2D
102
{ACAD_REACTORS
330
2A
102
}
330
2A
100
AcDbVisualStyle
  2

 70
     2
177
     3
291
     1
 70
    58
 90
        2
176
     1
 90
        2
176
     1
 90
        1
176
     1
 90
        2
176
     1
 40
0.6
176
     1
 40
30.0
176
     1
 62
     7
420
 16777215
176
     1
 90
        0
176
     1
 90
        4
176
     1
 62
     7
176
     1
 62
   257
176
     1
 90
        1
176
     1
 90
        1
176
     1
 40
1.0
176
     1
 90
        0
176
     1
 62
     7
176
     1
 40
1.0
176
     1
 90
        1
176
     1
 90
        6
176
     1
 90
        2
176
     1
 62
     7
176
     1
 90
        5
176
     1
 90
        0
176
     1
 90
        0
176
     1
290
     0
176
     1
 90
       13
176
     1
 40
0.0
176
     1
 90
        0
176
     1
290
     0
176
     1
290
     1
176
     1
290
     1
176
     1
290
     0
176
     1
290
     0
176
     1
290
     0
176
     1
290
     0
176
     1
290
     0
176
     1
290
     0
176
     1
 90
       50
176
     1
 40
0.0
176
     1
 40
1.0
176
     1
 90
        0
176
     1
 62
    18
176
     1
 90
       50
176
     1
 90
        3
176
     1
 62
     5
420
      255
176
     1
290
     0
176
     1
 90
       50
176
     1
 90
       50
176
     1
 90
       50
176
     1
290
     0
176
     1
 90
       50
176
     1
 62
   256
176
     0
 40
1.0
176
     0
 90
        2
176
     1
  1
strokes_ogs.tif
176
     1
290
     0
176
     1
 40
1.0
176
     1
 40
1.0
176
     1
  0
VISUALSTYLE
  5
2E
102
{ACAD_REACTORS
330
2A
102
}
330
2A
100
AcDbVisualStyle
  2

 70
     3
177
     3
291
     1
 70
    58
 90
        2
176
     1
 90
        2
176
     1
 90
        1
176
     1
 90
        2
176
     1
 40
0.6
176
     1
 40
30.0
176
     1
 62
     7
420
 16777215
176
     1
 90
        1
176
     1
 90
        4
176
     1
 62
     7
176
     1
 62
   257
176
     1
 90
        1
176
     1
 90
        1
176
     1
 40
1.0
176
     1
 90
        0
176
     1
 62
   257
176
     1
 40
1.0
176
     1
 90
        1
176
     1
 90
        6
176
     1
 90
        2
176
     1
 62
     7
176
     1
 90
        5
176
     1
 90
        0
176
     1
 90
        0
176
     1
290
     0
176
     1
 90
       13
176
     1
 40
0.0
176
     1
 90
        0
176
     1
290
     0
176
     1
290
     1
176
     1
290
     1
176
     1
290
     0
176
     1
290
     0
176
     1
290
     0
176
     1
290
     0
176
     1
290
     0
176
     1
290
     0
176
     1
 90
       50
176
     1
 40
0.0
176
     1
 40
1.0
176
     1
 90
        0
176
     1
 62
    18
176
     1
 90
       50
176
     1
 90
        3
176
     1
 62
     5
420
      255
176
     1
290
     0
176
     1
 90
       50
176
     1
 90
       50
176
     1
 90
       50
176
     1
290
     0
176
     1
 90
       50
176
     1
 62
   256
176
     0
 40
1.0
176
     0
 90
        2
176
     1
  1
strokes_ogs.tif
176
     1
290
     0
176
     1
 40
1.0
176
     1
 40
1.0
176
     1
  0
VISUALSTYLE
  5
15F
102
{ACAD_REACTORS
330
2A
102
}
330
2A
100
AcDbVisualStyle
  2
Hidden
 70
     6
177
     3
291
     0
 70
    58
 90
        1
176
     1
 90
        2
176
     1
 90
        2
176
     1
 90
        0
176
     1
 40
0.6
176
     1
 40
30.0
176
     1
 62
     7
420
 16777215
176
     1
 90
        2
176
     1
 90
        2
176
     1
 62
     7
176
     1
 62
   257
176
     1
 90
        2
176
     1
 90
        1
176
     1
 40
40.0
176
     1
 90
        0
176
     1
 62
   257
176
     1
 40
1.0
176
     1
 90
        1
176
     1
 90
        6
176
     1
 90
        2
176
     1
 62
     7
176
     1
 90
        3
176
     1
 90
        0
176
     1
 90
        0
176
     1
290
     0
176
     1
 90
        1
176
     1
 40
0.0
176
     1
 90
        0
176
     1
290
     0
176
     1
290
     1
176
     1
290
     1
176
     1
290
     0
176
     1
290
     0
176
     1
290
     0
176
     1
290
     0
176
     1
290
     0
176
     1
290
     0
176
     1
 90
       50
176
     1
 40
0.0
176
     1
 40
1.0
176
     1
 90
        0
176
     1
 62
    18
176
     1
 90
       50
176
     1
 90
        3
176
     1
 62
     5
420
      255
176
     1
290
     0
176
     1
 90
       50
176
     1
 90
       50
176
     1
 90
       50
176
     1
290
     0
176
     1
 90
       50
176
     1
 62
   256
176
     0
 40
1.0
176
     0
 90
        2
176
     1
  1
strokes_ogs.tif
176
     1
290
     0
176
     1
 40
1.0
176
     1
 40
1.0
176
     1
  0
VISUALSTYLE
  5
165
102
{ACAD_REACTORS
330
2A
102
}
330
2A
100
AcDbVisualStyle
  2
JitterOff
 70
    20
177
     3
291
     1
 70
    58
 90
        2
176
     0
 90
        2
176
     0
 90
        0
176
     0
 90
        0
176
     0
 40
0.6
176
     0
 40
30.0
176
     0
 62
     7
420
 16777215
176
     0
 90
        1
176
     0
 90
        4
176
     0
 62
     7
176
     0
 62
   257
176
     0
 90
        1
176
     0
 90
        1
176
     0
 40
1.0
176
     0
 90
       10
176
     2
 62
     7
176
     0
 40
1.0
176
     0
 90
        1
176
     0
 90
        6
176
     0
 90
        2
176
     0
 62
     7
176
     0
 90
        5
176
     0
 90
        0
176
     0
 90
        0
176
     0
290
     0
176
     0
 90
        1
176
     0
 40
0.0
176
     0
 90
        0
176
     0
290
     0
176
     1
290
     1
176
     1
290
     1
176
     1
290
     0
176
     1
290
     0
176
     1
290
     0
176
     1
290
     0
176
     1
290
     0
176
     1
290
     0
176
     1
 90
       50
176
     0
 40
0.0
176
     0
 40
1.0
176
     0
 90
        0
176
     0
 62
    18
176
     0
 90
       50
176
     0
 90
        3
176
     0
 62
     5
420
      255
176
     0
290
     0
176
     1
 90
       50
176
     0
 90
       50
176
     0
 90
       50
176
     0
290
     0
176
     1
 90
       50
176
     0
 62
   256
176
     0
 40
1.0
176
     0
 90
        2
176
     0
  1
strokes_ogs.tif
176
     0
290
     0
176
     1
 40
1.0
176
     0
 40
1.0
176
     0
  0
VISUALSTYLE
  5
38
102
{ACAD_REACTORS
330
2A
102
}
330
2A
100
AcDbVisualStyle
  2

 70
    14
177
     3
291
     1
 70
    58
 90
        2
176
     1
 90
        2
176
     1
 90
        0
176
     1
 90
        0
176
     1
 40
0.6
176
     1
 40
30.0
176
     1
 62
     7
420
 16777215
176
     1
 90
        1
176
     1
 90
        4
176
     1
 62
     7
176
     1
 62
   257
176
     1
 90
        7
176
     1
 90
        7
176
     1
 40
1.0
176
     1
 90
        8
176
     1
 62
     7
176
     1
 40
1.0
176
     1
 90
        1
176
     1
 90
        6
176
     1
 90
        2
176
     1
 62
     7
176
     1
 90
        5
176
     1
 90
        0
176
     1
 90
        0
176
     1
290
     0
176
     1
 90
        1
176
     1
 40
0.0
176
     1
 90
        0
176
     1
290
     0
176
     1
290
     1
176
     1
290
     1
176
     1
290
     0
176
     1
290
     0
176
     1
290
     0
176
     1
290
     0
176
     1
290
     0
176
     1
290
     0
176
     1
 90
       50
176
     1
 40
0.0
176
     1
 40
1.0
176
     1
 90
        0
176
     1
 62
    18
176
     1
 90
       50
176
     1
 90
        3
176
     1
 62
     5
420
      255
176
     1
290
     0
176
     1
 90
       50
176
     1
 90
       50
176
     1
 90
       50
176
     1
290
     0
176
     1
 90
       50
176
     1
 62
   256
176
     0
 40
1.0
176
     0
 90
        2
176
     1
  1
strokes_ogs.tif
176
     1
290
     0
176
     1
 40
1.0
176
     1
 40
1.0
176
     1
  0
VISUALSTYLE
  5
166
102
{ACAD_REACTORS
330
2A
102
}
330
2A
100
AcDbVisualStyle
  2
OverhangOff
 70
    21
177
     3
291
     1
 70
    58
 90
        2
176
     0
 90
        2
176
     0
 90
        0
176
     0
 90
        0
176
     0
 40
0.6
176
     0
 40
30.0
176
     0
 62
     7
420
 16777215
176
     0
 90
        1
176
     0
 90
        4
176
     0
 62
     7
176
     0
 62
   257
176
     0
 90
        1
176
     0
 90
        1
176
     0
 40
1.0
176
     0
 90
        9
176
     2
 62
     7
176
     0
 40
1.0
176
     0
 90
        1
176
     0
 90
        6
176
     0
 90
        2
176
     0
 62
     7
176
     0
 90
        5
176
     0
 90
        0
176
     0
 90
        0
176
     0
290
     0
176
     0
 90
        1
176
     0
 40
0.0
176
     0
 90
        0
176
     0
290
     0
176
     1
290
     1
176
     1
290
     1
176
     1
290
     0
176
     1
290
     0
176
     1
290
     0
176
     1
290
     0
176
     1
290
     0
176
     1
290
     0
176
     1
 90
       50
176
     0
 40
0.0
176
     0
 40
1.0
176
     0
 90
        0
176
     0
 62
    18
176
     0
 90
       50
176
     0
 90
        3
176
     0
 62
     5
420
      255
176
     0
290
     0
176
     1
 90
       50
176
     0
 90
       50
176
     0
 90
       50
176
     0
290
     0
176
     1
 90
       50
176
     0
 62
   256
176
     0
 40
1.0
176
     0
 90
        2
176
     0
  1
strokes_ogs.tif
176
     0
290
     0
176
     1
 40
1.0
176
     0
 40
1.0
176
     0
  0
VISUALSTYLE
  5
33
102
{ACAD_REACTORS
330
2A
102
}
330
2A
100
AcDbVisualStyle
  2

 70
     8
177
     3
291
     0
 70
    58
 90
        2
176
     1
 90
        2
176
     1
 90
        0
176
     1
 90
        0
176
     1
 40
0.6
176
     1
 40
30.0
176
     1
 62
     7
420
 16777215
176
     1
 90
        1
176
     1
 90
        0
176
     1
 62
     7
176
     1
 62
   257
176
     1
 90
        1
176
     1
 90
        1
176
     1
 40
1.0
176
     1
 90
        8
176
     1
 62
     8
420
  7895160
176
     1
 40
1.0
176
     1
 90
        1
176
     1
 90
        6
176
     1
 90
        2
176
     1
 62
     7
176
     1
 90
        5
176
     1
 90
        0
176
     1
 90
        0
176
     1
290
     0
176
     1
 90
       13
176
     1
 40
0.0
176
     1
 90
        0
176
     1
290
     0
176
     1
290
     1
176
     1
290
     1
176
     1
290
     0
176
     1
290
     0
176
     1
290
     0
176
     1
290
     0
176
     1
290
     0
176
     1
290
     0
176
     1
 90
       50
176
     1
 40
0.0
176
     1
 40
1.0
176
     1
 90
        0
176
     1
 62
    18
176
     1
 90
       50
176
     1
 90
        3
176
     1
 62
     5
420
      255
176
     1
290
     0
176
     1
 90
       50
176
     1
 90
       50
176
     1
 90
       50
176
     1
290
     0
176
     1
 90
       50
176
     1
 62
   256
176
     0
 40
1.0
176
     0
 90
        2
176
     1
  1
strokes_ogs.tif
176
     1
290
     0
176
     1
 40
1.0
176
     1
 40
1.0
176
     1
  0
VISUALSTYLE
  5
164
102
{ACAD_REACTORS
330
2A
102
}
330
2A
100
AcDbVisualStyle
  2
Shaded
 70
    27
177
     3
291
     0
 70
    58
 90
        2
176
     1
 90
        2
176
     1
 90
        1
176
     1
 90
        2
176
     1
 40
0.6
176
     1
 40
30.0
176
     1
 62
     7
420
 16777215
176
     1
 90
        0
176
     1
 90
        4
176
     1
 62
     7
176
     1
 62
   257
176
     1
 90
        1
176
     1
 90
        1
176
     1
 40
1.0
176
     1
 90
        8
176
     1
 62
   257
176
     1
 40
1.0
176
     1
 90
        1
176
     1
 90
        6
176
     1
 90
        2
176
     1
 62
     8
420
  7895160
176
     1
 90
        3
176
     1
 90
        0
176
     1
 90
        0
176
     1
290
     0
176
     1
 90
        5
176
     1
 40
0.0
176
     1
 90
        0
176
     1
290
     0
176
     1
290
     1
176
     1
290
     1
176
     1
290
     0
176
     1
290
     0
176
     1
290
     0
176
     1
290
     0
176
     1
290
     0
176
     1
290
     0
176
     1
 90
       50
176
     1
 40
0.0
176
     1
 40
1.0
176
     1
 90
        0
176
     1
 62
    18
176
     1
 90
       50
176
     1
 90
        3
176
     1
 62
     5
420
      255
176
     1
290
     0
176
     1
 90
       50
176
     1
 90
       50
176
     1
 90
       50
176
     1
290
     0
176
     1
 90
       50
176
     1
 62
   256
176
     0
 40
1.0
176
     0
 90
        2
176
     1
  1
strokes_ogs.tif
176
     1
290
     0
176
     1
 40
1.0
176
     1
 40
1.0
176
     1
  0
VISUALSTYLE
  5
163
102
{ACAD_REACTORS
330
2A
102
}
330
2A
100
AcDbVisualStyle
  2
Shaded with edges
 70
    26
177
     3
291
     0
 70
    58
 90
        2
176
     1
 90
        2
176
     1
 90
        1
176
     1
 90
        2
176
     1
 40
0.6
176
     1
 40
30.0
176
     1
 62
     7
420
 16777215
176
     1
 90
        1
176
     1
 90
       10
176
     1
 62
     7
176
     1
 62
   257
176
     1
 90
        2
176
     1
 90
        1
176
     1
 40
1.0
176
     1
 90
        8
176
     1
 62
   257
176
     1
 40
1.0
176
     1
 90
        1
176
     1
 90
        6
176
     1
 90
        2
176
     1
 62
     7
176
     1
 90
        3
176
     1
 90
        0
176
     1
 90
        0
176
     1
290
     0
176
     1
 90
        5
176
     1
 40
0.0
176
     1
 90
        0
176
     1
290
     0
176
     1
290
     1
176
     1
290
     1
176
     1
290
     0
176
     1
290
     0
176
     1
290
     0
176
     1
290
     0
176
     1
290
     0
176
     1
290
     0
176
     1
 90
       50
176
     1
 40
0.0
176
     1
 40
1.0
176
     1
 90
        0
176
     1
 62
    18
176
     1
 90
       50
176
     1
 90
        3
176
     1
 62
     5
420
      255
176
     1
290
     0
176
     1
 90
       50
176
     1
 90
       50
176
     1
 90
       50
176
     1
290
     0
176
     1
 90
       50
176
     1
 62
   256
176
     0
 40
1.0
176
     0
 90
        2
176
     1
  1
strokes_ogs.tif
176
     1
290
     0
176
     1
 40
1.0
176
     1
 40
1.0
176
     1
  0
VISUALSTYLE
  5
160
102
{ACAD_REACTORS
330
2A
102
}
330
2A
100
AcDbVisualStyle
  2
Shades of Gray
 70
    23
177
     3
291
     0
 70
    58
 90
        2
176
     1
 90
        2
176
     1
 90
        3
176
     1
 90
        0
176
     1
 40
0.6
176
     1
 40
30.0
176
     1
 62
     7
420
 16777215
176
     1
 90
        2
176
     1
 90
        2
176
     1
 62
     7
176
     1
 62
     7
176
     1
 90
        1
176
     1
 90
        1
176
     1
 40
40.0
176
     1
 90
        8
176
     1
 62
     7
176
     1
 40
1.0
176
     1
 90
        1
176
     1
 90
        6
176
     1
 90
        2
176
     1
 62
     7
176
     1
 90
        3
176
     1
 90
        0
176
     1
 90
        0
176
     1
290
     0
176
     1
 90
        1
176
     1
 40
0.0
176
     1
 90
        0
176
     1
290
     0
176
     1
290
     1
176
     1
290
     1
176
     1
290
     0
176
     1
290
     0
176
     1
290
     0
176
     1
290
     0
176
     1
290
     0
176
     1
290
     0
176
     1
 90
       50
176
     1
 40
0.0
176
     1
 40
1.0
176
     1
 90
        0
176
     1
 62
    18
176
     1
 90
       50
176
     1
 90
        3
176
     1
 62
     5
420
      255
176
     1
290
     0
176
     1
 90
       50
176
     1
 90
       50
176
     1
 90
       50
176
     1
290
     0
176
     1
 90
       50
176
     1
 62
   256
176
     0
 40
1.0
176
     0
 90
        2
176
     1
  1
strokes_ogs.tif
176
     1
290
     0
176
     1
 40
1.0
176
     1
 40
1.0
176
     1
  0
VISUALSTYLE
  5
161
102
{ACAD_REACTORS
330
2A
102
}
330
2A
100
AcDbVisualStyle
  2
Sketchy
 70
    24
177
     3
291
     0
 70
    58
 90
        1
176
     1
 90
        2
176
     1
 90
        2
176
     1
 90
        0
176
     1
 40
0.6
176
     1
 40
30.0
176
     1
 62
     7
420
 16777215
176
     1
 90
        2
176
     1
 90
        2
176
     1
 62
     7
176
     1
 62
     7
176
     1
 90
        1
176
     1
 90
        1
176
     1
 40
40.0
176
     1
 90
       11
176
     1
 62
     7
176
     1
 40
1.0
176
     1
 90
        1
176
     1
 90
        6
176
     1
 90
        2
176
     1
 62
     7
176
     1
 90
        6
176
     1
 90
        0
176
     1
 90
        0
176
     1
290
     0
176
     1
 90
        1
176
     1
 40
0.0
176
     1
 90
        0
176
     1
290
     0
176
     1
290
     1
176
     1
290
     1
176
     1
290
     0
176
     1
290
     0
176
     1
290
     0
176
     1
290
     0
176
     1
290
     0
176
     1
290
     0
176
     1
 90
       50
176
     1
 40
0.0
176
     1
 40
1.0
176
     1
 90
        0
176
     1
 62
    18
176
     1
 90
       50
176
     1
 90
        3
176
     1
 62
     5
420
      255
176
     1
290
     0
176
     1
 90
       50
176
     1
 90
       50
176
     1
 90
       50
176
     1
290
     0
176
     1
 90
       50
176
     1
 62
   256
176
     0
 40
1.0
176
     0
 90
        2
176
     1
  1
strokes_ogs.tif
176
     1
290
     0
176
     1
 40
1.0
176
     1
 40
1.0
176
     1
  0
VISUALSTYLE
  5
37
102
{ACAD_REACTORS
330
2A
102
}
330
2A
100
AcDbVisualStyle
  2

 70
    13
177
     3
291
     1
 70
    58
 90
        2
176
     1
 90
        2
176
     1
 90
        0
176
     1
 90
        0
176
     1
 40
0.6
176
     1
 40
30.0
176
     1
 62
     7
420
 16777215
176
     1
 90
        1
176
     1
 90
        4
176
     1
 62
     7
176
     1
 62
   257
176
     1
 90
        1
176
     1
 90
        1
176
     1
 40
1.0
176
     1
 90
       12
176
     1
 62
     7
176
     1
 40
1.0
176
     1
 90
        1
176
     1
 90
        6
176
     1
 90
        2
176
     1
 62
     7
176
     1
 90
        5
176
     1
 90
        0
176
     1
 90
        0
176
     1
290
     0
176
     1
 90
        1
176
     1
 40
0.0
176
     1
 90
        0
176
     1
290
     0
176
     1
290
     1
176
     1
290
     1
176
     1
290
     0
176
     1
290
     0
176
     1
290
     0
176
     1
290
     0
176
     1
290
     0
176
     1
290
     0
176
     1
 90
       50
176
     1
 40
0.0
176
     1
 40
1.0
176
     1
 90
        0
176
     1
 62
    18
176
     1
 90
       50
176
     1
 90
        3
176
     1
 62
     5
420
      255
176
     1
290
     0
176
     1
 90
       50
176
     1
 90
       50
176
     1
 90
       50
176
     1
290
     0
176
     1
 90
       50
176
     1
 62
   256
176
     0
 40
1.0
176
     0
 90
        2
176
     1
  1
strokes_ogs.tif
176
     1
290
     0
176
     1
 40
1.0
176
     1
 40
1.0
176
     1
  0
VISUALSTYLE
  5
15E
102
{ACAD_REACTORS
330
2A
102
}
330
2A
100
AcDbVisualStyle
  2
Wireframe
 70
     5
177
     3
291
     0
 70
    58
 90
        0
176
     1
 90
        2
176
     1
 90
        0
176
     1
 90
        0
176
     1
 40
0.6
176
     1
 40
30.0
176
     1
 62
     7
420
 16777215
176
     1
 90
        1
176
     1
 90
        4
176
     1
 62
     7
176
     1
 62
   257
176
     1
 90
        1
176
     1
 90
        1
176
     1
 40
1.0
176
     1
 90
        0
176
     1
 62
   257
176
     1
 40
1.0
176
     1
 90
        1
176
     1
 90
        6
176
     1
 90
        2
176
     1
 62
     7
176
     1
 90
        3
176
     1
 90
        0
176
     1
 90
        0
176
     1
290
     0
176
     1
 90
        1
176
     1
 40
0.0
176
     1
 90
        0
176
     1
290
     0
176
     1
290
     1
176
     1
290
     1
176
     1
290
     0
176
     1
290
     0
176
     1
290
     0
176
     1
290
     0
176
     1
290
     0
176
     1
290
     0
176
     1
 90
       50
176
     1
 40
0.0
176
     1
 40
1.0
176
     1
 90
        0
176
     1
 62
    18
176
     1
 90
       50
176
     1
 90
        3
176
     1
 62
     5
420
      255
176
     1
290
     0
176
     1
 90
       50
176
     1
 90
       50
176
     1
 90
       50
176
     1
290
     0
176
     1
 90
       50
176
     1
 62
   256
176
     0
 40
1.0
176
     0
 90
        2
176
     1
  1
strokes_ogs.tif
176
     1
290
     0
176
     1
 40
1.0
176
     1
 40
1.0
176
     1
  0
VISUALSTYLE
  5
162
102
{ACAD_REACTORS
330
2A
102
}
330
2A
100
AcDbVisualStyle
  2
X-Ray
 70
    25
177
     3
291
     0
 70
    58
 90
        2
176
     1
 90
        2
176
     1
 90
        1
176
     1
 90
        1
176
     1
 40
0.5
176
     1
 40
30.0
176
     1
 62
     7
420
 16777215
176
     1
 90
        1
176
     1
 90
        0
176
     1
 62
     7
176
     1
 62
   257
176
     1
 90
        1
176
     1
 90
        1
176
     1
 40
1.0
176
     1
 90
        8
176
     1
 62
     7
176
     1
 40
1.0
176
     1
 90
        1
176
     1
 90
        6
176
     1
 90
        2
176
     1
 62
     7
176
     1
 90
        3
176
     1
 90
        0
176
     1
 90
        0
176
     1
290
     0
176
     1
 90
       13
176
     1
 40
0.0
176
     1
 90
        0
176
     1
290
     0
176
     1
290
     1
176
     1
290
     1
176
     1
290
     0
176
     1
290
     0
176
     1
290
     0
176
     1
290
     0
176
     1
290
     0
176
     1
290
     0
176
     1
 90
       50
176
     1
 40
0.0
176
     1
 40
1.0
176
     1
 90
        0
176
     1
 62
    18
176
     1
 90
       50
176
     1
 90
        3
176
     1
 62
     5
420
      255
176
     1
290
     0
176
     1
 90
       50
176
     1
 90
       50
176
     1
 90
       50
176
     1
290
     0
176
     1
 90
       50
176
     1
 62
   256
176
     0
 40
1.0
176
     0
 90
        2
176
     1
  1
strokes_ogs.tif
176
     1
290
     0
176
     1
 40
1.0
176
     1
 40
1.0
176
     1
  0
DICTIONARYVAR
  5
362
102
{ACAD_REACTORS
330
35C
102
}
330
35C
100
DictionaryVariables
280
     0
  1
1:1
  0
DICTIONARYVAR
  5
35E
102
{ACAD_REACTORS
330
35C
102
}
330
35C
100
DictionaryVariables
280
     0
  1
STANDARD
  0
DICTIONARYVAR
  5
35D
102
{ACAD_REACTORS
330
35C
102
}
330
35C
100
DictionaryVariables
280
     0
  1
STANDARD
  0
DICTIONARYVAR
  5
35F
102
{ACAD_REACTORS
330
35C
102
}
330
35C
100
DictionaryVariables
280
     0
  1
Imperial24
  0
DICTIONARYVAR
  5
360
102
{ACAD_REACTORS
330
35C
102
}
330
35C
100
DictionaryVariables
280
     0
  1
Imperial24
  0
DICTIONARYVAR
  5
364
102
{ACAD_REACTORS
330
35C
102
}
330
35C
100
DictionaryVariables
280
     0
  1
1
  0
DICTIONARYVAR
  5
365
102
{ACAD_REACTORS
330
35C
102
}
330
35C
100
DictionaryVariables
280
     0
  1
15
  0
DICTIONARYVAR
  5
363
102
{ACAD_REACTORS
330
35C
102
}
330
35C
100
DictionaryVariables
280
     0
  1
0
  0
DICTIONARYVAR
  5
361
102
{ACAD_REACTORS
330
35C
102
}
330
35C
100
DictionaryVariables
280
     0
  1
0
  0
DICTIONARY
  5
14F
330
14E
100
AcDbDictionary
280
     1
281
     1
  3
BUMPTILE
360
151
  3
DIFFUSETILE
360
150
  3
OPACITYTILE
360
154
  3
REFLECTIONTILE
360
153
  3
REFRACTIONTILE
360
155
  3
SPECULARTILE
360
152
  0
DICTIONARY
  5
147
330
146
100
AcDbDictionary
280
     1
281
     1
  3
BUMPTILE
360
149
  3
DIFFUSETILE
360
148
  3
OPACITYTILE
360
14C
  3
REFLECTIONTILE
360
14B
  3
REFRACTIONTILE
360
14D
  3
SPECULARTILE
360
14A
  0
DICTIONARY
  5
157
330
156
100
AcDbDictionary
280
     1
281
     1
  3
BUMPTILE
360
159
  3
DIFFUSETILE
360
158
  3
OPACITYTILE
360
15C
  3
REFLECTIONTILE
360
15B
  3
REFRACTIONTILE
360
15D
  3
SPECULARTILE
360
15A
  0
DICTIONARY
  5
667
330
169
100
AcDbDictionary
280
     1
281
     1
  3
ACAD_ROUNDTRIP_2008_TABLESTYLE_CELLSTYLEMAP
360
6A9
  0
XRECORD
  5
151
102
{ACAD_REACTORS
330
14F
102
}
330
14F
100
AcDbXrecord
280
     1
270
     1
271
     1
  0
XRECORD
  5
150
102
{ACAD_REACTORS
330
14F
102
}
330
14F
100
AcDbXrecord
280
     1
270
     1
271
     1
  0
XRECORD
  5
154
102
{ACAD_REACTORS
330
14F
102
}
330
14F
100
AcDbXrecord
280
     1
270
     1
271
     1
  0
XRECORD
  5
153
102
{ACAD_REACTORS
330
14F
102
}
330
14F
100
AcDbXrecord
280
     1
270
     1
271
     1
  0
XRECORD
  5
155
102
{ACAD_REACTORS
330
14F
102
}
330
14F
100
AcDbXrecord
280
     1
270
     1
271
     1
  0
XRECORD
  5
152
102
{ACAD_REACTORS
330
14F
102
}
330
14F
100
AcDbXrecord
280
     1
270
     1
271
     1
  0
XRECORD
  5
149
102
{ACAD_REACTORS
330
147
102
}
330
147
100
AcDbXrecord
280
     1
270
     1
271
     1
  0
XRECORD
  5
148
102
{ACAD_REACTORS
330
147
102
}
330
147
100
AcDbXrecord
280
     1
270
     1
271
     1
  0
XRECORD
  5
14C
102
{ACAD_REACTORS
330
147
102
}
330
147
100
AcDbXrecord
280
     1
270
     1
271
     1
  0
XRECORD
  5
14B
102
{ACAD_REACTORS
330
147
102
}
330
147
100
AcDbXrecord
280
     1
270
     1
271
     1
  0
XRECORD
  5
14D
102
{ACAD_REACTORS
330
147
102
}
330
147
100
AcDbXrecord
280
     1
270
     1
271
     1
  0
XRECORD
  5
14A
102
{ACAD_REACTORS
330
147
102
}
330
147
100
AcDbXrecord
280
     1
270
     1
271
     1
  0
XRECORD
  5
159
102
{ACAD_REACTORS
330
157
102
}
330
157
100
AcDbXrecord
280
     1
270
     1
271
     1
  0
XRECORD
  5
158
102
{ACAD_REACTORS
330
157
102
}
330
157
100
AcDbXrecord
280
     1
270
     1
271
     1
  0
XRECORD
  5
15C
102
{ACAD_REACTORS
330
157
102
}
330
157
100
AcDbXrecord
280
     1
270
     1
271
     1
  0
XRECORD
  5
15B
102
{ACAD_REACTORS
330
157
102
}
330
157
100
AcDbXrecord
280
     1
270
     1
271
     1
  0
XRECORD
  5
15D
102
{ACAD_REACTORS
330
157
102
}
330
157
100
AcDbXrecord
280
     1
270
     1
271
     1
  0
XRECORD
  5
15A
102
{ACAD_REACTORS
330
157
102
}
330
157
100
AcDbXrecord
280
     1
270
     1
271
     1
  0
CELLSTYLEMAP
  5
6A9
102
{ACAD_REACTORS
330
667
102
}
330
667
100
AcDbCellStyleMap
 90
        3
300
CELLSTYLE
  1
TABLEFORMAT_BEGIN
 90
        5
170
     1
 91
        0
 92
    32768
 62
   257
 93
        1
300
CONTENTFORMAT
  1
CONTENTFORMAT_BEGIN
 90
        0
 91
        0
 92
      512
 93
        0
300

 40
0.0
140
1.0
 94
        5
 62
     0
340
11
144
0.25
309
CONTENTFORMAT_END
171
     1
301
MARGIN
  1
CELLMARGIN_BEGIN
 40
0.06
 40
0.06
 40
0.06
 40
0.06
 40
0.18
 40
0.18
309
CELLMARGIN_END
 94
        6
 95
        1
302
GRIDFORMAT
  1
GRIDFORMAT_BEGIN
 90
        0
 91
        1
 62
     0
 92
       -2
340
0
 93
        0
 40
0.045
309
GRIDFORMAT_END
 95
        2
302
GRIDFORMAT
  1
GRIDFORMAT_BEGIN
 90
        0
 91
        1
 62
     0
 92
       -2
340
0
 93
        0
 40
0.045
309
GRIDFORMAT_END
 95
        4
302
GRIDFORMAT
  1
GRIDFORMAT_BEGIN
 90
        0
 91
        1
 62
     0
 92
       -2
340
0
 93
        0
 40
0.045
309
GRIDFORMAT_END
 95
        8
302
GRIDFORMAT
  1
GRIDFORMAT_BEGIN
 90
        0
 91
        1
 62
     0
 92
       -2
340
0
 93
        0
 40
0.045
309
GRIDFORMAT_END
 95
       16
302
GRIDFORMAT
  1
GRIDFORMAT_BEGIN
 90
        0
 91
        1
 62
     0
 92
       -2
340
0
 93
        0
 40
0.045
309
GRIDFORMAT_END
 95
       32
302
GRIDFORMAT
  1
GRIDFORMAT_BEGIN
 90
        0
 91
        1
 62
     0
 92
       -2
340
0
 93
        0
 40
0.045
309
GRIDFORMAT_END
309
TABLEFORMAT_END
  1
CELLSTYLE_BEGIN
 90
        1
 91
        1
300
_TITLE
309
CELLSTYLE_END
300
CELLSTYLE
  1
TABLEFORMAT_BEGIN
 90
        5
170
     1
 91
        0
 92
        0
 62
   257
 93
        1
300
CONTENTFORMAT
  1
CONTENTFORMAT_BEGIN
 90
        0
 91
        0
 92
      512
 93
        0
300

 40
0.0
140
1.0
 94
        5
 62
     0
340
11
144
0.18
309
CONTENTFORMAT_END
171
     1
301
MARGIN
  1
CELLMARGIN_BEGIN
 40
0.06
 40
0.06
 40
0.06
 40
0.06
 40
0.18
 40
0.18
309
CELLMARGIN_END
 94
        6
 95
        1
302
GRIDFORMAT
  1
GRIDFORMAT_BEGIN
 90
        0
 91
        1
 62
     0
 92
       -2
340
0
 93
        0
 40
0.045
309
GRIDFORMAT_END
 95
        2
302
GRIDFORMAT
  1
GRIDFORMAT_BEGIN
 90
        0
 91
        1
 62
     0
 92
       -2
340
0
 93
        0
 40
0.045
309
GRIDFORMAT_END
 95
        4
302
GRIDFORMAT
  1
GRIDFORMAT_BEGIN
 90
        0
 91
        1
 62
     0
 92
       -2
340
0
 93
        0
 40
0.045
309
GRIDFORMAT_END
 95
        8
302
GRIDFORMAT
  1
GRIDFORMAT_BEGIN
 90
        0
 91
        1
 62
     0
 92
       -2
340
0
 93
        0
 40
0.045
309
GRIDFORMAT_END
 95
       16
302
GRIDFORMAT
  1
GRIDFORMAT_BEGIN
 90
        0
 91
        1
 62
     0
 92
       -2
340
0
 93
        0
 40
0.045
309
GRIDFORMAT_END
 95
       32
302
GRIDFORMAT
  1
GRIDFORMAT_BEGIN
 90
        0
 91
        1
 62
     0
 92
       -2
340
0
 93
        0
 40
0.045
309
GRIDFORMAT_END
309
TABLEFORMAT_END
  1
CELLSTYLE_BEGIN
 90
        2
 91
        1
300
_HEADER
309
CELLSTYLE_END
300
CELLSTYLE
  1
TABLEFORMAT_BEGIN
 90
        5
170
     1
 91
        0
 92
        0
 62
   257
 93
        1
300
CONTENTFORMAT
  1
CONTENTFORMAT_BEGIN
 90
        0
 91
        0
 92
      512
 93
        0
300

 40
0.0
140
1.0
 94
        2
 62
     0
340
11
144
0.18
309
CONTENTFORMAT_END
171
     1
301
MARGIN
  1
CELLMARGIN_BEGIN
 40
0.06
 40
0.06
 40
0.06
 40
0.06
 40
0.18
 40
0.18
309
CELLMARGIN_END
 94
        6
 95
        1
302
GRIDFORMAT
  1
GRIDFORMAT_BEGIN
 90
        0
 91
        1
 62
     0
 92
       -2
340
0
 93
        0
 40
0.045
309
GRIDFORMAT_END
 95
        2
302
GRIDFORMAT
  1
GRIDFORMAT_BEGIN
 90
        0
 91
        1
 62
     0
 92
       -2
340
0
 93
        0
 40
0.045
309
GRIDFORMAT_END
 95
        4
302
GRIDFORMAT
  1
GRIDFORMAT_BEGIN
 90
        0
 91
        1
 62
     0
 92
       -2
340
0
 93
        0
 40
0.045
309
GRIDFORMAT_END
 95
        8
302
GRIDFORMAT
  1
GRIDFORMAT_BEGIN
 90
        0
 91
        1
 62
     0
 92
       -2
340
0
 93
        0
 40
0.045
309
GRIDFORMAT_END
 95
       16
302
GRIDFORMAT
  1
GRIDFORMAT_BEGIN
 90
        0
 91
        1
 62
     0
 92
       -2
340
0
 93
        0
 40
0.045
309
GRIDFORMAT_END
 95
       32
302
GRIDFORMAT
  1
GRIDFORMAT_BEGIN
 90
        0
 91
        1
 62
     0
 92
       -2
340
0
 93
        0
 40
0.045
309
GRIDFORMAT_END
309
TABLEFORMAT_END
  1
CELLSTYLE_BEGIN
 90
        3
 91
        2
300
_DATA
309
CELLSTYLE_END
  0
ENDSEC
  0
SECTION
  2
ACDSDATA
 70
     2
 71
     2
  0
ACDSSCHEMA
 90
        0
  1
AcDb_Thumbnail_Schema
  2
AcDbDs::ID
280
    10
 91
        8
  2
Thumbnail_Data
280
    15
 91
        0
101
ACDSRECORD
 95
        0
 90
        1
  2
AcDbDs::TreatedAsObjectData
280
     1
291
     1
101
ACDSRECORD
 95
        0
 90
        2
  2
AcDbDs::Legacy
280
     1
291
     1
101
ACDSRECORD
  1
AcDbDs::ID
 90
        3
  2
AcDs:Indexable
280
     1
291
     1
101
ACDSRECORD
  1
AcDbDs::ID
 90
        4
  2
AcDbDs::HandleAttribute
280
     7
282
     1
  0
ACDSSCHEMA
 90
        1
  1
AcDbDs::TreatedAsObjectDataSchema
  2
AcDbDs::TreatedAsObjectData
280
     1
 91
        0
  0
ACDSSCHEMA
 90
        2
  1
AcDbDs::LegacySchema
  2
AcDbDs::Legacy
280
     1
 91
        0
  0
ACDSSCHEMA
 90
        3
  1
AcDbDs::IndexedPropertySchema
  2
AcDs:Indexable
280
     1
 91
        0
  0
ACDSSCHEMA
 90
        4
  1
AcDbDs::HandleAttributeSchema
  2
AcDbDs::HandleAttribute
280
     7
 91
        1
284
     1
  0
ACDSRECORD
 90
        0
  2
AcDbDs::ID
280
    10
320
22
  2
Thumbnail_Data
280
    15
 94
     2069
310
89504E470D0A1A0A0000000D494844520000010000000063080300000043BB2E1400000300504C5445212830000000C8C8C80000000000000000000000000000000000000000000000000000330000660000990000CC0000FF0033000033330033660033990033CC0033FF0066000066330066660066990066CC0066FF0099
310
000099330099660099990099CC0099FF00CC0000CC3300CC6600CC9900CCCC00CCFF00FF0000FF3300FF6600FF9900FFCC00FFFF3300003300333300663300993300CC3300FF3333003333333333663333993333CC3333FF3366003366333366663366993366CC3366FF3399003399333399663399993399CC3399FF33CC00
310
33CC3333CC6633CC9933CCCC33CCFF33FF0033FF3333FF6633FF9933FFCC33FFFF6600006600336600666600996600CC6600FF6633006633336633666633996633CC6633FF6666006666336666666666996666CC6666FF6699006699336699666699996699CC6699FF66CC0066CC3366CC6666CC9966CCCC66CCFF66FF0066
310
FF3366FF6666FF9966FFCC66FFFF9900009900339900669900999900CC9900FF9933009933339933669933999933CC9933FF9966009966339966669966999966CC9966FF9999009999339999669999999999CC9999FF99CC0099CC3399CC6699CC9999CCCC99CCFF99FF0099FF3399FF6699FF9999FFCC99FFFFCC0000CC00
310
33CC0066CC0099CC00CCCC00FFCC3300CC3333CC3366CC3399CC33CCCC33FFCC6600CC6633CC6666CC6699CC66CCCC66FFCC9900CC9933CC9966CC9999CC99CCCC99FFCCCC00CCCC33CCCC66CCCC99CCCCCCCCCCFFCCFF00CCFF33CCFF66CCFF99CCFFCCCCFFFFFF0000FF0033FF0066FF0099FF00CCFF00FFFF3300FF3333
310
FF3366FF3399FF33CCFF33FFFF6600FF6633FF6666FF6699FF66CCFF66FFFF9900FF9933FF9966FF9999FF99CCFF99FFFFCC00FFCC33FFCC66FFCC99FFCCCCFFCCFFFFFF00FFFF33FFFF66FFFF99FFFFCCFFFFFF0000000D0D0D1A1A1A2828283535354343435050505D5D5D6B6B6B787878868686939393A1A1A1AEAEAEBB
310
BBBBC9C9C9D6D6D6E4E4E4F1F1F1FFFFFF000000000000000000000000000000000000000000000000000000000000B21171F6000000974944415478DAEDD6B11183400C4541F55F943AA20733C68E6C30308EF477236620793AE0AE0A0000F893EE0E4E7F0B4E7FE6074DA0BF08F90CFAC07A3737FDF54C6EFAD4019C4E9F
310
B7155E4D1FB411F695F61E750CE87BCB2E3D28BDA4CFF8D3DD4D9FB2CD852EFBC10072D23F06B0D4F463CDEE00B6CB252CFDF74B51DAA547B557A4E074000000000000000000000000000000608807D89FAB30761F41A30000000049454E44AE426082922449922449922449922449BFB401BAA8B3BA45C6DBD50000000049
310
454E44AE4260826FB8F69A52291407BD5869721501A43CBBDDD584FB6F00F9ED9CEDC5AE3E807C0E9EDCF301FC86E0CEBD1C80986F72130270ECDE158027F79A008E7F433898F0DD01F874AF0BC0B17B5B1770E85E0A402FC7039F6FB2E636F589839D0408E022EBFD0DE6C469504271BA128CF85D5AC39DA0D70034F2B7A8
310
0000000000000000000000B0362F7E29FDA8F2F05E7B0000000049454E44AE426082164781D61D8A7B67F59B9DAF6D400154F9AEDCC292DF52E901BFA41D6E40E6BF98C9FDE7420821841042082184104208217DFD02551C5F5A37E4261B0000000049454E44AE426082AE4260825C10E0282080BC00310101240608C5E092
310
009F0202C80C101120078000FACF06911E00F700760101E406180B08801AE00B6B9DD8E758CCF1830000000049454E44AE426082E310BF0136FC17D390030300E6071BDD3600C1F42F0D0040FC5CA7FB0644BBFC4B0302EA2F0D4044FD8501F1F0AF0D0879F9FF0620AA7E997EEF0F99FEB301579A5F4F06844DFF628A09AB
310
7FBCDF33AE7E092E9FF889A6191919191919195EE203104DCC70D2FE07EC0000000049454E44AE426082ED4504A45FCA68B3C03D004AD21F37459C7E2C3F4AFA0EFF3475154081F169439037BEC33AE00A00141AAF13E86EFC750055C64B0460C2F84B00AE6A0F0A61C76A7713407DD2ABB7F056B49702B8677CB01366C8F7
310
520078C07861D6B3143A80A78C371E228049B4CB009E4EFA9100CC647C0A00B3191F0298D2F8F4919F527B38314FA93DEA4A57AC58B162C58A152B56AC58B162C50A2BF10FB1E723A1647FBB1A0000000049454E44AE4260829BB4B79341AF3CB8DB45D82DE7B6D5413C875805387150DBC5C41AA0E360639B19B637E2769B
310
1A5680D42EF2ECFB56E77048B7F1DD650E659843332D4AC26380C3D5A2D97A40937A2B277FDB4C0EC0D73633A740886DAEA3003FDB349E862F669B6BEE6E686B9B0B2BC0C0366FA1006599BC8D02441C6EA880CB1C6EAA8041DBBCBD027A72087D26567E0015711BAE1D9667210000000049454E44AE42608277FD030024B7
310
1235FDD1AF7F785254034047FCF0FC3F6E947E8358D31F23D26FD580A03F5CD31F4FC9C8D67F54FC1A8029FA730096FE44DDFAEF27240E80F4EF3B7802B0F4271A907E0DC024FD1300A6FEA3E297004CD3FFB6CA275B7F1AA1BF0C609EFE7700D1545FD6BFF99BE5C9F3EE098089FA27D51FB6FECD2FF6A5A918C05CFDE3EA
310
4F19FD9BC3C7660098ACFF55FDA32E29FA0F497F0A60B6FE7BC0A024F14FE99F0098AFFF998433F3CFEA7F07F002FDE3450039E87F03F006FDE3A53E5D3B5F9AFE7F40CD06AEF8FED7590000000049454E44AE426082BB6382CAFB03BCBC710680FB1D1354DE1FE0DD617061A4D530603B000A67850F02E8340C200511ABF5
310
0E9F03C0E65515F7160094CE0A3F01E0076AD1E79953EE64B20000000049454E44AE426082
  0
ENDSEC
  0
EOF
