  0
SECTION
  2
HEADER
  9
$ACADVER
  1
AC1009
  9
$DWGCODEPAGE
  3
ansi_1252
  9
$INSBASE
 10
0.0
 20
0.0
 30
0.0
  9
$EXTMIN
 10
-104.0
 20
-28.7650032043457
 30
-5.0
  9
$EXTMAX
 10
104.4233055114746
 20
0.0
 30
5.940500259399414
  9
$LIMMIN
 10
0.0
 20
0.0
  9
$LIMMAX
 10
12.0
 20
9.0
  9
$ORTHOMODE
 70
     1
  9
$REGENMODE
 70
     1
  9
$FILLMODE
 70
     1
  9
$QTEXTMODE
 70
     0
  9
$MIRRTEXT
 70
     1
  9
$DRAGMODE
 70
     2
  9
$LTSCALE
 40
1.0
  9
$OSMODE
 70
    37
  9
$ATTMODE
 70
     1
  9
$TEXTSIZE
 40
0.2
  9
$TRACEWID
 40
0.05
  9
$TEXTSTYLE
  7
STANDARD
  9
$CLAYER
  8
0
  9
$CELTYPE
  6
BYLAYER
  9
$CECOLOR
 62
   256
  9
$DIMSCALE
 40
1.0
  9
$DIMASZ
 40
0.18
  9
$DIMEXO
 40
0.0625
  9
$DIMDLI
 40
0.38
  9
$DIMRND
 40
0.0
  9
$DIMDLE
 40
0.0
  9
$DIMEXE
 40
0.18
  9
$DIMTP
 40
0.0
  9
$DIMTM
 40
0.0
  9
$DIMTXT
 40
0.18
  9
$DIMCEN
 40
0.09
  9
$DIMTSZ
 40
0.0
  9
$DIMTOL
 70
     0
  9
$DIMLIM
 70
     0
  9
$DIMTIH
 70
     1
  9
$DIMTOH
 70
     1
  9
$DIMSE1
 70
     0
  9
$DIMSE2
 70
     0
  9
$DIMTAD
 70
     0
  9
$DIMZIN
 70
     0
  9
$DIMBLK
  1

  9
$DIMASO
 70
     1
  9
$DIMSHO
 70
     1
  9
$DIMPOST
  1

  9
$DIMAPOST
  1

  9
$DIMALT
 70
     0
  9
$DIMALTD
 70
     2
  9
$DIMALTF
 40
25.4
  9
$DIMLFAC
 40
1.0
  9
$DIMTOFL
 70
     0
  9
$DIMTVP
 40
0.0
  9
$DIMTIX
 70
     0
  9
$DIMSOXD
 70
     0
  9
$DIMSAH
 70
     0
  9
$DIMBLK1
  1

  9
$DIMBLK2
  1

  9
$DIMSTYLE
  2
STANDARD
  9
$DIMCLRD
 70
     0
  9
$DIMCLRE
 70
     0
  9
$DIMCLRT
 70
     0
  9
$DIMTFAC
 40
1.0
  9
$DIMGAP
 40
0.09
  9
$LUNITS
 70
     2
  9
$LUPREC
 70
     3
  9
$SKETCHINC
 40
0.1
  9
$FILLETRAD
 40
0.5
  9
$AUNITS
 70
     0
  9
$AUPREC
 70
     0
  9
$MENU
  1
.
  9
$ELEVATION
 40
0.0
  9
$PELEVATION
 40
0.0
  9
$THICKNESS
 40
0.0
  9
$LIMCHECK
 70
     0
  9
$CHAMFERA
 40
0.5
  9
$CHAMFERB
 40
0.5
  9
$SKPOLY
 70
     0
  9
$TDCREATE
 40
2456504.342184225
  9
$TDUPDATE
 40
2456504.342184236
  9
$TDINDWG
 40
0.0015509375
  9
$TDUSRTIMER
 40
0.0015393634
  9
$USRTIMER
 70
     1
  9
$ANGBASE
 50
0.0
  9
$ANGDIR
 70
     0
  9
$PDMODE
 70
     0
  9
$PDSIZE
 40
0.0
  9
$PLINEWID
 40
0.0
  9
$COORDS
 70
     1
  9
$SPLFRAME
 70
     0
  9
$SPLINETYPE
 70
     6
  9
$SPLINESEGS
 70
     8
  9
$ATTDIA
 70
     0
  9
$ATTREQ
 70
     1
  9
$HANDLING
 70
     1
  9
$HANDSEED
  5
381
  9
$SURFTAB1
 70
     6
  9
$SURFTAB2
 70
     6
  9
$SURFTYPE
 70
     6
  9
$SURFU
 70
     6
  9
$SURFV
 70
     6
  9
$UCSNAME
  2

  9
$UCSORG
 10
0.0
 20
0.0
 30
0.0
  9
$UCSXDIR
 10
1.0
 20
0.0
 30
0.0
  9
$UCSYDIR
 10
0.0
 20
0.0
 30
1.0
  9
$PUCSNAME
  2

  9
$PUCSORG
 10
0.0
 20
0.0
 30
0.0
  9
$PUCSXDIR
 10
1.0
 20
0.0
 30
0.0
  9
$PUCSYDIR
 10
0.0
 20
1.0
 30
0.0
  9
$USERI1
 70
     0
  9
$USERI2
 70
     0
  9
$USERI3
 70
     0
  9
$USERI4
 70
     0
  9
$USERI5
 70
     0
  9
$USERR1
 40
0.0
  9
$USERR2
 40
0.0
  9
$USERR3
 40
0.0
  9
$USERR4
 40
0.0
  9
$USERR5
 40
0.0
  9
$WORLDVIEW
 70
     1
  9
$SHADEDGE
 70
     3
  9
$SHADEDIF
 70
    70
  9
$TILEMODE
 70
     1
  9
$MAXACTVP
 70
    64
  9
$PLIMCHECK
 70
     0
  9
$PEXTMIN
 10
1.000000000000000E+20
 20
1.000000000000000E+20
 30
1.000000000000000E+20
  9
$PEXTMAX
 10
-1.000000000000000E+20
 20
-1.000000000000000E+20
 30
-1.000000000000000E+20
  9
$PLIMMIN
 10
0.0
 20
0.0
  9
$PLIMMAX
 10
12.0
 20
9.0
  9
$UNITMODE
 70
     0
  9
$VISRETAIN
 70
     1
  9
$PLINEGEN
 70
     0
  9
$PSLTSCALE
 70
     1
  0
ENDSEC
  0
SECTION
  2
TABLES
  0
TABLE
  2
VPORT
 70
     1
  0
VPORT
  2
*ACTIVE
 70
     0
 10
0.0
 20
0.0
 11
1.0
 21
1.0
 12
10.31962551216146
 22
-5.40126719289849
 13
0.0
 23
0.0
 14
0.5
 24
0.5
 15
0.5
 25
0.5
 16
-1.0
 26
-1.0
 36
1.0
 17
0.0
 27
0.0
 37
0.0
 40
134.8498683235261
 41
7.373899942789669
 42
50.0
 43
0.0
 44
0.0
 50
0.0
 51
0.0
 71
    16
 72
   100
 73
     0
 74
     1
 75
     0
 76
     0
 77
     0
 78
     0
  0
ENDTAB
  0
TABLE
  2
LTYPE
 70
     1
  0
LTYPE
  2
CONTINUOUS
 70
     0
  3
Solid line
 72
    65
 73
     0
 40
0.0
  0
ENDTAB
  0
TABLE
  2
LAYER
 70
     2
  0
LAYER
  2
0
 70
     0
 62
     7
  6
CONTINUOUS
  0
LAYER
  2
METAL
 70
     0
 62
     5
  6
CONTINUOUS
  0
ENDTAB
  0
TABLE
  2
STYLE
 70
     1
  0
STYLE
  2
STANDARD
 70
     0
 40
0.0
 41
1.0
 50
0.0
 71
     0
 42
0.2
  3
txt
  4

  0
ENDTAB
  0
TABLE
  2
VIEW
 70
     0
  0
ENDTAB
  0
TABLE
  2
UCS
 70
     0
  0
ENDTAB
  0
TABLE
  2
APPID
 70
     1
  0
APPID
  2
ACAD
 70
     0
  0
ENDTAB
  0
TABLE
  2
DIMSTYLE
 70
     1
  0
DIMSTYLE
  2
STANDARD
 70
     0
  3

  4

  5

  6

  7

 40
1.0
 41
0.18
 42
0.0625
 43
0.38
 44
0.18
 45
0.0
 46
0.0
 47
0.0
 48
0.0
140
0.18
141
0.09
142
0.0
143
25.4
144
1.0
145
0.0
146
1.0
147
0.09
 71
     0
 72
     0
 73
     1
 74
     1
 75
     0
 76
     0
 77
     0
 78
     0
170
     0
171
     2
172
     0
173
     0
174
     0
175
     0
176
     0
177
     0
178
     0
  0
ENDTAB
  0
ENDSEC
  0
SECTION
  2
BLOCKS
  0
BLOCK
  8
0
  2
$MODEL_SPACE
 70
     0
 10
0.0
 20
0.0
 30
0.0
  3
$MODEL_SPACE
  1

  0
ENDBLK
  5
21
  8
0
  0
BLOCK
 67
     1
  8
0
  2
$PAPER_SPACE
 70
     0
 10
0.0
 20
0.0
 30
0.0
  3
$PAPER_SPACE
  1

  0
ENDBLK
  5
76
 67
     1
  8
0
  0
ENDSEC
  0
SECTION
  2
ENTITIES
  0
POLYLINE
  5
3C
  8
METAL
 66
     1
 10
0.0
 20
0.0
 30
0.0
 70
    64
 71
   391
 72
   316
  0
VERTEX
  5
3D
  8
METAL
 10
104.4233055114746
 20
-4.142101287841797
 30
-1.025699853897089
 70
   192
  0
VERTEX
  5
3E
  8
METAL
 10
104.4233055114746
 20
-4.142101287841797
 30
1.966200232505798
 70
   192
  0
VERTEX
  5
3F
  8
METAL
 10
104.3845062255859
 20
-4.142101287841797
 30
0.4703001976013184
 70
   192
  0
VERTEX
  5
40
  8
METAL
 10
104.3717041015625
 20
0.0
 30
-1.025699853897089
 70
   192
  0
VERTEX
  5
41
  8
METAL
 10
104.3717041015625
 20
0.0
 30
-1.025699853897089
 70
   192
  0
VERTEX
  5
42
  8
METAL
 10
104.3717041015625
 20
0.0
 30
0.4703001976013184
 70
   192
  0
VERTEX
  5
43
  8
METAL
 10
104.3717041015625
 20
0.0
 30
0.4703001976013184
 70
   192
  0
VERTEX
  5
44
  8
METAL
 10
104.3717041015625
 20
0.0
 30
1.966200232505798
 70
   192
  0
VERTEX
  5
45
  8
METAL
 10
104.3717041015625
 20
0.0
 30
1.966200232505798
 70
   192
  0
VERTEX
  5
46
  8
METAL
 10
103.6495056152344
 20
-4.142101287841797
 30
-3.01279973983765
 70
   192
  0
VERTEX
  5
47
  8
METAL
 10
103.6495056152344
 20
-4.142101287841797
 30
3.953400135040283
 70
   192
  0
VERTEX
  5
48
  8
METAL
 10
103.5979042053223
 20
0.0
 30
-3.01279973983765
 70
   192
  0
VERTEX
  5
49
  8
METAL
 10
103.5979042053223
 20
0.0
 30
-3.01279973983765
 70
   192
  0
VERTEX
  5
4A
  8
METAL
 10
103.5979042053223
 20
0.0
 30
3.953400135040283
 70
   192
  0
VERTEX
  5
4B
  8
METAL
 10
103.5979042053223
 20
0.0
 30
3.953400135040283
 70
   192
  0
VERTEX
  5
4C
  8
METAL
 10
103.3838043212891
 20
-10.46930313110352
 30
-0.9797998070716858
 70
   192
  0
VERTEX
  5
4D
  8
METAL
 10
103.3838043212891
 20
-10.46930313110352
 30
1.920400142669678
 70
   192
  0
VERTEX
  5
4E
  8
METAL
 10
103.3465042114258
 20
-10.46390151977539
 30
0.4703001976013184
 70
   192
  0
VERTEX
  5
4F
  8
METAL
 10
102.6533050537109
 20
-10.36379623413086
 30
-2.87529993057251
 70
   192
  0
VERTEX
  5
50
  8
METAL
 10
102.6533050537109
 20
-10.36379623413086
 30
3.815800189971924
 70
   192
  0
VERTEX
  5
51
  8
METAL
 10
102.0504035949707
 20
-4.142101287841797
 30
-5.0
 70
   192
  0
VERTEX
  5
52
  8
METAL
 10
102.0504035949707
 20
-4.142101287841797
 30
-5.0
 70
   192
  0
VERTEX
  5
53
  8
METAL
 10
102.0504035949707
 20
-4.142101287841797
 30
5.940500259399414
 70
   192
  0
VERTEX
  5
54
  8
METAL
 10
102.0504035949707
 20
-4.142101287841797
 30
5.940500259399414
 70
   192
  0
VERTEX
  5
55
  8
METAL
 10
102.0504035949707
 20
0.0
 30
-5.0
 70
   192
  0
VERTEX
  5
56
  8
METAL
 10
102.0504035949707
 20
0.0
 30
-5.0
 70
   192
  0
VERTEX
  5
57
  8
METAL
 10
102.0504035949707
 20
0.0
 30
-5.0
 70
   192
  0
VERTEX
  5
58
  8
METAL
 10
102.0504035949707
 20
0.0
 30
5.940500259399414
 70
   192
  0
VERTEX
  5
30D
  8
METAL
 10
102.0504035949707
 20
0.0
 30
5.940500259399414
 70
   192
  0
VERTEX
  5
30E
  8
METAL
 10
102.0504035949707
 20
0.0
 30
5.940500259399414
 70
   192
  0
VERTEX
  5
5B
  8
METAL
 10
101.1436042785645
 20
-10.14590072631836
 30
-4.77079963684082
 70
   192
  0
VERTEX
  5
5C
  8
METAL
 10
101.1436042785645
 20
-10.14590072631836
 30
-4.77079963684082
 70
   192
  0
VERTEX
  5
5D
  8
METAL
 10
101.1436042785645
 20
-10.14590072631836
 30
5.711300373077393
 70
   192
  0
VERTEX
  5
30F
  8
METAL
 10
101.1436042785645
 20
-10.14590072631836
 30
5.711300373077393
 70
   192
  0
VERTEX
  5
5F
  8
METAL
 10
100.3002052307129
 20
-17.33199691772461
 30
-0.9196997880935669
 70
   192
  0
VERTEX
  5
60
  8
METAL
 10
100.3002052307129
 20
-17.33199691772461
 30
1.860200166702271
 70
   192
  0
VERTEX
  5
61
  8
METAL
 10
100.2658042907715
 20
-17.32120132446289
 30
0.4703001976013184
 70
   192
  0
VERTEX
  5
62
  8
METAL
 10
99.64070510864256
 20
-17.12499618530273
 30
-2.6949999332428
 70
   192
  0
VERTEX
  5
63
  8
METAL
 10
99.64070510864256
 20
-17.12499618530273
 30
3.635500192642212
 70
   192
  0
VERTEX
  5
64
  8
METAL
 10
97.52810287475585
 20
-16.38560104370117
 30
-4.470199584960939
 70
   192
  0
VERTEX
  5
65
  8
METAL
 10
97.52810287475585
 20
-16.38560104370117
 30
-4.470199584960939
 70
   192
  0
VERTEX
  5
66
  8
METAL
 10
97.52810287475585
 20
-16.38560104370117
 30
5.41070032119751
 70
   192
  0
VERTEX
  5
67
  8
METAL
 10
97.52810287475585
 20
-16.38560104370117
 30
5.41070032119751
 70
   192
  0
VERTEX
  5
68
  8
METAL
 10
97.41160583496092
 20
0.0
 30
-0.7410998344421387
 70
   192
  0
VERTEX
  5
69
  8
METAL
 10
97.41160583496092
 20
0.0
 30
0.4703001976013184
 70
   192
  0
VERTEX
  5
6A
  8
METAL
 10
97.41160583496092
 20
0.0
 30
1.681700229644775
 70
   192
  0
VERTEX
  5
310
  8
METAL
 10
97.2718048095703
 20
0.0
 30
-2.159199714660639
 70
   192
  0
VERTEX
  5
311
  8
METAL
 10
97.2718048095703
 20
0.0
 30
3.099700212478638
 70
   192
  0
VERTEX
  5
6D
  8
METAL
 10
96.59200286865233
 20
-4.142101287841797
 30
-3.86909985542297
 70
   192
  0
VERTEX
  5
6E
  8
METAL
 10
96.59200286865233
 20
-4.142101287841797
 30
4.809600353240967
 70
   192
  0
VERTEX
  5
6F
  8
METAL
 10
96.59200286865233
 20
0.0
 30
-3.86909985542297
 70
   192
  0
VERTEX
  5
70
  8
METAL
 10
96.59200286865233
 20
0.0
 30
-3.86909985542297
 70
   192
  0
VERTEX
  5
71
  8
METAL
 10
96.59200286865233
 20
0.0
 30
4.809600353240967
 70
   192
  0
VERTEX
  5
72
  8
METAL
 10
96.59200286865233
 20
0.0
 30
4.809600353240967
 70
   192
  0
VERTEX
  5
312
  8
METAL
 10
95.99050521850585
 20
-9.402000427246094
 30
-3.691999912261959
 70
   192
  0
VERTEX
  5
313
  8
METAL
 10
95.99050521850585
 20
-9.402000427246094
 30
4.6326003074646
 70
   192
  0
VERTEX
  5
314
  8
METAL
 10
95.70090484619139
 20
-21.52679824829102
 30
-0.7943997979164124
 70
   192
  0
VERTEX
  5
315
  8
METAL
 10
95.70090484619139
 20
-21.52679824829102
 30
1.734900236129761
 70
   192
  0
VERTEX
  5
77
  8
METAL
 10
95.67180252075194
 20
-21.51150131225586
 30
0.4703001976013184
 70
   192
  0
VERTEX
  5
78
  8
METAL
 10
95.17540359497069
 20
-21.2505989074707
 30
-2.31889986991882
 70
   192
  0
VERTEX
  5
79
  8
METAL
 10
95.17540359497069
 20
-21.2505989074707
 30
3.259400129318237
 70
   192
  0
VERTEX
  5
7A
  8
METAL
 10
93.62520599365233
 20
-15.23659896850586
 30
-3.45989990234375
 70
   192
  0
VERTEX
  5
7B
  8
METAL
 10
93.62520599365233
 20
-15.23659896850586
 30
4.400400161743164
 70
   192
  0
VERTEX
  5
7C
  8
METAL
 10
92.53200531005858
 20
-20.11520004272461
 30
-3.84329986572266
 70
   192
  0
VERTEX
  5
7D
  8
METAL
 10
92.53200531005858
 20
-20.11520004272461
 30
-3.84329986572266
 70
   192
  0
VERTEX
  5
7E
  8
METAL
 10
92.53200531005858
 20
-20.11520004272461
 30
4.783900260925293
 70
   192
  0
VERTEX
  5
7F
  8
METAL
 10
92.53200531005858
 20
-20.11520004272461
 30
4.783900260925293
 70
   192
  0
VERTEX
  5
80
  8
METAL
 10
92.35660552978514
 20
0.0
 30
0.4703001976013184
 70
   192
  0
VERTEX
  5
81
  8
METAL
 10
91.9339027404785
 20
-4.142101287841797
 30
-2.154499769210821
 70
   192
  0
VERTEX
  5
82
  8
METAL
 10
91.9339027404785
 20
-4.142101287841797
 30
3.095000267028809
 70
   192
  0
VERTEX
  5
83
  8
METAL
 10
91.9339027404785
 20
0.0
 30
-2.154499769210821
 70
   192
  0
VERTEX
  5
84
  8
METAL
 10
91.9339027404785
 20
0.0
 30
-2.154499769210821
 70
   192
  0
VERTEX
  5
85
  8
METAL
 10
91.9339027404785
 20
0.0
 30
3.095000267028809
 70
   192
  0
VERTEX
  5
86
  8
METAL
 10
91.9339027404785
 20
0.0
 30
3.095000267028809
 70
   192
  0
VERTEX
  5
87
  8
METAL
 10
91.59290313720702
 20
-8.767200469970703
 30
-2.05659985542297
 70
   192
  0
VERTEX
  5
88
  8
METAL
 10
91.59290313720702
 20
-8.767200469970703
 30
2.997100114822388
 70
   192
  0
VERTEX
  5
89
  8
METAL
 10
90.94570541381835
 20
-4.142101287841797
 30
-1.305499792099001
 70
   192
  0
VERTEX
  5
8A
  8
METAL
 10
90.94570541381835
 20
-4.142101287841797
 30
2.246000289916992
 70
   192
  0
VERTEX
  5
8B
  8
METAL
 10
90.94570541381835
 20
0.0
 30
-1.305499792099001
 70
   192
  0
VERTEX
  5
8C
  8
METAL
 10
90.94570541381835
 20
0.0
 30
-1.305499792099001
 70
   192
  0
VERTEX
  5
8D
  8
METAL
 10
90.94570541381835
 20
0.0
 30
2.246000289916992
 70
   192
  0
VERTEX
  5
8E
  8
METAL
 10
90.94570541381835
 20
0.0
 30
2.246000289916992
 70
   192
  0
VERTEX
  5
8F
  8
METAL
 10
90.65990447998045
 20
-8.632598876953125
 30
-1.246799826622009
 70
   192
  0
VERTEX
  5
90
  8
METAL
 10
90.65990447998045
 20
-8.632598876953125
 30
2.187300205230713
 70
   192
  0
VERTEX
  5
91
  8
METAL
 10
90.46670532226561
 20
-4.142101287841797
 30
0.4703001976013184
 70
   192
  0
VERTEX
  5
316
  8
METAL
 10
90.46670532226561
 20
0.0
 30
0.4703001976013184
 70
   192
  0
VERTEX
  5
317
  8
METAL
 10
90.46670532226561
 20
0.0
 30
0.4703001976013184
 70
   192
  0
VERTEX
  5
94
  8
METAL
 10
90.4515037536621
 20
-4.142101287841797
 30
-0.4565998017787933
 70
   192
  0
VERTEX
  5
95
  8
METAL
 10
90.4515037536621
 20
-4.142101287841797
 30
1.397100210189819
 70
   192
  0
VERTEX
  5
96
  8
METAL
 10
90.4515037536621
 20
0.0
 30
-0.4565998017787933
 70
   192
  0
VERTEX
  5
318
  8
METAL
 10
90.4515037536621
 20
0.0
 30
-0.4565998017787933
 70
   192
  0
VERTEX
  5
319
  8
METAL
 10
90.4515037536621
 20
0.0
 30
1.397100210189819
 70
   192
  0
VERTEX
  5
99
  8
METAL
 10
90.4515037536621
 20
0.0
 30
1.397100210189819
 70
   192
  0
VERTEX
  5
9A
  8
METAL
 10
90.38350296020506
 20
-24.5890007019043
 30
-0.6812998056411743
 70
   192
  0
VERTEX
  5
9B
  8
METAL
 10
90.38350296020506
 20
-24.5890007019043
 30
1.621800184249878
 70
   192
  0
VERTEX
  5
9C
  8
METAL
 10
90.38270568847655
 20
-18.7318000793457
 30
-2.975699901580811
 70
   192
  0
VERTEX
  5
9D
  8
METAL
 10
90.38270568847655
 20
-18.7318000793457
 30
3.916300296783447
 70
   192
  0
VERTEX
  5
9E
  8
METAL
 10
90.3609046936035
 20
-24.56949996948242
 30
0.4703001976013184
 70
   192
  0
VERTEX
  5
9F
  8
METAL
 10
90.24960327148436
 20
-8.573299407958984
 30
0.4703001976013184
 70
   192
  0
VERTEX
  5
A0
  8
METAL
 10
90.24960327148436
 20
-8.573299407958984
 30
0.4703001976013184
 70
   192
  0
VERTEX
  5
A1
  8
METAL
 10
90.19340515136717
 20
-8.565200805664062
 30
-0.4369998276233673
 70
   192
  0
VERTEX
  5
A2
  8
METAL
 10
90.19340515136717
 20
-8.565200805664062
 30
0.3728001713752747
 70
   192
  0
VERTEX
  5
A3
  8
METAL
 10
90.19340515136717
 20
-8.565200805664062
 30
0.567700207233429
 70
   192
  0
VERTEX
  5
A4
  8
METAL
 10
90.19340515136717
 20
-8.565200805664062
 30
1.377500176429749
 70
   192
  0
VERTEX
  5
A5
  8
METAL
 10
90.00030517578124
 20
-24.25919723510742
 30
-1.979699850082399
 70
   192
  0
VERTEX
  5
A6
  8
METAL
 10
90.00030517578124
 20
-24.25919723510742
 30
-1.979699850082399
 70
   192
  0
VERTEX
  5
A7
  8
METAL
 10
90.00030517578124
 20
-24.25919723510742
 30
2.920200109481812
 70
   192
  0
VERTEX
  5
A8
  8
METAL
 10
90.00030517578124
 20
-24.25919723510742
 30
2.920200109481812
 70
   192
  0
VERTEX
  5
A9
  8
METAL
 10
89.65490341186522
 20
-13.99020004272461
 30
-1.928099870681759
 70
   192
  0
VERTEX
  5
AA
  8
METAL
 10
89.65490341186522
 20
-13.99020004272461
 30
2.868700265884399
 70
   192
  0
VERTEX
  5
AB
  8
METAL
 10
88.81260299682616
 20
-13.72580337524414
 30
-1.16969978809357
 70
   192
  0
VERTEX
  5
AC
  8
METAL
 10
88.81260299682616
 20
-13.72580337524414
 30
2.110200166702271
 70
   192
  0
VERTEX
  5
AD
  8
METAL
 10
88.4598045349121
 20
-13.6151008605957
 30
0.4703001976013184
 70
   192
  0
VERTEX
  5
AE
  8
METAL
 10
88.4598045349121
 20
-13.6151008605957
 30
0.4703001976013184
 70
   192
  0
VERTEX
  5
AF
  8
METAL
 10
88.39140319824217
 20
-13.59360122680664
 30
-0.4112998247146606
 70
   192
  0
VERTEX
  5
B0
  8
METAL
 10
88.39140319824217
 20
-13.59360122680664
 30
0.3471001982688904
 70
   192
  0
VERTEX
  5
B1
  8
METAL
 10
88.39140319824217
 20
-13.59360122680664
 30
0.5934001803398132
 70
   192
  0
VERTEX
  5
B2
  8
METAL
 10
88.39140319824217
 20
-13.59360122680664
 30
1.351800203323364
 70
   192
  0
VERTEX
  5
B3
  8
METAL
 10
87.97250366210936
 20
-22.30279922485352
 30
-3.278099775314329
 70
   192
  0
VERTEX
  5
B4
  8
METAL
 10
87.97250366210936
 20
-22.30279922485352
 30
-3.278099775314329
 70
   192
  0
VERTEX
  5
B5
  8
METAL
 10
87.97250366210936
 20
-22.30279922485352
 30
4.218600273132324
 70
   192
  0
VERTEX
  5
B6
  8
METAL
 10
87.97250366210936
 20
-22.30279922485352
 30
4.218600273132324
 70
   192
  0
VERTEX
  5
B7
  8
METAL
 10
87.21940612792967
 20
-17.06930160522461
 30
-1.660299777984619
 70
   192
  0
VERTEX
  5
B8
  8
METAL
 10
87.21940612792967
 20
-17.06930160522461
 30
2.600900173187256
 70
   192
  0
VERTEX
  5
B9
  8
METAL
 10
86.54820251464842
 20
-16.71660232543945
 30
-1.008999824523929
 70
   192
  0
VERTEX
  5
BA
  8
METAL
 10
86.54820251464842
 20
-16.71660232543945
 30
1.949600219726562
 70
   192
  0
VERTEX
  5
BB
  8
METAL
 10
86.50540542602538
 20
-21.25100326538086
 30
-2.539099931716921
 70
   192
  0
VERTEX
  5
BC
  8
METAL
 10
86.50540542602538
 20
-21.25100326538086
 30
3.479700088500977
 70
   192
  0
VERTEX
  5
BD
  8
METAL
 10
86.30370330810545
 20
-16.58810043334961
 30
0.4703001976013184
 70
   192
  0
VERTEX
  5
BE
  8
METAL
 10
86.30370330810545
 20
-16.58810043334961
 30
0.4703001976013184
 70
   192
  0
VERTEX
  5
BF
  8
METAL
 10
86.21270370483397
 20
-16.54030227661133
 30
-0.3577998280525208
 70
   192
  0
VERTEX
  5
C0
  8
METAL
 10
86.21270370483397
 20
-16.54030227661133
 30
0.2935001850128174
 70
   192
  0
VERTEX
  5
C1
  8
METAL
 10
86.21270370483397
 20
-16.54030227661133
 30
0.6470001935958862
 70
   192
  0
VERTEX
  5
C2
  8
METAL
 10
86.21270370483397
 20
-16.54030227661133
 30
1.29830014705658
 70
   192
  0
VERTEX
  5
C3
  8
METAL
 10
84.19860458374022
 20
-19.26559829711914
 30
-1.41879975795746
 70
   192
  0
VERTEX
  5
C4
  8
METAL
 10
84.19860458374022
 20
-19.26559829711914
 30
2.359400272369385
 70
   192
  0
VERTEX
  5
C5
  8
METAL
 10
83.70920562744139
 20
-18.84430313110352
 30
-0.8640998005867004
 70
   192
  0
VERTEX
  5
C6
  8
METAL
 10
83.70920562744139
 20
-18.84430313110352
 30
1.804700136184692
 70
   192
  0
VERTEX
  5
C7
  8
METAL
 10
83.56380462646483
 20
-18.71909713745117
 30
0.4703001976013184
 70
   192
  0
VERTEX
  5
C8
  8
METAL
 10
83.56380462646483
 20
-18.71909713745117
 30
0.4703001976013184
 70
   192
  0
VERTEX
  5
C9
  8
METAL
 10
83.47610473632811
 20
-26.63879776000977
 30
0.4703001976013184
 70
   192
  0
VERTEX
  5
CA
  8
METAL
 10
83.46450424194335
 20
-18.63370132446289
 30
-0.3094998300075531
 70
   192
  0
VERTEX
  5
CB
  8
METAL
 10
83.46450424194335
 20
-18.63370132446289
 30
0.2452001869678497
 70
   192
  0
VERTEX
  5
CC
  8
METAL
 10
83.46450424194335
 20
-18.63370132446289
 30
0.6953001618385315
 70
   192
  0
VERTEX
  5
CD
  8
METAL
 10
83.46450424194335
 20
-18.63370132446289
 30
1.250000238418579
 70
   192
  0
VERTEX
  5
CE
  8
METAL
 10
82.02780532836913
 20
-27.10149765014648
 30
-0.5033998191356659
 70
   192
  0
VERTEX
  5
CF
  8
METAL
 10
82.02780532836913
 20
-27.10149765014648
 30
1.444000244140625
 70
   192
  0
VERTEX
  5
D0
  8
METAL
 10
82.0213050842285
 20
-27.0723991394043
 30
0.4703001976013184
 70
   192
  0
VERTEX
  5
D1
  8
METAL
 10
81.94480514526366
 20
-26.72649765014648
 30
-1.44609975814819
 70
   192
  0
VERTEX
  5
D2
  8
METAL
 10
81.94480514526366
 20
-26.72649765014648
 30
-1.44609975814819
 70
   192
  0
VERTEX
  5
D3
  8
METAL
 10
81.94480514526366
 20
-26.72649765014648
 30
2.38670015335083
 70
   192
  0
VERTEX
  5
D4
  8
METAL
 10
81.94480514526366
 20
-26.72649765014648
 30
2.38670015335083
 70
   192
  0
VERTEX
  5
D5
  8
METAL
 10
81.18780517578124
 20
-23.3058967590332
 30
-1.85229980945587
 70
   192
  0
VERTEX
  5
D6
  8
METAL
 10
81.18780517578124
 20
-23.3058967590332
 30
2.792800188064575
 70
   192
  0
VERTEX
  5
D7
  8
METAL
 10
80.93150329589842
 20
-24.07310104370117
 30
-2.388799905776979
 70
   192
  0
VERTEX
  5
D8
  8
METAL
 10
80.93150329589842
 20
-24.07310104370117
 30
-2.388799905776979
 70
   192
  0
VERTEX
  5
D9
  8
METAL
 10
80.93150329589842
 20
-24.07310104370117
 30
3.329300165176392
 70
   192
  0
VERTEX
  5
DA
  8
METAL
 10
80.93150329589842
 20
-24.07310104370117
 30
3.329300165176392
 70
   192
  0
VERTEX
  5
DB
  8
METAL
 10
80.68820571899413
 20
-21.04819869995117
 30
-1.03889977931976
 70
   192
  0
VERTEX
  5
DC
  8
METAL
 10
80.68820571899413
 20
-21.04819869995117
 30
1.9795001745224
 70
   192
  0
VERTEX
  5
DD
  8
METAL
 10
80.58220291137694
 20
-20.5692024230957
 30
-0.6361998319625854
 70
   192
  0
VERTEX
  5
DE
  8
METAL
 10
80.58220291137694
 20
-20.5692024230957
 30
1.576700210571289
 70
   192
  0
VERTEX
  5
DF
  8
METAL
 10
80.56880569458006
 20
-20.50870132446289
 30
0.4703001976013184
 70
   192
  0
VERTEX
  5
E0
  8
METAL
 10
80.56880569458006
 20
-20.50870132446289
 30
0.4703001976013184
 70
   192
  0
VERTEX
  5
E1
  8
METAL
 10
80.52920532226561
 20
-20.3297004699707
 30
-0.2334998100996017
 70
   192
  0
VERTEX
  5
E2
  8
METAL
 10
80.52920532226561
 20
-20.3297004699707
 30
0.1693001836538315
 70
   192
  0
VERTEX
  5
E3
  8
METAL
 10
80.52920532226561
 20
-20.3297004699707
 30
0.771300196647644
 70
   192
  0
VERTEX
  5
E4
  8
METAL
 10
80.52920532226561
 20
-20.3297004699707
 30
1.174000144004822
 70
   192
  0
VERTEX
  5
E5
  8
METAL
 10
71.43170356750487
 20
-28.34610366821289
 30
-0.5033998191356659
 70
   192
  0
VERTEX
  5
E6
  8
METAL
 10
71.43170356750487
 20
-28.34610366821289
 30
1.444000244140625
 70
   192
  0
VERTEX
  5
E7
  8
METAL
 10
71.43090438842772
 20
-28.31630325317383
 30
0.4703001976013184
 70
   192
  0
VERTEX
  5
E8
  8
METAL
 10
71.42140388488768
 20
-27.96220016479492
 30
-1.44609975814819
 70
   192
  0
VERTEX
  5
E9
  8
METAL
 10
71.42140388488768
 20
-27.96220016479492
 30
-1.44609975814819
 70
   192
  0
VERTEX
  5
EA
  8
METAL
 10
71.42140388488768
 20
-27.96220016479492
 30
2.38670015335083
 70
   192
  0
VERTEX
  5
EB
  8
METAL
 10
71.42140388488768
 20
-27.96220016479492
 30
2.38670015335083
 70
   192
  0
VERTEX
  5
EC
  8
METAL
 10
71.32770347595213
 20
-24.46010208129883
 30
-1.85229980945587
 70
   192
  0
VERTEX
  5
ED
  8
METAL
 10
71.32770347595213
 20
-24.46010208129883
 30
2.792800188064575
 70
   192
  0
VERTEX
  5
EE
  8
METAL
 10
71.26590347290038
 20
-22.14860153198242
 30
-1.03889977931976
 70
   192
  0
VERTEX
  5
EF
  8
METAL
 10
71.26590347290038
 20
-22.14860153198242
 30
1.9795001745224
 70
   192
  0
VERTEX
  5
F0
  8
METAL
 10
71.25280380249022
 20
-21.65819931030273
 30
-0.6361998319625854
 70
   192
  0
VERTEX
  5
F1
  8
METAL
 10
71.25280380249022
 20
-21.65819931030273
 30
1.576700210571289
 70
   192
  0
VERTEX
  5
F2
  8
METAL
 10
71.25120353698729
 20
-21.5963020324707
 30
0.4703001976013184
 70
   192
  0
VERTEX
  5
F3
  8
METAL
 10
71.25120353698729
 20
-21.5963020324707
 30
0.4703001976013184
 70
   192
  0
VERTEX
  5
F4
  8
METAL
 10
71.2463035583496
 20
-21.41299819946289
 30
-0.2334998100996017
 70
   192
  0
VERTEX
  5
F5
  8
METAL
 10
71.2463035583496
 20
-21.41299819946289
 30
0.1693001836538315
 70
   192
  0
VERTEX
  5
F6
  8
METAL
 10
71.2463035583496
 20
-21.41299819946289
 30
0.771300196647644
 70
   192
  0
VERTEX
  5
F7
  8
METAL
 10
71.2463035583496
 20
-21.41299819946289
 30
1.174000144004822
 70
   192
  0
VERTEX
  5
F8
  8
METAL
 10
43.55820441246031
 20
-28.7650032043457
 30
0.4703001976013184
 70
   192
  0
VERTEX
  5
F9
  8
METAL
 10
0.2117042541503764
 20
-28.73550033569336
 30
0.4703001976013184
 70
   192
  0
VERTEX
  5
FA
  8
METAL
 10
0.2117042541503764
 20
-28.6818962097168
 30
-0.3844998180866241
 70
   192
  0
VERTEX
  5
FB
  8
METAL
 10
0.2117042541503764
 20
-28.6818962097168
 30
1.325000166893005
 70
   192
  0
VERTEX
  5
FC
  8
METAL
 10
0.2117042541503764
 20
-28.37499618530273
 30
-1.024899840354919
 70
   192
  0
VERTEX
  5
FD
  8
METAL
 10
0.2117042541503764
 20
-28.37499618530273
 30
-1.024899840354919
 70
   192
  0
VERTEX
  5
FE
  8
METAL
 10
0.2117042541503764
 20
-28.37499618530273
 30
1.965400218963623
 70
   192
  0
VERTEX
  5
FF
  8
METAL
 10
0.2117042541503764
 20
-28.37499618530273
 30
1.965400218963623
 70
   192
  0
VERTEX
  5
100
  8
METAL
 10
0.2117042541503764
 20
-24.05379867553711
 30
-1.90139985084534
 70
   192
  0
VERTEX
  5
101
  8
METAL
 10
0.2117042541503764
 20
-24.05379867553711
 30
2.841900110244751
 70
   192
  0
VERTEX
  5
102
  8
METAL
 10
0.2117042541503764
 20
-22.08810043334961
 30
-1.17609977722168
 70
   192
  0
VERTEX
  5
103
  8
METAL
 10
0.2117042541503764
 20
-22.08810043334961
 30
2.116600275039673
 70
   192
  0
VERTEX
  5
104
  8
METAL
 10
0.2117042541503764
 20
-21.55859756469727
 30
-0.7276998162269592
 70
   192
  0
VERTEX
  5
105
  8
METAL
 10
0.2117042541503764
 20
-21.55859756469727
 30
1.668200135231018
 70
   192
  0
VERTEX
  5
106
  8
METAL
 10
0.2117042541503764
 20
-21.4723014831543
 30
0.4703001976013184
 70
   192
  0
VERTEX
  5
107
  8
METAL
 10
0.2117042541503764
 20
-21.4723014831543
 30
0.4703001976013184
 70
   192
  0
VERTEX
  5
108
  8
METAL
 10
0.2117042541503764
 20
-21.29379653930664
 30
-0.2793998122215271
 70
   192
  0
VERTEX
  5
109
  8
METAL
 10
0.2117042541503764
 20
-21.29379653930664
 30
0.168900191783905
 70
   192
  0
VERTEX
  5
10A
  8
METAL
 10
0.2117042541503764
 20
-21.29379653930664
 30
0.7716001868247986
 70
   192
  0
VERTEX
  5
10B
  8
METAL
 10
0.2117042541503764
 20
-21.29379653930664
 30
1.219900131225586
 70
   192
  0
VERTEX
  5
10C
  8
METAL
 10
-0.3328971862793111
 20
-28.74260330200195
 30
0.4703001976013184
 70
   192
  0
VERTEX
  5
10D
  8
METAL
 10
-70.82289886474611
 20
-21.41299819946289
 30
-0.2334998100996017
 70
   192
  0
VERTEX
  5
10E
  8
METAL
 10
-70.82289886474611
 20
-21.41299819946289
 30
0.1693001836538315
 70
   192
  0
VERTEX
  5
10F
  8
METAL
 10
-70.82289886474611
 20
-21.41299819946289
 30
0.771300196647644
 70
   192
  0
VERTEX
  5
110
  8
METAL
 10
-70.82289886474611
 20
-21.41299819946289
 30
1.174000144004822
 70
   192
  0
VERTEX
  5
111
  8
METAL
 10
-70.8277969360352
 20
-21.5963020324707
 30
0.4703001976013184
 70
   192
  0
VERTEX
  5
112
  8
METAL
 10
-70.8277969360352
 20
-21.5963020324707
 30
0.4703001976013184
 70
   192
  0
VERTEX
  5
113
  8
METAL
 10
-70.8294982910156
 20
-21.65819931030273
 30
-0.6361998319625854
 70
   192
  0
VERTEX
  5
114
  8
METAL
 10
-70.8294982910156
 20
-21.65819931030273
 30
1.576700210571289
 70
   192
  0
VERTEX
  5
115
  8
METAL
 10
-70.8425979614258
 20
-22.14860153198242
 30
-1.03889977931976
 70
   192
  0
VERTEX
  5
116
  8
METAL
 10
-70.8425979614258
 20
-22.14860153198242
 30
1.9795001745224
 70
   192
  0
VERTEX
  5
117
  8
METAL
 10
-70.9043960571289
 20
-24.46010208129883
 30
-1.85229980945587
 70
   192
  0
VERTEX
  5
118
  8
METAL
 10
-70.9043960571289
 20
-24.46010208129883
 30
2.792800188064575
 70
   192
  0
VERTEX
  5
119
  8
METAL
 10
-70.9980926513672
 20
-27.96220016479492
 30
-1.44609975814819
 70
   192
  0
VERTEX
  5
11A
  8
METAL
 10
-70.9980926513672
 20
-27.96220016479492
 30
-1.44609975814819
 70
   192
  0
VERTEX
  5
11B
  8
METAL
 10
-70.9980926513672
 20
-27.96220016479492
 30
2.38670015335083
 70
   192
  0
VERTEX
  5
11C
  8
METAL
 10
-70.9980926513672
 20
-27.96220016479492
 30
2.38670015335083
 70
   192
  0
VERTEX
  5
11D
  8
METAL
 10
-71.0074920654297
 20
-28.31630325317383
 30
0.4703001976013184
 70
   192
  0
VERTEX
  5
11E
  8
METAL
 10
-71.0082931518555
 20
-28.34610366821289
 30
-0.5033998191356659
 70
   192
  0
VERTEX
  5
11F
  8
METAL
 10
-71.0082931518555
 20
-28.34610366821289
 30
1.444000244140625
 70
   192
  0
VERTEX
  5
120
  8
METAL
 10
-80.1058959960938
 20
-20.3297004699707
 30
-0.2334998100996017
 70
   192
  0
VERTEX
  5
121
  8
METAL
 10
-80.1058959960938
 20
-20.3297004699707
 30
0.1693001836538315
 70
   192
  0
VERTEX
  5
122
  8
METAL
 10
-80.1058959960938
 20
-20.3297004699707
 30
0.771300196647644
 70
   192
  0
VERTEX
  5
123
  8
METAL
 10
-80.1058959960938
 20
-20.3297004699707
 30
1.174000144004822
 70
   192
  0
VERTEX
  5
124
  8
METAL
 10
-80.1454925537109
 20
-20.50870132446289
 30
0.4703001976013184
 70
   192
  0
VERTEX
  5
125
  8
METAL
 10
-80.1454925537109
 20
-20.50870132446289
 30
0.4703001976013184
 70
   192
  0
VERTEX
  5
126
  8
METAL
 10
-80.1588973999024
 20
-20.5692024230957
 30
-0.6361998319625854
 70
   192
  0
VERTEX
  5
127
  8
METAL
 10
-80.1588973999024
 20
-20.5692024230957
 30
1.576700210571289
 70
   192
  0
VERTEX
  5
128
  8
METAL
 10
-80.264892578125
 20
-21.04819869995117
 30
-1.03889977931976
 70
   192
  0
VERTEX
  5
129
  8
METAL
 10
-80.264892578125
 20
-21.04819869995117
 30
1.9795001745224
 70
   192
  0
VERTEX
  5
12A
  8
METAL
 10
-80.7644958496094
 20
-23.3058967590332
 30
-1.85229980945587
 70
   192
  0
VERTEX
  5
12B
  8
METAL
 10
-80.7644958496094
 20
-23.3058967590332
 30
2.792800188064575
 70
   192
  0
VERTEX
  5
12C
  8
METAL
 10
-81.2511978149414
 20
-25.23250198364258
 30
-2.388799905776979
 70
   192
  0
VERTEX
  5
12D
  8
METAL
 10
-81.2511978149414
 20
-25.23250198364258
 30
3.329300165176392
 70
   192
  0
VERTEX
  5
12E
  8
METAL
 10
-81.5214920043945
 20
-26.72649765014648
 30
-1.44609975814819
 70
   192
  0
VERTEX
  5
12F
  8
METAL
 10
-81.5214920043945
 20
-26.72649765014648
 30
-1.44609975814819
 70
   192
  0
VERTEX
  5
130
  8
METAL
 10
-81.5214920043945
 20
-26.72649765014648
 30
2.38670015335083
 70
   192
  0
VERTEX
  5
131
  8
METAL
 10
-81.5214920043945
 20
-26.72649765014648
 30
2.38670015335083
 70
   192
  0
VERTEX
  5
132
  8
METAL
 10
-81.5979919433594
 20
-27.0723991394043
 30
0.4703001976013184
 70
   192
  0
VERTEX
  5
133
  8
METAL
 10
-81.6044921875
 20
-27.10149765014648
 30
-0.5033998191356659
 70
   192
  0
VERTEX
  5
134
  8
METAL
 10
-81.6044921875
 20
-27.10149765014648
 30
1.444000244140625
 70
   192
  0
VERTEX
  5
135
  8
METAL
 10
-83.0411987304688
 20
-18.63370132446289
 30
-0.3094998300075531
 70
   192
  0
VERTEX
  5
136
  8
METAL
 10
-83.0411987304688
 20
-18.63370132446289
 30
0.2452001869678497
 70
   192
  0
VERTEX
  5
137
  8
METAL
 10
-83.0411987304688
 20
-18.63370132446289
 30
0.6953001618385315
 70
   192
  0
VERTEX
  5
138
  8
METAL
 10
-83.0411987304688
 20
-18.63370132446289
 30
1.250000238418579
 70
   192
  0
VERTEX
  5
139
  8
METAL
 10
-83.0527954101563
 20
-26.63879776000977
 30
0.4703001976013184
 70
   192
  0
VERTEX
  5
13A
  8
METAL
 10
-83.140495300293
 20
-18.71909713745117
 30
0.4703001976013184
 70
   192
  0
VERTEX
  5
13B
  8
METAL
 10
-83.140495300293
 20
-18.71909713745117
 30
0.4703001976013184
 70
   192
  0
VERTEX
  5
13C
  8
METAL
 10
-83.2858963012695
 20
-18.84430313110352
 30
-0.8640998005867004
 70
   192
  0
VERTEX
  5
13D
  8
METAL
 10
-83.2858963012695
 20
-18.84430313110352
 30
1.804700136184692
 70
   192
  0
VERTEX
  5
13E
  8
METAL
 10
-83.7752990722656
 20
-19.26559829711914
 30
-1.41879975795746
 70
   192
  0
VERTEX
  5
13F
  8
METAL
 10
-83.7752990722656
 20
-19.26559829711914
 30
2.359400272369385
 70
   192
  0
VERTEX
  5
140
  8
METAL
 10
-85.7892913818359
 20
-16.54030227661133
 30
-0.3577998280525208
 70
   192
  0
VERTEX
  5
141
  8
METAL
 10
-85.7892913818359
 20
-16.54030227661133
 30
0.2935001850128174
 70
   192
  0
VERTEX
  5
142
  8
METAL
 10
-85.7892913818359
 20
-16.54030227661133
 30
0.6470001935958862
 70
   192
  0
VERTEX
  5
143
  8
METAL
 10
-85.7892913818359
 20
-16.54030227661133
 30
1.29830014705658
 70
   192
  0
VERTEX
  5
144
  8
METAL
 10
-85.88040161132811
 20
-16.58810043334961
 30
0.4703001976013184
 70
   192
  0
VERTEX
  5
145
  8
METAL
 10
-85.88040161132811
 20
-16.58810043334961
 30
0.4703001976013184
 70
   192
  0
VERTEX
  5
146
  8
METAL
 10
-86.08209228515629
 20
-21.25100326538086
 30
-2.539099931716921
 70
   192
  0
VERTEX
  5
147
  8
METAL
 10
-86.08209228515629
 20
-21.25100326538086
 30
3.479700088500977
 70
   192
  0
VERTEX
  5
148
  8
METAL
 10
-86.1248931884766
 20
-16.71660232543945
 30
-1.008999824523929
 70
   192
  0
VERTEX
  5
149
  8
METAL
 10
-86.1248931884766
 20
-16.71660232543945
 30
1.949600219726562
 70
   192
  0
VERTEX
  5
14A
  8
METAL
 10
-86.79598999023439
 20
-17.06930160522461
 30
-1.660299777984619
 70
   192
  0
VERTEX
  5
14B
  8
METAL
 10
-86.79598999023439
 20
-17.06930160522461
 30
2.600900173187256
 70
   192
  0
VERTEX
  5
14C
  8
METAL
 10
-87.6497955322266
 20
-22.93320083618164
 30
-3.278099775314329
 70
   192
  0
VERTEX
  5
14D
  8
METAL
 10
-87.6497955322266
 20
-22.93320083618164
 30
-3.278099775314329
 70
   192
  0
VERTEX
  5
14E
  8
METAL
 10
-87.6497955322266
 20
-22.93320083618164
 30
4.218600273132324
 70
   192
  0
VERTEX
  5
14F
  8
METAL
 10
-87.6497955322266
 20
-22.93320083618164
 30
4.218600273132324
 70
   192
  0
VERTEX
  5
150
  8
METAL
 10
-87.9680938720703
 20
-13.59360122680664
 30
-0.4112998247146606
 70
   192
  0
VERTEX
  5
151
  8
METAL
 10
-87.9680938720703
 20
-13.59360122680664
 30
0.3471001982688904
 70
   192
  0
VERTEX
  5
152
  8
METAL
 10
-87.9680938720703
 20
-13.59360122680664
 30
0.5934001803398132
 70
   192
  0
VERTEX
  5
153
  8
METAL
 10
-87.9680938720703
 20
-13.59360122680664
 30
1.351800203323364
 70
   192
  0
VERTEX
  5
154
  8
METAL
 10
-88.03649902343751
 20
-13.6151008605957
 30
0.4703001976013184
 70
   192
  0
VERTEX
  5
155
  8
METAL
 10
-88.03649902343751
 20
-13.6151008605957
 30
0.4703001976013184
 70
   192
  0
VERTEX
  5
156
  8
METAL
 10
-88.3892974853516
 20
-13.72580337524414
 30
-1.16969978809357
 70
   192
  0
VERTEX
  5
157
  8
METAL
 10
-88.3892974853516
 20
-13.72580337524414
 30
2.110200166702271
 70
   192
  0
VERTEX
  5
158
  8
METAL
 10
-89.23159790039061
 20
-13.99020004272461
 30
-1.928099870681759
 70
   192
  0
VERTEX
  5
159
  8
METAL
 10
-89.23159790039061
 20
-13.99020004272461
 30
2.868700265884399
 70
   192
  0
VERTEX
  5
15A
  8
METAL
 10
-89.57699584960939
 20
-24.25919723510742
 30
-1.979699850082399
 70
   192
  0
VERTEX
  5
15B
  8
METAL
 10
-89.57699584960939
 20
-24.25919723510742
 30
2.920200109481812
 70
   192
  0
VERTEX
  5
15C
  8
METAL
 10
-89.7700958251953
 20
-8.565200805664062
 30
-0.4369998276233673
 70
   192
  0
VERTEX
  5
15D
  8
METAL
 10
-89.7700958251953
 20
-8.565200805664062
 30
0.3728001713752747
 70
   192
  0
VERTEX
  5
15E
  8
METAL
 10
-89.7700958251953
 20
-8.565200805664062
 30
0.567700207233429
 70
   192
  0
VERTEX
  5
15F
  8
METAL
 10
-89.7700958251953
 20
-8.565200805664062
 30
1.377500176429749
 70
   192
  0
VERTEX
  5
160
  8
METAL
 10
-89.82629394531251
 20
-8.573299407958984
 30
0.4703001976013184
 70
   192
  0
VERTEX
  5
161
  8
METAL
 10
-89.82629394531251
 20
-8.573299407958984
 30
0.4703001976013184
 70
   192
  0
VERTEX
  5
162
  8
METAL
 10
-89.93750000000001
 20
-24.56949996948242
 30
0.4703001976013184
 70
   192
  0
VERTEX
  5
163
  8
METAL
 10
-89.95928955078129
 20
-18.7318000793457
 30
-2.975699901580811
 70
   192
  0
VERTEX
  5
164
  8
METAL
 10
-89.95928955078129
 20
-18.7318000793457
 30
3.916300296783447
 70
   192
  0
VERTEX
  5
165
  8
METAL
 10
-89.9601898193359
 20
-24.5890007019043
 30
-0.6812998056411743
 70
   192
  0
VERTEX
  5
166
  8
METAL
 10
-89.9601898193359
 20
-24.5890007019043
 30
1.621800184249878
 70
   192
  0
VERTEX
  5
167
  8
METAL
 10
-90.02819824218751
 20
-4.142101287841797
 30
-0.4565998017787933
 70
   192
  0
VERTEX
  5
168
  8
METAL
 10
-90.02819824218751
 20
-4.142101287841797
 30
1.397100210189819
 70
   192
  0
VERTEX
  5
169
  8
METAL
 10
-90.02819824218751
 20
0.0
 30
-0.4565998017787933
 70
   192
  0
VERTEX
  5
16A
  8
METAL
 10
-90.02819824218751
 20
0.0
 30
-0.4565998017787933
 70
   192
  0
VERTEX
  5
16B
  8
METAL
 10
-90.02819824218751
 20
0.0
 30
1.397100210189819
 70
   192
  0
VERTEX
  5
16C
  8
METAL
 10
-90.02819824218751
 20
0.0
 30
1.397100210189819
 70
   192
  0
VERTEX
  5
16D
  8
METAL
 10
-90.0432891845703
 20
-4.142101287841797
 30
0.4703001976013184
 70
   192
  0
VERTEX
  5
16E
  8
METAL
 10
-90.0432891845703
 20
0.0
 30
0.4703001976013184
 70
   192
  0
VERTEX
  5
16F
  8
METAL
 10
-90.0432891845703
 20
0.0
 30
0.4703001976013184
 70
   192
  0
VERTEX
  5
170
  8
METAL
 10
-90.23660278320311
 20
-8.632598876953125
 30
-1.246799826622009
 70
   192
  0
VERTEX
  5
171
  8
METAL
 10
-90.23660278320311
 20
-8.632598876953125
 30
2.187300205230713
 70
   192
  0
VERTEX
  5
172
  8
METAL
 10
-90.5222930908203
 20
-4.142101287841797
 30
-1.305499792099001
 70
   192
  0
VERTEX
  5
173
  8
METAL
 10
-90.5222930908203
 20
-4.142101287841797
 30
2.246000289916992
 70
   192
  0
VERTEX
  5
174
  8
METAL
 10
-90.5222930908203
 20
0.0
 30
-1.305499792099001
 70
   192
  0
VERTEX
  5
175
  8
METAL
 10
-90.5222930908203
 20
0.0
 30
-1.305499792099001
 70
   192
  0
VERTEX
  5
176
  8
METAL
 10
-90.5222930908203
 20
0.0
 30
2.246000289916992
 70
   192
  0
VERTEX
  5
177
  8
METAL
 10
-90.5222930908203
 20
0.0
 30
2.246000289916992
 70
   192
  0
VERTEX
  5
178
  8
METAL
 10
-91.1696014404297
 20
-8.767200469970703
 30
-2.05659985542297
 70
   192
  0
VERTEX
  5
179
  8
METAL
 10
-91.1696014404297
 20
-8.767200469970703
 30
2.997100114822388
 70
   192
  0
VERTEX
  5
17A
  8
METAL
 10
-91.51058959960939
 20
-4.142101287841797
 30
-2.154499769210821
 70
   192
  0
VERTEX
  5
17B
  8
METAL
 10
-91.51058959960939
 20
-4.142101287841797
 30
3.095000267028809
 70
   192
  0
VERTEX
  5
17C
  8
METAL
 10
-91.51058959960939
 20
0.0
 30
-2.154499769210821
 70
   192
  0
VERTEX
  5
17D
  8
METAL
 10
-91.51058959960939
 20
0.0
 30
-2.154499769210821
 70
   192
  0
VERTEX
  5
17E
  8
METAL
 10
-91.51058959960939
 20
0.0
 30
3.095000267028809
 70
   192
  0
VERTEX
  5
17F
  8
METAL
 10
-91.51058959960939
 20
0.0
 30
3.095000267028809
 70
   192
  0
VERTEX
  5
180
  8
METAL
 10
-91.93328857421879
 20
0.0
 30
0.4703001976013184
 70
   192
  0
VERTEX
  5
181
  8
METAL
 10
-92.3203887939453
 20
-20.64130020141602
 30
-3.8433997631073
 70
   192
  0
VERTEX
  5
182
  8
METAL
 10
-92.3203887939453
 20
-20.64130020141602
 30
-3.8433997631073
 70
   192
  0
VERTEX
  5
183
  8
METAL
 10
-92.3203887939453
 20
-20.64130020141602
 30
4.783900260925293
 70
   192
  0
VERTEX
  5
184
  8
METAL
 10
-92.3203887939453
 20
-20.64130020141602
 30
4.783900260925293
 70
   192
  0
VERTEX
  5
185
  8
METAL
 10
-93.2018890380859
 20
-15.23659896850586
 30
-3.45989990234375
 70
   192
  0
VERTEX
  5
186
  8
METAL
 10
-93.2018890380859
 20
-15.23659896850586
 30
4.400400161743164
 70
   192
  0
VERTEX
  5
187
  8
METAL
 10
-94.7520904541016
 20
-21.2505989074707
 30
-2.31889986991882
 70
   192
  0
VERTEX
  5
188
  8
METAL
 10
-94.7520904541016
 20
-21.2505989074707
 30
3.259400129318237
 70
   192
  0
VERTEX
  5
189
  8
METAL
 10
-95.2484893798828
 20
-21.51150131225586
 30
0.4703001976013184
 70
   192
  0
VERTEX
  5
18A
  8
METAL
 10
-95.2776031494141
 20
-21.52679824829102
 30
-0.7943997979164124
 70
   192
  0
VERTEX
  5
18B
  8
METAL
 10
-95.2776031494141
 20
-21.52679824829102
 30
1.734900236129761
 70
   192
  0
VERTEX
  5
18C
  8
METAL
 10
-95.56719970703129
 20
-9.402000427246094
 30
-3.691999912261959
 70
   192
  0
VERTEX
  5
18D
  8
METAL
 10
-95.56719970703129
 20
-9.402000427246094
 30
4.6326003074646
 70
   192
  0
VERTEX
  5
18E
  8
METAL
 10
-96.16870117187501
 20
-4.142101287841797
 30
-3.86909985542297
 70
   192
  0
VERTEX
  5
18F
  8
METAL
 10
-96.16870117187501
 20
-4.142101287841797
 30
4.809600353240967
 70
   192
  0
VERTEX
  5
190
  8
METAL
 10
-96.16870117187501
 20
0.0
 30
-3.86909985542297
 70
   192
  0
VERTEX
  5
191
  8
METAL
 10
-96.16870117187501
 20
0.0
 30
-3.86909985542297
 70
   192
  0
VERTEX
  5
192
  8
METAL
 10
-96.16870117187501
 20
0.0
 30
4.809600353240967
 70
   192
  0
VERTEX
  5
193
  8
METAL
 10
-96.16870117187501
 20
0.0
 30
4.809600353240967
 70
   192
  0
VERTEX
  5
194
  8
METAL
 10
-96.84849548339851
 20
0.0
 30
-2.159199714660639
 70
   192
  0
VERTEX
  5
195
  8
METAL
 10
-96.84849548339851
 20
0.0
 30
3.099700212478638
 70
   192
  0
VERTEX
  5
196
  8
METAL
 10
-96.9882965087891
 20
0.0
 30
-0.7410998344421387
 70
   192
  0
VERTEX
  5
197
  8
METAL
 10
-96.9882965087891
 20
0.0
 30
0.4703001976013184
 70
   192
  0
VERTEX
  5
198
  8
METAL
 10
-96.9882965087891
 20
0.0
 30
1.681700229644775
 70
   192
  0
VERTEX
  5
199
  8
METAL
 10
-97.10479736328129
 20
-16.38560104370117
 30
-4.470199584960939
 70
   192
  0
VERTEX
  5
19A
  8
METAL
 10
-97.10479736328129
 20
-16.38560104370117
 30
-4.470199584960939
 70
   192
  0
VERTEX
  5
19B
  8
METAL
 10
-97.10479736328129
 20
-16.38560104370117
 30
5.41070032119751
 70
   192
  0
VERTEX
  5
19C
  8
METAL
 10
-97.10479736328129
 20
-16.38560104370117
 30
5.41070032119751
 70
   192
  0
VERTEX
  5
19D
  8
METAL
 10
-99.2173004150391
 20
-17.12499618530273
 30
-2.6949999332428
 70
   192
  0
VERTEX
  5
19E
  8
METAL
 10
-99.2173004150391
 20
-17.12499618530273
 30
3.635500192642212
 70
   192
  0
VERTEX
  5
19F
  8
METAL
 10
-99.84239196777351
 20
-17.32120132446289
 30
0.4703001976013184
 70
   192
  0
VERTEX
  5
1A0
  8
METAL
 10
-99.87689208984379
 20
-17.33199691772461
 30
-0.9196997880935669
 70
   192
  0
VERTEX
  5
1A1
  8
METAL
 10
-99.87689208984379
 20
-17.33199691772461
 30
1.860200166702271
 70
   192
  0
VERTEX
  5
1A2
  8
METAL
 10
-100.7201995849609
 20
-10.14590072631836
 30
-4.77079963684082
 70
   192
  0
VERTEX
  5
1A3
  8
METAL
 10
-100.7201995849609
 20
-10.14590072631836
 30
-4.77079963684082
 70
   192
  0
VERTEX
  5
1A4
  8
METAL
 10
-100.7201995849609
 20
-10.14590072631836
 30
5.711300373077393
 70
   192
  0
VERTEX
  5
1A5
  8
METAL
 10
-100.7201995849609
 20
-10.14590072631836
 30
5.711300373077393
 70
   192
  0
VERTEX
  5
1A6
  8
METAL
 10
-101.6269989013672
 20
-4.142101287841797
 30
-5.0
 70
   192
  0
VERTEX
  5
1A7
  8
METAL
 10
-101.6269989013672
 20
-4.142101287841797
 30
-5.0
 70
   192
  0
VERTEX
  5
1A8
  8
METAL
 10
-101.6269989013672
 20
-4.142101287841797
 30
5.940500259399414
 70
   192
  0
VERTEX
  5
1A9
  8
METAL
 10
-101.6269989013672
 20
-4.142101287841797
 30
5.940500259399414
 70
   192
  0
VERTEX
  5
1AA
  8
METAL
 10
-101.6269989013672
 20
0.0
 30
-5.0
 70
   192
  0
VERTEX
  5
1AB
  8
METAL
 10
-101.6269989013672
 20
0.0
 30
-5.0
 70
   192
  0
VERTEX
  5
1AC
  8
METAL
 10
-101.6269989013672
 20
0.0
 30
-5.0
 70
   192
  0
VERTEX
  5
1AD
  8
METAL
 10
-101.6269989013672
 20
0.0
 30
5.940500259399414
 70
   192
  0
VERTEX
  5
1AE
  8
METAL
 10
-101.6269989013672
 20
0.0
 30
5.940500259399414
 70
   192
  0
VERTEX
  5
1AF
  8
METAL
 10
-101.6269989013672
 20
0.0
 30
5.940500259399414
 70
   192
  0
VERTEX
  5
1B0
  8
METAL
 10
-102.2298889160156
 20
-10.36379623413086
 30
-2.87529993057251
 70
   192
  0
VERTEX
  5
1B1
  8
METAL
 10
-102.2298889160156
 20
-10.36379623413086
 30
3.815800189971924
 70
   192
  0
VERTEX
  5
1B2
  8
METAL
 10
-102.9232025146485
 20
-10.46390151977539
 30
0.4703001976013184
 70
   192
  0
VERTEX
  5
1B3
  8
METAL
 10
-102.9604949951172
 20
-10.46930313110352
 30
-0.9797998070716858
 70
   192
  0
VERTEX
  5
1B4
  8
METAL
 10
-102.9604949951172
 20
-10.46930313110352
 30
1.920400142669678
 70
   192
  0
VERTEX
  5
1B5
  8
METAL
 10
-103.1745910644531
 20
0.0
 30
-3.01279973983765
 70
   192
  0
VERTEX
  5
1B6
  8
METAL
 10
-103.1745910644531
 20
0.0
 30
-3.01279973983765
 70
   192
  0
VERTEX
  5
1B7
  8
METAL
 10
-103.1745910644531
 20
0.0
 30
3.953400135040283
 70
   192
  0
VERTEX
  5
1B8
  8
METAL
 10
-103.1745910644531
 20
0.0
 30
3.953400135040283
 70
   192
  0
VERTEX
  5
1B9
  8
METAL
 10
-103.2261962890625
 20
-4.142101287841797
 30
-3.01279973983765
 70
   192
  0
VERTEX
  5
1BA
  8
METAL
 10
-103.2261962890625
 20
-4.142101287841797
 30
3.953400135040283
 70
   192
  0
VERTEX
  5
1BB
  8
METAL
 10
-103.9483947753906
 20
0.0
 30
-1.025699853897089
 70
   192
  0
VERTEX
  5
1BC
  8
METAL
 10
-103.9483947753906
 20
0.0
 30
-1.025699853897089
 70
   192
  0
VERTEX
  5
1BD
  8
METAL
 10
-103.9483947753906
 20
0.0
 30
0.4703001976013184
 70
   192
  0
VERTEX
  5
1BE
  8
METAL
 10
-103.9483947753906
 20
0.0
 30
0.4703001976013184
 70
   192
  0
VERTEX
  5
1BF
  8
METAL
 10
-103.9483947753906
 20
0.0
 30
1.966200232505798
 70
   192
  0
VERTEX
  5
1C0
  8
METAL
 10
-103.9483947753906
 20
0.0
 30
1.966200232505798
 70
   192
  0
VERTEX
  5
1C1
  8
METAL
 10
-103.9610900878906
 20
-4.142101287841797
 30
0.4703001976013184
 70
   192
  0
VERTEX
  5
1C2
  8
METAL
 10
-104.0
 20
-4.142101287841797
 30
-1.025699853897089
 70
   192
  0
VERTEX
  5
1C3
  8
METAL
 10
-104.0
 20
-4.142101287841797
 30
1.966200232505798
 70
   192
  0
VERTEX
  5
1C4
  8
METAL
 10
0.0
 20
0.0
 30
0.0
 70
   128
 71
    52
 72
    27
 73
    22
 74
    49
  0
VERTEX
  5
1C5
  8
METAL
 10
0.0
 20
0.0
 30
0.0
 70
   128
 71
    26
 72
    51
 73
    47
 74
    13
  0
VERTEX
  5
1C6
  8
METAL
 10
0.0
 20
0.0
 30
0.0
 70
   128
 71
    77
 72
    80
 73
    72
 74
    69
  0
VERTEX
  5
1C7
  8
METAL
 10
0.0
 20
0.0
 30
0.0
 70
   128
 71
    13
 72
    47
 73
    44
 74
     5
  0
VERTEX
  5
1C8
  8
METAL
 10
0.0
 20
0.0
 30
0.0
 70
   128
 71
     7
 72
     5
 73
    44
 74
    45
  0
VERTEX
  5
1C9
  8
METAL
 10
0.0
 20
0.0
 30
0.0
 70
   128
 71
    88
 72
    91
 73
    80
 74
    77
  0
VERTEX
  5
1CA
  8
METAL
 10
0.0
 20
0.0
 30
0.0
 70
   128
 71
    85
 72
    87
 73
    91
 74
    88
  0
VERTEX
  5
1CB
  8
METAL
 10
0.0
 20
0.0
 30
0.0
 70
   128
 71
    10
 72
    12
 73
     4
 74
     1
  0
VERTEX
  5
1CC
  8
METAL
 10
0.0
 20
0.0
 30
0.0
 70
   128
 71
    21
 72
    25
 73
    12
 74
    10
  0
VERTEX
  5
1CD
  8
METAL
 10
0.0
 20
0.0
 30
0.0
 70
   128
 71
    72
 72
    52
 73
    49
 74
    69
  0
VERTEX
  5
1CE
  8
METAL
 10
0.0
 20
0.0
 30
0.0
 70
   128
 71
    47
 72
    51
 73
    71
 74
    79
  0
VERTEX
  5
1CF
  8
METAL
 10
0.0
 20
0.0
 30
0.0
 70
   128
 71
    44
 72
    47
 73
    79
 74
    90
  0
VERTEX
  5
1D0
  8
METAL
 10
0.0
 20
0.0
 30
0.0
 70
   128
 71
    49
 72
    55
 73
    75
 74
    69
  0
VERTEX
  5
1D1
  8
METAL
 10
0.0
 20
0.0
 30
0.0
 70
   128
 71
    69
 72
    75
 73
    83
 74
    77
  0
VERTEX
  5
1D2
  8
METAL
 10
0.0
 20
0.0
 30
0.0
 70
   128
 71
    77
 72
    83
 73
   101
 74
    88
  0
VERTEX
  5
1D3
  8
METAL
 10
0.0
 20
0.0
 30
0.0
 70
   128
 71
    88
 72
   101
 73
   102
 74
    85
  0
VERTEX
  5
1D4
  8
METAL
 10
0.0
 20
0.0
 30
0.0
 70
   128
 71
    85
 72
   102
 73
   100
 74
   100
  0
VERTEX
  5
1D5
  8
METAL
 10
0.0
 20
0.0
 30
0.0
 70
   128
 71
    10
 72
    19
 73
    31
 74
    21
  0
VERTEX
  5
1D6
  8
METAL
 10
0.0
 20
0.0
 30
0.0
 70
   128
 71
     1
 72
    16
 73
    19
 74
    10
  0
VERTEX
  5
1D7
  8
METAL
 10
0.0
 20
0.0
 30
0.0
 70
   128
 71
    22
 72
    32
 73
    55
 74
    49
  0
VERTEX
  5
1D8
  8
METAL
 10
0.0
 20
0.0
 30
0.0
 70
   128
 71
    55
 72
    62
 73
   109
 74
    75
  0
VERTEX
  5
1D9
  8
METAL
 10
0.0
 20
0.0
 30
0.0
 70
   128
 71
    75
 72
   109
 73
   111
 74
    83
  0
VERTEX
  5
1DA
  8
METAL
 10
0.0
 20
0.0
 30
0.0
 70
   128
 71
    83
 72
   111
 73
   115
 74
   101
  0
VERTEX
  5
1DB
  8
METAL
 10
0.0
 20
0.0
 30
0.0
 70
   128
 71
   101
 72
   115
 73
   116
 74
   102
  0
VERTEX
  5
1DC
  8
METAL
 10
0.0
 20
0.0
 30
0.0
 70
   128
 71
   100
 72
   102
 73
   116
 74
   114
  0
VERTEX
  5
1DD
  8
METAL
 10
0.0
 20
0.0
 30
0.0
 70
   128
 71
    19
 72
    38
 73
    40
 74
    31
  0
VERTEX
  5
1DE
  8
METAL
 10
0.0
 20
0.0
 30
0.0
 70
   128
 71
    16
 72
    35
 73
    38
 74
    19
  0
VERTEX
  5
1DF
  8
METAL
 10
0.0
 20
0.0
 30
0.0
 70
   128
 71
    32
 72
    41
 73
    62
 74
    55
  0
VERTEX
  5
1E0
  8
METAL
 10
0.0
 20
0.0
 30
0.0
 70
   128
 71
    62
 72
    96
 73
   123
 74
   109
  0
VERTEX
  5
1E1
  8
METAL
 10
0.0
 20
0.0
 30
0.0
 70
   128
 71
   109
 72
   123
 73
   125
 74
   111
  0
VERTEX
  5
1E2
  8
METAL
 10
0.0
 20
0.0
 30
0.0
 70
   128
 71
   111
 72
   125
 73
   131
 74
   115
  0
VERTEX
  5
1E3
  8
METAL
 10
0.0
 20
0.0
 30
0.0
 70
   128
 71
   115
 72
   131
 73
   132
 74
   116
  0
VERTEX
  5
1E4
  8
METAL
 10
0.0
 20
0.0
 30
0.0
 70
   128
 71
   116
 72
   132
 73
   130
 74
   114
  0
VERTEX
  5
1E5
  8
METAL
 10
0.0
 20
0.0
 30
0.0
 70
   128
 71
    38
 72
    60
 73
    64
 74
    40
  0
VERTEX
  5
1E6
  8
METAL
 10
0.0
 20
0.0
 30
0.0
 70
   128
 71
    35
 72
    57
 73
    60
 74
    38
  0
VERTEX
  5
1E7
  8
METAL
 10
0.0
 20
0.0
 30
0.0
 70
   128
 71
    41
 72
    65
 73
    96
 74
    62
  0
VERTEX
  5
1E8
  8
METAL
 10
0.0
 20
0.0
 30
0.0
 70
   128
 71
    96
 72
   127
 73
   135
 74
   123
  0
VERTEX
  5
1E9
  8
METAL
 10
0.0
 20
0.0
 30
0.0
 70
   128
 71
   123
 72
   135
 73
   137
 74
   125
  0
VERTEX
  5
1EA
  8
METAL
 10
0.0
 20
0.0
 30
0.0
 70
   128
 71
   125
 72
   137
 73
   142
 74
   131
  0
VERTEX
  5
1EB
  8
METAL
 10
0.0
 20
0.0
 30
0.0
 70
   128
 71
   131
 72
   142
 73
   143
 74
   132
  0
VERTEX
  5
1EC
  8
METAL
 10
0.0
 20
0.0
 30
0.0
 70
   128
 71
   132
 72
   143
 73
   140
 74
   130
  0
VERTEX
  5
1ED
  8
METAL
 10
0.0
 20
0.0
 30
0.0
 70
   128
 71
    60
 72
   106
 73
   119
 74
    64
  0
VERTEX
  5
1EE
  8
METAL
 10
0.0
 20
0.0
 30
0.0
 70
   128
 71
    57
 72
    94
 73
   105
 74
    60
  0
VERTEX
  5
1EF
  8
METAL
 10
0.0
 20
0.0
 30
0.0
 70
   128
 71
    65
 72
   120
 73
   127
 74
    96
  0
VERTEX
  5
1F0
  8
METAL
 10
0.0
 20
0.0
 30
0.0
 70
   128
 71
   127
 72
   153
 73
   159
 74
   135
  0
VERTEX
  5
1F1
  8
METAL
 10
0.0
 20
0.0
 30
0.0
 70
   128
 71
   135
 72
   159
 73
   161
 74
   137
  0
VERTEX
  5
1F2
  8
METAL
 10
0.0
 20
0.0
 30
0.0
 70
   128
 71
   137
 72
   161
 73
   165
 74
   142
  0
VERTEX
  5
1F3
  8
METAL
 10
0.0
 20
0.0
 30
0.0
 70
   128
 71
   142
 72
   165
 73
   166
 74
   143
  0
VERTEX
  5
1F4
  8
METAL
 10
0.0
 20
0.0
 30
0.0
 70
   128
 71
   140
 72
   143
 73
   166
 74
   164
  0
VERTEX
  5
1F5
  8
METAL
 10
0.0
 20
0.0
 30
0.0
 70
   128
 71
   106
 72
   150
 73
   155
 74
   119
  0
VERTEX
  5
1F6
  8
METAL
 10
0.0
 20
0.0
 30
0.0
 70
   128
 71
    94
 72
   146
 73
   149
 74
   105
  0
VERTEX
  5
1F7
  8
METAL
 10
0.0
 20
0.0
 30
0.0
 70
   128
 71
   120
 72
   156
 73
   153
 74
   127
  0
VERTEX
  5
1F8
  8
METAL
 10
0.0
 20
0.0
 30
0.0
 70
   128
 71
   153
 72
   176
 73
   178
 74
   159
  0
VERTEX
  5
1F9
  8
METAL
 10
0.0
 20
0.0
 30
0.0
 70
   128
 71
   159
 72
   178
 73
   180
 74
   161
  0
VERTEX
  5
1FA
  8
METAL
 10
0.0
 20
0.0
 30
0.0
 70
   128
 71
   161
 72
   180
 73
   184
 74
   165
  0
VERTEX
  5
1FB
  8
METAL
 10
0.0
 20
0.0
 30
0.0
 70
   128
 71
   165
 72
   184
 73
   185
 74
   166
  0
VERTEX
  5
1FC
  8
METAL
 10
0.0
 20
0.0
 30
0.0
 70
   128
 71
   164
 72
   166
 73
   185
 74
   183
  0
VERTEX
  5
1FD
  8
METAL
 10
0.0
 20
0.0
 30
0.0
 70
   128
 71
   150
 72
   173
 73
   176
 74
   155
  0
VERTEX
  5
1FE
  8
METAL
 10
0.0
 20
0.0
 30
0.0
 70
   128
 71
   146
 72
   169
 73
   172
 74
   149
  0
VERTEX
  5
1FF
  8
METAL
 10
0.0
 20
0.0
 30
0.0
 70
   128
 71
   148
 72
   171
 73
   169
 74
   146
  0
VERTEX
  5
200
  8
METAL
 10
0.0
 20
0.0
 30
0.0
 70
   128
 71
   156
 72
   176
 73
   153
 74
   153
  0
VERTEX
  5
201
  8
METAL
 10
0.0
 20
0.0
 30
0.0
 70
   128
 71
   196
 72
   198
 73
   178
 74
   176
  0
VERTEX
  5
202
  8
METAL
 10
0.0
 20
0.0
 30
0.0
 70
   128
 71
   192
 72
   196
 73
   176
 74
   173
  0
VERTEX
  5
203
  8
METAL
 10
0.0
 20
0.0
 30
0.0
 70
   128
 71
     4
 72
     6
 73
     3
 74
     1
  0
VERTEX
  5
204
  8
METAL
 10
0.0
 20
0.0
 30
0.0
 70
   128
 71
    68
 72
    45
 73
    44
 74
    86
  0
VERTEX
  5
205
  8
METAL
 10
0.0
 20
0.0
 30
0.0
 70
   128
 71
    44
 72
    90
 73
    86
 74
    86
  0
VERTEX
  5
206
  8
METAL
 10
0.0
 20
0.0
 30
0.0
 70
   128
 71
     1
 72
     3
 73
    18
 74
    16
  0
VERTEX
  5
207
  8
METAL
 10
0.0
 20
0.0
 30
0.0
 70
   128
 71
    16
 72
    18
 73
    37
 74
    35
  0
VERTEX
  5
208
  8
METAL
 10
0.0
 20
0.0
 30
0.0
 70
   128
 71
    37
 72
    59
 73
    57
 74
    35
  0
VERTEX
  5
209
  8
METAL
 10
0.0
 20
0.0
 30
0.0
 70
   128
 71
    59
 72
    98
 73
    94
 74
    57
  0
VERTEX
  5
20A
  8
METAL
 10
0.0
 20
0.0
 30
0.0
 70
   128
 71
   141
 72
   148
 73
   146
 74
    94
  0
VERTEX
  5
20B
  8
METAL
 10
0.0
 20
0.0
 30
0.0
 70
   128
 71
    98
 72
   141
 73
    94
 74
    94
  0
VERTEX
  5
20C
  8
METAL
 10
0.0
 20
0.0
 30
0.0
 70
   128
 71
   180
 72
   178
 73
   198
 74
   200
  0
VERTEX
  5
20D
  8
METAL
 10
0.0
 20
0.0
 30
0.0
 70
   128
 71
   184
 72
   180
 73
   200
 74
   204
  0
VERTEX
  5
20E
  8
METAL
 10
0.0
 20
0.0
 30
0.0
 70
   128
 71
   185
 72
   184
 73
   204
 74
   205
  0
VERTEX
  5
20F
  8
METAL
 10
0.0
 20
0.0
 30
0.0
 70
   128
 71
   183
 72
   185
 73
   205
 74
   203
  0
VERTEX
  5
210
  8
METAL
 10
0.0
 20
0.0
 30
0.0
 70
   128
 71
   172
 72
   169
 73
   190
 74
   193
  0
VERTEX
  5
211
  8
METAL
 10
0.0
 20
0.0
 30
0.0
 70
   128
 71
   169
 72
   171
 73
   188
 74
   190
  0
VERTEX
  5
212
  8
METAL
 10
0.0
 20
0.0
 30
0.0
 70
   128
 71
   190
 72
   188
 73
   189
 74
   189
  0
VERTEX
  5
213
  8
METAL
 10
0.0
 20
0.0
 30
0.0
 70
   128
 71
   340
 72
   338
 73
   362
 74
   366
  0
VERTEX
  5
214
  8
METAL
 10
0.0
 20
0.0
 30
0.0
 70
   128
 71
   367
 72
   377
 73
   344
 74
   341
  0
VERTEX
  5
215
  8
METAL
 10
0.0
 20
0.0
 30
0.0
 70
   128
 71
   310
 72
   318
 73
   320
 74
   312
  0
VERTEX
  5
216
  8
METAL
 10
0.0
 20
0.0
 30
0.0
 70
   128
 71
   377
 72
   383
 73
   346
 74
   344
  0
VERTEX
  5
217
  8
METAL
 10
0.0
 20
0.0
 30
0.0
 70
   128
 71
   385
 72
   347
 73
   346
 74
   383
  0
VERTEX
  5
218
  8
METAL
 10
0.0
 20
0.0
 30
0.0
 70
   128
 71
   299
 72
   310
 73
   312
 74
   301
  0
VERTEX
  5
219
  8
METAL
 10
0.0
 20
0.0
 30
0.0
 70
   128
 71
   305
 72
   299
 73
   301
 74
   306
  0
VERTEX
  5
21A
  8
METAL
 10
0.0
 20
0.0
 30
0.0
 70
   128
 71
   381
 72
   390
 73
   384
 74
   378
  0
VERTEX
  5
21B
  8
METAL
 10
0.0
 20
0.0
 30
0.0
 70
   128
 71
   363
 72
   381
 73
   378
 74
   368
  0
VERTEX
  5
21C
  8
METAL
 10
0.0
 20
0.0
 30
0.0
 70
   128
 71
   320
 72
   318
 73
   338
 74
   340
  0
VERTEX
  5
21D
  8
METAL
 10
0.0
 20
0.0
 30
0.0
 70
   128
 71
   344
 72
   313
 73
   321
 74
   341
  0
VERTEX
  5
21E
  8
METAL
 10
0.0
 20
0.0
 30
0.0
 70
   128
 71
   346
 72
   302
 73
   313
 74
   344
  0
VERTEX
  5
21F
  8
METAL
 10
0.0
 20
0.0
 30
0.0
 70
   128
 71
   338
 72
   318
 73
   316
 74
   336
  0
VERTEX
  5
220
  8
METAL
 10
0.0
 20
0.0
 30
0.0
 70
   128
 71
   318
 72
   310
 73
   308
 74
   316
  0
VERTEX
  5
221
  8
METAL
 10
0.0
 20
0.0
 30
0.0
 70
   128
 71
   310
 72
   299
 73
   288
 74
   308
  0
VERTEX
  5
222
  8
METAL
 10
0.0
 20
0.0
 30
0.0
 70
   128
 71
   299
 72
   305
 73
   289
 74
   288
  0
VERTEX
  5
223
  8
METAL
 10
0.0
 20
0.0
 30
0.0
 70
   128
 71
   305
 72
   293
 73
   289
 74
   289
  0
VERTEX
  5
224
  8
METAL
 10
0.0
 20
0.0
 30
0.0
 70
   128
 71
   381
 72
   363
 73
   359
 74
   372
  0
VERTEX
  5
225
  8
METAL
 10
0.0
 20
0.0
 30
0.0
 70
   128
 71
   390
 72
   381
 73
   372
 74
   375
  0
VERTEX
  5
226
  8
METAL
 10
0.0
 20
0.0
 30
0.0
 70
   128
 71
   362
 72
   338
 73
   336
 74
   358
  0
VERTEX
  5
227
  8
METAL
 10
0.0
 20
0.0
 30
0.0
 70
   128
 71
   336
 72
   316
 73
   284
 74
   329
  0
VERTEX
  5
228
  8
METAL
 10
0.0
 20
0.0
 30
0.0
 70
   128
 71
   316
 72
   308
 73
   282
 74
   284
  0
VERTEX
  5
229
  8
METAL
 10
0.0
 20
0.0
 30
0.0
 70
   128
 71
   308
 72
   288
 73
   276
 74
   282
  0
VERTEX
  5
22A
  8
METAL
 10
0.0
 20
0.0
 30
0.0
 70
   128
 71
   288
 72
   289
 73
   277
 74
   276
  0
VERTEX
  5
22B
  8
METAL
 10
0.0
 20
0.0
 30
0.0
 70
   128
 71
   293
 72
   281
 73
   277
 74
   289
  0
VERTEX
  5
22C
  8
METAL
 10
0.0
 20
0.0
 30
0.0
 70
   128
 71
   372
 72
   359
 73
   350
 74
   353
  0
VERTEX
  5
22D
  8
METAL
 10
0.0
 20
0.0
 30
0.0
 70
   128
 71
   375
 72
   372
 73
   353
 74
   356
  0
VERTEX
  5
22E
  8
METAL
 10
0.0
 20
0.0
 30
0.0
 70
   128
 71
   358
 72
   336
 73
   329
 74
   349
  0
VERTEX
  5
22F
  8
METAL
 10
0.0
 20
0.0
 30
0.0
 70
   128
 71
   329
 72
   284
 73
   270
 74
   295
  0
VERTEX
  5
230
  8
METAL
 10
0.0
 20
0.0
 30
0.0
 70
   128
 71
   284
 72
   282
 73
   268
 74
   270
  0
VERTEX
  5
231
  8
METAL
 10
0.0
 20
0.0
 30
0.0
 70
   128
 71
   282
 72
   276
 73
   260
 74
   268
  0
VERTEX
  5
232
  8
METAL
 10
0.0
 20
0.0
 30
0.0
 70
   128
 71
   276
 72
   277
 73
   261
 74
   260
  0
VERTEX
  5
233
  8
METAL
 10
0.0
 20
0.0
 30
0.0
 70
   128
 71
   277
 72
   281
 73
   265
 74
   261
  0
VERTEX
  5
234
  8
METAL
 10
0.0
 20
0.0
 30
0.0
 70
   128
 71
   353
 72
   350
 73
   326
 74
   331
  0
VERTEX
  5
235
  8
METAL
 10
0.0
 20
0.0
 30
0.0
 70
   128
 71
   356
 72
   353
 73
   331
 74
   334
  0
VERTEX
  5
236
  8
METAL
 10
0.0
 20
0.0
 30
0.0
 70
   128
 71
   349
 72
   329
 73
   295
 74
   325
  0
VERTEX
  5
237
  8
METAL
 10
0.0
 20
0.0
 30
0.0
 70
   128
 71
   295
 72
   270
 73
   258
 74
   266
  0
VERTEX
  5
238
  8
METAL
 10
0.0
 20
0.0
 30
0.0
 70
   128
 71
   270
 72
   268
 73
   256
 74
   258
  0
VERTEX
  5
239
  8
METAL
 10
0.0
 20
0.0
 30
0.0
 70
   128
 71
   268
 72
   260
 73
   249
 74
   256
  0
VERTEX
  5
23A
  8
METAL
 10
0.0
 20
0.0
 30
0.0
 70
   128
 71
   260
 72
   261
 73
   250
 74
   249
  0
VERTEX
  5
23B
  8
METAL
 10
0.0
 20
0.0
 30
0.0
 70
   128
 71
   261
 72
   265
 73
   255
 74
   250
  0
VERTEX
  5
23C
  8
METAL
 10
0.0
 20
0.0
 30
0.0
 70
   128
 71
   331
 72
   326
 73
   273
 74
   286
  0
VERTEX
  5
23D
  8
METAL
 10
0.0
 20
0.0
 30
0.0
 70
   128
 71
   334
 72
   331
 73
   286
 74
   297
  0
VERTEX
  5
23E
  8
METAL
 10
0.0
 20
0.0
 30
0.0
 70
   128
 71
   325
 72
   295
 73
   266
 74
   272
  0
VERTEX
  5
23F
  8
METAL
 10
0.0
 20
0.0
 30
0.0
 70
   128
 71
   266
 72
   258
 73
   236
 74
   238
  0
VERTEX
  5
240
  8
METAL
 10
0.0
 20
0.0
 30
0.0
 70
   128
 71
   258
 72
   256
 73
   234
 74
   236
  0
VERTEX
  5
241
  8
METAL
 10
0.0
 20
0.0
 30
0.0
 70
   128
 71
   256
 72
   249
 73
   228
 74
   234
  0
VERTEX
  5
242
  8
METAL
 10
0.0
 20
0.0
 30
0.0
 70
   128
 71
   249
 72
   250
 73
   229
 74
   228
  0
VERTEX
  5
243
  8
METAL
 10
0.0
 20
0.0
 30
0.0
 70
   128
 71
   255
 72
   233
 73
   229
 74
   250
  0
VERTEX
  5
244
  8
METAL
 10
0.0
 20
0.0
 30
0.0
 70
   128
 71
   286
 72
   273
 73
   240
 74
   242
  0
VERTEX
  5
245
  8
METAL
 10
0.0
 20
0.0
 30
0.0
 70
   128
 71
   297
 72
   286
 73
   243
 74
   247
  0
VERTEX
  5
246
  8
METAL
 10
0.0
 20
0.0
 30
0.0
 70
   128
 71
   272
 72
   266
 73
   238
 74
   240
  0
VERTEX
  5
247
  8
METAL
 10
0.0
 20
0.0
 30
0.0
 70
   128
 71
   238
 72
   236
 73
   217
 74
   219
  0
VERTEX
  5
248
  8
METAL
 10
0.0
 20
0.0
 30
0.0
 70
   128
 71
   236
 72
   234
 73
   215
 74
   217
  0
VERTEX
  5
249
  8
METAL
 10
0.0
 20
0.0
 30
0.0
 70
   128
 71
   234
 72
   228
 73
   209
 74
   215
  0
VERTEX
  5
24A
  8
METAL
 10
0.0
 20
0.0
 30
0.0
 70
   128
 71
   228
 72
   229
 73
   210
 74
   209
  0
VERTEX
  5
24B
  8
METAL
 10
0.0
 20
0.0
 30
0.0
 70
   128
 71
   233
 72
   214
 73
   210
 74
   229
  0
VERTEX
  5
24C
  8
METAL
 10
0.0
 20
0.0
 30
0.0
 70
   128
 71
   242
 72
   240
 73
   221
 74
   221
  0
VERTEX
  5
24D
  8
METAL
 10
0.0
 20
0.0
 30
0.0
 70
   128
 71
   247
 72
   243
 73
   222
 74
   226
  0
VERTEX
  5
24E
  8
METAL
 10
0.0
 20
0.0
 30
0.0
 70
   128
 71
   246
 72
   247
 73
   226
 74
   225
  0
VERTEX
  5
24F
  8
METAL
 10
0.0
 20
0.0
 30
0.0
 70
   128
 71
   217
 72
   198
 73
   196
 74
   219
  0
VERTEX
  5
250
  8
METAL
 10
0.0
 20
0.0
 30
0.0
 70
   128
 71
   219
 72
   196
 73
   192
 74
   221
  0
VERTEX
  5
251
  8
METAL
 10
0.0
 20
0.0
 30
0.0
 70
   128
 71
   384
 72
   390
 73
   389
 74
   386
  0
VERTEX
  5
252
  8
METAL
 10
0.0
 20
0.0
 30
0.0
 70
   128
 71
   307
 72
   302
 73
   346
 74
   324
  0
VERTEX
  5
253
  8
METAL
 10
0.0
 20
0.0
 30
0.0
 70
   128
 71
   324
 72
   346
 73
   347
 74
   347
  0
VERTEX
  5
254
  8
METAL
 10
0.0
 20
0.0
 30
0.0
 70
   128
 71
   390
 72
   375
 73
   374
 74
   389
  0
VERTEX
  5
255
  8
METAL
 10
0.0
 20
0.0
 30
0.0
 70
   128
 71
   375
 72
   356
 73
   355
 74
   374
  0
VERTEX
  5
256
  8
METAL
 10
0.0
 20
0.0
 30
0.0
 70
   128
 71
   355
 72
   356
 73
   334
 74
   333
  0
VERTEX
  5
257
  8
METAL
 10
0.0
 20
0.0
 30
0.0
 70
   128
 71
   333
 72
   334
 73
   297
 74
   294
  0
VERTEX
  5
258
  8
METAL
 10
0.0
 20
0.0
 30
0.0
 70
   128
 71
   247
 72
   246
 73
   253
 74
   297
  0
VERTEX
  5
259
  8
METAL
 10
0.0
 20
0.0
 30
0.0
 70
   128
 71
   294
 72
   297
 73
   253
 74
   253
  0
VERTEX
  5
25A
  8
METAL
 10
0.0
 20
0.0
 30
0.0
 70
   128
 71
   198
 72
   217
 73
   215
 74
   200
  0
VERTEX
  5
25B
  8
METAL
 10
0.0
 20
0.0
 30
0.0
 70
   128
 71
   200
 72
   215
 73
   209
 74
   204
  0
VERTEX
  5
25C
  8
METAL
 10
0.0
 20
0.0
 30
0.0
 70
   128
 71
   204
 72
   209
 73
   210
 74
   205
  0
VERTEX
  5
25D
  8
METAL
 10
0.0
 20
0.0
 30
0.0
 70
   128
 71
   205
 72
   210
 73
   214
 74
   203
  0
VERTEX
  5
25E
  8
METAL
 10
0.0
 20
0.0
 30
0.0
 70
   128
 71
   190
 72
   226
 73
   222
 74
   193
  0
VERTEX
  5
25F
  8
METAL
 10
0.0
 20
0.0
 30
0.0
 70
   128
 71
   190
 72
   189
 73
   208
 74
   226
  0
VERTEX
  5
260
  8
METAL
 10
0.0
 20
0.0
 30
0.0
 70
   128
 71
   208
 72
   225
 73
   226
 74
   226
  0
VERTEX
  5
261
  8
METAL
 10
0.0
 20
0.0
 30
0.0
 70
   128
 71
   240
 72
   238
 73
   219
 74
   221
  0
VERTEX
  5
262
  8
METAL
 10
0.0
 20
0.0
 30
0.0
 70
   128
 71
    54
 72
    50
 73
    24
 74
    30
  0
VERTEX
  5
263
  8
METAL
 10
0.0
 20
0.0
 30
0.0
 70
   128
 71
    29
 72
    15
 73
    48
 74
    53
  0
VERTEX
  5
264
  8
METAL
 10
0.0
 20
0.0
 30
0.0
 70
   128
 71
    78
 72
    70
 73
    74
 74
    82
  0
VERTEX
  5
265
  8
METAL
 10
0.0
 20
0.0
 30
0.0
 70
   128
 71
    15
 72
     9
 73
    46
 74
    48
  0
VERTEX
  5
266
  8
METAL
 10
0.0
 20
0.0
 30
0.0
 70
   128
 71
     7
 72
    45
 73
    46
 74
     9
  0
VERTEX
  5
267
  8
METAL
 10
0.0
 20
0.0
 30
0.0
 70
   128
 71
    89
 72
    78
 73
    82
 74
    93
  0
VERTEX
  5
268
  8
METAL
 10
0.0
 20
0.0
 30
0.0
 70
   128
 71
    85
 72
    89
 73
    93
 74
    87
  0
VERTEX
  5
269
  8
METAL
 10
0.0
 20
0.0
 30
0.0
 70
   128
 71
    11
 72
     2
 73
     8
 74
    14
  0
VERTEX
  5
26A
  8
METAL
 10
0.0
 20
0.0
 30
0.0
 70
   128
 71
    23
 72
    11
 73
    14
 74
    28
  0
VERTEX
  5
26B
  8
METAL
 10
0.0
 20
0.0
 30
0.0
 70
   128
 71
    74
 72
    70
 73
    50
 74
    54
  0
VERTEX
  5
26C
  8
METAL
 10
0.0
 20
0.0
 30
0.0
 70
   128
 71
    48
 72
    81
 73
    73
 74
    53
  0
VERTEX
  5
26D
  8
METAL
 10
0.0
 20
0.0
 30
0.0
 70
   128
 71
    46
 72
    92
 73
    81
 74
    48
  0
VERTEX
  5
26E
  8
METAL
 10
0.0
 20
0.0
 30
0.0
 70
   128
 71
    50
 72
    70
 73
    76
 74
    56
  0
VERTEX
  5
26F
  8
METAL
 10
0.0
 20
0.0
 30
0.0
 70
   128
 71
    70
 72
    78
 73
    84
 74
    76
  0
VERTEX
  5
270
  8
METAL
 10
0.0
 20
0.0
 30
0.0
 70
   128
 71
    78
 72
    89
 73
   104
 74
    84
  0
VERTEX
  5
271
  8
METAL
 10
0.0
 20
0.0
 30
0.0
 70
   128
 71
    89
 72
    85
 73
   103
 74
   104
  0
VERTEX
  5
272
  8
METAL
 10
0.0
 20
0.0
 30
0.0
 70
   128
 71
    85
 72
    99
 73
   103
 74
   103
  0
VERTEX
  5
273
  8
METAL
 10
0.0
 20
0.0
 30
0.0
 70
   128
 71
    11
 72
    23
 73
    33
 74
    20
  0
VERTEX
  5
274
  8
METAL
 10
0.0
 20
0.0
 30
0.0
 70
   128
 71
     2
 72
    11
 73
    20
 74
    17
  0
VERTEX
  5
275
  8
METAL
 10
0.0
 20
0.0
 30
0.0
 70
   128
 71
    24
 72
    50
 73
    56
 74
    34
  0
VERTEX
  5
276
  8
METAL
 10
0.0
 20
0.0
 30
0.0
 70
   128
 71
    56
 72
    76
 73
   110
 74
    63
  0
VERTEX
  5
277
  8
METAL
 10
0.0
 20
0.0
 30
0.0
 70
   128
 71
    76
 72
    84
 73
   112
 74
   110
  0
VERTEX
  5
278
  8
METAL
 10
0.0
 20
0.0
 30
0.0
 70
   128
 71
    84
 72
   104
 73
   118
 74
   112
  0
VERTEX
  5
279
  8
METAL
 10
0.0
 20
0.0
 30
0.0
 70
   128
 71
   104
 72
   103
 73
   117
 74
   118
  0
VERTEX
  5
27A
  8
METAL
 10
0.0
 20
0.0
 30
0.0
 70
   128
 71
    99
 72
   113
 73
   117
 74
   103
  0
VERTEX
  5
27B
  8
METAL
 10
0.0
 20
0.0
 30
0.0
 70
   128
 71
    20
 72
    33
 73
    42
 74
    39
  0
VERTEX
  5
27C
  8
METAL
 10
0.0
 20
0.0
 30
0.0
 70
   128
 71
    17
 72
    20
 73
    39
 74
    36
  0
VERTEX
  5
27D
  8
METAL
 10
0.0
 20
0.0
 30
0.0
 70
   128
 71
    34
 72
    56
 73
    63
 74
    43
  0
VERTEX
  5
27E
  8
METAL
 10
0.0
 20
0.0
 30
0.0
 70
   128
 71
    63
 72
   110
 73
   124
 74
    97
  0
VERTEX
  5
27F
  8
METAL
 10
0.0
 20
0.0
 30
0.0
 70
   128
 71
   110
 72
   112
 73
   126
 74
   124
  0
VERTEX
  5
280
  8
METAL
 10
0.0
 20
0.0
 30
0.0
 70
   128
 71
   112
 72
   118
 73
   134
 74
   126
  0
VERTEX
  5
281
  8
METAL
 10
0.0
 20
0.0
 30
0.0
 70
   128
 71
   118
 72
   117
 73
   133
 74
   134
  0
VERTEX
  5
282
  8
METAL
 10
0.0
 20
0.0
 30
0.0
 70
   128
 71
   117
 72
   113
 73
   129
 74
   133
  0
VERTEX
  5
283
  8
METAL
 10
0.0
 20
0.0
 30
0.0
 70
   128
 71
    39
 72
    42
 73
    66
 74
    61
  0
VERTEX
  5
284
  8
METAL
 10
0.0
 20
0.0
 30
0.0
 70
   128
 71
    36
 72
    39
 73
    61
 74
    58
  0
VERTEX
  5
285
  8
METAL
 10
0.0
 20
0.0
 30
0.0
 70
   128
 71
    43
 72
    63
 73
    97
 74
    67
  0
VERTEX
  5
286
  8
METAL
 10
0.0
 20
0.0
 30
0.0
 70
   128
 71
    97
 72
   124
 73
   136
 74
   128
  0
VERTEX
  5
287
  8
METAL
 10
0.0
 20
0.0
 30
0.0
 70
   128
 71
   124
 72
   126
 73
   138
 74
   136
  0
VERTEX
  5
288
  8
METAL
 10
0.0
 20
0.0
 30
0.0
 70
   128
 71
   126
 72
   134
 73
   145
 74
   138
  0
VERTEX
  5
289
  8
METAL
 10
0.0
 20
0.0
 30
0.0
 70
   128
 71
   134
 72
   133
 73
   144
 74
   145
  0
VERTEX
  5
28A
  8
METAL
 10
0.0
 20
0.0
 30
0.0
 70
   128
 71
   133
 72
   129
 73
   139
 74
   144
  0
VERTEX
  5
28B
  8
METAL
 10
0.0
 20
0.0
 30
0.0
 70
   128
 71
    61
 72
    66
 73
   121
 74
   108
  0
VERTEX
  5
28C
  8
METAL
 10
0.0
 20
0.0
 30
0.0
 70
   128
 71
    58
 72
    61
 73
   107
 74
    95
  0
VERTEX
  5
28D
  8
METAL
 10
0.0
 20
0.0
 30
0.0
 70
   128
 71
    67
 72
    97
 73
   128
 74
   122
  0
VERTEX
  5
28E
  8
METAL
 10
0.0
 20
0.0
 30
0.0
 70
   128
 71
   128
 72
   136
 73
   160
 74
   154
  0
VERTEX
  5
28F
  8
METAL
 10
0.0
 20
0.0
 30
0.0
 70
   128
 71
   136
 72
   138
 73
   162
 74
   160
  0
VERTEX
  5
290
  8
METAL
 10
0.0
 20
0.0
 30
0.0
 70
   128
 71
   138
 72
   145
 73
   168
 74
   162
  0
VERTEX
  5
291
  8
METAL
 10
0.0
 20
0.0
 30
0.0
 70
   128
 71
   145
 72
   144
 73
   167
 74
   168
  0
VERTEX
  5
292
  8
METAL
 10
0.0
 20
0.0
 30
0.0
 70
   128
 71
   139
 72
   163
 73
   167
 74
   144
  0
VERTEX
  5
293
  8
METAL
 10
0.0
 20
0.0
 30
0.0
 70
   128
 71
   108
 72
   121
 73
   157
 74
   152
  0
VERTEX
  5
294
  8
METAL
 10
0.0
 20
0.0
 30
0.0
 70
   128
 71
    95
 72
   107
 73
   151
 74
   147
  0
VERTEX
  5
295
  8
METAL
 10
0.0
 20
0.0
 30
0.0
 70
   128
 71
   122
 72
   128
 73
   154
 74
   158
  0
VERTEX
  5
296
  8
METAL
 10
0.0
 20
0.0
 30
0.0
 70
   128
 71
   154
 72
   160
 73
   179
 74
   177
  0
VERTEX
  5
297
  8
METAL
 10
0.0
 20
0.0
 30
0.0
 70
   128
 71
   160
 72
   162
 73
   181
 74
   179
  0
VERTEX
  5
298
  8
METAL
 10
0.0
 20
0.0
 30
0.0
 70
   128
 71
   162
 72
   168
 73
   187
 74
   181
  0
VERTEX
  5
299
  8
METAL
 10
0.0
 20
0.0
 30
0.0
 70
   128
 71
   168
 72
   167
 73
   186
 74
   187
  0
VERTEX
  5
29A
  8
METAL
 10
0.0
 20
0.0
 30
0.0
 70
   128
 71
   163
 72
   182
 73
   186
 74
   167
  0
VERTEX
  5
29B
  8
METAL
 10
0.0
 20
0.0
 30
0.0
 70
   128
 71
   152
 72
   157
 73
   177
 74
   175
  0
VERTEX
  5
29C
  8
METAL
 10
0.0
 20
0.0
 30
0.0
 70
   128
 71
   147
 72
   151
 73
   174
 74
   170
  0
VERTEX
  5
29D
  8
METAL
 10
0.0
 20
0.0
 30
0.0
 70
   128
 71
   148
 72
   147
 73
   170
 74
   171
  0
VERTEX
  5
29E
  8
METAL
 10
0.0
 20
0.0
 30
0.0
 70
   128
 71
   158
 72
   154
 73
   177
 74
   177
  0
VERTEX
  5
29F
  8
METAL
 10
0.0
 20
0.0
 30
0.0
 70
   128
 71
   197
 72
   177
 73
   179
 74
   199
  0
VERTEX
  5
2A0
  8
METAL
 10
0.0
 20
0.0
 30
0.0
 70
   128
 71
   194
 72
   175
 73
   177
 74
   197
  0
VERTEX
  5
2A1
  8
METAL
 10
0.0
 20
0.0
 30
0.0
 70
   128
 71
     8
 72
     2
 73
     3
 74
     6
  0
VERTEX
  5
2A2
  8
METAL
 10
0.0
 20
0.0
 30
0.0
 70
   128
 71
    86
 72
    92
 73
    46
 74
    68
  0
VERTEX
  5
2A3
  8
METAL
 10
0.0
 20
0.0
 30
0.0
 70
   128
 71
    68
 72
    46
 73
    45
 74
    45
  0
VERTEX
  5
2A4
  8
METAL
 10
0.0
 20
0.0
 30
0.0
 70
   128
 71
     2
 72
    17
 73
    18
 74
     3
  0
VERTEX
  5
2A5
  8
METAL
 10
0.0
 20
0.0
 30
0.0
 70
   128
 71
    17
 72
    36
 73
    37
 74
    18
  0
VERTEX
  5
2A6
  8
METAL
 10
0.0
 20
0.0
 30
0.0
 70
   128
 71
    37
 72
    36
 73
    58
 74
    59
  0
VERTEX
  5
2A7
  8
METAL
 10
0.0
 20
0.0
 30
0.0
 70
   128
 71
    59
 72
    58
 73
    95
 74
    98
  0
VERTEX
  5
2A8
  8
METAL
 10
0.0
 20
0.0
 30
0.0
 70
   128
 71
   147
 72
   148
 73
   141
 74
    95
  0
VERTEX
  5
2A9
  8
METAL
 10
0.0
 20
0.0
 30
0.0
 70
   128
 71
    98
 72
    95
 73
   141
 74
   141
  0
VERTEX
  5
2AA
  8
METAL
 10
0.0
 20
0.0
 30
0.0
 70
   128
 71
   181
 72
   201
 73
   199
 74
   179
  0
VERTEX
  5
2AB
  8
METAL
 10
0.0
 20
0.0
 30
0.0
 70
   128
 71
   187
 72
   207
 73
   201
 74
   181
  0
VERTEX
  5
2AC
  8
METAL
 10
0.0
 20
0.0
 30
0.0
 70
   128
 71
   186
 72
   206
 73
   207
 74
   187
  0
VERTEX
  5
2AD
  8
METAL
 10
0.0
 20
0.0
 30
0.0
 70
   128
 71
   182
 72
   202
 73
   206
 74
   186
  0
VERTEX
  5
2AE
  8
METAL
 10
0.0
 20
0.0
 30
0.0
 70
   128
 71
   174
 72
   195
 73
   191
 74
   170
  0
VERTEX
  5
2AF
  8
METAL
 10
0.0
 20
0.0
 30
0.0
 70
   128
 71
   191
 72
   189
 73
   188
 74
   188
  0
VERTEX
  5
2B0
  8
METAL
 10
0.0
 20
0.0
 30
0.0
 70
   128
 71
   188
 72
   171
 73
   170
 74
   191
  0
VERTEX
  5
2B1
  8
METAL
 10
0.0
 20
0.0
 30
0.0
 70
   128
 71
   342
 72
   369
 73
   364
 74
   339
  0
VERTEX
  5
2B2
  8
METAL
 10
0.0
 20
0.0
 30
0.0
 70
   128
 71
   370
 72
   343
 73
   345
 74
   379
  0
VERTEX
  5
2B3
  8
METAL
 10
0.0
 20
0.0
 30
0.0
 70
   128
 71
   311
 72
   314
 73
   322
 74
   319
  0
VERTEX
  5
2B4
  8
METAL
 10
0.0
 20
0.0
 30
0.0
 70
   128
 71
   379
 72
   345
 73
   348
 74
   387
  0
VERTEX
  5
2B5
  8
METAL
 10
0.0
 20
0.0
 30
0.0
 70
   128
 71
   385
 72
   387
 73
   348
 74
   347
  0
VERTEX
  5
2B6
  8
METAL
 10
0.0
 20
0.0
 30
0.0
 70
   128
 71
   300
 72
   303
 73
   314
 74
   311
  0
VERTEX
  5
2B7
  8
METAL
 10
0.0
 20
0.0
 30
0.0
 70
   128
 71
   305
 72
   306
 73
   303
 74
   300
  0
VERTEX
  5
2B8
  8
METAL
 10
0.0
 20
0.0
 30
0.0
 70
   128
 71
   382
 72
   380
 73
   388
 74
   391
  0
VERTEX
  5
2B9
  8
METAL
 10
0.0
 20
0.0
 30
0.0
 70
   128
 71
   365
 72
   371
 73
   380
 74
   382
  0
VERTEX
  5
2BA
  8
METAL
 10
0.0
 20
0.0
 30
0.0
 70
   128
 71
   322
 72
   342
 73
   339
 74
   319
  0
VERTEX
  5
2BB
  8
METAL
 10
0.0
 20
0.0
 30
0.0
 70
   128
 71
   345
 72
   343
 73
   323
 74
   315
  0
VERTEX
  5
2BC
  8
METAL
 10
0.0
 20
0.0
 30
0.0
 70
   128
 71
   348
 72
   345
 73
   315
 74
   304
  0
VERTEX
  5
2BD
  8
METAL
 10
0.0
 20
0.0
 30
0.0
 70
   128
 71
   339
 72
   337
 73
   317
 74
   319
  0
VERTEX
  5
2BE
  8
METAL
 10
0.0
 20
0.0
 30
0.0
 70
   128
 71
   319
 72
   317
 73
   309
 74
   311
  0
VERTEX
  5
2BF
  8
METAL
 10
0.0
 20
0.0
 30
0.0
 70
   128
 71
   311
 72
   309
 73
   291
 74
   300
  0
VERTEX
  5
2C0
  8
METAL
 10
0.0
 20
0.0
 30
0.0
 70
   128
 71
   300
 72
   291
 73
   290
 74
   305
  0
VERTEX
  5
2C1
  8
METAL
 10
0.0
 20
0.0
 30
0.0
 70
   128
 71
   305
 72
   290
 73
   292
 74
   292
  0
VERTEX
  5
2C2
  8
METAL
 10
0.0
 20
0.0
 30
0.0
 70
   128
 71
   382
 72
   373
 73
   361
 74
   365
  0
VERTEX
  5
2C3
  8
METAL
 10
0.0
 20
0.0
 30
0.0
 70
   128
 71
   391
 72
   376
 73
   373
 74
   382
  0
VERTEX
  5
2C4
  8
METAL
 10
0.0
 20
0.0
 30
0.0
 70
   128
 71
   364
 72
   360
 73
   337
 74
   339
  0
VERTEX
  5
2C5
  8
METAL
 10
0.0
 20
0.0
 30
0.0
 70
   128
 71
   337
 72
   330
 73
   285
 74
   317
  0
VERTEX
  5
2C6
  8
METAL
 10
0.0
 20
0.0
 30
0.0
 70
   128
 71
   317
 72
   285
 73
   283
 74
   309
  0
VERTEX
  5
2C7
  8
METAL
 10
0.0
 20
0.0
 30
0.0
 70
   128
 71
   309
 72
   283
 73
   279
 74
   291
  0
VERTEX
  5
2C8
  8
METAL
 10
0.0
 20
0.0
 30
0.0
 70
   128
 71
   291
 72
   279
 73
   278
 74
   290
  0
VERTEX
  5
2C9
  8
METAL
 10
0.0
 20
0.0
 30
0.0
 70
   128
 71
   292
 72
   290
 73
   278
 74
   280
  0
VERTEX
  5
2CA
  8
METAL
 10
0.0
 20
0.0
 30
0.0
 70
   128
 71
   373
 72
   354
 73
   352
 74
   361
  0
VERTEX
  5
2CB
  8
METAL
 10
0.0
 20
0.0
 30
0.0
 70
   128
 71
   376
 72
   357
 73
   354
 74
   373
  0
VERTEX
  5
2CC
  8
METAL
 10
0.0
 20
0.0
 30
0.0
 70
   128
 71
   360
 72
   351
 73
   330
 74
   337
  0
VERTEX
  5
2CD
  8
METAL
 10
0.0
 20
0.0
 30
0.0
 70
   128
 71
   330
 72
   296
 73
   271
 74
   285
  0
VERTEX
  5
2CE
  8
METAL
 10
0.0
 20
0.0
 30
0.0
 70
   128
 71
   285
 72
   271
 73
   269
 74
   283
  0
VERTEX
  5
2CF
  8
METAL
 10
0.0
 20
0.0
 30
0.0
 70
   128
 71
   283
 72
   269
 73
   263
 74
   279
  0
VERTEX
  5
2D0
  8
METAL
 10
0.0
 20
0.0
 30
0.0
 70
   128
 71
   279
 72
   263
 73
   262
 74
   278
  0
VERTEX
  5
2D1
  8
METAL
 10
0.0
 20
0.0
 30
0.0
 70
   128
 71
   278
 72
   262
 73
   264
 74
   280
  0
VERTEX
  5
2D2
  8
METAL
 10
0.0
 20
0.0
 30
0.0
 70
   128
 71
   354
 72
   332
 73
   328
 74
   352
  0
VERTEX
  5
2D3
  8
METAL
 10
0.0
 20
0.0
 30
0.0
 70
   128
 71
   357
 72
   335
 73
   332
 74
   354
  0
VERTEX
  5
2D4
  8
METAL
 10
0.0
 20
0.0
 30
0.0
 70
   128
 71
   351
 72
   327
 73
   296
 74
   330
  0
VERTEX
  5
2D5
  8
METAL
 10
0.0
 20
0.0
 30
0.0
 70
   128
 71
   296
 72
   267
 73
   259
 74
   271
  0
VERTEX
  5
2D6
  8
METAL
 10
0.0
 20
0.0
 30
0.0
 70
   128
 71
   271
 72
   259
 73
   257
 74
   269
  0
VERTEX
  5
2D7
  8
METAL
 10
0.0
 20
0.0
 30
0.0
 70
   128
 71
   269
 72
   257
 73
   252
 74
   263
  0
VERTEX
  5
2D8
  8
METAL
 10
0.0
 20
0.0
 30
0.0
 70
   128
 71
   263
 72
   252
 73
   251
 74
   262
  0
VERTEX
  5
2D9
  8
METAL
 10
0.0
 20
0.0
 30
0.0
 70
   128
 71
   262
 72
   251
 73
   254
 74
   264
  0
VERTEX
  5
2DA
  8
METAL
 10
0.0
 20
0.0
 30
0.0
 70
   128
 71
   332
 72
   287
 73
   275
 74
   328
  0
VERTEX
  5
2DB
  8
METAL
 10
0.0
 20
0.0
 30
0.0
 70
   128
 71
   335
 72
   298
 73
   287
 74
   332
  0
VERTEX
  5
2DC
  8
METAL
 10
0.0
 20
0.0
 30
0.0
 70
   128
 71
   327
 72
   274
 73
   267
 74
   296
  0
VERTEX
  5
2DD
  8
METAL
 10
0.0
 20
0.0
 30
0.0
 70
   128
 71
   267
 72
   239
 73
   237
 74
   259
  0
VERTEX
  5
2DE
  8
METAL
 10
0.0
 20
0.0
 30
0.0
 70
   128
 71
   259
 72
   237
 73
   235
 74
   257
  0
VERTEX
  5
2DF
  8
METAL
 10
0.0
 20
0.0
 30
0.0
 70
   128
 71
   257
 72
   235
 73
   231
 74
   252
  0
VERTEX
  5
2E0
  8
METAL
 10
0.0
 20
0.0
 30
0.0
 70
   128
 71
   252
 72
   231
 73
   230
 74
   251
  0
VERTEX
  5
2E1
  8
METAL
 10
0.0
 20
0.0
 30
0.0
 70
   128
 71
   254
 72
   251
 73
   230
 74
   232
  0
VERTEX
  5
2E2
  8
METAL
 10
0.0
 20
0.0
 30
0.0
 70
   128
 71
   287
 72
   244
 73
   241
 74
   275
  0
VERTEX
  5
2E3
  8
METAL
 10
0.0
 20
0.0
 30
0.0
 70
   128
 71
   298
 72
   248
 73
   245
 74
   287
  0
VERTEX
  5
2E4
  8
METAL
 10
0.0
 20
0.0
 30
0.0
 70
   128
 71
   274
 72
   241
 73
   239
 74
   267
  0
VERTEX
  5
2E5
  8
METAL
 10
0.0
 20
0.0
 30
0.0
 70
   128
 71
   239
 72
   220
 73
   218
 74
   237
  0
VERTEX
  5
2E6
  8
METAL
 10
0.0
 20
0.0
 30
0.0
 70
   128
 71
   237
 72
   218
 73
   216
 74
   235
  0
VERTEX
  5
2E7
  8
METAL
 10
0.0
 20
0.0
 30
0.0
 70
   128
 71
   235
 72
   216
 73
   212
 74
   231
  0
VERTEX
  5
2E8
  8
METAL
 10
0.0
 20
0.0
 30
0.0
 70
   128
 71
   231
 72
   212
 73
   211
 74
   230
  0
VERTEX
  5
2E9
  8
METAL
 10
0.0
 20
0.0
 30
0.0
 70
   128
 71
   232
 72
   230
 73
   211
 74
   213
  0
VERTEX
  5
2EA
  8
METAL
 10
0.0
 20
0.0
 30
0.0
 70
   128
 71
   244
 72
   223
 73
   241
 74
   241
  0
VERTEX
  5
2EB
  8
METAL
 10
0.0
 20
0.0
 30
0.0
 70
   128
 71
   248
 72
   227
 73
   224
 74
   245
  0
VERTEX
  5
2EC
  8
METAL
 10
0.0
 20
0.0
 30
0.0
 70
   128
 71
   246
 72
   225
 73
   227
 74
   248
  0
VERTEX
  5
2ED
  8
METAL
 10
0.0
 20
0.0
 30
0.0
 70
   128
 71
   218
 72
   220
 73
   197
 74
   199
  0
VERTEX
  5
2EE
  8
METAL
 10
0.0
 20
0.0
 30
0.0
 70
   128
 71
   220
 72
   223
 73
   194
 74
   197
  0
VERTEX
  5
2EF
  8
METAL
 10
0.0
 20
0.0
 30
0.0
 70
   128
 71
   388
 72
   386
 73
   389
 74
   391
  0
VERTEX
  5
2F0
  8
METAL
 10
0.0
 20
0.0
 30
0.0
 70
   128
 71
   324
 72
   347
 73
   348
 74
   307
  0
VERTEX
  5
2F1
  8
METAL
 10
0.0
 20
0.0
 30
0.0
 70
   128
 71
   348
 72
   304
 73
   307
 74
   307
  0
VERTEX
  5
2F2
  8
METAL
 10
0.0
 20
0.0
 30
0.0
 70
   128
 71
   391
 72
   389
 73
   374
 74
   376
  0
VERTEX
  5
2F3
  8
METAL
 10
0.0
 20
0.0
 30
0.0
 70
   128
 71
   376
 72
   374
 73
   355
 74
   357
  0
VERTEX
  5
2F4
  8
METAL
 10
0.0
 20
0.0
 30
0.0
 70
   128
 71
   355
 72
   333
 73
   335
 74
   357
  0
VERTEX
  5
2F5
  8
METAL
 10
0.0
 20
0.0
 30
0.0
 70
   128
 71
   333
 72
   294
 73
   298
 74
   335
  0
VERTEX
  5
2F6
  8
METAL
 10
0.0
 20
0.0
 30
0.0
 70
   128
 71
   253
 72
   246
 73
   248
 74
   298
  0
VERTEX
  5
2F7
  8
METAL
 10
0.0
 20
0.0
 30
0.0
 70
   128
 71
   294
 72
   253
 73
   298
 74
   298
  0
VERTEX
  5
2F8
  8
METAL
 10
0.0
 20
0.0
 30
0.0
 70
   128
 71
   199
 72
   201
 73
   216
 74
   218
  0
VERTEX
  5
2F9
  8
METAL
 10
0.0
 20
0.0
 30
0.0
 70
   128
 71
   201
 72
   207
 73
   212
 74
   216
  0
VERTEX
  5
2FA
  8
METAL
 10
0.0
 20
0.0
 30
0.0
 70
   128
 71
   207
 72
   206
 73
   211
 74
   212
  0
VERTEX
  5
2FB
  8
METAL
 10
0.0
 20
0.0
 30
0.0
 70
   128
 71
   206
 72
   202
 73
   213
 74
   211
  0
VERTEX
  5
2FC
  8
METAL
 10
0.0
 20
0.0
 30
0.0
 70
   128
 71
   191
 72
   195
 73
   224
 74
   227
  0
VERTEX
  5
2FD
  8
METAL
 10
0.0
 20
0.0
 30
0.0
 70
   128
 71
   227
 72
   225
 73
   208
 74
   191
  0
VERTEX
  5
2FE
  8
METAL
 10
0.0
 20
0.0
 30
0.0
 70
   128
 71
   191
 72
   208
 73
   189
 74
   189
  0
VERTEX
  5
2FF
  8
METAL
 10
0.0
 20
0.0
 30
0.0
 70
   128
 71
   241
 72
   223
 73
   220
 74
   239
  0
SEQEND
  5
37D
  8
METAL
  0
ENDSEC
  0
EOF
