  0
SECTION
  2
HEADER
  9
$ACADVER
  1
AC1009
  9
$DWGCODEPAGE
  3
ansi_1252
  9
$INSBASE
 10
0.0
 20
0.0
 30
0.0
  9
$EXTMIN
 10
-129.0
 20
-30.32606506347656
 30
-8.0
  9
$EXTMAX
 10
129.5724182128906
 20
0.0
 30
8.69897460937501
  9
$LIMMIN
 10
0.0
 20
0.0
  9
$LIMMAX
 10
12.0
 20
9.0
  9
$ORTHOMODE
 70
     1
  9
$REGENMODE
 70
     1
  9
$FILLMODE
 70
     1
  9
$QTEXTMODE
 70
     0
  9
$MIRRTEXT
 70
     1
  9
$DRAGMODE
 70
     2
  9
$LTSCALE
 40
1.0
  9
$OSMODE
 70
    37
  9
$ATTMODE
 70
     1
  9
$TEXTSIZE
 40
0.2
  9
$TRACEWID
 40
0.05
  9
$TEXTSTYLE
  7
STANDARD
  9
$CLAYER
  8
0
  9
$CELTYPE
  6
BYLAYER
  9
$CECOLOR
 62
   256
  9
$DIMSCALE
 40
1.0
  9
$DIMASZ
 40
0.18
  9
$DIMEXO
 40
0.0625
  9
$DIMDLI
 40
0.38
  9
$DIMRND
 40
0.0
  9
$DIMDLE
 40
0.0
  9
$DIMEXE
 40
0.18
  9
$DIMTP
 40
0.0
  9
$DIMTM
 40
0.0
  9
$DIMTXT
 40
0.18
  9
$DIMCEN
 40
0.09
  9
$DIMTSZ
 40
0.0
  9
$DIMTOL
 70
     0
  9
$DIMLIM
 70
     0
  9
$DIMTIH
 70
     1
  9
$DIMTOH
 70
     1
  9
$DIMSE1
 70
     0
  9
$DIMSE2
 70
     0
  9
$DIMTAD
 70
     0
  9
$DIMZIN
 70
     0
  9
$DIMBLK
  1

  9
$DIMASO
 70
     1
  9
$DIMSHO
 70
     1
  9
$DIMPOST
  1

  9
$DIMAPOST
  1

  9
$DIMALT
 70
     0
  9
$DIMALTD
 70
     2
  9
$DIMALTF
 40
25.4
  9
$DIMLFAC
 40
1.0
  9
$DIMTOFL
 70
     0
  9
$DIMTVP
 40
0.0
  9
$DIMTIX
 70
     0
  9
$DIMSOXD
 70
     0
  9
$DIMSAH
 70
     0
  9
$DIMBLK1
  1

  9
$DIMBLK2
  1

  9
$DIMSTYLE
  2
STANDARD
  9
$DIMCLRD
 70
     0
  9
$DIMCLRE
 70
     0
  9
$DIMCLRT
 70
     0
  9
$DIMTFAC
 40
1.0
  9
$DIMGAP
 40
0.09
  9
$LUNITS
 70
     2
  9
$LUPREC
 70
     3
  9
$SKETCHINC
 40
0.1
  9
$FILLETRAD
 40
0.5
  9
$AUNITS
 70
     0
  9
$AUPREC
 70
     0
  9
$MENU
  1
.
  9
$ELEVATION
 40
0.0
  9
$PELEVATION
 40
0.0
  9
$THICKNESS
 40
0.0
  9
$LIMCHECK
 70
     0
  9
$CHAMFERA
 40
0.5
  9
$CHAMFERB
 40
0.5
  9
$SKPOLY
 70
     0
  9
$TDCREATE
 40
2456499.449327998
  9
$TDUPDATE
 40
2456499.449327998
  9
$TDINDWG
 40
0.0052546412
  9
$TDUSRTIMER
 40
0.0052546412
  9
$USRTIMER
 70
     1
  9
$ANGBASE
 50
0.0
  9
$ANGDIR
 70
     0
  9
$PDMODE
 70
     0
  9
$PDSIZE
 40
0.0
  9
$PLINEWID
 40
0.0
  9
$COORDS
 70
     1
  9
$SPLFRAME
 70
     0
  9
$SPLINETYPE
 70
     6
  9
$SPLINESEGS
 70
     8
  9
$ATTDIA
 70
     0
  9
$ATTREQ
 70
     1
  9
$HANDLING
 70
     1
  9
$HANDSEED
  5
7E4
  9
$SURFTAB1
 70
     6
  9
$SURFTAB2
 70
     6
  9
$SURFTYPE
 70
     6
  9
$SURFU
 70
     6
  9
$SURFV
 70
     6
  9
$UCSNAME
  2

  9
$UCSORG
 10
0.0
 20
0.0
 30
0.0
  9
$UCSXDIR
 10
1.0
 20
0.0
 30
0.0
  9
$UCSYDIR
 10
0.0
 20
0.0
 30
1.0
  9
$PUCSNAME
  2

  9
$PUCSORG
 10
0.0
 20
0.0
 30
0.0
  9
$PUCSXDIR
 10
1.0
 20
0.0
 30
0.0
  9
$PUCSYDIR
 10
0.0
 20
1.0
 30
0.0
  9
$USERI1
 70
     0
  9
$USERI2
 70
     0
  9
$USERI3
 70
     0
  9
$USERI4
 70
     0
  9
$USERI5
 70
     0
  9
$USERR1
 40
0.0
  9
$USERR2
 40
0.0
  9
$USERR3
 40
0.0
  9
$USERR4
 40
0.0
  9
$USERR5
 40
0.0
  9
$WORLDVIEW
 70
     1
  9
$SHADEDGE
 70
     3
  9
$SHADEDIF
 70
    70
  9
$TILEMODE
 70
     1
  9
$MAXACTVP
 70
    64
  9
$PLIMCHECK
 70
     0
  9
$PEXTMIN
 10
1.000000000000000E+20
 20
1.000000000000000E+20
 30
1.000000000000000E+20
  9
$PEXTMAX
 10
-1.000000000000000E+20
 20
-1.000000000000000E+20
 30
-1.000000000000000E+20
  9
$PLIMMIN
 10
0.0
 20
0.0
  9
$PLIMMAX
 10
12.0
 20
9.0
  9
$UNITMODE
 70
     0
  9
$VISRETAIN
 70
     1
  9
$PLINEGEN
 70
     0
  9
$PSLTSCALE
 70
     1
  0
ENDSEC
  0
SECTION
  2
TABLES
  0
TABLE
  2
VPORT
 70
     1
  0
VPORT
  2
*ACTIVE
 70
     0
 10
0.0
 20
0.0
 11
1.0
 21
1.0
 12
10.92426352654918
 22
-5.788082541553608
 13
0.0
 23
0.0
 14
0.5
 24
0.5
 15
0.5
 25
0.5
 16
-1.0
 26
-1.0
 36
1.0
 17
0.0
 27
0.0
 37
0.0
 40
167.7606336756351
 41
25.14273464879498
 42
50.0
 43
0.0
 44
0.0
 50
0.0
 51
0.0
 71
    16
 72
   100
 73
     0
 74
     1
 75
     0
 76
     0
 77
     0
 78
     0
  0
ENDTAB
  0
TABLE
  2
LTYPE
 70
     1
  0
LTYPE
  2
CONTINUOUS
 70
     0
  3
Solid line
 72
    65
 73
     0
 40
0.0
  0
ENDTAB
  0
TABLE
  2
LAYER
 70
     2
  0
LAYER
  2
0
 70
     0
 62
     7
  6
CONTINUOUS
  0
LAYER
  2
METAL
 70
     0
 62
   220
  6
CONTINUOUS
  0
ENDTAB
  0
TABLE
  2
STYLE
 70
     1
  0
STYLE
  2
STANDARD
 70
     0
 40
0.0
 41
1.0
 50
0.0
 71
     0
 42
0.2
  3
txt
  4

  0
ENDTAB
  0
TABLE
  2
VIEW
 70
     0
  0
ENDTAB
  0
TABLE
  2
UCS
 70
     0
  0
ENDTAB
  0
TABLE
  2
APPID
 70
     1
  0
APPID
  2
ACAD
 70
     0
  0
ENDTAB
  0
TABLE
  2
DIMSTYLE
 70
     1
  0
DIMSTYLE
  2
STANDARD
 70
     0
  3

  4

  5

  6

  7

 40
1.0
 41
0.18
 42
0.0625
 43
0.38
 44
0.18
 45
0.0
 46
0.0
 47
0.0
 48
0.0
140
0.18
141
0.09
142
0.0
143
25.4
144
1.0
145
0.0
146
1.0
147
0.09
 71
     0
 72
     0
 73
     1
 74
     1
 75
     0
 76
     0
 77
     0
 78
     0
170
     0
171
     2
172
     0
173
     0
174
     0
175
     0
176
     0
177
     0
178
     0
  0
ENDTAB
  0
ENDSEC
  0
SECTION
  2
BLOCKS
  0
BLOCK
  8
0
  2
$MODEL_SPACE
 70
     0
 10
0.0
 20
0.0
 30
0.0
  3
$MODEL_SPACE
  1

  0
ENDBLK
  5
21
  8
0
  0
BLOCK
 67
     1
  8
0
  2
$PAPER_SPACE
 70
     0
 10
0.0
 20
0.0
 30
0.0
  3
$PAPER_SPACE
  1

  0
ENDBLK
  5
76
 67
     1
  8
0
  0
ENDSEC
  0
SECTION
  2
ENTITIES
  0
POLYLINE
  5
3C
  8
METAL
 66
     1
 10
0.0
 20
0.0
 30
0.0
 70
    64
 71
    42
 72
    19
  0
VERTEX
  5
3D
  8
METAL
 10
-99.14448547363278
 20
-23.95291519165039
 30
0.4622192382812003
 70
   192
  0
VERTEX
  5
3E
  8
METAL
 10
-99.14448547363278
 20
-23.95291519165039
 30
0.4622192382812003
 70
   192
  0
VERTEX
  5
3F
  8
METAL
 10
-99.14448547363278
 20
0.0
 30
0.4622192382812003
 70
   192
  0
VERTEX
  5
40
  8
METAL
 10
-99.14448547363278
 20
0.0
 30
0.4622192382812003
 70
   192
  0
VERTEX
  5
41
  8
METAL
 10
-99.91459655761719
 20
-23.95291519165045
 30
2.83239746093739
 70
   192
  0
VERTEX
  5
42
  8
METAL
 10
-99.91459655761719
 20
-23.95291519165045
 30
2.83239746093739
 70
   192
  0
VERTEX
  5
43
  8
METAL
 10
-99.91459655761719
 20
-0.0000000000000568
 30
2.83239746093739
 70
   192
  0
VERTEX
  5
44
  8
METAL
 10
-99.91459655761719
 20
-0.0000000000000568
 30
2.83239746093739
 70
   192
  0
VERTEX
  5
45
  8
METAL
 10
-99.91459655761719
 20
-23.95291519165039
 30
-1.907928466796925
 70
   192
  0
VERTEX
  5
46
  8
METAL
 10
-99.91459655761719
 20
-23.95291519165039
 30
-1.907928466796925
 70
   192
  0
VERTEX
  5
47
  8
METAL
 10
-99.91459655761719
 20
0.0
 30
-1.907928466796925
 70
   192
  0
VERTEX
  5
48
  8
METAL
 10
-99.91459655761719
 20
0.0
 30
-1.907928466796925
 70
   192
  0
VERTEX
  5
49
  8
METAL
 10
-101.9307861328125
 20
-23.95291519165045
 30
4.297210693359331
 70
   192
  0
VERTEX
  5
4A
  8
METAL
 10
-101.9307861328125
 20
-23.95291519165045
 30
4.297210693359331
 70
   192
  0
VERTEX
  5
4B
  8
METAL
 10
-101.9307861328125
 20
-0.0000000000000568
 30
4.297210693359331
 70
   192
  0
VERTEX
  5
4C
  8
METAL
 10
-101.9307861328125
 20
-0.0000000000000568
 30
4.297210693359331
 70
   192
  0
VERTEX
  5
4D
  8
METAL
 10
-101.9307861328125
 20
-23.95291519165039
 30
-3.372772216796925
 70
   192
  0
VERTEX
  5
4E
  8
METAL
 10
-101.9307861328125
 20
-23.95291519165039
 30
-3.372772216796925
 70
   192
  0
VERTEX
  5
4F
  8
METAL
 10
-101.9307861328125
 20
0.0
 30
-3.372772216796925
 70
   192
  0
VERTEX
  5
50
  8
METAL
 10
-101.9307861328125
 20
0.0
 30
-3.372772216796925
 70
   192
  0
VERTEX
  5
51
  8
METAL
 10
-104.4229125976563
 20
-23.95291519165045
 30
4.297210693359331
 70
   192
  0
VERTEX
  5
52
  8
METAL
 10
-104.4229125976563
 20
-23.95291519165045
 30
4.297210693359331
 70
   192
  0
VERTEX
  5
53
  8
METAL
 10
-104.4229125976563
 20
-23.95291519165045
 30
4.297210693359331
 70
   192
  0
VERTEX
  5
54
  8
METAL
 10
-104.4229125976563
 20
-0.0000000000000568
 30
4.297210693359331
 70
   192
  0
VERTEX
  5
55
  8
METAL
 10
-104.4229125976563
 20
-0.0000000000000568
 30
4.297210693359331
 70
   192
  0
VERTEX
  5
56
  8
METAL
 10
-104.4229125976563
 20
-0.0000000000000568
 30
4.297210693359331
 70
   192
  0
VERTEX
  5
57
  8
METAL
 10
-104.4229125976563
 20
-23.95291519165039
 30
-3.372772216796925
 70
   192
  0
VERTEX
  5
58
  8
METAL
 10
-104.4229125976563
 20
-23.95291519165039
 30
-3.372772216796925
 70
   192
  0
VERTEX
  5
736
  8
METAL
 10
-104.4229125976563
 20
0.0
 30
-3.372772216796925
 70
   192
  0
VERTEX
  5
737
  8
METAL
 10
-104.4229125976563
 20
0.0
 30
-3.372772216796925
 70
   192
  0
VERTEX
  5
5B
  8
METAL
 10
-106.4391021728516
 20
-23.95291519165045
 30
2.83239746093739
 70
   192
  0
VERTEX
  5
5C
  8
METAL
 10
-106.4391021728516
 20
-23.95291519165045
 30
2.83239746093739
 70
   192
  0
VERTEX
  5
5D
  8
METAL
 10
-106.4391021728516
 20
-0.0000000000000568
 30
2.83239746093739
 70
   192
  0
VERTEX
  5
738
  8
METAL
 10
-106.4391021728516
 20
-0.0000000000000568
 30
2.83239746093739
 70
   192
  0
VERTEX
  5
5F
  8
METAL
 10
-106.4391021728516
 20
-23.95291519165039
 30
-1.907958984374993
 70
   192
  0
VERTEX
  5
60
  8
METAL
 10
-106.4391021728516
 20
-23.95291519165039
 30
-1.907958984374993
 70
   192
  0
VERTEX
  5
61
  8
METAL
 10
-106.4391021728516
 20
0.0
 30
-1.907958984374993
 70
   192
  0
VERTEX
  5
62
  8
METAL
 10
-106.4391021728516
 20
0.0
 30
-1.907958984374993
 70
   192
  0
VERTEX
  5
63
  8
METAL
 10
-107.209213256836
 20
-23.95291519165039
 30
0.4622192382812003
 70
   192
  0
VERTEX
  5
64
  8
METAL
 10
-107.209213256836
 20
-23.95291519165039
 30
0.4622192382812003
 70
   192
  0
VERTEX
  5
65
  8
METAL
 10
-107.209213256836
 20
0.0
 30
0.4622192382812003
 70
   192
  0
VERTEX
  5
66
  8
METAL
 10
-107.209213256836
 20
0.0
 30
0.4622192382812003
 70
   192
  0
VERTEX
  5
67
  8
METAL
 10
0.0
 20
0.0
 30
0.0
 70
   128
 71
     3
 72
     7
 73
     5
 74
     1
  0
VERTEX
  5
68
  8
METAL
 10
0.0
 20
0.0
 30
0.0
 70
   128
 71
     7
 72
    15
 73
    13
 74
     5
  0
VERTEX
  5
69
  8
METAL
 10
0.0
 20
0.0
 30
0.0
 70
   128
 71
    15
 72
    25
 73
    22
 74
    13
  0
VERTEX
  5
6A
  8
METAL
 10
0.0
 20
0.0
 30
0.0
 70
   128
 71
    26
 72
    34
 73
    32
 74
    23
  0
VERTEX
  5
739
  8
METAL
 10
0.0
 20
0.0
 30
0.0
 70
   128
 71
    34
 72
    42
 73
    40
 74
    32
  0
VERTEX
  5
73A
  8
METAL
 10
0.0
 20
0.0
 30
0.0
 70
   128
 71
    42
 72
    38
 73
    36
 74
    40
  0
VERTEX
  5
6D
  8
METAL
 10
0.0
 20
0.0
 30
0.0
 70
   128
 71
    38
 72
    30
 73
    28
 74
    36
  0
VERTEX
  5
6E
  8
METAL
 10
0.0
 20
0.0
 30
0.0
 70
   128
 71
    30
 72
    19
 73
    17
 74
    28
  0
VERTEX
  5
6F
  8
METAL
 10
0.0
 20
0.0
 30
0.0
 70
   128
 71
    19
 72
    11
 73
     9
 74
    17
  0
VERTEX
  5
70
  8
METAL
 10
0.0
 20
0.0
 30
0.0
 70
   128
 71
    11
 72
     3
 73
     1
 74
     9
  0
VERTEX
  5
71
  8
METAL
 10
0.0
 20
0.0
 30
0.0
 70
   128
 71
     6
 72
    14
 73
    21
 74
    10
  0
VERTEX
  5
72
  8
METAL
 10
0.0
 20
0.0
 30
0.0
 70
   128
 71
    21
 72
    31
 73
    39
 74
    10
  0
VERTEX
  5
73B
  8
METAL
 10
0.0
 20
0.0
 30
0.0
 70
   128
 71
    39
 72
    35
 73
    27
 74
    10
  0
VERTEX
  5
73C
  8
METAL
 10
0.0
 20
0.0
 30
0.0
 70
   128
 71
    27
 72
    18
 73
    10
 74
    10
  0
VERTEX
  5
73D
  8
METAL
 10
0.0
 20
0.0
 30
0.0
 70
   128
 71
     2
 72
     6
 73
    10
 74
    10
  0
VERTEX
  5
73E
  8
METAL
 10
0.0
 20
0.0
 30
0.0
 70
   128
 71
    24
 72
    16
 73
     8
 74
    33
  0
VERTEX
  5
77
  8
METAL
 10
0.0
 20
0.0
 30
0.0
 70
   128
 71
    33
 72
     8
 73
     4
 74
    41
  0
VERTEX
  5
78
  8
METAL
 10
0.0
 20
0.0
 30
0.0
 70
   128
 71
    41
 72
     4
 73
    12
 74
    37
  0
VERTEX
  5
79
  8
METAL
 10
0.0
 20
0.0
 30
0.0
 70
   128
 71
    37
 72
    12
 73
    20
 74
    29
  0
SEQEND
  5
7DE
  8
METAL
  0
POLYLINE
  5
7B
  8
METAL
 66
     1
 10
0.0
 20
0.0
 30
0.0
 70
    64
 71
  1282
 72
   364
  0
VERTEX
  5
7C
  8
METAL
 10
129.5724182128906
 20
-18.83215713500977
 30
0.3494873046873934
 70
   192
  0
VERTEX
  5
7D
  8
METAL
 10
129.5273742675781
 20
-18.83215713500977
 30
3.114288330078081
 70
   192
  0
VERTEX
  5
7E
  8
METAL
 10
129.5273742675781
 20
-18.83215713500977
 30
-2.415313720703175
 70
   192
  0
VERTEX
  5
7F
  8
METAL
 10
129.4187316894531
 20
-18.83215713500977
 30
6.096954345703081
 70
   192
  0
VERTEX
  5
80
  8
METAL
 10
129.4187316894531
 20
-18.83215713500977
 30
-5.397979736328175
 70
   192
  0
VERTEX
  5
81
  8
METAL
 10
129.1806640625
 20
-19.78915023803717
 30
6.331817626953081
 70
   192
  0
VERTEX
  5
82
  8
METAL
 10
129.1806640625
 20
-17.87516403198248
 30
6.331817626953081
 70
   192
  0
VERTEX
  5
83
  8
METAL
 10
129.1806640625
 20
-20.02840042114263
 30
3.251068115234331
 70
   192
  0
VERTEX
  5
84
  8
METAL
 10
129.1806640625
 20
-17.63591766357428
 30
3.251068115234331
 70
   192
  0
VERTEX
  5
85
  8
METAL
 10
129.1806640625
 20
-20.10815048217773
 30
0.3494873046873934
 70
   192
  0
VERTEX
  5
86
  8
METAL
 10
129.1806640625
 20
-17.55616760253906
 30
0.3494873046873934
 70
   192
  0
VERTEX
  5
87
  8
METAL
 10
129.1806640625
 20
-20.02840042114258
 30
-2.552093505859425
 70
   192
  0
VERTEX
  5
88
  8
METAL
 10
129.1806640625
 20
-17.63591766357422
 30
-2.552093505859425
 70
   192
  0
VERTEX
  5
89
  8
METAL
 10
129.1806640625
 20
-19.78915023803711
 30
-5.632843017578175
 70
   192
  0
VERTEX
  5
8A
  8
METAL
 10
129.1806640625
 20
-17.87516403198242
 30
-5.632843017578175
 70
   192
  0
VERTEX
  5
8B
  8
METAL
 10
129.0285339355468
 20
-18.83215713500977
 30
7.525543212890581
 70
   192
  0
VERTEX
  5
8C
  8
METAL
 10
129.0285339355468
 20
-18.83215713500977
 30
-6.826568603515675
 70
   192
  0
VERTEX
  5
8D
  8
METAL
 10
128.9268188476562
 20
-19.39040374755865
 30
7.580291748046831
 70
   192
  0
VERTEX
  5
8E
  8
METAL
 10
128.9268188476562
 20
-18.27391052246099
 30
7.580291748046831
 70
   192
  0
VERTEX
  5
8F
  8
METAL
 10
128.9268188476562
 20
-19.39040374755859
 30
-6.881317138671925
 70
   192
  0
VERTEX
  5
90
  8
METAL
 10
128.9268188476562
 20
-18.27391052246099
 30
-6.881317138671925
 70
   192
  0
VERTEX
  5
91
  8
METAL
 10
128.4469299316406
 20
-19.73892211914062
 30
8.130401611328079
 70
   192
  0
VERTEX
  5
740
  8
METAL
 10
128.4469299316406
 20
-19.73892211914062
 30
8.130401611328079
 70
   192
  0
VERTEX
  5
741
  8
METAL
 10
128.4469299316406
 20
-19.73892211914062
 30
8.130401611328079
 70
   192
  0
VERTEX
  5
94
  8
METAL
 10
128.4469299316406
 20
-17.92539596557623
 30
8.130401611328079
 70
   192
  0
VERTEX
  5
95
  8
METAL
 10
128.4469299316406
 20
-17.92539596557623
 30
8.130401611328079
 70
   192
  0
VERTEX
  5
96
  8
METAL
 10
128.4469299316406
 20
-17.92539596557623
 30
8.130401611328079
 70
   192
  0
VERTEX
  5
742
  8
METAL
 10
128.4469299316406
 20
-19.73892211914062
 30
-7.431427001953175
 70
   192
  0
VERTEX
  5
743
  8
METAL
 10
128.4469299316406
 20
-19.73892211914062
 30
-7.431427001953175
 70
   192
  0
VERTEX
  5
99
  8
METAL
 10
128.4469299316406
 20
-19.73892211914062
 30
-7.431427001953175
 70
   192
  0
VERTEX
  5
9A
  8
METAL
 10
128.4469299316406
 20
-17.92539596557617
 30
-7.431427001953175
 70
   192
  0
VERTEX
  5
9B
  8
METAL
 10
128.4469299316406
 20
-17.92539596557617
 30
-7.431427001953175
 70
   192
  0
VERTEX
  5
9C
  8
METAL
 10
128.4469299316406
 20
-17.92539596557617
 30
-7.431427001953175
 70
   192
  0
VERTEX
  5
9D
  8
METAL
 10
128.4439086914062
 20
-19.39040374755865
 30
8.2443237304687
 70
   192
  0
VERTEX
  5
9E
  8
METAL
 10
128.4439086914062
 20
-19.39040374755865
 30
8.2443237304687
 70
   192
  0
VERTEX
  5
9F
  8
METAL
 10
128.4439086914062
 20
-19.39040374755865
 30
8.2443237304687
 70
   192
  0
VERTEX
  5
A0
  8
METAL
 10
128.4439086914062
 20
-18.27391052246099
 30
8.2443237304687
 70
   192
  0
VERTEX
  5
A1
  8
METAL
 10
128.4439086914062
 20
-18.27391052246099
 30
8.2443237304687
 70
   192
  0
VERTEX
  5
A2
  8
METAL
 10
128.4439086914062
 20
-18.27391052246099
 30
8.2443237304687
 70
   192
  0
VERTEX
  5
A3
  8
METAL
 10
128.4439086914062
 20
-19.39040374755859
 30
-7.5453491210938
 70
   192
  0
VERTEX
  5
A4
  8
METAL
 10
128.4439086914062
 20
-19.39040374755859
 30
-7.5453491210938
 70
   192
  0
VERTEX
  5
A5
  8
METAL
 10
128.4439086914062
 20
-19.39040374755859
 30
-7.5453491210938
 70
   192
  0
VERTEX
  5
A6
  8
METAL
 10
128.4439086914062
 20
-18.27391052246099
 30
-7.5453491210938
 70
   192
  0
VERTEX
  5
A7
  8
METAL
 10
128.4439086914062
 20
-18.27391052246099
 30
-7.5453491210938
 70
   192
  0
VERTEX
  5
A8
  8
METAL
 10
128.4439086914062
 20
-18.27391052246099
 30
-7.5453491210938
 70
   192
  0
VERTEX
  5
A9
  8
METAL
 10
128.4205017089843
 20
-20.40811538696295
 30
6.787567138671831
 70
   192
  0
VERTEX
  5
AA
  8
METAL
 10
128.4205017089843
 20
-20.40811538696295
 30
6.787567138671831
 70
   192
  0
VERTEX
  5
AB
  8
METAL
 10
128.4205017089843
 20
-20.40811538696295
 30
6.787567138671831
 70
   192
  0
VERTEX
  5
AC
  8
METAL
 10
128.4205017089843
 20
-17.25620269775396
 30
6.787567138671831
 70
   192
  0
VERTEX
  5
AD
  8
METAL
 10
128.4205017089843
 20
-17.25620269775396
 30
6.787567138671831
 70
   192
  0
VERTEX
  5
AE
  8
METAL
 10
128.4205017089843
 20
-17.25620269775396
 30
6.787567138671831
 70
   192
  0
VERTEX
  5
AF
  8
METAL
 10
128.4205017089843
 20
-20.40811538696289
 30
-6.088592529296925
 70
   192
  0
VERTEX
  5
B0
  8
METAL
 10
128.4205017089843
 20
-20.40811538696289
 30
-6.088592529296925
 70
   192
  0
VERTEX
  5
B1
  8
METAL
 10
128.4205017089843
 20
-20.40811538696289
 30
-6.088592529296925
 70
   192
  0
VERTEX
  5
B2
  8
METAL
 10
128.4205017089843
 20
-17.25619888305664
 30
-6.088592529296925
 70
   192
  0
VERTEX
  5
B3
  8
METAL
 10
128.4205017089843
 20
-17.25619888305664
 30
-6.088592529296925
 70
   192
  0
VERTEX
  5
B4
  8
METAL
 10
128.4205017089843
 20
-17.25619888305664
 30
-6.088592529296925
 70
   192
  0
VERTEX
  5
B5
  8
METAL
 10
128.4072570800781
 20
-20.81557846069342
 30
3.521087646484331
 70
   192
  0
VERTEX
  5
B6
  8
METAL
 10
128.4072570800781
 20
-20.81557846069342
 30
3.521087646484331
 70
   192
  0
VERTEX
  5
B7
  8
METAL
 10
128.4072570800781
 20
-20.81557846069342
 30
3.521087646484331
 70
   192
  0
VERTEX
  5
B8
  8
METAL
 10
128.4072570800781
 20
-16.84873962402349
 30
3.521087646484331
 70
   192
  0
VERTEX
  5
B9
  8
METAL
 10
128.4072570800781
 20
-16.84873962402349
 30
3.521087646484331
 70
   192
  0
VERTEX
  5
BA
  8
METAL
 10
128.4072570800781
 20
-16.84873962402349
 30
3.521087646484331
 70
   192
  0
VERTEX
  5
BB
  8
METAL
 10
128.4072570800781
 20
-20.81557846069336
 30
-2.822113037109425
 70
   192
  0
VERTEX
  5
BC
  8
METAL
 10
128.4072570800781
 20
-20.81557846069336
 30
-2.822113037109425
 70
   192
  0
VERTEX
  5
BD
  8
METAL
 10
128.4072570800781
 20
-20.81557846069336
 30
-2.822113037109425
 70
   192
  0
VERTEX
  5
BE
  8
METAL
 10
128.4072570800781
 20
-16.84873962402349
 30
-2.822113037109425
 70
   192
  0
VERTEX
  5
BF
  8
METAL
 10
128.4072570800781
 20
-16.84873962402349
 30
-2.822113037109425
 70
   192
  0
VERTEX
  5
C0
  8
METAL
 10
128.4072570800781
 20
-16.84873962402349
 30
-2.822113037109425
 70
   192
  0
VERTEX
  5
C1
  8
METAL
 10
128.4053344726562
 20
-20.94989776611328
 30
0.3494873046873934
 70
   192
  0
VERTEX
  5
C2
  8
METAL
 10
128.4053344726562
 20
-20.94989776611328
 30
0.3494873046873934
 70
   192
  0
VERTEX
  5
C3
  8
METAL
 10
128.4053344726562
 20
-20.94989776611328
 30
0.3494873046873934
 70
   192
  0
VERTEX
  5
C4
  8
METAL
 10
128.4053344726562
 20
-16.71441650390625
 30
0.3494873046873934
 70
   192
  0
VERTEX
  5
C5
  8
METAL
 10
128.4053344726562
 20
-16.71441650390625
 30
0.3494873046873934
 70
   192
  0
VERTEX
  5
C6
  8
METAL
 10
128.4053344726562
 20
-16.71441650390625
 30
0.3494873046873934
 70
   192
  0
VERTEX
  5
C7
  8
METAL
 10
128.3822937011718
 20
-18.83215713500977
 30
8.2445678710937
 70
   192
  0
VERTEX
  5
C8
  8
METAL
 10
128.3822937011718
 20
-18.83215713500977
 30
8.2445678710937
 70
   192
  0
VERTEX
  5
C9
  8
METAL
 10
128.3822937011718
 20
-18.83215713500977
 30
8.2445678710937
 70
   192
  0
VERTEX
  5
CA
  8
METAL
 10
128.3822937011718
 20
-18.83215713500977
 30
-7.5455932617188
 70
   192
  0
VERTEX
  5
CB
  8
METAL
 10
128.3822937011718
 20
-18.83215713500977
 30
-7.5455932617188
 70
   192
  0
VERTEX
  5
CC
  8
METAL
 10
128.3822937011718
 20
-18.83215713500977
 30
-7.5455932617188
 70
   192
  0
VERTEX
  5
CD
  8
METAL
 10
127.9682006835938
 20
-19.90000152587896
 30
8.378692626953079
 70
   192
  0
VERTEX
  5
CE
  8
METAL
 10
127.9682006835938
 20
-19.90000152587896
 30
8.378692626953079
 70
   192
  0
VERTEX
  5
CF
  8
METAL
 10
127.9682006835938
 20
-19.90000152587896
 30
8.378692626953079
 70
   192
  0
VERTEX
  5
D0
  8
METAL
 10
127.9682006835938
 20
-19.90000152587896
 30
8.378692626953079
 70
   192
  0
VERTEX
  5
D1
  8
METAL
 10
127.9682006835938
 20
-17.77188110351562
 30
8.378692626953079
 70
   192
  0
VERTEX
  5
D2
  8
METAL
 10
127.9682006835938
 20
-17.77188110351562
 30
8.378692626953079
 70
   192
  0
VERTEX
  5
D3
  8
METAL
 10
127.9682006835938
 20
-17.77188110351562
 30
8.378692626953079
 70
   192
  0
VERTEX
  5
D4
  8
METAL
 10
127.9682006835938
 20
-17.77188110351562
 30
8.378692626953079
 70
   192
  0
VERTEX
  5
D5
  8
METAL
 10
127.9682006835938
 20
-19.89999771118164
 30
-7.679718017578175
 70
   192
  0
VERTEX
  5
D6
  8
METAL
 10
127.9682006835938
 20
-19.89999771118164
 30
-7.679718017578175
 70
   192
  0
VERTEX
  5
D7
  8
METAL
 10
127.9682006835938
 20
-19.89999771118164
 30
-7.679718017578175
 70
   192
  0
VERTEX
  5
D8
  8
METAL
 10
127.9682006835938
 20
-19.89999771118164
 30
-7.679718017578175
 70
   192
  0
VERTEX
  5
D9
  8
METAL
 10
127.9682006835938
 20
-17.77187728881836
 30
-7.679718017578175
 70
   192
  0
VERTEX
  5
DA
  8
METAL
 10
127.9682006835938
 20
-17.77187728881836
 30
-7.679718017578175
 70
   192
  0
VERTEX
  5
DB
  8
METAL
 10
127.9682006835938
 20
-17.77187728881836
 30
-7.679718017578175
 70
   192
  0
VERTEX
  5
DC
  8
METAL
 10
127.9682006835938
 20
-17.77187728881836
 30
-7.679718017578175
 70
   192
  0
VERTEX
  5
DD
  8
METAL
 10
127.9674682617188
 20
-19.39418411254888
 30
8.54077148437501
 70
   192
  0
VERTEX
  5
DE
  8
METAL
 10
127.9674682617188
 20
-19.39418411254888
 30
8.54077148437501
 70
   192
  0
VERTEX
  5
DF
  8
METAL
 10
127.9674682617188
 20
-19.39418411254888
 30
8.54077148437501
 70
   192
  0
VERTEX
  5
E0
  8
METAL
 10
127.9674682617188
 20
-19.39418411254888
 30
8.54077148437501
 70
   192
  0
VERTEX
  5
E1
  8
METAL
 10
127.9674682617188
 20
-18.27769470214849
 30
8.54077148437501
 70
   192
  0
VERTEX
  5
E2
  8
METAL
 10
127.9674682617188
 20
-18.27769470214849
 30
8.54077148437501
 70
   192
  0
VERTEX
  5
E3
  8
METAL
 10
127.9674682617188
 20
-18.27769470214849
 30
8.54077148437501
 70
   192
  0
VERTEX
  5
E4
  8
METAL
 10
127.9674682617188
 20
-18.27769470214849
 30
8.54077148437501
 70
   192
  0
VERTEX
  5
E5
  8
METAL
 10
127.9674682617188
 20
-19.39418411254883
 30
-7.841796875
 70
   192
  0
VERTEX
  5
E6
  8
METAL
 10
127.9674682617188
 20
-19.39418411254883
 30
-7.841796875
 70
   192
  0
VERTEX
  5
E7
  8
METAL
 10
127.9674682617188
 20
-19.39418411254883
 30
-7.841796875
 70
   192
  0
VERTEX
  5
E8
  8
METAL
 10
127.9674682617188
 20
-19.39418411254883
 30
-7.841796875
 70
   192
  0
VERTEX
  5
E9
  8
METAL
 10
127.9674682617188
 20
-18.27769470214849
 30
-7.841796875
 70
   192
  0
VERTEX
  5
EA
  8
METAL
 10
127.9674682617188
 20
-18.27769470214849
 30
-7.841796875
 70
   192
  0
VERTEX
  5
EB
  8
METAL
 10
127.9674682617188
 20
-18.27769470214849
 30
-7.841796875
 70
   192
  0
VERTEX
  5
EC
  8
METAL
 10
127.9674682617188
 20
-18.27769470214849
 30
-7.841796875
 70
   192
  0
VERTEX
  5
ED
  8
METAL
 10
127.9616088867188
 20
-20.66542053222662
 30
6.974212646484331
 70
   192
  0
VERTEX
  5
EE
  8
METAL
 10
127.9616088867188
 20
-20.66542053222662
 30
6.974212646484331
 70
   192
  0
VERTEX
  5
EF
  8
METAL
 10
127.9616088867188
 20
-20.66542053222662
 30
6.974212646484331
 70
   192
  0
VERTEX
  5
F0
  8
METAL
 10
127.9616088867188
 20
-20.66542053222662
 30
6.974212646484331
 70
   192
  0
VERTEX
  5
F1
  8
METAL
 10
127.9616088867188
 20
-17.00645828247076
 30
6.974212646484331
 70
   192
  0
VERTEX
  5
F2
  8
METAL
 10
127.9616088867188
 20
-17.00645828247076
 30
6.974212646484331
 70
   192
  0
VERTEX
  5
F3
  8
METAL
 10
127.9616088867188
 20
-17.00645828247076
 30
6.974212646484331
 70
   192
  0
VERTEX
  5
F4
  8
METAL
 10
127.9616088867188
 20
-17.00645828247076
 30
6.974212646484331
 70
   192
  0
VERTEX
  5
F5
  8
METAL
 10
127.9616088867188
 20
-20.66542053222656
 30
-6.275238037109425
 70
   192
  0
VERTEX
  5
F6
  8
METAL
 10
127.9616088867188
 20
-20.66542053222656
 30
-6.275238037109425
 70
   192
  0
VERTEX
  5
F7
  8
METAL
 10
127.9616088867188
 20
-20.66542053222656
 30
-6.275238037109425
 70
   192
  0
VERTEX
  5
F8
  8
METAL
 10
127.9616088867188
 20
-20.66542053222656
 30
-6.275238037109425
 70
   192
  0
VERTEX
  5
F9
  8
METAL
 10
127.9616088867188
 20
-17.0064582824707
 30
-6.275238037109425
 70
   192
  0
VERTEX
  5
FA
  8
METAL
 10
127.9616088867188
 20
-17.0064582824707
 30
-6.275238037109425
 70
   192
  0
VERTEX
  5
FB
  8
METAL
 10
127.9616088867188
 20
-17.0064582824707
 30
-6.275238037109425
 70
   192
  0
VERTEX
  5
FC
  8
METAL
 10
127.9616088867188
 20
-17.0064582824707
 30
-6.275238037109425
 70
   192
  0
VERTEX
  5
FD
  8
METAL
 10
127.9582824707031
 20
-21.12615966796881
 30
3.62634277343739
 70
   192
  0
VERTEX
  5
FE
  8
METAL
 10
127.9582824707031
 20
-21.12615966796881
 30
3.62634277343739
 70
   192
  0
VERTEX
  5
FF
  8
METAL
 10
127.9582824707031
 20
-21.12615966796881
 30
3.62634277343739
 70
   192
  0
VERTEX
  5
100
  8
METAL
 10
127.9582824707031
 20
-21.12615966796881
 30
3.62634277343739
 70
   192
  0
VERTEX
  5
101
  8
METAL
 10
127.9582824707031
 20
-16.54572296142584
 30
3.62634277343739
 70
   192
  0
VERTEX
  5
102
  8
METAL
 10
127.9582824707031
 20
-16.54572296142584
 30
3.62634277343739
 70
   192
  0
VERTEX
  5
103
  8
METAL
 10
127.9582824707031
 20
-16.54572296142584
 30
3.62634277343739
 70
   192
  0
VERTEX
  5
104
  8
METAL
 10
127.9582824707031
 20
-16.54572296142584
 30
3.62634277343739
 70
   192
  0
VERTEX
  5
105
  8
METAL
 10
127.9582824707031
 20
-21.12615966796875
 30
-2.927368164062607
 70
   192
  0
VERTEX
  5
106
  8
METAL
 10
127.9582824707031
 20
-21.12615966796875
 30
-2.927368164062607
 70
   192
  0
VERTEX
  5
107
  8
METAL
 10
127.9582824707031
 20
-21.12615966796875
 30
-2.927368164062607
 70
   192
  0
VERTEX
  5
108
  8
METAL
 10
127.9582824707031
 20
-21.12615966796875
 30
-2.927368164062607
 70
   192
  0
VERTEX
  5
109
  8
METAL
 10
127.9582824707031
 20
-16.54571914672852
 30
-2.927368164062607
 70
   192
  0
VERTEX
  5
10A
  8
METAL
 10
127.9582824707031
 20
-16.54571914672852
 30
-2.927368164062607
 70
   192
  0
VERTEX
  5
10B
  8
METAL
 10
127.9582824707031
 20
-16.54571914672852
 30
-2.927368164062607
 70
   192
  0
VERTEX
  5
10C
  8
METAL
 10
127.9582824707031
 20
-16.54571914672852
 30
-2.927368164062607
 70
   192
  0
VERTEX
  5
10D
  8
METAL
 10
127.9578247070312
 20
-21.27936172485352
 30
0.3494873046873934
 70
   192
  0
VERTEX
  5
10E
  8
METAL
 10
127.9578247070312
 20
-21.27936172485352
 30
0.3494873046873934
 70
   192
  0
VERTEX
  5
10F
  8
METAL
 10
127.9578247070312
 20
-21.27936172485352
 30
0.3494873046873934
 70
   192
  0
VERTEX
  5
110
  8
METAL
 10
127.9578247070312
 20
-21.27936172485352
 30
0.3494873046873934
 70
   192
  0
VERTEX
  5
111
  8
METAL
 10
127.9578247070312
 20
-16.39251708984375
 30
0.3494873046873934
 70
   192
  0
VERTEX
  5
112
  8
METAL
 10
127.9578247070312
 20
-16.39251708984375
 30
0.3494873046873934
 70
   192
  0
VERTEX
  5
113
  8
METAL
 10
127.9578247070312
 20
-16.39251708984375
 30
0.3494873046873934
 70
   192
  0
VERTEX
  5
114
  8
METAL
 10
127.9578247070312
 20
-16.39251708984375
 30
0.3494873046873934
 70
   192
  0
VERTEX
  5
115
  8
METAL
 10
127.9520568847656
 20
-18.83593750000006
 30
8.585357666015579
 70
   192
  0
VERTEX
  5
116
  8
METAL
 10
127.9520568847656
 20
-18.83593750000006
 30
8.585357666015579
 70
   192
  0
VERTEX
  5
117
  8
METAL
 10
127.9520568847656
 20
-18.83593750000006
 30
8.585357666015579
 70
   192
  0
VERTEX
  5
118
  8
METAL
 10
127.9520568847656
 20
-18.83593750000006
 30
8.585357666015579
 70
   192
  0
VERTEX
  5
119
  8
METAL
 10
127.9520568847656
 20
-18.8359375
 30
-7.886383056640682
 70
   192
  0
VERTEX
  5
11A
  8
METAL
 10
127.9520568847656
 20
-18.8359375
 30
-7.886383056640682
 70
   192
  0
VERTEX
  5
11B
  8
METAL
 10
127.9520568847656
 20
-18.8359375
 30
-7.886383056640682
 70
   192
  0
VERTEX
  5
11C
  8
METAL
 10
127.9520568847656
 20
-18.8359375
 30
-7.886383056640682
 70
   192
  0
VERTEX
  5
11D
  8
METAL
 10
127.4151916503906
 20
-18.84728240966803
 30
8.698944091796829
 70
   192
  0
VERTEX
  5
11E
  8
METAL
 10
127.4151916503906
 20
-18.84728240966803
 30
8.698944091796829
 70
   192
  0
VERTEX
  5
11F
  8
METAL
 10
127.4151916503906
 20
-18.84728240966803
 30
8.698944091796829
 70
   192
  0
VERTEX
  5
120
  8
METAL
 10
127.4151916503906
 20
-18.84728240966803
 30
8.698944091796829
 70
   192
  0
VERTEX
  5
121
  8
METAL
 10
127.4151916503906
 20
-19.40552902221685
 30
8.6395874023437
 70
   192
  0
VERTEX
  5
122
  8
METAL
 10
127.4151916503906
 20
-19.40552902221685
 30
8.6395874023437
 70
   192
  0
VERTEX
  5
123
  8
METAL
 10
127.4151916503906
 20
-19.40552902221685
 30
8.6395874023437
 70
   192
  0
VERTEX
  5
124
  8
METAL
 10
127.4151916503906
 20
-19.40552902221685
 30
8.6395874023437
 70
   192
  0
VERTEX
  5
125
  8
METAL
 10
127.4151916503906
 20
-18.2890357971192
 30
8.6395874023437
 70
   192
  0
VERTEX
  5
126
  8
METAL
 10
127.4151916503906
 20
-18.2890357971192
 30
8.6395874023437
 70
   192
  0
VERTEX
  5
127
  8
METAL
 10
127.4151916503906
 20
-18.2890357971192
 30
8.6395874023437
 70
   192
  0
VERTEX
  5
128
  8
METAL
 10
127.4151916503906
 20
-18.2890357971192
 30
8.6395874023437
 70
   192
  0
VERTEX
  5
129
  8
METAL
 10
127.4151916503906
 20
-19.96377563476562
 30
8.461456298828079
 70
   192
  0
VERTEX
  5
12A
  8
METAL
 10
127.4151916503906
 20
-19.96377563476562
 30
8.461456298828079
 70
   192
  0
VERTEX
  5
12B
  8
METAL
 10
127.4151916503906
 20
-19.96377563476562
 30
8.461456298828079
 70
   192
  0
VERTEX
  5
12C
  8
METAL
 10
127.4151916503906
 20
-19.96377563476562
 30
8.461456298828079
 70
   192
  0
VERTEX
  5
12D
  8
METAL
 10
127.4151916503906
 20
-17.73078918457037
 30
8.461456298828079
 70
   192
  0
VERTEX
  5
12E
  8
METAL
 10
127.4151916503906
 20
-17.73078918457037
 30
8.461456298828079
 70
   192
  0
VERTEX
  5
12F
  8
METAL
 10
127.4151916503906
 20
-17.73078918457037
 30
8.461456298828079
 70
   192
  0
VERTEX
  5
130
  8
METAL
 10
127.4151916503906
 20
-17.73078918457037
 30
8.461456298828079
 70
   192
  0
VERTEX
  5
131
  8
METAL
 10
127.4151916503906
 20
-20.76126861572266
 30
7.0364379882812
 70
   192
  0
VERTEX
  5
132
  8
METAL
 10
127.4151916503906
 20
-20.76126861572266
 30
7.0364379882812
 70
   192
  0
VERTEX
  5
133
  8
METAL
 10
127.4151916503906
 20
-20.76126861572266
 30
7.0364379882812
 70
   192
  0
VERTEX
  5
134
  8
METAL
 10
127.4151916503906
 20
-20.76126861572266
 30
7.0364379882812
 70
   192
  0
VERTEX
  5
135
  8
METAL
 10
127.4151916503906
 20
-16.93329620361334
 30
7.0364379882812
 70
   192
  0
VERTEX
  5
136
  8
METAL
 10
127.4151916503906
 20
-16.93329620361334
 30
7.0364379882812
 70
   192
  0
VERTEX
  5
137
  8
METAL
 10
127.4151916503906
 20
-16.93329620361334
 30
7.0364379882812
 70
   192
  0
VERTEX
  5
138
  8
METAL
 10
127.4151916503906
 20
-16.93329620361334
 30
7.0364379882812
 70
   192
  0
VERTEX
  5
139
  8
METAL
 10
127.4151916503906
 20
-21.23976898193365
 30
3.661407470703081
 70
   192
  0
VERTEX
  5
13A
  8
METAL
 10
127.4151916503906
 20
-21.23976898193365
 30
3.661407470703081
 70
   192
  0
VERTEX
  5
13B
  8
METAL
 10
127.4151916503906
 20
-21.23976898193365
 30
3.661407470703081
 70
   192
  0
VERTEX
  5
13C
  8
METAL
 10
127.4151916503906
 20
-21.23976898193365
 30
3.661407470703081
 70
   192
  0
VERTEX
  5
13D
  8
METAL
 10
127.4151916503906
 20
-16.4547958374024
 30
3.661407470703081
 70
   192
  0
VERTEX
  5
13E
  8
METAL
 10
127.4151916503906
 20
-16.4547958374024
 30
3.661407470703081
 70
   192
  0
VERTEX
  5
13F
  8
METAL
 10
127.4151916503906
 20
-16.4547958374024
 30
3.661407470703081
 70
   192
  0
VERTEX
  5
140
  8
METAL
 10
127.4151916503906
 20
-16.4547958374024
 30
3.661407470703081
 70
   192
  0
VERTEX
  5
141
  8
METAL
 10
127.4151916503906
 20
-21.39926528930664
 30
0.3494873046873934
 70
   192
  0
VERTEX
  5
142
  8
METAL
 10
127.4151916503906
 20
-21.39926528930664
 30
0.3494873046873934
 70
   192
  0
VERTEX
  5
143
  8
METAL
 10
127.4151916503906
 20
-21.39926528930664
 30
0.3494873046873934
 70
   192
  0
VERTEX
  5
144
  8
METAL
 10
127.4151916503906
 20
-21.39926528930664
 30
0.3494873046873934
 70
   192
  0
VERTEX
  5
145
  8
METAL
 10
127.4151916503906
 20
-16.29529953002935
 30
0.3494873046873934
 70
   192
  0
VERTEX
  5
146
  8
METAL
 10
127.4151916503906
 20
-16.29529953002935
 30
0.3494873046873934
 70
   192
  0
VERTEX
  5
147
  8
METAL
 10
127.4151916503906
 20
-16.29529953002935
 30
0.3494873046873934
 70
   192
  0
VERTEX
  5
148
  8
METAL
 10
127.4151916503906
 20
-16.29529953002935
 30
0.3494873046873934
 70
   192
  0
VERTEX
  5
149
  8
METAL
 10
127.4151916503906
 20
-21.23976898193359
 30
-2.962432861328175
 70
   192
  0
VERTEX
  5
14A
  8
METAL
 10
127.4151916503906
 20
-21.23976898193359
 30
-2.962432861328175
 70
   192
  0
VERTEX
  5
14B
  8
METAL
 10
127.4151916503906
 20
-21.23976898193359
 30
-2.962432861328175
 70
   192
  0
VERTEX
  5
14C
  8
METAL
 10
127.4151916503906
 20
-21.23976898193359
 30
-2.962432861328175
 70
   192
  0
VERTEX
  5
14D
  8
METAL
 10
127.4151916503906
 20
-16.45479583740234
 30
-2.962432861328175
 70
   192
  0
VERTEX
  5
14E
  8
METAL
 10
127.4151916503906
 20
-16.45479583740234
 30
-2.962432861328175
 70
   192
  0
VERTEX
  5
14F
  8
METAL
 10
127.4151916503906
 20
-16.45479583740234
 30
-2.962432861328175
 70
   192
  0
VERTEX
  5
150
  8
METAL
 10
127.4151916503906
 20
-16.45479583740234
 30
-2.962432861328175
 70
   192
  0
VERTEX
  5
151
  8
METAL
 10
127.4151916503906
 20
-20.76126861572266
 30
-6.3374633789063
 70
   192
  0
VERTEX
  5
152
  8
METAL
 10
127.4151916503906
 20
-20.76126861572266
 30
-6.3374633789063
 70
   192
  0
VERTEX
  5
153
  8
METAL
 10
127.4151916503906
 20
-20.76126861572266
 30
-6.3374633789063
 70
   192
  0
VERTEX
  5
154
  8
METAL
 10
127.4151916503906
 20
-20.76126861572266
 30
-6.3374633789063
 70
   192
  0
VERTEX
  5
155
  8
METAL
 10
127.4151916503906
 20
-16.93329238891602
 30
-6.3374633789063
 70
   192
  0
VERTEX
  5
156
  8
METAL
 10
127.4151916503906
 20
-16.93329238891602
 30
-6.3374633789063
 70
   192
  0
VERTEX
  5
157
  8
METAL
 10
127.4151916503906
 20
-16.93329238891602
 30
-6.3374633789063
 70
   192
  0
VERTEX
  5
158
  8
METAL
 10
127.4151916503906
 20
-16.93329238891602
 30
-6.3374633789063
 70
   192
  0
VERTEX
  5
159
  8
METAL
 10
127.4151916503906
 20
-19.96377563476562
 30
-7.762481689453182
 70
   192
  0
VERTEX
  5
15A
  8
METAL
 10
127.4151916503906
 20
-19.96377563476562
 30
-7.762481689453182
 70
   192
  0
VERTEX
  5
15B
  8
METAL
 10
127.4151916503906
 20
-19.96377563476562
 30
-7.762481689453182
 70
   192
  0
VERTEX
  5
15C
  8
METAL
 10
127.4151916503906
 20
-19.96377563476562
 30
-7.762481689453182
 70
   192
  0
VERTEX
  5
15D
  8
METAL
 10
127.4151916503906
 20
-17.73078918457031
 30
-7.762481689453182
 70
   192
  0
VERTEX
  5
15E
  8
METAL
 10
127.4151916503906
 20
-17.73078918457031
 30
-7.762481689453182
 70
   192
  0
VERTEX
  5
15F
  8
METAL
 10
127.4151916503906
 20
-17.73078918457031
 30
-7.762481689453182
 70
   192
  0
VERTEX
  5
160
  8
METAL
 10
127.4151916503906
 20
-17.73078918457031
 30
-7.762481689453182
 70
   192
  0
VERTEX
  5
161
  8
METAL
 10
127.4151916503906
 20
-19.40552902221685
 30
-7.940612792968807
 70
   192
  0
VERTEX
  5
162
  8
METAL
 10
127.4151916503906
 20
-19.40552902221685
 30
-7.940612792968807
 70
   192
  0
VERTEX
  5
163
  8
METAL
 10
127.4151916503906
 20
-19.40552902221685
 30
-7.940612792968807
 70
   192
  0
VERTEX
  5
164
  8
METAL
 10
127.4151916503906
 20
-19.40552902221685
 30
-7.940612792968807
 70
   192
  0
VERTEX
  5
165
  8
METAL
 10
127.4151916503906
 20
-18.28903579711914
 30
-7.940612792968807
 70
   192
  0
VERTEX
  5
166
  8
METAL
 10
127.4151916503906
 20
-18.28903579711914
 30
-7.940612792968807
 70
   192
  0
VERTEX
  5
167
  8
METAL
 10
127.4151916503906
 20
-18.28903579711914
 30
-7.940612792968807
 70
   192
  0
VERTEX
  5
168
  8
METAL
 10
127.4151916503906
 20
-18.28903579711914
 30
-7.940612792968807
 70
   192
  0
VERTEX
  5
169
  8
METAL
 10
127.4151916503906
 20
-18.84728240966797
 30
-8.0
 70
   192
  0
VERTEX
  5
16A
  8
METAL
 10
127.4151916503906
 20
-18.84728240966797
 30
-8.0
 70
   192
  0
VERTEX
  5
16B
  8
METAL
 10
127.4151916503906
 20
-18.84728240966797
 30
-8.0
 70
   192
  0
VERTEX
  5
16C
  8
METAL
 10
127.4151916503906
 20
-18.84728240966797
 30
-8.0
 70
   192
  0
VERTEX
  5
16D
  8
METAL
 10
99.7307434082031
 20
-16.27862167358398
 30
0.3494873046873934
 70
   192
  0
VERTEX
  5
16E
  8
METAL
 10
99.7307434082031
 20
-16.27862167358398
 30
0.3494873046873934
 70
   192
  0
VERTEX
  5
16F
  8
METAL
 10
99.7307434082031
 20
-16.27862167358398
 30
0.3494873046873934
 70
   192
  0
VERTEX
  5
170
  8
METAL
 10
99.7307434082031
 20
-16.27862167358398
 30
0.3494873046873934
 70
   192
  0
VERTEX
  5
171
  8
METAL
 10
99.730712890625
 20
-16.43811798095709
 30
3.661407470703081
 70
   192
  0
VERTEX
  5
172
  8
METAL
 10
99.730712890625
 20
-16.43811798095709
 30
3.661407470703081
 70
   192
  0
VERTEX
  5
173
  8
METAL
 10
99.730712890625
 20
-16.43811798095709
 30
3.661407470703081
 70
   192
  0
VERTEX
  5
174
  8
METAL
 10
99.730712890625
 20
-16.43811798095709
 30
3.661407470703081
 70
   192
  0
VERTEX
  5
175
  8
METAL
 10
99.730712890625
 20
-16.43811798095703
 30
-2.962432861328175
 70
   192
  0
VERTEX
  5
176
  8
METAL
 10
99.730712890625
 20
-16.43811798095703
 30
-2.962432861328175
 70
   192
  0
VERTEX
  5
177
  8
METAL
 10
99.730712890625
 20
-16.43811798095703
 30
-2.962432861328175
 70
   192
  0
VERTEX
  5
178
  8
METAL
 10
99.730712890625
 20
-16.43811798095703
 30
-2.962432861328175
 70
   192
  0
VERTEX
  5
179
  8
METAL
 10
99.73066711425781
 20
-17.71410751342779
 30
8.461456298828079
 70
   192
  0
VERTEX
  5
17A
  8
METAL
 10
99.73066711425781
 20
-17.71410751342779
 30
8.461456298828079
 70
   192
  0
VERTEX
  5
17B
  8
METAL
 10
99.73066711425781
 20
-17.71410751342779
 30
8.461456298828079
 70
   192
  0
VERTEX
  5
17C
  8
METAL
 10
99.73066711425781
 20
-17.71410751342779
 30
8.461456298828079
 70
   192
  0
VERTEX
  5
17D
  8
METAL
 10
99.73066711425781
 20
-16.91661071777349
 30
7.0364379882812
 70
   192
  0
VERTEX
  5
17E
  8
METAL
 10
99.73066711425781
 20
-16.91661071777349
 30
7.0364379882812
 70
   192
  0
VERTEX
  5
17F
  8
METAL
 10
99.73066711425781
 20
-16.91661071777349
 30
7.0364379882812
 70
   192
  0
VERTEX
  5
180
  8
METAL
 10
99.73066711425781
 20
-16.91661071777349
 30
7.0364379882812
 70
   192
  0
VERTEX
  5
181
  8
METAL
 10
99.73066711425781
 20
-21.22308349609375
 30
-2.962432861328175
 70
   192
  0
VERTEX
  5
182
  8
METAL
 10
99.73066711425781
 20
-21.22308349609375
 30
-2.962432861328175
 70
   192
  0
VERTEX
  5
183
  8
METAL
 10
99.73066711425781
 20
-21.22308349609375
 30
-2.962432861328175
 70
   192
  0
VERTEX
  5
184
  8
METAL
 10
99.73066711425781
 20
-21.22308349609375
 30
-2.962432861328175
 70
   192
  0
VERTEX
  5
185
  8
METAL
 10
99.73066711425781
 20
-20.74459075927734
 30
-6.3374633789063
 70
   192
  0
VERTEX
  5
186
  8
METAL
 10
99.73066711425781
 20
-20.74459075927734
 30
-6.3374633789063
 70
   192
  0
VERTEX
  5
187
  8
METAL
 10
99.73066711425781
 20
-20.74459075927734
 30
-6.3374633789063
 70
   192
  0
VERTEX
  5
188
  8
METAL
 10
99.73066711425781
 20
-20.74459075927734
 30
-6.3374633789063
 70
   192
  0
VERTEX
  5
189
  8
METAL
 10
99.73066711425781
 20
-19.94709014892578
 30
-7.762481689453182
 70
   192
  0
VERTEX
  5
18A
  8
METAL
 10
99.73066711425781
 20
-19.94709014892578
 30
-7.762481689453182
 70
   192
  0
VERTEX
  5
18B
  8
METAL
 10
99.73066711425781
 20
-19.94709014892578
 30
-7.762481689453182
 70
   192
  0
VERTEX
  5
18C
  8
METAL
 10
99.73066711425781
 20
-19.94709014892578
 30
-7.762481689453182
 70
   192
  0
VERTEX
  5
18D
  8
METAL
 10
99.73066711425781
 20
-19.38884735107422
 30
-7.940612792968807
 70
   192
  0
VERTEX
  5
18E
  8
METAL
 10
99.73066711425781
 20
-19.38884735107422
 30
-7.940612792968807
 70
   192
  0
VERTEX
  5
18F
  8
METAL
 10
99.73066711425781
 20
-19.38884735107422
 30
-7.940612792968807
 70
   192
  0
VERTEX
  5
190
  8
METAL
 10
99.73066711425781
 20
-19.38884735107422
 30
-7.940612792968807
 70
   192
  0
VERTEX
  5
191
  8
METAL
 10
99.73066711425781
 20
-18.27235412597656
 30
-7.940612792968807
 70
   192
  0
VERTEX
  5
192
  8
METAL
 10
99.73066711425781
 20
-18.27235412597656
 30
-7.940612792968807
 70
   192
  0
VERTEX
  5
193
  8
METAL
 10
99.73066711425781
 20
-18.27235412597656
 30
-7.940612792968807
 70
   192
  0
VERTEX
  5
194
  8
METAL
 10
99.73066711425781
 20
-18.27235412597656
 30
-7.940612792968807
 70
   192
  0
VERTEX
  5
195
  8
METAL
 10
99.73066711425781
 20
-18.83060073852539
 30
-8.0
 70
   192
  0
VERTEX
  5
196
  8
METAL
 10
99.73066711425781
 20
-18.83060073852539
 30
-8.0
 70
   192
  0
VERTEX
  5
197
  8
METAL
 10
99.73066711425781
 20
-18.83060073852539
 30
-8.0
 70
   192
  0
VERTEX
  5
198
  8
METAL
 10
99.73066711425781
 20
-18.83060073852539
 30
-8.0
 70
   192
  0
VERTEX
  5
199
  8
METAL
 10
99.7306518554688
 20
-18.83060073852545
 30
8.698944091796829
 70
   192
  0
VERTEX
  5
19A
  8
METAL
 10
99.7306518554688
 20
-18.83060073852545
 30
8.698944091796829
 70
   192
  0
VERTEX
  5
19B
  8
METAL
 10
99.7306518554688
 20
-18.83060073852545
 30
8.698944091796829
 70
   192
  0
VERTEX
  5
19C
  8
METAL
 10
99.7306518554688
 20
-18.83060073852545
 30
8.698944091796829
 70
   192
  0
VERTEX
  5
19D
  8
METAL
 10
99.7306518554688
 20
-19.38884735107428
 30
8.6395874023437
 70
   192
  0
VERTEX
  5
19E
  8
METAL
 10
99.7306518554688
 20
-19.38884735107428
 30
8.6395874023437
 70
   192
  0
VERTEX
  5
19F
  8
METAL
 10
99.7306518554688
 20
-19.38884735107428
 30
8.6395874023437
 70
   192
  0
VERTEX
  5
1A0
  8
METAL
 10
99.7306518554688
 20
-19.38884735107428
 30
8.6395874023437
 70
   192
  0
VERTEX
  5
1A1
  8
METAL
 10
99.7306518554688
 20
-18.27235412597662
 30
8.6395874023437
 70
   192
  0
VERTEX
  5
1A2
  8
METAL
 10
99.7306518554688
 20
-18.27235412597662
 30
8.6395874023437
 70
   192
  0
VERTEX
  5
1A3
  8
METAL
 10
99.7306518554688
 20
-18.27235412597662
 30
8.6395874023437
 70
   192
  0
VERTEX
  5
1A4
  8
METAL
 10
99.7306518554688
 20
-18.27235412597662
 30
8.6395874023437
 70
   192
  0
VERTEX
  5
1A5
  8
METAL
 10
99.7306518554688
 20
-19.9470939636231
 30
8.461456298828079
 70
   192
  0
VERTEX
  5
1A6
  8
METAL
 10
99.7306518554688
 20
-19.9470939636231
 30
8.461456298828079
 70
   192
  0
VERTEX
  5
1A7
  8
METAL
 10
99.7306518554688
 20
-19.9470939636231
 30
8.461456298828079
 70
   192
  0
VERTEX
  5
1A8
  8
METAL
 10
99.7306518554688
 20
-19.9470939636231
 30
8.461456298828079
 70
   192
  0
VERTEX
  5
1A9
  8
METAL
 10
99.7306518554688
 20
-20.74458694458013
 30
7.0364379882812
 70
   192
  0
VERTEX
  5
1AA
  8
METAL
 10
99.7306518554688
 20
-20.74458694458013
 30
7.0364379882812
 70
   192
  0
VERTEX
  5
1AB
  8
METAL
 10
99.7306518554688
 20
-20.74458694458013
 30
7.0364379882812
 70
   192
  0
VERTEX
  5
1AC
  8
METAL
 10
99.7306518554688
 20
-20.74458694458013
 30
7.0364379882812
 70
   192
  0
VERTEX
  5
1AD
  8
METAL
 10
99.7306518554688
 20
-21.22308349609381
 30
3.661407470703081
 70
   192
  0
VERTEX
  5
1AE
  8
METAL
 10
99.7306518554688
 20
-21.22308349609381
 30
3.661407470703081
 70
   192
  0
VERTEX
  5
1AF
  8
METAL
 10
99.7306518554688
 20
-21.22308349609381
 30
3.661407470703081
 70
   192
  0
VERTEX
  5
1B0
  8
METAL
 10
99.7306518554688
 20
-21.22308349609381
 30
3.661407470703081
 70
   192
  0
VERTEX
  5
1B1
  8
METAL
 10
99.7306518554688
 20
-21.38258361816406
 30
0.3494873046873934
 70
   192
  0
VERTEX
  5
1B2
  8
METAL
 10
99.7306518554688
 20
-21.38258361816406
 30
0.3494873046873934
 70
   192
  0
VERTEX
  5
1B3
  8
METAL
 10
99.7306518554688
 20
-21.38258361816406
 30
0.3494873046873934
 70
   192
  0
VERTEX
  5
1B4
  8
METAL
 10
99.7306518554688
 20
-21.38258361816406
 30
0.3494873046873934
 70
   192
  0
VERTEX
  5
1B5
  8
METAL
 10
99.7306518554688
 20
-16.91661071777349
 30
-6.3374633789063
 70
   192
  0
VERTEX
  5
1B6
  8
METAL
 10
99.7306518554688
 20
-16.91661071777349
 30
-6.3374633789063
 70
   192
  0
VERTEX
  5
1B7
  8
METAL
 10
99.7306518554688
 20
-16.91661071777349
 30
-6.3374633789063
 70
   192
  0
VERTEX
  5
1B8
  8
METAL
 10
99.7306518554688
 20
-16.91661071777349
 30
-6.3374633789063
 70
   192
  0
VERTEX
  5
1B9
  8
METAL
 10
99.7306518554688
 20
-17.71410751342773
 30
-7.762481689453182
 70
   192
  0
VERTEX
  5
1BA
  8
METAL
 10
99.7306518554688
 20
-17.71410751342773
 30
-7.762481689453182
 70
   192
  0
VERTEX
  5
1BB
  8
METAL
 10
99.7306518554688
 20
-17.71410751342773
 30
-7.762481689453182
 70
   192
  0
VERTEX
  5
1BC
  8
METAL
 10
99.7306518554688
 20
-17.71410751342773
 30
-7.762481689453182
 70
   192
  0
VERTEX
  5
1BD
  8
METAL
 10
73.4985656738281
 20
-16.68491363525396
 30
0.3494873046873934
 70
   192
  0
VERTEX
  5
1BE
  8
METAL
 10
73.4985656738281
 20
-16.68491363525396
 30
0.3494873046873934
 70
   192
  0
VERTEX
  5
1BF
  8
METAL
 10
73.4985656738281
 20
-16.68491363525396
 30
0.3494873046873934
 70
   192
  0
VERTEX
  5
1C0
  8
METAL
 10
73.4985656738281
 20
-16.68491363525396
 30
0.3494873046873934
 70
   192
  0
VERTEX
  5
1C1
  8
METAL
 10
73.49851989746091
 20
-16.84440612792974
 30
3.661407470703081
 70
   192
  0
VERTEX
  5
1C2
  8
METAL
 10
73.49851989746091
 20
-16.84440612792974
 30
3.661407470703081
 70
   192
  0
VERTEX
  5
1C3
  8
METAL
 10
73.49851989746091
 20
-16.84440612792974
 30
3.661407470703081
 70
   192
  0
VERTEX
  5
1C4
  8
METAL
 10
73.49851989746091
 20
-16.84440612792974
 30
3.661407470703081
 70
   192
  0
VERTEX
  5
1C5
  8
METAL
 10
73.49851989746091
 20
-16.84440612792974
 30
-2.962432861328175
 70
   192
  0
VERTEX
  5
1C6
  8
METAL
 10
73.49851989746091
 20
-16.84440612792974
 30
-2.962432861328175
 70
   192
  0
VERTEX
  5
1C7
  8
METAL
 10
73.49851989746091
 20
-16.84440612792974
 30
-2.962432861328175
 70
   192
  0
VERTEX
  5
1C8
  8
METAL
 10
73.49851989746091
 20
-16.84440612792974
 30
-2.962432861328175
 70
   192
  0
VERTEX
  5
1C9
  8
METAL
 10
73.49839782714841
 20
-18.12039184570312
 30
8.461456298828079
 70
   192
  0
VERTEX
  5
1CA
  8
METAL
 10
73.49839782714841
 20
-18.12039184570312
 30
8.461456298828079
 70
   192
  0
VERTEX
  5
1CB
  8
METAL
 10
73.49839782714841
 20
-18.12039184570312
 30
8.461456298828079
 70
   192
  0
VERTEX
  5
1CC
  8
METAL
 10
73.49839782714841
 20
-18.12039184570312
 30
8.461456298828079
 70
   192
  0
VERTEX
  5
1CD
  8
METAL
 10
73.49839782714841
 20
-17.32289505004888
 30
7.0364379882812
 70
   192
  0
VERTEX
  5
1CE
  8
METAL
 10
73.49839782714841
 20
-17.32289505004888
 30
7.0364379882812
 70
   192
  0
VERTEX
  5
1CF
  8
METAL
 10
73.49839782714841
 20
-17.32289505004888
 30
7.0364379882812
 70
   192
  0
VERTEX
  5
1D0
  8
METAL
 10
73.49839782714841
 20
-17.32289505004888
 30
7.0364379882812
 70
   192
  0
VERTEX
  5
1D1
  8
METAL
 10
73.49839782714841
 20
-21.62937164306646
 30
-2.962432861328175
 70
   192
  0
VERTEX
  5
1D2
  8
METAL
 10
73.49839782714841
 20
-21.62937164306646
 30
-2.962432861328175
 70
   192
  0
VERTEX
  5
1D3
  8
METAL
 10
73.49839782714841
 20
-21.62937164306646
 30
-2.962432861328175
 70
   192
  0
VERTEX
  5
1D4
  8
METAL
 10
73.49839782714841
 20
-21.62937164306646
 30
-2.962432861328175
 70
   192
  0
VERTEX
  5
1D5
  8
METAL
 10
73.49839782714841
 20
-21.15087127685547
 30
-6.3374633789063
 70
   192
  0
VERTEX
  5
1D6
  8
METAL
 10
73.49839782714841
 20
-21.15087127685547
 30
-6.3374633789063
 70
   192
  0
VERTEX
  5
1D7
  8
METAL
 10
73.49839782714841
 20
-21.15087127685547
 30
-6.3374633789063
 70
   192
  0
VERTEX
  5
1D8
  8
METAL
 10
73.49839782714841
 20
-21.15087127685547
 30
-6.3374633789063
 70
   192
  0
VERTEX
  5
1D9
  8
METAL
 10
73.49839782714841
 20
-20.35337829589849
 30
-7.762481689453182
 70
   192
  0
VERTEX
  5
1DA
  8
METAL
 10
73.49839782714841
 20
-20.35337829589849
 30
-7.762481689453182
 70
   192
  0
VERTEX
  5
1DB
  8
METAL
 10
73.49839782714841
 20
-20.35337829589849
 30
-7.762481689453182
 70
   192
  0
VERTEX
  5
1DC
  8
METAL
 10
73.49839782714841
 20
-20.35337829589849
 30
-7.762481689453182
 70
   192
  0
VERTEX
  5
1DD
  8
METAL
 10
73.49839782714841
 20
-19.79513168334961
 30
-7.940612792968807
 70
   192
  0
VERTEX
  5
1DE
  8
METAL
 10
73.49839782714841
 20
-19.79513168334961
 30
-7.940612792968807
 70
   192
  0
VERTEX
  5
1DF
  8
METAL
 10
73.49839782714841
 20
-19.79513168334961
 30
-7.940612792968807
 70
   192
  0
VERTEX
  5
1E0
  8
METAL
 10
73.49839782714841
 20
-19.79513168334961
 30
-7.940612792968807
 70
   192
  0
VERTEX
  5
1E1
  8
METAL
 10
73.49839782714841
 20
-18.67863845825195
 30
-7.940612792968807
 70
   192
  0
VERTEX
  5
1E2
  8
METAL
 10
73.49839782714841
 20
-18.67863845825195
 30
-7.940612792968807
 70
   192
  0
VERTEX
  5
1E3
  8
METAL
 10
73.49839782714841
 20
-18.67863845825195
 30
-7.940612792968807
 70
   192
  0
VERTEX
  5
1E4
  8
METAL
 10
73.49839782714841
 20
-18.67863845825195
 30
-7.940612792968807
 70
   192
  0
VERTEX
  5
1E5
  8
METAL
 10
73.49839782714841
 20
-19.23688507080078
 30
-8.0
 70
   192
  0
VERTEX
  5
1E6
  8
METAL
 10
73.49839782714841
 20
-19.23688507080078
 30
-8.0
 70
   192
  0
VERTEX
  5
1E7
  8
METAL
 10
73.49839782714841
 20
-19.23688507080078
 30
-8.0
 70
   192
  0
VERTEX
  5
1E8
  8
METAL
 10
73.49839782714841
 20
-19.23688507080078
 30
-8.0
 70
   192
  0
VERTEX
  5
1E9
  8
METAL
 10
73.49838256835929
 20
-19.23688507080084
 30
8.69897460937501
 70
   192
  0
VERTEX
  5
1EA
  8
METAL
 10
73.49838256835929
 20
-19.23688507080084
 30
8.69897460937501
 70
   192
  0
VERTEX
  5
1EB
  8
METAL
 10
73.49838256835929
 20
-19.23688507080084
 30
8.69897460937501
 70
   192
  0
VERTEX
  5
1EC
  8
METAL
 10
73.49838256835929
 20
-19.23688507080084
 30
8.69897460937501
 70
   192
  0
VERTEX
  5
1ED
  8
METAL
 10
73.49838256835929
 20
-19.79513168334967
 30
8.6395874023437
 70
   192
  0
VERTEX
  5
1EE
  8
METAL
 10
73.49838256835929
 20
-19.79513168334967
 30
8.6395874023437
 70
   192
  0
VERTEX
  5
1EF
  8
METAL
 10
73.49838256835929
 20
-19.79513168334967
 30
8.6395874023437
 70
   192
  0
VERTEX
  5
1F0
  8
METAL
 10
73.49838256835929
 20
-19.79513168334967
 30
8.6395874023437
 70
   192
  0
VERTEX
  5
1F1
  8
METAL
 10
73.49838256835929
 20
-18.67863845825201
 30
8.6395874023437
 70
   192
  0
VERTEX
  5
1F2
  8
METAL
 10
73.49838256835929
 20
-18.67863845825201
 30
8.6395874023437
 70
   192
  0
VERTEX
  5
1F3
  8
METAL
 10
73.49838256835929
 20
-18.67863845825201
 30
8.6395874023437
 70
   192
  0
VERTEX
  5
1F4
  8
METAL
 10
73.49838256835929
 20
-18.67863845825201
 30
8.6395874023437
 70
   192
  0
VERTEX
  5
1F5
  8
METAL
 10
73.49838256835929
 20
-20.35337829589849
 30
8.461456298828079
 70
   192
  0
VERTEX
  5
1F6
  8
METAL
 10
73.49838256835929
 20
-20.35337829589849
 30
8.461456298828079
 70
   192
  0
VERTEX
  5
1F7
  8
METAL
 10
73.49838256835929
 20
-20.35337829589849
 30
8.461456298828079
 70
   192
  0
VERTEX
  5
1F8
  8
METAL
 10
73.49838256835929
 20
-20.35337829589849
 30
8.461456298828079
 70
   192
  0
VERTEX
  5
1F9
  8
METAL
 10
73.49838256835929
 20
-21.15087127685553
 30
7.0364379882812
 70
   192
  0
VERTEX
  5
1FA
  8
METAL
 10
73.49838256835929
 20
-21.15087127685553
 30
7.0364379882812
 70
   192
  0
VERTEX
  5
1FB
  8
METAL
 10
73.49838256835929
 20
-21.15087127685553
 30
7.0364379882812
 70
   192
  0
VERTEX
  5
1FC
  8
METAL
 10
73.49838256835929
 20
-21.15087127685553
 30
7.0364379882812
 70
   192
  0
VERTEX
  5
1FD
  8
METAL
 10
73.49838256835929
 20
-21.62937164306646
 30
3.661407470703081
 70
   192
  0
VERTEX
  5
1FE
  8
METAL
 10
73.49838256835929
 20
-21.62937164306646
 30
3.661407470703081
 70
   192
  0
VERTEX
  5
1FF
  8
METAL
 10
73.49838256835929
 20
-21.62937164306646
 30
3.661407470703081
 70
   192
  0
VERTEX
  5
200
  8
METAL
 10
73.49838256835929
 20
-21.62937164306646
 30
3.661407470703081
 70
   192
  0
VERTEX
  5
201
  8
METAL
 10
73.49838256835929
 20
-21.78886795043945
 30
0.3494873046873934
 70
   192
  0
VERTEX
  5
202
  8
METAL
 10
73.49838256835929
 20
-21.78886795043945
 30
0.3494873046873934
 70
   192
  0
VERTEX
  5
203
  8
METAL
 10
73.49838256835929
 20
-21.78886795043945
 30
0.3494873046873934
 70
   192
  0
VERTEX
  5
204
  8
METAL
 10
73.49838256835929
 20
-21.78886795043945
 30
0.3494873046873934
 70
   192
  0
VERTEX
  5
205
  8
METAL
 10
73.49838256835929
 20
-17.32289505004883
 30
-6.3374633789063
 70
   192
  0
VERTEX
  5
206
  8
METAL
 10
73.49838256835929
 20
-17.32289505004883
 30
-6.3374633789063
 70
   192
  0
VERTEX
  5
207
  8
METAL
 10
73.49838256835929
 20
-17.32289505004883
 30
-6.3374633789063
 70
   192
  0
VERTEX
  5
208
  8
METAL
 10
73.49838256835929
 20
-17.32289505004883
 30
-6.3374633789063
 70
   192
  0
VERTEX
  5
209
  8
METAL
 10
73.49838256835929
 20
-18.12039184570312
 30
-7.762481689453182
 70
   192
  0
VERTEX
  5
20A
  8
METAL
 10
73.49838256835929
 20
-18.12039184570312
 30
-7.762481689453182
 70
   192
  0
VERTEX
  5
20B
  8
METAL
 10
73.49838256835929
 20
-18.12039184570312
 30
-7.762481689453182
 70
   192
  0
VERTEX
  5
20C
  8
METAL
 10
73.49838256835929
 20
-18.12039184570312
 30
-7.762481689453182
 70
   192
  0
VERTEX
  5
20D
  8
METAL
 10
40.63824462890619
 20
-17.95763397216797
 30
0.3494873046873934
 70
   192
  0
VERTEX
  5
20E
  8
METAL
 10
40.63824462890619
 20
-17.95763397216797
 30
0.3494873046873934
 70
   192
  0
VERTEX
  5
20F
  8
METAL
 10
40.63824462890619
 20
-17.95763397216797
 30
0.3494873046873934
 70
   192
  0
VERTEX
  5
210
  8
METAL
 10
40.63824462890619
 20
-17.95763397216797
 30
0.3494873046873934
 70
   192
  0
VERTEX
  5
211
  8
METAL
 10
40.63815307617179
 20
-18.11712646484381
 30
3.661407470703081
 70
   192
  0
VERTEX
  5
212
  8
METAL
 10
40.63815307617179
 20
-18.11712646484381
 30
3.661407470703081
 70
   192
  0
VERTEX
  5
213
  8
METAL
 10
40.63815307617179
 20
-18.11712646484381
 30
3.661407470703081
 70
   192
  0
VERTEX
  5
214
  8
METAL
 10
40.63815307617179
 20
-18.11712646484381
 30
3.661407470703081
 70
   192
  0
VERTEX
  5
215
  8
METAL
 10
40.63815307617179
 20
-18.11712646484375
 30
-2.962432861328175
 70
   192
  0
VERTEX
  5
216
  8
METAL
 10
40.63815307617179
 20
-18.11712646484375
 30
-2.962432861328175
 70
   192
  0
VERTEX
  5
217
  8
METAL
 10
40.63815307617179
 20
-18.11712646484375
 30
-2.962432861328175
 70
   192
  0
VERTEX
  5
218
  8
METAL
 10
40.63815307617179
 20
-18.11712646484375
 30
-2.962432861328175
 70
   192
  0
VERTEX
  5
219
  8
METAL
 10
40.63790893554679
 20
-19.39310455322266
 30
8.461456298828079
 70
   192
  0
VERTEX
  5
21A
  8
METAL
 10
40.63790893554679
 20
-19.39310455322266
 30
8.461456298828079
 70
   192
  0
VERTEX
  5
21B
  8
METAL
 10
40.63790893554679
 20
-19.39310455322266
 30
8.461456298828079
 70
   192
  0
VERTEX
  5
21C
  8
METAL
 10
40.63790893554679
 20
-19.39310455322266
 30
8.461456298828079
 70
   192
  0
VERTEX
  5
21D
  8
METAL
 10
40.63790893554679
 20
-18.59560775756842
 30
7.0364379882812
 70
   192
  0
VERTEX
  5
21E
  8
METAL
 10
40.63790893554679
 20
-18.59560775756842
 30
7.0364379882812
 70
   192
  0
VERTEX
  5
21F
  8
METAL
 10
40.63790893554679
 20
-18.59560775756842
 30
7.0364379882812
 70
   192
  0
VERTEX
  5
220
  8
METAL
 10
40.63790893554679
 20
-18.59560775756842
 30
7.0364379882812
 70
   192
  0
VERTEX
  5
221
  8
METAL
 10
40.63790893554679
 20
-22.90208435058599
 30
-2.962432861328175
 70
   192
  0
VERTEX
  5
222
  8
METAL
 10
40.63790893554679
 20
-22.90208435058599
 30
-2.962432861328175
 70
   192
  0
VERTEX
  5
223
  8
METAL
 10
40.63790893554679
 20
-22.90208435058599
 30
-2.962432861328175
 70
   192
  0
VERTEX
  5
224
  8
METAL
 10
40.63790893554679
 20
-22.90208435058599
 30
-2.962432861328175
 70
   192
  0
VERTEX
  5
225
  8
METAL
 10
40.63790893554679
 20
-22.42358779907227
 30
-6.3374633789063
 70
   192
  0
VERTEX
  5
226
  8
METAL
 10
40.63790893554679
 20
-22.42358779907227
 30
-6.3374633789063
 70
   192
  0
VERTEX
  5
227
  8
METAL
 10
40.63790893554679
 20
-22.42358779907227
 30
-6.3374633789063
 70
   192
  0
VERTEX
  5
228
  8
METAL
 10
40.63790893554679
 20
-22.42358779907227
 30
-6.3374633789063
 70
   192
  0
VERTEX
  5
229
  8
METAL
 10
40.63790893554679
 20
-21.62609100341797
 30
-7.762481689453182
 70
   192
  0
VERTEX
  5
22A
  8
METAL
 10
40.63790893554679
 20
-21.62609100341797
 30
-7.762481689453182
 70
   192
  0
VERTEX
  5
22B
  8
METAL
 10
40.63790893554679
 20
-21.62609100341797
 30
-7.762481689453182
 70
   192
  0
VERTEX
  5
22C
  8
METAL
 10
40.63790893554679
 20
-21.62609100341797
 30
-7.762481689453182
 70
   192
  0
VERTEX
  5
22D
  8
METAL
 10
40.63790893554679
 20
-21.06784439086914
 30
-7.940612792968807
 70
   192
  0
VERTEX
  5
22E
  8
METAL
 10
40.63790893554679
 20
-21.06784439086914
 30
-7.940612792968807
 70
   192
  0
VERTEX
  5
22F
  8
METAL
 10
40.63790893554679
 20
-21.06784439086914
 30
-7.940612792968807
 70
   192
  0
VERTEX
  5
230
  8
METAL
 10
40.63790893554679
 20
-21.06784439086914
 30
-7.940612792968807
 70
   192
  0
VERTEX
  5
231
  8
METAL
 10
40.63790893554679
 20
-19.95135116577148
 30
-7.940612792968807
 70
   192
  0
VERTEX
  5
232
  8
METAL
 10
40.63790893554679
 20
-19.95135116577148
 30
-7.940612792968807
 70
   192
  0
VERTEX
  5
233
  8
METAL
 10
40.63790893554679
 20
-19.95135116577148
 30
-7.940612792968807
 70
   192
  0
VERTEX
  5
234
  8
METAL
 10
40.63790893554679
 20
-19.95135116577148
 30
-7.940612792968807
 70
   192
  0
VERTEX
  5
235
  8
METAL
 10
40.63790893554679
 20
-20.50959777832031
 30
-8.0
 70
   192
  0
VERTEX
  5
236
  8
METAL
 10
40.63790893554679
 20
-20.50959777832031
 30
-8.0
 70
   192
  0
VERTEX
  5
237
  8
METAL
 10
40.63790893554679
 20
-20.50959777832031
 30
-8.0
 70
   192
  0
VERTEX
  5
238
  8
METAL
 10
40.63790893554679
 20
-20.50959777832031
 30
-8.0
 70
   192
  0
VERTEX
  5
239
  8
METAL
 10
40.63789367675781
 20
-20.50959777832037
 30
8.69897460937501
 70
   192
  0
VERTEX
  5
23A
  8
METAL
 10
40.63789367675781
 20
-20.50959777832037
 30
8.69897460937501
 70
   192
  0
VERTEX
  5
23B
  8
METAL
 10
40.63789367675781
 20
-20.50959777832037
 30
8.69897460937501
 70
   192
  0
VERTEX
  5
23C
  8
METAL
 10
40.63789367675781
 20
-20.50959777832037
 30
8.69897460937501
 70
   192
  0
VERTEX
  5
23D
  8
METAL
 10
40.63789367675781
 20
-21.0678443908692
 30
8.6395874023437
 70
   192
  0
VERTEX
  5
23E
  8
METAL
 10
40.63789367675781
 20
-21.0678443908692
 30
8.6395874023437
 70
   192
  0
VERTEX
  5
23F
  8
METAL
 10
40.63789367675781
 20
-21.0678443908692
 30
8.6395874023437
 70
   192
  0
VERTEX
  5
240
  8
METAL
 10
40.63789367675781
 20
-21.0678443908692
 30
8.6395874023437
 70
   192
  0
VERTEX
  5
241
  8
METAL
 10
40.63789367675781
 20
-19.95135116577154
 30
8.6395874023437
 70
   192
  0
VERTEX
  5
242
  8
METAL
 10
40.63789367675781
 20
-19.95135116577154
 30
8.6395874023437
 70
   192
  0
VERTEX
  5
243
  8
METAL
 10
40.63789367675781
 20
-19.95135116577154
 30
8.6395874023437
 70
   192
  0
VERTEX
  5
244
  8
METAL
 10
40.63789367675781
 20
-19.95135116577154
 30
8.6395874023437
 70
   192
  0
VERTEX
  5
245
  8
METAL
 10
40.63789367675781
 20
-21.62609100341803
 30
8.461456298828079
 70
   192
  0
VERTEX
  5
246
  8
METAL
 10
40.63789367675781
 20
-21.62609100341803
 30
8.461456298828079
 70
   192
  0
VERTEX
  5
247
  8
METAL
 10
40.63789367675781
 20
-21.62609100341803
 30
8.461456298828079
 70
   192
  0
VERTEX
  5
248
  8
METAL
 10
40.63789367675781
 20
-21.62609100341803
 30
8.461456298828079
 70
   192
  0
VERTEX
  5
249
  8
METAL
 10
40.63789367675781
 20
-22.42358398437506
 30
7.0364379882812
 70
   192
  0
VERTEX
  5
24A
  8
METAL
 10
40.63789367675781
 20
-22.42358398437506
 30
7.0364379882812
 70
   192
  0
VERTEX
  5
24B
  8
METAL
 10
40.63789367675781
 20
-22.42358398437506
 30
7.0364379882812
 70
   192
  0
VERTEX
  5
24C
  8
METAL
 10
40.63789367675781
 20
-22.42358398437506
 30
7.0364379882812
 70
   192
  0
VERTEX
  5
24D
  8
METAL
 10
40.63789367675781
 20
-22.90208435058599
 30
3.661407470703081
 70
   192
  0
VERTEX
  5
24E
  8
METAL
 10
40.63789367675781
 20
-22.90208435058599
 30
3.661407470703081
 70
   192
  0
VERTEX
  5
24F
  8
METAL
 10
40.63789367675781
 20
-22.90208435058599
 30
3.661407470703081
 70
   192
  0
VERTEX
  5
250
  8
METAL
 10
40.63789367675781
 20
-22.90208435058599
 30
3.661407470703081
 70
   192
  0
VERTEX
  5
251
  8
METAL
 10
40.63789367675781
 20
-23.06158065795898
 30
0.3494873046873934
 70
   192
  0
VERTEX
  5
252
  8
METAL
 10
40.63789367675781
 20
-23.06158065795898
 30
0.3494873046873934
 70
   192
  0
VERTEX
  5
253
  8
METAL
 10
40.63789367675781
 20
-23.06158065795898
 30
0.3494873046873934
 70
   192
  0
VERTEX
  5
254
  8
METAL
 10
40.63789367675781
 20
-23.06158065795898
 30
0.3494873046873934
 70
   192
  0
VERTEX
  5
255
  8
METAL
 10
40.63789367675781
 20
-18.59561157226562
 30
-6.3374633789063
 70
   192
  0
VERTEX
  5
256
  8
METAL
 10
40.63789367675781
 20
-18.59561157226562
 30
-6.3374633789063
 70
   192
  0
VERTEX
  5
257
  8
METAL
 10
40.63789367675781
 20
-18.59561157226562
 30
-6.3374633789063
 70
   192
  0
VERTEX
  5
258
  8
METAL
 10
40.63789367675781
 20
-18.59561157226562
 30
-6.3374633789063
 70
   192
  0
VERTEX
  5
259
  8
METAL
 10
40.63789367675781
 20
-19.39310455322266
 30
-7.762481689453182
 70
   192
  0
VERTEX
  5
25A
  8
METAL
 10
40.63789367675781
 20
-19.39310455322266
 30
-7.762481689453182
 70
   192
  0
VERTEX
  5
25B
  8
METAL
 10
40.63789367675781
 20
-19.39310455322266
 30
-7.762481689453182
 70
   192
  0
VERTEX
  5
25C
  8
METAL
 10
40.63789367675781
 20
-19.39310455322266
 30
-7.762481689453182
 70
   192
  0
VERTEX
  5
25D
  8
METAL
 10
4.173294067382812
 20
-21.33891296386724
 30
0.3494873046873934
 70
   192
  0
VERTEX
  5
25E
  8
METAL
 10
4.173294067382812
 20
-21.33891296386724
 30
0.3494873046873934
 70
   192
  0
VERTEX
  5
25F
  8
METAL
 10
4.173294067382812
 20
-21.33891296386724
 30
0.3494873046873934
 70
   192
  0
VERTEX
  5
260
  8
METAL
 10
4.173294067382812
 20
-21.33891296386724
 30
0.3494873046873934
 70
   192
  0
VERTEX
  5
261
  8
METAL
 10
4.173110961914006
 20
-21.49840164184576
 30
3.661407470703081
 70
   192
  0
VERTEX
  5
262
  8
METAL
 10
4.173110961914006
 20
-21.49840164184576
 30
3.661407470703081
 70
   192
  0
VERTEX
  5
263
  8
METAL
 10
4.173110961914006
 20
-21.49840164184576
 30
3.661407470703081
 70
   192
  0
VERTEX
  5
264
  8
METAL
 10
4.173110961914006
 20
-21.49840164184576
 30
3.661407470703081
 70
   192
  0
VERTEX
  5
265
  8
METAL
 10
4.173110961914006
 20
-21.4984016418457
 30
-2.962432861328175
 70
   192
  0
VERTEX
  5
266
  8
METAL
 10
4.173110961914006
 20
-21.4984016418457
 30
-2.962432861328175
 70
   192
  0
VERTEX
  5
267
  8
METAL
 10
4.173110961914006
 20
-21.4984016418457
 30
-2.962432861328175
 70
   192
  0
VERTEX
  5
268
  8
METAL
 10
4.173110961914006
 20
-21.4984016418457
 30
-2.962432861328175
 70
   192
  0
VERTEX
  5
269
  8
METAL
 10
4.172622680664006
 20
-22.7743644714356
 30
8.461456298828079
 70
   192
  0
VERTEX
  5
26A
  8
METAL
 10
4.172622680664006
 20
-22.7743644714356
 30
8.461456298828079
 70
   192
  0
VERTEX
  5
26B
  8
METAL
 10
4.172622680664006
 20
-22.7743644714356
 30
8.461456298828079
 70
   192
  0
VERTEX
  5
26C
  8
METAL
 10
4.172622680664006
 20
-22.7743644714356
 30
8.461456298828079
 70
   192
  0
VERTEX
  5
26D
  8
METAL
 10
4.172622680664006
 20
-21.97687149047852
 30
7.0364379882812
 70
   192
  0
VERTEX
  5
26E
  8
METAL
 10
4.172622680664006
 20
-21.97687149047852
 30
7.0364379882812
 70
   192
  0
VERTEX
  5
26F
  8
METAL
 10
4.172622680664006
 20
-21.97687149047852
 30
7.0364379882812
 70
   192
  0
VERTEX
  5
270
  8
METAL
 10
4.172622680664006
 20
-21.97687149047852
 30
7.0364379882812
 70
   192
  0
VERTEX
  5
271
  8
METAL
 10
4.172622680664006
 20
-26.28334426879883
 30
-2.962432861328182
 70
   192
  0
VERTEX
  5
272
  8
METAL
 10
4.172622680664006
 20
-26.28334426879883
 30
-2.962432861328182
 70
   192
  0
VERTEX
  5
273
  8
METAL
 10
4.172622680664006
 20
-26.28334426879883
 30
-2.962432861328182
 70
   192
  0
VERTEX
  5
274
  8
METAL
 10
4.172622680664006
 20
-26.28334426879883
 30
-2.962432861328182
 70
   192
  0
VERTEX
  5
275
  8
METAL
 10
4.172622680664006
 20
-25.80484771728516
 30
-6.337463378906307
 70
   192
  0
VERTEX
  5
276
  8
METAL
 10
4.172622680664006
 20
-25.80484771728516
 30
-6.337463378906307
 70
   192
  0
VERTEX
  5
277
  8
METAL
 10
4.172622680664006
 20
-25.80484771728516
 30
-6.337463378906307
 70
   192
  0
VERTEX
  5
278
  8
METAL
 10
4.172622680664006
 20
-25.80484771728516
 30
-6.337463378906307
 70
   192
  0
VERTEX
  5
279
  8
METAL
 10
4.172622680664006
 20
-25.00735092163086
 30
-7.762481689453182
 70
   192
  0
VERTEX
  5
27A
  8
METAL
 10
4.172622680664006
 20
-25.00735092163086
 30
-7.762481689453182
 70
   192
  0
VERTEX
  5
27B
  8
METAL
 10
4.172622680664006
 20
-25.00735092163086
 30
-7.762481689453182
 70
   192
  0
VERTEX
  5
27C
  8
METAL
 10
4.172622680664006
 20
-25.00735092163086
 30
-7.762481689453182
 70
   192
  0
VERTEX
  5
27D
  8
METAL
 10
4.172622680664006
 20
-24.44910430908203
 30
-7.940612792968807
 70
   192
  0
VERTEX
  5
27E
  8
METAL
 10
4.172622680664006
 20
-24.44910430908203
 30
-7.940612792968807
 70
   192
  0
VERTEX
  5
27F
  8
METAL
 10
4.172622680664006
 20
-24.44910430908203
 30
-7.940612792968807
 70
   192
  0
VERTEX
  5
280
  8
METAL
 10
4.172622680664006
 20
-24.44910430908203
 30
-7.940612792968807
 70
   192
  0
VERTEX
  5
281
  8
METAL
 10
4.172622680664006
 20
-23.33261108398438
 30
-7.940612792968807
 70
   192
  0
VERTEX
  5
282
  8
METAL
 10
4.172622680664006
 20
-23.33261108398438
 30
-7.940612792968807
 70
   192
  0
VERTEX
  5
283
  8
METAL
 10
4.172622680664006
 20
-23.33261108398438
 30
-7.940612792968807
 70
   192
  0
VERTEX
  5
284
  8
METAL
 10
4.172622680664006
 20
-23.33261108398438
 30
-7.940612792968807
 70
   192
  0
VERTEX
  5
285
  8
METAL
 10
4.172622680664006
 20
-23.8908576965332
 30
-8.0
 70
   192
  0
VERTEX
  5
286
  8
METAL
 10
4.172622680664006
 20
-23.8908576965332
 30
-8.0
 70
   192
  0
VERTEX
  5
287
  8
METAL
 10
4.172622680664006
 20
-23.8908576965332
 30
-8.0
 70
   192
  0
VERTEX
  5
288
  8
METAL
 10
4.172622680664006
 20
-23.8908576965332
 30
-8.0
 70
   192
  0
VERTEX
  5
289
  8
METAL
 10
4.172607421875
 20
-23.89086151123053
 30
8.69897460937501
 70
   192
  0
VERTEX
  5
28A
  8
METAL
 10
4.172607421875
 20
-23.89086151123053
 30
8.69897460937501
 70
   192
  0
VERTEX
  5
28B
  8
METAL
 10
4.172607421875
 20
-23.89086151123053
 30
8.69897460937501
 70
   192
  0
VERTEX
  5
28C
  8
METAL
 10
4.172607421875
 20
-23.89086151123053
 30
8.69897460937501
 70
   192
  0
VERTEX
  5
28D
  8
METAL
 10
4.172607421875
 20
-24.44910812377935
 30
8.6395874023437
 70
   192
  0
VERTEX
  5
28E
  8
METAL
 10
4.172607421875
 20
-24.44910812377935
 30
8.6395874023437
 70
   192
  0
VERTEX
  5
28F
  8
METAL
 10
4.172607421875
 20
-24.44910812377935
 30
8.6395874023437
 70
   192
  0
VERTEX
  5
290
  8
METAL
 10
4.172607421875
 20
-24.44910812377935
 30
8.6395874023437
 70
   192
  0
VERTEX
  5
291
  8
METAL
 10
4.172607421875
 20
-23.33261108398438
 30
8.6395874023437
 70
   192
  0
VERTEX
  5
292
  8
METAL
 10
4.172607421875
 20
-23.33261108398438
 30
8.6395874023437
 70
   192
  0
VERTEX
  5
293
  8
METAL
 10
4.172607421875
 20
-23.33261108398438
 30
8.6395874023437
 70
   192
  0
VERTEX
  5
294
  8
METAL
 10
4.172607421875
 20
-23.33261108398438
 30
8.6395874023437
 70
   192
  0
VERTEX
  5
295
  8
METAL
 10
4.172607421875
 20
-25.00735473632812
 30
8.461456298828072
 70
   192
  0
VERTEX
  5
296
  8
METAL
 10
4.172607421875
 20
-25.00735473632812
 30
8.461456298828072
 70
   192
  0
VERTEX
  5
297
  8
METAL
 10
4.172607421875
 20
-25.00735473632812
 30
8.461456298828072
 70
   192
  0
VERTEX
  5
298
  8
METAL
 10
4.172607421875
 20
-25.00735473632812
 30
8.461456298828072
 70
   192
  0
VERTEX
  5
299
  8
METAL
 10
4.172607421875
 20
-25.80484771728516
 30
7.03643798828119
 70
   192
  0
VERTEX
  5
29A
  8
METAL
 10
4.172607421875
 20
-25.80484771728516
 30
7.03643798828119
 70
   192
  0
VERTEX
  5
29B
  8
METAL
 10
4.172607421875
 20
-25.80484771728516
 30
7.03643798828119
 70
   192
  0
VERTEX
  5
29C
  8
METAL
 10
4.172607421875
 20
-25.80484771728516
 30
7.03643798828119
 70
   192
  0
VERTEX
  5
29D
  8
METAL
 10
4.172607421875
 20
-26.28334426879888
 30
3.66140747070307
 70
   192
  0
VERTEX
  5
29E
  8
METAL
 10
4.172607421875
 20
-26.28334426879888
 30
3.66140747070307
 70
   192
  0
VERTEX
  5
29F
  8
METAL
 10
4.172607421875
 20
-26.28334426879888
 30
3.66140747070307
 70
   192
  0
VERTEX
  5
2A0
  8
METAL
 10
4.172607421875
 20
-26.28334426879888
 30
3.66140747070307
 70
   192
  0
VERTEX
  5
2A1
  8
METAL
 10
4.172607421875
 20
-26.44284439086914
 30
0.3494873046873863
 70
   192
  0
VERTEX
  5
2A2
  8
METAL
 10
4.172607421875
 20
-26.44284439086914
 30
0.3494873046873863
 70
   192
  0
VERTEX
  5
2A3
  8
METAL
 10
4.172607421875
 20
-26.44284439086914
 30
0.3494873046873863
 70
   192
  0
VERTEX
  5
2A4
  8
METAL
 10
4.172607421875
 20
-26.44284439086914
 30
0.3494873046873863
 70
   192
  0
VERTEX
  5
2A5
  8
METAL
 10
4.172607421875
 20
-21.97687149047852
 30
-6.3374633789063
 70
   192
  0
VERTEX
  5
2A6
  8
METAL
 10
4.172607421875
 20
-21.97687149047852
 30
-6.3374633789063
 70
   192
  0
VERTEX
  5
2A7
  8
METAL
 10
4.172607421875
 20
-21.97687149047852
 30
-6.3374633789063
 70
   192
  0
VERTEX
  5
2A8
  8
METAL
 10
4.172607421875
 20
-21.97687149047852
 30
-6.3374633789063
 70
   192
  0
VERTEX
  5
2A9
  8
METAL
 10
4.172607421875
 20
-22.7743644714356
 30
-7.762481689453182
 70
   192
  0
VERTEX
  5
2AA
  8
METAL
 10
4.172607421875
 20
-22.7743644714356
 30
-7.762481689453182
 70
   192
  0
VERTEX
  5
2AB
  8
METAL
 10
4.172607421875
 20
-22.7743644714356
 30
-7.762481689453182
 70
   192
  0
VERTEX
  5
2AC
  8
METAL
 10
4.172607421875
 20
-22.7743644714356
 30
-7.762481689453182
 70
   192
  0
VERTEX
  5
2AD
  8
METAL
 10
-29.53764343261722
 20
-23.78539657592773
 30
0.3494873046873934
 70
   192
  0
VERTEX
  5
2AE
  8
METAL
 10
-29.53764343261722
 20
-23.78539657592773
 30
0.3494873046873934
 70
   192
  0
VERTEX
  5
2AF
  8
METAL
 10
-29.53764343261722
 20
-23.78539657592773
 30
0.3494873046873934
 70
   192
  0
VERTEX
  5
2B0
  8
METAL
 10
-29.53764343261722
 20
-23.78539657592773
 30
0.3494873046873934
 70
   192
  0
VERTEX
  5
2B1
  8
METAL
 10
-29.53797912597659
 20
-23.94487762451178
 30
3.661407470703081
 70
   192
  0
VERTEX
  5
2B2
  8
METAL
 10
-29.53797912597659
 20
-23.94487762451178
 30
3.661407470703081
 70
   192
  0
VERTEX
  5
2B3
  8
METAL
 10
-29.53797912597659
 20
-23.94487762451178
 30
3.661407470703081
 70
   192
  0
VERTEX
  5
2B4
  8
METAL
 10
-29.53797912597659
 20
-23.94487762451178
 30
3.661407470703081
 70
   192
  0
VERTEX
  5
2B5
  8
METAL
 10
-29.53797912597659
 20
-23.94487762451172
 30
-2.962432861328175
 70
   192
  0
VERTEX
  5
2B6
  8
METAL
 10
-29.53797912597659
 20
-23.94487762451172
 30
-2.962432861328175
 70
   192
  0
VERTEX
  5
2B7
  8
METAL
 10
-29.53797912597659
 20
-23.94487762451172
 30
-2.962432861328175
 70
   192
  0
VERTEX
  5
2B8
  8
METAL
 10
-29.53797912597659
 20
-23.94487762451172
 30
-2.962432861328175
 70
   192
  0
VERTEX
  5
2B9
  8
METAL
 10
-29.53898620605472
 20
-25.22081375122076
 30
8.461456298828072
 70
   192
  0
VERTEX
  5
2BA
  8
METAL
 10
-29.53898620605472
 20
-25.22081375122076
 30
8.461456298828072
 70
   192
  0
VERTEX
  5
2BB
  8
METAL
 10
-29.53898620605472
 20
-25.22081375122076
 30
8.461456298828072
 70
   192
  0
VERTEX
  5
2BC
  8
METAL
 10
-29.53898620605472
 20
-25.22081375122076
 30
8.461456298828072
 70
   192
  0
VERTEX
  5
2BD
  8
METAL
 10
-29.53898620605472
 20
-24.42331695556646
 30
7.0364379882812
 70
   192
  0
VERTEX
  5
2BE
  8
METAL
 10
-29.53898620605472
 20
-24.42331695556646
 30
7.0364379882812
 70
   192
  0
VERTEX
  5
2BF
  8
METAL
 10
-29.53898620605472
 20
-24.42331695556646
 30
7.0364379882812
 70
   192
  0
VERTEX
  5
2C0
  8
METAL
 10
-29.53898620605472
 20
-24.42331695556646
 30
7.0364379882812
 70
   192
  0
VERTEX
  5
2C1
  8
METAL
 10
-29.53898620605472
 20
-28.72979354858398
 30
-2.962432861328182
 70
   192
  0
VERTEX
  5
2C2
  8
METAL
 10
-29.53898620605472
 20
-28.72979354858398
 30
-2.962432861328182
 70
   192
  0
VERTEX
  5
2C3
  8
METAL
 10
-29.53898620605472
 20
-28.72979354858398
 30
-2.962432861328182
 70
   192
  0
VERTEX
  5
2C4
  8
METAL
 10
-29.53898620605472
 20
-28.72979354858398
 30
-2.962432861328182
 70
   192
  0
VERTEX
  5
2C5
  8
METAL
 10
-29.53898620605472
 20
-28.2512931823731
 30
-6.337463378906307
 70
   192
  0
VERTEX
  5
2C6
  8
METAL
 10
-29.53898620605472
 20
-28.2512931823731
 30
-6.337463378906307
 70
   192
  0
VERTEX
  5
2C7
  8
METAL
 10
-29.53898620605472
 20
-28.2512931823731
 30
-6.337463378906307
 70
   192
  0
VERTEX
  5
2C8
  8
METAL
 10
-29.53898620605472
 20
-28.2512931823731
 30
-6.337463378906307
 70
   192
  0
VERTEX
  5
2C9
  8
METAL
 10
-29.53898620605472
 20
-27.45380020141602
 30
-7.762481689453182
 70
   192
  0
VERTEX
  5
2CA
  8
METAL
 10
-29.53898620605472
 20
-27.45380020141602
 30
-7.762481689453182
 70
   192
  0
VERTEX
  5
2CB
  8
METAL
 10
-29.53898620605472
 20
-27.45380020141602
 30
-7.762481689453182
 70
   192
  0
VERTEX
  5
2CC
  8
METAL
 10
-29.53898620605472
 20
-27.45380020141602
 30
-7.762481689453182
 70
   192
  0
VERTEX
  5
2CD
  8
METAL
 10
-29.53898620605472
 20
-26.89555358886724
 30
-7.940612792968807
 70
   192
  0
VERTEX
  5
2CE
  8
METAL
 10
-29.53898620605472
 20
-26.89555358886724
 30
-7.940612792968807
 70
   192
  0
VERTEX
  5
2CF
  8
METAL
 10
-29.53898620605472
 20
-26.89555358886724
 30
-7.940612792968807
 70
   192
  0
VERTEX
  5
2D0
  8
METAL
 10
-29.53898620605472
 20
-26.89555358886724
 30
-7.940612792968807
 70
   192
  0
VERTEX
  5
2D1
  8
METAL
 10
-29.53898620605472
 20
-25.77906036376953
 30
-7.940612792968807
 70
   192
  0
VERTEX
  5
2D2
  8
METAL
 10
-29.53898620605472
 20
-25.77906036376953
 30
-7.940612792968807
 70
   192
  0
VERTEX
  5
2D3
  8
METAL
 10
-29.53898620605472
 20
-25.77906036376953
 30
-7.940612792968807
 70
   192
  0
VERTEX
  5
2D4
  8
METAL
 10
-29.53898620605472
 20
-25.77906036376953
 30
-7.940612792968807
 70
   192
  0
VERTEX
  5
2D5
  8
METAL
 10
-29.53898620605472
 20
-26.33730697631836
 30
-8.0
 70
   192
  0
VERTEX
  5
2D6
  8
METAL
 10
-29.53898620605472
 20
-26.33730697631836
 30
-8.0
 70
   192
  0
VERTEX
  5
2D7
  8
METAL
 10
-29.53898620605472
 20
-26.33730697631836
 30
-8.0
 70
   192
  0
VERTEX
  5
2D8
  8
METAL
 10
-29.53898620605472
 20
-26.33730697631836
 30
-8.0
 70
   192
  0
VERTEX
  5
2D9
  8
METAL
 10
-29.53900146484378
 20
-26.33730697631842
 30
8.698974609375
 70
   192
  0
VERTEX
  5
2DA
  8
METAL
 10
-29.53900146484378
 20
-26.33730697631842
 30
8.698974609375
 70
   192
  0
VERTEX
  5
2DB
  8
METAL
 10
-29.53900146484378
 20
-26.33730697631842
 30
8.698974609375
 70
   192
  0
VERTEX
  5
2DC
  8
METAL
 10
-29.53900146484378
 20
-26.33730697631842
 30
8.698974609375
 70
   192
  0
VERTEX
  5
2DD
  8
METAL
 10
-29.53900146484378
 20
-26.89555358886724
 30
8.63958740234369
 70
   192
  0
VERTEX
  5
2DE
  8
METAL
 10
-29.53900146484378
 20
-26.89555358886724
 30
8.63958740234369
 70
   192
  0
VERTEX
  5
2DF
  8
METAL
 10
-29.53900146484378
 20
-26.89555358886724
 30
8.63958740234369
 70
   192
  0
VERTEX
  5
2E0
  8
METAL
 10
-29.53900146484378
 20
-26.89555358886724
 30
8.63958740234369
 70
   192
  0
VERTEX
  5
2E1
  8
METAL
 10
-29.53900146484378
 20
-25.77906036376959
 30
8.63958740234369
 70
   192
  0
VERTEX
  5
2E2
  8
METAL
 10
-29.53900146484378
 20
-25.77906036376959
 30
8.63958740234369
 70
   192
  0
VERTEX
  5
2E3
  8
METAL
 10
-29.53900146484378
 20
-25.77906036376959
 30
8.63958740234369
 70
   192
  0
VERTEX
  5
2E4
  8
METAL
 10
-29.53900146484378
 20
-25.77906036376959
 30
8.63958740234369
 70
   192
  0
VERTEX
  5
2E5
  8
METAL
 10
-29.53900146484378
 20
-27.45380020141602
 30
8.461456298828072
 70
   192
  0
VERTEX
  5
2E6
  8
METAL
 10
-29.53900146484378
 20
-27.45380020141602
 30
8.461456298828072
 70
   192
  0
VERTEX
  5
2E7
  8
METAL
 10
-29.53900146484378
 20
-27.45380020141602
 30
8.461456298828072
 70
   192
  0
VERTEX
  5
2E8
  8
METAL
 10
-29.53900146484378
 20
-27.45380020141602
 30
8.461456298828072
 70
   192
  0
VERTEX
  5
2E9
  8
METAL
 10
-29.53900146484378
 20
-28.25129699707037
 30
7.03643798828119
 70
   192
  0
VERTEX
  5
2EA
  8
METAL
 10
-29.53900146484378
 20
-28.25129699707037
 30
7.03643798828119
 70
   192
  0
VERTEX
  5
2EB
  8
METAL
 10
-29.53900146484378
 20
-28.25129699707037
 30
7.03643798828119
 70
   192
  0
VERTEX
  5
2EC
  8
METAL
 10
-29.53900146484378
 20
-28.25129699707037
 30
7.03643798828119
 70
   192
  0
VERTEX
  5
2ED
  8
METAL
 10
-29.53900146484378
 20
-28.72979354858404
 30
3.66140747070307
 70
   192
  0
VERTEX
  5
2EE
  8
METAL
 10
-29.53900146484378
 20
-28.72979354858404
 30
3.66140747070307
 70
   192
  0
VERTEX
  5
2EF
  8
METAL
 10
-29.53900146484378
 20
-28.72979354858404
 30
3.66140747070307
 70
   192
  0
VERTEX
  5
2F0
  8
METAL
 10
-29.53900146484378
 20
-28.72979354858404
 30
3.66140747070307
 70
   192
  0
VERTEX
  5
2F1
  8
METAL
 10
-29.53900146484378
 20
-28.88928985595703
 30
0.3494873046873863
 70
   192
  0
VERTEX
  5
2F2
  8
METAL
 10
-29.53900146484378
 20
-28.88928985595703
 30
0.3494873046873863
 70
   192
  0
VERTEX
  5
2F3
  8
METAL
 10
-29.53900146484378
 20
-28.88928985595703
 30
0.3494873046873863
 70
   192
  0
VERTEX
  5
2F4
  8
METAL
 10
-29.53900146484378
 20
-28.88928985595703
 30
0.3494873046873863
 70
   192
  0
VERTEX
  5
2F5
  8
METAL
 10
-29.53900146484378
 20
-24.42332077026367
 30
-6.3374633789063
 70
   192
  0
VERTEX
  5
2F6
  8
METAL
 10
-29.53900146484378
 20
-24.42332077026367
 30
-6.3374633789063
 70
   192
  0
VERTEX
  5
2F7
  8
METAL
 10
-29.53900146484378
 20
-24.42332077026367
 30
-6.3374633789063
 70
   192
  0
VERTEX
  5
2F8
  8
METAL
 10
-29.53900146484378
 20
-24.42332077026367
 30
-6.3374633789063
 70
   192
  0
VERTEX
  5
2F9
  8
METAL
 10
-29.53900146484378
 20
-25.2208137512207
 30
-7.762481689453182
 70
   192
  0
VERTEX
  5
2FA
  8
METAL
 10
-29.53900146484378
 20
-25.2208137512207
 30
-7.762481689453182
 70
   192
  0
VERTEX
  5
2FB
  8
METAL
 10
-29.53900146484378
 20
-25.2208137512207
 30
-7.762481689453182
 70
   192
  0
VERTEX
  5
2FC
  8
METAL
 10
-29.53900146484378
 20
-25.2208137512207
 30
-7.762481689453182
 70
   192
  0
VERTEX
  5
2FD
  8
METAL
 10
-48.59106063842776
 20
-24.94019699096685
 30
0.3494873046873863
 70
   192
  0
VERTEX
  5
2FE
  8
METAL
 10
-48.59106063842776
 20
-24.94019699096685
 30
0.3494873046873863
 70
   192
  0
VERTEX
  5
2FF
  8
METAL
 10
-48.59106063842776
 20
-24.94019699096685
 30
0.3494873046873863
 70
   192
  0
VERTEX
  5
300
  8
METAL
 10
-48.59106063842776
 20
-24.94019699096685
 30
0.3494873046873863
 70
   192
  0
VERTEX
  5
301
  8
METAL
 10
-48.59173202514651
 20
-25.09965896606451
 30
3.66140747070307
 70
   192
  0
VERTEX
  5
302
  8
METAL
 10
-48.59173202514651
 20
-25.09965896606451
 30
3.66140747070307
 70
   192
  0
VERTEX
  5
303
  8
METAL
 10
-48.59173202514651
 20
-25.09965896606451
 30
3.66140747070307
 70
   192
  0
VERTEX
  5
304
  8
METAL
 10
-48.59173202514651
 20
-25.09965896606451
 30
3.66140747070307
 70
   192
  0
VERTEX
  5
305
  8
METAL
 10
-48.59173202514651
 20
-25.09965896606445
 30
-2.962432861328182
 70
   192
  0
VERTEX
  5
306
  8
METAL
 10
-48.59173202514651
 20
-25.09965896606445
 30
-2.962432861328182
 70
   192
  0
VERTEX
  5
307
  8
METAL
 10
-48.59173202514651
 20
-25.09965896606445
 30
-2.962432861328182
 70
   192
  0
VERTEX
  5
308
  8
METAL
 10
-48.59173202514651
 20
-25.09965896606445
 30
-2.962432861328182
 70
   192
  0
VERTEX
  5
309
  8
METAL
 10
-48.59374618530276
 20
-29.88451766967773
 30
-2.962432861328182
 70
   192
  0
VERTEX
  5
30A
  8
METAL
 10
-48.59374618530276
 20
-29.88451766967773
 30
-2.962432861328182
 70
   192
  0
VERTEX
  5
30B
  8
METAL
 10
-48.59374618530276
 20
-29.88451766967773
 30
-2.962432861328182
 70
   192
  0
VERTEX
  5
30C
  8
METAL
 10
-48.59374618530276
 20
-29.88451766967773
 30
-2.962432861328182
 70
   192
  0
VERTEX
  5
30D
  8
METAL
 10
-48.59374618530276
 20
-29.40602111816406
 30
-6.337463378906307
 70
   192
  0
VERTEX
  5
30E
  8
METAL
 10
-48.59374618530276
 20
-29.40602111816406
 30
-6.337463378906307
 70
   192
  0
VERTEX
  5
30F
  8
METAL
 10
-48.59374618530276
 20
-29.40602111816406
 30
-6.337463378906307
 70
   192
  0
VERTEX
  5
310
  8
METAL
 10
-48.59374618530276
 20
-29.40602111816406
 30
-6.337463378906307
 70
   192
  0
VERTEX
  5
311
  8
METAL
 10
-48.59374618530276
 20
-28.60852432250977
 30
-7.762481689453182
 70
   192
  0
VERTEX
  5
312
  8
METAL
 10
-48.59374618530276
 20
-28.60852432250977
 30
-7.762481689453182
 70
   192
  0
VERTEX
  5
313
  8
METAL
 10
-48.59374618530276
 20
-28.60852432250977
 30
-7.762481689453182
 70
   192
  0
VERTEX
  5
314
  8
METAL
 10
-48.59374618530276
 20
-28.60852432250977
 30
-7.762481689453182
 70
   192
  0
VERTEX
  5
315
  8
METAL
 10
-48.59374618530276
 20
-28.05027770996099
 30
-7.940612792968807
 70
   192
  0
VERTEX
  5
316
  8
METAL
 10
-48.59374618530276
 20
-28.05027770996099
 30
-7.940612792968807
 70
   192
  0
VERTEX
  5
317
  8
METAL
 10
-48.59374618530276
 20
-28.05027770996099
 30
-7.940612792968807
 70
   192
  0
VERTEX
  5
318
  8
METAL
 10
-48.59374618530276
 20
-28.05027770996099
 30
-7.940612792968807
 70
   192
  0
VERTEX
  5
319
  8
METAL
 10
-48.59376144409183
 20
-26.37553787231451
 30
8.461456298828072
 70
   192
  0
VERTEX
  5
31A
  8
METAL
 10
-48.59376144409183
 20
-26.37553787231451
 30
8.461456298828072
 70
   192
  0
VERTEX
  5
31B
  8
METAL
 10
-48.59376144409183
 20
-26.37553787231451
 30
8.461456298828072
 70
   192
  0
VERTEX
  5
31C
  8
METAL
 10
-48.59376144409183
 20
-26.37553787231451
 30
8.461456298828072
 70
   192
  0
VERTEX
  5
31D
  8
METAL
 10
-48.59376144409183
 20
-25.57804489135748
 30
7.03643798828119
 70
   192
  0
VERTEX
  5
31E
  8
METAL
 10
-48.59376144409183
 20
-25.57804489135748
 30
7.03643798828119
 70
   192
  0
VERTEX
  5
31F
  8
METAL
 10
-48.59376144409183
 20
-25.57804489135748
 30
7.03643798828119
 70
   192
  0
VERTEX
  5
320
  8
METAL
 10
-48.59376144409183
 20
-25.57804489135748
 30
7.03643798828119
 70
   192
  0
VERTEX
  5
321
  8
METAL
 10
-48.59376144409183
 20
-26.93378448486328
 30
-7.940612792968807
 70
   192
  0
VERTEX
  5
322
  8
METAL
 10
-48.59376144409183
 20
-26.93378448486328
 30
-7.940612792968807
 70
   192
  0
VERTEX
  5
323
  8
METAL
 10
-48.59376144409183
 20
-26.93378448486328
 30
-7.940612792968807
 70
   192
  0
VERTEX
  5
324
  8
METAL
 10
-48.59376144409183
 20
-26.93378448486328
 30
-7.940612792968807
 70
   192
  0
VERTEX
  5
325
  8
METAL
 10
-48.59376144409183
 20
-27.49203109741211
 30
-8.0
 70
   192
  0
VERTEX
  5
326
  8
METAL
 10
-48.59376144409183
 20
-27.49203109741211
 30
-8.0
 70
   192
  0
VERTEX
  5
327
  8
METAL
 10
-48.59376144409183
 20
-27.49203109741211
 30
-8.0
 70
   192
  0
VERTEX
  5
328
  8
METAL
 10
-48.59376144409183
 20
-27.49203109741211
 30
-8.0
 70
   192
  0
VERTEX
  5
329
  8
METAL
 10
-48.59379196166995
 20
-27.49203491210938
 30
8.698974609375
 70
   192
  0
VERTEX
  5
32A
  8
METAL
 10
-48.59379196166995
 20
-27.49203491210938
 30
8.698974609375
 70
   192
  0
VERTEX
  5
32B
  8
METAL
 10
-48.59379196166995
 20
-27.49203491210938
 30
8.698974609375
 70
   192
  0
VERTEX
  5
32C
  8
METAL
 10
-48.59379196166995
 20
-27.49203491210938
 30
8.698974609375
 70
   192
  0
VERTEX
  5
32D
  8
METAL
 10
-48.59379196166995
 20
-28.05028152465826
 30
8.63958740234369
 70
   192
  0
VERTEX
  5
32E
  8
METAL
 10
-48.59379196166995
 20
-28.05028152465826
 30
8.63958740234369
 70
   192
  0
VERTEX
  5
32F
  8
METAL
 10
-48.59379196166995
 20
-28.05028152465826
 30
8.63958740234369
 70
   192
  0
VERTEX
  5
330
  8
METAL
 10
-48.59379196166995
 20
-28.05028152465826
 30
8.63958740234369
 70
   192
  0
VERTEX
  5
331
  8
METAL
 10
-48.59379196166995
 20
-26.9337882995606
 30
8.63958740234369
 70
   192
  0
VERTEX
  5
332
  8
METAL
 10
-48.59379196166995
 20
-26.9337882995606
 30
8.63958740234369
 70
   192
  0
VERTEX
  5
333
  8
METAL
 10
-48.59379196166995
 20
-26.9337882995606
 30
8.63958740234369
 70
   192
  0
VERTEX
  5
334
  8
METAL
 10
-48.59379196166995
 20
-26.9337882995606
 30
8.63958740234369
 70
   192
  0
VERTEX
  5
335
  8
METAL
 10
-48.59379196166995
 20
-28.60852813720709
 30
8.461456298828072
 70
   192
  0
VERTEX
  5
336
  8
METAL
 10
-48.59379196166995
 20
-28.60852813720709
 30
8.461456298828072
 70
   192
  0
VERTEX
  5
337
  8
METAL
 10
-48.59379196166995
 20
-28.60852813720709
 30
8.461456298828072
 70
   192
  0
VERTEX
  5
338
  8
METAL
 10
-48.59379196166995
 20
-28.60852813720709
 30
8.461456298828072
 70
   192
  0
VERTEX
  5
339
  8
METAL
 10
-48.59379196166995
 20
-29.40602111816412
 30
7.03643798828119
 70
   192
  0
VERTEX
  5
33A
  8
METAL
 10
-48.59379196166995
 20
-29.40602111816412
 30
7.03643798828119
 70
   192
  0
VERTEX
  5
33B
  8
METAL
 10
-48.59379196166995
 20
-29.40602111816412
 30
7.03643798828119
 70
   192
  0
VERTEX
  5
33C
  8
METAL
 10
-48.59379196166995
 20
-29.40602111816412
 30
7.03643798828119
 70
   192
  0
VERTEX
  5
33D
  8
METAL
 10
-48.59379196166995
 20
-29.88451766967779
 30
3.66140747070307
 70
   192
  0
VERTEX
  5
33E
  8
METAL
 10
-48.59379196166995
 20
-29.88451766967779
 30
3.66140747070307
 70
   192
  0
VERTEX
  5
33F
  8
METAL
 10
-48.59379196166995
 20
-29.88451766967779
 30
3.66140747070307
 70
   192
  0
VERTEX
  5
340
  8
METAL
 10
-48.59379196166995
 20
-29.88451766967779
 30
3.66140747070307
 70
   192
  0
VERTEX
  5
341
  8
METAL
 10
-48.59379196166995
 20
-30.0440177917481
 30
0.3494873046873863
 70
   192
  0
VERTEX
  5
342
  8
METAL
 10
-48.59379196166995
 20
-30.0440177917481
 30
0.3494873046873863
 70
   192
  0
VERTEX
  5
343
  8
METAL
 10
-48.59379196166995
 20
-30.0440177917481
 30
0.3494873046873863
 70
   192
  0
VERTEX
  5
344
  8
METAL
 10
-48.59379196166995
 20
-30.0440177917481
 30
0.3494873046873863
 70
   192
  0
VERTEX
  5
345
  8
METAL
 10
-48.59379196166995
 20
-25.57804489135742
 30
-6.337463378906307
 70
   192
  0
VERTEX
  5
346
  8
METAL
 10
-48.59379196166995
 20
-25.57804489135742
 30
-6.337463378906307
 70
   192
  0
VERTEX
  5
347
  8
METAL
 10
-48.59379196166995
 20
-25.57804489135742
 30
-6.337463378906307
 70
   192
  0
VERTEX
  5
348
  8
METAL
 10
-48.59379196166995
 20
-25.57804489135742
 30
-6.337463378906307
 70
   192
  0
VERTEX
  5
349
  8
METAL
 10
-48.59379196166995
 20
-26.37554168701172
 30
-7.762481689453182
 70
   192
  0
VERTEX
  5
34A
  8
METAL
 10
-48.59379196166995
 20
-26.37554168701172
 30
-7.762481689453182
 70
   192
  0
VERTEX
  5
34B
  8
METAL
 10
-48.59379196166995
 20
-26.37554168701172
 30
-7.762481689453182
 70
   192
  0
VERTEX
  5
34C
  8
METAL
 10
-48.59379196166995
 20
-26.37554168701172
 30
-7.762481689453182
 70
   192
  0
VERTEX
  5
34D
  8
METAL
 10
-64.29200744628909
 20
-25.22239303588867
 30
0.3494873046873863
 70
   192
  0
VERTEX
  5
34E
  8
METAL
 10
-64.29200744628909
 20
-25.22239303588867
 30
0.3494873046873863
 70
   192
  0
VERTEX
  5
34F
  8
METAL
 10
-64.29200744628909
 20
-25.22239303588867
 30
0.3494873046873863
 70
   192
  0
VERTEX
  5
350
  8
METAL
 10
-64.29200744628909
 20
-25.22239303588867
 30
0.3494873046873863
 70
   192
  0
VERTEX
  5
351
  8
METAL
 10
-64.29336547851565
 20
-25.38181686401373
 30
3.66140747070307
 70
   192
  0
VERTEX
  5
352
  8
METAL
 10
-64.29336547851565
 20
-25.38181686401373
 30
3.66140747070307
 70
   192
  0
VERTEX
  5
353
  8
METAL
 10
-64.29336547851565
 20
-25.38181686401373
 30
3.66140747070307
 70
   192
  0
VERTEX
  5
354
  8
METAL
 10
-64.29336547851565
 20
-25.38181686401373
 30
3.66140747070307
 70
   192
  0
VERTEX
  5
355
  8
METAL
 10
-64.29336547851565
 20
-25.38181686401367
 30
-2.962432861328182
 70
   192
  0
VERTEX
  5
356
  8
METAL
 10
-64.29336547851565
 20
-25.38181686401367
 30
-2.962432861328182
 70
   192
  0
VERTEX
  5
357
  8
METAL
 10
-64.29336547851565
 20
-25.38181686401367
 30
-2.962432861328182
 70
   192
  0
VERTEX
  5
358
  8
METAL
 10
-64.29336547851565
 20
-25.38181686401367
 30
-2.962432861328182
 70
   192
  0
VERTEX
  5
359
  8
METAL
 10
-64.29743957519534
 20
-30.16656494140625
 30
-2.962432861328182
 70
   192
  0
VERTEX
  5
35A
  8
METAL
 10
-64.29743957519534
 20
-30.16656494140625
 30
-2.962432861328182
 70
   192
  0
VERTEX
  5
35B
  8
METAL
 10
-64.29743957519534
 20
-30.16656494140625
 30
-2.962432861328182
 70
   192
  0
VERTEX
  5
35C
  8
METAL
 10
-64.29743957519534
 20
-30.16656494140625
 30
-2.962432861328182
 70
   192
  0
VERTEX
  5
35D
  8
METAL
 10
-64.29743957519534
 20
-29.68806838989258
 30
-6.337463378906307
 70
   192
  0
VERTEX
  5
35E
  8
METAL
 10
-64.29743957519534
 20
-29.68806838989258
 30
-6.337463378906307
 70
   192
  0
VERTEX
  5
35F
  8
METAL
 10
-64.29743957519534
 20
-29.68806838989258
 30
-6.337463378906307
 70
   192
  0
VERTEX
  5
360
  8
METAL
 10
-64.29743957519534
 20
-29.68806838989258
 30
-6.337463378906307
 70
   192
  0
VERTEX
  5
361
  8
METAL
 10
-64.29743957519534
 20
-28.89057159423828
 30
-7.762481689453182
 70
   192
  0
VERTEX
  5
362
  8
METAL
 10
-64.29743957519534
 20
-28.89057159423828
 30
-7.762481689453182
 70
   192
  0
VERTEX
  5
363
  8
METAL
 10
-64.29743957519534
 20
-28.89057159423828
 30
-7.762481689453182
 70
   192
  0
VERTEX
  5
364
  8
METAL
 10
-64.29743957519534
 20
-28.89057159423828
 30
-7.762481689453182
 70
   192
  0
VERTEX
  5
365
  8
METAL
 10
-64.29743957519534
 20
-28.33232879638672
 30
-7.940612792968807
 70
   192
  0
VERTEX
  5
366
  8
METAL
 10
-64.29743957519534
 20
-28.33232879638672
 30
-7.940612792968807
 70
   192
  0
VERTEX
  5
367
  8
METAL
 10
-64.29743957519534
 20
-28.33232879638672
 30
-7.940612792968807
 70
   192
  0
VERTEX
  5
368
  8
METAL
 10
-64.29743957519534
 20
-28.33232879638672
 30
-7.940612792968807
 70
   192
  0
VERTEX
  5
369
  8
METAL
 10
-64.2974548339844
 20
-26.65758895874029
 30
8.461456298828072
 70
   192
  0
VERTEX
  5
36A
  8
METAL
 10
-64.2974548339844
 20
-26.65758895874029
 30
8.461456298828072
 70
   192
  0
VERTEX
  5
36B
  8
METAL
 10
-64.2974548339844
 20
-26.65758895874029
 30
8.461456298828072
 70
   192
  0
VERTEX
  5
36C
  8
METAL
 10
-64.2974548339844
 20
-26.65758895874029
 30
8.461456298828072
 70
   192
  0
VERTEX
  5
36D
  8
METAL
 10
-64.2974548339844
 20
-25.86009216308599
 30
7.03643798828119
 70
   192
  0
VERTEX
  5
36E
  8
METAL
 10
-64.2974548339844
 20
-25.86009216308599
 30
7.03643798828119
 70
   192
  0
VERTEX
  5
36F
  8
METAL
 10
-64.2974548339844
 20
-25.86009216308599
 30
7.03643798828119
 70
   192
  0
VERTEX
  5
370
  8
METAL
 10
-64.2974548339844
 20
-25.86009216308599
 30
7.03643798828119
 70
   192
  0
VERTEX
  5
371
  8
METAL
 10
-64.2974548339844
 20
-27.21583557128906
 30
-7.940612792968807
 70
   192
  0
VERTEX
  5
372
  8
METAL
 10
-64.2974548339844
 20
-27.21583557128906
 30
-7.940612792968807
 70
   192
  0
VERTEX
  5
373
  8
METAL
 10
-64.2974548339844
 20
-27.21583557128906
 30
-7.940612792968807
 70
   192
  0
VERTEX
  5
374
  8
METAL
 10
-64.2974548339844
 20
-27.21583557128906
 30
-7.940612792968807
 70
   192
  0
VERTEX
  5
375
  8
METAL
 10
-64.2974548339844
 20
-27.77408218383789
 30
-8.0
 70
   192
  0
VERTEX
  5
376
  8
METAL
 10
-64.2974548339844
 20
-27.77408218383789
 30
-8.0
 70
   192
  0
VERTEX
  5
377
  8
METAL
 10
-64.2974548339844
 20
-27.77408218383789
 30
-8.0
 70
   192
  0
VERTEX
  5
378
  8
METAL
 10
-64.2974548339844
 20
-27.77408218383789
 30
-8.0
 70
   192
  0
VERTEX
  5
379
  8
METAL
 10
-64.29747009277347
 20
-27.77408218383795
 30
8.698974609375
 70
   192
  0
VERTEX
  5
37A
  8
METAL
 10
-64.29747009277347
 20
-27.77408218383795
 30
8.698974609375
 70
   192
  0
VERTEX
  5
37B
  8
METAL
 10
-64.29747009277347
 20
-27.77408218383795
 30
8.698974609375
 70
   192
  0
VERTEX
  5
37C
  8
METAL
 10
-64.29747009277347
 20
-27.77408218383795
 30
8.698974609375
 70
   192
  0
VERTEX
  5
37D
  8
METAL
 10
-64.29747009277347
 20
-28.33232879638678
 30
8.63958740234369
 70
   192
  0
VERTEX
  5
37E
  8
METAL
 10
-64.29747009277347
 20
-28.33232879638678
 30
8.63958740234369
 70
   192
  0
VERTEX
  5
37F
  8
METAL
 10
-64.29747009277347
 20
-28.33232879638678
 30
8.63958740234369
 70
   192
  0
VERTEX
  5
380
  8
METAL
 10
-64.29747009277347
 20
-28.33232879638678
 30
8.63958740234369
 70
   192
  0
VERTEX
  5
381
  8
METAL
 10
-64.29747009277347
 20
-27.21583557128912
 30
8.63958740234369
 70
   192
  0
VERTEX
  5
382
  8
METAL
 10
-64.29747009277347
 20
-27.21583557128912
 30
8.63958740234369
 70
   192
  0
VERTEX
  5
383
  8
METAL
 10
-64.29747009277347
 20
-27.21583557128912
 30
8.63958740234369
 70
   192
  0
VERTEX
  5
384
  8
METAL
 10
-64.29747009277347
 20
-27.21583557128912
 30
8.63958740234369
 70
   192
  0
VERTEX
  5
385
  8
METAL
 10
-64.29747009277347
 20
-28.8905754089356
 30
8.461456298828072
 70
   192
  0
VERTEX
  5
386
  8
METAL
 10
-64.29747009277347
 20
-28.8905754089356
 30
8.461456298828072
 70
   192
  0
VERTEX
  5
387
  8
METAL
 10
-64.29747009277347
 20
-28.8905754089356
 30
8.461456298828072
 70
   192
  0
VERTEX
  5
388
  8
METAL
 10
-64.29747009277347
 20
-28.8905754089356
 30
8.461456298828072
 70
   192
  0
VERTEX
  5
389
  8
METAL
 10
-64.29747009277347
 20
-29.68806838989263
 30
7.03643798828119
 70
   192
  0
VERTEX
  5
38A
  8
METAL
 10
-64.29747009277347
 20
-29.68806838989263
 30
7.03643798828119
 70
   192
  0
VERTEX
  5
38B
  8
METAL
 10
-64.29747009277347
 20
-29.68806838989263
 30
7.03643798828119
 70
   192
  0
VERTEX
  5
38C
  8
METAL
 10
-64.29747009277347
 20
-29.68806838989263
 30
7.03643798828119
 70
   192
  0
VERTEX
  5
38D
  8
METAL
 10
-64.29747009277347
 20
-30.16656494140631
 30
3.66140747070307
 70
   192
  0
VERTEX
  5
38E
  8
METAL
 10
-64.29747009277347
 20
-30.16656494140631
 30
3.66140747070307
 70
   192
  0
VERTEX
  5
38F
  8
METAL
 10
-64.29747009277347
 20
-30.16656494140631
 30
3.66140747070307
 70
   192
  0
VERTEX
  5
390
  8
METAL
 10
-64.29747009277347
 20
-30.16656494140631
 30
3.66140747070307
 70
   192
  0
VERTEX
  5
391
  8
METAL
 10
-64.29747009277347
 20
-30.32606506347656
 30
0.3494873046873863
 70
   192
  0
VERTEX
  5
392
  8
METAL
 10
-64.29747009277347
 20
-30.32606506347656
 30
0.3494873046873863
 70
   192
  0
VERTEX
  5
393
  8
METAL
 10
-64.29747009277347
 20
-30.32606506347656
 30
0.3494873046873863
 70
   192
  0
VERTEX
  5
394
  8
METAL
 10
-64.29747009277347
 20
-30.32606506347656
 30
0.3494873046873863
 70
   192
  0
VERTEX
  5
395
  8
METAL
 10
-64.29747009277347
 20
-25.86009216308599
 30
-6.337463378906307
 70
   192
  0
VERTEX
  5
396
  8
METAL
 10
-64.29747009277347
 20
-25.86009216308599
 30
-6.337463378906307
 70
   192
  0
VERTEX
  5
397
  8
METAL
 10
-64.29747009277347
 20
-25.86009216308599
 30
-6.337463378906307
 70
   192
  0
VERTEX
  5
398
  8
METAL
 10
-64.29747009277347
 20
-25.86009216308599
 30
-6.337463378906307
 70
   192
  0
VERTEX
  5
399
  8
METAL
 10
-64.29747009277347
 20
-26.65758895874023
 30
-7.762481689453182
 70
   192
  0
VERTEX
  5
39A
  8
METAL
 10
-64.29747009277347
 20
-26.65758895874023
 30
-7.762481689453182
 70
   192
  0
VERTEX
  5
39B
  8
METAL
 10
-64.29747009277347
 20
-26.65758895874023
 30
-7.762481689453182
 70
   192
  0
VERTEX
  5
39C
  8
METAL
 10
-64.29747009277347
 20
-26.65758895874023
 30
-7.762481689453182
 70
   192
  0
VERTEX
  5
39D
  8
METAL
 10
-81.10673522949219
 20
-24.21578979492188
 30
0.3494873046873934
 70
   192
  0
VERTEX
  5
39E
  8
METAL
 10
-81.10673522949219
 20
-24.21578979492188
 30
0.3494873046873934
 70
   192
  0
VERTEX
  5
39F
  8
METAL
 10
-81.10673522949219
 20
-24.21578979492188
 30
0.3494873046873934
 70
   192
  0
VERTEX
  5
3A0
  8
METAL
 10
-81.10673522949219
 20
-24.21578979492188
 30
0.3494873046873934
 70
   192
  0
VERTEX
  5
3A1
  8
METAL
 10
-81.10946655273439
 20
-24.37514114379888
 30
3.661407470703081
 70
   192
  0
VERTEX
  5
3A2
  8
METAL
 10
-81.10946655273439
 20
-24.37514114379888
 30
3.661407470703081
 70
   192
  0
VERTEX
  5
3A3
  8
METAL
 10
-81.10946655273439
 20
-24.37514114379888
 30
3.661407470703081
 70
   192
  0
VERTEX
  5
3A4
  8
METAL
 10
-81.10946655273439
 20
-24.37514114379888
 30
3.661407470703081
 70
   192
  0
VERTEX
  5
3A5
  8
METAL
 10
-81.10946655273439
 20
-24.37514114379883
 30
-2.962432861328175
 70
   192
  0
VERTEX
  5
3A6
  8
METAL
 10
-81.10946655273439
 20
-24.37514114379883
 30
-2.962432861328175
 70
   192
  0
VERTEX
  5
3A7
  8
METAL
 10
-81.10946655273439
 20
-24.37514114379883
 30
-2.962432861328175
 70
   192
  0
VERTEX
  5
3A8
  8
METAL
 10
-81.10946655273439
 20
-24.37514114379883
 30
-2.962432861328175
 70
   192
  0
VERTEX
  5
3A9
  8
METAL
 10
-81.11764526367189
 20
-27.32543182373053
 30
8.63958740234369
 70
   192
  0
VERTEX
  5
3AA
  8
METAL
 10
-81.11764526367189
 20
-27.32543182373053
 30
8.63958740234369
 70
   192
  0
VERTEX
  5
3AB
  8
METAL
 10
-81.11764526367189
 20
-27.32543182373053
 30
8.63958740234369
 70
   192
  0
VERTEX
  5
3AC
  8
METAL
 10
-81.11764526367189
 20
-27.32543182373053
 30
8.63958740234369
 70
   192
  0
VERTEX
  5
3AD
  8
METAL
 10
-81.11764526367189
 20
-27.88367843627935
 30
8.461456298828072
 70
   192
  0
VERTEX
  5
3AE
  8
METAL
 10
-81.11764526367189
 20
-27.88367843627935
 30
8.461456298828072
 70
   192
  0
VERTEX
  5
3AF
  8
METAL
 10
-81.11764526367189
 20
-27.88367843627935
 30
8.461456298828072
 70
   192
  0
VERTEX
  5
3B0
  8
METAL
 10
-81.11764526367189
 20
-27.88367843627935
 30
8.461456298828072
 70
   192
  0
VERTEX
  5
3B1
  8
METAL
 10
-81.11764526367189
 20
-28.68117141723638
 30
7.03643798828119
 70
   192
  0
VERTEX
  5
3B2
  8
METAL
 10
-81.11764526367189
 20
-28.68117141723638
 30
7.03643798828119
 70
   192
  0
VERTEX
  5
3B3
  8
METAL
 10
-81.11764526367189
 20
-28.68117141723638
 30
7.03643798828119
 70
   192
  0
VERTEX
  5
3B4
  8
METAL
 10
-81.11764526367189
 20
-28.68117141723638
 30
7.03643798828119
 70
   192
  0
VERTEX
  5
3B5
  8
METAL
 10
-81.11764526367189
 20
-29.15966796875006
 30
3.66140747070307
 70
   192
  0
VERTEX
  5
3B6
  8
METAL
 10
-81.11764526367189
 20
-29.15966796875006
 30
3.66140747070307
 70
   192
  0
VERTEX
  5
3B7
  8
METAL
 10
-81.11764526367189
 20
-29.15966796875006
 30
3.66140747070307
 70
   192
  0
VERTEX
  5
3B8
  8
METAL
 10
-81.11764526367189
 20
-29.15966796875006
 30
3.66140747070307
 70
   192
  0
VERTEX
  5
3B9
  8
METAL
 10
-81.11764526367189
 20
-29.31916809082031
 30
0.3494873046873863
 70
   192
  0
VERTEX
  5
3BA
  8
METAL
 10
-81.11764526367189
 20
-29.31916809082031
 30
0.3494873046873863
 70
   192
  0
VERTEX
  5
3BB
  8
METAL
 10
-81.11764526367189
 20
-29.31916809082031
 30
0.3494873046873863
 70
   192
  0
VERTEX
  5
3BC
  8
METAL
 10
-81.11764526367189
 20
-29.31916809082031
 30
0.3494873046873863
 70
   192
  0
VERTEX
  5
3BD
  8
METAL
 10
-81.11764526367189
 20
-29.15966796875
 30
-2.962432861328182
 70
   192
  0
VERTEX
  5
3BE
  8
METAL
 10
-81.11764526367189
 20
-29.15966796875
 30
-2.962432861328182
 70
   192
  0
VERTEX
  5
3BF
  8
METAL
 10
-81.11764526367189
 20
-29.15966796875
 30
-2.962432861328182
 70
   192
  0
VERTEX
  5
3C0
  8
METAL
 10
-81.11764526367189
 20
-29.15966796875
 30
-2.962432861328182
 70
   192
  0
VERTEX
  5
3C1
  8
METAL
 10
-81.11764526367189
 20
-28.68117141723633
 30
-6.337463378906307
 70
   192
  0
VERTEX
  5
3C2
  8
METAL
 10
-81.11764526367189
 20
-28.68117141723633
 30
-6.337463378906307
 70
   192
  0
VERTEX
  5
3C3
  8
METAL
 10
-81.11764526367189
 20
-28.68117141723633
 30
-6.337463378906307
 70
   192
  0
VERTEX
  5
3C4
  8
METAL
 10
-81.11764526367189
 20
-28.68117141723633
 30
-6.337463378906307
 70
   192
  0
VERTEX
  5
3C5
  8
METAL
 10
-81.11764526367189
 20
-27.88367843627935
 30
-7.762481689453182
 70
   192
  0
VERTEX
  5
3C6
  8
METAL
 10
-81.11764526367189
 20
-27.88367843627935
 30
-7.762481689453182
 70
   192
  0
VERTEX
  5
3C7
  8
METAL
 10
-81.11764526367189
 20
-27.88367843627935
 30
-7.762481689453182
 70
   192
  0
VERTEX
  5
3C8
  8
METAL
 10
-81.11764526367189
 20
-27.88367843627935
 30
-7.762481689453182
 70
   192
  0
VERTEX
  5
3C9
  8
METAL
 10
-81.11764526367189
 20
-27.32543182373047
 30
-7.940612792968807
 70
   192
  0
VERTEX
  5
3CA
  8
METAL
 10
-81.11764526367189
 20
-27.32543182373047
 30
-7.940612792968807
 70
   192
  0
VERTEX
  5
3CB
  8
METAL
 10
-81.11764526367189
 20
-27.32543182373047
 30
-7.940612792968807
 70
   192
  0
VERTEX
  5
3CC
  8
METAL
 10
-81.11764526367189
 20
-27.32543182373047
 30
-7.940612792968807
 70
   192
  0
VERTEX
  5
3CD
  8
METAL
 10
-81.11765289306639
 20
-26.7671852111817
 30
8.698974609375
 70
   192
  0
VERTEX
  5
3CE
  8
METAL
 10
-81.11765289306639
 20
-26.7671852111817
 30
8.698974609375
 70
   192
  0
VERTEX
  5
3CF
  8
METAL
 10
-81.11765289306639
 20
-26.7671852111817
 30
8.698974609375
 70
   192
  0
VERTEX
  5
3D0
  8
METAL
 10
-81.11765289306639
 20
-26.7671852111817
 30
8.698974609375
 70
   192
  0
VERTEX
  5
3D1
  8
METAL
 10
-81.11765289306639
 20
-26.20893859863287
 30
8.63958740234369
 70
   192
  0
VERTEX
  5
3D2
  8
METAL
 10
-81.11765289306639
 20
-26.20893859863287
 30
8.63958740234369
 70
   192
  0
VERTEX
  5
3D3
  8
METAL
 10
-81.11765289306639
 20
-26.20893859863287
 30
8.63958740234369
 70
   192
  0
VERTEX
  5
3D4
  8
METAL
 10
-81.11765289306639
 20
-26.20893859863287
 30
8.63958740234369
 70
   192
  0
VERTEX
  5
3D5
  8
METAL
 10
-81.11765289306639
 20
-25.65069198608404
 30
8.461456298828072
 70
   192
  0
VERTEX
  5
3D6
  8
METAL
 10
-81.11765289306639
 20
-25.65069198608404
 30
8.461456298828072
 70
   192
  0
VERTEX
  5
3D7
  8
METAL
 10
-81.11765289306639
 20
-25.65069198608404
 30
8.461456298828072
 70
   192
  0
VERTEX
  5
3D8
  8
METAL
 10
-81.11765289306639
 20
-25.65069198608404
 30
8.461456298828072
 70
   192
  0
VERTEX
  5
3D9
  8
METAL
 10
-81.11765289306639
 20
-24.85319519042974
 30
7.03643798828119
 70
   192
  0
VERTEX
  5
3DA
  8
METAL
 10
-81.11765289306639
 20
-24.85319519042974
 30
7.03643798828119
 70
   192
  0
VERTEX
  5
3DB
  8
METAL
 10
-81.11765289306639
 20
-24.85319519042974
 30
7.03643798828119
 70
   192
  0
VERTEX
  5
3DC
  8
METAL
 10
-81.11765289306639
 20
-24.85319519042974
 30
7.03643798828119
 70
   192
  0
VERTEX
  5
3DD
  8
METAL
 10
-81.11765289306639
 20
-24.85319900512695
 30
-6.337463378906307
 70
   192
  0
VERTEX
  5
3DE
  8
METAL
 10
-81.11765289306639
 20
-24.85319900512695
 30
-6.337463378906307
 70
   192
  0
VERTEX
  5
3DF
  8
METAL
 10
-81.11765289306639
 20
-24.85319900512695
 30
-6.337463378906307
 70
   192
  0
VERTEX
  5
3E0
  8
METAL
 10
-81.11765289306639
 20
-24.85319900512695
 30
-6.337463378906307
 70
   192
  0
VERTEX
  5
3E1
  8
METAL
 10
-81.11765289306639
 20
-25.65069198608398
 30
-7.762481689453182
 70
   192
  0
VERTEX
  5
3E2
  8
METAL
 10
-81.11765289306639
 20
-25.65069198608398
 30
-7.762481689453182
 70
   192
  0
VERTEX
  5
3E3
  8
METAL
 10
-81.11765289306639
 20
-25.65069198608398
 30
-7.762481689453182
 70
   192
  0
VERTEX
  5
3E4
  8
METAL
 10
-81.11765289306639
 20
-25.65069198608398
 30
-7.762481689453182
 70
   192
  0
VERTEX
  5
3E5
  8
METAL
 10
-81.11765289306639
 20
-26.20893859863281
 30
-7.940612792968807
 70
   192
  0
VERTEX
  5
3E6
  8
METAL
 10
-81.11765289306639
 20
-26.20893859863281
 30
-7.940612792968807
 70
   192
  0
VERTEX
  5
3E7
  8
METAL
 10
-81.11765289306639
 20
-26.20893859863281
 30
-7.940612792968807
 70
   192
  0
VERTEX
  5
3E8
  8
METAL
 10
-81.11765289306639
 20
-26.20893859863281
 30
-7.940612792968807
 70
   192
  0
VERTEX
  5
3E9
  8
METAL
 10
-81.11765289306639
 20
-26.76718521118164
 30
-8.0
 70
   192
  0
VERTEX
  5
3EA
  8
METAL
 10
-81.11765289306639
 20
-26.76718521118164
 30
-8.0
 70
   192
  0
VERTEX
  5
3EB
  8
METAL
 10
-81.11765289306639
 20
-26.76718521118164
 30
-8.0
 70
   192
  0
VERTEX
  5
3EC
  8
METAL
 10
-81.11765289306639
 20
-26.76718521118164
 30
-8.0
 70
   192
  0
VERTEX
  5
3ED
  8
METAL
 10
-98.62919616699219
 20
-24.75034332275396
 30
8.63958740234369
 70
   192
  0
VERTEX
  5
3EE
  8
METAL
 10
-98.62919616699219
 20
-24.75034332275396
 30
8.63958740234369
 70
   192
  0
VERTEX
  5
3EF
  8
METAL
 10
-98.62919616699219
 20
-24.75034332275396
 30
8.63958740234369
 70
   192
  0
VERTEX
  5
3F0
  8
METAL
 10
-98.62919616699219
 20
-24.75034332275396
 30
8.63958740234369
 70
   192
  0
VERTEX
  5
3F1
  8
METAL
 10
-98.62919616699219
 20
-25.30858993530279
 30
8.461456298828072
 70
   192
  0
VERTEX
  5
3F2
  8
METAL
 10
-98.62919616699219
 20
-25.30858993530279
 30
8.461456298828072
 70
   192
  0
VERTEX
  5
3F3
  8
METAL
 10
-98.62919616699219
 20
-25.30858993530279
 30
8.461456298828072
 70
   192
  0
VERTEX
  5
3F4
  8
METAL
 10
-98.62919616699219
 20
-25.30858993530279
 30
8.461456298828072
 70
   192
  0
VERTEX
  5
3F5
  8
METAL
 10
-98.62919616699219
 20
-26.10608291625977
 30
7.03643798828119
 70
   192
  0
VERTEX
  5
3F6
  8
METAL
 10
-98.62919616699219
 20
-26.10608291625977
 30
7.03643798828119
 70
   192
  0
VERTEX
  5
3F7
  8
METAL
 10
-98.62919616699219
 20
-26.10608291625977
 30
7.03643798828119
 70
   192
  0
VERTEX
  5
3F8
  8
METAL
 10
-98.62919616699219
 20
-26.10608291625977
 30
7.03643798828119
 70
   192
  0
VERTEX
  5
3F9
  8
METAL
 10
-98.62919616699219
 20
-26.58457946777349
 30
3.66140747070307
 70
   192
  0
VERTEX
  5
3FA
  8
METAL
 10
-98.62919616699219
 20
-26.58457946777349
 30
3.66140747070307
 70
   192
  0
VERTEX
  5
3FB
  8
METAL
 10
-98.62919616699219
 20
-26.58457946777349
 30
3.66140747070307
 70
   192
  0
VERTEX
  5
3FC
  8
METAL
 10
-98.62919616699219
 20
-26.58457946777349
 30
3.66140747070307
 70
   192
  0
VERTEX
  5
3FD
  8
METAL
 10
-98.62919616699219
 20
-26.74407958984375
 30
0.3494873046873863
 70
   192
  0
VERTEX
  5
3FE
  8
METAL
 10
-98.62919616699219
 20
-26.74407958984375
 30
0.3494873046873863
 70
   192
  0
VERTEX
  5
3FF
  8
METAL
 10
-98.62919616699219
 20
-26.74407958984375
 30
0.3494873046873863
 70
   192
  0
VERTEX
  5
400
  8
METAL
 10
-98.62919616699219
 20
-26.74407958984375
 30
0.3494873046873863
 70
   192
  0
VERTEX
  5
401
  8
METAL
 10
-98.62919616699219
 20
-21.64011001586914
 30
0.3494873046873934
 70
   192
  0
VERTEX
  5
402
  8
METAL
 10
-98.62919616699219
 20
-21.64011001586914
 30
0.3494873046873934
 70
   192
  0
VERTEX
  5
403
  8
METAL
 10
-98.62919616699219
 20
-21.64011001586914
 30
0.3494873046873934
 70
   192
  0
VERTEX
  5
404
  8
METAL
 10
-98.62919616699219
 20
-21.64011001586914
 30
0.3494873046873934
 70
   192
  0
VERTEX
  5
405
  8
METAL
 10
-98.62919616699219
 20
-26.58457946777349
 30
-2.962432861328182
 70
   192
  0
VERTEX
  5
406
  8
METAL
 10
-98.62919616699219
 20
-26.58457946777349
 30
-2.962432861328182
 70
   192
  0
VERTEX
  5
407
  8
METAL
 10
-98.62919616699219
 20
-26.58457946777349
 30
-2.962432861328182
 70
   192
  0
VERTEX
  5
408
  8
METAL
 10
-98.62919616699219
 20
-26.58457946777349
 30
-2.962432861328182
 70
   192
  0
VERTEX
  5
409
  8
METAL
 10
-98.62919616699219
 20
-26.10608291625977
 30
-6.337463378906307
 70
   192
  0
VERTEX
  5
40A
  8
METAL
 10
-98.62919616699219
 20
-26.10608291625977
 30
-6.337463378906307
 70
   192
  0
VERTEX
  5
40B
  8
METAL
 10
-98.62919616699219
 20
-26.10608291625977
 30
-6.337463378906307
 70
   192
  0
VERTEX
  5
40C
  8
METAL
 10
-98.62919616699219
 20
-26.10608291625977
 30
-6.337463378906307
 70
   192
  0
VERTEX
  5
40D
  8
METAL
 10
-98.62919616699219
 20
-25.30858993530273
 30
-7.762481689453182
 70
   192
  0
VERTEX
  5
40E
  8
METAL
 10
-98.62919616699219
 20
-25.30858993530273
 30
-7.762481689453182
 70
   192
  0
VERTEX
  5
40F
  8
METAL
 10
-98.62919616699219
 20
-25.30858993530273
 30
-7.762481689453182
 70
   192
  0
VERTEX
  5
410
  8
METAL
 10
-98.62919616699219
 20
-25.30858993530273
 30
-7.762481689453182
 70
   192
  0
VERTEX
  5
411
  8
METAL
 10
-98.62919616699219
 20
-24.75034332275396
 30
-7.940612792968807
 70
   192
  0
VERTEX
  5
412
  8
METAL
 10
-98.62919616699219
 20
-24.75034332275396
 30
-7.940612792968807
 70
   192
  0
VERTEX
  5
413
  8
METAL
 10
-98.62919616699219
 20
-24.75034332275396
 30
-7.940612792968807
 70
   192
  0
VERTEX
  5
414
  8
METAL
 10
-98.62919616699219
 20
-24.75034332275396
 30
-7.940612792968807
 70
   192
  0
VERTEX
  5
415
  8
METAL
 10
-98.62921142578128
 20
-24.19209671020513
 30
8.69897460937501
 70
   192
  0
VERTEX
  5
416
  8
METAL
 10
-98.62921142578128
 20
-24.19209671020513
 30
8.69897460937501
 70
   192
  0
VERTEX
  5
417
  8
METAL
 10
-98.62921142578128
 20
-24.19209671020513
 30
8.69897460937501
 70
   192
  0
VERTEX
  5
418
  8
METAL
 10
-98.62921142578128
 20
-24.19209671020513
 30
8.69897460937501
 70
   192
  0
VERTEX
  5
419
  8
METAL
 10
-98.62921142578128
 20
-23.63385009765631
 30
8.6395874023437
 70
   192
  0
VERTEX
  5
41A
  8
METAL
 10
-98.62921142578128
 20
-23.63385009765631
 30
8.6395874023437
 70
   192
  0
VERTEX
  5
41B
  8
METAL
 10
-98.62921142578128
 20
-23.63385009765631
 30
8.6395874023437
 70
   192
  0
VERTEX
  5
41C
  8
METAL
 10
-98.62921142578128
 20
-23.63385009765631
 30
8.6395874023437
 70
   192
  0
VERTEX
  5
41D
  8
METAL
 10
-98.62921142578128
 20
-23.07560348510748
 30
8.461456298828079
 70
   192
  0
VERTEX
  5
41E
  8
METAL
 10
-98.62921142578128
 20
-23.07560348510748
 30
8.461456298828079
 70
   192
  0
VERTEX
  5
41F
  8
METAL
 10
-98.62921142578128
 20
-23.07560348510748
 30
8.461456298828079
 70
   192
  0
VERTEX
  5
420
  8
METAL
 10
-98.62921142578128
 20
-23.07560348510748
 30
8.461456298828079
 70
   192
  0
VERTEX
  5
421
  8
METAL
 10
-98.62921142578128
 20
-22.27810668945312
 30
7.0364379882812
 70
   192
  0
VERTEX
  5
422
  8
METAL
 10
-98.62921142578128
 20
-22.27810668945312
 30
7.0364379882812
 70
   192
  0
VERTEX
  5
423
  8
METAL
 10
-98.62921142578128
 20
-22.27810668945312
 30
7.0364379882812
 70
   192
  0
VERTEX
  5
424
  8
METAL
 10
-98.62921142578128
 20
-22.27810668945312
 30
7.0364379882812
 70
   192
  0
VERTEX
  5
425
  8
METAL
 10
-98.62921142578128
 20
-21.79961013793951
 30
3.661407470703081
 70
   192
  0
VERTEX
  5
426
  8
METAL
 10
-98.62921142578128
 20
-21.79961013793951
 30
3.661407470703081
 70
   192
  0
VERTEX
  5
427
  8
METAL
 10
-98.62921142578128
 20
-21.79961013793951
 30
3.661407470703081
 70
   192
  0
VERTEX
  5
428
  8
METAL
 10
-98.62921142578128
 20
-21.79961013793951
 30
3.661407470703081
 70
   192
  0
VERTEX
  5
429
  8
METAL
 10
-98.62921142578128
 20
-21.79961013793945
 30
-2.962432861328175
 70
   192
  0
VERTEX
  5
42A
  8
METAL
 10
-98.62921142578128
 20
-21.79961013793945
 30
-2.962432861328175
 70
   192
  0
VERTEX
  5
42B
  8
METAL
 10
-98.62921142578128
 20
-21.79961013793945
 30
-2.962432861328175
 70
   192
  0
VERTEX
  5
42C
  8
METAL
 10
-98.62921142578128
 20
-21.79961013793945
 30
-2.962432861328175
 70
   192
  0
VERTEX
  5
42D
  8
METAL
 10
-98.62921142578128
 20
-22.27810668945312
 30
-6.3374633789063
 70
   192
  0
VERTEX
  5
42E
  8
METAL
 10
-98.62921142578128
 20
-22.27810668945312
 30
-6.3374633789063
 70
   192
  0
VERTEX
  5
42F
  8
METAL
 10
-98.62921142578128
 20
-22.27810668945312
 30
-6.3374633789063
 70
   192
  0
VERTEX
  5
430
  8
METAL
 10
-98.62921142578128
 20
-22.27810668945312
 30
-6.3374633789063
 70
   192
  0
VERTEX
  5
431
  8
METAL
 10
-98.62921142578128
 20
-23.07560348510742
 30
-7.762481689453182
 70
   192
  0
VERTEX
  5
432
  8
METAL
 10
-98.62921142578128
 20
-23.07560348510742
 30
-7.762481689453182
 70
   192
  0
VERTEX
  5
433
  8
METAL
 10
-98.62921142578128
 20
-23.07560348510742
 30
-7.762481689453182
 70
   192
  0
VERTEX
  5
434
  8
METAL
 10
-98.62921142578128
 20
-23.07560348510742
 30
-7.762481689453182
 70
   192
  0
VERTEX
  5
435
  8
METAL
 10
-98.62921142578128
 20
-23.63385009765625
 30
-7.940612792968807
 70
   192
  0
VERTEX
  5
436
  8
METAL
 10
-98.62921142578128
 20
-23.63385009765625
 30
-7.940612792968807
 70
   192
  0
VERTEX
  5
437
  8
METAL
 10
-98.62921142578128
 20
-23.63385009765625
 30
-7.940612792968807
 70
   192
  0
VERTEX
  5
438
  8
METAL
 10
-98.62921142578128
 20
-23.63385009765625
 30
-7.940612792968807
 70
   192
  0
VERTEX
  5
439
  8
METAL
 10
-98.62921142578128
 20
-24.19209671020508
 30
-8.0
 70
   192
  0
VERTEX
  5
43A
  8
METAL
 10
-98.62921142578128
 20
-24.19209671020508
 30
-8.0
 70
   192
  0
VERTEX
  5
43B
  8
METAL
 10
-98.62921142578128
 20
-24.19209671020508
 30
-8.0
 70
   192
  0
VERTEX
  5
43C
  8
METAL
 10
-98.62921142578128
 20
-24.19209671020508
 30
-8.0
 70
   192
  0
VERTEX
  5
43D
  8
METAL
 10
-113.2953186035157
 20
-21.43563461303717
 30
8.69897460937501
 70
   192
  0
VERTEX
  5
43E
  8
METAL
 10
-113.2953186035157
 20
-21.43563461303717
 30
8.69897460937501
 70
   192
  0
VERTEX
  5
43F
  8
METAL
 10
-113.2953186035157
 20
-21.43563461303717
 30
8.69897460937501
 70
   192
  0
VERTEX
  5
440
  8
METAL
 10
-113.2953186035157
 20
-21.43563461303717
 30
8.69897460937501
 70
   192
  0
VERTEX
  5
441
  8
METAL
 10
-113.2953186035157
 20
-21.99388122558599
 30
8.6395874023437
 70
   192
  0
VERTEX
  5
442
  8
METAL
 10
-113.2953186035157
 20
-21.99388122558599
 30
8.6395874023437
 70
   192
  0
VERTEX
  5
443
  8
METAL
 10
-113.2953186035157
 20
-21.99388122558599
 30
8.6395874023437
 70
   192
  0
VERTEX
  5
444
  8
METAL
 10
-113.2953186035157
 20
-21.99388122558599
 30
8.6395874023437
 70
   192
  0
VERTEX
  5
445
  8
METAL
 10
-113.2953186035157
 20
-20.87738800048834
 30
8.6395874023437
 70
   192
  0
VERTEX
  5
446
  8
METAL
 10
-113.2953186035157
 20
-20.87738800048834
 30
8.6395874023437
 70
   192
  0
VERTEX
  5
447
  8
METAL
 10
-113.2953186035157
 20
-20.87738800048834
 30
8.6395874023437
 70
   192
  0
VERTEX
  5
448
  8
METAL
 10
-113.2953186035157
 20
-20.87738800048834
 30
8.6395874023437
 70
   192
  0
VERTEX
  5
449
  8
METAL
 10
-113.2953186035157
 20
-22.55212783813477
 30
8.461456298828079
 70
   192
  0
VERTEX
  5
44A
  8
METAL
 10
-113.2953186035157
 20
-22.55212783813477
 30
8.461456298828079
 70
   192
  0
VERTEX
  5
44B
  8
METAL
 10
-113.2953186035157
 20
-22.55212783813477
 30
8.461456298828079
 70
   192
  0
VERTEX
  5
44C
  8
METAL
 10
-113.2953186035157
 20
-22.55212783813477
 30
8.461456298828079
 70
   192
  0
VERTEX
  5
44D
  8
METAL
 10
-113.2953186035157
 20
-20.31914138793951
 30
8.461456298828079
 70
   192
  0
VERTEX
  5
44E
  8
METAL
 10
-113.2953186035157
 20
-20.31914138793951
 30
8.461456298828079
 70
   192
  0
VERTEX
  5
44F
  8
METAL
 10
-113.2953186035157
 20
-20.31914138793951
 30
8.461456298828079
 70
   192
  0
VERTEX
  5
450
  8
METAL
 10
-113.2953186035157
 20
-20.31914138793951
 30
8.461456298828079
 70
   192
  0
VERTEX
  5
451
  8
METAL
 10
-113.2953186035157
 20
-23.34962081909185
 30
7.0364379882812
 70
   192
  0
VERTEX
  5
452
  8
METAL
 10
-113.2953186035157
 20
-23.34962081909185
 30
7.0364379882812
 70
   192
  0
VERTEX
  5
453
  8
METAL
 10
-113.2953186035157
 20
-23.34962081909185
 30
7.0364379882812
 70
   192
  0
VERTEX
  5
454
  8
METAL
 10
-113.2953186035157
 20
-23.34962081909185
 30
7.0364379882812
 70
   192
  0
VERTEX
  5
455
  8
METAL
 10
-113.2953186035157
 20
-19.52164459228516
 30
7.0364379882812
 70
   192
  0
VERTEX
  5
456
  8
METAL
 10
-113.2953186035157
 20
-19.52164459228516
 30
7.0364379882812
 70
   192
  0
VERTEX
  5
457
  8
METAL
 10
-113.2953186035157
 20
-19.52164459228516
 30
7.0364379882812
 70
   192
  0
VERTEX
  5
458
  8
METAL
 10
-113.2953186035157
 20
-19.52164459228516
 30
7.0364379882812
 70
   192
  0
VERTEX
  5
459
  8
METAL
 10
-113.2953186035157
 20
-23.82811737060553
 30
3.661407470703081
 70
   192
  0
VERTEX
  5
45A
  8
METAL
 10
-113.2953186035157
 20
-23.82811737060553
 30
3.661407470703081
 70
   192
  0
VERTEX
  5
45B
  8
METAL
 10
-113.2953186035157
 20
-23.82811737060553
 30
3.661407470703081
 70
   192
  0
VERTEX
  5
45C
  8
METAL
 10
-113.2953186035157
 20
-23.82811737060553
 30
3.661407470703081
 70
   192
  0
VERTEX
  5
45D
  8
METAL
 10
-113.2953186035157
 20
-19.04314804077154
 30
3.661407470703081
 70
   192
  0
VERTEX
  5
45E
  8
METAL
 10
-113.2953186035157
 20
-19.04314804077154
 30
3.661407470703081
 70
   192
  0
VERTEX
  5
45F
  8
METAL
 10
-113.2953186035157
 20
-19.04314804077154
 30
3.661407470703081
 70
   192
  0
VERTEX
  5
460
  8
METAL
 10
-113.2953186035157
 20
-19.04314804077154
 30
3.661407470703081
 70
   192
  0
VERTEX
  5
461
  8
METAL
 10
-113.2953186035157
 20
-23.98761749267578
 30
0.3494873046873934
 70
   192
  0
VERTEX
  5
462
  8
METAL
 10
-113.2953186035157
 20
-23.98761749267578
 30
0.3494873046873934
 70
   192
  0
VERTEX
  5
463
  8
METAL
 10
-113.2953186035157
 20
-23.98761749267578
 30
0.3494873046873934
 70
   192
  0
VERTEX
  5
464
  8
METAL
 10
-113.2953186035157
 20
-23.98761749267578
 30
0.3494873046873934
 70
   192
  0
VERTEX
  5
465
  8
METAL
 10
-113.2953186035157
 20
-18.88365173339849
 30
0.3494873046873934
 70
   192
  0
VERTEX
  5
466
  8
METAL
 10
-113.2953186035157
 20
-18.88365173339849
 30
0.3494873046873934
 70
   192
  0
VERTEX
  5
467
  8
METAL
 10
-113.2953186035157
 20
-18.88365173339849
 30
0.3494873046873934
 70
   192
  0
VERTEX
  5
468
  8
METAL
 10
-113.2953186035157
 20
-18.88365173339849
 30
0.3494873046873934
 70
   192
  0
VERTEX
  5
469
  8
METAL
 10
-113.2953186035157
 20
-23.82811737060547
 30
-2.962432861328175
 70
   192
  0
VERTEX
  5
46A
  8
METAL
 10
-113.2953186035157
 20
-23.82811737060547
 30
-2.962432861328175
 70
   192
  0
VERTEX
  5
46B
  8
METAL
 10
-113.2953186035157
 20
-23.82811737060547
 30
-2.962432861328175
 70
   192
  0
VERTEX
  5
46C
  8
METAL
 10
-113.2953186035157
 20
-23.82811737060547
 30
-2.962432861328175
 70
   192
  0
VERTEX
  5
46D
  8
METAL
 10
-113.2953186035157
 20
-19.04314804077148
 30
-2.962432861328175
 70
   192
  0
VERTEX
  5
46E
  8
METAL
 10
-113.2953186035157
 20
-19.04314804077148
 30
-2.962432861328175
 70
   192
  0
VERTEX
  5
46F
  8
METAL
 10
-113.2953186035157
 20
-19.04314804077148
 30
-2.962432861328175
 70
   192
  0
VERTEX
  5
470
  8
METAL
 10
-113.2953186035157
 20
-19.04314804077148
 30
-2.962432861328175
 70
   192
  0
VERTEX
  5
471
  8
METAL
 10
-113.2953186035157
 20
-23.34962081909185
 30
-6.3374633789063
 70
   192
  0
VERTEX
  5
472
  8
METAL
 10
-113.2953186035157
 20
-23.34962081909185
 30
-6.3374633789063
 70
   192
  0
VERTEX
  5
473
  8
METAL
 10
-113.2953186035157
 20
-23.34962081909185
 30
-6.3374633789063
 70
   192
  0
VERTEX
  5
474
  8
METAL
 10
-113.2953186035157
 20
-23.34962081909185
 30
-6.3374633789063
 70
   192
  0
VERTEX
  5
475
  8
METAL
 10
-113.2953186035157
 20
-19.52164459228516
 30
-6.3374633789063
 70
   192
  0
VERTEX
  5
476
  8
METAL
 10
-113.2953186035157
 20
-19.52164459228516
 30
-6.3374633789063
 70
   192
  0
VERTEX
  5
477
  8
METAL
 10
-113.2953186035157
 20
-19.52164459228516
 30
-6.3374633789063
 70
   192
  0
VERTEX
  5
478
  8
METAL
 10
-113.2953186035157
 20
-19.52164459228516
 30
-6.3374633789063
 70
   192
  0
VERTEX
  5
479
  8
METAL
 10
-113.2953186035157
 20
-22.55212783813477
 30
-7.762481689453182
 70
   192
  0
VERTEX
  5
47A
  8
METAL
 10
-113.2953186035157
 20
-22.55212783813477
 30
-7.762481689453182
 70
   192
  0
VERTEX
  5
47B
  8
METAL
 10
-113.2953186035157
 20
-22.55212783813477
 30
-7.762481689453182
 70
   192
  0
VERTEX
  5
47C
  8
METAL
 10
-113.2953186035157
 20
-22.55212783813477
 30
-7.762481689453182
 70
   192
  0
VERTEX
  5
47D
  8
METAL
 10
-113.2953186035157
 20
-20.31914138793945
 30
-7.762481689453182
 70
   192
  0
VERTEX
  5
47E
  8
METAL
 10
-113.2953186035157
 20
-20.31914138793945
 30
-7.762481689453182
 70
   192
  0
VERTEX
  5
47F
  8
METAL
 10
-113.2953186035157
 20
-20.31914138793945
 30
-7.762481689453182
 70
   192
  0
VERTEX
  5
480
  8
METAL
 10
-113.2953186035157
 20
-20.31914138793945
 30
-7.762481689453182
 70
   192
  0
VERTEX
  5
481
  8
METAL
 10
-113.2953186035157
 20
-21.99388122558599
 30
-7.940612792968807
 70
   192
  0
VERTEX
  5
482
  8
METAL
 10
-113.2953186035157
 20
-21.99388122558599
 30
-7.940612792968807
 70
   192
  0
VERTEX
  5
483
  8
METAL
 10
-113.2953186035157
 20
-21.99388122558599
 30
-7.940612792968807
 70
   192
  0
VERTEX
  5
484
  8
METAL
 10
-113.2953186035157
 20
-21.99388122558599
 30
-7.940612792968807
 70
   192
  0
VERTEX
  5
485
  8
METAL
 10
-113.2953186035157
 20
-20.87738800048828
 30
-7.940612792968807
 70
   192
  0
VERTEX
  5
486
  8
METAL
 10
-113.2953186035157
 20
-20.87738800048828
 30
-7.940612792968807
 70
   192
  0
VERTEX
  5
487
  8
METAL
 10
-113.2953186035157
 20
-20.87738800048828
 30
-7.940612792968807
 70
   192
  0
VERTEX
  5
488
  8
METAL
 10
-113.2953186035157
 20
-20.87738800048828
 30
-7.940612792968807
 70
   192
  0
VERTEX
  5
489
  8
METAL
 10
-113.2953186035157
 20
-21.43563461303711
 30
-8.0
 70
   192
  0
VERTEX
  5
48A
  8
METAL
 10
-113.2953186035157
 20
-21.43563461303711
 30
-8.0
 70
   192
  0
VERTEX
  5
48B
  8
METAL
 10
-113.2953186035157
 20
-21.43563461303711
 30
-8.0
 70
   192
  0
VERTEX
  5
48C
  8
METAL
 10
-113.2953186035157
 20
-21.43563461303711
 30
-8.0
 70
   192
  0
VERTEX
  5
48D
  8
METAL
 10
-126.842758178711
 20
-17.18097686767584
 30
8.69897460937501
 70
   192
  0
VERTEX
  5
48E
  8
METAL
 10
-126.842758178711
 20
-17.18097686767584
 30
8.69897460937501
 70
   192
  0
VERTEX
  5
48F
  8
METAL
 10
-126.842758178711
 20
-17.18097686767584
 30
8.69897460937501
 70
   192
  0
VERTEX
  5
490
  8
METAL
 10
-126.842758178711
 20
-17.18097686767584
 30
8.69897460937501
 70
   192
  0
VERTEX
  5
491
  8
METAL
 10
-126.842758178711
 20
-17.73922348022467
 30
8.6395874023437
 70
   192
  0
VERTEX
  5
492
  8
METAL
 10
-126.842758178711
 20
-17.73922348022467
 30
8.6395874023437
 70
   192
  0
VERTEX
  5
493
  8
METAL
 10
-126.842758178711
 20
-17.73922348022467
 30
8.6395874023437
 70
   192
  0
VERTEX
  5
494
  8
METAL
 10
-126.842758178711
 20
-17.73922348022467
 30
8.6395874023437
 70
   192
  0
VERTEX
  5
495
  8
METAL
 10
-126.842758178711
 20
-16.62273025512701
 30
8.6395874023437
 70
   192
  0
VERTEX
  5
496
  8
METAL
 10
-126.842758178711
 20
-16.62273025512701
 30
8.6395874023437
 70
   192
  0
VERTEX
  5
497
  8
METAL
 10
-126.842758178711
 20
-16.62273025512701
 30
8.6395874023437
 70
   192
  0
VERTEX
  5
498
  8
METAL
 10
-126.842758178711
 20
-16.62273025512701
 30
8.6395874023437
 70
   192
  0
VERTEX
  5
499
  8
METAL
 10
-126.842758178711
 20
-18.29747009277349
 30
8.461456298828079
 70
   192
  0
VERTEX
  5
49A
  8
METAL
 10
-126.842758178711
 20
-18.29747009277349
 30
8.461456298828079
 70
   192
  0
VERTEX
  5
49B
  8
METAL
 10
-126.842758178711
 20
-18.29747009277349
 30
8.461456298828079
 70
   192
  0
VERTEX
  5
49C
  8
METAL
 10
-126.842758178711
 20
-18.29747009277349
 30
8.461456298828079
 70
   192
  0
VERTEX
  5
49D
  8
METAL
 10
-126.842758178711
 20
-16.06448364257812
 30
8.461456298828079
 70
   192
  0
VERTEX
  5
49E
  8
METAL
 10
-126.842758178711
 20
-16.06448364257812
 30
8.461456298828079
 70
   192
  0
VERTEX
  5
49F
  8
METAL
 10
-126.842758178711
 20
-16.06448364257812
 30
8.461456298828079
 70
   192
  0
VERTEX
  5
4A0
  8
METAL
 10
-126.842758178711
 20
-16.06448364257812
 30
8.461456298828079
 70
   192
  0
VERTEX
  5
4A1
  8
METAL
 10
-126.842758178711
 20
-19.09496688842779
 30
7.0364379882812
 70
   192
  0
VERTEX
  5
4A2
  8
METAL
 10
-126.842758178711
 20
-19.09496688842779
 30
7.0364379882812
 70
   192
  0
VERTEX
  5
4A3
  8
METAL
 10
-126.842758178711
 20
-19.09496688842779
 30
7.0364379882812
 70
   192
  0
VERTEX
  5
4A4
  8
METAL
 10
-126.842758178711
 20
-19.09496688842779
 30
7.0364379882812
 70
   192
  0
VERTEX
  5
4A5
  8
METAL
 10
-126.842758178711
 20
-15.26698684692388
 30
7.0364379882812
 70
   192
  0
VERTEX
  5
4A6
  8
METAL
 10
-126.842758178711
 20
-15.26698684692388
 30
7.0364379882812
 70
   192
  0
VERTEX
  5
4A7
  8
METAL
 10
-126.842758178711
 20
-15.26698684692388
 30
7.0364379882812
 70
   192
  0
VERTEX
  5
4A8
  8
METAL
 10
-126.842758178711
 20
-15.26698684692388
 30
7.0364379882812
 70
   192
  0
VERTEX
  5
4A9
  8
METAL
 10
-126.842758178711
 20
-19.57346343994146
 30
3.661407470703081
 70
   192
  0
VERTEX
  5
4AA
  8
METAL
 10
-126.842758178711
 20
-19.57346343994146
 30
3.661407470703081
 70
   192
  0
VERTEX
  5
4AB
  8
METAL
 10
-126.842758178711
 20
-19.57346343994146
 30
3.661407470703081
 70
   192
  0
VERTEX
  5
4AC
  8
METAL
 10
-126.842758178711
 20
-19.57346343994146
 30
3.661407470703081
 70
   192
  0
VERTEX
  5
4AD
  8
METAL
 10
-126.842758178711
 20
-14.78849029541016
 30
3.661407470703081
 70
   192
  0
VERTEX
  5
4AE
  8
METAL
 10
-126.842758178711
 20
-14.78849029541016
 30
3.661407470703081
 70
   192
  0
VERTEX
  5
4AF
  8
METAL
 10
-126.842758178711
 20
-14.78849029541016
 30
3.661407470703081
 70
   192
  0
VERTEX
  5
4B0
  8
METAL
 10
-126.842758178711
 20
-14.78849029541016
 30
3.661407470703081
 70
   192
  0
VERTEX
  5
4B1
  8
METAL
 10
-126.842758178711
 20
-19.73295974731445
 30
0.3494873046873934
 70
   192
  0
VERTEX
  5
4B2
  8
METAL
 10
-126.842758178711
 20
-19.73295974731445
 30
0.3494873046873934
 70
   192
  0
VERTEX
  5
4B3
  8
METAL
 10
-126.842758178711
 20
-19.73295974731445
 30
0.3494873046873934
 70
   192
  0
VERTEX
  5
4B4
  8
METAL
 10
-126.842758178711
 20
-19.73295974731445
 30
0.3494873046873934
 70
   192
  0
VERTEX
  5
4B5
  8
METAL
 10
-126.842758178711
 20
-14.62899398803711
 30
0.3494873046873934
 70
   192
  0
VERTEX
  5
4B6
  8
METAL
 10
-126.842758178711
 20
-14.62899398803711
 30
0.3494873046873934
 70
   192
  0
VERTEX
  5
4B7
  8
METAL
 10
-126.842758178711
 20
-14.62899398803711
 30
0.3494873046873934
 70
   192
  0
VERTEX
  5
4B8
  8
METAL
 10
-126.842758178711
 20
-14.62899398803711
 30
0.3494873046873934
 70
   192
  0
VERTEX
  5
4B9
  8
METAL
 10
-126.842758178711
 20
-19.57346343994146
 30
-2.962432861328175
 70
   192
  0
VERTEX
  5
4BA
  8
METAL
 10
-126.842758178711
 20
-19.57346343994146
 30
-2.962432861328175
 70
   192
  0
VERTEX
  5
4BB
  8
METAL
 10
-126.842758178711
 20
-19.57346343994146
 30
-2.962432861328175
 70
   192
  0
VERTEX
  5
4BC
  8
METAL
 10
-126.842758178711
 20
-19.57346343994146
 30
-2.962432861328175
 70
   192
  0
VERTEX
  5
4BD
  8
METAL
 10
-126.842758178711
 20
-14.78849029541016
 30
-2.962432861328175
 70
   192
  0
VERTEX
  5
4BE
  8
METAL
 10
-126.842758178711
 20
-14.78849029541016
 30
-2.962432861328175
 70
   192
  0
VERTEX
  5
4BF
  8
METAL
 10
-126.842758178711
 20
-14.78849029541016
 30
-2.962432861328175
 70
   192
  0
VERTEX
  5
4C0
  8
METAL
 10
-126.842758178711
 20
-14.78849029541016
 30
-2.962432861328175
 70
   192
  0
VERTEX
  5
4C1
  8
METAL
 10
-126.842758178711
 20
-19.09496307373047
 30
-6.3374633789063
 70
   192
  0
VERTEX
  5
4C2
  8
METAL
 10
-126.842758178711
 20
-19.09496307373047
 30
-6.3374633789063
 70
   192
  0
VERTEX
  5
4C3
  8
METAL
 10
-126.842758178711
 20
-19.09496307373047
 30
-6.3374633789063
 70
   192
  0
VERTEX
  5
4C4
  8
METAL
 10
-126.842758178711
 20
-19.09496307373047
 30
-6.3374633789063
 70
   192
  0
VERTEX
  5
4C5
  8
METAL
 10
-126.842758178711
 20
-15.26699066162109
 30
-6.3374633789063
 70
   192
  0
VERTEX
  5
4C6
  8
METAL
 10
-126.842758178711
 20
-15.26699066162109
 30
-6.3374633789063
 70
   192
  0
VERTEX
  5
4C7
  8
METAL
 10
-126.842758178711
 20
-15.26699066162109
 30
-6.3374633789063
 70
   192
  0
VERTEX
  5
4C8
  8
METAL
 10
-126.842758178711
 20
-15.26699066162109
 30
-6.3374633789063
 70
   192
  0
VERTEX
  5
4C9
  8
METAL
 10
-126.842758178711
 20
-18.29747009277349
 30
-7.762481689453182
 70
   192
  0
VERTEX
  5
4CA
  8
METAL
 10
-126.842758178711
 20
-18.29747009277349
 30
-7.762481689453182
 70
   192
  0
VERTEX
  5
4CB
  8
METAL
 10
-126.842758178711
 20
-18.29747009277349
 30
-7.762481689453182
 70
   192
  0
VERTEX
  5
4CC
  8
METAL
 10
-126.842758178711
 20
-18.29747009277349
 30
-7.762481689453182
 70
   192
  0
VERTEX
  5
4CD
  8
METAL
 10
-126.842758178711
 20
-16.06448364257812
 30
-7.762481689453182
 70
   192
  0
VERTEX
  5
4CE
  8
METAL
 10
-126.842758178711
 20
-16.06448364257812
 30
-7.762481689453182
 70
   192
  0
VERTEX
  5
4CF
  8
METAL
 10
-126.842758178711
 20
-16.06448364257812
 30
-7.762481689453182
 70
   192
  0
VERTEX
  5
4D0
  8
METAL
 10
-126.842758178711
 20
-16.06448364257812
 30
-7.762481689453182
 70
   192
  0
VERTEX
  5
4D1
  8
METAL
 10
-126.842758178711
 20
-17.73922348022461
 30
-7.940612792968807
 70
   192
  0
VERTEX
  5
4D2
  8
METAL
 10
-126.842758178711
 20
-17.73922348022461
 30
-7.940612792968807
 70
   192
  0
VERTEX
  5
4D3
  8
METAL
 10
-126.842758178711
 20
-17.73922348022461
 30
-7.940612792968807
 70
   192
  0
VERTEX
  5
4D4
  8
METAL
 10
-126.842758178711
 20
-17.73922348022461
 30
-7.940612792968807
 70
   192
  0
VERTEX
  5
4D5
  8
METAL
 10
-126.842758178711
 20
-16.62273025512695
 30
-7.940612792968807
 70
   192
  0
VERTEX
  5
4D6
  8
METAL
 10
-126.842758178711
 20
-16.62273025512695
 30
-7.940612792968807
 70
   192
  0
VERTEX
  5
4D7
  8
METAL
 10
-126.842758178711
 20
-16.62273025512695
 30
-7.940612792968807
 70
   192
  0
VERTEX
  5
4D8
  8
METAL
 10
-126.842758178711
 20
-16.62273025512695
 30
-7.940612792968807
 70
   192
  0
VERTEX
  5
4D9
  8
METAL
 10
-126.842758178711
 20
-17.18097686767578
 30
-7.999969482421932
 70
   192
  0
VERTEX
  5
4DA
  8
METAL
 10
-126.842758178711
 20
-17.18097686767578
 30
-7.999969482421932
 70
   192
  0
VERTEX
  5
4DB
  8
METAL
 10
-126.842758178711
 20
-17.18097686767578
 30
-7.999969482421932
 70
   192
  0
VERTEX
  5
4DC
  8
METAL
 10
-126.842758178711
 20
-17.18097686767578
 30
-7.999969482421932
 70
   192
  0
VERTEX
  5
4DD
  8
METAL
 10
-127.379638671875
 20
-17.16963195800787
 30
8.585357666015579
 70
   192
  0
VERTEX
  5
4DE
  8
METAL
 10
-127.379638671875
 20
-17.16963195800787
 30
8.585357666015579
 70
   192
  0
VERTEX
  5
4DF
  8
METAL
 10
-127.379638671875
 20
-17.16963195800787
 30
8.585357666015579
 70
   192
  0
VERTEX
  5
4E0
  8
METAL
 10
-127.379638671875
 20
-17.16963195800787
 30
8.585357666015579
 70
   192
  0
VERTEX
  5
4E1
  8
METAL
 10
-127.379638671875
 20
-17.16963195800781
 30
-7.886383056640682
 70
   192
  0
VERTEX
  5
4E2
  8
METAL
 10
-127.379638671875
 20
-17.16963195800781
 30
-7.886383056640682
 70
   192
  0
VERTEX
  5
4E3
  8
METAL
 10
-127.379638671875
 20
-17.16963195800781
 30
-7.886383056640682
 70
   192
  0
VERTEX
  5
4E4
  8
METAL
 10
-127.379638671875
 20
-17.16963195800781
 30
-7.886383056640682
 70
   192
  0
VERTEX
  5
4E5
  8
METAL
 10
-127.3853912353516
 20
-19.61305618286133
 30
0.3494873046873934
 70
   192
  0
VERTEX
  5
4E6
  8
METAL
 10
-127.3853912353516
 20
-19.61305618286133
 30
0.3494873046873934
 70
   192
  0
VERTEX
  5
4E7
  8
METAL
 10
-127.3853912353516
 20
-19.61305618286133
 30
0.3494873046873934
 70
   192
  0
VERTEX
  5
4E8
  8
METAL
 10
-127.3853912353516
 20
-19.61305618286133
 30
0.3494873046873934
 70
   192
  0
VERTEX
  5
4E9
  8
METAL
 10
-127.3853912353516
 20
-14.72621154785156
 30
0.3494873046873934
 70
   192
  0
VERTEX
  5
4EA
  8
METAL
 10
-127.3853912353516
 20
-14.72621154785156
 30
0.3494873046873934
 70
   192
  0
VERTEX
  5
4EB
  8
METAL
 10
-127.3853912353516
 20
-14.72621154785156
 30
0.3494873046873934
 70
   192
  0
VERTEX
  5
4EC
  8
METAL
 10
-127.3853912353516
 20
-14.72621154785156
 30
0.3494873046873934
 70
   192
  0
VERTEX
  5
4ED
  8
METAL
 10
-127.3858795166016
 20
-19.45985412597662
 30
3.62634277343739
 70
   192
  0
VERTEX
  5
4EE
  8
METAL
 10
-127.3858795166016
 20
-19.45985412597662
 30
3.62634277343739
 70
   192
  0
VERTEX
  5
4EF
  8
METAL
 10
-127.3858795166016
 20
-19.45985412597662
 30
3.62634277343739
 70
   192
  0
VERTEX
  5
4F0
  8
METAL
 10
-127.3858795166016
 20
-19.45985412597662
 30
3.62634277343739
 70
   192
  0
VERTEX
  5
4F1
  8
METAL
 10
-127.3858795166016
 20
-14.87941741943365
 30
3.62634277343739
 70
   192
  0
VERTEX
  5
4F2
  8
METAL
 10
-127.3858795166016
 20
-14.87941741943365
 30
3.62634277343739
 70
   192
  0
VERTEX
  5
4F3
  8
METAL
 10
-127.3858795166016
 20
-14.87941741943365
 30
3.62634277343739
 70
   192
  0
VERTEX
  5
4F4
  8
METAL
 10
-127.3858795166016
 20
-14.87941741943365
 30
3.62634277343739
 70
   192
  0
VERTEX
  5
4F5
  8
METAL
 10
-127.3858795166016
 20
-19.45985412597656
 30
-2.927368164062607
 70
   192
  0
VERTEX
  5
4F6
  8
METAL
 10
-127.3858795166016
 20
-19.45985412597656
 30
-2.927368164062607
 70
   192
  0
VERTEX
  5
4F7
  8
METAL
 10
-127.3858795166016
 20
-19.45985412597656
 30
-2.927368164062607
 70
   192
  0
VERTEX
  5
4F8
  8
METAL
 10
-127.3858795166016
 20
-19.45985412597656
 30
-2.927368164062607
 70
   192
  0
VERTEX
  5
4F9
  8
METAL
 10
-127.3858795166016
 20
-14.87941741943359
 30
-2.927368164062607
 70
   192
  0
VERTEX
  5
4FA
  8
METAL
 10
-127.3858795166016
 20
-14.87941741943359
 30
-2.927368164062607
 70
   192
  0
VERTEX
  5
4FB
  8
METAL
 10
-127.3858795166016
 20
-14.87941741943359
 30
-2.927368164062607
 70
   192
  0
VERTEX
  5
4FC
  8
METAL
 10
-127.3858795166016
 20
-14.87941741943359
 30
-2.927368164062607
 70
   192
  0
VERTEX
  5
4FD
  8
METAL
 10
-127.3891906738282
 20
-18.99911499023438
 30
6.974212646484331
 70
   192
  0
VERTEX
  5
4FE
  8
METAL
 10
-127.3891906738282
 20
-18.99911499023438
 30
6.974212646484331
 70
   192
  0
VERTEX
  5
4FF
  8
METAL
 10
-127.3891906738282
 20
-18.99911499023438
 30
6.974212646484331
 70
   192
  0
VERTEX
  5
500
  8
METAL
 10
-127.3891906738282
 20
-18.99911499023438
 30
6.974212646484331
 70
   192
  0
VERTEX
  5
501
  8
METAL
 10
-127.3891906738282
 20
-15.34015274047852
 30
6.974212646484331
 70
   192
  0
VERTEX
  5
502
  8
METAL
 10
-127.3891906738282
 20
-15.34015274047852
 30
6.974212646484331
 70
   192
  0
VERTEX
  5
503
  8
METAL
 10
-127.3891906738282
 20
-15.34015274047852
 30
6.974212646484331
 70
   192
  0
VERTEX
  5
504
  8
METAL
 10
-127.3891906738282
 20
-15.34015274047852
 30
6.974212646484331
 70
   192
  0
VERTEX
  5
505
  8
METAL
 10
-127.3891906738282
 20
-18.99911499023438
 30
-6.275238037109425
 70
   192
  0
VERTEX
  5
506
  8
METAL
 10
-127.3891906738282
 20
-18.99911499023438
 30
-6.275238037109425
 70
   192
  0
VERTEX
  5
507
  8
METAL
 10
-127.3891906738282
 20
-18.99911499023438
 30
-6.275238037109425
 70
   192
  0
VERTEX
  5
508
  8
METAL
 10
-127.3891906738282
 20
-18.99911499023438
 30
-6.275238037109425
 70
   192
  0
VERTEX
  5
509
  8
METAL
 10
-127.3891906738282
 20
-15.34015274047852
 30
-6.275238037109425
 70
   192
  0
VERTEX
  5
50A
  8
METAL
 10
-127.3891906738282
 20
-15.34015274047852
 30
-6.275238037109425
 70
   192
  0
VERTEX
  5
50B
  8
METAL
 10
-127.3891906738282
 20
-15.34015274047852
 30
-6.275238037109425
 70
   192
  0
VERTEX
  5
50C
  8
METAL
 10
-127.3891906738282
 20
-15.34015274047852
 30
-6.275238037109425
 70
   192
  0
VERTEX
  5
50D
  8
METAL
 10
-127.3950347900391
 20
-17.72788238525396
 30
8.54077148437501
 70
   192
  0
VERTEX
  5
50E
  8
METAL
 10
-127.3950347900391
 20
-17.72788238525396
 30
8.54077148437501
 70
   192
  0
VERTEX
  5
50F
  8
METAL
 10
-127.3950347900391
 20
-17.72788238525396
 30
8.54077148437501
 70
   192
  0
VERTEX
  5
510
  8
METAL
 10
-127.3950347900391
 20
-17.72788238525396
 30
8.54077148437501
 70
   192
  0
VERTEX
  5
511
  8
METAL
 10
-127.3950347900391
 20
-16.61138916015631
 30
8.54077148437501
 70
   192
  0
VERTEX
  5
512
  8
METAL
 10
-127.3950347900391
 20
-16.61138916015631
 30
8.54077148437501
 70
   192
  0
VERTEX
  5
513
  8
METAL
 10
-127.3950347900391
 20
-16.61138916015631
 30
8.54077148437501
 70
   192
  0
VERTEX
  5
514
  8
METAL
 10
-127.3950347900391
 20
-16.61138916015631
 30
8.54077148437501
 70
   192
  0
VERTEX
  5
515
  8
METAL
 10
-127.3950347900391
 20
-17.72788238525396
 30
-7.841796875
 70
   192
  0
VERTEX
  5
516
  8
METAL
 10
-127.3950347900391
 20
-17.72788238525396
 30
-7.841796875
 70
   192
  0
VERTEX
  5
517
  8
METAL
 10
-127.3950347900391
 20
-17.72788238525396
 30
-7.841796875
 70
   192
  0
VERTEX
  5
518
  8
METAL
 10
-127.3950347900391
 20
-17.72788238525396
 30
-7.841796875
 70
   192
  0
VERTEX
  5
519
  8
METAL
 10
-127.3950347900391
 20
-16.61138916015625
 30
-7.841796875
 70
   192
  0
VERTEX
  5
51A
  8
METAL
 10
-127.3950347900391
 20
-16.61138916015625
 30
-7.841796875
 70
   192
  0
VERTEX
  5
51B
  8
METAL
 10
-127.3950347900391
 20
-16.61138916015625
 30
-7.841796875
 70
   192
  0
VERTEX
  5
51C
  8
METAL
 10
-127.3950347900391
 20
-16.61138916015625
 30
-7.841796875
 70
   192
  0
VERTEX
  5
51D
  8
METAL
 10
-127.3957977294922
 20
-18.23369598388678
 30
8.378692626953079
 70
   192
  0
VERTEX
  5
51E
  8
METAL
 10
-127.3957977294922
 20
-18.23369598388678
 30
8.378692626953079
 70
   192
  0
VERTEX
  5
51F
  8
METAL
 10
-127.3957977294922
 20
-18.23369598388678
 30
8.378692626953079
 70
   192
  0
VERTEX
  5
520
  8
METAL
 10
-127.3957977294922
 20
-18.23369598388678
 30
8.378692626953079
 70
   192
  0
VERTEX
  5
521
  8
METAL
 10
-127.3957977294922
 20
-16.10557556152349
 30
8.378692626953079
 70
   192
  0
VERTEX
  5
522
  8
METAL
 10
-127.3957977294922
 20
-16.10557556152349
 30
8.378692626953079
 70
   192
  0
VERTEX
  5
523
  8
METAL
 10
-127.3957977294922
 20
-16.10557556152349
 30
8.378692626953079
 70
   192
  0
VERTEX
  5
524
  8
METAL
 10
-127.3957977294922
 20
-16.10557556152349
 30
8.378692626953079
 70
   192
  0
VERTEX
  5
525
  8
METAL
 10
-127.3957977294922
 20
-18.23369598388672
 30
-7.679718017578175
 70
   192
  0
VERTEX
  5
526
  8
METAL
 10
-127.3957977294922
 20
-18.23369598388672
 30
-7.679718017578175
 70
   192
  0
VERTEX
  5
527
  8
METAL
 10
-127.3957977294922
 20
-18.23369598388672
 30
-7.679718017578175
 70
   192
  0
VERTEX
  5
528
  8
METAL
 10
-127.3957977294922
 20
-18.23369598388672
 30
-7.679718017578175
 70
   192
  0
VERTEX
  5
529
  8
METAL
 10
-127.3957977294922
 20
-16.10557556152349
 30
-7.679718017578175
 70
   192
  0
VERTEX
  5
52A
  8
METAL
 10
-127.3957977294922
 20
-16.10557556152349
 30
-7.679718017578175
 70
   192
  0
VERTEX
  5
52B
  8
METAL
 10
-127.3957977294922
 20
-16.10557556152349
 30
-7.679718017578175
 70
   192
  0
VERTEX
  5
52C
  8
METAL
 10
-127.3957977294922
 20
-16.10557556152349
 30
-7.679718017578175
 70
   192
  0
VERTEX
  5
52D
  8
METAL
 10
-127.8098907470704
 20
-17.1658554077149
 30
8.2445678710937
 70
   192
  0
VERTEX
  5
52E
  8
METAL
 10
-127.8098907470704
 20
-17.1658554077149
 30
8.2445678710937
 70
   192
  0
VERTEX
  5
52F
  8
METAL
 10
-127.8098907470704
 20
-17.1658554077149
 30
8.2445678710937
 70
   192
  0
VERTEX
  5
530
  8
METAL
 10
-127.8098907470704
 20
-17.16585540771484
 30
-7.5455932617188
 70
   192
  0
VERTEX
  5
531
  8
METAL
 10
-127.8098907470704
 20
-17.16585540771484
 30
-7.5455932617188
 70
   192
  0
VERTEX
  5
532
  8
METAL
 10
-127.8098907470704
 20
-17.16585540771484
 30
-7.5455932617188
 70
   192
  0
VERTEX
  5
533
  8
METAL
 10
-127.8329315185547
 20
-19.28359222412109
 30
0.3494873046873934
 70
   192
  0
VERTEX
  5
534
  8
METAL
 10
-127.8329315185547
 20
-19.28359222412109
 30
0.3494873046873934
 70
   192
  0
VERTEX
  5
535
  8
METAL
 10
-127.8329315185547
 20
-19.28359222412109
 30
0.3494873046873934
 70
   192
  0
VERTEX
  5
536
  8
METAL
 10
-127.8329315185547
 20
-15.04811477661133
 30
0.3494873046873934
 70
   192
  0
VERTEX
  5
537
  8
METAL
 10
-127.8329315185547
 20
-15.04811477661133
 30
0.3494873046873934
 70
   192
  0
VERTEX
  5
538
  8
METAL
 10
-127.8329315185547
 20
-15.04811477661133
 30
0.3494873046873934
 70
   192
  0
VERTEX
  5
539
  8
METAL
 10
-127.8348541259766
 20
-19.14927291870123
 30
3.521087646484331
 70
   192
  0
VERTEX
  5
53A
  8
METAL
 10
-127.8348541259766
 20
-19.14927291870123
 30
3.521087646484331
 70
   192
  0
VERTEX
  5
53B
  8
METAL
 10
-127.8348541259766
 20
-19.14927291870123
 30
3.521087646484331
 70
   192
  0
VERTEX
  5
53C
  8
METAL
 10
-127.8348541259766
 20
-15.18243408203131
 30
3.521087646484331
 70
   192
  0
VERTEX
  5
53D
  8
METAL
 10
-127.8348541259766
 20
-15.18243408203131
 30
3.521087646484331
 70
   192
  0
VERTEX
  5
53E
  8
METAL
 10
-127.8348541259766
 20
-15.18243408203131
 30
3.521087646484331
 70
   192
  0
VERTEX
  5
53F
  8
METAL
 10
-127.8348541259766
 20
-19.14927291870117
 30
-2.822113037109425
 70
   192
  0
VERTEX
  5
540
  8
METAL
 10
-127.8348541259766
 20
-19.14927291870117
 30
-2.822113037109425
 70
   192
  0
VERTEX
  5
541
  8
METAL
 10
-127.8348541259766
 20
-19.14927291870117
 30
-2.822113037109425
 70
   192
  0
VERTEX
  5
542
  8
METAL
 10
-127.8348541259766
 20
-15.18243408203125
 30
-2.822113037109425
 70
   192
  0
VERTEX
  5
543
  8
METAL
 10
-127.8348541259766
 20
-15.18243408203125
 30
-2.822113037109425
 70
   192
  0
VERTEX
  5
544
  8
METAL
 10
-127.8348541259766
 20
-15.18243408203125
 30
-2.822113037109425
 70
   192
  0
VERTEX
  5
545
  8
METAL
 10
-127.8480987548828
 20
-18.74180984497076
 30
6.787567138671831
 70
   192
  0
VERTEX
  5
546
  8
METAL
 10
-127.8480987548828
 20
-18.74180984497076
 30
6.787567138671831
 70
   192
  0
VERTEX
  5
547
  8
METAL
 10
-127.8480987548828
 20
-18.74180984497076
 30
6.787567138671831
 70
   192
  0
VERTEX
  5
548
  8
METAL
 10
-127.8480987548828
 20
-15.58989715576178
 30
6.787567138671831
 70
   192
  0
VERTEX
  5
549
  8
METAL
 10
-127.8480987548828
 20
-15.58989715576178
 30
6.787567138671831
 70
   192
  0
VERTEX
  5
54A
  8
METAL
 10
-127.8480987548828
 20
-15.58989715576178
 30
6.787567138671831
 70
   192
  0
VERTEX
  5
54B
  8
METAL
 10
-127.8480987548828
 20
-18.7418098449707
 30
-6.088592529296925
 70
   192
  0
VERTEX
  5
54C
  8
METAL
 10
-127.8480987548828
 20
-18.7418098449707
 30
-6.088592529296925
 70
   192
  0
VERTEX
  5
54D
  8
METAL
 10
-127.8480987548828
 20
-18.7418098449707
 30
-6.088592529296925
 70
   192
  0
VERTEX
  5
54E
  8
METAL
 10
-127.8480987548828
 20
-15.58989715576172
 30
-6.088592529296925
 70
   192
  0
VERTEX
  5
54F
  8
METAL
 10
-127.8480987548828
 20
-15.58989715576172
 30
-6.088592529296925
 70
   192
  0
VERTEX
  5
550
  8
METAL
 10
-127.8480987548828
 20
-15.58989715576172
 30
-6.088592529296925
 70
   192
  0
VERTEX
  5
551
  8
METAL
 10
-127.8714904785157
 20
-17.72409820556646
 30
8.2443237304687
 70
   192
  0
VERTEX
  5
552
  8
METAL
 10
-127.8714904785157
 20
-17.72409820556646
 30
8.2443237304687
 70
   192
  0
VERTEX
  5
553
  8
METAL
 10
-127.8714904785157
 20
-17.72409820556646
 30
8.2443237304687
 70
   192
  0
VERTEX
  5
554
  8
METAL
 10
-127.8714904785157
 20
-16.60760498046881
 30
8.2443237304687
 70
   192
  0
VERTEX
  5
555
  8
METAL
 10
-127.8714904785157
 20
-16.60760498046881
 30
8.2443237304687
 70
   192
  0
VERTEX
  5
556
  8
METAL
 10
-127.8714904785157
 20
-16.60760498046881
 30
8.2443237304687
 70
   192
  0
VERTEX
  5
557
  8
METAL
 10
-127.8714904785157
 20
-17.72409820556646
 30
-7.5453491210938
 70
   192
  0
VERTEX
  5
558
  8
METAL
 10
-127.8714904785157
 20
-17.72409820556646
 30
-7.5453491210938
 70
   192
  0
VERTEX
  5
559
  8
METAL
 10
-127.8714904785157
 20
-17.72409820556646
 30
-7.5453491210938
 70
   192
  0
VERTEX
  5
55A
  8
METAL
 10
-127.8714904785157
 20
-16.60760498046875
 30
-7.5453491210938
 70
   192
  0
VERTEX
  5
55B
  8
METAL
 10
-127.8714904785157
 20
-16.60760498046875
 30
-7.5453491210938
 70
   192
  0
VERTEX
  5
55C
  8
METAL
 10
-127.8714904785157
 20
-16.60760498046875
 30
-7.5453491210938
 70
   192
  0
VERTEX
  5
55D
  8
METAL
 10
-127.874496459961
 20
-18.07261657714849
 30
8.130401611328079
 70
   192
  0
VERTEX
  5
55E
  8
METAL
 10
-127.874496459961
 20
-18.07261657714849
 30
8.130401611328079
 70
   192
  0
VERTEX
  5
55F
  8
METAL
 10
-127.874496459961
 20
-18.07261657714849
 30
8.130401611328079
 70
   192
  0
VERTEX
  5
560
  8
METAL
 10
-127.874496459961
 20
-16.25909042358404
 30
8.130401611328079
 70
   192
  0
VERTEX
  5
561
  8
METAL
 10
-127.874496459961
 20
-16.25909042358404
 30
8.130401611328079
 70
   192
  0
VERTEX
  5
562
  8
METAL
 10
-127.874496459961
 20
-16.25909042358404
 30
8.130401611328079
 70
   192
  0
VERTEX
  5
563
  8
METAL
 10
-127.874496459961
 20
-18.07261657714849
 30
-7.431427001953175
 70
   192
  0
VERTEX
  5
564
  8
METAL
 10
-127.874496459961
 20
-18.07261657714849
 30
-7.431427001953175
 70
   192
  0
VERTEX
  5
565
  8
METAL
 10
-127.874496459961
 20
-18.07261657714849
 30
-7.431427001953175
 70
   192
  0
VERTEX
  5
566
  8
METAL
 10
-127.874496459961
 20
-16.25909042358398
 30
-7.431427001953175
 70
   192
  0
VERTEX
  5
567
  8
METAL
 10
-127.874496459961
 20
-16.25909042358398
 30
-7.431427001953175
 70
   192
  0
VERTEX
  5
568
  8
METAL
 10
-127.874496459961
 20
-16.25909042358398
 30
-7.431427001953175
 70
   192
  0
VERTEX
  5
569
  8
METAL
 10
-128.3543853759766
 20
-17.72409820556646
 30
7.580291748046831
 70
   192
  0
VERTEX
  5
56A
  8
METAL
 10
-128.3543853759766
 20
-16.60760498046881
 30
7.580291748046831
 70
   192
  0
VERTEX
  5
56B
  8
METAL
 10
-128.3543853759766
 20
-17.72409820556646
 30
-6.881317138671925
 70
   192
  0
VERTEX
  5
56C
  8
METAL
 10
-128.3543853759766
 20
-16.60760498046875
 30
-6.881317138671925
 70
   192
  0
VERTEX
  5
56D
  8
METAL
 10
-128.4561309814454
 20
-17.1658554077149
 30
7.525543212890581
 70
   192
  0
VERTEX
  5
56E
  8
METAL
 10
-128.4561309814454
 20
-17.16585540771484
 30
-6.826568603515675
 70
   192
  0
VERTEX
  5
56F
  8
METAL
 10
-128.6082305908204
 20
-18.12284851074224
 30
6.331817626953081
 70
   192
  0
VERTEX
  5
570
  8
METAL
 10
-128.6082305908204
 20
-16.20885848999029
 30
6.331817626953081
 70
   192
  0
VERTEX
  5
571
  8
METAL
 10
-128.6082305908204
 20
-18.36209487915045
 30
3.251068115234331
 70
   192
  0
VERTEX
  5
572
  8
METAL
 10
-128.6082305908204
 20
-15.96961212158209
 30
3.251068115234331
 70
   192
  0
VERTEX
  5
573
  8
METAL
 10
-128.6082305908204
 20
-18.4418449401856
 30
0.3494873046873934
 70
   192
  0
VERTEX
  5
574
  8
METAL
 10
-128.6082305908204
 20
-15.88986206054688
 30
0.3494873046873934
 70
   192
  0
VERTEX
  5
575
  8
METAL
 10
-128.6082305908204
 20
-18.36209487915039
 30
-2.552093505859425
 70
   192
  0
VERTEX
  5
576
  8
METAL
 10
-128.6082305908204
 20
-15.96961212158203
 30
-2.552093505859425
 70
   192
  0
VERTEX
  5
577
  8
METAL
 10
-128.6082305908204
 20
-18.12284851074224
 30
-5.632843017578175
 70
   192
  0
VERTEX
  5
578
  8
METAL
 10
-128.6082305908204
 20
-16.20885848999023
 30
-5.632843017578175
 70
   192
  0
VERTEX
  5
579
  8
METAL
 10
-128.8462982177735
 20
-17.16585159301763
 30
6.096954345703081
 70
   192
  0
VERTEX
  5
57A
  8
METAL
 10
-128.8462982177735
 20
-17.16585159301758
 30
-5.397979736328175
 70
   192
  0
VERTEX
  5
57B
  8
METAL
 10
-128.9549407958985
 20
-17.1658554077149
 30
3.114288330078081
 70
   192
  0
VERTEX
  5
57C
  8
METAL
 10
-128.9549407958985
 20
-17.16585540771484
 30
-2.415313720703175
 70
   192
  0
VERTEX
  5
57D
  8
METAL
 10
-129.0
 20
-17.16585159301758
 30
0.3494873046873934
 70
   192
  0
VERTEX
  5
57E
  8
METAL
 10
0.0
 20
0.0
 30
0.0
 70
   128
 71
    12
 72
    10
 73
    70
 74
    64
  0
VERTEX
  5
57F
  8
METAL
 10
0.0
 20
0.0
 30
0.0
 70
   128
 71
    15
 72
    21
 73
    31
 74
    55
  0
VERTEX
  5
580
  8
METAL
 10
0.0
 20
0.0
 30
0.0
 70
   128
 71
    14
 72
    12
 73
    64
 74
    52
  0
VERTEX
  5
581
  8
METAL
 10
0.0
 20
0.0
 30
0.0
 70
   128
 71
    31
 72
    21
 73
    43
 74
    43
  0
VERTEX
  5
582
  8
METAL
 10
0.0
 20
0.0
 30
0.0
 70
   128
 71
     3
 72
     1
 73
    10
 74
    12
  0
VERTEX
  5
583
  8
METAL
 10
0.0
 20
0.0
 30
0.0
 70
   128
 71
    13
 72
    11
 73
     1
 74
     3
  0
VERTEX
  5
584
  8
METAL
 10
0.0
 20
0.0
 30
0.0
 70
   128
 71
    67
 72
    73
 73
    11
 74
    13
  0
VERTEX
  5
585
  8
METAL
 10
0.0
 20
0.0
 30
0.0
 70
   128
 71
     5
 72
    17
 73
    21
 74
    15
  0
VERTEX
  5
586
  8
METAL
 10
0.0
 20
0.0
 30
0.0
 70
   128
 71
    14
 72
    20
 73
    17
 74
     5
  0
VERTEX
  5
587
  8
METAL
 10
0.0
 20
0.0
 30
0.0
 70
   128
 71
    52
 72
    28
 73
    20
 74
    14
  0
VERTEX
  5
588
  8
METAL
 10
0.0
 20
0.0
 30
0.0
 70
   128
 71
     5
 72
     3
 73
    12
 74
    14
  0
VERTEX
  5
589
  8
METAL
 10
0.0
 20
0.0
 30
0.0
 70
   128
 71
    15
 72
    13
 73
     3
 74
     5
  0
VERTEX
  5
58A
  8
METAL
 10
0.0
 20
0.0
 30
0.0
 70
   128
 71
    55
 72
    67
 73
    13
 74
    15
  0
VERTEX
  5
58B
  8
METAL
 10
0.0
 20
0.0
 30
0.0
 70
   128
 71
    17
 72
    79
 73
    43
 74
    21
  0
VERTEX
  5
58C
  8
METAL
 10
0.0
 20
0.0
 30
0.0
 70
   128
 71
    20
 72
    40
 73
    79
 74
    17
  0
VERTEX
  5
58D
  8
METAL
 10
0.0
 20
0.0
 30
0.0
 70
   128
 71
    40
 72
    20
 73
    28
 74
    28
  0
VERTEX
  5
58E
  8
METAL
 10
0.0
 20
0.0
 30
0.0
 70
   128
 71
   149
 72
   199
 73
   206
 74
   140
  0
VERTEX
  5
58F
  8
METAL
 10
0.0
 20
0.0
 30
0.0
 70
   128
 71
   144
 72
   210
 73
   203
 74
   153
  0
VERTEX
  5
590
  8
METAL
 10
0.0
 20
0.0
 30
0.0
 70
   128
 71
   141
 72
   207
 73
   214
 74
   124
  0
VERTEX
  5
591
  8
METAL
 10
0.0
 20
0.0
 30
0.0
 70
   128
 71
   125
 72
   215
 73
   222
 74
    92
  0
VERTEX
  5
592
  8
METAL
 10
0.0
 20
0.0
 30
0.0
 70
   128
 71
   128
 72
   218
 73
   211
 74
   145
  0
VERTEX
  5
593
  8
METAL
 10
0.0
 20
0.0
 30
0.0
 70
   128
 71
    97
 72
   227
 73
   219
 74
   129
  0
VERTEX
  5
594
  8
METAL
 10
0.0
 20
0.0
 30
0.0
 70
   128
 71
    93
 72
   223
 73
   231
 74
   109
  0
VERTEX
  5
595
  8
METAL
 10
0.0
 20
0.0
 30
0.0
 70
   128
 71
    95
 72
    33
 73
    45
 74
   111
  0
VERTEX
  5
596
  8
METAL
 10
0.0
 20
0.0
 30
0.0
 70
   128
 71
   108
 72
   230
 73
   238
 74
   160
  0
VERTEX
  5
597
  8
METAL
 10
0.0
 20
0.0
 30
0.0
 70
   128
 71
   161
 72
   239
 73
   234
 74
   112
  0
VERTEX
  5
598
  8
METAL
 10
0.0
 20
0.0
 30
0.0
 70
   128
 71
    72
 72
   147
 73
   138
 74
    65
  0
VERTEX
  5
599
  8
METAL
 10
0.0
 20
0.0
 30
0.0
 70
   128
 71
    68
 72
   142
 73
   151
 74
    75
  0
VERTEX
  5
59A
  8
METAL
 10
0.0
 20
0.0
 30
0.0
 70
   128
 71
    66
 72
   139
 73
   122
 74
    53
  0
VERTEX
  5
59B
  8
METAL
 10
0.0
 20
0.0
 30
0.0
 70
   128
 71
    54
 72
   123
 73
    90
 74
    29
  0
VERTEX
  5
59C
  8
METAL
 10
0.0
 20
0.0
 30
0.0
 70
   128
 71
    56
 72
   126
 73
   143
 74
    69
  0
VERTEX
  5
59D
  8
METAL
 10
0.0
 20
0.0
 30
0.0
 70
   128
 71
    32
 72
    94
 73
   127
 74
    57
  0
VERTEX
  5
59E
  8
METAL
 10
0.0
 20
0.0
 30
0.0
 70
   128
 71
    30
 72
    91
 73
   107
 74
    42
  0
VERTEX
  5
59F
  8
METAL
 10
0.0
 20
0.0
 30
0.0
 70
   128
 71
   226
 72
    96
 73
   113
 74
   235
  0
VERTEX
  5
5A0
  8
METAL
 10
0.0
 20
0.0
 30
0.0
 70
   128
 71
    41
 72
   106
 73
   159
 74
    81
  0
VERTEX
  5
5A1
  8
METAL
 10
0.0
 20
0.0
 30
0.0
 70
   128
 71
    80
 72
   158
 73
   110
 74
    44
  0
VERTEX
  5
5A2
  8
METAL
 10
0.0
 20
0.0
 30
0.0
 70
   128
 71
     8
 72
    58
 73
    70
 74
    10
  0
VERTEX
  5
5A3
  8
METAL
 10
0.0
 20
0.0
 30
0.0
 70
   128
 71
     7
 72
    49
 73
    25
 74
    19
  0
VERTEX
  5
5A4
  8
METAL
 10
0.0
 20
0.0
 30
0.0
 70
   128
 71
     6
 72
    46
 73
    58
 74
     8
  0
VERTEX
  5
5A5
  8
METAL
 10
0.0
 20
0.0
 30
0.0
 70
   128
 71
    25
 72
    37
 73
    19
 74
    19
  0
VERTEX
  5
5A6
  8
METAL
 10
0.0
 20
0.0
 30
0.0
 70
   128
 71
     2
 72
     8
 73
    10
 74
     1
  0
VERTEX
  5
5A7
  8
METAL
 10
0.0
 20
0.0
 30
0.0
 70
   128
 71
     9
 72
     2
 73
     1
 74
    11
  0
VERTEX
  5
5A8
  8
METAL
 10
0.0
 20
0.0
 30
0.0
 70
   128
 71
    61
 72
     9
 73
    11
 74
    73
  0
VERTEX
  5
5A9
  8
METAL
 10
0.0
 20
0.0
 30
0.0
 70
   128
 71
     4
 72
     7
 73
    19
 74
    16
  0
VERTEX
  5
5AA
  8
METAL
 10
0.0
 20
0.0
 30
0.0
 70
   128
 71
     6
 72
     4
 73
    16
 74
    18
  0
VERTEX
  5
5AB
  8
METAL
 10
0.0
 20
0.0
 30
0.0
 70
   128
 71
    46
 72
     6
 73
    18
 74
    22
  0
VERTEX
  5
5AC
  8
METAL
 10
0.0
 20
0.0
 30
0.0
 70
   128
 71
     4
 72
     6
 73
     8
 74
     2
  0
VERTEX
  5
5AD
  8
METAL
 10
0.0
 20
0.0
 30
0.0
 70
   128
 71
     7
 72
     4
 73
     2
 74
     9
  0
VERTEX
  5
5AE
  8
METAL
 10
0.0
 20
0.0
 30
0.0
 70
   128
 71
    49
 72
     7
 73
     9
 74
    61
  0
VERTEX
  5
5AF
  8
METAL
 10
0.0
 20
0.0
 30
0.0
 70
   128
 71
    16
 72
    19
 73
    37
 74
    76
  0
VERTEX
  5
5B0
  8
METAL
 10
0.0
 20
0.0
 30
0.0
 70
   128
 71
    18
 72
    16
 73
    76
 74
    34
  0
VERTEX
  5
5B1
  8
METAL
 10
0.0
 20
0.0
 30
0.0
 70
   128
 71
    34
 72
    22
 73
    18
 74
    18
  0
VERTEX
  5
5B2
  8
METAL
 10
0.0
 20
0.0
 30
0.0
 70
   128
 71
   148
 72
   132
 73
   190
 74
   198
  0
VERTEX
  5
5B3
  8
METAL
 10
0.0
 20
0.0
 30
0.0
 70
   128
 71
   136
 72
   152
 73
   202
 74
   194
  0
VERTEX
  5
5B4
  8
METAL
 10
0.0
 20
0.0
 30
0.0
 70
   128
 71
   133
 72
   116
 73
   182
 74
   191
  0
VERTEX
  5
5B5
  8
METAL
 10
0.0
 20
0.0
 30
0.0
 70
   128
 71
   117
 72
    84
 73
   174
 74
   183
  0
VERTEX
  5
5B6
  8
METAL
 10
0.0
 20
0.0
 30
0.0
 70
   128
 71
   120
 72
   137
 73
   195
 74
   186
  0
VERTEX
  5
5B7
  8
METAL
 10
0.0
 20
0.0
 30
0.0
 70
   128
 71
    89
 72
   121
 73
   187
 74
   179
  0
VERTEX
  5
5B8
  8
METAL
 10
0.0
 20
0.0
 30
0.0
 70
   128
 71
    85
 72
   101
 73
   167
 74
   175
  0
VERTEX
  5
5B9
  8
METAL
 10
0.0
 20
0.0
 30
0.0
 70
   128
 71
    87
 72
   103
 73
    39
 74
    27
  0
VERTEX
  5
5BA
  8
METAL
 10
0.0
 20
0.0
 30
0.0
 70
   128
 71
   100
 72
   156
 73
   162
 74
   166
  0
VERTEX
  5
5BB
  8
METAL
 10
0.0
 20
0.0
 30
0.0
 70
   128
 71
   157
 72
   104
 73
   170
 74
   163
  0
VERTEX
  5
5BC
  8
METAL
 10
0.0
 20
0.0
 30
0.0
 70
   128
 71
    71
 72
    59
 73
   130
 74
   146
  0
VERTEX
  5
5BD
  8
METAL
 10
0.0
 20
0.0
 30
0.0
 70
   128
 71
    62
 72
    74
 73
   150
 74
   134
  0
VERTEX
  5
5BE
  8
METAL
 10
0.0
 20
0.0
 30
0.0
 70
   128
 71
    60
 72
    47
 73
   114
 74
   131
  0
VERTEX
  5
5BF
  8
METAL
 10
0.0
 20
0.0
 30
0.0
 70
   128
 71
    48
 72
    23
 73
    82
 74
   115
  0
VERTEX
  5
5C0
  8
METAL
 10
0.0
 20
0.0
 30
0.0
 70
   128
 71
    50
 72
    63
 73
   135
 74
   118
  0
VERTEX
  5
5C1
  8
METAL
 10
0.0
 20
0.0
 30
0.0
 70
   128
 71
    26
 72
    51
 73
   119
 74
    86
  0
VERTEX
  5
5C2
  8
METAL
 10
0.0
 20
0.0
 30
0.0
 70
   128
 71
    24
 72
    36
 73
    99
 74
    83
  0
VERTEX
  5
5C3
  8
METAL
 10
0.0
 20
0.0
 30
0.0
 70
   128
 71
   178
 72
   171
 73
   105
 74
    88
  0
VERTEX
  5
5C4
  8
METAL
 10
0.0
 20
0.0
 30
0.0
 70
   128
 71
    35
 72
    78
 73
   155
 74
    98
  0
VERTEX
  5
5C5
  8
METAL
 10
0.0
 20
0.0
 30
0.0
 70
   128
 71
    77
 72
    38
 73
   102
 74
   154
  0
VERTEX
  5
5C6
  8
METAL
 10
0.0
 20
0.0
 30
0.0
 70
   128
 71
   204
 72
   242
 73
   246
 74
   196
  0
VERTEX
  5
5C7
  8
METAL
 10
0.0
 20
0.0
 30
0.0
 70
   128
 71
   197
 72
   247
 73
   258
 74
   188
  0
VERTEX
  5
5C8
  8
METAL
 10
0.0
 20
0.0
 30
0.0
 70
   128
 71
  1001
 72
  1079
 73
  1087
 74
  1009
  0
VERTEX
  5
5C9
  8
METAL
 10
0.0
 20
0.0
 30
0.0
 70
   128
 71
   833
 72
   899
 73
   907
 74
   837
  0
VERTEX
  5
5CA
  8
METAL
 10
0.0
 20
0.0
 30
0.0
 70
   128
 71
  1005
 72
   903
 73
   942
 74
  1012
  0
VERTEX
  5
5CB
  8
METAL
 10
0.0
 20
0.0
 30
0.0
 70
   128
 71
  1008
 72
  1086
 73
  1095
 74
  1017
  0
VERTEX
  5
5CC
  8
METAL
 10
0.0
 20
0.0
 30
0.0
 70
   128
 71
  1016
 72
  1094
 73
  1103
 74
  1025
  0
VERTEX
  5
5CD
  8
METAL
 10
0.0
 20
0.0
 30
0.0
 70
   128
 71
   836
 72
   906
 73
   911
 74
   841
  0
VERTEX
  5
5CE
  8
METAL
 10
0.0
 20
0.0
 30
0.0
 70
   128
 71
   910
 72
   916
 73
   845
 74
   840
  0
VERTEX
  5
5CF
  8
METAL
 10
0.0
 20
0.0
 30
0.0
 70
   128
 71
  1013
 72
   943
 73
   946
 74
  1020
  0
VERTEX
  5
5D0
  8
METAL
 10
0.0
 20
0.0
 30
0.0
 70
   128
 71
  1021
 72
   947
 73
   950
 74
  1027
  0
VERTEX
  5
5D1
  8
METAL
 10
0.0
 20
0.0
 30
0.0
 70
   128
 71
  1274
 72
  1222
 73
  1210
 74
  1272
  0
VERTEX
  5
5D2
  8
METAL
 10
0.0
 20
0.0
 30
0.0
 70
   128
 71
  1023
 72
  1102
 73
  1111
 74
  1033
  0
VERTEX
  5
5D3
  8
METAL
 10
0.0
 20
0.0
 30
0.0
 70
   128
 71
   843
 72
   914
 73
   920
 74
   849
  0
VERTEX
  5
5D4
  8
METAL
 10
0.0
 20
0.0
 30
0.0
 70
   128
 71
  1277
 72
  1237
 73
  1261
 74
  1265
  0
VERTEX
  5
5D5
  8
METAL
 10
0.0
 20
0.0
 30
0.0
 70
   128
 71
  1276
 72
  1234
 73
  1222
 74
  1274
  0
VERTEX
  5
5D6
  8
METAL
 10
0.0
 20
0.0
 30
0.0
 70
   128
 71
  1261
 72
  1249
 73
  1265
 74
  1265
  0
VERTEX
  5
5D7
  8
METAL
 10
0.0
 20
0.0
 30
0.0
 70
   128
 71
  1281
 72
  1274
 73
  1272
 74
  1282
  0
VERTEX
  5
5D8
  8
METAL
 10
0.0
 20
0.0
 30
0.0
 70
   128
 71
  1275
 72
  1281
 73
  1282
 74
  1273
  0
VERTEX
  5
5D9
  8
METAL
 10
0.0
 20
0.0
 30
0.0
 70
   128
 71
  1225
 72
  1275
 73
  1273
 74
  1213
  0
VERTEX
  5
5DA
  8
METAL
 10
0.0
 20
0.0
 30
0.0
 70
   128
 71
  1031
 72
  1110
 73
  1119
 74
  1041
  0
VERTEX
  5
5DB
  8
METAL
 10
0.0
 20
0.0
 30
0.0
 70
   128
 71
  1038
 72
  1118
 73
  1115
 74
  1036
  0
VERTEX
  5
5DC
  8
METAL
 10
0.0
 20
0.0
 30
0.0
 70
   128
 71
  1034
 72
  1114
 73
  1107
 74
  1028
  0
VERTEX
  5
5DD
  8
METAL
 10
0.0
 20
0.0
 30
0.0
 70
   128
 71
   847
 72
   918
 73
   960
 74
   881
  0
VERTEX
  5
5DE
  8
METAL
 10
0.0
 20
0.0
 30
0.0
 70
   128
 71
   878
 72
   959
 73
   957
 74
   876
  0
VERTEX
  5
5DF
  8
METAL
 10
0.0
 20
0.0
 30
0.0
 70
   128
 71
   874
 72
   955
 73
   953
 74
   872
  0
VERTEX
  5
5E0
  8
METAL
 10
0.0
 20
0.0
 30
0.0
 70
   128
 71
  1279
 72
  1277
 73
  1265
 74
  1267
  0
VERTEX
  5
5E1
  8
METAL
 10
0.0
 20
0.0
 30
0.0
 70
   128
 71
  1276
 72
  1279
 73
  1267
 74
  1264
  0
VERTEX
  5
5E2
  8
METAL
 10
0.0
 20
0.0
 30
0.0
 70
   128
 71
  1234
 72
  1276
 73
  1264
 74
  1258
  0
VERTEX
  5
5E3
  8
METAL
 10
0.0
 20
0.0
 30
0.0
 70
   128
 71
  1279
 72
  1276
 73
  1274
 74
  1281
  0
VERTEX
  5
5E4
  8
METAL
 10
0.0
 20
0.0
 30
0.0
 70
   128
 71
  1277
 72
  1279
 73
  1281
 74
  1275
  0
VERTEX
  5
5E5
  8
METAL
 10
0.0
 20
0.0
 30
0.0
 70
   128
 71
  1237
 72
  1277
 73
  1275
 74
  1225
  0
VERTEX
  5
5E6
  8
METAL
 10
0.0
 20
0.0
 30
0.0
 70
   128
 71
  1267
 72
  1265
 73
  1249
 74
  1207
  0
VERTEX
  5
5E7
  8
METAL
 10
0.0
 20
0.0
 30
0.0
 70
   128
 71
  1264
 72
  1267
 73
  1207
 74
  1246
  0
VERTEX
  5
5E8
  8
METAL
 10
0.0
 20
0.0
 30
0.0
 70
   128
 71
  1246
 72
  1258
 73
  1264
 74
  1264
  0
VERTEX
  5
5E9
  8
METAL
 10
0.0
 20
0.0
 30
0.0
 70
   128
 71
   901
 72
   999
 73
  1007
 74
   909
  0
VERTEX
  5
5EA
  8
METAL
 10
0.0
 20
0.0
 30
0.0
 70
   128
 71
   835
 72
   737
 73
   793
 74
   831
  0
VERTEX
  5
5EB
  8
METAL
 10
0.0
 20
0.0
 30
0.0
 70
   128
 71
  1083
 72
  1003
 73
  1010
 74
  1090
  0
VERTEX
  5
5EC
  8
METAL
 10
0.0
 20
0.0
 30
0.0
 70
   128
 71
   908
 72
  1006
 73
  1015
 74
   913
  0
VERTEX
  5
5ED
  8
METAL
 10
0.0
 20
0.0
 30
0.0
 70
   128
 71
   912
 72
  1014
 73
  1024
 74
   917
  0
VERTEX
  5
5EE
  8
METAL
 10
0.0
 20
0.0
 30
0.0
 70
   128
 71
   839
 72
   741
 73
   736
 74
   834
  0
VERTEX
  5
5EF
  8
METAL
 10
0.0
 20
0.0
 30
0.0
 70
   128
 71
   844
 72
   745
 73
   740
 74
   838
  0
VERTEX
  5
5F0
  8
METAL
 10
0.0
 20
0.0
 30
0.0
 70
   128
 71
   867
 72
   870
 73
   951
 74
   949
  0
VERTEX
  5
5F1
  8
METAL
 10
0.0
 20
0.0
 30
0.0
 70
   128
 71
  1091
 72
  1011
 73
  1018
 74
  1098
  0
VERTEX
  5
5F2
  8
METAL
 10
0.0
 20
0.0
 30
0.0
 70
   128
 71
  1099
 72
  1019
 73
  1026
 74
  1106
  0
VERTEX
  5
5F3
  8
METAL
 10
0.0
 20
0.0
 30
0.0
 70
   128
 71
   915
 72
  1022
 73
  1032
 74
   921
  0
VERTEX
  5
5F4
  8
METAL
 10
0.0
 20
0.0
 30
0.0
 70
   128
 71
   848
 72
   749
 73
   744
 74
   842
  0
VERTEX
  5
5F5
  8
METAL
 10
0.0
 20
0.0
 30
0.0
 70
   128
 71
   919
 72
  1030
 73
  1040
 74
   961
  0
VERTEX
  5
5F6
  8
METAL
 10
0.0
 20
0.0
 30
0.0
 70
   128
 71
   958
 72
  1039
 73
  1037
 74
   956
  0
VERTEX
  5
5F7
  8
METAL
 10
0.0
 20
0.0
 30
0.0
 70
   128
 71
   954
 72
  1035
 73
  1029
 74
   952
  0
VERTEX
  5
5F8
  8
METAL
 10
0.0
 20
0.0
 30
0.0
 70
   128
 71
   880
 72
   765
 73
   748
 74
   846
  0
VERTEX
  5
5F9
  8
METAL
 10
0.0
 20
0.0
 30
0.0
 70
   128
 71
   877
 72
   759
 73
   762
 74
   879
  0
VERTEX
  5
5FA
  8
METAL
 10
0.0
 20
0.0
 30
0.0
 70
   128
 71
   873
 72
   799
 73
   758
 74
   875
  0
VERTEX
  5
5FB
  8
METAL
 10
0.0
 20
0.0
 30
0.0
 70
   128
 71
  1131
 72
  1147
 73
  1089
 74
  1081
  0
VERTEX
  5
5FC
  8
METAL
 10
0.0
 20
0.0
 30
0.0
 70
   128
 71
  1151
 72
  1135
 73
  1085
 74
  1093
  0
VERTEX
  5
5FD
  8
METAL
 10
0.0
 20
0.0
 30
0.0
 70
   128
 71
  1146
 72
  1163
 73
  1097
 74
  1088
  0
VERTEX
  5
5FE
  8
METAL
 10
0.0
 20
0.0
 30
0.0
 70
   128
 71
  1162
 72
  1195
 73
  1105
 74
  1096
  0
VERTEX
  5
5FF
  8
METAL
 10
0.0
 20
0.0
 30
0.0
 70
   128
 71
  1167
 72
  1150
 73
  1092
 74
  1101
  0
VERTEX
  5
600
  8
METAL
 10
0.0
 20
0.0
 30
0.0
 70
   128
 71
  1198
 72
  1166
 73
  1100
 74
  1108
  0
VERTEX
  5
601
  8
METAL
 10
0.0
 20
0.0
 30
0.0
 70
   128
 71
  1194
 72
  1178
 73
  1112
 74
  1104
  0
VERTEX
  5
602
  8
METAL
 10
0.0
 20
0.0
 30
0.0
 70
   128
 71
  1200
 72
  1184
 73
  1247
 74
  1259
  0
VERTEX
  5
603
  8
METAL
 10
0.0
 20
0.0
 30
0.0
 70
   128
 71
  1179
 72
  1127
 73
  1121
 74
  1113
  0
VERTEX
  5
604
  8
METAL
 10
0.0
 20
0.0
 30
0.0
 70
   128
 71
  1126
 72
  1183
 73
  1117
 74
  1120
  0
VERTEX
  5
605
  8
METAL
 10
0.0
 20
0.0
 30
0.0
 70
   128
 71
  1209
 72
  1221
 73
  1149
 74
  1133
  0
VERTEX
  5
606
  8
METAL
 10
0.0
 20
0.0
 30
0.0
 70
   128
 71
  1224
 72
  1212
 73
  1137
 74
  1153
  0
VERTEX
  5
607
  8
METAL
 10
0.0
 20
0.0
 30
0.0
 70
   128
 71
  1220
 72
  1233
 73
  1165
 74
  1148
  0
VERTEX
  5
608
  8
METAL
 10
0.0
 20
0.0
 30
0.0
 70
   128
 71
  1232
 72
  1257
 73
  1197
 74
  1164
  0
VERTEX
  5
609
  8
METAL
 10
0.0
 20
0.0
 30
0.0
 70
   128
 71
  1236
 72
  1223
 73
  1152
 74
  1169
  0
VERTEX
  5
60A
  8
METAL
 10
0.0
 20
0.0
 30
0.0
 70
   128
 71
  1260
 72
  1235
 73
  1168
 74
  1201
  0
VERTEX
  5
60B
  8
METAL
 10
0.0
 20
0.0
 30
0.0
 70
   128
 71
  1256
 72
  1244
 73
  1180
 74
  1196
  0
VERTEX
  5
60C
  8
METAL
 10
0.0
 20
0.0
 30
0.0
 70
   128
 71
  1109
 72
  1116
 73
  1182
 74
  1199
  0
VERTEX
  5
60D
  8
METAL
 10
0.0
 20
0.0
 30
0.0
 70
   128
 71
  1245
 72
  1205
 73
  1128
 74
  1181
  0
VERTEX
  5
60E
  8
METAL
 10
0.0
 20
0.0
 30
0.0
 70
   128
 71
  1206
 72
  1248
 73
  1185
 74
  1129
  0
VERTEX
  5
60F
  8
METAL
 10
0.0
 20
0.0
 30
0.0
 70
   128
 71
  1000
 72
   993
 73
  1071
 74
  1078
  0
VERTEX
  5
610
  8
METAL
 10
0.0
 20
0.0
 30
0.0
 70
   128
 71
   832
 72
   829
 73
   895
 74
   898
  0
VERTEX
  5
611
  8
METAL
 10
0.0
 20
0.0
 30
0.0
 70
   128
 71
  1004
 72
   996
 73
   938
 74
   902
  0
VERTEX
  5
612
  8
METAL
 10
0.0
 20
0.0
 30
0.0
 70
   128
 71
   992
 72
   985
 73
  1063
 74
  1070
  0
VERTEX
  5
613
  8
METAL
 10
0.0
 20
0.0
 30
0.0
 70
   128
 71
   984
 72
   977
 73
  1055
 74
  1062
  0
VERTEX
  5
614
  8
METAL
 10
0.0
 20
0.0
 30
0.0
 70
   128
 71
   828
 72
   825
 73
   891
 74
   894
  0
VERTEX
  5
615
  8
METAL
 10
0.0
 20
0.0
 30
0.0
 70
   128
 71
   890
 72
   824
 73
   821
 74
   888
  0
VERTEX
  5
616
  8
METAL
 10
0.0
 20
0.0
 30
0.0
 70
   128
 71
   997
 72
   988
 73
   934
 74
   939
  0
VERTEX
  5
617
  8
METAL
 10
0.0
 20
0.0
 30
0.0
 70
   128
 71
   989
 72
   979
 73
   930
 74
   935
  0
VERTEX
  5
618
  8
METAL
 10
0.0
 20
0.0
 30
0.0
 70
   128
 71
  1270
 72
  1272
 73
  1210
 74
  1216
  0
VERTEX
  5
619
  8
METAL
 10
0.0
 20
0.0
 30
0.0
 70
   128
 71
   975
 72
   969
 73
  1047
 74
  1054
  0
VERTEX
  5
61A
  8
METAL
 10
0.0
 20
0.0
 30
0.0
 70
   128
 71
   819
 72
   817
 73
   884
 74
   886
  0
VERTEX
  5
61B
  8
METAL
 10
0.0
 20
0.0
 30
0.0
 70
   128
 71
  1269
 72
  1263
 73
  1255
 74
  1231
  0
VERTEX
  5
61C
  8
METAL
 10
0.0
 20
0.0
 30
0.0
 70
   128
 71
  1268
 72
  1270
 73
  1216
 74
  1228
  0
VERTEX
  5
61D
  8
METAL
 10
0.0
 20
0.0
 30
0.0
 70
   128
 71
  1255
 72
  1263
 73
  1243
 74
  1243
  0
VERTEX
  5
61E
  8
METAL
 10
0.0
 20
0.0
 30
0.0
 70
   128
 71
  1280
 72
  1282
 73
  1272
 74
  1270
  0
VERTEX
  5
61F
  8
METAL
 10
0.0
 20
0.0
 30
0.0
 70
   128
 71
  1271
 72
  1273
 73
  1282
 74
  1280
  0
VERTEX
  5
620
  8
METAL
 10
0.0
 20
0.0
 30
0.0
 70
   128
 71
  1219
 72
  1213
 73
  1273
 74
  1271
  0
VERTEX
  5
621
  8
METAL
 10
0.0
 20
0.0
 30
0.0
 70
   128
 71
   967
 72
   965
 73
  1043
 74
  1046
  0
VERTEX
  5
622
  8
METAL
 10
0.0
 20
0.0
 30
0.0
 70
   128
 71
   962
 72
   972
 73
  1051
 74
  1042
  0
VERTEX
  5
623
  8
METAL
 10
0.0
 20
0.0
 30
0.0
 70
   128
 71
   970
 72
   980
 73
  1059
 74
  1050
  0
VERTEX
  5
624
  8
METAL
 10
0.0
 20
0.0
 30
0.0
 70
   128
 71
   815
 72
   853
 73
   924
 74
   882
  0
VERTEX
  5
625
  8
METAL
 10
0.0
 20
0.0
 30
0.0
 70
   128
 71
   850
 72
   856
 73
   929
 74
   923
  0
VERTEX
  5
626
  8
METAL
 10
0.0
 20
0.0
 30
0.0
 70
   128
 71
   854
 72
   860
 73
   933
 74
   927
  0
VERTEX
  5
627
  8
METAL
 10
0.0
 20
0.0
 30
0.0
 70
   128
 71
  1278
 72
  1266
 73
  1263
 74
  1269
  0
VERTEX
  5
628
  8
METAL
 10
0.0
 20
0.0
 30
0.0
 70
   128
 71
  1268
 72
  1262
 73
  1266
 74
  1278
  0
VERTEX
  5
629
  8
METAL
 10
0.0
 20
0.0
 30
0.0
 70
   128
 71
  1228
 72
  1252
 73
  1262
 74
  1268
  0
VERTEX
  5
62A
  8
METAL
 10
0.0
 20
0.0
 30
0.0
 70
   128
 71
  1278
 72
  1280
 73
  1270
 74
  1268
  0
VERTEX
  5
62B
  8
METAL
 10
0.0
 20
0.0
 30
0.0
 70
   128
 71
  1269
 72
  1271
 73
  1280
 74
  1278
  0
VERTEX
  5
62C
  8
METAL
 10
0.0
 20
0.0
 30
0.0
 70
   128
 71
  1231
 72
  1219
 73
  1271
 74
  1269
  0
VERTEX
  5
62D
  8
METAL
 10
0.0
 20
0.0
 30
0.0
 70
   128
 71
  1266
 72
  1204
 73
  1243
 74
  1263
  0
VERTEX
  5
62E
  8
METAL
 10
0.0
 20
0.0
 30
0.0
 70
   128
 71
  1262
 72
  1240
 73
  1204
 74
  1266
  0
VERTEX
  5
62F
  8
METAL
 10
0.0
 20
0.0
 30
0.0
 70
   128
 71
  1240
 72
  1262
 73
  1252
 74
  1252
  0
VERTEX
  5
630
  8
METAL
 10
0.0
 20
0.0
 30
0.0
 70
   128
 71
   900
 72
   897
 73
   991
 74
   998
  0
VERTEX
  5
631
  8
METAL
 10
0.0
 20
0.0
 30
0.0
 70
   128
 71
   792
 72
   789
 73
   827
 74
   830
  0
VERTEX
  5
632
  8
METAL
 10
0.0
 20
0.0
 30
0.0
 70
   128
 71
  1082
 72
  1074
 73
   994
 74
  1002
  0
VERTEX
  5
633
  8
METAL
 10
0.0
 20
0.0
 30
0.0
 70
   128
 71
   896
 72
   893
 73
   983
 74
   990
  0
VERTEX
  5
634
  8
METAL
 10
0.0
 20
0.0
 30
0.0
 70
   128
 71
   892
 72
   889
 73
   976
 74
   982
  0
VERTEX
  5
635
  8
METAL
 10
0.0
 20
0.0
 30
0.0
 70
   128
 71
   788
 72
   785
 73
   823
 74
   826
  0
VERTEX
  5
636
  8
METAL
 10
0.0
 20
0.0
 30
0.0
 70
   128
 71
   784
 72
   781
 73
   820
 74
   822
  0
VERTEX
  5
637
  8
METAL
 10
0.0
 20
0.0
 30
0.0
 70
   128
 71
   863
 72
   937
 73
   931
 74
   858
  0
VERTEX
  5
638
  8
METAL
 10
0.0
 20
0.0
 30
0.0
 70
   128
 71
  1075
 72
  1066
 73
   986
 74
   995
  0
VERTEX
  5
639
  8
METAL
 10
0.0
 20
0.0
 30
0.0
 70
   128
 71
  1067
 72
  1058
 73
   978
 74
   987
  0
VERTEX
  5
63A
  8
METAL
 10
0.0
 20
0.0
 30
0.0
 70
   128
 71
   887
 72
   885
 73
   968
 74
   974
  0
VERTEX
  5
63B
  8
METAL
 10
0.0
 20
0.0
 30
0.0
 70
   128
 71
   780
 72
   773
 73
   816
 74
   818
  0
VERTEX
  5
63C
  8
METAL
 10
0.0
 20
0.0
 30
0.0
 70
   128
 71
   883
 72
   925
 73
   964
 74
   966
  0
VERTEX
  5
63D
  8
METAL
 10
0.0
 20
0.0
 30
0.0
 70
   128
 71
   922
 72
   928
 73
   973
 74
   963
  0
VERTEX
  5
63E
  8
METAL
 10
0.0
 20
0.0
 30
0.0
 70
   128
 71
   926
 72
   932
 73
   981
 74
   971
  0
VERTEX
  5
63F
  8
METAL
 10
0.0
 20
0.0
 30
0.0
 70
   128
 71
   772
 72
   769
 73
   852
 74
   814
  0
VERTEX
  5
640
  8
METAL
 10
0.0
 20
0.0
 30
0.0
 70
   128
 71
   766
 72
   775
 73
   857
 74
   851
  0
VERTEX
  5
641
  8
METAL
 10
0.0
 20
0.0
 30
0.0
 70
   128
 71
   774
 72
   751
 73
   861
 74
   855
  0
VERTEX
  5
642
  8
METAL
 10
0.0
 20
0.0
 30
0.0
 70
   128
 71
  1130
 72
  1080
 73
  1073
 74
  1139
  0
VERTEX
  5
643
  8
METAL
 10
0.0
 20
0.0
 30
0.0
 70
   128
 71
  1143
 72
  1077
 73
  1084
 74
  1134
  0
VERTEX
  5
644
  8
METAL
 10
0.0
 20
0.0
 30
0.0
 70
   128
 71
  1138
 72
  1072
 73
  1065
 74
  1155
  0
VERTEX
  5
645
  8
METAL
 10
0.0
 20
0.0
 30
0.0
 70
   128
 71
  1154
 72
  1064
 73
  1057
 74
  1187
  0
VERTEX
  5
646
  8
METAL
 10
0.0
 20
0.0
 30
0.0
 70
   128
 71
  1159
 72
  1069
 73
  1076
 74
  1142
  0
VERTEX
  5
647
  8
METAL
 10
0.0
 20
0.0
 30
0.0
 70
   128
 71
  1190
 72
  1060
 73
  1068
 74
  1158
  0
VERTEX
  5
648
  8
METAL
 10
0.0
 20
0.0
 30
0.0
 70
   128
 71
  1186
 72
  1056
 73
  1048
 74
  1170
  0
VERTEX
  5
649
  8
METAL
 10
0.0
 20
0.0
 30
0.0
 70
   128
 71
  1192
 72
  1253
 73
  1241
 74
  1176
  0
VERTEX
  5
64A
  8
METAL
 10
0.0
 20
0.0
 30
0.0
 70
   128
 71
  1171
 72
  1049
 73
  1045
 74
  1123
  0
VERTEX
  5
64B
  8
METAL
 10
0.0
 20
0.0
 30
0.0
 70
   128
 71
  1122
 72
  1044
 73
  1053
 74
  1175
  0
VERTEX
  5
64C
  8
METAL
 10
0.0
 20
0.0
 30
0.0
 70
   128
 71
  1208
 72
  1132
 73
  1141
 74
  1215
  0
VERTEX
  5
64D
  8
METAL
 10
0.0
 20
0.0
 30
0.0
 70
   128
 71
  1218
 72
  1145
 73
  1136
 74
  1211
  0
VERTEX
  5
64E
  8
METAL
 10
0.0
 20
0.0
 30
0.0
 70
   128
 71
  1214
 72
  1140
 73
  1157
 74
  1227
  0
VERTEX
  5
64F
  8
METAL
 10
0.0
 20
0.0
 30
0.0
 70
   128
 71
  1226
 72
  1156
 73
  1189
 74
  1251
  0
VERTEX
  5
650
  8
METAL
 10
0.0
 20
0.0
 30
0.0
 70
   128
 71
  1230
 72
  1161
 73
  1144
 74
  1217
  0
VERTEX
  5
651
  8
METAL
 10
0.0
 20
0.0
 30
0.0
 70
   128
 71
  1254
 72
  1193
 73
  1160
 74
  1229
  0
VERTEX
  5
652
  8
METAL
 10
0.0
 20
0.0
 30
0.0
 70
   128
 71
  1250
 72
  1188
 73
  1172
 74
  1238
  0
VERTEX
  5
653
  8
METAL
 10
0.0
 20
0.0
 30
0.0
 70
   128
 71
  1061
 72
  1191
 73
  1174
 74
  1052
  0
VERTEX
  5
654
  8
METAL
 10
0.0
 20
0.0
 30
0.0
 70
   128
 71
  1239
 72
  1173
 73
  1124
 74
  1202
  0
VERTEX
  5
655
  8
METAL
 10
0.0
 20
0.0
 30
0.0
 70
   128
 71
  1203
 72
  1125
 73
  1177
 74
  1242
  0
VERTEX
  5
656
  8
METAL
 10
0.0
 20
0.0
 30
0.0
 70
   128
 71
   936
 72
   862
 73
   807
 74
   941
  0
VERTEX
  5
657
  8
METAL
 10
0.0
 20
0.0
 30
0.0
 70
   128
 71
   940
 72
   806
 73
   802
 74
   904
  0
VERTEX
  5
658
  8
METAL
 10
0.0
 20
0.0
 30
0.0
 70
   128
 71
   905
 72
   803
 73
   810
 74
   944
  0
VERTEX
  5
659
  8
METAL
 10
0.0
 20
0.0
 30
0.0
 70
   128
 71
   945
 72
   811
 73
   866
 74
   948
  0
VERTEX
  5
65A
  8
METAL
 10
0.0
 20
0.0
 30
0.0
 70
   128
 71
   212
 72
   250
 73
   243
 74
   205
  0
VERTEX
  5
65B
  8
METAL
 10
0.0
 20
0.0
 30
0.0
 70
   128
 71
   220
 72
   314
 73
   251
 74
   213
  0
VERTEX
  5
65C
  8
METAL
 10
0.0
 20
0.0
 30
0.0
 70
   128
 71
   228
 72
   318
 73
   315
 74
   221
  0
VERTEX
  5
65D
  8
METAL
 10
0.0
 20
0.0
 30
0.0
 70
   128
 71
   189
 72
   259
 73
   254
 74
   180
  0
VERTEX
  5
65E
  8
METAL
 10
0.0
 20
0.0
 30
0.0
 70
   128
 71
   804
 72
   808
 73
   726
 74
   722
  0
VERTEX
  5
65F
  8
METAL
 10
0.0
 20
0.0
 30
0.0
 70
   128
 71
   809
 72
   864
 73
   754
 74
   727
  0
VERTEX
  5
660
  8
METAL
 10
0.0
 20
0.0
 30
0.0
 70
   128
 71
   656
 72
   713
 73
   791
 74
   734
  0
VERTEX
  5
661
  8
METAL
 10
0.0
 20
0.0
 30
0.0
 70
   128
 71
   660
 72
   657
 73
   735
 74
   738
  0
VERTEX
  5
662
  8
METAL
 10
0.0
 20
0.0
 30
0.0
 70
   128
 71
   664
 72
   661
 73
   739
 74
   742
  0
VERTEX
  5
663
  8
METAL
 10
0.0
 20
0.0
 30
0.0
 70
   128
 71
   668
 72
   665
 73
   743
 74
   746
  0
VERTEX
  5
664
  8
METAL
 10
0.0
 20
0.0
 30
0.0
 70
   128
 71
   683
 72
   669
 73
   747
 74
   763
  0
VERTEX
  5
665
  8
METAL
 10
0.0
 20
0.0
 30
0.0
 70
   128
 71
   678
 72
   684
 73
   764
 74
   760
  0
VERTEX
  5
666
  8
METAL
 10
0.0
 20
0.0
 30
0.0
 70
   128
 71
   718
 72
   679
 73
   761
 74
   800
  0
VERTEX
  5
667
  8
METAL
 10
0.0
 20
0.0
 30
0.0
 70
   128
 71
   712
 72
   708
 73
   786
 74
   790
  0
VERTEX
  5
668
  8
METAL
 10
0.0
 20
0.0
 30
0.0
 70
   128
 71
   709
 72
   704
 73
   782
 74
   787
  0
VERTEX
  5
669
  8
METAL
 10
0.0
 20
0.0
 30
0.0
 70
   128
 71
   705
 72
   700
 73
   778
 74
   783
  0
VERTEX
  5
66A
  8
METAL
 10
0.0
 20
0.0
 30
0.0
 70
   128
 71
   701
 72
   692
 73
   770
 74
   779
  0
VERTEX
  5
66B
  8
METAL
 10
0.0
 20
0.0
 30
0.0
 70
   128
 71
   693
 72
   687
 73
   767
 74
   771
  0
VERTEX
  5
66C
  8
METAL
 10
0.0
 20
0.0
 30
0.0
 70
   128
 71
   688
 72
   694
 73
   776
 74
   768
  0
VERTEX
  5
66D
  8
METAL
 10
0.0
 20
0.0
 30
0.0
 70
   128
 71
   695
 72
   670
 73
   752
 74
   777
  0
VERTEX
  5
66E
  8
METAL
 10
0.0
 20
0.0
 30
0.0
 70
   128
 71
   812
 72
   805
 73
   723
 74
   730
  0
VERTEX
  5
66F
  8
METAL
 10
0.0
 20
0.0
 30
0.0
 70
   128
 71
   868
 72
   813
 73
   731
 74
   794
  0
VERTEX
  5
670
  8
METAL
 10
0.0
 20
0.0
 30
0.0
 70
   128
 71
   871
 72
   869
 73
   795
 74
   798
  0
VERTEX
  5
671
  8
METAL
 10
0.0
 20
0.0
 30
0.0
 70
   128
 71
   865
 72
   859
 73
   750
 74
   755
  0
VERTEX
  5
672
  8
METAL
 10
0.0
 20
0.0
 30
0.0
 70
   128
 71
   724
 72
   729
 73
   647
 74
   642
  0
VERTEX
  5
673
  8
METAL
 10
0.0
 20
0.0
 30
0.0
 70
   128
 71
   728
 72
   757
 73
   675
 74
   646
  0
VERTEX
  5
674
  8
METAL
 10
0.0
 20
0.0
 30
0.0
 70
   128
 71
   733
 72
   725
 73
   643
 74
   651
  0
VERTEX
  5
675
  8
METAL
 10
0.0
 20
0.0
 30
0.0
 70
   128
 71
   797
 72
   732
 73
   650
 74
   715
  0
VERTEX
  5
676
  8
METAL
 10
0.0
 20
0.0
 30
0.0
 70
   128
 71
   801
 72
   796
 73
   714
 74
   719
  0
VERTEX
  5
677
  8
METAL
 10
0.0
 20
0.0
 30
0.0
 70
   128
 71
   756
 72
   753
 73
   671
 74
   674
  0
VERTEX
  5
678
  8
METAL
 10
0.0
 20
0.0
 30
0.0
 70
   128
 71
   584
 72
   633
 73
   711
 74
   654
  0
VERTEX
  5
679
  8
METAL
 10
0.0
 20
0.0
 30
0.0
 70
   128
 71
   588
 72
   585
 73
   655
 74
   658
  0
VERTEX
  5
67A
  8
METAL
 10
0.0
 20
0.0
 30
0.0
 70
   128
 71
   591
 72
   589
 73
   659
 74
   662
  0
VERTEX
  5
67B
  8
METAL
 10
0.0
 20
0.0
 30
0.0
 70
   128
 71
   595
 72
   593
 73
   663
 74
   666
  0
VERTEX
  5
67C
  8
METAL
 10
0.0
 20
0.0
 30
0.0
 70
   128
 71
   603
 72
   597
 73
   667
 74
   682
  0
VERTEX
  5
67D
  8
METAL
 10
0.0
 20
0.0
 30
0.0
 70
   128
 71
   598
 72
   604
 73
   685
 74
   680
  0
VERTEX
  5
67E
  8
METAL
 10
0.0
 20
0.0
 30
0.0
 70
   128
 71
   638
 72
   600
 73
   681
 74
   720
  0
VERTEX
  5
67F
  8
METAL
 10
0.0
 20
0.0
 30
0.0
 70
   128
 71
   632
 72
   628
 73
   706
 74
   710
  0
VERTEX
  5
680
  8
METAL
 10
0.0
 20
0.0
 30
0.0
 70
   128
 71
   629
 72
   624
 73
   702
 74
   707
  0
VERTEX
  5
681
  8
METAL
 10
0.0
 20
0.0
 30
0.0
 70
   128
 71
   625
 72
   619
 73
   698
 74
   703
  0
VERTEX
  5
682
  8
METAL
 10
0.0
 20
0.0
 30
0.0
 70
   128
 71
   621
 72
   611
 73
   690
 74
   699
  0
VERTEX
  5
683
  8
METAL
 10
0.0
 20
0.0
 30
0.0
 70
   128
 71
   613
 72
   607
 73
   686
 74
   691
  0
VERTEX
  5
684
  8
METAL
 10
0.0
 20
0.0
 30
0.0
 70
   128
 71
   608
 72
   614
 73
   696
 74
   689
  0
VERTEX
  5
685
  8
METAL
 10
0.0
 20
0.0
 30
0.0
 70
   128
 71
   616
 72
   574
 73
   672
 74
   697
  0
VERTEX
  5
686
  8
METAL
 10
0.0
 20
0.0
 30
0.0
 70
   128
 71
   644
 72
   649
 73
   567
 74
   562
  0
VERTEX
  5
687
  8
METAL
 10
0.0
 20
0.0
 30
0.0
 70
   128
 71
   648
 72
   677
 73
   579
 74
   566
  0
VERTEX
  5
688
  8
METAL
 10
0.0
 20
0.0
 30
0.0
 70
   128
 71
   653
 72
   645
 73
   563
 74
   571
  0
VERTEX
  5
689
  8
METAL
 10
0.0
 20
0.0
 30
0.0
 70
   128
 71
   717
 72
   652
 73
   570
 74
   635
  0
VERTEX
  5
68A
  8
METAL
 10
0.0
 20
0.0
 30
0.0
 70
   128
 71
   721
 72
   716
 73
   634
 74
   640
  0
VERTEX
  5
68B
  8
METAL
 10
0.0
 20
0.0
 30
0.0
 70
   128
 71
   676
 72
   673
 73
   576
 74
   578
  0
VERTEX
  5
68C
  8
METAL
 10
0.0
 20
0.0
 30
0.0
 70
   128
 71
   504
 72
   553
 73
   631
 74
   582
  0
VERTEX
  5
68D
  8
METAL
 10
0.0
 20
0.0
 30
0.0
 70
   128
 71
   507
 72
   505
 73
   583
 74
   586
  0
VERTEX
  5
68E
  8
METAL
 10
0.0
 20
0.0
 30
0.0
 70
   128
 71
   511
 72
   509
 73
   587
 74
   590
  0
VERTEX
  5
68F
  8
METAL
 10
0.0
 20
0.0
 30
0.0
 70
   128
 71
   515
 72
   513
 73
   592
 74
   594
  0
VERTEX
  5
690
  8
METAL
 10
0.0
 20
0.0
 30
0.0
 70
   128
 71
   523
 72
   517
 73
   596
 74
   602
  0
VERTEX
  5
691
  8
METAL
 10
0.0
 20
0.0
 30
0.0
 70
   128
 71
   518
 72
   524
 73
   605
 74
   599
  0
VERTEX
  5
692
  8
METAL
 10
0.0
 20
0.0
 30
0.0
 70
   128
 71
   558
 72
   520
 73
   601
 74
   639
  0
VERTEX
  5
693
  8
METAL
 10
0.0
 20
0.0
 30
0.0
 70
   128
 71
   552
 72
   548
 73
   626
 74
   630
  0
VERTEX
  5
694
  8
METAL
 10
0.0
 20
0.0
 30
0.0
 70
   128
 71
   549
 72
   543
 73
   622
 74
   627
  0
VERTEX
  5
695
  8
METAL
 10
0.0
 20
0.0
 30
0.0
 70
   128
 71
   545
 72
   539
 73
   618
 74
   623
  0
VERTEX
  5
696
  8
METAL
 10
0.0
 20
0.0
 30
0.0
 70
   128
 71
   541
 72
   531
 73
   610
 74
   620
  0
VERTEX
  5
697
  8
METAL
 10
0.0
 20
0.0
 30
0.0
 70
   128
 71
   533
 72
   527
 73
   606
 74
   612
  0
VERTEX
  5
698
  8
METAL
 10
0.0
 20
0.0
 30
0.0
 70
   128
 71
   528
 72
   534
 73
   615
 74
   609
  0
VERTEX
  5
699
  8
METAL
 10
0.0
 20
0.0
 30
0.0
 70
   128
 71
   536
 72
   494
 73
   575
 74
   617
  0
VERTEX
  5
69A
  8
METAL
 10
0.0
 20
0.0
 30
0.0
 70
   128
 71
   564
 72
   569
 73
   487
 74
   482
  0
VERTEX
  5
69B
  8
METAL
 10
0.0
 20
0.0
 30
0.0
 70
   128
 71
   568
 72
   581
 73
   500
 74
   486
  0
VERTEX
  5
69C
  8
METAL
 10
0.0
 20
0.0
 30
0.0
 70
   128
 71
   573
 72
   565
 73
   483
 74
   491
  0
VERTEX
  5
69D
  8
METAL
 10
0.0
 20
0.0
 30
0.0
 70
   128
 71
   637
 72
   572
 73
   490
 74
   556
  0
VERTEX
  5
69E
  8
METAL
 10
0.0
 20
0.0
 30
0.0
 70
   128
 71
   641
 72
   636
 73
   554
 74
   560
  0
VERTEX
  5
69F
  8
METAL
 10
0.0
 20
0.0
 30
0.0
 70
   128
 71
   580
 72
   577
 73
   496
 74
   498
  0
VERTEX
  5
6A0
  8
METAL
 10
0.0
 20
0.0
 30
0.0
 70
   128
 71
   422
 72
   471
 73
   551
 74
   502
  0
VERTEX
  5
6A1
  8
METAL
 10
0.0
 20
0.0
 30
0.0
 70
   128
 71
   426
 72
   423
 73
   503
 74
   506
  0
VERTEX
  5
6A2
  8
METAL
 10
0.0
 20
0.0
 30
0.0
 70
   128
 71
   430
 72
   427
 73
   508
 74
   510
  0
VERTEX
  5
6A3
  8
METAL
 10
0.0
 20
0.0
 30
0.0
 70
   128
 71
   434
 72
   432
 73
   512
 74
   514
  0
VERTEX
  5
6A4
  8
METAL
 10
0.0
 20
0.0
 30
0.0
 70
   128
 71
   442
 72
   436
 73
   516
 74
   522
  0
VERTEX
  5
6A5
  8
METAL
 10
0.0
 20
0.0
 30
0.0
 70
   128
 71
   439
 72
   445
 73
   525
 74
   519
  0
VERTEX
  5
6A6
  8
METAL
 10
0.0
 20
0.0
 30
0.0
 70
   128
 71
   479
 72
   441
 73
   521
 74
   559
  0
VERTEX
  5
6A7
  8
METAL
 10
0.0
 20
0.0
 30
0.0
 70
   128
 71
   470
 72
   466
 73
   546
 74
   550
  0
VERTEX
  5
6A8
  8
METAL
 10
0.0
 20
0.0
 30
0.0
 70
   128
 71
   467
 72
   462
 73
   542
 74
   547
  0
VERTEX
  5
6A9
  8
METAL
 10
0.0
 20
0.0
 30
0.0
 70
   128
 71
   463
 72
   458
 73
   538
 74
   544
  0
VERTEX
  5
6AA
  8
METAL
 10
0.0
 20
0.0
 30
0.0
 70
   128
 71
   460
 72
   450
 73
   530
 74
   540
  0
VERTEX
  5
6AB
  8
METAL
 10
0.0
 20
0.0
 30
0.0
 70
   128
 71
   452
 72
   446
 73
   526
 74
   532
  0
VERTEX
  5
6AC
  8
METAL
 10
0.0
 20
0.0
 30
0.0
 70
   128
 71
   449
 72
   455
 73
   535
 74
   529
  0
VERTEX
  5
6AD
  8
METAL
 10
0.0
 20
0.0
 30
0.0
 70
   128
 71
   457
 72
   415
 73
   495
 74
   537
  0
VERTEX
  5
6AE
  8
METAL
 10
0.0
 20
0.0
 30
0.0
 70
   128
 71
   484
 72
   489
 73
   409
 74
   404
  0
VERTEX
  5
6AF
  8
METAL
 10
0.0
 20
0.0
 30
0.0
 70
   128
 71
   488
 72
   501
 73
   421
 74
   408
  0
VERTEX
  5
6B0
  8
METAL
 10
0.0
 20
0.0
 30
0.0
 70
   128
 71
   493
 72
   485
 73
   405
 74
   413
  0
VERTEX
  5
6B1
  8
METAL
 10
0.0
 20
0.0
 30
0.0
 70
   128
 71
   557
 72
   492
 73
   412
 74
   477
  0
VERTEX
  5
6B2
  8
METAL
 10
0.0
 20
0.0
 30
0.0
 70
   128
 71
   561
 72
   555
 73
   476
 74
   481
  0
VERTEX
  5
6B3
  8
METAL
 10
0.0
 20
0.0
 30
0.0
 70
   128
 71
   499
 72
   497
 73
   417
 74
   420
  0
VERTEX
  5
6B4
  8
METAL
 10
0.0
 20
0.0
 30
0.0
 70
   128
 71
   342
 72
   391
 73
   473
 74
   424
  0
VERTEX
  5
6B5
  8
METAL
 10
0.0
 20
0.0
 30
0.0
 70
   128
 71
   346
 72
   343
 73
   425
 74
   428
  0
VERTEX
  5
6B6
  8
METAL
 10
0.0
 20
0.0
 30
0.0
 70
   128
 71
   350
 72
   347
 73
   429
 74
   431
  0
VERTEX
  5
6B7
  8
METAL
 10
0.0
 20
0.0
 30
0.0
 70
   128
 71
   354
 72
   352
 73
   433
 74
   435
  0
VERTEX
  5
6B8
  8
METAL
 10
0.0
 20
0.0
 30
0.0
 70
   128
 71
   362
 72
   356
 73
   437
 74
   443
  0
VERTEX
  5
6B9
  8
METAL
 10
0.0
 20
0.0
 30
0.0
 70
   128
 71
   359
 72
   365
 73
   444
 74
   438
  0
VERTEX
  5
6BA
  8
METAL
 10
0.0
 20
0.0
 30
0.0
 70
   128
 71
   399
 72
   361
 73
   440
 74
   478
  0
VERTEX
  5
6BB
  8
METAL
 10
0.0
 20
0.0
 30
0.0
 70
   128
 71
   390
 72
   386
 73
   468
 74
   472
  0
VERTEX
  5
6BC
  8
METAL
 10
0.0
 20
0.0
 30
0.0
 70
   128
 71
   387
 72
   382
 73
   464
 74
   469
  0
VERTEX
  5
6BD
  8
METAL
 10
0.0
 20
0.0
 30
0.0
 70
   128
 71
   383
 72
   378
 73
   459
 74
   465
  0
VERTEX
  5
6BE
  8
METAL
 10
0.0
 20
0.0
 30
0.0
 70
   128
 71
   380
 72
   370
 73
   451
 74
   461
  0
VERTEX
  5
6BF
  8
METAL
 10
0.0
 20
0.0
 30
0.0
 70
   128
 71
   372
 72
   366
 73
   447
 74
   453
  0
VERTEX
  5
6C0
  8
METAL
 10
0.0
 20
0.0
 30
0.0
 70
   128
 71
   369
 72
   375
 73
   454
 74
   448
  0
VERTEX
  5
6C1
  8
METAL
 10
0.0
 20
0.0
 30
0.0
 70
   128
 71
   377
 72
   335
 73
   414
 74
   456
  0
VERTEX
  5
6C2
  8
METAL
 10
0.0
 20
0.0
 30
0.0
 70
   128
 71
   402
 72
   407
 73
   329
 74
   324
  0
VERTEX
  5
6C3
  8
METAL
 10
0.0
 20
0.0
 30
0.0
 70
   128
 71
   406
 72
   419
 73
   341
 74
   328
  0
VERTEX
  5
6C4
  8
METAL
 10
0.0
 20
0.0
 30
0.0
 70
   128
 71
   411
 72
   403
 73
   325
 74
   333
  0
VERTEX
  5
6C5
  8
METAL
 10
0.0
 20
0.0
 30
0.0
 70
   128
 71
   475
 72
   410
 73
   332
 74
   397
  0
VERTEX
  5
6C6
  8
METAL
 10
0.0
 20
0.0
 30
0.0
 70
   128
 71
   480
 72
   474
 73
   396
 74
   401
  0
VERTEX
  5
6C7
  8
METAL
 10
0.0
 20
0.0
 30
0.0
 70
   128
 71
   418
 72
   416
 73
   337
 74
   340
  0
VERTEX
  5
6C8
  8
METAL
 10
0.0
 20
0.0
 30
0.0
 70
   128
 71
   262
 72
   311
 73
   393
 74
   344
  0
VERTEX
  5
6C9
  8
METAL
 10
0.0
 20
0.0
 30
0.0
 70
   128
 71
   266
 72
   263
 73
   345
 74
   348
  0
VERTEX
  5
6CA
  8
METAL
 10
0.0
 20
0.0
 30
0.0
 70
   128
 71
   270
 72
   267
 73
   349
 74
   351
  0
VERTEX
  5
6CB
  8
METAL
 10
0.0
 20
0.0
 30
0.0
 70
   128
 71
   274
 72
   271
 73
   353
 74
   355
  0
VERTEX
  5
6CC
  8
METAL
 10
0.0
 20
0.0
 30
0.0
 70
   128
 71
   282
 72
   275
 73
   357
 74
   363
  0
VERTEX
  5
6CD
  8
METAL
 10
0.0
 20
0.0
 30
0.0
 70
   128
 71
   280
 72
   285
 73
   364
 74
   358
  0
VERTEX
  5
6CE
  8
METAL
 10
0.0
 20
0.0
 30
0.0
 70
   128
 71
   320
 72
   281
 73
   360
 74
   398
  0
VERTEX
  5
6CF
  8
METAL
 10
0.0
 20
0.0
 30
0.0
 70
   128
 71
   310
 72
   306
 73
   388
 74
   392
  0
VERTEX
  5
6D0
  8
METAL
 10
0.0
 20
0.0
 30
0.0
 70
   128
 71
   307
 72
   302
 73
   384
 74
   389
  0
VERTEX
  5
6D1
  8
METAL
 10
0.0
 20
0.0
 30
0.0
 70
   128
 71
   303
 72
   298
 73
   379
 74
   385
  0
VERTEX
  5
6D2
  8
METAL
 10
0.0
 20
0.0
 30
0.0
 70
   128
 71
   299
 72
   290
 73
   371
 74
   381
  0
VERTEX
  5
6D3
  8
METAL
 10
0.0
 20
0.0
 30
0.0
 70
   128
 71
   291
 72
   286
 73
   367
 74
   373
  0
VERTEX
  5
6D4
  8
METAL
 10
0.0
 20
0.0
 30
0.0
 70
   128
 71
   289
 72
   296
 73
   374
 74
   368
  0
VERTEX
  5
6D5
  8
METAL
 10
0.0
 20
0.0
 30
0.0
 70
   128
 71
   297
 72
   256
 73
   334
 74
   376
  0
VERTEX
  5
6D6
  8
METAL
 10
0.0
 20
0.0
 30
0.0
 70
   128
 71
   322
 72
   327
 73
   249
 74
   244
  0
VERTEX
  5
6D7
  8
METAL
 10
0.0
 20
0.0
 30
0.0
 70
   128
 71
   326
 72
   339
 73
   261
 74
   248
  0
VERTEX
  5
6D8
  8
METAL
 10
0.0
 20
0.0
 30
0.0
 70
   128
 71
   331
 72
   323
 73
   245
 74
   253
  0
VERTEX
  5
6D9
  8
METAL
 10
0.0
 20
0.0
 30
0.0
 70
   128
 71
   395
 72
   330
 73
   252
 74
   317
  0
VERTEX
  5
6DA
  8
METAL
 10
0.0
 20
0.0
 30
0.0
 70
   128
 71
   400
 72
   394
 73
   316
 74
   321
  0
VERTEX
  5
6DB
  8
METAL
 10
0.0
 20
0.0
 30
0.0
 70
   128
 71
   338
 72
   336
 73
   257
 74
   260
  0
VERTEX
  5
6DC
  8
METAL
 10
0.0
 20
0.0
 30
0.0
 70
   128
 71
   209
 72
   201
 73
   313
 74
   265
  0
VERTEX
  5
6DD
  8
METAL
 10
0.0
 20
0.0
 30
0.0
 70
   128
 71
   217
 72
   208
 73
   264
 74
   269
  0
VERTEX
  5
6DE
  8
METAL
 10
0.0
 20
0.0
 30
0.0
 70
   128
 71
   225
 72
   216
 73
   268
 74
   273
  0
VERTEX
  5
6DF
  8
METAL
 10
0.0
 20
0.0
 30
0.0
 70
   128
 71
   233
 72
   224
 73
   272
 74
   277
  0
VERTEX
  5
6E0
  8
METAL
 10
0.0
 20
0.0
 30
0.0
 70
   128
 71
   241
 72
   232
 73
   276
 74
   284
  0
VERTEX
  5
6E1
  8
METAL
 10
0.0
 20
0.0
 30
0.0
 70
   128
 71
   237
 72
   240
 73
   283
 74
   279
  0
VERTEX
  5
6E2
  8
METAL
 10
0.0
 20
0.0
 30
0.0
 70
   128
 71
   229
 72
   236
 73
   278
 74
   319
  0
VERTEX
  5
6E3
  8
METAL
 10
0.0
 20
0.0
 30
0.0
 70
   128
 71
   200
 72
   193
 73
   309
 74
   312
  0
VERTEX
  5
6E4
  8
METAL
 10
0.0
 20
0.0
 30
0.0
 70
   128
 71
   192
 72
   185
 73
   305
 74
   308
  0
VERTEX
  5
6E5
  8
METAL
 10
0.0
 20
0.0
 30
0.0
 70
   128
 71
   184
 72
   177
 73
   301
 74
   304
  0
VERTEX
  5
6E6
  8
METAL
 10
0.0
 20
0.0
 30
0.0
 70
   128
 71
   176
 72
   169
 73
   293
 74
   300
  0
VERTEX
  5
6E7
  8
METAL
 10
0.0
 20
0.0
 30
0.0
 70
   128
 71
   168
 72
   165
 73
   288
 74
   292
  0
VERTEX
  5
6E8
  8
METAL
 10
0.0
 20
0.0
 30
0.0
 70
   128
 71
   164
 72
   173
 73
   295
 74
   287
  0
VERTEX
  5
6E9
  8
METAL
 10
0.0
 20
0.0
 30
0.0
 70
   128
 71
   172
 72
   181
 73
   255
 74
   294
  0
SEQEND
  5
7DF
  8
METAL
  0
POLYLINE
  5
6EB
  8
METAL
 66
     1
 10
0.0
 20
0.0
 30
0.0
 70
    64
 71
    42
 72
    19
  0
VERTEX
  5
6EC
  8
METAL
 10
102.6404113769531
 20
-19.61773300170898
 30
0.4622192382812003
 70
   192
  0
VERTEX
  5
6ED
  8
METAL
 10
102.6404113769531
 20
-19.61773300170898
 30
0.4622192382812003
 70
   192
  0
VERTEX
  5
6EE
  8
METAL
 10
102.6404113769531
 20
0.0
 30
0.4622192382812003
 70
   192
  0
VERTEX
  5
6EF
  8
METAL
 10
102.6404113769531
 20
0.0
 30
0.4622192382812003
 70
   192
  0
VERTEX
  5
6F0
  8
METAL
 10
101.8703002929688
 20
-19.61773300170904
 30
2.83239746093739
 70
   192
  0
VERTEX
  5
6F1
  8
METAL
 10
101.8703002929688
 20
-19.61773300170904
 30
2.83239746093739
 70
   192
  0
VERTEX
  5
6F2
  8
METAL
 10
101.8703002929688
 20
-0.0000000000000568
 30
2.83239746093739
 70
   192
  0
VERTEX
  5
6F3
  8
METAL
 10
101.8703002929688
 20
-0.0000000000000568
 30
2.83239746093739
 70
   192
  0
VERTEX
  5
6F4
  8
METAL
 10
101.8703002929688
 20
-19.61773300170898
 30
-1.907928466796925
 70
   192
  0
VERTEX
  5
6F5
  8
METAL
 10
101.8703002929688
 20
-19.61773300170898
 30
-1.907928466796925
 70
   192
  0
VERTEX
  5
6F6
  8
METAL
 10
101.8703002929688
 20
0.0
 30
-1.907928466796925
 70
   192
  0
VERTEX
  5
6F7
  8
METAL
 10
101.8703002929688
 20
0.0
 30
-1.907928466796925
 70
   192
  0
VERTEX
  5
6F8
  8
METAL
 10
99.85411071777341
 20
-19.61773300170904
 30
4.297210693359331
 70
   192
  0
VERTEX
  5
6F9
  8
METAL
 10
99.85411071777341
 20
-19.61773300170904
 30
4.297210693359331
 70
   192
  0
VERTEX
  5
6FA
  8
METAL
 10
99.85411071777341
 20
-0.0000000000000568
 30
4.297210693359331
 70
   192
  0
VERTEX
  5
6FB
  8
METAL
 10
99.85411071777341
 20
-0.0000000000000568
 30
4.297210693359331
 70
   192
  0
VERTEX
  5
6FC
  8
METAL
 10
99.85411071777341
 20
-19.61773300170898
 30
-3.372772216796925
 70
   192
  0
VERTEX
  5
6FD
  8
METAL
 10
99.85411071777341
 20
-19.61773300170898
 30
-3.372772216796925
 70
   192
  0
VERTEX
  5
6FE
  8
METAL
 10
99.85411071777341
 20
0.0
 30
-3.372772216796925
 70
   192
  0
VERTEX
  5
6FF
  8
METAL
 10
99.85411071777341
 20
0.0
 30
-3.372772216796925
 70
   192
  0
VERTEX
  5
700
  8
METAL
 10
97.3619842529296
 20
-19.61773300170904
 30
4.297210693359331
 70
   192
  0
VERTEX
  5
701
  8
METAL
 10
97.3619842529296
 20
-19.61773300170904
 30
4.297210693359331
 70
   192
  0
VERTEX
  5
702
  8
METAL
 10
97.3619842529296
 20
-19.61773300170904
 30
4.297210693359331
 70
   192
  0
VERTEX
  5
703
  8
METAL
 10
97.3619842529296
 20
-0.0000000000000568
 30
4.297210693359331
 70
   192
  0
VERTEX
  5
704
  8
METAL
 10
97.3619842529296
 20
-0.0000000000000568
 30
4.297210693359331
 70
   192
  0
VERTEX
  5
705
  8
METAL
 10
97.3619842529296
 20
-0.0000000000000568
 30
4.297210693359331
 70
   192
  0
VERTEX
  5
706
  8
METAL
 10
97.3619842529296
 20
-19.61773300170898
 30
-3.372772216796925
 70
   192
  0
VERTEX
  5
707
  8
METAL
 10
97.3619842529296
 20
-19.61773300170898
 30
-3.372772216796925
 70
   192
  0
VERTEX
  5
708
  8
METAL
 10
97.3619842529296
 20
0.0
 30
-3.372772216796925
 70
   192
  0
VERTEX
  5
709
  8
METAL
 10
97.3619842529296
 20
0.0
 30
-3.372772216796925
 70
   192
  0
VERTEX
  5
70A
  8
METAL
 10
95.34579467773429
 20
-19.61773300170904
 30
2.83239746093739
 70
   192
  0
VERTEX
  5
70B
  8
METAL
 10
95.34579467773429
 20
-19.61773300170904
 30
2.83239746093739
 70
   192
  0
VERTEX
  5
70C
  8
METAL
 10
95.34579467773429
 20
-0.0000000000000568
 30
2.83239746093739
 70
   192
  0
VERTEX
  5
70D
  8
METAL
 10
95.34579467773429
 20
-0.0000000000000568
 30
2.83239746093739
 70
   192
  0
VERTEX
  5
70E
  8
METAL
 10
95.34579467773429
 20
-19.61773300170898
 30
-1.907958984374993
 70
   192
  0
VERTEX
  5
70F
  8
METAL
 10
95.34579467773429
 20
-19.61773300170898
 30
-1.907958984374993
 70
   192
  0
VERTEX
  5
710
  8
METAL
 10
95.34579467773429
 20
0.0
 30
-1.907958984374993
 70
   192
  0
VERTEX
  5
711
  8
METAL
 10
95.34579467773429
 20
0.0
 30
-1.907958984374993
 70
   192
  0
VERTEX
  5
712
  8
METAL
 10
94.57568359375
 20
-19.61773300170898
 30
0.4622192382812003
 70
   192
  0
VERTEX
  5
713
  8
METAL
 10
94.57568359375
 20
-19.61773300170898
 30
0.4622192382812003
 70
   192
  0
VERTEX
  5
714
  8
METAL
 10
94.57568359375
 20
0.0
 30
0.4622192382812003
 70
   192
  0
VERTEX
  5
715
  8
METAL
 10
94.57568359375
 20
0.0
 30
0.4622192382812003
 70
   192
  0
VERTEX
  5
716
  8
METAL
 10
0.0
 20
0.0
 30
0.0
 70
   128
 71
     3
 72
     7
 73
     5
 74
     1
  0
VERTEX
  5
717
  8
METAL
 10
0.0
 20
0.0
 30
0.0
 70
   128
 71
     7
 72
    15
 73
    13
 74
     5
  0
VERTEX
  5
718
  8
METAL
 10
0.0
 20
0.0
 30
0.0
 70
   128
 71
    15
 72
    25
 73
    22
 74
    13
  0
VERTEX
  5
719
  8
METAL
 10
0.0
 20
0.0
 30
0.0
 70
   128
 71
    26
 72
    34
 73
    32
 74
    23
  0
VERTEX
  5
71A
  8
METAL
 10
0.0
 20
0.0
 30
0.0
 70
   128
 71
    34
 72
    42
 73
    40
 74
    32
  0
VERTEX
  5
71B
  8
METAL
 10
0.0
 20
0.0
 30
0.0
 70
   128
 71
    42
 72
    38
 73
    36
 74
    40
  0
VERTEX
  5
71C
  8
METAL
 10
0.0
 20
0.0
 30
0.0
 70
   128
 71
    38
 72
    30
 73
    28
 74
    36
  0
VERTEX
  5
71D
  8
METAL
 10
0.0
 20
0.0
 30
0.0
 70
   128
 71
    30
 72
    19
 73
    17
 74
    28
  0
VERTEX
  5
71E
  8
METAL
 10
0.0
 20
0.0
 30
0.0
 70
   128
 71
    19
 72
    11
 73
     9
 74
    17
  0
VERTEX
  5
71F
  8
METAL
 10
0.0
 20
0.0
 30
0.0
 70
   128
 71
    11
 72
     3
 73
     1
 74
     9
  0
VERTEX
  5
720
  8
METAL
 10
0.0
 20
0.0
 30
0.0
 70
   128
 71
     6
 72
    14
 73
    21
 74
    10
  0
VERTEX
  5
721
  8
METAL
 10
0.0
 20
0.0
 30
0.0
 70
   128
 71
    21
 72
    31
 73
    39
 74
    10
  0
VERTEX
  5
722
  8
METAL
 10
0.0
 20
0.0
 30
0.0
 70
   128
 71
    39
 72
    35
 73
    27
 74
    10
  0
VERTEX
  5
723
  8
METAL
 10
0.0
 20
0.0
 30
0.0
 70
   128
 71
    27
 72
    18
 73
    10
 74
    10
  0
VERTEX
  5
724
  8
METAL
 10
0.0
 20
0.0
 30
0.0
 70
   128
 71
     2
 72
     6
 73
    10
 74
    10
  0
VERTEX
  5
725
  8
METAL
 10
0.0
 20
0.0
 30
0.0
 70
   128
 71
    41
 72
    33
 73
     8
 74
     4
  0
VERTEX
  5
726
  8
METAL
 10
0.0
 20
0.0
 30
0.0
 70
   128
 71
    12
 72
    37
 73
    41
 74
     4
  0
VERTEX
  5
727
  8
METAL
 10
0.0
 20
0.0
 30
0.0
 70
   128
 71
    20
 72
    29
 73
    37
 74
    12
  0
VERTEX
  5
728
  8
METAL
 10
0.0
 20
0.0
 30
0.0
 70
   128
 71
    24
 72
    16
 73
     8
 74
    33
  0
SEQEND
  5
7E0
  8
METAL
  0
ENDSEC
  0
EOF
