  0
SECTION
  2
HEADER
  9
$ACADVER
  1
AC1009
  9
$DWGCODEPAGE
  3
ansi_1252
  9
$INSBASE
 10
0.0
 20
0.0
 30
0.0
  9
$EXTMIN
 10
-101.0
 20
-29.11085510253906
 30
-5.0
  9
$EXTMAX
 10
101.0326843261719
 20
0.0
 30
5.237173080444336
  9
$LIMMIN
 10
0.0
 20
0.0
  9
$LIMMAX
 10
12.0
 20
9.0
  9
$ORTHOMODE
 70
     1
  9
$REGENMODE
 70
     1
  9
$FILLMODE
 70
     1
  9
$QTEXTMODE
 70
     0
  9
$MIRRTEXT
 70
     1
  9
$DRAGMODE
 70
     2
  9
$LTSCALE
 40
1.0
  9
$OSMODE
 70
    37
  9
$ATTMODE
 70
     1
  9
$TEXTSIZE
 40
0.2
  9
$TRACEWID
 40
0.05
  9
$TEXTSTYLE
  7
STANDARD
  9
$CLAYER
  8
0
  9
$CELTYPE
  6
BYLAYER
  9
$CECOLOR
 62
   256
  9
$DIMSCALE
 40
1.0
  9
$DIMASZ
 40
0.18
  9
$DIMEXO
 40
0.0625
  9
$DIMDLI
 40
0.38
  9
$DIMRND
 40
0.0
  9
$DIMDLE
 40
0.0
  9
$DIMEXE
 40
0.18
  9
$DIMTP
 40
0.0
  9
$DIMTM
 40
0.0
  9
$DIMTXT
 40
0.18
  9
$DIMCEN
 40
0.09
  9
$DIMTSZ
 40
0.0
  9
$DIMTOL
 70
     0
  9
$DIMLIM
 70
     0
  9
$DIMTIH
 70
     1
  9
$DIMTOH
 70
     1
  9
$DIMSE1
 70
     0
  9
$DIMSE2
 70
     0
  9
$DIMTAD
 70
     0
  9
$DIMZIN
 70
     0
  9
$DIMBLK
  1

  9
$DIMASO
 70
     1
  9
$DIMSHO
 70
     1
  9
$DIMPOST
  1

  9
$DIMAPOST
  1

  9
$DIMALT
 70
     0
  9
$DIMALTD
 70
     2
  9
$DIMALTF
 40
25.4
  9
$DIMLFAC
 40
1.0
  9
$DIMTOFL
 70
     0
  9
$DIMTVP
 40
0.0
  9
$DIMTIX
 70
     0
  9
$DIMSOXD
 70
     0
  9
$DIMSAH
 70
     0
  9
$DIMBLK1
  1

  9
$DIMBLK2
  1

  9
$DIMSTYLE
  2
STANDARD
  9
$DIMCLRD
 70
     0
  9
$DIMCLRE
 70
     0
  9
$DIMCLRT
 70
     0
  9
$DIMTFAC
 40
1.0
  9
$DIMGAP
 40
0.09
  9
$LUNITS
 70
     2
  9
$LUPREC
 70
     3
  9
$SKETCHINC
 40
0.1
  9
$FILLETRAD
 40
0.5
  9
$AUNITS
 70
     0
  9
$AUPREC
 70
     0
  9
$MENU
  1
.
  9
$ELEVATION
 40
0.0
  9
$PELEVATION
 40
0.0
  9
$THICKNESS
 40
0.0
  9
$LIMCHECK
 70
     0
  9
$CHAMFERA
 40
0.5
  9
$CHAMFERB
 40
0.5
  9
$SKPOLY
 70
     0
  9
$TDCREATE
 40
2456499.558904468
  9
$TDUPDATE
 40
2456499.558904479
  9
$TDINDWG
 40
0.0009143634
  9
$TDUSRTIMER
 40
0.0009143634
  9
$USRTIMER
 70
     1
  9
$ANGBASE
 50
0.0
  9
$ANGDIR
 70
     0
  9
$PDMODE
 70
     0
  9
$PDSIZE
 40
0.0
  9
$PLINEWID
 40
0.0
  9
$COORDS
 70
     1
  9
$SPLFRAME
 70
     0
  9
$SPLINETYPE
 70
     6
  9
$SPLINESEGS
 70
     8
  9
$ATTDIA
 70
     0
  9
$ATTREQ
 70
     1
  9
$HANDLING
 70
     1
  9
$HANDSEED
  5
164
  9
$SURFTAB1
 70
     6
  9
$SURFTAB2
 70
     6
  9
$SURFTYPE
 70
     6
  9
$SURFU
 70
     6
  9
$SURFV
 70
     6
  9
$UCSNAME
  2

  9
$UCSORG
 10
0.0
 20
0.0
 30
0.0
  9
$UCSXDIR
 10
1.0
 20
0.0
 30
0.0
  9
$UCSYDIR
 10
0.0
 20
0.0
 30
1.0
  9
$PUCSNAME
  2

  9
$PUCSORG
 10
0.0
 20
0.0
 30
0.0
  9
$PUCSXDIR
 10
1.0
 20
0.0
 30
0.0
  9
$PUCSYDIR
 10
0.0
 20
1.0
 30
0.0
  9
$USERI1
 70
     0
  9
$USERI2
 70
     0
  9
$USERI3
 70
     0
  9
$USERI4
 70
     0
  9
$USERI5
 70
     0
  9
$USERR1
 40
0.0
  9
$USERR2
 40
0.0
  9
$USERR3
 40
0.0
  9
$USERR4
 40
0.0
  9
$USERR5
 40
0.0
  9
$WORLDVIEW
 70
     1
  9
$SHADEDGE
 70
     3
  9
$SHADEDIF
 70
    70
  9
$TILEMODE
 70
     1
  9
$MAXACTVP
 70
    64
  9
$PLIMCHECK
 70
     0
  9
$PEXTMIN
 10
1.000000000000000E+20
 20
1.000000000000000E+20
 30
1.000000000000000E+20
  9
$PEXTMAX
 10
-1.000000000000000E+20
 20
-1.000000000000000E+20
 30
-1.000000000000000E+20
  9
$PLIMMIN
 10
0.0
 20
0.0
  9
$PLIMMAX
 10
12.0
 20
9.0
  9
$UNITMODE
 70
     0
  9
$VISRETAIN
 70
     1
  9
$PLINEGEN
 70
     0
  9
$PSLTSCALE
 70
     1
  0
ENDSEC
  0
SECTION
  2
TABLES
  0
TABLE
  2
VPORT
 70
     1
  0
VPORT
  2
*ACTIVE
 70
     0
 10
0.0
 20
0.0
 11
1.0
 21
1.0
 12
10.30379717890951
 22
-5.838731249998633
 13
0.0
 23
0.0
 14
0.5
 24
0.5
 15
0.5
 25
0.5
 16
-1.0
 26
-1.0
 36
1.0
 17
0.0
 27
0.0
 37
0.0
 40
130.9712788436595
 41
17.97895991099064
 42
50.0
 43
0.0
 44
0.0
 50
0.0
 51
0.0
 71
    16
 72
   100
 73
     0
 74
     1
 75
     0
 76
     0
 77
     0
 78
     0
  0
ENDTAB
  0
TABLE
  2
LTYPE
 70
     1
  0
LTYPE
  2
CONTINUOUS
 70
     0
  3
Solid line
 72
    65
 73
     0
 40
0.0
  0
ENDTAB
  0
TABLE
  2
LAYER
 70
     2
  0
LAYER
  2
0
 70
     0
 62
     7
  6
CONTINUOUS
  0
LAYER
  2
METAL
 70
     0
 62
   190
  6
CONTINUOUS
  0
ENDTAB
  0
TABLE
  2
STYLE
 70
     1
  0
STYLE
  2
STANDARD
 70
     0
 40
0.0
 41
1.0
 50
0.0
 71
     0
 42
0.2
  3
txt
  4

  0
ENDTAB
  0
TABLE
  2
VIEW
 70
     0
  0
ENDTAB
  0
TABLE
  2
UCS
 70
     0
  0
ENDTAB
  0
TABLE
  2
APPID
 70
     1
  0
APPID
  2
ACAD
 70
     0
  0
ENDTAB
  0
TABLE
  2
DIMSTYLE
 70
     1
  0
DIMSTYLE
  2
STANDARD
 70
     0
  3

  4

  5

  6

  7

 40
1.0
 41
0.18
 42
0.0625
 43
0.38
 44
0.18
 45
0.0
 46
0.0
 47
0.0
 48
0.0
140
0.18
141
0.09
142
0.0
143
25.4
144
1.0
145
0.0
146
1.0
147
0.09
 71
     0
 72
     0
 73
     1
 74
     1
 75
     0
 76
     0
 77
     0
 78
     0
170
     0
171
     2
172
     0
173
     0
174
     0
175
     0
176
     0
177
     0
178
     0
  0
ENDTAB
  0
ENDSEC
  0
SECTION
  2
BLOCKS
  0
BLOCK
  8
0
  2
$MODEL_SPACE
 70
     0
 10
0.0
 20
0.0
 30
0.0
  3
$MODEL_SPACE
  1

  0
ENDBLK
  5
21
  8
0
  0
BLOCK
 67
     1
  8
0
  2
$PAPER_SPACE
 70
     0
 10
0.0
 20
0.0
 30
0.0
  3
$PAPER_SPACE
  1

  0
ENDBLK
  5
76
 67
     1
  8
0
  0
ENDSEC
  0
SECTION
  2
ENTITIES
  0
POLYLINE
  5
3C
  8
METAL
 66
     1
 10
0.0
 20
0.0
 30
0.0
 70
    64
 71
   166
 72
   100
  0
VERTEX
  5
3D
  8
METAL
 10
101.0326843261719
 20
-0.000000000000002
 30
5.237173080444336
 70
   192
  0
VERTEX
  5
3E
  8
METAL
 10
101.0326843261719
 20
-0.000000000000002
 30
5.237173080444336
 70
   192
  0
VERTEX
  5
3F
  8
METAL
 10
101.0326843261719
 20
-0.000000000000002
 30
5.237173080444336
 70
   192
  0
VERTEX
  5
40
  8
METAL
 10
101.0326843261719
 20
-22.94282913208007
 30
1.579897046089169
 70
   192
  0
VERTEX
  5
41
  8
METAL
 10
101.0326843261719
 20
-22.94282913208007
 30
1.579897046089169
 70
   192
  0
VERTEX
  5
42
  8
METAL
 10
101.0326843261719
 20
-22.94282913208007
 30
1.579897046089169
 70
   192
  0
VERTEX
  5
43
  8
METAL
 10
101.0326843261719
 20
-22.94282913208007
 30
0.1185860186815217
 70
   192
  0
VERTEX
  5
44
  8
METAL
 10
101.0326843261719
 20
-22.94282913208007
 30
0.1185860186815217
 70
   192
  0
VERTEX
  5
45
  8
METAL
 10
101.0326843261719
 20
-0.000000000000001
 30
0.1185860186815262
 70
   192
  0
VERTEX
  5
46
  8
METAL
 10
101.0326843261719
 20
-0.000000000000001
 30
0.1185860186815262
 70
   192
  0
VERTEX
  5
47
  8
METAL
 10
101.0326843261719
 20
-22.94282913208007
 30
-1.342723965644841
 70
   192
  0
VERTEX
  5
48
  8
METAL
 10
101.0326843261719
 20
-22.94282913208007
 30
-1.342723965644841
 70
   192
  0
VERTEX
  5
49
  8
METAL
 10
101.0326843261719
 20
-22.94282913208007
 30
-1.342723965644841
 70
   192
  0
VERTEX
  5
4A
  8
METAL
 10
101.0326843261719
 20
0.0
 30
-5.0
 70
   192
  0
VERTEX
  5
4B
  8
METAL
 10
101.0326843261719
 20
0.0
 30
-5.0
 70
   192
  0
VERTEX
  5
4C
  8
METAL
 10
101.0326843261719
 20
0.0
 30
-5.0
 70
   192
  0
VERTEX
  5
4D
  8
METAL
 10
91.74386596679688
 20
-0.000000000000002
 30
5.237173080444336
 70
   192
  0
VERTEX
  5
4E
  8
METAL
 10
91.74386596679688
 20
-0.000000000000002
 30
5.237173080444336
 70
   192
  0
VERTEX
  5
4F
  8
METAL
 10
91.74386596679688
 20
-17.23583221435546
 30
4.922324180603024
 70
   192
  0
VERTEX
  5
50
  8
METAL
 10
91.74386596679688
 20
-24.13134765625
 30
1.579897046089168
 70
   192
  0
VERTEX
  5
51
  8
METAL
 10
91.74386596679688
 20
-24.13134765625
 30
1.579897046089168
 70
   192
  0
VERTEX
  5
52
  8
METAL
 10
91.74386596679688
 20
-24.13135147094726
 30
0.1185860186815217
 70
   192
  0
VERTEX
  5
53
  8
METAL
 10
91.74386596679688
 20
-0.000000000000001
 30
0.1185860186815262
 70
   192
  0
VERTEX
  5
54
  8
METAL
 10
91.74386596679688
 20
-24.13134765625
 30
-1.342723965644841
 70
   192
  0
VERTEX
  5
55
  8
METAL
 10
91.74386596679688
 20
-24.13134765625
 30
-1.342723965644841
 70
   192
  0
VERTEX
  5
56
  8
METAL
 10
91.74386596679688
 20
-17.23583221435546
 30
-4.685151100158695
 70
   192
  0
VERTEX
  5
57
  8
METAL
 10
91.74386596679688
 20
0.0
 30
-5.0
 70
   192
  0
VERTEX
  5
58
  8
METAL
 10
91.74386596679688
 20
0.0
 30
-5.0
 70
   192
  0
VERTEX
  5
154
  8
METAL
 10
80.378662109375
 20
-18.59810638427734
 30
3.995567798614498
 70
   192
  0
VERTEX
  5
155
  8
METAL
 10
80.378662109375
 20
-18.59810638427734
 30
3.995567798614498
 70
   192
  0
VERTEX
  5
5B
  8
METAL
 10
80.378662109375
 20
-25.52783966064453
 30
1.579897046089168
 70
   192
  0
VERTEX
  5
5C
  8
METAL
 10
80.378662109375
 20
-25.52783966064453
 30
1.579897046089168
 70
   192
  0
VERTEX
  5
5D
  8
METAL
 10
80.378662109375
 20
-25.52784347534179
 30
0.1185860186815217
 70
   192
  0
VERTEX
  5
156
  8
METAL
 10
80.378662109375
 20
-18.59810256958007
 30
0.1185860186815226
 70
   192
  0
VERTEX
  5
5F
  8
METAL
 10
80.378662109375
 20
-25.52783966064453
 30
-1.342723965644841
 70
   192
  0
VERTEX
  5
60
  8
METAL
 10
80.378662109375
 20
-25.52783966064453
 30
-1.342723965644841
 70
   192
  0
VERTEX
  5
61
  8
METAL
 10
80.378662109375
 20
-18.59810638427734
 30
-3.758395195007328
 70
   192
  0
VERTEX
  5
62
  8
METAL
 10
80.378662109375
 20
-18.59810638427734
 30
-3.758395195007328
 70
   192
  0
VERTEX
  5
63
  8
METAL
 10
66.62964630126953
 20
-19.80327224731445
 30
3.995567798614498
 70
   192
  0
VERTEX
  5
64
  8
METAL
 10
66.62964630126953
 20
-19.80327224731445
 30
3.995567798614498
 70
   192
  0
VERTEX
  5
65
  8
METAL
 10
66.62964630126953
 20
-26.86891174316406
 30
1.579897046089168
 70
   192
  0
VERTEX
  5
66
  8
METAL
 10
66.62964630126953
 20
-26.86891174316406
 30
1.579897046089168
 70
   192
  0
VERTEX
  5
67
  8
METAL
 10
66.62964630126953
 20
-26.86891174316406
 30
0.1185860186815209
 70
   192
  0
VERTEX
  5
68
  8
METAL
 10
66.62964630126953
 20
-19.80326843261718
 30
0.1185860186815226
 70
   192
  0
VERTEX
  5
69
  8
METAL
 10
66.62964630126953
 20
-26.86891174316406
 30
-1.342723965644841
 70
   192
  0
VERTEX
  5
6A
  8
METAL
 10
66.62964630126953
 20
-26.86891174316406
 30
-1.342723965644841
 70
   192
  0
VERTEX
  5
157
  8
METAL
 10
66.62964630126953
 20
-19.80327224731445
 30
-3.758395195007328
 70
   192
  0
VERTEX
  5
158
  8
METAL
 10
66.62964630126953
 20
-19.80327224731445
 30
-3.758395195007328
 70
   192
  0
VERTEX
  5
6D
  8
METAL
 10
49.42813110351562
 20
-20.69128799438476
 30
3.995567798614498
 70
   192
  0
VERTEX
  5
6E
  8
METAL
 10
49.42813110351562
 20
-20.69128799438476
 30
3.995567798614498
 70
   192
  0
VERTEX
  5
6F
  8
METAL
 10
49.42813110351562
 20
-27.68753814697265
 30
1.579897046089168
 70
   192
  0
VERTEX
  5
70
  8
METAL
 10
49.42813110351562
 20
-27.68753814697265
 30
1.579897046089168
 70
   192
  0
VERTEX
  5
71
  8
METAL
 10
49.42813110351562
 20
-27.68753814697265
 30
0.1185860186815209
 70
   192
  0
VERTEX
  5
72
  8
METAL
 10
49.42813110351562
 20
-20.6912841796875
 30
0.1185860186815226
 70
   192
  0
VERTEX
  5
159
  8
METAL
 10
49.42813110351562
 20
-27.68753814697265
 30
-1.342723965644842
 70
   192
  0
VERTEX
  5
15A
  8
METAL
 10
49.42813110351562
 20
-27.68753814697265
 30
-1.342723965644842
 70
   192
  0
VERTEX
  5
15B
  8
METAL
 10
49.42813110351562
 20
-20.69128799438476
 30
-3.758395195007328
 70
   192
  0
VERTEX
  5
15C
  8
METAL
 10
49.42813110351562
 20
-20.69128799438476
 30
-3.758395195007328
 70
   192
  0
VERTEX
  5
77
  8
METAL
 10
32.22660827636722
 20
-21.4440689086914
 30
3.995567798614498
 70
   192
  0
VERTEX
  5
78
  8
METAL
 10
32.22660827636722
 20
-21.4440689086914
 30
3.995567798614498
 70
   192
  0
VERTEX
  5
79
  8
METAL
 10
32.22660827636722
 20
-28.62263488769531
 30
1.579897046089168
 70
   192
  0
VERTEX
  5
7A
  8
METAL
 10
32.22660827636722
 20
-28.62263488769531
 30
1.579897046089168
 70
   192
  0
VERTEX
  5
7B
  8
METAL
 10
32.22660827636722
 20
-28.62263488769531
 30
0.1185860186815209
 70
   192
  0
VERTEX
  5
7C
  8
METAL
 10
32.22660827636722
 20
-21.4440689086914
 30
0.1185860186815217
 70
   192
  0
VERTEX
  5
7D
  8
METAL
 10
32.22660827636722
 20
-28.62263488769531
 30
-1.342723965644842
 70
   192
  0
VERTEX
  5
7E
  8
METAL
 10
32.22660827636722
 20
-28.62263488769531
 30
-1.342723965644842
 70
   192
  0
VERTEX
  5
7F
  8
METAL
 10
32.22660827636722
 20
-21.4440689086914
 30
-3.758395195007328
 70
   192
  0
VERTEX
  5
80
  8
METAL
 10
32.22660827636722
 20
-21.4440689086914
 30
-3.758395195007328
 70
   192
  0
VERTEX
  5
81
  8
METAL
 10
15.90889739990236
 20
-21.79298019409179
 30
3.995567798614498
 70
   192
  0
VERTEX
  5
82
  8
METAL
 10
15.90889739990236
 20
-21.79298019409179
 30
3.995567798614498
 70
   192
  0
VERTEX
  5
83
  8
METAL
 10
15.90889739990236
 20
-28.93508148193359
 30
1.579897046089167
 70
   192
  0
VERTEX
  5
84
  8
METAL
 10
15.90889739990236
 20
-28.93508148193359
 30
1.579897046089167
 70
   192
  0
VERTEX
  5
85
  8
METAL
 10
15.90889739990236
 20
-28.93508148193359
 30
0.1185860186815209
 70
   192
  0
VERTEX
  5
86
  8
METAL
 10
15.90889739990236
 20
-21.79297637939453
 30
0.1185860186815217
 70
   192
  0
VERTEX
  5
87
  8
METAL
 10
15.90889739990236
 20
-28.93508148193359
 30
-1.342723965644842
 70
   192
  0
VERTEX
  5
88
  8
METAL
 10
15.90889739990236
 20
-28.93508148193359
 30
-1.342723965644842
 70
   192
  0
VERTEX
  5
89
  8
METAL
 10
15.90889739990236
 20
-21.79298019409179
 30
-3.758395195007328
 70
   192
  0
VERTEX
  5
8A
  8
METAL
 10
15.90889739990236
 20
-21.79298019409179
 30
-3.758395195007328
 70
   192
  0
VERTEX
  5
8B
  8
METAL
 10
0.0163419246673726
 20
-22.00426483154296
 30
3.995567798614498
 70
   192
  0
VERTEX
  5
8C
  8
METAL
 10
0.0163419246673726
 20
-22.00426483154296
 30
3.995567798614498
 70
   192
  0
VERTEX
  5
8D
  8
METAL
 10
0.0163419246673726
 20
-29.11085510253906
 30
1.579897046089167
 70
   192
  0
VERTEX
  5
8E
  8
METAL
 10
0.0163419246673726
 20
-29.11085510253906
 30
1.579897046089167
 70
   192
  0
VERTEX
  5
8F
  8
METAL
 10
0.0163419246673726
 20
-29.11085510253906
 30
0.1185860186815209
 70
   192
  0
VERTEX
  5
90
  8
METAL
 10
0.0163419246673726
 20
-22.00426483154296
 30
0.1185860186815217
 70
   192
  0
VERTEX
  5
91
  8
METAL
 10
0.0163419246673726
 20
-29.11085510253906
 30
-1.342723965644842
 70
   192
  0
VERTEX
  5
15D
  8
METAL
 10
0.0163419246673726
 20
-29.11085510253906
 30
-1.342723965644842
 70
   192
  0
VERTEX
  5
15E
  8
METAL
 10
0.0163419246673726
 20
-22.00426483154296
 30
-3.758396148681644
 70
   192
  0
VERTEX
  5
94
  8
METAL
 10
0.0163419246673726
 20
-22.00426483154296
 30
-3.758396148681644
 70
   192
  0
VERTEX
  5
95
  8
METAL
 10
-15.87621307373045
 20
-21.79298019409179
 30
3.995567798614498
 70
   192
  0
VERTEX
  5
96
  8
METAL
 10
-15.87621307373045
 20
-21.79298019409179
 30
3.995567798614498
 70
   192
  0
VERTEX
  5
15F
  8
METAL
 10
-15.87621307373045
 20
-28.93508148193359
 30
1.579897046089167
 70
   192
  0
VERTEX
  5
160
  8
METAL
 10
-15.87621307373045
 20
-28.93508148193359
 30
1.579897046089167
 70
   192
  0
VERTEX
  5
99
  8
METAL
 10
-15.87621307373045
 20
-28.93508148193359
 30
0.1185860186815209
 70
   192
  0
VERTEX
  5
9A
  8
METAL
 10
-15.87621307373045
 20
-21.79297637939453
 30
0.1185860186815217
 70
   192
  0
VERTEX
  5
9B
  8
METAL
 10
-15.87621307373045
 20
-28.93508148193359
 30
-1.342723965644842
 70
   192
  0
VERTEX
  5
9C
  8
METAL
 10
-15.87621307373045
 20
-28.93508148193359
 30
-1.342723965644842
 70
   192
  0
VERTEX
  5
9D
  8
METAL
 10
-15.87621307373045
 20
-21.79298019409179
 30
-3.758395195007328
 70
   192
  0
VERTEX
  5
9E
  8
METAL
 10
-15.87621307373045
 20
-21.79298019409179
 30
-3.758395195007328
 70
   192
  0
VERTEX
  5
9F
  8
METAL
 10
-32.19392395019528
 20
-21.4440689086914
 30
3.995567798614498
 70
   192
  0
VERTEX
  5
A0
  8
METAL
 10
-32.19392395019528
 20
-21.4440689086914
 30
3.995567798614498
 70
   192
  0
VERTEX
  5
A1
  8
METAL
 10
-32.19392395019528
 20
-28.62263488769531
 30
1.579897046089168
 70
   192
  0
VERTEX
  5
A2
  8
METAL
 10
-32.19392395019528
 20
-28.62263488769531
 30
1.579897046089168
 70
   192
  0
VERTEX
  5
A3
  8
METAL
 10
-32.19392395019528
 20
-28.62263488769531
 30
0.1185860186815209
 70
   192
  0
VERTEX
  5
A4
  8
METAL
 10
-32.19392395019528
 20
-21.4440689086914
 30
0.1185860186815217
 70
   192
  0
VERTEX
  5
A5
  8
METAL
 10
-32.19392395019528
 20
-28.62263488769531
 30
-1.342723965644842
 70
   192
  0
VERTEX
  5
A6
  8
METAL
 10
-32.19392395019528
 20
-28.62263488769531
 30
-1.342723965644842
 70
   192
  0
VERTEX
  5
A7
  8
METAL
 10
-32.19392395019528
 20
-21.4440689086914
 30
-3.758395195007328
 70
   192
  0
VERTEX
  5
A8
  8
METAL
 10
-32.19392395019528
 20
-21.4440689086914
 30
-3.758395195007328
 70
   192
  0
VERTEX
  5
A9
  8
METAL
 10
-49.39544296264648
 20
-20.69128799438476
 30
3.995567798614498
 70
   192
  0
VERTEX
  5
AA
  8
METAL
 10
-49.39544296264648
 20
-20.69128799438476
 30
3.995567798614498
 70
   192
  0
VERTEX
  5
AB
  8
METAL
 10
-49.39544296264648
 20
-27.68753814697265
 30
1.579897046089168
 70
   192
  0
VERTEX
  5
AC
  8
METAL
 10
-49.39544296264648
 20
-27.68753814697265
 30
1.579897046089168
 70
   192
  0
VERTEX
  5
AD
  8
METAL
 10
-49.39544296264648
 20
-27.68753814697265
 30
0.1185860186815209
 70
   192
  0
VERTEX
  5
AE
  8
METAL
 10
-49.39544296264648
 20
-20.6912841796875
 30
0.1185860186815226
 70
   192
  0
VERTEX
  5
AF
  8
METAL
 10
-49.39544296264648
 20
-27.68753814697265
 30
-1.342723965644842
 70
   192
  0
VERTEX
  5
B0
  8
METAL
 10
-49.39544296264648
 20
-27.68753814697265
 30
-1.342723965644842
 70
   192
  0
VERTEX
  5
B1
  8
METAL
 10
-49.39544296264648
 20
-20.69128799438476
 30
-3.758395195007328
 70
   192
  0
VERTEX
  5
B2
  8
METAL
 10
-49.39544296264648
 20
-20.69128799438476
 30
-3.758395195007328
 70
   192
  0
VERTEX
  5
B3
  8
METAL
 10
-66.59696197509764
 20
-19.80327224731445
 30
3.995567798614498
 70
   192
  0
VERTEX
  5
B4
  8
METAL
 10
-66.59696197509764
 20
-19.80327224731445
 30
3.995567798614498
 70
   192
  0
VERTEX
  5
B5
  8
METAL
 10
-66.59696197509764
 20
-26.86891174316406
 30
1.579897046089168
 70
   192
  0
VERTEX
  5
B6
  8
METAL
 10
-66.59696197509764
 20
-26.86891174316406
 30
1.579897046089168
 70
   192
  0
VERTEX
  5
B7
  8
METAL
 10
-66.59696197509764
 20
-26.86891174316406
 30
0.1185860186815209
 70
   192
  0
VERTEX
  5
B8
  8
METAL
 10
-66.59696197509764
 20
-19.80326843261718
 30
0.1185860186815226
 70
   192
  0
VERTEX
  5
B9
  8
METAL
 10
-66.59696197509764
 20
-26.86891174316406
 30
-1.342723965644841
 70
   192
  0
VERTEX
  5
BA
  8
METAL
 10
-66.59696197509764
 20
-26.86891174316406
 30
-1.342723965644841
 70
   192
  0
VERTEX
  5
BB
  8
METAL
 10
-66.59696197509764
 20
-19.80327224731445
 30
-3.758395195007328
 70
   192
  0
VERTEX
  5
BC
  8
METAL
 10
-66.59696197509764
 20
-19.80327224731445
 30
-3.758395195007328
 70
   192
  0
VERTEX
  5
BD
  8
METAL
 10
-80.34597778320311
 20
-18.59810638427734
 30
3.995567798614498
 70
   192
  0
VERTEX
  5
BE
  8
METAL
 10
-80.34597778320311
 20
-18.59810638427734
 30
3.995567798614498
 70
   192
  0
VERTEX
  5
BF
  8
METAL
 10
-80.34597778320311
 20
-25.52783966064453
 30
1.579897046089168
 70
   192
  0
VERTEX
  5
C0
  8
METAL
 10
-80.34597778320311
 20
-25.52783966064453
 30
1.579897046089168
 70
   192
  0
VERTEX
  5
C1
  8
METAL
 10
-80.34597778320311
 20
-25.52784347534179
 30
0.1185860186815217
 70
   192
  0
VERTEX
  5
C2
  8
METAL
 10
-80.34597778320311
 20
-18.59810256958007
 30
0.1185860186815226
 70
   192
  0
VERTEX
  5
C3
  8
METAL
 10
-80.34597778320311
 20
-25.52783966064453
 30
-1.342723965644841
 70
   192
  0
VERTEX
  5
C4
  8
METAL
 10
-80.34597778320311
 20
-25.52783966064453
 30
-1.342723965644841
 70
   192
  0
VERTEX
  5
C5
  8
METAL
 10
-80.34597778320311
 20
-18.59810638427734
 30
-3.758395195007328
 70
   192
  0
VERTEX
  5
C6
  8
METAL
 10
-80.34597778320311
 20
-18.59810638427734
 30
-3.758395195007328
 70
   192
  0
VERTEX
  5
C7
  8
METAL
 10
-91.71117401123045
 20
-24.13135147094726
 30
0.1185860186815217
 70
   192
  0
VERTEX
  5
C8
  8
METAL
 10
-91.71118164062499
 20
-0.000000000000002
 30
5.237173080444336
 70
   192
  0
VERTEX
  5
C9
  8
METAL
 10
-91.71118164062499
 20
-0.000000000000002
 30
5.237173080444336
 70
   192
  0
VERTEX
  5
CA
  8
METAL
 10
-91.71118164062499
 20
-17.23583221435546
 30
4.922324180603024
 70
   192
  0
VERTEX
  5
CB
  8
METAL
 10
-91.71118164062499
 20
-24.13134765625
 30
1.579897046089168
 70
   192
  0
VERTEX
  5
CC
  8
METAL
 10
-91.71118164062499
 20
-24.13134765625
 30
1.579897046089168
 70
   192
  0
VERTEX
  5
CD
  8
METAL
 10
-91.71118164062499
 20
-0.000000000000001
 30
0.1185860186815262
 70
   192
  0
VERTEX
  5
CE
  8
METAL
 10
-91.71118164062499
 20
-24.13134765625
 30
-1.342723965644841
 70
   192
  0
VERTEX
  5
CF
  8
METAL
 10
-91.71118164062499
 20
-24.13134765625
 30
-1.342723965644841
 70
   192
  0
VERTEX
  5
D0
  8
METAL
 10
-91.71118164062499
 20
-17.23583221435546
 30
-4.685151100158695
 70
   192
  0
VERTEX
  5
D1
  8
METAL
 10
-91.71118164062499
 20
0.0
 30
-5.0
 70
   192
  0
VERTEX
  5
D2
  8
METAL
 10
-91.71118164062499
 20
0.0
 30
-5.0
 70
   192
  0
VERTEX
  5
D3
  8
METAL
 10
-101.0
 20
-0.000000000000002
 30
5.237173080444336
 70
   192
  0
VERTEX
  5
D4
  8
METAL
 10
-101.0
 20
-0.000000000000002
 30
5.237173080444336
 70
   192
  0
VERTEX
  5
D5
  8
METAL
 10
-101.0
 20
-0.000000000000002
 30
5.237173080444336
 70
   192
  0
VERTEX
  5
D6
  8
METAL
 10
-101.0
 20
-22.94282913208007
 30
1.579897046089169
 70
   192
  0
VERTEX
  5
D7
  8
METAL
 10
-101.0
 20
-22.94282913208007
 30
1.579897046089169
 70
   192
  0
VERTEX
  5
D8
  8
METAL
 10
-101.0
 20
-22.94282913208007
 30
1.579897046089169
 70
   192
  0
VERTEX
  5
D9
  8
METAL
 10
-101.0
 20
-22.94282913208007
 30
0.1185860186815217
 70
   192
  0
VERTEX
  5
DA
  8
METAL
 10
-101.0
 20
-22.94282913208007
 30
0.1185860186815217
 70
   192
  0
VERTEX
  5
DB
  8
METAL
 10
-101.0
 20
-0.000000000000001
 30
0.1185860186815262
 70
   192
  0
VERTEX
  5
DC
  8
METAL
 10
-101.0
 20
-0.000000000000001
 30
0.1185860186815262
 70
   192
  0
VERTEX
  5
DD
  8
METAL
 10
-101.0
 20
-22.94282913208007
 30
-1.342723965644841
 70
   192
  0
VERTEX
  5
DE
  8
METAL
 10
-101.0
 20
-22.94282913208007
 30
-1.342723965644841
 70
   192
  0
VERTEX
  5
DF
  8
METAL
 10
-101.0
 20
-22.94282913208007
 30
-1.342723965644841
 70
   192
  0
VERTEX
  5
E0
  8
METAL
 10
-101.0
 20
0.0
 30
-5.0
 70
   192
  0
VERTEX
  5
E1
  8
METAL
 10
-101.0
 20
0.0
 30
-5.0
 70
   192
  0
VERTEX
  5
E2
  8
METAL
 10
-101.0
 20
0.0
 30
-5.0
 70
   192
  0
VERTEX
  5
E3
  8
METAL
 10
0.0
 20
0.0
 30
0.0
 70
   128
 71
   159
 72
   145
 73
   149
 74
   164
  0
VERTEX
  5
E4
  8
METAL
 10
0.0
 20
0.0
 30
0.0
 70
   128
 71
   147
 72
   139
 73
   157
 74
   161
  0
VERTEX
  5
E5
  8
METAL
 10
0.0
 20
0.0
 30
0.0
 70
   128
 71
   165
 72
   148
 73
   162
 74
   162
  0
VERTEX
  5
E6
  8
METAL
 10
0.0
 20
0.0
 30
0.0
 70
   128
 71
   116
 72
   113
 73
   123
 74
   126
  0
VERTEX
  5
E7
  8
METAL
 10
0.0
 20
0.0
 30
0.0
 70
   128
 71
   118
 72
   115
 73
   125
 74
   128
  0
VERTEX
  5
E8
  8
METAL
 10
0.0
 20
0.0
 30
0.0
 70
   128
 71
   106
 72
   103
 73
   113
 74
   116
  0
VERTEX
  5
E9
  8
METAL
 10
0.0
 20
0.0
 30
0.0
 70
   128
 71
   108
 72
   105
 73
   115
 74
   118
  0
VERTEX
  5
EA
  8
METAL
 10
0.0
 20
0.0
 30
0.0
 70
   128
 71
   126
 72
   123
 73
   133
 74
   136
  0
VERTEX
  5
EB
  8
METAL
 10
0.0
 20
0.0
 30
0.0
 70
   128
 71
   128
 72
   125
 73
   135
 74
   138
  0
VERTEX
  5
EC
  8
METAL
 10
0.0
 20
0.0
 30
0.0
 70
   128
 71
   136
 72
   133
 73
   139
 74
   147
  0
VERTEX
  5
ED
  8
METAL
 10
0.0
 20
0.0
 30
0.0
 70
   128
 71
   150
 72
   138
 73
   148
 74
   148
  0
VERTEX
  5
EE
  8
METAL
 10
0.0
 20
0.0
 30
0.0
 70
   128
 71
   138
 72
   135
 73
   146
 74
   148
  0
VERTEX
  5
EF
  8
METAL
 10
0.0
 20
0.0
 30
0.0
 70
   128
 71
   148
 72
   146
 73
   162
 74
   162
  0
VERTEX
  5
F0
  8
METAL
 10
0.0
 20
0.0
 30
0.0
 70
   128
 71
   165
 72
   150
 73
   148
 74
   148
  0
VERTEX
  5
F1
  8
METAL
 10
0.0
 20
0.0
 30
0.0
 70
   128
 71
   160
 72
   166
 73
   163
 74
   158
  0
VERTEX
  5
F2
  8
METAL
 10
0.0
 20
0.0
 30
0.0
 70
   128
 71
   117
 72
   127
 73
   124
 74
   114
  0
VERTEX
  5
F3
  8
METAL
 10
0.0
 20
0.0
 30
0.0
 70
   128
 71
   107
 72
   117
 73
   114
 74
   104
  0
VERTEX
  5
F4
  8
METAL
 10
0.0
 20
0.0
 30
0.0
 70
   128
 71
   127
 72
   137
 73
   134
 74
   124
  0
VERTEX
  5
F5
  8
METAL
 10
0.0
 20
0.0
 30
0.0
 70
   128
 71
   137
 72
   149
 73
   145
 74
   134
  0
VERTEX
  5
F6
  8
METAL
 10
0.0
 20
0.0
 30
0.0
 70
   128
 71
   159
 72
   151
 73
   140
 74
   145
  0
VERTEX
  5
F7
  8
METAL
 10
0.0
 20
0.0
 30
0.0
 70
   128
 71
   144
 72
   154
 73
   157
 74
   139
  0
VERTEX
  5
F8
  8
METAL
 10
0.0
 20
0.0
 30
0.0
 70
   128
 71
   152
 72
   155
 73
   142
 74
   142
  0
VERTEX
  5
F9
  8
METAL
 10
0.0
 20
0.0
 30
0.0
 70
   128
 71
   112
 72
   122
 73
   123
 74
   113
  0
VERTEX
  5
FA
  8
METAL
 10
0.0
 20
0.0
 30
0.0
 70
   128
 71
   110
 72
   120
 73
   121
 74
   111
  0
VERTEX
  5
FB
  8
METAL
 10
0.0
 20
0.0
 30
0.0
 70
   128
 71
   102
 72
   112
 73
   113
 74
   103
  0
VERTEX
  5
FC
  8
METAL
 10
0.0
 20
0.0
 30
0.0
 70
   128
 71
   100
 72
   110
 73
   111
 74
   101
  0
VERTEX
  5
FD
  8
METAL
 10
0.0
 20
0.0
 30
0.0
 70
   128
 71
   122
 72
   132
 73
   133
 74
   123
  0
VERTEX
  5
FE
  8
METAL
 10
0.0
 20
0.0
 30
0.0
 70
   128
 71
   120
 72
   130
 73
   131
 74
   121
  0
VERTEX
  5
FF
  8
METAL
 10
0.0
 20
0.0
 30
0.0
 70
   128
 71
   132
 72
   144
 73
   139
 74
   133
  0
VERTEX
  5
100
  8
METAL
 10
0.0
 20
0.0
 30
0.0
 70
   128
 71
   141
 72
   142
 73
   130
 74
   130
  0
VERTEX
  5
101
  8
METAL
 10
0.0
 20
0.0
 30
0.0
 70
   128
 71
   130
 72
   142
 73
   143
 74
   131
  0
VERTEX
  5
102
  8
METAL
 10
0.0
 20
0.0
 30
0.0
 70
   128
 71
   142
 72
   155
 73
   143
 74
   143
  0
VERTEX
  5
103
  8
METAL
 10
0.0
 20
0.0
 30
0.0
 70
   128
 71
   152
 72
   142
 73
   141
 74
   141
  0
VERTEX
  5
104
  8
METAL
 10
0.0
 20
0.0
 30
0.0
 70
   128
 71
   160
 72
   158
 73
   156
 74
   153
  0
VERTEX
  5
105
  8
METAL
 10
0.0
 20
0.0
 30
0.0
 70
   128
 71
   109
 72
   114
 73
   124
 74
   119
  0
VERTEX
  5
106
  8
METAL
 10
0.0
 20
0.0
 30
0.0
 70
   128
 71
    99
 72
   104
 73
   114
 74
   109
  0
VERTEX
  5
107
  8
METAL
 10
0.0
 20
0.0
 30
0.0
 70
   128
 71
   119
 72
   124
 73
   134
 74
   129
  0
VERTEX
  5
108
  8
METAL
 10
0.0
 20
0.0
 30
0.0
 70
   128
 71
   129
 72
   134
 73
   145
 74
   140
  0
VERTEX
  5
109
  8
METAL
 10
0.0
 20
0.0
 30
0.0
 70
   128
 71
   103
 72
   106
 73
    96
 74
    93
  0
VERTEX
  5
10A
  8
METAL
 10
0.0
 20
0.0
 30
0.0
 70
   128
 71
   105
 72
   108
 73
    98
 74
    95
  0
VERTEX
  5
10B
  8
METAL
 10
0.0
 20
0.0
 30
0.0
 70
   128
 71
   107
 72
   104
 73
    94
 74
    97
  0
VERTEX
  5
10C
  8
METAL
 10
0.0
 20
0.0
 30
0.0
 70
   128
 71
   102
 72
   103
 73
    93
 74
    92
  0
VERTEX
  5
10D
  8
METAL
 10
0.0
 20
0.0
 30
0.0
 70
   128
 71
   100
 72
   101
 73
    91
 74
    90
  0
VERTEX
  5
10E
  8
METAL
 10
0.0
 20
0.0
 30
0.0
 70
   128
 71
   104
 72
    99
 73
    89
 74
    94
  0
VERTEX
  5
10F
  8
METAL
 10
0.0
 20
0.0
 30
0.0
 70
   128
 71
    93
 72
    96
 73
    85
 74
    83
  0
VERTEX
  5
110
  8
METAL
 10
0.0
 20
0.0
 30
0.0
 70
   128
 71
    95
 72
    98
 73
    88
 74
    86
  0
VERTEX
  5
111
  8
METAL
 10
0.0
 20
0.0
 30
0.0
 70
   128
 71
    97
 72
    94
 73
    84
 74
    87
  0
VERTEX
  5
112
  8
METAL
 10
0.0
 20
0.0
 30
0.0
 70
   128
 71
    92
 72
    93
 73
    83
 74
    82
  0
VERTEX
  5
113
  8
METAL
 10
0.0
 20
0.0
 30
0.0
 70
   128
 71
    79
 72
    90
 73
    91
 74
    81
  0
VERTEX
  5
114
  8
METAL
 10
0.0
 20
0.0
 30
0.0
 70
   128
 71
    94
 72
    89
 73
    80
 74
    84
  0
VERTEX
  5
115
  8
METAL
 10
0.0
 20
0.0
 30
0.0
 70
   128
 71
    10
 72
    16
 73
    28
 74
    23
  0
VERTEX
  5
116
  8
METAL
 10
0.0
 20
0.0
 30
0.0
 70
   128
 71
    24
 72
    13
 73
     8
 74
    22
  0
VERTEX
  5
117
  8
METAL
 10
0.0
 20
0.0
 30
0.0
 70
   128
 71
    15
 72
    12
 73
    26
 74
    26
  0
VERTEX
  5
118
  8
METAL
 10
0.0
 20
0.0
 30
0.0
 70
   128
 71
    55
 72
    45
 73
    43
 74
    53
  0
VERTEX
  5
119
  8
METAL
 10
0.0
 20
0.0
 30
0.0
 70
   128
 71
    57
 72
    47
 73
    46
 74
    56
  0
VERTEX
  5
11A
  8
METAL
 10
0.0
 20
0.0
 30
0.0
 70
   128
 71
    65
 72
    55
 73
    53
 74
    63
  0
VERTEX
  5
11B
  8
METAL
 10
0.0
 20
0.0
 30
0.0
 70
   128
 71
    67
 72
    57
 73
    56
 74
    66
  0
VERTEX
  5
11C
  8
METAL
 10
0.0
 20
0.0
 30
0.0
 70
   128
 71
    45
 72
    35
 73
    33
 74
    43
  0
VERTEX
  5
11D
  8
METAL
 10
0.0
 20
0.0
 30
0.0
 70
   128
 71
    47
 72
    37
 73
    36
 74
    46
  0
VERTEX
  5
11E
  8
METAL
 10
0.0
 20
0.0
 30
0.0
 70
   128
 71
    35
 72
    24
 73
    22
 74
    33
  0
VERTEX
  5
11F
  8
METAL
 10
0.0
 20
0.0
 30
0.0
 70
   128
 71
    27
 72
    26
 73
    37
 74
    37
  0
VERTEX
  5
120
  8
METAL
 10
0.0
 20
0.0
 30
0.0
 70
   128
 71
    37
 72
    26
 73
    25
 74
    36
  0
VERTEX
  5
121
  8
METAL
 10
0.0
 20
0.0
 30
0.0
 70
   128
 71
    26
 72
    12
 73
    25
 74
    25
  0
VERTEX
  5
122
  8
METAL
 10
0.0
 20
0.0
 30
0.0
 70
   128
 71
    15
 72
    26
 73
    27
 74
    27
  0
VERTEX
  5
123
  8
METAL
 10
0.0
 20
0.0
 30
0.0
 70
   128
 71
     9
 72
     7
 73
    11
 74
    14
  0
VERTEX
  5
124
  8
METAL
 10
0.0
 20
0.0
 30
0.0
 70
   128
 71
    58
 72
    54
 73
    44
 74
    48
  0
VERTEX
  5
125
  8
METAL
 10
0.0
 20
0.0
 30
0.0
 70
   128
 71
    68
 72
    64
 73
    54
 74
    58
  0
VERTEX
  5
126
  8
METAL
 10
0.0
 20
0.0
 30
0.0
 70
   128
 71
    48
 72
    44
 73
    34
 74
    38
  0
VERTEX
  5
127
  8
METAL
 10
0.0
 20
0.0
 30
0.0
 70
   128
 71
    38
 72
    34
 73
    23
 74
    28
  0
VERTEX
  5
128
  8
METAL
 10
0.0
 20
0.0
 30
0.0
 70
   128
 71
    10
 72
    23
 73
    18
 74
     3
  0
VERTEX
  5
129
  8
METAL
 10
0.0
 20
0.0
 30
0.0
 70
   128
 71
    20
 72
    22
 73
     8
 74
     6
  0
VERTEX
  5
12A
  8
METAL
 10
0.0
 20
0.0
 30
0.0
 70
   128
 71
     2
 72
    19
 73
     5
 74
     5
  0
VERTEX
  5
12B
  8
METAL
 10
0.0
 20
0.0
 30
0.0
 70
   128
 71
    51
 72
    53
 73
    43
 74
    41
  0
VERTEX
  5
12C
  8
METAL
 10
0.0
 20
0.0
 30
0.0
 70
   128
 71
    49
 72
    52
 73
    42
 74
    39
  0
VERTEX
  5
12D
  8
METAL
 10
0.0
 20
0.0
 30
0.0
 70
   128
 71
    61
 72
    63
 73
    53
 74
    51
  0
VERTEX
  5
12E
  8
METAL
 10
0.0
 20
0.0
 30
0.0
 70
   128
 71
    59
 72
    62
 73
    52
 74
    49
  0
VERTEX
  5
12F
  8
METAL
 10
0.0
 20
0.0
 30
0.0
 70
   128
 71
    41
 72
    43
 73
    33
 74
    31
  0
VERTEX
  5
130
  8
METAL
 10
0.0
 20
0.0
 30
0.0
 70
   128
 71
    39
 72
    42
 73
    32
 74
    29
  0
VERTEX
  5
131
  8
METAL
 10
0.0
 20
0.0
 30
0.0
 70
   128
 71
    31
 72
    33
 73
    22
 74
    20
  0
VERTEX
  5
132
  8
METAL
 10
0.0
 20
0.0
 30
0.0
 70
   128
 71
    17
 72
    29
 73
    19
 74
    19
  0
VERTEX
  5
133
  8
METAL
 10
0.0
 20
0.0
 30
0.0
 70
   128
 71
    29
 72
    32
 73
    21
 74
    19
  0
VERTEX
  5
134
  8
METAL
 10
0.0
 20
0.0
 30
0.0
 70
   128
 71
    19
 72
    21
 73
     5
 74
     5
  0
VERTEX
  5
135
  8
METAL
 10
0.0
 20
0.0
 30
0.0
 70
   128
 71
     2
 72
    17
 73
    19
 74
    19
  0
VERTEX
  5
136
  8
METAL
 10
0.0
 20
0.0
 30
0.0
 70
   128
 71
     9
 72
     1
 73
     4
 74
     7
  0
VERTEX
  5
137
  8
METAL
 10
0.0
 20
0.0
 30
0.0
 70
   128
 71
    50
 72
    40
 73
    44
 74
    54
  0
VERTEX
  5
138
  8
METAL
 10
0.0
 20
0.0
 30
0.0
 70
   128
 71
    60
 72
    50
 73
    54
 74
    64
  0
VERTEX
  5
139
  8
METAL
 10
0.0
 20
0.0
 30
0.0
 70
   128
 71
    40
 72
    30
 73
    34
 74
    44
  0
VERTEX
  5
13A
  8
METAL
 10
0.0
 20
0.0
 30
0.0
 70
   128
 71
    30
 72
    18
 73
    23
 74
    34
  0
VERTEX
  5
13B
  8
METAL
 10
0.0
 20
0.0
 30
0.0
 70
   128
 71
    63
 72
    73
 73
    75
 74
    65
  0
VERTEX
  5
13C
  8
METAL
 10
0.0
 20
0.0
 30
0.0
 70
   128
 71
    66
 72
    76
 73
    77
 74
    67
  0
VERTEX
  5
13D
  8
METAL
 10
0.0
 20
0.0
 30
0.0
 70
   128
 71
    68
 72
    78
 73
    74
 74
    64
  0
VERTEX
  5
13E
  8
METAL
 10
0.0
 20
0.0
 30
0.0
 70
   128
 71
    61
 72
    71
 73
    73
 74
    63
  0
VERTEX
  5
13F
  8
METAL
 10
0.0
 20
0.0
 30
0.0
 70
   128
 71
    59
 72
    69
 73
    72
 74
    62
  0
VERTEX
  5
140
  8
METAL
 10
0.0
 20
0.0
 30
0.0
 70
   128
 71
    64
 72
    74
 73
    70
 74
    60
  0
VERTEX
  5
141
  8
METAL
 10
0.0
 20
0.0
 30
0.0
 70
   128
 71
    73
 72
    83
 73
    85
 74
    75
  0
VERTEX
  5
142
  8
METAL
 10
0.0
 20
0.0
 30
0.0
 70
   128
 71
    76
 72
    86
 73
    88
 74
    77
  0
VERTEX
  5
143
  8
METAL
 10
0.0
 20
0.0
 30
0.0
 70
   128
 71
    78
 72
    87
 73
    84
 74
    74
  0
VERTEX
  5
144
  8
METAL
 10
0.0
 20
0.0
 30
0.0
 70
   128
 71
    71
 72
    82
 73
    83
 74
    73
  0
VERTEX
  5
145
  8
METAL
 10
0.0
 20
0.0
 30
0.0
 70
   128
 71
    79
 72
    81
 73
    72
 74
    69
  0
VERTEX
  5
146
  8
METAL
 10
0.0
 20
0.0
 30
0.0
 70
   128
 71
    74
 72
    84
 73
    80
 74
    70
  0
SEQEND
  5
153
  8
METAL
  0
ENDSEC
  0
EOF
