  0
SECTION
  2
HEADER
  9
$ACADVER
  1
AC1009
  9
$DWGCODEPAGE
  3
ansi_1252
  9
$INSBASE
 10
0.0
 20
0.0
 30
0.0
  9
$EXTMIN
 10
0.0
 20
-38.34081546288428
 30
0.0
  9
$EXTMAX
 10
46.25613039976309
 20
0.0
 30
10.92896556159934
  9
$LIMMIN
 10
0.0
 20
0.0
  9
$LIMMAX
 10
12.0
 20
9.0
  9
$ORTHOMODE
 70
     1
  9
$REGENMODE
 70
     1
  9
$FILLMODE
 70
     1
  9
$QTEXTMODE
 70
     0
  9
$MIRRTEXT
 70
     1
  9
$DRAGMODE
 70
     2
  9
$LTSCALE
 40
1.0
  9
$OSMODE
 70
    37
  9
$ATTMODE
 70
     1
  9
$TEXTSIZE
 40
0.2
  9
$TRACEWID
 40
0.05
  9
$TEXTSTYLE
  7
STANDARD
  9
$CLAYER
  8
0
  9
$CELTYPE
  6
BYLAYER
  9
$CECOLOR
 62
   256
  9
$DIMSCALE
 40
1.0
  9
$DIMASZ
 40
0.18
  9
$DIMEXO
 40
0.0625
  9
$DIMDLI
 40
0.38
  9
$DIMRND
 40
0.0
  9
$DIMDLE
 40
0.0
  9
$DIMEXE
 40
0.18
  9
$DIMTP
 40
0.0
  9
$DIMTM
 40
0.0
  9
$DIMTXT
 40
0.18
  9
$DIMCEN
 40
0.09
  9
$DIMTSZ
 40
0.0
  9
$DIMTOL
 70
     0
  9
$DIMLIM
 70
     0
  9
$DIMTIH
 70
     1
  9
$DIMTOH
 70
     1
  9
$DIMSE1
 70
     0
  9
$DIMSE2
 70
     0
  9
$DIMTAD
 70
     0
  9
$DIMZIN
 70
     0
  9
$DIMBLK
  1

  9
$DIMASO
 70
     1
  9
$DIMSHO
 70
     1
  9
$DIMPOST
  1

  9
$DIMAPOST
  1

  9
$DIMALT
 70
     0
  9
$DIMALTD
 70
     2
  9
$DIMALTF
 40
25.4
  9
$DIMLFAC
 40
1.0
  9
$DIMTOFL
 70
     0
  9
$DIMTVP
 40
0.0
  9
$DIMTIX
 70
     0
  9
$DIMSOXD
 70
     0
  9
$DIMSAH
 70
     0
  9
$DIMBLK1
  1

  9
$DIMBLK2
  1

  9
$DIMSTYLE
  2
STANDARD
  9
$DIMCLRD
 70
     0
  9
$DIMCLRE
 70
     0
  9
$DIMCLRT
 70
     0
  9
$DIMTFAC
 40
1.0
  9
$DIMGAP
 40
0.09
  9
$LUNITS
 70
     2
  9
$LUPREC
 70
     3
  9
$SKETCHINC
 40
0.1
  9
$FILLETRAD
 40
0.5
  9
$AUNITS
 70
     0
  9
$AUPREC
 70
     0
  9
$MENU
  1
.
  9
$ELEVATION
 40
0.0
  9
$PELEVATION
 40
0.0
  9
$THICKNESS
 40
0.0
  9
$LIMCHECK
 70
     0
  9
$CHAMFERA
 40
0.5
  9
$CHAMFERB
 40
0.5
  9
$SKPOLY
 70
     0
  9
$TDCREATE
 40
2456497.684188507
  9
$TDUPDATE
 40
2456497.684188519
  9
$TDINDWG
 40
0.0007291667
  9
$TDUSRTIMER
 40
0.0007291667
  9
$USRTIMER
 70
     1
  9
$ANGBASE
 50
0.0
  9
$ANGDIR
 70
     0
  9
$PDMODE
 70
     0
  9
$PDSIZE
 40
0.0
  9
$PLINEWID
 40
0.0
  9
$COORDS
 70
     1
  9
$SPLFRAME
 70
     0
  9
$SPLINETYPE
 70
     6
  9
$SPLINESEGS
 70
     8
  9
$ATTDIA
 70
     0
  9
$ATTREQ
 70
     1
  9
$HANDLING
 70
     1
  9
$HANDSEED
  5
3C9
  9
$SURFTAB1
 70
     6
  9
$SURFTAB2
 70
     6
  9
$SURFTYPE
 70
     6
  9
$SURFU
 70
     6
  9
$SURFV
 70
     6
  9
$UCSNAME
  2

  9
$UCSORG
 10
0.0
 20
0.0
 30
0.0
  9
$UCSXDIR
 10
1.0
 20
0.0
 30
0.0
  9
$UCSYDIR
 10
0.0
 20
1.0
 30
0.0
  9
$PUCSNAME
  2

  9
$PUCSORG
 10
0.0
 20
0.0
 30
0.0
  9
$PUCSXDIR
 10
1.0
 20
0.0
 30
0.0
  9
$PUCSYDIR
 10
0.0
 20
1.0
 30
0.0
  9
$USERI1
 70
     0
  9
$USERI2
 70
     0
  9
$USERI3
 70
     0
  9
$USERI4
 70
     0
  9
$USERI5
 70
     0
  9
$USERR1
 40
0.0
  9
$USERR2
 40
0.0
  9
$USERR3
 40
0.0
  9
$USERR4
 40
0.0
  9
$USERR5
 40
0.0
  9
$WORLDVIEW
 70
     1
  9
$SHADEDGE
 70
     3
  9
$SHADEDIF
 70
    70
  9
$TILEMODE
 70
     1
  9
$MAXACTVP
 70
    64
  9
$PLIMCHECK
 70
     0
  9
$PEXTMIN
 10
1.000000000000000E+20
 20
1.000000000000000E+20
 30
1.000000000000000E+20
  9
$PEXTMAX
 10
-1.000000000000000E+20
 20
-1.000000000000000E+20
 30
-1.000000000000000E+20
  9
$PLIMMIN
 10
0.0
 20
0.0
  9
$PLIMMAX
 10
12.0
 20
9.0
  9
$UNITMODE
 70
     0
  9
$VISRETAIN
 70
     1
  9
$PLINEGEN
 70
     0
  9
$PSLTSCALE
 70
     1
  0
ENDSEC
  0
SECTION
  2
TABLES
  0
TABLE
  2
VPORT
 70
     1
  0
VPORT
  2
*ACTIVE
 70
     0
 10
0.0
 20
0.0
 11
1.0
 21
1.0
 12
29.9095370435746
 22
6.077438402793291
 13
0.0
 23
0.0
 14
0.5
 24
0.5
 15
0.5
 25
0.5
 16
-1.0
 26
-1.0
 36
1.0
 17
0.0
 27
0.0
 37
0.0
 40
55.41152746479092
 41
3.703443397767085
 42
50.0
 43
0.0
 44
0.0
 50
0.0
 51
0.0
 71
    16
 72
   100
 73
     0
 74
     1
 75
     0
 76
     0
 77
     0
 78
     0
  0
ENDTAB
  0
TABLE
  2
LTYPE
 70
     1
  0
LTYPE
  2
CONTINUOUS
 70
     0
  3
Solid line
 72
    65
 73
     0
 40
0.0
  0
ENDTAB
  0
TABLE
  2
LAYER
 70
     4
  0
LAYER
  2
0
 70
     0
 62
     7
  6
CONTINUOUS
  0
LAYER
  2
METAL
 70
     0
 62
   160
  6
CONTINUOUS
  0
LAYER
  2
COSTURA
 70
     0
 62
     4
  6
CONTINUOUS
  0
LAYER
  2
COURO
 70
     0
 62
   240
  6
CONTINUOUS
  0
ENDTAB
  0
TABLE
  2
STYLE
 70
     1
  0
STYLE
  2
STANDARD
 70
     0
 40
0.0
 41
1.0
 50
0.0
 71
     0
 42
0.2
  3
txt
  4

  0
ENDTAB
  0
TABLE
  2
VIEW
 70
     0
  0
ENDTAB
  0
TABLE
  2
UCS
 70
     0
  0
ENDTAB
  0
TABLE
  2
APPID
 70
     1
  0
APPID
  2
ACAD
 70
     0
  0
ENDTAB
  0
TABLE
  2
DIMSTYLE
 70
     1
  0
DIMSTYLE
  2
STANDARD
 70
     0
  3

  4

  5

  6

  7

 40
1.0
 41
0.18
 42
0.0625
 43
0.38
 44
0.18
 45
0.0
 46
0.0
 47
0.0
 48
0.0
140
0.18
141
0.09
142
0.0
143
25.4
144
1.0
145
0.0
146
1.0
147
0.09
 71
     0
 72
     0
 73
     1
 74
     1
 75
     0
 76
     0
 77
     0
 78
     0
170
     0
171
     2
172
     0
173
     0
174
     0
175
     0
176
     0
177
     0
178
     0
  0
ENDTAB
  0
ENDSEC
  0
SECTION
  2
BLOCKS
  0
BLOCK
  8
0
  2
$MODEL_SPACE
 70
     0
 10
0.0
 20
0.0
 30
0.0
  3
$MODEL_SPACE
  1

  0
ENDBLK
  5
21
  8
0
  0
BLOCK
 67
     1
  8
0
  2
$PAPER_SPACE
 70
     0
 10
0.0
 20
0.0
 30
0.0
  3
$PAPER_SPACE
  1

  0
ENDBLK
  5
76
 67
     1
  8
0
  0
ENDSEC
  0
SECTION
  2
ENTITIES
  0
POLYLINE
  5
3C
  8
METAL
 66
     1
 10
0.0
 20
0.0
 30
0.0
 70
    64
 71
   108
 72
    58
  0
VERTEX
  5
3D
  8
METAL
 10
0.0
 20
-12.02444219589234
 30
4.15380859375
 70
   192
  0
VERTEX
  5
3E
  8
METAL
 10
0.0
 20
-12.02444219589234
 30
4.15380859375
 70
   192
  0
VERTEX
  5
3F
  8
METAL
 10
0.0
 20
-10.8639760017395
 30
4.15380859375
 70
   192
  0
VERTEX
  5
40
  8
METAL
 10
0.0
 20
-10.8639760017395
 30
4.15380859375
 70
   192
  0
VERTEX
  5
41
  8
METAL
 10
0.0830976391429807
 20
-12.51597300988134
 30
6.775156014175022
 70
   192
  0
VERTEX
  5
42
  8
METAL
 10
0.0830976391429807
 20
-12.51597300988134
 30
6.775156014175022
 70
   192
  0
VERTEX
  5
43
  8
METAL
 10
0.0830976391429807
 20
-11.3555068157285
 30
6.775156014175022
 70
   192
  0
VERTEX
  5
44
  8
METAL
 10
0.0830976391429807
 20
-11.3555068157285
 30
6.775156014175022
 70
   192
  0
VERTEX
  5
45
  8
METAL
 10
1.309959411621094
 20
-12.02444219589234
 30
0.809959411621094
 70
   192
  0
VERTEX
  5
46
  8
METAL
 10
1.309959411621094
 20
-12.02444219589234
 30
0.809959411621094
 70
   192
  0
VERTEX
  5
47
  8
METAL
 10
1.309959411621094
 20
-10.8639760017395
 30
0.809959411621094
 70
   192
  0
VERTEX
  5
48
  8
METAL
 10
1.309959411621094
 20
-10.8639760017395
 30
0.809959411621094
 70
   192
  0
VERTEX
  5
49
  8
METAL
 10
1.393057050764075
 20
-12.51597300988134
 30
9.619004242629618
 70
   192
  0
VERTEX
  5
4A
  8
METAL
 10
1.393057050764075
 20
-12.51597300988134
 30
9.619004242629618
 70
   192
  0
VERTEX
  5
4B
  8
METAL
 10
1.393057050764075
 20
-11.3555068157285
 30
9.619004242629618
 70
   192
  0
VERTEX
  5
4C
  8
METAL
 10
1.393057050764075
 20
-11.3555068157285
 30
9.619004242629618
 70
   192
  0
VERTEX
  5
4D
  8
METAL
 10
1.974174499511719
 20
-12.02444219589234
 30
4.474174499511719
 70
   192
  0
VERTEX
  5
4E
  8
METAL
 10
1.974174499511719
 20
-10.8639760017395
 30
4.474174499511719
 70
   192
  0
VERTEX
  5
4F
  8
METAL
 10
1.974174499511719
 20
-10.8639760017395
 30
4.474174499511719
 70
   192
  0
VERTEX
  5
50
  8
METAL
 10
1.974174499511719
 20
0.0
 30
4.474174499511719
 70
   192
  0
VERTEX
  5
51
  8
METAL
 10
1.974174499511719
 20
0.0
 30
4.474174499511719
 70
   192
  0
VERTEX
  5
52
  8
METAL
 10
2.057272138654699
 20
-12.51597300988134
 30
6.454790108413303
 70
   192
  0
VERTEX
  5
53
  8
METAL
 10
2.057272138654699
 20
-11.3555068157285
 30
6.454790108413303
 70
   192
  0
VERTEX
  5
54
  8
METAL
 10
2.057272138654699
 20
-11.3555068157285
 30
6.454790108413303
 70
   192
  0
VERTEX
  5
55
  8
METAL
 10
2.057272138654699
 20
-0.4915308139890034
 30
6.454790108413303
 70
   192
  0
VERTEX
  5
56
  8
METAL
 10
2.057272138654699
 20
-0.4915308139890034
 30
6.454790108413303
 70
   192
  0
VERTEX
  5
57
  8
METAL
 10
2.724174499511719
 20
-12.02444219589234
 30
2.224174499511719
 70
   192
  0
VERTEX
  5
58
  8
METAL
 10
2.724174499511719
 20
-10.8639760017395
 30
2.224174499511719
 70
   192
  0
VERTEX
  5
37D
  8
METAL
 10
2.724174499511719
 20
-10.8639760017395
 30
2.224174499511719
 70
   192
  0
VERTEX
  5
37E
  8
METAL
 10
2.724174499511719
 20
0.0
 30
2.224174499511719
 70
   192
  0
VERTEX
  5
5B
  8
METAL
 10
2.724174499511719
 20
0.0
 30
2.224174499511719
 70
   192
  0
VERTEX
  5
5C
  8
METAL
 10
2.8072721386547
 20
-12.51597300988134
 30
8.704790108413302
 70
   192
  0
VERTEX
  5
5D
  8
METAL
 10
2.8072721386547
 20
-11.3555068157285
 30
8.704790108413302
 70
   192
  0
VERTEX
  5
37F
  8
METAL
 10
2.8072721386547
 20
-11.3555068157285
 30
8.704790108413302
 70
   192
  0
VERTEX
  5
5F
  8
METAL
 10
2.8072721386547
 20
-0.4915308139890034
 30
8.704790108413302
 70
   192
  0
VERTEX
  5
60
  8
METAL
 10
2.8072721386547
 20
-0.4915308139890034
 30
8.704790108413302
 70
   192
  0
VERTEX
  5
61
  8
METAL
 10
4.65380859375
 20
-12.02444219589234
 30
0.0
 70
   192
  0
VERTEX
  5
62
  8
METAL
 10
4.65380859375
 20
-12.02444219589234
 30
0.0
 70
   192
  0
VERTEX
  5
63
  8
METAL
 10
4.65380859375
 20
-10.8639760017395
 30
0.0
 70
   192
  0
VERTEX
  5
64
  8
METAL
 10
4.65380859375
 20
-10.8639760017395
 30
0.0
 70
   192
  0
VERTEX
  5
65
  8
METAL
 10
4.736906232892981
 20
-12.51597300988134
 30
10.92896556159934
 70
   192
  0
VERTEX
  5
66
  8
METAL
 10
4.736906232892981
 20
-12.51597300988134
 30
10.92896556159934
 70
   192
  0
VERTEX
  5
67
  8
METAL
 10
4.736906232892981
 20
-11.3555068157285
 30
10.92896556159934
 70
   192
  0
VERTEX
  5
68
  8
METAL
 10
4.736906232892981
 20
-11.3555068157285
 30
10.92896556159934
 70
   192
  0
VERTEX
  5
69
  8
METAL
 10
4.974174499511719
 20
-12.02444219589234
 30
1.474174499511719
 70
   192
  0
VERTEX
  5
6A
  8
METAL
 10
4.974174499511719
 20
-10.8639760017395
 30
1.474174499511719
 70
   192
  0
VERTEX
  5
380
  8
METAL
 10
4.974174499511719
 20
-10.8639760017395
 30
1.474174499511719
 70
   192
  0
VERTEX
  5
381
  8
METAL
 10
4.974174499511719
 20
0.0
 30
1.474174499511719
 70
   192
  0
VERTEX
  5
6D
  8
METAL
 10
4.974174499511719
 20
0.0
 30
1.474174499511719
 70
   192
  0
VERTEX
  5
6E
  8
METAL
 10
5.057272138654699
 20
-12.51597300988134
 30
9.454790108413306
 70
   192
  0
VERTEX
  5
6F
  8
METAL
 10
5.057272138654699
 20
-11.3555068157285
 30
9.454790108413306
 70
   192
  0
VERTEX
  5
70
  8
METAL
 10
5.057272138654699
 20
-11.3555068157285
 30
9.454790108413306
 70
   192
  0
VERTEX
  5
71
  8
METAL
 10
5.057272138654699
 20
-0.4915308139890034
 30
9.454790108413306
 70
   192
  0
VERTEX
  5
72
  8
METAL
 10
5.057272138654699
 20
-0.4915308139890034
 30
9.454790108413306
 70
   192
  0
VERTEX
  5
382
  8
METAL
 10
41.19885826110839
 20
-12.02444219589234
 30
1.474174499511719
 70
   192
  0
VERTEX
  5
383
  8
METAL
 10
41.19885826110839
 20
-10.8639760017395
 30
1.474174499511719
 70
   192
  0
VERTEX
  5
384
  8
METAL
 10
41.19885826110839
 20
-10.8639760017395
 30
1.474174499511719
 70
   192
  0
VERTEX
  5
385
  8
METAL
 10
41.1988582611084
 20
-0.0000000000000071
 30
1.474174499511719
 70
   192
  0
VERTEX
  5
77
  8
METAL
 10
41.1988582611084
 20
-0.0000000000000071
 30
1.474174499511719
 70
   192
  0
VERTEX
  5
78
  8
METAL
 10
41.28195590025138
 20
-12.51597300988135
 30
9.454790108413306
 70
   192
  0
VERTEX
  5
79
  8
METAL
 10
41.28195590025138
 20
-11.35550586205419
 30
9.454790108413306
 70
   192
  0
VERTEX
  5
7A
  8
METAL
 10
41.28195590025138
 20
-11.35550586205419
 30
9.454790108413306
 70
   192
  0
VERTEX
  5
7B
  8
METAL
 10
41.28195590025138
 20
-0.4915308139890106
 30
9.454790108413306
 70
   192
  0
VERTEX
  5
7C
  8
METAL
 10
41.28195590025138
 20
-0.4915308139890106
 30
9.454790108413306
 70
   192
  0
VERTEX
  5
7D
  8
METAL
 10
41.51922321319579
 20
-12.02444219589234
 30
0.0
 70
   192
  0
VERTEX
  5
7E
  8
METAL
 10
41.51922321319579
 20
-12.02444219589234
 30
0.0
 70
   192
  0
VERTEX
  5
7F
  8
METAL
 10
41.51922321319579
 20
-10.8639760017395
 30
0.0
 70
   192
  0
VERTEX
  5
80
  8
METAL
 10
41.51922321319579
 20
-10.8639760017395
 30
0.0
 70
   192
  0
VERTEX
  5
81
  8
METAL
 10
41.60232085233876
 20
-12.51597300988135
 30
10.92896556159934
 70
   192
  0
VERTEX
  5
82
  8
METAL
 10
41.60232085233876
 20
-12.51597300988135
 30
10.92896556159934
 70
   192
  0
VERTEX
  5
83
  8
METAL
 10
41.60232085233876
 20
-11.35550586205419
 30
10.92896556159934
 70
   192
  0
VERTEX
  5
84
  8
METAL
 10
41.60232085233876
 20
-11.35550586205419
 30
10.92896556159934
 70
   192
  0
VERTEX
  5
85
  8
METAL
 10
43.44885826110839
 20
-12.02444219589234
 30
2.224174499511719
 70
   192
  0
VERTEX
  5
86
  8
METAL
 10
43.44885826110839
 20
-10.8639760017395
 30
2.224174499511719
 70
   192
  0
VERTEX
  5
87
  8
METAL
 10
43.44885826110839
 20
-10.8639760017395
 30
2.224174499511719
 70
   192
  0
VERTEX
  5
88
  8
METAL
 10
43.4488582611084
 20
-0.0000000000000071
 30
2.224174499511719
 70
   192
  0
VERTEX
  5
89
  8
METAL
 10
43.4488582611084
 20
-0.0000000000000071
 30
2.224174499511719
 70
   192
  0
VERTEX
  5
8A
  8
METAL
 10
43.53195590025138
 20
-12.51597300988135
 30
8.704790108413302
 70
   192
  0
VERTEX
  5
8B
  8
METAL
 10
43.53195590025138
 20
-11.35550586205419
 30
8.704790108413302
 70
   192
  0
VERTEX
  5
8C
  8
METAL
 10
43.53195590025138
 20
-11.35550586205419
 30
8.704790108413302
 70
   192
  0
VERTEX
  5
8D
  8
METAL
 10
43.53195590025138
 20
-0.4915308139890106
 30
8.704790108413302
 70
   192
  0
VERTEX
  5
8E
  8
METAL
 10
43.53195590025138
 20
-0.4915308139890106
 30
8.704790108413302
 70
   192
  0
VERTEX
  5
8F
  8
METAL
 10
44.19885826110839
 20
-12.02444219589234
 30
4.474174499511719
 70
   192
  0
VERTEX
  5
90
  8
METAL
 10
44.19885826110839
 20
-10.8639760017395
 30
4.474174499511719
 70
   192
  0
VERTEX
  5
91
  8
METAL
 10
44.19885826110839
 20
-10.8639760017395
 30
4.474174499511719
 70
   192
  0
VERTEX
  5
386
  8
METAL
 10
44.1988582611084
 20
-0.0000000000000071
 30
4.474174499511719
 70
   192
  0
VERTEX
  5
387
  8
METAL
 10
44.1988582611084
 20
-0.0000000000000071
 30
4.474174499511719
 70
   192
  0
VERTEX
  5
94
  8
METAL
 10
44.28195590025138
 20
-12.51597300988135
 30
6.454790108413303
 70
   192
  0
VERTEX
  5
95
  8
METAL
 10
44.28195590025138
 20
-11.35550586205419
 30
6.454790108413303
 70
   192
  0
VERTEX
  5
96
  8
METAL
 10
44.28195590025138
 20
-11.35550586205419
 30
6.454790108413303
 70
   192
  0
VERTEX
  5
388
  8
METAL
 10
44.28195590025138
 20
-0.4915308139890106
 30
6.454790108413303
 70
   192
  0
VERTEX
  5
389
  8
METAL
 10
44.28195590025138
 20
-0.4915308139890106
 30
6.454790108413303
 70
   192
  0
VERTEX
  5
99
  8
METAL
 10
44.86307144165038
 20
-12.02444219589234
 30
0.809959411621094
 70
   192
  0
VERTEX
  5
9A
  8
METAL
 10
44.86307144165038
 20
-12.02444219589234
 30
0.809959411621094
 70
   192
  0
VERTEX
  5
9B
  8
METAL
 10
44.86307144165038
 20
-10.8639760017395
 30
0.809959411621094
 70
   192
  0
VERTEX
  5
9C
  8
METAL
 10
44.86307144165038
 20
-10.8639760017395
 30
0.809959411621094
 70
   192
  0
VERTEX
  5
9D
  8
METAL
 10
44.94616908079337
 20
-12.51597300988135
 30
9.619004242629618
 70
   192
  0
VERTEX
  5
9E
  8
METAL
 10
44.94616908079337
 20
-12.51597300988135
 30
9.619004242629618
 70
   192
  0
VERTEX
  5
9F
  8
METAL
 10
44.94616908079337
 20
-11.35550586205419
 30
9.619004242629618
 70
   192
  0
VERTEX
  5
A0
  8
METAL
 10
44.94616908079337
 20
-11.35550586205419
 30
9.619004242629618
 70
   192
  0
VERTEX
  5
A1
  8
METAL
 10
46.17303276062011
 20
-12.02444219589235
 30
4.15380859375
 70
   192
  0
VERTEX
  5
A2
  8
METAL
 10
46.17303276062011
 20
-12.02444219589235
 30
4.15380859375
 70
   192
  0
VERTEX
  5
A3
  8
METAL
 10
46.17303276062011
 20
-10.8639760017395
 30
4.15380859375
 70
   192
  0
VERTEX
  5
A4
  8
METAL
 10
46.17303276062011
 20
-10.8639760017395
 30
4.15380859375
 70
   192
  0
VERTEX
  5
A5
  8
METAL
 10
46.25613039976309
 20
-12.51597300988135
 30
6.775156014175022
 70
   192
  0
VERTEX
  5
A6
  8
METAL
 10
46.25613039976309
 20
-12.51597300988135
 30
6.775156014175022
 70
   192
  0
VERTEX
  5
A7
  8
METAL
 10
46.25613039976309
 20
-11.3555058620542
 30
6.775156014175022
 70
   192
  0
VERTEX
  5
A8
  8
METAL
 10
46.25613039976309
 20
-11.3555058620542
 30
6.775156014175022
 70
   192
  0
VERTEX
  5
A9
  8
METAL
 10
0.0
 20
0.0
 30
0.0
 70
   128
 71
    59
 72
    49
 73
    53
 74
    63
  0
VERTEX
  5
AA
  8
METAL
 10
0.0
 20
0.0
 30
0.0
 70
   128
 71
    78
 72
    73
 73
    83
 74
    88
  0
VERTEX
  5
AB
  8
METAL
 10
0.0
 20
0.0
 30
0.0
 70
   128
 71
    54
 72
    52
 73
    62
 74
    64
  0
VERTEX
  5
AC
  8
METAL
 10
0.0
 20
0.0
 30
0.0
 70
   128
 71
    20
 72
    18
 73
    23
 74
    25
  0
VERTEX
  5
AD
  8
METAL
 10
0.0
 20
0.0
 30
0.0
 70
   128
 71
    58
 72
    56
 73
    46
 74
    48
  0
VERTEX
  5
AE
  8
METAL
 10
0.0
 20
0.0
 30
0.0
 70
   128
 71
    92
 72
    90
 73
    85
 74
    87
  0
VERTEX
  5
AF
  8
METAL
 10
0.0
 20
0.0
 30
0.0
 70
   128
 71
    35
 72
    33
 73
    52
 74
    54
  0
VERTEX
  5
B0
  8
METAL
 10
0.0
 20
0.0
 30
0.0
 70
   128
 71
    98
 72
   100
 73
    72
 74
    70
  0
VERTEX
  5
B1
  8
METAL
 10
0.0
 20
0.0
 30
0.0
 70
   128
 71
    30
 72
    28
 73
    18
 74
    20
  0
VERTEX
  5
B2
  8
METAL
 10
0.0
 20
0.0
 30
0.0
 70
   128
 71
    77
 72
    75
 73
    56
 74
    58
  0
VERTEX
  5
B3
  8
METAL
 10
0.0
 20
0.0
 30
0.0
 70
   128
 71
    25
 72
    23
 73
    33
 74
    35
  0
VERTEX
  5
B4
  8
METAL
 10
0.0
 20
0.0
 30
0.0
 70
   128
 71
   106
 72
   108
 73
   100
 74
    98
  0
VERTEX
  5
B5
  8
METAL
 10
0.0
 20
0.0
 30
0.0
 70
   128
 71
    48
 72
    46
 73
    28
 74
    30
  0
VERTEX
  5
B6
  8
METAL
 10
0.0
 20
0.0
 30
0.0
 70
   128
 71
    87
 72
    85
 73
    75
 74
    77
  0
VERTEX
  5
B7
  8
METAL
 10
0.0
 20
0.0
 30
0.0
 70
   128
 71
    42
 72
    70
 73
    72
 74
    44
  0
VERTEX
  5
B8
  8
METAL
 10
0.0
 20
0.0
 30
0.0
 70
   128
 71
     1
 72
     5
 73
     7
 74
     3
  0
VERTEX
  5
B9
  8
METAL
 10
0.0
 20
0.0
 30
0.0
 70
   128
 71
    65
 72
    37
 73
    39
 74
    67
  0
VERTEX
  5
BA
  8
METAL
 10
0.0
 20
0.0
 30
0.0
 70
   128
 71
   106
 72
   102
 73
   104
 74
   108
  0
VERTEX
  5
BB
  8
METAL
 10
0.0
 20
0.0
 30
0.0
 70
   128
 71
    13
 72
    42
 73
    44
 74
    15
  0
VERTEX
  5
BC
  8
METAL
 10
0.0
 20
0.0
 30
0.0
 70
   128
 71
    82
 72
    64
 73
    62
 74
    80
  0
VERTEX
  5
BD
  8
METAL
 10
0.0
 20
0.0
 30
0.0
 70
   128
 71
     9
 72
     1
 73
     3
 74
    11
  0
VERTEX
  5
BE
  8
METAL
 10
0.0
 20
0.0
 30
0.0
 70
   128
 71
    94
 72
    65
 73
    67
 74
    96
  0
VERTEX
  5
BF
  8
METAL
 10
0.0
 20
0.0
 30
0.0
 70
   128
 71
     5
 72
    13
 73
    15
 74
     7
  0
VERTEX
  5
C0
  8
METAL
 10
0.0
 20
0.0
 30
0.0
 70
   128
 71
    92
 72
    82
 73
    80
 74
    90
  0
VERTEX
  5
C1
  8
METAL
 10
0.0
 20
0.0
 30
0.0
 70
   128
 71
    37
 72
     9
 73
    11
 74
    39
  0
VERTEX
  5
C2
  8
METAL
 10
0.0
 20
0.0
 30
0.0
 70
   128
 71
   102
 72
    94
 73
    96
 74
   104
  0
VERTEX
  5
C3
  8
METAL
 10
0.0
 20
0.0
 30
0.0
 70
   128
 71
    50
 72
    60
 73
    69
 74
    41
  0
VERTEX
  5
C4
  8
METAL
 10
0.0
 20
0.0
 30
0.0
 70
   128
 71
    60
 72
    78
 73
    97
 74
    69
  0
VERTEX
  5
C5
  8
METAL
 10
0.0
 20
0.0
 30
0.0
 70
   128
 71
    78
 72
    88
 73
   105
 74
    97
  0
VERTEX
  5
C6
  8
METAL
 10
0.0
 20
0.0
 30
0.0
 70
   128
 71
    88
 72
    83
 73
   101
 74
   105
  0
VERTEX
  5
C7
  8
METAL
 10
0.0
 20
0.0
 30
0.0
 70
   128
 71
    83
 72
    73
 73
    93
 74
   101
  0
VERTEX
  5
C8
  8
METAL
 10
0.0
 20
0.0
 30
0.0
 70
   128
 71
    73
 72
    55
 73
    66
 74
    93
  0
VERTEX
  5
C9
  8
METAL
 10
0.0
 20
0.0
 30
0.0
 70
   128
 71
    55
 72
    45
 73
    38
 74
    66
  0
VERTEX
  5
CA
  8
METAL
 10
0.0
 20
0.0
 30
0.0
 70
   128
 71
    45
 72
    27
 73
    10
 74
    38
  0
VERTEX
  5
CB
  8
METAL
 10
0.0
 20
0.0
 30
0.0
 70
   128
 71
    27
 72
    17
 73
     2
 74
    10
  0
VERTEX
  5
CC
  8
METAL
 10
0.0
 20
0.0
 30
0.0
 70
   128
 71
    17
 72
    22
 73
     6
 74
     2
  0
VERTEX
  5
CD
  8
METAL
 10
0.0
 20
0.0
 30
0.0
 70
   128
 71
    22
 72
    32
 73
    14
 74
     6
  0
VERTEX
  5
CE
  8
METAL
 10
0.0
 20
0.0
 30
0.0
 70
   128
 71
    32
 72
    50
 73
    41
 74
    14
  0
VERTEX
  5
CF
  8
METAL
 10
0.0
 20
0.0
 30
0.0
 70
   128
 71
    61
 72
    51
 73
    43
 74
    71
  0
VERTEX
  5
D0
  8
METAL
 10
0.0
 20
0.0
 30
0.0
 70
   128
 71
    51
 72
    34
 73
    16
 74
    43
  0
VERTEX
  5
D1
  8
METAL
 10
0.0
 20
0.0
 30
0.0
 70
   128
 71
    34
 72
    24
 73
     8
 74
    16
  0
VERTEX
  5
D2
  8
METAL
 10
0.0
 20
0.0
 30
0.0
 70
   128
 71
    24
 72
    19
 73
     4
 74
     8
  0
VERTEX
  5
D3
  8
METAL
 10
0.0
 20
0.0
 30
0.0
 70
   128
 71
    19
 72
    29
 73
    12
 74
     4
  0
VERTEX
  5
D4
  8
METAL
 10
0.0
 20
0.0
 30
0.0
 70
   128
 71
    29
 72
    47
 73
    40
 74
    12
  0
VERTEX
  5
D5
  8
METAL
 10
0.0
 20
0.0
 30
0.0
 70
   128
 71
    47
 72
    57
 73
    68
 74
    40
  0
VERTEX
  5
D6
  8
METAL
 10
0.0
 20
0.0
 30
0.0
 70
   128
 71
    57
 72
    74
 73
    95
 74
    68
  0
VERTEX
  5
D7
  8
METAL
 10
0.0
 20
0.0
 30
0.0
 70
   128
 71
    74
 72
    84
 73
   103
 74
    95
  0
VERTEX
  5
D8
  8
METAL
 10
0.0
 20
0.0
 30
0.0
 70
   128
 71
    84
 72
    89
 73
   107
 74
   103
  0
VERTEX
  5
D9
  8
METAL
 10
0.0
 20
0.0
 30
0.0
 70
   128
 71
    89
 72
    79
 73
    99
 74
   107
  0
VERTEX
  5
DA
  8
METAL
 10
0.0
 20
0.0
 30
0.0
 70
   128
 71
    79
 72
    61
 73
    71
 74
    99
  0
VERTEX
  5
DB
  8
METAL
 10
0.0
 20
0.0
 30
0.0
 70
   128
 71
    50
 72
    45
 73
    55
 74
    60
  0
VERTEX
  5
DC
  8
METAL
 10
0.0
 20
0.0
 30
0.0
 70
   128
 71
    60
 72
    55
 73
    73
 74
    78
  0
VERTEX
  5
DD
  8
METAL
 10
0.0
 20
0.0
 30
0.0
 70
   128
 71
    32
 72
    27
 73
    45
 74
    50
  0
VERTEX
  5
DE
  8
METAL
 10
0.0
 20
0.0
 30
0.0
 70
   128
 71
    22
 72
    17
 73
    27
 74
    32
  0
VERTEX
  5
DF
  8
METAL
 10
0.0
 20
0.0
 30
0.0
 70
   128
 71
    31
 72
    36
 73
    53
 74
    49
  0
VERTEX
  5
E0
  8
METAL
 10
0.0
 20
0.0
 30
0.0
 70
   128
 71
    21
 72
    26
 73
    36
 74
    31
  0
VERTEX
  5
E1
  8
METAL
 10
0.0
 20
0.0
 30
0.0
 70
   128
 71
    81
 72
    76
 73
    59
 74
    63
  0
VERTEX
  5
E2
  8
METAL
 10
0.0
 20
0.0
 30
0.0
 70
   128
 71
    91
 72
    86
 73
    76
 74
    81
  0
SEQEND
  5
3C1
  8
METAL
  0
POLYLINE
  5
E5
  8
COSTURA
 66
     1
 10
0.0
 20
0.0
 30
0.0
 70
    64
 71
    52
 72
    13
  0
VERTEX
  5
E6
  8
COSTURA
 10
6.080354871808996
 20
-29.32955447655614
 30
6.578628533095906
 70
   192
  0
VERTEX
  5
E7
  8
COSTURA
 10
6.080354871808996
 20
-30.07947818261083
 30
6.578628533095906
 70
   192
  0
VERTEX
  5
E8
  8
COSTURA
 10
8.180137815534582
 20
-30.07947818261083
 30
6.578628533095906
 70
   192
  0
VERTEX
  5
E9
  8
COSTURA
 10
8.180137815534582
 20
-29.32955447655614
 30
6.578628533095906
 70
   192
  0
VERTEX
  5
EA
  8
COSTURA
 10
8.761587324201574
 20
-29.32955447655614
 30
6.578626625747273
 70
   192
  0
VERTEX
  5
EB
  8
COSTURA
 10
8.761587324201574
 20
-30.07947818261083
 30
6.578626625747273
 70
   192
  0
VERTEX
  5
EC
  8
COSTURA
 10
10.86137217527579
 20
-30.07947818261083
 30
6.578626625747273
 70
   192
  0
VERTEX
  5
ED
  8
COSTURA
 10
10.86137217527579
 20
-29.32955447655614
 30
6.578626625747273
 70
   192
  0
VERTEX
  5
EE
  8
COSTURA
 10
11.44282359129142
 20
-29.32955447655614
 30
6.578626625747273
 70
   192
  0
VERTEX
  5
EF
  8
COSTURA
 10
11.44282359129142
 20
-30.07947818261083
 30
6.578626625747273
 70
   192
  0
VERTEX
  5
F0
  8
COSTURA
 10
13.54260462766837
 20
-30.07947818261083
 30
6.578626625747273
 70
   192
  0
VERTEX
  5
F1
  8
COSTURA
 10
13.54260462766837
 20
-29.32955447655614
 30
6.578626625747273
 70
   192
  0
VERTEX
  5
F2
  8
COSTURA
 10
14.124056043684
 20
-29.32955447655614
 30
6.578626625747273
 70
   192
  0
VERTEX
  5
F3
  8
COSTURA
 10
14.124056043684
 20
-30.07947818261083
 30
6.578626625747273
 70
   192
  0
VERTEX
  5
F4
  8
COSTURA
 10
16.22383898740957
 20
-30.07947818261083
 30
6.578626625747273
 70
   192
  0
VERTEX
  5
F5
  8
COSTURA
 10
16.22384089475821
 20
-29.32955447655614
 30
6.578626625747273
 70
   192
  0
VERTEX
  5
F6
  8
COSTURA
 10
16.80529231077384
 20
-29.32955447655614
 30
6.578624718398655
 70
   192
  0
VERTEX
  5
F7
  8
COSTURA
 10
16.80529231077384
 20
-30.07947818261083
 30
6.578624718398655
 70
   192
  0
VERTEX
  5
F8
  8
COSTURA
 10
18.90507525449943
 20
-30.07947818261083
 30
6.578624718398655
 70
   192
  0
VERTEX
  5
F9
  8
COSTURA
 10
18.90507525449943
 20
-29.32955447655614
 30
6.578624718398655
 70
   192
  0
VERTEX
  5
FA
  8
COSTURA
 10
19.46142596250724
 20
-29.32955447655614
 30
6.578624718398655
 70
   192
  0
VERTEX
  5
FB
  8
COSTURA
 10
19.46142596250724
 20
-30.07947818261083
 30
6.578624718398655
 70
   192
  0
VERTEX
  5
FC
  8
COSTURA
 10
21.56120890623281
 20
-30.07947818261083
 30
6.578624718398655
 70
   192
  0
VERTEX
  5
FD
  8
COSTURA
 10
21.56120890623281
 20
-29.32955447655614
 30
6.578624718398655
 70
   192
  0
VERTEX
  5
FE
  8
COSTURA
 10
22.14265841489982
 20
-29.32955447655614
 30
6.578624718398655
 70
   192
  0
VERTEX
  5
FF
  8
COSTURA
 10
22.14265841489982
 20
-30.07947818261083
 30
6.578624718398655
 70
   192
  0
VERTEX
  5
100
  8
COSTURA
 10
24.24244135862539
 20
-30.07947818261083
 30
6.578624718398655
 70
   192
  0
VERTEX
  5
101
  8
COSTURA
 10
24.24244135862539
 20
-29.32955447655614
 30
6.578624718398655
 70
   192
  0
VERTEX
  5
102
  8
COSTURA
 10
24.82389277464103
 20
-29.3295506618589
 30
6.578628533095906
 70
   192
  0
VERTEX
  5
103
  8
COSTURA
 10
24.82389277464103
 20
-30.07947436791357
 30
6.578628533095906
 70
   192
  0
VERTEX
  5
104
  8
COSTURA
 10
26.92367381101798
 20
-30.07947818261083
 30
6.578626625747273
 70
   192
  0
VERTEX
  5
105
  8
COSTURA
 10
26.92367381101798
 20
-29.32955447655614
 30
6.578626625747273
 70
   192
  0
VERTEX
  5
106
  8
COSTURA
 10
27.5051252270336
 20
-29.32955447655614
 30
6.578624718398655
 70
   192
  0
VERTEX
  5
107
  8
COSTURA
 10
27.5051252270336
 20
-30.07947818261083
 30
6.578624718398655
 70
   192
  0
VERTEX
  5
108
  8
COSTURA
 10
29.60490769392203
 20
-30.07947818261083
 30
6.578624718398655
 70
   192
  0
VERTEX
  5
109
  8
COSTURA
 10
29.60490769392203
 20
-29.32955447655614
 30
6.578624718398655
 70
   192
  0
VERTEX
  5
10A
  8
COSTURA
 10
30.18635767942618
 20
-29.32955447655614
 30
6.578622811050022
 70
   192
  0
VERTEX
  5
10B
  8
COSTURA
 10
30.18635767942618
 20
-30.07947818261083
 30
6.578622811050022
 70
   192
  0
VERTEX
  5
10C
  8
COSTURA
 10
32.28614300733756
 20
-30.07947818261083
 30
6.578622811050022
 70
   192
  0
VERTEX
  5
10D
  8
COSTURA
 10
32.28614300733756
 20
-29.32955447655614
 30
6.578622811050022
 70
   192
  0
VERTEX
  5
10E
  8
COSTURA
 10
32.86759370809744
 20
-29.32955447655614
 30
6.578622811050022
 70
   192
  0
VERTEX
  5
10F
  8
COSTURA
 10
32.86759370809744
 20
-30.07947818261083
 30
6.578622811050022
 70
   192
  0
VERTEX
  5
110
  8
COSTURA
 10
34.96737474447438
 20
-30.07947818261083
 30
6.578622811050022
 70
   192
  0
VERTEX
  5
111
  8
COSTURA
 10
34.96737474447438
 20
-29.32955447655614
 30
6.578622811050022
 70
   192
  0
VERTEX
  5
112
  8
COSTURA
 10
35.54882681614112
 20
-29.32955447655614
 30
6.578622811050022
 70
   192
  0
VERTEX
  5
113
  8
COSTURA
 10
35.54882681614112
 20
-30.07947818261083
 30
6.578622811050022
 70
   192
  0
VERTEX
  5
114
  8
COSTURA
 10
37.64861077314566
 20
-30.07947818261083
 30
6.578622811050022
 70
   192
  0
VERTEX
  5
115
  8
COSTURA
 10
37.64861077314566
 20
-29.32955447655614
 30
6.578622811050022
 70
   192
  0
VERTEX
  5
116
  8
COSTURA
 10
38.23006278520774
 20
-29.32955447655614
 30
6.578620903701375
 70
   192
  0
VERTEX
  5
117
  8
COSTURA
 10
38.23006278520774
 20
-30.07947818261083
 30
6.578620903701375
 70
   192
  0
VERTEX
  5
118
  8
COSTURA
 10
40.32984775549124
 20
-30.07947818261083
 30
6.578620903701375
 70
   192
  0
VERTEX
  5
119
  8
COSTURA
 10
40.32984775549124
 20
-29.32955447655614
 30
6.578620903701375
 70
   192
  0
VERTEX
  5
11A
  8
COSTURA
 10
0.0
 20
0.0
 30
0.0
 70
   128
 71
     1
 72
     2
 73
     3
 74
     4
  0
VERTEX
  5
11B
  8
COSTURA
 10
0.0
 20
0.0
 30
0.0
 70
   128
 71
     5
 72
     6
 73
     7
 74
     8
  0
VERTEX
  5
11C
  8
COSTURA
 10
0.0
 20
0.0
 30
0.0
 70
   128
 71
     9
 72
    10
 73
    11
 74
    12
  0
VERTEX
  5
11D
  8
COSTURA
 10
0.0
 20
0.0
 30
0.0
 70
   128
 71
    13
 72
    14
 73
    15
 74
    16
  0
VERTEX
  5
11E
  8
COSTURA
 10
0.0
 20
0.0
 30
0.0
 70
   128
 71
    17
 72
    18
 73
    19
 74
    20
  0
VERTEX
  5
11F
  8
COSTURA
 10
0.0
 20
0.0
 30
0.0
 70
   128
 71
    21
 72
    22
 73
    23
 74
    24
  0
VERTEX
  5
120
  8
COSTURA
 10
0.0
 20
0.0
 30
0.0
 70
   128
 71
    25
 72
    26
 73
    27
 74
    28
  0
VERTEX
  5
121
  8
COSTURA
 10
0.0
 20
0.0
 30
0.0
 70
   128
 71
    29
 72
    30
 73
    31
 74
    32
  0
VERTEX
  5
122
  8
COSTURA
 10
0.0
 20
0.0
 30
0.0
 70
   128
 71
    33
 72
    34
 73
    35
 74
    36
  0
VERTEX
  5
123
  8
COSTURA
 10
0.0
 20
0.0
 30
0.0
 70
   128
 71
    37
 72
    38
 73
    39
 74
    40
  0
VERTEX
  5
124
  8
COSTURA
 10
0.0
 20
0.0
 30
0.0
 70
   128
 71
    41
 72
    42
 73
    43
 74
    44
  0
VERTEX
  5
125
  8
COSTURA
 10
0.0
 20
0.0
 30
0.0
 70
   128
 71
    45
 72
    46
 73
    47
 74
    48
  0
VERTEX
  5
126
  8
COSTURA
 10
0.0
 20
0.0
 30
0.0
 70
   128
 71
    49
 72
    50
 73
    51
 74
    52
  0
SEQEND
  5
3C2
  8
COSTURA
  0
POLYLINE
  5
128
  8
COSTURA
 66
     1
 10
0.0
 20
0.0
 30
0.0
 70
    64
 71
    52
 72
    13
  0
VERTEX
  5
129
  8
COSTURA
 10
40.24674415588378
 20
-28.83801984786989
 30
4.412300109863267
 70
   192
  0
VERTEX
  5
12A
  8
COSTURA
 10
40.24674415588378
 20
-29.58794355392456
 30
4.412300109863267
 70
   192
  0
VERTEX
  5
12B
  8
COSTURA
 10
38.1469612121582
 20
-29.58794355392456
 30
4.412300109863267
 70
   192
  0
VERTEX
  5
12C
  8
COSTURA
 10
38.1469612121582
 20
-28.83801984786989
 30
4.412300109863267
 70
   192
  0
VERTEX
  5
12D
  8
COSTURA
 10
37.56551110744476
 20
-28.83801984786989
 30
4.412300109863267
 70
   192
  0
VERTEX
  5
12E
  8
COSTURA
 10
37.56551110744476
 20
-29.58794355392456
 30
4.412300109863267
 70
   192
  0
VERTEX
  5
12F
  8
COSTURA
 10
35.46572816371917
 20
-29.58794355392456
 30
4.412300109863267
 70
   192
  0
VERTEX
  5
130
  8
COSTURA
 10
35.46572816371917
 20
-28.83801984786989
 30
4.412300109863267
 70
   192
  0
VERTEX
  5
131
  8
COSTURA
 10
34.8842761516571
 20
-28.83801984786989
 30
4.412300109863267
 70
   192
  0
VERTEX
  5
132
  8
COSTURA
 10
34.8842761516571
 20
-29.58794355392456
 30
4.412300109863267
 70
   192
  0
VERTEX
  5
133
  8
COSTURA
 10
32.78449320793151
 20
-29.58794355392456
 30
4.412300109863267
 70
   192
  0
VERTEX
  5
134
  8
COSTURA
 10
32.78449320793151
 20
-28.83801984786989
 30
4.412300109863267
 70
   192
  0
VERTEX
  5
135
  8
COSTURA
 10
32.20304203033447
 20
-28.83801984786989
 30
4.412300109863267
 70
   192
  0
VERTEX
  5
136
  8
COSTURA
 10
32.20304203033447
 20
-29.58794355392456
 30
4.412300109863267
 70
   192
  0
VERTEX
  5
137
  8
COSTURA
 10
30.1032600402832
 20
-29.58794355392456
 30
4.412300109863267
 70
   192
  0
VERTEX
  5
138
  8
COSTURA
 10
30.10325813293456
 20
-28.83801984786989
 30
4.412300109863267
 70
   192
  0
VERTEX
  5
139
  8
COSTURA
 10
29.5218071937561
 20
-28.83801984786989
 30
4.4123020172119
 70
   192
  0
VERTEX
  5
13A
  8
COSTURA
 10
29.5218071937561
 20
-29.58794355392456
 30
4.4123020172119
 70
   192
  0
VERTEX
  5
13B
  8
COSTURA
 10
27.42202377319336
 20
-29.58794355392456
 30
4.412300109863267
 70
   192
  0
VERTEX
  5
13C
  8
COSTURA
 10
27.42202377319336
 20
-28.83801984786989
 30
4.412300109863267
 70
   192
  0
VERTEX
  5
13D
  8
COSTURA
 10
26.86567306518555
 20
-28.83801984786989
 30
4.412300109863267
 70
   192
  0
VERTEX
  5
13E
  8
COSTURA
 10
26.86567306518555
 20
-29.58794355392456
 30
4.412300109863267
 70
   192
  0
VERTEX
  5
13F
  8
COSTURA
 10
24.76589012145996
 20
-29.58794355392456
 30
4.412300109863267
 70
   192
  0
VERTEX
  5
140
  8
COSTURA
 10
24.76589012145996
 20
-28.83801984786989
 30
4.412300109863267
 70
   192
  0
VERTEX
  5
141
  8
COSTURA
 10
24.18444061279297
 20
-28.83801984786989
 30
4.412300109863267
 70
   192
  0
VERTEX
  5
142
  8
COSTURA
 10
24.18444061279297
 20
-29.58794355392456
 30
4.412300109863267
 70
   192
  0
VERTEX
  5
143
  8
COSTURA
 10
22.0846586227417
 20
-29.58794355392456
 30
4.412300109863267
 70
   192
  0
VERTEX
  5
144
  8
COSTURA
 10
22.0846586227417
 20
-28.83801984786989
 30
4.412300109863267
 70
   192
  0
VERTEX
  5
145
  8
COSTURA
 10
21.50320625305176
 20
-28.83801984786989
 30
4.412296295166016
 70
   192
  0
VERTEX
  5
146
  8
COSTURA
 10
21.50320625305176
 20
-29.58794355392456
 30
4.412296295166016
 70
   192
  0
VERTEX
  5
147
  8
COSTURA
 10
19.4034252166748
 20
-29.58794355392456
 30
4.412298202514648
 70
   192
  0
VERTEX
  5
148
  8
COSTURA
 10
19.4034252166748
 20
-28.83801984786989
 30
4.412298202514648
 70
   192
  0
VERTEX
  5
149
  8
COSTURA
 10
18.82197380065918
 20
-28.83801984786989
 30
4.412300109863267
 70
   192
  0
VERTEX
  5
14A
  8
COSTURA
 10
18.82197380065918
 20
-29.58794355392456
 30
4.412300109863267
 70
   192
  0
VERTEX
  5
14B
  8
COSTURA
 10
16.72219085693359
 20
-29.58794355392456
 30
4.412298202514648
 70
   192
  0
VERTEX
  5
14C
  8
COSTURA
 10
16.72219085693359
 20
-28.83801984786989
 30
4.412298202514648
 70
   192
  0
VERTEX
  5
14D
  8
COSTURA
 10
16.14074134826659
 20
-28.83801984786989
 30
4.412300109863267
 70
   192
  0
VERTEX
  5
14E
  8
COSTURA
 10
16.14074134826659
 20
-29.58794355392456
 30
4.412300109863267
 70
   192
  0
VERTEX
  5
14F
  8
COSTURA
 10
14.04095649719238
 20
-29.58794355392456
 30
4.412300109863267
 70
   192
  0
VERTEX
  5
150
  8
COSTURA
 10
14.04095649719238
 20
-28.83801984786989
 30
4.412300109863267
 70
   192
  0
VERTEX
  5
151
  8
COSTURA
 10
13.45950508117676
 20
-28.83801984786989
 30
4.412300109863267
 70
   192
  0
VERTEX
  5
152
  8
COSTURA
 10
13.45950508117676
 20
-29.58794355392456
 30
4.412300109863267
 70
   192
  0
VERTEX
  5
153
  8
COSTURA
 10
11.3597240447998
 20
-29.58794355392456
 30
4.412300109863267
 70
   192
  0
VERTEX
  5
154
  8
COSTURA
 10
11.3597240447998
 20
-28.83801984786989
 30
4.412300109863267
 70
   192
  0
VERTEX
  5
155
  8
COSTURA
 10
10.77827262878418
 20
-28.83801984786989
 30
4.412300109863267
 70
   192
  0
VERTEX
  5
156
  8
COSTURA
 10
10.77827262878418
 20
-29.58794355392456
 30
4.412300109863267
 70
   192
  0
VERTEX
  5
157
  8
COSTURA
 10
8.678487777709961
 20
-29.58794355392456
 30
4.412300109863267
 70
   192
  0
VERTEX
  5
158
  8
COSTURA
 10
8.678487777709961
 20
-28.83801984786989
 30
4.412300109863267
 70
   192
  0
VERTEX
  5
159
  8
COSTURA
 10
8.097036361694336
 20
-28.83801984786989
 30
4.412300109863267
 70
   192
  0
VERTEX
  5
15A
  8
COSTURA
 10
8.097036361694336
 20
-29.58794355392456
 30
4.412300109863267
 70
   192
  0
VERTEX
  5
15B
  8
COSTURA
 10
5.997251510620117
 20
-29.58794355392456
 30
4.412300109863267
 70
   192
  0
VERTEX
  5
15C
  8
COSTURA
 10
5.997251510620117
 20
-28.83801984786989
 30
4.412300109863267
 70
   192
  0
VERTEX
  5
15D
  8
COSTURA
 10
0.0
 20
0.0
 30
0.0
 70
   128
 71
     1
 72
     2
 73
     3
 74
     4
  0
VERTEX
  5
15E
  8
COSTURA
 10
0.0
 20
0.0
 30
0.0
 70
   128
 71
     5
 72
     6
 73
     7
 74
     8
  0
VERTEX
  5
15F
  8
COSTURA
 10
0.0
 20
0.0
 30
0.0
 70
   128
 71
     9
 72
    10
 73
    11
 74
    12
  0
VERTEX
  5
160
  8
COSTURA
 10
0.0
 20
0.0
 30
0.0
 70
   128
 71
    13
 72
    14
 73
    15
 74
    16
  0
VERTEX
  5
161
  8
COSTURA
 10
0.0
 20
0.0
 30
0.0
 70
   128
 71
    17
 72
    18
 73
    19
 74
    20
  0
VERTEX
  5
162
  8
COSTURA
 10
0.0
 20
0.0
 30
0.0
 70
   128
 71
    21
 72
    22
 73
    23
 74
    24
  0
VERTEX
  5
163
  8
COSTURA
 10
0.0
 20
0.0
 30
0.0
 70
   128
 71
    25
 72
    26
 73
    27
 74
    28
  0
VERTEX
  5
164
  8
COSTURA
 10
0.0
 20
0.0
 30
0.0
 70
   128
 71
    29
 72
    30
 73
    31
 74
    32
  0
VERTEX
  5
165
  8
COSTURA
 10
0.0
 20
0.0
 30
0.0
 70
   128
 71
    33
 72
    34
 73
    35
 74
    36
  0
VERTEX
  5
166
  8
COSTURA
 10
0.0
 20
0.0
 30
0.0
 70
   128
 71
    37
 72
    38
 73
    39
 74
    40
  0
VERTEX
  5
167
  8
COSTURA
 10
0.0
 20
0.0
 30
0.0
 70
   128
 71
    41
 72
    42
 73
    43
 74
    44
  0
VERTEX
  5
168
  8
COSTURA
 10
0.0
 20
0.0
 30
0.0
 70
   128
 71
    45
 72
    46
 73
    47
 74
    48
  0
VERTEX
  5
169
  8
COSTURA
 10
0.0
 20
0.0
 30
0.0
 70
   128
 71
    49
 72
    50
 73
    51
 74
    52
  0
SEQEND
  5
3C3
  8
COSTURA
  0
POLYLINE
  5
16C
  8
COURO
 66
     1
 10
0.0
 20
0.0
 30
0.0
 70
    64
 71
   184
 72
    87
  0
VERTEX
  5
16D
  8
COURO
 10
4.494808197021484
 20
-37.44138669967653
 30
3.802810668945298
 70
   192
  0
VERTEX
  5
16E
  8
COURO
 10
4.494808197021484
 20
-37.44138669967653
 30
3.802810668945298
 70
   192
  0
VERTEX
  5
16F
  8
COURO
 10
4.494808197021484
 20
-37.00973844528198
 30
4.060901641845689
 70
   192
  0
VERTEX
  5
170
  8
COURO
 10
4.494808197021484
 20
-37.00973844528198
 30
4.060901641845689
 70
   192
  0
VERTEX
  5
171
  8
COURO
 10
4.494808197021484
 20
-37.78408765792847
 30
4.789356231689439
 70
   192
  0
VERTEX
  5
172
  8
COURO
 10
4.494808197021484
 20
-37.78408765792847
 30
4.789356231689439
 70
   192
  0
VERTEX
  5
173
  8
COURO
 10
4.494808197021484
 20
-37.2910418510437
 30
4.878982543945298
 70
   192
  0
VERTEX
  5
174
  8
COURO
 10
4.494808197021484
 20
-37.2910418510437
 30
4.878982543945298
 70
   192
  0
VERTEX
  5
175
  8
COURO
 10
4.577905836164465
 20
-31.26341144066748
 30
5.592706673354695
 70
   192
  0
VERTEX
  5
176
  8
COURO
 10
4.577905836164465
 20
-31.26341144066748
 30
5.592706673354695
 70
   192
  0
VERTEX
  5
177
  8
COURO
 10
4.577905836164465
 20
-30.38791171532568
 30
5.639211647719945
 70
   192
  0
VERTEX
  5
178
  8
COURO
 10
4.577905836164465
 20
-30.38791171532568
 30
5.639211647719945
 70
   192
  0
VERTEX
  5
179
  8
COURO
 10
4.494810104370117
 20
-31.26394605636597
 30
3.26329231262207
 70
   192
  0
VERTEX
  5
17A
  8
COURO
 10
4.494810104370117
 20
-31.26394605636597
 30
3.26329231262207
 70
   192
  0
VERTEX
  5
17B
  8
COURO
 10
4.494810104370117
 20
-31.92280149459839
 30
3.326677322387695
 70
   192
  0
VERTEX
  5
17C
  8
COURO
 10
4.494810104370117
 20
-31.92280149459839
 30
3.326677322387695
 70
   192
  0
VERTEX
  5
17D
  8
COURO
 10
4.494810104370117
 20
-36.50900602340698
 30
3.51031112670897
 70
   192
  0
VERTEX
  5
17E
  8
COURO
 10
4.494810104370117
 20
-36.50900602340698
 30
3.51031112670897
 70
   192
  0
VERTEX
  5
17F
  8
COURO
 10
4.494810104370117
 20
-30.71899366378784
 30
3.64013671875
 70
   192
  0
VERTEX
  5
180
  8
COURO
 10
4.494810104370117
 20
-30.71899366378784
 30
3.64013671875
 70
   192
  0
VERTEX
  5
181
  8
COURO
 10
4.494810104370117
 20
-31.35179471969604
 30
3.702016830444336
 70
   192
  0
VERTEX
  5
182
  8
COURO
 10
4.494810104370117
 20
-31.35179471969604
 30
3.702016830444336
 70
   192
  0
VERTEX
  5
183
  8
COURO
 10
4.494810104370117
 20
-29.89195966720581
 30
4.422634124755859
 70
   192
  0
VERTEX
  5
184
  8
COURO
 10
4.494810104370117
 20
-29.89195966720581
 30
4.422634124755859
 70
   192
  0
VERTEX
  5
185
  8
COURO
 10
4.494810104370117
 20
-8.006983280181892
 30
4.422634124755859
 70
   192
  0
VERTEX
  5
186
  8
COURO
 10
4.494810104370117
 20
-8.006983280181892
 30
4.422634124755859
 70
   192
  0
VERTEX
  5
187
  8
COURO
 10
4.494810104370117
 20
-8.006983280181892
 30
4.422634124755859
 70
   192
  0
VERTEX
  5
188
  8
COURO
 10
4.577907743513098
 20
-8.498512186822255
 30
5.639211647719945
 70
   192
  0
VERTEX
  5
189
  8
COURO
 10
4.577907743513098
 20
-8.498512186822255
 30
5.639211647719945
 70
   192
  0
VERTEX
  5
18A
  8
COURO
 10
4.577907743513098
 20
-8.498512186822255
 30
5.639211647719945
 70
   192
  0
VERTEX
  5
18B
  8
COURO
 10
4.577907743513098
 20
-30.41285983544287
 30
5.795555107802952
 70
   192
  0
VERTEX
  5
18C
  8
COURO
 10
4.577907743513098
 20
-30.41285983544287
 30
5.795555107802952
 70
   192
  0
VERTEX
  5
18D
  8
COURO
 10
4.577907743513098
 20
-31.28921786766943
 30
5.845441811294163
 70
   192
  0
VERTEX
  5
18E
  8
COURO
 10
4.577907743513098
 20
-31.28921786766943
 30
5.845441811294163
 70
   192
  0
VERTEX
  5
18F
  8
COURO
 10
4.577907743513098
 20
-37.84083835106786
 30
5.898086540908406
 70
   192
  0
VERTEX
  5
190
  8
COURO
 10
4.577907743513098
 20
-37.84083835106786
 30
5.898086540908406
 70
   192
  0
VERTEX
  5
191
  8
COURO
 10
4.577907743513098
 20
-38.34081546288428
 30
5.926774971694553
 70
   192
  0
VERTEX
  5
192
  8
COURO
 10
4.577907743513098
 20
-38.34081546288428
 30
5.926774971694553
 70
   192
  0
VERTEX
  5
193
  8
COURO
 10
4.577907743513098
 20
-37.66438952904639
 30
6.387487404555881
 70
   192
  0
VERTEX
  5
194
  8
COURO
 10
4.577907743513098
 20
-37.66438952904639
 30
6.387487404555881
 70
   192
  0
VERTEX
  5
195
  8
COURO
 10
4.577907743513098
 20
-38.138663210687
 30
6.551918022842
 70
   192
  0
VERTEX
  5
196
  8
COURO
 10
4.577907743513098
 20
-38.138663210687
 30
6.551918022842
 70
   192
  0
VERTEX
  5
197
  8
COURO
 10
4.49481201171875
 20
-34.14702177047729
 30
2.249675750732408
 70
   192
  0
VERTEX
  5
198
  8
COURO
 10
4.49481201171875
 20
-34.14702177047729
 30
2.249675750732408
 70
   192
  0
VERTEX
  5
199
  8
COURO
 10
4.49481201171875
 20
-35.33120679855347
 30
2.404928207397447
 70
   192
  0
VERTEX
  5
19A
  8
COURO
 10
4.49481201171875
 20
-35.33120679855347
 30
2.404928207397447
 70
   192
  0
VERTEX
  5
19B
  8
COURO
 10
4.49481201171875
 20
-35.9426646232605
 30
2.629253387451158
 70
   192
  0
VERTEX
  5
19C
  8
COURO
 10
4.49481201171875
 20
-35.9426646232605
 30
2.629253387451158
 70
   192
  0
VERTEX
  5
19D
  8
COURO
 10
4.49481201171875
 20
-34.17855787277222
 30
2.757392883300767
 70
   192
  0
VERTEX
  5
19E
  8
COURO
 10
4.49481201171875
 20
-34.17855787277222
 30
2.757392883300767
 70
   192
  0
VERTEX
  5
19F
  8
COURO
 10
4.49481201171875
 20
-31.80474042892456
 30
2.840795516967759
 70
   192
  0
VERTEX
  5
1A0
  8
COURO
 10
4.49481201171875
 20
-31.80474042892456
 30
2.840795516967759
 70
   192
  0
VERTEX
  5
1A1
  8
COURO
 10
4.49481201171875
 20
-35.24837064743042
 30
2.898490905761705
 70
   192
  0
VERTEX
  5
1A2
  8
COURO
 10
4.49481201171875
 20
-35.24837064743042
 30
2.898490905761705
 70
   192
  0
VERTEX
  5
1A3
  8
COURO
 10
4.49481201171875
 20
-35.75933790206909
 30
3.095457077026367
 70
   192
  0
VERTEX
  5
1A4
  8
COURO
 10
4.49481201171875
 20
-35.75933790206909
 30
3.095457077026367
 70
   192
  0
VERTEX
  5
1A5
  8
COURO
 10
4.49481201171875
 20
-36.81795454025269
 30
3.115024566650376
 70
   192
  0
VERTEX
  5
1A6
  8
COURO
 10
4.49481201171875
 20
-36.81795454025269
 30
3.115024566650376
 70
   192
  0
VERTEX
  5
1A7
  8
COURO
 10
4.577909650861731
 20
-8.349227824029294
 30
5.795555107802952
 70
   192
  0
VERTEX
  5
1A8
  8
COURO
 10
4.577909650861731
 20
-8.349227824029294
 30
5.795555107802952
 70
   192
  0
VERTEX
  5
1A9
  8
COURO
 10
4.577909650861731
 20
-8.349227824029294
 30
5.795555107802952
 70
   192
  0
VERTEX
  5
1AA
  8
COURO
 10
4.577909650861731
 20
-30.40811816674169
 30
6.544174187392795
 70
   192
  0
VERTEX
  5
1AB
  8
COURO
 10
4.577909650861731
 20
-30.40811816674169
 30
6.544174187392795
 70
   192
  0
VERTEX
  5
1AC
  8
COURO
 10
4.577909650861731
 20
-8.349224009332021
 30
6.544174187392795
 70
   192
  0
VERTEX
  5
1AD
  8
COURO
 10
4.577909650861731
 20
-8.349224009332021
 30
6.544174187392795
 70
   192
  0
VERTEX
  5
1AE
  8
COURO
 10
4.577909650861731
 20
-8.349224009332021
 30
6.544174187392795
 70
   192
  0
VERTEX
  5
1AF
  8
COURO
 10
4.577909650861731
 20
-37.2701214931577
 30
7.075561516494344
 70
   192
  0
VERTEX
  5
1B0
  8
COURO
 10
4.577909650861731
 20
-37.2701214931577
 30
7.075561516494344
 70
   192
  0
VERTEX
  5
1B1
  8
COURO
 10
4.577909650861731
 20
-31.86900989037451
 30
7.300020210952366
 70
   192
  0
VERTEX
  5
1B2
  8
COURO
 10
4.577909650861731
 20
-31.86900989037451
 30
7.300020210952366
 70
   192
  0
VERTEX
  5
1B3
  8
COURO
 10
4.577909650861731
 20
-31.23256198388037
 30
7.355604164809773
 70
   192
  0
VERTEX
  5
1B4
  8
COURO
 10
4.577909650861731
 20
-31.23256198388037
 30
7.355604164809773
 70
   192
  0
VERTEX
  5
1B5
  8
COURO
 10
4.577909650861731
 20
-37.65098849755223
 30
7.402160637588094
 70
   192
  0
VERTEX
  5
1B6
  8
COURO
 10
4.577909650861731
 20
-37.65098849755223
 30
7.402160637588094
 70
   192
  0
VERTEX
  5
1B7
  8
COURO
 10
4.577909650861731
 20
-36.63543597680028
 30
7.610219948501193
 70
   192
  0
VERTEX
  5
1B8
  8
COURO
 10
4.577909650861731
 20
-36.63543597680028
 30
7.610219948501193
 70
   192
  0
VERTEX
  5
1B9
  8
COURO
 10
4.577909650861731
 20
-32.43878451806005
 30
7.684190743178913
 70
   192
  0
VERTEX
  5
1BA
  8
COURO
 10
4.577909650861731
 20
-32.43878451806005
 30
7.684190743178913
 70
   192
  0
VERTEX
  5
1BB
  8
COURO
 10
4.577909650861731
 20
-31.7749852321714
 30
7.737737648696505
 70
   192
  0
VERTEX
  5
1BC
  8
COURO
 10
4.577909650861731
 20
-31.7749852321714
 30
7.737737648696505
 70
   192
  0
VERTEX
  5
1BD
  8
COURO
 10
4.577909650861731
 20
-32.3124608181089
 30
8.167993538589084
 70
   192
  0
VERTEX
  5
1BE
  8
COURO
 10
4.577909650861731
 20
-32.3124608181089
 30
8.167993538589084
 70
   192
  0
VERTEX
  5
1BF
  8
COURO
 10
4.577909650861731
 20
-35.90439502221044
 30
8.492816918105671
 70
   192
  0
VERTEX
  5
1C0
  8
COURO
 10
4.577909650861731
 20
-35.90439502221044
 30
8.492816918105671
 70
   192
  0
VERTEX
  5
1C1
  8
COURO
 10
4.577909650861731
 20
-34.62024966698583
 30
8.7939071585842
 70
   192
  0
VERTEX
  5
1C2
  8
COURO
 10
4.577909650861731
 20
-34.62024966698583
 30
8.7939071585842
 70
   192
  0
VERTEX
  5
1C3
  8
COURO
 10
4.577911558210364
 20
-35.74472705346044
 30
8.018348686904499
 70
   192
  0
VERTEX
  5
1C4
  8
COURO
 10
4.577911558210364
 20
-35.74472705346044
 30
8.018348686904499
 70
   192
  0
VERTEX
  5
1C5
  8
COURO
 10
4.577911558210364
 20
-36.90096942406592
 30
8.0352401663967
 70
   192
  0
VERTEX
  5
1C6
  8
COURO
 10
4.577911558210364
 20
-36.90096942406592
 30
8.0352401663967
 70
   192
  0
VERTEX
  5
1C7
  8
COURO
 10
4.577911558210364
 20
-34.6390179775327
 30
8.280935280532443
 70
   192
  0
VERTEX
  5
1C8
  8
COURO
 10
4.577911558210364
 20
-34.6390179775327
 30
8.280935280532443
 70
   192
  0
VERTEX
  5
1C9
  8
COURO
 10
41.65761423110961
 20
-29.89195966720581
 30
4.422632217407227
 70
   192
  0
VERTEX
  5
1CA
  8
COURO
 10
41.65761423110961
 20
-29.89195966720581
 30
4.422632217407227
 70
   192
  0
VERTEX
  5
1CB
  8
COURO
 10
41.7407118702526
 20
-31.26341144066748
 30
5.592702858657445
 70
   192
  0
VERTEX
  5
1CC
  8
COURO
 10
41.7407118702526
 20
-31.26341144066748
 30
5.592702858657445
 70
   192
  0
VERTEX
  5
1CD
  8
COURO
 10
41.7407118702526
 20
-30.38791171532568
 30
5.639207833022664
 70
   192
  0
VERTEX
  5
1CE
  8
COURO
 10
41.7407118702526
 20
-30.38791171532568
 30
5.639207833022664
 70
   192
  0
VERTEX
  5
1CF
  8
COURO
 10
41.7407118702526
 20
-8.498506464776371
 30
5.639207833022678
 70
   192
  0
VERTEX
  5
1D0
  8
COURO
 10
41.7407118702526
 20
-8.498506464776371
 30
5.639207833022678
 70
   192
  0
VERTEX
  5
1D1
  8
COURO
 10
41.7407118702526
 20
-8.498506464776371
 30
5.639207833022678
 70
   192
  0
VERTEX
  5
1D2
  8
COURO
 10
41.65761518478393
 20
-34.14701795578003
 30
2.249671936035156
 70
   192
  0
VERTEX
  5
1D3
  8
COURO
 10
41.65761518478393
 20
-34.14701795578003
 30
2.249671936035156
 70
   192
  0
VERTEX
  5
1D4
  8
COURO
 10
41.65761518478393
 20
-35.33120679855347
 30
2.404924392700195
 70
   192
  0
VERTEX
  5
1D5
  8
COURO
 10
41.65761518478393
 20
-35.33120679855347
 30
2.404924392700195
 70
   192
  0
VERTEX
  5
1D6
  8
COURO
 10
41.65761518478393
 20
-35.9426646232605
 30
2.629249572753906
 70
   192
  0
VERTEX
  5
1D7
  8
COURO
 10
41.65761518478393
 20
-35.9426646232605
 30
2.629249572753906
 70
   192
  0
VERTEX
  5
1D8
  8
COURO
 10
41.65761518478393
 20
-34.17855405807495
 30
2.757389068603516
 70
   192
  0
VERTEX
  5
1D9
  8
COURO
 10
41.65761518478393
 20
-34.17855405807495
 30
2.757389068603516
 70
   192
  0
VERTEX
  5
1DA
  8
COURO
 10
41.65761518478393
 20
-31.80473661422729
 30
2.840791702270508
 70
   192
  0
VERTEX
  5
1DB
  8
COURO
 10
41.65761518478393
 20
-31.80473661422729
 30
2.840791702270508
 70
   192
  0
VERTEX
  5
1DC
  8
COURO
 10
41.65761518478393
 20
-35.24837064743042
 30
2.898487091064439
 70
   192
  0
VERTEX
  5
1DD
  8
COURO
 10
41.65761518478393
 20
-35.24837064743042
 30
2.898487091064439
 70
   192
  0
VERTEX
  5
1DE
  8
COURO
 10
41.65761518478393
 20
-35.75933790206909
 30
3.095453262329087
 70
   192
  0
VERTEX
  5
1DF
  8
COURO
 10
41.65761518478393
 20
-35.75933790206909
 30
3.095453262329087
 70
   192
  0
VERTEX
  5
1E0
  8
COURO
 10
41.65761518478393
 20
-36.81795454025269
 30
3.115020751953125
 70
   192
  0
VERTEX
  5
1E1
  8
COURO
 10
41.65761518478393
 20
-36.81795454025269
 30
3.115020751953125
 70
   192
  0
VERTEX
  5
1E2
  8
COURO
 10
41.65761518478393
 20
-31.26394605636597
 30
3.263288497924805
 70
   192
  0
VERTEX
  5
1E3
  8
COURO
 10
41.65761518478393
 20
-31.26394605636597
 30
3.263288497924805
 70
   192
  0
VERTEX
  5
1E4
  8
COURO
 10
41.65761518478393
 20
-31.92279767990112
 30
3.32667350769043
 70
   192
  0
VERTEX
  5
1E5
  8
COURO
 10
41.65761518478393
 20
-31.92279767990112
 30
3.32667350769043
 70
   192
  0
VERTEX
  5
1E6
  8
COURO
 10
41.65761518478393
 20
-36.50900602340698
 30
3.510305404663086
 70
   192
  0
VERTEX
  5
1E7
  8
COURO
 10
41.65761518478393
 20
-36.50900602340698
 30
3.510305404663086
 70
   192
  0
VERTEX
  5
1E8
  8
COURO
 10
41.65761518478393
 20
-30.71898984909058
 30
3.640132904052734
 70
   192
  0
VERTEX
  5
1E9
  8
COURO
 10
41.65761518478393
 20
-30.71898984909058
 30
3.640132904052734
 70
   192
  0
VERTEX
  5
1EA
  8
COURO
 10
41.65761518478393
 20
-31.35179090499878
 30
3.70201301574707
 70
   192
  0
VERTEX
  5
1EB
  8
COURO
 10
41.65761518478393
 20
-31.35179090499878
 30
3.70201301574707
 70
   192
  0
VERTEX
  5
1EC
  8
COURO
 10
41.65761518478393
 20
-37.44138669967653
 30
3.8028049468994
 70
   192
  0
VERTEX
  5
1ED
  8
COURO
 10
41.65761518478393
 20
-37.44138669967653
 30
3.8028049468994
 70
   192
  0
VERTEX
  5
1EE
  8
COURO
 10
41.65761518478393
 20
-37.00973463058472
 30
4.060897827148438
 70
   192
  0
VERTEX
  5
1EF
  8
COURO
 10
41.65761518478393
 20
-37.00973463058472
 30
4.060897827148438
 70
   192
  0
VERTEX
  5
1F0
  8
COURO
 10
41.65761518478394
 20
-8.006977558135993
 30
4.422632217407227
 70
   192
  0
VERTEX
  5
1F1
  8
COURO
 10
41.65761518478394
 20
-8.006977558135993
 30
4.422632217407227
 70
   192
  0
VERTEX
  5
1F2
  8
COURO
 10
41.65761518478394
 20
-8.006977558135993
 30
4.422632217407227
 70
   192
  0
VERTEX
  5
1F3
  8
COURO
 10
41.65761518478393
 20
-37.78408765792847
 30
4.789352416992188
 70
   192
  0
VERTEX
  5
1F4
  8
COURO
 10
41.65761518478393
 20
-37.78408765792847
 30
4.789352416992188
 70
   192
  0
VERTEX
  5
1F5
  8
COURO
 10
41.65761518478393
 20
-37.2910418510437
 30
4.8789768218994
 70
   192
  0
VERTEX
  5
1F6
  8
COURO
 10
41.65761518478393
 20
-37.2910418510437
 30
4.8789768218994
 70
   192
  0
VERTEX
  5
1F7
  8
COURO
 10
41.74071282392691
 20
-30.41285983544287
 30
5.795553200454305
 70
   192
  0
VERTEX
  5
1F8
  8
COURO
 10
41.74071282392691
 20
-30.41285983544287
 30
5.795553200454305
 70
   192
  0
VERTEX
  5
1F9
  8
COURO
 10
41.74071282392693
 20
-8.349222101983395
 30
5.795553200454318
 70
   192
  0
VERTEX
  5
1FA
  8
COURO
 10
41.74071282392693
 20
-8.349222101983395
 30
5.795553200454318
 70
   192
  0
VERTEX
  5
1FB
  8
COURO
 10
41.74071282392693
 20
-8.349222101983395
 30
5.795553200454318
 70
   192
  0
VERTEX
  5
1FC
  8
COURO
 10
41.74071282392691
 20
-31.28921786766943
 30
5.845439903945516
 70
   192
  0
VERTEX
  5
1FD
  8
COURO
 10
41.74071282392691
 20
-31.28921786766943
 30
5.845439903945516
 70
   192
  0
VERTEX
  5
1FE
  8
COURO
 10
41.74071282392693
 20
-8.34921828728613
 30
6.544172280044163
 70
   192
  0
VERTEX
  5
1FF
  8
COURO
 10
41.74071282392693
 20
-8.34921828728613
 30
6.544172280044163
 70
   192
  0
VERTEX
  5
200
  8
COURO
 10
41.74071282392693
 20
-8.34921828728613
 30
6.544172280044163
 70
   192
  0
VERTEX
  5
201
  8
COURO
 10
41.74071377760121
 20
-37.84083835106786
 30
5.898080818862522
 70
   192
  0
VERTEX
  5
202
  8
COURO
 10
41.74071377760121
 20
-37.84083835106786
 30
5.898080818862522
 70
   192
  0
VERTEX
  5
203
  8
COURO
 10
41.74071377760121
 20
-38.34081546288428
 30
5.926769249648641
 70
   192
  0
VERTEX
  5
204
  8
COURO
 10
41.74071377760121
 20
-38.34081546288428
 30
5.926769249648641
 70
   192
  0
VERTEX
  5
205
  8
COURO
 10
41.74071377760121
 20
-37.66438952904639
 30
6.387483589858602
 70
   192
  0
VERTEX
  5
206
  8
COURO
 10
41.74071377760121
 20
-37.66438952904639
 30
6.387483589858602
 70
   192
  0
VERTEX
  5
207
  8
COURO
 10
41.74071377760121
 20
-30.40812198143896
 30
6.544172280044163
 70
   192
  0
VERTEX
  5
208
  8
COURO
 10
41.74071377760121
 20
-30.40812198143896
 30
6.544172280044163
 70
   192
  0
VERTEX
  5
209
  8
COURO
 10
41.74071377760121
 20
-38.138663210687
 30
6.551912300796102
 70
   192
  0
VERTEX
  5
20A
  8
COURO
 10
41.74071377760121
 20
-38.138663210687
 30
6.551912300796102
 70
   192
  0
VERTEX
  5
20B
  8
COURO
 10
41.74071377760121
 20
-37.2701214931577
 30
7.075557701797092
 70
   192
  0
VERTEX
  5
20C
  8
COURO
 10
41.74071377760121
 20
-37.2701214931577
 30
7.075557701797092
 70
   192
  0
VERTEX
  5
20D
  8
COURO
 10
41.74071377760121
 20
-31.86900989037451
 30
7.300018303603733
 70
   192
  0
VERTEX
  5
20E
  8
COURO
 10
41.74071377760121
 20
-31.86900989037451
 30
7.300018303603733
 70
   192
  0
VERTEX
  5
20F
  8
COURO
 10
41.74071377760121
 20
-31.23256198388037
 30
7.355602257461155
 70
   192
  0
VERTEX
  5
210
  8
COURO
 10
41.74071377760121
 20
-31.23256198388037
 30
7.355602257461155
 70
   192
  0
VERTEX
  5
211
  8
COURO
 10
41.74071377760121
 20
-37.65098849755223
 30
7.402156822890842
 70
   192
  0
VERTEX
  5
212
  8
COURO
 10
41.74071377760121
 20
-37.65098849755223
 30
7.402156822890842
 70
   192
  0
VERTEX
  5
213
  8
COURO
 10
41.74071377760121
 20
-36.63543597680028
 30
7.610216133803913
 70
   192
  0
VERTEX
  5
214
  8
COURO
 10
41.74071377760121
 20
-36.63543597680028
 30
7.610216133803913
 70
   192
  0
VERTEX
  5
215
  8
COURO
 10
41.74071377760121
 20
-32.43878451806005
 30
7.684188835830295
 70
   192
  0
VERTEX
  5
216
  8
COURO
 10
41.74071377760121
 20
-32.43878451806005
 30
7.684188835830295
 70
   192
  0
VERTEX
  5
217
  8
COURO
 10
41.74071377760121
 20
-31.7749852321714
 30
7.737735741347873
 70
   192
  0
VERTEX
  5
218
  8
COURO
 10
41.74071377760121
 20
-31.7749852321714
 30
7.737735741347873
 70
   192
  0
VERTEX
  5
219
  8
COURO
 10
41.74071377760121
 20
-35.74472705346044
 30
8.01834677955588
 70
   192
  0
VERTEX
  5
21A
  8
COURO
 10
41.74071377760121
 20
-35.74472705346044
 30
8.01834677955588
 70
   192
  0
VERTEX
  5
21B
  8
COURO
 10
41.74071377760121
 20
-36.90096942406592
 30
8.035238259048054
 70
   192
  0
VERTEX
  5
21C
  8
COURO
 10
41.74071377760121
 20
-36.90096942406592
 30
8.035238259048054
 70
   192
  0
VERTEX
  5
21D
  8
COURO
 10
41.74071377760121
 20
-32.3124608181089
 30
8.16799163124045
 70
   192
  0
VERTEX
  5
21E
  8
COURO
 10
41.74071377760121
 20
-32.3124608181089
 30
8.16799163124045
 70
   192
  0
VERTEX
  5
21F
  8
COURO
 10
41.74071377760121
 20
-34.6390179775327
 30
8.280931465835163
 70
   192
  0
VERTEX
  5
220
  8
COURO
 10
41.74071377760121
 20
-34.6390179775327
 30
8.280931465835163
 70
   192
  0
VERTEX
  5
221
  8
COURO
 10
41.74071377760121
 20
-35.90439502221044
 30
8.492815010757052
 70
   192
  0
VERTEX
  5
222
  8
COURO
 10
41.74071377760121
 20
-35.90439502221044
 30
8.492815010757052
 70
   192
  0
VERTEX
  5
223
  8
COURO
 10
41.74071377760121
 20
-34.62024585228856
 30
8.793905251235554
 70
   192
  0
VERTEX
  5
224
  8
COURO
 10
41.74071377760121
 20
-34.62024585228856
 30
8.793905251235554
 70
   192
  0
VERTEX
  5
225
  8
COURO
 10
0.0
 20
0.0
 30
0.0
 70
   128
 71
    94
 72
   134
 73
   101
 74
    98
  0
VERTEX
  5
226
  8
COURO
 10
0.0
 20
0.0
 30
0.0
 70
   128
 71
    24
 72
    26
 73
   132
 74
    93
  0
VERTEX
  5
227
  8
COURO
 10
0.0
 20
0.0
 30
0.0
 70
   128
 71
    11
 72
    28
 73
    25
 74
    23
  0
VERTEX
  5
228
  8
COURO
 10
0.0
 20
0.0
 30
0.0
 70
   128
 71
    97
 72
   100
 73
    30
 74
    12
  0
VERTEX
  5
229
  8
COURO
 10
0.0
 20
0.0
 30
0.0
 70
   128
 71
    98
 72
    96
 73
   125
 74
    94
  0
VERTEX
  5
22A
  8
COURO
 10
0.0
 20
0.0
 30
0.0
 70
   128
 71
    93
 72
   124
 73
    20
 74
    24
  0
VERTEX
  5
22B
  8
COURO
 10
0.0
 20
0.0
 30
0.0
 70
   128
 71
    23
 72
    19
 73
     9
 74
    11
  0
VERTEX
  5
22C
  8
COURO
 10
0.0
 20
0.0
 30
0.0
 70
   128
 71
    12
 72
    10
 73
    95
 74
    97
  0
VERTEX
  5
22D
  8
COURO
 10
0.0
 20
0.0
 30
0.0
 70
   128
 71
    96
 72
   127
 73
   119
 74
   125
  0
VERTEX
  5
22E
  8
COURO
 10
0.0
 20
0.0
 30
0.0
 70
   128
 71
   124
 72
   118
 73
    14
 74
    20
  0
VERTEX
  5
22F
  8
COURO
 10
0.0
 20
0.0
 30
0.0
 70
   128
 71
    19
 72
    13
 73
    21
 74
     9
  0
VERTEX
  5
230
  8
COURO
 10
0.0
 20
0.0
 30
0.0
 70
   128
 71
    10
 72
    22
 73
   126
 74
    95
  0
VERTEX
  5
231
  8
COURO
 10
0.0
 20
0.0
 30
0.0
 70
   128
 71
   127
 72
   121
 73
   111
 74
   119
  0
VERTEX
  5
232
  8
COURO
 10
0.0
 20
0.0
 30
0.0
 70
   128
 71
   118
 72
   110
 73
    52
 74
    14
  0
VERTEX
  5
233
  8
COURO
 10
0.0
 20
0.0
 30
0.0
 70
   128
 71
    13
 72
    51
 73
    15
 74
    21
  0
VERTEX
  5
234
  8
COURO
 10
0.0
 20
0.0
 30
0.0
 70
   128
 71
    22
 72
    16
 73
   120
 74
   126
  0
VERTEX
  5
235
  8
COURO
 10
0.0
 20
0.0
 30
0.0
 70
   128
 71
   103
 72
   111
 73
   121
 74
   109
  0
VERTEX
  5
236
  8
COURO
 10
0.0
 20
0.0
 30
0.0
 70
   128
 71
    44
 72
    52
 73
   110
 74
   102
  0
VERTEX
  5
237
  8
COURO
 10
0.0
 20
0.0
 30
0.0
 70
   128
 71
    49
 72
    15
 73
    51
 74
    43
  0
VERTEX
  5
238
  8
COURO
 10
0.0
 20
0.0
 30
0.0
 70
   128
 71
   108
 72
   120
 73
    16
 74
    50
  0
VERTEX
  5
239
  8
COURO
 10
0.0
 20
0.0
 30
0.0
 70
   128
 71
   105
 72
   103
 73
   109
 74
   113
  0
VERTEX
  5
23A
  8
COURO
 10
0.0
 20
0.0
 30
0.0
 70
   128
 71
    46
 72
    44
 73
   102
 74
   104
  0
VERTEX
  5
23B
  8
COURO
 10
0.0
 20
0.0
 30
0.0
 70
   128
 71
    53
 72
    49
 73
    43
 74
    45
  0
VERTEX
  5
23C
  8
COURO
 10
0.0
 20
0.0
 30
0.0
 70
   128
 71
   112
 72
   108
 73
    50
 74
    54
  0
VERTEX
  5
23D
  8
COURO
 10
0.0
 20
0.0
 30
0.0
 70
   128
 71
   113
 72
   115
 73
   107
 74
   105
  0
VERTEX
  5
23E
  8
COURO
 10
0.0
 20
0.0
 30
0.0
 70
   128
 71
   104
 72
   106
 73
    48
 74
    46
  0
VERTEX
  5
23F
  8
COURO
 10
0.0
 20
0.0
 30
0.0
 70
   128
 71
    45
 72
    47
 73
    55
 74
    53
  0
VERTEX
  5
240
  8
COURO
 10
0.0
 20
0.0
 30
0.0
 70
   128
 71
    54
 72
    56
 73
   114
 74
   112
  0
VERTEX
  5
241
  8
COURO
 10
0.0
 20
0.0
 30
0.0
 70
   128
 71
   115
 72
   123
 73
   117
 74
   107
  0
VERTEX
  5
242
  8
COURO
 10
0.0
 20
0.0
 30
0.0
 70
   128
 71
   106
 72
   116
 73
    58
 74
    48
  0
VERTEX
  5
243
  8
COURO
 10
0.0
 20
0.0
 30
0.0
 70
   128
 71
    47
 72
    57
 73
    17
 74
    55
  0
VERTEX
  5
244
  8
COURO
 10
0.0
 20
0.0
 30
0.0
 70
   128
 71
    56
 72
    18
 73
   122
 74
   114
  0
VERTEX
  5
245
  8
COURO
 10
0.0
 20
0.0
 30
0.0
 70
   128
 71
   123
 72
   131
 73
   129
 74
   117
  0
VERTEX
  5
246
  8
COURO
 10
0.0
 20
0.0
 30
0.0
 70
   128
 71
   116
 72
   128
 73
     2
 74
    58
  0
VERTEX
  5
247
  8
COURO
 10
0.0
 20
0.0
 30
0.0
 70
   128
 71
    57
 72
     1
 73
     3
 74
    17
  0
VERTEX
  5
248
  8
COURO
 10
0.0
 20
0.0
 30
0.0
 70
   128
 71
    18
 72
     4
 73
   130
 74
   122
  0
VERTEX
  5
249
  8
COURO
 10
0.0
 20
0.0
 30
0.0
 70
   128
 71
   131
 72
   138
 73
   136
 74
   129
  0
VERTEX
  5
24A
  8
COURO
 10
0.0
 20
0.0
 30
0.0
 70
   128
 71
   128
 72
   135
 73
     6
 74
     2
  0
VERTEX
  5
24B
  8
COURO
 10
0.0
 20
0.0
 30
0.0
 70
   128
 71
     1
 72
     5
 73
     7
 74
     3
  0
VERTEX
  5
24C
  8
COURO
 10
0.0
 20
0.0
 30
0.0
 70
   128
 71
     4
 72
     8
 73
   137
 74
   130
  0
VERTEX
  5
24D
  8
COURO
 10
0.0
 20
0.0
 30
0.0
 70
   128
 71
   138
 72
   150
 73
   152
 74
   136
  0
VERTEX
  5
24E
  8
COURO
 10
0.0
 20
0.0
 30
0.0
 70
   128
 71
   135
 72
   151
 73
    38
 74
     6
  0
VERTEX
  5
24F
  8
COURO
 10
0.0
 20
0.0
 30
0.0
 70
   128
 71
     5
 72
    37
 73
    35
 74
     7
  0
VERTEX
  5
250
  8
COURO
 10
0.0
 20
0.0
 30
0.0
 70
   128
 71
     8
 72
    36
 73
   149
 74
   137
  0
VERTEX
  5
251
  8
COURO
 10
0.0
 20
0.0
 30
0.0
 70
   128
 71
   150
 72
   154
 73
   158
 74
   152
  0
VERTEX
  5
252
  8
COURO
 10
0.0
 20
0.0
 30
0.0
 70
   128
 71
   151
 72
   157
 73
    42
 74
    38
  0
VERTEX
  5
253
  8
COURO
 10
0.0
 20
0.0
 30
0.0
 70
   128
 71
    37
 72
    41
 73
    39
 74
    35
  0
VERTEX
  5
254
  8
COURO
 10
0.0
 20
0.0
 30
0.0
 70
   128
 71
    36
 72
    40
 73
   153
 74
   149
  0
VERTEX
  5
255
  8
COURO
 10
0.0
 20
0.0
 30
0.0
 70
   128
 71
   154
 72
   160
 73
   166
 74
   158
  0
VERTEX
  5
256
  8
COURO
 10
0.0
 20
0.0
 30
0.0
 70
   128
 71
   157
 72
   165
 73
    74
 74
    42
  0
VERTEX
  5
257
  8
COURO
 10
0.0
 20
0.0
 30
0.0
 70
   128
 71
    41
 72
    73
 73
    67
 74
    39
  0
VERTEX
  5
258
  8
COURO
 10
0.0
 20
0.0
 30
0.0
 70
   128
 71
    40
 72
    68
 73
   159
 74
   153
  0
VERTEX
  5
259
  8
COURO
 10
0.0
 20
0.0
 30
0.0
 70
   128
 71
   160
 72
   168
 73
   176
 74
   166
  0
VERTEX
  5
25A
  8
COURO
 10
0.0
 20
0.0
 30
0.0
 70
   128
 71
   165
 72
   175
 73
    90
 74
    74
  0
VERTEX
  5
25B
  8
COURO
 10
0.0
 20
0.0
 30
0.0
 70
   128
 71
    73
 72
    89
 73
    75
 74
    67
  0
VERTEX
  5
25C
  8
COURO
 10
0.0
 20
0.0
 30
0.0
 70
   128
 71
    68
 72
    76
 73
   167
 74
   159
  0
VERTEX
  5
25D
  8
COURO
 10
0.0
 20
0.0
 30
0.0
 70
   128
 71
   168
 72
   174
 73
   182
 74
   176
  0
VERTEX
  5
25E
  8
COURO
 10
0.0
 20
0.0
 30
0.0
 70
   128
 71
   175
 72
   181
 73
    84
 74
    90
  0
VERTEX
  5
25F
  8
COURO
 10
0.0
 20
0.0
 30
0.0
 70
   128
 71
    89
 72
    83
 73
    87
 74
    75
  0
VERTEX
  5
260
  8
COURO
 10
0.0
 20
0.0
 30
0.0
 70
   128
 71
    76
 72
    88
 73
   173
 74
   167
  0
VERTEX
  5
261
  8
COURO
 10
0.0
 20
0.0
 30
0.0
 70
   128
 71
   174
 72
   180
 73
   184
 74
   182
  0
VERTEX
  5
262
  8
COURO
 10
0.0
 20
0.0
 30
0.0
 70
   128
 71
   181
 72
   183
 73
    86
 74
    84
  0
VERTEX
  5
263
  8
COURO
 10
0.0
 20
0.0
 30
0.0
 70
   128
 71
    83
 72
    85
 73
    91
 74
    87
  0
VERTEX
  5
264
  8
COURO
 10
0.0
 20
0.0
 30
0.0
 70
   128
 71
    88
 72
    92
 73
   179
 74
   173
  0
VERTEX
  5
265
  8
COURO
 10
0.0
 20
0.0
 30
0.0
 70
   128
 71
   178
 72
   184
 73
   180
 74
   170
  0
VERTEX
  5
266
  8
COURO
 10
0.0
 20
0.0
 30
0.0
 70
   128
 71
    82
 72
    86
 73
   183
 74
   177
  0
VERTEX
  5
267
  8
COURO
 10
0.0
 20
0.0
 30
0.0
 70
   128
 71
    77
 72
    91
 73
    85
 74
    81
  0
VERTEX
  5
268
  8
COURO
 10
0.0
 20
0.0
 30
0.0
 70
   128
 71
   169
 72
   179
 73
    92
 74
    78
  0
VERTEX
  5
269
  8
COURO
 10
0.0
 20
0.0
 30
0.0
 70
   128
 71
   170
 72
   162
 73
   172
 74
   178
  0
VERTEX
  5
26A
  8
COURO
 10
0.0
 20
0.0
 30
0.0
 70
   128
 71
   177
 72
   171
 73
    80
 74
    82
  0
VERTEX
  5
26B
  8
COURO
 10
0.0
 20
0.0
 30
0.0
 70
   128
 71
    81
 72
    79
 73
    69
 74
    77
  0
VERTEX
  5
26C
  8
COURO
 10
0.0
 20
0.0
 30
0.0
 70
   128
 71
    78
 72
    70
 73
   161
 74
   169
  0
VERTEX
  5
26D
  8
COURO
 10
0.0
 20
0.0
 30
0.0
 70
   128
 71
   162
 72
   145
 73
   164
 74
   172
  0
VERTEX
  5
26E
  8
COURO
 10
0.0
 20
0.0
 30
0.0
 70
   128
 71
   171
 72
   163
 73
    72
 74
    80
  0
VERTEX
  5
26F
  8
COURO
 10
0.0
 20
0.0
 30
0.0
 70
   128
 71
    79
 72
    71
 73
    33
 74
    69
  0
VERTEX
  5
270
  8
COURO
 10
0.0
 20
0.0
 30
0.0
 70
   128
 71
    70
 72
    34
 73
   144
 74
   161
  0
VERTEX
  5
271
  8
COURO
 10
0.0
 20
0.0
 30
0.0
 70
   128
 71
   145
 72
   140
 73
   156
 74
   164
  0
VERTEX
  5
272
  8
COURO
 10
0.0
 20
0.0
 30
0.0
 70
   128
 71
   163
 72
   155
 73
    63
 74
    72
  0
VERTEX
  5
273
  8
COURO
 10
0.0
 20
0.0
 30
0.0
 70
   128
 71
    71
 72
    62
 73
    31
 74
    33
  0
VERTEX
  5
274
  8
COURO
 10
0.0
 20
0.0
 30
0.0
 70
   128
 71
    34
 72
    32
 73
   139
 74
   144
  0
VERTEX
  5
275
  8
COURO
 10
0.0
 20
0.0
 30
0.0
 70
   128
 71
   148
 72
   156
 73
   140
 74
   143
  0
VERTEX
  5
276
  8
COURO
 10
0.0
 20
0.0
 30
0.0
 70
   128
 71
    66
 72
    63
 73
   155
 74
   147
  0
VERTEX
  5
277
  8
COURO
 10
0.0
 20
0.0
 30
0.0
 70
   128
 71
    59
 72
    31
 73
    62
 74
    64
  0
VERTEX
  5
278
  8
COURO
 10
0.0
 20
0.0
 30
0.0
 70
   128
 71
   141
 72
   139
 73
    32
 74
    60
  0
VERTEX
  5
279
  8
COURO
 10
0.0
 20
0.0
 30
0.0
 70
   128
 71
    27
 72
    29
 73
    99
 74
   133
  0
VERTEX
  5
27A
  8
COURO
 10
0.0
 20
0.0
 30
0.0
 70
   128
 71
    65
 72
   146
 73
   142
 74
   142
  0
VERTEX
  5
27B
  8
COURO
 10
0.0
 20
0.0
 30
0.0
 70
   128
 71
    61
 72
    65
 73
   142
 74
   142
  0
SEQEND
  5
3C4
  8
COURO
  0
POLYLINE
  5
27D
  8
METAL
 66
     1
 10
0.0
 20
0.0
 30
0.0
 70
    64
 71
   170
 72
    72
  0
VERTEX
  5
27E
  8
METAL
 10
1.010021209716797
 20
-34.18101072311403
 30
2.35219573974608
 70
   192
  0
VERTEX
  5
27F
  8
METAL
 10
1.010021209716797
 20
-34.18101072311403
 30
2.35219573974608
 70
   192
  0
VERTEX
  5
280
  8
METAL
 10
1.010021209716797
 20
-35.89725828170778
 30
2.812063217163086
 70
   192
  0
VERTEX
  5
281
  8
METAL
 10
1.010021209716797
 20
-35.89725828170778
 30
2.812063217163086
 70
   192
  0
VERTEX
  5
282
  8
METAL
 10
1.010021209716797
 20
-32.46476316452028
 30
2.812063217163086
 70
   192
  0
VERTEX
  5
283
  8
METAL
 10
1.010021209716797
 20
-32.46476316452028
 30
2.812063217163086
 70
   192
  0
VERTEX
  5
284
  8
METAL
 10
1.010021209716797
 20
-37.15363645553589
 30
4.06844329833983
 70
   192
  0
VERTEX
  5
285
  8
METAL
 10
1.010021209716797
 20
-37.15363645553589
 30
4.06844329833983
 70
   192
  0
VERTEX
  5
286
  8
METAL
 10
1.010021209716797
 20
-31.20838117599489
 30
4.06844329833983
 70
   192
  0
VERTEX
  5
287
  8
METAL
 10
1.010021209716797
 20
-31.20838117599489
 30
4.06844329833983
 70
   192
  0
VERTEX
  5
288
  8
METAL
 10
1.093118848859778
 20
-31.24004641991554
 30
5.746059410781467
 70
   192
  0
VERTEX
  5
289
  8
METAL
 10
1.093118848859778
 20
-31.24004641991554
 30
5.746059410781467
 70
   192
  0
VERTEX
  5
28A
  8
METAL
 10
1.093118848859778
 20
-38.10503665429053
 30
5.746061318130087
 70
   192
  0
VERTEX
  5
28B
  8
METAL
 10
1.093118848859778
 20
-38.10503665429053
 30
5.746061318130087
 70
   192
  0
VERTEX
  5
28C
  8
METAL
 10
1.093118848859778
 20
-38.10503665429053
 30
5.746061318130087
 70
   192
  0
VERTEX
  5
28D
  8
METAL
 10
1.093118848859778
 20
-31.6999119899839
 30
6.962306969375217
 70
   192
  0
VERTEX
  5
28E
  8
METAL
 10
1.093118848859778
 20
-31.6999119899839
 30
6.962306969375217
 70
   192
  0
VERTEX
  5
28F
  8
METAL
 10
1.093118848859778
 20
-37.64516726952489
 30
6.962308876723836
 70
   192
  0
VERTEX
  5
290
  8
METAL
 10
1.093118848859778
 20
-37.64516726952489
 30
6.962308876723836
 70
   192
  0
VERTEX
  5
291
  8
METAL
 10
1.093118848859778
 20
-32.956290163812
 30
8.218687050551974
 70
   192
  0
VERTEX
  5
292
  8
METAL
 10
1.093118848859778
 20
-32.956290163812
 30
8.218687050551974
 70
   192
  0
VERTEX
  5
293
  8
METAL
 10
1.093118848859778
 20
-36.38878909569678
 30
8.218688957900593
 70
   192
  0
VERTEX
  5
294
  8
METAL
 10
1.093118848859778
 20
-36.38878909569678
 30
8.218688957900593
 70
   192
  0
VERTEX
  5
295
  8
METAL
 10
1.093118848859778
 20
-34.67254153710303
 30
8.678556435317585
 70
   192
  0
VERTEX
  5
296
  8
METAL
 10
1.093118848859778
 20
-34.67254153710303
 30
8.678556435317585
 70
   192
  0
VERTEX
  5
297
  8
METAL
 10
4.357120513916016
 20
-34.18101072311403
 30
2.35219573974608
 70
   192
  0
VERTEX
  5
298
  8
METAL
 10
4.357120513916016
 20
-34.18101072311403
 30
2.35219573974608
 70
   192
  0
VERTEX
  5
299
  8
METAL
 10
4.357120513916016
 20
-34.18101072311403
 30
2.35219573974608
 70
   192
  0
VERTEX
  5
29A
  8
METAL
 10
4.357120513916016
 20
-32.46476316452028
 30
2.812061309814439
 70
   192
  0
VERTEX
  5
29B
  8
METAL
 10
4.357120513916016
 20
-32.46476316452028
 30
2.812061309814439
 70
   192
  0
VERTEX
  5
29C
  8
METAL
 10
4.357120513916016
 20
-32.46476316452028
 30
2.812061309814439
 70
   192
  0
VERTEX
  5
29D
  8
METAL
 10
4.357120513916016
 20
-35.89725828170778
 30
2.812063217163086
 70
   192
  0
VERTEX
  5
29E
  8
METAL
 10
4.357120513916016
 20
-35.89725828170778
 30
2.812063217163086
 70
   192
  0
VERTEX
  5
29F
  8
METAL
 10
4.357120513916016
 20
-35.89725828170778
 30
2.812063217163086
 70
   192
  0
VERTEX
  5
2A0
  8
METAL
 10
4.357120513916016
 20
-34.18101072311403
 30
3.040313720703125
 70
   192
  0
VERTEX
  5
2A1
  8
METAL
 10
4.357120513916016
 20
-34.18101072311403
 30
3.040313720703125
 70
   192
  0
VERTEX
  5
2A2
  8
METAL
 10
4.357120513916016
 20
-34.18101072311403
 30
3.040313720703125
 70
   192
  0
VERTEX
  5
2A3
  8
METAL
 10
4.357120513916016
 20
-32.80882215499878
 30
3.407991409301758
 70
   192
  0
VERTEX
  5
2A4
  8
METAL
 10
4.357120513916016
 20
-32.80882215499878
 30
3.407991409301758
 70
   192
  0
VERTEX
  5
2A5
  8
METAL
 10
4.357120513916016
 20
-32.80882215499878
 30
3.407991409301758
 70
   192
  0
VERTEX
  5
2A6
  8
METAL
 10
4.357120513916016
 20
-35.55321455001831
 30
3.408000946044908
 70
   192
  0
VERTEX
  5
2A7
  8
METAL
 10
4.357120513916016
 20
-35.55321455001831
 30
3.408000946044908
 70
   192
  0
VERTEX
  5
2A8
  8
METAL
 10
4.357120513916016
 20
-35.55321455001831
 30
3.408000946044908
 70
   192
  0
VERTEX
  5
2A9
  8
METAL
 10
4.357120513916016
 20
-31.20838117599489
 30
4.068441390991211
 70
   192
  0
VERTEX
  5
2AA
  8
METAL
 10
4.357120513916016
 20
-31.20838117599489
 30
4.068441390991211
 70
   192
  0
VERTEX
  5
2AB
  8
METAL
 10
4.357120513916016
 20
-31.20838117599489
 30
4.068441390991211
 70
   192
  0
VERTEX
  5
2AC
  8
METAL
 10
4.357120513916016
 20
-37.15363645553589
 30
4.06844329833983
 70
   192
  0
VERTEX
  5
2AD
  8
METAL
 10
4.357120513916016
 20
-37.15363645553589
 30
4.06844329833983
 70
   192
  0
VERTEX
  5
2AE
  8
METAL
 10
4.357120513916016
 20
-36.55770826339722
 30
4.412502288818345
 70
   192
  0
VERTEX
  5
2AF
  8
METAL
 10
4.357120513916016
 20
-36.55770826339722
 30
4.412502288818345
 70
   192
  0
VERTEX
  5
2B0
  8
METAL
 10
4.357120513916016
 20
-31.80430173873903
 30
4.412519454956055
 70
   192
  0
VERTEX
  5
2B1
  8
METAL
 10
4.357120513916016
 20
-31.80430173873903
 30
4.412519454956055
 70
   192
  0
VERTEX
  5
2B2
  8
METAL
 10
4.357120513916016
 20
-31.80430173873903
 30
4.412519454956055
 70
   192
  0
VERTEX
  5
2B3
  8
METAL
 10
4.440218153058996
 20
-37.41691485863622
 30
5.746040337295125
 70
   192
  0
VERTEX
  5
2B4
  8
METAL
 10
4.440218153058996
 20
-37.41691485863622
 30
5.746040337295125
 70
   192
  0
VERTEX
  5
2B5
  8
METAL
 10
4.440218153058996
 20
-37.41691485863622
 30
5.746040337295125
 70
   192
  0
VERTEX
  5
2B6
  8
METAL
 10
4.440218153058996
 20
-37.41691485863622
 30
5.746040337295125
 70
   192
  0
VERTEX
  5
2B7
  8
METAL
 10
4.440218153058996
 20
-38.10503665429053
 30
5.746061318130087
 70
   192
  0
VERTEX
  5
2B8
  8
METAL
 10
4.440218153058996
 20
-38.10503665429053
 30
5.746061318130087
 70
   192
  0
VERTEX
  5
2B9
  8
METAL
 10
4.440218153058996
 20
-38.10503665429053
 30
5.746061318130087
 70
   192
  0
VERTEX
  5
2BA
  8
METAL
 10
4.440218153058996
 20
-38.10503665429053
 30
5.746061318130087
 70
   192
  0
VERTEX
  5
2BB
  8
METAL
 10
4.440218153058996
 20
-34.67256061058934
 30
7.990436547011935
 70
   192
  0
VERTEX
  5
2BC
  8
METAL
 10
4.440218153058996
 20
-34.67256061058934
 30
7.990436547011935
 70
   192
  0
VERTEX
  5
2BD
  8
METAL
 10
4.440218153058996
 20
-34.67256061058934
 30
7.990436547011935
 70
   192
  0
VERTEX
  5
2BE
  8
METAL
 10
4.440218153058996
 20
-36.38878909569678
 30
8.218688957900593
 70
   192
  0
VERTEX
  5
2BF
  8
METAL
 10
4.440218153058996
 20
-36.38878909569678
 30
8.218688957900593
 70
   192
  0
VERTEX
  5
2C0
  8
METAL
 10
4.440218153058996
 20
-34.67254153710303
 30
8.678556435317585
 70
   192
  0
VERTEX
  5
2C1
  8
METAL
 10
4.440218153058996
 20
-34.67254153710303
 30
8.678556435317585
 70
   192
  0
VERTEX
  5
2C2
  8
METAL
 10
4.440218153058996
 20
-34.67254153710303
 30
8.678556435317585
 70
   192
  0
VERTEX
  5
2C3
  8
METAL
 10
4.440221967756262
 20
-31.92816440087255
 30
5.746040337295125
 70
   192
  0
VERTEX
  5
2C4
  8
METAL
 10
4.440221967756262
 20
-31.92816440087255
 30
5.746040337295125
 70
   192
  0
VERTEX
  5
2C5
  8
METAL
 10
4.440221967756262
 20
-31.92816440087255
 30
5.746040337295125
 70
   192
  0
VERTEX
  5
2C6
  8
METAL
 10
4.440221967756262
 20
-31.24004641991554
 30
5.746059410781467
 70
   192
  0
VERTEX
  5
2C7
  8
METAL
 10
4.440221967756262
 20
-31.24004641991554
 30
5.746059410781467
 70
   192
  0
VERTEX
  5
2C8
  8
METAL
 10
4.440221967756262
 20
-31.24004641991554
 30
5.746059410781467
 70
   192
  0
VERTEX
  5
2C9
  8
METAL
 10
4.440221967756262
 20
-37.04923907738622
 30
6.618247978896702
 70
   192
  0
VERTEX
  5
2CA
  8
METAL
 10
4.440221967756262
 20
-37.04923907738622
 30
6.618247978896702
 70
   192
  0
VERTEX
  5
2CB
  8
METAL
 10
4.440221967756262
 20
-37.04923907738622
 30
6.618247978896702
 70
   192
  0
VERTEX
  5
2CC
  8
METAL
 10
4.440221967756262
 20
-32.29584018212255
 30
6.618247978896702
 70
   192
  0
VERTEX
  5
2CD
  8
METAL
 10
4.440221967756262
 20
-32.29584018212255
 30
6.618247978896702
 70
   192
  0
VERTEX
  5
2CE
  8
METAL
 10
4.440221967756262
 20
-31.6999119899839
 30
6.962306969375217
 70
   192
  0
VERTEX
  5
2CF
  8
METAL
 10
4.440221967756262
 20
-31.6999119899839
 30
6.962306969375217
 70
   192
  0
VERTEX
  5
2D0
  8
METAL
 10
4.440221967756262
 20
-37.64516726952489
 30
6.962308876723836
 70
   192
  0
VERTEX
  5
2D1
  8
METAL
 10
4.440221967756262
 20
-37.64516726952489
 30
6.962308876723836
 70
   192
  0
VERTEX
  5
2D2
  8
METAL
 10
4.440221967756262
 20
-37.64516726952489
 30
6.962308876723836
 70
   192
  0
VERTEX
  5
2D3
  8
METAL
 10
4.440221967756262
 20
-36.04474536400731
 30
7.622749321670124
 70
   192
  0
VERTEX
  5
2D4
  8
METAL
 10
4.440221967756262
 20
-36.04474536400731
 30
7.622749321670124
 70
   192
  0
VERTEX
  5
2D5
  8
METAL
 10
4.440221967756262
 20
-33.30035296898778
 30
7.622758858413302
 70
   192
  0
VERTEX
  5
2D6
  8
METAL
 10
4.440221967756262
 20
-33.30035296898778
 30
7.622758858413302
 70
   192
  0
VERTEX
  5
2D7
  8
METAL
 10
4.440221967756262
 20
-33.30035296898778
 30
7.622758858413302
 70
   192
  0
VERTEX
  5
2D8
  8
METAL
 10
4.440221967756262
 20
-32.956290163812
 30
8.218687050551974
 70
   192
  0
VERTEX
  5
2D9
  8
METAL
 10
4.440221967756262
 20
-32.956290163812
 30
8.218687050551974
 70
   192
  0
VERTEX
  5
2DA
  8
METAL
 10
4.440221967756262
 20
-32.956290163812
 30
8.218687050551974
 70
   192
  0
VERTEX
  5
2DB
  8
METAL
 10
41.82572698593139
 20
-34.18101072311403
 30
2.352191925048828
 70
   192
  0
VERTEX
  5
2DC
  8
METAL
 10
41.82572698593139
 20
-34.18101072311403
 30
2.352191925048828
 70
   192
  0
VERTEX
  5
2DD
  8
METAL
 10
41.82572698593139
 20
-35.89725828170778
 30
2.812059402465806
 70
   192
  0
VERTEX
  5
2DE
  8
METAL
 10
41.82572698593139
 20
-35.89725828170778
 30
2.812059402465806
 70
   192
  0
VERTEX
  5
2DF
  8
METAL
 10
41.82572698593139
 20
-32.46476316452028
 30
2.81205940246582
 70
   192
  0
VERTEX
  5
2E0
  8
METAL
 10
41.82572698593139
 20
-32.46476316452028
 30
2.81205940246582
 70
   192
  0
VERTEX
  5
2E1
  8
METAL
 10
41.82572698593139
 20
-34.18101072311403
 30
3.040311813354478
 70
   192
  0
VERTEX
  5
2E2
  8
METAL
 10
41.82572698593139
 20
-34.18101072311403
 30
3.040311813354478
 70
   192
  0
VERTEX
  5
2E3
  8
METAL
 10
41.82572698593139
 20
-32.80882215499878
 30
3.407987594604478
 70
   192
  0
VERTEX
  5
2E4
  8
METAL
 10
41.82572698593139
 20
-32.80882215499878
 30
3.407987594604478
 70
   192
  0
VERTEX
  5
2E5
  8
METAL
 10
41.82572698593139
 20
-35.55321455001831
 30
3.407997131347656
 70
   192
  0
VERTEX
  5
2E6
  8
METAL
 10
41.82572698593139
 20
-35.55321455001831
 30
3.407997131347656
 70
   192
  0
VERTEX
  5
2E7
  8
METAL
 10
41.82572698593139
 20
-37.15363645553589
 30
4.068439483642564
 70
   192
  0
VERTEX
  5
2E8
  8
METAL
 10
41.82572698593139
 20
-37.15363645553589
 30
4.068439483642564
 70
   192
  0
VERTEX
  5
2E9
  8
METAL
 10
41.82572698593139
 20
-31.20838117599489
 30
4.068439483642578
 70
   192
  0
VERTEX
  5
2EA
  8
METAL
 10
41.82572698593139
 20
-31.20838117599489
 30
4.068439483642578
 70
   192
  0
VERTEX
  5
2EB
  8
METAL
 10
41.82572698593139
 20
-36.55770826339722
 30
4.41249847412108
 70
   192
  0
VERTEX
  5
2EC
  8
METAL
 10
41.82572698593139
 20
-36.55770826339722
 30
4.41249847412108
 70
   192
  0
VERTEX
  5
2ED
  8
METAL
 10
41.82572698593139
 20
-31.80430173873903
 30
4.412515640258789
 70
   192
  0
VERTEX
  5
2EE
  8
METAL
 10
41.82572698593139
 20
-31.80430173873903
 30
4.412515640258789
 70
   192
  0
VERTEX
  5
2EF
  8
METAL
 10
41.90882462507437
 20
-37.41691485863622
 30
5.746036522597874
 70
   192
  0
VERTEX
  5
2F0
  8
METAL
 10
41.90882462507437
 20
-37.41691485863622
 30
5.746036522597874
 70
   192
  0
VERTEX
  5
2F1
  8
METAL
 10
41.90882462507437
 20
-37.41691485863622
 30
5.746036522597874
 70
   192
  0
VERTEX
  5
2F2
  8
METAL
 10
41.90882462507437
 20
-37.41691485863622
 30
5.746036522597874
 70
   192
  0
VERTEX
  5
2F3
  8
METAL
 10
41.90882462507437
 20
-31.92816440087255
 30
5.746036522597874
 70
   192
  0
VERTEX
  5
2F4
  8
METAL
 10
41.90882462507437
 20
-31.92816440087255
 30
5.746036522597874
 70
   192
  0
VERTEX
  5
2F5
  8
METAL
 10
41.90882462507437
 20
-31.24004641991554
 30
5.746055596084202
 70
   192
  0
VERTEX
  5
2F6
  8
METAL
 10
41.90882462507437
 20
-31.24004641991554
 30
5.746055596084202
 70
   192
  0
VERTEX
  5
2F7
  8
METAL
 10
41.90882462507437
 20
-38.10503665429053
 30
5.74605750343282
 70
   192
  0
VERTEX
  5
2F8
  8
METAL
 10
41.90882462507437
 20
-38.10503665429053
 30
5.74605750343282
 70
   192
  0
VERTEX
  5
2F9
  8
METAL
 10
41.90882462507437
 20
-38.10503665429053
 30
5.74605750343282
 70
   192
  0
VERTEX
  5
2FA
  8
METAL
 10
41.90882462507437
 20
-38.10503665429053
 30
5.74605750343282
 70
   192
  0
VERTEX
  5
2FB
  8
METAL
 10
41.90882462507437
 20
-32.29584018212255
 30
6.618244164199436
 70
   192
  0
VERTEX
  5
2FC
  8
METAL
 10
41.90882462507437
 20
-32.29584018212255
 30
6.618244164199436
 70
   192
  0
VERTEX
  5
2FD
  8
METAL
 10
41.90882462507437
 20
-37.04923907738622
 30
6.618246071548055
 70
   192
  0
VERTEX
  5
2FE
  8
METAL
 10
41.90882462507437
 20
-37.04923907738622
 30
6.618246071548055
 70
   192
  0
VERTEX
  5
2FF
  8
METAL
 10
41.90882462507437
 20
-31.6999119899839
 30
6.962303154677952
 70
   192
  0
VERTEX
  5
300
  8
METAL
 10
41.90882462507437
 20
-31.6999119899839
 30
6.962303154677952
 70
   192
  0
VERTEX
  5
301
  8
METAL
 10
41.90882462507437
 20
-37.64516726952489
 30
6.96230506202657
 70
   192
  0
VERTEX
  5
302
  8
METAL
 10
41.90882462507437
 20
-37.64516726952489
 30
6.96230506202657
 70
   192
  0
VERTEX
  5
303
  8
METAL
 10
41.90882462507437
 20
-33.30034915429053
 30
7.622755043716023
 70
   192
  0
VERTEX
  5
304
  8
METAL
 10
41.90882462507437
 20
-33.30034915429053
 30
7.622755043716023
 70
   192
  0
VERTEX
  5
305
  8
METAL
 10
41.90882462507437
 20
-36.04471103173192
 30
7.622766487807819
 70
   192
  0
VERTEX
  5
306
  8
METAL
 10
41.90882462507437
 20
-36.04471103173192
 30
7.622766487807819
 70
   192
  0
VERTEX
  5
307
  8
METAL
 10
41.90882462507437
 20
-34.67256061058934
 30
7.990434639663302
 70
   192
  0
VERTEX
  5
308
  8
METAL
 10
41.90882462507437
 20
-34.67256061058934
 30
7.990434639663302
 70
   192
  0
VERTEX
  5
309
  8
METAL
 10
41.90882462507437
 20
-36.38878909569678
 30
8.218685143203341
 70
   192
  0
VERTEX
  5
30A
  8
METAL
 10
41.90882462507437
 20
-36.38878909569678
 30
8.218685143203341
 70
   192
  0
VERTEX
  5
30B
  8
METAL
 10
41.90882462507437
 20
-32.956290163812
 30
8.218685143203341
 70
   192
  0
VERTEX
  5
30C
  8
METAL
 10
41.90882462507437
 20
-32.956290163812
 30
8.218685143203341
 70
   192
  0
VERTEX
  5
30D
  8
METAL
 10
41.90882462507437
 20
-34.67254153710303
 30
8.678552620620334
 70
   192
  0
VERTEX
  5
30E
  8
METAL
 10
41.90882462507437
 20
-34.67254153710303
 30
8.678552620620334
 70
   192
  0
VERTEX
  5
30F
  8
METAL
 10
45.17282676696777
 20
-34.18101072311403
 30
2.352191925048828
 70
   192
  0
VERTEX
  5
310
  8
METAL
 10
45.17282676696777
 20
-34.18101072311403
 30
2.352191925048828
 70
   192
  0
VERTEX
  5
311
  8
METAL
 10
45.17282676696777
 20
-35.89725828170778
 30
2.812059402465806
 70
   192
  0
VERTEX
  5
312
  8
METAL
 10
45.17282676696777
 20
-35.89725828170778
 30
2.812059402465806
 70
   192
  0
VERTEX
  5
313
  8
METAL
 10
45.17282676696777
 20
-32.46476316452028
 30
2.81205940246582
 70
   192
  0
VERTEX
  5
314
  8
METAL
 10
45.17282676696777
 20
-32.46476316452028
 30
2.81205940246582
 70
   192
  0
VERTEX
  5
315
  8
METAL
 10
45.17282676696777
 20
-31.20838117599489
 30
4.068437576293945
 70
   192
  0
VERTEX
  5
316
  8
METAL
 10
45.17282676696777
 20
-31.20838117599489
 30
4.068437576293945
 70
   192
  0
VERTEX
  5
317
  8
METAL
 10
45.17282676696777
 20
-37.15363645553589
 30
4.068439483642564
 70
   192
  0
VERTEX
  5
318
  8
METAL
 10
45.17282676696777
 20
-37.15363645553589
 30
4.068439483642564
 70
   192
  0
VERTEX
  5
319
  8
METAL
 10
45.25592440611075
 20
-31.24004641991554
 30
5.746055596084202
 70
   192
  0
VERTEX
  5
31A
  8
METAL
 10
45.25592440611075
 20
-31.24004641991554
 30
5.746055596084202
 70
   192
  0
VERTEX
  5
31B
  8
METAL
 10
45.25592440611075
 20
-38.10503665429053
 30
5.74605750343282
 70
   192
  0
VERTEX
  5
31C
  8
METAL
 10
45.25592440611075
 20
-38.10503665429053
 30
5.74605750343282
 70
   192
  0
VERTEX
  5
31D
  8
METAL
 10
45.25592440611075
 20
-38.10503665429053
 30
5.74605750343282
 70
   192
  0
VERTEX
  5
31E
  8
METAL
 10
45.25592440611075
 20
-31.6999119899839
 30
6.962303154677952
 70
   192
  0
VERTEX
  5
31F
  8
METAL
 10
45.25592440611075
 20
-31.6999119899839
 30
6.962303154677952
 70
   192
  0
VERTEX
  5
320
  8
METAL
 10
45.25592440611075
 20
-37.64516726952489
 30
6.96230506202657
 70
   192
  0
VERTEX
  5
321
  8
METAL
 10
45.25592440611075
 20
-37.64516726952489
 30
6.96230506202657
 70
   192
  0
VERTEX
  5
322
  8
METAL
 10
45.25592440611075
 20
-32.956290163812
 30
8.218683235854694
 70
   192
  0
VERTEX
  5
323
  8
METAL
 10
45.25592440611075
 20
-32.956290163812
 30
8.218683235854694
 70
   192
  0
VERTEX
  5
324
  8
METAL
 10
45.25592440611075
 20
-36.38878909569678
 30
8.218685143203341
 70
   192
  0
VERTEX
  5
325
  8
METAL
 10
45.25592440611075
 20
-36.38878909569678
 30
8.218685143203341
 70
   192
  0
VERTEX
  5
326
  8
METAL
 10
45.25592440611075
 20
-34.67254153710303
 30
8.678552620620334
 70
   192
  0
VERTEX
  5
327
  8
METAL
 10
45.25592440611075
 20
-34.67254153710303
 30
8.678552620620334
 70
   192
  0
VERTEX
  5
328
  8
METAL
 10
0.0
 20
0.0
 30
0.0
 70
   128
 71
   137
 72
   139
 73
    62
 74
    86
  0
VERTEX
  5
329
  8
METAL
 10
0.0
 20
0.0
 30
0.0
 70
   128
 71
   129
 72
   137
 73
    86
 74
    76
  0
VERTEX
  5
32A
  8
METAL
 10
0.0
 20
0.0
 30
0.0
 70
   128
 71
   116
 72
   129
 73
    76
 74
    54
  0
VERTEX
  5
32B
  8
METAL
 10
0.0
 20
0.0
 30
0.0
 70
   128
 71
   111
 72
   117
 73
    55
 74
    49
  0
VERTEX
  5
32C
  8
METAL
 10
0.0
 20
0.0
 30
0.0
 70
   128
 71
   105
 72
   111
 73
    49
 74
    41
  0
VERTEX
  5
32D
  8
METAL
 10
0.0
 20
0.0
 30
0.0
 70
   128
 71
   101
 72
   105
 73
    41
 74
    35
  0
VERTEX
  5
32E
  8
METAL
 10
0.0
 20
0.0
 30
0.0
 70
   128
 71
   103
 72
   101
 73
    35
 74
    38
  0
VERTEX
  5
32F
  8
METAL
 10
0.0
 20
0.0
 30
0.0
 70
   128
 71
   113
 72
   103
 73
    38
 74
    51
  0
VERTEX
  5
330
  8
METAL
 10
0.0
 20
0.0
 30
0.0
 70
   128
 71
   119
 72
   113
 73
    51
 74
    70
  0
VERTEX
  5
331
  8
METAL
 10
0.0
 20
0.0
 30
0.0
 70
   128
 71
   127
 72
   119
 73
    70
 74
    79
  0
VERTEX
  5
332
  8
METAL
 10
0.0
 20
0.0
 30
0.0
 70
   128
 71
   135
 72
   127
 73
    79
 74
    88
  0
VERTEX
  5
333
  8
METAL
 10
0.0
 20
0.0
 30
0.0
 70
   128
 71
   139
 72
   135
 73
    88
 74
    62
  0
VERTEX
  5
334
  8
METAL
 10
0.0
 20
0.0
 30
0.0
 70
   128
 71
     5
 72
     1
 73
    24
 74
    20
  0
VERTEX
  5
335
  8
METAL
 10
0.0
 20
0.0
 30
0.0
 70
   128
 71
   147
 72
   151
 73
   166
 74
   170
  0
VERTEX
  5
336
  8
METAL
 10
0.0
 20
0.0
 30
0.0
 70
   128
 71
   167
 72
   169
 73
   145
 74
   141
  0
VERTEX
  5
337
  8
METAL
 10
0.0
 20
0.0
 30
0.0
 70
   128
 71
    25
 72
    23
 73
    65
 74
    67
  0
VERTEX
  5
338
  8
METAL
 10
0.0
 20
0.0
 30
0.0
 70
   128
 71
   163
 72
   167
 73
   141
 74
   133
  0
VERTEX
  5
339
  8
METAL
 10
0.0
 20
0.0
 30
0.0
 70
   128
 71
    23
 72
    19
 73
    83
 74
    65
  0
VERTEX
  5
33A
  8
METAL
 10
0.0
 20
0.0
 30
0.0
 70
   128
 71
   158
 72
   163
 73
   133
 74
   124
  0
VERTEX
  5
33B
  8
METAL
 10
0.0
 20
0.0
 30
0.0
 70
   128
 71
    19
 72
    14
 73
    58
 74
    83
  0
VERTEX
  5
33C
  8
METAL
 10
0.0
 20
0.0
 30
0.0
 70
   128
 71
   154
 72
   159
 73
   125
 74
   107
  0
VERTEX
  5
33D
  8
METAL
 10
0.0
 20
0.0
 30
0.0
 70
   128
 71
    15
 72
     8
 73
    47
 74
    59
  0
VERTEX
  5
33E
  8
METAL
 10
0.0
 20
0.0
 30
0.0
 70
   128
 71
   148
 72
   154
 73
   107
 74
    97
  0
VERTEX
  5
33F
  8
METAL
 10
0.0
 20
0.0
 30
0.0
 70
   128
 71
     8
 72
     4
 73
    32
 74
    47
  0
VERTEX
  5
340
  8
METAL
 10
0.0
 20
0.0
 30
0.0
 70
   128
 71
   146
 72
   148
 73
    97
 74
    95
  0
VERTEX
  5
341
  8
METAL
 10
0.0
 20
0.0
 30
0.0
 70
   128
 71
     4
 72
     2
 73
    26
 74
    32
  0
VERTEX
  5
342
  8
METAL
 10
0.0
 20
0.0
 30
0.0
 70
   128
 71
   150
 72
   146
 73
    95
 74
    99
  0
VERTEX
  5
343
  8
METAL
 10
0.0
 20
0.0
 30
0.0
 70
   128
 71
     2
 72
     6
 73
    29
 74
    26
  0
VERTEX
  5
344
  8
METAL
 10
0.0
 20
0.0
 30
0.0
 70
   128
 71
   152
 72
   150
 73
    99
 74
   109
  0
VERTEX
  5
345
  8
METAL
 10
0.0
 20
0.0
 30
0.0
 70
   128
 71
     6
 72
    10
 73
    44
 74
    29
  0
VERTEX
  5
346
  8
METAL
 10
0.0
 20
0.0
 30
0.0
 70
   128
 71
   156
 72
   152
 73
   109
 74
   121
  0
VERTEX
  5
347
  8
METAL
 10
0.0
 20
0.0
 30
0.0
 70
   128
 71
    10
 72
    12
 73
    73
 74
    44
  0
VERTEX
  5
348
  8
METAL
 10
0.0
 20
0.0
 30
0.0
 70
   128
 71
   161
 72
   156
 73
   121
 74
   131
  0
VERTEX
  5
349
  8
METAL
 10
0.0
 20
0.0
 30
0.0
 70
   128
 71
    12
 72
    17
 73
    81
 74
    73
  0
VERTEX
  5
34A
  8
METAL
 10
0.0
 20
0.0
 30
0.0
 70
   128
 71
   165
 72
   161
 73
   131
 74
   143
  0
VERTEX
  5
34B
  8
METAL
 10
0.0
 20
0.0
 30
0.0
 70
   128
 71
    17
 72
    21
 73
    91
 74
    81
  0
VERTEX
  5
34C
  8
METAL
 10
0.0
 20
0.0
 30
0.0
 70
   128
 71
   169
 72
   165
 73
   143
 74
   145
  0
VERTEX
  5
34D
  8
METAL
 10
0.0
 20
0.0
 30
0.0
 70
   128
 71
    21
 72
    25
 73
    67
 74
    91
  0
VERTEX
  5
34E
  8
METAL
 10
0.0
 20
0.0
 30
0.0
 70
   128
 71
   140
 72
   144
 73
   138
 74
   136
  0
VERTEX
  5
34F
  8
METAL
 10
0.0
 20
0.0
 30
0.0
 70
   128
 71
   144
 72
   142
 73
   134
 74
   138
  0
VERTEX
  5
350
  8
METAL
 10
0.0
 20
0.0
 30
0.0
 70
   128
 71
   142
 72
   130
 73
   126
 74
   134
  0
VERTEX
  5
351
  8
METAL
 10
0.0
 20
0.0
 30
0.0
 70
   128
 71
   130
 72
   120
 73
   118
 74
   126
  0
VERTEX
  5
352
  8
METAL
 10
0.0
 20
0.0
 30
0.0
 70
   128
 71
   120
 72
   108
 73
   112
 74
   118
  0
VERTEX
  5
353
  8
METAL
 10
0.0
 20
0.0
 30
0.0
 70
   128
 71
   108
 72
    98
 73
   102
 74
   112
  0
VERTEX
  5
354
  8
METAL
 10
0.0
 20
0.0
 30
0.0
 70
   128
 71
    98
 72
    94
 73
   100
 74
   102
  0
VERTEX
  5
355
  8
METAL
 10
0.0
 20
0.0
 30
0.0
 70
   128
 71
    94
 72
    96
 73
   104
 74
   100
  0
VERTEX
  5
356
  8
METAL
 10
0.0
 20
0.0
 30
0.0
 70
   128
 71
    96
 72
   106
 73
   110
 74
   104
  0
VERTEX
  5
357
  8
METAL
 10
0.0
 20
0.0
 30
0.0
 70
   128
 71
   106
 72
   123
 73
   115
 74
   110
  0
VERTEX
  5
358
  8
METAL
 10
0.0
 20
0.0
 30
0.0
 70
   128
 71
   122
 72
   132
 73
   128
 74
   114
  0
VERTEX
  5
359
  8
METAL
 10
0.0
 20
0.0
 30
0.0
 70
   128
 71
   132
 72
   140
 73
   136
 74
   128
  0
VERTEX
  5
35A
  8
METAL
 10
0.0
 20
0.0
 30
0.0
 70
   128
 71
    69
 72
    66
 73
    87
 74
    64
  0
VERTEX
  5
35B
  8
METAL
 10
0.0
 20
0.0
 30
0.0
 70
   128
 71
    66
 72
    85
 73
    78
 74
    87
  0
VERTEX
  5
35C
  8
METAL
 10
0.0
 20
0.0
 30
0.0
 70
   128
 71
    84
 72
    60
 73
    56
 74
    77
  0
VERTEX
  5
35D
  8
METAL
 10
0.0
 20
0.0
 30
0.0
 70
   128
 71
    61
 72
    48
 73
    50
 74
    57
  0
VERTEX
  5
35E
  8
METAL
 10
0.0
 20
0.0
 30
0.0
 70
   128
 71
    48
 72
    34
 73
    43
 74
    50
  0
VERTEX
  5
35F
  8
METAL
 10
0.0
 20
0.0
 30
0.0
 70
   128
 71
    33
 72
    27
 73
    36
 74
    42
  0
VERTEX
  5
360
  8
METAL
 10
0.0
 20
0.0
 30
0.0
 70
   128
 71
    28
 72
    30
 73
    39
 74
    37
  0
VERTEX
  5
361
  8
METAL
 10
0.0
 20
0.0
 30
0.0
 70
   128
 71
    31
 72
    46
 73
    53
 74
    40
  0
VERTEX
  5
362
  8
METAL
 10
0.0
 20
0.0
 30
0.0
 70
   128
 71
    45
 72
    74
 73
    71
 74
    52
  0
VERTEX
  5
363
  8
METAL
 10
0.0
 20
0.0
 30
0.0
 70
   128
 71
    75
 72
    82
 73
    80
 74
    72
  0
VERTEX
  5
364
  8
METAL
 10
0.0
 20
0.0
 30
0.0
 70
   128
 71
    82
 72
    93
 73
    90
 74
    80
  0
VERTEX
  5
365
  8
METAL
 10
0.0
 20
0.0
 30
0.0
 70
   128
 71
    92
 72
    68
 73
    63
 74
    89
  0
VERTEX
  5
366
  8
METAL
 10
0.0
 20
0.0
 30
0.0
 70
   128
 71
   164
 72
   160
 73
   155
 74
   155
  0
VERTEX
  5
367
  8
METAL
 10
0.0
 20
0.0
 30
0.0
 70
   128
 71
   164
 72
   155
 73
   149
 74
   168
  0
VERTEX
  5
368
  8
METAL
 10
0.0
 20
0.0
 30
0.0
 70
   128
 71
   168
 72
   149
 73
   147
 74
   170
  0
VERTEX
  5
369
  8
METAL
 10
0.0
 20
0.0
 30
0.0
 70
   128
 71
   153
 72
   162
 73
   166
 74
   151
  0
VERTEX
  5
36A
  8
METAL
 10
0.0
 20
0.0
 30
0.0
 70
   128
 71
   153
 72
   157
 73
   162
 74
   162
  0
VERTEX
  5
36B
  8
METAL
 10
0.0
 20
0.0
 30
0.0
 70
   128
 71
     7
 72
    13
 73
    18
 74
    18
  0
VERTEX
  5
36C
  8
METAL
 10
0.0
 20
0.0
 30
0.0
 70
   128
 71
     7
 72
    18
 73
    22
 74
     3
  0
VERTEX
  5
36D
  8
METAL
 10
0.0
 20
0.0
 30
0.0
 70
   128
 71
     3
 72
    22
 73
    24
 74
     1
  0
VERTEX
  5
36E
  8
METAL
 10
0.0
 20
0.0
 30
0.0
 70
   128
 71
    16
 72
     9
 73
     5
 74
    20
  0
VERTEX
  5
36F
  8
METAL
 10
0.0
 20
0.0
 30
0.0
 70
   128
 71
    16
 72
    11
 73
     9
 74
     9
  0
SEQEND
  5
3C5
  8
METAL
  0
ENDSEC
  0
EOF
