  0
SECTION
  2
HEADER
  9
$ACADVER
  1
AC1021
  9
$ACADMAINTVER
 70
     1
  9
$DWGCODEPAGE
  3
ANSI_1252
  9
$LASTSAVEDBY
  1
jardiel.mezzomo
  9
$INSBASE
 10
-947.6568777218457
 20
19.94502797797141
 30
0.0
  9
$EXTMIN
 10
-0.022887310505439
 20
-438.0179429669144
 30
-16.40103737073622
  9
$EXTMAX
 10
138.885498732428
 20
0.0032970928623399
 30
0.0217943067979007
  9
$LIMMIN
 10
-150.0
 20
-150.0
  9
$LIMMAX
 10
150.0
 20
150.0
  9
$ORTHOMODE
 70
     1
  9
$REGENMODE
 70
     1
  9
$FILLMODE
 70
     1
  9
$QTEXTMODE
 70
     0
  9
$MIRRTEXT
 70
     0
  9
$LTSCALE
 40
1.0
  9
$ATTMODE
 70
     1
  9
$TEXTSIZE
 40
3.5
  9
$TRACEWID
 40
1.0
  9
$TEXTSTYLE
  7
BESCHLAG
  9
$CLAYER
  8
ACESSORIOS
  9
$CELTYPE
  6
BYLAYER
  9
$CECOLOR
 62
     1
  9
$CELTSCALE
 40
1.0
  9
$DISPSILH
 70
     1
  9
$DIMSCALE
 40
1.0
  9
$DIMASZ
 40
3.0
  9
$DIMEXO
 40
1.0
  9
$DIMDLI
 40
8.0
  9
$DIMRND
 40
0.0
  9
$DIMDLE
 40
0.0
  9
$DIMEXE
 40
1.0
  9
$DIMTP
 40
0.0
  9
$DIMTM
 40
0.0
  9
$DIMTXT
 40
3.5
  9
$DIMCEN
 40
2.0
  9
$DIMTSZ
 40
0.0
  9
$DIMTOL
 70
     0
  9
$DIMLIM
 70
     0
  9
$DIMTIH
 70
     0
  9
$DIMTOH
 70
     0
  9
$DIMSE1
 70
     0
  9
$DIMSE2
 70
     0
  9
$DIMTAD
 70
     1
  9
$DIMZIN
 70
     8
  9
$DIMBLK
  1

  9
$DIMASO
 70
     1
  9
$DIMSHO
 70
     1
  9
$DIMPOST
  1

  9
$DIMAPOST
  1

  9
$DIMALT
 70
     0
  9
$DIMALTD
 70
     2
  9
$DIMALTF
 40
0.039370078740157
  9
$DIMLFAC
 40
1.0
  9
$DIMTOFL
 70
     1
  9
$DIMTVP
 40
0.0
  9
$DIMTIX
 70
     1
  9
$DIMSOXD
 70
     0
  9
$DIMSAH
 70
     0
  9
$DIMBLK1
  1

  9
$DIMBLK2
  1

  9
$DIMSTYLE
  2
BESCHLAG
  9
$DIMCLRD
 70
   256
  9
$DIMCLRE
 70
   256
  9
$DIMCLRT
 70
   256
  9
$DIMTFAC
 40
0.71
  9
$DIMGAP
 40
1.0
  9
$DIMJUST
 70
     0
  9
$DIMSD1
 70
     0
  9
$DIMSD2
 70
     0
  9
$DIMTOLJ
 70
     1
  9
$DIMTZIN
 70
     8
  9
$DIMALTZ
 70
     8
  9
$DIMALTTZ
 70
     8
  9
$DIMUPT
 70
     0
  9
$DIMDEC
 70
     1
  9
$DIMTDEC
 70
     1
  9
$DIMALTU
 70
     2
  9
$DIMALTTD
 70
     2
  9
$DIMTXSTY
  7
BESCHLAG
  9
$DIMAUNIT
 70
     0
  9
$DIMADEC
 70
     1
  9
$DIMALTRND
 40
0.0
  9
$DIMAZIN
 70
     2
  9
$DIMDSEP
 70
    46
  9
$DIMATFIT
 70
     3
  9
$DIMFRAC
 70
     0
  9
$DIMLDRBLK
  1

  9
$DIMLUNIT
 70
     2
  9
$DIMLWD
 70
    -1
  9
$DIMLWE
 70
    -1
  9
$DIMTMOVE
 70
     0
  9
$DIMFXL
 40
1.0
  9
$DIMFXLON
 70
     0
  9
$DIMJOGANG
 40
0.7853981633974483
  9
$DIMTFILL
 70
     0
  9
$DIMTFILLCLR
 70
     0
  9
$DIMARCSYM
 70
     0
  9
$DIMLTYPE
  6

  9
$DIMLTEX1
  6

  9
$DIMLTEX2
  6

  9
$LUNITS
 70
     2
  9
$LUPREC
 70
     1
  9
$SKETCHINC
 40
1.0
  9
$FILLETRAD
 40
0.0
  9
$AUNITS
 70
     0
  9
$AUPREC
 70
     1
  9
$MENU
  1
.
  9
$ELEVATION
 40
0.0
  9
$PELEVATION
 40
0.0
  9
$THICKNESS
 40
0.0
  9
$LIMCHECK
 70
     0
  9
$CHAMFERA
 40
1.0
  9
$CHAMFERB
 40
1.0
  9
$CHAMFERC
 40
1.0
  9
$CHAMFERD
 40
0.7853981633974483
  9
$SKPOLY
 70
     0
  9
$TDCREATE
 40
2453353.592125822
  9
$TDUCREATE
 40
2453353.675459155
  9
$TDUPDATE
 40
2456674.400066377
  9
$TDUUPDATE
 40
2456674.483399710
  9
$TDINDWG
 40
0.3321512500
  9
$TDUSRTIMER
 40
0.3321511806
  9
$USRTIMER
 70
     1
  9
$ANGBASE
 50
0.0
  9
$ANGDIR
 70
     0
  9
$PDMODE
 70
    35
  9
$PDSIZE
 40
5.0
  9
$PLINEWID
 40
0.0
  9
$SPLFRAME
 70
     0
  9
$SPLINETYPE
 70
     6
  9
$SPLINESEGS
 70
     8
  9
$HANDSEED
  5
3D8E
  9
$SURFTAB1
 70
     6
  9
$SURFTAB2
 70
    12
  9
$SURFTYPE
 70
     6
  9
$SURFU
 70
    12
  9
$SURFV
 70
    12
  9
$UCSBASE
  2

  9
$UCSNAME
  2

  9
$UCSORG
 10
0.0
 20
0.0
 30
0.0
  9
$UCSXDIR
 10
1.0
 20
0.0
 30
0.0
  9
$UCSYDIR
 10
0.0
 20
0.0
 30
1.0
  9
$UCSORTHOREF
  2

  9
$UCSORTHOVIEW
 70
     3
  9
$UCSORGTOP
 10
0.0
 20
0.0
 30
0.0
  9
$UCSORGBOTTOM
 10
0.0
 20
0.0
 30
0.0
  9
$UCSORGLEFT
 10
0.0
 20
0.0
 30
0.0
  9
$UCSORGRIGHT
 10
0.0
 20
0.0
 30
0.0
  9
$UCSORGFRONT
 10
0.0
 20
0.0
 30
0.0
  9
$UCSORGBACK
 10
0.0
 20
0.0
 30
0.0
  9
$PUCSBASE
  2

  9
$PUCSNAME
  2

  9
$PUCSORG
 10
0.0
 20
0.0
 30
0.0
  9
$PUCSXDIR
 10
1.0
 20
0.0
 30
0.0
  9
$PUCSYDIR
 10
0.0
 20
1.0
 30
0.0
  9
$PUCSORTHOREF
  2

  9
$PUCSORTHOVIEW
 70
     0
  9
$PUCSORGTOP
 10
0.0
 20
0.0
 30
0.0
  9
$PUCSORGBOTTOM
 10
0.0
 20
0.0
 30
0.0
  9
$PUCSORGLEFT
 10
0.0
 20
0.0
 30
0.0
  9
$PUCSORGRIGHT
 10
0.0
 20
0.0
 30
0.0
  9
$PUCSORGFRONT
 10
0.0
 20
0.0
 30
0.0
  9
$PUCSORGBACK
 10
0.0
 20
0.0
 30
0.0
  9
$USERI1
 70
     0
  9
$USERI2
 70
     0
  9
$USERI3
 70
     0
  9
$USERI4
 70
     0
  9
$USERI5
 70
     0
  9
$USERR1
 40
0.0
  9
$USERR2
 40
0.0
  9
$USERR3
 40
0.0
  9
$USERR4
 40
0.0
  9
$USERR5
 40
0.0
  9
$WORLDVIEW
 70
     1
  9
$SHADEDGE
 70
     3
  9
$SHADEDIF
 70
    70
  9
$TILEMODE
 70
     1
  9
$MAXACTVP
 70
    48
  9
$PINSBASE
 10
0.0
 20
0.0
 30
0.0
  9
$PLIMCHECK
 70
     0
  9
$PEXTMIN
 10
1.000000000000000E+20
 20
1.000000000000000E+20
 30
1.000000000000000E+20
  9
$PEXTMAX
 10
-1.000000000000000E+20
 20
-1.000000000000000E+20
 30
-1.000000000000000E+20
  9
$PLIMMIN
 10
0.0
 20
0.0
  9
$PLIMMAX
 10
420.0
 20
297.0
  9
$UNITMODE
 70
     0
  9
$VISRETAIN
 70
     1
  9
$PLINEGEN
 70
     0
  9
$PSLTSCALE
 70
     1
  9
$TREEDEPTH
 70
  3020
  9
$CMLSTYLE
  2
STANDARD
  9
$CMLJUST
 70
     0
  9
$CMLSCALE
 40
1.0
  9
$PROXYGRAPHICS
 70
     1
  9
$MEASUREMENT
 70
     1
  9
$CELWEIGHT
370
    -1
  9
$ENDCAPS
280
     0
  9
$JOINSTYLE
280
     0
  9
$LWDISPLAY
290
     0
  9
$INSUNITS
 70
     0
  9
$HYPERLINKBASE
  1

  9
$STYLESHEET
  1

  9
$XEDIT
290
     0
  9
$CEPSNTYPE
380
     0
  9
$PSTYLEMODE
290
     1
  9
$FINGERPRINTGUID
  2
{DEF6964E-5F8B-11D3-8AEE-0008C71A8CF4}
  9
$VERSIONGUID
  2
{6873990A-E5C5-4C08-B40D-760D8B782E6F}
  9
$EXTNAMES
290
     1
  9
$PSVPSCALE
 40
0.0
  9
$OLESTARTUP
290
     0
  9
$SORTENTS
280
   127
  9
$INDEXCTL
280
     0
  9
$HIDETEXT
280
     1
  9
$XCLIPFRAME
290
     0
  9
$HALOGAP
280
     0
  9
$OBSCOLOR
 70
   257
  9
$OBSLTYPE
280
     0
  9
$INTERSECTIONDISPLAY
280
     0
  9
$INTERSECTIONCOLOR
 70
   257
  9
$DIMASSOC
280
     1
  9
$PROJECTNAME
  1

  9
$CAMERADISPLAY
290
     0
  9
$LENSLENGTH
 40
50.0
  9
$CAMERAHEIGHT
 40
0.0
  9
$STEPSPERSEC
 40
2.0
  9
$STEPSIZE
 40
6.0
  9
$3DDWFPREC
 40
2.0
  9
$PSOLWIDTH
 40
0.25
  9
$PSOLHEIGHT
 40
4.0
  9
$LOFTANG1
 40
1.570796326794896
  9
$LOFTANG2
 40
1.570796326794896
  9
$LOFTMAG1
 40
0.0
  9
$LOFTMAG2
 40
0.0
  9
$LOFTPARAM
 70
     7
  9
$LOFTNORMALS
280
     1
  9
$LATITUDE
 40
37.795
  9
$LONGITUDE
 40
-122.394
  9
$NORTHDIRECTION
 40
0.0
  9
$TIMEZONE
 70
 -8000
  9
$LIGHTGLYPHDISPLAY
280
     1
  9
$TILEMODELIGHTSYNCH
280
     1
  9
$CMATERIAL
347
2585
  9
$SOLIDHIST
280
     1
  9
$SHOWHIST
280
     1
  9
$DWFFRAME
280
     2
  9
$DGNFRAME
280
     0
  9
$REALWORLDSCALE
290
     1
  9
$INTERFERECOLOR
 62
     1
  9
$INTERFEREOBJVS
345
25A7
  9
$INTERFEREVPVS
346
25A4
  9
$CSHADOW
280
     0
  9
$SHADOWPLANELOCATION
 40
0.0
  0
ENDSEC
  0
SECTION
  2
CLASSES
  0
CLASS
  1
ACDBDICTIONARYWDFLT
  2
AcDbDictionaryWithDefault
  3
ObjectDBX Classes
 90
        0
 91
        1
280
     0
281
     0
  0
CLASS
  1
ACDBPLACEHOLDER
  2
AcDbPlaceHolder
  3
ObjectDBX Classes
 90
        0
 91
        1
280
     0
281
     0
  0
CLASS
  1
LAYOUT
  2
AcDbLayout
  3
ObjectDBX Classes
 90
        0
 91
        2
280
     0
281
     0
  0
CLASS
  1
DICTIONARYVAR
  2
AcDbDictionaryVar
  3
ObjectDBX Classes
 90
        0
 91
        8
280
     0
281
     0
  0
CLASS
  1
TABLESTYLE
  2
AcDbTableStyle
  3
ObjectDBX Classes
 90
     4095
 91
        1
280
     0
281
     0
  0
CLASS
  1
MATERIAL
  2
AcDbMaterial
  3
ObjectDBX Classes
 90
     1024
 91
        3
280
     0
281
     0
  0
CLASS
  1
PLOTSETTINGS
  2
AcDbPlotSettings
  3
ObjectDBX Classes
 90
        0
 91
        3
280
     0
281
     0
  0
CLASS
  1
CELLSTYLEMAP
  2
AcDbCellStyleMap
  3
ObjectDBX Classes
 90
     1152
 91
        0
280
     1
281
     0
  0
CLASS
  1
MLEADERSTYLE
  2
AcDbMLeaderStyle
  3
ACDB_MLEADERSTYLE_CLASS
 90
     4095
 91
        2
280
     1
281
     0
  0
CLASS
  1
SCALE
  2
AcDbScale
  3
ObjectDBX Classes
 90
     1153
 91
       66
280
     1
281
     0
  0
CLASS
  1
VISUALSTYLE
  2
AcDbVisualStyle
  3
ObjectDBX Classes
 90
     4095
 91
       17
280
     0
281
     0
  0
CLASS
  1
ACAD_PROXY_OBJECT_WRAPPER
  2
AcDbProxyObjectWrapper
  3
ObjectDBX Classes
 90
        0
 91
        0
280
     0
281
     0
  0
CLASS
  1
XRECORD
  2
AcDbXrecord
  3
ObjectDBX Classes
 90
        0
 91
       56
280
     0
281
     0
  0
CLASS
  1
LWPOLYLINE
  2
AcDbPolyline
  3
ObjectDBX Classes
 90
        0
 91
        0
280
     0
281
     1
  0
CLASS
  1
HATCH
  2
AcDbHatch
  3
ObjectDBX Classes
 90
        0
 91
        0
280
     0
281
     1
  0
ENDSEC
  0
SECTION
  2
TABLES
  0
TABLE
  2
VPORT
  5
8
330
0
100
AcDbSymbolTable
 70
     1
  0
VPORT
  5
97
330
8
100
AcDbSymbolTableRecord
100
AcDbViewportTableRecord
  2
*ACTIVE
 70
     0
 10
0.0
 20
0.0
 11
1.0
 21
1.0
 12
-105.7662160834263
 22
-124.4413750292268
 13
0.0
 23
0.0
 14
1.0
 24
1.0
 15
10.0
 25
10.0
 16
1.0
 26
-1.0
 36
1.0
 17
0.0
 27
0.0
 37
0.0
 40
251.310573959562
 41
2.157392686804451
 42
50.0
 43
0.0
 44
0.0
 50
0.0
 51
0.0
 71
    16
 72
   800
 73
     1
 74
     1
 75
     0
 76
     0
 77
     0
 78
     0
281
     0
 65
     1
110
0.0
120
0.0
130
0.0
111
1.0
121
0.0
131
0.0
112
0.0
122
0.0
132
1.0
 79
     0
146
0.0
348
25A3
 60
     3
 61
     5
292
     1
282
     1
141
0.0
142
0.0
 63
   250
421
  3355443
  0
ENDTAB
  0
TABLE
  2
LTYPE
  5
5
330
0
100
AcDbSymbolTable
 70
     7
  0
LTYPE
  5
14
330
5
100
AcDbSymbolTableRecord
100
AcDbLinetypeTableRecord
  2
BYBLOCK
 70
     0
  3

 72
    65
 73
     0
 40
0.0
  0
LTYPE
  5
15
330
5
100
AcDbSymbolTableRecord
100
AcDbLinetypeTableRecord
  2
BYLAYER
 70
     0
  3

 72
    65
 73
     0
 40
0.0
  0
LTYPE
  5
3D7F
330
5
100
AcDbSymbolTableRecord
100
AcDbLinetypeTableRecord
  2
Continuous
 70
     0
  3
Solid line
 72
    65
 73
     0
 40
0.0
  0
LTYPE
  5
3D2D
330
5
100
AcDbSymbolTableRecord
100
AcDbLinetypeTableRecord
  2
MITTE
 70
     0
  3
Mitte ____ _ ____ _ ____ _ ____ _ ____ _ ____
 72
    65
 73
     4
 40
50.8
 49
31.75
 74
     0
 49
-6.349999999999998
 74
     0
 49
6.349999999999998
 74
     0
 49
-6.349999999999998
 74
     0
  0
LTYPE
  5
3D2E
330
5
100
AcDbSymbolTableRecord
100
AcDbLinetypeTableRecord
  2
STRICHLINIE
 70
     0
  3
Strichlinie __ __ __ __ __ __ __ __ __ __ __ __
 72
    65
 73
     2
 40
19.05
 49
12.7
 74
     0
 49
-6.349999999999998
 74
     0
  0
LTYPE
  5
3D2F
330
5
100
AcDbSymbolTableRecord
100
AcDbLinetypeTableRecord
  2
PHANTOM
 70
     0
  3
Phantom ______  __  __  ______  __  __  ______
 72
    65
 73
     6
 40
63.50000000000001
 49
31.75
 74
     0
 49
-6.349999999999998
 74
     0
 49
6.349999999999998
 74
     0
 49
-6.349999999999998
 74
     0
 49
6.349999999999998
 74
     0
 49
-6.349999999999998
 74
     0
  0
LTYPE
  5
3D30
330
5
100
AcDbSymbolTableRecord
100
AcDbLinetypeTableRecord
  2
PUNKT
 70
     0
  3
Punkt . . . . . . . . . . . . . . . . . . . . .
 72
    65
 73
     2
 40
6.349999999999998
 49
0.0
 74
     0
 49
-6.349999999999998
 74
     0
  0
LTYPE
  5
3D31
330
5
100
AcDbSymbolTableRecord
100
AcDbLinetypeTableRecord
  2
MITTE2
 70
     0
  3
Mitte (.5x) ___ _ ___ _ ___ _ ___ _ ___ _ ___
 72
    65
 73
     4
 40
28.575
 49
19.05
 74
     0
 49
-3.174999999999998
 74
     0
 49
3.174999999999998
 74
     0
 49
-3.174999999999998
 74
     0
  0
LTYPE
  5
3D32
330
5
100
AcDbSymbolTableRecord
100
AcDbLinetypeTableRecord
  2
STRICHLINIE2
 70
     0
  3
Strichlinie (.5x) _ _ _ _ _ _ _ _ _ _ _ _ _ _ _
 72
    65
 73
     2
 40
9.525
 49
6.349999999999998
 74
     0
 49
-3.174999999999998
 74
     0
  0
ENDTAB
  0
TABLE
  2
LAYER
  5
2
330
0
100
AcDbSymbolTable
 70
     2
  0
LAYER
  5
10
330
2
100
AcDbSymbolTableRecord
100
AcDbLayerTableRecord
  2
0
 70
     0
 62
     7
  6
Continuous
370
    -3
390
3D84
347
2595
  0
LAYER
  5
120
330
2
100
AcDbSymbolTableRecord
100
AcDbLayerTableRecord
  2
ACESSORIOS
 70
     0
 62
   252
  6
Continuous
370
    -3
390
3D84
347
2595
  0
ENDTAB
  0
TABLE
  2
STYLE
  5
3
330
0
100
AcDbSymbolTable
 70
     4
  0
STYLE
  5
11
330
3
100
AcDbSymbolTableRecord
100
AcDbTextStyleTableRecord
  2
STANDARD
 70
     0
 40
0.0
 41
1.0
 50
0.0
 71
     0
 42
2.5
  3
ARIAL.TTF
  4

1001
ACAD
1000
Arial
1071
       34
  0
STYLE
  5
12B
330
3
100
AcDbSymbolTableRecord
100
AcDbTextStyleTableRecord
  2
BESCHLAG
 70
     0
 40
0.0
 41
1.0
 50
0.0
 71
     0
 42
3.5
  3

  4

1001
ACAD
1000
Arial
1071
       34
  0
STYLE
  5
21A2
330
3
100
AcDbSymbolTableRecord
100
AcDbTextStyleTableRecord
  2

 70
     1
 40
0.0
 41
1.0
 50
0.0
 71
     0
 42
3.5
  3
ltypeshp.shx
  4

  0
STYLE
  5
3331
330
3
100
AcDbSymbolTableRecord
100
AcDbTextStyleTableRecord
  2
ANNOTATIVE
 70
     0
 40
0.0
 41
1.0
 50
0.0
 71
     0
 42
0.2
  3
SIMPLEX
  4

1001
ACADANNOTATIVE
1000
AnnotativeData
1002
{
1070
     1
1070
     1
1002
}
  0
ENDTAB
  0
TABLE
  2
VIEW
  5
6
330
0
100
AcDbSymbolTable
 70
     0
  0
ENDTAB
  0
TABLE
  2
UCS
  5
7
330
0
100
AcDbSymbolTable
 70
     0
  0
ENDTAB
  0
TABLE
  2
APPID
  5
9
330
0
100
AcDbSymbolTable
 70
     5
  0
APPID
  5
12
330
9
100
AcDbSymbolTableRecord
100
AcDbRegAppTableRecord
  2
ACAD
 70
     0
  0
APPID
  5
3D29
330
9
100
AcDbSymbolTableRecord
100
AcDbRegAppTableRecord
  2
ACAD_MLEADERVER
 70
     0
  0
APPID
  5
3D2A
330
9
100
AcDbSymbolTableRecord
100
AcDbRegAppTableRecord
  2
ACAD_EXEMPT_FROM_CAD_STAND
 70
     0
  0
APPID
  5
3D2B
330
9
100
AcDbSymbolTableRecord
100
AcDbRegAppTableRecord
  2
ACADANNOTATIVE
 70
     0
  0
APPID
  5
3D2C
330
9
100
AcDbSymbolTableRecord
100
AcDbRegAppTableRecord
  2
ACAD_DSTYLE_DIMJOGGED_JOGA
 70
     0
  0
ENDTAB
  0
TABLE
  2
DIMSTYLE
  5
A
330
0
100
AcDbSymbolTable
 70
     4
100
AcDbDimStyleTable
 71
     0
  0
DIMSTYLE
105
27
330
A
100
AcDbSymbolTableRecord
100
AcDbDimStyleTableRecord
  2
STANDARD
 70
     0
340
11
  0
DIMSTYLE
105
274
330
A
100
AcDbSymbolTableRecord
100
AcDbDimStyleTableRecord
  2
BESCHLAG
 70
     0
 41
3.0
 42
1.0
 43
8.0
 44
1.0
 73
     0
 74
     0
 77
     1
 78
     8
140
3.5
141
2.0
143
0.039370078740157
146
0.71
147
1.0
172
     1
174
     1
176
   256
177
   256
178
   256
179
     1
271
     1
272
     1
284
     8
285
     8
286
     8
340
12B
  0
DIMSTYLE
105
2BC3
330
A
100
AcDbSymbolTableRecord
100
AcDbDimStyleTableRecord
  2
ISO-25
 70
     0
 41
2.5
 42
0.625
 43
3.75
 44
1.25
 73
     0
 74
     0
 77
     1
 78
     8
140
2.5
141
2.5
143
0.03937007874016
147
0.625
171
     3
172
     1
271
     3
272
     3
274
     3
340
11
  0
DIMSTYLE
105
3332
330
A
100
AcDbSymbolTableRecord
100
AcDbDimStyleTableRecord
  2
ANNOTATIVE
 70
     0
340
11
1001
ACADANNOTATIVE
1000
AnnotativeData
1002
{
1070
     1
1070
     1
1002
}
  0
ENDTAB
  0
TABLE
  2
BLOCK_RECORD
  5
1
330
0
100
AcDbSymbolTable
 70
     4
  0
BLOCK_RECORD
  5
1F
330
1
100
AcDbSymbolTableRecord
100
AcDbBlockTableRecord
  2
*MODEL_SPACE
340
3D88
 70
     0
280
     1
281
     0
  0
BLOCK_RECORD
  5
73
330
1
100
AcDbSymbolTableRecord
100
AcDbBlockTableRecord
  2
*PAPER_SPACE
340
3D89
 70
     0
280
     1
281
     0
  0
BLOCK_RECORD
  5
253
330
1
100
AcDbSymbolTableRecord
100
AcDbBlockTableRecord
  2
NULLPUNKT
340
0
 70
     0
280
     1
281
     0
  0
BLOCK_RECORD
  5
479
330
1
100
AcDbSymbolTableRecord
100
AcDbBlockTableRecord
  2
LOGO_BLUM
340
0
 70
     0
280
     1
281
     0
  0
BLOCK_RECORD
  5
17C9
330
1
100
AcDbSymbolTableRecord
100
AcDbBlockTableRecord
  2
ACL_C000
340
0
 70
     0
280
     1
281
     0
  0
BLOCK_RECORD
  5
34B3
330
1
100
AcDbSymbolTableRecord
100
AcDbBlockTableRecord
  2
A$C387839CC
340
0
 70
     0
280
     1
281
     0
  0
ENDTAB
  0
ENDSEC
  0
SECTION
  2
BLOCKS
  0
BLOCK
  5
20
330
1F
100
AcDbEntity
  8
0
100
AcDbBlockBegin
  2
*MODEL_SPACE
 70
     0
 10
0.0
 20
0.0
 30
0.0
  3
*MODEL_SPACE
  1

  0
ENDBLK
  5
21
330
1F
100
AcDbEntity
  8
0
100
AcDbBlockEnd
  0
BLOCK
  5
75
330
73
100
AcDbEntity
 67
     1
  8
0
100
AcDbBlockBegin
  2
*PAPER_SPACE
 70
     0
 10
0.0
 20
0.0
 30
0.0
  3
*PAPER_SPACE
  1

  0
ENDBLK
  5
76
330
73
100
AcDbEntity
 67
     1
  8
0
100
AcDbBlockEnd
  0
BLOCK
  5
3D37
330
253
100
AcDbEntity
  8
0
100
AcDbBlockBegin
  2
NULLPUNKT
 70
     0
 10
0.0
 20
0.0
 30
0.0
  3
NULLPUNKT
  1

  0
ENDBLK
  5
3D38
330
253
100
AcDbEntity
  8
0
100
AcDbBlockEnd
  0
BLOCK
  5
3D39
330
479
100
AcDbEntity
  8
0
100
AcDbBlockBegin
  2
LOGO_BLUM
 70
     0
 10
0.0
 20
0.0
 30
0.0
  3
LOGO_BLUM
  1

  0
ENDBLK
  5
3D3A
330
479
100
AcDbEntity
  8
0
100
AcDbBlockEnd
  0
BLOCK
  5
3D3B
330
17C9
100
AcDbEntity
  8
0
100
AcDbBlockBegin
  2
ACL_C000
 70
     2
 10
0.0
 20
0.0
 30
0.0
  3
ACL_C000
  1
ACL_C000
  0
ATTDEF
  5
17CB
330
17C9
100
AcDbEntity
  8
0
100
AcDbText
 10
0.0
 20
0.0
 30
0.0
 40
0.001
  1
ACL_C000
100
AcDbAttributeDefinition
  3

  2
CFGNME
 70
     3
280
     0
  0
ATTDEF
  5
17CC
330
17C9
100
AcDbEntity
  8
0
100
AcDbText
 10
0.0
 20
0.0
 30
0.0
 40
0.001
  1
858
100
AcDbAttributeDefinition
  3

  2
USRCDE
 70
     3
280
     0
  0
ENDBLK
  5
3D3C
330
17C9
100
AcDbEntity
  8
0
100
AcDbBlockEnd
  0
BLOCK
  5
3D3D
330
34B3
100
AcDbEntity
  8
0
100
AcDbBlockBegin
  2
A$C387839CC
 70
     0
 10
0.0
 20
0.0
 30
0.0
  3
A$C387839CC
  1

  0
ENDBLK
  5
3D3E
330
34B3
100
AcDbEntity
  8
0
100
AcDbBlockEnd
  0
ENDSEC
  0
SECTION
  2
ENTITIES
  0
3DFACE
  5
39A4
330
1F
100
AcDbEntity
  8
ACESSORIOS
100
AcDbFace
 10
2.085000000000035
 20
0.0
 30
-1.464999999999918
 11
15.96500000000015
 21
0.0
 31
-1.464999999999918
 12
15.96500000000015
 22
0.0
 32
0.0200000000000706
 13
2.085000000000035
 23
0.0
 33
0.020000000000092
  0
3DFACE
  5
39A5
330
1F
100
AcDbEntity
  8
ACESSORIOS
100
AcDbFace
 10
1.485000000000126
 20
0.0
 30
-2.064999999999907
 11
0.0
 21
0.0
 31
-2.064999999999907
 12
0.0
 22
0.0
 32
-14.31499999999991
 13
1.484999999999673
 23
0.0
 33
-14.31499999999991
  0
3DFACE
  5
39A6
330
1F
100
AcDbEntity
  8
ACESSORIOS
100
AcDbFace
 10
16.56500000000005
 20
0.0
 30
-16.17999999999992
 11
18.04999999999973
 21
0.0
 31
-16.17999999999992
 12
18.05000000000018
 22
0.0
 32
-2.064999999999907
 13
16.56500000000005
 23
0.0
 33
-2.064999999999907
  0
3DFACE
  5
39A7
330
1F
100
AcDbEntity
  8
ACESSORIOS
100
AcDbFace
 10
8.699999999999818
 20
0.0
 30
-16.39999999999991
 11
8.699999999999818
 21
0.0
 31
-14.91499999999993
 12
2.085000000000035
 22
0.0
 32
-14.91499999999999
 13
2.085000000000035
 23
0.0
 33
-16.4
  0
POLYLINE
  5
3A1A
330
1F
100
AcDbEntity
  8
ACESSORIOS
100
AcDbPolygonMesh
 66
     1
 10
0.0
 20
0.0
 30
0.0
 70
    16
 71
     2
 72
     7
  0
VERTEX
  5
3A1B
330
3A1A
100
AcDbEntity
  8
ACESSORIOS
100
AcDbVertex
100
AcDbPolygonMeshVertex
 10
16.56500000000005
 20
0.0
 30
-2.064999999999907
 70
    64
  0
VERTEX
  5
3A1C
330
3A1A
100
AcDbEntity
  8
ACESSORIOS
100
AcDbVertex
100
AcDbPolygonMeshVertex
 10
16.54455549577347
 20
0.0
 30
-1.909708572938418
 70
    64
  0
VERTEX
  5
3A1D
330
3A1A
100
AcDbEntity
  8
ACESSORIOS
100
AcDbVertex
100
AcDbPolygonMeshVertex
 10
16.48461524227082
 20
0.0
 30
-1.764999999999949
 70
    64
  0
VERTEX
  5
3A1E
330
3A1A
100
AcDbEntity
  8
ACESSORIOS
100
AcDbVertex
100
AcDbPolygonMeshVertex
 10
16.38926406871201
 20
0.0
 30
-1.640735931288029
 70
    64
  0
VERTEX
  5
3A1F
330
3A1A
100
AcDbEntity
  8
ACESSORIOS
100
AcDbVertex
100
AcDbPolygonMeshVertex
 10
16.2650000000001
 20
0.0
 30
-1.545384757729287
 70
    64
  0
VERTEX
  5
3A20
330
3A1A
100
AcDbEntity
  8
ACESSORIOS
100
AcDbVertex
100
AcDbPolygonMeshVertex
 10
16.1202914270616
 20
0.0
 30
-1.485444504226499
 70
    64
  0
VERTEX
  5
3A21
330
3A1A
100
AcDbEntity
  8
ACESSORIOS
100
AcDbVertex
100
AcDbPolygonMeshVertex
 10
15.96500000000015
 20
0.0
 30
-1.464999999999918
 70
    64
  0
VERTEX
  5
3A22
330
3A1A
100
AcDbEntity
  8
ACESSORIOS
100
AcDbVertex
100
AcDbPolygonMeshVertex
 10
18.05000000000018
 20
0.0
 30
-2.064999999999907
 70
    64
  0
VERTEX
  5
3A23
330
3A1A
100
AcDbEntity
  8
ACESSORIOS
100
AcDbVertex
100
AcDbPolygonMeshVertex
 10
17.97895534781287
 20
0.0
 30
-1.525362290961169
 70
    64
  0
VERTEX
  5
3A24
330
3A1A
100
AcDbEntity
  8
ACESSORIOS
100
AcDbVertex
100
AcDbPolygonMeshVertex
 10
17.77066296689077
 20
0.0
 30
-1.022499999999929
 70
    64
  0
VERTEX
  5
3A25
330
3A1A
100
AcDbEntity
  8
ACESSORIOS
100
AcDbVertex
100
AcDbPolygonMeshVertex
 10
17.43931763877413
 20
0.0
 30
-0.5906823612259782
 70
    64
  0
VERTEX
  5
3A26
330
3A1A
100
AcDbEntity
  8
ACESSORIOS
100
AcDbVertex
100
AcDbPolygonMeshVertex
 10
17.00750000000016
 20
0.0
 30
-0.2593370331093787
 70
    64
  0
VERTEX
  5
3A27
330
3A1A
100
AcDbEntity
  8
ACESSORIOS
100
AcDbVertex
100
AcDbPolygonMeshVertex
 10
16.50463770903889
 20
0.0
 30
-0.0510446521872297
 70
    64
  0
VERTEX
  5
3A28
330
3A1A
100
AcDbEntity
  8
ACESSORIOS
100
AcDbVertex
100
AcDbPolygonMeshVertex
 10
15.96500000000015
 20
0.0
 30
0.0200000000000706
 70
    64
  0
SEQEND
  5
3D3F
330
3A1A
100
AcDbEntity
  8
ACESSORIOS
  0
POLYLINE
  5
3A2A
330
1F
100
AcDbEntity
  8
ACESSORIOS
100
AcDbPolygonMesh
 66
     1
 10
0.0
 20
0.0
 30
0.0
 70
    16
 71
     2
 72
     7
  0
VERTEX
  5
3A2B
330
3A2A
100
AcDbEntity
  8
ACESSORIOS
100
AcDbVertex
100
AcDbPolygonMeshVertex
 10
2.085000000000035
 20
0.0
 30
-1.464999999999829
 70
    64
  0
VERTEX
  5
3A2C
330
3A2A
100
AcDbEntity
  8
ACESSORIOS
100
AcDbVertex
100
AcDbPolygonMeshVertex
 10
1.929708572938353
 20
0.0
 30
-1.485444504226359
 70
    64
  0
VERTEX
  5
3A2D
330
3A2A
100
AcDbEntity
  8
ACESSORIOS
100
AcDbVertex
100
AcDbPolygonMeshVertex
 10
1.784999999999854
 20
0.0
 30
-1.545384757729127
 70
    64
  0
VERTEX
  5
3A2E
330
3A2A
100
AcDbEntity
  8
ACESSORIOS
100
AcDbVertex
100
AcDbPolygonMeshVertex
 10
1.660735931287945
 20
0.0
 30
-1.640735931287865
 70
    64
  0
VERTEX
  5
3A2F
330
3A2A
100
AcDbEntity
  8
ACESSORIOS
100
AcDbVertex
100
AcDbPolygonMeshVertex
 10
1.565384757729133
 20
0.0
 30
-1.764999999999819
 70
    64
  0
VERTEX
  5
3A30
330
3A2A
100
AcDbEntity
  8
ACESSORIOS
100
AcDbVertex
100
AcDbPolygonMeshVertex
 10
1.50544450422626
 20
0.0
 30
-1.909708572938347
 70
    64
  0
VERTEX
  5
3A31
330
3A2A
100
AcDbEntity
  8
ACESSORIOS
100
AcDbVertex
100
AcDbPolygonMeshVertex
 10
1.484999999999673
 20
0.0
 30
-2.064999999999907
 70
    64
  0
VERTEX
  5
3A32
330
3A2A
100
AcDbEntity
  8
ACESSORIOS
100
AcDbVertex
100
AcDbPolygonMeshVertex
 10
2.085000000000035
 20
0.0
 30
0.0200000000001808
 70
    64
  0
VERTEX
  5
3A33
330
3A2A
100
AcDbEntity
  8
ACESSORIOS
100
AcDbVertex
100
AcDbPolygonMeshVertex
 10
1.545362290961293
 20
0.0
 30
-0.0510446521871302
 70
    64
  0
VERTEX
  5
3A34
330
3A2A
100
AcDbEntity
  8
ACESSORIOS
100
AcDbVertex
100
AcDbPolygonMeshVertex
 10
1.042500000000017
 20
0.0
 30
-0.2593370331092863
 70
    64
  0
VERTEX
  5
3A35
330
3A2A
100
AcDbEntity
  8
ACESSORIOS
100
AcDbVertex
100
AcDbPolygonMeshVertex
 10
0.6106823612260542
 20
0.0
 30
-0.5906823612259089
 70
    64
  0
VERTEX
  5
3A36
330
3A2A
100
AcDbEntity
  8
ACESSORIOS
100
AcDbVertex
100
AcDbPolygonMeshVertex
 10
0.2793370331094138
 20
0.0
 30
-1.02249999999988
 70
    64
  0
VERTEX
  5
3A37
330
3A2A
100
AcDbEntity
  8
ACESSORIOS
100
AcDbVertex
100
AcDbPolygonMeshVertex
 10
0.0710446521873109
 20
0.0
 30
-1.52536229096114
 70
    64
  0
VERTEX
  5
3A38
330
3A2A
100
AcDbEntity
  8
ACESSORIOS
100
AcDbVertex
100
AcDbPolygonMeshVertex
 10
0.0
 20
0.0
 30
-2.064999999999907
 70
    64
  0
SEQEND
  5
3D40
330
3A2A
100
AcDbEntity
  8
ACESSORIOS
  0
POLYLINE
  5
3A3A
330
1F
100
AcDbEntity
  8
ACESSORIOS
100
AcDbPolygonMesh
 66
     1
 10
0.0
 20
0.0
 30
0.0
 70
    16
 71
     2
 72
     7
  0
VERTEX
  5
3A3B
330
3A3A
100
AcDbEntity
  8
ACESSORIOS
100
AcDbVertex
100
AcDbPolygonMeshVertex
 10
1.484999999999673
 20
0.0
 30
-14.31499999999991
 70
    64
  0
VERTEX
  5
3A3C
330
3A3A
100
AcDbEntity
  8
ACESSORIOS
100
AcDbVertex
100
AcDbPolygonMeshVertex
 10
1.50544450422626
 20
0.0
 30
-14.47029142706148
 70
    64
  0
VERTEX
  5
3A3D
330
3A3A
100
AcDbEntity
  8
ACESSORIOS
100
AcDbVertex
100
AcDbPolygonMeshVertex
 10
1.565384757729133
 20
0.0
 30
-14.615
 70
    64
  0
VERTEX
  5
3A3E
330
3A3A
100
AcDbEntity
  8
ACESSORIOS
100
AcDbVertex
100
AcDbPolygonMeshVertex
 10
1.660735931287945
 20
0.0
 30
-14.73926406871195
 70
    64
  0
VERTEX
  5
3A3F
330
3A3A
100
AcDbEntity
  8
ACESSORIOS
100
AcDbVertex
100
AcDbPolygonMeshVertex
 10
1.784999999999854
 20
0.0
 30
-14.8346152422707
 70
    64
  0
VERTEX
  5
3A40
330
3A3A
100
AcDbEntity
  8
ACESSORIOS
100
AcDbVertex
100
AcDbPolygonMeshVertex
 10
1.929708572938353
 20
0.0
 30
-14.89455549577346
 70
    64
  0
VERTEX
  5
3A41
330
3A3A
100
AcDbEntity
  8
ACESSORIOS
100
AcDbVertex
100
AcDbPolygonMeshVertex
 10
2.085000000000035
 20
0.0
 30
-14.91499999999999
 70
    64
  0
VERTEX
  5
3A42
330
3A3A
100
AcDbEntity
  8
ACESSORIOS
100
AcDbVertex
100
AcDbPolygonMeshVertex
 10
0.0
 20
0.0
 30
-14.31499999999991
 70
    64
  0
VERTEX
  5
3A43
330
3A3A
100
AcDbEntity
  8
ACESSORIOS
100
AcDbVertex
100
AcDbPolygonMeshVertex
 10
0.0710446521873109
 20
0.0
 30
-14.85463770903869
 70
    64
  0
VERTEX
  5
3A44
330
3A3A
100
AcDbEntity
  8
ACESSORIOS
100
AcDbVertex
100
AcDbPolygonMeshVertex
 10
0.2793370331094138
 20
0.0
 30
-15.35749999999995
 70
    64
  0
VERTEX
  5
3A45
330
3A3A
100
AcDbEntity
  8
ACESSORIOS
100
AcDbVertex
100
AcDbPolygonMeshVertex
 10
0.6106823612260542
 20
0.0
 30
-15.78931763877392
 70
    64
  0
VERTEX
  5
3A46
330
3A3A
100
AcDbEntity
  8
ACESSORIOS
100
AcDbVertex
100
AcDbPolygonMeshVertex
 10
1.042500000000017
 20
0.0
 30
-16.12066296689053
 70
    64
  0
VERTEX
  5
3A47
330
3A3A
100
AcDbEntity
  8
ACESSORIOS
100
AcDbVertex
100
AcDbPolygonMeshVertex
 10
1.545362290961293
 20
0.0
 30
-16.3289553478127
 70
    64
  0
VERTEX
  5
3A48
330
3A3A
100
AcDbEntity
  8
ACESSORIOS
100
AcDbVertex
100
AcDbPolygonMeshVertex
 10
2.085000000000035
 20
0.0
 30
-16.4
 70
    64
  0
SEQEND
  5
3D41
330
3A3A
100
AcDbEntity
  8
ACESSORIOS
  0
3DFACE
  5
3A58
330
1F
100
AcDbEntity
  8
ACESSORIOS
100
AcDbFace
 10
2.084999999999979
 20
-438.0000000000001
 30
-1.464999999999918
 11
15.96500000000009
 21
-438.0000000000001
 31
-1.464999999999918
 12
15.96500000000009
 22
-438.0000000000001
 32
0.0200000000000706
 13
2.084999999999979
 23
-438.0000000000001
 33
0.020000000000092
  0
3DFACE
  5
3A59
330
1F
100
AcDbEntity
  8
ACESSORIOS
100
AcDbFace
 10
1.48500000000007
 20
-438.0000000000001
 30
-2.064999999999907
 11
-0.0000000000000568
 21
-438.0000000000001
 31
-2.064999999999907
 12
-0.0000000000000568
 22
-438.0000000000001
 32
-14.31499999999991
 13
1.484999999999615
 23
-438.0000000000001
 33
-14.31499999999991
  0
3DFACE
  5
3A5A
330
1F
100
AcDbEntity
  8
ACESSORIOS
100
AcDbFace
 10
16.565
 20
-438.0000000000001
 30
-16.17999999999992
 11
18.04999999999967
 21
-438.0000000000001
 31
-16.17999999999992
 12
18.05000000000013
 22
-438.0000000000001
 32
-2.064999999999907
 13
16.565
 23
-438.0000000000001
 33
-2.064999999999907
  0
3DFACE
  5
3A5B
330
1F
100
AcDbEntity
  8
ACESSORIOS
100
AcDbFace
 10
8.699999999999761
 20
-438.0000000000001
 30
-16.39999999999991
 11
8.699999999999761
 21
-438.0000000000001
 31
-14.91499999999993
 12
2.084999999999979
 22
-438.0000000000001
 32
-14.91499999999999
 13
2.084999999999979
 23
-438.0000000000001
 33
-16.4
  0
POLYLINE
  5
3A5E
330
1F
100
AcDbEntity
  8
ACESSORIOS
100
AcDbPolygonMesh
 66
     1
 10
0.0
 20
0.0
 30
0.0
 70
    16
 71
     2
 72
     7
  0
VERTEX
  5
3A5F
330
3A5E
100
AcDbEntity
  8
ACESSORIOS
100
AcDbVertex
100
AcDbPolygonMeshVertex
 10
16.565
 20
-438.0000000000001
 30
-2.064999999999907
 70
    64
  0
VERTEX
  5
3A60
330
3A5E
100
AcDbEntity
  8
ACESSORIOS
100
AcDbVertex
100
AcDbPolygonMeshVertex
 10
16.54455549577341
 20
-438.0000000000001
 30
-1.909708572938418
 70
    64
  0
VERTEX
  5
3A61
330
3A5E
100
AcDbEntity
  8
ACESSORIOS
100
AcDbVertex
100
AcDbPolygonMeshVertex
 10
16.48461524227054
 20
-438.0000000000001
 30
-1.764999999999949
 70
    64
  0
VERTEX
  5
3A62
330
3A5E
100
AcDbEntity
  8
ACESSORIOS
100
AcDbVertex
100
AcDbPolygonMeshVertex
 10
16.38926406871195
 20
-438.0000000000001
 30
-1.640735931288029
 70
    64
  0
VERTEX
  5
3A63
330
3A5E
100
AcDbEntity
  8
ACESSORIOS
100
AcDbVertex
100
AcDbPolygonMeshVertex
 10
16.26500000000004
 20
-438.0000000000001
 30
-1.545384757729287
 70
    64
  0
VERTEX
  5
3A64
330
3A5E
100
AcDbEntity
  8
ACESSORIOS
100
AcDbVertex
100
AcDbPolygonMeshVertex
 10
16.12029142706155
 20
-438.0000000000001
 30
-1.485444504226499
 70
    64
  0
VERTEX
  5
3A65
330
3A5E
100
AcDbEntity
  8
ACESSORIOS
100
AcDbVertex
100
AcDbPolygonMeshVertex
 10
15.96500000000009
 20
-438.0000000000001
 30
-1.464999999999918
 70
    64
  0
VERTEX
  5
3A66
330
3A5E
100
AcDbEntity
  8
ACESSORIOS
100
AcDbVertex
100
AcDbPolygonMeshVertex
 10
18.05000000000013
 20
-438.0000000000001
 30
-2.064999999999907
 70
    64
  0
VERTEX
  5
3A67
330
3A5E
100
AcDbEntity
  8
ACESSORIOS
100
AcDbVertex
100
AcDbPolygonMeshVertex
 10
17.97895534781281
 20
-438.0000000000001
 30
-1.525362290961169
 70
    64
  0
VERTEX
  5
3A68
330
3A5E
100
AcDbEntity
  8
ACESSORIOS
100
AcDbVertex
100
AcDbPolygonMeshVertex
 10
17.77066296689071
 20
-438.0000000000001
 30
-1.022499999999929
 70
    64
  0
VERTEX
  5
3A69
330
3A5E
100
AcDbEntity
  8
ACESSORIOS
100
AcDbVertex
100
AcDbPolygonMeshVertex
 10
17.43931763877407
 20
-438.0000000000001
 30
-0.5906823612259782
 70
    64
  0
VERTEX
  5
3A6A
330
3A5E
100
AcDbEntity
  8
ACESSORIOS
100
AcDbVertex
100
AcDbPolygonMeshVertex
 10
17.00750000000011
 20
-438.0000000000001
 30
-0.2593370331093787
 70
    64
  0
VERTEX
  5
3A6B
330
3A5E
100
AcDbEntity
  8
ACESSORIOS
100
AcDbVertex
100
AcDbPolygonMeshVertex
 10
16.50463770903883
 20
-438.0000000000001
 30
-0.0510446521872297
 70
    64
  0
VERTEX
  5
3A6C
330
3A5E
100
AcDbEntity
  8
ACESSORIOS
100
AcDbVertex
100
AcDbPolygonMeshVertex
 10
15.96500000000009
 20
-438.0000000000001
 30
0.0200000000000706
 70
    64
  0
SEQEND
  5
3D42
330
3A5E
100
AcDbEntity
  8
ACESSORIOS
  0
POLYLINE
  5
3A6E
330
1F
100
AcDbEntity
  8
ACESSORIOS
100
AcDbPolygonMesh
 66
     1
 10
0.0
 20
0.0
 30
0.0
 70
    16
 71
     2
 72
     7
  0
VERTEX
  5
3A6F
330
3A6E
100
AcDbEntity
  8
ACESSORIOS
100
AcDbVertex
100
AcDbPolygonMeshVertex
 10
2.084999999999979
 20
-438.0000000000001
 30
-1.464999999999829
 70
    64
  0
VERTEX
  5
3A70
330
3A6E
100
AcDbEntity
  8
ACESSORIOS
100
AcDbVertex
100
AcDbPolygonMeshVertex
 10
1.929708572938295
 20
-438.0000000000001
 30
-1.485444504226359
 70
    64
  0
VERTEX
  5
3A71
330
3A6E
100
AcDbEntity
  8
ACESSORIOS
100
AcDbVertex
100
AcDbPolygonMeshVertex
 10
1.784999999999798
 20
-438.0000000000001
 30
-1.545384757729127
 70
    64
  0
VERTEX
  5
3A72
330
3A6E
100
AcDbEntity
  8
ACESSORIOS
100
AcDbVertex
100
AcDbPolygonMeshVertex
 10
1.660735931287888
 20
-438.0000000000001
 30
-1.640735931287865
 70
    64
  0
VERTEX
  5
3A73
330
3A6E
100
AcDbEntity
  8
ACESSORIOS
100
AcDbVertex
100
AcDbPolygonMeshVertex
 10
1.565384757729078
 20
-438.0000000000001
 30
-1.764999999999819
 70
    64
  0
VERTEX
  5
3A74
330
3A6E
100
AcDbEntity
  8
ACESSORIOS
100
AcDbVertex
100
AcDbPolygonMeshVertex
 10
1.505444504226205
 20
-438.0000000000001
 30
-1.909708572938347
 70
    64
  0
VERTEX
  5
3A75
330
3A6E
100
AcDbEntity
  8
ACESSORIOS
100
AcDbVertex
100
AcDbPolygonMeshVertex
 10
1.484999999999615
 20
-438.0000000000001
 30
-2.064999999999907
 70
    64
  0
VERTEX
  5
3A76
330
3A6E
100
AcDbEntity
  8
ACESSORIOS
100
AcDbVertex
100
AcDbPolygonMeshVertex
 10
2.084999999999979
 20
-438.0000000000001
 30
0.0200000000001808
 70
    64
  0
VERTEX
  5
3A77
330
3A6E
100
AcDbEntity
  8
ACESSORIOS
100
AcDbVertex
100
AcDbPolygonMeshVertex
 10
1.545362290961235
 20
-438.0000000000001
 30
-0.0510446521871302
 70
    64
  0
VERTEX
  5
3A78
330
3A6E
100
AcDbEntity
  8
ACESSORIOS
100
AcDbVertex
100
AcDbPolygonMeshVertex
 10
1.04249999999996
 20
-438.0000000000001
 30
-0.2593370331092863
 70
    64
  0
VERTEX
  5
3A79
330
3A6E
100
AcDbEntity
  8
ACESSORIOS
100
AcDbVertex
100
AcDbPolygonMeshVertex
 10
0.6106823612259973
 20
-438.0000000000001
 30
-0.5906823612259089
 70
    64
  0
VERTEX
  5
3A7A
330
3A6E
100
AcDbEntity
  8
ACESSORIOS
100
AcDbVertex
100
AcDbPolygonMeshVertex
 10
0.279337033109357
 20
-438.0000000000001
 30
-1.02249999999988
 70
    64
  0
VERTEX
  5
3A7B
330
3A6E
100
AcDbEntity
  8
ACESSORIOS
100
AcDbVertex
100
AcDbPolygonMeshVertex
 10
0.0710446521872541
 20
-438.0000000000001
 30
-1.52536229096114
 70
    64
  0
VERTEX
  5
3A7C
330
3A6E
100
AcDbEntity
  8
ACESSORIOS
100
AcDbVertex
100
AcDbPolygonMeshVertex
 10
-0.0000000000000568
 20
-438.0000000000001
 30
-2.064999999999907
 70
    64
  0
SEQEND
  5
3D43
330
3A6E
100
AcDbEntity
  8
ACESSORIOS
  0
POLYLINE
  5
3A7E
330
1F
100
AcDbEntity
  8
ACESSORIOS
100
AcDbPolygonMesh
 66
     1
 10
0.0
 20
0.0
 30
0.0
 70
    16
 71
     2
 72
     7
  0
VERTEX
  5
3A7F
330
3A7E
100
AcDbEntity
  8
ACESSORIOS
100
AcDbVertex
100
AcDbPolygonMeshVertex
 10
1.484999999999615
 20
-438.0000000000001
 30
-14.31499999999991
 70
    64
  0
VERTEX
  5
3A80
330
3A7E
100
AcDbEntity
  8
ACESSORIOS
100
AcDbVertex
100
AcDbPolygonMeshVertex
 10
1.505444504226205
 20
-438.0000000000001
 30
-14.47029142706148
 70
    64
  0
VERTEX
  5
3A81
330
3A7E
100
AcDbEntity
  8
ACESSORIOS
100
AcDbVertex
100
AcDbPolygonMeshVertex
 10
1.565384757729078
 20
-438.0000000000001
 30
-14.615
 70
    64
  0
VERTEX
  5
3A82
330
3A7E
100
AcDbEntity
  8
ACESSORIOS
100
AcDbVertex
100
AcDbPolygonMeshVertex
 10
1.660735931287888
 20
-438.0000000000001
 30
-14.73926406871195
 70
    64
  0
VERTEX
  5
3A83
330
3A7E
100
AcDbEntity
  8
ACESSORIOS
100
AcDbVertex
100
AcDbPolygonMeshVertex
 10
1.784999999999798
 20
-438.0000000000001
 30
-14.8346152422707
 70
    64
  0
VERTEX
  5
3A84
330
3A7E
100
AcDbEntity
  8
ACESSORIOS
100
AcDbVertex
100
AcDbPolygonMeshVertex
 10
1.929708572938295
 20
-438.0000000000001
 30
-14.89455549577346
 70
    64
  0
VERTEX
  5
3A85
330
3A7E
100
AcDbEntity
  8
ACESSORIOS
100
AcDbVertex
100
AcDbPolygonMeshVertex
 10
2.084999999999979
 20
-438.0000000000001
 30
-14.91499999999999
 70
    64
  0
VERTEX
  5
3A86
330
3A7E
100
AcDbEntity
  8
ACESSORIOS
100
AcDbVertex
100
AcDbPolygonMeshVertex
 10
-0.0000000000000568
 20
-438.0000000000001
 30
-14.31499999999991
 70
    64
  0
VERTEX
  5
3A87
330
3A7E
100
AcDbEntity
  8
ACESSORIOS
100
AcDbVertex
100
AcDbPolygonMeshVertex
 10
0.0710446521872541
 20
-438.0000000000001
 30
-14.85463770903869
 70
    64
  0
VERTEX
  5
3A88
330
3A7E
100
AcDbEntity
  8
ACESSORIOS
100
AcDbVertex
100
AcDbPolygonMeshVertex
 10
0.279337033109357
 20
-438.0000000000001
 30
-15.35749999999995
 70
    64
  0
VERTEX
  5
3A89
330
3A7E
100
AcDbEntity
  8
ACESSORIOS
100
AcDbVertex
100
AcDbPolygonMeshVertex
 10
0.6106823612259973
 20
-438.0000000000001
 30
-15.78931763877392
 70
    64
  0
VERTEX
  5
3A8A
330
3A7E
100
AcDbEntity
  8
ACESSORIOS
100
AcDbVertex
100
AcDbPolygonMeshVertex
 10
1.04249999999996
 20
-438.0000000000001
 30
-16.12066296689053
 70
    64
  0
VERTEX
  5
3A8B
330
3A7E
100
AcDbEntity
  8
ACESSORIOS
100
AcDbVertex
100
AcDbPolygonMeshVertex
 10
1.545362290961235
 20
-438.0000000000001
 30
-16.3289553478127
 70
    64
  0
VERTEX
  5
3A8C
330
3A7E
100
AcDbEntity
  8
ACESSORIOS
100
AcDbVertex
100
AcDbPolygonMeshVertex
 10
2.084999999999979
 20
-438.0000000000001
 30
-16.4
 70
    64
  0
SEQEND
  5
3D44
330
3A7E
100
AcDbEntity
  8
ACESSORIOS
  0
POLYLINE
  5
3A8E
330
1F
100
AcDbEntity
  8
ACESSORIOS
100
AcDbPolygonMesh
 66
     1
 10
0.0
 20
0.0
 30
0.0
 70
    16
 71
     2
 72
     7
  0
VERTEX
  5
3A8F
330
3A8E
100
AcDbEntity
  8
ACESSORIOS
100
AcDbVertex
100
AcDbPolygonMeshVertex
 10
2.085000000000035
 20
0.0
 30
-1.464999999999829
 70
    64
  0
VERTEX
  5
3A90
330
3A8E
100
AcDbEntity
  8
ACESSORIOS
100
AcDbVertex
100
AcDbPolygonMeshVertex
 10
1.929708572938353
 20
0.0
 30
-1.485444504226359
 70
    64
  0
VERTEX
  5
3A91
330
3A8E
100
AcDbEntity
  8
ACESSORIOS
100
AcDbVertex
100
AcDbPolygonMeshVertex
 10
1.784999999999854
 20
0.0
 30
-1.545384757729127
 70
    64
  0
VERTEX
  5
3A92
330
3A8E
100
AcDbEntity
  8
ACESSORIOS
100
AcDbVertex
100
AcDbPolygonMeshVertex
 10
1.660735931287945
 20
0.0
 30
-1.640735931287865
 70
    64
  0
VERTEX
  5
3A93
330
3A8E
100
AcDbEntity
  8
ACESSORIOS
100
AcDbVertex
100
AcDbPolygonMeshVertex
 10
1.565384757729133
 20
0.0
 30
-1.764999999999819
 70
    64
  0
VERTEX
  5
3A94
330
3A8E
100
AcDbEntity
  8
ACESSORIOS
100
AcDbVertex
100
AcDbPolygonMeshVertex
 10
1.50544450422626
 20
0.0
 30
-1.909708572938347
 70
    64
  0
VERTEX
  5
3A95
330
3A8E
100
AcDbEntity
  8
ACESSORIOS
100
AcDbVertex
100
AcDbPolygonMeshVertex
 10
1.484999999999673
 20
0.0
 30
-2.064999999999907
 70
    64
  0
VERTEX
  5
3A96
330
3A8E
100
AcDbEntity
  8
ACESSORIOS
100
AcDbVertex
100
AcDbPolygonMeshVertex
 10
2.084999999999979
 20
-438.0000000000001
 30
-1.464999999999829
 70
    64
  0
VERTEX
  5
3A97
330
3A8E
100
AcDbEntity
  8
ACESSORIOS
100
AcDbVertex
100
AcDbPolygonMeshVertex
 10
1.929708572938295
 20
-438.0000000000001
 30
-1.485444504226359
 70
    64
  0
VERTEX
  5
3A98
330
3A8E
100
AcDbEntity
  8
ACESSORIOS
100
AcDbVertex
100
AcDbPolygonMeshVertex
 10
1.784999999999798
 20
-438.0000000000001
 30
-1.545384757729127
 70
    64
  0
VERTEX
  5
3A99
330
3A8E
100
AcDbEntity
  8
ACESSORIOS
100
AcDbVertex
100
AcDbPolygonMeshVertex
 10
1.660735931287888
 20
-438.0000000000001
 30
-1.640735931287865
 70
    64
  0
VERTEX
  5
3A9A
330
3A8E
100
AcDbEntity
  8
ACESSORIOS
100
AcDbVertex
100
AcDbPolygonMeshVertex
 10
1.565384757729078
 20
-438.0000000000001
 30
-1.764999999999819
 70
    64
  0
VERTEX
  5
3A9B
330
3A8E
100
AcDbEntity
  8
ACESSORIOS
100
AcDbVertex
100
AcDbPolygonMeshVertex
 10
1.505444504226205
 20
-438.0000000000001
 30
-1.909708572938347
 70
    64
  0
VERTEX
  5
3A9C
330
3A8E
100
AcDbEntity
  8
ACESSORIOS
100
AcDbVertex
100
AcDbPolygonMeshVertex
 10
1.484999999999615
 20
-438.0000000000001
 30
-2.064999999999907
 70
    64
  0
SEQEND
  5
3D45
330
3A8E
100
AcDbEntity
  8
ACESSORIOS
  0
POLYLINE
  5
3A9E
330
1F
100
AcDbEntity
  8
ACESSORIOS
100
AcDbPolygonMesh
 66
     1
 10
0.0
 20
0.0
 30
0.0
 70
    16
 71
     2
 72
     7
  0
VERTEX
  5
3A9F
330
3A9E
100
AcDbEntity
  8
ACESSORIOS
100
AcDbVertex
100
AcDbPolygonMeshVertex
 10
2.084999999999979
 20
-438.0000000000001
 30
0.0200000000001808
 70
    64
  0
VERTEX
  5
3AA0
330
3A9E
100
AcDbEntity
  8
ACESSORIOS
100
AcDbVertex
100
AcDbPolygonMeshVertex
 10
1.545362290961235
 20
-438.0000000000001
 30
-0.0510446521871302
 70
    64
  0
VERTEX
  5
3AA1
330
3A9E
100
AcDbEntity
  8
ACESSORIOS
100
AcDbVertex
100
AcDbPolygonMeshVertex
 10
1.04249999999996
 20
-438.0000000000001
 30
-0.2593370331092863
 70
    64
  0
VERTEX
  5
3AA2
330
3A9E
100
AcDbEntity
  8
ACESSORIOS
100
AcDbVertex
100
AcDbPolygonMeshVertex
 10
0.6106823612259973
 20
-438.0000000000001
 30
-0.5906823612259089
 70
    64
  0
VERTEX
  5
3AA3
330
3A9E
100
AcDbEntity
  8
ACESSORIOS
100
AcDbVertex
100
AcDbPolygonMeshVertex
 10
0.279337033109357
 20
-438.0000000000001
 30
-1.02249999999988
 70
    64
  0
VERTEX
  5
3AA4
330
3A9E
100
AcDbEntity
  8
ACESSORIOS
100
AcDbVertex
100
AcDbPolygonMeshVertex
 10
0.0710446521872541
 20
-438.0000000000001
 30
-1.52536229096114
 70
    64
  0
VERTEX
  5
3AA5
330
3A9E
100
AcDbEntity
  8
ACESSORIOS
100
AcDbVertex
100
AcDbPolygonMeshVertex
 10
-0.0000000000000568
 20
-438.0000000000001
 30
-2.064999999999907
 70
    64
  0
VERTEX
  5
3AA6
330
3A9E
100
AcDbEntity
  8
ACESSORIOS
100
AcDbVertex
100
AcDbPolygonMeshVertex
 10
2.085000000000035
 20
0.0
 30
0.0200000000001808
 70
    64
  0
VERTEX
  5
3AA7
330
3A9E
100
AcDbEntity
  8
ACESSORIOS
100
AcDbVertex
100
AcDbPolygonMeshVertex
 10
1.545362290961293
 20
0.0
 30
-0.0510446521871302
 70
    64
  0
VERTEX
  5
3AA8
330
3A9E
100
AcDbEntity
  8
ACESSORIOS
100
AcDbVertex
100
AcDbPolygonMeshVertex
 10
1.042500000000017
 20
0.0
 30
-0.2593370331092863
 70
    64
  0
VERTEX
  5
3AA9
330
3A9E
100
AcDbEntity
  8
ACESSORIOS
100
AcDbVertex
100
AcDbPolygonMeshVertex
 10
0.6106823612260542
 20
0.0
 30
-0.5906823612259089
 70
    64
  0
VERTEX
  5
3AAA
330
3A9E
100
AcDbEntity
  8
ACESSORIOS
100
AcDbVertex
100
AcDbPolygonMeshVertex
 10
0.2793370331094138
 20
0.0
 30
-1.02249999999988
 70
    64
  0
VERTEX
  5
3AAB
330
3A9E
100
AcDbEntity
  8
ACESSORIOS
100
AcDbVertex
100
AcDbPolygonMeshVertex
 10
0.0710446521873109
 20
0.0
 30
-1.52536229096114
 70
    64
  0
VERTEX
  5
3AAC
330
3A9E
100
AcDbEntity
  8
ACESSORIOS
100
AcDbVertex
100
AcDbPolygonMeshVertex
 10
0.0
 20
0.0
 30
-2.064999999999907
 70
    64
  0
SEQEND
  5
3D46
330
3A9E
100
AcDbEntity
  8
ACESSORIOS
  0
POLYLINE
  5
3AAE
330
1F
100
AcDbEntity
  8
ACESSORIOS
100
AcDbPolygonMesh
 66
     1
 10
0.0
 20
0.0
 30
0.0
 70
    16
 71
     2
 72
     7
  0
VERTEX
  5
3AAF
330
3AAE
100
AcDbEntity
  8
ACESSORIOS
100
AcDbVertex
100
AcDbPolygonMeshVertex
 10
15.96500000000015
 20
0.0
 30
-1.464999999999918
 70
    64
  0
VERTEX
  5
3AB0
330
3AAE
100
AcDbEntity
  8
ACESSORIOS
100
AcDbVertex
100
AcDbPolygonMeshVertex
 10
16.1202914270616
 20
0.0
 30
-1.485444504226499
 70
    64
  0
VERTEX
  5
3AB1
330
3AAE
100
AcDbEntity
  8
ACESSORIOS
100
AcDbVertex
100
AcDbPolygonMeshVertex
 10
16.2650000000001
 20
0.0
 30
-1.545384757729287
 70
    64
  0
VERTEX
  5
3AB2
330
3AAE
100
AcDbEntity
  8
ACESSORIOS
100
AcDbVertex
100
AcDbPolygonMeshVertex
 10
16.38926406871201
 20
0.0
 30
-1.640735931288029
 70
    64
  0
VERTEX
  5
3AB3
330
3AAE
100
AcDbEntity
  8
ACESSORIOS
100
AcDbVertex
100
AcDbPolygonMeshVertex
 10
16.48461524227082
 20
0.0
 30
-1.764999999999949
 70
    64
  0
VERTEX
  5
3AB4
330
3AAE
100
AcDbEntity
  8
ACESSORIOS
100
AcDbVertex
100
AcDbPolygonMeshVertex
 10
16.54455549577347
 20
0.0
 30
-1.909708572938418
 70
    64
  0
VERTEX
  5
3AB5
330
3AAE
100
AcDbEntity
  8
ACESSORIOS
100
AcDbVertex
100
AcDbPolygonMeshVertex
 10
16.56500000000005
 20
0.0
 30
-2.064999999999907
 70
    64
  0
VERTEX
  5
3AB6
330
3AAE
100
AcDbEntity
  8
ACESSORIOS
100
AcDbVertex
100
AcDbPolygonMeshVertex
 10
15.96500000000009
 20
-438.0000000000001
 30
-1.464999999999918
 70
    64
  0
VERTEX
  5
3AB7
330
3AAE
100
AcDbEntity
  8
ACESSORIOS
100
AcDbVertex
100
AcDbPolygonMeshVertex
 10
16.12029142706155
 20
-438.0000000000001
 30
-1.485444504226499
 70
    64
  0
VERTEX
  5
3AB8
330
3AAE
100
AcDbEntity
  8
ACESSORIOS
100
AcDbVertex
100
AcDbPolygonMeshVertex
 10
16.26500000000004
 20
-438.0000000000001
 30
-1.545384757729287
 70
    64
  0
VERTEX
  5
3AB9
330
3AAE
100
AcDbEntity
  8
ACESSORIOS
100
AcDbVertex
100
AcDbPolygonMeshVertex
 10
16.38926406871195
 20
-438.0000000000001
 30
-1.640735931288029
 70
    64
  0
VERTEX
  5
3ABA
330
3AAE
100
AcDbEntity
  8
ACESSORIOS
100
AcDbVertex
100
AcDbPolygonMeshVertex
 10
16.48461524227054
 20
-438.0000000000001
 30
-1.764999999999949
 70
    64
  0
VERTEX
  5
3ABB
330
3AAE
100
AcDbEntity
  8
ACESSORIOS
100
AcDbVertex
100
AcDbPolygonMeshVertex
 10
16.54455549577341
 20
-438.0000000000001
 30
-1.909708572938418
 70
    64
  0
VERTEX
  5
3ABC
330
3AAE
100
AcDbEntity
  8
ACESSORIOS
100
AcDbVertex
100
AcDbPolygonMeshVertex
 10
16.565
 20
-438.0000000000001
 30
-2.064999999999907
 70
    64
  0
SEQEND
  5
3D47
330
3AAE
100
AcDbEntity
  8
ACESSORIOS
  0
POLYLINE
  5
3ABE
330
1F
100
AcDbEntity
  8
ACESSORIOS
100
AcDbPolygonMesh
 66
     1
 10
0.0
 20
0.0
 30
0.0
 70
    16
 71
     2
 72
     7
  0
VERTEX
  5
3ABF
330
3ABE
100
AcDbEntity
  8
ACESSORIOS
100
AcDbVertex
100
AcDbPolygonMeshVertex
 10
15.96500000000009
 20
-438.0000000000001
 30
0.0200000000000706
 70
    64
  0
VERTEX
  5
3AC0
330
3ABE
100
AcDbEntity
  8
ACESSORIOS
100
AcDbVertex
100
AcDbPolygonMeshVertex
 10
16.50463770903883
 20
-438.0000000000001
 30
-0.0510446521872297
 70
    64
  0
VERTEX
  5
3AC1
330
3ABE
100
AcDbEntity
  8
ACESSORIOS
100
AcDbVertex
100
AcDbPolygonMeshVertex
 10
17.00750000000011
 20
-438.0000000000001
 30
-0.2593370331093787
 70
    64
  0
VERTEX
  5
3AC2
330
3ABE
100
AcDbEntity
  8
ACESSORIOS
100
AcDbVertex
100
AcDbPolygonMeshVertex
 10
17.43931763877407
 20
-438.0000000000001
 30
-0.5906823612259782
 70
    64
  0
VERTEX
  5
3AC3
330
3ABE
100
AcDbEntity
  8
ACESSORIOS
100
AcDbVertex
100
AcDbPolygonMeshVertex
 10
17.77066296689071
 20
-438.0000000000001
 30
-1.022499999999929
 70
    64
  0
VERTEX
  5
3AC4
330
3ABE
100
AcDbEntity
  8
ACESSORIOS
100
AcDbVertex
100
AcDbPolygonMeshVertex
 10
17.97895534781281
 20
-438.0000000000001
 30
-1.525362290961169
 70
    64
  0
VERTEX
  5
3AC5
330
3ABE
100
AcDbEntity
  8
ACESSORIOS
100
AcDbVertex
100
AcDbPolygonMeshVertex
 10
18.05000000000013
 20
-438.0000000000001
 30
-2.064999999999907
 70
    64
  0
VERTEX
  5
3AC6
330
3ABE
100
AcDbEntity
  8
ACESSORIOS
100
AcDbVertex
100
AcDbPolygonMeshVertex
 10
15.96500000000015
 20
0.0
 30
0.0200000000000706
 70
    64
  0
VERTEX
  5
3AC7
330
3ABE
100
AcDbEntity
  8
ACESSORIOS
100
AcDbVertex
100
AcDbPolygonMeshVertex
 10
16.50463770903889
 20
0.0
 30
-0.0510446521872297
 70
    64
  0
VERTEX
  5
3AC8
330
3ABE
100
AcDbEntity
  8
ACESSORIOS
100
AcDbVertex
100
AcDbPolygonMeshVertex
 10
17.00750000000016
 20
0.0
 30
-0.2593370331093787
 70
    64
  0
VERTEX
  5
3AC9
330
3ABE
100
AcDbEntity
  8
ACESSORIOS
100
AcDbVertex
100
AcDbPolygonMeshVertex
 10
17.43931763877413
 20
0.0
 30
-0.5906823612259782
 70
    64
  0
VERTEX
  5
3ACA
330
3ABE
100
AcDbEntity
  8
ACESSORIOS
100
AcDbVertex
100
AcDbPolygonMeshVertex
 10
17.77066296689077
 20
0.0
 30
-1.022499999999929
 70
    64
  0
VERTEX
  5
3ACB
330
3ABE
100
AcDbEntity
  8
ACESSORIOS
100
AcDbVertex
100
AcDbPolygonMeshVertex
 10
17.97895534781287
 20
0.0
 30
-1.525362290961169
 70
    64
  0
VERTEX
  5
3ACC
330
3ABE
100
AcDbEntity
  8
ACESSORIOS
100
AcDbVertex
100
AcDbPolygonMeshVertex
 10
18.05000000000018
 20
0.0
 30
-2.064999999999907
 70
    64
  0
SEQEND
  5
3D48
330
3ABE
100
AcDbEntity
  8
ACESSORIOS
  0
POLYLINE
  5
3ADE
330
1F
100
AcDbEntity
  8
ACESSORIOS
100
AcDbPolygonMesh
 66
     1
 10
0.0
 20
0.0
 30
0.0
 70
    16
 71
     2
 72
     7
  0
VERTEX
  5
3ADF
330
3ADE
100
AcDbEntity
  8
ACESSORIOS
100
AcDbVertex
100
AcDbPolygonMeshVertex
 10
-0.0000000000000568
 20
-438.0000000000001
 30
-14.31499999999991
 70
    64
  0
VERTEX
  5
3AE0
330
3ADE
100
AcDbEntity
  8
ACESSORIOS
100
AcDbVertex
100
AcDbPolygonMeshVertex
 10
0.0710446521872541
 20
-438.0000000000001
 30
-14.85463770903869
 70
    64
  0
VERTEX
  5
3AE1
330
3ADE
100
AcDbEntity
  8
ACESSORIOS
100
AcDbVertex
100
AcDbPolygonMeshVertex
 10
0.279337033109357
 20
-438.0000000000001
 30
-15.35749999999995
 70
    64
  0
VERTEX
  5
3AE2
330
3ADE
100
AcDbEntity
  8
ACESSORIOS
100
AcDbVertex
100
AcDbPolygonMeshVertex
 10
0.6106823612259973
 20
-438.0000000000001
 30
-15.78931763877392
 70
    64
  0
VERTEX
  5
3AE3
330
3ADE
100
AcDbEntity
  8
ACESSORIOS
100
AcDbVertex
100
AcDbPolygonMeshVertex
 10
1.04249999999996
 20
-438.0000000000001
 30
-16.12066296689053
 70
    64
  0
VERTEX
  5
3AE4
330
3ADE
100
AcDbEntity
  8
ACESSORIOS
100
AcDbVertex
100
AcDbPolygonMeshVertex
 10
1.545362290961235
 20
-438.0000000000001
 30
-16.3289553478127
 70
    64
  0
VERTEX
  5
3AE5
330
3ADE
100
AcDbEntity
  8
ACESSORIOS
100
AcDbVertex
100
AcDbPolygonMeshVertex
 10
2.084999999999979
 20
-438.0000000000001
 30
-16.4
 70
    64
  0
VERTEX
  5
3AE6
330
3ADE
100
AcDbEntity
  8
ACESSORIOS
100
AcDbVertex
100
AcDbPolygonMeshVertex
 10
0.0
 20
0.0
 30
-14.31499999999991
 70
    64
  0
VERTEX
  5
3AE7
330
3ADE
100
AcDbEntity
  8
ACESSORIOS
100
AcDbVertex
100
AcDbPolygonMeshVertex
 10
0.0710446521873109
 20
0.0
 30
-14.85463770903869
 70
    64
  0
VERTEX
  5
3AE8
330
3ADE
100
AcDbEntity
  8
ACESSORIOS
100
AcDbVertex
100
AcDbPolygonMeshVertex
 10
0.2793370331094138
 20
0.0
 30
-15.35749999999995
 70
    64
  0
VERTEX
  5
3AE9
330
3ADE
100
AcDbEntity
  8
ACESSORIOS
100
AcDbVertex
100
AcDbPolygonMeshVertex
 10
0.6106823612260542
 20
0.0
 30
-15.78931763877392
 70
    64
  0
VERTEX
  5
3AEA
330
3ADE
100
AcDbEntity
  8
ACESSORIOS
100
AcDbVertex
100
AcDbPolygonMeshVertex
 10
1.042500000000017
 20
0.0
 30
-16.12066296689053
 70
    64
  0
VERTEX
  5
3AEB
330
3ADE
100
AcDbEntity
  8
ACESSORIOS
100
AcDbVertex
100
AcDbPolygonMeshVertex
 10
1.545362290961293
 20
0.0
 30
-16.3289553478127
 70
    64
  0
VERTEX
  5
3AEC
330
3ADE
100
AcDbEntity
  8
ACESSORIOS
100
AcDbVertex
100
AcDbPolygonMeshVertex
 10
2.085000000000035
 20
0.0
 30
-16.4
 70
    64
  0
SEQEND
  5
3D49
330
3ADE
100
AcDbEntity
  8
ACESSORIOS
  0
3DFACE
  5
3AEE
330
1F
100
AcDbEntity
  8
ACESSORIOS
100
AcDbFace
 10
1.485000000000126
 20
0.0
 30
-2.064999999999907
 11
1.484999999999673
 21
0.0
 31
-14.31499999999991
 12
1.484999999999615
 22
-438.0000000000001
 32
-14.31499999999991
 13
1.48500000000007
 23
-438.0000000000001
 33
-2.064999999999907
  0
3DFACE
  5
3AEF
330
1F
100
AcDbEntity
  8
ACESSORIOS
100
AcDbFace
 10
0.0000000000002274
 20
0.0
 30
-2.064999999999907
 11
-0.0000000000002274
 21
0.0
 31
-14.31499999999991
 12
-0.0000000000002842
 22
-438.0000000000001
 32
-14.31499999999991
 13
0.0000000000001705
 23
-438.0000000000001
 33
-2.064999999999907
  0
3DFACE
  5
3AF0
330
1F
100
AcDbEntity
  8
ACESSORIOS
100
AcDbFace
 10
8.699999999999761
 20
-438.0000000000001
 30
-14.91499999999993
 11
8.699999999999818
 21
0.0
 31
-14.91499999999993
 12
2.085000000000035
 22
0.0
 32
-14.91499999999999
 13
2.084999999999979
 23
-438.0000000000001
 33
-14.91499999999999
  0
3DFACE
  5
3AF1
330
1F
100
AcDbEntity
  8
ACESSORIOS
100
AcDbFace
 10
8.699999999999761
 20
-438.0000000000001
 30
-16.39999999999991
 11
8.699999999999818
 21
0.0
 31
-16.39999999999991
 12
2.085000000000035
 22
0.0
 32
-16.39999999999998
 13
2.084999999999979
 23
-438.0000000000001
 33
-16.39999999999998
  0
3DFACE
  5
3AF2
330
1F
100
AcDbEntity
  8
ACESSORIOS
100
AcDbFace
 10
8.699999999999761
 20
-438.0000000000001
 30
-16.39999999999991
 11
8.699999999999761
 21
-438.0000000000001
 31
-14.91499999999993
 12
8.699999999999818
 22
0.0
 32
-14.91499999999993
 13
8.699999999999818
 23
0.0
 33
-16.39999999999991
  0
3DFACE
  5
3AF3
330
1F
100
AcDbEntity
  8
ACESSORIOS
100
AcDbFace
 10
16.56500000000005
 20
0.0
 30
-16.17999999999992
 11
16.565
 21
-438.0000000000001
 31
-16.17999999999992
 12
18.04999999999967
 22
-438.0000000000001
 32
-16.17999999999992
 13
18.04999999999973
 23
0.0
 33
-16.17999999999992
  0
3DFACE
  5
3AF4
330
1F
100
AcDbEntity
  8
ACESSORIOS
100
AcDbFace
 10
16.56500000000005
 20
0.0
 30
-2.064999999999907
 11
16.56500000000005
 21
0.0
 31
-16.17999999999992
 12
16.565
 22
-438.0000000000001
 32
-16.17999999999992
 13
16.565
 23
-438.0000000000001
 33
-2.064999999999907
  0
3DFACE
  5
3AF5
330
1F
100
AcDbEntity
  8
ACESSORIOS
100
AcDbFace
 10
18.04999999999973
 20
0.0
 30
-2.064999999999907
 11
18.04999999999973
 21
0.0
 31
-16.17999999999992
 12
18.04999999999967
 22
-438.0000000000001
 32
-16.17999999999992
 13
18.04999999999967
 23
-438.0000000000001
 33
-2.064999999999907
  0
3DFACE
  5
3AF6
330
1F
100
AcDbEntity
  8
ACESSORIOS
100
AcDbFace
 10
15.96500000000009
 20
-438.0000000000001
 30
0.0200000000000706
 11
2.084999999999979
 21
-438.0000000000001
 31
0.020000000000092
 12
2.085000000000035
 22
0.0
 32
0.020000000000092
 13
15.96500000000015
 23
0.0
 33
0.0200000000000706
  0
3DFACE
  5
3AF7
330
1F
100
AcDbEntity
  8
ACESSORIOS
100
AcDbFace
 10
15.96500000000009
 20
-438.0000000000001
 30
-1.464999999999928
 11
2.084999999999979
 21
-438.0000000000001
 31
-1.464999999999907
 12
2.085000000000035
 22
0.0
 32
-1.464999999999907
 13
15.96500000000015
 23
0.0
 33
-1.464999999999928
  0
3DFACE
  5
3B2D
330
1F
100
AcDbEntity
  8
ACESSORIOS
100
AcDbFace
 10
136.7972897366706
 20
0.0000000000000142
 30
-1.464999999999918
 11
122.9172897366705
 21
0.0000000000000142
 31
-1.464999999999918
 12
122.9172897366705
 22
0.0000000000000142
 32
0.0200000000000706
 13
136.7972897366706
 23
0.0000000000000142
 33
0.020000000000092
  0
3DFACE
  5
3B2E
330
1F
100
AcDbEntity
  8
ACESSORIOS
100
AcDbFace
 10
137.3972897366705
 20
0.0000000000000142
 30
-2.064999999999907
 11
138.8822897366706
 21
0.0000000000000142
 31
-2.064999999999907
 12
138.8822897366706
 22
0.0000000000000142
 32
-14.31499999999991
 13
137.3972897366709
 23
0.0000000000000142
 33
-14.31499999999991
  0
3DFACE
  5
3B2F
330
1F
100
AcDbEntity
  8
ACESSORIOS
100
AcDbFace
 10
122.3172897366706
 20
0.0000000000000142
 30
-16.17999999999992
 11
120.8322897366709
 21
0.0000000000000142
 31
-16.17999999999992
 12
120.8322897366704
 22
0.0000000000000142
 32
-2.064999999999907
 13
122.3172897366706
 23
0.0000000000000142
 33
-2.064999999999907
  0
3DFACE
  5
3B30
330
1F
100
AcDbEntity
  8
ACESSORIOS
100
AcDbFace
 10
130.1822897366708
 20
0.0000000000000142
 30
-16.39999999999991
 11
130.1822897366708
 21
0.0000000000000142
 31
-14.91499999999993
 12
136.7972897366706
 22
0.0000000000000142
 32
-14.91499999999999
 13
136.7972897366706
 23
0.0000000000000142
 33
-16.4
  0
POLYLINE
  5
3B31
330
1F
100
AcDbEntity
  8
ACESSORIOS
100
AcDbPolygonMesh
 66
     1
 10
0.0
 20
0.0
 30
0.0
 70
    16
 71
     2
 72
     7
  0
VERTEX
  5
3B32
330
3B31
100
AcDbEntity
  8
ACESSORIOS
100
AcDbVertex
100
AcDbPolygonMeshVertex
 10
122.3172897366706
 20
0.0000000000000142
 30
-2.064999999999907
 70
    64
  0
VERTEX
  5
3B33
330
3B31
100
AcDbEntity
  8
ACESSORIOS
100
AcDbVertex
100
AcDbPolygonMeshVertex
 10
122.3377342408972
 20
0.0000000000000142
 30
-1.909708572938418
 70
    64
  0
VERTEX
  5
3B34
330
3B31
100
AcDbEntity
  8
ACESSORIOS
100
AcDbVertex
100
AcDbPolygonMeshVertex
 10
122.3976744943998
 20
0.0000000000000142
 30
-1.764999999999949
 70
    64
  0
VERTEX
  5
3B35
330
3B31
100
AcDbEntity
  8
ACESSORIOS
100
AcDbVertex
100
AcDbPolygonMeshVertex
 10
122.4930256679586
 20
0.0000000000000142
 30
-1.640735931288029
 70
    64
  0
VERTEX
  5
3B36
330
3B31
100
AcDbEntity
  8
ACESSORIOS
100
AcDbVertex
100
AcDbPolygonMeshVertex
 10
122.6172897366705
 20
0.0000000000000142
 30
-1.545384757729287
 70
    64
  0
VERTEX
  5
3B37
330
3B31
100
AcDbEntity
  8
ACESSORIOS
100
AcDbVertex
100
AcDbPolygonMeshVertex
 10
122.761998309609
 20
0.0000000000000142
 30
-1.485444504226499
 70
    64
  0
VERTEX
  5
3B38
330
3B31
100
AcDbEntity
  8
ACESSORIOS
100
AcDbVertex
100
AcDbPolygonMeshVertex
 10
122.9172897366705
 20
0.0000000000000142
 30
-1.464999999999918
 70
    64
  0
VERTEX
  5
3B39
330
3B31
100
AcDbEntity
  8
ACESSORIOS
100
AcDbVertex
100
AcDbPolygonMeshVertex
 10
120.8322897366704
 20
0.0000000000000142
 30
-2.064999999999907
 70
    64
  0
VERTEX
  5
3B3A
330
3B31
100
AcDbEntity
  8
ACESSORIOS
100
AcDbVertex
100
AcDbPolygonMeshVertex
 10
120.9033343888578
 20
0.0000000000000142
 30
-1.525362290961169
 70
    64
  0
VERTEX
  5
3B3B
330
3B31
100
AcDbEntity
  8
ACESSORIOS
100
AcDbVertex
100
AcDbPolygonMeshVertex
 10
121.1116267697799
 20
0.0000000000000142
 30
-1.022499999999929
 70
    64
  0
VERTEX
  5
3B3C
330
3B31
100
AcDbEntity
  8
ACESSORIOS
100
AcDbVertex
100
AcDbPolygonMeshVertex
 10
121.4429720978965
 20
0.0000000000000142
 30
-0.5906823612259782
 70
    64
  0
VERTEX
  5
3B3D
330
3B31
100
AcDbEntity
  8
ACESSORIOS
100
AcDbVertex
100
AcDbPolygonMeshVertex
 10
121.8747897366705
 20
0.0000000000000142
 30
-0.2593370331093787
 70
    64
  0
VERTEX
  5
3B3E
330
3B31
100
AcDbEntity
  8
ACESSORIOS
100
AcDbVertex
100
AcDbPolygonMeshVertex
 10
122.3776520276317
 20
0.0000000000000142
 30
-0.0510446521872297
 70
    64
  0
VERTEX
  5
3B3F
330
3B31
100
AcDbEntity
  8
ACESSORIOS
100
AcDbVertex
100
AcDbPolygonMeshVertex
 10
122.9172897366705
 20
0.0000000000000142
 30
0.0200000000000706
 70
    64
  0
SEQEND
  5
3D4A
330
3B31
100
AcDbEntity
  8
ACESSORIOS
  0
POLYLINE
  5
3B41
330
1F
100
AcDbEntity
  8
ACESSORIOS
100
AcDbPolygonMesh
 66
     1
 10
0.0
 20
0.0
 30
0.0
 70
    16
 71
     2
 72
     7
  0
VERTEX
  5
3B42
330
3B41
100
AcDbEntity
  8
ACESSORIOS
100
AcDbVertex
100
AcDbPolygonMeshVertex
 10
136.7972897366706
 20
0.0000000000000142
 30
-1.464999999999829
 70
    64
  0
VERTEX
  5
3B43
330
3B41
100
AcDbEntity
  8
ACESSORIOS
100
AcDbVertex
100
AcDbPolygonMeshVertex
 10
136.9525811637322
 20
0.0000000000000142
 30
-1.485444504226359
 70
    64
  0
VERTEX
  5
3B44
330
3B41
100
AcDbEntity
  8
ACESSORIOS
100
AcDbVertex
100
AcDbPolygonMeshVertex
 10
137.0972897366707
 20
0.0000000000000142
 30
-1.545384757729127
 70
    64
  0
VERTEX
  5
3B45
330
3B41
100
AcDbEntity
  8
ACESSORIOS
100
AcDbVertex
100
AcDbPolygonMeshVertex
 10
137.2215538053827
 20
0.0000000000000142
 30
-1.640735931287865
 70
    64
  0
VERTEX
  5
3B46
330
3B41
100
AcDbEntity
  8
ACESSORIOS
100
AcDbVertex
100
AcDbPolygonMeshVertex
 10
137.3169049789415
 20
0.0000000000000142
 30
-1.764999999999819
 70
    64
  0
VERTEX
  5
3B47
330
3B41
100
AcDbEntity
  8
ACESSORIOS
100
AcDbVertex
100
AcDbPolygonMeshVertex
 10
137.3768452324443
 20
0.0000000000000142
 30
-1.909708572938347
 70
    64
  0
VERTEX
  5
3B48
330
3B41
100
AcDbEntity
  8
ACESSORIOS
100
AcDbVertex
100
AcDbPolygonMeshVertex
 10
137.3972897366709
 20
0.0000000000000142
 30
-2.064999999999907
 70
    64
  0
VERTEX
  5
3B49
330
3B41
100
AcDbEntity
  8
ACESSORIOS
100
AcDbVertex
100
AcDbPolygonMeshVertex
 10
136.7972897366706
 20
0.0000000000000142
 30
0.0200000000001808
 70
    64
  0
VERTEX
  5
3B4A
330
3B41
100
AcDbEntity
  8
ACESSORIOS
100
AcDbVertex
100
AcDbPolygonMeshVertex
 10
137.3369274457093
 20
0.0000000000000142
 30
-0.0510446521871302
 70
    64
  0
VERTEX
  5
3B4B
330
3B41
100
AcDbEntity
  8
ACESSORIOS
100
AcDbVertex
100
AcDbPolygonMeshVertex
 10
137.8397897366706
 20
0.0000000000000142
 30
-0.2593370331092863
 70
    64
  0
VERTEX
  5
3B4C
330
3B41
100
AcDbEntity
  8
ACESSORIOS
100
AcDbVertex
100
AcDbPolygonMeshVertex
 10
138.2716073754445
 20
0.0000000000000142
 30
-0.5906823612259089
 70
    64
  0
VERTEX
  5
3B4D
330
3B41
100
AcDbEntity
  8
ACESSORIOS
100
AcDbVertex
100
AcDbPolygonMeshVertex
 10
138.6029527035612
 20
0.0000000000000142
 30
-1.02249999999988
 70
    64
  0
VERTEX
  5
3B4E
330
3B41
100
AcDbEntity
  8
ACESSORIOS
100
AcDbVertex
100
AcDbPolygonMeshVertex
 10
138.8112450844833
 20
0.0000000000000142
 30
-1.52536229096114
 70
    64
  0
VERTEX
  5
3B4F
330
3B41
100
AcDbEntity
  8
ACESSORIOS
100
AcDbVertex
100
AcDbPolygonMeshVertex
 10
138.8822897366706
 20
0.0000000000000142
 30
-2.064999999999907
 70
    64
  0
SEQEND
  5
3D4B
330
3B41
100
AcDbEntity
  8
ACESSORIOS
  0
POLYLINE
  5
3B51
330
1F
100
AcDbEntity
  8
ACESSORIOS
100
AcDbPolygonMesh
 66
     1
 10
0.0
 20
0.0
 30
0.0
 70
    16
 71
     2
 72
     7
  0
VERTEX
  5
3B52
330
3B51
100
AcDbEntity
  8
ACESSORIOS
100
AcDbVertex
100
AcDbPolygonMeshVertex
 10
137.3972897366709
 20
0.0000000000000142
 30
-14.31499999999991
 70
    64
  0
VERTEX
  5
3B53
330
3B51
100
AcDbEntity
  8
ACESSORIOS
100
AcDbVertex
100
AcDbPolygonMeshVertex
 10
137.3768452324443
 20
0.0000000000000142
 30
-14.47029142706148
 70
    64
  0
VERTEX
  5
3B54
330
3B51
100
AcDbEntity
  8
ACESSORIOS
100
AcDbVertex
100
AcDbPolygonMeshVertex
 10
137.3169049789415
 20
0.0000000000000142
 30
-14.615
 70
    64
  0
VERTEX
  5
3B55
330
3B51
100
AcDbEntity
  8
ACESSORIOS
100
AcDbVertex
100
AcDbPolygonMeshVertex
 10
137.2215538053827
 20
0.0000000000000142
 30
-14.73926406871195
 70
    64
  0
VERTEX
  5
3B56
330
3B51
100
AcDbEntity
  8
ACESSORIOS
100
AcDbVertex
100
AcDbPolygonMeshVertex
 10
137.0972897366707
 20
0.0000000000000142
 30
-14.8346152422707
 70
    64
  0
VERTEX
  5
3B57
330
3B51
100
AcDbEntity
  8
ACESSORIOS
100
AcDbVertex
100
AcDbPolygonMeshVertex
 10
136.9525811637322
 20
0.0000000000000142
 30
-14.89455549577346
 70
    64
  0
VERTEX
  5
3B58
330
3B51
100
AcDbEntity
  8
ACESSORIOS
100
AcDbVertex
100
AcDbPolygonMeshVertex
 10
136.7972897366706
 20
0.0000000000000142
 30
-14.91499999999999
 70
    64
  0
VERTEX
  5
3B59
330
3B51
100
AcDbEntity
  8
ACESSORIOS
100
AcDbVertex
100
AcDbPolygonMeshVertex
 10
138.8822897366706
 20
0.0000000000000142
 30
-14.31499999999991
 70
    64
  0
VERTEX
  5
3B5A
330
3B51
100
AcDbEntity
  8
ACESSORIOS
100
AcDbVertex
100
AcDbPolygonMeshVertex
 10
138.8112450844833
 20
0.0000000000000142
 30
-14.85463770903869
 70
    64
  0
VERTEX
  5
3B5B
330
3B51
100
AcDbEntity
  8
ACESSORIOS
100
AcDbVertex
100
AcDbPolygonMeshVertex
 10
138.6029527035612
 20
0.0000000000000142
 30
-15.35749999999995
 70
    64
  0
VERTEX
  5
3B5C
330
3B51
100
AcDbEntity
  8
ACESSORIOS
100
AcDbVertex
100
AcDbPolygonMeshVertex
 10
138.2716073754445
 20
0.0000000000000142
 30
-15.78931763877392
 70
    64
  0
VERTEX
  5
3B5D
330
3B51
100
AcDbEntity
  8
ACESSORIOS
100
AcDbVertex
100
AcDbPolygonMeshVertex
 10
137.8397897366706
 20
0.0000000000000142
 30
-16.12066296689053
 70
    64
  0
VERTEX
  5
3B5E
330
3B51
100
AcDbEntity
  8
ACESSORIOS
100
AcDbVertex
100
AcDbPolygonMeshVertex
 10
137.3369274457093
 20
0.0000000000000142
 30
-16.3289553478127
 70
    64
  0
VERTEX
  5
3B5F
330
3B51
100
AcDbEntity
  8
ACESSORIOS
100
AcDbVertex
100
AcDbPolygonMeshVertex
 10
136.7972897366706
 20
0.0000000000000142
 30
-16.4
 70
    64
  0
SEQEND
  5
3D4C
330
3B51
100
AcDbEntity
  8
ACESSORIOS
  0
3DFACE
  5
3B61
330
1F
100
AcDbEntity
  8
ACESSORIOS
100
AcDbFace
 10
136.7972897366706
 20
-438.0000000000001
 30
-1.464999999999918
 11
122.9172897366704
 21
-438.0000000000001
 31
-1.464999999999918
 12
122.9172897366704
 22
-438.0000000000001
 32
0.0200000000000706
 13
136.7972897366706
 23
-438.0000000000001
 33
0.020000000000092
  0
3DFACE
  5
3B62
330
1F
100
AcDbEntity
  8
ACESSORIOS
100
AcDbFace
 10
137.3972897366705
 20
-438.0000000000001
 30
-2.064999999999907
 11
138.8822897366706
 21
-438.0000000000001
 31
-2.064999999999907
 12
138.8822897366706
 22
-438.0000000000001
 32
-14.31499999999991
 13
137.3972897366709
 23
-438.0000000000001
 33
-14.31499999999991
  0
3DFACE
  5
3B63
330
1F
100
AcDbEntity
  8
ACESSORIOS
100
AcDbFace
 10
122.3172897366705
 20
-438.0000000000001
 30
-16.17999999999992
 11
120.8322897366708
 21
-438.0000000000001
 31
-16.17999999999992
 12
120.8322897366704
 22
-438.0000000000001
 32
-2.064999999999907
 13
122.3172897366705
 23
-438.0000000000001
 33
-2.064999999999907
  0
3DFACE
  5
3B64
330
1F
100
AcDbEntity
  8
ACESSORIOS
100
AcDbFace
 10
130.1822897366708
 20
-438.0000000000001
 30
-16.39999999999991
 11
130.1822897366708
 21
-438.0000000000001
 31
-14.91499999999993
 12
136.7972897366706
 22
-438.0000000000001
 32
-14.91499999999999
 13
136.7972897366706
 23
-438.0000000000001
 33
-16.4
  0
POLYLINE
  5
3B65
330
1F
100
AcDbEntity
  8
ACESSORIOS
100
AcDbPolygonMesh
 66
     1
 10
0.0
 20
0.0
 30
0.0
 70
    16
 71
     2
 72
     7
  0
VERTEX
  5
3B66
330
3B65
100
AcDbEntity
  8
ACESSORIOS
100
AcDbVertex
100
AcDbPolygonMeshVertex
 10
122.3172897366705
 20
-438.0000000000001
 30
-2.064999999999907
 70
    64
  0
VERTEX
  5
3B67
330
3B65
100
AcDbEntity
  8
ACESSORIOS
100
AcDbVertex
100
AcDbPolygonMeshVertex
 10
122.3377342408971
 20
-438.0000000000001
 30
-1.909708572938418
 70
    64
  0
VERTEX
  5
3B68
330
3B65
100
AcDbEntity
  8
ACESSORIOS
100
AcDbVertex
100
AcDbPolygonMeshVertex
 10
122.3976744944
 20
-438.0000000000001
 30
-1.764999999999949
 70
    64
  0
VERTEX
  5
3B69
330
3B65
100
AcDbEntity
  8
ACESSORIOS
100
AcDbVertex
100
AcDbPolygonMeshVertex
 10
122.4930256679586
 20
-438.0000000000001
 30
-1.640735931288029
 70
    64
  0
VERTEX
  5
3B6A
330
3B65
100
AcDbEntity
  8
ACESSORIOS
100
AcDbVertex
100
AcDbPolygonMeshVertex
 10
122.6172897366705
 20
-438.0000000000001
 30
-1.545384757729287
 70
    64
  0
VERTEX
  5
3B6B
330
3B65
100
AcDbEntity
  8
ACESSORIOS
100
AcDbVertex
100
AcDbPolygonMeshVertex
 10
122.761998309609
 20
-438.0000000000001
 30
-1.485444504226499
 70
    64
  0
VERTEX
  5
3B6C
330
3B65
100
AcDbEntity
  8
ACESSORIOS
100
AcDbVertex
100
AcDbPolygonMeshVertex
 10
122.9172897366704
 20
-438.0000000000001
 30
-1.464999999999918
 70
    64
  0
VERTEX
  5
3B6D
330
3B65
100
AcDbEntity
  8
ACESSORIOS
100
AcDbVertex
100
AcDbPolygonMeshVertex
 10
120.8322897366704
 20
-438.0000000000001
 30
-2.064999999999907
 70
    64
  0
VERTEX
  5
3B6E
330
3B65
100
AcDbEntity
  8
ACESSORIOS
100
AcDbVertex
100
AcDbPolygonMeshVertex
 10
120.9033343888577
 20
-438.0000000000001
 30
-1.525362290961169
 70
    64
  0
VERTEX
  5
3B6F
330
3B65
100
AcDbEntity
  8
ACESSORIOS
100
AcDbVertex
100
AcDbPolygonMeshVertex
 10
121.1116267697798
 20
-438.0000000000001
 30
-1.022499999999929
 70
    64
  0
VERTEX
  5
3B70
330
3B65
100
AcDbEntity
  8
ACESSORIOS
100
AcDbVertex
100
AcDbPolygonMeshVertex
 10
121.4429720978964
 20
-438.0000000000001
 30
-0.5906823612259782
 70
    64
  0
VERTEX
  5
3B71
330
3B65
100
AcDbEntity
  8
ACESSORIOS
100
AcDbVertex
100
AcDbPolygonMeshVertex
 10
121.8747897366704
 20
-438.0000000000001
 30
-0.2593370331093787
 70
    64
  0
VERTEX
  5
3B72
330
3B65
100
AcDbEntity
  8
ACESSORIOS
100
AcDbVertex
100
AcDbPolygonMeshVertex
 10
122.3776520276317
 20
-438.0000000000001
 30
-0.0510446521872297
 70
    64
  0
VERTEX
  5
3B73
330
3B65
100
AcDbEntity
  8
ACESSORIOS
100
AcDbVertex
100
AcDbPolygonMeshVertex
 10
122.9172897366704
 20
-438.0000000000001
 30
0.0200000000000706
 70
    64
  0
SEQEND
  5
3D4D
330
3B65
100
AcDbEntity
  8
ACESSORIOS
  0
POLYLINE
  5
3B75
330
1F
100
AcDbEntity
  8
ACESSORIOS
100
AcDbPolygonMesh
 66
     1
 10
0.0
 20
0.0
 30
0.0
 70
    16
 71
     2
 72
     7
  0
VERTEX
  5
3B76
330
3B75
100
AcDbEntity
  8
ACESSORIOS
100
AcDbVertex
100
AcDbPolygonMeshVertex
 10
136.7972897366706
 20
-438.0000000000001
 30
-1.464999999999829
 70
    64
  0
VERTEX
  5
3B77
330
3B75
100
AcDbEntity
  8
ACESSORIOS
100
AcDbVertex
100
AcDbPolygonMeshVertex
 10
136.9525811637322
 20
-438.0000000000001
 30
-1.485444504226359
 70
    64
  0
VERTEX
  5
3B78
330
3B75
100
AcDbEntity
  8
ACESSORIOS
100
AcDbVertex
100
AcDbPolygonMeshVertex
 10
137.0972897366707
 20
-438.0000000000001
 30
-1.545384757729127
 70
    64
  0
VERTEX
  5
3B79
330
3B75
100
AcDbEntity
  8
ACESSORIOS
100
AcDbVertex
100
AcDbPolygonMeshVertex
 10
137.2215538053827
 20
-438.0000000000001
 30
-1.640735931287865
 70
    64
  0
VERTEX
  5
3B7A
330
3B75
100
AcDbEntity
  8
ACESSORIOS
100
AcDbVertex
100
AcDbPolygonMeshVertex
 10
137.3169049789415
 20
-438.0000000000001
 30
-1.764999999999819
 70
    64
  0
VERTEX
  5
3B7B
330
3B75
100
AcDbEntity
  8
ACESSORIOS
100
AcDbVertex
100
AcDbPolygonMeshVertex
 10
137.3768452324443
 20
-438.0000000000001
 30
-1.909708572938347
 70
    64
  0
VERTEX
  5
3B7C
330
3B75
100
AcDbEntity
  8
ACESSORIOS
100
AcDbVertex
100
AcDbPolygonMeshVertex
 10
137.3972897366709
 20
-438.0000000000001
 30
-2.064999999999907
 70
    64
  0
VERTEX
  5
3B7D
330
3B75
100
AcDbEntity
  8
ACESSORIOS
100
AcDbVertex
100
AcDbPolygonMeshVertex
 10
136.7972897366706
 20
-438.0000000000001
 30
0.0200000000001808
 70
    64
  0
VERTEX
  5
3B7E
330
3B75
100
AcDbEntity
  8
ACESSORIOS
100
AcDbVertex
100
AcDbPolygonMeshVertex
 10
137.3369274457093
 20
-438.0000000000001
 30
-0.0510446521871302
 70
    64
  0
VERTEX
  5
3B7F
330
3B75
100
AcDbEntity
  8
ACESSORIOS
100
AcDbVertex
100
AcDbPolygonMeshVertex
 10
137.8397897366706
 20
-438.0000000000001
 30
-0.2593370331092863
 70
    64
  0
VERTEX
  5
3B80
330
3B75
100
AcDbEntity
  8
ACESSORIOS
100
AcDbVertex
100
AcDbPolygonMeshVertex
 10
138.2716073754445
 20
-438.0000000000001
 30
-0.5906823612259089
 70
    64
  0
VERTEX
  5
3B81
330
3B75
100
AcDbEntity
  8
ACESSORIOS
100
AcDbVertex
100
AcDbPolygonMeshVertex
 10
138.6029527035612
 20
-438.0000000000001
 30
-1.02249999999988
 70
    64
  0
VERTEX
  5
3B82
330
3B75
100
AcDbEntity
  8
ACESSORIOS
100
AcDbVertex
100
AcDbPolygonMeshVertex
 10
138.8112450844833
 20
-438.0000000000001
 30
-1.52536229096114
 70
    64
  0
VERTEX
  5
3B83
330
3B75
100
AcDbEntity
  8
ACESSORIOS
100
AcDbVertex
100
AcDbPolygonMeshVertex
 10
138.8822897366706
 20
-438.0000000000001
 30
-2.064999999999907
 70
    64
  0
SEQEND
  5
3D4E
330
3B75
100
AcDbEntity
  8
ACESSORIOS
  0
POLYLINE
  5
3B85
330
1F
100
AcDbEntity
  8
ACESSORIOS
100
AcDbPolygonMesh
 66
     1
 10
0.0
 20
0.0
 30
0.0
 70
    16
 71
     2
 72
     7
  0
VERTEX
  5
3B86
330
3B85
100
AcDbEntity
  8
ACESSORIOS
100
AcDbVertex
100
AcDbPolygonMeshVertex
 10
137.3972897366709
 20
-438.0000000000001
 30
-14.31499999999991
 70
    64
  0
VERTEX
  5
3B87
330
3B85
100
AcDbEntity
  8
ACESSORIOS
100
AcDbVertex
100
AcDbPolygonMeshVertex
 10
137.3768452324443
 20
-438.0000000000001
 30
-14.47029142706148
 70
    64
  0
VERTEX
  5
3B88
330
3B85
100
AcDbEntity
  8
ACESSORIOS
100
AcDbVertex
100
AcDbPolygonMeshVertex
 10
137.3169049789415
 20
-438.0000000000001
 30
-14.615
 70
    64
  0
VERTEX
  5
3B89
330
3B85
100
AcDbEntity
  8
ACESSORIOS
100
AcDbVertex
100
AcDbPolygonMeshVertex
 10
137.2215538053827
 20
-438.0000000000001
 30
-14.73926406871195
 70
    64
  0
VERTEX
  5
3B8A
330
3B85
100
AcDbEntity
  8
ACESSORIOS
100
AcDbVertex
100
AcDbPolygonMeshVertex
 10
137.0972897366707
 20
-438.0000000000001
 30
-14.8346152422707
 70
    64
  0
VERTEX
  5
3B8B
330
3B85
100
AcDbEntity
  8
ACESSORIOS
100
AcDbVertex
100
AcDbPolygonMeshVertex
 10
136.9525811637322
 20
-438.0000000000001
 30
-14.89455549577346
 70
    64
  0
VERTEX
  5
3B8C
330
3B85
100
AcDbEntity
  8
ACESSORIOS
100
AcDbVertex
100
AcDbPolygonMeshVertex
 10
136.7972897366706
 20
-438.0000000000001
 30
-14.91499999999999
 70
    64
  0
VERTEX
  5
3B8D
330
3B85
100
AcDbEntity
  8
ACESSORIOS
100
AcDbVertex
100
AcDbPolygonMeshVertex
 10
138.8822897366706
 20
-438.0000000000001
 30
-14.31499999999991
 70
    64
  0
VERTEX
  5
3B8E
330
3B85
100
AcDbEntity
  8
ACESSORIOS
100
AcDbVertex
100
AcDbPolygonMeshVertex
 10
138.8112450844833
 20
-438.0000000000001
 30
-14.85463770903869
 70
    64
  0
VERTEX
  5
3B8F
330
3B85
100
AcDbEntity
  8
ACESSORIOS
100
AcDbVertex
100
AcDbPolygonMeshVertex
 10
138.6029527035612
 20
-438.0000000000001
 30
-15.35749999999995
 70
    64
  0
VERTEX
  5
3B90
330
3B85
100
AcDbEntity
  8
ACESSORIOS
100
AcDbVertex
100
AcDbPolygonMeshVertex
 10
138.2716073754445
 20
-438.0000000000001
 30
-15.78931763877392
 70
    64
  0
VERTEX
  5
3B91
330
3B85
100
AcDbEntity
  8
ACESSORIOS
100
AcDbVertex
100
AcDbPolygonMeshVertex
 10
137.8397897366706
 20
-438.0000000000001
 30
-16.12066296689053
 70
    64
  0
VERTEX
  5
3B92
330
3B85
100
AcDbEntity
  8
ACESSORIOS
100
AcDbVertex
100
AcDbPolygonMeshVertex
 10
137.3369274457093
 20
-438.0000000000001
 30
-16.3289553478127
 70
    64
  0
VERTEX
  5
3B93
330
3B85
100
AcDbEntity
  8
ACESSORIOS
100
AcDbVertex
100
AcDbPolygonMeshVertex
 10
136.7972897366706
 20
-438.0000000000001
 30
-16.4
 70
    64
  0
SEQEND
  5
3D4F
330
3B85
100
AcDbEntity
  8
ACESSORIOS
  0
POLYLINE
  5
3B95
330
1F
100
AcDbEntity
  8
ACESSORIOS
100
AcDbPolygonMesh
 66
     1
 10
0.0
 20
0.0
 30
0.0
 70
    16
 71
     2
 72
     7
  0
VERTEX
  5
3B96
330
3B95
100
AcDbEntity
  8
ACESSORIOS
100
AcDbVertex
100
AcDbPolygonMeshVertex
 10
136.7972897366706
 20
0.0000000000000142
 30
-1.464999999999829
 70
    64
  0
VERTEX
  5
3B97
330
3B95
100
AcDbEntity
  8
ACESSORIOS
100
AcDbVertex
100
AcDbPolygonMeshVertex
 10
136.9525811637322
 20
0.0000000000000142
 30
-1.485444504226359
 70
    64
  0
VERTEX
  5
3B98
330
3B95
100
AcDbEntity
  8
ACESSORIOS
100
AcDbVertex
100
AcDbPolygonMeshVertex
 10
137.0972897366707
 20
0.0000000000000142
 30
-1.545384757729127
 70
    64
  0
VERTEX
  5
3B99
330
3B95
100
AcDbEntity
  8
ACESSORIOS
100
AcDbVertex
100
AcDbPolygonMeshVertex
 10
137.2215538053827
 20
0.0000000000000142
 30
-1.640735931287865
 70
    64
  0
VERTEX
  5
3B9A
330
3B95
100
AcDbEntity
  8
ACESSORIOS
100
AcDbVertex
100
AcDbPolygonMeshVertex
 10
137.3169049789415
 20
0.0000000000000142
 30
-1.764999999999819
 70
    64
  0
VERTEX
  5
3B9B
330
3B95
100
AcDbEntity
  8
ACESSORIOS
100
AcDbVertex
100
AcDbPolygonMeshVertex
 10
137.3768452324443
 20
0.0000000000000142
 30
-1.909708572938347
 70
    64
  0
VERTEX
  5
3B9C
330
3B95
100
AcDbEntity
  8
ACESSORIOS
100
AcDbVertex
100
AcDbPolygonMeshVertex
 10
137.3972897366709
 20
0.0000000000000142
 30
-2.064999999999907
 70
    64
  0
VERTEX
  5
3B9D
330
3B95
100
AcDbEntity
  8
ACESSORIOS
100
AcDbVertex
100
AcDbPolygonMeshVertex
 10
136.7972897366706
 20
-438.0000000000001
 30
-1.464999999999829
 70
    64
  0
VERTEX
  5
3B9E
330
3B95
100
AcDbEntity
  8
ACESSORIOS
100
AcDbVertex
100
AcDbPolygonMeshVertex
 10
136.9525811637322
 20
-438.0000000000001
 30
-1.485444504226359
 70
    64
  0
VERTEX
  5
3B9F
330
3B95
100
AcDbEntity
  8
ACESSORIOS
100
AcDbVertex
100
AcDbPolygonMeshVertex
 10
137.0972897366707
 20
-438.0000000000001
 30
-1.545384757729127
 70
    64
  0
VERTEX
  5
3BA0
330
3B95
100
AcDbEntity
  8
ACESSORIOS
100
AcDbVertex
100
AcDbPolygonMeshVertex
 10
137.2215538053827
 20
-438.0000000000001
 30
-1.640735931287865
 70
    64
  0
VERTEX
  5
3BA1
330
3B95
100
AcDbEntity
  8
ACESSORIOS
100
AcDbVertex
100
AcDbPolygonMeshVertex
 10
137.3169049789415
 20
-438.0000000000001
 30
-1.764999999999819
 70
    64
  0
VERTEX
  5
3BA2
330
3B95
100
AcDbEntity
  8
ACESSORIOS
100
AcDbVertex
100
AcDbPolygonMeshVertex
 10
137.3768452324443
 20
-438.0000000000001
 30
-1.909708572938347
 70
    64
  0
VERTEX
  5
3BA3
330
3B95
100
AcDbEntity
  8
ACESSORIOS
100
AcDbVertex
100
AcDbPolygonMeshVertex
 10
137.3972897366709
 20
-438.0000000000001
 30
-2.064999999999907
 70
    64
  0
SEQEND
  5
3D50
330
3B95
100
AcDbEntity
  8
ACESSORIOS
  0
POLYLINE
  5
3BA5
330
1F
100
AcDbEntity
  8
ACESSORIOS
100
AcDbPolygonMesh
 66
     1
 10
0.0
 20
0.0
 30
0.0
 70
    16
 71
     2
 72
     7
  0
VERTEX
  5
3BA6
330
3BA5
100
AcDbEntity
  8
ACESSORIOS
100
AcDbVertex
100
AcDbPolygonMeshVertex
 10
136.7972897366706
 20
-438.0000000000001
 30
0.0200000000001808
 70
    64
  0
VERTEX
  5
3BA7
330
3BA5
100
AcDbEntity
  8
ACESSORIOS
100
AcDbVertex
100
AcDbPolygonMeshVertex
 10
137.3369274457093
 20
-438.0000000000001
 30
-0.0510446521871302
 70
    64
  0
VERTEX
  5
3BA8
330
3BA5
100
AcDbEntity
  8
ACESSORIOS
100
AcDbVertex
100
AcDbPolygonMeshVertex
 10
137.8397897366706
 20
-438.0000000000001
 30
-0.2593370331092863
 70
    64
  0
VERTEX
  5
3BA9
330
3BA5
100
AcDbEntity
  8
ACESSORIOS
100
AcDbVertex
100
AcDbPolygonMeshVertex
 10
138.2716073754445
 20
-438.0000000000001
 30
-0.5906823612259089
 70
    64
  0
VERTEX
  5
3BAA
330
3BA5
100
AcDbEntity
  8
ACESSORIOS
100
AcDbVertex
100
AcDbPolygonMeshVertex
 10
138.6029527035612
 20
-438.0000000000001
 30
-1.02249999999988
 70
    64
  0
VERTEX
  5
3BAB
330
3BA5
100
AcDbEntity
  8
ACESSORIOS
100
AcDbVertex
100
AcDbPolygonMeshVertex
 10
138.8112450844833
 20
-438.0000000000001
 30
-1.52536229096114
 70
    64
  0
VERTEX
  5
3BAC
330
3BA5
100
AcDbEntity
  8
ACESSORIOS
100
AcDbVertex
100
AcDbPolygonMeshVertex
 10
138.8822897366706
 20
-438.0000000000001
 30
-2.064999999999907
 70
    64
  0
VERTEX
  5
3BAD
330
3BA5
100
AcDbEntity
  8
ACESSORIOS
100
AcDbVertex
100
AcDbPolygonMeshVertex
 10
136.7972897366706
 20
0.0000000000000142
 30
0.0200000000001808
 70
    64
  0
VERTEX
  5
3BAE
330
3BA5
100
AcDbEntity
  8
ACESSORIOS
100
AcDbVertex
100
AcDbPolygonMeshVertex
 10
137.3369274457093
 20
0.0000000000000142
 30
-0.0510446521871302
 70
    64
  0
VERTEX
  5
3BAF
330
3BA5
100
AcDbEntity
  8
ACESSORIOS
100
AcDbVertex
100
AcDbPolygonMeshVertex
 10
137.8397897366706
 20
0.0000000000000142
 30
-0.2593370331092863
 70
    64
  0
VERTEX
  5
3BB0
330
3BA5
100
AcDbEntity
  8
ACESSORIOS
100
AcDbVertex
100
AcDbPolygonMeshVertex
 10
138.2716073754445
 20
0.0000000000000142
 30
-0.5906823612259089
 70
    64
  0
VERTEX
  5
3BB1
330
3BA5
100
AcDbEntity
  8
ACESSORIOS
100
AcDbVertex
100
AcDbPolygonMeshVertex
 10
138.6029527035612
 20
0.0000000000000142
 30
-1.02249999999988
 70
    64
  0
VERTEX
  5
3BB2
330
3BA5
100
AcDbEntity
  8
ACESSORIOS
100
AcDbVertex
100
AcDbPolygonMeshVertex
 10
138.8112450844833
 20
0.0000000000000142
 30
-1.52536229096114
 70
    64
  0
VERTEX
  5
3BB3
330
3BA5
100
AcDbEntity
  8
ACESSORIOS
100
AcDbVertex
100
AcDbPolygonMeshVertex
 10
138.8822897366706
 20
0.0000000000000142
 30
-2.064999999999907
 70
    64
  0
SEQEND
  5
3D51
330
3BA5
100
AcDbEntity
  8
ACESSORIOS
  0
POLYLINE
  5
3BB5
330
1F
100
AcDbEntity
  8
ACESSORIOS
100
AcDbPolygonMesh
 66
     1
 10
0.0
 20
0.0
 30
0.0
 70
    16
 71
     2
 72
     7
  0
VERTEX
  5
3BB6
330
3BB5
100
AcDbEntity
  8
ACESSORIOS
100
AcDbVertex
100
AcDbPolygonMeshVertex
 10
122.9172897366705
 20
0.0000000000000142
 30
-1.464999999999918
 70
    64
  0
VERTEX
  5
3BB7
330
3BB5
100
AcDbEntity
  8
ACESSORIOS
100
AcDbVertex
100
AcDbPolygonMeshVertex
 10
122.761998309609
 20
0.0000000000000142
 30
-1.485444504226499
 70
    64
  0
VERTEX
  5
3BB8
330
3BB5
100
AcDbEntity
  8
ACESSORIOS
100
AcDbVertex
100
AcDbPolygonMeshVertex
 10
122.6172897366705
 20
0.0000000000000142
 30
-1.545384757729287
 70
    64
  0
VERTEX
  5
3BB9
330
3BB5
100
AcDbEntity
  8
ACESSORIOS
100
AcDbVertex
100
AcDbPolygonMeshVertex
 10
122.4930256679586
 20
0.0000000000000142
 30
-1.640735931288029
 70
    64
  0
VERTEX
  5
3BBA
330
3BB5
100
AcDbEntity
  8
ACESSORIOS
100
AcDbVertex
100
AcDbPolygonMeshVertex
 10
122.3976744943998
 20
0.0000000000000142
 30
-1.764999999999949
 70
    64
  0
VERTEX
  5
3BBB
330
3BB5
100
AcDbEntity
  8
ACESSORIOS
100
AcDbVertex
100
AcDbPolygonMeshVertex
 10
122.3377342408972
 20
0.0000000000000142
 30
-1.909708572938418
 70
    64
  0
VERTEX
  5
3BBC
330
3BB5
100
AcDbEntity
  8
ACESSORIOS
100
AcDbVertex
100
AcDbPolygonMeshVertex
 10
122.3172897366706
 20
0.0000000000000142
 30
-2.064999999999907
 70
    64
  0
VERTEX
  5
3BBD
330
3BB5
100
AcDbEntity
  8
ACESSORIOS
100
AcDbVertex
100
AcDbPolygonMeshVertex
 10
122.9172897366704
 20
-438.0000000000001
 30
-1.464999999999918
 70
    64
  0
VERTEX
  5
3BBE
330
3BB5
100
AcDbEntity
  8
ACESSORIOS
100
AcDbVertex
100
AcDbPolygonMeshVertex
 10
122.761998309609
 20
-438.0000000000001
 30
-1.485444504226499
 70
    64
  0
VERTEX
  5
3BBF
330
3BB5
100
AcDbEntity
  8
ACESSORIOS
100
AcDbVertex
100
AcDbPolygonMeshVertex
 10
122.6172897366705
 20
-438.0000000000001
 30
-1.545384757729287
 70
    64
  0
VERTEX
  5
3BC0
330
3BB5
100
AcDbEntity
  8
ACESSORIOS
100
AcDbVertex
100
AcDbPolygonMeshVertex
 10
122.4930256679586
 20
-438.0000000000001
 30
-1.640735931288029
 70
    64
  0
VERTEX
  5
3BC1
330
3BB5
100
AcDbEntity
  8
ACESSORIOS
100
AcDbVertex
100
AcDbPolygonMeshVertex
 10
122.3976744944
 20
-438.0000000000001
 30
-1.764999999999949
 70
    64
  0
VERTEX
  5
3BC2
330
3BB5
100
AcDbEntity
  8
ACESSORIOS
100
AcDbVertex
100
AcDbPolygonMeshVertex
 10
122.3377342408971
 20
-438.0000000000001
 30
-1.909708572938418
 70
    64
  0
VERTEX
  5
3BC3
330
3BB5
100
AcDbEntity
  8
ACESSORIOS
100
AcDbVertex
100
AcDbPolygonMeshVertex
 10
122.3172897366705
 20
-438.0000000000001
 30
-2.064999999999907
 70
    64
  0
SEQEND
  5
3D52
330
3BB5
100
AcDbEntity
  8
ACESSORIOS
  0
POLYLINE
  5
3BC5
330
1F
100
AcDbEntity
  8
ACESSORIOS
100
AcDbPolygonMesh
 66
     1
 10
0.0
 20
0.0
 30
0.0
 70
    16
 71
     2
 72
     7
  0
VERTEX
  5
3BC6
330
3BC5
100
AcDbEntity
  8
ACESSORIOS
100
AcDbVertex
100
AcDbPolygonMeshVertex
 10
122.9172897366704
 20
-438.0000000000001
 30
0.0200000000000706
 70
    64
  0
VERTEX
  5
3BC7
330
3BC5
100
AcDbEntity
  8
ACESSORIOS
100
AcDbVertex
100
AcDbPolygonMeshVertex
 10
122.3776520276317
 20
-438.0000000000001
 30
-0.0510446521872297
 70
    64
  0
VERTEX
  5
3BC8
330
3BC5
100
AcDbEntity
  8
ACESSORIOS
100
AcDbVertex
100
AcDbPolygonMeshVertex
 10
121.8747897366704
 20
-438.0000000000001
 30
-0.2593370331093787
 70
    64
  0
VERTEX
  5
3BC9
330
3BC5
100
AcDbEntity
  8
ACESSORIOS
100
AcDbVertex
100
AcDbPolygonMeshVertex
 10
121.4429720978964
 20
-438.0000000000001
 30
-0.5906823612259782
 70
    64
  0
VERTEX
  5
3BCA
330
3BC5
100
AcDbEntity
  8
ACESSORIOS
100
AcDbVertex
100
AcDbPolygonMeshVertex
 10
121.1116267697798
 20
-438.0000000000001
 30
-1.022499999999929
 70
    64
  0
VERTEX
  5
3BCB
330
3BC5
100
AcDbEntity
  8
ACESSORIOS
100
AcDbVertex
100
AcDbPolygonMeshVertex
 10
120.9033343888577
 20
-438.0000000000001
 30
-1.525362290961169
 70
    64
  0
VERTEX
  5
3BCC
330
3BC5
100
AcDbEntity
  8
ACESSORIOS
100
AcDbVertex
100
AcDbPolygonMeshVertex
 10
120.8322897366704
 20
-438.0000000000001
 30
-2.064999999999907
 70
    64
  0
VERTEX
  5
3BCD
330
3BC5
100
AcDbEntity
  8
ACESSORIOS
100
AcDbVertex
100
AcDbPolygonMeshVertex
 10
122.9172897366705
 20
0.0000000000000142
 30
0.0200000000000706
 70
    64
  0
VERTEX
  5
3BCE
330
3BC5
100
AcDbEntity
  8
ACESSORIOS
100
AcDbVertex
100
AcDbPolygonMeshVertex
 10
122.3776520276317
 20
0.0000000000000142
 30
-0.0510446521872297
 70
    64
  0
VERTEX
  5
3BCF
330
3BC5
100
AcDbEntity
  8
ACESSORIOS
100
AcDbVertex
100
AcDbPolygonMeshVertex
 10
121.8747897366705
 20
0.0000000000000142
 30
-0.2593370331093787
 70
    64
  0
VERTEX
  5
3BD0
330
3BC5
100
AcDbEntity
  8
ACESSORIOS
100
AcDbVertex
100
AcDbPolygonMeshVertex
 10
121.4429720978965
 20
0.0000000000000142
 30
-0.5906823612259782
 70
    64
  0
VERTEX
  5
3BD1
330
3BC5
100
AcDbEntity
  8
ACESSORIOS
100
AcDbVertex
100
AcDbPolygonMeshVertex
 10
121.1116267697799
 20
0.0000000000000142
 30
-1.022499999999929
 70
    64
  0
VERTEX
  5
3BD2
330
3BC5
100
AcDbEntity
  8
ACESSORIOS
100
AcDbVertex
100
AcDbPolygonMeshVertex
 10
120.9033343888578
 20
0.0000000000000142
 30
-1.525362290961169
 70
    64
  0
VERTEX
  5
3BD3
330
3BC5
100
AcDbEntity
  8
ACESSORIOS
100
AcDbVertex
100
AcDbPolygonMeshVertex
 10
120.8322897366704
 20
0.0000000000000142
 30
-2.064999999999907
 70
    64
  0
SEQEND
  5
3D53
330
3BC5
100
AcDbEntity
  8
ACESSORIOS
  0
POLYLINE
  5
3BE5
330
1F
100
AcDbEntity
  8
ACESSORIOS
100
AcDbPolygonMesh
 66
     1
 10
0.0
 20
0.0
 30
0.0
 70
    16
 71
     2
 72
     7
  0
VERTEX
  5
3BE6
330
3BE5
100
AcDbEntity
  8
ACESSORIOS
100
AcDbVertex
100
AcDbPolygonMeshVertex
 10
138.8822897366706
 20
-438.0000000000001
 30
-14.31499999999991
 70
    64
  0
VERTEX
  5
3BE7
330
3BE5
100
AcDbEntity
  8
ACESSORIOS
100
AcDbVertex
100
AcDbPolygonMeshVertex
 10
138.8112450844833
 20
-438.0000000000001
 30
-14.85463770903869
 70
    64
  0
VERTEX
  5
3BE8
330
3BE5
100
AcDbEntity
  8
ACESSORIOS
100
AcDbVertex
100
AcDbPolygonMeshVertex
 10
138.6029527035612
 20
-438.0000000000001
 30
-15.35749999999995
 70
    64
  0
VERTEX
  5
3BE9
330
3BE5
100
AcDbEntity
  8
ACESSORIOS
100
AcDbVertex
100
AcDbPolygonMeshVertex
 10
138.2716073754445
 20
-438.0000000000001
 30
-15.78931763877392
 70
    64
  0
VERTEX
  5
3BEA
330
3BE5
100
AcDbEntity
  8
ACESSORIOS
100
AcDbVertex
100
AcDbPolygonMeshVertex
 10
137.8397897366706
 20
-438.0000000000001
 30
-16.12066296689053
 70
    64
  0
VERTEX
  5
3BEB
330
3BE5
100
AcDbEntity
  8
ACESSORIOS
100
AcDbVertex
100
AcDbPolygonMeshVertex
 10
137.3369274457093
 20
-438.0000000000001
 30
-16.3289553478127
 70
    64
  0
VERTEX
  5
3BEC
330
3BE5
100
AcDbEntity
  8
ACESSORIOS
100
AcDbVertex
100
AcDbPolygonMeshVertex
 10
136.7972897366706
 20
-438.0000000000001
 30
-16.4
 70
    64
  0
VERTEX
  5
3BED
330
3BE5
100
AcDbEntity
  8
ACESSORIOS
100
AcDbVertex
100
AcDbPolygonMeshVertex
 10
138.8822897366706
 20
0.0000000000000142
 30
-14.31499999999991
 70
    64
  0
VERTEX
  5
3BEE
330
3BE5
100
AcDbEntity
  8
ACESSORIOS
100
AcDbVertex
100
AcDbPolygonMeshVertex
 10
138.8112450844833
 20
0.0000000000000142
 30
-14.85463770903869
 70
    64
  0
VERTEX
  5
3BEF
330
3BE5
100
AcDbEntity
  8
ACESSORIOS
100
AcDbVertex
100
AcDbPolygonMeshVertex
 10
138.6029527035612
 20
0.0000000000000142
 30
-15.35749999999995
 70
    64
  0
VERTEX
  5
3BF0
330
3BE5
100
AcDbEntity
  8
ACESSORIOS
100
AcDbVertex
100
AcDbPolygonMeshVertex
 10
138.2716073754445
 20
0.0000000000000142
 30
-15.78931763877392
 70
    64
  0
VERTEX
  5
3BF1
330
3BE5
100
AcDbEntity
  8
ACESSORIOS
100
AcDbVertex
100
AcDbPolygonMeshVertex
 10
137.8397897366706
 20
0.0000000000000142
 30
-16.12066296689053
 70
    64
  0
VERTEX
  5
3BF2
330
3BE5
100
AcDbEntity
  8
ACESSORIOS
100
AcDbVertex
100
AcDbPolygonMeshVertex
 10
137.3369274457093
 20
0.0000000000000142
 30
-16.3289553478127
 70
    64
  0
VERTEX
  5
3BF3
330
3BE5
100
AcDbEntity
  8
ACESSORIOS
100
AcDbVertex
100
AcDbPolygonMeshVertex
 10
136.7972897366706
 20
0.0000000000000142
 30
-16.4
 70
    64
  0
SEQEND
  5
3D54
330
3BE5
100
AcDbEntity
  8
ACESSORIOS
  0
3DFACE
  5
3BF5
330
1F
100
AcDbEntity
  8
ACESSORIOS
100
AcDbFace
 10
137.3972897366705
 20
0.0000000000000142
 30
-2.064999999999907
 11
137.3972897366709
 21
0.0000000000000142
 31
-14.31499999999991
 12
137.3972897366709
 22
-438.0000000000001
 32
-14.31499999999991
 13
137.3972897366705
 23
-438.0000000000001
 33
-2.064999999999907
  0
3DFACE
  5
3BF6
330
1F
100
AcDbEntity
  8
ACESSORIOS
100
AcDbFace
 10
138.8822897366704
 20
0.0000000000000142
 30
-2.064999999999907
 11
138.8822897366708
 21
0.0000000000000142
 31
-14.31499999999991
 12
138.8822897366708
 22
-438.0000000000001
 32
-14.31499999999991
 13
138.8822897366704
 23
-438.0000000000001
 33
-2.064999999999907
  0
3DFACE
  5
3BF7
330
1F
100
AcDbEntity
  8
ACESSORIOS
100
AcDbFace
 10
130.1822897366708
 20
-438.0000000000001
 30
-14.91499999999993
 11
130.1822897366708
 21
0.0000000000000142
 31
-14.91499999999993
 12
136.7972897366706
 22
0.0000000000000142
 32
-14.91499999999999
 13
136.7972897366706
 23
-438.0000000000001
 33
-14.91499999999999
  0
3DFACE
  5
3BF8
330
1F
100
AcDbEntity
  8
ACESSORIOS
100
AcDbFace
 10
130.1822897366708
 20
-438.0000000000001
 30
-16.39999999999991
 11
130.1822897366708
 21
0.0000000000000142
 31
-16.39999999999991
 12
136.7972897366706
 22
0.0000000000000142
 32
-16.39999999999998
 13
136.7972897366706
 23
-438.0000000000001
 33
-16.39999999999998
  0
3DFACE
  5
3BF9
330
1F
100
AcDbEntity
  8
ACESSORIOS
100
AcDbFace
 10
130.1822897366708
 20
-438.0000000000001
 30
-16.39999999999991
 11
130.1822897366708
 21
-438.0000000000001
 31
-14.91499999999993
 12
130.1822897366708
 22
0.0000000000000142
 32
-14.91499999999993
 13
130.1822897366708
 23
0.0000000000000142
 33
-16.39999999999991
  0
3DFACE
  5
3BFA
330
1F
100
AcDbEntity
  8
ACESSORIOS
100
AcDbFace
 10
122.3172897366706
 20
0.0000000000000142
 30
-16.17999999999992
 11
122.3172897366705
 21
-438.0000000000001
 31
-16.17999999999992
 12
120.8322897366708
 22
-438.0000000000001
 32
-16.17999999999992
 13
120.8322897366709
 23
0.0000000000000142
 33
-16.17999999999992
  0
3DFACE
  5
3BFB
330
1F
100
AcDbEntity
  8
ACESSORIOS
100
AcDbFace
 10
122.3172897366706
 20
0.0000000000000142
 30
-2.064999999999907
 11
122.3172897366706
 21
0.0000000000000142
 31
-16.17999999999992
 12
122.3172897366705
 22
-438.0000000000001
 32
-16.17999999999992
 13
122.3172897366705
 23
-438.0000000000001
 33
-2.064999999999907
  0
3DFACE
  5
3BFC
330
1F
100
AcDbEntity
  8
ACESSORIOS
100
AcDbFace
 10
120.8322897366709
 20
0.0000000000000142
 30
-2.064999999999907
 11
120.8322897366709
 21
0.0000000000000142
 31
-16.17999999999992
 12
120.8322897366708
 22
-438.0000000000001
 32
-16.17999999999992
 13
120.8322897366708
 23
-438.0000000000001
 33
-2.064999999999907
  0
3DFACE
  5
3BFD
330
1F
100
AcDbEntity
  8
ACESSORIOS
100
AcDbFace
 10
122.9172897366704
 20
-438.0000000000001
 30
0.0200000000000706
 11
136.7972897366706
 21
-438.0000000000001
 31
0.020000000000092
 12
136.7972897366706
 22
0.0000000000000142
 32
0.020000000000092
 13
122.9172897366705
 23
0.0000000000000142
 33
0.0200000000000706
  0
3DFACE
  5
3BFE
330
1F
100
AcDbEntity
  8
ACESSORIOS
100
AcDbFace
 10
122.9172897366704
 20
-438.0000000000001
 30
-1.464999999999928
 11
136.7972897366706
 21
-438.0000000000001
 31
-1.464999999999907
 12
136.7972897366706
 22
0.0000000000000142
 32
-1.464999999999907
 13
122.9172897366705
 23
0.0000000000000142
 33
-1.464999999999928
  0
POLYLINE
  5
3CA2
330
1F
100
AcDbEntity
  8
ACESSORIOS
100
AcDbPolygonMesh
 66
     1
 10
0.0
 20
0.0
 30
0.0
 70
    16
 71
     2
 72
     7
  0
VERTEX
  5
3CA3
330
3CA2
100
AcDbEntity
  8
ACESSORIOS
100
AcDbVertex
100
AcDbPolygonMeshVertex
 10
136.7972897366706
 20
0.0000000000000142
 30
-14.91499999999999
 70
    64
  0
VERTEX
  5
3CA4
330
3CA2
100
AcDbEntity
  8
ACESSORIOS
100
AcDbVertex
100
AcDbPolygonMeshVertex
 10
136.9525811637322
 20
0.0000000000000142
 30
-14.89455549577346
 70
    64
  0
VERTEX
  5
3CA5
330
3CA2
100
AcDbEntity
  8
ACESSORIOS
100
AcDbVertex
100
AcDbPolygonMeshVertex
 10
137.0972897366707
 20
0.0000000000000142
 30
-14.8346152422707
 70
    64
  0
VERTEX
  5
3CA6
330
3CA2
100
AcDbEntity
  8
ACESSORIOS
100
AcDbVertex
100
AcDbPolygonMeshVertex
 10
137.2215538053827
 20
0.0000000000000142
 30
-14.73926406871195
 70
    64
  0
VERTEX
  5
3CA7
330
3CA2
100
AcDbEntity
  8
ACESSORIOS
100
AcDbVertex
100
AcDbPolygonMeshVertex
 10
137.3169049789415
 20
0.0000000000000142
 30
-14.615
 70
    64
  0
VERTEX
  5
3CA8
330
3CA2
100
AcDbEntity
  8
ACESSORIOS
100
AcDbVertex
100
AcDbPolygonMeshVertex
 10
137.3768452324443
 20
0.0000000000000142
 30
-14.47029142706148
 70
    64
  0
VERTEX
  5
3CA9
330
3CA2
100
AcDbEntity
  8
ACESSORIOS
100
AcDbVertex
100
AcDbPolygonMeshVertex
 10
137.3972897366709
 20
0.0000000000000142
 30
-14.31499999999991
 70
    64
  0
VERTEX
  5
3CAA
330
3CA2
100
AcDbEntity
  8
ACESSORIOS
100
AcDbVertex
100
AcDbPolygonMeshVertex
 10
136.7972897366706
 20
-438.0000000000001
 30
-14.91499999999999
 70
    64
  0
VERTEX
  5
3CAB
330
3CA2
100
AcDbEntity
  8
ACESSORIOS
100
AcDbVertex
100
AcDbPolygonMeshVertex
 10
136.9525811637322
 20
-438.0000000000001
 30
-14.89455549577346
 70
    64
  0
VERTEX
  5
3CAC
330
3CA2
100
AcDbEntity
  8
ACESSORIOS
100
AcDbVertex
100
AcDbPolygonMeshVertex
 10
137.0972897366707
 20
-438.0000000000001
 30
-14.8346152422707
 70
    64
  0
VERTEX
  5
3CAD
330
3CA2
100
AcDbEntity
  8
ACESSORIOS
100
AcDbVertex
100
AcDbPolygonMeshVertex
 10
137.2215538053827
 20
-438.0000000000001
 30
-14.73926406871195
 70
    64
  0
VERTEX
  5
3CAE
330
3CA2
100
AcDbEntity
  8
ACESSORIOS
100
AcDbVertex
100
AcDbPolygonMeshVertex
 10
137.3169049789415
 20
-438.0000000000001
 30
-14.615
 70
    64
  0
VERTEX
  5
3CAF
330
3CA2
100
AcDbEntity
  8
ACESSORIOS
100
AcDbVertex
100
AcDbPolygonMeshVertex
 10
137.3768452324443
 20
-438.0000000000001
 30
-14.47029142706148
 70
    64
  0
VERTEX
  5
3CB0
330
3CA2
100
AcDbEntity
  8
ACESSORIOS
100
AcDbVertex
100
AcDbPolygonMeshVertex
 10
137.3972897366709
 20
-438.0000000000001
 30
-14.31499999999991
 70
    64
  0
SEQEND
  5
3D55
330
3CA2
100
AcDbEntity
  8
ACESSORIOS
  0
POLYLINE
  5
3CB2
330
1F
100
AcDbEntity
  8
ACESSORIOS
100
AcDbPolygonMesh
 66
     1
 10
0.0
 20
0.0
 30
0.0
 70
    16
 71
     2
 72
     7
  0
VERTEX
  5
3CB3
330
3CB2
100
AcDbEntity
  8
ACESSORIOS
100
AcDbVertex
100
AcDbPolygonMeshVertex
 10
2.085000000000035
 20
0.0
 30
-14.91499999999999
 70
    64
  0
VERTEX
  5
3CB4
330
3CB2
100
AcDbEntity
  8
ACESSORIOS
100
AcDbVertex
100
AcDbPolygonMeshVertex
 10
1.929708572938353
 20
0.0
 30
-14.89455549577346
 70
    64
  0
VERTEX
  5
3CB5
330
3CB2
100
AcDbEntity
  8
ACESSORIOS
100
AcDbVertex
100
AcDbPolygonMeshVertex
 10
1.784999999999854
 20
0.0
 30
-14.8346152422707
 70
    64
  0
VERTEX
  5
3CB6
330
3CB2
100
AcDbEntity
  8
ACESSORIOS
100
AcDbVertex
100
AcDbPolygonMeshVertex
 10
1.660735931287945
 20
0.0
 30
-14.73926406871195
 70
    64
  0
VERTEX
  5
3CB7
330
3CB2
100
AcDbEntity
  8
ACESSORIOS
100
AcDbVertex
100
AcDbPolygonMeshVertex
 10
1.565384757729133
 20
0.0
 30
-14.615
 70
    64
  0
VERTEX
  5
3CB8
330
3CB2
100
AcDbEntity
  8
ACESSORIOS
100
AcDbVertex
100
AcDbPolygonMeshVertex
 10
1.50544450422626
 20
0.0
 30
-14.47029142706148
 70
    64
  0
VERTEX
  5
3CB9
330
3CB2
100
AcDbEntity
  8
ACESSORIOS
100
AcDbVertex
100
AcDbPolygonMeshVertex
 10
1.484999999999673
 20
0.0
 30
-14.31499999999991
 70
    64
  0
VERTEX
  5
3CBA
330
3CB2
100
AcDbEntity
  8
ACESSORIOS
100
AcDbVertex
100
AcDbPolygonMeshVertex
 10
2.084999999999979
 20
-438.0000000000001
 30
-14.91499999999999
 70
    64
  0
VERTEX
  5
3CBB
330
3CB2
100
AcDbEntity
  8
ACESSORIOS
100
AcDbVertex
100
AcDbPolygonMeshVertex
 10
1.929708572938295
 20
-438.0000000000001
 30
-14.89455549577346
 70
    64
  0
VERTEX
  5
3CBC
330
3CB2
100
AcDbEntity
  8
ACESSORIOS
100
AcDbVertex
100
AcDbPolygonMeshVertex
 10
1.784999999999798
 20
-438.0000000000001
 30
-14.8346152422707
 70
    64
  0
VERTEX
  5
3CBD
330
3CB2
100
AcDbEntity
  8
ACESSORIOS
100
AcDbVertex
100
AcDbPolygonMeshVertex
 10
1.660735931287888
 20
-438.0000000000001
 30
-14.73926406871195
 70
    64
  0
VERTEX
  5
3CBE
330
3CB2
100
AcDbEntity
  8
ACESSORIOS
100
AcDbVertex
100
AcDbPolygonMeshVertex
 10
1.565384757729078
 20
-438.0000000000001
 30
-14.615
 70
    64
  0
VERTEX
  5
3CBF
330
3CB2
100
AcDbEntity
  8
ACESSORIOS
100
AcDbVertex
100
AcDbPolygonMeshVertex
 10
1.505444504226205
 20
-438.0000000000001
 30
-14.47029142706148
 70
    64
  0
VERTEX
  5
3CC0
330
3CB2
100
AcDbEntity
  8
ACESSORIOS
100
AcDbVertex
100
AcDbPolygonMeshVertex
 10
1.484999999999615
 20
-438.0000000000001
 30
-14.31499999999991
 70
    64
  0
SEQEND
  5
3D56
330
3CB2
100
AcDbEntity
  8
ACESSORIOS
  0
VIEWPORT
  5
395C
330
73
100
AcDbEntity
 67
     1
  8
0
100
AcDbViewport
 10
210.0
 20
170.2366863905325
 30
0.0
 40
420.0
 41
340.4733727810651
 68
     1
 69
     1
 12
210.0
 22
170.2366863905325
 13
0.0
 23
0.0
 14
5.0
 24
5.0
 15
10.0
 25
10.0
 16
0.0
 26
0.0
 36
1.0
 17
0.0
 27
0.0
 37
0.0
 42
50.0
 43
0.0
 44
0.0
 45
340.4733727810651
 50
0.0
 51
0.0
 72
   100
 90
    32800
  1

281
     0
 71
     1
 74
     0
110
0.0
120
0.0
130
0.0
111
1.0
121
0.0
131
0.0
112
0.0
122
1.0
132
0.0
 79
     0
146
0.0
170
     0
 61
     5
348
25A3
292
     1
282
     1
141
0.0
142
0.0
 63
   250
421
  3355443
  0
ENDSEC
  0
SECTION
  2
OBJECTS
  0
DICTIONARY
  5
C
330
0
100
AcDbDictionary
281
     1
  3
ACAD_COLOR
350
6C
  3
ACAD_GROUP
350
D
  3
ACAD_LAYOUT
350
3D87
  3
ACAD_MATERIAL
350
6B
  3
ACAD_MLEADERSTYLE
350
25D3
  3
ACAD_MLINESTYLE
350
17
  3
ACAD_PLOTSETTINGS
350
19
  3
ACAD_PLOTSTYLENAME
350
3D83
  3
ACAD_SCALELIST
350
25B1
  3
ACAD_TABLESTYLE
350
92
  3
ACAD_VISUALSTYLE
350
259D
  3
ACDB_RECOMPOSE_DATA
350
27C6
  3
ACDBVARIABLEDICTIONARY
350
59
  0
DICTIONARY
  5
6C
102
{ACAD_REACTORS
330
C
102
}
330
C
100
AcDbDictionary
281
     1
  0
DICTIONARY
  5
D
102
{ACAD_REACTORS
330
C
102
}
330
C
100
AcDbDictionary
281
     1
  0
DICTIONARY
  5
3D87
102
{ACAD_REACTORS
330
C
102
}
330
C
100
AcDbDictionary
281
     1
  3
Layout1
350
3D89
  3
Model
350
3D88
  0
DICTIONARY
  5
6B
102
{ACAD_REACTORS
330
C
102
}
330
C
100
AcDbDictionary
281
     1
  3
BYBLOCK
350
258D
  3
BYLAYER
350
2585
  3
GLOBAL
350
2595
  0
DICTIONARY
  5
25D3
102
{ACAD_REACTORS
330
C
102
}
330
C
100
AcDbDictionary
281
     1
  3
STANDARD
350
25D4
  0
DICTIONARY
  5
17
102
{ACAD_REACTORS
330
C
102
}
330
C
100
AcDbDictionary
281
     1
  3
STANDARD
350
18
  0
DICTIONARY
  5
19
102
{ACAD_REACTORS
330
C
102
}
330
C
100
AcDbDictionary
281
     1
  3
E_PLOT_1ZU1
350
25C
  3
E_PLOT_ANGEPASST
350
25D
  3
LASER_A4
350
25E
  0
ACDBDICTIONARYWDFLT
  5
3D83
102
{ACAD_REACTORS
330
C
102
}
330
C
100
AcDbDictionary
281
     1
  3
Normal
350
3D84
100
AcDbDictionaryWithDefault
340
3D84
  0
DICTIONARY
  5
25B1
102
{ACAD_REACTORS
330
C
102
}
330
C
100
AcDbDictionary
281
     1
  3
A0
350
25B2
  3
A1
350
25B3
  3
A2
350
25B4
  3
A3
350
25B5
  3
A4
350
25B6
  3
A5
350
25B7
  3
A6
350
25B8
  3
A7
350
25B9
  3
A8
350
25BA
  3
A9
350
25BB
  3
B0
350
25BC
  3
B1
350
25BD
  3
B2
350
25BE
  3
B3
350
25BF
  3
B4
350
25C0
  3
B5
350
25C1
  3
B6
350
25C2
  3
B7
350
25C3
  3
B8
350
25C4
  3
B9
350
25C5
  3
C0
350
25C6
  3
C1
350
25C7
  3
C2
350
25C8
  3
C3
350
25C9
  3
C4
350
25CA
  3
C5
350
25CB
  3
C6
350
25CC
  3
C7
350
25CD
  3
C8
350
25CE
  3
C9
350
25CF
  3
D0
350
25D0
  3
D1
350
25D1
  3
D2
350
25D2
  0
DICTIONARY
  5
92
102
{ACAD_REACTORS
330
C
102
}
330
C
100
AcDbDictionary
281
     1
  3
Standard
350
3D86
  0
DICTIONARY
  5
259D
102
{ACAD_REACTORS
330
C
102
}
330
C
100
AcDbDictionary
281
     1
  3
2DWIREFRAME
350
25A3
  3
3D Hidden
350
3D85
  3
3D_HIDDEN
350
25A5
  3
3DWIREFRAME
350
25A4
  3
BASIC
350
25A2
  3
BRIGHTEN
350
25A9
  3
COLORCHANGE
350
25AD
  3
CONCEPTUAL
350
25A6
  3
DIM
350
25A8
  3
FACEPATTERN
350
25AC
  3
FLAT
350
259E
  3
FLATWITHEDGES
350
259F
  3
GOURAUD
350
25A0
  3
GOURAUDWITHEDGES
350
25A1
  3
LINEPATTERN
350
25AB
  3
REALISTIC
350
25A7
  3
THICKEN
350
25AA
  0
XRECORD
  5
27C6
102
{ACAD_REACTORS
330
C
102
}
330
C
100
AcDbXrecord
280
     1
 90
        1
330
25B0
  0
DICTIONARY
  5
59
102
{ACAD_REACTORS
330
C
102
}
330
C
100
AcDbDictionary
281
     1
  3
CANNOSCALE
350
27E3
  3
CMLEADERSTYLE
350
27E2
  3
CTABLESTYLE
350
27E1
  3
DIMASSOC
350
27E5
  3
HALOGAP
350
3977
  3
HIDETEXT
350
3B07
  3
INDEXCTL
350
27E4
  3
XCLIPFRAME
350
3978
  0
LAYOUT
  5
3D89
102
{ACAD_REACTORS
330
3D87
102
}
330
3D87
100
AcDbPlotSettings
  1

  2
Bullzip PDF Printer
  4

  6

 40
0.0
 41
0.0
 42
0.0
 43
0.0
 44
0.0
 45
0.0
 46
0.0
 47
0.0
 48
0.0
 49
0.0
140
0.0
141
0.0
142
1.0
143
1.0
 70
   688
 72
     0
 73
     0
 74
     5
  7

 75
    16
147
1.0
 76
     0
 77
     2
 78
   300
148
0.0
149
0.0
100
AcDbLayout
  1
Layout1
 70
     1
 71
     1
 10
0.0
 20
0.0
 11
420.0
 21
297.0
 12
0.0
 22
0.0
 32
0.0
 14
1.000000000000000E+20
 24
1.000000000000000E+20
 34
1.000000000000000E+20
 15
-1.000000000000000E+20
 25
-1.000000000000000E+20
 35
-1.000000000000000E+20
146
0.0
 13
0.0
 23
0.0
 33
0.0
 16
1.0
 26
0.0
 36
0.0
 17
0.0
 27
1.0
 37
0.0
 76
     0
330
73
331
395C
  0
LAYOUT
  5
3D88
102
{ACAD_REACTORS
330
3D87
102
}
330
3D87
100
AcDbPlotSettings
  1

  2
Bullzip PDF Printer
  4

  6

 40
0.0
 41
0.0
 42
0.0
 43
0.0
 44
0.0
 45
0.0
 46
0.0
 47
0.0
 48
0.0
 49
0.0
140
0.0
141
0.0
142
1.0
143
1.0
 70
  1712
 72
     0
 73
     0
 74
     0
  7

 75
     0
147
1.0
 76
     0
 77
     2
 78
   300
148
0.0
149
0.0
100
AcDbLayout
  1
Model
 70
     1
 71
     0
 10
0.0
 20
0.0
 11
12.0
 21
9.0
 12
0.0
 22
0.0
 32
0.0
 14
0.0
 24
0.0
 34
0.0
 15
0.0
 25
0.0
 35
0.0
146
0.0
 13
0.0
 23
0.0
 33
0.0
 16
1.0
 26
0.0
 36
0.0
 17
0.0
 27
1.0
 37
0.0
 76
     0
330
1F
331
97
  0
MATERIAL
  5
258D
102
{ACAD_XDICTIONARY
360
3D33
102
}
102
{ACAD_REACTORS
330
6B
102
}
330
6B
100
AcDbMaterial
  1
BYBLOCK
 72
     0
 43
0.0208333333333333
 43
0.0
 43
0.0
 43
0.0
 43
0.0
 43
0.0208333333333333
 43
0.0
 43
0.0
 43
0.0
 43
0.0
 43
1.0
 43
0.0
 43
0.0
 43
0.0
 43
0.0
 43
1.0
 77
     0
 47
0.0208333333333333
 47
0.0
 47
0.0
 47
0.0
 47
0.0
 47
0.0208333333333333
 47
0.0
 47
0.0
 47
0.0
 47
0.0
 47
1.0
 47
0.0
 47
0.0
 47
0.0
 47
0.0
 47
1.0
171
     0
 49
0.0208333333333333
 49
0.0
 49
0.0
 49
0.0
 49
0.0
 49
0.0208333333333333
 49
0.0
 49
0.0
 49
0.0
 49
0.0
 49
1.0
 49
0.0
 49
0.0
 49
0.0
 49
0.0
 49
1.0
175
     0
142
0.0208333333333333
142
0.0
142
0.0
142
0.0
142
0.0
142
0.0208333333333333
142
0.0
142
0.0
142
0.0
142
0.0
142
1.0
142
0.0
142
0.0
142
0.0
142
0.0
142
1.0
179
     0
144
0.0208333333333333
144
0.0
144
0.0
144
0.0
144
0.0
144
0.0208333333333333
144
0.0
144
0.0
144
0.0
144
0.0
144
1.0
144
0.0
144
0.0
144
0.0
144
0.0
144
1.0
147
0.0208333333333333
147
0.0
147
0.0
147
0.0
147
0.0
147
0.0208333333333333
147
0.0
147
0.0
147
0.0
147
0.0
147
1.0
147
0.0
147
0.0
147
0.0
147
0.0
147
1.0
  0
MATERIAL
  5
2585
102
{ACAD_XDICTIONARY
360
3D34
102
}
102
{ACAD_REACTORS
330
6B
102
}
330
6B
100
AcDbMaterial
  1
BYLAYER
 72
     0
 43
0.0208333333333333
 43
0.0
 43
0.0
 43
0.0
 43
0.0
 43
0.0208333333333333
 43
0.0
 43
0.0
 43
0.0
 43
0.0
 43
1.0
 43
0.0
 43
0.0
 43
0.0
 43
0.0
 43
1.0
 77
     0
 47
0.0208333333333333
 47
0.0
 47
0.0
 47
0.0
 47
0.0
 47
0.0208333333333333
 47
0.0
 47
0.0
 47
0.0
 47
0.0
 47
1.0
 47
0.0
 47
0.0
 47
0.0
 47
0.0
 47
1.0
171
     0
 49
0.0208333333333333
 49
0.0
 49
0.0
 49
0.0
 49
0.0
 49
0.0208333333333333
 49
0.0
 49
0.0
 49
0.0
 49
0.0
 49
1.0
 49
0.0
 49
0.0
 49
0.0
 49
0.0
 49
1.0
175
     0
142
0.0208333333333333
142
0.0
142
0.0
142
0.0
142
0.0
142
0.0208333333333333
142
0.0
142
0.0
142
0.0
142
0.0
142
1.0
142
0.0
142
0.0
142
0.0
142
0.0
142
1.0
179
     0
144
0.0208333333333333
144
0.0
144
0.0
144
0.0
144
0.0
144
0.0208333333333333
144
0.0
144
0.0
144
0.0
144
0.0
144
1.0
144
0.0
144
0.0
144
0.0
144
0.0
144
1.0
147
0.0208333333333333
147
0.0
147
0.0
147
0.0
147
0.0
147
0.0208333333333333
147
0.0
147
0.0
147
0.0
147
0.0
147
1.0
147
0.0
147
0.0
147
0.0
147
0.0
147
1.0
  0
MATERIAL
  5
2595
102
{ACAD_XDICTIONARY
360
3D35
102
}
102
{ACAD_REACTORS
330
6B
102
}
330
6B
100
AcDbMaterial
  1
GLOBAL
 72
     0
 43
0.0208333333333333
 43
0.0
 43
0.0
 43
0.0
 43
0.0
 43
0.0208333333333333
 43
0.0
 43
0.0
 43
0.0
 43
0.0
 43
1.0
 43
0.0
 43
0.0
 43
0.0
 43
0.0
 43
1.0
 77
     0
 47
0.0208333333333333
 47
0.0
 47
0.0
 47
0.0
 47
0.0
 47
0.0208333333333333
 47
0.0
 47
0.0
 47
0.0
 47
0.0
 47
1.0
 47
0.0
 47
0.0
 47
0.0
 47
0.0
 47
1.0
171
     0
 49
0.0208333333333333
 49
0.0
 49
0.0
 49
0.0
 49
0.0
 49
0.0208333333333333
 49
0.0
 49
0.0
 49
0.0
 49
0.0
 49
1.0
 49
0.0
 49
0.0
 49
0.0
 49
0.0
 49
1.0
175
     0
142
0.0208333333333333
142
0.0
142
0.0
142
0.0
142
0.0
142
0.0208333333333333
142
0.0
142
0.0
142
0.0
142
0.0
142
1.0
142
0.0
142
0.0
142
0.0
142
0.0
142
1.0
179
     0
144
0.0208333333333333
144
0.0
144
0.0
144
0.0
144
0.0
144
0.0208333333333333
144
0.0
144
0.0
144
0.0
144
0.0
144
1.0
144
0.0
144
0.0
144
0.0
144
0.0
144
1.0
147
0.0208333333333333
147
0.0
147
0.0
147
0.0
147
0.0
147
0.0208333333333333
147
0.0
147
0.0
147
0.0
147
0.0
147
1.0
147
0.0
147
0.0
147
0.0
147
0.0
147
1.0
  0
MLEADERSTYLE
  5
25D4
102
{ACAD_REACTORS
330
25D3
102
}
330
25D3
100
AcDbMLeaderStyle
170
     2
171
     1
172
     0
 90
        2
 40
0.0
 41
0.0
173
     1
 91
-1056964608
340
14
 92
       -2
290
     1
 42
2.0
291
     1
 43
0.36
  3
Standard
 44
4.0
300

342
11
174
     1
178
     6
175
     1
176
     0
 93
-1056964608
 45
4.0
292
     1
297
     1
 46
4.0
 94
-1056964608
 47
1.0
 49
1.0
140
1.0
293
     1
141
0.0
294
     1
177
     0
142
1.0
295
     1
296
     1
143
0.125
1001
ACAD_MLEADERVER
1070
     2
1001
ACAD
  0
MLINESTYLE
  5
18
102
{ACAD_REACTORS
330
17
102
}
330
17
100
AcDbMlineStyle
  2
STANDARD
 70
     0
  3

 62
     0
 51
90.0
 52
90.0
 71
     2
 49
0.5
 62
   256
  6
BYLAYER
 49
-0.5
 62
   256
  6
BYLAYER
  0
PLOTSETTINGS
  5
25C
102
{ACAD_REACTORS
330
19
102
}
330
19
100
AcDbPlotSettings
  1
e Plot 1zu1
  2
none_device
  4
Letter_(8.50_x_11.00_Inches)
  6

 40
6.349999999999999
 41
6.349999999999999
 42
6.350005079999999
 43
6.350005079999999
 44
215.9
 45
279.4
 46
58.27
 47
107.7
 48
0.0
 49
0.0
140
0.0
141
0.0
142
1.0
143
1.0
 70
  1712
 72
     0
 73
     0
 74
     1
  7

 75
    16
147
1.0
 76
     0
 77
     2
 78
   300
148
17.16613684218157
149
24.55902015156926
  0
PLOTSETTINGS
  5
25D
102
{ACAD_REACTORS
330
19
102
}
330
19
100
AcDbPlotSettings
  1
e Plot angepasst
  2
none_device
  4
Letter_(8.50_x_11.00_Inches)
  6

 40
6.349999999999999
 41
6.349999999999999
 42
6.350005079999999
 43
6.350005079999999
 44
215.9
 45
279.4
 46
0.0
 47
59.67
 48
0.0
 49
0.0
140
0.0
141
0.0
142
1.0
143
1.5000000375
 70
  1712
 72
     0
 73
     0
 74
     1
  7

 75
     0
147
0.66666665
 76
     0
 77
     2
 78
   300
148
17.16613684218157
149
24.55902015156926
  0
PLOTSETTINGS
  5
25E
102
{ACAD_REACTORS
330
19
102
}
330
19
100
AcDbPlotSettings
  1
Laser A4
  2
none_device
  4
Letter_(8.50_x_11.00_Inches)
  6

 40
6.349999999999999
 41
6.349999999999999
 42
6.350005079999999
 43
6.350005079999999
 44
215.9
 45
279.4
 46
0.0
 47
43.47999999999998
 48
0.0
 49
0.0
140
0.0
141
0.0
142
1.0
143
1.5000000375
 70
  1712
 72
     0
 73
     0
 74
     1
  7

 75
     0
147
0.66666665
 76
     0
 77
     2
 78
   300
148
2.014159285479876
149
2.014159285479876
  0
ACDBPLACEHOLDER
  5
3D84
102
{ACAD_REACTORS
330
3D83
102
}
330
3D83
  0
SCALE
  5
25B2
102
{ACAD_REACTORS
330
25B1
102
}
330
25B1
100
AcDbScale
 70
     0
300
1:1
140
1.0
141
1.0
290
     1
1001
ACAD
  0
SCALE
  5
25B3
102
{ACAD_REACTORS
330
25B1
102
}
330
25B1
100
AcDbScale
 70
     0
300
1:2
140
1.0
141
2.0
290
     1
1001
ACAD
  0
SCALE
  5
25B4
102
{ACAD_REACTORS
330
25B1
102
}
330
25B1
100
AcDbScale
 70
     0
300
1:4
140
1.0
141
4.0
290
     1
1001
ACAD
  0
SCALE
  5
25B5
102
{ACAD_REACTORS
330
25B1
102
}
330
25B1
100
AcDbScale
 70
     0
300
1:5
140
1.0
141
5.0
290
     1
1001
ACAD
  0
SCALE
  5
25B6
102
{ACAD_REACTORS
330
25B1
102
}
330
25B1
100
AcDbScale
 70
     0
300
1:8
140
1.0
141
8.0
290
     1
1001
ACAD
  0
SCALE
  5
25B7
102
{ACAD_REACTORS
330
25B1
102
}
330
25B1
100
AcDbScale
 70
     0
300
1:10
140
1.0
141
10.0
290
     1
1001
ACAD
  0
SCALE
  5
25B8
102
{ACAD_REACTORS
330
25B1
102
}
330
25B1
100
AcDbScale
 70
     0
300
1:16
140
1.0
141
16.0
290
     1
1001
ACAD
  0
SCALE
  5
25B9
102
{ACAD_REACTORS
330
25B1
102
}
330
25B1
100
AcDbScale
 70
     0
300
1:20
140
1.0
141
20.0
290
     1
1001
ACAD
  0
SCALE
  5
25BA
102
{ACAD_REACTORS
330
25B1
102
}
330
25B1
100
AcDbScale
 70
     0
300
1:30
140
1.0
141
30.0
290
     1
1001
ACAD
  0
SCALE
  5
25BB
102
{ACAD_REACTORS
330
25B1
102
}
330
25B1
100
AcDbScale
 70
     0
300
1:40
140
1.0
141
40.0
290
     1
1001
ACAD
  0
SCALE
  5
25BC
102
{ACAD_REACTORS
330
25B1
102
}
330
25B1
100
AcDbScale
 70
     0
300
1:50
140
1.0
141
50.0
290
     1
1001
ACAD
  0
SCALE
  5
25BD
102
{ACAD_REACTORS
330
25B1
102
}
330
25B1
100
AcDbScale
 70
     0
300
1:100
140
1.0
141
100.0
290
     1
1001
ACAD
  0
SCALE
  5
25BE
102
{ACAD_REACTORS
330
25B1
102
}
330
25B1
100
AcDbScale
 70
     0
300
2:1
140
2.0
141
1.0
290
     1
1001
ACAD
  0
SCALE
  5
25BF
102
{ACAD_REACTORS
330
25B1
102
}
330
25B1
100
AcDbScale
 70
     0
300
4:1
140
4.0
141
1.0
290
     1
1001
ACAD
  0
SCALE
  5
25C0
102
{ACAD_REACTORS
330
25B1
102
}
330
25B1
100
AcDbScale
 70
     0
300
8:1
140
8.0
141
1.0
290
     1
1001
ACAD
  0
SCALE
  5
25C1
102
{ACAD_REACTORS
330
25B1
102
}
330
25B1
100
AcDbScale
 70
     0
300
10:1
140
10.0
141
1.0
290
     1
1001
ACAD
  0
SCALE
  5
25C2
102
{ACAD_REACTORS
330
25B1
102
}
330
25B1
100
AcDbScale
 70
     0
300
100:1
140
100.0
141
1.0
290
     1
1001
ACAD
  0
SCALE
  5
25C3
102
{ACAD_REACTORS
330
25B1
102
}
330
25B1
100
AcDbScale
 70
     0
300
1/128" = 1'-0"
140
0.0078125
141
12.0
290
     1
1001
ACAD
  0
SCALE
  5
25C4
102
{ACAD_REACTORS
330
25B1
102
}
330
25B1
100
AcDbScale
 70
     0
300
1/64" = 1'-0"
140
0.015625
141
12.0
290
     1
1001
ACAD
  0
SCALE
  5
25C5
102
{ACAD_REACTORS
330
25B1
102
}
330
25B1
100
AcDbScale
 70
     0
300
1/32" = 1'-0"
140
0.03125
141
12.0
290
     1
1001
ACAD
  0
SCALE
  5
25C6
102
{ACAD_REACTORS
330
25B1
102
}
330
25B1
100
AcDbScale
 70
     0
300
1/16" = 1'-0"
140
0.0625
141
12.0
290
     1
1001
ACAD
  0
SCALE
  5
25C7
102
{ACAD_REACTORS
330
25B1
102
}
330
25B1
100
AcDbScale
 70
     0
300
3/32" = 1'-0"
140
0.09375
141
12.0
290
     1
1001
ACAD
  0
SCALE
  5
25C8
102
{ACAD_REACTORS
330
25B1
102
}
330
25B1
100
AcDbScale
 70
     0
300
1/8" = 1'-0"
140
0.125
141
12.0
290
     1
1001
ACAD
  0
SCALE
  5
25C9
102
{ACAD_REACTORS
330
25B1
102
}
330
25B1
100
AcDbScale
 70
     0
300
3/16" = 1'-0"
140
0.1875
141
12.0
290
     1
1001
ACAD
  0
SCALE
  5
25CA
102
{ACAD_REACTORS
330
25B1
102
}
330
25B1
100
AcDbScale
 70
     0
300
1/4" = 1'-0"
140
0.25
141
12.0
290
     1
1001
ACAD
  0
SCALE
  5
25CB
102
{ACAD_REACTORS
330
25B1
102
}
330
25B1
100
AcDbScale
 70
     0
300
3/8" = 1'-0"
140
0.375
141
12.0
290
     1
1001
ACAD
  0
SCALE
  5
25CC
102
{ACAD_REACTORS
330
25B1
102
}
330
25B1
100
AcDbScale
 70
     0
300
1/2" = 1'-0"
140
0.5
141
12.0
290
     1
1001
ACAD
  0
SCALE
  5
25CD
102
{ACAD_REACTORS
330
25B1
102
}
330
25B1
100
AcDbScale
 70
     0
300
3/4" = 1'-0"
140
0.75
141
12.0
290
     1
1001
ACAD
  0
SCALE
  5
25CE
102
{ACAD_REACTORS
330
25B1
102
}
330
25B1
100
AcDbScale
 70
     0
300
1" = 1'-0"
140
1.0
141
12.0
290
     1
1001
ACAD
  0
SCALE
  5
25CF
102
{ACAD_REACTORS
330
25B1
102
}
330
25B1
100
AcDbScale
 70
     0
300
1-1/2" = 1'-0"
140
1.5
141
12.0
290
     1
1001
ACAD
  0
SCALE
  5
25D0
102
{ACAD_REACTORS
330
25B1
102
}
330
25B1
100
AcDbScale
 70
     0
300
3" = 1'-0"
140
3.0
141
12.0
290
     1
1001
ACAD
  0
SCALE
  5
25D1
102
{ACAD_REACTORS
330
25B1
102
}
330
25B1
100
AcDbScale
 70
     0
300
6" = 1'-0"
140
6.0
141
12.0
290
     1
1001
ACAD
  0
SCALE
  5
25D2
102
{ACAD_REACTORS
330
25B1
102
}
330
25B1
100
AcDbScale
 70
     0
300
1'-0" = 1'-0"
140
12.0
141
12.0
290
     1
1001
ACAD
  0
TABLESTYLE
  5
3D86
102
{ACAD_REACTORS
330
92
102
}
330
92
100
AcDbTableStyle
  3
Standard
 70
     0
 71
     0
 40
1.5
 41
1.5
280
     0
281
     0
  7
STANDARD
140
4.5
170
     2
 62
     0
 63
     7
283
     0
 90
      512
 91
        0
  1

274
    -2
284
     1
 64
     0
275
    -2
285
     1
 65
     0
276
    -2
286
     1
 66
     0
277
    -2
287
     1
 67
     0
278
    -2
288
     1
 68
     0
279
    -2
289
     1
 69
     0
  7
STANDARD
140
6.0
170
     5
 62
     0
 63
     7
283
     0
 90
      512
 91
        0
  1

274
    -2
284
     1
 64
     0
275
    -2
285
     1
 65
     0
276
    -2
286
     1
 66
     0
277
    -2
287
     1
 67
     0
278
    -2
288
     1
 68
     0
279
    -2
289
     1
 69
     0
  7
STANDARD
140
4.5
170
     5
 62
     0
 63
     7
283
     0
 90
      512
 91
        0
  1

274
    -2
284
     1
 64
     0
275
    -2
285
     1
 65
     0
276
    -2
286
     1
 66
     0
277
    -2
287
     1
 67
     0
278
    -2
288
     1
 68
     0
279
    -2
289
     1
 69
     0
  0
VISUALSTYLE
  5
25A3
102
{ACAD_REACTORS
330
259D
102
}
330
259D
100
AcDbVisualStyle
  2
2dWireframe
 70
     4
 71
     0
 72
     2
 73
     0
 90
        0
 40
-0.6
 41
-30.0
 62
     5
 63
     7
 74
     1
 91
        4
 64
     7
 65
   257
 75
     1
175
     1
 42
1.0
 92
        0
 66
   257
 43
1.0
 76
     1
 77
     6
 78
     2
 67
     7
 79
     5
170
     0
171
     0
290
     1
174
     0
 93
        1
 44
0.0
173
     0
291
     1
 45
0.0
1001
ACAD
1000
AcDbSavedByObjectVersion
1070
     0
  0
VISUALSTYLE
  5
3D85
102
{ACAD_REACTORS
330
259D
102
}
330
259D
100
AcDbVisualStyle
  2
3D Hidden
 70
     6
 71
     1
 72
     2
 73
     2
 90
        0
 40
-0.6
 41
-30.0
 62
     5
 63
     7
421
 16777215
 74
     2
 91
        2
 64
     7
 65
   257
 75
     2
175
     1
 42
40.0
 92
        0
 66
   257
 43
1.0
 76
     1
 77
     6
 78
     2
 67
     7
 79
     3
170
     0
171
     0
290
     0
174
     0
 93
        1
 44
0.0
173
     0
291
     0
 45
0.0
  0
VISUALSTYLE
  5
25A5
102
{ACAD_REACTORS
330
259D
102
}
330
259D
100
AcDbVisualStyle
  2
3D Hidden
 70
     6
 71
     1
 72
     2
 73
     2
 90
        0
 40
-0.6
 41
-30.0
 62
     5
 63
     7
 74
     2
 91
        2
 64
     7
 65
   257
 75
     2
175
     1
 42
40.0
 92
        0
 66
   257
 43
1.0
 76
     1
 77
     6
 78
     2
 67
     7
 79
     3
170
     0
171
     0
290
     1
174
     0
 93
        1
 44
0.0
173
     0
291
     1
 45
0.0
1001
ACAD
1000
AcDbSavedByObjectVersion
1070
     0
  0
VISUALSTYLE
  5
25A4
102
{ACAD_REACTORS
330
259D
102
}
330
259D
100
AcDbVisualStyle
  2
3dWireframe
 70
     5
 71
     0
 72
     2
 73
     0
 90
        0
 40
-0.6
 41
-30.0
 62
     5
 63
     7
 74
     1
 91
        4
 64
     7
 65
   257
 75
     1
175
     1
 42
1.0
 92
        0
 66
   257
 43
1.0
 76
     1
 77
     6
 78
     2
 67
     7
 79
     5
170
     0
171
     0
290
     1
174
     0
 93
        1
 44
0.0
173
     0
291
     1
 45
0.0
1001
ACAD
1000
AcDbSavedByObjectVersion
1070
     0
  0
VISUALSTYLE
  5
25A2
102
{ACAD_REACTORS
330
259D
102
}
330
259D
100
AcDbVisualStyle
  2
Basic
 70
     7
 71
     1
 72
     0
 73
     1
 90
        0
 40
-0.6
 41
-30.0
 62
     5
 63
     7
 74
     0
 91
        4
 64
     7
 65
   257
 75
     1
175
     1
 42
1.0
 92
        8
 66
     7
 43
1.0
 76
     1
 77
     6
 78
     2
 67
     7
 79
     5
170
     0
171
     0
290
     1
174
     0
 93
        1
 44
0.0
173
     0
291
     1
 45
0.0
1001
ACAD
1000
AcDbSavedByObjectVersion
1070
     0
  0
VISUALSTYLE
  5
25A9
102
{ACAD_REACTORS
330
259D
102
}
330
259D
100
AcDbVisualStyle
  2
Brighten
 70
    12
 71
     2
 72
     2
 73
     0
 90
        0
 40
-0.6
 41
-30.0
 62
     5
 63
     7
 74
     1
 91
        4
 64
     7
 65
   257
 75
     1
175
     1
 42
1.0
 92
        8
 66
     7
 43
1.0
 76
     1
 77
     6
 78
     2
 67
     7
 79
     5
170
     0
171
     0
290
     1
174
     0
 93
        1
 44
50.0
173
     0
291
     1
 45
0.0
1001
ACAD
1000
AcDbSavedByObjectVersion
1070
     0
  0
VISUALSTYLE
  5
25AD
102
{ACAD_REACTORS
330
259D
102
}
330
259D
100
AcDbVisualStyle
  2
ColorChange
 70
    16
 71
     2
 72
     2
 73
     3
 90
        0
 40
-0.6
 41
-30.0
 62
     5
 63
     8
 74
     1
 91
        4
 64
     7
 65
   257
 75
     1
175
     1
 42
1.0
 92
        8
 66
     8
 43
1.0
 76
     1
 77
     6
 78
     2
 67
     7
 79
     5
170
     0
171
     0
290
     1
174
     0
 93
        1
 44
0.0
173
     0
291
     1
 45
0.0
1001
ACAD
1000
AcDbSavedByObjectVersion
1070
     0
  0
VISUALSTYLE
  5
25A6
102
{ACAD_REACTORS
330
259D
102
}
330
259D
100
AcDbVisualStyle
  2
Conceptual
 70
     9
 71
     3
 72
     2
 73
     0
 90
        0
 40
-0.6
 41
-30.0
 62
     5
 63
     7
 74
     2
 91
        2
 64
     7
 65
   257
 75
     1
175
     1
 42
40.0
 92
        8
 66
     7
 43
1.0
 76
     1
 77
     6
 78
     2
 67
     7
 79
     3
170
     0
171
     0
290
     1
174
     0
 93
        1
 44
0.0
173
     0
291
     1
 45
0.0
1001
ACAD
1000
AcDbSavedByObjectVersion
1070
     0
  0
VISUALSTYLE
  5
25A8
102
{ACAD_REACTORS
330
259D
102
}
330
259D
100
AcDbVisualStyle
  2
Dim
 70
    11
 71
     2
 72
     2
 73
     0
 90
        0
 40
-0.6
 41
-30.0
 62
     5
 63
     7
 74
     1
 91
        4
 64
     7
 65
   257
 75
     1
175
     1
 42
1.0
 92
        8
 66
     7
 43
1.0
 76
     1
 77
     6
 78
     2
 67
     7
 79
     5
170
     0
171
     0
290
     1
174
     0
 93
        1
 44
-50.0
173
     0
291
     1
 45
0.0
1001
ACAD
1000
AcDbSavedByObjectVersion
1070
     0
  0
VISUALSTYLE
  5
25AC
102
{ACAD_REACTORS
330
259D
102
}
330
259D
100
AcDbVisualStyle
  2
Facepattern
 70
    15
 71
     2
 72
     2
 73
     0
 90
        0
 40
-0.6
 41
-30.0
 62
     5
 63
     7
 74
     1
 91
        4
 64
     7
 65
   257
 75
     1
175
     1
 42
1.0
 92
        8
 66
     7
 43
1.0
 76
     1
 77
     6
 78
     2
 67
     7
 79
     5
170
     0
171
     0
290
     1
174
     0
 93
        1
 44
0.0
173
     0
291
     1
 45
0.0
1001
ACAD
1000
AcDbSavedByObjectVersion
1070
     0
  0
VISUALSTYLE
  5
259E
102
{ACAD_REACTORS
330
259D
102
}
330
259D
100
AcDbVisualStyle
  2
Flat
 70
     0
 71
     2
 72
     1
 73
     1
 90
        2
 40
-0.6
 41
30.0
 62
     5
 63
     7
 74
     0
 91
        4
 64
     7
 65
   257
 75
     1
175
     1
 42
1.0
 92
        8
 66
     7
 43
1.0
 76
     1
 77
     6
 78
     2
 67
     7
 79
     5
170
     0
171
     0
290
     1
174
     0
 93
       13
 44
0.0
173
     0
291
     1
 45
0.0
1001
ACAD
1000
AcDbSavedByObjectVersion
1070
     0
  0
VISUALSTYLE
  5
259F
102
{ACAD_REACTORS
330
259D
102
}
330
259D
100
AcDbVisualStyle
  2
FlatWithEdges
 70
     1
 71
     2
 72
     1
 73
     1
 90
        2
 40
-0.6
 41
30.0
 62
     5
 63
     7
 74
     1
 91
        4
 64
     7
 65
   257
 75
     1
175
     1
 42
1.0
 92
        0
 66
   257
 43
1.0
 76
     1
 77
     6
 78
     2
 67
     7
 79
     5
170
     0
171
     0
290
     1
174
     0
 93
       13
 44
0.0
173
     0
291
     1
 45
0.0
1001
ACAD
1000
AcDbSavedByObjectVersion
1070
     0
  0
VISUALSTYLE
  5
25A0
102
{ACAD_REACTORS
330
259D
102
}
330
259D
100
AcDbVisualStyle
  2
Gouraud
 70
     2
 71
     2
 72
     2
 73
     1
 90
        2
 40
-0.6
 41
30.0
 62
     5
 63
     7
 74
     0
 91
        4
 64
     7
 65
   257
 75
     1
175
     1
 42
1.0
 92
        0
 66
     7
 43
1.0
 76
     1
 77
     6
 78
     2
 67
     7
 79
     5
170
     0
171
     0
290
     1
174
     0
 93
       13
 44
0.0
173
     0
291
     1
 45
0.0
1001
ACAD
1000
AcDbSavedByObjectVersion
1070
     0
  0
VISUALSTYLE
  5
25A1
102
{ACAD_REACTORS
330
259D
102
}
330
259D
100
AcDbVisualStyle
  2
GouraudWithEdges
 70
     3
 71
     2
 72
     2
 73
     1
 90
        2
 40
-0.6
 41
30.0
 62
     5
 63
     7
 74
     1
 91
        4
 64
     7
 65
   257
 75
     1
175
     1
 42
1.0
 92
        0
 66
   257
 43
1.0
 76
     1
 77
     6
 78
     2
 67
     7
 79
     5
170
     0
171
     0
290
     1
174
     0
 93
       13
 44
0.0
173
     0
291
     1
 45
0.0
1001
ACAD
1000
AcDbSavedByObjectVersion
1070
     0
  0
VISUALSTYLE
  5
25AB
102
{ACAD_REACTORS
330
259D
102
}
330
259D
100
AcDbVisualStyle
  2
Linepattern
 70
    14
 71
     2
 72
     2
 73
     0
 90
        0
 40
-0.6
 41
-30.0
 62
     5
 63
     7
 74
     1
 91
        4
 64
     7
 65
   257
 75
     7
175
     7
 42
1.0
 92
        8
 66
     7
 43
1.0
 76
     1
 77
     6
 78
     2
 67
     7
 79
     5
170
     0
171
     0
290
     1
174
     0
 93
        1
 44
0.0
173
     0
291
     1
 45
0.0
1001
ACAD
1000
AcDbSavedByObjectVersion
1070
     0
  0
VISUALSTYLE
  5
25A7
102
{ACAD_REACTORS
330
259D
102
}
330
259D
100
AcDbVisualStyle
  2
Realistic
 70
     8
 71
     2
 72
     2
 73
     0
 90
        0
 40
-0.6
 41
-30.0
 62
     5
 63
     7
 74
     1
 91
        0
 64
     7
 65
   257
 75
     1
175
     1
 42
1.0
 92
        8
 66
     8
 43
1.0
 76
     1
 77
     6
 78
     2
 67
     7
 79
     5
170
     0
171
     0
290
     1
174
     0
 93
       13
 44
0.0
173
     0
291
     1
 45
0.0
1001
ACAD
1000
AcDbSavedByObjectVersion
1070
     0
  0
VISUALSTYLE
  5
25AA
102
{ACAD_REACTORS
330
259D
102
}
330
259D
100
AcDbVisualStyle
  2
Thicken
 70
    13
 71
     2
 72
     2
 73
     0
 90
        0
 40
-0.6
 41
-30.0
 62
     5
 63
     7
 74
     1
 91
        4
 64
     7
 65
   257
 75
     1
175
     1
 42
1.0
 92
       12
 66
     7
 43
1.0
 76
     1
 77
     6
 78
     2
 67
     7
 79
     5
170
     0
171
     0
290
     1
174
     0
 93
        1
 44
0.0
173
     0
291
     1
 45
0.0
1001
ACAD
1000
AcDbSavedByObjectVersion
1070
     0
  0
DICTIONARYVAR
  5
27E3
102
{ACAD_REACTORS
330
59
102
}
330
59
100
DictionaryVariables
280
     0
  1
1:1
  0
DICTIONARYVAR
  5
27E2
102
{ACAD_REACTORS
330
59
102
}
330
59
100
DictionaryVariables
280
     0
  1
STANDARD
  0
DICTIONARYVAR
  5
27E1
102
{ACAD_REACTORS
330
59
102
}
330
59
100
DictionaryVariables
280
     0
  1
STANDARD
  0
DICTIONARYVAR
  5
27E5
102
{ACAD_REACTORS
330
59
102
}
330
59
100
DictionaryVariables
280
     0
  1
1
  0
DICTIONARYVAR
  5
3977
102
{ACAD_REACTORS
330
59
102
}
330
59
100
DictionaryVariables
280
     0
  1
0
  0
DICTIONARYVAR
  5
3B07
102
{ACAD_REACTORS
330
59
102
}
330
59
100
DictionaryVariables
280
     0
  1
1
  0
DICTIONARYVAR
  5
27E4
102
{ACAD_REACTORS
330
59
102
}
330
59
100
DictionaryVariables
280
     0
  1
0
  0
DICTIONARYVAR
  5
3978
102
{ACAD_REACTORS
330
59
102
}
330
59
100
DictionaryVariables
280
     0
  1
0
  0
DICTIONARY
  5
3D33
330
258D
100
AcDbDictionary
280
     1
281
     1
  3
ACAD_XREC_ROUNDTRIP
360
3D7A
  3
BUMPTILE
360
2590
  3
DIFFUSETILE
360
258F
  3
OPACITYTILE
360
2593
  3
REFLECTIONTILE
360
2592
  3
REFRACTIONTILE
360
2594
  3
SPECULARTILE
360
2591
  0
DICTIONARY
  5
3D34
330
2585
100
AcDbDictionary
280
     1
281
     1
  3
ACAD_XREC_ROUNDTRIP
360
3D7B
  3
BUMPTILE
360
2588
  3
DIFFUSETILE
360
2587
  3
OPACITYTILE
360
258B
  3
REFLECTIONTILE
360
258A
  3
REFRACTIONTILE
360
258C
  3
SPECULARTILE
360
2589
  0
DICTIONARY
  5
3D35
330
2595
100
AcDbDictionary
280
     1
281
     1
  3
ACAD_XREC_ROUNDTRIP
360
3D7C
  3
BUMPTILE
360
2598
  3
DIFFUSETILE
360
2597
  3
OPACITYTILE
360
259B
  3
REFLECTIONTILE
360
259A
  3
REFRACTIONTILE
360
259C
  3
SPECULARTILE
360
2599
  0
XRECORD
  5
3D7A
102
{ACAD_REACTORS
330
3D33
102
}
330
3D33
100
AcDbXrecord
280
     1
102
MATERIAL
148
0.0
149
0.0
149
0.0
 93
        0
 94
      127
282
     0
 72
     0
 77
     0
171
     0
175
     0
179
     0
273
     0
  0
XRECORD
  5
2590
102
{ACAD_REACTORS
330
3D33
102
}
330
3D33
100
AcDbXrecord
280
     1
270
     1
271
     1
  0
XRECORD
  5
258F
102
{ACAD_REACTORS
330
3D33
102
}
330
3D33
100
AcDbXrecord
280
     1
270
     1
271
     1
  0
XRECORD
  5
2593
102
{ACAD_REACTORS
330
3D33
102
}
330
3D33
100
AcDbXrecord
280
     1
270
     1
271
     1
  0
XRECORD
  5
2592
102
{ACAD_REACTORS
330
3D33
102
}
330
3D33
100
AcDbXrecord
280
     1
270
     1
271
     1
  0
XRECORD
  5
2594
102
{ACAD_REACTORS
330
3D33
102
}
330
3D33
100
AcDbXrecord
280
     1
270
     1
271
     1
  0
XRECORD
  5
2591
102
{ACAD_REACTORS
330
3D33
102
}
330
3D33
100
AcDbXrecord
280
     1
270
     1
271
     1
  0
XRECORD
  5
3D7B
102
{ACAD_REACTORS
330
3D34
102
}
330
3D34
100
AcDbXrecord
280
     1
102
MATERIAL
148
0.0
149
0.0
149
0.0
 93
        0
 94
      127
282
     0
 72
     0
 77
     0
171
     0
175
     0
179
     0
273
     0
  0
XRECORD
  5
2588
102
{ACAD_REACTORS
330
3D34
102
}
330
3D34
100
AcDbXrecord
280
     1
270
     1
271
     1
  0
XRECORD
  5
2587
102
{ACAD_REACTORS
330
3D34
102
}
330
3D34
100
AcDbXrecord
280
     1
270
     1
271
     1
  0
XRECORD
  5
258B
102
{ACAD_REACTORS
330
3D34
102
}
330
3D34
100
AcDbXrecord
280
     1
270
     1
271
     1
  0
XRECORD
  5
258A
102
{ACAD_REACTORS
330
3D34
102
}
330
3D34
100
AcDbXrecord
280
     1
270
     1
271
     1
  0
XRECORD
  5
258C
102
{ACAD_REACTORS
330
3D34
102
}
330
3D34
100
AcDbXrecord
280
     1
270
     1
271
     1
  0
XRECORD
  5
2589
102
{ACAD_REACTORS
330
3D34
102
}
330
3D34
100
AcDbXrecord
280
     1
270
     1
271
     1
  0
XRECORD
  5
3D7C
102
{ACAD_REACTORS
330
3D35
102
}
330
3D35
100
AcDbXrecord
280
     1
102
MATERIAL
148
0.0
149
0.0
149
0.0
 93
        0
 94
      127
282
     0
 72
     0
 77
     0
171
     0
175
     0
179
     0
273
     0
  0
XRECORD
  5
2598
102
{ACAD_REACTORS
330
3D35
102
}
330
3D35
100
AcDbXrecord
280
     1
270
     1
271
     1
  0
XRECORD
  5
2597
102
{ACAD_REACTORS
330
3D35
102
}
330
3D35
100
AcDbXrecord
280
     1
270
     1
271
     1
  0
XRECORD
  5
259B
102
{ACAD_REACTORS
330
3D35
102
}
330
3D35
100
AcDbXrecord
280
     1
270
     1
271
     1
  0
XRECORD
  5
259A
102
{ACAD_REACTORS
330
3D35
102
}
330
3D35
100
AcDbXrecord
280
     1
270
     1
271
     1
  0
XRECORD
  5
259C
102
{ACAD_REACTORS
330
3D35
102
}
330
3D35
100
AcDbXrecord
280
     1
270
     1
271
     1
  0
XRECORD
  5
2599
102
{ACAD_REACTORS
330
3D35
102
}
330
3D35
100
AcDbXrecord
280
     1
270
     1
271
     1
  0
ENDSEC
  0
EOF
