0
SECTION
2
HEADER
9
$ACADVER
1
AC1009
0
ENDSEC
0
SECTION
2
TABLES
0
TABLE
2
LAYER
70
1
0
LAYER
2
ACESSORIO
70
0
62
254
6
CONTINUOUS
0
ENDTAB
0
ENDSEC
0
SECTION
2
ENTITIES
0
3DFACE
8
ACESSORIO
10
9.5
20
0
30
6
11
10.5
21
0
31
6
12
10.5
22
0
32
0
13
9.5
23
0
33
1
0
3DFACE
8
ACESSORIO
10
10.5
20
0
30
0
11
9.5
21
0
31
1
12
1.5
22
0
32
1
13
0.5
23
0
33
0
0
3DFACE
8
ACESSORIO
10
1.5
20
0
30
1
11
0.5
21
0
31
0
12
0.5
22
0
32
45
13
1.5
23
0
33
44
0
3DFACE
8
ACESSORIO
10
0.5
20
0
30
45
11
1.5
21
0
31
44
12
9.5
22
0
32
44
13
10.5
23
0
33
45
0
3DFACE
8
ACESSORIO
10
9.5
20
0
30
44
11
10.5
21
0
31
45
12
10.5
22
0
32
39
13
9.5
23
0
33
39
0
3DFACE
8
ACESSORIO
10
9.5
20
-475
30
44
11
10.5
21
-475
31
45
12
10.5
22
-475
32
39
13
9.5
23
-475
33
39
0
3DFACE
8
ACESSORIO
10
0.5
20
-475
30
45
11
1.5
21
-475
31
44
12
9.5
22
-475
32
44
13
10.5
23
-475
33
45
0
3DFACE
8
ACESSORIO
10
1.5
20
-475
30
1
11
0.5
21
-475
31
0
12
0.5
22
-475
32
45
13
1.5
23
-475
33
44
0
3DFACE
8
ACESSORIO
10
10.5
20
-475
30
0
11
9.5
21
-475
31
1
12
1.5
22
-475
32
1
13
0.5
23
-475
33
0
0
3DFACE
8
ACESSORIO
10
9.5
20
-475
30
6
11
10.5
21
-475
31
6
12
10.5
22
-475
32
0
13
9.5
23
-475
33
1
0
3DFACE
8
ACESSORIO
10
9
20
-475
30
169
11
10
21
-475
31
169
12
10
22
-475
32
175
13
9
23
-475
33
174
0
3DFACE
8
ACESSORIO
10
10
20
-475
30
175
11
9
21
-475
31
174
12
1
22
-475
32
174
13
0
23
-475
33
175
0
3DFACE
8
ACESSORIO
10
1
20
-475
30
174
11
0
21
-475
31
175
12
0
22
-475
32
130
13
1
23
-475
33
131
0
3DFACE
8
ACESSORIO
10
0
20
-475
30
130
11
1
21
-475
31
131
12
9
22
-475
32
131
13
10
23
-475
33
130
0
3DFACE
8
ACESSORIO
10
9
20
-475
30
131
11
10
21
-475
31
130
12
10
22
-475
32
136
13
9
23
-475
33
136
0
3DFACE
8
ACESSORIO
10
9
20
0
30
131
11
10
21
0
31
130
12
10
22
0
32
136
13
9
23
0
33
136
0
3DFACE
8
ACESSORIO
10
0
20
0
30
130
11
1
21
0
31
131
12
9
22
0
32
131
13
10
23
0
33
130
0
3DFACE
8
ACESSORIO
10
1
20
0
30
174
11
0
21
0
31
175
12
0
22
0
32
130
13
1
23
0
33
131
0
3DFACE
8
ACESSORIO
10
10
20
0
30
175
11
9
21
0
31
174
12
1
22
0
32
174
13
0
23
0
33
175
0
3DFACE
8
ACESSORIO
10
9
20
0
30
169
11
10
21
0
31
169
12
10
22
0
32
175
13
9
23
0
33
174
0
3DFACE
8
ACESSORIO
10
9.5
20
0
30
44
11
1.5
21
0
31
44
12
1.5
22
-475
32
44
13
9.5
23
-475
33
44
0
3DFACE
8
ACESSORIO
10
1.5
20
0
30
44
11
1.5
21
0
31
1
12
1.5
22
-475
32
1
13
1.5
23
-475
33
44
0
3DFACE
8
ACESSORIO
10
1.5
20
0
30
1
11
9.5
21
0
31
1
12
9.5
22
-475
32
1
13
1.5
23
-475
33
1
0
3DFACE
8
ACESSORIO
10
9.5
20
0
30
1
11
9.5
21
0
31
6
12
9.5
22
-475
32
6
13
9.5
23
-475
33
1
0
3DFACE
8
ACESSORIO
10
9.5
20
0
30
6
11
10.5
21
0
31
6
12
10.5
22
-475
32
6
13
9.5
23
-475
33
6
0
3DFACE
8
ACESSORIO
10
10.5
20
0
30
6
11
10.5
21
0
31
0
12
10.5
22
-475
32
0
13
10.5
23
-475
33
6
0
3DFACE
8
ACESSORIO
10
10.5
20
0
30
0
11
0.5
21
0
31
0
12
0.5
22
-475
32
0
13
10.5
23
-475
33
0
0
3DFACE
8
ACESSORIO
10
0.5
20
0
30
0
11
0.5
21
0
31
45
12
0.5
22
-475
32
45
13
0.5
23
-475
33
0
0
3DFACE
8
ACESSORIO
10
0.5
20
0
30
45
11
10.5
21
0
31
45
12
10.5
22
-475
32
45
13
0.5
23
-475
33
45
0
3DFACE
8
ACESSORIO
10
10.5
20
0
30
45
11
10.5
21
0
31
39
12
10.5
22
-475
32
39
13
10.5
23
-475
33
45
0
3DFACE
8
ACESSORIO
10
10.5
20
0
30
39
11
9.5
21
0
31
39
12
9.5
22
-475
32
39
13
10.5
23
-475
33
39
0
3DFACE
8
ACESSORIO
10
9.5
20
0
30
39
11
9.5
21
0
31
44
12
9.5
22
-475
32
44
13
9.5
23
-475
33
39
0
3DFACE
8
ACESSORIO
10
9
20
0
30
131
11
1
21
0
31
131
12
1
22
-475
32
131
13
9
23
-475
33
131
0
3DFACE
8
ACESSORIO
10
1
20
0
30
131
11
1
21
0
31
174
12
1
22
-475
32
174
13
1
23
-475
33
131
0
3DFACE
8
ACESSORIO
10
1
20
0
30
174
11
9
21
0
31
174
12
9
22
-475
32
174
13
1
23
-475
33
174
0
3DFACE
8
ACESSORIO
10
9
20
0
30
174
11
9
21
0
31
169
12
9
22
-475
32
169
13
9
23
-475
33
174
0
3DFACE
8
ACESSORIO
10
9
20
0
30
169
11
10
21
0
31
169
12
10
22
-475
32
169
13
9
23
-475
33
169
0
3DFACE
8
ACESSORIO
10
10
20
0
30
169
11
10
21
0
31
175
12
10
22
-475
32
175
13
10
23
-475
33
169
0
3DFACE
8
ACESSORIO
10
10
20
0
30
175
11
0
21
0
31
175
12
0
22
-475
32
175
13
10
23
-475
33
175
0
3DFACE
8
ACESSORIO
10
0
20
0
30
175
11
0
21
0
31
130
12
0
22
-475
32
130
13
0
23
-475
33
175
0
3DFACE
8
ACESSORIO
10
0
20
0
30
130
11
10
21
0
31
130
12
10
22
-475
32
130
13
0
23
-475
33
130
0
3DFACE
8
ACESSORIO
10
10
20
0
30
130
11
10
21
0
31
136
12
10
22
-475
32
136
13
10
23
-475
33
130
0
3DFACE
8
ACESSORIO
10
10
20
0
30
136
11
9
21
0
31
136
12
9
22
-475
32
136
13
10
23
-475
33
136
0
3DFACE
8
ACESSORIO
10
9
20
0
30
136
11
9
21
0
31
131
12
9
22
-475
32
131
13
9
23
-475
33
136
0
ENDSEC
0
EOF
