  0
SECTION
  2
HEADER
  9
$ACADVER
  1
AC1009
  9
$DWGCODEPAGE
  3
ansi_1252
  9
$INSBASE
 10
0.0
 20
0.0
 30
0.0
  9
$EXTMIN
 10
-177.5
 20
-26.48611450195311
 30
-5.0
  9
$EXTMAX
 10
177.6654663085938
 20
0.0
 30
5.07400512695321
  9
$LIMMIN
 10
0.0
 20
0.0
  9
$LIMMAX
 10
12.0
 20
9.0
  9
$ORTHOMODE
 70
     1
  9
$REGENMODE
 70
     1
  9
$FILLMODE
 70
     1
  9
$QTEXTMODE
 70
     0
  9
$MIRRTEXT
 70
     1
  9
$DRAGMODE
 70
     2
  9
$LTSCALE
 40
1.0
  9
$OSMODE
 70
    37
  9
$ATTMODE
 70
     1
  9
$TEXTSIZE
 40
0.2
  9
$TRACEWID
 40
0.05
  9
$TEXTSTYLE
  7
STANDARD
  9
$CLAYER
  8
0
  9
$CELTYPE
  6
BYLAYER
  9
$CECOLOR
 62
   256
  9
$DIMSCALE
 40
1.0
  9
$DIMASZ
 40
0.18
  9
$DIMEXO
 40
0.0625
  9
$DIMDLI
 40
0.38
  9
$DIMRND
 40
0.0
  9
$DIMDLE
 40
0.0
  9
$DIMEXE
 40
0.18
  9
$DIMTP
 40
0.0
  9
$DIMTM
 40
0.0
  9
$DIMTXT
 40
0.18
  9
$DIMCEN
 40
0.09
  9
$DIMTSZ
 40
0.0
  9
$DIMTOL
 70
     0
  9
$DIMLIM
 70
     0
  9
$DIMTIH
 70
     1
  9
$DIMTOH
 70
     1
  9
$DIMSE1
 70
     0
  9
$DIMSE2
 70
     0
  9
$DIMTAD
 70
     0
  9
$DIMZIN
 70
     0
  9
$DIMBLK
  1

  9
$DIMASO
 70
     1
  9
$DIMSHO
 70
     1
  9
$DIMPOST
  1

  9
$DIMAPOST
  1

  9
$DIMALT
 70
     0
  9
$DIMALTD
 70
     2
  9
$DIMALTF
 40
25.4
  9
$DIMLFAC
 40
1.0
  9
$DIMTOFL
 70
     0
  9
$DIMTVP
 40
0.0
  9
$DIMTIX
 70
     0
  9
$DIMSOXD
 70
     0
  9
$DIMSAH
 70
     0
  9
$DIMBLK1
  1

  9
$DIMBLK2
  1

  9
$DIMSTYLE
  2
STANDARD
  9
$DIMCLRD
 70
     0
  9
$DIMCLRE
 70
     0
  9
$DIMCLRT
 70
     0
  9
$DIMTFAC
 40
1.0
  9
$DIMGAP
 40
0.09
  9
$LUNITS
 70
     2
  9
$LUPREC
 70
     3
  9
$SKETCHINC
 40
0.1
  9
$FILLETRAD
 40
0.5
  9
$AUNITS
 70
     0
  9
$AUPREC
 70
     0
  9
$MENU
  1
.
  9
$ELEVATION
 40
0.0
  9
$PELEVATION
 40
0.0
  9
$THICKNESS
 40
0.0
  9
$LIMCHECK
 70
     0
  9
$CHAMFERA
 40
0.5
  9
$CHAMFERB
 40
0.5
  9
$SKPOLY
 70
     0
  9
$TDCREATE
 40
2456498.447957952
  9
$TDUPDATE
 40
2456498.447957952
  9
$TDINDWG
 40
0.0014236227
  9
$TDUSRTIMER
 40
0.0014236227
  9
$USRTIMER
 70
     1
  9
$ANGBASE
 50
0.0
  9
$ANGDIR
 70
     0
  9
$PDMODE
 70
     0
  9
$PDSIZE
 40
0.0
  9
$PLINEWID
 40
0.0
  9
$COORDS
 70
     1
  9
$SPLFRAME
 70
     0
  9
$SPLINETYPE
 70
     6
  9
$SPLINESEGS
 70
     8
  9
$ATTDIA
 70
     0
  9
$ATTREQ
 70
     1
  9
$HANDLING
 70
     1
  9
$HANDSEED
  5
44D
  9
$SURFTAB1
 70
     6
  9
$SURFTAB2
 70
     6
  9
$SURFTYPE
 70
     6
  9
$SURFU
 70
     6
  9
$SURFV
 70
     6
  9
$UCSNAME
  2

  9
$UCSORG
 10
0.0
 20
0.0
 30
0.0
  9
$UCSXDIR
 10
1.0
 20
0.0
 30
0.0
  9
$UCSYDIR
 10
0.0
 20
0.0
 30
1.0
  9
$PUCSNAME
  2

  9
$PUCSORG
 10
0.0
 20
0.0
 30
0.0
  9
$PUCSXDIR
 10
1.0
 20
0.0
 30
0.0
  9
$PUCSYDIR
 10
0.0
 20
1.0
 30
0.0
  9
$USERI1
 70
     0
  9
$USERI2
 70
     0
  9
$USERI3
 70
     0
  9
$USERI4
 70
     0
  9
$USERI5
 70
     0
  9
$USERR1
 40
0.0
  9
$USERR2
 40
0.0
  9
$USERR3
 40
0.0
  9
$USERR4
 40
0.0
  9
$USERR5
 40
0.0
  9
$WORLDVIEW
 70
     1
  9
$SHADEDGE
 70
     3
  9
$SHADEDIF
 70
    70
  9
$TILEMODE
 70
     1
  9
$MAXACTVP
 70
    64
  9
$PLIMCHECK
 70
     0
  9
$PEXTMIN
 10
1.000000000000000E+20
 20
1.000000000000000E+20
 30
1.000000000000000E+20
  9
$PEXTMAX
 10
-1.000000000000000E+20
 20
-1.000000000000000E+20
 30
-1.000000000000000E+20
  9
$PLIMMIN
 10
0.0
 20
0.0
  9
$PLIMMAX
 10
12.0
 20
9.0
  9
$UNITMODE
 70
     0
  9
$VISRETAIN
 70
     1
  9
$PLINEGEN
 70
     0
  9
$PSLTSCALE
 70
     1
  0
ENDSEC
  0
SECTION
  2
TABLES
  0
TABLE
  2
VPORT
 70
     1
  0
VPORT
  2
*ACTIVE
 70
     0
 10
0.0
 20
0.0
 11
1.0
 21
1.0
 12
9.422756760239471
 22
-5.34246734785565
 13
0.0
 23
0.0
 14
0.5
 24
0.5
 15
0.5
 25
0.5
 16
-1.0
 26
-1.0
 36
1.0
 17
0.0
 27
0.0
 37
0.0
 40
209.1433451054565
 41
39.36139128329135
 42
50.0
 43
0.0
 44
0.0
 50
0.0
 51
0.0
 71
    16
 72
   100
 73
     0
 74
     1
 75
     0
 76
     0
 77
     0
 78
     0
  0
ENDTAB
  0
TABLE
  2
LTYPE
 70
     1
  0
LTYPE
  2
CONTINUOUS
 70
     0
  3
Solid line
 72
    65
 73
     0
 40
0.0
  0
ENDTAB
  0
TABLE
  2
LAYER
 70
     2
  0
LAYER
  2
0
 70
     0
 62
     7
  6
CONTINUOUS
  0
LAYER
  2
METAL
 70
     0
 62
   190
  6
CONTINUOUS
  0
ENDTAB
  0
TABLE
  2
STYLE
 70
     1
  0
STYLE
  2
STANDARD
 70
     0
 40
0.0
 41
1.0
 50
0.0
 71
     0
 42
0.2
  3
txt
  4

  0
ENDTAB
  0
TABLE
  2
VIEW
 70
     0
  0
ENDTAB
  0
TABLE
  2
UCS
 70
     0
  0
ENDTAB
  0
TABLE
  2
APPID
 70
     1
  0
APPID
  2
ACAD
 70
     0
  0
ENDTAB
  0
TABLE
  2
DIMSTYLE
 70
     1
  0
DIMSTYLE
  2
STANDARD
 70
     0
  3

  4

  5

  6

  7

 40
1.0
 41
0.18
 42
0.0625
 43
0.38
 44
0.18
 45
0.0
 46
0.0
 47
0.0
 48
0.0
140
0.18
141
0.09
142
0.0
143
25.4
144
1.0
145
0.0
146
1.0
147
0.09
 71
     0
 72
     0
 73
     1
 74
     1
 75
     0
 76
     0
 77
     0
 78
     0
170
     0
171
     2
172
     0
173
     0
174
     0
175
     0
176
     0
177
     0
178
     0
  0
ENDTAB
  0
ENDSEC
  0
SECTION
  2
BLOCKS
  0
BLOCK
  8
0
  2
$MODEL_SPACE
 70
     0
 10
0.0
 20
0.0
 30
0.0
  3
$MODEL_SPACE
  1

  0
ENDBLK
  5
21
  8
0
  0
BLOCK
 67
     1
  8
0
  2
$PAPER_SPACE
 70
     0
 10
0.0
 20
0.0
 30
0.0
  3
$PAPER_SPACE
  1

  0
ENDBLK
  5
76
 67
     1
  8
0
  0
ENDSEC
  0
SECTION
  2
ENTITIES
  0
POLYLINE
  5
3C
  8
METAL
 66
     1
 10
0.0
 20
0.0
 30
0.0
 70
    64
 71
   502
 72
   340
  0
VERTEX
  5
3D
  8
METAL
 10
177.6654663085938
 20
-12.43742370605469
 30
2.152030944824304
 70
   192
  0
VERTEX
  5
3E
  8
METAL
 10
177.6654663085938
 20
-12.43742370605469
 30
2.152030944824304
 70
   192
  0
VERTEX
  5
3F
  8
METAL
 10
177.6654663085938
 20
-12.43742370605469
 30
-2.078025817871094
 70
   192
  0
VERTEX
  5
40
  8
METAL
 10
177.6654663085938
 20
-12.43742370605469
 30
-2.078025817871094
 70
   192
  0
VERTEX
  5
41
  8
METAL
 10
177.5936279296875
 20
-12.2013397216797
 30
3.012466430664119
 70
   192
  0
VERTEX
  5
42
  8
METAL
 10
177.5936279296875
 20
-12.2013397216797
 30
3.012466430664119
 70
   192
  0
VERTEX
  5
43
  8
METAL
 10
177.5936279296875
 20
-12.2013397216797
 30
3.012466430664119
 70
   192
  0
VERTEX
  5
44
  8
METAL
 10
177.5936279296875
 20
-12.2013244628906
 30
-2.938461303710881
 70
   192
  0
VERTEX
  5
45
  8
METAL
 10
177.5936279296875
 20
-12.2013244628906
 30
-2.938461303710881
 70
   192
  0
VERTEX
  5
46
  8
METAL
 10
177.5936279296875
 20
-12.2013244628906
 30
-2.938461303710881
 70
   192
  0
VERTEX
  5
47
  8
METAL
 10
177.3780822753906
 20
-11.49307250976561
 30
3.528724670410213
 70
   192
  0
VERTEX
  5
48
  8
METAL
 10
177.3780822753906
 20
-11.49307250976561
 30
3.528724670410213
 70
   192
  0
VERTEX
  5
49
  8
METAL
 10
177.3780822753906
 20
-11.4930725097656
 30
-3.454719543456974
 70
   192
  0
VERTEX
  5
4A
  8
METAL
 10
177.3780822753906
 20
-11.4930725097656
 30
-3.454719543456974
 70
   192
  0
VERTEX
  5
4B
  8
METAL
 10
177.0188598632812
 20
-10.31263732910161
 30
4.09085083007821
 70
   192
  0
VERTEX
  5
4C
  8
METAL
 10
177.0188598632812
 20
-10.31263732910161
 30
4.09085083007821
 70
   192
  0
VERTEX
  5
4D
  8
METAL
 10
177.0188598632812
 20
-10.31263732910159
 30
-4.016845703125
 70
   192
  0
VERTEX
  5
4E
  8
METAL
 10
177.0188598632812
 20
-10.31263732910159
 30
-4.016845703125
 70
   192
  0
VERTEX
  5
4F
  8
METAL
 10
176.2100830078125
 20
-7.655059814453111
 30
4.490280151367216
 70
   192
  0
VERTEX
  5
50
  8
METAL
 10
176.2100830078125
 20
-7.655059814453111
 30
4.490280151367216
 70
   192
  0
VERTEX
  5
51
  8
METAL
 10
176.2100830078125
 20
-7.655059814453097
 30
-4.416275024413977
 70
   192
  0
VERTEX
  5
52
  8
METAL
 10
176.2100830078125
 20
-7.655059814453097
 30
-4.416275024413977
 70
   192
  0
VERTEX
  5
53
  8
METAL
 10
173.4389038085938
 20
-3.350082397461009
 30
5.07400512695321
 70
   192
  0
VERTEX
  5
54
  8
METAL
 10
173.4389038085938
 20
-3.350082397461009
 30
5.07400512695321
 70
   192
  0
VERTEX
  5
55
  8
METAL
 10
173.4389038085938
 20
-3.350082397461009
 30
5.07400512695321
 70
   192
  0
VERTEX
  5
56
  8
METAL
 10
173.4389038085938
 20
-3.350082397460994
 30
-5.0
 70
   192
  0
VERTEX
  5
57
  8
METAL
 10
173.4389038085938
 20
-3.350082397460994
 30
-5.0
 70
   192
  0
VERTEX
  5
58
  8
METAL
 10
173.4389038085938
 20
-3.350082397460994
 30
-5.0
 70
   192
  0
VERTEX
  5
43C
  8
METAL
 10
169.8105773925781
 20
-1.083175659179702
 30
5.07400512695321
 70
   192
  0
VERTEX
  5
43D
  8
METAL
 10
169.8105773925781
 20
-1.083175659179702
 30
5.07400512695321
 70
   192
  0
VERTEX
  5
5B
  8
METAL
 10
169.8105773925781
 20
-1.083175659179688
 30
-5.0
 70
   192
  0
VERTEX
  5
5C
  8
METAL
 10
169.8105773925781
 20
-1.083175659179688
 30
-5.0
 70
   192
  0
VERTEX
  5
5D
  8
METAL
 10
166.3021545410156
 20
-12.20330810546879
 30
3.37799835205081
 70
   192
  0
VERTEX
  5
43E
  8
METAL
 10
166.3021545410156
 20
-12.20330810546879
 30
3.37799835205081
 70
   192
  0
VERTEX
  5
5F
  8
METAL
 10
166.3020629882812
 20
-11.45880126953129
 30
3.970481872558622
 70
   192
  0
VERTEX
  5
60
  8
METAL
 10
166.3012390136718
 20
-12.45704650878909
 30
2.390525817871122
 70
   192
  0
VERTEX
  5
61
  8
METAL
 10
166.3009338378906
 20
-10.22352600097661
 30
4.6156005859375
 70
   192
  0
VERTEX
  5
62
  8
METAL
 10
166.2967529296875
 20
-12.48316955566409
 30
-2.316520690917883
 70
   192
  0
VERTEX
  5
63
  8
METAL
 10
166.2954711914062
 20
-12.24336242675778
 30
-3.303993225097599
 70
   192
  0
VERTEX
  5
64
  8
METAL
 10
166.2954711914062
 20
-12.24336242675778
 30
-3.303993225097599
 70
   192
  0
VERTEX
  5
65
  8
METAL
 10
166.2944946289062
 20
-11.5072021484375
 30
-3.896476745605383
 70
   192
  0
VERTEX
  5
66
  8
METAL
 10
166.2938232421875
 20
-10.27470397949219
 30
-4.54159545898429
 70
   192
  0
VERTEX
  5
67
  8
METAL
 10
165.2177734375
 20
-0.0000000000000142
 30
5.07400512695321
 70
   192
  0
VERTEX
  5
68
  8
METAL
 10
165.2177734375
 20
-0.0000000000000142
 30
5.07400512695321
 70
   192
  0
VERTEX
  5
69
  8
METAL
 10
165.2177734375
 20
-0.0000000000000142
 30
5.07400512695321
 70
   192
  0
VERTEX
  5
6A
  8
METAL
 10
165.2177734375
 20
0.0
 30
-5.0
 70
   192
  0
VERTEX
  5
43F
  8
METAL
 10
165.2177734375
 20
0.0
 30
-5.0
 70
   192
  0
VERTEX
  5
440
  8
METAL
 10
165.2177734375
 20
0.0
 30
-5.0
 70
   192
  0
VERTEX
  5
6D
  8
METAL
 10
157.1691589355468
 20
-10.05918884277339
 30
4.6156005859375
 70
   192
  0
VERTEX
  5
6E
  8
METAL
 10
157.1658935546875
 20
-10.08479309082028
 30
-4.54159545898429
 70
   192
  0
VERTEX
  5
6F
  8
METAL
 10
157.1602783203125
 20
-11.2937469482422
 30
3.970474243164119
 70
   192
  0
VERTEX
  5
70
  8
METAL
 10
157.1566467285156
 20
-11.31794738769528
 30
-3.896476745605383
 70
   192
  0
VERTEX
  5
71
  8
METAL
 10
157.1546936035156
 20
-12.03614807128911
 30
3.377990722656307
 70
   192
  0
VERTEX
  5
72
  8
METAL
 10
157.1546936035156
 20
-12.03614807128911
 30
3.377990722656307
 70
   192
  0
VERTEX
  5
441
  8
METAL
 10
157.15234375
 20
-12.28639221191409
 30
2.390510559082117
 70
   192
  0
VERTEX
  5
442
  8
METAL
 10
157.1513671875
 20
-12.05616760253909
 30
-3.303985595703097
 70
   192
  0
VERTEX
  5
443
  8
METAL
 10
157.1513671875
 20
-12.05616760253909
 30
-3.303985595703097
 70
   192
  0
VERTEX
  5
444
  8
METAL
 10
157.1500854492188
 20
-12.2994689941406
 30
-2.316505432128878
 70
   192
  0
VERTEX
  5
77
  8
METAL
 10
156.9800109863281
 20
-2.197357177734389
 30
5.07400512695321
 70
   192
  0
VERTEX
  5
78
  8
METAL
 10
156.9800109863281
 20
-2.197357177734389
 30
5.07400512695321
 70
   192
  0
VERTEX
  5
79
  8
METAL
 10
156.9800109863281
 20
-2.197341918945284
 30
-5.0
 70
   192
  0
VERTEX
  5
7A
  8
METAL
 10
156.9800109863281
 20
-2.197341918945284
 30
-5.0
 70
   192
  0
VERTEX
  5
7B
  8
METAL
 10
152.6082458496093
 20
-10.17440795898439
 30
4.6156005859375
 70
   192
  0
VERTEX
  5
7C
  8
METAL
 10
152.606689453125
 20
-10.18721008300778
 30
-4.54159545898429
 70
   192
  0
VERTEX
  5
7D
  8
METAL
 10
152.5916137695312
 20
-11.40853881835939
 30
3.970474243164119
 70
   192
  0
VERTEX
  5
7E
  8
METAL
 10
152.58984375
 20
-11.42063903808599
 30
-3.896469116210881
 70
   192
  0
VERTEX
  5
7F
  8
METAL
 10
152.5815124511718
 20
-12.14984130859379
 30
3.377990722656307
 70
   192
  0
VERTEX
  5
80
  8
METAL
 10
152.5815124511718
 20
-12.14984130859379
 30
3.377990722656307
 70
   192
  0
VERTEX
  5
81
  8
METAL
 10
152.5798645019531
 20
-12.15985107421878
 30
-3.303985595703097
 70
   192
  0
VERTEX
  5
82
  8
METAL
 10
152.5798645019531
 20
-12.15985107421878
 30
-3.303985595703097
 70
   192
  0
VERTEX
  5
83
  8
METAL
 10
152.5779113769531
 20
-12.3983459472656
 30
2.3905029296875
 70
   192
  0
VERTEX
  5
84
  8
METAL
 10
152.5767822265625
 20
-12.40487670898438
 30
-2.31649780273429
 70
   192
  0
VERTEX
  5
85
  8
METAL
 10
152.2900695800781
 20
-3.391433715820298
 30
5.07400512695321
 70
   192
  0
VERTEX
  5
86
  8
METAL
 10
152.2900695800781
 20
-3.391433715820298
 30
5.07400512695321
 70
   192
  0
VERTEX
  5
87
  8
METAL
 10
152.2900695800781
 20
-3.391433715820284
 30
-5.0
 70
   192
  0
VERTEX
  5
88
  8
METAL
 10
152.2900695800781
 20
-3.391433715820284
 30
-5.0
 70
   192
  0
VERTEX
  5
89
  8
METAL
 10
148.0526733398438
 20
-10.3394012451172
 30
4.6156005859375
 70
   192
  0
VERTEX
  5
8A
  8
METAL
 10
148.0526733398438
 20
-10.33940124511719
 30
-4.54159545898429
 70
   192
  0
VERTEX
  5
8B
  8
METAL
 10
148.0253295898438
 20
-11.57299804687501
 30
3.970474243164119
 70
   192
  0
VERTEX
  5
8C
  8
METAL
 10
148.0253295898438
 20
-11.572998046875
 30
-3.896469116210881
 70
   192
  0
VERTEX
  5
8D
  8
METAL
 10
148.0089111328125
 20
-12.31314086914061
 30
3.377983093261804
 70
   192
  0
VERTEX
  5
8E
  8
METAL
 10
148.0089111328125
 20
-12.31314086914061
 30
3.377983093261804
 70
   192
  0
VERTEX
  5
8F
  8
METAL
 10
148.0089111328125
 20
-12.3131408691406
 30
-3.303977966308594
 70
   192
  0
VERTEX
  5
90
  8
METAL
 10
148.0089111328125
 20
-12.3131408691406
 30
-3.303977966308594
 70
   192
  0
VERTEX
  5
91
  8
METAL
 10
148.0034790039062
 20
-12.55986022949219
 30
2.3905029296875
 70
   192
  0
VERTEX
  5
445
  8
METAL
 10
148.0034790039062
 20
-12.55986022949219
 30
-2.31649780273429
 70
   192
  0
VERTEX
  5
446
  8
METAL
 10
147.6679077148438
 20
-4.454849243164105
 30
5.07400512695321
 70
   192
  0
VERTEX
  5
94
  8
METAL
 10
147.6679077148438
 20
-4.454849243164105
 30
5.07400512695321
 70
   192
  0
VERTEX
  5
95
  8
METAL
 10
147.6679077148438
 20
-4.454849243164091
 30
-5.0
 70
   192
  0
VERTEX
  5
96
  8
METAL
 10
147.6679077148438
 20
-4.454849243164091
 30
-5.0
 70
   192
  0
VERTEX
  5
447
  8
METAL
 10
131.9906311035156
 20
-7.879959106445298
 30
5.07400512695321
 70
   192
  0
VERTEX
  5
448
  8
METAL
 10
131.9906311035156
 20
-7.879959106445298
 30
5.07400512695321
 70
   192
  0
VERTEX
  5
99
  8
METAL
 10
131.9906311035156
 20
-7.879959106445284
 30
-5.0
 70
   192
  0
VERTEX
  5
9A
  8
METAL
 10
131.9906311035156
 20
-7.879959106445284
 30
-5.0
 70
   192
  0
VERTEX
  5
9B
  8
METAL
 10
131.9216918945312
 20
-11.72964477539061
 30
4.6156005859375
 70
   192
  0
VERTEX
  5
9C
  8
METAL
 10
131.9216918945312
 20
-11.7296447753906
 30
-4.54159545898429
 70
   192
  0
VERTEX
  5
9D
  8
METAL
 10
131.888427734375
 20
-12.9630889892578
 30
3.970474243164119
 70
   192
  0
VERTEX
  5
9E
  8
METAL
 10
131.888427734375
 20
-12.96308898925778
 30
-3.896469116210881
 70
   192
  0
VERTEX
  5
9F
  8
METAL
 10
131.8685302734375
 20
-13.70314025878911
 30
3.377983093261804
 70
   192
  0
VERTEX
  5
A0
  8
METAL
 10
131.8685302734375
 20
-13.70314025878911
 30
3.377983093261804
 70
   192
  0
VERTEX
  5
A1
  8
METAL
 10
131.8685302734375
 20
-13.70314025878909
 30
-3.303977966308594
 70
   192
  0
VERTEX
  5
A2
  8
METAL
 10
131.8685302734375
 20
-13.70314025878909
 30
-3.303977966308594
 70
   192
  0
VERTEX
  5
A3
  8
METAL
 10
131.8618774414062
 20
-13.94984436035159
 30
2.3905029296875
 70
   192
  0
VERTEX
  5
A4
  8
METAL
 10
131.8618774414062
 20
-13.9498291015625
 30
-2.31649780273429
 70
   192
  0
VERTEX
  5
A5
  8
METAL
 10
114.3171691894531
 20
-16.60481262207028
 30
2.3905029296875
 70
   192
  0
VERTEX
  5
A6
  8
METAL
 10
114.3171691894531
 20
-16.60479736328128
 30
-2.31649780273429
 70
   192
  0
VERTEX
  5
A7
  8
METAL
 10
114.3033447265625
 20
-16.35841369628911
 30
3.377983093261804
 70
   192
  0
VERTEX
  5
A8
  8
METAL
 10
114.3033447265625
 20
-16.35841369628911
 30
3.377983093261804
 70
   192
  0
VERTEX
  5
A9
  8
METAL
 10
114.3033447265625
 20
-16.35841369628909
 30
-3.303985595703097
 70
   192
  0
VERTEX
  5
AA
  8
METAL
 10
114.3033447265625
 20
-16.35841369628909
 30
-3.303985595703097
 70
   192
  0
VERTEX
  5
AB
  8
METAL
 10
114.2618408203125
 20
-15.61924743652339
 30
3.970474243164119
 70
   192
  0
VERTEX
  5
AC
  8
METAL
 10
114.2618408203125
 20
-15.61924743652338
 30
-3.896469116210881
 70
   192
  0
VERTEX
  5
AD
  8
METAL
 10
114.1926879882812
 20
-14.38729858398439
 30
4.6156005859375
 70
   192
  0
VERTEX
  5
AE
  8
METAL
 10
114.1926879882812
 20
-14.38729858398438
 30
-4.54159545898429
 70
   192
  0
VERTEX
  5
AF
  8
METAL
 10
114.0857849121093
 20
-11.0803680419922
 30
5.07400512695321
 70
   192
  0
VERTEX
  5
B0
  8
METAL
 10
114.0857849121093
 20
-11.0803680419922
 30
5.07400512695321
 70
   192
  0
VERTEX
  5
B1
  8
METAL
 10
114.0857849121093
 20
-11.08036804199219
 30
-5.0
 70
   192
  0
VERTEX
  5
B2
  8
METAL
 10
114.0857849121093
 20
-11.08036804199219
 30
-5.0
 70
   192
  0
VERTEX
  5
B3
  8
METAL
 10
97.14657592773438
 20
-13.72796630859379
 30
5.07400512695321
 70
   192
  0
VERTEX
  5
B4
  8
METAL
 10
97.14657592773438
 20
-13.72796630859379
 30
5.07400512695321
 70
   192
  0
VERTEX
  5
B5
  8
METAL
 10
97.14657592773438
 20
-13.72796630859378
 30
-5.0
 70
   192
  0
VERTEX
  5
B6
  8
METAL
 10
97.14657592773438
 20
-13.72796630859378
 30
-5.0
 70
   192
  0
VERTEX
  5
B7
  8
METAL
 10
97.08291625976562
 20
-17.01968383789061
 30
4.6156005859375
 70
   192
  0
VERTEX
  5
B8
  8
METAL
 10
97.08291625976562
 20
-17.01969909667969
 30
-4.54159545898429
 70
   192
  0
VERTEX
  5
B9
  8
METAL
 10
97.0467529296875
 20
-18.25305175781251
 30
3.970474243164091
 70
   192
  0
VERTEX
  5
BA
  8
METAL
 10
97.0467529296875
 20
-18.2530517578125
 30
-3.896469116210909
 70
   192
  0
VERTEX
  5
BB
  8
METAL
 10
97.0250244140625
 20
-18.99307250976561
 30
3.377983093261804
 70
   192
  0
VERTEX
  5
BC
  8
METAL
 10
97.0250244140625
 20
-18.99307250976561
 30
3.377983093261804
 70
   192
  0
VERTEX
  5
BD
  8
METAL
 10
97.0250244140625
 20
-18.99305725097659
 30
-3.303985595703097
 70
   192
  0
VERTEX
  5
BE
  8
METAL
 10
97.0250244140625
 20
-18.99305725097659
 30
-3.303985595703097
 70
   192
  0
VERTEX
  5
BF
  8
METAL
 10
97.017822265625
 20
-19.23974609375001
 30
2.3905029296875
 70
   192
  0
VERTEX
  5
C0
  8
METAL
 10
97.017822265625
 20
-19.23973083496101
 30
-2.31649780273429
 70
   192
  0
VERTEX
  5
C1
  8
METAL
 10
84.201416015625
 20
-21.07151794433601
 30
2.3905029296875
 70
   192
  0
VERTEX
  5
C2
  8
METAL
 10
84.201416015625
 20
-21.07151794433601
 30
-2.31649780273429
 70
   192
  0
VERTEX
  5
C3
  8
METAL
 10
84.18756103515625
 20
-20.8251190185547
 30
3.377983093261804
 70
   192
  0
VERTEX
  5
C4
  8
METAL
 10
84.18756103515625
 20
-20.8251190185547
 30
3.377983093261804
 70
   192
  0
VERTEX
  5
C5
  8
METAL
 10
84.18756103515625
 20
-20.82513427734379
 30
-3.303985595703097
 70
   192
  0
VERTEX
  5
C6
  8
METAL
 10
84.18756103515625
 20
-20.82513427734379
 30
-3.303985595703097
 70
   192
  0
VERTEX
  5
C7
  8
METAL
 10
84.14607238769531
 20
-20.08595275878911
 30
3.970474243164091
 70
   192
  0
VERTEX
  5
C8
  8
METAL
 10
84.14607238769531
 20
-20.08595275878911
 30
-3.896469116210909
 70
   192
  0
VERTEX
  5
C9
  8
METAL
 10
84.07691955566406
 20
-18.85400390625001
 30
4.6156005859375
 70
   192
  0
VERTEX
  5
CA
  8
METAL
 10
84.07691955566406
 20
-18.85400390625
 30
-4.54159545898429
 70
   192
  0
VERTEX
  5
CB
  8
METAL
 10
83.97003173828125
 20
-16.06384277343751
 30
5.07400512695321
 70
   192
  0
VERTEX
  5
CC
  8
METAL
 10
83.97003173828125
 20
-16.06384277343751
 30
5.07400512695321
 70
   192
  0
VERTEX
  5
CD
  8
METAL
 10
83.97003173828125
 20
-16.0638427734375
 30
-5.0
 70
   192
  0
VERTEX
  5
CE
  8
METAL
 10
83.97003173828125
 20
-16.0638427734375
 30
-5.0
 70
   192
  0
VERTEX
  5
CF
  8
METAL
 10
71.2638244628906
 20
-17.74362182617189
 30
5.07400512695321
 70
   192
  0
VERTEX
  5
D0
  8
METAL
 10
71.2638244628906
 20
-17.74362182617189
 30
5.07400512695321
 70
   192
  0
VERTEX
  5
D1
  8
METAL
 10
71.2638244628906
 20
-17.74363708496099
 30
-5.0
 70
   192
  0
VERTEX
  5
D2
  8
METAL
 10
71.2638244628906
 20
-17.74363708496099
 30
-5.0
 70
   192
  0
VERTEX
  5
D3
  8
METAL
 10
71.20433044433591
 20
-20.53585815429689
 30
4.6156005859375
 70
   192
  0
VERTEX
  5
D4
  8
METAL
 10
71.20433044433591
 20
-20.53585815429689
 30
-4.54159545898429
 70
   192
  0
VERTEX
  5
D5
  8
METAL
 10
71.16584777832028
 20
-21.76914978027339
 30
3.970474243164091
 70
   192
  0
VERTEX
  5
D6
  8
METAL
 10
71.16584777832028
 20
-21.76914978027339
 30
-3.896469116210909
 70
   192
  0
VERTEX
  5
D7
  8
METAL
 10
71.14276123046872
 20
-22.50912475585939
 30
3.377983093261804
 70
   192
  0
VERTEX
  5
D8
  8
METAL
 10
71.14276123046872
 20
-22.50912475585939
 30
3.377983093261804
 70
   192
  0
VERTEX
  5
D9
  8
METAL
 10
71.14276123046872
 20
-22.50912475585939
 30
-3.303985595703097
 70
   192
  0
VERTEX
  5
DA
  8
METAL
 10
71.14276123046872
 20
-22.50912475585939
 30
-3.303985595703097
 70
   192
  0
VERTEX
  5
DB
  8
METAL
 10
71.13507080078122
 20
-22.7557830810547
 30
2.3905029296875
 70
   192
  0
VERTEX
  5
DC
  8
METAL
 10
71.13507080078122
 20
-22.7557830810547
 30
-2.31649780273429
 70
   192
  0
VERTEX
  5
DD
  8
METAL
 10
59.3703918457031
 20
-18.76446533203129
 30
5.07400512695321
 70
   192
  0
VERTEX
  5
DE
  8
METAL
 10
59.3703918457031
 20
-18.76446533203129
 30
5.07400512695321
 70
   192
  0
VERTEX
  5
DF
  8
METAL
 10
59.3703918457031
 20
-18.76446533203128
 30
-5.0
 70
   192
  0
VERTEX
  5
E0
  8
METAL
 10
59.3703918457031
 20
-18.76446533203128
 30
-5.0
 70
   192
  0
VERTEX
  5
E1
  8
METAL
 10
59.31089782714841
 20
-21.55670166015629
 30
4.6156005859375
 70
   192
  0
VERTEX
  5
E2
  8
METAL
 10
59.31089782714841
 20
-21.5566864013672
 30
-4.54159545898429
 70
   192
  0
VERTEX
  5
E3
  8
METAL
 10
59.27241516113278
 20
-22.7899932861328
 30
3.970474243164091
 70
   192
  0
VERTEX
  5
E4
  8
METAL
 10
59.27241516113278
 20
-22.78997802734379
 30
-3.896469116210909
 70
   192
  0
VERTEX
  5
E5
  8
METAL
 10
59.24932861328122
 20
-23.5299530029297
 30
3.377983093261804
 70
   192
  0
VERTEX
  5
E6
  8
METAL
 10
59.24932861328122
 20
-23.5299530029297
 30
3.377983093261804
 70
   192
  0
VERTEX
  5
E7
  8
METAL
 10
59.24932861328122
 20
-23.52996826171879
 30
-3.303985595703097
 70
   192
  0
VERTEX
  5
E8
  8
METAL
 10
59.24932861328122
 20
-23.52996826171879
 30
-3.303985595703097
 70
   192
  0
VERTEX
  5
E9
  8
METAL
 10
59.24163818359372
 20
-23.77662658691411
 30
2.3905029296875
 70
   192
  0
VERTEX
  5
EA
  8
METAL
 10
59.24163818359372
 20
-23.77661132812501
 30
-2.31649780273429
 70
   192
  0
VERTEX
  5
EB
  8
METAL
 10
49.16003417968747
 20
-19.68252563476561
 30
5.07400512695321
 70
   192
  0
VERTEX
  5
EC
  8
METAL
 10
49.16003417968747
 20
-19.68252563476561
 30
5.07400512695321
 70
   192
  0
VERTEX
  5
ED
  8
METAL
 10
49.16003417968747
 20
-19.68252563476561
 30
-5.0
 70
   192
  0
VERTEX
  5
EE
  8
METAL
 10
49.16003417968747
 20
-19.68252563476561
 30
-5.0
 70
   192
  0
VERTEX
  5
EF
  8
METAL
 10
49.10055541992185
 20
-22.47476196289061
 30
4.6156005859375
 70
   192
  0
VERTEX
  5
F0
  8
METAL
 10
49.10055541992185
 20
-22.47474670410161
 30
-4.54159545898429
 70
   192
  0
VERTEX
  5
F1
  8
METAL
 10
49.06207275390622
 20
-23.7080535888672
 30
3.970474243164091
 70
   192
  0
VERTEX
  5
F2
  8
METAL
 10
49.06207275390622
 20
-23.70803833007811
 30
-3.896469116210909
 70
   192
  0
VERTEX
  5
F3
  8
METAL
 10
49.03898620605466
 20
-24.44801330566411
 30
3.377983093261804
 70
   192
  0
VERTEX
  5
F4
  8
METAL
 10
49.03898620605466
 20
-24.44801330566411
 30
3.377983093261804
 70
   192
  0
VERTEX
  5
F5
  8
METAL
 10
49.03898620605466
 20
-24.44801330566411
 30
-3.303985595703097
 70
   192
  0
VERTEX
  5
F6
  8
METAL
 10
49.03898620605466
 20
-24.44801330566411
 30
-3.303985595703097
 70
   192
  0
VERTEX
  5
F7
  8
METAL
 10
49.0312805175781
 20
-24.69468688964839
 30
2.3905029296875
 70
   192
  0
VERTEX
  5
F8
  8
METAL
 10
49.0312805175781
 20
-24.69467163085939
 30
-2.31649780273429
 70
   192
  0
VERTEX
  5
F9
  8
METAL
 10
37.66894531249997
 20
-20.36193847656251
 30
5.07400512695321
 70
   192
  0
VERTEX
  5
FA
  8
METAL
 10
37.66894531249997
 20
-20.36193847656251
 30
5.07400512695321
 70
   192
  0
VERTEX
  5
FB
  8
METAL
 10
37.66894531249997
 20
-20.36193847656251
 30
-5.0
 70
   192
  0
VERTEX
  5
FC
  8
METAL
 10
37.66894531249997
 20
-20.36193847656251
 30
-5.0
 70
   192
  0
VERTEX
  5
FD
  8
METAL
 10
37.60946655273435
 20
-23.15417480468751
 30
4.6156005859375
 70
   192
  0
VERTEX
  5
FE
  8
METAL
 10
37.60946655273435
 20
-23.15415954589839
 30
-4.54159545898429
 70
   192
  0
VERTEX
  5
FF
  8
METAL
 10
37.57098388671872
 20
-24.38746643066411
 30
3.970474243164091
 70
   192
  0
VERTEX
  5
100
  8
METAL
 10
37.57098388671872
 20
-24.38745117187501
 30
-3.896469116210909
 70
   192
  0
VERTEX
  5
101
  8
METAL
 10
37.54789733886716
 20
-25.12742614746101
 30
3.377983093261804
 70
   192
  0
VERTEX
  5
102
  8
METAL
 10
37.54789733886716
 20
-25.12742614746101
 30
3.377983093261804
 70
   192
  0
VERTEX
  5
103
  8
METAL
 10
37.54789733886716
 20
-25.12742614746101
 30
-3.303985595703097
 70
   192
  0
VERTEX
  5
104
  8
METAL
 10
37.54789733886716
 20
-25.12742614746101
 30
-3.303985595703097
 70
   192
  0
VERTEX
  5
105
  8
METAL
 10
37.5401916503906
 20
-25.3740997314453
 30
2.3905029296875
 70
   192
  0
VERTEX
  5
106
  8
METAL
 10
37.5401916503906
 20
-25.37408447265629
 30
-2.316505432128906
 70
   192
  0
VERTEX
  5
107
  8
METAL
 10
27.18083190917966
 20
-20.9129180908203
 30
5.07400512695321
 70
   192
  0
VERTEX
  5
108
  8
METAL
 10
27.18083190917966
 20
-20.9129180908203
 30
5.07400512695321
 70
   192
  0
VERTEX
  5
109
  8
METAL
 10
27.18083190917966
 20
-20.9129180908203
 30
-5.0
 70
   192
  0
VERTEX
  5
10A
  8
METAL
 10
27.18083190917966
 20
-20.9129180908203
 30
-5.0
 70
   192
  0
VERTEX
  5
10B
  8
METAL
 10
27.12135314941403
 20
-23.7051544189453
 30
4.6156005859375
 70
   192
  0
VERTEX
  5
10C
  8
METAL
 10
27.12135314941403
 20
-23.70513916015629
 30
-4.54159545898429
 70
   192
  0
VERTEX
  5
10D
  8
METAL
 10
27.08287048339841
 20
-24.9384307861328
 30
3.970474243164091
 70
   192
  0
VERTEX
  5
10E
  8
METAL
 10
27.08287048339841
 20
-24.9384307861328
 30
-3.896469116210909
 70
   192
  0
VERTEX
  5
10F
  8
METAL
 10
27.05979919433591
 20
-25.6784210205078
 30
3.377983093261804
 70
   192
  0
VERTEX
  5
110
  8
METAL
 10
27.05979919433591
 20
-25.6784210205078
 30
3.377983093261804
 70
   192
  0
VERTEX
  5
111
  8
METAL
 10
27.05979919433591
 20
-25.67840576171879
 30
-3.303985595703097
 70
   192
  0
VERTEX
  5
112
  8
METAL
 10
27.05979919433591
 20
-25.67840576171879
 30
-3.303985595703097
 70
   192
  0
VERTEX
  5
113
  8
METAL
 10
27.05207824707028
 20
-25.92506408691411
 30
2.3905029296875
 70
   192
  0
VERTEX
  5
114
  8
METAL
 10
27.05207824707028
 20
-25.92506408691411
 30
-2.316505432128906
 70
   192
  0
VERTEX
  5
115
  8
METAL
 10
15.39794921874997
 20
-21.2047576904297
 30
5.07400512695321
 70
   192
  0
VERTEX
  5
116
  8
METAL
 10
15.39794921874997
 20
-21.2047576904297
 30
5.07400512695321
 70
   192
  0
VERTEX
  5
117
  8
METAL
 10
15.39794921874997
 20
-21.2047576904297
 30
-5.0
 70
   192
  0
VERTEX
  5
118
  8
METAL
 10
15.39794921874997
 20
-21.2047576904297
 30
-5.0
 70
   192
  0
VERTEX
  5
119
  8
METAL
 10
15.33847045898435
 20
-23.9969940185547
 30
4.6156005859375
 70
   192
  0
VERTEX
  5
11A
  8
METAL
 10
15.33847045898435
 20
-23.99697875976561
 30
-4.54159545898429
 70
   192
  0
VERTEX
  5
11B
  8
METAL
 10
15.29998779296872
 20
-25.2302703857422
 30
3.970474243164091
 70
   192
  0
VERTEX
  5
11C
  8
METAL
 10
15.29998779296872
 20
-25.2302703857422
 30
-3.896469116210909
 70
   192
  0
VERTEX
  5
11D
  8
METAL
 10
15.27691650390622
 20
-25.9702606201172
 30
3.377983093261804
 70
   192
  0
VERTEX
  5
11E
  8
METAL
 10
15.27691650390622
 20
-25.9702606201172
 30
3.377983093261804
 70
   192
  0
VERTEX
  5
11F
  8
METAL
 10
15.27691650390622
 20
-25.97024536132811
 30
-3.303985595703097
 70
   192
  0
VERTEX
  5
120
  8
METAL
 10
15.27691650390622
 20
-25.97024536132811
 30
-3.303985595703097
 70
   192
  0
VERTEX
  5
121
  8
METAL
 10
15.2691955566406
 20
-26.21690368652339
 30
2.3905029296875
 70
   192
  0
VERTEX
  5
122
  8
METAL
 10
15.2691955566406
 20
-26.21690368652339
 30
-2.316505432128906
 70
   192
  0
VERTEX
  5
123
  8
METAL
 10
4.853835582733126
 20
-21.43298339843751
 30
5.07400512695321
 70
   192
  0
VERTEX
  5
124
  8
METAL
 10
4.853835582733126
 20
-21.43298339843751
 30
5.07400512695321
 70
   192
  0
VERTEX
  5
125
  8
METAL
 10
4.853835582733126
 20
-21.43298339843751
 30
-5.0
 70
   192
  0
VERTEX
  5
126
  8
METAL
 10
4.853835582733126
 20
-21.43298339843751
 30
-5.0
 70
   192
  0
VERTEX
  5
127
  8
METAL
 10
4.794357776641817
 20
-24.22521972656251
 30
4.6156005859375
 70
   192
  0
VERTEX
  5
128
  8
METAL
 10
4.794357776641817
 20
-24.22520446777339
 30
-4.54159545898429
 70
   192
  0
VERTEX
  5
129
  8
METAL
 10
4.755874633789034
 20
-25.45851135253911
 30
3.970474243164091
 70
   192
  0
VERTEX
  5
12A
  8
METAL
 10
4.755874633789034
 20
-25.45848083496101
 30
-3.896469116210909
 70
   192
  0
VERTEX
  5
12B
  8
METAL
 10
4.732803821563692
 20
-26.19847106933601
 30
3.377983093261804
 70
   192
  0
VERTEX
  5
12C
  8
METAL
 10
4.732803821563692
 20
-26.19847106933601
 30
3.377983093261804
 70
   192
  0
VERTEX
  5
12D
  8
METAL
 10
4.732803821563692
 20
-26.19847106933601
 30
-3.303985595703097
 70
   192
  0
VERTEX
  5
12E
  8
METAL
 10
4.732803821563692
 20
-26.19847106933601
 30
-3.303985595703097
 70
   192
  0
VERTEX
  5
12F
  8
METAL
 10
4.725082874298067
 20
-26.4451446533203
 30
2.3905029296875
 70
   192
  0
VERTEX
  5
130
  8
METAL
 10
4.725082874298067
 20
-26.44512939453129
 30
-2.316505432128906
 70
   192
  0
VERTEX
  5
131
  8
METAL
 10
0.0827326774596884
 20
-21.4748992919922
 30
5.07400512695321
 70
   192
  0
VERTEX
  5
132
  8
METAL
 10
0.0827326774596884
 20
-21.4748992919922
 30
5.07400512695321
 70
   192
  0
VERTEX
  5
133
  8
METAL
 10
0.0827326774596884
 20
-24.26669311523439
 30
4.6156005859375
 70
   192
  0
VERTEX
  5
134
  8
METAL
 10
0.0827326774596884
 20
-25.4997100830078
 30
3.970474243164091
 70
   192
  0
VERTEX
  5
135
  8
METAL
 10
0.0827326774596884
 20
-26.23951721191411
 30
3.377983093261804
 70
   192
  0
VERTEX
  5
136
  8
METAL
 10
0.0827326774596884
 20
-26.23951721191411
 30
3.377983093261804
 70
   192
  0
VERTEX
  5
137
  8
METAL
 10
0.0827326774596884
 20
-26.48611450195311
 30
2.3905029296875
 70
   192
  0
VERTEX
  5
138
  8
METAL
 10
0.0827326774596884
 20
-26.48611450195311
 30
-2.316505432128906
 70
   192
  0
VERTEX
  5
139
  8
METAL
 10
0.0827326774596884
 20
-26.23951721191411
 30
-3.303985595703097
 70
   192
  0
VERTEX
  5
13A
  8
METAL
 10
0.0827326774596884
 20
-26.23951721191411
 30
-3.303985595703097
 70
   192
  0
VERTEX
  5
13B
  8
METAL
 10
0.0827326774596884
 20
-25.4996795654297
 30
-3.896469116210909
 70
   192
  0
VERTEX
  5
13C
  8
METAL
 10
0.0827326774596884
 20
-24.2666778564453
 30
-4.54159545898429
 70
   192
  0
VERTEX
  5
13D
  8
METAL
 10
0.0827326774596884
 20
-21.4748992919922
 30
-5.0
 70
   192
  0
VERTEX
  5
13E
  8
METAL
 10
0.0827326774596884
 20
-21.4748992919922
 30
-5.0
 70
   192
  0
VERTEX
  5
13F
  8
METAL
 10
-4.559616565704374
 20
-26.4451446533203
 30
2.3905029296875
 70
   192
  0
VERTEX
  5
140
  8
METAL
 10
-4.559616565704374
 20
-26.44512939453129
 30
-2.316505432128906
 70
   192
  0
VERTEX
  5
141
  8
METAL
 10
-4.567337512969999
 20
-26.19847106933601
 30
3.377983093261804
 70
   192
  0
VERTEX
  5
142
  8
METAL
 10
-4.567337512969999
 20
-26.19847106933601
 30
3.377983093261804
 70
   192
  0
VERTEX
  5
143
  8
METAL
 10
-4.567337512969999
 20
-26.19847106933601
 30
-3.303985595703097
 70
   192
  0
VERTEX
  5
144
  8
METAL
 10
-4.567337512969999
 20
-26.19847106933601
 30
-3.303985595703097
 70
   192
  0
VERTEX
  5
145
  8
METAL
 10
-4.590408325195341
 20
-25.45851135253911
 30
3.970474243164091
 70
   192
  0
VERTEX
  5
146
  8
METAL
 10
-4.590408325195341
 20
-25.45848083496101
 30
-3.896469116210909
 70
   192
  0
VERTEX
  5
147
  8
METAL
 10
-4.628891468048124
 20
-24.22521972656251
 30
4.6156005859375
 70
   192
  0
VERTEX
  5
148
  8
METAL
 10
-4.628891468048124
 20
-24.22520446777339
 30
-4.54159545898429
 70
   192
  0
VERTEX
  5
149
  8
METAL
 10
-4.688369274139433
 20
-21.43298339843751
 30
5.07400512695321
 70
   192
  0
VERTEX
  5
14A
  8
METAL
 10
-4.688369274139433
 20
-21.43298339843751
 30
5.07400512695321
 70
   192
  0
VERTEX
  5
14B
  8
METAL
 10
-4.688369274139433
 20
-21.43298339843751
 30
-5.0
 70
   192
  0
VERTEX
  5
14C
  8
METAL
 10
-4.688369274139433
 20
-21.43298339843751
 30
-5.0
 70
   192
  0
VERTEX
  5
14D
  8
METAL
 10
-15.1037292480469
 20
-26.21690368652339
 30
2.3905029296875
 70
   192
  0
VERTEX
  5
14E
  8
METAL
 10
-15.1037292480469
 20
-26.21690368652339
 30
-2.316505432128906
 70
   192
  0
VERTEX
  5
14F
  8
METAL
 10
-15.11145019531253
 20
-25.97024536132811
 30
3.377983093261804
 70
   192
  0
VERTEX
  5
150
  8
METAL
 10
-15.11145019531253
 20
-25.97024536132811
 30
3.377983093261804
 70
   192
  0
VERTEX
  5
151
  8
METAL
 10
-15.11145019531253
 20
-25.97024536132811
 30
-3.303985595703097
 70
   192
  0
VERTEX
  5
152
  8
METAL
 10
-15.11145019531253
 20
-25.97024536132811
 30
-3.303985595703097
 70
   192
  0
VERTEX
  5
153
  8
METAL
 10
-15.13452148437503
 20
-25.2302703857422
 30
3.970474243164091
 70
   192
  0
VERTEX
  5
154
  8
METAL
 10
-15.13452148437503
 20
-25.2302703857422
 30
-3.896469116210909
 70
   192
  0
VERTEX
  5
155
  8
METAL
 10
-15.17300415039065
 20
-23.9969940185547
 30
4.6156005859375
 70
   192
  0
VERTEX
  5
156
  8
METAL
 10
-15.17300415039065
 20
-23.99697875976561
 30
-4.54159545898429
 70
   192
  0
VERTEX
  5
157
  8
METAL
 10
-15.23248291015628
 20
-21.2047576904297
 30
5.07400512695321
 70
   192
  0
VERTEX
  5
158
  8
METAL
 10
-15.23248291015628
 20
-21.2047576904297
 30
5.07400512695321
 70
   192
  0
VERTEX
  5
159
  8
METAL
 10
-15.23248291015628
 20
-21.2047576904297
 30
-5.0
 70
   192
  0
VERTEX
  5
15A
  8
METAL
 10
-15.23248291015628
 20
-21.2047576904297
 30
-5.0
 70
   192
  0
VERTEX
  5
15B
  8
METAL
 10
-26.88661193847659
 20
-25.92506408691411
 30
2.3905029296875
 70
   192
  0
VERTEX
  5
15C
  8
METAL
 10
-26.88661193847659
 20
-25.92506408691411
 30
-2.316505432128906
 70
   192
  0
VERTEX
  5
15D
  8
METAL
 10
-26.89433288574222
 20
-25.67840576171879
 30
3.377983093261804
 70
   192
  0
VERTEX
  5
15E
  8
METAL
 10
-26.89433288574222
 20
-25.67840576171879
 30
3.377983093261804
 70
   192
  0
VERTEX
  5
15F
  8
METAL
 10
-26.89433288574222
 20
-25.67840576171879
 30
-3.303985595703097
 70
   192
  0
VERTEX
  5
160
  8
METAL
 10
-26.89433288574222
 20
-25.67840576171879
 30
-3.303985595703097
 70
   192
  0
VERTEX
  5
161
  8
METAL
 10
-26.91740417480472
 20
-24.9384307861328
 30
3.970474243164091
 70
   192
  0
VERTEX
  5
162
  8
METAL
 10
-26.91740417480472
 20
-24.9384307861328
 30
-3.896469116210909
 70
   192
  0
VERTEX
  5
163
  8
METAL
 10
-26.95588684082034
 20
-23.7051544189453
 30
4.6156005859375
 70
   192
  0
VERTEX
  5
164
  8
METAL
 10
-26.95588684082034
 20
-23.70513916015629
 30
-4.54159545898429
 70
   192
  0
VERTEX
  5
165
  8
METAL
 10
-27.01536560058597
 20
-20.9129180908203
 30
5.07400512695321
 70
   192
  0
VERTEX
  5
166
  8
METAL
 10
-27.01536560058597
 20
-20.9129180908203
 30
5.07400512695321
 70
   192
  0
VERTEX
  5
167
  8
METAL
 10
-27.01536560058597
 20
-20.9129180908203
 30
-5.0
 70
   192
  0
VERTEX
  5
168
  8
METAL
 10
-27.01536560058597
 20
-20.9129180908203
 30
-5.0
 70
   192
  0
VERTEX
  5
169
  8
METAL
 10
-37.3747253417969
 20
-25.3740997314453
 30
2.3905029296875
 70
   192
  0
VERTEX
  5
16A
  8
METAL
 10
-37.3747253417969
 20
-25.37408447265629
 30
-2.316505432128906
 70
   192
  0
VERTEX
  5
16B
  8
METAL
 10
-37.38243103027347
 20
-25.12742614746101
 30
3.377983093261804
 70
   192
  0
VERTEX
  5
16C
  8
METAL
 10
-37.38243103027347
 20
-25.12742614746101
 30
3.377983093261804
 70
   192
  0
VERTEX
  5
16D
  8
METAL
 10
-37.38243103027347
 20
-25.12742614746101
 30
-3.303985595703097
 70
   192
  0
VERTEX
  5
16E
  8
METAL
 10
-37.38243103027347
 20
-25.12742614746101
 30
-3.303985595703097
 70
   192
  0
VERTEX
  5
16F
  8
METAL
 10
-37.40551757812503
 20
-24.38746643066411
 30
3.970474243164091
 70
   192
  0
VERTEX
  5
170
  8
METAL
 10
-37.40551757812503
 20
-24.38745117187501
 30
-3.896469116210909
 70
   192
  0
VERTEX
  5
171
  8
METAL
 10
-37.44400024414065
 20
-23.15417480468751
 30
4.6156005859375
 70
   192
  0
VERTEX
  5
172
  8
METAL
 10
-37.44400024414065
 20
-23.15415954589839
 30
-4.54159545898429
 70
   192
  0
VERTEX
  5
173
  8
METAL
 10
-37.50347900390628
 20
-20.36193847656251
 30
5.07400512695321
 70
   192
  0
VERTEX
  5
174
  8
METAL
 10
-37.50347900390628
 20
-20.36193847656251
 30
5.07400512695321
 70
   192
  0
VERTEX
  5
175
  8
METAL
 10
-37.50347900390628
 20
-20.36193847656251
 30
-5.0
 70
   192
  0
VERTEX
  5
176
  8
METAL
 10
-37.50347900390628
 20
-20.36193847656251
 30
-5.0
 70
   192
  0
VERTEX
  5
177
  8
METAL
 10
-48.86582183837893
 20
-24.69468688964839
 30
2.3905029296875
 70
   192
  0
VERTEX
  5
178
  8
METAL
 10
-48.86582183837893
 20
-24.69467163085939
 30
-2.316505432128906
 70
   192
  0
VERTEX
  5
179
  8
METAL
 10
-48.87351989746097
 20
-24.44801330566411
 30
3.377983093261804
 70
   192
  0
VERTEX
  5
17A
  8
METAL
 10
-48.87351989746097
 20
-24.44801330566411
 30
3.377983093261804
 70
   192
  0
VERTEX
  5
17B
  8
METAL
 10
-48.87351989746097
 20
-24.44801330566411
 30
-3.303985595703097
 70
   192
  0
VERTEX
  5
17C
  8
METAL
 10
-48.87351989746097
 20
-24.44801330566411
 30
-3.303985595703097
 70
   192
  0
VERTEX
  5
17D
  8
METAL
 10
-48.89660644531253
 20
-23.7080535888672
 30
3.970474243164091
 70
   192
  0
VERTEX
  5
17E
  8
METAL
 10
-48.89660644531253
 20
-23.70803833007811
 30
-3.896469116210909
 70
   192
  0
VERTEX
  5
17F
  8
METAL
 10
-48.93508911132815
 20
-22.47476196289061
 30
4.6156005859375
 70
   192
  0
VERTEX
  5
180
  8
METAL
 10
-48.93508911132815
 20
-22.47474670410161
 30
-4.54159545898429
 70
   192
  0
VERTEX
  5
181
  8
METAL
 10
-48.99457550048831
 20
-19.68252563476561
 30
5.07400512695321
 70
   192
  0
VERTEX
  5
182
  8
METAL
 10
-48.99457550048831
 20
-19.68252563476561
 30
5.07400512695321
 70
   192
  0
VERTEX
  5
183
  8
METAL
 10
-48.99457550048831
 20
-19.68252563476561
 30
-5.0
 70
   192
  0
VERTEX
  5
184
  8
METAL
 10
-48.99457550048831
 20
-19.68252563476561
 30
-5.0
 70
   192
  0
VERTEX
  5
185
  8
METAL
 10
-59.0761642456055
 20
-23.77662658691411
 30
2.3905029296875
 70
   192
  0
VERTEX
  5
186
  8
METAL
 10
-59.0761642456055
 20
-23.77661132812501
 30
-2.316505432128906
 70
   192
  0
VERTEX
  5
187
  8
METAL
 10
-59.08386230468753
 20
-23.5299530029297
 30
3.377983093261804
 70
   192
  0
VERTEX
  5
188
  8
METAL
 10
-59.08386230468753
 20
-23.5299530029297
 30
3.377983093261804
 70
   192
  0
VERTEX
  5
189
  8
METAL
 10
-59.08386230468753
 20
-23.52996826171879
 30
-3.303985595703097
 70
   192
  0
VERTEX
  5
18A
  8
METAL
 10
-59.08386230468753
 20
-23.52996826171879
 30
-3.303985595703097
 70
   192
  0
VERTEX
  5
18B
  8
METAL
 10
-59.10694885253909
 20
-22.7899932861328
 30
3.970474243164091
 70
   192
  0
VERTEX
  5
18C
  8
METAL
 10
-59.10694885253909
 20
-22.78997802734379
 30
-3.896469116210909
 70
   192
  0
VERTEX
  5
18D
  8
METAL
 10
-59.14543151855472
 20
-21.55670166015629
 30
4.6156005859375
 70
   192
  0
VERTEX
  5
18E
  8
METAL
 10
-59.14543151855472
 20
-21.5566864013672
 30
-4.54159545898429
 70
   192
  0
VERTEX
  5
18F
  8
METAL
 10
-59.20491790771487
 20
-18.76446533203129
 30
5.07400512695321
 70
   192
  0
VERTEX
  5
190
  8
METAL
 10
-59.20491790771487
 20
-18.76446533203129
 30
5.07400512695321
 70
   192
  0
VERTEX
  5
191
  8
METAL
 10
-59.20491790771487
 20
-18.76446533203128
 30
-5.0
 70
   192
  0
VERTEX
  5
192
  8
METAL
 10
-59.20491790771487
 20
-18.76446533203128
 30
-5.0
 70
   192
  0
VERTEX
  5
193
  8
METAL
 10
-70.96960449218753
 20
-22.7557830810547
 30
2.3905029296875
 70
   192
  0
VERTEX
  5
194
  8
METAL
 10
-70.96960449218753
 20
-22.7557830810547
 30
-2.31649780273429
 70
   192
  0
VERTEX
  5
195
  8
METAL
 10
-70.97729492187503
 20
-22.50912475585939
 30
3.377983093261804
 70
   192
  0
VERTEX
  5
196
  8
METAL
 10
-70.97729492187503
 20
-22.50912475585939
 30
3.377983093261804
 70
   192
  0
VERTEX
  5
197
  8
METAL
 10
-70.97729492187503
 20
-22.50912475585939
 30
-3.303985595703097
 70
   192
  0
VERTEX
  5
198
  8
METAL
 10
-70.97729492187503
 20
-22.50912475585939
 30
-3.303985595703097
 70
   192
  0
VERTEX
  5
199
  8
METAL
 10
-71.00038146972659
 20
-21.76914978027339
 30
3.970474243164091
 70
   192
  0
VERTEX
  5
19A
  8
METAL
 10
-71.00038146972659
 20
-21.76914978027339
 30
-3.896469116210909
 70
   192
  0
VERTEX
  5
19B
  8
METAL
 10
-71.03886413574222
 20
-20.53585815429689
 30
4.6156005859375
 70
   192
  0
VERTEX
  5
19C
  8
METAL
 10
-71.03886413574222
 20
-20.53585815429689
 30
-4.54159545898429
 70
   192
  0
VERTEX
  5
19D
  8
METAL
 10
-71.0983581542969
 20
-17.74362182617189
 30
5.07400512695321
 70
   192
  0
VERTEX
  5
19E
  8
METAL
 10
-71.0983581542969
 20
-17.74362182617189
 30
5.07400512695321
 70
   192
  0
VERTEX
  5
19F
  8
METAL
 10
-71.0983581542969
 20
-17.74363708496099
 30
-5.0
 70
   192
  0
VERTEX
  5
1A0
  8
METAL
 10
-71.0983581542969
 20
-17.74363708496099
 30
-5.0
 70
   192
  0
VERTEX
  5
1A1
  8
METAL
 10
-83.804557800293
 20
-16.06384277343751
 30
5.07400512695321
 70
   192
  0
VERTEX
  5
1A2
  8
METAL
 10
-83.804557800293
 20
-16.06384277343751
 30
5.07400512695321
 70
   192
  0
VERTEX
  5
1A3
  8
METAL
 10
-83.804557800293
 20
-16.0638427734375
 30
-5.0
 70
   192
  0
VERTEX
  5
1A4
  8
METAL
 10
-83.804557800293
 20
-16.0638427734375
 30
-5.0
 70
   192
  0
VERTEX
  5
1A5
  8
METAL
 10
-83.91145324707034
 20
-18.85400390625001
 30
4.6156005859375
 70
   192
  0
VERTEX
  5
1A6
  8
METAL
 10
-83.91145324707034
 20
-18.85400390625
 30
-4.54159545898429
 70
   192
  0
VERTEX
  5
1A7
  8
METAL
 10
-83.98060607910159
 20
-20.08595275878911
 30
3.970474243164091
 70
   192
  0
VERTEX
  5
1A8
  8
METAL
 10
-83.98060607910159
 20
-20.08595275878911
 30
-3.896469116210909
 70
   192
  0
VERTEX
  5
1A9
  8
METAL
 10
-84.02210235595706
 20
-20.8251190185547
 30
3.377983093261804
 70
   192
  0
VERTEX
  5
1AA
  8
METAL
 10
-84.02210235595706
 20
-20.8251190185547
 30
3.377983093261804
 70
   192
  0
VERTEX
  5
1AB
  8
METAL
 10
-84.02210235595706
 20
-20.82513427734379
 30
-3.303985595703097
 70
   192
  0
VERTEX
  5
1AC
  8
METAL
 10
-84.02210235595706
 20
-20.82513427734379
 30
-3.303985595703097
 70
   192
  0
VERTEX
  5
1AD
  8
METAL
 10
-84.03594207763675
 20
-21.07151794433601
 30
2.3905029296875
 70
   192
  0
VERTEX
  5
1AE
  8
METAL
 10
-84.03594207763675
 20
-21.07151794433601
 30
-2.31649780273429
 70
   192
  0
VERTEX
  5
1AF
  8
METAL
 10
-96.85234069824222
 20
-19.23974609375001
 30
2.3905029296875
 70
   192
  0
VERTEX
  5
1B0
  8
METAL
 10
-96.85234069824222
 20
-19.23973083496101
 30
-2.31649780273429
 70
   192
  0
VERTEX
  5
1B1
  8
METAL
 10
-96.85957336425784
 20
-18.99307250976561
 30
3.377983093261804
 70
   192
  0
VERTEX
  5
1B2
  8
METAL
 10
-96.85957336425784
 20
-18.99307250976561
 30
3.377983093261804
 70
   192
  0
VERTEX
  5
1B3
  8
METAL
 10
-96.85957336425784
 20
-18.99305725097659
 30
-3.303985595703097
 70
   192
  0
VERTEX
  5
1B4
  8
METAL
 10
-96.85957336425784
 20
-18.99305725097659
 30
-3.303985595703097
 70
   192
  0
VERTEX
  5
1B5
  8
METAL
 10
-96.88127899169925
 20
-18.25305175781251
 30
3.970474243164091
 70
   192
  0
VERTEX
  5
1B6
  8
METAL
 10
-96.88127899169925
 20
-18.2530517578125
 30
-3.896469116210909
 70
   192
  0
VERTEX
  5
1B7
  8
METAL
 10
-96.9174499511719
 20
-17.01968383789061
 30
4.6156005859375
 70
   192
  0
VERTEX
  5
1B8
  8
METAL
 10
-96.9174499511719
 20
-17.01969909667969
 30
-4.54159545898429
 70
   192
  0
VERTEX
  5
1B9
  8
METAL
 10
-96.98110198974612
 20
-13.72796630859379
 30
5.07400512695321
 70
   192
  0
VERTEX
  5
1BA
  8
METAL
 10
-96.98110198974612
 20
-13.72796630859379
 30
5.07400512695321
 70
   192
  0
VERTEX
  5
1BB
  8
METAL
 10
-96.98110198974612
 20
-13.72796630859378
 30
-5.0
 70
   192
  0
VERTEX
  5
1BC
  8
METAL
 10
-96.98110198974612
 20
-13.72796630859378
 30
-5.0
 70
   192
  0
VERTEX
  5
1BD
  8
METAL
 10
-113.9203186035157
 20
-11.0803680419922
 30
5.07400512695321
 70
   192
  0
VERTEX
  5
1BE
  8
METAL
 10
-113.9203186035157
 20
-11.0803680419922
 30
5.07400512695321
 70
   192
  0
VERTEX
  5
1BF
  8
METAL
 10
-113.9203186035157
 20
-11.08036804199219
 30
-5.0
 70
   192
  0
VERTEX
  5
1C0
  8
METAL
 10
-113.9203186035157
 20
-11.08036804199219
 30
-5.0
 70
   192
  0
VERTEX
  5
1C1
  8
METAL
 10
-114.0272216796875
 20
-14.38729858398439
 30
4.6156005859375
 70
   192
  0
VERTEX
  5
1C2
  8
METAL
 10
-114.0272293090821
 20
-14.38729858398438
 30
-4.54159545898429
 70
   192
  0
VERTEX
  5
1C3
  8
METAL
 10
-114.0963745117188
 20
-15.61924743652339
 30
3.970474243164119
 70
   192
  0
VERTEX
  5
1C4
  8
METAL
 10
-114.0963745117188
 20
-15.61924743652338
 30
-3.896469116210881
 70
   192
  0
VERTEX
  5
1C5
  8
METAL
 10
-114.1378784179688
 20
-16.35841369628911
 30
3.377983093261804
 70
   192
  0
VERTEX
  5
1C6
  8
METAL
 10
-114.1378784179688
 20
-16.35841369628911
 30
3.377983093261804
 70
   192
  0
VERTEX
  5
1C7
  8
METAL
 10
-114.1378784179688
 20
-16.35841369628909
 30
-3.303985595703097
 70
   192
  0
VERTEX
  5
1C8
  8
METAL
 10
-114.1378784179688
 20
-16.35841369628909
 30
-3.303985595703097
 70
   192
  0
VERTEX
  5
1C9
  8
METAL
 10
-114.1517028808594
 20
-16.60481262207028
 30
2.3905029296875
 70
   192
  0
VERTEX
  5
1CA
  8
METAL
 10
-114.1517028808594
 20
-16.60479736328128
 30
-2.31649780273429
 70
   192
  0
VERTEX
  5
1CB
  8
METAL
 10
-131.6963958740235
 20
-13.94984436035159
 30
2.3905029296875
 70
   192
  0
VERTEX
  5
1CC
  8
METAL
 10
-131.6963958740235
 20
-13.9498291015625
 30
-2.31649780273429
 70
   192
  0
VERTEX
  5
1CD
  8
METAL
 10
-131.7030487060547
 20
-13.70314025878911
 30
3.377983093261804
 70
   192
  0
VERTEX
  5
1CE
  8
METAL
 10
-131.7030487060547
 20
-13.70314025878911
 30
3.377983093261804
 70
   192
  0
VERTEX
  5
1CF
  8
METAL
 10
-131.7030487060547
 20
-13.70314025878909
 30
-3.303977966308594
 70
   192
  0
VERTEX
  5
1D0
  8
METAL
 10
-131.7030487060547
 20
-13.70314025878909
 30
-3.303977966308594
 70
   192
  0
VERTEX
  5
1D1
  8
METAL
 10
-131.7229766845704
 20
-12.96307373046879
 30
3.970474243164119
 70
   192
  0
VERTEX
  5
1D2
  8
METAL
 10
-131.7229766845704
 20
-12.96308898925778
 30
-3.896469116210881
 70
   192
  0
VERTEX
  5
1D3
  8
METAL
 10
-131.7562103271485
 20
-11.72964477539061
 30
4.6156005859375
 70
   192
  0
VERTEX
  5
1D4
  8
METAL
 10
-131.7562103271485
 20
-11.7296447753906
 30
-4.54159545898429
 70
   192
  0
VERTEX
  5
1D5
  8
METAL
 10
-131.8251495361328
 20
-7.879959106445298
 30
5.07400512695321
 70
   192
  0
VERTEX
  5
1D6
  8
METAL
 10
-131.8251495361328
 20
-7.879959106445298
 30
5.07400512695321
 70
   192
  0
VERTEX
  5
1D7
  8
METAL
 10
-131.8251495361328
 20
-7.879959106445284
 30
-5.0
 70
   192
  0
VERTEX
  5
1D8
  8
METAL
 10
-131.8251495361328
 20
-7.879959106445284
 30
-5.0
 70
   192
  0
VERTEX
  5
1D9
  8
METAL
 10
-147.50244140625
 20
-4.454864501953111
 30
5.07400512695321
 70
   192
  0
VERTEX
  5
1DA
  8
METAL
 10
-147.50244140625
 20
-4.454864501953111
 30
5.07400512695321
 70
   192
  0
VERTEX
  5
1DB
  8
METAL
 10
-147.50244140625
 20
-4.454849243164091
 30
-5.0
 70
   192
  0
VERTEX
  5
1DC
  8
METAL
 10
-147.50244140625
 20
-4.454849243164091
 30
-5.0
 70
   192
  0
VERTEX
  5
1DD
  8
METAL
 10
-147.8379974365235
 20
-12.55986022949219
 30
2.3905029296875
 70
   192
  0
VERTEX
  5
1DE
  8
METAL
 10
-147.8379974365235
 20
-12.55986022949219
 30
-2.31649780273429
 70
   192
  0
VERTEX
  5
1DF
  8
METAL
 10
-147.8434600830078
 20
-12.31314086914061
 30
3.377983093261804
 70
   192
  0
VERTEX
  5
1E0
  8
METAL
 10
-147.8434600830078
 20
-12.31314086914061
 30
3.377983093261804
 70
   192
  0
VERTEX
  5
1E1
  8
METAL
 10
-147.8434600830078
 20
-12.3131408691406
 30
-3.303977966308594
 70
   192
  0
VERTEX
  5
1E2
  8
METAL
 10
-147.8434600830078
 20
-12.3131408691406
 30
-3.303977966308594
 70
   192
  0
VERTEX
  5
1E3
  8
METAL
 10
-147.85986328125
 20
-11.57299804687501
 30
3.970474243164119
 70
   192
  0
VERTEX
  5
1E4
  8
METAL
 10
-147.85986328125
 20
-11.572998046875
 30
-3.896469116210881
 70
   192
  0
VERTEX
  5
1E5
  8
METAL
 10
-147.887191772461
 20
-10.3394012451172
 30
4.6156005859375
 70
   192
  0
VERTEX
  5
1E6
  8
METAL
 10
-147.887191772461
 20
-10.33940124511719
 30
-4.54159545898429
 70
   192
  0
VERTEX
  5
1E7
  8
METAL
 10
-152.1246032714844
 20
-3.391433715820298
 30
5.07400512695321
 70
   192
  0
VERTEX
  5
1E8
  8
METAL
 10
-152.1246032714844
 20
-3.391433715820298
 30
5.07400512695321
 70
   192
  0
VERTEX
  5
1E9
  8
METAL
 10
-152.1246032714844
 20
-3.391433715820284
 30
-5.0
 70
   192
  0
VERTEX
  5
1EA
  8
METAL
 10
-152.1246032714844
 20
-3.391433715820284
 30
-5.0
 70
   192
  0
VERTEX
  5
1EB
  8
METAL
 10
-152.4113159179688
 20
-12.40487670898438
 30
-2.31649780273429
 70
   192
  0
VERTEX
  5
1EC
  8
METAL
 10
-152.4124450683594
 20
-12.3983459472656
 30
2.3905029296875
 70
   192
  0
VERTEX
  5
1ED
  8
METAL
 10
-152.4143981933594
 20
-12.15985107421878
 30
-3.303985595703097
 70
   192
  0
VERTEX
  5
1EE
  8
METAL
 10
-152.4143981933594
 20
-12.15985107421878
 30
-3.303985595703097
 70
   192
  0
VERTEX
  5
1EF
  8
METAL
 10
-152.4160461425782
 20
-12.14984130859379
 30
3.377990722656307
 70
   192
  0
VERTEX
  5
1F0
  8
METAL
 10
-152.4160461425782
 20
-12.14984130859379
 30
3.377990722656307
 70
   192
  0
VERTEX
  5
1F1
  8
METAL
 10
-152.4243621826172
 20
-11.42063903808599
 30
-3.896469116210881
 70
   192
  0
VERTEX
  5
1F2
  8
METAL
 10
-152.4261627197266
 20
-11.40853881835939
 30
3.970474243164119
 70
   192
  0
VERTEX
  5
1F3
  8
METAL
 10
-152.4412231445313
 20
-10.18721008300778
 30
-4.54159545898429
 70
   192
  0
VERTEX
  5
1F4
  8
METAL
 10
-152.4427795410157
 20
-10.17440795898439
 30
4.6156005859375
 70
   192
  0
VERTEX
  5
1F5
  8
METAL
 10
-156.8145446777344
 20
-2.197357177734389
 30
5.07400512695321
 70
   192
  0
VERTEX
  5
1F6
  8
METAL
 10
-156.8145446777344
 20
-2.197357177734389
 30
5.07400512695321
 70
   192
  0
VERTEX
  5
1F7
  8
METAL
 10
-156.8145446777344
 20
-2.197341918945284
 30
-5.0
 70
   192
  0
VERTEX
  5
1F8
  8
METAL
 10
-156.8145446777344
 20
-2.197341918945284
 30
-5.0
 70
   192
  0
VERTEX
  5
1F9
  8
METAL
 10
-156.9846343994141
 20
-12.29945373535159
 30
-2.316505432128878
 70
   192
  0
VERTEX
  5
1FA
  8
METAL
 10
-156.9859161376954
 20
-12.05616760253909
 30
-3.303985595703097
 70
   192
  0
VERTEX
  5
1FB
  8
METAL
 10
-156.9859161376954
 20
-12.05616760253909
 30
-3.303985595703097
 70
   192
  0
VERTEX
  5
1FC
  8
METAL
 10
-156.9868774414063
 20
-12.28639221191409
 30
2.390510559082117
 70
   192
  0
VERTEX
  5
1FD
  8
METAL
 10
-156.9892272949219
 20
-12.03614807128911
 30
3.377990722656307
 70
   192
  0
VERTEX
  5
1FE
  8
METAL
 10
-156.9892272949219
 20
-12.03614807128911
 30
3.377990722656307
 70
   192
  0
VERTEX
  5
1FF
  8
METAL
 10
-156.9911804199219
 20
-11.31794738769528
 30
-3.896476745605383
 70
   192
  0
VERTEX
  5
200
  8
METAL
 10
-156.9948272705078
 20
-11.2937469482422
 30
3.970474243164119
 70
   192
  0
VERTEX
  5
201
  8
METAL
 10
-157.0004425048828
 20
-10.08479309082028
 30
-4.54159545898429
 70
   192
  0
VERTEX
  5
202
  8
METAL
 10
-157.0036926269532
 20
-10.05918884277339
 30
4.6156005859375
 70
   192
  0
VERTEX
  5
203
  8
METAL
 10
-165.0523071289063
 20
-0.0000000000000142
 30
5.07400512695321
 70
   192
  0
VERTEX
  5
204
  8
METAL
 10
-165.0523071289063
 20
-0.0000000000000142
 30
5.07400512695321
 70
   192
  0
VERTEX
  5
205
  8
METAL
 10
-165.0523071289063
 20
-0.0000000000000142
 30
5.07400512695321
 70
   192
  0
VERTEX
  5
206
  8
METAL
 10
-165.0523071289063
 20
0.0
 30
-5.0
 70
   192
  0
VERTEX
  5
207
  8
METAL
 10
-165.0523071289063
 20
0.0
 30
-5.0
 70
   192
  0
VERTEX
  5
208
  8
METAL
 10
-165.0523071289063
 20
0.0
 30
-5.0
 70
   192
  0
VERTEX
  5
209
  8
METAL
 10
-166.1283721923828
 20
-10.27470397949219
 30
-4.54159545898429
 70
   192
  0
VERTEX
  5
20A
  8
METAL
 10
-166.1290283203125
 20
-11.5072021484375
 30
-3.896476745605383
 70
   192
  0
VERTEX
  5
20B
  8
METAL
 10
-166.1299896240235
 20
-12.24336242675778
 30
-3.303993225097599
 70
   192
  0
VERTEX
  5
20C
  8
METAL
 10
-166.1299896240235
 20
-12.24336242675778
 30
-3.303993225097599
 70
   192
  0
VERTEX
  5
20D
  8
METAL
 10
-166.1312713623047
 20
-12.48316955566409
 30
-2.316520690917883
 70
   192
  0
VERTEX
  5
20E
  8
METAL
 10
-166.1354675292969
 20
-10.22352600097661
 30
4.6156005859375
 70
   192
  0
VERTEX
  5
20F
  8
METAL
 10
-166.1357574462891
 20
-12.45704650878909
 30
2.390525817871122
 70
   192
  0
VERTEX
  5
210
  8
METAL
 10
-166.1365814208985
 20
-11.45880126953129
 30
3.970481872558622
 70
   192
  0
VERTEX
  5
211
  8
METAL
 10
-166.1366882324219
 20
-12.20330810546879
 30
3.37799835205081
 70
   192
  0
VERTEX
  5
212
  8
METAL
 10
-166.1366882324219
 20
-12.20330810546879
 30
3.37799835205081
 70
   192
  0
VERTEX
  5
213
  8
METAL
 10
-169.6451110839844
 20
-1.083175659179702
 30
5.07400512695321
 70
   192
  0
VERTEX
  5
214
  8
METAL
 10
-169.6451110839844
 20
-1.083175659179702
 30
5.07400512695321
 70
   192
  0
VERTEX
  5
215
  8
METAL
 10
-169.6451110839844
 20
-1.083175659179688
 30
-5.0
 70
   192
  0
VERTEX
  5
216
  8
METAL
 10
-169.6451110839844
 20
-1.083175659179688
 30
-5.0
 70
   192
  0
VERTEX
  5
217
  8
METAL
 10
-173.2734527587891
 20
-3.350082397461009
 30
5.07400512695321
 70
   192
  0
VERTEX
  5
218
  8
METAL
 10
-173.2734527587891
 20
-3.350082397461009
 30
5.07400512695321
 70
   192
  0
VERTEX
  5
219
  8
METAL
 10
-173.2734527587891
 20
-3.350082397461009
 30
5.07400512695321
 70
   192
  0
VERTEX
  5
21A
  8
METAL
 10
-173.2734527587891
 20
-3.350082397460994
 30
-5.0
 70
   192
  0
VERTEX
  5
21B
  8
METAL
 10
-173.2734527587891
 20
-3.350082397460994
 30
-5.0
 70
   192
  0
VERTEX
  5
21C
  8
METAL
 10
-173.2734527587891
 20
-3.350082397460994
 30
-5.0
 70
   192
  0
VERTEX
  5
21D
  8
METAL
 10
-176.0446014404297
 20
-7.655059814453111
 30
4.490280151367216
 70
   192
  0
VERTEX
  5
21E
  8
METAL
 10
-176.0446014404297
 20
-7.655059814453111
 30
4.490280151367216
 70
   192
  0
VERTEX
  5
21F
  8
METAL
 10
-176.0446014404297
 20
-7.655059814453097
 30
-4.416275024413977
 70
   192
  0
VERTEX
  5
220
  8
METAL
 10
-176.0446014404297
 20
-7.655059814453097
 30
-4.416275024413977
 70
   192
  0
VERTEX
  5
221
  8
METAL
 10
-176.8533782958985
 20
-10.31263732910161
 30
4.09085083007821
 70
   192
  0
VERTEX
  5
222
  8
METAL
 10
-176.8533782958985
 20
-10.31263732910161
 30
4.09085083007821
 70
   192
  0
VERTEX
  5
223
  8
METAL
 10
-176.8533782958985
 20
-10.31263732910159
 30
-4.016845703125
 70
   192
  0
VERTEX
  5
224
  8
METAL
 10
-176.8533782958985
 20
-10.31263732910159
 30
-4.016845703125
 70
   192
  0
VERTEX
  5
225
  8
METAL
 10
-177.2126159667969
 20
-11.49307250976561
 30
3.528724670410213
 70
   192
  0
VERTEX
  5
226
  8
METAL
 10
-177.2126159667969
 20
-11.49307250976561
 30
3.528724670410213
 70
   192
  0
VERTEX
  5
227
  8
METAL
 10
-177.2126159667969
 20
-11.4930725097656
 30
-3.454719543456974
 70
   192
  0
VERTEX
  5
228
  8
METAL
 10
-177.2126159667969
 20
-11.4930725097656
 30
-3.454719543456974
 70
   192
  0
VERTEX
  5
229
  8
METAL
 10
-177.4281463623047
 20
-12.2013397216797
 30
3.012466430664119
 70
   192
  0
VERTEX
  5
22A
  8
METAL
 10
-177.4281463623047
 20
-12.2013397216797
 30
3.012466430664119
 70
   192
  0
VERTEX
  5
22B
  8
METAL
 10
-177.4281463623047
 20
-12.2013397216797
 30
3.012466430664119
 70
   192
  0
VERTEX
  5
22C
  8
METAL
 10
-177.4281463623047
 20
-12.2013244628906
 30
-2.938461303710881
 70
   192
  0
VERTEX
  5
22D
  8
METAL
 10
-177.4281463623047
 20
-12.2013244628906
 30
-2.938461303710881
 70
   192
  0
VERTEX
  5
22E
  8
METAL
 10
-177.4281463623047
 20
-12.2013244628906
 30
-2.938461303710881
 70
   192
  0
VERTEX
  5
22F
  8
METAL
 10
-177.5
 20
-12.43742370605469
 30
2.152030944824304
 70
   192
  0
VERTEX
  5
230
  8
METAL
 10
-177.5
 20
-12.43742370605469
 30
2.152030944824304
 70
   192
  0
VERTEX
  5
231
  8
METAL
 10
-177.5
 20
-12.43742370605469
 30
-2.078033447265597
 70
   192
  0
VERTEX
  5
232
  8
METAL
 10
-177.5
 20
-12.43742370605469
 30
-2.078033447265597
 70
   192
  0
VERTEX
  5
233
  8
METAL
 10
0.0
 20
0.0
 30
0.0
 70
   128
 71
   466
 72
   454
 73
   442
 74
   456
  0
VERTEX
  5
234
  8
METAL
 10
0.0
 20
0.0
 30
0.0
 70
   128
 71
   459
 72
   461
 73
   487
 74
   473
  0
VERTEX
  5
235
  8
METAL
 10
0.0
 20
0.0
 30
0.0
 70
   128
 71
   478
 72
   473
 73
   487
 74
   483
  0
VERTEX
  5
236
  8
METAL
 10
0.0
 20
0.0
 30
0.0
 70
   128
 71
   441
 72
   443
 73
   458
 74
   455
  0
VERTEX
  5
237
  8
METAL
 10
0.0
 20
0.0
 30
0.0
 70
   128
 71
   467
 72
   499
 73
   501
 74
   465
  0
VERTEX
  5
238
  8
METAL
 10
0.0
 20
0.0
 30
0.0
 70
   128
 71
   472
 72
   457
 73
   460
 74
   474
  0
VERTEX
  5
239
  8
METAL
 10
0.0
 20
0.0
 30
0.0
 70
   128
 71
   476
 72
   472
 73
   474
 74
   479
  0
VERTEX
  5
23A
  8
METAL
 10
0.0
 20
0.0
 30
0.0
 70
   128
 71
   482
 72
   477
 73
   480
 74
   484
  0
VERTEX
  5
23B
  8
METAL
 10
0.0
 20
0.0
 30
0.0
 70
   128
 71
   484
 72
   488
 73
   492
 74
   498
  0
VERTEX
  5
23C
  8
METAL
 10
0.0
 20
0.0
 30
0.0
 70
   128
 71
   484
 72
   498
 73
   502
 74
   486
  0
VERTEX
  5
23D
  8
METAL
 10
0.0
 20
0.0
 30
0.0
 70
   128
 71
   502
 72
   500
 73
   495
 74
   490
  0
VERTEX
  5
23E
  8
METAL
 10
0.0
 20
0.0
 30
0.0
 70
   128
 71
   502
 72
   490
 73
   486
 74
   486
  0
VERTEX
  5
23F
  8
METAL
 10
0.0
 20
0.0
 30
0.0
 70
   128
 71
   484
 72
   486
 73
   482
 74
   482
  0
VERTEX
  5
240
  8
METAL
 10
0.0
 20
0.0
 30
0.0
 70
   128
 71
   444
 72
   453
 73
   461
 74
   459
  0
VERTEX
  5
241
  8
METAL
 10
0.0
 20
0.0
 30
0.0
 70
   128
 71
   445
 72
   448
 73
   467
 74
   465
  0
VERTEX
  5
242
  8
METAL
 10
0.0
 20
0.0
 30
0.0
 70
   128
 71
   471
 72
   475
 73
   481
 74
   466
  0
VERTEX
  5
243
  8
METAL
 10
0.0
 20
0.0
 30
0.0
 70
   128
 71
   481
 72
   485
 73
   466
 74
   466
  0
VERTEX
  5
244
  8
METAL
 10
0.0
 20
0.0
 30
0.0
 70
   128
 71
   456
 72
   471
 73
   466
 74
   466
  0
VERTEX
  5
245
  8
METAL
 10
0.0
 20
0.0
 30
0.0
 70
   128
 71
   425
 72
   407
 73
   410
 74
   414
  0
VERTEX
  5
246
  8
METAL
 10
0.0
 20
0.0
 30
0.0
 70
   128
 71
   426
 72
   416
 73
   412
 74
   408
  0
VERTEX
  5
247
  8
METAL
 10
0.0
 20
0.0
 30
0.0
 70
   128
 71
   413
 72
   409
 73
   411
 74
   415
  0
VERTEX
  5
248
  8
METAL
 10
0.0
 20
0.0
 30
0.0
 70
   128
 71
   418
 72
   400
 73
   399
 74
   417
  0
VERTEX
  5
249
  8
METAL
 10
0.0
 20
0.0
 30
0.0
 70
   128
 71
   407
 72
   389
 73
   386
 74
   410
  0
VERTEX
  5
24A
  8
METAL
 10
0.0
 20
0.0
 30
0.0
 70
   128
 71
   388
 72
   390
 73
   408
 74
   412
  0
VERTEX
  5
24B
  8
METAL
 10
0.0
 20
0.0
 30
0.0
 70
   128
 71
   385
 72
   387
 73
   411
 74
   409
  0
VERTEX
  5
24C
  8
METAL
 10
0.0
 20
0.0
 30
0.0
 70
   128
 71
   398
 72
   397
 73
   399
 74
   400
  0
VERTEX
  5
24D
  8
METAL
 10
0.0
 20
0.0
 30
0.0
 70
   128
 71
   389
 72
   379
 73
   382
 74
   386
  0
VERTEX
  5
24E
  8
METAL
 10
0.0
 20
0.0
 30
0.0
 70
   128
 71
   390
 72
   388
 73
   384
 74
   380
  0
VERTEX
  5
24F
  8
METAL
 10
0.0
 20
0.0
 30
0.0
 70
   128
 71
   385
 72
   381
 73
   383
 74
   387
  0
VERTEX
  5
250
  8
METAL
 10
0.0
 20
0.0
 30
0.0
 70
   128
 71
   398
 72
   372
 73
   371
 74
   397
  0
VERTEX
  5
251
  8
METAL
 10
0.0
 20
0.0
 30
0.0
 70
   128
 71
   379
 72
   361
 73
   358
 74
   382
  0
VERTEX
  5
252
  8
METAL
 10
0.0
 20
0.0
 30
0.0
 70
   128
 71
   360
 72
   362
 73
   380
 74
   384
  0
VERTEX
  5
253
  8
METAL
 10
0.0
 20
0.0
 30
0.0
 70
   128
 71
   357
 72
   359
 73
   383
 74
   381
  0
VERTEX
  5
254
  8
METAL
 10
0.0
 20
0.0
 30
0.0
 70
   128
 71
   370
 72
   369
 73
   371
 74
   372
  0
VERTEX
  5
255
  8
METAL
 10
0.0
 20
0.0
 30
0.0
 70
   128
 71
   361
 72
   351
 73
   354
 74
   358
  0
VERTEX
  5
256
  8
METAL
 10
0.0
 20
0.0
 30
0.0
 70
   128
 71
   362
 72
   360
 73
   356
 74
   352
  0
VERTEX
  5
257
  8
METAL
 10
0.0
 20
0.0
 30
0.0
 70
   128
 71
   357
 72
   353
 73
   355
 74
   359
  0
VERTEX
  5
258
  8
METAL
 10
0.0
 20
0.0
 30
0.0
 70
   128
 71
   370
 72
   344
 73
   343
 74
   369
  0
VERTEX
  5
259
  8
METAL
 10
0.0
 20
0.0
 30
0.0
 70
   128
 71
   351
 72
   337
 73
   340
 74
   354
  0
VERTEX
  5
25A
  8
METAL
 10
0.0
 20
0.0
 30
0.0
 70
   128
 71
   342
 72
   338
 73
   352
 74
   356
  0
VERTEX
  5
25B
  8
METAL
 10
0.0
 20
0.0
 30
0.0
 70
   128
 71
   339
 72
   341
 73
   355
 74
   353
  0
VERTEX
  5
25C
  8
METAL
 10
0.0
 20
0.0
 30
0.0
 70
   128
 71
   330
 72
   329
 73
   343
 74
   344
  0
VERTEX
  5
25D
  8
METAL
 10
0.0
 20
0.0
 30
0.0
 70
   128
 71
   340
 72
   337
 73
   323
 74
   326
  0
VERTEX
  5
25E
  8
METAL
 10
0.0
 20
0.0
 30
0.0
 70
   128
 71
   338
 72
   342
 73
   328
 74
   324
  0
VERTEX
  5
25F
  8
METAL
 10
0.0
 20
0.0
 30
0.0
 70
   128
 71
   341
 72
   339
 73
   325
 74
   327
  0
VERTEX
  5
260
  8
METAL
 10
0.0
 20
0.0
 30
0.0
 70
   128
 71
   329
 72
   330
 73
   316
 74
   315
  0
VERTEX
  5
261
  8
METAL
 10
0.0
 20
0.0
 30
0.0
 70
   128
 71
   454
 72
   440
 73
   428
 74
   442
  0
VERTEX
  5
262
  8
METAL
 10
0.0
 20
0.0
 30
0.0
 70
   128
 71
   427
 72
   429
 73
   443
 74
   441
  0
VERTEX
  5
263
  8
METAL
 10
0.0
 20
0.0
 30
0.0
 70
   128
 71
   430
 72
   439
 73
   453
 74
   444
  0
VERTEX
  5
264
  8
METAL
 10
0.0
 20
0.0
 30
0.0
 70
   128
 71
   431
 72
   432
 73
   448
 74
   445
  0
VERTEX
  5
265
  8
METAL
 10
0.0
 20
0.0
 30
0.0
 70
   128
 71
   440
 72
   425
 73
   414
 74
   428
  0
VERTEX
  5
266
  8
METAL
 10
0.0
 20
0.0
 30
0.0
 70
   128
 71
   413
 72
   415
 73
   429
 74
   427
  0
VERTEX
  5
267
  8
METAL
 10
0.0
 20
0.0
 30
0.0
 70
   128
 71
   416
 72
   426
 73
   439
 74
   430
  0
VERTEX
  5
268
  8
METAL
 10
0.0
 20
0.0
 30
0.0
 70
   128
 71
   418
 72
   417
 73
   432
 74
   431
  0
VERTEX
  5
269
  8
METAL
 10
0.0
 20
0.0
 30
0.0
 70
   128
 71
   452
 72
   454
 73
   466
 74
   468
  0
VERTEX
  5
26A
  8
METAL
 10
0.0
 20
0.0
 30
0.0
 70
   128
 71
   491
 72
   487
 73
   461
 74
   462
  0
VERTEX
  5
26B
  8
METAL
 10
0.0
 20
0.0
 30
0.0
 70
   128
 71
   493
 72
   499
 73
   467
 74
   469
  0
VERTEX
  5
26C
  8
METAL
 10
0.0
 20
0.0
 30
0.0
 70
   128
 71
   462
 72
   461
 73
   453
 74
   451
  0
VERTEX
  5
26D
  8
METAL
 10
0.0
 20
0.0
 30
0.0
 70
   128
 71
   405
 72
   407
 73
   425
 74
   423
  0
VERTEX
  5
26E
  8
METAL
 10
0.0
 20
0.0
 30
0.0
 70
   128
 71
   424
 72
   426
 73
   408
 74
   406
  0
VERTEX
  5
26F
  8
METAL
 10
0.0
 20
0.0
 30
0.0
 70
   128
 71
   391
 72
   389
 73
   407
 74
   405
  0
VERTEX
  5
270
  8
METAL
 10
0.0
 20
0.0
 30
0.0
 70
   128
 71
   406
 72
   408
 73
   390
 74
   392
  0
VERTEX
  5
271
  8
METAL
 10
0.0
 20
0.0
 30
0.0
 70
   128
 71
   377
 72
   379
 73
   389
 74
   391
  0
VERTEX
  5
272
  8
METAL
 10
0.0
 20
0.0
 30
0.0
 70
   128
 71
   392
 72
   390
 73
   380
 74
   378
  0
VERTEX
  5
273
  8
METAL
 10
0.0
 20
0.0
 30
0.0
 70
   128
 71
   363
 72
   361
 73
   379
 74
   377
  0
VERTEX
  5
274
  8
METAL
 10
0.0
 20
0.0
 30
0.0
 70
   128
 71
   378
 72
   380
 73
   362
 74
   364
  0
VERTEX
  5
275
  8
METAL
 10
0.0
 20
0.0
 30
0.0
 70
   128
 71
   349
 72
   351
 73
   361
 74
   363
  0
VERTEX
  5
276
  8
METAL
 10
0.0
 20
0.0
 30
0.0
 70
   128
 71
   364
 72
   362
 73
   352
 74
   350
  0
VERTEX
  5
277
  8
METAL
 10
0.0
 20
0.0
 30
0.0
 70
   128
 71
   335
 72
   337
 73
   351
 74
   349
  0
VERTEX
  5
278
  8
METAL
 10
0.0
 20
0.0
 30
0.0
 70
   128
 71
   350
 72
   352
 73
   338
 74
   336
  0
VERTEX
  5
279
  8
METAL
 10
0.0
 20
0.0
 30
0.0
 70
   128
 71
   321
 72
   323
 73
   337
 74
   335
  0
VERTEX
  5
27A
  8
METAL
 10
0.0
 20
0.0
 30
0.0
 70
   128
 71
   336
 72
   338
 73
   324
 74
   322
  0
VERTEX
  5
27B
  8
METAL
 10
0.0
 20
0.0
 30
0.0
 70
   128
 71
   438
 72
   440
 73
   454
 74
   452
  0
VERTEX
  5
27C
  8
METAL
 10
0.0
 20
0.0
 30
0.0
 70
   128
 71
   451
 72
   453
 73
   439
 74
   437
  0
VERTEX
  5
27D
  8
METAL
 10
0.0
 20
0.0
 30
0.0
 70
   128
 71
   423
 72
   425
 73
   440
 74
   438
  0
VERTEX
  5
27E
  8
METAL
 10
0.0
 20
0.0
 30
0.0
 70
   128
 71
   437
 72
   439
 73
   426
 74
   424
  0
VERTEX
  5
27F
  8
METAL
 10
0.0
 20
0.0
 30
0.0
 70
   128
 71
   450
 72
   452
 73
   468
 74
   470
  0
VERTEX
  5
280
  8
METAL
 10
0.0
 20
0.0
 30
0.0
 70
   128
 71
   448
 72
   449
 73
   469
 74
   467
  0
VERTEX
  5
281
  8
METAL
 10
0.0
 20
0.0
 30
0.0
 70
   128
 71
   497
 72
   491
 73
   462
 74
   463
  0
VERTEX
  5
282
  8
METAL
 10
0.0
 20
0.0
 30
0.0
 70
   128
 71
   501
 72
   496
 73
   464
 74
   465
  0
VERTEX
  5
283
  8
METAL
 10
0.0
 20
0.0
 30
0.0
 70
   128
 71
   489
 72
   494
 73
   470
 74
   468
  0
VERTEX
  5
284
  8
METAL
 10
0.0
 20
0.0
 30
0.0
 70
   128
 71
   485
 72
   489
 73
   468
 74
   466
  0
VERTEX
  5
285
  8
METAL
 10
0.0
 20
0.0
 30
0.0
 70
   128
 71
   463
 72
   462
 73
   451
 74
   447
  0
VERTEX
  5
286
  8
METAL
 10
0.0
 20
0.0
 30
0.0
 70
   128
 71
   465
 72
   464
 73
   446
 74
   445
  0
VERTEX
  5
287
  8
METAL
 10
0.0
 20
0.0
 30
0.0
 70
   128
 71
   401
 72
   405
 73
   423
 74
   419
  0
VERTEX
  5
288
  8
METAL
 10
0.0
 20
0.0
 30
0.0
 70
   128
 71
   399
 72
   402
 73
   420
 74
   417
  0
VERTEX
  5
289
  8
METAL
 10
0.0
 20
0.0
 30
0.0
 70
   128
 71
   421
 72
   424
 73
   406
 74
   403
  0
VERTEX
  5
28A
  8
METAL
 10
0.0
 20
0.0
 30
0.0
 70
   128
 71
   418
 72
   422
 73
   404
 74
   400
  0
VERTEX
  5
28B
  8
METAL
 10
0.0
 20
0.0
 30
0.0
 70
   128
 71
   393
 72
   391
 73
   405
 74
   401
  0
VERTEX
  5
28C
  8
METAL
 10
0.0
 20
0.0
 30
0.0
 70
   128
 71
   397
 72
   394
 73
   402
 74
   399
  0
VERTEX
  5
28D
  8
METAL
 10
0.0
 20
0.0
 30
0.0
 70
   128
 71
   403
 72
   406
 73
   392
 74
   395
  0
VERTEX
  5
28E
  8
METAL
 10
0.0
 20
0.0
 30
0.0
 70
   128
 71
   400
 72
   404
 73
   396
 74
   398
  0
VERTEX
  5
28F
  8
METAL
 10
0.0
 20
0.0
 30
0.0
 70
   128
 71
   373
 72
   377
 73
   391
 74
   393
  0
VERTEX
  5
290
  8
METAL
 10
0.0
 20
0.0
 30
0.0
 70
   128
 71
   371
 72
   374
 73
   394
 74
   397
  0
VERTEX
  5
291
  8
METAL
 10
0.0
 20
0.0
 30
0.0
 70
   128
 71
   395
 72
   392
 73
   378
 74
   375
  0
VERTEX
  5
292
  8
METAL
 10
0.0
 20
0.0
 30
0.0
 70
   128
 71
   398
 72
   396
 73
   376
 74
   372
  0
VERTEX
  5
293
  8
METAL
 10
0.0
 20
0.0
 30
0.0
 70
   128
 71
   365
 72
   363
 73
   377
 74
   373
  0
VERTEX
  5
294
  8
METAL
 10
0.0
 20
0.0
 30
0.0
 70
   128
 71
   369
 72
   366
 73
   374
 74
   371
  0
VERTEX
  5
295
  8
METAL
 10
0.0
 20
0.0
 30
0.0
 70
   128
 71
   375
 72
   378
 73
   364
 74
   367
  0
VERTEX
  5
296
  8
METAL
 10
0.0
 20
0.0
 30
0.0
 70
   128
 71
   372
 72
   376
 73
   368
 74
   370
  0
VERTEX
  5
297
  8
METAL
 10
0.0
 20
0.0
 30
0.0
 70
   128
 71
   345
 72
   349
 73
   363
 74
   365
  0
VERTEX
  5
298
  8
METAL
 10
0.0
 20
0.0
 30
0.0
 70
   128
 71
   343
 72
   346
 73
   366
 74
   369
  0
VERTEX
  5
299
  8
METAL
 10
0.0
 20
0.0
 30
0.0
 70
   128
 71
   367
 72
   364
 73
   350
 74
   347
  0
VERTEX
  5
29A
  8
METAL
 10
0.0
 20
0.0
 30
0.0
 70
   128
 71
   370
 72
   368
 73
   348
 74
   344
  0
VERTEX
  5
29B
  8
METAL
 10
0.0
 20
0.0
 30
0.0
 70
   128
 71
   331
 72
   335
 73
   349
 74
   345
  0
VERTEX
  5
29C
  8
METAL
 10
0.0
 20
0.0
 30
0.0
 70
   128
 71
   329
 72
   332
 73
   346
 74
   343
  0
VERTEX
  5
29D
  8
METAL
 10
0.0
 20
0.0
 30
0.0
 70
   128
 71
   347
 72
   350
 73
   336
 74
   333
  0
VERTEX
  5
29E
  8
METAL
 10
0.0
 20
0.0
 30
0.0
 70
   128
 71
   344
 72
   348
 73
   334
 74
   330
  0
VERTEX
  5
29F
  8
METAL
 10
0.0
 20
0.0
 30
0.0
 70
   128
 71
   317
 72
   321
 73
   335
 74
   331
  0
VERTEX
  5
2A0
  8
METAL
 10
0.0
 20
0.0
 30
0.0
 70
   128
 71
   315
 72
   318
 73
   332
 74
   329
  0
VERTEX
  5
2A1
  8
METAL
 10
0.0
 20
0.0
 30
0.0
 70
   128
 71
   333
 72
   336
 73
   322
 74
   319
  0
VERTEX
  5
2A2
  8
METAL
 10
0.0
 20
0.0
 30
0.0
 70
   128
 71
   330
 72
   334
 73
   320
 74
   316
  0
VERTEX
  5
2A3
  8
METAL
 10
0.0
 20
0.0
 30
0.0
 70
   128
 71
   435
 72
   438
 73
   452
 74
   450
  0
VERTEX
  5
2A4
  8
METAL
 10
0.0
 20
0.0
 30
0.0
 70
   128
 71
   432
 72
   436
 73
   449
 74
   448
  0
VERTEX
  5
2A5
  8
METAL
 10
0.0
 20
0.0
 30
0.0
 70
   128
 71
   447
 72
   451
 73
   437
 74
   433
  0
VERTEX
  5
2A6
  8
METAL
 10
0.0
 20
0.0
 30
0.0
 70
   128
 71
   445
 72
   446
 73
   434
 74
   431
  0
VERTEX
  5
2A7
  8
METAL
 10
0.0
 20
0.0
 30
0.0
 70
   128
 71
   419
 72
   423
 73
   438
 74
   435
  0
VERTEX
  5
2A8
  8
METAL
 10
0.0
 20
0.0
 30
0.0
 70
   128
 71
   417
 72
   420
 73
   436
 74
   432
  0
VERTEX
  5
2A9
  8
METAL
 10
0.0
 20
0.0
 30
0.0
 70
   128
 71
   433
 72
   437
 73
   424
 74
   421
  0
VERTEX
  5
2AA
  8
METAL
 10
0.0
 20
0.0
 30
0.0
 70
   128
 71
   431
 72
   434
 73
   422
 74
   418
  0
VERTEX
  5
2AB
  8
METAL
 10
0.0
 20
0.0
 30
0.0
 70
   128
 71
   326
 72
   323
 73
   309
 74
   312
  0
VERTEX
  5
2AC
  8
METAL
 10
0.0
 20
0.0
 30
0.0
 70
   128
 71
   324
 72
   328
 73
   314
 74
   310
  0
VERTEX
  5
2AD
  8
METAL
 10
0.0
 20
0.0
 30
0.0
 70
   128
 71
   327
 72
   325
 73
   311
 74
   313
  0
VERTEX
  5
2AE
  8
METAL
 10
0.0
 20
0.0
 30
0.0
 70
   128
 71
   315
 72
   316
 73
   302
 74
   301
  0
VERTEX
  5
2AF
  8
METAL
 10
0.0
 20
0.0
 30
0.0
 70
   128
 71
   318
 72
   315
 73
   301
 74
   304
  0
VERTEX
  5
2B0
  8
METAL
 10
0.0
 20
0.0
 30
0.0
 70
   128
 71
   322
 72
   324
 73
   310
 74
   308
  0
VERTEX
  5
2B1
  8
METAL
 10
0.0
 20
0.0
 30
0.0
 70
   128
 71
   323
 72
   321
 73
   307
 74
   309
  0
VERTEX
  5
2B2
  8
METAL
 10
0.0
 20
0.0
 30
0.0
 70
   128
 71
   321
 72
   317
 73
   303
 74
   307
  0
VERTEX
  5
2B3
  8
METAL
 10
0.0
 20
0.0
 30
0.0
 70
   128
 71
   316
 72
   320
 73
   306
 74
   302
  0
VERTEX
  5
2B4
  8
METAL
 10
0.0
 20
0.0
 30
0.0
 70
   128
 71
   319
 72
   322
 73
   308
 74
   305
  0
VERTEX
  5
2B5
  8
METAL
 10
0.0
 20
0.0
 30
0.0
 70
   128
 71
   312
 72
   309
 73
   295
 74
   298
  0
VERTEX
  5
2B6
  8
METAL
 10
0.0
 20
0.0
 30
0.0
 70
   128
 71
   310
 72
   314
 73
   300
 74
   296
  0
VERTEX
  5
2B7
  8
METAL
 10
0.0
 20
0.0
 30
0.0
 70
   128
 71
   313
 72
   311
 73
   297
 74
   299
  0
VERTEX
  5
2B8
  8
METAL
 10
0.0
 20
0.0
 30
0.0
 70
   128
 71
   301
 72
   302
 73
   288
 74
   287
  0
VERTEX
  5
2B9
  8
METAL
 10
0.0
 20
0.0
 30
0.0
 70
   128
 71
   304
 72
   301
 73
   287
 74
   289
  0
VERTEX
  5
2BA
  8
METAL
 10
0.0
 20
0.0
 30
0.0
 70
   128
 71
   308
 72
   310
 73
   296
 74
   294
  0
VERTEX
  5
2BB
  8
METAL
 10
0.0
 20
0.0
 30
0.0
 70
   128
 71
   309
 72
   307
 73
   293
 74
   295
  0
VERTEX
  5
2BC
  8
METAL
 10
0.0
 20
0.0
 30
0.0
 70
   128
 71
   307
 72
   303
 73
   290
 74
   293
  0
VERTEX
  5
2BD
  8
METAL
 10
0.0
 20
0.0
 30
0.0
 70
   128
 71
   302
 72
   306
 73
   292
 74
   288
  0
VERTEX
  5
2BE
  8
METAL
 10
0.0
 20
0.0
 30
0.0
 70
   128
 71
   305
 72
   308
 73
   294
 74
   291
  0
VERTEX
  5
2BF
  8
METAL
 10
0.0
 20
0.0
 30
0.0
 70
   128
 71
   298
 72
   295
 73
   281
 74
   284
  0
VERTEX
  5
2C0
  8
METAL
 10
0.0
 20
0.0
 30
0.0
 70
   128
 71
   296
 72
   300
 73
   286
 74
   282
  0
VERTEX
  5
2C1
  8
METAL
 10
0.0
 20
0.0
 30
0.0
 70
   128
 71
   299
 72
   297
 73
   283
 74
   285
  0
VERTEX
  5
2C2
  8
METAL
 10
0.0
 20
0.0
 30
0.0
 70
   128
 71
   287
 72
   288
 73
   274
 74
   273
  0
VERTEX
  5
2C3
  8
METAL
 10
0.0
 20
0.0
 30
0.0
 70
   128
 71
   289
 72
   287
 73
   273
 74
   276
  0
VERTEX
  5
2C4
  8
METAL
 10
0.0
 20
0.0
 30
0.0
 70
   128
 71
   294
 72
   296
 73
   282
 74
   280
  0
VERTEX
  5
2C5
  8
METAL
 10
0.0
 20
0.0
 30
0.0
 70
   128
 71
   295
 72
   293
 73
   279
 74
   281
  0
VERTEX
  5
2C6
  8
METAL
 10
0.0
 20
0.0
 30
0.0
 70
   128
 71
   293
 72
   290
 73
   275
 74
   279
  0
VERTEX
  5
2C7
  8
METAL
 10
0.0
 20
0.0
 30
0.0
 70
   128
 71
   288
 72
   292
 73
   278
 74
   274
  0
VERTEX
  5
2C8
  8
METAL
 10
0.0
 20
0.0
 30
0.0
 70
   128
 71
   291
 72
   294
 73
   280
 74
   277
  0
VERTEX
  5
2C9
  8
METAL
 10
0.0
 20
0.0
 30
0.0
 70
   128
 71
   284
 72
   281
 73
   267
 74
   270
  0
VERTEX
  5
2CA
  8
METAL
 10
0.0
 20
0.0
 30
0.0
 70
   128
 71
   282
 72
   286
 73
   272
 74
   268
  0
VERTEX
  5
2CB
  8
METAL
 10
0.0
 20
0.0
 30
0.0
 70
   128
 71
   285
 72
   283
 73
   269
 74
   271
  0
VERTEX
  5
2CC
  8
METAL
 10
0.0
 20
0.0
 30
0.0
 70
   128
 71
   273
 72
   274
 73
   260
 74
   259
  0
VERTEX
  5
2CD
  8
METAL
 10
0.0
 20
0.0
 30
0.0
 70
   128
 71
   276
 72
   273
 73
   259
 74
   261
  0
VERTEX
  5
2CE
  8
METAL
 10
0.0
 20
0.0
 30
0.0
 70
   128
 71
   280
 72
   282
 73
   268
 74
   266
  0
VERTEX
  5
2CF
  8
METAL
 10
0.0
 20
0.0
 30
0.0
 70
   128
 71
   281
 72
   279
 73
   265
 74
   267
  0
VERTEX
  5
2D0
  8
METAL
 10
0.0
 20
0.0
 30
0.0
 70
   128
 71
   279
 72
   275
 73
   262
 74
   265
  0
VERTEX
  5
2D1
  8
METAL
 10
0.0
 20
0.0
 30
0.0
 70
   128
 71
   274
 72
   278
 73
   264
 74
   260
  0
VERTEX
  5
2D2
  8
METAL
 10
0.0
 20
0.0
 30
0.0
 70
   128
 71
   277
 72
   280
 73
   266
 74
   263
  0
VERTEX
  5
2D3
  8
METAL
 10
0.0
 20
0.0
 30
0.0
 70
   128
 71
   267
 72
   247
 73
   246
 74
   270
  0
VERTEX
  5
2D4
  8
METAL
 10
0.0
 20
0.0
 30
0.0
 70
   128
 71
   268
 72
   272
 73
   258
 74
   256
  0
VERTEX
  5
2D5
  8
METAL
 10
0.0
 20
0.0
 30
0.0
 70
   128
 71
   269
 72
   245
 73
   257
 74
   271
  0
VERTEX
  5
2D6
  8
METAL
 10
0.0
 20
0.0
 30
0.0
 70
   128
 71
   260
 72
   252
 73
   251
 74
   259
  0
VERTEX
  5
2D7
  8
METAL
 10
0.0
 20
0.0
 30
0.0
 70
   128
 71
   259
 72
   251
 73
   250
 74
   261
  0
VERTEX
  5
2D8
  8
METAL
 10
0.0
 20
0.0
 30
0.0
 70
   128
 71
   266
 72
   268
 73
   256
 74
   255
  0
VERTEX
  5
2D9
  8
METAL
 10
0.0
 20
0.0
 30
0.0
 70
   128
 71
   265
 72
   248
 73
   247
 74
   267
  0
VERTEX
  5
2DA
  8
METAL
 10
0.0
 20
0.0
 30
0.0
 70
   128
 71
   262
 72
   249
 73
   248
 74
   265
  0
VERTEX
  5
2DB
  8
METAL
 10
0.0
 20
0.0
 30
0.0
 70
   128
 71
   264
 72
   254
 73
   252
 74
   260
  0
VERTEX
  5
2DC
  8
METAL
 10
0.0
 20
0.0
 30
0.0
 70
   128
 71
   263
 72
   266
 73
   255
 74
   253
  0
VERTEX
  5
2DD
  8
METAL
 10
0.0
 20
0.0
 30
0.0
 70
   128
 71
    37
 72
    44
 73
    59
 74
    49
  0
VERTEX
  5
2DE
  8
METAL
 10
0.0
 20
0.0
 30
0.0
 70
   128
 71
    18
 72
    42
 73
    47
 74
    32
  0
VERTEX
  5
2DF
  8
METAL
 10
0.0
 20
0.0
 30
0.0
 70
   128
 71
    18
 72
    32
 73
    28
 74
    22
  0
VERTEX
  5
2E0
  8
METAL
 10
0.0
 20
0.0
 30
0.0
 70
   128
 71
    60
 72
    45
 73
    48
 74
    62
  0
VERTEX
  5
2E1
  8
METAL
 10
0.0
 20
0.0
 30
0.0
 70
   128
 71
    36
 72
    38
 73
     4
 74
     2
  0
VERTEX
  5
2E2
  8
METAL
 10
0.0
 20
0.0
 30
0.0
 70
   128
 71
    29
 72
    31
 73
    46
 74
    43
  0
VERTEX
  5
2E3
  8
METAL
 10
0.0
 20
0.0
 30
0.0
 70
   128
 71
    24
 72
    27
 73
    31
 74
    29
  0
VERTEX
  5
2E4
  8
METAL
 10
0.0
 20
0.0
 30
0.0
 70
   128
 71
    19
 72
    21
 73
    26
 74
    23
  0
VERTEX
  5
2E5
  8
METAL
 10
0.0
 20
0.0
 30
0.0
 70
   128
 71
    21
 72
    19
 73
    15
 74
     3
  0
VERTEX
  5
2E6
  8
METAL
 10
0.0
 20
0.0
 30
0.0
 70
   128
 71
     5
 72
     1
 73
     3
 74
    11
  0
VERTEX
  5
2E7
  8
METAL
 10
0.0
 20
0.0
 30
0.0
 70
   128
 71
    15
 72
    11
 73
     3
 74
     3
  0
VERTEX
  5
2E8
  8
METAL
 10
0.0
 20
0.0
 30
0.0
 70
   128
 71
    21
 72
     3
 73
     8
 74
    13
  0
VERTEX
  5
2E9
  8
METAL
 10
0.0
 20
0.0
 30
0.0
 70
   128
 71
    21
 72
    13
 73
    17
 74
    17
  0
VERTEX
  5
2EA
  8
METAL
 10
0.0
 20
0.0
 30
0.0
 70
   128
 71
    61
 72
    47
 73
    42
 74
    50
  0
VERTEX
  5
2EB
  8
METAL
 10
0.0
 20
0.0
 30
0.0
 70
   128
 71
    58
 72
    38
 73
    36
 74
    55
  0
VERTEX
  5
2EC
  8
METAL
 10
0.0
 20
0.0
 30
0.0
 70
   128
 71
    37
 72
    16
 73
    20
 74
    30
  0
VERTEX
  5
2ED
  8
METAL
 10
0.0
 20
0.0
 30
0.0
 70
   128
 71
    20
 72
    25
 73
    30
 74
    30
  0
VERTEX
  5
2EE
  8
METAL
 10
0.0
 20
0.0
 30
0.0
 70
   128
 71
    44
 72
    37
 73
    30
 74
    30
  0
VERTEX
  5
2EF
  8
METAL
 10
0.0
 20
0.0
 30
0.0
 70
   128
 71
    77
 72
    87
 73
    91
 74
    95
  0
VERTEX
  5
2F0
  8
METAL
 10
0.0
 20
0.0
 30
0.0
 70
   128
 71
    78
 72
    96
 73
    93
 74
    89
  0
VERTEX
  5
2F1
  8
METAL
 10
0.0
 20
0.0
 30
0.0
 70
   128
 71
    88
 72
    90
 73
    94
 74
    92
  0
VERTEX
  5
2F2
  8
METAL
 10
0.0
 20
0.0
 30
0.0
 70
   128
 71
    86
 72
    85
 73
   103
 74
   104
  0
VERTEX
  5
2F3
  8
METAL
 10
0.0
 20
0.0
 30
0.0
 70
   128
 71
    95
 72
    91
 73
   115
 74
   113
  0
VERTEX
  5
2F4
  8
METAL
 10
0.0
 20
0.0
 30
0.0
 70
   128
 71
   117
 72
    93
 73
    96
 74
   114
  0
VERTEX
  5
2F5
  8
METAL
 10
0.0
 20
0.0
 30
0.0
 70
   128
 71
   116
 72
    92
 73
    94
 74
   118
  0
VERTEX
  5
2F6
  8
METAL
 10
0.0
 20
0.0
 30
0.0
 70
   128
 71
   106
 72
   104
 73
   103
 74
   105
  0
VERTEX
  5
2F7
  8
METAL
 10
0.0
 20
0.0
 30
0.0
 70
   128
 71
   113
 72
   115
 73
   119
 74
   123
  0
VERTEX
  5
2F8
  8
METAL
 10
0.0
 20
0.0
 30
0.0
 70
   128
 71
   114
 72
   124
 73
   121
 74
   117
  0
VERTEX
  5
2F9
  8
METAL
 10
0.0
 20
0.0
 30
0.0
 70
   128
 71
   116
 72
   118
 73
   122
 74
   120
  0
VERTEX
  5
2FA
  8
METAL
 10
0.0
 20
0.0
 30
0.0
 70
   128
 71
   106
 72
   105
 73
   131
 74
   132
  0
VERTEX
  5
2FB
  8
METAL
 10
0.0
 20
0.0
 30
0.0
 70
   128
 71
   123
 72
   119
 73
   143
 74
   141
  0
VERTEX
  5
2FC
  8
METAL
 10
0.0
 20
0.0
 30
0.0
 70
   128
 71
   145
 72
   121
 73
   124
 74
   142
  0
VERTEX
  5
2FD
  8
METAL
 10
0.0
 20
0.0
 30
0.0
 70
   128
 71
   144
 72
   120
 73
   122
 74
   146
  0
VERTEX
  5
2FE
  8
METAL
 10
0.0
 20
0.0
 30
0.0
 70
   128
 71
   134
 72
   132
 73
   131
 74
   133
  0
VERTEX
  5
2FF
  8
METAL
 10
0.0
 20
0.0
 30
0.0
 70
   128
 71
   141
 72
   143
 73
   147
 74
   151
  0
VERTEX
  5
300
  8
METAL
 10
0.0
 20
0.0
 30
0.0
 70
   128
 71
   142
 72
   152
 73
   149
 74
   145
  0
VERTEX
  5
301
  8
METAL
 10
0.0
 20
0.0
 30
0.0
 70
   128
 71
   144
 72
   146
 73
   150
 74
   148
  0
VERTEX
  5
302
  8
METAL
 10
0.0
 20
0.0
 30
0.0
 70
   128
 71
   134
 72
   133
 73
   159
 74
   160
  0
VERTEX
  5
303
  8
METAL
 10
0.0
 20
0.0
 30
0.0
 70
   128
 71
   151
 72
   147
 73
   161
 74
   165
  0
VERTEX
  5
304
  8
METAL
 10
0.0
 20
0.0
 30
0.0
 70
   128
 71
   163
 72
   149
 73
   152
 74
   166
  0
VERTEX
  5
305
  8
METAL
 10
0.0
 20
0.0
 30
0.0
 70
   128
 71
   162
 72
   148
 73
   150
 74
   164
  0
VERTEX
  5
306
  8
METAL
 10
0.0
 20
0.0
 30
0.0
 70
   128
 71
   174
 72
   160
 73
   159
 74
   173
  0
VERTEX
  5
307
  8
METAL
 10
0.0
 20
0.0
 30
0.0
 70
   128
 71
   161
 72
   175
 73
   179
 74
   165
  0
VERTEX
  5
308
  8
METAL
 10
0.0
 20
0.0
 30
0.0
 70
   128
 71
   166
 72
   180
 73
   177
 74
   163
  0
VERTEX
  5
309
  8
METAL
 10
0.0
 20
0.0
 30
0.0
 70
   128
 71
   164
 72
   178
 73
   176
 74
   162
  0
VERTEX
  5
30A
  8
METAL
 10
0.0
 20
0.0
 30
0.0
 70
   128
 71
   173
 72
   187
 73
   188
 74
   174
  0
VERTEX
  5
30B
  8
METAL
 10
0.0
 20
0.0
 30
0.0
 70
   128
 71
    49
 72
    59
 73
    73
 74
    63
  0
VERTEX
  5
30C
  8
METAL
 10
0.0
 20
0.0
 30
0.0
 70
   128
 71
    74
 72
    60
 73
    62
 74
    76
  0
VERTEX
  5
30D
  8
METAL
 10
0.0
 20
0.0
 30
0.0
 70
   128
 71
    75
 72
    61
 73
    50
 74
    64
  0
VERTEX
  5
30E
  8
METAL
 10
0.0
 20
0.0
 30
0.0
 70
   128
 71
    72
 72
    58
 73
    55
 74
    71
  0
VERTEX
  5
30F
  8
METAL
 10
0.0
 20
0.0
 30
0.0
 70
   128
 71
    63
 72
    73
 73
    87
 74
    77
  0
VERTEX
  5
310
  8
METAL
 10
0.0
 20
0.0
 30
0.0
 70
   128
 71
    88
 72
    74
 73
    76
 74
    90
  0
VERTEX
  5
311
  8
METAL
 10
0.0
 20
0.0
 30
0.0
 70
   128
 71
    89
 72
    75
 73
    64
 74
    78
  0
VERTEX
  5
312
  8
METAL
 10
0.0
 20
0.0
 30
0.0
 70
   128
 71
    86
 72
    72
 73
    71
 74
    85
  0
VERTEX
  5
313
  8
METAL
 10
0.0
 20
0.0
 30
0.0
 70
   128
 71
    51
 72
    35
 73
    37
 74
    49
  0
VERTEX
  5
314
  8
METAL
 10
0.0
 20
0.0
 30
0.0
 70
   128
 71
    14
 72
    41
 73
    42
 74
    18
  0
VERTEX
  5
315
  8
METAL
 10
0.0
 20
0.0
 30
0.0
 70
   128
 71
     7
 72
    34
 73
    36
 74
     2
  0
VERTEX
  5
316
  8
METAL
 10
0.0
 20
0.0
 30
0.0
 70
   128
 71
    41
 72
    52
 73
    50
 74
    42
  0
VERTEX
  5
317
  8
METAL
 10
0.0
 20
0.0
 30
0.0
 70
   128
 71
    97
 72
    79
 73
    77
 74
    95
  0
VERTEX
  5
318
  8
METAL
 10
0.0
 20
0.0
 30
0.0
 70
   128
 71
    80
 72
    98
 73
    96
 74
    78
  0
VERTEX
  5
319
  8
METAL
 10
0.0
 20
0.0
 30
0.0
 70
   128
 71
   111
 72
    97
 73
    95
 74
   113
  0
VERTEX
  5
31A
  8
METAL
 10
0.0
 20
0.0
 30
0.0
 70
   128
 71
    98
 72
   112
 73
   114
 74
    96
  0
VERTEX
  5
31B
  8
METAL
 10
0.0
 20
0.0
 30
0.0
 70
   128
 71
   125
 72
   111
 73
   113
 74
   123
  0
VERTEX
  5
31C
  8
METAL
 10
0.0
 20
0.0
 30
0.0
 70
   128
 71
   112
 72
   126
 73
   124
 74
   114
  0
VERTEX
  5
31D
  8
METAL
 10
0.0
 20
0.0
 30
0.0
 70
   128
 71
   139
 72
   125
 73
   123
 74
   141
  0
VERTEX
  5
31E
  8
METAL
 10
0.0
 20
0.0
 30
0.0
 70
   128
 71
   126
 72
   140
 73
   142
 74
   124
  0
VERTEX
  5
31F
  8
METAL
 10
0.0
 20
0.0
 30
0.0
 70
   128
 71
   153
 72
   139
 73
   141
 74
   151
  0
VERTEX
  5
320
  8
METAL
 10
0.0
 20
0.0
 30
0.0
 70
   128
 71
   140
 72
   154
 73
   152
 74
   142
  0
VERTEX
  5
321
  8
METAL
 10
0.0
 20
0.0
 30
0.0
 70
   128
 71
   167
 72
   153
 73
   151
 74
   165
  0
VERTEX
  5
322
  8
METAL
 10
0.0
 20
0.0
 30
0.0
 70
   128
 71
   154
 72
   168
 73
   166
 74
   152
  0
VERTEX
  5
323
  8
METAL
 10
0.0
 20
0.0
 30
0.0
 70
   128
 71
   181
 72
   167
 73
   165
 74
   179
  0
VERTEX
  5
324
  8
METAL
 10
0.0
 20
0.0
 30
0.0
 70
   128
 71
   168
 72
   182
 73
   180
 74
   166
  0
VERTEX
  5
325
  8
METAL
 10
0.0
 20
0.0
 30
0.0
 70
   128
 71
    65
 72
    51
 73
    49
 74
    63
  0
VERTEX
  5
326
  8
METAL
 10
0.0
 20
0.0
 30
0.0
 70
   128
 71
    52
 72
    66
 73
    64
 74
    50
  0
VERTEX
  5
327
  8
METAL
 10
0.0
 20
0.0
 30
0.0
 70
   128
 71
    79
 72
    65
 73
    63
 74
    77
  0
VERTEX
  5
328
  8
METAL
 10
0.0
 20
0.0
 30
0.0
 70
   128
 71
    66
 72
    80
 73
    78
 74
    64
  0
VERTEX
  5
329
  8
METAL
 10
0.0
 20
0.0
 30
0.0
 70
   128
 71
    54
 72
    33
 73
    35
 74
    51
  0
VERTEX
  5
32A
  8
METAL
 10
0.0
 20
0.0
 30
0.0
 70
   128
 71
    55
 72
    36
 73
    34
 74
    53
  0
VERTEX
  5
32B
  8
METAL
 10
0.0
 20
0.0
 30
0.0
 70
   128
 71
     9
 72
    39
 73
    41
 74
    14
  0
VERTEX
  5
32C
  8
METAL
 10
0.0
 20
0.0
 30
0.0
 70
   128
 71
     4
 72
    38
 73
    40
 74
    10
  0
VERTEX
  5
32D
  8
METAL
 10
0.0
 20
0.0
 30
0.0
 70
   128
 71
    12
 72
    35
 73
    33
 74
     6
  0
VERTEX
  5
32E
  8
METAL
 10
0.0
 20
0.0
 30
0.0
 70
   128
 71
    16
 72
    37
 73
    35
 74
    12
  0
VERTEX
  5
32F
  8
METAL
 10
0.0
 20
0.0
 30
0.0
 70
   128
 71
    39
 72
    57
 73
    52
 74
    41
  0
VERTEX
  5
330
  8
METAL
 10
0.0
 20
0.0
 30
0.0
 70
   128
 71
    38
 72
    58
 73
    56
 74
    40
  0
VERTEX
  5
331
  8
METAL
 10
0.0
 20
0.0
 30
0.0
 70
   128
 71
   100
 72
    82
 73
    79
 74
    97
  0
VERTEX
  5
332
  8
METAL
 10
0.0
 20
0.0
 30
0.0
 70
   128
 71
   103
 72
    85
 73
    81
 74
    99
  0
VERTEX
  5
333
  8
METAL
 10
0.0
 20
0.0
 30
0.0
 70
   128
 71
    84
 72
   102
 73
    98
 74
    80
  0
VERTEX
  5
334
  8
METAL
 10
0.0
 20
0.0
 30
0.0
 70
   128
 71
    86
 72
   104
 73
   101
 74
    83
  0
VERTEX
  5
335
  8
METAL
 10
0.0
 20
0.0
 30
0.0
 70
   128
 71
   108
 72
   100
 73
    97
 74
   111
  0
VERTEX
  5
336
  8
METAL
 10
0.0
 20
0.0
 30
0.0
 70
   128
 71
   105
 72
   103
 73
    99
 74
   107
  0
VERTEX
  5
337
  8
METAL
 10
0.0
 20
0.0
 30
0.0
 70
   128
 71
   102
 72
   110
 73
   112
 74
    98
  0
VERTEX
  5
338
  8
METAL
 10
0.0
 20
0.0
 30
0.0
 70
   128
 71
   104
 72
   106
 73
   109
 74
   101
  0
VERTEX
  5
339
  8
METAL
 10
0.0
 20
0.0
 30
0.0
 70
   128
 71
   128
 72
   108
 73
   111
 74
   125
  0
VERTEX
  5
33A
  8
METAL
 10
0.0
 20
0.0
 30
0.0
 70
   128
 71
   131
 72
   105
 73
   107
 74
   127
  0
VERTEX
  5
33B
  8
METAL
 10
0.0
 20
0.0
 30
0.0
 70
   128
 71
   110
 72
   130
 73
   126
 74
   112
  0
VERTEX
  5
33C
  8
METAL
 10
0.0
 20
0.0
 30
0.0
 70
   128
 71
   106
 72
   132
 73
   129
 74
   109
  0
VERTEX
  5
33D
  8
METAL
 10
0.0
 20
0.0
 30
0.0
 70
   128
 71
   136
 72
   128
 73
   125
 74
   139
  0
VERTEX
  5
33E
  8
METAL
 10
0.0
 20
0.0
 30
0.0
 70
   128
 71
   133
 72
   131
 73
   127
 74
   135
  0
VERTEX
  5
33F
  8
METAL
 10
0.0
 20
0.0
 30
0.0
 70
   128
 71
   130
 72
   138
 73
   140
 74
   126
  0
VERTEX
  5
340
  8
METAL
 10
0.0
 20
0.0
 30
0.0
 70
   128
 71
   132
 72
   134
 73
   137
 74
   129
  0
VERTEX
  5
341
  8
METAL
 10
0.0
 20
0.0
 30
0.0
 70
   128
 71
   156
 72
   136
 73
   139
 74
   153
  0
VERTEX
  5
342
  8
METAL
 10
0.0
 20
0.0
 30
0.0
 70
   128
 71
   159
 72
   133
 73
   135
 74
   155
  0
VERTEX
  5
343
  8
METAL
 10
0.0
 20
0.0
 30
0.0
 70
   128
 71
   138
 72
   158
 73
   154
 74
   140
  0
VERTEX
  5
344
  8
METAL
 10
0.0
 20
0.0
 30
0.0
 70
   128
 71
   134
 72
   160
 73
   157
 74
   137
  0
VERTEX
  5
345
  8
METAL
 10
0.0
 20
0.0
 30
0.0
 70
   128
 71
   170
 72
   156
 73
   153
 74
   167
  0
VERTEX
  5
346
  8
METAL
 10
0.0
 20
0.0
 30
0.0
 70
   128
 71
   173
 72
   159
 73
   155
 74
   169
  0
VERTEX
  5
347
  8
METAL
 10
0.0
 20
0.0
 30
0.0
 70
   128
 71
   158
 72
   172
 73
   168
 74
   154
  0
VERTEX
  5
348
  8
METAL
 10
0.0
 20
0.0
 30
0.0
 70
   128
 71
   160
 72
   174
 73
   171
 74
   157
  0
VERTEX
  5
349
  8
METAL
 10
0.0
 20
0.0
 30
0.0
 70
   128
 71
   184
 72
   170
 73
   167
 74
   181
  0
VERTEX
  5
34A
  8
METAL
 10
0.0
 20
0.0
 30
0.0
 70
   128
 71
   187
 72
   173
 73
   169
 74
   183
  0
VERTEX
  5
34B
  8
METAL
 10
0.0
 20
0.0
 30
0.0
 70
   128
 71
   172
 72
   186
 73
   182
 74
   168
  0
VERTEX
  5
34C
  8
METAL
 10
0.0
 20
0.0
 30
0.0
 70
   128
 71
   174
 72
   188
 73
   185
 74
   171
  0
VERTEX
  5
34D
  8
METAL
 10
0.0
 20
0.0
 30
0.0
 70
   128
 71
    68
 72
    54
 73
    51
 74
    65
  0
VERTEX
  5
34E
  8
METAL
 10
0.0
 20
0.0
 30
0.0
 70
   128
 71
    71
 72
    55
 73
    53
 74
    67
  0
VERTEX
  5
34F
  8
METAL
 10
0.0
 20
0.0
 30
0.0
 70
   128
 71
    57
 72
    70
 73
    66
 74
    52
  0
VERTEX
  5
350
  8
METAL
 10
0.0
 20
0.0
 30
0.0
 70
   128
 71
    58
 72
    72
 73
    69
 74
    56
  0
VERTEX
  5
351
  8
METAL
 10
0.0
 20
0.0
 30
0.0
 70
   128
 71
    82
 72
    68
 73
    65
 74
    79
  0
VERTEX
  5
352
  8
METAL
 10
0.0
 20
0.0
 30
0.0
 70
   128
 71
    85
 72
    71
 73
    67
 74
    81
  0
VERTEX
  5
353
  8
METAL
 10
0.0
 20
0.0
 30
0.0
 70
   128
 71
    70
 72
    84
 73
    80
 74
    66
  0
VERTEX
  5
354
  8
METAL
 10
0.0
 20
0.0
 30
0.0
 70
   128
 71
    72
 72
    86
 73
    83
 74
    69
  0
VERTEX
  5
355
  8
METAL
 10
0.0
 20
0.0
 30
0.0
 70
   128
 71
   175
 72
   189
 73
   193
 74
   179
  0
VERTEX
  5
356
  8
METAL
 10
0.0
 20
0.0
 30
0.0
 70
   128
 71
   180
 72
   194
 73
   191
 74
   177
  0
VERTEX
  5
357
  8
METAL
 10
0.0
 20
0.0
 30
0.0
 70
   128
 71
   178
 72
   192
 73
   190
 74
   176
  0
VERTEX
  5
358
  8
METAL
 10
0.0
 20
0.0
 30
0.0
 70
   128
 71
   187
 72
   201
 73
   202
 74
   188
  0
VERTEX
  5
359
  8
METAL
 10
0.0
 20
0.0
 30
0.0
 70
   128
 71
   183
 72
   197
 73
   201
 74
   187
  0
VERTEX
  5
35A
  8
METAL
 10
0.0
 20
0.0
 30
0.0
 70
   128
 71
   182
 72
   196
 73
   194
 74
   180
  0
VERTEX
  5
35B
  8
METAL
 10
0.0
 20
0.0
 30
0.0
 70
   128
 71
   179
 72
   193
 73
   195
 74
   181
  0
VERTEX
  5
35C
  8
METAL
 10
0.0
 20
0.0
 30
0.0
 70
   128
 71
   181
 72
   195
 73
   198
 74
   184
  0
VERTEX
  5
35D
  8
METAL
 10
0.0
 20
0.0
 30
0.0
 70
   128
 71
   188
 72
   202
 73
   199
 74
   185
  0
VERTEX
  5
35E
  8
METAL
 10
0.0
 20
0.0
 30
0.0
 70
   128
 71
   186
 72
   200
 73
   196
 74
   182
  0
VERTEX
  5
35F
  8
METAL
 10
0.0
 20
0.0
 30
0.0
 70
   128
 71
   189
 72
   203
 73
   207
 74
   193
  0
VERTEX
  5
360
  8
METAL
 10
0.0
 20
0.0
 30
0.0
 70
   128
 71
   194
 72
   208
 73
   205
 74
   191
  0
VERTEX
  5
361
  8
METAL
 10
0.0
 20
0.0
 30
0.0
 70
   128
 71
   192
 72
   206
 73
   204
 74
   190
  0
VERTEX
  5
362
  8
METAL
 10
0.0
 20
0.0
 30
0.0
 70
   128
 71
   201
 72
   215
 73
   216
 74
   202
  0
VERTEX
  5
363
  8
METAL
 10
0.0
 20
0.0
 30
0.0
 70
   128
 71
   197
 72
   211
 73
   215
 74
   201
  0
VERTEX
  5
364
  8
METAL
 10
0.0
 20
0.0
 30
0.0
 70
   128
 71
   196
 72
   210
 73
   208
 74
   194
  0
VERTEX
  5
365
  8
METAL
 10
0.0
 20
0.0
 30
0.0
 70
   128
 71
   193
 72
   207
 73
   209
 74
   195
  0
VERTEX
  5
366
  8
METAL
 10
0.0
 20
0.0
 30
0.0
 70
   128
 71
   195
 72
   209
 73
   212
 74
   198
  0
VERTEX
  5
367
  8
METAL
 10
0.0
 20
0.0
 30
0.0
 70
   128
 71
   202
 72
   216
 73
   213
 74
   199
  0
VERTEX
  5
368
  8
METAL
 10
0.0
 20
0.0
 30
0.0
 70
   128
 71
   200
 72
   214
 73
   210
 74
   196
  0
VERTEX
  5
369
  8
METAL
 10
0.0
 20
0.0
 30
0.0
 70
   128
 71
   203
 72
   217
 73
   221
 74
   207
  0
VERTEX
  5
36A
  8
METAL
 10
0.0
 20
0.0
 30
0.0
 70
   128
 71
   208
 72
   222
 73
   219
 74
   205
  0
VERTEX
  5
36B
  8
METAL
 10
0.0
 20
0.0
 30
0.0
 70
   128
 71
   206
 72
   220
 73
   218
 74
   204
  0
VERTEX
  5
36C
  8
METAL
 10
0.0
 20
0.0
 30
0.0
 70
   128
 71
   215
 72
   229
 73
   230
 74
   216
  0
VERTEX
  5
36D
  8
METAL
 10
0.0
 20
0.0
 30
0.0
 70
   128
 71
   211
 72
   225
 73
   229
 74
   215
  0
VERTEX
  5
36E
  8
METAL
 10
0.0
 20
0.0
 30
0.0
 70
   128
 71
   210
 72
   224
 73
   222
 74
   208
  0
VERTEX
  5
36F
  8
METAL
 10
0.0
 20
0.0
 30
0.0
 70
   128
 71
   207
 72
   221
 73
   223
 74
   209
  0
VERTEX
  5
370
  8
METAL
 10
0.0
 20
0.0
 30
0.0
 70
   128
 71
   209
 72
   223
 73
   226
 74
   212
  0
VERTEX
  5
371
  8
METAL
 10
0.0
 20
0.0
 30
0.0
 70
   128
 71
   216
 72
   230
 73
   227
 74
   213
  0
VERTEX
  5
372
  8
METAL
 10
0.0
 20
0.0
 30
0.0
 70
   128
 71
   214
 72
   228
 73
   224
 74
   210
  0
VERTEX
  5
373
  8
METAL
 10
0.0
 20
0.0
 30
0.0
 70
   128
 71
   217
 72
   231
 73
   235
 74
   221
  0
VERTEX
  5
374
  8
METAL
 10
0.0
 20
0.0
 30
0.0
 70
   128
 71
   222
 72
   236
 73
   233
 74
   219
  0
VERTEX
  5
375
  8
METAL
 10
0.0
 20
0.0
 30
0.0
 70
   128
 71
   220
 72
   234
 73
   232
 74
   218
  0
VERTEX
  5
376
  8
METAL
 10
0.0
 20
0.0
 30
0.0
 70
   128
 71
   229
 72
   243
 73
   244
 74
   230
  0
VERTEX
  5
377
  8
METAL
 10
0.0
 20
0.0
 30
0.0
 70
   128
 71
   225
 72
   239
 73
   243
 74
   229
  0
VERTEX
  5
378
  8
METAL
 10
0.0
 20
0.0
 30
0.0
 70
   128
 71
   224
 72
   238
 73
   236
 74
   222
  0
VERTEX
  5
379
  8
METAL
 10
0.0
 20
0.0
 30
0.0
 70
   128
 71
   221
 72
   235
 73
   237
 74
   223
  0
VERTEX
  5
37A
  8
METAL
 10
0.0
 20
0.0
 30
0.0
 70
   128
 71
   223
 72
   237
 73
   240
 74
   226
  0
VERTEX
  5
37B
  8
METAL
 10
0.0
 20
0.0
 30
0.0
 70
   128
 71
   230
 72
   244
 73
   241
 74
   227
  0
VERTEX
  5
37C
  8
METAL
 10
0.0
 20
0.0
 30
0.0
 70
   128
 71
   228
 72
   242
 73
   238
 74
   224
  0
VERTEX
  5
37D
  8
METAL
 10
0.0
 20
0.0
 30
0.0
 70
   128
 71
   235
 72
   231
 73
   246
 74
   247
  0
VERTEX
  5
37E
  8
METAL
 10
0.0
 20
0.0
 30
0.0
 70
   128
 71
   236
 72
   256
 73
   258
 74
   233
  0
VERTEX
  5
37F
  8
METAL
 10
0.0
 20
0.0
 30
0.0
 70
   128
 71
   232
 72
   234
 73
   257
 74
   245
  0
VERTEX
  5
380
  8
METAL
 10
0.0
 20
0.0
 30
0.0
 70
   128
 71
   244
 72
   243
 73
   251
 74
   252
  0
VERTEX
  5
381
  8
METAL
 10
0.0
 20
0.0
 30
0.0
 70
   128
 71
   243
 72
   239
 73
   250
 74
   251
  0
VERTEX
  5
382
  8
METAL
 10
0.0
 20
0.0
 30
0.0
 70
   128
 71
   238
 72
   255
 73
   256
 74
   236
  0
VERTEX
  5
383
  8
METAL
 10
0.0
 20
0.0
 30
0.0
 70
   128
 71
   237
 72
   235
 73
   247
 74
   248
  0
VERTEX
  5
384
  8
METAL
 10
0.0
 20
0.0
 30
0.0
 70
   128
 71
   240
 72
   237
 73
   248
 74
   249
  0
VERTEX
  5
385
  8
METAL
 10
0.0
 20
0.0
 30
0.0
 70
   128
 71
   241
 72
   244
 73
   252
 74
   254
  0
VERTEX
  5
386
  8
METAL
 10
0.0
 20
0.0
 30
0.0
 70
   128
 71
   242
 72
   253
 73
   255
 74
   238
  0
SEQEND
  5
43B
  8
METAL
  0
POLYLINE
  5
388
  8
METAL
 66
     1
 10
0.0
 20
0.0
 30
0.0
 70
    64
 71
   116
 72
    50
  0
VERTEX
  5
389
  8
METAL
 10
165.0708312988281
 20
-0.1682434082031108
 30
3.993171691894617
 70
   192
  0
VERTEX
  5
38A
  8
METAL
 10
165.0708312988281
 20
-0.1682434082031108
 30
3.993171691894617
 70
   192
  0
VERTEX
  5
38B
  8
METAL
 10
165.0708312988281
 20
-0.1682434082031108
 30
3.993171691894617
 70
   192
  0
VERTEX
  5
38C
  8
METAL
 10
165.0708312988281
 20
-0.1682434082030966
 30
-3.906715393066378
 70
   192
  0
VERTEX
  5
38D
  8
METAL
 10
165.0708312988281
 20
-0.1682434082030966
 30
-3.906715393066378
 70
   192
  0
VERTEX
  5
38E
  8
METAL
 10
165.0708312988281
 20
-0.1682434082030966
 30
-3.906715393066378
 70
   192
  0
VERTEX
  5
38F
  8
METAL
 10
159.9052429199218
 20
-0.1682434082031108
 30
3.993171691894617
 70
   192
  0
VERTEX
  5
390
  8
METAL
 10
159.9052429199218
 20
-0.1682434082031108
 30
3.993171691894617
 70
   192
  0
VERTEX
  5
391
  8
METAL
 10
159.9052429199218
 20
-0.1682434082030966
 30
-3.906715393066378
 70
   192
  0
VERTEX
  5
392
  8
METAL
 10
159.9052429199218
 20
-0.1682434082030966
 30
-3.906715393066378
 70
   192
  0
VERTEX
  5
393
  8
METAL
 10
156.8361511230468
 20
-2.264129638671889
 30
3.993171691894617
 70
   192
  0
VERTEX
  5
394
  8
METAL
 10
156.8361511230468
 20
-2.264129638671889
 30
3.993171691894617
 70
   192
  0
VERTEX
  5
395
  8
METAL
 10
156.8361511230468
 20
-2.264129638671875
 30
-3.906715393066378
 70
   192
  0
VERTEX
  5
396
  8
METAL
 10
156.8361511230468
 20
-2.264129638671875
 30
-3.906715393066378
 70
   192
  0
VERTEX
  5
397
  8
METAL
 10
156.0152893066406
 20
-0.1682434082031108
 30
3.993171691894617
 70
   192
  0
VERTEX
  5
398
  8
METAL
 10
156.0152893066406
 20
-0.1682434082031108
 30
3.993171691894617
 70
   192
  0
VERTEX
  5
399
  8
METAL
 10
156.0152893066406
 20
-0.1682434082030966
 30
-3.906715393066378
 70
   192
  0
VERTEX
  5
39A
  8
METAL
 10
156.0152893066406
 20
-0.1682434082030966
 30
-3.906715393066378
 70
   192
  0
VERTEX
  5
39B
  8
METAL
 10
151.0448913574218
 20
-0.1682434082031108
 30
3.993171691894617
 70
   192
  0
VERTEX
  5
39C
  8
METAL
 10
151.0448913574218
 20
-0.1682434082031108
 30
3.993171691894617
 70
   192
  0
VERTEX
  5
39D
  8
METAL
 10
151.0448913574218
 20
-0.1682434082030966
 30
-3.906715393066378
 70
   192
  0
VERTEX
  5
39E
  8
METAL
 10
151.0448913574218
 20
-0.1682434082030966
 30
-3.906715393066378
 70
   192
  0
VERTEX
  5
39F
  8
METAL
 10
146.7635803222656
 20
-4.697326660156293
 30
3.993171691894617
 70
   192
  0
VERTEX
  5
3A0
  8
METAL
 10
146.7635803222656
 20
-4.697326660156293
 30
3.993171691894617
 70
   192
  0
VERTEX
  5
3A1
  8
METAL
 10
146.7635803222656
 20
-4.697326660156278
 30
-3.906715393066378
 70
   192
  0
VERTEX
  5
3A2
  8
METAL
 10
146.7635803222656
 20
-4.697326660156278
 30
-3.906715393066378
 70
   192
  0
VERTEX
  5
3A3
  8
METAL
 10
144.7815551757812
 20
-0.1682434082031108
 30
3.993171691894617
 70
   192
  0
VERTEX
  5
3A4
  8
METAL
 10
144.7815551757812
 20
-0.1682434082031108
 30
3.993171691894617
 70
   192
  0
VERTEX
  5
3A5
  8
METAL
 10
144.7815551757812
 20
-0.1682434082031108
 30
3.993171691894617
 70
   192
  0
VERTEX
  5
3A6
  8
METAL
 10
144.7815551757812
 20
-0.1682434082030966
 30
-3.906715393066378
 70
   192
  0
VERTEX
  5
3A7
  8
METAL
 10
144.7815551757812
 20
-0.1682434082030966
 30
-3.906715393066378
 70
   192
  0
VERTEX
  5
3A8
  8
METAL
 10
144.7815551757812
 20
-0.1682434082030966
 30
-3.906715393066378
 70
   192
  0
VERTEX
  5
3A9
  8
METAL
 10
143.8328552246093
 20
-0.1682434082031108
 30
3.676933288574304
 70
   192
  0
VERTEX
  5
3AA
  8
METAL
 10
143.8328552246093
 20
-0.1682434082031108
 30
3.676933288574304
 70
   192
  0
VERTEX
  5
3AB
  8
METAL
 10
143.8328552246093
 20
-0.1682434082030966
 30
-3.590476989746094
 70
   192
  0
VERTEX
  5
3AC
  8
METAL
 10
143.8328552246093
 20
-0.1682434082030966
 30
-3.590476989746094
 70
   192
  0
VERTEX
  5
3AD
  8
METAL
 10
143.5166015625
 20
-0.1682434082030966
 30
2.72821807861331
 70
   192
  0
VERTEX
  5
3AE
  8
METAL
 10
143.5166015625
 20
-0.1682434082030966
 30
-2.641761779785099
 70
   192
  0
VERTEX
  5
3AF
  8
METAL
 10
131.5199279785156
 20
-8.09725952148439
 30
3.993171691894617
 70
   192
  0
VERTEX
  5
3B0
  8
METAL
 10
131.5199279785156
 20
-8.09725952148439
 30
3.993171691894617
 70
   192
  0
VERTEX
  5
3B1
  8
METAL
 10
131.5199279785156
 20
-8.097244262695284
 30
-3.906715393066378
 70
   192
  0
VERTEX
  5
3B2
  8
METAL
 10
131.5199279785156
 20
-8.097244262695284
 30
-3.906715393066378
 70
   192
  0
VERTEX
  5
3B3
  8
METAL
 10
122.2628479003906
 20
-9.698928833007798
 30
3.993171691894617
 70
   192
  0
VERTEX
  5
3B4
  8
METAL
 10
122.2628479003906
 20
-9.698928833007798
 30
3.993171691894617
 70
   192
  0
VERTEX
  5
3B5
  8
METAL
 10
122.2628479003906
 20
-9.698928833007798
 30
3.993171691894617
 70
   192
  0
VERTEX
  5
3B6
  8
METAL
 10
122.2628479003906
 20
-9.698928833007784
 30
-3.906715393066378
 70
   192
  0
VERTEX
  5
3B7
  8
METAL
 10
122.2628479003906
 20
-9.698928833007784
 30
-3.906715393066378
 70
   192
  0
VERTEX
  5
3B8
  8
METAL
 10
122.2628479003906
 20
-9.698928833007784
 30
-3.906715393066378
 70
   192
  0
VERTEX
  5
3B9
  8
METAL
 10
121.2803039550781
 20
-9.836288452148395
 30
3.676933288574304
 70
   192
  0
VERTEX
  5
3BA
  8
METAL
 10
121.2803039550781
 20
-9.836288452148395
 30
3.676933288574304
 70
   192
  0
VERTEX
  5
3BB
  8
METAL
 10
121.2803039550781
 20
-9.836288452148395
 30
3.676933288574304
 70
   192
  0
VERTEX
  5
3BC
  8
METAL
 10
121.2803039550781
 20
-9.83628845214838
 30
-3.590476989746094
 70
   192
  0
VERTEX
  5
3BD
  8
METAL
 10
121.2803039550781
 20
-9.83628845214838
 30
-3.590476989746094
 70
   192
  0
VERTEX
  5
3BE
  8
METAL
 10
121.2803039550781
 20
-9.83628845214838
 30
-3.590476989746094
 70
   192
  0
VERTEX
  5
3BF
  8
METAL
 10
120.9786682128906
 20
-9.931182861328097
 30
2.72821807861331
 70
   192
  0
VERTEX
  5
3C0
  8
METAL
 10
120.9786682128906
 20
-9.931182861328097
 30
2.72821807861331
 70
   192
  0
VERTEX
  5
3C1
  8
METAL
 10
120.9786682128906
 20
-9.931182861328097
 30
-2.641761779785099
 70
   192
  0
VERTEX
  5
3C2
  8
METAL
 10
120.9786682128906
 20
-9.931182861328097
 30
-2.641761779785099
 70
   192
  0
VERTEX
  5
3C3
  8
METAL
 10
-122.8131866455078
 20
-9.931182861328097
 30
2.72821807861331
 70
   192
  0
VERTEX
  5
3C4
  8
METAL
 10
-122.8131866455078
 20
-9.931182861328097
 30
2.72821807861331
 70
   192
  0
VERTEX
  5
3C5
  8
METAL
 10
-122.8131866455078
 20
-9.931182861328097
 30
-2.641761779785099
 70
   192
  0
VERTEX
  5
3C6
  8
METAL
 10
-122.8131866455078
 20
-9.931182861328097
 30
-2.641761779785099
 70
   192
  0
VERTEX
  5
3C7
  8
METAL
 10
-123.1148452758789
 20
-9.836288452148395
 30
3.676933288574304
 70
   192
  0
VERTEX
  5
3C8
  8
METAL
 10
-123.1148452758789
 20
-9.836288452148395
 30
3.676933288574304
 70
   192
  0
VERTEX
  5
3C9
  8
METAL
 10
-123.1148452758789
 20
-9.836288452148395
 30
3.676933288574304
 70
   192
  0
VERTEX
  5
3CA
  8
METAL
 10
-123.1148452758789
 20
-9.83628845214838
 30
-3.590476989746094
 70
   192
  0
VERTEX
  5
3CB
  8
METAL
 10
-123.1148452758789
 20
-9.83628845214838
 30
-3.590476989746094
 70
   192
  0
VERTEX
  5
3CC
  8
METAL
 10
-123.1148452758789
 20
-9.83628845214838
 30
-3.590476989746094
 70
   192
  0
VERTEX
  5
3CD
  8
METAL
 10
-124.0973815917969
 20
-9.698928833007798
 30
3.993171691894617
 70
   192
  0
VERTEX
  5
3CE
  8
METAL
 10
-124.0973815917969
 20
-9.698928833007798
 30
3.993171691894617
 70
   192
  0
VERTEX
  5
3CF
  8
METAL
 10
-124.0973815917969
 20
-9.698928833007798
 30
3.993171691894617
 70
   192
  0
VERTEX
  5
3D0
  8
METAL
 10
-124.0973815917969
 20
-9.698928833007784
 30
-3.906715393066378
 70
   192
  0
VERTEX
  5
3D1
  8
METAL
 10
-124.0973815917969
 20
-9.698928833007784
 30
-3.906715393066378
 70
   192
  0
VERTEX
  5
3D2
  8
METAL
 10
-124.0973815917969
 20
-9.698928833007784
 30
-3.906715393066378
 70
   192
  0
VERTEX
  5
3D3
  8
METAL
 10
-133.354476928711
 20
-8.09725952148439
 30
3.993171691894617
 70
   192
  0
VERTEX
  5
3D4
  8
METAL
 10
-133.354476928711
 20
-8.09725952148439
 30
3.993171691894617
 70
   192
  0
VERTEX
  5
3D5
  8
METAL
 10
-133.354476928711
 20
-8.097244262695284
 30
-3.906715393066378
 70
   192
  0
VERTEX
  5
3D6
  8
METAL
 10
-133.354476928711
 20
-8.097244262695284
 30
-3.906715393066378
 70
   192
  0
VERTEX
  5
3D7
  8
METAL
 10
-145.3511352539063
 20
-0.1682434082030966
 30
2.72821807861331
 70
   192
  0
VERTEX
  5
3D8
  8
METAL
 10
-145.3511352539063
 20
-0.1682434082030966
 30
-2.641761779785099
 70
   192
  0
VERTEX
  5
3D9
  8
METAL
 10
-145.6673736572266
 20
-0.1682434082031108
 30
3.676933288574304
 70
   192
  0
VERTEX
  5
3DA
  8
METAL
 10
-145.6673736572266
 20
-0.1682434082031108
 30
3.676933288574304
 70
   192
  0
VERTEX
  5
3DB
  8
METAL
 10
-145.6673736572266
 20
-0.1682434082030966
 30
-3.590476989746094
 70
   192
  0
VERTEX
  5
3DC
  8
METAL
 10
-145.6673736572266
 20
-0.1682434082030966
 30
-3.590476989746094
 70
   192
  0
VERTEX
  5
3DD
  8
METAL
 10
-146.6160888671875
 20
-0.1682434082031108
 30
3.993171691894617
 70
   192
  0
VERTEX
  5
3DE
  8
METAL
 10
-146.6160888671875
 20
-0.1682434082031108
 30
3.993171691894617
 70
   192
  0
VERTEX
  5
3DF
  8
METAL
 10
-146.6160888671875
 20
-0.1682434082031108
 30
3.993171691894617
 70
   192
  0
VERTEX
  5
3E0
  8
METAL
 10
-146.6160888671875
 20
-0.1682434082030966
 30
-3.906715393066378
 70
   192
  0
VERTEX
  5
3E1
  8
METAL
 10
-146.6160888671875
 20
-0.1682434082030966
 30
-3.906715393066378
 70
   192
  0
VERTEX
  5
3E2
  8
METAL
 10
-146.6160888671875
 20
-0.1682434082030966
 30
-3.906715393066378
 70
   192
  0
VERTEX
  5
3E3
  8
METAL
 10
-148.598129272461
 20
-4.697326660156293
 30
3.993171691894617
 70
   192
  0
VERTEX
  5
3E4
  8
METAL
 10
-148.598129272461
 20
-4.697326660156293
 30
3.993171691894617
 70
   192
  0
VERTEX
  5
3E5
  8
METAL
 10
-148.598129272461
 20
-4.697326660156278
 30
-3.906715393066378
 70
   192
  0
VERTEX
  5
3E6
  8
METAL
 10
-148.598129272461
 20
-4.697326660156278
 30
-3.906715393066378
 70
   192
  0
VERTEX
  5
3E7
  8
METAL
 10
-152.8794250488282
 20
-0.1682434082031108
 30
3.993171691894617
 70
   192
  0
VERTEX
  5
3E8
  8
METAL
 10
-152.8794250488282
 20
-0.1682434082031108
 30
3.993171691894617
 70
   192
  0
VERTEX
  5
3E9
  8
METAL
 10
-152.8794250488282
 20
-0.1682434082030966
 30
-3.906715393066378
 70
   192
  0
VERTEX
  5
3EA
  8
METAL
 10
-152.8794250488282
 20
-0.1682434082030966
 30
-3.906715393066378
 70
   192
  0
VERTEX
  5
3EB
  8
METAL
 10
-157.8498077392578
 20
-0.1682434082031108
 30
3.993171691894617
 70
   192
  0
VERTEX
  5
3EC
  8
METAL
 10
-157.8498077392578
 20
-0.1682434082031108
 30
3.993171691894617
 70
   192
  0
VERTEX
  5
3ED
  8
METAL
 10
-157.8498077392578
 20
-0.1682434082030966
 30
-3.906715393066378
 70
   192
  0
VERTEX
  5
3EE
  8
METAL
 10
-157.8498077392578
 20
-0.1682434082030966
 30
-3.906715393066378
 70
   192
  0
VERTEX
  5
3EF
  8
METAL
 10
-158.6706848144532
 20
-2.264129638671889
 30
3.993171691894617
 70
   192
  0
VERTEX
  5
3F0
  8
METAL
 10
-158.6706848144532
 20
-2.264129638671889
 30
3.993171691894617
 70
   192
  0
VERTEX
  5
3F1
  8
METAL
 10
-158.6706848144532
 20
-2.264129638671875
 30
-3.906715393066378
 70
   192
  0
VERTEX
  5
3F2
  8
METAL
 10
-158.6706848144532
 20
-2.264129638671875
 30
-3.906715393066378
 70
   192
  0
VERTEX
  5
3F3
  8
METAL
 10
-161.7397918701172
 20
-0.1682434082031108
 30
3.993171691894617
 70
   192
  0
VERTEX
  5
3F4
  8
METAL
 10
-161.7397918701172
 20
-0.1682434082031108
 30
3.993171691894617
 70
   192
  0
VERTEX
  5
3F5
  8
METAL
 10
-161.7397918701172
 20
-0.1682434082030966
 30
-3.906715393066378
 70
   192
  0
VERTEX
  5
3F6
  8
METAL
 10
-161.7397918701172
 20
-0.1682434082030966
 30
-3.906715393066378
 70
   192
  0
VERTEX
  5
3F7
  8
METAL
 10
-166.9053802490235
 20
-0.1682434082031108
 30
3.993171691894617
 70
   192
  0
VERTEX
  5
3F8
  8
METAL
 10
-166.9053802490235
 20
-0.1682434082031108
 30
3.993171691894617
 70
   192
  0
VERTEX
  5
3F9
  8
METAL
 10
-166.9053802490235
 20
-0.1682434082031108
 30
3.993171691894617
 70
   192
  0
VERTEX
  5
3FA
  8
METAL
 10
-166.9053802490235
 20
-0.1682434082030966
 30
-3.906715393066378
 70
   192
  0
VERTEX
  5
3FB
  8
METAL
 10
-166.9053802490235
 20
-0.1682434082030966
 30
-3.906715393066378
 70
   192
  0
VERTEX
  5
3FC
  8
METAL
 10
-166.9053802490235
 20
-0.1682434082030966
 30
-3.906715393066378
 70
   192
  0
VERTEX
  5
3FD
  8
METAL
 10
0.0
 20
0.0
 30
0.0
 70
   128
 71
   103
 72
    91
 73
    99
 74
   107
  0
VERTEX
  5
3FE
  8
METAL
 10
0.0
 20
0.0
 30
0.0
 70
   128
 71
   110
 72
   102
 73
    93
 74
   105
  0
VERTEX
  5
3FF
  8
METAL
 10
0.0
 20
0.0
 30
0.0
 70
   128
 71
   100
 72
   101
 73
   109
 74
   108
  0
VERTEX
  5
400
  8
METAL
 10
0.0
 20
0.0
 30
0.0
 70
   128
 71
    79
 72
    59
 73
    61
 74
    80
  0
VERTEX
  5
401
  8
METAL
 10
0.0
 20
0.0
 30
0.0
 70
   128
 71
    78
 72
    74
 73
    68
 74
    62
  0
VERTEX
  5
402
  8
METAL
 10
0.0
 20
0.0
 30
0.0
 70
   128
 71
    76
 72
    78
 73
    62
 74
    71
  0
VERTEX
  5
403
  8
METAL
 10
0.0
 20
0.0
 30
0.0
 70
   128
 71
    65
 72
    71
 73
    62
 74
    60
  0
VERTEX
  5
404
  8
METAL
 10
0.0
 20
0.0
 30
0.0
 70
   128
 71
    92
 72
    94
 73
    78
 74
    76
  0
VERTEX
  5
405
  8
METAL
 10
0.0
 20
0.0
 30
0.0
 70
   128
 71
    70
 72
    86
 73
    95
 74
    75
  0
VERTEX
  5
406
  8
METAL
 10
0.0
 20
0.0
 30
0.0
 70
   128
 71
    91
 72
    75
 73
    95
 74
    99
  0
VERTEX
  5
407
  8
METAL
 10
0.0
 20
0.0
 30
0.0
 70
   128
 71
   107
 72
   111
 73
   103
 74
   103
  0
VERTEX
  5
408
  8
METAL
 10
0.0
 20
0.0
 30
0.0
 70
   128
 71
    90
 72
    73
 73
    77
 74
    98
  0
VERTEX
  5
409
  8
METAL
 10
0.0
 20
0.0
 30
0.0
 70
   128
 71
    98
 72
    77
 73
    93
 74
   102
  0
VERTEX
  5
40A
  8
METAL
 10
0.0
 20
0.0
 30
0.0
 70
   128
 71
   105
 72
   115
 73
   110
 74
   110
  0
VERTEX
  5
40B
  8
METAL
 10
0.0
 20
0.0
 30
0.0
 70
   128
 71
    87
 72
    89
 73
    97
 74
    96
  0
VERTEX
  5
40C
  8
METAL
 10
0.0
 20
0.0
 30
0.0
 70
   128
 71
    96
 72
    97
 73
   101
 74
   100
  0
VERTEX
  5
40D
  8
METAL
 10
0.0
 20
0.0
 30
0.0
 70
   128
 71
   114
 72
   112
 73
   108
 74
   109
  0
VERTEX
  5
40E
  8
METAL
 10
0.0
 20
0.0
 30
0.0
 70
   128
 71
   113
 72
   116
 73
   106
 74
   104
  0
VERTEX
  5
40F
  8
METAL
 10
0.0
 20
0.0
 30
0.0
 70
   128
 71
   104
 72
   106
 73
    94
 74
    92
  0
VERTEX
  5
410
  8
METAL
 10
0.0
 20
0.0
 30
0.0
 70
   128
 71
    81
 72
    85
 73
    69
 74
    64
  0
VERTEX
  5
411
  8
METAL
 10
0.0
 20
0.0
 30
0.0
 70
   128
 71
    67
 72
    72
 73
    88
 74
    83
  0
VERTEX
  5
412
  8
METAL
 10
0.0
 20
0.0
 30
0.0
 70
   128
 71
    79
 72
    82
 73
    63
 74
    59
  0
VERTEX
  5
413
  8
METAL
 10
0.0
 20
0.0
 30
0.0
 70
   128
 71
    61
 72
    66
 73
    84
 74
    80
  0
VERTEX
  5
414
  8
METAL
 10
0.0
 20
0.0
 30
0.0
 70
   128
 71
    82
 72
    84
 73
    89
 74
    87
  0
VERTEX
  5
415
  8
METAL
 10
0.0
 20
0.0
 30
0.0
 70
   128
 71
    79
 72
    80
 73
    84
 74
    82
  0
VERTEX
  5
416
  8
METAL
 10
0.0
 20
0.0
 30
0.0
 70
   128
 71
    12
 72
     7
 73
    15
 74
    24
  0
VERTEX
  5
417
  8
METAL
 10
0.0
 20
0.0
 30
0.0
 70
   128
 71
    10
 72
    14
 73
    26
 74
    18
  0
VERTEX
  5
418
  8
METAL
 10
0.0
 20
0.0
 30
0.0
 70
   128
 71
    16
 72
     8
 73
     9
 74
    17
  0
VERTEX
  5
419
  8
METAL
 10
0.0
 20
0.0
 30
0.0
 70
   128
 71
    37
 72
    38
 73
    58
 74
    56
  0
VERTEX
  5
41A
  8
METAL
 10
0.0
 20
0.0
 30
0.0
 70
   128
 71
    52
 72
    46
 73
    41
 74
    57
  0
VERTEX
  5
41B
  8
METAL
 10
0.0
 20
0.0
 30
0.0
 70
   128
 71
    57
 72
    41
 73
    39
 74
    43
  0
VERTEX
  5
41C
  8
METAL
 10
0.0
 20
0.0
 30
0.0
 70
   128
 71
    57
 72
    43
 73
    49
 74
    55
  0
VERTEX
  5
41D
  8
METAL
 10
0.0
 20
0.0
 30
0.0
 70
   128
 71
    23
 72
    39
 73
    41
 74
    25
  0
VERTEX
  5
41E
  8
METAL
 10
0.0
 20
0.0
 30
0.0
 70
   128
 71
    44
 72
    40
 73
    19
 74
    27
  0
VERTEX
  5
41F
  8
METAL
 10
0.0
 20
0.0
 30
0.0
 70
   128
 71
    24
 72
    15
 73
    19
 74
    40
  0
VERTEX
  5
420
  8
METAL
 10
0.0
 20
0.0
 30
0.0
 70
   128
 71
     7
 72
    12
 73
     2
 74
     2
  0
VERTEX
  5
421
  8
METAL
 10
0.0
 20
0.0
 30
0.0
 70
   128
 71
    31
 72
    22
 73
    42
 74
    47
  0
VERTEX
  5
422
  8
METAL
 10
0.0
 20
0.0
 30
0.0
 70
   128
 71
    22
 72
    18
 73
    26
 74
    42
  0
VERTEX
  5
423
  8
METAL
 10
0.0
 20
0.0
 30
0.0
 70
   128
 71
    14
 72
    10
 73
     6
 74
     6
  0
VERTEX
  5
424
  8
METAL
 10
0.0
 20
0.0
 30
0.0
 70
   128
 71
    28
 72
    20
 73
    21
 74
    30
  0
VERTEX
  5
425
  8
METAL
 10
0.0
 20
0.0
 30
0.0
 70
   128
 71
    20
 72
    16
 73
    17
 74
    21
  0
VERTEX
  5
426
  8
METAL
 10
0.0
 20
0.0
 30
0.0
 70
   128
 71
     5
 72
     9
 73
     8
 74
     3
  0
VERTEX
  5
427
  8
METAL
 10
0.0
 20
0.0
 30
0.0
 70
   128
 71
     1
 72
    11
 73
    13
 74
     4
  0
VERTEX
  5
428
  8
METAL
 10
0.0
 20
0.0
 30
0.0
 70
   128
 71
    11
 72
    23
 73
    25
 74
    13
  0
VERTEX
  5
429
  8
METAL
 10
0.0
 20
0.0
 30
0.0
 70
   128
 71
    33
 72
    50
 73
    45
 74
    29
  0
VERTEX
  5
42A
  8
METAL
 10
0.0
 20
0.0
 30
0.0
 70
   128
 71
    53
 72
    35
 73
    32
 74
    48
  0
VERTEX
  5
42B
  8
METAL
 10
0.0
 20
0.0
 30
0.0
 70
   128
 71
    37
 72
    56
 73
    51
 74
    34
  0
VERTEX
  5
42C
  8
METAL
 10
0.0
 20
0.0
 30
0.0
 70
   128
 71
    58
 72
    38
 73
    36
 74
    54
  0
VERTEX
  5
42D
  8
METAL
 10
0.0
 20
0.0
 30
0.0
 70
   128
 71
    34
 72
    28
 73
    30
 74
    36
  0
VERTEX
  5
42E
  8
METAL
 10
0.0
 20
0.0
 30
0.0
 70
   128
 71
    37
 72
    34
 73
    36
 74
    38
  0
SEQEND
  5
449
  8
METAL
  0
ENDSEC
  0
EOF
