  0
SECTION
  2
HEADER
  9
$ACADVER
  1
AC1018
  9
$ACADMAINTVER
 70
     0
  9
$DWGCODEPAGE
  3
ANSI_1252
  9
$INSBASE
 10
0.0
 20
0.0
 30
0.0
  9
$EXTMIN
 10
-180.3538208007812
 20
260.8014831542969
 30
0.0124049996957183
  9
$EXTMAX
 10
19.07070159912109
 20
276.6520385742188
 30
48.1435661315918
  9
$LIMMIN
 10
0.0
 20
0.0
  9
$LIMMAX
 10
12.0
 20
9.0
  9
$ORTHOMODE
 70
     0
  9
$REGENMODE
 70
     1
  9
$FILLMODE
 70
     1
  9
$QTEXTMODE
 70
     0
  9
$MIRRTEXT
 70
     1
  9
$LTSCALE
 40
1.0
  9
$ATTMODE
 70
     1
  9
$TEXTSIZE
 40
0.2
  9
$TRACEWID
 40
0.05
  9
$TEXTSTYLE
  7
Standard
  9
$CLAYER
  8
METAL
  9
$CELTYPE
  6
ByLayer
  9
$CECOLOR
 62
   256
  9
$CELTSCALE
 40
1.0
  9
$DISPSILH
 70
     0
  9
$DIMSCALE
 40
1.0
  9
$DIMASZ
 40
0.18
  9
$DIMEXO
 40
0.0625
  9
$DIMDLI
 40
0.38
  9
$DIMRND
 40
0.0
  9
$DIMDLE
 40
0.0
  9
$DIMEXE
 40
0.18
  9
$DIMTP
 40
0.0
  9
$DIMTM
 40
0.0
  9
$DIMTXT
 40
0.18
  9
$DIMCEN
 40
0.09
  9
$DIMTSZ
 40
0.0
  9
$DIMTOL
 70
     0
  9
$DIMLIM
 70
     0
  9
$DIMTIH
 70
     1
  9
$DIMTOH
 70
     1
  9
$DIMSE1
 70
     0
  9
$DIMSE2
 70
     0
  9
$DIMTAD
 70
     0
  9
$DIMZIN
 70
     0
  9
$DIMBLK
  1

  9
$DIMASO
 70
     1
  9
$DIMSHO
 70
     1
  9
$DIMPOST
  1

  9
$DIMAPOST
  1

  9
$DIMALT
 70
     0
  9
$DIMALTD
 70
     2
  9
$DIMALTF
 40
25.4
  9
$DIMLFAC
 40
1.0
  9
$DIMTOFL
 70
     0
  9
$DIMTVP
 40
0.0
  9
$DIMTIX
 70
     0
  9
$DIMSOXD
 70
     0
  9
$DIMSAH
 70
     0
  9
$DIMBLK1
  1

  9
$DIMBLK2
  1

  9
$DIMSTYLE
  2
Standard
  9
$DIMCLRD
 70
     0
  9
$DIMCLRE
 70
     0
  9
$DIMCLRT
 70
     0
  9
$DIMTFAC
 40
1.0
  9
$DIMGAP
 40
0.09
  9
$DIMJUST
 70
     0
  9
$DIMSD1
 70
     0
  9
$DIMSD2
 70
     0
  9
$DIMTOLJ
 70
     1
  9
$DIMTZIN
 70
     0
  9
$DIMALTZ
 70
     0
  9
$DIMALTTZ
 70
     0
  9
$DIMUPT
 70
     0
  9
$DIMDEC
 70
     4
  9
$DIMTDEC
 70
     4
  9
$DIMALTU
 70
     2
  9
$DIMALTTD
 70
     2
  9
$DIMTXSTY
  7
Standard
  9
$DIMAUNIT
 70
     0
  9
$DIMADEC
 70
     0
  9
$DIMALTRND
 40
0.0
  9
$DIMAZIN
 70
     0
  9
$DIMDSEP
 70
    46
  9
$DIMATFIT
 70
     3
  9
$DIMFRAC
 70
     0
  9
$DIMLDRBLK
  1

  9
$DIMLUNIT
 70
     2
  9
$DIMLWD
 70
    -2
  9
$DIMLWE
 70
    -2
  9
$DIMTMOVE
 70
     2
  9
$LUNITS
 70
     2
  9
$LUPREC
 70
     3
  9
$SKETCHINC
 40
0.1
  9
$FILLETRAD
 40
0.5
  9
$AUNITS
 70
     0
  9
$AUPREC
 70
     0
  9
$MENU
  1
.
  9
$ELEVATION
 40
0.0
  9
$PELEVATION
 40
0.0
  9
$THICKNESS
 40
0.0
  9
$LIMCHECK
 70
     0
  9
$CHAMFERA
 40
0.5
  9
$CHAMFERB
 40
0.5
  9
$CHAMFERC
 40
1.0
  9
$CHAMFERD
 40
0.0
  9
$SKPOLY
 70
     0
  9
$TDCREATE
 40
2456504.619066852
  9
$TDUCREATE
 40
2456504.744066852
  9
$TDUPDATE
 40
2456504.619066863
  9
$TDUUPDATE
 40
2456504.744066863
  9
$TDINDWG
 40
0.0000000116
  9
$TDUSRTIMER
 40
0.0000000116
  9
$USRTIMER
 70
     1
  9
$ANGBASE
 50
0.0
  9
$ANGDIR
 70
     0
  9
$PDMODE
 70
     0
  9
$PDSIZE
 40
0.0
  9
$PLINEWID
 40
0.0
  9
$SPLFRAME
 70
     0
  9
$SPLINETYPE
 70
     6
  9
$SPLINESEGS
 70
     8
  9
$HANDSEED
  5
17D
  9
$SURFTAB1
 70
     6
  9
$SURFTAB2
 70
     6
  9
$SURFTYPE
 70
     6
  9
$SURFU
 70
     6
  9
$SURFV
 70
     6
  9
$UCSBASE
  2

  9
$UCSNAME
  2

  9
$UCSORG
 10
0.0
 20
0.0
 30
0.0
  9
$UCSXDIR
 10
1.0
 20
0.0
 30
0.0
  9
$UCSYDIR
 10
0.0
 20
1.0
 30
0.0
  9
$UCSORTHOREF
  2

  9
$UCSORTHOVIEW
 70
     0
  9
$UCSORGTOP
 10
0.0
 20
0.0
 30
0.0
  9
$UCSORGBOTTOM
 10
0.0
 20
0.0
 30
0.0
  9
$UCSORGLEFT
 10
0.0
 20
0.0
 30
0.0
  9
$UCSORGRIGHT
 10
0.0
 20
0.0
 30
0.0
  9
$UCSORGFRONT
 10
0.0
 20
0.0
 30
0.0
  9
$UCSORGBACK
 10
0.0
 20
0.0
 30
0.0
  9
$PUCSBASE
  2

  9
$PUCSNAME
  2

  9
$PUCSORG
 10
0.0
 20
0.0
 30
0.0
  9
$PUCSXDIR
 10
1.0
 20
0.0
 30
0.0
  9
$PUCSYDIR
 10
0.0
 20
1.0
 30
0.0
  9
$PUCSORTHOREF
  2

  9
$PUCSORTHOVIEW
 70
     0
  9
$PUCSORGTOP
 10
0.0
 20
0.0
 30
0.0
  9
$PUCSORGBOTTOM
 10
0.0
 20
0.0
 30
0.0
  9
$PUCSORGLEFT
 10
0.0
 20
0.0
 30
0.0
  9
$PUCSORGRIGHT
 10
0.0
 20
0.0
 30
0.0
  9
$PUCSORGFRONT
 10
0.0
 20
0.0
 30
0.0
  9
$PUCSORGBACK
 10
0.0
 20
0.0
 30
0.0
  9
$USERI1
 70
     0
  9
$USERI2
 70
     0
  9
$USERI3
 70
     0
  9
$USERI4
 70
     0
  9
$USERI5
 70
     0
  9
$USERR1
 40
0.0
  9
$USERR2
 40
0.0
  9
$USERR3
 40
0.0
  9
$USERR4
 40
0.0
  9
$USERR5
 40
0.0
  9
$WORLDVIEW
 70
     1
  9
$SHADEDGE
 70
     3
  9
$SHADEDIF
 70
    70
  9
$TILEMODE
 70
     1
  9
$MAXACTVP
 70
    64
  9
$PINSBASE
 10
0.0
 20
0.0
 30
0.0
  9
$PLIMCHECK
 70
     0
  9
$PEXTMIN
 10
1.000000000000000E+20
 20
1.000000000000000E+20
 30
1.000000000000000E+20
  9
$PEXTMAX
 10
-1.000000000000000E+20
 20
-1.000000000000000E+20
 30
-1.000000000000000E+20
  9
$PLIMMIN
 10
0.0
 20
0.0
  9
$PLIMMAX
 10
12.0
 20
9.0
  9
$UNITMODE
 70
     0
  9
$VISRETAIN
 70
     1
  9
$PLINEGEN
 70
     0
  9
$PSLTSCALE
 70
     1
  9
$TREEDEPTH
 70
  3020
  9
$CMLSTYLE
  2
Standard
  9
$CMLJUST
 70
     0
  9
$CMLSCALE
 40
1.0
  9
$PROXYGRAPHICS
 70
     1
  9
$MEASUREMENT
 70
     0
  9
$CELWEIGHT
370
    -1
  9
$ENDCAPS
280
     0
  9
$JOINSTYLE
280
     0
  9
$LWDISPLAY
290
     0
  9
$INSUNITS
 70
     4
  9
$HYPERLINKBASE
  1

  9
$STYLESHEET
  1

  9
$XEDIT
290
     1
  9
$CEPSNTYPE
380
     0
  9
$PSTYLEMODE
290
     1
  9
$FINGERPRINTGUID
  2
{736EC74E-056E-4441-A368-F381AD469737}
  9
$VERSIONGUID
  2
{FAEB1C32-E019-11D5-929B-00C0DF256EC4}
  9
$EXTNAMES
290
     1
  9
$PSVPSCALE
 40
0.0
  9
$OLESTARTUP
290
     0
  9
$SORTENTS
280
   127
  9
$INDEXCTL
280
     0
  9
$HIDETEXT
280
     1
  9
$XCLIPFRAME
290
     0
  9
$HALOGAP
280
     0
  9
$OBSCOLOR
 70
   257
  9
$OBSLTYPE
280
     0
  9
$INTERSECTIONDISPLAY
280
     0
  9
$INTERSECTIONCOLOR
 70
   257
  9
$DIMASSOC
280
     2
  9
$PROJECTNAME
  1

  0
ENDSEC
  0
SECTION
  2
CLASSES
  0
CLASS
  1
ACDBDICTIONARYWDFLT
  2
AcDbDictionaryWithDefault
  3
ObjectDBX Classes
 90
        0
 91
        4
280
     0
281
     0
  0
CLASS
  1
VISUALSTYLE
  2
AcDbVisualStyle
  3
ObjectDBX Classes
 90
     4095
 91
        4
280
     0
281
     0
  0
ENDSEC
  0
SECTION
  2
TABLES
  0
TABLE
  2
VPORT
  5
8
330
0
100
AcDbSymbolTable
 70
     1
  0
VPORT
  5
29
330
8
100
AcDbSymbolTableRecord
100
AcDbViewportTableRecord
  2
*Active
 70
     0
 10
0.0
 20
0.0
 11
1.0
 21
1.0
 12
-80.64155960083008
 22
268.7267608642578
 13
0.0
 23
0.0
 14
0.5
 24
0.5
 15
0.5
 25
0.5
 16
0.0
 26
0.0
 36
1.0
 17
0.0
 27
0.0
 37
0.0
 40
16.16756652832031
 41
12.58154790899342
 42
50.0
 43
0.0
 44
0.0
 50
0.0
 51
0.0
 71
     0
 72
   100
 73
     1
 74
     3
 75
     0
 76
     0
 77
     0
 78
     0
281
     0
 65
     1
110
0.0
120
0.0
130
0.0
111
1.0
121
0.0
131
0.0
112
0.0
122
1.0
132
0.0
 79
     0
146
0.0
  0
ENDTAB
  0
TABLE
  2
LTYPE
  5
5
330
0
100
AcDbSymbolTable
 70
     1
  0
LTYPE
  5
14
330
5
100
AcDbSymbolTableRecord
100
AcDbLinetypeTableRecord
  2
ByBlock
 70
     0
  3

 72
    65
 73
     0
 40
0.0
  0
LTYPE
  5
15
330
5
100
AcDbSymbolTableRecord
100
AcDbLinetypeTableRecord
  2
ByLayer
 70
     0
  3

 72
    65
 73
     0
 40
0.0
  0
LTYPE
  5
16
330
5
100
AcDbSymbolTableRecord
100
AcDbLinetypeTableRecord
  2
Continuous
 70
     0
  3
Solid line
 72
    65
 73
     0
 40
0.0
  0
ENDTAB
  0
TABLE
  2
LAYER
  5
2
330
0
100
AcDbSymbolTable
 70
     2
  0
LAYER
  5
10
330
2
100
AcDbSymbolTableRecord
100
AcDbLayerTableRecord
  2
0
 70
     0
 62
     7
  6
Continuous
370
    -3
390
F
  0
LAYER
  5
3B
330
2
100
AcDbSymbolTableRecord
100
AcDbLayerTableRecord
  2
METAL
 70
     0
 62
   150
  6
Continuous
370
    -3
390
F
  0
ENDTAB
  0
TABLE
  2
STYLE
  5
3
330
0
100
AcDbSymbolTable
 70
     1
  0
STYLE
  5
11
330
3
100
AcDbSymbolTableRecord
100
AcDbTextStyleTableRecord
  2
Standard
 70
     0
 40
0.0
 41
1.0
 50
0.0
 71
     0
 42
0.2
  3
txt
  4

  0
ENDTAB
  0
TABLE
  2
VIEW
  5
6
330
0
100
AcDbSymbolTable
 70
     0
  0
ENDTAB
  0
TABLE
  2
UCS
  5
7
330
0
100
AcDbSymbolTable
 70
     0
  0
ENDTAB
  0
TABLE
  2
APPID
  5
9
330
0
100
AcDbSymbolTable
 70
     1
  0
APPID
  5
12
330
9
100
AcDbSymbolTableRecord
100
AcDbRegAppTableRecord
  2
ACAD
 70
     0
  0
ENDTAB
  0
TABLE
  2
DIMSTYLE
  5
A
330
0
100
AcDbSymbolTable
 70
     1
100
AcDbDimStyleTable
  0
DIMSTYLE
105
27
330
A
100
AcDbSymbolTableRecord
100
AcDbDimStyleTableRecord
  2
Standard
 70
     0
340
11
  0
ENDTAB
  0
TABLE
  2
BLOCK_RECORD
  5
1
330
0
100
AcDbSymbolTable
 70
     1
  0
BLOCK_RECORD
  5
1F
330
1
100
AcDbSymbolTableRecord
100
AcDbBlockTableRecord
  2
*Model_Space
340
22
  0
BLOCK_RECORD
  5
1B
330
1
100
AcDbSymbolTableRecord
100
AcDbBlockTableRecord
  2
*Paper_Space
340
1E
  0
BLOCK_RECORD
  5
23
330
1
100
AcDbSymbolTableRecord
100
AcDbBlockTableRecord
  2
*Paper_Space0
340
26
  0
ENDTAB
  0
ENDSEC
  0
SECTION
  2
BLOCKS
  0
BLOCK
  5
20
330
1F
100
AcDbEntity
  8
0
100
AcDbBlockBegin
  2
*Model_Space
 70
     0
 10
0.0
 20
0.0
 30
0.0
  3
*Model_Space
  1

  0
ENDBLK
  5
21
330
1F
100
AcDbEntity
  8
0
100
AcDbBlockEnd
  0
BLOCK
  5
1C
330
1B
100
AcDbEntity
 67
     1
  8
0
100
AcDbBlockBegin
  2
*Paper_Space
 70
     0
 10
0.0
 20
0.0
 30
0.0
  3
*Paper_Space
  1

  0
ENDBLK
  5
1D
330
1B
100
AcDbEntity
 67
     1
  8
0
100
AcDbBlockEnd
  0
BLOCK
  5
24
330
23
100
AcDbEntity
  8
0
100
AcDbBlockBegin
  2
*Paper_Space0
 70
     0
 10
0.0
 20
0.0
 30
0.0
  3
*Paper_Space0
  1

  0
ENDBLK
  5
25
330
23
100
AcDbEntity
  8
0
100
AcDbBlockEnd
  0
ENDSEC
  0
SECTION
  2
ENTITIES
  0
POLYLINE
  5
3C
330
1F
100
AcDbEntity
  8
METAL
100
AcDbPolyFaceMesh
 66
     1
 10
0.0
 20
0.0
 30
0.0
 70
    64
 71
   100
 72
    53
  0
VERTEX
  5
3D
330
3C
100
AcDbEntity
  8
METAL
100
AcDbVertex
100
AcDbPolyFaceMeshVertex
 10
18.88567733764648
 20
276.5567932128906
 30
43.53591156005859
 70
   192
  0
VERTEX
  5
3E
330
3C
100
AcDbEntity
  8
METAL
100
AcDbVertex
100
AcDbPolyFaceMeshVertex
 10
18.88567733764648
 20
276.5567932128906
 30
43.53591156005859
 70
   192
  0
VERTEX
  5
3F
330
3C
100
AcDbEntity
  8
METAL
100
AcDbVertex
100
AcDbPolyFaceMeshVertex
 10
18.88567733764648
 20
276.5567932128906
 30
43.53591156005859
 70
   192
  0
VERTEX
  5
40
330
3C
100
AcDbEntity
  8
METAL
100
AcDbVertex
100
AcDbPolyFaceMeshVertex
 10
18.88567733764648
 20
276.5567932128906
 30
19.71063613891602
 70
   192
  0
VERTEX
  5
41
330
3C
100
AcDbEntity
  8
METAL
100
AcDbVertex
100
AcDbPolyFaceMeshVertex
 10
18.88567733764648
 20
276.5567932128906
 30
19.71063613891602
 70
   192
  0
VERTEX
  5
42
330
3C
100
AcDbEntity
  8
METAL
100
AcDbVertex
100
AcDbPolyFaceMeshVertex
 10
18.88567733764648
 20
276.5567932128906
 30
18.74950218200684
 70
   192
  0
VERTEX
  5
43
330
3C
100
AcDbEntity
  8
METAL
100
AcDbVertex
100
AcDbPolyFaceMeshVertex
 10
18.88567733764648
 20
276.5567932128906
 30
18.74950218200684
 70
   192
  0
VERTEX
  5
44
330
3C
100
AcDbEntity
  8
METAL
100
AcDbVertex
100
AcDbPolyFaceMeshVertex
 10
18.88567733764648
 20
276.5567932128906
 30
18.74950218200684
 70
   192
  0
VERTEX
  5
45
330
3C
100
AcDbEntity
  8
METAL
100
AcDbVertex
100
AcDbPolyFaceMeshVertex
 10
18.88567352294922
 20
260.8014831542969
 30
43.53591156005859
 70
   192
  0
VERTEX
  5
46
330
3C
100
AcDbEntity
  8
METAL
100
AcDbVertex
100
AcDbPolyFaceMeshVertex
 10
18.88567352294922
 20
260.8014831542969
 30
43.53591156005859
 70
   192
  0
VERTEX
  5
47
330
3C
100
AcDbEntity
  8
METAL
100
AcDbVertex
100
AcDbPolyFaceMeshVertex
 10
18.88567352294922
 20
260.8014831542969
 30
43.53591156005859
 70
   192
  0
VERTEX
  5
48
330
3C
100
AcDbEntity
  8
METAL
100
AcDbVertex
100
AcDbPolyFaceMeshVertex
 10
18.88567352294922
 20
260.8014831542969
 30
19.71063613891602
 70
   192
  0
VERTEX
  5
49
330
3C
100
AcDbEntity
  8
METAL
100
AcDbVertex
100
AcDbPolyFaceMeshVertex
 10
18.88567352294922
 20
260.8014831542969
 30
19.71063613891602
 70
   192
  0
VERTEX
  5
4A
330
3C
100
AcDbEntity
  8
METAL
100
AcDbVertex
100
AcDbPolyFaceMeshVertex
 10
18.88567352294922
 20
260.8014831542969
 30
18.74950218200684
 70
   192
  0
VERTEX
  5
4B
330
3C
100
AcDbEntity
  8
METAL
100
AcDbVertex
100
AcDbPolyFaceMeshVertex
 10
18.88567352294922
 20
260.8014831542969
 30
18.74950218200684
 70
   192
  0
VERTEX
  5
4C
330
3C
100
AcDbEntity
  8
METAL
100
AcDbVertex
100
AcDbPolyFaceMeshVertex
 10
18.88567352294922
 20
260.8014831542969
 30
18.74950218200684
 70
   192
  0
VERTEX
  5
4D
330
3C
100
AcDbEntity
  8
METAL
100
AcDbVertex
100
AcDbPolyFaceMeshVertex
 10
18.70060920715332
 20
276.348876953125
 30
18.74950218200684
 70
   192
  0
VERTEX
  5
4E
330
3C
100
AcDbEntity
  8
METAL
100
AcDbVertex
100
AcDbPolyFaceMeshVertex
 10
18.70060539245605
 20
261.0093688964844
 30
18.74950218200684
 70
   192
  0
VERTEX
  5
4F
330
3C
100
AcDbEntity
  8
METAL
100
AcDbVertex
100
AcDbPolyFaceMeshVertex
 10
18.52363586425781
 20
276.1459350585938
 30
0.0124059999361634
 70
   192
  0
VERTEX
  5
50
330
3C
100
AcDbEntity
  8
METAL
100
AcDbVertex
100
AcDbPolyFaceMeshVertex
 10
18.52363586425781
 20
276.1459350585938
 30
0.0124059999361634
 70
   192
  0
VERTEX
  5
51
330
3C
100
AcDbEntity
  8
METAL
100
AcDbVertex
100
AcDbPolyFaceMeshVertex
 10
18.52363586425781
 20
276.1459350585938
 30
0.0124059999361634
 70
   192
  0
VERTEX
  5
52
330
3C
100
AcDbEntity
  8
METAL
100
AcDbVertex
100
AcDbPolyFaceMeshVertex
 10
18.52363204956055
 20
261.2123413085938
 30
0.0124049996957183
 70
   192
  0
VERTEX
  5
53
330
3C
100
AcDbEntity
  8
METAL
100
AcDbVertex
100
AcDbPolyFaceMeshVertex
 10
18.52363204956055
 20
261.2123413085938
 30
0.0124049996957183
 70
   192
  0
VERTEX
  5
54
330
3C
100
AcDbEntity
  8
METAL
100
AcDbVertex
100
AcDbPolyFaceMeshVertex
 10
18.52363204956055
 20
261.2123413085938
 30
0.0124049996957183
 70
   192
  0
VERTEX
  5
55
330
3C
100
AcDbEntity
  8
METAL
100
AcDbVertex
100
AcDbPolyFaceMeshVertex
 10
18.44630432128906
 20
276.0549621582031
 30
18.74862861633301
 70
   192
  0
VERTEX
  5
56
330
3C
100
AcDbEntity
  8
METAL
100
AcDbVertex
100
AcDbPolyFaceMeshVertex
 10
18.44630432128906
 20
276.0549621582031
 30
18.74862861633301
 70
   192
  0
VERTEX
  5
57
330
3C
100
AcDbEntity
  8
METAL
100
AcDbVertex
100
AcDbPolyFaceMeshVertex
 10
18.44630432128906
 20
276.0549621582031
 30
18.74862861633301
 70
   192
  0
VERTEX
  5
58
330
3C
100
AcDbEntity
  8
METAL
100
AcDbVertex
100
AcDbPolyFaceMeshVertex
 10
18.4463005065918
 20
261.3033142089844
 30
18.74862861633301
 70
   192
  0
VERTEX
  5
59
330
3C
100
AcDbEntity
  8
METAL
100
AcDbVertex
100
AcDbPolyFaceMeshVertex
 10
18.4463005065918
 20
261.3033142089844
 30
18.74862861633301
 70
   192
  0
VERTEX
  5
5A
330
3C
100
AcDbEntity
  8
METAL
100
AcDbVertex
100
AcDbPolyFaceMeshVertex
 10
18.4463005065918
 20
261.3033142089844
 30
18.74862861633301
 70
   192
  0
VERTEX
  5
5B
330
3C
100
AcDbEntity
  8
METAL
100
AcDbVertex
100
AcDbPolyFaceMeshVertex
 10
15.3159065246582
 20
275.3787536621094
 30
18.74806594848633
 70
   192
  0
VERTEX
  5
5C
330
3C
100
AcDbEntity
  8
METAL
100
AcDbVertex
100
AcDbPolyFaceMeshVertex
 10
15.3159065246582
 20
275.3787536621094
 30
18.74806594848633
 70
   192
  0
VERTEX
  5
5D
330
3C
100
AcDbEntity
  8
METAL
100
AcDbVertex
100
AcDbPolyFaceMeshVertex
 10
15.31590461730957
 20
261.9795227050781
 30
18.74806594848633
 70
   192
  0
VERTEX
  5
5E
330
3C
100
AcDbEntity
  8
METAL
100
AcDbVertex
100
AcDbPolyFaceMeshVertex
 10
15.31590461730957
 20
261.9795227050781
 30
18.74806594848633
 70
   192
  0
VERTEX
  5
5F
330
3C
100
AcDbEntity
  8
METAL
100
AcDbVertex
100
AcDbPolyFaceMeshVertex
 10
15.28530120849609
 20
275.5684509277344
 30
0.1040259972214699
 70
   192
  0
VERTEX
  5
60
330
3C
100
AcDbEntity
  8
METAL
100
AcDbVertex
100
AcDbPolyFaceMeshVertex
 10
15.28530120849609
 20
275.5684509277344
 30
0.1040259972214699
 70
   192
  0
VERTEX
  5
61
330
3C
100
AcDbEntity
  8
METAL
100
AcDbVertex
100
AcDbPolyFaceMeshVertex
 10
15.28529930114746
 20
261.7898254394531
 30
0.1040159985423088
 70
   192
  0
VERTEX
  5
62
330
3C
100
AcDbEntity
  8
METAL
100
AcDbVertex
100
AcDbPolyFaceMeshVertex
 10
15.28529930114746
 20
261.7898254394531
 30
0.1040159985423088
 70
   192
  0
VERTEX
  5
63
330
3C
100
AcDbEntity
  8
METAL
100
AcDbVertex
100
AcDbPolyFaceMeshVertex
 10
15.2531681060791
 20
275.7574768066406
 30
18.74950218200684
 70
   192
  0
VERTEX
  5
64
330
3C
100
AcDbEntity
  8
METAL
100
AcDbVertex
100
AcDbPolyFaceMeshVertex
 10
15.25316429138184
 20
261.6007995605469
 30
18.74950218200684
 70
   192
  0
VERTEX
  5
65
330
3C
100
AcDbEntity
  8
METAL
100
AcDbVertex
100
AcDbPolyFaceMeshVertex
 10
15.21163368225098
 20
276.0290832519531
 30
43.53591156005859
 70
   192
  0
VERTEX
  5
66
330
3C
100
AcDbEntity
  8
METAL
100
AcDbVertex
100
AcDbPolyFaceMeshVertex
 10
15.21163368225098
 20
276.0290832519531
 30
43.53591156005859
 70
   192
  0
VERTEX
  5
67
330
3C
100
AcDbEntity
  8
METAL
100
AcDbVertex
100
AcDbPolyFaceMeshVertex
 10
15.21163368225098
 20
276.0290832519531
 30
19.71063613891602
 70
   192
  0
VERTEX
  5
68
330
3C
100
AcDbEntity
  8
METAL
100
AcDbVertex
100
AcDbPolyFaceMeshVertex
 10
15.21163368225098
 20
276.0290832519531
 30
18.74950218200684
 70
   192
  0
VERTEX
  5
69
330
3C
100
AcDbEntity
  8
METAL
100
AcDbVertex
100
AcDbPolyFaceMeshVertex
 10
15.21163368225098
 20
276.0290832519531
 30
18.74950218200684
 70
   192
  0
VERTEX
  5
6A
330
3C
100
AcDbEntity
  8
METAL
100
AcDbVertex
100
AcDbPolyFaceMeshVertex
 10
15.21163177490234
 20
261.3291931152344
 30
43.53591156005859
 70
   192
  0
VERTEX
  5
6B
330
3C
100
AcDbEntity
  8
METAL
100
AcDbVertex
100
AcDbPolyFaceMeshVertex
 10
15.21163177490234
 20
261.3291931152344
 30
43.53591156005859
 70
   192
  0
VERTEX
  5
6C
330
3C
100
AcDbEntity
  8
METAL
100
AcDbVertex
100
AcDbPolyFaceMeshVertex
 10
15.21163177490234
 20
261.3291931152344
 30
19.71063613891602
 70
   192
  0
VERTEX
  5
6D
330
3C
100
AcDbEntity
  8
METAL
100
AcDbVertex
100
AcDbPolyFaceMeshVertex
 10
15.21163177490234
 20
261.3291931152344
 30
18.74950218200684
 70
   192
  0
VERTEX
  5
6E
330
3C
100
AcDbEntity
  8
METAL
100
AcDbVertex
100
AcDbPolyFaceMeshVertex
 10
15.21163177490234
 20
261.3291931152344
 30
18.74950218200684
 70
   192
  0
VERTEX
  5
6F
330
3C
100
AcDbEntity
  8
METAL
100
AcDbVertex
100
AcDbPolyFaceMeshVertex
 10
11.84240055084229
 20
274.9132385253906
 30
18.74835586547852
 70
   192
  0
VERTEX
  5
70
330
3C
100
AcDbEntity
  8
METAL
100
AcDbVertex
100
AcDbPolyFaceMeshVertex
 10
11.84240055084229
 20
274.9132385253906
 30
18.74835586547852
 70
   192
  0
VERTEX
  5
71
330
3C
100
AcDbEntity
  8
METAL
100
AcDbVertex
100
AcDbPolyFaceMeshVertex
 10
11.8423900604248
 20
262.4450378417969
 30
18.74835586547852
 70
   192
  0
VERTEX
  5
72
330
3C
100
AcDbEntity
  8
METAL
100
AcDbVertex
100
AcDbPolyFaceMeshVertex
 10
11.8423900604248
 20
262.4450378417969
 30
18.74835586547852
 70
   192
  0
VERTEX
  5
73
330
3C
100
AcDbEntity
  8
METAL
100
AcDbVertex
100
AcDbPolyFaceMeshVertex
 10
11.77116775512695
 20
262.3073120117188
 30
0.0612139999866486
 70
   192
  0
VERTEX
  5
74
330
3C
100
AcDbEntity
  8
METAL
100
AcDbVertex
100
AcDbPolyFaceMeshVertex
 10
11.77116775512695
 20
262.3073120117188
 30
0.0612139999866486
 70
   192
  0
VERTEX
  5
75
330
3C
100
AcDbEntity
  8
METAL
100
AcDbVertex
100
AcDbPolyFaceMeshVertex
 10
11.77114677429199
 20
275.0509643554688
 30
0.0612239986658096
 70
   192
  0
VERTEX
  5
76
330
3C
100
AcDbEntity
  8
METAL
100
AcDbVertex
100
AcDbPolyFaceMeshVertex
 10
11.77114677429199
 20
275.0509643554688
 30
0.0612239986658096
 70
   192
  0
VERTEX
  5
77
330
3C
100
AcDbEntity
  8
METAL
100
AcDbVertex
100
AcDbPolyFaceMeshVertex
 10
11.66496467590332
 20
275.2561340332031
 30
18.74950218200684
 70
   192
  0
VERTEX
  5
78
330
3C
100
AcDbEntity
  8
METAL
100
AcDbVertex
100
AcDbPolyFaceMeshVertex
 10
11.66495418548584
 20
262.1021728515625
 30
18.74950218200684
 70
   192
  0
VERTEX
  5
79
330
3C
100
AcDbEntity
  8
METAL
100
AcDbVertex
100
AcDbPolyFaceMeshVertex
 10
11.53759098052979
 20
275.5013732910156
 30
43.53591156005859
 70
   192
  0
VERTEX
  5
7A
330
3C
100
AcDbEntity
  8
METAL
100
AcDbVertex
100
AcDbPolyFaceMeshVertex
 10
11.53759098052979
 20
275.5013732910156
 30
43.53591156005859
 70
   192
  0
VERTEX
  5
7B
330
3C
100
AcDbEntity
  8
METAL
100
AcDbVertex
100
AcDbPolyFaceMeshVertex
 10
11.53759098052979
 20
275.5013732910156
 30
19.71063613891602
 70
   192
  0
VERTEX
  5
7C
330
3C
100
AcDbEntity
  8
METAL
100
AcDbVertex
100
AcDbPolyFaceMeshVertex
 10
11.53759098052979
 20
275.5013732910156
 30
18.74950218200684
 70
   192
  0
VERTEX
  5
7D
330
3C
100
AcDbEntity
  8
METAL
100
AcDbVertex
100
AcDbPolyFaceMeshVertex
 10
11.53759098052979
 20
275.5013732910156
 30
18.74950218200684
 70
   192
  0
VERTEX
  5
7E
330
3C
100
AcDbEntity
  8
METAL
100
AcDbVertex
100
AcDbPolyFaceMeshVertex
 10
11.53758907318115
 20
261.8569030761719
 30
19.71063613891602
 70
   192
  0
VERTEX
  5
7F
330
3C
100
AcDbEntity
  8
METAL
100
AcDbVertex
100
AcDbPolyFaceMeshVertex
 10
11.53758907318115
 20
261.8569030761719
 30
18.74950218200684
 70
   192
  0
VERTEX
  5
80
330
3C
100
AcDbEntity
  8
METAL
100
AcDbVertex
100
AcDbPolyFaceMeshVertex
 10
11.53758907318115
 20
261.8569030761719
 30
18.74950218200684
 70
   192
  0
VERTEX
  5
81
330
3C
100
AcDbEntity
  8
METAL
100
AcDbVertex
100
AcDbPolyFaceMeshVertex
 10
11.53758907318115
 20
261.8568725585938
 30
43.53591156005859
 70
   192
  0
VERTEX
  5
82
330
3C
100
AcDbEntity
  8
METAL
100
AcDbVertex
100
AcDbPolyFaceMeshVertex
 10
11.53758907318115
 20
261.8568725585938
 30
43.53591156005859
 70
   192
  0
VERTEX
  5
83
330
3C
100
AcDbEntity
  8
METAL
100
AcDbVertex
100
AcDbPolyFaceMeshVertex
 10
9.150684356689453
 20
272.2890930175781
 30
18.74831199645996
 70
   192
  0
VERTEX
  5
84
330
3C
100
AcDbEntity
  8
METAL
100
AcDbVertex
100
AcDbPolyFaceMeshVertex
 10
9.150684356689453
 20
272.2890930175781
 30
18.74831199645996
 70
   192
  0
VERTEX
  5
85
330
3C
100
AcDbEntity
  8
METAL
100
AcDbVertex
100
AcDbPolyFaceMeshVertex
 10
9.150678634643555
 20
265.0692138671875
 30
18.74831199645996
 70
   192
  0
VERTEX
  5
86
330
3C
100
AcDbEntity
  8
METAL
100
AcDbVertex
100
AcDbPolyFaceMeshVertex
 10
9.150678634643555
 20
265.0692138671875
 30
18.74831199645996
 70
   192
  0
VERTEX
  5
87
330
3C
100
AcDbEntity
  8
METAL
100
AcDbVertex
100
AcDbPolyFaceMeshVertex
 10
9.008240699768066
 20
264.9895935058594
 30
0.0676449984312057
 70
   192
  0
VERTEX
  5
88
330
3C
100
AcDbEntity
  8
METAL
100
AcDbVertex
100
AcDbPolyFaceMeshVertex
 10
9.008240699768066
 20
264.9895935058594
 30
0.0676449984312057
 70
   192
  0
VERTEX
  5
89
330
3C
100
AcDbEntity
  8
METAL
100
AcDbVertex
100
AcDbPolyFaceMeshVertex
 10
9.00823974609375
 20
272.3686828613281
 30
0.0676440000534058
 70
   192
  0
VERTEX
  5
8A
330
3C
100
AcDbEntity
  8
METAL
100
AcDbVertex
100
AcDbPolyFaceMeshVertex
 10
9.00823974609375
 20
272.3686828613281
 30
0.0676440000534058
 70
   192
  0
VERTEX
  5
8B
330
3C
100
AcDbEntity
  8
METAL
100
AcDbVertex
100
AcDbPolyFaceMeshVertex
 10
8.807806015014648
 20
272.4806823730469
 30
18.74950218200684
 70
   192
  0
VERTEX
  5
8C
330
3C
100
AcDbEntity
  8
METAL
100
AcDbVertex
100
AcDbPolyFaceMeshVertex
 10
8.807801246643066
 20
264.8775939941406
 30
18.74950218200684
 70
   192
  0
VERTEX
  5
8D
330
3C
100
AcDbEntity
  8
METAL
100
AcDbVertex
100
AcDbPolyFaceMeshVertex
 10
8.562443733215332
 20
272.6179809570312
 30
19.71063613891602
 70
   192
  0
VERTEX
  5
8E
330
3C
100
AcDbEntity
  8
METAL
100
AcDbVertex
100
AcDbPolyFaceMeshVertex
 10
8.562443733215332
 20
272.6179809570312
 30
18.74950218200684
 70
   192
  0
VERTEX
  5
8F
330
3C
100
AcDbEntity
  8
METAL
100
AcDbVertex
100
AcDbPolyFaceMeshVertex
 10
8.562443733215332
 20
272.6179809570312
 30
18.74950218200684
 70
   192
  0
VERTEX
  5
90
330
3C
100
AcDbEntity
  8
METAL
100
AcDbVertex
100
AcDbPolyFaceMeshVertex
 10
8.562443733215332
 20
272.6179504394531
 30
43.53591156005859
 70
   192
  0
VERTEX
  5
91
330
3C
100
AcDbEntity
  8
METAL
100
AcDbVertex
100
AcDbPolyFaceMeshVertex
 10
8.562443733215332
 20
272.6179504394531
 30
43.53591156005859
 70
   192
  0
VERTEX
  5
92
330
3C
100
AcDbEntity
  8
METAL
100
AcDbVertex
100
AcDbPolyFaceMeshVertex
 10
8.562442779541016
 20
264.7402954101562
 30
43.53591156005859
 70
   192
  0
VERTEX
  5
93
330
3C
100
AcDbEntity
  8
METAL
100
AcDbVertex
100
AcDbPolyFaceMeshVertex
 10
8.562442779541016
 20
264.7402954101562
 30
43.53591156005859
 70
   192
  0
VERTEX
  5
94
330
3C
100
AcDbEntity
  8
METAL
100
AcDbVertex
100
AcDbPolyFaceMeshVertex
 10
8.562442779541016
 20
264.7402954101562
 30
19.71063613891602
 70
   192
  0
VERTEX
  5
95
330
3C
100
AcDbEntity
  8
METAL
100
AcDbVertex
100
AcDbPolyFaceMeshVertex
 10
8.562442779541016
 20
264.7402954101562
 30
18.74950218200684
 70
   192
  0
VERTEX
  5
96
330
3C
100
AcDbEntity
  8
METAL
100
AcDbVertex
100
AcDbPolyFaceMeshVertex
 10
8.562442779541016
 20
264.7402954101562
 30
18.74950218200684
 70
   192
  0
VERTEX
  5
97
330
3C
100
AcDbEntity
  8
METAL
100
AcDbVertex
100
AcDbPolyFaceMeshVertex
 10
8.152568817138672
 20
268.6791381835938
 30
18.74831199645996
 70
   192
  0
VERTEX
  5
98
330
3C
100
AcDbEntity
  8
METAL
100
AcDbVertex
100
AcDbPolyFaceMeshVertex
 10
8.152568817138672
 20
268.6791381835938
 30
18.74831199645996
 70
   192
  0
VERTEX
  5
99
330
3C
100
AcDbEntity
  8
METAL
100
AcDbVertex
100
AcDbPolyFaceMeshVertex
 10
7.988040924072266
 20
268.6791381835938
 30
0.0677620023488998
 70
   192
  0
VERTEX
  5
9A
330
3C
100
AcDbEntity
  8
METAL
100
AcDbVertex
100
AcDbPolyFaceMeshVertex
 10
7.988040924072266
 20
268.6791381835938
 30
0.0677620023488998
 70
   192
  0
VERTEX
  5
9B
330
3C
100
AcDbEntity
  8
METAL
100
AcDbVertex
100
AcDbPolyFaceMeshVertex
 10
7.75678014755249
 20
268.6791381835938
 30
18.74950218200684
 70
   192
  0
VERTEX
  5
9C
330
3C
100
AcDbEntity
  8
METAL
100
AcDbVertex
100
AcDbPolyFaceMeshVertex
 10
7.473464012145996
 20
268.6791381835938
 30
43.53591156005859
 70
   192
  0
VERTEX
  5
9D
330
3C
100
AcDbEntity
  8
METAL
100
AcDbVertex
100
AcDbPolyFaceMeshVertex
 10
7.473464012145996
 20
268.6791381835938
 30
43.53591156005859
 70
   192
  0
VERTEX
  5
9E
330
3C
100
AcDbEntity
  8
METAL
100
AcDbVertex
100
AcDbPolyFaceMeshVertex
 10
7.473464012145996
 20
268.6791381835938
 30
19.71063613891602
 70
   192
  0
VERTEX
  5
9F
330
3C
100
AcDbEntity
  8
METAL
100
AcDbVertex
100
AcDbPolyFaceMeshVertex
 10
7.473464012145996
 20
268.6791381835938
 30
18.74950218200684
 70
   192
  0
VERTEX
  5
A0
330
3C
100
AcDbEntity
  8
METAL
100
AcDbVertex
100
AcDbPolyFaceMeshVertex
 10
7.473464012145996
 20
268.6791381835938
 30
18.74950218200684
 70
   192
  0
VERTEX
  5
A1
330
3C
100
AcDbEntity
  8
METAL
100
AcDbFaceRecord
 10
0.0
 20
0.0
 30
0.0
 70
   128
 71
    36
 72
    32
 73
    27
 74
    21
  0
VERTEX
  5
A2
330
3C
100
AcDbEntity
  8
METAL
100
AcDbFaceRecord
 10
0.0
 20
0.0
 30
0.0
 70
   128
 71
    78
 72
    72
 73
    52
 74
    58
  0
VERTEX
  5
A3
330
3C
100
AcDbEntity
  8
METAL
100
AcDbFaceRecord
 10
0.0
 20
0.0
 30
0.0
 70
   128
 71
    94
 72
    92
 73
    72
 74
    78
  0
VERTEX
  5
A4
330
3C
100
AcDbEntity
  8
METAL
100
AcDbFaceRecord
 10
0.0
 20
0.0
 30
0.0
 70
   128
 71
    76
 72
    74
 73
    92
 74
    94
  0
VERTEX
  5
A5
330
3C
100
AcDbEntity
  8
METAL
100
AcDbFaceRecord
 10
0.0
 20
0.0
 30
0.0
 70
   128
 71
    56
 72
    54
 73
    74
 74
    76
  0
VERTEX
  5
A6
330
3C
100
AcDbEntity
  8
METAL
100
AcDbFaceRecord
 10
0.0
 20
0.0
 30
0.0
 70
   128
 71
    38
 72
    34
 73
    54
 74
    56
  0
VERTEX
  5
A7
330
3C
100
AcDbEntity
  8
METAL
100
AcDbFaceRecord
 10
0.0
 20
0.0
 30
0.0
 70
   128
 71
    37
 72
    35
 73
    20
 74
    23
  0
VERTEX
  5
A8
330
3C
100
AcDbEntity
  8
METAL
100
AcDbFaceRecord
 10
0.0
 20
0.0
 30
0.0
 70
   128
 71
    41
 72
    46
 73
    10
 74
     2
  0
VERTEX
  5
A9
330
3C
100
AcDbEntity
  8
METAL
100
AcDbFaceRecord
 10
0.0
 20
0.0
 30
0.0
 70
   128
 71
    58
 72
    52
 73
    32
 74
    36
  0
VERTEX
  5
AA
330
3C
100
AcDbEntity
  8
METAL
100
AcDbFaceRecord
 10
0.0
 20
0.0
 30
0.0
 70
   128
 71
    24
 72
    30
 73
    34
 74
    38
  0
VERTEX
  5
AB
330
3C
100
AcDbEntity
  8
METAL
100
AcDbFaceRecord
 10
0.0
 20
0.0
 30
0.0
 70
   128
 71
    55
 72
    57
 73
    35
 74
    37
  0
VERTEX
  5
AC
330
3C
100
AcDbEntity
  8
METAL
100
AcDbFaceRecord
 10
0.0
 20
0.0
 30
0.0
 70
   128
 71
    61
 72
    69
 73
    46
 74
    41
  0
VERTEX
  5
AD
330
3C
100
AcDbEntity
  8
METAL
100
AcDbFaceRecord
 10
0.0
 20
0.0
 30
0.0
 70
   128
 71
    42
 72
     3
 73
     5
 74
    43
  0
VERTEX
  5
AE
330
3C
100
AcDbEntity
  8
METAL
100
AcDbFaceRecord
 10
0.0
 20
0.0
 30
0.0
 70
   128
 71
    85
 72
    62
 73
    63
 74
    81
  0
VERTEX
  5
AF
330
3C
100
AcDbEntity
  8
METAL
100
AcDbFaceRecord
 10
0.0
 20
0.0
 30
0.0
 70
   128
 71
    97
 72
    85
 73
    81
 74
    98
  0
VERTEX
  5
B0
330
3C
100
AcDbEntity
  8
METAL
100
AcDbFaceRecord
 10
0.0
 20
0.0
 30
0.0
 70
   128
 71
    87
 72
    97
 73
    98
 74
    88
  0
VERTEX
  5
B1
330
3C
100
AcDbEntity
  8
METAL
100
AcDbFaceRecord
 10
0.0
 20
0.0
 30
0.0
 70
   128
 71
    70
 72
    87
 73
    88
 74
    66
  0
VERTEX
  5
B2
330
3C
100
AcDbEntity
  8
METAL
100
AcDbFaceRecord
 10
0.0
 20
0.0
 30
0.0
 70
   128
 71
    47
 72
    70
 73
    66
 74
    48
  0
VERTEX
  5
B3
330
3C
100
AcDbEntity
  8
METAL
100
AcDbFaceRecord
 10
0.0
 20
0.0
 30
0.0
 70
   128
 71
    62
 72
    42
 73
    43
 74
    63
  0
VERTEX
  5
B4
330
3C
100
AcDbEntity
  8
METAL
100
AcDbFaceRecord
 10
0.0
 20
0.0
 30
0.0
 70
   128
 71
    11
 72
    47
 73
    48
 74
    13
  0
VERTEX
  5
B5
330
3C
100
AcDbEntity
  8
METAL
100
AcDbFaceRecord
 10
0.0
 20
0.0
 30
0.0
 70
   128
 71
    12
 72
    14
 73
     6
 74
     9
  0
VERTEX
  5
B6
330
3C
100
AcDbEntity
  8
METAL
100
AcDbFaceRecord
 10
0.0
 20
0.0
 30
0.0
 70
   128
 71
     9
 72
     6
 73
     4
 74
     1
  0
VERTEX
  5
B7
330
3C
100
AcDbEntity
  8
METAL
100
AcDbFaceRecord
 10
0.0
 20
0.0
 30
0.0
 70
   128
 71
    84
 72
    86
 73
    69
 74
    61
  0
VERTEX
  5
B8
330
3C
100
AcDbEntity
  8
METAL
100
AcDbFaceRecord
 10
0.0
 20
0.0
 30
0.0
 70
   128
 71
    75
 72
    93
 73
    77
 74
    77
  0
VERTEX
  5
B9
330
3C
100
AcDbEntity
  8
METAL
100
AcDbFaceRecord
 10
0.0
 20
0.0
 30
0.0
 70
   128
 71
    84
 72
    96
 73
    86
 74
    86
  0
VERTEX
  5
BA
330
3C
100
AcDbEntity
  8
METAL
100
AcDbFaceRecord
 10
0.0
 20
0.0
 30
0.0
 70
   128
 71
    75
 72
    77
 73
    57
 74
    55
  0
VERTEX
  5
BB
330
3C
100
AcDbEntity
  8
METAL
100
AcDbFaceRecord
 10
0.0
 20
0.0
 30
0.0
 70
   128
 71
    43
 72
     5
 73
     8
 74
    45
  0
VERTEX
  5
BC
330
3C
100
AcDbEntity
  8
METAL
100
AcDbFaceRecord
 10
0.0
 20
0.0
 30
0.0
 70
   128
 71
    81
 72
    63
 73
    65
 74
    83
  0
VERTEX
  5
BD
330
3C
100
AcDbEntity
  8
METAL
100
AcDbFaceRecord
 10
0.0
 20
0.0
 30
0.0
 70
   128
 71
    98
 72
    81
 73
    83
 74
   100
  0
VERTEX
  5
BE
330
3C
100
AcDbEntity
  8
METAL
100
AcDbFaceRecord
 10
0.0
 20
0.0
 30
0.0
 70
   128
 71
    88
 72
    98
 73
   100
 74
    90
  0
VERTEX
  5
BF
330
3C
100
AcDbEntity
  8
METAL
100
AcDbFaceRecord
 10
0.0
 20
0.0
 30
0.0
 70
   128
 71
    66
 72
    88
 73
    90
 74
    68
  0
VERTEX
  5
C0
330
3C
100
AcDbEntity
  8
METAL
100
AcDbFaceRecord
 10
0.0
 20
0.0
 30
0.0
 70
   128
 71
    48
 72
    66
 73
    68
 74
    50
  0
VERTEX
  5
C1
330
3C
100
AcDbEntity
  8
METAL
100
AcDbFaceRecord
 10
0.0
 20
0.0
 30
0.0
 70
   128
 71
    63
 72
    43
 73
    45
 74
    65
  0
VERTEX
  5
C2
330
3C
100
AcDbEntity
  8
METAL
100
AcDbFaceRecord
 10
0.0
 20
0.0
 30
0.0
 70
   128
 71
    13
 72
    48
 73
    50
 74
    16
  0
VERTEX
  5
C3
330
3C
100
AcDbEntity
  8
METAL
100
AcDbFaceRecord
 10
0.0
 20
0.0
 30
0.0
 70
   128
 71
    22
 72
    19
 73
    25
 74
    28
  0
VERTEX
  5
C4
330
3C
100
AcDbEntity
  8
METAL
100
AcDbFaceRecord
 10
0.0
 20
0.0
 30
0.0
 70
   128
 71
    44
 72
     7
 73
    17
 74
    39
  0
VERTEX
  5
C5
330
3C
100
AcDbEntity
  8
METAL
100
AcDbFaceRecord
 10
0.0
 20
0.0
 30
0.0
 70
   128
 71
     7
 72
    15
 73
    18
 74
    17
  0
VERTEX
  5
C6
330
3C
100
AcDbEntity
  8
METAL
100
AcDbFaceRecord
 10
0.0
 20
0.0
 30
0.0
 70
   128
 71
    15
 72
    49
 73
    40
 74
    18
  0
VERTEX
  5
C7
330
3C
100
AcDbEntity
  8
METAL
100
AcDbFaceRecord
 10
0.0
 20
0.0
 30
0.0
 70
   128
 71
    49
 72
    67
 73
    60
 74
    40
  0
VERTEX
  5
C8
330
3C
100
AcDbEntity
  8
METAL
100
AcDbFaceRecord
 10
0.0
 20
0.0
 30
0.0
 70
   128
 71
    67
 72
    89
 73
    80
 74
    60
  0
VERTEX
  5
C9
330
3C
100
AcDbEntity
  8
METAL
100
AcDbFaceRecord
 10
0.0
 20
0.0
 30
0.0
 70
   128
 71
    89
 72
    99
 73
    95
 74
    80
  0
VERTEX
  5
CA
330
3C
100
AcDbEntity
  8
METAL
100
AcDbFaceRecord
 10
0.0
 20
0.0
 30
0.0
 70
   128
 71
    99
 72
    82
 73
    79
 74
    95
  0
VERTEX
  5
CB
330
3C
100
AcDbEntity
  8
METAL
100
AcDbFaceRecord
 10
0.0
 20
0.0
 30
0.0
 70
   128
 71
    82
 72
    64
 73
    59
 74
    79
  0
VERTEX
  5
CC
330
3C
100
AcDbEntity
  8
METAL
100
AcDbFaceRecord
 10
0.0
 20
0.0
 30
0.0
 70
   128
 71
    64
 72
    44
 73
    39
 74
    59
  0
VERTEX
  5
CD
330
3C
100
AcDbEntity
  8
METAL
100
AcDbFaceRecord
 10
0.0
 20
0.0
 30
0.0
 70
   128
 71
    39
 72
    17
 73
    26
 74
    31
  0
VERTEX
  5
CE
330
3C
100
AcDbEntity
  8
METAL
100
AcDbFaceRecord
 10
0.0
 20
0.0
 30
0.0
 70
   128
 71
    17
 72
    18
 73
    29
 74
    26
  0
VERTEX
  5
CF
330
3C
100
AcDbEntity
  8
METAL
100
AcDbFaceRecord
 10
0.0
 20
0.0
 30
0.0
 70
   128
 71
    18
 72
    40
 73
    33
 74
    29
  0
VERTEX
  5
D0
330
3C
100
AcDbEntity
  8
METAL
100
AcDbFaceRecord
 10
0.0
 20
0.0
 30
0.0
 70
   128
 71
    40
 72
    60
 73
    53
 74
    33
  0
VERTEX
  5
D1
330
3C
100
AcDbEntity
  8
METAL
100
AcDbFaceRecord
 10
0.0
 20
0.0
 30
0.0
 70
   128
 71
    60
 72
    80
 73
    73
 74
    53
  0
VERTEX
  5
D2
330
3C
100
AcDbEntity
  8
METAL
100
AcDbFaceRecord
 10
0.0
 20
0.0
 30
0.0
 70
   128
 71
    80
 72
    95
 73
    91
 74
    73
  0
VERTEX
  5
D3
330
3C
100
AcDbEntity
  8
METAL
100
AcDbFaceRecord
 10
0.0
 20
0.0
 30
0.0
 70
   128
 71
    95
 72
    79
 73
    71
 74
    91
  0
VERTEX
  5
D4
330
3C
100
AcDbEntity
  8
METAL
100
AcDbFaceRecord
 10
0.0
 20
0.0
 30
0.0
 70
   128
 71
    79
 72
    59
 73
    51
 74
    71
  0
VERTEX
  5
D5
330
3C
100
AcDbEntity
  8
METAL
100
AcDbFaceRecord
 10
0.0
 20
0.0
 30
0.0
 70
   128
 71
    59
 72
    39
 73
    31
 74
    51
  0
SEQEND
  5
D6
330
3C
100
AcDbEntity
  8
METAL
  0
POLYLINE
  5
D7
330
1F
100
AcDbEntity
  8
METAL
100
AcDbPolyFaceMesh
 66
     1
 10
0.0
 20
0.0
 30
0.0
 70
    64
 71
   107
 72
    55
  0
VERTEX
  5
D8
330
D7
100
AcDbEntity
  8
METAL
100
AcDbVertex
100
AcDbPolyFaceMeshVertex
 10
19.07070159912109
 20
276.6520385742188
 30
48.1435661315918
 70
   192
  0
VERTEX
  5
D9
330
D7
100
AcDbEntity
  8
METAL
100
AcDbVertex
100
AcDbPolyFaceMeshVertex
 10
19.07070159912109
 20
276.6520385742188
 30
48.1435661315918
 70
   192
  0
VERTEX
  5
DA
330
D7
100
AcDbEntity
  8
METAL
100
AcDbVertex
100
AcDbPolyFaceMeshVertex
 10
19.07070159912109
 20
276.6520385742188
 30
48.1435661315918
 70
   192
  0
VERTEX
  5
DB
330
D7
100
AcDbEntity
  8
METAL
100
AcDbVertex
100
AcDbPolyFaceMeshVertex
 10
19.07070159912109
 20
276.6520385742188
 30
45.66468048095703
 70
   192
  0
VERTEX
  5
DC
330
D7
100
AcDbEntity
  8
METAL
100
AcDbVertex
100
AcDbPolyFaceMeshVertex
 10
19.07070159912109
 20
276.6520385742188
 30
45.66468048095703
 70
   192
  0
VERTEX
  5
DD
330
D7
100
AcDbEntity
  8
METAL
100
AcDbVertex
100
AcDbPolyFaceMeshVertex
 10
19.07070159912109
 20
276.6520385742188
 30
43.185791015625
 70
   192
  0
VERTEX
  5
DE
330
D7
100
AcDbEntity
  8
METAL
100
AcDbVertex
100
AcDbPolyFaceMeshVertex
 10
19.07070159912109
 20
276.6520385742188
 30
43.185791015625
 70
   192
  0
VERTEX
  5
DF
330
D7
100
AcDbEntity
  8
METAL
100
AcDbVertex
100
AcDbPolyFaceMeshVertex
 10
19.07070159912109
 20
276.6520385742188
 30
43.185791015625
 70
   192
  0
VERTEX
  5
E0
330
D7
100
AcDbEntity
  8
METAL
100
AcDbVertex
100
AcDbPolyFaceMeshVertex
 10
19.07070159912109
 20
260.8049926757812
 30
48.1435661315918
 70
   192
  0
VERTEX
  5
E1
330
D7
100
AcDbEntity
  8
METAL
100
AcDbVertex
100
AcDbPolyFaceMeshVertex
 10
19.07070159912109
 20
260.8049926757812
 30
48.1435661315918
 70
   192
  0
VERTEX
  5
E2
330
D7
100
AcDbEntity
  8
METAL
100
AcDbVertex
100
AcDbPolyFaceMeshVertex
 10
19.07070159912109
 20
260.8049926757812
 30
48.1435661315918
 70
   192
  0
VERTEX
  5
E3
330
D7
100
AcDbEntity
  8
METAL
100
AcDbVertex
100
AcDbPolyFaceMeshVertex
 10
19.07070159912109
 20
260.8049926757812
 30
43.79061126708984
 70
   192
  0
VERTEX
  5
E4
330
D7
100
AcDbEntity
  8
METAL
100
AcDbVertex
100
AcDbPolyFaceMeshVertex
 10
19.07070159912109
 20
260.8049926757812
 30
43.79061126708984
 70
   192
  0
VERTEX
  5
E5
330
D7
100
AcDbEntity
  8
METAL
100
AcDbVertex
100
AcDbPolyFaceMeshVertex
 10
19.07070159912109
 20
260.8049926757812
 30
43.185791015625
 70
   192
  0
VERTEX
  5
E6
330
D7
100
AcDbEntity
  8
METAL
100
AcDbVertex
100
AcDbPolyFaceMeshVertex
 10
19.07070159912109
 20
260.8049926757812
 30
43.185791015625
 70
   192
  0
VERTEX
  5
E7
330
D7
100
AcDbEntity
  8
METAL
100
AcDbVertex
100
AcDbPolyFaceMeshVertex
 10
19.07070159912109
 20
260.8049926757812
 30
43.185791015625
 70
   192
  0
VERTEX
  5
E8
330
D7
100
AcDbEntity
  8
METAL
100
AcDbVertex
100
AcDbPolyFaceMeshVertex
 10
-21.05122375488281
 20
275.9930114746094
 30
47.03119659423828
 70
   192
  0
VERTEX
  5
E9
330
D7
100
AcDbEntity
  8
METAL
100
AcDbVertex
100
AcDbPolyFaceMeshVertex
 10
-21.05122375488281
 20
275.9930114746094
 30
47.03119659423828
 70
   192
  0
VERTEX
  5
EA
330
D7
100
AcDbEntity
  8
METAL
100
AcDbVertex
100
AcDbPolyFaceMeshVertex
 10
-21.05122375488281
 20
260.8810424804688
 30
43.185791015625
 70
   192
  0
VERTEX
  5
EB
330
D7
100
AcDbEntity
  8
METAL
100
AcDbVertex
100
AcDbPolyFaceMeshVertex
 10
-21.05122375488281
 20
260.8810424804688
 30
43.185791015625
 70
   192
  0
VERTEX
  5
EC
330
D7
100
AcDbEntity
  8
METAL
100
AcDbVertex
100
AcDbPolyFaceMeshVertex
 10
-21.05123138427734
 20
275.9930114746094
 30
45.66468048095703
 70
   192
  0
VERTEX
  5
ED
330
D7
100
AcDbEntity
  8
METAL
100
AcDbVertex
100
AcDbPolyFaceMeshVertex
 10
-21.05123138427734
 20
260.8810424804688
 30
44.55144500732422
 70
   192
  0
VERTEX
  5
EE
330
D7
100
AcDbEntity
  8
METAL
100
AcDbVertex
100
AcDbPolyFaceMeshVertex
 10
-21.05123901367188
 20
274.9158935546875
 30
43.185791015625
 70
   192
  0
VERTEX
  5
EF
330
D7
100
AcDbEntity
  8
METAL
100
AcDbVertex
100
AcDbPolyFaceMeshVertex
 10
-21.05123901367188
 20
274.9158935546875
 30
43.185791015625
 70
   192
  0
VERTEX
  5
F0
330
D7
100
AcDbEntity
  8
METAL
100
AcDbVertex
100
AcDbPolyFaceMeshVertex
 10
-21.05123901367188
 20
263.7186889648438
 30
48.1435661315918
 70
   192
  0
VERTEX
  5
F1
330
D7
100
AcDbEntity
  8
METAL
100
AcDbVertex
100
AcDbPolyFaceMeshVertex
 10
-21.05123901367188
 20
263.7186889648438
 30
48.1435661315918
 70
   192
  0
VERTEX
  5
F2
330
D7
100
AcDbEntity
  8
METAL
100
AcDbVertex
100
AcDbPolyFaceMeshVertex
 10
-60.92465209960938
 20
274.6771850585938
 30
45.9322624206543
 70
   192
  0
VERTEX
  5
F3
330
D7
100
AcDbEntity
  8
METAL
100
AcDbVertex
100
AcDbPolyFaceMeshVertex
 10
-60.92465209960938
 20
274.6771850585938
 30
45.9322624206543
 70
   192
  0
VERTEX
  5
F4
330
D7
100
AcDbEntity
  8
METAL
100
AcDbVertex
100
AcDbPolyFaceMeshVertex
 10
-60.92465209960938
 20
261.9385681152344
 30
43.185791015625
 70
   192
  0
VERTEX
  5
F5
330
D7
100
AcDbEntity
  8
METAL
100
AcDbVertex
100
AcDbPolyFaceMeshVertex
 10
-60.92465209960938
 20
261.9385681152344
 30
43.185791015625
 70
   192
  0
VERTEX
  5
F6
330
D7
100
AcDbEntity
  8
METAL
100
AcDbVertex
100
AcDbPolyFaceMeshVertex
 10
-60.92465972900391
 20
274.6771850585938
 30
45.66468048095703
 70
   192
  0
VERTEX
  5
F7
330
D7
100
AcDbEntity
  8
METAL
100
AcDbVertex
100
AcDbPolyFaceMeshVertex
 10
-60.92465972900391
 20
261.9385681152344
 30
45.22580718994141
 70
   192
  0
VERTEX
  5
F8
330
D7
100
AcDbEntity
  8
METAL
100
AcDbVertex
100
AcDbPolyFaceMeshVertex
 10
-60.92466735839844
 20
273.1261901855469
 30
43.185791015625
 70
   192
  0
VERTEX
  5
F9
330
D7
100
AcDbEntity
  8
METAL
100
AcDbVertex
100
AcDbPolyFaceMeshVertex
 10
-60.92466735839844
 20
273.1261901855469
 30
43.185791015625
 70
   192
  0
VERTEX
  5
FA
330
D7
100
AcDbEntity
  8
METAL
100
AcDbVertex
100
AcDbPolyFaceMeshVertex
 10
-60.92466735839844
 20
266.038818359375
 30
48.1435661315918
 70
   192
  0
VERTEX
  5
FB
330
D7
100
AcDbEntity
  8
METAL
100
AcDbVertex
100
AcDbPolyFaceMeshVertex
 10
-60.92466735839844
 20
266.038818359375
 30
48.1435661315918
 70
   192
  0
VERTEX
  5
FC
330
D7
100
AcDbEntity
  8
METAL
100
AcDbVertex
100
AcDbPolyFaceMeshVertex
 10
-100.7980804443359
 20
273.5239868164062
 30
44.85101699829102
 70
   192
  0
VERTEX
  5
FD
330
D7
100
AcDbEntity
  8
METAL
100
AcDbVertex
100
AcDbPolyFaceMeshVertex
 10
-100.7980804443359
 20
273.5239868164062
 30
44.85101699829102
 70
   192
  0
VERTEX
  5
FE
330
D7
100
AcDbEntity
  8
METAL
100
AcDbVertex
100
AcDbPolyFaceMeshVertex
 10
-100.7980804443359
 20
262.9960632324219
 30
43.185791015625
 70
   192
  0
VERTEX
  5
FF
330
D7
100
AcDbEntity
  8
METAL
100
AcDbVertex
100
AcDbPolyFaceMeshVertex
 10
-100.7980804443359
 20
262.9960632324219
 30
43.185791015625
 70
   192
  0
VERTEX
  5
100
330
D7
100
AcDbEntity
  8
METAL
100
AcDbVertex
100
AcDbPolyFaceMeshVertex
 10
-100.7980880737305
 20
273.5239868164062
 30
44.42786407470703
 70
   192
  0
VERTEX
  5
101
330
D7
100
AcDbEntity
  8
METAL
100
AcDbVertex
100
AcDbPolyFaceMeshVertex
 10
-100.7980880737305
 20
262.9960632324219
 30
46.42156219482422
 70
   192
  0
VERTEX
  5
102
330
D7
100
AcDbEntity
  8
METAL
100
AcDbVertex
100
AcDbPolyFaceMeshVertex
 10
-100.798095703125
 20
271.5581359863281
 30
43.185791015625
 70
   192
  0
VERTEX
  5
103
330
D7
100
AcDbEntity
  8
METAL
100
AcDbVertex
100
AcDbPolyFaceMeshVertex
 10
-100.798095703125
 20
267.9011840820312
 30
48.1435661315918
 70
   192
  0
VERTEX
  5
104
330
D7
100
AcDbEntity
  8
METAL
100
AcDbVertex
100
AcDbPolyFaceMeshVertex
 10
-100.798095703125
 20
267.9011840820312
 30
48.1435661315918
 70
   192
  0
VERTEX
  5
105
330
D7
100
AcDbEntity
  8
METAL
100
AcDbVertex
100
AcDbPolyFaceMeshVertex
 10
-140.6715087890625
 20
272.7249450683594
 30
43.86071014404297
 70
   192
  0
VERTEX
  5
106
330
D7
100
AcDbEntity
  8
METAL
100
AcDbVertex
100
AcDbPolyFaceMeshVertex
 10
-140.6715087890625
 20
272.7249450683594
 30
43.49797821044922
 70
   192
  0
VERTEX
  5
107
330
D7
100
AcDbEntity
  8
METAL
100
AcDbVertex
100
AcDbPolyFaceMeshVertex
 10
-140.6715087890625
 20
264.0535888671875
 30
47.29790496826172
 70
   192
  0
VERTEX
  5
108
330
D7
100
AcDbEntity
  8
METAL
100
AcDbVertex
100
AcDbPolyFaceMeshVertex
 10
-140.6715087890625
 20
264.0535888671875
 30
43.185791015625
 70
   192
  0
VERTEX
  5
109
330
D7
100
AcDbEntity
  8
METAL
100
AcDbVertex
100
AcDbPolyFaceMeshVertex
 10
-140.6715087890625
 20
264.0535888671875
 30
43.185791015625
 70
   192
  0
VERTEX
  5
10A
330
D7
100
AcDbEntity
  8
METAL
100
AcDbVertex
100
AcDbPolyFaceMeshVertex
 10
-140.6715240478516
 20
272.7249450683594
 30
43.185791015625
 70
   192
  0
VERTEX
  5
10B
330
D7
100
AcDbEntity
  8
METAL
100
AcDbVertex
100
AcDbPolyFaceMeshVertex
 10
-140.6715240478516
 20
272.7249450683594
 30
43.185791015625
 70
   192
  0
VERTEX
  5
10C
330
D7
100
AcDbEntity
  8
METAL
100
AcDbVertex
100
AcDbPolyFaceMeshVertex
 10
-140.6715240478516
 20
269.8804016113281
 30
48.1435661315918
 70
   192
  0
VERTEX
  5
10D
330
D7
100
AcDbEntity
  8
METAL
100
AcDbVertex
100
AcDbPolyFaceMeshVertex
 10
-140.6715240478516
 20
269.8804016113281
 30
48.1435661315918
 70
   192
  0
VERTEX
  5
10E
330
D7
100
AcDbEntity
  8
METAL
100
AcDbVertex
100
AcDbPolyFaceMeshVertex
 10
-164.4927673339844
 20
272.1352233886719
 30
43.185791015625
 70
   192
  0
VERTEX
  5
10F
330
D7
100
AcDbEntity
  8
METAL
100
AcDbVertex
100
AcDbPolyFaceMeshVertex
 10
-164.4927673339844
 20
272.1352233886719
 30
43.185791015625
 70
   192
  0
VERTEX
  5
110
330
D7
100
AcDbEntity
  8
METAL
100
AcDbVertex
100
AcDbPolyFaceMeshVertex
 10
-164.4947509765625
 20
264.8725280761719
 30
43.185791015625
 70
   192
  0
VERTEX
  5
111
330
D7
100
AcDbEntity
  8
METAL
100
AcDbVertex
100
AcDbPolyFaceMeshVertex
 10
-164.4947509765625
 20
264.8725280761719
 30
43.185791015625
 70
   192
  0
VERTEX
  5
112
330
D7
100
AcDbEntity
  8
METAL
100
AcDbVertex
100
AcDbPolyFaceMeshVertex
 10
-167.5302734375
 20
272.0600280761719
 30
42.75173187255859
 70
   192
  0
VERTEX
  5
113
330
D7
100
AcDbEntity
  8
METAL
100
AcDbVertex
100
AcDbPolyFaceMeshVertex
 10
-167.5302734375
 20
272.0600280761719
 30
42.75173187255859
 70
   192
  0
VERTEX
  5
114
330
D7
100
AcDbEntity
  8
METAL
100
AcDbVertex
100
AcDbPolyFaceMeshVertex
 10
-167.5313720703125
 20
264.9768981933594
 30
42.75172805786133
 70
   192
  0
VERTEX
  5
115
330
D7
100
AcDbEntity
  8
METAL
100
AcDbVertex
100
AcDbPolyFaceMeshVertex
 10
-167.5313720703125
 20
264.9768981933594
 30
42.75172805786133
 70
   192
  0
VERTEX
  5
116
330
D7
100
AcDbEntity
  8
METAL
100
AcDbVertex
100
AcDbPolyFaceMeshVertex
 10
-169.6999206542969
 20
272.0063171386719
 30
41.44954681396484
 70
   192
  0
VERTEX
  5
117
330
D7
100
AcDbEntity
  8
METAL
100
AcDbVertex
100
AcDbPolyFaceMeshVertex
 10
-169.6999206542969
 20
272.0063171386719
 30
41.44954681396484
 70
   192
  0
VERTEX
  5
118
330
D7
100
AcDbEntity
  8
METAL
100
AcDbVertex
100
AcDbPolyFaceMeshVertex
 10
-169.7004089355469
 20
265.0514526367188
 30
41.44954681396484
 70
   192
  0
VERTEX
  5
119
330
D7
100
AcDbEntity
  8
METAL
100
AcDbVertex
100
AcDbPolyFaceMeshVertex
 10
-169.7004089355469
 20
265.0514526367188
 30
41.44954681396484
 70
   192
  0
VERTEX
  5
11A
330
D7
100
AcDbEntity
  8
METAL
100
AcDbVertex
100
AcDbPolyFaceMeshVertex
 10
-171.0016937255859
 20
271.9740905761719
 30
39.27924346923828
 70
   192
  0
VERTEX
  5
11B
330
D7
100
AcDbEntity
  8
METAL
100
AcDbVertex
100
AcDbPolyFaceMeshVertex
 10
-171.0016937255859
 20
271.9740905761719
 30
39.27924346923828
 70
   192
  0
VERTEX
  5
11C
330
D7
100
AcDbEntity
  8
METAL
100
AcDbVertex
100
AcDbPolyFaceMeshVertex
 10
-171.0018157958984
 20
265.09619140625
 30
39.27924346923828
 70
   192
  0
VERTEX
  5
11D
330
D7
100
AcDbEntity
  8
METAL
100
AcDbVertex
100
AcDbPolyFaceMeshVertex
 10
-171.0018157958984
 20
265.09619140625
 30
39.27924346923828
 70
   192
  0
VERTEX
  5
11E
330
D7
100
AcDbEntity
  8
METAL
100
AcDbVertex
100
AcDbPolyFaceMeshVertex
 10
-171.4356231689453
 20
271.9633483886719
 30
48.1435661315918
 70
   192
  0
VERTEX
  5
11F
330
D7
100
AcDbEntity
  8
METAL
100
AcDbVertex
100
AcDbPolyFaceMeshVertex
 10
-171.4356231689453
 20
271.9633483886719
 30
48.1435661315918
 70
   192
  0
VERTEX
  5
120
330
D7
100
AcDbEntity
  8
METAL
100
AcDbVertex
100
AcDbPolyFaceMeshVertex
 10
-171.4356231689453
 20
271.9633483886719
 30
45.66468048095703
 70
   192
  0
VERTEX
  5
121
330
D7
100
AcDbEntity
  8
METAL
100
AcDbVertex
100
AcDbPolyFaceMeshVertex
 10
-171.4356231689453
 20
271.9633483886719
 30
36.24081802368164
 70
   192
  0
VERTEX
  5
122
330
D7
100
AcDbEntity
  8
METAL
100
AcDbVertex
100
AcDbPolyFaceMeshVertex
 10
-171.4356231689453
 20
271.9633483886719
 30
36.24081802368164
 70
   192
  0
VERTEX
  5
123
330
D7
100
AcDbEntity
  8
METAL
100
AcDbVertex
100
AcDbPolyFaceMeshVertex
 10
-171.4356231689453
 20
271.9633483886719
 30
19.18149948120117
 70
   192
  0
VERTEX
  5
124
330
D7
100
AcDbEntity
  8
METAL
100
AcDbVertex
100
AcDbPolyFaceMeshVertex
 10
-171.4356231689453
 20
271.9633483886719
 30
19.18149948120117
 70
   192
  0
VERTEX
  5
125
330
D7
100
AcDbEntity
  8
METAL
100
AcDbVertex
100
AcDbPolyFaceMeshVertex
 10
-171.4356231689453
 20
271.9633483886719
 30
19.18149948120117
 70
   192
  0
VERTEX
  5
126
330
D7
100
AcDbEntity
  8
METAL
100
AcDbVertex
100
AcDbPolyFaceMeshVertex
 10
-171.4356231689453
 20
265.1111145019531
 30
48.02264022827148
 70
   192
  0
VERTEX
  5
127
330
D7
100
AcDbEntity
  8
METAL
100
AcDbVertex
100
AcDbPolyFaceMeshVertex
 10
-171.4356231689453
 20
265.1111145019531
 30
48.02264022827148
 70
   192
  0
VERTEX
  5
128
330
D7
100
AcDbEntity
  8
METAL
100
AcDbVertex
100
AcDbPolyFaceMeshVertex
 10
-171.4356231689453
 20
265.1111145019531
 30
36.24081420898438
 70
   192
  0
VERTEX
  5
129
330
D7
100
AcDbEntity
  8
METAL
100
AcDbVertex
100
AcDbPolyFaceMeshVertex
 10
-171.4356231689453
 20
265.1111145019531
 30
36.24081420898438
 70
   192
  0
VERTEX
  5
12A
330
D7
100
AcDbEntity
  8
METAL
100
AcDbVertex
100
AcDbPolyFaceMeshVertex
 10
-171.4356231689453
 20
265.1111145019531
 30
19.18149948120117
 70
   192
  0
VERTEX
  5
12B
330
D7
100
AcDbEntity
  8
METAL
100
AcDbVertex
100
AcDbPolyFaceMeshVertex
 10
-171.4356231689453
 20
265.1111145019531
 30
19.18149948120117
 70
   192
  0
VERTEX
  5
12C
330
D7
100
AcDbEntity
  8
METAL
100
AcDbVertex
100
AcDbPolyFaceMeshVertex
 10
-171.4356231689453
 20
265.1111145019531
 30
19.18149948120117
 70
   192
  0
VERTEX
  5
12D
330
D7
100
AcDbEntity
  8
METAL
100
AcDbVertex
100
AcDbPolyFaceMeshVertex
 10
-173.4776916503906
 20
271.9633483886719
 30
47.83370590209961
 70
   192
  0
VERTEX
  5
12E
330
D7
100
AcDbEntity
  8
METAL
100
AcDbVertex
100
AcDbPolyFaceMeshVertex
 10
-173.4776916503906
 20
271.9633483886719
 30
47.83370590209961
 70
   192
  0
VERTEX
  5
12F
330
D7
100
AcDbEntity
  8
METAL
100
AcDbVertex
100
AcDbPolyFaceMeshVertex
 10
-173.4776916503906
 20
265.1111145019531
 30
47.7203369140625
 70
   192
  0
VERTEX
  5
130
330
D7
100
AcDbEntity
  8
METAL
100
AcDbVertex
100
AcDbPolyFaceMeshVertex
 10
-173.4776916503906
 20
265.1111145019531
 30
47.7203369140625
 70
   192
  0
VERTEX
  5
131
330
D7
100
AcDbEntity
  8
METAL
100
AcDbVertex
100
AcDbPolyFaceMeshVertex
 10
-176.2646179199219
 20
271.9633483886719
 30
46.90412139892578
 70
   192
  0
VERTEX
  5
132
330
D7
100
AcDbEntity
  8
METAL
100
AcDbVertex
100
AcDbPolyFaceMeshVertex
 10
-176.2646179199219
 20
271.9633483886719
 30
46.90412139892578
 70
   192
  0
VERTEX
  5
133
330
D7
100
AcDbEntity
  8
METAL
100
AcDbVertex
100
AcDbPolyFaceMeshVertex
 10
-176.2646179199219
 20
265.1111145019531
 30
46.81343078613281
 70
   192
  0
VERTEX
  5
134
330
D7
100
AcDbEntity
  8
METAL
100
AcDbVertex
100
AcDbPolyFaceMeshVertex
 10
-176.2646179199219
 20
265.1111145019531
 30
46.81343078613281
 70
   192
  0
VERTEX
  5
135
330
D7
100
AcDbEntity
  8
METAL
100
AcDbVertex
100
AcDbPolyFaceMeshVertex
 10
-177.9367980957031
 20
271.9633483886719
 30
45.35481643676758
 70
   192
  0
VERTEX
  5
136
330
D7
100
AcDbEntity
  8
METAL
100
AcDbVertex
100
AcDbPolyFaceMeshVertex
 10
-177.9367980957031
 20
271.9633483886719
 30
45.35481643676758
 70
   192
  0
VERTEX
  5
137
330
D7
100
AcDbEntity
  8
METAL
100
AcDbVertex
100
AcDbPolyFaceMeshVertex
 10
-177.9367980957031
 20
265.1111145019531
 30
45.30191421508789
 70
   192
  0
VERTEX
  5
138
330
D7
100
AcDbEntity
  8
METAL
100
AcDbVertex
100
AcDbPolyFaceMeshVertex
 10
-177.9367980957031
 20
265.1111145019531
 30
45.30191421508789
 70
   192
  0
VERTEX
  5
139
330
D7
100
AcDbEntity
  8
METAL
100
AcDbVertex
100
AcDbPolyFaceMeshVertex
 10
-179.5697631835938
 20
271.9633483886719
 30
43.185791015625
 70
   192
  0
VERTEX
  5
13A
330
D7
100
AcDbEntity
  8
METAL
100
AcDbVertex
100
AcDbPolyFaceMeshVertex
 10
-179.5697631835938
 20
271.9633483886719
 30
43.185791015625
 70
   192
  0
VERTEX
  5
13B
330
D7
100
AcDbEntity
  8
METAL
100
AcDbVertex
100
AcDbPolyFaceMeshVertex
 10
-179.5697631835938
 20
265.1111145019531
 30
43.185791015625
 70
   192
  0
VERTEX
  5
13C
330
D7
100
AcDbEntity
  8
METAL
100
AcDbVertex
100
AcDbPolyFaceMeshVertex
 10
-179.5697631835938
 20
265.1111145019531
 30
43.185791015625
 70
   192
  0
VERTEX
  5
13D
330
D7
100
AcDbEntity
  8
METAL
100
AcDbVertex
100
AcDbPolyFaceMeshVertex
 10
-180.3538208007812
 20
271.9633483886719
 30
19.18149948120117
 70
   192
  0
VERTEX
  5
13E
330
D7
100
AcDbEntity
  8
METAL
100
AcDbVertex
100
AcDbPolyFaceMeshVertex
 10
-180.3538208007812
 20
271.9633483886719
 30
19.18149948120117
 70
   192
  0
VERTEX
  5
13F
330
D7
100
AcDbEntity
  8
METAL
100
AcDbVertex
100
AcDbPolyFaceMeshVertex
 10
-180.3538208007812
 20
271.9633483886719
 30
19.18149948120117
 70
   192
  0
VERTEX
  5
140
330
D7
100
AcDbEntity
  8
METAL
100
AcDbVertex
100
AcDbPolyFaceMeshVertex
 10
-180.3538208007812
 20
265.1111145019531
 30
19.18149948120117
 70
   192
  0
VERTEX
  5
141
330
D7
100
AcDbEntity
  8
METAL
100
AcDbVertex
100
AcDbPolyFaceMeshVertex
 10
-180.3538208007812
 20
265.1111145019531
 30
19.18149948120117
 70
   192
  0
VERTEX
  5
142
330
D7
100
AcDbEntity
  8
METAL
100
AcDbVertex
100
AcDbPolyFaceMeshVertex
 10
-180.3538208007812
 20
265.1111145019531
 30
19.18149948120117
 70
   192
  0
VERTEX
  5
143
330
D7
100
AcDbEntity
  8
METAL
100
AcDbFaceRecord
 10
0.0
 20
0.0
 30
0.0
 70
   128
 71
    43
 72
    33
 73
    29
 74
    39
  0
VERTEX
  5
144
330
D7
100
AcDbEntity
  8
METAL
100
AcDbFaceRecord
 10
0.0
 20
0.0
 30
0.0
 70
   128
 71
    45
 72
    35
 73
    27
 74
    38
  0
VERTEX
  5
145
330
D7
100
AcDbEntity
  8
METAL
100
AcDbFaceRecord
 10
0.0
 20
0.0
 30
0.0
 70
   128
 71
    30
 72
    32
 73
    42
 74
    40
  0
VERTEX
  5
146
330
D7
100
AcDbEntity
  8
METAL
100
AcDbFaceRecord
 10
0.0
 20
0.0
 30
0.0
 70
   128
 71
     6
 72
     4
 73
    12
 74
    14
  0
VERTEX
  5
147
330
D7
100
AcDbEntity
  8
METAL
100
AcDbFaceRecord
 10
0.0
 20
0.0
 30
0.0
 70
   128
 71
    43
 72
    41
 73
    31
 74
    34
  0
VERTEX
  5
148
330
D7
100
AcDbEntity
  8
METAL
100
AcDbFaceRecord
 10
0.0
 20
0.0
 30
0.0
 70
   128
 71
     7
 72
    15
 73
    19
 74
    23
  0
VERTEX
  5
149
330
D7
100
AcDbEntity
  8
METAL
100
AcDbFaceRecord
 10
0.0
 20
0.0
 30
0.0
 70
   128
 71
    23
 72
    19
 73
    29
 74
    33
  0
VERTEX
  5
14A
330
D7
100
AcDbEntity
  8
METAL
100
AcDbFaceRecord
 10
0.0
 20
0.0
 30
0.0
 70
   128
 71
    57
 72
    55
 73
    51
 74
    49
  0
VERTEX
  5
14B
330
D7
100
AcDbEntity
  8
METAL
100
AcDbFaceRecord
 10
0.0
 20
0.0
 30
0.0
 70
   128
 71
    49
 72
    51
 73
    43
 74
    39
  0
VERTEX
  5
14C
330
D7
100
AcDbEntity
  8
METAL
100
AcDbFaceRecord
 10
0.0
 20
0.0
 30
0.0
 70
   128
 71
    11
 72
     3
 73
    17
 74
    25
  0
VERTEX
  5
14D
330
D7
100
AcDbEntity
  8
METAL
100
AcDbFaceRecord
 10
0.0
 20
0.0
 30
0.0
 70
   128
 71
    25
 72
    17
 73
    27
 74
    35
  0
VERTEX
  5
14E
330
D7
100
AcDbEntity
  8
METAL
100
AcDbFaceRecord
 10
0.0
 20
0.0
 30
0.0
 70
   128
 71
    46
 72
    71
 73
    53
 74
    53
  0
VERTEX
  5
14F
330
D7
100
AcDbEntity
  8
METAL
100
AcDbFaceRecord
 10
0.0
 20
0.0
 30
0.0
 70
   128
 71
    46
 72
    53
 73
    45
 74
    38
  0
VERTEX
  5
150
330
D7
100
AcDbEntity
  8
METAL
100
AcDbFaceRecord
 10
0.0
 20
0.0
 30
0.0
 70
   128
 71
    16
 72
    13
 73
    22
 74
    20
  0
VERTEX
  5
151
330
D7
100
AcDbEntity
  8
METAL
100
AcDbFaceRecord
 10
0.0
 20
0.0
 30
0.0
 70
   128
 71
    20
 72
    22
 73
    32
 74
    30
  0
VERTEX
  5
152
330
D7
100
AcDbEntity
  8
METAL
100
AcDbFaceRecord
 10
0.0
 20
0.0
 30
0.0
 70
   128
 71
    72
 72
    80
 73
    48
 74
    54
  0
VERTEX
  5
153
330
D7
100
AcDbEntity
  8
METAL
100
AcDbFaceRecord
 10
0.0
 20
0.0
 30
0.0
 70
   128
 71
    54
 72
    48
 73
    42
 74
    44
  0
VERTEX
  5
154
330
D7
100
AcDbEntity
  8
METAL
100
AcDbFaceRecord
 10
0.0
 20
0.0
 30
0.0
 70
   128
 71
    51
 72
    47
 73
    41
 74
    43
  0
VERTEX
  5
155
330
D7
100
AcDbEntity
  8
METAL
100
AcDbFaceRecord
 10
0.0
 20
0.0
 30
0.0
 70
   128
 71
     2
 72
     5
 73
    21
 74
    18
  0
VERTEX
  5
156
330
D7
100
AcDbEntity
  8
METAL
100
AcDbFaceRecord
 10
0.0
 20
0.0
 30
0.0
 70
   128
 71
    18
 72
    21
 73
    31
 74
    28
  0
VERTEX
  5
157
330
D7
100
AcDbEntity
  8
METAL
100
AcDbFaceRecord
 10
0.0
 20
0.0
 30
0.0
 70
   128
 71
    36
 72
    44
 73
    42
 74
    32
  0
VERTEX
  5
158
330
D7
100
AcDbEntity
  8
METAL
100
AcDbFaceRecord
 10
0.0
 20
0.0
 30
0.0
 70
   128
 71
     1
 72
     9
 73
    12
 74
     4
  0
VERTEX
  5
159
330
D7
100
AcDbEntity
  8
METAL
100
AcDbFaceRecord
 10
0.0
 20
0.0
 30
0.0
 70
   128
 71
    37
 72
    28
 73
    31
 74
    41
  0
VERTEX
  5
15A
330
D7
100
AcDbEntity
  8
METAL
100
AcDbFaceRecord
 10
0.0
 20
0.0
 30
0.0
 70
   128
 71
    10
 72
    26
 73
    22
 74
    13
  0
VERTEX
  5
15B
330
D7
100
AcDbEntity
  8
METAL
100
AcDbFaceRecord
 10
0.0
 20
0.0
 30
0.0
 70
   128
 71
    26
 72
    36
 73
    32
 74
    22
  0
VERTEX
  5
15C
330
D7
100
AcDbEntity
  8
METAL
100
AcDbFaceRecord
 10
0.0
 20
0.0
 30
0.0
 70
   128
 71
    50
 72
    40
 73
    42
 74
    48
  0
VERTEX
  5
15D
330
D7
100
AcDbEntity
  8
METAL
100
AcDbFaceRecord
 10
0.0
 20
0.0
 30
0.0
 70
   128
 71
    71
 72
    46
 73
    47
 74
    73
  0
VERTEX
  5
15E
330
D7
100
AcDbEntity
  8
METAL
100
AcDbFaceRecord
 10
0.0
 20
0.0
 30
0.0
 70
   128
 71
    46
 72
    37
 73
    41
 74
    47
  0
VERTEX
  5
15F
330
D7
100
AcDbEntity
  8
METAL
100
AcDbFaceRecord
 10
0.0
 20
0.0
 30
0.0
 70
   128
 71
     8
 72
    24
 73
    21
 74
     5
  0
VERTEX
  5
160
330
D7
100
AcDbEntity
  8
METAL
100
AcDbFaceRecord
 10
0.0
 20
0.0
 30
0.0
 70
   128
 71
    24
 72
    34
 73
    31
 74
    21
  0
VERTEX
  5
161
330
D7
100
AcDbEntity
  8
METAL
100
AcDbFaceRecord
 10
0.0
 20
0.0
 30
0.0
 70
   128
 71
    78
 72
    84
 73
   105
 74
   103
  0
VERTEX
  5
162
330
D7
100
AcDbEntity
  8
METAL
100
AcDbFaceRecord
 10
0.0
 20
0.0
 30
0.0
 70
   128
 71
    73
 72
    94
 73
    90
 74
    86
  0
VERTEX
  5
163
330
D7
100
AcDbEntity
  8
METAL
100
AcDbFaceRecord
 10
0.0
 20
0.0
 30
0.0
 70
   128
 71
    71
 72
    73
 73
    86
 74
    86
  0
VERTEX
  5
164
330
D7
100
AcDbEntity
  8
METAL
100
AcDbFaceRecord
 10
0.0
 20
0.0
 30
0.0
 70
   128
 71
    74
 72
    81
 73
    83
 74
    76
  0
VERTEX
  5
165
330
D7
100
AcDbEntity
  8
METAL
100
AcDbFaceRecord
 10
0.0
 20
0.0
 30
0.0
 70
   128
 71
   106
 72
    85
 73
    82
 74
   100
  0
VERTEX
  5
166
330
D7
100
AcDbEntity
  8
METAL
100
AcDbFaceRecord
 10
0.0
 20
0.0
 30
0.0
 70
   128
 71
   101
 72
    99
 73
   104
 74
   107
  0
VERTEX
  5
167
330
D7
100
AcDbEntity
  8
METAL
100
AcDbFaceRecord
 10
0.0
 20
0.0
 30
0.0
 70
   128
 71
    98
 72
    94
 73
    68
 74
    75
  0
VERTEX
  5
168
330
D7
100
AcDbEntity
  8
METAL
100
AcDbFaceRecord
 10
0.0
 20
0.0
 30
0.0
 70
   128
 71
    95
 72
    99
 73
   101
 74
    97
  0
VERTEX
  5
169
330
D7
100
AcDbEntity
  8
METAL
100
AcDbFaceRecord
 10
0.0
 20
0.0
 30
0.0
 70
   128
 71
    91
 72
    95
 73
    97
 74
    93
  0
VERTEX
  5
16A
330
D7
100
AcDbEntity
  8
METAL
100
AcDbFaceRecord
 10
0.0
 20
0.0
 30
0.0
 70
   128
 71
    87
 72
    91
 73
    93
 74
    89
  0
VERTEX
  5
16B
330
D7
100
AcDbEntity
  8
METAL
100
AcDbFaceRecord
 10
0.0
 20
0.0
 30
0.0
 70
   128
 71
    72
 72
    87
 73
    89
 74
    80
  0
VERTEX
  5
16C
330
D7
100
AcDbEntity
  8
METAL
100
AcDbFaceRecord
 10
0.0
 20
0.0
 30
0.0
 70
   128
 71
    69
 72
    81
 73
    74
 74
    67
  0
VERTEX
  5
16D
330
D7
100
AcDbEntity
  8
METAL
100
AcDbFaceRecord
 10
0.0
 20
0.0
 30
0.0
 70
   128
 71
    65
 72
    69
 73
    67
 74
    63
  0
VERTEX
  5
16E
330
D7
100
AcDbEntity
  8
METAL
100
AcDbFaceRecord
 10
0.0
 20
0.0
 30
0.0
 70
   128
 71
    61
 72
    65
 73
    63
 74
    59
  0
VERTEX
  5
16F
330
D7
100
AcDbEntity
  8
METAL
100
AcDbFaceRecord
 10
0.0
 20
0.0
 30
0.0
 70
   128
 71
    57
 72
    61
 73
    59
 74
    55
  0
VERTEX
  5
170
330
D7
100
AcDbEntity
  8
METAL
100
AcDbFaceRecord
 10
0.0
 20
0.0
 30
0.0
 70
   128
 71
    96
 72
   100
 73
    82
 74
    70
  0
VERTEX
  5
171
330
D7
100
AcDbEntity
  8
METAL
100
AcDbFaceRecord
 10
0.0
 20
0.0
 30
0.0
 70
   128
 71
    98
 72
    75
 73
    77
 74
   102
  0
VERTEX
  5
172
330
D7
100
AcDbEntity
  8
METAL
100
AcDbFaceRecord
 10
0.0
 20
0.0
 30
0.0
 70
   128
 71
    94
 72
    73
 73
    47
 74
    56
  0
VERTEX
  5
173
330
D7
100
AcDbEntity
  8
METAL
100
AcDbFaceRecord
 10
0.0
 20
0.0
 30
0.0
 70
   128
 71
    47
 72
    52
 73
    56
 74
    56
  0
VERTEX
  5
174
330
D7
100
AcDbEntity
  8
METAL
100
AcDbFaceRecord
 10
0.0
 20
0.0
 30
0.0
 70
   128
 71
    94
 72
    56
 73
    60
 74
    64
  0
VERTEX
  5
175
330
D7
100
AcDbEntity
  8
METAL
100
AcDbFaceRecord
 10
0.0
 20
0.0
 30
0.0
 70
   128
 71
    94
 72
    64
 73
    68
 74
    68
  0
VERTEX
  5
176
330
D7
100
AcDbEntity
  8
METAL
100
AcDbFaceRecord
 10
0.0
 20
0.0
 30
0.0
 70
   128
 71
    66
 72
    92
 73
    96
 74
    70
  0
VERTEX
  5
177
330
D7
100
AcDbEntity
  8
METAL
100
AcDbFaceRecord
 10
0.0
 20
0.0
 30
0.0
 70
   128
 71
    88
 72
    92
 73
    66
 74
    62
  0
VERTEX
  5
178
330
D7
100
AcDbEntity
  8
METAL
100
AcDbFaceRecord
 10
0.0
 20
0.0
 30
0.0
 70
   128
 71
    88
 72
    62
 73
    58
 74
    79
  0
VERTEX
  5
179
330
D7
100
AcDbEntity
  8
METAL
100
AcDbFaceRecord
 10
0.0
 20
0.0
 30
0.0
 70
   128
 71
    58
 72
    50
 73
    48
 74
    79
  0
SEQEND
  5
17A
330
D7
100
AcDbEntity
  8
METAL
  0
ENDSEC
  0
SECTION
  2
OBJECTS
  0
DICTIONARY
  5
C
330
0
100
AcDbDictionary
281
     1
  3
ACAD_GROUP
350
D
  3
ACAD_LAYOUT
350
1A
  3
ACAD_MLEADERSTYLE
350
17C
  3
ACAD_MLINESTYLE
350
17
  3
ACAD_PLOTSETTINGS
350
19
  3
ACAD_PLOTSTYLENAME
350
E
  3
ACAD_TABLESTYLE
350
17B
  3
ACAD_VISUALSTYLE
350
2A
  0
DICTIONARY
  5
D
102
{ACAD_REACTORS
330
C
102
}
330
C
100
AcDbDictionary
281
     1
  0
DICTIONARY
  5
1A
102
{ACAD_REACTORS
330
C
102
}
330
C
100
AcDbDictionary
281
     1
  3
Layout1
350
1E
  3
Layout2
350
26
  3
Model
350
22
  0
DICTIONARY
  5
17C
102
{ACAD_REACTORS
330
C
102
}
330
C
100
AcDbDictionary
281
     1
  0
DICTIONARY
  5
17
102
{ACAD_REACTORS
330
C
102
}
330
C
100
AcDbDictionary
281
     1
  3
Standard
350
18
  0
DICTIONARY
  5
19
102
{ACAD_REACTORS
330
C
102
}
330
C
100
AcDbDictionary
281
     1
  0
ACDBDICTIONARYWDFLT
  5
E
102
{ACAD_REACTORS
330
C
102
}
330
C
100
AcDbDictionary
281
     1
  3
Normal
350
F
100
AcDbDictionaryWithDefault
340
F
  0
DICTIONARY
  5
17B
102
{ACAD_REACTORS
330
C
102
}
330
C
100
AcDbDictionary
281
     1
  0
DICTIONARY
  5
2A
102
{ACAD_REACTORS
330
C
102
}
330
C
100
AcDbDictionary
281
     1
  3
2dWireframe
350
2F
  3
3D Hidden
350
31
  3
3dWireframe
350
30
  3
Basic
350
32
  3
Brighten
350
36
  3
ColorChange
350
3A
  3
Conceptual
350
34
  3
Dim
350
35
  3
Facepattern
350
39
  3
Flat
350
2B
  3
FlatWithEdges
350
2C
  3
Gouraud
350
2D
  3
GouraudWithEdges
350
2E
  3
Linepattern
350
38
  3
Realistic
350
33
  3
Thicken
350
37
  0
LAYOUT
  5
1E
102
{ACAD_REACTORS
330
1A
102
}
330
1A
100
AcDbPlotSettings
  1

  2
none_device
  4

  6

 40
0.0
 41
0.0
 42
0.0
 43
0.0
 44
0.0
 45
0.0
 46
0.0
 47
0.0
 48
0.0
 49
0.0
140
0.0
141
0.0
142
1.0
143
1.0
 70
   688
 72
     0
 73
     0
 74
     5
  7

 75
    16
 76
     0
 77
     2
 78
   300
147
1.0
148
0.0
149
0.0
100
AcDbLayout
  1
Layout1
 70
     1
 71
     1
 10
0.0
 20
0.0
 11
12.0
 21
9.0
 12
0.0
 22
0.0
 32
0.0
 14
1.000000000000000E+20
 24
1.000000000000000E+20
 34
1.000000000000000E+20
 15
-1.000000000000000E+20
 25
-1.000000000000000E+20
 35
-1.000000000000000E+20
146
0.0
 13
0.0
 23
0.0
 33
0.0
 16
1.0
 26
0.0
 36
0.0
 17
0.0
 27
1.0
 37
0.0
 76
     0
330
1B
  0
LAYOUT
  5
26
102
{ACAD_REACTORS
330
1A
102
}
330
1A
100
AcDbPlotSettings
  1

  2
none_device
  4

  6

 40
0.0
 41
0.0
 42
0.0
 43
0.0
 44
0.0
 45
0.0
 46
0.0
 47
0.0
 48
0.0
 49
0.0
140
0.0
141
0.0
142
1.0
143
1.0
 70
   688
 72
     0
 73
     0
 74
     5
  7

 75
    16
 76
     0
 77
     2
 78
   300
147
1.0
148
0.0
149
0.0
100
AcDbLayout
  1
Layout2
 70
     1
 71
     2
 10
0.0
 20
0.0
 11
0.0
 21
0.0
 12
0.0
 22
0.0
 32
0.0
 14
0.0
 24
0.0
 34
0.0
 15
0.0
 25
0.0
 35
0.0
146
0.0
 13
0.0
 23
0.0
 33
0.0
 16
1.0
 26
0.0
 36
0.0
 17
0.0
 27
1.0
 37
0.0
 76
     0
330
23
  0
LAYOUT
  5
22
102
{ACAD_REACTORS
330
1A
102
}
330
1A
100
AcDbPlotSettings
  1

  2
none_device
  4

  6

 40
0.0
 41
0.0
 42
0.0
 43
0.0
 44
0.0
 45
0.0
 46
0.0
 47
0.0
 48
0.0
 49
0.0
140
0.0
141
0.0
142
1.0
143
1.0
 70
  1712
 72
     0
 73
     0
 74
     0
  7

 75
     0
 76
     0
 77
     2
 78
   300
147
1.0
148
0.0
149
0.0
100
AcDbLayout
  1
Model
 70
     1
 71
     0
 10
0.0
 20
0.0
 11
12.0
 21
9.0
 12
0.0
 22
0.0
 32
0.0
 14
-180.3538208007812
 24
260.8014831542969
 34
0.0124049996957183
 15
19.07070159912109
 25
276.6520385742188
 35
48.1435661315918
146
0.0
 13
0.0
 23
0.0
 33
0.0
 16
1.0
 26
0.0
 36
0.0
 17
0.0
 27
1.0
 37
0.0
 76
     0
330
1F
331
29
  0
MLINESTYLE
  5
18
102
{ACAD_REACTORS
330
17
102
}
330
17
100
AcDbMlineStyle
  2
Standard
 70
     0
  3

 62
   256
 51
90.0
 52
90.0
 71
     2
 49
0.5
 62
   256
  6
BYLAYER
 49
-0.5
 62
   256
  6
BYLAYER
  0
ACDBPLACEHOLDER
  5
F
102
{ACAD_REACTORS
330
E
102
}
330
E
  0
VISUALSTYLE
  5
2F
102
{ACAD_REACTORS
330
2A
102
}
330
2A
100
AcDbVisualStyle
  2
2dWireframe
 70
     4
 71
     0
 72
     2
 73
     0
 90
        0
 40
-0.6
 41
-30.0
 62
     5
 63
     7
421
 16777215
 74
     1
 91
        4
 64
     7
 65
   257
 75
     1
175
     1
 42
1.0
 92
        0
 66
   257
 43
1.0
 76
     1
 77
     6
 78
     2
 67
     7
 79
     5
170
     0
171
     0
290
     0
174
     0
 93
        1
 44
0.0
173
     0
291
     0
 45
0.0
1001
ACAD
1000
AcDbSavedByObjectVersion
1070
     0
  0
VISUALSTYLE
  5
31
102
{ACAD_REACTORS
330
2A
102
}
330
2A
100
AcDbVisualStyle
  2
3D Hidden
 70
     6
 71
     1
 72
     2
 73
     2
 90
        0
 40
-0.6
 41
-30.0
 62
     5
 63
     7
421
 16777215
 74
     2
 91
        2
 64
     7
 65
   257
 75
     2
175
     1
 42
40.0
 92
        0
 66
   257
 43
1.0
 76
     1
 77
     6
 78
     2
 67
     7
 79
     3
170
     0
171
     0
290
     0
174
     0
 93
        1
 44
0.0
173
     0
291
     0
 45
0.0
1001
ACAD
1000
AcDbSavedByObjectVersion
1070
     0
  0
VISUALSTYLE
  5
30
102
{ACAD_REACTORS
330
2A
102
}
330
2A
100
AcDbVisualStyle
  2
3dWireframe
 70
     5
 71
     0
 72
     2
 73
     0
 90
        0
 40
-0.6
 41
-30.0
 62
     5
 63
     7
421
 16777215
 74
     1
 91
        4
 64
     7
 65
   257
 75
     1
175
     1
 42
1.0
 92
        0
 66
   257
 43
1.0
 76
     1
 77
     6
 78
     2
 67
     7
 79
     5
170
     0
171
     0
290
     0
174
     0
 93
        1
 44
0.0
173
     0
291
     0
 45
0.0
1001
ACAD
1000
AcDbSavedByObjectVersion
1070
     0
  0
VISUALSTYLE
  5
32
102
{ACAD_REACTORS
330
2A
102
}
330
2A
100
AcDbVisualStyle
  2
Basic
 70
     7
 71
     1
 72
     0
 73
     1
 90
        0
 40
-0.6
 41
-30.0
 62
     5
 63
     7
421
 16777215
 74
     0
 91
        4
 64
     7
 65
   257
 75
     1
175
     1
 42
1.0
 92
        8
 66
     7
 43
1.0
 76
     1
 77
     6
 78
     2
 67
     7
 79
     5
170
     0
171
     0
290
     0
174
     0
 93
        1
 44
0.0
173
     0
291
     1
 45
0.0
1001
ACAD
1000
AcDbSavedByObjectVersion
1070
     0
  0
VISUALSTYLE
  5
36
102
{ACAD_REACTORS
330
2A
102
}
330
2A
100
AcDbVisualStyle
  2
Brighten
 70
    12
 71
     2
 72
     2
 73
     0
 90
        0
 40
-0.6
 41
-30.0
 62
     5
 63
     7
421
 16777215
 74
     1
 91
        4
 64
     7
 65
   257
 75
     1
175
     1
 42
1.0
 92
        8
 66
     7
 43
1.0
 76
     1
 77
     6
 78
     2
 67
     7
 79
     5
170
     0
171
     0
290
     0
174
     0
 93
        1
 44
50.0
173
     0
291
     1
 45
0.0
1001
ACAD
1000
AcDbSavedByObjectVersion
1070
     0
  0
VISUALSTYLE
  5
3A
102
{ACAD_REACTORS
330
2A
102
}
330
2A
100
AcDbVisualStyle
  2
ColorChange
 70
    16
 71
     2
 72
     2
 73
     3
 90
        0
 40
-0.6
 41
-30.0
 62
     5
 63
     8
421
  8421504
 74
     1
 91
        4
 64
     7
 65
   257
 75
     1
175
     1
 42
1.0
 92
        8
 66
     8
424
  8421504
 43
1.0
 76
     1
 77
     6
 78
     2
 67
     7
 79
     5
170
     0
171
     0
290
     0
174
     0
 93
        1
 44
0.0
173
     0
291
     1
 45
0.0
1001
ACAD
1000
AcDbSavedByObjectVersion
1070
     0
  0
VISUALSTYLE
  5
34
102
{ACAD_REACTORS
330
2A
102
}
330
2A
100
AcDbVisualStyle
  2
Conceptual
 70
     9
 71
     3
 72
     2
 73
     0
 90
        0
 40
-0.6
 41
-30.0
 62
     5
 63
     7
421
 16777215
 74
     2
 91
        2
 64
     7
 65
   257
 75
     1
175
     1
 42
40.0
 92
        8
 66
     7
 43
1.0
 76
     1
 77
     6
 78
     2
 67
     7
 79
     3
170
     0
171
     0
290
     0
174
     0
 93
        1
 44
0.0
173
     0
291
     0
 45
0.0
1001
ACAD
1000
AcDbSavedByObjectVersion
1070
     0
  0
VISUALSTYLE
  5
35
102
{ACAD_REACTORS
330
2A
102
}
330
2A
100
AcDbVisualStyle
  2
Dim
 70
    11
 71
     2
 72
     2
 73
     0
 90
        0
 40
-0.6
 41
-30.0
 62
     5
 63
     7
421
 16777215
 74
     1
 91
        4
 64
     7
 65
   257
 75
     1
175
     1
 42
1.0
 92
        8
 66
     7
 43
1.0
 76
     1
 77
     6
 78
     2
 67
     7
 79
     5
170
     0
171
     0
290
     0
174
     0
 93
        1
 44
-50.0
173
     0
291
     1
 45
0.0
1001
ACAD
1000
AcDbSavedByObjectVersion
1070
     0
  0
VISUALSTYLE
  5
39
102
{ACAD_REACTORS
330
2A
102
}
330
2A
100
AcDbVisualStyle
  2
Facepattern
 70
    15
 71
     2
 72
     2
 73
     0
 90
        0
 40
-0.6
 41
-30.0
 62
     5
 63
     7
421
 16777215
 74
     1
 91
        4
 64
     7
 65
   257
 75
     1
175
     1
 42
1.0
 92
        8
 66
     7
 43
1.0
 76
     1
 77
     6
 78
     2
 67
     7
 79
     5
170
     0
171
     0
290
     0
174
     0
 93
        1
 44
0.0
173
     0
291
     1
 45
0.0
1001
ACAD
1000
AcDbSavedByObjectVersion
1070
     0
  0
VISUALSTYLE
  5
2B
102
{ACAD_REACTORS
330
2A
102
}
330
2A
100
AcDbVisualStyle
  2
Flat
 70
     0
 71
     2
 72
     1
 73
     1
 90
        2
 40
-0.6
 41
30.0
 62
     5
 63
     7
421
 16777215
 74
     0
 91
        4
 64
     7
 65
   257
 75
     1
175
     1
 42
1.0
 92
        8
 66
     7
 43
1.0
 76
     1
 77
     6
 78
     2
 67
     7
 79
     5
170
     0
171
     0
290
     0
174
     0
 93
       13
 44
0.0
173
     0
291
     1
 45
0.0
1001
ACAD
1000
AcDbSavedByObjectVersion
1070
     0
  0
VISUALSTYLE
  5
2C
102
{ACAD_REACTORS
330
2A
102
}
330
2A
100
AcDbVisualStyle
  2
FlatWithEdges
 70
     1
 71
     2
 72
     1
 73
     1
 90
        2
 40
-0.6
 41
30.0
 62
     5
 63
     7
421
 16777215
 74
     1
 91
        4
 64
     7
 65
   257
 75
     1
175
     1
 42
1.0
 92
        0
 66
   257
 43
1.0
 76
     1
 77
     6
 78
     2
 67
     7
 79
     5
170
     0
171
     0
290
     0
174
     0
 93
       13
 44
0.0
173
     0
291
     1
 45
0.0
1001
ACAD
1000
AcDbSavedByObjectVersion
1070
     0
  0
VISUALSTYLE
  5
2D
102
{ACAD_REACTORS
330
2A
102
}
330
2A
100
AcDbVisualStyle
  2
Gouraud
 70
     2
 71
     2
 72
     2
 73
     1
 90
        2
 40
-0.6
 41
30.0
 62
     5
 63
     7
421
 16777215
 74
     0
 91
        4
 64
     7
 65
   257
 75
     1
175
     1
 42
1.0
 92
        0
 66
     7
 43
1.0
 76
     1
 77
     6
 78
     2
 67
     7
 79
     5
170
     0
171
     0
290
     0
174
     0
 93
       13
 44
0.0
173
     0
291
     1
 45
0.0
1001
ACAD
1000
AcDbSavedByObjectVersion
1070
     0
  0
VISUALSTYLE
  5
2E
102
{ACAD_REACTORS
330
2A
102
}
330
2A
100
AcDbVisualStyle
  2
GouraudWithEdges
 70
     3
 71
     2
 72
     2
 73
     1
 90
        2
 40
-0.6
 41
30.0
 62
     5
 63
     7
421
 16777215
 74
     1
 91
        4
 64
     7
 65
   257
 75
     1
175
     1
 42
1.0
 92
        0
 66
   257
 43
1.0
 76
     1
 77
     6
 78
     2
 67
     7
 79
     5
170
     0
171
     0
290
     0
174
     0
 93
       13
 44
0.0
173
     0
291
     1
 45
0.0
1001
ACAD
1000
AcDbSavedByObjectVersion
1070
     0
  0
VISUALSTYLE
  5
38
102
{ACAD_REACTORS
330
2A
102
}
330
2A
100
AcDbVisualStyle
  2
Linepattern
 70
    14
 71
     2
 72
     2
 73
     0
 90
        0
 40
-0.6
 41
-30.0
 62
     5
 63
     7
421
 16777215
 74
     1
 91
        4
 64
     7
 65
   257
 75
     7
175
     7
 42
1.0
 92
        8
 66
     7
 43
1.0
 76
     1
 77
     6
 78
     2
 67
     7
 79
     5
170
     0
171
     0
290
     0
174
     0
 93
        1
 44
0.0
173
     0
291
     1
 45
0.0
1001
ACAD
1000
AcDbSavedByObjectVersion
1070
     0
  0
VISUALSTYLE
  5
33
102
{ACAD_REACTORS
330
2A
102
}
330
2A
100
AcDbVisualStyle
  2
Realistic
 70
     8
 71
     2
 72
     2
 73
     0
 90
        0
 40
-0.6
 41
-30.0
 62
     5
 63
     7
421
 16777215
 74
     1
 91
        0
 64
     7
 65
   257
 75
     1
175
     1
 42
1.0
 92
        8
 66
     8
424
  7895160
 43
1.0
 76
     1
 77
     6
 78
     2
 67
     7
 79
     5
170
     0
171
     0
290
     0
174
     0
 93
       13
 44
0.0
173
     0
291
     0
 45
0.0
1001
ACAD
1000
AcDbSavedByObjectVersion
1070
     0
  0
VISUALSTYLE
  5
37
102
{ACAD_REACTORS
330
2A
102
}
330
2A
100
AcDbVisualStyle
  2
Thicken
 70
    13
 71
     2
 72
     2
 73
     0
 90
        0
 40
-0.6
 41
-30.0
 62
     5
 63
     7
421
 16777215
 74
     1
 91
        4
 64
     7
 65
   257
 75
     1
175
     1
 42
1.0
 92
       12
 66
     7
 43
1.0
 76
     1
 77
     6
 78
     2
 67
     7
 79
     5
170
     0
171
     0
290
     0
174
     0
 93
        1
 44
0.0
173
     0
291
     1
 45
0.0
1001
ACAD
1000
AcDbSavedByObjectVersion
1070
     0
  0
ENDSEC
  0
EOF
