  0
SECTION
  2
HEADER
  9
$ACADVER
  1
AC1009
  9
$DWGCODEPAGE
  3
ansi_1252
  9
$INSBASE
 10
0.0
 20
0.0
 30
0.0
  9
$EXTMIN
 10
-167.5
 20
-27.51545715332032
 30
-9.0
  9
$EXTMAX
 10
167.8671417236329
 20
0.0
 30
9.345146179199226
  9
$LIMMIN
 10
0.0
 20
0.0
  9
$LIMMAX
 10
12.0
 20
9.0
  9
$ORTHOMODE
 70
     1
  9
$REGENMODE
 70
     1
  9
$FILLMODE
 70
     1
  9
$QTEXTMODE
 70
     0
  9
$MIRRTEXT
 70
     1
  9
$DRAGMODE
 70
     2
  9
$LTSCALE
 40
1.0
  9
$OSMODE
 70
    37
  9
$ATTMODE
 70
     1
  9
$TEXTSIZE
 40
0.2
  9
$TRACEWID
 40
0.05
  9
$TEXTSTYLE
  7
STANDARD
  9
$CLAYER
  8
0
  9
$CELTYPE
  6
BYLAYER
  9
$CECOLOR
 62
   256
  9
$DIMSCALE
 40
1.0
  9
$DIMASZ
 40
0.18
  9
$DIMEXO
 40
0.0625
  9
$DIMDLI
 40
0.38
  9
$DIMRND
 40
0.0
  9
$DIMDLE
 40
0.0
  9
$DIMEXE
 40
0.18
  9
$DIMTP
 40
0.0
  9
$DIMTM
 40
0.0
  9
$DIMTXT
 40
0.18
  9
$DIMCEN
 40
0.09
  9
$DIMTSZ
 40
0.0
  9
$DIMTOL
 70
     0
  9
$DIMLIM
 70
     0
  9
$DIMTIH
 70
     1
  9
$DIMTOH
 70
     1
  9
$DIMSE1
 70
     0
  9
$DIMSE2
 70
     0
  9
$DIMTAD
 70
     0
  9
$DIMZIN
 70
     0
  9
$DIMBLK
  1

  9
$DIMASO
 70
     1
  9
$DIMSHO
 70
     1
  9
$DIMPOST
  1

  9
$DIMAPOST
  1

  9
$DIMALT
 70
     0
  9
$DIMALTD
 70
     2
  9
$DIMALTF
 40
25.4
  9
$DIMLFAC
 40
1.0
  9
$DIMTOFL
 70
     0
  9
$DIMTVP
 40
0.0
  9
$DIMTIX
 70
     0
  9
$DIMSOXD
 70
     0
  9
$DIMSAH
 70
     0
  9
$DIMBLK1
  1

  9
$DIMBLK2
  1

  9
$DIMSTYLE
  2
STANDARD
  9
$DIMCLRD
 70
     0
  9
$DIMCLRE
 70
     0
  9
$DIMCLRT
 70
     0
  9
$DIMTFAC
 40
1.0
  9
$DIMGAP
 40
0.09
  9
$LUNITS
 70
     2
  9
$LUPREC
 70
     3
  9
$SKETCHINC
 40
0.1
  9
$FILLETRAD
 40
0.5
  9
$AUNITS
 70
     0
  9
$AUPREC
 70
     0
  9
$MENU
  1
.
  9
$ELEVATION
 40
0.0
  9
$PELEVATION
 40
0.0
  9
$THICKNESS
 40
0.0
  9
$LIMCHECK
 70
     0
  9
$CHAMFERA
 40
0.5
  9
$CHAMFERB
 40
0.5
  9
$SKPOLY
 70
     0
  9
$TDCREATE
 40
2456499.39881169
  9
$TDUPDATE
 40
2456499.39881169
  9
$TDINDWG
 40
0.0016782523
  9
$TDUSRTIMER
 40
0.0016782523
  9
$USRTIMER
 70
     1
  9
$ANGBASE
 50
0.0
  9
$ANGDIR
 70
     0
  9
$PDMODE
 70
     0
  9
$PDSIZE
 40
0.0
  9
$PLINEWID
 40
0.0
  9
$COORDS
 70
     1
  9
$SPLFRAME
 70
     0
  9
$SPLINETYPE
 70
     6
  9
$SPLINESEGS
 70
     8
  9
$ATTDIA
 70
     0
  9
$ATTREQ
 70
     1
  9
$HANDLING
 70
     1
  9
$HANDSEED
  5
32C
  9
$SURFTAB1
 70
     6
  9
$SURFTAB2
 70
     6
  9
$SURFTYPE
 70
     6
  9
$SURFU
 70
     6
  9
$SURFV
 70
     6
  9
$UCSNAME
  2

  9
$UCSORG
 10
0.0
 20
0.0
 30
0.0
  9
$UCSXDIR
 10
1.0
 20
0.0
 30
0.0
  9
$UCSYDIR
 10
0.0
 20
0.0
 30
1.0
  9
$PUCSNAME
  2

  9
$PUCSORG
 10
0.0
 20
0.0
 30
0.0
  9
$PUCSXDIR
 10
1.0
 20
0.0
 30
0.0
  9
$PUCSYDIR
 10
0.0
 20
1.0
 30
0.0
  9
$USERI1
 70
     0
  9
$USERI2
 70
     0
  9
$USERI3
 70
     0
  9
$USERI4
 70
     0
  9
$USERI5
 70
     0
  9
$USERR1
 40
0.0
  9
$USERR2
 40
0.0
  9
$USERR3
 40
0.0
  9
$USERR4
 40
0.0
  9
$USERR5
 40
0.0
  9
$WORLDVIEW
 70
     1
  9
$SHADEDGE
 70
     3
  9
$SHADEDIF
 70
    70
  9
$TILEMODE
 70
     1
  9
$MAXACTVP
 70
    64
  9
$PLIMCHECK
 70
     0
  9
$PEXTMIN
 10
1.000000000000000E+20
 20
1.000000000000000E+20
 30
1.000000000000000E+20
  9
$PEXTMAX
 10
-1.000000000000000E+20
 20
-1.000000000000000E+20
 30
-1.000000000000000E+20
  9
$PLIMMIN
 10
0.0
 20
0.0
  9
$PLIMMAX
 10
12.0
 20
9.0
  9
$UNITMODE
 70
     0
  9
$VISRETAIN
 70
     1
  9
$PLINEGEN
 70
     0
  9
$PSLTSCALE
 70
     1
  0
ENDSEC
  0
SECTION
  2
TABLES
  0
TABLE
  2
VPORT
 70
     1
  0
VPORT
  2
*ACTIVE
 70
     0
 10
0.0
 20
0.0
 11
1.0
 21
1.0
 12
9.857987371499012
 22
-5.400721343953583
 13
0.0
 23
0.0
 14
0.5
 24
0.5
 15
0.5
 25
0.5
 16
-1.0
 26
-1.0
 36
1.0
 17
0.0
 27
0.0
 37
0.0
 40
207.9843109472326
 41
18.33548440758816
 42
50.0
 43
0.0
 44
0.0
 50
0.0
 51
0.0
 71
    16
 72
   100
 73
     0
 74
     1
 75
     0
 76
     0
 77
     0
 78
     0
  0
ENDTAB
  0
TABLE
  2
LTYPE
 70
     1
  0
LTYPE
  2
CONTINUOUS
 70
     0
  3
Solid line
 72
    65
 73
     0
 40
0.0
  0
ENDTAB
  0
TABLE
  2
LAYER
 70
     2
  0
LAYER
  2
0
 70
     0
 62
     7
  6
CONTINUOUS
  0
LAYER
  2
METAL
 70
     0
 62
     7
  6
CONTINUOUS
  0
ENDTAB
  0
TABLE
  2
STYLE
 70
     1
  0
STYLE
  2
STANDARD
 70
     0
 40
0.0
 41
1.0
 50
0.0
 71
     0
 42
0.2
  3
txt
  4

  0
ENDTAB
  0
TABLE
  2
VIEW
 70
     0
  0
ENDTAB
  0
TABLE
  2
UCS
 70
     0
  0
ENDTAB
  0
TABLE
  2
APPID
 70
     1
  0
APPID
  2
ACAD
 70
     0
  0
ENDTAB
  0
TABLE
  2
DIMSTYLE
 70
     1
  0
DIMSTYLE
  2
STANDARD
 70
     0
  3

  4

  5

  6

  7

 40
1.0
 41
0.18
 42
0.0625
 43
0.38
 44
0.18
 45
0.0
 46
0.0
 47
0.0
 48
0.0
140
0.18
141
0.09
142
0.0
143
25.4
144
1.0
145
0.0
146
1.0
147
0.09
 71
     0
 72
     0
 73
     1
 74
     1
 75
     0
 76
     0
 77
     0
 78
     0
170
     0
171
     2
172
     0
173
     0
174
     0
175
     0
176
     0
177
     0
178
     0
  0
ENDTAB
  0
ENDSEC
  0
SECTION
  2
BLOCKS
  0
BLOCK
  8
0
  2
$MODEL_SPACE
 70
     0
 10
0.0
 20
0.0
 30
0.0
  3
$MODEL_SPACE
  1

  0
ENDBLK
  5
21
  8
0
  0
BLOCK
 67
     1
  8
0
  2
$PAPER_SPACE
 70
     0
 10
0.0
 20
0.0
 30
0.0
  3
$PAPER_SPACE
  1

  0
ENDBLK
  5
76
 67
     1
  8
0
  0
ENDSEC
  0
SECTION
  2
ENTITIES
  0
POLYLINE
  5
3C
  8
METAL
 66
     1
 10
0.0
 20
0.0
 30
0.0
 70
    64
 71
   396
 72
   276
  0
VERTEX
  5
3D
  8
METAL
 10
167.8671417236329
 20
-0.0000000000000036
 30
8.345146179199226
 70
   192
  0
VERTEX
  5
3E
  8
METAL
 10
167.8671417236329
 20
-0.0000000000000018
 30
0.7229270935058665
 70
   192
  0
VERTEX
  5
3F
  8
METAL
 10
167.8671417236329
 20
0.0
 30
-7.999999999999993
 70
   192
  0
VERTEX
  5
40
  8
METAL
 10
167.6171417236329
 20
-0.0000000000000036
 30
9.095146179199226
 70
   192
  0
VERTEX
  5
41
  8
METAL
 10
167.6171417236329
 20
-0.0000000000000036
 30
9.095146179199226
 70
   192
  0
VERTEX
  5
42
  8
METAL
 10
167.6171417236329
 20
0.0
 30
-8.749999999999993
 70
   192
  0
VERTEX
  5
43
  8
METAL
 10
167.6171417236329
 20
0.0
 30
-8.749999999999993
 70
   192
  0
VERTEX
  5
44
  8
METAL
 10
166.8671417236329
 20
-0.0000000000000036
 30
9.345146179199226
 70
   192
  0
VERTEX
  5
45
  8
METAL
 10
166.8671417236329
 20
0.0
 30
-8.999999999999993
 70
   192
  0
VERTEX
  5
46
  8
METAL
 10
166.7425994873047
 20
-19.90481567382813
 30
8.345146179199219
 70
   192
  0
VERTEX
  5
47
  8
METAL
 10
166.7425994873047
 20
-19.90481567382813
 30
0.7229270935058594
 70
   192
  0
VERTEX
  5
48
  8
METAL
 10
166.7425994873047
 20
-19.90481567382812
 30
-8.0
 70
   192
  0
VERTEX
  5
49
  8
METAL
 10
166.4925994873047
 20
-19.90481567382813
 30
9.095146179199219
 70
   192
  0
VERTEX
  5
4A
  8
METAL
 10
166.4925994873047
 20
-19.90481567382813
 30
9.095146179199219
 70
   192
  0
VERTEX
  5
4B
  8
METAL
 10
166.4925994873047
 20
-19.90481567382812
 30
-8.75
 70
   192
  0
VERTEX
  5
4C
  8
METAL
 10
166.4925994873047
 20
-19.90481567382812
 30
-8.75
 70
   192
  0
VERTEX
  5
4D
  8
METAL
 10
166.4529113769532
 20
-23.90399169921873
 30
8.345146179199219
 70
   192
  0
VERTEX
  5
4E
  8
METAL
 10
166.4529113769532
 20
-23.90399169921873
 30
0.7229270935058594
 70
   192
  0
VERTEX
  5
4F
  8
METAL
 10
166.4529113769532
 20
-23.90399169921872
 30
-8.0
 70
   192
  0
VERTEX
  5
50
  8
METAL
 10
166.2015991210938
 20
-23.91328430175782
 30
9.095146179199219
 70
   192
  0
VERTEX
  5
51
  8
METAL
 10
166.2015991210938
 20
-23.91328430175782
 30
9.095146179199219
 70
   192
  0
VERTEX
  5
52
  8
METAL
 10
166.2012329101563
 20
-23.9183349609375
 30
-8.75
 70
   192
  0
VERTEX
  5
53
  8
METAL
 10
166.2012329101563
 20
-23.9183349609375
 30
-8.75
 70
   192
  0
VERTEX
  5
54
  8
METAL
 10
166.1611022949219
 20
-24.47930908203123
 30
8.907646179199219
 70
   192
  0
VERTEX
  5
55
  8
METAL
 10
166.1611022949219
 20
-24.47930908203123
 30
8.907646179199219
 70
   192
  0
VERTEX
  5
56
  8
METAL
 10
166.1611022949219
 20
-24.47930908203123
 30
8.907646179199219
 70
   192
  0
VERTEX
  5
57
  8
METAL
 10
166.1492919921876
 20
-24.66862487792972
 30
8.345146179199219
 70
   192
  0
VERTEX
  5
58
  8
METAL
 10
166.1492919921876
 20
-24.66862487792972
 30
8.345146179199219
 70
   192
  0
VERTEX
  5
2EA
  8
METAL
 10
166.1492919921876
 20
-24.66864013671873
 30
0.7229270935058594
 70
   192
  0
VERTEX
  5
2EB
  8
METAL
 10
166.1492919921876
 20
-24.66864013671873
 30
0.7229270935058594
 70
   192
  0
VERTEX
  5
5B
  8
METAL
 10
166.1492919921876
 20
-24.66864013671872
 30
-8.0
 70
   192
  0
VERTEX
  5
5C
  8
METAL
 10
166.1492919921876
 20
-24.66864013671872
 30
-8.0
 70
   192
  0
VERTEX
  5
5D
  8
METAL
 10
165.9734954833985
 20
-24.49180603027341
 30
-8.75
 70
   192
  0
VERTEX
  5
2EC
  8
METAL
 10
165.9734954833985
 20
-24.49180603027341
 30
-8.75
 70
   192
  0
VERTEX
  5
5F
  8
METAL
 10
165.9734954833985
 20
-24.49180603027341
 30
-8.75
 70
   192
  0
VERTEX
  5
60
  8
METAL
 10
165.7425994873047
 20
-19.90481567382813
 30
9.345146179199219
 70
   192
  0
VERTEX
  5
61
  8
METAL
 10
165.7425994873047
 20
-19.90481567382812
 30
-9.0
 70
   192
  0
VERTEX
  5
62
  8
METAL
 10
165.4461364746094
 20
-23.96134948730472
 30
9.345146179199219
 70
   192
  0
VERTEX
  5
63
  8
METAL
 10
165.4461364746094
 20
-23.96134948730472
 30
-9.0
 70
   192
  0
VERTEX
  5
64
  8
METAL
 10
165.398681640625
 20
-24.7161560058594
 30
-8.75
 70
   192
  0
VERTEX
  5
65
  8
METAL
 10
165.398681640625
 20
-24.7161560058594
 30
-8.75
 70
   192
  0
VERTEX
  5
66
  8
METAL
 10
165.3935852050782
 20
-24.71578979492191
 30
9.095146179199219
 70
   192
  0
VERTEX
  5
67
  8
METAL
 10
165.3935852050782
 20
-24.71578979492191
 30
9.095146179199219
 70
   192
  0
VERTEX
  5
68
  8
METAL
 10
165.3828735351563
 20
-24.96775817871091
 30
8.345146179199219
 70
   192
  0
VERTEX
  5
69
  8
METAL
 10
165.3828735351563
 20
-24.96775817871091
 30
0.7229270935058594
 70
   192
  0
VERTEX
  5
6A
  8
METAL
 10
165.3828735351563
 20
-24.96775817871091
 30
-8.0
 70
   192
  0
VERTEX
  5
2ED
  8
METAL
 10
156.9531707763672
 20
-0.0000000000000036
 30
9.345146179199226
 70
   192
  0
VERTEX
  5
2EE
  8
METAL
 10
156.9531707763672
 20
0.0
 30
-8.999999999999993
 70
   192
  0
VERTEX
  5
6D
  8
METAL
 10
156.0611267089844
 20
0.0
 30
-8.79427337646483
 70
   192
  0
VERTEX
  5
6E
  8
METAL
 10
156.0524597167969
 20
-0.0000000000000036
 30
9.145675659179702
 70
   192
  0
VERTEX
  5
6F
  8
METAL
 10
155.8286285400391
 20
-19.90481567382813
 30
9.345146179199219
 70
   192
  0
VERTEX
  5
70
  8
METAL
 10
155.8286285400391
 20
-19.90481567382812
 30
-9.0
 70
   192
  0
VERTEX
  5
71
  8
METAL
 10
155.8286285400391
 20
-19.90481567382812
 30
-9.0
 70
   192
  0
VERTEX
  5
72
  8
METAL
 10
155.385009765625
 20
0.0
 30
-8.17708587646483
 70
   192
  0
VERTEX
  5
2EF
  8
METAL
 10
155.3503723144532
 20
-0.0000000000000036
 30
8.547256469726577
 70
   192
  0
VERTEX
  5
2F0
  8
METAL
 10
155.3139038085938
 20
-20.40460205078123
 30
9.345146179199219
 70
   192
  0
VERTEX
  5
2F1
  8
METAL
 10
155.3139038085938
 20
-20.40460205078123
 30
9.345146179199219
 70
   192
  0
VERTEX
  5
2F2
  8
METAL
 10
155.3139038085938
 20
-20.40460205078122
 30
-9.0
 70
   192
  0
VERTEX
  5
77
  8
METAL
 10
155.3139038085938
 20
-20.40460205078122
 30
-9.0
 70
   192
  0
VERTEX
  5
78
  8
METAL
 10
155.1705627441407
 20
-20.15470886230472
 30
9.145675659179695
 70
   192
  0
VERTEX
  5
79
  8
METAL
 10
155.0445556640626
 20
-19.90481567382812
 30
-8.58853912353515
 70
   192
  0
VERTEX
  5
7A
  8
METAL
 10
155.0445556640626
 20
-19.90481567382812
 30
-8.58853912353515
 70
   192
  0
VERTEX
  5
7B
  8
METAL
 10
155.0272216796876
 20
-19.90481567382813
 30
8.946201324462905
 70
   192
  0
VERTEX
  5
7C
  8
METAL
 10
154.7991943359376
 20
-20.90438842773441
 30
9.345146179199219
 70
   192
  0
VERTEX
  5
7D
  8
METAL
 10
154.7991943359376
 20
-20.90438842773441
 30
9.345146179199219
 70
   192
  0
VERTEX
  5
7E
  8
METAL
 10
154.7991943359376
 20
-20.9043884277344
 30
-9.0
 70
   192
  0
VERTEX
  5
7F
  8
METAL
 10
154.7991943359376
 20
-20.9043884277344
 30
-9.0
 70
   192
  0
VERTEX
  5
80
  8
METAL
 10
154.7871856689454
 20
-20.15470886230472
 30
-8.588542938232415
 70
   192
  0
VERTEX
  5
81
  8
METAL
 10
154.6879577636719
 20
-24.68161010742191
 30
9.345146179199219
 70
   192
  0
VERTEX
  5
82
  8
METAL
 10
154.6879577636719
 20
-24.6816101074219
 30
-9.0
 70
   192
  0
VERTEX
  5
83
  8
METAL
 10
154.6658935546876
 20
-25.43128967285151
 30
9.095146179199219
 70
   192
  0
VERTEX
  5
84
  8
METAL
 10
154.6658935546876
 20
-25.43128967285151
 30
9.095146179199219
 70
   192
  0
VERTEX
  5
85
  8
METAL
 10
154.6658935546876
 20
-25.43128967285151
 30
-8.75
 70
   192
  0
VERTEX
  5
86
  8
METAL
 10
154.6658935546876
 20
-25.43128967285151
 30
-8.75
 70
   192
  0
VERTEX
  5
87
  8
METAL
 10
154.6585235595704
 20
-25.68118286132813
 30
8.345146179199219
 70
   192
  0
VERTEX
  5
88
  8
METAL
 10
154.6585235595704
 20
-25.68118286132813
 30
0.7229270935058594
 70
   192
  0
VERTEX
  5
89
  8
METAL
 10
154.6585235595704
 20
-25.68118286132813
 30
-8.0
 70
   192
  0
VERTEX
  5
8A
  8
METAL
 10
154.5298309326172
 20
-20.40460205078122
 30
-8.58853912353515
 70
   192
  0
VERTEX
  5
8B
  8
METAL
 10
154.5298309326172
 20
-20.40460205078122
 30
-8.58853912353515
 70
   192
  0
VERTEX
  5
8C
  8
METAL
 10
154.5125122070313
 20
-20.40460205078123
 30
8.946201324462905
 70
   192
  0
VERTEX
  5
8D
  8
METAL
 10
154.5125122070313
 20
-20.40460205078123
 30
8.946201324462905
 70
   192
  0
VERTEX
  5
8E
  8
METAL
 10
154.2604675292969
 20
-19.90481567382812
 30
-8.177085876464837
 70
   192
  0
VERTEX
  5
8F
  8
METAL
 10
154.2604675292969
 20
-19.90481567382812
 30
-8.177085876464837
 70
   192
  0
VERTEX
  5
90
  8
METAL
 10
154.2604675292969
 20
-19.90481567382812
 30
-8.177085876464837
 70
   192
  0
VERTEX
  5
91
  8
METAL
 10
154.2604675292969
 20
-19.90481567382812
 30
-8.177085876464837
 70
   192
  0
VERTEX
  5
2F3
  8
METAL
 10
154.225830078125
 20
-19.90481567382813
 30
8.54725646972657
 70
   192
  0
VERTEX
  5
2F4
  8
METAL
 10
154.225830078125
 20
-19.90481567382813
 30
8.54725646972657
 70
   192
  0
VERTEX
  5
94
  8
METAL
 10
154.225830078125
 20
-19.90481567382813
 30
8.54725646972657
 70
   192
  0
VERTEX
  5
95
  8
METAL
 10
152.6441802978516
 20
-0.0000000000000027
 30
4.965240478515639
 70
   192
  0
VERTEX
  5
96
  8
METAL
 10
152.6441802978516
 20
-0.0000000000000009
 30
-4.20733261108397
 70
   192
  0
VERTEX
  5
2F5
  8
METAL
 10
151.5411834716797
 20
-0.0000000000000018
 30
0.4477500915527486
 70
   192
  0
VERTEX
  5
2F6
  8
METAL
 10
151.5411834716797
 20
-0.0000000000000018
 30
0.4477500915527486
 70
   192
  0
VERTEX
  5
99
  8
METAL
 10
151.5196380615235
 20
-19.90481567382813
 30
4.965240478515632
 70
   192
  0
VERTEX
  5
9A
  8
METAL
 10
151.5196380615235
 20
-19.90481567382813
 30
4.965240478515632
 70
   192
  0
VERTEX
  5
9B
  8
METAL
 10
151.5196380615235
 20
-19.90481567382812
 30
-4.207332611083977
 70
   192
  0
VERTEX
  5
9C
  8
METAL
 10
151.5196380615235
 20
-19.90481567382812
 30
-4.207332611083977
 70
   192
  0
VERTEX
  5
9D
  8
METAL
 10
150.4166412353516
 20
-19.90481567382813
 30
0.4477500915527415
 70
   192
  0
VERTEX
  5
9E
  8
METAL
 10
150.4166412353516
 20
-19.90481567382813
 30
0.4477500915527415
 70
   192
  0
VERTEX
  5
9F
  8
METAL
 10
150.4166412353516
 20
-19.90481567382813
 30
0.4477500915527415
 70
   192
  0
VERTEX
  5
A0
  8
METAL
 10
138.7220001220704
 20
-25.47474670410151
 30
9.345146179199219
 70
   192
  0
VERTEX
  5
A1
  8
METAL
 10
138.7220001220704
 20
-21.46051025390623
 30
9.345146179199219
 70
   192
  0
VERTEX
  5
A2
  8
METAL
 10
138.7220001220704
 20
-26.22474670410151
 30
9.095146179199219
 70
   192
  0
VERTEX
  5
A3
  8
METAL
 10
138.7220001220704
 20
-26.22474670410151
 30
9.095146179199219
 70
   192
  0
VERTEX
  5
A4
  8
METAL
 10
138.7220001220704
 20
-20.71051025390623
 30
9.095146179199219
 70
   192
  0
VERTEX
  5
A5
  8
METAL
 10
138.7220001220704
 20
-20.71051025390623
 30
9.095146179199219
 70
   192
  0
VERTEX
  5
A6
  8
METAL
 10
138.7220001220704
 20
-26.47474670410151
 30
8.345146179199219
 70
   192
  0
VERTEX
  5
A7
  8
METAL
 10
138.7220001220704
 20
-20.46051025390623
 30
8.345146179199219
 70
   192
  0
VERTEX
  5
A8
  8
METAL
 10
138.7220001220704
 20
-26.47474670410151
 30
0.7229270935058594
 70
   192
  0
VERTEX
  5
A9
  8
METAL
 10
138.7220001220704
 20
-20.46051025390623
 30
0.7229270935058594
 70
   192
  0
VERTEX
  5
AA
  8
METAL
 10
138.7220001220704
 20
-26.47474670410151
 30
-8.0
 70
   192
  0
VERTEX
  5
AB
  8
METAL
 10
138.7220001220704
 20
-20.46051025390622
 30
-8.0
 70
   192
  0
VERTEX
  5
AC
  8
METAL
 10
138.7220001220704
 20
-26.22474670410151
 30
-8.75
 70
   192
  0
VERTEX
  5
AD
  8
METAL
 10
138.7220001220704
 20
-26.22474670410151
 30
-8.75
 70
   192
  0
VERTEX
  5
AE
  8
METAL
 10
138.7220001220704
 20
-20.71051025390622
 30
-8.75
 70
   192
  0
VERTEX
  5
AF
  8
METAL
 10
138.7220001220704
 20
-20.71051025390622
 30
-8.75
 70
   192
  0
VERTEX
  5
B0
  8
METAL
 10
138.7220001220704
 20
-25.47474670410151
 30
-9.0
 70
   192
  0
VERTEX
  5
B1
  8
METAL
 10
138.7220001220704
 20
-21.46051025390622
 30
-9.0
 70
   192
  0
VERTEX
  5
B2
  8
METAL
 10
109.7152099609376
 20
-26.16658020019532
 30
9.345146179199219
 70
   192
  0
VERTEX
  5
B3
  8
METAL
 10
109.7152099609376
 20
-21.94281005859373
 30
9.345146179199219
 70
   192
  0
VERTEX
  5
B4
  8
METAL
 10
109.7152099609376
 20
-26.91658020019532
 30
9.095146179199219
 70
   192
  0
VERTEX
  5
B5
  8
METAL
 10
109.7152099609376
 20
-26.91658020019532
 30
9.095146179199219
 70
   192
  0
VERTEX
  5
B6
  8
METAL
 10
109.7152099609376
 20
-21.19281005859373
 30
9.095146179199219
 70
   192
  0
VERTEX
  5
B7
  8
METAL
 10
109.7152099609376
 20
-21.19281005859373
 30
9.095146179199219
 70
   192
  0
VERTEX
  5
B8
  8
METAL
 10
109.7152099609376
 20
-27.16658020019532
 30
8.345146179199219
 70
   192
  0
VERTEX
  5
B9
  8
METAL
 10
109.7152099609376
 20
-20.94281005859373
 30
8.345146179199219
 70
   192
  0
VERTEX
  5
BA
  8
METAL
 10
109.7152099609376
 20
-27.16658020019532
 30
0.7229270935058594
 70
   192
  0
VERTEX
  5
BB
  8
METAL
 10
109.7152099609376
 20
-20.94281005859373
 30
0.7229270935058594
 70
   192
  0
VERTEX
  5
BC
  8
METAL
 10
109.7152099609376
 20
-27.16658020019532
 30
-8.0
 70
   192
  0
VERTEX
  5
BD
  8
METAL
 10
109.7152099609376
 20
-20.94281005859372
 30
-8.0
 70
   192
  0
VERTEX
  5
BE
  8
METAL
 10
109.7152099609376
 20
-26.91658020019532
 30
-8.75
 70
   192
  0
VERTEX
  5
BF
  8
METAL
 10
109.7152099609376
 20
-26.91658020019532
 30
-8.75
 70
   192
  0
VERTEX
  5
C0
  8
METAL
 10
109.7152099609376
 20
-21.19281005859372
 30
-8.75
 70
   192
  0
VERTEX
  5
C1
  8
METAL
 10
109.7152099609376
 20
-21.19281005859372
 30
-8.75
 70
   192
  0
VERTEX
  5
C2
  8
METAL
 10
109.7152099609376
 20
-26.16658020019532
 30
-9.0
 70
   192
  0
VERTEX
  5
C3
  8
METAL
 10
109.7152099609376
 20
-21.94281005859372
 30
-9.0
 70
   192
  0
VERTEX
  5
C4
  8
METAL
 10
80.7084350585938
 20
-26.34553527832032
 30
9.345146179199219
 70
   192
  0
VERTEX
  5
C5
  8
METAL
 10
80.7084350585938
 20
-22.37037658691412
 30
9.345146179199219
 70
   192
  0
VERTEX
  5
C6
  8
METAL
 10
80.7084350585938
 20
-27.09553527832032
 30
9.095146179199219
 70
   192
  0
VERTEX
  5
C7
  8
METAL
 10
80.7084350585938
 20
-27.09553527832032
 30
9.095146179199219
 70
   192
  0
VERTEX
  5
C8
  8
METAL
 10
80.7084350585938
 20
-21.62037658691412
 30
9.095146179199219
 70
   192
  0
VERTEX
  5
C9
  8
METAL
 10
80.7084350585938
 20
-21.62037658691412
 30
9.095146179199219
 70
   192
  0
VERTEX
  5
CA
  8
METAL
 10
80.7084350585938
 20
-27.34553527832032
 30
8.345146179199219
 70
   192
  0
VERTEX
  5
CB
  8
METAL
 10
80.7084350585938
 20
-21.37037658691412
 30
8.345146179199219
 70
   192
  0
VERTEX
  5
CC
  8
METAL
 10
80.7084350585938
 20
-27.34553527832032
 30
0.7229270935058594
 70
   192
  0
VERTEX
  5
CD
  8
METAL
 10
80.7084350585938
 20
-21.37037658691412
 30
0.7229270935058594
 70
   192
  0
VERTEX
  5
CE
  8
METAL
 10
80.7084350585938
 20
-27.34553527832032
 30
-8.0
 70
   192
  0
VERTEX
  5
CF
  8
METAL
 10
80.7084350585938
 20
-21.37037658691412
 30
-8.0
 70
   192
  0
VERTEX
  5
D0
  8
METAL
 10
80.7084350585938
 20
-27.09553527832032
 30
-8.75
 70
   192
  0
VERTEX
  5
D1
  8
METAL
 10
80.7084350585938
 20
-27.09553527832032
 30
-8.75
 70
   192
  0
VERTEX
  5
D2
  8
METAL
 10
80.7084350585938
 20
-21.62037658691412
 30
-8.75
 70
   192
  0
VERTEX
  5
D3
  8
METAL
 10
80.7084350585938
 20
-21.62037658691412
 30
-8.75
 70
   192
  0
VERTEX
  5
D4
  8
METAL
 10
80.7084350585938
 20
-26.34553527832032
 30
-9.0
 70
   192
  0
VERTEX
  5
D5
  8
METAL
 10
80.7084350585938
 20
-22.37037658691412
 30
-9.0
 70
   192
  0
VERTEX
  5
D6
  8
METAL
 10
47.62759399414071
 20
-26.51545715332032
 30
9.345146179199219
 70
   192
  0
VERTEX
  5
D7
  8
METAL
 10
47.62759399414071
 20
-22.34767150878912
 30
9.345146179199219
 70
   192
  0
VERTEX
  5
D8
  8
METAL
 10
47.62759399414071
 20
-27.26545715332032
 30
9.095146179199219
 70
   192
  0
VERTEX
  5
D9
  8
METAL
 10
47.62759399414071
 20
-27.26545715332032
 30
9.095146179199219
 70
   192
  0
VERTEX
  5
DA
  8
METAL
 10
47.62759399414071
 20
-21.59767150878912
 30
9.095146179199219
 70
   192
  0
VERTEX
  5
DB
  8
METAL
 10
47.62759399414071
 20
-21.59767150878912
 30
9.095146179199219
 70
   192
  0
VERTEX
  5
DC
  8
METAL
 10
47.62759399414071
 20
-27.51545715332032
 30
8.345146179199219
 70
   192
  0
VERTEX
  5
DD
  8
METAL
 10
47.62759399414071
 20
-21.34767150878912
 30
8.345146179199219
 70
   192
  0
VERTEX
  5
DE
  8
METAL
 10
47.62759399414071
 20
-27.51545715332032
 30
0.7229270935058594
 70
   192
  0
VERTEX
  5
DF
  8
METAL
 10
47.62759399414071
 20
-21.34767150878912
 30
0.7229270935058594
 70
   192
  0
VERTEX
  5
E0
  8
METAL
 10
47.62759399414071
 20
-27.51545715332032
 30
-8.0
 70
   192
  0
VERTEX
  5
E1
  8
METAL
 10
47.62759399414071
 20
-21.34767150878912
 30
-8.0
 70
   192
  0
VERTEX
  5
E2
  8
METAL
 10
47.62759399414071
 20
-27.26545715332032
 30
-8.75
 70
   192
  0
VERTEX
  5
E3
  8
METAL
 10
47.62759399414071
 20
-27.26545715332032
 30
-8.75
 70
   192
  0
VERTEX
  5
E4
  8
METAL
 10
47.62759399414071
 20
-21.59767150878912
 30
-8.75
 70
   192
  0
VERTEX
  5
E5
  8
METAL
 10
47.62759399414071
 20
-21.59767150878912
 30
-8.75
 70
   192
  0
VERTEX
  5
E6
  8
METAL
 10
47.62759399414071
 20
-26.51545715332032
 30
-9.0
 70
   192
  0
VERTEX
  5
E7
  8
METAL
 10
47.62759399414071
 20
-22.34767150878912
 30
-9.0
 70
   192
  0
VERTEX
  5
E8
  8
METAL
 10
14.54675292968761
 20
-26.34553527832032
 30
9.345146179199219
 70
   192
  0
VERTEX
  5
E9
  8
METAL
 10
14.54675292968761
 20
-22.37037658691412
 30
9.345146179199219
 70
   192
  0
VERTEX
  5
EA
  8
METAL
 10
14.54675292968761
 20
-27.09553527832032
 30
9.095146179199219
 70
   192
  0
VERTEX
  5
EB
  8
METAL
 10
14.54675292968761
 20
-27.09553527832032
 30
9.095146179199219
 70
   192
  0
VERTEX
  5
EC
  8
METAL
 10
14.54675292968761
 20
-21.62037658691412
 30
9.095146179199219
 70
   192
  0
VERTEX
  5
ED
  8
METAL
 10
14.54675292968761
 20
-21.62037658691412
 30
9.095146179199219
 70
   192
  0
VERTEX
  5
EE
  8
METAL
 10
14.54675292968761
 20
-27.34553527832032
 30
8.345146179199219
 70
   192
  0
VERTEX
  5
EF
  8
METAL
 10
14.54675292968761
 20
-21.37037658691412
 30
8.345146179199219
 70
   192
  0
VERTEX
  5
F0
  8
METAL
 10
14.54675292968761
 20
-27.34553527832032
 30
0.7229270935058594
 70
   192
  0
VERTEX
  5
F1
  8
METAL
 10
14.54675292968761
 20
-21.37037658691412
 30
0.7229270935058594
 70
   192
  0
VERTEX
  5
F2
  8
METAL
 10
14.54675292968761
 20
-27.34553527832032
 30
-8.0
 70
   192
  0
VERTEX
  5
F3
  8
METAL
 10
14.54675292968761
 20
-21.37037658691412
 30
-8.0
 70
   192
  0
VERTEX
  5
F4
  8
METAL
 10
14.54675292968761
 20
-27.09553527832032
 30
-8.75
 70
   192
  0
VERTEX
  5
F5
  8
METAL
 10
14.54675292968761
 20
-27.09553527832032
 30
-8.75
 70
   192
  0
VERTEX
  5
F6
  8
METAL
 10
14.54675292968761
 20
-21.62037658691412
 30
-8.75
 70
   192
  0
VERTEX
  5
F7
  8
METAL
 10
14.54675292968761
 20
-21.62037658691412
 30
-8.75
 70
   192
  0
VERTEX
  5
F8
  8
METAL
 10
14.54675292968761
 20
-26.34553527832032
 30
-9.0
 70
   192
  0
VERTEX
  5
F9
  8
METAL
 10
14.54675292968761
 20
-22.37037658691412
 30
-9.0
 70
   192
  0
VERTEX
  5
FA
  8
METAL
 10
0.1835632324219318
 20
-26.25382995605469
 30
9.345146179199219
 70
   192
  0
VERTEX
  5
FB
  8
METAL
 10
0.1835632324219318
 20
-22.15129089355472
 30
9.345146179199219
 70
   192
  0
VERTEX
  5
FC
  8
METAL
 10
0.1835632324219318
 20
-27.00382995605469
 30
9.095146179199219
 70
   192
  0
VERTEX
  5
FD
  8
METAL
 10
0.1835632324219318
 20
-27.00382995605469
 30
9.095146179199219
 70
   192
  0
VERTEX
  5
FE
  8
METAL
 10
0.1835632324219318
 20
-21.40129089355472
 30
9.095146179199219
 70
   192
  0
VERTEX
  5
FF
  8
METAL
 10
0.1835632324219318
 20
-21.40129089355472
 30
9.095146179199219
 70
   192
  0
VERTEX
  5
100
  8
METAL
 10
0.1835632324219318
 20
-27.25382995605469
 30
8.345146179199219
 70
   192
  0
VERTEX
  5
101
  8
METAL
 10
0.1835632324219318
 20
-21.15129089355472
 30
8.345146179199219
 70
   192
  0
VERTEX
  5
102
  8
METAL
 10
0.1835632324219318
 20
-27.25382995605469
 30
0.7229270935058594
 70
   192
  0
VERTEX
  5
103
  8
METAL
 10
0.1835632324219318
 20
-21.15129089355472
 30
0.7229270935058594
 70
   192
  0
VERTEX
  5
104
  8
METAL
 10
0.1835632324219318
 20
-27.25382995605469
 30
-8.0
 70
   192
  0
VERTEX
  5
105
  8
METAL
 10
0.1835632324219318
 20
-21.15129089355472
 30
-8.0
 70
   192
  0
VERTEX
  5
106
  8
METAL
 10
0.1835632324219318
 20
-27.00382995605469
 30
-8.75
 70
   192
  0
VERTEX
  5
107
  8
METAL
 10
0.1835632324219318
 20
-27.00382995605469
 30
-8.75
 70
   192
  0
VERTEX
  5
108
  8
METAL
 10
0.1835632324219318
 20
-21.40129089355472
 30
-8.75
 70
   192
  0
VERTEX
  5
109
  8
METAL
 10
0.1835632324219318
 20
-21.40129089355472
 30
-8.75
 70
   192
  0
VERTEX
  5
10A
  8
METAL
 10
0.1835632324219318
 20
-26.25382995605469
 30
-9.0
 70
   192
  0
VERTEX
  5
10B
  8
METAL
 10
0.1835632324219318
 20
-22.15129089355472
 30
-9.0
 70
   192
  0
VERTEX
  5
10C
  8
METAL
 10
-14.17962646484369
 20
-26.34553527832032
 30
9.345146179199219
 70
   192
  0
VERTEX
  5
10D
  8
METAL
 10
-14.17962646484369
 20
-22.37037658691412
 30
9.345146179199219
 70
   192
  0
VERTEX
  5
10E
  8
METAL
 10
-14.17962646484369
 20
-27.09553527832032
 30
9.095146179199219
 70
   192
  0
VERTEX
  5
10F
  8
METAL
 10
-14.17962646484369
 20
-27.09553527832032
 30
9.095146179199219
 70
   192
  0
VERTEX
  5
110
  8
METAL
 10
-14.17962646484369
 20
-21.62037658691412
 30
9.095146179199219
 70
   192
  0
VERTEX
  5
111
  8
METAL
 10
-14.17962646484369
 20
-21.62037658691412
 30
9.095146179199219
 70
   192
  0
VERTEX
  5
112
  8
METAL
 10
-14.17962646484369
 20
-27.34553527832032
 30
8.345146179199219
 70
   192
  0
VERTEX
  5
113
  8
METAL
 10
-14.17962646484369
 20
-21.37037658691412
 30
8.345146179199219
 70
   192
  0
VERTEX
  5
114
  8
METAL
 10
-14.17962646484369
 20
-27.34553527832032
 30
0.7229270935058594
 70
   192
  0
VERTEX
  5
115
  8
METAL
 10
-14.17962646484369
 20
-21.37037658691412
 30
0.7229270935058594
 70
   192
  0
VERTEX
  5
116
  8
METAL
 10
-14.17962646484369
 20
-27.34553527832032
 30
-8.0
 70
   192
  0
VERTEX
  5
117
  8
METAL
 10
-14.17962646484369
 20
-21.37037658691412
 30
-8.0
 70
   192
  0
VERTEX
  5
118
  8
METAL
 10
-14.17962646484369
 20
-27.09553527832032
 30
-8.75
 70
   192
  0
VERTEX
  5
119
  8
METAL
 10
-14.17962646484369
 20
-27.09553527832032
 30
-8.75
 70
   192
  0
VERTEX
  5
11A
  8
METAL
 10
-14.17962646484369
 20
-21.62037658691412
 30
-8.75
 70
   192
  0
VERTEX
  5
11B
  8
METAL
 10
-14.17962646484369
 20
-21.62037658691412
 30
-8.75
 70
   192
  0
VERTEX
  5
11C
  8
METAL
 10
-14.17962646484369
 20
-26.34553527832032
 30
-9.0
 70
   192
  0
VERTEX
  5
11D
  8
METAL
 10
-14.17962646484369
 20
-22.37037658691412
 30
-9.0
 70
   192
  0
VERTEX
  5
11E
  8
METAL
 10
-47.26046752929682
 20
-26.51545715332032
 30
9.345146179199219
 70
   192
  0
VERTEX
  5
11F
  8
METAL
 10
-47.26046752929682
 20
-22.34767150878912
 30
9.345146179199219
 70
   192
  0
VERTEX
  5
120
  8
METAL
 10
-47.26046752929682
 20
-27.26545715332032
 30
9.095146179199219
 70
   192
  0
VERTEX
  5
121
  8
METAL
 10
-47.26046752929682
 20
-27.26545715332032
 30
9.095146179199219
 70
   192
  0
VERTEX
  5
122
  8
METAL
 10
-47.26046752929682
 20
-21.59767150878912
 30
9.095146179199219
 70
   192
  0
VERTEX
  5
123
  8
METAL
 10
-47.26046752929682
 20
-21.59767150878912
 30
9.095146179199219
 70
   192
  0
VERTEX
  5
124
  8
METAL
 10
-47.26046752929682
 20
-27.51545715332032
 30
8.345146179199219
 70
   192
  0
VERTEX
  5
125
  8
METAL
 10
-47.26046752929682
 20
-21.34767150878912
 30
8.345146179199219
 70
   192
  0
VERTEX
  5
126
  8
METAL
 10
-47.26046752929682
 20
-27.51545715332032
 30
0.7229270935058594
 70
   192
  0
VERTEX
  5
127
  8
METAL
 10
-47.26046752929682
 20
-21.34767150878912
 30
0.7229270935058594
 70
   192
  0
VERTEX
  5
128
  8
METAL
 10
-47.26046752929682
 20
-27.51545715332032
 30
-8.0
 70
   192
  0
VERTEX
  5
129
  8
METAL
 10
-47.26046752929682
 20
-21.34767150878912
 30
-8.0
 70
   192
  0
VERTEX
  5
12A
  8
METAL
 10
-47.26046752929682
 20
-27.26545715332032
 30
-8.75
 70
   192
  0
VERTEX
  5
12B
  8
METAL
 10
-47.26046752929682
 20
-27.26545715332032
 30
-8.75
 70
   192
  0
VERTEX
  5
12C
  8
METAL
 10
-47.26046752929682
 20
-21.59767150878912
 30
-8.75
 70
   192
  0
VERTEX
  5
12D
  8
METAL
 10
-47.26046752929682
 20
-21.59767150878912
 30
-8.75
 70
   192
  0
VERTEX
  5
12E
  8
METAL
 10
-47.26046752929682
 20
-26.51545715332032
 30
-9.0
 70
   192
  0
VERTEX
  5
12F
  8
METAL
 10
-47.26046752929682
 20
-22.34767150878912
 30
-9.0
 70
   192
  0
VERTEX
  5
130
  8
METAL
 10
-80.34130859375
 20
-26.34553527832032
 30
9.345146179199219
 70
   192
  0
VERTEX
  5
131
  8
METAL
 10
-80.34130859375
 20
-22.37037658691412
 30
9.345146179199219
 70
   192
  0
VERTEX
  5
132
  8
METAL
 10
-80.34130859375
 20
-27.09553527832032
 30
9.095146179199219
 70
   192
  0
VERTEX
  5
133
  8
METAL
 10
-80.34130859375
 20
-27.09553527832032
 30
9.095146179199219
 70
   192
  0
VERTEX
  5
134
  8
METAL
 10
-80.34130859375
 20
-21.62037658691412
 30
9.095146179199219
 70
   192
  0
VERTEX
  5
135
  8
METAL
 10
-80.34130859375
 20
-21.62037658691412
 30
9.095146179199219
 70
   192
  0
VERTEX
  5
136
  8
METAL
 10
-80.34130859375
 20
-27.34553527832032
 30
8.345146179199219
 70
   192
  0
VERTEX
  5
137
  8
METAL
 10
-80.34130859375
 20
-21.37037658691412
 30
8.345146179199219
 70
   192
  0
VERTEX
  5
138
  8
METAL
 10
-80.34130859375
 20
-27.34553527832032
 30
0.7229270935058594
 70
   192
  0
VERTEX
  5
139
  8
METAL
 10
-80.34130859375
 20
-21.37037658691412
 30
0.7229270935058594
 70
   192
  0
VERTEX
  5
13A
  8
METAL
 10
-80.34130859375
 20
-27.34553527832032
 30
-8.0
 70
   192
  0
VERTEX
  5
13B
  8
METAL
 10
-80.34130859375
 20
-21.37037658691412
 30
-8.0
 70
   192
  0
VERTEX
  5
13C
  8
METAL
 10
-80.34130859375
 20
-27.09553527832032
 30
-8.75
 70
   192
  0
VERTEX
  5
13D
  8
METAL
 10
-80.34130859375
 20
-27.09553527832032
 30
-8.75
 70
   192
  0
VERTEX
  5
13E
  8
METAL
 10
-80.34130859375
 20
-21.62037658691412
 30
-8.75
 70
   192
  0
VERTEX
  5
13F
  8
METAL
 10
-80.34130859375
 20
-21.62037658691412
 30
-8.75
 70
   192
  0
VERTEX
  5
140
  8
METAL
 10
-80.34130859375
 20
-26.34553527832032
 30
-9.0
 70
   192
  0
VERTEX
  5
141
  8
METAL
 10
-80.34130859375
 20
-22.37037658691412
 30
-9.0
 70
   192
  0
VERTEX
  5
142
  8
METAL
 10
-109.3480834960937
 20
-26.16658020019532
 30
9.345146179199219
 70
   192
  0
VERTEX
  5
143
  8
METAL
 10
-109.3480834960937
 20
-21.94281005859373
 30
9.345146179199219
 70
   192
  0
VERTEX
  5
144
  8
METAL
 10
-109.3480834960937
 20
-26.91658020019532
 30
9.095146179199219
 70
   192
  0
VERTEX
  5
145
  8
METAL
 10
-109.3480834960937
 20
-26.91658020019532
 30
9.095146179199219
 70
   192
  0
VERTEX
  5
146
  8
METAL
 10
-109.3480834960937
 20
-21.19281005859373
 30
9.095146179199219
 70
   192
  0
VERTEX
  5
147
  8
METAL
 10
-109.3480834960937
 20
-21.19281005859373
 30
9.095146179199219
 70
   192
  0
VERTEX
  5
148
  8
METAL
 10
-109.3480834960937
 20
-27.16658020019532
 30
8.345146179199219
 70
   192
  0
VERTEX
  5
149
  8
METAL
 10
-109.3480834960937
 20
-20.94281005859373
 30
8.345146179199219
 70
   192
  0
VERTEX
  5
14A
  8
METAL
 10
-109.3480834960937
 20
-27.16658020019532
 30
0.7229270935058594
 70
   192
  0
VERTEX
  5
14B
  8
METAL
 10
-109.3480834960937
 20
-20.94281005859373
 30
0.7229270935058594
 70
   192
  0
VERTEX
  5
14C
  8
METAL
 10
-109.3480834960937
 20
-27.16658020019532
 30
-8.0
 70
   192
  0
VERTEX
  5
14D
  8
METAL
 10
-109.3480834960937
 20
-20.94281005859372
 30
-8.0
 70
   192
  0
VERTEX
  5
14E
  8
METAL
 10
-109.3480834960937
 20
-26.91658020019532
 30
-8.75
 70
   192
  0
VERTEX
  5
14F
  8
METAL
 10
-109.3480834960937
 20
-26.91658020019532
 30
-8.75
 70
   192
  0
VERTEX
  5
150
  8
METAL
 10
-109.3480834960937
 20
-21.19281005859372
 30
-8.75
 70
   192
  0
VERTEX
  5
151
  8
METAL
 10
-109.3480834960937
 20
-21.19281005859372
 30
-8.75
 70
   192
  0
VERTEX
  5
152
  8
METAL
 10
-109.3480834960937
 20
-26.16658020019532
 30
-9.0
 70
   192
  0
VERTEX
  5
153
  8
METAL
 10
-109.3480834960937
 20
-21.94281005859372
 30
-9.0
 70
   192
  0
VERTEX
  5
154
  8
METAL
 10
-138.3548583984374
 20
-25.47474670410151
 30
9.345146179199219
 70
   192
  0
VERTEX
  5
155
  8
METAL
 10
-138.3548583984374
 20
-21.46051025390623
 30
9.345146179199219
 70
   192
  0
VERTEX
  5
156
  8
METAL
 10
-138.3548583984374
 20
-26.22474670410151
 30
9.095146179199219
 70
   192
  0
VERTEX
  5
157
  8
METAL
 10
-138.3548583984374
 20
-26.22474670410151
 30
9.095146179199219
 70
   192
  0
VERTEX
  5
158
  8
METAL
 10
-138.3548583984374
 20
-20.71051025390623
 30
9.095146179199219
 70
   192
  0
VERTEX
  5
159
  8
METAL
 10
-138.3548583984374
 20
-20.71051025390623
 30
9.095146179199219
 70
   192
  0
VERTEX
  5
15A
  8
METAL
 10
-138.3548583984374
 20
-26.47474670410151
 30
8.345146179199219
 70
   192
  0
VERTEX
  5
15B
  8
METAL
 10
-138.3548583984374
 20
-20.46051025390623
 30
8.345146179199219
 70
   192
  0
VERTEX
  5
15C
  8
METAL
 10
-138.3548583984374
 20
-26.47474670410151
 30
0.7229270935058594
 70
   192
  0
VERTEX
  5
15D
  8
METAL
 10
-138.3548583984374
 20
-20.46051025390623
 30
0.7229270935058594
 70
   192
  0
VERTEX
  5
15E
  8
METAL
 10
-138.3548583984374
 20
-26.47474670410151
 30
-8.0
 70
   192
  0
VERTEX
  5
15F
  8
METAL
 10
-138.3548583984374
 20
-20.46051025390622
 30
-8.0
 70
   192
  0
VERTEX
  5
160
  8
METAL
 10
-138.3548583984374
 20
-26.22474670410151
 30
-8.75
 70
   192
  0
VERTEX
  5
161
  8
METAL
 10
-138.3548583984374
 20
-26.22474670410151
 30
-8.75
 70
   192
  0
VERTEX
  5
162
  8
METAL
 10
-138.3548583984374
 20
-20.71051025390622
 30
-8.75
 70
   192
  0
VERTEX
  5
163
  8
METAL
 10
-138.3548583984374
 20
-20.71051025390622
 30
-8.75
 70
   192
  0
VERTEX
  5
164
  8
METAL
 10
-138.3548583984374
 20
-25.47474670410151
 30
-9.0
 70
   192
  0
VERTEX
  5
165
  8
METAL
 10
-138.3548583984374
 20
-21.46051025390622
 30
-9.0
 70
   192
  0
VERTEX
  5
166
  8
METAL
 10
-150.0494995117187
 20
-19.90481567382813
 30
0.4477500915527415
 70
   192
  0
VERTEX
  5
167
  8
METAL
 10
-150.0494995117187
 20
-19.90481567382813
 30
0.4477500915527415
 70
   192
  0
VERTEX
  5
168
  8
METAL
 10
-150.0494995117187
 20
-19.90481567382813
 30
0.4477500915527415
 70
   192
  0
VERTEX
  5
169
  8
METAL
 10
-151.1525268554687
 20
-19.90481567382813
 30
4.965240478515632
 70
   192
  0
VERTEX
  5
16A
  8
METAL
 10
-151.1525268554687
 20
-19.90481567382813
 30
4.965240478515632
 70
   192
  0
VERTEX
  5
16B
  8
METAL
 10
-151.1525268554687
 20
-19.90481567382812
 30
-4.207332611083977
 70
   192
  0
VERTEX
  5
16C
  8
METAL
 10
-151.1525268554687
 20
-19.90481567382812
 30
-4.207332611083977
 70
   192
  0
VERTEX
  5
16D
  8
METAL
 10
-151.174072265625
 20
-0.0000000000000018
 30
0.4477500915527486
 70
   192
  0
VERTEX
  5
16E
  8
METAL
 10
-151.174072265625
 20
-0.0000000000000018
 30
0.4477500915527486
 70
   192
  0
VERTEX
  5
16F
  8
METAL
 10
-152.2770385742187
 20
-0.0000000000000027
 30
4.965240478515639
 70
   192
  0
VERTEX
  5
170
  8
METAL
 10
-152.2770385742187
 20
-0.0000000000000009
 30
-4.20733261108397
 70
   192
  0
VERTEX
  5
171
  8
METAL
 10
-153.8587036132812
 20
-19.90481567382813
 30
8.54725646972657
 70
   192
  0
VERTEX
  5
172
  8
METAL
 10
-153.8587036132812
 20
-19.90481567382813
 30
8.54725646972657
 70
   192
  0
VERTEX
  5
173
  8
METAL
 10
-153.8587036132812
 20
-19.90481567382813
 30
8.54725646972657
 70
   192
  0
VERTEX
  5
174
  8
METAL
 10
-153.8933410644531
 20
-19.90481567382812
 30
-8.177085876464837
 70
   192
  0
VERTEX
  5
175
  8
METAL
 10
-153.8933410644531
 20
-19.90481567382812
 30
-8.177085876464837
 70
   192
  0
VERTEX
  5
176
  8
METAL
 10
-153.8933410644531
 20
-19.90481567382812
 30
-8.177085876464837
 70
   192
  0
VERTEX
  5
177
  8
METAL
 10
-153.8933410644531
 20
-19.90481567382812
 30
-8.177085876464837
 70
   192
  0
VERTEX
  5
178
  8
METAL
 10
-154.1453857421874
 20
-20.40460205078123
 30
8.946201324462905
 70
   192
  0
VERTEX
  5
179
  8
METAL
 10
-154.1453857421874
 20
-20.40460205078123
 30
8.946201324462905
 70
   192
  0
VERTEX
  5
17A
  8
METAL
 10
-154.1627197265624
 20
-20.40460205078122
 30
-8.588542938232415
 70
   192
  0
VERTEX
  5
17B
  8
METAL
 10
-154.1627197265624
 20
-20.40460205078122
 30
-8.588542938232415
 70
   192
  0
VERTEX
  5
17C
  8
METAL
 10
-154.2913818359374
 20
-25.68118286132813
 30
8.345146179199219
 70
   192
  0
VERTEX
  5
17D
  8
METAL
 10
-154.2913818359374
 20
-25.68118286132813
 30
0.7229270935058594
 70
   192
  0
VERTEX
  5
17E
  8
METAL
 10
-154.2913818359374
 20
-25.68118286132813
 30
-8.0
 70
   192
  0
VERTEX
  5
17F
  8
METAL
 10
-154.2987670898437
 20
-25.43128967285151
 30
9.095146179199219
 70
   192
  0
VERTEX
  5
180
  8
METAL
 10
-154.2987670898437
 20
-25.43128967285151
 30
9.095146179199219
 70
   192
  0
VERTEX
  5
181
  8
METAL
 10
-154.2987670898437
 20
-25.43128967285151
 30
-8.75
 70
   192
  0
VERTEX
  5
182
  8
METAL
 10
-154.2987670898437
 20
-25.43128967285151
 30
-8.75
 70
   192
  0
VERTEX
  5
183
  8
METAL
 10
-154.3208312988281
 20
-24.68161010742191
 30
9.345146179199219
 70
   192
  0
VERTEX
  5
184
  8
METAL
 10
-154.3208312988281
 20
-24.6816101074219
 30
-9.0
 70
   192
  0
VERTEX
  5
185
  8
METAL
 10
-154.4200439453124
 20
-20.15470886230472
 30
-8.588542938232415
 70
   192
  0
VERTEX
  5
186
  8
METAL
 10
-154.4320678710937
 20
-20.90438842773441
 30
9.345146179199219
 70
   192
  0
VERTEX
  5
187
  8
METAL
 10
-154.4320678710937
 20
-20.90438842773441
 30
9.345146179199219
 70
   192
  0
VERTEX
  5
188
  8
METAL
 10
-154.4320678710937
 20
-20.9043884277344
 30
-9.0
 70
   192
  0
VERTEX
  5
189
  8
METAL
 10
-154.4320678710937
 20
-20.9043884277344
 30
-9.0
 70
   192
  0
VERTEX
  5
18A
  8
METAL
 10
-154.6600952148437
 20
-19.90481567382813
 30
8.946201324462905
 70
   192
  0
VERTEX
  5
18B
  8
METAL
 10
-154.6774291992187
 20
-19.90481567382812
 30
-8.588542938232415
 70
   192
  0
VERTEX
  5
18C
  8
METAL
 10
-154.6774291992187
 20
-19.90481567382812
 30
-8.588542938232415
 70
   192
  0
VERTEX
  5
18D
  8
METAL
 10
-154.8034362792968
 20
-20.15470886230472
 30
9.145675659179695
 70
   192
  0
VERTEX
  5
18E
  8
METAL
 10
-154.94677734375
 20
-20.40460205078123
 30
9.345146179199219
 70
   192
  0
VERTEX
  5
18F
  8
METAL
 10
-154.94677734375
 20
-20.40460205078123
 30
9.345146179199219
 70
   192
  0
VERTEX
  5
190
  8
METAL
 10
-154.94677734375
 20
-20.40460205078122
 30
-9.0
 70
   192
  0
VERTEX
  5
191
  8
METAL
 10
-154.94677734375
 20
-20.40460205078122
 30
-9.0
 70
   192
  0
VERTEX
  5
192
  8
METAL
 10
-154.9832458496093
 20
-0.0000000000000036
 30
8.547256469726577
 70
   192
  0
VERTEX
  5
193
  8
METAL
 10
-155.0178833007812
 20
0.0
 30
-8.17708587646483
 70
   192
  0
VERTEX
  5
194
  8
METAL
 10
-155.4614868164062
 20
-19.90481567382813
 30
9.345146179199219
 70
   192
  0
VERTEX
  5
195
  8
METAL
 10
-155.4614868164062
 20
-19.90481567382812
 30
-9.0
 70
   192
  0
VERTEX
  5
196
  8
METAL
 10
-155.4614868164062
 20
-19.90481567382812
 30
-9.0
 70
   192
  0
VERTEX
  5
197
  8
METAL
 10
-155.6853332519531
 20
-0.0000000000000036
 30
9.145675659179702
 70
   192
  0
VERTEX
  5
198
  8
METAL
 10
-155.6940002441406
 20
0.0
 30
-8.79427337646483
 70
   192
  0
VERTEX
  5
199
  8
METAL
 10
-156.5860595703124
 20
-0.0000000000000036
 30
9.345146179199226
 70
   192
  0
VERTEX
  5
19A
  8
METAL
 10
-156.5860595703124
 20
0.0
 30
-8.999999999999993
 70
   192
  0
VERTEX
  5
19B
  8
METAL
 10
-165.0157470703124
 20
-24.96775817871091
 30
8.345146179199219
 70
   192
  0
VERTEX
  5
19C
  8
METAL
 10
-165.0157470703124
 20
-24.96775817871091
 30
0.7229270935058594
 70
   192
  0
VERTEX
  5
19D
  8
METAL
 10
-165.0157470703124
 20
-24.96775817871091
 30
-8.0
 70
   192
  0
VERTEX
  5
19E
  8
METAL
 10
-165.0264587402343
 20
-24.71578979492191
 30
9.095146179199219
 70
   192
  0
VERTEX
  5
19F
  8
METAL
 10
-165.0264587402343
 20
-24.71578979492191
 30
9.095146179199219
 70
   192
  0
VERTEX
  5
1A0
  8
METAL
 10
-165.0315551757812
 20
-24.7161560058594
 30
-8.75
 70
   192
  0
VERTEX
  5
1A1
  8
METAL
 10
-165.0315551757812
 20
-24.7161560058594
 30
-8.75
 70
   192
  0
VERTEX
  5
1A2
  8
METAL
 10
-165.0790100097656
 20
-23.96134948730472
 30
9.345146179199219
 70
   192
  0
VERTEX
  5
1A3
  8
METAL
 10
-165.0790100097656
 20
-23.96134948730472
 30
-9.0
 70
   192
  0
VERTEX
  5
1A4
  8
METAL
 10
-165.37548828125
 20
-19.90481567382813
 30
9.345146179199219
 70
   192
  0
VERTEX
  5
1A5
  8
METAL
 10
-165.37548828125
 20
-19.90481567382812
 30
-9.0
 70
   192
  0
VERTEX
  5
1A6
  8
METAL
 10
-165.6063842773437
 20
-24.49180603027341
 30
-8.75
 70
   192
  0
VERTEX
  5
1A7
  8
METAL
 10
-165.6063842773437
 20
-24.49180603027341
 30
-8.75
 70
   192
  0
VERTEX
  5
1A8
  8
METAL
 10
-165.6063842773437
 20
-24.49180603027341
 30
-8.75
 70
   192
  0
VERTEX
  5
1A9
  8
METAL
 10
-165.7821655273437
 20
-24.66862487792972
 30
8.345146179199219
 70
   192
  0
VERTEX
  5
1AA
  8
METAL
 10
-165.7821655273437
 20
-24.66862487792972
 30
8.345146179199219
 70
   192
  0
VERTEX
  5
1AB
  8
METAL
 10
-165.7821655273437
 20
-24.66864013671873
 30
0.7229270935058594
 70
   192
  0
VERTEX
  5
1AC
  8
METAL
 10
-165.7821655273437
 20
-24.66864013671873
 30
0.7229270935058594
 70
   192
  0
VERTEX
  5
1AD
  8
METAL
 10
-165.7821655273437
 20
-24.66864013671872
 30
-8.0
 70
   192
  0
VERTEX
  5
1AE
  8
METAL
 10
-165.7821655273437
 20
-24.66864013671872
 30
-8.0
 70
   192
  0
VERTEX
  5
1AF
  8
METAL
 10
-165.7939758300781
 20
-24.47930908203123
 30
8.907646179199219
 70
   192
  0
VERTEX
  5
1B0
  8
METAL
 10
-165.7939758300781
 20
-24.47930908203123
 30
8.907646179199219
 70
   192
  0
VERTEX
  5
1B1
  8
METAL
 10
-165.7939758300781
 20
-24.47930908203123
 30
8.907646179199219
 70
   192
  0
VERTEX
  5
1B2
  8
METAL
 10
-165.8341064453124
 20
-23.9183349609375
 30
-8.75
 70
   192
  0
VERTEX
  5
1B3
  8
METAL
 10
-165.8341064453124
 20
-23.9183349609375
 30
-8.75
 70
   192
  0
VERTEX
  5
1B4
  8
METAL
 10
-165.83447265625
 20
-23.91328430175782
 30
9.095146179199219
 70
   192
  0
VERTEX
  5
1B5
  8
METAL
 10
-165.83447265625
 20
-23.91328430175782
 30
9.095146179199219
 70
   192
  0
VERTEX
  5
1B6
  8
METAL
 10
-166.0857849121093
 20
-23.90399169921873
 30
8.345146179199219
 70
   192
  0
VERTEX
  5
1B7
  8
METAL
 10
-166.0857849121093
 20
-23.90399169921873
 30
0.7229270935058594
 70
   192
  0
VERTEX
  5
1B8
  8
METAL
 10
-166.0857849121093
 20
-23.90399169921872
 30
-8.0
 70
   192
  0
VERTEX
  5
1B9
  8
METAL
 10
-166.12548828125
 20
-19.90481567382813
 30
9.095146179199219
 70
   192
  0
VERTEX
  5
1BA
  8
METAL
 10
-166.12548828125
 20
-19.90481567382813
 30
9.095146179199219
 70
   192
  0
VERTEX
  5
1BB
  8
METAL
 10
-166.12548828125
 20
-19.90481567382812
 30
-8.75
 70
   192
  0
VERTEX
  5
1BC
  8
METAL
 10
-166.12548828125
 20
-19.90481567382812
 30
-8.75
 70
   192
  0
VERTEX
  5
1BD
  8
METAL
 10
-166.37548828125
 20
-19.90481567382813
 30
8.345146179199219
 70
   192
  0
VERTEX
  5
1BE
  8
METAL
 10
-166.37548828125
 20
-19.90481567382813
 30
0.7229270935058594
 70
   192
  0
VERTEX
  5
1BF
  8
METAL
 10
-166.37548828125
 20
-19.90481567382812
 30
-8.0
 70
   192
  0
VERTEX
  5
1C0
  8
METAL
 10
-166.5
 20
-0.0000000000000036
 30
9.345146179199226
 70
   192
  0
VERTEX
  5
1C1
  8
METAL
 10
-166.5
 20
0.0
 30
-8.999999999999993
 70
   192
  0
VERTEX
  5
1C2
  8
METAL
 10
-167.25
 20
-0.0000000000000036
 30
9.095146179199226
 70
   192
  0
VERTEX
  5
1C3
  8
METAL
 10
-167.25
 20
-0.0000000000000036
 30
9.095146179199226
 70
   192
  0
VERTEX
  5
1C4
  8
METAL
 10
-167.25
 20
0.0
 30
-8.749999999999993
 70
   192
  0
VERTEX
  5
1C5
  8
METAL
 10
-167.25
 20
0.0
 30
-8.749999999999993
 70
   192
  0
VERTEX
  5
1C6
  8
METAL
 10
-167.5
 20
-0.0000000000000036
 30
8.345146179199226
 70
   192
  0
VERTEX
  5
1C7
  8
METAL
 10
-167.5
 20
-0.0000000000000018
 30
0.7229270935058665
 70
   192
  0
VERTEX
  5
1C8
  8
METAL
 10
-167.5
 20
0.0
 30
-7.999999999999993
 70
   192
  0
VERTEX
  5
1C9
  8
METAL
 10
0.0
 20
0.0
 30
0.0
 70
   128
 71
   254
 72
   252
 73
   270
 74
   272
  0
VERTEX
  5
1CA
  8
METAL
 10
0.0
 20
0.0
 30
0.0
 70
   128
 71
   251
 72
   253
 73
   271
 74
   269
  0
VERTEX
  5
1CB
  8
METAL
 10
0.0
 20
0.0
 30
0.0
 70
   128
 71
   261
 72
   260
 73
   278
 74
   279
  0
VERTEX
  5
1CC
  8
METAL
 10
0.0
 20
0.0
 30
0.0
 70
   128
 71
   385
 72
   386
 73
   379
 74
   378
  0
VERTEX
  5
1CD
  8
METAL
 10
0.0
 20
0.0
 30
0.0
 70
   128
 71
   320
 72
   321
 73
   288
 74
   286
  0
VERTEX
  5
1CE
  8
METAL
 10
0.0
 20
0.0
 30
0.0
 70
   128
 71
   286
 72
   288
 73
   270
 74
   268
  0
VERTEX
  5
1CF
  8
METAL
 10
0.0
 20
0.0
 30
0.0
 70
   128
 71
   291
 72
   314
 73
   304
 74
   289
  0
VERTEX
  5
1D0
  8
METAL
 10
0.0
 20
0.0
 30
0.0
 70
   128
 71
   291
 72
   289
 73
   271
 74
   273
  0
VERTEX
  5
1D1
  8
METAL
 10
0.0
 20
0.0
 30
0.0
 70
   128
 71
   328
 72
   333
 73
   297
 74
   296
  0
VERTEX
  5
1D2
  8
METAL
 10
0.0
 20
0.0
 30
0.0
 70
   128
 71
   296
 72
   297
 73
   279
 74
   278
  0
VERTEX
  5
1D3
  8
METAL
 10
0.0
 20
0.0
 30
0.0
 70
   128
 71
   281
 72
   331
 73
   327
 74
   280
  0
VERTEX
  5
1D4
  8
METAL
 10
0.0
 20
0.0
 30
0.0
 70
   128
 71
   281
 72
   280
 73
   262
 74
   263
  0
VERTEX
  5
1D5
  8
METAL
 10
0.0
 20
0.0
 30
0.0
 70
   128
 71
   263
 72
   262
 73
   244
 74
   245
  0
VERTEX
  5
1D6
  8
METAL
 10
0.0
 20
0.0
 30
0.0
 70
   128
 71
   351
 72
   352
 73
   321
 74
   320
  0
VERTEX
  5
1D7
  8
METAL
 10
0.0
 20
0.0
 30
0.0
 70
   128
 71
   328
 72
   359
 73
   341
 74
   333
  0
VERTEX
  5
1D8
  8
METAL
 10
0.0
 20
0.0
 30
0.0
 70
   128
 71
   339
 72
   358
 73
   327
 74
   331
  0
VERTEX
  5
1D9
  8
METAL
 10
0.0
 20
0.0
 30
0.0
 70
   128
 71
   386
 72
   395
 73
   396
 74
   387
  0
VERTEX
  5
1DA
  8
METAL
 10
0.0
 20
0.0
 30
0.0
 70
   128
 71
   360
 72
   344
 73
   349
 74
   388
  0
VERTEX
  5
1DB
  8
METAL
 10
0.0
 20
0.0
 30
0.0
 70
   128
 71
   346
 72
   361
 73
   389
 74
   350
  0
VERTEX
  5
1DC
  8
METAL
 10
0.0
 20
0.0
 30
0.0
 70
   128
 71
   250
 72
   268
 73
   270
 74
   252
  0
VERTEX
  5
1DD
  8
METAL
 10
0.0
 20
0.0
 30
0.0
 70
   128
 71
   255
 72
   273
 73
   271
 74
   253
  0
VERTEX
  5
1DE
  8
METAL
 10
0.0
 20
0.0
 30
0.0
 70
   128
 71
   387
 72
   380
 73
   379
 74
   386
  0
VERTEX
  5
1DF
  8
METAL
 10
0.0
 20
0.0
 30
0.0
 70
   128
 71
   322
 72
   290
 73
   288
 74
   321
  0
VERTEX
  5
1E0
  8
METAL
 10
0.0
 20
0.0
 30
0.0
 70
   128
 71
   290
 72
   272
 73
   270
 74
   288
  0
VERTEX
  5
1E1
  8
METAL
 10
0.0
 20
0.0
 30
0.0
 70
   128
 71
   287
 72
   269
 73
   271
 74
   289
  0
VERTEX
  5
1E2
  8
METAL
 10
0.0
 20
0.0
 30
0.0
 70
   128
 71
   353
 72
   322
 73
   321
 74
   352
  0
VERTEX
  5
1E3
  8
METAL
 10
0.0
 20
0.0
 30
0.0
 70
   128
 71
   385
 72
   394
 73
   395
 74
   386
  0
VERTEX
  5
1E4
  8
METAL
 10
0.0
 20
0.0
 30
0.0
 70
   128
 71
   307
 72
   342
 73
   309
 74
   301
  0
VERTEX
  5
1E5
  8
METAL
 10
0.0
 20
0.0
 30
0.0
 70
   128
 71
   306
 72
   307
 73
   301
 74
   299
  0
VERTEX
  5
1E6
  8
METAL
 10
0.0
 20
0.0
 30
0.0
 70
   128
 71
   308
 72
   305
 73
   298
 74
   303
  0
VERTEX
  5
1E7
  8
METAL
 10
0.0
 20
0.0
 30
0.0
 70
   128
 71
   343
 72
   308
 73
   303
 74
   312
  0
VERTEX
  5
1E8
  8
METAL
 10
0.0
 20
0.0
 30
0.0
 70
   128
 71
   300
 72
   302
 73
   289
 74
   289
  0
VERTEX
  5
1E9
  8
METAL
 10
0.0
 20
0.0
 30
0.0
 70
   128
 71
   304
 72
   300
 73
   289
 74
   289
  0
VERTEX
  5
1EA
  8
METAL
 10
0.0
 20
0.0
 30
0.0
 70
   128
 71
   302
 72
   310
 73
   287
 74
   289
  0
VERTEX
  5
1EB
  8
METAL
 10
0.0
 20
0.0
 30
0.0
 70
   128
 71
   359
 72
   362
 73
   374
 74
   374
  0
VERTEX
  5
1EC
  8
METAL
 10
0.0
 20
0.0
 30
0.0
 70
   128
 71
   378
 72
   373
 73
   377
 74
   377
  0
VERTEX
  5
1ED
  8
METAL
 10
0.0
 20
0.0
 30
0.0
 70
   128
 71
   344
 72
   337
 73
   334
 74
   334
  0
VERTEX
  5
1EE
  8
METAL
 10
0.0
 20
0.0
 30
0.0
 70
   128
 71
   340
 72
   345
 73
   335
 74
   329
  0
VERTEX
  5
1EF
  8
METAL
 10
0.0
 20
0.0
 30
0.0
 70
   128
 71
   257
 72
   254
 73
   272
 74
   275
  0
VERTEX
  5
1F0
  8
METAL
 10
0.0
 20
0.0
 30
0.0
 70
   128
 71
   248
 72
   251
 73
   269
 74
   266
  0
VERTEX
  5
1F1
  8
METAL
 10
0.0
 20
0.0
 30
0.0
 70
   128
 71
   259
 72
   261
 73
   279
 74
   277
  0
VERTEX
  5
1F2
  8
METAL
 10
0.0
 20
0.0
 30
0.0
 70
   128
 71
   382
 72
   385
 73
   378
 74
   377
  0
VERTEX
  5
1F3
  8
METAL
 10
0.0
 20
0.0
 30
0.0
 70
   128
 71
   366
 72
   378
 73
   379
 74
   368
  0
VERTEX
  5
1F4
  8
METAL
 10
0.0
 20
0.0
 30
0.0
 70
   128
 71
   324
 72
   320
 73
   286
 74
   283
  0
VERTEX
  5
1F5
  8
METAL
 10
0.0
 20
0.0
 30
0.0
 70
   128
 71
   283
 72
   286
 73
   268
 74
   265
  0
VERTEX
  5
1F6
  8
METAL
 10
0.0
 20
0.0
 30
0.0
 70
   128
 71
   319
 72
   315
 73
   291
 74
   294
  0
VERTEX
  5
1F7
  8
METAL
 10
0.0
 20
0.0
 30
0.0
 70
   128
 71
   294
 72
   291
 73
   273
 74
   276
  0
VERTEX
  5
1F8
  8
METAL
 10
0.0
 20
0.0
 30
0.0
 70
   128
 71
   325
 72
   328
 73
   296
 74
   292
  0
VERTEX
  5
1F9
  8
METAL
 10
0.0
 20
0.0
 30
0.0
 70
   128
 71
   292
 72
   296
 73
   278
 74
   274
  0
VERTEX
  5
1FA
  8
METAL
 10
0.0
 20
0.0
 30
0.0
 70
   128
 71
   316
 72
   330
 73
   281
 74
   285
  0
VERTEX
  5
1FB
  8
METAL
 10
0.0
 20
0.0
 30
0.0
 70
   128
 71
   285
 72
   281
 73
   263
 74
   267
  0
VERTEX
  5
1FC
  8
METAL
 10
0.0
 20
0.0
 30
0.0
 70
   128
 71
   246
 72
   244
 73
   262
 74
   264
  0
VERTEX
  5
1FD
  8
METAL
 10
0.0
 20
0.0
 30
0.0
 70
   128
 71
   354
 72
   351
 73
   320
 74
   324
  0
VERTEX
  5
1FE
  8
METAL
 10
0.0
 20
0.0
 30
0.0
 70
   128
 71
   356
 72
   359
 73
   328
 74
   325
  0
VERTEX
  5
1FF
  8
METAL
 10
0.0
 20
0.0
 30
0.0
 70
   128
 71
   383
 72
   361
 73
   359
 74
   374
  0
VERTEX
  5
200
  8
METAL
 10
0.0
 20
0.0
 30
0.0
 70
   128
 71
   384
 72
   387
 73
   396
 74
   393
  0
VERTEX
  5
201
  8
METAL
 10
0.0
 20
0.0
 30
0.0
 70
   128
 71
   347
 72
   349
 73
   344
 74
   334
  0
VERTEX
  5
202
  8
METAL
 10
0.0
 20
0.0
 30
0.0
 70
   128
 71
   381
 72
   360
 73
   388
 74
   390
  0
VERTEX
  5
203
  8
METAL
 10
0.0
 20
0.0
 30
0.0
 70
   128
 71
   336
 72
   346
 73
   350
 74
   348
  0
VERTEX
  5
204
  8
METAL
 10
0.0
 20
0.0
 30
0.0
 70
   128
 71
   368
 72
   379
 73
   380
 74
   370
  0
VERTEX
  5
205
  8
METAL
 10
0.0
 20
0.0
 30
0.0
 70
   128
 71
   257
 72
   239
 73
   236
 74
   254
  0
VERTEX
  5
206
  8
METAL
 10
0.0
 20
0.0
 30
0.0
 70
   128
 71
   248
 72
   231
 73
   233
 74
   251
  0
VERTEX
  5
207
  8
METAL
 10
0.0
 20
0.0
 30
0.0
 70
   128
 71
   359
 72
   356
 73
   362
 74
   362
  0
VERTEX
  5
208
  8
METAL
 10
0.0
 20
0.0
 30
0.0
 70
   128
 71
   369
 72
   363
 73
   357
 74
   353
  0
VERTEX
  5
209
  8
METAL
 10
0.0
 20
0.0
 30
0.0
 70
   128
 71
   380
 72
   375
 73
   364
 74
   370
  0
VERTEX
  5
20A
  8
METAL
 10
0.0
 20
0.0
 30
0.0
 70
   128
 71
   378
 72
   366
 73
   373
 74
   373
  0
VERTEX
  5
20B
  8
METAL
 10
0.0
 20
0.0
 30
0.0
 70
   128
 71
   354
 72
   372
 73
   365
 74
   351
  0
VERTEX
  5
20C
  8
METAL
 10
0.0
 20
0.0
 30
0.0
 70
   128
 71
   358
 72
   376
 73
   371
 74
   355
  0
VERTEX
  5
20D
  8
METAL
 10
0.0
 20
0.0
 30
0.0
 70
   128
 71
   344
 72
   338
 73
   337
 74
   337
  0
VERTEX
  5
20E
  8
METAL
 10
0.0
 20
0.0
 30
0.0
 70
   128
 71
   316
 72
   337
 73
   338
 74
   330
  0
VERTEX
  5
20F
  8
METAL
 10
0.0
 20
0.0
 30
0.0
 70
   128
 71
   309
 72
   334
 73
   337
 74
   316
  0
VERTEX
  5
210
  8
METAL
 10
0.0
 20
0.0
 30
0.0
 70
   128
 71
   260
 72
   256
 73
   274
 74
   278
  0
VERTEX
  5
211
  8
METAL
 10
0.0
 20
0.0
 30
0.0
 70
   128
 71
   245
 72
   249
 73
   267
 74
   263
  0
VERTEX
  5
212
  8
METAL
 10
0.0
 20
0.0
 30
0.0
 70
   128
 71
   255
 72
   258
 73
   276
 74
   273
  0
VERTEX
  5
213
  8
METAL
 10
0.0
 20
0.0
 30
0.0
 70
   128
 71
   360
 72
   381
 73
   376
 74
   358
  0
VERTEX
  5
214
  8
METAL
 10
0.0
 20
0.0
 30
0.0
 70
   128
 71
   351
 72
   365
 73
   367
 74
   352
  0
VERTEX
  5
215
  8
METAL
 10
0.0
 20
0.0
 30
0.0
 70
   128
 71
   327
 72
   323
 73
   282
 74
   280
  0
VERTEX
  5
216
  8
METAL
 10
0.0
 20
0.0
 30
0.0
 70
   128
 71
   280
 72
   282
 73
   264
 74
   262
  0
VERTEX
  5
217
  8
METAL
 10
0.0
 20
0.0
 30
0.0
 70
   128
 71
   332
 72
   318
 73
   295
 74
   297
  0
VERTEX
  5
218
  8
METAL
 10
0.0
 20
0.0
 30
0.0
 70
   128
 71
   297
 72
   295
 73
   277
 74
   279
  0
VERTEX
  5
219
  8
METAL
 10
0.0
 20
0.0
 30
0.0
 70
   128
 71
   322
 72
   326
 73
   293
 74
   290
  0
VERTEX
  5
21A
  8
METAL
 10
0.0
 20
0.0
 30
0.0
 70
   128
 71
   290
 72
   293
 73
   275
 74
   272
  0
VERTEX
  5
21B
  8
METAL
 10
0.0
 20
0.0
 30
0.0
 70
   128
 71
   311
 72
   317
 73
   284
 74
   287
  0
VERTEX
  5
21C
  8
METAL
 10
0.0
 20
0.0
 30
0.0
 70
   128
 71
   287
 72
   284
 73
   266
 74
   269
  0
VERTEX
  5
21D
  8
METAL
 10
0.0
 20
0.0
 30
0.0
 70
   128
 71
   250
 72
   247
 73
   265
 74
   268
  0
VERTEX
  5
21E
  8
METAL
 10
0.0
 20
0.0
 30
0.0
 70
   128
 71
   358
 72
   355
 73
   323
 74
   327
  0
VERTEX
  5
21F
  8
METAL
 10
0.0
 20
0.0
 30
0.0
 70
   128
 71
   353
 72
   357
 73
   326
 74
   322
  0
VERTEX
  5
220
  8
METAL
 10
0.0
 20
0.0
 30
0.0
 70
   128
 71
   387
 72
   384
 73
   375
 74
   380
  0
VERTEX
  5
221
  8
METAL
 10
0.0
 20
0.0
 30
0.0
 70
   128
 71
   361
 72
   383
 73
   392
 74
   389
  0
VERTEX
  5
222
  8
METAL
 10
0.0
 20
0.0
 30
0.0
 70
   128
 71
   342
 72
   347
 73
   334
 74
   309
  0
VERTEX
  5
223
  8
METAL
 10
0.0
 20
0.0
 30
0.0
 70
   128
 71
   385
 72
   382
 73
   391
 74
   394
  0
VERTEX
  5
224
  8
METAL
 10
0.0
 20
0.0
 30
0.0
 70
   128
 71
   312
 72
   336
 73
   348
 74
   343
  0
VERTEX
  5
225
  8
METAL
 10
0.0
 20
0.0
 30
0.0
 70
   128
 71
   352
 72
   367
 73
   369
 74
   353
  0
VERTEX
  5
226
  8
METAL
 10
0.0
 20
0.0
 30
0.0
 70
   128
 71
   255
 72
   237
 73
   240
 74
   258
  0
VERTEX
  5
227
  8
METAL
 10
0.0
 20
0.0
 30
0.0
 70
   128
 71
   361
 72
   346
 73
   341
 74
   359
  0
VERTEX
  5
228
  8
METAL
 10
0.0
 20
0.0
 30
0.0
 70
   128
 71
   344
 72
   360
 73
   358
 74
   339
  0
VERTEX
  5
229
  8
METAL
 10
0.0
 20
0.0
 30
0.0
 70
   128
 71
   340
 72
   329
 73
   318
 74
   332
  0
VERTEX
  5
22A
  8
METAL
 10
0.0
 20
0.0
 30
0.0
 70
   128
 71
   335
 72
   313
 73
   329
 74
   329
  0
VERTEX
  5
22B
  8
METAL
 10
0.0
 20
0.0
 30
0.0
 70
   128
 71
   329
 72
   313
 73
   318
 74
   318
  0
VERTEX
  5
22C
  8
METAL
 10
0.0
 20
0.0
 30
0.0
 70
   128
 71
   252
 72
   254
 73
   236
 74
   234
  0
VERTEX
  5
22D
  8
METAL
 10
0.0
 20
0.0
 30
0.0
 70
   128
 71
   253
 72
   251
 73
   233
 74
   235
  0
VERTEX
  5
22E
  8
METAL
 10
0.0
 20
0.0
 30
0.0
 70
   128
 71
   261
 72
   243
 73
   242
 74
   260
  0
VERTEX
  5
22F
  8
METAL
 10
0.0
 20
0.0
 30
0.0
 70
   128
 71
   227
 72
   245
 73
   244
 74
   226
  0
VERTEX
  5
230
  8
METAL
 10
0.0
 20
0.0
 30
0.0
 70
   128
 71
   250
 72
   252
 73
   234
 74
   232
  0
VERTEX
  5
231
  8
METAL
 10
0.0
 20
0.0
 30
0.0
 70
   128
 71
   255
 72
   253
 73
   235
 74
   237
  0
VERTEX
  5
232
  8
METAL
 10
0.0
 20
0.0
 30
0.0
 70
   128
 71
   261
 72
   259
 73
   241
 74
   243
  0
VERTEX
  5
233
  8
METAL
 10
0.0
 20
0.0
 30
0.0
 70
   128
 71
   244
 72
   246
 73
   228
 74
   226
  0
VERTEX
  5
234
  8
METAL
 10
0.0
 20
0.0
 30
0.0
 70
   128
 71
   256
 72
   260
 73
   242
 74
   238
  0
VERTEX
  5
235
  8
METAL
 10
0.0
 20
0.0
 30
0.0
 70
   128
 71
   230
 72
   249
 73
   245
 74
   227
  0
VERTEX
  5
236
  8
METAL
 10
0.0
 20
0.0
 30
0.0
 70
   128
 71
   247
 72
   250
 73
   232
 74
   229
  0
VERTEX
  5
237
  8
METAL
 10
0.0
 20
0.0
 30
0.0
 70
   128
 71
   209
 72
   208
 73
   190
 74
   191
  0
VERTEX
  5
238
  8
METAL
 10
0.0
 20
0.0
 30
0.0
 70
   128
 71
   198
 72
   196
 73
   214
 74
   216
  0
VERTEX
  5
239
  8
METAL
 10
0.0
 20
0.0
 30
0.0
 70
   128
 71
   199
 72
   201
 73
   219
 74
   217
  0
VERTEX
  5
23A
  8
METAL
 10
0.0
 20
0.0
 30
0.0
 70
   128
 71
   236
 72
   239
 73
   220
 74
   218
  0
VERTEX
  5
23B
  8
METAL
 10
0.0
 20
0.0
 30
0.0
 70
   128
 71
   233
 72
   231
 73
   212
 74
   215
  0
VERTEX
  5
23C
  8
METAL
 10
0.0
 20
0.0
 30
0.0
 70
   128
 71
   240
 72
   237
 73
   219
 74
   223
  0
VERTEX
  5
23D
  8
METAL
 10
0.0
 20
0.0
 30
0.0
 70
   128
 71
   236
 72
   218
 73
   216
 74
   234
  0
VERTEX
  5
23E
  8
METAL
 10
0.0
 20
0.0
 30
0.0
 70
   128
 71
   233
 72
   215
 73
   217
 74
   235
  0
VERTEX
  5
23F
  8
METAL
 10
0.0
 20
0.0
 30
0.0
 70
   128
 71
   242
 72
   243
 73
   225
 74
   224
  0
VERTEX
  5
240
  8
METAL
 10
0.0
 20
0.0
 30
0.0
 70
   128
 71
   227
 72
   226
 73
   208
 74
   209
  0
VERTEX
  5
241
  8
METAL
 10
0.0
 20
0.0
 30
0.0
 70
   128
 71
   234
 72
   216
 73
   214
 74
   232
  0
VERTEX
  5
242
  8
METAL
 10
0.0
 20
0.0
 30
0.0
 70
   128
 71
   235
 72
   217
 73
   219
 74
   237
  0
VERTEX
  5
243
  8
METAL
 10
0.0
 20
0.0
 30
0.0
 70
   128
 71
   241
 72
   222
 73
   225
 74
   243
  0
VERTEX
  5
244
  8
METAL
 10
0.0
 20
0.0
 30
0.0
 70
   128
 71
   228
 72
   211
 73
   208
 74
   226
  0
VERTEX
  5
245
  8
METAL
 10
0.0
 20
0.0
 30
0.0
 70
   128
 71
   242
 72
   224
 73
   221
 74
   238
  0
VERTEX
  5
246
  8
METAL
 10
0.0
 20
0.0
 30
0.0
 70
   128
 71
   230
 72
   227
 73
   209
 74
   213
  0
VERTEX
  5
247
  8
METAL
 10
0.0
 20
0.0
 30
0.0
 70
   128
 71
   232
 72
   214
 73
   210
 74
   229
  0
VERTEX
  5
248
  8
METAL
 10
0.0
 20
0.0
 30
0.0
 70
   128
 71
   216
 72
   218
 73
   200
 74
   198
  0
VERTEX
  5
249
  8
METAL
 10
0.0
 20
0.0
 30
0.0
 70
   128
 71
   217
 72
   215
 73
   197
 74
   199
  0
VERTEX
  5
24A
  8
METAL
 10
0.0
 20
0.0
 30
0.0
 70
   128
 71
   206
 72
   224
 73
   225
 74
   207
  0
VERTEX
  5
24B
  8
METAL
 10
0.0
 20
0.0
 30
0.0
 70
   128
 71
   218
 72
   220
 73
   202
 74
   200
  0
VERTEX
  5
24C
  8
METAL
 10
0.0
 20
0.0
 30
0.0
 70
   128
 71
   215
 72
   212
 73
   195
 74
   197
  0
VERTEX
  5
24D
  8
METAL
 10
0.0
 20
0.0
 30
0.0
 70
   128
 71
   225
 72
   222
 73
   204
 74
   207
  0
VERTEX
  5
24E
  8
METAL
 10
0.0
 20
0.0
 30
0.0
 70
   128
 71
   208
 72
   211
 73
   193
 74
   190
  0
VERTEX
  5
24F
  8
METAL
 10
0.0
 20
0.0
 30
0.0
 70
   128
 71
   221
 72
   224
 73
   206
 74
   203
  0
VERTEX
  5
250
  8
METAL
 10
0.0
 20
0.0
 30
0.0
 70
   128
 71
   213
 72
   209
 73
   191
 74
   194
  0
VERTEX
  5
251
  8
METAL
 10
0.0
 20
0.0
 30
0.0
 70
   128
 71
   223
 72
   219
 73
   201
 74
   205
  0
VERTEX
  5
252
  8
METAL
 10
0.0
 20
0.0
 30
0.0
 70
   128
 71
   210
 72
   214
 73
   196
 74
   192
  0
VERTEX
  5
253
  8
METAL
 10
0.0
 20
0.0
 30
0.0
 70
   128
 71
   146
 72
   128
 73
   126
 74
   144
  0
VERTEX
  5
254
  8
METAL
 10
0.0
 20
0.0
 30
0.0
 70
   128
 71
   143
 72
   125
 73
   127
 74
   145
  0
VERTEX
  5
255
  8
METAL
 10
0.0
 20
0.0
 30
0.0
 70
   128
 71
   153
 72
   135
 73
   134
 74
   152
  0
VERTEX
  5
256
  8
METAL
 10
0.0
 20
0.0
 30
0.0
 70
   128
 71
    10
 72
    17
 73
    18
 74
    11
  0
VERTEX
  5
257
  8
METAL
 10
0.0
 20
0.0
 30
0.0
 70
   128
 71
    75
 72
   106
 73
   108
 74
    76
  0
VERTEX
  5
258
  8
METAL
 10
0.0
 20
0.0
 30
0.0
 70
   128
 71
   106
 72
   124
 73
   126
 74
   108
  0
VERTEX
  5
259
  8
METAL
 10
0.0
 20
0.0
 30
0.0
 70
   128
 71
   111
 72
   109
 73
    95
 74
    83
  0
VERTEX
  5
25A
  8
METAL
 10
0.0
 20
0.0
 30
0.0
 70
   128
 71
   111
 72
   129
 73
   127
 74
   109
  0
VERTEX
  5
25B
  8
METAL
 10
0.0
 20
0.0
 30
0.0
 70
   128
 71
    70
 72
   116
 73
   117
 74
    66
  0
VERTEX
  5
25C
  8
METAL
 10
0.0
 20
0.0
 30
0.0
 70
   128
 71
   116
 72
   134
 73
   135
 74
   117
  0
VERTEX
  5
25D
  8
METAL
 10
0.0
 20
0.0
 30
0.0
 70
   128
 71
   101
 72
   100
 73
    69
 74
    64
  0
VERTEX
  5
25E
  8
METAL
 10
0.0
 20
0.0
 30
0.0
 70
   128
 71
   101
 72
   119
 73
   118
 74
   100
  0
VERTEX
  5
25F
  8
METAL
 10
0.0
 20
0.0
 30
0.0
 70
   128
 71
   119
 72
   137
 73
   136
 74
   118
  0
VERTEX
  5
260
  8
METAL
 10
0.0
 20
0.0
 30
0.0
 70
   128
 71
    44
 72
    75
 73
    76
 74
    45
  0
VERTEX
  5
261
  8
METAL
 10
0.0
 20
0.0
 30
0.0
 70
   128
 71
    70
 72
    66
 73
    58
 74
    39
  0
VERTEX
  5
262
  8
METAL
 10
0.0
 20
0.0
 30
0.0
 70
   128
 71
    56
 72
    64
 73
    69
 74
    38
  0
VERTEX
  5
263
  8
METAL
 10
0.0
 20
0.0
 30
0.0
 70
   128
 71
    11
 72
    12
 73
     3
 74
     2
  0
VERTEX
  5
264
  8
METAL
 10
0.0
 20
0.0
 30
0.0
 70
   128
 71
    36
 72
     8
 73
    47
 74
    51
  0
VERTEX
  5
265
  8
METAL
 10
0.0
 20
0.0
 30
0.0
 70
   128
 71
    52
 72
    48
 73
     9
 74
    37
  0
VERTEX
  5
266
  8
METAL
 10
0.0
 20
0.0
 30
0.0
 70
   128
 71
   142
 72
   144
 73
   126
 74
   124
  0
VERTEX
  5
267
  8
METAL
 10
0.0
 20
0.0
 30
0.0
 70
   128
 71
   147
 72
   145
 73
   127
 74
   129
  0
VERTEX
  5
268
  8
METAL
 10
0.0
 20
0.0
 30
0.0
 70
   128
 71
    12
 72
    11
 73
    18
 74
    19
  0
VERTEX
  5
269
  8
METAL
 10
0.0
 20
0.0
 30
0.0
 70
   128
 71
    77
 72
    76
 73
   108
 74
   110
  0
VERTEX
  5
26A
  8
METAL
 10
0.0
 20
0.0
 30
0.0
 70
   128
 71
   110
 72
   108
 73
   126
 74
   128
  0
VERTEX
  5
26B
  8
METAL
 10
0.0
 20
0.0
 30
0.0
 70
   128
 71
   107
 72
   109
 73
   127
 74
   125
  0
VERTEX
  5
26C
  8
METAL
 10
0.0
 20
0.0
 30
0.0
 70
   128
 71
    46
 72
    45
 73
    76
 74
    77
  0
VERTEX
  5
26D
  8
METAL
 10
0.0
 20
0.0
 30
0.0
 70
   128
 71
    10
 72
    11
 73
     2
 74
     1
  0
VERTEX
  5
26E
  8
METAL
 10
0.0
 20
0.0
 30
0.0
 70
   128
 71
    89
 72
    94
 73
    88
 74
    55
  0
VERTEX
  5
26F
  8
METAL
 10
0.0
 20
0.0
 30
0.0
 70
   128
 71
    91
 72
    98
 73
    94
 74
    89
  0
VERTEX
  5
270
  8
METAL
 10
0.0
 20
0.0
 30
0.0
 70
   128
 71
    90
 72
    96
 73
    99
 74
    92
  0
VERTEX
  5
271
  8
METAL
 10
0.0
 20
0.0
 30
0.0
 70
   128
 71
    54
 72
    85
 73
    96
 74
    90
  0
VERTEX
  5
272
  8
METAL
 10
0.0
 20
0.0
 30
0.0
 70
   128
 71
    97
 72
   109
 73
    93
 74
    93
  0
VERTEX
  5
273
  8
METAL
 10
0.0
 20
0.0
 30
0.0
 70
   128
 71
    95
 72
   109
 73
    97
 74
    97
  0
VERTEX
  5
274
  8
METAL
 10
0.0
 20
0.0
 30
0.0
 70
   128
 71
    93
 72
   109
 73
   107
 74
    87
  0
VERTEX
  5
275
  8
METAL
 10
0.0
 20
0.0
 30
0.0
 70
   128
 71
    39
 72
    23
 73
    35
 74
    35
  0
VERTEX
  5
276
  8
METAL
 10
0.0
 20
0.0
 30
0.0
 70
   128
 71
    17
 72
    20
 73
    24
 74
    24
  0
VERTEX
  5
277
  8
METAL
 10
0.0
 20
0.0
 30
0.0
 70
   128
 71
    51
 72
    63
 73
    60
 74
    60
  0
VERTEX
  5
278
  8
METAL
 10
0.0
 20
0.0
 30
0.0
 70
   128
 71
    59
 72
    68
 73
    62
 74
    53
  0
VERTEX
  5
279
  8
METAL
 10
0.0
 20
0.0
 30
0.0
 70
   128
 71
   148
 72
   130
 73
   128
 74
   146
  0
VERTEX
  5
27A
  8
METAL
 10
0.0
 20
0.0
 30
0.0
 70
   128
 71
   140
 72
   123
 73
   125
 74
   143
  0
VERTEX
  5
27B
  8
METAL
 10
0.0
 20
0.0
 30
0.0
 70
   128
 71
   150
 72
   132
 73
   135
 74
   153
  0
VERTEX
  5
27C
  8
METAL
 10
0.0
 20
0.0
 30
0.0
 70
   128
 71
    13
 72
    20
 73
    17
 74
    10
  0
VERTEX
  5
27D
  8
METAL
 10
0.0
 20
0.0
 30
0.0
 70
   128
 71
    27
 72
    29
 73
    18
 74
    17
  0
VERTEX
  5
27E
  8
METAL
 10
0.0
 20
0.0
 30
0.0
 70
   128
 71
    71
 72
   102
 73
   106
 74
    75
  0
VERTEX
  5
27F
  8
METAL
 10
0.0
 20
0.0
 30
0.0
 70
   128
 71
   102
 72
   120
 73
   124
 74
   106
  0
VERTEX
  5
280
  8
METAL
 10
0.0
 20
0.0
 30
0.0
 70
   128
 71
    79
 72
   115
 73
   111
 74
    82
  0
VERTEX
  5
281
  8
METAL
 10
0.0
 20
0.0
 30
0.0
 70
   128
 71
   115
 72
   133
 73
   129
 74
   111
  0
VERTEX
  5
282
  8
METAL
 10
0.0
 20
0.0
 30
0.0
 70
   128
 71
    74
 72
   113
 73
   116
 74
    70
  0
VERTEX
  5
283
  8
METAL
 10
0.0
 20
0.0
 30
0.0
 70
   128
 71
   113
 72
   131
 73
   134
 74
   116
  0
VERTEX
  5
284
  8
METAL
 10
0.0
 20
0.0
 30
0.0
 70
   128
 71
    81
 72
   104
 73
   101
 74
    65
  0
VERTEX
  5
285
  8
METAL
 10
0.0
 20
0.0
 30
0.0
 70
   128
 71
   104
 72
   122
 73
   119
 74
   101
  0
VERTEX
  5
286
  8
METAL
 10
0.0
 20
0.0
 30
0.0
 70
   128
 71
   139
 72
   121
 73
   118
 74
   136
  0
VERTEX
  5
287
  8
METAL
 10
0.0
 20
0.0
 30
0.0
 70
   128
 71
    42
 72
    71
 73
    75
 74
    44
  0
VERTEX
  5
288
  8
METAL
 10
0.0
 20
0.0
 30
0.0
 70
   128
 71
    40
 72
    74
 73
    70
 74
    39
  0
VERTEX
  5
289
  8
METAL
 10
0.0
 20
0.0
 30
0.0
 70
   128
 71
    16
 72
    23
 73
    39
 74
    37
  0
VERTEX
  5
28A
  8
METAL
 10
0.0
 20
0.0
 30
0.0
 70
   128
 71
    15
 72
     6
 73
     3
 74
    12
  0
VERTEX
  5
28B
  8
METAL
 10
0.0
 20
0.0
 30
0.0
 70
   128
 71
    50
 72
    63
 73
    51
 74
    47
  0
VERTEX
  5
28C
  8
METAL
 10
0.0
 20
0.0
 30
0.0
 70
   128
 71
    14
 72
     5
 73
     8
 74
    36
  0
VERTEX
  5
28D
  8
METAL
 10
0.0
 20
0.0
 30
0.0
 70
   128
 71
    61
 72
    49
 73
    48
 74
    52
  0
VERTEX
  5
28E
  8
METAL
 10
0.0
 20
0.0
 30
0.0
 70
   128
 71
    29
 72
    31
 73
    19
 74
    18
  0
VERTEX
  5
28F
  8
METAL
 10
0.0
 20
0.0
 30
0.0
 70
   128
 71
   148
 72
   146
 73
   164
 74
   167
  0
VERTEX
  5
290
  8
METAL
 10
0.0
 20
0.0
 30
0.0
 70
   128
 71
   140
 72
   143
 73
   161
 74
   159
  0
VERTEX
  5
291
  8
METAL
 10
0.0
 20
0.0
 30
0.0
 70
   128
 71
    39
 72
    35
 73
    40
 74
    40
  0
VERTEX
  5
292
  8
METAL
 10
0.0
 20
0.0
 30
0.0
 70
   128
 71
    32
 72
    46
 73
    41
 74
    34
  0
VERTEX
  5
293
  8
METAL
 10
0.0
 20
0.0
 30
0.0
 70
   128
 71
    19
 72
    31
 73
    33
 74
    22
  0
VERTEX
  5
294
  8
METAL
 10
0.0
 20
0.0
 30
0.0
 70
   128
 71
    17
 72
    24
 73
    27
 74
    27
  0
VERTEX
  5
295
  8
METAL
 10
0.0
 20
0.0
 30
0.0
 70
   128
 71
    42
 72
    44
 73
    28
 74
    25
  0
VERTEX
  5
296
  8
METAL
 10
0.0
 20
0.0
 30
0.0
 70
   128
 71
    38
 72
    43
 73
    26
 74
    21
  0
VERTEX
  5
297
  8
METAL
 10
0.0
 20
0.0
 30
0.0
 70
   128
 71
    51
 72
    60
 73
    57
 74
    57
  0
VERTEX
  5
298
  8
METAL
 10
0.0
 20
0.0
 30
0.0
 70
   128
 71
    81
 72
    65
 73
    57
 74
    60
  0
VERTEX
  5
299
  8
METAL
 10
0.0
 20
0.0
 30
0.0
 70
   128
 71
    88
 72
    81
 73
    60
 74
    63
  0
VERTEX
  5
29A
  8
METAL
 10
0.0
 20
0.0
 30
0.0
 70
   128
 71
   152
 72
   134
 73
   131
 74
   149
  0
VERTEX
  5
29B
  8
METAL
 10
0.0
 20
0.0
 30
0.0
 70
   128
 71
   137
 72
   119
 73
   122
 74
   141
  0
VERTEX
  5
29C
  8
METAL
 10
0.0
 20
0.0
 30
0.0
 70
   128
 71
   147
 72
   129
 73
   133
 74
   151
  0
VERTEX
  5
29D
  8
METAL
 10
0.0
 20
0.0
 30
0.0
 70
   128
 71
    36
 72
    38
 73
    21
 74
    14
  0
VERTEX
  5
29E
  8
METAL
 10
0.0
 20
0.0
 30
0.0
 70
   128
 71
    44
 72
    45
 73
    30
 74
    28
  0
VERTEX
  5
29F
  8
METAL
 10
0.0
 20
0.0
 30
0.0
 70
   128
 71
    69
 72
   100
 73
   103
 74
    72
  0
VERTEX
  5
2A0
  8
METAL
 10
0.0
 20
0.0
 30
0.0
 70
   128
 71
   100
 72
   118
 73
   121
 74
   103
  0
VERTEX
  5
2A1
  8
METAL
 10
0.0
 20
0.0
 30
0.0
 70
   128
 71
    67
 72
   117
 73
   114
 74
    78
  0
VERTEX
  5
2A2
  8
METAL
 10
0.0
 20
0.0
 30
0.0
 70
   128
 71
   117
 72
   135
 73
   132
 74
   114
  0
VERTEX
  5
2A3
  8
METAL
 10
0.0
 20
0.0
 30
0.0
 70
   128
 71
    77
 72
   110
 73
   112
 74
    73
  0
VERTEX
  5
2A4
  8
METAL
 10
0.0
 20
0.0
 30
0.0
 70
   128
 71
   110
 72
   128
 73
   130
 74
   112
  0
VERTEX
  5
2A5
  8
METAL
 10
0.0
 20
0.0
 30
0.0
 70
   128
 71
    86
 72
   107
 73
   105
 74
    80
  0
VERTEX
  5
2A6
  8
METAL
 10
0.0
 20
0.0
 30
0.0
 70
   128
 71
   107
 72
   125
 73
   123
 74
   105
  0
VERTEX
  5
2A7
  8
METAL
 10
0.0
 20
0.0
 30
0.0
 70
   128
 71
   142
 72
   124
 73
   120
 74
   138
  0
VERTEX
  5
2A8
  8
METAL
 10
0.0
 20
0.0
 30
0.0
 70
   128
 71
    38
 72
    69
 73
    72
 74
    43
  0
VERTEX
  5
2A9
  8
METAL
 10
0.0
 20
0.0
 30
0.0
 70
   128
 71
    46
 72
    77
 73
    73
 74
    41
  0
VERTEX
  5
2AA
  8
METAL
 10
0.0
 20
0.0
 30
0.0
 70
   128
 71
    12
 72
    19
 73
    22
 74
    15
  0
VERTEX
  5
2AB
  8
METAL
 10
0.0
 20
0.0
 30
0.0
 70
   128
 71
    37
 72
     9
 73
     7
 74
    16
  0
VERTEX
  5
2AC
  8
METAL
 10
0.0
 20
0.0
 30
0.0
 70
   128
 71
    55
 72
    88
 73
    63
 74
    50
  0
VERTEX
  5
2AD
  8
METAL
 10
0.0
 20
0.0
 30
0.0
 70
   128
 71
    10
 72
     1
 73
     4
 74
    13
  0
VERTEX
  5
2AE
  8
METAL
 10
0.0
 20
0.0
 30
0.0
 70
   128
 71
    85
 72
    54
 73
    49
 74
    61
  0
VERTEX
  5
2AF
  8
METAL
 10
0.0
 20
0.0
 30
0.0
 70
   128
 71
    45
 72
    46
 73
    32
 74
    30
  0
VERTEX
  5
2B0
  8
METAL
 10
0.0
 20
0.0
 30
0.0
 70
   128
 71
   147
 72
   151
 73
   168
 74
   165
  0
VERTEX
  5
2B1
  8
METAL
 10
0.0
 20
0.0
 30
0.0
 70
   128
 71
    37
 72
    39
 73
    58
 74
    52
  0
VERTEX
  5
2B2
  8
METAL
 10
0.0
 20
0.0
 30
0.0
 70
   128
 71
    51
 72
    56
 73
    38
 74
    36
  0
VERTEX
  5
2B3
  8
METAL
 10
0.0
 20
0.0
 30
0.0
 70
   128
 71
    59
 72
    67
 73
    78
 74
    68
  0
VERTEX
  5
2B4
  8
METAL
 10
0.0
 20
0.0
 30
0.0
 70
   128
 71
    62
 72
    68
 73
    84
 74
    84
  0
VERTEX
  5
2B5
  8
METAL
 10
0.0
 20
0.0
 30
0.0
 70
   128
 71
    68
 72
    78
 73
    84
 74
    84
  0
VERTEX
  5
2B6
  8
METAL
 10
0.0
 20
0.0
 30
0.0
 70
   128
 71
   144
 72
   162
 73
   164
 74
   146
  0
VERTEX
  5
2B7
  8
METAL
 10
0.0
 20
0.0
 30
0.0
 70
   128
 71
   145
 72
   163
 73
   161
 74
   143
  0
VERTEX
  5
2B8
  8
METAL
 10
0.0
 20
0.0
 30
0.0
 70
   128
 71
   153
 72
   152
 73
   170
 74
   171
  0
VERTEX
  5
2B9
  8
METAL
 10
0.0
 20
0.0
 30
0.0
 70
   128
 71
   155
 72
   154
 73
   136
 74
   137
  0
VERTEX
  5
2BA
  8
METAL
 10
0.0
 20
0.0
 30
0.0
 70
   128
 71
   142
 72
   160
 73
   162
 74
   144
  0
VERTEX
  5
2BB
  8
METAL
 10
0.0
 20
0.0
 30
0.0
 70
   128
 71
   147
 72
   165
 73
   163
 74
   145
  0
VERTEX
  5
2BC
  8
METAL
 10
0.0
 20
0.0
 30
0.0
 70
   128
 71
   153
 72
   171
 73
   169
 74
   150
  0
VERTEX
  5
2BD
  8
METAL
 10
0.0
 20
0.0
 30
0.0
 70
   128
 71
   136
 72
   154
 73
   156
 74
   139
  0
VERTEX
  5
2BE
  8
METAL
 10
0.0
 20
0.0
 30
0.0
 70
   128
 71
   149
 72
   166
 73
   170
 74
   152
  0
VERTEX
  5
2BF
  8
METAL
 10
0.0
 20
0.0
 30
0.0
 70
   128
 71
   158
 72
   155
 73
   137
 74
   141
  0
VERTEX
  5
2C0
  8
METAL
 10
0.0
 20
0.0
 30
0.0
 70
   128
 71
   138
 72
   157
 73
   160
 74
   142
  0
VERTEX
  5
2C1
  8
METAL
 10
0.0
 20
0.0
 30
0.0
 70
   128
 71
   173
 72
   191
 73
   190
 74
   172
  0
VERTEX
  5
2C2
  8
METAL
 10
0.0
 20
0.0
 30
0.0
 70
   128
 71
   198
 72
   180
 73
   178
 74
   196
  0
VERTEX
  5
2C3
  8
METAL
 10
0.0
 20
0.0
 30
0.0
 70
   128
 71
   199
 72
   181
 73
   183
 74
   201
  0
VERTEX
  5
2C4
  8
METAL
 10
0.0
 20
0.0
 30
0.0
 70
   128
 71
   164
 72
   182
 73
   185
 74
   167
  0
VERTEX
  5
2C5
  8
METAL
 10
0.0
 20
0.0
 30
0.0
 70
   128
 71
   161
 72
   179
 73
   176
 74
   159
  0
VERTEX
  5
2C6
  8
METAL
 10
0.0
 20
0.0
 30
0.0
 70
   128
 71
   168
 72
   186
 73
   183
 74
   165
  0
VERTEX
  5
2C7
  8
METAL
 10
0.0
 20
0.0
 30
0.0
 70
   128
 71
   164
 72
   162
 73
   180
 74
   182
  0
VERTEX
  5
2C8
  8
METAL
 10
0.0
 20
0.0
 30
0.0
 70
   128
 71
   161
 72
   163
 73
   181
 74
   179
  0
VERTEX
  5
2C9
  8
METAL
 10
0.0
 20
0.0
 30
0.0
 70
   128
 71
   170
 72
   188
 73
   189
 74
   171
  0
VERTEX
  5
2CA
  8
METAL
 10
0.0
 20
0.0
 30
0.0
 70
   128
 71
   155
 72
   173
 73
   172
 74
   154
  0
VERTEX
  5
2CB
  8
METAL
 10
0.0
 20
0.0
 30
0.0
 70
   128
 71
   162
 72
   160
 73
   178
 74
   180
  0
VERTEX
  5
2CC
  8
METAL
 10
0.0
 20
0.0
 30
0.0
 70
   128
 71
   163
 72
   165
 73
   183
 74
   181
  0
VERTEX
  5
2CD
  8
METAL
 10
0.0
 20
0.0
 30
0.0
 70
   128
 71
   169
 72
   171
 73
   189
 74
   187
  0
VERTEX
  5
2CE
  8
METAL
 10
0.0
 20
0.0
 30
0.0
 70
   128
 71
   156
 72
   154
 73
   172
 74
   174
  0
VERTEX
  5
2CF
  8
METAL
 10
0.0
 20
0.0
 30
0.0
 70
   128
 71
   170
 72
   166
 73
   184
 74
   188
  0
VERTEX
  5
2D0
  8
METAL
 10
0.0
 20
0.0
 30
0.0
 70
   128
 71
   158
 72
   177
 73
   173
 74
   155
  0
VERTEX
  5
2D1
  8
METAL
 10
0.0
 20
0.0
 30
0.0
 70
   128
 71
   160
 72
   157
 73
   175
 74
   178
  0
VERTEX
  5
2D2
  8
METAL
 10
0.0
 20
0.0
 30
0.0
 70
   128
 71
   180
 72
   198
 73
   200
 74
   182
  0
VERTEX
  5
2D3
  8
METAL
 10
0.0
 20
0.0
 30
0.0
 70
   128
 71
   181
 72
   199
 73
   197
 74
   179
  0
VERTEX
  5
2D4
  8
METAL
 10
0.0
 20
0.0
 30
0.0
 70
   128
 71
   206
 72
   207
 73
   189
 74
   188
  0
VERTEX
  5
2D5
  8
METAL
 10
0.0
 20
0.0
 30
0.0
 70
   128
 71
   182
 72
   200
 73
   202
 74
   185
  0
VERTEX
  5
2D6
  8
METAL
 10
0.0
 20
0.0
 30
0.0
 70
   128
 71
   179
 72
   197
 73
   195
 74
   176
  0
VERTEX
  5
2D7
  8
METAL
 10
0.0
 20
0.0
 30
0.0
 70
   128
 71
   189
 72
   207
 73
   204
 74
   187
  0
VERTEX
  5
2D8
  8
METAL
 10
0.0
 20
0.0
 30
0.0
 70
   128
 71
   172
 72
   190
 73
   193
 74
   174
  0
VERTEX
  5
2D9
  8
METAL
 10
0.0
 20
0.0
 30
0.0
 70
   128
 71
   184
 72
   203
 73
   206
 74
   188
  0
VERTEX
  5
2DA
  8
METAL
 10
0.0
 20
0.0
 30
0.0
 70
   128
 71
   177
 72
   194
 73
   191
 74
   173
  0
VERTEX
  5
2DB
  8
METAL
 10
0.0
 20
0.0
 30
0.0
 70
   128
 71
   186
 72
   205
 73
   201
 74
   183
  0
VERTEX
  5
2DC
  8
METAL
 10
0.0
 20
0.0
 30
0.0
 70
   128
 71
   175
 72
   192
 73
   196
 74
   178
  0
SEQEND
  5
328
  8
METAL
  0
ENDSEC
  0
EOF
