  0
SECTION
  2
HEADER
  9
$ACADVER
  1
AC1009
  9
$DWGCODEPAGE
  3
ansi_1252
  9
$INSBASE
 10
0.0
 20
0.0
 30
0.0
  9
$EXTMIN
 10
-167.5
 20
-24.99604225158691
 30
-5.0
  9
$EXTMAX
 10
167.3884277343741
 20
0.0
 30
5.138204574584972
  9
$LIMMIN
 10
0.0
 20
0.0
  9
$LIMMAX
 10
12.0
 20
9.0
  9
$ORTHOMODE
 70
     1
  9
$REGENMODE
 70
     1
  9
$FILLMODE
 70
     1
  9
$QTEXTMODE
 70
     0
  9
$MIRRTEXT
 70
     1
  9
$DRAGMODE
 70
     2
  9
$LTSCALE
 40
1.0
  9
$OSMODE
 70
    37
  9
$ATTMODE
 70
     1
  9
$TEXTSIZE
 40
0.2
  9
$TRACEWID
 40
0.05
  9
$TEXTSTYLE
  7
STANDARD
  9
$CLAYER
  8
0
  9
$CELTYPE
  6
BYLAYER
  9
$CECOLOR
 62
   256
  9
$DIMSCALE
 40
1.0
  9
$DIMASZ
 40
0.18
  9
$DIMEXO
 40
0.0625
  9
$DIMDLI
 40
0.38
  9
$DIMRND
 40
0.0
  9
$DIMDLE
 40
0.0
  9
$DIMEXE
 40
0.18
  9
$DIMTP
 40
0.0
  9
$DIMTM
 40
0.0
  9
$DIMTXT
 40
0.18
  9
$DIMCEN
 40
0.09
  9
$DIMTSZ
 40
0.0
  9
$DIMTOL
 70
     0
  9
$DIMLIM
 70
     0
  9
$DIMTIH
 70
     1
  9
$DIMTOH
 70
     1
  9
$DIMSE1
 70
     0
  9
$DIMSE2
 70
     0
  9
$DIMTAD
 70
     0
  9
$DIMZIN
 70
     0
  9
$DIMBLK
  1

  9
$DIMASO
 70
     1
  9
$DIMSHO
 70
     1
  9
$DIMPOST
  1

  9
$DIMAPOST
  1

  9
$DIMALT
 70
     0
  9
$DIMALTD
 70
     2
  9
$DIMALTF
 40
25.4
  9
$DIMLFAC
 40
1.0
  9
$DIMTOFL
 70
     0
  9
$DIMTVP
 40
0.0
  9
$DIMTIX
 70
     0
  9
$DIMSOXD
 70
     0
  9
$DIMSAH
 70
     0
  9
$DIMBLK1
  1

  9
$DIMBLK2
  1

  9
$DIMSTYLE
  2
STANDARD
  9
$DIMCLRD
 70
     0
  9
$DIMCLRE
 70
     0
  9
$DIMCLRT
 70
     0
  9
$DIMTFAC
 40
1.0
  9
$DIMGAP
 40
0.09
  9
$LUNITS
 70
     2
  9
$LUPREC
 70
     3
  9
$SKETCHINC
 40
0.1
  9
$FILLETRAD
 40
0.5
  9
$AUNITS
 70
     0
  9
$AUPREC
 70
     0
  9
$MENU
  1
.
  9
$ELEVATION
 40
0.0
  9
$PELEVATION
 40
0.0
  9
$THICKNESS
 40
0.0
  9
$LIMCHECK
 70
     0
  9
$CHAMFERA
 40
0.5
  9
$CHAMFERB
 40
0.5
  9
$SKPOLY
 70
     0
  9
$TDCREATE
 40
2456499.689237766
  9
$TDUPDATE
 40
2456499.689237766
  9
$TDINDWG
 40
0.0009143519
  9
$TDUSRTIMER
 40
0.0009027894
  9
$USRTIMER
 70
     1
  9
$ANGBASE
 50
0.0
  9
$ANGDIR
 70
     0
  9
$PDMODE
 70
     0
  9
$PDSIZE
 40
0.0
  9
$PLINEWID
 40
0.0
  9
$COORDS
 70
     1
  9
$SPLFRAME
 70
     0
  9
$SPLINETYPE
 70
     6
  9
$SPLINESEGS
 70
     8
  9
$ATTDIA
 70
     0
  9
$ATTREQ
 70
     1
  9
$HANDLING
 70
     1
  9
$HANDSEED
  5
12F
  9
$SURFTAB1
 70
     6
  9
$SURFTAB2
 70
     6
  9
$SURFTYPE
 70
     6
  9
$SURFU
 70
     6
  9
$SURFV
 70
     6
  9
$UCSNAME
  2

  9
$UCSORG
 10
0.0
 20
0.0
 30
0.0
  9
$UCSXDIR
 10
1.0
 20
0.0
 30
0.0
  9
$UCSYDIR
 10
0.0
 20
0.0
 30
1.0
  9
$PUCSNAME
  2

  9
$PUCSORG
 10
0.0
 20
0.0
 30
0.0
  9
$PUCSXDIR
 10
1.0
 20
0.0
 30
0.0
  9
$PUCSYDIR
 10
0.0
 20
1.0
 30
0.0
  9
$USERI1
 70
     0
  9
$USERI2
 70
     0
  9
$USERI3
 70
     0
  9
$USERI4
 70
     0
  9
$USERI5
 70
     0
  9
$USERR1
 40
0.0
  9
$USERR2
 40
0.0
  9
$USERR3
 40
0.0
  9
$USERR4
 40
0.0
  9
$USERR5
 40
0.0
  9
$WORLDVIEW
 70
     1
  9
$SHADEDGE
 70
     3
  9
$SHADEDIF
 70
    70
  9
$TILEMODE
 70
     1
  9
$MAXACTVP
 70
    64
  9
$PLIMCHECK
 70
     0
  9
$PEXTMIN
 10
1.000000000000000E+20
 20
1.000000000000000E+20
 30
1.000000000000000E+20
  9
$PEXTMAX
 10
-1.000000000000000E+20
 20
-1.000000000000000E+20
 30
-1.000000000000000E+20
  9
$PLIMMIN
 10
0.0
 20
0.0
  9
$PLIMMAX
 10
12.0
 20
9.0
  9
$UNITMODE
 70
     0
  9
$VISRETAIN
 70
     1
  9
$PLINEGEN
 70
     0
  9
$PSLTSCALE
 70
     1
  0
ENDSEC
  0
SECTION
  2
TABLES
  0
TABLE
  2
VPORT
 70
     1
  0
VPORT
  2
*ACTIVE
 70
     0
 10
0.0
 20
0.0
 11
1.0
 21
1.0
 12
8.797988736653073
 22
-5.068648570830297
 13
0.0
 23
0.0
 14
0.5
 24
0.5
 15
0.5
 25
0.5
 16
-1.0
 26
-1.0
 36
1.0
 17
0.0
 27
0.0
 37
0.0
 40
197.8800369853995
 41
16.75724991388132
 42
50.0
 43
0.0
 44
0.0
 50
0.0
 51
0.0
 71
    16
 72
   100
 73
     0
 74
     1
 75
     0
 76
     0
 77
     0
 78
     0
  0
ENDTAB
  0
TABLE
  2
LTYPE
 70
     1
  0
LTYPE
  2
CONTINUOUS
 70
     0
  3
Solid line
 72
    65
 73
     0
 40
0.0
  0
ENDTAB
  0
TABLE
  2
LAYER
 70
     2
  0
LAYER
  2
0
 70
     0
 62
     7
  6
CONTINUOUS
  0
LAYER
  2
METAL
 70
     0
 62
   196
  6
CONTINUOUS
  0
ENDTAB
  0
TABLE
  2
STYLE
 70
     1
  0
STYLE
  2
STANDARD
 70
     0
 40
0.0
 41
1.0
 50
0.0
 71
     0
 42
0.2
  3
txt
  4

  0
ENDTAB
  0
TABLE
  2
VIEW
 70
     0
  0
ENDTAB
  0
TABLE
  2
UCS
 70
     0
  0
ENDTAB
  0
TABLE
  2
APPID
 70
     1
  0
APPID
  2
ACAD
 70
     0
  0
ENDTAB
  0
TABLE
  2
DIMSTYLE
 70
     1
  0
DIMSTYLE
  2
STANDARD
 70
     0
  3

  4

  5

  6

  7

 40
1.0
 41
0.18
 42
0.0625
 43
0.38
 44
0.18
 45
0.0
 46
0.0
 47
0.0
 48
0.0
140
0.18
141
0.09
142
0.0
143
25.4
144
1.0
145
0.0
146
1.0
147
0.09
 71
     0
 72
     0
 73
     1
 74
     1
 75
     0
 76
     0
 77
     0
 78
     0
170
     0
171
     2
172
     0
173
     0
174
     0
175
     0
176
     0
177
     0
178
     0
  0
ENDTAB
  0
ENDSEC
  0
SECTION
  2
BLOCKS
  0
BLOCK
  8
0
  2
$MODEL_SPACE
 70
     0
 10
0.0
 20
0.0
 30
0.0
  3
$MODEL_SPACE
  1

  0
ENDBLK
  5
21
  8
0
  0
BLOCK
 67
     1
  8
0
  2
$PAPER_SPACE
 70
     0
 10
0.0
 20
0.0
 30
0.0
  3
$PAPER_SPACE
  1

  0
ENDBLK
  5
76
 67
     1
  8
0
  0
ENDSEC
  0
SECTION
  2
ENTITIES
  0
POLYLINE
  5
3C
  8
METAL
 66
     1
 10
0.0
 20
0.0
 30
0.0
 70
    64
 71
   112
 72
    51
  0
VERTEX
  5
3D
  8
METAL
 10
167.3884277343741
 20
-0.0000000000000071
 30
5.138204574584972
 70
   192
  0
VERTEX
  5
3E
  8
METAL
 10
167.3884277343741
 20
-19.85520362854004
 30
-5.0
 70
   192
  0
VERTEX
  5
3F
  8
METAL
 10
167.06494140625
 20
-22.10432052612305
 30
5.09146881103516
 70
   192
  0
VERTEX
  5
40
  8
METAL
 10
167.06494140625
 20
-22.10432052612305
 30
-4.953264236450195
 70
   192
  0
VERTEX
  5
41
  8
METAL
 10
166.0947265625
 20
-23.7108325958252
 30
4.951265335083008
 70
   192
  0
VERTEX
  5
42
  8
METAL
 10
166.0947265625
 20
-23.7108325958252
 30
-4.81306076049804
 70
   192
  0
VERTEX
  5
43
  8
METAL
 10
164.477661132812
 20
-24.67473983764648
 30
4.717594146728519
 70
   192
  0
VERTEX
  5
44
  8
METAL
 10
164.477661132812
 20
-24.67473983764648
 30
-4.579387664794922
 70
   192
  0
VERTEX
  5
45
  8
METAL
 10
162.213745117187
 20
-24.99604225158691
 30
-4.25224494934082
 70
   192
  0
VERTEX
  5
46
  8
METAL
 10
154.897827148437
 20
-0.0000000000000071
 30
3.333286285400394
 70
   192
  0
VERTEX
  5
47
  8
METAL
 10
154.897827148437
 20
-24.99604225158691
 30
3.333284378051758
 70
   192
  0
VERTEX
  5
48
  8
METAL
 10
154.897827148437
 20
-17.85520362854004
 30
3.333284378051758
 70
   192
  0
VERTEX
  5
49
  8
METAL
 10
154.897827148437
 20
-0.0000000000000071
 30
-3.19507980346679
 70
   192
  0
VERTEX
  5
4A
  8
METAL
 10
154.772827148437
 20
-18.73020362854004
 30
3.333284378051758
 70
   192
  0
VERTEX
  5
4B
  8
METAL
 10
154.397827148437
 20
-19.35520362854004
 30
3.333284378051758
 70
   192
  0
VERTEX
  5
4C
  8
METAL
 10
153.772827148437
 20
-19.73020362854004
 30
3.333284378051758
 70
   192
  0
VERTEX
  5
4D
  8
METAL
 10
152.897827148437
 20
-19.85520362854004
 30
3.333284378051758
 70
   192
  0
VERTEX
  5
4E
  8
METAL
 10
-153.884399414063
 20
-19.73020362854004
 30
3.333284378051758
 70
   192
  0
VERTEX
  5
4F
  8
METAL
 10
-153.884399414063
 20
-19.73020362854004
 30
-3.19507980346679
 70
   192
  0
VERTEX
  5
50
  8
METAL
 10
-154.509399414063
 20
-19.35520362854004
 30
3.333284378051758
 70
   192
  0
VERTEX
  5
51
  8
METAL
 10
-154.509399414063
 20
-19.35520362854004
 30
-3.19507980346679
 70
   192
  0
VERTEX
  5
52
  8
METAL
 10
-154.884399414063
 20
-18.73020362854004
 30
3.333284378051758
 70
   192
  0
VERTEX
  5
53
  8
METAL
 10
-154.884399414063
 20
-18.73020362854004
 30
-3.19507980346679
 70
   192
  0
VERTEX
  5
54
  8
METAL
 10
-155.009399414063
 20
-0.0000000000000071
 30
3.333286285400394
 70
   192
  0
VERTEX
  5
55
  8
METAL
 10
-155.009399414063
 20
-17.85520362854004
 30
-3.19507980346679
 70
   192
  0
VERTEX
  5
56
  8
METAL
 10
-155.009399414063
 20
-0.0000000000000071
 30
-3.19507980346679
 70
   192
  0
VERTEX
  5
57
  8
METAL
 10
-162.325317382813
 20
-24.99604225158691
 30
-4.25224494934082
 70
   192
  0
VERTEX
  5
58
  8
METAL
 10
-164.589233398438
 20
-24.67473983764648
 30
-4.579387664794922
 70
   192
  0
VERTEX
  5
ED
  8
METAL
 10
-166.2062988281259
 20
-23.7108325958252
 30
-4.81306076049804
 70
   192
  0
VERTEX
  5
EE
  8
METAL
 10
-167.1765136718759
 20
-22.10432052612305
 30
-4.953264236450195
 70
   192
  0
VERTEX
  5
5B
  8
METAL
 10
-167.5
 20
-0.0000000000000071
 30
5.138204574584972
 70
   192
  0
VERTEX
  5
5C
  8
METAL
 10
-167.5
 20
0.0
 30
-4.99999809265136
 70
   192
  0
VERTEX
  5
5D
  8
METAL
 10
-167.5
 20
-19.85520362854004
 30
-5.0
 70
   192
  0
VERTEX
  5
EF
  8
METAL
 10
-167.5
 20
-19.85520362854004
 30
-5.0
 70
   192
  0
VERTEX
  5
5F
  8
METAL
 10
-167.5
 20
0.0
 30
-4.99999809265136
 70
   192
  0
VERTEX
  5
60
  8
METAL
 10
-167.5
 20
0.0
 30
-4.99999809265136
 70
   192
  0
VERTEX
  5
61
  8
METAL
 10
-167.5
 20
-19.85520362854004
 30
5.138202667236328
 70
   192
  0
VERTEX
  5
62
  8
METAL
 10
-167.5
 20
-19.85520362854004
 30
5.138202667236328
 70
   192
  0
VERTEX
  5
63
  8
METAL
 10
-167.5
 20
-0.0000000000000071
 30
5.138204574584972
 70
   192
  0
VERTEX
  5
64
  8
METAL
 10
-167.5
 20
-0.0000000000000071
 30
5.138204574584972
 70
   192
  0
VERTEX
  5
65
  8
METAL
 10
-167.1765136718759
 20
-22.10432052612305
 30
-4.953264236450195
 70
   192
  0
VERTEX
  5
66
  8
METAL
 10
-167.1765136718759
 20
-22.10432052612305
 30
5.09146881103516
 70
   192
  0
VERTEX
  5
67
  8
METAL
 10
-167.1765136718759
 20
-22.10432052612305
 30
5.09146881103516
 70
   192
  0
VERTEX
  5
68
  8
METAL
 10
-166.2062988281259
 20
-23.7108325958252
 30
-4.81306076049804
 70
   192
  0
VERTEX
  5
69
  8
METAL
 10
-166.2062988281259
 20
-23.7108325958252
 30
4.951265335083008
 70
   192
  0
VERTEX
  5
6A
  8
METAL
 10
-166.2062988281259
 20
-23.7108325958252
 30
4.951265335083008
 70
   192
  0
VERTEX
  5
F0
  8
METAL
 10
-164.589233398438
 20
-24.67473983764648
 30
-4.579387664794922
 70
   192
  0
VERTEX
  5
F1
  8
METAL
 10
-164.589233398438
 20
-24.67473983764648
 30
4.717594146728519
 70
   192
  0
VERTEX
  5
6D
  8
METAL
 10
-164.589233398438
 20
-24.67473983764648
 30
4.717594146728519
 70
   192
  0
VERTEX
  5
6E
  8
METAL
 10
-162.325317382813
 20
-24.99604225158691
 30
-4.25224494934082
 70
   192
  0
VERTEX
  5
6F
  8
METAL
 10
-162.325317382813
 20
-24.99604225158691
 30
4.390449523925788
 70
   192
  0
VERTEX
  5
70
  8
METAL
 10
-162.325317382813
 20
-24.99604225158691
 30
4.390449523925788
 70
   192
  0
VERTEX
  5
71
  8
METAL
 10
-155.009399414063
 20
-0.0000000000000071
 30
-3.19507980346679
 70
   192
  0
VERTEX
  5
72
  8
METAL
 10
-155.009399414063
 20
-0.0000000000000071
 30
-3.19507980346679
 70
   192
  0
VERTEX
  5
F2
  8
METAL
 10
-155.009399414063
 20
-17.85520362854004
 30
-3.19507980346679
 70
   192
  0
VERTEX
  5
F3
  8
METAL
 10
-155.009399414063
 20
-24.99604225158691
 30
-3.19507980346679
 70
   192
  0
VERTEX
  5
F4
  8
METAL
 10
-155.009399414063
 20
-24.99604225158691
 30
-3.19507980346679
 70
   192
  0
VERTEX
  5
F5
  8
METAL
 10
-155.009399414063
 20
-17.85520362854004
 30
3.333284378051758
 70
   192
  0
VERTEX
  5
77
  8
METAL
 10
-155.009399414063
 20
-17.85520362854004
 30
3.333284378051758
 70
   192
  0
VERTEX
  5
78
  8
METAL
 10
-155.009399414063
 20
-24.99604225158691
 30
3.333284378051758
 70
   192
  0
VERTEX
  5
79
  8
METAL
 10
-155.009399414063
 20
-24.99604225158691
 30
3.333284378051758
 70
   192
  0
VERTEX
  5
7A
  8
METAL
 10
-155.009399414063
 20
-0.0000000000000071
 30
3.333286285400394
 70
   192
  0
VERTEX
  5
7B
  8
METAL
 10
-155.009399414063
 20
-0.0000000000000071
 30
3.333286285400394
 70
   192
  0
VERTEX
  5
7C
  8
METAL
 10
-154.884399414063
 20
-18.73020362854004
 30
-3.19507980346679
 70
   192
  0
VERTEX
  5
7D
  8
METAL
 10
-154.884399414063
 20
-18.73020362854004
 30
3.333284378051758
 70
   192
  0
VERTEX
  5
7E
  8
METAL
 10
-154.509399414063
 20
-19.35520362854004
 30
-3.19507980346679
 70
   192
  0
VERTEX
  5
7F
  8
METAL
 10
-154.509399414063
 20
-19.35520362854004
 30
3.333284378051758
 70
   192
  0
VERTEX
  5
80
  8
METAL
 10
-153.884399414063
 20
-19.73020362854004
 30
-3.19507980346679
 70
   192
  0
VERTEX
  5
81
  8
METAL
 10
-153.884399414063
 20
-19.73020362854004
 30
3.333284378051758
 70
   192
  0
VERTEX
  5
82
  8
METAL
 10
-153.009399414063
 20
-19.85520362854004
 30
-3.19507980346679
 70
   192
  0
VERTEX
  5
83
  8
METAL
 10
-153.009399414063
 20
-19.85520362854004
 30
-3.19507980346679
 70
   192
  0
VERTEX
  5
84
  8
METAL
 10
-153.009399414063
 20
-19.85520362854004
 30
3.333284378051758
 70
   192
  0
VERTEX
  5
85
  8
METAL
 10
-153.009399414063
 20
-19.85520362854004
 30
3.333284378051758
 70
   192
  0
VERTEX
  5
86
  8
METAL
 10
152.897827148437
 20
-19.85520362854004
 30
-3.19507980346679
 70
   192
  0
VERTEX
  5
87
  8
METAL
 10
152.897827148437
 20
-19.85520362854004
 30
-3.19507980346679
 70
   192
  0
VERTEX
  5
88
  8
METAL
 10
152.897827148437
 20
-19.85520362854004
 30
3.333284378051758
 70
   192
  0
VERTEX
  5
89
  8
METAL
 10
153.772827148437
 20
-19.73020362854004
 30
-3.19507980346679
 70
   192
  0
VERTEX
  5
8A
  8
METAL
 10
153.772827148437
 20
-19.73020362854004
 30
-3.19507980346679
 70
   192
  0
VERTEX
  5
8B
  8
METAL
 10
153.772827148437
 20
-19.73020362854004
 30
3.333284378051758
 70
   192
  0
VERTEX
  5
8C
  8
METAL
 10
154.397827148437
 20
-19.35520362854004
 30
-3.19507980346679
 70
   192
  0
VERTEX
  5
8D
  8
METAL
 10
154.397827148437
 20
-19.35520362854004
 30
-3.19507980346679
 70
   192
  0
VERTEX
  5
8E
  8
METAL
 10
154.397827148437
 20
-19.35520362854004
 30
3.333284378051758
 70
   192
  0
VERTEX
  5
8F
  8
METAL
 10
154.772827148437
 20
-18.73020362854004
 30
-3.19507980346679
 70
   192
  0
VERTEX
  5
90
  8
METAL
 10
154.772827148437
 20
-18.73020362854004
 30
-3.19507980346679
 70
   192
  0
VERTEX
  5
91
  8
METAL
 10
154.772827148437
 20
-18.73020362854004
 30
3.333284378051758
 70
   192
  0
VERTEX
  5
F6
  8
METAL
 10
154.897827148437
 20
-0.0000000000000071
 30
-3.19507980346679
 70
   192
  0
VERTEX
  5
F7
  8
METAL
 10
154.897827148437
 20
-0.0000000000000071
 30
-3.19507980346679
 70
   192
  0
VERTEX
  5
94
  8
METAL
 10
154.897827148437
 20
-17.85520362854004
 30
-3.19507980346679
 70
   192
  0
VERTEX
  5
95
  8
METAL
 10
154.897827148437
 20
-17.85520362854004
 30
-3.19507980346679
 70
   192
  0
VERTEX
  5
96
  8
METAL
 10
154.897827148437
 20
-24.99604225158691
 30
-3.19507980346679
 70
   192
  0
VERTEX
  5
F8
  8
METAL
 10
154.897827148437
 20
-24.99604225158691
 30
-3.19507980346679
 70
   192
  0
VERTEX
  5
F9
  8
METAL
 10
154.897827148437
 20
-17.85520362854004
 30
3.333284378051758
 70
   192
  0
VERTEX
  5
99
  8
METAL
 10
154.897827148437
 20
-24.99604225158691
 30
3.333284378051758
 70
   192
  0
VERTEX
  5
9A
  8
METAL
 10
154.897827148437
 20
-0.0000000000000071
 30
3.333286285400394
 70
   192
  0
VERTEX
  5
9B
  8
METAL
 10
154.897827148437
 20
-0.0000000000000071
 30
3.333286285400394
 70
   192
  0
VERTEX
  5
9C
  8
METAL
 10
162.213745117187
 20
-24.99604225158691
 30
-4.25224494934082
 70
   192
  0
VERTEX
  5
9D
  8
METAL
 10
162.213745117187
 20
-24.99604225158691
 30
4.390449523925788
 70
   192
  0
VERTEX
  5
9E
  8
METAL
 10
162.213745117187
 20
-24.99604225158691
 30
4.390449523925788
 70
   192
  0
VERTEX
  5
9F
  8
METAL
 10
164.477661132812
 20
-24.67473983764648
 30
-4.579387664794922
 70
   192
  0
VERTEX
  5
A0
  8
METAL
 10
164.477661132812
 20
-24.67473983764648
 30
4.717594146728519
 70
   192
  0
VERTEX
  5
A1
  8
METAL
 10
166.0947265625
 20
-23.7108325958252
 30
-4.81306076049804
 70
   192
  0
VERTEX
  5
A2
  8
METAL
 10
166.0947265625
 20
-23.7108325958252
 30
4.951265335083008
 70
   192
  0
VERTEX
  5
A3
  8
METAL
 10
167.06494140625
 20
-22.10432052612305
 30
-4.953264236450195
 70
   192
  0
VERTEX
  5
A4
  8
METAL
 10
167.06494140625
 20
-22.10432052612305
 30
5.09146881103516
 70
   192
  0
VERTEX
  5
A5
  8
METAL
 10
167.3884277343741
 20
-19.85520362854004
 30
-5.0
 70
   192
  0
VERTEX
  5
A6
  8
METAL
 10
167.3884277343741
 20
0.0
 30
-4.99999809265136
 70
   192
  0
VERTEX
  5
A7
  8
METAL
 10
167.3884277343741
 20
0.0
 30
-4.99999809265136
 70
   192
  0
VERTEX
  5
A8
  8
METAL
 10
167.3884277343741
 20
0.0
 30
-4.99999809265136
 70
   192
  0
VERTEX
  5
A9
  8
METAL
 10
167.3884277343741
 20
-19.85520362854004
 30
5.138202667236328
 70
   192
  0
VERTEX
  5
AA
  8
METAL
 10
167.3884277343741
 20
-19.85520362854004
 30
5.138202667236328
 70
   192
  0
VERTEX
  5
AB
  8
METAL
 10
167.3884277343741
 20
-0.0000000000000071
 30
5.138204574584972
 70
   192
  0
VERTEX
  5
AC
  8
METAL
 10
167.3884277343741
 20
-0.0000000000000071
 30
5.138204574584972
 70
   192
  0
VERTEX
  5
AD
  8
METAL
 10
0.0
 20
0.0
 30
0.0
 70
   128
 71
   106
 72
    86
 73
    95
 74
   112
  0
VERTEX
  5
AE
  8
METAL
 10
0.0
 20
0.0
 30
0.0
 70
   128
 71
    96
 72
    97
 73
    93
 74
    91
  0
VERTEX
  5
AF
  8
METAL
 10
0.0
 20
0.0
 30
0.0
 70
   128
 71
   108
 72
     2
 73
    89
 74
    89
  0
VERTEX
  5
B0
  8
METAL
 10
0.0
 20
0.0
 30
0.0
 70
   128
 71
   108
 72
    89
 73
    87
 74
    87
  0
VERTEX
  5
B1
  8
METAL
 10
0.0
 20
0.0
 30
0.0
 70
   128
 71
    10
 72
    13
 73
    88
 74
    92
  0
VERTEX
  5
B2
  8
METAL
 10
0.0
 20
0.0
 30
0.0
 70
   128
 71
   107
 72
   111
 73
   109
 74
   105
  0
VERTEX
  5
B3
  8
METAL
 10
0.0
 20
0.0
 30
0.0
 70
   128
 71
    99
 72
   100
 73
    97
 74
    96
  0
VERTEX
  5
B4
  8
METAL
 10
0.0
 20
0.0
 30
0.0
 70
   128
 71
   101
 72
   102
 73
   100
 74
    99
  0
VERTEX
  5
B5
  8
METAL
 10
0.0
 20
0.0
 30
0.0
 70
   128
 71
   103
 72
   104
 73
   102
 74
   101
  0
VERTEX
  5
B6
  8
METAL
 10
0.0
 20
0.0
 30
0.0
 70
   128
 71
   105
 72
   109
 73
   104
 74
   103
  0
VERTEX
  5
B7
  8
METAL
 10
0.0
 20
0.0
 30
0.0
 70
   128
 71
    77
 72
    74
 73
    76
 74
    79
  0
VERTEX
  5
B8
  8
METAL
 10
0.0
 20
0.0
 30
0.0
 70
   128
 71
    80
 72
    77
 73
    79
 74
    82
  0
VERTEX
  5
B9
  8
METAL
 10
0.0
 20
0.0
 30
0.0
 70
   128
 71
    83
 72
    80
 73
    82
 74
    85
  0
VERTEX
  5
BA
  8
METAL
 10
0.0
 20
0.0
 30
0.0
 70
   128
 71
    88
 72
    83
 73
    85
 74
    92
  0
VERTEX
  5
BB
  8
METAL
 10
0.0
 20
0.0
 30
0.0
 70
   128
 71
     1
 72
    94
 73
    12
 74
   110
  0
VERTEX
  5
BC
  8
METAL
 10
0.0
 20
0.0
 30
0.0
 70
   128
 71
    98
 72
     7
 73
    16
 74
    17
  0
VERTEX
  5
BD
  8
METAL
 10
0.0
 20
0.0
 30
0.0
 70
   128
 71
     2
 72
     4
 73
    84
 74
    89
  0
VERTEX
  5
BE
  8
METAL
 10
0.0
 20
0.0
 30
0.0
 70
   128
 71
     6
 72
    81
 73
    84
 74
     4
  0
VERTEX
  5
BF
  8
METAL
 10
0.0
 20
0.0
 30
0.0
 70
   128
 71
     8
 72
    78
 73
    81
 74
     6
  0
VERTEX
  5
C0
  8
METAL
 10
0.0
 20
0.0
 30
0.0
 70
   128
 71
     9
 72
    75
 73
    78
 74
     8
  0
VERTEX
  5
C1
  8
METAL
 10
0.0
 20
0.0
 30
0.0
 70
   128
 71
     7
 72
     5
 73
    15
 74
    16
  0
VERTEX
  5
C2
  8
METAL
 10
0.0
 20
0.0
 30
0.0
 70
   128
 71
     5
 72
     3
 73
    14
 74
    15
  0
VERTEX
  5
C3
  8
METAL
 10
0.0
 20
0.0
 30
0.0
 70
   128
 71
   110
 72
    12
 73
    14
 74
     3
  0
VERTEX
  5
C4
  8
METAL
 10
0.0
 20
0.0
 30
0.0
 70
   128
 71
    56
 72
    27
 73
    71
 74
    75
  0
VERTEX
  5
C5
  8
METAL
 10
0.0
 20
0.0
 30
0.0
 70
   128
 71
    90
 72
    56
 73
    75
 74
     9
  0
VERTEX
  5
C6
  8
METAL
 10
0.0
 20
0.0
 30
0.0
 70
   128
 71
    35
 72
    40
 73
    63
 74
    53
  0
VERTEX
  5
C7
  8
METAL
 10
0.0
 20
0.0
 30
0.0
 70
   128
 71
    50
 72
    57
 73
    60
 74
    51
  0
VERTEX
  5
C8
  8
METAL
 10
0.0
 20
0.0
 30
0.0
 70
   128
 71
    36
 72
    26
 73
    25
 74
    33
  0
VERTEX
  5
C9
  8
METAL
 10
0.0
 20
0.0
 30
0.0
 70
   128
 71
    62
 72
    58
 73
    55
 74
    54
  0
VERTEX
  5
CA
  8
METAL
 10
0.0
 20
0.0
 30
0.0
 70
   128
 71
    32
 72
    34
 73
    38
 74
    31
  0
VERTEX
  5
CB
  8
METAL
 10
0.0
 20
0.0
 30
0.0
 70
   128
 71
    57
 72
    91
 73
    93
 74
    60
  0
VERTEX
  5
CC
  8
METAL
 10
0.0
 20
0.0
 30
0.0
 70
   128
 71
    47
 72
    50
 73
    51
 74
    48
  0
VERTEX
  5
CD
  8
METAL
 10
0.0
 20
0.0
 30
0.0
 70
   128
 71
    44
 72
    47
 73
    48
 74
    45
  0
VERTEX
  5
CE
  8
METAL
 10
0.0
 20
0.0
 30
0.0
 70
   128
 71
    41
 72
    44
 73
    45
 74
    42
  0
VERTEX
  5
CF
  8
METAL
 10
0.0
 20
0.0
 30
0.0
 70
   128
 71
    34
 72
    41
 73
    42
 74
    38
  0
VERTEX
  5
D0
  8
METAL
 10
0.0
 20
0.0
 30
0.0
 70
   128
 71
    68
 72
    69
 73
    72
 74
    70
  0
VERTEX
  5
D1
  8
METAL
 10
0.0
 20
0.0
 30
0.0
 70
   128
 71
    66
 72
    67
 73
    69
 74
    68
  0
VERTEX
  5
D2
  8
METAL
 10
0.0
 20
0.0
 30
0.0
 70
   128
 71
    64
 72
    65
 73
    67
 74
    66
  0
VERTEX
  5
D3
  8
METAL
 10
0.0
 20
0.0
 30
0.0
 70
   128
 71
    55
 72
    58
 73
    65
 74
    64
  0
VERTEX
  5
D4
  8
METAL
 10
0.0
 20
0.0
 30
0.0
 70
   128
 71
    59
 72
    24
 73
    39
 74
    37
  0
VERTEX
  5
D5
  8
METAL
 10
0.0
 20
0.0
 30
0.0
 70
   128
 71
    52
 72
    73
 73
    18
 74
    49
  0
VERTEX
  5
D6
  8
METAL
 10
0.0
 20
0.0
 30
0.0
 70
   128
 71
    33
 72
    25
 73
    23
 74
    30
  0
VERTEX
  5
D7
  8
METAL
 10
0.0
 20
0.0
 30
0.0
 70
   128
 71
    29
 72
    30
 73
    23
 74
    21
  0
VERTEX
  5
D8
  8
METAL
 10
0.0
 20
0.0
 30
0.0
 70
   128
 71
    28
 72
    29
 73
    21
 74
    19
  0
VERTEX
  5
D9
  8
METAL
 10
0.0
 20
0.0
 30
0.0
 70
   128
 71
    27
 72
    28
 73
    19
 74
    71
  0
VERTEX
  5
DA
  8
METAL
 10
0.0
 20
0.0
 30
0.0
 70
   128
 71
    49
 72
    18
 73
    20
 74
    46
  0
VERTEX
  5
DB
  8
METAL
 10
0.0
 20
0.0
 30
0.0
 70
   128
 71
    46
 72
    20
 73
    22
 74
    43
  0
VERTEX
  5
DC
  8
METAL
 10
0.0
 20
0.0
 30
0.0
 70
   128
 71
    37
 72
    43
 73
    22
 74
    59
  0
VERTEX
  5
DD
  8
METAL
 10
0.0
 20
0.0
 30
0.0
 70
   128
 71
    11
 72
    98
 73
    17
 74
    61
  0
VERTEX
  5
DE
  8
METAL
 10
0.0
 20
0.0
 30
0.0
 70
   128
 71
    73
 72
    52
 73
    61
 74
    17
  0
VERTEX
  5
DF
  8
METAL
 10
0.0
 20
0.0
 30
0.0
 70
   128
 71
    74
 72
    70
 73
    72
 74
    76
  0
SEQEND
  5
12B
  8
METAL
  0
ENDSEC
  0
EOF
