# Blender v2.91.2 OBJ File: ''
# www.blender.org
mtllib 106.mtl
o 106_-_800a899_x_410a535_-_MD
v 0.039998 -4.300005 0.000000
v 0.039998 -4.300005 60.000000
v 810.039978 -4.300005 0.000000
v 810.039978 -4.300005 60.000000
v 807.039978 -7.300005 0.000000
v 3.040019 -7.300005 0.000000
v 807.039978 -7.300005 4.000000
v 3.040019 -7.300005 4.000000
v 800.039978 -14.300006 4.000000
v 10.039988 -14.300006 4.000000
v 800.039978 -14.300006 60.000000
v 10.039988 -14.300006 60.000000
v 807.039978 -7.300005 0.000000
v 810.039978 -4.300005 0.000000
v 130.040009 -428.300018 4.000000
v 130.040009 -428.300018 60.000004
v 130.040009 -14.300006 4.000000
v 130.040009 -14.300006 60.000004
v 140.039993 -428.300018 4.000000
v 140.039993 -14.300006 4.000000
v 140.039993 -428.300018 60.000004
v 140.039993 -14.300006 60.000004
v 700.039978 -274.300018 4.000000
v 700.039978 -274.300018 60.000004
v 700.039978 -14.300006 4.000000
v 700.039978 -14.300006 60.000004
v 710.039978 -274.300018 4.000000
v 710.039978 -14.300006 4.000000
v 710.039978 -274.300018 60.000004
v 710.039978 -14.300006 60.000004
v 243.039993 -274.300018 4.000000
v 243.039993 -274.300018 60.000004
v 243.039993 -14.300006 4.000000
v 243.039993 -14.300006 60.000004
v 253.039993 -274.300018 4.000000
v 253.039993 -14.300006 4.000000
v 253.039993 -274.300018 60.000004
v 253.039993 -14.300006 60.000004
v 357.039978 -274.300018 4.000000
v 357.039978 -274.300018 60.000004
v 357.039978 -14.300006 4.000000
v 357.039978 -14.300006 60.000004
v 367.040009 -274.300018 4.000000
v 367.040009 -14.300006 4.000000
v 367.040009 -274.300018 60.000004
v 367.040009 -14.300006 60.000004
v 800.039978 -284.299988 4.000000
v 800.039978 -284.299988 60.000004
v 610.040039 -284.299988 4.000000
v 610.040039 -284.299988 60.000004
v 800.039978 -274.300018 4.000000
v 610.040039 -274.300018 4.000000
v 800.039978 -274.300018 60.000004
v 610.040039 -274.300018 60.000004
v 470.040009 -284.299988 4.000000
v 470.040009 -284.299988 60.000004
v 140.039993 -284.299988 4.000000
v 140.039993 -284.299988 60.000004
v 470.040009 -274.300018 4.000000
v 140.039993 -274.300018 4.000000
v 470.040009 -274.300018 60.000004
v 140.039993 -274.300018 60.000004
v 600.040039 -428.300018 4.000000
v 600.040039 -428.300018 60.000004
v 600.040039 -14.300006 4.000000
v 600.040039 -14.300006 60.000004
v 610.040039 -428.300018 4.000000
v 610.040039 -14.300006 4.000000
v 610.040039 -428.300018 60.000004
v 610.040039 -14.300006 60.000004
v 810.039978 -438.300018 0.000000
v 810.039978 -438.300018 60.000000
v 0.040000 -438.300018 0.000000
v 0.040000 -438.300018 60.000000
v 3.040000 -435.299988 0.000000
v 807.039978 -435.299988 0.000000
v 3.040000 -435.299988 4.000000
v 807.039978 -435.299988 4.000000
v 10.040000 -428.299988 4.000000
v 800.039978 -428.299988 4.000000
v 10.040000 -428.299988 60.000000
v 800.039978 -428.299988 60.000000
v 3.040000 -435.299988 0.000000
v 0.040000 -438.300018 0.000000
v 0.040000 -438.299988 0.000000
v 0.040000 -438.299988 60.000000
v 0.040000 -4.300005 0.000000
v 0.040000 -4.300005 60.000000
v 3.040000 -7.300005 0.000000
v 3.040000 -435.299988 0.000000
v 3.040000 -7.300005 4.000000
v 10.040000 -14.300006 4.000000
v 10.040000 -14.300006 60.000000
v 3.040000 -7.300005 0.000000
v 0.040000 -4.300005 0.000000
v 810.039978 -4.300020 0.000000
v 810.039978 -4.300020 60.000000
v 810.039978 -438.300018 0.000000
v 807.039978 -435.299988 0.000000
v 807.039978 -7.300011 0.000000
v 807.039978 -7.300011 4.000000
v 800.039978 -14.300010 4.000000
v 800.039978 -14.300010 60.000000
v 807.039978 -435.299988 0.000000
v 810.039978 -438.300018 0.000000
v 4.040000 -434.300018 4.000000
v 4.040000 -8.300007 4.000000
v 4.040000 -434.300018 0.000000
v 4.040000 -8.300007 0.000000
v 806.039978 -434.300018 4.000000
v 806.039978 -434.300018 0.000000
v 806.039978 -8.300007 4.000000
v 806.039978 -8.300007 0.000000
v 470.040009 -428.300018 4.000000
v 470.040009 -428.300018 60.000004
v 470.040009 -14.300006 4.000000
v 470.040009 -14.300006 60.000004
v 480.040009 -428.300018 4.000000
v 480.040009 -14.300006 4.000000
v 480.040009 -428.300018 60.000004
v 480.040009 -14.300006 60.000004
v 470.040009 -361.299988 4.000000
v 470.040009 -361.299988 60.000004
v 140.039993 -361.299988 4.000000
v 140.039993 -361.299988 60.000004
v 470.040009 -351.299988 4.000000
v 140.039993 -351.299988 4.000000
v 470.040009 -351.299988 60.000004
v 140.039993 -351.299988 60.000004
vn 0.0000 1.0000 0.0000
vn 0.0000 0.0000 -1.0000
vn 0.0000 -1.0000 0.0000
vn 0.0000 0.0000 1.0000
vn 0.7071 -0.7071 0.0000
vn -0.7071 -0.7071 0.0000
vn -1.0000 0.0000 0.0000
vn 1.0000 0.0000 0.0000
vn -0.7071 0.7071 0.0000
vn 0.7071 0.7071 0.0000
usemtl None
s off
f 1//1 2//1 3//1
f 3//1 2//1 4//1
f 5//2 6//2 3//2
f 3//2 6//2 1//2
f 7//3 8//3 5//3
f 5//3 8//3 6//3
f 9//2 10//2 7//2
f 7//2 10//2 8//2
f 11//3 12//3 9//3
f 9//3 12//3 10//3
f 4//4 2//4 11//4
f 11//4 2//4 12//4
f 13//5 14//5 7//5
f 7//5 14//5 4//5
f 7//5 4//5 9//5
f 9//5 4//5 11//5
f 1//6 6//6 8//6
f 10//6 12//6 8//6
f 8//6 12//6 2//6
f 8//6 2//6 1//6
f 15//7 16//7 17//7
f 17//7 16//7 18//7
f 19//2 15//2 20//2
f 20//2 15//2 17//2
f 21//8 19//8 22//8
f 22//8 19//8 20//8
f 16//4 21//4 18//4
f 18//4 21//4 22//4
f 19//3 21//3 15//3
f 15//3 21//3 16//3
f 22//1 20//1 18//1
f 18//1 20//1 17//1
f 23//7 24//7 25//7
f 25//7 24//7 26//7
f 27//2 23//2 28//2
f 28//2 23//2 25//2
f 29//8 27//8 30//8
f 30//8 27//8 28//8
f 24//4 29//4 26//4
f 26//4 29//4 30//4
f 27//3 29//3 23//3
f 23//3 29//3 24//3
f 30//1 28//1 26//1
f 26//1 28//1 25//1
f 31//7 32//7 33//7
f 33//7 32//7 34//7
f 35//2 31//2 36//2
f 36//2 31//2 33//2
f 37//8 35//8 38//8
f 38//8 35//8 36//8
f 32//4 37//4 34//4
f 34//4 37//4 38//4
f 35//3 37//3 31//3
f 31//3 37//3 32//3
f 38//1 36//1 34//1
f 34//1 36//1 33//1
f 39//7 40//7 41//7
f 41//7 40//7 42//7
f 43//2 39//2 44//2
f 44//2 39//2 41//2
f 45//8 43//8 46//8
f 46//8 43//8 44//8
f 40//4 45//4 42//4
f 42//4 45//4 46//4
f 43//3 45//3 39//3
f 39//3 45//3 40//3
f 46//1 44//1 42//1
f 42//1 44//1 41//1
f 47//3 48//3 49//3
f 49//3 48//3 50//3
f 51//2 47//2 52//2
f 52//2 47//2 49//2
f 53//1 51//1 54//1
f 54//1 51//1 52//1
f 48//4 53//4 50//4
f 50//4 53//4 54//4
f 51//8 53//8 47//8
f 47//8 53//8 48//8
f 54//7 52//7 50//7
f 50//7 52//7 49//7
f 55//3 56//3 57//3
f 57//3 56//3 58//3
f 59//2 55//2 60//2
f 60//2 55//2 57//2
f 61//1 59//1 62//1
f 62//1 59//1 60//1
f 56//4 61//4 58//4
f 58//4 61//4 62//4
f 59//8 61//8 55//8
f 55//8 61//8 56//8
f 62//7 60//7 58//7
f 58//7 60//7 57//7
f 63//7 64//7 65//7
f 65//7 64//7 66//7
f 67//2 63//2 68//2
f 68//2 63//2 65//2
f 69//8 67//8 70//8
f 70//8 67//8 68//8
f 64//4 69//4 66//4
f 66//4 69//4 70//4
f 67//3 69//3 63//3
f 63//3 69//3 64//3
f 70//1 68//1 66//1
f 66//1 68//1 65//1
f 71//3 72//3 73//3
f 73//3 72//3 74//3
f 75//2 76//2 73//2
f 73//2 76//2 71//2
f 77//1 78//1 75//1
f 75//1 78//1 76//1
f 79//2 80//2 77//2
f 77//2 80//2 78//2
f 81//1 82//1 79//1
f 79//1 82//1 80//1
f 74//4 72//4 81//4
f 81//4 72//4 82//4
f 83//9 84//9 77//9
f 77//9 84//9 74//9
f 77//9 74//9 79//9
f 79//9 74//9 81//9
f 71//10 76//10 78//10
f 80//10 82//10 78//10
f 78//10 82//10 72//10
f 78//10 72//10 71//10
f 85//7 86//7 87//7
f 87//7 86//7 88//7
f 89//2 90//2 87//2
f 87//2 90//2 85//2
f 91//8 77//8 89//8
f 89//8 77//8 90//8
f 92//2 79//2 91//2
f 91//2 79//2 77//2
f 93//8 81//8 92//8
f 92//8 81//8 79//8
f 88//4 86//4 93//4
f 93//4 86//4 81//4
f 94//10 95//10 91//10
f 91//10 95//10 88//10
f 91//10 88//10 92//10
f 92//10 88//10 93//10
f 85//5 90//5 77//5
f 79//5 81//5 77//5
f 77//5 81//5 86//5
f 77//5 86//5 85//5
f 96//8 97//8 98//8
f 98//8 97//8 72//8
f 99//2 100//2 98//2
f 98//2 100//2 96//2
f 78//7 101//7 99//7
f 99//7 101//7 100//7
f 80//2 102//2 78//2
f 78//2 102//2 101//2
f 82//7 103//7 80//7
f 80//7 103//7 102//7
f 72//4 97//4 82//4
f 82//4 97//4 103//4
f 104//6 105//6 78//6
f 78//6 105//6 72//6
f 78//6 72//6 80//6
f 80//6 72//6 82//6
f 96//9 100//9 101//9
f 102//9 103//9 101//9
f 101//9 103//9 97//9
f 101//9 97//9 96//9
f 106//7 107//7 108//7
f 108//7 107//7 109//7
f 110//3 106//3 111//3
f 111//3 106//3 108//3
f 112//8 110//8 113//8
f 113//8 110//8 111//8
f 107//1 112//1 109//1
f 109//1 112//1 113//1
f 110//4 112//4 106//4
f 106//4 112//4 107//4
f 113//2 111//2 109//2
f 109//2 111//2 108//2
f 114//7 115//7 116//7
f 116//7 115//7 117//7
f 118//2 114//2 119//2
f 119//2 114//2 116//2
f 120//8 118//8 121//8
f 121//8 118//8 119//8
f 115//4 120//4 117//4
f 117//4 120//4 121//4
f 118//3 120//3 114//3
f 114//3 120//3 115//3
f 121//1 119//1 117//1
f 117//1 119//1 116//1
f 122//3 123//3 124//3
f 124//3 123//3 125//3
f 126//2 122//2 127//2
f 127//2 122//2 124//2
f 128//1 126//1 129//1
f 129//1 126//1 127//1
f 123//4 128//4 125//4
f 125//4 128//4 129//4
f 126//8 128//8 122//8
f 122//8 128//8 123//8
f 129//7 127//7 125//7
f 125//7 127//7 124//7
