# Blender v2.82 (sub 7) OBJ File: ''
# www.blender.org
mtllib 116.mtl
o 116_-_400a499_x_410a535_-_MD.01_-_S
v 410.000000 0.000000 56.000004
v 0.000004 0.000000 0.000000
v 0.000004 0.000000 56.000004
v 410.000000 0.000000 0.000000
v 400.000000 -10.000000 0.000000
v 9.999994 -10.000000 0.000000
v 9.999994 -10.000000 56.000004
v 400.000000 -10.000000 56.000004
v 410.000000 -435.000000 0.000000
v 0.000000 -435.000000 56.000004
v 0.000000 -435.000000 0.000000
v 410.000000 -435.000000 56.000004
v 10.000000 -425.000000 0.000000
v 400.000000 -425.000000 0.000000
v 400.000000 -425.000000 56.000004
v 10.000000 -425.000000 56.000004
v 399.999969 -357.000031 0.000000
v 140.000015 -357.000031 56.000004
v 140.000015 -357.000031 0.000000
v 399.999969 -357.000031 56.000004
v 140.000015 -347.000000 0.000000
v 399.999969 -347.000000 0.000000
v 399.999969 -347.000000 56.000004
v 140.000015 -347.000000 56.000004
v 130.000000 -425.000000 56.000004
v 130.000000 -10.000000 0.000000
v 130.000000 -425.000000 0.000000
v 130.000000 -10.000000 56.000004
v 140.000015 -425.000000 0.000000
v 140.000015 -10.000000 0.000000
v 140.000015 -10.000000 56.000004
v 140.000015 -425.000000 56.000004
v 399.999969 -280.000000 0.000000
v 140.000015 -280.000000 56.000004
v 140.000015 -280.000000 0.000000
v 399.999969 -280.000000 56.000004
v 140.000015 -270.000000 0.000000
v 399.999969 -270.000000 0.000000
v 399.999969 -270.000000 56.000004
v 140.000015 -270.000000 56.000004
v 310.000000 -270.000000 56.000004
v 310.000000 -10.000000 0.000000
v 310.000000 -270.000000 0.000000
v 310.000000 -10.000000 56.000004
v 320.000000 -270.000000 0.000000
v 320.000000 -10.000000 0.000000
v 320.000000 -10.000000 56.000004
v 320.000000 -270.000000 56.000004
v 220.000015 -270.000000 56.000004
v 220.000015 -10.000000 0.000000
v 220.000015 -270.000000 0.000000
v 220.000015 -10.000000 56.000004
v 230.000000 -270.000000 0.000000
v 230.000000 -10.000000 0.000000
v 230.000000 -10.000000 56.000004
v 230.000000 -270.000000 56.000004
vn 0.0000 1.0000 0.0000
vn 0.0000 0.0000 -1.0000
vn 0.0000 -1.0000 0.0000
vn 0.0000 0.0000 1.0000
vn 0.7071 -0.7071 0.0000
vn -0.7071 -0.7071 0.0000
vn -0.7071 0.7071 0.0000
vn 0.7071 0.7071 0.0000
vn 1.0000 0.0000 0.0000
vn -1.0000 0.0000 0.0000
usemtl None
s off
f 1//1 2//1 3//1
f 2//1 1//1 4//1
f 5//2 2//2 4//2
f 2//2 5//2 6//2
f 5//3 7//3 6//3
f 7//3 5//3 8//3
f 7//4 1//4 3//4
f 1//4 7//4 8//4
f 1//5 5//5 4//5
f 5//5 1//5 8//5
f 7//6 2//6 6//6
f 2//6 7//6 3//6
f 9//3 10//3 11//3
f 10//3 9//3 12//3
f 9//2 13//2 14//2
f 13//2 9//2 11//2
f 15//1 13//1 16//1
f 13//1 15//1 14//1
f 10//4 15//4 16//4
f 15//4 10//4 12//4
f 10//7 13//7 11//7
f 13//7 10//7 16//7
f 15//8 9//8 14//8
f 9//8 15//8 12//8
f 17//3 18//3 19//3
f 18//3 17//3 20//3
f 17//2 21//2 22//2
f 21//2 17//2 19//2
f 23//1 21//1 24//1
f 21//1 23//1 22//1
f 18//4 23//4 24//4
f 23//4 18//4 20//4
f 23//9 17//9 22//9
f 17//9 23//9 20//9
f 18//10 21//10 19//10
f 21//10 18//10 24//10
f 10//10 2//10 11//10
f 2//10 10//10 3//10
f 6//2 11//2 2//2
f 11//2 6//2 13//2
f 7//9 13//9 6//9
f 13//9 7//9 16//9
f 10//4 7//4 3//4
f 7//4 10//4 16//4
f 3//8 6//8 2//8
f 6//8 3//8 7//8
f 16//5 11//5 13//5
f 11//5 16//5 10//5
f 25//10 26//10 27//10
f 26//10 25//10 28//10
f 29//2 26//2 30//2
f 26//2 29//2 27//2
f 31//9 29//9 30//9
f 29//9 31//9 32//9
f 25//4 31//4 28//4
f 31//4 25//4 32//4
f 29//3 25//3 27//3
f 25//3 29//3 32//3
f 31//1 26//1 28//1
f 26//1 31//1 30//1
f 33//3 34//3 35//3
f 34//3 33//3 36//3
f 33//2 37//2 38//2
f 37//2 33//2 35//2
f 39//1 37//1 40//1
f 37//1 39//1 38//1
f 34//4 39//4 40//4
f 39//4 34//4 36//4
f 39//9 33//9 38//9
f 33//9 39//9 36//9
f 34//10 37//10 35//10
f 37//10 34//10 40//10
f 41//10 42//10 43//10
f 42//10 41//10 44//10
f 45//2 42//2 46//2
f 42//2 45//2 43//2
f 47//9 45//9 46//9
f 45//9 47//9 48//9
f 41//4 47//4 44//4
f 47//4 41//4 48//4
f 45//3 41//3 43//3
f 41//3 45//3 48//3
f 47//1 42//1 44//1
f 42//1 47//1 46//1
f 1//9 9//9 4//9
f 9//9 1//9 12//9
f 9//2 5//2 4//2
f 5//2 9//2 14//2
f 15//10 5//10 14//10
f 5//10 15//10 8//10
f 8//4 12//4 1//4
f 12//4 8//4 15//4
f 12//6 14//6 9//6
f 14//6 12//6 15//6
f 8//7 4//7 5//7
f 4//7 8//7 1//7
f 49//10 50//10 51//10
f 50//10 49//10 52//10
f 53//2 50//2 54//2
f 50//2 53//2 51//2
f 55//9 53//9 54//9
f 53//9 55//9 56//9
f 49//4 55//4 52//4
f 55//4 49//4 56//4
f 53//3 49//3 51//3
f 49//3 53//3 56//3
f 55//1 50//1 52//1
f 50//1 55//1 54//1
