# Blender v2.82 (sub 7) OBJ File: ''
# www.blender.org
mtllib 119.mtl
o 119_-_700a799_x_410a535_-_MD.01_-_S
v 470.000031 -357.000000 0.000000
v 140.000000 -357.000000 56.000000
v 140.000000 -357.000000 0.000000
v 470.000031 -357.000000 56.000000
v 140.000000 -347.000000 0.000000
v 470.000031 -347.000000 0.000000
v 470.000031 -347.000000 56.000000
v 140.000000 -347.000000 56.000000
v 243.000000 -270.000000 56.000000
v 243.000000 -10.000000 0.000000
v 243.000000 -270.000000 0.000000
v 243.000000 -10.000000 56.000000
v 253.000000 -270.000000 0.000000
v 253.000000 -10.000000 0.000000
v 253.000000 -10.000000 56.000000
v 253.000000 -270.000000 56.000000
v 0.000000 -435.000000 56.000000
v 0.000000 0.000000 0.000000
v 0.000000 -435.000000 0.000000
v 0.000000 0.000000 56.000000
v 10.000004 -10.000000 0.000000
v 10.000004 -425.000031 0.000000
v 10.000004 -10.000000 56.000000
v 10.000004 -425.000031 56.000000
v 130.000000 -425.000000 56.000000
v 130.000000 -10.000000 0.000000
v 130.000000 -425.000000 0.000000
v 130.000000 -10.000000 56.000000
v 140.000000 -425.000000 0.000000
v 140.000000 -10.000000 0.000000
v 140.000000 -10.000000 56.000000
v 140.000000 -425.000000 56.000000
v 470.000000 -425.000000 56.000000
v 470.000000 -10.000000 0.000000
v 470.000000 -425.000000 0.000000
v 470.000000 -10.000000 56.000000
v 479.999969 -425.000000 0.000000
v 479.999969 -10.000000 0.000000
v 479.999969 -10.000000 56.000000
v 479.999969 -425.000000 56.000000
v 357.000000 -270.000000 56.000000
v 357.000000 -10.000000 0.000000
v 357.000000 -270.000000 0.000000
v 357.000000 -10.000000 56.000000
v 367.000000 -270.000000 0.000000
v 367.000000 -10.000000 0.000000
v 367.000000 -10.000000 56.000000
v 367.000000 -270.000000 56.000000
v 710.000000 -435.000000 0.000000
v 710.000000 -435.000000 56.000000
v 700.000000 -425.000000 0.000000
v 700.000000 -425.000000 56.000000
v 710.000000 0.000000 56.000000
v 710.000000 0.000000 0.000000
v 700.000000 -10.000000 0.000000
v 700.000000 -10.000000 56.000000
v 470.000031 -280.000000 0.000000
v 140.000000 -280.000000 56.000000
v 140.000000 -280.000000 0.000000
v 470.000031 -280.000000 56.000000
v 140.000000 -270.000000 0.000000
v 470.000031 -270.000000 0.000000
v 470.000031 -270.000000 56.000000
v 140.000000 -270.000000 56.000000
v 600.000000 -425.000000 56.000000
v 600.000000 -10.000000 0.000000
v 600.000000 -425.000000 0.000000
v 600.000000 -10.000000 56.000000
v 610.000000 -425.000000 0.000000
v 610.000000 -10.000000 0.000000
v 610.000000 -10.000000 56.000000
v 610.000000 -425.000000 56.000000
vn 0.0000 -1.0000 0.0000
vn 0.0000 0.0000 -1.0000
vn 0.0000 1.0000 0.0000
vn 0.0000 0.0000 1.0000
vn 1.0000 0.0000 0.0000
vn -1.0000 0.0000 0.0000
vn 0.7071 0.7071 0.0000
vn 0.7071 -0.7071 0.0000
vn -0.7071 0.7071 0.0000
vn -0.7071 -0.7071 0.0000
usemtl None
s off
f 1//1 2//1 3//1
f 2//1 1//1 4//1
f 1//2 5//2 6//2
f 5//2 1//2 3//2
f 7//3 5//3 8//3
f 5//3 7//3 6//3
f 2//4 7//4 8//4
f 7//4 2//4 4//4
f 7//5 1//5 6//5
f 1//5 7//5 4//5
f 2//6 5//6 3//6
f 5//6 2//6 8//6
f 9//6 10//6 11//6
f 10//6 9//6 12//6
f 13//2 10//2 14//2
f 10//2 13//2 11//2
f 15//5 13//5 14//5
f 13//5 15//5 16//5
f 9//4 15//4 12//4
f 15//4 9//4 16//4
f 13//1 9//1 11//1
f 9//1 13//1 16//1
f 15//3 10//3 12//3
f 10//3 15//3 14//3
f 17//6 18//6 19//6
f 18//6 17//6 20//6
f 21//2 19//2 18//2
f 19//2 21//2 22//2
f 23//5 22//5 21//5
f 22//5 23//5 24//5
f 17//4 23//4 20//4
f 23//4 17//4 24//4
f 23//7 18//7 20//7
f 18//7 23//7 21//7
f 22//8 17//8 19//8
f 17//8 22//8 24//8
f 25//6 26//6 27//6
f 26//6 25//6 28//6
f 29//2 26//2 30//2
f 26//2 29//2 27//2
f 31//5 29//5 30//5
f 29//5 31//5 32//5
f 25//4 31//4 28//4
f 31//4 25//4 32//4
f 29//1 25//1 27//1
f 25//1 29//1 32//1
f 31//3 26//3 28//3
f 26//3 31//3 30//3
f 33//6 34//6 35//6
f 34//6 33//6 36//6
f 37//2 34//2 38//2
f 34//2 37//2 35//2
f 39//5 37//5 38//5
f 37//5 39//5 40//5
f 33//4 39//4 36//4
f 39//4 33//4 40//4
f 37//1 33//1 35//1
f 33//1 37//1 40//1
f 39//3 34//3 36//3
f 34//3 39//3 38//3
f 41//6 42//6 43//6
f 42//6 41//6 44//6
f 45//2 42//2 46//2
f 42//2 45//2 43//2
f 47//5 45//5 46//5
f 45//5 47//5 48//5
f 41//4 47//4 44//4
f 47//4 41//4 48//4
f 45//1 41//1 43//1
f 41//1 45//1 48//1
f 47//3 42//3 44//3
f 42//3 47//3 46//3
f 49//1 17//1 19//1
f 17//1 49//1 50//1
f 49//2 22//2 51//2
f 22//2 49//2 19//2
f 52//3 22//3 24//3
f 22//3 52//3 51//3
f 24//4 50//4 52//4
f 50//4 24//4 17//4
f 24//9 19//9 17//9
f 19//9 24//9 22//9
f 52//7 49//7 51//7
f 49//7 52//7 50//7
f 53//3 18//3 20//3
f 18//3 53//3 54//3
f 55//2 18//2 54//2
f 18//2 55//2 21//2
f 55//1 23//1 21//1
f 23//1 55//1 56//1
f 23//4 53//4 20//4
f 53//4 23//4 56//4
f 53//8 55//8 54//8
f 55//8 53//8 56//8
f 21//10 20//10 18//10
f 20//10 21//10 23//10
f 57//1 58//1 59//1
f 58//1 57//1 60//1
f 57//2 61//2 62//2
f 61//2 57//2 59//2
f 63//3 61//3 64//3
f 61//3 63//3 62//3
f 58//4 63//4 64//4
f 63//4 58//4 60//4
f 63//5 57//5 62//5
f 57//5 63//5 60//5
f 58//6 61//6 59//6
f 61//6 58//6 64//6
f 65//6 66//6 67//6
f 66//6 65//6 68//6
f 69//2 66//2 70//2
f 66//2 69//2 67//2
f 71//5 69//5 70//5
f 69//5 71//5 72//5
f 65//4 71//4 68//4
f 71//4 65//4 72//4
f 69//1 65//1 67//1
f 65//1 69//1 72//1
f 71//3 66//3 68//3
f 66//3 71//3 70//3
f 54//5 50//5 49//5
f 50//5 54//5 53//5
f 49//2 55//2 54//2
f 55//2 49//2 51//2
f 52//6 55//6 51//6
f 55//6 52//6 56//6
f 56//4 50//4 53//4
f 50//4 56//4 52//4
f 50//10 51//10 49//10
f 51//10 50//10 52//10
f 56//9 54//9 55//9
f 54//9 56//9 53//9
