# Blender v2.91.2 OBJ File: ''
# www.blender.org
mtllib 123.mtl
o 123_-_400a499_x_410a535_-_MD
v 220.039993 -428.300018 4.000000
v 220.039993 -428.300018 60.000004
v 220.039993 -14.300006 4.000000
v 220.039993 -14.300006 60.000004
v 230.039993 -428.300018 4.000000
v 230.039993 -14.300006 4.000000
v 230.039993 -428.300018 60.000004
v 230.039993 -14.300006 60.000004
v 310.040009 -428.300018 4.000000
v 310.040009 -428.300018 60.000004
v 310.040009 -14.300006 4.000000
v 310.040009 -14.300006 60.000004
v 320.039978 -428.300018 4.000000
v 320.039978 -14.300006 4.000000
v 320.039978 -428.300018 60.000004
v 320.039978 -14.300006 60.000004
v 0.040004 -4.300005 -0.000000
v 0.040004 -4.300005 60.000000
v 410.039978 -4.300005 -0.000000
v 410.039978 -4.300005 60.000000
v 407.040009 -7.300005 -0.000000
v 3.039995 -7.300005 -0.000000
v 407.040009 -7.300005 4.000000
v 3.039995 -7.300005 4.000000
v 400.040009 -14.300006 4.000000
v 10.039994 -14.300006 4.000000
v 400.040009 -14.300006 60.000000
v 10.039994 -14.300006 60.000000
v 407.040009 -7.300005 -0.000000
v 410.039978 -4.300005 -0.000000
v 4.040000 -434.300018 4.000000
v 4.040000 -8.300007 4.000000
v 4.040000 -434.300018 0.000000
v 4.040000 -8.300007 0.000000
v 406.040009 -434.300018 4.000000
v 406.040009 -434.300018 0.000000
v 406.040009 -8.300007 4.000000
v 406.040009 -8.300007 0.000000
v 410.039978 -4.300020 -0.000000
v 410.039978 -4.300020 60.000000
v 410.039978 -438.300018 -0.000000
v 410.039978 -438.300018 60.000000
v 407.040009 -435.299988 -0.000000
v 407.040009 -7.300011 -0.000000
v 407.040009 -435.299988 4.000000
v 407.040009 -7.300011 4.000000
v 400.040009 -428.299988 4.000000
v 400.040009 -14.300010 4.000000
v 400.040009 -428.299988 60.000000
v 400.040009 -14.300010 60.000000
v 407.040009 -435.299988 -0.000000
v 410.039978 -438.300018 -0.000000
v 0.040000 -438.299988 0.000000
v 0.040000 -438.299988 60.000000
v 0.040000 -4.300005 0.000000
v 0.040000 -4.300005 60.000000
v 3.040000 -7.300005 0.000000
v 3.040000 -435.299988 0.000000
v 3.040000 -7.300005 4.000000
v 3.040000 -435.299988 4.000000
v 10.040000 -14.300006 4.000000
v 10.040000 -428.299988 4.000000
v 10.040000 -14.300006 60.000000
v 10.040000 -428.299988 60.000000
v 3.040000 -7.300005 0.000000
v 0.040000 -4.300005 0.000000
v 410.039978 -438.300018 0.000000
v 0.040000 -438.300018 0.000000
v 0.040000 -438.300018 60.000000
v 3.040000 -435.299988 0.000000
v 407.040009 -435.299988 0.000000
v 3.040000 -435.299988 0.000000
v 0.040000 -438.300018 0.000000
v 130.040009 -428.300018 4.000000
v 130.040009 -428.300018 60.000004
v 130.040009 -14.300006 4.000000
v 130.040009 -14.300006 60.000004
v 140.039993 -428.300018 4.000000
v 140.039993 -14.300006 4.000000
v 140.039993 -428.300018 60.000004
v 140.039993 -14.300006 60.000004
vn -1.0000 0.0000 0.0000
vn 0.0000 0.0000 -1.0000
vn 1.0000 0.0000 0.0000
vn 0.0000 0.0000 1.0000
vn 0.0000 -1.0000 0.0000
vn 0.0000 1.0000 0.0000
vn 0.7071 -0.7071 0.0000
vn -0.7071 -0.7071 0.0000
vn -0.7071 0.7071 0.0000
vn 0.7071 0.7071 0.0000
usemtl None
s off
f 1//1 2//1 3//1
f 3//1 2//1 4//1
f 5//2 1//2 6//2
f 6//2 1//2 3//2
f 7//3 5//3 8//3
f 8//3 5//3 6//3
f 2//4 7//4 4//4
f 4//4 7//4 8//4
f 5//5 7//5 1//5
f 1//5 7//5 2//5
f 8//6 6//6 4//6
f 4//6 6//6 3//6
f 9//1 10//1 11//1
f 11//1 10//1 12//1
f 13//2 9//2 14//2
f 14//2 9//2 11//2
f 15//3 13//3 16//3
f 16//3 13//3 14//3
f 10//4 15//4 12//4
f 12//4 15//4 16//4
f 13//5 15//5 9//5
f 9//5 15//5 10//5
f 16//6 14//6 12//6
f 12//6 14//6 11//6
f 17//6 18//6 19//6
f 19//6 18//6 20//6
f 21//2 22//2 19//2
f 19//2 22//2 17//2
f 23//5 24//5 21//5
f 21//5 24//5 22//5
f 25//2 26//2 23//2
f 23//2 26//2 24//2
f 27//5 28//5 25//5
f 25//5 28//5 26//5
f 20//4 18//4 27//4
f 27//4 18//4 28//4
f 29//7 30//7 23//7
f 23//7 30//7 20//7
f 23//7 20//7 25//7
f 25//7 20//7 27//7
f 17//8 22//8 24//8
f 26//8 28//8 24//8
f 24//8 28//8 18//8
f 24//8 18//8 17//8
f 31//1 32//1 33//1
f 33//1 32//1 34//1
f 35//5 31//5 36//5
f 36//5 31//5 33//5
f 37//3 35//3 38//3
f 38//3 35//3 36//3
f 32//6 37//6 34//6
f 34//6 37//6 38//6
f 35//4 37//4 31//4
f 31//4 37//4 32//4
f 38//2 36//2 34//2
f 34//2 36//2 33//2
f 39//3 40//3 41//3
f 41//3 40//3 42//3
f 43//2 44//2 41//2
f 41//2 44//2 39//2
f 45//1 46//1 43//1
f 43//1 46//1 44//1
f 47//2 48//2 45//2
f 45//2 48//2 46//2
f 49//1 50//1 47//1
f 47//1 50//1 48//1
f 42//4 40//4 49//4
f 49//4 40//4 50//4
f 51//8 52//8 45//8
f 45//8 52//8 42//8
f 45//8 42//8 47//8
f 47//8 42//8 49//8
f 39//9 44//9 46//9
f 48//9 50//9 46//9
f 46//9 50//9 40//9
f 46//9 40//9 39//9
f 53//1 54//1 55//1
f 55//1 54//1 56//1
f 57//2 58//2 55//2
f 55//2 58//2 53//2
f 59//3 60//3 57//3
f 57//3 60//3 58//3
f 61//2 62//2 59//2
f 59//2 62//2 60//2
f 63//3 64//3 61//3
f 61//3 64//3 62//3
f 56//4 54//4 63//4
f 63//4 54//4 64//4
f 65//10 66//10 59//10
f 59//10 66//10 56//10
f 59//10 56//10 61//10
f 61//10 56//10 63//10
f 53//7 58//7 60//7
f 62//7 64//7 60//7
f 60//7 64//7 54//7
f 60//7 54//7 53//7
f 67//5 42//5 68//5
f 68//5 42//5 69//5
f 70//2 71//2 68//2
f 68//2 71//2 67//2
f 60//6 45//6 70//6
f 70//6 45//6 71//6
f 62//2 47//2 60//2
f 60//2 47//2 45//2
f 64//6 49//6 62//6
f 62//6 49//6 47//6
f 69//4 42//4 64//4
f 64//4 42//4 49//4
f 72//9 73//9 60//9
f 60//9 73//9 69//9
f 60//9 69//9 62//9
f 62//9 69//9 64//9
f 67//10 71//10 45//10
f 47//10 49//10 45//10
f 45//10 49//10 42//10
f 45//10 42//10 67//10
f 74//1 75//1 76//1
f 76//1 75//1 77//1
f 78//2 74//2 79//2
f 79//2 74//2 76//2
f 80//3 78//3 81//3
f 81//3 78//3 79//3
f 75//4 80//4 77//4
f 77//4 80//4 81//4
f 78//5 80//5 74//5
f 74//5 80//5 75//5
f 81//6 79//6 77//6
f 77//6 79//6 76//6
