# Blender v2.91.2 OBJ File: ''
# www.blender.org
mtllib 125.mtl
o 125_-_600a699_x_410a535_-_MD
v 247.040009 -428.300018 4.000000
v 247.040009 -428.300018 60.000004
v 247.040009 -14.300006 4.000000
v 247.040009 -14.300006 60.000004
v 257.040009 -428.300018 4.000000
v 257.040009 -14.300006 4.000000
v 257.040009 -428.300018 60.000004
v 257.040009 -14.300006 60.000004
v 481.040009 -428.300018 4.000000
v 481.040009 -428.300018 60.000004
v 481.040009 -14.300006 4.000000
v 481.040009 -14.300006 60.000004
v 491.039978 -428.300018 4.000000
v 491.039978 -14.300006 4.000000
v 491.039978 -428.300018 60.000004
v 491.039978 -14.300006 60.000004
v 364.039978 -428.300018 4.000000
v 364.039978 -428.300018 60.000004
v 364.039978 -14.300006 4.000000
v 364.039978 -14.300006 60.000004
v 374.040009 -428.300018 4.000000
v 374.040009 -14.300006 4.000000
v 374.040009 -428.300018 60.000004
v 374.040009 -14.300006 60.000004
v 610.040039 -4.300020 0.000000
v 610.040039 -4.300020 60.000000
v 610.040039 -438.300018 0.000000
v 610.040039 -438.300018 60.000000
v 607.039978 -435.299988 0.000000
v 607.039978 -7.300011 0.000000
v 607.039978 -435.299988 4.000000
v 607.039978 -7.300011 4.000000
v 600.040039 -428.299988 4.000000
v 600.040039 -14.300010 4.000000
v 600.040039 -428.299988 60.000000
v 600.040039 -14.300010 60.000000
v 607.039978 -435.299988 0.000000
v 610.040039 -438.300018 0.000000
v 130.040009 -428.300018 4.000000
v 130.040009 -428.300018 60.000004
v 130.040009 -14.300006 4.000000
v 130.040009 -14.300006 60.000004
v 140.039993 -428.300018 4.000000
v 140.039993 -14.300006 4.000000
v 140.039993 -428.300018 60.000004
v 140.039993 -14.300006 60.000004
v 0.040000 -438.299988 0.000000
v 0.040000 -438.299988 60.000000
v 0.040000 -4.300005 0.000000
v 0.040000 -4.300005 60.000000
v 3.040000 -7.300005 0.000000
v 3.040000 -435.299988 0.000000
v 3.040000 -7.300005 4.000000
v 3.040000 -435.299988 4.000000
v 10.040000 -14.300006 4.000000
v 10.040000 -428.299988 4.000000
v 10.040000 -14.300006 60.000000
v 10.040000 -428.299988 60.000000
v 3.040000 -7.300005 0.000000
v 0.040000 -4.300005 0.000000
v 610.040039 -438.300018 0.000000
v 0.040000 -438.300018 0.000000
v 0.040000 -438.300018 60.000000
v 607.039978 -435.299988 0.000000
v 3.040000 -435.299988 0.000000
v 0.040000 -438.300018 0.000000
v 0.039986 -4.300005 0.000000
v 0.039986 -4.300005 60.000000
v 610.040039 -4.300005 0.000000
v 610.040039 -4.300005 60.000000
v 607.039978 -7.300005 0.000000
v 3.040007 -7.300005 0.000000
v 607.039978 -7.300005 4.000000
v 3.040007 -7.300005 4.000000
v 600.040039 -14.300006 4.000000
v 10.039976 -14.300006 4.000000
v 600.040039 -14.300006 60.000000
v 10.039976 -14.300006 60.000000
v 607.039978 -7.300005 0.000000
v 610.040039 -4.300005 0.000000
v 4.040000 -434.300018 4.000000
v 4.040000 -8.300007 4.000000
v 4.040000 -434.300018 0.000000
v 4.040000 -8.300007 0.000000
v 606.039978 -434.300018 4.000000
v 606.039978 -434.300018 0.000000
v 606.039978 -8.300007 4.000000
v 606.039978 -8.300007 0.000000
vn -1.0000 0.0000 0.0000
vn 0.0000 0.0000 -1.0000
vn 1.0000 0.0000 0.0000
vn 0.0000 0.0000 1.0000
vn 0.0000 -1.0000 0.0000
vn 0.0000 1.0000 0.0000
vn -0.7071 -0.7071 0.0000
vn -0.7071 0.7071 0.0000
vn 0.7071 0.7071 0.0000
vn 0.7071 -0.7071 0.0000
usemtl None
s off
f 1//1 2//1 3//1
f 3//1 2//1 4//1
f 5//2 1//2 6//2
f 6//2 1//2 3//2
f 7//3 5//3 8//3
f 8//3 5//3 6//3
f 2//4 7//4 4//4
f 4//4 7//4 8//4
f 5//5 7//5 1//5
f 1//5 7//5 2//5
f 8//6 6//6 4//6
f 4//6 6//6 3//6
f 9//1 10//1 11//1
f 11//1 10//1 12//1
f 13//2 9//2 14//2
f 14//2 9//2 11//2
f 15//3 13//3 16//3
f 16//3 13//3 14//3
f 10//4 15//4 12//4
f 12//4 15//4 16//4
f 13//5 15//5 9//5
f 9//5 15//5 10//5
f 16//6 14//6 12//6
f 12//6 14//6 11//6
f 17//1 18//1 19//1
f 19//1 18//1 20//1
f 21//2 17//2 22//2
f 22//2 17//2 19//2
f 23//3 21//3 24//3
f 24//3 21//3 22//3
f 18//4 23//4 20//4
f 20//4 23//4 24//4
f 21//5 23//5 17//5
f 17//5 23//5 18//5
f 24//6 22//6 20//6
f 20//6 22//6 19//6
f 25//3 26//3 27//3
f 27//3 26//3 28//3
f 29//2 30//2 27//2
f 27//2 30//2 25//2
f 31//1 32//1 29//1
f 29//1 32//1 30//1
f 33//2 34//2 31//2
f 31//2 34//2 32//2
f 35//1 36//1 33//1
f 33//1 36//1 34//1
f 28//4 26//4 35//4
f 35//4 26//4 36//4
f 37//7 38//7 31//7
f 31//7 38//7 28//7
f 31//7 28//7 33//7
f 33//7 28//7 35//7
f 25//8 30//8 32//8
f 34//8 36//8 32//8
f 32//8 36//8 26//8
f 32//8 26//8 25//8
f 39//1 40//1 41//1
f 41//1 40//1 42//1
f 43//2 39//2 44//2
f 44//2 39//2 41//2
f 45//3 43//3 46//3
f 46//3 43//3 44//3
f 40//4 45//4 42//4
f 42//4 45//4 46//4
f 43//5 45//5 39//5
f 39//5 45//5 40//5
f 46//6 44//6 42//6
f 42//6 44//6 41//6
f 47//1 48//1 49//1
f 49//1 48//1 50//1
f 51//2 52//2 49//2
f 49//2 52//2 47//2
f 53//3 54//3 51//3
f 51//3 54//3 52//3
f 55//2 56//2 53//2
f 53//2 56//2 54//2
f 57//3 58//3 55//3
f 55//3 58//3 56//3
f 50//4 48//4 57//4
f 57//4 48//4 58//4
f 59//9 60//9 53//9
f 53//9 60//9 50//9
f 53//9 50//9 55//9
f 55//9 50//9 57//9
f 47//10 52//10 54//10
f 56//10 58//10 54//10
f 54//10 58//10 48//10
f 54//10 48//10 47//10
f 61//5 28//5 62//5
f 62//5 28//5 63//5
f 52//2 64//2 62//2
f 62//2 64//2 61//2
f 54//6 31//6 52//6
f 52//6 31//6 64//6
f 56//2 33//2 54//2
f 54//2 33//2 31//2
f 58//6 35//6 56//6
f 56//6 35//6 33//6
f 63//4 28//4 58//4
f 58//4 28//4 35//4
f 65//8 66//8 54//8
f 54//8 66//8 63//8
f 54//8 63//8 56//8
f 56//8 63//8 58//8
f 61//9 64//9 31//9
f 33//9 35//9 31//9
f 31//9 35//9 28//9
f 31//9 28//9 61//9
f 67//6 68//6 69//6
f 69//6 68//6 70//6
f 71//2 72//2 69//2
f 69//2 72//2 67//2
f 73//5 74//5 71//5
f 71//5 74//5 72//5
f 75//2 76//2 73//2
f 73//2 76//2 74//2
f 77//5 78//5 75//5
f 75//5 78//5 76//5
f 70//4 68//4 77//4
f 77//4 68//4 78//4
f 79//10 80//10 73//10
f 73//10 80//10 70//10
f 73//10 70//10 75//10
f 75//10 70//10 77//10
f 67//7 72//7 74//7
f 76//7 78//7 74//7
f 74//7 78//7 68//7
f 74//7 68//7 67//7
f 81//1 82//1 83//1
f 83//1 82//1 84//1
f 85//5 81//5 86//5
f 86//5 81//5 83//5
f 87//3 85//3 88//3
f 88//3 85//3 86//3
f 82//6 87//6 84//6
f 84//6 87//6 88//6
f 85//4 87//4 81//4
f 81//4 87//4 82//4
f 88//2 86//2 84//2
f 84//2 86//2 83//2
