# Blender v2.91.2 OBJ File: ''
# www.blender.org
mtllib 126.mtl
o 126_-_700a799_x_410a535_-_MD
v 244.039993 -428.300018 4.000000
v 244.039993 -428.300018 60.000004
v 244.039993 -14.300006 4.000000
v 244.039993 -14.300006 60.000004
v 254.040009 -428.300018 4.000000
v 254.040009 -14.300006 4.000000
v 254.040009 -428.300018 60.000004
v 254.040009 -14.300006 60.000004
v 358.040009 -428.300018 4.000000
v 358.040009 -428.300018 60.000004
v 358.040009 -14.300006 4.000000
v 358.040009 -14.300006 60.000004
v 368.040009 -428.300018 4.000000
v 368.040009 -14.300006 4.000000
v 368.040009 -428.300018 60.000004
v 368.040009 -14.300006 60.000004
v 472.040009 -428.300018 4.000000
v 472.040009 -428.300018 60.000004
v 472.040009 -14.300006 4.000000
v 472.040009 -14.300006 60.000004
v 482.039978 -428.300018 4.000000
v 482.039978 -14.300006 4.000000
v 482.039978 -428.300018 60.000004
v 482.039978 -14.300006 60.000004
v 586.040039 -428.300018 4.000000
v 586.040039 -428.300018 60.000004
v 586.040039 -14.300006 4.000000
v 586.040039 -14.300006 60.000004
v 596.040039 -428.300018 4.000000
v 596.040039 -14.300006 4.000000
v 596.040039 -428.300018 60.000004
v 596.040039 -14.300006 60.000004
v 710.039978 -4.300020 -0.000000
v 710.039978 -4.300020 60.000000
v 710.039978 -438.300018 -0.000000
v 710.039978 -438.300018 60.000000
v 707.040039 -435.299988 -0.000000
v 707.040039 -7.300011 -0.000000
v 707.040039 -435.299988 4.000000
v 707.040039 -7.300011 4.000000
v 700.039978 -428.299988 4.000000
v 700.039978 -14.300010 4.000000
v 700.039978 -428.299988 60.000000
v 700.039978 -14.300010 60.000000
v 707.040039 -435.299988 0.000000
v 710.039978 -438.300018 0.000000
v 130.040009 -428.300018 4.000000
v 130.040009 -428.300018 60.000004
v 130.040009 -14.300006 4.000000
v 130.040009 -14.300006 60.000004
v 140.039993 -428.300018 4.000000
v 140.039993 -14.300006 4.000000
v 140.039993 -428.300018 60.000004
v 140.039993 -14.300006 60.000004
v 4.040000 -434.300018 4.000000
v 4.040000 -8.300007 4.000000
v 4.040000 -434.300018 0.000000
v 4.040000 -8.300007 0.000000
v 706.040039 -434.300018 4.000000
v 706.040039 -434.300018 0.000000
v 706.040039 -8.300007 4.000000
v 706.040039 -8.300007 0.000000
v 710.039978 -438.300018 0.000000
v 0.040000 -438.300018 0.000000
v 0.040000 -438.300018 60.000000
v 3.040000 -435.299988 0.000000
v 707.040039 -435.299988 0.000000
v 3.040000 -435.299988 4.000000
v 10.040000 -428.299988 4.000000
v 10.040000 -428.299988 60.000000
v 3.040000 -435.299988 0.000000
v 0.040000 -438.300018 0.000000
v 0.040021 -4.300005 -0.000000
v 0.040021 -4.300005 60.000000
v 710.039978 -4.300005 -0.000000
v 710.039978 -4.300005 60.000000
v 707.040039 -7.300005 -0.000000
v 3.039983 -7.300005 -0.000000
v 707.040039 -7.300005 4.000000
v 3.039983 -7.300005 4.000000
v 700.039978 -14.300006 4.000000
v 10.040012 -14.300006 4.000000
v 700.039978 -14.300006 60.000000
v 10.040012 -14.300006 60.000000
v 707.040039 -7.300005 0.000000
v 710.039978 -4.300005 0.000000
v 0.040000 -438.299988 0.000000
v 0.040000 -438.299988 60.000000
v 0.040000 -4.300005 0.000000
v 0.040000 -4.300005 60.000000
v 3.040000 -7.300005 0.000000
v 3.040000 -435.299988 0.000000
v 3.040000 -7.300005 4.000000
v 10.040000 -14.300006 4.000000
v 10.040000 -14.300006 60.000000
v 3.040000 -7.300005 0.000000
v 0.040000 -4.300005 0.000000
vn -1.0000 0.0000 0.0000
vn 0.0000 0.0000 -1.0000
vn 1.0000 0.0000 0.0000
vn 0.0000 0.0000 1.0000
vn 0.0000 -1.0000 0.0000
vn 0.0000 1.0000 0.0000
vn -0.7071 -0.7071 0.0000
vn -0.7071 0.7071 0.0000
vn 0.7071 0.7071 0.0000
vn 0.7071 -0.7071 0.0000
usemtl None
s off
f 1//1 2//1 3//1
f 3//1 2//1 4//1
f 5//2 1//2 6//2
f 6//2 1//2 3//2
f 7//3 5//3 8//3
f 8//3 5//3 6//3
f 2//4 7//4 4//4
f 4//4 7//4 8//4
f 5//5 7//5 1//5
f 1//5 7//5 2//5
f 8//6 6//6 4//6
f 4//6 6//6 3//6
f 9//1 10//1 11//1
f 11//1 10//1 12//1
f 13//2 9//2 14//2
f 14//2 9//2 11//2
f 15//3 13//3 16//3
f 16//3 13//3 14//3
f 10//4 15//4 12//4
f 12//4 15//4 16//4
f 13//5 15//5 9//5
f 9//5 15//5 10//5
f 16//6 14//6 12//6
f 12//6 14//6 11//6
f 17//1 18//1 19//1
f 19//1 18//1 20//1
f 21//2 17//2 22//2
f 22//2 17//2 19//2
f 23//3 21//3 24//3
f 24//3 21//3 22//3
f 18//4 23//4 20//4
f 20//4 23//4 24//4
f 21//5 23//5 17//5
f 17//5 23//5 18//5
f 24//6 22//6 20//6
f 20//6 22//6 19//6
f 25//1 26//1 27//1
f 27//1 26//1 28//1
f 29//2 25//2 30//2
f 30//2 25//2 27//2
f 31//3 29//3 32//3
f 32//3 29//3 30//3
f 26//4 31//4 28//4
f 28//4 31//4 32//4
f 29//5 31//5 25//5
f 25//5 31//5 26//5
f 32//6 30//6 28//6
f 28//6 30//6 27//6
f 33//3 34//3 35//3
f 35//3 34//3 36//3
f 37//2 38//2 35//2
f 35//2 38//2 33//2
f 39//1 40//1 37//1
f 37//1 40//1 38//1
f 41//2 42//2 39//2
f 39//2 42//2 40//2
f 43//1 44//1 41//1
f 41//1 44//1 42//1
f 36//4 34//4 43//4
f 43//4 34//4 44//4
f 45//7 46//7 39//7
f 39//7 46//7 36//7
f 39//7 36//7 41//7
f 41//7 36//7 43//7
f 33//8 38//8 40//8
f 42//8 44//8 40//8
f 40//8 44//8 34//8
f 40//8 34//8 33//8
f 47//1 48//1 49//1
f 49//1 48//1 50//1
f 51//2 47//2 52//2
f 52//2 47//2 49//2
f 53//3 51//3 54//3
f 54//3 51//3 52//3
f 48//4 53//4 50//4
f 50//4 53//4 54//4
f 51//5 53//5 47//5
f 47//5 53//5 48//5
f 54//6 52//6 50//6
f 50//6 52//6 49//6
f 55//1 56//1 57//1
f 57//1 56//1 58//1
f 59//5 55//5 60//5
f 60//5 55//5 57//5
f 61//3 59//3 62//3
f 62//3 59//3 60//3
f 56//6 61//6 58//6
f 58//6 61//6 62//6
f 59//4 61//4 55//4
f 55//4 61//4 56//4
f 62//2 60//2 58//2
f 58//2 60//2 57//2
f 63//5 36//5 64//5
f 64//5 36//5 65//5
f 66//2 67//2 64//2
f 64//2 67//2 63//2
f 68//6 39//6 66//6
f 66//6 39//6 67//6
f 69//2 41//2 68//2
f 68//2 41//2 39//2
f 70//6 43//6 69//6
f 69//6 43//6 41//6
f 65//4 36//4 70//4
f 70//4 36//4 43//4
f 71//8 72//8 68//8
f 68//8 72//8 65//8
f 68//8 65//8 69//8
f 69//8 65//8 70//8
f 63//9 67//9 39//9
f 41//9 43//9 39//9
f 39//9 43//9 36//9
f 39//9 36//9 63//9
f 73//6 74//6 75//6
f 75//6 74//6 76//6
f 77//2 78//2 75//2
f 75//2 78//2 73//2
f 79//5 80//5 77//5
f 77//5 80//5 78//5
f 81//2 82//2 79//2
f 79//2 82//2 80//2
f 83//5 84//5 81//5
f 81//5 84//5 82//5
f 76//4 74//4 83//4
f 83//4 74//4 84//4
f 85//10 86//10 79//10
f 79//10 86//10 76//10
f 79//10 76//10 81//10
f 81//10 76//10 83//10
f 73//7 78//7 80//7
f 82//7 84//7 80//7
f 80//7 84//7 74//7
f 80//7 74//7 73//7
f 87//1 88//1 89//1
f 89//1 88//1 90//1
f 91//2 92//2 89//2
f 89//2 92//2 87//2
f 93//3 68//3 91//3
f 91//3 68//3 92//3
f 94//2 69//2 93//2
f 93//2 69//2 68//2
f 95//3 70//3 94//3
f 94//3 70//3 69//3
f 90//4 88//4 95//4
f 95//4 88//4 70//4
f 96//9 97//9 93//9
f 93//9 97//9 90//9
f 93//9 90//9 94//9
f 94//9 90//9 95//9
f 87//10 92//10 68//10
f 69//10 70//10 68//10
f 68//10 70//10 88//10
f 68//10 88//10 87//10
