# Blender v2.91.2 OBJ File: ''
# www.blender.org
mtllib 127.mtl
o 127_-_800a899_x_410a535_-_MD
v 241.040009 -428.300018 4.000000
v 241.040009 -428.300018 60.000004
v 241.040009 -14.300006 4.000000
v 241.040009 -14.300006 60.000004
v 251.040009 -428.300018 4.000000
v 251.040009 -14.300006 4.000000
v 251.040009 -428.300018 60.000004
v 251.040009 -14.300006 60.000004
v 463.040009 -428.300018 4.000000
v 463.040009 -428.300018 60.000004
v 463.040009 -14.300006 4.000000
v 463.040009 -14.300006 60.000004
v 473.040009 -428.300018 4.000000
v 473.040009 -14.300006 4.000000
v 473.040009 -428.300018 60.000004
v 473.040009 -14.300006 60.000004
v 574.039978 -428.300018 4.000000
v 574.039978 -428.300018 60.000004
v 574.039978 -14.300006 4.000000
v 574.039978 -14.300006 60.000004
v 584.039978 -428.300018 4.000000
v 584.039978 -14.300006 4.000000
v 584.039978 -428.300018 60.000004
v 584.039978 -14.300006 60.000004
v 685.039978 -428.300018 4.000000
v 685.039978 -428.300018 60.000004
v 685.039978 -14.300006 4.000000
v 685.039978 -14.300006 60.000004
v 695.039978 -428.300018 4.000000
v 695.039978 -14.300006 4.000000
v 695.039978 -428.300018 60.000004
v 695.039978 -14.300006 60.000004
v 352.039978 -428.300018 4.000000
v 352.039978 -428.300018 60.000004
v 352.039978 -14.300006 4.000000
v 352.039978 -14.300006 60.000004
v 362.040009 -428.300018 4.000000
v 362.040009 -14.300006 4.000000
v 362.040009 -428.300018 60.000004
v 362.040009 -14.300006 60.000004
v 130.040009 -428.300018 4.000000
v 130.040009 -428.300018 60.000004
v 130.040009 -14.300006 4.000000
v 130.040009 -14.300006 60.000004
v 140.039993 -428.300018 4.000000
v 140.039993 -14.300006 4.000000
v 140.039993 -428.300018 60.000004
v 140.039993 -14.300006 60.000004
v 810.039978 -438.300018 0.000000
v 810.039978 -438.300018 60.000000
v 0.040000 -438.300018 0.000000
v 0.040000 -438.300018 60.000000
v 3.040000 -435.299988 0.000000
v 807.039978 -435.299988 0.000000
v 3.040000 -435.299988 4.000000
v 807.039978 -435.299988 4.000000
v 10.040000 -428.299988 4.000000
v 800.039978 -428.299988 4.000000
v 10.040000 -428.299988 60.000000
v 800.039978 -428.299988 60.000000
v 3.040000 -435.299988 0.000000
v 0.040000 -438.300018 0.000000
v 0.039998 -4.300005 0.000000
v 0.039998 -4.300005 60.000000
v 810.039978 -4.300005 0.000000
v 810.039978 -4.300005 60.000000
v 807.039978 -7.300005 0.000000
v 3.040019 -7.300005 0.000000
v 807.039978 -7.300005 4.000000
v 3.040019 -7.300005 4.000000
v 800.039978 -14.300006 4.000000
v 10.039988 -14.300006 4.000000
v 800.039978 -14.300006 60.000000
v 10.039988 -14.300006 60.000000
v 807.039978 -7.300005 0.000000
v 810.039978 -4.300005 0.000000
v 0.040000 -438.299988 0.000000
v 0.040000 -438.299988 60.000000
v 0.040000 -4.300005 0.000000
v 0.040000 -4.300005 60.000000
v 3.040000 -7.300005 0.000000
v 3.040000 -435.299988 0.000000
v 3.040000 -7.300005 4.000000
v 10.040000 -14.300006 4.000000
v 10.040000 -14.300006 60.000000
v 3.040000 -7.300005 0.000000
v 0.040000 -4.300005 0.000000
v 810.039978 -4.300020 0.000000
v 810.039978 -4.300020 60.000000
v 810.039978 -438.300018 0.000000
v 807.039978 -435.299988 0.000000
v 807.039978 -7.300011 0.000000
v 807.039978 -7.300011 4.000000
v 800.039978 -14.300010 4.000000
v 800.039978 -14.300010 60.000000
v 807.039978 -435.299988 0.000000
v 810.039978 -438.300018 0.000000
v 4.040000 -434.300018 4.000000
v 4.040000 -8.300007 4.000000
v 4.040000 -434.300018 0.000000
v 4.040000 -8.300007 0.000000
v 806.039978 -434.300018 4.000000
v 806.039978 -434.300018 0.000000
v 806.039978 -8.300007 4.000000
v 806.039978 -8.300007 0.000000
vn -1.0000 0.0000 0.0000
vn 0.0000 0.0000 -1.0000
vn 1.0000 0.0000 0.0000
vn 0.0000 0.0000 1.0000
vn 0.0000 -1.0000 0.0000
vn 0.0000 1.0000 0.0000
vn -0.7071 0.7071 0.0000
vn 0.7071 0.7071 0.0000
vn 0.7071 -0.7071 0.0000
vn -0.7071 -0.7071 0.0000
usemtl None
s off
f 1//1 2//1 3//1
f 3//1 2//1 4//1
f 5//2 1//2 6//2
f 6//2 1//2 3//2
f 7//3 5//3 8//3
f 8//3 5//3 6//3
f 2//4 7//4 4//4
f 4//4 7//4 8//4
f 5//5 7//5 1//5
f 1//5 7//5 2//5
f 8//6 6//6 4//6
f 4//6 6//6 3//6
f 9//1 10//1 11//1
f 11//1 10//1 12//1
f 13//2 9//2 14//2
f 14//2 9//2 11//2
f 15//3 13//3 16//3
f 16//3 13//3 14//3
f 10//4 15//4 12//4
f 12//4 15//4 16//4
f 13//5 15//5 9//5
f 9//5 15//5 10//5
f 16//6 14//6 12//6
f 12//6 14//6 11//6
f 17//1 18//1 19//1
f 19//1 18//1 20//1
f 21//2 17//2 22//2
f 22//2 17//2 19//2
f 23//3 21//3 24//3
f 24//3 21//3 22//3
f 18//4 23//4 20//4
f 20//4 23//4 24//4
f 21//5 23//5 17//5
f 17//5 23//5 18//5
f 24//6 22//6 20//6
f 20//6 22//6 19//6
f 25//1 26//1 27//1
f 27//1 26//1 28//1
f 29//2 25//2 30//2
f 30//2 25//2 27//2
f 31//3 29//3 32//3
f 32//3 29//3 30//3
f 26//4 31//4 28//4
f 28//4 31//4 32//4
f 29//5 31//5 25//5
f 25//5 31//5 26//5
f 32//6 30//6 28//6
f 28//6 30//6 27//6
f 33//1 34//1 35//1
f 35//1 34//1 36//1
f 37//2 33//2 38//2
f 38//2 33//2 35//2
f 39//3 37//3 40//3
f 40//3 37//3 38//3
f 34//4 39//4 36//4
f 36//4 39//4 40//4
f 37//5 39//5 33//5
f 33//5 39//5 34//5
f 40//6 38//6 36//6
f 36//6 38//6 35//6
f 41//1 42//1 43//1
f 43//1 42//1 44//1
f 45//2 41//2 46//2
f 46//2 41//2 43//2
f 47//3 45//3 48//3
f 48//3 45//3 46//3
f 42//4 47//4 44//4
f 44//4 47//4 48//4
f 45//5 47//5 41//5
f 41//5 47//5 42//5
f 48//6 46//6 44//6
f 44//6 46//6 43//6
f 49//5 50//5 51//5
f 51//5 50//5 52//5
f 53//2 54//2 51//2
f 51//2 54//2 49//2
f 55//6 56//6 53//6
f 53//6 56//6 54//6
f 57//2 58//2 55//2
f 55//2 58//2 56//2
f 59//6 60//6 57//6
f 57//6 60//6 58//6
f 52//4 50//4 59//4
f 59//4 50//4 60//4
f 61//7 62//7 55//7
f 55//7 62//7 52//7
f 55//7 52//7 57//7
f 57//7 52//7 59//7
f 49//8 54//8 56//8
f 58//8 60//8 56//8
f 56//8 60//8 50//8
f 56//8 50//8 49//8
f 63//6 64//6 65//6
f 65//6 64//6 66//6
f 67//2 68//2 65//2
f 65//2 68//2 63//2
f 69//5 70//5 67//5
f 67//5 70//5 68//5
f 71//2 72//2 69//2
f 69//2 72//2 70//2
f 73//5 74//5 71//5
f 71//5 74//5 72//5
f 66//4 64//4 73//4
f 73//4 64//4 74//4
f 75//9 76//9 69//9
f 69//9 76//9 66//9
f 69//9 66//9 71//9
f 71//9 66//9 73//9
f 63//10 68//10 70//10
f 72//10 74//10 70//10
f 70//10 74//10 64//10
f 70//10 64//10 63//10
f 77//1 78//1 79//1
f 79//1 78//1 80//1
f 81//2 82//2 79//2
f 79//2 82//2 77//2
f 83//3 55//3 81//3
f 81//3 55//3 82//3
f 84//2 57//2 83//2
f 83//2 57//2 55//2
f 85//3 59//3 84//3
f 84//3 59//3 57//3
f 80//4 78//4 85//4
f 85//4 78//4 59//4
f 86//8 87//8 83//8
f 83//8 87//8 80//8
f 83//8 80//8 84//8
f 84//8 80//8 85//8
f 77//9 82//9 55//9
f 57//9 59//9 55//9
f 55//9 59//9 78//9
f 55//9 78//9 77//9
f 88//3 89//3 90//3
f 90//3 89//3 50//3
f 91//2 92//2 90//2
f 90//2 92//2 88//2
f 56//1 93//1 91//1
f 91//1 93//1 92//1
f 58//2 94//2 56//2
f 56//2 94//2 93//2
f 60//1 95//1 58//1
f 58//1 95//1 94//1
f 50//4 89//4 60//4
f 60//4 89//4 95//4
f 96//10 97//10 56//10
f 56//10 97//10 50//10
f 56//10 50//10 58//10
f 58//10 50//10 60//10
f 88//7 92//7 93//7
f 94//7 95//7 93//7
f 93//7 95//7 89//7
f 93//7 89//7 88//7
f 98//1 99//1 100//1
f 100//1 99//1 101//1
f 102//5 98//5 103//5
f 103//5 98//5 100//5
f 104//3 102//3 105//3
f 105//3 102//3 103//3
f 99//6 104//6 101//6
f 101//6 104//6 105//6
f 102//4 104//4 98//4
f 98//4 104//4 99//4
f 105//2 103//2 101//2
f 101//2 103//2 100//2
