# Blender v2.91.2 OBJ File: ''
# www.blender.org
mtllib 128.mtl
o 128_-_900a999_x_410a535_-_MD
v 570.039978 -428.300018 4.000000
v 570.039978 -428.300018 60.000004
v 570.039978 -14.300006 4.000000
v 570.039978 -14.300006 60.000004
v 580.039978 -428.300018 4.000000
v 580.039978 -14.300006 4.000000
v 580.039978 -428.300018 60.000004
v 580.039978 -14.300006 60.000004
v 790.040039 -428.300018 4.000000
v 790.040039 -428.300018 60.000004
v 790.040039 -14.300006 4.000000
v 790.040039 -14.300006 60.000004
v 800.039978 -428.300018 4.000000
v 800.039978 -14.300006 4.000000
v 800.039978 -428.300018 60.000004
v 800.039978 -14.300006 60.000004
v 240.040009 -428.300018 4.000000
v 240.040009 -428.300018 60.000004
v 240.040009 -14.300006 4.000000
v 240.040009 -14.300006 60.000004
v 250.039993 -428.300018 4.000000
v 250.039993 -14.300006 4.000000
v 250.039993 -428.300018 60.000004
v 250.039993 -14.300006 60.000004
v 350.039978 -428.300018 4.000000
v 350.039978 -428.300018 60.000004
v 350.039978 -14.300006 4.000000
v 350.039978 -14.300006 60.000004
v 360.040009 -428.300018 4.000000
v 360.040009 -14.300006 4.000000
v 360.040009 -428.300018 60.000004
v 360.040009 -14.300006 60.000004
v 460.040009 -428.300018 4.000000
v 460.040009 -428.300018 60.000004
v 460.040009 -14.300006 4.000000
v 460.040009 -14.300006 60.000004
v 470.040009 -428.300018 4.000000
v 470.040009 -14.300006 4.000000
v 470.040009 -428.300018 60.000004
v 470.040009 -14.300006 60.000004
v 680.039978 -428.300018 4.000000
v 680.039978 -428.300018 60.000004
v 680.039978 -14.300006 4.000000
v 680.039978 -14.300006 60.000004
v 690.039978 -428.300018 4.000000
v 690.039978 -14.300006 4.000000
v 690.039978 -428.300018 60.000004
v 690.039978 -14.300006 60.000004
v 0.039974 -4.300005 -0.000000
v 0.039974 -4.300005 60.000000
v 910.040039 -4.300005 -0.000000
v 910.040039 -4.300005 60.000000
v 907.039978 -7.300005 -0.000000
v 3.039995 -7.300005 -0.000000
v 907.039978 -7.300005 4.000000
v 3.039995 -7.300005 4.000000
v 900.039978 -14.300006 4.000000
v 10.040025 -14.300006 4.000000
v 900.039978 -14.300006 60.000000
v 10.040025 -14.300006 60.000000
v 907.039978 -7.300005 -0.000000
v 910.040039 -4.300005 -0.000000
v 910.040039 -4.300020 -0.000000
v 910.040039 -4.300020 60.000000
v 910.040039 -438.300018 -0.000000
v 910.040039 -438.300018 60.000000
v 907.039978 -435.299988 -0.000000
v 907.039978 -7.300011 -0.000000
v 907.039978 -435.299988 4.000000
v 907.039978 -7.300011 4.000000
v 900.039978 -428.299988 4.000000
v 900.039978 -14.300010 4.000000
v 900.039978 -428.299988 60.000000
v 900.039978 -14.300010 60.000000
v 907.039978 -435.299988 -0.000000
v 910.040039 -438.300018 -0.000000
v 0.040000 -438.299988 -0.000000
v 0.040000 -438.299988 60.000000
v 0.040000 -4.300005 -0.000000
v 0.040000 -4.300005 60.000000
v 3.040000 -7.300005 -0.000000
v 3.040000 -435.299988 -0.000000
v 3.040000 -7.300005 4.000000
v 3.040000 -435.299988 4.000000
v 10.040000 -14.300006 4.000000
v 10.040000 -428.299988 4.000000
v 10.040000 -14.300006 60.000000
v 10.040000 -428.299988 60.000000
v 3.040000 -7.300005 0.000000
v 0.040000 -4.300005 0.000000
v 0.040000 -438.299988 -0.000000
v 3.040000 -435.299988 -0.000000
v 910.040039 -438.300018 -0.000000
v 0.040000 -438.300018 -0.000000
v 0.040000 -438.300018 60.000000
v 3.040000 -435.299988 -0.000000
v 907.039978 -435.299988 -0.000000
v 3.040000 -435.299988 -0.000000
v 0.040000 -438.300018 -0.000000
v 130.040009 -428.300018 4.000000
v 130.040009 -428.300018 60.000004
v 130.040009 -14.300006 4.000000
v 130.040009 -14.300006 60.000004
v 140.039993 -428.300018 4.000000
v 140.039993 -14.300006 4.000000
v 140.039993 -428.300018 60.000004
v 140.039993 -14.300006 60.000004
v 4.040000 -434.300018 4.000000
v 4.040000 -8.300007 4.000000
v 4.040000 -434.300018 0.000000
v 4.040000 -8.300007 0.000000
v 906.040039 -434.300018 4.000000
v 906.040039 -434.300018 0.000000
v 906.040039 -8.300007 4.000000
v 906.040039 -8.300007 0.000000
vn -1.0000 0.0000 0.0000
vn 0.0000 0.0000 -1.0000
vn 1.0000 0.0000 0.0000
vn 0.0000 0.0000 1.0000
vn 0.0000 -1.0000 0.0000
vn 0.0000 1.0000 0.0000
vn 0.7071 -0.7071 0.0000
vn -0.7071 -0.7071 0.0000
vn -0.7071 0.7071 0.0000
vn 0.7071 0.7071 0.0000
usemtl None
s off
f 1//1 2//1 3//1
f 3//1 2//1 4//1
f 5//2 1//2 6//2
f 6//2 1//2 3//2
f 7//3 5//3 8//3
f 8//3 5//3 6//3
f 2//4 7//4 4//4
f 4//4 7//4 8//4
f 5//5 7//5 1//5
f 1//5 7//5 2//5
f 8//6 6//6 4//6
f 4//6 6//6 3//6
f 9//1 10//1 11//1
f 11//1 10//1 12//1
f 13//2 9//2 14//2
f 14//2 9//2 11//2
f 15//3 13//3 16//3
f 16//3 13//3 14//3
f 10//4 15//4 12//4
f 12//4 15//4 16//4
f 13//5 15//5 9//5
f 9//5 15//5 10//5
f 16//6 14//6 12//6
f 12//6 14//6 11//6
f 17//1 18//1 19//1
f 19//1 18//1 20//1
f 21//2 17//2 22//2
f 22//2 17//2 19//2
f 23//3 21//3 24//3
f 24//3 21//3 22//3
f 18//4 23//4 20//4
f 20//4 23//4 24//4
f 21//5 23//5 17//5
f 17//5 23//5 18//5
f 24//6 22//6 20//6
f 20//6 22//6 19//6
f 25//1 26//1 27//1
f 27//1 26//1 28//1
f 29//2 25//2 30//2
f 30//2 25//2 27//2
f 31//3 29//3 32//3
f 32//3 29//3 30//3
f 26//4 31//4 28//4
f 28//4 31//4 32//4
f 29//5 31//5 25//5
f 25//5 31//5 26//5
f 32//6 30//6 28//6
f 28//6 30//6 27//6
f 33//1 34//1 35//1
f 35//1 34//1 36//1
f 37//2 33//2 38//2
f 38//2 33//2 35//2
f 39//3 37//3 40//3
f 40//3 37//3 38//3
f 34//4 39//4 36//4
f 36//4 39//4 40//4
f 37//5 39//5 33//5
f 33//5 39//5 34//5
f 40//6 38//6 36//6
f 36//6 38//6 35//6
f 41//1 42//1 43//1
f 43//1 42//1 44//1
f 45//2 41//2 46//2
f 46//2 41//2 43//2
f 47//3 45//3 48//3
f 48//3 45//3 46//3
f 42//4 47//4 44//4
f 44//4 47//4 48//4
f 45//5 47//5 41//5
f 41//5 47//5 42//5
f 48//6 46//6 44//6
f 44//6 46//6 43//6
f 49//6 50//6 51//6
f 51//6 50//6 52//6
f 53//2 54//2 51//2
f 51//2 54//2 49//2
f 55//5 56//5 53//5
f 53//5 56//5 54//5
f 57//2 58//2 55//2
f 55//2 58//2 56//2
f 59//5 60//5 57//5
f 57//5 60//5 58//5
f 52//4 50//4 59//4
f 59//4 50//4 60//4
f 61//7 62//7 55//7
f 55//7 62//7 52//7
f 55//7 52//7 57//7
f 57//7 52//7 59//7
f 49//8 54//8 56//8
f 58//8 60//8 56//8
f 56//8 60//8 50//8
f 56//8 50//8 49//8
f 63//3 64//3 65//3
f 65//3 64//3 66//3
f 67//2 68//2 65//2
f 65//2 68//2 63//2
f 69//1 70//1 67//1
f 67//1 70//1 68//1
f 71//2 72//2 69//2
f 69//2 72//2 70//2
f 73//1 74//1 71//1
f 71//1 74//1 72//1
f 66//4 64//4 73//4
f 73//4 64//4 74//4
f 75//8 76//8 69//8
f 69//8 76//8 66//8
f 69//8 66//8 71//8
f 71//8 66//8 73//8
f 63//9 68//9 70//9
f 72//9 74//9 70//9
f 70//9 74//9 64//9
f 70//9 64//9 63//9
f 77//1 78//1 79//1
f 79//1 78//1 80//1
f 81//2 82//2 79//2
f 79//2 82//2 77//2
f 83//3 84//3 81//3
f 81//3 84//3 82//3
f 85//2 86//2 83//2
f 83//2 86//2 84//2
f 87//3 88//3 85//3
f 85//3 88//3 86//3
f 80//4 78//4 87//4
f 87//4 78//4 88//4
f 89//10 90//10 83//10
f 83//10 90//10 80//10
f 83//10 80//10 85//10
f 85//10 80//10 87//10
f 91//7 92//7 84//7
f 86//7 88//7 84//7
f 84//7 88//7 78//7
f 84//7 78//7 91//7
f 93//5 66//5 94//5
f 94//5 66//5 95//5
f 96//2 97//2 94//2
f 94//2 97//2 93//2
f 84//6 69//6 96//6
f 96//6 69//6 97//6
f 86//2 71//2 84//2
f 84//2 71//2 69//2
f 88//6 73//6 86//6
f 86//6 73//6 71//6
f 95//4 66//4 88//4
f 88//4 66//4 73//4
f 98//9 99//9 84//9
f 84//9 99//9 95//9
f 84//9 95//9 86//9
f 86//9 95//9 88//9
f 93//10 97//10 69//10
f 71//10 73//10 69//10
f 69//10 73//10 66//10
f 69//10 66//10 93//10
f 100//1 101//1 102//1
f 102//1 101//1 103//1
f 104//2 100//2 105//2
f 105//2 100//2 102//2
f 106//3 104//3 107//3
f 107//3 104//3 105//3
f 101//4 106//4 103//4
f 103//4 106//4 107//4
f 104//5 106//5 100//5
f 100//5 106//5 101//5
f 107//6 105//6 103//6
f 103//6 105//6 102//6
f 108//1 109//1 110//1
f 110//1 109//1 111//1
f 112//5 108//5 113//5
f 113//5 108//5 110//5
f 114//3 112//3 115//3
f 115//3 112//3 113//3
f 109//6 114//6 111//6
f 111//6 114//6 115//6
f 112//4 114//4 108//4
f 108//4 114//4 109//4
f 115//2 113//2 111//2
f 111//2 113//2 110//2
