# Blender v2.82 (sub 7) OBJ File: ''
# www.blender.org
mtllib 130.mtl
o 130_-_400a499_x_410a535_-_MD.02_-_S
v 0.000000 -435.000000 56.000000
v 0.000000 0.000000 0.000000
v 0.000000 -435.000000 0.000000
v 0.000000 0.000000 56.000000
v 9.999996 -10.000000 0.000000
v 9.999996 -425.000031 0.000000
v 9.999996 -10.000000 56.000000
v 9.999996 -425.000031 56.000000
v 409.999969 -434.999969 0.000000
v 409.999969 -434.999969 56.000000
v 399.999969 -425.000000 0.000000
v 399.999969 -425.000000 56.000000
v 410.000000 0.000000 56.000000
v 410.000000 0.000000 0.000000
v 399.999969 -10.000000 0.000000
v 399.999969 -10.000000 56.000000
v 309.999969 -425.000000 56.000000
v 309.999969 -10.000000 0.000000
v 309.999969 -425.000000 0.000000
v 309.999969 -10.000000 56.000000
v 320.000000 -425.000000 0.000000
v 320.000000 -10.000000 0.000000
v 320.000000 -10.000000 56.000000
v 320.000000 -425.000000 56.000000
v 220.000000 -425.000000 56.000000
v 220.000000 -10.000000 0.000000
v 220.000000 -425.000000 0.000000
v 220.000000 -10.000000 56.000000
v 230.000000 -425.000000 0.000000
v 230.000000 -10.000000 0.000000
v 230.000000 -10.000000 56.000000
v 230.000000 -425.000000 56.000000
v 129.999985 -425.000000 56.000000
v 129.999985 -10.000000 0.000000
v 129.999985 -425.000000 0.000000
v 129.999985 -10.000000 56.000000
v 140.000000 -425.000000 0.000000
v 140.000000 -10.000000 0.000000
v 140.000000 -10.000000 56.000000
v 140.000000 -425.000000 56.000000
vn -1.0000 0.0000 0.0000
vn 0.0000 0.0000 -1.0000
vn 1.0000 0.0000 0.0000
vn 0.0000 0.0000 1.0000
vn 0.7071 0.7071 0.0000
vn 0.7071 -0.7071 0.0000
vn 0.0000 -1.0000 0.0000
vn -0.0000 1.0000 0.0000
vn -0.7071 0.7071 0.0000
vn -0.7071 -0.7071 0.0000
usemtl None
s off
f 1//1 2//1 3//1
f 2//1 1//1 4//1
f 5//2 3//2 2//2
f 3//2 5//2 6//2
f 7//3 6//3 5//3
f 6//3 7//3 8//3
f 1//4 7//4 4//4
f 7//4 1//4 8//4
f 4//5 5//5 2//5
f 5//5 4//5 7//5
f 6//6 1//6 3//6
f 1//6 6//6 8//6
f 9//7 1//7 3//7
f 1//7 9//7 10//7
f 9//2 6//2 11//2
f 6//2 9//2 3//2
f 12//8 6//8 8//8
f 6//8 12//8 11//8
f 8//4 10//4 12//4
f 10//4 8//4 1//4
f 8//9 3//9 1//9
f 3//9 8//9 6//9
f 10//5 11//5 12//5
f 11//5 10//5 9//5
f 13//8 2//8 4//8
f 2//8 13//8 14//8
f 15//2 2//2 14//2
f 2//2 15//2 5//2
f 15//7 7//7 5//7
f 7//7 15//7 16//7
f 7//4 13//4 4//4
f 13//4 7//4 16//4
f 14//6 16//6 15//6
f 16//6 14//6 13//6
f 7//10 2//10 5//10
f 2//10 7//10 4//10
f 17//1 18//1 19//1
f 18//1 17//1 20//1
f 21//2 18//2 22//2
f 18//2 21//2 19//2
f 23//3 21//3 22//3
f 21//3 23//3 24//3
f 17//4 23//4 20//4
f 23//4 17//4 24//4
f 21//7 17//7 19//7
f 17//7 21//7 24//7
f 23//8 18//8 20//8
f 18//8 23//8 22//8
f 25//1 26//1 27//1
f 26//1 25//1 28//1
f 29//2 26//2 30//2
f 26//2 29//2 27//2
f 31//3 29//3 30//3
f 29//3 31//3 32//3
f 25//4 31//4 28//4
f 31//4 25//4 32//4
f 29//7 25//7 27//7
f 25//7 29//7 32//7
f 31//8 26//8 28//8
f 26//8 31//8 30//8
f 33//1 34//1 35//1
f 34//1 33//1 36//1
f 37//2 34//2 38//2
f 34//2 37//2 35//2
f 39//3 37//3 38//3
f 37//3 39//3 40//3
f 33//4 39//4 36//4
f 39//4 33//4 40//4
f 37//7 33//7 35//7
f 33//7 37//7 40//7
f 39//8 34//8 36//8
f 34//8 39//8 38//8
f 13//3 9//3 14//3
f 9//3 13//3 10//3
f 9//2 15//2 14//2
f 15//2 9//2 11//2
f 12//1 15//1 11//1
f 15//1 12//1 16//1
f 16//4 10//4 13//4
f 10//4 16//4 12//4
f 9//10 12//10 11//10
f 12//10 9//10 10//10
f 13//9 15//9 16//9
f 15//9 13//9 14//9
