# Blender v2.82 (sub 7) OBJ File: ''
# www.blender.org
mtllib 133.mtl
o 133_-_700a799_x_410a535_-_MD.02_-_S
v 244.000000 -425.000000 56.000000
v 244.000000 -10.000000 -0.000000
v 244.000000 -425.000000 -0.000000
v 244.000000 -10.000000 56.000000
v 253.999969 -425.000000 -0.000000
v 253.999969 -10.000000 -0.000000
v 253.999969 -10.000000 56.000000
v 253.999969 -425.000000 56.000000
v 358.000000 -425.000000 56.000000
v 358.000000 -10.000000 -0.000000
v 358.000000 -425.000000 -0.000000
v 358.000000 -10.000000 56.000000
v 367.999969 -425.000000 -0.000000
v 367.999969 -10.000000 -0.000000
v 367.999969 -10.000000 56.000000
v 367.999969 -425.000000 56.000000
v 472.000000 -425.000000 56.000000
v 472.000000 -10.000000 -0.000000
v 472.000000 -425.000000 -0.000000
v 472.000000 -10.000000 56.000000
v 482.000000 -425.000000 -0.000000
v 482.000000 -10.000000 -0.000000
v 482.000000 -10.000000 56.000000
v 482.000000 -425.000000 56.000000
v 586.000000 -425.000000 56.000000
v 586.000000 -10.000000 -0.000000
v 586.000000 -425.000000 -0.000000
v 586.000000 -10.000000 56.000000
v 595.999939 -425.000000 -0.000000
v 595.999939 -10.000000 -0.000000
v 595.999939 -10.000000 56.000000
v 595.999939 -425.000000 56.000000
v 710.000000 -434.999969 -0.000000
v 0.000000 -434.999969 56.000000
v 0.000000 -434.999969 -0.000000
v 710.000000 -434.999969 56.000000
v 9.999996 -425.000000 -0.000000
v 700.000000 -425.000000 -0.000000
v 700.000000 -425.000000 56.000000
v 9.999996 -425.000000 56.000000
v 710.000000 0.000000 56.000000
v 0.000015 0.000000 -0.000000
v 0.000015 0.000000 56.000000
v 710.000000 0.000000 -0.000000
v 700.000000 -10.000000 -0.000000
v 10.000008 -10.000000 -0.000000
v 10.000008 -10.000000 56.000000
v 700.000000 -10.000000 56.000000
v 129.999985 -425.000000 56.000000
v 129.999985 -10.000000 -0.000000
v 129.999985 -425.000000 -0.000000
v 129.999985 -10.000000 56.000000
v 140.000000 -425.000000 -0.000000
v 140.000000 -10.000000 -0.000000
v 140.000000 -10.000000 56.000000
v 140.000000 -425.000000 56.000000
vn -1.0000 0.0000 0.0000
vn 0.0000 0.0000 -1.0000
vn 1.0000 0.0000 0.0000
vn 0.0000 0.0000 1.0000
vn 0.0000 -1.0000 0.0000
vn 0.0000 1.0000 0.0000
vn -0.7071 0.7071 0.0000
vn 0.7071 0.7071 0.0000
vn 0.7071 -0.7071 0.0000
vn -0.7071 -0.7071 0.0000
usemtl None
s off
f 1//1 2//1 3//1
f 2//1 1//1 4//1
f 5//2 2//2 6//2
f 2//2 5//2 3//2
f 7//3 5//3 6//3
f 5//3 7//3 8//3
f 1//4 7//4 4//4
f 7//4 1//4 8//4
f 5//5 1//5 3//5
f 1//5 5//5 8//5
f 7//6 2//6 4//6
f 2//6 7//6 6//6
f 9//1 10//1 11//1
f 10//1 9//1 12//1
f 13//2 10//2 14//2
f 10//2 13//2 11//2
f 15//3 13//3 14//3
f 13//3 15//3 16//3
f 9//4 15//4 12//4
f 15//4 9//4 16//4
f 13//5 9//5 11//5
f 9//5 13//5 16//5
f 15//6 10//6 12//6
f 10//6 15//6 14//6
f 17//1 18//1 19//1
f 18//1 17//1 20//1
f 21//2 18//2 22//2
f 18//2 21//2 19//2
f 23//3 21//3 22//3
f 21//3 23//3 24//3
f 17//4 23//4 20//4
f 23//4 17//4 24//4
f 21//5 17//5 19//5
f 17//5 21//5 24//5
f 23//6 18//6 20//6
f 18//6 23//6 22//6
f 25//1 26//1 27//1
f 26//1 25//1 28//1
f 29//2 26//2 30//2
f 26//2 29//2 27//2
f 31//3 29//3 30//3
f 29//3 31//3 32//3
f 25//4 31//4 28//4
f 31//4 25//4 32//4
f 29//5 25//5 27//5
f 25//5 29//5 32//5
f 31//6 26//6 28//6
f 26//6 31//6 30//6
f 33//5 34//5 35//5
f 34//5 33//5 36//5
f 33//2 37//2 38//2
f 37//2 33//2 35//2
f 39//6 37//6 40//6
f 37//6 39//6 38//6
f 34//4 39//4 40//4
f 39//4 34//4 36//4
f 40//7 35//7 34//7
f 35//7 40//7 37//7
f 36//8 38//8 39//8
f 38//8 36//8 33//8
f 41//6 42//6 43//6
f 42//6 41//6 44//6
f 45//2 42//2 44//2
f 42//2 45//2 46//2
f 45//5 47//5 46//5
f 47//5 45//5 48//5
f 47//4 41//4 43//4
f 41//4 47//4 48//4
f 41//9 45//9 44//9
f 45//9 41//9 48//9
f 47//10 42//10 46//10
f 42//10 47//10 43//10
f 34//1 42//1 35//1
f 42//1 34//1 43//1
f 46//2 35//2 42//2
f 35//2 46//2 37//2
f 47//3 37//3 46//3
f 37//3 47//3 40//3
f 34//4 47//4 43//4
f 47//4 34//4 40//4
f 43//8 46//8 42//8
f 46//8 43//8 47//8
f 37//9 34//9 35//9
f 34//9 37//9 40//9
f 49//1 50//1 51//1
f 50//1 49//1 52//1
f 53//2 50//2 54//2
f 50//2 53//2 51//2
f 55//3 53//3 54//3
f 53//3 55//3 56//3
f 49//4 55//4 52//4
f 55//4 49//4 56//4
f 53//5 49//5 51//5
f 49//5 53//5 56//5
f 55//6 50//6 52//6
f 50//6 55//6 54//6
f 41//3 33//3 44//3
f 33//3 41//3 36//3
f 33//2 45//2 44//2
f 45//2 33//2 38//2
f 39//1 45//1 38//1
f 45//1 39//1 48//1
f 48//4 36//4 41//4
f 36//4 48//4 39//4
f 33//10 39//10 38//10
f 39//10 33//10 36//10
f 48//7 44//7 45//7
f 44//7 48//7 41//7
