# Blender v2.82 (sub 7) OBJ File: ''
# www.blender.org
mtllib 134.mtl
o 134_-_800a899_x_410a535_-_MD.02_-_S
v 685.000000 -425.000000 56.000000
v 685.000000 -10.000000 0.000000
v 685.000000 -425.000000 0.000000
v 685.000000 -10.000000 56.000000
v 695.000000 -425.000000 0.000000
v 695.000000 -10.000000 0.000000
v 695.000000 -10.000000 56.000000
v 695.000000 -425.000000 56.000000
v 241.000000 -425.000000 56.000000
v 241.000000 -10.000000 0.000000
v 241.000000 -425.000000 0.000000
v 241.000000 -10.000000 56.000000
v 251.000000 -425.000000 0.000000
v 251.000000 -10.000000 0.000000
v 251.000000 -10.000000 56.000000
v 251.000000 -425.000000 56.000000
v 352.000000 -425.000000 56.000000
v 352.000000 -10.000000 0.000000
v 352.000000 -425.000000 0.000000
v 352.000000 -10.000000 56.000000
v 362.000000 -425.000000 0.000000
v 362.000000 -10.000000 0.000000
v 362.000000 -10.000000 56.000000
v 362.000000 -425.000000 56.000000
v 462.999969 -425.000000 56.000000
v 462.999969 -10.000000 0.000000
v 462.999969 -425.000000 0.000000
v 462.999969 -10.000000 56.000000
v 473.000000 -425.000000 0.000000
v 473.000000 -10.000000 0.000000
v 473.000000 -10.000000 56.000000
v 473.000000 -425.000000 56.000000
v 574.000000 -425.000000 56.000000
v 574.000000 -10.000000 0.000000
v 574.000000 -425.000000 0.000000
v 574.000000 -10.000000 56.000000
v 584.000000 -425.000000 0.000000
v 584.000000 -10.000000 0.000000
v 584.000000 -10.000000 56.000000
v 584.000000 -425.000000 56.000000
v 810.000000 -434.999969 0.000000
v 0.000000 -434.999969 56.000000
v 0.000000 -434.999969 0.000000
v 810.000000 -434.999969 56.000000
v 9.999996 -425.000000 0.000000
v 800.000000 -425.000000 0.000000
v 800.000000 -425.000000 56.000000
v 9.999996 -425.000000 56.000000
v 0.000000 0.000000 0.000000
v 0.000000 0.000000 56.000000
v 9.999996 -10.000000 0.000000
v 9.999996 -10.000000 56.000000
v 810.000000 0.000000 56.000000
v 810.000000 0.000000 0.000000
v 800.000000 -10.000000 0.000000
v 800.000000 -10.000000 56.000000
v 129.999985 -425.000000 56.000000
v 129.999985 -10.000000 0.000000
v 129.999985 -425.000000 0.000000
v 129.999985 -10.000000 56.000000
v 140.000000 -425.000000 0.000000
v 140.000000 -10.000000 0.000000
v 140.000000 -10.000000 56.000000
v 140.000000 -425.000000 56.000000
vn -1.0000 0.0000 0.0000
vn 0.0000 0.0000 -1.0000
vn 1.0000 0.0000 0.0000
vn 0.0000 0.0000 1.0000
vn 0.0000 -1.0000 0.0000
vn 0.0000 1.0000 0.0000
vn -0.7071 0.7071 0.0000
vn 0.7071 0.7071 0.0000
vn 0.7071 -0.7071 0.0000
vn -0.7071 -0.7071 0.0000
usemtl None
s off
f 1//1 2//1 3//1
f 2//1 1//1 4//1
f 5//2 2//2 6//2
f 2//2 5//2 3//2
f 7//3 5//3 6//3
f 5//3 7//3 8//3
f 1//4 7//4 4//4
f 7//4 1//4 8//4
f 5//5 1//5 3//5
f 1//5 5//5 8//5
f 7//6 2//6 4//6
f 2//6 7//6 6//6
f 9//1 10//1 11//1
f 10//1 9//1 12//1
f 13//2 10//2 14//2
f 10//2 13//2 11//2
f 15//3 13//3 14//3
f 13//3 15//3 16//3
f 9//4 15//4 12//4
f 15//4 9//4 16//4
f 13//5 9//5 11//5
f 9//5 13//5 16//5
f 15//6 10//6 12//6
f 10//6 15//6 14//6
f 17//1 18//1 19//1
f 18//1 17//1 20//1
f 21//2 18//2 22//2
f 18//2 21//2 19//2
f 23//3 21//3 22//3
f 21//3 23//3 24//3
f 17//4 23//4 20//4
f 23//4 17//4 24//4
f 21//5 17//5 19//5
f 17//5 21//5 24//5
f 23//6 18//6 20//6
f 18//6 23//6 22//6
f 25//1 26//1 27//1
f 26//1 25//1 28//1
f 29//2 26//2 30//2
f 26//2 29//2 27//2
f 31//3 29//3 30//3
f 29//3 31//3 32//3
f 25//4 31//4 28//4
f 31//4 25//4 32//4
f 29//5 25//5 27//5
f 25//5 29//5 32//5
f 31//6 26//6 28//6
f 26//6 31//6 30//6
f 33//1 34//1 35//1
f 34//1 33//1 36//1
f 37//2 34//2 38//2
f 34//2 37//2 35//2
f 39//3 37//3 38//3
f 37//3 39//3 40//3
f 33//4 39//4 36//4
f 39//4 33//4 40//4
f 37//5 33//5 35//5
f 33//5 37//5 40//5
f 39//6 34//6 36//6
f 34//6 39//6 38//6
f 41//5 42//5 43//5
f 42//5 41//5 44//5
f 41//2 45//2 46//2
f 45//2 41//2 43//2
f 47//6 45//6 48//6
f 45//6 47//6 46//6
f 42//4 47//4 48//4
f 47//4 42//4 44//4
f 48//7 43//7 42//7
f 43//7 48//7 45//7
f 44//8 46//8 47//8
f 46//8 44//8 41//8
f 42//1 49//1 43//1
f 49//1 42//1 50//1
f 51//2 43//2 49//2
f 43//2 51//2 45//2
f 52//3 45//3 51//3
f 45//3 52//3 48//3
f 42//4 52//4 50//4
f 52//4 42//4 48//4
f 50//8 51//8 49//8
f 51//8 50//8 52//8
f 45//9 42//9 43//9
f 42//9 45//9 48//9
f 53//6 49//6 50//6
f 49//6 53//6 54//6
f 55//2 49//2 54//2
f 49//2 55//2 51//2
f 55//5 52//5 51//5
f 52//5 55//5 56//5
f 52//4 53//4 50//4
f 53//4 52//4 56//4
f 54//9 56//9 55//9
f 56//9 54//9 53//9
f 52//10 49//10 51//10
f 49//10 52//10 50//10
f 53//3 41//3 54//3
f 41//3 53//3 44//3
f 41//2 55//2 54//2
f 55//2 41//2 46//2
f 47//1 55//1 46//1
f 55//1 47//1 56//1
f 56//4 44//4 53//4
f 44//4 56//4 47//4
f 41//10 47//10 46//10
f 47//10 41//10 44//10
f 53//7 55//7 56//7
f 55//7 53//7 54//7
f 57//1 58//1 59//1
f 58//1 57//1 60//1
f 61//2 58//2 62//2
f 58//2 61//2 59//2
f 63//3 61//3 62//3
f 61//3 63//3 64//3
f 57//4 63//4 60//4
f 63//4 57//4 64//4
f 61//5 57//5 59//5
f 57//5 61//5 64//5
f 63//6 58//6 60//6
f 58//6 63//6 62//6
