# Blender v2.82 (sub 7) OBJ File: ''
# www.blender.org
mtllib 135.mtl
o 135_-_900a999_x_410a535_-_MD.02_-_S
v 789.999939 -425.000000 56.000000
v 789.999939 -10.000002 0.000000
v 789.999939 -425.000000 0.000000
v 789.999939 -10.000002 56.000000
v 800.000000 -425.000000 0.000000
v 800.000000 -10.000002 0.000000
v 800.000000 -10.000002 56.000000
v 800.000000 -425.000000 56.000000
v 680.000000 -425.000000 56.000000
v 680.000000 -10.000002 0.000000
v 680.000000 -425.000000 0.000000
v 680.000000 -10.000002 56.000000
v 690.000000 -425.000000 0.000000
v 690.000000 -10.000002 0.000000
v 690.000000 -10.000002 56.000000
v 690.000000 -425.000000 56.000000
v 459.999969 -425.000000 56.000000
v 459.999969 -10.000002 0.000000
v 459.999969 -425.000000 0.000000
v 459.999969 -10.000002 56.000000
v 469.999969 -425.000000 0.000000
v 469.999969 -10.000002 0.000000
v 469.999969 -10.000002 56.000000
v 469.999969 -425.000000 56.000000
v 350.000000 -425.000000 56.000000
v 350.000000 -10.000002 0.000000
v 350.000000 -425.000000 0.000000
v 350.000000 -10.000002 56.000000
v 360.000000 -425.000000 0.000000
v 360.000000 -10.000002 0.000000
v 360.000000 -10.000002 56.000000
v 360.000000 -425.000000 56.000000
v 240.000000 -425.000000 56.000000
v 240.000000 -10.000002 0.000000
v 240.000000 -425.000000 0.000000
v 240.000000 -10.000002 56.000000
v 249.999969 -425.000000 0.000000
v 249.999969 -10.000002 0.000000
v 249.999969 -10.000002 56.000000
v 249.999969 -425.000000 56.000000
v 570.000000 -425.000000 56.000000
v 570.000000 -10.000002 0.000000
v 570.000000 -425.000000 0.000000
v 570.000000 -10.000002 56.000000
v 580.000000 -425.000000 0.000000
v 580.000000 -10.000002 0.000000
v 580.000000 -10.000002 56.000000
v 580.000000 -425.000000 56.000000
v 910.000061 -434.999969 0.000000
v 0.000000 -434.999969 56.000000
v 0.000000 -434.999969 0.000000
v 910.000061 -434.999969 56.000000
v 9.999996 -425.000000 0.000000
v 900.000000 -425.000000 0.000000
v 900.000000 -425.000000 56.000000
v 9.999996 -425.000000 56.000000
v 910.000000 0.000000 56.000000
v 910.000000 0.000000 0.000000
v 900.000000 -9.999990 0.000000
v 900.000000 -9.999990 56.000000
v 129.999985 -425.000000 56.000000
v 129.999985 -10.000002 0.000000
v 129.999985 -425.000000 0.000000
v 129.999985 -10.000002 56.000000
v 140.000000 -425.000000 0.000000
v 140.000000 -10.000002 0.000000
v 140.000000 -10.000002 56.000000
v 140.000000 -425.000000 56.000000
v 0.000000 -0.000002 0.000000
v 0.000000 -0.000002 56.000000
v 9.999996 -10.000002 0.000000
v 9.999996 -10.000002 56.000000
vn -1.0000 0.0000 0.0000
vn 0.0000 0.0000 -1.0000
vn 1.0000 0.0000 0.0000
vn 0.0000 0.0000 1.0000
vn 0.0000 -1.0000 0.0000
vn 0.0000 1.0000 0.0000
vn -0.7071 0.7071 0.0000
vn 0.7071 0.7071 0.0000
vn -0.7071 -0.7071 0.0000
vn 0.7071 -0.7071 0.0000
usemtl None
s off
f 1//1 2//1 3//1
f 2//1 1//1 4//1
f 5//2 2//2 6//2
f 2//2 5//2 3//2
f 7//3 5//3 6//3
f 5//3 7//3 8//3
f 1//4 7//4 4//4
f 7//4 1//4 8//4
f 5//5 1//5 3//5
f 1//5 5//5 8//5
f 7//6 2//6 4//6
f 2//6 7//6 6//6
f 9//1 10//1 11//1
f 10//1 9//1 12//1
f 13//2 10//2 14//2
f 10//2 13//2 11//2
f 15//3 13//3 14//3
f 13//3 15//3 16//3
f 9//4 15//4 12//4
f 15//4 9//4 16//4
f 13//5 9//5 11//5
f 9//5 13//5 16//5
f 15//6 10//6 12//6
f 10//6 15//6 14//6
f 17//1 18//1 19//1
f 18//1 17//1 20//1
f 21//2 18//2 22//2
f 18//2 21//2 19//2
f 23//3 21//3 22//3
f 21//3 23//3 24//3
f 17//4 23//4 20//4
f 23//4 17//4 24//4
f 21//5 17//5 19//5
f 17//5 21//5 24//5
f 23//6 18//6 20//6
f 18//6 23//6 22//6
f 25//1 26//1 27//1
f 26//1 25//1 28//1
f 29//2 26//2 30//2
f 26//2 29//2 27//2
f 31//3 29//3 30//3
f 29//3 31//3 32//3
f 25//4 31//4 28//4
f 31//4 25//4 32//4
f 29//5 25//5 27//5
f 25//5 29//5 32//5
f 31//6 26//6 28//6
f 26//6 31//6 30//6
f 33//1 34//1 35//1
f 34//1 33//1 36//1
f 37//2 34//2 38//2
f 34//2 37//2 35//2
f 39//3 37//3 38//3
f 37//3 39//3 40//3
f 33//4 39//4 36//4
f 39//4 33//4 40//4
f 37//5 33//5 35//5
f 33//5 37//5 40//5
f 39//6 34//6 36//6
f 34//6 39//6 38//6
f 41//1 42//1 43//1
f 42//1 41//1 44//1
f 45//2 42//2 46//2
f 42//2 45//2 43//2
f 47//3 45//3 46//3
f 45//3 47//3 48//3
f 41//4 47//4 44//4
f 47//4 41//4 48//4
f 45//5 41//5 43//5
f 41//5 45//5 48//5
f 47//6 42//6 44//6
f 42//6 47//6 46//6
f 49//5 50//5 51//5
f 50//5 49//5 52//5
f 49//2 53//2 54//2
f 53//2 49//2 51//2
f 55//6 53//6 56//6
f 53//6 55//6 54//6
f 50//4 55//4 56//4
f 55//4 50//4 52//4
f 56//7 51//7 50//7
f 51//7 56//7 53//7
f 52//8 54//8 55//8
f 54//8 52//8 49//8
f 57//3 49//3 58//3
f 49//3 57//3 52//3
f 49//2 59//2 58//2
f 59//2 49//2 54//2
f 55//1 59//1 54//1
f 59//1 55//1 60//1
f 60//4 52//4 57//4
f 52//4 60//4 55//4
f 49//9 55//9 54//9
f 55//9 49//9 52//9
f 57//7 59//7 60//7
f 59//7 57//7 58//7
f 61//1 62//1 63//1
f 62//1 61//1 64//1
f 65//2 62//2 66//2
f 62//2 65//2 63//2
f 67//3 65//3 66//3
f 65//3 67//3 68//3
f 61//4 67//4 64//4
f 67//4 61//4 68//4
f 65//5 61//5 63//5
f 61//5 65//5 68//5
f 67//6 62//6 64//6
f 62//6 67//6 66//6
f 50//1 69//1 51//1
f 69//1 50//1 70//1
f 71//2 51//2 69//2
f 51//2 71//2 53//2
f 72//3 53//3 71//3
f 53//3 72//3 56//3
f 50//4 72//4 70//4
f 72//4 50//4 56//4
f 70//8 71//8 69//8
f 71//8 70//8 72//8
f 53//10 50//10 51//10
f 50//10 53//10 56//10
f 57//6 69//6 70//6
f 69//6 57//6 58//6
f 59//2 69//2 58//2
f 69//2 59//2 71//2
f 59//5 72//5 71//5
f 72//5 59//5 60//5
f 70//4 60//4 57//4
f 60//4 70//4 72//4
f 58//10 60//10 59//10
f 60//10 58//10 57//10
f 72//9 69//9 71//9
f 69//9 72//9 70//9
