# Blender v2.91.2 OBJ File: ''
# www.blender.org
mtllib 156.mtl
o 156
v 103.550003 -332.694000 0.000000
v 103.550003 -328.694000 0.000000
v 202.900009 -332.694000 0.000000
v 202.900009 -328.694000 0.000000
v 306.450012 -328.694000 0.000000
v 306.450012 -332.694000 0.000000
v 207.100006 -328.694000 0.000000
v 207.100006 -332.694000 0.000000
v 0.000000 -332.694000 0.000000
v 0.000000 -328.694000 0.000000
v 99.349998 -332.694000 0.000000
v 99.349998 -328.694000 0.000000
v 0.000000 -332.694000 70.000000
v 0.000000 -328.694000 70.000000
v 202.900009 -332.694000 35.000000
v 207.100006 -332.694000 35.000000
v 410.000000 -332.694000 70.000000
v 99.349998 -332.694000 35.000000
v 103.550003 -332.694000 35.000000
v 310.649994 -332.694000 0.000000
v 410.000000 -332.694000 0.000000
v 310.649994 -332.694000 35.000000
v 306.450012 -332.694000 35.000000
v 410.000000 -328.694000 70.000000
v 410.000000 -328.694000 0.000000
v 310.649994 -328.694000 0.000000
v 306.450012 -328.694000 35.000000
v 310.649994 -328.694000 35.000000
v 207.100006 -328.694000 35.000000
v 202.900009 -328.694000 35.000000
v 103.550003 -328.694000 35.000000
v 99.349998 -328.694000 35.000000
v 103.349998 -113.093994 70.000000
v 99.349998 -113.093994 70.000000
v 103.349998 -218.693985 70.000000
v 99.349998 -218.693985 70.000000
v 99.349998 -328.493988 70.000000
v 103.349998 -328.493988 70.000000
v 99.349998 -222.893997 70.000000
v 103.349998 -222.893997 70.000000
v 103.349998 -3.293994 70.000000
v 99.349998 -3.293994 70.000000
v 103.349998 -108.893990 70.000000
v 99.349998 -108.893990 70.000000
v 103.349998 -3.293994 -0.000000
v 99.349998 -3.293994 -0.000000
v 103.349998 -218.693985 35.000000
v 103.349998 -222.893997 35.000000
v 103.349998 -438.294006 -0.000000
v 103.349998 -108.893990 35.000000
v 103.349998 -113.093994 35.000000
v 103.349998 -332.694000 70.000000
v 103.349998 -438.294006 70.000000
v 103.349998 -332.694000 35.000000
v 103.349998 -328.493988 35.000000
v 99.349998 -438.294006 -0.000000
v 99.349998 -438.294006 70.000000
v 99.349998 -332.694000 70.000000
v 99.349998 -328.493988 35.000000
v 99.349998 -222.893997 35.000000
v 99.349998 -218.693985 35.000000
v 99.349998 -113.093994 35.000000
v 99.349998 -108.893990 35.000000
v 206.899994 -113.093994 70.000000
v 202.899994 -113.093994 70.000000
v 206.899994 -218.693985 70.000000
v 202.899994 -218.693985 70.000000
v 202.899994 -328.493988 70.000000
v 206.899994 -328.493988 70.000000
v 202.899994 -222.893997 70.000000
v 206.899994 -222.893997 70.000000
v 206.899994 -3.293994 70.000000
v 202.899994 -3.293994 70.000000
v 206.899994 -108.893990 70.000000
v 202.899994 -108.893990 70.000000
v 206.899994 -3.293994 -0.000000
v 202.899994 -3.293994 -0.000000
v 206.899994 -218.693985 35.000000
v 206.899994 -222.893997 35.000000
v 206.899994 -438.294006 -0.000000
v 206.899994 -108.893990 35.000000
v 206.899994 -113.093994 35.000000
v 206.899994 -332.694000 70.000000
v 206.899994 -438.294006 70.000000
v 206.899994 -332.694000 35.000000
v 206.899994 -328.493988 35.000000
v 202.899994 -438.294006 -0.000000
v 202.899994 -438.294006 70.000000
v 202.899994 -332.694000 70.000000
v 202.899994 -328.493988 35.000000
v 202.899994 -332.694000 35.000000
v 202.899994 -222.893997 35.000000
v 202.899994 -218.693985 35.000000
v 202.899994 -113.093994 35.000000
v 202.899994 -108.893990 35.000000
v 103.550003 -222.893997 0.000000
v 103.550003 -218.893997 0.000000
v 202.900009 -222.893997 0.000000
v 202.900009 -218.893997 0.000000
v 306.450012 -218.893997 0.000000
v 306.450012 -222.893997 0.000000
v 207.100006 -218.893997 0.000000
v 207.100006 -222.893997 0.000000
v 0.000000 -222.893997 0.000000
v 0.000000 -218.893997 0.000000
v 99.349998 -222.893997 0.000000
v 99.349998 -218.893997 0.000000
v 0.000000 -222.893997 70.000000
v 0.000000 -218.893997 70.000000
v 202.900009 -222.893997 35.000000
v 207.100006 -222.893997 35.000000
v 410.000000 -222.893997 70.000000
v 103.550003 -222.893997 35.000000
v 310.649994 -222.893997 0.000000
v 410.000000 -222.893997 0.000000
v 310.649994 -222.893997 35.000000
v 306.450012 -222.893997 35.000000
v 410.000000 -218.893997 70.000000
v 410.000000 -218.893997 0.000000
v 310.649994 -218.893997 0.000000
v 306.450012 -218.893997 35.000000
v 310.649994 -218.893997 35.000000
v 207.100006 -218.893997 35.000000
v 202.900009 -218.893997 35.000000
v 103.550003 -218.893997 35.000000
v 99.349998 -218.893997 35.000000
v 310.449982 -113.093994 70.000000
v 306.450012 -113.093994 70.000000
v 310.449982 -218.693985 70.000000
v 306.450012 -218.693985 70.000000
v 306.450012 -328.493988 70.000000
v 310.449982 -328.493988 70.000000
v 306.450012 -222.893997 70.000000
v 310.449982 -222.893997 70.000000
v 310.449982 -3.293994 70.000000
v 306.450012 -3.293994 70.000000
v 310.449982 -108.893990 70.000000
v 306.450012 -108.893990 70.000000
v 310.449982 -3.293994 -0.000000
v 306.450012 -3.293994 -0.000000
v 310.449982 -218.693985 35.000000
v 310.449982 -222.893997 35.000000
v 310.449982 -438.294006 -0.000000
v 310.449982 -108.893990 35.000000
v 310.449982 -113.093994 35.000000
v 310.449982 -332.694000 70.000000
v 310.449982 -438.294006 70.000000
v 310.449982 -332.694000 35.000000
v 310.449982 -328.493988 35.000000
v 306.450012 -438.294006 -0.000000
v 306.450012 -438.294006 70.000000
v 306.450012 -332.694000 70.000000
v 306.450012 -328.493988 35.000000
v 306.450012 -218.693985 35.000000
v 306.450012 -113.093994 35.000000
v 306.450012 -108.893990 35.000000
v 103.550003 -113.093994 0.000000
v 103.550003 -109.093994 0.000000
v 202.900009 -113.093994 0.000000
v 202.900009 -109.093994 0.000000
v 306.450012 -109.093994 0.000000
v 306.450012 -113.093994 0.000000
v 207.100006 -109.093994 0.000000
v 207.100006 -113.093994 0.000000
v 0.000000 -113.093994 0.000000
v 0.000000 -109.093994 0.000000
v 99.349998 -113.093994 0.000000
v 99.349998 -109.093994 0.000000
v 0.000000 -113.093994 70.000000
v 0.000000 -109.093994 70.000000
v 202.900009 -113.093994 35.000000
v 207.100006 -113.093994 35.000000
v 410.000000 -113.093994 70.000000
v 103.550003 -113.093994 35.000000
v 310.649994 -113.093994 0.000000
v 410.000000 -113.093994 0.000000
v 310.649994 -113.093994 35.000000
v 410.000000 -109.093994 70.000000
v 410.000000 -109.093994 0.000000
v 310.649994 -109.093994 0.000000
v 306.450012 -109.093994 35.000000
v 310.649994 -109.093994 35.000000
v 207.100006 -109.093994 35.000000
v 202.900009 -109.093994 35.000000
v 103.550003 -109.093994 35.000000
v 99.349998 -109.093994 35.000000
vn 0.0000 0.0000 -1.0000
vn -1.0000 0.0000 0.0000
vn 0.0000 -1.0000 0.0000
vn 1.0000 0.0000 0.0000
vn 0.0000 1.0000 0.0000
vn 0.0000 0.0000 1.0000
usemtl None
s off
f 1//1 2//1 3//1
f 3//1 2//1 4//1
f 5//1 6//1 7//1
f 7//1 6//1 8//1
f 9//1 10//1 11//1
f 11//1 10//1 12//1
f 13//2 14//2 9//2
f 9//2 14//2 10//2
f 15//3 16//3 17//3
f 9//3 11//3 13//3
f 13//3 11//3 18//3
f 13//3 18//3 19//3
f 1//3 3//3 19//3
f 19//3 3//3 15//3
f 19//3 15//3 13//3
f 13//3 15//3 17//3
f 20//3 21//3 22//3
f 22//3 21//3 17//3
f 22//3 17//3 23//3
f 23//3 17//3 16//3
f 23//3 16//3 6//3
f 6//3 16//3 8//3
f 24//4 17//4 25//4
f 25//4 17//4 21//4
f 24//5 25//5 26//5
f 27//5 5//5 7//5
f 26//5 28//5 24//5
f 24//5 28//5 27//5
f 24//5 27//5 29//5
f 29//5 27//5 7//5
f 4//5 2//5 30//5
f 30//5 2//5 31//5
f 12//5 10//5 32//5
f 32//5 10//5 14//5
f 32//5 14//5 31//5
f 31//5 14//5 24//5
f 31//5 24//5 30//5
f 30//5 24//5 29//5
f 17//6 24//6 13//6
f 13//6 24//6 14//6
f 25//1 21//1 26//1
f 26//1 21//1 20//1
f 12//4 32//4 11//4
f 11//4 32//4 18//4
f 32//1 31//1 18//1
f 18//1 31//1 19//1
f 31//2 2//2 19//2
f 19//2 2//2 1//2
f 5//4 27//4 6//4
f 6//4 27//4 23//4
f 27//1 28//1 23//1
f 23//1 28//1 22//1
f 28//2 26//2 22//2
f 22//2 26//2 20//2
f 4//4 30//4 3//4
f 3//4 30//4 15//4
f 30//1 29//1 15//1
f 15//1 29//1 16//1
f 29//2 7//2 16//2
f 16//2 7//2 8//2
f 33//6 34//6 35//6
f 35//6 34//6 36//6
f 37//6 38//6 39//6
f 39//6 38//6 40//6
f 41//6 42//6 43//6
f 43//6 42//6 44//6
f 45//5 46//5 41//5
f 41//5 46//5 42//5
f 47//4 48//4 49//4
f 41//4 43//4 45//4
f 45//4 43//4 50//4
f 45//4 50//4 51//4
f 33//4 35//4 51//4
f 51//4 35//4 47//4
f 51//4 47//4 45//4
f 45//4 47//4 49//4
f 52//4 53//4 54//4
f 54//4 53//4 49//4
f 54//4 49//4 55//4
f 55//4 49//4 48//4
f 55//4 48//4 38//4
f 38//4 48//4 40//4
f 56//3 49//3 57//3
f 57//3 49//3 53//3
f 56//2 57//2 58//2
f 59//2 37//2 39//2
f 58//2 18//2 56//2
f 56//2 18//2 59//2
f 56//2 59//2 60//2
f 60//2 59//2 39//2
f 36//2 34//2 61//2
f 61//2 34//2 62//2
f 44//2 42//2 63//2
f 63//2 42//2 46//2
f 63//2 46//2 62//2
f 62//2 46//2 56//2
f 62//2 56//2 61//2
f 61//2 56//2 60//2
f 49//1 56//1 45//1
f 45//1 56//1 46//1
f 57//6 53//6 58//6
f 58//6 53//6 52//6
f 44//3 63//3 43//3
f 43//3 63//3 50//3
f 63//6 62//6 50//6
f 50//6 62//6 51//6
f 62//5 34//5 51//5
f 51//5 34//5 33//5
f 37//3 59//3 38//3
f 38//3 59//3 55//3
f 59//6 18//6 55//6
f 55//6 18//6 54//6
f 18//5 58//5 54//5
f 54//5 58//5 52//5
f 36//3 61//3 35//3
f 35//3 61//3 47//3
f 61//6 60//6 47//6
f 47//6 60//6 48//6
f 60//5 39//5 48//5
f 48//5 39//5 40//5
f 64//6 65//6 66//6
f 66//6 65//6 67//6
f 68//6 69//6 70//6
f 70//6 69//6 71//6
f 72//6 73//6 74//6
f 74//6 73//6 75//6
f 76//5 77//5 72//5
f 72//5 77//5 73//5
f 78//4 79//4 80//4
f 72//4 74//4 76//4
f 76//4 74//4 81//4
f 76//4 81//4 82//4
f 64//4 66//4 82//4
f 82//4 66//4 78//4
f 82//4 78//4 76//4
f 76//4 78//4 80//4
f 83//4 84//4 85//4
f 85//4 84//4 80//4
f 85//4 80//4 86//4
f 86//4 80//4 79//4
f 86//4 79//4 69//4
f 69//4 79//4 71//4
f 87//3 80//3 88//3
f 88//3 80//3 84//3
f 87//2 88//2 89//2
f 90//2 68//2 70//2
f 89//2 91//2 87//2
f 87//2 91//2 90//2
f 87//2 90//2 92//2
f 92//2 90//2 70//2
f 67//2 65//2 93//2
f 93//2 65//2 94//2
f 75//2 73//2 95//2
f 95//2 73//2 77//2
f 95//2 77//2 94//2
f 94//2 77//2 87//2
f 94//2 87//2 93//2
f 93//2 87//2 92//2
f 80//1 87//1 76//1
f 76//1 87//1 77//1
f 88//6 84//6 89//6
f 89//6 84//6 83//6
f 75//3 95//3 74//3
f 74//3 95//3 81//3
f 95//6 94//6 81//6
f 81//6 94//6 82//6
f 94//5 65//5 82//5
f 82//5 65//5 64//5
f 68//3 90//3 69//3
f 69//3 90//3 86//3
f 90//6 91//6 86//6
f 86//6 91//6 85//6
f 91//5 89//5 85//5
f 85//5 89//5 83//5
f 67//3 93//3 66//3
f 66//3 93//3 78//3
f 93//6 92//6 78//6
f 78//6 92//6 79//6
f 92//5 70//5 79//5
f 79//5 70//5 71//5
f 96//1 97//1 98//1
f 98//1 97//1 99//1
f 100//1 101//1 102//1
f 102//1 101//1 103//1
f 104//1 105//1 106//1
f 106//1 105//1 107//1
f 108//2 109//2 104//2
f 104//2 109//2 105//2
f 110//3 111//3 112//3
f 104//3 106//3 108//3
f 108//3 106//3 60//3
f 108//3 60//3 113//3
f 96//3 98//3 113//3
f 113//3 98//3 110//3
f 113//3 110//3 108//3
f 108//3 110//3 112//3
f 114//3 115//3 116//3
f 116//3 115//3 112//3
f 116//3 112//3 117//3
f 117//3 112//3 111//3
f 117//3 111//3 101//3
f 101//3 111//3 103//3
f 118//4 112//4 119//4
f 119//4 112//4 115//4
f 118//5 119//5 120//5
f 121//5 100//5 102//5
f 120//5 122//5 118//5
f 118//5 122//5 121//5
f 118//5 121//5 123//5
f 123//5 121//5 102//5
f 99//5 97//5 124//5
f 124//5 97//5 125//5
f 107//5 105//5 126//5
f 126//5 105//5 109//5
f 126//5 109//5 125//5
f 125//5 109//5 118//5
f 125//5 118//5 124//5
f 124//5 118//5 123//5
f 112//6 118//6 108//6
f 108//6 118//6 109//6
f 119//1 115//1 120//1
f 120//1 115//1 114//1
f 107//4 126//4 106//4
f 106//4 126//4 60//4
f 126//1 125//1 60//1
f 60//1 125//1 113//1
f 125//2 97//2 113//2
f 113//2 97//2 96//2
f 100//4 121//4 101//4
f 101//4 121//4 117//4
f 121//1 122//1 117//1
f 117//1 122//1 116//1
f 122//2 120//2 116//2
f 116//2 120//2 114//2
f 99//4 124//4 98//4
f 98//4 124//4 110//4
f 124//1 123//1 110//1
f 110//1 123//1 111//1
f 123//2 102//2 111//2
f 111//2 102//2 103//2
f 127//6 128//6 129//6
f 129//6 128//6 130//6
f 131//6 132//6 133//6
f 133//6 132//6 134//6
f 135//6 136//6 137//6
f 137//6 136//6 138//6
f 139//5 140//5 135//5
f 135//5 140//5 136//5
f 141//4 142//4 143//4
f 135//4 137//4 139//4
f 139//4 137//4 144//4
f 139//4 144//4 145//4
f 127//4 129//4 145//4
f 145//4 129//4 141//4
f 145//4 141//4 139//4
f 139//4 141//4 143//4
f 146//4 147//4 148//4
f 148//4 147//4 143//4
f 148//4 143//4 149//4
f 149//4 143//4 142//4
f 149//4 142//4 132//4
f 132//4 142//4 134//4
f 150//3 143//3 151//3
f 151//3 143//3 147//3
f 150//2 151//2 152//2
f 153//2 131//2 133//2
f 152//2 23//2 150//2
f 150//2 23//2 153//2
f 150//2 153//2 117//2
f 117//2 153//2 133//2
f 130//2 128//2 154//2
f 154//2 128//2 155//2
f 138//2 136//2 156//2
f 156//2 136//2 140//2
f 156//2 140//2 155//2
f 155//2 140//2 150//2
f 155//2 150//2 154//2
f 154//2 150//2 117//2
f 143//1 150//1 139//1
f 139//1 150//1 140//1
f 151//6 147//6 152//6
f 152//6 147//6 146//6
f 138//3 156//3 137//3
f 137//3 156//3 144//3
f 156//6 155//6 144//6
f 144//6 155//6 145//6
f 155//5 128//5 145//5
f 145//5 128//5 127//5
f 131//3 153//3 132//3
f 132//3 153//3 149//3
f 153//6 23//6 149//6
f 149//6 23//6 148//6
f 23//5 152//5 148//5
f 148//5 152//5 146//5
f 130//3 154//3 129//3
f 129//3 154//3 141//3
f 154//6 117//6 141//6
f 141//6 117//6 142//6
f 117//5 133//5 142//5
f 142//5 133//5 134//5
f 157//1 158//1 159//1
f 159//1 158//1 160//1
f 161//1 162//1 163//1
f 163//1 162//1 164//1
f 165//1 166//1 167//1
f 167//1 166//1 168//1
f 169//2 170//2 165//2
f 165//2 170//2 166//2
f 171//3 172//3 173//3
f 165//3 167//3 169//3
f 169//3 167//3 62//3
f 169//3 62//3 174//3
f 157//3 159//3 174//3
f 174//3 159//3 171//3
f 174//3 171//3 169//3
f 169//3 171//3 173//3
f 175//3 176//3 177//3
f 177//3 176//3 173//3
f 177//3 173//3 155//3
f 155//3 173//3 172//3
f 155//3 172//3 162//3
f 162//3 172//3 164//3
f 178//4 173//4 179//4
f 179//4 173//4 176//4
f 178//5 179//5 180//5
f 181//5 161//5 163//5
f 180//5 182//5 178//5
f 178//5 182//5 181//5
f 178//5 181//5 183//5
f 183//5 181//5 163//5
f 160//5 158//5 184//5
f 184//5 158//5 185//5
f 168//5 166//5 186//5
f 186//5 166//5 170//5
f 186//5 170//5 185//5
f 185//5 170//5 178//5
f 185//5 178//5 184//5
f 184//5 178//5 183//5
f 173//6 178//6 169//6
f 169//6 178//6 170//6
f 179//1 176//1 180//1
f 180//1 176//1 175//1
f 168//4 186//4 167//4
f 167//4 186//4 62//4
f 186//1 185//1 62//1
f 62//1 185//1 174//1
f 185//2 158//2 174//2
f 174//2 158//2 157//2
f 161//4 181//4 162//4
f 162//4 181//4 155//4
f 181//1 182//1 155//1
f 155//1 182//1 177//1
f 182//2 180//2 177//2
f 177//2 180//2 175//2
f 160//4 184//4 159//4
f 159//4 184//4 171//4
f 184//1 183//1 171//1
f 171//1 183//1 172//1
f 183//2 163//2 172//2
f 172//2 163//2 164//2
