# Blender v3.1.2 OBJ File: ''
# www.blender.org
mtllib 241.mtl
o 241_-_COLMEIA_MD-2_ACRILICO_4MM_(400_A_499mm)x(360_A_535mm)
v 401.000000 -215.399994 70.000000
v 405.000000 -109.800003 70.000000
v 401.000000 -109.800003 70.000000
v 405.000000 -215.399994 70.000000
v 401.000000 -325.199982 70.000000
v 405.000000 -219.600006 70.000000
v 401.000000 -219.600006 70.000000
v 405.000000 -325.199982 70.000000
v 401.000000 -105.599998 70.000000
v 405.000000 0.000000 70.000000
v 401.000000 0.000000 70.000000
v 405.000000 -105.599998 70.000000
v 401.000000 0.000000 0.000000
v 405.000000 0.000000 0.000000
v 405.000000 -105.599998 35.000000
v 405.000000 -435.000000 0.000000
v 405.000000 -215.399994 35.000000
v 405.000000 -109.800003 35.000000
v 405.000000 -325.199982 35.000000
v 405.000000 -219.600006 35.000000
v 405.000000 -329.399994 35.000000
v 405.000000 -435.000000 70.000000
v 405.000000 -329.399994 70.000000
v 401.000000 -435.000000 70.000000
v 401.000000 -435.000000 0.000000
v 401.000000 -329.399994 35.000000
v 401.000000 -329.399994 70.000000
v 401.000000 -219.600006 35.000000
v 401.000000 -325.199982 35.000000
v 401.000000 -109.800003 35.000000
v 401.000000 -215.399994 35.000000
v 401.000000 -105.599998 35.000000
v 284.799988 -215.399994 70.000000
v 288.799988 -109.800003 70.000000
v 284.799988 -109.800003 70.000000
v 288.799988 -215.399994 70.000000
v 284.799988 -325.199982 70.000000
v 288.799988 -219.600006 70.000000
v 284.799988 -219.600006 70.000000
v 288.799988 -325.199982 70.000000
v 284.799988 -105.599998 70.000000
v 288.799988 0.000000 70.000000
v 284.799988 0.000000 70.000000
v 288.799988 -105.599998 70.000000
v 284.799988 0.000000 0.000000
v 288.799988 0.000000 0.000000
v 288.799988 -105.599998 35.000000
v 288.799988 -435.000000 0.000000
v 288.799988 -215.399994 35.000000
v 288.799988 -109.800003 35.000000
v 288.799988 -325.199982 35.000000
v 288.799988 -219.600006 35.000000
v 288.799988 -329.399994 35.000000
v 288.799988 -435.000000 70.000000
v 288.799988 -329.399994 70.000000
v 284.799988 -435.000000 70.000000
v 284.799988 -435.000000 0.000000
v 284.799988 -329.399994 35.000000
v 284.799988 -329.399994 70.000000
v 284.799988 -219.600006 35.000000
v 284.799988 -325.199982 35.000000
v 284.799988 -109.800003 35.000000
v 284.799988 -215.399994 35.000000
v 284.799988 -105.599998 35.000000
v 400.799988 -219.400009 0.000000
v 288.799988 -215.400009 0.000000
v 400.799988 -215.400009 0.000000
v 288.799988 -219.400009 0.000000
v 284.599976 -219.400009 0.000000
v 0.000000 -215.400009 0.000000
v 284.599976 -215.400009 0.000000
v 0.000000 -219.400009 0.000000
v 0.000000 -219.400009 70.000000
v 0.000000 -215.400009 70.000000
v 288.799988 -219.400009 35.000000
v 410.000000 -219.400009 0.000000
v 405.000000 -219.400009 35.000000
v 405.000000 -219.400009 0.000000
v 284.599976 -219.400009 35.000000
v 410.000000 -219.400009 70.000000
v 400.799988 -219.400009 35.000000
v 410.000000 -215.400009 70.000000
v 410.000000 -215.400009 0.000000
v 284.599976 -215.400009 35.000000
v 400.799988 -215.400009 35.000000
v 405.000000 -215.400009 0.000000
v 285.000000 -329.199982 0.000000
v 280.000000 -325.199982 0.000000
v 285.000000 -325.199982 0.000000
v 280.000000 -329.199982 0.000000
v 400.800018 -329.199982 0.000000
v 289.200012 -325.199982 0.000000
v 400.800018 -325.199982 0.000000
v 289.200012 -329.199982 0.000000
v 280.000000 -329.199982 70.000000
v 280.000000 -325.199982 70.000000
v 410.000000 -329.199982 0.000000
v 405.000000 -325.199982 0.000000
v 410.000000 -325.199982 0.000000
v 405.000000 -329.199982 0.000000
v 410.000000 -325.199982 70.000000
v 410.000000 -329.199982 70.000000
v 289.200012 -329.199982 35.000000
v 405.000000 -329.199982 35.000000
v 285.000000 -329.199982 35.000000
v 400.800018 -329.199982 35.000000
v 285.000000 -325.199982 35.000000
v 289.200012 -325.199982 35.000000
v 400.800018 -325.199982 35.000000
v 285.000000 -109.799995 0.000000
v 280.000000 -105.799995 0.000000
v 285.000000 -105.799995 0.000000
v 280.000000 -109.799995 0.000000
v 400.800018 -109.799995 0.000000
v 289.200012 -105.799995 0.000000
v 400.800018 -105.799995 0.000000
v 289.200012 -109.799995 0.000000
v 280.000000 -109.799995 70.000000
v 280.000000 -105.799995 70.000000
v 410.000000 -109.799995 0.000000
v 405.000000 -105.799995 0.000000
v 410.000000 -105.799995 0.000000
v 405.000000 -109.799995 0.000000
v 410.000000 -105.799995 70.000000
v 410.000000 -109.799995 70.000000
v 289.200012 -109.799995 35.000000
v 285.000000 -109.799995 35.000000
v 400.800018 -109.799995 35.000000
v 285.000000 -105.799995 35.000000
v 289.200012 -105.799995 35.000000
v 400.800018 -105.799995 35.000000
v 405.000000 -105.799995 35.000000
vn 0.0000 0.0000 1.0000
vn 0.0000 1.0000 0.0000
vn 1.0000 0.0000 0.0000
vn -1.0000 0.0000 0.0000
vn 0.0000 -1.0000 0.0000
vn -0.0000 0.0000 -1.0000
usemtl None
s off
f 1//1 2//1 3//1
f 2//1 1//1 4//1
f 5//1 6//1 7//1
f 6//1 5//1 8//1
f 9//1 10//1 11//1
f 10//1 9//1 12//1
f 10//2 13//2 11//2
f 13//2 10//2 14//2
f 14//3 15//3 16//3
f 15//3 14//3 10//3
f 15//3 10//3 12//3
f 2//3 17//3 18//3
f 17//3 2//3 4//3
f 6//3 19//3 20//3
f 19//3 6//3 8//3
f 16//3 21//3 22//3
f 21//3 16//3 15//3
f 21//3 15//3 18//3
f 21//3 18//3 17//3
f 21//4 17//4 20//4
f 21//1 20//1 19//1
f 22//3 21//3 23//3
f 16//5 24//5 25//5
f 24//5 16//5 22//5
f 25//4 26//4 13//4
f 26//4 25//4 24//4
f 26//4 24//4 27//4
f 5//4 28//4 29//4
f 28//4 5//4 7//4
f 1//4 30//4 31//4
f 30//4 1//4 3//4
f 13//4 32//4 11//4
f 32//4 13//4 26//4
f 32//3 26//3 29//3
f 32//4 29//4 28//4
f 32//3 28//3 31//3
f 32//4 31//4 30//4
f 11//4 32//4 9//4
f 16//6 13//6 14//6
f 13//6 16//6 25//6
f 24//1 23//1 27//1
f 23//1 24//1 22//1
f 15//5 9//5 32//5
f 9//5 15//5 12//5
f 30//1 15//1 32//1
f 15//1 30//1 18//1
f 2//2 30//2 3//2
f 30//2 2//2 18//2
f 19//5 5//5 29//5
f 5//5 19//5 8//5
f 26//1 19//1 29//1
f 19//1 26//1 21//1
f 23//2 26//2 27//2
f 26//2 23//2 21//2
f 17//5 1//5 31//5
f 1//5 17//5 4//5
f 28//1 17//1 31//1
f 17//1 28//1 20//1
f 6//2 28//2 7//2
f 28//2 6//2 20//2
f 33//1 34//1 35//1
f 34//1 33//1 36//1
f 37//1 38//1 39//1
f 38//1 37//1 40//1
f 41//1 42//1 43//1
f 42//1 41//1 44//1
f 42//2 45//2 43//2
f 45//2 42//2 46//2
f 46//3 47//3 48//3
f 47//3 46//3 42//3
f 47//3 42//3 44//3
f 34//3 49//3 50//3
f 49//3 34//3 36//3
f 38//3 51//3 52//3
f 51//3 38//3 40//3
f 48//3 53//3 54//3
f 53//3 48//3 47//3
f 53//3 47//3 50//3
f 53//3 50//3 49//3
f 53//4 49//4 52//4
f 53//1 52//1 51//1
f 54//3 53//3 55//3
f 48//5 56//5 57//5
f 56//5 48//5 54//5
f 57//4 58//4 45//4
f 58//4 57//4 56//4
f 58//4 56//4 59//4
f 37//4 60//4 61//4
f 60//4 37//4 39//4
f 33//4 62//4 63//4
f 62//4 33//4 35//4
f 45//4 64//4 43//4
f 64//4 45//4 58//4
f 64//3 58//3 61//3
f 64//4 61//4 60//4
f 64//3 60//3 63//3
f 64//4 63//4 62//4
f 43//4 64//4 41//4
f 48//6 45//6 46//6
f 45//6 48//6 57//6
f 56//1 55//1 59//1
f 55//1 56//1 54//1
f 47//5 41//5 64//5
f 41//5 47//5 44//5
f 62//1 47//1 64//1
f 47//1 62//1 50//1
f 34//2 62//2 35//2
f 62//2 34//2 50//2
f 51//5 37//5 61//5
f 37//5 51//5 40//5
f 58//1 51//1 61//1
f 51//1 58//1 53//1
f 55//2 58//2 59//2
f 58//2 55//2 53//2
f 49//5 33//5 63//5
f 33//5 49//5 36//5
f 60//1 49//1 63//1
f 49//1 60//1 52//1
f 38//2 60//2 39//2
f 60//2 38//2 52//2
f 65//6 66//6 67//6
f 66//6 65//6 68//6
f 69//6 70//6 71//6
f 70//6 69//6 72//6
f 73//4 70//4 72//4
f 70//4 73//4 74//4
f 65//5 75//5 68//5
f 76//5 77//5 78//5
f 69//5 73//5 72//5
f 73//5 69//5 79//5
f 73//5 79//5 80//5
f 80//5 79//5 75//5
f 80//5 75//5 81//5
f 81//5 75//5 65//5
f 80//5 81//5 77//5
f 80//5 77//5 76//5
f 82//3 76//3 83//3
f 76//3 82//3 80//3
f 82//2 70//2 74//2
f 70//2 82//2 84//2
f 84//2 82//2 49//2
f 49//2 82//2 66//2
f 66//2 82//2 85//2
f 85//2 82//2 17//2
f 17//2 82//2 86//2
f 86//2 82//2 83//2
f 67//2 66//2 85//2
f 71//2 70//2 84//2
f 73//1 82//1 74//1
f 82//1 73//1 80//1
f 76//6 86//6 83//6
f 86//6 76//6 78//6
f 84//3 69//3 71//3
f 69//3 84//3 79//3
f 75//6 84//6 49//6
f 84//6 75//6 79//6
f 75//4 66//4 68//4
f 66//4 75//4 49//4
f 85//3 65//3 67//3
f 65//3 85//3 81//3
f 77//6 85//6 17//6
f 85//6 77//6 81//6
f 77//4 86//4 78//4
f 86//4 77//4 17//4
f 87//6 88//6 89//6
f 88//6 87//6 90//6
f 91//6 92//6 93//6
f 92//6 91//6 94//6
f 95//4 88//4 90//4
f 88//4 95//4 96//4
f 97//6 98//6 99//6
f 98//6 97//6 100//6
f 101//3 97//3 99//3
f 97//3 101//3 102//3
f 95//1 101//1 96//1
f 101//1 95//1 102//1
f 91//5 103//5 94//5
f 97//5 104//5 100//5
f 87//5 95//5 90//5
f 95//5 87//5 105//5
f 95//5 105//5 102//5
f 102//5 105//5 103//5
f 102//5 103//5 106//5
f 106//5 103//5 91//5
f 102//5 106//5 104//5
f 102//5 104//5 97//5
f 96//2 107//2 88//2
f 107//2 96//2 101//2
f 107//2 101//2 108//2
f 108//2 101//2 92//2
f 92//2 101//2 109//2
f 109//2 101//2 19//2
f 19//2 101//2 98//2
f 98//2 101//2 99//2
f 93//2 92//2 109//2
f 89//2 88//2 107//2
f 109//3 91//3 93//3
f 91//3 109//3 106//3
f 104//6 109//6 19//6
f 109//6 104//6 106//6
f 104//4 98//4 100//4
f 98//4 104//4 19//4
f 107//3 87//3 89//3
f 87//3 107//3 105//3
f 103//6 107//6 108//6
f 107//6 103//6 105//6
f 103//4 92//4 94//4
f 92//4 103//4 108//4
f 110//6 111//6 112//6
f 111//6 110//6 113//6
f 114//6 115//6 116//6
f 115//6 114//6 117//6
f 118//4 111//4 113//4
f 111//4 118//4 119//4
f 120//6 121//6 122//6
f 121//6 120//6 123//6
f 124//3 120//3 122//3
f 120//3 124//3 125//3
f 118//1 124//1 119//1
f 124//1 118//1 125//1
f 114//5 126//5 117//5
f 120//5 18//5 123//5
f 110//5 118//5 113//5
f 118//5 110//5 127//5
f 118//5 127//5 125//5
f 125//5 127//5 126//5
f 125//5 126//5 128//5
f 128//5 126//5 114//5
f 125//5 128//5 18//5
f 125//5 18//5 120//5
f 119//2 129//2 111//2
f 129//2 119//2 124//2
f 129//2 124//2 130//2
f 130//2 124//2 115//2
f 115//2 124//2 131//2
f 131//2 124//2 132//2
f 132//2 124//2 121//2
f 121//2 124//2 122//2
f 116//2 115//2 131//2
f 112//2 111//2 129//2
f 131//3 114//3 116//3
f 114//3 131//3 128//3
f 18//6 131//6 132//6
f 131//6 18//6 128//6
f 18//4 121//4 123//4
f 121//4 18//4 132//4
f 129//3 110//3 112//3
f 110//3 129//3 127//3
f 126//6 129//6 130//6
f 129//6 126//6 127//6
f 126//4 115//4 117//4
f 115//4 126//4 130//4
