# Blender v3.1.2 OBJ File: ''
# www.blender.org
mtllib 244.mtl
o 244_-_COLMEIA_MD-2_ACRILICO_4MM_(700_A_799mm)x(360_A_535mm)
v 593.400024 -215.399994 70.000000
v 597.400024 -109.800003 70.000000
v 593.400024 -109.800003 70.000000
v 597.400024 -215.399994 70.000000
v 593.400024 -325.199982 70.000000
v 597.400024 -219.600006 70.000000
v 593.400024 -219.600006 70.000000
v 597.400024 -325.199982 70.000000
v 593.400024 -105.599998 70.000000
v 597.400024 0.000000 70.000000
v 593.400024 0.000000 70.000000
v 597.400024 -105.599998 70.000000
v 593.400024 0.000000 0.000000
v 597.400024 0.000000 0.000000
v 597.400024 -105.599998 35.000000
v 597.400024 -435.000000 0.000000
v 597.400024 -215.399994 35.000000
v 597.400024 -109.800003 35.000000
v 597.400024 -325.199982 35.000000
v 597.400024 -219.600006 35.000000
v 597.400024 -329.399994 35.000000
v 597.400024 -435.000000 70.000000
v 597.400024 -329.399994 70.000000
v 593.400024 -435.000000 70.000000
v 593.400024 -435.000000 0.000000
v 593.400024 -329.399994 35.000000
v 593.400024 -329.399994 70.000000
v 593.400024 -219.600006 35.000000
v 593.400024 -325.199982 35.000000
v 593.400024 -109.800003 35.000000
v 593.400024 -215.399994 35.000000
v 593.400024 -105.599998 35.000000
v 593.200012 -219.400009 0.000000
v 481.200012 -215.400009 0.000000
v 593.200012 -215.400009 0.000000
v 481.200012 -219.400009 0.000000
v 360.799988 -219.400009 0.000000
v 0.000000 -215.400009 0.000000
v 360.799988 -215.400009 0.000000
v 0.000000 -219.400009 0.000000
v 477.000000 -219.400009 0.000000
v 365.000000 -215.400009 0.000000
v 477.000000 -215.400009 0.000000
v 365.000000 -219.400009 0.000000
v 0.000000 -219.400009 70.000000
v 0.000000 -215.400009 70.000000
v 365.000000 -219.400009 35.000000
v 481.200012 -219.400009 35.000000
v 710.000000 -219.400009 0.000000
v 597.400024 -219.400009 35.000000
v 597.400024 -219.400009 0.000000
v 360.799988 -219.400009 35.000000
v 710.000000 -219.400009 70.000000
v 477.000000 -219.400009 35.000000
v 593.200012 -219.400009 35.000000
v 710.000000 -215.400009 70.000000
v 710.000000 -215.400009 0.000000
v 360.799988 -215.400009 35.000000
v 365.000000 -215.400009 35.000000
v 477.000000 -215.400009 35.000000
v 481.200012 -215.400009 35.000000
v 593.200012 -215.400009 35.000000
v 597.400024 -215.400009 0.000000
v 362.000000 -329.199982 0.000000
v 357.000000 -325.199982 0.000000
v 362.000000 -325.199982 0.000000
v 357.000000 -329.199982 0.000000
v 594.400024 -329.199982 0.000000
v 482.399994 -325.199982 0.000000
v 594.400024 -325.199982 0.000000
v 482.399994 -329.199982 0.000000
v 478.200012 -329.199982 0.000000
v 366.200012 -325.199982 0.000000
v 478.200012 -325.199982 0.000000
v 366.200012 -329.199982 0.000000
v 357.000000 -329.199982 70.000000
v 357.000000 -325.199982 70.000000
v 710.000000 -329.199982 0.000000
v 598.600037 -325.199982 0.000000
v 710.000000 -325.199982 0.000000
v 598.600037 -329.199982 0.000000
v 710.000000 -325.199982 70.000000
v 710.000000 -329.199982 70.000000
v 366.200012 -329.199982 35.000000
v 482.399994 -329.199982 35.000000
v 598.600037 -329.199982 35.000000
v 362.000000 -329.199982 35.000000
v 478.200012 -329.199982 35.000000
v 594.400024 -329.199982 35.000000
v 362.000000 -325.199982 35.000000
v 366.200012 -325.199982 35.000000
v 478.200012 -325.199982 35.000000
v 482.399994 -325.199982 35.000000
v 594.400024 -325.199982 35.000000
v 598.600037 -325.199982 35.000000
v 362.000000 -109.799995 0.000000
v 357.000000 -105.799995 0.000000
v 362.000000 -105.799995 0.000000
v 357.000000 -109.799995 0.000000
v 594.400024 -109.799995 0.000000
v 482.399994 -105.799995 0.000000
v 594.400024 -105.799995 0.000000
v 482.399994 -109.799995 0.000000
v 478.200012 -109.799995 0.000000
v 366.200012 -105.799995 0.000000
v 478.200012 -105.799995 0.000000
v 366.200012 -109.799995 0.000000
v 357.000000 -109.799995 70.000000
v 357.000000 -105.799995 70.000000
v 710.000000 -109.799995 0.000000
v 598.600037 -105.799995 0.000000
v 710.000000 -105.799995 0.000000
v 598.600037 -109.799995 0.000000
v 710.000000 -105.799995 70.000000
v 710.000000 -109.799995 70.000000
v 366.200012 -109.799995 35.000000
v 482.399994 -109.799995 35.000000
v 598.600037 -109.799995 35.000000
v 362.000000 -109.799995 35.000000
v 478.200012 -109.799995 35.000000
v 594.400024 -109.799995 35.000000
v 362.000000 -105.799995 35.000000
v 366.200012 -105.799995 35.000000
v 478.200012 -105.799995 35.000000
v 482.399994 -105.799995 35.000000
v 594.400024 -105.799995 35.000000
v 598.600037 -105.799995 35.000000
v 477.399994 -215.399994 70.000000
v 481.399994 -109.800003 70.000000
v 477.399994 -109.800003 70.000000
v 481.399994 -215.399994 70.000000
v 477.399994 -325.199982 70.000000
v 481.399994 -219.600006 70.000000
v 477.399994 -219.600006 70.000000
v 481.399994 -325.199982 70.000000
v 477.399994 -105.599998 70.000000
v 481.399994 0.000000 70.000000
v 477.399994 0.000000 70.000000
v 481.399994 -105.599998 70.000000
v 477.399994 0.000000 0.000000
v 481.399994 0.000000 0.000000
v 481.399994 -105.599998 35.000000
v 481.399994 -435.000000 0.000000
v 481.399994 -215.399994 35.000000
v 481.399994 -109.800003 35.000000
v 481.399994 -325.199982 35.000000
v 481.399994 -219.600006 35.000000
v 481.399994 -329.399994 35.000000
v 481.399994 -435.000000 70.000000
v 481.399994 -329.399994 70.000000
v 477.399994 -435.000000 70.000000
v 477.399994 -435.000000 0.000000
v 477.399994 -329.399994 35.000000
v 477.399994 -329.399994 70.000000
v 477.399994 -219.600006 35.000000
v 477.399994 -325.199982 35.000000
v 477.399994 -109.800003 35.000000
v 477.399994 -215.399994 35.000000
v 477.399994 -105.599998 35.000000
v 361.399994 -215.399994 70.000000
v 365.399994 -109.800003 70.000000
v 361.399994 -109.800003 70.000000
v 365.399994 -215.399994 70.000000
v 361.399994 -325.199982 70.000000
v 365.399994 -219.600006 70.000000
v 361.399994 -219.600006 70.000000
v 365.399994 -325.199982 70.000000
v 361.399994 -105.599998 70.000000
v 365.399994 0.000000 70.000000
v 361.399994 0.000000 70.000000
v 365.399994 -105.599998 70.000000
v 361.399994 0.000000 0.000000
v 365.399994 0.000000 0.000000
v 365.399994 -105.599998 35.000000
v 365.399994 -435.000000 0.000000
v 365.399994 -215.399994 35.000000
v 365.399994 -109.800003 35.000000
v 365.399994 -325.199982 35.000000
v 365.399994 -219.600006 35.000000
v 365.399994 -329.399994 35.000000
v 365.399994 -435.000000 70.000000
v 365.399994 -329.399994 70.000000
v 361.399994 -435.000000 70.000000
v 361.399994 -435.000000 0.000000
v 361.399994 -329.399994 35.000000
v 361.399994 -329.399994 70.000000
v 361.399994 -219.600006 35.000000
v 361.399994 -325.199982 35.000000
v 361.399994 -109.800003 35.000000
v 361.399994 -215.399994 35.000000
v 361.399994 -105.599998 35.000000
vn 0.0000 0.0000 1.0000
vn 0.0000 1.0000 0.0000
vn 1.0000 0.0000 0.0000
vn -1.0000 0.0000 0.0000
vn 0.0000 -1.0000 0.0000
vn -0.0000 0.0000 -1.0000
vn 0.0000 1.0000 0.0001
vn 0.0000 -1.0000 -0.0001
usemtl None
s off
f 1//1 2//1 3//1
f 2//1 1//1 4//1
f 5//1 6//1 7//1
f 6//1 5//1 8//1
f 9//1 10//1 11//1
f 10//1 9//1 12//1
f 10//2 13//2 11//2
f 13//2 10//2 14//2
f 14//3 15//3 16//3
f 15//3 14//3 10//3
f 15//3 10//3 12//3
f 2//3 17//3 18//3
f 17//3 2//3 4//3
f 6//3 19//3 20//3
f 19//3 6//3 8//3
f 16//3 21//3 22//3
f 21//3 16//3 15//3
f 21//3 15//3 18//3
f 21//3 18//3 17//3
f 21//4 17//4 20//4
f 21//1 20//1 19//1
f 22//3 21//3 23//3
f 16//5 24//5 25//5
f 24//5 16//5 22//5
f 25//4 26//4 13//4
f 26//4 25//4 24//4
f 26//4 24//4 27//4
f 5//4 28//4 29//4
f 28//4 5//4 7//4
f 1//4 30//4 31//4
f 30//4 1//4 3//4
f 13//4 32//4 11//4
f 32//4 13//4 26//4
f 32//3 26//3 29//3
f 32//4 29//4 28//4
f 32//3 28//3 31//3
f 32//4 31//4 30//4
f 11//4 32//4 9//4
f 16//6 13//6 14//6
f 13//6 16//6 25//6
f 24//1 23//1 27//1
f 23//1 24//1 22//1
f 15//5 9//5 32//5
f 9//5 15//5 12//5
f 30//1 15//1 32//1
f 15//1 30//1 18//1
f 2//2 30//2 3//2
f 30//2 2//2 18//2
f 19//5 5//5 29//5
f 5//5 19//5 8//5
f 26//1 19//1 29//1
f 19//1 26//1 21//1
f 23//2 26//2 27//2
f 26//2 23//2 21//2
f 17//5 1//5 31//5
f 1//5 17//5 4//5
f 28//1 17//1 31//1
f 17//1 28//1 20//1
f 6//2 28//2 7//2
f 28//2 6//2 20//2
f 33//6 34//6 35//6
f 34//6 33//6 36//6
f 37//6 38//6 39//6
f 38//6 37//6 40//6
f 41//6 42//6 43//6
f 42//6 41//6 44//6
f 45//4 38//4 40//4
f 38//4 45//4 46//4
f 41//5 47//5 44//5
f 33//5 48//5 36//5
f 49//5 50//5 51//5
f 37//5 45//5 40//5
f 45//5 37//5 52//5
f 45//5 52//5 53//5
f 53//5 52//5 47//5
f 53//5 47//5 54//5
f 54//5 47//5 41//5
f 53//5 54//5 48//5
f 53//5 48//5 55//5
f 55//5 48//5 33//5
f 53//5 55//5 50//5
f 53//5 50//5 49//5
f 56//3 49//3 57//3
f 49//3 56//3 53//3
f 56//2 38//2 46//2
f 38//2 56//2 58//2
f 58//7 56//7 59//7
f 59//2 56//2 60//2
f 59//2 60//2 42//2
f 60//2 56//2 61//2
f 61//2 56//2 62//2
f 61//2 62//2 34//2
f 62//2 56//2 17//2
f 17//2 56//2 63//2
f 63//2 56//2 57//2
f 35//2 34//2 62//2
f 43//2 42//2 60//2
f 39//2 38//2 58//2
f 45//1 56//1 46//1
f 56//1 45//1 53//1
f 49//6 63//6 57//6
f 63//6 49//6 51//6
f 60//3 41//3 43//3
f 41//3 60//3 54//3
f 48//6 60//6 61//6
f 60//6 48//6 54//6
f 48//4 34//4 36//4
f 34//4 48//4 61//4
f 58//3 37//3 39//3
f 37//3 58//3 52//3
f 47//6 58//6 59//6
f 58//6 47//6 52//6
f 47//4 42//4 44//4
f 42//4 47//4 59//4
f 62//3 33//3 35//3
f 33//3 62//3 55//3
f 50//6 62//6 17//6
f 62//6 50//6 55//6
f 50//4 63//4 51//4
f 63//4 50//4 17//4
f 64//6 65//6 66//6
f 65//6 64//6 67//6
f 68//6 69//6 70//6
f 69//6 68//6 71//6
f 72//6 73//6 74//6
f 73//6 72//6 75//6
f 76//4 65//4 67//4
f 65//4 76//4 77//4
f 78//6 79//6 80//6
f 79//6 78//6 81//6
f 82//3 78//3 80//3
f 78//3 82//3 83//3
f 76//1 82//1 77//1
f 82//1 76//1 83//1
f 72//5 84//5 75//5
f 68//5 85//5 71//5
f 78//5 86//5 81//5
f 64//5 76//5 67//5
f 76//5 64//5 87//5
f 76//5 87//5 83//5
f 83//5 87//5 84//5
f 83//5 84//5 88//5
f 88//5 84//5 72//5
f 83//8 88//8 85//8
f 83//5 85//5 89//5
f 89//5 85//5 68//5
f 83//5 89//5 86//5
f 83//5 86//5 78//5
f 77//2 90//2 65//2
f 90//2 77//2 82//2
f 90//2 82//2 91//2
f 91//2 82//2 92//2
f 91//2 92//2 73//2
f 92//2 82//2 93//2
f 93//2 82//2 94//2
f 93//2 94//2 69//2
f 94//2 82//2 95//2
f 95//2 82//2 79//2
f 79//2 82//2 80//2
f 70//2 69//2 94//2
f 74//2 73//2 92//2
f 66//2 65//2 90//2
f 92//3 72//3 74//3
f 72//3 92//3 88//3
f 85//6 92//6 93//6
f 92//6 85//6 88//6
f 85//4 69//4 71//4
f 69//4 85//4 93//4
f 94//3 68//3 70//3
f 68//3 94//3 89//3
f 86//6 94//6 95//6
f 94//6 86//6 89//6
f 86//4 79//4 81//4
f 79//4 86//4 95//4
f 90//3 64//3 66//3
f 64//3 90//3 87//3
f 84//6 90//6 91//6
f 90//6 84//6 87//6
f 84//4 73//4 75//4
f 73//4 84//4 91//4
f 96//6 97//6 98//6
f 97//6 96//6 99//6
f 100//6 101//6 102//6
f 101//6 100//6 103//6
f 104//6 105//6 106//6
f 105//6 104//6 107//6
f 108//4 97//4 99//4
f 97//4 108//4 109//4
f 110//6 111//6 112//6
f 111//6 110//6 113//6
f 114//3 110//3 112//3
f 110//3 114//3 115//3
f 108//1 114//1 109//1
f 114//1 108//1 115//1
f 104//5 116//5 107//5
f 100//5 117//5 103//5
f 110//5 118//5 113//5
f 96//5 108//5 99//5
f 108//5 96//5 119//5
f 108//5 119//5 115//5
f 115//5 119//5 116//5
f 115//5 116//5 120//5
f 120//5 116//5 104//5
f 115//5 120//5 117//5
f 115//5 117//5 121//5
f 121//5 117//5 100//5
f 115//5 121//5 118//5
f 115//5 118//5 110//5
f 109//2 122//2 97//2
f 122//2 109//2 114//2
f 122//2 114//2 123//2
f 123//2 114//2 124//2
f 123//2 124//2 105//2
f 124//2 114//2 125//2
f 125//2 114//2 126//2
f 125//2 126//2 101//2
f 126//2 114//2 127//2
f 127//2 114//2 111//2
f 111//2 114//2 112//2
f 102//2 101//2 126//2
f 106//2 105//2 124//2
f 98//2 97//2 122//2
f 124//3 104//3 106//3
f 104//3 124//3 120//3
f 117//6 124//6 125//6
f 124//6 117//6 120//6
f 117//4 101//4 103//4
f 101//4 117//4 125//4
f 126//3 100//3 102//3
f 100//3 126//3 121//3
f 118//6 126//6 127//6
f 126//6 118//6 121//6
f 118//4 111//4 113//4
f 111//4 118//4 127//4
f 122//3 96//3 98//3
f 96//3 122//3 119//3
f 116//6 122//6 123//6
f 122//6 116//6 119//6
f 116//4 105//4 107//4
f 105//4 116//4 123//4
f 128//1 129//1 130//1
f 129//1 128//1 131//1
f 132//1 133//1 134//1
f 133//1 132//1 135//1
f 136//1 137//1 138//1
f 137//1 136//1 139//1
f 137//2 140//2 138//2
f 140//2 137//2 141//2
f 141//3 142//3 143//3
f 142//3 141//3 137//3
f 142//3 137//3 139//3
f 129//3 144//3 145//3
f 144//3 129//3 131//3
f 133//3 146//3 147//3
f 146//3 133//3 135//3
f 143//3 148//3 149//3
f 148//3 143//3 142//3
f 148//3 142//3 145//3
f 148//3 145//3 144//3
f 148//4 144//4 147//4
f 148//1 147//1 146//1
f 149//3 148//3 150//3
f 143//5 151//5 152//5
f 151//5 143//5 149//5
f 152//4 153//4 140//4
f 153//4 152//4 151//4
f 153//4 151//4 154//4
f 132//4 155//4 156//4
f 155//4 132//4 134//4
f 128//4 157//4 158//4
f 157//4 128//4 130//4
f 140//4 159//4 138//4
f 159//4 140//4 153//4
f 159//3 153//3 156//3
f 159//4 156//4 155//4
f 159//3 155//3 158//3
f 159//4 158//4 157//4
f 138//4 159//4 136//4
f 143//6 140//6 141//6
f 140//6 143//6 152//6
f 151//1 150//1 154//1
f 150//1 151//1 149//1
f 142//5 136//5 159//5
f 136//5 142//5 139//5
f 157//1 142//1 159//1
f 142//1 157//1 145//1
f 129//2 157//2 130//2
f 157//2 129//2 145//2
f 146//5 132//5 156//5
f 132//5 146//5 135//5
f 153//1 146//1 156//1
f 146//1 153//1 148//1
f 150//2 153//2 154//2
f 153//2 150//2 148//2
f 144//5 128//5 158//5
f 128//5 144//5 131//5
f 155//1 144//1 158//1
f 144//1 155//1 147//1
f 133//2 155//2 134//2
f 155//2 133//2 147//2
f 160//1 161//1 162//1
f 161//1 160//1 163//1
f 164//1 165//1 166//1
f 165//1 164//1 167//1
f 168//1 169//1 170//1
f 169//1 168//1 171//1
f 169//2 172//2 170//2
f 172//2 169//2 173//2
f 173//3 174//3 175//3
f 174//3 173//3 169//3
f 174//3 169//3 171//3
f 161//3 176//3 177//3
f 176//3 161//3 163//3
f 165//3 178//3 179//3
f 178//3 165//3 167//3
f 175//3 180//3 181//3
f 180//3 175//3 174//3
f 180//3 174//3 177//3
f 180//3 177//3 176//3
f 180//4 176//4 179//4
f 180//1 179//1 178//1
f 181//3 180//3 182//3
f 175//5 183//5 184//5
f 183//5 175//5 181//5
f 184//4 185//4 172//4
f 185//4 184//4 183//4
f 185//4 183//4 186//4
f 164//4 187//4 188//4
f 187//4 164//4 166//4
f 160//4 189//4 190//4
f 189//4 160//4 162//4
f 172//4 191//4 170//4
f 191//4 172//4 185//4
f 191//3 185//3 188//3
f 191//4 188//4 187//4
f 191//3 187//3 190//3
f 191//4 190//4 189//4
f 170//4 191//4 168//4
f 175//6 172//6 173//6
f 172//6 175//6 184//6
f 183//1 182//1 186//1
f 182//1 183//1 181//1
f 174//5 168//5 191//5
f 168//5 174//5 171//5
f 189//1 174//1 191//1
f 174//1 189//1 177//1
f 161//2 189//2 162//2
f 189//2 161//2 177//2
f 178//5 164//5 188//5
f 164//5 178//5 167//5
f 185//1 178//1 188//1
f 178//1 185//1 180//1
f 182//2 185//2 186//2
f 185//2 182//2 180//2
f 176//5 160//5 190//5
f 160//5 176//5 163//5
f 187//1 176//1 190//1
f 176//1 187//1 179//1
f 165//2 187//2 166//2
f 187//2 165//2 179//2
