# Blender v3.1.2 OBJ File: ''
# www.blender.org
mtllib 245.mtl
o 245_-_COLMEIA_MD-2_ACRILICO_4MM_(800_A_899mm)x(360_A_535mm)
v 345.000000 -329.199982 0.000000
v 340.000000 -325.199982 0.000000
v 345.000000 -325.199982 0.000000
v 340.000000 -329.199982 0.000000
v 461.200012 -329.199982 0.000000
v 349.200012 -325.199982 0.000000
v 461.200012 -325.199982 0.000000
v 349.200012 -329.199982 0.000000
v 577.400024 -329.199982 0.000000
v 465.399994 -325.199982 0.000000
v 577.400024 -325.199982 0.000000
v 465.399994 -329.199982 0.000000
v 693.599976 -329.199982 0.000000
v 581.600037 -325.199982 0.000000
v 693.599976 -325.199982 0.000000
v 581.600037 -329.199982 0.000000
v 340.000000 -329.199982 70.000000
v 340.000000 -325.199982 70.000000
v 810.000000 -329.199982 0.000000
v 697.799988 -325.199982 0.000000
v 810.000000 -325.199982 0.000000
v 697.799988 -329.199982 0.000000
v 810.000000 -325.199982 70.000000
v 810.000000 -329.199982 70.000000
v 349.200012 -329.199982 35.000000
v 465.399994 -329.199982 35.000000
v 581.600037 -329.199982 35.000000
v 697.799988 -329.199982 35.000000
v 345.000000 -329.199982 35.000000
v 461.200012 -329.199982 35.000000
v 577.400024 -329.199982 35.000000
v 693.599976 -329.199982 35.000000
v 345.000000 -325.199982 35.000000
v 349.200012 -325.199982 35.000000
v 461.200012 -325.199982 35.000000
v 465.399994 -325.199982 35.000000
v 577.400024 -325.199982 35.000000
v 581.600037 -325.199982 35.000000
v 693.599976 -325.199982 35.000000
v 697.799988 -325.199982 35.000000
v 345.000000 -109.799995 0.000000
v 340.000000 -105.799995 0.000000
v 345.000000 -105.799995 0.000000
v 340.000000 -109.799995 0.000000
v 461.200012 -109.799995 0.000000
v 349.200012 -105.799995 0.000000
v 461.200012 -105.799995 0.000000
v 349.200012 -109.799995 0.000000
v 577.400024 -109.799995 0.000000
v 465.399994 -105.799995 0.000000
v 577.400024 -105.799995 0.000000
v 465.399994 -109.799995 0.000000
v 693.599976 -109.799995 0.000000
v 581.600037 -105.799995 0.000000
v 693.599976 -105.799995 0.000000
v 581.600037 -109.799995 0.000000
v 340.000000 -109.799995 70.000000
v 340.000000 -105.799995 70.000000
v 810.000000 -109.799995 0.000000
v 697.799988 -105.799995 0.000000
v 810.000000 -105.799995 0.000000
v 697.799988 -109.799995 0.000000
v 810.000000 -105.799995 70.000000
v 810.000000 -109.799995 70.000000
v 349.200012 -109.799995 35.000000
v 465.399994 -109.799995 35.000000
v 581.600037 -109.799995 35.000000
v 697.799988 -109.799995 35.000000
v 345.000000 -109.799995 35.000000
v 461.200012 -109.799995 35.000000
v 577.400024 -109.799995 35.000000
v 693.599976 -109.799995 35.000000
v 345.000000 -105.799995 35.000000
v 349.200012 -105.799995 35.000000
v 461.200012 -105.799995 35.000000
v 465.399994 -105.799995 35.000000
v 577.400024 -105.799995 35.000000
v 581.600037 -105.799995 35.000000
v 693.599976 -105.799995 35.000000
v 697.799988 -105.799995 35.000000
v 693.200012 -219.400009 0.000000
v 581.200012 -215.400009 0.000000
v 693.200012 -215.400009 0.000000
v 581.200012 -219.400009 0.000000
v 460.799988 -219.400009 0.000000
v 348.800018 -215.400009 0.000000
v 460.799988 -215.400009 0.000000
v 348.800018 -219.400009 0.000000
v 577.000000 -219.400009 0.000000
v 465.000000 -215.400009 0.000000
v 577.000000 -215.400009 0.000000
v 465.000000 -219.400009 0.000000
v 344.600006 -219.400009 0.000000
v 0.000000 -215.400009 0.000000
v 344.600006 -215.400009 0.000000
v 0.000000 -219.400009 0.000000
v 0.000000 -219.400009 70.000000
v 0.000000 -215.400009 70.000000
v 348.800018 -219.400009 35.000000
v 465.000000 -219.400009 35.000000
v 581.200012 -219.400009 35.000000
v 810.000000 -219.400009 0.000000
v 697.399963 -219.400009 35.000000
v 697.399963 -219.400009 0.000000
v 344.600006 -219.400009 35.000000
v 810.000000 -219.400009 70.000000
v 460.799988 -219.400009 35.000000
v 577.000000 -219.400009 35.000000
v 693.200012 -219.400009 35.000000
v 810.000000 -215.400009 70.000000
v 810.000000 -215.400009 0.000000
v 344.600006 -215.400009 35.000000
v 348.800018 -215.400009 35.000000
v 460.799988 -215.400009 35.000000
v 465.000000 -215.400009 35.000000
v 577.000000 -215.400009 35.000000
v 581.200012 -215.400009 35.000000
v 693.200012 -215.400009 35.000000
v 697.399963 -215.400009 35.000000
v 697.399963 -215.400009 0.000000
v 693.400024 -215.399994 70.000000
v 697.400024 -109.800003 70.000000
v 693.400024 -109.800003 70.000000
v 697.400024 -215.399994 70.000000
v 693.400024 -325.199982 70.000000
v 697.400024 -219.600006 70.000000
v 693.400024 -219.600006 70.000000
v 697.400024 -325.199982 70.000000
v 693.400024 -105.599998 70.000000
v 697.400024 0.000000 70.000000
v 693.400024 0.000000 70.000000
v 697.400024 -105.599998 70.000000
v 693.400024 0.000000 0.000000
v 697.400024 0.000000 0.000000
v 697.400024 -105.599998 35.000000
v 697.400024 -435.000000 0.000000
v 697.400024 -109.800003 35.000000
v 697.400024 -325.199982 35.000000
v 697.400024 -219.600006 35.000000
v 697.400024 -329.399994 35.000000
v 697.400024 -435.000000 70.000000
v 697.400024 -329.399994 70.000000
v 693.400024 -435.000000 70.000000
v 693.400024 -435.000000 0.000000
v 693.400024 -329.399994 35.000000
v 693.400024 -329.399994 70.000000
v 693.400024 -219.600006 35.000000
v 693.400024 -325.199982 35.000000
v 693.400024 -109.800003 35.000000
v 693.400024 -215.399994 35.000000
v 693.400024 -105.599998 35.000000
v 461.399994 -215.399994 70.000000
v 465.399994 -109.800003 70.000000
v 461.399994 -109.800003 70.000000
v 465.399994 -215.399994 70.000000
v 461.399994 -325.199982 70.000000
v 465.399994 -219.600006 70.000000
v 461.399994 -219.600006 70.000000
v 465.399994 -325.199982 70.000000
v 461.399994 -105.599998 70.000000
v 465.399994 0.000000 70.000000
v 461.399994 0.000000 70.000000
v 465.399994 -105.599998 70.000000
v 461.399994 0.000000 0.000000
v 465.399994 0.000000 0.000000
v 465.399994 -105.599998 35.000000
v 465.399994 -435.000000 0.000000
v 465.399994 -215.399994 35.000000
v 465.399994 -219.600006 35.000000
v 465.399994 -329.399994 35.000000
v 465.399994 -435.000000 70.000000
v 465.399994 -329.399994 70.000000
v 461.399994 -435.000000 70.000000
v 461.399994 -435.000000 0.000000
v 461.399994 -329.399994 35.000000
v 461.399994 -329.399994 70.000000
v 461.399994 -219.600006 35.000000
v 461.399994 -325.199982 35.000000
v 461.399994 -109.800003 35.000000
v 461.399994 -215.399994 35.000000
v 461.399994 -105.599998 35.000000
v 345.399994 -215.399994 70.000000
v 349.399994 -109.800003 70.000000
v 345.399994 -109.800003 70.000000
v 349.399994 -215.399994 70.000000
v 345.399994 -325.199982 70.000000
v 349.399994 -219.600006 70.000000
v 345.399994 -219.600006 70.000000
v 349.399994 -325.199982 70.000000
v 345.399994 -105.599998 70.000000
v 349.399994 0.000000 70.000000
v 345.399994 0.000000 70.000000
v 349.399994 -105.599998 70.000000
v 345.399994 0.000000 0.000000
v 349.399994 0.000000 0.000000
v 349.399994 -105.599998 35.000000
v 349.399994 -435.000000 0.000000
v 349.399994 -215.399994 35.000000
v 349.399994 -109.800003 35.000000
v 349.399994 -325.199982 35.000000
v 349.399994 -219.600006 35.000000
v 349.399994 -329.399994 35.000000
v 349.399994 -435.000000 70.000000
v 349.399994 -329.399994 70.000000
v 345.399994 -435.000000 70.000000
v 345.399994 -435.000000 0.000000
v 345.399994 -329.399994 35.000000
v 345.399994 -329.399994 70.000000
v 345.399994 -219.600006 35.000000
v 345.399994 -325.199982 35.000000
v 345.399994 -109.800003 35.000000
v 345.399994 -215.399994 35.000000
v 345.399994 -105.599998 35.000000
v 577.400024 -215.399994 70.000000
v 581.400024 -109.800003 70.000000
v 577.400024 -109.800003 70.000000
v 581.400024 -215.399994 70.000000
v 577.400024 -325.199982 70.000000
v 581.400024 -219.600006 70.000000
v 577.400024 -219.600006 70.000000
v 581.400024 -325.199982 70.000000
v 577.400024 -105.599998 70.000000
v 581.400024 0.000000 70.000000
v 577.400024 0.000000 70.000000
v 581.400024 -105.599998 70.000000
v 577.400024 0.000000 0.000000
v 581.400024 0.000000 0.000000
v 581.400024 -105.599998 35.000000
v 581.400024 -435.000000 0.000000
v 581.400024 -215.399994 35.000000
v 581.400024 -109.800003 35.000000
v 581.400024 -325.199982 35.000000
v 581.400024 -219.600006 35.000000
v 581.400024 -329.399994 35.000000
v 581.400024 -435.000000 70.000000
v 581.400024 -329.399994 70.000000
v 577.400024 -435.000000 70.000000
v 577.400024 -435.000000 0.000000
v 577.400024 -329.399994 35.000000
v 577.400024 -329.399994 70.000000
v 577.400024 -219.600006 35.000000
v 577.400024 -215.399994 35.000000
v 577.400024 -105.599998 35.000000
vn 0.0000 0.0000 -1.0000
vn -1.0000 0.0000 0.0000
vn 1.0000 0.0000 0.0000
vn 0.0000 0.0000 1.0000
vn 0.0000 -1.0000 0.0000
vn 0.0000 -1.0000 -0.0001
vn 0.0000 1.0000 0.0000
vn 0.0000 1.0000 0.0001
vn 0.0364 0.0000 0.9993
vn -0.0319 0.0000 -0.9995
usemtl None
s off
f 1//1 2//1 3//1
f 2//1 1//1 4//1
f 5//1 6//1 7//1
f 6//1 5//1 8//1
f 9//1 10//1 11//1
f 10//1 9//1 12//1
f 13//1 14//1 15//1
f 14//1 13//1 16//1
f 17//2 2//2 4//2
f 2//2 17//2 18//2
f 19//1 20//1 21//1
f 20//1 19//1 22//1
f 23//3 19//3 21//3
f 19//3 23//3 24//3
f 17//4 23//4 18//4
f 23//4 17//4 24//4
f 5//5 25//5 8//5
f 9//5 26//5 12//5
f 13//5 27//5 16//5
f 19//5 28//5 22//5
f 1//5 17//5 4//5
f 17//5 1//5 29//5
f 17//5 29//5 24//5
f 24//5 29//5 25//5
f 24//5 25//5 30//5
f 30//5 25//5 5//5
f 24//6 30//6 26//6
f 24//5 26//5 31//5
f 31//5 26//5 9//5
f 24//5 31//5 27//5
f 24//5 27//5 32//5
f 32//5 27//5 13//5
f 24//5 32//5 28//5
f 24//5 28//5 19//5
f 18//7 33//7 2//7
f 33//7 18//7 23//7
f 33//7 23//7 34//7
f 34//7 23//7 35//7
f 34//7 35//7 6//7
f 35//7 23//7 36//7
f 36//7 23//7 37//7
f 36//7 37//7 10//7
f 37//7 23//7 38//7
f 38//7 23//7 39//7
f 38//7 39//7 14//7
f 39//7 23//7 40//7
f 40//7 23//7 20//7
f 20//7 23//7 21//7
f 15//7 14//7 39//7
f 11//7 10//7 37//7
f 7//7 6//7 35//7
f 3//7 2//7 33//7
f 39//3 13//3 15//3
f 13//3 39//3 32//3
f 28//1 39//1 40//1
f 39//1 28//1 32//1
f 28//2 20//2 22//2
f 20//2 28//2 40//2
f 37//3 9//3 11//3
f 9//3 37//3 31//3
f 27//1 37//1 38//1
f 37//1 27//1 31//1
f 27//2 14//2 16//2
f 14//2 27//2 38//2
f 35//3 5//3 7//3
f 5//3 35//3 30//3
f 26//1 35//1 36//1
f 35//1 26//1 30//1
f 26//2 10//2 12//2
f 10//2 26//2 36//2
f 33//3 1//3 3//3
f 1//3 33//3 29//3
f 25//1 33//1 34//1
f 33//1 25//1 29//1
f 25//2 6//2 8//2
f 6//2 25//2 34//2
f 41//1 42//1 43//1
f 42//1 41//1 44//1
f 45//1 46//1 47//1
f 46//1 45//1 48//1
f 49//1 50//1 51//1
f 50//1 49//1 52//1
f 53//1 54//1 55//1
f 54//1 53//1 56//1
f 57//2 42//2 44//2
f 42//2 57//2 58//2
f 59//1 60//1 61//1
f 60//1 59//1 62//1
f 63//3 59//3 61//3
f 59//3 63//3 64//3
f 57//4 63//4 58//4
f 63//4 57//4 64//4
f 45//5 65//5 48//5
f 49//5 66//5 52//5
f 53//5 67//5 56//5
f 59//5 68//5 62//5
f 41//5 57//5 44//5
f 57//5 41//5 69//5
f 57//5 69//5 64//5
f 64//5 69//5 65//5
f 64//5 65//5 70//5
f 70//5 65//5 45//5
f 64//5 70//5 66//5
f 64//5 66//5 71//5
f 71//5 66//5 49//5
f 64//5 71//5 67//5
f 64//5 67//5 72//5
f 72//5 67//5 53//5
f 64//5 72//5 68//5
f 64//5 68//5 59//5
f 58//7 73//7 42//7
f 73//7 58//7 63//7
f 73//7 63//7 74//7
f 74//7 63//7 75//7
f 74//7 75//7 46//7
f 75//7 63//7 76//7
f 76//7 63//7 77//7
f 76//7 77//7 50//7
f 77//7 63//7 78//7
f 78//7 63//7 79//7
f 78//7 79//7 54//7
f 79//7 63//7 80//7
f 80//7 63//7 60//7
f 60//7 63//7 61//7
f 55//7 54//7 79//7
f 51//7 50//7 77//7
f 47//7 46//7 75//7
f 43//7 42//7 73//7
f 79//3 53//3 55//3
f 53//3 79//3 72//3
f 68//1 79//1 80//1
f 79//1 68//1 72//1
f 68//2 60//2 62//2
f 60//2 68//2 80//2
f 77//3 49//3 51//3
f 49//3 77//3 71//3
f 67//1 77//1 78//1
f 77//1 67//1 71//1
f 67//2 54//2 56//2
f 54//2 67//2 78//2
f 75//3 45//3 47//3
f 45//3 75//3 70//3
f 66//1 75//1 76//1
f 75//1 66//1 70//1
f 66//2 50//2 52//2
f 50//2 66//2 76//2
f 73//3 41//3 43//3
f 41//3 73//3 69//3
f 65//1 73//1 74//1
f 73//1 65//1 69//1
f 65//2 46//2 48//2
f 46//2 65//2 74//2
f 81//1 82//1 83//1
f 82//1 81//1 84//1
f 85//1 86//1 87//1
f 86//1 85//1 88//1
f 89//1 90//1 91//1
f 90//1 89//1 92//1
f 93//1 94//1 95//1
f 94//1 93//1 96//1
f 97//2 94//2 96//2
f 94//2 97//2 98//2
f 85//5 99//5 88//5
f 89//5 100//5 92//5
f 81//5 101//5 84//5
f 102//5 103//5 104//5
f 93//5 97//5 96//5
f 97//5 93//5 105//5
f 97//5 105//5 106//5
f 106//5 105//5 99//5
f 106//5 99//5 107//5
f 107//5 99//5 85//5
f 106//5 107//5 100//5
f 106//5 100//5 108//5
f 108//5 100//5 89//5
f 106//5 108//5 101//5
f 106//5 101//5 109//5
f 109//5 101//5 81//5
f 106//5 109//5 103//5
f 106//5 103//5 102//5
f 110//3 102//3 111//3
f 102//3 110//3 106//3
f 98//7 112//7 94//7
f 112//7 98//7 110//7
f 112//8 110//8 113//8
f 113//7 110//7 114//7
f 113//7 114//7 86//7
f 114//8 110//8 115//8
f 115//7 110//7 116//7
f 115//7 116//7 90//7
f 116//7 110//7 117//7
f 117//7 110//7 118//7
f 117//7 118//7 82//7
f 118//7 110//7 119//7
f 119//7 110//7 120//7
f 120//7 110//7 111//7
f 83//7 82//7 118//7
f 91//7 90//7 116//7
f 87//7 86//7 114//7
f 95//7 94//7 112//7
f 97//4 110//4 98//4
f 110//4 97//4 106//4
f 102//1 120//1 111//1
f 120//1 102//1 104//1
f 112//3 93//3 95//3
f 93//3 112//3 105//3
f 99//1 112//1 113//1
f 112//1 99//1 105//1
f 99//2 86//2 88//2
f 86//2 99//2 113//2
f 116//3 89//3 91//3
f 89//3 116//3 108//3
f 101//1 116//1 117//1
f 116//1 101//1 108//1
f 101//2 82//2 84//2
f 82//2 101//2 117//2
f 114//3 85//3 87//3
f 85//3 114//3 107//3
f 100//1 114//1 115//1
f 114//1 100//1 107//1
f 100//2 90//2 92//2
f 90//2 100//2 115//2
f 118//3 81//3 83//3
f 81//3 118//3 109//3
f 103//1 118//1 119//1
f 118//1 103//1 109//1
f 103//2 120//2 104//2
f 120//2 103//2 119//2
f 121//4 122//4 123//4
f 122//4 121//4 124//4
f 125//4 126//4 127//4
f 126//4 125//4 128//4
f 129//4 130//4 131//4
f 130//4 129//4 132//4
f 130//7 133//7 131//7
f 133//7 130//7 134//7
f 134//3 135//3 136//3
f 135//3 134//3 130//3
f 135//3 130//3 132//3
f 122//3 119//3 137//3
f 119//3 122//3 124//3
f 126//3 138//3 139//3
f 138//3 126//3 128//3
f 136//3 140//3 141//3
f 140//3 136//3 135//3
f 140//3 135//3 137//3
f 140//9 137//9 119//9
f 140//10 119//10 139//10
f 140//4 139//4 138//4
f 141//3 140//3 142//3
f 136//5 143//5 144//5
f 143//5 136//5 141//5
f 144//2 145//2 133//2
f 145//2 144//2 143//2
f 145//2 143//2 146//2
f 125//2 147//2 148//2
f 147//2 125//2 127//2
f 121//2 149//2 150//2
f 149//2 121//2 123//2
f 133//2 151//2 131//2
f 151//2 133//2 145//2
f 151//3 145//3 148//3
f 151//2 148//2 147//2
f 151//3 147//3 150//3
f 151//2 150//2 149//2
f 131//2 151//2 129//2
f 136//1 133//1 134//1
f 133//1 136//1 144//1
f 143//4 142//4 146//4
f 142//4 143//4 141//4
f 135//5 129//5 151//5
f 129//5 135//5 132//5
f 149//4 135//4 151//4
f 135//4 149//4 137//4
f 122//7 149//7 123//7
f 149//7 122//7 137//7
f 138//5 125//5 148//5
f 125//5 138//5 128//5
f 145//4 138//4 148//4
f 138//4 145//4 140//4
f 142//7 145//7 146//7
f 145//7 142//7 140//7
f 119//5 121//5 150//5
f 121//5 119//5 124//5
f 147//4 119//4 150//4
f 119//4 147//4 139//4
f 126//7 147//7 127//7
f 147//7 126//7 139//7
f 152//4 153//4 154//4
f 153//4 152//4 155//4
f 156//4 157//4 158//4
f 157//4 156//4 159//4
f 160//4 161//4 162//4
f 161//4 160//4 163//4
f 161//7 164//7 162//7
f 164//7 161//7 165//7
f 165//3 166//3 167//3
f 166//3 165//3 161//3
f 166//3 161//3 163//3
f 153//3 168//3 66//3
f 168//3 153//3 155//3
f 157//3 36//3 169//3
f 36//3 157//3 159//3
f 167//3 170//3 171//3
f 170//3 167//3 166//3
f 170//3 166//3 66//3
f 170//4 66//4 168//4
f 170//2 168//2 169//2
f 170//4 169//4 36//4
f 171//3 170//3 172//3
f 167//5 173//5 174//5
f 173//5 167//5 171//5
f 174//2 175//2 164//2
f 175//2 174//2 173//2
f 175//2 173//2 176//2
f 156//2 177//2 178//2
f 177//2 156//2 158//2
f 152//2 179//2 180//2
f 179//2 152//2 154//2
f 164//2 181//2 162//2
f 181//2 164//2 175//2
f 181//3 175//3 178//3
f 181//2 178//2 177//2
f 181//3 177//3 180//3
f 181//2 180//2 179//2
f 162//2 181//2 160//2
f 167//1 164//1 165//1
f 164//1 167//1 174//1
f 173//4 172//4 176//4
f 172//4 173//4 171//4
f 166//5 160//5 181//5
f 160//5 166//5 163//5
f 179//4 166//4 181//4
f 166//4 179//4 66//4
f 153//7 179//7 154//7
f 179//7 153//7 66//7
f 36//5 156//5 178//5
f 156//5 36//5 159//5
f 175//4 36//4 178//4
f 36//4 175//4 170//4
f 172//7 175//7 176//7
f 175//7 172//7 170//7
f 168//5 152//5 180//5
f 152//5 168//5 155//5
f 177//4 168//4 180//4
f 168//4 177//4 169//4
f 157//7 177//7 158//7
f 177//7 157//7 169//7
f 182//4 183//4 184//4
f 183//4 182//4 185//4
f 186//4 187//4 188//4
f 187//4 186//4 189//4
f 190//4 191//4 192//4
f 191//4 190//4 193//4
f 191//7 194//7 192//7
f 194//7 191//7 195//7
f 195//3 196//3 197//3
f 196//3 195//3 191//3
f 196//3 191//3 193//3
f 183//3 198//3 199//3
f 198//3 183//3 185//3
f 187//3 200//3 201//3
f 200//3 187//3 189//3
f 197//3 202//3 203//3
f 202//3 197//3 196//3
f 202//3 196//3 199//3
f 202//3 199//3 198//3
f 202//2 198//2 201//2
f 202//4 201//4 200//4
f 203//3 202//3 204//3
f 197//5 205//5 206//5
f 205//5 197//5 203//5
f 206//2 207//2 194//2
f 207//2 206//2 205//2
f 207//2 205//2 208//2
f 186//2 209//2 210//2
f 209//2 186//2 188//2
f 182//2 211//2 212//2
f 211//2 182//2 184//2
f 194//2 213//2 192//2
f 213//2 194//2 207//2
f 213//3 207//3 210//3
f 213//2 210//2 209//2
f 213//3 209//3 212//3
f 213//2 212//2 211//2
f 192//2 213//2 190//2
f 197//1 194//1 195//1
f 194//1 197//1 206//1
f 205//4 204//4 208//4
f 204//4 205//4 203//4
f 196//5 190//5 213//5
f 190//5 196//5 193//5
f 211//4 196//4 213//4
f 196//4 211//4 199//4
f 183//7 211//7 184//7
f 211//7 183//7 199//7
f 200//5 186//5 210//5
f 186//5 200//5 189//5
f 207//4 200//4 210//4
f 200//4 207//4 202//4
f 204//7 207//7 208//7
f 207//7 204//7 202//7
f 198//5 182//5 212//5
f 182//5 198//5 185//5
f 209//4 198//4 212//4
f 198//4 209//4 201//4
f 187//7 209//7 188//7
f 209//7 187//7 201//7
f 214//4 215//4 216//4
f 215//4 214//4 217//4
f 218//4 219//4 220//4
f 219//4 218//4 221//4
f 222//4 223//4 224//4
f 223//4 222//4 225//4
f 223//7 226//7 224//7
f 226//7 223//7 227//7
f 227//3 228//3 229//3
f 228//3 227//3 223//3
f 228//3 223//3 225//3
f 215//3 230//3 231//3
f 230//3 215//3 217//3
f 219//3 232//3 233//3
f 232//3 219//3 221//3
f 229//3 234//3 235//3
f 234//3 229//3 228//3
f 234//3 228//3 231//3
f 234//3 231//3 230//3
f 234//2 230//2 233//2
f 234//4 233//4 232//4
f 235//3 234//3 236//3
f 229//5 237//5 238//5
f 237//5 229//5 235//5
f 238//2 239//2 226//2
f 239//2 238//2 237//2
f 239//2 237//2 240//2
f 218//2 241//2 37//2
f 241//2 218//2 220//2
f 214//2 71//2 242//2
f 71//2 214//2 216//2
f 226//2 243//2 224//2
f 243//2 226//2 239//2
f 243//3 239//3 37//3
f 243//2 37//2 241//2
f 243//3 241//3 242//3
f 243//2 242//2 71//2
f 224//2 243//2 222//2
f 229//1 226//1 227//1
f 226//1 229//1 238//1
f 237//4 236//4 240//4
f 236//4 237//4 235//4
f 228//5 222//5 243//5
f 222//5 228//5 225//5
f 71//4 228//4 243//4
f 228//4 71//4 231//4
f 215//7 71//7 216//7
f 71//7 215//7 231//7
f 232//5 218//5 37//5
f 218//5 232//5 221//5
f 239//4 232//4 37//4
f 232//4 239//4 234//4
f 236//7 239//7 240//7
f 239//7 236//7 234//7
f 230//5 214//5 242//5
f 214//5 230//5 217//5
f 241//4 230//4 242//4
f 230//4 241//4 233//4
f 219//7 241//7 220//7
f 241//7 219//7 233//7
