# Blender v3.1.2 OBJ File: ''
# www.blender.org
mtllib 294.mtl
o 294_-_ORGANIZADOR_MAQUIAGEM_MD-1(400_A_499mm)x(360_A_535mm)
v 105.000000 -329.399994 0.000001
v 100.000000 -325.399994 0.000001
v 105.000000 -325.399994 0.000001
v 100.000000 -329.399994 0.000001
v 400.799988 -329.399994 0.000001
v 300.799988 -325.399994 0.000001
v 400.799988 -325.399994 0.000001
v 300.799988 -329.399994 0.000001
v 296.600006 -329.399994 0.000001
v 109.200005 -325.399994 0.000001
v 296.600006 -325.399994 0.000001
v 109.200005 -329.399994 0.000001
v 100.000000 -329.399994 50.000000
v 100.000000 -325.399994 50.000000
v 109.200005 -329.399994 25.000000
v 300.799988 -329.399994 25.000000
v 410.000000 -329.399994 0.000001
v 405.000000 -329.399994 25.000000
v 405.000000 -329.399994 0.000001
v 105.000000 -329.399994 25.000000
v 410.000000 -329.399994 50.000000
v 296.600006 -329.399994 25.000000
v 400.799988 -329.399994 25.000000
v 410.000000 -325.399994 50.000000
v 410.000000 -325.399994 0.000001
v 105.000000 -325.399994 25.000000
v 109.200005 -325.399994 25.000000
v 296.600006 -325.399994 25.000000
v 300.799988 -325.399994 25.000000
v 400.799988 -325.399994 25.000000
v 405.000000 -325.399994 25.000000
v 405.000000 -325.399994 0.000001
v 401.000000 -105.600006 50.000000
v 405.000000 0.000000 50.000000
v 401.000000 0.000000 50.000000
v 405.000000 -105.600006 50.000000
v 401.000000 -215.399994 50.000000
v 405.000000 -109.800003 50.000000
v 401.000000 -109.800003 50.000000
v 405.000000 -215.399994 50.000000
v 401.000000 -325.199982 50.000000
v 405.000000 -219.600006 50.000000
v 401.000000 -219.600006 50.000000
v 405.000000 -325.199982 50.000000
v 401.000000 0.000000 0.000000
v 405.000000 0.000000 0.000000
v 401.000000 -435.000000 50.000000
v 405.000000 -329.399994 50.000000
v 401.000000 -329.399994 50.000000
v 405.000000 -435.000000 50.000000
v 405.000000 -435.000000 0.000000
v 401.000000 -435.000000 0.000000
v 405.000000 -105.600006 25.000000
v 405.000000 -215.399994 25.000000
v 405.000000 -109.800003 25.000000
v 405.000000 -325.199982 25.000000
v 405.000000 -219.600006 25.000000
v 401.000000 -219.600006 25.000000
v 401.000000 -325.199982 25.000000
v 401.000000 -109.800003 25.000000
v 401.000000 -215.399994 25.000000
v 401.000000 -105.600006 25.000000
v 401.000000 -329.399994 25.000000
v 105.200005 -105.600006 50.000000
v 109.200005 0.000000 50.000000
v 105.200005 0.000000 50.000000
v 109.200005 -105.600006 50.000000
v 105.200005 -215.399994 50.000000
v 109.200005 -109.800003 50.000000
v 105.200005 -109.800003 50.000000
v 109.200005 -215.399994 50.000000
v 105.200005 -325.199982 50.000000
v 109.200005 -219.600006 50.000000
v 105.200005 -219.600006 50.000000
v 109.200005 -325.199982 50.000000
v 105.200005 0.000000 0.000000
v 109.200005 0.000000 0.000000
v 105.200005 -435.000000 50.000000
v 109.200005 -329.399994 50.000000
v 105.200005 -329.399994 50.000000
v 109.200005 -435.000000 50.000000
v 109.200005 -435.000000 0.000000
v 105.200005 -435.000000 0.000000
v 109.200005 -105.600006 25.000000
v 109.200005 -215.399994 25.000000
v 109.200005 -109.800003 25.000000
v 109.200005 -325.199982 25.000000
v 109.200005 -219.600006 25.000000
v 105.200005 -219.600006 25.000000
v 105.200005 -325.199982 25.000000
v 105.200005 -109.800003 25.000000
v 105.200005 -215.399994 25.000000
v 105.200005 -105.600006 25.000000
v 105.200005 -329.399994 25.000000
v 105.000000 -219.600006 0.000001
v 0.000000 -215.600006 0.000001
v 105.000000 -215.600006 0.000001
v 0.000000 -219.600006 0.000001
v 400.799988 -219.600006 0.000001
v 300.799988 -215.600006 0.000001
v 400.799988 -215.600006 0.000001
v 300.799988 -219.600006 0.000001
v 296.600006 -219.600006 0.000001
v 109.200005 -215.600006 0.000001
v 296.600006 -215.600006 0.000001
v 109.200005 -219.600006 0.000001
v 0.000000 -219.600006 50.000000
v 0.000000 -215.600006 50.000000
v 300.799988 -219.600006 25.000000
v 410.000000 -219.600006 0.000001
v 405.000000 -219.600006 0.000001
v 105.000000 -219.600006 25.000000
v 410.000000 -219.600006 50.000000
v 296.600006 -219.600006 25.000000
v 400.799988 -219.600006 25.000000
v 410.000000 -215.600006 50.000000
v 410.000000 -215.600006 0.000001
v 105.000000 -215.600006 25.000000
v 109.200005 -215.600006 25.000000
v 296.600006 -215.600006 25.000000
v 300.799988 -215.600006 25.000000
v 400.799988 -215.600006 25.000000
v 405.000000 -215.600006 25.000000
v 405.000000 -215.600006 0.000001
v 105.000000 -109.800003 0.000001
v 100.000000 -105.800003 0.000001
v 105.000000 -105.800003 0.000001
v 100.000000 -109.800003 0.000001
v 400.799988 -109.800003 0.000001
v 300.799988 -105.800003 0.000001
v 400.799988 -105.800003 0.000001
v 300.799988 -109.800003 0.000001
v 296.600006 -109.800003 0.000001
v 109.200005 -105.800003 0.000001
v 296.600006 -105.800003 0.000001
v 109.200005 -109.800003 0.000001
v 100.000000 -109.800003 50.000000
v 100.000000 -105.800003 50.000000
v 300.799988 -109.800003 25.000000
v 410.000000 -109.800003 0.000001
v 405.000000 -109.800003 0.000001
v 105.000000 -109.800003 25.000000
v 410.000000 -109.800003 50.000000
v 296.600006 -109.800003 25.000000
v 400.799988 -109.800003 25.000000
v 410.000000 -105.800003 50.000000
v 410.000000 -105.800003 0.000001
v 105.000000 -105.800003 25.000000
v 109.200005 -105.800003 25.000000
v 296.600006 -105.800003 25.000000
v 300.799988 -105.800003 25.000000
v 400.799988 -105.800003 25.000000
v 405.000000 -105.800003 25.000000
v 405.000000 -105.800003 0.000001
v 296.799988 -105.600006 50.000000
v 300.799988 0.000000 50.000000
v 296.799988 0.000000 50.000000
v 300.799988 -105.600006 50.000000
v 296.799988 -215.399994 50.000000
v 300.799988 -109.800003 50.000000
v 296.799988 -109.800003 50.000000
v 300.799988 -215.399994 50.000000
v 296.799988 -325.199982 50.000000
v 300.799988 -219.600006 50.000000
v 296.799988 -219.600006 50.000000
v 300.799988 -325.199982 50.000000
v 296.799988 0.000000 0.000000
v 300.799988 0.000000 0.000000
v 296.799988 -435.000000 50.000000
v 300.799988 -329.399994 50.000000
v 296.799988 -329.399994 50.000000
v 300.799988 -435.000000 50.000000
v 300.799988 -435.000000 0.000000
v 296.799988 -435.000000 0.000000
v 300.799988 -105.600006 25.000000
v 300.799988 -215.399994 25.000000
v 300.799988 -325.199982 25.000000
v 296.799988 -219.600006 25.000000
v 296.799988 -325.199982 25.000000
v 296.799988 -109.800003 25.000000
v 296.799988 -215.399994 25.000000
v 296.799988 -105.600006 25.000000
v 296.799988 -329.399994 25.000000
vn 0.0000 0.0000 -1.0000
vn -1.0000 0.0000 0.0000
vn 0.0000 -1.0000 0.0000
vn 0.0000 -1.0000 -0.0001
vn 1.0000 0.0000 0.0000
vn 0.0000 1.0000 0.0000
vn 0.0000 1.0000 0.0001
vn 0.0000 1.0000 -0.0001
vn 0.0000 0.0000 1.0000
usemtl None
s off
f 1//1 2//1 3//1
f 2//1 1//1 4//1
f 5//1 6//1 7//1
f 6//1 5//1 8//1
f 9//1 10//1 11//1
f 10//1 9//1 12//1
f 13//2 2//2 4//2
f 2//2 13//2 14//2
f 9//3 15//3 12//3
f 5//3 16//3 8//3
f 17//3 18//3 19//3
f 1//3 13//3 4//3
f 13//3 1//3 20//3
f 13//3 20//3 21//3
f 21//4 20//4 15//4
f 21//3 15//3 22//3
f 22//3 15//3 9//3
f 21//3 22//3 16//3
f 21//3 16//3 23//3
f 23//3 16//3 5//3
f 21//3 23//3 18//3
f 21//3 18//3 17//3
f 24//5 17//5 25//5
f 17//5 24//5 21//5
f 14//6 26//6 2//6
f 26//6 14//6 24//6
f 26//7 24//7 27//7
f 27//6 24//6 10//6
f 10//6 24//6 28//6
f 28//8 24//8 29//8
f 29//6 24//6 6//6
f 6//6 24//6 30//6
f 30//6 24//6 31//6
f 31//6 24//6 32//6
f 32//6 24//6 25//6
f 7//6 6//6 30//6
f 11//6 10//6 28//6
f 3//6 2//6 26//6
f 13//9 24//9 14//9
f 24//9 13//9 21//9
f 17//1 32//1 25//1
f 32//1 17//1 19//1
f 28//5 9//5 11//5
f 9//5 28//5 22//5
f 16//1 28//1 29//1
f 28//1 16//1 22//1
f 16//2 6//2 8//2
f 6//2 16//2 29//2
f 30//5 5//5 7//5
f 5//5 30//5 23//5
f 18//1 30//1 31//1
f 30//1 18//1 23//1
f 18//2 32//2 19//2
f 32//2 18//2 31//2
f 26//5 1//5 3//5
f 1//5 26//5 20//5
f 15//1 26//1 27//1
f 26//1 15//1 20//1
f 15//2 10//2 12//2
f 10//2 15//2 27//2
f 33//9 34//9 35//9
f 34//9 33//9 36//9
f 37//9 38//9 39//9
f 38//9 37//9 40//9
f 41//9 42//9 43//9
f 42//9 41//9 44//9
f 34//6 45//6 35//6
f 45//6 34//6 46//6
f 47//9 48//9 49//9
f 48//9 47//9 50//9
f 51//3 47//3 52//3
f 47//3 51//3 50//3
f 51//1 45//1 46//1
f 45//1 51//1 52//1
f 46//5 53//5 51//5
f 53//5 46//5 34//5
f 53//5 34//5 36//5
f 38//5 54//5 55//5
f 54//5 38//5 40//5
f 42//5 56//5 57//5
f 56//5 42//5 44//5
f 51//5 18//5 50//5
f 18//5 51//5 53//5
f 18//5 53//5 55//5
f 18//2 55//2 54//2
f 18//5 54//5 57//5
f 18//9 57//9 56//9
f 50//5 18//5 48//5
f 41//2 58//2 59//2
f 58//2 41//2 43//2
f 37//2 60//2 61//2
f 60//2 37//2 39//2
f 45//2 62//2 35//2
f 62//2 45//2 63//2
f 62//2 63//2 59//2
f 62//9 59//9 58//9
f 62//2 58//2 61//2
f 62//9 61//9 60//9
f 35//2 62//2 33//2
f 52//2 63//2 45//2
f 63//2 52//2 47//2
f 63//2 47//2 49//2
f 56//3 41//3 59//3
f 41//3 56//3 44//3
f 63//9 56//9 59//9
f 56//9 63//9 18//9
f 48//6 63//6 49//6
f 63//6 48//6 18//6
f 54//3 37//3 61//3
f 37//3 54//3 40//3
f 58//9 54//9 61//9
f 54//9 58//9 57//9
f 42//6 58//6 43//6
f 58//6 42//6 57//6
f 53//3 33//3 62//3
f 33//3 53//3 36//3
f 60//9 53//9 62//9
f 53//9 60//9 55//9
f 38//6 60//6 39//6
f 60//6 38//6 55//6
f 64//9 65//9 66//9
f 65//9 64//9 67//9
f 68//9 69//9 70//9
f 69//9 68//9 71//9
f 72//9 73//9 74//9
f 73//9 72//9 75//9
f 65//6 76//6 66//6
f 76//6 65//6 77//6
f 78//9 79//9 80//9
f 79//9 78//9 81//9
f 82//3 78//3 83//3
f 78//3 82//3 81//3
f 82//1 76//1 77//1
f 76//1 82//1 83//1
f 77//5 84//5 82//5
f 84//5 77//5 65//5
f 84//5 65//5 67//5
f 69//5 85//5 86//5
f 85//5 69//5 71//5
f 73//5 87//5 88//5
f 87//5 73//5 75//5
f 82//5 15//5 81//5
f 15//5 82//5 84//5
f 15//5 84//5 86//5
f 15//2 86//2 85//2
f 15//5 85//5 88//5
f 15//9 88//9 87//9
f 81//5 15//5 79//5
f 72//2 89//2 90//2
f 89//2 72//2 74//2
f 68//2 91//2 92//2
f 91//2 68//2 70//2
f 76//2 93//2 66//2
f 93//2 76//2 94//2
f 93//2 94//2 90//2
f 93//9 90//9 89//9
f 93//2 89//2 92//2
f 93//9 92//9 91//9
f 66//2 93//2 64//2
f 83//2 94//2 76//2
f 94//2 83//2 78//2
f 94//2 78//2 80//2
f 87//3 72//3 90//3
f 72//3 87//3 75//3
f 94//9 87//9 90//9
f 87//9 94//9 15//9
f 79//6 94//6 80//6
f 94//6 79//6 15//6
f 85//3 68//3 92//3
f 68//3 85//3 71//3
f 89//9 85//9 92//9
f 85//9 89//9 88//9
f 73//6 89//6 74//6
f 89//6 73//6 88//6
f 84//3 64//3 93//3
f 64//3 84//3 67//3
f 91//9 84//9 93//9
f 84//9 91//9 86//9
f 69//6 91//6 70//6
f 91//6 69//6 86//6
f 95//1 96//1 97//1
f 96//1 95//1 98//1
f 99//1 100//1 101//1
f 100//1 99//1 102//1
f 103//1 104//1 105//1
f 104//1 103//1 106//1
f 107//2 96//2 98//2
f 96//2 107//2 108//2
f 103//3 88//3 106//3
f 99//3 109//3 102//3
f 110//3 57//3 111//3
f 95//3 107//3 98//3
f 107//3 95//3 112//3
f 107//3 112//3 113//3
f 113//3 112//3 88//3
f 113//3 88//3 114//3
f 114//3 88//3 103//3
f 113//3 114//3 109//3
f 113//3 109//3 115//3
f 115//3 109//3 99//3
f 113//3 115//3 57//3
f 113//3 57//3 110//3
f 116//5 110//5 117//5
f 110//5 116//5 113//5
f 108//6 118//6 96//6
f 118//6 108//6 116//6
f 118//6 116//6 119//6
f 119//6 116//6 104//6
f 104//6 116//6 120//6
f 120//6 116//6 121//6
f 121//6 116//6 100//6
f 100//6 116//6 122//6
f 122//6 116//6 123//6
f 123//6 116//6 124//6
f 124//6 116//6 117//6
f 101//6 100//6 122//6
f 105//6 104//6 120//6
f 97//6 96//6 118//6
f 107//9 116//9 108//9
f 116//9 107//9 113//9
f 110//1 124//1 117//1
f 124//1 110//1 111//1
f 120//5 103//5 105//5
f 103//5 120//5 114//5
f 109//1 120//1 121//1
f 120//1 109//1 114//1
f 109//2 100//2 102//2
f 100//2 109//2 121//2
f 122//5 99//5 101//5
f 99//5 122//5 115//5
f 57//1 122//1 123//1
f 122//1 57//1 115//1
f 57//2 124//2 111//2
f 124//2 57//2 123//2
f 118//5 95//5 97//5
f 95//5 118//5 112//5
f 88//1 118//1 119//1
f 118//1 88//1 112//1
f 88//2 104//2 106//2
f 104//2 88//2 119//2
f 125//1 126//1 127//1
f 126//1 125//1 128//1
f 129//1 130//1 131//1
f 130//1 129//1 132//1
f 133//1 134//1 135//1
f 134//1 133//1 136//1
f 137//2 126//2 128//2
f 126//2 137//2 138//2
f 133//3 86//3 136//3
f 129//3 139//3 132//3
f 140//3 55//3 141//3
f 125//3 137//3 128//3
f 137//3 125//3 142//3
f 137//3 142//3 143//3
f 143//3 142//3 86//3
f 143//3 86//3 144//3
f 144//3 86//3 133//3
f 143//3 144//3 139//3
f 143//3 139//3 145//3
f 145//3 139//3 129//3
f 143//3 145//3 55//3
f 143//3 55//3 140//3
f 146//5 140//5 147//5
f 140//5 146//5 143//5
f 138//6 148//6 126//6
f 148//6 138//6 146//6
f 148//6 146//6 149//6
f 149//6 146//6 134//6
f 134//6 146//6 150//6
f 150//6 146//6 151//6
f 151//6 146//6 130//6
f 130//6 146//6 152//6
f 152//6 146//6 153//6
f 153//6 146//6 154//6
f 154//6 146//6 147//6
f 131//6 130//6 152//6
f 135//6 134//6 150//6
f 127//6 126//6 148//6
f 137//9 146//9 138//9
f 146//9 137//9 143//9
f 140//1 154//1 147//1
f 154//1 140//1 141//1
f 150//5 133//5 135//5
f 133//5 150//5 144//5
f 139//1 150//1 151//1
f 150//1 139//1 144//1
f 139//2 130//2 132//2
f 130//2 139//2 151//2
f 152//5 129//5 131//5
f 129//5 152//5 145//5
f 55//1 152//1 153//1
f 152//1 55//1 145//1
f 55//2 154//2 141//2
f 154//2 55//2 153//2
f 148//5 125//5 127//5
f 125//5 148//5 142//5
f 86//1 148//1 149//1
f 148//1 86//1 142//1
f 86//2 134//2 136//2
f 134//2 86//2 149//2
f 155//9 156//9 157//9
f 156//9 155//9 158//9
f 159//9 160//9 161//9
f 160//9 159//9 162//9
f 163//9 164//9 165//9
f 164//9 163//9 166//9
f 156//6 167//6 157//6
f 167//6 156//6 168//6
f 169//9 170//9 171//9
f 170//9 169//9 172//9
f 173//3 169//3 174//3
f 169//3 173//3 172//3
f 173//1 167//1 168//1
f 167//1 173//1 174//1
f 168//5 175//5 173//5
f 175//5 168//5 156//5
f 175//5 156//5 158//5
f 160//5 176//5 139//5
f 176//5 160//5 162//5
f 164//5 177//5 109//5
f 177//5 164//5 166//5
f 173//5 16//5 172//5
f 16//5 173//5 175//5
f 16//5 175//5 139//5
f 16//2 139//2 176//2
f 16//5 176//5 109//5
f 16//9 109//9 177//9
f 172//5 16//5 170//5
f 163//2 178//2 179//2
f 178//2 163//2 165//2
f 159//2 180//2 181//2
f 180//2 159//2 161//2
f 167//2 182//2 157//2
f 182//2 167//2 183//2
f 182//2 183//2 179//2
f 182//9 179//9 178//9
f 182//2 178//2 181//2
f 182//9 181//9 180//9
f 157//2 182//2 155//2
f 174//2 183//2 167//2
f 183//2 174//2 169//2
f 183//2 169//2 171//2
f 177//3 163//3 179//3
f 163//3 177//3 166//3
f 183//9 177//9 179//9
f 177//9 183//9 16//9
f 170//6 183//6 171//6
f 183//6 170//6 16//6
f 176//3 159//3 181//3
f 159//3 176//3 162//3
f 178//9 176//9 181//9
f 176//9 178//9 109//9
f 164//6 178//6 165//6
f 178//6 164//6 109//6
f 175//3 155//3 182//3
f 155//3 175//3 158//3
f 180//9 175//9 182//9
f 175//9 180//9 139//9
f 160//6 180//6 161//6
f 180//6 160//6 139//6
