# Blender v3.1.2 OBJ File: ''
# www.blender.org
mtllib 297.mtl
o 297_-_ORGANIZADOR_MAQUIAGEM_MD-1(700_A_799mm)x(360_A_535mm)
v 105.200005 -105.600006 50.000000
v 109.200005 0.000000 50.000000
v 105.200005 0.000000 50.000000
v 109.200005 -105.600006 50.000000
v 105.200005 -215.399994 50.000000
v 109.200005 -109.800003 50.000000
v 105.200005 -109.800003 50.000000
v 109.200005 -215.399994 50.000000
v 105.200005 -325.199982 50.000000
v 109.200005 -219.600006 50.000000
v 105.200005 -219.600006 50.000000
v 109.200005 -325.199982 50.000000
v 105.200005 0.000000 0.000000
v 109.200005 0.000000 0.000000
v 105.200005 -435.000000 50.000000
v 109.200005 -329.399994 50.000000
v 105.200005 -329.399994 50.000000
v 109.200005 -435.000000 50.000000
v 109.200005 -435.000000 0.000000
v 105.200005 -435.000000 0.000000
v 109.200005 -105.600006 25.000000
v 109.200005 -215.399994 25.000000
v 109.200005 -109.800003 25.000000
v 109.200005 -325.199982 25.000000
v 109.200005 -219.600006 25.000000
v 109.200005 -329.399994 25.000000
v 105.200005 -329.399994 25.000000
v 105.200005 -219.600006 25.000000
v 105.200005 -325.199982 25.000000
v 105.200005 -109.800003 25.000000
v 105.200005 -215.399994 25.000000
v 105.200005 -105.600006 25.000000
v 105.000000 -329.399994 0.000001
v 100.000000 -325.399994 0.000001
v 105.000000 -325.399994 0.000001
v 100.000000 -329.399994 0.000001
v 293.200012 -329.399994 0.000001
v 109.200005 -325.399994 0.000001
v 293.200012 -325.399994 0.000001
v 109.200005 -329.399994 0.000001
v 501.600006 -329.399994 0.000001
v 401.600006 -325.399994 0.000001
v 501.600006 -325.399994 0.000001
v 401.600006 -329.399994 0.000001
v 397.399994 -329.399994 0.000001
v 297.399994 -325.399994 0.000001
v 397.399994 -325.399994 0.000001
v 297.399994 -329.399994 0.000001
v 605.799988 -329.399994 0.000001
v 505.800018 -325.399994 0.000001
v 605.799988 -325.399994 0.000001
v 505.800018 -329.399994 0.000001
v 100.000000 -329.399994 50.000000
v 100.000000 -325.399994 50.000000
v 297.399994 -329.399994 25.000000
v 401.600006 -329.399994 25.000000
v 505.800018 -329.399994 25.000000
v 710.000000 -329.399994 0.000001
v 610.000000 -329.399994 25.000000
v 610.000000 -329.399994 0.000001
v 105.000000 -329.399994 25.000000
v 710.000000 -329.399994 50.000000
v 293.200012 -329.399994 25.000000
v 397.399994 -329.399994 25.000000
v 501.600006 -329.399994 25.000000
v 605.799988 -329.399994 25.000000
v 710.000000 -325.399994 50.000000
v 710.000000 -325.399994 0.000001
v 105.000000 -325.399994 25.000000
v 109.200005 -325.399994 25.000000
v 293.200012 -325.399994 25.000000
v 297.399994 -325.399994 25.000000
v 397.399994 -325.399994 25.000000
v 401.600006 -325.399994 25.000000
v 501.600006 -325.399994 25.000000
v 505.800018 -325.399994 25.000000
v 605.799988 -325.399994 25.000000
v 610.000000 -325.399994 25.000000
v 610.000000 -325.399994 0.000001
v 105.000000 -219.600006 0.000001
v 0.000000 -215.600006 0.000001
v 105.000000 -215.600006 0.000001
v 0.000000 -219.600006 0.000001
v 293.199982 -219.600006 0.000001
v 109.200005 -215.600006 0.000001
v 293.199982 -215.600006 0.000001
v 109.200005 -219.600006 0.000001
v 501.600037 -219.600006 0.000001
v 401.600006 -215.600006 0.000001
v 501.600037 -215.600006 0.000001
v 401.600006 -219.600006 0.000001
v 397.399994 -219.600006 0.000001
v 297.399994 -215.600006 0.000001
v 397.399994 -215.600006 0.000001
v 297.399994 -219.600006 0.000001
v 605.799988 -219.600006 0.000001
v 505.800018 -215.600006 0.000001
v 605.799988 -215.600006 0.000001
v 505.800018 -219.600006 0.000001
v 0.000000 -219.600006 50.000000
v 0.000000 -215.600006 50.000000
v 297.399994 -219.600006 25.000000
v 401.600006 -219.600006 25.000000
v 505.800018 -219.600006 25.000000
v 710.000000 -219.600006 0.000001
v 610.000000 -219.600006 25.000000
v 610.000000 -219.600006 0.000001
v 105.000000 -219.600006 25.000000
v 710.000000 -219.600006 50.000000
v 293.199982 -219.600006 25.000000
v 397.399994 -219.600006 25.000000
v 501.600037 -219.600006 25.000000
v 605.799988 -219.600006 25.000000
v 710.000000 -215.600006 50.000000
v 710.000000 -215.600006 0.000001
v 105.000000 -215.600006 25.000000
v 109.200005 -215.600006 25.000000
v 293.199982 -215.600006 25.000000
v 297.399994 -215.600006 25.000000
v 397.399994 -215.600006 25.000000
v 401.600006 -215.600006 25.000000
v 501.600037 -215.600006 25.000000
v 505.800018 -215.600006 25.000000
v 605.799988 -215.600006 25.000000
v 610.000000 -215.600006 25.000000
v 610.000000 -215.600006 0.000001
v 606.000000 -105.600006 50.000000
v 610.000000 0.000000 50.000000
v 606.000000 0.000000 50.000000
v 610.000000 -105.600006 50.000000
v 606.000000 -215.399994 50.000000
v 610.000000 -109.800003 50.000000
v 606.000000 -109.800003 50.000000
v 610.000000 -215.399994 50.000000
v 606.000000 -325.199982 50.000000
v 610.000000 -219.600006 50.000000
v 606.000000 -219.600006 50.000000
v 610.000000 -325.199982 50.000000
v 606.000000 0.000000 0.000000
v 610.000000 0.000000 0.000000
v 606.000000 -435.000000 50.000000
v 610.000000 -329.399994 50.000000
v 606.000000 -329.399994 50.000000
v 610.000000 -435.000000 50.000000
v 610.000000 -435.000000 0.000000
v 606.000000 -435.000000 0.000000
v 610.000000 -105.600006 25.000000
v 610.000000 -215.399994 25.000000
v 610.000000 -109.800003 25.000000
v 610.000000 -325.199982 25.000000
v 606.000000 -329.399994 25.000000
v 606.000000 -219.600006 25.000000
v 606.000000 -325.199982 25.000000
v 606.000000 -109.800003 25.000000
v 606.000000 -215.399994 25.000000
v 606.000000 -105.600006 25.000000
v 397.600006 -105.600006 50.000000
v 401.600006 0.000000 50.000000
v 397.600006 0.000000 50.000000
v 401.600006 -105.600006 50.000000
v 397.600006 -215.399994 50.000000
v 401.600006 -109.800003 50.000000
v 397.600006 -109.800003 50.000000
v 401.600006 -215.399994 50.000000
v 397.600006 -325.199982 50.000000
v 401.600006 -219.600006 50.000000
v 397.600006 -219.600006 50.000000
v 401.600006 -325.199982 50.000000
v 397.600006 0.000000 0.000000
v 401.600006 0.000000 0.000000
v 397.600006 -435.000000 50.000000
v 401.600006 -329.399994 50.000000
v 397.600006 -329.399994 50.000000
v 401.600006 -435.000000 50.000000
v 401.600006 -435.000000 0.000000
v 397.600006 -435.000000 0.000000
v 401.600006 -105.600006 25.000000
v 401.600006 -215.399994 25.000000
v 401.600006 -109.800003 25.000000
v 401.600006 -325.199982 25.000000
v 397.600006 -329.399994 25.000000
v 397.600006 -219.600006 25.000000
v 397.600006 -325.199982 25.000000
v 397.600006 -109.800003 25.000000
v 397.600006 -215.399994 25.000000
v 397.600006 -105.600006 25.000000
v 501.799988 -105.600006 50.000000
v 505.799988 0.000000 50.000000
v 501.799988 0.000000 50.000000
v 505.799988 -105.600006 50.000000
v 501.799988 -215.399994 50.000000
v 505.799988 -109.800003 50.000000
v 501.799988 -109.800003 50.000000
v 505.799988 -215.399994 50.000000
v 501.799988 -325.199982 50.000000
v 505.799988 -219.600006 50.000000
v 501.799988 -219.600006 50.000000
v 505.799988 -325.199982 50.000000
v 501.799988 0.000000 0.000000
v 505.799988 0.000000 0.000000
v 501.799988 -435.000000 50.000000
v 505.799988 -329.399994 50.000000
v 501.799988 -329.399994 50.000000
v 505.799988 -435.000000 50.000000
v 505.799988 -435.000000 0.000000
v 501.799988 -435.000000 0.000000
v 505.799988 -105.600006 25.000000
v 505.799988 -215.399994 25.000000
v 505.799988 -109.800003 25.000000
v 505.799988 -325.199982 25.000000
v 501.799988 -329.399994 25.000000
v 501.799988 -219.600006 25.000000
v 501.799988 -325.199982 25.000000
v 501.799988 -109.800003 25.000000
v 501.799988 -215.399994 25.000000
v 501.799988 -105.600006 25.000000
v 105.000000 -109.800003 0.000001
v 100.000000 -105.800003 0.000001
v 105.000000 -105.800003 0.000001
v 100.000000 -109.800003 0.000001
v 293.200012 -109.800003 0.000001
v 109.200005 -105.800003 0.000001
v 293.200012 -105.800003 0.000001
v 109.200005 -109.800003 0.000001
v 501.600006 -109.800003 0.000001
v 401.600006 -105.800003 0.000001
v 501.600006 -105.800003 0.000001
v 401.600006 -109.800003 0.000001
v 397.399994 -109.800003 0.000001
v 297.399994 -105.800003 0.000001
v 397.399994 -105.800003 0.000001
v 297.399994 -109.800003 0.000001
v 605.799988 -109.800003 0.000001
v 505.800018 -105.800003 0.000001
v 605.799988 -105.800003 0.000001
v 505.800018 -109.800003 0.000001
v 100.000000 -109.800003 50.000000
v 100.000000 -105.800003 50.000000
v 297.399994 -109.800003 25.000000
v 710.000000 -109.800003 0.000001
v 610.000000 -109.800003 0.000001
v 105.000000 -109.800003 25.000000
v 710.000000 -109.800003 50.000000
v 293.200012 -109.800003 25.000000
v 397.399994 -109.800003 25.000000
v 501.600006 -109.800003 25.000000
v 605.799988 -109.800003 25.000000
v 710.000000 -105.800003 50.000000
v 710.000000 -105.800003 0.000001
v 105.000000 -105.800003 25.000000
v 109.200005 -105.800003 25.000000
v 293.200012 -105.800003 25.000000
v 297.399994 -105.800003 25.000000
v 397.399994 -105.800003 25.000000
v 401.600006 -105.800003 25.000000
v 501.600006 -105.800003 25.000000
v 505.800018 -105.800003 25.000000
v 605.799988 -105.800003 25.000000
v 610.000000 -105.800003 25.000000
v 610.000000 -105.800003 0.000001
v 293.399994 -105.600006 50.000000
v 297.399994 0.000000 50.000000
v 293.399994 0.000000 50.000000
v 297.399994 -105.600006 50.000000
v 293.399994 -215.399994 50.000000
v 297.399994 -109.800003 50.000000
v 293.399994 -109.800003 50.000000
v 297.399994 -215.399994 50.000000
v 293.399994 -325.199982 50.000000
v 297.399994 -219.600006 50.000000
v 293.399994 -219.600006 50.000000
v 297.399994 -325.199982 50.000000
v 293.399994 0.000000 0.000000
v 297.399994 0.000000 0.000000
v 293.399994 -435.000000 50.000000
v 297.399994 -329.399994 50.000000
v 293.399994 -329.399994 50.000000
v 297.399994 -435.000000 50.000000
v 297.399994 -435.000000 0.000000
v 293.399994 -435.000000 0.000000
v 297.399994 -105.600006 25.000000
v 297.399994 -215.399994 25.000000
v 297.399994 -325.199982 25.000000
v 293.399994 -329.399994 25.000000
v 293.399994 -219.600006 25.000000
v 293.399994 -325.199982 25.000000
v 293.399994 -109.800003 25.000000
v 293.399994 -215.399994 25.000000
v 293.399994 -105.600006 25.000000
vn 0.0000 0.0000 1.0000
vn 0.0000 1.0000 0.0000
vn 0.0000 -1.0000 0.0000
vn -0.0000 0.0000 -1.0000
vn 1.0000 0.0000 0.0000
vn -1.0000 0.0000 0.0000
vn 0.0000 -1.0000 -0.0001
vn 0.0000 -1.0000 0.0001
vn 0.0000 1.0000 -0.0001
vn 0.0000 -1.0000 0.0002
vn 0.0000 1.0000 0.0001
vn 0.9881 0.0000 0.1537
vn -0.1498 0.0000 0.9887
vn 0.0364 0.0000 -0.9993
usemtl None
s off
f 1//1 2//1 3//1
f 2//1 1//1 4//1
f 5//1 6//1 7//1
f 6//1 5//1 8//1
f 9//1 10//1 11//1
f 10//1 9//1 12//1
f 2//2 13//2 3//2
f 13//2 2//2 14//2
f 15//1 16//1 17//1
f 16//1 15//1 18//1
f 19//3 15//3 20//3
f 15//3 19//3 18//3
f 19//4 13//4 14//4
f 13//4 19//4 20//4
f 14//5 21//5 19//5
f 21//5 14//5 2//5
f 21//5 2//5 4//5
f 6//5 22//5 23//5
f 22//5 6//5 8//5
f 10//5 24//5 25//5
f 24//5 10//5 12//5
f 19//5 26//5 18//5
f 26//5 19//5 21//5
f 26//5 21//5 23//5
f 26//6 23//6 22//6
f 26//5 22//5 25//5
f 26//1 25//1 24//1
f 18//5 26//5 16//5
f 20//6 27//6 13//6
f 27//6 20//6 15//6
f 27//6 15//6 17//6
f 9//6 28//6 29//6
f 28//6 9//6 11//6
f 5//6 30//6 31//6
f 30//6 5//6 7//6
f 13//6 32//6 3//6
f 32//6 13//6 27//6
f 32//6 27//6 29//6
f 32//1 29//1 28//1
f 32//6 28//6 31//6
f 32//1 31//1 30//1
f 3//6 32//6 1//6
f 24//3 9//3 29//3
f 9//3 24//3 12//3
f 27//1 24//1 29//1
f 24//1 27//1 26//1
f 16//2 27//2 17//2
f 27//2 16//2 26//2
f 22//3 5//3 31//3
f 5//3 22//3 8//3
f 28//1 22//1 31//1
f 22//1 28//1 25//1
f 10//2 28//2 11//2
f 28//2 10//2 25//2
f 21//3 1//3 32//3
f 1//3 21//3 4//3
f 30//1 21//1 32//1
f 21//1 30//1 23//1
f 6//2 30//2 7//2
f 30//2 6//2 23//2
f 33//4 34//4 35//4
f 34//4 33//4 36//4
f 37//4 38//4 39//4
f 38//4 37//4 40//4
f 41//4 42//4 43//4
f 42//4 41//4 44//4
f 45//4 46//4 47//4
f 46//4 45//4 48//4
f 49//4 50//4 51//4
f 50//4 49//4 52//4
f 53//6 34//6 36//6
f 34//6 53//6 54//6
f 37//3 26//3 40//3
f 45//3 55//3 48//3
f 41//3 56//3 44//3
f 49//3 57//3 52//3
f 58//3 59//3 60//3
f 33//3 53//3 36//3
f 53//3 33//3 61//3
f 53//3 61//3 62//3
f 62//7 61//7 26//7
f 62//3 26//3 63//3
f 63//3 26//3 37//3
f 62//8 63//8 55//8
f 62//3 55//3 64//3
f 64//3 55//3 45//3
f 62//3 64//3 56//3
f 62//3 56//3 65//3
f 65//3 56//3 41//3
f 62//8 65//8 57//8
f 62//3 57//3 66//3
f 66//3 57//3 49//3
f 62//3 66//3 59//3
f 62//3 59//3 58//3
f 67//5 58//5 68//5
f 58//5 67//5 62//5
f 54//2 69//2 34//2
f 69//2 54//2 67//2
f 69//2 67//2 70//2
f 70//2 67//2 71//2
f 70//2 71//2 38//2
f 71//2 67//2 72//2
f 72//2 67//2 73//2
f 72//2 73//2 46//2
f 73//9 67//9 74//9
f 74//2 67//2 75//2
f 74//2 75//2 42//2
f 75//2 67//2 76//2
f 76//2 67//2 77//2
f 76//2 77//2 50//2
f 77//2 67//2 78//2
f 78//2 67//2 79//2
f 79//2 67//2 68//2
f 51//2 50//2 77//2
f 43//2 42//2 75//2
f 47//2 46//2 73//2
f 39//2 38//2 71//2
f 35//2 34//2 69//2
f 53//1 67//1 54//1
f 67//1 53//1 62//1
f 58//4 79//4 68//4
f 79//4 58//4 60//4
f 77//5 49//5 51//5
f 49//5 77//5 66//5
f 59//4 77//4 78//4
f 77//4 59//4 66//4
f 59//6 79//6 60//6
f 79//6 59//6 78//6
f 73//5 45//5 47//5
f 45//5 73//5 64//5
f 56//4 73//4 74//4
f 73//4 56//4 64//4
f 56//6 42//6 44//6
f 42//6 56//6 74//6
f 75//5 41//5 43//5
f 41//5 75//5 65//5
f 57//4 75//4 76//4
f 75//4 57//4 65//4
f 57//6 50//6 52//6
f 50//6 57//6 76//6
f 71//5 37//5 39//5
f 37//5 71//5 63//5
f 55//4 71//4 72//4
f 71//4 55//4 63//4
f 55//6 46//6 48//6
f 46//6 55//6 72//6
f 69//5 33//5 35//5
f 33//5 69//5 61//5
f 26//4 69//4 70//4
f 69//4 26//4 61//4
f 26//6 38//6 40//6
f 38//6 26//6 70//6
f 80//4 81//4 82//4
f 81//4 80//4 83//4
f 84//4 85//4 86//4
f 85//4 84//4 87//4
f 88//4 89//4 90//4
f 89//4 88//4 91//4
f 92//4 93//4 94//4
f 93//4 92//4 95//4
f 96//4 97//4 98//4
f 97//4 96//4 99//4
f 100//6 81//6 83//6
f 81//6 100//6 101//6
f 84//3 25//3 87//3
f 92//3 102//3 95//3
f 88//3 103//3 91//3
f 96//3 104//3 99//3
f 105//3 106//3 107//3
f 80//3 100//3 83//3
f 100//3 80//3 108//3
f 100//3 108//3 109//3
f 109//10 108//10 25//10
f 109//3 25//3 110//3
f 110//3 25//3 84//3
f 109//7 110//7 102//7
f 109//3 102//3 111//3
f 111//3 102//3 92//3
f 109//3 111//3 103//3
f 109//3 103//3 112//3
f 112//3 103//3 88//3
f 109//3 112//3 104//3
f 109//3 104//3 113//3
f 113//3 104//3 96//3
f 109//3 113//3 106//3
f 109//3 106//3 105//3
f 114//5 105//5 115//5
f 105//5 114//5 109//5
f 101//2 116//2 81//2
f 116//2 101//2 114//2
f 116//9 114//9 117//9
f 117//2 114//2 118//2
f 117//2 118//2 85//2
f 118//2 114//2 119//2
f 119//2 114//2 120//2
f 119//2 120//2 93//2
f 120//2 114//2 121//2
f 121//2 114//2 122//2
f 121//2 122//2 89//2
f 122//11 114//11 123//11
f 123//2 114//2 124//2
f 123//2 124//2 97//2
f 124//2 114//2 125//2
f 125//2 114//2 126//2
f 126//2 114//2 115//2
f 98//2 97//2 124//2
f 90//2 89//2 122//2
f 94//2 93//2 120//2
f 86//2 85//2 118//2
f 82//2 81//2 116//2
f 100//1 114//1 101//1
f 114//1 100//1 109//1
f 105//4 126//4 115//4
f 126//4 105//4 107//4
f 124//5 96//5 98//5
f 96//5 124//5 113//5
f 106//4 124//4 125//4
f 124//4 106//4 113//4
f 106//6 126//6 107//6
f 126//6 106//6 125//6
f 120//5 92//5 94//5
f 92//5 120//5 111//5
f 103//4 120//4 121//4
f 120//4 103//4 111//4
f 103//6 89//6 91//6
f 89//6 103//6 121//6
f 122//5 88//5 90//5
f 88//5 122//5 112//5
f 104//4 122//4 123//4
f 122//4 104//4 112//4
f 104//6 97//6 99//6
f 97//6 104//6 123//6
f 118//5 84//5 86//5
f 84//5 118//5 110//5
f 102//4 118//4 119//4
f 118//4 102//4 110//4
f 102//6 93//6 95//6
f 93//6 102//6 119//6
f 116//5 80//5 82//5
f 80//5 116//5 108//5
f 25//4 116//4 117//4
f 116//4 25//4 108//4
f 25//6 85//6 87//6
f 85//6 25//6 117//6
f 127//1 128//1 129//1
f 128//1 127//1 130//1
f 131//1 132//1 133//1
f 132//1 131//1 134//1
f 135//1 136//1 137//1
f 136//1 135//1 138//1
f 128//2 139//2 129//2
f 139//2 128//2 140//2
f 141//1 142//1 143//1
f 142//1 141//1 144//1
f 145//3 141//3 146//3
f 141//3 145//3 144//3
f 145//4 139//4 140//4
f 139//4 145//4 146//4
f 140//5 147//5 145//5
f 147//5 140//5 128//5
f 147//5 128//5 130//5
f 132//5 148//5 149//5
f 148//5 132//5 134//5
f 136//5 150//5 106//5
f 150//5 136//5 138//5
f 145//5 59//5 144//5
f 59//5 145//5 147//5
f 59//5 147//5 149//5
f 59//6 149//6 148//6
f 59//5 148//5 106//5
f 59//1 106//1 150//1
f 144//5 59//5 142//5
f 146//6 151//6 139//6
f 151//6 146//6 141//6
f 151//6 141//6 143//6
f 135//6 152//6 153//6
f 152//6 135//6 137//6
f 131//6 154//6 155//6
f 154//6 131//6 133//6
f 139//6 156//6 129//6
f 156//6 139//6 151//6
f 156//6 151//6 153//6
f 156//1 153//1 152//1
f 156//6 152//6 155//6
f 156//1 155//1 154//1
f 129//6 156//6 127//6
f 150//3 135//3 153//3
f 135//3 150//3 138//3
f 151//1 150//1 153//1
f 150//1 151//1 59//1
f 142//2 151//2 143//2
f 151//2 142//2 59//2
f 148//3 131//3 155//3
f 131//3 148//3 134//3
f 152//1 148//1 155//1
f 148//1 152//1 106//1
f 136//2 152//2 137//2
f 152//2 136//2 106//2
f 147//3 127//3 156//3
f 127//3 147//3 130//3
f 154//1 147//1 156//1
f 147//1 154//1 149//1
f 132//2 154//2 133//2
f 154//2 132//2 149//2
f 157//1 158//1 159//1
f 158//1 157//1 160//1
f 161//1 162//1 163//1
f 162//1 161//1 164//1
f 165//1 166//1 167//1
f 166//1 165//1 168//1
f 158//2 169//2 159//2
f 169//2 158//2 170//2
f 171//1 172//1 173//1
f 172//1 171//1 174//1
f 175//3 171//3 176//3
f 171//3 175//3 174//3
f 175//4 169//4 170//4
f 169//4 175//4 176//4
f 170//5 177//5 175//5
f 177//5 170//5 158//5
f 177//5 158//5 160//5
f 162//5 178//5 179//5
f 178//5 162//5 164//5
f 166//5 180//5 103//5
f 180//5 166//5 168//5
f 175//5 56//5 174//5
f 56//5 175//5 177//5
f 56//5 177//5 179//5
f 56//6 179//6 178//6
f 56//5 178//5 103//5
f 56//1 103//1 180//1
f 174//5 56//5 172//5
f 176//6 181//6 169//6
f 181//6 176//6 171//6
f 181//6 171//6 173//6
f 165//6 182//6 183//6
f 182//6 165//6 167//6
f 161//6 184//6 185//6
f 184//6 161//6 163//6
f 169//6 186//6 159//6
f 186//6 169//6 181//6
f 186//6 181//6 183//6
f 186//1 183//1 182//1
f 186//6 182//6 185//6
f 186//1 185//1 184//1
f 159//6 186//6 157//6
f 180//3 165//3 183//3
f 165//3 180//3 168//3
f 181//1 180//1 183//1
f 180//1 181//1 56//1
f 172//2 181//2 173//2
f 181//2 172//2 56//2
f 178//3 161//3 185//3
f 161//3 178//3 164//3
f 182//1 178//1 185//1
f 178//1 182//1 103//1
f 166//2 182//2 167//2
f 182//2 166//2 103//2
f 177//3 157//3 186//3
f 157//3 177//3 160//3
f 184//1 177//1 186//1
f 177//1 184//1 179//1
f 162//2 184//2 163//2
f 184//2 162//2 179//2
f 187//1 188//1 189//1
f 188//1 187//1 190//1
f 191//1 192//1 193//1
f 192//1 191//1 194//1
f 195//1 196//1 197//1
f 196//1 195//1 198//1
f 188//2 199//2 189//2
f 199//2 188//2 200//2
f 201//1 202//1 203//1
f 202//1 201//1 204//1
f 205//3 201//3 206//3
f 201//3 205//3 204//3
f 205//4 199//4 200//4
f 199//4 205//4 206//4
f 200//5 207//5 205//5
f 207//5 200//5 188//5
f 207//5 188//5 190//5
f 192//5 208//5 209//5
f 208//5 192//5 194//5
f 196//5 210//5 104//5
f 210//5 196//5 198//5
f 205//5 57//5 204//5
f 57//5 205//5 207//5
f 57//12 207//12 209//12
f 57//13 209//13 208//13
f 57//14 208//14 104//14
f 57//1 104//1 210//1
f 204//5 57//5 202//5
f 206//6 211//6 199//6
f 211//6 206//6 201//6
f 211//6 201//6 203//6
f 195//6 212//6 213//6
f 212//6 195//6 197//6
f 191//6 214//6 215//6
f 214//6 191//6 193//6
f 199//6 216//6 189//6
f 216//6 199//6 211//6
f 216//6 211//6 213//6
f 216//1 213//1 212//1
f 216//6 212//6 215//6
f 216//1 215//1 214//1
f 189//6 216//6 187//6
f 210//3 195//3 213//3
f 195//3 210//3 198//3
f 211//1 210//1 213//1
f 210//1 211//1 57//1
f 202//2 211//2 203//2
f 211//2 202//2 57//2
f 208//3 191//3 215//3
f 191//3 208//3 194//3
f 212//1 208//1 215//1
f 208//1 212//1 104//1
f 196//2 212//2 197//2
f 212//2 196//2 104//2
f 207//3 187//3 216//3
f 187//3 207//3 190//3
f 214//1 207//1 216//1
f 207//1 214//1 209//1
f 192//2 214//2 193//2
f 214//2 192//2 209//2
f 217//4 218//4 219//4
f 218//4 217//4 220//4
f 221//4 222//4 223//4
f 222//4 221//4 224//4
f 225//4 226//4 227//4
f 226//4 225//4 228//4
f 229//4 230//4 231//4
f 230//4 229//4 232//4
f 233//4 234//4 235//4
f 234//4 233//4 236//4
f 237//6 218//6 220//6
f 218//6 237//6 238//6
f 221//3 23//3 224//3
f 229//3 239//3 232//3
f 225//3 179//3 228//3
f 240//3 149//3 241//3
f 217//3 237//3 220//3
f 237//3 217//3 242//3
f 237//3 242//3 243//3
f 243//8 242//8 23//8
f 243//3 23//3 244//3
f 244//3 23//3 221//3
f 243//3 244//3 239//3
f 243//3 239//3 245//3
f 245//3 239//3 229//3
f 243//3 245//3 179//3
f 243//3 179//3 246//3
f 246//3 179//3 225//3
f 243//3 246//3 209//3
f 243//3 209//3 247//3
f 247//3 209//3 236//3
f 247//3 236//3 233//3
f 243//3 247//3 149//3
f 243//3 149//3 240//3
f 248//5 240//5 249//5
f 240//5 248//5 243//5
f 238//2 250//2 218//2
f 250//2 238//2 248//2
f 250//2 248//2 251//2
f 251//2 248//2 252//2
f 251//2 252//2 222//2
f 252//2 248//2 253//2
f 253//2 248//2 254//2
f 253//2 254//2 230//2
f 254//2 248//2 255//2
f 255//2 248//2 256//2
f 255//2 256//2 226//2
f 256//2 248//2 257//2
f 257//2 248//2 258//2
f 257//2 258//2 234//2
f 258//2 248//2 259//2
f 259//2 248//2 260//2
f 260//2 248//2 249//2
f 235//2 234//2 258//2
f 227//2 226//2 256//2
f 231//2 230//2 254//2
f 223//2 222//2 252//2
f 219//2 218//2 250//2
f 237//1 248//1 238//1
f 248//1 237//1 243//1
f 240//4 260//4 249//4
f 260//4 240//4 241//4
f 258//5 233//5 235//5
f 233//5 258//5 247//5
f 149//4 258//4 259//4
f 258//4 149//4 247//4
f 149//6 260//6 241//6
f 260//6 149//6 259//6
f 254//5 229//5 231//5
f 229//5 254//5 245//5
f 179//4 254//4 255//4
f 254//4 179//4 245//4
f 179//6 226//6 228//6
f 226//6 179//6 255//6
f 256//5 225//5 227//5
f 225//5 256//5 246//5
f 209//4 256//4 257//4
f 256//4 209//4 246//4
f 209//6 234//6 236//6
f 234//6 209//6 257//6
f 252//5 221//5 223//5
f 221//5 252//5 244//5
f 239//4 252//4 253//4
f 252//4 239//4 244//4
f 239//6 230//6 232//6
f 230//6 239//6 253//6
f 250//5 217//5 219//5
f 217//5 250//5 242//5
f 23//4 250//4 251//4
f 250//4 23//4 242//4
f 23//6 222//6 224//6
f 222//6 23//6 251//6
f 261//1 262//1 263//1
f 262//1 261//1 264//1
f 265//1 266//1 267//1
f 266//1 265//1 268//1
f 269//1 270//1 271//1
f 270//1 269//1 272//1
f 262//2 273//2 263//2
f 273//2 262//2 274//2
f 275//1 276//1 277//1
f 276//1 275//1 278//1
f 279//3 275//3 280//3
f 275//3 279//3 278//3
f 279//4 273//4 274//4
f 273//4 279//4 280//4
f 274//5 281//5 279//5
f 281//5 274//5 262//5
f 281//5 262//5 264//5
f 266//5 282//5 239//5
f 282//5 266//5 268//5
f 270//5 283//5 102//5
f 283//5 270//5 272//5
f 279//5 55//5 278//5
f 55//5 279//5 281//5
f 55//5 281//5 239//5
f 55//6 239//6 282//6
f 55//5 282//5 102//5
f 55//1 102//1 283//1
f 278//5 55//5 276//5
f 280//6 284//6 273//6
f 284//6 280//6 275//6
f 284//6 275//6 277//6
f 269//6 285//6 286//6
f 285//6 269//6 271//6
f 265//6 287//6 288//6
f 287//6 265//6 267//6
f 273//6 289//6 263//6
f 289//6 273//6 284//6
f 289//6 284//6 286//6
f 289//1 286//1 285//1
f 289//6 285//6 288//6
f 289//1 288//1 287//1
f 263//6 289//6 261//6
f 283//3 269//3 286//3
f 269//3 283//3 272//3
f 284//1 283//1 286//1
f 283//1 284//1 55//1
f 276//2 284//2 277//2
f 284//2 276//2 55//2
f 282//3 265//3 288//3
f 265//3 282//3 268//3
f 285//1 282//1 288//1
f 282//1 285//1 102//1
f 270//2 285//2 271//2
f 285//2 270//2 102//2
f 281//3 261//3 289//3
f 261//3 281//3 264//3
f 287//1 281//1 289//1
f 281//1 287//1 239//1
f 266//2 287//2 267//2
f 287//2 266//2 239//2
