# Blender v3.1.2 OBJ File: ''
# www.blender.org
mtllib 300.mtl
o 300_-_ORGANIZADOR_MAQUIAGEM_MD-2(300_A_399mm)x(360_A_535mm)
v 60.799999 -329.399994 0.000001
v 0.000000 -325.399994 0.000001
v 60.799999 -325.399994 0.000001
v 0.000000 -329.399994 0.000001
v 125.799995 -329.399994 0.000001
v 65.000000 -325.399994 0.000001
v 125.799995 -325.399994 0.000001
v 65.000000 -329.399994 0.000001
v 0.000000 -329.399994 50.000000
v 0.000000 -325.399994 50.000000
v 65.000000 -329.399994 25.000000
v 310.000000 -329.399994 0.000001
v 130.000000 -329.399994 25.000000
v 130.000000 -329.399994 0.000001
v 60.799999 -329.399994 25.000000
v 310.000000 -329.399994 50.000000
v 125.799995 -329.399994 25.000000
v 310.000000 -325.399994 50.000000
v 310.000000 -325.399994 0.000001
v 60.799999 -325.399994 25.000000
v 65.000000 -325.399994 25.000000
v 125.799995 -325.399994 25.000000
v 130.000000 -325.399994 25.000000
v 130.000000 -325.399994 0.000001
v 126.000000 -105.600006 50.000000
v 130.000000 0.000000 50.000000
v 126.000000 0.000000 50.000000
v 130.000000 -105.600006 50.000000
v 126.000000 -215.399994 50.000000
v 130.000000 -109.800003 50.000000
v 126.000000 -109.800003 50.000000
v 130.000000 -215.399994 50.000000
v 126.000000 -325.199982 50.000000
v 130.000000 -219.600006 50.000000
v 126.000000 -219.600006 50.000000
v 130.000000 -325.199982 50.000000
v 126.000000 0.000000 0.000000
v 130.000000 0.000000 0.000000
v 126.000000 -435.000000 50.000000
v 130.000000 -329.399994 50.000000
v 126.000000 -329.399994 50.000000
v 130.000000 -435.000000 50.000000
v 130.000000 -435.000000 0.000000
v 126.000000 -435.000000 0.000000
v 130.000000 -105.600006 25.000000
v 130.000000 -215.399994 25.000000
v 130.000000 -109.800003 25.000000
v 130.000000 -325.199982 25.000000
v 130.000000 -219.600006 25.000000
v 126.000000 -329.399994 25.000000
v 126.000000 -219.600006 25.000000
v 126.000000 -325.199982 25.000000
v 126.000000 -109.800003 25.000000
v 126.000000 -215.399994 25.000000
v 126.000000 -105.600006 25.000000
v 61.000000 -105.600006 50.000000
v 65.000000 0.000000 50.000000
v 61.000000 0.000000 50.000000
v 65.000000 -105.600006 50.000000
v 61.000000 -215.399994 50.000000
v 65.000000 -109.800003 50.000000
v 61.000000 -109.800003 50.000000
v 65.000000 -215.399994 50.000000
v 61.000000 -325.199982 50.000000
v 65.000000 -219.600006 50.000000
v 61.000000 -219.600006 50.000000
v 65.000000 -325.199982 50.000000
v 61.000000 0.000000 0.000000
v 65.000000 0.000000 0.000000
v 61.000000 -334.399994 50.000000
v 65.000000 -329.399994 50.000000
v 61.000000 -329.399994 50.000000
v 65.000000 -334.399994 50.000000
v 65.000000 -334.399994 0.000000
v 61.000000 -334.399994 0.000000
v 65.000000 -105.600006 25.000000
v 65.000000 -215.399994 25.000000
v 65.000000 -109.800003 25.000000
v 65.000000 -325.199982 25.000000
v 65.000000 -219.600006 25.000000
v 61.000000 -329.399994 25.000000
v 61.000000 -219.600006 25.000000
v 61.000000 -325.199982 25.000000
v 61.000000 -109.800003 25.000000
v 61.000000 -215.399994 25.000000
v 61.000000 -105.600006 25.000000
v 60.799999 -109.800003 0.000001
v 0.000000 -105.800003 0.000001
v 60.799999 -105.800003 0.000001
v 0.000000 -109.800003 0.000001
v 125.799995 -109.800003 0.000001
v 65.000000 -105.800003 0.000001
v 125.799995 -105.800003 0.000001
v 65.000000 -109.800003 0.000001
v 0.000000 -109.800003 50.000000
v 0.000000 -105.800003 50.000000
v 135.000000 -109.800003 0.000001
v 130.000000 -109.800003 0.000001
v 60.799999 -109.800003 25.000000
v 135.000000 -109.800003 50.000000
v 125.799995 -109.800003 25.000000
v 135.000000 -105.800003 50.000000
v 135.000000 -105.800003 0.000001
v 60.799999 -105.800003 25.000000
v 65.000000 -105.800003 25.000000
v 125.799995 -105.800003 25.000000
v 130.000000 -105.800003 25.000000
v 130.000000 -105.800003 0.000001
v 60.799999 -219.600006 0.000001
v 0.000000 -215.600006 0.000001
v 60.799999 -215.600006 0.000001
v 0.000000 -219.600006 0.000001
v 125.799995 -219.600006 0.000001
v 65.000000 -215.600006 0.000001
v 125.799995 -215.600006 0.000001
v 65.000000 -219.600006 0.000001
v 0.000000 -219.600006 50.000000
v 0.000000 -215.600006 50.000000
v 310.000000 -219.600006 0.000001
v 130.000000 -219.600006 0.000001
v 60.799999 -219.600006 25.000000
v 310.000000 -219.600006 50.000000
v 125.799995 -219.600006 25.000000
v 310.000000 -215.600006 50.000000
v 310.000000 -215.600006 0.000001
v 60.799999 -215.600006 25.000000
v 65.000000 -215.600006 25.000000
v 125.799995 -215.600006 25.000000
v 130.000000 -215.600006 25.000000
v 130.000000 -215.600006 0.000001
vn 0.0000 0.0000 -1.0000
vn -1.0000 0.0000 0.0000
vn 0.0000 -1.0000 0.0000
vn 0.0000 -1.0000 0.0001
vn 0.0000 -1.0000 -0.0001
vn 1.0000 0.0000 0.0000
vn 0.0000 1.0000 0.0000
vn 0.0000 1.0000 0.0001
vn 0.0000 0.0000 1.0000
usemtl None
s off
f 1//1 2//1 3//1
f 2//1 1//1 4//1
f 5//1 6//1 7//1
f 6//1 5//1 8//1
f 9//2 2//2 4//2
f 2//2 9//2 10//2
f 5//3 11//3 8//3
f 12//3 13//3 14//3
f 1//3 9//3 4//3
f 9//3 1//3 15//3
f 9//3 15//3 16//3
f 16//4 15//4 11//4
f 16//3 11//3 17//3
f 17//3 11//3 5//3
f 16//5 17//5 13//5
f 16//3 13//3 12//3
f 18//6 12//6 19//6
f 12//6 18//6 16//6
f 10//7 20//7 2//7
f 20//7 10//7 18//7
f 20//7 18//7 21//7
f 21//7 18//7 22//7
f 21//7 22//7 6//7
f 22//8 18//8 23//8
f 23//7 18//7 24//7
f 24//7 18//7 19//7
f 7//7 6//7 22//7
f 3//7 2//7 20//7
f 9//9 18//9 10//9
f 18//9 9//9 16//9
f 12//1 24//1 19//1
f 24//1 12//1 14//1
f 22//6 5//6 7//6
f 5//6 22//6 17//6
f 13//1 22//1 23//1
f 22//1 13//1 17//1
f 13//2 24//2 14//2
f 24//2 13//2 23//2
f 20//6 1//6 3//6
f 1//6 20//6 15//6
f 11//1 20//1 21//1
f 20//1 11//1 15//1
f 11//2 6//2 8//2
f 6//2 11//2 21//2
f 25//9 26//9 27//9
f 26//9 25//9 28//9
f 29//9 30//9 31//9
f 30//9 29//9 32//9
f 33//9 34//9 35//9
f 34//9 33//9 36//9
f 26//7 37//7 27//7
f 37//7 26//7 38//7
f 39//9 40//9 41//9
f 40//9 39//9 42//9
f 43//3 39//3 44//3
f 39//3 43//3 42//3
f 43//1 37//1 38//1
f 37//1 43//1 44//1
f 38//6 45//6 43//6
f 45//6 38//6 26//6
f 45//6 26//6 28//6
f 30//6 46//6 47//6
f 46//6 30//6 32//6
f 34//6 48//6 49//6
f 48//6 34//6 36//6
f 43//6 13//6 42//6
f 13//6 43//6 45//6
f 13//6 45//6 47//6
f 13//2 47//2 46//2
f 13//6 46//6 49//6
f 13//9 49//9 48//9
f 42//6 13//6 40//6
f 44//2 50//2 37//2
f 50//2 44//2 39//2
f 50//2 39//2 41//2
f 33//2 51//2 52//2
f 51//2 33//2 35//2
f 29//2 53//2 54//2
f 53//2 29//2 31//2
f 37//2 55//2 27//2
f 55//2 37//2 50//2
f 55//2 50//2 52//2
f 55//9 52//9 51//9
f 55//2 51//2 54//2
f 55//9 54//9 53//9
f 27//2 55//2 25//2
f 48//3 33//3 52//3
f 33//3 48//3 36//3
f 50//9 48//9 52//9
f 48//9 50//9 13//9
f 40//7 50//7 41//7
f 50//7 40//7 13//7
f 46//3 29//3 54//3
f 29//3 46//3 32//3
f 51//9 46//9 54//9
f 46//9 51//9 49//9
f 34//7 51//7 35//7
f 51//7 34//7 49//7
f 45//3 25//3 55//3
f 25//3 45//3 28//3
f 53//9 45//9 55//9
f 45//9 53//9 47//9
f 30//7 53//7 31//7
f 53//7 30//7 47//7
f 56//9 57//9 58//9
f 57//9 56//9 59//9
f 60//9 61//9 62//9
f 61//9 60//9 63//9
f 64//9 65//9 66//9
f 65//9 64//9 67//9
f 57//7 68//7 58//7
f 68//7 57//7 69//7
f 70//9 71//9 72//9
f 71//9 70//9 73//9
f 74//3 70//3 75//3
f 70//3 74//3 73//3
f 74//1 68//1 69//1
f 68//1 74//1 75//1
f 69//6 76//6 74//6
f 76//6 69//6 57//6
f 76//6 57//6 59//6
f 61//6 77//6 78//6
f 77//6 61//6 63//6
f 65//6 79//6 80//6
f 79//6 65//6 67//6
f 74//6 11//6 73//6
f 11//6 74//6 76//6
f 11//6 76//6 78//6
f 11//2 78//2 77//2
f 11//6 77//6 80//6
f 11//9 80//9 79//9
f 73//6 11//6 71//6
f 75//2 81//2 68//2
f 81//2 75//2 70//2
f 81//2 70//2 72//2
f 64//2 82//2 83//2
f 82//2 64//2 66//2
f 60//2 84//2 85//2
f 84//2 60//2 62//2
f 68//2 86//2 58//2
f 86//2 68//2 81//2
f 86//2 81//2 83//2
f 86//9 83//9 82//9
f 86//2 82//2 85//2
f 86//9 85//9 84//9
f 58//2 86//2 56//2
f 79//3 64//3 83//3
f 64//3 79//3 67//3
f 81//9 79//9 83//9
f 79//9 81//9 11//9
f 71//7 81//7 72//7
f 81//7 71//7 11//7
f 77//3 60//3 85//3
f 60//3 77//3 63//3
f 82//9 77//9 85//9
f 77//9 82//9 80//9
f 65//7 82//7 66//7
f 82//7 65//7 80//7
f 76//3 56//3 86//3
f 56//3 76//3 59//3
f 84//9 76//9 86//9
f 76//9 84//9 78//9
f 61//7 84//7 62//7
f 84//7 61//7 78//7
f 87//1 88//1 89//1
f 88//1 87//1 90//1
f 91//1 92//1 93//1
f 92//1 91//1 94//1
f 95//2 88//2 90//2
f 88//2 95//2 96//2
f 91//3 78//3 94//3
f 97//3 47//3 98//3
f 87//3 95//3 90//3
f 95//3 87//3 99//3
f 95//3 99//3 100//3
f 100//3 99//3 78//3
f 100//3 78//3 101//3
f 101//3 78//3 91//3
f 100//3 101//3 47//3
f 100//3 47//3 97//3
f 102//6 97//6 103//6
f 97//6 102//6 100//6
f 96//7 104//7 88//7
f 104//7 96//7 102//7
f 104//7 102//7 105//7
f 105//7 102//7 92//7
f 92//7 102//7 106//7
f 106//7 102//7 107//7
f 107//7 102//7 108//7
f 108//7 102//7 103//7
f 93//7 92//7 106//7
f 89//7 88//7 104//7
f 95//9 102//9 96//9
f 102//9 95//9 100//9
f 97//1 108//1 103//1
f 108//1 97//1 98//1
f 106//6 91//6 93//6
f 91//6 106//6 101//6
f 47//1 106//1 107//1
f 106//1 47//1 101//1
f 47//2 108//2 98//2
f 108//2 47//2 107//2
f 104//6 87//6 89//6
f 87//6 104//6 99//6
f 78//1 104//1 105//1
f 104//1 78//1 99//1
f 78//2 92//2 94//2
f 92//2 78//2 105//2
f 109//1 110//1 111//1
f 110//1 109//1 112//1
f 113//1 114//1 115//1
f 114//1 113//1 116//1
f 117//2 110//2 112//2
f 110//2 117//2 118//2
f 113//3 80//3 116//3
f 119//3 49//3 120//3
f 109//3 117//3 112//3
f 117//3 109//3 121//3
f 117//3 121//3 122//3
f 122//3 121//3 80//3
f 122//3 80//3 123//3
f 123//3 80//3 113//3
f 122//5 123//5 49//5
f 122//3 49//3 119//3
f 124//6 119//6 125//6
f 119//6 124//6 122//6
f 118//7 126//7 110//7
f 126//7 118//7 124//7
f 126//7 124//7 127//7
f 127//7 124//7 128//7
f 127//7 128//7 114//7
f 128//8 124//8 129//8
f 129//7 124//7 130//7
f 130//7 124//7 125//7
f 115//7 114//7 128//7
f 111//7 110//7 126//7
f 117//9 124//9 118//9
f 124//9 117//9 122//9
f 119//1 130//1 125//1
f 130//1 119//1 120//1
f 128//6 113//6 115//6
f 113//6 128//6 123//6
f 49//1 128//1 129//1
f 128//1 49//1 123//1
f 49//2 130//2 120//2
f 130//2 49//2 129//2
f 126//6 109//6 111//6
f 109//6 126//6 121//6
f 80//1 126//1 127//1
f 126//1 80//1 121//1
f 80//2 114//2 116//2
f 114//2 80//2 127//2
