# Blender v3.1.2 OBJ File: ''
# www.blender.org
mtllib 301.mtl
o 301_-_ORGANIZADOR_MAQUIAGEM_MD-2(400_A_499mm)x(360_A_535mm)
v 66.000000 -105.600006 50.000000
v 70.000000 0.000000 50.000000
v 66.000000 0.000000 50.000000
v 70.000000 -105.600006 50.000000
v 66.000000 -215.399994 50.000000
v 70.000000 -109.800003 50.000000
v 66.000000 -109.800003 50.000000
v 70.000000 -215.399994 50.000000
v 66.000000 -325.199982 50.000000
v 70.000000 -219.600006 50.000000
v 66.000000 -219.600006 50.000000
v 70.000000 -325.199982 50.000000
v 66.000000 0.000000 0.000000
v 70.000000 0.000000 0.000000
v 66.000000 -334.399994 50.000000
v 70.000000 -329.399994 50.000000
v 66.000000 -329.399994 50.000000
v 70.000000 -334.399994 50.000000
v 70.000000 -334.399994 0.000000
v 66.000000 -334.399994 0.000000
v 70.000000 -105.600006 25.000000
v 70.000000 -215.399994 25.000000
v 70.000000 -109.800003 25.000000
v 70.000000 -325.199982 25.000000
v 70.000000 -219.600006 25.000000
v 70.000000 -329.399994 25.000000
v 66.000000 -219.600006 25.000000
v 66.000000 -325.199982 25.000000
v 66.000000 -109.800003 25.000000
v 66.000000 -215.399994 25.000000
v 66.000000 -105.600006 25.000000
v 66.000000 -329.399994 25.000000
v 205.800003 -329.399994 0.000001
v 140.000000 -325.399994 0.000001
v 205.800003 -325.399994 0.000001
v 140.000000 -329.399994 0.000001
v 65.800003 -329.399994 0.000001
v 0.000000 -325.399994 0.000001
v 65.800003 -325.399994 0.000001
v 0.000000 -329.399994 0.000001
v 135.800003 -329.399994 0.000001
v 70.000000 -325.399994 0.000001
v 135.800003 -325.399994 0.000001
v 70.000000 -329.399994 0.000001
v 0.000000 -329.399994 50.000000
v 0.000000 -325.399994 50.000000
v 140.000000 -329.399994 25.000000
v 410.000000 -329.399994 0.000001
v 210.000000 -329.399994 25.000000
v 210.000000 -329.399994 0.000001
v 65.800003 -329.399994 25.000000
v 410.000000 -329.399994 50.000000
v 135.800003 -329.399994 25.000000
v 205.800003 -329.399994 25.000000
v 410.000000 -325.399994 50.000000
v 410.000000 -325.399994 0.000001
v 65.800003 -325.399994 25.000000
v 70.000000 -325.399994 25.000000
v 135.800003 -325.399994 25.000000
v 140.000000 -325.399994 25.000000
v 205.800003 -325.399994 25.000000
v 210.000000 -325.399994 25.000000
v 210.000000 -325.399994 0.000001
v 206.000000 -105.600006 50.000000
v 210.000000 0.000000 50.000000
v 206.000000 0.000000 50.000000
v 210.000000 -105.600006 50.000000
v 206.000000 -215.399994 50.000000
v 210.000000 -109.800003 50.000000
v 206.000000 -109.800003 50.000000
v 210.000000 -215.399994 50.000000
v 206.000000 -325.199982 50.000000
v 210.000000 -219.600006 50.000000
v 206.000000 -219.600006 50.000000
v 210.000000 -325.199982 50.000000
v 206.000000 0.000000 0.000000
v 210.000000 0.000000 0.000000
v 206.000000 -435.000000 50.000000
v 210.000000 -329.399994 50.000000
v 206.000000 -329.399994 50.000000
v 210.000000 -435.000000 50.000000
v 210.000000 -435.000000 0.000000
v 206.000000 -435.000000 0.000000
v 210.000000 -105.600006 25.000000
v 210.000000 -215.399994 25.000000
v 210.000000 -109.800003 25.000000
v 210.000000 -325.199982 25.000000
v 210.000000 -219.600006 25.000000
v 206.000000 -329.399994 25.000000
v 206.000000 -219.600006 25.000000
v 206.000000 -325.199982 25.000000
v 206.000000 -109.800003 25.000000
v 206.000000 -215.399994 25.000000
v 206.000000 -105.600006 25.000000
v 205.800003 -109.800003 0.000001
v 140.000000 -105.800003 0.000001
v 205.800003 -105.800003 0.000001
v 140.000000 -109.800003 0.000001
v 65.800003 -109.800003 0.000001
v 0.000000 -105.800003 0.000001
v 65.800003 -105.800003 0.000001
v 0.000000 -109.800003 0.000001
v 135.800003 -109.800003 0.000001
v 70.000000 -105.800003 0.000001
v 135.800003 -105.800003 0.000001
v 70.000000 -109.800003 0.000001
v 0.000000 -109.800003 50.000000
v 0.000000 -105.800003 50.000000
v 140.000000 -109.800003 25.000000
v 215.000000 -109.800003 0.000001
v 210.000000 -109.800003 0.000001
v 65.800003 -109.800003 25.000000
v 215.000000 -109.800003 50.000000
v 135.800003 -109.800003 25.000000
v 205.800003 -109.800003 25.000000
v 215.000000 -105.800003 50.000000
v 215.000000 -105.800003 0.000001
v 65.800003 -105.800003 25.000000
v 70.000000 -105.800003 25.000000
v 135.800003 -105.800003 25.000000
v 140.000000 -105.800003 25.000000
v 205.800003 -105.800003 25.000000
v 210.000000 -105.800003 25.000000
v 210.000000 -105.800003 0.000001
v 136.000000 -105.600006 50.000000
v 140.000000 0.000000 50.000000
v 136.000000 0.000000 50.000000
v 140.000000 -105.600006 50.000000
v 136.000000 -215.399994 50.000000
v 140.000000 -109.800003 50.000000
v 136.000000 -109.800003 50.000000
v 140.000000 -215.399994 50.000000
v 136.000000 -325.199982 50.000000
v 140.000000 -219.600006 50.000000
v 136.000000 -219.600006 50.000000
v 140.000000 -325.199982 50.000000
v 136.000000 0.000000 0.000000
v 140.000000 0.000000 0.000000
v 136.000000 -435.000000 50.000000
v 140.000000 -329.399994 50.000000
v 136.000000 -329.399994 50.000000
v 140.000000 -435.000000 50.000000
v 140.000000 -435.000000 0.000000
v 136.000000 -435.000000 0.000000
v 140.000000 -105.600006 25.000000
v 140.000000 -215.399994 25.000000
v 140.000000 -325.199982 25.000000
v 140.000000 -219.600006 25.000000
v 136.000000 -329.399994 25.000000
v 136.000000 -219.600006 25.000000
v 136.000000 -325.199982 25.000000
v 136.000000 -109.800003 25.000000
v 136.000000 -215.399994 25.000000
v 136.000000 -105.600006 25.000000
v 205.800003 -219.600006 0.000001
v 140.000000 -215.600006 0.000001
v 205.800003 -215.600006 0.000001
v 140.000000 -219.600006 0.000001
v 65.800003 -219.600006 0.000001
v 0.000000 -215.600006 0.000001
v 65.800003 -215.600006 0.000001
v 0.000000 -219.600006 0.000001
v 135.800003 -219.600006 0.000001
v 70.000000 -215.600006 0.000001
v 135.800003 -215.600006 0.000001
v 70.000000 -219.600006 0.000001
v 0.000000 -219.600006 50.000000
v 0.000000 -215.600006 50.000000
v 410.000000 -219.600006 0.000001
v 210.000000 -219.600006 0.000001
v 65.800003 -219.600006 25.000000
v 410.000000 -219.600006 50.000000
v 135.800003 -219.600006 25.000000
v 205.800003 -219.600006 25.000000
v 410.000000 -215.600006 50.000000
v 410.000000 -215.600006 0.000001
v 65.800003 -215.600006 25.000000
v 70.000000 -215.600006 25.000000
v 135.800003 -215.600006 25.000000
v 140.000000 -215.600006 25.000000
v 205.800003 -215.600006 25.000000
v 210.000000 -215.600006 25.000000
v 210.000000 -215.600006 0.000001
vn 0.0000 0.0000 1.0000
vn 0.0000 1.0000 0.0000
vn 0.0000 -1.0000 0.0000
vn 0.0000 0.0000 -1.0000
vn 1.0000 0.0000 0.0000
vn -1.0000 0.0000 0.0000
vn 0.0000 -1.0000 -0.0001
vn 0.0000 -1.0000 -0.0002
vn 0.0000 1.0000 0.0001
usemtl None
s off
f 1//1 2//1 3//1
f 2//1 1//1 4//1
f 5//1 6//1 7//1
f 6//1 5//1 8//1
f 9//1 10//1 11//1
f 10//1 9//1 12//1
f 2//2 13//2 3//2
f 13//2 2//2 14//2
f 15//1 16//1 17//1
f 16//1 15//1 18//1
f 19//3 15//3 20//3
f 15//3 19//3 18//3
f 19//4 13//4 14//4
f 13//4 19//4 20//4
f 14//5 21//5 19//5
f 21//5 14//5 2//5
f 21//5 2//5 4//5
f 6//5 22//5 23//5
f 22//5 6//5 8//5
f 10//5 24//5 25//5
f 24//5 10//5 12//5
f 19//5 26//5 18//5
f 26//5 19//5 21//5
f 26//5 21//5 23//5
f 26//6 23//6 22//6
f 26//5 22//5 25//5
f 26//1 25//1 24//1
f 18//5 26//5 16//5
f 9//6 27//6 28//6
f 27//6 9//6 11//6
f 5//6 29//6 30//6
f 29//6 5//6 7//6
f 13//6 31//6 3//6
f 31//6 13//6 32//6
f 31//6 32//6 28//6
f 31//1 28//1 27//1
f 31//6 27//6 30//6
f 31//1 30//1 29//1
f 3//6 31//6 1//6
f 20//6 32//6 13//6
f 32//6 20//6 15//6
f 32//6 15//6 17//6
f 24//3 9//3 28//3
f 9//3 24//3 12//3
f 32//1 24//1 28//1
f 24//1 32//1 26//1
f 16//2 32//2 17//2
f 32//2 16//2 26//2
f 22//3 5//3 30//3
f 5//3 22//3 8//3
f 27//1 22//1 30//1
f 22//1 27//1 25//1
f 10//2 27//2 11//2
f 27//2 10//2 25//2
f 21//3 1//3 31//3
f 1//3 21//3 4//3
f 29//1 21//1 31//1
f 21//1 29//1 23//1
f 6//2 29//2 7//2
f 29//2 6//2 23//2
f 33//4 34//4 35//4
f 34//4 33//4 36//4
f 37//4 38//4 39//4
f 38//4 37//4 40//4
f 41//4 42//4 43//4
f 42//4 41//4 44//4
f 45//6 38//6 40//6
f 38//6 45//6 46//6
f 41//3 26//3 44//3
f 33//3 47//3 36//3
f 48//3 49//3 50//3
f 37//3 45//3 40//3
f 45//3 37//3 51//3
f 45//3 51//3 52//3
f 52//7 51//7 26//7
f 52//3 26//3 53//3
f 53//3 26//3 41//3
f 52//7 53//7 47//7
f 52//3 47//3 54//3
f 54//3 47//3 33//3
f 52//3 54//3 49//3
f 52//3 49//3 48//3
f 55//5 48//5 56//5
f 48//5 55//5 52//5
f 46//2 57//2 38//2
f 57//2 46//2 55//2
f 57//2 55//2 58//2
f 58//2 55//2 59//2
f 58//2 59//2 42//2
f 59//2 55//2 60//2
f 60//2 55//2 61//2
f 60//2 61//2 34//2
f 61//2 55//2 62//2
f 62//2 55//2 63//2
f 63//2 55//2 56//2
f 35//2 34//2 61//2
f 43//2 42//2 59//2
f 39//2 38//2 57//2
f 45//1 55//1 46//1
f 55//1 45//1 52//1
f 48//4 63//4 56//4
f 63//4 48//4 50//4
f 59//5 41//5 43//5
f 41//5 59//5 53//5
f 47//4 59//4 60//4
f 59//4 47//4 53//4
f 47//6 34//6 36//6
f 34//6 47//6 60//6
f 57//5 37//5 39//5
f 37//5 57//5 51//5
f 26//4 57//4 58//4
f 57//4 26//4 51//4
f 26//6 42//6 44//6
f 42//6 26//6 58//6
f 61//5 33//5 35//5
f 33//5 61//5 54//5
f 49//4 61//4 62//4
f 61//4 49//4 54//4
f 49//6 63//6 50//6
f 63//6 49//6 62//6
f 64//1 65//1 66//1
f 65//1 64//1 67//1
f 68//1 69//1 70//1
f 69//1 68//1 71//1
f 72//1 73//1 74//1
f 73//1 72//1 75//1
f 65//2 76//2 66//2
f 76//2 65//2 77//2
f 78//1 79//1 80//1
f 79//1 78//1 81//1
f 82//3 78//3 83//3
f 78//3 82//3 81//3
f 82//4 76//4 77//4
f 76//4 82//4 83//4
f 77//5 84//5 82//5
f 84//5 77//5 65//5
f 84//5 65//5 67//5
f 69//5 85//5 86//5
f 85//5 69//5 71//5
f 73//5 87//5 88//5
f 87//5 73//5 75//5
f 82//5 49//5 81//5
f 49//5 82//5 84//5
f 49//5 84//5 86//5
f 49//6 86//6 85//6
f 49//5 85//5 88//5
f 49//1 88//1 87//1
f 81//5 49//5 79//5
f 83//6 89//6 76//6
f 89//6 83//6 78//6
f 89//6 78//6 80//6
f 72//6 90//6 91//6
f 90//6 72//6 74//6
f 68//6 92//6 93//6
f 92//6 68//6 70//6
f 76//6 94//6 66//6
f 94//6 76//6 89//6
f 94//6 89//6 91//6
f 94//1 91//1 90//1
f 94//6 90//6 93//6
f 94//1 93//1 92//1
f 66//6 94//6 64//6
f 87//3 72//3 91//3
f 72//3 87//3 75//3
f 89//1 87//1 91//1
f 87//1 89//1 49//1
f 79//2 89//2 80//2
f 89//2 79//2 49//2
f 85//3 68//3 93//3
f 68//3 85//3 71//3
f 90//1 85//1 93//1
f 85//1 90//1 88//1
f 73//2 90//2 74//2
f 90//2 73//2 88//2
f 84//3 64//3 94//3
f 64//3 84//3 67//3
f 92//1 84//1 94//1
f 84//1 92//1 86//1
f 69//2 92//2 70//2
f 92//2 69//2 86//2
f 95//4 96//4 97//4
f 96//4 95//4 98//4
f 99//4 100//4 101//4
f 100//4 99//4 102//4
f 103//4 104//4 105//4
f 104//4 103//4 106//4
f 107//6 100//6 102//6
f 100//6 107//6 108//6
f 103//3 23//3 106//3
f 95//3 109//3 98//3
f 110//3 86//3 111//3
f 99//3 107//3 102//3
f 107//3 99//3 112//3
f 107//3 112//3 113//3
f 113//3 112//3 23//3
f 113//3 23//3 114//3
f 114//3 23//3 103//3
f 113//3 114//3 109//3
f 113//3 109//3 115//3
f 115//3 109//3 95//3
f 113//3 115//3 86//3
f 113//3 86//3 110//3
f 116//5 110//5 117//5
f 110//5 116//5 113//5
f 108//2 118//2 100//2
f 118//2 108//2 116//2
f 118//2 116//2 119//2
f 119//2 116//2 120//2
f 119//2 120//2 104//2
f 120//2 116//2 121//2
f 121//2 116//2 96//2
f 96//2 116//2 122//2
f 122//2 116//2 123//2
f 123//2 116//2 124//2
f 124//2 116//2 117//2
f 97//2 96//2 122//2
f 105//2 104//2 120//2
f 101//2 100//2 118//2
f 107//1 116//1 108//1
f 116//1 107//1 113//1
f 110//4 124//4 117//4
f 124//4 110//4 111//4
f 120//5 103//5 105//5
f 103//5 120//5 114//5
f 109//4 120//4 121//4
f 120//4 109//4 114//4
f 109//6 96//6 98//6
f 96//6 109//6 121//6
f 118//5 99//5 101//5
f 99//5 118//5 112//5
f 23//4 118//4 119//4
f 118//4 23//4 112//4
f 23//6 104//6 106//6
f 104//6 23//6 119//6
f 122//5 95//5 97//5
f 95//5 122//5 115//5
f 86//4 122//4 123//4
f 122//4 86//4 115//4
f 86//6 124//6 111//6
f 124//6 86//6 123//6
f 125//1 126//1 127//1
f 126//1 125//1 128//1
f 129//1 130//1 131//1
f 130//1 129//1 132//1
f 133//1 134//1 135//1
f 134//1 133//1 136//1
f 126//2 137//2 127//2
f 137//2 126//2 138//2
f 139//1 140//1 141//1
f 140//1 139//1 142//1
f 143//3 139//3 144//3
f 139//3 143//3 142//3
f 143//4 137//4 138//4
f 137//4 143//4 144//4
f 138//5 145//5 143//5
f 145//5 138//5 126//5
f 145//5 126//5 128//5
f 130//5 146//5 109//5
f 146//5 130//5 132//5
f 134//5 147//5 148//5
f 147//5 134//5 136//5
f 143//5 47//5 142//5
f 47//5 143//5 145//5
f 47//5 145//5 109//5
f 47//6 109//6 146//6
f 47//5 146//5 148//5
f 47//1 148//1 147//1
f 142//5 47//5 140//5
f 144//6 149//6 137//6
f 149//6 144//6 139//6
f 149//6 139//6 141//6
f 133//6 150//6 151//6
f 150//6 133//6 135//6
f 129//6 152//6 153//6
f 152//6 129//6 131//6
f 137//6 154//6 127//6
f 154//6 137//6 149//6
f 154//6 149//6 151//6
f 154//1 151//1 150//1
f 154//6 150//6 153//6
f 154//1 153//1 152//1
f 127//6 154//6 125//6
f 147//3 133//3 151//3
f 133//3 147//3 136//3
f 149//1 147//1 151//1
f 147//1 149//1 47//1
f 140//2 149//2 141//2
f 149//2 140//2 47//2
f 146//3 129//3 153//3
f 129//3 146//3 132//3
f 150//1 146//1 153//1
f 146//1 150//1 148//1
f 134//2 150//2 135//2
f 150//2 134//2 148//2
f 145//3 125//3 154//3
f 125//3 145//3 128//3
f 152//1 145//1 154//1
f 145//1 152//1 109//1
f 130//2 152//2 131//2
f 152//2 130//2 109//2
f 155//4 156//4 157//4
f 156//4 155//4 158//4
f 159//4 160//4 161//4
f 160//4 159//4 162//4
f 163//4 164//4 165//4
f 164//4 163//4 166//4
f 167//6 160//6 162//6
f 160//6 167//6 168//6
f 163//3 25//3 166//3
f 155//3 148//3 158//3
f 169//3 88//3 170//3
f 159//3 167//3 162//3
f 167//3 159//3 171//3
f 167//3 171//3 172//3
f 172//8 171//8 25//8
f 172//3 25//3 173//3
f 173//3 25//3 163//3
f 172//7 173//7 148//7
f 172//3 148//3 174//3
f 174//3 148//3 155//3
f 172//3 174//3 88//3
f 172//3 88//3 169//3
f 175//5 169//5 176//5
f 169//5 175//5 172//5
f 168//2 177//2 160//2
f 177//2 168//2 175//2
f 177//9 175//9 178//9
f 178//2 175//2 179//2
f 178//2 179//2 164//2
f 179//9 175//9 180//9
f 180//2 175//2 181//2
f 180//2 181//2 156//2
f 181//2 175//2 182//2
f 182//2 175//2 183//2
f 183//2 175//2 176//2
f 157//2 156//2 181//2
f 165//2 164//2 179//2
f 161//2 160//2 177//2
f 167//1 175//1 168//1
f 175//1 167//1 172//1
f 169//4 183//4 176//4
f 183//4 169//4 170//4
f 179//5 163//5 165//5
f 163//5 179//5 173//5
f 148//4 179//4 180//4
f 179//4 148//4 173//4
f 148//6 156//6 158//6
f 156//6 148//6 180//6
f 177//5 159//5 161//5
f 159//5 177//5 171//5
f 25//4 177//4 178//4
f 177//4 25//4 171//4
f 25//6 164//6 166//6
f 164//6 25//6 178//6
f 181//5 155//5 157//5
f 155//5 181//5 174//5
f 88//4 181//4 182//4
f 181//4 88//4 174//4
f 88//6 183//6 170//6
f 183//6 88//6 182//6
