0
SECTION
2
HEADER
9
$ACADVER
1
AC1009
0
ENDSEC
0
SECTION
2
TABLES
0
TABLE
2
LAYER
70
1
0
LAYER
2
BRANCO
70
0
62
7
6
CONTINUOUS
0
ENDTAB
0
ENDSEC
0
SECTION
2
ENTITIES
0
3DFACE
8
BRANCO
10
78.75
20
-192
30
44.67
11
78.91
21
-192.62
31
44.67
12
80
22
-192
32
45
13
78.75
23
-192
33
44.67
0
3DFACE
8
BRANCO
10
78.91
20
-192.62
30
44.67
11
79.37
21
-193.08
31
44.67
12
80
22
-192
32
45
13
78.91
23
-192.62
33
44.67
0
3DFACE
8
BRANCO
10
79.37
20
-193.08
30
44.67
11
80
21
-193.25
31
44.67
12
80
22
-192
32
45
13
79.37
23
-193.08
33
44.67
0
3DFACE
8
BRANCO
10
80
20
-193.25
30
44.67
11
80.62
21
-193.08
31
44.67
12
80
22
-192
32
45
13
80
23
-193.25
33
44.67
0
3DFACE
8
BRANCO
10
80.62
20
-193.08
30
44.67
11
81.08
21
-192.62
31
44.67
12
80
22
-192
32
45
13
80.62
23
-193.08
33
44.67
0
3DFACE
8
BRANCO
10
81.08
20
-192.62
30
44.67
11
81.25
21
-192
31
44.67
12
80
22
-192
32
45
13
81.08
23
-192.62
33
44.67
0
3DFACE
8
BRANCO
10
158.75
20
-192
30
44.67
11
158.91
21
-192.62
31
44.67
12
160
22
-192
32
45
13
158.75
23
-192
33
44.67
0
3DFACE
8
BRANCO
10
158.91
20
-192.62
30
44.67
11
159.37
21
-193.08
31
44.67
12
160
22
-192
32
45
13
158.91
23
-192.62
33
44.67
0
3DFACE
8
BRANCO
10
159.37
20
-193.08
30
44.67
11
160
21
-193.25
31
44.67
12
160
22
-192
32
45
13
159.37
23
-193.08
33
44.67
0
3DFACE
8
BRANCO
10
160
20
-193.25
30
44.67
11
160.62
21
-193.08
31
44.67
12
160
22
-192
32
45
13
160
23
-193.25
33
44.67
0
3DFACE
8
BRANCO
10
160.62
20
-193.08
30
44.67
11
161.08
21
-192.62
31
44.67
12
160
22
-192
32
45
13
160.62
23
-193.08
33
44.67
0
3DFACE
8
BRANCO
10
161.08
20
-192.62
30
44.67
11
161.25
21
-192
31
44.67
12
160
22
-192
32
45
13
161.08
23
-192.62
33
44.67
0
3DFACE
8
BRANCO
10
78.75
20
-247
30
44.67
11
78.91
21
-246.37
31
44.67
12
80
22
-247
32
45
13
78.75
23
-247
33
44.67
0
3DFACE
8
BRANCO
10
78.91
20
-246.37
30
44.67
11
79.37
21
-245.91
31
44.67
12
80
22
-247
32
45
13
78.91
23
-246.37
33
44.67
0
3DFACE
8
BRANCO
10
79.37
20
-245.91
30
44.67
11
80
21
-245.75
31
44.67
12
80
22
-247
32
45
13
79.37
23
-245.91
33
44.67
0
3DFACE
8
BRANCO
10
80
20
-245.75
30
44.67
11
80.62
21
-245.91
31
44.67
12
80
22
-247
32
45
13
80
23
-245.75
33
44.67
0
3DFACE
8
BRANCO
10
80.62
20
-245.91
30
44.67
11
81.08
21
-246.37
31
44.67
12
80
22
-247
32
45
13
80.62
23
-245.91
33
44.67
0
3DFACE
8
BRANCO
10
81.08
20
-246.37
30
44.67
11
81.25
21
-247
31
44.67
12
80
22
-247
32
45
13
81.08
23
-246.37
33
44.67
0
3DFACE
8
BRANCO
10
158.75
20
-247
30
44.67
11
158.91
21
-246.37
31
44.67
12
160
22
-247
32
45
13
158.75
23
-247
33
44.67
0
3DFACE
8
BRANCO
10
158.91
20
-246.37
30
44.67
11
159.37
21
-245.91
31
44.67
12
160
22
-247
32
45
13
158.91
23
-246.37
33
44.67
0
3DFACE
8
BRANCO
10
159.37
20
-245.91
30
44.67
11
160
21
-245.75
31
44.67
12
160
22
-247
32
45
13
159.37
23
-245.91
33
44.67
0
3DFACE
8
BRANCO
10
160
20
-245.75
30
44.67
11
160.62
21
-245.91
31
44.67
12
160
22
-247
32
45
13
160
23
-245.75
33
44.67
0
3DFACE
8
BRANCO
10
160.62
20
-245.91
30
44.67
11
161.08
21
-246.37
31
44.67
12
160
22
-247
32
45
13
160.62
23
-245.91
33
44.67
0
3DFACE
8
BRANCO
10
161.08
20
-246.37
30
44.67
11
161.25
21
-247
31
44.67
12
160
22
-247
32
45
13
161.08
23
-246.37
33
44.67
0
3DFACE
8
BRANCO
10
72.5
20
-7.5
30
0
11
73.62
21
-6.85
31
0.17
12
73.78999
22
-7.5
32
0.17
13
72.5
23
-7.5
33
0
0
3DFACE
8
BRANCO
10
72.5
20
-7.5
30
0
11
73.14
21
-6.37
31
0.17
12
73.62
22
-6.85
32
0.17
13
72.5
23
-7.5
33
0
0
3DFACE
8
BRANCO
10
72.5
20
-7.5
30
0
11
72.5
21
-6.2
31
0.17
12
73.14
22
-6.37
32
0.17
13
72.5
23
-7.5
33
0
0
3DFACE
8
BRANCO
10
152.5
20
-7.5
30
0
11
153.62
21
-6.85
31
0.17
12
153.79
22
-7.5
32
0.17
13
152.5
23
-7.5
33
0
0
3DFACE
8
BRANCO
10
152.5
20
-7.5
30
0
11
153.14
21
-6.37
31
0.17
12
153.62
22
-6.85
32
0.17
13
152.5
23
-7.5
33
0
0
3DFACE
8
BRANCO
10
152.5
20
-7.5
30
0
11
152.5
21
-6.2
31
0.17
12
153.14
22
-6.37
32
0.17
13
152.5
23
-7.5
33
0
0
3DFACE
8
BRANCO
10
230.5
20
-7.5
30
0
11
231.62
21
-6.85
31
0.17
12
231.79
22
-7.5
32
0.17
13
230.5
23
-7.5
33
0
0
3DFACE
8
BRANCO
10
230.5
20
-7.5
30
0
11
231.14
21
-6.37
31
0.17
12
231.62
22
-6.85
32
0.17
13
230.5
23
-7.5
33
0
0
3DFACE
8
BRANCO
10
230.5
20
-7.5
30
0
11
230.5
21
-6.2
31
0.17
12
231.14
22
-6.37
32
0.17
13
230.5
23
-7.5
33
0
0
3DFACE
8
BRANCO
10
312.5
20
-7.5
30
0
11
313.62
21
-6.85
31
0.17
12
313.79
22
-7.5
32
0.17
13
312.5
23
-7.5
33
0
0
3DFACE
8
BRANCO
10
312.5
20
-7.5
30
0
11
313.14
21
-6.37
31
0.17
12
313.62
22
-6.85
32
0.17
13
312.5
23
-7.5
33
0
0
3DFACE
8
BRANCO
10
312.5
20
-7.5
30
0
11
312.5
21
-6.2
31
0.17
12
313.14
22
-6.37
32
0.17
13
312.5
23
-7.5
33
0
0
3DFACE
8
BRANCO
10
7.5
20
-7.5
30
0
11
6.38
21
-6.85
31
0.17
12
6.2
22
-7.5
32
0.17
13
7.5
23
-7.5
33
0
0
3DFACE
8
BRANCO
10
7.5
20
-7.5
30
0
11
6.85
21
-6.37
31
0.17
12
6.38
22
-6.85
32
0.17
13
7.5
23
-7.5
33
0
0
3DFACE
8
BRANCO
10
7.5
20
-7.5
30
0
11
7.5
21
-6.2
31
0.17
12
6.85
22
-6.37
32
0.17
13
7.5
23
-7.5
33
0
0
3DFACE
8
BRANCO
10
87.5
20
-7.5
30
0
11
86.38
21
-6.85
31
0.17
12
86.2
22
-7.5
32
0.17
13
87.5
23
-7.5
33
0
0
3DFACE
8
BRANCO
10
87.5
20
-7.5
30
0
11
86.85001
21
-6.37
31
0.17
12
86.38
22
-6.85
32
0.17
13
87.5
23
-7.5
33
0
0
3DFACE
8
BRANCO
10
87.5
20
-7.5
30
0
11
87.5
21
-6.2
31
0.17
12
86.85001
22
-6.37
32
0.17
13
87.5
23
-7.5
33
0
0
3DFACE
8
BRANCO
10
167.5
20
-7.5
30
0
11
166.38
21
-6.85
31
0.17
12
166.2
22
-7.5
32
0.17
13
167.5
23
-7.5
33
0
0
3DFACE
8
BRANCO
10
167.5
20
-7.5
30
0
11
166.85
21
-6.37
31
0.17
12
166.38
22
-6.85
32
0.17
13
167.5
23
-7.5
33
0
0
3DFACE
8
BRANCO
10
167.5
20
-7.5
30
0
11
167.5
21
-6.2
31
0.17
12
166.85
22
-6.37
32
0.17
13
167.5
23
-7.5
33
0
0
3DFACE
8
BRANCO
10
245.5
20
-7.5
30
0
11
244.38
21
-6.85
31
0.17
12
244.2
22
-7.5
32
0.17
13
245.5
23
-7.5
33
0
0
3DFACE
8
BRANCO
10
245.5
20
-7.5
30
0
11
244.85
21
-6.37
31
0.17
12
244.38
22
-6.85
32
0.17
13
245.5
23
-7.5
33
0
0
3DFACE
8
BRANCO
10
245.5
20
-7.5
30
0
11
245.5
21
-6.2
31
0.17
12
244.85
22
-6.37
32
0.17
13
245.5
23
-7.5
33
0
0
3DFACE
8
BRANCO
10
7.5
20
-289.5
30
0
11
6.38
21
-290.14
31
0.17
12
6.2
22
-289.5
32
0.17
13
7.5
23
-289.5
33
0
0
3DFACE
8
BRANCO
10
7.5
20
-289.5
30
0
11
6.85
21
-290.62
31
0.17
12
6.38
22
-290.14
32
0.17
13
7.5
23
-289.5
33
0
0
3DFACE
8
BRANCO
10
7.5
20
-289.5
30
0
11
7.5
21
-290.79
31
0.17
12
6.85
22
-290.62
32
0.17
13
7.5
23
-289.5
33
0
0
3DFACE
8
BRANCO
10
72.5
20
-289.5
30
0
11
73.62
21
-290.14
31
0.17
12
73.78999
22
-289.5
32
0.17
13
72.5
23
-289.5
33
0
0
3DFACE
8
BRANCO
10
72.5
20
-289.5
30
0
11
73.14
21
-290.62
31
0.17
12
73.62
22
-290.14
32
0.17
13
72.5
23
-289.5
33
0
0
3DFACE
8
BRANCO
10
72.5
20
-289.5
30
0
11
72.5
21
-290.79
31
0.17
12
73.14
22
-290.62
32
0.17
13
72.5
23
-289.5
33
0
0
3DFACE
8
BRANCO
10
167.5
20
-289.5
30
0
11
166.38
21
-290.14
31
0.17
12
166.2
22
-289.5
32
0.17
13
167.5
23
-289.5
33
0
0
3DFACE
8
BRANCO
10
167.5
20
-289.5
30
0
11
166.85
21
-290.62
31
0.17
12
166.38
22
-290.14
32
0.17
13
167.5
23
-289.5
33
0
0
3DFACE
8
BRANCO
10
167.5
20
-289.5
30
0
11
167.5
21
-290.79
31
0.17
12
166.85
22
-290.62
32
0.17
13
167.5
23
-289.5
33
0
0
3DFACE
8
BRANCO
10
87.5
20
-289.5
30
0
11
86.38
21
-290.14
31
0.17
12
86.2
22
-289.5
32
0.17
13
87.5
23
-289.5
33
0
0
3DFACE
8
BRANCO
10
87.5
20
-289.5
30
0
11
86.85001
21
-290.62
31
0.17
12
86.38
22
-290.14
32
0.17
13
87.5
23
-289.5
33
0
0
3DFACE
8
BRANCO
10
87.5
20
-289.5
30
0
11
87.5
21
-290.79
31
0.17
12
86.85001
22
-290.62
32
0.17
13
87.5
23
-289.5
33
0
0
3DFACE
8
BRANCO
10
152.5
20
-289.5
30
0
11
153.62
21
-290.14
31
0.17
12
153.79
22
-289.5
32
0.17
13
152.5
23
-289.5
33
0
0
3DFACE
8
BRANCO
10
152.5
20
-289.5
30
0
11
153.14
21
-290.62
31
0.17
12
153.62
22
-290.14
32
0.17
13
152.5
23
-289.5
33
0
0
3DFACE
8
BRANCO
10
152.5
20
-289.5
30
0
11
152.5
21
-290.79
31
0.17
12
153.14
22
-290.62
32
0.17
13
152.5
23
-289.5
33
0
0
3DFACE
8
BRANCO
10
230.5
20
-289.5
30
0
11
231.62
21
-290.14
31
0.17
12
231.79
22
-289.5
32
0.17
13
230.5
23
-289.5
33
0
0
3DFACE
8
BRANCO
10
230.5
20
-289.5
30
0
11
231.14
21
-290.62
31
0.17
12
231.62
22
-290.14
32
0.17
13
230.5
23
-289.5
33
0
0
3DFACE
8
BRANCO
10
230.5
20
-289.5
30
0
11
230.5
21
-290.79
31
0.17
12
231.14
22
-290.62
32
0.17
13
230.5
23
-289.5
33
0
0
3DFACE
8
BRANCO
10
312.5
20
-442.5
30
0
11
313.62
21
-443.14
31
0.17
12
313.79
22
-442.5
32
0.17
13
312.5
23
-442.5
33
0
0
3DFACE
8
BRANCO
10
312.5
20
-442.5
30
0
11
313.14
21
-443.62
31
0.17
12
313.62
22
-443.14
32
0.17
13
312.5
23
-442.5
33
0
0
3DFACE
8
BRANCO
10
312.5
20
-442.5
30
0
11
312.5
21
-443.79
31
0.17
12
313.14
22
-443.62
32
0.17
13
312.5
23
-442.5
33
0
0
3DFACE
8
BRANCO
10
245.5
20
-442.5
30
0
11
244.38
21
-443.14
31
0.17
12
244.2
22
-442.5
32
0.17
13
245.5
23
-442.5
33
0
0
3DFACE
8
BRANCO
10
245.5
20
-442.5
30
0
11
244.85
21
-443.62
31
0.17
12
244.38
22
-443.14
32
0.17
13
245.5
23
-442.5
33
0
0
3DFACE
8
BRANCO
10
245.5
20
-442.5
30
0
11
245.5
21
-443.79
31
0.17
12
244.85
22
-443.62
32
0.17
13
245.5
23
-442.5
33
0
0
3DFACE
8
BRANCO
10
230.5
20
-304.5
30
0
11
231.62
21
-303.85
31
0.17
12
231.79
22
-304.5
32
0.17
13
230.5
23
-304.5
33
0
0
3DFACE
8
BRANCO
10
230.5
20
-304.5
30
0
11
231.14
21
-303.37
31
0.17
12
231.62
22
-303.85
32
0.17
13
230.5
23
-304.5
33
0
0
3DFACE
8
BRANCO
10
230.5
20
-304.5
30
0
11
230.5
21
-303.2
31
0.17
12
231.14
22
-303.37
32
0.17
13
230.5
23
-304.5
33
0
0
3DFACE
8
BRANCO
10
230.5
20
-366.5
30
0
11
231.62
21
-367.14
31
0.17
12
231.79
22
-366.5
32
0.17
13
230.5
23
-366.5
33
0
0
3DFACE
8
BRANCO
10
230.5
20
-366.5
30
0
11
231.14
21
-367.62
31
0.17
12
231.62
22
-367.14
32
0.17
13
230.5
23
-366.5
33
0
0
3DFACE
8
BRANCO
10
230.5
20
-366.5
30
0
11
230.5
21
-367.79
31
0.17
12
231.14
22
-367.62
32
0.17
13
230.5
23
-366.5
33
0
0
3DFACE
8
BRANCO
10
7.5
20
-366.5
30
0
11
6.38
21
-367.14
31
0.17
12
6.2
22
-366.5
32
0.17
13
7.5
23
-366.5
33
0
0
3DFACE
8
BRANCO
10
7.5
20
-366.5
30
0
11
6.85
21
-367.62
31
0.17
12
6.38
22
-367.14
32
0.17
13
7.5
23
-366.5
33
0
0
3DFACE
8
BRANCO
10
7.5
20
-366.5
30
0
11
7.5
21
-367.79
31
0.17
12
6.85
22
-367.62
32
0.17
13
7.5
23
-366.5
33
0
0
3DFACE
8
BRANCO
10
7.5
20
-304.5
30
0
11
6.38
21
-303.85
31
0.17
12
6.2
22
-304.5
32
0.17
13
7.5
23
-304.5
33
0
0
3DFACE
8
BRANCO
10
7.5
20
-304.5
30
0
11
6.85
21
-303.37
31
0.17
12
6.38
22
-303.85
32
0.17
13
7.5
23
-304.5
33
0
0
3DFACE
8
BRANCO
10
7.5
20
-304.5
30
0
11
7.5
21
-303.2
31
0.17
12
6.85
22
-303.37
32
0.17
13
7.5
23
-304.5
33
0
0
3DFACE
8
BRANCO
10
7.5
20
-381.5
30
0
11
6.38
21
-380.85
31
0.17
12
6.2
22
-381.5
32
0.17
13
7.5
23
-381.5
33
0
0
3DFACE
8
BRANCO
10
7.5
20
-381.5
30
0
11
6.85
21
-380.37
31
0.17
12
6.38
22
-380.85
32
0.17
13
7.5
23
-381.5
33
0
0
3DFACE
8
BRANCO
10
7.5
20
-381.5
30
0
11
7.5
21
-380.2
31
0.17
12
6.85
22
-380.37
32
0.17
13
7.5
23
-381.5
33
0
0
3DFACE
8
BRANCO
10
7.5
20
-442.5
30
0
11
6.38
21
-443.14
31
0.17
12
6.2
22
-442.5
32
0.17
13
7.5
23
-442.5
33
0
0
3DFACE
8
BRANCO
10
7.5
20
-442.5
30
0
11
6.85
21
-443.62
31
0.17
12
6.38
22
-443.14
32
0.17
13
7.5
23
-442.5
33
0
0
3DFACE
8
BRANCO
10
7.5
20
-442.5
30
0
11
7.5
21
-443.79
31
0.17
12
6.85
22
-443.62
32
0.17
13
7.5
23
-442.5
33
0
0
3DFACE
8
BRANCO
10
230.5
20
-442.5
30
0
11
231.62
21
-443.14
31
0.17
12
231.79
22
-442.5
32
0.17
13
230.5
23
-442.5
33
0
0
3DFACE
8
BRANCO
10
230.5
20
-442.5
30
0
11
231.14
21
-443.62
31
0.17
12
231.62
22
-443.14
32
0.17
13
230.5
23
-442.5
33
0
0
3DFACE
8
BRANCO
10
230.5
20
-442.5
30
0
11
230.5
21
-443.79
31
0.17
12
231.14
22
-443.62
32
0.17
13
230.5
23
-442.5
33
0
0
3DFACE
8
BRANCO
10
230.5
20
-381.5
30
0
11
231.62
21
-380.85
31
0.17
12
231.79
22
-381.5
32
0.17
13
230.5
23
-381.5
33
0
0
3DFACE
8
BRANCO
10
230.5
20
-381.5
30
0
11
231.14
21
-380.37
31
0.17
12
231.62
22
-380.85
32
0.17
13
230.5
23
-381.5
33
0
0
3DFACE
8
BRANCO
10
230.5
20
-381.5
30
0
11
230.5
21
-380.2
31
0.17
12
231.14
22
-380.37
32
0.17
13
230.5
23
-381.5
33
0
0
3DFACE
8
BRANCO
10
158.99
20
-293.25
30
45
11
161
21
-293.25
31
45
12
160
22
-289.5
32
45
13
158.99
23
-293.25
33
45
0
3DFACE
8
BRANCO
10
78.99001
20
-293.25
30
45
11
81
21
-293.25
31
45
12
80
22
-289.5
32
45
13
78.99001
23
-293.25
33
45
0
3DFACE
8
BRANCO
10
236.99
20
-446.25
30
45
11
239
21
-446.25
31
45
12
238
22
-442.5
32
45
13
236.99
23
-446.25
33
45
0
3DFACE
8
BRANCO
10
234.25
20
-298
30
45
11
234.25
21
-295.99
31
45
12
230.5
22
-297
32
45
13
234.25
23
-298
33
45
0
3DFACE
8
BRANCO
10
234.25
20
-375
30
45
11
234.25
21
-372.99
31
45
12
230.5
22
-374
32
45
13
234.25
23
-375
33
45
0
3DFACE
8
BRANCO
10
3.75
20
-295.99
30
45
11
3.75
21
-298
31
45
12
7.5
22
-297
32
45
13
3.75
23
-295.99
33
45
0
3DFACE
8
BRANCO
10
3.75
20
-372.99
30
45
11
3.75
21
-375
31
45
12
7.5
22
-374
32
45
13
3.75
23
-372.99
33
45
0
3DFACE
8
BRANCO
10
81
20
-3.75
30
45
11
78.99001
21
-3.75
31
45
12
80
22
-7.5
32
45
13
81
23
-3.75
33
45
0
3DFACE
8
BRANCO
10
239
20
-3.75
30
45
11
236.99
21
-3.75
31
45
12
238
22
-7.5
32
45
13
239
23
-3.75
33
45
0
3DFACE
8
BRANCO
10
161
20
-3.75
30
45
11
158.99
21
-3.75
31
45
12
160
22
-7.5
32
45
13
161
23
-3.75
33
45
0
3DFACE
8
BRANCO
10
72.5
20
-192
30
0
11
73.5
21
-195.75
31
0
12
75.67
22
-194.5
32
0.67
13
75
23
-192
33
0.67
0
3DFACE
8
BRANCO
10
75
20
-192
30
0.67
11
75.67
21
-194.5
31
0.67
12
77.25
22
-193.58
32
2.5
13
76.83
23
-192
33
2.5
0
3DFACE
8
BRANCO
10
76.83
20
-192
30
2.5
11
77.25
21
-193.58
31
2.5
12
77.83
22
-193.25
32
5
13
77.5
23
-192
33
5
0
3DFACE
8
BRANCO
10
77.5
20
-192
30
5
11
77.83
21
-193.25
31
5
12
77.83
22
-193.25
32
42.5
13
77.5
23
-192
33
42.5
0
3DFACE
8
BRANCO
10
77.5
20
-192
30
42.5
11
77.83
21
-193.25
31
42.5
12
78.12
22
-193.08
32
43.75
13
77.83
23
-192
33
43.75
0
3DFACE
8
BRANCO
10
77.83
20
-192
30
43.75
11
78.12
21
-193.08
31
43.75
12
78.91
22
-192.62
32
44.67
13
78.75
23
-192
33
44.67
0
3DFACE
8
BRANCO
10
73.5
20
-195.75
30
0
11
76.25
21
-198.49
31
0
12
77.5
22
-196.33
32
0.67
13
75.67
23
-194.5
33
0.67
0
3DFACE
8
BRANCO
10
75.67
20
-194.5
30
0.67
11
77.5
21
-196.33
31
0.67
12
78.41
22
-194.74
32
2.5
13
77.25
23
-193.58
33
2.5
0
3DFACE
8
BRANCO
10
77.25
20
-193.58
30
2.5
11
78.41
21
-194.74
31
2.5
12
78.75
22
-194.16
32
5
13
77.83
23
-193.25
33
5
0
3DFACE
8
BRANCO
10
77.83
20
-193.25
30
5
11
78.75
21
-194.16
31
5
12
78.75
22
-194.16
32
42.5
13
77.83
23
-193.25
33
42.5
0
3DFACE
8
BRANCO
10
77.83
20
-193.25
30
42.5
11
78.75
21
-194.16
31
42.5
12
78.91
22
-193.87
32
43.75
13
78.12
23
-193.08
33
43.75
0
3DFACE
8
BRANCO
10
78.12
20
-193.08
30
43.75
11
78.91
21
-193.87
31
43.75
12
79.37
22
-193.08
32
44.67
13
78.91
23
-192.62
33
44.67
0
3DFACE
8
BRANCO
10
76.25
20
-198.49
30
0
11
80
21
-199.5
31
0
12
80
22
-197
32
0.67
13
77.5
23
-196.33
33
0.67
0
3DFACE
8
BRANCO
10
77.5
20
-196.33
30
0.67
11
80
21
-197
31
0.67
12
80
22
-195.16
32
2.5
13
78.41
23
-194.74
33
2.5
0
3DFACE
8
BRANCO
10
78.41
20
-194.74
30
2.5
11
80
21
-195.16
31
2.5
12
80
22
-194.5
32
5
13
78.75
23
-194.16
33
5
0
3DFACE
8
BRANCO
10
78.75
20
-194.16
30
5
11
80
21
-194.5
31
5
12
80
22
-194.5
32
42.5
13
78.75
23
-194.16
33
42.5
0
3DFACE
8
BRANCO
10
78.75
20
-194.16
30
42.5
11
80
21
-194.5
31
42.5
12
80
22
-194.16
32
43.75
13
78.91
23
-193.87
33
43.75
0
3DFACE
8
BRANCO
10
78.91
20
-193.87
30
43.75
11
80
21
-194.16
31
43.75
12
80
22
-193.25
32
44.67
13
79.37
23
-193.08
33
44.67
0
3DFACE
8
BRANCO
10
80
20
-199.5
30
0
11
83.75
21
-198.49
31
0
12
82.5
22
-196.33
32
0.67
13
80
23
-197
33
0.67
0
3DFACE
8
BRANCO
10
80
20
-197
30
0.67
11
82.5
21
-196.33
31
0.67
12
81.58
22
-194.74
32
2.5
13
80
23
-195.16
33
2.5
0
3DFACE
8
BRANCO
10
80
20
-195.16
30
2.5
11
81.58
21
-194.74
31
2.5
12
81.25
22
-194.16
32
5
13
80
23
-194.5
33
5
0
3DFACE
8
BRANCO
10
80
20
-194.5
30
5
11
81.25
21
-194.16
31
5
12
81.25
22
-194.16
32
42.5
13
80
23
-194.5
33
42.5
0
3DFACE
8
BRANCO
10
80
20
-194.5
30
42.5
11
81.25
21
-194.16
31
42.5
12
81.08
22
-193.87
32
43.75
13
80
23
-194.16
33
43.75
0
3DFACE
8
BRANCO
10
80
20
-194.16
30
43.75
11
81.08
21
-193.87
31
43.75
12
80.62
22
-193.08
32
44.67
13
80
23
-193.25
33
44.67
0
3DFACE
8
BRANCO
10
83.75
20
-198.49
30
0
11
86.49
21
-195.75
31
0
12
84.33
22
-194.5
32
0.67
13
82.5
23
-196.33
33
0.67
0
3DFACE
8
BRANCO
10
82.5
20
-196.33
30
0.67
11
84.33
21
-194.5
31
0.67
12
82.74
22
-193.58
32
2.5
13
81.58
23
-194.74
33
2.5
0
3DFACE
8
BRANCO
10
81.58
20
-194.74
30
2.5
11
82.74
21
-193.58
31
2.5
12
82.16
22
-193.25
32
5
13
81.25
23
-194.16
33
5
0
3DFACE
8
BRANCO
10
81.25
20
-194.16
30
5
11
82.16
21
-193.25
31
5
12
82.16
22
-193.25
32
42.5
13
81.25
23
-194.16
33
42.5
0
3DFACE
8
BRANCO
10
81.25
20
-194.16
30
42.5
11
82.16
21
-193.25
31
42.5
12
81.87
22
-193.08
32
43.75
13
81.08
23
-193.87
33
43.75
0
3DFACE
8
BRANCO
10
81.08
20
-193.87
30
43.75
11
81.87
21
-193.08
31
43.75
12
81.08
22
-192.62
32
44.67
13
80.62
23
-193.08
33
44.67
0
3DFACE
8
BRANCO
10
86.49
20
-195.75
30
0
11
87.5
21
-192
31
0
12
85
22
-192
32
0.67
13
84.33
23
-194.5
33
0.67
0
3DFACE
8
BRANCO
10
84.33
20
-194.5
30
0.67
11
85
21
-192
31
0.67
12
83.17
22
-192
32
2.5
13
82.74
23
-193.58
33
2.5
0
3DFACE
8
BRANCO
10
82.74
20
-193.58
30
2.5
11
83.17
21
-192
31
2.5
12
82.5
22
-192
32
5
13
82.16
23
-193.25
33
5
0
3DFACE
8
BRANCO
10
82.16
20
-193.25
30
5
11
82.5
21
-192
31
5
12
82.5
22
-192
32
42.5
13
82.16
23
-193.25
33
42.5
0
3DFACE
8
BRANCO
10
82.16
20
-193.25
30
42.5
11
82.5
21
-192
31
42.5
12
82.16
22
-192
32
43.75
13
81.87
23
-193.08
33
43.75
0
3DFACE
8
BRANCO
10
81.87
20
-193.08
30
43.75
11
82.16
21
-192
31
43.75
12
81.25
22
-192
32
44.67
13
81.08
23
-192.62
33
44.67
0
3DFACE
8
BRANCO
10
152.5
20
-192
30
0
11
153.5
21
-195.75
31
0
12
155.67
22
-194.5
32
0.67
13
155
23
-192
33
0.67
0
3DFACE
8
BRANCO
10
155
20
-192
30
0.67
11
155.67
21
-194.5
31
0.67
12
157.25
22
-193.58
32
2.5
13
156.83
23
-192
33
2.5
0
3DFACE
8
BRANCO
10
156.83
20
-192
30
2.5
11
157.25
21
-193.58
31
2.5
12
157.83
22
-193.25
32
5
13
157.5
23
-192
33
5
0
3DFACE
8
BRANCO
10
157.5
20
-192
30
5
11
157.83
21
-193.25
31
5
12
157.83
22
-193.25
32
42.5
13
157.5
23
-192
33
42.5
0
3DFACE
8
BRANCO
10
157.5
20
-192
30
42.5
11
157.83
21
-193.25
31
42.5
12
158.12
22
-193.08
32
43.75
13
157.83
23
-192
33
43.75
0
3DFACE
8
BRANCO
10
157.83
20
-192
30
43.75
11
158.12
21
-193.08
31
43.75
12
158.91
22
-192.62
32
44.67
13
158.75
23
-192
33
44.67
0
3DFACE
8
BRANCO
10
153.5
20
-195.75
30
0
11
156.25
21
-198.49
31
0
12
157.5
22
-196.33
32
0.67
13
155.67
23
-194.5
33
0.67
0
3DFACE
8
BRANCO
10
155.67
20
-194.5
30
0.67
11
157.5
21
-196.33
31
0.67
12
158.41
22
-194.74
32
2.5
13
157.25
23
-193.58
33
2.5
0
3DFACE
8
BRANCO
10
157.25
20
-193.58
30
2.5
11
158.41
21
-194.74
31
2.5
12
158.75
22
-194.16
32
5
13
157.83
23
-193.25
33
5
0
3DFACE
8
BRANCO
10
157.83
20
-193.25
30
5
11
158.75
21
-194.16
31
5
12
158.75
22
-194.16
32
42.5
13
157.83
23
-193.25
33
42.5
0
3DFACE
8
BRANCO
10
157.83
20
-193.25
30
42.5
11
158.75
21
-194.16
31
42.5
12
158.91
22
-193.87
32
43.75
13
158.12
23
-193.08
33
43.75
0
3DFACE
8
BRANCO
10
158.12
20
-193.08
30
43.75
11
158.91
21
-193.87
31
43.75
12
159.37
22
-193.08
32
44.67
13
158.91
23
-192.62
33
44.67
0
3DFACE
8
BRANCO
10
156.25
20
-198.49
30
0
11
160
21
-199.5
31
0
12
160
22
-197
32
0.67
13
157.5
23
-196.33
33
0.67
0
3DFACE
8
BRANCO
10
157.5
20
-196.33
30
0.67
11
160
21
-197
31
0.67
12
160
22
-195.16
32
2.5
13
158.41
23
-194.74
33
2.5
0
3DFACE
8
BRANCO
10
158.41
20
-194.74
30
2.5
11
160
21
-195.16
31
2.5
12
160
22
-194.5
32
5
13
158.75
23
-194.16
33
5
0
3DFACE
8
BRANCO
10
158.75
20
-194.16
30
5
11
160
21
-194.5
31
5
12
160
22
-194.5
32
42.5
13
158.75
23
-194.16
33
42.5
0
3DFACE
8
BRANCO
10
158.75
20
-194.16
30
42.5
11
160
21
-194.5
31
42.5
12
160
22
-194.16
32
43.75
13
158.91
23
-193.87
33
43.75
0
3DFACE
8
BRANCO
10
158.91
20
-193.87
30
43.75
11
160
21
-194.16
31
43.75
12
160
22
-193.25
32
44.67
13
159.37
23
-193.08
33
44.67
0
3DFACE
8
BRANCO
10
160
20
-199.5
30
0
11
163.75
21
-198.49
31
0
12
162.5
22
-196.33
32
0.67
13
160
23
-197
33
0.67
0
3DFACE
8
BRANCO
10
160
20
-197
30
0.67
11
162.5
21
-196.33
31
0.67
12
161.58
22
-194.74
32
2.5
13
160
23
-195.16
33
2.5
0
3DFACE
8
BRANCO
10
160
20
-195.16
30
2.5
11
161.58
21
-194.74
31
2.5
12
161.25
22
-194.16
32
5
13
160
23
-194.5
33
5
0
3DFACE
8
BRANCO
10
160
20
-194.5
30
5
11
161.25
21
-194.16
31
5
12
161.25
22
-194.16
32
42.5
13
160
23
-194.5
33
42.5
0
3DFACE
8
BRANCO
10
160
20
-194.5
30
42.5
11
161.25
21
-194.16
31
42.5
12
161.08
22
-193.87
32
43.75
13
160
23
-194.16
33
43.75
0
3DFACE
8
BRANCO
10
160
20
-194.16
30
43.75
11
161.08
21
-193.87
31
43.75
12
160.62
22
-193.08
32
44.67
13
160
23
-193.25
33
44.67
0
3DFACE
8
BRANCO
10
163.75
20
-198.49
30
0
11
166.49
21
-195.75
31
0
12
164.33
22
-194.5
32
0.67
13
162.5
23
-196.33
33
0.67
0
3DFACE
8
BRANCO
10
162.5
20
-196.33
30
0.67
11
164.33
21
-194.5
31
0.67
12
162.74
22
-193.58
32
2.5
13
161.58
23
-194.74
33
2.5
0
3DFACE
8
BRANCO
10
161.58
20
-194.74
30
2.5
11
162.74
21
-193.58
31
2.5
12
162.16
22
-193.25
32
5
13
161.25
23
-194.16
33
5
0
3DFACE
8
BRANCO
10
161.25
20
-194.16
30
5
11
162.16
21
-193.25
31
5
12
162.16
22
-193.25
32
42.5
13
161.25
23
-194.16
33
42.5
0
3DFACE
8
BRANCO
10
161.25
20
-194.16
30
42.5
11
162.16
21
-193.25
31
42.5
12
161.87
22
-193.08
32
43.75
13
161.08
23
-193.87
33
43.75
0
3DFACE
8
BRANCO
10
161.08
20
-193.87
30
43.75
11
161.87
21
-193.08
31
43.75
12
161.08
22
-192.62
32
44.67
13
160.62
23
-193.08
33
44.67
0
3DFACE
8
BRANCO
10
166.49
20
-195.75
30
0
11
167.5
21
-192
31
0
12
165
22
-192
32
0.67
13
164.33
23
-194.5
33
0.67
0
3DFACE
8
BRANCO
10
164.33
20
-194.5
30
0.67
11
165
21
-192
31
0.67
12
163.17
22
-192
32
2.5
13
162.74
23
-193.58
33
2.5
0
3DFACE
8
BRANCO
10
162.74
20
-193.58
30
2.5
11
163.17
21
-192
31
2.5
12
162.5
22
-192
32
5
13
162.16
23
-193.25
33
5
0
3DFACE
8
BRANCO
10
162.16
20
-193.25
30
5
11
162.5
21
-192
31
5
12
162.5
22
-192
32
42.5
13
162.16
23
-193.25
33
42.5
0
3DFACE
8
BRANCO
10
162.16
20
-193.25
30
42.5
11
162.5
21
-192
31
42.5
12
162.16
22
-192
32
43.75
13
161.87
23
-193.08
33
43.75
0
3DFACE
8
BRANCO
10
161.87
20
-193.08
30
43.75
11
162.16
21
-192
31
43.75
12
161.25
22
-192
32
44.67
13
161.08
23
-192.62
33
44.67
0
3DFACE
8
BRANCO
10
72.5
20
-247
30
0
11
73.5
21
-243.25
31
0
12
75.67
22
-244.5
32
0.67
13
75
23
-247
33
0.67
0
3DFACE
8
BRANCO
10
75
20
-247
30
0.67
11
75.67
21
-244.5
31
0.67
12
77.25
22
-245.41
32
2.5
13
76.83
23
-247
33
2.5
0
3DFACE
8
BRANCO
10
76.83
20
-247
30
2.5
11
77.25
21
-245.41
31
2.5
12
77.83
22
-245.75
32
5
13
77.5
23
-247
33
5
0
3DFACE
8
BRANCO
10
77.5
20
-247
30
5
11
77.83
21
-245.75
31
5
12
77.83
22
-245.75
32
42.5
13
77.5
23
-247
33
42.5
0
3DFACE
8
BRANCO
10
77.5
20
-247
30
42.5
11
77.83
21
-245.75
31
42.5
12
78.12
22
-245.91
32
43.75
13
77.83
23
-247
33
43.75
0
3DFACE
8
BRANCO
10
77.83
20
-247
30
43.75
11
78.12
21
-245.91
31
43.75
12
78.91
22
-246.37
32
44.67
13
78.75
23
-247
33
44.67
0
3DFACE
8
BRANCO
10
73.5
20
-243.25
30
0
11
76.25
21
-240.5
31
0
12
77.5
22
-242.66
32
0.67
13
75.67
23
-244.5
33
0.67
0
3DFACE
8
BRANCO
10
75.67
20
-244.5
30
0.67
11
77.5
21
-242.66
31
0.67
12
78.41
22
-244.25
32
2.5
13
77.25
23
-245.41
33
2.5
0
3DFACE
8
BRANCO
10
77.25
20
-245.41
30
2.5
11
78.41
21
-244.25
31
2.5
12
78.75
22
-244.83
32
5
13
77.83
23
-245.75
33
5
0
3DFACE
8
BRANCO
10
77.83
20
-245.75
30
5
11
78.75
21
-244.83
31
5
12
78.75
22
-244.83
32
42.5
13
77.83
23
-245.75
33
42.5
0
3DFACE
8
BRANCO
10
77.83
20
-245.75
30
42.5
11
78.75
21
-244.83
31
42.5
12
78.91
22
-245.12
32
43.75
13
78.12
23
-245.91
33
43.75
0
3DFACE
8
BRANCO
10
78.12
20
-245.91
30
43.75
11
78.91
21
-245.12
31
43.75
12
79.37
22
-245.91
32
44.67
13
78.91
23
-246.37
33
44.67
0
3DFACE
8
BRANCO
10
76.25
20
-240.5
30
0
11
80
21
-239.5
31
0
12
80
22
-242
32
0.67
13
77.5
23
-242.66
33
0.67
0
3DFACE
8
BRANCO
10
77.5
20
-242.66
30
0.67
11
80
21
-242
31
0.67
12
80
22
-243.83
32
2.5
13
78.41
23
-244.25
33
2.5
0
3DFACE
8
BRANCO
10
78.41
20
-244.25
30
2.5
11
80
21
-243.83
31
2.5
12
80
22
-244.5
32
5
13
78.75
23
-244.83
33
5
0
3DFACE
8
BRANCO
10
78.75
20
-244.83
30
5
11
80
21
-244.5
31
5
12
80
22
-244.5
32
42.5
13
78.75
23
-244.83
33
42.5
0
3DFACE
8
BRANCO
10
78.75
20
-244.83
30
42.5
11
80
21
-244.5
31
42.5
12
80
22
-244.83
32
43.75
13
78.91
23
-245.12
33
43.75
0
3DFACE
8
BRANCO
10
78.91
20
-245.12
30
43.75
11
80
21
-244.83
31
43.75
12
80
22
-245.75
32
44.67
13
79.37
23
-245.91
33
44.67
0
3DFACE
8
BRANCO
10
80
20
-239.5
30
0
11
83.75
21
-240.5
31
0
12
82.5
22
-242.66
32
0.67
13
80
23
-242
33
0.67
0
3DFACE
8
BRANCO
10
80
20
-242
30
0.67
11
82.5
21
-242.66
31
0.67
12
81.58
22
-244.25
32
2.5
13
80
23
-243.83
33
2.5
0
3DFACE
8
BRANCO
10
80
20
-243.83
30
2.5
11
81.58
21
-244.25
31
2.5
12
81.25
22
-244.83
32
5
13
80
23
-244.5
33
5
0
3DFACE
8
BRANCO
10
80
20
-244.5
30
5
11
81.25
21
-244.83
31
5
12
81.25
22
-244.83
32
42.5
13
80
23
-244.5
33
42.5
0
3DFACE
8
BRANCO
10
80
20
-244.5
30
42.5
11
81.25
21
-244.83
31
42.5
12
81.08
22
-245.12
32
43.75
13
80
23
-244.83
33
43.75
0
3DFACE
8
BRANCO
10
80
20
-244.83
30
43.75
11
81.08
21
-245.12
31
43.75
12
80.62
22
-245.91
32
44.67
13
80
23
-245.75
33
44.67
0
3DFACE
8
BRANCO
10
83.75
20
-240.5
30
0
11
86.49
21
-243.25
31
0
12
84.33
22
-244.5
32
0.67
13
82.5
23
-242.66
33
0.67
0
3DFACE
8
BRANCO
10
82.5
20
-242.66
30
0.67
11
84.33
21
-244.5
31
0.67
12
82.74
22
-245.41
32
2.5
13
81.58
23
-244.25
33
2.5
0
3DFACE
8
BRANCO
10
81.58
20
-244.25
30
2.5
11
82.74
21
-245.41
31
2.5
12
82.16
22
-245.75
32
5
13
81.25
23
-244.83
33
5
0
3DFACE
8
BRANCO
10
81.25
20
-244.83
30
5
11
82.16
21
-245.75
31
5
12
82.16
22
-245.75
32
42.5
13
81.25
23
-244.83
33
42.5
0
3DFACE
8
BRANCO
10
81.25
20
-244.83
30
42.5
11
82.16
21
-245.75
31
42.5
12
81.87
22
-245.91
32
43.75
13
81.08
23
-245.12
33
43.75
0
3DFACE
8
BRANCO
10
81.08
20
-245.12
30
43.75
11
81.87
21
-245.91
31
43.75
12
81.08
22
-246.37
32
44.67
13
80.62
23
-245.91
33
44.67
0
3DFACE
8
BRANCO
10
86.49
20
-243.25
30
0
11
87.5
21
-247
31
0
12
85
22
-247
32
0.67
13
84.33
23
-244.5
33
0.67
0
3DFACE
8
BRANCO
10
84.33
20
-244.5
30
0.67
11
85
21
-247
31
0.67
12
83.17
22
-247
32
2.5
13
82.74
23
-245.41
33
2.5
0
3DFACE
8
BRANCO
10
82.74
20
-245.41
30
2.5
11
83.17
21
-247
31
2.5
12
82.5
22
-247
32
5
13
82.16
23
-245.75
33
5
0
3DFACE
8
BRANCO
10
82.16
20
-245.75
30
5
11
82.5
21
-247
31
5
12
82.5
22
-247
32
42.5
13
82.16
23
-245.75
33
42.5
0
3DFACE
8
BRANCO
10
82.16
20
-245.75
30
42.5
11
82.5
21
-247
31
42.5
12
82.16
22
-247
32
43.75
13
81.87
23
-245.91
33
43.75
0
3DFACE
8
BRANCO
10
81.87
20
-245.91
30
43.75
11
82.16
21
-247
31
43.75
12
81.25
22
-247
32
44.67
13
81.08
23
-246.37
33
44.67
0
3DFACE
8
BRANCO
10
152.5
20
-247
30
0
11
153.5
21
-243.25
31
0
12
155.67
22
-244.5
32
0.67
13
155
23
-247
33
0.67
0
3DFACE
8
BRANCO
10
155
20
-247
30
0.67
11
155.67
21
-244.5
31
0.67
12
157.25
22
-245.41
32
2.5
13
156.83
23
-247
33
2.5
0
3DFACE
8
BRANCO
10
156.83
20
-247
30
2.5
11
157.25
21
-245.41
31
2.5
12
157.83
22
-245.75
32
5
13
157.5
23
-247
33
5
0
3DFACE
8
BRANCO
10
157.5
20
-247
30
5
11
157.83
21
-245.75
31
5
12
157.83
22
-245.75
32
42.5
13
157.5
23
-247
33
42.5
0
3DFACE
8
BRANCO
10
157.5
20
-247
30
42.5
11
157.83
21
-245.75
31
42.5
12
158.12
22
-245.91
32
43.75
13
157.83
23
-247
33
43.75
0
3DFACE
8
BRANCO
10
157.83
20
-247
30
43.75
11
158.12
21
-245.91
31
43.75
12
158.91
22
-246.37
32
44.67
13
158.75
23
-247
33
44.67
0
3DFACE
8
BRANCO
10
153.5
20
-243.25
30
0
11
156.25
21
-240.5
31
0
12
157.5
22
-242.66
32
0.67
13
155.67
23
-244.5
33
0.67
0
3DFACE
8
BRANCO
10
155.67
20
-244.5
30
0.67
11
157.5
21
-242.66
31
0.67
12
158.41
22
-244.25
32
2.5
13
157.25
23
-245.41
33
2.5
0
3DFACE
8
BRANCO
10
157.25
20
-245.41
30
2.5
11
158.41
21
-244.25
31
2.5
12
158.75
22
-244.83
32
5
13
157.83
23
-245.75
33
5
0
3DFACE
8
BRANCO
10
157.83
20
-245.75
30
5
11
158.75
21
-244.83
31
5
12
158.75
22
-244.83
32
42.5
13
157.83
23
-245.75
33
42.5
0
3DFACE
8
BRANCO
10
157.83
20
-245.75
30
42.5
11
158.75
21
-244.83
31
42.5
12
158.91
22
-245.12
32
43.75
13
158.12
23
-245.91
33
43.75
0
3DFACE
8
BRANCO
10
158.12
20
-245.91
30
43.75
11
158.91
21
-245.12
31
43.75
12
159.37
22
-245.91
32
44.67
13
158.91
23
-246.37
33
44.67
0
3DFACE
8
BRANCO
10
156.25
20
-240.5
30
0
11
160
21
-239.5
31
0
12
160
22
-242
32
0.67
13
157.5
23
-242.66
33
0.67
0
3DFACE
8
BRANCO
10
157.5
20
-242.66
30
0.67
11
160
21
-242
31
0.67
12
160
22
-243.83
32
2.5
13
158.41
23
-244.25
33
2.5
0
3DFACE
8
BRANCO
10
158.41
20
-244.25
30
2.5
11
160
21
-243.83
31
2.5
12
160
22
-244.5
32
5
13
158.75
23
-244.83
33
5
0
3DFACE
8
BRANCO
10
158.75
20
-244.83
30
5
11
160
21
-244.5
31
5
12
160
22
-244.5
32
42.5
13
158.75
23
-244.83
33
42.5
0
3DFACE
8
BRANCO
10
158.75
20
-244.83
30
42.5
11
160
21
-244.5
31
42.5
12
160
22
-244.83
32
43.75
13
158.91
23
-245.12
33
43.75
0
3DFACE
8
BRANCO
10
158.91
20
-245.12
30
43.75
11
160
21
-244.83
31
43.75
12
160
22
-245.75
32
44.67
13
159.37
23
-245.91
33
44.67
0
3DFACE
8
BRANCO
10
160
20
-239.5
30
0
11
163.75
21
-240.5
31
0
12
162.5
22
-242.66
32
0.67
13
160
23
-242
33
0.67
0
3DFACE
8
BRANCO
10
160
20
-242
30
0.67
11
162.5
21
-242.66
31
0.67
12
161.58
22
-244.25
32
2.5
13
160
23
-243.83
33
2.5
0
3DFACE
8
BRANCO
10
160
20
-243.83
30
2.5
11
161.58
21
-244.25
31
2.5
12
161.25
22
-244.83
32
5
13
160
23
-244.5
33
5
0
3DFACE
8
BRANCO
10
160
20
-244.5
30
5
11
161.25
21
-244.83
31
5
12
161.25
22
-244.83
32
42.5
13
160
23
-244.5
33
42.5
0
3DFACE
8
BRANCO
10
160
20
-244.5
30
42.5
11
161.25
21
-244.83
31
42.5
12
161.08
22
-245.12
32
43.75
13
160
23
-244.83
33
43.75
0
3DFACE
8
BRANCO
10
160
20
-244.83
30
43.75
11
161.08
21
-245.12
31
43.75
12
160.62
22
-245.91
32
44.67
13
160
23
-245.75
33
44.67
0
3DFACE
8
BRANCO
10
163.75
20
-240.5
30
0
11
166.49
21
-243.25
31
0
12
164.33
22
-244.5
32
0.67
13
162.5
23
-242.66
33
0.67
0
3DFACE
8
BRANCO
10
162.5
20
-242.66
30
0.67
11
164.33
21
-244.5
31
0.67
12
162.74
22
-245.41
32
2.5
13
161.58
23
-244.25
33
2.5
0
3DFACE
8
BRANCO
10
161.58
20
-244.25
30
2.5
11
162.74
21
-245.41
31
2.5
12
162.16
22
-245.75
32
5
13
161.25
23
-244.83
33
5
0
3DFACE
8
BRANCO
10
161.25
20
-244.83
30
5
11
162.16
21
-245.75
31
5
12
162.16
22
-245.75
32
42.5
13
161.25
23
-244.83
33
42.5
0
3DFACE
8
BRANCO
10
161.25
20
-244.83
30
42.5
11
162.16
21
-245.75
31
42.5
12
161.87
22
-245.91
32
43.75
13
161.08
23
-245.12
33
43.75
0
3DFACE
8
BRANCO
10
161.08
20
-245.12
30
43.75
11
161.87
21
-245.91
31
43.75
12
161.08
22
-246.37
32
44.67
13
160.62
23
-245.91
33
44.67
0
3DFACE
8
BRANCO
10
166.49
20
-243.25
30
0
11
167.5
21
-247
31
0
12
165
22
-247
32
0.67
13
164.33
23
-244.5
33
0.67
0
3DFACE
8
BRANCO
10
164.33
20
-244.5
30
0.67
11
165
21
-247
31
0.67
12
163.17
22
-247
32
2.5
13
162.74
23
-245.41
33
2.5
0
3DFACE
8
BRANCO
10
162.74
20
-245.41
30
2.5
11
163.17
21
-247
31
2.5
12
162.5
22
-247
32
5
13
162.16
23
-245.75
33
5
0
3DFACE
8
BRANCO
10
162.16
20
-245.75
30
5
11
162.5
21
-247
31
5
12
162.5
22
-247
32
42.5
13
162.16
23
-245.75
33
42.5
0
3DFACE
8
BRANCO
10
162.16
20
-245.75
30
42.5
11
162.5
21
-247
31
42.5
12
162.16
22
-247
32
43.75
13
161.87
23
-245.91
33
43.75
0
3DFACE
8
BRANCO
10
161.87
20
-245.91
30
43.75
11
162.16
21
-247
31
43.75
12
161.25
22
-247
32
44.67
13
161.08
23
-246.37
33
44.67
0
3DFACE
8
BRANCO
10
72.5
20
-192
30
0
11
72.5
21
-7.5
31
0
12
75
22
-7.5
32
0.67
13
75
23
-192
33
0.67
0
3DFACE
8
BRANCO
10
75
20
-192
30
0.67
11
75
21
-7.5
31
0.67
12
76.83
22
-7.5
32
2.5
13
76.83
23
-192
33
2.5
0
3DFACE
8
BRANCO
10
76.83
20
-192
30
2.5
11
76.83
21
-7.5
31
2.5
12
77.5
22
-7.5
32
5
13
77.5
23
-192
33
5
0
3DFACE
8
BRANCO
10
77.5
20
-192
30
5
11
77.5
21
-7.5
31
5
12
77.5
22
-7.5
32
42.5
13
77.5
23
-192
33
42.5
0
3DFACE
8
BRANCO
10
77.5
20
-192
30
42.5
11
77.5
21
-7.5
31
42.5
12
77.83
22
-7.5
32
43.75
13
77.83
23
-192
33
43.75
0
3DFACE
8
BRANCO
10
77.83
20
-192
30
43.75
11
77.83
21
-7.5
31
43.75
12
78.75
22
-7.5
32
44.67
13
78.75
23
-192
33
44.67
0
3DFACE
8
BRANCO
10
78.75
20
-192
30
44.67
11
78.75
21
-7.5
31
44.67
12
80
22
-7.5
32
45
13
80
23
-192
33
45
0
3DFACE
8
BRANCO
10
152.5
20
-192
30
0
11
152.5
21
-7.5
31
0
12
155
22
-7.5
32
0.67
13
155
23
-192
33
0.67
0
3DFACE
8
BRANCO
10
155
20
-192
30
0.67
11
155
21
-7.5
31
0.67
12
156.83
22
-7.5
32
2.5
13
156.83
23
-192
33
2.5
0
3DFACE
8
BRANCO
10
156.83
20
-192
30
2.5
11
156.83
21
-7.5
31
2.5
12
157.5
22
-7.5
32
5
13
157.5
23
-192
33
5
0
3DFACE
8
BRANCO
10
157.5
20
-192
30
5
11
157.5
21
-7.5
31
5
12
157.5
22
-7.5
32
42.5
13
157.5
23
-192
33
42.5
0
3DFACE
8
BRANCO
10
157.5
20
-192
30
42.5
11
157.5
21
-7.5
31
42.5
12
157.83
22
-7.5
32
43.75
13
157.83
23
-192
33
43.75
0
3DFACE
8
BRANCO
10
157.83
20
-192
30
43.75
11
157.83
21
-7.5
31
43.75
12
158.75
22
-7.5
32
44.67
13
158.75
23
-192
33
44.67
0
3DFACE
8
BRANCO
10
158.75
20
-192
30
44.67
11
158.75
21
-7.5
31
44.67
12
160
22
-7.5
32
45
13
160
23
-192
33
45
0
3DFACE
8
BRANCO
10
87.5
20
-192
30
0
11
87.5
21
-7.5
31
0
12
85
22
-7.5
32
0.67
13
85
23
-192
33
0.67
0
3DFACE
8
BRANCO
10
85
20
-192
30
0.67
11
85
21
-7.5
31
0.67
12
83.17
22
-7.5
32
2.5
13
83.17
23
-192
33
2.5
0
3DFACE
8
BRANCO
10
83.17
20
-192
30
2.5
11
83.17
21
-7.5
31
2.5
12
82.5
22
-7.5
32
5
13
82.5
23
-192
33
5
0
3DFACE
8
BRANCO
10
82.5
20
-192
30
5
11
82.5
21
-7.5
31
5
12
82.5
22
-7.5
32
42.5
13
82.5
23
-192
33
42.5
0
3DFACE
8
BRANCO
10
82.5
20
-192
30
42.5
11
82.5
21
-7.5
31
42.5
12
82.16
22
-7.5
32
43.75
13
82.16
23
-192
33
43.75
0
3DFACE
8
BRANCO
10
82.16
20
-192
30
43.75
11
82.16
21
-7.5
31
43.75
12
81.25
22
-7.5
32
44.67
13
81.25
23
-192
33
44.67
0
3DFACE
8
BRANCO
10
81.25
20
-192
30
44.67
11
81.25
21
-7.5
31
44.67
12
80
22
-7.5
32
45
13
80
23
-192
33
45
0
3DFACE
8
BRANCO
10
167.5
20
-192
30
0
11
167.5
21
-7.5
31
0
12
165
22
-7.5
32
0.67
13
165
23
-192
33
0.67
0
3DFACE
8
BRANCO
10
165
20
-192
30
0.67
11
165
21
-7.5
31
0.67
12
163.17
22
-7.5
32
2.5
13
163.17
23
-192
33
2.5
0
3DFACE
8
BRANCO
10
163.17
20
-192
30
2.5
11
163.17
21
-7.5
31
2.5
12
162.5
22
-7.5
32
5
13
162.5
23
-192
33
5
0
3DFACE
8
BRANCO
10
162.5
20
-192
30
5
11
162.5
21
-7.5
31
5
12
162.5
22
-7.5
32
42.5
13
162.5
23
-192
33
42.5
0
3DFACE
8
BRANCO
10
162.5
20
-192
30
42.5
11
162.5
21
-7.5
31
42.5
12
162.16
22
-7.5
32
43.75
13
162.16
23
-192
33
43.75
0
3DFACE
8
BRANCO
10
162.16
20
-192
30
43.75
11
162.16
21
-7.5
31
43.75
12
161.25
22
-7.5
32
44.67
13
161.25
23
-192
33
44.67
0
3DFACE
8
BRANCO
10
161.25
20
-192
30
44.67
11
161.25
21
-7.5
31
44.67
12
160
22
-7.5
32
45
13
160
23
-192
33
45
0
3DFACE
8
BRANCO
10
72.5
20
-247
30
0
11
72.5
21
-289.5
31
0
12
75
22
-289.5
32
0.67
13
75
23
-247
33
0.67
0
3DFACE
8
BRANCO
10
75
20
-247
30
0.67
11
75
21
-289.5
31
0.67
12
76.83
22
-289.5
32
2.5
13
76.83
23
-247
33
2.5
0
3DFACE
8
BRANCO
10
76.83
20
-247
30
2.5
11
76.83
21
-289.5
31
2.5
12
77.5
22
-289.5
32
5
13
77.5
23
-247
33
5
0
3DFACE
8
BRANCO
10
77.5
20
-247
30
5
11
77.5
21
-289.5
31
5
12
77.5
22
-289.5
32
42.5
13
77.5
23
-247
33
42.5
0
3DFACE
8
BRANCO
10
77.5
20
-247
30
42.5
11
77.5
21
-289.5
31
42.5
12
77.83
22
-289.5
32
43.75
13
77.83
23
-247
33
43.75
0
3DFACE
8
BRANCO
10
77.83
20
-247
30
43.75
11
77.83
21
-289.5
31
43.75
12
78.75
22
-289.5
32
44.67
13
78.75
23
-247
33
44.67
0
3DFACE
8
BRANCO
10
78.75
20
-247
30
44.67
11
78.75
21
-289.5
31
44.67
12
80
22
-289.5
32
45
13
80
23
-247
33
45
0
3DFACE
8
BRANCO
10
87.5
20
-247
30
0
11
87.5
21
-289.5
31
0
12
85
22
-289.5
32
0.67
13
85
23
-247
33
0.67
0
3DFACE
8
BRANCO
10
85
20
-247
30
0.67
11
85
21
-289.5
31
0.67
12
83.17
22
-289.5
32
2.5
13
83.17
23
-247
33
2.5
0
3DFACE
8
BRANCO
10
83.17
20
-247
30
2.5
11
83.17
21
-289.5
31
2.5
12
82.5
22
-289.5
32
5
13
82.5
23
-247
33
5
0
3DFACE
8
BRANCO
10
82.5
20
-247
30
5
11
82.5
21
-289.5
31
5
12
82.5
22
-289.5
32
42.5
13
82.5
23
-247
33
42.5
0
3DFACE
8
BRANCO
10
82.5
20
-247
30
42.5
11
82.5
21
-289.5
31
42.5
12
82.16
22
-289.5
32
43.75
13
82.16
23
-247
33
43.75
0
3DFACE
8
BRANCO
10
82.16
20
-247
30
43.75
11
82.16
21
-289.5
31
43.75
12
81.25
22
-289.5
32
44.67
13
81.25
23
-247
33
44.67
0
3DFACE
8
BRANCO
10
81.25
20
-247
30
44.67
11
81.25
21
-289.5
31
44.67
12
80
22
-289.5
32
45
13
80
23
-247
33
45
0
3DFACE
8
BRANCO
10
160
20
-247
30
45
11
160
21
-289.5
31
45
12
158.75
22
-289.5
32
44.67
13
158.75
23
-247
33
44.67
0
3DFACE
8
BRANCO
10
158.75
20
-247
30
44.67
11
158.75
21
-289.5
31
44.67
12
157.83
22
-289.5
32
43.75
13
157.83
23
-247
33
43.75
0
3DFACE
8
BRANCO
10
157.83
20
-247
30
43.75
11
157.83
21
-289.5
31
43.75
12
157.5
22
-289.5
32
42.5
13
157.5
23
-247
33
42.5
0
3DFACE
8
BRANCO
10
157.5
20
-247
30
42.5
11
157.5
21
-289.5
31
42.5
12
157.5
22
-289.5
32
5
13
157.5
23
-247
33
5
0
3DFACE
8
BRANCO
10
157.5
20
-247
30
5
11
157.5
21
-289.5
31
5
12
156.83
22
-289.5
32
2.5
13
156.83
23
-247
33
2.5
0
3DFACE
8
BRANCO
10
156.83
20
-247
30
2.5
11
156.83
21
-289.5
31
2.5
12
155
22
-289.5
32
0.67
13
155
23
-247
33
0.67
0
3DFACE
8
BRANCO
10
155
20
-247
30
0.67
11
155
21
-289.5
31
0.67
12
152.5
22
-289.5
32
0
13
152.5
23
-247
33
0
0
3DFACE
8
BRANCO
10
160
20
-247
30
45
11
160
21
-289.5
31
45
12
161.25
22
-289.5
32
44.67
13
161.25
23
-247
33
44.67
0
3DFACE
8
BRANCO
10
161.25
20
-247
30
44.67
11
161.25
21
-289.5
31
44.67
12
162.16
22
-289.5
32
43.75
13
162.16
23
-247
33
43.75
0
3DFACE
8
BRANCO
10
162.16
20
-247
30
43.75
11
162.16
21
-289.5
31
43.75
12
162.5
22
-289.5
32
42.5
13
162.5
23
-247
33
42.5
0
3DFACE
8
BRANCO
10
162.5
20
-247
30
42.5
11
162.5
21
-289.5
31
42.5
12
162.5
22
-289.5
32
5
13
162.5
23
-247
33
5
0
3DFACE
8
BRANCO
10
162.5
20
-247
30
5
11
162.5
21
-289.5
31
5
12
163.17
22
-289.5
32
2.5
13
163.17
23
-247
33
2.5
0
3DFACE
8
BRANCO
10
163.17
20
-247
30
2.5
11
163.17
21
-289.5
31
2.5
12
165
22
-289.5
32
0.67
13
165
23
-247
33
0.67
0
3DFACE
8
BRANCO
10
165
20
-247
30
0.67
11
165
21
-289.5
31
0.67
12
167.5
22
-289.5
32
0
13
167.5
23
-247
33
0
0
3DFACE
8
BRANCO
10
73.78999
20
-7.5
30
0.17
11
73.62
21
-6.85
31
0.17
12
74.66
22
-6.25
32
0.67
13
75
23
-7.5
33
0.67
0
3DFACE
8
BRANCO
10
75
20
-7.5
30
0.67
11
74.66
21
-6.25
31
0.67
12
75.56
22
-5.73
32
1.46
13
76.03
23
-7.5
33
1.46
0
3DFACE
8
BRANCO
10
76.03
20
-7.5
30
1.46
11
75.56
21
-5.73
31
1.46
12
76.25
22
-5.33
32
2.5
13
76.83
23
-7.5
33
2.5
0
3DFACE
8
BRANCO
10
76.83
20
-7.5
30
2.5
11
76.25
21
-5.33
31
2.5
12
76.68
22
-5.08
32
3.71
13
77.33
23
-7.5
33
3.71
0
3DFACE
8
BRANCO
10
77.33
20
-7.5
30
3.71
11
76.68
21
-5.08
31
3.71
12
76.83
22
-5
32
5
13
77.5
23
-7.5
33
5
0
3DFACE
8
BRANCO
10
77.5
20
-7.5
30
5
11
76.83
21
-5
31
5
12
76.83
22
-5
32
42.5
13
77.5
23
-7.5
33
42.5
0
3DFACE
8
BRANCO
10
77.5
20
-7.5
30
42.5
11
76.83
21
-5
31
42.5
12
76.9
22
-4.95
32
43.15
13
77.58
23
-7.5
33
43.15
0
3DFACE
8
BRANCO
10
77.58
20
-7.5
30
43.15
11
76.9
21
-4.95
31
43.15
12
77.12
22
-4.83
32
43.75
13
77.83
23
-7.5
33
43.75
0
3DFACE
8
BRANCO
10
77.83
20
-7.5
30
43.75
11
77.12
21
-4.83
31
43.75
12
77.46001
22
-4.63
32
44.27
13
78.23
23
-7.5
33
44.27
0
3DFACE
8
BRANCO
10
78.23
20
-7.5
30
44.27
11
77.46001
21
-4.63
31
44.27
12
77.91
22
-4.37
32
44.67
13
78.75
23
-7.5
33
44.67
0
3DFACE
8
BRANCO
10
78.75
20
-7.5
30
44.67
11
77.91
21
-4.37
31
44.67
12
78.43
22
-4.07
32
44.91
13
79.35001
23
-7.5
33
44.91
0
3DFACE
8
BRANCO
10
79.35001
20
-7.5
30
44.91
11
78.43
21
-4.07
31
44.91
12
78.99001
22
-3.75
32
45
13
80
23
-7.5
33
45
0
3DFACE
8
BRANCO
10
73.62
20
-6.85
30
0.17
11
73.14
21
-6.37
31
0.17
12
73.75
22
-5.33
32
0.67
13
74.66
23
-6.25
33
0.67
0
3DFACE
8
BRANCO
10
74.66
20
-6.25
30
0.67
11
73.75
21
-5.33
31
0.67
12
74.27
22
-4.43
32
1.46
13
75.56
23
-5.73
33
1.46
0
3DFACE
8
BRANCO
10
75.56
20
-5.73
30
1.46
11
74.27
21
-4.43
31
1.46
12
74.66
22
-3.75
32
2.5
13
76.25
23
-5.33
33
2.5
0
3DFACE
8
BRANCO
10
76.25
20
-5.33
30
2.5
11
74.66
21
-3.75
31
2.5
12
74.91
22
-3.31
32
3.71
13
76.68
23
-5.08
33
3.71
0
3DFACE
8
BRANCO
10
76.68
20
-5.08
30
3.71
11
74.91
21
-3.31
31
3.71
12
75
22
-3.16
32
5
13
76.83
23
-5
33
5
0
3DFACE
8
BRANCO
10
76.83
20
-5
30
5
11
75
21
-3.16
31
5
12
75
22
-3.16
32
42.5
13
76.83
23
-5
33
42.5
0
3DFACE
8
BRANCO
10
76.83
20
-5
30
42.5
11
75
21
-3.16
31
42.5
12
75.04
22
-3.09
32
43.15
13
76.9
23
-4.95
33
43.15
0
3DFACE
8
BRANCO
10
76.9
20
-4.95
30
43.15
11
75.04
21
-3.09
31
43.15
12
75.16
22
-2.87
32
43.75
13
77.12
23
-4.83
33
43.75
0
3DFACE
8
BRANCO
10
77.12
20
-4.83
30
43.75
11
75.16
21
-2.87
31
43.75
12
75.36
22
-2.53
32
44.27
13
77.46001
23
-4.63
33
44.27
0
3DFACE
8
BRANCO
10
77.46001
20
-4.63
30
44.27
11
75.36
21
-2.53
31
44.27
12
75.62
22
-2.08
32
44.67
13
77.91
23
-4.37
33
44.67
0
3DFACE
8
BRANCO
10
77.91
20
-4.37
30
44.67
11
75.62
21
-2.08
31
44.67
12
75.92
22
-1.56
32
44.91
13
78.43
23
-4.07
33
44.91
0
3DFACE
8
BRANCO
10
78.43
20
-4.07
30
44.91
11
75.92
21
-1.56
31
44.91
12
76.25
22
-1
32
45
13
78.99001
23
-3.75
33
45
0
3DFACE
8
BRANCO
10
73.14
20
-6.37
30
0.17
11
72.5
21
-6.2
31
0.17
12
72.5
22
-5
32
0.67
13
73.75
23
-5.33
33
0.67
0
3DFACE
8
BRANCO
10
73.75
20
-5.33
30
0.67
11
72.5
21
-5
31
0.67
12
72.5
22
-3.96
32
1.46
13
74.27
23
-4.43
33
1.46
0
3DFACE
8
BRANCO
10
74.27
20
-4.43
30
1.46
11
72.5
21
-3.96
31
1.46
12
72.5
22
-3.16
32
2.5
13
74.66
23
-3.75
33
2.5
0
3DFACE
8
BRANCO
10
74.66
20
-3.75
30
2.5
11
72.5
21
-3.16
31
2.5
12
72.5
22
-2.67
32
3.71
13
74.91
23
-3.31
33
3.71
0
3DFACE
8
BRANCO
10
74.91
20
-3.31
30
3.71
11
72.5
21
-2.67
31
3.71
12
72.5
22
-2.5
32
5
13
75
23
-3.16
33
5
0
3DFACE
8
BRANCO
10
75
20
-3.16
30
5
11
72.5
21
-2.5
31
5
12
72.5
22
-2.5
32
42.5
13
75
23
-3.16
33
42.5
0
3DFACE
8
BRANCO
10
75
20
-3.16
30
42.5
11
72.5
21
-2.5
31
42.5
12
72.5
22
-2.41
32
43.15
13
75.04
23
-3.09
33
43.15
0
3DFACE
8
BRANCO
10
75.04
20
-3.09
30
43.15
11
72.5
21
-2.41
31
43.15
12
72.5
22
-2.16
32
43.75
13
75.16
23
-2.87
33
43.75
0
3DFACE
8
BRANCO
10
75.16
20
-2.87
30
43.75
11
72.5
21
-2.16
31
43.75
12
72.5
22
-1.76
32
44.27
13
75.36
23
-2.53
33
44.27
0
3DFACE
8
BRANCO
10
75.36
20
-2.53
30
44.27
11
72.5
21
-1.76
31
44.27
12
72.5
22
-1.25
32
44.67
13
75.62
23
-2.08
33
44.67
0
3DFACE
8
BRANCO
10
75.62
20
-2.08
30
44.67
11
72.5
21
-1.25
31
44.67
12
72.5
22
-0.64
32
44.91
13
75.92
23
-1.56
33
44.91
0
3DFACE
8
BRANCO
10
75.92
20
-1.56
30
44.91
11
72.5
21
-0.64
31
44.91
12
72.5
22
0
32
45
13
76.25
23
-1
33
45
0
3DFACE
8
BRANCO
10
153.79
20
-7.5
30
0.17
11
153.62
21
-6.85
31
0.17
12
154.66
22
-6.25
32
0.67
13
155
23
-7.5
33
0.67
0
3DFACE
8
BRANCO
10
155
20
-7.5
30
0.67
11
154.66
21
-6.25
31
0.67
12
155.56
22
-5.73
32
1.46
13
156.03
23
-7.5
33
1.46
0
3DFACE
8
BRANCO
10
156.03
20
-7.5
30
1.46
11
155.56
21
-5.73
31
1.46
12
156.25
22
-5.33
32
2.5
13
156.83
23
-7.5
33
2.5
0
3DFACE
8
BRANCO
10
156.83
20
-7.5
30
2.5
11
156.25
21
-5.33
31
2.5
12
156.68
22
-5.08
32
3.71
13
157.33
23
-7.5
33
3.71
0
3DFACE
8
BRANCO
10
157.33
20
-7.5
30
3.71
11
156.68
21
-5.08
31
3.71
12
156.83
22
-5
32
5
13
157.5
23
-7.5
33
5
0
3DFACE
8
BRANCO
10
157.5
20
-7.5
30
5
11
156.83
21
-5
31
5
12
156.83
22
-5
32
42.5
13
157.5
23
-7.5
33
42.5
0
3DFACE
8
BRANCO
10
157.5
20
-7.5
30
42.5
11
156.83
21
-5
31
42.5
12
156.9
22
-4.95
32
43.15
13
157.58
23
-7.5
33
43.15
0
3DFACE
8
BRANCO
10
157.58
20
-7.5
30
43.15
11
156.9
21
-4.95
31
43.15
12
157.12
22
-4.83
32
43.75
13
157.83
23
-7.5
33
43.75
0
3DFACE
8
BRANCO
10
157.83
20
-7.5
30
43.75
11
157.12
21
-4.83
31
43.75
12
157.46
22
-4.63
32
44.27
13
158.23
23
-7.5
33
44.27
0
3DFACE
8
BRANCO
10
158.23
20
-7.5
30
44.27
11
157.46
21
-4.63
31
44.27
12
157.91
22
-4.37
32
44.67
13
158.75
23
-7.5
33
44.67
0
3DFACE
8
BRANCO
10
158.75
20
-7.5
30
44.67
11
157.91
21
-4.37
31
44.67
12
158.43
22
-4.07
32
44.91
13
159.35
23
-7.5
33
44.91
0
3DFACE
8
BRANCO
10
159.35
20
-7.5
30
44.91
11
158.43
21
-4.07
31
44.91
12
158.99
22
-3.75
32
45
13
160
23
-7.5
33
45
0
3DFACE
8
BRANCO
10
153.62
20
-6.85
30
0.17
11
153.14
21
-6.37
31
0.17
12
153.75
22
-5.33
32
0.67
13
154.66
23
-6.25
33
0.67
0
3DFACE
8
BRANCO
10
154.66
20
-6.25
30
0.67
11
153.75
21
-5.33
31
0.67
12
154.27
22
-4.43
32
1.46
13
155.56
23
-5.73
33
1.46
0
3DFACE
8
BRANCO
10
155.56
20
-5.73
30
1.46
11
154.27
21
-4.43
31
1.46
12
154.66
22
-3.75
32
2.5
13
156.25
23
-5.33
33
2.5
0
3DFACE
8
BRANCO
10
156.25
20
-5.33
30
2.5
11
154.66
21
-3.75
31
2.5
12
154.91
22
-3.31
32
3.71
13
156.68
23
-5.08
33
3.71
0
3DFACE
8
BRANCO
10
156.68
20
-5.08
30
3.71
11
154.91
21
-3.31
31
3.71
12
155
22
-3.16
32
5
13
156.83
23
-5
33
5
0
3DFACE
8
BRANCO
10
156.83
20
-5
30
5
11
155
21
-3.16
31
5
12
155
22
-3.16
32
42.5
13
156.83
23
-5
33
42.5
0
3DFACE
8
BRANCO
10
156.83
20
-5
30
42.5
11
155
21
-3.16
31
42.5
12
155.04
22
-3.09
32
43.15
13
156.9
23
-4.95
33
43.15
0
3DFACE
8
BRANCO
10
156.9
20
-4.95
30
43.15
11
155.04
21
-3.09
31
43.15
12
155.16
22
-2.87
32
43.75
13
157.12
23
-4.83
33
43.75
0
3DFACE
8
BRANCO
10
157.12
20
-4.83
30
43.75
11
155.16
21
-2.87
31
43.75
12
155.36
22
-2.53
32
44.27
13
157.46
23
-4.63
33
44.27
0
3DFACE
8
BRANCO
10
157.46
20
-4.63
30
44.27
11
155.36
21
-2.53
31
44.27
12
155.62
22
-2.08
32
44.67
13
157.91
23
-4.37
33
44.67
0
3DFACE
8
BRANCO
10
157.91
20
-4.37
30
44.67
11
155.62
21
-2.08
31
44.67
12
155.92
22
-1.56
32
44.91
13
158.43
23
-4.07
33
44.91
0
3DFACE
8
BRANCO
10
158.43
20
-4.07
30
44.91
11
155.92
21
-1.56
31
44.91
12
156.25
22
-1
32
45
13
158.99
23
-3.75
33
45
0
3DFACE
8
BRANCO
10
153.14
20
-6.37
30
0.17
11
152.5
21
-6.2
31
0.17
12
152.5
22
-5
32
0.67
13
153.75
23
-5.33
33
0.67
0
3DFACE
8
BRANCO
10
153.75
20
-5.33
30
0.67
11
152.5
21
-5
31
0.67
12
152.5
22
-3.96
32
1.46
13
154.27
23
-4.43
33
1.46
0
3DFACE
8
BRANCO
10
154.27
20
-4.43
30
1.46
11
152.5
21
-3.96
31
1.46
12
152.5
22
-3.16
32
2.5
13
154.66
23
-3.75
33
2.5
0
3DFACE
8
BRANCO
10
154.66
20
-3.75
30
2.5
11
152.5
21
-3.16
31
2.5
12
152.5
22
-2.67
32
3.71
13
154.91
23
-3.31
33
3.71
0
3DFACE
8
BRANCO
10
154.91
20
-3.31
30
3.71
11
152.5
21
-2.67
31
3.71
12
152.5
22
-2.5
32
5
13
155
23
-3.16
33
5
0
3DFACE
8
BRANCO
10
155
20
-3.16
30
5
11
152.5
21
-2.5
31
5
12
152.5
22
-2.5
32
42.5
13
155
23
-3.16
33
42.5
0
3DFACE
8
BRANCO
10
155
20
-3.16
30
42.5
11
152.5
21
-2.5
31
42.5
12
152.5
22
-2.41
32
43.15
13
155.04
23
-3.09
33
43.15
0
3DFACE
8
BRANCO
10
155.04
20
-3.09
30
43.15
11
152.5
21
-2.41
31
43.15
12
152.5
22
-2.16
32
43.75
13
155.16
23
-2.87
33
43.75
0
3DFACE
8
BRANCO
10
155.16
20
-2.87
30
43.75
11
152.5
21
-2.16
31
43.75
12
152.5
22
-1.76
32
44.27
13
155.36
23
-2.53
33
44.27
0
3DFACE
8
BRANCO
10
155.36
20
-2.53
30
44.27
11
152.5
21
-1.76
31
44.27
12
152.5
22
-1.25
32
44.67
13
155.62
23
-2.08
33
44.67
0
3DFACE
8
BRANCO
10
155.62
20
-2.08
30
44.67
11
152.5
21
-1.25
31
44.67
12
152.5
22
-0.64
32
44.91
13
155.92
23
-1.56
33
44.91
0
3DFACE
8
BRANCO
10
155.92
20
-1.56
30
44.91
11
152.5
21
-0.64
31
44.91
12
152.5
22
0
32
45
13
156.25
23
-1
33
45
0
3DFACE
8
BRANCO
10
231.79
20
-7.5
30
0.17
11
231.62
21
-6.85
31
0.17
12
232.66
22
-6.25
32
0.67
13
233
23
-7.5
33
0.67
0
3DFACE
8
BRANCO
10
233
20
-7.5
30
0.67
11
232.66
21
-6.25
31
0.67
12
233.56
22
-5.73
32
1.46
13
234.03
23
-7.5
33
1.46
0
3DFACE
8
BRANCO
10
234.03
20
-7.5
30
1.46
11
233.56
21
-5.73
31
1.46
12
234.25
22
-5.33
32
2.5
13
234.83
23
-7.5
33
2.5
0
3DFACE
8
BRANCO
10
234.83
20
-7.5
30
2.5
11
234.25
21
-5.33
31
2.5
12
234.68
22
-5.08
32
3.71
13
235.33
23
-7.5
33
3.71
0
3DFACE
8
BRANCO
10
235.33
20
-7.5
30
3.71
11
234.68
21
-5.08
31
3.71
12
234.83
22
-5
32
5
13
235.5
23
-7.5
33
5
0
3DFACE
8
BRANCO
10
235.5
20
-7.5
30
5
11
234.83
21
-5
31
5
12
234.83
22
-5
32
42.5
13
235.5
23
-7.5
33
42.5
0
3DFACE
8
BRANCO
10
235.5
20
-7.5
30
42.5
11
234.83
21
-5
31
42.5
12
234.9
22
-4.95
32
43.15
13
235.58
23
-7.5
33
43.15
0
3DFACE
8
BRANCO
10
235.58
20
-7.5
30
43.15
11
234.9
21
-4.95
31
43.15
12
235.12
22
-4.83
32
43.75
13
235.83
23
-7.5
33
43.75
0
3DFACE
8
BRANCO
10
235.83
20
-7.5
30
43.75
11
235.12
21
-4.83
31
43.75
12
235.46
22
-4.63
32
44.27
13
236.23
23
-7.5
33
44.27
0
3DFACE
8
BRANCO
10
236.23
20
-7.5
30
44.27
11
235.46
21
-4.63
31
44.27
12
235.91
22
-4.37
32
44.67
13
236.75
23
-7.5
33
44.67
0
3DFACE
8
BRANCO
10
236.75
20
-7.5
30
44.67
11
235.91
21
-4.37
31
44.67
12
236.43
22
-4.07
32
44.91
13
237.35
23
-7.5
33
44.91
0
3DFACE
8
BRANCO
10
237.35
20
-7.5
30
44.91
11
236.43
21
-4.07
31
44.91
12
236.99
22
-3.75
32
45
13
238
23
-7.5
33
45
0
3DFACE
8
BRANCO
10
231.62
20
-6.85
30
0.17
11
231.14
21
-6.37
31
0.17
12
231.75
22
-5.33
32
0.67
13
232.66
23
-6.25
33
0.67
0
3DFACE
8
BRANCO
10
232.66
20
-6.25
30
0.67
11
231.75
21
-5.33
31
0.67
12
232.27
22
-4.43
32
1.46
13
233.56
23
-5.73
33
1.46
0
3DFACE
8
BRANCO
10
233.56
20
-5.73
30
1.46
11
232.27
21
-4.43
31
1.46
12
232.66
22
-3.75
32
2.5
13
234.25
23
-5.33
33
2.5
0
3DFACE
8
BRANCO
10
234.25
20
-5.33
30
2.5
11
232.66
21
-3.75
31
2.5
12
232.91
22
-3.31
32
3.71
13
234.68
23
-5.08
33
3.71
0
3DFACE
8
BRANCO
10
234.68
20
-5.08
30
3.71
11
232.91
21
-3.31
31
3.71
12
233
22
-3.16
32
5
13
234.83
23
-5
33
5
0
3DFACE
8
BRANCO
10
234.83
20
-5
30
5
11
233
21
-3.16
31
5
12
233
22
-3.16
32
42.5
13
234.83
23
-5
33
42.5
0
3DFACE
8
BRANCO
10
234.83
20
-5
30
42.5
11
233
21
-3.16
31
42.5
12
233.04
22
-3.09
32
43.15
13
234.9
23
-4.95
33
43.15
0
3DFACE
8
BRANCO
10
234.9
20
-4.95
30
43.15
11
233.04
21
-3.09
31
43.15
12
233.16
22
-2.87
32
43.75
13
235.12
23
-4.83
33
43.75
0
3DFACE
8
BRANCO
10
235.12
20
-4.83
30
43.75
11
233.16
21
-2.87
31
43.75
12
233.36
22
-2.53
32
44.27
13
235.46
23
-4.63
33
44.27
0
3DFACE
8
BRANCO
10
235.46
20
-4.63
30
44.27
11
233.36
21
-2.53
31
44.27
12
233.62
22
-2.08
32
44.67
13
235.91
23
-4.37
33
44.67
0
3DFACE
8
BRANCO
10
235.91
20
-4.37
30
44.67
11
233.62
21
-2.08
31
44.67
12
233.92
22
-1.56
32
44.91
13
236.43
23
-4.07
33
44.91
0
3DFACE
8
BRANCO
10
236.43
20
-4.07
30
44.91
11
233.92
21
-1.56
31
44.91
12
234.25
22
-1
32
45
13
236.99
23
-3.75
33
45
0
3DFACE
8
BRANCO
10
231.14
20
-6.37
30
0.17
11
230.5
21
-6.2
31
0.17
12
230.5
22
-5
32
0.67
13
231.75
23
-5.33
33
0.67
0
3DFACE
8
BRANCO
10
231.75
20
-5.33
30
0.67
11
230.5
21
-5
31
0.67
12
230.5
22
-3.96
32
1.46
13
232.27
23
-4.43
33
1.46
0
3DFACE
8
BRANCO
10
232.27
20
-4.43
30
1.46
11
230.5
21
-3.96
31
1.46
12
230.5
22
-3.16
32
2.5
13
232.66
23
-3.75
33
2.5
0
3DFACE
8
BRANCO
10
232.66
20
-3.75
30
2.5
11
230.5
21
-3.16
31
2.5
12
230.5
22
-2.67
32
3.71
13
232.91
23
-3.31
33
3.71
0
3DFACE
8
BRANCO
10
232.91
20
-3.31
30
3.71
11
230.5
21
-2.67
31
3.71
12
230.5
22
-2.5
32
5
13
233
23
-3.16
33
5
0
3DFACE
8
BRANCO
10
233
20
-3.16
30
5
11
230.5
21
-2.5
31
5
12
230.5
22
-2.5
32
42.5
13
233
23
-3.16
33
42.5
0
3DFACE
8
BRANCO
10
233
20
-3.16
30
42.5
11
230.5
21
-2.5
31
42.5
12
230.5
22
-2.41
32
43.15
13
233.04
23
-3.09
33
43.15
0
3DFACE
8
BRANCO
10
233.04
20
-3.09
30
43.15
11
230.5
21
-2.41
31
43.15
12
230.5
22
-2.16
32
43.75
13
233.16
23
-2.87
33
43.75
0
3DFACE
8
BRANCO
10
233.16
20
-2.87
30
43.75
11
230.5
21
-2.16
31
43.75
12
230.5
22
-1.76
32
44.27
13
233.36
23
-2.53
33
44.27
0
3DFACE
8
BRANCO
10
233.36
20
-2.53
30
44.27
11
230.5
21
-1.76
31
44.27
12
230.5
22
-1.25
32
44.67
13
233.62
23
-2.08
33
44.67
0
3DFACE
8
BRANCO
10
233.62
20
-2.08
30
44.67
11
230.5
21
-1.25
31
44.67
12
230.5
22
-0.64
32
44.91
13
233.92
23
-1.56
33
44.91
0
3DFACE
8
BRANCO
10
233.92
20
-1.56
30
44.91
11
230.5
21
-0.64
31
44.91
12
230.5
22
0
32
45
13
234.25
23
-1
33
45
0
3DFACE
8
BRANCO
10
313.79
20
-7.5
30
0.17
11
313.62
21
-6.85
31
0.17
12
314.66
22
-6.25
32
0.67
13
315
23
-7.5
33
0.67
0
3DFACE
8
BRANCO
10
315
20
-7.5
30
0.67
11
314.66
21
-6.25
31
0.67
12
315.56
22
-5.73
32
1.46
13
316.03
23
-7.5
33
1.46
0
3DFACE
8
BRANCO
10
316.03
20
-7.5
30
1.46
11
315.56
21
-5.73
31
1.46
12
316.25
22
-5.33
32
2.5
13
316.83
23
-7.5
33
2.5
0
3DFACE
8
BRANCO
10
316.83
20
-7.5
30
2.5
11
316.25
21
-5.33
31
2.5
12
316.68
22
-5.08
32
3.71
13
317.33
23
-7.5
33
3.71
0
3DFACE
8
BRANCO
10
317.33
20
-7.5
30
3.71
11
316.68
21
-5.08
31
3.71
12
316.83
22
-5
32
5
13
317.5
23
-7.5
33
5
0
3DFACE
8
BRANCO
10
317.5
20
-7.5
30
5
11
316.83
21
-5
31
5
12
316.83
22
-5
32
42.5
13
317.5
23
-7.5
33
42.5
0
3DFACE
8
BRANCO
10
317.5
20
-7.5
30
42.5
11
316.83
21
-5
31
42.5
12
316.9
22
-4.95
32
43.15
13
317.58
23
-7.5
33
43.15
0
3DFACE
8
BRANCO
10
317.58
20
-7.5
30
43.15
11
316.9
21
-4.95
31
43.15
12
317.12
22
-4.83
32
43.75
13
317.83
23
-7.5
33
43.75
0
3DFACE
8
BRANCO
10
317.83
20
-7.5
30
43.75
11
317.12
21
-4.83
31
43.75
12
317.46
22
-4.63
32
44.27
13
318.23
23
-7.5
33
44.27
0
3DFACE
8
BRANCO
10
318.23
20
-7.5
30
44.27
11
317.46
21
-4.63
31
44.27
12
317.91
22
-4.37
32
44.67
13
318.75
23
-7.5
33
44.67
0
3DFACE
8
BRANCO
10
318.75
20
-7.5
30
44.67
11
317.91
21
-4.37
31
44.67
12
318.43
22
-4.07
32
44.91
13
319.35
23
-7.5
33
44.91
0
3DFACE
8
BRANCO
10
319.35
20
-7.5
30
44.91
11
318.43
21
-4.07
31
44.91
12
318.99
22
-3.75
32
45
13
320
23
-7.5
33
45
0
3DFACE
8
BRANCO
10
313.62
20
-6.85
30
0.17
11
313.14
21
-6.37
31
0.17
12
313.75
22
-5.33
32
0.67
13
314.66
23
-6.25
33
0.67
0
3DFACE
8
BRANCO
10
314.66
20
-6.25
30
0.67
11
313.75
21
-5.33
31
0.67
12
314.27
22
-4.43
32
1.46
13
315.56
23
-5.73
33
1.46
0
3DFACE
8
BRANCO
10
315.56
20
-5.73
30
1.46
11
314.27
21
-4.43
31
1.46
12
314.66
22
-3.75
32
2.5
13
316.25
23
-5.33
33
2.5
0
3DFACE
8
BRANCO
10
316.25
20
-5.33
30
2.5
11
314.66
21
-3.75
31
2.5
12
314.91
22
-3.31
32
3.71
13
316.68
23
-5.08
33
3.71
0
3DFACE
8
BRANCO
10
316.68
20
-5.08
30
3.71
11
314.91
21
-3.31
31
3.71
12
315
22
-3.16
32
5
13
316.83
23
-5
33
5
0
3DFACE
8
BRANCO
10
316.83
20
-5
30
5
11
315
21
-3.16
31
5
12
315
22
-3.16
32
42.5
13
316.83
23
-5
33
42.5
0
3DFACE
8
BRANCO
10
316.83
20
-5
30
42.5
11
315
21
-3.16
31
42.5
12
315.04
22
-3.09
32
43.15
13
316.9
23
-4.95
33
43.15
0
3DFACE
8
BRANCO
10
316.9
20
-4.95
30
43.15
11
315.04
21
-3.09
31
43.15
12
315.16
22
-2.87
32
43.75
13
317.12
23
-4.83
33
43.75
0
3DFACE
8
BRANCO
10
317.12
20
-4.83
30
43.75
11
315.16
21
-2.87
31
43.75
12
315.36
22
-2.53
32
44.27
13
317.46
23
-4.63
33
44.27
0
3DFACE
8
BRANCO
10
317.46
20
-4.63
30
44.27
11
315.36
21
-2.53
31
44.27
12
315.62
22
-2.08
32
44.67
13
317.91
23
-4.37
33
44.67
0
3DFACE
8
BRANCO
10
317.91
20
-4.37
30
44.67
11
315.62
21
-2.08
31
44.67
12
315.92
22
-1.56
32
44.91
13
318.43
23
-4.07
33
44.91
0
3DFACE
8
BRANCO
10
318.43
20
-4.07
30
44.91
11
315.92
21
-1.56
31
44.91
12
316.25
22
-1
32
45
13
318.99
23
-3.75
33
45
0
3DFACE
8
BRANCO
10
313.14
20
-6.37
30
0.17
11
312.5
21
-6.2
31
0.17
12
312.5
22
-5
32
0.67
13
313.75
23
-5.33
33
0.67
0
3DFACE
8
BRANCO
10
313.75
20
-5.33
30
0.67
11
312.5
21
-5
31
0.67
12
312.5
22
-3.96
32
1.46
13
314.27
23
-4.43
33
1.46
0
3DFACE
8
BRANCO
10
314.27
20
-4.43
30
1.46
11
312.5
21
-3.96
31
1.46
12
312.5
22
-3.16
32
2.5
13
314.66
23
-3.75
33
2.5
0
3DFACE
8
BRANCO
10
314.66
20
-3.75
30
2.5
11
312.5
21
-3.16
31
2.5
12
312.5
22
-2.67
32
3.71
13
314.91
23
-3.31
33
3.71
0
3DFACE
8
BRANCO
10
314.91
20
-3.31
30
3.71
11
312.5
21
-2.67
31
3.71
12
312.5
22
-2.5
32
5
13
315
23
-3.16
33
5
0
3DFACE
8
BRANCO
10
315
20
-3.16
30
5
11
312.5
21
-2.5
31
5
12
312.5
22
-2.5
32
42.5
13
315
23
-3.16
33
42.5
0
3DFACE
8
BRANCO
10
315
20
-3.16
30
42.5
11
312.5
21
-2.5
31
42.5
12
312.5
22
-2.41
32
43.15
13
315.04
23
-3.09
33
43.15
0
3DFACE
8
BRANCO
10
315.04
20
-3.09
30
43.15
11
312.5
21
-2.41
31
43.15
12
312.5
22
-2.16
32
43.75
13
315.16
23
-2.87
33
43.75
0
3DFACE
8
BRANCO
10
315.16
20
-2.87
30
43.75
11
312.5
21
-2.16
31
43.75
12
312.5
22
-1.76
32
44.27
13
315.36
23
-2.53
33
44.27
0
3DFACE
8
BRANCO
10
315.36
20
-2.53
30
44.27
11
312.5
21
-1.76
31
44.27
12
312.5
22
-1.25
32
44.67
13
315.62
23
-2.08
33
44.67
0
3DFACE
8
BRANCO
10
315.62
20
-2.08
30
44.67
11
312.5
21
-1.25
31
44.67
12
312.5
22
-0.64
32
44.91
13
315.92
23
-1.56
33
44.91
0
3DFACE
8
BRANCO
10
315.92
20
-1.56
30
44.91
11
312.5
21
-0.64
31
44.91
12
312.5
22
0
32
45
13
316.25
23
-1
33
45
0
3DFACE
8
BRANCO
10
6.2
20
-7.5
30
0.17
11
6.38
21
-6.85
31
0.17
12
5.33
22
-6.25
32
0.67
13
5
23
-7.5
33
0.67
0
3DFACE
8
BRANCO
10
5
20
-7.5
30
0.67
11
5.33
21
-6.25
31
0.67
12
4.44
22
-5.73
32
1.46
13
3.96
23
-7.5
33
1.46
0
3DFACE
8
BRANCO
10
3.96
20
-7.5
30
1.46
11
4.44
21
-5.73
31
1.46
12
3.75
22
-5.33
32
2.5
13
3.17
23
-7.5
33
2.5
0
3DFACE
8
BRANCO
10
3.17
20
-7.5
30
2.5
11
3.75
21
-5.33
31
2.5
12
3.31
22
-5.08
32
3.71
13
2.67
23
-7.5
33
3.71
0
3DFACE
8
BRANCO
10
2.67
20
-7.5
30
3.71
11
3.31
21
-5.08
31
3.71
12
3.17
22
-5
32
5
13
2.5
23
-7.5
33
5
0
3DFACE
8
BRANCO
10
2.5
20
-7.5
30
5
11
3.17
21
-5
31
5
12
3.17
22
-5
32
42.5
13
2.5
23
-7.5
33
42.5
0
3DFACE
8
BRANCO
10
2.5
20
-7.5
30
42.5
11
3.17
21
-5
31
42.5
12
3.09
22
-4.95
32
43.15
13
2.41
23
-7.5
33
43.15
0
3DFACE
8
BRANCO
10
2.41
20
-7.5
30
43.15
11
3.09
21
-4.95
31
43.15
12
2.88
22
-4.83
32
43.75
13
2.16
23
-7.5
33
43.75
0
3DFACE
8
BRANCO
10
2.16
20
-7.5
30
43.75
11
2.88
21
-4.83
31
43.75
12
2.53
22
-4.63
32
44.27
13
1.77
23
-7.5
33
44.27
0
3DFACE
8
BRANCO
10
1.77
20
-7.5
30
44.27
11
2.53
21
-4.63
31
44.27
12
2.08
22
-4.37
32
44.67
13
1.25
23
-7.5
33
44.67
0
3DFACE
8
BRANCO
10
1.25
20
-7.5
30
44.67
11
2.08
21
-4.37
31
44.67
12
1.56
22
-4.07
32
44.91
13
0.64
23
-7.5
33
44.91
0
3DFACE
8
BRANCO
10
0.64
20
-7.5
30
44.91
11
1.56
21
-4.07
31
44.91
12
1
22
-3.75
32
45
13
0
23
-7.5
33
45
0
3DFACE
8
BRANCO
10
6.38
20
-6.85
30
0.17
11
6.85
21
-6.37
31
0.17
12
6.25
22
-5.33
32
0.67
13
5.33
23
-6.25
33
0.67
0
3DFACE
8
BRANCO
10
5.33
20
-6.25
30
0.67
11
6.25
21
-5.33
31
0.67
12
5.73
22
-4.43
32
1.46
13
4.44
23
-5.73
33
1.46
0
3DFACE
8
BRANCO
10
4.44
20
-5.73
30
1.46
11
5.73
21
-4.43
31
1.46
12
5.33
22
-3.75
32
2.5
13
3.75
23
-5.33
33
2.5
0
3DFACE
8
BRANCO
10
3.75
20
-5.33
30
2.5
11
5.33
21
-3.75
31
2.5
12
5.08
22
-3.31
32
3.71
13
3.31
23
-5.08
33
3.71
0
3DFACE
8
BRANCO
10
3.31
20
-5.08
30
3.71
11
5.08
21
-3.31
31
3.71
12
5
22
-3.16
32
5
13
3.17
23
-5
33
5
0
3DFACE
8
BRANCO
10
3.17
20
-5
30
5
11
5
21
-3.16
31
5
12
5
22
-3.16
32
42.5
13
3.17
23
-5
33
42.5
0
3DFACE
8
BRANCO
10
3.17
20
-5
30
42.5
11
5
21
-3.16
31
42.5
12
4.95
22
-3.09
32
43.15
13
3.09
23
-4.95
33
43.15
0
3DFACE
8
BRANCO
10
3.09
20
-4.95
30
43.15
11
4.95
21
-3.09
31
43.15
12
4.83
22
-2.87
32
43.75
13
2.88
23
-4.83
33
43.75
0
3DFACE
8
BRANCO
10
2.88
20
-4.83
30
43.75
11
4.83
21
-2.87
31
43.75
12
4.63
22
-2.53
32
44.27
13
2.53
23
-4.63
33
44.27
0
3DFACE
8
BRANCO
10
2.53
20
-4.63
30
44.27
11
4.63
21
-2.53
31
44.27
12
4.37
22
-2.08
32
44.67
13
2.08
23
-4.37
33
44.67
0
3DFACE
8
BRANCO
10
2.08
20
-4.37
30
44.67
11
4.37
21
-2.08
31
44.67
12
4.07
22
-1.56
32
44.91
13
1.56
23
-4.07
33
44.91
0
3DFACE
8
BRANCO
10
1.56
20
-4.07
30
44.91
11
4.07
21
-1.56
31
44.91
12
3.75
22
-1
32
45
13
1
23
-3.75
33
45
0
3DFACE
8
BRANCO
10
6.85
20
-6.37
30
0.17
11
7.5
21
-6.2
31
0.17
12
7.5
22
-5
32
0.67
13
6.25
23
-5.33
33
0.67
0
3DFACE
8
BRANCO
10
6.25
20
-5.33
30
0.67
11
7.5
21
-5
31
0.67
12
7.5
22
-3.96
32
1.46
13
5.73
23
-4.43
33
1.46
0
3DFACE
8
BRANCO
10
5.73
20
-4.43
30
1.46
11
7.5
21
-3.96
31
1.46
12
7.5
22
-3.16
32
2.5
13
5.33
23
-3.75
33
2.5
0
3DFACE
8
BRANCO
10
5.33
20
-3.75
30
2.5
11
7.5
21
-3.16
31
2.5
12
7.5
22
-2.67
32
3.71
13
5.08
23
-3.31
33
3.71
0
3DFACE
8
BRANCO
10
5.08
20
-3.31
30
3.71
11
7.5
21
-2.67
31
3.71
12
7.5
22
-2.5
32
5
13
5
23
-3.16
33
5
0
3DFACE
8
BRANCO
10
5
20
-3.16
30
5
11
7.5
21
-2.5
31
5
12
7.5
22
-2.5
32
42.5
13
5
23
-3.16
33
42.5
0
3DFACE
8
BRANCO
10
5
20
-3.16
30
42.5
11
7.5
21
-2.5
31
42.5
12
7.5
22
-2.41
32
43.15
13
4.95
23
-3.09
33
43.15
0
3DFACE
8
BRANCO
10
4.95
20
-3.09
30
43.15
11
7.5
21
-2.41
31
43.15
12
7.5
22
-2.16
32
43.75
13
4.83
23
-2.87
33
43.75
0
3DFACE
8
BRANCO
10
4.83
20
-2.87
30
43.75
11
7.5
21
-2.16
31
43.75
12
7.5
22
-1.76
32
44.27
13
4.63
23
-2.53
33
44.27
0
3DFACE
8
BRANCO
10
4.63
20
-2.53
30
44.27
11
7.5
21
-1.76
31
44.27
12
7.5
22
-1.25
32
44.67
13
4.37
23
-2.08
33
44.67
0
3DFACE
8
BRANCO
10
4.37
20
-2.08
30
44.67
11
7.5
21
-1.25
31
44.67
12
7.5
22
-0.64
32
44.91
13
4.07
23
-1.56
33
44.91
0
3DFACE
8
BRANCO
10
4.07
20
-1.56
30
44.91
11
7.5
21
-0.64
31
44.91
12
7.5
22
0
32
45
13
3.75
23
-1
33
45
0
3DFACE
8
BRANCO
10
86.2
20
-7.5
30
0.17
11
86.38
21
-6.85
31
0.17
12
85.33
22
-6.25
32
0.67
13
85
23
-7.5
33
0.67
0
3DFACE
8
BRANCO
10
85
20
-7.5
30
0.67
11
85.33
21
-6.25
31
0.67
12
84.44
22
-5.73
32
1.46
13
83.96
23
-7.5
33
1.46
0
3DFACE
8
BRANCO
10
83.96
20
-7.5
30
1.46
11
84.44
21
-5.73
31
1.46
12
83.75
22
-5.33
32
2.5
13
83.17
23
-7.5
33
2.5
0
3DFACE
8
BRANCO
10
83.17
20
-7.5
30
2.5
11
83.75
21
-5.33
31
2.5
12
83.31001
22
-5.08
32
3.71
13
82.67
23
-7.5
33
3.71
0
3DFACE
8
BRANCO
10
82.67
20
-7.5
30
3.71
11
83.31001
21
-5.08
31
3.71
12
83.17
22
-5
32
5
13
82.5
23
-7.5
33
5
0
3DFACE
8
BRANCO
10
82.5
20
-7.5
30
5
11
83.17
21
-5
31
5
12
83.17
22
-5
32
42.5
13
82.5
23
-7.5
33
42.5
0
3DFACE
8
BRANCO
10
82.5
20
-7.5
30
42.5
11
83.17
21
-5
31
42.5
12
83.09
22
-4.95
32
43.15
13
82.41
23
-7.5
33
43.15
0
3DFACE
8
BRANCO
10
82.41
20
-7.5
30
43.15
11
83.09
21
-4.95
31
43.15
12
82.88
22
-4.83
32
43.75
13
82.16
23
-7.5
33
43.75
0
3DFACE
8
BRANCO
10
82.16
20
-7.5
30
43.75
11
82.88
21
-4.83
31
43.75
12
82.53
22
-4.63
32
44.27
13
81.77
23
-7.5
33
44.27
0
3DFACE
8
BRANCO
10
81.77
20
-7.5
30
44.27
11
82.53
21
-4.63
31
44.27
12
82.08
22
-4.37
32
44.67
13
81.25
23
-7.5
33
44.67
0
3DFACE
8
BRANCO
10
81.25
20
-7.5
30
44.67
11
82.08
21
-4.37
31
44.67
12
81.56
22
-4.07
32
44.91
13
80.64
23
-7.5
33
44.91
0
3DFACE
8
BRANCO
10
80.64
20
-7.5
30
44.91
11
81.56
21
-4.07
31
44.91
12
81
22
-3.75
32
45
13
80
23
-7.5
33
45
0
3DFACE
8
BRANCO
10
86.38
20
-6.85
30
0.17
11
86.85001
21
-6.37
31
0.17
12
86.25
22
-5.33
32
0.67
13
85.33
23
-6.25
33
0.67
0
3DFACE
8
BRANCO
10
85.33
20
-6.25
30
0.67
11
86.25
21
-5.33
31
0.67
12
85.73
22
-4.43
32
1.46
13
84.44
23
-5.73
33
1.46
0
3DFACE
8
BRANCO
10
84.44
20
-5.73
30
1.46
11
85.73
21
-4.43
31
1.46
12
85.33
22
-3.75
32
2.5
13
83.75
23
-5.33
33
2.5
0
3DFACE
8
BRANCO
10
83.75
20
-5.33
30
2.5
11
85.33
21
-3.75
31
2.5
12
85.08
22
-3.31
32
3.71
13
83.31001
23
-5.08
33
3.71
0
3DFACE
8
BRANCO
10
83.31001
20
-5.08
30
3.71
11
85.08
21
-3.31
31
3.71
12
85
22
-3.16
32
5
13
83.17
23
-5
33
5
0
3DFACE
8
BRANCO
10
83.17
20
-5
30
5
11
85
21
-3.16
31
5
12
85
22
-3.16
32
42.5
13
83.17
23
-5
33
42.5
0
3DFACE
8
BRANCO
10
83.17
20
-5
30
42.5
11
85
21
-3.16
31
42.5
12
84.95
22
-3.09
32
43.15
13
83.09
23
-4.95
33
43.15
0
3DFACE
8
BRANCO
10
83.09
20
-4.95
30
43.15
11
84.95
21
-3.09
31
43.15
12
84.83
22
-2.87
32
43.75
13
82.88
23
-4.83
33
43.75
0
3DFACE
8
BRANCO
10
82.88
20
-4.83
30
43.75
11
84.83
21
-2.87
31
43.75
12
84.63
22
-2.53
32
44.27
13
82.53
23
-4.63
33
44.27
0
3DFACE
8
BRANCO
10
82.53
20
-4.63
30
44.27
11
84.63
21
-2.53
31
44.27
12
84.37
22
-2.08
32
44.67
13
82.08
23
-4.37
33
44.67
0
3DFACE
8
BRANCO
10
82.08
20
-4.37
30
44.67
11
84.37
21
-2.08
31
44.67
12
84.07
22
-1.56
32
44.91
13
81.56
23
-4.07
33
44.91
0
3DFACE
8
BRANCO
10
81.56
20
-4.07
30
44.91
11
84.07
21
-1.56
31
44.91
12
83.75
22
-1
32
45
13
81
23
-3.75
33
45
0
3DFACE
8
BRANCO
10
86.85001
20
-6.37
30
0.17
11
87.5
21
-6.2
31
0.17
12
87.5
22
-5
32
0.67
13
86.25
23
-5.33
33
0.67
0
3DFACE
8
BRANCO
10
86.25
20
-5.33
30
0.67
11
87.5
21
-5
31
0.67
12
87.5
22
-3.96
32
1.46
13
85.73
23
-4.43
33
1.46
0
3DFACE
8
BRANCO
10
85.73
20
-4.43
30
1.46
11
87.5
21
-3.96
31
1.46
12
87.5
22
-3.16
32
2.5
13
85.33
23
-3.75
33
2.5
0
3DFACE
8
BRANCO
10
85.33
20
-3.75
30
2.5
11
87.5
21
-3.16
31
2.5
12
87.5
22
-2.67
32
3.71
13
85.08
23
-3.31
33
3.71
0
3DFACE
8
BRANCO
10
85.08
20
-3.31
30
3.71
11
87.5
21
-2.67
31
3.71
12
87.5
22
-2.5
32
5
13
85
23
-3.16
33
5
0
3DFACE
8
BRANCO
10
85
20
-3.16
30
5
11
87.5
21
-2.5
31
5
12
87.5
22
-2.5
32
42.5
13
85
23
-3.16
33
42.5
0
3DFACE
8
BRANCO
10
85
20
-3.16
30
42.5
11
87.5
21
-2.5
31
42.5
12
87.5
22
-2.41
32
43.15
13
84.95
23
-3.09
33
43.15
0
3DFACE
8
BRANCO
10
84.95
20
-3.09
30
43.15
11
87.5
21
-2.41
31
43.15
12
87.5
22
-2.16
32
43.75
13
84.83
23
-2.87
33
43.75
0
3DFACE
8
BRANCO
10
84.83
20
-2.87
30
43.75
11
87.5
21
-2.16
31
43.75
12
87.5
22
-1.76
32
44.27
13
84.63
23
-2.53
33
44.27
0
3DFACE
8
BRANCO
10
84.63
20
-2.53
30
44.27
11
87.5
21
-1.76
31
44.27
12
87.5
22
-1.25
32
44.67
13
84.37
23
-2.08
33
44.67
0
3DFACE
8
BRANCO
10
84.37
20
-2.08
30
44.67
11
87.5
21
-1.25
31
44.67
12
87.5
22
-0.64
32
44.91
13
84.07
23
-1.56
33
44.91
0
3DFACE
8
BRANCO
10
84.07
20
-1.56
30
44.91
11
87.5
21
-0.64
31
44.91
12
87.5
22
0
32
45
13
83.75
23
-1
33
45
0
3DFACE
8
BRANCO
10
166.2
20
-7.5
30
0.17
11
166.38
21
-6.85
31
0.17
12
165.33
22
-6.25
32
0.67
13
165
23
-7.5
33
0.67
0
3DFACE
8
BRANCO
10
165
20
-7.5
30
0.67
11
165.33
21
-6.25
31
0.67
12
164.44
22
-5.73
32
1.46
13
163.96
23
-7.5
33
1.46
0
3DFACE
8
BRANCO
10
163.96
20
-7.5
30
1.46
11
164.44
21
-5.73
31
1.46
12
163.75
22
-5.33
32
2.5
13
163.17
23
-7.5
33
2.5
0
3DFACE
8
BRANCO
10
163.17
20
-7.5
30
2.5
11
163.75
21
-5.33
31
2.5
12
163.31
22
-5.08
32
3.71
13
162.67
23
-7.5
33
3.71
0
3DFACE
8
BRANCO
10
162.67
20
-7.5
30
3.71
11
163.31
21
-5.08
31
3.71
12
163.17
22
-5
32
5
13
162.5
23
-7.5
33
5
0
3DFACE
8
BRANCO
10
162.5
20
-7.5
30
5
11
163.17
21
-5
31
5
12
163.17
22
-5
32
42.5
13
162.5
23
-7.5
33
42.5
0
3DFACE
8
BRANCO
10
162.5
20
-7.5
30
42.5
11
163.17
21
-5
31
42.5
12
163.09
22
-4.95
32
43.15
13
162.41
23
-7.5
33
43.15
0
3DFACE
8
BRANCO
10
162.41
20
-7.5
30
43.15
11
163.09
21
-4.95
31
43.15
12
162.88
22
-4.83
32
43.75
13
162.16
23
-7.5
33
43.75
0
3DFACE
8
BRANCO
10
162.16
20
-7.5
30
43.75
11
162.88
21
-4.83
31
43.75
12
162.53
22
-4.63
32
44.27
13
161.77
23
-7.5
33
44.27
0
3DFACE
8
BRANCO
10
161.77
20
-7.5
30
44.27
11
162.53
21
-4.63
31
44.27
12
162.08
22
-4.37
32
44.67
13
161.25
23
-7.5
33
44.67
0
3DFACE
8
BRANCO
10
161.25
20
-7.5
30
44.67
11
162.08
21
-4.37
31
44.67
12
161.56
22
-4.07
32
44.91
13
160.64
23
-7.5
33
44.91
0
3DFACE
8
BRANCO
10
160.64
20
-7.5
30
44.91
11
161.56
21
-4.07
31
44.91
12
161
22
-3.75
32
45
13
160
23
-7.5
33
45
0
3DFACE
8
BRANCO
10
166.38
20
-6.85
30
0.17
11
166.85
21
-6.37
31
0.17
12
166.25
22
-5.33
32
0.67
13
165.33
23
-6.25
33
0.67
0
3DFACE
8
BRANCO
10
165.33
20
-6.25
30
0.67
11
166.25
21
-5.33
31
0.67
12
165.73
22
-4.43
32
1.46
13
164.44
23
-5.73
33
1.46
0
3DFACE
8
BRANCO
10
164.44
20
-5.73
30
1.46
11
165.73
21
-4.43
31
1.46
12
165.33
22
-3.75
32
2.5
13
163.75
23
-5.33
33
2.5
0
3DFACE
8
BRANCO
10
163.75
20
-5.33
30
2.5
11
165.33
21
-3.75
31
2.5
12
165.08
22
-3.31
32
3.71
13
163.31
23
-5.08
33
3.71
0
3DFACE
8
BRANCO
10
163.31
20
-5.08
30
3.71
11
165.08
21
-3.31
31
3.71
12
165
22
-3.16
32
5
13
163.17
23
-5
33
5
0
3DFACE
8
BRANCO
10
163.17
20
-5
30
5
11
165
21
-3.16
31
5
12
165
22
-3.16
32
42.5
13
163.17
23
-5
33
42.5
0
3DFACE
8
BRANCO
10
163.17
20
-5
30
42.5
11
165
21
-3.16
31
42.5
12
164.95
22
-3.09
32
43.15
13
163.09
23
-4.95
33
43.15
0
3DFACE
8
BRANCO
10
163.09
20
-4.95
30
43.15
11
164.95
21
-3.09
31
43.15
12
164.83
22
-2.87
32
43.75
13
162.88
23
-4.83
33
43.75
0
3DFACE
8
BRANCO
10
162.88
20
-4.83
30
43.75
11
164.83
21
-2.87
31
43.75
12
164.63
22
-2.53
32
44.27
13
162.53
23
-4.63
33
44.27
0
3DFACE
8
BRANCO
10
162.53
20
-4.63
30
44.27
11
164.63
21
-2.53
31
44.27
12
164.37
22
-2.08
32
44.67
13
162.08
23
-4.37
33
44.67
0
3DFACE
8
BRANCO
10
162.08
20
-4.37
30
44.67
11
164.37
21
-2.08
31
44.67
12
164.07
22
-1.56
32
44.91
13
161.56
23
-4.07
33
44.91
0
3DFACE
8
BRANCO
10
161.56
20
-4.07
30
44.91
11
164.07
21
-1.56
31
44.91
12
163.75
22
-1
32
45
13
161
23
-3.75
33
45
0
3DFACE
8
BRANCO
10
166.85
20
-6.37
30
0.17
11
167.5
21
-6.2
31
0.17
12
167.5
22
-5
32
0.67
13
166.25
23
-5.33
33
0.67
0
3DFACE
8
BRANCO
10
166.25
20
-5.33
30
0.67
11
167.5
21
-5
31
0.67
12
167.5
22
-3.96
32
1.46
13
165.73
23
-4.43
33
1.46
0
3DFACE
8
BRANCO
10
165.73
20
-4.43
30
1.46
11
167.5
21
-3.96
31
1.46
12
167.5
22
-3.16
32
2.5
13
165.33
23
-3.75
33
2.5
0
3DFACE
8
BRANCO
10
165.33
20
-3.75
30
2.5
11
167.5
21
-3.16
31
2.5
12
167.5
22
-2.67
32
3.71
13
165.08
23
-3.31
33
3.71
0
3DFACE
8
BRANCO
10
165.08
20
-3.31
30
3.71
11
167.5
21
-2.67
31
3.71
12
167.5
22
-2.5
32
5
13
165
23
-3.16
33
5
0
3DFACE
8
BRANCO
10
165
20
-3.16
30
5
11
167.5
21
-2.5
31
5
12
167.5
22
-2.5
32
42.5
13
165
23
-3.16
33
42.5
0
3DFACE
8
BRANCO
10
165
20
-3.16
30
42.5
11
167.5
21
-2.5
31
42.5
12
167.5
22
-2.41
32
43.15
13
164.95
23
-3.09
33
43.15
0
3DFACE
8
BRANCO
10
164.95
20
-3.09
30
43.15
11
167.5
21
-2.41
31
43.15
12
167.5
22
-2.16
32
43.75
13
164.83
23
-2.87
33
43.75
0
3DFACE
8
BRANCO
10
164.83
20
-2.87
30
43.75
11
167.5
21
-2.16
31
43.75
12
167.5
22
-1.76
32
44.27
13
164.63
23
-2.53
33
44.27
0
3DFACE
8
BRANCO
10
164.63
20
-2.53
30
44.27
11
167.5
21
-1.76
31
44.27
12
167.5
22
-1.25
32
44.67
13
164.37
23
-2.08
33
44.67
0
3DFACE
8
BRANCO
10
164.37
20
-2.08
30
44.67
11
167.5
21
-1.25
31
44.67
12
167.5
22
-0.64
32
44.91
13
164.07
23
-1.56
33
44.91
0
3DFACE
8
BRANCO
10
164.07
20
-1.56
30
44.91
11
167.5
21
-0.64
31
44.91
12
167.5
22
0
32
45
13
163.75
23
-1
33
45
0
3DFACE
8
BRANCO
10
244.2
20
-7.5
30
0.17
11
244.38
21
-6.85
31
0.17
12
243.33
22
-6.25
32
0.67
13
243
23
-7.5
33
0.67
0
3DFACE
8
BRANCO
10
243
20
-7.5
30
0.67
11
243.33
21
-6.25
31
0.67
12
242.44
22
-5.73
32
1.46
13
241.96
23
-7.5
33
1.46
0
3DFACE
8
BRANCO
10
241.96
20
-7.5
30
1.46
11
242.44
21
-5.73
31
1.46
12
241.75
22
-5.33
32
2.5
13
241.17
23
-7.5
33
2.5
0
3DFACE
8
BRANCO
10
241.17
20
-7.5
30
2.5
11
241.75
21
-5.33
31
2.5
12
241.31
22
-5.08
32
3.71
13
240.67
23
-7.5
33
3.71
0
3DFACE
8
BRANCO
10
240.67
20
-7.5
30
3.71
11
241.31
21
-5.08
31
3.71
12
241.17
22
-5
32
5
13
240.5
23
-7.5
33
5
0
3DFACE
8
BRANCO
10
240.5
20
-7.5
30
5
11
241.17
21
-5
31
5
12
241.17
22
-5
32
42.5
13
240.5
23
-7.5
33
42.5
0
3DFACE
8
BRANCO
10
240.5
20
-7.5
30
42.5
11
241.17
21
-5
31
42.5
12
241.09
22
-4.95
32
43.15
13
240.41
23
-7.5
33
43.15
0
3DFACE
8
BRANCO
10
240.41
20
-7.5
30
43.15
11
241.09
21
-4.95
31
43.15
12
240.88
22
-4.83
32
43.75
13
240.16
23
-7.5
33
43.75
0
3DFACE
8
BRANCO
10
240.16
20
-7.5
30
43.75
11
240.88
21
-4.83
31
43.75
12
240.53
22
-4.63
32
44.27
13
239.77
23
-7.5
33
44.27
0
3DFACE
8
BRANCO
10
239.77
20
-7.5
30
44.27
11
240.53
21
-4.63
31
44.27
12
240.08
22
-4.37
32
44.67
13
239.25
23
-7.5
33
44.67
0
3DFACE
8
BRANCO
10
239.25
20
-7.5
30
44.67
11
240.08
21
-4.37
31
44.67
12
239.56
22
-4.07
32
44.91
13
238.64
23
-7.5
33
44.91
0
3DFACE
8
BRANCO
10
238.64
20
-7.5
30
44.91
11
239.56
21
-4.07
31
44.91
12
239
22
-3.75
32
45
13
238
23
-7.5
33
45
0
3DFACE
8
BRANCO
10
244.38
20
-6.85
30
0.17
11
244.85
21
-6.37
31
0.17
12
244.25
22
-5.33
32
0.67
13
243.33
23
-6.25
33
0.67
0
3DFACE
8
BRANCO
10
243.33
20
-6.25
30
0.67
11
244.25
21
-5.33
31
0.67
12
243.73
22
-4.43
32
1.46
13
242.44
23
-5.73
33
1.46
0
3DFACE
8
BRANCO
10
242.44
20
-5.73
30
1.46
11
243.73
21
-4.43
31
1.46
12
243.33
22
-3.75
32
2.5
13
241.75
23
-5.33
33
2.5
0
3DFACE
8
BRANCO
10
241.75
20
-5.33
30
2.5
11
243.33
21
-3.75
31
2.5
12
243.08
22
-3.31
32
3.71
13
241.31
23
-5.08
33
3.71
0
3DFACE
8
BRANCO
10
241.31
20
-5.08
30
3.71
11
243.08
21
-3.31
31
3.71
12
243
22
-3.16
32
5
13
241.17
23
-5
33
5
0
3DFACE
8
BRANCO
10
241.17
20
-5
30
5
11
243
21
-3.16
31
5
12
243
22
-3.16
32
42.5
13
241.17
23
-5
33
42.5
0
3DFACE
8
BRANCO
10
241.17
20
-5
30
42.5
11
243
21
-3.16
31
42.5
12
242.95
22
-3.09
32
43.15
13
241.09
23
-4.95
33
43.15
0
3DFACE
8
BRANCO
10
241.09
20
-4.95
30
43.15
11
242.95
21
-3.09
31
43.15
12
242.83
22
-2.87
32
43.75
13
240.88
23
-4.83
33
43.75
0
3DFACE
8
BRANCO
10
240.88
20
-4.83
30
43.75
11
242.83
21
-2.87
31
43.75
12
242.63
22
-2.53
32
44.27
13
240.53
23
-4.63
33
44.27
0
3DFACE
8
BRANCO
10
240.53
20
-4.63
30
44.27
11
242.63
21
-2.53
31
44.27
12
242.37
22
-2.08
32
44.67
13
240.08
23
-4.37
33
44.67
0
3DFACE
8
BRANCO
10
240.08
20
-4.37
30
44.67
11
242.37
21
-2.08
31
44.67
12
242.07
22
-1.56
32
44.91
13
239.56
23
-4.07
33
44.91
0
3DFACE
8
BRANCO
10
239.56
20
-4.07
30
44.91
11
242.07
21
-1.56
31
44.91
12
241.75
22
-1
32
45
13
239
23
-3.75
33
45
0
3DFACE
8
BRANCO
10
244.85
20
-6.37
30
0.17
11
245.5
21
-6.2
31
0.17
12
245.5
22
-5
32
0.67
13
244.25
23
-5.33
33
0.67
0
3DFACE
8
BRANCO
10
244.25
20
-5.33
30
0.67
11
245.5
21
-5
31
0.67
12
245.5
22
-3.96
32
1.46
13
243.73
23
-4.43
33
1.46
0
3DFACE
8
BRANCO
10
243.73
20
-4.43
30
1.46
11
245.5
21
-3.96
31
1.46
12
245.5
22
-3.16
32
2.5
13
243.33
23
-3.75
33
2.5
0
3DFACE
8
BRANCO
10
243.33
20
-3.75
30
2.5
11
245.5
21
-3.16
31
2.5
12
245.5
22
-2.67
32
3.71
13
243.08
23
-3.31
33
3.71
0
3DFACE
8
BRANCO
10
243.08
20
-3.31
30
3.71
11
245.5
21
-2.67
31
3.71
12
245.5
22
-2.5
32
5
13
243
23
-3.16
33
5
0
3DFACE
8
BRANCO
10
243
20
-3.16
30
5
11
245.5
21
-2.5
31
5
12
245.5
22
-2.5
32
42.5
13
243
23
-3.16
33
42.5
0
3DFACE
8
BRANCO
10
243
20
-3.16
30
42.5
11
245.5
21
-2.5
31
42.5
12
245.5
22
-2.41
32
43.15
13
242.95
23
-3.09
33
43.15
0
3DFACE
8
BRANCO
10
242.95
20
-3.09
30
43.15
11
245.5
21
-2.41
31
43.15
12
245.5
22
-2.16
32
43.75
13
242.83
23
-2.87
33
43.75
0
3DFACE
8
BRANCO
10
242.83
20
-2.87
30
43.75
11
245.5
21
-2.16
31
43.75
12
245.5
22
-1.76
32
44.27
13
242.63
23
-2.53
33
44.27
0
3DFACE
8
BRANCO
10
242.63
20
-2.53
30
44.27
11
245.5
21
-1.76
31
44.27
12
245.5
22
-1.25
32
44.67
13
242.37
23
-2.08
33
44.67
0
3DFACE
8
BRANCO
10
242.37
20
-2.08
30
44.67
11
245.5
21
-1.25
31
44.67
12
245.5
22
-0.64
32
44.91
13
242.07
23
-1.56
33
44.91
0
3DFACE
8
BRANCO
10
242.07
20
-1.56
30
44.91
11
245.5
21
-0.64
31
44.91
12
245.5
22
0
32
45
13
241.75
23
-1
33
45
0
3DFACE
8
BRANCO
10
0
20
-7.5
30
45
11
0
21
-289.5
31
45
12
1.25
22
-289.5
32
44.67
13
1.25
23
-7.5
33
44.67
0
3DFACE
8
BRANCO
10
1.25
20
-7.5
30
44.67
11
1.25
21
-289.5
31
44.67
12
2.16
22
-289.5
32
43.75
13
2.16
23
-7.5
33
43.75
0
3DFACE
8
BRANCO
10
2.16
20
-7.5
30
43.75
11
2.16
21
-289.5
31
43.75
12
2.5
22
-289.5
32
42.5
13
2.5
23
-7.5
33
42.5
0
3DFACE
8
BRANCO
10
2.5
20
-7.5
30
42.5
11
2.5
21
-289.5
31
42.5
12
2.5
22
-289.5
32
5
13
2.5
23
-7.5
33
5
0
3DFACE
8
BRANCO
10
2.5
20
-7.5
30
5
11
2.5
21
-289.5
31
5
12
3.17
22
-289.5
32
2.5
13
3.17
23
-7.5
33
2.5
0
3DFACE
8
BRANCO
10
3.17
20
-7.5
30
2.5
11
3.17
21
-289.5
31
2.5
12
5
22
-289.5
32
0.67
13
5
23
-7.5
33
0.67
0
3DFACE
8
BRANCO
10
5
20
-7.5
30
0.67
11
5
21
-289.5
31
0.67
12
7.5
22
-289.5
32
0
13
7.5
23
-7.5
33
0
0
3DFACE
8
BRANCO
10
6.2
20
-289.5
30
0.17
11
6.38
21
-290.14
31
0.17
12
5.33
22
-290.75
32
0.67
13
5
23
-289.5
33
0.67
0
3DFACE
8
BRANCO
10
5
20
-289.5
30
0.67
11
5.33
21
-290.75
31
0.67
12
4.44
22
-291.26
32
1.46
13
3.96
23
-289.5
33
1.46
0
3DFACE
8
BRANCO
10
3.96
20
-289.5
30
1.46
11
4.44
21
-291.26
31
1.46
12
3.75
22
-291.66
32
2.5
13
3.17
23
-289.5
33
2.5
0
3DFACE
8
BRANCO
10
3.17
20
-289.5
30
2.5
11
3.75
21
-291.66
31
2.5
12
3.31
22
-291.91
32
3.71
13
2.67
23
-289.5
33
3.71
0
3DFACE
8
BRANCO
10
2.67
20
-289.5
30
3.71
11
3.31
21
-291.91
31
3.71
12
3.17
22
-292
32
5
13
2.5
23
-289.5
33
5
0
3DFACE
8
BRANCO
10
2.5
20
-289.5
30
5
11
3.17
21
-292
31
5
12
3.17
22
-292
32
42.5
13
2.5
23
-289.5
33
42.5
0
3DFACE
8
BRANCO
10
2.5
20
-289.5
30
42.5
11
3.17
21
-292
31
42.5
12
3.09
22
-292.04
32
43.15
13
2.41
23
-289.5
33
43.15
0
3DFACE
8
BRANCO
10
2.41
20
-289.5
30
43.15
11
3.09
21
-292.04
31
43.15
12
2.88
22
-292.16
32
43.75
13
2.16
23
-289.5
33
43.75
0
3DFACE
8
BRANCO
10
2.16
20
-289.5
30
43.75
11
2.88
21
-292.16
31
43.75
12
2.53
22
-292.36
32
44.27
13
1.77
23
-289.5
33
44.27
0
3DFACE
8
BRANCO
10
1.77
20
-289.5
30
44.27
11
2.53
21
-292.36
31
44.27
12
2.08
22
-292.62
32
44.67
13
1.25
23
-289.5
33
44.67
0
3DFACE
8
BRANCO
10
1.25
20
-289.5
30
44.67
11
2.08
21
-292.62
31
44.67
12
1.56
22
-292.92
32
44.91
13
0.64
23
-289.5
33
44.91
0
3DFACE
8
BRANCO
10
0.64
20
-289.5
30
44.91
11
1.56
21
-292.92
31
44.91
12
1
22
-293.25
32
45
13
0
23
-289.5
33
45
0
3DFACE
8
BRANCO
10
6.38
20
-290.14
30
0.17
11
6.85
21
-290.62
31
0.17
12
6.25
22
-291.66
32
0.67
13
5.33
23
-290.75
33
0.67
0
3DFACE
8
BRANCO
10
5.33
20
-290.75
30
0.67
11
6.25
21
-291.66
31
0.67
12
5.73
22
-292.56
32
1.46
13
4.44
23
-291.26
33
1.46
0
3DFACE
8
BRANCO
10
4.44
20
-291.26
30
1.46
11
5.73
21
-292.56
31
1.46
12
5.33
22
-293.25
32
2.5
13
3.75
23
-291.66
33
2.5
0
3DFACE
8
BRANCO
10
3.75
20
-291.66
30
2.5
11
5.33
21
-293.25
31
2.5
12
5.08
22
-293.68
32
3.71
13
3.31
23
-291.91
33
3.71
0
3DFACE
8
BRANCO
10
3.31
20
-291.91
30
3.71
11
5.08
21
-293.68
31
3.71
12
5
22
-293.83
32
5
13
3.17
23
-292
33
5
0
3DFACE
8
BRANCO
10
3.17
20
-292
30
5
11
5
21
-293.83
31
5
12
5
22
-293.83
32
42.5
13
3.17
23
-292
33
42.5
0
3DFACE
8
BRANCO
10
3.17
20
-292
30
42.5
11
5
21
-293.83
31
42.5
12
4.95
22
-293.9
32
43.15
13
3.09
23
-292.04
33
43.15
0
3DFACE
8
BRANCO
10
3.09
20
-292.04
30
43.15
11
4.95
21
-293.9
31
43.15
12
4.83
22
-294.12
32
43.75
13
2.88
23
-292.16
33
43.75
0
3DFACE
8
BRANCO
10
2.88
20
-292.16
30
43.75
11
4.83
21
-294.12
31
43.75
12
4.63
22
-294.46
32
44.27
13
2.53
23
-292.36
33
44.27
0
3DFACE
8
BRANCO
10
2.53
20
-292.36
30
44.27
11
4.63
21
-294.46
31
44.27
12
4.37
22
-294.91
32
44.67
13
2.08
23
-292.62
33
44.67
0
3DFACE
8
BRANCO
10
2.08
20
-292.62
30
44.67
11
4.37
21
-294.91
31
44.67
12
4.07
22
-295.43
32
44.91
13
1.56
23
-292.92
33
44.91
0
3DFACE
8
BRANCO
10
1.56
20
-292.92
30
44.91
11
4.07
21
-295.43
31
44.91
12
3.75
22
-295.99
32
45
13
1
23
-293.25
33
45
0
3DFACE
8
BRANCO
10
6.85
20
-290.62
30
0.17
11
7.5
21
-290.79
31
0.17
12
7.5
22
-292
32
0.67
13
6.25
23
-291.66
33
0.67
0
3DFACE
8
BRANCO
10
6.25
20
-291.66
30
0.67
11
7.5
21
-292
31
0.67
12
7.5
22
-293.03
32
1.46
13
5.73
23
-292.56
33
1.46
0
3DFACE
8
BRANCO
10
5.73
20
-292.56
30
1.46
11
7.5
21
-293.03
31
1.46
12
7.5
22
-293.83
32
2.5
13
5.33
23
-293.25
33
2.5
0
3DFACE
8
BRANCO
10
5.33
20
-293.25
30
2.5
11
7.5
21
-293.83
31
2.5
12
7.5
22
-294.32
32
3.71
13
5.08
23
-293.68
33
3.71
0
3DFACE
8
BRANCO
10
5.08
20
-293.68
30
3.71
11
7.5
21
-294.32
31
3.71
12
7.5
22
-294.5
32
5
13
5
23
-293.83
33
5
0
3DFACE
8
BRANCO
10
5
20
-293.83
30
5
11
7.5
21
-294.5
31
5
12
7.5
22
-294.5
32
42.5
13
5
23
-293.83
33
42.5
0
3DFACE
8
BRANCO
10
5
20
-293.83
30
42.5
11
7.5
21
-294.5
31
42.5
12
7.5
22
-294.58
32
43.15
13
4.95
23
-293.9
33
43.15
0
3DFACE
8
BRANCO
10
4.95
20
-293.9
30
43.15
11
7.5
21
-294.58
31
43.15
12
7.5
22
-294.83
32
43.75
13
4.83
23
-294.12
33
43.75
0
3DFACE
8
BRANCO
10
4.83
20
-294.12
30
43.75
11
7.5
21
-294.83
31
43.75
12
7.5
22
-295.23
32
44.27
13
4.63
23
-294.46
33
44.27
0
3DFACE
8
BRANCO
10
4.63
20
-294.46
30
44.27
11
7.5
21
-295.23
31
44.27
12
7.5
22
-295.75
32
44.67
13
4.37
23
-294.91
33
44.67
0
3DFACE
8
BRANCO
10
4.37
20
-294.91
30
44.67
11
7.5
21
-295.75
31
44.67
12
7.5
22
-296.35
32
44.91
13
4.07
23
-295.43
33
44.91
0
3DFACE
8
BRANCO
10
4.07
20
-295.43
30
44.91
11
7.5
21
-296.35
31
44.91
12
7.5
22
-297
32
45
13
3.75
23
-295.99
33
45
0
3DFACE
8
BRANCO
10
73.78999
20
-289.5
30
0.17
11
73.62
21
-290.14
31
0.17
12
74.66
22
-290.75
32
0.67
13
75
23
-289.5
33
0.67
0
3DFACE
8
BRANCO
10
75
20
-289.5
30
0.67
11
74.66
21
-290.75
31
0.67
12
75.56
22
-291.26
32
1.46
13
76.03
23
-289.5
33
1.46
0
3DFACE
8
BRANCO
10
76.03
20
-289.5
30
1.46
11
75.56
21
-291.26
31
1.46
12
76.25
22
-291.66
32
2.5
13
76.83
23
-289.5
33
2.5
0
3DFACE
8
BRANCO
10
76.83
20
-289.5
30
2.5
11
76.25
21
-291.66
31
2.5
12
76.68
22
-291.91
32
3.71
13
77.33
23
-289.5
33
3.71
0
3DFACE
8
BRANCO
10
77.33
20
-289.5
30
3.71
11
76.68
21
-291.91
31
3.71
12
76.83
22
-292
32
5
13
77.5
23
-289.5
33
5
0
3DFACE
8
BRANCO
10
77.5
20
-289.5
30
5
11
76.83
21
-292
31
5
12
76.83
22
-292
32
42.5
13
77.5
23
-289.5
33
42.5
0
3DFACE
8
BRANCO
10
77.5
20
-289.5
30
42.5
11
76.83
21
-292
31
42.5
12
76.9
22
-292.04
32
43.15
13
77.58
23
-289.5
33
43.15
0
3DFACE
8
BRANCO
10
77.58
20
-289.5
30
43.15
11
76.9
21
-292.04
31
43.15
12
77.12
22
-292.16
32
43.75
13
77.83
23
-289.5
33
43.75
0
3DFACE
8
BRANCO
10
77.83
20
-289.5
30
43.75
11
77.12
21
-292.16
31
43.75
12
77.46001
22
-292.36
32
44.27
13
78.23
23
-289.5
33
44.27
0
3DFACE
8
BRANCO
10
78.23
20
-289.5
30
44.27
11
77.46001
21
-292.36
31
44.27
12
77.91
22
-292.62
32
44.67
13
78.75
23
-289.5
33
44.67
0
3DFACE
8
BRANCO
10
78.75
20
-289.5
30
44.67
11
77.91
21
-292.62
31
44.67
12
78.43
22
-292.92
32
44.91
13
79.35001
23
-289.5
33
44.91
0
3DFACE
8
BRANCO
10
79.35001
20
-289.5
30
44.91
11
78.43
21
-292.92
31
44.91
12
78.99001
22
-293.25
32
45
13
80
23
-289.5
33
45
0
3DFACE
8
BRANCO
10
73.62
20
-290.14
30
0.17
11
73.14
21
-290.62
31
0.17
12
73.75
22
-291.66
32
0.67
13
74.66
23
-290.75
33
0.67
0
3DFACE
8
BRANCO
10
74.66
20
-290.75
30
0.67
11
73.75
21
-291.66
31
0.67
12
74.27
22
-292.56
32
1.46
13
75.56
23
-291.26
33
1.46
0
3DFACE
8
BRANCO
10
75.56
20
-291.26
30
1.46
11
74.27
21
-292.56
31
1.46
12
74.66
22
-293.25
32
2.5
13
76.25
23
-291.66
33
2.5
0
3DFACE
8
BRANCO
10
76.25
20
-291.66
30
2.5
11
74.66
21
-293.25
31
2.5
12
74.91
22
-293.68
32
3.71
13
76.68
23
-291.91
33
3.71
0
3DFACE
8
BRANCO
10
76.68
20
-291.91
30
3.71
11
74.91
21
-293.68
31
3.71
12
75
22
-293.83
32
5
13
76.83
23
-292
33
5
0
3DFACE
8
BRANCO
10
76.83
20
-292
30
5
11
75
21
-293.83
31
5
12
75
22
-293.83
32
42.5
13
76.83
23
-292
33
42.5
0
3DFACE
8
BRANCO
10
76.83
20
-292
30
42.5
11
75
21
-293.83
31
42.5
12
75.04
22
-293.9
32
43.15
13
76.9
23
-292.04
33
43.15
0
3DFACE
8
BRANCO
10
76.9
20
-292.04
30
43.15
11
75.04
21
-293.9
31
43.15
12
75.16
22
-294.12
32
43.75
13
77.12
23
-292.16
33
43.75
0
3DFACE
8
BRANCO
10
77.12
20
-292.16
30
43.75
11
75.16
21
-294.12
31
43.75
12
75.36
22
-294.46
32
44.27
13
77.46001
23
-292.36
33
44.27
0
3DFACE
8
BRANCO
10
77.46001
20
-292.36
30
44.27
11
75.36
21
-294.46
31
44.27
12
75.62
22
-294.91
32
44.67
13
77.91
23
-292.62
33
44.67
0
3DFACE
8
BRANCO
10
77.91
20
-292.62
30
44.67
11
75.62
21
-294.91
31
44.67
12
75.92
22
-295.43
32
44.91
13
78.43
23
-292.92
33
44.91
0
3DFACE
8
BRANCO
10
78.43
20
-292.92
30
44.91
11
75.92
21
-295.43
31
44.91
12
76.25
22
-295.99
32
45
13
78.99001
23
-293.25
33
45
0
3DFACE
8
BRANCO
10
73.14
20
-290.62
30
0.17
11
72.5
21
-290.79
31
0.17
12
72.5
22
-292
32
0.67
13
73.75
23
-291.66
33
0.67
0
3DFACE
8
BRANCO
10
73.75
20
-291.66
30
0.67
11
72.5
21
-292
31
0.67
12
72.5
22
-293.03
32
1.46
13
74.27
23
-292.56
33
1.46
0
3DFACE
8
BRANCO
10
74.27
20
-292.56
30
1.46
11
72.5
21
-293.03
31
1.46
12
72.5
22
-293.83
32
2.5
13
74.66
23
-293.25
33
2.5
0
3DFACE
8
BRANCO
10
74.66
20
-293.25
30
2.5
11
72.5
21
-293.83
31
2.5
12
72.5
22
-294.32
32
3.71
13
74.91
23
-293.68
33
3.71
0
3DFACE
8
BRANCO
10
74.91
20
-293.68
30
3.71
11
72.5
21
-294.32
31
3.71
12
72.5
22
-294.5
32
5
13
75
23
-293.83
33
5
0
3DFACE
8
BRANCO
10
75
20
-293.83
30
5
11
72.5
21
-294.5
31
5
12
72.5
22
-294.5
32
42.5
13
75
23
-293.83
33
42.5
0
3DFACE
8
BRANCO
10
75
20
-293.83
30
42.5
11
72.5
21
-294.5
31
42.5
12
72.5
22
-294.58
32
43.15
13
75.04
23
-293.9
33
43.15
0
3DFACE
8
BRANCO
10
75.04
20
-293.9
30
43.15
11
72.5
21
-294.58
31
43.15
12
72.5
22
-294.83
32
43.75
13
75.16
23
-294.12
33
43.75
0
3DFACE
8
BRANCO
10
75.16
20
-294.12
30
43.75
11
72.5
21
-294.83
31
43.75
12
72.5
22
-295.23
32
44.27
13
75.36
23
-294.46
33
44.27
0
3DFACE
8
BRANCO
10
75.36
20
-294.46
30
44.27
11
72.5
21
-295.23
31
44.27
12
72.5
22
-295.75
32
44.67
13
75.62
23
-294.91
33
44.67
0
3DFACE
8
BRANCO
10
75.62
20
-294.91
30
44.67
11
72.5
21
-295.75
31
44.67
12
72.5
22
-296.35
32
44.91
13
75.92
23
-295.43
33
44.91
0
3DFACE
8
BRANCO
10
75.92
20
-295.43
30
44.91
11
72.5
21
-296.35
31
44.91
12
72.5
22
-297
32
45
13
76.25
23
-295.99
33
45
0
3DFACE
8
BRANCO
10
166.2
20
-289.5
30
0.17
11
166.38
21
-290.14
31
0.17
12
165.33
22
-290.75
32
0.67
13
165
23
-289.5
33
0.67
0
3DFACE
8
BRANCO
10
165
20
-289.5
30
0.67
11
165.33
21
-290.75
31
0.67
12
164.44
22
-291.26
32
1.46
13
163.96
23
-289.5
33
1.46
0
3DFACE
8
BRANCO
10
163.96
20
-289.5
30
1.46
11
164.44
21
-291.26
31
1.46
12
163.75
22
-291.66
32
2.5
13
163.17
23
-289.5
33
2.5
0
3DFACE
8
BRANCO
10
163.17
20
-289.5
30
2.5
11
163.75
21
-291.66
31
2.5
12
163.31
22
-291.91
32
3.71
13
162.67
23
-289.5
33
3.71
0
3DFACE
8
BRANCO
10
162.67
20
-289.5
30
3.71
11
163.31
21
-291.91
31
3.71
12
163.17
22
-292
32
5
13
162.5
23
-289.5
33
5
0
3DFACE
8
BRANCO
10
162.5
20
-289.5
30
5
11
163.17
21
-292
31
5
12
163.17
22
-292
32
42.5
13
162.5
23
-289.5
33
42.5
0
3DFACE
8
BRANCO
10
162.5
20
-289.5
30
42.5
11
163.17
21
-292
31
42.5
12
163.09
22
-292.04
32
43.15
13
162.41
23
-289.5
33
43.15
0
3DFACE
8
BRANCO
10
162.41
20
-289.5
30
43.15
11
163.09
21
-292.04
31
43.15
12
162.88
22
-292.16
32
43.75
13
162.16
23
-289.5
33
43.75
0
3DFACE
8
BRANCO
10
162.16
20
-289.5
30
43.75
11
162.88
21
-292.16
31
43.75
12
162.53
22
-292.36
32
44.27
13
161.77
23
-289.5
33
44.27
0
3DFACE
8
BRANCO
10
161.77
20
-289.5
30
44.27
11
162.53
21
-292.36
31
44.27
12
162.08
22
-292.62
32
44.67
13
161.25
23
-289.5
33
44.67
0
3DFACE
8
BRANCO
10
161.25
20
-289.5
30
44.67
11
162.08
21
-292.62
31
44.67
12
161.56
22
-292.92
32
44.91
13
160.64
23
-289.5
33
44.91
0
3DFACE
8
BRANCO
10
160.64
20
-289.5
30
44.91
11
161.56
21
-292.92
31
44.91
12
161
22
-293.25
32
45
13
160
23
-289.5
33
45
0
3DFACE
8
BRANCO
10
166.38
20
-290.14
30
0.17
11
166.85
21
-290.62
31
0.17
12
166.25
22
-291.66
32
0.67
13
165.33
23
-290.75
33
0.67
0
3DFACE
8
BRANCO
10
165.33
20
-290.75
30
0.67
11
166.25
21
-291.66
31
0.67
12
165.73
22
-292.56
32
1.46
13
164.44
23
-291.26
33
1.46
0
3DFACE
8
BRANCO
10
164.44
20
-291.26
30
1.46
11
165.73
21
-292.56
31
1.46
12
165.33
22
-293.25
32
2.5
13
163.75
23
-291.66
33
2.5
0
3DFACE
8
BRANCO
10
163.75
20
-291.66
30
2.5
11
165.33
21
-293.25
31
2.5
12
165.08
22
-293.68
32
3.71
13
163.31
23
-291.91
33
3.71
0
3DFACE
8
BRANCO
10
163.31
20
-291.91
30
3.71
11
165.08
21
-293.68
31
3.71
12
165
22
-293.83
32
5
13
163.17
23
-292
33
5
0
3DFACE
8
BRANCO
10
163.17
20
-292
30
5
11
165
21
-293.83
31
5
12
165
22
-293.83
32
42.5
13
163.17
23
-292
33
42.5
0
3DFACE
8
BRANCO
10
163.17
20
-292
30
42.5
11
165
21
-293.83
31
42.5
12
164.95
22
-293.9
32
43.15
13
163.09
23
-292.04
33
43.15
0
3DFACE
8
BRANCO
10
163.09
20
-292.04
30
43.15
11
164.95
21
-293.9
31
43.15
12
164.83
22
-294.12
32
43.75
13
162.88
23
-292.16
33
43.75
0
3DFACE
8
BRANCO
10
162.88
20
-292.16
30
43.75
11
164.83
21
-294.12
31
43.75
12
164.63
22
-294.46
32
44.27
13
162.53
23
-292.36
33
44.27
0
3DFACE
8
BRANCO
10
162.53
20
-292.36
30
44.27
11
164.63
21
-294.46
31
44.27
12
164.37
22
-294.91
32
44.67
13
162.08
23
-292.62
33
44.67
0
3DFACE
8
BRANCO
10
162.08
20
-292.62
30
44.67
11
164.37
21
-294.91
31
44.67
12
164.07
22
-295.43
32
44.91
13
161.56
23
-292.92
33
44.91
0
3DFACE
8
BRANCO
10
161.56
20
-292.92
30
44.91
11
164.07
21
-295.43
31
44.91
12
163.75
22
-295.99
32
45
13
161
23
-293.25
33
45
0
3DFACE
8
BRANCO
10
166.85
20
-290.62
30
0.17
11
167.5
21
-290.79
31
0.17
12
167.5
22
-292
32
0.67
13
166.25
23
-291.66
33
0.67
0
3DFACE
8
BRANCO
10
166.25
20
-291.66
30
0.67
11
167.5
21
-292
31
0.67
12
167.5
22
-293.03
32
1.46
13
165.73
23
-292.56
33
1.46
0
3DFACE
8
BRANCO
10
165.73
20
-292.56
30
1.46
11
167.5
21
-293.03
31
1.46
12
167.5
22
-293.83
32
2.5
13
165.33
23
-293.25
33
2.5
0
3DFACE
8
BRANCO
10
165.33
20
-293.25
30
2.5
11
167.5
21
-293.83
31
2.5
12
167.5
22
-294.32
32
3.71
13
165.08
23
-293.68
33
3.71
0
3DFACE
8
BRANCO
10
165.08
20
-293.68
30
3.71
11
167.5
21
-294.32
31
3.71
12
167.5
22
-294.5
32
5
13
165
23
-293.83
33
5
0
3DFACE
8
BRANCO
10
165
20
-293.83
30
5
11
167.5
21
-294.5
31
5
12
167.5
22
-294.5
32
42.5
13
165
23
-293.83
33
42.5
0
3DFACE
8
BRANCO
10
165
20
-293.83
30
42.5
11
167.5
21
-294.5
31
42.5
12
167.5
22
-294.58
32
43.15
13
164.95
23
-293.9
33
43.15
0
3DFACE
8
BRANCO
10
164.95
20
-293.9
30
43.15
11
167.5
21
-294.58
31
43.15
12
167.5
22
-294.83
32
43.75
13
164.83
23
-294.12
33
43.75
0
3DFACE
8
BRANCO
10
164.83
20
-294.12
30
43.75
11
167.5
21
-294.83
31
43.75
12
167.5
22
-295.23
32
44.27
13
164.63
23
-294.46
33
44.27
0
3DFACE
8
BRANCO
10
164.63
20
-294.46
30
44.27
11
167.5
21
-295.23
31
44.27
12
167.5
22
-295.75
32
44.67
13
164.37
23
-294.91
33
44.67
0
3DFACE
8
BRANCO
10
164.37
20
-294.91
30
44.67
11
167.5
21
-295.75
31
44.67
12
167.5
22
-296.35
32
44.91
13
164.07
23
-295.43
33
44.91
0
3DFACE
8
BRANCO
10
164.07
20
-295.43
30
44.91
11
167.5
21
-296.35
31
44.91
12
167.5
22
-297
32
45
13
163.75
23
-295.99
33
45
0
3DFACE
8
BRANCO
10
86.2
20
-289.5
30
0.17
11
86.38
21
-290.14
31
0.17
12
85.33
22
-290.75
32
0.67
13
85
23
-289.5
33
0.67
0
3DFACE
8
BRANCO
10
85
20
-289.5
30
0.67
11
85.33
21
-290.75
31
0.67
12
84.44
22
-291.26
32
1.46
13
83.96
23
-289.5
33
1.46
0
3DFACE
8
BRANCO
10
83.96
20
-289.5
30
1.46
11
84.44
21
-291.26
31
1.46
12
83.75
22
-291.66
32
2.5
13
83.17
23
-289.5
33
2.5
0
3DFACE
8
BRANCO
10
83.17
20
-289.5
30
2.5
11
83.75
21
-291.66
31
2.5
12
83.31001
22
-291.91
32
3.71
13
82.67
23
-289.5
33
3.71
0
3DFACE
8
BRANCO
10
82.67
20
-289.5
30
3.71
11
83.31001
21
-291.91
31
3.71
12
83.17
22
-292
32
5
13
82.5
23
-289.5
33
5
0
3DFACE
8
BRANCO
10
82.5
20
-289.5
30
5
11
83.17
21
-292
31
5
12
83.17
22
-292
32
42.5
13
82.5
23
-289.5
33
42.5
0
3DFACE
8
BRANCO
10
82.5
20
-289.5
30
42.5
11
83.17
21
-292
31
42.5
12
83.09
22
-292.04
32
43.15
13
82.41
23
-289.5
33
43.15
0
3DFACE
8
BRANCO
10
82.41
20
-289.5
30
43.15
11
83.09
21
-292.04
31
43.15
12
82.88
22
-292.16
32
43.75
13
82.16
23
-289.5
33
43.75
0
3DFACE
8
BRANCO
10
82.16
20
-289.5
30
43.75
11
82.88
21
-292.16
31
43.75
12
82.53
22
-292.36
32
44.27
13
81.77
23
-289.5
33
44.27
0
3DFACE
8
BRANCO
10
81.77
20
-289.5
30
44.27
11
82.53
21
-292.36
31
44.27
12
82.08
22
-292.62
32
44.67
13
81.25
23
-289.5
33
44.67
0
3DFACE
8
BRANCO
10
81.25
20
-289.5
30
44.67
11
82.08
21
-292.62
31
44.67
12
81.56
22
-292.92
32
44.91
13
80.64
23
-289.5
33
44.91
0
3DFACE
8
BRANCO
10
80.64
20
-289.5
30
44.91
11
81.56
21
-292.92
31
44.91
12
81
22
-293.25
32
45
13
80
23
-289.5
33
45
0
3DFACE
8
BRANCO
10
86.38
20
-290.14
30
0.17
11
86.85001
21
-290.62
31
0.17
12
86.25
22
-291.66
32
0.67
13
85.33
23
-290.75
33
0.67
0
3DFACE
8
BRANCO
10
85.33
20
-290.75
30
0.67
11
86.25
21
-291.66
31
0.67
12
85.73
22
-292.56
32
1.46
13
84.44
23
-291.26
33
1.46
0
3DFACE
8
BRANCO
10
84.44
20
-291.26
30
1.46
11
85.73
21
-292.56
31
1.46
12
85.33
22
-293.25
32
2.5
13
83.75
23
-291.66
33
2.5
0
3DFACE
8
BRANCO
10
83.75
20
-291.66
30
2.5
11
85.33
21
-293.25
31
2.5
12
85.08
22
-293.68
32
3.71
13
83.31001
23
-291.91
33
3.71
0
3DFACE
8
BRANCO
10
83.31001
20
-291.91
30
3.71
11
85.08
21
-293.68
31
3.71
12
85
22
-293.83
32
5
13
83.17
23
-292
33
5
0
3DFACE
8
BRANCO
10
83.17
20
-292
30
5
11
85
21
-293.83
31
5
12
85
22
-293.83
32
42.5
13
83.17
23
-292
33
42.5
0
3DFACE
8
BRANCO
10
83.17
20
-292
30
42.5
11
85
21
-293.83
31
42.5
12
84.95
22
-293.9
32
43.15
13
83.09
23
-292.04
33
43.15
0
3DFACE
8
BRANCO
10
83.09
20
-292.04
30
43.15
11
84.95
21
-293.9
31
43.15
12
84.83
22
-294.12
32
43.75
13
82.88
23
-292.16
33
43.75
0
3DFACE
8
BRANCO
10
82.88
20
-292.16
30
43.75
11
84.83
21
-294.12
31
43.75
12
84.63
22
-294.46
32
44.27
13
82.53
23
-292.36
33
44.27
0
3DFACE
8
BRANCO
10
82.53
20
-292.36
30
44.27
11
84.63
21
-294.46
31
44.27
12
84.37
22
-294.91
32
44.67
13
82.08
23
-292.62
33
44.67
0
3DFACE
8
BRANCO
10
82.08
20
-292.62
30
44.67
11
84.37
21
-294.91
31
44.67
12
84.07
22
-295.43
32
44.91
13
81.56
23
-292.92
33
44.91
0
3DFACE
8
BRANCO
10
81.56
20
-292.92
30
44.91
11
84.07
21
-295.43
31
44.91
12
83.75
22
-295.99
32
45
13
81
23
-293.25
33
45
0
3DFACE
8
BRANCO
10
86.85001
20
-290.62
30
0.17
11
87.5
21
-290.79
31
0.17
12
87.5
22
-292
32
0.67
13
86.25
23
-291.66
33
0.67
0
3DFACE
8
BRANCO
10
86.25
20
-291.66
30
0.67
11
87.5
21
-292
31
0.67
12
87.5
22
-293.03
32
1.46
13
85.73
23
-292.56
33
1.46
0
3DFACE
8
BRANCO
10
85.73
20
-292.56
30
1.46
11
87.5
21
-293.03
31
1.46
12
87.5
22
-293.83
32
2.5
13
85.33
23
-293.25
33
2.5
0
3DFACE
8
BRANCO
10
85.33
20
-293.25
30
2.5
11
87.5
21
-293.83
31
2.5
12
87.5
22
-294.32
32
3.71
13
85.08
23
-293.68
33
3.71
0
3DFACE
8
BRANCO
10
85.08
20
-293.68
30
3.71
11
87.5
21
-294.32
31
3.71
12
87.5
22
-294.5
32
5
13
85
23
-293.83
33
5
0
3DFACE
8
BRANCO
10
85
20
-293.83
30
5
11
87.5
21
-294.5
31
5
12
87.5
22
-294.5
32
42.5
13
85
23
-293.83
33
42.5
0
3DFACE
8
BRANCO
10
85
20
-293.83
30
42.5
11
87.5
21
-294.5
31
42.5
12
87.5
22
-294.58
32
43.15
13
84.95
23
-293.9
33
43.15
0
3DFACE
8
BRANCO
10
84.95
20
-293.9
30
43.15
11
87.5
21
-294.58
31
43.15
12
87.5
22
-294.83
32
43.75
13
84.83
23
-294.12
33
43.75
0
3DFACE
8
BRANCO
10
84.83
20
-294.12
30
43.75
11
87.5
21
-294.83
31
43.75
12
87.5
22
-295.23
32
44.27
13
84.63
23
-294.46
33
44.27
0
3DFACE
8
BRANCO
10
84.63
20
-294.46
30
44.27
11
87.5
21
-295.23
31
44.27
12
87.5
22
-295.75
32
44.67
13
84.37
23
-294.91
33
44.67
0
3DFACE
8
BRANCO
10
84.37
20
-294.91
30
44.67
11
87.5
21
-295.75
31
44.67
12
87.5
22
-296.35
32
44.91
13
84.07
23
-295.43
33
44.91
0
3DFACE
8
BRANCO
10
84.07
20
-295.43
30
44.91
11
87.5
21
-296.35
31
44.91
12
87.5
22
-297
32
45
13
83.75
23
-295.99
33
45
0
3DFACE
8
BRANCO
10
153.79
20
-289.5
30
0.17
11
153.62
21
-290.14
31
0.17
12
154.66
22
-290.75
32
0.67
13
155
23
-289.5
33
0.67
0
3DFACE
8
BRANCO
10
155
20
-289.5
30
0.67
11
154.66
21
-290.75
31
0.67
12
155.56
22
-291.26
32
1.46
13
156.03
23
-289.5
33
1.46
0
3DFACE
8
BRANCO
10
156.03
20
-289.5
30
1.46
11
155.56
21
-291.26
31
1.46
12
156.25
22
-291.66
32
2.5
13
156.83
23
-289.5
33
2.5
0
3DFACE
8
BRANCO
10
156.83
20
-289.5
30
2.5
11
156.25
21
-291.66
31
2.5
12
156.68
22
-291.91
32
3.71
13
157.33
23
-289.5
33
3.71
0
3DFACE
8
BRANCO
10
157.33
20
-289.5
30
3.71
11
156.68
21
-291.91
31
3.71
12
156.83
22
-292
32
5
13
157.5
23
-289.5
33
5
0
3DFACE
8
BRANCO
10
157.5
20
-289.5
30
5
11
156.83
21
-292
31
5
12
156.83
22
-292
32
42.5
13
157.5
23
-289.5
33
42.5
0
3DFACE
8
BRANCO
10
157.5
20
-289.5
30
42.5
11
156.83
21
-292
31
42.5
12
156.9
22
-292.04
32
43.15
13
157.58
23
-289.5
33
43.15
0
3DFACE
8
BRANCO
10
157.58
20
-289.5
30
43.15
11
156.9
21
-292.04
31
43.15
12
157.12
22
-292.16
32
43.75
13
157.83
23
-289.5
33
43.75
0
3DFACE
8
BRANCO
10
157.83
20
-289.5
30
43.75
11
157.12
21
-292.16
31
43.75
12
157.46
22
-292.36
32
44.27
13
158.23
23
-289.5
33
44.27
0
3DFACE
8
BRANCO
10
158.23
20
-289.5
30
44.27
11
157.46
21
-292.36
31
44.27
12
157.91
22
-292.62
32
44.67
13
158.75
23
-289.5
33
44.67
0
3DFACE
8
BRANCO
10
158.75
20
-289.5
30
44.67
11
157.91
21
-292.62
31
44.67
12
158.43
22
-292.92
32
44.91
13
159.35
23
-289.5
33
44.91
0
3DFACE
8
BRANCO
10
159.35
20
-289.5
30
44.91
11
158.43
21
-292.92
31
44.91
12
158.99
22
-293.25
32
45
13
160
23
-289.5
33
45
0
3DFACE
8
BRANCO
10
153.62
20
-290.14
30
0.17
11
153.14
21
-290.62
31
0.17
12
153.75
22
-291.66
32
0.67
13
154.66
23
-290.75
33
0.67
0
3DFACE
8
BRANCO
10
154.66
20
-290.75
30
0.67
11
153.75
21
-291.66
31
0.67
12
154.27
22
-292.56
32
1.46
13
155.56
23
-291.26
33
1.46
0
3DFACE
8
BRANCO
10
155.56
20
-291.26
30
1.46
11
154.27
21
-292.56
31
1.46
12
154.66
22
-293.25
32
2.5
13
156.25
23
-291.66
33
2.5
0
3DFACE
8
BRANCO
10
156.25
20
-291.66
30
2.5
11
154.66
21
-293.25
31
2.5
12
154.91
22
-293.68
32
3.71
13
156.68
23
-291.91
33
3.71
0
3DFACE
8
BRANCO
10
156.68
20
-291.91
30
3.71
11
154.91
21
-293.68
31
3.71
12
155
22
-293.83
32
5
13
156.83
23
-292
33
5
0
3DFACE
8
BRANCO
10
156.83
20
-292
30
5
11
155
21
-293.83
31
5
12
155
22
-293.83
32
42.5
13
156.83
23
-292
33
42.5
0
3DFACE
8
BRANCO
10
156.83
20
-292
30
42.5
11
155
21
-293.83
31
42.5
12
155.04
22
-293.9
32
43.15
13
156.9
23
-292.04
33
43.15
0
3DFACE
8
BRANCO
10
156.9
20
-292.04
30
43.15
11
155.04
21
-293.9
31
43.15
12
155.16
22
-294.12
32
43.75
13
157.12
23
-292.16
33
43.75
0
3DFACE
8
BRANCO
10
157.12
20
-292.16
30
43.75
11
155.16
21
-294.12
31
43.75
12
155.36
22
-294.46
32
44.27
13
157.46
23
-292.36
33
44.27
0
3DFACE
8
BRANCO
10
157.46
20
-292.36
30
44.27
11
155.36
21
-294.46
31
44.27
12
155.62
22
-294.91
32
44.67
13
157.91
23
-292.62
33
44.67
0
3DFACE
8
BRANCO
10
157.91
20
-292.62
30
44.67
11
155.62
21
-294.91
31
44.67
12
155.92
22
-295.43
32
44.91
13
158.43
23
-292.92
33
44.91
0
3DFACE
8
BRANCO
10
158.43
20
-292.92
30
44.91
11
155.92
21
-295.43
31
44.91
12
156.25
22
-295.99
32
45
13
158.99
23
-293.25
33
45
0
3DFACE
8
BRANCO
10
153.14
20
-290.62
30
0.17
11
152.5
21
-290.79
31
0.17
12
152.5
22
-292
32
0.67
13
153.75
23
-291.66
33
0.67
0
3DFACE
8
BRANCO
10
153.75
20
-291.66
30
0.67
11
152.5
21
-292
31
0.67
12
152.5
22
-293.03
32
1.46
13
154.27
23
-292.56
33
1.46
0
3DFACE
8
BRANCO
10
154.27
20
-292.56
30
1.46
11
152.5
21
-293.03
31
1.46
12
152.5
22
-293.83
32
2.5
13
154.66
23
-293.25
33
2.5
0
3DFACE
8
BRANCO
10
154.66
20
-293.25
30
2.5
11
152.5
21
-293.83
31
2.5
12
152.5
22
-294.32
32
3.71
13
154.91
23
-293.68
33
3.71
0
3DFACE
8
BRANCO
10
154.91
20
-293.68
30
3.71
11
152.5
21
-294.32
31
3.71
12
152.5
22
-294.5
32
5
13
155
23
-293.83
33
5
0
3DFACE
8
BRANCO
10
155
20
-293.83
30
5
11
152.5
21
-294.5
31
5
12
152.5
22
-294.5
32
42.5
13
155
23
-293.83
33
42.5
0
3DFACE
8
BRANCO
10
155
20
-293.83
30
42.5
11
152.5
21
-294.5
31
42.5
12
152.5
22
-294.58
32
43.15
13
155.04
23
-293.9
33
43.15
0
3DFACE
8
BRANCO
10
155.04
20
-293.9
30
43.15
11
152.5
21
-294.58
31
43.15
12
152.5
22
-294.83
32
43.75
13
155.16
23
-294.12
33
43.75
0
3DFACE
8
BRANCO
10
155.16
20
-294.12
30
43.75
11
152.5
21
-294.83
31
43.75
12
152.5
22
-295.23
32
44.27
13
155.36
23
-294.46
33
44.27
0
3DFACE
8
BRANCO
10
155.36
20
-294.46
30
44.27
11
152.5
21
-295.23
31
44.27
12
152.5
22
-295.75
32
44.67
13
155.62
23
-294.91
33
44.67
0
3DFACE
8
BRANCO
10
155.62
20
-294.91
30
44.67
11
152.5
21
-295.75
31
44.67
12
152.5
22
-296.35
32
44.91
13
155.92
23
-295.43
33
44.91
0
3DFACE
8
BRANCO
10
155.92
20
-295.43
30
44.91
11
152.5
21
-296.35
31
44.91
12
152.5
22
-297
32
45
13
156.25
23
-295.99
33
45
0
3DFACE
8
BRANCO
10
231.79
20
-289.5
30
0.17
11
231.62
21
-290.14
31
0.17
12
232.66
22
-290.75
32
0.67
13
233
23
-289.5
33
0.67
0
3DFACE
8
BRANCO
10
233
20
-289.5
30
0.67
11
232.66
21
-290.75
31
0.67
12
233.56
22
-291.26
32
1.46
13
234.03
23
-289.5
33
1.46
0
3DFACE
8
BRANCO
10
234.03
20
-289.5
30
1.46
11
233.56
21
-291.26
31
1.46
12
234.25
22
-291.66
32
2.5
13
234.83
23
-289.5
33
2.5
0
3DFACE
8
BRANCO
10
234.83
20
-289.5
30
2.5
11
234.25
21
-291.66
31
2.5
12
234.68
22
-291.91
32
3.71
13
235.33
23
-289.5
33
3.71
0
3DFACE
8
BRANCO
10
235.33
20
-289.5
30
3.71
11
234.68
21
-291.91
31
3.71
12
234.83
22
-292
32
5
13
235.5
23
-289.5
33
5
0
3DFACE
8
BRANCO
10
235.5
20
-289.5
30
5
11
234.83
21
-292
31
5
12
234.83
22
-292
32
42.5
13
235.5
23
-289.5
33
42.5
0
3DFACE
8
BRANCO
10
235.5
20
-289.5
30
42.5
11
234.83
21
-292
31
42.5
12
234.9
22
-292.04
32
43.15
13
235.58
23
-289.5
33
43.15
0
3DFACE
8
BRANCO
10
235.58
20
-289.5
30
43.15
11
234.9
21
-292.04
31
43.15
12
235.12
22
-292.16
32
43.75
13
235.83
23
-289.5
33
43.75
0
3DFACE
8
BRANCO
10
235.83
20
-289.5
30
43.75
11
235.12
21
-292.16
31
43.75
12
235.46
22
-292.36
32
44.27
13
236.23
23
-289.5
33
44.27
0
3DFACE
8
BRANCO
10
236.23
20
-289.5
30
44.27
11
235.46
21
-292.36
31
44.27
12
235.91
22
-292.62
32
44.67
13
236.75
23
-289.5
33
44.67
0
3DFACE
8
BRANCO
10
236.75
20
-289.5
30
44.67
11
235.91
21
-292.62
31
44.67
12
236.43
22
-292.92
32
44.91
13
237.35
23
-289.5
33
44.91
0
3DFACE
8
BRANCO
10
237.35
20
-289.5
30
44.91
11
236.43
21
-292.92
31
44.91
12
236.99
22
-293.25
32
45
13
238
23
-289.5
33
45
0
3DFACE
8
BRANCO
10
231.62
20
-290.14
30
0.17
11
231.14
21
-290.62
31
0.17
12
231.75
22
-291.66
32
0.67
13
232.66
23
-290.75
33
0.67
0
3DFACE
8
BRANCO
10
232.66
20
-290.75
30
0.67
11
231.75
21
-291.66
31
0.67
12
232.27
22
-292.56
32
1.46
13
233.56
23
-291.26
33
1.46
0
3DFACE
8
BRANCO
10
233.56
20
-291.26
30
1.46
11
232.27
21
-292.56
31
1.46
12
232.66
22
-293.25
32
2.5
13
234.25
23
-291.66
33
2.5
0
3DFACE
8
BRANCO
10
234.25
20
-291.66
30
2.5
11
232.66
21
-293.25
31
2.5
12
232.91
22
-293.68
32
3.71
13
234.68
23
-291.91
33
3.71
0
3DFACE
8
BRANCO
10
234.68
20
-291.91
30
3.71
11
232.91
21
-293.68
31
3.71
12
233
22
-293.83
32
5
13
234.83
23
-292
33
5
0
3DFACE
8
BRANCO
10
234.83
20
-292
30
5
11
233
21
-293.83
31
5
12
233
22
-293.83
32
42.5
13
234.83
23
-292
33
42.5
0
3DFACE
8
BRANCO
10
234.83
20
-292
30
42.5
11
233
21
-293.83
31
42.5
12
233.04
22
-293.9
32
43.15
13
234.9
23
-292.04
33
43.15
0
3DFACE
8
BRANCO
10
234.9
20
-292.04
30
43.15
11
233.04
21
-293.9
31
43.15
12
233.16
22
-294.12
32
43.75
13
235.12
23
-292.16
33
43.75
0
3DFACE
8
BRANCO
10
235.12
20
-292.16
30
43.75
11
233.16
21
-294.12
31
43.75
12
233.36
22
-294.46
32
44.27
13
235.46
23
-292.36
33
44.27
0
3DFACE
8
BRANCO
10
235.46
20
-292.36
30
44.27
11
233.36
21
-294.46
31
44.27
12
233.62
22
-294.91
32
44.67
13
235.91
23
-292.62
33
44.67
0
3DFACE
8
BRANCO
10
235.91
20
-292.62
30
44.67
11
233.62
21
-294.91
31
44.67
12
233.92
22
-295.43
32
44.91
13
236.43
23
-292.92
33
44.91
0
3DFACE
8
BRANCO
10
236.43
20
-292.92
30
44.91
11
233.92
21
-295.43
31
44.91
12
234.25
22
-295.99
32
45
13
236.99
23
-293.25
33
45
0
3DFACE
8
BRANCO
10
231.14
20
-290.62
30
0.17
11
230.5
21
-290.79
31
0.17
12
230.5
22
-292
32
0.67
13
231.75
23
-291.66
33
0.67
0
3DFACE
8
BRANCO
10
231.75
20
-291.66
30
0.67
11
230.5
21
-292
31
0.67
12
230.5
22
-293.03
32
1.46
13
232.27
23
-292.56
33
1.46
0
3DFACE
8
BRANCO
10
232.27
20
-292.56
30
1.46
11
230.5
21
-293.03
31
1.46
12
230.5
22
-293.83
32
2.5
13
232.66
23
-293.25
33
2.5
0
3DFACE
8
BRANCO
10
232.66
20
-293.25
30
2.5
11
230.5
21
-293.83
31
2.5
12
230.5
22
-294.32
32
3.71
13
232.91
23
-293.68
33
3.71
0
3DFACE
8
BRANCO
10
232.91
20
-293.68
30
3.71
11
230.5
21
-294.32
31
3.71
12
230.5
22
-294.5
32
5
13
233
23
-293.83
33
5
0
3DFACE
8
BRANCO
10
233
20
-293.83
30
5
11
230.5
21
-294.5
31
5
12
230.5
22
-294.5
32
42.5
13
233
23
-293.83
33
42.5
0
3DFACE
8
BRANCO
10
233
20
-293.83
30
42.5
11
230.5
21
-294.5
31
42.5
12
230.5
22
-294.58
32
43.15
13
233.04
23
-293.9
33
43.15
0
3DFACE
8
BRANCO
10
233.04
20
-293.9
30
43.15
11
230.5
21
-294.58
31
43.15
12
230.5
22
-294.83
32
43.75
13
233.16
23
-294.12
33
43.75
0
3DFACE
8
BRANCO
10
233.16
20
-294.12
30
43.75
11
230.5
21
-294.83
31
43.75
12
230.5
22
-295.23
32
44.27
13
233.36
23
-294.46
33
44.27
0
3DFACE
8
BRANCO
10
233.36
20
-294.46
30
44.27
11
230.5
21
-295.23
31
44.27
12
230.5
22
-295.75
32
44.67
13
233.62
23
-294.91
33
44.67
0
3DFACE
8
BRANCO
10
233.62
20
-294.91
30
44.67
11
230.5
21
-295.75
31
44.67
12
230.5
22
-296.35
32
44.91
13
233.92
23
-295.43
33
44.91
0
3DFACE
8
BRANCO
10
233.92
20
-295.43
30
44.91
11
230.5
21
-296.35
31
44.91
12
230.5
22
-297
32
45
13
234.25
23
-295.99
33
45
0
3DFACE
8
BRANCO
10
238
20
-7.5
30
45
11
238
21
-289.5
31
45
12
236.75
22
-289.5
32
44.67
13
236.75
23
-7.5
33
44.67
0
3DFACE
8
BRANCO
10
236.75
20
-7.5
30
44.67
11
236.75
21
-289.5
31
44.67
12
235.83
22
-289.5
32
43.75
13
235.83
23
-7.5
33
43.75
0
3DFACE
8
BRANCO
10
235.83
20
-7.5
30
43.75
11
235.83
21
-289.5
31
43.75
12
235.5
22
-289.5
32
42.5
13
235.5
23
-7.5
33
42.5
0
3DFACE
8
BRANCO
10
235.5
20
-7.5
30
42.5
11
235.5
21
-289.5
31
42.5
12
235.5
22
-289.5
32
5
13
235.5
23
-7.5
33
5
0
3DFACE
8
BRANCO
10
235.5
20
-7.5
30
5
11
235.5
21
-289.5
31
5
12
234.83
22
-289.5
32
2.5
13
234.83
23
-7.5
33
2.5
0
3DFACE
8
BRANCO
10
234.83
20
-7.5
30
2.5
11
234.83
21
-289.5
31
2.5
12
233
22
-289.5
32
0.67
13
233
23
-7.5
33
0.67
0
3DFACE
8
BRANCO
10
233
20
-7.5
30
0.67
11
233
21
-289.5
31
0.67
12
230.5
22
-289.5
32
0
13
230.5
23
-7.5
33
0
0
3DFACE
8
BRANCO
10
238
20
-304.5
30
45
11
238
21
-366.5
31
45
12
236.75
22
-366.5
32
44.67
13
236.75
23
-304.5
33
44.67
0
3DFACE
8
BRANCO
10
236.75
20
-304.5
30
44.67
11
236.75
21
-366.5
31
44.67
12
235.83
22
-366.5
32
43.75
13
235.83
23
-304.5
33
43.75
0
3DFACE
8
BRANCO
10
235.83
20
-304.5
30
43.75
11
235.83
21
-366.5
31
43.75
12
235.5
22
-366.5
32
42.5
13
235.5
23
-304.5
33
42.5
0
3DFACE
8
BRANCO
10
235.5
20
-304.5
30
42.5
11
235.5
21
-366.5
31
42.5
12
235.5
22
-366.5
32
5
13
235.5
23
-304.5
33
5
0
3DFACE
8
BRANCO
10
235.5
20
-304.5
30
5
11
235.5
21
-366.5
31
5
12
234.83
22
-366.5
32
2.5
13
234.83
23
-304.5
33
2.5
0
3DFACE
8
BRANCO
10
234.83
20
-304.5
30
2.5
11
234.83
21
-366.5
31
2.5
12
233
22
-366.5
32
0.67
13
233
23
-304.5
33
0.67
0
3DFACE
8
BRANCO
10
233
20
-304.5
30
0.67
11
233
21
-366.5
31
0.67
12
230.5
22
-366.5
32
0
13
230.5
23
-304.5
33
0
0
3DFACE
8
BRANCO
10
152.5
20
-297
30
45
11
87.5
21
-297
31
45
12
87.5
22
-295.75
32
44.67
13
152.5
23
-295.75
33
44.67
0
3DFACE
8
BRANCO
10
152.5
20
-295.75
30
44.67
11
87.5
21
-295.75
31
44.67
12
87.5
22
-294.83
32
43.75
13
152.5
23
-294.83
33
43.75
0
3DFACE
8
BRANCO
10
152.5
20
-294.83
30
43.75
11
87.5
21
-294.83
31
43.75
12
87.5
22
-294.5
32
42.5
13
152.5
23
-294.5
33
42.5
0
3DFACE
8
BRANCO
10
152.5
20
-294.5
30
42.5
11
87.5
21
-294.5
31
42.5
12
87.5
22
-294.5
32
5
13
152.5
23
-294.5
33
5
0
3DFACE
8
BRANCO
10
152.5
20
-294.5
30
5
11
87.5
21
-294.5
31
5
12
87.5
22
-293.83
32
2.5
13
152.5
23
-293.83
33
2.5
0
3DFACE
8
BRANCO
10
152.5
20
-293.83
30
2.5
11
87.5
21
-293.83
31
2.5
12
87.5
22
-292
32
0.67
13
152.5
23
-292
33
0.67
0
3DFACE
8
BRANCO
10
152.5
20
-292
30
0.67
11
87.5
21
-292
31
0.67
12
87.5
22
-289.5
32
0
13
152.5
23
-289.5
33
0
0
3DFACE
8
BRANCO
10
72.5
20
-297
30
45
11
7.5
21
-297
31
45
12
7.5
22
-295.75
32
44.67
13
72.5
23
-295.75
33
44.67
0
3DFACE
8
BRANCO
10
72.5
20
-295.75
30
44.67
11
7.5
21
-295.75
31
44.67
12
7.5
22
-294.83
32
43.75
13
72.5
23
-294.83
33
43.75
0
3DFACE
8
BRANCO
10
72.5
20
-294.83
30
43.75
11
7.5
21
-294.83
31
43.75
12
7.5
22
-294.5
32
42.5
13
72.5
23
-294.5
33
42.5
0
3DFACE
8
BRANCO
10
72.5
20
-294.5
30
42.5
11
7.5
21
-294.5
31
42.5
12
7.5
22
-294.5
32
5
13
72.5
23
-294.5
33
5
0
3DFACE
8
BRANCO
10
72.5
20
-294.5
30
5
11
7.5
21
-294.5
31
5
12
7.5
22
-293.83
32
2.5
13
72.5
23
-293.83
33
2.5
0
3DFACE
8
BRANCO
10
72.5
20
-293.83
30
2.5
11
7.5
21
-293.83
31
2.5
12
7.5
22
-292
32
0.67
13
72.5
23
-292
33
0.67
0
3DFACE
8
BRANCO
10
72.5
20
-292
30
0.67
11
7.5
21
-292
31
0.67
12
7.5
22
-289.5
32
0
13
72.5
23
-289.5
33
0
0
3DFACE
8
BRANCO
10
230.5
20
-297
30
45
11
167.5
21
-297
31
45
12
167.5
22
-295.75
32
44.67
13
230.5
23
-295.75
33
44.67
0
3DFACE
8
BRANCO
10
230.5
20
-295.75
30
44.67
11
167.5
21
-295.75
31
44.67
12
167.5
22
-294.83
32
43.75
13
230.5
23
-294.83
33
43.75
0
3DFACE
8
BRANCO
10
230.5
20
-294.83
30
43.75
11
167.5
21
-294.83
31
43.75
12
167.5
22
-294.5
32
42.5
13
230.5
23
-294.5
33
42.5
0
3DFACE
8
BRANCO
10
230.5
20
-294.5
30
42.5
11
167.5
21
-294.5
31
42.5
12
167.5
22
-294.5
32
5
13
230.5
23
-294.5
33
5
0
3DFACE
8
BRANCO
10
230.5
20
-294.5
30
5
11
167.5
21
-294.5
31
5
12
167.5
22
-293.83
32
2.5
13
230.5
23
-293.83
33
2.5
0
3DFACE
8
BRANCO
10
230.5
20
-293.83
30
2.5
11
167.5
21
-293.83
31
2.5
12
167.5
22
-292
32
0.67
13
230.5
23
-292
33
0.67
0
3DFACE
8
BRANCO
10
230.5
20
-292
30
0.67
11
167.5
21
-292
31
0.67
12
167.5
22
-289.5
32
0
13
230.5
23
-289.5
33
0
0
3DFACE
8
BRANCO
10
72.5
20
0
30
45
11
7.5
21
0
31
45
12
7.5
22
-1.25
32
44.67
13
72.5
23
-1.25
33
44.67
0
3DFACE
8
BRANCO
10
72.5
20
-1.25
30
44.67
11
7.5
21
-1.25
31
44.67
12
7.5
22
-2.16
32
43.75
13
72.5
23
-2.16
33
43.75
0
3DFACE
8
BRANCO
10
72.5
20
-2.16
30
43.75
11
7.5
21
-2.16
31
43.75
12
7.5
22
-2.5
32
42.5
13
72.5
23
-2.5
33
42.5
0
3DFACE
8
BRANCO
10
72.5
20
-2.5
30
42.5
11
7.5
21
-2.5
31
42.5
12
7.5
22
-2.5
32
5
13
72.5
23
-2.5
33
5
0
3DFACE
8
BRANCO
10
72.5
20
-2.5
30
5
11
7.5
21
-2.5
31
5
12
7.5
22
-3.16
32
2.5
13
72.5
23
-3.16
33
2.5
0
3DFACE
8
BRANCO
10
72.5
20
-3.16
30
2.5
11
7.5
21
-3.16
31
2.5
12
7.5
22
-5
32
0.67
13
72.5
23
-5
33
0.67
0
3DFACE
8
BRANCO
10
72.5
20
-5
30
0.67
11
7.5
21
-5
31
0.67
12
7.5
22
-7.5
32
0
13
72.5
23
-7.5
33
0
0
3DFACE
8
BRANCO
10
152.5
20
0
30
45
11
87.5
21
0
31
45
12
87.5
22
-1.25
32
44.67
13
152.5
23
-1.25
33
44.67
0
3DFACE
8
BRANCO
10
152.5
20
-1.25
30
44.67
11
87.5
21
-1.25
31
44.67
12
87.5
22
-2.16
32
43.75
13
152.5
23
-2.16
33
43.75
0
3DFACE
8
BRANCO
10
152.5
20
-2.16
30
43.75
11
87.5
21
-2.16
31
43.75
12
87.5
22
-2.5
32
42.5
13
152.5
23
-2.5
33
42.5
0
3DFACE
8
BRANCO
10
152.5
20
-2.5
30
42.5
11
87.5
21
-2.5
31
42.5
12
87.5
22
-2.5
32
5
13
152.5
23
-2.5
33
5
0
3DFACE
8
BRANCO
10
152.5
20
-2.5
30
5
11
87.5
21
-2.5
31
5
12
87.5
22
-3.16
32
2.5
13
152.5
23
-3.16
33
2.5
0
3DFACE
8
BRANCO
10
152.5
20
-3.16
30
2.5
11
87.5
21
-3.16
31
2.5
12
87.5
22
-5
32
0.67
13
152.5
23
-5
33
0.67
0
3DFACE
8
BRANCO
10
152.5
20
-5
30
0.67
11
87.5
21
-5
31
0.67
12
87.5
22
-7.5
32
0
13
152.5
23
-7.5
33
0
0
3DFACE
8
BRANCO
10
230.5
20
0
30
45
11
167.5
21
0
31
45
12
167.5
22
-1.25
32
44.67
13
230.5
23
-1.25
33
44.67
0
3DFACE
8
BRANCO
10
230.5
20
-1.25
30
44.67
11
167.5
21
-1.25
31
44.67
12
167.5
22
-2.16
32
43.75
13
230.5
23
-2.16
33
43.75
0
3DFACE
8
BRANCO
10
230.5
20
-2.16
30
43.75
11
167.5
21
-2.16
31
43.75
12
167.5
22
-2.5
32
42.5
13
230.5
23
-2.5
33
42.5
0
3DFACE
8
BRANCO
10
230.5
20
-2.5
30
42.5
11
167.5
21
-2.5
31
42.5
12
167.5
22
-2.5
32
5
13
230.5
23
-2.5
33
5
0
3DFACE
8
BRANCO
10
230.5
20
-2.5
30
5
11
167.5
21
-2.5
31
5
12
167.5
22
-3.16
32
2.5
13
230.5
23
-3.16
33
2.5
0
3DFACE
8
BRANCO
10
230.5
20
-3.16
30
2.5
11
167.5
21
-3.16
31
2.5
12
167.5
22
-5
32
0.67
13
230.5
23
-5
33
0.67
0
3DFACE
8
BRANCO
10
230.5
20
-5
30
0.67
11
167.5
21
-5
31
0.67
12
167.5
22
-7.5
32
0
13
230.5
23
-7.5
33
0
0
3DFACE
8
BRANCO
10
312.5
20
-7.5
30
0
11
312.5
21
-442.5
31
0
12
315
22
-442.5
32
0.67
13
315
23
-7.5
33
0.67
0
3DFACE
8
BRANCO
10
315
20
-7.5
30
0.67
11
315
21
-442.5
31
0.67
12
316.83
22
-442.5
32
2.5
13
316.83
23
-7.5
33
2.5
0
3DFACE
8
BRANCO
10
316.83
20
-7.5
30
2.5
11
316.83
21
-442.5
31
2.5
12
317.5
22
-442.5
32
5
13
317.5
23
-7.5
33
5
0
3DFACE
8
BRANCO
10
317.5
20
-7.5
30
5
11
317.5
21
-442.5
31
5
12
317.5
22
-442.5
32
42.5
13
317.5
23
-7.5
33
42.5
0
3DFACE
8
BRANCO
10
317.5
20
-7.5
30
42.5
11
317.5
21
-442.5
31
42.5
12
317.83
22
-442.5
32
43.75
13
317.83
23
-7.5
33
43.75
0
3DFACE
8
BRANCO
10
317.83
20
-7.5
30
43.75
11
317.83
21
-442.5
31
43.75
12
318.75
22
-442.5
32
44.67
13
318.75
23
-7.5
33
44.67
0
3DFACE
8
BRANCO
10
318.75
20
-7.5
30
44.67
11
318.75
21
-442.5
31
44.67
12
320
22
-442.5
32
45
13
320
23
-7.5
33
45
0
3DFACE
8
BRANCO
10
245.5
20
-7.5
30
0
11
245.5
21
-442.5
31
0
12
243
22
-442.5
32
0.67
13
243
23
-7.5
33
0.67
0
3DFACE
8
BRANCO
10
243
20
-7.5
30
0.67
11
243
21
-442.5
31
0.67
12
241.17
22
-442.5
32
2.5
13
241.17
23
-7.5
33
2.5
0
3DFACE
8
BRANCO
10
241.17
20
-7.5
30
2.5
11
241.17
21
-442.5
31
2.5
12
240.5
22
-442.5
32
5
13
240.5
23
-7.5
33
5
0
3DFACE
8
BRANCO
10
240.5
20
-7.5
30
5
11
240.5
21
-442.5
31
5
12
240.5
22
-442.5
32
42.5
13
240.5
23
-7.5
33
42.5
0
3DFACE
8
BRANCO
10
240.5
20
-7.5
30
42.5
11
240.5
21
-442.5
31
42.5
12
240.16
22
-442.5
32
43.75
13
240.16
23
-7.5
33
43.75
0
3DFACE
8
BRANCO
10
240.16
20
-7.5
30
43.75
11
240.16
21
-442.5
31
43.75
12
239.25
22
-442.5
32
44.67
13
239.25
23
-7.5
33
44.67
0
3DFACE
8
BRANCO
10
239.25
20
-7.5
30
44.67
11
239.25
21
-442.5
31
44.67
12
238
22
-442.5
32
45
13
238
23
-7.5
33
45
0
3DFACE
8
BRANCO
10
312.5
20
0
30
45
11
245.5
21
0
31
45
12
245.5
22
-1.25
32
44.67
13
312.5
23
-1.25
33
44.67
0
3DFACE
8
BRANCO
10
312.5
20
-1.25
30
44.67
11
245.5
21
-1.25
31
44.67
12
245.5
22
-2.16
32
43.75
13
312.5
23
-2.16
33
43.75
0
3DFACE
8
BRANCO
10
312.5
20
-2.16
30
43.75
11
245.5
21
-2.16
31
43.75
12
245.5
22
-2.5
32
42.5
13
312.5
23
-2.5
33
42.5
0
3DFACE
8
BRANCO
10
312.5
20
-2.5
30
42.5
11
245.5
21
-2.5
31
42.5
12
245.5
22
-2.5
32
5
13
312.5
23
-2.5
33
5
0
3DFACE
8
BRANCO
10
312.5
20
-2.5
30
5
11
245.5
21
-2.5
31
5
12
245.5
22
-3.16
32
2.5
13
312.5
23
-3.16
33
2.5
0
3DFACE
8
BRANCO
10
312.5
20
-3.16
30
2.5
11
245.5
21
-3.16
31
2.5
12
245.5
22
-5
32
0.67
13
312.5
23
-5
33
0.67
0
3DFACE
8
BRANCO
10
312.5
20
-5
30
0.67
11
245.5
21
-5
31
0.67
12
245.5
22
-7.5
32
0
13
312.5
23
-7.5
33
0
0
3DFACE
8
BRANCO
10
313.79
20
-442.5
30
0.17
11
313.62
21
-443.14
31
0.17
12
314.66
22
-443.75
32
0.67
13
315
23
-442.5
33
0.67
0
3DFACE
8
BRANCO
10
315
20
-442.5
30
0.67
11
314.66
21
-443.75
31
0.67
12
315.56
22
-444.26
32
1.46
13
316.03
23
-442.5
33
1.46
0
3DFACE
8
BRANCO
10
316.03
20
-442.5
30
1.46
11
315.56
21
-444.26
31
1.46
12
316.25
22
-444.66
32
2.5
13
316.83
23
-442.5
33
2.5
0
3DFACE
8
BRANCO
10
316.83
20
-442.5
30
2.5
11
316.25
21
-444.66
31
2.5
12
316.68
22
-444.91
32
3.71
13
317.33
23
-442.5
33
3.71
0
3DFACE
8
BRANCO
10
317.33
20
-442.5
30
3.71
11
316.68
21
-444.91
31
3.71
12
316.83
22
-445
32
5
13
317.5
23
-442.5
33
5
0
3DFACE
8
BRANCO
10
317.5
20
-442.5
30
5
11
316.83
21
-445
31
5
12
316.83
22
-445
32
42.5
13
317.5
23
-442.5
33
42.5
0
3DFACE
8
BRANCO
10
317.5
20
-442.5
30
42.5
11
316.83
21
-445
31
42.5
12
316.9
22
-445.04
32
43.15
13
317.58
23
-442.5
33
43.15
0
3DFACE
8
BRANCO
10
317.58
20
-442.5
30
43.15
11
316.9
21
-445.04
31
43.15
12
317.12
22
-445.16
32
43.75
13
317.83
23
-442.5
33
43.75
0
3DFACE
8
BRANCO
10
317.83
20
-442.5
30
43.75
11
317.12
21
-445.16
31
43.75
12
317.46
22
-445.36
32
44.27
13
318.23
23
-442.5
33
44.27
0
3DFACE
8
BRANCO
10
318.23
20
-442.5
30
44.27
11
317.46
21
-445.36
31
44.27
12
317.91
22
-445.62
32
44.67
13
318.75
23
-442.5
33
44.67
0
3DFACE
8
BRANCO
10
318.75
20
-442.5
30
44.67
11
317.91
21
-445.62
31
44.67
12
318.43
22
-445.92
32
44.91
13
319.35
23
-442.5
33
44.91
0
3DFACE
8
BRANCO
10
319.35
20
-442.5
30
44.91
11
318.43
21
-445.92
31
44.91
12
318.99
22
-446.25
32
45
13
320
23
-442.5
33
45
0
3DFACE
8
BRANCO
10
313.62
20
-443.14
30
0.17
11
313.14
21
-443.62
31
0.17
12
313.75
22
-444.66
32
0.67
13
314.66
23
-443.75
33
0.67
0
3DFACE
8
BRANCO
10
314.66
20
-443.75
30
0.67
11
313.75
21
-444.66
31
0.67
12
314.27
22
-445.56
32
1.46
13
315.56
23
-444.26
33
1.46
0
3DFACE
8
BRANCO
10
315.56
20
-444.26
30
1.46
11
314.27
21
-445.56
31
1.46
12
314.66
22
-446.25
32
2.5
13
316.25
23
-444.66
33
2.5
0
3DFACE
8
BRANCO
10
316.25
20
-444.66
30
2.5
11
314.66
21
-446.25
31
2.5
12
314.91
22
-446.68
32
3.71
13
316.68
23
-444.91
33
3.71
0
3DFACE
8
BRANCO
10
316.68
20
-444.91
30
3.71
11
314.91
21
-446.68
31
3.71
12
315
22
-446.83
32
5
13
316.83
23
-445
33
5
0
3DFACE
8
BRANCO
10
316.83
20
-445
30
5
11
315
21
-446.83
31
5
12
315
22
-446.83
32
42.5
13
316.83
23
-445
33
42.5
0
3DFACE
8
BRANCO
10
316.83
20
-445
30
42.5
11
315
21
-446.83
31
42.5
12
315.04
22
-446.9
32
43.15
13
316.9
23
-445.04
33
43.15
0
3DFACE
8
BRANCO
10
316.9
20
-445.04
30
43.15
11
315.04
21
-446.9
31
43.15
12
315.16
22
-447.12
32
43.75
13
317.12
23
-445.16
33
43.75
0
3DFACE
8
BRANCO
10
317.12
20
-445.16
30
43.75
11
315.16
21
-447.12
31
43.75
12
315.36
22
-447.46
32
44.27
13
317.46
23
-445.36
33
44.27
0
3DFACE
8
BRANCO
10
317.46
20
-445.36
30
44.27
11
315.36
21
-447.46
31
44.27
12
315.62
22
-447.91
32
44.67
13
317.91
23
-445.62
33
44.67
0
3DFACE
8
BRANCO
10
317.91
20
-445.62
30
44.67
11
315.62
21
-447.91
31
44.67
12
315.92
22
-448.43
32
44.91
13
318.43
23
-445.92
33
44.91
0
3DFACE
8
BRANCO
10
318.43
20
-445.92
30
44.91
11
315.92
21
-448.43
31
44.91
12
316.25
22
-448.99
32
45
13
318.99
23
-446.25
33
45
0
3DFACE
8
BRANCO
10
313.14
20
-443.62
30
0.17
11
312.5
21
-443.79
31
0.17
12
312.5
22
-445
32
0.67
13
313.75
23
-444.66
33
0.67
0
3DFACE
8
BRANCO
10
313.75
20
-444.66
30
0.67
11
312.5
21
-445
31
0.67
12
312.5
22
-446.03
32
1.46
13
314.27
23
-445.56
33
1.46
0
3DFACE
8
BRANCO
10
314.27
20
-445.56
30
1.46
11
312.5
21
-446.03
31
1.46
12
312.5
22
-446.83
32
2.5
13
314.66
23
-446.25
33
2.5
0
3DFACE
8
BRANCO
10
314.66
20
-446.25
30
2.5
11
312.5
21
-446.83
31
2.5
12
312.5
22
-447.32
32
3.71
13
314.91
23
-446.68
33
3.71
0
3DFACE
8
BRANCO
10
314.91
20
-446.68
30
3.71
11
312.5
21
-447.32
31
3.71
12
312.5
22
-447.5
32
5
13
315
23
-446.83
33
5
0
3DFACE
8
BRANCO
10
315
20
-446.83
30
5
11
312.5
21
-447.5
31
5
12
312.5
22
-447.5
32
42.5
13
315
23
-446.83
33
42.5
0
3DFACE
8
BRANCO
10
315
20
-446.83
30
42.5
11
312.5
21
-447.5
31
42.5
12
312.5
22
-447.58
32
43.15
13
315.04
23
-446.9
33
43.15
0
3DFACE
8
BRANCO
10
315.04
20
-446.9
30
43.15
11
312.5
21
-447.58
31
43.15
12
312.5
22
-447.83
32
43.75
13
315.16
23
-447.12
33
43.75
0
3DFACE
8
BRANCO
10
315.16
20
-447.12
30
43.75
11
312.5
21
-447.83
31
43.75
12
312.5
22
-448.23
32
44.27
13
315.36
23
-447.46
33
44.27
0
3DFACE
8
BRANCO
10
315.36
20
-447.46
30
44.27
11
312.5
21
-448.23
31
44.27
12
312.5
22
-448.75
32
44.67
13
315.62
23
-447.91
33
44.67
0
3DFACE
8
BRANCO
10
315.62
20
-447.91
30
44.67
11
312.5
21
-448.75
31
44.67
12
312.5
22
-449.35
32
44.91
13
315.92
23
-448.43
33
44.91
0
3DFACE
8
BRANCO
10
315.92
20
-448.43
30
44.91
11
312.5
21
-449.35
31
44.91
12
312.5
22
-450
32
45
13
316.25
23
-448.99
33
45
0
3DFACE
8
BRANCO
10
312.5
20
-450
30
45
11
245.5
21
-450
31
45
12
245.5
22
-448.75
32
44.67
13
312.5
23
-448.75
33
44.67
0
3DFACE
8
BRANCO
10
312.5
20
-448.75
30
44.67
11
245.5
21
-448.75
31
44.67
12
245.5
22
-447.83
32
43.75
13
312.5
23
-447.83
33
43.75
0
3DFACE
8
BRANCO
10
312.5
20
-447.83
30
43.75
11
245.5
21
-447.83
31
43.75
12
245.5
22
-447.5
32
42.5
13
312.5
23
-447.5
33
42.5
0
3DFACE
8
BRANCO
10
312.5
20
-447.5
30
42.5
11
245.5
21
-447.5
31
42.5
12
245.5
22
-447.5
32
5
13
312.5
23
-447.5
33
5
0
3DFACE
8
BRANCO
10
312.5
20
-447.5
30
5
11
245.5
21
-447.5
31
5
12
245.5
22
-446.83
32
2.5
13
312.5
23
-446.83
33
2.5
0
3DFACE
8
BRANCO
10
312.5
20
-446.83
30
2.5
11
245.5
21
-446.83
31
2.5
12
245.5
22
-445
32
0.67
13
312.5
23
-445
33
0.67
0
3DFACE
8
BRANCO
10
312.5
20
-445
30
0.67
11
245.5
21
-445
31
0.67
12
245.5
22
-442.5
32
0
13
312.5
23
-442.5
33
0
0
3DFACE
8
BRANCO
10
244.2
20
-442.5
30
0.17
11
244.38
21
-443.14
31
0.17
12
243.33
22
-443.75
32
0.67
13
243
23
-442.5
33
0.67
0
3DFACE
8
BRANCO
10
243
20
-442.5
30
0.67
11
243.33
21
-443.75
31
0.67
12
242.44
22
-444.26
32
1.46
13
241.96
23
-442.5
33
1.46
0
3DFACE
8
BRANCO
10
241.96
20
-442.5
30
1.46
11
242.44
21
-444.26
31
1.46
12
241.75
22
-444.66
32
2.5
13
241.17
23
-442.5
33
2.5
0
3DFACE
8
BRANCO
10
241.17
20
-442.5
30
2.5
11
241.75
21
-444.66
31
2.5
12
241.31
22
-444.91
32
3.71
13
240.67
23
-442.5
33
3.71
0
3DFACE
8
BRANCO
10
240.67
20
-442.5
30
3.71
11
241.31
21
-444.91
31
3.71
12
241.17
22
-445
32
5
13
240.5
23
-442.5
33
5
0
3DFACE
8
BRANCO
10
240.5
20
-442.5
30
5
11
241.17
21
-445
31
5
12
241.17
22
-445
32
42.5
13
240.5
23
-442.5
33
42.5
0
3DFACE
8
BRANCO
10
240.5
20
-442.5
30
42.5
11
241.17
21
-445
31
42.5
12
241.09
22
-445.04
32
43.15
13
240.41
23
-442.5
33
43.15
0
3DFACE
8
BRANCO
10
240.41
20
-442.5
30
43.15
11
241.09
21
-445.04
31
43.15
12
240.88
22
-445.16
32
43.75
13
240.16
23
-442.5
33
43.75
0
3DFACE
8
BRANCO
10
240.16
20
-442.5
30
43.75
11
240.88
21
-445.16
31
43.75
12
240.53
22
-445.36
32
44.27
13
239.77
23
-442.5
33
44.27
0
3DFACE
8
BRANCO
10
239.77
20
-442.5
30
44.27
11
240.53
21
-445.36
31
44.27
12
240.08
22
-445.62
32
44.67
13
239.25
23
-442.5
33
44.67
0
3DFACE
8
BRANCO
10
239.25
20
-442.5
30
44.67
11
240.08
21
-445.62
31
44.67
12
239.56
22
-445.92
32
44.91
13
238.64
23
-442.5
33
44.91
0
3DFACE
8
BRANCO
10
238.64
20
-442.5
30
44.91
11
239.56
21
-445.92
31
44.91
12
239
22
-446.25
32
45
13
238
23
-442.5
33
45
0
3DFACE
8
BRANCO
10
244.38
20
-443.14
30
0.17
11
244.85
21
-443.62
31
0.17
12
244.25
22
-444.66
32
0.67
13
243.33
23
-443.75
33
0.67
0
3DFACE
8
BRANCO
10
243.33
20
-443.75
30
0.67
11
244.25
21
-444.66
31
0.67
12
243.73
22
-445.56
32
1.46
13
242.44
23
-444.26
33
1.46
0
3DFACE
8
BRANCO
10
242.44
20
-444.26
30
1.46
11
243.73
21
-445.56
31
1.46
12
243.33
22
-446.25
32
2.5
13
241.75
23
-444.66
33
2.5
0
3DFACE
8
BRANCO
10
241.75
20
-444.66
30
2.5
11
243.33
21
-446.25
31
2.5
12
243.08
22
-446.68
32
3.71
13
241.31
23
-444.91
33
3.71
0
3DFACE
8
BRANCO
10
241.31
20
-444.91
30
3.71
11
243.08
21
-446.68
31
3.71
12
243
22
-446.83
32
5
13
241.17
23
-445
33
5
0
3DFACE
8
BRANCO
10
241.17
20
-445
30
5
11
243
21
-446.83
31
5
12
243
22
-446.83
32
42.5
13
241.17
23
-445
33
42.5
0
3DFACE
8
BRANCO
10
241.17
20
-445
30
42.5
11
243
21
-446.83
31
42.5
12
242.95
22
-446.9
32
43.15
13
241.09
23
-445.04
33
43.15
0
3DFACE
8
BRANCO
10
241.09
20
-445.04
30
43.15
11
242.95
21
-446.9
31
43.15
12
242.83
22
-447.12
32
43.75
13
240.88
23
-445.16
33
43.75
0
3DFACE
8
BRANCO
10
240.88
20
-445.16
30
43.75
11
242.83
21
-447.12
31
43.75
12
242.63
22
-447.46
32
44.27
13
240.53
23
-445.36
33
44.27
0
3DFACE
8
BRANCO
10
240.53
20
-445.36
30
44.27
11
242.63
21
-447.46
31
44.27
12
242.37
22
-447.91
32
44.67
13
240.08
23
-445.62
33
44.67
0
3DFACE
8
BRANCO
10
240.08
20
-445.62
30
44.67
11
242.37
21
-447.91
31
44.67
12
242.07
22
-448.43
32
44.91
13
239.56
23
-445.92
33
44.91
0
3DFACE
8
BRANCO
10
239.56
20
-445.92
30
44.91
11
242.07
21
-448.43
31
44.91
12
241.75
22
-448.99
32
45
13
239
23
-446.25
33
45
0
3DFACE
8
BRANCO
10
244.85
20
-443.62
30
0.17
11
245.5
21
-443.79
31
0.17
12
245.5
22
-445
32
0.67
13
244.25
23
-444.66
33
0.67
0
3DFACE
8
BRANCO
10
244.25
20
-444.66
30
0.67
11
245.5
21
-445
31
0.67
12
245.5
22
-446.03
32
1.46
13
243.73
23
-445.56
33
1.46
0
3DFACE
8
BRANCO
10
243.73
20
-445.56
30
1.46
11
245.5
21
-446.03
31
1.46
12
245.5
22
-446.83
32
2.5
13
243.33
23
-446.25
33
2.5
0
3DFACE
8
BRANCO
10
243.33
20
-446.25
30
2.5
11
245.5
21
-446.83
31
2.5
12
245.5
22
-447.32
32
3.71
13
243.08
23
-446.68
33
3.71
0
3DFACE
8
BRANCO
10
243.08
20
-446.68
30
3.71
11
245.5
21
-447.32
31
3.71
12
245.5
22
-447.5
32
5
13
243
23
-446.83
33
5
0
3DFACE
8
BRANCO
10
243
20
-446.83
30
5
11
245.5
21
-447.5
31
5
12
245.5
22
-447.5
32
42.5
13
243
23
-446.83
33
42.5
0
3DFACE
8
BRANCO
10
243
20
-446.83
30
42.5
11
245.5
21
-447.5
31
42.5
12
245.5
22
-447.58
32
43.15
13
242.95
23
-446.9
33
43.15
0
3DFACE
8
BRANCO
10
242.95
20
-446.9
30
43.15
11
245.5
21
-447.58
31
43.15
12
245.5
22
-447.83
32
43.75
13
242.83
23
-447.12
33
43.75
0
3DFACE
8
BRANCO
10
242.83
20
-447.12
30
43.75
11
245.5
21
-447.83
31
43.75
12
245.5
22
-448.23
32
44.27
13
242.63
23
-447.46
33
44.27
0
3DFACE
8
BRANCO
10
242.63
20
-447.46
30
44.27
11
245.5
21
-448.23
31
44.27
12
245.5
22
-448.75
32
44.67
13
242.37
23
-447.91
33
44.67
0
3DFACE
8
BRANCO
10
242.37
20
-447.91
30
44.67
11
245.5
21
-448.75
31
44.67
12
245.5
22
-449.35
32
44.91
13
242.07
23
-448.43
33
44.91
0
3DFACE
8
BRANCO
10
242.07
20
-448.43
30
44.91
11
245.5
21
-449.35
31
44.91
12
245.5
22
-450
32
45
13
241.75
23
-448.99
33
45
0
3DFACE
8
BRANCO
10
231.79
20
-304.5
30
0.17
11
231.62
21
-303.85
31
0.17
12
232.66
22
-303.25
32
0.67
13
233
23
-304.5
33
0.67
0
3DFACE
8
BRANCO
10
233
20
-304.5
30
0.67
11
232.66
21
-303.25
31
0.67
12
233.56
22
-302.73
32
1.46
13
234.03
23
-304.5
33
1.46
0
3DFACE
8
BRANCO
10
234.03
20
-304.5
30
1.46
11
233.56
21
-302.73
31
1.46
12
234.25
22
-302.33
32
2.5
13
234.83
23
-304.5
33
2.5
0
3DFACE
8
BRANCO
10
234.83
20
-304.5
30
2.5
11
234.25
21
-302.33
31
2.5
12
234.68
22
-302.08
32
3.71
13
235.33
23
-304.5
33
3.71
0
3DFACE
8
BRANCO
10
235.33
20
-304.5
30
3.71
11
234.68
21
-302.08
31
3.71
12
234.83
22
-302
32
5
13
235.5
23
-304.5
33
5
0
3DFACE
8
BRANCO
10
235.5
20
-304.5
30
5
11
234.83
21
-302
31
5
12
234.83
22
-302
32
42.5
13
235.5
23
-304.5
33
42.5
0
3DFACE
8
BRANCO
10
235.5
20
-304.5
30
42.5
11
234.83
21
-302
31
42.5
12
234.9
22
-301.95
32
43.15
13
235.58
23
-304.5
33
43.15
0
3DFACE
8
BRANCO
10
235.58
20
-304.5
30
43.15
11
234.9
21
-301.95
31
43.15
12
235.12
22
-301.83
32
43.75
13
235.83
23
-304.5
33
43.75
0
3DFACE
8
BRANCO
10
235.83
20
-304.5
30
43.75
11
235.12
21
-301.83
31
43.75
12
235.46
22
-301.63
32
44.27
13
236.23
23
-304.5
33
44.27
0
3DFACE
8
BRANCO
10
236.23
20
-304.5
30
44.27
11
235.46
21
-301.63
31
44.27
12
235.91
22
-301.37
32
44.67
13
236.75
23
-304.5
33
44.67
0
3DFACE
8
BRANCO
10
236.75
20
-304.5
30
44.67
11
235.91
21
-301.37
31
44.67
12
236.43
22
-301.07
32
44.91
13
237.35
23
-304.5
33
44.91
0
3DFACE
8
BRANCO
10
237.35
20
-304.5
30
44.91
11
236.43
21
-301.07
31
44.91
12
236.99
22
-300.75
32
45
13
238
23
-304.5
33
45
0
3DFACE
8
BRANCO
10
231.62
20
-303.85
30
0.17
11
231.14
21
-303.37
31
0.17
12
231.75
22
-302.33
32
0.67
13
232.66
23
-303.25
33
0.67
0
3DFACE
8
BRANCO
10
232.66
20
-303.25
30
0.67
11
231.75
21
-302.33
31
0.67
12
232.27
22
-301.43
32
1.46
13
233.56
23
-302.73
33
1.46
0
3DFACE
8
BRANCO
10
233.56
20
-302.73
30
1.46
11
232.27
21
-301.43
31
1.46
12
232.66
22
-300.75
32
2.5
13
234.25
23
-302.33
33
2.5
0
3DFACE
8
BRANCO
10
234.25
20
-302.33
30
2.5
11
232.66
21
-300.75
31
2.5
12
232.91
22
-300.31
32
3.71
13
234.68
23
-302.08
33
3.71
0
3DFACE
8
BRANCO
10
234.68
20
-302.08
30
3.71
11
232.91
21
-300.31
31
3.71
12
233
22
-300.16
32
5
13
234.83
23
-302
33
5
0
3DFACE
8
BRANCO
10
234.83
20
-302
30
5
11
233
21
-300.16
31
5
12
233
22
-300.16
32
42.5
13
234.83
23
-302
33
42.5
0
3DFACE
8
BRANCO
10
234.83
20
-302
30
42.5
11
233
21
-300.16
31
42.5
12
233.04
22
-300.09
32
43.15
13
234.9
23
-301.95
33
43.15
0
3DFACE
8
BRANCO
10
234.9
20
-301.95
30
43.15
11
233.04
21
-300.09
31
43.15
12
233.16
22
-299.87
32
43.75
13
235.12
23
-301.83
33
43.75
0
3DFACE
8
BRANCO
10
235.12
20
-301.83
30
43.75
11
233.16
21
-299.87
31
43.75
12
233.36
22
-299.53
32
44.27
13
235.46
23
-301.63
33
44.27
0
3DFACE
8
BRANCO
10
235.46
20
-301.63
30
44.27
11
233.36
21
-299.53
31
44.27
12
233.62
22
-299.08
32
44.67
13
235.91
23
-301.37
33
44.67
0
3DFACE
8
BRANCO
10
235.91
20
-301.37
30
44.67
11
233.62
21
-299.08
31
44.67
12
233.92
22
-298.56
32
44.91
13
236.43
23
-301.07
33
44.91
0
3DFACE
8
BRANCO
10
236.43
20
-301.07
30
44.91
11
233.92
21
-298.56
31
44.91
12
234.25
22
-298
32
45
13
236.99
23
-300.75
33
45
0
3DFACE
8
BRANCO
10
231.14
20
-303.37
30
0.17
11
230.5
21
-303.2
31
0.17
12
230.5
22
-302
32
0.67
13
231.75
23
-302.33
33
0.67
0
3DFACE
8
BRANCO
10
231.75
20
-302.33
30
0.67
11
230.5
21
-302
31
0.67
12
230.5
22
-300.96
32
1.46
13
232.27
23
-301.43
33
1.46
0
3DFACE
8
BRANCO
10
232.27
20
-301.43
30
1.46
11
230.5
21
-300.96
31
1.46
12
230.5
22
-300.16
32
2.5
13
232.66
23
-300.75
33
2.5
0
3DFACE
8
BRANCO
10
232.66
20
-300.75
30
2.5
11
230.5
21
-300.16
31
2.5
12
230.5
22
-299.67
32
3.71
13
232.91
23
-300.31
33
3.71
0
3DFACE
8
BRANCO
10
232.91
20
-300.31
30
3.71
11
230.5
21
-299.67
31
3.71
12
230.5
22
-299.5
32
5
13
233
23
-300.16
33
5
0
3DFACE
8
BRANCO
10
233
20
-300.16
30
5
11
230.5
21
-299.5
31
5
12
230.5
22
-299.5
32
42.5
13
233
23
-300.16
33
42.5
0
3DFACE
8
BRANCO
10
233
20
-300.16
30
42.5
11
230.5
21
-299.5
31
42.5
12
230.5
22
-299.41
32
43.15
13
233.04
23
-300.09
33
43.15
0
3DFACE
8
BRANCO
10
233.04
20
-300.09
30
43.15
11
230.5
21
-299.41
31
43.15
12
230.5
22
-299.16
32
43.75
13
233.16
23
-299.87
33
43.75
0
3DFACE
8
BRANCO
10
233.16
20
-299.87
30
43.75
11
230.5
21
-299.16
31
43.75
12
230.5
22
-298.76
32
44.27
13
233.36
23
-299.53
33
44.27
0
3DFACE
8
BRANCO
10
233.36
20
-299.53
30
44.27
11
230.5
21
-298.76
31
44.27
12
230.5
22
-298.25
32
44.67
13
233.62
23
-299.08
33
44.67
0
3DFACE
8
BRANCO
10
233.62
20
-299.08
30
44.67
11
230.5
21
-298.25
31
44.67
12
230.5
22
-297.64
32
44.91
13
233.92
23
-298.56
33
44.91
0
3DFACE
8
BRANCO
10
233.92
20
-298.56
30
44.91
11
230.5
21
-297.64
31
44.91
12
230.5
22
-297
32
45
13
234.25
23
-298
33
45
0
3DFACE
8
BRANCO
10
231.79
20
-366.5
30
0.17
11
231.62
21
-367.14
31
0.17
12
232.66
22
-367.75
32
0.67
13
233
23
-366.5
33
0.67
0
3DFACE
8
BRANCO
10
233
20
-366.5
30
0.67
11
232.66
21
-367.75
31
0.67
12
233.56
22
-368.26
32
1.46
13
234.03
23
-366.5
33
1.46
0
3DFACE
8
BRANCO
10
234.03
20
-366.5
30
1.46
11
233.56
21
-368.26
31
1.46
12
234.25
22
-368.66
32
2.5
13
234.83
23
-366.5
33
2.5
0
3DFACE
8
BRANCO
10
234.83
20
-366.5
30
2.5
11
234.25
21
-368.66
31
2.5
12
234.68
22
-368.91
32
3.71
13
235.33
23
-366.5
33
3.71
0
3DFACE
8
BRANCO
10
235.33
20
-366.5
30
3.71
11
234.68
21
-368.91
31
3.71
12
234.83
22
-369
32
5
13
235.5
23
-366.5
33
5
0
3DFACE
8
BRANCO
10
235.5
20
-366.5
30
5
11
234.83
21
-369
31
5
12
234.83
22
-369
32
42.5
13
235.5
23
-366.5
33
42.5
0
3DFACE
8
BRANCO
10
235.5
20
-366.5
30
42.5
11
234.83
21
-369
31
42.5
12
234.9
22
-369.04
32
43.15
13
235.58
23
-366.5
33
43.15
0
3DFACE
8
BRANCO
10
235.58
20
-366.5
30
43.15
11
234.9
21
-369.04
31
43.15
12
235.12
22
-369.16
32
43.75
13
235.83
23
-366.5
33
43.75
0
3DFACE
8
BRANCO
10
235.83
20
-366.5
30
43.75
11
235.12
21
-369.16
31
43.75
12
235.46
22
-369.36
32
44.27
13
236.23
23
-366.5
33
44.27
0
3DFACE
8
BRANCO
10
236.23
20
-366.5
30
44.27
11
235.46
21
-369.36
31
44.27
12
235.91
22
-369.62
32
44.67
13
236.75
23
-366.5
33
44.67
0
3DFACE
8
BRANCO
10
236.75
20
-366.5
30
44.67
11
235.91
21
-369.62
31
44.67
12
236.43
22
-369.92
32
44.91
13
237.35
23
-366.5
33
44.91
0
3DFACE
8
BRANCO
10
237.35
20
-366.5
30
44.91
11
236.43
21
-369.92
31
44.91
12
236.99
22
-370.25
32
45
13
238
23
-366.5
33
45
0
3DFACE
8
BRANCO
10
231.62
20
-367.14
30
0.17
11
231.14
21
-367.62
31
0.17
12
231.75
22
-368.66
32
0.67
13
232.66
23
-367.75
33
0.67
0
3DFACE
8
BRANCO
10
232.66
20
-367.75
30
0.67
11
231.75
21
-368.66
31
0.67
12
232.27
22
-369.56
32
1.46
13
233.56
23
-368.26
33
1.46
0
3DFACE
8
BRANCO
10
233.56
20
-368.26
30
1.46
11
232.27
21
-369.56
31
1.46
12
232.66
22
-370.25
32
2.5
13
234.25
23
-368.66
33
2.5
0
3DFACE
8
BRANCO
10
234.25
20
-368.66
30
2.5
11
232.66
21
-370.25
31
2.5
12
232.91
22
-370.68
32
3.71
13
234.68
23
-368.91
33
3.71
0
3DFACE
8
BRANCO
10
234.68
20
-368.91
30
3.71
11
232.91
21
-370.68
31
3.71
12
233
22
-370.83
32
5
13
234.83
23
-369
33
5
0
3DFACE
8
BRANCO
10
234.83
20
-369
30
5
11
233
21
-370.83
31
5
12
233
22
-370.83
32
42.5
13
234.83
23
-369
33
42.5
0
3DFACE
8
BRANCO
10
234.83
20
-369
30
42.5
11
233
21
-370.83
31
42.5
12
233.04
22
-370.9
32
43.15
13
234.9
23
-369.04
33
43.15
0
3DFACE
8
BRANCO
10
234.9
20
-369.04
30
43.15
11
233.04
21
-370.9
31
43.15
12
233.16
22
-371.12
32
43.75
13
235.12
23
-369.16
33
43.75
0
3DFACE
8
BRANCO
10
235.12
20
-369.16
30
43.75
11
233.16
21
-371.12
31
43.75
12
233.36
22
-371.46
32
44.27
13
235.46
23
-369.36
33
44.27
0
3DFACE
8
BRANCO
10
235.46
20
-369.36
30
44.27
11
233.36
21
-371.46
31
44.27
12
233.62
22
-371.91
32
44.67
13
235.91
23
-369.62
33
44.67
0
3DFACE
8
BRANCO
10
235.91
20
-369.62
30
44.67
11
233.62
21
-371.91
31
44.67
12
233.92
22
-372.43
32
44.91
13
236.43
23
-369.92
33
44.91
0
3DFACE
8
BRANCO
10
236.43
20
-369.92
30
44.91
11
233.92
21
-372.43
31
44.91
12
234.25
22
-372.99
32
45
13
236.99
23
-370.25
33
45
0
3DFACE
8
BRANCO
10
231.14
20
-367.62
30
0.17
11
230.5
21
-367.79
31
0.17
12
230.5
22
-369
32
0.67
13
231.75
23
-368.66
33
0.67
0
3DFACE
8
BRANCO
10
231.75
20
-368.66
30
0.67
11
230.5
21
-369
31
0.67
12
230.5
22
-370.03
32
1.46
13
232.27
23
-369.56
33
1.46
0
3DFACE
8
BRANCO
10
232.27
20
-369.56
30
1.46
11
230.5
21
-370.03
31
1.46
12
230.5
22
-370.83
32
2.5
13
232.66
23
-370.25
33
2.5
0
3DFACE
8
BRANCO
10
232.66
20
-370.25
30
2.5
11
230.5
21
-370.83
31
2.5
12
230.5
22
-371.32
32
3.71
13
232.91
23
-370.68
33
3.71
0
3DFACE
8
BRANCO
10
232.91
20
-370.68
30
3.71
11
230.5
21
-371.32
31
3.71
12
230.5
22
-371.5
32
5
13
233
23
-370.83
33
5
0
3DFACE
8
BRANCO
10
233
20
-370.83
30
5
11
230.5
21
-371.5
31
5
12
230.5
22
-371.5
32
42.5
13
233
23
-370.83
33
42.5
0
3DFACE
8
BRANCO
10
233
20
-370.83
30
42.5
11
230.5
21
-371.5
31
42.5
12
230.5
22
-371.58
32
43.15
13
233.04
23
-370.9
33
43.15
0
3DFACE
8
BRANCO
10
233.04
20
-370.9
30
43.15
11
230.5
21
-371.58
31
43.15
12
230.5
22
-371.83
32
43.75
13
233.16
23
-371.12
33
43.75
0
3DFACE
8
BRANCO
10
233.16
20
-371.12
30
43.75
11
230.5
21
-371.83
31
43.75
12
230.5
22
-372.23
32
44.27
13
233.36
23
-371.46
33
44.27
0
3DFACE
8
BRANCO
10
233.36
20
-371.46
30
44.27
11
230.5
21
-372.23
31
44.27
12
230.5
22
-372.75
32
44.67
13
233.62
23
-371.91
33
44.67
0
3DFACE
8
BRANCO
10
233.62
20
-371.91
30
44.67
11
230.5
21
-372.75
31
44.67
12
230.5
22
-373.35
32
44.91
13
233.92
23
-372.43
33
44.91
0
3DFACE
8
BRANCO
10
233.92
20
-372.43
30
44.91
11
230.5
21
-373.35
31
44.91
12
230.5
22
-374
32
45
13
234.25
23
-372.99
33
45
0
3DFACE
8
BRANCO
10
0
20
-304.5
30
45
11
0
21
-366.5
31
45
12
1.25
22
-366.5
32
44.67
13
1.25
23
-304.5
33
44.67
0
3DFACE
8
BRANCO
10
1.25
20
-304.5
30
44.67
11
1.25
21
-366.5
31
44.67
12
2.16
22
-366.5
32
43.75
13
2.16
23
-304.5
33
43.75
0
3DFACE
8
BRANCO
10
2.16
20
-304.5
30
43.75
11
2.16
21
-366.5
31
43.75
12
2.5
22
-366.5
32
42.5
13
2.5
23
-304.5
33
42.5
0
3DFACE
8
BRANCO
10
2.5
20
-304.5
30
42.5
11
2.5
21
-366.5
31
42.5
12
2.5
22
-366.5
32
5
13
2.5
23
-304.5
33
5
0
3DFACE
8
BRANCO
10
2.5
20
-304.5
30
5
11
2.5
21
-366.5
31
5
12
3.17
22
-366.5
32
2.5
13
3.17
23
-304.5
33
2.5
0
3DFACE
8
BRANCO
10
3.17
20
-304.5
30
2.5
11
3.17
21
-366.5
31
2.5
12
5
22
-366.5
32
0.67
13
5
23
-304.5
33
0.67
0
3DFACE
8
BRANCO
10
5
20
-304.5
30
0.67
11
5
21
-366.5
31
0.67
12
7.5
22
-366.5
32
0
13
7.5
23
-304.5
33
0
0
3DFACE
8
BRANCO
10
6.2
20
-366.5
30
0.17
11
6.38
21
-367.14
31
0.17
12
5.33
22
-367.75
32
0.67
13
5
23
-366.5
33
0.67
0
3DFACE
8
BRANCO
10
5
20
-366.5
30
0.67
11
5.33
21
-367.75
31
0.67
12
4.44
22
-368.26
32
1.46
13
3.96
23
-366.5
33
1.46
0
3DFACE
8
BRANCO
10
3.96
20
-366.5
30
1.46
11
4.44
21
-368.26
31
1.46
12
3.75
22
-368.66
32
2.5
13
3.17
23
-366.5
33
2.5
0
3DFACE
8
BRANCO
10
3.17
20
-366.5
30
2.5
11
3.75
21
-368.66
31
2.5
12
3.31
22
-368.91
32
3.71
13
2.67
23
-366.5
33
3.71
0
3DFACE
8
BRANCO
10
2.67
20
-366.5
30
3.71
11
3.31
21
-368.91
31
3.71
12
3.17
22
-369
32
5
13
2.5
23
-366.5
33
5
0
3DFACE
8
BRANCO
10
2.5
20
-366.5
30
5
11
3.17
21
-369
31
5
12
3.17
22
-369
32
42.5
13
2.5
23
-366.5
33
42.5
0
3DFACE
8
BRANCO
10
2.5
20
-366.5
30
42.5
11
3.17
21
-369
31
42.5
12
3.09
22
-369.04
32
43.15
13
2.41
23
-366.5
33
43.15
0
3DFACE
8
BRANCO
10
2.41
20
-366.5
30
43.15
11
3.09
21
-369.04
31
43.15
12
2.88
22
-369.16
32
43.75
13
2.16
23
-366.5
33
43.75
0
3DFACE
8
BRANCO
10
2.16
20
-366.5
30
43.75
11
2.88
21
-369.16
31
43.75
12
2.53
22
-369.36
32
44.27
13
1.77
23
-366.5
33
44.27
0
3DFACE
8
BRANCO
10
1.77
20
-366.5
30
44.27
11
2.53
21
-369.36
31
44.27
12
2.08
22
-369.62
32
44.67
13
1.25
23
-366.5
33
44.67
0
3DFACE
8
BRANCO
10
1.25
20
-366.5
30
44.67
11
2.08
21
-369.62
31
44.67
12
1.56
22
-369.92
32
44.91
13
0.64
23
-366.5
33
44.91
0
3DFACE
8
BRANCO
10
0.64
20
-366.5
30
44.91
11
1.56
21
-369.92
31
44.91
12
1
22
-370.25
32
45
13
0
23
-366.5
33
45
0
3DFACE
8
BRANCO
10
6.38
20
-367.14
30
0.17
11
6.85
21
-367.62
31
0.17
12
6.25
22
-368.66
32
0.67
13
5.33
23
-367.75
33
0.67
0
3DFACE
8
BRANCO
10
5.33
20
-367.75
30
0.67
11
6.25
21
-368.66
31
0.67
12
5.73
22
-369.56
32
1.46
13
4.44
23
-368.26
33
1.46
0
3DFACE
8
BRANCO
10
4.44
20
-368.26
30
1.46
11
5.73
21
-369.56
31
1.46
12
5.33
22
-370.25
32
2.5
13
3.75
23
-368.66
33
2.5
0
3DFACE
8
BRANCO
10
3.75
20
-368.66
30
2.5
11
5.33
21
-370.25
31
2.5
12
5.08
22
-370.68
32
3.71
13
3.31
23
-368.91
33
3.71
0
3DFACE
8
BRANCO
10
3.31
20
-368.91
30
3.71
11
5.08
21
-370.68
31
3.71
12
5
22
-370.83
32
5
13
3.17
23
-369
33
5
0
3DFACE
8
BRANCO
10
3.17
20
-369
30
5
11
5
21
-370.83
31
5
12
5
22
-370.83
32
42.5
13
3.17
23
-369
33
42.5
0
3DFACE
8
BRANCO
10
3.17
20
-369
30
42.5
11
5
21
-370.83
31
42.5
12
4.95
22
-370.9
32
43.15
13
3.09
23
-369.04
33
43.15
0
3DFACE
8
BRANCO
10
3.09
20
-369.04
30
43.15
11
4.95
21
-370.9
31
43.15
12
4.83
22
-371.12
32
43.75
13
2.88
23
-369.16
33
43.75
0
3DFACE
8
BRANCO
10
2.88
20
-369.16
30
43.75
11
4.83
21
-371.12
31
43.75
12
4.63
22
-371.46
32
44.27
13
2.53
23
-369.36
33
44.27
0
3DFACE
8
BRANCO
10
2.53
20
-369.36
30
44.27
11
4.63
21
-371.46
31
44.27
12
4.37
22
-371.91
32
44.67
13
2.08
23
-369.62
33
44.67
0
3DFACE
8
BRANCO
10
2.08
20
-369.62
30
44.67
11
4.37
21
-371.91
31
44.67
12
4.07
22
-372.43
32
44.91
13
1.56
23
-369.92
33
44.91
0
3DFACE
8
BRANCO
10
1.56
20
-369.92
30
44.91
11
4.07
21
-372.43
31
44.91
12
3.75
22
-372.99
32
45
13
1
23
-370.25
33
45
0
3DFACE
8
BRANCO
10
6.85
20
-367.62
30
0.17
11
7.5
21
-367.79
31
0.17
12
7.5
22
-369
32
0.67
13
6.25
23
-368.66
33
0.67
0
3DFACE
8
BRANCO
10
6.25
20
-368.66
30
0.67
11
7.5
21
-369
31
0.67
12
7.5
22
-370.03
32
1.46
13
5.73
23
-369.56
33
1.46
0
3DFACE
8
BRANCO
10
5.73
20
-369.56
30
1.46
11
7.5
21
-370.03
31
1.46
12
7.5
22
-370.83
32
2.5
13
5.33
23
-370.25
33
2.5
0
3DFACE
8
BRANCO
10
5.33
20
-370.25
30
2.5
11
7.5
21
-370.83
31
2.5
12
7.5
22
-371.32
32
3.71
13
5.08
23
-370.68
33
3.71
0
3DFACE
8
BRANCO
10
5.08
20
-370.68
30
3.71
11
7.5
21
-371.32
31
3.71
12
7.5
22
-371.5
32
5
13
5
23
-370.83
33
5
0
3DFACE
8
BRANCO
10
5
20
-370.83
30
5
11
7.5
21
-371.5
31
5
12
7.5
22
-371.5
32
42.5
13
5
23
-370.83
33
42.5
0
3DFACE
8
BRANCO
10
5
20
-370.83
30
42.5
11
7.5
21
-371.5
31
42.5
12
7.5
22
-371.58
32
43.15
13
4.95
23
-370.9
33
43.15
0
3DFACE
8
BRANCO
10
4.95
20
-370.9
30
43.15
11
7.5
21
-371.58
31
43.15
12
7.5
22
-371.83
32
43.75
13
4.83
23
-371.12
33
43.75
0
3DFACE
8
BRANCO
10
4.83
20
-371.12
30
43.75
11
7.5
21
-371.83
31
43.75
12
7.5
22
-372.23
32
44.27
13
4.63
23
-371.46
33
44.27
0
3DFACE
8
BRANCO
10
4.63
20
-371.46
30
44.27
11
7.5
21
-372.23
31
44.27
12
7.5
22
-372.75
32
44.67
13
4.37
23
-371.91
33
44.67
0
3DFACE
8
BRANCO
10
4.37
20
-371.91
30
44.67
11
7.5
21
-372.75
31
44.67
12
7.5
22
-373.35
32
44.91
13
4.07
23
-372.43
33
44.91
0
3DFACE
8
BRANCO
10
4.07
20
-372.43
30
44.91
11
7.5
21
-373.35
31
44.91
12
7.5
22
-374
32
45
13
3.75
23
-372.99
33
45
0
3DFACE
8
BRANCO
10
6.2
20
-304.5
30
0.17
11
6.38
21
-303.85
31
0.17
12
5.33
22
-303.25
32
0.67
13
5
23
-304.5
33
0.67
0
3DFACE
8
BRANCO
10
5
20
-304.5
30
0.67
11
5.33
21
-303.25
31
0.67
12
4.44
22
-302.73
32
1.46
13
3.96
23
-304.5
33
1.46
0
3DFACE
8
BRANCO
10
3.96
20
-304.5
30
1.46
11
4.44
21
-302.73
31
1.46
12
3.75
22
-302.33
32
2.5
13
3.17
23
-304.5
33
2.5
0
3DFACE
8
BRANCO
10
3.17
20
-304.5
30
2.5
11
3.75
21
-302.33
31
2.5
12
3.31
22
-302.08
32
3.71
13
2.67
23
-304.5
33
3.71
0
3DFACE
8
BRANCO
10
2.67
20
-304.5
30
3.71
11
3.31
21
-302.08
31
3.71
12
3.17
22
-302
32
5
13
2.5
23
-304.5
33
5
0
3DFACE
8
BRANCO
10
2.5
20
-304.5
30
5
11
3.17
21
-302
31
5
12
3.17
22
-302
32
42.5
13
2.5
23
-304.5
33
42.5
0
3DFACE
8
BRANCO
10
2.5
20
-304.5
30
42.5
11
3.17
21
-302
31
42.5
12
3.09
22
-301.95
32
43.15
13
2.41
23
-304.5
33
43.15
0
3DFACE
8
BRANCO
10
2.41
20
-304.5
30
43.15
11
3.09
21
-301.95
31
43.15
12
2.88
22
-301.83
32
43.75
13
2.16
23
-304.5
33
43.75
0
3DFACE
8
BRANCO
10
2.16
20
-304.5
30
43.75
11
2.88
21
-301.83
31
43.75
12
2.53
22
-301.63
32
44.27
13
1.77
23
-304.5
33
44.27
0
3DFACE
8
BRANCO
10
1.77
20
-304.5
30
44.27
11
2.53
21
-301.63
31
44.27
12
2.08
22
-301.37
32
44.67
13
1.25
23
-304.5
33
44.67
0
3DFACE
8
BRANCO
10
1.25
20
-304.5
30
44.67
11
2.08
21
-301.37
31
44.67
12
1.56
22
-301.07
32
44.91
13
0.64
23
-304.5
33
44.91
0
3DFACE
8
BRANCO
10
0.64
20
-304.5
30
44.91
11
1.56
21
-301.07
31
44.91
12
1
22
-300.75
32
45
13
0
23
-304.5
33
45
0
3DFACE
8
BRANCO
10
6.38
20
-303.85
30
0.17
11
6.85
21
-303.37
31
0.17
12
6.25
22
-302.33
32
0.67
13
5.33
23
-303.25
33
0.67
0
3DFACE
8
BRANCO
10
5.33
20
-303.25
30
0.67
11
6.25
21
-302.33
31
0.67
12
5.73
22
-301.43
32
1.46
13
4.44
23
-302.73
33
1.46
0
3DFACE
8
BRANCO
10
4.44
20
-302.73
30
1.46
11
5.73
21
-301.43
31
1.46
12
5.33
22
-300.75
32
2.5
13
3.75
23
-302.33
33
2.5
0
3DFACE
8
BRANCO
10
3.75
20
-302.33
30
2.5
11
5.33
21
-300.75
31
2.5
12
5.08
22
-300.31
32
3.71
13
3.31
23
-302.08
33
3.71
0
3DFACE
8
BRANCO
10
3.31
20
-302.08
30
3.71
11
5.08
21
-300.31
31
3.71
12
5
22
-300.16
32
5
13
3.17
23
-302
33
5
0
3DFACE
8
BRANCO
10
3.17
20
-302
30
5
11
5
21
-300.16
31
5
12
5
22
-300.16
32
42.5
13
3.17
23
-302
33
42.5
0
3DFACE
8
BRANCO
10
3.17
20
-302
30
42.5
11
5
21
-300.16
31
42.5
12
4.95
22
-300.09
32
43.15
13
3.09
23
-301.95
33
43.15
0
3DFACE
8
BRANCO
10
3.09
20
-301.95
30
43.15
11
4.95
21
-300.09
31
43.15
12
4.83
22
-299.87
32
43.75
13
2.88
23
-301.83
33
43.75
0
3DFACE
8
BRANCO
10
2.88
20
-301.83
30
43.75
11
4.83
21
-299.87
31
43.75
12
4.63
22
-299.53
32
44.27
13
2.53
23
-301.63
33
44.27
0
3DFACE
8
BRANCO
10
2.53
20
-301.63
30
44.27
11
4.63
21
-299.53
31
44.27
12
4.37
22
-299.08
32
44.67
13
2.08
23
-301.37
33
44.67
0
3DFACE
8
BRANCO
10
2.08
20
-301.37
30
44.67
11
4.37
21
-299.08
31
44.67
12
4.07
22
-298.56
32
44.91
13
1.56
23
-301.07
33
44.91
0
3DFACE
8
BRANCO
10
1.56
20
-301.07
30
44.91
11
4.07
21
-298.56
31
44.91
12
3.75
22
-298
32
45
13
1
23
-300.75
33
45
0
3DFACE
8
BRANCO
10
6.85
20
-303.37
30
0.17
11
7.5
21
-303.2
31
0.17
12
7.5
22
-302
32
0.67
13
6.25
23
-302.33
33
0.67
0
3DFACE
8
BRANCO
10
6.25
20
-302.33
30
0.67
11
7.5
21
-302
31
0.67
12
7.5
22
-300.96
32
1.46
13
5.73
23
-301.43
33
1.46
0
3DFACE
8
BRANCO
10
5.73
20
-301.43
30
1.46
11
7.5
21
-300.96
31
1.46
12
7.5
22
-300.16
32
2.5
13
5.33
23
-300.75
33
2.5
0
3DFACE
8
BRANCO
10
5.33
20
-300.75
30
2.5
11
7.5
21
-300.16
31
2.5
12
7.5
22
-299.67
32
3.71
13
5.08
23
-300.31
33
3.71
0
3DFACE
8
BRANCO
10
5.08
20
-300.31
30
3.71
11
7.5
21
-299.67
31
3.71
12
7.5
22
-299.5
32
5
13
5
23
-300.16
33
5
0
3DFACE
8
BRANCO
10
5
20
-300.16
30
5
11
7.5
21
-299.5
31
5
12
7.5
22
-299.5
32
42.5
13
5
23
-300.16
33
42.5
0
3DFACE
8
BRANCO
10
5
20
-300.16
30
42.5
11
7.5
21
-299.5
31
42.5
12
7.5
22
-299.41
32
43.15
13
4.95
23
-300.09
33
43.15
0
3DFACE
8
BRANCO
10
4.95
20
-300.09
30
43.15
11
7.5
21
-299.41
31
43.15
12
7.5
22
-299.16
32
43.75
13
4.83
23
-299.87
33
43.75
0
3DFACE
8
BRANCO
10
4.83
20
-299.87
30
43.75
11
7.5
21
-299.16
31
43.75
12
7.5
22
-298.76
32
44.27
13
4.63
23
-299.53
33
44.27
0
3DFACE
8
BRANCO
10
4.63
20
-299.53
30
44.27
11
7.5
21
-298.76
31
44.27
12
7.5
22
-298.25
32
44.67
13
4.37
23
-299.08
33
44.67
0
3DFACE
8
BRANCO
10
4.37
20
-299.08
30
44.67
11
7.5
21
-298.25
31
44.67
12
7.5
22
-297.64
32
44.91
13
4.07
23
-298.56
33
44.91
0
3DFACE
8
BRANCO
10
4.07
20
-298.56
30
44.91
11
7.5
21
-297.64
31
44.91
12
7.5
22
-297
32
45
13
3.75
23
-298
33
45
0
3DFACE
8
BRANCO
10
7.5
20
-374
30
45
11
230.5
21
-374
31
45
12
230.5
22
-372.75
32
44.67
13
7.5
23
-372.75
33
44.67
0
3DFACE
8
BRANCO
10
7.5
20
-372.75
30
44.67
11
230.5
21
-372.75
31
44.67
12
230.5
22
-371.83
32
43.75
13
7.5
23
-371.83
33
43.75
0
3DFACE
8
BRANCO
10
7.5
20
-371.83
30
43.75
11
230.5
21
-371.83
31
43.75
12
230.5
22
-371.5
32
42.5
13
7.5
23
-371.5
33
42.5
0
3DFACE
8
BRANCO
10
7.5
20
-371.5
30
42.5
11
230.5
21
-371.5
31
42.5
12
230.5
22
-371.5
32
5
13
7.5
23
-371.5
33
5
0
3DFACE
8
BRANCO
10
7.5
20
-371.5
30
5
11
230.5
21
-371.5
31
5
12
230.5
22
-370.83
32
2.5
13
7.5
23
-370.83
33
2.5
0
3DFACE
8
BRANCO
10
7.5
20
-370.83
30
2.5
11
230.5
21
-370.83
31
2.5
12
230.5
22
-369
32
0.67
13
7.5
23
-369
33
0.67
0
3DFACE
8
BRANCO
10
7.5
20
-369
30
0.67
11
230.5
21
-369
31
0.67
12
230.5
22
-366.5
32
0
13
7.5
23
-366.5
33
0
0
3DFACE
8
BRANCO
10
7.5
20
-297
30
45
11
230.5
21
-297
31
45
12
230.5
22
-298.25
32
44.67
13
7.5
23
-298.25
33
44.67
0
3DFACE
8
BRANCO
10
7.5
20
-298.25
30
44.67
11
230.5
21
-298.25
31
44.67
12
230.5
22
-299.16
32
43.75
13
7.5
23
-299.16
33
43.75
0
3DFACE
8
BRANCO
10
7.5
20
-299.16
30
43.75
11
230.5
21
-299.16
31
43.75
12
230.5
22
-299.5
32
42.5
13
7.5
23
-299.5
33
42.5
0
3DFACE
8
BRANCO
10
7.5
20
-299.5
30
42.5
11
230.5
21
-299.5
31
42.5
12
230.5
22
-299.5
32
5
13
7.5
23
-299.5
33
5
0
3DFACE
8
BRANCO
10
7.5
20
-299.5
30
5
11
230.5
21
-299.5
31
5
12
230.5
22
-300.16
32
2.5
13
7.5
23
-300.16
33
2.5
0
3DFACE
8
BRANCO
10
7.5
20
-300.16
30
2.5
11
230.5
21
-300.16
31
2.5
12
230.5
22
-302
32
0.67
13
7.5
23
-302
33
0.67
0
3DFACE
8
BRANCO
10
7.5
20
-302
30
0.67
11
230.5
21
-302
31
0.67
12
230.5
22
-304.5
32
0
13
7.5
23
-304.5
33
0
0
3DFACE
8
BRANCO
10
7.5
20
-374
30
45
11
230.5
21
-374
31
45
12
230.5
22
-375.25
32
44.67
13
7.5
23
-375.25
33
44.67
0
3DFACE
8
BRANCO
10
7.5
20
-375.25
30
44.67
11
230.5
21
-375.25
31
44.67
12
230.5
22
-376.16
32
43.75
13
7.5
23
-376.16
33
43.75
0
3DFACE
8
BRANCO
10
7.5
20
-376.16
30
43.75
11
230.5
21
-376.16
31
43.75
12
230.5
22
-376.5
32
42.5
13
7.5
23
-376.5
33
42.5
0
3DFACE
8
BRANCO
10
7.5
20
-376.5
30
42.5
11
230.5
21
-376.5
31
42.5
12
230.5
22
-376.5
32
5
13
7.5
23
-376.5
33
5
0
3DFACE
8
BRANCO
10
7.5
20
-376.5
30
5
11
230.5
21
-376.5
31
5
12
230.5
22
-377.16
32
2.5
13
7.5
23
-377.16
33
2.5
0
3DFACE
8
BRANCO
10
7.5
20
-377.16
30
2.5
11
230.5
21
-377.16
31
2.5
12
230.5
22
-379
32
0.67
13
7.5
23
-379
33
0.67
0
3DFACE
8
BRANCO
10
7.5
20
-379
30
0.67
11
230.5
21
-379
31
0.67
12
230.5
22
-381.5
32
0
13
7.5
23
-381.5
33
0
0
3DFACE
8
BRANCO
10
0
20
-442.5
30
45
11
0
21
-381.5
31
45
12
1.25
22
-381.5
32
44.67
13
1.25
23
-442.5
33
44.67
0
3DFACE
8
BRANCO
10
1.25
20
-442.5
30
44.67
11
1.25
21
-381.5
31
44.67
12
2.16
22
-381.5
32
43.75
13
2.16
23
-442.5
33
43.75
0
3DFACE
8
BRANCO
10
2.16
20
-442.5
30
43.75
11
2.16
21
-381.5
31
43.75
12
2.5
22
-381.5
32
42.5
13
2.5
23
-442.5
33
42.5
0
3DFACE
8
BRANCO
10
2.5
20
-442.5
30
42.5
11
2.5
21
-381.5
31
42.5
12
2.5
22
-381.5
32
5
13
2.5
23
-442.5
33
5
0
3DFACE
8
BRANCO
10
2.5
20
-442.5
30
5
11
2.5
21
-381.5
31
5
12
3.17
22
-381.5
32
2.5
13
3.17
23
-442.5
33
2.5
0
3DFACE
8
BRANCO
10
3.17
20
-442.5
30
2.5
11
3.17
21
-381.5
31
2.5
12
5
22
-381.5
32
0.67
13
5
23
-442.5
33
0.67
0
3DFACE
8
BRANCO
10
5
20
-442.5
30
0.67
11
5
21
-381.5
31
0.67
12
7.5
22
-381.5
32
0
13
7.5
23
-442.5
33
0
0
3DFACE
8
BRANCO
10
6.2
20
-381.5
30
0.17
11
6.38
21
-380.85
31
0.17
12
5.33
22
-380.25
32
0.67
13
5
23
-381.5
33
0.67
0
3DFACE
8
BRANCO
10
5
20
-381.5
30
0.67
11
5.33
21
-380.25
31
0.67
12
4.44
22
-379.73
32
1.46
13
3.96
23
-381.5
33
1.46
0
3DFACE
8
BRANCO
10
3.96
20
-381.5
30
1.46
11
4.44
21
-379.73
31
1.46
12
3.75
22
-379.33
32
2.5
13
3.17
23
-381.5
33
2.5
0
3DFACE
8
BRANCO
10
3.17
20
-381.5
30
2.5
11
3.75
21
-379.33
31
2.5
12
3.31
22
-379.08
32
3.71
13
2.67
23
-381.5
33
3.71
0
3DFACE
8
BRANCO
10
2.67
20
-381.5
30
3.71
11
3.31
21
-379.08
31
3.71
12
3.17
22
-379
32
5
13
2.5
23
-381.5
33
5
0
3DFACE
8
BRANCO
10
2.5
20
-381.5
30
5
11
3.17
21
-379
31
5
12
3.17
22
-379
32
42.5
13
2.5
23
-381.5
33
42.5
0
3DFACE
8
BRANCO
10
2.5
20
-381.5
30
42.5
11
3.17
21
-379
31
42.5
12
3.09
22
-378.95
32
43.15
13
2.41
23
-381.5
33
43.15
0
3DFACE
8
BRANCO
10
2.41
20
-381.5
30
43.15
11
3.09
21
-378.95
31
43.15
12
2.88
22
-378.83
32
43.75
13
2.16
23
-381.5
33
43.75
0
3DFACE
8
BRANCO
10
2.16
20
-381.5
30
43.75
11
2.88
21
-378.83
31
43.75
12
2.53
22
-378.63
32
44.27
13
1.77
23
-381.5
33
44.27
0
3DFACE
8
BRANCO
10
1.77
20
-381.5
30
44.27
11
2.53
21
-378.63
31
44.27
12
2.08
22
-378.37
32
44.67
13
1.25
23
-381.5
33
44.67
0
3DFACE
8
BRANCO
10
1.25
20
-381.5
30
44.67
11
2.08
21
-378.37
31
44.67
12
1.56
22
-378.07
32
44.91
13
0.64
23
-381.5
33
44.91
0
3DFACE
8
BRANCO
10
0.64
20
-381.5
30
44.91
11
1.56
21
-378.07
31
44.91
12
1
22
-377.75
32
45
13
0
23
-381.5
33
45
0
3DFACE
8
BRANCO
10
6.38
20
-380.85
30
0.17
11
6.85
21
-380.37
31
0.17
12
6.25
22
-379.33
32
0.67
13
5.33
23
-380.25
33
0.67
0
3DFACE
8
BRANCO
10
5.33
20
-380.25
30
0.67
11
6.25
21
-379.33
31
0.67
12
5.73
22
-378.43
32
1.46
13
4.44
23
-379.73
33
1.46
0
3DFACE
8
BRANCO
10
4.44
20
-379.73
30
1.46
11
5.73
21
-378.43
31
1.46
12
5.33
22
-377.75
32
2.5
13
3.75
23
-379.33
33
2.5
0
3DFACE
8
BRANCO
10
3.75
20
-379.33
30
2.5
11
5.33
21
-377.75
31
2.5
12
5.08
22
-377.31
32
3.71
13
3.31
23
-379.08
33
3.71
0
3DFACE
8
BRANCO
10
3.31
20
-379.08
30
3.71
11
5.08
21
-377.31
31
3.71
12
5
22
-377.16
32
5
13
3.17
23
-379
33
5
0
3DFACE
8
BRANCO
10
3.17
20
-379
30
5
11
5
21
-377.16
31
5
12
5
22
-377.16
32
42.5
13
3.17
23
-379
33
42.5
0
3DFACE
8
BRANCO
10
3.17
20
-379
30
42.5
11
5
21
-377.16
31
42.5
12
4.95
22
-377.09
32
43.15
13
3.09
23
-378.95
33
43.15
0
3DFACE
8
BRANCO
10
3.09
20
-378.95
30
43.15
11
4.95
21
-377.09
31
43.15
12
4.83
22
-376.87
32
43.75
13
2.88
23
-378.83
33
43.75
0
3DFACE
8
BRANCO
10
2.88
20
-378.83
30
43.75
11
4.83
21
-376.87
31
43.75
12
4.63
22
-376.53
32
44.27
13
2.53
23
-378.63
33
44.27
0
3DFACE
8
BRANCO
10
2.53
20
-378.63
30
44.27
11
4.63
21
-376.53
31
44.27
12
4.37
22
-376.08
32
44.67
13
2.08
23
-378.37
33
44.67
0
3DFACE
8
BRANCO
10
2.08
20
-378.37
30
44.67
11
4.37
21
-376.08
31
44.67
12
4.07
22
-375.56
32
44.91
13
1.56
23
-378.07
33
44.91
0
3DFACE
8
BRANCO
10
1.56
20
-378.07
30
44.91
11
4.07
21
-375.56
31
44.91
12
3.75
22
-375
32
45
13
1
23
-377.75
33
45
0
3DFACE
8
BRANCO
10
6.85
20
-380.37
30
0.17
11
7.5
21
-380.2
31
0.17
12
7.5
22
-379
32
0.67
13
6.25
23
-379.33
33
0.67
0
3DFACE
8
BRANCO
10
6.25
20
-379.33
30
0.67
11
7.5
21
-379
31
0.67
12
7.5
22
-377.96
32
1.46
13
5.73
23
-378.43
33
1.46
0
3DFACE
8
BRANCO
10
5.73
20
-378.43
30
1.46
11
7.5
21
-377.96
31
1.46
12
7.5
22
-377.16
32
2.5
13
5.33
23
-377.75
33
2.5
0
3DFACE
8
BRANCO
10
5.33
20
-377.75
30
2.5
11
7.5
21
-377.16
31
2.5
12
7.5
22
-376.67
32
3.71
13
5.08
23
-377.31
33
3.71
0
3DFACE
8
BRANCO
10
5.08
20
-377.31
30
3.71
11
7.5
21
-376.67
31
3.71
12
7.5
22
-376.5
32
5
13
5
23
-377.16
33
5
0
3DFACE
8
BRANCO
10
5
20
-377.16
30
5
11
7.5
21
-376.5
31
5
12
7.5
22
-376.5
32
42.5
13
5
23
-377.16
33
42.5
0
3DFACE
8
BRANCO
10
5
20
-377.16
30
42.5
11
7.5
21
-376.5
31
42.5
12
7.5
22
-376.41
32
43.15
13
4.95
23
-377.09
33
43.15
0
3DFACE
8
BRANCO
10
4.95
20
-377.09
30
43.15
11
7.5
21
-376.41
31
43.15
12
7.5
22
-376.16
32
43.75
13
4.83
23
-376.87
33
43.75
0
3DFACE
8
BRANCO
10
4.83
20
-376.87
30
43.75
11
7.5
21
-376.16
31
43.75
12
7.5
22
-375.76
32
44.27
13
4.63
23
-376.53
33
44.27
0
3DFACE
8
BRANCO
10
4.63
20
-376.53
30
44.27
11
7.5
21
-375.76
31
44.27
12
7.5
22
-375.25
32
44.67
13
4.37
23
-376.08
33
44.67
0
3DFACE
8
BRANCO
10
4.37
20
-376.08
30
44.67
11
7.5
21
-375.25
31
44.67
12
7.5
22
-374.64
32
44.91
13
4.07
23
-375.56
33
44.91
0
3DFACE
8
BRANCO
10
4.07
20
-375.56
30
44.91
11
7.5
21
-374.64
31
44.91
12
7.5
22
-374
32
45
13
3.75
23
-375
33
45
0
3DFACE
8
BRANCO
10
7.5
20
-450
30
45
11
230.5
21
-450
31
45
12
230.5
22
-448.75
32
44.67
13
7.5
23
-448.75
33
44.67
0
3DFACE
8
BRANCO
10
7.5
20
-448.75
30
44.67
11
230.5
21
-448.75
31
44.67
12
230.5
22
-447.83
32
43.75
13
7.5
23
-447.83
33
43.75
0
3DFACE
8
BRANCO
10
7.5
20
-447.83
30
43.75
11
230.5
21
-447.83
31
43.75
12
230.5
22
-447.5
32
42.5
13
7.5
23
-447.5
33
42.5
0
3DFACE
8
BRANCO
10
7.5
20
-447.5
30
42.5
11
230.5
21
-447.5
31
42.5
12
230.5
22
-447.5
32
5
13
7.5
23
-447.5
33
5
0
3DFACE
8
BRANCO
10
7.5
20
-447.5
30
5
11
230.5
21
-447.5
31
5
12
230.5
22
-446.83
32
2.5
13
7.5
23
-446.83
33
2.5
0
3DFACE
8
BRANCO
10
7.5
20
-446.83
30
2.5
11
230.5
21
-446.83
31
2.5
12
230.5
22
-445
32
0.67
13
7.5
23
-445
33
0.67
0
3DFACE
8
BRANCO
10
7.5
20
-445
30
0.67
11
230.5
21
-445
31
0.67
12
230.5
22
-442.5
32
0
13
7.5
23
-442.5
33
0
0
3DFACE
8
BRANCO
10
6.2
20
-442.5
30
0.17
11
6.38
21
-443.14
31
0.17
12
5.33
22
-443.75
32
0.67
13
5
23
-442.5
33
0.67
0
3DFACE
8
BRANCO
10
5
20
-442.5
30
0.67
11
5.33
21
-443.75
31
0.67
12
4.44
22
-444.26
32
1.46
13
3.96
23
-442.5
33
1.46
0
3DFACE
8
BRANCO
10
3.96
20
-442.5
30
1.46
11
4.44
21
-444.26
31
1.46
12
3.75
22
-444.66
32
2.5
13
3.17
23
-442.5
33
2.5
0
3DFACE
8
BRANCO
10
3.17
20
-442.5
30
2.5
11
3.75
21
-444.66
31
2.5
12
3.31
22
-444.91
32
3.71
13
2.67
23
-442.5
33
3.71
0
3DFACE
8
BRANCO
10
2.67
20
-442.5
30
3.71
11
3.31
21
-444.91
31
3.71
12
3.17
22
-445
32
5
13
2.5
23
-442.5
33
5
0
3DFACE
8
BRANCO
10
2.5
20
-442.5
30
5
11
3.17
21
-445
31
5
12
3.17
22
-445
32
42.5
13
2.5
23
-442.5
33
42.5
0
3DFACE
8
BRANCO
10
2.5
20
-442.5
30
42.5
11
3.17
21
-445
31
42.5
12
3.09
22
-445.04
32
43.15
13
2.41
23
-442.5
33
43.15
0
3DFACE
8
BRANCO
10
2.41
20
-442.5
30
43.15
11
3.09
21
-445.04
31
43.15
12
2.88
22
-445.16
32
43.75
13
2.16
23
-442.5
33
43.75
0
3DFACE
8
BRANCO
10
2.16
20
-442.5
30
43.75
11
2.88
21
-445.16
31
43.75
12
2.53
22
-445.36
32
44.27
13
1.77
23
-442.5
33
44.27
0
3DFACE
8
BRANCO
10
1.77
20
-442.5
30
44.27
11
2.53
21
-445.36
31
44.27
12
2.08
22
-445.62
32
44.67
13
1.25
23
-442.5
33
44.67
0
3DFACE
8
BRANCO
10
1.25
20
-442.5
30
44.67
11
2.08
21
-445.62
31
44.67
12
1.56
22
-445.92
32
44.91
13
0.64
23
-442.5
33
44.91
0
3DFACE
8
BRANCO
10
0.64
20
-442.5
30
44.91
11
1.56
21
-445.92
31
44.91
12
1
22
-446.25
32
45
13
0
23
-442.5
33
45
0
3DFACE
8
BRANCO
10
6.38
20
-443.14
30
0.17
11
6.85
21
-443.62
31
0.17
12
6.25
22
-444.66
32
0.67
13
5.33
23
-443.75
33
0.67
0
3DFACE
8
BRANCO
10
5.33
20
-443.75
30
0.67
11
6.25
21
-444.66
31
0.67
12
5.73
22
-445.56
32
1.46
13
4.44
23
-444.26
33
1.46
0
3DFACE
8
BRANCO
10
4.44
20
-444.26
30
1.46
11
5.73
21
-445.56
31
1.46
12
5.33
22
-446.25
32
2.5
13
3.75
23
-444.66
33
2.5
0
3DFACE
8
BRANCO
10
3.75
20
-444.66
30
2.5
11
5.33
21
-446.25
31
2.5
12
5.08
22
-446.68
32
3.71
13
3.31
23
-444.91
33
3.71
0
3DFACE
8
BRANCO
10
3.31
20
-444.91
30
3.71
11
5.08
21
-446.68
31
3.71
12
5
22
-446.83
32
5
13
3.17
23
-445
33
5
0
3DFACE
8
BRANCO
10
3.17
20
-445
30
5
11
5
21
-446.83
31
5
12
5
22
-446.83
32
42.5
13
3.17
23
-445
33
42.5
0
3DFACE
8
BRANCO
10
3.17
20
-445
30
42.5
11
5
21
-446.83
31
42.5
12
4.95
22
-446.9
32
43.15
13
3.09
23
-445.04
33
43.15
0
3DFACE
8
BRANCO
10
3.09
20
-445.04
30
43.15
11
4.95
21
-446.9
31
43.15
12
4.83
22
-447.12
32
43.75
13
2.88
23
-445.16
33
43.75
0
3DFACE
8
BRANCO
10
2.88
20
-445.16
30
43.75
11
4.83
21
-447.12
31
43.75
12
4.63
22
-447.46
32
44.27
13
2.53
23
-445.36
33
44.27
0
3DFACE
8
BRANCO
10
2.53
20
-445.36
30
44.27
11
4.63
21
-447.46
31
44.27
12
4.37
22
-447.91
32
44.67
13
2.08
23
-445.62
33
44.67
0
3DFACE
8
BRANCO
10
2.08
20
-445.62
30
44.67
11
4.37
21
-447.91
31
44.67
12
4.07
22
-448.43
32
44.91
13
1.56
23
-445.92
33
44.91
0
3DFACE
8
BRANCO
10
1.56
20
-445.92
30
44.91
11
4.07
21
-448.43
31
44.91
12
3.75
22
-448.99
32
45
13
1
23
-446.25
33
45
0
3DFACE
8
BRANCO
10
6.85
20
-443.62
30
0.17
11
7.5
21
-443.79
31
0.17
12
7.5
22
-445
32
0.67
13
6.25
23
-444.66
33
0.67
0
3DFACE
8
BRANCO
10
6.25
20
-444.66
30
0.67
11
7.5
21
-445
31
0.67
12
7.5
22
-446.03
32
1.46
13
5.73
23
-445.56
33
1.46
0
3DFACE
8
BRANCO
10
5.73
20
-445.56
30
1.46
11
7.5
21
-446.03
31
1.46
12
7.5
22
-446.83
32
2.5
13
5.33
23
-446.25
33
2.5
0
3DFACE
8
BRANCO
10
5.33
20
-446.25
30
2.5
11
7.5
21
-446.83
31
2.5
12
7.5
22
-447.32
32
3.71
13
5.08
23
-446.68
33
3.71
0
3DFACE
8
BRANCO
10
5.08
20
-446.68
30
3.71
11
7.5
21
-447.32
31
3.71
12
7.5
22
-447.5
32
5
13
5
23
-446.83
33
5
0
3DFACE
8
BRANCO
10
5
20
-446.83
30
5
11
7.5
21
-447.5
31
5
12
7.5
22
-447.5
32
42.5
13
5
23
-446.83
33
42.5
0
3DFACE
8
BRANCO
10
5
20
-446.83
30
42.5
11
7.5
21
-447.5
31
42.5
12
7.5
22
-447.58
32
43.15
13
4.95
23
-446.9
33
43.15
0
3DFACE
8
BRANCO
10
4.95
20
-446.9
30
43.15
11
7.5
21
-447.58
31
43.15
12
7.5
22
-447.83
32
43.75
13
4.83
23
-447.12
33
43.75
0
3DFACE
8
BRANCO
10
4.83
20
-447.12
30
43.75
11
7.5
21
-447.83
31
43.75
12
7.5
22
-448.23
32
44.27
13
4.63
23
-447.46
33
44.27
0
3DFACE
8
BRANCO
10
4.63
20
-447.46
30
44.27
11
7.5
21
-448.23
31
44.27
12
7.5
22
-448.75
32
44.67
13
4.37
23
-447.91
33
44.67
0
3DFACE
8
BRANCO
10
4.37
20
-447.91
30
44.67
11
7.5
21
-448.75
31
44.67
12
7.5
22
-449.35
32
44.91
13
4.07
23
-448.43
33
44.91
0
3DFACE
8
BRANCO
10
4.07
20
-448.43
30
44.91
11
7.5
21
-449.35
31
44.91
12
7.5
22
-450
32
45
13
3.75
23
-448.99
33
45
0
3DFACE
8
BRANCO
10
238
20
-442.5
30
45
11
238
21
-381.5
31
45
12
236.75
22
-381.5
32
44.67
13
236.75
23
-442.5
33
44.67
0
3DFACE
8
BRANCO
10
236.75
20
-442.5
30
44.67
11
236.75
21
-381.5
31
44.67
12
235.83
22
-381.5
32
43.75
13
235.83
23
-442.5
33
43.75
0
3DFACE
8
BRANCO
10
235.83
20
-442.5
30
43.75
11
235.83
21
-381.5
31
43.75
12
235.5
22
-381.5
32
42.5
13
235.5
23
-442.5
33
42.5
0
3DFACE
8
BRANCO
10
235.5
20
-442.5
30
42.5
11
235.5
21
-381.5
31
42.5
12
235.5
22
-381.5
32
5
13
235.5
23
-442.5
33
5
0
3DFACE
8
BRANCO
10
235.5
20
-442.5
30
5
11
235.5
21
-381.5
31
5
12
234.83
22
-381.5
32
2.5
13
234.83
23
-442.5
33
2.5
0
3DFACE
8
BRANCO
10
234.83
20
-442.5
30
2.5
11
234.83
21
-381.5
31
2.5
12
233
22
-381.5
32
0.67
13
233
23
-442.5
33
0.67
0
3DFACE
8
BRANCO
10
233
20
-442.5
30
0.67
11
233
21
-381.5
31
0.67
12
230.5
22
-381.5
32
0
13
230.5
23
-442.5
33
0
0
3DFACE
8
BRANCO
10
231.79
20
-442.5
30
0.17
11
231.62
21
-443.14
31
0.17
12
232.66
22
-443.75
32
0.67
13
233
23
-442.5
33
0.67
0
3DFACE
8
BRANCO
10
233
20
-442.5
30
0.67
11
232.66
21
-443.75
31
0.67
12
233.56
22
-444.26
32
1.46
13
234.03
23
-442.5
33
1.46
0
3DFACE
8
BRANCO
10
234.03
20
-442.5
30
1.46
11
233.56
21
-444.26
31
1.46
12
234.25
22
-444.66
32
2.5
13
234.83
23
-442.5
33
2.5
0
3DFACE
8
BRANCO
10
234.83
20
-442.5
30
2.5
11
234.25
21
-444.66
31
2.5
12
234.68
22
-444.91
32
3.71
13
235.33
23
-442.5
33
3.71
0
3DFACE
8
BRANCO
10
235.33
20
-442.5
30
3.71
11
234.68
21
-444.91
31
3.71
12
234.83
22
-445
32
5
13
235.5
23
-442.5
33
5
0
3DFACE
8
BRANCO
10
235.5
20
-442.5
30
5
11
234.83
21
-445
31
5
12
234.83
22
-445
32
42.5
13
235.5
23
-442.5
33
42.5
0
3DFACE
8
BRANCO
10
235.5
20
-442.5
30
42.5
11
234.83
21
-445
31
42.5
12
234.9
22
-445.04
32
43.15
13
235.58
23
-442.5
33
43.15
0
3DFACE
8
BRANCO
10
235.58
20
-442.5
30
43.15
11
234.9
21
-445.04
31
43.15
12
235.12
22
-445.16
32
43.75
13
235.83
23
-442.5
33
43.75
0
3DFACE
8
BRANCO
10
235.83
20
-442.5
30
43.75
11
235.12
21
-445.16
31
43.75
12
235.46
22
-445.36
32
44.27
13
236.23
23
-442.5
33
44.27
0
3DFACE
8
BRANCO
10
236.23
20
-442.5
30
44.27
11
235.46
21
-445.36
31
44.27
12
235.91
22
-445.62
32
44.67
13
236.75
23
-442.5
33
44.67
0
3DFACE
8
BRANCO
10
236.75
20
-442.5
30
44.67
11
235.91
21
-445.62
31
44.67
12
236.43
22
-445.92
32
44.91
13
237.35
23
-442.5
33
44.91
0
3DFACE
8
BRANCO
10
237.35
20
-442.5
30
44.91
11
236.43
21
-445.92
31
44.91
12
236.99
22
-446.25
32
45
13
238
23
-442.5
33
45
0
3DFACE
8
BRANCO
10
231.62
20
-443.14
30
0.17
11
231.14
21
-443.62
31
0.17
12
231.75
22
-444.66
32
0.67
13
232.66
23
-443.75
33
0.67
0
3DFACE
8
BRANCO
10
232.66
20
-443.75
30
0.67
11
231.75
21
-444.66
31
0.67
12
232.27
22
-445.56
32
1.46
13
233.56
23
-444.26
33
1.46
0
3DFACE
8
BRANCO
10
233.56
20
-444.26
30
1.46
11
232.27
21
-445.56
31
1.46
12
232.66
22
-446.25
32
2.5
13
234.25
23
-444.66
33
2.5
0
3DFACE
8
BRANCO
10
234.25
20
-444.66
30
2.5
11
232.66
21
-446.25
31
2.5
12
232.91
22
-446.68
32
3.71
13
234.68
23
-444.91
33
3.71
0
3DFACE
8
BRANCO
10
234.68
20
-444.91
30
3.71
11
232.91
21
-446.68
31
3.71
12
233
22
-446.83
32
5
13
234.83
23
-445
33
5
0
3DFACE
8
BRANCO
10
234.83
20
-445
30
5
11
233
21
-446.83
31
5
12
233
22
-446.83
32
42.5
13
234.83
23
-445
33
42.5
0
3DFACE
8
BRANCO
10
234.83
20
-445
30
42.5
11
233
21
-446.83
31
42.5
12
233.04
22
-446.9
32
43.15
13
234.9
23
-445.04
33
43.15
0
3DFACE
8
BRANCO
10
234.9
20
-445.04
30
43.15
11
233.04
21
-446.9
31
43.15
12
233.16
22
-447.12
32
43.75
13
235.12
23
-445.16
33
43.75
0
3DFACE
8
BRANCO
10
235.12
20
-445.16
30
43.75
11
233.16
21
-447.12
31
43.75
12
233.36
22
-447.46
32
44.27
13
235.46
23
-445.36
33
44.27
0
3DFACE
8
BRANCO
10
235.46
20
-445.36
30
44.27
11
233.36
21
-447.46
31
44.27
12
233.62
22
-447.91
32
44.67
13
235.91
23
-445.62
33
44.67
0
3DFACE
8
BRANCO
10
235.91
20
-445.62
30
44.67
11
233.62
21
-447.91
31
44.67
12
233.92
22
-448.43
32
44.91
13
236.43
23
-445.92
33
44.91
0
3DFACE
8
BRANCO
10
236.43
20
-445.92
30
44.91
11
233.92
21
-448.43
31
44.91
12
234.25
22
-448.99
32
45
13
236.99
23
-446.25
33
45
0
3DFACE
8
BRANCO
10
231.14
20
-443.62
30
0.17
11
230.5
21
-443.79
31
0.17
12
230.5
22
-445
32
0.67
13
231.75
23
-444.66
33
0.67
0
3DFACE
8
BRANCO
10
231.75
20
-444.66
30
0.67
11
230.5
21
-445
31
0.67
12
230.5
22
-446.03
32
1.46
13
232.27
23
-445.56
33
1.46
0
3DFACE
8
BRANCO
10
232.27
20
-445.56
30
1.46
11
230.5
21
-446.03
31
1.46
12
230.5
22
-446.83
32
2.5
13
232.66
23
-446.25
33
2.5
0
3DFACE
8
BRANCO
10
232.66
20
-446.25
30
2.5
11
230.5
21
-446.83
31
2.5
12
230.5
22
-447.32
32
3.71
13
232.91
23
-446.68
33
3.71
0
3DFACE
8
BRANCO
10
232.91
20
-446.68
30
3.71
11
230.5
21
-447.32
31
3.71
12
230.5
22
-447.5
32
5
13
233
23
-446.83
33
5
0
3DFACE
8
BRANCO
10
233
20
-446.83
30
5
11
230.5
21
-447.5
31
5
12
230.5
22
-447.5
32
42.5
13
233
23
-446.83
33
42.5
0
3DFACE
8
BRANCO
10
233
20
-446.83
30
42.5
11
230.5
21
-447.5
31
42.5
12
230.5
22
-447.58
32
43.15
13
233.04
23
-446.9
33
43.15
0
3DFACE
8
BRANCO
10
233.04
20
-446.9
30
43.15
11
230.5
21
-447.58
31
43.15
12
230.5
22
-447.83
32
43.75
13
233.16
23
-447.12
33
43.75
0
3DFACE
8
BRANCO
10
233.16
20
-447.12
30
43.75
11
230.5
21
-447.83
31
43.75
12
230.5
22
-448.23
32
44.27
13
233.36
23
-447.46
33
44.27
0
3DFACE
8
BRANCO
10
233.36
20
-447.46
30
44.27
11
230.5
21
-448.23
31
44.27
12
230.5
22
-448.75
32
44.67
13
233.62
23
-447.91
33
44.67
0
3DFACE
8
BRANCO
10
233.62
20
-447.91
30
44.67
11
230.5
21
-448.75
31
44.67
12
230.5
22
-449.35
32
44.91
13
233.92
23
-448.43
33
44.91
0
3DFACE
8
BRANCO
10
233.92
20
-448.43
30
44.91
11
230.5
21
-449.35
31
44.91
12
230.5
22
-450
32
45
13
234.25
23
-448.99
33
45
0
3DFACE
8
BRANCO
10
231.79
20
-381.5
30
0.17
11
231.62
21
-380.85
31
0.17
12
232.66
22
-380.25
32
0.67
13
233
23
-381.5
33
0.67
0
3DFACE
8
BRANCO
10
233
20
-381.5
30
0.67
11
232.66
21
-380.25
31
0.67
12
233.56
22
-379.73
32
1.46
13
234.03
23
-381.5
33
1.46
0
3DFACE
8
BRANCO
10
234.03
20
-381.5
30
1.46
11
233.56
21
-379.73
31
1.46
12
234.25
22
-379.33
32
2.5
13
234.83
23
-381.5
33
2.5
0
3DFACE
8
BRANCO
10
234.83
20
-381.5
30
2.5
11
234.25
21
-379.33
31
2.5
12
234.68
22
-379.08
32
3.71
13
235.33
23
-381.5
33
3.71
0
3DFACE
8
BRANCO
10
235.33
20
-381.5
30
3.71
11
234.68
21
-379.08
31
3.71
12
234.83
22
-379
32
5
13
235.5
23
-381.5
33
5
0
3DFACE
8
BRANCO
10
235.5
20
-381.5
30
5
11
234.83
21
-379
31
5
12
234.83
22
-379
32
42.5
13
235.5
23
-381.5
33
42.5
0
3DFACE
8
BRANCO
10
235.5
20
-381.5
30
42.5
11
234.83
21
-379
31
42.5
12
234.9
22
-378.95
32
43.15
13
235.58
23
-381.5
33
43.15
0
3DFACE
8
BRANCO
10
235.58
20
-381.5
30
43.15
11
234.9
21
-378.95
31
43.15
12
235.12
22
-378.83
32
43.75
13
235.83
23
-381.5
33
43.75
0
3DFACE
8
BRANCO
10
235.83
20
-381.5
30
43.75
11
235.12
21
-378.83
31
43.75
12
235.46
22
-378.63
32
44.27
13
236.23
23
-381.5
33
44.27
0
3DFACE
8
BRANCO
10
236.23
20
-381.5
30
44.27
11
235.46
21
-378.63
31
44.27
12
235.91
22
-378.37
32
44.67
13
236.75
23
-381.5
33
44.67
0
3DFACE
8
BRANCO
10
236.75
20
-381.5
30
44.67
11
235.91
21
-378.37
31
44.67
12
236.43
22
-378.07
32
44.91
13
237.35
23
-381.5
33
44.91
0
3DFACE
8
BRANCO
10
237.35
20
-381.5
30
44.91
11
236.43
21
-378.07
31
44.91
12
236.99
22
-377.75
32
45
13
238
23
-381.5
33
45
0
3DFACE
8
BRANCO
10
231.62
20
-380.85
30
0.17
11
231.14
21
-380.37
31
0.17
12
231.75
22
-379.33
32
0.67
13
232.66
23
-380.25
33
0.67
0
3DFACE
8
BRANCO
10
232.66
20
-380.25
30
0.67
11
231.75
21
-379.33
31
0.67
12
232.27
22
-378.43
32
1.46
13
233.56
23
-379.73
33
1.46
0
3DFACE
8
BRANCO
10
233.56
20
-379.73
30
1.46
11
232.27
21
-378.43
31
1.46
12
232.66
22
-377.75
32
2.5
13
234.25
23
-379.33
33
2.5
0
3DFACE
8
BRANCO
10
234.25
20
-379.33
30
2.5
11
232.66
21
-377.75
31
2.5
12
232.91
22
-377.31
32
3.71
13
234.68
23
-379.08
33
3.71
0
3DFACE
8
BRANCO
10
234.68
20
-379.08
30
3.71
11
232.91
21
-377.31
31
3.71
12
233
22
-377.16
32
5
13
234.83
23
-379
33
5
0
3DFACE
8
BRANCO
10
234.83
20
-379
30
5
11
233
21
-377.16
31
5
12
233
22
-377.16
32
42.5
13
234.83
23
-379
33
42.5
0
3DFACE
8
BRANCO
10
234.83
20
-379
30
42.5
11
233
21
-377.16
31
42.5
12
233.04
22
-377.09
32
43.15
13
234.9
23
-378.95
33
43.15
0
3DFACE
8
BRANCO
10
234.9
20
-378.95
30
43.15
11
233.04
21
-377.09
31
43.15
12
233.16
22
-376.87
32
43.75
13
235.12
23
-378.83
33
43.75
0
3DFACE
8
BRANCO
10
235.12
20
-378.83
30
43.75
11
233.16
21
-376.87
31
43.75
12
233.36
22
-376.53
32
44.27
13
235.46
23
-378.63
33
44.27
0
3DFACE
8
BRANCO
10
235.46
20
-378.63
30
44.27
11
233.36
21
-376.53
31
44.27
12
233.62
22
-376.08
32
44.67
13
235.91
23
-378.37
33
44.67
0
3DFACE
8
BRANCO
10
235.91
20
-378.37
30
44.67
11
233.62
21
-376.08
31
44.67
12
233.92
22
-375.56
32
44.91
13
236.43
23
-378.07
33
44.91
0
3DFACE
8
BRANCO
10
236.43
20
-378.07
30
44.91
11
233.92
21
-375.56
31
44.91
12
234.25
22
-375
32
45
13
236.99
23
-377.75
33
45
0
3DFACE
8
BRANCO
10
231.14
20
-380.37
30
0.17
11
230.5
21
-380.2
31
0.17
12
230.5
22
-379
32
0.67
13
231.75
23
-379.33
33
0.67
0
3DFACE
8
BRANCO
10
231.75
20
-379.33
30
0.67
11
230.5
21
-379
31
0.67
12
230.5
22
-377.96
32
1.46
13
232.27
23
-378.43
33
1.46
0
3DFACE
8
BRANCO
10
232.27
20
-378.43
30
1.46
11
230.5
21
-377.96
31
1.46
12
230.5
22
-377.16
32
2.5
13
232.66
23
-377.75
33
2.5
0
3DFACE
8
BRANCO
10
232.66
20
-377.75
30
2.5
11
230.5
21
-377.16
31
2.5
12
230.5
22
-376.67
32
3.71
13
232.91
23
-377.31
33
3.71
0
3DFACE
8
BRANCO
10
232.91
20
-377.31
30
3.71
11
230.5
21
-376.67
31
3.71
12
230.5
22
-376.5
32
5
13
233
23
-377.16
33
5
0
3DFACE
8
BRANCO
10
233
20
-377.16
30
5
11
230.5
21
-376.5
31
5
12
230.5
22
-376.5
32
42.5
13
233
23
-377.16
33
42.5
0
3DFACE
8
BRANCO
10
233
20
-377.16
30
42.5
11
230.5
21
-376.5
31
42.5
12
230.5
22
-376.41
32
43.15
13
233.04
23
-377.09
33
43.15
0
3DFACE
8
BRANCO
10
233.04
20
-377.09
30
43.15
11
230.5
21
-376.41
31
43.15
12
230.5
22
-376.16
32
43.75
13
233.16
23
-376.87
33
43.75
0
3DFACE
8
BRANCO
10
233.16
20
-376.87
30
43.75
11
230.5
21
-376.16
31
43.75
12
230.5
22
-375.76
32
44.27
13
233.36
23
-376.53
33
44.27
0
3DFACE
8
BRANCO
10
233.36
20
-376.53
30
44.27
11
230.5
21
-375.76
31
44.27
12
230.5
22
-375.25
32
44.67
13
233.62
23
-376.08
33
44.67
0
3DFACE
8
BRANCO
10
233.62
20
-376.08
30
44.67
11
230.5
21
-375.25
31
44.67
12
230.5
22
-374.64
32
44.91
13
233.92
23
-375.56
33
44.91
0
3DFACE
8
BRANCO
10
233.92
20
-375.56
30
44.91
11
230.5
21
-374.64
31
44.91
12
230.5
22
-374
32
45
13
234.25
23
-375
33
45
0
3DFACE
8
BRANCO
10
7.5
20
-442.5
30
0
11
7.5
21
-381.5
31
0
12
230.5
22
-381.5
32
0
13
230.5
23
-442.5
33
0
0
3DFACE
8
BRANCO
10
230.5
20
-366.5
30
0
11
230.5
21
-304.5
31
0
12
7.5
22
-304.5
32
0
13
7.5
23
-366.5
33
0
0
3DFACE
8
BRANCO
10
72.5
20
-289.5
30
0
11
7.5
21
-289.5
31
0
12
7.5
22
-7.5
32
0
13
72.5
23
-7.5
33
0
0
3DFACE
8
BRANCO
10
152.5
20
-289.5
30
0
11
87.5
21
-289.5
31
0
12
87.5
22
-7.5
32
0
13
152.5
23
-7.5
33
0
0
3DFACE
8
BRANCO
10
230.5
20
-289.5
30
0
11
167.5
21
-289.5
31
0
12
167.5
22
-7.5
32
0
13
230.5
23
-7.5
33
0
0
3DFACE
8
BRANCO
10
152.5
20
-247
30
0
11
153.5
21
-243.25
31
0
12
153.5
22
-195.75
32
0
13
152.5
23
-192
33
0
0
3DFACE
8
BRANCO
10
153.5
20
-243.25
30
0
11
156.25
21
-240.5
31
0
12
156.25
22
-198.49
32
0
13
153.5
23
-195.75
33
0
0
3DFACE
8
BRANCO
10
156.25
20
-198.49
30
0
11
160
21
-199.5
31
0
12
160
22
-239.5
32
0
13
156.25
23
-240.5
33
0
0
3DFACE
8
BRANCO
10
163.75
20
-198.49
30
0
11
160
21
-199.5
31
0
12
160
22
-239.5
32
0
13
163.75
23
-240.5
33
0
0
3DFACE
8
BRANCO
10
166.49
20
-243.25
30
0
11
163.75
21
-240.5
31
0
12
163.75
22
-198.49
32
0
13
166.49
23
-195.75
33
0
0
3DFACE
8
BRANCO
10
167.5
20
-247
30
0
11
166.49
21
-243.25
31
0
12
166.49
22
-195.75
32
0
13
167.5
23
-192
33
0
0
3DFACE
8
BRANCO
10
86.49
20
-243.25
30
0
11
83.75
21
-240.5
31
0
12
83.75
22
-198.49
32
0
13
86.49
23
-195.75
33
0
0
3DFACE
8
BRANCO
10
83.75
20
-198.49
30
0
11
80
21
-199.5
31
0
12
80
22
-239.5
32
0
13
83.75
23
-240.5
33
0
0
3DFACE
8
BRANCO
10
76.25
20
-198.49
30
0
11
80
21
-199.5
31
0
12
80
22
-239.5
32
0
13
76.25
23
-240.5
33
0
0
3DFACE
8
BRANCO
10
73.5
20
-243.25
30
0
11
76.25
21
-240.5
31
0
12
76.25
22
-198.49
32
0
13
73.5
23
-195.75
33
0
0
3DFACE
8
BRANCO
10
72.5
20
-247
30
0
11
73.5
21
-243.25
31
0
12
73.5
22
-195.75
32
0
13
72.5
23
-192
33
0
0
3DFACE
8
BRANCO
10
87.5
20
-247
30
0
11
86.49
21
-243.25
31
0
12
86.49
22
-195.75
32
0
13
87.5
23
-192
33
0
0
3DFACE
8
BRANCO
10
245.5
20
-442.5
30
0
11
312.5
21
-442.5
31
0
12
312.5
22
-7.5
32
0
13
245.5
23
-7.5
33
0
0
3DFACE
8
BRANCO
10
156.25
20
-295.99
30
45
11
163.75
21
-295.99
31
45
12
161
22
-293.25
32
45
13
158.99
23
-293.25
33
45
0
3DFACE
8
BRANCO
10
163.75
20
-295.99
30
45
11
167.5
21
-297
31
45
12
152.5
22
-297
32
45
13
156.25
23
-295.99
33
45
0
3DFACE
8
BRANCO
10
76.25
20
-295.99
30
45
11
83.75
21
-295.99
31
45
12
81
22
-293.25
32
45
13
78.99001
23
-293.25
33
45
0
3DFACE
8
BRANCO
10
83.75
20
-295.99
30
45
11
87.5
21
-297
31
45
12
72.5
22
-297
32
45
13
76.25
23
-295.99
33
45
0
3DFACE
8
BRANCO
10
241.75
20
-448.99
30
45
11
245.5
21
-450
31
45
12
230.5
22
-450
32
45
13
234.25
23
-448.99
33
45
0
3DFACE
8
BRANCO
10
234.25
20
-448.99
30
45
11
241.75
21
-448.99
31
45
12
239
22
-446.25
32
45
13
236.99
23
-446.25
33
45
0
3DFACE
8
BRANCO
10
236.99
20
-293.25
30
45
11
238
21
-289.5
31
45
12
238
22
-304.5
32
45
13
236.99
23
-300.75
33
45
0
3DFACE
8
BRANCO
10
236.99
20
-300.75
30
45
11
236.99
21
-293.25
31
45
12
234.25
22
-295.99
32
45
13
234.25
23
-298
33
45
0
3DFACE
8
BRANCO
10
236.99
20
-370.25
30
45
11
238
21
-366.5
31
45
12
238
22
-381.5
32
45
13
236.99
23
-377.75
33
45
0
3DFACE
8
BRANCO
10
236.99
20
-377.75
30
45
11
236.99
21
-370.25
31
45
12
234.25
22
-372.99
32
45
13
234.25
23
-375
33
45
0
3DFACE
8
BRANCO
10
1
20
-300.75
30
45
11
0
21
-304.5
31
45
12
0
22
-289.5
32
45
13
1
23
-293.25
33
45
0
3DFACE
8
BRANCO
10
1
20
-293.25
30
45
11
1
21
-300.75
31
45
12
3.75
22
-298
32
45
13
3.75
23
-295.99
33
45
0
3DFACE
8
BRANCO
10
1
20
-377.75
30
45
11
0
21
-381.5
31
45
12
0
22
-366.5
32
45
13
1
23
-370.25
33
45
0
3DFACE
8
BRANCO
10
1
20
-370.25
30
45
11
1
21
-377.75
31
45
12
3.75
22
-375
32
45
13
3.75
23
-372.99
33
45
0
3DFACE
8
BRANCO
10
76.25
20
-1
30
45
11
72.5
21
0
31
45
12
87.5
22
0
32
45
13
83.75
23
-1
33
45
0
3DFACE
8
BRANCO
10
83.75
20
-1
30
45
11
76.25
21
-1
31
45
12
78.99001
22
-3.75
32
45
13
81
23
-3.75
33
45
0
3DFACE
8
BRANCO
10
234.25
20
-1
30
45
11
230.5
21
0
31
45
12
245.5
22
0
32
45
13
241.75
23
-1
33
45
0
3DFACE
8
BRANCO
10
241.75
20
-1
30
45
11
234.25
21
-1
31
45
12
236.99
22
-3.75
32
45
13
239
23
-3.75
33
45
0
3DFACE
8
BRANCO
10
156.25
20
-1
30
45
11
152.5
21
0
31
45
12
167.5
22
0
32
45
13
163.75
23
-1
33
45
0
3DFACE
8
BRANCO
10
163.75
20
-1
30
45
11
156.25
21
-1
31
45
12
158.99
22
-3.75
32
45
13
161
23
-3.75
33
45
0
ENDSEC
0
EOF
