  0
SECTION
  2
HEADER
  9
$ACADVER
  1
AC1021
  9
$ACADMAINTVER
 70
    39
  9
$DWGCODEPAGE
  3
UNDEFINED
  9
$LASTSAVEDBY
  1
fottrem
  9
$INSBASE
 10
0.0
 20
0.0
 30
0.0
  9
$EXTMIN
 10
0.0
 20
-49.77
 30
-0.0000000000000344
  9
$EXTMAX
 10
175.1
 20
4.22
 30
131.54
  9
$LIMMIN
 10
0.0
 20
0.0
  9
$LIMMAX
 10
12.0
 20
9.0
  9
$ORTHOMODE
 70
     1
  9
$REGENMODE
 70
     1
  9
$FILLMODE
 70
     1
  9
$QTEXTMODE
 70
     0
  9
$MIRRTEXT
 70
     1
  9
$LTSCALE
 40
1.0
  9
$ATTMODE
 70
     1
  9
$TEXTSIZE
 40
0.2
  9
$TRACEWID
 40
0.05
  9
$TEXTSTYLE
  7
Standard
  9
$CLAYER
  8
0
  9
$CELTYPE
  6
ByBlock
  9
$CECOLOR
 62
   256
  9
$CELTSCALE
 40
1.0
  9
$DISPSILH
 70
     0
  9
$DIMSCALE
 40
1.0
  9
$DIMASZ
 40
0.18
  9
$DIMEXO
 40
0.0625
  9
$DIMDLI
 40
0.38
  9
$DIMRND
 40
0.0
  9
$DIMDLE
 40
0.0
  9
$DIMEXE
 40
0.18
  9
$DIMTP
 40
0.0
  9
$DIMTM
 40
0.0
  9
$DIMTXT
 40
0.18
  9
$DIMCEN
 40
0.09
  9
$DIMTSZ
 40
0.0
  9
$DIMTOL
 70
     0
  9
$DIMLIM
 70
     0
  9
$DIMTIH
 70
     1
  9
$DIMTOH
 70
     1
  9
$DIMSE1
 70
     0
  9
$DIMSE2
 70
     0
  9
$DIMTAD
 70
     0
  9
$DIMZIN
 70
     0
  9
$DIMBLK
  1

  9
$DIMASO
 70
     1
  9
$DIMSHO
 70
     1
  9
$DIMPOST
  1

  9
$DIMAPOST
  1

  9
$DIMALT
 70
     0
  9
$DIMALTD
 70
     2
  9
$DIMALTF
 40
25.4
  9
$DIMLFAC
 40
1.0
  9
$DIMTOFL
 70
     0
  9
$DIMTVP
 40
0.0
  9
$DIMTIX
 70
     0
  9
$DIMSOXD
 70
     0
  9
$DIMSAH
 70
     0
  9
$DIMBLK1
  1

  9
$DIMBLK2
  1

  9
$DIMSTYLE
  2
Standard
  9
$DIMCLRD
 70
     0
  9
$DIMCLRE
 70
     0
  9
$DIMCLRT
 70
     0
  9
$DIMTFAC
 40
1.0
  9
$DIMGAP
 40
0.09
  9
$DIMJUST
 70
     0
  9
$DIMSD1
 70
     0
  9
$DIMSD2
 70
     0
  9
$DIMTOLJ
 70
     1
  9
$DIMTZIN
 70
     0
  9
$DIMALTZ
 70
     0
  9
$DIMALTTZ
 70
     0
  9
$DIMUPT
 70
     0
  9
$DIMDEC
 70
     4
  9
$DIMTDEC
 70
     4
  9
$DIMALTU
 70
     2
  9
$DIMALTTD
 70
     2
  9
$DIMTXSTY
  7
Standard
  9
$DIMAUNIT
 70
     0
  9
$DIMADEC
 70
     0
  9
$DIMALTRND
 40
0.0
  9
$DIMAZIN
 70
     0
  9
$DIMDSEP
 70
    46
  9
$DIMATFIT
 70
     3
  9
$DIMFRAC
 70
     0
  9
$DIMLDRBLK
  1

  9
$DIMLUNIT
 70
     2
  9
$DIMLWD
 70
    -2
  9
$DIMLWE
 70
    -2
  9
$DIMTMOVE
 70
     0
  9
$DIMFXL
 40
1.0
  9
$DIMFXLON
 70
     0
  9
$DIMJOGANG
 40
0.7853981633974483
  9
$DIMTFILL
 70
     0
  9
$DIMTFILLCLR
 70
     0
  9
$DIMARCSYM
 70
     0
  9
$DIMLTYPE
  6

  9
$DIMLTEX1
  6

  9
$DIMLTEX2
  6

  9
$LUNITS
 70
     2
  9
$LUPREC
 70
     4
  9
$SKETCHINC
 40
0.1
  9
$FILLETRAD
 40
0.5
  9
$AUNITS
 70
     0
  9
$AUPREC
 70
     0
  9
$MENU
  1
.
  9
$ELEVATION
 40
0.0
  9
$PELEVATION
 40
0.0
  9
$THICKNESS
 40
0.0
  9
$LIMCHECK
 70
     0
  9
$CHAMFERA
 40
0.5
  9
$CHAMFERB
 40
0.5
  9
$CHAMFERC
 40
1.0
  9
$CHAMFERD
 40
0.0
  9
$SKPOLY
 70
     0
  9
$TDCREATE
 40
2456637.588558507
  9
$TDUCREATE
 40
2456637.67189184
  9
$TDUPDATE
 40
2456637.588558542
  9
$TDUUPDATE
 40
2456637.671891875
  9
$TDINDWG
 40
0.0016782523
  9
$TDUSRTIMER
 40
0.0016782523
  9
$USRTIMER
 70
     1
  9
$ANGBASE
 50
0.0
  9
$ANGDIR
 70
     0
  9
$PDMODE
 70
     0
  9
$PDSIZE
 40
0.0
  9
$PLINEWID
 40
0.0
  9
$SPLFRAME
 70
     0
  9
$SPLINETYPE
 70
     6
  9
$SPLINESEGS
 70
     8
  9
$HANDSEED
  5
742
  9
$SURFTAB1
 70
     6
  9
$SURFTAB2
 70
     6
  9
$SURFTYPE
 70
     6
  9
$SURFU
 70
     6
  9
$SURFV
 70
     6
  9
$UCSBASE
  2

  9
$UCSNAME
  2

  9
$UCSORG
 10
0.0
 20
0.0
 30
0.0
  9
$UCSXDIR
 10
1.0
 20
0.0
 30
0.0
  9
$UCSYDIR
 10
0.0
 20
1.0
 30
0.0
  9
$UCSORTHOREF
  2

  9
$UCSORTHOVIEW
 70
     0
  9
$UCSORGTOP
 10
0.0
 20
0.0
 30
0.0
  9
$UCSORGBOTTOM
 10
0.0
 20
0.0
 30
0.0
  9
$UCSORGLEFT
 10
0.0
 20
0.0
 30
0.0
  9
$UCSORGRIGHT
 10
0.0
 20
0.0
 30
0.0
  9
$UCSORGFRONT
 10
0.0
 20
0.0
 30
0.0
  9
$UCSORGBACK
 10
0.0
 20
0.0
 30
0.0
  9
$PUCSBASE
  2

  9
$PUCSNAME
  2

  9
$PUCSORG
 10
0.0
 20
0.0
 30
0.0
  9
$PUCSXDIR
 10
1.0
 20
0.0
 30
0.0
  9
$PUCSYDIR
 10
0.0
 20
1.0
 30
0.0
  9
$PUCSORTHOREF
  2

  9
$PUCSORTHOVIEW
 70
     0
  9
$PUCSORGTOP
 10
0.0
 20
0.0
 30
0.0
  9
$PUCSORGBOTTOM
 10
0.0
 20
0.0
 30
0.0
  9
$PUCSORGLEFT
 10
0.0
 20
0.0
 30
0.0
  9
$PUCSORGRIGHT
 10
0.0
 20
0.0
 30
0.0
  9
$PUCSORGFRONT
 10
0.0
 20
0.0
 30
0.0
  9
$PUCSORGBACK
 10
0.0
 20
0.0
 30
0.0
  9
$USERI1
 70
     0
  9
$USERI2
 70
     0
  9
$USERI3
 70
     0
  9
$USERI4
 70
     0
  9
$USERI5
 70
     0
  9
$USERR1
 40
0.0
  9
$USERR2
 40
0.0
  9
$USERR3
 40
0.0
  9
$USERR4
 40
0.0
  9
$USERR5
 40
0.0
  9
$WORLDVIEW
 70
     1
  9
$SHADEDGE
 70
     3
  9
$SHADEDIF
 70
    70
  9
$TILEMODE
 70
     1
  9
$MAXACTVP
 70
    64
  9
$PINSBASE
 10
0.0
 20
0.0
 30
0.0
  9
$PLIMCHECK
 70
     0
  9
$PEXTMIN
 10
1.000000000000000E+20
 20
1.000000000000000E+20
 30
1.000000000000000E+20
  9
$PEXTMAX
 10
-1.000000000000000E+20
 20
-1.000000000000000E+20
 30
-1.000000000000000E+20
  9
$PLIMMIN
 10
0.0
 20
0.0
  9
$PLIMMAX
 10
12.0
 20
9.0
  9
$UNITMODE
 70
     0
  9
$VISRETAIN
 70
     1
  9
$PLINEGEN
 70
     0
  9
$PSLTSCALE
 70
     1
  9
$TREEDEPTH
 70
  3020
  9
$CMLSTYLE
  2
Standard
  9
$CMLJUST
 70
     0
  9
$CMLSCALE
 40
1.0
  9
$PROXYGRAPHICS
 70
     1
  9
$MEASUREMENT
 70
     0
  9
$CELWEIGHT
370
    -1
  9
$ENDCAPS
280
     0
  9
$JOINSTYLE
280
     0
  9
$LWDISPLAY
290
     0
  9
$INSUNITS
 70
     0
  9
$HYPERLINKBASE
  1

  9
$STYLESHEET
  1

  9
$XEDIT
290
     1
  9
$CEPSNTYPE
380
     0
  9
$PSTYLEMODE
290
     1
  9
$FINGERPRINTGUID
  2
{52E067A7-ECAD-40C3-9BED-36D87C4E10BF}
  9
$VERSIONGUID
  2
{FAEB1C32-E019-11D5-929B-00C0DF256EC4}
  9
$EXTNAMES
290
     1
  9
$PSVPSCALE
 40
0.0
  9
$OLESTARTUP
290
     0
  9
$SORTENTS
280
   127
  9
$INDEXCTL
280
     0
  9
$HIDETEXT
280
     1
  9
$XCLIPFRAME
290
     0
  9
$HALOGAP
280
     0
  9
$OBSCOLOR
 70
   257
  9
$OBSLTYPE
280
     0
  9
$INTERSECTIONDISPLAY
280
     0
  9
$INTERSECTIONCOLOR
 70
   257
  9
$DIMASSOC
280
     2
  9
$PROJECTNAME
  1

  9
$CAMERADISPLAY
290
     0
  9
$LENSLENGTH
 40
50.0
  9
$CAMERAHEIGHT
 40
0.0
  9
$STEPSPERSEC
 40
2.0
  9
$STEPSIZE
 40
6.0
  9
$3DDWFPREC
 40
2.0
  9
$PSOLWIDTH
 40
0.25
  9
$PSOLHEIGHT
 40
4.0
  9
$LOFTANG1
 40
1.570796326794897
  9
$LOFTANG2
 40
1.570796326794897
  9
$LOFTMAG1
 40
1.0
  9
$LOFTMAG2
 40
1.0
  9
$LOFTPARAM
 70
     7
  9
$LOFTNORMALS
280
     1
  9
$LATITUDE
 40
37.795
  9
$LONGITUDE
 40
-122.394
  9
$NORTHDIRECTION
 40
0.0
  9
$TIMEZONE
 70
 -8000
  9
$LIGHTGLYPHDISPLAY
280
     1
  9
$TILEMODELIGHTSYNCH
280
     1
  9
$SOLIDHIST
280
     1
  9
$SHOWHIST
280
     1
  9
$DWFFRAME
280
     0
  9
$DGNFRAME
280
     2
  9
$REALWORLDSCALE
290
     1
  9
$INTERFERECOLOR
 62
   256
  9
$CSHADOW
280
     0
  9
$SHADOWPLANELOCATION
 40
0.0
  0
ENDSEC
  0
SECTION
  2
CLASSES
  0
CLASS
  1
ACDBDICTIONARYWDFLT
  2
AcDbDictionaryWithDefault
  3
ObjectDBX Classes
 90
        0
 91
        3
280
     0
281
     0
  0
CLASS
  1
ACDBPLACEHOLDER
  2
AcDbPlaceHolder
  3
ObjectDBX Classes
 90
        0
 91
        1
280
     0
281
     0
  0
CLASS
  1
LAYOUT
  2
AcDbLayout
  3
ObjectDBX Classes
 90
        0
 91
        1
280
     0
281
     0
  0
CLASS
  1
DICTIONARYVAR
  2
AcDbDictionaryVar
  3
ObjectDBX Classes
 90
        0
 91
        3
280
     0
281
     0
  0
CLASS
  1
TABLESTYLE
  2
AcDbTableStyle
  3
ObjectDBX Classes
 90
     4095
 91
        3
280
     0
281
     0
  0
ENDSEC
  0
SECTION
  2
TABLES
  0
TABLE
  2
VPORT
  5
8
330
0
100
AcDbSymbolTable
 70
     2
  0
VPORT
  5
97
330
8
100
AcDbSymbolTableRecord
100
AcDbViewportTableRecord
  2
*Active
 70
     0
 10
0.0
 20
0.0
 11
1.0
 21
1.0
 12
83.42783844145325
 22
53.53482435319052
 13
0.0
 23
0.0
 14
0.5
 24
0.5
 15
0.5
 25
0.5
 16
-1.0
 26
-1.0
 36
1.0
 17
0.0
 27
0.0
 37
0.0
 40
231.7446152370579
 41
1.972972972850329
 42
50.0
 43
0.0
 44
0.0
 50
0.0
 51
0.0
 71
     0
 72
    16
 73
     0
 74
     2
 75
     0
 76
     0
 77
     0
 78
     0
281
     0
 65
     1
110
0.0
120
0.0
130
0.0
111
1.0
121
0.0
131
0.0
112
0.0
122
1.0
132
0.0
 79
     0
146
0.0
 60
     0
 61
     5
292
     1
282
     1
141
0.0
142
0.0
 63
   256
  0
ENDTAB
  0
TABLE
  2
LTYPE
  5
5
330
0
100
AcDbSymbolTable
 70
     1
  0
LTYPE
  5
14
330
5
100
AcDbSymbolTableRecord
100
AcDbLinetypeTableRecord
  2
ByBlock
 70
     0
  3

 72
    65
 73
     0
 40
0.0
  0
LTYPE
  5
15
330
5
100
AcDbSymbolTableRecord
100
AcDbLinetypeTableRecord
  2
ByLayer
 70
     0
  3

 72
    65
 73
     0
 40
0.0
  0
LTYPE
  5
16
330
5
100
AcDbSymbolTableRecord
100
AcDbLinetypeTableRecord
  2
Continuous
 70
     0
  3
Solid line
 72
    65
 73
     0
 40
0.0
  0
ENDTAB
  0
TABLE
  2
LAYER
  5
2
330
0
100
AcDbSymbolTable
 70
     3
  0
LAYER
  5
10
330
2
100
AcDbSymbolTableRecord
100
AcDbLayerTableRecord
  2
0
 70
     0
 62
     7
  6
Continuous
370
    -3
390
F
347
0
  0
LAYER
  5
727
330
2
100
AcDbSymbolTableRecord
100
AcDbLayerTableRecord
  2
ACE_ACE
 70
     0
 62
     5
  6
Continuous
370
    -3
390
F
347
0
  0
LAYER
  5
728
330
2
100
AcDbSymbolTableRecord
100
AcDbLayerTableRecord
  2
ACE_PTO
 70
     0
 62
   151
  6
Continuous
370
    -3
390
F
347
0
  0
ENDTAB
  0
TABLE
  2
STYLE
  5
3
330
0
100
AcDbSymbolTable
 70
     1
  0
STYLE
  5
11
330
3
100
AcDbSymbolTableRecord
100
AcDbTextStyleTableRecord
  2
Standard
 70
     0
 40
0.0
 41
1.0
 50
0.0
 71
     0
 42
0.2
  3
txt
  4

  0
ENDTAB
  0
TABLE
  2
VIEW
  5
6
330
0
100
AcDbSymbolTable
 70
     0
  0
ENDTAB
  0
TABLE
  2
UCS
  5
7
330
0
100
AcDbSymbolTable
 70
     0
  0
ENDTAB
  0
TABLE
  2
APPID
  5
9
330
0
100
AcDbSymbolTable
 70
     1
  0
APPID
  5
12
330
9
100
AcDbSymbolTableRecord
100
AcDbRegAppTableRecord
  2
ACAD
 70
     0
  0
ENDTAB
  0
TABLE
  2
DIMSTYLE
  5
A
330
0
100
AcDbSymbolTable
 70
     1
100
AcDbDimStyleTable
  0
DIMSTYLE
105
27
330
A
100
AcDbSymbolTableRecord
100
AcDbDimStyleTableRecord
  2
Standard
 70
     0
340
11
  0
ENDTAB
  0
TABLE
  2
BLOCK_RECORD
  5
1
330
0
100
AcDbSymbolTable
 70
     0
  0
BLOCK_RECORD
  5
1F
330
1
100
AcDbSymbolTableRecord
100
AcDbBlockTableRecord
  2
*Model_Space
340
22
 70
     0
280
     1
281
     0
  0
BLOCK_RECORD
  5
73
330
1
100
AcDbSymbolTableRecord
100
AcDbBlockTableRecord
  2
*Paper_Space
340
74
 70
     0
280
     1
281
     0
  0
ENDTAB
  0
ENDSEC
  0
SECTION
  2
BLOCKS
  0
BLOCK
  5
20
330
1F
100
AcDbEntity
  8
0
100
AcDbBlockBegin
  2
*Model_Space
 70
     0
 71
     0
 10
0.0
 20
0.0
 30
0.0
  3
*Model_Space
  1

  0
ENDBLK
  5
21
330
1F
100
AcDbEntity
  8
0
100
AcDbBlockEnd
  0
BLOCK
  5
75
330
73
100
AcDbEntity
 67
     1
  8
0
100
AcDbBlockBegin
  2
*Paper_Space
 70
     0
 71
     0
 10
0.0
 20
0.0
 30
0.0
  3
*Paper_Space
  1

  0
ENDBLK
  5
76
330
73
100
AcDbEntity
 67
     1
  8
0
100
AcDbBlockEnd
  0
ENDSEC
  0
SECTION
  2
ENTITIES
  0
3DFACE
  5
179
330
1F
100
AcDbEntity
  8
ACE_PTO
100
AcDbFace
 10
19.36999999999999
 20
-27.89
 30
0.0000000000000064
 11
27.36999999999999
 21
-35.89
 31
0.0000000000000064
 12
41.36999999999999
 22
-13.89
 32
0.0000000000000064
 13
19.36999999999999
 23
-27.89
 33
0.0000000000000064
  0
3DFACE
  5
17A
330
1F
100
AcDbEntity
  8
ACE_PTO
100
AcDbFace
 10
19.36999999999999
 20
-27.89
 30
4.000000000000035
 11
27.36999999999999
 21
-35.89
 31
4.000000000000035
 12
41.36999999999999
 22
-13.89
 32
4.000000000000035
 13
19.36999999999999
 23
-27.89
 33
4.000000000000035
  0
3DFACE
  5
1A3
330
1F
100
AcDbEntity
  8
ACE_PTO
100
AcDbFace
 10
31.00000000000001
 20
0.0
 30
124.61
 11
33.00000000000001
 21
-2.0
 31
124.61
 12
33.00000000000001
 22
-2.0
 32
27.09000000000004
 13
31.00000000000001
 23
0.0
 33
27.09000000000004
  0
3DFACE
  5
1A4
330
1F
100
AcDbEntity
  8
ACE_PTO
100
AcDbFace
 10
48.98999999999999
 20
-16.77
 30
27.09000000000004
 11
50.98999999999999
 21
-18.77
 31
27.09000000000004
 12
50.98999999999999
 22
-18.77
 32
124.61
 13
48.98999999999999
 23
-16.77
 33
124.61
  0
3DFACE
  5
1A5
330
1F
100
AcDbEntity
  8
ACE_PTO
100
AcDbFace
 10
41.36999999999999
 20
-13.89
 30
4.000000000000035
 11
41.36999999999999
 21
-13.89
 31
0.0000000000000064
 12
6.36999999999999
 22
-13.89
 32
0.0000000000000064
 13
6.36999999999999
 23
-13.89
 33
4.000000000000035
  0
3DFACE
  5
1A6
330
1F
100
AcDbEntity
  8
ACE_PTO
100
AcDbFace
 10
14.36999999999999
 20
-27.89
 30
0.0000000000000064
 11
14.36999999999999
 21
-13.89
 31
0.0000000000000064
 12
41.36999999999999
 22
-13.89
 32
0.0000000000000064
 13
19.36999999999999
 23
-27.89
 33
0.0000000000000064
  0
3DFACE
  5
1A7
330
1F
100
AcDbEntity
  8
ACE_PTO
100
AcDbFace
 10
14.36999999999999
 20
-27.89
 30
4.000000000000035
 11
14.36999999999999
 21
-13.89
 31
4.000000000000035
 12
41.36999999999999
 22
-13.89
 32
4.000000000000035
 13
19.36999999999999
 23
-27.89
 33
4.000000000000035
  0
3DFACE
  5
1A8
330
1F
100
AcDbEntity
  8
ACE_PTO
100
AcDbFace
 10
13.97000000000001
 20
-8.64
 30
20.16000000000004
 11
27.20999999999999
 21
-13.05
 31
21.07000000000004
 12
13.97000000000001
 22
-17.04
 32
4.000000000000035
 13
13.97000000000001
 23
-13.89
 33
4.000000000000035
  0
3DFACE
  5
1A9
330
1F
100
AcDbEntity
  8
ACE_PTO
100
AcDbFace
 10
13.97000000000001
 20
-8.64
 30
20.16000000000004
 11
33.77
 21
-8.64
 31
20.15000000000003
 12
33.77
 22
-13.89
 32
4.000000000000035
 13
13.97000000000001
 23
-13.89
 33
4.000000000000035
  0
3DFACE
  5
1AA
330
1F
100
AcDbEntity
  8
ACE_PTO
100
AcDbFace
 10
13.97000000000001
 20
-17.04
 30
4.000000000000035
 11
27.20999999999999
 21
-13.05
 31
21.07000000000004
 12
33.77
 22
-11.509999
 32
21.02000000000004
 13
33.77
 23
-17.04
 33
4.000000000000035
  0
3DFACE
  5
1AB
330
1F
100
AcDbEntity
  8
ACE_PTO
100
AcDbFace
 10
19.36999999999999
 20
-27.89
 30
4.000000000000035
 11
14.36999999999999
 21
-27.89
 31
4.000000000000035
 12
14.36999999999999
 22
-27.89
 32
0.0000000000000064
 13
19.36999999999999
 23
-27.89
 33
0.0000000000000064
  0
3DFACE
  5
1AC
330
1F
100
AcDbEntity
  8
ACE_PTO
100
AcDbFace
 10
40.66000000000001
 20
-38.19
 30
21.07000000000004
 11
43.52
 21
-38.19
 31
20.16000000000004
 12
38.27
 22
-38.19
 32
4.000000000000035
 13
35.11999999999999
 23
-38.19
 33
4.000000000000035
  0
3DFACE
  5
1AD
330
1F
100
AcDbEntity
  8
ACE_PTO
100
AcDbFace
 10
43.52
 20
-18.39
 30
20.15000000000003
 11
43.52
 21
-38.19
 31
20.16000000000004
 12
38.27
 22
-38.19
 32
4.000000000000035
 13
38.27
 23
-18.39
 33
4.000000000000035
  0
3DFACE
  5
1AE
330
1F
100
AcDbEntity
  8
ACE_PTO
100
AcDbFace
 10
35.11999999999999
 20
-18.39
 30
4.000000000000035
 11
35.11999999999999
 21
-38.19
 31
4.000000000000035
 12
40.66000000000001
 22
-38.19
 32
21.07000000000004
 13
40.64999999999999
 23
-18.39
 33
21.02000000000004
  0
3DFACE
  5
1AF
330
1F
100
AcDbEntity
  8
ACE_PTO
100
AcDbFace
 10
27.36999999999999
 20
-40.89
 30
4.000000000000035
 11
41.36999999999999
 21
-40.89
 31
4.000000000000035
 12
41.36999999999999
 22
-13.89
 32
4.000000000000035
 13
27.36999999999999
 23
-35.89
 33
4.000000000000035
  0
3DFACE
  5
1B0
330
1F
100
AcDbEntity
  8
ACE_PTO
100
AcDbFace
 10
27.36999999999999
 20
-40.89
 30
0.0000000000000064
 11
41.36999999999999
 21
-40.89
 31
0.0000000000000064
 12
41.36999999999999
 22
-13.89
 32
0.0000000000000064
 13
27.36999999999999
 23
-35.89
 33
0.0000000000000064
  0
3DFACE
  5
1B1
330
1F
100
AcDbEntity
  8
ACE_PTO
100
AcDbFace
 10
41.36999999999999
 20
-13.89
 30
4.000000000000035
 11
41.36999999999999
 21
-13.89
 31
0.0000000000000064
 12
41.36999999999999
 22
-48.89
 32
0.0000000000000064
 13
41.36999999999999
 23
-48.89
 33
4.000000000000035
  0
3DFACE
  5
1B2
330
1F
100
AcDbEntity
  8
ACE_PTO
100
AcDbFace
 10
19.36999999999999
 20
-27.89
 30
4.000000000000035
 11
27.36999999999999
 21
-35.89
 31
4.000000000000035
 12
27.36999999999999
 22
-35.89
 32
0.0000000000000064
 13
19.36999999999999
 23
-27.89
 33
0.0000000000000064
  0
3DFACE
  5
1B3
330
1F
100
AcDbEntity
  8
ACE_PTO
100
AcDbFace
 10
41.36999999999999
 20
-48.89
 30
4.000000000000035
 11
35.36999999999999
 21
-48.89
 31
4.000000000000035
 12
35.36999999999999
 22
-48.89
 32
0.0000000000000064
 13
41.36999999999999
 23
-48.89
 33
0.0000000000000064
  0
3DFACE
  5
1B4
330
1F
100
AcDbEntity
  8
ACE_PTO
100
AcDbFace
 10
27.36999999999999
 20
-35.89
 30
4.000000000000035
 11
27.36999999999999
 21
-35.89
 31
0.0000000000000064
 12
27.36999999999999
 22
-40.89
 32
0.0000000000000064
 13
27.36999999999999
 23
-40.89
 33
4.000000000000035
  0
3DFACE
  5
1B5
330
1F
100
AcDbEntity
  8
ACE_PTO
100
AcDbFace
 10
6.36999999999999
 20
-13.89
 30
4.000000000000035
 11
6.36999999999999
 21
-19.89
 31
4.000000000000035
 12
6.36999999999999
 22
-19.89
 32
0.0000000000000064
 13
6.36999999999999
 23
-13.89
 33
0.0000000000000064
  0
POLYLINE
  5
471
330
1F
100
AcDbEntity
  8
ACE_PTO
100
AcDbPolygonMesh
 66
     1
 10
0.0
 20
0.0
 30
0.0
 70
    16
 71
     2
 72
     4
  0
VERTEX
  5
472
330
471
100
AcDbEntity
  8
ACE_PTO
100
AcDbVertex
100
AcDbPolygonMeshVertex
 10
31.00000000000001
 20
0.0
 30
124.61
 70
    64
  0
VERTEX
  5
473
330
471
100
AcDbEntity
  8
ACE_PTO
100
AcDbVertex
100
AcDbPolygonMeshVertex
 10
40.58
 20
-2.59
 30
124.61
 70
    64
  0
VERTEX
  5
474
330
471
100
AcDbEntity
  8
ACE_PTO
100
AcDbVertex
100
AcDbPolygonMeshVertex
 10
47.80999999999999
 20
-9.379999999999999
 30
124.61
 70
    64
  0
VERTEX
  5
475
330
471
100
AcDbEntity
  8
ACE_PTO
100
AcDbVertex
100
AcDbPolygonMeshVertex
 10
50.98999999999999
 20
-18.77
 30
124.61
 70
    64
  0
VERTEX
  5
476
330
471
100
AcDbEntity
  8
ACE_PTO
100
AcDbVertex
100
AcDbPolygonMeshVertex
 10
31.00000000000001
 20
0.0
 30
27.09000000000004
 70
    64
  0
VERTEX
  5
477
330
471
100
AcDbEntity
  8
ACE_PTO
100
AcDbVertex
100
AcDbPolygonMeshVertex
 10
40.58
 20
-2.59
 30
27.09000000000004
 70
    64
  0
VERTEX
  5
478
330
471
100
AcDbEntity
  8
ACE_PTO
100
AcDbVertex
100
AcDbPolygonMeshVertex
 10
47.80999999999999
 20
-9.379999999999999
 30
27.09000000000004
 70
    64
  0
VERTEX
  5
479
330
471
100
AcDbEntity
  8
ACE_PTO
100
AcDbVertex
100
AcDbPolygonMeshVertex
 10
50.98999999999999
 20
-18.77
 30
27.09000000000004
 70
    64
  0
SEQEND
  5
729
330
471
100
AcDbEntity
  8
ACE_PTO
  0
POLYLINE
  5
47B
330
1F
100
AcDbEntity
  8
ACE_PTO
100
AcDbPolygonMesh
 66
     1
 10
0.0
 20
0.0
 30
0.0
 70
    16
 71
     2
 72
     4
  0
VERTEX
  5
47C
330
47B
100
AcDbEntity
  8
ACE_PTO
100
AcDbVertex
100
AcDbPolygonMeshVertex
 10
33.00000000000001
 20
-2.0
 30
124.61
 70
    64
  0
VERTEX
  5
47D
330
47B
100
AcDbEntity
  8
ACE_PTO
100
AcDbVertex
100
AcDbPolygonMeshVertex
 10
40.47000000000001
 20
-4.219999999999998
 30
124.61
 70
    64
  0
VERTEX
  5
47E
330
47B
100
AcDbEntity
  8
ACE_PTO
100
AcDbVertex
100
AcDbPolygonMeshVertex
 10
46.19000000000001
 20
-9.5
 30
124.61
 70
    64
  0
VERTEX
  5
47F
330
47B
100
AcDbEntity
  8
ACE_PTO
100
AcDbVertex
100
AcDbPolygonMeshVertex
 10
48.98999999999999
 20
-16.77
 30
124.61
 70
    64
  0
VERTEX
  5
480
330
47B
100
AcDbEntity
  8
ACE_PTO
100
AcDbVertex
100
AcDbPolygonMeshVertex
 10
33.00000000000001
 20
-2.0
 30
27.09000000000004
 70
    64
  0
VERTEX
  5
481
330
47B
100
AcDbEntity
  8
ACE_PTO
100
AcDbVertex
100
AcDbPolygonMeshVertex
 10
40.44000000000001
 20
-4.26
 30
27.09000000000004
 70
    64
  0
VERTEX
  5
482
330
47B
100
AcDbEntity
  8
ACE_PTO
100
AcDbVertex
100
AcDbPolygonMeshVertex
 10
46.14999999999999
 20
-9.53
 30
27.09000000000004
 70
    64
  0
VERTEX
  5
483
330
47B
100
AcDbEntity
  8
ACE_PTO
100
AcDbVertex
100
AcDbPolygonMeshVertex
 10
48.98999999999999
 20
-16.77
 30
27.09000000000004
 70
    64
  0
SEQEND
  5
72A
330
47B
100
AcDbEntity
  8
ACE_PTO
  0
POLYLINE
  5
485
330
1F
100
AcDbEntity
  8
ACE_PTO
100
AcDbPolygonMesh
 66
     1
 10
0.0
 20
0.0
 30
0.0
 70
    48
 71
     2
 72
     6
  0
VERTEX
  5
486
330
485
100
AcDbEntity
  8
ACE_PTO
100
AcDbVertex
100
AcDbPolygonMeshVertex
 10
0.0
 20
0.0
 30
27.09000000000004
 70
    64
  0
VERTEX
  5
487
330
485
100
AcDbEntity
  8
ACE_PTO
100
AcDbVertex
100
AcDbPolygonMeshVertex
 10
0.0
 20
-4.0
 30
34.01000000000003
 70
    64
  0
VERTEX
  5
488
330
485
100
AcDbEntity
  8
ACE_PTO
100
AcDbVertex
100
AcDbPolygonMeshVertex
 10
0.0
 20
-12.0
 30
34.01000000000003
 70
    64
  0
VERTEX
  5
489
330
485
100
AcDbEntity
  8
ACE_PTO
100
AcDbVertex
100
AcDbPolygonMeshVertex
 10
0.0
 20
-16.0
 30
27.09000000000004
 70
    64
  0
VERTEX
  5
48A
330
485
100
AcDbEntity
  8
ACE_PTO
100
AcDbVertex
100
AcDbPolygonMeshVertex
 10
0.0
 20
-12.0
 30
20.16000000000004
 70
    64
  0
VERTEX
  5
48B
330
485
100
AcDbEntity
  8
ACE_PTO
100
AcDbVertex
100
AcDbPolygonMeshVertex
 10
0.0
 20
-4.0
 30
20.16000000000004
 70
    64
  0
VERTEX
  5
48C
330
485
100
AcDbEntity
  8
ACE_PTO
100
AcDbVertex
100
AcDbPolygonMeshVertex
 10
31.00000000000001
 20
0.0
 30
27.09000000000004
 70
    64
  0
VERTEX
  5
48D
330
485
100
AcDbEntity
  8
ACE_PTO
100
AcDbVertex
100
AcDbPolygonMeshVertex
 10
31.00000000000001
 20
-4.0
 30
34.01000000000003
 70
    64
  0
VERTEX
  5
48E
330
485
100
AcDbEntity
  8
ACE_PTO
100
AcDbVertex
100
AcDbPolygonMeshVertex
 10
31.00000000000001
 20
-12.0
 30
34.01000000000003
 70
    64
  0
VERTEX
  5
48F
330
485
100
AcDbEntity
  8
ACE_PTO
100
AcDbVertex
100
AcDbPolygonMeshVertex
 10
31.00000000000001
 20
-16.0
 30
27.09000000000004
 70
    64
  0
VERTEX
  5
490
330
485
100
AcDbEntity
  8
ACE_PTO
100
AcDbVertex
100
AcDbPolygonMeshVertex
 10
31.00000000000001
 20
-12.0
 30
20.16000000000004
 70
    64
  0
VERTEX
  5
491
330
485
100
AcDbEntity
  8
ACE_PTO
100
AcDbVertex
100
AcDbPolygonMeshVertex
 10
31.00000000000001
 20
-4.0
 30
20.16000000000004
 70
    64
  0
SEQEND
  5
72B
330
485
100
AcDbEntity
  8
ACE_PTO
  0
POLYLINE
  5
493
330
1F
100
AcDbEntity
  8
ACE_PTO
100
AcDbPolygonMesh
 66
     1
 10
0.0
 20
0.0
 30
0.0
 70
    16
 71
     2
 72
     4
  0
VERTEX
  5
494
330
493
100
AcDbEntity
  8
ACE_PTO
100
AcDbVertex
100
AcDbPolygonMeshVertex
 10
33.77
 20
-13.89
 30
4.000000000000035
 70
    64
  0
VERTEX
  5
495
330
493
100
AcDbEntity
  8
ACE_PTO
100
AcDbVertex
100
AcDbPolygonMeshVertex
 10
36.02
 20
-14.49
 30
4.000000000000035
 70
    64
  0
VERTEX
  5
496
330
493
100
AcDbEntity
  8
ACE_PTO
100
AcDbVertex
100
AcDbPolygonMeshVertex
 10
37.67
 20
-16.14
 30
4.000000000000035
 70
    64
  0
VERTEX
  5
497
330
493
100
AcDbEntity
  8
ACE_PTO
100
AcDbVertex
100
AcDbPolygonMeshVertex
 10
38.27
 20
-18.39
 30
4.000000000000035
 70
    64
  0
VERTEX
  5
498
330
493
100
AcDbEntity
  8
ACE_PTO
100
AcDbVertex
100
AcDbPolygonMeshVertex
 10
33.77
 20
-8.64
 30
20.15000000000003
 70
    64
  0
VERTEX
  5
499
330
493
100
AcDbEntity
  8
ACE_PTO
100
AcDbVertex
100
AcDbPolygonMeshVertex
 10
38.64
 20
-9.96
 30
20.15000000000003
 70
    64
  0
VERTEX
  5
49A
330
493
100
AcDbEntity
  8
ACE_PTO
100
AcDbVertex
100
AcDbPolygonMeshVertex
 10
42.2
 20
-13.52
 30
20.15000000000003
 70
    64
  0
VERTEX
  5
49B
330
493
100
AcDbEntity
  8
ACE_PTO
100
AcDbVertex
100
AcDbPolygonMeshVertex
 10
43.52
 20
-18.39
 30
20.15000000000003
 70
    64
  0
SEQEND
  5
72C
330
493
100
AcDbEntity
  8
ACE_PTO
  0
POLYLINE
  5
49D
330
1F
100
AcDbEntity
  8
ACE_PTO
100
AcDbPolygonMesh
 66
     1
 10
0.0
 20
0.0
 30
0.0
 70
    16
 71
     2
 72
     4
  0
VERTEX
  5
49E
330
49D
100
AcDbEntity
  8
ACE_PTO
100
AcDbVertex
100
AcDbPolygonMeshVertex
 10
33.77
 20
-17.04
 30
4.000000000000035
 70
    64
  0
VERTEX
  5
49F
330
49D
100
AcDbEntity
  8
ACE_PTO
100
AcDbVertex
100
AcDbPolygonMeshVertex
 10
34.45
 20
-17.22
 30
4.000000000000035
 70
    64
  0
VERTEX
  5
4A0
330
49D
100
AcDbEntity
  8
ACE_PTO
100
AcDbVertex
100
AcDbPolygonMeshVertex
 10
34.94000000000001
 20
-17.71
 30
4.000000000000035
 70
    64
  0
VERTEX
  5
4A1
330
49D
100
AcDbEntity
  8
ACE_PTO
100
AcDbVertex
100
AcDbPolygonMeshVertex
 10
35.11999999999999
 20
-18.39
 30
4.000000000000035
 70
    64
  0
VERTEX
  5
4A2
330
49D
100
AcDbEntity
  8
ACE_PTO
100
AcDbVertex
100
AcDbPolygonMeshVertex
 10
33.77
 20
-11.509999
 30
21.02000000000004
 70
    64
  0
VERTEX
  5
4A3
330
49D
100
AcDbEntity
  8
ACE_PTO
100
AcDbVertex
100
AcDbPolygonMeshVertex
 10
37.17999999999999
 20
-12.479999
 30
21.02000000000004
 70
    64
  0
VERTEX
  5
4A4
330
49D
100
AcDbEntity
  8
ACE_PTO
100
AcDbVertex
100
AcDbPolygonMeshVertex
 10
39.67999999999999
 20
-14.98
 30
21.02000000000004
 70
    64
  0
VERTEX
  5
4A5
330
49D
100
AcDbEntity
  8
ACE_PTO
100
AcDbVertex
100
AcDbPolygonMeshVertex
 10
40.64999999999999
 20
-18.39
 30
21.02000000000004
 70
    64
  0
SEQEND
  5
72D
330
49D
100
AcDbEntity
  8
ACE_PTO
  0
POLYLINE
  5
4A7
330
1F
100
AcDbEntity
  8
ACE_PTO
100
AcDbPolygonMesh
 66
     1
 10
0.0
 20
0.0
 30
0.0
 70
    16
 71
     2
 72
     4
  0
VERTEX
  5
4A8
330
4A7
100
AcDbEntity
  8
ACE_PTO
100
AcDbVertex
100
AcDbPolygonMeshVertex
 10
27.36999999999999
 20
-40.89
 30
4.000000000000035
 70
    64
  0
VERTEX
  5
4A9
330
4A7
100
AcDbEntity
  8
ACE_PTO
100
AcDbVertex
100
AcDbPolygonMeshVertex
 10
28.44000000000001
 20
-44.89
 30
4.000000000000035
 70
    64
  0
VERTEX
  5
4AA
330
4A7
100
AcDbEntity
  8
ACE_PTO
100
AcDbVertex
100
AcDbPolygonMeshVertex
 10
31.36999999999999
 20
-47.82
 30
4.000000000000035
 70
    64
  0
VERTEX
  5
4AB
330
4A7
100
AcDbEntity
  8
ACE_PTO
100
AcDbVertex
100
AcDbPolygonMeshVertex
 10
35.36999999999999
 20
-48.89
 30
4.000000000000035
 70
    64
  0
VERTEX
  5
4AC
330
4A7
100
AcDbEntity
  8
ACE_PTO
100
AcDbVertex
100
AcDbPolygonMeshVertex
 10
27.36999999999999
 20
-40.89
 30
0.0000000000000064
 70
    64
  0
VERTEX
  5
4AD
330
4A7
100
AcDbEntity
  8
ACE_PTO
100
AcDbVertex
100
AcDbPolygonMeshVertex
 10
28.44000000000001
 20
-44.89
 30
0.0000000000000064
 70
    64
  0
VERTEX
  5
4AE
330
4A7
100
AcDbEntity
  8
ACE_PTO
100
AcDbVertex
100
AcDbPolygonMeshVertex
 10
31.36999999999999
 20
-47.82
 30
0.0000000000000064
 70
    64
  0
VERTEX
  5
4AF
330
4A7
100
AcDbEntity
  8
ACE_PTO
100
AcDbVertex
100
AcDbPolygonMeshVertex
 10
35.36999999999999
 20
-48.89
 30
0.0000000000000064
 70
    64
  0
SEQEND
  5
72E
330
4A7
100
AcDbEntity
  8
ACE_PTO
  0
POLYLINE
  5
4B1
330
1F
100
AcDbEntity
  8
ACE_PTO
100
AcDbPolygonMesh
 66
     1
 10
0.0
 20
0.0
 30
0.0
 70
    16
 71
     2
 72
     4
  0
VERTEX
  5
4B2
330
4B1
100
AcDbEntity
  8
ACE_PTO
100
AcDbVertex
100
AcDbPolygonMeshVertex
 10
35.36999999999999
 20
-48.89
 30
0.0000000000000064
 70
    64
  0
VERTEX
  5
4B3
330
4B1
100
AcDbEntity
  8
ACE_PTO
100
AcDbVertex
100
AcDbPolygonMeshVertex
 10
31.36999999999999
 20
-47.82
 30
0.0000000000000064
 70
    64
  0
VERTEX
  5
4B4
330
4B1
100
AcDbEntity
  8
ACE_PTO
100
AcDbVertex
100
AcDbPolygonMeshVertex
 10
28.44000000000001
 20
-44.89
 30
0.0000000000000064
 70
    64
  0
VERTEX
  5
4B5
330
4B1
100
AcDbEntity
  8
ACE_PTO
100
AcDbVertex
100
AcDbPolygonMeshVertex
 10
27.36999999999999
 20
-40.89
 30
0.0000000000000064
 70
    64
  0
VERTEX
  5
4B6
330
4B1
100
AcDbEntity
  8
ACE_PTO
100
AcDbVertex
100
AcDbPolygonMeshVertex
 10
41.36999999999999
 20
-48.89
 30
0.0000000000000064
 70
    64
  0
VERTEX
  5
4B7
330
4B1
100
AcDbEntity
  8
ACE_PTO
100
AcDbVertex
100
AcDbPolygonMeshVertex
 10
41.36999999999999
 20
-46.22
 30
0.0000000000000064
 70
    64
  0
VERTEX
  5
4B8
330
4B1
100
AcDbEntity
  8
ACE_PTO
100
AcDbVertex
100
AcDbPolygonMeshVertex
 10
41.36999999999999
 20
-43.55
 30
0.0000000000000064
 70
    64
  0
VERTEX
  5
4B9
330
4B1
100
AcDbEntity
  8
ACE_PTO
100
AcDbVertex
100
AcDbPolygonMeshVertex
 10
41.36999999999999
 20
-40.89
 30
0.0000000000000064
 70
    64
  0
SEQEND
  5
72F
330
4B1
100
AcDbEntity
  8
ACE_PTO
  0
POLYLINE
  5
4BB
330
1F
100
AcDbEntity
  8
ACE_PTO
100
AcDbPolygonMesh
 66
     1
 10
0.0
 20
0.0
 30
0.0
 70
    16
 71
     2
 72
     4
  0
VERTEX
  5
4BC
330
4BB
100
AcDbEntity
  8
ACE_PTO
100
AcDbVertex
100
AcDbPolygonMeshVertex
 10
35.36999999999999
 20
-48.89
 30
4.000000000000035
 70
    64
  0
VERTEX
  5
4BD
330
4BB
100
AcDbEntity
  8
ACE_PTO
100
AcDbVertex
100
AcDbPolygonMeshVertex
 10
31.36999999999999
 20
-47.82
 30
4.000000000000035
 70
    64
  0
VERTEX
  5
4BE
330
4BB
100
AcDbEntity
  8
ACE_PTO
100
AcDbVertex
100
AcDbPolygonMeshVertex
 10
28.44000000000001
 20
-44.89
 30
4.000000000000035
 70
    64
  0
VERTEX
  5
4BF
330
4BB
100
AcDbEntity
  8
ACE_PTO
100
AcDbVertex
100
AcDbPolygonMeshVertex
 10
27.36999999999999
 20
-40.89
 30
4.000000000000035
 70
    64
  0
VERTEX
  5
4C0
330
4BB
100
AcDbEntity
  8
ACE_PTO
100
AcDbVertex
100
AcDbPolygonMeshVertex
 10
41.36999999999999
 20
-48.89
 30
4.000000000000035
 70
    64
  0
VERTEX
  5
4C1
330
4BB
100
AcDbEntity
  8
ACE_PTO
100
AcDbVertex
100
AcDbPolygonMeshVertex
 10
41.36999999999999
 20
-46.22
 30
4.000000000000035
 70
    64
  0
VERTEX
  5
4C2
330
4BB
100
AcDbEntity
  8
ACE_PTO
100
AcDbVertex
100
AcDbPolygonMeshVertex
 10
41.36999999999999
 20
-43.55
 30
4.000000000000035
 70
    64
  0
VERTEX
  5
4C3
330
4BB
100
AcDbEntity
  8
ACE_PTO
100
AcDbVertex
100
AcDbPolygonMeshVertex
 10
41.36999999999999
 20
-40.89
 30
4.000000000000035
 70
    64
  0
SEQEND
  5
730
330
4BB
100
AcDbEntity
  8
ACE_PTO
  0
POLYLINE
  5
4C5
330
1F
100
AcDbEntity
  8
ACE_PTO
100
AcDbPolygonMesh
 66
     1
 10
0.0
 20
0.0
 30
0.0
 70
    48
 71
     2
 72
     6
  0
VERTEX
  5
4C6
330
4C5
100
AcDbEntity
  8
ACE_PTO
100
AcDbVertex
100
AcDbPolygonMeshVertex
 10
50.98999999999999
 20
-18.77
 30
27.09000000000004
 70
    64
  0
VERTEX
  5
4C7
330
4C5
100
AcDbEntity
  8
ACE_PTO
100
AcDbVertex
100
AcDbPolygonMeshVertex
 10
46.98999999999999
 20
-18.77
 30
34.01000000000003
 70
    64
  0
VERTEX
  5
4C8
330
4C5
100
AcDbEntity
  8
ACE_PTO
100
AcDbVertex
100
AcDbPolygonMeshVertex
 10
38.98999999999999
 20
-18.77
 30
34.01000000000003
 70
    64
  0
VERTEX
  5
4C9
330
4C5
100
AcDbEntity
  8
ACE_PTO
100
AcDbVertex
100
AcDbPolygonMeshVertex
 10
34.98999999999999
 20
-18.77
 30
27.09000000000004
 70
    64
  0
VERTEX
  5
4CA
330
4C5
100
AcDbEntity
  8
ACE_PTO
100
AcDbVertex
100
AcDbPolygonMeshVertex
 10
38.98999999999999
 20
-18.77
 30
20.16000000000004
 70
    64
  0
VERTEX
  5
4CB
330
4C5
100
AcDbEntity
  8
ACE_PTO
100
AcDbVertex
100
AcDbPolygonMeshVertex
 10
46.98999999999999
 20
-18.77
 30
20.16000000000004
 70
    64
  0
VERTEX
  5
4CC
330
4C5
100
AcDbEntity
  8
ACE_PTO
100
AcDbVertex
100
AcDbPolygonMeshVertex
 10
50.98999999999999
 20
-49.77
 30
27.09000000000004
 70
    64
  0
VERTEX
  5
4CD
330
4C5
100
AcDbEntity
  8
ACE_PTO
100
AcDbVertex
100
AcDbPolygonMeshVertex
 10
46.98999999999999
 20
-49.77
 30
34.01000000000003
 70
    64
  0
VERTEX
  5
4CE
330
4C5
100
AcDbEntity
  8
ACE_PTO
100
AcDbVertex
100
AcDbPolygonMeshVertex
 10
38.98999999999999
 20
-49.77
 30
34.01000000000003
 70
    64
  0
VERTEX
  5
4CF
330
4C5
100
AcDbEntity
  8
ACE_PTO
100
AcDbVertex
100
AcDbPolygonMeshVertex
 10
34.98999999999999
 20
-49.77
 30
27.09000000000004
 70
    64
  0
VERTEX
  5
4D0
330
4C5
100
AcDbEntity
  8
ACE_PTO
100
AcDbVertex
100
AcDbPolygonMeshVertex
 10
38.98999999999999
 20
-49.77
 30
20.16000000000004
 70
    64
  0
VERTEX
  5
4D1
330
4C5
100
AcDbEntity
  8
ACE_PTO
100
AcDbVertex
100
AcDbPolygonMeshVertex
 10
46.98999999999999
 20
-49.77
 30
20.16000000000004
 70
    64
  0
SEQEND
  5
731
330
4C5
100
AcDbEntity
  8
ACE_PTO
  0
POLYLINE
  5
4D3
330
1F
100
AcDbEntity
  8
ACE_PTO
100
AcDbPolygonMesh
 66
     1
 10
0.0
 20
0.0
 30
0.0
 70
    16
 71
     2
 72
     4
  0
VERTEX
  5
4D4
330
4D3
100
AcDbEntity
  8
ACE_PTO
100
AcDbVertex
100
AcDbPolygonMeshVertex
 10
34.98999999999999
 20
-49.77
 30
27.08000000000003
 70
    64
  0
VERTEX
  5
4D5
330
4D3
100
AcDbEntity
  8
ACE_PTO
100
AcDbVertex
100
AcDbPolygonMeshVertex
 10
38.98999999999999
 20
-49.77
 30
34.01000000000003
 70
    64
  0
VERTEX
  5
4D6
330
4D3
100
AcDbEntity
  8
ACE_PTO
100
AcDbVertex
100
AcDbPolygonMeshVertex
 10
46.98999999999999
 20
-49.77
 30
34.01000000000003
 70
    64
  0
VERTEX
  5
4D7
330
4D3
100
AcDbEntity
  8
ACE_PTO
100
AcDbVertex
100
AcDbPolygonMeshVertex
 10
50.98999999999999
 20
-49.77
 30
27.08000000000003
 70
    64
  0
VERTEX
  5
4D8
330
4D3
100
AcDbEntity
  8
ACE_PTO
100
AcDbVertex
100
AcDbPolygonMeshVertex
 10
34.98999999999999
 20
-49.77
 30
27.08000000000003
 70
    64
  0
VERTEX
  5
4D9
330
4D3
100
AcDbEntity
  8
ACE_PTO
100
AcDbVertex
100
AcDbPolygonMeshVertex
 10
38.98999999999999
 20
-49.77
 30
20.15000000000003
 70
    64
  0
VERTEX
  5
4DA
330
4D3
100
AcDbEntity
  8
ACE_PTO
100
AcDbVertex
100
AcDbPolygonMeshVertex
 10
46.98999999999999
 20
-49.77
 30
20.15000000000003
 70
    64
  0
VERTEX
  5
4DB
330
4D3
100
AcDbEntity
  8
ACE_PTO
100
AcDbVertex
100
AcDbPolygonMeshVertex
 10
50.98999999999999
 20
-49.77
 30
27.08000000000003
 70
    64
  0
SEQEND
  5
732
330
4D3
100
AcDbEntity
  8
ACE_PTO
  0
POLYLINE
  5
4DD
330
1F
100
AcDbEntity
  8
ACE_PTO
100
AcDbPolygonMesh
 66
     1
 10
0.0
 20
0.0
 30
0.0
 70
    48
 71
     5
 72
     6
  0
VERTEX
  5
4DE
330
4DD
100
AcDbEntity
  8
ACE_PTO
100
AcDbVertex
100
AcDbPolygonMeshVertex
 10
31.00000000000001
 20
0.0
 30
27.09000000000004
 70
    64
  0
VERTEX
  5
4DF
330
4DD
100
AcDbEntity
  8
ACE_PTO
100
AcDbVertex
100
AcDbPolygonMeshVertex
 10
31.00000000000001
 20
-4.0
 30
34.01000000000003
 70
    64
  0
VERTEX
  5
4E0
330
4DD
100
AcDbEntity
  8
ACE_PTO
100
AcDbVertex
100
AcDbPolygonMeshVertex
 10
31.00000000000001
 20
-12.0
 30
34.01000000000003
 70
    64
  0
VERTEX
  5
4E1
330
4DD
100
AcDbEntity
  8
ACE_PTO
100
AcDbVertex
100
AcDbPolygonMeshVertex
 10
31.00000000000001
 20
-16.0
 30
27.09000000000004
 70
    64
  0
VERTEX
  5
4E2
330
4DD
100
AcDbEntity
  8
ACE_PTO
100
AcDbVertex
100
AcDbPolygonMeshVertex
 10
31.00000000000001
 20
-12.0
 30
20.16000000000004
 70
    64
  0
VERTEX
  5
4E3
330
4DD
100
AcDbEntity
  8
ACE_PTO
100
AcDbVertex
100
AcDbPolygonMeshVertex
 10
31.00000000000001
 20
-4.0
 30
20.16000000000004
 70
    64
  0
VERTEX
  5
4E4
330
4DD
100
AcDbEntity
  8
ACE_PTO
100
AcDbVertex
100
AcDbPolygonMeshVertex
 10
38.45999999999999
 20
-1.24
 30
27.09000000000004
 70
    64
  0
VERTEX
  5
4E5
330
4DD
100
AcDbEntity
  8
ACE_PTO
100
AcDbVertex
100
AcDbPolygonMeshVertex
 10
36.92999999999999
 20
-4.94
 30
34.01000000000003
 70
    64
  0
VERTEX
  5
4E6
330
4DD
100
AcDbEntity
  8
ACE_PTO
100
AcDbVertex
100
AcDbPolygonMeshVertex
 10
33.86999999999999
 20
-12.33
 30
34.01000000000003
 70
    64
  0
VERTEX
  5
4E7
330
4DD
100
AcDbEntity
  8
ACE_PTO
100
AcDbVertex
100
AcDbPolygonMeshVertex
 10
32.33999999999999
 20
-16.03
 30
27.09000000000004
 70
    64
  0
VERTEX
  5
4E8
330
4DD
100
AcDbEntity
  8
ACE_PTO
100
AcDbVertex
100
AcDbPolygonMeshVertex
 10
33.86999999999999
 20
-12.33
 30
20.16000000000004
 70
    64
  0
VERTEX
  5
4E9
330
4DD
100
AcDbEntity
  8
ACE_PTO
100
AcDbVertex
100
AcDbPolygonMeshVertex
 10
36.92999999999999
 20
-4.94
 30
20.16000000000004
 70
    64
  0
VERTEX
  5
4EA
330
4DD
100
AcDbEntity
  8
ACE_PTO
100
AcDbVertex
100
AcDbPolygonMeshVertex
 10
44.88000000000001
 20
-5.25
 30
27.09000000000004
 70
    64
  0
VERTEX
  5
4EB
330
4DD
100
AcDbEntity
  8
ACE_PTO
100
AcDbVertex
100
AcDbPolygonMeshVertex
 10
42.05
 20
-8.08
 30
34.01000000000003
 70
    64
  0
VERTEX
  5
4EC
330
4DD
100
AcDbEntity
  8
ACE_PTO
100
AcDbVertex
100
AcDbPolygonMeshVertex
 10
36.39
 20
-13.729999
 30
34.01000000000003
 70
    64
  0
VERTEX
  5
4ED
330
4DD
100
AcDbEntity
  8
ACE_PTO
100
AcDbVertex
100
AcDbPolygonMeshVertex
 10
33.57000000000001
 20
-16.56
 30
27.09000000000004
 70
    64
  0
VERTEX
  5
4EE
330
4DD
100
AcDbEntity
  8
ACE_PTO
100
AcDbVertex
100
AcDbPolygonMeshVertex
 10
36.39
 20
-13.729999
 30
20.16000000000004
 70
    64
  0
VERTEX
  5
4EF
330
4DD
100
AcDbEntity
  8
ACE_PTO
100
AcDbVertex
100
AcDbPolygonMeshVertex
 10
42.05
 20
-8.08
 30
20.16000000000004
 70
    64
  0
VERTEX
  5
4F0
330
4DD
100
AcDbEntity
  8
ACE_PTO
100
AcDbVertex
100
AcDbPolygonMeshVertex
 10
49.27999999999999
 20
-11.4
 30
27.09000000000004
 70
    64
  0
VERTEX
  5
4F1
330
4DD
100
AcDbEntity
  8
ACE_PTO
100
AcDbVertex
100
AcDbPolygonMeshVertex
 10
45.58
 20
-12.929999
 30
34.01000000000003
 70
    64
  0
VERTEX
  5
4F2
330
4DD
100
AcDbEntity
  8
ACE_PTO
100
AcDbVertex
100
AcDbPolygonMeshVertex
 10
38.19000000000001
 20
-15.99
 30
34.01000000000003
 70
    64
  0
VERTEX
  5
4F3
330
4DD
100
AcDbEntity
  8
ACE_PTO
100
AcDbVertex
100
AcDbPolygonMeshVertex
 10
34.50000000000001
 20
-17.53
 30
27.09000000000004
 70
    64
  0
VERTEX
  5
4F4
330
4DD
100
AcDbEntity
  8
ACE_PTO
100
AcDbVertex
100
AcDbPolygonMeshVertex
 10
38.19000000000001
 20
-15.99
 30
20.16000000000004
 70
    64
  0
VERTEX
  5
4F5
330
4DD
100
AcDbEntity
  8
ACE_PTO
100
AcDbVertex
100
AcDbPolygonMeshVertex
 10
45.58
 20
-12.929999
 30
20.16000000000004
 70
    64
  0
VERTEX
  5
4F6
330
4DD
100
AcDbEntity
  8
ACE_PTO
100
AcDbVertex
100
AcDbPolygonMeshVertex
 10
50.98999999999999
 20
-18.77
 30
27.09000000000004
 70
    64
  0
VERTEX
  5
4F7
330
4DD
100
AcDbEntity
  8
ACE_PTO
100
AcDbVertex
100
AcDbPolygonMeshVertex
 10
46.98999999999999
 20
-18.77
 30
34.01000000000003
 70
    64
  0
VERTEX
  5
4F8
330
4DD
100
AcDbEntity
  8
ACE_PTO
100
AcDbVertex
100
AcDbPolygonMeshVertex
 10
38.98999999999999
 20
-18.77
 30
34.01000000000003
 70
    64
  0
VERTEX
  5
4F9
330
4DD
100
AcDbEntity
  8
ACE_PTO
100
AcDbVertex
100
AcDbPolygonMeshVertex
 10
34.98999999999999
 20
-18.77
 30
27.09000000000004
 70
    64
  0
VERTEX
  5
4FA
330
4DD
100
AcDbEntity
  8
ACE_PTO
100
AcDbVertex
100
AcDbPolygonMeshVertex
 10
38.98999999999999
 20
-18.77
 30
20.16000000000004
 70
    64
  0
VERTEX
  5
4FB
330
4DD
100
AcDbEntity
  8
ACE_PTO
100
AcDbVertex
100
AcDbPolygonMeshVertex
 10
46.98999999999999
 20
-18.77
 30
20.16000000000004
 70
    64
  0
SEQEND
  5
733
330
4DD
100
AcDbEntity
  8
ACE_PTO
  0
POLYLINE
  5
4FD
330
1F
100
AcDbEntity
  8
ACE_PTO
100
AcDbPolygonMesh
 66
     1
 10
0.0
 20
0.0
 30
0.0
 70
    16
 71
     2
 72
     4
  0
VERTEX
  5
4FE
330
4FD
100
AcDbEntity
  8
ACE_PTO
100
AcDbVertex
100
AcDbPolygonMeshVertex
 10
6.36999999999999
 20
-19.89
 30
4.000000000000035
 70
    64
  0
VERTEX
  5
4FF
330
4FD
100
AcDbEntity
  8
ACE_PTO
100
AcDbVertex
100
AcDbPolygonMeshVertex
 10
7.440000000000012
 20
-23.89
 30
4.000000000000035
 70
    64
  0
VERTEX
  5
500
330
4FD
100
AcDbEntity
  8
ACE_PTO
100
AcDbVertex
100
AcDbPolygonMeshVertex
 10
10.36999999999999
 20
-26.82
 30
4.000000000000035
 70
    64
  0
VERTEX
  5
501
330
4FD
100
AcDbEntity
  8
ACE_PTO
100
AcDbVertex
100
AcDbPolygonMeshVertex
 10
14.36999999999999
 20
-27.89
 30
4.000000000000035
 70
    64
  0
VERTEX
  5
502
330
4FD
100
AcDbEntity
  8
ACE_PTO
100
AcDbVertex
100
AcDbPolygonMeshVertex
 10
6.36999999999999
 20
-19.89
 30
0.0000000000000064
 70
    64
  0
VERTEX
  5
503
330
4FD
100
AcDbEntity
  8
ACE_PTO
100
AcDbVertex
100
AcDbPolygonMeshVertex
 10
7.440000000000012
 20
-23.89
 30
0.0000000000000064
 70
    64
  0
VERTEX
  5
504
330
4FD
100
AcDbEntity
  8
ACE_PTO
100
AcDbVertex
100
AcDbPolygonMeshVertex
 10
10.36999999999999
 20
-26.82
 30
0.0000000000000064
 70
    64
  0
VERTEX
  5
505
330
4FD
100
AcDbEntity
  8
ACE_PTO
100
AcDbVertex
100
AcDbPolygonMeshVertex
 10
14.36999999999999
 20
-27.89
 30
0.0000000000000064
 70
    64
  0
SEQEND
  5
734
330
4FD
100
AcDbEntity
  8
ACE_PTO
  0
POLYLINE
  5
507
330
1F
100
AcDbEntity
  8
ACE_PTO
100
AcDbPolygonMesh
 66
     1
 10
0.0
 20
0.0
 30
0.0
 70
    16
 71
     2
 72
     4
  0
VERTEX
  5
508
330
507
100
AcDbEntity
  8
ACE_PTO
100
AcDbVertex
100
AcDbPolygonMeshVertex
 10
6.36999999999999
 20
-19.89
 30
0.0000000000000064
 70
    64
  0
VERTEX
  5
509
330
507
100
AcDbEntity
  8
ACE_PTO
100
AcDbVertex
100
AcDbPolygonMeshVertex
 10
7.440000000000012
 20
-23.89
 30
0.0000000000000064
 70
    64
  0
VERTEX
  5
50A
330
507
100
AcDbEntity
  8
ACE_PTO
100
AcDbVertex
100
AcDbPolygonMeshVertex
 10
10.36999999999999
 20
-26.82
 30
0.0000000000000064
 70
    64
  0
VERTEX
  5
50B
330
507
100
AcDbEntity
  8
ACE_PTO
100
AcDbVertex
100
AcDbPolygonMeshVertex
 10
14.36999999999999
 20
-27.89
 30
0.0000000000000064
 70
    64
  0
VERTEX
  5
50C
330
507
100
AcDbEntity
  8
ACE_PTO
100
AcDbVertex
100
AcDbPolygonMeshVertex
 10
6.36999999999999
 20
-13.89
 30
0.0000000000000064
 70
    64
  0
VERTEX
  5
50D
330
507
100
AcDbEntity
  8
ACE_PTO
100
AcDbVertex
100
AcDbPolygonMeshVertex
 10
9.040000000000006
 20
-13.89
 30
0.0000000000000064
 70
    64
  0
VERTEX
  5
50E
330
507
100
AcDbEntity
  8
ACE_PTO
100
AcDbVertex
100
AcDbPolygonMeshVertex
 10
11.7
 20
-13.89
 30
0.0000000000000064
 70
    64
  0
VERTEX
  5
50F
330
507
100
AcDbEntity
  8
ACE_PTO
100
AcDbVertex
100
AcDbPolygonMeshVertex
 10
14.36999999999999
 20
-13.89
 30
0.0000000000000064
 70
    64
  0
SEQEND
  5
735
330
507
100
AcDbEntity
  8
ACE_PTO
  0
POLYLINE
  5
511
330
1F
100
AcDbEntity
  8
ACE_PTO
100
AcDbPolygonMesh
 66
     1
 10
0.0
 20
0.0
 30
0.0
 70
    16
 71
     2
 72
     4
  0
VERTEX
  5
512
330
511
100
AcDbEntity
  8
ACE_PTO
100
AcDbVertex
100
AcDbPolygonMeshVertex
 10
6.36999999999999
 20
-19.89
 30
4.000000000000035
 70
    64
  0
VERTEX
  5
513
330
511
100
AcDbEntity
  8
ACE_PTO
100
AcDbVertex
100
AcDbPolygonMeshVertex
 10
7.440000000000012
 20
-23.89
 30
4.000000000000035
 70
    64
  0
VERTEX
  5
514
330
511
100
AcDbEntity
  8
ACE_PTO
100
AcDbVertex
100
AcDbPolygonMeshVertex
 10
10.36999999999999
 20
-26.82
 30
4.000000000000035
 70
    64
  0
VERTEX
  5
515
330
511
100
AcDbEntity
  8
ACE_PTO
100
AcDbVertex
100
AcDbPolygonMeshVertex
 10
14.36999999999999
 20
-27.89
 30
4.000000000000035
 70
    64
  0
VERTEX
  5
516
330
511
100
AcDbEntity
  8
ACE_PTO
100
AcDbVertex
100
AcDbPolygonMeshVertex
 10
6.36999999999999
 20
-13.89
 30
4.000000000000035
 70
    64
  0
VERTEX
  5
517
330
511
100
AcDbEntity
  8
ACE_PTO
100
AcDbVertex
100
AcDbPolygonMeshVertex
 10
9.040000000000006
 20
-13.89
 30
4.000000000000035
 70
    64
  0
VERTEX
  5
518
330
511
100
AcDbEntity
  8
ACE_PTO
100
AcDbVertex
100
AcDbPolygonMeshVertex
 10
11.7
 20
-13.89
 30
4.000000000000035
 70
    64
  0
VERTEX
  5
519
330
511
100
AcDbEntity
  8
ACE_PTO
100
AcDbVertex
100
AcDbPolygonMeshVertex
 10
14.36999999999999
 20
-13.89
 30
4.000000000000035
 70
    64
  0
SEQEND
  5
736
330
511
100
AcDbEntity
  8
ACE_PTO
  0
POLYLINE
  5
51B
330
1F
100
AcDbEntity
  8
ACE_PTO
100
AcDbPolygonMesh
 66
     1
 10
0.0
 20
0.0
 30
0.0
 70
    16
 71
     2
 72
     4
  0
VERTEX
  5
51C
330
51B
100
AcDbEntity
  8
ACE_PTO
100
AcDbVertex
100
AcDbPolygonMeshVertex
 10
0.0
 20
-16.0
 30
27.08000000000003
 70
    64
  0
VERTEX
  5
51D
330
51B
100
AcDbEntity
  8
ACE_PTO
100
AcDbVertex
100
AcDbPolygonMeshVertex
 10
0.0
 20
-12.0
 30
34.01000000000003
 70
    64
  0
VERTEX
  5
51E
330
51B
100
AcDbEntity
  8
ACE_PTO
100
AcDbVertex
100
AcDbPolygonMeshVertex
 10
0.0
 20
-4.0
 30
34.01000000000003
 70
    64
  0
VERTEX
  5
51F
330
51B
100
AcDbEntity
  8
ACE_PTO
100
AcDbVertex
100
AcDbPolygonMeshVertex
 10
0.0
 20
0.0
 30
27.08000000000003
 70
    64
  0
VERTEX
  5
520
330
51B
100
AcDbEntity
  8
ACE_PTO
100
AcDbVertex
100
AcDbPolygonMeshVertex
 10
0.0
 20
-16.0
 30
27.08000000000003
 70
    64
  0
VERTEX
  5
521
330
51B
100
AcDbEntity
  8
ACE_PTO
100
AcDbVertex
100
AcDbPolygonMeshVertex
 10
0.0
 20
-12.0
 30
20.15000000000003
 70
    64
  0
VERTEX
  5
522
330
51B
100
AcDbEntity
  8
ACE_PTO
100
AcDbVertex
100
AcDbPolygonMeshVertex
 10
0.0
 20
-4.0
 30
20.15000000000003
 70
    64
  0
VERTEX
  5
523
330
51B
100
AcDbEntity
  8
ACE_PTO
100
AcDbVertex
100
AcDbPolygonMeshVertex
 10
0.0
 20
0.0
 30
27.08000000000003
 70
    64
  0
SEQEND
  5
737
330
51B
100
AcDbEntity
  8
ACE_PTO
  0
POLYLINE
  5
525
330
1F
100
AcDbEntity
  8
ACE_PTO
100
AcDbPolygonMesh
 66
     1
 10
0.0
 20
0.0
 30
0.0
 70
    16
 71
     2
 72
     4
  0
VERTEX
  5
526
330
525
100
AcDbEntity
  8
ACE_PTO
100
AcDbVertex
100
AcDbPolygonMeshVertex
 10
0.0
 20
-16.0
 30
124.61
 70
    64
  0
VERTEX
  5
527
330
525
100
AcDbEntity
  8
ACE_PTO
100
AcDbVertex
100
AcDbPolygonMeshVertex
 10
0.0
 20
-12.0
 30
131.54
 70
    64
  0
VERTEX
  5
528
330
525
100
AcDbEntity
  8
ACE_PTO
100
AcDbVertex
100
AcDbPolygonMeshVertex
 10
0.0
 20
-4.0
 30
131.54
 70
    64
  0
VERTEX
  5
529
330
525
100
AcDbEntity
  8
ACE_PTO
100
AcDbVertex
100
AcDbPolygonMeshVertex
 10
0.0
 20
0.0
 30
124.61
 70
    64
  0
VERTEX
  5
52A
330
525
100
AcDbEntity
  8
ACE_PTO
100
AcDbVertex
100
AcDbPolygonMeshVertex
 10
0.0
 20
-16.0
 30
124.61
 70
    64
  0
VERTEX
  5
52B
330
525
100
AcDbEntity
  8
ACE_PTO
100
AcDbVertex
100
AcDbPolygonMeshVertex
 10
0.0
 20
-12.0
 30
117.68
 70
    64
  0
VERTEX
  5
52C
330
525
100
AcDbEntity
  8
ACE_PTO
100
AcDbVertex
100
AcDbPolygonMeshVertex
 10
0.0
 20
-4.0
 30
117.68
 70
    64
  0
VERTEX
  5
52D
330
525
100
AcDbEntity
  8
ACE_PTO
100
AcDbVertex
100
AcDbPolygonMeshVertex
 10
0.0
 20
0.0
 30
124.61
 70
    64
  0
SEQEND
  5
738
330
525
100
AcDbEntity
  8
ACE_PTO
  0
POLYLINE
  5
52F
330
1F
100
AcDbEntity
  8
ACE_PTO
100
AcDbPolygonMesh
 66
     1
 10
0.0
 20
0.0
 30
0.0
 70
    48
 71
     5
 72
     6
  0
VERTEX
  5
530
330
52F
100
AcDbEntity
  8
ACE_PTO
100
AcDbVertex
100
AcDbPolygonMeshVertex
 10
31.00000000000001
 20
0.0
 30
124.61
 70
    64
  0
VERTEX
  5
531
330
52F
100
AcDbEntity
  8
ACE_PTO
100
AcDbVertex
100
AcDbPolygonMeshVertex
 10
31.00000000000001
 20
-4.0
 30
131.54
 70
    64
  0
VERTEX
  5
532
330
52F
100
AcDbEntity
  8
ACE_PTO
100
AcDbVertex
100
AcDbPolygonMeshVertex
 10
31.00000000000001
 20
-12.0
 30
131.54
 70
    64
  0
VERTEX
  5
533
330
52F
100
AcDbEntity
  8
ACE_PTO
100
AcDbVertex
100
AcDbPolygonMeshVertex
 10
31.00000000000001
 20
-16.0
 30
124.61
 70
    64
  0
VERTEX
  5
534
330
52F
100
AcDbEntity
  8
ACE_PTO
100
AcDbVertex
100
AcDbPolygonMeshVertex
 10
31.00000000000001
 20
-12.0
 30
117.69
 70
    64
  0
VERTEX
  5
535
330
52F
100
AcDbEntity
  8
ACE_PTO
100
AcDbVertex
100
AcDbPolygonMeshVertex
 10
31.00000000000001
 20
-4.0
 30
117.69
 70
    64
  0
VERTEX
  5
536
330
52F
100
AcDbEntity
  8
ACE_PTO
100
AcDbVertex
100
AcDbPolygonMeshVertex
 10
38.45999999999999
 20
-1.24
 30
124.61
 70
    64
  0
VERTEX
  5
537
330
52F
100
AcDbEntity
  8
ACE_PTO
100
AcDbVertex
100
AcDbPolygonMeshVertex
 10
36.92999999999999
 20
-4.94
 30
131.54
 70
    64
  0
VERTEX
  5
538
330
52F
100
AcDbEntity
  8
ACE_PTO
100
AcDbVertex
100
AcDbPolygonMeshVertex
 10
33.86999999999999
 20
-12.33
 30
131.54
 70
    64
  0
VERTEX
  5
539
330
52F
100
AcDbEntity
  8
ACE_PTO
100
AcDbVertex
100
AcDbPolygonMeshVertex
 10
32.33999999999999
 20
-16.03
 30
124.61
 70
    64
  0
VERTEX
  5
53A
330
52F
100
AcDbEntity
  8
ACE_PTO
100
AcDbVertex
100
AcDbPolygonMeshVertex
 10
33.86999999999999
 20
-12.33
 30
117.69
 70
    64
  0
VERTEX
  5
53B
330
52F
100
AcDbEntity
  8
ACE_PTO
100
AcDbVertex
100
AcDbPolygonMeshVertex
 10
36.92999999999999
 20
-4.94
 30
117.69
 70
    64
  0
VERTEX
  5
53C
330
52F
100
AcDbEntity
  8
ACE_PTO
100
AcDbVertex
100
AcDbPolygonMeshVertex
 10
44.88000000000001
 20
-5.25
 30
124.61
 70
    64
  0
VERTEX
  5
53D
330
52F
100
AcDbEntity
  8
ACE_PTO
100
AcDbVertex
100
AcDbPolygonMeshVertex
 10
42.05
 20
-8.08
 30
131.54
 70
    64
  0
VERTEX
  5
53E
330
52F
100
AcDbEntity
  8
ACE_PTO
100
AcDbVertex
100
AcDbPolygonMeshVertex
 10
36.39
 20
-13.729999
 30
131.54
 70
    64
  0
VERTEX
  5
53F
330
52F
100
AcDbEntity
  8
ACE_PTO
100
AcDbVertex
100
AcDbPolygonMeshVertex
 10
33.57000000000001
 20
-16.56
 30
124.61
 70
    64
  0
VERTEX
  5
540
330
52F
100
AcDbEntity
  8
ACE_PTO
100
AcDbVertex
100
AcDbPolygonMeshVertex
 10
36.39
 20
-13.729999
 30
117.69
 70
    64
  0
VERTEX
  5
541
330
52F
100
AcDbEntity
  8
ACE_PTO
100
AcDbVertex
100
AcDbPolygonMeshVertex
 10
42.05
 20
-8.08
 30
117.69
 70
    64
  0
VERTEX
  5
542
330
52F
100
AcDbEntity
  8
ACE_PTO
100
AcDbVertex
100
AcDbPolygonMeshVertex
 10
49.27999999999999
 20
-11.4
 30
124.61
 70
    64
  0
VERTEX
  5
543
330
52F
100
AcDbEntity
  8
ACE_PTO
100
AcDbVertex
100
AcDbPolygonMeshVertex
 10
45.58
 20
-12.929999
 30
131.54
 70
    64
  0
VERTEX
  5
544
330
52F
100
AcDbEntity
  8
ACE_PTO
100
AcDbVertex
100
AcDbPolygonMeshVertex
 10
38.19000000000001
 20
-15.99
 30
131.54
 70
    64
  0
VERTEX
  5
545
330
52F
100
AcDbEntity
  8
ACE_PTO
100
AcDbVertex
100
AcDbPolygonMeshVertex
 10
34.50000000000001
 20
-17.53
 30
124.61
 70
    64
  0
VERTEX
  5
546
330
52F
100
AcDbEntity
  8
ACE_PTO
100
AcDbVertex
100
AcDbPolygonMeshVertex
 10
38.19000000000001
 20
-15.99
 30
117.69
 70
    64
  0
VERTEX
  5
547
330
52F
100
AcDbEntity
  8
ACE_PTO
100
AcDbVertex
100
AcDbPolygonMeshVertex
 10
45.58
 20
-12.929999
 30
117.69
 70
    64
  0
VERTEX
  5
548
330
52F
100
AcDbEntity
  8
ACE_PTO
100
AcDbVertex
100
AcDbPolygonMeshVertex
 10
50.98999999999999
 20
-18.77
 30
124.61
 70
    64
  0
VERTEX
  5
549
330
52F
100
AcDbEntity
  8
ACE_PTO
100
AcDbVertex
100
AcDbPolygonMeshVertex
 10
46.98999999999999
 20
-18.77
 30
131.54
 70
    64
  0
VERTEX
  5
54A
330
52F
100
AcDbEntity
  8
ACE_PTO
100
AcDbVertex
100
AcDbPolygonMeshVertex
 10
38.98999999999999
 20
-18.77
 30
131.54
 70
    64
  0
VERTEX
  5
54B
330
52F
100
AcDbEntity
  8
ACE_PTO
100
AcDbVertex
100
AcDbPolygonMeshVertex
 10
34.98999999999999
 20
-18.77
 30
124.61
 70
    64
  0
VERTEX
  5
54C
330
52F
100
AcDbEntity
  8
ACE_PTO
100
AcDbVertex
100
AcDbPolygonMeshVertex
 10
38.98999999999999
 20
-18.77
 30
117.69
 70
    64
  0
VERTEX
  5
54D
330
52F
100
AcDbEntity
  8
ACE_PTO
100
AcDbVertex
100
AcDbPolygonMeshVertex
 10
46.98999999999999
 20
-18.77
 30
117.69
 70
    64
  0
SEQEND
  5
739
330
52F
100
AcDbEntity
  8
ACE_PTO
  0
POLYLINE
  5
54F
330
1F
100
AcDbEntity
  8
ACE_PTO
100
AcDbPolygonMesh
 66
     1
 10
0.0
 20
0.0
 30
0.0
 70
    48
 71
     2
 72
     6
  0
VERTEX
  5
550
330
54F
100
AcDbEntity
  8
ACE_PTO
100
AcDbVertex
100
AcDbPolygonMeshVertex
 10
0.0
 20
0.0
 30
124.61
 70
    64
  0
VERTEX
  5
551
330
54F
100
AcDbEntity
  8
ACE_PTO
100
AcDbVertex
100
AcDbPolygonMeshVertex
 10
0.0
 20
-4.0
 30
131.54
 70
    64
  0
VERTEX
  5
552
330
54F
100
AcDbEntity
  8
ACE_PTO
100
AcDbVertex
100
AcDbPolygonMeshVertex
 10
0.0
 20
-12.0
 30
131.54
 70
    64
  0
VERTEX
  5
553
330
54F
100
AcDbEntity
  8
ACE_PTO
100
AcDbVertex
100
AcDbPolygonMeshVertex
 10
0.0
 20
-16.0
 30
124.61
 70
    64
  0
VERTEX
  5
554
330
54F
100
AcDbEntity
  8
ACE_PTO
100
AcDbVertex
100
AcDbPolygonMeshVertex
 10
0.0
 20
-12.0
 30
117.69
 70
    64
  0
VERTEX
  5
555
330
54F
100
AcDbEntity
  8
ACE_PTO
100
AcDbVertex
100
AcDbPolygonMeshVertex
 10
0.0
 20
-4.0
 30
117.69
 70
    64
  0
VERTEX
  5
556
330
54F
100
AcDbEntity
  8
ACE_PTO
100
AcDbVertex
100
AcDbPolygonMeshVertex
 10
31.00000000000001
 20
0.0
 30
124.61
 70
    64
  0
VERTEX
  5
557
330
54F
100
AcDbEntity
  8
ACE_PTO
100
AcDbVertex
100
AcDbPolygonMeshVertex
 10
31.00000000000001
 20
-4.0
 30
131.54
 70
    64
  0
VERTEX
  5
558
330
54F
100
AcDbEntity
  8
ACE_PTO
100
AcDbVertex
100
AcDbPolygonMeshVertex
 10
31.00000000000001
 20
-12.0
 30
131.54
 70
    64
  0
VERTEX
  5
559
330
54F
100
AcDbEntity
  8
ACE_PTO
100
AcDbVertex
100
AcDbPolygonMeshVertex
 10
31.00000000000001
 20
-16.0
 30
124.61
 70
    64
  0
VERTEX
  5
55A
330
54F
100
AcDbEntity
  8
ACE_PTO
100
AcDbVertex
100
AcDbPolygonMeshVertex
 10
31.00000000000001
 20
-12.0
 30
117.69
 70
    64
  0
VERTEX
  5
55B
330
54F
100
AcDbEntity
  8
ACE_PTO
100
AcDbVertex
100
AcDbPolygonMeshVertex
 10
31.00000000000001
 20
-4.0
 30
117.69
 70
    64
  0
SEQEND
  5
73A
330
54F
100
AcDbEntity
  8
ACE_PTO
  0
POLYLINE
  5
55D
330
1F
100
AcDbEntity
  8
ACE_PTO
100
AcDbPolygonMesh
 66
     1
 10
0.0
 20
0.0
 30
0.0
 70
    16
 71
     2
 72
     4
  0
VERTEX
  5
55E
330
55D
100
AcDbEntity
  8
ACE_PTO
100
AcDbVertex
100
AcDbPolygonMeshVertex
 10
34.98999999999999
 20
-49.77
 30
124.61
 70
    64
  0
VERTEX
  5
55F
330
55D
100
AcDbEntity
  8
ACE_PTO
100
AcDbVertex
100
AcDbPolygonMeshVertex
 10
38.98999999999999
 20
-49.77
 30
131.54
 70
    64
  0
VERTEX
  5
560
330
55D
100
AcDbEntity
  8
ACE_PTO
100
AcDbVertex
100
AcDbPolygonMeshVertex
 10
46.98999999999999
 20
-49.77
 30
131.54
 70
    64
  0
VERTEX
  5
561
330
55D
100
AcDbEntity
  8
ACE_PTO
100
AcDbVertex
100
AcDbPolygonMeshVertex
 10
50.98999999999999
 20
-49.77
 30
124.61
 70
    64
  0
VERTEX
  5
562
330
55D
100
AcDbEntity
  8
ACE_PTO
100
AcDbVertex
100
AcDbPolygonMeshVertex
 10
34.98999999999999
 20
-49.77
 30
124.61
 70
    64
  0
VERTEX
  5
563
330
55D
100
AcDbEntity
  8
ACE_PTO
100
AcDbVertex
100
AcDbPolygonMeshVertex
 10
38.98999999999999
 20
-49.77
 30
117.68
 70
    64
  0
VERTEX
  5
564
330
55D
100
AcDbEntity
  8
ACE_PTO
100
AcDbVertex
100
AcDbPolygonMeshVertex
 10
46.98999999999999
 20
-49.77
 30
117.68
 70
    64
  0
VERTEX
  5
565
330
55D
100
AcDbEntity
  8
ACE_PTO
100
AcDbVertex
100
AcDbPolygonMeshVertex
 10
50.98999999999999
 20
-49.77
 30
124.61
 70
    64
  0
SEQEND
  5
73B
330
55D
100
AcDbEntity
  8
ACE_PTO
  0
POLYLINE
  5
567
330
1F
100
AcDbEntity
  8
ACE_PTO
100
AcDbPolygonMesh
 66
     1
 10
0.0
 20
0.0
 30
0.0
 70
    48
 71
     2
 72
     6
  0
VERTEX
  5
568
330
567
100
AcDbEntity
  8
ACE_PTO
100
AcDbVertex
100
AcDbPolygonMeshVertex
 10
50.98999999999999
 20
-18.77
 30
124.61
 70
    64
  0
VERTEX
  5
569
330
567
100
AcDbEntity
  8
ACE_PTO
100
AcDbVertex
100
AcDbPolygonMeshVertex
 10
46.98999999999999
 20
-18.77
 30
131.54
 70
    64
  0
VERTEX
  5
56A
330
567
100
AcDbEntity
  8
ACE_PTO
100
AcDbVertex
100
AcDbPolygonMeshVertex
 10
38.98999999999999
 20
-18.77
 30
131.54
 70
    64
  0
VERTEX
  5
56B
330
567
100
AcDbEntity
  8
ACE_PTO
100
AcDbVertex
100
AcDbPolygonMeshVertex
 10
34.98999999999999
 20
-18.77
 30
124.61
 70
    64
  0
VERTEX
  5
56C
330
567
100
AcDbEntity
  8
ACE_PTO
100
AcDbVertex
100
AcDbPolygonMeshVertex
 10
38.98999999999999
 20
-18.77
 30
117.69
 70
    64
  0
VERTEX
  5
56D
330
567
100
AcDbEntity
  8
ACE_PTO
100
AcDbVertex
100
AcDbPolygonMeshVertex
 10
46.98999999999999
 20
-18.77
 30
117.69
 70
    64
  0
VERTEX
  5
56E
330
567
100
AcDbEntity
  8
ACE_PTO
100
AcDbVertex
100
AcDbPolygonMeshVertex
 10
50.98999999999999
 20
-49.77
 30
124.61
 70
    64
  0
VERTEX
  5
56F
330
567
100
AcDbEntity
  8
ACE_PTO
100
AcDbVertex
100
AcDbPolygonMeshVertex
 10
46.98999999999999
 20
-49.77
 30
131.54
 70
    64
  0
VERTEX
  5
570
330
567
100
AcDbEntity
  8
ACE_PTO
100
AcDbVertex
100
AcDbPolygonMeshVertex
 10
38.98999999999999
 20
-49.77
 30
131.54
 70
    64
  0
VERTEX
  5
571
330
567
100
AcDbEntity
  8
ACE_PTO
100
AcDbVertex
100
AcDbPolygonMeshVertex
 10
34.98999999999999
 20
-49.77
 30
124.61
 70
    64
  0
VERTEX
  5
572
330
567
100
AcDbEntity
  8
ACE_PTO
100
AcDbVertex
100
AcDbPolygonMeshVertex
 10
38.98999999999999
 20
-49.77
 30
117.69
 70
    64
  0
VERTEX
  5
573
330
567
100
AcDbEntity
  8
ACE_PTO
100
AcDbVertex
100
AcDbPolygonMeshVertex
 10
46.98999999999999
 20
-49.77
 30
117.69
 70
    64
  0
SEQEND
  5
73C
330
567
100
AcDbEntity
  8
ACE_PTO
  0
POLYLINE
  5
575
330
1F
100
AcDbEntity
  8
ACE_PTO
100
AcDbPolygonMesh
 66
     1
 10
0.0
 20
0.0
 30
0.0
 70
    48
 71
     2
 72
     6
  0
VERTEX
  5
576
330
575
100
AcDbEntity
  8
ACE_PTO
100
AcDbVertex
100
AcDbPolygonMeshVertex
 10
0.0
 20
0.0
 30
77.63000000000002
 70
    64
  0
VERTEX
  5
577
330
575
100
AcDbEntity
  8
ACE_PTO
100
AcDbVertex
100
AcDbPolygonMeshVertex
 10
0.0
 20
-4.0
 30
84.56000000000003
 70
    64
  0
VERTEX
  5
578
330
575
100
AcDbEntity
  8
ACE_PTO
100
AcDbVertex
100
AcDbPolygonMeshVertex
 10
0.0
 20
-12.0
 30
84.56000000000003
 70
    64
  0
VERTEX
  5
579
330
575
100
AcDbEntity
  8
ACE_PTO
100
AcDbVertex
100
AcDbPolygonMeshVertex
 10
0.0
 20
-16.0
 30
77.63000000000002
 70
    64
  0
VERTEX
  5
57A
330
575
100
AcDbEntity
  8
ACE_PTO
100
AcDbVertex
100
AcDbPolygonMeshVertex
 10
0.0
 20
-12.0
 30
70.70000000000003
 70
    64
  0
VERTEX
  5
57B
330
575
100
AcDbEntity
  8
ACE_PTO
100
AcDbVertex
100
AcDbPolygonMeshVertex
 10
0.0
 20
-4.0
 30
70.70000000000003
 70
    64
  0
VERTEX
  5
57C
330
575
100
AcDbEntity
  8
ACE_PTO
100
AcDbVertex
100
AcDbPolygonMeshVertex
 10
31.00000000000001
 20
0.0
 30
77.63000000000002
 70
    64
  0
VERTEX
  5
57D
330
575
100
AcDbEntity
  8
ACE_PTO
100
AcDbVertex
100
AcDbPolygonMeshVertex
 10
31.00000000000001
 20
-4.0
 30
84.56000000000003
 70
    64
  0
VERTEX
  5
57E
330
575
100
AcDbEntity
  8
ACE_PTO
100
AcDbVertex
100
AcDbPolygonMeshVertex
 10
31.00000000000001
 20
-12.0
 30
84.56000000000003
 70
    64
  0
VERTEX
  5
57F
330
575
100
AcDbEntity
  8
ACE_PTO
100
AcDbVertex
100
AcDbPolygonMeshVertex
 10
31.00000000000001
 20
-16.0
 30
77.63000000000002
 70
    64
  0
VERTEX
  5
580
330
575
100
AcDbEntity
  8
ACE_PTO
100
AcDbVertex
100
AcDbPolygonMeshVertex
 10
31.00000000000001
 20
-12.0
 30
70.70000000000003
 70
    64
  0
VERTEX
  5
581
330
575
100
AcDbEntity
  8
ACE_PTO
100
AcDbVertex
100
AcDbPolygonMeshVertex
 10
31.00000000000001
 20
-4.0
 30
70.70000000000003
 70
    64
  0
SEQEND
  5
73D
330
575
100
AcDbEntity
  8
ACE_PTO
  0
POLYLINE
  5
583
330
1F
100
AcDbEntity
  8
ACE_PTO
100
AcDbPolygonMesh
 66
     1
 10
0.0
 20
0.0
 30
0.0
 70
    48
 71
     2
 72
     6
  0
VERTEX
  5
584
330
583
100
AcDbEntity
  8
ACE_PTO
100
AcDbVertex
100
AcDbPolygonMeshVertex
 10
50.98999999999999
 20
-18.77
 30
77.63000000000002
 70
    64
  0
VERTEX
  5
585
330
583
100
AcDbEntity
  8
ACE_PTO
100
AcDbVertex
100
AcDbPolygonMeshVertex
 10
46.98999999999999
 20
-18.77
 30
84.56000000000003
 70
    64
  0
VERTEX
  5
586
330
583
100
AcDbEntity
  8
ACE_PTO
100
AcDbVertex
100
AcDbPolygonMeshVertex
 10
38.98999999999999
 20
-18.77
 30
84.56000000000003
 70
    64
  0
VERTEX
  5
587
330
583
100
AcDbEntity
  8
ACE_PTO
100
AcDbVertex
100
AcDbPolygonMeshVertex
 10
34.98999999999999
 20
-18.77
 30
77.63000000000002
 70
    64
  0
VERTEX
  5
588
330
583
100
AcDbEntity
  8
ACE_PTO
100
AcDbVertex
100
AcDbPolygonMeshVertex
 10
38.98999999999999
 20
-18.77
 30
70.70000000000003
 70
    64
  0
VERTEX
  5
589
330
583
100
AcDbEntity
  8
ACE_PTO
100
AcDbVertex
100
AcDbPolygonMeshVertex
 10
46.98999999999999
 20
-18.77
 30
70.70000000000003
 70
    64
  0
VERTEX
  5
58A
330
583
100
AcDbEntity
  8
ACE_PTO
100
AcDbVertex
100
AcDbPolygonMeshVertex
 10
50.98999999999999
 20
-49.77
 30
77.63000000000002
 70
    64
  0
VERTEX
  5
58B
330
583
100
AcDbEntity
  8
ACE_PTO
100
AcDbVertex
100
AcDbPolygonMeshVertex
 10
46.98999999999999
 20
-49.77
 30
84.56000000000003
 70
    64
  0
VERTEX
  5
58C
330
583
100
AcDbEntity
  8
ACE_PTO
100
AcDbVertex
100
AcDbPolygonMeshVertex
 10
38.98999999999999
 20
-49.77
 30
84.56000000000003
 70
    64
  0
VERTEX
  5
58D
330
583
100
AcDbEntity
  8
ACE_PTO
100
AcDbVertex
100
AcDbPolygonMeshVertex
 10
34.98999999999999
 20
-49.77
 30
77.63000000000002
 70
    64
  0
VERTEX
  5
58E
330
583
100
AcDbEntity
  8
ACE_PTO
100
AcDbVertex
100
AcDbPolygonMeshVertex
 10
38.98999999999999
 20
-49.77
 30
70.70000000000003
 70
    64
  0
VERTEX
  5
58F
330
583
100
AcDbEntity
  8
ACE_PTO
100
AcDbVertex
100
AcDbPolygonMeshVertex
 10
46.98999999999999
 20
-49.77
 30
70.70000000000003
 70
    64
  0
SEQEND
  5
73E
330
583
100
AcDbEntity
  8
ACE_PTO
  0
POLYLINE
  5
591
330
1F
100
AcDbEntity
  8
ACE_PTO
100
AcDbPolygonMesh
 66
     1
 10
0.0
 20
0.0
 30
0.0
 70
    48
 71
     5
 72
     6
  0
VERTEX
  5
592
330
591
100
AcDbEntity
  8
ACE_PTO
100
AcDbVertex
100
AcDbPolygonMeshVertex
 10
31.00000000000001
 20
0.0
 30
77.63000000000002
 70
    64
  0
VERTEX
  5
593
330
591
100
AcDbEntity
  8
ACE_PTO
100
AcDbVertex
100
AcDbPolygonMeshVertex
 10
31.00000000000001
 20
-4.0
 30
84.56000000000003
 70
    64
  0
VERTEX
  5
594
330
591
100
AcDbEntity
  8
ACE_PTO
100
AcDbVertex
100
AcDbPolygonMeshVertex
 10
31.00000000000001
 20
-12.0
 30
84.56000000000003
 70
    64
  0
VERTEX
  5
595
330
591
100
AcDbEntity
  8
ACE_PTO
100
AcDbVertex
100
AcDbPolygonMeshVertex
 10
31.00000000000001
 20
-16.0
 30
77.63000000000002
 70
    64
  0
VERTEX
  5
596
330
591
100
AcDbEntity
  8
ACE_PTO
100
AcDbVertex
100
AcDbPolygonMeshVertex
 10
31.00000000000001
 20
-12.0
 30
70.70000000000003
 70
    64
  0
VERTEX
  5
597
330
591
100
AcDbEntity
  8
ACE_PTO
100
AcDbVertex
100
AcDbPolygonMeshVertex
 10
31.00000000000001
 20
-4.0
 30
70.70000000000003
 70
    64
  0
VERTEX
  5
598
330
591
100
AcDbEntity
  8
ACE_PTO
100
AcDbVertex
100
AcDbPolygonMeshVertex
 10
38.45999999999999
 20
-1.24
 30
77.63000000000002
 70
    64
  0
VERTEX
  5
599
330
591
100
AcDbEntity
  8
ACE_PTO
100
AcDbVertex
100
AcDbPolygonMeshVertex
 10
36.92999999999999
 20
-4.94
 30
84.56000000000003
 70
    64
  0
VERTEX
  5
59A
330
591
100
AcDbEntity
  8
ACE_PTO
100
AcDbVertex
100
AcDbPolygonMeshVertex
 10
33.86999999999999
 20
-12.33
 30
84.56000000000003
 70
    64
  0
VERTEX
  5
59B
330
591
100
AcDbEntity
  8
ACE_PTO
100
AcDbVertex
100
AcDbPolygonMeshVertex
 10
32.33999999999999
 20
-16.03
 30
77.63000000000002
 70
    64
  0
VERTEX
  5
59C
330
591
100
AcDbEntity
  8
ACE_PTO
100
AcDbVertex
100
AcDbPolygonMeshVertex
 10
33.86999999999999
 20
-12.33
 30
70.70000000000003
 70
    64
  0
VERTEX
  5
59D
330
591
100
AcDbEntity
  8
ACE_PTO
100
AcDbVertex
100
AcDbPolygonMeshVertex
 10
36.92999999999999
 20
-4.94
 30
70.70000000000003
 70
    64
  0
VERTEX
  5
59E
330
591
100
AcDbEntity
  8
ACE_PTO
100
AcDbVertex
100
AcDbPolygonMeshVertex
 10
44.88000000000001
 20
-5.25
 30
77.63000000000002
 70
    64
  0
VERTEX
  5
59F
330
591
100
AcDbEntity
  8
ACE_PTO
100
AcDbVertex
100
AcDbPolygonMeshVertex
 10
42.05
 20
-8.08
 30
84.56000000000003
 70
    64
  0
VERTEX
  5
5A0
330
591
100
AcDbEntity
  8
ACE_PTO
100
AcDbVertex
100
AcDbPolygonMeshVertex
 10
36.39
 20
-13.729999
 30
84.56000000000003
 70
    64
  0
VERTEX
  5
5A1
330
591
100
AcDbEntity
  8
ACE_PTO
100
AcDbVertex
100
AcDbPolygonMeshVertex
 10
33.57000000000001
 20
-16.56
 30
77.63000000000002
 70
    64
  0
VERTEX
  5
5A2
330
591
100
AcDbEntity
  8
ACE_PTO
100
AcDbVertex
100
AcDbPolygonMeshVertex
 10
36.39
 20
-13.729999
 30
70.70000000000003
 70
    64
  0
VERTEX
  5
5A3
330
591
100
AcDbEntity
  8
ACE_PTO
100
AcDbVertex
100
AcDbPolygonMeshVertex
 10
42.05
 20
-8.08
 30
70.70000000000003
 70
    64
  0
VERTEX
  5
5A4
330
591
100
AcDbEntity
  8
ACE_PTO
100
AcDbVertex
100
AcDbPolygonMeshVertex
 10
49.27999999999999
 20
-11.4
 30
77.63000000000002
 70
    64
  0
VERTEX
  5
5A5
330
591
100
AcDbEntity
  8
ACE_PTO
100
AcDbVertex
100
AcDbPolygonMeshVertex
 10
45.58
 20
-12.929999
 30
84.56000000000003
 70
    64
  0
VERTEX
  5
5A6
330
591
100
AcDbEntity
  8
ACE_PTO
100
AcDbVertex
100
AcDbPolygonMeshVertex
 10
38.19000000000001
 20
-15.99
 30
84.56000000000003
 70
    64
  0
VERTEX
  5
5A7
330
591
100
AcDbEntity
  8
ACE_PTO
100
AcDbVertex
100
AcDbPolygonMeshVertex
 10
34.50000000000001
 20
-17.53
 30
77.63000000000002
 70
    64
  0
VERTEX
  5
5A8
330
591
100
AcDbEntity
  8
ACE_PTO
100
AcDbVertex
100
AcDbPolygonMeshVertex
 10
38.19000000000001
 20
-15.99
 30
70.70000000000003
 70
    64
  0
VERTEX
  5
5A9
330
591
100
AcDbEntity
  8
ACE_PTO
100
AcDbVertex
100
AcDbPolygonMeshVertex
 10
45.58
 20
-12.929999
 30
70.70000000000003
 70
    64
  0
VERTEX
  5
5AA
330
591
100
AcDbEntity
  8
ACE_PTO
100
AcDbVertex
100
AcDbPolygonMeshVertex
 10
50.98999999999999
 20
-18.77
 30
77.63000000000002
 70
    64
  0
VERTEX
  5
5AB
330
591
100
AcDbEntity
  8
ACE_PTO
100
AcDbVertex
100
AcDbPolygonMeshVertex
 10
46.98999999999999
 20
-18.77
 30
84.56000000000003
 70
    64
  0
VERTEX
  5
5AC
330
591
100
AcDbEntity
  8
ACE_PTO
100
AcDbVertex
100
AcDbPolygonMeshVertex
 10
38.98999999999999
 20
-18.77
 30
84.56000000000003
 70
    64
  0
VERTEX
  5
5AD
330
591
100
AcDbEntity
  8
ACE_PTO
100
AcDbVertex
100
AcDbPolygonMeshVertex
 10
34.98999999999999
 20
-18.77
 30
77.63000000000002
 70
    64
  0
VERTEX
  5
5AE
330
591
100
AcDbEntity
  8
ACE_PTO
100
AcDbVertex
100
AcDbPolygonMeshVertex
 10
38.98999999999999
 20
-18.77
 30
70.70000000000003
 70
    64
  0
VERTEX
  5
5AF
330
591
100
AcDbEntity
  8
ACE_PTO
100
AcDbVertex
100
AcDbPolygonMeshVertex
 10
46.98999999999999
 20
-18.77
 30
70.70000000000003
 70
    64
  0
SEQEND
  5
73F
330
591
100
AcDbEntity
  8
ACE_PTO
  0
POLYLINE
  5
5B1
330
1F
100
AcDbEntity
  8
ACE_PTO
100
AcDbPolygonMesh
 66
     1
 10
0.0
 20
0.0
 30
0.0
 70
    16
 71
     2
 72
     4
  0
VERTEX
  5
5B2
330
5B1
100
AcDbEntity
  8
ACE_PTO
100
AcDbVertex
100
AcDbPolygonMeshVertex
 10
34.98999999999999
 20
-49.77
 30
77.63000000000002
 70
    64
  0
VERTEX
  5
5B3
330
5B1
100
AcDbEntity
  8
ACE_PTO
100
AcDbVertex
100
AcDbPolygonMeshVertex
 10
38.98999999999999
 20
-49.77
 30
84.56000000000003
 70
    64
  0
VERTEX
  5
5B4
330
5B1
100
AcDbEntity
  8
ACE_PTO
100
AcDbVertex
100
AcDbPolygonMeshVertex
 10
46.98999999999999
 20
-49.77
 30
84.56000000000003
 70
    64
  0
VERTEX
  5
5B5
330
5B1
100
AcDbEntity
  8
ACE_PTO
100
AcDbVertex
100
AcDbPolygonMeshVertex
 10
50.98999999999999
 20
-49.77
 30
77.63000000000002
 70
    64
  0
VERTEX
  5
5B6
330
5B1
100
AcDbEntity
  8
ACE_PTO
100
AcDbVertex
100
AcDbPolygonMeshVertex
 10
34.98999999999999
 20
-49.77
 30
77.63000000000002
 70
    64
  0
VERTEX
  5
5B7
330
5B1
100
AcDbEntity
  8
ACE_PTO
100
AcDbVertex
100
AcDbPolygonMeshVertex
 10
38.98999999999999
 20
-49.77
 30
70.70000000000003
 70
    64
  0
VERTEX
  5
5B8
330
5B1
100
AcDbEntity
  8
ACE_PTO
100
AcDbVertex
100
AcDbPolygonMeshVertex
 10
46.98999999999999
 20
-49.77
 30
70.70000000000003
 70
    64
  0
VERTEX
  5
5B9
330
5B1
100
AcDbEntity
  8
ACE_PTO
100
AcDbVertex
100
AcDbPolygonMeshVertex
 10
50.98999999999999
 20
-49.77
 30
77.63000000000002
 70
    64
  0
SEQEND
  5
740
330
5B1
100
AcDbEntity
  8
ACE_PTO
  0
POLYLINE
  5
5BB
330
1F
100
AcDbEntity
  8
ACE_PTO
100
AcDbPolygonMesh
 66
     1
 10
0.0
 20
0.0
 30
0.0
 70
    16
 71
     2
 72
     4
  0
VERTEX
  5
5BC
330
5BB
100
AcDbEntity
  8
ACE_PTO
100
AcDbVertex
100
AcDbPolygonMeshVertex
 10
0.0
 20
-16.0
 30
77.63000000000002
 70
    64
  0
VERTEX
  5
5BD
330
5BB
100
AcDbEntity
  8
ACE_PTO
100
AcDbVertex
100
AcDbPolygonMeshVertex
 10
0.0
 20
-12.0
 30
84.56000000000003
 70
    64
  0
VERTEX
  5
5BE
330
5BB
100
AcDbEntity
  8
ACE_PTO
100
AcDbVertex
100
AcDbPolygonMeshVertex
 10
0.0
 20
-4.0
 30
84.56000000000003
 70
    64
  0
VERTEX
  5
5BF
330
5BB
100
AcDbEntity
  8
ACE_PTO
100
AcDbVertex
100
AcDbPolygonMeshVertex
 10
0.0
 20
0.0
 30
77.63000000000002
 70
    64
  0
VERTEX
  5
5C0
330
5BB
100
AcDbEntity
  8
ACE_PTO
100
AcDbVertex
100
AcDbPolygonMeshVertex
 10
0.0
 20
-16.0
 30
77.63000000000002
 70
    64
  0
VERTEX
  5
5C1
330
5BB
100
AcDbEntity
  8
ACE_PTO
100
AcDbVertex
100
AcDbPolygonMeshVertex
 10
0.0
 20
-12.0
 30
70.70000000000003
 70
    64
  0
VERTEX
  5
5C2
330
5BB
100
AcDbEntity
  8
ACE_PTO
100
AcDbVertex
100
AcDbPolygonMeshVertex
 10
0.0
 20
-4.0
 30
70.70000000000003
 70
    64
  0
VERTEX
  5
5C3
330
5BB
100
AcDbEntity
  8
ACE_PTO
100
AcDbVertex
100
AcDbPolygonMeshVertex
 10
0.0
 20
0.0
 30
77.63000000000002
 70
    64
  0
SEQEND
  5
741
330
5BB
100
AcDbEntity
  8
ACE_PTO
  0
ENDSEC
  0
SECTION
  2
OBJECTS
  0
DICTIONARY
  5
C
330
0
100
AcDbDictionary
281
     1
  3
ACAD_COLOR
350
6C
  3
ACAD_GROUP
350
D
  3
ACAD_LAYOUT
350
1A
  3
ACAD_MATERIAL
350
6B
  3
ACAD_MLINESTYLE
350
17
  3
ACAD_PLOTSETTINGS
350
19
  3
ACAD_PLOTSTYLENAME
350
E
  3
ACAD_TABLESTYLE
350
92
  3
AcDbVariableDictionary
350
59
  0
DICTIONARY
  5
6C
102
{ACAD_REACTORS
330
C
102
}
330
C
100
AcDbDictionary
281
     1
  0
DICTIONARY
  5
D
102
{ACAD_REACTORS
330
C
102
}
330
C
100
AcDbDictionary
281
     1
  0
DICTIONARY
  5
1A
102
{ACAD_REACTORS
330
C
102
}
330
C
100
AcDbDictionary
281
     1
  3
Layout1
350
74
  3
Model
350
22
  0
DICTIONARY
  5
6B
102
{ACAD_REACTORS
330
C
102
}
330
C
100
AcDbDictionary
281
     1
  0
DICTIONARY
  5
17
102
{ACAD_REACTORS
330
C
102
}
330
C
100
AcDbDictionary
281
     1
  3
Standard
350
18
  0
DICTIONARY
  5
19
102
{ACAD_REACTORS
330
C
102
}
330
C
100
AcDbDictionary
281
     1
  0
ACDBDICTIONARYWDFLT
  5
E
102
{ACAD_REACTORS
330
C
102
}
330
C
100
AcDbDictionary
281
     1
  3
Normal
350
F
100
AcDbDictionaryWithDefault
340
F
  0
DICTIONARY
  5
92
102
{ACAD_REACTORS
330
C
102
}
330
C
100
AcDbDictionary
281
     1
  3
Standard
350
93
  0
DICTIONARY
  5
59
102
{ACAD_REACTORS
330
C
102
}
330
C
100
AcDbDictionary
281
     1
  3
CTABLESTYLE
350
98
  3
DIMASSOC
350
71F
  3
HALOGAP
350
720
  3
HIDETEXT
350
723
  3
INDEXCTL
350
721
  3
XCLIPFRAME
350
722
  0
LAYOUT
  5
74
102
{ACAD_REACTORS
330
1A
102
}
330
1A
100
AcDbPlotSettings
  1

  2
none_device
  4
Letter_(8.50_x_11.00_Inches)
  6

 40
6.35
 41
6.35
 42
6.35000508
 43
6.35000508
 44
215.9
 45
279.4
 46
0.0
 47
0.0
 48
0.0
 49
0.0
140
0.0
141
0.0
142
1.0
143
1.0
 70
   688
 72
     0
 73
     0
 74
     5
  7

 75
    16
 76
     0
 77
     2
 78
   300
147
1.0
148
0.0
149
0.0
100
AcDbLayout
  1
Layout1
 70
     1
 71
     1
 10
0.0
 20
0.0
 11
12.0
 21
9.0
 12
0.0
 22
0.0
 32
0.0
 14
1.000000000000000E+20
 24
1.000000000000000E+20
 34
1.000000000000000E+20
 15
-1.000000000000000E+20
 25
-1.000000000000000E+20
 35
-1.000000000000000E+20
146
0.0
 13
0.0
 23
0.0
 33
0.0
 16
1.0
 26
0.0
 36
0.0
 17
0.0
 27
1.0
 37
0.0
 76
     0
330
73
  0
LAYOUT
  5
22
102
{ACAD_REACTORS
330
1A
102
}
330
1A
100
AcDbPlotSettings
  1

  2
none_device
  4
Letter_(8.50_x_11.00_Inches)
  6

 40
6.35
 41
6.35
 42
6.35000508
 43
6.35000508
 44
215.9
 45
279.4
 46
0.0
 47
0.0
 48
0.0
 49
0.0
140
0.0
141
0.0
142
1.0
143
57.15323423712007
 70
 11952
 72
     0
 73
     0
 74
     0
  7

 75
     0
 76
     0
 77
     2
 78
   300
147
0.0174968225918966
148
0.0
149
0.0
100
AcDbLayout
  1
Model
 70
     1
 71
     0
 10
0.0
 20
0.0
 11
12.0
 21
9.0
 12
0.0
 22
0.0
 32
0.0
 14
0.0
 24
-49.77
 34
-0.0000000000000344
 15
175.1
 25
4.22
 35
131.54
146
0.0
 13
0.0
 23
0.0
 33
0.0
 16
1.0
 26
0.0
 36
0.0
 17
0.0
 27
1.0
 37
0.0
 76
     0
330
1F
331
97
  0
MLINESTYLE
  5
18
102
{ACAD_REACTORS
330
17
102
}
330
17
100
AcDbMlineStyle
  2
Standard
 70
     0
  3

 62
   256
 51
90.0
 52
90.0
 71
     2
 49
0.5
 62
   256
  6
BYLAYER
 49
-0.5
 62
   256
  6
BYLAYER
  0
ACDBPLACEHOLDER
  5
F
102
{ACAD_REACTORS
330
E
102
}
330
E
  0
TABLESTYLE
  5
93
102
{ACAD_REACTORS
330
92
102
}
330
92
100
AcDbTableStyle
  3
Standard
 70
     0
 71
     0
 40
0.06
 41
0.06
280
     0
281
     0
  7
Standard
140
0.18
170
     2
 62
     0
 63
     7
283
     0
 90
      512
 91
        0
  1

274
    -2
284
     1
 64
     0
275
    -2
285
     1
 65
     0
276
    -2
286
     1
 66
     0
277
    -2
287
     1
 67
     0
278
    -2
288
     1
 68
     0
279
    -2
289
     1
 69
     0
  7
Standard
140
0.25
170
     5
 62
     0
 63
     7
283
     0
 90
      512
 91
        0
  1

274
    -2
284
     1
 64
     0
275
    -2
285
     1
 65
     0
276
    -2
286
     1
 66
     0
277
    -2
287
     1
 67
     0
278
    -2
288
     1
 68
     0
279
    -2
289
     1
 69
     0
  7
Standard
140
0.18
170
     5
 62
     0
 63
     7
283
     0
 90
      512
 91
        0
  1

274
    -2
284
     1
 64
     0
275
    -2
285
     1
 65
     0
276
    -2
286
     1
 66
     0
277
    -2
287
     1
 67
     0
278
    -2
288
     1
 68
     0
279
    -2
289
     1
 69
     0
  0
DICTIONARYVAR
  5
98
102
{ACAD_REACTORS
330
59
102
}
330
59
100
DictionaryVariables
280
     0
  1
Standard
  0
DICTIONARYVAR
  5
71F
102
{ACAD_REACTORS
330
59
102
}
330
59
100
DictionaryVariables
280
     0
  1
2
  0
DICTIONARYVAR
  5
720
102
{ACAD_REACTORS
330
59
102
}
330
59
100
DictionaryVariables
280
     0
  1
0
  0
DICTIONARYVAR
  5
723
102
{ACAD_REACTORS
330
59
102
}
330
59
100
DictionaryVariables
280
     0
  1
1
  0
DICTIONARYVAR
  5
721
102
{ACAD_REACTORS
330
59
102
}
330
59
100
DictionaryVariables
280
     0
  1
0
  0
DICTIONARYVAR
  5
722
102
{ACAD_REACTORS
330
59
102
}
330
59
100
DictionaryVariables
280
     0
  1
0
  0
ENDSEC
  0
EOF
