  0
SECTION
  2
HEADER
  9
$ACADVER
  1
AC1009
  9
$DWGCODEPAGE
  3
ansi_1252
  9
$INSBASE
 10
0.0
 20
0.0
 30
0.0
  9
$EXTMIN
 10
-10.0
 20
-1.0
 30
-10.0
  9
$EXTMAX
 10
10.00000000000002
 20
37.0
 30
10.00000000000001
  9
$LIMMIN
 10
0.0
 20
0.0
  9
$LIMMAX
 10
12.0
 20
9.0
  9
$ORTHOMODE
 70
     1
  9
$REGENMODE
 70
     1
  9
$FILLMODE
 70
     1
  9
$QTEXTMODE
 70
     0
  9
$MIRRTEXT
 70
     0
  9
$DRAGMODE
 70
     2
  9
$LTSCALE
 40
1.0
  9
$OSMODE
 70
    37
  9
$ATTMODE
 70
     1
  9
$TEXTSIZE
 40
0.2
  9
$TRACEWID
 40
0.05
  9
$TEXTSTYLE
  7
STANDARD
  9
$CLAYER
  8
0
  9
$CELTYPE
  6
BYLAYER
  9
$CECOLOR
 62
   256
  9
$DIMSCALE
 40
1.0
  9
$DIMASZ
 40
0.18
  9
$DIMEXO
 40
0.0625
  9
$DIMDLI
 40
0.38
  9
$DIMRND
 40
0.0
  9
$DIMDLE
 40
0.0
  9
$DIMEXE
 40
0.18
  9
$DIMTP
 40
0.0
  9
$DIMTM
 40
0.0
  9
$DIMTXT
 40
0.18
  9
$DIMCEN
 40
0.09
  9
$DIMTSZ
 40
0.0
  9
$DIMTOL
 70
     0
  9
$DIMLIM
 70
     0
  9
$DIMTIH
 70
     1
  9
$DIMTOH
 70
     1
  9
$DIMSE1
 70
     0
  9
$DIMSE2
 70
     0
  9
$DIMTAD
 70
     0
  9
$DIMZIN
 70
     0
  9
$DIMBLK
  1

  9
$DIMASO
 70
     1
  9
$DIMSHO
 70
     1
  9
$DIMPOST
  1

  9
$DIMAPOST
  1

  9
$DIMALT
 70
     0
  9
$DIMALTD
 70
     2
  9
$DIMALTF
 40
25.4
  9
$DIMLFAC
 40
1.0
  9
$DIMTOFL
 70
     0
  9
$DIMTVP
 40
0.0
  9
$DIMTIX
 70
     0
  9
$DIMSOXD
 70
     0
  9
$DIMSAH
 70
     0
  9
$DIMBLK1
  1

  9
$DIMBLK2
  1

  9
$DIMSTYLE
  2
STANDARD
  9
$DIMCLRD
 70
     0
  9
$DIMCLRE
 70
     0
  9
$DIMCLRT
 70
     0
  9
$DIMTFAC
 40
1.0
  9
$DIMGAP
 40
0.09
  9
$LUNITS
 70
     2
  9
$LUPREC
 70
     4
  9
$SKETCHINC
 40
0.1
  9
$FILLETRAD
 40
0.0
  9
$AUNITS
 70
     0
  9
$AUPREC
 70
     0
  9
$MENU
  1
.
  9
$ELEVATION
 40
0.0
  9
$PELEVATION
 40
0.0
  9
$THICKNESS
 40
0.0
  9
$LIMCHECK
 70
     0
  9
$CHAMFERA
 40
0.0
  9
$CHAMFERB
 40
0.0
  9
$SKPOLY
 70
     0
  9
$TDCREATE
 40
2456546.597841644
  9
$TDUPDATE
 40
2456546.597841644
  9
$TDINDWG
 40
0.0901945833
  9
$TDUSRTIMER
 40
0.0901945833
  9
$USRTIMER
 70
     1
  9
$ANGBASE
 50
0.0
  9
$ANGDIR
 70
     0
  9
$PDMODE
 70
     0
  9
$PDSIZE
 40
0.0
  9
$PLINEWID
 40
0.0
  9
$COORDS
 70
     1
  9
$SPLFRAME
 70
     0
  9
$SPLINETYPE
 70
     6
  9
$SPLINESEGS
 70
     8
  9
$ATTDIA
 70
     0
  9
$ATTREQ
 70
     1
  9
$HANDLING
 70
     1
  9
$HANDSEED
  5
32B
  9
$SURFTAB1
 70
    15
  9
$SURFTAB2
 70
     6
  9
$SURFTYPE
 70
     6
  9
$SURFU
 70
     6
  9
$SURFV
 70
     6
  9
$UCSNAME
  2

  9
$UCSORG
 10
0.0
 20
0.0
 30
0.0
  9
$UCSXDIR
 10
1.0
 20
0.0
 30
0.0
  9
$UCSYDIR
 10
0.0
 20
1.0
 30
0.0
  9
$PUCSNAME
  2

  9
$PUCSORG
 10
0.0
 20
0.0
 30
0.0
  9
$PUCSXDIR
 10
1.0
 20
0.0
 30
0.0
  9
$PUCSYDIR
 10
0.0
 20
1.0
 30
0.0
  9
$USERI1
 70
     0
  9
$USERI2
 70
     0
  9
$USERI3
 70
     0
  9
$USERI4
 70
     0
  9
$USERI5
 70
     0
  9
$USERR1
 40
0.0
  9
$USERR2
 40
0.0
  9
$USERR3
 40
0.0
  9
$USERR4
 40
0.0
  9
$USERR5
 40
0.0
  9
$WORLDVIEW
 70
     1
  9
$SHADEDGE
 70
     3
  9
$SHADEDIF
 70
    70
  9
$TILEMODE
 70
     1
  9
$MAXACTVP
 70
    64
  9
$PLIMCHECK
 70
     0
  9
$PEXTMIN
 10
0.0
 20
0.0
 30
0.0
  9
$PEXTMAX
 10
0.0
 20
0.0
 30
0.0
  9
$PLIMMIN
 10
0.0
 20
0.0
  9
$PLIMMAX
 10
12.0
 20
9.0
  9
$UNITMODE
 70
     0
  9
$VISRETAIN
 70
     1
  9
$PLINEGEN
 70
     0
  9
$PSLTSCALE
 70
     1
  0
ENDSEC
  0
SECTION
  2
TABLES
  0
TABLE
  2
VPORT
 70
     1
  0
VPORT
  2
*ACTIVE
 70
     0
 10
0.0
 20
0.0
 11
1.0
 21
1.0
 12
-12.72792206135786
 22
7.348469228349542
 13
0.0
 23
0.0
 14
0.5
 24
0.5
 15
0.5
 25
0.5
 16
-1.0
 26
-1.0
 36
1.0
 17
0.0
 27
0.0
 37
0.0
 40
51.00271843405349
 41
1.701534170153417
 42
50.0
 43
0.0
 44
0.0
 50
0.0
 51
0.0
 71
    16
 72
  1000
 73
     0
 74
     2
 75
     0
 76
     0
 77
     0
 78
     0
  0
ENDTAB
  0
TABLE
  2
LTYPE
 70
     1
  0
LTYPE
  2
CONTINUOUS
 70
     0
  3
Solid line
 72
    65
 73
     0
 40
0.0
  0
ENDTAB
  0
TABLE
  2
LAYER
 70
     5
  0
LAYER
  2
0
 70
     0
 62
     7
  6
CONTINUOUS
  0
LAYER
  2
ACESSORIO
 70
     0
 62
   107
  6
CONTINUOUS
  0
LAYER
  2
DT_RENDER
 70
     0
 62
     7
  6
CONTINUOUS
  0
LAYER
  2
FUNDO
 70
     0
 62
     2
  6
CONTINUOUS
  0
LAYER
  2
CHAVE
 70
     0
 62
   160
  6
CONTINUOUS
  0
ENDTAB
  0
TABLE
  2
STYLE
 70
     1
  0
STYLE
  2
STANDARD
 70
     0
 40
0.0
 41
1.0
 50
0.0
 71
     0
 42
0.2
  3
IC-txt.shx
  4

  0
ENDTAB
  0
TABLE
  2
VIEW
 70
     0
  0
ENDTAB
  0
TABLE
  2
UCS
 70
     0
  0
ENDTAB
  0
TABLE
  2
APPID
 70
     4
  0
APPID
  2
ACAD
 70
     0
  0
APPID
  2
DTRENDER2
 70
     0
  0
APPID
  2
DT_MAT_ASSIGN
 70
     0
  0
APPID
  2
DT_MAT_MAPPING
 70
     0
  0
ENDTAB
  0
TABLE
  2
DIMSTYLE
 70
     1
  0
DIMSTYLE
  2
STANDARD
 70
     0
  3

  4

  5

  6

  7

 40
1.0
 41
0.18
 42
0.0625
 43
0.38
 44
0.18
 45
0.0
 46
0.0
 47
0.0
 48
0.0
140
0.18
141
0.09
142
0.0
143
25.4
144
1.0
145
0.0
146
1.0
147
0.09
 71
     0
 72
     0
 73
     1
 74
     1
 75
     0
 76
     0
 77
     0
 78
     0
170
     0
171
     2
172
     0
173
     0
174
     0
175
     0
176
     0
177
     0
178
     0
  0
ENDTAB
  0
ENDSEC
  0
SECTION
  2
BLOCKS
  0
BLOCK
  8
0
  2
$MODEL_SPACE
 70
     0
 10
0.0
 20
0.0
 30
0.0
  3
$MODEL_SPACE
  1

  0
ENDBLK
  5
21
  8
0
  0
BLOCK
 67
     1
  8
0
  2
$PAPER_SPACE
 70
     0
 10
0.0
 20
0.0
 30
0.0
  3
$PAPER_SPACE
  1

  0
ENDBLK
  5
76
 67
     1
  8
0
  0
BLOCK
  8
0
  2
DT_LIGHT
 70
     0
 10
0.0
 20
0.0
 30
0.0
  3
DT_LIGHT
  1

  0
ENDBLK
  5
318
  8
0
  0
BLOCK
  8
0
  2
DT_MATERIAL
 70
     0
 10
0.0
 20
0.0
 30
0.0
  3
DT_MATERIAL
  1

  0
ENDBLK
  5
31A
  8
0
  0
BLOCK
  8
0
  2
DT_COLOR
 70
     0
 10
0.0
 20
0.0
 30
0.0
  3
DT_COLOR
  1

  0
ENDBLK
  5
31C
  8
0
  0
BLOCK
  8
0
  2
DT_FLOOR
 70
     0
 10
0.0
 20
0.0
 30
0.0
  3
DT_FLOOR
  1

  0
ENDBLK
  5
31E
  8
0
  0
BLOCK
  8
0
  2
DT_OPTIONS
 70
     0
 10
0.0
 20
0.0
 30
0.0
  3
DT_OPTIONS
  1

  0
ENDBLK
  5
320
  8
0
  0
BLOCK
  8
0
  2
DT_BACKGROUND
 70
     0
 10
0.0
 20
0.0
 30
0.0
  3
DT_BACKGROUND
  1

  0
ENDBLK
  5
322
  8
0
  0
ENDSEC
  0
SECTION
  2
ENTITIES
  0
LINE
  5
BC
  8
0
 10
2.499999999999998
 20
-1.0
 30
-5.0
 11
-2.500000000000002
 21
-1.0
 31
-5.0
210
0.0
220
-1.0
230
0.0
  0
CIRCLE
  5
C4
  8
0
 10
0.0000000000000004
 20
5.0
 30
-17.0
 40
2.0
210
0.0
220
-1.0
230
0.0
  0
CIRCLE
  5
C5
  8
0
 10
0.0000000000000004
 20
5.0
 30
-37.0
 40
2.0
210
0.0
220
-1.0
230
0.0
  0
POLYLINE
  5
EC
  8
ACESSORIO
 66
     1
 10
0.0
 20
0.0
 30
0.0
 70
    48
 71
     2
 72
    15
  0
VERTEX
  5
ED
  8
ACESSORIO
 10
2.0
 20
17.0
 30
5.0
 70
    64
  0
VERTEX
  5
EE
  8
ACESSORIO
 10
1.827090915285202
 20
17.0
 30
5.8134732861516
 70
    64
  0
VERTEX
  5
EF
  8
ACESSORIO
 10
1.338261212717717
 20
17.0
 30
6.486289650954788
 70
    64
  0
VERTEX
  5
F0
  8
ACESSORIO
 10
0.6180339887498953
 20
17.0
 30
6.902113032590307
 70
    64
  0
VERTEX
  5
F1
  8
ACESSORIO
 10
-0.2090569265353062
 20
17.0
 30
6.989043790736547
 70
    64
  0
VERTEX
  5
F2
  8
ACESSORIO
 10
-0.9999999999999991
 20
17.0
 30
6.732050807568878
 70
    64
  0
VERTEX
  5
F3
  8
ACESSORIO
 10
-1.618033988749894
 20
17.0
 30
6.175570504584947
 70
    64
  0
VERTEX
  5
F4
  8
ACESSORIO
 10
-1.956295201467611
 20
17.0
 30
5.415823381635518
 70
    64
  0
VERTEX
  5
F5
  8
ACESSORIO
 10
-1.956295201467611
 20
17.0
 30
4.584176618364481
 70
    64
  0
VERTEX
  5
F6
  8
ACESSORIO
 10
-1.618033988749894
 20
17.0
 30
3.824429495415053
 70
    64
  0
VERTEX
  5
F7
  8
ACESSORIO
 10
-0.9999999999999986
 20
17.0
 30
3.267949192431122
 70
    64
  0
VERTEX
  5
F8
  8
ACESSORIO
 10
-0.209056926535306
 20
17.0
 30
3.010956209263453
 70
    64
  0
VERTEX
  5
F9
  8
ACESSORIO
 10
0.6180339887498951
 20
17.0
 30
3.097886967409693
 70
    64
  0
VERTEX
  5
FA
  8
ACESSORIO
 10
1.338261212717716
 20
17.0
 30
3.513710349045211
 70
    64
  0
VERTEX
  5
FB
  8
ACESSORIO
 10
1.827090915285202
 20
17.0
 30
4.186526713848398
 70
    64
  0
VERTEX
  5
FC
  8
ACESSORIO
 10
2.0
 20
37.0
 30
5.0
 70
    64
  0
VERTEX
  5
FD
  8
ACESSORIO
 10
1.827090915285202
 20
37.0
 30
5.8134732861516
 70
    64
  0
VERTEX
  5
FE
  8
ACESSORIO
 10
1.338261212717717
 20
37.0
 30
6.486289650954788
 70
    64
  0
VERTEX
  5
FF
  8
ACESSORIO
 10
0.6180339887498953
 20
37.0
 30
6.902113032590307
 70
    64
  0
VERTEX
  5
100
  8
ACESSORIO
 10
-0.2090569265353062
 20
37.0
 30
6.989043790736547
 70
    64
  0
VERTEX
  5
101
  8
ACESSORIO
 10
-0.9999999999999991
 20
37.0
 30
6.732050807568878
 70
    64
  0
VERTEX
  5
102
  8
ACESSORIO
 10
-1.618033988749894
 20
37.0
 30
6.175570504584947
 70
    64
  0
VERTEX
  5
103
  8
ACESSORIO
 10
-1.956295201467611
 20
37.0
 30
5.415823381635518
 70
    64
  0
VERTEX
  5
104
  8
ACESSORIO
 10
-1.956295201467611
 20
37.0
 30
4.584176618364481
 70
    64
  0
VERTEX
  5
105
  8
ACESSORIO
 10
-1.618033988749894
 20
37.0
 30
3.824429495415053
 70
    64
  0
VERTEX
  5
106
  8
ACESSORIO
 10
-0.9999999999999986
 20
37.0
 30
3.267949192431122
 70
    64
  0
VERTEX
  5
107
  8
ACESSORIO
 10
-0.209056926535306
 20
37.0
 30
3.010956209263453
 70
    64
  0
VERTEX
  5
108
  8
ACESSORIO
 10
0.6180339887498951
 20
37.0
 30
3.097886967409693
 70
    64
  0
VERTEX
  5
109
  8
ACESSORIO
 10
1.338261212717716
 20
37.0
 30
3.513710349045211
 70
    64
  0
VERTEX
  5
10A
  8
ACESSORIO
 10
1.827090915285202
 20
37.0
 30
4.186526713848398
 70
    64
  0
SEQEND
  5
323
  8
ACESSORIO
  0
INSERT
  5
123
  8
DT_RENDER
  2
DT_MATERIAL
 10
0.0
 20
0.0
 30
0.0
1001
DTRENDER2
1000
MATERIAL
1071
   200501
1040
0.25
1040
0.5
1040
0.0
1040
0.8
1040
80.0
1040
0.0
1071
        1
1000
DEFAULT
1071
       16
1000

1040
0.0
1040
0.0
1040
0.0
1040
1.0
1040
1.0
1040
1.0
1040
0.0
1071
 16777215
1040
1.0
1071
 16777215
1040
1.0
1071
 16777215
1040
1.0
1071
 16777215
1040
1.0
1071
 16777215
1040
2.187
1040
0.5
1071
        3
1040
2.5
  0
LINE
  5
124
  8
ACESSORIO
 10
10.0
 20
18.0
 30
0.0
 11
-10.0
 21
18.0
 31
0.0000000000000012
210
0.0
220
-1.0
230
0.0
  0
ARC
  5
125
  8
0
 10
0.0
 20
0.0
 30
-18.0
 40
10.0
 50
0.0
 51
180.0
210
0.0
220
-1.0
230
0.0
  0
ARC
  5
128
  8
0
 10
0.0000000000000036
 20
0.0000000000000115
 30
0.0
 40
10.0
 50
0.0
 51
180.0
210
0.0
220
-1.0
230
0.0
  0
LINE
  5
129
  8
ACESSORIO
 10
10.0
 20
18.0
 30
0.0000000000000027
 11
-10.0
 21
18.0
 31
0.000000000000004
210
0.0
220
-1.0
230
0.0
  0
ARC
  5
12C
  8
0
 10
0.0000000000000018
 20
0.0
 30
-18.0
 40
9.999999999999998
 50
179.9999999999999
 51
0.0
210
0.0
220
-1.0
230
0.0
  0
ARC
  5
12E
  8
0
 10
0.0000000000000018
 20
0.0
 30
0.0
 40
9.999999999999998
 50
179.9999999999999
 51
0.0
210
0.0
220
-1.0
230
0.0
  0
LINE
  5
12F
  8
0
 10
-2.5
 20
-1.0
 30
5.0
 11
2.5
 21
-1.0
 31
5.0
  0
LINE
  5
130
  8
0
 10
2.5
 20
-1.0
 30
5.0
 11
2.499999999999998
 21
-1.0
 31
-5.0
  0
LINE
  5
131
  8
0
 10
2.499999999999998
 20
-1.0
 30
-5.0
 11
-2.500000000000002
 21
-1.0
 31
-5.0
  0
LINE
  5
132
  8
0
 10
-2.500000000000002
 20
-1.0
 30
-5.0
 11
-2.5
 21
-1.0
 31
5.0
  0
3DFACE
  5
192
  8
FUNDO
 10
-2.5
 20
-1.0
 30
5.0
 11
-2.500000000000002
 21
-1.0
 31
-5.0
 12
2.499999999999998
 22
-1.0
 32
-5.0
 13
2.5
 23
-1.0
 33
5.0
  0
POLYLINE
  5
193
  8
ACESSORIO
 66
     1
 10
0.0
 20
0.0
 30
0.0
 70
    16
 71
     2
 72
    16
  0
VERTEX
  5
194
  8
ACESSORIO
 10
-9.999999999999996
 20
0.0
 30
0.0000000000000127
 70
    64
  0
VERTEX
  5
195
  8
ACESSORIO
 10
-9.781476007338053
 20
0.0
 30
2.079116908177604
 70
    64
  0
VERTEX
  5
196
  8
ACESSORIO
 10
-9.135454576426005
 20
0.0
 30
4.067366430758014
 70
    64
  0
VERTEX
  5
197
  8
ACESSORIO
 10
-8.090169943749471
 20
0.0
 30
5.877852522924743
 70
    64
  0
VERTEX
  5
198
  8
ACESSORIO
 10
-6.691306063588577
 20
0.0
 30
7.431448254773955
 70
    64
  0
VERTEX
  5
199
  8
ACESSORIO
 10
-4.999999999999994
 20
0.0
 30
8.6602540378444
 70
    64
  0
VERTEX
  5
19A
  8
ACESSORIO
 10
-3.090169943749467
 20
0.0
 30
9.510565162951549
 70
    64
  0
VERTEX
  5
19B
  8
ACESSORIO
 10
-1.045284632676526
 20
0.0
 30
9.945218953682746
 70
    64
  0
VERTEX
  5
19C
  8
ACESSORIO
 10
1.045284632676544
 20
0.0
 30
9.945218953682744
 70
    64
  0
VERTEX
  5
19D
  8
ACESSORIO
 10
3.090169943749483
 20
0.0
 30
9.510565162951547
 70
    64
  0
VERTEX
  5
19E
  8
ACESSORIO
 10
5.000000000000008
 20
0.0
 30
8.660254037844396
 70
    64
  0
VERTEX
  5
19F
  8
ACESSORIO
 10
6.691306063588589
 20
0.0
 30
7.431448254773952
 70
    64
  0
VERTEX
  5
1A0
  8
ACESSORIO
 10
8.09016994374948
 20
0.0
 30
5.877852522924741
 70
    64
  0
VERTEX
  5
1A1
  8
ACESSORIO
 10
9.135454576426014
 20
0.0
 30
4.06736643075801
 70
    64
  0
VERTEX
  5
1A2
  8
ACESSORIO
 10
9.78147600733806
 20
0.0
 30
2.079116908177602
 70
    64
  0
VERTEX
  5
1A3
  8
ACESSORIO
 10
10.0
 20
0.0
 30
0.0000000000000091
 70
    64
  0
VERTEX
  5
1A4
  8
ACESSORIO
 10
-10.0
 20
18.0
 30
0.0000000000000012
 70
    64
  0
VERTEX
  5
1A5
  8
ACESSORIO
 10
-9.781476007338057
 20
18.0
 30
2.079116908177592
 70
    64
  0
VERTEX
  5
1A6
  8
ACESSORIO
 10
-9.135454576426008
 20
18.0
 30
4.067366430758002
 70
    64
  0
VERTEX
  5
1A7
  8
ACESSORIO
 10
-8.090169943749475
 20
18.0
 30
5.877852522924732
 70
    64
  0
VERTEX
  5
1A8
  8
ACESSORIO
 10
-6.691306063588581
 20
18.0
 30
7.431448254773944
 70
    64
  0
VERTEX
  5
1A9
  8
ACESSORIO
 10
-4.999999999999997
 20
18.0
 30
8.660254037844387
 70
    64
  0
VERTEX
  5
1AA
  8
ACESSORIO
 10
-3.090169943749471
 20
18.0
 30
9.510565162951538
 70
    64
  0
VERTEX
  5
1AB
  8
ACESSORIO
 10
-1.04528463267653
 20
18.0
 30
9.945218953682735
 70
    64
  0
VERTEX
  5
1AC
  8
ACESSORIO
 10
1.045284632676541
 20
18.0
 30
9.945218953682733
 70
    64
  0
VERTEX
  5
1AD
  8
ACESSORIO
 10
3.090169943749479
 20
18.0
 30
9.510565162951535
 70
    64
  0
VERTEX
  5
1AE
  8
ACESSORIO
 10
5.000000000000004
 20
18.0
 30
8.660254037844386
 70
    64
  0
VERTEX
  5
1AF
  8
ACESSORIO
 10
6.691306063588585
 20
18.0
 30
7.43144825477394
 70
    64
  0
VERTEX
  5
1B0
  8
ACESSORIO
 10
8.090169943749476
 20
18.0
 30
5.877852522924729
 70
    64
  0
VERTEX
  5
1B1
  8
ACESSORIO
 10
9.13545457642601
 20
18.0
 30
4.067366430758
 70
    64
  0
VERTEX
  5
1B2
  8
ACESSORIO
 10
9.781476007338057
 20
18.0
 30
2.079116908177591
 70
    64
  0
VERTEX
  5
1B3
  8
ACESSORIO
 10
10.0
 20
18.0
 30
-0.0000000000000024
 70
    64
  0
SEQEND
  5
324
  8
ACESSORIO
  0
POLYLINE
  5
1B5
  8
ACESSORIO
 66
     1
 10
0.0
 20
0.0
 30
0.0
 70
    16
 71
     2
 72
    16
  0
VERTEX
  5
1B6
  8
ACESSORIO
 10
-9.999999999999996
 20
18.0
 30
0.000000000000019
 70
    64
  0
VERTEX
  5
1B7
  8
ACESSORIO
 10
-9.781476007338055
 20
18.0
 30
-2.079116908177575
 70
    64
  0
VERTEX
  5
1B8
  8
ACESSORIO
 10
-9.135454576426008
 20
18.0
 30
-4.067366430757985
 70
    64
  0
VERTEX
  5
1B9
  8
ACESSORIO
 10
-8.090169943749476
 20
18.0
 30
-5.877852522924716
 70
    64
  0
VERTEX
  5
1BA
  8
ACESSORIO
 10
-6.691306063588584
 20
18.0
 30
-7.431448254773928
 70
    64
  0
VERTEX
  5
1BB
  8
ACESSORIO
 10
-5.000000000000002
 20
18.0
 30
-8.660254037844375
 70
    64
  0
VERTEX
  5
1BC
  8
ACESSORIO
 10
-3.090169943749475
 20
18.0
 30
-9.510565162951524
 70
    64
  0
VERTEX
  5
1BD
  8
ACESSORIO
 10
-1.045284632676535
 20
18.0
 30
-9.945218953682723
 70
    64
  0
VERTEX
  5
1BE
  8
ACESSORIO
 10
1.045284632676534
 20
18.0
 30
-9.945218953682724
 70
    64
  0
VERTEX
  5
1BF
  8
ACESSORIO
 10
3.090169943749475
 20
18.0
 30
-9.510565162951526
 70
    64
  0
VERTEX
  5
1C0
  8
ACESSORIO
 10
5.000000000000001
 20
18.0
 30
-8.660254037844377
 70
    64
  0
VERTEX
  5
1C1
  8
ACESSORIO
 10
6.691306063588584
 20
18.0
 30
-7.431448254773931
 70
    64
  0
VERTEX
  5
1C2
  8
ACESSORIO
 10
8.090169943749476
 20
18.0
 30
-5.877852522924719
 70
    64
  0
VERTEX
  5
1C3
  8
ACESSORIO
 10
9.13545457642601
 20
18.0
 30
-4.067366430757988
 70
    64
  0
VERTEX
  5
1C4
  8
ACESSORIO
 10
9.781476007338057
 20
18.0
 30
-2.079116908177578
 70
    64
  0
VERTEX
  5
1C5
  8
ACESSORIO
 10
10.0
 20
18.0
 30
-0.0000000000000024
 70
    64
  0
VERTEX
  5
1C6
  8
ACESSORIO
 10
-9.999999999999996
 20
0.0
 30
0.000000000000019
 70
    64
  0
VERTEX
  5
1C7
  8
ACESSORIO
 10
-9.781476007338055
 20
0.0
 30
-2.079116908177575
 70
    64
  0
VERTEX
  5
1C8
  8
ACESSORIO
 10
-9.135454576426008
 20
0.0
 30
-4.067366430757985
 70
    64
  0
VERTEX
  5
1C9
  8
ACESSORIO
 10
-8.090169943749476
 20
0.0
 30
-5.877852522924716
 70
    64
  0
VERTEX
  5
1CA
  8
ACESSORIO
 10
-6.691306063588584
 20
0.0
 30
-7.431448254773928
 70
    64
  0
VERTEX
  5
1CB
  8
ACESSORIO
 10
-5.000000000000002
 20
0.0
 30
-8.660254037844375
 70
    64
  0
VERTEX
  5
1CC
  8
ACESSORIO
 10
-3.090169943749475
 20
0.0
 30
-9.510565162951524
 70
    64
  0
VERTEX
  5
1CD
  8
ACESSORIO
 10
-1.045284632676535
 20
0.0
 30
-9.945218953682723
 70
    64
  0
VERTEX
  5
1CE
  8
ACESSORIO
 10
1.045284632676534
 20
0.0
 30
-9.945218953682724
 70
    64
  0
VERTEX
  5
1CF
  8
ACESSORIO
 10
3.090169943749475
 20
0.0
 30
-9.510565162951526
 70
    64
  0
VERTEX
  5
1D0
  8
ACESSORIO
 10
5.000000000000001
 20
0.0
 30
-8.660254037844377
 70
    64
  0
VERTEX
  5
1D1
  8
ACESSORIO
 10
6.691306063588584
 20
0.0
 30
-7.431448254773931
 70
    64
  0
VERTEX
  5
1D2
  8
ACESSORIO
 10
8.090169943749476
 20
0.0
 30
-5.877852522924719
 70
    64
  0
VERTEX
  5
1D3
  8
ACESSORIO
 10
9.13545457642601
 20
0.0
 30
-4.067366430757988
 70
    64
  0
VERTEX
  5
1D4
  8
ACESSORIO
 10
9.781476007338057
 20
0.0
 30
-2.079116908177578
 70
    64
  0
VERTEX
  5
1D5
  8
ACESSORIO
 10
10.0
 20
0.0
 30
-0.0000000000000024
 70
    64
  0
SEQEND
  5
325
  8
ACESSORIO
  0
POLYLINE
  5
1D7
  8
ACESSORIO
 66
     1
 10
0.0
 20
0.0
 30
0.0
 70
    16
 71
     2
 72
    16
  0
VERTEX
  5
1D8
  8
ACESSORIO
 10
-9.999999999999996
 20
0.0
 30
0.0000000000000127
 70
    64
  0
VERTEX
  5
1D9
  8
ACESSORIO
 10
-9.781476007338053
 20
0.0
 30
2.079116908177604
 70
    64
  0
VERTEX
  5
1DA
  8
ACESSORIO
 10
-9.135454576426005
 20
0.0
 30
4.067366430758014
 70
    64
  0
VERTEX
  5
1DB
  8
ACESSORIO
 10
-8.090169943749471
 20
0.0
 30
5.877852522924743
 70
    64
  0
VERTEX
  5
1DC
  8
ACESSORIO
 10
-6.691306063588577
 20
0.0
 30
7.431448254773955
 70
    64
  0
VERTEX
  5
1DD
  8
ACESSORIO
 10
-4.999999999999994
 20
0.0
 30
8.6602540378444
 70
    64
  0
VERTEX
  5
1DE
  8
ACESSORIO
 10
-3.090169943749467
 20
0.0
 30
9.510565162951549
 70
    64
  0
VERTEX
  5
1DF
  8
ACESSORIO
 10
-1.045284632676526
 20
0.0
 30
9.945218953682746
 70
    64
  0
VERTEX
  5
1E0
  8
ACESSORIO
 10
1.045284632676544
 20
0.0
 30
9.945218953682744
 70
    64
  0
VERTEX
  5
1E1
  8
ACESSORIO
 10
3.090169943749483
 20
0.0
 30
9.510565162951547
 70
    64
  0
VERTEX
  5
1E2
  8
ACESSORIO
 10
5.000000000000008
 20
0.0
 30
8.660254037844396
 70
    64
  0
VERTEX
  5
1E3
  8
ACESSORIO
 10
6.691306063588589
 20
0.0
 30
7.431448254773952
 70
    64
  0
VERTEX
  5
1E4
  8
ACESSORIO
 10
8.09016994374948
 20
0.0
 30
5.877852522924741
 70
    64
  0
VERTEX
  5
1E5
  8
ACESSORIO
 10
9.135454576426014
 20
0.0
 30
4.06736643075801
 70
    64
  0
VERTEX
  5
1E6
  8
ACESSORIO
 10
9.78147600733806
 20
0.0
 30
2.079116908177602
 70
    64
  0
VERTEX
  5
1E7
  8
ACESSORIO
 10
10.0
 20
0.0
 30
0.0000000000000091
 70
    64
  0
VERTEX
  5
1E8
  8
ACESSORIO
 10
-9.999999999999996
 20
0.0
 30
0.000000000000019
 70
    64
  0
VERTEX
  5
1E9
  8
ACESSORIO
 10
-9.781476007338055
 20
0.0
 30
-2.079116908177575
 70
    64
  0
VERTEX
  5
1EA
  8
ACESSORIO
 10
-9.135454576426008
 20
0.0
 30
-4.067366430757985
 70
    64
  0
VERTEX
  5
1EB
  8
ACESSORIO
 10
-8.090169943749476
 20
0.0
 30
-5.877852522924716
 70
    64
  0
VERTEX
  5
1EC
  8
ACESSORIO
 10
-6.691306063588584
 20
0.0
 30
-7.431448254773928
 70
    64
  0
VERTEX
  5
1ED
  8
ACESSORIO
 10
-5.000000000000002
 20
0.0
 30
-8.660254037844375
 70
    64
  0
VERTEX
  5
1EE
  8
ACESSORIO
 10
-3.090169943749475
 20
0.0
 30
-9.510565162951524
 70
    64
  0
VERTEX
  5
1EF
  8
ACESSORIO
 10
-1.045284632676535
 20
0.0
 30
-9.945218953682723
 70
    64
  0
VERTEX
  5
1F0
  8
ACESSORIO
 10
1.045284632676534
 20
0.0
 30
-9.945218953682724
 70
    64
  0
VERTEX
  5
1F1
  8
ACESSORIO
 10
3.090169943749475
 20
0.0
 30
-9.510565162951526
 70
    64
  0
VERTEX
  5
1F2
  8
ACESSORIO
 10
5.000000000000001
 20
0.0
 30
-8.660254037844377
 70
    64
  0
VERTEX
  5
1F3
  8
ACESSORIO
 10
6.691306063588584
 20
0.0
 30
-7.431448254773931
 70
    64
  0
VERTEX
  5
1F4
  8
ACESSORIO
 10
8.090169943749476
 20
0.0
 30
-5.877852522924719
 70
    64
  0
VERTEX
  5
1F5
  8
ACESSORIO
 10
9.13545457642601
 20
0.0
 30
-4.067366430757988
 70
    64
  0
VERTEX
  5
1F6
  8
ACESSORIO
 10
9.781476007338057
 20
0.0
 30
-2.079116908177578
 70
    64
  0
VERTEX
  5
1F7
  8
ACESSORIO
 10
10.0
 20
0.0
 30
-0.0000000000000024
 70
    64
  0
SEQEND
  5
326
  8
ACESSORIO
  0
POLYLINE
  5
1F9
  8
ACESSORIO
 66
     1
 10
0.0
 20
0.0
 30
0.0
 70
    16
 71
     2
 72
    16
  0
VERTEX
  5
1FA
  8
ACESSORIO
 10
-9.999999999999996
 20
18.0
 30
0.000000000000019
 70
    64
  0
VERTEX
  5
1FB
  8
ACESSORIO
 10
-9.781476007338055
 20
18.0
 30
-2.079116908177575
 70
    64
  0
VERTEX
  5
1FC
  8
ACESSORIO
 10
-9.135454576426008
 20
18.0
 30
-4.067366430757985
 70
    64
  0
VERTEX
  5
1FD
  8
ACESSORIO
 10
-8.090169943749476
 20
18.0
 30
-5.877852522924716
 70
    64
  0
VERTEX
  5
1FE
  8
ACESSORIO
 10
-6.691306063588584
 20
18.0
 30
-7.431448254773928
 70
    64
  0
VERTEX
  5
1FF
  8
ACESSORIO
 10
-5.000000000000002
 20
18.0
 30
-8.660254037844375
 70
    64
  0
VERTEX
  5
200
  8
ACESSORIO
 10
-3.090169943749475
 20
18.0
 30
-9.510565162951524
 70
    64
  0
VERTEX
  5
201
  8
ACESSORIO
 10
-1.045284632676535
 20
18.0
 30
-9.945218953682723
 70
    64
  0
VERTEX
  5
202
  8
ACESSORIO
 10
1.045284632676534
 20
18.0
 30
-9.945218953682724
 70
    64
  0
VERTEX
  5
203
  8
ACESSORIO
 10
3.090169943749475
 20
18.0
 30
-9.510565162951526
 70
    64
  0
VERTEX
  5
204
  8
ACESSORIO
 10
5.000000000000001
 20
18.0
 30
-8.660254037844377
 70
    64
  0
VERTEX
  5
205
  8
ACESSORIO
 10
6.691306063588584
 20
18.0
 30
-7.431448254773931
 70
    64
  0
VERTEX
  5
206
  8
ACESSORIO
 10
8.090169943749476
 20
18.0
 30
-5.877852522924719
 70
    64
  0
VERTEX
  5
207
  8
ACESSORIO
 10
9.13545457642601
 20
18.0
 30
-4.067366430757988
 70
    64
  0
VERTEX
  5
208
  8
ACESSORIO
 10
9.781476007338057
 20
18.0
 30
-2.079116908177578
 70
    64
  0
VERTEX
  5
209
  8
ACESSORIO
 10
10.0
 20
18.0
 30
-0.0000000000000024
 70
    64
  0
VERTEX
  5
20A
  8
ACESSORIO
 10
-10.0
 20
18.0
 30
0.0000000000000012
 70
    64
  0
VERTEX
  5
20B
  8
ACESSORIO
 10
-9.781476007338057
 20
18.0
 30
2.079116908177592
 70
    64
  0
VERTEX
  5
20C
  8
ACESSORIO
 10
-9.135454576426008
 20
18.0
 30
4.067366430758002
 70
    64
  0
VERTEX
  5
20D
  8
ACESSORIO
 10
-8.090169943749475
 20
18.0
 30
5.877852522924732
 70
    64
  0
VERTEX
  5
20E
  8
ACESSORIO
 10
-6.691306063588581
 20
18.0
 30
7.431448254773944
 70
    64
  0
VERTEX
  5
20F
  8
ACESSORIO
 10
-4.999999999999997
 20
18.0
 30
8.660254037844387
 70
    64
  0
VERTEX
  5
210
  8
ACESSORIO
 10
-3.090169943749471
 20
18.0
 30
9.510565162951538
 70
    64
  0
VERTEX
  5
211
  8
ACESSORIO
 10
-1.04528463267653
 20
18.0
 30
9.945218953682735
 70
    64
  0
VERTEX
  5
212
  8
ACESSORIO
 10
1.045284632676541
 20
18.0
 30
9.945218953682733
 70
    64
  0
VERTEX
  5
213
  8
ACESSORIO
 10
3.090169943749479
 20
18.0
 30
9.510565162951535
 70
    64
  0
VERTEX
  5
214
  8
ACESSORIO
 10
5.000000000000004
 20
18.0
 30
8.660254037844386
 70
    64
  0
VERTEX
  5
215
  8
ACESSORIO
 10
6.691306063588585
 20
18.0
 30
7.43144825477394
 70
    64
  0
VERTEX
  5
216
  8
ACESSORIO
 10
8.090169943749476
 20
18.0
 30
5.877852522924729
 70
    64
  0
VERTEX
  5
217
  8
ACESSORIO
 10
9.13545457642601
 20
18.0
 30
4.067366430758
 70
    64
  0
VERTEX
  5
218
  8
ACESSORIO
 10
9.781476007338057
 20
18.0
 30
2.079116908177591
 70
    64
  0
VERTEX
  5
219
  8
ACESSORIO
 10
10.0
 20
18.0
 30
-0.0000000000000024
 70
    64
  0
SEQEND
  5
327
  8
ACESSORIO
  0
ENDSEC
  0
EOF
