  0
SECTION
  2
HEADER
  9
$ACADVER
  1
AC1021
  9
$ACADMAINTVER
 70
    39
  9
$DWGCODEPAGE
  3
ANSI_1252
  9
$LASTSAVEDBY
  1
fottrem
  9
$INSBASE
 10
0.0
 20
0.0
 30
0.0
  9
$EXTMIN
 10
-10.0
 20
-40.27276497817673
 30
-14.00000000000001
  9
$EXTMAX
 10
10.0
 20
37.0
 30
14.0
  9
$LIMMIN
 10
0.0
 20
0.0
  9
$LIMMAX
 10
12.0
 20
9.0
  9
$ORTHOMODE
 70
     1
  9
$REGENMODE
 70
     1
  9
$FILLMODE
 70
     1
  9
$QTEXTMODE
 70
     0
  9
$MIRRTEXT
 70
     0
  9
$LTSCALE
 40
1.0
  9
$ATTMODE
 70
     1
  9
$TEXTSIZE
 40
0.2
  9
$TRACEWID
 40
0.05
  9
$TEXTSTYLE
  7
Standard
  9
$CLAYER
  8
CHAVE
  9
$CELTYPE
  6
ByLayer
  9
$CECOLOR
 62
   256
  9
$CELTSCALE
 40
1.0
  9
$DISPSILH
 70
     0
  9
$DIMSCALE
 40
1.0
  9
$DIMASZ
 40
0.18
  9
$DIMEXO
 40
0.0625
  9
$DIMDLI
 40
0.38
  9
$DIMRND
 40
0.0
  9
$DIMDLE
 40
0.0
  9
$DIMEXE
 40
0.18
  9
$DIMTP
 40
0.0
  9
$DIMTM
 40
0.0
  9
$DIMTXT
 40
0.18
  9
$DIMCEN
 40
0.09
  9
$DIMTSZ
 40
0.0
  9
$DIMTOL
 70
     0
  9
$DIMLIM
 70
     0
  9
$DIMTIH
 70
     1
  9
$DIMTOH
 70
     1
  9
$DIMSE1
 70
     0
  9
$DIMSE2
 70
     0
  9
$DIMTAD
 70
     0
  9
$DIMZIN
 70
     0
  9
$DIMBLK
  1

  9
$DIMASO
 70
     1
  9
$DIMSHO
 70
     1
  9
$DIMPOST
  1

  9
$DIMAPOST
  1

  9
$DIMALT
 70
     0
  9
$DIMALTD
 70
     2
  9
$DIMALTF
 40
25.4
  9
$DIMLFAC
 40
1.0
  9
$DIMTOFL
 70
     0
  9
$DIMTVP
 40
0.0
  9
$DIMTIX
 70
     0
  9
$DIMSOXD
 70
     0
  9
$DIMSAH
 70
     0
  9
$DIMBLK1
  1

  9
$DIMBLK2
  1

  9
$DIMSTYLE
  2
Standard
  9
$DIMCLRD
 70
     0
  9
$DIMCLRE
 70
     0
  9
$DIMCLRT
 70
     0
  9
$DIMTFAC
 40
1.0
  9
$DIMGAP
 40
0.09
  9
$DIMJUST
 70
     0
  9
$DIMSD1
 70
     0
  9
$DIMSD2
 70
     0
  9
$DIMTOLJ
 70
     1
  9
$DIMTZIN
 70
     0
  9
$DIMALTZ
 70
     0
  9
$DIMALTTZ
 70
     0
  9
$DIMUPT
 70
     0
  9
$DIMDEC
 70
     4
  9
$DIMTDEC
 70
     4
  9
$DIMALTU
 70
     2
  9
$DIMALTTD
 70
     2
  9
$DIMTXSTY
  7
Standard
  9
$DIMAUNIT
 70
     0
  9
$DIMADEC
 70
     0
  9
$DIMALTRND
 40
0.0
  9
$DIMAZIN
 70
     0
  9
$DIMDSEP
 70
    46
  9
$DIMATFIT
 70
     3
  9
$DIMFRAC
 70
     0
  9
$DIMLDRBLK
  1

  9
$DIMLUNIT
 70
     2
  9
$DIMLWD
 70
    -2
  9
$DIMLWE
 70
    -2
  9
$DIMTMOVE
 70
     0
  9
$DIMFXL
 40
1.0
  9
$DIMFXLON
 70
     0
  9
$DIMJOGANG
 40
0.7853981633974483
  9
$DIMTFILL
 70
     0
  9
$DIMTFILLCLR
 70
     0
  9
$DIMARCSYM
 70
     0
  9
$DIMLTYPE
  6

  9
$DIMLTEX1
  6

  9
$DIMLTEX2
  6

  9
$LUNITS
 70
     2
  9
$LUPREC
 70
     4
  9
$SKETCHINC
 40
0.1
  9
$FILLETRAD
 40
5.0
  9
$AUNITS
 70
     0
  9
$AUPREC
 70
     0
  9
$MENU
  1
.
  9
$ELEVATION
 40
0.0
  9
$PELEVATION
 40
0.0
  9
$THICKNESS
 40
0.0
  9
$LIMCHECK
 70
     0
  9
$CHAMFERA
 40
0.0
  9
$CHAMFERB
 40
0.0
  9
$CHAMFERC
 40
1.0
  9
$CHAMFERD
 40
0.0
  9
$SKPOLY
 70
     0
  9
$TDCREATE
 40
2456546.597841644
  9
$TDUCREATE
 40
2456546.722841644
  9
$TDUPDATE
 40
2456546.597841644
  9
$TDUUPDATE
 40
2456546.722841644
  9
$TDINDWG
 40
0.1037478241
  9
$TDUSRTIMER
 40
0.1037478241
  9
$USRTIMER
 70
     1
  9
$ANGBASE
 50
0.0
  9
$ANGDIR
 70
     0
  9
$PDMODE
 70
     0
  9
$PDSIZE
 40
0.0
  9
$PLINEWID
 40
0.0
  9
$SPLFRAME
 70
     0
  9
$SPLINETYPE
 70
     6
  9
$SPLINESEGS
 70
     8
  9
$HANDSEED
  5
63E
  9
$SURFTAB1
 70
    16
  9
$SURFTAB2
 70
     6
  9
$SURFTYPE
 70
     6
  9
$SURFU
 70
     6
  9
$SURFV
 70
     6
  9
$UCSBASE
  2

  9
$UCSNAME
  2

  9
$UCSORG
 10
0.0
 20
0.0
 30
0.0
  9
$UCSXDIR
 10
1.0
 20
0.0
 30
0.0
  9
$UCSYDIR
 10
0.0
 20
1.0
 30
0.0
  9
$UCSORTHOREF
  2

  9
$UCSORTHOVIEW
 70
     0
  9
$UCSORGTOP
 10
0.0
 20
0.0
 30
0.0
  9
$UCSORGBOTTOM
 10
0.0
 20
0.0
 30
0.0
  9
$UCSORGLEFT
 10
0.0
 20
0.0
 30
0.0
  9
$UCSORGRIGHT
 10
0.0
 20
0.0
 30
0.0
  9
$UCSORGFRONT
 10
0.0
 20
0.0
 30
0.0
  9
$UCSORGBACK
 10
0.0
 20
0.0
 30
0.0
  9
$PUCSBASE
  2

  9
$PUCSNAME
  2

  9
$PUCSORG
 10
0.0
 20
0.0
 30
0.0
  9
$PUCSXDIR
 10
1.0
 20
0.0
 30
0.0
  9
$PUCSYDIR
 10
0.0
 20
1.0
 30
0.0
  9
$PUCSORTHOREF
  2

  9
$PUCSORTHOVIEW
 70
     0
  9
$PUCSORGTOP
 10
0.0
 20
0.0
 30
0.0
  9
$PUCSORGBOTTOM
 10
0.0
 20
0.0
 30
0.0
  9
$PUCSORGLEFT
 10
0.0
 20
0.0
 30
0.0
  9
$PUCSORGRIGHT
 10
0.0
 20
0.0
 30
0.0
  9
$PUCSORGFRONT
 10
0.0
 20
0.0
 30
0.0
  9
$PUCSORGBACK
 10
0.0
 20
0.0
 30
0.0
  9
$USERI1
 70
     0
  9
$USERI2
 70
     0
  9
$USERI3
 70
     0
  9
$USERI4
 70
     0
  9
$USERI5
 70
     0
  9
$USERR1
 40
0.0
  9
$USERR2
 40
0.0
  9
$USERR3
 40
0.0
  9
$USERR4
 40
0.0
  9
$USERR5
 40
0.0
  9
$WORLDVIEW
 70
     1
  9
$SHADEDGE
 70
     3
  9
$SHADEDIF
 70
    70
  9
$TILEMODE
 70
     1
  9
$MAXACTVP
 70
    64
  9
$PINSBASE
 10
0.0
 20
0.0
 30
0.0
  9
$PLIMCHECK
 70
     0
  9
$PEXTMIN
 10
0.0
 20
0.0
 30
0.0
  9
$PEXTMAX
 10
0.0
 20
0.0
 30
0.0
  9
$PLIMMIN
 10
0.0
 20
0.0
  9
$PLIMMAX
 10
12.0
 20
9.0
  9
$UNITMODE
 70
     0
  9
$VISRETAIN
 70
     1
  9
$PLINEGEN
 70
     0
  9
$PSLTSCALE
 70
     1
  9
$TREEDEPTH
 70
  3020
  9
$CMLSTYLE
  2
Standard
  9
$CMLJUST
 70
     0
  9
$CMLSCALE
 40
1.0
  9
$PROXYGRAPHICS
 70
     1
  9
$MEASUREMENT
 70
     0
  9
$CELWEIGHT
370
    -1
  9
$ENDCAPS
280
     0
  9
$JOINSTYLE
280
     0
  9
$LWDISPLAY
290
     0
  9
$INSUNITS
 70
     0
  9
$HYPERLINKBASE
  1

  9
$STYLESHEET
  1

  9
$XEDIT
290
     1
  9
$CEPSNTYPE
380
     0
  9
$PSTYLEMODE
290
     1
  9
$FINGERPRINTGUID
  2
{B03D732F-D40E-4570-ABC2-FC6821A53801}
  9
$VERSIONGUID
  2
{FAEB1C32-E019-11D5-929B-00C0DF256EC4}
  9
$EXTNAMES
290
     1
  9
$PSVPSCALE
 40
0.0
  9
$OLESTARTUP
290
     0
  9
$SORTENTS
280
   127
  9
$INDEXCTL
280
     0
  9
$HIDETEXT
280
     1
  9
$XCLIPFRAME
290
     0
  9
$HALOGAP
280
     0
  9
$OBSCOLOR
 70
   257
  9
$OBSLTYPE
280
     0
  9
$INTERSECTIONDISPLAY
280
     0
  9
$INTERSECTIONCOLOR
 70
   257
  9
$DIMASSOC
280
     2
  9
$PROJECTNAME
  1

  9
$CAMERADISPLAY
290
     0
  9
$LENSLENGTH
 40
50.0
  9
$CAMERAHEIGHT
 40
0.0
  9
$STEPSPERSEC
 40
2.0
  9
$STEPSIZE
 40
6.0
  9
$3DDWFPREC
 40
2.0
  9
$PSOLWIDTH
 40
0.25
  9
$PSOLHEIGHT
 40
4.0
  9
$LOFTANG1
 40
1.570796326794897
  9
$LOFTANG2
 40
1.570796326794897
  9
$LOFTMAG1
 40
1.0
  9
$LOFTMAG2
 40
1.0
  9
$LOFTPARAM
 70
     7
  9
$LOFTNORMALS
280
     1
  9
$LATITUDE
 40
37.795
  9
$LONGITUDE
 40
-122.394
  9
$NORTHDIRECTION
 40
0.0
  9
$TIMEZONE
 70
 -8000
  9
$LIGHTGLYPHDISPLAY
280
     1
  9
$TILEMODELIGHTSYNCH
280
     1
  9
$SOLIDHIST
280
     1
  9
$SHOWHIST
280
     1
  9
$DWFFRAME
280
     0
  9
$DGNFRAME
280
     2
  9
$REALWORLDSCALE
290
     1
  9
$INTERFERECOLOR
 62
   256
  9
$CSHADOW
280
     0
  9
$SHADOWPLANELOCATION
 40
0.0
  0
ENDSEC
  0
SECTION
  2
CLASSES
  0
CLASS
  1
ACDBDICTIONARYWDFLT
  2
AcDbDictionaryWithDefault
  3
ObjectDBX Classes
 90
        0
 91
        3
280
     0
281
     0
  0
CLASS
  1
ACDBPLACEHOLDER
  2
AcDbPlaceHolder
  3
ObjectDBX Classes
 90
        0
 91
        1
280
     0
281
     0
  0
CLASS
  1
LAYOUT
  2
AcDbLayout
  3
ObjectDBX Classes
 90
        0
 91
        1
280
     0
281
     0
  0
CLASS
  1
DICTIONARYVAR
  2
AcDbDictionaryVar
  3
ObjectDBX Classes
 90
        0
 91
        3
280
     0
281
     0
  0
CLASS
  1
TABLESTYLE
  2
AcDbTableStyle
  3
ObjectDBX Classes
 90
     4095
 91
        3
280
     0
281
     0
  0
ENDSEC
  0
SECTION
  2
TABLES
  0
TABLE
  2
VPORT
  5
8
330
0
100
AcDbSymbolTable
 70
     2
  0
VPORT
  5
97
330
8
100
AcDbSymbolTableRecord
100
AcDbViewportTableRecord
  2
*ACTIVE
 70
     0
 10
0.0
 20
0.0
 11
1.0
 21
1.0
 12
1.119873186256982
 22
13.06231238188666
 13
0.0
 23
0.0
 14
0.5
 24
0.5
 15
0.5
 25
0.5
 16
-1.0
 26
1.0
 36
1.0
 17
0.0
 27
0.0
 37
0.0
 40
138.4297966411777
 41
1.701534170153417
 42
50.0
 43
0.0
 44
0.0
 50
0.0
 51
0.0
 71
    16
 72
  1000
 73
     0
 74
     2
 75
     0
 76
     0
 77
     0
 78
     0
281
     0
 65
     1
110
0.0
120
0.0
130
0.0
111
1.0
121
0.0
131
0.0
112
0.0
122
1.0
132
0.0
 79
     0
146
0.0
 60
     0
 61
     5
292
     1
282
     1
141
0.0
142
0.0
 63
   256
  0
ENDTAB
  0
TABLE
  2
LTYPE
  5
5
330
0
100
AcDbSymbolTable
 70
     1
  0
LTYPE
  5
14
330
5
100
AcDbSymbolTableRecord
100
AcDbLinetypeTableRecord
  2
ByBlock
 70
     0
  3

 72
    65
 73
     0
 40
0.0
  0
LTYPE
  5
15
330
5
100
AcDbSymbolTableRecord
100
AcDbLinetypeTableRecord
  2
ByLayer
 70
     0
  3

 72
    65
 73
     0
 40
0.0
  0
LTYPE
  5
16
330
5
100
AcDbSymbolTableRecord
100
AcDbLinetypeTableRecord
  2
Continuous
 70
     0
  3
Solid line
 72
    65
 73
     0
 40
0.0
  0
ENDTAB
  0
TABLE
  2
LAYER
  5
2
330
0
100
AcDbSymbolTable
 70
     5
  0
LAYER
  5
10
330
2
100
AcDbSymbolTableRecord
100
AcDbLayerTableRecord
  2
0
 70
     0
 62
     7
  6
Continuous
370
    -3
390
F
347
0
  0
LAYER
  5
256
330
2
100
AcDbSymbolTableRecord
100
AcDbLayerTableRecord
  2
ACESSORIO
 70
     0
 62
   107
  6
Continuous
370
    -3
390
F
347
0
  0
LAYER
  5
257
330
2
100
AcDbSymbolTableRecord
100
AcDbLayerTableRecord
  2
DT_RENDER
 70
     0
 62
     7
  6
Continuous
370
    -3
390
F
347
0
  0
LAYER
  5
258
330
2
100
AcDbSymbolTableRecord
100
AcDbLayerTableRecord
  2
FUNDO
 70
     0
 62
    -2
  6
Continuous
370
    -3
390
F
347
0
  0
LAYER
  5
28A
330
2
100
AcDbSymbolTableRecord
100
AcDbLayerTableRecord
  2
CHAVE
 70
     0
 62
   160
  6
Continuous
370
    -3
390
F
347
0
  0
ENDTAB
  0
TABLE
  2
STYLE
  5
3
330
0
100
AcDbSymbolTable
 70
     1
  0
STYLE
  5
11
330
3
100
AcDbSymbolTableRecord
100
AcDbTextStyleTableRecord
  2
Standard
 70
     0
 40
0.0
 41
1.0
 50
0.0
 71
     0
 42
0.2
  3
IC-txt.shx
  4

  0
ENDTAB
  0
TABLE
  2
VIEW
  5
6
330
0
100
AcDbSymbolTable
 70
     0
  0
ENDTAB
  0
TABLE
  2
UCS
  5
7
330
0
100
AcDbSymbolTable
 70
     0
  0
ENDTAB
  0
TABLE
  2
APPID
  5
9
330
0
100
AcDbSymbolTable
 70
     4
  0
APPID
  5
12
330
9
100
AcDbSymbolTableRecord
100
AcDbRegAppTableRecord
  2
ACAD
 70
     0
  0
APPID
  5
61C
330
9
100
AcDbSymbolTableRecord
100
AcDbRegAppTableRecord
  2
DTRENDER2
 70
     0
  0
APPID
  5
61D
330
9
100
AcDbSymbolTableRecord
100
AcDbRegAppTableRecord
  2
DT_MAT_ASSIGN
 70
     0
  0
APPID
  5
61E
330
9
100
AcDbSymbolTableRecord
100
AcDbRegAppTableRecord
  2
DT_MAT_MAPPING
 70
     0
  0
ENDTAB
  0
TABLE
  2
DIMSTYLE
  5
A
330
0
100
AcDbSymbolTable
 70
     1
100
AcDbDimStyleTable
  0
DIMSTYLE
105
27
330
A
100
AcDbSymbolTableRecord
100
AcDbDimStyleTableRecord
  2
Standard
 70
     0
340
11
  0
ENDTAB
  0
TABLE
  2
BLOCK_RECORD
  5
1
330
0
100
AcDbSymbolTable
 70
     6
  0
BLOCK_RECORD
  5
1F
330
1
100
AcDbSymbolTableRecord
100
AcDbBlockTableRecord
  2
*Model_Space
340
22
 70
     0
280
     1
281
     0
  0
BLOCK_RECORD
  5
73
330
1
100
AcDbSymbolTableRecord
100
AcDbBlockTableRecord
  2
*Paper_Space
340
74
 70
     0
280
     1
281
     0
  0
BLOCK_RECORD
  5
262
330
1
100
AcDbSymbolTableRecord
100
AcDbBlockTableRecord
  2
DT_LIGHT
340
0
 70
     0
280
     1
281
     0
  0
BLOCK_RECORD
  5
264
330
1
100
AcDbSymbolTableRecord
100
AcDbBlockTableRecord
  2
DT_MATERIAL
340
0
102
{BLKREFS
331
123
102
}
 70
     0
280
     1
281
     0
  0
BLOCK_RECORD
  5
266
330
1
100
AcDbSymbolTableRecord
100
AcDbBlockTableRecord
  2
DT_COLOR
340
0
 70
     0
280
     1
281
     0
  0
BLOCK_RECORD
  5
268
330
1
100
AcDbSymbolTableRecord
100
AcDbBlockTableRecord
  2
DT_FLOOR
340
0
 70
     0
280
     1
281
     0
  0
BLOCK_RECORD
  5
26A
330
1
100
AcDbSymbolTableRecord
100
AcDbBlockTableRecord
  2
DT_OPTIONS
340
0
 70
     0
280
     1
281
     0
  0
BLOCK_RECORD
  5
26C
330
1
100
AcDbSymbolTableRecord
100
AcDbBlockTableRecord
  2
DT_BACKGROUND
340
0
 70
     0
280
     1
281
     0
  0
ENDTAB
  0
ENDSEC
  0
SECTION
  2
BLOCKS
  0
BLOCK
  5
20
330
1F
100
AcDbEntity
  8
0
100
AcDbBlockBegin
  2
*Model_Space
 70
     0
 71
     0
 10
0.0
 20
0.0
 30
0.0
  3
*Model_Space
  1

  0
ENDBLK
  5
21
330
1F
100
AcDbEntity
  8
0
100
AcDbBlockEnd
  0
BLOCK
  5
75
330
73
100
AcDbEntity
 67
     1
  8
0
100
AcDbBlockBegin
  2
*Paper_Space
 70
     0
 71
     0
 10
0.0
 20
0.0
 30
0.0
  3
*Paper_Space
  1

  0
ENDBLK
  5
76
330
73
100
AcDbEntity
 67
     1
  8
0
100
AcDbBlockEnd
  0
BLOCK
  5
621
330
262
100
AcDbEntity
  8
0
100
AcDbBlockBegin
  2
DT_LIGHT
 70
     0
 71
     0
 10
0.0
 20
0.0
 30
0.0
  3
DT_LIGHT
  1

  0
ENDBLK
  5
622
330
262
100
AcDbEntity
  8
0
100
AcDbBlockEnd
  0
BLOCK
  5
623
330
264
100
AcDbEntity
  8
0
100
AcDbBlockBegin
  2
DT_MATERIAL
 70
     0
 71
     0
 10
0.0
 20
0.0
 30
0.0
  3
DT_MATERIAL
  1

  0
ENDBLK
  5
624
330
264
100
AcDbEntity
  8
0
100
AcDbBlockEnd
  0
BLOCK
  5
625
330
266
100
AcDbEntity
  8
0
100
AcDbBlockBegin
  2
DT_COLOR
 70
     0
 71
     0
 10
0.0
 20
0.0
 30
0.0
  3
DT_COLOR
  1

  0
ENDBLK
  5
626
330
266
100
AcDbEntity
  8
0
100
AcDbBlockEnd
  0
BLOCK
  5
627
330
268
100
AcDbEntity
  8
0
100
AcDbBlockBegin
  2
DT_FLOOR
 70
     0
 71
     0
 10
0.0
 20
0.0
 30
0.0
  3
DT_FLOOR
  1

  0
ENDBLK
  5
628
330
268
100
AcDbEntity
  8
0
100
AcDbBlockEnd
  0
BLOCK
  5
629
330
26A
100
AcDbEntity
  8
0
100
AcDbBlockBegin
  2
DT_OPTIONS
 70
     0
 71
     0
 10
0.0
 20
0.0
 30
0.0
  3
DT_OPTIONS
  1

  0
ENDBLK
  5
62A
330
26A
100
AcDbEntity
  8
0
100
AcDbBlockEnd
  0
BLOCK
  5
62B
330
26C
100
AcDbEntity
  8
0
100
AcDbBlockBegin
  2
DT_BACKGROUND
 70
     0
 71
     0
 10
0.0
 20
0.0
 30
0.0
  3
DT_BACKGROUND
  1

  0
ENDBLK
  5
62C
330
26C
100
AcDbEntity
  8
0
100
AcDbBlockEnd
  0
ENDSEC
  0
SECTION
  2
ENTITIES
  0
POLYLINE
  5
EC
330
1F
100
AcDbEntity
  8
ACESSORIO
100
AcDbPolygonMesh
 66
     1
 10
0.0
 20
0.0
 30
0.0
 70
    48
 71
     2
 72
    15
  0
VERTEX
  5
ED
330
EC
100
AcDbEntity
  8
ACESSORIO
100
AcDbVertex
100
AcDbPolygonMeshVertex
 10
2.0
 20
17.0
 30
5.0
 70
    64
  0
VERTEX
  5
EE
330
EC
100
AcDbEntity
  8
ACESSORIO
100
AcDbVertex
100
AcDbPolygonMeshVertex
 10
1.827090915285202
 20
17.0
 30
5.8134732861516
 70
    64
  0
VERTEX
  5
EF
330
EC
100
AcDbEntity
  8
ACESSORIO
100
AcDbVertex
100
AcDbPolygonMeshVertex
 10
1.338261212717717
 20
17.0
 30
6.486289650954788
 70
    64
  0
VERTEX
  5
F0
330
EC
100
AcDbEntity
  8
ACESSORIO
100
AcDbVertex
100
AcDbPolygonMeshVertex
 10
0.6180339887498953
 20
17.0
 30
6.902113032590307
 70
    64
  0
VERTEX
  5
F1
330
EC
100
AcDbEntity
  8
ACESSORIO
100
AcDbVertex
100
AcDbPolygonMeshVertex
 10
-0.2090569265353062
 20
17.0
 30
6.989043790736547
 70
    64
  0
VERTEX
  5
F2
330
EC
100
AcDbEntity
  8
ACESSORIO
100
AcDbVertex
100
AcDbPolygonMeshVertex
 10
-0.9999999999999991
 20
17.0
 30
6.732050807568878
 70
    64
  0
VERTEX
  5
F3
330
EC
100
AcDbEntity
  8
ACESSORIO
100
AcDbVertex
100
AcDbPolygonMeshVertex
 10
-1.618033988749894
 20
17.0
 30
6.175570504584947
 70
    64
  0
VERTEX
  5
F4
330
EC
100
AcDbEntity
  8
ACESSORIO
100
AcDbVertex
100
AcDbPolygonMeshVertex
 10
-1.956295201467611
 20
17.0
 30
5.415823381635518
 70
    64
  0
VERTEX
  5
F5
330
EC
100
AcDbEntity
  8
ACESSORIO
100
AcDbVertex
100
AcDbPolygonMeshVertex
 10
-1.956295201467611
 20
17.0
 30
4.584176618364481
 70
    64
  0
VERTEX
  5
F6
330
EC
100
AcDbEntity
  8
ACESSORIO
100
AcDbVertex
100
AcDbPolygonMeshVertex
 10
-1.618033988749894
 20
17.0
 30
3.824429495415053
 70
    64
  0
VERTEX
  5
F7
330
EC
100
AcDbEntity
  8
ACESSORIO
100
AcDbVertex
100
AcDbPolygonMeshVertex
 10
-0.9999999999999986
 20
17.0
 30
3.267949192431122
 70
    64
  0
VERTEX
  5
F8
330
EC
100
AcDbEntity
  8
ACESSORIO
100
AcDbVertex
100
AcDbPolygonMeshVertex
 10
-0.209056926535306
 20
17.0
 30
3.010956209263453
 70
    64
  0
VERTEX
  5
F9
330
EC
100
AcDbEntity
  8
ACESSORIO
100
AcDbVertex
100
AcDbPolygonMeshVertex
 10
0.6180339887498951
 20
17.0
 30
3.097886967409693
 70
    64
  0
VERTEX
  5
FA
330
EC
100
AcDbEntity
  8
ACESSORIO
100
AcDbVertex
100
AcDbPolygonMeshVertex
 10
1.338261212717716
 20
17.0
 30
3.513710349045211
 70
    64
  0
VERTEX
  5
FB
330
EC
100
AcDbEntity
  8
ACESSORIO
100
AcDbVertex
100
AcDbPolygonMeshVertex
 10
1.827090915285202
 20
17.0
 30
4.186526713848398
 70
    64
  0
VERTEX
  5
FC
330
EC
100
AcDbEntity
  8
ACESSORIO
100
AcDbVertex
100
AcDbPolygonMeshVertex
 10
2.0
 20
37.0
 30
5.0
 70
    64
  0
VERTEX
  5
FD
330
EC
100
AcDbEntity
  8
ACESSORIO
100
AcDbVertex
100
AcDbPolygonMeshVertex
 10
1.827090915285202
 20
37.0
 30
5.8134732861516
 70
    64
  0
VERTEX
  5
FE
330
EC
100
AcDbEntity
  8
ACESSORIO
100
AcDbVertex
100
AcDbPolygonMeshVertex
 10
1.338261212717717
 20
37.0
 30
6.486289650954788
 70
    64
  0
VERTEX
  5
FF
330
EC
100
AcDbEntity
  8
ACESSORIO
100
AcDbVertex
100
AcDbPolygonMeshVertex
 10
0.6180339887498953
 20
37.0
 30
6.902113032590307
 70
    64
  0
VERTEX
  5
100
330
EC
100
AcDbEntity
  8
ACESSORIO
100
AcDbVertex
100
AcDbPolygonMeshVertex
 10
-0.2090569265353062
 20
37.0
 30
6.989043790736547
 70
    64
  0
VERTEX
  5
101
330
EC
100
AcDbEntity
  8
ACESSORIO
100
AcDbVertex
100
AcDbPolygonMeshVertex
 10
-0.9999999999999991
 20
37.0
 30
6.732050807568878
 70
    64
  0
VERTEX
  5
102
330
EC
100
AcDbEntity
  8
ACESSORIO
100
AcDbVertex
100
AcDbPolygonMeshVertex
 10
-1.618033988749894
 20
37.0
 30
6.175570504584947
 70
    64
  0
VERTEX
  5
103
330
EC
100
AcDbEntity
  8
ACESSORIO
100
AcDbVertex
100
AcDbPolygonMeshVertex
 10
-1.956295201467611
 20
37.0
 30
5.415823381635518
 70
    64
  0
VERTEX
  5
104
330
EC
100
AcDbEntity
  8
ACESSORIO
100
AcDbVertex
100
AcDbPolygonMeshVertex
 10
-1.956295201467611
 20
37.0
 30
4.584176618364481
 70
    64
  0
VERTEX
  5
105
330
EC
100
AcDbEntity
  8
ACESSORIO
100
AcDbVertex
100
AcDbPolygonMeshVertex
 10
-1.618033988749894
 20
37.0
 30
3.824429495415053
 70
    64
  0
VERTEX
  5
106
330
EC
100
AcDbEntity
  8
ACESSORIO
100
AcDbVertex
100
AcDbPolygonMeshVertex
 10
-0.9999999999999986
 20
37.0
 30
3.267949192431122
 70
    64
  0
VERTEX
  5
107
330
EC
100
AcDbEntity
  8
ACESSORIO
100
AcDbVertex
100
AcDbPolygonMeshVertex
 10
-0.209056926535306
 20
37.0
 30
3.010956209263453
 70
    64
  0
VERTEX
  5
108
330
EC
100
AcDbEntity
  8
ACESSORIO
100
AcDbVertex
100
AcDbPolygonMeshVertex
 10
0.6180339887498951
 20
37.0
 30
3.097886967409693
 70
    64
  0
VERTEX
  5
109
330
EC
100
AcDbEntity
  8
ACESSORIO
100
AcDbVertex
100
AcDbPolygonMeshVertex
 10
1.338261212717716
 20
37.0
 30
3.513710349045211
 70
    64
  0
VERTEX
  5
10A
330
EC
100
AcDbEntity
  8
ACESSORIO
100
AcDbVertex
100
AcDbPolygonMeshVertex
 10
1.827090915285202
 20
37.0
 30
4.186526713848398
 70
    64
  0
SEQEND
  5
62D
330
EC
100
AcDbEntity
  8
ACESSORIO
  0
INSERT
  5
123
330
1F
100
AcDbEntity
  8
DT_RENDER
100
AcDbBlockReference
  2
DT_MATERIAL
 10
0.0
 20
0.0
 30
0.0
1001
DTRENDER2
1000
MATERIAL
1071
   200501
1040
0.25
1040
0.5
1040
0.0
1040
0.8
1040
80.0
1040
0.0
1071
        1
1000
DEFAULT
1071
       16
1000

1040
0.0
1040
0.0
1040
0.0
1040
1.0
1040
1.0
1040
1.0
1040
0.0
1071
 16777215
1040
1.0
1071
 16777215
1040
1.0
1071
 16777215
1040
1.0
1071
 16777215
1040
1.0
1071
 16777215
1040
2.187
1040
0.5
1071
        3
1040
2.5
  0
LINE
  5
124
330
1F
100
AcDbEntity
  8
ACESSORIO
100
AcDbLine
 10
10.0
 20
18.0
 30
0.0
 11
-10.0
 21
18.0
 31
0.0000000000000012
210
0.0
220
-1.0
230
0.0
  0
LINE
  5
129
330
1F
100
AcDbEntity
  8
ACESSORIO
100
AcDbLine
 10
10.0
 20
18.0
 30
0.0000000000000027
 11
-10.0
 21
18.0
 31
0.000000000000004
210
0.0
220
-1.0
230
0.0
  0
3DFACE
  5
192
330
1F
100
AcDbEntity
  8
FUNDO
100
AcDbFace
 10
-2.5
 20
-1.0
 30
5.0
 11
-2.500000000000002
 21
-1.0
 31
-5.0
 12
2.499999999999998
 22
-1.0
 32
-5.0
 13
2.5
 23
-1.0
 33
5.0
  0
POLYLINE
  5
193
330
1F
100
AcDbEntity
  8
ACESSORIO
100
AcDbPolygonMesh
 66
     1
 10
0.0
 20
0.0
 30
0.0
 70
    16
 71
     2
 72
    16
  0
VERTEX
  5
194
330
193
100
AcDbEntity
  8
ACESSORIO
100
AcDbVertex
100
AcDbPolygonMeshVertex
 10
-9.999999999999996
 20
0.0
 30
0.0000000000000127
 70
    64
  0
VERTEX
  5
195
330
193
100
AcDbEntity
  8
ACESSORIO
100
AcDbVertex
100
AcDbPolygonMeshVertex
 10
-9.781476007338053
 20
0.0
 30
2.079116908177604
 70
    64
  0
VERTEX
  5
196
330
193
100
AcDbEntity
  8
ACESSORIO
100
AcDbVertex
100
AcDbPolygonMeshVertex
 10
-9.135454576426005
 20
0.0
 30
4.067366430758014
 70
    64
  0
VERTEX
  5
197
330
193
100
AcDbEntity
  8
ACESSORIO
100
AcDbVertex
100
AcDbPolygonMeshVertex
 10
-8.090169943749471
 20
0.0
 30
5.877852522924743
 70
    64
  0
VERTEX
  5
198
330
193
100
AcDbEntity
  8
ACESSORIO
100
AcDbVertex
100
AcDbPolygonMeshVertex
 10
-6.691306063588577
 20
0.0
 30
7.431448254773955
 70
    64
  0
VERTEX
  5
199
330
193
100
AcDbEntity
  8
ACESSORIO
100
AcDbVertex
100
AcDbPolygonMeshVertex
 10
-4.999999999999994
 20
0.0
 30
8.6602540378444
 70
    64
  0
VERTEX
  5
19A
330
193
100
AcDbEntity
  8
ACESSORIO
100
AcDbVertex
100
AcDbPolygonMeshVertex
 10
-3.090169943749467
 20
0.0
 30
9.510565162951549
 70
    64
  0
VERTEX
  5
19B
330
193
100
AcDbEntity
  8
ACESSORIO
100
AcDbVertex
100
AcDbPolygonMeshVertex
 10
-1.045284632676526
 20
0.0
 30
9.945218953682746
 70
    64
  0
VERTEX
  5
19C
330
193
100
AcDbEntity
  8
ACESSORIO
100
AcDbVertex
100
AcDbPolygonMeshVertex
 10
1.045284632676544
 20
0.0
 30
9.945218953682744
 70
    64
  0
VERTEX
  5
19D
330
193
100
AcDbEntity
  8
ACESSORIO
100
AcDbVertex
100
AcDbPolygonMeshVertex
 10
3.090169943749483
 20
0.0
 30
9.510565162951547
 70
    64
  0
VERTEX
  5
19E
330
193
100
AcDbEntity
  8
ACESSORIO
100
AcDbVertex
100
AcDbPolygonMeshVertex
 10
5.000000000000008
 20
0.0
 30
8.660254037844396
 70
    64
  0
VERTEX
  5
19F
330
193
100
AcDbEntity
  8
ACESSORIO
100
AcDbVertex
100
AcDbPolygonMeshVertex
 10
6.691306063588589
 20
0.0
 30
7.431448254773952
 70
    64
  0
VERTEX
  5
1A0
330
193
100
AcDbEntity
  8
ACESSORIO
100
AcDbVertex
100
AcDbPolygonMeshVertex
 10
8.09016994374948
 20
0.0
 30
5.877852522924741
 70
    64
  0
VERTEX
  5
1A1
330
193
100
AcDbEntity
  8
ACESSORIO
100
AcDbVertex
100
AcDbPolygonMeshVertex
 10
9.135454576426014
 20
0.0
 30
4.06736643075801
 70
    64
  0
VERTEX
  5
1A2
330
193
100
AcDbEntity
  8
ACESSORIO
100
AcDbVertex
100
AcDbPolygonMeshVertex
 10
9.78147600733806
 20
0.0
 30
2.079116908177602
 70
    64
  0
VERTEX
  5
1A3
330
193
100
AcDbEntity
  8
ACESSORIO
100
AcDbVertex
100
AcDbPolygonMeshVertex
 10
10.0
 20
0.0
 30
0.0000000000000091
 70
    64
  0
VERTEX
  5
1A4
330
193
100
AcDbEntity
  8
ACESSORIO
100
AcDbVertex
100
AcDbPolygonMeshVertex
 10
-10.0
 20
18.0
 30
0.0000000000000012
 70
    64
  0
VERTEX
  5
1A5
330
193
100
AcDbEntity
  8
ACESSORIO
100
AcDbVertex
100
AcDbPolygonMeshVertex
 10
-9.781476007338057
 20
18.0
 30
2.079116908177592
 70
    64
  0
VERTEX
  5
1A6
330
193
100
AcDbEntity
  8
ACESSORIO
100
AcDbVertex
100
AcDbPolygonMeshVertex
 10
-9.135454576426008
 20
18.0
 30
4.067366430758002
 70
    64
  0
VERTEX
  5
1A7
330
193
100
AcDbEntity
  8
ACESSORIO
100
AcDbVertex
100
AcDbPolygonMeshVertex
 10
-8.090169943749475
 20
18.0
 30
5.877852522924732
 70
    64
  0
VERTEX
  5
1A8
330
193
100
AcDbEntity
  8
ACESSORIO
100
AcDbVertex
100
AcDbPolygonMeshVertex
 10
-6.691306063588581
 20
18.0
 30
7.431448254773944
 70
    64
  0
VERTEX
  5
1A9
330
193
100
AcDbEntity
  8
ACESSORIO
100
AcDbVertex
100
AcDbPolygonMeshVertex
 10
-4.999999999999997
 20
18.0
 30
8.660254037844387
 70
    64
  0
VERTEX
  5
1AA
330
193
100
AcDbEntity
  8
ACESSORIO
100
AcDbVertex
100
AcDbPolygonMeshVertex
 10
-3.090169943749471
 20
18.0
 30
9.510565162951538
 70
    64
  0
VERTEX
  5
1AB
330
193
100
AcDbEntity
  8
ACESSORIO
100
AcDbVertex
100
AcDbPolygonMeshVertex
 10
-1.04528463267653
 20
18.0
 30
9.945218953682735
 70
    64
  0
VERTEX
  5
1AC
330
193
100
AcDbEntity
  8
ACESSORIO
100
AcDbVertex
100
AcDbPolygonMeshVertex
 10
1.045284632676541
 20
18.0
 30
9.945218953682733
 70
    64
  0
VERTEX
  5
1AD
330
193
100
AcDbEntity
  8
ACESSORIO
100
AcDbVertex
100
AcDbPolygonMeshVertex
 10
3.090169943749479
 20
18.0
 30
9.510565162951535
 70
    64
  0
VERTEX
  5
1AE
330
193
100
AcDbEntity
  8
ACESSORIO
100
AcDbVertex
100
AcDbPolygonMeshVertex
 10
5.000000000000004
 20
18.0
 30
8.660254037844386
 70
    64
  0
VERTEX
  5
1AF
330
193
100
AcDbEntity
  8
ACESSORIO
100
AcDbVertex
100
AcDbPolygonMeshVertex
 10
6.691306063588585
 20
18.0
 30
7.43144825477394
 70
    64
  0
VERTEX
  5
1B0
330
193
100
AcDbEntity
  8
ACESSORIO
100
AcDbVertex
100
AcDbPolygonMeshVertex
 10
8.090169943749476
 20
18.0
 30
5.877852522924729
 70
    64
  0
VERTEX
  5
1B1
330
193
100
AcDbEntity
  8
ACESSORIO
100
AcDbVertex
100
AcDbPolygonMeshVertex
 10
9.13545457642601
 20
18.0
 30
4.067366430758
 70
    64
  0
VERTEX
  5
1B2
330
193
100
AcDbEntity
  8
ACESSORIO
100
AcDbVertex
100
AcDbPolygonMeshVertex
 10
9.781476007338057
 20
18.0
 30
2.079116908177591
 70
    64
  0
VERTEX
  5
1B3
330
193
100
AcDbEntity
  8
ACESSORIO
100
AcDbVertex
100
AcDbPolygonMeshVertex
 10
10.0
 20
18.0
 30
-0.0000000000000024
 70
    64
  0
SEQEND
  5
62E
330
193
100
AcDbEntity
  8
ACESSORIO
  0
POLYLINE
  5
1B5
330
1F
100
AcDbEntity
  8
ACESSORIO
100
AcDbPolygonMesh
 66
     1
 10
0.0
 20
0.0
 30
0.0
 70
    16
 71
     2
 72
    16
  0
VERTEX
  5
1B6
330
1B5
100
AcDbEntity
  8
ACESSORIO
100
AcDbVertex
100
AcDbPolygonMeshVertex
 10
-9.999999999999996
 20
18.0
 30
0.000000000000019
 70
    64
  0
VERTEX
  5
1B7
330
1B5
100
AcDbEntity
  8
ACESSORIO
100
AcDbVertex
100
AcDbPolygonMeshVertex
 10
-9.781476007338055
 20
18.0
 30
-2.079116908177575
 70
    64
  0
VERTEX
  5
1B8
330
1B5
100
AcDbEntity
  8
ACESSORIO
100
AcDbVertex
100
AcDbPolygonMeshVertex
 10
-9.135454576426008
 20
18.0
 30
-4.067366430757985
 70
    64
  0
VERTEX
  5
1B9
330
1B5
100
AcDbEntity
  8
ACESSORIO
100
AcDbVertex
100
AcDbPolygonMeshVertex
 10
-8.090169943749476
 20
18.0
 30
-5.877852522924716
 70
    64
  0
VERTEX
  5
1BA
330
1B5
100
AcDbEntity
  8
ACESSORIO
100
AcDbVertex
100
AcDbPolygonMeshVertex
 10
-6.691306063588584
 20
18.0
 30
-7.431448254773928
 70
    64
  0
VERTEX
  5
1BB
330
1B5
100
AcDbEntity
  8
ACESSORIO
100
AcDbVertex
100
AcDbPolygonMeshVertex
 10
-5.000000000000002
 20
18.0
 30
-8.660254037844375
 70
    64
  0
VERTEX
  5
1BC
330
1B5
100
AcDbEntity
  8
ACESSORIO
100
AcDbVertex
100
AcDbPolygonMeshVertex
 10
-3.090169943749475
 20
18.0
 30
-9.510565162951524
 70
    64
  0
VERTEX
  5
1BD
330
1B5
100
AcDbEntity
  8
ACESSORIO
100
AcDbVertex
100
AcDbPolygonMeshVertex
 10
-1.045284632676535
 20
18.0
 30
-9.945218953682723
 70
    64
  0
VERTEX
  5
1BE
330
1B5
100
AcDbEntity
  8
ACESSORIO
100
AcDbVertex
100
AcDbPolygonMeshVertex
 10
1.045284632676534
 20
18.0
 30
-9.945218953682724
 70
    64
  0
VERTEX
  5
1BF
330
1B5
100
AcDbEntity
  8
ACESSORIO
100
AcDbVertex
100
AcDbPolygonMeshVertex
 10
3.090169943749475
 20
18.0
 30
-9.510565162951526
 70
    64
  0
VERTEX
  5
1C0
330
1B5
100
AcDbEntity
  8
ACESSORIO
100
AcDbVertex
100
AcDbPolygonMeshVertex
 10
5.000000000000001
 20
18.0
 30
-8.660254037844377
 70
    64
  0
VERTEX
  5
1C1
330
1B5
100
AcDbEntity
  8
ACESSORIO
100
AcDbVertex
100
AcDbPolygonMeshVertex
 10
6.691306063588584
 20
18.0
 30
-7.431448254773931
 70
    64
  0
VERTEX
  5
1C2
330
1B5
100
AcDbEntity
  8
ACESSORIO
100
AcDbVertex
100
AcDbPolygonMeshVertex
 10
8.090169943749476
 20
18.0
 30
-5.877852522924719
 70
    64
  0
VERTEX
  5
1C3
330
1B5
100
AcDbEntity
  8
ACESSORIO
100
AcDbVertex
100
AcDbPolygonMeshVertex
 10
9.13545457642601
 20
18.0
 30
-4.067366430757988
 70
    64
  0
VERTEX
  5
1C4
330
1B5
100
AcDbEntity
  8
ACESSORIO
100
AcDbVertex
100
AcDbPolygonMeshVertex
 10
9.781476007338057
 20
18.0
 30
-2.079116908177578
 70
    64
  0
VERTEX
  5
1C5
330
1B5
100
AcDbEntity
  8
ACESSORIO
100
AcDbVertex
100
AcDbPolygonMeshVertex
 10
10.0
 20
18.0
 30
-0.0000000000000024
 70
    64
  0
VERTEX
  5
1C6
330
1B5
100
AcDbEntity
  8
ACESSORIO
100
AcDbVertex
100
AcDbPolygonMeshVertex
 10
-9.999999999999996
 20
0.0
 30
0.000000000000019
 70
    64
  0
VERTEX
  5
1C7
330
1B5
100
AcDbEntity
  8
ACESSORIO
100
AcDbVertex
100
AcDbPolygonMeshVertex
 10
-9.781476007338055
 20
0.0
 30
-2.079116908177575
 70
    64
  0
VERTEX
  5
1C8
330
1B5
100
AcDbEntity
  8
ACESSORIO
100
AcDbVertex
100
AcDbPolygonMeshVertex
 10
-9.135454576426008
 20
0.0
 30
-4.067366430757985
 70
    64
  0
VERTEX
  5
1C9
330
1B5
100
AcDbEntity
  8
ACESSORIO
100
AcDbVertex
100
AcDbPolygonMeshVertex
 10
-8.090169943749476
 20
0.0
 30
-5.877852522924716
 70
    64
  0
VERTEX
  5
1CA
330
1B5
100
AcDbEntity
  8
ACESSORIO
100
AcDbVertex
100
AcDbPolygonMeshVertex
 10
-6.691306063588584
 20
0.0
 30
-7.431448254773928
 70
    64
  0
VERTEX
  5
1CB
330
1B5
100
AcDbEntity
  8
ACESSORIO
100
AcDbVertex
100
AcDbPolygonMeshVertex
 10
-5.000000000000002
 20
0.0
 30
-8.660254037844375
 70
    64
  0
VERTEX
  5
1CC
330
1B5
100
AcDbEntity
  8
ACESSORIO
100
AcDbVertex
100
AcDbPolygonMeshVertex
 10
-3.090169943749475
 20
0.0
 30
-9.510565162951524
 70
    64
  0
VERTEX
  5
1CD
330
1B5
100
AcDbEntity
  8
ACESSORIO
100
AcDbVertex
100
AcDbPolygonMeshVertex
 10
-1.045284632676535
 20
0.0
 30
-9.945218953682723
 70
    64
  0
VERTEX
  5
1CE
330
1B5
100
AcDbEntity
  8
ACESSORIO
100
AcDbVertex
100
AcDbPolygonMeshVertex
 10
1.045284632676534
 20
0.0
 30
-9.945218953682724
 70
    64
  0
VERTEX
  5
1CF
330
1B5
100
AcDbEntity
  8
ACESSORIO
100
AcDbVertex
100
AcDbPolygonMeshVertex
 10
3.090169943749475
 20
0.0
 30
-9.510565162951526
 70
    64
  0
VERTEX
  5
1D0
330
1B5
100
AcDbEntity
  8
ACESSORIO
100
AcDbVertex
100
AcDbPolygonMeshVertex
 10
5.000000000000001
 20
0.0
 30
-8.660254037844377
 70
    64
  0
VERTEX
  5
1D1
330
1B5
100
AcDbEntity
  8
ACESSORIO
100
AcDbVertex
100
AcDbPolygonMeshVertex
 10
6.691306063588584
 20
0.0
 30
-7.431448254773931
 70
    64
  0
VERTEX
  5
1D2
330
1B5
100
AcDbEntity
  8
ACESSORIO
100
AcDbVertex
100
AcDbPolygonMeshVertex
 10
8.090169943749476
 20
0.0
 30
-5.877852522924719
 70
    64
  0
VERTEX
  5
1D3
330
1B5
100
AcDbEntity
  8
ACESSORIO
100
AcDbVertex
100
AcDbPolygonMeshVertex
 10
9.13545457642601
 20
0.0
 30
-4.067366430757988
 70
    64
  0
VERTEX
  5
1D4
330
1B5
100
AcDbEntity
  8
ACESSORIO
100
AcDbVertex
100
AcDbPolygonMeshVertex
 10
9.781476007338057
 20
0.0
 30
-2.079116908177578
 70
    64
  0
VERTEX
  5
1D5
330
1B5
100
AcDbEntity
  8
ACESSORIO
100
AcDbVertex
100
AcDbPolygonMeshVertex
 10
10.0
 20
0.0
 30
-0.0000000000000024
 70
    64
  0
SEQEND
  5
62F
330
1B5
100
AcDbEntity
  8
ACESSORIO
  0
POLYLINE
  5
1D7
330
1F
100
AcDbEntity
  8
ACESSORIO
100
AcDbPolygonMesh
 66
     1
 10
0.0
 20
0.0
 30
0.0
 70
    16
 71
     2
 72
    16
  0
VERTEX
  5
1D8
330
1D7
100
AcDbEntity
  8
ACESSORIO
100
AcDbVertex
100
AcDbPolygonMeshVertex
 10
-9.999999999999996
 20
0.0
 30
0.0000000000000127
 70
    64
  0
VERTEX
  5
1D9
330
1D7
100
AcDbEntity
  8
ACESSORIO
100
AcDbVertex
100
AcDbPolygonMeshVertex
 10
-9.781476007338053
 20
0.0
 30
2.079116908177604
 70
    64
  0
VERTEX
  5
1DA
330
1D7
100
AcDbEntity
  8
ACESSORIO
100
AcDbVertex
100
AcDbPolygonMeshVertex
 10
-9.135454576426005
 20
0.0
 30
4.067366430758014
 70
    64
  0
VERTEX
  5
1DB
330
1D7
100
AcDbEntity
  8
ACESSORIO
100
AcDbVertex
100
AcDbPolygonMeshVertex
 10
-8.090169943749471
 20
0.0
 30
5.877852522924743
 70
    64
  0
VERTEX
  5
1DC
330
1D7
100
AcDbEntity
  8
ACESSORIO
100
AcDbVertex
100
AcDbPolygonMeshVertex
 10
-6.691306063588577
 20
0.0
 30
7.431448254773955
 70
    64
  0
VERTEX
  5
1DD
330
1D7
100
AcDbEntity
  8
ACESSORIO
100
AcDbVertex
100
AcDbPolygonMeshVertex
 10
-4.999999999999994
 20
0.0
 30
8.6602540378444
 70
    64
  0
VERTEX
  5
1DE
330
1D7
100
AcDbEntity
  8
ACESSORIO
100
AcDbVertex
100
AcDbPolygonMeshVertex
 10
-3.090169943749467
 20
0.0
 30
9.510565162951549
 70
    64
  0
VERTEX
  5
1DF
330
1D7
100
AcDbEntity
  8
ACESSORIO
100
AcDbVertex
100
AcDbPolygonMeshVertex
 10
-1.045284632676526
 20
0.0
 30
9.945218953682746
 70
    64
  0
VERTEX
  5
1E0
330
1D7
100
AcDbEntity
  8
ACESSORIO
100
AcDbVertex
100
AcDbPolygonMeshVertex
 10
1.045284632676544
 20
0.0
 30
9.945218953682744
 70
    64
  0
VERTEX
  5
1E1
330
1D7
100
AcDbEntity
  8
ACESSORIO
100
AcDbVertex
100
AcDbPolygonMeshVertex
 10
3.090169943749483
 20
0.0
 30
9.510565162951547
 70
    64
  0
VERTEX
  5
1E2
330
1D7
100
AcDbEntity
  8
ACESSORIO
100
AcDbVertex
100
AcDbPolygonMeshVertex
 10
5.000000000000008
 20
0.0
 30
8.660254037844396
 70
    64
  0
VERTEX
  5
1E3
330
1D7
100
AcDbEntity
  8
ACESSORIO
100
AcDbVertex
100
AcDbPolygonMeshVertex
 10
6.691306063588589
 20
0.0
 30
7.431448254773952
 70
    64
  0
VERTEX
  5
1E4
330
1D7
100
AcDbEntity
  8
ACESSORIO
100
AcDbVertex
100
AcDbPolygonMeshVertex
 10
8.09016994374948
 20
0.0
 30
5.877852522924741
 70
    64
  0
VERTEX
  5
1E5
330
1D7
100
AcDbEntity
  8
ACESSORIO
100
AcDbVertex
100
AcDbPolygonMeshVertex
 10
9.135454576426014
 20
0.0
 30
4.06736643075801
 70
    64
  0
VERTEX
  5
1E6
330
1D7
100
AcDbEntity
  8
ACESSORIO
100
AcDbVertex
100
AcDbPolygonMeshVertex
 10
9.78147600733806
 20
0.0
 30
2.079116908177602
 70
    64
  0
VERTEX
  5
1E7
330
1D7
100
AcDbEntity
  8
ACESSORIO
100
AcDbVertex
100
AcDbPolygonMeshVertex
 10
10.0
 20
0.0
 30
0.0000000000000091
 70
    64
  0
VERTEX
  5
1E8
330
1D7
100
AcDbEntity
  8
ACESSORIO
100
AcDbVertex
100
AcDbPolygonMeshVertex
 10
-9.999999999999996
 20
0.0
 30
0.000000000000019
 70
    64
  0
VERTEX
  5
1E9
330
1D7
100
AcDbEntity
  8
ACESSORIO
100
AcDbVertex
100
AcDbPolygonMeshVertex
 10
-9.781476007338055
 20
0.0
 30
-2.079116908177575
 70
    64
  0
VERTEX
  5
1EA
330
1D7
100
AcDbEntity
  8
ACESSORIO
100
AcDbVertex
100
AcDbPolygonMeshVertex
 10
-9.135454576426008
 20
0.0
 30
-4.067366430757985
 70
    64
  0
VERTEX
  5
1EB
330
1D7
100
AcDbEntity
  8
ACESSORIO
100
AcDbVertex
100
AcDbPolygonMeshVertex
 10
-8.090169943749476
 20
0.0
 30
-5.877852522924716
 70
    64
  0
VERTEX
  5
1EC
330
1D7
100
AcDbEntity
  8
ACESSORIO
100
AcDbVertex
100
AcDbPolygonMeshVertex
 10
-6.691306063588584
 20
0.0
 30
-7.431448254773928
 70
    64
  0
VERTEX
  5
1ED
330
1D7
100
AcDbEntity
  8
ACESSORIO
100
AcDbVertex
100
AcDbPolygonMeshVertex
 10
-5.000000000000002
 20
0.0
 30
-8.660254037844375
 70
    64
  0
VERTEX
  5
1EE
330
1D7
100
AcDbEntity
  8
ACESSORIO
100
AcDbVertex
100
AcDbPolygonMeshVertex
 10
-3.090169943749475
 20
0.0
 30
-9.510565162951524
 70
    64
  0
VERTEX
  5
1EF
330
1D7
100
AcDbEntity
  8
ACESSORIO
100
AcDbVertex
100
AcDbPolygonMeshVertex
 10
-1.045284632676535
 20
0.0
 30
-9.945218953682723
 70
    64
  0
VERTEX
  5
1F0
330
1D7
100
AcDbEntity
  8
ACESSORIO
100
AcDbVertex
100
AcDbPolygonMeshVertex
 10
1.045284632676534
 20
0.0
 30
-9.945218953682724
 70
    64
  0
VERTEX
  5
1F1
330
1D7
100
AcDbEntity
  8
ACESSORIO
100
AcDbVertex
100
AcDbPolygonMeshVertex
 10
3.090169943749475
 20
0.0
 30
-9.510565162951526
 70
    64
  0
VERTEX
  5
1F2
330
1D7
100
AcDbEntity
  8
ACESSORIO
100
AcDbVertex
100
AcDbPolygonMeshVertex
 10
5.000000000000001
 20
0.0
 30
-8.660254037844377
 70
    64
  0
VERTEX
  5
1F3
330
1D7
100
AcDbEntity
  8
ACESSORIO
100
AcDbVertex
100
AcDbPolygonMeshVertex
 10
6.691306063588584
 20
0.0
 30
-7.431448254773931
 70
    64
  0
VERTEX
  5
1F4
330
1D7
100
AcDbEntity
  8
ACESSORIO
100
AcDbVertex
100
AcDbPolygonMeshVertex
 10
8.090169943749476
 20
0.0
 30
-5.877852522924719
 70
    64
  0
VERTEX
  5
1F5
330
1D7
100
AcDbEntity
  8
ACESSORIO
100
AcDbVertex
100
AcDbPolygonMeshVertex
 10
9.13545457642601
 20
0.0
 30
-4.067366430757988
 70
    64
  0
VERTEX
  5
1F6
330
1D7
100
AcDbEntity
  8
ACESSORIO
100
AcDbVertex
100
AcDbPolygonMeshVertex
 10
9.781476007338057
 20
0.0
 30
-2.079116908177578
 70
    64
  0
VERTEX
  5
1F7
330
1D7
100
AcDbEntity
  8
ACESSORIO
100
AcDbVertex
100
AcDbPolygonMeshVertex
 10
10.0
 20
0.0
 30
-0.0000000000000024
 70
    64
  0
SEQEND
  5
630
330
1D7
100
AcDbEntity
  8
ACESSORIO
  0
POLYLINE
  5
1F9
330
1F
100
AcDbEntity
  8
ACESSORIO
100
AcDbPolygonMesh
 66
     1
 10
0.0
 20
0.0
 30
0.0
 70
    16
 71
     2
 72
    16
  0
VERTEX
  5
1FA
330
1F9
100
AcDbEntity
  8
ACESSORIO
100
AcDbVertex
100
AcDbPolygonMeshVertex
 10
-9.999999999999996
 20
18.0
 30
0.000000000000019
 70
    64
  0
VERTEX
  5
1FB
330
1F9
100
AcDbEntity
  8
ACESSORIO
100
AcDbVertex
100
AcDbPolygonMeshVertex
 10
-9.781476007338055
 20
18.0
 30
-2.079116908177575
 70
    64
  0
VERTEX
  5
1FC
330
1F9
100
AcDbEntity
  8
ACESSORIO
100
AcDbVertex
100
AcDbPolygonMeshVertex
 10
-9.135454576426008
 20
18.0
 30
-4.067366430757985
 70
    64
  0
VERTEX
  5
1FD
330
1F9
100
AcDbEntity
  8
ACESSORIO
100
AcDbVertex
100
AcDbPolygonMeshVertex
 10
-8.090169943749476
 20
18.0
 30
-5.877852522924716
 70
    64
  0
VERTEX
  5
1FE
330
1F9
100
AcDbEntity
  8
ACESSORIO
100
AcDbVertex
100
AcDbPolygonMeshVertex
 10
-6.691306063588584
 20
18.0
 30
-7.431448254773928
 70
    64
  0
VERTEX
  5
1FF
330
1F9
100
AcDbEntity
  8
ACESSORIO
100
AcDbVertex
100
AcDbPolygonMeshVertex
 10
-5.000000000000002
 20
18.0
 30
-8.660254037844375
 70
    64
  0
VERTEX
  5
200
330
1F9
100
AcDbEntity
  8
ACESSORIO
100
AcDbVertex
100
AcDbPolygonMeshVertex
 10
-3.090169943749475
 20
18.0
 30
-9.510565162951524
 70
    64
  0
VERTEX
  5
201
330
1F9
100
AcDbEntity
  8
ACESSORIO
100
AcDbVertex
100
AcDbPolygonMeshVertex
 10
-1.045284632676535
 20
18.0
 30
-9.945218953682723
 70
    64
  0
VERTEX
  5
202
330
1F9
100
AcDbEntity
  8
ACESSORIO
100
AcDbVertex
100
AcDbPolygonMeshVertex
 10
1.045284632676534
 20
18.0
 30
-9.945218953682724
 70
    64
  0
VERTEX
  5
203
330
1F9
100
AcDbEntity
  8
ACESSORIO
100
AcDbVertex
100
AcDbPolygonMeshVertex
 10
3.090169943749475
 20
18.0
 30
-9.510565162951526
 70
    64
  0
VERTEX
  5
204
330
1F9
100
AcDbEntity
  8
ACESSORIO
100
AcDbVertex
100
AcDbPolygonMeshVertex
 10
5.000000000000001
 20
18.0
 30
-8.660254037844377
 70
    64
  0
VERTEX
  5
205
330
1F9
100
AcDbEntity
  8
ACESSORIO
100
AcDbVertex
100
AcDbPolygonMeshVertex
 10
6.691306063588584
 20
18.0
 30
-7.431448254773931
 70
    64
  0
VERTEX
  5
206
330
1F9
100
AcDbEntity
  8
ACESSORIO
100
AcDbVertex
100
AcDbPolygonMeshVertex
 10
8.090169943749476
 20
18.0
 30
-5.877852522924719
 70
    64
  0
VERTEX
  5
207
330
1F9
100
AcDbEntity
  8
ACESSORIO
100
AcDbVertex
100
AcDbPolygonMeshVertex
 10
9.13545457642601
 20
18.0
 30
-4.067366430757988
 70
    64
  0
VERTEX
  5
208
330
1F9
100
AcDbEntity
  8
ACESSORIO
100
AcDbVertex
100
AcDbPolygonMeshVertex
 10
9.781476007338057
 20
18.0
 30
-2.079116908177578
 70
    64
  0
VERTEX
  5
209
330
1F9
100
AcDbEntity
  8
ACESSORIO
100
AcDbVertex
100
AcDbPolygonMeshVertex
 10
10.0
 20
18.0
 30
-0.0000000000000024
 70
    64
  0
VERTEX
  5
20A
330
1F9
100
AcDbEntity
  8
ACESSORIO
100
AcDbVertex
100
AcDbPolygonMeshVertex
 10
-10.0
 20
18.0
 30
0.0000000000000012
 70
    64
  0
VERTEX
  5
20B
330
1F9
100
AcDbEntity
  8
ACESSORIO
100
AcDbVertex
100
AcDbPolygonMeshVertex
 10
-9.781476007338057
 20
18.0
 30
2.079116908177592
 70
    64
  0
VERTEX
  5
20C
330
1F9
100
AcDbEntity
  8
ACESSORIO
100
AcDbVertex
100
AcDbPolygonMeshVertex
 10
-9.135454576426008
 20
18.0
 30
4.067366430758002
 70
    64
  0
VERTEX
  5
20D
330
1F9
100
AcDbEntity
  8
ACESSORIO
100
AcDbVertex
100
AcDbPolygonMeshVertex
 10
-8.090169943749475
 20
18.0
 30
5.877852522924732
 70
    64
  0
VERTEX
  5
20E
330
1F9
100
AcDbEntity
  8
ACESSORIO
100
AcDbVertex
100
AcDbPolygonMeshVertex
 10
-6.691306063588581
 20
18.0
 30
7.431448254773944
 70
    64
  0
VERTEX
  5
20F
330
1F9
100
AcDbEntity
  8
ACESSORIO
100
AcDbVertex
100
AcDbPolygonMeshVertex
 10
-4.999999999999997
 20
18.0
 30
8.660254037844387
 70
    64
  0
VERTEX
  5
210
330
1F9
100
AcDbEntity
  8
ACESSORIO
100
AcDbVertex
100
AcDbPolygonMeshVertex
 10
-3.090169943749471
 20
18.0
 30
9.510565162951538
 70
    64
  0
VERTEX
  5
211
330
1F9
100
AcDbEntity
  8
ACESSORIO
100
AcDbVertex
100
AcDbPolygonMeshVertex
 10
-1.04528463267653
 20
18.0
 30
9.945218953682735
 70
    64
  0
VERTEX
  5
212
330
1F9
100
AcDbEntity
  8
ACESSORIO
100
AcDbVertex
100
AcDbPolygonMeshVertex
 10
1.045284632676541
 20
18.0
 30
9.945218953682733
 70
    64
  0
VERTEX
  5
213
330
1F9
100
AcDbEntity
  8
ACESSORIO
100
AcDbVertex
100
AcDbPolygonMeshVertex
 10
3.090169943749479
 20
18.0
 30
9.510565162951535
 70
    64
  0
VERTEX
  5
214
330
1F9
100
AcDbEntity
  8
ACESSORIO
100
AcDbVertex
100
AcDbPolygonMeshVertex
 10
5.000000000000004
 20
18.0
 30
8.660254037844386
 70
    64
  0
VERTEX
  5
215
330
1F9
100
AcDbEntity
  8
ACESSORIO
100
AcDbVertex
100
AcDbPolygonMeshVertex
 10
6.691306063588585
 20
18.0
 30
7.43144825477394
 70
    64
  0
VERTEX
  5
216
330
1F9
100
AcDbEntity
  8
ACESSORIO
100
AcDbVertex
100
AcDbPolygonMeshVertex
 10
8.090169943749476
 20
18.0
 30
5.877852522924729
 70
    64
  0
VERTEX
  5
217
330
1F9
100
AcDbEntity
  8
ACESSORIO
100
AcDbVertex
100
AcDbPolygonMeshVertex
 10
9.13545457642601
 20
18.0
 30
4.067366430758
 70
    64
  0
VERTEX
  5
218
330
1F9
100
AcDbEntity
  8
ACESSORIO
100
AcDbVertex
100
AcDbPolygonMeshVertex
 10
9.781476007338057
 20
18.0
 30
2.079116908177591
 70
    64
  0
VERTEX
  5
219
330
1F9
100
AcDbEntity
  8
ACESSORIO
100
AcDbVertex
100
AcDbPolygonMeshVertex
 10
10.0
 20
18.0
 30
-0.0000000000000024
 70
    64
  0
SEQEND
  5
631
330
1F9
100
AcDbEntity
  8
ACESSORIO
  0
LINE
  5
280
330
1F
100
AcDbEntity
  8
0
100
AcDbLine
 10
2.5
 20
-26.0
 30
-14.0
 11
2.5
 21
-6.0
 31
-14.0
210
-1.0
220
0.0
230
0.0
  0
LINE
  5
281
330
1F
100
AcDbEntity
  8
0
100
AcDbLine
 10
2.5
 20
-6.0
 30
-14.0
 11
2.5
 21
-6.0
 31
-4.0
210
-1.0
220
0.0
230
0.0
  0
LINE
  5
285
330
1F
100
AcDbEntity
  8
0
100
AcDbLine
 10
-2.5
 20
-26.0
 30
-14.0
 11
-2.5
 21
-6.0
 31
-14.0
210
-1.0
220
0.0
230
0.0
  0
LINE
  5
2B7
330
1F
100
AcDbEntity
  8
0
100
AcDbLine
 10
-2.5
 20
-6.0
 30
4.0
 11
-2.5
 21
-6.0
 31
-14.0
  0
3DFACE
  5
2E8
330
1F
100
AcDbEntity
  8
ACESSORIO
100
AcDbFace
 10
1.5
 20
-6.0
 30
4.0
 11
1.5
 21
-6.0
 31
-4.0
 12
-1.5
 22
-6.0
 32
-4.0
 13
-1.5
 23
-6.0
 33
4.0
  0
3DFACE
  5
2E9
330
1F
100
AcDbEntity
  8
ACESSORIO
100
AcDbFace
 10
1.5
 20
-6.0
 30
-4.0
 11
1.5
 21
-6.0
 31
-4.0
 12
-1.5
 22
-6.0
 32
-4.0
 13
-1.5
 23
-6.0
 33
-4.0
  0
3DFACE
  5
2EA
330
1F
100
AcDbEntity
  8
ACESSORIO
100
AcDbFace
 10
-1.5
 20
-6.0
 30
4.0
 11
-1.5
 21
-6.0
 31
-4.0
 12
-1.5
 22
9.0
 32
-4.0
 13
-1.5
 23
9.0
 33
4.0
  0
3DFACE
  5
2EB
330
1F
100
AcDbEntity
  8
ACESSORIO
100
AcDbFace
 10
-1.5
 20
-6.0
 30
-4.0
 11
-1.5
 21
-6.0
 31
-4.0
 12
-1.5
 22
-6.0
 32
-4.0
 13
-1.5
 23
9.0
 33
-4.0
  0
3DFACE
  5
2EC
330
1F
100
AcDbEntity
  8
ACESSORIO
100
AcDbFace
 10
-1.5
 20
9.0
 30
4.0
 11
-1.5
 21
9.0
 31
-4.0
 12
1.5
 22
9.0
 32
-4.0
 13
1.5
 23
9.0
 33
4.0
  0
3DFACE
  5
2ED
330
1F
100
AcDbEntity
  8
ACESSORIO
100
AcDbFace
 10
-1.5
 20
9.0
 30
-4.0
 11
-1.5
 21
-6.0
 31
-4.0
 12
1.5
 22
-6.0
 32
-4.0
 13
1.5
 23
9.0
 33
-4.0
  0
3DFACE
  5
2EE
330
1F
100
AcDbEntity
  8
ACESSORIO
100
AcDbFace
 10
1.5
 20
9.0
 30
4.0
 11
1.5
 21
9.0
 31
-4.0
 12
1.5
 22
9.0
 32
4.0
 13
1.5
 23
9.0
 33
4.0
  0
3DFACE
  5
2EF
330
1F
100
AcDbEntity
  8
ACESSORIO
100
AcDbFace
 10
1.5
 20
9.0
 30
-4.0
 11
1.5
 21
-6.0
 31
-4.0
 12
1.5
 22
-6.0
 32
4.0
 13
1.5
 23
9.0
 33
4.0
  0
3DFACE
  5
2F0
330
1F
100
AcDbEntity
  8
ACESSORIO
100
AcDbFace
 10
1.5
 20
9.0
 30
4.0
 11
1.5
 21
9.0
 31
4.0
 12
-1.5
 22
9.0
 32
4.0
 13
-1.5
 23
9.0
 33
4.0
  0
3DFACE
  5
2F1
330
1F
100
AcDbEntity
  8
ACESSORIO
100
AcDbFace
 10
1.5
 20
9.0
 30
4.0
 11
1.5
 21
-6.0
 31
4.0
 12
-1.5
 22
-6.0
 32
4.0
 13
-1.5
 23
9.0
 33
4.0
  0
LINE
  5
311
330
1F
100
AcDbEntity
  8
0
100
AcDbLine
 10
-2.5
 20
-19.11979667273072
 30
-7.549723983703799
 11
-2.5
 21
-19.11979667273072
 31
7.492533832341898
  0
LINE
  5
312
330
1F
100
AcDbEntity
  8
0
100
AcDbLine
 10
2.5
 20
-19.11979667273072
 30
7.492533832341898
 11
2.5
 21
-19.11979667273072
 31
-7.549723983703799
  0
LINE
  5
315
330
1F
100
AcDbEntity
  8
0
100
AcDbLine
 10
-2.5
 20
-22.93911994633607
 30
7.492533832341898
 11
-2.5
 21
-22.93911994633607
 31
-7.549723983703799
  0
LINE
  5
316
330
1F
100
AcDbEntity
  8
0
100
AcDbLine
 10
2.5
 20
-22.93911994633607
 30
-7.549723983703799
 11
2.5
 21
-22.93911994633607
 31
7.492533832341898
  0
LINE
  5
31D
330
1F
100
AcDbEntity
  8
FUNDO
100
AcDbLine
 10
-4.5
 20
-19.11979667273072
 30
-7.549723983703799
 11
-4.5
 21
-22.93911994633607
 31
-7.549723983703799
  0
ARC
  5
321
330
1F
100
AcDbEntity
  8
0
100
AcDbCircle
 10
21.0294583095334
 20
5.859708198516687
 30
-2.5
 40
2.512553903412337
210
-1.0
220
0.0
230
0.0
100
AcDbArc
 50
40.53156798196299
 51
139.468432018037
  0
ARC
  5
322
330
1F
100
AcDbEntity
  8
0
100
AcDbCircle
 10
21.0294583095334
 20
-5.916898349878587
 30
-2.5
 40
2.512553903412337
210
-1.0
220
0.0
230
0.0
100
AcDbArc
 50
220.531567981963
 51
319.468432018037
  0
ARC
  5
324
330
1F
100
AcDbEntity
  8
0
100
AcDbCircle
 10
26.0
 20
0.0
 30
2.5
 40
14.00260638823078
210
-1.0
220
0.0
230
0.0
100
AcDbArc
 50
268.8944981354543
 51
91.10550186454736
  0
LINE
  5
326
330
1F
100
AcDbEntity
  8
0
100
AcDbLine
 10
-2.5
 20
-11.0
 30
14.0
 11
-2.5
 21
-26.0
 31
14.0
  0
LINE
  5
327
330
1F
100
AcDbEntity
  8
0
100
AcDbLine
 10
2.5
 20
-26.0
 30
14.0
 11
2.5
 21
-11.0
 31
14.0
  0
ARC
  5
32A
330
1F
100
AcDbEntity
  8
0
100
AcDbCircle
 10
26.27015858994598
 20
0.0
 30
-2.5
 40
14.00260638823078
210
-1.0
220
0.0
230
0.0
100
AcDbArc
 50
268.8944981354543
 51
91.10550186454736
  0
LINE
  5
32D
330
1F
100
AcDbEntity
  8
0
100
AcDbLine
 10
2.5
 20
-6.0
 30
9.0
 11
2.5
 21
-6.0
 31
-14.0
  0
LINE
  5
32E
330
1F
100
AcDbEntity
  8
0
100
AcDbLine
 10
-2.5
 20
-6.0
 30
-14.0
 11
-2.5
 21
-6.0
 31
9.0
  0
LINE
  5
331
330
1F
100
AcDbEntity
  8
0
100
AcDbLine
 10
2.5
 20
-6.0
 30
-14.0
 11
2.5
 21
-26.0
 31
-14.0
  0
LINE
  5
332
330
1F
100
AcDbEntity
  8
0
100
AcDbLine
 10
-2.5
 20
-26.0
 30
-14.0
 11
-2.5
 21
-6.0
 31
-14.0
  0
ARC
  5
333
330
1F
100
AcDbEntity
  8
0
100
AcDbCircle
 10
21.0294583095334
 20
5.859708198516687
 30
2.5
 40
2.512553903412337
210
-1.0
220
0.0
230
0.0
100
AcDbArc
 50
40.53156798196299
 51
139.468432018037
  0
ARC
  5
334
330
1F
100
AcDbEntity
  8
0
100
AcDbCircle
 10
21.0294583095334
 20
-5.916898349878587
 30
2.5
 40
2.512553903412336
210
-1.0
220
0.0
230
0.0
100
AcDbArc
 50
220.531567981963
 51
319.468432018037
  0
ARC
  5
335
330
1F
100
AcDbEntity
  8
0
100
AcDbCircle
 10
-11.0
 20
9.0
 30
2.5
 40
5.0
210
1.0
220
0.0
230
0.0
100
AcDbArc
 50
0.0
 51
90.0
  0
ARC
  5
336
330
1F
100
AcDbEntity
  8
0
100
AcDbCircle
 10
-11.0
 20
9.0
 30
-2.5
 40
5.0
210
1.0
220
0.0
230
0.0
100
AcDbArc
 50
0.0
 51
90.0
  0
POLYLINE
  5
338
330
1F
100
AcDbEntity
  8
CHAVE
100
AcDbPolygonMesh
 66
     1
 10
0.0
 20
0.0
 30
0.0
 70
    16
 71
     2
 72
    17
  0
VERTEX
  5
339
330
338
100
AcDbEntity
  8
CHAVE
100
AcDbVertex
100
AcDbPolygonMeshVertex
 10
-2.5
 20
-25.72984141005402
 30
14.0
 70
    64
  0
VERTEX
  5
33A
330
338
100
AcDbEntity
  8
CHAVE
100
AcDbVertex
100
AcDbPolygonMeshVertex
 10
-2.5
 20
-28.49953368662657
 30
13.77771087710656
 70
    64
  0
VERTEX
  5
33B
330
338
100
AcDbEntity
  8
CHAVE
100
AcDbVertex
100
AcDbPolygonMeshVertex
 10
-2.5
 20
-31.17080384189225
 30
13.01290794912473
 70
    64
  0
VERTEX
  5
33C
330
338
100
AcDbEntity
  8
CHAVE
100
AcDbVertex
100
AcDbPolygonMeshVertex
 10
-2.5
 20
-33.63846742617872
 30
11.73570624389209
 70
    64
  0
VERTEX
  5
33D
330
338
100
AcDbEntity
  8
CHAVE
100
AcDbVertex
100
AcDbPolygonMeshVertex
 10
-2.5
 20
-35.8053572414855
 30
9.996397102484925
 70
    64
  0
VERTEX
  5
33E
330
338
100
AcDbEntity
  8
CHAVE
100
AcDbVertex
100
AcDbPolygonMeshVertex
 10
-2.5
 20
-37.58614941584318
 30
7.86346789765671
 70
    64
  0
VERTEX
  5
33F
330
338
100
AcDbEntity
  8
CHAVE
100
AcDbVertex
100
AcDbPolygonMeshVertex
 10
-2.5
 20
-38.91072313257914
 30
5.42090526181807
 70
    64
  0
VERTEX
  5
340
330
338
100
AcDbEntity
  8
CHAVE
100
AcDbVertex
100
AcDbPolygonMeshVertex
 10
-2.5
 20
-39.72692172114074
 30
2.764888013174387
 70
    64
  0
VERTEX
  5
341
330
338
100
AcDbEntity
  8
CHAVE
100
AcDbVertex
100
AcDbPolygonMeshVertex
 10
-2.5
 20
-40.00260638823076
 30
0.0000000000002242
 70
    64
  0
VERTEX
  5
342
330
338
100
AcDbEntity
  8
CHAVE
100
AcDbVertex
100
AcDbPolygonMeshVertex
 10
-2.5
 20
-39.72692172114083
 30
-2.764888013173948
 70
    64
  0
VERTEX
  5
343
330
338
100
AcDbEntity
  8
CHAVE
100
AcDbVertex
100
AcDbPolygonMeshVertex
 10
-2.5
 20
-38.91072313257931
 30
-5.420905261817657
 70
    64
  0
VERTEX
  5
344
330
338
100
AcDbEntity
  8
CHAVE
100
AcDbVertex
100
AcDbPolygonMeshVertex
 10
-2.5
 20
-37.58614941584343
 30
-7.863467897656339
 70
    64
  0
VERTEX
  5
345
330
338
100
AcDbEntity
  8
CHAVE
100
AcDbVertex
100
AcDbPolygonMeshVertex
 10
-2.5
 20
-35.80535724148582
 30
-9.996397102484611
 70
    64
  0
VERTEX
  5
346
330
338
100
AcDbEntity
  8
CHAVE
100
AcDbVertex
100
AcDbPolygonMeshVertex
 10
-2.5
 20
-33.6384674261791
 30
-11.73570624389184
 70
    64
  0
VERTEX
  5
347
330
338
100
AcDbEntity
  8
CHAVE
100
AcDbVertex
100
AcDbPolygonMeshVertex
 10
-2.5
 20
-31.17080384189267
 30
-13.01290794912456
 70
    64
  0
VERTEX
  5
348
330
338
100
AcDbEntity
  8
CHAVE
100
AcDbVertex
100
AcDbPolygonMeshVertex
 10
-2.5
 20
-28.49953368662702
 30
-13.77771087710648
 70
    64
  0
VERTEX
  5
349
330
338
100
AcDbEntity
  8
CHAVE
100
AcDbVertex
100
AcDbPolygonMeshVertex
 10
-2.5
 20
-25.72984141005442
 30
-14.00000000000001
 70
    64
  0
VERTEX
  5
34A
330
338
100
AcDbEntity
  8
CHAVE
100
AcDbVertex
100
AcDbPolygonMeshVertex
 10
2.5
 20
-26.0
 30
14.0
 70
    64
  0
VERTEX
  5
34B
330
338
100
AcDbEntity
  8
CHAVE
100
AcDbVertex
100
AcDbPolygonMeshVertex
 10
2.5
 20
-28.76969227657254
 30
13.77771087710656
 70
    64
  0
VERTEX
  5
34C
330
338
100
AcDbEntity
  8
CHAVE
100
AcDbVertex
100
AcDbPolygonMeshVertex
 10
2.5
 20
-31.44096243183823
 30
13.01290794912473
 70
    64
  0
VERTEX
  5
34D
330
338
100
AcDbEntity
  8
CHAVE
100
AcDbVertex
100
AcDbPolygonMeshVertex
 10
2.5
 20
-33.9086260161247
 30
11.73570624389209
 70
    64
  0
VERTEX
  5
34E
330
338
100
AcDbEntity
  8
CHAVE
100
AcDbVertex
100
AcDbPolygonMeshVertex
 10
2.5
 20
-36.07551583143147
 30
9.996397102484925
 70
    64
  0
VERTEX
  5
34F
330
338
100
AcDbEntity
  8
CHAVE
100
AcDbVertex
100
AcDbPolygonMeshVertex
 10
2.5
 20
-37.85630800578915
 30
7.86346789765671
 70
    64
  0
VERTEX
  5
350
330
338
100
AcDbEntity
  8
CHAVE
100
AcDbVertex
100
AcDbPolygonMeshVertex
 10
2.5
 20
-39.18088172252511
 30
5.42090526181807
 70
    64
  0
VERTEX
  5
351
330
338
100
AcDbEntity
  8
CHAVE
100
AcDbVertex
100
AcDbPolygonMeshVertex
 10
2.5
 20
-39.99708031108671
 30
2.764888013174387
 70
    64
  0
VERTEX
  5
352
330
338
100
AcDbEntity
  8
CHAVE
100
AcDbVertex
100
AcDbPolygonMeshVertex
 10
2.5
 20
-40.27276497817673
 30
0.0000000000002242
 70
    64
  0
VERTEX
  5
353
330
338
100
AcDbEntity
  8
CHAVE
100
AcDbVertex
100
AcDbPolygonMeshVertex
 10
2.5
 20
-39.9970803110868
 30
-2.764888013173948
 70
    64
  0
VERTEX
  5
354
330
338
100
AcDbEntity
  8
CHAVE
100
AcDbVertex
100
AcDbPolygonMeshVertex
 10
2.5
 20
-39.18088172252529
 30
-5.420905261817657
 70
    64
  0
VERTEX
  5
355
330
338
100
AcDbEntity
  8
CHAVE
100
AcDbVertex
100
AcDbPolygonMeshVertex
 10
2.5
 20
-37.85630800578941
 30
-7.863467897656339
 70
    64
  0
VERTEX
  5
356
330
338
100
AcDbEntity
  8
CHAVE
100
AcDbVertex
100
AcDbPolygonMeshVertex
 10
2.5
 20
-36.07551583143179
 30
-9.996397102484611
 70
    64
  0
VERTEX
  5
357
330
338
100
AcDbEntity
  8
CHAVE
100
AcDbVertex
100
AcDbPolygonMeshVertex
 10
2.5
 20
-33.90862601612508
 30
-11.73570624389184
 70
    64
  0
VERTEX
  5
358
330
338
100
AcDbEntity
  8
CHAVE
100
AcDbVertex
100
AcDbPolygonMeshVertex
 10
2.5
 20
-31.44096243183865
 30
-13.01290794912456
 70
    64
  0
VERTEX
  5
359
330
338
100
AcDbEntity
  8
CHAVE
100
AcDbVertex
100
AcDbPolygonMeshVertex
 10
2.5
 20
-28.76969227657299
 30
-13.77771087710648
 70
    64
  0
VERTEX
  5
35A
330
338
100
AcDbEntity
  8
CHAVE
100
AcDbVertex
100
AcDbPolygonMeshVertex
 10
2.5
 20
-26.00000000000039
 30
-14.00000000000001
 70
    64
  0
SEQEND
  5
632
330
338
100
AcDbEntity
  8
CHAVE
  0
POLYLINE
  5
35C
330
1F
100
AcDbEntity
  8
CHAVE
100
AcDbPolygonMesh
 66
     1
 10
0.0
 20
0.0
 30
0.0
 70
    16
 71
     2
 72
    17
  0
VERTEX
  5
35D
330
35C
100
AcDbEntity
  8
CHAVE
100
AcDbVertex
100
AcDbPolygonMeshVertex
 10
-2.5
 20
-22.93911994633607
 30
-7.549723983703799
 70
    64
  0
VERTEX
  5
35E
330
35C
100
AcDbEntity
  8
CHAVE
100
AcDbVertex
100
AcDbPolygonMeshVertex
 10
-2.5
 20
-22.93911994633607
 30
-6.609582870200938
 70
    64
  0
VERTEX
  5
35F
330
35C
100
AcDbEntity
  8
CHAVE
100
AcDbVertex
100
AcDbPolygonMeshVertex
 10
-2.5
 20
-22.93911994633607
 30
-5.669441756698083
 70
    64
  0
VERTEX
  5
360
330
35C
100
AcDbEntity
  8
CHAVE
100
AcDbVertex
100
AcDbPolygonMeshVertex
 10
-2.5
 20
-22.93911994633607
 30
-4.729300643195227
 70
    64
  0
VERTEX
  5
361
330
35C
100
AcDbEntity
  8
CHAVE
100
AcDbVertex
100
AcDbPolygonMeshVertex
 10
-2.5
 20
-22.93911994633607
 30
-3.789159529692371
 70
    64
  0
VERTEX
  5
362
330
35C
100
AcDbEntity
  8
CHAVE
100
AcDbVertex
100
AcDbPolygonMeshVertex
 10
-2.5
 20
-22.93911994633607
 30
-2.849018416189516
 70
    64
  0
VERTEX
  5
363
330
35C
100
AcDbEntity
  8
CHAVE
100
AcDbVertex
100
AcDbPolygonMeshVertex
 10
-2.5
 20
-22.93911994633607
 30
-1.90887730268666
 70
    64
  0
VERTEX
  5
364
330
35C
100
AcDbEntity
  8
CHAVE
100
AcDbVertex
100
AcDbPolygonMeshVertex
 10
-2.5
 20
-22.93911994633607
 30
-0.9687361891838044
 70
    64
  0
VERTEX
  5
365
330
35C
100
AcDbEntity
  8
CHAVE
100
AcDbVertex
100
AcDbPolygonMeshVertex
 10
-2.5
 20
-22.93911994633607
 30
-0.0285950756809488
 70
    64
  0
VERTEX
  5
366
330
35C
100
AcDbEntity
  8
CHAVE
100
AcDbVertex
100
AcDbPolygonMeshVertex
 10
-2.5
 20
-22.93911994633607
 30
0.9115460378219069
 70
    64
  0
VERTEX
  5
367
330
35C
100
AcDbEntity
  8
CHAVE
100
AcDbVertex
100
AcDbPolygonMeshVertex
 10
-2.5
 20
-22.93911994633607
 30
1.851687151324763
 70
    64
  0
VERTEX
  5
368
330
35C
100
AcDbEntity
  8
CHAVE
100
AcDbVertex
100
AcDbPolygonMeshVertex
 10
-2.5
 20
-22.93911994633607
 30
2.791828264827618
 70
    64
  0
VERTEX
  5
369
330
35C
100
AcDbEntity
  8
CHAVE
100
AcDbVertex
100
AcDbPolygonMeshVertex
 10
-2.5
 20
-22.93911994633607
 30
3.731969378330474
 70
    64
  0
VERTEX
  5
36A
330
35C
100
AcDbEntity
  8
CHAVE
100
AcDbVertex
100
AcDbPolygonMeshVertex
 10
-2.5
 20
-22.93911994633607
 30
4.67211049183333
 70
    64
  0
VERTEX
  5
36B
330
35C
100
AcDbEntity
  8
CHAVE
100
AcDbVertex
100
AcDbPolygonMeshVertex
 10
-2.5
 20
-22.93911994633607
 30
5.612251605336186
 70
    64
  0
VERTEX
  5
36C
330
35C
100
AcDbEntity
  8
CHAVE
100
AcDbVertex
100
AcDbPolygonMeshVertex
 10
-2.5
 20
-22.93911994633607
 30
6.552392718839043
 70
    64
  0
VERTEX
  5
36D
330
35C
100
AcDbEntity
  8
CHAVE
100
AcDbVertex
100
AcDbPolygonMeshVertex
 10
-2.5
 20
-22.93911994633607
 30
7.492533832341898
 70
    64
  0
VERTEX
  5
36E
330
35C
100
AcDbEntity
  8
CHAVE
100
AcDbVertex
100
AcDbPolygonMeshVertex
 10
-2.5
 20
-25.72984141005442
 30
-14.00000000000001
 70
    64
  0
VERTEX
  5
36F
330
35C
100
AcDbEntity
  8
CHAVE
100
AcDbVertex
100
AcDbPolygonMeshVertex
 10
-2.5
 20
-28.49953368662702
 30
-13.77771087710648
 70
    64
  0
VERTEX
  5
370
330
35C
100
AcDbEntity
  8
CHAVE
100
AcDbVertex
100
AcDbPolygonMeshVertex
 10
-2.5
 20
-31.17080384189267
 30
-13.01290794912456
 70
    64
  0
VERTEX
  5
371
330
35C
100
AcDbEntity
  8
CHAVE
100
AcDbVertex
100
AcDbPolygonMeshVertex
 10
-2.5
 20
-33.6384674261791
 30
-11.73570624389184
 70
    64
  0
VERTEX
  5
372
330
35C
100
AcDbEntity
  8
CHAVE
100
AcDbVertex
100
AcDbPolygonMeshVertex
 10
-2.5
 20
-35.80535724148582
 30
-9.996397102484611
 70
    64
  0
VERTEX
  5
373
330
35C
100
AcDbEntity
  8
CHAVE
100
AcDbVertex
100
AcDbPolygonMeshVertex
 10
-2.5
 20
-37.58614941584343
 30
-7.863467897656339
 70
    64
  0
VERTEX
  5
374
330
35C
100
AcDbEntity
  8
CHAVE
100
AcDbVertex
100
AcDbPolygonMeshVertex
 10
-2.5
 20
-38.91072313257931
 30
-5.420905261817657
 70
    64
  0
VERTEX
  5
375
330
35C
100
AcDbEntity
  8
CHAVE
100
AcDbVertex
100
AcDbPolygonMeshVertex
 10
-2.5
 20
-39.72692172114083
 30
-2.764888013173948
 70
    64
  0
VERTEX
  5
376
330
35C
100
AcDbEntity
  8
CHAVE
100
AcDbVertex
100
AcDbPolygonMeshVertex
 10
-2.5
 20
-40.00260638823076
 30
0.0000000000002242
 70
    64
  0
VERTEX
  5
377
330
35C
100
AcDbEntity
  8
CHAVE
100
AcDbVertex
100
AcDbPolygonMeshVertex
 10
-2.5
 20
-39.72692172114074
 30
2.764888013174387
 70
    64
  0
VERTEX
  5
378
330
35C
100
AcDbEntity
  8
CHAVE
100
AcDbVertex
100
AcDbPolygonMeshVertex
 10
-2.5
 20
-38.91072313257914
 30
5.42090526181807
 70
    64
  0
VERTEX
  5
379
330
35C
100
AcDbEntity
  8
CHAVE
100
AcDbVertex
100
AcDbPolygonMeshVertex
 10
-2.5
 20
-37.58614941584318
 30
7.86346789765671
 70
    64
  0
VERTEX
  5
37A
330
35C
100
AcDbEntity
  8
CHAVE
100
AcDbVertex
100
AcDbPolygonMeshVertex
 10
-2.5
 20
-35.8053572414855
 30
9.996397102484925
 70
    64
  0
VERTEX
  5
37B
330
35C
100
AcDbEntity
  8
CHAVE
100
AcDbVertex
100
AcDbPolygonMeshVertex
 10
-2.5
 20
-33.63846742617872
 30
11.73570624389209
 70
    64
  0
VERTEX
  5
37C
330
35C
100
AcDbEntity
  8
CHAVE
100
AcDbVertex
100
AcDbPolygonMeshVertex
 10
-2.5
 20
-31.17080384189225
 30
13.01290794912473
 70
    64
  0
VERTEX
  5
37D
330
35C
100
AcDbEntity
  8
CHAVE
100
AcDbVertex
100
AcDbPolygonMeshVertex
 10
-2.5
 20
-28.49953368662657
 30
13.77771087710656
 70
    64
  0
VERTEX
  5
37E
330
35C
100
AcDbEntity
  8
CHAVE
100
AcDbVertex
100
AcDbPolygonMeshVertex
 10
-2.5
 20
-25.72984141005402
 30
14.0
 70
    64
  0
SEQEND
  5
633
330
35C
100
AcDbEntity
  8
CHAVE
  0
POLYLINE
  5
3A4
330
1F
100
AcDbEntity
  8
CHAVE
100
AcDbPolygonMesh
 66
     1
 10
0.0
 20
0.0
 30
0.0
 70
    16
 71
     2
 72
    17
  0
VERTEX
  5
3A5
330
3A4
100
AcDbEntity
  8
CHAVE
100
AcDbVertex
100
AcDbPolygonMeshVertex
 10
2.5
 20
-22.93911994633607
 30
-7.549723983703799
 70
    64
  0
VERTEX
  5
3A6
330
3A4
100
AcDbEntity
  8
CHAVE
100
AcDbVertex
100
AcDbPolygonMeshVertex
 10
2.5
 20
-22.93911994633607
 30
-6.609582870200942
 70
    64
  0
VERTEX
  5
3A7
330
3A4
100
AcDbEntity
  8
CHAVE
100
AcDbVertex
100
AcDbPolygonMeshVertex
 10
2.5
 20
-22.93911994633607
 30
-5.669441756698086
 70
    64
  0
VERTEX
  5
3A8
330
3A4
100
AcDbEntity
  8
CHAVE
100
AcDbVertex
100
AcDbPolygonMeshVertex
 10
2.5
 20
-22.93911994633607
 30
-4.729300643195231
 70
    64
  0
VERTEX
  5
3A9
330
3A4
100
AcDbEntity
  8
CHAVE
100
AcDbVertex
100
AcDbPolygonMeshVertex
 10
2.5
 20
-22.93911994633607
 30
-3.789159529692374
 70
    64
  0
VERTEX
  5
3AA
330
3A4
100
AcDbEntity
  8
CHAVE
100
AcDbVertex
100
AcDbPolygonMeshVertex
 10
2.5
 20
-22.93911994633607
 30
-2.849018416189518
 70
    64
  0
VERTEX
  5
3AB
330
3A4
100
AcDbEntity
  8
CHAVE
100
AcDbVertex
100
AcDbPolygonMeshVertex
 10
2.5
 20
-22.93911994633607
 30
-1.908877302686663
 70
    64
  0
VERTEX
  5
3AC
330
3A4
100
AcDbEntity
  8
CHAVE
100
AcDbVertex
100
AcDbPolygonMeshVertex
 10
2.5
 20
-22.93911994633607
 30
-0.9687361891838071
 70
    64
  0
VERTEX
  5
3AD
330
3A4
100
AcDbEntity
  8
CHAVE
100
AcDbVertex
100
AcDbPolygonMeshVertex
 10
2.5
 20
-22.93911994633607
 30
-0.0285950756809514
 70
    64
  0
VERTEX
  5
3AE
330
3A4
100
AcDbEntity
  8
CHAVE
100
AcDbVertex
100
AcDbPolygonMeshVertex
 10
2.5
 20
-22.93911994633607
 30
0.9115460378219042
 70
    64
  0
VERTEX
  5
3AF
330
3A4
100
AcDbEntity
  8
CHAVE
100
AcDbVertex
100
AcDbPolygonMeshVertex
 10
2.5
 20
-22.93911994633607
 30
1.85168715132476
 70
    64
  0
VERTEX
  5
3B0
330
3A4
100
AcDbEntity
  8
CHAVE
100
AcDbVertex
100
AcDbPolygonMeshVertex
 10
2.5
 20
-22.93911994633607
 30
2.791828264827616
 70
    64
  0
VERTEX
  5
3B1
330
3A4
100
AcDbEntity
  8
CHAVE
100
AcDbVertex
100
AcDbPolygonMeshVertex
 10
2.5
 20
-22.93911994633607
 30
3.731969378330471
 70
    64
  0
VERTEX
  5
3B2
330
3A4
100
AcDbEntity
  8
CHAVE
100
AcDbVertex
100
AcDbPolygonMeshVertex
 10
2.5
 20
-22.93911994633607
 30
4.672110491833327
 70
    64
  0
VERTEX
  5
3B3
330
3A4
100
AcDbEntity
  8
CHAVE
100
AcDbVertex
100
AcDbPolygonMeshVertex
 10
2.5
 20
-22.93911994633607
 30
5.612251605336183
 70
    64
  0
VERTEX
  5
3B4
330
3A4
100
AcDbEntity
  8
CHAVE
100
AcDbVertex
100
AcDbPolygonMeshVertex
 10
2.5
 20
-22.93911994633607
 30
6.552392718839038
 70
    64
  0
VERTEX
  5
3B5
330
3A4
100
AcDbEntity
  8
CHAVE
100
AcDbVertex
100
AcDbPolygonMeshVertex
 10
2.5
 20
-22.93911994633607
 30
7.492533832341898
 70
    64
  0
VERTEX
  5
3B6
330
3A4
100
AcDbEntity
  8
CHAVE
100
AcDbVertex
100
AcDbPolygonMeshVertex
 10
2.5
 20
-26.00000000000039
 30
-14.00000000000001
 70
    64
  0
VERTEX
  5
3B7
330
3A4
100
AcDbEntity
  8
CHAVE
100
AcDbVertex
100
AcDbPolygonMeshVertex
 10
2.5
 20
-28.76969227657299
 30
-13.77771087710648
 70
    64
  0
VERTEX
  5
3B8
330
3A4
100
AcDbEntity
  8
CHAVE
100
AcDbVertex
100
AcDbPolygonMeshVertex
 10
2.5
 20
-31.44096243183865
 30
-13.01290794912456
 70
    64
  0
VERTEX
  5
3B9
330
3A4
100
AcDbEntity
  8
CHAVE
100
AcDbVertex
100
AcDbPolygonMeshVertex
 10
2.5
 20
-33.90862601612508
 30
-11.73570624389184
 70
    64
  0
VERTEX
  5
3BA
330
3A4
100
AcDbEntity
  8
CHAVE
100
AcDbVertex
100
AcDbPolygonMeshVertex
 10
2.5
 20
-36.07551583143179
 30
-9.996397102484611
 70
    64
  0
VERTEX
  5
3BB
330
3A4
100
AcDbEntity
  8
CHAVE
100
AcDbVertex
100
AcDbPolygonMeshVertex
 10
2.5
 20
-37.85630800578941
 30
-7.863467897656339
 70
    64
  0
VERTEX
  5
3BC
330
3A4
100
AcDbEntity
  8
CHAVE
100
AcDbVertex
100
AcDbPolygonMeshVertex
 10
2.5
 20
-39.18088172252529
 30
-5.420905261817657
 70
    64
  0
VERTEX
  5
3BD
330
3A4
100
AcDbEntity
  8
CHAVE
100
AcDbVertex
100
AcDbPolygonMeshVertex
 10
2.5
 20
-39.9970803110868
 30
-2.764888013173948
 70
    64
  0
VERTEX
  5
3BE
330
3A4
100
AcDbEntity
  8
CHAVE
100
AcDbVertex
100
AcDbPolygonMeshVertex
 10
2.5
 20
-40.27276497817673
 30
0.0000000000002242
 70
    64
  0
VERTEX
  5
3BF
330
3A4
100
AcDbEntity
  8
CHAVE
100
AcDbVertex
100
AcDbPolygonMeshVertex
 10
2.5
 20
-39.99708031108671
 30
2.764888013174387
 70
    64
  0
VERTEX
  5
3C0
330
3A4
100
AcDbEntity
  8
CHAVE
100
AcDbVertex
100
AcDbPolygonMeshVertex
 10
2.5
 20
-39.18088172252511
 30
5.42090526181807
 70
    64
  0
VERTEX
  5
3C1
330
3A4
100
AcDbEntity
  8
CHAVE
100
AcDbVertex
100
AcDbPolygonMeshVertex
 10
2.5
 20
-37.85630800578915
 30
7.86346789765671
 70
    64
  0
VERTEX
  5
3C2
330
3A4
100
AcDbEntity
  8
CHAVE
100
AcDbVertex
100
AcDbPolygonMeshVertex
 10
2.5
 20
-36.07551583143147
 30
9.996397102484925
 70
    64
  0
VERTEX
  5
3C3
330
3A4
100
AcDbEntity
  8
CHAVE
100
AcDbVertex
100
AcDbPolygonMeshVertex
 10
2.5
 20
-33.9086260161247
 30
11.73570624389209
 70
    64
  0
VERTEX
  5
3C4
330
3A4
100
AcDbEntity
  8
CHAVE
100
AcDbVertex
100
AcDbPolygonMeshVertex
 10
2.5
 20
-31.44096243183823
 30
13.01290794912473
 70
    64
  0
VERTEX
  5
3C5
330
3A4
100
AcDbEntity
  8
CHAVE
100
AcDbVertex
100
AcDbPolygonMeshVertex
 10
2.5
 20
-28.76969227657254
 30
13.77771087710656
 70
    64
  0
VERTEX
  5
3C6
330
3A4
100
AcDbEntity
  8
CHAVE
100
AcDbVertex
100
AcDbPolygonMeshVertex
 10
2.5
 20
-26.0
 30
14.0
 70
    64
  0
SEQEND
  5
634
330
3A4
100
AcDbEntity
  8
CHAVE
  0
POLYLINE
  5
3C8
330
1F
100
AcDbEntity
  8
CHAVE
100
AcDbPolygonMesh
 66
     1
 10
0.0
 20
0.0
 30
0.0
 70
    16
 71
     2
 72
    17
  0
VERTEX
  5
3C9
330
3C8
100
AcDbEntity
  8
CHAVE
100
AcDbVertex
100
AcDbPolygonMeshVertex
 10
-2.5
 20
-11.0
 30
14.0
 70
    64
  0
VERTEX
  5
3CA
330
3C8
100
AcDbEntity
  8
CHAVE
100
AcDbVertex
100
AcDbPolygonMeshVertex
 10
-2.5
 20
-10.5099142983522
 30
13.97592363336098
 70
    64
  0
VERTEX
  5
3CB
330
3C8
100
AcDbEntity
  8
CHAVE
100
AcDbVertex
100
AcDbPolygonMeshVertex
 10
-2.5
 20
-10.02454838991936
 30
13.90392640201615
 70
    64
  0
VERTEX
  5
3CC
330
3C8
100
AcDbEntity
  8
CHAVE
100
AcDbVertex
100
AcDbPolygonMeshVertex
 10
-2.5
 20
-9.548576613727688
 30
13.78470167866104
 70
    64
  0
VERTEX
  5
3CD
330
3C8
100
AcDbEntity
  8
CHAVE
100
AcDbVertex
100
AcDbPolygonMeshVertex
 10
-2.5
 20
-9.086582838174552
 30
13.61939766255643
 70
    64
  0
VERTEX
  5
3CE
330
3C8
100
AcDbEntity
  8
CHAVE
100
AcDbVertex
100
AcDbPolygonMeshVertex
 10
-2.5
 20
-8.643016315870012
 30
13.40960632174177
 70
    64
  0
VERTEX
  5
3CF
330
3C8
100
AcDbEntity
  8
CHAVE
100
AcDbVertex
100
AcDbPolygonMeshVertex
 10
-2.5
 20
-8.222148834901988
 30
13.15734806151273
 70
    64
  0
VERTEX
  5
3D0
330
3C8
100
AcDbEntity
  8
CHAVE
100
AcDbVertex
100
AcDbPolygonMeshVertex
 10
-2.5
 20
-7.828033579181772
 30
12.86505226681368
 70
    64
  0
VERTEX
  5
3D1
330
3C8
100
AcDbEntity
  8
CHAVE
100
AcDbVertex
100
AcDbPolygonMeshVertex
 10
-2.5
 20
-7.464466094067262
 30
12.53553390593274
 70
    64
  0
VERTEX
  5
3D2
330
3C8
100
AcDbEntity
  8
CHAVE
100
AcDbVertex
100
AcDbPolygonMeshVertex
 10
-2.5
 20
-7.134947733186316
 30
12.17196642081823
 70
    64
  0
VERTEX
  5
3D3
330
3C8
100
AcDbEntity
  8
CHAVE
100
AcDbVertex
100
AcDbPolygonMeshVertex
 10
-2.5
 20
-6.842651938487274
 30
11.77785116509801
 70
    64
  0
VERTEX
  5
3D4
330
3C8
100
AcDbEntity
  8
CHAVE
100
AcDbVertex
100
AcDbPolygonMeshVertex
 10
-2.5
 20
-6.590393678258224
 30
11.35698368412999
 70
    64
  0
VERTEX
  5
3D5
330
3C8
100
AcDbEntity
  8
CHAVE
100
AcDbVertex
100
AcDbPolygonMeshVertex
 10
-2.5
 20
-6.380602337443566
 30
10.91341716182545
 70
    64
  0
VERTEX
  5
3D6
330
3C8
100
AcDbEntity
  8
CHAVE
100
AcDbVertex
100
AcDbPolygonMeshVertex
 10
-2.5
 20
-6.215298321338955
 30
10.45142338627231
 70
    64
  0
VERTEX
  5
3D7
330
3C8
100
AcDbEntity
  8
CHAVE
100
AcDbVertex
100
AcDbPolygonMeshVertex
 10
-2.5
 20
-6.096073597983848
 30
9.975451610080642
 70
    64
  0
VERTEX
  5
3D8
330
3C8
100
AcDbEntity
  8
CHAVE
100
AcDbVertex
100
AcDbPolygonMeshVertex
 10
-2.5
 20
-6.024076366639015
 30
9.490085701647804
 70
    64
  0
VERTEX
  5
3D9
330
3C8
100
AcDbEntity
  8
CHAVE
100
AcDbVertex
100
AcDbPolygonMeshVertex
 10
-2.5
 20
-6.0
 30
9.0
 70
    64
  0
VERTEX
  5
3DA
330
3C8
100
AcDbEntity
  8
CHAVE
100
AcDbVertex
100
AcDbPolygonMeshVertex
 10
2.5
 20
-11.0
 30
14.0
 70
    64
  0
VERTEX
  5
3DB
330
3C8
100
AcDbEntity
  8
CHAVE
100
AcDbVertex
100
AcDbPolygonMeshVertex
 10
2.5
 20
-10.5099142983522
 30
13.97592363336098
 70
    64
  0
VERTEX
  5
3DC
330
3C8
100
AcDbEntity
  8
CHAVE
100
AcDbVertex
100
AcDbPolygonMeshVertex
 10
2.5
 20
-10.02454838991936
 30
13.90392640201615
 70
    64
  0
VERTEX
  5
3DD
330
3C8
100
AcDbEntity
  8
CHAVE
100
AcDbVertex
100
AcDbPolygonMeshVertex
 10
2.5
 20
-9.548576613727688
 30
13.78470167866104
 70
    64
  0
VERTEX
  5
3DE
330
3C8
100
AcDbEntity
  8
CHAVE
100
AcDbVertex
100
AcDbPolygonMeshVertex
 10
2.5
 20
-9.086582838174552
 30
13.61939766255643
 70
    64
  0
VERTEX
  5
3DF
330
3C8
100
AcDbEntity
  8
CHAVE
100
AcDbVertex
100
AcDbPolygonMeshVertex
 10
2.5
 20
-8.643016315870012
 30
13.40960632174177
 70
    64
  0
VERTEX
  5
3E0
330
3C8
100
AcDbEntity
  8
CHAVE
100
AcDbVertex
100
AcDbPolygonMeshVertex
 10
2.5
 20
-8.222148834901988
 30
13.15734806151273
 70
    64
  0
VERTEX
  5
3E1
330
3C8
100
AcDbEntity
  8
CHAVE
100
AcDbVertex
100
AcDbPolygonMeshVertex
 10
2.5
 20
-7.828033579181772
 30
12.86505226681368
 70
    64
  0
VERTEX
  5
3E2
330
3C8
100
AcDbEntity
  8
CHAVE
100
AcDbVertex
100
AcDbPolygonMeshVertex
 10
2.5
 20
-7.464466094067262
 30
12.53553390593274
 70
    64
  0
VERTEX
  5
3E3
330
3C8
100
AcDbEntity
  8
CHAVE
100
AcDbVertex
100
AcDbPolygonMeshVertex
 10
2.5
 20
-7.134947733186316
 30
12.17196642081823
 70
    64
  0
VERTEX
  5
3E4
330
3C8
100
AcDbEntity
  8
CHAVE
100
AcDbVertex
100
AcDbPolygonMeshVertex
 10
2.5
 20
-6.842651938487274
 30
11.77785116509801
 70
    64
  0
VERTEX
  5
3E5
330
3C8
100
AcDbEntity
  8
CHAVE
100
AcDbVertex
100
AcDbPolygonMeshVertex
 10
2.5
 20
-6.590393678258224
 30
11.35698368412999
 70
    64
  0
VERTEX
  5
3E6
330
3C8
100
AcDbEntity
  8
CHAVE
100
AcDbVertex
100
AcDbPolygonMeshVertex
 10
2.5
 20
-6.380602337443566
 30
10.91341716182545
 70
    64
  0
VERTEX
  5
3E7
330
3C8
100
AcDbEntity
  8
CHAVE
100
AcDbVertex
100
AcDbPolygonMeshVertex
 10
2.5
 20
-6.215298321338955
 30
10.45142338627231
 70
    64
  0
VERTEX
  5
3E8
330
3C8
100
AcDbEntity
  8
CHAVE
100
AcDbVertex
100
AcDbPolygonMeshVertex
 10
2.5
 20
-6.096073597983848
 30
9.975451610080642
 70
    64
  0
VERTEX
  5
3E9
330
3C8
100
AcDbEntity
  8
CHAVE
100
AcDbVertex
100
AcDbPolygonMeshVertex
 10
2.5
 20
-6.024076366639015
 30
9.490085701647804
 70
    64
  0
VERTEX
  5
3EA
330
3C8
100
AcDbEntity
  8
CHAVE
100
AcDbVertex
100
AcDbPolygonMeshVertex
 10
2.5
 20
-6.0
 30
9.0
 70
    64
  0
SEQEND
  5
635
330
3C8
100
AcDbEntity
  8
CHAVE
  0
3DFACE
  5
3EC
330
1F
100
AcDbEntity
  8
CHAVE
100
AcDbFace
 10
-2.5
 20
-25.72984141005402
 30
14.0
 11
2.5
 21
-26.0
 31
14.0
 12
2.5
 22
-11.0
 32
14.0
 13
-2.5
 23
-11.0
 33
14.0
  0
POLYLINE
  5
3ED
330
1F
100
AcDbEntity
  8
CHAVE
100
AcDbPolygonMesh
 66
     1
 10
0.0
 20
0.0
 30
0.0
 70
    16
 71
     2
 72
    17
  0
VERTEX
  5
3EE
330
3ED
100
AcDbEntity
  8
CHAVE
100
AcDbVertex
100
AcDbPolygonMeshVertex
 10
2.5
 20
-19.11979667273072
 30
7.492533832341897
 70
    64
  0
VERTEX
  5
3EF
330
3ED
100
AcDbEntity
  8
CHAVE
100
AcDbVertex
100
AcDbPolygonMeshVertex
 10
2.5
 20
-19.30678540099115
 30
7.688731207592072
 70
    64
  0
VERTEX
  5
3F0
330
3ED
100
AcDbEntity
  8
CHAVE
100
AcDbVertex
100
AcDbPolygonMeshVertex
 10
2.5
 20
-19.51381941716762
 30
7.863645788737706
 70
    64
  0
VERTEX
  5
3F1
330
3ED
100
AcDbEntity
  8
CHAVE
100
AcDbVertex
100
AcDbPolygonMeshVertex
 10
2.5
 20
-19.73848964148527
 30
8.015242242708664
 70
    64
  0
VERTEX
  5
3F2
330
3ED
100
AcDbEntity
  8
CHAVE
100
AcDbVertex
100
AcDbPolygonMeshVertex
 10
2.5
 20
-19.97818177652857
 30
8.141756569762554
 70
    64
  0
VERTEX
  5
3F3
330
3ED
100
AcDbEntity
  8
CHAVE
100
AcDbVertex
100
AcDbPolygonMeshVertex
 10
2.5
 20
-20.23010672760963
 30
8.241716629658054
 70
    64
  0
VERTEX
  5
3F4
330
3ED
100
AcDbEntity
  8
CHAVE
100
AcDbVertex
100
AcDbPolygonMeshVertex
 10
2.5
 20
-20.49133305710465
 30
8.313959271706036
 70
    64
  0
VERTEX
  5
3F5
330
3ED
100
AcDbEntity
  8
CHAVE
100
AcDbVertex
100
AcDbPolygonMeshVertex
 10
2.5
 20
-20.75882109511458
 30
8.35764386937056
 70
    64
  0
VERTEX
  5
3F6
330
3ED
100
AcDbEntity
  8
CHAVE
100
AcDbVertex
100
AcDbPolygonMeshVertex
 10
2.5
 20
-21.0294583095334
 30
8.372262101929024
 70
    64
  0
VERTEX
  5
3F7
330
3ED
100
AcDbEntity
  8
CHAVE
100
AcDbVertex
100
AcDbPolygonMeshVertex
 10
2.5
 20
-21.30009552395222
 30
8.35764386937056
 70
    64
  0
VERTEX
  5
3F8
330
3ED
100
AcDbEntity
  8
CHAVE
100
AcDbVertex
100
AcDbPolygonMeshVertex
 10
2.5
 20
-21.56758356196214
 30
8.313959271706036
 70
    64
  0
VERTEX
  5
3F9
330
3ED
100
AcDbEntity
  8
CHAVE
100
AcDbVertex
100
AcDbPolygonMeshVertex
 10
2.5
 20
-21.82880989145716
 30
8.241716629658054
 70
    64
  0
VERTEX
  5
3FA
330
3ED
100
AcDbEntity
  8
CHAVE
100
AcDbVertex
100
AcDbPolygonMeshVertex
 10
2.5
 20
-22.08073484253823
 30
8.141756569762554
 70
    64
  0
VERTEX
  5
3FB
330
3ED
100
AcDbEntity
  8
CHAVE
100
AcDbVertex
100
AcDbPolygonMeshVertex
 10
2.5
 20
-22.32042697758152
 30
8.015242242708664
 70
    64
  0
VERTEX
  5
3FC
330
3ED
100
AcDbEntity
  8
CHAVE
100
AcDbVertex
100
AcDbPolygonMeshVertex
 10
2.5
 20
-22.54509720189917
 30
7.863645788737706
 70
    64
  0
VERTEX
  5
3FD
330
3ED
100
AcDbEntity
  8
CHAVE
100
AcDbVertex
100
AcDbPolygonMeshVertex
 10
2.5
 20
-22.75213121807564
 30
7.688731207592073
 70
    64
  0
VERTEX
  5
3FE
330
3ED
100
AcDbEntity
  8
CHAVE
100
AcDbVertex
100
AcDbPolygonMeshVertex
 10
2.5
 20
-22.93911994633607
 30
7.492533832341898
 70
    64
  0
VERTEX
  5
3FF
330
3ED
100
AcDbEntity
  8
CHAVE
100
AcDbVertex
100
AcDbPolygonMeshVertex
 10
-2.5
 20
-19.11979667273072
 30
7.492533832341897
 70
    64
  0
VERTEX
  5
400
330
3ED
100
AcDbEntity
  8
CHAVE
100
AcDbVertex
100
AcDbPolygonMeshVertex
 10
-2.5
 20
-19.30678540099115
 30
7.688731207592072
 70
    64
  0
VERTEX
  5
401
330
3ED
100
AcDbEntity
  8
CHAVE
100
AcDbVertex
100
AcDbPolygonMeshVertex
 10
-2.5
 20
-19.51381941716762
 30
7.863645788737706
 70
    64
  0
VERTEX
  5
402
330
3ED
100
AcDbEntity
  8
CHAVE
100
AcDbVertex
100
AcDbPolygonMeshVertex
 10
-2.5
 20
-19.73848964148527
 30
8.015242242708664
 70
    64
  0
VERTEX
  5
403
330
3ED
100
AcDbEntity
  8
CHAVE
100
AcDbVertex
100
AcDbPolygonMeshVertex
 10
-2.5
 20
-19.97818177652857
 30
8.141756569762554
 70
    64
  0
VERTEX
  5
404
330
3ED
100
AcDbEntity
  8
CHAVE
100
AcDbVertex
100
AcDbPolygonMeshVertex
 10
-2.5
 20
-20.23010672760963
 30
8.241716629658054
 70
    64
  0
VERTEX
  5
405
330
3ED
100
AcDbEntity
  8
CHAVE
100
AcDbVertex
100
AcDbPolygonMeshVertex
 10
-2.5
 20
-20.49133305710465
 30
8.313959271706036
 70
    64
  0
VERTEX
  5
406
330
3ED
100
AcDbEntity
  8
CHAVE
100
AcDbVertex
100
AcDbPolygonMeshVertex
 10
-2.5
 20
-20.75882109511458
 30
8.35764386937056
 70
    64
  0
VERTEX
  5
407
330
3ED
100
AcDbEntity
  8
CHAVE
100
AcDbVertex
100
AcDbPolygonMeshVertex
 10
-2.5
 20
-21.0294583095334
 30
8.372262101929024
 70
    64
  0
VERTEX
  5
408
330
3ED
100
AcDbEntity
  8
CHAVE
100
AcDbVertex
100
AcDbPolygonMeshVertex
 10
-2.5
 20
-21.30009552395222
 30
8.35764386937056
 70
    64
  0
VERTEX
  5
409
330
3ED
100
AcDbEntity
  8
CHAVE
100
AcDbVertex
100
AcDbPolygonMeshVertex
 10
-2.5
 20
-21.56758356196214
 30
8.313959271706036
 70
    64
  0
VERTEX
  5
40A
330
3ED
100
AcDbEntity
  8
CHAVE
100
AcDbVertex
100
AcDbPolygonMeshVertex
 10
-2.5
 20
-21.82880989145716
 30
8.241716629658054
 70
    64
  0
VERTEX
  5
40B
330
3ED
100
AcDbEntity
  8
CHAVE
100
AcDbVertex
100
AcDbPolygonMeshVertex
 10
-2.5
 20
-22.08073484253823
 30
8.141756569762554
 70
    64
  0
VERTEX
  5
40C
330
3ED
100
AcDbEntity
  8
CHAVE
100
AcDbVertex
100
AcDbPolygonMeshVertex
 10
-2.5
 20
-22.32042697758152
 30
8.015242242708664
 70
    64
  0
VERTEX
  5
40D
330
3ED
100
AcDbEntity
  8
CHAVE
100
AcDbVertex
100
AcDbPolygonMeshVertex
 10
-2.5
 20
-22.54509720189917
 30
7.863645788737706
 70
    64
  0
VERTEX
  5
40E
330
3ED
100
AcDbEntity
  8
CHAVE
100
AcDbVertex
100
AcDbPolygonMeshVertex
 10
-2.5
 20
-22.75213121807564
 30
7.688731207592073
 70
    64
  0
VERTEX
  5
40F
330
3ED
100
AcDbEntity
  8
CHAVE
100
AcDbVertex
100
AcDbPolygonMeshVertex
 10
-2.5
 20
-22.93911994633607
 30
7.492533832341898
 70
    64
  0
SEQEND
  5
636
330
3ED
100
AcDbEntity
  8
CHAVE
  0
POLYLINE
  5
435
330
1F
100
AcDbEntity
  8
CHAVE
100
AcDbPolygonMesh
 66
     1
 10
0.0
 20
0.0
 30
0.0
 70
    16
 71
     2
 72
    17
  0
VERTEX
  5
436
330
435
100
AcDbEntity
  8
CHAVE
100
AcDbVertex
100
AcDbPolygonMeshVertex
 10
2.5
 20
-19.11979667273072
 30
-7.549723983703797
 70
    64
  0
VERTEX
  5
437
330
435
100
AcDbEntity
  8
CHAVE
100
AcDbVertex
100
AcDbPolygonMeshVertex
 10
2.5
 20
-19.30678540099115
 30
-7.745921358953971
 70
    64
  0
VERTEX
  5
438
330
435
100
AcDbEntity
  8
CHAVE
100
AcDbVertex
100
AcDbPolygonMeshVertex
 10
2.5
 20
-19.51381941716762
 30
-7.920835940099605
 70
    64
  0
VERTEX
  5
439
330
435
100
AcDbEntity
  8
CHAVE
100
AcDbVertex
100
AcDbPolygonMeshVertex
 10
2.5
 20
-19.73848964148527
 30
-8.072432394070564
 70
    64
  0
VERTEX
  5
43A
330
435
100
AcDbEntity
  8
CHAVE
100
AcDbVertex
100
AcDbPolygonMeshVertex
 10
2.5
 20
-19.97818177652857
 30
-8.198946721124454
 70
    64
  0
VERTEX
  5
43B
330
435
100
AcDbEntity
  8
CHAVE
100
AcDbVertex
100
AcDbPolygonMeshVertex
 10
2.5
 20
-20.23010672760963
 30
-8.298906781019953
 70
    64
  0
VERTEX
  5
43C
330
435
100
AcDbEntity
  8
CHAVE
100
AcDbVertex
100
AcDbPolygonMeshVertex
 10
2.5
 20
-20.49133305710465
 30
-8.371149423067935
 70
    64
  0
VERTEX
  5
43D
330
435
100
AcDbEntity
  8
CHAVE
100
AcDbVertex
100
AcDbPolygonMeshVertex
 10
2.5
 20
-20.75882109511458
 30
-8.41483402073246
 70
    64
  0
VERTEX
  5
43E
330
435
100
AcDbEntity
  8
CHAVE
100
AcDbVertex
100
AcDbPolygonMeshVertex
 10
2.5
 20
-21.0294583095334
 30
-8.429452253290924
 70
    64
  0
VERTEX
  5
43F
330
435
100
AcDbEntity
  8
CHAVE
100
AcDbVertex
100
AcDbPolygonMeshVertex
 10
2.5
 20
-21.30009552395222
 30
-8.41483402073246
 70
    64
  0
VERTEX
  5
440
330
435
100
AcDbEntity
  8
CHAVE
100
AcDbVertex
100
AcDbPolygonMeshVertex
 10
2.5
 20
-21.56758356196214
 30
-8.371149423067935
 70
    64
  0
VERTEX
  5
441
330
435
100
AcDbEntity
  8
CHAVE
100
AcDbVertex
100
AcDbPolygonMeshVertex
 10
2.5
 20
-21.82880989145715
 30
-8.298906781019953
 70
    64
  0
VERTEX
  5
442
330
435
100
AcDbEntity
  8
CHAVE
100
AcDbVertex
100
AcDbPolygonMeshVertex
 10
2.5
 20
-22.08073484253823
 30
-8.198946721124454
 70
    64
  0
VERTEX
  5
443
330
435
100
AcDbEntity
  8
CHAVE
100
AcDbVertex
100
AcDbPolygonMeshVertex
 10
2.5
 20
-22.32042697758152
 30
-8.072432394070564
 70
    64
  0
VERTEX
  5
444
330
435
100
AcDbEntity
  8
CHAVE
100
AcDbVertex
100
AcDbPolygonMeshVertex
 10
2.5
 20
-22.54509720189917
 30
-7.920835940099606
 70
    64
  0
VERTEX
  5
445
330
435
100
AcDbEntity
  8
CHAVE
100
AcDbVertex
100
AcDbPolygonMeshVertex
 10
2.5
 20
-22.75213121807564
 30
-7.745921358953972
 70
    64
  0
VERTEX
  5
446
330
435
100
AcDbEntity
  8
CHAVE
100
AcDbVertex
100
AcDbPolygonMeshVertex
 10
2.5
 20
-22.93911994633607
 30
-7.549723983703798
 70
    64
  0
VERTEX
  5
447
330
435
100
AcDbEntity
  8
CHAVE
100
AcDbVertex
100
AcDbPolygonMeshVertex
 10
-2.5
 20
-19.11979667273072
 30
-7.549723983703797
 70
    64
  0
VERTEX
  5
448
330
435
100
AcDbEntity
  8
CHAVE
100
AcDbVertex
100
AcDbPolygonMeshVertex
 10
-2.5
 20
-19.30678540099115
 30
-7.745921358953971
 70
    64
  0
VERTEX
  5
449
330
435
100
AcDbEntity
  8
CHAVE
100
AcDbVertex
100
AcDbPolygonMeshVertex
 10
-2.5
 20
-19.51381941716762
 30
-7.920835940099605
 70
    64
  0
VERTEX
  5
44A
330
435
100
AcDbEntity
  8
CHAVE
100
AcDbVertex
100
AcDbPolygonMeshVertex
 10
-2.5
 20
-19.73848964148527
 30
-8.072432394070564
 70
    64
  0
VERTEX
  5
44B
330
435
100
AcDbEntity
  8
CHAVE
100
AcDbVertex
100
AcDbPolygonMeshVertex
 10
-2.5
 20
-19.97818177652857
 30
-8.198946721124454
 70
    64
  0
VERTEX
  5
44C
330
435
100
AcDbEntity
  8
CHAVE
100
AcDbVertex
100
AcDbPolygonMeshVertex
 10
-2.5
 20
-20.23010672760963
 30
-8.298906781019953
 70
    64
  0
VERTEX
  5
44D
330
435
100
AcDbEntity
  8
CHAVE
100
AcDbVertex
100
AcDbPolygonMeshVertex
 10
-2.5
 20
-20.49133305710465
 30
-8.371149423067935
 70
    64
  0
VERTEX
  5
44E
330
435
100
AcDbEntity
  8
CHAVE
100
AcDbVertex
100
AcDbPolygonMeshVertex
 10
-2.5
 20
-20.75882109511458
 30
-8.41483402073246
 70
    64
  0
VERTEX
  5
44F
330
435
100
AcDbEntity
  8
CHAVE
100
AcDbVertex
100
AcDbPolygonMeshVertex
 10
-2.5
 20
-21.0294583095334
 30
-8.429452253290924
 70
    64
  0
VERTEX
  5
450
330
435
100
AcDbEntity
  8
CHAVE
100
AcDbVertex
100
AcDbPolygonMeshVertex
 10
-2.5
 20
-21.30009552395222
 30
-8.41483402073246
 70
    64
  0
VERTEX
  5
451
330
435
100
AcDbEntity
  8
CHAVE
100
AcDbVertex
100
AcDbPolygonMeshVertex
 10
-2.5
 20
-21.56758356196214
 30
-8.371149423067935
 70
    64
  0
VERTEX
  5
452
330
435
100
AcDbEntity
  8
CHAVE
100
AcDbVertex
100
AcDbPolygonMeshVertex
 10
-2.5
 20
-21.82880989145716
 30
-8.298906781019953
 70
    64
  0
VERTEX
  5
453
330
435
100
AcDbEntity
  8
CHAVE
100
AcDbVertex
100
AcDbPolygonMeshVertex
 10
-2.5
 20
-22.08073484253823
 30
-8.198946721124454
 70
    64
  0
VERTEX
  5
454
330
435
100
AcDbEntity
  8
CHAVE
100
AcDbVertex
100
AcDbPolygonMeshVertex
 10
-2.5
 20
-22.32042697758152
 30
-8.072432394070564
 70
    64
  0
VERTEX
  5
455
330
435
100
AcDbEntity
  8
CHAVE
100
AcDbVertex
100
AcDbPolygonMeshVertex
 10
-2.5
 20
-22.54509720189917
 30
-7.920835940099606
 70
    64
  0
VERTEX
  5
456
330
435
100
AcDbEntity
  8
CHAVE
100
AcDbVertex
100
AcDbPolygonMeshVertex
 10
-2.5
 20
-22.75213121807564
 30
-7.745921358953971
 70
    64
  0
VERTEX
  5
457
330
435
100
AcDbEntity
  8
CHAVE
100
AcDbVertex
100
AcDbPolygonMeshVertex
 10
-2.5
 20
-22.93911994633607
 30
-7.549723983703797
 70
    64
  0
SEQEND
  5
637
330
435
100
AcDbEntity
  8
CHAVE
  0
LINE
  5
45A
330
1F
100
AcDbEntity
  8
CHAVE
100
AcDbLine
 10
2.5
 20
-26.0
 30
-14.0
 11
2.5
 21
-16.0
 31
-14.0
  0
LINE
  5
45B
330
1F
100
AcDbEntity
  8
CHAVE
100
AcDbLine
 10
-2.5
 20
-25.72984141005442
 30
-14.00000000000001
 11
-2.5
 21
-16.0
 31
-14.0
  0
POLYLINE
  5
4A4
330
1F
100
AcDbEntity
  8
CHAVE
100
AcDbPolygonMesh
 66
     1
 10
0.0
 20
0.0
 30
0.0
 70
    16
 71
     2
 72
    17
  0
VERTEX
  5
4A5
330
4A4
100
AcDbEntity
  8
CHAVE
100
AcDbVertex
100
AcDbPolygonMeshVertex
 10
2.5
 20
-16.0
 30
-14.0
 70
    64
  0
VERTEX
  5
4A6
330
4A4
100
AcDbEntity
  8
CHAVE
100
AcDbVertex
100
AcDbPolygonMeshVertex
 10
2.5
 20
-16.625
 30
-14.0
 70
    64
  0
VERTEX
  5
4A7
330
4A4
100
AcDbEntity
  8
CHAVE
100
AcDbVertex
100
AcDbPolygonMeshVertex
 10
2.5
 20
-17.25
 30
-14.0
 70
    64
  0
VERTEX
  5
4A8
330
4A4
100
AcDbEntity
  8
CHAVE
100
AcDbVertex
100
AcDbPolygonMeshVertex
 10
2.5
 20
-17.875
 30
-14.0
 70
    64
  0
VERTEX
  5
4A9
330
4A4
100
AcDbEntity
  8
CHAVE
100
AcDbVertex
100
AcDbPolygonMeshVertex
 10
2.5
 20
-18.5
 30
-14.0
 70
    64
  0
VERTEX
  5
4AA
330
4A4
100
AcDbEntity
  8
CHAVE
100
AcDbVertex
100
AcDbPolygonMeshVertex
 10
2.5
 20
-19.125
 30
-14.0
 70
    64
  0
VERTEX
  5
4AB
330
4A4
100
AcDbEntity
  8
CHAVE
100
AcDbVertex
100
AcDbPolygonMeshVertex
 10
2.5
 20
-19.75
 30
-14.0
 70
    64
  0
VERTEX
  5
4AC
330
4A4
100
AcDbEntity
  8
CHAVE
100
AcDbVertex
100
AcDbPolygonMeshVertex
 10
2.5
 20
-20.375
 30
-14.0
 70
    64
  0
VERTEX
  5
4AD
330
4A4
100
AcDbEntity
  8
CHAVE
100
AcDbVertex
100
AcDbPolygonMeshVertex
 10
2.5
 20
-21.0
 30
-14.0
 70
    64
  0
VERTEX
  5
4AE
330
4A4
100
AcDbEntity
  8
CHAVE
100
AcDbVertex
100
AcDbPolygonMeshVertex
 10
2.5
 20
-21.625
 30
-14.0
 70
    64
  0
VERTEX
  5
4AF
330
4A4
100
AcDbEntity
  8
CHAVE
100
AcDbVertex
100
AcDbPolygonMeshVertex
 10
2.5
 20
-22.25
 30
-14.0
 70
    64
  0
VERTEX
  5
4B0
330
4A4
100
AcDbEntity
  8
CHAVE
100
AcDbVertex
100
AcDbPolygonMeshVertex
 10
2.5
 20
-22.875
 30
-14.0
 70
    64
  0
VERTEX
  5
4B1
330
4A4
100
AcDbEntity
  8
CHAVE
100
AcDbVertex
100
AcDbPolygonMeshVertex
 10
2.5
 20
-23.5
 30
-14.0
 70
    64
  0
VERTEX
  5
4B2
330
4A4
100
AcDbEntity
  8
CHAVE
100
AcDbVertex
100
AcDbPolygonMeshVertex
 10
2.5
 20
-24.125
 30
-14.0
 70
    64
  0
VERTEX
  5
4B3
330
4A4
100
AcDbEntity
  8
CHAVE
100
AcDbVertex
100
AcDbPolygonMeshVertex
 10
2.5
 20
-24.75
 30
-14.0
 70
    64
  0
VERTEX
  5
4B4
330
4A4
100
AcDbEntity
  8
CHAVE
100
AcDbVertex
100
AcDbPolygonMeshVertex
 10
2.5
 20
-25.375
 30
-14.0
 70
    64
  0
VERTEX
  5
4B5
330
4A4
100
AcDbEntity
  8
CHAVE
100
AcDbVertex
100
AcDbPolygonMeshVertex
 10
2.5
 20
-26.0
 30
-14.0
 70
    64
  0
VERTEX
  5
4B6
330
4A4
100
AcDbEntity
  8
CHAVE
100
AcDbVertex
100
AcDbPolygonMeshVertex
 10
2.5
 20
-19.11979667273072
 30
-7.549723983703797
 70
    64
  0
VERTEX
  5
4B7
330
4A4
100
AcDbEntity
  8
CHAVE
100
AcDbVertex
100
AcDbPolygonMeshVertex
 10
2.5
 20
-19.30678540099115
 30
-7.745921358953971
 70
    64
  0
VERTEX
  5
4B8
330
4A4
100
AcDbEntity
  8
CHAVE
100
AcDbVertex
100
AcDbPolygonMeshVertex
 10
2.5
 20
-19.51381941716762
 30
-7.920835940099605
 70
    64
  0
VERTEX
  5
4B9
330
4A4
100
AcDbEntity
  8
CHAVE
100
AcDbVertex
100
AcDbPolygonMeshVertex
 10
2.5
 20
-19.73848964148527
 30
-8.072432394070564
 70
    64
  0
VERTEX
  5
4BA
330
4A4
100
AcDbEntity
  8
CHAVE
100
AcDbVertex
100
AcDbPolygonMeshVertex
 10
2.5
 20
-19.97818177652857
 30
-8.198946721124454
 70
    64
  0
VERTEX
  5
4BB
330
4A4
100
AcDbEntity
  8
CHAVE
100
AcDbVertex
100
AcDbPolygonMeshVertex
 10
2.5
 20
-20.23010672760963
 30
-8.298906781019953
 70
    64
  0
VERTEX
  5
4BC
330
4A4
100
AcDbEntity
  8
CHAVE
100
AcDbVertex
100
AcDbPolygonMeshVertex
 10
2.5
 20
-20.49133305710465
 30
-8.371149423067935
 70
    64
  0
VERTEX
  5
4BD
330
4A4
100
AcDbEntity
  8
CHAVE
100
AcDbVertex
100
AcDbPolygonMeshVertex
 10
2.5
 20
-20.75882109511458
 30
-8.41483402073246
 70
    64
  0
VERTEX
  5
4BE
330
4A4
100
AcDbEntity
  8
CHAVE
100
AcDbVertex
100
AcDbPolygonMeshVertex
 10
2.5
 20
-21.0294583095334
 30
-8.429452253290924
 70
    64
  0
VERTEX
  5
4BF
330
4A4
100
AcDbEntity
  8
CHAVE
100
AcDbVertex
100
AcDbPolygonMeshVertex
 10
2.5
 20
-21.30009552395222
 30
-8.41483402073246
 70
    64
  0
VERTEX
  5
4C0
330
4A4
100
AcDbEntity
  8
CHAVE
100
AcDbVertex
100
AcDbPolygonMeshVertex
 10
2.5
 20
-21.56758356196214
 30
-8.371149423067935
 70
    64
  0
VERTEX
  5
4C1
330
4A4
100
AcDbEntity
  8
CHAVE
100
AcDbVertex
100
AcDbPolygonMeshVertex
 10
2.5
 20
-21.82880989145715
 30
-8.298906781019953
 70
    64
  0
VERTEX
  5
4C2
330
4A4
100
AcDbEntity
  8
CHAVE
100
AcDbVertex
100
AcDbPolygonMeshVertex
 10
2.5
 20
-22.08073484253823
 30
-8.198946721124454
 70
    64
  0
VERTEX
  5
4C3
330
4A4
100
AcDbEntity
  8
CHAVE
100
AcDbVertex
100
AcDbPolygonMeshVertex
 10
2.5
 20
-22.32042697758152
 30
-8.072432394070564
 70
    64
  0
VERTEX
  5
4C4
330
4A4
100
AcDbEntity
  8
CHAVE
100
AcDbVertex
100
AcDbPolygonMeshVertex
 10
2.5
 20
-22.54509720189917
 30
-7.920835940099606
 70
    64
  0
VERTEX
  5
4C5
330
4A4
100
AcDbEntity
  8
CHAVE
100
AcDbVertex
100
AcDbPolygonMeshVertex
 10
2.5
 20
-22.75213121807564
 30
-7.745921358953972
 70
    64
  0
VERTEX
  5
4C6
330
4A4
100
AcDbEntity
  8
CHAVE
100
AcDbVertex
100
AcDbPolygonMeshVertex
 10
2.5
 20
-22.93911994633607
 30
-7.549723983703798
 70
    64
  0
SEQEND
  5
638
330
4A4
100
AcDbEntity
  8
CHAVE
  0
POLYLINE
  5
4C8
330
1F
100
AcDbEntity
  8
CHAVE
100
AcDbPolygonMesh
 66
     1
 10
0.0
 20
0.0
 30
0.0
 70
    16
 71
     2
 72
    17
  0
VERTEX
  5
4C9
330
4C8
100
AcDbEntity
  8
CHAVE
100
AcDbVertex
100
AcDbPolygonMeshVertex
 10
-2.5
 20
-19.11979667273072
 30
-7.549723983703797
 70
    64
  0
VERTEX
  5
4CA
330
4C8
100
AcDbEntity
  8
CHAVE
100
AcDbVertex
100
AcDbPolygonMeshVertex
 10
-2.5
 20
-19.30678540099115
 30
-7.745921358953971
 70
    64
  0
VERTEX
  5
4CB
330
4C8
100
AcDbEntity
  8
CHAVE
100
AcDbVertex
100
AcDbPolygonMeshVertex
 10
-2.5
 20
-19.51381941716762
 30
-7.920835940099605
 70
    64
  0
VERTEX
  5
4CC
330
4C8
100
AcDbEntity
  8
CHAVE
100
AcDbVertex
100
AcDbPolygonMeshVertex
 10
-2.5
 20
-19.73848964148527
 30
-8.072432394070564
 70
    64
  0
VERTEX
  5
4CD
330
4C8
100
AcDbEntity
  8
CHAVE
100
AcDbVertex
100
AcDbPolygonMeshVertex
 10
-2.5
 20
-19.97818177652857
 30
-8.198946721124454
 70
    64
  0
VERTEX
  5
4CE
330
4C8
100
AcDbEntity
  8
CHAVE
100
AcDbVertex
100
AcDbPolygonMeshVertex
 10
-2.5
 20
-20.23010672760963
 30
-8.298906781019953
 70
    64
  0
VERTEX
  5
4CF
330
4C8
100
AcDbEntity
  8
CHAVE
100
AcDbVertex
100
AcDbPolygonMeshVertex
 10
-2.5
 20
-20.49133305710465
 30
-8.371149423067935
 70
    64
  0
VERTEX
  5
4D0
330
4C8
100
AcDbEntity
  8
CHAVE
100
AcDbVertex
100
AcDbPolygonMeshVertex
 10
-2.5
 20
-20.75882109511458
 30
-8.41483402073246
 70
    64
  0
VERTEX
  5
4D1
330
4C8
100
AcDbEntity
  8
CHAVE
100
AcDbVertex
100
AcDbPolygonMeshVertex
 10
-2.5
 20
-21.0294583095334
 30
-8.429452253290924
 70
    64
  0
VERTEX
  5
4D2
330
4C8
100
AcDbEntity
  8
CHAVE
100
AcDbVertex
100
AcDbPolygonMeshVertex
 10
-2.5
 20
-21.30009552395222
 30
-8.41483402073246
 70
    64
  0
VERTEX
  5
4D3
330
4C8
100
AcDbEntity
  8
CHAVE
100
AcDbVertex
100
AcDbPolygonMeshVertex
 10
-2.5
 20
-21.56758356196214
 30
-8.371149423067935
 70
    64
  0
VERTEX
  5
4D4
330
4C8
100
AcDbEntity
  8
CHAVE
100
AcDbVertex
100
AcDbPolygonMeshVertex
 10
-2.5
 20
-21.82880989145716
 30
-8.298906781019953
 70
    64
  0
VERTEX
  5
4D5
330
4C8
100
AcDbEntity
  8
CHAVE
100
AcDbVertex
100
AcDbPolygonMeshVertex
 10
-2.5
 20
-22.08073484253823
 30
-8.198946721124454
 70
    64
  0
VERTEX
  5
4D6
330
4C8
100
AcDbEntity
  8
CHAVE
100
AcDbVertex
100
AcDbPolygonMeshVertex
 10
-2.5
 20
-22.32042697758152
 30
-8.072432394070564
 70
    64
  0
VERTEX
  5
4D7
330
4C8
100
AcDbEntity
  8
CHAVE
100
AcDbVertex
100
AcDbPolygonMeshVertex
 10
-2.5
 20
-22.54509720189917
 30
-7.920835940099606
 70
    64
  0
VERTEX
  5
4D8
330
4C8
100
AcDbEntity
  8
CHAVE
100
AcDbVertex
100
AcDbPolygonMeshVertex
 10
-2.5
 20
-22.75213121807564
 30
-7.745921358953971
 70
    64
  0
VERTEX
  5
4D9
330
4C8
100
AcDbEntity
  8
CHAVE
100
AcDbVertex
100
AcDbPolygonMeshVertex
 10
-2.5
 20
-22.93911994633607
 30
-7.549723983703797
 70
    64
  0
VERTEX
  5
4DA
330
4C8
100
AcDbEntity
  8
CHAVE
100
AcDbVertex
100
AcDbPolygonMeshVertex
 10
-2.5
 20
-16.0
 30
-14.0
 70
    64
  0
VERTEX
  5
4DB
330
4C8
100
AcDbEntity
  8
CHAVE
100
AcDbVertex
100
AcDbPolygonMeshVertex
 10
-2.5
 20
-16.6081150881284
 30
-14.0
 70
    64
  0
VERTEX
  5
4DC
330
4C8
100
AcDbEntity
  8
CHAVE
100
AcDbVertex
100
AcDbPolygonMeshVertex
 10
-2.5
 20
-17.2162301762568
 30
-14.0
 70
    64
  0
VERTEX
  5
4DD
330
4C8
100
AcDbEntity
  8
CHAVE
100
AcDbVertex
100
AcDbPolygonMeshVertex
 10
-2.5
 20
-17.8243452643852
 30
-14.0
 70
    64
  0
VERTEX
  5
4DE
330
4C8
100
AcDbEntity
  8
CHAVE
100
AcDbVertex
100
AcDbPolygonMeshVertex
 10
-2.5
 20
-18.4324603525136
 30
-14.0
 70
    64
  0
VERTEX
  5
4DF
330
4C8
100
AcDbEntity
  8
CHAVE
100
AcDbVertex
100
AcDbPolygonMeshVertex
 10
-2.5
 20
-19.040575440642
 30
-14.0
 70
    64
  0
VERTEX
  5
4E0
330
4C8
100
AcDbEntity
  8
CHAVE
100
AcDbVertex
100
AcDbPolygonMeshVertex
 10
-2.5
 20
-19.64869052877041
 30
-14.0
 70
    64
  0
VERTEX
  5
4E1
330
4C8
100
AcDbEntity
  8
CHAVE
100
AcDbVertex
100
AcDbPolygonMeshVertex
 10
-2.5
 20
-20.25680561689881
 30
-14.0
 70
    64
  0
VERTEX
  5
4E2
330
4C8
100
AcDbEntity
  8
CHAVE
100
AcDbVertex
100
AcDbPolygonMeshVertex
 10
-2.5
 20
-20.86492070502721
 30
-14.0
 70
    64
  0
VERTEX
  5
4E3
330
4C8
100
AcDbEntity
  8
CHAVE
100
AcDbVertex
100
AcDbPolygonMeshVertex
 10
-2.5
 20
-21.47303579315561
 30
-14.0
 70
    64
  0
VERTEX
  5
4E4
330
4C8
100
AcDbEntity
  8
CHAVE
100
AcDbVertex
100
AcDbPolygonMeshVertex
 10
-2.5
 20
-22.08115088128401
 30
-14.0
 70
    64
  0
VERTEX
  5
4E5
330
4C8
100
AcDbEntity
  8
CHAVE
100
AcDbVertex
100
AcDbPolygonMeshVertex
 10
-2.5
 20
-22.68926596941241
 30
-14.00000000000001
 70
    64
  0
VERTEX
  5
4E6
330
4C8
100
AcDbEntity
  8
CHAVE
100
AcDbVertex
100
AcDbPolygonMeshVertex
 10
-2.5
 20
-23.29738105754081
 30
-14.00000000000001
 70
    64
  0
VERTEX
  5
4E7
330
4C8
100
AcDbEntity
  8
CHAVE
100
AcDbVertex
100
AcDbPolygonMeshVertex
 10
-2.5
 20
-23.90549614566921
 30
-14.00000000000001
 70
    64
  0
VERTEX
  5
4E8
330
4C8
100
AcDbEntity
  8
CHAVE
100
AcDbVertex
100
AcDbPolygonMeshVertex
 10
-2.5
 20
-24.51361123379762
 30
-14.00000000000001
 70
    64
  0
VERTEX
  5
4E9
330
4C8
100
AcDbEntity
  8
CHAVE
100
AcDbVertex
100
AcDbPolygonMeshVertex
 10
-2.5
 20
-25.12172632192602
 30
-14.00000000000001
 70
    64
  0
VERTEX
  5
4EA
330
4C8
100
AcDbEntity
  8
CHAVE
100
AcDbVertex
100
AcDbPolygonMeshVertex
 10
-2.5
 20
-25.72984141005442
 30
-14.00000000000001
 70
    64
  0
SEQEND
  5
639
330
4C8
100
AcDbEntity
  8
CHAVE
  0
LINE
  5
4EC
330
1F
100
AcDbEntity
  8
CHAVE
100
AcDbLine
 10
-2.5
 20
-25.72984141005402
 30
14.0
 11
-2.5
 21
-18.5
 31
14.0
  0
LINE
  5
4EE
330
1F
100
AcDbEntity
  8
CHAVE
100
AcDbLine
 10
2.5
 20
-18.5
 30
14.0
 11
2.5
 21
-26.0
 31
14.0
  0
POLYLINE
  5
4EF
330
1F
100
AcDbEntity
  8
CHAVE
100
AcDbPolygonMesh
 66
     1
 10
0.0
 20
0.0
 30
0.0
 70
    16
 71
     2
 72
    17
  0
VERTEX
  5
4F0
330
4EF
100
AcDbEntity
  8
CHAVE
100
AcDbVertex
100
AcDbPolygonMeshVertex
 10
-2.5
 20
-25.72984141005402
 30
14.0
 70
    64
  0
VERTEX
  5
4F1
330
4EF
100
AcDbEntity
  8
CHAVE
100
AcDbVertex
100
AcDbPolygonMeshVertex
 10
-2.5
 20
-25.27797632192565
 30
14.0
 70
    64
  0
VERTEX
  5
4F2
330
4EF
100
AcDbEntity
  8
CHAVE
100
AcDbVertex
100
AcDbPolygonMeshVertex
 10
-2.5
 20
-24.82611123379727
 30
14.0
 70
    64
  0
VERTEX
  5
4F3
330
4EF
100
AcDbEntity
  8
CHAVE
100
AcDbVertex
100
AcDbPolygonMeshVertex
 10
-2.5
 20
-24.3742461456689
 30
14.0
 70
    64
  0
VERTEX
  5
4F4
330
4EF
100
AcDbEntity
  8
CHAVE
100
AcDbVertex
100
AcDbPolygonMeshVertex
 10
-2.5
 20
-23.92238105754052
 30
14.0
 70
    64
  0
VERTEX
  5
4F5
330
4EF
100
AcDbEntity
  8
CHAVE
100
AcDbVertex
100
AcDbPolygonMeshVertex
 10
-2.5
 20
-23.47051596941214
 30
14.0
 70
    64
  0
VERTEX
  5
4F6
330
4EF
100
AcDbEntity
  8
CHAVE
100
AcDbVertex
100
AcDbPolygonMeshVertex
 10
-2.5
 20
-23.01865088128377
 30
14.0
 70
    64
  0
VERTEX
  5
4F7
330
4EF
100
AcDbEntity
  8
CHAVE
100
AcDbVertex
100
AcDbPolygonMeshVertex
 10
-2.5
 20
-22.56678579315539
 30
14.0
 70
    64
  0
VERTEX
  5
4F8
330
4EF
100
AcDbEntity
  8
CHAVE
100
AcDbVertex
100
AcDbPolygonMeshVertex
 10
-2.5
 20
-22.11492070502701
 30
14.0
 70
    64
  0
VERTEX
  5
4F9
330
4EF
100
AcDbEntity
  8
CHAVE
100
AcDbVertex
100
AcDbPolygonMeshVertex
 10
-2.5
 20
-21.66305561689864
 30
14.0
 70
    64
  0
VERTEX
  5
4FA
330
4EF
100
AcDbEntity
  8
CHAVE
100
AcDbVertex
100
AcDbPolygonMeshVertex
 10
-2.5
 20
-21.21119052877026
 30
14.0
 70
    64
  0
VERTEX
  5
4FB
330
4EF
100
AcDbEntity
  8
CHAVE
100
AcDbVertex
100
AcDbPolygonMeshVertex
 10
-2.5
 20
-20.75932544064188
 30
14.0
 70
    64
  0
VERTEX
  5
4FC
330
4EF
100
AcDbEntity
  8
CHAVE
100
AcDbVertex
100
AcDbPolygonMeshVertex
 10
-2.5
 20
-20.30746035251351
 30
14.0
 70
    64
  0
VERTEX
  5
4FD
330
4EF
100
AcDbEntity
  8
CHAVE
100
AcDbVertex
100
AcDbPolygonMeshVertex
 10
-2.5
 20
-19.85559526438513
 30
14.0
 70
    64
  0
VERTEX
  5
4FE
330
4EF
100
AcDbEntity
  8
CHAVE
100
AcDbVertex
100
AcDbPolygonMeshVertex
 10
-2.5
 20
-19.40373017625675
 30
14.0
 70
    64
  0
VERTEX
  5
4FF
330
4EF
100
AcDbEntity
  8
CHAVE
100
AcDbVertex
100
AcDbPolygonMeshVertex
 10
-2.5
 20
-18.95186508812838
 30
14.0
 70
    64
  0
VERTEX
  5
500
330
4EF
100
AcDbEntity
  8
CHAVE
100
AcDbVertex
100
AcDbPolygonMeshVertex
 10
-2.5
 20
-18.5
 30
14.0
 70
    64
  0
VERTEX
  5
501
330
4EF
100
AcDbEntity
  8
CHAVE
100
AcDbVertex
100
AcDbPolygonMeshVertex
 10
-2.5
 20
-22.93911994633607
 30
7.492533832341898
 70
    64
  0
VERTEX
  5
502
330
4EF
100
AcDbEntity
  8
CHAVE
100
AcDbVertex
100
AcDbPolygonMeshVertex
 10
-2.5
 20
-22.75213121807564
 30
7.688731207592073
 70
    64
  0
VERTEX
  5
503
330
4EF
100
AcDbEntity
  8
CHAVE
100
AcDbVertex
100
AcDbPolygonMeshVertex
 10
-2.5
 20
-22.54509720189917
 30
7.863645788737706
 70
    64
  0
VERTEX
  5
504
330
4EF
100
AcDbEntity
  8
CHAVE
100
AcDbVertex
100
AcDbPolygonMeshVertex
 10
-2.5
 20
-22.32042697758152
 30
8.015242242708664
 70
    64
  0
VERTEX
  5
505
330
4EF
100
AcDbEntity
  8
CHAVE
100
AcDbVertex
100
AcDbPolygonMeshVertex
 10
-2.5
 20
-22.08073484253823
 30
8.141756569762554
 70
    64
  0
VERTEX
  5
506
330
4EF
100
AcDbEntity
  8
CHAVE
100
AcDbVertex
100
AcDbPolygonMeshVertex
 10
-2.5
 20
-21.82880989145716
 30
8.241716629658054
 70
    64
  0
VERTEX
  5
507
330
4EF
100
AcDbEntity
  8
CHAVE
100
AcDbVertex
100
AcDbPolygonMeshVertex
 10
-2.5
 20
-21.56758356196214
 30
8.313959271706036
 70
    64
  0
VERTEX
  5
508
330
4EF
100
AcDbEntity
  8
CHAVE
100
AcDbVertex
100
AcDbPolygonMeshVertex
 10
-2.5
 20
-21.30009552395222
 30
8.35764386937056
 70
    64
  0
VERTEX
  5
509
330
4EF
100
AcDbEntity
  8
CHAVE
100
AcDbVertex
100
AcDbPolygonMeshVertex
 10
-2.5
 20
-21.0294583095334
 30
8.372262101929024
 70
    64
  0
VERTEX
  5
50A
330
4EF
100
AcDbEntity
  8
CHAVE
100
AcDbVertex
100
AcDbPolygonMeshVertex
 10
-2.5
 20
-20.75882109511458
 30
8.35764386937056
 70
    64
  0
VERTEX
  5
50B
330
4EF
100
AcDbEntity
  8
CHAVE
100
AcDbVertex
100
AcDbPolygonMeshVertex
 10
-2.5
 20
-20.49133305710465
 30
8.313959271706036
 70
    64
  0
VERTEX
  5
50C
330
4EF
100
AcDbEntity
  8
CHAVE
100
AcDbVertex
100
AcDbPolygonMeshVertex
 10
-2.5
 20
-20.23010672760963
 30
8.241716629658054
 70
    64
  0
VERTEX
  5
50D
330
4EF
100
AcDbEntity
  8
CHAVE
100
AcDbVertex
100
AcDbPolygonMeshVertex
 10
-2.5
 20
-19.97818177652857
 30
8.141756569762554
 70
    64
  0
VERTEX
  5
50E
330
4EF
100
AcDbEntity
  8
CHAVE
100
AcDbVertex
100
AcDbPolygonMeshVertex
 10
-2.5
 20
-19.73848964148527
 30
8.015242242708664
 70
    64
  0
VERTEX
  5
50F
330
4EF
100
AcDbEntity
  8
CHAVE
100
AcDbVertex
100
AcDbPolygonMeshVertex
 10
-2.5
 20
-19.51381941716762
 30
7.863645788737706
 70
    64
  0
VERTEX
  5
510
330
4EF
100
AcDbEntity
  8
CHAVE
100
AcDbVertex
100
AcDbPolygonMeshVertex
 10
-2.5
 20
-19.30678540099115
 30
7.688731207592072
 70
    64
  0
VERTEX
  5
511
330
4EF
100
AcDbEntity
  8
CHAVE
100
AcDbVertex
100
AcDbPolygonMeshVertex
 10
-2.5
 20
-19.11979667273072
 30
7.492533832341897
 70
    64
  0
SEQEND
  5
63A
330
4EF
100
AcDbEntity
  8
CHAVE
  0
POLYLINE
  5
57D
330
1F
100
AcDbEntity
  8
CHAVE
100
AcDbPolygonMesh
 66
     1
 10
0.0
 20
0.0
 30
0.0
 70
    16
 71
     2
 72
    17
  0
VERTEX
  5
57E
330
57D
100
AcDbEntity
  8
CHAVE
100
AcDbVertex
100
AcDbPolygonMeshVertex
 10
2.5
 20
-26.0
 30
14.0
 70
    64
  0
VERTEX
  5
57F
330
57D
100
AcDbEntity
  8
CHAVE
100
AcDbVertex
100
AcDbPolygonMeshVertex
 10
2.5
 20
-25.53125
 30
14.0
 70
    64
  0
VERTEX
  5
580
330
57D
100
AcDbEntity
  8
CHAVE
100
AcDbVertex
100
AcDbPolygonMeshVertex
 10
2.5
 20
-25.0625
 30
14.0
 70
    64
  0
VERTEX
  5
581
330
57D
100
AcDbEntity
  8
CHAVE
100
AcDbVertex
100
AcDbPolygonMeshVertex
 10
2.5
 20
-24.59375
 30
14.0
 70
    64
  0
VERTEX
  5
582
330
57D
100
AcDbEntity
  8
CHAVE
100
AcDbVertex
100
AcDbPolygonMeshVertex
 10
2.5
 20
-24.125
 30
14.0
 70
    64
  0
VERTEX
  5
583
330
57D
100
AcDbEntity
  8
CHAVE
100
AcDbVertex
100
AcDbPolygonMeshVertex
 10
2.5
 20
-23.65625
 30
14.0
 70
    64
  0
VERTEX
  5
584
330
57D
100
AcDbEntity
  8
CHAVE
100
AcDbVertex
100
AcDbPolygonMeshVertex
 10
2.5
 20
-23.1875
 30
14.0
 70
    64
  0
VERTEX
  5
585
330
57D
100
AcDbEntity
  8
CHAVE
100
AcDbVertex
100
AcDbPolygonMeshVertex
 10
2.5
 20
-22.71875
 30
14.0
 70
    64
  0
VERTEX
  5
586
330
57D
100
AcDbEntity
  8
CHAVE
100
AcDbVertex
100
AcDbPolygonMeshVertex
 10
2.5
 20
-22.25
 30
14.0
 70
    64
  0
VERTEX
  5
587
330
57D
100
AcDbEntity
  8
CHAVE
100
AcDbVertex
100
AcDbPolygonMeshVertex
 10
2.5
 20
-21.78125
 30
14.0
 70
    64
  0
VERTEX
  5
588
330
57D
100
AcDbEntity
  8
CHAVE
100
AcDbVertex
100
AcDbPolygonMeshVertex
 10
2.5
 20
-21.3125
 30
14.0
 70
    64
  0
VERTEX
  5
589
330
57D
100
AcDbEntity
  8
CHAVE
100
AcDbVertex
100
AcDbPolygonMeshVertex
 10
2.5
 20
-20.84375
 30
14.0
 70
    64
  0
VERTEX
  5
58A
330
57D
100
AcDbEntity
  8
CHAVE
100
AcDbVertex
100
AcDbPolygonMeshVertex
 10
2.5
 20
-20.375
 30
14.0
 70
    64
  0
VERTEX
  5
58B
330
57D
100
AcDbEntity
  8
CHAVE
100
AcDbVertex
100
AcDbPolygonMeshVertex
 10
2.5
 20
-19.90625
 30
14.0
 70
    64
  0
VERTEX
  5
58C
330
57D
100
AcDbEntity
  8
CHAVE
100
AcDbVertex
100
AcDbPolygonMeshVertex
 10
2.5
 20
-19.4375
 30
14.0
 70
    64
  0
VERTEX
  5
58D
330
57D
100
AcDbEntity
  8
CHAVE
100
AcDbVertex
100
AcDbPolygonMeshVertex
 10
2.5
 20
-18.96875
 30
14.0
 70
    64
  0
VERTEX
  5
58E
330
57D
100
AcDbEntity
  8
CHAVE
100
AcDbVertex
100
AcDbPolygonMeshVertex
 10
2.5
 20
-18.5
 30
14.0
 70
    64
  0
VERTEX
  5
58F
330
57D
100
AcDbEntity
  8
CHAVE
100
AcDbVertex
100
AcDbPolygonMeshVertex
 10
2.5
 20
-22.93911994633607
 30
7.492533832341898
 70
    64
  0
VERTEX
  5
590
330
57D
100
AcDbEntity
  8
CHAVE
100
AcDbVertex
100
AcDbPolygonMeshVertex
 10
2.5
 20
-22.75213121807564
 30
7.688731207592073
 70
    64
  0
VERTEX
  5
591
330
57D
100
AcDbEntity
  8
CHAVE
100
AcDbVertex
100
AcDbPolygonMeshVertex
 10
2.5
 20
-22.54509720189917
 30
7.863645788737706
 70
    64
  0
VERTEX
  5
592
330
57D
100
AcDbEntity
  8
CHAVE
100
AcDbVertex
100
AcDbPolygonMeshVertex
 10
2.5
 20
-22.32042697758152
 30
8.015242242708664
 70
    64
  0
VERTEX
  5
593
330
57D
100
AcDbEntity
  8
CHAVE
100
AcDbVertex
100
AcDbPolygonMeshVertex
 10
2.5
 20
-22.08073484253823
 30
8.141756569762554
 70
    64
  0
VERTEX
  5
594
330
57D
100
AcDbEntity
  8
CHAVE
100
AcDbVertex
100
AcDbPolygonMeshVertex
 10
2.5
 20
-21.82880989145716
 30
8.241716629658054
 70
    64
  0
VERTEX
  5
595
330
57D
100
AcDbEntity
  8
CHAVE
100
AcDbVertex
100
AcDbPolygonMeshVertex
 10
2.5
 20
-21.56758356196214
 30
8.313959271706036
 70
    64
  0
VERTEX
  5
596
330
57D
100
AcDbEntity
  8
CHAVE
100
AcDbVertex
100
AcDbPolygonMeshVertex
 10
2.5
 20
-21.30009552395222
 30
8.35764386937056
 70
    64
  0
VERTEX
  5
597
330
57D
100
AcDbEntity
  8
CHAVE
100
AcDbVertex
100
AcDbPolygonMeshVertex
 10
2.5
 20
-21.0294583095334
 30
8.372262101929024
 70
    64
  0
VERTEX
  5
598
330
57D
100
AcDbEntity
  8
CHAVE
100
AcDbVertex
100
AcDbPolygonMeshVertex
 10
2.5
 20
-20.75882109511458
 30
8.35764386937056
 70
    64
  0
VERTEX
  5
599
330
57D
100
AcDbEntity
  8
CHAVE
100
AcDbVertex
100
AcDbPolygonMeshVertex
 10
2.5
 20
-20.49133305710465
 30
8.313959271706036
 70
    64
  0
VERTEX
  5
59A
330
57D
100
AcDbEntity
  8
CHAVE
100
AcDbVertex
100
AcDbPolygonMeshVertex
 10
2.5
 20
-20.23010672760963
 30
8.241716629658054
 70
    64
  0
VERTEX
  5
59B
330
57D
100
AcDbEntity
  8
CHAVE
100
AcDbVertex
100
AcDbPolygonMeshVertex
 10
2.5
 20
-19.97818177652857
 30
8.141756569762554
 70
    64
  0
VERTEX
  5
59C
330
57D
100
AcDbEntity
  8
CHAVE
100
AcDbVertex
100
AcDbPolygonMeshVertex
 10
2.5
 20
-19.73848964148527
 30
8.015242242708664
 70
    64
  0
VERTEX
  5
59D
330
57D
100
AcDbEntity
  8
CHAVE
100
AcDbVertex
100
AcDbPolygonMeshVertex
 10
2.5
 20
-19.51381941716762
 30
7.863645788737706
 70
    64
  0
VERTEX
  5
59E
330
57D
100
AcDbEntity
  8
CHAVE
100
AcDbVertex
100
AcDbPolygonMeshVertex
 10
2.5
 20
-19.30678540099115
 30
7.688731207592072
 70
    64
  0
VERTEX
  5
59F
330
57D
100
AcDbEntity
  8
CHAVE
100
AcDbVertex
100
AcDbPolygonMeshVertex
 10
2.5
 20
-19.11979667273072
 30
7.492533832341897
 70
    64
  0
SEQEND
  5
63B
330
57D
100
AcDbEntity
  8
CHAVE
  0
3DFACE
  5
5A1
330
1F
100
AcDbEntity
  8
CHAVE
100
AcDbFace
 10
-2.5
 20
-6.0
 30
9.0
 11
2.5
 21
-6.0
 31
9.0
 12
2.5
 22
-6.0
 32
-14.0
 13
-2.5
 23
-6.0
 33
-14.0
  0
3DFACE
  5
5A2
330
1F
100
AcDbEntity
  8
CHAVE
100
AcDbFace
 10
2.5
 20
-26.0
 30
-14.0
 11
-2.5
 21
-25.72984141005442
 31
-14.00000000000001
 12
-2.5
 22
-6.0
 32
-14.0
 13
2.5
 23
-6.0
 33
-14.0
  0
3DFACE
  5
5A4
330
1F
100
AcDbEntity
  8
CHAVE
100
AcDbFace
 10
2.5
 20
-19.11979667273072
 30
-7.549723983703797
 11
2.5
 21
-16.0
 31
-14.0
 12
2.5
 22
-6.0
 32
-14.0
 13
2.5
 23
-6.0
 33
9.0
  0
3DFACE
  5
5A5
330
1F
100
AcDbEntity
  8
CHAVE
100
AcDbFace
 10
-2.5
 20
-19.11979667273072
 30
7.492533832341897
 11
2.5
 21
-19.11979667273072
 31
7.492533832341898
 12
2.5
 22
-19.11979667273072
 32
-7.549723983703799
 13
-2.5
 23
-19.11979667273072
 33
-7.549723983703799
  0
3DFACE
  5
5A6
330
1F
100
AcDbEntity
  8
CHAVE
100
AcDbFace
 10
2.5
 20
-19.11979667273072
 30
7.492533832341898
 11
2.5
 21
-19.11979667273072
 31
-7.549723983703799
 12
2.5
 22
-6.0
 32
9.0
 13
2.5
 23
-6.0
 33
9.0
  0
LINE
  5
5A7
330
1F
100
AcDbEntity
  8
CHAVE
100
AcDbLine
 10
2.5
 20
-6.0
 30
9.0
 11
2.5
 21
-12.55989833636536
 31
8.24626691617095
  0
POLYLINE
  5
5A8
330
1F
100
AcDbEntity
  8
CHAVE
100
AcDbPolygonMesh
 66
     1
 10
0.0
 20
0.0
 30
0.0
 70
    16
 71
     2
 72
    17
  0
VERTEX
  5
5A9
330
5A8
100
AcDbEntity
  8
CHAVE
100
AcDbVertex
100
AcDbPolygonMeshVertex
 10
2.5
 20
-6.0
 30
9.0
 70
    64
  0
VERTEX
  5
5AA
330
5A8
100
AcDbEntity
  8
CHAVE
100
AcDbVertex
100
AcDbPolygonMeshVertex
 10
2.5
 20
-6.024076366639015
 30
9.490085701647804
 70
    64
  0
VERTEX
  5
5AB
330
5A8
100
AcDbEntity
  8
CHAVE
100
AcDbVertex
100
AcDbPolygonMeshVertex
 10
2.5
 20
-6.096073597983848
 30
9.975451610080642
 70
    64
  0
VERTEX
  5
5AC
330
5A8
100
AcDbEntity
  8
CHAVE
100
AcDbVertex
100
AcDbPolygonMeshVertex
 10
2.5
 20
-6.215298321338955
 30
10.45142338627231
 70
    64
  0
VERTEX
  5
5AD
330
5A8
100
AcDbEntity
  8
CHAVE
100
AcDbVertex
100
AcDbPolygonMeshVertex
 10
2.5
 20
-6.380602337443566
 30
10.91341716182545
 70
    64
  0
VERTEX
  5
5AE
330
5A8
100
AcDbEntity
  8
CHAVE
100
AcDbVertex
100
AcDbPolygonMeshVertex
 10
2.5
 20
-6.590393678258224
 30
11.35698368412999
 70
    64
  0
VERTEX
  5
5AF
330
5A8
100
AcDbEntity
  8
CHAVE
100
AcDbVertex
100
AcDbPolygonMeshVertex
 10
2.5
 20
-6.842651938487274
 30
11.77785116509801
 70
    64
  0
VERTEX
  5
5B0
330
5A8
100
AcDbEntity
  8
CHAVE
100
AcDbVertex
100
AcDbPolygonMeshVertex
 10
2.5
 20
-7.134947733186316
 30
12.17196642081823
 70
    64
  0
VERTEX
  5
5B1
330
5A8
100
AcDbEntity
  8
CHAVE
100
AcDbVertex
100
AcDbPolygonMeshVertex
 10
2.5
 20
-7.464466094067262
 30
12.53553390593274
 70
    64
  0
VERTEX
  5
5B2
330
5A8
100
AcDbEntity
  8
CHAVE
100
AcDbVertex
100
AcDbPolygonMeshVertex
 10
2.5
 20
-7.828033579181772
 30
12.86505226681368
 70
    64
  0
VERTEX
  5
5B3
330
5A8
100
AcDbEntity
  8
CHAVE
100
AcDbVertex
100
AcDbPolygonMeshVertex
 10
2.5
 20
-8.222148834901988
 30
13.15734806151273
 70
    64
  0
VERTEX
  5
5B4
330
5A8
100
AcDbEntity
  8
CHAVE
100
AcDbVertex
100
AcDbPolygonMeshVertex
 10
2.5
 20
-8.643016315870012
 30
13.40960632174177
 70
    64
  0
VERTEX
  5
5B5
330
5A8
100
AcDbEntity
  8
CHAVE
100
AcDbVertex
100
AcDbPolygonMeshVertex
 10
2.5
 20
-9.086582838174552
 30
13.61939766255643
 70
    64
  0
VERTEX
  5
5B6
330
5A8
100
AcDbEntity
  8
CHAVE
100
AcDbVertex
100
AcDbPolygonMeshVertex
 10
2.5
 20
-9.548576613727688
 30
13.78470167866104
 70
    64
  0
VERTEX
  5
5B7
330
5A8
100
AcDbEntity
  8
CHAVE
100
AcDbVertex
100
AcDbPolygonMeshVertex
 10
2.5
 20
-10.02454838991936
 30
13.90392640201615
 70
    64
  0
VERTEX
  5
5B8
330
5A8
100
AcDbEntity
  8
CHAVE
100
AcDbVertex
100
AcDbPolygonMeshVertex
 10
2.5
 20
-10.5099142983522
 30
13.97592363336098
 70
    64
  0
VERTEX
  5
5B9
330
5A8
100
AcDbEntity
  8
CHAVE
100
AcDbVertex
100
AcDbPolygonMeshVertex
 10
2.5
 20
-11.0
 30
14.0
 70
    64
  0
VERTEX
  5
5BA
330
5A8
100
AcDbEntity
  8
CHAVE
100
AcDbVertex
100
AcDbPolygonMeshVertex
 10
2.5
 20
-6.0
 30
9.0
 70
    64
  0
VERTEX
  5
5BB
330
5A8
100
AcDbEntity
  8
CHAVE
100
AcDbVertex
100
AcDbPolygonMeshVertex
 10
2.5
 20
-6.409993646022835
 30
8.952891682260685
 70
    64
  0
VERTEX
  5
5BC
330
5A8
100
AcDbEntity
  8
CHAVE
100
AcDbVertex
100
AcDbPolygonMeshVertex
 10
2.5
 20
-6.81998729204567
 30
8.905783364521369
 70
    64
  0
VERTEX
  5
5BD
330
5A8
100
AcDbEntity
  8
CHAVE
100
AcDbVertex
100
AcDbPolygonMeshVertex
 10
2.5
 20
-7.229980938068505
 30
8.858675046782054
 70
    64
  0
VERTEX
  5
5BE
330
5A8
100
AcDbEntity
  8
CHAVE
100
AcDbVertex
100
AcDbPolygonMeshVertex
 10
2.5
 20
-7.639974584091339
 30
8.811566729042738
 70
    64
  0
VERTEX
  5
5BF
330
5A8
100
AcDbEntity
  8
CHAVE
100
AcDbVertex
100
AcDbPolygonMeshVertex
 10
2.5
 20
-8.049968230114175
 30
8.764458411303421
 70
    64
  0
VERTEX
  5
5C0
330
5A8
100
AcDbEntity
  8
CHAVE
100
AcDbVertex
100
AcDbPolygonMeshVertex
 10
2.5
 20
-8.45996187613701
 30
8.717350093564106
 70
    64
  0
VERTEX
  5
5C1
330
5A8
100
AcDbEntity
  8
CHAVE
100
AcDbVertex
100
AcDbPolygonMeshVertex
 10
2.5
 20
-8.869955522159845
 30
8.67024177582479
 70
    64
  0
VERTEX
  5
5C2
330
5A8
100
AcDbEntity
  8
CHAVE
100
AcDbVertex
100
AcDbPolygonMeshVertex
 10
2.5
 20
-9.279949168182679
 30
8.623133458085475
 70
    64
  0
VERTEX
  5
5C3
330
5A8
100
AcDbEntity
  8
CHAVE
100
AcDbVertex
100
AcDbPolygonMeshVertex
 10
2.5
 20
-9.689942814205514
 30
8.57602514034616
 70
    64
  0
VERTEX
  5
5C4
330
5A8
100
AcDbEntity
  8
CHAVE
100
AcDbVertex
100
AcDbPolygonMeshVertex
 10
2.5
 20
-10.09993646022835
 30
8.528916822606844
 70
    64
  0
VERTEX
  5
5C5
330
5A8
100
AcDbEntity
  8
CHAVE
100
AcDbVertex
100
AcDbPolygonMeshVertex
 10
2.5
 20
-10.50993010625118
 30
8.481808504867528
 70
    64
  0
VERTEX
  5
5C6
330
5A8
100
AcDbEntity
  8
CHAVE
100
AcDbVertex
100
AcDbPolygonMeshVertex
 10
2.5
 20
-10.91992375227402
 30
8.434700187128213
 70
    64
  0
VERTEX
  5
5C7
330
5A8
100
AcDbEntity
  8
CHAVE
100
AcDbVertex
100
AcDbPolygonMeshVertex
 10
2.5
 20
-11.32991739829686
 30
8.387591869388896
 70
    64
  0
VERTEX
  5
5C8
330
5A8
100
AcDbEntity
  8
CHAVE
100
AcDbVertex
100
AcDbPolygonMeshVertex
 10
2.5
 20
-11.73991104431969
 30
8.34048355164958
 70
    64
  0
VERTEX
  5
5C9
330
5A8
100
AcDbEntity
  8
CHAVE
100
AcDbVertex
100
AcDbPolygonMeshVertex
 10
2.5
 20
-12.14990469034253
 30
8.293375233910265
 70
    64
  0
VERTEX
  5
5CA
330
5A8
100
AcDbEntity
  8
CHAVE
100
AcDbVertex
100
AcDbPolygonMeshVertex
 10
2.5
 20
-12.55989833636536
 30
8.24626691617095
 70
    64
  0
SEQEND
  5
63C
330
5A8
100
AcDbEntity
  8
CHAVE
  0
3DFACE
  5
5CC
330
1F
100
AcDbEntity
  8
CHAVE
100
AcDbFace
 10
2.5
 20
-18.5
 30
14.0
 11
2.5
 21
-19.11979667273072
 31
7.492533832341897
 12
2.5
 22
-12.55989833636536
 32
8.24626691617095
 13
2.5
 23
-11.0
 33
14.0
  0
3DFACE
  5
5CD
330
1F
100
AcDbEntity
  8
CHAVE
100
AcDbFace
 10
2.5
 20
-22.93911994633607
 30
7.492533832341898
 11
-2.5
 21
-22.93911994633607
 31
7.492533832341898
 12
-2.5
 22
-22.93911994633607
 32
-7.549723983703799
 13
2.5
 23
-22.93911994633607
 33
-7.549723983703799
  0
3DFACE
  5
5CE
330
1F
100
AcDbEntity
  8
CHAVE
100
AcDbFace
 10
-2.5
 20
-6.0
 30
-14.0
 11
-2.5
 21
-15.86492070502721
 31
-14.0
 12
-2.5
 22
-19.11979667273072
 32
-7.549723983703799
 13
-2.5
 23
-6.0
 33
9.0
  0
3DFACE
  5
5CF
330
1F
100
AcDbEntity
  8
CHAVE
100
AcDbFace
 10
-2.5
 20
-6.0
 30
9.0
 11
-2.5
 21
-19.11979667273072
 31
-7.549723983703797
 12
-2.5
 22
-19.11979667273072
 32
7.492533832341897
 13
-2.5
 23
-19.11979667273072
 33
7.492533832341897
  0
LINE
  5
5F5
330
1F
100
AcDbEntity
  8
CHAVE
100
AcDbLine
 10
-2.5
 20
-6.0
 30
9.0
 11
-2.5
 21
-12.55989833636536
 31
8.24626691617095
  0
POLYLINE
  5
5F6
330
1F
100
AcDbEntity
  8
CHAVE
100
AcDbPolygonMesh
 66
     1
 10
0.0
 20
0.0
 30
0.0
 70
    16
 71
     2
 72
    17
  0
VERTEX
  5
5F7
330
5F6
100
AcDbEntity
  8
CHAVE
100
AcDbVertex
100
AcDbPolygonMeshVertex
 10
-2.5
 20
-6.0
 30
9.0
 70
    64
  0
VERTEX
  5
5F8
330
5F6
100
AcDbEntity
  8
CHAVE
100
AcDbVertex
100
AcDbPolygonMeshVertex
 10
-2.5
 20
-6.024076366639015
 30
9.490085701647804
 70
    64
  0
VERTEX
  5
5F9
330
5F6
100
AcDbEntity
  8
CHAVE
100
AcDbVertex
100
AcDbPolygonMeshVertex
 10
-2.5
 20
-6.096073597983848
 30
9.975451610080642
 70
    64
  0
VERTEX
  5
5FA
330
5F6
100
AcDbEntity
  8
CHAVE
100
AcDbVertex
100
AcDbPolygonMeshVertex
 10
-2.5
 20
-6.215298321338955
 30
10.45142338627231
 70
    64
  0
VERTEX
  5
5FB
330
5F6
100
AcDbEntity
  8
CHAVE
100
AcDbVertex
100
AcDbPolygonMeshVertex
 10
-2.5
 20
-6.380602337443566
 30
10.91341716182545
 70
    64
  0
VERTEX
  5
5FC
330
5F6
100
AcDbEntity
  8
CHAVE
100
AcDbVertex
100
AcDbPolygonMeshVertex
 10
-2.5
 20
-6.590393678258224
 30
11.35698368412999
 70
    64
  0
VERTEX
  5
5FD
330
5F6
100
AcDbEntity
  8
CHAVE
100
AcDbVertex
100
AcDbPolygonMeshVertex
 10
-2.5
 20
-6.842651938487274
 30
11.77785116509801
 70
    64
  0
VERTEX
  5
5FE
330
5F6
100
AcDbEntity
  8
CHAVE
100
AcDbVertex
100
AcDbPolygonMeshVertex
 10
-2.5
 20
-7.134947733186316
 30
12.17196642081823
 70
    64
  0
VERTEX
  5
5FF
330
5F6
100
AcDbEntity
  8
CHAVE
100
AcDbVertex
100
AcDbPolygonMeshVertex
 10
-2.5
 20
-7.464466094067262
 30
12.53553390593274
 70
    64
  0
VERTEX
  5
600
330
5F6
100
AcDbEntity
  8
CHAVE
100
AcDbVertex
100
AcDbPolygonMeshVertex
 10
-2.5
 20
-7.828033579181772
 30
12.86505226681368
 70
    64
  0
VERTEX
  5
601
330
5F6
100
AcDbEntity
  8
CHAVE
100
AcDbVertex
100
AcDbPolygonMeshVertex
 10
-2.5
 20
-8.222148834901988
 30
13.15734806151273
 70
    64
  0
VERTEX
  5
602
330
5F6
100
AcDbEntity
  8
CHAVE
100
AcDbVertex
100
AcDbPolygonMeshVertex
 10
-2.5
 20
-8.643016315870012
 30
13.40960632174177
 70
    64
  0
VERTEX
  5
603
330
5F6
100
AcDbEntity
  8
CHAVE
100
AcDbVertex
100
AcDbPolygonMeshVertex
 10
-2.5
 20
-9.086582838174552
 30
13.61939766255643
 70
    64
  0
VERTEX
  5
604
330
5F6
100
AcDbEntity
  8
CHAVE
100
AcDbVertex
100
AcDbPolygonMeshVertex
 10
-2.5
 20
-9.548576613727688
 30
13.78470167866104
 70
    64
  0
VERTEX
  5
605
330
5F6
100
AcDbEntity
  8
CHAVE
100
AcDbVertex
100
AcDbPolygonMeshVertex
 10
-2.5
 20
-10.02454838991936
 30
13.90392640201615
 70
    64
  0
VERTEX
  5
606
330
5F6
100
AcDbEntity
  8
CHAVE
100
AcDbVertex
100
AcDbPolygonMeshVertex
 10
-2.5
 20
-10.5099142983522
 30
13.97592363336098
 70
    64
  0
VERTEX
  5
607
330
5F6
100
AcDbEntity
  8
CHAVE
100
AcDbVertex
100
AcDbPolygonMeshVertex
 10
-2.5
 20
-11.0
 30
14.0
 70
    64
  0
VERTEX
  5
608
330
5F6
100
AcDbEntity
  8
CHAVE
100
AcDbVertex
100
AcDbPolygonMeshVertex
 10
-2.5
 20
-6.0
 30
9.0
 70
    64
  0
VERTEX
  5
609
330
5F6
100
AcDbEntity
  8
CHAVE
100
AcDbVertex
100
AcDbPolygonMeshVertex
 10
-2.5
 20
-6.409993646022835
 30
8.952891682260685
 70
    64
  0
VERTEX
  5
60A
330
5F6
100
AcDbEntity
  8
CHAVE
100
AcDbVertex
100
AcDbPolygonMeshVertex
 10
-2.5
 20
-6.819987292045671
 30
8.905783364521369
 70
    64
  0
VERTEX
  5
60B
330
5F6
100
AcDbEntity
  8
CHAVE
100
AcDbVertex
100
AcDbPolygonMeshVertex
 10
-2.5
 20
-7.229980938068505
 30
8.858675046782054
 70
    64
  0
VERTEX
  5
60C
330
5F6
100
AcDbEntity
  8
CHAVE
100
AcDbVertex
100
AcDbPolygonMeshVertex
 10
-2.5
 20
-7.63997458409134
 30
8.811566729042738
 70
    64
  0
VERTEX
  5
60D
330
5F6
100
AcDbEntity
  8
CHAVE
100
AcDbVertex
100
AcDbPolygonMeshVertex
 10
-2.5
 20
-8.049968230114175
 30
8.764458411303421
 70
    64
  0
VERTEX
  5
60E
330
5F6
100
AcDbEntity
  8
CHAVE
100
AcDbVertex
100
AcDbPolygonMeshVertex
 10
-2.5
 20
-8.45996187613701
 30
8.717350093564106
 70
    64
  0
VERTEX
  5
60F
330
5F6
100
AcDbEntity
  8
CHAVE
100
AcDbVertex
100
AcDbPolygonMeshVertex
 10
-2.5
 20
-8.869955522159845
 30
8.67024177582479
 70
    64
  0
VERTEX
  5
610
330
5F6
100
AcDbEntity
  8
CHAVE
100
AcDbVertex
100
AcDbPolygonMeshVertex
 10
-2.5
 20
-9.27994916818268
 30
8.623133458085475
 70
    64
  0
VERTEX
  5
611
330
5F6
100
AcDbEntity
  8
CHAVE
100
AcDbVertex
100
AcDbPolygonMeshVertex
 10
-2.5
 20
-9.689942814205516
 30
8.57602514034616
 70
    64
  0
VERTEX
  5
612
330
5F6
100
AcDbEntity
  8
CHAVE
100
AcDbVertex
100
AcDbPolygonMeshVertex
 10
-2.5
 20
-10.09993646022835
 30
8.528916822606844
 70
    64
  0
VERTEX
  5
613
330
5F6
100
AcDbEntity
  8
CHAVE
100
AcDbVertex
100
AcDbPolygonMeshVertex
 10
-2.5
 20
-10.50993010625119
 30
8.481808504867528
 70
    64
  0
VERTEX
  5
614
330
5F6
100
AcDbEntity
  8
CHAVE
100
AcDbVertex
100
AcDbPolygonMeshVertex
 10
-2.5
 20
-10.91992375227402
 30
8.434700187128211
 70
    64
  0
VERTEX
  5
615
330
5F6
100
AcDbEntity
  8
CHAVE
100
AcDbVertex
100
AcDbPolygonMeshVertex
 10
-2.5
 20
-11.32991739829686
 30
8.387591869388896
 70
    64
  0
VERTEX
  5
616
330
5F6
100
AcDbEntity
  8
CHAVE
100
AcDbVertex
100
AcDbPolygonMeshVertex
 10
-2.5
 20
-11.73991104431969
 30
8.34048355164958
 70
    64
  0
VERTEX
  5
617
330
5F6
100
AcDbEntity
  8
CHAVE
100
AcDbVertex
100
AcDbPolygonMeshVertex
 10
-2.5
 20
-12.14990469034253
 30
8.293375233910265
 70
    64
  0
VERTEX
  5
618
330
5F6
100
AcDbEntity
  8
CHAVE
100
AcDbVertex
100
AcDbPolygonMeshVertex
 10
-2.5
 20
-12.55989833636536
 30
8.24626691617095
 70
    64
  0
SEQEND
  5
63D
330
5F6
100
AcDbEntity
  8
CHAVE
  0
3DFACE
  5
61A
330
1F
100
AcDbEntity
  8
CHAVE
100
AcDbFace
 10
-2.5
 20
-11.0
 30
14.0
 11
-2.5
 21
-12.55989833636536
 31
8.24626691617095
 12
-2.5
 22
-19.11979667273072
 32
7.492533832341897
 13
-2.5
 23
-18.5
 33
14.0
  0
ENDSEC
  0
SECTION
  2
OBJECTS
  0
DICTIONARY
  5
C
330
0
100
AcDbDictionary
281
     1
  3
ACAD_COLOR
350
6C
  3
ACAD_GROUP
350
D
  3
ACAD_LAYOUT
350
1A
  3
ACAD_MATERIAL
350
6B
  3
ACAD_MLINESTYLE
350
17
  3
ACAD_PLOTSETTINGS
350
19
  3
ACAD_PLOTSTYLENAME
350
E
  3
ACAD_TABLESTYLE
350
92
  3
AcDbVariableDictionary
350
59
  0
DICTIONARY
  5
6C
102
{ACAD_REACTORS
330
C
102
}
330
C
100
AcDbDictionary
281
     1
  0
DICTIONARY
  5
D
102
{ACAD_REACTORS
330
C
102
}
330
C
100
AcDbDictionary
281
     1
  0
DICTIONARY
  5
1A
102
{ACAD_REACTORS
330
C
102
}
330
C
100
AcDbDictionary
281
     1
  3
Layout1
350
74
  3
Model
350
22
  0
DICTIONARY
  5
6B
102
{ACAD_REACTORS
330
C
102
}
330
C
100
AcDbDictionary
281
     1
  0
DICTIONARY
  5
17
102
{ACAD_REACTORS
330
C
102
}
330
C
100
AcDbDictionary
281
     1
  3
Standard
350
18
  0
DICTIONARY
  5
19
102
{ACAD_REACTORS
330
C
102
}
330
C
100
AcDbDictionary
281
     1
  0
ACDBDICTIONARYWDFLT
  5
E
102
{ACAD_REACTORS
330
C
102
}
330
C
100
AcDbDictionary
281
     1
  3
Normal
350
F
100
AcDbDictionaryWithDefault
340
F
  0
DICTIONARY
  5
92
102
{ACAD_REACTORS
330
C
102
}
330
C
100
AcDbDictionary
281
     1
  3
STANDARD
350
61F
  0
DICTIONARY
  5
59
102
{ACAD_REACTORS
330
C
102
}
330
C
100
AcDbDictionary
281
     1
  3
CTABLESTYLE
350
620
  3
DIMASSOC
350
26E
  3
HALOGAP
350
26F
  3
HIDETEXT
350
272
  3
INDEXCTL
350
270
  3
XCLIPFRAME
350
271
  0
LAYOUT
  5
74
102
{ACAD_REACTORS
330
1A
102
}
330
1A
100
AcDbPlotSettings
  1

  2
none_device
  4
Letter_(8.50_x_11.00_Inches)
  6

 40
6.35
 41
6.35
 42
6.35000508
 43
6.35000508
 44
215.9
 45
279.4
 46
0.0
 47
0.0
 48
0.0
 49
0.0
140
0.0
141
0.0
142
1.0
143
1.0
 70
   688
 72
     0
 73
     0
 74
     5
  7

 75
    16
 76
     0
 77
     2
 78
   300
147
1.0
148
0.0
149
0.0
100
AcDbLayout
  1
Layout1
 70
     1
 71
     1
 10
0.0
 20
0.0
 11
12.0
 21
9.0
 12
0.0
 22
0.0
 32
0.0
 14
0.0
 24
0.0
 34
0.0
 15
0.0
 25
0.0
 35
0.0
146
0.0
 13
0.0
 23
0.0
 33
0.0
 16
1.0
 26
0.0
 36
0.0
 17
0.0
 27
1.0
 37
0.0
 76
     0
330
73
  0
LAYOUT
  5
22
102
{ACAD_REACTORS
330
1A
102
}
330
1A
100
AcDbPlotSettings
  1

  2
none_device
  4
Letter_(8.50_x_11.00_Inches)
  6

 40
6.35
 41
6.35
 42
6.35000508
 43
6.35000508
 44
215.9
 45
279.4
 46
0.0
 47
0.0
 48
0.0
 49
0.0
140
0.0
141
0.0
142
1.0
143
29.44287938011606
 70
 11952
 72
     0
 73
     0
 74
     0
  7

 75
     0
 76
     0
 77
     2
 78
   300
147
0.0339640694474787
148
0.0
149
0.0
100
AcDbLayout
  1
Model
 70
     1
 71
     0
 10
0.0
 20
0.0
 11
12.0
 21
9.0
 12
0.0
 22
0.0
 32
0.0
 14
-10.0
 24
-40.27276497817673
 34
-14.00000000000001
 15
10.0
 25
37.0
 35
14.0
146
0.0
 13
0.0
 23
0.0
 33
0.0
 16
1.0
 26
0.0
 36
0.0
 17
0.0
 27
1.0
 37
0.0
 76
     0
330
1F
331
97
  0
MLINESTYLE
  5
18
102
{ACAD_REACTORS
330
17
102
}
330
17
100
AcDbMlineStyle
  2
Standard
 70
     0
  3

 62
   256
 51
90.0
 52
90.0
 71
     2
 49
0.5
 62
   256
  6
BYLAYER
 49
-0.5
 62
   256
  6
BYLAYER
  0
ACDBPLACEHOLDER
  5
F
102
{ACAD_REACTORS
330
E
102
}
330
E
  0
TABLESTYLE
  5
61F
102
{ACAD_REACTORS
330
92
102
}
330
92
100
AcDbTableStyle
  3
Standard
 70
     0
 71
     0
 40
0.06
 41
0.06
280
     0
281
     0
  7
Standard
140
0.18
170
     2
 62
     0
 63
     7
283
     0
 90
      512
 91
        0
  1

274
    -2
284
     1
 64
     0
275
    -2
285
     1
 65
     0
276
    -2
286
     1
 66
     0
277
    -2
287
     1
 67
     0
278
    -2
288
     1
 68
     0
279
    -2
289
     1
 69
     0
  7
Standard
140
0.25
170
     5
 62
     0
 63
     7
283
     0
 90
      512
 91
        0
  1

274
    -2
284
     1
 64
     0
275
    -2
285
     1
 65
     0
276
    -2
286
     1
 66
     0
277
    -2
287
     1
 67
     0
278
    -2
288
     1
 68
     0
279
    -2
289
     1
 69
     0
  7
Standard
140
0.18
170
     5
 62
     0
 63
     7
283
     0
 90
      512
 91
        0
  1

274
    -2
284
     1
 64
     0
275
    -2
285
     1
 65
     0
276
    -2
286
     1
 66
     0
277
    -2
287
     1
 67
     0
278
    -2
288
     1
 68
     0
279
    -2
289
     1
 69
     0
  0
DICTIONARYVAR
  5
620
102
{ACAD_REACTORS
330
59
102
}
330
59
100
DictionaryVariables
280
     0
  1

  0
DICTIONARYVAR
  5
26E
102
{ACAD_REACTORS
330
59
102
}
330
59
100
DictionaryVariables
280
     0
  1
2
  0
DICTIONARYVAR
  5
26F
102
{ACAD_REACTORS
330
59
102
}
330
59
100
DictionaryVariables
280
     0
  1
0
  0
DICTIONARYVAR
  5
272
102
{ACAD_REACTORS
330
59
102
}
330
59
100
DictionaryVariables
280
     0
  1
1
  0
DICTIONARYVAR
  5
270
102
{ACAD_REACTORS
330
59
102
}
330
59
100
DictionaryVariables
280
     0
  1
0
  0
DICTIONARYVAR
  5
271
102
{ACAD_REACTORS
330
59
102
}
330
59
100
DictionaryVariables
280
     0
  1
0
  0
ENDSEC
  0
EOF
