  0
SECTION
  2
HEADER
  9
$ACADVER
  1
AC1009
  9
$INSBASE
 10
0.0
 20
0.0
 30
0.0
  9
$EXTMIN
 10
-18.4532738547238
 20
-1.3450004498993751
 30
-18.650404999999999
  9
$EXTMAX
 10
18.7853771452762
 20
11.187215550100619
 30
46.72675799999999
  9
$LIMMIN
 10
0.0
 20
0.0
  9
$LIMMAX
 10
12.0
 20
9.0
  9
$ORTHOMODE
 70
     1
  9
$REGENMODE
 70
     1
  9
$FILLMODE
 70
     1
  9
$QTEXTMODE
 70
     0
  9
$MIRRTEXT
 70
     0
  9
$DRAGMODE
 70
     2
  9
$LTSCALE
 40
1.0
  9
$OSMODE
 70
   247
  9
$ATTMODE
 70
     1
  9
$TEXTSIZE
 40
0.2
  9
$TRACEWID
 40
0.05
  9
$TEXTSTYLE
  7
STANDARD
  9
$CLAYER
  8
0
  9
$CELTYPE
  6
CONTINUOUS
  9
$CECOLOR
 62
   256
  9
$DIMSCALE
 40
1.0
  9
$DIMASZ
 40
0.18
  9
$DIMEXO
 40
0.0625
  9
$DIMDLI
 40
0.38
  9
$DIMRND
 40
0.0
  9
$DIMDLE
 40
0.0
  9
$DIMEXE
 40
0.18
  9
$DIMTP
 40
0.0
  9
$DIMTM
 40
0.0
  9
$DIMTXT
 40
0.18
  9
$DIMCEN
 40
0.09
  9
$DIMTSZ
 40
0.0
  9
$DIMTOL
 70
     0
  9
$DIMLIM
 70
     0
  9
$DIMTIH
 70
     1
  9
$DIMTOH
 70
     1
  9
$DIMSE1
 70
     0
  9
$DIMSE2
 70
     0
  9
$DIMTAD
 70
     0
  9
$DIMZIN
 70
     0
  9
$DIMBLK
  1

  9
$DIMASO
 70
     1
  9
$DIMSHO
 70
     1
  9
$DIMPOST
  1

  9
$DIMAPOST
  1

  9
$DIMALT
 70
     0
  9
$DIMALTD
 70
     2
  9
$DIMALTF
 40
25.399999999999999
  9
$DIMLFAC
 40
1.0
  9
$DIMTOFL
 70
     0
  9
$DIMTVP
 40
0.0
  9
$DIMTIX
 70
     0
  9
$DIMSOXD
 70
     0
  9
$DIMSAH
 70
     0
  9
$DIMBLK1
  1

  9
$DIMBLK2
  1

  9
$DIMSTYLE
  2
STANDARD
  9
$DIMCLRD
 70
     0
  9
$DIMCLRE
 70
     0
  9
$DIMCLRT
 70
     0
  9
$DIMTFAC
 40
1.0
  9
$DIMGAP
 40
0.09
  9
$LUNITS
 70
     2
  9
$LUPREC
 70
     4
  9
$SKETCHINC
 40
0.1
  9
$FILLETRAD
 40
0.0
  9
$AUNITS
 70
     0
  9
$AUPREC
 70
     0
  9
$MENU
  1
.
  9
$ELEVATION
 40
0.0
  9
$PELEVATION
 40
0.0
  9
$THICKNESS
 40
0.0
  9
$LIMCHECK
 70
     0
  9
$BLIPMODE
 70
     0
  9
$CHAMFERA
 40
0.0
  9
$CHAMFERB
 40
0.0
  9
$SKPOLY
 70
     0
  9
$TDCREATE
 40
2457431.6962449308
  9
$TDUPDATE
 40
2457431.6995350351
  9
$TDINDWG
 40
0.0014026736
  9
$TDUSRTIMER
 40
0.0014025116
  9
$USRTIMER
 70
     1
  9
$ANGBASE
 50
0.0
  9
$ANGDIR
 70
     0
  9
$PDMODE
 70
     0
  9
$PDSIZE
 40
0.0
  9
$PLINEWID
 40
0.0
  9
$COORDS
 70
     1
  9
$SPLFRAME
 70
     0
  9
$SPLINETYPE
 70
     6
  9
$SPLINESEGS
 70
     8
  9
$ATTDIA
 70
     0
  9
$ATTREQ
 70
     1
  9
$HANDLING
 70
     1
  9
$HANDSEED
  5
311
  9
$SURFTAB1
 70
     6
  9
$SURFTAB2
 70
     6
  9
$SURFTYPE
 70
     6
  9
$SURFU
 70
     6
  9
$SURFV
 70
     6
  9
$UCSNAME
  2

  9
$UCSORG
 10
0.0
 20
0.0
 30
0.0
  9
$UCSXDIR
 10
1.0
 20
0.0
 30
0.0
  9
$UCSYDIR
 10
0.0
 20
1.0
 30
0.0
  9
$PUCSNAME
  2

  9
$PUCSORG
 10
0.0
 20
0.0
 30
0.0
  9
$PUCSXDIR
 10
1.0
 20
0.0
 30
0.0
  9
$PUCSYDIR
 10
0.0
 20
1.0
 30
0.0
  9
$USERI1
 70
     0
  9
$USERI2
 70
     0
  9
$USERI3
 70
     0
  9
$USERI4
 70
     0
  9
$USERI5
 70
     0
  9
$USERR1
 40
0.0
  9
$USERR2
 40
0.0
  9
$USERR3
 40
0.0
  9
$USERR4
 40
0.0
  9
$USERR5
 40
0.0
  9
$WORLDVIEW
 70
     1
  9
$SHADEDGE
 70
     3
  9
$SHADEDIF
 70
    70
  9
$TILEMODE
 70
     1
  9
$MAXACTVP
 70
    64
  9
$PLIMCHECK
 70
     0
  9
$PEXTMIN
 10
1.0000000000000000E+020
 20
1.0000000000000000E+020
 30
1.0000000000000000E+020
  9
$PEXTMAX
 10
-1.0000000000000000E+020
 20
-1.0000000000000000E+020
 30
-1.0000000000000000E+020
  9
$PLIMMIN
 10
0.0
 20
0.0
  9
$PLIMMAX
 10
12.0
 20
9.0
  9
$UNITMODE
 70
     0
  9
$VISRETAIN
 70
     1
  9
$PLINEGEN
 70
     0
  9
$PSLTSCALE
 70
     1
  0
ENDSEC
  0
SECTION
  2
TABLES
  0
TABLE
  2
VPORT
 70
     1
  0
VPORT
  2
*ACTIVE
 70
     0
 10
0.0
 20
0.0
 11
1.0
 21
1.0
 12
0.9343114810854623
 22
-2.286509343056188
 13
0.0
 23
0.0
 14
1.0
 24
1.0
 15
0.0
 25
0.0
 16
-0.0000000000000389
 26
0.0
 36
174.98474379108319
 17
0.166050910949707
 27
5.5810706773772827
 37
0.0
 40
21.22234206836491
 41
2.5027932960893851
 42
50.0
 43
0.0
 44
0.0
 50
0.0
 51
0.0
 71
     0
 72
   100
 73
     1
 74
     1
 75
     0
 76
     0
 77
     0
 78
     0
  0
ENDTAB
  0
TABLE
  2
LTYPE
 70
     2
  0
LTYPE
  2
CONTINUOUS
 70
     0
  3
Solid line
 72
    65
 73
     0
 40
0.0
  0
LTYPE
  2
PHANTOM2
 70
     0
  3
Phantom (.5x) ___ _ _ ___ _ _ ___ _ _ ___ _ _
 72
    65
 73
     6
 40
1.25
 49
0.625
 49
-0.125
 49
0.125
 49
-0.125
 49
0.125
 49
-0.125
  0
ENDTAB
  0
TABLE
  2
LAYER
 70
     2
  0
LAYER
  2
0
 70
     0
 62
     7
  6
CONTINUOUS
  0
LAYER
  2
METAL
 70
     0
 62
   140
  6
CONTINUOUS
  0
ENDTAB
  0
TABLE
  2
STYLE
 70
     2
  0
STYLE
  2
STANDARD
 70
     0
 40
0.0
 41
1.0
 50
0.0
 71
     0
 42
0.2
  3
txt
  4

  0
STYLE
  2
ANNOTATIVE
 70
     0
 40
0.0
 41
1.0
 50
0.0
 71
     0
 42
0.2
  3
txt
  4

  0
ENDTAB
  0
TABLE
  2
VIEW
 70
     0
  0
ENDTAB
  0
TABLE
  2
UCS
 70
     0
  0
ENDTAB
  0
TABLE
  2
APPID
 70
     4
  0
APPID
  2
ACAD
 70
     0
  0
APPID
  2
ACADANNOTATIVE
 70
     0
  0
APPID
  2
ACAD_NAV_VCDISPLAY
 70
     0
  0
APPID
  2
ACAD_MLEADERVER
 70
     0
  0
ENDTAB
  0
TABLE
  2
DIMSTYLE
 70
     2
  0
DIMSTYLE
  2
STANDARD
 70
     0
  3

  4

  5

  6

  7

 40
1.0
 41
0.18
 42
0.0625
 43
0.38
 44
0.18
 45
0.0
 46
0.0
 47
0.0
 48
0.0
140
0.18
141
0.09
142
0.0
143
25.399999999999999
144
1.0
145
0.0
146
1.0
147
0.09
 71
     0
 72
     0
 73
     1
 74
     1
 75
     0
 76
     0
 77
     0
 78
     0
170
     0
171
     2
172
     0
173
     0
174
     0
175
     0
176
     0
177
     0
178
     0
  0
DIMSTYLE
  2
ANNOTATIVE
 70
     0
  3

  4

  5

  6

  7

 40
1.0
 41
0.18
 42
0.0625
 43
0.38
 44
0.18
 45
0.0
 46
0.0
 47
0.0
 48
0.0
140
0.18
141
0.09
142
0.0
143
25.399999999999999
144
1.0
145
0.0
146
1.0
147
0.09
 71
     0
 72
     0
 73
     1
 74
     1
 75
     0
 76
     0
 77
     0
 78
     0
170
     0
171
     2
172
     0
173
     0
174
     0
175
     0
176
     0
177
     0
178
     0
  0
ENDTAB
  0
ENDSEC
  0
SECTION
  2
BLOCKS
  0
BLOCK
  8
0
  2
$MODEL_SPACE
 70
     0
 10
0.0
 20
0.0
 30
0.0
  3
$MODEL_SPACE
  1

  0
ENDBLK
  5
2A9
  8
0
  0
BLOCK
 67
     1
  8
0
  2
$PAPER_SPACE
 70
     0
 10
0.0
 20
0.0
 30
0.0
  3
$PAPER_SPACE
  1

  0
ENDBLK
  5
2A5
 67
     1
  8
0
  0
ENDSEC
  0
SECTION
  2
ENTITIES
  0
3DFACE
  5
77
  8
METAL
 10
15.9209471452762
 20
9.8672895501006206
 30
28.008858
 11
14.3393371452762
 21
9.8672895501006206
 31
34.938367999999997
 12
14.3393371452762
 22
-0.1662404498993781
 32
34.938367999999997
 13
15.9209471452762
 23
9.8672895501006206
 33
28.008858
  0
3DFACE
  5
78
  8
METAL
 10
15.9209471452762
 20
9.8672895501006206
 30
28.008858
 11
14.3393371452762
 21
-0.1662404498993781
 31
34.938367999999997
 12
15.9209471452762
 22
-0.1662404498993781
 32
28.008858
 13
15.9209471452762
 23
9.8672895501006206
 33
28.008858
  0
3DFACE
  5
79
  8
METAL
 10
14.3393371452762
 20
9.8672895501006206
 30
34.938367999999997
 11
9.9077501452761911
 21
9.8672885964263202
 31
40.495407999999991
 12
9.9077501452761911
 22
-0.1662404498993781
 32
40.495407999999991
 13
14.3393371452762
 23
9.8672895501006206
 33
34.938367999999997
  0
3DFACE
  5
7A
  8
METAL
 10
14.3393371452762
 20
9.8672895501006206
 30
34.938367999999997
 11
9.9077501452761911
 21
-0.1662404498993781
 31
40.495407999999991
 12
14.3393371452762
 22
-0.1662404498993781
 32
34.938367999999997
 13
14.3393371452762
 23
9.8672895501006206
 33
34.938367999999997
  0
3DFACE
  5
7B
  8
METAL
 10
9.9077501452761911
 20
9.8672885964263202
 30
40.495407999999991
 11
3.5039181452761961
 21
9.8672885964263202
 31
43.57932799999999
 12
3.5039181452761961
 22
-0.1662404498993781
 32
43.57932799999999
 13
9.9077501452761911
 23
9.8672885964263202
 33
40.495407999999991
  0
3DFACE
  5
7C
  8
METAL
 10
9.9077501452761911
 20
9.8672885964263202
 30
40.495407999999991
 11
3.5039181452761961
 21
-0.1662404498993781
 31
43.57932799999999
 12
9.9077501452761911
 22
-0.1662404498993781
 32
40.495407999999991
 13
9.9077501452761911
 23
9.8672885964263202
 33
40.495407999999991
  0
3DFACE
  5
7D
  8
METAL
 10
3.5039181452761961
 20
9.8672885964263202
 30
43.57932799999999
 11
-3.603792854723801
 21
9.8672885964263202
 31
43.57932799999999
 12
-3.603792854723801
 22
-0.1662404498993781
 32
43.57932799999999
 13
3.5039181452761961
 23
9.8672885964263202
 33
43.57932799999999
  0
3DFACE
  5
7E
  8
METAL
 10
3.5039181452761961
 20
9.8672885964263202
 30
43.57932799999999
 11
-3.603792854723801
 21
-0.1662404498993781
 31
43.57932799999999
 12
3.5039181452761961
 22
-0.1662404498993781
 32
43.57932799999999
 13
3.5039181452761961
 23
9.8672885964263202
 33
43.57932799999999
  0
3DFACE
  5
7F
  8
METAL
 10
-3.603792854723801
 20
9.8672885964263202
 30
43.57932799999999
 11
-10.007622854723801
 21
9.8672885964263202
 31
40.495407999999991
 12
-10.007622854723801
 22
-0.1662404498993781
 32
40.495407999999991
 13
-3.603792854723801
 23
9.8672885964263202
 33
43.57932799999999
  0
3DFACE
  5
80
  8
METAL
 10
-3.603792854723801
 20
9.8672885964263202
 30
43.57932799999999
 11
-10.007622854723801
 21
-0.1662404498993781
 31
40.495407999999991
 12
-3.603792854723801
 22
-0.1662404498993781
 32
43.57932799999999
 13
-3.603792854723801
 23
9.8672885964263202
 33
43.57932799999999
  0
3DFACE
  5
81
  8
METAL
 10
-10.007622854723801
 20
9.8672885964263202
 30
40.495407999999991
 11
-14.439212854723801
 21
9.8672895501006206
 31
34.938367999999997
 12
-14.439212854723801
 22
-0.1662404498993781
 32
34.938367999999997
 13
-10.007622854723801
 23
9.8672885964263202
 33
40.495407999999991
  0
3DFACE
  5
82
  8
METAL
 10
-10.007622854723801
 20
9.8672885964263202
 30
40.495407999999991
 11
-14.439212854723801
 21
-0.1662404498993781
 31
34.938367999999997
 12
-10.007622854723801
 22
-0.1662404498993781
 32
40.495407999999991
 13
-10.007622854723801
 23
9.8672885964263202
 33
40.495407999999991
  0
3DFACE
  5
83
  8
METAL
 10
-14.439212854723801
 20
9.8672895501006206
 30
34.938367999999997
 11
-16.0208228547238
 21
9.8672895501006206
 31
28.008858
 12
-16.0208228547238
 22
-0.1662404498993781
 32
28.008858
 13
-14.439212854723801
 23
9.8672895501006206
 33
34.938367999999997
  0
3DFACE
  5
84
  8
METAL
 10
-14.439212854723801
 20
9.8672895501006206
 30
34.938367999999997
 11
-16.0208228547238
 21
-0.1662404498993781
 31
28.008858
 12
-14.439212854723801
 22
-0.1662404498993781
 32
34.938367999999997
 13
-14.439212854723801
 23
9.8672895501006206
 33
34.938367999999997
  0
3DFACE
  5
85
  8
METAL
 10
-16.0208228547238
 20
9.8672895501006206
 30
28.008858
 11
-14.439212854723801
 21
9.8672895501006206
 31
21.079357999999999
 12
-14.439212854723801
 22
-0.1662404498993781
 32
21.079357999999999
 13
-16.0208228547238
 23
9.8672895501006206
 33
28.008858
  0
3DFACE
  5
86
  8
METAL
 10
-16.0208228547238
 20
9.8672895501006206
 30
28.008858
 11
-14.439212854723801
 21
-0.1662404498993781
 31
21.079357999999999
 12
-16.0208228547238
 22
-0.1662404498993781
 32
28.008858
 13
-16.0208228547238
 23
9.8672895501006206
 33
28.008858
  0
3DFACE
  5
87
  8
METAL
 10
-14.439212854723801
 20
9.8672895501006206
 30
21.079357999999999
 11
-10.007622854723801
 21
9.8672895501006206
 31
15.522318999999991
 12
-10.007622854723801
 22
-0.1662404498993781
 32
15.522318999999991
 13
-14.439212854723801
 23
9.8672895501006206
 33
21.079357999999999
  0
3DFACE
  5
88
  8
METAL
 10
-14.439212854723801
 20
9.8672895501006206
 30
21.079357999999999
 11
-10.007622854723801
 21
-0.1662404498993781
 31
15.522318999999991
 12
-14.439212854723801
 22
-0.1662404498993781
 32
21.079357999999999
 13
-14.439212854723801
 23
9.8672895501006206
 33
21.079357999999999
  0
3DFACE
  5
89
  8
METAL
 10
-10.007622854723801
 20
9.8672895501006206
 30
15.522318999999991
 11
-3.603792854723801
 21
9.8672895501006206
 31
12.438395
 12
-3.603792854723801
 22
-0.1662404498993781
 32
12.438395
 13
-10.007622854723801
 23
9.8672895501006206
 33
15.522318999999991
  0
3DFACE
  5
8A
  8
METAL
 10
-10.007622854723801
 20
9.8672895501006206
 30
15.522318999999991
 11
-3.603792854723801
 21
-0.1662404498993781
 31
12.438395
 12
-10.007622854723801
 22
-0.1662404498993781
 32
15.522318999999991
 13
-10.007622854723801
 23
9.8672895501006206
 33
15.522318999999991
  0
3DFACE
  5
8B
  8
METAL
 10
-3.603792854723801
 20
9.8672895501006206
 30
12.438395
 11
3.5039181452761961
 21
9.8672895501006206
 31
12.438395
 12
3.5039181452761961
 22
-0.1662404498993781
 32
12.438395
 13
-3.603792854723801
 23
9.8672895501006206
 33
12.438395
  0
3DFACE
  5
8C
  8
METAL
 10
-3.603792854723801
 20
9.8672895501006206
 30
12.438395
 11
3.5039181452761961
 21
-0.1662404498993781
 31
12.438395
 12
-3.603792854723801
 22
-0.1662404498993781
 32
12.438395
 13
-3.603792854723801
 23
9.8672895501006206
 33
12.438395
  0
3DFACE
  5
8D
  8
METAL
 10
3.5039181452761961
 20
9.8672895501006206
 30
12.438395
 11
9.9077501452761911
 21
9.8672895501006206
 31
15.522318999999991
 12
9.9077501452761911
 22
-0.1662404498993781
 32
15.522318999999991
 13
3.5039181452761961
 23
9.8672895501006206
 33
12.438395
  0
3DFACE
  5
8E
  8
METAL
 10
3.5039181452761961
 20
9.8672895501006206
 30
12.438395
 11
9.9077501452761911
 21
-0.1662404498993781
 31
15.522318999999991
 12
3.5039181452761961
 22
-0.1662404498993781
 32
12.438395
 13
3.5039181452761961
 23
9.8672895501006206
 33
12.438395
  0
3DFACE
  5
8F
  8
METAL
 10
9.9077501452761911
 20
9.8672895501006206
 30
15.522318999999991
 11
14.3393371452762
 21
9.8672895501006206
 31
21.079357999999999
 12
14.3393371452762
 22
-0.1662404498993781
 32
21.079357999999999
 13
9.9077501452761911
 23
9.8672895501006206
 33
15.522318999999991
  0
3DFACE
  5
90
  8
METAL
 10
9.9077501452761911
 20
9.8672895501006206
 30
15.522318999999991
 11
14.3393371452762
 21
-0.1662404498993781
 31
21.079357999999999
 12
9.9077501452761911
 22
-0.1662404498993781
 32
15.522318999999991
 13
9.9077501452761911
 23
9.8672895501006206
 33
15.522318999999991
  0
3DFACE
  5
91
  8
METAL
 10
14.3393371452762
 20
9.8672895501006206
 30
21.079357999999999
 11
15.9209471452762
 21
9.8672895501006206
 31
28.008858
 12
15.9209471452762
 22
-0.1662404498993781
 32
28.008858
 13
14.3393371452762
 23
9.8672895501006206
 33
21.079357999999999
  0
3DFACE
  5
92
  8
METAL
 10
14.3393371452762
 20
9.8672895501006206
 30
21.079357999999999
 11
15.9209471452762
 21
-0.1662404498993781
 31
28.008858
 12
14.3393371452762
 22
-0.1662404498993781
 32
21.079357999999999
 13
14.3393371452762
 23
9.8672895501006206
 33
21.079357999999999
  0
3DFACE
  5
93
  8
METAL
 10
-3.603792854723801
 20
9.8672885964263202
 30
43.57932799999999
 11
3.5039181452761961
 21
9.8672885964263202
 31
43.57932799999999
 12
9.9077501452761911
 22
9.8672885964263202
 32
40.495407999999991
 13
-3.603792854723801
 23
9.8672885964263202
 33
43.57932799999999
  0
3DFACE
  5
94
  8
METAL
 10
-3.603792854723801
 20
9.8672885964263202
 30
43.57932799999999
 11
9.9077501452761911
 21
9.8672885964263202
 31
40.495407999999991
 12
-10.007622854723801
 22
9.8672885964263202
 32
40.495407999999991
 13
-3.603792854723801
 23
9.8672885964263202
 33
43.57932799999999
  0
3DFACE
  5
95
  8
METAL
 10
-10.007622854723801
 20
9.8672885964263202
 30
40.495407999999991
 11
9.9077501452761911
 21
9.8672885964263202
 31
40.495407999999991
 12
14.3393371452762
 22
9.8672895501006206
 32
34.938367999999997
 13
-10.007622854723801
 23
9.8672885964263202
 33
40.495407999999991
  0
3DFACE
  5
96
  8
METAL
 10
-10.007622854723801
 20
9.8672885964263202
 30
40.495407999999991
 11
14.3393371452762
 21
9.8672895501006206
 31
34.938367999999997
 12
-14.439212854723801
 22
9.8672895501006206
 32
34.938367999999997
 13
-10.007622854723801
 23
9.8672885964263202
 33
40.495407999999991
  0
3DFACE
  5
97
  8
METAL
 10
-14.439212854723801
 20
9.8672895501006206
 30
34.938367999999997
 11
14.3393371452762
 21
9.8672895501006206
 31
34.938367999999997
 12
15.9209471452762
 22
9.8672895501006206
 32
28.008858
 13
-14.439212854723801
 23
9.8672895501006206
 33
34.938367999999997
  0
3DFACE
  5
98
  8
METAL
 10
-14.439212854723801
 20
9.8672895501006206
 30
34.938367999999997
 11
15.9209471452762
 21
9.8672895501006206
 31
28.008858
 12
-16.0208228547238
 22
9.8672895501006206
 32
28.008858
 13
-14.439212854723801
 23
9.8672895501006206
 33
34.938367999999997
  0
3DFACE
  5
99
  8
METAL
 10
-16.0208228547238
 20
9.8672895501006206
 30
28.008858
 11
15.9209471452762
 21
9.8672895501006206
 31
28.008858
 12
14.3393371452762
 22
9.8672895501006206
 32
21.079357999999999
 13
-16.0208228547238
 23
9.8672895501006206
 33
28.008858
  0
3DFACE
  5
9A
  8
METAL
 10
-16.0208228547238
 20
9.8672895501006206
 30
28.008858
 11
14.3393371452762
 21
9.8672895501006206
 31
21.079357999999999
 12
-14.439212854723801
 22
9.8672895501006206
 32
21.079357999999999
 13
-16.0208228547238
 23
9.8672895501006206
 33
28.008858
  0
3DFACE
  5
9B
  8
METAL
 10
-14.439212854723801
 20
9.8672895501006206
 30
21.079357999999999
 11
14.3393371452762
 21
9.8672895501006206
 31
21.079357999999999
 12
9.9077501452761911
 22
9.8672895501006206
 32
15.522318999999991
 13
-14.439212854723801
 23
9.8672895501006206
 33
21.079357999999999
  0
3DFACE
  5
9C
  8
METAL
 10
-14.439212854723801
 20
9.8672895501006206
 30
21.079357999999999
 11
9.9077501452761911
 21
9.8672895501006206
 31
15.522318999999991
 12
-10.007622854723801
 22
9.8672895501006206
 32
15.522318999999991
 13
-14.439212854723801
 23
9.8672895501006206
 33
21.079357999999999
  0
3DFACE
  5
9D
  8
METAL
 10
-10.007622854723801
 20
9.8672895501006206
 30
15.522318999999991
 11
9.9077501452761911
 21
9.8672895501006206
 31
15.522318999999991
 12
3.5039181452761961
 22
9.8672895501006206
 32
12.438395
 13
-10.007622854723801
 23
9.8672895501006206
 33
15.522318999999991
  0
3DFACE
  5
9E
  8
METAL
 10
-10.007622854723801
 20
9.8672895501006206
 30
15.522318999999991
 11
3.5039181452761961
 21
9.8672895501006206
 31
12.438395
 12
-3.603792854723801
 22
9.8672895501006206
 32
12.438395
 13
-10.007622854723801
 23
9.8672895501006206
 33
15.522318999999991
  0
3DFACE
  5
9F
  8
METAL
 10
14.159137145276199
 20
-0.1662404498993781
 30
34.851588
 11
14.20400714527619
 21
9.7352325501006192
 31
34.873198000000002
 12
15.7707471452762
 22
9.7352325501006192
 32
28.008858
 13
14.159137145276199
 23
-0.1662404498993781
 33
34.851588
  0
3DFACE
  5
A0
  8
METAL
 10
14.159137145276199
 20
-0.1662404498993781
 30
34.851588
 11
15.7707471452762
 21
9.7352325501006192
 31
28.008858
 12
15.72094714527619
 22
-0.1662404498993781
 32
28.008858
 13
14.159137145276199
 23
-0.1662404498993781
 33
34.851588
  0
3DFACE
  5
A1
  8
METAL
 10
9.7830551452761991
 20
-0.1662404498993781
 30
40.339038000000002
 11
9.8140991452761952
 21
9.7352325501006192
 31
40.377967999999989
 12
14.20400714527619
 22
9.7352325501006192
 32
34.873198000000002
 13
9.7830551452761991
 23
-0.1662404498993781
 33
40.339038000000002
  0
3DFACE
  5
A2
  8
METAL
 10
9.7830551452761991
 20
-0.1662404498993781
 30
40.339038000000002
 11
14.20400714527619
 21
9.7352325501006192
 31
34.873198000000002
 12
14.159137145276199
 22
-0.1662404498993781
 32
34.851588
 13
9.7830551452761991
 23
-0.1662404498993781
 33
40.339038000000002
  0
3DFACE
  5
A3
  8
METAL
 10
3.459416145276196
 20
-0.1662404498993781
 30
43.384337999999993
 11
3.4704941452761959
 21
9.7352315501006217
 31
43.432887999999991
 12
9.8140991452761952
 22
9.7352325501006192
 32
40.377967999999989
 13
3.459416145276196
 23
-0.1662404498993781
 33
43.384337999999993
  0
3DFACE
  5
A4
  8
METAL
 10
3.459416145276196
 20
-0.1662404498993781
 30
43.384337999999993
 11
9.8140991452761952
 21
9.7352325501006192
 31
40.377967999999989
 12
9.7830551452761991
 22
-0.1662404498993781
 32
40.339038000000002
 13
3.459416145276196
 23
-0.1662404498993781
 33
43.384337999999993
  0
3DFACE
  5
A5
  8
METAL
 10
-3.5592908547238009
 20
-0.1662404498993781
 30
43.384337999999993
 11
-3.5703688547238008
 21
9.7352315501006217
 31
43.432887999999991
 12
3.4704941452761959
 22
9.7352315501006217
 32
43.432887999999991
 13
-3.5592908547238009
 23
-0.1662404498993781
 33
43.384337999999993
  0
3DFACE
  5
A6
  8
METAL
 10
-3.5592908547238009
 20
-0.1662404498993781
 30
43.384337999999993
 11
3.4704941452761959
 21
9.7352315501006217
 31
43.432887999999991
 12
3.459416145276196
 22
-0.1662404498993781
 32
43.384337999999993
 13
-3.5592908547238009
 23
-0.1662404498993781
 33
43.384337999999993
  0
3DFACE
  5
A7
  8
METAL
 10
-9.8829298547238018
 20
-0.1662404498993781
 30
40.339038000000002
 11
-9.9139738547238032
 21
9.7352325501006192
 31
40.377967999999989
 12
-3.5703688547238008
 22
9.7352315501006217
 32
43.432887999999991
 13
-9.8829298547238018
 23
-0.1662404498993781
 33
40.339038000000002
  0
3DFACE
  5
A8
  8
METAL
 10
-9.8829298547238018
 20
-0.1662404498993781
 30
40.339038000000002
 11
-3.5703688547238008
 21
9.7352315501006217
 31
43.432887999999991
 12
-3.5592908547238009
 22
-0.1662404498993781
 32
43.384337999999993
 13
-9.8829298547238018
 23
-0.1662404498993781
 33
40.339038000000002
  0
3DFACE
  5
A9
  8
METAL
 10
-14.2590128547238
 20
-0.1662404498993781
 30
34.851598000000003
 11
-14.303882854723801
 21
9.7352325501006192
 31
34.873198000000002
 12
-9.9139738547238032
 22
9.7352325501006192
 32
40.377967999999989
 13
-14.2590128547238
 23
-0.1662404498993781
 33
34.851598000000003
  0
3DFACE
  5
AA
  8
METAL
 10
-14.2590128547238
 20
-0.1662404498993781
 30
34.851598000000003
 11
-9.9139738547238032
 21
9.7352325501006192
 31
40.377967999999989
 12
-9.8829298547238018
 22
-0.1662404498993781
 32
40.339038000000002
 13
-14.2590128547238
 23
-0.1662404498993781
 33
34.851598000000003
  0
3DFACE
  5
AB
  8
METAL
 10
-15.820822854723801
 20
-0.1662404498993781
 30
28.008858
 11
-15.8706228547238
 21
9.7352325501006192
 31
28.008858
 12
-14.303882854723801
 22
9.7352325501006192
 32
34.873198000000002
 13
-15.820822854723801
 23
-0.1662404498993781
 33
28.008858
  0
3DFACE
  5
AC
  8
METAL
 10
-15.820822854723801
 20
-0.1662404498993781
 30
28.008858
 11
-14.303882854723801
 21
9.7352325501006192
 31
34.873198000000002
 12
-14.2590128547238
 22
-0.1662404498993781
 32
34.851598000000003
 13
-15.820822854723801
 23
-0.1662404498993781
 33
28.008858
  0
3DFACE
  5
AD
  8
METAL
 10
-14.259022854723799
 20
-0.1662404498993781
 30
21.166128
 11
-14.303882854723801
 21
9.7352325501006192
 31
21.144528000000001
 12
-15.8706228547238
 22
9.7352325501006192
 32
28.008858
 13
-14.259022854723799
 23
-0.1662404498993781
 33
21.166128
  0
3DFACE
  5
AE
  8
METAL
 10
-14.259022854723799
 20
-0.1662404498993781
 30
21.166128
 11
-15.8706228547238
 21
9.7352325501006192
 31
28.008858
 12
-15.820822854723801
 22
-0.1662404498993781
 32
28.008858
 13
-14.259022854723799
 23
-0.1662404498993781
 33
21.166128
  0
3DFACE
  5
AF
  8
METAL
 10
-9.8829298547238018
 20
-0.1662404498993781
 30
15.678685
 11
-9.9139818547238008
 21
9.7352335501006202
 31
15.639751999999991
 12
-14.303882854723801
 22
9.7352325501006192
 32
21.144528000000001
 13
-9.8829298547238018
 23
-0.1662404498993781
 33
15.678685
  0
3DFACE
  5
B0
  8
METAL
 10
-9.8829298547238018
 20
-0.1662404498993781
 30
15.678685
 11
-14.303882854723801
 21
9.7352325501006192
 31
21.144528000000001
 12
-14.259022854723799
 22
-0.1662404498993781
 32
21.166128
 13
-9.8829298547238018
 23
-0.1662404498993781
 33
15.678685
  0
3DFACE
  5
B1
  8
METAL
 10
-3.5592908547238009
 20
-0.1662404498993781
 30
12.633381
 11
-3.5703688547238008
 21
9.7352335501006202
 31
12.584832999999991
 12
-9.9139818547238008
 22
9.7352335501006202
 32
15.639751999999991
 13
-3.5592908547238009
 23
-0.1662404498993781
 33
12.633381
  0
3DFACE
  5
B2
  8
METAL
 10
-3.5592908547238009
 20
-0.1662404498993781
 30
12.633381
 11
-9.9139818547238008
 21
9.7352335501006202
 31
15.639751999999991
 12
-9.8829298547238018
 22
-0.1662404498993781
 32
15.678685
 13
-3.5592908547238009
 23
-0.1662404498993781
 33
12.633381
  0
3DFACE
  5
B3
  8
METAL
 10
3.459416145276196
 20
-0.1662404498993781
 30
12.633381
 11
3.4704941452761959
 21
9.7352335501006202
 31
12.584832999999991
 12
-3.5703688547238008
 22
9.7352335501006202
 32
12.584832999999991
 13
3.459416145276196
 23
-0.1662404498993781
 33
12.633381
  0
3DFACE
  5
B4
  8
METAL
 10
3.459416145276196
 20
-0.1662404498993781
 30
12.633381
 11
-3.5703688547238008
 21
9.7352335501006202
 31
12.584832999999991
 12
-3.5592908547238009
 22
-0.1662404498993781
 32
12.633381
 13
3.459416145276196
 23
-0.1662404498993781
 33
12.633381
  0
3DFACE
  5
B5
  8
METAL
 10
9.7830551452761991
 20
-0.1662404498993781
 30
15.678685
 11
9.8141071452761963
 21
9.7352335501006202
 31
15.639751999999991
 12
3.4704941452761959
 22
9.7352335501006202
 32
12.584832999999991
 13
9.7830551452761991
 23
-0.1662404498993781
 33
15.678685
  0
3DFACE
  5
B6
  8
METAL
 10
9.7830551452761991
 20
-0.1662404498993781
 30
15.678685
 11
3.4704941452761959
 21
9.7352335501006202
 31
12.584832999999991
 12
3.459416145276196
 22
-0.1662404498993781
 32
12.633381
 13
9.7830551452761991
 23
-0.1662404498993781
 33
15.678685
  0
3DFACE
  5
B7
  8
METAL
 10
14.159147145276201
 20
-0.1662404498993781
 30
21.166138
 11
14.2040171452762
 21
9.7352325501006192
 31
21.144528000000001
 12
9.8141071452761963
 22
9.7352335501006202
 32
15.639751999999991
 13
14.159147145276201
 23
-0.1662404498993781
 33
21.166138
  0
3DFACE
  5
B8
  8
METAL
 10
14.159147145276201
 20
-0.1662404498993781
 30
21.166138
 11
9.8141071452761963
 21
9.7352335501006202
 31
15.639751999999991
 12
9.7830551452761991
 22
-0.1662404498993781
 32
15.678685
 13
14.159147145276201
 23
-0.1662404498993781
 33
21.166138
  0
3DFACE
  5
B9
  8
METAL
 10
15.72094714527619
 20
-0.1662404498993781
 30
28.008858
 11
15.7707471452762
 21
9.7352325501006192
 31
28.008858
 12
14.2040171452762
 22
9.7352325501006192
 32
21.144528000000001
 13
15.72094714527619
 23
-0.1662404498993781
 33
28.008858
  0
3DFACE
  5
BA
  8
METAL
 10
15.72094714527619
 20
-0.1662404498993781
 30
28.008858
 11
14.2040171452762
 21
9.7352325501006192
 31
21.144528000000001
 12
14.159147145276201
 22
-0.1662404498993781
 32
21.166138
 13
15.72094714527619
 23
-0.1662404498993781
 33
28.008858
  0
3DFACE
  5
BB
  8
METAL
 10
9.8140991452761952
 20
9.7352325501006192
 30
40.377967999999989
 11
3.4704941452761959
 21
9.7352315501006217
 31
43.432887999999991
 12
-3.5703688547238008
 22
9.7352315501006217
 32
43.432887999999991
 13
9.8140991452761952
 23
9.7352325501006192
 33
40.377967999999989
  0
3DFACE
  5
BC
  8
METAL
 10
9.8140991452761952
 20
9.7352325501006192
 30
40.377967999999989
 11
-3.5703688547238008
 21
9.7352315501006217
 31
43.432887999999991
 12
-9.9139738547238032
 22
9.7352325501006192
 32
40.377967999999989
 13
9.8140991452761952
 23
9.7352325501006192
 33
40.377967999999989
  0
3DFACE
  5
BD
  8
METAL
 10
14.20400714527619
 20
9.7352325501006192
 30
34.873198000000002
 11
9.8140991452761952
 21
9.7352325501006192
 31
40.377967999999989
 12
-9.9139738547238032
 22
9.7352325501006192
 32
40.377967999999989
 13
14.20400714527619
 23
9.7352325501006192
 33
34.873198000000002
  0
3DFACE
  5
BE
  8
METAL
 10
14.20400714527619
 20
9.7352325501006192
 30
34.873198000000002
 11
-9.9139738547238032
 21
9.7352325501006192
 31
40.377967999999989
 12
-14.303882854723801
 22
9.7352325501006192
 32
34.873198000000002
 13
14.20400714527619
 23
9.7352325501006192
 33
34.873198000000002
  0
3DFACE
  5
BF
  8
METAL
 10
15.7707471452762
 20
9.7352325501006192
 30
28.008858
 11
14.20400714527619
 21
9.7352325501006192
 31
34.873198000000002
 12
-14.303882854723801
 22
9.7352325501006192
 32
34.873198000000002
 13
15.7707471452762
 23
9.7352325501006192
 33
28.008858
  0
3DFACE
  5
C0
  8
METAL
 10
15.7707471452762
 20
9.7352325501006192
 30
28.008858
 11
-14.303882854723801
 21
9.7352325501006192
 31
34.873198000000002
 12
-15.8706228547238
 22
9.7352325501006192
 32
28.008858
 13
15.7707471452762
 23
9.7352325501006192
 33
28.008858
  0
3DFACE
  5
C1
  8
METAL
 10
14.2040171452762
 20
9.7352325501006192
 30
21.144528000000001
 11
15.7707471452762
 21
9.7352325501006192
 31
28.008858
 12
-15.8706228547238
 22
9.7352325501006192
 32
28.008858
 13
14.2040171452762
 23
9.7352325501006192
 33
21.144528000000001
  0
3DFACE
  5
C2
  8
METAL
 10
14.2040171452762
 20
9.7352325501006192
 30
21.144528000000001
 11
-15.8706228547238
 21
9.7352325501006192
 31
28.008858
 12
-14.303882854723801
 22
9.7352325501006192
 32
21.144528000000001
 13
14.2040171452762
 23
9.7352325501006192
 33
21.144528000000001
  0
3DFACE
  5
C3
  8
METAL
 10
9.8141071452761963
 20
9.7352335501006202
 30
15.639751999999991
 11
14.2040171452762
 21
9.7352325501006192
 31
21.144528000000001
 12
-14.303882854723801
 22
9.7352325501006192
 32
21.144528000000001
 13
9.8141071452761963
 23
9.7352335501006202
 33
15.639751999999991
  0
3DFACE
  5
C4
  8
METAL
 10
9.8141071452761963
 20
9.7352335501006202
 30
15.639751999999991
 11
-14.303882854723801
 21
9.7352325501006192
 31
21.144528000000001
 12
-9.9139818547238008
 22
9.7352335501006202
 32
15.639751999999991
 13
9.8141071452761963
 23
9.7352335501006202
 33
15.639751999999991
  0
3DFACE
  5
C5
  8
METAL
 10
3.4704941452761959
 20
9.7352335501006202
 30
12.584832999999991
 11
9.8141071452761963
 21
9.7352335501006202
 31
15.639751999999991
 12
-9.9139818547238008
 22
9.7352335501006202
 32
15.639751999999991
 13
3.4704941452761959
 23
9.7352335501006202
 33
12.584832999999991
  0
3DFACE
  5
C6
  8
METAL
 10
3.4704941452761959
 20
9.7352335501006202
 30
12.584832999999991
 11
-9.9139818547238008
 21
9.7352335501006202
 31
15.639751999999991
 12
-3.5703688547238008
 22
9.7352335501006202
 32
12.584832999999991
 13
3.4704941452761959
 23
9.7352335501006202
 33
12.584832999999991
  0
3DFACE
  5
C7
  8
METAL
 10
15.9209471452762
 20
-0.1662404498993781
 30
28.008858
 11
14.3393371452762
 21
-0.1662404498993781
 31
34.938367999999997
 12
14.159137145276199
 22
-0.1662404498993781
 32
34.851588
 13
15.9209471452762
 23
-0.1662404498993781
 33
28.008858
  0
3DFACE
  5
C8
  8
METAL
 10
15.9209471452762
 20
-0.1662404498993781
 30
28.008858
 11
14.159137145276199
 21
-0.1662404498993781
 31
34.851588
 12
15.72094714527619
 22
-0.1662404498993781
 32
28.008858
 13
15.9209471452762
 23
-0.1662404498993781
 33
28.008858
  0
3DFACE
  5
C9
  8
METAL
 10
14.3393371452762
 20
-0.1662404498993781
 30
34.938367999999997
 11
9.9077501452761911
 21
-0.1662404498993781
 31
40.495407999999991
 12
9.7830551452761991
 22
-0.1662404498993781
 32
40.339038000000002
 13
14.3393371452762
 23
-0.1662404498993781
 33
34.938367999999997
  0
3DFACE
  5
CA
  8
METAL
 10
14.3393371452762
 20
-0.1662404498993781
 30
34.938367999999997
 11
9.7830551452761991
 21
-0.1662404498993781
 31
40.339038000000002
 12
14.159137145276199
 22
-0.1662404498993781
 32
34.851588
 13
14.3393371452762
 23
-0.1662404498993781
 33
34.938367999999997
  0
3DFACE
  5
CB
  8
METAL
 10
9.9077501452761911
 20
-0.1662404498993781
 30
40.495407999999991
 11
3.5039181452761961
 21
-0.1662404498993781
 31
43.57932799999999
 12
3.459416145276196
 22
-0.1662404498993781
 32
43.384337999999993
 13
9.9077501452761911
 23
-0.1662404498993781
 33
40.495407999999991
  0
3DFACE
  5
CC
  8
METAL
 10
9.9077501452761911
 20
-0.1662404498993781
 30
40.495407999999991
 11
3.459416145276196
 21
-0.1662404498993781
 31
43.384337999999993
 12
9.7830551452761991
 22
-0.1662404498993781
 32
40.339038000000002
 13
9.9077501452761911
 23
-0.1662404498993781
 33
40.495407999999991
  0
3DFACE
  5
CD
  8
METAL
 10
3.5039181452761961
 20
-0.1662404498993781
 30
43.57932799999999
 11
-3.603792854723801
 21
-0.1662404498993781
 31
43.57932799999999
 12
-3.5592908547238009
 22
-0.1662404498993781
 32
43.384337999999993
 13
3.5039181452761961
 23
-0.1662404498993781
 33
43.57932799999999
  0
3DFACE
  5
CE
  8
METAL
 10
3.5039181452761961
 20
-0.1662404498993781
 30
43.57932799999999
 11
-3.5592908547238009
 21
-0.1662404498993781
 31
43.384337999999993
 12
3.459416145276196
 22
-0.1662404498993781
 32
43.384337999999993
 13
3.5039181452761961
 23
-0.1662404498993781
 33
43.57932799999999
  0
3DFACE
  5
CF
  8
METAL
 10
-3.603792854723801
 20
-0.1662404498993781
 30
43.57932799999999
 11
-10.007622854723801
 21
-0.1662404498993781
 31
40.495407999999991
 12
-9.8829298547238018
 22
-0.1662404498993781
 32
40.339038000000002
 13
-3.603792854723801
 23
-0.1662404498993781
 33
43.57932799999999
  0
3DFACE
  5
D0
  8
METAL
 10
-3.603792854723801
 20
-0.1662404498993781
 30
43.57932799999999
 11
-9.8829298547238018
 21
-0.1662404498993781
 31
40.339038000000002
 12
-3.5592908547238009
 22
-0.1662404498993781
 32
43.384337999999993
 13
-3.603792854723801
 23
-0.1662404498993781
 33
43.57932799999999
  0
3DFACE
  5
D1
  8
METAL
 10
-10.007622854723801
 20
-0.1662404498993781
 30
40.495407999999991
 11
-14.439212854723801
 21
-0.1662404498993781
 31
34.938367999999997
 12
-14.2590128547238
 22
-0.1662404498993781
 32
34.851598000000003
 13
-10.007622854723801
 23
-0.1662404498993781
 33
40.495407999999991
  0
3DFACE
  5
D2
  8
METAL
 10
-10.007622854723801
 20
-0.1662404498993781
 30
40.495407999999991
 11
-14.2590128547238
 21
-0.1662404498993781
 31
34.851598000000003
 12
-9.8829298547238018
 22
-0.1662404498993781
 32
40.339038000000002
 13
-10.007622854723801
 23
-0.1662404498993781
 33
40.495407999999991
  0
3DFACE
  5
D3
  8
METAL
 10
-14.439212854723801
 20
-0.1662404498993781
 30
34.938367999999997
 11
-16.0208228547238
 21
-0.1662404498993781
 31
28.008858
 12
-15.820822854723801
 22
-0.1662404498993781
 32
28.008858
 13
-14.439212854723801
 23
-0.1662404498993781
 33
34.938367999999997
  0
3DFACE
  5
D4
  8
METAL
 10
-14.439212854723801
 20
-0.1662404498993781
 30
34.938367999999997
 11
-15.820822854723801
 21
-0.1662404498993781
 31
28.008858
 12
-14.2590128547238
 22
-0.1662404498993781
 32
34.851598000000003
 13
-14.439212854723801
 23
-0.1662404498993781
 33
34.938367999999997
  0
3DFACE
  5
D5
  8
METAL
 10
-16.0208228547238
 20
-0.1662404498993781
 30
28.008858
 11
-14.439212854723801
 21
-0.1662404498993781
 31
21.079357999999999
 12
-14.259022854723799
 22
-0.1662404498993781
 32
21.166128
 13
-16.0208228547238
 23
-0.1662404498993781
 33
28.008858
  0
3DFACE
  5
D6
  8
METAL
 10
-16.0208228547238
 20
-0.1662404498993781
 30
28.008858
 11
-14.259022854723799
 21
-0.1662404498993781
 31
21.166128
 12
-15.820822854723801
 22
-0.1662404498993781
 32
28.008858
 13
-16.0208228547238
 23
-0.1662404498993781
 33
28.008858
  0
3DFACE
  5
D7
  8
METAL
 10
-14.439212854723801
 20
-0.1662404498993781
 30
21.079357999999999
 11
-10.007622854723801
 21
-0.1662404498993781
 31
15.522318999999991
 12
-9.8829298547238018
 22
-0.1662404498993781
 32
15.678685
 13
-14.439212854723801
 23
-0.1662404498993781
 33
21.079357999999999
  0
3DFACE
  5
D8
  8
METAL
 10
-14.439212854723801
 20
-0.1662404498993781
 30
21.079357999999999
 11
-9.8829298547238018
 21
-0.1662404498993781
 31
15.678685
 12
-14.259022854723799
 22
-0.1662404498993781
 32
21.166128
 13
-14.439212854723801
 23
-0.1662404498993781
 33
21.079357999999999
  0
3DFACE
  5
D9
  8
METAL
 10
-10.007622854723801
 20
-0.1662404498993781
 30
15.522318999999991
 11
-3.603792854723801
 21
-0.1662404498993781
 31
12.438395
 12
-3.5592908547238009
 22
-0.1662404498993781
 32
12.633381
 13
-10.007622854723801
 23
-0.1662404498993781
 33
15.522318999999991
  0
3DFACE
  5
DA
  8
METAL
 10
-10.007622854723801
 20
-0.1662404498993781
 30
15.522318999999991
 11
-3.5592908547238009
 21
-0.1662404498993781
 31
12.633381
 12
-9.8829298547238018
 22
-0.1662404498993781
 32
15.678685
 13
-10.007622854723801
 23
-0.1662404498993781
 33
15.522318999999991
  0
3DFACE
  5
DB
  8
METAL
 10
-3.603792854723801
 20
-0.1662404498993781
 30
12.438395
 11
3.5039181452761961
 21
-0.1662404498993781
 31
12.438395
 12
3.459416145276196
 22
-0.1662404498993781
 32
12.633381
 13
-3.603792854723801
 23
-0.1662404498993781
 33
12.438395
  0
3DFACE
  5
DC
  8
METAL
 10
-3.603792854723801
 20
-0.1662404498993781
 30
12.438395
 11
3.459416145276196
 21
-0.1662404498993781
 31
12.633381
 12
-3.5592908547238009
 22
-0.1662404498993781
 32
12.633381
 13
-3.603792854723801
 23
-0.1662404498993781
 33
12.438395
  0
3DFACE
  5
DD
  8
METAL
 10
3.5039181452761961
 20
-0.1662404498993781
 30
12.438395
 11
9.9077501452761911
 21
-0.1662404498993781
 31
15.522318999999991
 12
9.7830551452761991
 22
-0.1662404498993781
 32
15.678685
 13
3.5039181452761961
 23
-0.1662404498993781
 33
12.438395
  0
3DFACE
  5
DE
  8
METAL
 10
3.5039181452761961
 20
-0.1662404498993781
 30
12.438395
 11
9.7830551452761991
 21
-0.1662404498993781
 31
15.678685
 12
3.459416145276196
 22
-0.1662404498993781
 32
12.633381
 13
3.5039181452761961
 23
-0.1662404498993781
 33
12.438395
  0
3DFACE
  5
DF
  8
METAL
 10
9.9077501452761911
 20
-0.1662404498993781
 30
15.522318999999991
 11
14.3393371452762
 21
-0.1662404498993781
 31
21.079357999999999
 12
14.159147145276201
 22
-0.1662404498993781
 32
21.166138
 13
9.9077501452761911
 23
-0.1662404498993781
 33
15.522318999999991
  0
3DFACE
  5
E0
  8
METAL
 10
9.9077501452761911
 20
-0.1662404498993781
 30
15.522318999999991
 11
14.159147145276201
 21
-0.1662404498993781
 31
21.166138
 12
9.7830551452761991
 22
-0.1662404498993781
 32
15.678685
 13
9.9077501452761911
 23
-0.1662404498993781
 33
15.522318999999991
  0
3DFACE
  5
E1
  8
METAL
 10
14.3393371452762
 20
-0.1662404498993781
 30
21.079357999999999
 11
15.9209471452762
 21
-0.1662404498993781
 31
28.008858
 12
15.72094714527619
 22
-0.1662404498993781
 32
28.008858
 13
14.3393371452762
 23
-0.1662404498993781
 33
21.079357999999999
  0
3DFACE
  5
E2
  8
METAL
 10
14.3393371452762
 20
-0.1662404498993781
 30
21.079357999999999
 11
15.72094714527619
 21
-0.1662404498993781
 31
28.008858
 12
14.159147145276201
 22
-0.1662404498993781
 32
21.166138
 13
14.3393371452762
 23
-0.1662404498993781
 33
21.079357999999999
  0
3DFACE
  5
E3
  8
METAL
 10
-18.453272854723799
 20
-0.0250744498993774
 30
9.4259479999999982
 11
18.7853771452762
 21
-0.0250744498993774
 31
9.4259479999999982
 12
18.7853771452762
 22
-1.3450004498993751
 32
9.4259479999999982
 13
-18.453272854723799
 23
-0.0250744498993774
 33
9.4259479999999982
  0
3DFACE
  5
E4
  8
METAL
 10
-18.453272854723799
 20
-0.0250744498993774
 30
9.4259479999999982
 11
18.7853771452762
 21
-1.3450004498993751
 31
9.4259479999999982
 12
-18.453272854723799
 22
-1.3450004498993751
 32
9.4259479999999982
 13
-18.453272854723799
 23
-0.0250744498993774
 33
9.4259479999999982
  0
3DFACE
  5
E5
  8
METAL
 10
18.7853771452762
 20
-0.0250744498993774
 30
9.4259479999999982
 11
18.7853771452762
 21
-0.0250764498993781
 31
46.72675799999999
 12
18.7853771452762
 22
-1.3450004498993751
 32
46.72675799999999
 13
18.7853771452762
 23
-0.0250744498993774
 33
9.4259479999999982
  0
3DFACE
  5
E6
  8
METAL
 10
18.7853771452762
 20
-0.0250744498993774
 30
9.4259479999999982
 11
18.7853771452762
 21
-1.3450004498993751
 31
46.72675799999999
 12
18.7853771452762
 22
-1.3450004498993751
 32
9.4259479999999982
 13
18.7853771452762
 23
-0.0250744498993774
 33
9.4259479999999982
  0
3DFACE
  5
E7
  8
METAL
 10
18.7853771452762
 20
-0.0250764498993781
 30
46.72675799999999
 11
-18.453272854723799
 21
-0.0250764498993781
 31
46.72675799999999
 12
-18.453272854723799
 22
-1.3450004498993751
 32
46.72675799999999
 13
18.7853771452762
 23
-0.0250764498993781
 33
46.72675799999999
  0
3DFACE
  5
E8
  8
METAL
 10
18.7853771452762
 20
-0.0250764498993781
 30
46.72675799999999
 11
-18.453272854723799
 21
-1.3450004498993751
 31
46.72675799999999
 12
18.7853771452762
 22
-1.3450004498993751
 32
46.72675799999999
 13
18.7853771452762
 23
-0.0250764498993781
 33
46.72675799999999
  0
3DFACE
  5
E9
  8
METAL
 10
-18.453272854723799
 20
-0.0250764498993781
 30
46.72675799999999
 11
-18.453272854723799
 21
-0.0250744498993774
 31
9.4259479999999982
 12
-18.453272854723799
 22
-1.3450004498993751
 32
9.4259479999999982
 13
-18.453272854723799
 23
-0.0250764498993781
 33
46.72675799999999
  0
3DFACE
  5
EA
  8
METAL
 10
-18.453272854723799
 20
-0.0250764498993781
 30
46.72675799999999
 11
-18.453272854723799
 21
-1.3450004498993751
 31
9.4259479999999982
 12
-18.453272854723799
 22
-1.3450004498993751
 32
46.72675799999999
 13
-18.453272854723799
 23
-0.0250764498993781
 33
46.72675799999999
  0
3DFACE
  5
EB
  8
METAL
 10
-18.453272854723799
 20
-0.0250744498993774
 30
9.4259479999999982
 11
-18.453272854723799
 21
-0.0250764498993781
 31
46.72675799999999
 12
-9.2288158547238002
 22
-0.0250754498993773
 32
37.502298000000003
 13
-18.453272854723799
 23
-0.0250744498993774
 33
9.4259479999999982
  0
3DFACE
  5
EC
  8
METAL
 10
-18.453272854723799
 20
-0.0250744498993774
 30
9.4259479999999982
 11
-9.2288158547238002
 21
-0.0250754498993773
 31
37.502298000000003
 12
-9.2288158547238002
 22
-0.0250744498993774
 32
18.650404999999999
 13
-18.453272854723799
 23
-0.0250744498993774
 33
9.4259479999999982
  0
3DFACE
  5
ED
  8
METAL
 10
-18.453272854723799
 20
-0.0250764498993781
 30
46.72675799999999
 11
18.7853771452762
 21
-0.0250764498993781
 31
46.72675799999999
 12
9.5609181452762009
 22
-0.0250754498993773
 32
37.502298000000003
 13
-18.453272854723799
 23
-0.0250764498993781
 33
46.72675799999999
  0
3DFACE
  5
EE
  8
METAL
 10
-18.453272854723799
 20
-0.0250764498993781
 30
46.72675799999999
 11
9.5609181452762009
 21
-0.0250754498993773
 31
37.502298000000003
 12
-9.2288158547238002
 22
-0.0250754498993773
 32
37.502298000000003
 13
-18.453272854723799
 23
-0.0250764498993781
 33
46.72675799999999
  0
3DFACE
  5
EF
  8
METAL
 10
18.7853771452762
 20
-0.0250764498993781
 30
46.72675799999999
 11
18.7853771452762
 21
-0.0250744498993774
 31
9.4259479999999982
 12
9.5609181452762009
 22
-0.0250744498993774
 32
18.650404999999999
 13
18.7853771452762
 23
-0.0250764498993781
 33
46.72675799999999
  0
3DFACE
  5
F0
  8
METAL
 10
18.7853771452762
 20
-0.0250764498993781
 30
46.72675799999999
 11
9.5609181452762009
 21
-0.0250744498993774
 31
18.650404999999999
 12
9.5609181452762009
 22
-0.0250754498993773
 32
37.502298000000003
 13
18.7853771452762
 23
-0.0250764498993781
 33
46.72675799999999
  0
3DFACE
  5
F1
  8
METAL
 10
18.7853771452762
 20
-0.0250744498993774
 30
9.4259479999999982
 11
-18.453272854723799
 21
-0.0250744498993774
 31
9.4259479999999982
 12
-9.2288158547238002
 22
-0.0250744498993774
 32
18.650404999999999
 13
18.7853771452762
 23
-0.0250744498993774
 33
9.4259479999999982
  0
3DFACE
  5
F2
  8
METAL
 10
18.7853771452762
 20
-0.0250744498993774
 30
9.4259479999999982
 11
-9.2288158547238002
 21
-0.0250744498993774
 31
18.650404999999999
 12
9.5609181452762009
 22
-0.0250744498993774
 32
18.650404999999999
 13
18.7853771452762
 23
-0.0250744498993774
 33
9.4259479999999982
  0
3DFACE
  5
F3
  8
METAL
 10
-18.453272854723799
 20
-1.3450004498993751
 30
9.4259479999999982
 11
18.7853771452762
 21
-1.3450004498993751
 31
9.4259479999999982
 12
9.5609181452762009
 22
-1.3450004498993751
 32
18.650404999999999
 13
-18.453272854723799
 23
-1.3450004498993751
 33
9.4259479999999982
  0
3DFACE
  5
F4
  8
METAL
 10
-18.453272854723799
 20
-1.3450004498993751
 30
9.4259479999999982
 11
9.5609181452762009
 21
-1.3450004498993751
 31
18.650404999999999
 12
-9.2288158547238002
 22
-1.3450004498993751
 32
18.650404999999999
 13
-18.453272854723799
 23
-1.3450004498993751
 33
9.4259479999999982
  0
3DFACE
  5
F5
  8
METAL
 10
18.7853771452762
 20
-1.3450004498993751
 30
9.4259479999999982
 11
18.7853771452762
 21
-1.3450004498993751
 31
46.72675799999999
 12
9.5609181452762009
 22
-1.3450004498993751
 32
37.502298000000003
 13
18.7853771452762
 23
-1.3450004498993751
 33
9.4259479999999982
  0
3DFACE
  5
F6
  8
METAL
 10
18.7853771452762
 20
-1.3450004498993751
 30
9.4259479999999982
 11
9.5609181452762009
 21
-1.3450004498993751
 31
37.502298000000003
 12
9.5609181452762009
 22
-1.3450004498993751
 32
18.650404999999999
 13
18.7853771452762
 23
-1.3450004498993751
 33
9.4259479999999982
  0
3DFACE
  5
F7
  8
METAL
 10
18.7853771452762
 20
-1.3450004498993751
 30
46.72675799999999
 11
-18.453272854723799
 21
-1.3450004498993751
 31
46.72675799999999
 12
-9.2288158547238002
 22
-1.3450004498993751
 32
37.502298000000003
 13
18.7853771452762
 23
-1.3450004498993751
 33
46.72675799999999
  0
3DFACE
  5
F8
  8
METAL
 10
18.7853771452762
 20
-1.3450004498993751
 30
46.72675799999999
 11
-9.2288158547238002
 21
-1.3450004498993751
 31
37.502298000000003
 12
9.5609181452762009
 22
-1.3450004498993751
 32
37.502298000000003
 13
18.7853771452762
 23
-1.3450004498993751
 33
46.72675799999999
  0
3DFACE
  5
F9
  8
METAL
 10
-18.453272854723799
 20
-1.3450004498993751
 30
46.72675799999999
 11
-18.453272854723799
 21
-1.3450004498993751
 31
9.4259479999999982
 12
-9.2288158547238002
 22
-1.3450004498993751
 32
18.650404999999999
 13
-18.453272854723799
 23
-1.3450004498993751
 33
46.72675799999999
  0
3DFACE
  5
FA
  8
METAL
 10
-18.453272854723799
 20
-1.3450004498993751
 30
46.72675799999999
 11
-9.2288158547238002
 21
-1.3450004498993751
 31
18.650404999999999
 12
-9.2288158547238002
 22
-1.3450004498993751
 32
37.502298000000003
 13
-18.453272854723799
 23
-1.3450004498993751
 33
46.72675799999999
  0
3DFACE
  5
FB
  8
METAL
 10
9.5609181452762009
 20
-1.3450004498993751
 30
18.650404999999999
 11
9.5609181452762009
 21
-0.0250744498993774
 31
18.650404999999999
 12
-9.2288158547238002
 22
-0.0250744498993774
 32
18.650404999999999
 13
9.5609181452762009
 23
-1.3450004498993751
 33
18.650404999999999
  0
3DFACE
  5
FC
  8
METAL
 10
9.5609181452762009
 20
-1.3450004498993751
 30
18.650404999999999
 11
-9.2288158547238002
 21
-0.0250744498993774
 31
18.650404999999999
 12
-9.2288158547238002
 22
-1.3450004498993751
 32
18.650404999999999
 13
9.5609181452762009
 23
-1.3450004498993751
 33
18.650404999999999
  0
3DFACE
  5
FD
  8
METAL
 10
9.5609181452762009
 20
-1.3450004498993751
 30
37.502298000000003
 11
9.5609181452762009
 21
-0.0250754498993773
 31
37.502298000000003
 12
9.5609181452762009
 22
-0.0250744498993774
 32
18.650404999999999
 13
9.5609181452762009
 23
-1.3450004498993751
 33
37.502298000000003
  0
3DFACE
  5
FE
  8
METAL
 10
9.5609181452762009
 20
-1.3450004498993751
 30
37.502298000000003
 11
9.5609181452762009
 21
-0.0250744498993774
 31
18.650404999999999
 12
9.5609181452762009
 22
-1.3450004498993751
 32
18.650404999999999
 13
9.5609181452762009
 23
-1.3450004498993751
 33
37.502298000000003
  0
3DFACE
  5
FF
  8
METAL
 10
-9.2288158547238002
 20
-1.3450004498993751
 30
37.502298000000003
 11
-9.2288158547238002
 21
-0.0250754498993773
 31
37.502298000000003
 12
9.5609181452762009
 22
-0.0250754498993773
 32
37.502298000000003
 13
-9.2288158547238002
 23
-1.3450004498993751
 33
37.502298000000003
  0
3DFACE
  5
100
  8
METAL
 10
-9.2288158547238002
 20
-1.3450004498993751
 30
37.502298000000003
 11
9.5609181452762009
 21
-0.0250754498993773
 31
37.502298000000003
 12
9.5609181452762009
 22
-1.3450004498993751
 32
37.502298000000003
 13
-9.2288158547238002
 23
-1.3450004498993751
 33
37.502298000000003
  0
3DFACE
  5
101
  8
METAL
 10
-9.2288158547238002
 20
-1.3450004498993751
 30
18.650404999999999
 11
-9.2288158547238002
 21
-0.0250744498993774
 31
18.650404999999999
 12
-9.2288158547238002
 22
-0.0250754498993773
 32
37.502298000000003
 13
-9.2288158547238002
 23
-1.3450004498993751
 33
18.650404999999999
  0
3DFACE
  5
102
  8
METAL
 10
-9.2288158547238002
 20
-1.3450004498993751
 30
18.650404999999999
 11
-9.2288158547238002
 21
-0.0250754498993773
 31
37.502298000000003
 12
-9.2288158547238002
 22
-1.3450004498993751
 32
37.502298000000003
 13
-9.2288158547238002
 23
-1.3450004498993751
 33
18.650404999999999
  0
ENDSEC
  0
EOF
