  0
SECTION
  2
HEADER
  9
$ACADVER
  1
AC1009
  9
$INSBASE
 10
0.0
 20
0.0
 30
0.0
  9
$EXTMIN
 10
-10.000000003148671
 20
0.0
 30
0.0
  9
$EXTMAX
 10
10.0000000000048
 20
400.00000000000068
 30
8.2598675727648327
  9
$LIMMIN
 10
0.0
 20
0.0
  9
$LIMMAX
 10
420.0
 20
297.0
  9
$ORTHOMODE
 70
     0
  9
$REGENMODE
 70
     1
  9
$FILLMODE
 70
     1
  9
$QTEXTMODE
 70
     0
  9
$MIRRTEXT
 70
     0
  9
$DRAGMODE
 70
     2
  9
$LTSCALE
 40
1.0
  9
$OSMODE
 70
   759
  9
$ATTMODE
 70
     1
  9
$TEXTSIZE
 40
2.5
  9
$TRACEWID
 40
1.0
  9
$TEXTSTYLE
  7
STANDARD
  9
$CLAYER
  8
0
  9
$CELTYPE
  6
BYLAYER
  9
$CECOLOR
 62
   256
  9
$DIMSCALE
 40
1.0
  9
$DIMASZ
 40
2.5
  9
$DIMEXO
 40
0.625
  9
$DIMDLI
 40
3.75
  9
$DIMRND
 40
0.0
  9
$DIMDLE
 40
0.0
  9
$DIMEXE
 40
1.25
  9
$DIMTP
 40
0.0
  9
$DIMTM
 40
0.0
  9
$DIMTXT
 40
2.5
  9
$DIMCEN
 40
2.5
  9
$DIMTSZ
 40
0.0
  9
$DIMTOL
 70
     0
  9
$DIMLIM
 70
     0
  9
$DIMTIH
 70
     0
  9
$DIMTOH
 70
     0
  9
$DIMSE1
 70
     0
  9
$DIMSE2
 70
     0
  9
$DIMTAD
 70
     1
  9
$DIMZIN
 70
     8
  9
$DIMBLK
  1

  9
$DIMASO
 70
     1
  9
$DIMSHO
 70
     1
  9
$DIMPOST
  1

  9
$DIMAPOST
  1

  9
$DIMALT
 70
     0
  9
$DIMALTD
 70
     3
  9
$DIMALTF
 40
0.03937007874016
  9
$DIMLFAC
 40
1.0
  9
$DIMTOFL
 70
     1
  9
$DIMTVP
 40
0.0
  9
$DIMTIX
 70
     0
  9
$DIMSOXD
 70
     0
  9
$DIMSAH
 70
     0
  9
$DIMBLK1
  1

  9
$DIMBLK2
  1

  9
$DIMSTYLE
  2
ISO-25
  9
$DIMCLRD
 70
     0
  9
$DIMCLRE
 70
     0
  9
$DIMCLRT
 70
     0
  9
$DIMTFAC
 40
1.0
  9
$DIMGAP
 40
0.625
  9
$LUNITS
 70
     2
  9
$LUPREC
 70
     4
  9
$SKETCHINC
 40
1.0
  9
$FILLETRAD
 40
0.0
  9
$AUNITS
 70
     0
  9
$AUPREC
 70
     0
  9
$MENU
  1
.
  9
$ELEVATION
 40
0.0
  9
$PELEVATION
 40
0.0
  9
$THICKNESS
 40
0.0
  9
$LIMCHECK
 70
     0
  9
$BLIPMODE
 70
     0
  9
$CHAMFERA
 40
0.0
  9
$CHAMFERB
 40
0.0
  9
$SKPOLY
 70
     0
  9
$TDCREATE
 40
2457493.7219147221
  9
$TDUPDATE
 40
2457493.7223616429
  9
$TDINDWG
 40
0.0004478125
  9
$TDUSRTIMER
 40
0.0004477894
  9
$USRTIMER
 70
     1
  9
$ANGBASE
 50
0.0
  9
$ANGDIR
 70
     0
  9
$PDMODE
 70
     0
  9
$PDSIZE
 40
0.0
  9
$PLINEWID
 40
0.0
  9
$COORDS
 70
     1
  9
$SPLFRAME
 70
     0
  9
$SPLINETYPE
 70
     6
  9
$SPLINESEGS
 70
     8
  9
$ATTDIA
 70
     0
  9
$ATTREQ
 70
     1
  9
$HANDLING
 70
     1
  9
$HANDSEED
  5
35A
  9
$SURFTAB1
 70
     6
  9
$SURFTAB2
 70
     6
  9
$SURFTYPE
 70
     6
  9
$SURFU
 70
     6
  9
$SURFV
 70
     6
  9
$UCSNAME
  2

  9
$UCSORG
 10
0.0
 20
0.0
 30
0.0
  9
$UCSXDIR
 10
1.0
 20
0.0
 30
0.0
  9
$UCSYDIR
 10
0.0
 20
1.0
 30
0.0
  9
$PUCSNAME
  2

  9
$PUCSORG
 10
0.0
 20
0.0
 30
0.0
  9
$PUCSXDIR
 10
1.0
 20
0.0
 30
0.0
  9
$PUCSYDIR
 10
0.0
 20
1.0
 30
0.0
  9
$USERI1
 70
     0
  9
$USERI2
 70
     0
  9
$USERI3
 70
     0
  9
$USERI4
 70
     0
  9
$USERI5
 70
     0
  9
$USERR1
 40
0.0
  9
$USERR2
 40
0.0
  9
$USERR3
 40
0.0
  9
$USERR4
 40
0.0
  9
$USERR5
 40
0.0
  9
$WORLDVIEW
 70
     1
  9
$SHADEDGE
 70
     3
  9
$SHADEDIF
 70
    70
  9
$TILEMODE
 70
     1
  9
$MAXACTVP
 70
    64
  9
$PLIMCHECK
 70
     0
  9
$PEXTMIN
 10
0.0
 20
0.0
 30
0.0
  9
$PEXTMAX
 10
0.0
 20
0.0
 30
0.0
  9
$PLIMMIN
 10
0.0
 20
0.0
  9
$PLIMMAX
 10
12.0
 20
9.0
  9
$UNITMODE
 70
     0
  9
$VISRETAIN
 70
     1
  9
$PLINEGEN
 70
     0
  9
$PSLTSCALE
 70
     1
  0
ENDSEC
  0
SECTION
  2
TABLES
  0
TABLE
  2
VPORT
 70
     1
  0
VPORT
  2
*ACTIVE
 70
     0
 10
0.0
 20
0.0
 11
1.0
 21
1.0
 12
0.0
 22
0.0
 13
0.0
 23
0.0
 14
10.0
 24
10.0
 15
10.0
 25
10.0
 16
-0.0000000000002931
 26
0.0
 36
1319.7818354313199
 17
0.0
 27
200.0
 37
3.3010694980621329
 40
400.55410151354602
 41
2.5463320463320458
 42
50.0
 43
0.0
 44
0.0
 50
0.0
 51
0.0
 71
     0
 72
  1000
 73
     1
 74
     3
 75
     0
 76
     1
 77
     0
 78
     0
  0
ENDTAB
  0
TABLE
  2
LTYPE
 70
     2
  0
LTYPE
  2
CONTINUOUS
 70
     0
  3
Solid line
 72
    65
 73
     0
 40
0.0
  0
LTYPE
  2
PHANTOM2
 70
     0
  3
Phantom (.5x) ___ _ _ ___ _ _ ___ _ _ ___ _ _
 72
    65
 73
     6
 40
1.25
 49
0.625
 49
-0.125
 49
0.125
 49
-0.125
 49
0.125
 49
-0.125
  0
ENDTAB
  0
TABLE
  2
LAYER
 70
     2
  0
LAYER
  2
0
 70
     0
 62
     7
  6
CONTINUOUS
  0
LAYER
  2
PERFIL
 70
     0
 62
   230
  6
CONTINUOUS
  0
ENDTAB
  0
TABLE
  2
STYLE
 70
     2
  0
STYLE
  2
STANDARD
 70
     0
 40
0.0
 41
1.0
 50
0.0
 71
     0
 42
2.5
  3
txt
  4

  0
STYLE
  2
ANNOTATIVE
 70
     0
 40
0.0
 41
1.0
 50
0.0
 71
     0
 42
2.5
  3
txt
  4

  0
ENDTAB
  0
TABLE
  2
VIEW
 70
     0
  0
ENDTAB
  0
TABLE
  2
UCS
 70
     0
  0
ENDTAB
  0
TABLE
  2
APPID
 70
    10
  0
APPID
  2
ACAD
 70
     0
  0
APPID
  2
ACAD_PSEXT
 70
     0
  0
APPID
  2
ACADANNOPO
 70
     0
  0
APPID
  2
ACADANNOTATIVE
 70
     0
  0
APPID
  2
ACAD_DSTYLE_DIMJAG
 70
     0
  0
APPID
  2
ACAD_DSTYLE_DIMTALN
 70
     0
  0
APPID
  2
ACAD_MLEADERVER
 70
     0
  0
APPID
  2
ACAD_NAV_VCDISPLAY
 70
     0
  0
APPID
  2
ACAECLAYERSTANDARD
 70
     0
  0
APPID
  2
ACCMTRANSPARENCY
 70
     0
  0
ENDTAB
  0
TABLE
  2
DIMSTYLE
 70
     3
  0
DIMSTYLE
  2
STANDARD
 70
     0
  3

  4

  5

  6

  7

 40
1.0
 41
0.18
 42
0.0625
 43
0.38
 44
0.18
 45
0.0
 46
0.0
 47
0.0
 48
0.0
140
0.18
141
0.09
142
0.0
143
25.399999999999999
144
1.0
145
0.0
146
1.0
147
0.09
 71
     0
 72
     0
 73
     1
 74
     1
 75
     0
 76
     0
 77
     0
 78
     0
170
     0
171
     2
172
     0
173
     0
174
     0
175
     0
176
     0
177
     0
178
     0
  0
DIMSTYLE
  2
ANNOTATIVE
 70
     0
  3

  4

  5

  6

  7

 40
0.0
 41
2.5
 42
0.625
 43
3.75
 44
1.25
 45
0.0
 46
0.0
 47
0.0
 48
0.0
140
2.5
141
2.5
142
0.0
143
0.03937007874016
144
1.0
145
0.0
146
1.0
147
0.625
 71
     0
 72
     0
 73
     0
 74
     0
 75
     0
 76
     0
 77
     1
 78
     8
170
     0
171
     3
172
     1
173
     0
174
     0
175
     0
176
     0
177
     0
178
     0
  0
DIMSTYLE
  2
ISO-25
 70
     0
  3

  4

  5

  6

  7

 40
1.0
 41
2.5
 42
0.625
 43
3.75
 44
1.25
 45
0.0
 46
0.0
 47
0.0
 48
0.0
140
2.5
141
2.5
142
0.0
143
0.03937007874016
144
1.0
145
0.0
146
1.0
147
0.625
 71
     0
 72
     0
 73
     0
 74
     0
 75
     0
 76
     0
 77
     1
 78
     8
170
     0
171
     3
172
     1
173
     0
174
     0
175
     0
176
     0
177
     0
178
     0
  0
ENDTAB
  0
ENDSEC
  0
SECTION
  2
BLOCKS
  0
BLOCK
  8
0
  2
$MODEL_SPACE
 70
     0
 10
0.0
 20
0.0
 30
0.0
  3
$MODEL_SPACE
  1

  0
ENDBLK
  5
21
  8
0
  0
BLOCK
 67
     1
  8
0
  2
$PAPER_SPACE
 70
     0
 10
0.0
 20
0.0
 30
0.0
  3
$PAPER_SPACE
  1

  0
ENDBLK
  5
D5
 67
     1
  8
0
  0
ENDSEC
  0
SECTION
  2
ENTITIES
  0
LINE
  5
29E
  8
PERFIL
 10
10.0
 20
400.00000000000068
 30
0.0000000000001013
 11
-10.0
 21
400.00000000000068
 31
0.0000000000001013
210
0.0
220
1.0
230
-0.0000000000000002
  0
ARC
  5
29F
  8
PERFIL
 10
0.0000000000009095
 20
-83.035576335081103
 30
400.00000000000068
 40
89.637715478790255
210
0.0
220
1.0
230
-0.0000000000000002
 50
83.594738863135191
 51
96.405261136864809
  0
LINE
  5
2A0
  8
PERFIL
 10
-2.5000000000009091
 20
400.00000000000068
 30
0.5000000000001013
 11
-2.5000000000009091
 21
400.00000000000068
 31
5.5000000000001013
210
0.0
220
1.0
230
-0.0000000000000002
  0
LINE
  5
2A1
  8
PERFIL
 10
2.5
 20
400.00000000000068
 30
0.5000000000001013
 11
2.4999999999990901
 21
400.00000000000068
 31
5.5000000000001013
210
0.0
220
1.0
230
-0.0000000000000002
  0
LINE
  5
2A2
  8
PERFIL
 10
10.0
 20
400.00000000000068
 30
0.5000000000001013
 11
-10.0
 21
400.00000000000068
 31
0.5000000000001013
210
0.0
220
1.0
230
-0.0000000000000002
  0
LINE
  5
2A3
  8
PERFIL
 10
-10.0
 20
400.00000000000068
 30
5.5
 11
-10.0
 21
0.0
 31
5.5000000000001563
  0
LINE
  5
2A4
  8
PERFIL
 10
-10.0
 20
400.00000000000068
 30
6.0425917885200082
 11
-10.0
 21
0.0
 31
6.0425917885200082
  0
LINE
  5
2A5
  8
PERFIL
 10
10.0
 20
400.00000000000068
 30
6.0425917885201086
 11
10.0
 21
0.0
 31
6.0425917885201086
  0
LINE
  5
2A6
  8
PERFIL
 10
10.0
 20
400.00000000000068
 30
5.4988845151999568
 11
10.0
 21
0.0
 31
5.4988845151999568
  0
LINE
  5
2A7
  8
PERFIL
 10
10.0
 20
0.0
 30
0.0
 11
-10.0
 21
0.0
 31
0.0
210
0.0
220
1.0
230
-0.0000000000000002
  0
LINE
  5
2A8
  8
PERFIL
 10
10.0
 20
0.0
 30
0.5
 11
-10.0
 21
0.0
 31
0.5
210
0.0
220
1.0
230
-0.0000000000000002
  0
LINE
  5
2A9
  8
PERFIL
 10
10.0
 20
0.0
 30
0.5
 11
10.0
 21
400.00000000000068
 31
0.5
  0
LINE
  5
2AA
  8
PERFIL
 10
10.0
 20
0.0
 30
0.0
 11
10.0
 21
400.00000000000068
 31
0.0
  0
LINE
  5
2AB
  8
PERFIL
 10
-10.0
 20
0.0
 30
0.5
 11
-10.0
 21
400.00000000000068
 31
0.5
  0
LINE
  5
2AC
  8
PERFIL
 10
-10.0
 20
0.0
 30
0.0
 11
-10.0
 21
400.00000000000068
 31
0.0
  0
LINE
  5
2AD
  8
PERFIL
 10
-10.0
 20
400.00000000000068
 30
0.0000000000001013
 11
-10.0
 21
400.00000000000068
 31
0.5000000000001013
  0
LINE
  5
2AE
  8
PERFIL
 10
10.0
 20
400.00000000000068
 30
0.0
 11
10.0
 21
400.00000000000068
 31
0.5
  0
LINE
  5
2AF
  8
PERFIL
 10
10.0
 20
400.00000000000068
 30
5.5
 11
-10.0
 21
400.00000000000068
 31
5.5000000000001004
  0
LINE
  5
2B0
  8
PERFIL
 10
10.0
 20
400.00000000000068
 30
5.5
 11
10.0
 21
400.00000000000068
 31
6.0425917885199514
  0
LINE
  5
2B1
  8
PERFIL
 10
-10.0
 20
0.0
 30
0.0
 11
-10.0
 21
0.0
 31
0.5
  0
LINE
  5
2B2
  8
PERFIL
 10
10.0
 20
0.0
 30
0.0
 11
10.0
 21
0.0
 31
0.5
  0
LINE
  5
2B3
  8
PERFIL
 10
2.5
 20
0.0
 30
0.5000000000001013
 11
2.4999999999990901
 21
0.0
 31
5.5000000000001013
210
0.0
220
1.0
230
-0.0000000000000002
  0
LINE
  5
2B4
  8
PERFIL
 10
-2.5000000000009091
 20
0.0
 30
0.5000000000001013
 11
-2.5000000000009091
 21
0.0
 31
5.5000000000001013
210
0.0
220
1.0
230
-0.0000000000000002
  0
LINE
  5
2B5
  8
PERFIL
 10
-10.0
 20
0.0
 30
5.5000000000001563
 11
-10.0
 21
0.0
 31
6.0425917885200988
  0
LINE
  5
2B6
  8
PERFIL
 10
10.0
 20
0.0
 30
5.5
 11
10.0
 21
0.0
 31
6.0425917885201814
  0
3DFACE
  5
2B7
  8
PERFIL
 10
-10.0
 20
0.0
 30
0.0
 11
-10.0
 21
0.0
 31
0.5
 12
10.0
 22
0.0
 32
0.5
 13
10.0
 23
0.0
 33
0.0
  0
3DFACE
  5
2B8
  8
PERFIL
 10
10.0
 20
0.0
 30
0.0
 11
10.0
 21
0.0
 31
0.5
 12
10.0
 22
400.00000000000068
 32
0.5000000000001013
 13
10.0
 23
400.00000000000068
 33
0.0000000000001013
  0
3DFACE
  5
2B9
  8
PERFIL
 10
-10.0
 20
400.00000000000068
 30
0.0
 11
-10.0
 21
400.00000000000068
 31
0.5
 12
-10.0
 22
0.0
 32
0.5
 13
-10.0
 23
0.0
 33
0.0
  0
3DFACE
  5
2BA
  8
PERFIL
 10
10.0
 20
400.00000000000068
 30
0.0000000000001013
 11
10.0
 21
400.00000000000068
 31
0.5000000000001013
 12
-10.0
 22
400.00000000000068
 32
0.5000000000001013
 13
-10.0
 23
400.00000000000068
 33
0.0000000000001013
  0
3DFACE
  5
2BB
  8
PERFIL
 10
10.0
 20
400.00000000000068
 30
0.0
 11
-10.0
 21
400.00000000000068
 31
0.0
 12
-10.0
 22
0.0
 32
0.0
 13
10.0
 23
0.0
 33
0.0
  0
3DFACE
  5
2BC
  8
PERFIL
 10
10.0
 20
0.0
 30
0.0
 11
10.0
 21
400.00000000000068
 31
0.0
 12
-10.0
 22
400.00000000000068
 32
0.0
 13
-10.0
 23
0.0
 33
0.0
  0
3DFACE
  5
2BD
  8
PERFIL
 10
10.0
 20
0.0
 30
0.5
 11
-10.0
 21
0.0
 31
0.5
 12
-10.0
 22
400.00000000000068
 32
0.5
 13
10.0
 23
400.00000000000068
 33
0.5
  0
3DFACE
  5
2BE
  8
PERFIL
 10
10.0
 20
0.0
 30
0.5
 11
-10.0
 21
0.0
 31
0.5
 12
-10.0
 22
400.00000000000068
 32
0.5
 13
10.0
 23
400.00000000000068
 33
0.5
  0
3DFACE
  5
2BF
  8
PERFIL
 10
2.5
 20
400.00000000000068
 30
0.5
 11
2.4999999999990901
 21
400.00000000000068
 31
5.5000000000000373
 12
-2.5000000000009091
 22
400.00000000000068
 32
5.5000000000000631
 13
-2.5000000000009091
 23
400.00000000000068
 33
0.5
  0
3DFACE
  5
2C0
  8
PERFIL
 10
-10.0
 20
0.0
 30
0.0
 11
-10.0
 21
0.0
 31
0.5
 12
10.0
 22
0.0
 32
0.5
 13
10.0
 23
0.0
 33
0.0
  0
3DFACE
  5
2C1
  8
PERFIL
 10
-10.0
 20
400.00000000000068
 30
0.0000000000001013
 11
-10.0
 21
400.00000000000068
 31
0.5000000000001013
 12
-10.0
 22
0.0
 32
0.5
 13
-10.0
 23
0.0
 33
0.0
  0
LINE
  5
2C2
  8
PERFIL
 10
10.0
 20
400.00000000000068
 30
5.4988845151999568
 11
8.0000000124432518
 21
400.00000000000068
 31
5.49910761215859
  0
LINE
  5
2C3
  8
PERFIL
 10
8.0000000124432518
 20
400.00000000000068
 30
5.49910761215859
 11
6.0000000248865026
 21
400.00000000000068
 31
5.4993307091172223
  0
LINE
  5
2C4
  8
PERFIL
 10
6.0000000248865026
 20
400.00000000000068
 30
5.4993307091172223
 11
4.0000000373292997
 21
400.00000000000068
 31
5.4995538060758538
  0
LINE
  5
2C5
  8
PERFIL
 10
4.0000000373292997
 20
400.00000000000068
 30
5.4995538060758538
 11
2.0000000383442962
 21
400.00000000000068
 31
5.4996175480648297
  0
LINE
  5
2C6
  8
PERFIL
 10
2.0000000383442962
 20
400.00000000000068
 30
5.4996175480648297
 11
0.0000000393592927
 21
400.00000000000068
 31
5.4996812900538057
  0
LINE
  5
2C7
  8
PERFIL
 10
0.0000000393592927
 20
400.00000000000068
 30
5.4996812900538057
 11
-1.999999959623892
 21
400.00000000000068
 31
5.4997450320427816
  0
LINE
  5
2C8
  8
PERFIL
 10
-1.999999959623892
 20
400.00000000000068
 30
5.4997450320427816
 11
-3.9999999586079862
 21
400.00000000000068
 31
5.4998087740317576
  0
LINE
  5
2C9
  8
PERFIL
 10
-3.9999999586079862
 20
400.00000000000068
 30
5.4998087740317576
 11
-5.9999999575929897
 21
400.00000000000068
 31
5.4998725160207327
  0
LINE
  5
2CA
  8
PERFIL
 10
-5.9999999575929897
 20
400.00000000000068
 30
5.4998725160207327
 11
-7.9999999565766302
 21
400.00000000000068
 31
5.4999362580097086
  0
LINE
  5
2CB
  8
PERFIL
 10
-7.9999999565766302
 20
400.00000000000068
 30
5.4999362580097086
 11
-9.9999999555616341
 21
400.00000000000068
 31
5.4999999999986837
  0
LINE
  5
2CC
  8
PERFIL
 10
8.0000000124432518
 20
400.00000000000068
 30
5.49910761215859
 11
8.0000000124432518
 21
400.00000000000068
 31
6.24443282742648
  0
LINE
  5
2CD
  8
PERFIL
 10
6.0000000248865026
 20
400.00000000000068
 30
5.4993307091172223
 11
6.0000000248865026
 21
400.00000000000068
 31
6.4011053786201151
  0
LINE
  5
2CE
  8
PERFIL
 10
4.0000000373292997
 20
400.00000000000068
 30
5.4995538060758538
 11
4.0000000373292997
 21
400.00000000000068
 31
6.5128465207006769
  0
LINE
  5
2CF
  8
PERFIL
 10
2.0000000383442962
 20
400.00000000000068
 30
5.4996175480648297
 11
2.0000000383442962
 21
400.00000000000068
 31
6.5798243285501474
  0
LINE
  5
2D0
  8
PERFIL
 10
0.0000000393592927
 20
400.00000000000068
 30
5.4996812900538057
 11
0.0000000393592927
 21
400.00000000000068
 31
6.6021391437090831
  0
LINE
  5
2D1
  8
PERFIL
 10
-1.999999959623892
 20
400.00000000000068
 30
5.4997450320427816
 11
-1.999999959623892
 21
400.00000000000068
 31
6.5798243303070336
  0
LINE
  5
2D2
  8
PERFIL
 10
-3.9999999586079862
 20
400.00000000000068
 30
5.4998087740317576
 11
-3.9999999586079862
 21
400.00000000000068
 31
6.5128465242171112
  0
LINE
  5
2D3
  8
PERFIL
 10
-5.9999999575929897
 20
400.00000000000068
 30
5.4998725160207327
 11
-5.9999999575929897
 21
400.00000000000068
 31
6.4011053831347331
  0
LINE
  5
2D4
  8
PERFIL
 10
-7.9999999565766302
 20
400.00000000000068
 30
5.4999362580097086
 11
-7.9999999565766302
 21
400.00000000000068
 31
6.2444328324325671
  0
LINE
  5
2D5
  8
PERFIL
 10
-9.9999999555616341
 20
400.00000000000068
 30
5.4999999999986837
 11
-9.9999999555616341
 21
400.00000000000068
 31
6.0425917935088336
  0
3DFACE
  5
2D6
  8
PERFIL
 10
10.0
 20
400.00000000000068
 30
5.5
 11
10.0
 21
400.00000000000068
 31
6.0425917885201086
 12
8.0000000124432518
 22
400.00000000000068
 32
6.24443282742648
 13
8.0000000124432518
 23
400.00000000000068
 33
5.49910761215859
  0
LINE
  5
2D7
  8
PERFIL
 10
8.0000000124432518
 20
400.00000000000068
 30
5.5000000000000089
 11
8.0000000124432518
 21
400.00000000000068
 31
6.24443282742648
  0
LINE
  5
2D8
  8
PERFIL
 10
8.0000000124432518
 20
400.00000000000068
 30
6.24443282742648
 11
6.0000000248865026
 21
400.00000000000068
 31
6.4011053786201151
  0
LINE
  5
2D9
  8
PERFIL
 10
6.0000000248865026
 20
400.00000000000068
 30
6.4011053786201151
 11
6.0000000248865026
 21
400.00000000000068
 31
5.4993307091172223
  0
LINE
  5
2DA
  8
PERFIL
 10
6.0000000248865026
 20
400.00000000000068
 30
5.5000000000000204
 11
6.000000024887413
 21
400.00000000000068
 31
6.4011053786200298
  0
LINE
  5
2DB
  8
PERFIL
 10
6.000000024887413
 20
400.00000000000068
 30
6.4011053786200298
 11
4.0000000373292997
 21
400.00000000000068
 31
6.5128465207006752
  0
3DFACE
  5
2DC
  8
PERFIL
 10
8.0000000124432518
 20
400.00000000000068
 30
5.5000000000000089
 11
8.000000012442797
 21
400.00000000000068
 31
6.2444328274265493
 12
6.0000000248865026
 22
400.00000000000068
 32
6.4011053786201151
 13
6.0000000248865026
 23
400.00000000000068
 33
5.4993307091172223
  0
3DFACE
  5
2DD
  8
PERFIL
 10
6.0000000248865026
 20
400.00000000000068
 30
5.4993307091172223
 11
6.000000024887413
 21
400.00000000000068
 31
6.4011053786199303
 12
4.0000000373292997
 22
400.00000000000068
 32
6.5128465207006752
 13
4.0000000373292997
 23
400.00000000000068
 33
5.5000000000000302
  0
3DFACE
  5
2DE
  8
PERFIL
 10
4.0000000373292997
 20
400.00000000000068
 30
5.4995538060758538
 11
4.0000000373292997
 21
400.00000000000068
 31
6.5128465207006752
 12
2.0000000383442962
 22
400.00000000000068
 32
6.5798243285501474
 13
2.0000000383442962
 23
400.00000000000068
 33
5.5000000000000391
  0
3DFACE
  5
2DF
  8
PERFIL
 10
2.0000000383442962
 20
400.00000000000068
 30
5.4996175480648297
 11
2.0000000383442962
 21
400.00000000000068
 31
6.5798243285501448
 12
0.0
 22
400.00000000000068
 32
6.6021391437090804
 13
-0.0000000000009095
 23
400.00000000000068
 33
5.5000000000000488
  0
3DFACE
  5
2E0
  8
PERFIL
 10
-0.0000000000027285
 20
400.00000000000068
 30
5.5000000000000488
 11
0.0000000393592927
 21
400.00000000000068
 31
6.6021391432699224
 12
-1.999999959623892
 22
400.00000000000068
 32
6.5798243303070461
 13
-1.999999959623892
 23
400.00000000000068
 33
5.5000000000000604
  0
3DFACE
  5
2E1
  8
PERFIL
 10
-1.999999959623892
 20
400.00000000000068
 30
5.5000000000000604
 11
-1.999999959623892
 21
400.00000000000068
 31
6.5798243303070461
 12
-3.9999999586079862
 22
400.00000000000068
 32
6.5128465242171227
 13
-3.9999999586079862
 23
400.00000000000068
 33
5.5000000000000702
  0
3DFACE
  5
2E2
  8
PERFIL
 10
-3.9999999586079862
 20
400.00000000000068
 30
5.5000000000000702
 11
-3.9999999586079862
 21
400.00000000000068
 31
6.5128465242171227
 12
-5.9999999575929897
 22
400.00000000000068
 32
6.4011053831347331
 13
-5.9999999575929897
 23
400.00000000000068
 33
5.500000000000079
  0
3DFACE
  5
2E3
  8
PERFIL
 10
-5.9999999575929897
 20
400.00000000000068
 30
5.500000000000079
 11
-5.9999999575929897
 21
400.00000000000068
 31
6.4011053831347464
 12
-7.9999999565766302
 22
400.00000000000068
 32
6.2444328324325769
 13
-7.9999999565766302
 23
400.00000000000068
 33
5.5000000000000897
  0
3DFACE
  5
2E4
  8
PERFIL
 10
-7.9999999565766302
 20
400.00000000000068
 30
5.4999362580097086
 11
-7.9999999565766302
 21
400.00000000000068
 31
6.2444328324325769
 12
-10.0
 22
400.00000000000068
 32
6.042591788520097
 13
-10.0
 23
400.00000000000068
 33
5.5
  0
3DFACE
  5
2E5
  8
PERFIL
 10
10.0
 20
0.0
 30
5.5
 11
10.0
 21
0.0
 31
6.0425917885201086
 12
8.0000000124432518
 22
0.0000000000002274
 32
6.24443282742648
 13
8.0000000124432518
 23
0.0000000000002274
 33
5.49910761215859
  0
3DFACE
  5
2E6
  8
PERFIL
 10
8.0000000124432518
 20
0.0000000000002274
 30
5.5000000000000089
 11
8.000000012442797
 21
0.0000000000002274
 31
6.2444328274265493
 12
6.0000000248865026
 22
0.0000000000002274
 32
6.4011053786201151
 13
6.0000000248865026
 23
0.0000000000002274
 33
5.4993307091172223
  0
3DFACE
  5
2E7
  8
PERFIL
 10
6.0000000248865026
 20
0.0000000000002274
 30
5.4993307091172223
 11
6.000000024887413
 21
0.0000000000002274
 31
6.4011053786199303
 12
4.0000000373292997
 22
0.0000000000004547
 32
6.5128465207006752
 13
4.0000000373292997
 23
0.0
 33
5.5000000000000302
  0
3DFACE
  5
2E8
  8
PERFIL
 10
4.0000000373292997
 20
0.0000000000004547
 30
5.4995538060758538
 11
4.0000000373292997
 21
0.0000000000004547
 31
6.5128465207006752
 12
2.0000000383442962
 22
0.0000000000004547
 32
6.5798243285501474
 13
2.0000000383442962
 23
0.0
 33
5.5000000000000391
  0
3DFACE
  5
2E9
  8
PERFIL
 10
2.0000000383442962
 20
0.0000000000004547
 30
5.4996175480648297
 11
2.0000000383442962
 21
0.0000000000004547
 31
6.5798243285501448
 12
0.0
 22
0.0
 32
6.6021391437090804
 13
-0.0000000000009095
 23
0.0
 33
5.5000000000000488
  0
3DFACE
  5
2EA
  8
PERFIL
 10
-0.0000000000027285
 20
0.0
 30
5.5000000000000488
 11
0.0000000393592927
 21
0.0
 31
6.6021391432699224
 12
-1.999999959623892
 22
0.0000000000004547
 32
6.5798243303070461
 13
-1.999999959623892
 23
0.0
 33
5.5000000000000604
  0
3DFACE
  5
2EB
  8
PERFIL
 10
-1.999999959623892
 20
0.0
 30
5.5000000000000604
 11
-1.999999959623892
 21
0.0000000000004547
 31
6.5798243303070461
 12
-3.9999999586079862
 22
0.0000000000004547
 32
6.5128465242171227
 13
-3.9999999586079862
 23
0.0000000000004547
 33
5.5000000000000702
  0
3DFACE
  5
2EC
  8
PERFIL
 10
-3.9999999586079862
 20
0.0000000000004547
 30
5.5000000000000702
 11
-3.9999999586079862
 21
0.0000000000004547
 31
6.5128465242171227
 12
-5.9999999575929897
 22
0.0000000000004547
 32
6.4011053831347331
 13
-5.9999999575929897
 23
0.0
 33
5.500000000000079
  0
3DFACE
  5
2ED
  8
PERFIL
 10
-5.9999999575929897
 20
0.0
 30
5.500000000000079
 11
-5.9999999575929897
 21
0.0000000000004547
 31
6.4011053831347464
 12
-7.9999999565766302
 22
0.0000000000004547
 32
6.2444328324325769
 13
-7.9999999565766302
 23
0.0
 33
5.5000000000000897
  0
3DFACE
  5
2EE
  8
PERFIL
 10
-7.9999999565766302
 20
0.0000000000004547
 30
5.4999362580097086
 11
-7.9999999565766302
 21
0.0000000000004547
 31
6.2444328324325769
 12
-10.0
 22
0.0
 32
6.042591788520097
 13
-10.0
 23
0.0
 33
5.5
  0
3DFACE
  5
2EF
  8
PERFIL
 10
-9.9999999555616341
 20
400.00000000000068
 30
5.4999999999985834
 11
-10.000000000000909
 21
400.00000000000068
 31
6.0425917885199842
 12
-10.0
 22
0.0
 32
6.0425917885200073
 13
-10.000000003148671
 23
0.0
 33
5.5000000000001004
  0
3DFACE
  5
2F0
  8
PERFIL
 10
10.0
 20
0.0
 30
5.4988845151999568
 11
10.0
 21
0.0
 31
6.0425917885201814
 12
10.0
 22
400.00000000000068
 32
6.0425917885200624
 13
10.0
 23
400.00000000000068
 33
5.4988845151999568
  0
LINE
  5
2F1
  8
PERFIL
 10
-7.9999999565766302
 20
0.0000000000004547
 30
6.2444328324325671
 11
-7.9999999565766302
 21
400.00000000000068
 31
6.2444328324325626
  0
LINE
  5
2F2
  8
PERFIL
 10
-5.9999999575934453
 20
0.0000000000004547
 30
6.4011053831346203
 11
-5.9999999575934453
 21
400.00000000000068
 31
6.4011053831346194
  0
LINE
  5
2F3
  8
PERFIL
 10
-3.9999999586116242
 20
0.0000000000004547
 30
6.5128465242169256
 11
-3.9999999586116242
 21
400.00000000000068
 31
6.5128465242169238
  0
LINE
  5
2F4
  8
PERFIL
 10
-1.999999959625711
 20
0.0000000000004547
 30
6.5798243303069173
 11
-1.999999959625711
 21
400.00000000000068
 31
6.5798243303069164
  0
LINE
  5
2F5
  8
PERFIL
 10
2.0000000383424772
 20
0.0000000000004547
 30
6.5798243285500186
 11
2.0000000383424772
 21
400.00000000000068
 31
6.5798243285500169
  0
LINE
  5
2F6
  8
PERFIL
 10
4.0000000373265721
 20
0.0000000000004547
 30
6.5128465207005926
 11
4.0000000373265721
 21
400.00000000000068
 31
6.5128465207005908
  0
LINE
  5
2F7
  8
PERFIL
 10
6.0000000248865026
 20
0.0000000000002274
 30
6.4011053786198717
 11
6.0000000248865026
 21
400.00000000000068
 31
6.4011053786198691
  0
LINE
  5
2F8
  8
PERFIL
 10
7.9999999485353319
 20
0.0000000000002274
 30
6.2444328324325671
 11
7.9999999485353319
 21
400.00000000000068
 31
6.2444328324325626
  0
3DFACE
  5
2F9
  8
PERFIL
 10
-7.9999999565766302
 20
0.0000000000004547
 30
6.244432832432552
 11
-9.9999999999990905
 21
0.0
 31
6.0425917885202836
 12
-10.0
 22
400.00000000000068
 32
6.0425917885200073
 13
-7.9999999565757198
 23
400.00000000000068
 33
6.2444328324326914
  0
3DFACE
  5
2FA
  8
PERFIL
 10
-7.9999999565757198
 20
0.0
 30
6.244432832432766
 11
-7.9999999565757198
 21
400.00000000000068
 31
6.2444328324326914
 12
-5.9999999575907159
 22
400.00000000000068
 32
6.4011053831348752
 13
-5.999999957592081
 23
0.0000000000004547
 33
6.4011053831348059
  0
3DFACE
  5
2FB
  8
PERFIL
 10
-5.9999999575907159
 20
0.0
 30
6.401105383134948
 11
-5.9999999575907159
 21
400.00000000000068
 31
6.4011053831348752
 12
-3.9999999586079862
 22
400.00000000000068
 32
6.5128465242171227
 13
-3.9999999586079862
 23
0.0000000000004547
 33
6.5128465242171112
  0
3DFACE
  5
2FC
  8
PERFIL
 10
-1.999999959623892
 20
0.0000000000004547
 30
6.5798243303070478
 11
-3.9999999586066219
 21
0.0000000000004547
 31
6.5128465242171956
 12
-3.9999999586079862
 22
400.00000000000068
 32
6.5128465242171512
 13
-1.999999959622982
 23
400.00000000000068
 33
6.5798243303070603
  0
3DFACE
  5
2FD
  8
PERFIL
 10
0.0
 20
0.0
 30
6.6021391428307634
 11
-1.9999999596211631
 21
0.0000000000004547
 31
6.5798243303070914
 12
-1.999999959622982
 22
400.00000000000068
 32
6.5798243303070603
 13
-0.0000000000009095
 23
400.00000000000068
 33
6.6021391437090804
  0
3DFACE
  5
2FE
  8
PERFIL
 10
2.0000000383442962
 20
0.0000000000004547
 30
6.5798243285501314
 11
-0.000000000001819
 21
0.0
 31
6.6021391437090831
 12
0.0000000393592927
 22
400.00000000000068
 32
6.6021391441482402
 13
2.0000000383442962
 23
400.00000000000068
 33
6.5798243285501448
  0
3DFACE
  5
2FF
  8
PERFIL
 10
4.00000003733021
 20
0.0000000000004547
 30
6.5128465207006476
 11
2.0000000383424772
 21
0.0
 31
6.5798243285500186
 12
2.0000000383442962
 22
400.00000000000068
 32
6.5798243285501314
 13
4.00000003733021
 23
400.00000000000068
 33
6.5128465207006467
  0
3DFACE
  5
300
  8
PERFIL
 10
4.0000000373265721
 20
0.0
 30
6.5128465207005926
 11
4.0000000373265721
 21
400.00000000000068
 31
6.5128465207005171
 12
6.000000024889232
 22
400.00000000000068
 32
6.4011053786198877
 13
6.0000000248905963
 23
0.0000000000002274
 33
6.40110537861979
  0
3DFACE
  5
301
  8
PERFIL
 10
6.0000000248905963
 20
0.0000000000002274
 30
6.40110537861979
 11
7.9999999485353319
 21
0.0
 31
6.2444328324325671
 12
7.9999999485353319
 22
400.00000000000068
 32
6.2444328338760986
 13
6.0000000248865026
 23
400.00000000000068
 33
6.4011053786201142
  0
3DFACE
  5
302
  8
PERFIL
 10
9.9999999999790816
 20
0.0
 30
6.042591788522075
 11
7.9999999485353319
 21
0.0000000000002274
 31
6.2444328324325671
 12
7.9999998843677531
 22
400.00000000000068
 32
6.2444328389026511
 13
10.0
 23
400.00000000000068
 33
6.042591788519827
  0
3DFACE
  5
303
  8
PERFIL
 10
-10.0
 20
0.0
 30
5.5000000000001563
 11
10.0
 21
0.0
 31
5.4988845151999568
 12
10.0
 22
400.00000000000068
 32
5.5
 13
-10.000000003148671
 23
400.00000000000068
 33
5.5000000000001004
  0
3DFACE
  5
304
  8
PERFIL
 10
-2.5000000000009091
 20
0.0
 30
0.5000000000001013
 11
-2.5000000000009091
 21
0.0
 31
5.5000000000000631
 12
2.4999999999990901
 22
0.0
 32
5.4993028220000317
 13
2.5
 23
0.0
 33
0.5000000000001013
  0
3DFACE
  5
305
  8
PERFIL
 10
-2.5000000000009091
 20
400.00000000000068
 30
0.5
 11
-2.5000000000009091
 21
0.0
 31
0.5
 12
-2.5000000000009091
 22
0.0
 32
5.4995816932000814
 13
-2.5000000000009091
 23
400.00000000000068
 33
5.5000000000000631
  0
3DFACE
  5
306
  8
PERFIL
 10
2.5
 20
0.0
 30
0.5000000000001013
 11
2.5000000000031828
 21
0.0
 31
5.4993028220000308
 12
2.4999999999990901
 22
400.00000000000068
 32
5.4996016125688003
 13
2.5
 23
400.00000000000068
 33
0.5000000000001013
  0
ENDSEC
  0
EOF
