  0
SECTION
  2
HEADER
  9
$ACADVER
  1
AC1009
  9
$DWGCODEPAGE
  3
undefined
  9
$INSBASE
 10
0.0
 20
0.0
 30
0.0
  9
$EXTMIN
 10
-50.0
 20
-41.99331
 30
-11.50000000000001
  9
$EXTMAX
 10
50.0
 20
0.0
 30
8.500000000000007
  9
$LIMMIN
 10
0.0
 20
0.0
  9
$LIMMAX
 10
12.0
 20
9.0
  9
$ORTHOMODE
 70
     1
  9
$REGENMODE
 70
     1
  9
$FILLMODE
 70
     1
  9
$QTEXTMODE
 70
     0
  9
$MIRRTEXT
 70
     1
  9
$DRAGMODE
 70
     2
  9
$LTSCALE
 40
1.0
  9
$OSMODE
 70
    37
  9
$ATTMODE
 70
     1
  9
$TEXTSIZE
 40
0.2
  9
$TRACEWID
 40
0.05
  9
$TEXTSTYLE
  7
STANDARD
  9
$CLAYER
  8
0
  9
$CELTYPE
  6
BYBLOCK
  9
$CECOLOR
 62
   256
  9
$DIMSCALE
 40
1.0
  9
$DIMASZ
 40
0.18
  9
$DIMEXO
 40
0.0625
  9
$DIMDLI
 40
0.38
  9
$DIMRND
 40
0.0
  9
$DIMDLE
 40
0.0
  9
$DIMEXE
 40
0.18
  9
$DIMTP
 40
0.0
  9
$DIMTM
 40
0.0
  9
$DIMTXT
 40
0.18
  9
$DIMCEN
 40
0.09
  9
$DIMTSZ
 40
0.0
  9
$DIMTOL
 70
     0
  9
$DIMLIM
 70
     0
  9
$DIMTIH
 70
     1
  9
$DIMTOH
 70
     1
  9
$DIMSE1
 70
     0
  9
$DIMSE2
 70
     0
  9
$DIMTAD
 70
     0
  9
$DIMZIN
 70
     0
  9
$DIMBLK
  1

  9
$DIMASO
 70
     1
  9
$DIMSHO
 70
     1
  9
$DIMPOST
  1

  9
$DIMAPOST
  1

  9
$DIMALT
 70
     0
  9
$DIMALTD
 70
     2
  9
$DIMALTF
 40
25.4
  9
$DIMLFAC
 40
1.0
  9
$DIMTOFL
 70
     0
  9
$DIMTVP
 40
0.0
  9
$DIMTIX
 70
     0
  9
$DIMSOXD
 70
     0
  9
$DIMSAH
 70
     0
  9
$DIMBLK1
  1

  9
$DIMBLK2
  1

  9
$DIMSTYLE
  2
STANDARD
  9
$DIMCLRD
 70
     0
  9
$DIMCLRE
 70
     0
  9
$DIMCLRT
 70
     0
  9
$DIMTFAC
 40
1.0
  9
$DIMGAP
 40
0.09
  9
$LUNITS
 70
     2
  9
$LUPREC
 70
     4
  9
$SKETCHINC
 40
0.1
  9
$FILLETRAD
 40
0.5
  9
$AUNITS
 70
     0
  9
$AUPREC
 70
     0
  9
$MENU
  1
.
  9
$ELEVATION
 40
0.0
  9
$PELEVATION
 40
0.0
  9
$THICKNESS
 40
0.0
  9
$LIMCHECK
 70
     0
  9
$CHAMFERA
 40
0.5
  9
$CHAMFERB
 40
0.5
  9
$SKPOLY
 70
     0
  9
$TDCREATE
 40
2456000.371891435
  9
$TDUPDATE
 40
2456000.371891447
  9
$TDINDWG
 40
0.0019328472
  9
$TDUSRTIMER
 40
0.0019328472
  9
$USRTIMER
 70
     1
  9
$ANGBASE
 50
0.0
  9
$ANGDIR
 70
     0
  9
$PDMODE
 70
     0
  9
$PDSIZE
 40
0.0
  9
$PLINEWID
 40
0.0
  9
$COORDS
 70
     1
  9
$SPLFRAME
 70
     0
  9
$SPLINETYPE
 70
     6
  9
$SPLINESEGS
 70
     8
  9
$ATTDIA
 70
     0
  9
$ATTREQ
 70
     1
  9
$HANDLING
 70
     1
  9
$HANDSEED
  5
1DD
  9
$SURFTAB1
 70
     6
  9
$SURFTAB2
 70
     6
  9
$SURFTYPE
 70
     6
  9
$SURFU
 70
     6
  9
$SURFV
 70
     6
  9
$UCSNAME
  2

  9
$UCSORG
 10
0.0
 20
0.0
 30
0.0
  9
$UCSXDIR
 10
0.0
 20
-1.0
 30
0.0
  9
$UCSYDIR
 10
0.0
 20
0.0
 30
1.0
  9
$PUCSNAME
  2

  9
$PUCSORG
 10
0.0
 20
0.0
 30
0.0
  9
$PUCSXDIR
 10
1.0
 20
0.0
 30
0.0
  9
$PUCSYDIR
 10
0.0
 20
1.0
 30
0.0
  9
$USERI1
 70
     0
  9
$USERI2
 70
     0
  9
$USERI3
 70
     0
  9
$USERI4
 70
     0
  9
$USERI5
 70
     0
  9
$USERR1
 40
0.0
  9
$USERR2
 40
0.0
  9
$USERR3
 40
0.0
  9
$USERR4
 40
0.0
  9
$USERR5
 40
0.0
  9
$WORLDVIEW
 70
     1
  9
$SHADEDGE
 70
     3
  9
$SHADEDIF
 70
    70
  9
$TILEMODE
 70
     1
  9
$MAXACTVP
 70
    64
  9
$PLIMCHECK
 70
     0
  9
$PEXTMIN
 10
1.000000000000000E+20
 20
1.000000000000000E+20
 30
1.000000000000000E+20
  9
$PEXTMAX
 10
-1.000000000000000E+20
 20
-1.000000000000000E+20
 30
-1.000000000000000E+20
  9
$PLIMMIN
 10
0.0
 20
0.0
  9
$PLIMMAX
 10
12.0
 20
9.0
  9
$UNITMODE
 70
     0
  9
$VISRETAIN
 70
     1
  9
$PLINEGEN
 70
     0
  9
$PSLTSCALE
 70
     1
  0
ENDSEC
  0
SECTION
  2
TABLES
  0
TABLE
  2
VPORT
 70
     1
  0
VPORT
  2
*ACTIVE
 70
     0
 10
0.0
 20
0.0
 11
1.0
 21
1.0
 12
14.84687713273443
 22
-9.796593380601111
 13
0.0
 23
0.0
 14
0.5
 24
0.5
 15
0.5
 25
0.5
 16
-1.0
 26
-1.0
 36
1.0
 17
0.0
 27
0.0
 37
0.0
 40
94.73053354628387
 41
1.972972972850329
 42
50.0
 43
0.0
 44
0.0
 50
0.0
 51
0.0
 71
    16
 72
   100
 73
     0
 74
     1
 75
     0
 76
     0
 77
     0
 78
     0
  0
ENDTAB
  0
TABLE
  2
LTYPE
 70
     1
  0
LTYPE
  2
CONTINUOUS
 70
     0
  3
Solid line
 72
    65
 73
     0
 40
0.0
  0
ENDTAB
  0
TABLE
  2
LAYER
 70
     2
  0
LAYER
  2
0
 70
     0
 62
     7
  6
CONTINUOUS
  0
LAYER
  2
ACESSORIO
 70
     0
 62
   254
  6
CONTINUOUS
  0
ENDTAB
  0
TABLE
  2
STYLE
 70
     1
  0
STYLE
  2
STANDARD
 70
     0
 40
0.0
 41
1.0
 50
0.0
 71
     0
 42
0.2
  3
txt
  4

  0
ENDTAB
  0
TABLE
  2
VIEW
 70
     0
  0
ENDTAB
  0
TABLE
  2
UCS
 70
     0
  0
ENDTAB
  0
TABLE
  2
APPID
 70
     1
  0
APPID
  2
ACAD
 70
     0
  0
ENDTAB
  0
TABLE
  2
DIMSTYLE
 70
     1
  0
DIMSTYLE
  2
STANDARD
 70
     0
  3

  4

  5

  6

  7

 40
1.0
 41
0.18
 42
0.0625
 43
0.38
 44
0.18
 45
0.0
 46
0.0
 47
0.0
 48
0.0
140
0.18
141
0.09
142
0.0
143
25.4
144
1.0
145
0.0
146
1.0
147
0.09
 71
     0
 72
     0
 73
     1
 74
     1
 75
     0
 76
     0
 77
     0
 78
     0
170
     0
171
     2
172
     0
173
     0
174
     0
175
     0
176
     0
177
     0
178
     0
  0
ENDTAB
  0
ENDSEC
  0
SECTION
  2
BLOCKS
  0
BLOCK
  8
0
  2
$MODEL_SPACE
 70
     0
 10
0.0
 20
0.0
 30
0.0
  3
$MODEL_SPACE
  1

  0
ENDBLK
  5
21
  8
0
  0
BLOCK
 67
     1
  8
0
  2
$PAPER_SPACE
 70
     0
 10
0.0
 20
0.0
 30
0.0
  3
$PAPER_SPACE
  1

  0
ENDBLK
  5
76
 67
     1
  8
0
  0
ENDSEC
  0
SECTION
  2
ENTITIES
  0
3DFACE
  5
9A
  8
ACESSORIO
 10
50.0
 20
-41.60384000000001
 30
-9.28796000000001
 11
-50.0
 21
-41.60384000000001
 31
-9.28795999999999
 12
-50.0
 22
-24.0
 32
8.500000000000007
 13
50.0
 23
-24.0
 33
8.499999999999993
  0
3DFACE
  5
23
  8
ACESSORIO
 10
-50.0
 20
-24.0
 30
8.500000000000007
 11
50.0
 21
-24.0
 31
8.499999999999993
 12
50.0
 22
0.0
 32
8.499999999999993
 13
-50.0
 23
0.0
 33
8.500000000000007
  0
3DFACE
  5
24
  8
ACESSORIO
 10
50.0
 20
0.0
 30
8.499999999999993
 11
-50.0
 21
0.0
 31
8.500000000000007
 12
-50.0
 22
0.0
 32
-3.999999999999994
 13
50.0
 23
0.0
 33
-4.000000000000006
  0
3DFACE
  5
25
  8
ACESSORIO
 10
50.0
 20
-1.5
 30
-5.500000000000006
 11
-50.0
 21
-1.5
 31
-5.499999999999994
 12
-50.0
 22
-1.5
 32
7.500000000000006
 13
50.0
 23
-1.5
 33
7.499999999999994
  0
3DFACE
  5
26
  8
ACESSORIO
 10
-50.0
 20
-1.5
 30
7.500000000000006
 11
50.0
 21
-1.5
 31
7.499999999999994
 12
50.0
 22
-23.0
 32
7.499999999999994
 13
-50.0
 23
-23.0
 33
7.500000000000006
  0
3DFACE
  5
9B
  8
ACESSORIO
 10
50.0
 20
-23.0
 30
7.499999999999994
 11
-50.0
 21
-23.0
 31
7.500000000000006
 12
-50.0
 22
-38.99202
 32
-8.526989999999994
 13
50.0
 23
-38.99202
 33
-8.526990000000005
  0
3DFACE
  5
28
  8
ACESSORIO
 10
50.0
 20
-0.200959999999998
 30
-4.750000000000006
 11
50.0
 21
-0.75
 31
-5.299040000000008
 12
50.0
 22
-1.5
 32
-5.500000000000006
 13
50.0
 23
0.0
 33
-4.000000000000006
 70
     4
  0
3DFACE
  5
29
  8
ACESSORIO
 10
50.0
 20
-1.5
 30
-5.500000000000006
 11
50.0
 21
0.0
 31
-4.000000000000006
 12
50.0
 22
0.0
 32
8.499999999999993
 13
50.0
 23
-1.5
 33
7.499999999999994
 70
     5
  0
3DFACE
  5
2A
  8
ACESSORIO
 10
50.0
 20
0.0
 30
8.499999999999993
 11
50.0
 21
-1.5
 31
7.499999999999994
 12
50.0
 22
-23.0
 32
7.499999999999994
 13
50.0
 23
-24.0
 33
8.499999999999993
 70
     5
  0
3DFACE
  5
2B
  8
ACESSORIO
 10
50.0
 20
-23.0
 30
7.499999999999994
 11
50.0
 21
-24.0
 31
8.499999999999993
 12
50.0
 22
-41.60384000000001
 32
-9.28796000000001
 13
50.0
 23
-38.99202
 33
-8.526990000000005
 70
     5
  0
3DFACE
  5
2C
  8
ACESSORIO
 10
50.0
 20
-41.60384000000001
 30
-9.28796000000001
 11
50.0
 21
-38.99202
 31
-8.526990000000005
 12
50.0
 22
-39.28437
 32
-8.939410000000006
 13
50.0
 23
-41.99331
 33
-10.09840000000001
 70
     5
  0
3DFACE
  5
2D
  8
ACESSORIO
 10
50.0
 20
-39.28437
 30
-8.939410000000006
 11
50.0
 21
-41.99331
 31
-10.09840000000001
 12
50.0
 22
-41.77391
 32
-10.97037000000001
 13
50.0
 23
-39.42310000000001
 33
-9.42553000000001
 70
     5
  0
3DFACE
  5
2E
  8
ACESSORIO
 10
50.0
 20
-41.77391
 30
-10.97037000000001
 11
50.0
 21
-39.42310000000001
 31
-9.42553000000001
 12
50.0
 22
-39.39247
 32
-9.93013000000001
 13
50.0
 23
-41.04728
 33
-11.50000000000001
 70
     5
  0
3DFACE
  5
2F
  8
ACESSORIO
 10
50.0
 20
-39.39247
 30
-9.93013000000001
 11
50.0
 21
-41.04728
 31
-11.50000000000001
 12
50.0
 22
-40.15
 32
-11.44195000000001
 13
50.0
 23
-39.49768
 33
-10.82311000000001
 70
     1
  0
3DFACE
  5
30
  8
ACESSORIO
 10
-50.0
 20
-0.200959999999998
 30
-4.749999999999994
 11
-50.0
 21
-0.75
 31
-5.299039999999995
 12
-50.0
 22
-1.5
 32
-5.499999999999994
 13
-50.0
 23
0.0
 33
-3.999999999999994
 70
     4
  0
3DFACE
  5
31
  8
ACESSORIO
 10
-50.0
 20
-1.5
 30
-5.499999999999994
 11
-50.0
 21
0.0
 31
-3.999999999999994
 12
-50.0
 22
0.0
 32
8.500000000000007
 13
-50.0
 23
-1.5
 33
7.500000000000006
 70
     5
  0
3DFACE
  5
32
  8
ACESSORIO
 10
-50.0
 20
-41.60384000000001
 30
-9.28795999999999
 11
-50.0
 21
-38.99202
 31
-8.526989999999994
 12
-50.0
 22
-39.28437
 32
-8.939409999999995
 13
-50.0
 23
-41.99331
 33
-10.09839999999999
 70
     5
  0
3DFACE
  5
33
  8
ACESSORIO
 10
-50.0
 20
-39.28437
 30
-8.939409999999995
 11
-50.0
 21
-41.99331
 31
-10.09839999999999
 12
-50.0
 22
-41.77391
 32
-10.97037
 13
-50.0
 23
-39.42310000000001
 33
-9.42552999999999
 70
     5
  0
3DFACE
  5
34
  8
ACESSORIO
 10
-50.0
 20
-41.77391
 30
-10.97037
 11
-50.0
 21
-39.42310000000001
 31
-9.42552999999999
 12
-50.0
 22
-39.39247
 32
-9.93012999999999
 13
-50.0
 23
-41.04728
 33
-11.49999999999999
 70
     5
  0
3DFACE
  5
35
  8
ACESSORIO
 10
-50.0
 20
-39.39247
 30
-9.93012999999999
 11
-50.0
 21
-41.04728
 31
-11.49999999999999
 12
-50.0
 22
-40.15
 32
-11.44194999999999
 13
-50.0
 23
-39.49768
 33
-10.82310999999999
 70
     1
  0
3DFACE
  5
36
  8
ACESSORIO
 10
-50.0
 20
0.0
 30
8.500000000000007
 11
-50.0
 21
-1.5
 31
7.500000000000006
 12
-50.0
 22
-23.0
 32
7.500000000000006
 13
-50.0
 23
-24.0
 33
8.500000000000007
 70
     5
  0
3DFACE
  5
37
  8
ACESSORIO
 10
-50.0
 20
-23.0
 30
7.500000000000006
 11
-50.0
 21
-24.0
 31
8.500000000000007
 12
-50.0
 22
-41.60384000000001
 32
-9.28795999999999
 13
-50.0
 23
-38.99202
 33
-8.526989999999994
 70
     5
  0
POLYLINE
  5
38
  8
ACESSORIO
 66
     1
 10
0.0
 20
0.0
 30
0.0
 70
    16
 71
     2
 72
     4
  0
VERTEX
  5
39
  8
ACESSORIO
 10
50.0
 20
-38.99202
 30
-8.526990000000005
 70
    64
  0
VERTEX
  5
3A
  8
ACESSORIO
 10
50.0
 20
-39.28437
 30
-8.939410000000006
 70
    64
  0
VERTEX
  5
3B
  8
ACESSORIO
 10
50.0
 20
-39.42310000000001
 30
-9.42553000000001
 70
    64
  0
VERTEX
  5
3C
  8
ACESSORIO
 10
50.0
 20
-39.39247
 30
-9.93013000000001
 70
    64
  0
VERTEX
  5
3D
  8
ACESSORIO
 10
-50.0
 20
-38.99202
 30
-8.526989999999994
 70
    64
  0
VERTEX
  5
3E
  8
ACESSORIO
 10
-50.0
 20
-39.28437
 30
-8.939409999999995
 70
    64
  0
VERTEX
  5
3F
  8
ACESSORIO
 10
-50.0
 20
-39.42310000000001
 30
-9.42552999999999
 70
    64
  0
VERTEX
  5
40
  8
ACESSORIO
 10
-50.0
 20
-39.39247
 30
-9.93012999999999
 70
    64
  0
SEQEND
  5
1D7
  8
ACESSORIO
  0
POLYLINE
  5
42
  8
ACESSORIO
 66
     1
 10
0.0
 20
0.0
 30
0.0
 70
    16
 71
     2
 72
     7
  0
VERTEX
  5
43
  8
ACESSORIO
 10
50.0
 20
-41.60384000000001
 30
-9.28796000000001
 70
    64
  0
VERTEX
  5
44
  8
ACESSORIO
 10
50.0
 20
-41.99331
 30
-10.09840000000001
 70
    64
  0
VERTEX
  5
45
  8
ACESSORIO
 10
50.0
 20
-41.77391
 30
-10.97037000000001
 70
    64
  0
VERTEX
  5
46
  8
ACESSORIO
 10
50.0
 20
-41.04728
 30
-11.50000000000001
 70
    64
  0
VERTEX
  5
47
  8
ACESSORIO
 10
50.0
 20
-40.15
 30
-11.44195000000001
 70
    64
  0
VERTEX
  5
48
  8
ACESSORIO
 10
50.0
 20
-39.49768
 30
-10.82311000000001
 70
    64
  0
VERTEX
  5
49
  8
ACESSORIO
 10
50.0
 20
-39.39247
 30
-9.93013000000001
 70
    64
  0
VERTEX
  5
4A
  8
ACESSORIO
 10
-50.0
 20
-41.60384000000001
 30
-9.28795999999999
 70
    64
  0
VERTEX
  5
4B
  8
ACESSORIO
 10
-50.0
 20
-41.99331
 30
-10.09839999999999
 70
    64
  0
VERTEX
  5
4C
  8
ACESSORIO
 10
-50.0
 20
-41.77391
 30
-10.97037
 70
    64
  0
VERTEX
  5
4D
  8
ACESSORIO
 10
-50.0
 20
-41.04728
 30
-11.49999999999999
 70
    64
  0
VERTEX
  5
4E
  8
ACESSORIO
 10
-50.0
 20
-40.15
 30
-11.44194999999999
 70
    64
  0
VERTEX
  5
4F
  8
ACESSORIO
 10
-50.0
 20
-39.49768
 30
-10.82310999999999
 70
    64
  0
VERTEX
  5
50
  8
ACESSORIO
 10
-50.0
 20
-39.39247
 30
-9.93012999999999
 70
    64
  0
SEQEND
  5
1D8
  8
ACESSORIO
  0
POLYLINE
  5
52
  8
ACESSORIO
 66
     1
 10
0.0
 20
0.0
 30
0.0
 70
    16
 71
     2
 72
     4
  0
VERTEX
  5
53
  8
ACESSORIO
 10
-50.0
 20
-1.5
 30
-5.499999999999994
 70
    64
  0
VERTEX
  5
54
  8
ACESSORIO
 10
-50.0
 20
-0.75
 30
-5.299039999999995
 70
    64
  0
VERTEX
  5
55
  8
ACESSORIO
 10
-50.0
 20
-0.200959999999998
 30
-4.749999999999994
 70
    64
  0
VERTEX
  5
56
  8
ACESSORIO
 10
-50.0
 20
0.0
 30
-3.999999999999994
 70
    64
  0
VERTEX
  5
57
  8
ACESSORIO
 10
50.0
 20
-1.5
 30
-5.500000000000006
 70
    64
  0
VERTEX
  5
58
  8
ACESSORIO
 10
50.0
 20
-0.75
 30
-5.299040000000008
 70
    64
  0
VERTEX
  5
9F
  8
ACESSORIO
 10
50.0
 20
-0.200959999999998
 30
-4.750000000000006
 70
    64
  0
VERTEX
  5
A0
  8
ACESSORIO
 10
50.0
 20
0.0
 30
-4.000000000000006
 70
    64
  0
SEQEND
  5
1D9
  8
ACESSORIO
  0
LINE
  5
16D
  8
0
  6
BYBLOCK
 10
50.0
 20
0.0
 30
0.9999999999999939
 11
-50.0
 21
0.0
 31
1.000000000000006
210
-1.224606353822377E-16
220
0.0
230
-1.0
  0
ENDSEC
  0
EOF
