# Blender v2.91.2 OBJ File: ''
# www.blender.org
mtllib 157.mtl
o 157
v 102.839996 -332.694000 0.000000
v 102.839996 -328.694000 0.000000
v 201.479996 -332.694000 0.000000
v 201.479996 -328.694000 0.000000
v 304.320007 -328.694000 0.000000
v 304.320007 -332.694000 0.000000
v 205.679993 -328.694000 0.000000
v 205.679993 -332.694000 0.000000
v 407.160004 -328.694000 0.000000
v 407.160004 -332.694000 0.000000
v 308.519989 -328.694000 0.000000
v 308.519989 -332.694000 0.000000
v 0.000000 -332.694000 0.000000
v 0.000000 -328.694000 0.000000
v 98.639999 -332.694000 0.000000
v 98.639999 -328.694000 0.000000
v 0.000000 -332.694000 70.000000
v 0.000000 -328.694000 70.000000
v 98.639999 -332.694000 35.000000
v 102.839996 -332.694000 35.000000
v 205.679993 -332.694000 35.000000
v 304.320007 -332.694000 35.000000
v 201.479996 -332.694000 35.000000
v 510.000000 -332.694000 70.000000
v 308.519989 -332.694000 35.000000
v 411.359985 -332.694000 0.000000
v 510.000000 -332.694000 0.000000
v 411.359985 -332.694000 35.000000
v 407.160004 -332.694000 35.000000
v 510.000000 -328.694000 70.000000
v 510.000000 -328.694000 0.000000
v 411.359985 -328.694000 0.000000
v 201.479996 -328.694000 35.000000
v 98.639999 -328.694000 35.000000
v 102.839996 -328.694000 35.000000
v 407.160004 -328.694000 35.000000
v 308.519989 -328.694000 35.000000
v 411.359985 -328.694000 35.000000
v 304.320007 -328.694000 35.000000
v 205.679993 -328.694000 35.000000
v 102.639999 -113.093994 70.000000
v 98.639999 -113.093994 70.000000
v 102.639999 -218.693985 70.000000
v 98.639999 -218.693985 70.000000
v 98.639999 -328.493988 70.000000
v 102.639999 -328.493988 70.000000
v 98.639999 -222.893997 70.000000
v 102.639999 -222.893997 70.000000
v 102.639999 -3.293994 70.000000
v 98.639999 -3.293994 70.000000
v 102.639999 -108.893990 70.000000
v 98.639999 -108.893990 70.000000
v 102.639999 -3.293994 -0.000000
v 98.639999 -3.293994 -0.000000
v 102.639999 -218.693985 35.000000
v 102.639999 -222.893997 35.000000
v 102.639999 -438.294006 -0.000000
v 102.639999 -108.893990 35.000000
v 102.639999 -113.093994 35.000000
v 102.639999 -332.694000 70.000000
v 102.639999 -438.294006 70.000000
v 102.639999 -332.694000 35.000000
v 102.639999 -328.493988 35.000000
v 98.639999 -438.294006 -0.000000
v 98.639999 -438.294006 70.000000
v 98.639999 -332.694000 70.000000
v 98.639999 -328.493988 35.000000
v 98.639999 -222.893997 35.000000
v 98.639999 -218.693985 35.000000
v 98.639999 -113.093994 35.000000
v 98.639999 -108.893990 35.000000
v 205.479996 -113.093994 70.000000
v 201.479996 -113.093994 70.000000
v 205.479996 -218.693985 70.000000
v 201.479996 -218.693985 70.000000
v 201.479996 -328.493988 70.000000
v 205.479996 -328.493988 70.000000
v 201.479996 -222.893997 70.000000
v 205.479996 -222.893997 70.000000
v 205.479996 -3.293994 70.000000
v 201.479996 -3.293994 70.000000
v 205.479996 -108.893990 70.000000
v 201.479996 -108.893990 70.000000
v 205.479996 -3.293994 -0.000000
v 201.479996 -3.293994 -0.000000
v 205.479996 -218.693985 35.000000
v 205.479996 -222.893997 35.000000
v 205.479996 -438.294006 -0.000000
v 205.479996 -108.893990 35.000000
v 205.479996 -113.093994 35.000000
v 205.479996 -332.694000 70.000000
v 205.479996 -438.294006 70.000000
v 205.479996 -332.694000 35.000000
v 205.479996 -328.493988 35.000000
v 201.479996 -438.294006 -0.000000
v 201.479996 -438.294006 70.000000
v 201.479996 -332.694000 70.000000
v 201.479996 -328.493988 35.000000
v 201.479996 -222.893997 35.000000
v 201.479996 -218.693985 35.000000
v 201.479996 -113.093994 35.000000
v 201.479996 -108.893990 35.000000
v 102.839996 -222.893997 0.000000
v 102.839996 -218.893997 0.000000
v 201.479996 -222.893997 0.000000
v 201.479996 -218.893997 0.000000
v 304.320007 -218.893997 0.000000
v 304.320007 -222.893997 0.000000
v 205.679993 -218.893997 0.000000
v 205.679993 -222.893997 0.000000
v 407.160004 -218.893997 0.000000
v 407.160004 -222.893997 0.000000
v 308.519989 -218.893997 0.000000
v 308.519989 -222.893997 0.000000
v 0.000000 -222.893997 0.000000
v 0.000000 -218.893997 0.000000
v 98.639999 -222.893997 0.000000
v 98.639999 -218.893997 0.000000
v 0.000000 -222.893997 70.000000
v 0.000000 -218.893997 70.000000
v 102.839996 -222.893997 35.000000
v 205.679993 -222.893997 35.000000
v 304.320007 -222.893997 35.000000
v 510.000000 -222.893997 70.000000
v 308.519989 -222.893997 35.000000
v 411.359985 -222.893997 0.000000
v 510.000000 -222.893997 0.000000
v 411.359985 -222.893997 35.000000
v 407.160004 -222.893997 35.000000
v 510.000000 -218.893997 70.000000
v 510.000000 -218.893997 0.000000
v 411.359985 -218.893997 0.000000
v 201.479996 -218.893997 35.000000
v 98.639999 -218.893997 35.000000
v 102.839996 -218.893997 35.000000
v 407.160004 -218.893997 35.000000
v 308.519989 -218.893997 35.000000
v 411.359985 -218.893997 35.000000
v 304.320007 -218.893997 35.000000
v 205.679993 -218.893997 35.000000
v 308.319977 -113.093994 70.000000
v 304.320007 -113.093994 70.000000
v 308.319977 -218.693985 70.000000
v 304.320007 -218.693985 70.000000
v 304.320007 -328.493988 70.000000
v 308.319977 -328.493988 70.000000
v 304.320007 -222.893997 70.000000
v 308.319977 -222.893997 70.000000
v 308.319977 -3.293994 70.000000
v 304.320007 -3.293994 70.000000
v 308.319977 -108.893990 70.000000
v 304.320007 -108.893990 70.000000
v 308.319977 -3.293994 -0.000000
v 304.320007 -3.293994 -0.000000
v 308.319977 -218.693985 35.000000
v 308.319977 -222.893997 35.000000
v 308.319977 -438.294006 -0.000000
v 308.319977 -108.893990 35.000000
v 308.319977 -113.093994 35.000000
v 308.319977 -332.694000 70.000000
v 308.319977 -438.294006 70.000000
v 308.319977 -332.694000 35.000000
v 308.319977 -328.493988 35.000000
v 304.320007 -438.294006 -0.000000
v 304.320007 -438.294006 70.000000
v 304.320007 -332.694000 70.000000
v 304.320007 -328.493988 35.000000
v 304.320007 -218.693985 35.000000
v 304.320007 -113.093994 35.000000
v 304.320007 -108.893990 35.000000
v 102.839996 -113.093994 0.000000
v 102.839996 -109.093994 0.000000
v 201.479996 -113.093994 0.000000
v 201.479996 -109.093994 0.000000
v 304.320007 -109.093994 0.000000
v 304.320007 -113.093994 0.000000
v 205.679993 -109.093994 0.000000
v 205.679993 -113.093994 0.000000
v 407.160004 -109.093994 0.000000
v 407.160004 -113.093994 0.000000
v 308.519989 -109.093994 0.000000
v 308.519989 -113.093994 0.000000
v 0.000000 -113.093994 0.000000
v 0.000000 -109.093994 0.000000
v 98.639999 -113.093994 0.000000
v 98.639999 -109.093994 0.000000
v 0.000000 -113.093994 70.000000
v 0.000000 -109.093994 70.000000
v 102.839996 -113.093994 35.000000
v 205.679993 -113.093994 35.000000
v 510.000000 -113.093994 70.000000
v 308.519989 -113.093994 35.000000
v 411.359985 -113.093994 0.000000
v 510.000000 -113.093994 0.000000
v 411.359985 -113.093994 35.000000
v 407.160004 -113.093994 35.000000
v 510.000000 -109.093994 70.000000
v 510.000000 -109.093994 0.000000
v 411.359985 -109.093994 0.000000
v 201.479996 -109.093994 35.000000
v 98.639999 -109.093994 35.000000
v 102.839996 -109.093994 35.000000
v 407.160004 -109.093994 35.000000
v 308.519989 -109.093994 35.000000
v 411.359985 -109.093994 35.000000
v 304.320007 -109.093994 35.000000
v 205.679993 -109.093994 35.000000
v 411.160004 -113.093994 70.000000
v 407.160004 -113.093994 70.000000
v 411.160004 -218.693985 70.000000
v 407.160004 -218.693985 70.000000
v 407.160004 -328.493988 70.000000
v 411.160004 -328.493988 70.000000
v 407.160004 -222.893997 70.000000
v 411.160004 -222.893997 70.000000
v 411.160004 -3.293994 70.000000
v 407.160004 -3.293994 70.000000
v 411.160004 -108.893990 70.000000
v 407.160004 -108.893990 70.000000
v 411.160004 -3.293994 -0.000000
v 407.160004 -3.293994 -0.000000
v 411.160004 -218.693985 35.000000
v 411.160004 -222.893997 35.000000
v 411.160004 -438.294006 -0.000000
v 411.160004 -108.893990 35.000000
v 411.160004 -113.093994 35.000000
v 411.160004 -332.694000 70.000000
v 411.160004 -438.294006 70.000000
v 411.160004 -332.694000 35.000000
v 411.160004 -328.493988 35.000000
v 407.160004 -438.294006 -0.000000
v 407.160004 -438.294006 70.000000
v 407.160004 -332.694000 70.000000
v 407.160004 -328.493988 35.000000
v 407.160004 -218.693985 35.000000
v 407.160004 -108.893990 35.000000
vn 0.0000 0.0000 -1.0000
vn -1.0000 0.0000 0.0000
vn 0.0000 -1.0000 0.0000
vn 0.0000 -1.0000 -0.0001
vn 1.0000 0.0000 0.0000
vn 0.0000 1.0000 0.0000
vn 0.0000 0.0000 1.0000
usemtl None
s off
f 1//1 2//1 3//1
f 3//1 2//1 4//1
f 5//1 6//1 7//1
f 7//1 6//1 8//1
f 9//1 10//1 11//1
f 11//1 10//1 12//1
f 13//1 14//1 15//1
f 15//1 14//1 16//1
f 17//2 18//2 13//2
f 13//2 18//2 14//2
f 13//3 15//3 17//3
f 17//3 15//3 19//3
f 17//3 19//3 20//3
f 8//3 6//3 21//3
f 21//3 6//3 22//3
f 1//3 3//3 20//3
f 20//3 3//3 23//3
f 20//3 23//3 17//3
f 17//3 23//3 21//3
f 17//3 21//3 24//3
f 24//3 21//3 22//3
f 24//4 22//4 25//4
f 26//3 27//3 28//3
f 28//3 27//3 24//3
f 28//3 24//3 29//3
f 29//3 24//3 25//3
f 29//3 25//3 10//3
f 10//3 25//3 12//3
f 30//5 24//5 31//5
f 31//5 24//5 27//5
f 30//6 31//6 32//6
f 33//6 4//6 2//6
f 16//6 14//6 34//6
f 34//6 14//6 18//6
f 34//6 18//6 35//6
f 9//6 11//6 36//6
f 36//6 11//6 37//6
f 32//6 38//6 30//6
f 30//6 38//6 36//6
f 30//6 36//6 18//6
f 18//6 36//6 37//6
f 18//6 37//6 39//6
f 2//6 35//6 33//6
f 33//6 35//6 18//6
f 33//6 18//6 40//6
f 40//6 18//6 39//6
f 40//6 39//6 7//6
f 7//6 39//6 5//6
f 24//7 30//7 17//7
f 17//7 30//7 18//7
f 31//1 27//1 32//1
f 32//1 27//1 26//1
f 16//5 34//5 15//5
f 15//5 34//5 19//5
f 34//1 35//1 19//1
f 19//1 35//1 20//1
f 35//2 2//2 20//2
f 20//2 2//2 1//2
f 9//5 36//5 10//5
f 10//5 36//5 29//5
f 36//1 38//1 29//1
f 29//1 38//1 28//1
f 38//2 32//2 28//2
f 28//2 32//2 26//2
f 5//5 39//5 6//5
f 6//5 39//5 22//5
f 39//1 37//1 22//1
f 22//1 37//1 25//1
f 37//2 11//2 25//2
f 25//2 11//2 12//2
f 4//5 33//5 3//5
f 3//5 33//5 23//5
f 33//1 40//1 23//1
f 23//1 40//1 21//1
f 40//2 7//2 21//2
f 21//2 7//2 8//2
f 41//7 42//7 43//7
f 43//7 42//7 44//7
f 45//7 46//7 47//7
f 47//7 46//7 48//7
f 49//7 50//7 51//7
f 51//7 50//7 52//7
f 53//6 54//6 49//6
f 49//6 54//6 50//6
f 55//5 56//5 57//5
f 49//5 51//5 53//5
f 53//5 51//5 58//5
f 53//5 58//5 59//5
f 41//5 43//5 59//5
f 59//5 43//5 55//5
f 59//5 55//5 53//5
f 53//5 55//5 57//5
f 60//5 61//5 62//5
f 62//5 61//5 57//5
f 62//5 57//5 63//5
f 63//5 57//5 56//5
f 63//5 56//5 46//5
f 46//5 56//5 48//5
f 64//3 57//3 65//3
f 65//3 57//3 61//3
f 64//2 65//2 66//2
f 67//2 45//2 47//2
f 66//2 19//2 64//2
f 64//2 19//2 67//2
f 64//2 67//2 68//2
f 68//2 67//2 47//2
f 44//2 42//2 69//2
f 69//2 42//2 70//2
f 52//2 50//2 71//2
f 71//2 50//2 54//2
f 71//2 54//2 70//2
f 70//2 54//2 64//2
f 70//2 64//2 69//2
f 69//2 64//2 68//2
f 57//1 64//1 53//1
f 53//1 64//1 54//1
f 65//7 61//7 66//7
f 66//7 61//7 60//7
f 52//3 71//3 51//3
f 51//3 71//3 58//3
f 71//7 70//7 58//7
f 58//7 70//7 59//7
f 70//6 42//6 59//6
f 59//6 42//6 41//6
f 45//3 67//3 46//3
f 46//3 67//3 63//3
f 67//7 19//7 63//7
f 63//7 19//7 62//7
f 19//6 66//6 62//6
f 62//6 66//6 60//6
f 44//3 69//3 43//3
f 43//3 69//3 55//3
f 69//7 68//7 55//7
f 55//7 68//7 56//7
f 68//6 47//6 56//6
f 56//6 47//6 48//6
f 72//7 73//7 74//7
f 74//7 73//7 75//7
f 76//7 77//7 78//7
f 78//7 77//7 79//7
f 80//7 81//7 82//7
f 82//7 81//7 83//7
f 84//6 85//6 80//6
f 80//6 85//6 81//6
f 86//5 87//5 88//5
f 80//5 82//5 84//5
f 84//5 82//5 89//5
f 84//5 89//5 90//5
f 72//5 74//5 90//5
f 90//5 74//5 86//5
f 90//5 86//5 84//5
f 84//5 86//5 88//5
f 91//5 92//5 93//5
f 93//5 92//5 88//5
f 93//5 88//5 94//5
f 94//5 88//5 87//5
f 94//5 87//5 77//5
f 77//5 87//5 79//5
f 95//3 88//3 96//3
f 96//3 88//3 92//3
f 95//2 96//2 97//2
f 98//2 76//2 78//2
f 97//2 23//2 95//2
f 95//2 23//2 98//2
f 95//2 98//2 99//2
f 99//2 98//2 78//2
f 75//2 73//2 100//2
f 100//2 73//2 101//2
f 83//2 81//2 102//2
f 102//2 81//2 85//2
f 102//2 85//2 101//2
f 101//2 85//2 95//2
f 101//2 95//2 100//2
f 100//2 95//2 99//2
f 88//1 95//1 84//1
f 84//1 95//1 85//1
f 96//7 92//7 97//7
f 97//7 92//7 91//7
f 83//3 102//3 82//3
f 82//3 102//3 89//3
f 102//7 101//7 89//7
f 89//7 101//7 90//7
f 101//6 73//6 90//6
f 90//6 73//6 72//6
f 76//3 98//3 77//3
f 77//3 98//3 94//3
f 98//7 23//7 94//7
f 94//7 23//7 93//7
f 23//6 97//6 93//6
f 93//6 97//6 91//6
f 75//3 100//3 74//3
f 74//3 100//3 86//3
f 100//7 99//7 86//7
f 86//7 99//7 87//7
f 99//6 78//6 87//6
f 87//6 78//6 79//6
f 103//1 104//1 105//1
f 105//1 104//1 106//1
f 107//1 108//1 109//1
f 109//1 108//1 110//1
f 111//1 112//1 113//1
f 113//1 112//1 114//1
f 115//1 116//1 117//1
f 117//1 116//1 118//1
f 119//2 120//2 115//2
f 115//2 120//2 116//2
f 115//3 117//3 119//3
f 119//3 117//3 68//3
f 119//3 68//3 121//3
f 110//3 108//3 122//3
f 122//3 108//3 123//3
f 103//3 105//3 121//3
f 121//3 105//3 99//3
f 121//3 99//3 119//3
f 119//3 99//3 122//3
f 119//3 122//3 124//3
f 124//3 122//3 123//3
f 124//3 123//3 125//3
f 126//3 127//3 128//3
f 128//3 127//3 124//3
f 128//3 124//3 129//3
f 129//3 124//3 125//3
f 129//3 125//3 112//3
f 112//3 125//3 114//3
f 130//5 124//5 131//5
f 131//5 124//5 127//5
f 130//6 131//6 132//6
f 133//6 106//6 104//6
f 118//6 116//6 134//6
f 134//6 116//6 120//6
f 134//6 120//6 135//6
f 111//6 113//6 136//6
f 136//6 113//6 137//6
f 132//6 138//6 130//6
f 130//6 138//6 136//6
f 130//6 136//6 120//6
f 120//6 136//6 137//6
f 120//6 137//6 139//6
f 104//6 135//6 133//6
f 133//6 135//6 120//6
f 133//6 120//6 140//6
f 140//6 120//6 139//6
f 140//6 139//6 109//6
f 109//6 139//6 107//6
f 124//7 130//7 119//7
f 119//7 130//7 120//7
f 131//1 127//1 132//1
f 132//1 127//1 126//1
f 118//5 134//5 117//5
f 117//5 134//5 68//5
f 134//1 135//1 68//1
f 68//1 135//1 121//1
f 135//2 104//2 121//2
f 121//2 104//2 103//2
f 111//5 136//5 112//5
f 112//5 136//5 129//5
f 136//1 138//1 129//1
f 129//1 138//1 128//1
f 138//2 132//2 128//2
f 128//2 132//2 126//2
f 107//5 139//5 108//5
f 108//5 139//5 123//5
f 139//1 137//1 123//1
f 123//1 137//1 125//1
f 137//2 113//2 125//2
f 125//2 113//2 114//2
f 106//5 133//5 105//5
f 105//5 133//5 99//5
f 133//1 140//1 99//1
f 99//1 140//1 122//1
f 140//2 109//2 122//2
f 122//2 109//2 110//2
f 141//7 142//7 143//7
f 143//7 142//7 144//7
f 145//7 146//7 147//7
f 147//7 146//7 148//7
f 149//7 150//7 151//7
f 151//7 150//7 152//7
f 153//6 154//6 149//6
f 149//6 154//6 150//6
f 155//5 156//5 157//5
f 149//5 151//5 153//5
f 153//5 151//5 158//5
f 153//5 158//5 159//5
f 141//5 143//5 159//5
f 159//5 143//5 155//5
f 159//5 155//5 153//5
f 153//5 155//5 157//5
f 160//5 161//5 162//5
f 162//5 161//5 157//5
f 162//5 157//5 163//5
f 163//5 157//5 156//5
f 163//5 156//5 146//5
f 146//5 156//5 148//5
f 164//3 157//3 165//3
f 165//3 157//3 161//3
f 164//2 165//2 166//2
f 167//2 145//2 147//2
f 166//2 22//2 164//2
f 164//2 22//2 167//2
f 164//2 167//2 123//2
f 123//2 167//2 147//2
f 144//2 142//2 168//2
f 168//2 142//2 169//2
f 152//2 150//2 170//2
f 170//2 150//2 154//2
f 170//2 154//2 169//2
f 169//2 154//2 164//2
f 169//2 164//2 168//2
f 168//2 164//2 123//2
f 157//1 164//1 153//1
f 153//1 164//1 154//1
f 165//7 161//7 166//7
f 166//7 161//7 160//7
f 152//3 170//3 151//3
f 151//3 170//3 158//3
f 170//7 169//7 158//7
f 158//7 169//7 159//7
f 169//6 142//6 159//6
f 159//6 142//6 141//6
f 145//3 167//3 146//3
f 146//3 167//3 163//3
f 167//7 22//7 163//7
f 163//7 22//7 162//7
f 22//6 166//6 162//6
f 162//6 166//6 160//6
f 144//3 168//3 143//3
f 143//3 168//3 155//3
f 168//7 123//7 155//7
f 155//7 123//7 156//7
f 123//6 147//6 156//6
f 156//6 147//6 148//6
f 171//1 172//1 173//1
f 173//1 172//1 174//1
f 175//1 176//1 177//1
f 177//1 176//1 178//1
f 179//1 180//1 181//1
f 181//1 180//1 182//1
f 183//1 184//1 185//1
f 185//1 184//1 186//1
f 187//2 188//2 183//2
f 183//2 188//2 184//2
f 183//3 185//3 187//3
f 187//3 185//3 70//3
f 187//3 70//3 189//3
f 178//3 176//3 190//3
f 190//3 176//3 169//3
f 171//3 173//3 189//3
f 189//3 173//3 101//3
f 189//3 101//3 187//3
f 187//3 101//3 190//3
f 187//3 190//3 191//3
f 191//3 190//3 169//3
f 191//3 169//3 192//3
f 193//3 194//3 195//3
f 195//3 194//3 191//3
f 195//3 191//3 196//3
f 196//3 191//3 192//3
f 196//3 192//3 180//3
f 180//3 192//3 182//3
f 197//5 191//5 198//5
f 198//5 191//5 194//5
f 197//6 198//6 199//6
f 200//6 174//6 172//6
f 186//6 184//6 201//6
f 201//6 184//6 188//6
f 201//6 188//6 202//6
f 179//6 181//6 203//6
f 203//6 181//6 204//6
f 199//6 205//6 197//6
f 197//6 205//6 203//6
f 197//6 203//6 188//6
f 188//6 203//6 204//6
f 188//6 204//6 206//6
f 172//6 202//6 200//6
f 200//6 202//6 188//6
f 200//6 188//6 207//6
f 207//6 188//6 206//6
f 207//6 206//6 177//6
f 177//6 206//6 175//6
f 191//7 197//7 187//7
f 187//7 197//7 188//7
f 198//1 194//1 199//1
f 199//1 194//1 193//1
f 186//5 201//5 185//5
f 185//5 201//5 70//5
f 201//1 202//1 70//1
f 70//1 202//1 189//1
f 202//2 172//2 189//2
f 189//2 172//2 171//2
f 179//5 203//5 180//5
f 180//5 203//5 196//5
f 203//1 205//1 196//1
f 196//1 205//1 195//1
f 205//2 199//2 195//2
f 195//2 199//2 193//2
f 175//5 206//5 176//5
f 176//5 206//5 169//5
f 206//1 204//1 169//1
f 169//1 204//1 192//1
f 204//2 181//2 192//2
f 192//2 181//2 182//2
f 174//5 200//5 173//5
f 173//5 200//5 101//5
f 200//1 207//1 101//1
f 101//1 207//1 190//1
f 207//2 177//2 190//2
f 190//2 177//2 178//2
f 208//7 209//7 210//7
f 210//7 209//7 211//7
f 212//7 213//7 214//7
f 214//7 213//7 215//7
f 216//7 217//7 218//7
f 218//7 217//7 219//7
f 220//6 221//6 216//6
f 216//6 221//6 217//6
f 222//5 223//5 224//5
f 216//5 218//5 220//5
f 220//5 218//5 225//5
f 220//5 225//5 226//5
f 208//5 210//5 226//5
f 226//5 210//5 222//5
f 226//5 222//5 220//5
f 220//5 222//5 224//5
f 227//5 228//5 229//5
f 229//5 228//5 224//5
f 229//5 224//5 230//5
f 230//5 224//5 223//5
f 230//5 223//5 213//5
f 213//5 223//5 215//5
f 231//3 224//3 232//3
f 232//3 224//3 228//3
f 231//2 232//2 233//2
f 234//2 212//2 214//2
f 233//2 29//2 231//2
f 231//2 29//2 234//2
f 231//2 234//2 129//2
f 129//2 234//2 214//2
f 211//2 209//2 235//2
f 235//2 209//2 196//2
f 219//2 217//2 236//2
f 236//2 217//2 221//2
f 236//2 221//2 196//2
f 196//2 221//2 231//2
f 196//2 231//2 235//2
f 235//2 231//2 129//2
f 224//1 231//1 220//1
f 220//1 231//1 221//1
f 232//7 228//7 233//7
f 233//7 228//7 227//7
f 219//3 236//3 218//3
f 218//3 236//3 225//3
f 236//7 196//7 225//7
f 225//7 196//7 226//7
f 196//6 209//6 226//6
f 226//6 209//6 208//6
f 212//3 234//3 213//3
f 213//3 234//3 230//3
f 234//7 29//7 230//7
f 230//7 29//7 229//7
f 29//6 233//6 229//6
f 229//6 233//6 227//6
f 211//3 235//3 210//3
f 210//3 235//3 222//3
f 235//7 129//7 222//7
f 222//7 129//7 223//7
f 129//6 214//6 223//6
f 223//6 214//6 215//6
