# Blender v3.1.2 OBJ File: ''
# www.blender.org
mtllib 242.mtl
o 242_-_COLMEIA_MD-2_ACRILICO_4MM_(500_A_599mm)x(360_A_535mm)
v 501.000000 -215.399994 70.000000
v 505.000000 -109.800003 70.000000
v 501.000000 -109.800003 70.000000
v 505.000000 -215.399994 70.000000
v 501.000000 -325.199982 70.000000
v 505.000000 -219.600006 70.000000
v 501.000000 -219.600006 70.000000
v 505.000000 -325.199982 70.000000
v 501.000000 -105.599998 70.000000
v 505.000000 0.000000 70.000000
v 501.000000 0.000000 70.000000
v 505.000000 -105.599998 70.000000
v 501.000000 0.000000 0.000000
v 505.000000 0.000000 0.000000
v 505.000000 -105.599998 35.000000
v 505.000000 -435.000000 0.000000
v 505.000000 -215.399994 35.000000
v 505.000000 -109.800003 35.000000
v 505.000000 -325.199982 35.000000
v 505.000000 -219.600006 35.000000
v 505.000000 -329.399994 35.000000
v 505.000000 -435.000000 70.000000
v 505.000000 -329.399994 70.000000
v 501.000000 -435.000000 70.000000
v 501.000000 -435.000000 0.000000
v 501.000000 -329.399994 35.000000
v 501.000000 -329.399994 70.000000
v 501.000000 -219.600006 35.000000
v 501.000000 -325.199982 35.000000
v 501.000000 -109.800003 35.000000
v 501.000000 -215.399994 35.000000
v 501.000000 -105.599998 35.000000
v 269.000000 -109.799995 0.000000
v 264.000000 -105.799995 0.000000
v 269.000000 -105.799995 0.000000
v 264.000000 -109.799995 0.000000
v 500.799988 -109.799995 0.000000
v 389.100006 -105.799995 0.000000
v 500.799988 -105.799995 0.000000
v 389.100006 -109.799995 0.000000
v 384.899994 -109.799995 0.000000
v 273.200012 -105.799995 0.000000
v 384.899994 -105.799995 0.000000
v 273.200012 -109.799995 0.000000
v 264.000000 -109.799995 70.000000
v 264.000000 -105.799995 70.000000
v 510.000000 -109.799995 0.000000
v 505.000000 -105.799995 0.000000
v 510.000000 -105.799995 0.000000
v 505.000000 -109.799995 0.000000
v 510.000000 -105.799995 70.000000
v 510.000000 -109.799995 70.000000
v 273.200012 -109.799995 35.000000
v 389.100006 -109.799995 35.000000
v 269.000000 -109.799995 35.000000
v 384.899994 -109.799995 35.000000
v 500.799988 -109.799995 35.000000
v 269.000000 -105.799995 35.000000
v 273.200012 -105.799995 35.000000
v 384.899994 -105.799995 35.000000
v 389.100006 -105.799995 35.000000
v 500.799988 -105.799995 35.000000
v 505.000000 -105.799995 35.000000
v 500.800018 -219.400009 0.000000
v 388.799988 -215.400009 0.000000
v 500.800018 -215.400009 0.000000
v 388.799988 -219.400009 0.000000
v 268.400024 -219.400009 0.000000
v 0.000000 -215.400009 0.000000
v 268.400024 -215.400009 0.000000
v 0.000000 -219.400009 0.000000
v 384.600006 -219.400009 0.000000
v 272.600006 -215.400009 0.000000
v 384.600006 -215.400009 0.000000
v 272.600006 -219.400009 0.000000
v 0.000000 -219.400009 70.000000
v 0.000000 -215.400009 70.000000
v 272.600006 -219.400009 35.000000
v 388.799988 -219.400009 35.000000
v 510.000000 -219.400009 0.000000
v 505.000000 -219.400009 35.000000
v 505.000000 -219.400009 0.000000
v 268.400024 -219.400009 35.000000
v 510.000000 -219.400009 70.000000
v 384.600006 -219.400009 35.000000
v 500.800018 -219.400009 35.000000
v 510.000000 -215.400009 70.000000
v 510.000000 -215.400009 0.000000
v 268.400024 -215.400009 35.000000
v 272.600006 -215.400009 35.000000
v 384.600006 -215.400009 35.000000
v 388.799988 -215.400009 35.000000
v 500.800018 -215.400009 35.000000
v 505.000000 -215.400009 0.000000
v 269.000000 -329.199982 0.000000
v 264.000000 -325.199982 0.000000
v 269.000000 -325.199982 0.000000
v 264.000000 -329.199982 0.000000
v 500.799988 -329.199982 0.000000
v 389.100006 -325.199982 0.000000
v 500.799988 -325.199982 0.000000
v 389.100006 -329.199982 0.000000
v 384.899994 -329.199982 0.000000
v 273.200012 -325.199982 0.000000
v 384.899994 -325.199982 0.000000
v 273.200012 -329.199982 0.000000
v 264.000000 -329.199982 70.000000
v 264.000000 -325.199982 70.000000
v 510.000000 -329.199982 0.000000
v 505.000000 -325.199982 0.000000
v 510.000000 -325.199982 0.000000
v 505.000000 -329.199982 0.000000
v 510.000000 -325.199982 70.000000
v 510.000000 -329.199982 70.000000
v 273.200012 -329.199982 35.000000
v 389.100006 -329.199982 35.000000
v 505.000000 -329.199982 35.000000
v 269.000000 -329.199982 35.000000
v 384.899994 -329.199982 35.000000
v 500.799988 -329.199982 35.000000
v 269.000000 -325.199982 35.000000
v 273.200012 -325.199982 35.000000
v 384.899994 -325.199982 35.000000
v 389.100006 -325.199982 35.000000
v 500.799988 -325.199982 35.000000
v 269.000000 -215.399994 70.000000
v 273.000000 -109.800003 70.000000
v 269.000000 -109.800003 70.000000
v 273.000000 -215.399994 70.000000
v 269.000000 -325.199982 70.000000
v 273.000000 -219.600006 70.000000
v 269.000000 -219.600006 70.000000
v 273.000000 -325.199982 70.000000
v 269.000000 -105.599998 70.000000
v 273.000000 0.000000 70.000000
v 269.000000 0.000000 70.000000
v 273.000000 -105.599998 70.000000
v 269.000000 0.000000 0.000000
v 273.000000 0.000000 0.000000
v 273.000000 -105.599998 35.000000
v 273.000000 -435.000000 0.000000
v 273.000000 -215.399994 35.000000
v 273.000000 -109.800003 35.000000
v 273.000000 -325.199982 35.000000
v 273.000000 -219.600006 35.000000
v 273.000000 -329.399994 35.000000
v 273.000000 -435.000000 70.000000
v 273.000000 -329.399994 70.000000
v 269.000000 -435.000000 70.000000
v 269.000000 -435.000000 0.000000
v 269.000000 -329.399994 35.000000
v 269.000000 -329.399994 70.000000
v 269.000000 -219.600006 35.000000
v 269.000000 -215.399994 35.000000
v 269.000000 -105.599998 35.000000
v 385.000000 -215.399994 70.000000
v 389.000000 -109.800003 70.000000
v 385.000000 -109.800003 70.000000
v 389.000000 -215.399994 70.000000
v 385.000000 -325.199982 70.000000
v 389.000000 -219.600006 70.000000
v 385.000000 -219.600006 70.000000
v 389.000000 -325.199982 70.000000
v 385.000000 -105.599998 70.000000
v 389.000000 0.000000 70.000000
v 385.000000 0.000000 70.000000
v 389.000000 -105.599998 70.000000
v 385.000000 0.000000 0.000000
v 389.000000 0.000000 0.000000
v 389.000000 -105.599998 35.000000
v 389.000000 -435.000000 0.000000
v 389.000000 -215.399994 35.000000
v 389.000000 -109.800003 35.000000
v 389.000000 -325.199982 35.000000
v 389.000000 -219.600006 35.000000
v 389.000000 -329.399994 35.000000
v 389.000000 -435.000000 70.000000
v 389.000000 -329.399994 70.000000
v 385.000000 -435.000000 70.000000
v 385.000000 -435.000000 0.000000
v 385.000000 -329.399994 35.000000
v 385.000000 -329.399994 70.000000
v 385.000000 -219.600006 35.000000
v 385.000000 -325.199982 35.000000
v 385.000000 -109.800003 35.000000
v 385.000000 -215.399994 35.000000
v 385.000000 -105.599998 35.000000
vn 0.0000 0.0000 1.0000
vn 0.0000 1.0000 0.0000
vn 1.0000 0.0000 0.0000
vn -1.0000 0.0000 0.0000
vn 0.0000 -1.0000 0.0000
vn -0.0000 0.0000 -1.0000
usemtl None
s off
f 1//1 2//1 3//1
f 2//1 1//1 4//1
f 5//1 6//1 7//1
f 6//1 5//1 8//1
f 9//1 10//1 11//1
f 10//1 9//1 12//1
f 10//2 13//2 11//2
f 13//2 10//2 14//2
f 14//3 15//3 16//3
f 15//3 14//3 10//3
f 15//3 10//3 12//3
f 2//3 17//3 18//3
f 17//3 2//3 4//3
f 6//3 19//3 20//3
f 19//3 6//3 8//3
f 16//3 21//3 22//3
f 21//3 16//3 15//3
f 21//3 15//3 18//3
f 21//3 18//3 17//3
f 21//4 17//4 20//4
f 21//1 20//1 19//1
f 22//3 21//3 23//3
f 16//5 24//5 25//5
f 24//5 16//5 22//5
f 25//4 26//4 13//4
f 26//4 25//4 24//4
f 26//4 24//4 27//4
f 5//4 28//4 29//4
f 28//4 5//4 7//4
f 1//4 30//4 31//4
f 30//4 1//4 3//4
f 13//4 32//4 11//4
f 32//4 13//4 26//4
f 32//3 26//3 29//3
f 32//4 29//4 28//4
f 32//3 28//3 31//3
f 32//4 31//4 30//4
f 11//4 32//4 9//4
f 16//6 13//6 14//6
f 13//6 16//6 25//6
f 24//1 23//1 27//1
f 23//1 24//1 22//1
f 15//5 9//5 32//5
f 9//5 15//5 12//5
f 30//1 15//1 32//1
f 15//1 30//1 18//1
f 2//2 30//2 3//2
f 30//2 2//2 18//2
f 19//5 5//5 29//5
f 5//5 19//5 8//5
f 26//1 19//1 29//1
f 19//1 26//1 21//1
f 23//2 26//2 27//2
f 26//2 23//2 21//2
f 17//5 1//5 31//5
f 1//5 17//5 4//5
f 28//1 17//1 31//1
f 17//1 28//1 20//1
f 6//2 28//2 7//2
f 28//2 6//2 20//2
f 33//6 34//6 35//6
f 34//6 33//6 36//6
f 37//6 38//6 39//6
f 38//6 37//6 40//6
f 41//6 42//6 43//6
f 42//6 41//6 44//6
f 45//4 34//4 36//4
f 34//4 45//4 46//4
f 47//6 48//6 49//6
f 48//6 47//6 50//6
f 51//3 47//3 49//3
f 47//3 51//3 52//3
f 45//1 51//1 46//1
f 51//1 45//1 52//1
f 41//5 53//5 44//5
f 37//5 54//5 40//5
f 47//5 18//5 50//5
f 33//5 45//5 36//5
f 45//5 33//5 55//5
f 45//5 55//5 52//5
f 52//5 55//5 53//5
f 52//5 53//5 56//5
f 56//5 53//5 41//5
f 52//5 56//5 54//5
f 52//5 54//5 57//5
f 57//5 54//5 37//5
f 52//5 57//5 18//5
f 52//5 18//5 47//5
f 46//2 58//2 34//2
f 58//2 46//2 51//2
f 58//2 51//2 59//2
f 59//2 51//2 60//2
f 59//2 60//2 42//2
f 60//2 51//2 61//2
f 61//2 51//2 38//2
f 38//2 51//2 62//2
f 62//2 51//2 63//2
f 63//2 51//2 48//2
f 48//2 51//2 49//2
f 39//2 38//2 62//2
f 43//2 42//2 60//2
f 35//2 34//2 58//2
f 60//3 41//3 43//3
f 41//3 60//3 56//3
f 54//6 60//6 61//6
f 60//6 54//6 56//6
f 54//4 38//4 40//4
f 38//4 54//4 61//4
f 62//3 37//3 39//3
f 37//3 62//3 57//3
f 18//6 62//6 63//6
f 62//6 18//6 57//6
f 18//4 48//4 50//4
f 48//4 18//4 63//4
f 58//3 33//3 35//3
f 33//3 58//3 55//3
f 53//6 58//6 59//6
f 58//6 53//6 55//6
f 53//4 42//4 44//4
f 42//4 53//4 59//4
f 64//6 65//6 66//6
f 65//6 64//6 67//6
f 68//6 69//6 70//6
f 69//6 68//6 71//6
f 72//6 73//6 74//6
f 73//6 72//6 75//6
f 76//4 69//4 71//4
f 69//4 76//4 77//4
f 72//5 78//5 75//5
f 64//5 79//5 67//5
f 80//5 81//5 82//5
f 68//5 76//5 71//5
f 76//5 68//5 83//5
f 76//5 83//5 84//5
f 84//5 83//5 78//5
f 84//5 78//5 85//5
f 85//5 78//5 72//5
f 84//5 85//5 79//5
f 84//5 79//5 86//5
f 86//5 79//5 64//5
f 84//5 86//5 81//5
f 84//5 81//5 80//5
f 87//3 80//3 88//3
f 80//3 87//3 84//3
f 87//2 69//2 77//2
f 69//2 87//2 89//2
f 89//2 87//2 90//2
f 90//2 87//2 91//2
f 90//2 91//2 73//2
f 91//2 87//2 92//2
f 92//2 87//2 65//2
f 65//2 87//2 93//2
f 93//2 87//2 17//2
f 17//2 87//2 94//2
f 94//2 87//2 88//2
f 66//2 65//2 93//2
f 74//2 73//2 91//2
f 70//2 69//2 89//2
f 76//1 87//1 77//1
f 87//1 76//1 84//1
f 80//6 94//6 88//6
f 94//6 80//6 82//6
f 91//3 72//3 74//3
f 72//3 91//3 85//3
f 79//6 91//6 92//6
f 91//6 79//6 85//6
f 79//4 65//4 67//4
f 65//4 79//4 92//4
f 89//3 68//3 70//3
f 68//3 89//3 83//3
f 78//6 89//6 90//6
f 89//6 78//6 83//6
f 78//4 73//4 75//4
f 73//4 78//4 90//4
f 93//3 64//3 66//3
f 64//3 93//3 86//3
f 81//6 93//6 17//6
f 93//6 81//6 86//6
f 81//4 94//4 82//4
f 94//4 81//4 17//4
f 95//6 96//6 97//6
f 96//6 95//6 98//6
f 99//6 100//6 101//6
f 100//6 99//6 102//6
f 103//6 104//6 105//6
f 104//6 103//6 106//6
f 107//4 96//4 98//4
f 96//4 107//4 108//4
f 109//6 110//6 111//6
f 110//6 109//6 112//6
f 113//3 109//3 111//3
f 109//3 113//3 114//3
f 107//1 113//1 108//1
f 113//1 107//1 114//1
f 103//5 115//5 106//5
f 99//5 116//5 102//5
f 109//5 117//5 112//5
f 95//5 107//5 98//5
f 107//5 95//5 118//5
f 107//5 118//5 114//5
f 114//5 118//5 115//5
f 114//5 115//5 119//5
f 119//5 115//5 103//5
f 114//5 119//5 116//5
f 114//5 116//5 120//5
f 120//5 116//5 99//5
f 114//5 120//5 117//5
f 114//5 117//5 109//5
f 108//2 121//2 96//2
f 121//2 108//2 113//2
f 121//2 113//2 122//2
f 122//2 113//2 123//2
f 122//2 123//2 104//2
f 123//2 113//2 124//2
f 124//2 113//2 100//2
f 100//2 113//2 125//2
f 125//2 113//2 19//2
f 19//2 113//2 110//2
f 110//2 113//2 111//2
f 101//2 100//2 125//2
f 105//2 104//2 123//2
f 97//2 96//2 121//2
f 123//3 103//3 105//3
f 103//3 123//3 119//3
f 116//6 123//6 124//6
f 123//6 116//6 119//6
f 116//4 100//4 102//4
f 100//4 116//4 124//4
f 125//3 99//3 101//3
f 99//3 125//3 120//3
f 117//6 125//6 19//6
f 125//6 117//6 120//6
f 117//4 110//4 112//4
f 110//4 117//4 19//4
f 121//3 95//3 97//3
f 95//3 121//3 118//3
f 115//6 121//6 122//6
f 121//6 115//6 118//6
f 115//4 104//4 106//4
f 104//4 115//4 122//4
f 126//1 127//1 128//1
f 127//1 126//1 129//1
f 130//1 131//1 132//1
f 131//1 130//1 133//1
f 134//1 135//1 136//1
f 135//1 134//1 137//1
f 135//2 138//2 136//2
f 138//2 135//2 139//2
f 139//3 140//3 141//3
f 140//3 139//3 135//3
f 140//3 135//3 137//3
f 127//3 142//3 143//3
f 142//3 127//3 129//3
f 131//3 144//3 145//3
f 144//3 131//3 133//3
f 141//3 146//3 147//3
f 146//3 141//3 140//3
f 146//3 140//3 143//3
f 146//3 143//3 142//3
f 146//4 142//4 145//4
f 146//1 145//1 144//1
f 147//3 146//3 148//3
f 141//5 149//5 150//5
f 149//5 141//5 147//5
f 150//4 151//4 138//4
f 151//4 150//4 149//4
f 151//4 149//4 152//4
f 130//4 153//4 121//4
f 153//4 130//4 132//4
f 126//4 55//4 154//4
f 55//4 126//4 128//4
f 138//4 155//4 136//4
f 155//4 138//4 151//4
f 155//3 151//3 121//3
f 155//4 121//4 153//4
f 155//3 153//3 154//3
f 155//4 154//4 55//4
f 136//4 155//4 134//4
f 141//6 138//6 139//6
f 138//6 141//6 150//6
f 149//1 148//1 152//1
f 148//1 149//1 147//1
f 140//5 134//5 155//5
f 134//5 140//5 137//5
f 55//1 140//1 155//1
f 140//1 55//1 143//1
f 127//2 55//2 128//2
f 55//2 127//2 143//2
f 144//5 130//5 121//5
f 130//5 144//5 133//5
f 151//1 144//1 121//1
f 144//1 151//1 146//1
f 148//2 151//2 152//2
f 151//2 148//2 146//2
f 142//5 126//5 154//5
f 126//5 142//5 129//5
f 153//1 142//1 154//1
f 142//1 153//1 145//1
f 131//2 153//2 132//2
f 153//2 131//2 145//2
f 156//1 157//1 158//1
f 157//1 156//1 159//1
f 160//1 161//1 162//1
f 161//1 160//1 163//1
f 164//1 165//1 166//1
f 165//1 164//1 167//1
f 165//2 168//2 166//2
f 168//2 165//2 169//2
f 169//3 170//3 171//3
f 170//3 169//3 165//3
f 170//3 165//3 167//3
f 157//3 172//3 173//3
f 172//3 157//3 159//3
f 161//3 174//3 175//3
f 174//3 161//3 163//3
f 171//3 176//3 177//3
f 176//3 171//3 170//3
f 176//3 170//3 173//3
f 176//3 173//3 172//3
f 176//4 172//4 175//4
f 176//1 175//1 174//1
f 177//3 176//3 178//3
f 171//5 179//5 180//5
f 179//5 171//5 177//5
f 180//4 181//4 168//4
f 181//4 180//4 179//4
f 181//4 179//4 182//4
f 160//4 183//4 184//4
f 183//4 160//4 162//4
f 156//4 185//4 186//4
f 185//4 156//4 158//4
f 168//4 187//4 166//4
f 187//4 168//4 181//4
f 187//3 181//3 184//3
f 187//4 184//4 183//4
f 187//3 183//3 186//3
f 187//4 186//4 185//4
f 166//4 187//4 164//4
f 171//6 168//6 169//6
f 168//6 171//6 180//6
f 179//1 178//1 182//1
f 178//1 179//1 177//1
f 170//5 164//5 187//5
f 164//5 170//5 167//5
f 185//1 170//1 187//1
f 170//1 185//1 173//1
f 157//2 185//2 158//2
f 185//2 157//2 173//2
f 174//5 160//5 184//5
f 160//5 174//5 163//5
f 181//1 174//1 184//1
f 174//1 181//1 176//1
f 178//2 181//2 182//2
f 181//2 178//2 176//2
f 172//5 156//5 186//5
f 156//5 172//5 159//5
f 183//1 172//1 186//1
f 172//1 183//1 175//1
f 161//2 183//2 162//2
f 183//2 161//2 175//2
