  0
SECTION
  2
HEADER
  9
$ACADVER
  1
AC1009
  9
$DWGCODEPAGE
  3
ansi_1252
  9
$INSBASE
 10
0.0
 20
0.0
 30
0.0
  9
$EXTMIN
 10
-25.0
 20
-25.0
 30
-0.05
  9
$EXTMAX
 10
25.0
 20
25.0
 30
0.05
  9
$LIMMIN
 10
0.0
 20
0.0
  9
$LIMMAX
 10
12.0
 20
9.0
  9
$ORTHOMODE
 70
     1
  9
$REGENMODE
 70
     1
  9
$FILLMODE
 70
     1
  9
$QTEXTMODE
 70
     0
  9
$MIRRTEXT
 70
     0
  9
$DRAGMODE
 70
     2
  9
$LTSCALE
 40
1.0
  9
$OSMODE
 70
    37
  9
$ATTMODE
 70
     1
  9
$TEXTSIZE
 40
0.2
  9
$TRACEWID
 40
0.05
  9
$TEXTSTYLE
  7
STANDARD
  9
$CLAYER
  8
0
  9
$CELTYPE
  6
BYLAYER
  9
$CECOLOR
 62
   256
  9
$DIMSCALE
 40
1.0
  9
$DIMASZ
 40
0.18
  9
$DIMEXO
 40
0.0625
  9
$DIMDLI
 40
0.38
  9
$DIMRND
 40
0.0
  9
$DIMDLE
 40
0.0
  9
$DIMEXE
 40
0.18
  9
$DIMTP
 40
0.0
  9
$DIMTM
 40
0.0
  9
$DIMTXT
 40
0.18
  9
$DIMCEN
 40
0.09
  9
$DIMTSZ
 40
0.0
  9
$DIMTOL
 70
     0
  9
$DIMLIM
 70
     0
  9
$DIMTIH
 70
     1
  9
$DIMTOH
 70
     1
  9
$DIMSE1
 70
     0
  9
$DIMSE2
 70
     0
  9
$DIMTAD
 70
     0
  9
$DIMZIN
 70
     0
  9
$DIMBLK
  1

  9
$DIMASO
 70
     1
  9
$DIMSHO
 70
     1
  9
$DIMPOST
  1

  9
$DIMAPOST
  1

  9
$DIMALT
 70
     0
  9
$DIMALTD
 70
     2
  9
$DIMALTF
 40
25.4
  9
$DIMLFAC
 40
1.0
  9
$DIMTOFL
 70
     0
  9
$DIMTVP
 40
0.0
  9
$DIMTIX
 70
     0
  9
$DIMSOXD
 70
     0
  9
$DIMSAH
 70
     0
  9
$DIMBLK1
  1

  9
$DIMBLK2
  1

  9
$DIMSTYLE
  2
STANDARD
  9
$DIMCLRD
 70
     0
  9
$DIMCLRE
 70
     0
  9
$DIMCLRT
 70
     0
  9
$DIMTFAC
 40
1.0
  9
$DIMGAP
 40
0.09
  9
$LUNITS
 70
     2
  9
$LUPREC
 70
     4
  9
$SKETCHINC
 40
0.1
  9
$FILLETRAD
 40
0.0
  9
$AUNITS
 70
     0
  9
$AUPREC
 70
     0
  9
$MENU
  1
.
  9
$ELEVATION
 40
0.0
  9
$PELEVATION
 40
0.0
  9
$THICKNESS
 40
0.0
  9
$LIMCHECK
 70
     0
  9
$CHAMFERA
 40
0.0
  9
$CHAMFERB
 40
0.0
  9
$SKPOLY
 70
     0
  9
$TDCREATE
 40
2456555.477929063
  9
$TDUPDATE
 40
2456555.477929063
  9
$TDINDWG
 40
0.0034006019
  9
$TDUSRTIMER
 40
0.0033890278
  9
$USRTIMER
 70
     1
  9
$ANGBASE
 50
0.0
  9
$ANGDIR
 70
     0
  9
$PDMODE
 70
     0
  9
$PDSIZE
 40
0.0
  9
$PLINEWID
 40
0.0
  9
$COORDS
 70
     1
  9
$SPLFRAME
 70
     0
  9
$SPLINETYPE
 70
     6
  9
$SPLINESEGS
 70
     8
  9
$ATTDIA
 70
     0
  9
$ATTREQ
 70
     1
  9
$HANDLING
 70
     1
  9
$HANDSEED
  5
235
  9
$SURFTAB1
 70
     8
  9
$SURFTAB2
 70
     2
  9
$SURFTYPE
 70
     6
  9
$SURFU
 70
     6
  9
$SURFV
 70
     6
  9
$UCSNAME
  2

  9
$UCSORG
 10
0.0
 20
0.0
 30
0.0
  9
$UCSXDIR
 10
1.0
 20
0.0
 30
0.0
  9
$UCSYDIR
 10
0.0
 20
1.0
 30
0.0
  9
$PUCSNAME
  2

  9
$PUCSORG
 10
0.0
 20
0.0
 30
0.0
  9
$PUCSXDIR
 10
1.0
 20
0.0
 30
0.0
  9
$PUCSYDIR
 10
0.0
 20
1.0
 30
0.0
  9
$USERI1
 70
     0
  9
$USERI2
 70
     0
  9
$USERI3
 70
     0
  9
$USERI4
 70
     0
  9
$USERI5
 70
     0
  9
$USERR1
 40
0.0
  9
$USERR2
 40
0.0
  9
$USERR3
 40
0.0
  9
$USERR4
 40
0.0
  9
$USERR5
 40
0.0
  9
$WORLDVIEW
 70
     1
  9
$SHADEDGE
 70
     3
  9
$SHADEDIF
 70
    70
  9
$TILEMODE
 70
     1
  9
$MAXACTVP
 70
    64
  9
$PLIMCHECK
 70
     0
  9
$PEXTMIN
 10
0.0
 20
0.0
 30
0.0
  9
$PEXTMAX
 10
0.0
 20
0.0
 30
0.0
  9
$PLIMMIN
 10
0.0
 20
0.0
  9
$PLIMMAX
 10
12.0
 20
9.0
  9
$UNITMODE
 70
     0
  9
$VISRETAIN
 70
     1
  9
$PLINEGEN
 70
     0
  9
$PSLTSCALE
 70
     1
  0
ENDSEC
  0
SECTION
  2
TABLES
  0
TABLE
  2
VPORT
 70
     1
  0
VPORT
  2
*ACTIVE
 70
     0
 10
0.0
 20
0.0
 11
1.0
 21
1.0
 12
-39.79060170517377
 22
28.57678062646729
 13
0.0
 23
0.0
 14
0.5
 24
0.5
 15
0.5
 25
0.5
 16
-1.0
 26
-1.0
 36
1.0
 17
0.0
 27
0.0
 37
0.0
 40
200.9912618581099
 41
1.701534170153417
 42
50.0
 43
0.0
 44
0.0
 50
0.0
 51
0.0
 71
    16
 72
  1000
 73
     0
 74
     3
 75
     0
 76
     0
 77
     0
 78
     0
  0
ENDTAB
  0
TABLE
  2
LTYPE
 70
     1
  0
LTYPE
  2
CONTINUOUS
 70
     0
  3
Solid line
 72
    65
 73
     0
 40
0.0
  0
ENDTAB
  0
TABLE
  2
LAYER
 70
     2
  0
LAYER
  2
0
 70
     0
 62
     7
  6
CONTINUOUS
  0
LAYER
  2
ACESSORIO
 70
     0
 62
     7
  6
CONTINUOUS
  0
ENDTAB
  0
TABLE
  2
STYLE
 70
     1
  0
STYLE
  2
STANDARD
 70
     0
 40
0.0
 41
1.0
 50
0.0
 71
     0
 42
0.2
  3
IC-txt.shx
  4

  0
ENDTAB
  0
TABLE
  2
VIEW
 70
     0
  0
ENDTAB
  0
TABLE
  2
UCS
 70
     0
  0
ENDTAB
  0
TABLE
  2
APPID
 70
     1
  0
APPID
  2
ACAD
 70
     0
  0
ENDTAB
  0
TABLE
  2
DIMSTYLE
 70
     1
  0
DIMSTYLE
  2
STANDARD
 70
     0
  3

  4

  5

  6

  7

 40
1.0
 41
0.18
 42
0.0625
 43
0.38
 44
0.18
 45
0.0
 46
0.0
 47
0.0
 48
0.0
140
0.18
141
0.09
142
0.0
143
25.4
144
1.0
145
0.0
146
1.0
147
0.09
 71
     0
 72
     0
 73
     1
 74
     1
 75
     0
 76
     0
 77
     0
 78
     0
170
     0
171
     2
172
     0
173
     0
174
     0
175
     0
176
     0
177
     0
178
     0
  0
ENDTAB
  0
ENDSEC
  0
SECTION
  2
BLOCKS
  0
BLOCK
  8
0
  2
$MODEL_SPACE
 70
     0
 10
0.0
 20
0.0
 30
0.0
  3
$MODEL_SPACE
  1

  0
ENDBLK
  5
21
  8
0
  0
BLOCK
 67
     1
  8
0
  2
$PAPER_SPACE
 70
     0
 10
0.0
 20
0.0
 30
0.0
  3
$PAPER_SPACE
  1

  0
ENDBLK
  5
76
 67
     1
  8
0
  0
ENDSEC
  0
SECTION
  2
ENTITIES
  0
POLYLINE
  5
1DA
  8
ACESSORIO
 66
     1
 10
0.0
 20
0.0
 30
0.0
 70
    17
 71
     8
 72
     3
  0
VERTEX
  5
1DB
  8
ACESSORIO
 10
-25.0
 20
0.0
 30
-0.05
 70
    64
  0
VERTEX
  5
1DC
  8
ACESSORIO
 10
-12.5
 20
0.0
 30
-0.05
 70
    64
  0
VERTEX
  5
1DD
  8
ACESSORIO
 10
0.0
 20
0.0
 30
-0.05
 70
    64
  0
VERTEX
  5
1DE
  8
ACESSORIO
 10
-17.67766952966369
 20
-17.67766952966369
 30
-0.05
 70
    64
  0
VERTEX
  5
1DF
  8
ACESSORIO
 10
-8.838834764831844
 20
-8.83883476483184
 30
-0.05
 70
    64
  0
VERTEX
  5
1E0
  8
ACESSORIO
 10
0.0
 20
0.0
 30
-0.05
 70
    64
  0
VERTEX
  5
1E1
  8
ACESSORIO
 10
0.0
 20
-25.0
 30
-0.05
 70
    64
  0
VERTEX
  5
1E2
  8
ACESSORIO
 10
0.0
 20
-12.5
 30
-0.05
 70
    64
  0
VERTEX
  5
1E3
  8
ACESSORIO
 10
0.0
 20
0.0
 30
-0.05
 70
    64
  0
VERTEX
  5
1E4
  8
ACESSORIO
 10
17.67766952966369
 20
-17.67766952966369
 30
-0.05
 70
    64
  0
VERTEX
  5
1E5
  8
ACESSORIO
 10
8.838834764831844
 20
-8.838834764831848
 30
-0.05
 70
    64
  0
VERTEX
  5
1E6
  8
ACESSORIO
 10
0.0
 20
0.0
 30
-0.05
 70
    64
  0
VERTEX
  5
1E7
  8
ACESSORIO
 10
25.0
 20
-0.0000000000000036
 30
-0.05
 70
    64
  0
VERTEX
  5
1E8
  8
ACESSORIO
 10
12.5
 20
0.0
 30
-0.05
 70
    64
  0
VERTEX
  5
1E9
  8
ACESSORIO
 10
0.0
 20
0.0
 30
-0.05
 70
    64
  0
VERTEX
  5
1EA
  8
ACESSORIO
 10
17.67766952966369
 20
17.67766952966369
 30
-0.05
 70
    64
  0
VERTEX
  5
1EB
  8
ACESSORIO
 10
8.838834764831844
 20
8.83883476483184
 30
-0.05
 70
    64
  0
VERTEX
  5
1EC
  8
ACESSORIO
 10
0.0
 20
0.0
 30
-0.05
 70
    64
  0
VERTEX
  5
1ED
  8
ACESSORIO
 10
0.0
 20
25.0
 30
-0.05
 70
    64
  0
VERTEX
  5
1EE
  8
ACESSORIO
 10
0.0
 20
12.5
 30
-0.05
 70
    64
  0
VERTEX
  5
1EF
  8
ACESSORIO
 10
0.0
 20
0.0
 30
-0.05
 70
    64
  0
VERTEX
  5
1F0
  8
ACESSORIO
 10
-17.67766952966368
 20
17.67766952966369
 30
-0.05
 70
    64
  0
VERTEX
  5
1F1
  8
ACESSORIO
 10
-8.838834764831844
 20
8.838834764831844
 30
-0.05
 70
    64
  0
VERTEX
  5
1F2
  8
ACESSORIO
 10
0.0
 20
0.0
 30
-0.05
 70
    64
  0
SEQEND
  5
22F
  8
ACESSORIO
  0
POLYLINE
  5
1F4
  8
ACESSORIO
 66
     1
 10
0.0
 20
0.0
 30
0.0
 70
    17
 71
     8
 72
     3
  0
VERTEX
  5
1F5
  8
ACESSORIO
 10
-25.0
 20
0.0
 30
0.05
 70
    64
  0
VERTEX
  5
1F6
  8
ACESSORIO
 10
-12.5
 20
0.0
 30
0.05
 70
    64
  0
VERTEX
  5
1F7
  8
ACESSORIO
 10
0.0
 20
0.0
 30
0.05
 70
    64
  0
VERTEX
  5
1F8
  8
ACESSORIO
 10
-17.67766952966369
 20
-17.67766952966369
 30
0.05
 70
    64
  0
VERTEX
  5
1F9
  8
ACESSORIO
 10
-8.838834764831844
 20
-8.83883476483184
 30
0.05
 70
    64
  0
VERTEX
  5
1FA
  8
ACESSORIO
 10
0.0
 20
0.0
 30
0.05
 70
    64
  0
VERTEX
  5
1FB
  8
ACESSORIO
 10
0.0
 20
-25.0
 30
0.05
 70
    64
  0
VERTEX
  5
1FC
  8
ACESSORIO
 10
0.0
 20
-12.5
 30
0.05
 70
    64
  0
VERTEX
  5
1FD
  8
ACESSORIO
 10
0.0
 20
0.0
 30
0.05
 70
    64
  0
VERTEX
  5
1FE
  8
ACESSORIO
 10
17.67766952966369
 20
-17.67766952966369
 30
0.05
 70
    64
  0
VERTEX
  5
1FF
  8
ACESSORIO
 10
8.838834764831844
 20
-8.838834764831848
 30
0.05
 70
    64
  0
VERTEX
  5
200
  8
ACESSORIO
 10
0.0
 20
0.0
 30
0.05
 70
    64
  0
VERTEX
  5
201
  8
ACESSORIO
 10
25.0
 20
-0.0000000000000036
 30
0.05
 70
    64
  0
VERTEX
  5
202
  8
ACESSORIO
 10
12.5
 20
0.0
 30
0.05
 70
    64
  0
VERTEX
  5
203
  8
ACESSORIO
 10
0.0
 20
0.0
 30
0.05
 70
    64
  0
VERTEX
  5
204
  8
ACESSORIO
 10
17.67766952966369
 20
17.67766952966369
 30
0.05
 70
    64
  0
VERTEX
  5
205
  8
ACESSORIO
 10
8.838834764831844
 20
8.83883476483184
 30
0.05
 70
    64
  0
VERTEX
  5
206
  8
ACESSORIO
 10
0.0
 20
0.0
 30
0.05
 70
    64
  0
VERTEX
  5
207
  8
ACESSORIO
 10
0.0
 20
25.0
 30
0.05
 70
    64
  0
VERTEX
  5
208
  8
ACESSORIO
 10
0.0
 20
12.5
 30
0.05
 70
    64
  0
VERTEX
  5
209
  8
ACESSORIO
 10
0.0
 20
0.0
 30
0.05
 70
    64
  0
VERTEX
  5
20A
  8
ACESSORIO
 10
-17.67766952966368
 20
17.67766952966369
 30
0.05
 70
    64
  0
VERTEX
  5
20B
  8
ACESSORIO
 10
-8.838834764831844
 20
8.838834764831844
 30
0.05
 70
    64
  0
VERTEX
  5
20C
  8
ACESSORIO
 10
0.0
 20
0.0
 30
0.05
 70
    64
  0
SEQEND
  5
230
  8
ACESSORIO
  0
POLYLINE
  5
20E
  8
ACESSORIO
 66
     1
 10
0.0
 20
0.0
 30
0.0
 70
    17
 71
     8
 72
     3
  0
VERTEX
  5
20F
  8
ACESSORIO
 10
-25.0
 20
0.0
 30
-0.05
 70
    64
  0
VERTEX
  5
210
  8
ACESSORIO
 10
-25.0
 20
0.0
 30
0.0
 70
    64
  0
VERTEX
  5
211
  8
ACESSORIO
 10
-25.0
 20
0.0
 30
0.05
 70
    64
  0
VERTEX
  5
212
  8
ACESSORIO
 10
-17.67766952966369
 20
-17.67766952966369
 30
-0.05
 70
    64
  0
VERTEX
  5
213
  8
ACESSORIO
 10
-17.67766952966369
 20
-17.67766952966369
 30
0.0
 70
    64
  0
VERTEX
  5
214
  8
ACESSORIO
 10
-17.67766952966369
 20
-17.67766952966369
 30
0.05
 70
    64
  0
VERTEX
  5
215
  8
ACESSORIO
 10
0.0
 20
-25.0
 30
-0.05
 70
    64
  0
VERTEX
  5
216
  8
ACESSORIO
 10
0.0
 20
-25.0
 30
0.0
 70
    64
  0
VERTEX
  5
217
  8
ACESSORIO
 10
0.0
 20
-25.0
 30
0.05
 70
    64
  0
VERTEX
  5
218
  8
ACESSORIO
 10
17.67766952966369
 20
-17.67766952966369
 30
-0.05
 70
    64
  0
VERTEX
  5
219
  8
ACESSORIO
 10
17.67766952966369
 20
-17.67766952966369
 30
0.0
 70
    64
  0
VERTEX
  5
21A
  8
ACESSORIO
 10
17.67766952966369
 20
-17.67766952966369
 30
0.05
 70
    64
  0
VERTEX
  5
21B
  8
ACESSORIO
 10
25.0
 20
-0.0000000000000036
 30
-0.05
 70
    64
  0
VERTEX
  5
21C
  8
ACESSORIO
 10
25.0
 20
-0.0000000000000036
 30
0.0
 70
    64
  0
VERTEX
  5
21D
  8
ACESSORIO
 10
25.0
 20
-0.0000000000000036
 30
0.05
 70
    64
  0
VERTEX
  5
21E
  8
ACESSORIO
 10
17.67766952966369
 20
17.67766952966369
 30
-0.05
 70
    64
  0
VERTEX
  5
21F
  8
ACESSORIO
 10
17.67766952966369
 20
17.67766952966369
 30
0.0
 70
    64
  0
VERTEX
  5
220
  8
ACESSORIO
 10
17.67766952966369
 20
17.67766952966369
 30
0.05
 70
    64
  0
VERTEX
  5
221
  8
ACESSORIO
 10
0.0
 20
25.0
 30
-0.05
 70
    64
  0
VERTEX
  5
222
  8
ACESSORIO
 10
0.0
 20
25.0
 30
0.0
 70
    64
  0
VERTEX
  5
223
  8
ACESSORIO
 10
0.0
 20
25.0
 30
0.05
 70
    64
  0
VERTEX
  5
224
  8
ACESSORIO
 10
-17.67766952966368
 20
17.67766952966369
 30
-0.05
 70
    64
  0
VERTEX
  5
225
  8
ACESSORIO
 10
-17.67766952966368
 20
17.67766952966369
 30
0.0
 70
    64
  0
VERTEX
  5
226
  8
ACESSORIO
 10
-17.67766952966368
 20
17.67766952966369
 30
0.05
 70
    64
  0
SEQEND
  5
231
  8
ACESSORIO
  0
LINE
  5
228
  8
ACESSORIO
 10
0.0
 20
0.0
 30
-0.05
 11
0.0
 21
0.0
 31
0.05
  0
ENDSEC
  0
EOF
