  0
SECTION
  2
HEADER
  9
$ACADVER
  1
AC1015
  9
$ACADMAINTVER
 70
     6
  9
$DWGCODEPAGE
  3
ANSI_1252
  9
$INSBASE
 10
0.0
 20
0.0
 30
0.0
  9
$EXTMIN
 10
-17.5
 20
-9.5
 30
-31.5
  9
$EXTMAX
 10
17.5
 20
2.5
 30
31.5
  9
$LIMMIN
 10
0.0
 20
0.0
  9
$LIMMAX
 10
12.0
 20
9.0
  9
$ORTHOMODE
 70
     1
  9
$REGENMODE
 70
     1
  9
$FILLMODE
 70
     1
  9
$QTEXTMODE
 70
     0
  9
$MIRRTEXT
 70
     1
  9
$LTSCALE
 40
1.0
  9
$ATTMODE
 70
     1
  9
$TEXTSIZE
 40
0.2
  9
$TRACEWID
 40
0.05
  9
$TEXTSTYLE
  7
Standard
  9
$CLAYER
  8
0
  9
$CELTYPE
  6
ByBlock
  9
$CECOLOR
 62
   256
  9
$CELTSCALE
 40
1.0
  9
$DISPSILH
 70
     0
  9
$DIMSCALE
 40
1.0
  9
$DIMASZ
 40
0.18
  9
$DIMEXO
 40
0.0625
  9
$DIMDLI
 40
0.38
  9
$DIMRND
 40
0.0
  9
$DIMDLE
 40
0.0
  9
$DIMEXE
 40
0.18
  9
$DIMTP
 40
0.0
  9
$DIMTM
 40
0.0
  9
$DIMTXT
 40
0.18
  9
$DIMCEN
 40
0.09
  9
$DIMTSZ
 40
0.0
  9
$DIMTOL
 70
     0
  9
$DIMLIM
 70
     0
  9
$DIMTIH
 70
     1
  9
$DIMTOH
 70
     1
  9
$DIMSE1
 70
     0
  9
$DIMSE2
 70
     0
  9
$DIMTAD
 70
     0
  9
$DIMZIN
 70
     0
  9
$DIMBLK
  1

  9
$DIMASO
 70
     1
  9
$DIMSHO
 70
     1
  9
$DIMPOST
  1

  9
$DIMAPOST
  1

  9
$DIMALT
 70
     0
  9
$DIMALTD
 70
     2
  9
$DIMALTF
 40
25.4
  9
$DIMLFAC
 40
1.0
  9
$DIMTOFL
 70
     0
  9
$DIMTVP
 40
0.0
  9
$DIMTIX
 70
     0
  9
$DIMSOXD
 70
     0
  9
$DIMSAH
 70
     0
  9
$DIMBLK1
  1

  9
$DIMBLK2
  1

  9
$DIMSTYLE
  2
Standard
  9
$DIMCLRD
 70
     0
  9
$DIMCLRE
 70
     0
  9
$DIMCLRT
 70
     0
  9
$DIMTFAC
 40
1.0
  9
$DIMGAP
 40
0.09
  9
$DIMJUST
 70
     0
  9
$DIMSD1
 70
     0
  9
$DIMSD2
 70
     0
  9
$DIMTOLJ
 70
     1
  9
$DIMTZIN
 70
     0
  9
$DIMALTZ
 70
     0
  9
$DIMALTTZ
 70
     0
  9
$DIMUPT
 70
     0
  9
$DIMDEC
 70
     4
  9
$DIMTDEC
 70
     4
  9
$DIMALTU
 70
     2
  9
$DIMALTTD
 70
     2
  9
$DIMTXSTY
  7
Standard
  9
$DIMAUNIT
 70
     0
  9
$DIMADEC
 70
     0
  9
$DIMALTRND
 40
0.0
  9
$DIMAZIN
 70
     0
  9
$DIMDSEP
 70
    46
  9
$DIMATFIT
 70
     3
  9
$DIMFRAC
 70
     0
  9
$DIMLDRBLK
  1

  9
$DIMLUNIT
 70
     2
  9
$DIMLWD
 70
    -2
  9
$DIMLWE
 70
    -2
  9
$DIMTMOVE
 70
     0
  9
$LUNITS
 70
     2
  9
$LUPREC
 70
     4
  9
$SKETCHINC
 40
0.1
  9
$FILLETRAD
 40
0.5
  9
$AUNITS
 70
     0
  9
$AUPREC
 70
     0
  9
$MENU
  1
.
  9
$ELEVATION
 40
0.0
  9
$PELEVATION
 40
0.0
  9
$THICKNESS
 40
0.0
  9
$LIMCHECK
 70
     0
  9
$CHAMFERA
 40
0.5
  9
$CHAMFERB
 40
0.5
  9
$CHAMFERC
 40
1.0
  9
$CHAMFERD
 40
0.0
  9
$SKPOLY
 70
     0
  9
$TDCREATE
 40
2455839.656959421
  9
$TDUCREATE
 40
2455839.781959421
  9
$TDUPDATE
 40
2455839.664718542
  9
$TDUUPDATE
 40
2455839.789718542
  9
$TDINDWG
 40
0.005879456
  9
$TDUSRTIMER
 40
0.0058793171
  9
$USRTIMER
 70
     1
  9
$ANGBASE
 50
0.0
  9
$ANGDIR
 70
     0
  9
$PDMODE
 70
     0
  9
$PDSIZE
 40
0.0
  9
$PLINEWID
 40
0.0
  9
$SPLFRAME
 70
     0
  9
$SPLINETYPE
 70
     6
  9
$SPLINESEGS
 70
     8
  9
$HANDSEED
  5
105
  9
$SURFTAB1
 70
     6
  9
$SURFTAB2
 70
     6
  9
$SURFTYPE
 70
     6
  9
$SURFU
 70
     6
  9
$SURFV
 70
     6
  9
$UCSBASE
  2

  9
$UCSNAME
  2

  9
$UCSORG
 10
0.0
 20
0.0
 30
0.0
  9
$UCSXDIR
 10
1.0
 20
0.0
 30
0.0
  9
$UCSYDIR
 10
0.0
 20
1.0
 30
0.0
  9
$UCSORTHOREF
  2

  9
$UCSORTHOVIEW
 70
     0
  9
$UCSORGTOP
 10
0.0
 20
0.0
 30
0.0
  9
$UCSORGBOTTOM
 10
0.0
 20
0.0
 30
0.0
  9
$UCSORGLEFT
 10
0.0
 20
0.0
 30
0.0
  9
$UCSORGRIGHT
 10
0.0
 20
0.0
 30
0.0
  9
$UCSORGFRONT
 10
0.0
 20
0.0
 30
0.0
  9
$UCSORGBACK
 10
0.0
 20
0.0
 30
0.0
  9
$PUCSBASE
  2

  9
$PUCSNAME
  2

  9
$PUCSORG
 10
0.0
 20
0.0
 30
0.0
  9
$PUCSXDIR
 10
1.0
 20
0.0
 30
0.0
  9
$PUCSYDIR
 10
0.0
 20
1.0
 30
0.0
  9
$PUCSORTHOREF
  2

  9
$PUCSORTHOVIEW
 70
     0
  9
$PUCSORGTOP
 10
0.0
 20
0.0
 30
0.0
  9
$PUCSORGBOTTOM
 10
0.0
 20
0.0
 30
0.0
  9
$PUCSORGLEFT
 10
0.0
 20
0.0
 30
0.0
  9
$PUCSORGRIGHT
 10
0.0
 20
0.0
 30
0.0
  9
$PUCSORGFRONT
 10
0.0
 20
0.0
 30
0.0
  9
$PUCSORGBACK
 10
0.0
 20
0.0
 30
0.0
  9
$USERI1
 70
     0
  9
$USERI2
 70
     0
  9
$USERI3
 70
     0
  9
$USERI4
 70
     0
  9
$USERI5
 70
     0
  9
$USERR1
 40
0.0
  9
$USERR2
 40
0.0
  9
$USERR3
 40
0.0
  9
$USERR4
 40
0.0
  9
$USERR5
 40
0.0
  9
$WORLDVIEW
 70
     1
  9
$SHADEDGE
 70
     3
  9
$SHADEDIF
 70
    70
  9
$TILEMODE
 70
     1
  9
$MAXACTVP
 70
    64
  9
$PINSBASE
 10
0.0
 20
0.0
 30
0.0
  9
$PLIMCHECK
 70
     0
  9
$PEXTMIN
 10
1.000000000000000E+20
 20
1.000000000000000E+20
 30
1.000000000000000E+20
  9
$PEXTMAX
 10
-1.000000000000000E+20
 20
-1.000000000000000E+20
 30
-1.000000000000000E+20
  9
$PLIMMIN
 10
0.0
 20
0.0
  9
$PLIMMAX
 10
12.0
 20
9.0
  9
$UNITMODE
 70
     0
  9
$VISRETAIN
 70
     1
  9
$PLINEGEN
 70
     0
  9
$PSLTSCALE
 70
     1
  9
$TREEDEPTH
 70
  3020
  9
$CMLSTYLE
  2
Standard
  9
$CMLJUST
 70
     0
  9
$CMLSCALE
 40
1.0
  9
$PROXYGRAPHICS
 70
     1
  9
$MEASUREMENT
 70
     0
  9
$CELWEIGHT
370
    -1
  9
$ENDCAPS
280
     0
  9
$JOINSTYLE
280
     0
  9
$LWDISPLAY
290
     0
  9
$INSUNITS
 70
     0
  9
$HYPERLINKBASE
  1

  9
$STYLESHEET
  1

  9
$XEDIT
290
     1
  9
$CEPSNTYPE
380
     0
  9
$PSTYLEMODE
290
     1
  9
$FINGERPRINTGUID
  2
{0EE7685E-4EBB-4138-980C-2A2C017B1ADA}
  9
$VERSIONGUID
  2
{B4E294E3-7DAC-4813-B1C4-8A19BFAA1A00}
  9
$EXTNAMES
290
     1
  9
$PSVPSCALE
 40
0.0
  9
$OLESTARTUP
290
     0
  0
ENDSEC
  0
SECTION
  2
CLASSES
  0
CLASS
  1
ACDBDICTIONARYWDFLT
  2
AcDbDictionaryWithDefault
  3
ObjectDBX Classes
 90
        0
280
     0
281
     0
  0
CLASS
  1
ACDBPLACEHOLDER
  2
AcDbPlaceHolder
  3
ObjectDBX Classes
 90
        0
280
     0
281
     0
  0
CLASS
  1
LAYOUT
  2
AcDbLayout
  3
ObjectDBX Classes
 90
        0
280
     0
281
     0
  0
CLASS
  1
DICTIONARYVAR
  2
AcDbDictionaryVar
  3
ObjectDBX Classes
 90
        0
280
     0
281
     0
  0
CLASS
  1
TABLESTYLE
  2
AcDbTableStyle
  3
ObjectDBX Classes
 90
     4095
280
     0
281
     0
  0
CLASS
  1
MATERIAL
  2
AcDbMaterial
  3
ObjectDBX Classes
 90
     1024
280
     0
281
     0
  0
CLASS
  1
VISUALSTYLE
  2
AcDbVisualStyle
  3
ObjectDBX Classes
 90
     4095
280
     0
281
     0
  0
ENDSEC
  0
SECTION
  2
TABLES
  0
TABLE
  2
VPORT
  5
8
330
0
100
AcDbSymbolTable
 70
     2
  0
VPORT
  5
97
330
8
100
AcDbSymbolTableRecord
100
AcDbViewportTableRecord
  2
*Active
 70
     0
 10
0.0
 20
0.0
 11
1.0
 21
1.0
 12
1.468333907113444
 22
-0.8537034011723891
 13
0.0
 23
0.0
 14
0.5
 24
0.5
 15
0.5
 25
0.5
 16
-1.0
 26
-1.0
 36
1.0
 17
0.0
 27
0.0
 37
0.0
 40
72.03949333525328
 41
1.970014992503747
 42
50.0
 43
0.0
 44
0.0
 50
0.0
 51
0.0
 71
    16
 72
   100
 73
     0
 74
     1
 75
     0
 76
     0
 77
     0
 78
     0
281
     0
 65
     1
110
0.0
120
0.0
130
0.0
111
1.0
121
0.0
131
0.0
112
0.0
122
1.0
132
0.0
 79
     0
146
0.0
  0
ENDTAB
  0
TABLE
  2
LTYPE
  5
5
330
0
100
AcDbSymbolTable
 70
     1
  0
LTYPE
  5
14
330
5
100
AcDbSymbolTableRecord
100
AcDbLinetypeTableRecord
  2
ByBlock
 70
     0
  3

 72
    65
 73
     0
 40
0.0
  0
LTYPE
  5
15
330
5
100
AcDbSymbolTableRecord
100
AcDbLinetypeTableRecord
  2
ByLayer
 70
     0
  3

 72
    65
 73
     0
 40
0.0
  0
LTYPE
  5
16
330
5
100
AcDbSymbolTableRecord
100
AcDbLinetypeTableRecord
  2
Continuous
 70
     0
  3
Solid line
 72
    65
 73
     0
 40
0.0
  0
ENDTAB
  0
TABLE
  2
LAYER
  5
2
330
0
100
AcDbSymbolTable
 70
     5
  0
LAYER
  5
10
330
2
100
AcDbSymbolTableRecord
100
AcDbLayerTableRecord
  2
0
 70
     0
 62
     7
  6
Continuous
370
    -3
390
F
  0
LAYER
  5
B2
330
2
100
AcDbSymbolTableRecord
100
AcDbLayerTableRecord
  2
CORPO_DET
 70
     0
 62
   250
  6
Continuous
370
    -3
390
F
  0
LAYER
  5
B3
330
2
100
AcDbSymbolTableRecord
100
AcDbLayerTableRecord
  2
CORPO
 70
     0
 62
   253
  6
Continuous
370
    -3
390
F
  0
LAYER
  5
B4
330
2
100
AcDbSymbolTableRecord
100
AcDbLayerTableRecord
  2
CONTATO
 70
     0
 62
     7
  6
Continuous
370
    -3
390
F
  0
LAYER
  5
9F
330
2
100
AcDbSymbolTableRecord
100
AcDbLayerTableRecord
  2
CONTORNO
 70
     0
 62
     1
  6
Continuous
370
    -3
390
F
  0
ENDTAB
  0
TABLE
  2
STYLE
  5
3
330
0
100
AcDbSymbolTable
 70
     1
  0
STYLE
  5
11
330
3
100
AcDbSymbolTableRecord
100
AcDbTextStyleTableRecord
  2
Standard
 70
     0
 40
0.0
 41
1.0
 50
0.0
 71
     0
 42
0.2
  3
txt
  4

  0
ENDTAB
  0
TABLE
  2
VIEW
  5
6
330
0
100
AcDbSymbolTable
 70
     0
  0
ENDTAB
  0
TABLE
  2
UCS
  5
7
330
0
100
AcDbSymbolTable
 70
     0
  0
ENDTAB
  0
TABLE
  2
APPID
  5
9
330
0
100
AcDbSymbolTable
 70
     1
  0
APPID
  5
12
330
9
100
AcDbSymbolTableRecord
100
AcDbRegAppTableRecord
  2
ACAD
 70
     0
  0
ENDTAB
  0
TABLE
  2
DIMSTYLE
  5
A
330
0
100
AcDbSymbolTable
 70
     1
100
AcDbDimStyleTable
  0
DIMSTYLE
105
27
330
A
100
AcDbSymbolTableRecord
100
AcDbDimStyleTableRecord
  2
Standard
 70
     0
340
11
  0
ENDTAB
  0
TABLE
  2
BLOCK_RECORD
  5
1
330
0
100
AcDbSymbolTable
 70
     0
  0
BLOCK_RECORD
  5
1F
330
1
100
AcDbSymbolTableRecord
100
AcDbBlockTableRecord
  2
*Model_Space
340
22
  0
BLOCK_RECORD
  5
73
330
1
100
AcDbSymbolTableRecord
100
AcDbBlockTableRecord
  2
*Paper_Space
340
74
  0
ENDTAB
  0
ENDSEC
  0
SECTION
  2
BLOCKS
  0
BLOCK
  5
20
330
1F
100
AcDbEntity
  8
0
100
AcDbBlockBegin
  2
*Model_Space
 70
     0
 71
     0
 10
0.0
 20
0.0
 30
0.0
  3
*Model_Space
  1

  0
ENDBLK
  5
21
330
1F
100
AcDbEntity
  8
0
100
AcDbBlockEnd
  0
BLOCK
  5
75
330
73
100
AcDbEntity
 67
     1
  8
0
100
AcDbBlockBegin
  2
*Paper_Space
 70
     0
 71
     0
 10
0.0
 20
0.0
 30
0.0
  3
*Paper_Space
  1

  0
ENDBLK
  5
76
330
73
100
AcDbEntity
 67
     1
  8
0
100
AcDbBlockEnd
  0
ENDSEC
  0
SECTION
  2
ENTITIES
  0
3DFACE
  5
24
330
1F
100
AcDbEntity
  8
CORPO_DET
100
AcDbFace
 10
13.5
 20
0.4999999999999787
 30
5.5
 11
13.5
 21
0.4999999999999787
 31
-5.5
 12
4.5
 22
0.4999999999999929
 32
-5.5
 13
4.500017999999999
 23
0.4999999999999929
 33
5.499972
 70
     4
  0
3DFACE
  5
25
330
1F
100
AcDbEntity
  8
CORPO_DET
100
AcDbFace
 10
4.500017999999999
 20
0.4999999999999929
 30
5.499972
 11
4.5
 21
0.4999999999999929
 31
-5.5
 12
0.0000000000000693
 22
0.4999999999999929
 32
-9.0
 13
0.0000000000000693
 23
0.4999999999999929
 33
8.999999
 70
     5
  0
3DFACE
  5
26
330
1F
100
AcDbEntity
  8
CORPO_DET
100
AcDbFace
 10
0.0000000000000693
 20
0.4999999999999929
 30
8.999999
 11
0.0000000000000693
 21
0.4999999999999929
 31
-9.0
 12
-12.5
 22
0.4999999999999929
 32
-9.0
 13
-12.5
 23
0.4999999999999929
 33
9.0
 70
     1
  0
3DFACE
  5
B5
330
1F
100
AcDbEntity
  8
CORPO
100
AcDbFace
 10
-12.5
 20
-0.0000000000000071
 30
-9.0
 11
-12.5
 21
-0.0000000000000071
 31
-9.0
 12
-12.5
 22
-0.0000000000000071
 32
9.0
 13
-12.5
 23
-0.0000000000000071
 33
-9.0
  0
3DFACE
  5
28
330
1F
100
AcDbEntity
  8
CORPO
100
AcDbFace
 10
0.0000000000000693
 20
-0.0000000000000071
 30
-9.0
 11
0.0000000000000693
 21
-0.0000000000000071
 31
-9.0
 12
0.0000000000000693
 22
-0.0000000000000071
 32
-31.5
 13
0.0000000000000693
 23
-0.0000000000000071
 33
-9.0
  0
3DFACE
  5
29
330
1F
100
AcDbEntity
  8
CORPO
100
AcDbFace
 10
-17.5
 20
2.0
 30
-31.5
 11
-17.5
 21
-0.0000000000000071
 31
-31.5
 12
-17.5
 22
2.0
 32
-31.5
 13
-17.5
 23
2.0
 33
-31.5
  0
3DFACE
  5
2A
330
1F
100
AcDbEntity
  8
CORPO
100
AcDbFace
 10
-17.5
 20
2.0
 30
-31.5
 11
0.0000000000000693
 21
2.0
 31
-31.5
 12
0.0000000000000693
 22
2.0
 32
-31.5
 13
-17.5
 23
2.0
 33
-31.5
  0
3DFACE
  5
2B
330
1F
100
AcDbEntity
  8
CORPO
100
AcDbFace
 10
0.0000000000000693
 20
-0.0000000000000071
 30
9.0
 11
0.0000000000000693
 21
-0.0000000000000071
 31
9.0
 12
0.0000000000000693
 22
0.0000000000000069
 32
31.5
 13
0.0000000000000693
 23
-0.0000000000000071
 33
9.0
  0
3DFACE
  5
2C
330
1F
100
AcDbEntity
  8
CORPO
100
AcDbFace
 10
-17.5
 20
2.0
 30
31.5
 11
-17.5
 21
0.0000000000000069
 31
31.5
 12
-17.5
 22
2.0
 32
31.5
 13
-17.5
 23
2.0
 33
31.5
  0
3DFACE
  5
2D
330
1F
100
AcDbEntity
  8
CORPO
100
AcDbFace
 10
-17.5
 20
2.0
 30
31.5
 11
0.0000000000000693
 21
2.0
 31
31.5
 12
0.0000000000000693
 22
2.0
 32
31.5
 13
-17.5
 23
2.0
 33
31.5
  0
3DFACE
  5
2E
330
1F
100
AcDbEntity
  8
CORPO
100
AcDbFace
 10
-12.5
 20
2.0
 30
-9.0
 11
-12.5
 21
-0.0000000000000071
 31
-9.0
 12
-12.5
 22
-0.0000000000000071
 32
9.0
 13
-12.5
 23
2.0
 33
9.0
  0
3DFACE
  5
2F
330
1F
100
AcDbEntity
  8
CORPO
100
AcDbFace
 10
-17.5
 20
2.0
 30
31.5
 11
-17.5
 21
2.0
 31
-31.5
 12
-12.5
 22
2.0
 32
-9.0
 13
-12.5
 23
2.0
 33
9.0
 70
    10
  0
3DFACE
  5
30
330
1F
100
AcDbEntity
  8
CORPO
100
AcDbFace
 10
-12.5
 20
2.0
 30
-9.0
 11
-12.5
 21
-0.0000000000000071
 31
-9.0
 12
0.0000000000000693
 22
-0.0000000000000071
 32
-9.0
 13
0.0000000000000693
 23
2.0
 33
-9.0
  0
3DFACE
  5
31
330
1F
100
AcDbEntity
  8
CORPO
100
AcDbFace
 10
0.0000000000000693
 20
2.0
 30
-9.0
 11
0.0000000000000693
 21
-0.0000000000000071
 31
-9.0
 12
0.0000000000000693
 22
-0.0000000000000071
 32
-31.5
 13
0.0000000000000693
 23
2.0
 33
-31.5
  0
3DFACE
  5
32
330
1F
100
AcDbEntity
  8
CORPO
100
AcDbFace
 10
0.0000000000000693
 20
2.0
 30
-31.5
 11
0.0000000000000693
 21
-0.0000000000000071
 31
-31.5
 12
-17.5
 22
-0.0000000000000071
 32
-31.5
 13
-17.5
 23
2.0
 33
-31.5
  0
3DFACE
  5
33
330
1F
100
AcDbEntity
  8
CORPO
100
AcDbFace
 10
-17.5
 20
-0.0000000000000071
 30
-31.5
 11
-17.5
 21
0.0000000000000069
 31
31.5
 12
-17.5
 22
2.0
 32
31.5
 13
-17.5
 23
2.0
 33
-31.5
  0
3DFACE
  5
34
330
1F
100
AcDbEntity
  8
CORPO
100
AcDbFace
 10
-17.5
 20
2.0
 30
-31.5
 11
-12.5
 21
2.0
 31
-9.0
 12
0.0000000000000693
 22
2.0
 32
-9.0
 13
0.0000000000000693
 23
2.0
 33
-31.5
 70
     1
  0
3DFACE
  5
35
330
1F
100
AcDbEntity
  8
CORPO
100
AcDbFace
 10
-12.5
 20
2.0
 30
9.0
 11
-12.5
 21
-0.0000000000000071
 31
9.0
 12
0.0000000000000693
 22
-0.0000000000000071
 32
9.0
 13
0.0000000000000693
 23
2.0
 33
9.0
  0
3DFACE
  5
36
330
1F
100
AcDbEntity
  8
CORPO
100
AcDbFace
 10
0.0000000000000693
 20
2.0
 30
9.0
 11
0.0000000000000693
 21
-0.0000000000000071
 31
9.0
 12
0.0000000000000693
 22
0.0000000000000069
 32
31.5
 13
0.0000000000000693
 23
2.0
 33
31.5
  0
3DFACE
  5
37
330
1F
100
AcDbEntity
  8
CORPO
100
AcDbFace
 10
0.0000000000000693
 20
2.0
 30
31.5
 11
0.0000000000000693
 21
0.0000000000000069
 31
31.5
 12
-17.5
 22
0.0000000000000069
 32
31.5
 13
-17.5
 23
2.0
 33
31.5
  0
3DFACE
  5
38
330
1F
100
AcDbEntity
  8
CORPO
100
AcDbFace
 10
-17.5
 20
2.0
 30
31.5
 11
-12.5
 21
2.0
 31
9.0
 12
0.0000000000000693
 22
2.0
 32
9.0
 13
0.0000000000000693
 23
2.0
 33
31.5
 70
     1
  0
3DFACE
  5
39
330
1F
100
AcDbEntity
  8
CORPO
100
AcDbFace
 10
0.0000000000001403
 20
1.0
 30
-17.5
 11
12.37437
 21
1.0
 31
-12.37437
 12
4.5
 22
1.0
 32
-5.5
 13
-0.0000000000000799
 23
1.0
 33
-9.0
 70
     2
  0
3DFACE
  5
3A
330
1F
100
AcDbEntity
  8
CORPO
100
AcDbFace
 10
12.37437
 20
1.0
 30
-12.37437
 11
14.937185
 21
1.0
 31
-6.187184999999999
 12
13.5
 22
1.0
 32
-5.5
 13
4.5
 23
1.0
 33
-5.5
 70
    10
  0
3DFACE
  5
3B
330
1F
100
AcDbEntity
  8
CORPO
100
AcDbFace
 10
12.37437
 20
1.0
 30
12.37437
 11
0.0000000000000693
 21
1.0
 31
17.5
 12
-0.0000000000000799
 22
1.0
 32
9.0
 13
4.5
 23
1.0
 33
5.5
 70
     8
  0
3DFACE
  5
3D
330
1F
100
AcDbEntity
  8
CORPO
100
AcDbFace
 10
-0.0000000000000799
 20
1.0
 30
9.0
 11
0.0000000000000693
 21
-0.0000000000000071
 31
8.999999
 12
4.500017999999999
 22
-0.0000000000000071
 32
5.499972
 13
4.5
 23
1.0
 33
5.5
  0
3DFACE
  5
3E
330
1F
100
AcDbEntity
  8
CORPO
100
AcDbFace
 10
13.5
 20
-0.0000000000000213
 30
5.5
 11
13.5
 21
-0.0000000000000213
 31
-5.5
 12
13.5
 22
1.0
 32
-5.5
 13
13.5
 23
1.0
 33
5.5
  0
3DFACE
  5
3F
330
1F
100
AcDbEntity
  8
CORPO
100
AcDbFace
 10
4.5
 20
1.0
 30
-5.5
 11
4.5
 21
-0.0000000000000071
 31
-5.5
 12
13.5
 22
-0.0000000000000213
 32
-5.5
 13
13.5
 23
1.0
 33
-5.5
  0
3DFACE
  5
40
330
1F
100
AcDbEntity
  8
CORPO
100
AcDbFace
 10
-0.0000000000000799
 20
1.0
 30
-9.0
 11
0.0000000000000693
 21
-0.0000000000000071
 31
-9.0
 12
4.5
 22
-0.0000000000000071
 32
-5.5
 13
4.5
 23
1.0
 33
-5.5
  0
3DFACE
  5
41
330
1F
100
AcDbEntity
  8
CORPO
100
AcDbFace
 10
12.37437
 20
1.0
 30
12.37437
 11
14.937185
 21
1.0
 31
6.187185000000002
 12
13.5
 22
1.0
 32
5.5
 13
4.5
 23
1.0
 33
5.5
 70
    10
  0
3DFACE
  5
42
330
1F
100
AcDbEntity
  8
CORPO
100
AcDbFace
 10
4.5
 20
1.0
 30
5.5
 11
4.5
 21
-0.0000000000000071
 31
5.5
 12
13.5
 22
-0.0000000000000213
 32
5.5
 13
13.5
 23
1.0
 33
5.5
  0
3DFACE
  5
43
330
1F
100
AcDbEntity
  8
CORPO
100
AcDbFace
 10
17.5
 20
-9.5
 30
0.0000000000000036
 11
-12.37437
 21
-9.5
 31
12.37437
 12
0.0000000000001297
 22
-9.5
 32
17.5
 13
12.37437
 23
-9.5
 33
12.37437
 70
     1
  0
3DFACE
  5
44
330
1F
100
AcDbEntity
  8
CORPO
100
AcDbFace
 10
17.5
 20
-9.5
 30
0.0000000000000036
 11
12.37437
 21
-9.5
 31
-12.37437
 12
-17.5
 22
-9.5
 32
0.0
 13
-12.37437
 23
-9.5
 33
12.37437
 70
    10
  0
3DFACE
  5
45
330
1F
100
AcDbEntity
  8
CORPO
100
AcDbFace
 10
12.37437
 20
-9.5
 30
-12.37437
 11
-17.5
 21
-9.5
 31
0.0
 12
-12.37437
 22
-9.5
 32
-12.37437
 13
0.0000000000001403
 23
-9.5
 33
-17.5
 70
     1
  0
POLYLINE
  5
46
330
1F
100
AcDbEntity
  8
CORPO
100
AcDbPolygonMesh
 66
     1
 10
0.0
 20
0.0
 30
0.0
 70
    48
 71
     2
 72
     8
  0
VERTEX
  5
47
330
46
100
AcDbEntity
  8
CORPO
100
AcDbVertex
100
AcDbPolygonMeshVertex
 10
-17.5
 20
1.0
 30
0.0
 70
    64
  0
VERTEX
  5
48
330
46
100
AcDbEntity
  8
CORPO
100
AcDbVertex
100
AcDbPolygonMeshVertex
 10
-12.37437
 20
1.0
 30
12.37437
 70
    64
  0
VERTEX
  5
49
330
46
100
AcDbEntity
  8
CORPO
100
AcDbVertex
100
AcDbPolygonMeshVertex
 10
0.0000000000001297
 20
1.0
 30
17.5
 70
    64
  0
VERTEX
  5
4A
330
46
100
AcDbEntity
  8
CORPO
100
AcDbVertex
100
AcDbPolygonMeshVertex
 10
12.37437
 20
1.0
 30
12.37437
 70
    64
  0
VERTEX
  5
4B
330
46
100
AcDbEntity
  8
CORPO
100
AcDbVertex
100
AcDbPolygonMeshVertex
 10
17.5
 20
1.0
 30
0.0000000000000036
 70
    64
  0
VERTEX
  5
4C
330
46
100
AcDbEntity
  8
CORPO
100
AcDbVertex
100
AcDbPolygonMeshVertex
 10
12.37437
 20
1.0
 30
-12.37437
 70
    64
  0
VERTEX
  5
4D
330
46
100
AcDbEntity
  8
CORPO
100
AcDbVertex
100
AcDbPolygonMeshVertex
 10
0.0000000000001403
 20
1.0
 30
-17.5
 70
    64
  0
VERTEX
  5
4E
330
46
100
AcDbEntity
  8
CORPO
100
AcDbVertex
100
AcDbPolygonMeshVertex
 10
-12.37437
 20
1.0
 30
-12.37437
 70
    64
  0
VERTEX
  5
4F
330
46
100
AcDbEntity
  8
CORPO
100
AcDbVertex
100
AcDbPolygonMeshVertex
 10
-17.5
 20
-9.5
 30
0.0
 70
    64
  0
VERTEX
  5
50
330
46
100
AcDbEntity
  8
CORPO
100
AcDbVertex
100
AcDbPolygonMeshVertex
 10
-12.37437
 20
-9.5
 30
12.37437
 70
    64
  0
VERTEX
  5
51
330
46
100
AcDbEntity
  8
CORPO
100
AcDbVertex
100
AcDbPolygonMeshVertex
 10
0.0000000000001297
 20
-9.5
 30
17.5
 70
    64
  0
VERTEX
  5
52
330
46
100
AcDbEntity
  8
CORPO
100
AcDbVertex
100
AcDbPolygonMeshVertex
 10
12.37437
 20
-9.5
 30
12.37437
 70
    64
  0
VERTEX
  5
53
330
46
100
AcDbEntity
  8
CORPO
100
AcDbVertex
100
AcDbPolygonMeshVertex
 10
17.5
 20
-9.5
 30
0.0000000000000036
 70
    64
  0
VERTEX
  5
54
330
46
100
AcDbEntity
  8
CORPO
100
AcDbVertex
100
AcDbPolygonMeshVertex
 10
12.37437
 20
-9.5
 30
-12.37437
 70
    64
  0
VERTEX
  5
55
330
46
100
AcDbEntity
  8
CORPO
100
AcDbVertex
100
AcDbPolygonMeshVertex
 10
0.0000000000001403
 20
-9.5
 30
-17.5
 70
    64
  0
VERTEX
  5
56
330
46
100
AcDbEntity
  8
CORPO
100
AcDbVertex
100
AcDbPolygonMeshVertex
 10
-12.37437
 20
-9.5
 30
-12.37437
 70
    64
  0
SEQEND
  5
F8
330
46
100
AcDbEntity
  8
CORPO
  0
POLYLINE
  5
58
330
1F
100
AcDbEntity
  8
CORPO
100
AcDbPolygonMesh
 66
     1
 10
0.0
 20
0.0
 30
0.0
 70
    16
 71
     6
 72
     3
  0
VERTEX
  5
B8
330
58
100
AcDbEntity
  8
CORPO
100
AcDbVertex
100
AcDbPolygonMeshVertex
 10
-9.74264
 20
2.0
 30
26.0
 70
    64
  0
VERTEX
  5
B9
330
58
100
AcDbEntity
  8
CORPO
100
AcDbVertex
100
AcDbPolygonMeshVertex
 10
-9.74264
 20
2.5
 30
26.0
 70
    64
  0
VERTEX
  5
5B
330
58
100
AcDbEntity
  8
CORPO
100
AcDbVertex
100
AcDbPolygonMeshVertex
 10
-9.74264
 20
2.5
 30
26.0
 70
    64
  0
VERTEX
  5
5C
330
58
100
AcDbEntity
  8
CORPO
100
AcDbVertex
100
AcDbPolygonMeshVertex
 10
-5.5
 20
2.0
 30
21.75736
 70
    64
  0
VERTEX
  5
5D
330
58
100
AcDbEntity
  8
CORPO
100
AcDbVertex
100
AcDbPolygonMeshVertex
 10
-5.5
 20
2.5
 30
21.75736
 70
    64
  0
VERTEX
  5
BA
330
58
100
AcDbEntity
  8
CORPO
100
AcDbVertex
100
AcDbPolygonMeshVertex
 10
-5.5
 20
2.5
 30
21.75736
 70
    64
  0
VERTEX
  5
5F
330
58
100
AcDbEntity
  8
CORPO
100
AcDbVertex
100
AcDbPolygonMeshVertex
 10
-1.257359
 20
2.0
 30
26.0
 70
    64
  0
VERTEX
  5
60
330
58
100
AcDbEntity
  8
CORPO
100
AcDbVertex
100
AcDbPolygonMeshVertex
 10
-1.257359
 20
2.5
 30
26.0
 70
    64
  0
VERTEX
  5
61
330
58
100
AcDbEntity
  8
CORPO
100
AcDbVertex
100
AcDbPolygonMeshVertex
 10
-5.5
 20
2.5
 30
21.75736
 70
    64
  0
VERTEX
  5
62
330
58
100
AcDbEntity
  8
CORPO
100
AcDbVertex
100
AcDbPolygonMeshVertex
 10
-5.5
 20
2.0
 30
30.24264
 70
    64
  0
VERTEX
  5
63
330
58
100
AcDbEntity
  8
CORPO
100
AcDbVertex
100
AcDbPolygonMeshVertex
 10
-5.5
 20
2.5
 30
30.24264
 70
    64
  0
VERTEX
  5
64
330
58
100
AcDbEntity
  8
CORPO
100
AcDbVertex
100
AcDbPolygonMeshVertex
 10
-9.74264
 20
2.5
 30
26.0
 70
    64
  0
VERTEX
  5
65
330
58
100
AcDbEntity
  8
CORPO
100
AcDbVertex
100
AcDbPolygonMeshVertex
 10
-5.5
 20
2.0
 30
30.24264
 70
    64
  0
VERTEX
  5
66
330
58
100
AcDbEntity
  8
CORPO
100
AcDbVertex
100
AcDbPolygonMeshVertex
 10
-5.5
 20
2.0
 30
30.24264
 70
    64
  0
VERTEX
  5
67
330
58
100
AcDbEntity
  8
CORPO
100
AcDbVertex
100
AcDbPolygonMeshVertex
 10
-9.74264
 20
2.0
 30
26.0
 70
    64
  0
VERTEX
  5
68
330
58
100
AcDbEntity
  8
CORPO
100
AcDbVertex
100
AcDbPolygonMeshVertex
 10
-1.257359
 20
2.0
 30
26.0
 70
    64
  0
VERTEX
  5
69
330
58
100
AcDbEntity
  8
CORPO
100
AcDbVertex
100
AcDbPolygonMeshVertex
 10
-1.257359
 20
2.0
 30
26.0
 70
    64
  0
VERTEX
  5
6A
330
58
100
AcDbEntity
  8
CORPO
100
AcDbVertex
100
AcDbPolygonMeshVertex
 10
-5.5
 20
2.0
 30
21.75736
 70
    64
  0
SEQEND
  5
F9
330
58
100
AcDbEntity
  8
CORPO
  0
POLYLINE
  5
BB
330
1F
100
AcDbEntity
  8
CORPO
100
AcDbPolygonMesh
 66
     1
 10
0.0
 20
0.0
 30
0.0
 70
    16
 71
     6
 72
     3
  0
VERTEX
  5
6D
330
BB
100
AcDbEntity
  8
CORPO
100
AcDbVertex
100
AcDbPolygonMeshVertex
 10
-9.74264
 20
2.0
 30
-26.0
 70
    64
  0
VERTEX
  5
6E
330
BB
100
AcDbEntity
  8
CORPO
100
AcDbVertex
100
AcDbPolygonMeshVertex
 10
-9.74264
 20
2.5
 30
-26.0
 70
    64
  0
VERTEX
  5
6F
330
BB
100
AcDbEntity
  8
CORPO
100
AcDbVertex
100
AcDbPolygonMeshVertex
 10
-9.74264
 20
2.5
 30
-26.0
 70
    64
  0
VERTEX
  5
70
330
BB
100
AcDbEntity
  8
CORPO
100
AcDbVertex
100
AcDbPolygonMeshVertex
 10
-5.5
 20
2.0
 30
-30.24264
 70
    64
  0
VERTEX
  5
71
330
BB
100
AcDbEntity
  8
CORPO
100
AcDbVertex
100
AcDbPolygonMeshVertex
 10
-5.5
 20
2.5
 30
-30.24264
 70
    64
  0
VERTEX
  5
72
330
BB
100
AcDbEntity
  8
CORPO
100
AcDbVertex
100
AcDbPolygonMeshVertex
 10
-5.5
 20
2.5
 30
-30.24264
 70
    64
  0
VERTEX
  5
BD
330
BB
100
AcDbEntity
  8
CORPO
100
AcDbVertex
100
AcDbPolygonMeshVertex
 10
-1.257359
 20
2.0
 30
-26.0
 70
    64
  0
VERTEX
  5
BE
330
BB
100
AcDbEntity
  8
CORPO
100
AcDbVertex
100
AcDbPolygonMeshVertex
 10
-1.257359
 20
2.5
 30
-26.0
 70
    64
  0
VERTEX
  5
BF
330
BB
100
AcDbEntity
  8
CORPO
100
AcDbVertex
100
AcDbPolygonMeshVertex
 10
-5.5
 20
2.5
 30
-30.24264
 70
    64
  0
VERTEX
  5
C0
330
BB
100
AcDbEntity
  8
CORPO
100
AcDbVertex
100
AcDbPolygonMeshVertex
 10
-5.5
 20
2.0
 30
-21.75736
 70
    64
  0
VERTEX
  5
77
330
BB
100
AcDbEntity
  8
CORPO
100
AcDbVertex
100
AcDbPolygonMeshVertex
 10
-5.5
 20
2.5
 30
-21.75736
 70
    64
  0
VERTEX
  5
78
330
BB
100
AcDbEntity
  8
CORPO
100
AcDbVertex
100
AcDbPolygonMeshVertex
 10
-9.74264
 20
2.5
 30
-26.0
 70
    64
  0
VERTEX
  5
79
330
BB
100
AcDbEntity
  8
CORPO
100
AcDbVertex
100
AcDbPolygonMeshVertex
 10
-5.5
 20
2.0
 30
-21.75736
 70
    64
  0
VERTEX
  5
7A
330
BB
100
AcDbEntity
  8
CORPO
100
AcDbVertex
100
AcDbPolygonMeshVertex
 10
-5.5
 20
2.0
 30
-21.75736
 70
    64
  0
VERTEX
  5
7B
330
BB
100
AcDbEntity
  8
CORPO
100
AcDbVertex
100
AcDbPolygonMeshVertex
 10
-9.74264
 20
2.0
 30
-26.0
 70
    64
  0
VERTEX
  5
7C
330
BB
100
AcDbEntity
  8
CORPO
100
AcDbVertex
100
AcDbPolygonMeshVertex
 10
-1.257359
 20
2.0
 30
-26.0
 70
    64
  0
VERTEX
  5
7D
330
BB
100
AcDbEntity
  8
CORPO
100
AcDbVertex
100
AcDbPolygonMeshVertex
 10
-1.257359
 20
2.0
 30
-26.0
 70
    64
  0
VERTEX
  5
7E
330
BB
100
AcDbEntity
  8
CORPO
100
AcDbVertex
100
AcDbPolygonMeshVertex
 10
-5.5
 20
2.0
 30
-30.24264
 70
    64
  0
SEQEND
  5
FA
330
BB
100
AcDbEntity
  8
CORPO
  0
LWPOLYLINE
  5
B0
330
1F
100
AcDbEntity
  8
CONTORNO
  6
ByBlock
100
AcDbPolyline
 90
        5
 70
     0
 43
0.0
 38
-31.5
 10
-17.5
 20
0.05
 10
-17.5
 20
-0.05
 10
17.5
 20
-0.05
 10
17.5
 20
0.05
 10
-17.5
 20
0.05
  0
3DFACE
  5
F4
330
1F
100
AcDbEntity
  8
CORPO
  6
ByBlock
100
AcDbFace
 10
14.937185
 20
1.0
 30
-6.187184999999999
 11
13.5
 21
1.0
 31
-5.5
 12
13.5
 22
1.0
 32
0.0
 13
17.5
 23
1.0
 33
0.0000000000000036
 70
     5
  0
3DFACE
  5
F5
330
1F
100
AcDbEntity
  8
CORPO
  6
ByBlock
100
AcDbFace
 10
17.5
 20
1.0
 30
0.0000000000000036
 11
13.5
 21
1.0
 31
0.0
 12
13.5
 22
1.0
 32
5.5
 13
14.937185
 23
1.0
 33
6.187185000000002
 70
     5
  0
ENDSEC
  0
SECTION
  2
OBJECTS
  0
DICTIONARY
  5
C
330
0
100
AcDbDictionary
281
     1
  3
ACAD_COLOR
350
6C
  3
ACAD_GROUP
350
D
  3
ACAD_LAYOUT
350
1A
  3
ACAD_MATERIAL
350
6B
  3
ACAD_MLINESTYLE
350
17
  3
ACAD_PLOTSETTINGS
350
19
  3
ACAD_PLOTSTYLENAME
350
E
  3
ACAD_TABLESTYLE
350
92
  3
ACAD_VISUALSTYLE
350
D2
  3
ACDBHEADERROUNDTRIPXREC
350
FB
  3
AcDbVariableDictionary
350
59
  3
DWGPROPS
350
FE
  0
DICTIONARY
  5
6C
102
{ACAD_REACTORS
330
C
102
}
330
C
100
AcDbDictionary
281
     1
  0
DICTIONARY
  5
D
102
{ACAD_REACTORS
330
C
102
}
330
C
100
AcDbDictionary
281
     1
  0
DICTIONARY
  5
1A
102
{ACAD_REACTORS
330
C
102
}
330
C
100
AcDbDictionary
281
     1
  3
Layout1
350
74
  3
Model
350
22
  0
DICTIONARY
  5
6B
102
{ACAD_REACTORS
330
C
102
}
330
C
100
AcDbDictionary
281
     1
  3
BYBLOCK
350
D0
  3
BYLAYER
350
CF
  3
GLOBAL
350
D1
  0
DICTIONARY
  5
17
102
{ACAD_REACTORS
330
C
102
}
330
C
100
AcDbDictionary
281
     1
  3
Standard
350
18
  0
DICTIONARY
  5
19
102
{ACAD_REACTORS
330
C
102
}
330
C
100
AcDbDictionary
281
     1
  0
ACDBDICTIONARYWDFLT
  5
E
102
{ACAD_REACTORS
330
C
102
}
330
C
100
AcDbDictionary
281
     1
  3
Normal
350
F
100
AcDbDictionaryWithDefault
340
F
  0
DICTIONARY
  5
92
102
{ACAD_REACTORS
330
C
102
}
330
C
100
AcDbDictionary
281
     1
  0
DICTIONARY
  5
D2
102
{ACAD_REACTORS
330
C
102
}
330
C
100
AcDbDictionary
281
     1
  3
2DWIREFRAME
350
D8
  3
3D HIDDEN
350
DA
  3
3DWIREFRAME
350
D9
  3
BASIC
350
D7
  3
BRIGHTEN
350
DE
  3
COLORCHANGE
350
E2
  3
CONCEPTUAL
350
DB
  3
DIM
350
DD
  3
FACEPATTERN
350
E1
  3
FLAT
350
D3
  3
FLATWITHEDGES
350
D4
  3
GOURAUD
350
D5
  3
GOURAUDWITHEDGES
350
D6
  3
LINEPATTERN
350
E0
  3
REALISTIC
350
DC
  3
THICKEN
350
DF
  0
DICTIONARY
  5
FB
102
{ACAD_REACTORS
330
C
102
}
330
C
100
AcDbDictionary
281
     1
  3
COLORDICT
350
FC
  3
MATERIALDICT
350
FD
  0
DICTIONARY
  5
59
102
{ACAD_REACTORS
330
C
102
}
330
C
100
AcDbDictionary
281
     1
  3
CTABLESTYLE
350
F7
  3
DIMASSOC
350
9A
  3
HALOGAP
350
9B
  3
HIDETEXT
350
9E
  3
INDEXCTL
350
9C
  3
SORTENTS
350
E6
  3
XCLIPFRAME
350
9D
  0
XRECORD
  5
FE
102
{ACAD_REACTORS
330
C
102
}
330
C
100
AcDbXrecord
280
     1
  1
DWGPROPS COOKIE
  2

  3

  4

  6

  7

  8
fottrem
  9

300
=
301
=
302
=
303
=
304
=
305
=
306
=
307
=
308
=
309
=
 40
0.0
 41
2455839.781959421
 42
2455839.789718542
  1

 90
        0
  0
LAYOUT
  5
74
102
{ACAD_REACTORS
330
1A
102
}
330
1A
100
AcDbPlotSettings
  1

  2
none_device
  4
Letter_(8.50_x_11.00_Inches)
  6

 40
6.35
 41
6.35
 42
6.35000508
 43
6.35000508
 44
215.9
 45
279.4
 46
0.0
 47
0.0
 48
0.0
 49
0.0
140
0.0
141
0.0
142
1.0
143
1.0
 70
   688
 72
     0
 73
     0
 74
     5
  7

 75
    16
147
1.0
148
0.0
149
0.0
100
AcDbLayout
  1
Layout1
 70
     1
 71
     1
 10
0.0
 20
0.0
 11
12.0
 21
9.0
 12
0.0
 22
0.0
 32
0.0
 14
1.000000000000000E+20
 24
1.000000000000000E+20
 34
1.000000000000000E+20
 15
-1.000000000000000E+20
 25
-1.000000000000000E+20
 35
-1.000000000000000E+20
146
0.0
 13
0.0
 23
0.0
 33
0.0
 16
1.0
 26
0.0
 36
0.0
 17
0.0
 27
1.0
 37
0.0
 76
     0
330
73
  0
LAYOUT
  5
22
102
{ACAD_REACTORS
330
1A
102
}
330
1A
100
AcDbPlotSettings
  1

  2
none_device
  4
Letter_(8.50_x_11.00_Inches)
  6

 40
6.35
 41
6.35
 42
6.35000508
 43
6.35000508
 44
215.9
 45
279.4
 46
0.0
 47
0.0
 48
0.0
 49
0.0
140
0.0
141
0.0
142
1.0
143
17.73986068384936
 70
 11952
 72
     0
 73
     0
 74
     0
  7

 75
     0
147
0.0563702284827082
148
0.0
149
0.0
100
AcDbLayout
  1
Model
 70
     1
 71
     0
 10
0.0
 20
0.0
 11
12.0
 21
9.0
 12
0.0
 22
0.0
 32
0.0
 14
-17.5
 24
-9.5
 34
-31.5
 15
17.5
 25
2.5
 35
31.5
146
0.0
 13
0.0
 23
0.0
 33
0.0
 16
1.0
 26
0.0
 36
0.0
 17
0.0
 27
1.0
 37
0.0
 76
     0
330
1F
331
97
  0
MATERIAL
  5
D0
102
{ACAD_REACTORS
330
6B
102
}
102
{ACAD_XDICTIONARY
360
FF
102
}
330
6B
100
AcDbMaterial
  1
ByBlock
  0
MATERIAL
  5
CF
102
{ACAD_REACTORS
330
6B
102
}
102
{ACAD_XDICTIONARY
360
101
102
}
330
6B
100
AcDbMaterial
  1
ByLayer
  0
MATERIAL
  5
D1
102
{ACAD_REACTORS
330
6B
102
}
102
{ACAD_XDICTIONARY
360
103
102
}
330
6B
100
AcDbMaterial
  1
Global
  0
MLINESTYLE
  5
18
102
{ACAD_REACTORS
330
17
102
}
330
17
100
AcDbMlineStyle
  2
Standard
 70
     0
  3

 62
   256
 51
90.0
 52
90.0
 71
     2
 49
0.5
 62
   256
  6
BYLAYER
 49
-0.5
 62
   256
  6
BYLAYER
  0
ACDBPLACEHOLDER
  5
F
102
{ACAD_REACTORS
330
E
102
}
330
E
  0
VISUALSTYLE
  5
D8
102
{ACAD_REACTORS
330
D2
102
}
330
D2
100
AcDbVisualStyle
  2
2dWireframe
 70
     4
 71
     0
 72
     2
 73
     0
 90
        0
 40
-0.6
 41
-30.0
 62
     5
 63
     7
 74
     1
 91
        4
 64
     7
 65
   257
 75
     1
175
     1
 42
1.0
 92
        0
 66
   257
 43
1.0
 76
     1
 77
     6
 78
     2
 67
     7
 79
     5
170
     0
171
     0
290
     0
174
     0
 93
        1
 44
0.0
173
     0
291
     0
 45
0.0
1001
ACAD
1000
AcDbSavedByObjectVersion
1070
     0
  0
VISUALSTYLE
  5
DA
102
{ACAD_REACTORS
330
D2
102
}
330
D2
100
AcDbVisualStyle
  2
3D Hidden
 70
     6
 71
     1
 72
     2
 73
     2
 90
        0
 40
-0.6
 41
-30.0
 62
     5
 63
     7
 74
     2
 91
        2
 64
     7
 65
   257
 75
     2
175
     1
 42
40.0
 92
        0
 66
   257
 43
1.0
 76
     1
 77
     6
 78
     2
 67
     7
 79
     3
170
     0
171
     0
290
     0
174
     0
 93
        1
 44
0.0
173
     0
291
     0
 45
0.0
1001
ACAD
1000
AcDbSavedByObjectVersion
1070
     0
  0
VISUALSTYLE
  5
D9
102
{ACAD_REACTORS
330
D2
102
}
330
D2
100
AcDbVisualStyle
  2
3dWireframe
 70
     5
 71
     0
 72
     2
 73
     0
 90
        0
 40
-0.6
 41
-30.0
 62
     5
 63
     7
 74
     1
 91
        4
 64
     7
 65
   257
 75
     1
175
     1
 42
1.0
 92
        0
 66
   257
 43
1.0
 76
     1
 77
     6
 78
     2
 67
     7
 79
     5
170
     0
171
     0
290
     0
174
     0
 93
        1
 44
0.0
173
     0
291
     0
 45
0.0
1001
ACAD
1000
AcDbSavedByObjectVersion
1070
     0
  0
VISUALSTYLE
  5
D7
102
{ACAD_REACTORS
330
D2
102
}
330
D2
100
AcDbVisualStyle
  2
Basic
 70
     7
 71
     1
 72
     0
 73
     1
 90
        0
 40
-0.6
 41
-30.0
 62
     5
 63
     7
 74
     0
 91
        4
 64
     7
 65
   257
 75
     1
175
     1
 42
1.0
 92
        8
 66
     7
 43
1.0
 76
     1
 77
     6
 78
     2
 67
     7
 79
     5
170
     0
171
     0
290
     0
174
     0
 93
        1
 44
0.0
173
     0
291
     1
 45
0.0
1001
ACAD
1000
AcDbSavedByObjectVersion
1070
     0
  0
VISUALSTYLE
  5
DE
102
{ACAD_REACTORS
330
D2
102
}
330
D2
100
AcDbVisualStyle
  2
Brighten
 70
    12
 71
     2
 72
     2
 73
     0
 90
        0
 40
-0.6
 41
-30.0
 62
     5
 63
     7
 74
     1
 91
        4
 64
     7
 65
   257
 75
     1
175
     1
 42
1.0
 92
        8
 66
     7
 43
1.0
 76
     1
 77
     6
 78
     2
 67
     7
 79
     5
170
     0
171
     0
290
     0
174
     0
 93
        1
 44
50.0
173
     0
291
     1
 45
0.0
1001
ACAD
1000
AcDbSavedByObjectVersion
1070
     0
  0
VISUALSTYLE
  5
E2
102
{ACAD_REACTORS
330
D2
102
}
330
D2
100
AcDbVisualStyle
  2
ColorChange
 70
    16
 71
     2
 72
     2
 73
     3
 90
        0
 40
-0.6
 41
-30.0
 62
     5
 63
     8
 74
     1
 91
        4
 64
     7
 65
   257
 75
     1
175
     1
 42
1.0
 92
        8
 66
     8
 43
1.0
 76
     1
 77
     6
 78
     2
 67
     7
 79
     5
170
     0
171
     0
290
     0
174
     0
 93
        1
 44
0.0
173
     0
291
     1
 45
0.0
1001
ACAD
1000
AcDbSavedByObjectVersion
1070
     0
  0
VISUALSTYLE
  5
DB
102
{ACAD_REACTORS
330
D2
102
}
330
D2
100
AcDbVisualStyle
  2
Conceptual
 70
     9
 71
     3
 72
     2
 73
     0
 90
        0
 40
-0.6
 41
-30.0
 62
     5
 63
     7
 74
     2
 91
        2
 64
     7
 65
   257
 75
     1
175
     1
 42
40.0
 92
        8
 66
     7
 43
1.0
 76
     1
 77
     6
 78
     2
 67
     7
 79
     3
170
     0
171
     0
290
     0
174
     0
 93
        1
 44
0.0
173
     0
291
     0
 45
0.0
1001
ACAD
1000
AcDbSavedByObjectVersion
1070
     0
  0
VISUALSTYLE
  5
DD
102
{ACAD_REACTORS
330
D2
102
}
330
D2
100
AcDbVisualStyle
  2
Dim
 70
    11
 71
     2
 72
     2
 73
     0
 90
        0
 40
-0.6
 41
-30.0
 62
     5
 63
     7
 74
     1
 91
        4
 64
     7
 65
   257
 75
     1
175
     1
 42
1.0
 92
        8
 66
     7
 43
1.0
 76
     1
 77
     6
 78
     2
 67
     7
 79
     5
170
     0
171
     0
290
     0
174
     0
 93
        1
 44
-50.0
173
     0
291
     1
 45
0.0
1001
ACAD
1000
AcDbSavedByObjectVersion
1070
     0
  0
VISUALSTYLE
  5
E1
102
{ACAD_REACTORS
330
D2
102
}
330
D2
100
AcDbVisualStyle
  2
Facepattern
 70
    15
 71
     2
 72
     2
 73
     0
 90
        0
 40
-0.6
 41
-30.0
 62
     5
 63
     7
 74
     1
 91
        4
 64
     7
 65
   257
 75
     1
175
     1
 42
1.0
 92
        8
 66
     7
 43
1.0
 76
     1
 77
     6
 78
     2
 67
     7
 79
     5
170
     0
171
     0
290
     0
174
     0
 93
        1
 44
0.0
173
     0
291
     1
 45
0.0
1001
ACAD
1000
AcDbSavedByObjectVersion
1070
     0
  0
VISUALSTYLE
  5
D3
102
{ACAD_REACTORS
330
D2
102
}
330
D2
100
AcDbVisualStyle
  2
Flat
 70
     0
 71
     2
 72
     1
 73
     1
 90
        2
 40
-0.6
 41
30.0
 62
     5
 63
     7
 74
     0
 91
        4
 64
     7
 65
   257
 75
     1
175
     1
 42
1.0
 92
        8
 66
     7
 43
1.0
 76
     1
 77
     6
 78
     2
 67
     7
 79
     5
170
     0
171
     0
290
     0
174
     0
 93
       13
 44
0.0
173
     0
291
     1
 45
0.0
1001
ACAD
1000
AcDbSavedByObjectVersion
1070
     0
  0
VISUALSTYLE
  5
D4
102
{ACAD_REACTORS
330
D2
102
}
330
D2
100
AcDbVisualStyle
  2
FlatWithEdges
 70
     1
 71
     2
 72
     1
 73
     1
 90
        2
 40
-0.6
 41
30.0
 62
     5
 63
     7
 74
     1
 91
        4
 64
     7
 65
   257
 75
     1
175
     1
 42
1.0
 92
        0
 66
   257
 43
1.0
 76
     1
 77
     6
 78
     2
 67
     7
 79
     5
170
     0
171
     0
290
     0
174
     0
 93
       13
 44
0.0
173
     0
291
     1
 45
0.0
1001
ACAD
1000
AcDbSavedByObjectVersion
1070
     0
  0
VISUALSTYLE
  5
D5
102
{ACAD_REACTORS
330
D2
102
}
330
D2
100
AcDbVisualStyle
  2
Gouraud
 70
     2
 71
     2
 72
     2
 73
     1
 90
        2
 40
-0.6
 41
30.0
 62
     5
 63
     7
 74
     0
 91
        4
 64
     7
 65
   257
 75
     1
175
     1
 42
1.0
 92
        0
 66
     7
 43
1.0
 76
     1
 77
     6
 78
     2
 67
     7
 79
     5
170
     0
171
     0
290
     0
174
     0
 93
       13
 44
0.0
173
     0
291
     1
 45
0.0
1001
ACAD
1000
AcDbSavedByObjectVersion
1070
     0
  0
VISUALSTYLE
  5
D6
102
{ACAD_REACTORS
330
D2
102
}
330
D2
100
AcDbVisualStyle
  2
GouraudWithEdges
 70
     3
 71
     2
 72
     2
 73
     1
 90
        2
 40
-0.6
 41
30.0
 62
     5
 63
     7
 74
     1
 91
        4
 64
     7
 65
   257
 75
     1
175
     1
 42
1.0
 92
        0
 66
   257
 43
1.0
 76
     1
 77
     6
 78
     2
 67
     7
 79
     5
170
     0
171
     0
290
     0
174
     0
 93
       13
 44
0.0
173
     0
291
     1
 45
0.0
1001
ACAD
1000
AcDbSavedByObjectVersion
1070
     0
  0
VISUALSTYLE
  5
E0
102
{ACAD_REACTORS
330
D2
102
}
330
D2
100
AcDbVisualStyle
  2
Linepattern
 70
    14
 71
     2
 72
     2
 73
     0
 90
        0
 40
-0.6
 41
-30.0
 62
     5
 63
     7
 74
     1
 91
        4
 64
     7
 65
   257
 75
     7
175
     7
 42
1.0
 92
        8
 66
     7
 43
1.0
 76
     1
 77
     6
 78
     2
 67
     7
 79
     5
170
     0
171
     0
290
     0
174
     0
 93
        1
 44
0.0
173
     0
291
     1
 45
0.0
1001
ACAD
1000
AcDbSavedByObjectVersion
1070
     0
  0
VISUALSTYLE
  5
DC
102
{ACAD_REACTORS
330
D2
102
}
330
D2
100
AcDbVisualStyle
  2
Realistic
 70
     8
 71
     2
 72
     2
 73
     0
 90
        0
 40
-0.6
 41
-30.0
 62
     5
 63
     7
 74
     1
 91
        0
 64
     7
 65
   257
 75
     1
175
     1
 42
1.0
 92
        8
 66
     8
 43
1.0
 76
     1
 77
     6
 78
     2
 67
     7
 79
     5
170
     0
171
     0
290
     0
174
     0
 93
       13
 44
0.0
173
     0
291
     0
 45
0.0
1001
ACAD
1000
AcDbSavedByObjectVersion
1070
     0
  0
VISUALSTYLE
  5
DF
102
{ACAD_REACTORS
330
D2
102
}
330
D2
100
AcDbVisualStyle
  2
Thicken
 70
    13
 71
     2
 72
     2
 73
     0
 90
        0
 40
-0.6
 41
-30.0
 62
     5
 63
     7
 74
     1
 91
        4
 64
     7
 65
   257
 75
     1
175
     1
 42
1.0
 92
       12
 66
     7
 43
1.0
 76
     1
 77
     6
 78
     2
 67
     7
 79
     5
170
     0
171
     0
290
     0
174
     0
 93
        1
 44
0.0
173
     0
291
     1
 45
0.0
1001
ACAD
1000
AcDbSavedByObjectVersion
1070
     0
  0
XRECORD
  5
FC
102
{ACAD_REACTORS
330
FB
102
}
330
FB
100
AcDbXrecord
280
     1
340
6C
  0
XRECORD
  5
FD
102
{ACAD_REACTORS
330
FB
102
}
330
FB
100
AcDbXrecord
280
     1
340
6B
  0
DICTIONARYVAR
  5
F7
102
{ACAD_REACTORS
330
59
102
}
330
59
100
DictionaryVariables
280
     0
  1

  0
DICTIONARYVAR
  5
9A
102
{ACAD_REACTORS
330
59
102
}
330
59
100
DictionaryVariables
280
     0
  1
2
  0
DICTIONARYVAR
  5
9B
102
{ACAD_REACTORS
330
59
102
}
330
59
100
DictionaryVariables
280
     0
  1
0
  0
DICTIONARYVAR
  5
9E
102
{ACAD_REACTORS
330
59
102
}
330
59
100
DictionaryVariables
280
     0
  1
1
  0
DICTIONARYVAR
  5
9C
102
{ACAD_REACTORS
330
59
102
}
330
59
100
DictionaryVariables
280
     0
  1
0
  0
DICTIONARYVAR
  5
E6
102
{ACAD_REACTORS
330
59
102
}
330
59
100
DictionaryVariables
280
     0
  1
127
  0
DICTIONARYVAR
  5
9D
102
{ACAD_REACTORS
330
59
102
}
330
59
100
DictionaryVariables
280
     0
  1
0
  0
DICTIONARY
  5
FF
330
D0
100
AcDbDictionary
280
     1
281
     1
  3
ACAD_XREC_ROUNDTRIP
360
100
  0
DICTIONARY
  5
101
330
CF
100
AcDbDictionary
280
     1
281
     1
  3
ACAD_XREC_ROUNDTRIP
360
102
  0
DICTIONARY
  5
103
330
D1
100
AcDbDictionary
280
     1
281
     1
  3
ACAD_XREC_ROUNDTRIP
360
104
  0
XRECORD
  5
100
102
{ACAD_REACTORS
330
FF
102
}
330
FF
100
AcDbXrecord
280
     1
102
MATERIAL
148
0.0
149
0.0
149
0.0
 93
        0
 94
       63
282
     0
 72
     1
 77
     1
171
     1
175
     1
179
     1
273
     0
  0
XRECORD
  5
102
102
{ACAD_REACTORS
330
101
102
}
330
101
100
AcDbXrecord
280
     1
102
MATERIAL
148
0.0
149
0.0
149
0.0
 93
        0
 94
       63
282
     0
 72
     1
 77
     1
171
     1
175
     1
179
     1
273
     0
  0
XRECORD
  5
104
102
{ACAD_REACTORS
330
103
102
}
330
103
100
AcDbXrecord
280
     1
102
MATERIAL
148
0.0
149
0.0
149
0.0
 93
        0
 94
       63
282
     0
 72
     1
 77
     1
171
     1
175
     1
179
     1
273
     0
  0
ENDSEC
  0
EOF
