  0
SECTION
  2
HEADER
  9
$ACADVER
  1
AC1009
  9
$DWGCODEPAGE
  3
ansi_1252
  9
$INSBASE
 10
0.0
 20
0.0
 30
0.0
  9
$EXTMIN
 10
-130.0
 20
-29.43213105201721
 30
-20.0
  9
$EXTMAX
 10
129.9478912353514
 20
0.0
 30
20.57023143768311
  9
$LIMMIN
 10
0.0
 20
0.0
  9
$LIMMAX
 10
12.0
 20
9.0
  9
$ORTHOMODE
 70
     1
  9
$REGENMODE
 70
     1
  9
$FILLMODE
 70
     1
  9
$QTEXTMODE
 70
     0
  9
$MIRRTEXT
 70
     1
  9
$DRAGMODE
 70
     2
  9
$LTSCALE
 40
1.0
  9
$OSMODE
 70
    37
  9
$ATTMODE
 70
     1
  9
$TEXTSIZE
 40
0.2
  9
$TRACEWID
 40
0.05
  9
$TEXTSTYLE
  7
STANDARD
  9
$CLAYER
  8
0
  9
$CELTYPE
  6
BYLAYER
  9
$CECOLOR
 62
   256
  9
$DIMSCALE
 40
1.0
  9
$DIMASZ
 40
0.18
  9
$DIMEXO
 40
0.0625
  9
$DIMDLI
 40
0.38
  9
$DIMRND
 40
0.0
  9
$DIMDLE
 40
0.0
  9
$DIMEXE
 40
0.18
  9
$DIMTP
 40
0.0
  9
$DIMTM
 40
0.0
  9
$DIMTXT
 40
0.18
  9
$DIMCEN
 40
0.09
  9
$DIMTSZ
 40
0.0
  9
$DIMTOL
 70
     0
  9
$DIMLIM
 70
     0
  9
$DIMTIH
 70
     1
  9
$DIMTOH
 70
     1
  9
$DIMSE1
 70
     0
  9
$DIMSE2
 70
     0
  9
$DIMTAD
 70
     0
  9
$DIMZIN
 70
     0
  9
$DIMBLK
  1

  9
$DIMASO
 70
     1
  9
$DIMSHO
 70
     1
  9
$DIMPOST
  1

  9
$DIMAPOST
  1

  9
$DIMALT
 70
     0
  9
$DIMALTD
 70
     2
  9
$DIMALTF
 40
25.4
  9
$DIMLFAC
 40
1.0
  9
$DIMTOFL
 70
     0
  9
$DIMTVP
 40
0.0
  9
$DIMTIX
 70
     0
  9
$DIMSOXD
 70
     0
  9
$DIMSAH
 70
     0
  9
$DIMBLK1
  1

  9
$DIMBLK2
  1

  9
$DIMSTYLE
  2
STANDARD
  9
$DIMCLRD
 70
     0
  9
$DIMCLRE
 70
     0
  9
$DIMCLRT
 70
     0
  9
$DIMTFAC
 40
1.0
  9
$DIMGAP
 40
0.09
  9
$LUNITS
 70
     2
  9
$LUPREC
 70
     3
  9
$SKETCHINC
 40
0.1
  9
$FILLETRAD
 40
0.5
  9
$AUNITS
 70
     0
  9
$AUPREC
 70
     0
  9
$MENU
  1
.
  9
$ELEVATION
 40
0.0
  9
$PELEVATION
 40
0.0
  9
$THICKNESS
 40
0.0
  9
$LIMCHECK
 70
     0
  9
$CHAMFERA
 40
0.5
  9
$CHAMFERB
 40
0.5
  9
$SKPOLY
 70
     0
  9
$TDCREATE
 40
2456498.73416147
  9
$TDUPDATE
 40
2456498.73416147
  9
$TDINDWG
 40
0.0073726968
  9
$TDUSRTIMER
 40
0.0073726968
  9
$USRTIMER
 70
     1
  9
$ANGBASE
 50
0.0
  9
$ANGDIR
 70
     0
  9
$PDMODE
 70
     0
  9
$PDSIZE
 40
0.0
  9
$PLINEWID
 40
0.0
  9
$COORDS
 70
     1
  9
$SPLFRAME
 70
     0
  9
$SPLINETYPE
 70
     6
  9
$SPLINESEGS
 70
     8
  9
$ATTDIA
 70
     0
  9
$ATTREQ
 70
     1
  9
$HANDLING
 70
     1
  9
$HANDSEED
  5
24B
  9
$SURFTAB1
 70
     6
  9
$SURFTAB2
 70
     6
  9
$SURFTYPE
 70
     6
  9
$SURFU
 70
     6
  9
$SURFV
 70
     6
  9
$UCSNAME
  2

  9
$UCSORG
 10
0.0
 20
0.0
 30
0.0
  9
$UCSXDIR
 10
1.0
 20
0.0
 30
0.0
  9
$UCSYDIR
 10
0.0
 20
0.0
 30
1.0
  9
$PUCSNAME
  2

  9
$PUCSORG
 10
0.0
 20
0.0
 30
0.0
  9
$PUCSXDIR
 10
1.0
 20
0.0
 30
0.0
  9
$PUCSYDIR
 10
0.0
 20
1.0
 30
0.0
  9
$USERI1
 70
     0
  9
$USERI2
 70
     0
  9
$USERI3
 70
     0
  9
$USERI4
 70
     0
  9
$USERI5
 70
     0
  9
$USERR1
 40
0.0
  9
$USERR2
 40
0.0
  9
$USERR3
 40
0.0
  9
$USERR4
 40
0.0
  9
$USERR5
 40
0.0
  9
$WORLDVIEW
 70
     1
  9
$SHADEDGE
 70
     3
  9
$SHADEDIF
 70
    70
  9
$TILEMODE
 70
     1
  9
$MAXACTVP
 70
    64
  9
$PLIMCHECK
 70
     0
  9
$PEXTMIN
 10
1.000000000000000E+20
 20
1.000000000000000E+20
 30
1.000000000000000E+20
  9
$PEXTMAX
 10
-1.000000000000000E+20
 20
-1.000000000000000E+20
 30
-1.000000000000000E+20
  9
$PLIMMIN
 10
0.0
 20
0.0
  9
$PLIMMAX
 10
12.0
 20
9.0
  9
$UNITMODE
 70
     0
  9
$VISRETAIN
 70
     1
  9
$PLINEGEN
 70
     0
  9
$PSLTSCALE
 70
     1
  0
ENDSEC
  0
SECTION
  2
TABLES
  0
TABLE
  2
VPORT
 70
     1
  0
VPORT
  2
*ACTIVE
 70
     0
 10
0.0
 20
0.0
 11
1.0
 21
1.0
 12
10.38740649540514
 22
-5.785649240787299
 13
0.0
 23
0.0
 14
0.5
 24
0.5
 15
0.5
 25
0.5
 16
-1.0
 26
-1.0
 36
1.0
 17
0.0
 27
0.0
 37
0.0
 40
192.8620521781477
 41
13.24905391818801
 42
50.0
 43
0.0
 44
0.0
 50
0.0
 51
0.0
 71
    16
 72
   100
 73
     0
 74
     1
 75
     0
 76
     0
 77
     0
 78
     0
  0
ENDTAB
  0
TABLE
  2
LTYPE
 70
     1
  0
LTYPE
  2
CONTINUOUS
 70
     0
  3
Solid line
 72
    65
 73
     0
 40
0.0
  0
ENDTAB
  0
TABLE
  2
LAYER
 70
     2
  0
LAYER
  2
0
 70
     0
 62
     7
  6
CONTINUOUS
  0
LAYER
  2
METAL
 70
     0
 62
   136
  6
CONTINUOUS
  0
ENDTAB
  0
TABLE
  2
STYLE
 70
     1
  0
STYLE
  2
STANDARD
 70
     0
 40
0.0
 41
1.0
 50
0.0
 71
     0
 42
0.2
  3
txt
  4

  0
ENDTAB
  0
TABLE
  2
VIEW
 70
     0
  0
ENDTAB
  0
TABLE
  2
UCS
 70
     0
  0
ENDTAB
  0
TABLE
  2
APPID
 70
     1
  0
APPID
  2
ACAD
 70
     0
  0
ENDTAB
  0
TABLE
  2
DIMSTYLE
 70
     1
  0
DIMSTYLE
  2
STANDARD
 70
     0
  3

  4

  5

  6

  7

 40
1.0
 41
0.18
 42
0.0625
 43
0.38
 44
0.18
 45
0.0
 46
0.0
 47
0.0
 48
0.0
140
0.18
141
0.09
142
0.0
143
25.4
144
1.0
145
0.0
146
1.0
147
0.09
 71
     0
 72
     0
 73
     1
 74
     1
 75
     0
 76
     0
 77
     0
 78
     0
170
     0
171
     2
172
     0
173
     0
174
     0
175
     0
176
     0
177
     0
178
     0
  0
ENDTAB
  0
ENDSEC
  0
SECTION
  2
BLOCKS
  0
BLOCK
  8
0
  2
$MODEL_SPACE
 70
     0
 10
0.0
 20
0.0
 30
0.0
  3
$MODEL_SPACE
  1

  0
ENDBLK
  5
21
  8
0
  0
BLOCK
 67
     1
  8
0
  2
$PAPER_SPACE
 70
     0
 10
0.0
 20
0.0
 30
0.0
  3
$PAPER_SPACE
  1

  0
ENDBLK
  5
76
 67
     1
  8
0
  0
ENDSEC
  0
SECTION
  2
ENTITIES
  0
POLYLINE
  5
3C
  8
METAL
 66
     1
 10
0.0
 20
0.0
 30
0.0
 70
    64
 71
   303
 72
   194
  0
VERTEX
  5
3D
  8
METAL
 10
129.9478912353514
 20
-26.47911107540131
 30
-20.0
 70
   192
  0
VERTEX
  5
3E
  8
METAL
 10
129.9478912353514
 20
-26.47911107540131
 30
-20.0
 70
   192
  0
VERTEX
  5
3F
  8
METAL
 10
129.9478912353514
 20
-26.47911107540131
 30
10.0282735824585
 70
   192
  0
VERTEX
  5
40
  8
METAL
 10
129.9478912353514
 20
-26.47911107540131
 30
17.61720561981201
 70
   192
  0
VERTEX
  5
41
  8
METAL
 10
129.9478912353514
 20
-19.3514404296875
 30
-20.0
 70
   192
  0
VERTEX
  5
42
  8
METAL
 10
129.9478912353514
 20
-19.3514404296875
 30
-20.0
 70
   192
  0
VERTEX
  5
43
  8
METAL
 10
129.9478912353514
 20
-19.35143947601318
 30
10.02827167510986
 70
   192
  0
VERTEX
  5
44
  8
METAL
 10
129.9478912353514
 20
-19.35143947601318
 30
17.61720943450928
 70
   192
  0
VERTEX
  5
45
  8
METAL
 10
129.9478912353514
 20
-15.48115348815918
 30
-20.0
 70
   192
  0
VERTEX
  5
46
  8
METAL
 10
129.9478912353514
 20
-15.48115348815918
 30
-20.0
 70
   192
  0
VERTEX
  5
47
  8
METAL
 10
129.9478912353514
 20
-15.48115348815918
 30
10.02827167510986
 70
   192
  0
VERTEX
  5
48
  8
METAL
 10
129.9478912353514
 20
-15.48115062713623
 30
17.61720943450928
 70
   192
  0
VERTEX
  5
49
  8
METAL
 10
129.9478912353514
 20
-11.61086463928223
 30
-20.0
 70
   192
  0
VERTEX
  5
4A
  8
METAL
 10
129.9478912353514
 20
-11.61086463928223
 30
-20.0
 70
   192
  0
VERTEX
  5
4B
  8
METAL
 10
129.9478912353514
 20
-11.61086463928223
 30
10.0282735824585
 70
   192
  0
VERTEX
  5
4C
  8
METAL
 10
129.9478912353514
 20
-11.61086273193359
 30
17.61720943450928
 70
   192
  0
VERTEX
  5
4D
  8
METAL
 10
129.9478912353514
 20
-7.740577697753906
 30
-20.0
 70
   192
  0
VERTEX
  5
4E
  8
METAL
 10
129.9478912353514
 20
-7.740577697753906
 30
-20.0
 70
   192
  0
VERTEX
  5
4F
  8
METAL
 10
129.9478912353514
 20
-7.740577697753906
 30
10.0282735824585
 70
   192
  0
VERTEX
  5
50
  8
METAL
 10
129.9478912353514
 20
-7.740575790405273
 30
17.61720943450928
 70
   192
  0
VERTEX
  5
51
  8
METAL
 10
129.9478912353514
 20
-3.870288848876953
 30
10.0282735824585
 70
   192
  0
VERTEX
  5
52
  8
METAL
 10
129.9478912353514
 20
-3.870288848876953
 30
17.61720943450928
 70
   192
  0
VERTEX
  5
53
  8
METAL
 10
129.9478912353514
 20
-3.87028694152832
 30
-20.0
 70
   192
  0
VERTEX
  5
54
  8
METAL
 10
129.9478912353514
 20
-3.87028694152832
 30
-20.0
 70
   192
  0
VERTEX
  5
55
  8
METAL
 10
129.9478912353514
 20
-2.953022003173828
 30
10.0282735824585
 70
   192
  0
VERTEX
  5
56
  8
METAL
 10
129.9478912353514
 20
-2.953020095825195
 30
-20.0
 70
   192
  0
VERTEX
  5
57
  8
METAL
 10
129.9478912353514
 20
-2.953020095825195
 30
-20.0
 70
   192
  0
VERTEX
  5
58
  8
METAL
 10
129.9478912353514
 20
-2.736705780029297
 30
17.83352184295654
 70
   192
  0
VERTEX
  5
23B
  8
METAL
 10
129.2096405029297
 20
-28.69387602806091
 30
10.0282735824585
 70
   192
  0
VERTEX
  5
23C
  8
METAL
 10
129.2096405029297
 20
-28.69387602806091
 30
10.0282735824585
 70
   192
  0
VERTEX
  5
5B
  8
METAL
 10
129.2096405029297
 20
-28.69387602806091
 30
17.61720561981201
 70
   192
  0
VERTEX
  5
5C
  8
METAL
 10
129.2096405029297
 20
-28.69387602806091
 30
17.61720561981201
 70
   192
  0
VERTEX
  5
5D
  8
METAL
 10
129.2096405029297
 20
-28.69387501478195
 30
-20.0
 70
   192
  0
VERTEX
  5
23D
  8
METAL
 10
129.2096405029297
 20
-28.69387501478195
 30
-20.0
 70
   192
  0
VERTEX
  5
5F
  8
METAL
 10
129.2096405029297
 20
-28.69387501478195
 30
-20.0
 70
   192
  0
VERTEX
  5
60
  8
METAL
 10
129.2096405029297
 20
-28.14018401503563
 30
19.27827739715576
 70
   192
  0
VERTEX
  5
61
  8
METAL
 10
129.2096405029297
 20
-28.14018401503563
 30
19.27827739715576
 70
   192
  0
VERTEX
  5
62
  8
METAL
 10
129.2096405029297
 20
-28.14018401503563
 30
19.27827739715576
 70
   192
  0
VERTEX
  5
63
  8
METAL
 10
129.2096405029297
 20
-26.47911107540131
 30
19.8319730758667
 70
   192
  0
VERTEX
  5
64
  8
METAL
 10
129.2096405029297
 20
-26.47911107540131
 30
19.8319730758667
 70
   192
  0
VERTEX
  5
65
  8
METAL
 10
129.2096405029297
 20
-19.35143947601318
 30
19.8319730758667
 70
   192
  0
VERTEX
  5
66
  8
METAL
 10
129.2096405029297
 20
-19.35143947601318
 30
19.8319730758667
 70
   192
  0
VERTEX
  5
67
  8
METAL
 10
129.2096405029297
 20
-15.48115062713623
 30
19.8319730758667
 70
   192
  0
VERTEX
  5
68
  8
METAL
 10
129.2096405029297
 20
-15.48115062713623
 30
19.8319730758667
 70
   192
  0
VERTEX
  5
69
  8
METAL
 10
129.2096405029297
 20
-11.61086273193359
 30
19.8319730758667
 70
   192
  0
VERTEX
  5
6A
  8
METAL
 10
129.2096405029297
 20
-11.61086273193359
 30
19.8319730758667
 70
   192
  0
VERTEX
  5
23E
  8
METAL
 10
129.2096405029297
 20
-7.740575790405273
 30
19.8319730758667
 70
   192
  0
VERTEX
  5
23F
  8
METAL
 10
129.2096405029297
 20
-7.740575790405273
 30
19.8319730758667
 70
   192
  0
VERTEX
  5
6D
  8
METAL
 10
129.2096405029297
 20
-3.87028694152832
 30
19.8319730758667
 70
   192
  0
VERTEX
  5
6E
  8
METAL
 10
129.2096405029297
 20
-3.87028694152832
 30
19.8319730758667
 70
   192
  0
VERTEX
  5
6F
  8
METAL
 10
129.2096405029297
 20
-0.7382564544677734
 30
10.02827167510986
 70
   192
  0
VERTEX
  5
70
  8
METAL
 10
129.2096405029297
 20
-0.7382564544677734
 30
10.02827167510986
 70
   192
  0
VERTEX
  5
71
  8
METAL
 10
129.2096405029297
 20
-0.7382545471191406
 30
-20.0
 70
   192
  0
VERTEX
  5
72
  8
METAL
 10
129.2096405029297
 20
-0.7382545471191406
 30
-20.0
 70
   192
  0
VERTEX
  5
240
  8
METAL
 10
129.2096405029297
 20
-0.7382545471191406
 30
-20.0
 70
   192
  0
VERTEX
  5
241
  8
METAL
 10
129.2096405029297
 20
-0.6841773986816406
 30
19.88605403900146
 70
   192
  0
VERTEX
  5
242
  8
METAL
 10
129.2096405029297
 20
-0.6841773986816406
 30
19.88605403900146
 70
   192
  0
VERTEX
  5
243
  8
METAL
 10
129.2096405029297
 20
-0.6841773986816406
 30
19.88605403900146
 70
   192
  0
VERTEX
  5
77
  8
METAL
 10
126.9948577880858
 20
-29.43213105201721
 30
10.0282735824585
 70
   192
  0
VERTEX
  5
78
  8
METAL
 10
126.9948577880858
 20
-29.43213105201721
 30
17.61720561981201
 70
   192
  0
VERTEX
  5
79
  8
METAL
 10
126.9948577880858
 20
-29.43212997913361
 30
-20.0
 70
   192
  0
VERTEX
  5
7A
  8
METAL
 10
126.9948577880858
 20
-29.43212997913361
 30
-20.0
 70
   192
  0
VERTEX
  5
7B
  8
METAL
 10
126.9948577880858
 20
-28.69387602806091
 30
19.83196926116943
 70
   192
  0
VERTEX
  5
7C
  8
METAL
 10
126.9948577880858
 20
-28.69387602806091
 30
19.83196926116943
 70
   192
  0
VERTEX
  5
7D
  8
METAL
 10
126.9948577880858
 20
-26.47911107540131
 30
20.57022762298584
 70
   192
  0
VERTEX
  5
7E
  8
METAL
 10
126.9948577880858
 20
-19.35143947601318
 30
20.57022762298584
 70
   192
  0
VERTEX
  5
7F
  8
METAL
 10
126.9948577880858
 20
-15.48114967346191
 30
20.57022762298584
 70
   192
  0
VERTEX
  5
80
  8
METAL
 10
126.9948577880858
 20
-11.61086273193359
 30
20.57022762298584
 70
   192
  0
VERTEX
  5
81
  8
METAL
 10
126.9948577880858
 20
-7.740575790405273
 30
20.57022762298584
 70
   192
  0
VERTEX
  5
82
  8
METAL
 10
126.9948577880858
 20
-3.87028694152832
 30
20.57022762298584
 70
   192
  0
VERTEX
  5
83
  8
METAL
 10
126.9948577880858
 20
-0.0000019073486328
 30
10.02827167510986
 70
   192
  0
VERTEX
  5
84
  8
METAL
 10
126.9948577880858
 20
0.0
 30
-20.0
 70
   192
  0
VERTEX
  5
85
  8
METAL
 10
126.9948577880858
 20
0.0
 30
-20.0
 70
   192
  0
VERTEX
  5
86
  8
METAL
 10
126.9948577880858
 20
0.0
 30
20.57022762298584
 70
   192
  0
VERTEX
  5
87
  8
METAL
 10
126.9948577880858
 20
0.0
 30
20.57022762298584
 70
   192
  0
VERTEX
  5
88
  8
METAL
 10
122.5692901611327
 20
-29.43213105201721
 30
12.98129177093506
 70
   192
  0
VERTEX
  5
89
  8
METAL
 10
122.5692901611327
 20
-29.43212997913361
 30
-20.0
 70
   192
  0
VERTEX
  5
8A
  8
METAL
 10
122.5692901611327
 20
-29.43212997913361
 30
-20.0
 70
   192
  0
VERTEX
  5
8B
  8
METAL
 10
120.3545379638671
 20
-28.69387602806091
 30
10.76652812957764
 70
   192
  0
VERTEX
  5
8C
  8
METAL
 10
120.3545379638671
 20
-28.69387602806091
 30
10.76652812957764
 70
   192
  0
VERTEX
  5
8D
  8
METAL
 10
120.3545379638671
 20
-28.69387602806091
 30
10.76652812957764
 70
   192
  0
VERTEX
  5
8E
  8
METAL
 10
120.3545379638671
 20
-28.69387400150299
 30
-20.0
 70
   192
  0
VERTEX
  5
8F
  8
METAL
 10
120.3545379638671
 20
-28.69387400150299
 30
-20.0
 70
   192
  0
VERTEX
  5
90
  8
METAL
 10
120.3545379638671
 20
-28.69387400150299
 30
-20.0
 70
   192
  0
VERTEX
  5
91
  8
METAL
 10
119.6958465576171
 20
-0.0000019073486328
 30
-20.0
 70
   192
  0
VERTEX
  5
244
  8
METAL
 10
119.6958465576171
 20
-0.0000019073486328
 30
-20.0
 70
   192
  0
VERTEX
  5
245
  8
METAL
 10
119.6958465576171
 20
-0.0000019073486328
 30
-20.0
 70
   192
  0
VERTEX
  5
94
  8
METAL
 10
119.6958465576171
 20
-0.0000019073486328
 30
10.0282735824585
 70
   192
  0
VERTEX
  5
95
  8
METAL
 10
119.6958465576171
 20
-0.0000019073486328
 30
10.0282735824585
 70
   192
  0
VERTEX
  5
96
  8
METAL
 10
119.6958465576171
 20
-0.0000019073486328
 30
10.0282735824585
 70
   192
  0
VERTEX
  5
246
  8
METAL
 10
119.6958465576171
 20
0.0
 30
20.57022762298584
 70
   192
  0
VERTEX
  5
247
  8
METAL
 10
119.6958465576171
 20
0.0
 30
20.57022762298584
 70
   192
  0
VERTEX
  5
99
  8
METAL
 10
119.6884918212889
 20
-3.870288848876953
 30
-20.0
 70
   192
  0
VERTEX
  5
9A
  8
METAL
 10
119.6884918212889
 20
-3.870288848876953
 30
-20.0
 70
   192
  0
VERTEX
  5
9B
  8
METAL
 10
119.6884918212889
 20
-3.870288848876953
 30
10.0282735824585
 70
   192
  0
VERTEX
  5
9C
  8
METAL
 10
119.6884918212889
 20
-3.870288848876953
 30
10.0282735824585
 70
   192
  0
VERTEX
  5
9D
  8
METAL
 10
119.6884918212889
 20
-3.87028694152832
 30
20.57022762298584
 70
   192
  0
VERTEX
  5
9E
  8
METAL
 10
119.6795806884764
 20
-7.740577697753906
 30
-20.0
 70
   192
  0
VERTEX
  5
9F
  8
METAL
 10
119.6795806884764
 20
-7.740577697753906
 30
-20.0
 70
   192
  0
VERTEX
  5
A0
  8
METAL
 10
119.6795806884764
 20
-7.740577697753906
 30
10.0282735824585
 70
   192
  0
VERTEX
  5
A1
  8
METAL
 10
119.6795806884764
 20
-7.740577697753906
 30
10.0282735824585
 70
   192
  0
VERTEX
  5
A2
  8
METAL
 10
119.6795806884764
 20
-7.740573883056641
 30
20.57022762298584
 70
   192
  0
VERTEX
  5
A3
  8
METAL
 10
119.6659393310547
 20
-11.61086463928223
 30
-20.0
 70
   192
  0
VERTEX
  5
A4
  8
METAL
 10
119.6659393310547
 20
-11.61086463928223
 30
-20.0
 70
   192
  0
VERTEX
  5
A5
  8
METAL
 10
119.6659393310547
 20
-11.61086463928223
 30
10.0282735824585
 70
   192
  0
VERTEX
  5
A6
  8
METAL
 10
119.6659393310547
 20
-11.61086463928223
 30
10.0282735824585
 70
   192
  0
VERTEX
  5
A7
  8
METAL
 10
119.6659393310547
 20
-11.61086273193359
 30
20.57022762298584
 70
   192
  0
VERTEX
  5
A8
  8
METAL
 10
119.6482086181639
 20
-15.48115158081055
 30
-20.0
 70
   192
  0
VERTEX
  5
A9
  8
METAL
 10
119.6482086181639
 20
-15.48115158081055
 30
-20.0
 70
   192
  0
VERTEX
  5
AA
  8
METAL
 10
119.6482086181639
 20
-15.48115158081055
 30
10.0282735824585
 70
   192
  0
VERTEX
  5
AB
  8
METAL
 10
119.6482086181639
 20
-15.48115158081055
 30
10.0282735824585
 70
   192
  0
VERTEX
  5
AC
  8
METAL
 10
119.6482086181639
 20
-15.48114967346191
 30
20.57022762298584
 70
   192
  0
VERTEX
  5
AD
  8
METAL
 10
119.6162719726561
 20
-29.43213105201721
 30
17.61720943450928
 70
   192
  0
VERTEX
  5
AE
  8
METAL
 10
119.6162719726561
 20
-28.69387602806091
 30
19.8319730758667
 70
   192
  0
VERTEX
  5
AF
  8
METAL
 10
119.6162719726561
 20
-28.69387602806091
 30
19.8319730758667
 70
   192
  0
VERTEX
  5
B0
  8
METAL
 10
119.6162719726561
 20
-26.47911107540131
 30
10.0282735824585
 70
   192
  0
VERTEX
  5
B1
  8
METAL
 10
119.6162719726561
 20
-26.47911107540131
 30
10.0282735824585
 70
   192
  0
VERTEX
  5
B2
  8
METAL
 10
119.6162719726561
 20
-26.47911107540131
 30
20.57022762298584
 70
   192
  0
VERTEX
  5
B3
  8
METAL
 10
119.6162719726561
 20
-26.47910904884338
 30
-20.0
 70
   192
  0
VERTEX
  5
B4
  8
METAL
 10
119.6162719726561
 20
-26.47910904884338
 30
-20.0
 70
   192
  0
VERTEX
  5
B5
  8
METAL
 10
119.6162719726561
 20
-19.35143947601318
 30
-20.0
 70
   192
  0
VERTEX
  5
B6
  8
METAL
 10
119.6162719726561
 20
-19.35143947601318
 30
-20.0
 70
   192
  0
VERTEX
  5
B7
  8
METAL
 10
119.6162719726561
 20
-19.35143947601318
 30
10.0282735824585
 70
   192
  0
VERTEX
  5
B8
  8
METAL
 10
119.6162719726561
 20
-19.35143947601318
 30
10.0282735824585
 70
   192
  0
VERTEX
  5
B9
  8
METAL
 10
119.6162719726561
 20
-19.35143756866455
 30
20.57022762298584
 70
   192
  0
VERTEX
  5
BA
  8
METAL
 10
118.6409454345703
 20
-0.0000019073486328
 30
10.0282735824585
 70
   192
  0
VERTEX
  5
BB
  8
METAL
 10
118.6409454345703
 20
-0.0000019073486328
 30
10.0282735824585
 70
   192
  0
VERTEX
  5
BC
  8
METAL
 10
118.6409454345703
 20
0.0
 30
20.57022762298584
 70
   192
  0
VERTEX
  5
BD
  8
METAL
 10
118.6409454345703
 20
0.0
 30
20.57022762298584
 70
   192
  0
VERTEX
  5
BE
  8
METAL
 10
116.4261932373047
 20
-0.0000019073486328
 30
10.76652812957764
 70
   192
  0
VERTEX
  5
BF
  8
METAL
 10
116.4261932373047
 20
-0.0000019073486328
 30
10.76652812957764
 70
   192
  0
VERTEX
  5
C0
  8
METAL
 10
116.4261932373047
 20
-0.0000019073486328
 30
10.76652812957764
 70
   192
  0
VERTEX
  5
C1
  8
METAL
 10
116.4261779785155
 20
0.0
 30
19.83197307586667
 70
   192
  0
VERTEX
  5
C2
  8
METAL
 10
116.4261779785155
 20
0.0
 30
19.83197307586667
 70
   192
  0
VERTEX
  5
C3
  8
METAL
 10
116.4261779785155
 20
0.0
 30
19.83197307586667
 70
   192
  0
VERTEX
  5
C4
  8
METAL
 10
115.7918243408203
 20
-3.87028694152832
 30
20.57022762298581
 70
   192
  0
VERTEX
  5
C5
  8
METAL
 10
115.6879272460936
 20
0.0
 30
12.98129177093503
 70
   192
  0
VERTEX
  5
C6
  8
METAL
 10
115.6879272460936
 20
0.0
 30
12.98129177093503
 70
   192
  0
VERTEX
  5
C7
  8
METAL
 10
115.6879272460936
 20
0.0
 30
17.61720943450928
 70
   192
  0
VERTEX
  5
C8
  8
METAL
 10
115.6879272460936
 20
0.0
 30
17.61720943450928
 70
   192
  0
VERTEX
  5
C9
  8
METAL
 10
115.1338500976561
 20
-5.733821868896484
 30
10.0282754898071
 70
   192
  0
VERTEX
  5
CA
  8
METAL
 10
113.5770568847655
 20
-3.87028694152832
 30
19.83197307586667
 70
   192
  0
VERTEX
  5
CB
  8
METAL
 10
113.5770568847655
 20
-3.87028694152832
 30
19.83197307586667
 70
   192
  0
VERTEX
  5
CC
  8
METAL
 10
113.4125671386718
 20
-4.336172103881836
 30
10.7665319442749
 70
   192
  0
VERTEX
  5
CD
  8
METAL
 10
113.4125671386718
 20
-4.336172103881836
 30
10.7665319442749
 70
   192
  0
VERTEX
  5
CE
  8
METAL
 10
112.8388061523436
 20
-3.870288848876953
 30
12.98129558563232
 70
   192
  0
VERTEX
  5
CF
  8
METAL
 10
112.8388061523436
 20
-3.870288848876953
 30
17.61720943450928
 70
   192
  0
VERTEX
  5
D0
  8
METAL
 10
111.3735961914061
 20
-9.940433502197266
 30
10.0282735824585
 70
   192
  0
VERTEX
  5
D1
  8
METAL
 10
111.3735961914061
 20
-9.940431594848633
 30
20.57022762298581
 70
   192
  0
VERTEX
  5
D2
  8
METAL
 10
109.8777923583983
 20
-8.29054069519043
 30
10.76652812957764
 70
   192
  0
VERTEX
  5
D3
  8
METAL
 10
109.8777923583983
 20
-8.29054069519043
 30
10.76652812957764
 70
   192
  0
VERTEX
  5
D4
  8
METAL
 10
109.8777923583983
 20
-8.290538787841797
 30
19.83197307586667
 70
   192
  0
VERTEX
  5
D5
  8
METAL
 10
109.8777923583983
 20
-8.290538787841797
 30
19.83197307586667
 70
   192
  0
VERTEX
  5
D6
  8
METAL
 10
109.3791961669921
 20
-7.740575790405273
 30
12.98129367828366
 70
   192
  0
VERTEX
  5
D7
  8
METAL
 10
109.3791961669921
 20
-7.740573883056641
 30
17.61720943450928
 70
   192
  0
VERTEX
  5
D8
  8
METAL
 10
105.6895446777343
 20
-14.09817504882812
 30
10.0282754898071
 70
   192
  0
VERTEX
  5
D9
  8
METAL
 10
105.6895446777343
 20
-14.09817218780518
 30
20.57023143768311
 70
   192
  0
VERTEX
  5
DA
  8
METAL
 10
104.4884796142578
 20
-12.23269176483154
 30
10.76653003692624
 70
   192
  0
VERTEX
  5
DB
  8
METAL
 10
104.4884796142578
 20
-12.23269176483154
 30
10.76653003692624
 70
   192
  0
VERTEX
  5
DC
  8
METAL
 10
104.4884643554687
 20
-12.23268985748291
 30
19.83197689056396
 70
   192
  0
VERTEX
  5
DD
  8
METAL
 10
104.4884643554687
 20
-12.23268985748291
 30
19.83197689056396
 70
   192
  0
VERTEX
  5
DE
  8
METAL
 10
104.0881195068359
 20
-11.61086273193359
 30
12.98129558563232
 70
   192
  0
VERTEX
  5
DF
  8
METAL
 10
104.0881195068359
 20
-11.61086273193359
 30
17.61721324920654
 70
   192
  0
VERTEX
  5
E0
  8
METAL
 10
98.38694763183588
 20
-18.20717525482178
 30
10.0282735824585
 70
   192
  0
VERTEX
  5
E1
  8
METAL
 10
98.38694763183582
 20
-18.20717239379883
 30
20.57022762298581
 70
   192
  0
VERTEX
  5
E2
  8
METAL
 10
97.50405883789057
 20
-16.16265678405762
 30
10.76652812957764
 70
   192
  0
VERTEX
  5
E3
  8
METAL
 10
97.50405883789057
 20
-16.16265678405762
 30
10.76652812957764
 70
   192
  0
VERTEX
  5
E4
  8
METAL
 10
97.50405883789057
 20
-16.16265487670898
 30
19.83197307586667
 70
   192
  0
VERTEX
  5
E5
  8
METAL
 10
97.50405883789057
 20
-16.16265487670898
 30
19.83197307586667
 70
   192
  0
VERTEX
  5
E6
  8
METAL
 10
97.20976257324207
 20
-15.48115062713623
 30
12.98129367828366
 70
   192
  0
VERTEX
  5
E7
  8
METAL
 10
97.20976257324207
 20
-15.48114967346191
 30
17.61720561981198
 70
   192
  0
VERTEX
  5
E8
  8
METAL
 10
85.26986694335932
 20
-22.3044581413269
 30
10.02827167510986
 70
   192
  0
VERTEX
  5
E9
  8
METAL
 10
85.26986694335926
 20
-22.30445718765259
 30
20.57022762298581
 70
   192
  0
VERTEX
  5
EA
  8
METAL
 10
84.9320220947265
 20
-20.08969306945801
 30
10.76652812957761
 70
   192
  0
VERTEX
  5
EB
  8
METAL
 10
84.9320220947265
 20
-20.08969306945801
 30
10.76652812957761
 70
   192
  0
VERTEX
  5
EC
  8
METAL
 10
84.9320220947265
 20
-20.08969211578369
 30
19.83197307586667
 70
   192
  0
VERTEX
  5
ED
  8
METAL
 10
84.9320220947265
 20
-20.08969211578369
 30
19.83197307586667
 70
   192
  0
VERTEX
  5
EE
  8
METAL
 10
84.8193969726562
 20
-19.35143756866455
 30
12.98129177093503
 70
   192
  0
VERTEX
  5
EF
  8
METAL
 10
84.8193969726562
 20
-19.35143661499023
 30
17.61720943450925
 70
   192
  0
VERTEX
  5
F0
  8
METAL
 10
-59.50415039062506
 20
-29.43213105201716
 30
12.98129558563227
 70
   192
  0
VERTEX
  5
F1
  8
METAL
 10
-59.50415039062506
 20
-29.43213105201716
 30
17.61720943450922
 70
   192
  0
VERTEX
  5
F2
  8
METAL
 10
-59.50415039062506
 20
-28.69387602806086
 30
10.76652812957758
 70
   192
  0
VERTEX
  5
F3
  8
METAL
 10
-59.50415039062506
 20
-28.69387602806086
 30
10.76652812957758
 70
   192
  0
VERTEX
  5
F4
  8
METAL
 10
-59.50415039062506
 20
-28.69387602806086
 30
19.83197307586664
 70
   192
  0
VERTEX
  5
F5
  8
METAL
 10
-59.50415039062506
 20
-28.69387602806086
 30
19.83197307586664
 70
   192
  0
VERTEX
  5
F6
  8
METAL
 10
-59.50415039062506
 20
-26.47911107540125
 30
10.02827358245844
 70
   192
  0
VERTEX
  5
F7
  8
METAL
 10
-59.50415039062506
 20
-26.47911107540125
 30
20.57022762298578
 70
   192
  0
VERTEX
  5
F8
  8
METAL
 10
-59.50415039062506
 20
-22.30445814132685
 30
10.02827358245844
 70
   192
  0
VERTEX
  5
F9
  8
METAL
 10
-59.50415039062506
 20
-22.30445718765253
 30
20.57022762298578
 70
   192
  0
VERTEX
  5
FA
  8
METAL
 10
-59.50415039062506
 20
-20.08969306945795
 30
10.76652812957758
 70
   192
  0
VERTEX
  5
FB
  8
METAL
 10
-59.50415039062506
 20
-20.08969306945795
 30
10.76652812957758
 70
   192
  0
VERTEX
  5
FC
  8
METAL
 10
-59.50415039062506
 20
-20.08969211578363
 30
19.83197307586664
 70
   192
  0
VERTEX
  5
FD
  8
METAL
 10
-59.50415039062506
 20
-20.08969211578363
 30
19.83197307586664
 70
   192
  0
VERTEX
  5
FE
  8
METAL
 10
-59.50415039062506
 20
-19.35143756866449
 30
12.98129558563227
 70
   192
  0
VERTEX
  5
FF
  8
METAL
 10
-59.50415039062506
 20
-19.35143661499018
 30
17.61720943450922
 70
   192
  0
VERTEX
  5
100
  8
METAL
 10
-65.35415649414068
 20
-29.43213105201716
 30
12.98129558563227
 70
   192
  0
VERTEX
  5
101
  8
METAL
 10
-65.35415649414068
 20
-29.43213105201716
 30
17.61720943450922
 70
   192
  0
VERTEX
  5
102
  8
METAL
 10
-65.35415649414068
 20
-28.69387602806086
 30
10.76652812957758
 70
   192
  0
VERTEX
  5
103
  8
METAL
 10
-65.35415649414068
 20
-28.69387602806086
 30
10.76652812957758
 70
   192
  0
VERTEX
  5
104
  8
METAL
 10
-65.35415649414068
 20
-28.69387602806086
 30
19.83197307586664
 70
   192
  0
VERTEX
  5
105
  8
METAL
 10
-65.35415649414068
 20
-28.69387602806086
 30
19.83197307586664
 70
   192
  0
VERTEX
  5
106
  8
METAL
 10
-65.35415649414068
 20
-26.47911107540125
 30
10.02827358245844
 70
   192
  0
VERTEX
  5
107
  8
METAL
 10
-65.35415649414068
 20
-26.47911107540125
 30
20.57022762298578
 70
   192
  0
VERTEX
  5
108
  8
METAL
 10
-65.35415649414068
 20
-20.75281715393061
 30
10.02827358245844
 70
   192
  0
VERTEX
  5
109
  8
METAL
 10
-65.35415649414068
 20
-20.75281524658197
 30
20.57022762298578
 70
   192
  0
VERTEX
  5
10A
  8
METAL
 10
-65.35415649414068
 20
-18.53805160522455
 30
10.76652812957758
 70
   192
  0
VERTEX
  5
10B
  8
METAL
 10
-65.35415649414068
 20
-18.53805160522455
 30
10.76652812957758
 70
   192
  0
VERTEX
  5
10C
  8
METAL
 10
-65.35415649414068
 20
-18.53804969787592
 30
19.83197307586664
 70
   192
  0
VERTEX
  5
10D
  8
METAL
 10
-65.35415649414068
 20
-18.53804969787592
 30
19.83197307586664
 70
   192
  0
VERTEX
  5
10E
  8
METAL
 10
-65.35415649414068
 20
-17.7997961044311
 30
12.98129558563227
 70
   192
  0
VERTEX
  5
10F
  8
METAL
 10
-65.35415649414068
 20
-17.79979515075678
 30
17.61720943450922
 70
   192
  0
VERTEX
  5
110
  8
METAL
 10
-75.10815429687506
 20
-29.43212997913355
 30
12.98129367828363
 70
   192
  0
VERTEX
  5
111
  8
METAL
 10
-75.10815429687506
 20
-29.43212997913355
 30
17.61720943450922
 70
   192
  0
VERTEX
  5
112
  8
METAL
 10
-75.10815429687506
 20
-28.6938750147819
 30
10.76652812957758
 70
   192
  0
VERTEX
  5
113
  8
METAL
 10
-75.10815429687506
 20
-28.6938750147819
 30
10.76652812957758
 70
   192
  0
VERTEX
  5
114
  8
METAL
 10
-75.10815429687506
 20
-28.6938750147819
 30
19.83197307586664
 70
   192
  0
VERTEX
  5
115
  8
METAL
 10
-75.10815429687506
 20
-28.6938750147819
 30
19.83197307586664
 70
   192
  0
VERTEX
  5
116
  8
METAL
 10
-75.10815429687506
 20
-26.47911000251764
 30
10.02827358245844
 70
   192
  0
VERTEX
  5
117
  8
METAL
 10
-75.10815429687506
 20
-26.47911000251764
 30
20.57022762298578
 70
   192
  0
VERTEX
  5
118
  8
METAL
 10
-75.10815429687506
 20
-16.6392393112182
 30
10.02827358245844
 70
   192
  0
VERTEX
  5
119
  8
METAL
 10
-75.10815429687506
 20
-16.63923835754389
 30
20.57023143768305
 70
   192
  0
VERTEX
  5
11A
  8
METAL
 10
-75.10815429687506
 20
-14.42447376251215
 30
10.76652812957758
 70
   192
  0
VERTEX
  5
11B
  8
METAL
 10
-75.10815429687506
 20
-14.42447376251215
 30
10.76652812957758
 70
   192
  0
VERTEX
  5
11C
  8
METAL
 10
-75.10815429687506
 20
-14.42447280883783
 30
19.83197689056391
 70
   192
  0
VERTEX
  5
11D
  8
METAL
 10
-75.10815429687506
 20
-14.42447280883783
 30
19.83197689056391
 70
   192
  0
VERTEX
  5
11E
  8
METAL
 10
-75.10815429687506
 20
-13.68621921539304
 30
12.98129367828363
 70
   192
  0
VERTEX
  5
11F
  8
METAL
 10
-75.10815429687506
 20
-13.68621826171872
 30
17.61720943450922
 70
   192
  0
VERTEX
  5
120
  8
METAL
 10
-81.3120727539063
 20
-29.43212997913355
 30
12.98129367828363
 70
   192
  0
VERTEX
  5
121
  8
METAL
 10
-81.3120727539063
 20
-29.43212997913355
 30
17.61720943450922
 70
   192
  0
VERTEX
  5
122
  8
METAL
 10
-81.3120727539063
 20
-28.6938750147819
 30
10.76652812957758
 70
   192
  0
VERTEX
  5
123
  8
METAL
 10
-81.3120727539063
 20
-28.6938750147819
 30
10.76652812957758
 70
   192
  0
VERTEX
  5
124
  8
METAL
 10
-81.3120727539063
 20
-28.6938750147819
 30
19.83197307586664
 70
   192
  0
VERTEX
  5
125
  8
METAL
 10
-81.3120727539063
 20
-28.6938750147819
 30
19.83197307586664
 70
   192
  0
VERTEX
  5
126
  8
METAL
 10
-81.3120727539063
 20
-26.47911000251764
 30
10.02827358245844
 70
   192
  0
VERTEX
  5
127
  8
METAL
 10
-81.3120727539063
 20
-26.47911000251764
 30
20.57022762298578
 70
   192
  0
VERTEX
  5
128
  8
METAL
 10
-81.3120727539063
 20
-12.58726406097409
 30
10.02827358245844
 70
   192
  0
VERTEX
  5
129
  8
METAL
 10
-81.3120727539063
 20
-12.58726310729975
 30
20.57022762298578
 70
   192
  0
VERTEX
  5
12A
  8
METAL
 10
-81.3120727539063
 20
-10.37249946594235
 30
10.76652812957758
 70
   192
  0
VERTEX
  5
12B
  8
METAL
 10
-81.3120727539063
 20
-10.37249946594235
 30
10.76652812957758
 70
   192
  0
VERTEX
  5
12C
  8
METAL
 10
-81.3120727539063
 20
-10.37249755859372
 30
19.83197307586664
 70
   192
  0
VERTEX
  5
12D
  8
METAL
 10
-81.3120727539063
 20
-10.37249755859372
 30
19.83197307586664
 70
   192
  0
VERTEX
  5
12E
  8
METAL
 10
-81.3120727539063
 20
-9.634243011474581
 30
12.98129367828363
 70
   192
  0
VERTEX
  5
12F
  8
METAL
 10
-81.3120727539063
 20
-9.634243011474581
 30
17.61720943450922
 70
   192
  0
VERTEX
  5
130
  8
METAL
 10
-85.7567749023438
 20
-29.43212997913355
 30
12.98129367828363
 70
   192
  0
VERTEX
  5
131
  8
METAL
 10
-85.7567749023438
 20
-29.43212997913355
 30
17.61720943450922
 70
   192
  0
VERTEX
  5
132
  8
METAL
 10
-85.7567749023438
 20
-28.6938750147819
 30
10.76652812957758
 70
   192
  0
VERTEX
  5
133
  8
METAL
 10
-85.7567749023438
 20
-28.6938750147819
 30
10.76652812957758
 70
   192
  0
VERTEX
  5
134
  8
METAL
 10
-85.7567749023438
 20
-28.6938750147819
 30
19.83197307586664
 70
   192
  0
VERTEX
  5
135
  8
METAL
 10
-85.7567749023438
 20
-28.6938750147819
 30
19.83197307586664
 70
   192
  0
VERTEX
  5
136
  8
METAL
 10
-85.7567749023438
 20
-26.47911000251764
 30
10.02827358245844
 70
   192
  0
VERTEX
  5
137
  8
METAL
 10
-85.7567749023438
 20
-26.47911000251764
 30
20.57022762298578
 70
   192
  0
VERTEX
  5
138
  8
METAL
 10
-85.7567749023438
 20
-8.595954895019503
 30
10.02827358245844
 70
   192
  0
VERTEX
  5
139
  8
METAL
 10
-85.7567749023438
 20
-8.595954895019503
 30
20.57022762298578
 70
   192
  0
VERTEX
  5
13A
  8
METAL
 10
-85.7567749023438
 20
-6.381191253662081
 30
10.76652812957758
 70
   192
  0
VERTEX
  5
13B
  8
METAL
 10
-85.7567749023438
 20
-6.381191253662081
 30
10.76652812957758
 70
   192
  0
VERTEX
  5
13C
  8
METAL
 10
-85.7567749023438
 20
-6.381191253662081
 30
19.83197307586664
 70
   192
  0
VERTEX
  5
13D
  8
METAL
 10
-85.7567749023438
 20
-6.381191253662081
 30
19.83197307586664
 70
   192
  0
VERTEX
  5
13E
  8
METAL
 10
-85.7567749023438
 20
-5.64293670654294
 30
12.98129367828363
 70
   192
  0
VERTEX
  5
13F
  8
METAL
 10
-85.7567749023438
 20
-5.642934799194279
 30
17.61720943450922
 70
   192
  0
VERTEX
  5
140
  8
METAL
 10
-90.20144653320318
 20
-29.43212902545923
 30
12.981291770935
 70
   192
  0
VERTEX
  5
141
  8
METAL
 10
-90.20144653320318
 20
-29.43212902545923
 30
17.61720943450922
 70
   192
  0
VERTEX
  5
142
  8
METAL
 10
-90.20144653320318
 20
-28.69387400150293
 30
10.76652812957758
 70
   192
  0
VERTEX
  5
143
  8
METAL
 10
-90.20144653320318
 20
-28.69387400150293
 30
10.76652812957758
 70
   192
  0
VERTEX
  5
144
  8
METAL
 10
-90.20144653320318
 20
-28.69387400150293
 30
19.83197307586664
 70
   192
  0
VERTEX
  5
145
  8
METAL
 10
-90.20144653320318
 20
-28.69387400150293
 30
19.83197307586664
 70
   192
  0
VERTEX
  5
146
  8
METAL
 10
-90.20144653320318
 20
-26.47910904884333
 30
10.02827358245844
 70
   192
  0
VERTEX
  5
147
  8
METAL
 10
-90.20144653320318
 20
-26.47910904884333
 30
20.57022762298578
 70
   192
  0
VERTEX
  5
148
  8
METAL
 10
-90.20144653320318
 20
-3.360647201538029
 30
10.02827358245844
 70
   192
  0
VERTEX
  5
149
  8
METAL
 10
-90.20144653320318
 20
-3.360647201538029
 30
20.57022762298578
 70
   192
  0
VERTEX
  5
14A
  8
METAL
 10
-90.20144653320318
 20
-1.145881652831974
 30
10.76652812957758
 70
   192
  0
VERTEX
  5
14B
  8
METAL
 10
-90.20144653320318
 20
-1.145881652831974
 30
10.76652812957758
 70
   192
  0
VERTEX
  5
14C
  8
METAL
 10
-90.20144653320318
 20
-1.145881652831974
 30
10.76652812957758
 70
   192
  0
VERTEX
  5
14D
  8
METAL
 10
-90.20144653320318
 20
-1.145881652831974
 30
19.83197307586664
 70
   192
  0
VERTEX
  5
14E
  8
METAL
 10
-90.20144653320318
 20
-1.145881652831974
 30
19.83197307586664
 70
   192
  0
VERTEX
  5
14F
  8
METAL
 10
-90.20144653320318
 20
-1.145881652831974
 30
19.83197307586664
 70
   192
  0
VERTEX
  5
150
  8
METAL
 10
-90.20144653320318
 20
-0.4076271057128338
 30
12.981291770935
 70
   192
  0
VERTEX
  5
151
  8
METAL
 10
-90.20144653320318
 20
-0.4076271057128338
 30
12.981291770935
 70
   192
  0
VERTEX
  5
152
  8
METAL
 10
-90.20144653320318
 20
-0.4076271057128338
 30
17.61720943450922
 70
   192
  0
VERTEX
  5
153
  8
METAL
 10
-90.20144653320318
 20
-0.4076271057128338
 30
17.61720943450922
 70
   192
  0
VERTEX
  5
154
  8
METAL
 10
-127.0469665527344
 20
-26.47911000251764
 30
10.02827358245844
 70
   192
  0
VERTEX
  5
155
  8
METAL
 10
-127.0469665527344
 20
-26.47911000251764
 30
20.57022762298578
 70
   192
  0
VERTEX
  5
156
  8
METAL
 10
-127.0469665527344
 20
-3.360649108886662
 30
10.02827358245844
 70
   192
  0
VERTEX
  5
157
  8
METAL
 10
-127.0469665527344
 20
-3.360649108886662
 30
20.57022762298578
 70
   192
  0
VERTEX
  5
158
  8
METAL
 10
-129.2617492675782
 20
-28.6938750147819
 30
10.76652812957758
 70
   192
  0
VERTEX
  5
159
  8
METAL
 10
-129.2617492675782
 20
-28.6938750147819
 30
10.76652812957758
 70
   192
  0
VERTEX
  5
15A
  8
METAL
 10
-129.2617492675782
 20
-28.6938750147819
 30
10.76652812957758
 70
   192
  0
VERTEX
  5
15B
  8
METAL
 10
-129.2617492675782
 20
-28.6938750147819
 30
19.83197307586664
 70
   192
  0
VERTEX
  5
15C
  8
METAL
 10
-129.2617492675782
 20
-28.6938750147819
 30
19.83197307586664
 70
   192
  0
VERTEX
  5
15D
  8
METAL
 10
-129.2617492675782
 20
-28.6938750147819
 30
19.83197307586664
 70
   192
  0
VERTEX
  5
15E
  8
METAL
 10
-129.2617492675782
 20
-1.145881652831974
 30
10.76652812957758
 70
   192
  0
VERTEX
  5
15F
  8
METAL
 10
-129.2617492675782
 20
-1.145881652831974
 30
10.76652812957758
 70
   192
  0
VERTEX
  5
160
  8
METAL
 10
-129.2617492675782
 20
-1.145881652831974
 30
10.76652812957758
 70
   192
  0
VERTEX
  5
161
  8
METAL
 10
-129.2617492675782
 20
-1.145881652831974
 30
19.83197307586664
 70
   192
  0
VERTEX
  5
162
  8
METAL
 10
-129.2617492675782
 20
-1.145881652831974
 30
19.83197307586664
 70
   192
  0
VERTEX
  5
163
  8
METAL
 10
-129.2617492675782
 20
-1.145881652831974
 30
19.83197307586664
 70
   192
  0
VERTEX
  5
164
  8
METAL
 10
-130.0
 20
-29.43212997913355
 30
12.98129367828363
 70
   192
  0
VERTEX
  5
165
  8
METAL
 10
-130.0
 20
-29.43212997913355
 30
12.98129367828363
 70
   192
  0
VERTEX
  5
166
  8
METAL
 10
-130.0
 20
-29.43212997913355
 30
17.61720943450922
 70
   192
  0
VERTEX
  5
167
  8
METAL
 10
-130.0
 20
-29.43212997913355
 30
17.61720943450922
 70
   192
  0
VERTEX
  5
168
  8
METAL
 10
-130.0
 20
-0.4076271057128338
 30
12.98129367828363
 70
   192
  0
VERTEX
  5
169
  8
METAL
 10
-130.0
 20
-0.4076271057128338
 30
12.98129367828363
 70
   192
  0
VERTEX
  5
16A
  8
METAL
 10
-130.0
 20
-0.4076271057128338
 30
17.61720943450922
 70
   192
  0
VERTEX
  5
16B
  8
METAL
 10
-130.0
 20
-0.4076271057128338
 30
17.61720943450922
 70
   192
  0
VERTEX
  5
16C
  8
METAL
 10
0.0
 20
0.0
 30
0.0
 70
   128
 71
   162
 72
   163
 73
   155
 74
   154
  0
VERTEX
  5
16D
  8
METAL
 10
0.0
 20
0.0
 30
0.0
 70
   128
 71
    16
 72
    15
 73
    19
 74
    20
  0
VERTEX
  5
16E
  8
METAL
 10
0.0
 20
0.0
 30
0.0
 70
   128
 71
   173
 72
   189
 73
   187
 74
   125
  0
VERTEX
  5
16F
  8
METAL
 10
0.0
 20
0.0
 30
0.0
 70
   128
 71
   187
 72
   118
 73
   125
 74
   125
  0
VERTEX
  5
170
  8
METAL
 10
0.0
 20
0.0
 30
0.0
 70
   128
 71
   165
 72
   173
 73
   125
 74
   112
  0
VERTEX
  5
171
  8
METAL
 10
0.0
 20
0.0
 30
0.0
 70
   128
 71
   157
 72
   165
 73
   112
 74
   107
  0
VERTEX
  5
172
  8
METAL
 10
0.0
 20
0.0
 30
0.0
 70
   128
 71
   149
 72
   157
 73
   107
 74
   102
  0
VERTEX
  5
173
  8
METAL
 10
0.0
 20
0.0
 30
0.0
 70
   128
 71
   102
 72
    97
 73
   136
 74
   149
  0
VERTEX
  5
174
  8
METAL
 10
0.0
 20
0.0
 30
0.0
 70
   128
 71
   181
 72
   180
 73
    76
 74
   113
  0
VERTEX
  5
175
  8
METAL
 10
0.0
 20
0.0
 30
0.0
 70
   128
 71
    78
 72
    61
 73
    59
 74
    76
  0
VERTEX
  5
176
  8
METAL
 10
0.0
 20
0.0
 30
0.0
 70
   128
 71
    59
 72
    60
 73
   113
 74
    76
  0
VERTEX
  5
177
  8
METAL
 10
0.0
 20
0.0
 30
0.0
 70
   128
 71
   137
 72
   139
 73
   133
 74
   129
  0
VERTEX
  5
178
  8
METAL
 10
0.0
 20
0.0
 30
0.0
 70
   128
 71
   129
 72
    92
 73
    89
 74
   137
  0
VERTEX
  5
179
  8
METAL
 10
0.0
 20
0.0
 30
0.0
 70
   128
 71
   130
 72
   137
 73
    89
 74
   126
  0
VERTEX
  5
17A
  8
METAL
 10
0.0
 20
0.0
 30
0.0
 70
   128
 71
     4
 72
     3
 73
     7
 74
     8
  0
VERTEX
  5
17B
  8
METAL
 10
0.0
 20
0.0
 30
0.0
 70
   128
 71
   127
 72
    88
 73
    95
 74
   141
  0
VERTEX
  5
17C
  8
METAL
 10
0.0
 20
0.0
 30
0.0
 70
   128
 71
   141
 72
    95
 73
   100
 74
   148
  0
VERTEX
  5
17D
  8
METAL
 10
0.0
 20
0.0
 30
0.0
 70
   128
 71
   148
 72
   100
 73
   105
 74
   156
  0
VERTEX
  5
17E
  8
METAL
 10
0.0
 20
0.0
 30
0.0
 70
   128
 71
   156
 72
   105
 73
   110
 74
   164
  0
VERTEX
  5
17F
  8
METAL
 10
0.0
 20
0.0
 30
0.0
 70
   128
 71
   186
 72
   188
 73
   172
 74
   116
  0
VERTEX
  5
180
  8
METAL
 10
0.0
 20
0.0
 30
0.0
 70
   128
 71
   123
 72
   116
 73
   172
 74
   164
  0
VERTEX
  5
181
  8
METAL
 10
0.0
 20
0.0
 30
0.0
 70
   128
 71
   110
 72
   123
 73
   164
 74
   164
  0
VERTEX
  5
182
  8
METAL
 10
0.0
 20
0.0
 30
0.0
 70
   128
 71
   178
 72
   179
 73
   171
 74
   170
  0
VERTEX
  5
183
  8
METAL
 10
0.0
 20
0.0
 30
0.0
 70
   128
 71
   170
 72
   171
 73
   163
 74
   162
  0
VERTEX
  5
184
  8
METAL
 10
0.0
 20
0.0
 30
0.0
 70
   128
 71
   140
 72
   138
 73
   146
 74
   147
  0
VERTEX
  5
185
  8
METAL
 10
0.0
 20
0.0
 30
0.0
 70
   128
 71
   147
 72
   146
 73
   154
 74
   155
  0
VERTEX
  5
186
  8
METAL
 10
0.0
 20
0.0
 30
0.0
 70
   128
 71
     8
 72
     7
 73
    11
 74
    12
  0
VERTEX
  5
187
  8
METAL
 10
0.0
 20
0.0
 30
0.0
 70
   128
 71
    12
 72
    11
 73
    15
 74
    16
  0
VERTEX
  5
188
  8
METAL
 10
0.0
 20
0.0
 30
0.0
 70
   128
 71
    25
 72
    28
 73
    22
 74
    21
  0
VERTEX
  5
189
  8
METAL
 10
0.0
 20
0.0
 30
0.0
 70
   128
 71
    21
 72
    22
 73
    20
 74
    19
  0
VERTEX
  5
18A
  8
METAL
 10
0.0
 20
0.0
 30
0.0
 70
   128
 71
    70
 72
    74
 73
    91
 74
    97
  0
VERTEX
  5
18B
  8
METAL
 10
0.0
 20
0.0
 30
0.0
 70
   128
 71
    69
 72
    70
 73
    97
 74
   102
  0
VERTEX
  5
18C
  8
METAL
 10
0.0
 20
0.0
 30
0.0
 70
   128
 71
     6
 72
   121
 73
   108
 74
    10
  0
VERTEX
  5
18D
  8
METAL
 10
0.0
 20
0.0
 30
0.0
 70
   128
 71
    10
 72
   108
 73
   103
 74
    14
  0
VERTEX
  5
18E
  8
METAL
 10
0.0
 20
0.0
 30
0.0
 70
   128
 71
   179
 72
   178
 73
   194
 74
   195
  0
VERTEX
  5
18F
  8
METAL
 10
0.0
 20
0.0
 30
0.0
 70
   128
 71
    68
 72
    69
 73
   102
 74
   107
  0
VERTEX
  5
190
  8
METAL
 10
0.0
 20
0.0
 30
0.0
 70
   128
 71
     6
 72
     2
 73
    35
 74
    62
  0
VERTEX
  5
191
  8
METAL
 10
0.0
 20
0.0
 30
0.0
 70
   128
 71
    62
 72
    77
 73
    82
 74
   119
  0
VERTEX
  5
192
  8
METAL
 10
0.0
 20
0.0
 30
0.0
 70
   128
 71
     6
 72
    62
 73
   119
 74
   121
  0
VERTEX
  5
193
  8
METAL
 10
0.0
 20
0.0
 30
0.0
 70
   128
 71
    75
 72
    71
 73
    89
 74
    92
  0
VERTEX
  5
194
  8
METAL
 10
0.0
 20
0.0
 30
0.0
 70
   128
 71
    65
 72
    66
 73
   125
 74
   118
  0
VERTEX
  5
195
  8
METAL
 10
0.0
 20
0.0
 30
0.0
 70
   128
 71
    98
 72
    18
 73
    14
 74
   103
  0
VERTEX
  5
196
  8
METAL
 10
0.0
 20
0.0
 30
0.0
 70
   128
 71
    66
 72
    67
 73
   112
 74
   125
  0
VERTEX
  5
197
  8
METAL
 10
0.0
 20
0.0
 30
0.0
 70
   128
 71
    67
 72
    68
 73
   107
 74
   112
  0
VERTEX
  5
198
  8
METAL
 10
0.0
 20
0.0
 30
0.0
 70
   128
 71
   128
 72
   136
 73
    97
 74
    91
  0
VERTEX
  5
199
  8
METAL
 10
0.0
 20
0.0
 30
0.0
 70
   128
 71
    85
 72
    72
 73
    55
 74
    27
  0
VERTEX
  5
19A
  8
METAL
 10
0.0
 20
0.0
 30
0.0
 70
   128
 71
    85
 72
    27
 73
    24
 74
    93
  0
VERTEX
  5
19B
  8
METAL
 10
0.0
 20
0.0
 30
0.0
 70
   128
 71
    93
 72
    24
 73
    18
 74
    98
  0
VERTEX
  5
19C
  8
METAL
 10
0.0
 20
0.0
 30
0.0
 70
   128
 71
     7
 72
     3
 73
     1
 74
     5
  0
VERTEX
  5
19D
  8
METAL
 10
0.0
 20
0.0
 30
0.0
 70
   128
 71
   117
 72
   124
 73
   122
 74
   120
  0
VERTEX
  5
19E
  8
METAL
 10
0.0
 20
0.0
 30
0.0
 70
   128
 71
   124
 72
   111
 73
   109
 74
   122
  0
VERTEX
  5
19F
  8
METAL
 10
0.0
 20
0.0
 30
0.0
 70
   128
 71
   111
 72
   106
 73
   104
 74
   109
  0
VERTEX
  5
1A0
  8
METAL
 10
0.0
 20
0.0
 30
0.0
 70
   128
 71
   106
 72
   101
 73
    99
 74
   104
  0
VERTEX
  5
1A1
  8
METAL
 10
0.0
 20
0.0
 30
0.0
 70
   128
 71
   101
 72
    96
 73
    94
 74
    99
  0
VERTEX
  5
1A2
  8
METAL
 10
0.0
 20
0.0
 30
0.0
 70
   128
 71
    96
 72
    90
 73
    87
 74
    94
  0
VERTEX
  5
1A3
  8
METAL
 10
0.0
 20
0.0
 30
0.0
 70
   128
 71
    89
 72
    71
 73
    73
 74
    86
  0
VERTEX
  5
1A4
  8
METAL
 10
0.0
 20
0.0
 30
0.0
 70
   128
 71
    25
 72
    21
 73
    23
 74
    26
  0
VERTEX
  5
1A5
  8
METAL
 10
0.0
 20
0.0
 30
0.0
 70
   128
 71
    21
 72
    19
 73
    17
 74
    23
  0
VERTEX
  5
1A6
  8
METAL
 10
0.0
 20
0.0
 30
0.0
 70
   128
 71
    19
 72
    15
 73
    13
 74
    17
  0
VERTEX
  5
1A7
  8
METAL
 10
0.0
 20
0.0
 30
0.0
 70
   128
 71
    15
 72
    11
 73
     9
 74
    13
  0
VERTEX
  5
1A8
  8
METAL
 10
0.0
 20
0.0
 30
0.0
 70
   128
 71
    11
 72
     7
 73
     5
 74
     9
  0
VERTEX
  5
1A9
  8
METAL
 10
0.0
 20
0.0
 30
0.0
 70
   128
 71
   180
 72
   181
 73
   197
 74
   196
  0
VERTEX
  5
1AA
  8
METAL
 10
0.0
 20
0.0
 30
0.0
 70
   128
 71
   187
 72
   189
 73
   205
 74
   203
  0
VERTEX
  5
1AB
  8
METAL
 10
0.0
 20
0.0
 30
0.0
 70
   128
 71
   188
 72
   186
 73
   202
 74
   204
  0
VERTEX
  5
1AC
  8
METAL
 10
0.0
 20
0.0
 30
0.0
 70
   128
 71
   195
 72
   194
 73
   210
 74
   211
  0
VERTEX
  5
1AD
  8
METAL
 10
0.0
 20
0.0
 30
0.0
 70
   128
 71
   196
 72
   197
 73
   213
 74
   212
  0
VERTEX
  5
1AE
  8
METAL
 10
0.0
 20
0.0
 30
0.0
 70
   128
 71
   203
 72
   205
 73
   221
 74
   219
  0
VERTEX
  5
1AF
  8
METAL
 10
0.0
 20
0.0
 30
0.0
 70
   128
 71
   204
 72
   202
 73
   218
 74
   220
  0
VERTEX
  5
1B0
  8
METAL
 10
0.0
 20
0.0
 30
0.0
 70
   128
 71
   211
 72
   210
 73
   226
 74
   227
  0
VERTEX
  5
1B1
  8
METAL
 10
0.0
 20
0.0
 30
0.0
 70
   128
 71
   212
 72
   213
 73
   229
 74
   228
  0
VERTEX
  5
1B2
  8
METAL
 10
0.0
 20
0.0
 30
0.0
 70
   128
 71
   219
 72
   221
 73
   237
 74
   235
  0
VERTEX
  5
1B3
  8
METAL
 10
0.0
 20
0.0
 30
0.0
 70
   128
 71
   220
 72
   218
 73
   234
 74
   236
  0
VERTEX
  5
1B4
  8
METAL
 10
0.0
 20
0.0
 30
0.0
 70
   128
 71
   227
 72
   226
 73
   242
 74
   243
  0
VERTEX
  5
1B5
  8
METAL
 10
0.0
 20
0.0
 30
0.0
 70
   128
 71
   229
 72
   245
 73
   244
 74
   228
  0
VERTEX
  5
1B6
  8
METAL
 10
0.0
 20
0.0
 30
0.0
 70
   128
 71
   237
 72
   253
 73
   251
 74
   235
  0
VERTEX
  5
1B7
  8
METAL
 10
0.0
 20
0.0
 30
0.0
 70
   128
 71
   236
 72
   234
 73
   250
 74
   252
  0
VERTEX
  5
1B8
  8
METAL
 10
0.0
 20
0.0
 30
0.0
 70
   128
 71
   242
 72
   258
 73
   259
 74
   243
  0
VERTEX
  5
1B9
  8
METAL
 10
0.0
 20
0.0
 30
0.0
 70
   128
 71
   261
 72
   260
 73
   244
 74
   245
  0
VERTEX
  5
1BA
  8
METAL
 10
0.0
 20
0.0
 30
0.0
 70
   128
 71
   253
 72
   269
 73
   267
 74
   251
  0
VERTEX
  5
1BB
  8
METAL
 10
0.0
 20
0.0
 30
0.0
 70
   128
 71
   266
 72
   268
 73
   252
 74
   250
  0
VERTEX
  5
1BC
  8
METAL
 10
0.0
 20
0.0
 30
0.0
 70
   128
 71
   276
 72
   278
 73
   259
 74
   258
  0
VERTEX
  5
1BD
  8
METAL
 10
0.0
 20
0.0
 30
0.0
 70
   128
 71
   260
 72
   261
 73
   298
 74
   296
  0
VERTEX
  5
1BE
  8
METAL
 10
0.0
 20
0.0
 30
0.0
 70
   128
 71
   267
 72
   269
 73
   283
 74
   281
  0
VERTEX
  5
1BF
  8
METAL
 10
0.0
 20
0.0
 30
0.0
 70
   128
 71
   268
 72
   266
 73
   280
 74
   282
  0
VERTEX
  5
1C0
  8
METAL
 10
0.0
 20
0.0
 30
0.0
 70
   128
 71
   279
 72
   277
 73
   300
 74
   302
  0
VERTEX
  5
1C1
  8
METAL
 10
0.0
 20
0.0
 30
0.0
 70
   128
 71
   303
 72
   301
 73
   297
 74
   299
  0
VERTEX
  5
1C2
  8
METAL
 10
0.0
 20
0.0
 30
0.0
 70
   128
 71
     4
 72
    36
 73
    31
 74
    31
  0
VERTEX
  5
1C3
  8
METAL
 10
0.0
 20
0.0
 30
0.0
 70
   128
 71
   145
 72
   146
 73
   138
 74
   132
  0
VERTEX
  5
1C4
  8
METAL
 10
0.0
 20
0.0
 30
0.0
 70
   128
 71
    49
 72
    22
 73
    28
 74
    56
  0
VERTEX
  5
1C5
  8
METAL
 10
0.0
 20
0.0
 30
0.0
 70
   128
 71
    29
 72
     3
 73
     4
 74
    31
  0
VERTEX
  5
1C6
  8
METAL
 10
0.0
 20
0.0
 30
0.0
 70
   128
 71
    56
 72
    28
 73
    25
 74
    51
  0
VERTEX
  5
1C7
  8
METAL
 10
0.0
 20
0.0
 30
0.0
 70
   128
 71
   115
 72
   118
 73
   187
 74
   185
  0
VERTEX
  5
1C8
  8
METAL
 10
0.0
 20
0.0
 30
0.0
 70
   128
 71
   169
 72
   171
 73
   179
 74
   176
  0
VERTEX
  5
1C9
  8
METAL
 10
0.0
 20
0.0
 30
0.0
 70
   128
 71
    39
 72
     4
 73
     8
 74
    41
  0
VERTEX
  5
1CA
  8
METAL
 10
0.0
 20
0.0
 30
0.0
 70
   128
 71
   151
 72
   154
 73
   146
 74
   145
  0
VERTEX
  5
1CB
  8
METAL
 10
0.0
 20
0.0
 30
0.0
 70
   128
 71
   159
 72
   162
 73
   154
 74
   151
  0
VERTEX
  5
1CC
  8
METAL
 10
0.0
 20
0.0
 30
0.0
 70
   128
 71
   167
 72
   170
 73
   162
 74
   159
  0
VERTEX
  5
1CD
  8
METAL
 10
0.0
 20
0.0
 30
0.0
 70
   128
 71
   175
 72
   178
 73
   170
 74
   167
  0
VERTEX
  5
1CE
  8
METAL
 10
0.0
 20
0.0
 30
0.0
 70
   128
 71
    47
 72
    20
 73
    22
 74
    49
  0
VERTEX
  5
1CF
  8
METAL
 10
0.0
 20
0.0
 30
0.0
 70
   128
 71
    45
 72
    16
 73
    20
 74
    47
  0
VERTEX
  5
1D0
  8
METAL
 10
0.0
 20
0.0
 30
0.0
 70
   128
 71
    43
 72
    12
 73
    16
 74
    45
  0
VERTEX
  5
1D1
  8
METAL
 10
0.0
 20
0.0
 30
0.0
 70
   128
 71
    41
 72
     8
 73
    12
 74
    43
  0
VERTEX
  5
1D2
  8
METAL
 10
0.0
 20
0.0
 30
0.0
 70
   128
 71
   161
 72
   163
 73
   171
 74
   169
  0
VERTEX
  5
1D3
  8
METAL
 10
0.0
 20
0.0
 30
0.0
 70
   128
 71
   153
 72
   155
 73
   163
 74
   161
  0
VERTEX
  5
1D4
  8
METAL
 10
0.0
 20
0.0
 30
0.0
 70
   128
 71
   143
 72
   147
 73
   155
 74
   153
  0
VERTEX
  5
1D5
  8
METAL
 10
0.0
 20
0.0
 30
0.0
 70
   128
 71
   135
 72
   140
 73
   147
 74
   143
  0
VERTEX
  5
1D6
  8
METAL
 10
0.0
 20
0.0
 30
0.0
 70
   128
 71
   183
 72
   186
 73
   116
 74
    80
  0
VERTEX
  5
1D7
  8
METAL
 10
0.0
 20
0.0
 30
0.0
 70
   128
 71
   190
 72
   194
 73
   178
 74
   175
  0
VERTEX
  5
1D8
  8
METAL
 10
0.0
 20
0.0
 30
0.0
 70
   128
 71
   193
 72
   189
 73
   173
 74
   177
  0
VERTEX
  5
1D9
  8
METAL
 10
0.0
 20
0.0
 30
0.0
 70
   128
 71
    64
 72
    65
 73
   118
 74
   115
  0
VERTEX
  5
1DA
  8
METAL
 10
0.0
 20
0.0
 30
0.0
 70
   128
 71
    33
 72
     1
 73
     3
 74
    29
  0
VERTEX
  5
1DB
  8
METAL
 10
0.0
 20
0.0
 30
0.0
 70
   128
 71
    83
 72
    78
 73
    76
 74
    79
  0
VERTEX
  5
1DC
  8
METAL
 10
0.0
 20
0.0
 30
0.0
 70
   128
 71
    54
 72
    73
 73
    71
 74
    52
  0
VERTEX
  5
1DD
  8
METAL
 10
0.0
 20
0.0
 30
0.0
 70
   128
 71
   200
 72
   197
 73
   181
 74
   184
  0
VERTEX
  5
1DE
  8
METAL
 10
0.0
 20
0.0
 30
0.0
 70
   128
 71
   199
 72
   202
 73
   186
 74
   183
  0
VERTEX
  5
1DF
  8
METAL
 10
0.0
 20
0.0
 30
0.0
 70
   128
 71
   206
 72
   210
 73
   194
 74
   190
  0
VERTEX
  5
1E0
  8
METAL
 10
0.0
 20
0.0
 30
0.0
 70
   128
 71
   209
 72
   205
 73
   189
 74
   193
  0
VERTEX
  5
1E1
  8
METAL
 10
0.0
 20
0.0
 30
0.0
 70
   128
 71
   216
 72
   213
 73
   197
 74
   200
  0
VERTEX
  5
1E2
  8
METAL
 10
0.0
 20
0.0
 30
0.0
 70
   128
 71
   215
 72
   218
 73
   202
 74
   199
  0
VERTEX
  5
1E3
  8
METAL
 10
0.0
 20
0.0
 30
0.0
 70
   128
 71
   222
 72
   226
 73
   210
 74
   206
  0
VERTEX
  5
1E4
  8
METAL
 10
0.0
 20
0.0
 30
0.0
 70
   128
 71
   225
 72
   221
 73
   205
 74
   209
  0
VERTEX
  5
1E5
  8
METAL
 10
0.0
 20
0.0
 30
0.0
 70
   128
 71
   232
 72
   229
 73
   213
 74
   216
  0
VERTEX
  5
1E6
  8
METAL
 10
0.0
 20
0.0
 30
0.0
 70
   128
 71
   231
 72
   234
 73
   218
 74
   215
  0
VERTEX
  5
1E7
  8
METAL
 10
0.0
 20
0.0
 30
0.0
 70
   128
 71
   238
 72
   242
 73
   226
 74
   222
  0
VERTEX
  5
1E8
  8
METAL
 10
0.0
 20
0.0
 30
0.0
 70
   128
 71
   241
 72
   237
 73
   221
 74
   225
  0
VERTEX
  5
1E9
  8
METAL
 10
0.0
 20
0.0
 30
0.0
 70
   128
 71
   248
 72
   245
 73
   229
 74
   232
  0
VERTEX
  5
1EA
  8
METAL
 10
0.0
 20
0.0
 30
0.0
 70
   128
 71
   247
 72
   250
 73
   234
 74
   231
  0
VERTEX
  5
1EB
  8
METAL
 10
0.0
 20
0.0
 30
0.0
 70
   128
 71
   254
 72
   258
 73
   242
 74
   238
  0
VERTEX
  5
1EC
  8
METAL
 10
0.0
 20
0.0
 30
0.0
 70
   128
 71
   257
 72
   253
 73
   237
 74
   241
  0
VERTEX
  5
1ED
  8
METAL
 10
0.0
 20
0.0
 30
0.0
 70
   128
 71
   264
 72
   261
 73
   245
 74
   248
  0
VERTEX
  5
1EE
  8
METAL
 10
0.0
 20
0.0
 30
0.0
 70
   128
 71
   263
 72
   266
 73
   250
 74
   247
  0
VERTEX
  5
1EF
  8
METAL
 10
0.0
 20
0.0
 30
0.0
 70
   128
 71
   270
 72
   276
 73
   258
 74
   254
  0
VERTEX
  5
1F0
  8
METAL
 10
0.0
 20
0.0
 30
0.0
 70
   128
 71
   274
 72
   269
 73
   253
 74
   257
  0
VERTEX
  5
1F1
  8
METAL
 10
0.0
 20
0.0
 30
0.0
 70
   128
 71
   287
 72
   298
 73
   261
 74
   264
  0
VERTEX
  5
1F2
  8
METAL
 10
0.0
 20
0.0
 30
0.0
 70
   128
 71
   285
 72
   280
 73
   266
 74
   263
  0
VERTEX
  5
1F3
  8
METAL
 10
0.0
 20
0.0
 30
0.0
 70
   128
 71
   290
 72
   300
 73
   277
 74
   272
  0
VERTEX
  5
1F4
  8
METAL
 10
0.0
 20
0.0
 30
0.0
 70
   128
 71
   293
 72
   283
 73
   269
 74
   274
  0
VERTEX
  5
1F5
  8
METAL
 10
0.0
 20
0.0
 30
0.0
 70
   128
 71
   288
 72
   281
 73
   283
 74
   293
  0
VERTEX
  5
1F6
  8
METAL
 10
0.0
 20
0.0
 30
0.0
 70
   128
 71
   291
 72
   282
 73
   280
 74
   285
  0
VERTEX
  5
1F7
  8
METAL
 10
0.0
 20
0.0
 30
0.0
 70
   128
 71
     4
 72
    39
 73
    36
 74
    36
  0
VERTEX
  5
1F8
  8
METAL
 10
0.0
 20
0.0
 30
0.0
 70
   128
 71
    64
 72
    38
 73
    40
 74
    65
  0
VERTEX
  5
1F9
  8
METAL
 10
0.0
 20
0.0
 30
0.0
 70
   128
 71
    60
 72
    32
 73
    37
 74
    63
  0
VERTEX
  5
1FA
  8
METAL
 10
0.0
 20
0.0
 30
0.0
 70
   128
 71
   141
 72
   144
 73
   131
 74
   127
  0
VERTEX
  5
1FB
  8
METAL
 10
0.0
 20
0.0
 30
0.0
 70
   128
 71
    70
 72
    50
 73
    58
 74
    74
  0
VERTEX
  5
1FC
  8
METAL
 10
0.0
 20
0.0
 30
0.0
 70
   128
 71
    59
 72
    30
 73
    32
 74
    60
  0
VERTEX
  5
1FD
  8
METAL
 10
0.0
 20
0.0
 30
0.0
 70
   128
 71
    75
 72
    57
 73
    52
 74
    71
  0
VERTEX
  5
1FE
  8
METAL
 10
0.0
 20
0.0
 30
0.0
 70
   128
 71
   113
 72
   114
 73
   184
 74
   181
  0
VERTEX
  5
1FF
  8
METAL
 10
0.0
 20
0.0
 30
0.0
 70
   128
 71
   165
 72
   168
 73
   177
 74
   173
  0
VERTEX
  5
200
  8
METAL
 10
0.0
 20
0.0
 30
0.0
 70
   128
 71
    65
 72
    40
 73
    42
 74
    66
  0
VERTEX
  5
201
  8
METAL
 10
0.0
 20
0.0
 30
0.0
 70
   128
 71
   148
 72
   150
 73
   144
 74
   141
  0
VERTEX
  5
202
  8
METAL
 10
0.0
 20
0.0
 30
0.0
 70
   128
 71
   156
 72
   158
 73
   150
 74
   148
  0
VERTEX
  5
203
  8
METAL
 10
0.0
 20
0.0
 30
0.0
 70
   128
 71
   164
 72
   166
 73
   158
 74
   156
  0
VERTEX
  5
204
  8
METAL
 10
0.0
 20
0.0
 30
0.0
 70
   128
 71
   172
 72
   174
 73
   166
 74
   164
  0
VERTEX
  5
205
  8
METAL
 10
0.0
 20
0.0
 30
0.0
 70
   128
 71
    69
 72
    48
 73
    50
 74
    70
  0
VERTEX
  5
206
  8
METAL
 10
0.0
 20
0.0
 30
0.0
 70
   128
 71
    68
 72
    46
 73
    48
 74
    69
  0
VERTEX
  5
207
  8
METAL
 10
0.0
 20
0.0
 30
0.0
 70
   128
 71
    67
 72
    44
 73
    46
 74
    68
  0
VERTEX
  5
208
  8
METAL
 10
0.0
 20
0.0
 30
0.0
 70
   128
 71
    66
 72
    42
 73
    44
 74
    67
  0
VERTEX
  5
209
  8
METAL
 10
0.0
 20
0.0
 30
0.0
 70
   128
 71
   157
 72
   160
 73
   168
 74
   165
  0
VERTEX
  5
20A
  8
METAL
 10
0.0
 20
0.0
 30
0.0
 70
   128
 71
   149
 72
   152
 73
   160
 74
   157
  0
VERTEX
  5
20B
  8
METAL
 10
0.0
 20
0.0
 30
0.0
 70
   128
 71
   136
 72
   142
 73
   152
 74
   149
  0
VERTEX
  5
20C
  8
METAL
 10
0.0
 20
0.0
 30
0.0
 70
   128
 71
   128
 72
   134
 73
   142
 74
   136
  0
VERTEX
  5
20D
  8
METAL
 10
0.0
 20
0.0
 30
0.0
 70
   128
 71
   180
 72
   182
 73
    79
 74
    76
  0
VERTEX
  5
20E
  8
METAL
 10
0.0
 20
0.0
 30
0.0
 70
   128
 71
   188
 72
   191
 73
   174
 74
   172
  0
VERTEX
  5
20F
  8
METAL
 10
0.0
 20
0.0
 30
0.0
 70
   128
 71
   195
 72
   192
 73
   176
 74
   179
  0
VERTEX
  5
210
  8
METAL
 10
0.0
 20
0.0
 30
0.0
 70
   128
 71
    60
 72
    63
 73
   114
 74
   113
  0
VERTEX
  5
211
  8
METAL
 10
0.0
 20
0.0
 30
0.0
 70
   128
 71
    61
 72
    34
 73
    30
 74
    59
  0
VERTEX
  5
212
  8
METAL
 10
0.0
 20
0.0
 30
0.0
 70
   128
 71
   120
 72
    84
 73
    81
 74
   117
  0
VERTEX
  5
213
  8
METAL
 10
0.0
 20
0.0
 30
0.0
 70
   128
 71
    26
 72
    53
 73
    51
 74
    25
  0
VERTEX
  5
214
  8
METAL
 10
0.0
 20
0.0
 30
0.0
 70
   128
 71
   203
 72
   201
 73
   185
 74
   187
  0
VERTEX
  5
215
  8
METAL
 10
0.0
 20
0.0
 30
0.0
 70
   128
 71
   196
 72
   198
 73
   182
 74
   180
  0
VERTEX
  5
216
  8
METAL
 10
0.0
 20
0.0
 30
0.0
 70
   128
 71
   204
 72
   207
 73
   191
 74
   188
  0
VERTEX
  5
217
  8
METAL
 10
0.0
 20
0.0
 30
0.0
 70
   128
 71
   211
 72
   208
 73
   192
 74
   195
  0
VERTEX
  5
218
  8
METAL
 10
0.0
 20
0.0
 30
0.0
 70
   128
 71
   219
 72
   217
 73
   201
 74
   203
  0
VERTEX
  5
219
  8
METAL
 10
0.0
 20
0.0
 30
0.0
 70
   128
 71
   212
 72
   214
 73
   198
 74
   196
  0
VERTEX
  5
21A
  8
METAL
 10
0.0
 20
0.0
 30
0.0
 70
   128
 71
   220
 72
   223
 73
   207
 74
   204
  0
VERTEX
  5
21B
  8
METAL
 10
0.0
 20
0.0
 30
0.0
 70
   128
 71
   227
 72
   224
 73
   208
 74
   211
  0
VERTEX
  5
21C
  8
METAL
 10
0.0
 20
0.0
 30
0.0
 70
   128
 71
   235
 72
   233
 73
   217
 74
   219
  0
VERTEX
  5
21D
  8
METAL
 10
0.0
 20
0.0
 30
0.0
 70
   128
 71
   228
 72
   230
 73
   214
 74
   212
  0
VERTEX
  5
21E
  8
METAL
 10
0.0
 20
0.0
 30
0.0
 70
   128
 71
   236
 72
   239
 73
   223
 74
   220
  0
VERTEX
  5
21F
  8
METAL
 10
0.0
 20
0.0
 30
0.0
 70
   128
 71
   243
 72
   240
 73
   224
 74
   227
  0
VERTEX
  5
220
  8
METAL
 10
0.0
 20
0.0
 30
0.0
 70
   128
 71
   251
 72
   249
 73
   233
 74
   235
  0
VERTEX
  5
221
  8
METAL
 10
0.0
 20
0.0
 30
0.0
 70
   128
 71
   244
 72
   246
 73
   230
 74
   228
  0
VERTEX
  5
222
  8
METAL
 10
0.0
 20
0.0
 30
0.0
 70
   128
 71
   252
 72
   255
 73
   239
 74
   236
  0
VERTEX
  5
223
  8
METAL
 10
0.0
 20
0.0
 30
0.0
 70
   128
 71
   259
 72
   256
 73
   240
 74
   243
  0
VERTEX
  5
224
  8
METAL
 10
0.0
 20
0.0
 30
0.0
 70
   128
 71
   267
 72
   265
 73
   249
 74
   251
  0
VERTEX
  5
225
  8
METAL
 10
0.0
 20
0.0
 30
0.0
 70
   128
 71
   260
 72
   262
 73
   246
 74
   244
  0
VERTEX
  5
226
  8
METAL
 10
0.0
 20
0.0
 30
0.0
 70
   128
 71
   268
 72
   271
 73
   255
 74
   252
  0
VERTEX
  5
227
  8
METAL
 10
0.0
 20
0.0
 30
0.0
 70
   128
 71
   278
 72
   273
 73
   256
 74
   259
  0
VERTEX
  5
228
  8
METAL
 10
0.0
 20
0.0
 30
0.0
 70
   128
 71
   281
 72
   288
 73
   265
 74
   267
  0
VERTEX
  5
229
  8
METAL
 10
0.0
 20
0.0
 30
0.0
 70
   128
 71
   296
 72
   284
 73
   262
 74
   260
  0
VERTEX
  5
22A
  8
METAL
 10
0.0
 20
0.0
 30
0.0
 70
   128
 71
   282
 72
   291
 73
   271
 74
   268
  0
VERTEX
  5
22B
  8
METAL
 10
0.0
 20
0.0
 30
0.0
 70
   128
 71
   302
 72
   294
 73
   275
 74
   279
  0
VERTEX
  5
22C
  8
METAL
 10
0.0
 20
0.0
 30
0.0
 70
   128
 71
   299
 72
   289
 73
   295
 74
   303
  0
VERTEX
  5
22D
  8
METAL
 10
0.0
 20
0.0
 30
0.0
 70
   128
 71
   301
 72
   292
 73
   286
 74
   297
  0
SEQEND
  5
23A
  8
METAL
  0
ENDSEC
  0
EOF
