  0
SECTION
  2
HEADER
  9
$ACADVER
  1
AC1009
  9
$DWGCODEPAGE
  3
ansi_1252
  9
$INSBASE
 10
0.0
 20
0.0
 30
0.0
  9
$EXTMIN
 10
-20.0
 20
-18.10411834716801
 30
-35.0
  9
$EXTMAX
 10
20.47314453124999
 20
0.0
 30
5.431579589843693
  9
$LIMMIN
 10
0.0
 20
0.0
  9
$LIMMAX
 10
12.0
 20
9.0
  9
$ORTHOMODE
 70
     1
  9
$REGENMODE
 70
     1
  9
$FILLMODE
 70
     1
  9
$QTEXTMODE
 70
     0
  9
$MIRRTEXT
 70
     1
  9
$DRAGMODE
 70
     2
  9
$LTSCALE
 40
1.0
  9
$OSMODE
 70
    37
  9
$ATTMODE
 70
     1
  9
$TEXTSIZE
 40
0.2
  9
$TRACEWID
 40
0.05
  9
$TEXTSTYLE
  7
STANDARD
  9
$CLAYER
  8
0
  9
$CELTYPE
  6
BYLAYER
  9
$CECOLOR
 62
   256
  9
$DIMSCALE
 40
1.0
  9
$DIMASZ
 40
0.18
  9
$DIMEXO
 40
0.0625
  9
$DIMDLI
 40
0.38
  9
$DIMRND
 40
0.0
  9
$DIMDLE
 40
0.0
  9
$DIMEXE
 40
0.18
  9
$DIMTP
 40
0.0
  9
$DIMTM
 40
0.0
  9
$DIMTXT
 40
0.18
  9
$DIMCEN
 40
0.09
  9
$DIMTSZ
 40
0.0
  9
$DIMTOL
 70
     0
  9
$DIMLIM
 70
     0
  9
$DIMTIH
 70
     1
  9
$DIMTOH
 70
     1
  9
$DIMSE1
 70
     0
  9
$DIMSE2
 70
     0
  9
$DIMTAD
 70
     0
  9
$DIMZIN
 70
     0
  9
$DIMBLK
  1

  9
$DIMASO
 70
     1
  9
$DIMSHO
 70
     1
  9
$DIMPOST
  1

  9
$DIMAPOST
  1

  9
$DIMALT
 70
     0
  9
$DIMALTD
 70
     2
  9
$DIMALTF
 40
25.4
  9
$DIMLFAC
 40
1.0
  9
$DIMTOFL
 70
     0
  9
$DIMTVP
 40
0.0
  9
$DIMTIX
 70
     0
  9
$DIMSOXD
 70
     0
  9
$DIMSAH
 70
     0
  9
$DIMBLK1
  1

  9
$DIMBLK2
  1

  9
$DIMSTYLE
  2
STANDARD
  9
$DIMCLRD
 70
     0
  9
$DIMCLRE
 70
     0
  9
$DIMCLRT
 70
     0
  9
$DIMTFAC
 40
1.0
  9
$DIMGAP
 40
0.09
  9
$LUNITS
 70
     2
  9
$LUPREC
 70
     3
  9
$SKETCHINC
 40
0.1
  9
$FILLETRAD
 40
0.5
  9
$AUNITS
 70
     0
  9
$AUPREC
 70
     0
  9
$MENU
  1
.
  9
$ELEVATION
 40
0.0
  9
$PELEVATION
 40
0.0
  9
$THICKNESS
 40
0.0
  9
$LIMCHECK
 70
     0
  9
$CHAMFERA
 40
0.5
  9
$CHAMFERB
 40
0.5
  9
$SKPOLY
 70
     0
  9
$TDCREATE
 40
2456496.434243496
  9
$TDUPDATE
 40
2456496.434243496
  9
$TDINDWG
 40
0.0029861111
  9
$TDUSRTIMER
 40
0.0029861111
  9
$USRTIMER
 70
     1
  9
$ANGBASE
 50
0.0
  9
$ANGDIR
 70
     0
  9
$PDMODE
 70
     0
  9
$PDSIZE
 40
0.0
  9
$PLINEWID
 40
0.0
  9
$COORDS
 70
     1
  9
$SPLFRAME
 70
     0
  9
$SPLINETYPE
 70
     6
  9
$SPLINESEGS
 70
     8
  9
$ATTDIA
 70
     0
  9
$ATTREQ
 70
     1
  9
$HANDLING
 70
     1
  9
$HANDSEED
  5
3E4
  9
$SURFTAB1
 70
     6
  9
$SURFTAB2
 70
     6
  9
$SURFTYPE
 70
     6
  9
$SURFU
 70
     6
  9
$SURFV
 70
     6
  9
$UCSNAME
  2

  9
$UCSORG
 10
0.0
 20
0.0
 30
0.0
  9
$UCSXDIR
 10
1.0
 20
0.0
 30
0.0
  9
$UCSYDIR
 10
0.0
 20
0.0
 30
1.0
  9
$PUCSNAME
  2

  9
$PUCSORG
 10
0.0
 20
0.0
 30
0.0
  9
$PUCSXDIR
 10
1.0
 20
0.0
 30
0.0
  9
$PUCSYDIR
 10
0.0
 20
1.0
 30
0.0
  9
$USERI1
 70
     0
  9
$USERI2
 70
     0
  9
$USERI3
 70
     0
  9
$USERI4
 70
     0
  9
$USERI5
 70
     0
  9
$USERR1
 40
0.0
  9
$USERR2
 40
0.0
  9
$USERR3
 40
0.0
  9
$USERR4
 40
0.0
  9
$USERR5
 40
0.0
  9
$WORLDVIEW
 70
     1
  9
$SHADEDGE
 70
     3
  9
$SHADEDIF
 70
    70
  9
$TILEMODE
 70
     1
  9
$MAXACTVP
 70
    64
  9
$PLIMCHECK
 70
     0
  9
$PEXTMIN
 10
1.000000000000000E+20
 20
1.000000000000000E+20
 30
1.000000000000000E+20
  9
$PEXTMAX
 10
-1.000000000000000E+20
 20
-1.000000000000000E+20
 30
-1.000000000000000E+20
  9
$PLIMMIN
 10
0.0
 20
0.0
  9
$PLIMMAX
 10
12.0
 20
9.0
  9
$UNITMODE
 70
     0
  9
$VISRETAIN
 70
     1
  9
$PLINEGEN
 70
     0
  9
$PSLTSCALE
 70
     1
  0
ENDSEC
  0
SECTION
  2
TABLES
  0
TABLE
  2
VPORT
 70
     1
  0
VPORT
  2
*ACTIVE
 70
     0
 10
0.0
 20
0.0
 11
1.0
 21
1.0
 12
6.568054278607243
 22
-15.67016454394394
 13
0.0
 23
0.0
 14
0.5
 24
0.5
 15
0.5
 25
0.5
 16
-1.0
 26
-1.0
 36
1.0
 17
0.0
 27
0.0
 37
0.0
 40
72.58105025664587
 41
1.050494315634383
 42
50.0
 43
0.0
 44
0.0
 50
0.0
 51
0.0
 71
    16
 72
   100
 73
     0
 74
     1
 75
     0
 76
     0
 77
     0
 78
     0
  0
ENDTAB
  0
TABLE
  2
LTYPE
 70
     1
  0
LTYPE
  2
CONTINUOUS
 70
     0
  3
Solid line
 72
    65
 73
     0
 40
0.0
  0
ENDTAB
  0
TABLE
  2
LAYER
 70
     2
  0
LAYER
  2
0
 70
     0
 62
     7
  6
CONTINUOUS
  0
LAYER
  2
METAL
 70
     0
 62
   150
  6
CONTINUOUS
  0
ENDTAB
  0
TABLE
  2
STYLE
 70
     1
  0
STYLE
  2
STANDARD
 70
     0
 40
0.0
 41
1.0
 50
0.0
 71
     0
 42
0.2
  3
txt
  4

  0
ENDTAB
  0
TABLE
  2
VIEW
 70
     0
  0
ENDTAB
  0
TABLE
  2
UCS
 70
     0
  0
ENDTAB
  0
TABLE
  2
APPID
 70
     1
  0
APPID
  2
ACAD
 70
     0
  0
ENDTAB
  0
TABLE
  2
DIMSTYLE
 70
     1
  0
DIMSTYLE
  2
STANDARD
 70
     0
  3

  4

  5

  6

  7

 40
1.0
 41
0.18
 42
0.0625
 43
0.38
 44
0.18
 45
0.0
 46
0.0
 47
0.0
 48
0.0
140
0.18
141
0.09
142
0.0
143
25.4
144
1.0
145
0.0
146
1.0
147
0.09
 71
     0
 72
     0
 73
     1
 74
     1
 75
     0
 76
     0
 77
     0
 78
     0
170
     0
171
     2
172
     0
173
     0
174
     0
175
     0
176
     0
177
     0
178
     0
  0
ENDTAB
  0
ENDSEC
  0
SECTION
  2
BLOCKS
  0
BLOCK
  8
0
  2
$MODEL_SPACE
 70
     0
 10
0.0
 20
0.0
 30
0.0
  3
$MODEL_SPACE
  1

  0
ENDBLK
  5
21
  8
0
  0
BLOCK
 67
     1
  8
0
  2
$PAPER_SPACE
 70
     0
 10
0.0
 20
0.0
 30
0.0
  3
$PAPER_SPACE
  1

  0
ENDBLK
  5
76
 67
     1
  8
0
  0
ENDSEC
  0
SECTION
  2
ENTITIES
  0
POLYLINE
  5
3C
  8
METAL
 66
     1
 10
0.0
 20
0.0
 30
0.0
 70
    64
 71
   464
 72
   242
  0
VERTEX
  5
3D
  8
METAL
 10
-20.0
 20
-14.00843811035161
 30
-14.55246734619141
 70
   192
  0
VERTEX
  5
3E
  8
METAL
 10
-20.0
 20
-14.00843811035161
 30
-14.55246734619141
 70
   192
  0
VERTEX
  5
3F
  8
METAL
 10
-20.0
 20
-5.715118408203111
 30
-14.55246734619141
 70
   192
  0
VERTEX
  5
40
  8
METAL
 10
-20.0
 20
-5.715118408203111
 30
-14.55246734619141
 70
   192
  0
VERTEX
  5
41
  8
METAL
 10
-19.57440185546881
 20
-14.63906097412111
 30
-18.46157836914071
 70
   192
  0
VERTEX
  5
42
  8
METAL
 10
-19.57440185546881
 20
-14.63906097412111
 30
-18.46157836914071
 70
   192
  0
VERTEX
  5
43
  8
METAL
 10
-19.57440185546881
 20
-7.648712158203111
 30
-18.46157836914071
 70
   192
  0
VERTEX
  5
44
  8
METAL
 10
-19.57440185546881
 20
-7.648712158203111
 30
-18.46157836914071
 70
   192
  0
VERTEX
  5
45
  8
METAL
 10
-19.3781433105469
 20
-13.3768310546875
 30
-10.51507568359381
 70
   192
  0
VERTEX
  5
46
  8
METAL
 10
-19.3781433105469
 20
-13.3768310546875
 30
-10.51507568359381
 70
   192
  0
VERTEX
  5
47
  8
METAL
 10
-19.3781433105469
 20
-3.813484191894503
 30
-10.51507568359381
 70
   192
  0
VERTEX
  5
48
  8
METAL
 10
-19.3781433105469
 20
-3.813484191894503
 30
-10.51507568359381
 70
   192
  0
VERTEX
  5
49
  8
METAL
 10
-19.10841369628911
 20
-4.953521728515611
 30
-15.0239639282227
 70
   192
  0
VERTEX
  5
4A
  8
METAL
 10
-19.10841369628911
 20
-4.953521728515611
 30
-15.0239639282227
 70
   192
  0
VERTEX
  5
4B
  8
METAL
 10
-19.08447265625
 20
-15.08253479003911
 30
-15.03662872314461
 70
   192
  0
VERTEX
  5
4C
  8
METAL
 10
-19.08447265625
 20
-15.08253479003911
 30
-15.03662872314461
 70
   192
  0
VERTEX
  5
4D
  8
METAL
 10
-18.6178436279297
 20
-6.820739746093707
 30
-18.79518890380861
 70
   192
  0
VERTEX
  5
4E
  8
METAL
 10
-18.6178436279297
 20
-6.820739746093707
 30
-18.79518890380861
 70
   192
  0
VERTEX
  5
4F
  8
METAL
 10
-18.6031875610352
 20
-15.68961334228521
 30
-18.8020324707031
 70
   192
  0
VERTEX
  5
50
  8
METAL
 10
-18.6031875610352
 20
-15.68961334228521
 30
-18.8020324707031
 70
   192
  0
VERTEX
  5
51
  8
METAL
 10
-18.57977294921881
 20
-3.095932006835909
 30
-11.08535003662111
 70
   192
  0
VERTEX
  5
52
  8
METAL
 10
-18.57977294921881
 20
-3.095932006835909
 30
-11.08535003662111
 70
   192
  0
VERTEX
  5
53
  8
METAL
 10
-18.54978942871089
 20
-14.47086334228521
 30
-11.10877227783211
 70
   192
  0
VERTEX
  5
54
  8
METAL
 10
-18.54978942871089
 20
-14.47086334228521
 30
-11.10877227783211
 70
   192
  0
VERTEX
  5
55
  8
METAL
 10
-18.3834686279297
 20
-12.74522399902341
 30
-6.727546691894606
 70
   192
  0
VERTEX
  5
56
  8
METAL
 10
-18.3834686279297
 20
-12.74522399902341
 30
-6.727546691894606
 70
   192
  0
VERTEX
  5
57
  8
METAL
 10
-18.3834686279297
 20
-1.911857604980511
 30
-6.727546691894595
 70
   192
  0
VERTEX
  5
58
  8
METAL
 10
-18.3834686279297
 20
-1.911857604980511
 30
-6.727546691894595
 70
   192
  0
VERTEX
  5
30C
  8
METAL
 10
-18.3834609985352
 20
-15.26968383789061
 30
-22.37739562988281
 70
   192
  0
VERTEX
  5
30D
  8
METAL
 10
-18.3834609985352
 20
-15.26968383789061
 30
-22.37739562988281
 70
   192
  0
VERTEX
  5
5B
  8
METAL
 10
-18.3834609985352
 20
-9.58230590820311
 30
-22.37739562988281
 70
   192
  0
VERTEX
  5
5C
  8
METAL
 10
-18.3834609985352
 20
-9.58230590820311
 30
-22.37739562988281
 70
   192
  0
VERTEX
  5
5D
  8
METAL
 10
-17.6782913208008
 20
-1.238342285156207
 30
-7.396606445312496
 70
   192
  0
VERTEX
  5
30E
  8
METAL
 10
-17.6782913208008
 20
-1.238342285156207
 30
-7.396606445312496
 70
   192
  0
VERTEX
  5
5F
  8
METAL
 10
-17.64227294921881
 20
-13.85919189453121
 30
-7.430786132812496
 70
   192
  0
VERTEX
  5
60
  8
METAL
 10
-17.64227294921881
 20
-13.85919189453121
 30
-7.430786132812496
 70
   192
  0
VERTEX
  5
61
  8
METAL
 10
-17.3619384765625
 20
-8.687950134277301
 30
-22.5731201171875
 70
   192
  0
VERTEX
  5
62
  8
METAL
 10
-17.3619384765625
 20
-8.687950134277301
 30
-22.5731201171875
 70
   192
  0
VERTEX
  5
63
  8
METAL
 10
-17.3565673828125
 20
-16.2966842651367
 30
-22.57414245605472
 70
   192
  0
VERTEX
  5
64
  8
METAL
 10
-17.3565673828125
 20
-16.2966842651367
 30
-22.57414245605472
 70
   192
  0
VERTEX
  5
65
  8
METAL
 10
-17.3261032104492
 20
-12.44394683837891
 30
-4.841636657714897
 70
   192
  0
VERTEX
  5
66
  8
METAL
 10
-17.3261032104492
 20
-12.44394683837891
 30
-4.841636657714897
 70
   192
  0
VERTEX
  5
67
  8
METAL
 10
-17.3261032104492
 20
-0.9559249877930114
 30
-4.841636657714897
 70
   192
  0
VERTEX
  5
68
  8
METAL
 10
-17.3261032104492
 20
-0.9559249877930114
 30
-4.841636657714897
 70
   192
  0
VERTEX
  5
69
  8
METAL
 10
-16.9735107421875
 20
-0.6191711425781108
 30
-5.176170349121108
 70
   192
  0
VERTEX
  5
6A
  8
METAL
 10
-16.9735107421875
 20
-0.6191711425781108
 30
-5.176170349121108
 70
   192
  0
VERTEX
  5
30F
  8
METAL
 10
-16.5966415405274
 20
-15.80582427978521
 30
-25.69422912597658
 70
   192
  0
VERTEX
  5
310
  8
METAL
 10
-16.5966415405274
 20
-15.80582427978521
 30
-25.69422912597658
 70
   192
  0
VERTEX
  5
6D
  8
METAL
 10
-16.5966415405274
 20
-11.21227264404301
 30
-25.69422912597658
 70
   192
  0
VERTEX
  5
6E
  8
METAL
 10
-16.5966415405274
 20
-11.21227264404301
 30
-25.69422912597658
 70
   192
  0
VERTEX
  5
6F
  8
METAL
 10
-16.5950241088867
 20
-13.5652389526367
 30
-5.553237915039105
 70
   192
  0
VERTEX
  5
70
  8
METAL
 10
-16.5950241088867
 20
-13.5652389526367
 30
-5.553237915039105
 70
   192
  0
VERTEX
  5
71
  8
METAL
 10
-16.27508544921881
 20
-12.1426620483398
 30
-3.212875366211007
 70
   192
  0
VERTEX
  5
72
  8
METAL
 10
-16.27508544921881
 20
-12.1426620483398
 30
-3.212875366211007
 70
   192
  0
VERTEX
  5
311
  8
METAL
 10
-16.27508544921881
 20
0.0
 30
-3.212875366211007
 70
   192
  0
VERTEX
  5
312
  8
METAL
 10
-16.27508544921881
 20
0.0
 30
-3.212875366211007
 70
   192
  0
VERTEX
  5
313
  8
METAL
 10
-16.27508544921881
 20
0.0
 30
-3.212875366211007
 70
   192
  0
VERTEX
  5
314
  8
METAL
 10
-15.57098388671881
 20
-10.23173522949219
 30
-25.7063903808594
 70
   192
  0
VERTEX
  5
77
  8
METAL
 10
-15.57098388671881
 20
-10.23173522949219
 30
-25.7063903808594
 70
   192
  0
VERTEX
  5
78
  8
METAL
 10
-15.5674514770508
 20
-16.80216217041021
 30
-25.7067565917969
 70
   192
  0
VERTEX
  5
79
  8
METAL
 10
-15.5674514770508
 20
-16.80216217041021
 30
-25.7067565917969
 70
   192
  0
VERTEX
  5
7A
  8
METAL
 10
-15.5541229248047
 20
-13.2712860107422
 30
-3.932846069336007
 70
   192
  0
VERTEX
  5
7B
  8
METAL
 10
-15.5541229248047
 20
-13.2712860107422
 30
-3.932846069336007
 70
   192
  0
VERTEX
  5
7C
  8
METAL
 10
-14.99383544921881
 20
-11.8535232543945
 30
-1.621505737304696
 70
   192
  0
VERTEX
  5
7D
  8
METAL
 10
-14.99383544921881
 20
-11.8535232543945
 30
-1.621505737304696
 70
   192
  0
VERTEX
  5
7E
  8
METAL
 10
-14.99383544921881
 20
0.0
 30
-1.621505737304696
 70
   192
  0
VERTEX
  5
7F
  8
METAL
 10
-14.99383544921881
 20
0.0
 30
-1.621505737304696
 70
   192
  0
VERTEX
  5
80
  8
METAL
 10
-14.3704376220703
 20
-12.99277496337891
 30
-2.410995483398507
 70
   192
  0
VERTEX
  5
81
  8
METAL
 10
-14.3704376220703
 20
-12.99277496337891
 30
-2.410995483398507
 70
   192
  0
VERTEX
  5
82
  8
METAL
 10
-14.16136169433589
 20
-15.48098754882811
 30
-17.64012145996101
 70
   192
  0
VERTEX
  5
83
  8
METAL
 10
-14.16136169433589
 20
-15.48098754882811
 30
-17.64012145996101
 70
   192
  0
VERTEX
  5
84
  8
METAL
 10
-14.0364151000977
 20
-15.94420623779301
 30
-20.5071334838867
 70
   192
  0
VERTEX
  5
85
  8
METAL
 10
-14.0364151000977
 20
-15.94420623779301
 30
-20.5071334838867
 70
   192
  0
VERTEX
  5
86
  8
METAL
 10
-13.7799530029297
 20
-16.3419647216797
 30
-29.01104736328131
 70
   192
  0
VERTEX
  5
87
  8
METAL
 10
-13.7799530029297
 20
-16.3419647216797
 30
-29.01104736328131
 70
   192
  0
VERTEX
  5
88
  8
METAL
 10
-13.7799530029297
 20
-12.84223937988281
 30
-29.01104736328131
 70
   192
  0
VERTEX
  5
89
  8
METAL
 10
-13.6973114013672
 20
-15.03773498535161
 30
-14.67900085449221
 70
   192
  0
VERTEX
  5
8A
  8
METAL
 10
-13.6973114013672
 20
-15.03773498535161
 30
-14.67900085449221
 70
   192
  0
VERTEX
  5
8B
  8
METAL
 10
-13.54904937744141
 20
-11.5643844604492
 30
0.0352630615233931
 70
   192
  0
VERTEX
  5
8C
  8
METAL
 10
-13.54904937744141
 20
-11.5643844604492
 30
0.0352630615233931
 70
   192
  0
VERTEX
  5
8D
  8
METAL
 10
-13.54904937744141
 20
0.0
 30
0.035270690917903
 70
   192
  0
VERTEX
  5
8E
  8
METAL
 10
-13.54904937744141
 20
0.0
 30
0.035270690917903
 70
   192
  0
VERTEX
  5
8F
  8
METAL
 10
-13.24582672119141
 20
-14.55509185791021
 30
-18.12428283691411
 70
   192
  0
VERTEX
  5
90
  8
METAL
 10
-13.24582672119141
 20
-14.55509185791021
 30
-18.12428283691411
 70
   192
  0
VERTEX
  5
91
  8
METAL
 10
-13.24582672119141
 20
-6.521125793457003
 30
-18.12428283691411
 70
   192
  0
VERTEX
  5
315
  8
METAL
 10
-13.24582672119141
 20
-6.521125793457003
 30
-18.12428283691411
 70
   192
  0
VERTEX
  5
316
  8
METAL
 10
-13.14613342285161
 20
-16.40741729736331
 30
-23.38084411621099
 70
   192
  0
VERTEX
  5
94
  8
METAL
 10
-13.14613342285161
 20
-16.40741729736331
 30
-23.38084411621099
 70
   192
  0
VERTEX
  5
95
  8
METAL
 10
-13.06520080566411
 20
-14.994758605957
 30
-20.8475875854492
 70
   192
  0
VERTEX
  5
96
  8
METAL
 10
-13.06520080566411
 20
-14.994758605957
 30
-20.8475875854492
 70
   192
  0
VERTEX
  5
317
  8
METAL
 10
-13.06520080566411
 20
-7.875648498535213
 30
-20.8475875854492
 70
   192
  0
VERTEX
  5
318
  8
METAL
 10
-13.06520080566411
 20
-7.875648498535213
 30
-20.8475875854492
 70
   192
  0
VERTEX
  5
99
  8
METAL
 10
-13.0232238769531
 20
-12.71426391601561
 30
-0.8237304687499964
 70
   192
  0
VERTEX
  5
9A
  8
METAL
 10
-13.0232238769531
 20
-12.71426391601561
 30
-0.8237304687499964
 70
   192
  0
VERTEX
  5
9B
  8
METAL
 10
-12.8689498901367
 20
-14.1317672729492
 30
-15.2726974487305
 70
   192
  0
VERTEX
  5
9C
  8
METAL
 10
-12.8689498901367
 20
-14.1317672729492
 30
-15.2726974487305
 70
   192
  0
VERTEX
  5
9D
  8
METAL
 10
-12.8689498901367
 20
-5.166618347168011
 30
-15.2726974487305
 70
   192
  0
VERTEX
  5
9E
  8
METAL
 10
-12.8689498901367
 20
-5.166618347168011
 30
-15.2726974487305
 70
   192
  0
VERTEX
  5
9F
  8
METAL
 10
-12.8604354858399
 20
-14.594482421875
 30
-11.96774291992191
 70
   192
  0
VERTEX
  5
A0
  8
METAL
 10
-12.8604354858399
 20
-14.594482421875
 30
-11.96774291992191
 70
   192
  0
VERTEX
  5
A1
  8
METAL
 10
-12.75014495849611
 20
-11.775520324707
 30
-28.83966064453131
 70
   192
  0
VERTEX
  5
A2
  8
METAL
 10
-12.75014495849611
 20
-11.775520324707
 30
-28.83966064453131
 70
   192
  0
VERTEX
  5
A3
  8
METAL
 10
-12.7484512329102
 20
-17.3076248168945
 30
-28.83937072753908
 70
   192
  0
VERTEX
  5
A4
  8
METAL
 10
-12.7484512329102
 20
-17.3076248168945
 30
-28.83937072753908
 70
   192
  0
VERTEX
  5
A5
  8
METAL
 10
-12.11923980712892
 20
-15.43442535400391
 30
-23.57759094238281
 70
   192
  0
VERTEX
  5
A6
  8
METAL
 10
-12.11923980712892
 20
-15.43442535400391
 30
-23.57759094238281
 70
   192
  0
VERTEX
  5
A7
  8
METAL
 10
-12.11923980712892
 20
-9.230163574218707
 30
-23.57759094238281
 70
   192
  0
VERTEX
  5
A8
  8
METAL
 10
-12.11923980712892
 20
-9.230163574218707
 30
-23.57759094238281
 70
   192
  0
VERTEX
  5
A9
  8
METAL
 10
-12.11923980712892
 20
-13.7084579467773
 30
-12.6709823608399
 70
   192
  0
VERTEX
  5
AA
  8
METAL
 10
-12.11923980712892
 20
-13.7084579467773
 30
-12.6709823608399
 70
   192
  0
VERTEX
  5
AB
  8
METAL
 10
-12.11923980712892
 20
-3.812095642089801
 30
-12.6709823608399
 70
   192
  0
VERTEX
  5
AC
  8
METAL
 10
-12.11923980712892
 20
-3.812095642089801
 30
-12.6709823608399
 70
   192
  0
VERTEX
  5
AD
  8
METAL
 10
-12.0592498779297
 20
-16.81081390380861
 30
-25.87660217285158
 70
   192
  0
VERTEX
  5
AE
  8
METAL
 10
-12.0592498779297
 20
-16.81081390380861
 30
-25.87660217285158
 70
   192
  0
VERTEX
  5
AF
  8
METAL
 10
-11.85935211181642
 20
-14.351203918457
 30
-10.16326141357421
 70
   192
  0
VERTEX
  5
B0
  8
METAL
 10
-11.85935211181642
 20
-14.351203918457
 30
-10.16326141357421
 70
   192
  0
VERTEX
  5
B1
  8
METAL
 10
-11.1276321411133
 20
-13.4725036621094
 30
-10.8743896484375
 70
   192
  0
VERTEX
  5
B2
  8
METAL
 10
-11.1276321411133
 20
-13.4725036621094
 30
-10.8743896484375
 70
   192
  0
VERTEX
  5
B3
  8
METAL
 10
-11.11991119384767
 20
-3.029792785644503
 30
-10.8686981201172
 70
   192
  0
VERTEX
  5
B4
  8
METAL
 10
-11.11991119384767
 20
-3.029792785644503
 30
-10.8686981201172
 70
   192
  0
VERTEX
  5
B5
  8
METAL
 10
-11.03005218505861
 20
-15.80715179443361
 30
-25.88914489746099
 70
   192
  0
VERTEX
  5
B6
  8
METAL
 10
-11.03005218505861
 20
-15.80715179443361
 30
-25.88914489746099
 70
   192
  0
VERTEX
  5
B7
  8
METAL
 10
-11.03005218505861
 20
-10.3784713745117
 30
-25.88914489746099
 70
   192
  0
VERTEX
  5
B8
  8
METAL
 10
-11.03005218505861
 20
-10.3784713745117
 30
-25.88914489746099
 70
   192
  0
VERTEX
  5
B9
  8
METAL
 10
-10.86460876464845
 20
-14.10793304443361
 30
-8.615921020507795
 70
   192
  0
VERTEX
  5
BA
  8
METAL
 10
-10.86460876464845
 20
-14.10793304443361
 30
-8.615921020507795
 70
   192
  0
VERTEX
  5
BB
  8
METAL
 10
-10.78730773925783
 20
-16.6787567138672
 30
-31.4051513671875
 70
   192
  0
VERTEX
  5
BC
  8
METAL
 10
-10.78730773925783
 20
-16.6787567138672
 30
-31.4051513671875
 70
   192
  0
VERTEX
  5
BD
  8
METAL
 10
-10.78730773925783
 20
-14.01683807373051
 30
-31.4051513671875
 70
   192
  0
VERTEX
  5
BE
  8
METAL
 10
-10.5636672973633
 20
-11.17039489746091
 30
2.215225219726495
 70
   192
  0
VERTEX
  5
BF
  8
METAL
 10
-10.5636672973633
 20
-11.17039489746091
 30
2.215225219726495
 70
   192
  0
VERTEX
  5
C0
  8
METAL
 10
-10.5636672973633
 20
0.0
 30
2.215232849121094
 70
   192
  0
VERTEX
  5
C1
  8
METAL
 10
-10.5636672973633
 20
0.0
 30
2.215232849121094
 70
   192
  0
VERTEX
  5
C2
  8
METAL
 10
-10.15052795410158
 20
-12.33478546142581
 30
1.311164855957003
 70
   192
  0
VERTEX
  5
C3
  8
METAL
 10
-10.15052795410158
 20
-12.33478546142581
 30
1.311164855957003
 70
   192
  0
VERTEX
  5
C4
  8
METAL
 10
-10.14236450195314
 20
-13.23655700683591
 30
-9.334945678711005
 70
   192
  0
VERTEX
  5
C5
  8
METAL
 10
-10.14236450195314
 20
-13.23655700683591
 30
-9.334945678711005
 70
   192
  0
VERTEX
  5
C6
  8
METAL
 10
-10.12693023681642
 20
-2.247489929199205
 30
-9.323570251464897
 70
   192
  0
VERTEX
  5
C7
  8
METAL
 10
-10.12693023681642
 20
-2.247489929199205
 30
-9.323570251464897
 70
   192
  0
VERTEX
  5
C8
  8
METAL
 10
-10.11703491210939
 20
-13.95514678955081
 30
-7.870529174804705
 70
   192
  0
VERTEX
  5
C9
  8
METAL
 10
-10.11703491210939
 20
-13.95514678955081
 30
-7.870529174804705
 70
   192
  0
VERTEX
  5
CA
  8
METAL
 10
-9.94248199462892
 20
-17.21421813964841
 30
-28.37236022949222
 70
   192
  0
VERTEX
  5
CB
  8
METAL
 10
-9.94248199462892
 20
-17.21421813964841
 30
-28.37236022949222
 70
   192
  0
VERTEX
  5
CC
  8
METAL
 10
-9.88508605957033
 20
-12.82607269287111
 30
-31.01947021484381
 70
   192
  0
VERTEX
  5
CD
  8
METAL
 10
-9.86547851562501
 20
-17.61229705810551
 30
-31.00480651855472
 70
   192
  0
VERTEX
  5
CE
  8
METAL
 10
-9.86547851562501
 20
-17.61229705810551
 30
-31.00480651855472
 70
   192
  0
VERTEX
  5
CF
  8
METAL
 10
-9.49299621582033
 20
-13.09439849853521
 30
-8.659545898437496
 70
   192
  0
VERTEX
  5
D0
  8
METAL
 10
-9.49299621582033
 20
-13.09439849853521
 30
-8.659545898437496
 70
   192
  0
VERTEX
  5
D1
  8
METAL
 10
-9.4852752685547
 20
-1.881484985351605
 30
-8.653854370117198
 70
   192
  0
VERTEX
  5
D2
  8
METAL
 10
-9.4852752685547
 20
-1.881484985351605
 30
-8.653854370117198
 70
   192
  0
VERTEX
  5
D3
  8
METAL
 10
-9.20591735839845
 20
-13.8023681640625
 30
-7.059730529785195
 70
   192
  0
VERTEX
  5
D4
  8
METAL
 10
-9.20591735839845
 20
-13.8023681640625
 30
-7.059730529785195
 70
   192
  0
VERTEX
  5
D5
  8
METAL
 10
-8.91098785400392
 20
-16.17988586425781
 30
-28.20068359375
 70
   192
  0
VERTEX
  5
D6
  8
METAL
 10
-8.91098785400392
 20
-16.17988586425781
 30
-28.20068359375
 70
   192
  0
VERTEX
  5
D7
  8
METAL
 10
-8.91098785400392
 20
-11.52677154541021
 30
-28.20068359375
 70
   192
  0
VERTEX
  5
D8
  8
METAL
 10
-8.91098785400392
 20
-11.52677154541021
 30
-28.20068359375
 70
   192
  0
VERTEX
  5
D9
  8
METAL
 10
-8.68008422851564
 20
-12.95224761962891
 30
-7.918731689453097
 70
   192
  0
VERTEX
  5
DA
  8
METAL
 10
-8.68008422851564
 20
-12.95224761962891
 30
-7.918731689453097
 70
   192
  0
VERTEX
  5
DB
  8
METAL
 10
-8.68008422851564
 20
-1.515487670898409
 30
-7.918731689453097
 70
   192
  0
VERTEX
  5
DC
  8
METAL
 10
-8.68008422851564
 20
-1.515487670898409
 30
-7.918731689453097
 70
   192
  0
VERTEX
  5
DD
  8
METAL
 10
-7.884246826171889
 20
-17.4953994750976
 30
-30.32344055175781
 70
   192
  0
VERTEX
  5
DE
  8
METAL
 10
-7.884246826171889
 20
-17.4953994750976
 30
-30.32344055175781
 70
   192
  0
VERTEX
  5
DF
  8
METAL
 10
-7.144500732421889
 20
-13.5322341918945
 30
-5.273384094238306
 70
   192
  0
VERTEX
  5
E0
  8
METAL
 10
-7.144500732421889
 20
-13.5322341918945
 30
-5.273384094238306
 70
   192
  0
VERTEX
  5
E1
  8
METAL
 10
-6.96241760253908
 20
-16.42893218994141
 30
-29.92308044433599
 70
   192
  0
VERTEX
  5
E2
  8
METAL
 10
-6.96241760253908
 20
-16.42893218994141
 30
-29.92308044433599
 70
   192
  0
VERTEX
  5
E3
  8
METAL
 10
-6.96241760253908
 20
-12.29404449462891
 30
-29.92308044433599
 70
   192
  0
VERTEX
  5
E4
  8
METAL
 10
-6.96241760253908
 20
-12.29404449462891
 30
-29.92308044433599
 70
   192
  0
VERTEX
  5
E5
  8
METAL
 10
-6.890312194824229
 20
-17.0155563354492
 30
-33.44351196289071
 70
   192
  0
VERTEX
  5
E6
  8
METAL
 10
-6.890312194824229
 20
-17.0155563354492
 30
-33.44351196289071
 70
   192
  0
VERTEX
  5
E7
  8
METAL
 10
-6.890312194824229
 20
-15.19142913818361
 30
-33.44351196289071
 70
   192
  0
VERTEX
  5
E8
  8
METAL
 10
-6.858703613281261
 20
-10.7764053344726
 30
3.905899047851495
 70
   192
  0
VERTEX
  5
E9
  8
METAL
 10
-6.858703613281261
 20
-10.7764053344726
 30
3.905899047851495
 70
   192
  0
VERTEX
  5
EA
  8
METAL
 10
-6.858703613281261
 20
-0.0000076293945384
 30
3.905899047851495
 70
   192
  0
VERTEX
  5
EB
  8
METAL
 10
-6.858703613281261
 20
-0.0000076293945384
 30
3.905899047851495
 70
   192
  0
VERTEX
  5
EC
  8
METAL
 10
-6.738777160644551
 20
-12.6922225952148
 30
-6.180381774902397
 70
   192
  0
VERTEX
  5
ED
  8
METAL
 10
-6.738777160644551
 20
-12.6922225952148
 30
-6.180381774902397
 70
   192
  0
VERTEX
  5
EE
  8
METAL
 10
-6.738777160644551
 20
-0.7577514648437145
 30
-6.180381774902397
 70
   192
  0
VERTEX
  5
EF
  8
METAL
 10
-6.738777160644551
 20
-0.7577514648437145
 30
-6.180381774902397
 70
   192
  0
VERTEX
  5
F0
  8
METAL
 10
-6.558258056640639
 20
-11.95529937744141
 30
2.956779479980405
 70
   192
  0
VERTEX
  5
F1
  8
METAL
 10
-6.558258056640639
 20
-11.95529937744141
 30
2.956779479980405
 70
   192
  0
VERTEX
  5
F2
  8
METAL
 10
-6.115669250488301
 20
-13.87662506103521
 30
-32.84355163574222
 70
   192
  0
VERTEX
  5
F3
  8
METAL
 10
-6.07814788818361
 20
-17.91696929931641
 30
-32.8144836425781
 70
   192
  0
VERTEX
  5
F4
  8
METAL
 10
-6.07814788818361
 20
-17.91696929931641
 30
-32.8144836425781
 70
   192
  0
VERTEX
  5
F5
  8
METAL
 10
-4.92165374755861
 20
-17.7765731811523
 30
-31.91876220703131
 70
   192
  0
VERTEX
  5
F6
  8
METAL
 10
-4.92165374755861
 20
-17.7765731811523
 30
-31.91876220703131
 70
   192
  0
VERTEX
  5
F7
  8
METAL
 10
-4.363517761230479
 20
-13.26210784912111
 30
-3.976333618164107
 70
   192
  0
VERTEX
  5
F8
  8
METAL
 10
-4.363517761230479
 20
-13.26210784912111
 30
-3.976333618164107
 70
   192
  0
VERTEX
  5
F9
  8
METAL
 10
-4.109489440917979
 20
-16.6779861450195
 30
-31.28973388671881
 70
   192
  0
VERTEX
  5
FA
  8
METAL
 10
-4.109489440917979
 20
-16.6779861450195
 30
-31.28973388671881
 70
   192
  0
VERTEX
  5
FB
  8
METAL
 10
-4.109489440917979
 20
-13.0613250732422
 30
-31.28973388671881
 70
   192
  0
VERTEX
  5
FC
  8
METAL
 10
-4.109489440917979
 20
-13.0613250732422
 30
-31.28973388671881
 70
   192
  0
VERTEX
  5
FD
  8
METAL
 10
-4.077888488769551
 20
-12.4321823120117
 30
-4.931320190429707
 70
   192
  0
VERTEX
  5
FE
  8
METAL
 10
-4.077888488769551
 20
-12.4321823120117
 30
-4.931320190429707
 70
   192
  0
VERTEX
  5
FF
  8
METAL
 10
-4.077888488769551
 20
-0.0000076293945384
 30
-4.931320190429696
 70
   192
  0
VERTEX
  5
100
  8
METAL
 10
-4.077888488769551
 20
-0.0000076293945384
 30
-4.931320190429696
 70
   192
  0
VERTEX
  5
101
  8
METAL
 10
-2.927886962890639
 20
-0.0000076293945384
 30
4.957160949707003
 70
   192
  0
VERTEX
  5
102
  8
METAL
 10
-2.927886962890639
 20
-0.0000076293945384
 30
4.957160949707003
 70
   192
  0
VERTEX
  5
103
  8
METAL
 10
-2.927886962890639
 20
-10.6238327026367
 30
4.975967407226495
 70
   192
  0
VERTEX
  5
104
  8
METAL
 10
-2.927886962890639
 20
-10.6238327026367
 30
4.975967407226495
 70
   192
  0
VERTEX
  5
105
  8
METAL
 10
-2.889984130859389
 20
-17.13679504394531
 30
-34.46157836914071
 70
   192
  0
VERTEX
  5
106
  8
METAL
 10
-2.889984130859389
 20
-17.13679504394531
 30
-34.46157836914071
 70
   192
  0
VERTEX
  5
107
  8
METAL
 10
-2.889984130859389
 20
-15.5989227294922
 30
-34.46157836914071
 70
   192
  0
VERTEX
  5
108
  8
METAL
 10
-2.777656555175799
 20
-11.8067321777344
 30
4.007690429687504
 70
   192
  0
VERTEX
  5
109
  8
METAL
 10
-2.777656555175799
 20
-11.8067321777344
 30
4.007690429687504
 70
   192
  0
VERTEX
  5
10A
  8
METAL
 10
-2.502670288085952
 20
-14.2041931152344
 30
-33.7177734375
 70
   192
  0
VERTEX
  5
10B
  8
METAL
 10
-2.483909606933612
 20
-18.0105361938476
 30
-33.64883422851571
 70
   192
  0
VERTEX
  5
10C
  8
METAL
 10
-2.483909606933612
 20
-18.0105361938476
 30
-33.64883422851571
 70
   192
  0
VERTEX
  5
10D
  8
METAL
 10
-1.90565490722658
 20
-17.88678741455081
 30
-32.85426330566409
 70
   192
  0
VERTEX
  5
10E
  8
METAL
 10
-1.90565490722658
 20
-17.88678741455081
 30
-32.85426330566409
 70
   192
  0
VERTEX
  5
10F
  8
METAL
 10
-1.680290222167979
 20
-13.15692138671871
 30
-3.152168273925806
 70
   192
  0
VERTEX
  5
110
  8
METAL
 10
-1.680290222167979
 20
-13.15692138671871
 30
-3.152168273925806
 70
   192
  0
VERTEX
  5
111
  8
METAL
 10
-1.537475585937511
 20
-12.33070373535161
 30
-4.125900268554707
 70
   192
  0
VERTEX
  5
112
  8
METAL
 10
-1.537475585937511
 20
-12.33070373535161
 30
-4.125900268554707
 70
   192
  0
VERTEX
  5
113
  8
METAL
 10
-1.537475585937511
 20
-0.0000076293945384
 30
-4.125900268554696
 70
   192
  0
VERTEX
  5
114
  8
METAL
 10
-1.537475585937511
 20
-0.0000076293945384
 30
-4.125900268554696
 70
   192
  0
VERTEX
  5
115
  8
METAL
 10
-1.499580383300799
 20
-16.7605361938476
 30
-32.04150390625
 70
   192
  0
VERTEX
  5
116
  8
METAL
 10
-1.499580383300799
 20
-16.7605361938476
 30
-32.04150390625
 70
   192
  0
VERTEX
  5
117
  8
METAL
 10
-1.499580383300799
 20
-13.3156356811523
 30
-32.04150390625
 70
   192
  0
VERTEX
  5
118
  8
METAL
 10
-1.499580383300799
 20
-13.3156356811523
 30
-32.04150390625
 70
   192
  0
VERTEX
  5
119
  8
METAL
 10
0.2365722656249893
 20
-17.25804138183591
 30
-35.0
 70
   192
  0
VERTEX
  5
11A
  8
METAL
 10
0.2365722656249893
 20
-17.25804138183591
 30
-35.0
 70
   192
  0
VERTEX
  5
11B
  8
METAL
 10
0.2365722656249893
 20
-16.00641632080081
 30
-35.0
 70
   192
  0
VERTEX
  5
11C
  8
METAL
 10
0.2365722656249893
 20
-14.53176879882811
 30
-34.1123352050781
 70
   192
  0
VERTEX
  5
11D
  8
METAL
 10
0.2365722656249893
 20
-18.10411834716801
 30
-34.00352478027349
 70
   192
  0
VERTEX
  5
11E
  8
METAL
 10
0.2365722656249893
 20
-18.10411834716801
 30
-34.00352478027349
 70
   192
  0
VERTEX
  5
11F
  8
METAL
 10
0.2365722656249893
 20
-17.99700927734371
 30
-33.31010437011722
 70
   192
  0
VERTEX
  5
120
  8
METAL
 10
0.2365722656249893
 20
-17.99700927734371
 30
-33.31010437011722
 70
   192
  0
VERTEX
  5
121
  8
METAL
 10
0.2365722656249893
 20
-16.84308624267581
 30
-32.31362915039071
 70
   192
  0
VERTEX
  5
122
  8
METAL
 10
0.2365722656249893
 20
-16.84308624267581
 30
-32.31362915039071
 70
   192
  0
VERTEX
  5
123
  8
METAL
 10
0.2365722656249893
 20
-13.569953918457
 30
-32.31362915039071
 70
   192
  0
VERTEX
  5
124
  8
METAL
 10
0.2365722656249893
 20
-13.569953918457
 30
-32.31362915039071
 70
   192
  0
VERTEX
  5
125
  8
METAL
 10
0.2365722656249893
 20
-12.22922515869141
 30
-3.934936523437496
 70
   192
  0
VERTEX
  5
126
  8
METAL
 10
0.2365722656249893
 20
-12.22922515869141
 30
-3.934936523437496
 70
   192
  0
VERTEX
  5
127
  8
METAL
 10
0.2365722656249893
 20
-0.0000076293945384
 30
-3.934936523437496
 70
   192
  0
VERTEX
  5
128
  8
METAL
 10
0.2365722656249893
 20
-0.0000076293945384
 30
-3.934936523437496
 70
   192
  0
VERTEX
  5
129
  8
METAL
 10
0.2365722656249893
 20
-13.05173492431641
 30
-2.942459106445297
 70
   192
  0
VERTEX
  5
12A
  8
METAL
 10
0.2365722656249893
 20
-13.05173492431641
 30
-2.942459106445297
 70
   192
  0
VERTEX
  5
12B
  8
METAL
 10
0.2365722656249893
 20
-11.6581649780273
 30
4.444137573242205
 70
   192
  0
VERTEX
  5
12C
  8
METAL
 10
0.2365722656249893
 20
-11.6581649780273
 30
4.444137573242205
 70
   192
  0
VERTEX
  5
12D
  8
METAL
 10
0.2365722656249893
 20
-0.0000076293945384
 30
5.393966674804705
 70
   192
  0
VERTEX
  5
12E
  8
METAL
 10
0.2365722656249893
 20
-0.0000076293945384
 30
5.393966674804705
 70
   192
  0
VERTEX
  5
12F
  8
METAL
 10
0.2365722656249893
 20
-10.47126007080081
 30
5.431579589843693
 70
   192
  0
VERTEX
  5
130
  8
METAL
 10
0.2365722656249893
 20
-10.47126007080081
 30
5.431579589843693
 70
   192
  0
VERTEX
  5
131
  8
METAL
 10
1.972724914550771
 20
-16.7605361938476
 30
-32.04150390625
 70
   192
  0
VERTEX
  5
132
  8
METAL
 10
1.972724914550771
 20
-16.7605361938476
 30
-32.04150390625
 70
   192
  0
VERTEX
  5
133
  8
METAL
 10
1.972724914550771
 20
-13.3156356811523
 30
-32.04150390625
 70
   192
  0
VERTEX
  5
134
  8
METAL
 10
1.972724914550771
 20
-13.3156356811523
 30
-32.04150390625
 70
   192
  0
VERTEX
  5
135
  8
METAL
 10
2.010620117187489
 20
-12.33070373535161
 30
-4.125900268554707
 70
   192
  0
VERTEX
  5
136
  8
METAL
 10
2.010620117187489
 20
-12.33070373535161
 30
-4.125900268554707
 70
   192
  0
VERTEX
  5
137
  8
METAL
 10
2.010620117187489
 20
-0.0000076293945384
 30
-4.125900268554696
 70
   192
  0
VERTEX
  5
138
  8
METAL
 10
2.010620117187489
 20
-0.0000076293945384
 30
-4.125900268554696
 70
   192
  0
VERTEX
  5
139
  8
METAL
 10
2.153442382812489
 20
-13.15692138671871
 30
-3.152168273925806
 70
   192
  0
VERTEX
  5
13A
  8
METAL
 10
2.153442382812489
 20
-13.15692138671871
 30
-3.152168273925806
 70
   192
  0
VERTEX
  5
13B
  8
METAL
 10
2.37880706787108
 20
-17.88678741455081
 30
-32.85426330566409
 70
   192
  0
VERTEX
  5
13C
  8
METAL
 10
2.37880706787108
 20
-17.88678741455081
 30
-32.85426330566409
 70
   192
  0
VERTEX
  5
13D
  8
METAL
 10
2.95705413818358
 20
-18.0105361938476
 30
-33.64883422851571
 70
   192
  0
VERTEX
  5
13E
  8
METAL
 10
2.95705413818358
 20
-18.0105361938476
 30
-33.64883422851571
 70
   192
  0
VERTEX
  5
13F
  8
METAL
 10
2.97581481933592
 20
-14.2041931152344
 30
-33.7177734375
 70
   192
  0
VERTEX
  5
140
  8
METAL
 10
3.250808715820298
 20
-11.8067321777344
 30
4.007690429687504
 70
   192
  0
VERTEX
  5
141
  8
METAL
 10
3.250808715820298
 20
-11.8067321777344
 30
4.007690429687504
 70
   192
  0
VERTEX
  5
142
  8
METAL
 10
3.363136291503888
 20
-17.13679504394531
 30
-34.46157836914071
 70
   192
  0
VERTEX
  5
143
  8
METAL
 10
3.363136291503888
 20
-17.13679504394531
 30
-34.46157836914071
 70
   192
  0
VERTEX
  5
144
  8
METAL
 10
3.363136291503888
 20
-15.5989227294922
 30
-34.46157836914071
 70
   192
  0
VERTEX
  5
145
  8
METAL
 10
3.401031494140611
 20
-0.0000076293945384
 30
4.957160949707003
 70
   192
  0
VERTEX
  5
146
  8
METAL
 10
3.401031494140611
 20
-0.0000076293945384
 30
4.957160949707003
 70
   192
  0
VERTEX
  5
147
  8
METAL
 10
3.401031494140611
 20
-10.6238327026367
 30
4.975967407226495
 70
   192
  0
VERTEX
  5
148
  8
METAL
 10
3.401031494140611
 20
-10.6238327026367
 30
4.975967407226495
 70
   192
  0
VERTEX
  5
149
  8
METAL
 10
4.551033020019521
 20
-12.4321823120117
 30
-4.931320190429707
 70
   192
  0
VERTEX
  5
14A
  8
METAL
 10
4.551033020019521
 20
-12.4321823120117
 30
-4.931320190429707
 70
   192
  0
VERTEX
  5
14B
  8
METAL
 10
4.551033020019521
 20
-0.0000076293945384
 30
-4.931320190429696
 70
   192
  0
VERTEX
  5
14C
  8
METAL
 10
4.551033020019521
 20
-0.0000076293945384
 30
-4.931320190429696
 70
   192
  0
VERTEX
  5
14D
  8
METAL
 10
4.582641601562489
 20
-16.6779861450195
 30
-31.28973388671881
 70
   192
  0
VERTEX
  5
14E
  8
METAL
 10
4.582641601562489
 20
-16.6779861450195
 30
-31.28973388671881
 70
   192
  0
VERTEX
  5
14F
  8
METAL
 10
4.582641601562489
 20
-13.0613250732422
 30
-31.28973388671881
 70
   192
  0
VERTEX
  5
150
  8
METAL
 10
4.582641601562489
 20
-13.0613250732422
 30
-31.28973388671881
 70
   192
  0
VERTEX
  5
151
  8
METAL
 10
4.836669921874989
 20
-13.26210784912111
 30
-3.976333618164107
 70
   192
  0
VERTEX
  5
152
  8
METAL
 10
4.836669921874989
 20
-13.26210784912111
 30
-3.976333618164107
 70
   192
  0
VERTEX
  5
153
  8
METAL
 10
5.39479827880858
 20
-17.7765731811523
 30
-31.91876220703131
 70
   192
  0
VERTEX
  5
154
  8
METAL
 10
5.39479827880858
 20
-17.7765731811523
 30
-31.91876220703131
 70
   192
  0
VERTEX
  5
155
  8
METAL
 10
6.551300048828111
 20
-17.91696929931641
 30
-32.8144836425781
 70
   192
  0
VERTEX
  5
156
  8
METAL
 10
6.551300048828111
 20
-17.91696929931641
 30
-32.8144836425781
 70
   192
  0
VERTEX
  5
157
  8
METAL
 10
6.588821411132798
 20
-13.87662506103521
 30
-32.84355163574222
 70
   192
  0
VERTEX
  5
158
  8
METAL
 10
7.031402587890611
 20
-11.95529937744141
 30
2.956779479980405
 70
   192
  0
VERTEX
  5
159
  8
METAL
 10
7.031402587890611
 20
-11.95529937744141
 30
2.956779479980405
 70
   192
  0
VERTEX
  5
15A
  8
METAL
 10
7.211921691894521
 20
-12.6922225952148
 30
-6.180381774902397
 70
   192
  0
VERTEX
  5
15B
  8
METAL
 10
7.211921691894521
 20
-12.6922225952148
 30
-6.180381774902397
 70
   192
  0
VERTEX
  5
15C
  8
METAL
 10
7.211921691894521
 20
-0.7577514648437145
 30
-6.180381774902397
 70
   192
  0
VERTEX
  5
15D
  8
METAL
 10
7.211921691894521
 20
-0.7577514648437145
 30
-6.180381774902397
 70
   192
  0
VERTEX
  5
15E
  8
METAL
 10
7.331855773925771
 20
-10.7764053344726
 30
3.905899047851495
 70
   192
  0
VERTEX
  5
15F
  8
METAL
 10
7.331855773925771
 20
-10.7764053344726
 30
3.905899047851495
 70
   192
  0
VERTEX
  5
160
  8
METAL
 10
7.331855773925771
 20
-0.0000076293945384
 30
3.905899047851495
 70
   192
  0
VERTEX
  5
161
  8
METAL
 10
7.331855773925771
 20
-0.0000076293945384
 30
3.905899047851495
 70
   192
  0
VERTEX
  5
162
  8
METAL
 10
7.363456726074201
 20
-17.0155563354492
 30
-33.44351196289071
 70
   192
  0
VERTEX
  5
163
  8
METAL
 10
7.363456726074201
 20
-17.0155563354492
 30
-33.44351196289071
 70
   192
  0
VERTEX
  5
164
  8
METAL
 10
7.363456726074201
 20
-15.19142913818361
 30
-33.44351196289071
 70
   192
  0
VERTEX
  5
165
  8
METAL
 10
7.435562133789048
 20
-16.42893218994141
 30
-29.92308044433599
 70
   192
  0
VERTEX
  5
166
  8
METAL
 10
7.435562133789048
 20
-16.42893218994141
 30
-29.92308044433599
 70
   192
  0
VERTEX
  5
167
  8
METAL
 10
7.43556976318358
 20
-12.29404449462891
 30
-29.92308044433599
 70
   192
  0
VERTEX
  5
168
  8
METAL
 10
7.43556976318358
 20
-12.29404449462891
 30
-29.92308044433599
 70
   192
  0
VERTEX
  5
169
  8
METAL
 10
7.617652893066388
 20
-13.5322341918945
 30
-5.273384094238306
 70
   192
  0
VERTEX
  5
16A
  8
METAL
 10
7.617652893066388
 20
-13.5322341918945
 30
-5.273384094238306
 70
   192
  0
VERTEX
  5
16B
  8
METAL
 10
8.35739135742186
 20
-17.4953994750976
 30
-30.32344055175781
 70
   192
  0
VERTEX
  5
16C
  8
METAL
 10
8.35739135742186
 20
-17.4953994750976
 30
-30.32344055175781
 70
   192
  0
VERTEX
  5
16D
  8
METAL
 10
9.153236389160138
 20
-12.95224761962891
 30
-7.918731689453097
 70
   192
  0
VERTEX
  5
16E
  8
METAL
 10
9.153236389160138
 20
-12.95224761962891
 30
-7.918731689453097
 70
   192
  0
VERTEX
  5
16F
  8
METAL
 10
9.153236389160138
 20
-1.515487670898409
 30
-7.918731689453097
 70
   192
  0
VERTEX
  5
170
  8
METAL
 10
9.153236389160138
 20
-1.515487670898409
 30
-7.918731689453097
 70
   192
  0
VERTEX
  5
171
  8
METAL
 10
9.384132385253888
 20
-16.17988586425781
 30
-28.20068359375
 70
   192
  0
VERTEX
  5
172
  8
METAL
 10
9.384132385253888
 20
-16.17988586425781
 30
-28.20068359375
 70
   192
  0
VERTEX
  5
173
  8
METAL
 10
9.384132385253888
 20
-11.52677154541021
 30
-28.20068359375
 70
   192
  0
VERTEX
  5
174
  8
METAL
 10
9.384132385253888
 20
-11.52677154541021
 30
-28.20068359375
 70
   192
  0
VERTEX
  5
175
  8
METAL
 10
9.67906188964842
 20
-13.8023681640625
 30
-7.059730529785195
 70
   192
  0
VERTEX
  5
176
  8
METAL
 10
9.67906188964842
 20
-13.8023681640625
 30
-7.059730529785195
 70
   192
  0
VERTEX
  5
177
  8
METAL
 10
9.958427429199201
 20
-1.881484985351605
 30
-8.653854370117198
 70
   192
  0
VERTEX
  5
178
  8
METAL
 10
9.958427429199201
 20
-1.881484985351605
 30
-8.653854370117198
 70
   192
  0
VERTEX
  5
179
  8
METAL
 10
9.966140747070298
 20
-13.09439849853521
 30
-8.659545898437496
 70
   192
  0
VERTEX
  5
17A
  8
METAL
 10
9.966140747070298
 20
-13.09439849853521
 30
-8.659545898437496
 70
   192
  0
VERTEX
  5
17B
  8
METAL
 10
10.33863067626952
 20
-17.61229705810551
 30
-31.00480651855472
 70
   192
  0
VERTEX
  5
17C
  8
METAL
 10
10.33863067626952
 20
-17.61229705810551
 30
-31.00480651855472
 70
   192
  0
VERTEX
  5
17D
  8
METAL
 10
10.3582305908203
 20
-12.82607269287111
 30
-31.01947021484381
 70
   192
  0
VERTEX
  5
17E
  8
METAL
 10
10.41562652587889
 20
-17.21421813964841
 30
-28.37236022949222
 70
   192
  0
VERTEX
  5
17F
  8
METAL
 10
10.41562652587889
 20
-17.21421813964841
 30
-28.37236022949222
 70
   192
  0
VERTEX
  5
180
  8
METAL
 10
10.59017944335936
 20
-13.95514678955081
 30
-7.870529174804705
 70
   192
  0
VERTEX
  5
181
  8
METAL
 10
10.59017944335936
 20
-13.95514678955081
 30
-7.870529174804705
 70
   192
  0
VERTEX
  5
182
  8
METAL
 10
10.60008239746092
 20
-2.247489929199205
 30
-9.323570251464897
 70
   192
  0
VERTEX
  5
183
  8
METAL
 10
10.60008239746092
 20
-2.247489929199205
 30
-9.323570251464897
 70
   192
  0
VERTEX
  5
184
  8
METAL
 10
10.61551666259764
 20
-13.23655700683591
 30
-9.334945678711005
 70
   192
  0
VERTEX
  5
185
  8
METAL
 10
10.61551666259764
 20
-13.23655700683591
 30
-9.334945678711005
 70
   192
  0
VERTEX
  5
186
  8
METAL
 10
10.62367248535155
 20
-12.33478546142581
 30
1.311164855957003
 70
   192
  0
VERTEX
  5
187
  8
METAL
 10
10.62367248535155
 20
-12.33478546142581
 30
1.311164855957003
 70
   192
  0
VERTEX
  5
188
  8
METAL
 10
11.03681182861327
 20
-11.17039489746091
 30
2.215225219726495
 70
   192
  0
VERTEX
  5
189
  8
METAL
 10
11.03681182861327
 20
-11.17039489746091
 30
2.215225219726495
 70
   192
  0
VERTEX
  5
18A
  8
METAL
 10
11.03681182861327
 20
-0.0000000000000071
 30
2.215232849121094
 70
   192
  0
VERTEX
  5
18B
  8
METAL
 10
11.03681182861327
 20
-0.0000000000000071
 30
2.215232849121094
 70
   192
  0
VERTEX
  5
18C
  8
METAL
 10
11.2604522705078
 20
-16.6787567138672
 30
-31.4051513671875
 70
   192
  0
VERTEX
  5
18D
  8
METAL
 10
11.2604522705078
 20
-16.6787567138672
 30
-31.4051513671875
 70
   192
  0
VERTEX
  5
18E
  8
METAL
 10
11.2604522705078
 20
-14.01683807373051
 30
-31.4051513671875
 70
   192
  0
VERTEX
  5
18F
  8
METAL
 10
11.33776092529295
 20
-14.10793304443361
 30
-8.615921020507795
 70
   192
  0
VERTEX
  5
190
  8
METAL
 10
11.33776092529295
 20
-14.10793304443361
 30
-8.615921020507795
 70
   192
  0
VERTEX
  5
191
  8
METAL
 10
11.50319671630858
 20
-15.80715179443361
 30
-25.88914489746099
 70
   192
  0
VERTEX
  5
192
  8
METAL
 10
11.50319671630858
 20
-15.80715179443361
 30
-25.88914489746099
 70
   192
  0
VERTEX
  5
193
  8
METAL
 10
11.50319671630858
 20
-10.3784713745117
 30
-25.88914489746099
 70
   192
  0
VERTEX
  5
194
  8
METAL
 10
11.50319671630858
 20
-10.3784713745117
 30
-25.88914489746099
 70
   192
  0
VERTEX
  5
195
  8
METAL
 10
11.59306335449217
 20
-3.029792785644503
 30
-10.8686981201172
 70
   192
  0
VERTEX
  5
196
  8
METAL
 10
11.59306335449217
 20
-3.029792785644503
 30
-10.8686981201172
 70
   192
  0
VERTEX
  5
197
  8
METAL
 10
11.60077667236327
 20
-13.4725036621094
 30
-10.8743896484375
 70
   192
  0
VERTEX
  5
198
  8
METAL
 10
11.60077667236327
 20
-13.4725036621094
 30
-10.8743896484375
 70
   192
  0
VERTEX
  5
199
  8
METAL
 10
12.33249664306639
 20
-14.351203918457
 30
-10.16325378417971
 70
   192
  0
VERTEX
  5
19A
  8
METAL
 10
12.33249664306639
 20
-14.351203918457
 30
-10.16325378417971
 70
   192
  0
VERTEX
  5
19B
  8
METAL
 10
12.53239440917967
 20
-16.81081390380861
 30
-25.87660217285158
 70
   192
  0
VERTEX
  5
19C
  8
METAL
 10
12.53239440917967
 20
-16.81081390380861
 30
-25.87660217285158
 70
   192
  0
VERTEX
  5
19D
  8
METAL
 10
12.59238433837889
 20
-15.43442535400391
 30
-23.57759094238281
 70
   192
  0
VERTEX
  5
19E
  8
METAL
 10
12.59238433837889
 20
-15.43442535400391
 30
-23.57759094238281
 70
   192
  0
VERTEX
  5
19F
  8
METAL
 10
12.59238433837889
 20
-9.230163574218707
 30
-23.57759094238281
 70
   192
  0
VERTEX
  5
1A0
  8
METAL
 10
12.59238433837889
 20
-9.230163574218707
 30
-23.57759094238281
 70
   192
  0
VERTEX
  5
1A1
  8
METAL
 10
12.59239196777342
 20
-13.7084579467773
 30
-12.6709823608399
 70
   192
  0
VERTEX
  5
1A2
  8
METAL
 10
12.59239196777342
 20
-13.7084579467773
 30
-12.6709823608399
 70
   192
  0
VERTEX
  5
1A3
  8
METAL
 10
12.59239196777342
 20
-3.812095642089801
 30
-12.6709823608399
 70
   192
  0
VERTEX
  5
1A4
  8
METAL
 10
12.59239196777342
 20
-3.812095642089801
 30
-12.6709823608399
 70
   192
  0
VERTEX
  5
1A5
  8
METAL
 10
13.22160339355467
 20
-17.3076248168945
 30
-28.83937072753908
 70
   192
  0
VERTEX
  5
1A6
  8
METAL
 10
13.22160339355467
 20
-17.3076248168945
 30
-28.83937072753908
 70
   192
  0
VERTEX
  5
1A7
  8
METAL
 10
13.22329711914061
 20
-11.775520324707
 30
-28.83966064453131
 70
   192
  0
VERTEX
  5
1A8
  8
METAL
 10
13.22329711914061
 20
-11.775520324707
 30
-28.83966064453131
 70
   192
  0
VERTEX
  5
1A9
  8
METAL
 10
13.33358764648436
 20
-14.594482421875
 30
-11.96774291992191
 70
   192
  0
VERTEX
  5
1AA
  8
METAL
 10
13.33358764648436
 20
-14.594482421875
 30
-11.96774291992191
 70
   192
  0
VERTEX
  5
1AB
  8
METAL
 10
13.34210205078124
 20
-14.1317672729492
 30
-15.2726974487305
 70
   192
  0
VERTEX
  5
1AC
  8
METAL
 10
13.34210205078124
 20
-14.1317672729492
 30
-15.2726974487305
 70
   192
  0
VERTEX
  5
1AD
  8
METAL
 10
13.34210205078124
 20
-5.166618347168011
 30
-15.2726974487305
 70
   192
  0
VERTEX
  5
1AE
  8
METAL
 10
13.34210205078124
 20
-5.166618347168011
 30
-15.2726974487305
 70
   192
  0
VERTEX
  5
1AF
  8
METAL
 10
13.49636840820311
 20
-12.71426391601561
 30
-0.8237304687499964
 70
   192
  0
VERTEX
  5
1B0
  8
METAL
 10
13.49636840820311
 20
-12.71426391601561
 30
-0.8237304687499964
 70
   192
  0
VERTEX
  5
1B1
  8
METAL
 10
13.53835296630858
 20
-14.994758605957
 30
-20.8475875854492
 70
   192
  0
VERTEX
  5
1B2
  8
METAL
 10
13.53835296630858
 20
-14.994758605957
 30
-20.8475875854492
 70
   192
  0
VERTEX
  5
1B3
  8
METAL
 10
13.53835296630858
 20
-7.875648498535213
 30
-20.8475875854492
 70
   192
  0
VERTEX
  5
1B4
  8
METAL
 10
13.53835296630858
 20
-7.875648498535213
 30
-20.8475875854492
 70
   192
  0
VERTEX
  5
1B5
  8
METAL
 10
13.61928558349608
 20
-16.40741729736331
 30
-23.38084411621099
 70
   192
  0
VERTEX
  5
1B6
  8
METAL
 10
13.61928558349608
 20
-16.40741729736331
 30
-23.38084411621099
 70
   192
  0
VERTEX
  5
1B7
  8
METAL
 10
13.71897888183592
 20
-14.55509185791021
 30
-18.12428283691411
 70
   192
  0
VERTEX
  5
1B8
  8
METAL
 10
13.71897888183592
 20
-14.55509185791021
 30
-18.12428283691411
 70
   192
  0
VERTEX
  5
1B9
  8
METAL
 10
13.71897888183592
 20
-6.521125793457003
 30
-18.12428283691411
 70
   192
  0
VERTEX
  5
1BA
  8
METAL
 10
13.71897888183592
 20
-6.521125793457003
 30
-18.12428283691411
 70
   192
  0
VERTEX
  5
1BB
  8
METAL
 10
14.02220153808592
 20
-11.5643844604492
 30
0.0352630615233931
 70
   192
  0
VERTEX
  5
1BC
  8
METAL
 10
14.02220153808592
 20
-11.5643844604492
 30
0.0352630615233931
 70
   192
  0
VERTEX
  5
1BD
  8
METAL
 10
14.02220153808592
 20
-0.0000000000000071
 30
0.035270690917903
 70
   192
  0
VERTEX
  5
1BE
  8
METAL
 10
14.02220153808592
 20
-0.0000000000000071
 30
0.035270690917903
 70
   192
  0
VERTEX
  5
1BF
  8
METAL
 10
14.1704635620117
 20
-15.03773498535161
 30
-14.67900085449221
 70
   192
  0
VERTEX
  5
1C0
  8
METAL
 10
14.1704635620117
 20
-15.03773498535161
 30
-14.67900085449221
 70
   192
  0
VERTEX
  5
1C1
  8
METAL
 10
14.25309753417967
 20
-16.3419647216797
 30
-29.01104736328131
 70
   192
  0
VERTEX
  5
1C2
  8
METAL
 10
14.25309753417967
 20
-16.3419647216797
 30
-29.01104736328131
 70
   192
  0
VERTEX
  5
1C3
  8
METAL
 10
14.25309753417967
 20
-12.84223937988281
 30
-29.01104736328131
 70
   192
  0
VERTEX
  5
1C4
  8
METAL
 10
14.50956726074217
 20
-15.94420623779301
 30
-20.5071334838867
 70
   192
  0
VERTEX
  5
1C5
  8
METAL
 10
14.50956726074217
 20
-15.94420623779301
 30
-20.5071334838867
 70
   192
  0
VERTEX
  5
1C6
  8
METAL
 10
14.63450622558592
 20
-15.48098754882811
 30
-17.64012145996101
 70
   192
  0
VERTEX
  5
1C7
  8
METAL
 10
14.63450622558592
 20
-15.48098754882811
 30
-17.64012145996101
 70
   192
  0
VERTEX
  5
1C8
  8
METAL
 10
14.84358978271483
 20
-12.99277496337891
 30
-2.410995483398507
 70
   192
  0
VERTEX
  5
1C9
  8
METAL
 10
14.84358978271483
 20
-12.99277496337891
 30
-2.410995483398507
 70
   192
  0
VERTEX
  5
1CA
  8
METAL
 10
15.46697998046874
 20
-11.8535232543945
 30
-1.621505737304696
 70
   192
  0
VERTEX
  5
1CB
  8
METAL
 10
15.46697998046874
 20
-11.8535232543945
 30
-1.621505737304696
 70
   192
  0
VERTEX
  5
1CC
  8
METAL
 10
15.46698760986327
 20
-0.0000000000000071
 30
-1.621505737304696
 70
   192
  0
VERTEX
  5
1CD
  8
METAL
 10
15.46698760986327
 20
-0.0000000000000071
 30
-1.621505737304696
 70
   192
  0
VERTEX
  5
1CE
  8
METAL
 10
16.02726745605467
 20
-13.2712860107422
 30
-3.932846069336007
 70
   192
  0
VERTEX
  5
1CF
  8
METAL
 10
16.02726745605467
 20
-13.2712860107422
 30
-3.932846069336007
 70
   192
  0
VERTEX
  5
1D0
  8
METAL
 10
16.04059600830077
 20
-16.80216217041021
 30
-25.7067565917969
 70
   192
  0
VERTEX
  5
1D1
  8
METAL
 10
16.04059600830077
 20
-16.80216217041021
 30
-25.7067565917969
 70
   192
  0
VERTEX
  5
1D2
  8
METAL
 10
16.04412841796874
 20
-10.2317352294922
 30
-25.7063903808594
 70
   192
  0
VERTEX
  5
1D3
  8
METAL
 10
16.04412841796874
 20
-10.2317352294922
 30
-25.7063903808594
 70
   192
  0
VERTEX
  5
1D4
  8
METAL
 10
16.74822998046874
 20
-12.1426620483398
 30
-3.212875366211007
 70
   192
  0
VERTEX
  5
1D5
  8
METAL
 10
16.74822998046874
 20
-12.1426620483398
 30
-3.212875366211007
 70
   192
  0
VERTEX
  5
1D6
  8
METAL
 10
16.74822998046874
 20
-0.0000000000000071
 30
-3.212875366211007
 70
   192
  0
VERTEX
  5
1D7
  8
METAL
 10
16.74822998046874
 20
-0.0000000000000071
 30
-3.212875366211007
 70
   192
  0
VERTEX
  5
1D8
  8
METAL
 10
16.74822998046874
 20
-0.0000000000000071
 30
-3.212875366211007
 70
   192
  0
VERTEX
  5
1D9
  8
METAL
 10
17.0681686401367
 20
-13.5652389526367
 30
-5.553237915039105
 70
   192
  0
VERTEX
  5
1DA
  8
METAL
 10
17.0681686401367
 20
-13.5652389526367
 30
-5.553237915039105
 70
   192
  0
VERTEX
  5
1DB
  8
METAL
 10
17.06979370117186
 20
-15.80582427978521
 30
-25.69422912597658
 70
   192
  0
VERTEX
  5
1DC
  8
METAL
 10
17.06979370117186
 20
-15.80582427978521
 30
-25.69422912597658
 70
   192
  0
VERTEX
  5
1DD
  8
METAL
 10
17.06979370117186
 20
-11.21227264404301
 30
-25.69422912597658
 70
   192
  0
VERTEX
  5
1DE
  8
METAL
 10
17.06979370117186
 20
-11.21227264404301
 30
-25.69422912597658
 70
   192
  0
VERTEX
  5
1DF
  8
METAL
 10
17.44666290283202
 20
-0.6191711425781179
 30
-5.176170349121108
 70
   192
  0
VERTEX
  5
1E0
  8
METAL
 10
17.44666290283202
 20
-0.6191711425781179
 30
-5.176170349121108
 70
   192
  0
VERTEX
  5
1E1
  8
METAL
 10
17.7992477416992
 20
-12.44394683837891
 30
-4.841636657714897
 70
   192
  0
VERTEX
  5
1E2
  8
METAL
 10
17.7992477416992
 20
-12.44394683837891
 30
-4.841636657714897
 70
   192
  0
VERTEX
  5
1E3
  8
METAL
 10
17.7992477416992
 20
-0.9559249877930185
 30
-4.841636657714897
 70
   192
  0
VERTEX
  5
1E4
  8
METAL
 10
17.7992477416992
 20
-0.9559249877930185
 30
-4.841636657714897
 70
   192
  0
VERTEX
  5
1E5
  8
METAL
 10
17.82971191406249
 20
-16.2966842651367
 30
-22.57414245605472
 70
   192
  0
VERTEX
  5
1E6
  8
METAL
 10
17.82971191406249
 20
-16.2966842651367
 30
-22.57414245605472
 70
   192
  0
VERTEX
  5
1E7
  8
METAL
 10
17.83508300781249
 20
-8.687950134277301
 30
-22.5731201171875
 70
   192
  0
VERTEX
  5
1E8
  8
METAL
 10
17.83508300781249
 20
-8.687950134277301
 30
-22.5731201171875
 70
   192
  0
VERTEX
  5
1E9
  8
METAL
 10
18.11541748046874
 20
-13.85919189453121
 30
-7.430786132812496
 70
   192
  0
VERTEX
  5
1EA
  8
METAL
 10
18.11541748046874
 20
-13.85919189453121
 30
-7.430786132812496
 70
   192
  0
VERTEX
  5
1EB
  8
METAL
 10
18.1514434814453
 20
-1.238342285156214
 30
-7.396606445312496
 70
   192
  0
VERTEX
  5
1EC
  8
METAL
 10
18.1514434814453
 20
-1.238342285156214
 30
-7.396606445312496
 70
   192
  0
VERTEX
  5
1ED
  8
METAL
 10
18.85661315917967
 20
-15.26968383789061
 30
-22.37739562988281
 70
   192
  0
VERTEX
  5
1EE
  8
METAL
 10
18.85661315917967
 20
-15.26968383789061
 30
-22.37739562988281
 70
   192
  0
VERTEX
  5
1EF
  8
METAL
 10
18.85661315917967
 20
-9.58230590820311
 30
-22.37739562988281
 70
   192
  0
VERTEX
  5
1F0
  8
METAL
 10
18.85661315917967
 20
-9.58230590820311
 30
-22.37739562988281
 70
   192
  0
VERTEX
  5
1F1
  8
METAL
 10
18.85661315917967
 20
-12.74522399902341
 30
-6.727546691894606
 70
   192
  0
VERTEX
  5
1F2
  8
METAL
 10
18.85661315917967
 20
-12.74522399902341
 30
-6.727546691894606
 70
   192
  0
VERTEX
  5
1F3
  8
METAL
 10
18.85661315917967
 20
-1.911857604980511
 30
-6.727546691894595
 70
   192
  0
VERTEX
  5
1F4
  8
METAL
 10
18.85661315917967
 20
-1.911857604980511
 30
-6.727546691894595
 70
   192
  0
VERTEX
  5
1F5
  8
METAL
 10
19.02293395996092
 20
-14.47086334228521
 30
-11.10877227783211
 70
   192
  0
VERTEX
  5
1F6
  8
METAL
 10
19.02293395996092
 20
-14.47086334228521
 30
-11.10877227783211
 70
   192
  0
VERTEX
  5
1F7
  8
METAL
 10
19.05291748046874
 20
-3.095932006835909
 30
-11.08535003662111
 70
   192
  0
VERTEX
  5
1F8
  8
METAL
 10
19.05291748046874
 20
-3.095932006835909
 30
-11.08535003662111
 70
   192
  0
VERTEX
  5
1F9
  8
METAL
 10
19.07633972167967
 20
-15.68961334228521
 30
-18.8020324707031
 70
   192
  0
VERTEX
  5
1FA
  8
METAL
 10
19.07633972167967
 20
-15.68961334228521
 30
-18.8020324707031
 70
   192
  0
VERTEX
  5
1FB
  8
METAL
 10
19.0909957885742
 20
-6.820739746093707
 30
-18.79518890380861
 70
   192
  0
VERTEX
  5
1FC
  8
METAL
 10
19.0909957885742
 20
-6.820739746093707
 30
-18.79518890380861
 70
   192
  0
VERTEX
  5
1FD
  8
METAL
 10
19.55761718749999
 20
-15.08253479003911
 30
-15.03662872314461
 70
   192
  0
VERTEX
  5
1FE
  8
METAL
 10
19.55761718749999
 20
-15.08253479003911
 30
-15.03662872314461
 70
   192
  0
VERTEX
  5
1FF
  8
METAL
 10
19.58156585693358
 20
-4.953521728515611
 30
-15.0239639282227
 70
   192
  0
VERTEX
  5
200
  8
METAL
 10
19.58156585693358
 20
-4.953521728515611
 30
-15.0239639282227
 70
   192
  0
VERTEX
  5
201
  8
METAL
 10
19.85129547119139
 20
-13.3768310546875
 30
-10.51507568359381
 70
   192
  0
VERTEX
  5
202
  8
METAL
 10
19.85129547119139
 20
-13.3768310546875
 30
-10.51507568359381
 70
   192
  0
VERTEX
  5
203
  8
METAL
 10
19.85129547119139
 20
-3.813484191894503
 30
-10.51507568359381
 70
   192
  0
VERTEX
  5
204
  8
METAL
 10
19.85129547119139
 20
-3.813484191894503
 30
-10.51507568359381
 70
   192
  0
VERTEX
  5
205
  8
METAL
 10
20.04754638671874
 20
-14.63906097412111
 30
-18.46157836914071
 70
   192
  0
VERTEX
  5
206
  8
METAL
 10
20.04754638671874
 20
-14.63906097412111
 30
-18.46157836914071
 70
   192
  0
VERTEX
  5
207
  8
METAL
 10
20.04754638671874
 20
-7.648712158203111
 30
-18.46157836914071
 70
   192
  0
VERTEX
  5
208
  8
METAL
 10
20.04754638671874
 20
-7.648712158203111
 30
-18.46157836914071
 70
   192
  0
VERTEX
  5
209
  8
METAL
 10
20.47314453124999
 20
-14.00843811035161
 30
-14.55246734619141
 70
   192
  0
VERTEX
  5
20A
  8
METAL
 10
20.47314453124999
 20
-14.00843811035161
 30
-14.55246734619141
 70
   192
  0
VERTEX
  5
20B
  8
METAL
 10
20.47314453124999
 20
-5.715118408203111
 30
-14.55246734619141
 70
   192
  0
VERTEX
  5
20C
  8
METAL
 10
20.47314453124999
 20
-5.715118408203111
 30
-14.55246734619141
 70
   192
  0
VERTEX
  5
20D
  8
METAL
 10
0.0
 20
0.0
 30
0.0
 70
   128
 71
   462
 72
   458
 73
   460
 74
   464
  0
VERTEX
  5
20E
  8
METAL
 10
0.0
 20
0.0
 30
0.0
 70
   128
 71
   434
 72
   416
 73
   418
 74
   436
  0
VERTEX
  5
20F
  8
METAL
 10
0.0
 20
0.0
 30
0.0
 70
   128
 71
   390
 72
   337
 73
   338
 74
   391
  0
VERTEX
  5
210
  8
METAL
 10
0.0
 20
0.0
 30
0.0
 70
   128
 71
   295
 72
   263
 73
   264
 74
   296
  0
VERTEX
  5
211
  8
METAL
 10
0.0
 20
0.0
 30
0.0
 70
   128
 71
   243
 72
   268
 73
   266
 74
   241
  0
VERTEX
  5
212
  8
METAL
 10
0.0
 20
0.0
 30
0.0
 70
   128
 71
   291
 72
   333
 73
   335
 74
   293
  0
VERTEX
  5
213
  8
METAL
 10
0.0
 20
0.0
 30
0.0
 70
   128
 71
   384
 72
   399
 73
   401
 74
   386
  0
VERTEX
  5
214
  8
METAL
 10
0.0
 20
0.0
 30
0.0
 70
   128
 71
   438
 72
   454
 73
   456
 74
   440
  0
VERTEX
  5
215
  8
METAL
 10
0.0
 20
0.0
 30
0.0
 70
   128
 71
   432
 72
   420
 73
   423
 74
   439
  0
VERTEX
  5
216
  8
METAL
 10
0.0
 20
0.0
 30
0.0
 70
   128
 71
   308
 72
   289
 73
   385
 74
   385
  0
VERTEX
  5
217
  8
METAL
 10
0.0
 20
0.0
 30
0.0
 70
   128
 71
   311
 72
   309
 73
   341
 74
   343
  0
VERTEX
  5
218
  8
METAL
 10
0.0
 20
0.0
 30
0.0
 70
   128
 71
   326
 72
   328
 73
   317
 74
   315
  0
VERTEX
  5
219
  8
METAL
 10
0.0
 20
0.0
 30
0.0
 70
   128
 71
   357
 72
   359
 73
   369
 74
   367
  0
VERTEX
  5
21A
  8
METAL
 10
0.0
 20
0.0
 30
0.0
 70
   128
 71
   379
 72
   381
 73
   375
 74
   373
  0
VERTEX
  5
21B
  8
METAL
 10
0.0
 20
0.0
 30
0.0
 70
   128
 71
   297
 72
   299
 73
   275
 74
   273
  0
VERTEX
  5
21C
  8
METAL
 10
0.0
 20
0.0
 30
0.0
 70
   128
 71
   287
 72
   288
 73
   307
 74
   305
  0
VERTEX
  5
21D
  8
METAL
 10
0.0
 20
0.0
 30
0.0
 70
   128
 71
   271
 72
   270
 73
   250
 74
   251
  0
VERTEX
  5
21E
  8
METAL
 10
0.0
 20
0.0
 30
0.0
 70
   128
 71
   276
 72
   283
 73
   259
 74
   248
  0
VERTEX
  5
21F
  8
METAL
 10
0.0
 20
0.0
 30
0.0
 70
   128
 71
   281
 72
   319
 73
   304
 74
   280
  0
VERTEX
  5
220
  8
METAL
 10
0.0
 20
0.0
 30
0.0
 70
   128
 71
   312
 72
   363
 73
   321
 74
   300
  0
VERTEX
  5
221
  8
METAL
 10
0.0
 20
0.0
 30
0.0
 70
   128
 71
   361
 72
   404
 73
   352
 74
   323
  0
VERTEX
  5
222
  8
METAL
 10
0.0
 20
0.0
 30
0.0
 70
   128
 71
   356
 72
   427
 73
   406
 74
   344
  0
VERTEX
  5
223
  8
METAL
 10
0.0
 20
0.0
 30
0.0
 70
   128
 71
   425
 72
   445
 73
   393
 74
   378
  0
VERTEX
  5
224
  8
METAL
 10
0.0
 20
0.0
 30
0.0
 70
   128
 71
   382
 72
   451
 73
   447
 74
   376
  0
VERTEX
  5
225
  8
METAL
 10
0.0
 20
0.0
 30
0.0
 70
   128
 71
   449
 72
   441
 73
   388
 74
   395
  0
VERTEX
  5
226
  8
METAL
 10
0.0
 20
0.0
 30
0.0
 70
   128
 71
   360
 72
   431
 73
   443
 74
   370
  0
VERTEX
  5
227
  8
METAL
 10
0.0
 20
0.0
 30
0.0
 70
   128
 71
   272
 72
   252
 73
   265
 74
   292
  0
VERTEX
  5
228
  8
METAL
 10
0.0
 20
0.0
 30
0.0
 70
   128
 71
   278
 72
   302
 73
   330
 74
   284
  0
VERTEX
  5
229
  8
METAL
 10
0.0
 20
0.0
 30
0.0
 70
   128
 71
   308
 72
   385
 73
   400
 74
   316
  0
VERTEX
  5
22A
  8
METAL
 10
0.0
 20
0.0
 30
0.0
 70
   128
 71
   314
 72
   325
 73
   396
 74
   371
  0
VERTEX
  5
22B
  8
METAL
 10
0.0
 20
0.0
 30
0.0
 70
   128
 71
   340
 72
   350
 73
   413
 74
   402
  0
VERTEX
  5
22C
  8
METAL
 10
0.0
 20
0.0
 30
0.0
 70
   128
 71
   238
 72
   254
 73
   260
 74
   239
  0
VERTEX
  5
22D
  8
METAL
 10
0.0
 20
0.0
 30
0.0
 70
   128
 71
   231
 72
   229
 73
   245
 74
   247
  0
VERTEX
  5
22E
  8
METAL
 10
0.0
 20
0.0
 30
0.0
 70
   128
 71
   225
 72
   257
 73
   256
 74
   228
  0
VERTEX
  5
22F
  8
METAL
 10
0.0
 20
0.0
 30
0.0
 70
   128
 71
   377
 72
   392
 73
   374
 74
   354
  0
VERTEX
  5
230
  8
METAL
 10
0.0
 20
0.0
 30
0.0
 70
   128
 71
   322
 72
   351
 73
   342
 74
   310
  0
VERTEX
  5
231
  8
METAL
 10
0.0
 20
0.0
 30
0.0
 70
   128
 71
   279
 72
   303
 73
   298
 74
   274
  0
VERTEX
  5
232
  8
METAL
 10
0.0
 20
0.0
 30
0.0
 70
   128
 71
   253
 72
   249
 73
   269
 74
   277
  0
VERTEX
  5
233
  8
METAL
 10
0.0
 20
0.0
 30
0.0
 70
   128
 71
   313
 72
   301
 73
   286
 74
   306
  0
VERTEX
  5
234
  8
METAL
 10
0.0
 20
0.0
 30
0.0
 70
   128
 71
   394
 72
   387
 73
   368
 74
   380
  0
VERTEX
  5
235
  8
METAL
 10
0.0
 20
0.0
 30
0.0
 70
   128
 71
   365
 72
   349
 73
   348
 74
   358
  0
VERTEX
  5
236
  8
METAL
 10
0.0
 20
0.0
 30
0.0
 70
   128
 71
   255
 72
   246
 73
   230
 74
   227
  0
VERTEX
  5
237
  8
METAL
 10
0.0
 20
0.0
 30
0.0
 70
   128
 71
   339
 72
   324
 73
   318
 74
   329
  0
VERTEX
  5
238
  8
METAL
 10
0.0
 20
0.0
 30
0.0
 70
   128
 71
   433
 72
   457
 73
   446
 74
   426
  0
VERTEX
  5
239
  8
METAL
 10
0.0
 20
0.0
 30
0.0
 70
   128
 71
   389
 72
   415
 73
   405
 74
   362
  0
VERTEX
  5
23A
  8
METAL
 10
0.0
 20
0.0
 30
0.0
 70
   128
 71
   294
 72
   336
 73
   320
 74
   282
  0
VERTEX
  5
23B
  8
METAL
 10
0.0
 20
0.0
 30
0.0
 70
   128
 71
   221
 72
   262
 73
   258
 74
   226
  0
VERTEX
  5
23C
  8
METAL
 10
0.0
 20
0.0
 30
0.0
 70
   128
 71
   290
 72
   267
 73
   261
 74
   285
  0
VERTEX
  5
23D
  8
METAL
 10
0.0
 20
0.0
 30
0.0
 70
   128
 71
   383
 72
   332
 73
   331
 74
   372
  0
VERTEX
  5
23E
  8
METAL
 10
0.0
 20
0.0
 30
0.0
 70
   128
 71
   461
 72
   453
 73
   442
 74
   450
  0
VERTEX
  5
23F
  8
METAL
 10
0.0
 20
0.0
 30
0.0
 70
   128
 71
   408
 72
   398
 73
   397
 74
   403
  0
VERTEX
  5
240
  8
METAL
 10
0.0
 20
0.0
 30
0.0
 70
   128
 71
   437
 72
   421
 73
   414
 74
   430
  0
VERTEX
  5
241
  8
METAL
 10
0.0
 20
0.0
 30
0.0
 70
   128
 71
   459
 72
   448
 73
   452
 74
   463
  0
VERTEX
  5
242
  8
METAL
 10
0.0
 20
0.0
 30
0.0
 70
   128
 71
   417
 72
   407
 73
   428
 74
   435
  0
VERTEX
  5
243
  8
METAL
 10
0.0
 20
0.0
 30
0.0
 70
   128
 71
   338
 72
   321
 73
   364
 74
   391
  0
VERTEX
  5
244
  8
METAL
 10
0.0
 20
0.0
 30
0.0
 70
   128
 71
   264
 72
   259
 73
   283
 74
   296
  0
VERTEX
  5
245
  8
METAL
 10
0.0
 20
0.0
 30
0.0
 70
   128
 71
   455
 72
   444
 73
   432
 74
   439
  0
VERTEX
  5
246
  8
METAL
 10
0.0
 20
0.0
 30
0.0
 70
   128
 71
   440
 72
   424
 73
   422
 74
   438
  0
VERTEX
  5
247
  8
METAL
 10
0.0
 20
0.0
 30
0.0
 70
   128
 71
   419
 72
   346
 73
   327
 74
   410
  0
VERTEX
  5
248
  8
METAL
 10
0.0
 20
0.0
 30
0.0
 70
   128
 71
   347
 72
   345
 73
   359
 74
   357
  0
VERTEX
  5
249
  8
METAL
 10
0.0
 20
0.0
 30
0.0
 70
   128
 71
   272
 72
   292
 73
   334
 74
   385
  0
VERTEX
  5
24A
  8
METAL
 10
0.0
 20
0.0
 30
0.0
 70
   128
 71
   458
 72
   434
 73
   436
 74
   460
  0
VERTEX
  5
24B
  8
METAL
 10
0.0
 20
0.0
 30
0.0
 70
   128
 71
   416
 72
   390
 73
   391
 74
   418
  0
VERTEX
  5
24C
  8
METAL
 10
0.0
 20
0.0
 30
0.0
 70
   128
 71
   337
 72
   295
 73
   296
 74
   338
  0
VERTEX
  5
24D
  8
METAL
 10
0.0
 20
0.0
 30
0.0
 70
   128
 71
   263
 72
   222
 73
   223
 74
   264
  0
VERTEX
  5
24E
  8
METAL
 10
0.0
 20
0.0
 30
0.0
 70
   128
 71
   268
 72
   291
 73
   293
 74
   266
  0
VERTEX
  5
24F
  8
METAL
 10
0.0
 20
0.0
 30
0.0
 70
   128
 71
   333
 72
   384
 73
   386
 74
   335
  0
VERTEX
  5
250
  8
METAL
 10
0.0
 20
0.0
 30
0.0
 70
   128
 71
   399
 72
   409
 73
   412
 74
   401
  0
VERTEX
  5
251
  8
METAL
 10
0.0
 20
0.0
 30
0.0
 70
   128
 71
   454
 72
   462
 73
   464
 74
   456
  0
VERTEX
  5
252
  8
METAL
 10
0.0
 20
0.0
 30
0.0
 70
   128
 71
   420
 72
   411
 73
   423
 74
   423
  0
VERTEX
  5
253
  8
METAL
 10
0.0
 20
0.0
 30
0.0
 70
   128
 71
   353
 72
   355
 73
   343
 74
   341
  0
VERTEX
  5
254
  8
METAL
 10
0.0
 20
0.0
 30
0.0
 70
   128
 71
   305
 72
   307
 73
   315
 74
   317
  0
VERTEX
  5
255
  8
METAL
 10
0.0
 20
0.0
 30
0.0
 70
   128
 71
   381
 72
   379
 73
   367
 74
   369
  0
VERTEX
  5
256
  8
METAL
 10
0.0
 20
0.0
 30
0.0
 70
   128
 71
   355
 72
   353
 73
   373
 74
   375
  0
VERTEX
  5
257
  8
METAL
 10
0.0
 20
0.0
 30
0.0
 70
   128
 71
   309
 72
   311
 73
   299
 74
   297
  0
VERTEX
  5
258
  8
METAL
 10
0.0
 20
0.0
 30
0.0
 70
   128
 71
   270
 72
   271
 73
   288
 74
   287
  0
VERTEX
  5
259
  8
METAL
 10
0.0
 20
0.0
 30
0.0
 70
   128
 71
   234
 72
   236
 73
   251
 74
   250
  0
VERTEX
  5
25A
  8
METAL
 10
0.0
 20
0.0
 30
0.0
 70
   128
 71
   224
 72
   232
 73
   248
 74
   259
  0
VERTEX
  5
25B
  8
METAL
 10
0.0
 20
0.0
 30
0.0
 70
   128
 71
   319
 72
   361
 73
   323
 74
   304
  0
VERTEX
  5
25C
  8
METAL
 10
0.0
 20
0.0
 30
0.0
 70
   128
 71
   283
 72
   276
 73
   300
 74
   321
  0
VERTEX
  5
25D
  8
METAL
 10
0.0
 20
0.0
 30
0.0
 70
   128
 71
   404
 72
   425
 73
   378
 74
   352
  0
VERTEX
  5
25E
  8
METAL
 10
0.0
 20
0.0
 30
0.0
 70
   128
 71
   363
 72
   312
 73
   344
 74
   406
  0
VERTEX
  5
25F
  8
METAL
 10
0.0
 20
0.0
 30
0.0
 70
   128
 71
   445
 72
   449
 73
   395
 74
   393
  0
VERTEX
  5
260
  8
METAL
 10
0.0
 20
0.0
 30
0.0
 70
   128
 71
   427
 72
   356
 73
   376
 74
   447
  0
VERTEX
  5
261
  8
METAL
 10
0.0
 20
0.0
 30
0.0
 70
   128
 71
   441
 72
   429
 73
   366
 74
   388
  0
VERTEX
  5
262
  8
METAL
 10
0.0
 20
0.0
 30
0.0
 70
   128
 71
   451
 72
   382
 73
   370
 74
   443
  0
VERTEX
  5
263
  8
METAL
 10
0.0
 20
0.0
 30
0.0
 70
   128
 71
   235
 72
   242
 73
   265
 74
   252
  0
VERTEX
  5
264
  8
METAL
 10
0.0
 20
0.0
 30
0.0
 70
   128
 71
   302
 72
   314
 73
   371
 74
   330
  0
VERTEX
  5
265
  8
METAL
 10
0.0
 20
0.0
 30
0.0
 70
   128
 71
   410
 72
   327
 73
   316
 74
   400
  0
VERTEX
  5
266
  8
METAL
 10
0.0
 20
0.0
 30
0.0
 70
   128
 71
   325
 72
   340
 73
   402
 74
   396
  0
VERTEX
  5
267
  8
METAL
 10
0.0
 20
0.0
 30
0.0
 70
   128
 71
   350
 72
   366
 73
   429
 74
   413
  0
VERTEX
  5
268
  8
METAL
 10
0.0
 20
0.0
 30
0.0
 70
   128
 71
   278
 72
   284
 73
   260
 74
   254
  0
VERTEX
  5
269
  8
METAL
 10
0.0
 20
0.0
 30
0.0
 70
   128
 71
   273
 72
   275
 73
   247
 74
   245
  0
VERTEX
  5
26A
  8
METAL
 10
0.0
 20
0.0
 30
0.0
 70
   128
 71
   257
 72
   281
 73
   280
 74
   256
  0
VERTEX
  5
26B
  8
METAL
 10
0.0
 20
0.0
 30
0.0
 70
   128
 71
   392
 72
   394
 73
   380
 74
   374
  0
VERTEX
  5
26C
  8
METAL
 10
0.0
 20
0.0
 30
0.0
 70
   128
 71
   351
 72
   377
 73
   354
 74
   342
  0
VERTEX
  5
26D
  8
METAL
 10
0.0
 20
0.0
 30
0.0
 70
   128
 71
   303
 72
   322
 73
   310
 74
   298
  0
VERTEX
  5
26E
  8
METAL
 10
0.0
 20
0.0
 30
0.0
 70
   128
 71
   253
 72
   237
 73
   233
 74
   249
  0
VERTEX
  5
26F
  8
METAL
 10
0.0
 20
0.0
 30
0.0
 70
   128
 71
   301
 72
   277
 73
   269
 74
   286
  0
VERTEX
  5
270
  8
METAL
 10
0.0
 20
0.0
 30
0.0
 70
   128
 71
   387
 72
   365
 73
   358
 74
   368
  0
VERTEX
  5
271
  8
METAL
 10
0.0
 20
0.0
 30
0.0
 70
   128
 71
   349
 72
   339
 73
   329
 74
   348
  0
VERTEX
  5
272
  8
METAL
 10
0.0
 20
0.0
 30
0.0
 70
   128
 71
   255
 72
   279
 73
   274
 74
   246
  0
VERTEX
  5
273
  8
METAL
 10
0.0
 20
0.0
 30
0.0
 70
   128
 71
   324
 72
   313
 73
   306
 74
   318
  0
VERTEX
  5
274
  8
METAL
 10
0.0
 20
0.0
 30
0.0
 70
   128
 71
   457
 72
   461
 73
   450
 74
   446
  0
VERTEX
  5
275
  8
METAL
 10
0.0
 20
0.0
 30
0.0
 70
   128
 71
   415
 72
   433
 73
   426
 74
   405
  0
VERTEX
  5
276
  8
METAL
 10
0.0
 20
0.0
 30
0.0
 70
   128
 71
   336
 72
   389
 73
   362
 74
   320
  0
VERTEX
  5
277
  8
METAL
 10
0.0
 20
0.0
 30
0.0
 70
   128
 71
   262
 72
   294
 73
   282
 74
   258
  0
VERTEX
  5
278
  8
METAL
 10
0.0
 20
0.0
 30
0.0
 70
   128
 71
   267
 72
   244
 73
   240
 74
   261
  0
VERTEX
  5
279
  8
METAL
 10
0.0
 20
0.0
 30
0.0
 70
   128
 71
   332
 72
   290
 73
   285
 74
   331
  0
VERTEX
  5
27A
  8
METAL
 10
0.0
 20
0.0
 30
0.0
 70
   128
 71
   453
 72
   437
 73
   430
 74
   442
  0
VERTEX
  5
27B
  8
METAL
 10
0.0
 20
0.0
 30
0.0
 70
   128
 71
   398
 72
   383
 73
   372
 74
   397
  0
VERTEX
  5
27C
  8
METAL
 10
0.0
 20
0.0
 30
0.0
 70
   128
 71
   421
 72
   408
 73
   403
 74
   414
  0
VERTEX
  5
27D
  8
METAL
 10
0.0
 20
0.0
 30
0.0
 70
   128
 71
   435
 72
   428
 73
   448
 74
   459
  0
VERTEX
  5
27E
  8
METAL
 10
0.0
 20
0.0
 30
0.0
 70
   128
 71
   391
 72
   364
 73
   407
 74
   417
  0
VERTEX
  5
27F
  8
METAL
 10
0.0
 20
0.0
 30
0.0
 70
   128
 71
   296
 72
   283
 73
   321
 74
   338
  0
VERTEX
  5
280
  8
METAL
 10
0.0
 20
0.0
 30
0.0
 70
   128
 71
   264
 72
   223
 73
   224
 74
   259
  0
VERTEX
  5
281
  8
METAL
 10
0.0
 20
0.0
 30
0.0
 70
   128
 71
   463
 72
   452
 73
   444
 74
   455
  0
VERTEX
  5
282
  8
METAL
 10
0.0
 20
0.0
 30
0.0
 70
   128
 71
   424
 72
   412
 73
   409
 74
   422
  0
VERTEX
  5
283
  8
METAL
 10
0.0
 20
0.0
 30
0.0
 70
   128
 71
   431
 72
   360
 73
   346
 74
   419
  0
VERTEX
  5
284
  8
METAL
 10
0.0
 20
0.0
 30
0.0
 70
   128
 71
   328
 72
   326
 73
   345
 74
   347
  0
VERTEX
  5
285
  8
METAL
 10
0.0
 20
0.0
 30
0.0
 70
   128
 71
     1
 72
     3
 73
     7
 74
     5
  0
VERTEX
  5
286
  8
METAL
 10
0.0
 20
0.0
 30
0.0
 70
   128
 71
    29
 72
    31
 73
    49
 74
    47
  0
VERTEX
  5
287
  8
METAL
 10
0.0
 20
0.0
 30
0.0
 70
   128
 71
    74
 72
    76
 73
   129
 74
   127
  0
VERTEX
  5
288
  8
METAL
 10
0.0
 20
0.0
 30
0.0
 70
   128
 71
   169
 72
   171
 73
   203
 74
   201
  0
VERTEX
  5
289
  8
METAL
 10
0.0
 20
0.0
 30
0.0
 70
   128
 71
   243
 72
   241
 73
   197
 74
   199
  0
VERTEX
  5
28A
  8
METAL
 10
0.0
 20
0.0
 30
0.0
 70
   128
 71
   172
 72
   174
 73
   132
 74
   130
  0
VERTEX
  5
28B
  8
METAL
 10
0.0
 20
0.0
 30
0.0
 70
   128
 71
    79
 72
    81
 73
    66
 74
    64
  0
VERTEX
  5
28C
  8
METAL
 10
0.0
 20
0.0
 30
0.0
 70
   128
 71
    25
 72
    27
 73
    11
 74
     9
  0
VERTEX
  5
28D
  8
METAL
 10
0.0
 20
0.0
 30
0.0
 70
   128
 71
    33
 72
    28
 73
    44
 74
    45
  0
VERTEX
  5
28E
  8
METAL
 10
0.0
 20
0.0
 30
0.0
 70
   128
 71
   159
 72
    82
 73
   178
 74
   178
  0
VERTEX
  5
28F
  8
METAL
 10
0.0
 20
0.0
 30
0.0
 70
   128
 71
   156
 72
   124
 73
   122
 74
   154
  0
VERTEX
  5
290
  8
METAL
 10
0.0
 20
0.0
 30
0.0
 70
   128
 71
   139
 72
   150
 73
   148
 74
   137
  0
VERTEX
  5
291
  8
METAL
 10
0.0
 20
0.0
 30
0.0
 70
   128
 71
   110
 72
    96
 73
    98
 74
   112
  0
VERTEX
  5
292
  8
METAL
 10
0.0
 20
0.0
 30
0.0
 70
   128
 71
    84
 72
    90
 73
    92
 74
    86
  0
VERTEX
  5
293
  8
METAL
 10
0.0
 20
0.0
 30
0.0
 70
   128
 71
   166
 72
   190
 73
   192
 74
   168
  0
VERTEX
  5
294
  8
METAL
 10
0.0
 20
0.0
 30
0.0
 70
   128
 71
   177
 72
   158
 73
   160
 74
   179
  0
VERTEX
  5
295
  8
METAL
 10
0.0
 20
0.0
 30
0.0
 70
   128
 71
   196
 72
   216
 73
   214
 74
   194
  0
VERTEX
  5
296
  8
METAL
 10
0.0
 20
0.0
 30
0.0
 70
   128
 71
   191
 72
   219
 73
   206
 74
   182
  0
VERTEX
  5
297
  8
METAL
 10
0.0
 20
0.0
 30
0.0
 70
   128
 71
   184
 72
   185
 73
   161
 74
   146
  0
VERTEX
  5
298
  8
METAL
 10
0.0
 20
0.0
 30
0.0
 70
   128
 71
   155
 72
   167
 73
   144
 74
   102
  0
VERTEX
  5
299
  8
METAL
 10
0.0
 20
0.0
 30
0.0
 70
   128
 71
   104
 72
   142
 73
   113
 74
    61
  0
VERTEX
  5
29A
  8
METAL
 10
0.0
 20
0.0
 30
0.0
 70
   128
 71
   107
 72
   123
 73
    59
 74
    38
  0
VERTEX
  5
29B
  8
METAL
 10
0.0
 20
0.0
 30
0.0
 70
   128
 71
    40
 72
    87
 73
    72
 74
    20
  0
VERTEX
  5
29C
  8
METAL
 10
0.0
 20
0.0
 30
0.0
 70
   128
 71
    85
 72
    91
 73
    18
 74
    14
  0
VERTEX
  5
29D
  8
METAL
 10
0.0
 20
0.0
 30
0.0
 70
   128
 71
    16
 72
    70
 73
    77
 74
    24
  0
VERTEX
  5
29E
  8
METAL
 10
0.0
 20
0.0
 30
0.0
 70
   128
 71
   111
 72
    97
 73
    22
 74
    34
  0
VERTEX
  5
29F
  8
METAL
 10
0.0
 20
0.0
 30
0.0
 70
   128
 71
   195
 72
   175
 73
   198
 74
   215
  0
VERTEX
  5
2A0
  8
METAL
 10
0.0
 20
0.0
 30
0.0
 70
   128
 71
   187
 72
   181
 73
   135
 74
   163
  0
VERTEX
  5
2A1
  8
METAL
 10
0.0
 20
0.0
 30
0.0
 70
   128
 71
   159
 72
   149
 73
    67
 74
    82
  0
VERTEX
  5
2A2
  8
METAL
 10
0.0
 20
0.0
 30
0.0
 70
   128
 71
   151
 72
    94
 73
    69
 74
   140
  0
VERTEX
  5
2A3
  8
METAL
 10
0.0
 20
0.0
 30
0.0
 70
   128
 71
   125
 72
    63
 73
    52
 74
   115
  0
VERTEX
  5
2A4
  8
METAL
 10
0.0
 20
0.0
 30
0.0
 70
   128
 71
   238
 72
   239
 73
   205
 74
   211
  0
VERTEX
  5
2A5
  8
METAL
 10
0.0
 20
0.0
 30
0.0
 70
   128
 71
   231
 72
   220
 73
   218
 74
   229
  0
VERTEX
  5
2A6
  8
METAL
 10
0.0
 20
0.0
 30
0.0
 70
   128
 71
   225
 72
   228
 73
   209
 74
   208
  0
VERTEX
  5
2A7
  8
METAL
 10
0.0
 20
0.0
 30
0.0
 70
   128
 71
    88
 72
   105
 73
    89
 74
    73
  0
VERTEX
  5
2A8
  8
METAL
 10
0.0
 20
0.0
 30
0.0
 70
   128
 71
   143
 72
   153
 73
   121
 74
   114
  0
VERTEX
  5
2A9
  8
METAL
 10
0.0
 20
0.0
 30
0.0
 70
   128
 71
   186
 72
   189
 73
   165
 74
   162
  0
VERTEX
  5
2AA
  8
METAL
 10
0.0
 20
0.0
 30
0.0
 70
   128
 71
   212
 72
   188
 73
   193
 74
   213
  0
VERTEX
  5
2AB
  8
METAL
 10
0.0
 20
0.0
 30
0.0
 70
   128
 71
   152
 72
   157
 73
   176
 74
   164
  0
VERTEX
  5
2AC
  8
METAL
 10
0.0
 20
0.0
 30
0.0
 70
   128
 71
    71
 72
    83
 73
    95
 74
    78
  0
VERTEX
  5
2AD
  8
METAL
 10
0.0
 20
0.0
 30
0.0
 70
   128
 71
   100
 72
   109
 73
   117
 74
   116
  0
VERTEX
  5
2AE
  8
METAL
 10
0.0
 20
0.0
 30
0.0
 70
   128
 71
   210
 72
   227
 73
   230
 74
   217
  0
VERTEX
  5
2AF
  8
METAL
 10
0.0
 20
0.0
 30
0.0
 70
   128
 71
   126
 72
   136
 73
   147
 74
   141
  0
VERTEX
  5
2B0
  8
METAL
 10
0.0
 20
0.0
 30
0.0
 70
   128
 71
    30
 72
    39
 73
    19
 74
     6
  0
VERTEX
  5
2B1
  8
METAL
 10
0.0
 20
0.0
 30
0.0
 70
   128
 71
    75
 72
   103
 73
    60
 74
    48
  0
VERTEX
  5
2B2
  8
METAL
 10
0.0
 20
0.0
 30
0.0
 70
   128
 71
   170
 72
   183
 73
   145
 74
   128
  0
VERTEX
  5
2B3
  8
METAL
 10
0.0
 20
0.0
 30
0.0
 70
   128
 71
   221
 72
   226
 73
   207
 74
   202
  0
VERTEX
  5
2B4
  8
METAL
 10
0.0
 20
0.0
 30
0.0
 70
   128
 71
   173
 72
   180
 73
   204
 74
   200
  0
VERTEX
  5
2B5
  8
METAL
 10
0.0
 20
0.0
 30
0.0
 70
   128
 71
    80
 72
    93
 73
   134
 74
   131
  0
VERTEX
  5
2B6
  8
METAL
 10
0.0
 20
0.0
 30
0.0
 70
   128
 71
     2
 72
    15
 73
    23
 74
    10
  0
VERTEX
  5
2B7
  8
METAL
 10
0.0
 20
0.0
 30
0.0
 70
   128
 71
    54
 72
    62
 73
    68
 74
    65
  0
VERTEX
  5
2B8
  8
METAL
 10
0.0
 20
0.0
 30
0.0
 70
   128
 71
    26
 72
    35
 73
    51
 74
    42
  0
VERTEX
  5
2B9
  8
METAL
 10
0.0
 20
0.0
 30
0.0
 70
   128
 71
     8
 72
     4
 73
    13
 74
    17
  0
VERTEX
  5
2BA
  8
METAL
 10
0.0
 20
0.0
 30
0.0
 70
   128
 71
    50
 72
    32
 73
    37
 74
    58
  0
VERTEX
  5
2BB
  8
METAL
 10
0.0
 20
0.0
 30
0.0
 70
   128
 71
   129
 72
    76
 73
   101
 74
   144
  0
VERTEX
  5
2BC
  8
METAL
 10
0.0
 20
0.0
 30
0.0
 70
   128
 71
   203
 72
   171
 73
   182
 74
   206
  0
VERTEX
  5
2BD
  8
METAL
 10
0.0
 20
0.0
 30
0.0
 70
   128
 71
    12
 72
    28
 73
    33
 74
    21
  0
VERTEX
  5
2BE
  8
METAL
 10
0.0
 20
0.0
 30
0.0
 70
   128
 71
    27
 72
    25
 73
    41
 74
    43
  0
VERTEX
  5
2BF
  8
METAL
 10
0.0
 20
0.0
 30
0.0
 70
   128
 71
    46
 72
    57
 73
   138
 74
   119
  0
VERTEX
  5
2C0
  8
METAL
 10
0.0
 20
0.0
 30
0.0
 70
   128
 71
   118
 72
   110
 73
   112
 74
   120
  0
VERTEX
  5
2C1
  8
METAL
 10
0.0
 20
0.0
 30
0.0
 70
   128
 71
   195
 72
    82
 73
   133
 74
   175
  0
VERTEX
  5
2C2
  8
METAL
 10
0.0
 20
0.0
 30
0.0
 70
   128
 71
     5
 72
     7
 73
    31
 74
    29
  0
VERTEX
  5
2C3
  8
METAL
 10
0.0
 20
0.0
 30
0.0
 70
   128
 71
    47
 72
    49
 73
    76
 74
    74
  0
VERTEX
  5
2C4
  8
METAL
 10
0.0
 20
0.0
 30
0.0
 70
   128
 71
   127
 72
   129
 73
   171
 74
   169
  0
VERTEX
  5
2C5
  8
METAL
 10
0.0
 20
0.0
 30
0.0
 70
   128
 71
   201
 72
   203
 73
   223
 74
   222
  0
VERTEX
  5
2C6
  8
METAL
 10
0.0
 20
0.0
 30
0.0
 70
   128
 71
   199
 72
   197
 73
   174
 74
   172
  0
VERTEX
  5
2C7
  8
METAL
 10
0.0
 20
0.0
 30
0.0
 70
   128
 71
   130
 72
   132
 73
    81
 74
    79
  0
VERTEX
  5
2C8
  8
METAL
 10
0.0
 20
0.0
 30
0.0
 70
   128
 71
    64
 72
    66
 73
    55
 74
    53
  0
VERTEX
  5
2C9
  8
METAL
 10
0.0
 20
0.0
 30
0.0
 70
   128
 71
     9
 72
    11
 73
     3
 74
     1
  0
VERTEX
  5
2CA
  8
METAL
 10
0.0
 20
0.0
 30
0.0
 70
   128
 71
    45
 72
    44
 73
    56
 74
    56
  0
VERTEX
  5
2CB
  8
METAL
 10
0.0
 20
0.0
 30
0.0
 70
   128
 71
   106
 72
   122
 73
   124
 74
   108
  0
VERTEX
  5
2CC
  8
METAL
 10
0.0
 20
0.0
 30
0.0
 70
   128
 71
   158
 72
   148
 73
   150
 74
   160
  0
VERTEX
  5
2CD
  8
METAL
 10
0.0
 20
0.0
 30
0.0
 70
   128
 71
    86
 72
    98
 73
    96
 74
    84
  0
VERTEX
  5
2CE
  8
METAL
 10
0.0
 20
0.0
 30
0.0
 70
   128
 71
   108
 72
    92
 73
    90
 74
   106
  0
VERTEX
  5
2CF
  8
METAL
 10
0.0
 20
0.0
 30
0.0
 70
   128
 71
   154
 72
   166
 73
   168
 74
   156
  0
VERTEX
  5
2D0
  8
METAL
 10
0.0
 20
0.0
 30
0.0
 70
   128
 71
   194
 72
   177
 73
   179
 74
   196
  0
VERTEX
  5
2D1
  8
METAL
 10
0.0
 20
0.0
 30
0.0
 70
   128
 71
   234
 72
   214
 73
   216
 74
   236
  0
VERTEX
  5
2D2
  8
METAL
 10
0.0
 20
0.0
 30
0.0
 70
   128
 71
   224
 72
   206
 73
   219
 74
   232
  0
VERTEX
  5
2D3
  8
METAL
 10
0.0
 20
0.0
 30
0.0
 70
   128
 71
   146
 72
   161
 73
   142
 74
   104
  0
VERTEX
  5
2D4
  8
METAL
 10
0.0
 20
0.0
 30
0.0
 70
   128
 71
   182
 72
   144
 73
   167
 74
   191
  0
VERTEX
  5
2D5
  8
METAL
 10
0.0
 20
0.0
 30
0.0
 70
   128
 71
    61
 72
   113
 73
    87
 74
    40
  0
VERTEX
  5
2D6
  8
METAL
 10
0.0
 20
0.0
 30
0.0
 70
   128
 71
   102
 72
    59
 73
   123
 74
   155
  0
VERTEX
  5
2D7
  8
METAL
 10
0.0
 20
0.0
 30
0.0
 70
   128
 71
    20
 72
    72
 73
    70
 74
    16
  0
VERTEX
  5
2D8
  8
METAL
 10
0.0
 20
0.0
 30
0.0
 70
   128
 71
    38
 72
    18
 73
    91
 74
   107
  0
VERTEX
  5
2D9
  8
METAL
 10
0.0
 20
0.0
 30
0.0
 70
   128
 71
    24
 72
    77
 73
    99
 74
    36
  0
VERTEX
  5
2DA
  8
METAL
 10
0.0
 20
0.0
 30
0.0
 70
   128
 71
    14
 72
    22
 73
    97
 74
    85
  0
VERTEX
  5
2DB
  8
METAL
 10
0.0
 20
0.0
 30
0.0
 70
   128
 71
   235
 72
   215
 73
   198
 74
   242
  0
VERTEX
  5
2DC
  8
METAL
 10
0.0
 20
0.0
 30
0.0
 70
   128
 71
   163
 72
   135
 73
    94
 74
   151
  0
VERTEX
  5
2DD
  8
METAL
 10
0.0
 20
0.0
 30
0.0
 70
   128
 71
    57
 72
    67
 73
   149
 74
   138
  0
VERTEX
  5
2DE
  8
METAL
 10
0.0
 20
0.0
 30
0.0
 70
   128
 71
   140
 72
    69
 73
    63
 74
   125
  0
VERTEX
  5
2DF
  8
METAL
 10
0.0
 20
0.0
 30
0.0
 70
   128
 71
   115
 72
    52
 73
    36
 74
    99
  0
VERTEX
  5
2E0
  8
METAL
 10
0.0
 20
0.0
 30
0.0
 70
   128
 71
   187
 72
   211
 73
   205
 74
   181
  0
VERTEX
  5
2E1
  8
METAL
 10
0.0
 20
0.0
 30
0.0
 70
   128
 71
   190
 72
   218
 73
   220
 74
   192
  0
VERTEX
  5
2E2
  8
METAL
 10
0.0
 20
0.0
 30
0.0
 70
   128
 71
   208
 72
   209
 73
   185
 74
   184
  0
VERTEX
  5
2E3
  8
METAL
 10
0.0
 20
0.0
 30
0.0
 70
   128
 71
    73
 72
    89
 73
    83
 74
    71
  0
VERTEX
  5
2E4
  8
METAL
 10
0.0
 20
0.0
 30
0.0
 70
   128
 71
   114
 72
   121
 73
   105
 74
    88
  0
VERTEX
  5
2E5
  8
METAL
 10
0.0
 20
0.0
 30
0.0
 70
   128
 71
   162
 72
   165
 73
   153
 74
   143
  0
VERTEX
  5
2E6
  8
METAL
 10
0.0
 20
0.0
 30
0.0
 70
   128
 71
   212
 72
   213
 73
   233
 74
   237
  0
VERTEX
  5
2E7
  8
METAL
 10
0.0
 20
0.0
 30
0.0
 70
   128
 71
   164
 72
   176
 73
   193
 74
   188
  0
VERTEX
  5
2E8
  8
METAL
 10
0.0
 20
0.0
 30
0.0
 70
   128
 71
    78
 72
    95
 73
   109
 74
   100
  0
VERTEX
  5
2E9
  8
METAL
 10
0.0
 20
0.0
 30
0.0
 70
   128
 71
   116
 72
   117
 73
   136
 74
   126
  0
VERTEX
  5
2EA
  8
METAL
 10
0.0
 20
0.0
 30
0.0
 70
   128
 71
   210
 72
   217
 73
   189
 74
   186
  0
VERTEX
  5
2EB
  8
METAL
 10
0.0
 20
0.0
 30
0.0
 70
   128
 71
   141
 72
   147
 73
   157
 74
   152
  0
VERTEX
  5
2EC
  8
METAL
 10
0.0
 20
0.0
 30
0.0
 70
   128
 71
     6
 72
    19
 73
    15
 74
     2
  0
VERTEX
  5
2ED
  8
METAL
 10
0.0
 20
0.0
 30
0.0
 70
   128
 71
    48
 72
    60
 73
    39
 74
    30
  0
VERTEX
  5
2EE
  8
METAL
 10
0.0
 20
0.0
 30
0.0
 70
   128
 71
   128
 72
   145
 73
   103
 74
    75
  0
VERTEX
  5
2EF
  8
METAL
 10
0.0
 20
0.0
 30
0.0
 70
   128
 71
   202
 72
   207
 73
   183
 74
   170
  0
VERTEX
  5
2F0
  8
METAL
 10
0.0
 20
0.0
 30
0.0
 70
   128
 71
   200
 72
   204
 73
   240
 74
   244
  0
VERTEX
  5
2F1
  8
METAL
 10
0.0
 20
0.0
 30
0.0
 70
   128
 71
   131
 72
   134
 73
   180
 74
   173
  0
VERTEX
  5
2F2
  8
METAL
 10
0.0
 20
0.0
 30
0.0
 70
   128
 71
    10
 72
    23
 73
    35
 74
    26
  0
VERTEX
  5
2F3
  8
METAL
 10
0.0
 20
0.0
 30
0.0
 70
   128
 71
    65
 72
    68
 73
    93
 74
    80
  0
VERTEX
  5
2F4
  8
METAL
 10
0.0
 20
0.0
 30
0.0
 70
   128
 71
    42
 72
    51
 73
    62
 74
    54
  0
VERTEX
  5
2F5
  8
METAL
 10
0.0
 20
0.0
 30
0.0
 70
   128
 71
    32
 72
     8
 73
    17
 74
    37
  0
VERTEX
  5
2F6
  8
METAL
 10
0.0
 20
0.0
 30
0.0
 70
   128
 71
    76
 72
    50
 73
    58
 74
   101
  0
VERTEX
  5
2F7
  8
METAL
 10
0.0
 20
0.0
 30
0.0
 70
   128
 71
   171
 72
   129
 73
   144
 74
   182
  0
VERTEX
  5
2F8
  8
METAL
 10
0.0
 20
0.0
 30
0.0
 70
   128
 71
   203
 72
   206
 73
   224
 74
   223
  0
VERTEX
  5
2F9
  8
METAL
 10
0.0
 20
0.0
 30
0.0
 70
   128
 71
     4
 72
    12
 73
    21
 74
    13
  0
VERTEX
  5
2FA
  8
METAL
 10
0.0
 20
0.0
 30
0.0
 70
   128
 71
    43
 72
    41
 73
    53
 74
    55
  0
VERTEX
  5
2FB
  8
METAL
 10
0.0
 20
0.0
 30
0.0
 70
   128
 71
    34
 72
    46
 73
   119
 74
   111
  0
VERTEX
  5
2FC
  8
METAL
 10
0.0
 20
0.0
 30
0.0
 70
   128
 71
   137
 72
   118
 73
   120
 74
   139
  0
VERTEX
  5
2FD
  8
METAL
 10
0.0
 20
0.0
 30
0.0
 70
   128
 71
    82
 72
   195
 73
   178
 74
   178
  0
VERTEX
  5
2FE
  8
METAL
 10
0.0
 20
0.0
 30
0.0
 70
   128
 71
   289
 72
   272
 73
   385
 74
   385
  0
SEQEND
  5
3E0
  8
METAL
  0
ENDSEC
  0
EOF
