  0
SECTION
  2
HEADER
  9
$ACADVER
  1
AC1009
  9
$DWGCODEPAGE
  3
ansi_1252
  9
$INSBASE
 10
0.0
 20
0.0
 30
0.0
  9
$EXTMIN
 10
-25.0
 20
-9.924884796142578
 30
-45.0
  9
$EXTMAX
 10
24.90451049804688
 20
0.0
 30
25.21905517578102
  9
$LIMMIN
 10
0.0
 20
0.0
  9
$LIMMAX
 10
12.0
 20
9.0
  9
$ORTHOMODE
 70
     1
  9
$REGENMODE
 70
     1
  9
$FILLMODE
 70
     1
  9
$QTEXTMODE
 70
     0
  9
$MIRRTEXT
 70
     1
  9
$DRAGMODE
 70
     2
  9
$LTSCALE
 40
1.0
  9
$OSMODE
 70
    37
  9
$ATTMODE
 70
     1
  9
$TEXTSIZE
 40
0.2
  9
$TRACEWID
 40
0.05
  9
$TEXTSTYLE
  7
STANDARD
  9
$CLAYER
  8
0
  9
$CELTYPE
  6
BYLAYER
  9
$CECOLOR
 62
   256
  9
$DIMSCALE
 40
1.0
  9
$DIMASZ
 40
0.18
  9
$DIMEXO
 40
0.0625
  9
$DIMDLI
 40
0.38
  9
$DIMRND
 40
0.0
  9
$DIMDLE
 40
0.0
  9
$DIMEXE
 40
0.18
  9
$DIMTP
 40
0.0
  9
$DIMTM
 40
0.0
  9
$DIMTXT
 40
0.18
  9
$DIMCEN
 40
0.09
  9
$DIMTSZ
 40
0.0
  9
$DIMTOL
 70
     0
  9
$DIMLIM
 70
     0
  9
$DIMTIH
 70
     1
  9
$DIMTOH
 70
     1
  9
$DIMSE1
 70
     0
  9
$DIMSE2
 70
     0
  9
$DIMTAD
 70
     0
  9
$DIMZIN
 70
     0
  9
$DIMBLK
  1

  9
$DIMASO
 70
     1
  9
$DIMSHO
 70
     1
  9
$DIMPOST
  1

  9
$DIMAPOST
  1

  9
$DIMALT
 70
     0
  9
$DIMALTD
 70
     2
  9
$DIMALTF
 40
25.4
  9
$DIMLFAC
 40
1.0
  9
$DIMTOFL
 70
     0
  9
$DIMTVP
 40
0.0
  9
$DIMTIX
 70
     0
  9
$DIMSOXD
 70
     0
  9
$DIMSAH
 70
     0
  9
$DIMBLK1
  1

  9
$DIMBLK2
  1

  9
$DIMSTYLE
  2
STANDARD
  9
$DIMCLRD
 70
     0
  9
$DIMCLRE
 70
     0
  9
$DIMCLRT
 70
     0
  9
$DIMTFAC
 40
1.0
  9
$DIMGAP
 40
0.09
  9
$LUNITS
 70
     2
  9
$LUPREC
 70
     3
  9
$SKETCHINC
 40
0.1
  9
$FILLETRAD
 40
0.5
  9
$AUNITS
 70
     0
  9
$AUPREC
 70
     0
  9
$MENU
  1
.
  9
$ELEVATION
 40
0.0
  9
$PELEVATION
 40
0.0
  9
$THICKNESS
 40
0.0
  9
$LIMCHECK
 70
     0
  9
$CHAMFERA
 40
0.5
  9
$CHAMFERB
 40
0.5
  9
$SKPOLY
 70
     0
  9
$TDCREATE
 40
2456497.483949641
  9
$TDUPDATE
 40
2456497.483949653
  9
$TDINDWG
 40
0.0011805556
  9
$TDUSRTIMER
 40
0.0011805556
  9
$USRTIMER
 70
     1
  9
$ANGBASE
 50
0.0
  9
$ANGDIR
 70
     0
  9
$PDMODE
 70
     0
  9
$PDSIZE
 40
0.0
  9
$PLINEWID
 40
0.0
  9
$COORDS
 70
     1
  9
$SPLFRAME
 70
     0
  9
$SPLINETYPE
 70
     6
  9
$SPLINESEGS
 70
     8
  9
$ATTDIA
 70
     0
  9
$ATTREQ
 70
     1
  9
$HANDLING
 70
     1
  9
$HANDSEED
  5
289
  9
$SURFTAB1
 70
     6
  9
$SURFTAB2
 70
     6
  9
$SURFTYPE
 70
     6
  9
$SURFU
 70
     6
  9
$SURFV
 70
     6
  9
$UCSNAME
  2

  9
$UCSORG
 10
0.0
 20
0.0
 30
0.0
  9
$UCSXDIR
 10
0.0
 20
1.0
 30
0.0
  9
$UCSYDIR
 10
0.0
 20
0.0
 30
1.0
  9
$PUCSNAME
  2

  9
$PUCSORG
 10
0.0
 20
0.0
 30
0.0
  9
$PUCSXDIR
 10
1.0
 20
0.0
 30
0.0
  9
$PUCSYDIR
 10
0.0
 20
1.0
 30
0.0
  9
$USERI1
 70
     0
  9
$USERI2
 70
     0
  9
$USERI3
 70
     0
  9
$USERI4
 70
     0
  9
$USERI5
 70
     0
  9
$USERR1
 40
0.0
  9
$USERR2
 40
0.0
  9
$USERR3
 40
0.0
  9
$USERR4
 40
0.0
  9
$USERR5
 40
0.0
  9
$WORLDVIEW
 70
     1
  9
$SHADEDGE
 70
     3
  9
$SHADEDIF
 70
    70
  9
$TILEMODE
 70
     1
  9
$MAXACTVP
 70
    64
  9
$PLIMCHECK
 70
     0
  9
$PEXTMIN
 10
1.000000000000000E+20
 20
1.000000000000000E+20
 30
1.000000000000000E+20
  9
$PEXTMAX
 10
-1.000000000000000E+20
 20
-1.000000000000000E+20
 30
-1.000000000000000E+20
  9
$PLIMMIN
 10
0.0
 20
0.0
  9
$PLIMMAX
 10
12.0
 20
9.0
  9
$UNITMODE
 70
     0
  9
$VISRETAIN
 70
     1
  9
$PLINEGEN
 70
     0
  9
$PSLTSCALE
 70
     1
  0
ENDSEC
  0
SECTION
  2
TABLES
  0
TABLE
  2
VPORT
 70
     1
  0
VPORT
  2
*ACTIVE
 70
     0
 10
0.0
 20
0.0
 11
1.0
 21
1.0
 12
3.475216033742252
 22
-10.1209372467502
 13
0.0
 23
0.0
 14
0.5
 24
0.5
 15
0.5
 25
0.5
 16
-1.0
 26
-1.0
 36
1.0
 17
0.0
 27
0.0
 37
0.0
 40
104.2425551895586
 41
0.7106975503033978
 42
50.0
 43
0.0
 44
0.0
 50
0.0
 51
0.0
 71
    16
 72
   100
 73
     0
 74
     1
 75
     0
 76
     0
 77
     0
 78
     0
  0
ENDTAB
  0
TABLE
  2
LTYPE
 70
     1
  0
LTYPE
  2
CONTINUOUS
 70
     0
  3
Solid line
 72
    65
 73
     0
 40
0.0
  0
ENDTAB
  0
TABLE
  2
LAYER
 70
     2
  0
LAYER
  2
0
 70
     0
 62
     7
  6
CONTINUOUS
  0
LAYER
  2
METAL
 70
     0
 62
   174
  6
CONTINUOUS
  0
ENDTAB
  0
TABLE
  2
STYLE
 70
     1
  0
STYLE
  2
STANDARD
 70
     0
 40
0.0
 41
1.0
 50
0.0
 71
     0
 42
0.2
  3
txt
  4

  0
ENDTAB
  0
TABLE
  2
VIEW
 70
     0
  0
ENDTAB
  0
TABLE
  2
UCS
 70
     0
  0
ENDTAB
  0
TABLE
  2
APPID
 70
     1
  0
APPID
  2
ACAD
 70
     0
  0
ENDTAB
  0
TABLE
  2
DIMSTYLE
 70
     1
  0
DIMSTYLE
  2
STANDARD
 70
     0
  3

  4

  5

  6

  7

 40
1.0
 41
0.18
 42
0.0625
 43
0.38
 44
0.18
 45
0.0
 46
0.0
 47
0.0
 48
0.0
140
0.18
141
0.09
142
0.0
143
25.4
144
1.0
145
0.0
146
1.0
147
0.09
 71
     0
 72
     0
 73
     1
 74
     1
 75
     0
 76
     0
 77
     0
 78
     0
170
     0
171
     2
172
     0
173
     0
174
     0
175
     0
176
     0
177
     0
178
     0
  0
ENDTAB
  0
ENDSEC
  0
SECTION
  2
BLOCKS
  0
BLOCK
  8
0
  2
$MODEL_SPACE
 70
     0
 10
0.0
 20
0.0
 30
0.0
  3
$MODEL_SPACE
  1

  0
ENDBLK
  5
21
  8
0
  0
BLOCK
 67
     1
  8
0
  2
$PAPER_SPACE
 70
     0
 10
0.0
 20
0.0
 30
0.0
  3
$PAPER_SPACE
  1

  0
ENDBLK
  5
76
 67
     1
  8
0
  0
ENDSEC
  0
SECTION
  2
ENTITIES
  0
POLYLINE
  5
3C
  8
METAL
 66
     1
 10
0.0
 20
0.0
 30
0.0
 70
    64
 71
   380
 72
   129
  0
VERTEX
  5
3D
  8
METAL
 10
24.90451049804688
 20
-6.334651947021484
 30
25.21905517578102
 70
   192
  0
VERTEX
  5
3E
  8
METAL
 10
24.90451049804688
 20
-6.334651947021484
 30
25.21905517578102
 70
   192
  0
VERTEX
  5
3F
  8
METAL
 10
24.90451049804688
 20
-6.334651947021484
 30
25.21905517578102
 70
   192
  0
VERTEX
  5
40
  8
METAL
 10
24.90451049804688
 20
-9.924884796142578
 30
25.20910644531295
 70
   192
  0
VERTEX
  5
41
  8
METAL
 10
24.90451049804688
 20
-9.924884796142578
 30
25.20910644531295
 70
   192
  0
VERTEX
  5
42
  8
METAL
 10
24.90451049804688
 20
-9.924884796142578
 30
25.20910644531295
 70
   192
  0
VERTEX
  5
43
  8
METAL
 10
24.90451049804688
 20
-3.547046661376953
 30
24.71826171875
 70
   192
  0
VERTEX
  5
44
  8
METAL
 10
24.90451049804688
 20
-3.547046661376953
 30
24.71826171875
 70
   192
  0
VERTEX
  5
45
  8
METAL
 10
24.90451049804688
 20
-3.547046661376953
 30
24.71826171875
 70
   192
  0
VERTEX
  5
46
  8
METAL
 10
24.90451049804688
 20
-1.562068939208984
 30
23.27258300781295
 70
   192
  0
VERTEX
  5
47
  8
METAL
 10
24.90451049804688
 20
-1.562068939208984
 30
23.27258300781295
 70
   192
  0
VERTEX
  5
48
  8
METAL
 10
24.90451049804688
 20
-1.562068939208984
 30
23.27258300781295
 70
   192
  0
VERTEX
  5
49
  8
METAL
 10
24.90451049804688
 20
-0.3797187805175781
 30
21.53314208984398
 70
   192
  0
VERTEX
  5
4A
  8
METAL
 10
24.90451049804688
 20
-0.3797187805175781
 30
21.53314208984398
 70
   192
  0
VERTEX
  5
4B
  8
METAL
 10
24.90451049804688
 20
-0.3797187805175781
 30
21.53314208984398
 70
   192
  0
VERTEX
  5
4C
  8
METAL
 10
24.90451049804688
 20
0.0
 30
20.05767822265602
 70
   192
  0
VERTEX
  5
4D
  8
METAL
 10
24.90451049804688
 20
0.0
 30
20.05767822265602
 70
   192
  0
VERTEX
  5
4E
  8
METAL
 10
24.90451049804688
 20
0.0
 30
20.05767822265602
 70
   192
  0
VERTEX
  5
4F
  8
METAL
 10
24.90451049804688
 20
-9.924884796142578
 30
-5.34869384765625
 70
   192
  0
VERTEX
  5
50
  8
METAL
 10
24.90451049804688
 20
-9.924884796142578
 30
-5.34869384765625
 70
   192
  0
VERTEX
  5
51
  8
METAL
 10
24.90451049804688
 20
-0.0963592529296875
 30
-5.37261962890625
 70
   192
  0
VERTEX
  5
52
  8
METAL
 10
24.90451049804688
 20
-0.0963592529296875
 30
-5.37261962890625
 70
   192
  0
VERTEX
  5
53
  8
METAL
 10
24.90451049804688
 20
-9.924884796142578
 30
-9.86334228515625
 70
   192
  0
VERTEX
  5
54
  8
METAL
 10
24.90451049804688
 20
-9.924884796142578
 30
-9.86334228515625
 70
   192
  0
VERTEX
  5
55
  8
METAL
 10
24.90451049804688
 20
-0.9752998352050781
 30
-9.86334228515625
 70
   192
  0
VERTEX
  5
56
  8
METAL
 10
24.90451049804688
 20
-0.9752998352050781
 30
-9.86334228515625
 70
   192
  0
VERTEX
  5
57
  8
METAL
 10
24.90451049804688
 20
-9.924884796142578
 30
-44.16949462890625
 70
   192
  0
VERTEX
  5
58
  8
METAL
 10
24.90451049804688
 20
-9.924884796142578
 30
-44.16949462890625
 70
   192
  0
VERTEX
  5
247
  8
METAL
 10
24.90451049804688
 20
-9.924884796142578
 30
-44.16949462890625
 70
   192
  0
VERTEX
  5
248
  8
METAL
 10
24.90451049804688
 20
-7.906818389892578
 30
-44.1846923828125
 70
   192
  0
VERTEX
  5
5B
  8
METAL
 10
24.90451049804688
 20
-7.906818389892578
 30
-44.1846923828125
 70
   192
  0
VERTEX
  5
5C
  8
METAL
 10
24.90451049804688
 20
-7.906818389892578
 30
-44.1846923828125
 70
   192
  0
VERTEX
  5
5D
  8
METAL
 10
24.90451049804688
 20
-9.877864837646484
 30
-44.45684814453125
 70
   192
  0
VERTEX
  5
249
  8
METAL
 10
24.90451049804688
 20
-9.877864837646484
 30
-44.45684814453125
 70
   192
  0
VERTEX
  5
5F
  8
METAL
 10
24.90451049804688
 20
-9.877864837646484
 30
-44.45684814453125
 70
   192
  0
VERTEX
  5
60
  8
METAL
 10
24.90451049804688
 20
-8.010723114013672
 30
-44.46630859375
 70
   192
  0
VERTEX
  5
61
  8
METAL
 10
24.90451049804688
 20
-8.010723114013672
 30
-44.46630859375
 70
   192
  0
VERTEX
  5
62
  8
METAL
 10
24.90451049804688
 20
-8.010723114013672
 30
-44.46630859375
 70
   192
  0
VERTEX
  5
63
  8
METAL
 10
24.90451049804688
 20
-9.73331069946289
 30
-44.74420166015625
 70
   192
  0
VERTEX
  5
64
  8
METAL
 10
24.90451049804688
 20
-9.73331069946289
 30
-44.74420166015625
 70
   192
  0
VERTEX
  5
65
  8
METAL
 10
24.90451049804688
 20
-9.73331069946289
 30
-44.74420166015625
 70
   192
  0
VERTEX
  5
66
  8
METAL
 10
24.90451049804688
 20
-8.212162017822266
 30
-44.74798583984375
 70
   192
  0
VERTEX
  5
67
  8
METAL
 10
24.90451049804688
 20
-8.212162017822266
 30
-44.74798583984375
 70
   192
  0
VERTEX
  5
68
  8
METAL
 10
24.90451049804688
 20
-8.212162017822266
 30
-44.74798583984375
 70
   192
  0
VERTEX
  5
69
  8
METAL
 10
24.90451049804688
 20
-9.57809066772461
 30
-44.87213134765625
 70
   192
  0
VERTEX
  5
6A
  8
METAL
 10
24.90451049804688
 20
-9.57809066772461
 30
-44.87213134765625
 70
   192
  0
VERTEX
  5
24A
  8
METAL
 10
24.90451049804688
 20
-9.57809066772461
 30
-44.87213134765625
 70
   192
  0
VERTEX
  5
24B
  8
METAL
 10
24.90451049804688
 20
-8.386341094970703
 30
-44.8740234375
 70
   192
  0
VERTEX
  5
6D
  8
METAL
 10
24.90451049804688
 20
-8.386341094970703
 30
-44.8740234375
 70
   192
  0
VERTEX
  5
6E
  8
METAL
 10
24.90451049804688
 20
-8.386341094970703
 30
-44.8740234375
 70
   192
  0
VERTEX
  5
6F
  8
METAL
 10
24.90451049804688
 20
-9.15859603881836
 30
-45.0
 70
   192
  0
VERTEX
  5
70
  8
METAL
 10
24.90451049804688
 20
-9.15859603881836
 30
-45.0
 70
   192
  0
VERTEX
  5
71
  8
METAL
 10
24.90451049804688
 20
-9.15859603881836
 30
-45.0
 70
   192
  0
VERTEX
  5
72
  8
METAL
 10
24.90451049804688
 20
-8.82480239868164
 30
-45.0
 70
   192
  0
VERTEX
  5
24C
  8
METAL
 10
24.90451049804688
 20
-8.82480239868164
 30
-45.0
 70
   192
  0
VERTEX
  5
24D
  8
METAL
 10
24.90451049804688
 20
-8.82480239868164
 30
-45.0
 70
   192
  0
VERTEX
  5
24E
  8
METAL
 10
8.269668579101591
 20
-6.334651947021484
 30
25.21905517578102
 70
   192
  0
VERTEX
  5
24F
  8
METAL
 10
8.269668579101591
 20
-6.334651947021484
 30
25.21905517578102
 70
   192
  0
VERTEX
  5
77
  8
METAL
 10
8.269668579101591
 20
-6.334651947021484
 30
25.21905517578102
 70
   192
  0
VERTEX
  5
78
  8
METAL
 10
8.269668579101591
 20
-6.334651947021484
 30
25.21905517578102
 70
   192
  0
VERTEX
  5
79
  8
METAL
 10
8.269668579101591
 20
-9.924884796142578
 30
25.20910644531295
 70
   192
  0
VERTEX
  5
7A
  8
METAL
 10
8.269668579101591
 20
-9.924884796142578
 30
25.20910644531295
 70
   192
  0
VERTEX
  5
7B
  8
METAL
 10
8.269668579101591
 20
-9.924884796142578
 30
25.20910644531295
 70
   192
  0
VERTEX
  5
7C
  8
METAL
 10
8.269668579101591
 20
-9.924884796142578
 30
25.20910644531295
 70
   192
  0
VERTEX
  5
7D
  8
METAL
 10
8.269668579101591
 20
-3.547046661376953
 30
24.71826171875
 70
   192
  0
VERTEX
  5
7E
  8
METAL
 10
8.269668579101591
 20
-3.547046661376953
 30
24.71826171875
 70
   192
  0
VERTEX
  5
7F
  8
METAL
 10
8.269668579101591
 20
-3.547046661376953
 30
24.71826171875
 70
   192
  0
VERTEX
  5
80
  8
METAL
 10
8.269668579101591
 20
-8.92428970336914
 30
24.21130371093705
 70
   192
  0
VERTEX
  5
81
  8
METAL
 10
8.269668579101591
 20
-8.92428970336914
 30
24.21130371093705
 70
   192
  0
VERTEX
  5
82
  8
METAL
 10
8.269668579101591
 20
-8.92428970336914
 30
24.21130371093705
 70
   192
  0
VERTEX
  5
83
  8
METAL
 10
8.269668579101591
 20
-8.92428970336914
 30
24.21130371093705
 70
   192
  0
VERTEX
  5
84
  8
METAL
 10
8.269668579101591
 20
-6.458122253417969
 30
23.81140136718705
 70
   192
  0
VERTEX
  5
85
  8
METAL
 10
8.269668579101591
 20
-6.458122253417969
 30
23.81140136718705
 70
   192
  0
VERTEX
  5
86
  8
METAL
 10
8.269668579101591
 20
-6.458122253417969
 30
23.81140136718705
 70
   192
  0
VERTEX
  5
87
  8
METAL
 10
8.269668579101591
 20
-6.458122253417969
 30
23.81140136718705
 70
   192
  0
VERTEX
  5
88
  8
METAL
 10
8.269668579101591
 20
-4.102073669433594
 30
23.418701171875
 70
   192
  0
VERTEX
  5
89
  8
METAL
 10
8.269668579101591
 20
-4.102073669433594
 30
23.418701171875
 70
   192
  0
VERTEX
  5
8A
  8
METAL
 10
8.269668579101591
 20
-4.102073669433594
 30
23.418701171875
 70
   192
  0
VERTEX
  5
8B
  8
METAL
 10
8.269668579101591
 20
-1.562068939208984
 30
23.27258300781295
 70
   192
  0
VERTEX
  5
8C
  8
METAL
 10
8.269668579101591
 20
-1.562068939208984
 30
23.27258300781295
 70
   192
  0
VERTEX
  5
8D
  8
METAL
 10
8.269668579101591
 20
-1.562068939208984
 30
23.27258300781295
 70
   192
  0
VERTEX
  5
8E
  8
METAL
 10
8.269668579101591
 20
-2.577377319335938
 30
22.28973388671898
 70
   192
  0
VERTEX
  5
8F
  8
METAL
 10
8.269668579101591
 20
-2.577377319335938
 30
22.28973388671898
 70
   192
  0
VERTEX
  5
90
  8
METAL
 10
8.269668579101591
 20
-2.577377319335938
 30
22.28973388671898
 70
   192
  0
VERTEX
  5
91
  8
METAL
 10
8.269668579101591
 20
-0.3797187805175781
 30
21.53314208984398
 70
   192
  0
VERTEX
  5
250
  8
METAL
 10
8.269668579101591
 20
-0.3797187805175781
 30
21.53314208984398
 70
   192
  0
VERTEX
  5
251
  8
METAL
 10
8.269668579101591
 20
-0.3797187805175781
 30
21.53314208984398
 70
   192
  0
VERTEX
  5
94
  8
METAL
 10
8.269668579101591
 20
-1.667434692382812
 30
20.95123291015602
 70
   192
  0
VERTEX
  5
95
  8
METAL
 10
8.269668579101591
 20
-1.667434692382812
 30
20.95123291015602
 70
   192
  0
VERTEX
  5
96
  8
METAL
 10
8.269668579101591
 20
-1.667434692382812
 30
20.95123291015602
 70
   192
  0
VERTEX
  5
252
  8
METAL
 10
8.269668579101591
 20
0.0
 30
20.05767822265602
 70
   192
  0
VERTEX
  5
253
  8
METAL
 10
8.269668579101591
 20
0.0
 30
20.05767822265602
 70
   192
  0
VERTEX
  5
99
  8
METAL
 10
8.269668579101591
 20
0.0
 30
20.05767822265602
 70
   192
  0
VERTEX
  5
9A
  8
METAL
 10
8.269668579101591
 20
0.0
 30
20.05767822265602
 70
   192
  0
VERTEX
  5
9B
  8
METAL
 10
8.269668579101591
 20
-1.402240753173828
 30
19.88287353515602
 70
   192
  0
VERTEX
  5
9C
  8
METAL
 10
8.269668579101591
 20
-1.402240753173828
 30
19.88287353515602
 70
   192
  0
VERTEX
  5
9D
  8
METAL
 10
8.269668579101591
 20
-1.402240753173828
 30
19.88287353515602
 70
   192
  0
VERTEX
  5
9E
  8
METAL
 10
8.269668579101591
 20
-1.402240753173828
 30
19.88287353515602
 70
   192
  0
VERTEX
  5
9F
  8
METAL
 10
8.269668579101591
 20
-9.924884796142578
 30
-5.34869384765625
 70
   192
  0
VERTEX
  5
A0
  8
METAL
 10
8.269668579101591
 20
-9.924884796142578
 30
-5.34869384765625
 70
   192
  0
VERTEX
  5
A1
  8
METAL
 10
8.269668579101591
 20
-9.924884796142578
 30
-5.34869384765625
 70
   192
  0
VERTEX
  5
A2
  8
METAL
 10
8.269668579101591
 20
-8.511783599853516
 30
-5.34869384765625
 70
   192
  0
VERTEX
  5
A3
  8
METAL
 10
8.269668579101591
 20
-8.511783599853516
 30
-5.34869384765625
 70
   192
  0
VERTEX
  5
A4
  8
METAL
 10
8.269668579101591
 20
-8.511783599853516
 30
-5.34869384765625
 70
   192
  0
VERTEX
  5
A5
  8
METAL
 10
8.269668579101591
 20
-8.511783599853516
 30
-5.34869384765625
 70
   192
  0
VERTEX
  5
A6
  8
METAL
 10
8.269668579101591
 20
-1.509449005126953
 30
-5.36724853515625
 70
   192
  0
VERTEX
  5
A7
  8
METAL
 10
8.269668579101591
 20
-1.509449005126953
 30
-5.36724853515625
 70
   192
  0
VERTEX
  5
A8
  8
METAL
 10
8.269668579101591
 20
-1.509449005126953
 30
-5.36724853515625
 70
   192
  0
VERTEX
  5
A9
  8
METAL
 10
8.269668579101591
 20
-1.509449005126953
 30
-5.36724853515625
 70
   192
  0
VERTEX
  5
AA
  8
METAL
 10
8.269668579101591
 20
-0.0963592529296875
 30
-5.37261962890625
 70
   192
  0
VERTEX
  5
AB
  8
METAL
 10
8.269668579101591
 20
-0.0963592529296875
 30
-5.37261962890625
 70
   192
  0
VERTEX
  5
AC
  8
METAL
 10
8.269668579101591
 20
-0.0963592529296875
 30
-5.37261962890625
 70
   192
  0
VERTEX
  5
AD
  8
METAL
 10
8.269668579101591
 20
-9.924884796142578
 30
-9.86334228515625
 70
   192
  0
VERTEX
  5
AE
  8
METAL
 10
8.269668579101591
 20
-0.9752998352050781
 30
-9.86334228515625
 70
   192
  0
VERTEX
  5
AF
  8
METAL
 10
8.269668579101591
 20
-9.924884796142578
 30
-44.16949462890625
 70
   192
  0
VERTEX
  5
B0
  8
METAL
 10
8.269668579101591
 20
-9.924884796142578
 30
-44.16949462890625
 70
   192
  0
VERTEX
  5
B1
  8
METAL
 10
8.269668579101591
 20
-7.906818389892578
 30
-44.1846923828125
 70
   192
  0
VERTEX
  5
B2
  8
METAL
 10
8.269668579101591
 20
-7.906818389892578
 30
-44.1846923828125
 70
   192
  0
VERTEX
  5
B3
  8
METAL
 10
8.269668579101591
 20
-9.877864837646484
 30
-44.45684814453125
 70
   192
  0
VERTEX
  5
B4
  8
METAL
 10
8.269668579101591
 20
-9.877864837646484
 30
-44.45684814453125
 70
   192
  0
VERTEX
  5
B5
  8
METAL
 10
8.269668579101591
 20
-8.010723114013672
 30
-44.46630859375
 70
   192
  0
VERTEX
  5
B6
  8
METAL
 10
8.269668579101591
 20
-8.010723114013672
 30
-44.46630859375
 70
   192
  0
VERTEX
  5
B7
  8
METAL
 10
8.269668579101591
 20
-9.73331069946289
 30
-44.74420166015625
 70
   192
  0
VERTEX
  5
B8
  8
METAL
 10
8.269668579101591
 20
-9.73331069946289
 30
-44.74420166015625
 70
   192
  0
VERTEX
  5
B9
  8
METAL
 10
8.269668579101591
 20
-8.212162017822266
 30
-44.74798583984375
 70
   192
  0
VERTEX
  5
BA
  8
METAL
 10
8.269668579101591
 20
-8.212162017822266
 30
-44.74798583984375
 70
   192
  0
VERTEX
  5
BB
  8
METAL
 10
8.269668579101591
 20
-9.57809066772461
 30
-44.87213134765625
 70
   192
  0
VERTEX
  5
BC
  8
METAL
 10
8.269668579101591
 20
-9.57809066772461
 30
-44.87213134765625
 70
   192
  0
VERTEX
  5
BD
  8
METAL
 10
8.269668579101591
 20
-8.386341094970703
 30
-44.8740234375
 70
   192
  0
VERTEX
  5
BE
  8
METAL
 10
8.269668579101591
 20
-8.386341094970703
 30
-44.8740234375
 70
   192
  0
VERTEX
  5
BF
  8
METAL
 10
8.269668579101591
 20
-9.15859603881836
 30
-45.0
 70
   192
  0
VERTEX
  5
C0
  8
METAL
 10
8.269668579101591
 20
-9.15859603881836
 30
-45.0
 70
   192
  0
VERTEX
  5
C1
  8
METAL
 10
8.269668579101591
 20
-8.82480239868164
 30
-45.0
 70
   192
  0
VERTEX
  5
C2
  8
METAL
 10
8.269668579101591
 20
-8.82480239868164
 30
-45.0
 70
   192
  0
VERTEX
  5
C3
  8
METAL
 10
7.769668579101591
 20
-6.334651947021484
 30
25.21905517578102
 70
   192
  0
VERTEX
  5
C4
  8
METAL
 10
7.769668579101591
 20
-6.334651947021484
 30
25.21905517578102
 70
   192
  0
VERTEX
  5
C5
  8
METAL
 10
7.769668579101591
 20
-6.334651947021484
 30
25.21905517578102
 70
   192
  0
VERTEX
  5
C6
  8
METAL
 10
7.769668579101591
 20
-6.334651947021484
 30
25.21905517578102
 70
   192
  0
VERTEX
  5
C7
  8
METAL
 10
7.769668579101591
 20
-9.924884796142578
 30
25.20910644531295
 70
   192
  0
VERTEX
  5
C8
  8
METAL
 10
7.769668579101591
 20
-9.924884796142578
 30
25.20910644531295
 70
   192
  0
VERTEX
  5
C9
  8
METAL
 10
7.769668579101591
 20
-9.924884796142578
 30
25.20910644531295
 70
   192
  0
VERTEX
  5
CA
  8
METAL
 10
7.769668579101591
 20
-9.924884796142578
 30
25.20910644531295
 70
   192
  0
VERTEX
  5
CB
  8
METAL
 10
7.769668579101591
 20
-3.547046661376953
 30
24.71826171875
 70
   192
  0
VERTEX
  5
CC
  8
METAL
 10
7.769668579101591
 20
-3.547046661376953
 30
24.71826171875
 70
   192
  0
VERTEX
  5
CD
  8
METAL
 10
7.769668579101591
 20
-3.547046661376953
 30
24.71826171875
 70
   192
  0
VERTEX
  5
CE
  8
METAL
 10
7.769668579101591
 20
-8.92428970336914
 30
24.21130371093705
 70
   192
  0
VERTEX
  5
CF
  8
METAL
 10
7.769668579101591
 20
-8.92428970336914
 30
24.21130371093705
 70
   192
  0
VERTEX
  5
D0
  8
METAL
 10
7.769668579101591
 20
-8.92428970336914
 30
24.21130371093705
 70
   192
  0
VERTEX
  5
D1
  8
METAL
 10
7.769668579101591
 20
-8.92428970336914
 30
24.21130371093705
 70
   192
  0
VERTEX
  5
D2
  8
METAL
 10
7.769668579101591
 20
-6.458122253417969
 30
23.81140136718705
 70
   192
  0
VERTEX
  5
D3
  8
METAL
 10
7.769668579101591
 20
-6.458122253417969
 30
23.81140136718705
 70
   192
  0
VERTEX
  5
D4
  8
METAL
 10
7.769668579101591
 20
-6.458122253417969
 30
23.81140136718705
 70
   192
  0
VERTEX
  5
D5
  8
METAL
 10
7.769668579101591
 20
-6.458122253417969
 30
23.81140136718705
 70
   192
  0
VERTEX
  5
D6
  8
METAL
 10
7.769668579101591
 20
-4.102073669433594
 30
23.418701171875
 70
   192
  0
VERTEX
  5
D7
  8
METAL
 10
7.769668579101591
 20
-4.102073669433594
 30
23.418701171875
 70
   192
  0
VERTEX
  5
D8
  8
METAL
 10
7.769668579101591
 20
-4.102073669433594
 30
23.418701171875
 70
   192
  0
VERTEX
  5
D9
  8
METAL
 10
7.769668579101591
 20
-1.562068939208984
 30
23.27258300781295
 70
   192
  0
VERTEX
  5
DA
  8
METAL
 10
7.769668579101591
 20
-1.562068939208984
 30
23.27258300781295
 70
   192
  0
VERTEX
  5
DB
  8
METAL
 10
7.769668579101591
 20
-1.562068939208984
 30
23.27258300781295
 70
   192
  0
VERTEX
  5
DC
  8
METAL
 10
7.769668579101591
 20
-2.577377319335938
 30
22.28973388671898
 70
   192
  0
VERTEX
  5
DD
  8
METAL
 10
7.769668579101591
 20
-2.577377319335938
 30
22.28973388671898
 70
   192
  0
VERTEX
  5
DE
  8
METAL
 10
7.769668579101591
 20
-2.577377319335938
 30
22.28973388671898
 70
   192
  0
VERTEX
  5
DF
  8
METAL
 10
7.769668579101591
 20
-0.3797187805175781
 30
21.53314208984398
 70
   192
  0
VERTEX
  5
E0
  8
METAL
 10
7.769668579101591
 20
-0.3797187805175781
 30
21.53314208984398
 70
   192
  0
VERTEX
  5
E1
  8
METAL
 10
7.769668579101591
 20
-0.3797187805175781
 30
21.53314208984398
 70
   192
  0
VERTEX
  5
E2
  8
METAL
 10
7.769668579101591
 20
-1.667434692382812
 30
20.95123291015602
 70
   192
  0
VERTEX
  5
E3
  8
METAL
 10
7.769668579101591
 20
-1.667434692382812
 30
20.95123291015602
 70
   192
  0
VERTEX
  5
E4
  8
METAL
 10
7.769668579101591
 20
-1.667434692382812
 30
20.95123291015602
 70
   192
  0
VERTEX
  5
E5
  8
METAL
 10
7.769668579101591
 20
0.0
 30
20.05767822265602
 70
   192
  0
VERTEX
  5
E6
  8
METAL
 10
7.769668579101591
 20
0.0
 30
20.05767822265602
 70
   192
  0
VERTEX
  5
E7
  8
METAL
 10
7.769668579101591
 20
0.0
 30
20.05767822265602
 70
   192
  0
VERTEX
  5
E8
  8
METAL
 10
7.769668579101591
 20
0.0
 30
20.05767822265602
 70
   192
  0
VERTEX
  5
E9
  8
METAL
 10
7.769668579101591
 20
-1.402240753173828
 30
19.88287353515602
 70
   192
  0
VERTEX
  5
EA
  8
METAL
 10
7.769668579101591
 20
-1.402240753173828
 30
19.88287353515602
 70
   192
  0
VERTEX
  5
EB
  8
METAL
 10
7.769668579101591
 20
-1.402240753173828
 30
19.88287353515602
 70
   192
  0
VERTEX
  5
EC
  8
METAL
 10
7.769668579101591
 20
-1.402240753173828
 30
19.88287353515602
 70
   192
  0
VERTEX
  5
ED
  8
METAL
 10
7.769668579101591
 20
-9.924884796142578
 30
-4.84869384765625
 70
   192
  0
VERTEX
  5
EE
  8
METAL
 10
7.769668579101591
 20
-9.924884796142578
 30
-4.84869384765625
 70
   192
  0
VERTEX
  5
EF
  8
METAL
 10
7.769668579101591
 20
-9.924884796142578
 30
-4.84869384765625
 70
   192
  0
VERTEX
  5
F0
  8
METAL
 10
7.769668579101591
 20
-8.511783599853516
 30
-4.84869384765625
 70
   192
  0
VERTEX
  5
F1
  8
METAL
 10
7.769668579101591
 20
-8.511783599853516
 30
-4.84869384765625
 70
   192
  0
VERTEX
  5
F2
  8
METAL
 10
7.769668579101591
 20
-8.511783599853516
 30
-4.84869384765625
 70
   192
  0
VERTEX
  5
F3
  8
METAL
 10
7.769668579101591
 20
-8.511783599853516
 30
-4.84869384765625
 70
   192
  0
VERTEX
  5
F4
  8
METAL
 10
7.769668579101591
 20
-1.507556915283203
 30
-4.86724853515625
 70
   192
  0
VERTEX
  5
F5
  8
METAL
 10
7.769668579101591
 20
-1.507556915283203
 30
-4.86724853515625
 70
   192
  0
VERTEX
  5
F6
  8
METAL
 10
7.769668579101591
 20
-1.507556915283203
 30
-4.86724853515625
 70
   192
  0
VERTEX
  5
F7
  8
METAL
 10
7.769668579101591
 20
-1.507556915283203
 30
-4.86724853515625
 70
   192
  0
VERTEX
  5
F8
  8
METAL
 10
7.769668579101591
 20
-0.0944633483886719
 30
-4.87261962890625
 70
   192
  0
VERTEX
  5
F9
  8
METAL
 10
7.769668579101591
 20
-0.0944633483886719
 30
-4.87261962890625
 70
   192
  0
VERTEX
  5
FA
  8
METAL
 10
7.769668579101591
 20
-0.0944633483886719
 30
-4.87261962890625
 70
   192
  0
VERTEX
  5
FB
  8
METAL
 10
-7.865158081054716
 20
-6.334651947021484
 30
25.21905517578102
 70
   192
  0
VERTEX
  5
FC
  8
METAL
 10
-7.865158081054716
 20
-6.334651947021484
 30
25.21905517578102
 70
   192
  0
VERTEX
  5
FD
  8
METAL
 10
-7.865158081054716
 20
-6.334651947021484
 30
25.21905517578102
 70
   192
  0
VERTEX
  5
FE
  8
METAL
 10
-7.865158081054716
 20
-6.334651947021484
 30
25.21905517578102
 70
   192
  0
VERTEX
  5
FF
  8
METAL
 10
-7.865158081054716
 20
-9.924884796142578
 30
25.20910644531295
 70
   192
  0
VERTEX
  5
100
  8
METAL
 10
-7.865158081054716
 20
-9.924884796142578
 30
25.20910644531295
 70
   192
  0
VERTEX
  5
101
  8
METAL
 10
-7.865158081054716
 20
-9.924884796142578
 30
25.20910644531295
 70
   192
  0
VERTEX
  5
102
  8
METAL
 10
-7.865158081054716
 20
-9.924884796142578
 30
25.20910644531295
 70
   192
  0
VERTEX
  5
103
  8
METAL
 10
-7.865158081054716
 20
-3.547046661376953
 30
24.71826171875
 70
   192
  0
VERTEX
  5
104
  8
METAL
 10
-7.865158081054716
 20
-3.547046661376953
 30
24.71826171875
 70
   192
  0
VERTEX
  5
105
  8
METAL
 10
-7.865158081054716
 20
-3.547046661376953
 30
24.71826171875
 70
   192
  0
VERTEX
  5
106
  8
METAL
 10
-7.865158081054716
 20
-8.92428970336914
 30
24.21130371093705
 70
   192
  0
VERTEX
  5
107
  8
METAL
 10
-7.865158081054716
 20
-8.92428970336914
 30
24.21130371093705
 70
   192
  0
VERTEX
  5
108
  8
METAL
 10
-7.865158081054716
 20
-8.92428970336914
 30
24.21130371093705
 70
   192
  0
VERTEX
  5
109
  8
METAL
 10
-7.865158081054716
 20
-8.92428970336914
 30
24.21130371093705
 70
   192
  0
VERTEX
  5
10A
  8
METAL
 10
-7.865158081054716
 20
-6.458122253417969
 30
23.81140136718705
 70
   192
  0
VERTEX
  5
10B
  8
METAL
 10
-7.865158081054716
 20
-6.458122253417969
 30
23.81140136718705
 70
   192
  0
VERTEX
  5
10C
  8
METAL
 10
-7.865158081054716
 20
-6.458122253417969
 30
23.81140136718705
 70
   192
  0
VERTEX
  5
10D
  8
METAL
 10
-7.865158081054716
 20
-6.458122253417969
 30
23.81140136718705
 70
   192
  0
VERTEX
  5
10E
  8
METAL
 10
-7.865158081054716
 20
-4.102073669433594
 30
23.418701171875
 70
   192
  0
VERTEX
  5
10F
  8
METAL
 10
-7.865158081054716
 20
-4.102073669433594
 30
23.418701171875
 70
   192
  0
VERTEX
  5
110
  8
METAL
 10
-7.865158081054716
 20
-4.102073669433594
 30
23.418701171875
 70
   192
  0
VERTEX
  5
111
  8
METAL
 10
-7.865158081054716
 20
-1.562068939208984
 30
23.27258300781295
 70
   192
  0
VERTEX
  5
112
  8
METAL
 10
-7.865158081054716
 20
-1.562068939208984
 30
23.27258300781295
 70
   192
  0
VERTEX
  5
113
  8
METAL
 10
-7.865158081054716
 20
-1.562068939208984
 30
23.27258300781295
 70
   192
  0
VERTEX
  5
114
  8
METAL
 10
-7.865158081054716
 20
-2.577377319335938
 30
22.28973388671898
 70
   192
  0
VERTEX
  5
115
  8
METAL
 10
-7.865158081054716
 20
-2.577377319335938
 30
22.28973388671898
 70
   192
  0
VERTEX
  5
116
  8
METAL
 10
-7.865158081054716
 20
-2.577377319335938
 30
22.28973388671898
 70
   192
  0
VERTEX
  5
117
  8
METAL
 10
-7.865158081054716
 20
-0.3797187805175781
 30
21.53314208984398
 70
   192
  0
VERTEX
  5
118
  8
METAL
 10
-7.865158081054716
 20
-0.3797187805175781
 30
21.53314208984398
 70
   192
  0
VERTEX
  5
119
  8
METAL
 10
-7.865158081054716
 20
-0.3797187805175781
 30
21.53314208984398
 70
   192
  0
VERTEX
  5
11A
  8
METAL
 10
-7.865158081054716
 20
-1.667434692382812
 30
20.95123291015602
 70
   192
  0
VERTEX
  5
11B
  8
METAL
 10
-7.865158081054716
 20
-1.667434692382812
 30
20.95123291015602
 70
   192
  0
VERTEX
  5
11C
  8
METAL
 10
-7.865158081054716
 20
-1.667434692382812
 30
20.95123291015602
 70
   192
  0
VERTEX
  5
11D
  8
METAL
 10
-7.865158081054716
 20
0.0
 30
20.05767822265602
 70
   192
  0
VERTEX
  5
11E
  8
METAL
 10
-7.865158081054716
 20
0.0
 30
20.05767822265602
 70
   192
  0
VERTEX
  5
11F
  8
METAL
 10
-7.865158081054716
 20
0.0
 30
20.05767822265602
 70
   192
  0
VERTEX
  5
120
  8
METAL
 10
-7.865158081054716
 20
0.0
 30
20.05767822265602
 70
   192
  0
VERTEX
  5
121
  8
METAL
 10
-7.865158081054716
 20
-1.402240753173828
 30
19.88287353515602
 70
   192
  0
VERTEX
  5
122
  8
METAL
 10
-7.865158081054716
 20
-1.402240753173828
 30
19.88287353515602
 70
   192
  0
VERTEX
  5
123
  8
METAL
 10
-7.865158081054716
 20
-1.402240753173828
 30
19.88287353515602
 70
   192
  0
VERTEX
  5
124
  8
METAL
 10
-7.865158081054716
 20
-1.402240753173828
 30
19.88287353515602
 70
   192
  0
VERTEX
  5
125
  8
METAL
 10
-7.865158081054716
 20
-9.924884796142578
 30
-4.84869384765625
 70
   192
  0
VERTEX
  5
126
  8
METAL
 10
-7.865158081054716
 20
-9.924884796142578
 30
-4.84869384765625
 70
   192
  0
VERTEX
  5
127
  8
METAL
 10
-7.865158081054716
 20
-9.924884796142578
 30
-4.84869384765625
 70
   192
  0
VERTEX
  5
128
  8
METAL
 10
-7.865158081054716
 20
-8.511783599853516
 30
-4.84869384765625
 70
   192
  0
VERTEX
  5
129
  8
METAL
 10
-7.865158081054716
 20
-8.511783599853516
 30
-4.84869384765625
 70
   192
  0
VERTEX
  5
12A
  8
METAL
 10
-7.865158081054716
 20
-8.511783599853516
 30
-4.84869384765625
 70
   192
  0
VERTEX
  5
12B
  8
METAL
 10
-7.865158081054716
 20
-8.511783599853516
 30
-4.84869384765625
 70
   192
  0
VERTEX
  5
12C
  8
METAL
 10
-7.865158081054716
 20
-1.507556915283203
 30
-4.86724853515625
 70
   192
  0
VERTEX
  5
12D
  8
METAL
 10
-7.865158081054716
 20
-1.507556915283203
 30
-4.86724853515625
 70
   192
  0
VERTEX
  5
12E
  8
METAL
 10
-7.865158081054716
 20
-1.507556915283203
 30
-4.86724853515625
 70
   192
  0
VERTEX
  5
12F
  8
METAL
 10
-7.865158081054716
 20
-1.507556915283203
 30
-4.86724853515625
 70
   192
  0
VERTEX
  5
130
  8
METAL
 10
-7.865158081054716
 20
-0.0944633483886719
 30
-4.87261962890625
 70
   192
  0
VERTEX
  5
131
  8
METAL
 10
-7.865158081054716
 20
-0.0944633483886719
 30
-4.87261962890625
 70
   192
  0
VERTEX
  5
132
  8
METAL
 10
-7.865158081054716
 20
-0.0944633483886719
 30
-4.87261962890625
 70
   192
  0
VERTEX
  5
133
  8
METAL
 10
-8.365158081054716
 20
-6.334651947021484
 30
25.21905517578102
 70
   192
  0
VERTEX
  5
134
  8
METAL
 10
-8.365158081054716
 20
-6.334651947021484
 30
25.21905517578102
 70
   192
  0
VERTEX
  5
135
  8
METAL
 10
-8.365158081054716
 20
-6.334651947021484
 30
25.21905517578102
 70
   192
  0
VERTEX
  5
136
  8
METAL
 10
-8.365158081054716
 20
-6.334651947021484
 30
25.21905517578102
 70
   192
  0
VERTEX
  5
137
  8
METAL
 10
-8.365158081054716
 20
-9.924884796142578
 30
25.20910644531295
 70
   192
  0
VERTEX
  5
138
  8
METAL
 10
-8.365158081054716
 20
-9.924884796142578
 30
25.20910644531295
 70
   192
  0
VERTEX
  5
139
  8
METAL
 10
-8.365158081054716
 20
-9.924884796142578
 30
25.20910644531295
 70
   192
  0
VERTEX
  5
13A
  8
METAL
 10
-8.365158081054716
 20
-9.924884796142578
 30
25.20910644531295
 70
   192
  0
VERTEX
  5
13B
  8
METAL
 10
-8.365158081054716
 20
-3.547046661376953
 30
24.71826171875
 70
   192
  0
VERTEX
  5
13C
  8
METAL
 10
-8.365158081054716
 20
-3.547046661376953
 30
24.71826171875
 70
   192
  0
VERTEX
  5
13D
  8
METAL
 10
-8.365158081054716
 20
-3.547046661376953
 30
24.71826171875
 70
   192
  0
VERTEX
  5
13E
  8
METAL
 10
-8.365158081054716
 20
-8.92428970336914
 30
24.21130371093705
 70
   192
  0
VERTEX
  5
13F
  8
METAL
 10
-8.365158081054716
 20
-8.92428970336914
 30
24.21130371093705
 70
   192
  0
VERTEX
  5
140
  8
METAL
 10
-8.365158081054716
 20
-8.92428970336914
 30
24.21130371093705
 70
   192
  0
VERTEX
  5
141
  8
METAL
 10
-8.365158081054716
 20
-8.92428970336914
 30
24.21130371093705
 70
   192
  0
VERTEX
  5
142
  8
METAL
 10
-8.365158081054716
 20
-6.458122253417969
 30
23.81140136718705
 70
   192
  0
VERTEX
  5
143
  8
METAL
 10
-8.365158081054716
 20
-6.458122253417969
 30
23.81140136718705
 70
   192
  0
VERTEX
  5
144
  8
METAL
 10
-8.365158081054716
 20
-6.458122253417969
 30
23.81140136718705
 70
   192
  0
VERTEX
  5
145
  8
METAL
 10
-8.365158081054716
 20
-6.458122253417969
 30
23.81140136718705
 70
   192
  0
VERTEX
  5
146
  8
METAL
 10
-8.365158081054716
 20
-4.102073669433594
 30
23.418701171875
 70
   192
  0
VERTEX
  5
147
  8
METAL
 10
-8.365158081054716
 20
-4.102073669433594
 30
23.418701171875
 70
   192
  0
VERTEX
  5
148
  8
METAL
 10
-8.365158081054716
 20
-4.102073669433594
 30
23.418701171875
 70
   192
  0
VERTEX
  5
149
  8
METAL
 10
-8.365158081054716
 20
-1.562068939208984
 30
23.27258300781295
 70
   192
  0
VERTEX
  5
14A
  8
METAL
 10
-8.365158081054716
 20
-1.562068939208984
 30
23.27258300781295
 70
   192
  0
VERTEX
  5
14B
  8
METAL
 10
-8.365158081054716
 20
-1.562068939208984
 30
23.27258300781295
 70
   192
  0
VERTEX
  5
14C
  8
METAL
 10
-8.365158081054716
 20
-2.577377319335938
 30
22.28973388671898
 70
   192
  0
VERTEX
  5
14D
  8
METAL
 10
-8.365158081054716
 20
-2.577377319335938
 30
22.28973388671898
 70
   192
  0
VERTEX
  5
14E
  8
METAL
 10
-8.365158081054716
 20
-2.577377319335938
 30
22.28973388671898
 70
   192
  0
VERTEX
  5
14F
  8
METAL
 10
-8.365158081054716
 20
-0.3797187805175781
 30
21.53314208984398
 70
   192
  0
VERTEX
  5
150
  8
METAL
 10
-8.365158081054716
 20
-0.3797187805175781
 30
21.53314208984398
 70
   192
  0
VERTEX
  5
151
  8
METAL
 10
-8.365158081054716
 20
-0.3797187805175781
 30
21.53314208984398
 70
   192
  0
VERTEX
  5
152
  8
METAL
 10
-8.365158081054716
 20
-1.667434692382812
 30
20.95123291015602
 70
   192
  0
VERTEX
  5
153
  8
METAL
 10
-8.365158081054716
 20
-1.667434692382812
 30
20.95123291015602
 70
   192
  0
VERTEX
  5
154
  8
METAL
 10
-8.365158081054716
 20
-1.667434692382812
 30
20.95123291015602
 70
   192
  0
VERTEX
  5
155
  8
METAL
 10
-8.365158081054716
 20
0.0
 30
20.05767822265602
 70
   192
  0
VERTEX
  5
156
  8
METAL
 10
-8.365158081054716
 20
0.0
 30
20.05767822265602
 70
   192
  0
VERTEX
  5
157
  8
METAL
 10
-8.365158081054716
 20
0.0
 30
20.05767822265602
 70
   192
  0
VERTEX
  5
158
  8
METAL
 10
-8.365158081054716
 20
0.0
 30
20.05767822265602
 70
   192
  0
VERTEX
  5
159
  8
METAL
 10
-8.365158081054716
 20
-1.402240753173828
 30
19.88287353515602
 70
   192
  0
VERTEX
  5
15A
  8
METAL
 10
-8.365158081054716
 20
-1.402240753173828
 30
19.88287353515602
 70
   192
  0
VERTEX
  5
15B
  8
METAL
 10
-8.365158081054716
 20
-1.402240753173828
 30
19.88287353515602
 70
   192
  0
VERTEX
  5
15C
  8
METAL
 10
-8.365158081054716
 20
-1.402240753173828
 30
19.88287353515602
 70
   192
  0
VERTEX
  5
15D
  8
METAL
 10
-8.365158081054716
 20
-9.924884796142578
 30
-5.34869384765625
 70
   192
  0
VERTEX
  5
15E
  8
METAL
 10
-8.365158081054716
 20
-9.924884796142578
 30
-5.34869384765625
 70
   192
  0
VERTEX
  5
15F
  8
METAL
 10
-8.365158081054716
 20
-9.924884796142578
 30
-5.34869384765625
 70
   192
  0
VERTEX
  5
160
  8
METAL
 10
-8.365158081054716
 20
-8.511783599853516
 30
-5.34869384765625
 70
   192
  0
VERTEX
  5
161
  8
METAL
 10
-8.365158081054716
 20
-8.511783599853516
 30
-5.34869384765625
 70
   192
  0
VERTEX
  5
162
  8
METAL
 10
-8.365158081054716
 20
-8.511783599853516
 30
-5.34869384765625
 70
   192
  0
VERTEX
  5
163
  8
METAL
 10
-8.365158081054716
 20
-8.511783599853516
 30
-5.34869384765625
 70
   192
  0
VERTEX
  5
164
  8
METAL
 10
-8.365158081054716
 20
-1.509449005126953
 30
-5.36724853515625
 70
   192
  0
VERTEX
  5
165
  8
METAL
 10
-8.365158081054716
 20
-1.509449005126953
 30
-5.36724853515625
 70
   192
  0
VERTEX
  5
166
  8
METAL
 10
-8.365158081054716
 20
-1.509449005126953
 30
-5.36724853515625
 70
   192
  0
VERTEX
  5
167
  8
METAL
 10
-8.365158081054716
 20
-1.509449005126953
 30
-5.36724853515625
 70
   192
  0
VERTEX
  5
168
  8
METAL
 10
-8.365158081054716
 20
-0.0963592529296875
 30
-5.37261962890625
 70
   192
  0
VERTEX
  5
169
  8
METAL
 10
-8.365158081054716
 20
-0.0963592529296875
 30
-5.37261962890625
 70
   192
  0
VERTEX
  5
16A
  8
METAL
 10
-8.365158081054716
 20
-0.0963592529296875
 30
-5.37261962890625
 70
   192
  0
VERTEX
  5
16B
  8
METAL
 10
-8.365158081054716
 20
-9.924884796142578
 30
-9.86334228515625
 70
   192
  0
VERTEX
  5
16C
  8
METAL
 10
-8.365158081054716
 20
-0.9752998352050781
 30
-9.86334228515625
 70
   192
  0
VERTEX
  5
16D
  8
METAL
 10
-8.365158081054716
 20
-9.924884796142578
 30
-44.16949462890625
 70
   192
  0
VERTEX
  5
16E
  8
METAL
 10
-8.365158081054716
 20
-9.924884796142578
 30
-44.16949462890625
 70
   192
  0
VERTEX
  5
16F
  8
METAL
 10
-8.365158081054716
 20
-7.906818389892578
 30
-44.1846923828125
 70
   192
  0
VERTEX
  5
170
  8
METAL
 10
-8.365158081054716
 20
-7.906818389892578
 30
-44.1846923828125
 70
   192
  0
VERTEX
  5
171
  8
METAL
 10
-8.365158081054716
 20
-9.877864837646484
 30
-44.45684814453125
 70
   192
  0
VERTEX
  5
172
  8
METAL
 10
-8.365158081054716
 20
-9.877864837646484
 30
-44.45684814453125
 70
   192
  0
VERTEX
  5
173
  8
METAL
 10
-8.365158081054716
 20
-8.010723114013672
 30
-44.46630859375
 70
   192
  0
VERTEX
  5
174
  8
METAL
 10
-8.365158081054716
 20
-8.010723114013672
 30
-44.46630859375
 70
   192
  0
VERTEX
  5
175
  8
METAL
 10
-8.365158081054716
 20
-9.73331069946289
 30
-44.74420166015625
 70
   192
  0
VERTEX
  5
176
  8
METAL
 10
-8.365158081054716
 20
-9.73331069946289
 30
-44.74420166015625
 70
   192
  0
VERTEX
  5
177
  8
METAL
 10
-8.365158081054716
 20
-8.212162017822266
 30
-44.74798583984375
 70
   192
  0
VERTEX
  5
178
  8
METAL
 10
-8.365158081054716
 20
-8.212162017822266
 30
-44.74798583984375
 70
   192
  0
VERTEX
  5
179
  8
METAL
 10
-8.365158081054716
 20
-9.57809066772461
 30
-44.87213134765625
 70
   192
  0
VERTEX
  5
17A
  8
METAL
 10
-8.365158081054716
 20
-9.57809066772461
 30
-44.87213134765625
 70
   192
  0
VERTEX
  5
17B
  8
METAL
 10
-8.365158081054716
 20
-8.386341094970703
 30
-44.8740234375
 70
   192
  0
VERTEX
  5
17C
  8
METAL
 10
-8.365158081054716
 20
-8.386341094970703
 30
-44.8740234375
 70
   192
  0
VERTEX
  5
17D
  8
METAL
 10
-8.365158081054716
 20
-9.15859603881836
 30
-45.0
 70
   192
  0
VERTEX
  5
17E
  8
METAL
 10
-8.365158081054716
 20
-9.15859603881836
 30
-45.0
 70
   192
  0
VERTEX
  5
17F
  8
METAL
 10
-8.365158081054716
 20
-8.82480239868164
 30
-45.0
 70
   192
  0
VERTEX
  5
180
  8
METAL
 10
-8.365158081054716
 20
-8.82480239868164
 30
-45.0
 70
   192
  0
VERTEX
  5
181
  8
METAL
 10
-25.0
 20
-6.334651947021484
 30
25.21905517578102
 70
   192
  0
VERTEX
  5
182
  8
METAL
 10
-25.0
 20
-6.334651947021484
 30
25.21905517578102
 70
   192
  0
VERTEX
  5
183
  8
METAL
 10
-25.0
 20
-6.334651947021484
 30
25.21905517578102
 70
   192
  0
VERTEX
  5
184
  8
METAL
 10
-25.0
 20
-9.924884796142578
 30
25.20910644531295
 70
   192
  0
VERTEX
  5
185
  8
METAL
 10
-25.0
 20
-9.924884796142578
 30
25.20910644531295
 70
   192
  0
VERTEX
  5
186
  8
METAL
 10
-25.0
 20
-9.924884796142578
 30
25.20910644531295
 70
   192
  0
VERTEX
  5
187
  8
METAL
 10
-25.0
 20
-3.547046661376953
 30
24.71826171875
 70
   192
  0
VERTEX
  5
188
  8
METAL
 10
-25.0
 20
-3.547046661376953
 30
24.71826171875
 70
   192
  0
VERTEX
  5
189
  8
METAL
 10
-25.0
 20
-3.547046661376953
 30
24.71826171875
 70
   192
  0
VERTEX
  5
18A
  8
METAL
 10
-25.0
 20
-1.562068939208984
 30
23.27258300781295
 70
   192
  0
VERTEX
  5
18B
  8
METAL
 10
-25.0
 20
-1.562068939208984
 30
23.27258300781295
 70
   192
  0
VERTEX
  5
18C
  8
METAL
 10
-25.0
 20
-1.562068939208984
 30
23.27258300781295
 70
   192
  0
VERTEX
  5
18D
  8
METAL
 10
-25.0
 20
-0.3797187805175781
 30
21.53314208984398
 70
   192
  0
VERTEX
  5
18E
  8
METAL
 10
-25.0
 20
-0.3797187805175781
 30
21.53314208984398
 70
   192
  0
VERTEX
  5
18F
  8
METAL
 10
-25.0
 20
-0.3797187805175781
 30
21.53314208984398
 70
   192
  0
VERTEX
  5
190
  8
METAL
 10
-25.0
 20
0.0
 30
20.05767822265602
 70
   192
  0
VERTEX
  5
191
  8
METAL
 10
-25.0
 20
0.0
 30
20.05767822265602
 70
   192
  0
VERTEX
  5
192
  8
METAL
 10
-25.0
 20
0.0
 30
20.05767822265602
 70
   192
  0
VERTEX
  5
193
  8
METAL
 10
-25.0
 20
-9.924884796142578
 30
-5.34869384765625
 70
   192
  0
VERTEX
  5
194
  8
METAL
 10
-25.0
 20
-9.924884796142578
 30
-5.34869384765625
 70
   192
  0
VERTEX
  5
195
  8
METAL
 10
-25.0
 20
-0.0963592529296875
 30
-5.37261962890625
 70
   192
  0
VERTEX
  5
196
  8
METAL
 10
-25.0
 20
-0.0963592529296875
 30
-5.37261962890625
 70
   192
  0
VERTEX
  5
197
  8
METAL
 10
-25.0
 20
-9.924884796142578
 30
-9.86334228515625
 70
   192
  0
VERTEX
  5
198
  8
METAL
 10
-25.0
 20
-9.924884796142578
 30
-9.86334228515625
 70
   192
  0
VERTEX
  5
199
  8
METAL
 10
-25.0
 20
-0.9752998352050781
 30
-9.86334228515625
 70
   192
  0
VERTEX
  5
19A
  8
METAL
 10
-25.0
 20
-0.9752998352050781
 30
-9.86334228515625
 70
   192
  0
VERTEX
  5
19B
  8
METAL
 10
-25.0
 20
-9.924884796142578
 30
-44.16949462890625
 70
   192
  0
VERTEX
  5
19C
  8
METAL
 10
-25.0
 20
-9.924884796142578
 30
-44.16949462890625
 70
   192
  0
VERTEX
  5
19D
  8
METAL
 10
-25.0
 20
-9.924884796142578
 30
-44.16949462890625
 70
   192
  0
VERTEX
  5
19E
  8
METAL
 10
-25.0
 20
-7.906818389892578
 30
-44.1846923828125
 70
   192
  0
VERTEX
  5
19F
  8
METAL
 10
-25.0
 20
-7.906818389892578
 30
-44.1846923828125
 70
   192
  0
VERTEX
  5
1A0
  8
METAL
 10
-25.0
 20
-7.906818389892578
 30
-44.1846923828125
 70
   192
  0
VERTEX
  5
1A1
  8
METAL
 10
-25.0
 20
-9.877864837646484
 30
-44.45684814453125
 70
   192
  0
VERTEX
  5
1A2
  8
METAL
 10
-25.0
 20
-9.877864837646484
 30
-44.45684814453125
 70
   192
  0
VERTEX
  5
1A3
  8
METAL
 10
-25.0
 20
-9.877864837646484
 30
-44.45684814453125
 70
   192
  0
VERTEX
  5
1A4
  8
METAL
 10
-25.0
 20
-8.010723114013672
 30
-44.46630859375
 70
   192
  0
VERTEX
  5
1A5
  8
METAL
 10
-25.0
 20
-8.010723114013672
 30
-44.46630859375
 70
   192
  0
VERTEX
  5
1A6
  8
METAL
 10
-25.0
 20
-8.010723114013672
 30
-44.46630859375
 70
   192
  0
VERTEX
  5
1A7
  8
METAL
 10
-25.0
 20
-9.73331069946289
 30
-44.74420166015625
 70
   192
  0
VERTEX
  5
1A8
  8
METAL
 10
-25.0
 20
-9.73331069946289
 30
-44.74420166015625
 70
   192
  0
VERTEX
  5
1A9
  8
METAL
 10
-25.0
 20
-9.73331069946289
 30
-44.74420166015625
 70
   192
  0
VERTEX
  5
1AA
  8
METAL
 10
-25.0
 20
-8.212162017822266
 30
-44.74798583984375
 70
   192
  0
VERTEX
  5
1AB
  8
METAL
 10
-25.0
 20
-8.212162017822266
 30
-44.74798583984375
 70
   192
  0
VERTEX
  5
1AC
  8
METAL
 10
-25.0
 20
-8.212162017822266
 30
-44.74798583984375
 70
   192
  0
VERTEX
  5
1AD
  8
METAL
 10
-25.0
 20
-9.57809066772461
 30
-44.87213134765625
 70
   192
  0
VERTEX
  5
1AE
  8
METAL
 10
-25.0
 20
-9.57809066772461
 30
-44.87213134765625
 70
   192
  0
VERTEX
  5
1AF
  8
METAL
 10
-25.0
 20
-9.57809066772461
 30
-44.87213134765625
 70
   192
  0
VERTEX
  5
1B0
  8
METAL
 10
-25.0
 20
-8.386341094970703
 30
-44.8740234375
 70
   192
  0
VERTEX
  5
1B1
  8
METAL
 10
-25.0
 20
-8.386341094970703
 30
-44.8740234375
 70
   192
  0
VERTEX
  5
1B2
  8
METAL
 10
-25.0
 20
-8.386341094970703
 30
-44.8740234375
 70
   192
  0
VERTEX
  5
1B3
  8
METAL
 10
-25.0
 20
-9.15859603881836
 30
-45.0
 70
   192
  0
VERTEX
  5
1B4
  8
METAL
 10
-25.0
 20
-9.15859603881836
 30
-45.0
 70
   192
  0
VERTEX
  5
1B5
  8
METAL
 10
-25.0
 20
-9.15859603881836
 30
-45.0
 70
   192
  0
VERTEX
  5
1B6
  8
METAL
 10
-25.0
 20
-8.82480239868164
 30
-45.0
 70
   192
  0
VERTEX
  5
1B7
  8
METAL
 10
-25.0
 20
-8.82480239868164
 30
-45.0
 70
   192
  0
VERTEX
  5
1B8
  8
METAL
 10
-25.0
 20
-8.82480239868164
 30
-45.0
 70
   192
  0
VERTEX
  5
1B9
  8
METAL
 10
0.0
 20
0.0
 30
0.0
 70
   128
 71
   115
 72
   113
 73
   303
 74
   305
  0
VERTEX
  5
1BA
  8
METAL
 10
0.0
 20
0.0
 30
0.0
 70
   128
 71
   114
 72
   117
 73
   307
 74
   304
  0
VERTEX
  5
1BB
  8
METAL
 10
0.0
 20
0.0
 30
0.0
 70
   128
 71
   134
 72
   132
 73
   322
 74
   324
  0
VERTEX
  5
1BC
  8
METAL
 10
0.0
 20
0.0
 30
0.0
 70
   128
 71
    30
 72
    25
 73
    23
 74
    27
  0
VERTEX
  5
1BD
  8
METAL
 10
0.0
 20
0.0
 30
0.0
 70
   128
 71
   330
 72
   327
 73
   344
 74
   344
  0
VERTEX
  5
1BE
  8
METAL
 10
0.0
 20
0.0
 30
0.0
 70
   128
 71
   291
 72
   303
 73
   113
 74
   100
  0
VERTEX
  5
1BF
  8
METAL
 10
0.0
 20
0.0
 30
0.0
 70
   128
 71
   111
 72
   114
 73
   304
 74
   302
  0
VERTEX
  5
1C0
  8
METAL
 10
0.0
 20
0.0
 30
0.0
 70
   128
 71
    21
 72
    19
 73
    23
 74
    25
  0
VERTEX
  5
1C1
  8
METAL
 10
0.0
 20
0.0
 30
0.0
 70
   128
 71
   356
 72
   353
 73
   348
 74
   350
  0
VERTEX
  5
1C2
  8
METAL
 10
0.0
 20
0.0
 30
0.0
 70
   128
 71
   346
 72
   350
 73
   348
 74
   344
  0
VERTEX
  5
1C3
  8
METAL
 10
0.0
 20
0.0
 30
0.0
 70
   128
 71
   196
 72
   233
 73
   178
 74
   142
  0
VERTEX
  5
1C4
  8
METAL
 10
0.0
 20
0.0
 30
0.0
 70
   128
 71
   172
 72
   189
 73
   244
 74
   226
  0
VERTEX
  5
1C5
  8
METAL
 10
0.0
 20
0.0
 30
0.0
 70
   128
 71
    21
 72
    16
 73
    13
 74
    10
  0
VERTEX
  5
1C6
  8
METAL
 10
0.0
 20
0.0
 30
0.0
 70
   128
 71
    21
 72
    10
 73
     7
 74
     1
  0
VERTEX
  5
1C7
  8
METAL
 10
0.0
 20
0.0
 30
0.0
 70
   128
 71
    21
 72
     1
 73
     4
 74
    19
  0
VERTEX
  5
1C8
  8
METAL
 10
0.0
 20
0.0
 30
0.0
 70
   128
 71
   165
 72
   171
 73
   225
 74
   220
  0
VERTEX
  5
1C9
  8
METAL
 10
0.0
 20
0.0
 30
0.0
 70
   128
 71
   159
 72
   164
 73
   219
 74
   214
  0
VERTEX
  5
1CA
  8
METAL
 10
0.0
 20
0.0
 30
0.0
 70
   128
 71
   145
 72
   158
 73
   213
 74
   200
  0
VERTEX
  5
1CB
  8
METAL
 10
0.0
 20
0.0
 30
0.0
 70
   128
 71
   138
 72
   144
 73
   199
 74
   192
  0
VERTEX
  5
1CC
  8
METAL
 10
0.0
 20
0.0
 30
0.0
 70
   128
 71
   141
 72
   137
 73
   191
 74
   195
  0
VERTEX
  5
1CD
  8
METAL
 10
0.0
 20
0.0
 30
0.0
 70
   128
 71
   119
 72
   116
 73
   306
 74
   309
  0
VERTEX
  5
1CE
  8
METAL
 10
0.0
 20
0.0
 30
0.0
 70
   128
 71
   311
 72
   308
 73
   118
 74
   121
  0
VERTEX
  5
1CF
  8
METAL
 10
0.0
 20
0.0
 30
0.0
 70
   128
 71
   127
 72
   124
 73
   314
 74
   317
  0
VERTEX
  5
1D0
  8
METAL
 10
0.0
 20
0.0
 30
0.0
 70
   128
 71
   319
 72
   316
 73
   126
 74
   129
  0
VERTEX
  5
1D1
  8
METAL
 10
0.0
 20
0.0
 30
0.0
 70
   128
 71
    27
 72
    33
 73
    36
 74
    30
  0
VERTEX
  5
1D2
  8
METAL
 10
0.0
 20
0.0
 30
0.0
 70
   128
 71
   362
 72
   359
 73
   353
 74
   356
  0
VERTEX
  5
1D3
  8
METAL
 10
0.0
 20
0.0
 30
0.0
 70
   128
 71
    39
 72
    45
 73
    48
 74
    42
  0
VERTEX
  5
1D4
  8
METAL
 10
0.0
 20
0.0
 30
0.0
 70
   128
 71
   374
 72
   371
 73
   365
 74
   368
  0
VERTEX
  5
1D5
  8
METAL
 10
0.0
 20
0.0
 30
0.0
 70
   128
 71
   123
 72
   120
 73
   310
 74
   313
  0
VERTEX
  5
1D6
  8
METAL
 10
0.0
 20
0.0
 30
0.0
 70
   128
 71
   315
 72
   312
 73
   122
 74
   125
  0
VERTEX
  5
1D7
  8
METAL
 10
0.0
 20
0.0
 30
0.0
 70
   128
 71
    33
 72
    39
 73
    42
 74
    36
  0
VERTEX
  5
1D8
  8
METAL
 10
0.0
 20
0.0
 30
0.0
 70
   128
 71
   368
 72
   365
 73
   359
 74
   362
  0
VERTEX
  5
1D9
  8
METAL
 10
0.0
 20
0.0
 30
0.0
 70
   128
 71
   131
 72
   128
 73
   318
 74
   321
  0
VERTEX
  5
1DA
  8
METAL
 10
0.0
 20
0.0
 30
0.0
 70
   128
 71
   323
 72
   320
 73
   130
 74
   133
  0
VERTEX
  5
1DB
  8
METAL
 10
0.0
 20
0.0
 30
0.0
 70
   128
 71
    45
 72
    51
 73
    54
 74
    48
  0
VERTEX
  5
1DC
  8
METAL
 10
0.0
 20
0.0
 30
0.0
 70
   128
 71
   380
 72
   377
 73
   371
 74
   374
  0
VERTEX
  5
1DD
  8
METAL
 10
0.0
 20
0.0
 30
0.0
 70
   128
 71
   342
 72
   346
 73
   344
 74
   344
  0
VERTEX
  5
1DE
  8
METAL
 10
0.0
 20
0.0
 30
0.0
 70
   128
 71
   327
 72
   333
 73
   344
 74
   344
  0
VERTEX
  5
1DF
  8
METAL
 10
0.0
 20
0.0
 30
0.0
 70
   128
 71
   333
 72
   336
 73
   344
 74
   344
  0
VERTEX
  5
1E0
  8
METAL
 10
0.0
 20
0.0
 30
0.0
 70
   128
 71
   336
 72
   339
 73
   344
 74
   344
  0
VERTEX
  5
1E1
  8
METAL
 10
0.0
 20
0.0
 30
0.0
 70
   128
 71
   339
 72
   342
 73
   344
 74
   344
  0
VERTEX
  5
1E2
  8
METAL
 10
0.0
 20
0.0
 30
0.0
 70
   128
 71
    28
 72
    24
 73
   113
 74
   115
  0
VERTEX
  5
1E3
  8
METAL
 10
0.0
 20
0.0
 30
0.0
 70
   128
 71
   347
 72
   351
 73
   305
 74
   303
  0
VERTEX
  5
1E4
  8
METAL
 10
0.0
 20
0.0
 30
0.0
 70
   128
 71
    26
 72
    31
 73
   117
 74
   114
  0
VERTEX
  5
1E5
  8
METAL
 10
0.0
 20
0.0
 30
0.0
 70
   128
 71
   354
 72
   349
 73
   304
 74
   307
  0
VERTEX
  5
1E6
  8
METAL
 10
0.0
 20
0.0
 30
0.0
 70
   128
 71
    56
 72
    53
 73
   132
 74
   134
  0
VERTEX
  5
1E7
  8
METAL
 10
0.0
 20
0.0
 30
0.0
 70
   128
 71
   376
 72
   379
 73
   324
 74
   322
  0
VERTEX
  5
1E8
  8
METAL
 10
0.0
 20
0.0
 30
0.0
 70
   128
 71
   343
 72
   347
 73
   303
 74
   291
  0
VERTEX
  5
1E9
  8
METAL
 10
0.0
 20
0.0
 30
0.0
 70
   128
 71
    24
 72
    20
 73
   100
 74
   113
  0
VERTEX
  5
1EA
  8
METAL
 10
0.0
 20
0.0
 30
0.0
 70
   128
 71
    22
 72
    26
 73
   114
 74
   111
  0
VERTEX
  5
1EB
  8
METAL
 10
0.0
 20
0.0
 30
0.0
 70
   128
 71
   349
 72
   345
 73
   302
 74
   304
  0
VERTEX
  5
1EC
  8
METAL
 10
0.0
 20
0.0
 30
0.0
 70
   128
 71
   329
 72
   343
 73
   291
 74
   254
  0
VERTEX
  5
1ED
  8
METAL
 10
0.0
 20
0.0
 30
0.0
 70
   128
 71
    20
 72
     6
 73
    62
 74
   100
  0
VERTEX
  5
1EE
  8
METAL
 10
0.0
 20
0.0
 30
0.0
 70
   128
 71
    18
 72
    22
 73
   111
 74
    92
  0
VERTEX
  5
1EF
  8
METAL
 10
0.0
 20
0.0
 30
0.0
 70
   128
 71
   345
 72
   341
 73
   284
 74
   302
  0
VERTEX
  5
1F0
  8
METAL
 10
0.0
 20
0.0
 30
0.0
 70
   128
 71
    15
 72
    17
 73
    91
 74
    86
  0
VERTEX
  5
1F1
  8
METAL
 10
0.0
 20
0.0
 30
0.0
 70
   128
 71
   340
 72
   338
 73
   277
 74
   283
  0
VERTEX
  5
1F2
  8
METAL
 10
0.0
 20
0.0
 30
0.0
 70
   128
 71
    12
 72
    14
 73
    85
 74
    80
  0
VERTEX
  5
1F3
  8
METAL
 10
0.0
 20
0.0
 30
0.0
 70
   128
 71
   337
 72
   335
 73
   271
 74
   276
  0
VERTEX
  5
1F4
  8
METAL
 10
0.0
 20
0.0
 30
0.0
 70
   128
 71
     9
 72
    11
 73
    79
 74
    66
  0
VERTEX
  5
1F5
  8
METAL
 10
0.0
 20
0.0
 30
0.0
 70
   128
 71
   334
 72
   332
 73
   257
 74
   270
  0
VERTEX
  5
1F6
  8
METAL
 10
0.0
 20
0.0
 30
0.0
 70
   128
 71
     3
 72
     8
 73
    65
 74
    58
  0
VERTEX
  5
1F7
  8
METAL
 10
0.0
 20
0.0
 30
0.0
 70
   128
 71
   331
 72
   326
 73
   250
 74
   256
  0
VERTEX
  5
1F8
  8
METAL
 10
0.0
 20
0.0
 30
0.0
 70
   128
 71
     5
 72
     2
 73
    57
 74
    61
  0
VERTEX
  5
1F9
  8
METAL
 10
0.0
 20
0.0
 30
0.0
 70
   128
 71
   325
 72
   328
 73
   253
 74
   249
  0
VERTEX
  5
1FA
  8
METAL
 10
0.0
 20
0.0
 30
0.0
 70
   128
 71
    34
 72
    29
 73
   116
 74
   119
  0
VERTEX
  5
1FB
  8
METAL
 10
0.0
 20
0.0
 30
0.0
 70
   128
 71
   352
 72
   357
 73
   309
 74
   306
  0
VERTEX
  5
1FC
  8
METAL
 10
0.0
 20
0.0
 30
0.0
 70
   128
 71
   360
 72
   355
 73
   308
 74
   311
  0
VERTEX
  5
1FD
  8
METAL
 10
0.0
 20
0.0
 30
0.0
 70
   128
 71
    32
 72
    37
 73
   121
 74
   118
  0
VERTEX
  5
1FE
  8
METAL
 10
0.0
 20
0.0
 30
0.0
 70
   128
 71
    46
 72
    41
 73
   124
 74
   127
  0
VERTEX
  5
1FF
  8
METAL
 10
0.0
 20
0.0
 30
0.0
 70
   128
 71
   364
 72
   369
 73
   317
 74
   314
  0
VERTEX
  5
200
  8
METAL
 10
0.0
 20
0.0
 30
0.0
 70
   128
 71
   372
 72
   367
 73
   316
 74
   319
  0
VERTEX
  5
201
  8
METAL
 10
0.0
 20
0.0
 30
0.0
 70
   128
 71
    44
 72
    49
 73
   129
 74
   126
  0
VERTEX
  5
202
  8
METAL
 10
0.0
 20
0.0
 30
0.0
 70
   128
 71
    40
 72
    35
 73
   120
 74
   123
  0
VERTEX
  5
203
  8
METAL
 10
0.0
 20
0.0
 30
0.0
 70
   128
 71
   358
 72
   363
 73
   313
 74
   310
  0
VERTEX
  5
204
  8
METAL
 10
0.0
 20
0.0
 30
0.0
 70
   128
 71
   366
 72
   361
 73
   312
 74
   315
  0
VERTEX
  5
205
  8
METAL
 10
0.0
 20
0.0
 30
0.0
 70
   128
 71
    38
 72
    43
 73
   125
 74
   122
  0
VERTEX
  5
206
  8
METAL
 10
0.0
 20
0.0
 30
0.0
 70
   128
 71
    52
 72
    47
 73
   128
 74
   131
  0
VERTEX
  5
207
  8
METAL
 10
0.0
 20
0.0
 30
0.0
 70
   128
 71
   370
 72
   375
 73
   321
 74
   318
  0
VERTEX
  5
208
  8
METAL
 10
0.0
 20
0.0
 30
0.0
 70
   128
 71
   378
 72
   373
 73
   320
 74
   323
  0
VERTEX
  5
209
  8
METAL
 10
0.0
 20
0.0
 30
0.0
 70
   128
 71
    50
 72
    55
 73
   133
 74
   130
  0
VERTEX
  5
20A
  8
METAL
 10
0.0
 20
0.0
 30
0.0
 70
   128
 71
   295
 72
   103
 73
   181
 74
   237
  0
VERTEX
  5
20B
  8
METAL
 10
0.0
 20
0.0
 30
0.0
 70
   128
 71
   104
 72
    69
 73
   149
 74
   183
  0
VERTEX
  5
20C
  8
METAL
 10
0.0
 20
0.0
 30
0.0
 70
   128
 71
    68
 72
    72
 73
   152
 74
   148
  0
VERTEX
  5
20D
  8
METAL
 10
0.0
 20
0.0
 30
0.0
 70
   128
 71
    73
 72
    76
 73
   155
 74
   153
  0
VERTEX
  5
20E
  8
METAL
 10
0.0
 20
0.0
 30
0.0
 70
   128
 71
    77
 72
    82
 73
   161
 74
   156
  0
VERTEX
  5
20F
  8
METAL
 10
0.0
 20
0.0
 30
0.0
 70
   128
 71
    83
 72
    88
 73
   167
 74
   162
  0
VERTEX
  5
210
  8
METAL
 10
0.0
 20
0.0
 30
0.0
 70
   128
 71
    89
 72
    95
 73
   175
 74
   168
  0
VERTEX
  5
211
  8
METAL
 10
0.0
 20
0.0
 30
0.0
 70
   128
 71
    96
 72
   108
 73
   187
 74
   176
  0
VERTEX
  5
212
  8
METAL
 10
0.0
 20
0.0
 30
0.0
 70
   128
 71
   107
 72
   299
 73
   241
 74
   185
  0
VERTEX
  5
213
  8
METAL
 10
0.0
 20
0.0
 30
0.0
 70
   128
 71
   297
 72
   287
 73
   229
 74
   240
  0
VERTEX
  5
214
  8
METAL
 10
0.0
 20
0.0
 30
0.0
 70
   128
 71
   288
 72
   280
 73
   223
 74
   230
  0
VERTEX
  5
215
  8
METAL
 10
0.0
 20
0.0
 30
0.0
 70
   128
 71
   279
 72
   274
 73
   217
 74
   222
  0
VERTEX
  5
216
  8
METAL
 10
0.0
 20
0.0
 30
0.0
 70
   128
 71
   273
 72
   268
 73
   211
 74
   216
  0
VERTEX
  5
217
  8
METAL
 10
0.0
 20
0.0
 30
0.0
 70
   128
 71
   267
 72
   265
 73
   207
 74
   210
  0
VERTEX
  5
218
  8
METAL
 10
0.0
 20
0.0
 30
0.0
 70
   128
 71
   264
 72
   261
 73
   203
 74
   206
  0
VERTEX
  5
219
  8
METAL
 10
0.0
 20
0.0
 30
0.0
 70
   128
 71
   260
 72
   293
 73
   236
 74
   202
  0
VERTEX
  5
21A
  8
METAL
 10
0.0
 20
0.0
 30
0.0
 70
   128
 71
   110
 72
   301
 73
   298
 74
   106
  0
VERTEX
  5
21B
  8
METAL
 10
0.0
 20
0.0
 30
0.0
 70
   128
 71
   300
 72
   282
 73
   286
 74
   296
  0
VERTEX
  5
21C
  8
METAL
 10
0.0
 20
0.0
 30
0.0
 70
   128
 71
   281
 72
   275
 73
   278
 74
   285
  0
VERTEX
  5
21D
  8
METAL
 10
0.0
 20
0.0
 30
0.0
 70
   128
 71
   275
 72
   269
 73
   272
 74
   278
  0
VERTEX
  5
21E
  8
METAL
 10
0.0
 20
0.0
 30
0.0
 70
   128
 71
   269
 72
   255
 73
   266
 74
   272
  0
VERTEX
  5
21F
  8
METAL
 10
0.0
 20
0.0
 30
0.0
 70
   128
 71
   255
 72
   248
 73
   263
 74
   266
  0
VERTEX
  5
220
  8
METAL
 10
0.0
 20
0.0
 30
0.0
 70
   128
 71
   247
 72
   251
 73
   258
 74
   262
  0
VERTEX
  5
221
  8
METAL
 10
0.0
 20
0.0
 30
0.0
 70
   128
 71
   252
 72
   289
 73
   292
 74
   259
  0
VERTEX
  5
222
  8
METAL
 10
0.0
 20
0.0
 30
0.0
 70
   128
 71
   235
 72
   197
 73
   204
 74
   239
  0
VERTEX
  5
223
  8
METAL
 10
0.0
 20
0.0
 30
0.0
 70
   128
 71
   198
 72
   194
 73
   209
 74
   205
  0
VERTEX
  5
224
  8
METAL
 10
0.0
 20
0.0
 30
0.0
 70
   128
 71
   193
 72
   201
 73
   212
 74
   208
  0
VERTEX
  5
225
  8
METAL
 10
0.0
 20
0.0
 30
0.0
 70
   128
 71
   201
 72
   215
 73
   218
 74
   212
  0
VERTEX
  5
226
  8
METAL
 10
0.0
 20
0.0
 30
0.0
 70
   128
 71
   215
 72
   221
 73
   224
 74
   218
  0
VERTEX
  5
227
  8
METAL
 10
0.0
 20
0.0
 30
0.0
 70
   128
 71
   221
 72
   227
 73
   231
 74
   224
  0
VERTEX
  5
228
  8
METAL
 10
0.0
 20
0.0
 30
0.0
 70
   128
 71
   228
 72
   246
 73
   243
 74
   232
  0
VERTEX
  5
229
  8
METAL
 10
0.0
 20
0.0
 30
0.0
 70
   128
 71
   245
 72
   190
 73
   186
 74
   242
  0
VERTEX
  5
22A
  8
METAL
 10
0.0
 20
0.0
 30
0.0
 70
   128
 71
   188
 72
   169
 73
   173
 74
   184
  0
VERTEX
  5
22B
  8
METAL
 10
0.0
 20
0.0
 30
0.0
 70
   128
 71
   170
 72
   163
 73
   166
 74
   174
  0
VERTEX
  5
22C
  8
METAL
 10
0.0
 20
0.0
 30
0.0
 70
   128
 71
   163
 72
   157
 73
   160
 74
   166
  0
VERTEX
  5
22D
  8
METAL
 10
0.0
 20
0.0
 30
0.0
 70
   128
 71
   157
 72
   143
 73
   154
 74
   160
  0
VERTEX
  5
22E
  8
METAL
 10
0.0
 20
0.0
 30
0.0
 70
   128
 71
   143
 72
   136
 73
   151
 74
   154
  0
VERTEX
  5
22F
  8
METAL
 10
0.0
 20
0.0
 30
0.0
 70
   128
 71
   135
 72
   139
 73
   146
 74
   150
  0
VERTEX
  5
230
  8
METAL
 10
0.0
 20
0.0
 30
0.0
 70
   128
 71
   140
 72
   177
 73
   180
 74
   147
  0
VERTEX
  5
231
  8
METAL
 10
0.0
 20
0.0
 30
0.0
 70
   128
 71
   101
 72
    63
 73
    70
 74
   105
  0
VERTEX
  5
232
  8
METAL
 10
0.0
 20
0.0
 30
0.0
 70
   128
 71
    64
 72
    60
 73
    75
 74
    71
  0
VERTEX
  5
233
  8
METAL
 10
0.0
 20
0.0
 30
0.0
 70
   128
 71
    59
 72
    67
 73
    78
 74
    74
  0
VERTEX
  5
234
  8
METAL
 10
0.0
 20
0.0
 30
0.0
 70
   128
 71
    67
 72
    81
 73
    84
 74
    78
  0
VERTEX
  5
235
  8
METAL
 10
0.0
 20
0.0
 30
0.0
 70
   128
 71
    81
 72
    87
 73
    90
 74
    84
  0
VERTEX
  5
236
  8
METAL
 10
0.0
 20
0.0
 30
0.0
 70
   128
 71
    87
 72
    94
 73
    98
 74
    90
  0
VERTEX
  5
237
  8
METAL
 10
0.0
 20
0.0
 30
0.0
 70
   128
 71
    93
 72
   112
 73
   109
 74
    97
  0
VERTEX
  5
238
  8
METAL
 10
0.0
 20
0.0
 30
0.0
 70
   128
 71
   290
 72
    99
 73
   102
 74
   294
  0
VERTEX
  5
239
  8
METAL
 10
0.0
 20
0.0
 30
0.0
 70
   128
 71
   179
 72
   234
 73
   238
 74
   182
  0
SEQEND
  5
285
  8
METAL
  0
ENDSEC
  0
EOF
