  0
SECTION
  2
HEADER
  9
$ACADVER
  1
AC1009
  9
$DWGCODEPAGE
  3
ansi_1252
  9
$INSBASE
 10
0.0
 20
0.0
 30
0.0
  9
$EXTMIN
 10
-15.5
 20
-13.0
 30
-46.7269488678057
  9
$EXTMAX
 10
15.67942810058593
 20
0.0
 30
9.962755073539505
  9
$LIMMIN
 10
0.0
 20
0.0
  9
$LIMMAX
 10
12.0
 20
9.0
  9
$ORTHOMODE
 70
     1
  9
$REGENMODE
 70
     1
  9
$FILLMODE
 70
     1
  9
$QTEXTMODE
 70
     0
  9
$MIRRTEXT
 70
     1
  9
$DRAGMODE
 70
     2
  9
$LTSCALE
 40
1.0
  9
$OSMODE
 70
    37
  9
$ATTMODE
 70
     1
  9
$TEXTSIZE
 40
0.2
  9
$TRACEWID
 40
0.05
  9
$TEXTSTYLE
  7
STANDARD
  9
$CLAYER
  8
0
  9
$CELTYPE
  6
BYLAYER
  9
$CECOLOR
 62
   256
  9
$DIMSCALE
 40
1.0
  9
$DIMASZ
 40
0.18
  9
$DIMEXO
 40
0.0625
  9
$DIMDLI
 40
0.38
  9
$DIMRND
 40
0.0
  9
$DIMDLE
 40
0.0
  9
$DIMEXE
 40
0.18
  9
$DIMTP
 40
0.0
  9
$DIMTM
 40
0.0
  9
$DIMTXT
 40
0.18
  9
$DIMCEN
 40
0.09
  9
$DIMTSZ
 40
0.0
  9
$DIMTOL
 70
     0
  9
$DIMLIM
 70
     0
  9
$DIMTIH
 70
     1
  9
$DIMTOH
 70
     1
  9
$DIMSE1
 70
     0
  9
$DIMSE2
 70
     0
  9
$DIMTAD
 70
     0
  9
$DIMZIN
 70
     0
  9
$DIMBLK
  1

  9
$DIMASO
 70
     1
  9
$DIMSHO
 70
     1
  9
$DIMPOST
  1

  9
$DIMAPOST
  1

  9
$DIMALT
 70
     0
  9
$DIMALTD
 70
     2
  9
$DIMALTF
 40
25.4
  9
$DIMLFAC
 40
1.0
  9
$DIMTOFL
 70
     0
  9
$DIMTVP
 40
0.0
  9
$DIMTIX
 70
     0
  9
$DIMSOXD
 70
     0
  9
$DIMSAH
 70
     0
  9
$DIMBLK1
  1

  9
$DIMBLK2
  1

  9
$DIMSTYLE
  2
STANDARD
  9
$DIMCLRD
 70
     0
  9
$DIMCLRE
 70
     0
  9
$DIMCLRT
 70
     0
  9
$DIMTFAC
 40
1.0
  9
$DIMGAP
 40
0.09
  9
$LUNITS
 70
     2
  9
$LUPREC
 70
     3
  9
$SKETCHINC
 40
0.1
  9
$FILLETRAD
 40
0.5
  9
$AUNITS
 70
     0
  9
$AUPREC
 70
     0
  9
$MENU
  1
.
  9
$ELEVATION
 40
0.0
  9
$PELEVATION
 40
0.0
  9
$THICKNESS
 40
0.0
  9
$LIMCHECK
 70
     0
  9
$CHAMFERA
 40
0.5
  9
$CHAMFERB
 40
0.5
  9
$SKPOLY
 70
     0
  9
$TDCREATE
 40
2456504.658774572
  9
$TDUPDATE
 40
2456504.658774572
  9
$TDINDWG
 40
0.0011921296
  9
$TDUSRTIMER
 40
0.001180544
  9
$USRTIMER
 70
     1
  9
$ANGBASE
 50
0.0
  9
$ANGDIR
 70
     0
  9
$PDMODE
 70
     0
  9
$PDSIZE
 40
0.0
  9
$PLINEWID
 40
0.0
  9
$COORDS
 70
     1
  9
$SPLFRAME
 70
     0
  9
$SPLINETYPE
 70
     6
  9
$SPLINESEGS
 70
     8
  9
$ATTDIA
 70
     0
  9
$ATTREQ
 70
     1
  9
$HANDLING
 70
     1
  9
$HANDSEED
  5
36B
  9
$SURFTAB1
 70
     6
  9
$SURFTAB2
 70
     6
  9
$SURFTYPE
 70
     6
  9
$SURFU
 70
     6
  9
$SURFV
 70
     6
  9
$UCSNAME
  2

  9
$UCSORG
 10
0.0
 20
0.0
 30
0.0
  9
$UCSXDIR
 10
1.0
 20
0.0
 30
0.0
  9
$UCSYDIR
 10
0.0
 20
0.0
 30
1.0
  9
$PUCSNAME
  2

  9
$PUCSORG
 10
0.0
 20
0.0
 30
0.0
  9
$PUCSXDIR
 10
1.0
 20
0.0
 30
0.0
  9
$PUCSYDIR
 10
0.0
 20
1.0
 30
0.0
  9
$USERI1
 70
     0
  9
$USERI2
 70
     0
  9
$USERI3
 70
     0
  9
$USERI4
 70
     0
  9
$USERI5
 70
     0
  9
$USERR1
 40
0.0
  9
$USERR2
 40
0.0
  9
$USERR3
 40
0.0
  9
$USERR4
 40
0.0
  9
$USERR5
 40
0.0
  9
$WORLDVIEW
 70
     1
  9
$SHADEDGE
 70
     3
  9
$SHADEDIF
 70
    70
  9
$TILEMODE
 70
     1
  9
$MAXACTVP
 70
    64
  9
$PLIMCHECK
 70
     0
  9
$PEXTMIN
 10
1.000000000000000E+20
 20
1.000000000000000E+20
 30
1.000000000000000E+20
  9
$PEXTMAX
 10
-1.000000000000000E+20
 20
-1.000000000000000E+20
 30
-1.000000000000000E+20
  9
$PLIMMIN
 10
0.0
 20
0.0
  9
$PLIMMAX
 10
12.0
 20
9.0
  9
$UNITMODE
 70
     0
  9
$VISRETAIN
 70
     1
  9
$PLINEGEN
 70
     0
  9
$PSLTSCALE
 70
     1
  0
ENDSEC
  0
SECTION
  2
TABLES
  0
TABLE
  2
VPORT
 70
     1
  0
VPORT
  2
*ACTIVE
 70
     0
 10
0.0
 20
0.0
 11
1.0
 21
1.0
 12
4.659631491042425
 22
-17.62590754714375
 13
0.0
 23
0.0
 14
0.5
 24
0.5
 15
0.5
 25
0.5
 16
-1.0
 26
-1.0
 36
1.0
 17
0.0
 27
0.0
 37
0.0
 40
82.01198493300218
 41
0.5451930321682399
 42
50.0
 43
0.0
 44
0.0
 50
0.0
 51
0.0
 71
    16
 72
   100
 73
     0
 74
     1
 75
     0
 76
     0
 77
     0
 78
     0
  0
ENDTAB
  0
TABLE
  2
LTYPE
 70
     1
  0
LTYPE
  2
CONTINUOUS
 70
     0
  3
Solid line
 72
    65
 73
     0
 40
0.0
  0
ENDTAB
  0
TABLE
  2
LAYER
 70
     4
  0
LAYER
  2
0
 70
     0
 62
     7
  6
CONTINUOUS
  0
LAYER
  2
COURO
 70
     0
 62
    66
  6
CONTINUOUS
  0
LAYER
  2
METAL
 70
     0
 62
   110
  6
CONTINUOUS
  0
LAYER
  2
COSTURA
 70
     0
 62
   194
  6
CONTINUOUS
  0
ENDTAB
  0
TABLE
  2
STYLE
 70
     1
  0
STYLE
  2
STANDARD
 70
     0
 40
0.0
 41
1.0
 50
0.0
 71
     0
 42
0.2
  3
txt
  4

  0
ENDTAB
  0
TABLE
  2
VIEW
 70
     0
  0
ENDTAB
  0
TABLE
  2
UCS
 70
     0
  0
ENDTAB
  0
TABLE
  2
APPID
 70
     1
  0
APPID
  2
ACAD
 70
     0
  0
ENDTAB
  0
TABLE
  2
DIMSTYLE
 70
     1
  0
DIMSTYLE
  2
STANDARD
 70
     0
  3

  4

  5

  6

  7

 40
1.0
 41
0.18
 42
0.0625
 43
0.38
 44
0.18
 45
0.0
 46
0.0
 47
0.0
 48
0.0
140
0.18
141
0.09
142
0.0
143
25.4
144
1.0
145
0.0
146
1.0
147
0.09
 71
     0
 72
     0
 73
     1
 74
     1
 75
     0
 76
     0
 77
     0
 78
     0
170
     0
171
     2
172
     0
173
     0
174
     0
175
     0
176
     0
177
     0
178
     0
  0
ENDTAB
  0
ENDSEC
  0
SECTION
  2
BLOCKS
  0
BLOCK
  8
0
  2
$MODEL_SPACE
 70
     0
 10
0.0
 20
0.0
 30
0.0
  3
$MODEL_SPACE
  1

  0
ENDBLK
  5
21
  8
0
  0
BLOCK
 67
     1
  8
0
  2
$PAPER_SPACE
 70
     0
 10
0.0
 20
0.0
 30
0.0
  3
$PAPER_SPACE
  1

  0
ENDBLK
  5
76
 67
     1
  8
0
  0
ENDSEC
  0
SECTION
  2
ENTITIES
  0
POLYLINE
  5
3C
  8
COURO
 66
     1
 10
0.0
 20
0.0
 30
0.0
 70
    64
 71
   208
 72
    98
  0
VERTEX
  5
3D
  8
COURO
 10
13.74249267578125
 20
-7.550647258758545
 30
8.167886604301223
 70
   192
  0
VERTEX
  5
3E
  8
COURO
 10
13.74249267578125
 20
-7.550647258758545
 30
8.167886604301223
 70
   192
  0
VERTEX
  5
3F
  8
COURO
 10
13.74249267578125
 20
-6.277491092681885
 30
8.167886604301223
 70
   192
  0
VERTEX
  5
40
  8
COURO
 10
13.74249267578125
 20
-6.277491092681885
 30
8.167886604301223
 70
   192
  0
VERTEX
  5
41
  8
COURO
 10
13.74249267578125
 20
-6.226683139801025
 30
8.167886604301223
 70
   192
  0
VERTEX
  5
42
  8
COURO
 10
13.74249267578125
 20
-6.226683139801025
 30
8.167886604301223
 70
   192
  0
VERTEX
  5
43
  8
COURO
 10
13.74249267578125
 20
-4.953526139259338
 30
8.167886604301223
 70
   192
  0
VERTEX
  5
44
  8
COURO
 10
13.74249267578125
 20
-4.953526139259338
 30
8.167886604301223
 70
   192
  0
VERTEX
  5
45
  8
COURO
 10
13.74249267578125
 20
-7.550647258758545
 30
-5.264589439399934
 70
   192
  0
VERTEX
  5
46
  8
COURO
 10
13.74249267578125
 20
-7.550647258758545
 30
-5.264589439399934
 70
   192
  0
VERTEX
  5
47
  8
COURO
 10
13.74249267578125
 20
-4.953526139259338
 30
-5.264589439399934
 70
   192
  0
VERTEX
  5
48
  8
COURO
 10
13.74249267578125
 20
-4.953526139259338
 30
-5.264589439399934
 70
   192
  0
VERTEX
  5
49
  8
COURO
 10
13.74249267578125
 20
-6.277491092681885
 30
-5.2645932540972
 70
   192
  0
VERTEX
  5
4A
  8
COURO
 10
13.74249267578125
 20
-6.277491092681885
 30
-5.2645932540972
 70
   192
  0
VERTEX
  5
4B
  8
COURO
 10
13.74249267578125
 20
-6.226683139801025
 30
-5.2645932540972
 70
   192
  0
VERTEX
  5
4C
  8
COURO
 10
13.74249267578125
 20
-6.226683139801025
 30
-5.2645932540972
 70
   192
  0
VERTEX
  5
4D
  8
COURO
 10
13.74249267578125
 20
-7.510203123092651
 30
-14.90215123749565
 70
   192
  0
VERTEX
  5
4E
  8
COURO
 10
13.74249267578125
 20
-7.510203123092651
 30
-14.90215123749565
 70
   192
  0
VERTEX
  5
4F
  8
COURO
 10
13.74249267578125
 20
-6.186239123344421
 30
-14.90215123749565
 70
   192
  0
VERTEX
  5
50
  8
COURO
 10
13.74249267578125
 20
-6.186239123344421
 30
-14.90215123749565
 70
   192
  0
VERTEX
  5
51
  8
COURO
 10
13.74249267578125
 20
-4.913083136081696
 30
-14.90215123749565
 70
   192
  0
VERTEX
  5
52
  8
COURO
 10
13.74249267578125
 20
-4.913083136081696
 30
-14.90215123749565
 70
   192
  0
VERTEX
  5
53
  8
COURO
 10
13.74249267578125
 20
-6.23704719543457
 30
-14.90215314484427
 70
   192
  0
VERTEX
  5
54
  8
COURO
 10
13.74249267578125
 20
-6.23704719543457
 30
-14.90215314484427
 70
   192
  0
VERTEX
  5
55
  8
COURO
 10
13.74249267578125
 20
-5.176929175853722
 30
-24.53970922089408
 70
   192
  0
VERTEX
  5
56
  8
COURO
 10
13.74249267578125
 20
-5.176929175853722
 30
-24.53970922089408
 70
   192
  0
VERTEX
  5
57
  8
COURO
 10
13.74249267578125
 20
-7.774049043655388
 30
-24.5397101745684
 70
   192
  0
VERTEX
  5
58
  8
COURO
 10
13.74249267578125
 20
-7.774049043655388
 30
-24.5397101745684
 70
   192
  0
VERTEX
  5
2EA
  8
COURO
 10
13.74249267578125
 20
-6.500893115997307
 30
-24.53971303559134
 70
   192
  0
VERTEX
  5
2EB
  8
COURO
 10
13.74249267578125
 20
-6.500893115997307
 30
-24.53971303559134
 70
   192
  0
VERTEX
  5
5B
  8
COURO
 10
13.74249267578125
 20
-6.450085163116448
 30
-24.53971303559134
 70
   192
  0
VERTEX
  5
5C
  8
COURO
 10
13.74249267578125
 20
-6.450085163116448
 30
-24.53971303559134
 70
   192
  0
VERTEX
  5
5D
  8
COURO
 10
13.74249267578125
 20
-7.774049043655388
 30
-32.48304809189628
 70
   192
  0
VERTEX
  5
2EC
  8
COURO
 10
13.74249267578125
 20
-7.774049043655388
 30
-32.48304809189628
 70
   192
  0
VERTEX
  5
5F
  8
COURO
 10
13.74249267578125
 20
-5.176929175853722
 30
-32.48304809189628
 70
   192
  0
VERTEX
  5
60
  8
COURO
 10
13.74249267578125
 20
-5.176929175853722
 30
-32.48304809189628
 70
   192
  0
VERTEX
  5
61
  8
COURO
 10
13.74249267578125
 20
-6.450085163116448
 30
-32.48304999924491
 70
   192
  0
VERTEX
  5
62
  8
COURO
 10
13.74249267578125
 20
-6.450085163116448
 30
-32.48304999924491
 70
   192
  0
VERTEX
  5
63
  8
COURO
 10
13.74249267578125
 20
-6.500893115997307
 30
-32.48305190659354
 70
   192
  0
VERTEX
  5
64
  8
COURO
 10
13.74249267578125
 20
-6.500893115997307
 30
-32.48305190659354
 70
   192
  0
VERTEX
  5
65
  8
COURO
 10
13.74249267578125
 20
-4.809438169002526
 30
-37.61374289847205
 70
   192
  0
VERTEX
  5
66
  8
COURO
 10
13.74249267578125
 20
-4.809438169002526
 30
-37.61374289847205
 70
   192
  0
VERTEX
  5
67
  8
COURO
 10
13.74249267578125
 20
-6.077749133110039
 30
-37.72471089220832
 70
   192
  0
VERTEX
  5
68
  8
COURO
 10
13.74249267578125
 20
-6.077749133110039
 30
-37.72471089220832
 70
   192
  0
VERTEX
  5
69
  8
COURO
 10
13.74249267578125
 20
-6.128364205360405
 30
-37.72913790798972
 70
   192
  0
VERTEX
  5
6A
  8
COURO
 10
13.74249267578125
 20
-6.128364205360405
 30
-37.72913790798972
 70
   192
  0
VERTEX
  5
2ED
  8
COURO
 10
13.74249267578125
 20
-7.396675109863274
 30
-37.84009791470359
 70
   192
  0
VERTEX
  5
2EE
  8
COURO
 10
13.74249267578125
 20
-7.396675109863274
 30
-37.84009791470359
 70
   192
  0
VERTEX
  5
6D
  8
COURO
 10
13.74249267578125
 20
-2.222470045089715
 30
-39.34792388535331
 70
   192
  0
VERTEX
  5
6E
  8
COURO
 10
13.74249267578125
 20
-2.222470045089715
 30
-39.34792388535331
 70
   192
  0
VERTEX
  5
6F
  8
COURO
 10
13.74249267578125
 20
-3.096737146377556
 30
-39.4244158969004
 70
   192
  0
VERTEX
  5
70
  8
COURO
 10
13.74249267578125
 20
-3.096737146377556
 30
-39.4244158969004
 70
   192
  0
VERTEX
  5
71
  8
COURO
 10
13.74249267578125
 20
-8.768938064575188
 30
-39.92066789723228
 70
   192
  0
VERTEX
  5
72
  8
COURO
 10
13.74249267578125
 20
-8.768938064575188
 30
-39.92066789723228
 70
   192
  0
VERTEX
  5
2EF
  8
COURO
 10
13.74249267578125
 20
-9.64320516586303
 30
-39.99715293503593
 70
   192
  0
VERTEX
  5
2F0
  8
COURO
 10
13.74249267578125
 20
-9.64320516586303
 30
-39.99715293503593
 70
   192
  0
VERTEX
  5
2F1
  8
COURO
 10
13.74249267578125
 20
-1.852832078933709
 30
-41.27609480477165
 70
   192
  0
VERTEX
  5
2F2
  8
COURO
 10
13.74249267578125
 20
-1.852832078933709
 30
-41.27609480477165
 70
   192
  0
VERTEX
  5
77
  8
COURO
 10
13.74249267578125
 20
-2.885420203208916
 30
-41.36643589592765
 70
   192
  0
VERTEX
  5
78
  8
COURO
 10
13.74249267578125
 20
-2.885420203208916
 30
-41.36643589592765
 70
   192
  0
VERTEX
  5
79
  8
COURO
 10
13.74249267578125
 20
-8.639815330505364
 30
-41.86988080597709
 70
   192
  0
VERTEX
  5
7A
  8
COURO
 10
13.74249267578125
 20
-8.639815330505364
 30
-41.86988080597709
 70
   192
  0
VERTEX
  5
7B
  8
COURO
 10
13.74249267578125
 20
-9.672403335571282
 30
-41.96021879769157
 70
   192
  0
VERTEX
  5
7C
  8
COURO
 10
13.74249267578125
 20
-9.672403335571282
 30
-41.96021879769157
 70
   192
  0
VERTEX
  5
7D
  8
COURO
 10
13.74249267578125
 20
-2.756298184394829
 30
-43.31564868546317
 70
   192
  0
VERTEX
  5
7E
  8
COURO
 10
13.74249267578125
 20
-2.756298184394829
 30
-43.31564868546317
 70
   192
  0
VERTEX
  5
7F
  8
COURO
 10
13.74249267578125
 20
-1.839682102203362
 30
-43.72320378876518
 70
   192
  0
VERTEX
  5
80
  8
COURO
 10
13.74249267578125
 20
-1.839682102203362
 30
-43.72320378876518
 70
   192
  0
VERTEX
  5
81
  8
COURO
 10
13.74249267578125
 20
-8.42849922180175
 30
-43.8119007453997
 70
   192
  0
VERTEX
  5
82
  8
COURO
 10
13.74249267578125
 20
-8.42849922180175
 30
-43.8119007453997
 70
   192
  0
VERTEX
  5
83
  8
COURO
 10
13.74249267578125
 20
-9.260417938232415
 30
-44.37243283844779
 70
   192
  0
VERTEX
  5
84
  8
COURO
 10
13.74249267578125
 20
-9.260417938232415
 30
-44.37243283844779
 70
   192
  0
VERTEX
  5
85
  8
COURO
 10
13.74249267578125
 20
-3.358709156513207
 30
-44.87046493149589
 70
   192
  0
VERTEX
  5
86
  8
COURO
 10
13.74249267578125
 20
-3.358709156513207
 30
-44.87046493149589
 70
   192
  0
VERTEX
  5
87
  8
COURO
 10
13.74249267578125
 20
-5.447637200355523
 30
-45.21840871430229
 70
   192
  0
VERTEX
  5
88
  8
COURO
 10
13.74249267578125
 20
-5.447637200355523
 30
-45.21840871430229
 70
   192
  0
VERTEX
  5
89
  8
COURO
 10
13.74249267578125
 20
-7.565249204635613
 30
-45.23848880387138
 70
   192
  0
VERTEX
  5
8A
  8
COURO
 10
13.74249267578125
 20
-7.565249204635613
 30
-45.23848880387138
 70
   192
  0
VERTEX
  5
8B
  8
COURO
 10
13.74249267578125
 20
-2.901615142822259
 30
-45.67481769181083
 70
   192
  0
VERTEX
  5
8C
  8
COURO
 10
13.74249267578125
 20
-2.901615142822259
 30
-45.67481769181083
 70
   192
  0
VERTEX
  5
8D
  8
COURO
 10
13.74249267578125
 20
-7.875723123550408
 30
-46.10999692536186
 70
   192
  0
VERTEX
  5
8E
  8
COURO
 10
13.74249267578125
 20
-7.875723123550408
 30
-46.10999692536186
 70
   192
  0
VERTEX
  5
8F
  8
COURO
 10
13.74249267578125
 20
-5.346819162368767
 30
-46.37076200104545
 70
   192
  0
VERTEX
  5
90
  8
COURO
 10
13.74249267578125
 20
-5.346819162368767
 30
-46.37076200104545
 70
   192
  0
VERTEX
  5
91
  8
COURO
 10
13.29377365112304
 20
-7.550647258758545
 30
9.514039863578574
 70
   192
  0
VERTEX
  5
2F3
  8
COURO
 10
13.29377365112304
 20
-7.550647258758545
 30
9.514039863578574
 70
   192
  0
VERTEX
  5
2F4
  8
COURO
 10
13.29377365112304
 20
-7.550647258758545
 30
9.514039863578574
 70
   192
  0
VERTEX
  5
94
  8
COURO
 10
13.29377365112304
 20
-6.277491092681885
 30
9.514039863578574
 70
   192
  0
VERTEX
  5
95
  8
COURO
 10
13.29377365112304
 20
-6.277491092681885
 30
9.514039863578574
 70
   192
  0
VERTEX
  5
96
  8
COURO
 10
13.29377365112304
 20
-6.277491092681885
 30
9.514039863578574
 70
   192
  0
VERTEX
  5
2F5
  8
COURO
 10
13.29377365112304
 20
-6.226683139801025
 30
9.514039863578574
 70
   192
  0
VERTEX
  5
2F6
  8
COURO
 10
13.29377365112304
 20
-6.226683139801025
 30
9.514039863578574
 70
   192
  0
VERTEX
  5
99
  8
COURO
 10
13.29377365112304
 20
-6.226683139801025
 30
9.514039863578574
 70
   192
  0
VERTEX
  5
9A
  8
COURO
 10
13.29377365112304
 20
-4.953526139259338
 30
9.514039863578574
 70
   192
  0
VERTEX
  5
9B
  8
COURO
 10
13.29377365112304
 20
-4.953526139259338
 30
9.514039863578574
 70
   192
  0
VERTEX
  5
9C
  8
COURO
 10
13.29377365112304
 20
-4.953526139259338
 30
9.514039863578574
 70
   192
  0
VERTEX
  5
9D
  8
COURO
 10
11.94762420654297
 20
-7.550647258758545
 30
9.962755073539505
 70
   192
  0
VERTEX
  5
9E
  8
COURO
 10
11.94762420654297
 20
-7.550647258758545
 30
9.962755073539505
 70
   192
  0
VERTEX
  5
9F
  8
COURO
 10
11.94762420654297
 20
-6.277491092681885
 30
9.962755073539505
 70
   192
  0
VERTEX
  5
A0
  8
COURO
 10
11.94762420654297
 20
-6.277491092681885
 30
9.962755073539505
 70
   192
  0
VERTEX
  5
A1
  8
COURO
 10
11.94762420654297
 20
-6.226683139801025
 30
9.962755073539505
 70
   192
  0
VERTEX
  5
A2
  8
COURO
 10
11.94762420654297
 20
-6.226683139801025
 30
9.962755073539505
 70
   192
  0
VERTEX
  5
A3
  8
COURO
 10
11.94762420654297
 20
-4.953526139259338
 30
9.962755073539505
 70
   192
  0
VERTEX
  5
A4
  8
COURO
 10
11.94762420654297
 20
-4.953526139259338
 30
9.962755073539505
 70
   192
  0
VERTEX
  5
A5
  8
COURO
 10
-12.05264282226563
 20
-7.550647258758545
 30
9.962755073539505
 70
   192
  0
VERTEX
  5
A6
  8
COURO
 10
-12.05264282226563
 20
-7.550647258758545
 30
9.962755073539505
 70
   192
  0
VERTEX
  5
A7
  8
COURO
 10
-12.05264282226563
 20
-6.277491092681885
 30
9.962755073539505
 70
   192
  0
VERTEX
  5
A8
  8
COURO
 10
-12.05264282226563
 20
-6.277491092681885
 30
9.962755073539505
 70
   192
  0
VERTEX
  5
A9
  8
COURO
 10
-12.05264282226563
 20
-6.226683139801025
 30
9.962755073539505
 70
   192
  0
VERTEX
  5
AA
  8
COURO
 10
-12.05264282226563
 20
-6.226683139801025
 30
9.962755073539505
 70
   192
  0
VERTEX
  5
AB
  8
COURO
 10
-12.05264282226563
 20
-4.953526139259338
 30
9.962755073539505
 70
   192
  0
VERTEX
  5
AC
  8
COURO
 10
-12.05264282226563
 20
-4.953526139259338
 30
9.962755073539505
 70
   192
  0
VERTEX
  5
AD
  8
COURO
 10
-13.39879226684571
 20
-7.550647258758545
 30
9.514039863578574
 70
   192
  0
VERTEX
  5
AE
  8
COURO
 10
-13.39879226684571
 20
-7.550647258758545
 30
9.514039863578574
 70
   192
  0
VERTEX
  5
AF
  8
COURO
 10
-13.39879226684571
 20
-7.550647258758545
 30
9.514039863578574
 70
   192
  0
VERTEX
  5
B0
  8
COURO
 10
-13.39879226684571
 20
-6.277491092681885
 30
9.514039863578574
 70
   192
  0
VERTEX
  5
B1
  8
COURO
 10
-13.39879226684571
 20
-6.277491092681885
 30
9.514039863578574
 70
   192
  0
VERTEX
  5
B2
  8
COURO
 10
-13.39879226684571
 20
-6.277491092681885
 30
9.514039863578574
 70
   192
  0
VERTEX
  5
B3
  8
COURO
 10
-13.39879226684571
 20
-6.226683139801025
 30
9.514039863578574
 70
   192
  0
VERTEX
  5
B4
  8
COURO
 10
-13.39879226684571
 20
-6.226683139801025
 30
9.514039863578574
 70
   192
  0
VERTEX
  5
B5
  8
COURO
 10
-13.39879226684571
 20
-6.226683139801025
 30
9.514039863578574
 70
   192
  0
VERTEX
  5
B6
  8
COURO
 10
-13.39879226684571
 20
-4.953526139259338
 30
9.514039863578574
 70
   192
  0
VERTEX
  5
B7
  8
COURO
 10
-13.39879226684571
 20
-4.953526139259338
 30
9.514039863578574
 70
   192
  0
VERTEX
  5
B8
  8
COURO
 10
-13.39879226684571
 20
-4.953526139259338
 30
9.514039863578574
 70
   192
  0
VERTEX
  5
B9
  8
COURO
 10
-13.84750938415528
 20
-7.550647258758545
 30
8.167886604301223
 70
   192
  0
VERTEX
  5
BA
  8
COURO
 10
-13.84750938415528
 20
-7.550647258758545
 30
8.167886604301223
 70
   192
  0
VERTEX
  5
BB
  8
COURO
 10
-13.84750938415528
 20
-6.277491092681885
 30
8.167886604301223
 70
   192
  0
VERTEX
  5
BC
  8
COURO
 10
-13.84750938415528
 20
-6.277491092681885
 30
8.167886604301223
 70
   192
  0
VERTEX
  5
BD
  8
COURO
 10
-13.84750938415528
 20
-6.226683139801025
 30
8.167886604301223
 70
   192
  0
VERTEX
  5
BE
  8
COURO
 10
-13.84750938415528
 20
-6.226683139801025
 30
8.167886604301223
 70
   192
  0
VERTEX
  5
BF
  8
COURO
 10
-13.84750938415528
 20
-4.953526139259338
 30
8.167886604301223
 70
   192
  0
VERTEX
  5
C0
  8
COURO
 10
-13.84750938415528
 20
-4.953526139259338
 30
8.167886604301223
 70
   192
  0
VERTEX
  5
C1
  8
COURO
 10
-13.84750938415528
 20
-6.277491092681885
 30
-5.264589439399934
 70
   192
  0
VERTEX
  5
C2
  8
COURO
 10
-13.84750938415528
 20
-6.277491092681885
 30
-5.264589439399934
 70
   192
  0
VERTEX
  5
C3
  8
COURO
 10
-13.84750938415528
 20
-6.226683139801025
 30
-5.264589439399934
 70
   192
  0
VERTEX
  5
C4
  8
COURO
 10
-13.84750938415528
 20
-6.226683139801025
 30
-5.264589439399934
 70
   192
  0
VERTEX
  5
C5
  8
COURO
 10
-13.84750938415528
 20
-7.550647258758545
 30
-5.2645932540972
 70
   192
  0
VERTEX
  5
C6
  8
COURO
 10
-13.84750938415528
 20
-7.550647258758545
 30
-5.2645932540972
 70
   192
  0
VERTEX
  5
C7
  8
COURO
 10
-13.84750938415528
 20
-4.953526139259338
 30
-5.2645932540972
 70
   192
  0
VERTEX
  5
C8
  8
COURO
 10
-13.84750938415528
 20
-4.953526139259338
 30
-5.2645932540972
 70
   192
  0
VERTEX
  5
C9
  8
COURO
 10
-13.84750938415528
 20
-6.23704719543457
 30
-14.90215123749565
 70
   192
  0
VERTEX
  5
CA
  8
COURO
 10
-13.84750938415528
 20
-6.23704719543457
 30
-14.90215123749565
 70
   192
  0
VERTEX
  5
CB
  8
COURO
 10
-13.84750938415528
 20
-6.186239123344421
 30
-14.90215123749565
 70
   192
  0
VERTEX
  5
CC
  8
COURO
 10
-13.84750938415528
 20
-6.186239123344421
 30
-14.90215123749565
 70
   192
  0
VERTEX
  5
CD
  8
COURO
 10
-13.84750938415528
 20
-4.913083136081696
 30
-14.90215123749565
 70
   192
  0
VERTEX
  5
CE
  8
COURO
 10
-13.84750938415528
 20
-4.913083136081696
 30
-14.90215123749565
 70
   192
  0
VERTEX
  5
CF
  8
COURO
 10
-13.84750938415528
 20
-7.510203123092651
 30
-14.90215314484427
 70
   192
  0
VERTEX
  5
D0
  8
COURO
 10
-13.84750938415528
 20
-7.510203123092651
 30
-14.90215314484427
 70
   192
  0
VERTEX
  5
D1
  8
COURO
 10
-13.84750938415528
 20
-6.450085163116448
 30
-24.53970922089408
 70
   192
  0
VERTEX
  5
D2
  8
COURO
 10
-13.84750938415528
 20
-6.450085163116448
 30
-24.53970922089408
 70
   192
  0
VERTEX
  5
D3
  8
COURO
 10
-13.84750938415528
 20
-6.500893115997307
 30
-24.5397101745684
 70
   192
  0
VERTEX
  5
D4
  8
COURO
 10
-13.84750938415528
 20
-6.500893115997307
 30
-24.5397101745684
 70
   192
  0
VERTEX
  5
D5
  8
COURO
 10
-13.84750938415528
 20
-7.774049043655388
 30
-24.53971303559134
 70
   192
  0
VERTEX
  5
D6
  8
COURO
 10
-13.84750938415528
 20
-7.774049043655388
 30
-24.53971303559134
 70
   192
  0
VERTEX
  5
D7
  8
COURO
 10
-13.84750938415528
 20
-5.176929175853722
 30
-24.53971303559134
 70
   192
  0
VERTEX
  5
D8
  8
COURO
 10
-13.84750938415528
 20
-5.176929175853722
 30
-24.53971303559134
 70
   192
  0
VERTEX
  5
D9
  8
COURO
 10
-13.84750938415528
 20
-6.500893115997307
 30
-32.48304809189628
 70
   192
  0
VERTEX
  5
DA
  8
COURO
 10
-13.84750938415528
 20
-6.500893115997307
 30
-32.48304809189628
 70
   192
  0
VERTEX
  5
DB
  8
COURO
 10
-13.84750938415528
 20
-6.450085163116448
 30
-32.48304809189628
 70
   192
  0
VERTEX
  5
DC
  8
COURO
 10
-13.84750938415528
 20
-6.450085163116448
 30
-32.48304809189628
 70
   192
  0
VERTEX
  5
DD
  8
COURO
 10
-13.84750938415528
 20
-5.176929175853722
 30
-32.48304999924491
 70
   192
  0
VERTEX
  5
DE
  8
COURO
 10
-13.84750938415528
 20
-5.176929175853722
 30
-32.48304999924491
 70
   192
  0
VERTEX
  5
DF
  8
COURO
 10
-13.84750938415528
 20
-7.774049043655388
 30
-32.48305190659354
 70
   192
  0
VERTEX
  5
E0
  8
COURO
 10
-13.84750938415528
 20
-7.774049043655388
 30
-32.48305190659354
 70
   192
  0
VERTEX
  5
E1
  8
COURO
 10
-13.84750938415528
 20
-4.809438169002526
 30
-37.61374689198325
 70
   192
  0
VERTEX
  5
E2
  8
COURO
 10
-13.84750938415528
 20
-4.809438169002526
 30
-37.61374689198325
 70
   192
  0
VERTEX
  5
E3
  8
COURO
 10
-13.84750938415528
 20
-6.077750086784356
 30
-37.72470689869712
 70
   192
  0
VERTEX
  5
E4
  8
COURO
 10
-13.84750938415528
 20
-6.077750086784356
 30
-37.72470689869712
 70
   192
  0
VERTEX
  5
E5
  8
COURO
 10
-13.84750938415528
 20
-6.128364205360405
 30
-37.72913391447852
 70
   192
  0
VERTEX
  5
E6
  8
COURO
 10
-13.84750938415528
 20
-6.128364205360405
 30
-37.72913391447852
 70
   192
  0
VERTEX
  5
E7
  8
COURO
 10
-13.84750938415528
 20
-7.396675109863274
 30
-37.84010089493583
 70
   192
  0
VERTEX
  5
E8
  8
COURO
 10
-13.84750938415528
 20
-7.396675109863274
 30
-37.84010089493583
 70
   192
  0
VERTEX
  5
E9
  8
COURO
 10
-13.84750938415528
 20
-2.222469091415398
 30
-39.34792692519019
 70
   192
  0
VERTEX
  5
EA
  8
COURO
 10
-13.84750938415528
 20
-2.222469091415398
 30
-39.34792692519019
 70
   192
  0
VERTEX
  5
EB
  8
COURO
 10
-13.84750938415528
 20
-3.096737146377556
 30
-39.4244119033892
 70
   192
  0
VERTEX
  5
EC
  8
COURO
 10
-13.84750938415528
 20
-3.096737146377556
 30
-39.4244119033892
 70
   192
  0
VERTEX
  5
ED
  8
COURO
 10
-13.84750938415528
 20
-8.768938064575188
 30
-39.92066396332572
 70
   192
  0
VERTEX
  5
EE
  8
COURO
 10
-13.84750938415528
 20
-8.768938064575188
 30
-39.92066396332572
 70
   192
  0
VERTEX
  5
EF
  8
COURO
 10
-13.84750938415528
 20
-9.64320516586303
 30
-39.99715591526817
 70
   192
  0
VERTEX
  5
F0
  8
COURO
 10
-13.84750938415528
 20
-9.64320516586303
 30
-39.99715591526817
 70
   192
  0
VERTEX
  5
F1
  8
COURO
 10
-13.84750938415528
 20
-1.852832078933709
 30
-41.27609695053886
 70
   192
  0
VERTEX
  5
F2
  8
COURO
 10
-13.84750938415528
 20
-1.852832078933709
 30
-41.27609695053886
 70
   192
  0
VERTEX
  5
F3
  8
COURO
 10
-13.84750938415528
 20
-2.885420203208916
 30
-41.36643398857902
 70
   192
  0
VERTEX
  5
F4
  8
COURO
 10
-13.84750938415528
 20
-2.885420203208916
 30
-41.36643398857902
 70
   192
  0
VERTEX
  5
F5
  8
COURO
 10
-13.84750938415528
 20
-8.639815330505364
 30
-41.86987889862846
 70
   192
  0
VERTEX
  5
F6
  8
COURO
 10
-13.84750938415528
 20
-8.639815330505364
 30
-41.86987889862846
 70
   192
  0
VERTEX
  5
F7
  8
COURO
 10
-13.84750938415528
 20
-9.672403335571282
 30
-41.96022094345878
 70
   192
  0
VERTEX
  5
F8
  8
COURO
 10
-13.84750938415528
 20
-9.672403335571282
 30
-41.96022094345878
 70
   192
  0
VERTEX
  5
F9
  8
COURO
 10
-13.84750938415528
 20
-2.756298184394829
 30
-43.31564868546317
 70
   192
  0
VERTEX
  5
FA
  8
COURO
 10
-13.84750938415528
 20
-2.756298184394829
 30
-43.31564868546317
 70
   192
  0
VERTEX
  5
FB
  8
COURO
 10
-13.84750938415528
 20
-1.839682102203362
 30
-43.72320378876518
 70
   192
  0
VERTEX
  5
FC
  8
COURO
 10
-13.84750938415528
 20
-1.839682102203362
 30
-43.72320378876518
 70
   192
  0
VERTEX
  5
FD
  8
COURO
 10
-13.84750938415528
 20
-8.42849922180175
 30
-43.8119007453997
 70
   192
  0
VERTEX
  5
FE
  8
COURO
 10
-13.84750938415528
 20
-8.42849922180175
 30
-43.8119007453997
 70
   192
  0
VERTEX
  5
FF
  8
COURO
 10
-13.84750938415528
 20
-9.260417938232415
 30
-44.37243283844779
 70
   192
  0
VERTEX
  5
100
  8
COURO
 10
-13.84750938415528
 20
-9.260417938232415
 30
-44.37243283844779
 70
   192
  0
VERTEX
  5
101
  8
COURO
 10
-13.84750938415528
 20
-3.358709156513207
 30
-44.87046493149589
 70
   192
  0
VERTEX
  5
102
  8
COURO
 10
-13.84750938415528
 20
-3.358709156513207
 30
-44.87046493149589
 70
   192
  0
VERTEX
  5
103
  8
COURO
 10
-13.84750938415528
 20
-5.447637200355523
 30
-45.21840871430229
 70
   192
  0
VERTEX
  5
104
  8
COURO
 10
-13.84750938415528
 20
-5.447637200355523
 30
-45.21840871430229
 70
   192
  0
VERTEX
  5
105
  8
COURO
 10
-13.84750938415528
 20
-7.565249204635613
 30
-45.23848880387138
 70
   192
  0
VERTEX
  5
106
  8
COURO
 10
-13.84750938415528
 20
-7.565249204635613
 30
-45.23848880387138
 70
   192
  0
VERTEX
  5
107
  8
COURO
 10
-13.84750938415528
 20
-2.901615142822259
 30
-45.67481769181083
 70
   192
  0
VERTEX
  5
108
  8
COURO
 10
-13.84750938415528
 20
-2.901615142822259
 30
-45.67481769181083
 70
   192
  0
VERTEX
  5
109
  8
COURO
 10
-13.84750938415528
 20
-7.875723123550408
 30
-46.10999692536186
 70
   192
  0
VERTEX
  5
10A
  8
COURO
 10
-13.84750938415528
 20
-7.875723123550408
 30
-46.10999692536186
 70
   192
  0
VERTEX
  5
10B
  8
COURO
 10
-13.84750938415528
 20
-5.346819162368767
 30
-46.37076200104545
 70
   192
  0
VERTEX
  5
10C
  8
COURO
 10
-13.84750938415528
 20
-5.346819162368767
 30
-46.37076200104545
 70
   192
  0
VERTEX
  5
10D
  8
COURO
 10
0.0
 20
0.0
 30
0.0
 70
   128
 71
   141
 72
    24
 73
    30
 74
   151
  0
VERTEX
  5
10E
  8
COURO
 10
0.0
 20
0.0
 30
0.0
 70
   128
 71
    18
 72
   147
 73
   153
 74
    28
  0
VERTEX
  5
10F
  8
COURO
 10
0.0
 20
0.0
 30
0.0
 70
   128
 71
    23
 72
    17
 73
    27
 74
    29
  0
VERTEX
  5
110
  8
COURO
 10
0.0
 20
0.0
 30
0.0
 70
   128
 71
    99
 72
   107
 73
   105
 74
    97
  0
VERTEX
  5
111
  8
COURO
 10
0.0
 20
0.0
 30
0.0
 70
   128
 71
   148
 72
   142
 73
   152
 74
   154
  0
VERTEX
  5
112
  8
COURO
 10
0.0
 20
0.0
 30
0.0
 70
   128
 71
    62
 72
   185
 73
   177
 74
    54
  0
VERTEX
  5
113
  8
COURO
 10
0.0
 20
0.0
 30
0.0
 70
   128
 71
   187
 72
    64
 73
    56
 74
   179
  0
VERTEX
  5
114
  8
COURO
 10
0.0
 20
0.0
 30
0.0
 70
   128
 71
    63
 72
    61
 73
    53
 74
    55
  0
VERTEX
  5
115
  8
COURO
 10
0.0
 20
0.0
 30
0.0
 70
   128
 71
   186
 72
   188
 73
   180
 74
   178
  0
VERTEX
  5
116
  8
COURO
 10
0.0
 20
0.0
 30
0.0
 70
   128
 71
    78
 72
   201
 73
   193
 74
    70
  0
VERTEX
  5
117
  8
COURO
 10
0.0
 20
0.0
 30
0.0
 70
   128
 71
    70
 72
   193
 73
   185
 74
    62
  0
VERTEX
  5
118
  8
COURO
 10
0.0
 20
0.0
 30
0.0
 70
   128
 71
   169
 72
    46
 73
    54
 74
   177
  0
VERTEX
  5
119
  8
COURO
 10
0.0
 20
0.0
 30
0.0
 70
   128
 71
   205
 72
    82
 73
    72
 74
   195
  0
VERTEX
  5
11A
  8
COURO
 10
0.0
 20
0.0
 30
0.0
 70
   128
 71
   195
 72
    72
 73
    64
 74
   187
  0
VERTEX
  5
11B
  8
COURO
 10
0.0
 20
0.0
 30
0.0
 70
   128
 71
    48
 72
   171
 73
   179
 74
    56
  0
VERTEX
  5
11C
  8
COURO
 10
0.0
 20
0.0
 30
0.0
 70
   128
 71
    81
 72
    77
 73
    69
 74
    71
  0
VERTEX
  5
11D
  8
COURO
 10
0.0
 20
0.0
 30
0.0
 70
   128
 71
    71
 72
    69
 73
    61
 74
    63
  0
VERTEX
  5
11E
  8
COURO
 10
0.0
 20
0.0
 30
0.0
 70
   128
 71
    45
 72
    47
 73
    55
 74
    53
  0
VERTEX
  5
11F
  8
COURO
 10
0.0
 20
0.0
 30
0.0
 70
   128
 71
   194
 72
   202
 73
   206
 74
   196
  0
VERTEX
  5
120
  8
COURO
 10
0.0
 20
0.0
 30
0.0
 70
   128
 71
   194
 72
   196
 73
   188
 74
   186
  0
VERTEX
  5
121
  8
COURO
 10
0.0
 20
0.0
 30
0.0
 70
   128
 71
   172
 72
   170
 73
   178
 74
   180
  0
VERTEX
  5
122
  8
COURO
 10
0.0
 20
0.0
 30
0.0
 70
   128
 71
    76
 72
   199
 73
   201
 74
    78
  0
VERTEX
  5
123
  8
COURO
 10
0.0
 20
0.0
 30
0.0
 70
   128
 71
   207
 72
    84
 73
    82
 74
   205
  0
VERTEX
  5
124
  8
COURO
 10
0.0
 20
0.0
 30
0.0
 70
   128
 71
    83
 72
    75
 73
    77
 74
    81
  0
VERTEX
  5
125
  8
COURO
 10
0.0
 20
0.0
 30
0.0
 70
   128
 71
   202
 72
   200
 73
   208
 74
   206
  0
VERTEX
  5
126
  8
COURO
 10
0.0
 20
0.0
 30
0.0
 70
   128
 71
    20
 72
   143
 73
   149
 74
    32
  0
VERTEX
  5
127
  8
COURO
 10
0.0
 20
0.0
 30
0.0
 70
   128
 71
   145
 72
    22
 73
    26
 74
   155
  0
VERTEX
  5
128
  8
COURO
 10
0.0
 20
0.0
 30
0.0
 70
   128
 71
    21
 72
    19
 73
    31
 74
    25
  0
VERTEX
  5
129
  8
COURO
 10
0.0
 20
0.0
 30
0.0
 70
   128
 71
   101
 72
   103
 73
   111
 74
   109
  0
VERTEX
  5
12A
  8
COURO
 10
0.0
 20
0.0
 30
0.0
 70
   128
 71
   156
 72
   150
 73
   144
 74
   146
  0
VERTEX
  5
12B
  8
COURO
 10
0.0
 20
0.0
 30
0.0
 70
   128
 71
    60
 72
    52
 73
   175
 74
   183
  0
VERTEX
  5
12C
  8
COURO
 10
0.0
 20
0.0
 30
0.0
 70
   128
 71
   181
 72
   173
 73
    50
 74
    58
  0
VERTEX
  5
12D
  8
COURO
 10
0.0
 20
0.0
 30
0.0
 70
   128
 71
    57
 72
    49
 73
    51
 74
    59
  0
VERTEX
  5
12E
  8
COURO
 10
0.0
 20
0.0
 30
0.0
 70
   128
 71
   184
 72
   176
 73
   174
 74
   182
  0
VERTEX
  5
12F
  8
COURO
 10
0.0
 20
0.0
 30
0.0
 70
   128
 71
    74
 72
    66
 73
   189
 74
   197
  0
VERTEX
  5
130
  8
COURO
 10
0.0
 20
0.0
 30
0.0
 70
   128
 71
    66
 72
    60
 73
   183
 74
   189
  0
VERTEX
  5
131
  8
COURO
 10
0.0
 20
0.0
 30
0.0
 70
   128
 71
   167
 72
   175
 73
    52
 74
    44
  0
VERTEX
  5
132
  8
COURO
 10
0.0
 20
0.0
 30
0.0
 70
   128
 71
   203
 72
   191
 73
    68
 74
    80
  0
VERTEX
  5
133
  8
COURO
 10
0.0
 20
0.0
 30
0.0
 70
   128
 71
   191
 72
   181
 73
    58
 74
    68
  0
VERTEX
  5
134
  8
COURO
 10
0.0
 20
0.0
 30
0.0
 70
   128
 71
    42
 72
    50
 73
   173
 74
   165
  0
VERTEX
  5
135
  8
COURO
 10
0.0
 20
0.0
 30
0.0
 70
   128
 71
    79
 72
    67
 73
    65
 74
    73
  0
VERTEX
  5
136
  8
COURO
 10
0.0
 20
0.0
 30
0.0
 70
   128
 71
    67
 72
    57
 73
    59
 74
    65
  0
VERTEX
  5
137
  8
COURO
 10
0.0
 20
0.0
 30
0.0
 70
   128
 71
    43
 72
    51
 73
    49
 74
    41
  0
VERTEX
  5
138
  8
COURO
 10
0.0
 20
0.0
 30
0.0
 70
   128
 71
   190
 72
   192
 73
   204
 74
   198
  0
VERTEX
  5
139
  8
COURO
 10
0.0
 20
0.0
 30
0.0
 70
   128
 71
   190
 72
   184
 73
   182
 74
   192
  0
VERTEX
  5
13A
  8
COURO
 10
0.0
 20
0.0
 30
0.0
 70
   128
 71
   166
 72
   174
 73
   176
 74
   168
  0
VERTEX
  5
13B
  8
COURO
 10
0.0
 20
0.0
 30
0.0
 70
   128
 71
    76
 72
    74
 73
   197
 74
   199
  0
VERTEX
  5
13C
  8
COURO
 10
0.0
 20
0.0
 30
0.0
 70
   128
 71
   207
 72
   203
 73
    80
 74
    84
  0
VERTEX
  5
13D
  8
COURO
 10
0.0
 20
0.0
 30
0.0
 70
   128
 71
    83
 72
    79
 73
    73
 74
    75
  0
VERTEX
  5
13E
  8
COURO
 10
0.0
 20
0.0
 30
0.0
 70
   128
 71
   198
 72
   204
 73
   208
 74
   200
  0
VERTEX
  5
13F
  8
COURO
 10
0.0
 20
0.0
 30
0.0
 70
   128
 71
   133
 72
   127
 73
   116
 74
   108
  0
VERTEX
  5
140
  8
COURO
 10
0.0
 20
0.0
 30
0.0
 70
   128
 71
   108
 72
   100
 73
    90
 74
     4
  0
VERTEX
  5
141
  8
COURO
 10
0.0
 20
0.0
 30
0.0
 70
   128
 71
   108
 72
     4
 73
    14
 74
   133
  0
VERTEX
  5
142
  8
COURO
 10
0.0
 20
0.0
 30
0.0
 70
   128
 71
   133
 72
    14
 73
    24
 74
   141
  0
VERTEX
  5
143
  8
COURO
 10
0.0
 20
0.0
 30
0.0
 70
   128
 71
    46
 72
   169
 73
   157
 74
    40
  0
VERTEX
  5
144
  8
COURO
 10
0.0
 20
0.0
 30
0.0
 70
   128
 71
    40
 72
   157
 73
   151
 74
    30
  0
VERTEX
  5
145
  8
COURO
 10
0.0
 20
0.0
 30
0.0
 70
   128
 71
     2
 72
   125
 73
   137
 74
    10
  0
VERTEX
  5
146
  8
COURO
 10
0.0
 20
0.0
 30
0.0
 70
   128
 71
    10
 72
   137
 73
   147
 74
    18
  0
VERTEX
  5
147
  8
COURO
 10
0.0
 20
0.0
 30
0.0
 70
   128
 71
   171
 72
    48
 73
    34
 74
   163
  0
VERTEX
  5
148
  8
COURO
 10
0.0
 20
0.0
 30
0.0
 70
   128
 71
   163
 72
    34
 73
    28
 74
   153
  0
VERTEX
  5
149
  8
COURO
 10
0.0
 20
0.0
 30
0.0
 70
   128
 71
     3
 72
     1
 73
     9
 74
    13
  0
VERTEX
  5
14A
  8
COURO
 10
0.0
 20
0.0
 30
0.0
 70
   128
 71
    13
 72
     9
 73
    17
 74
    23
  0
VERTEX
  5
14B
  8
COURO
 10
0.0
 20
0.0
 30
0.0
 70
   128
 71
    47
 72
    45
 73
    39
 74
    33
  0
VERTEX
  5
14C
  8
COURO
 10
0.0
 20
0.0
 30
0.0
 70
   128
 71
    33
 72
    39
 73
    29
 74
    27
  0
VERTEX
  5
14D
  8
COURO
 10
0.0
 20
0.0
 30
0.0
 70
   128
 71
   126
 72
   128
 73
   134
 74
   138
  0
VERTEX
  5
14E
  8
COURO
 10
0.0
 20
0.0
 30
0.0
 70
   128
 71
   138
 72
   134
 73
   142
 74
   148
  0
VERTEX
  5
14F
  8
COURO
 10
0.0
 20
0.0
 30
0.0
 70
   128
 71
   170
 72
   172
 73
   164
 74
   158
  0
VERTEX
  5
150
  8
COURO
 10
0.0
 20
0.0
 30
0.0
 70
   128
 71
   158
 72
   164
 73
   154
 74
   152
  0
VERTEX
  5
151
  8
COURO
 10
0.0
 20
0.0
 30
0.0
 70
   128
 71
    16
 72
     6
 73
    93
 74
   102
  0
VERTEX
  5
152
  8
COURO
 10
0.0
 20
0.0
 30
0.0
 70
   128
 71
   102
 72
   110
 73
   119
 74
   129
  0
VERTEX
  5
153
  8
COURO
 10
0.0
 20
0.0
 30
0.0
 70
   128
 71
   102
 72
   129
 73
   135
 74
    16
  0
VERTEX
  5
154
  8
COURO
 10
0.0
 20
0.0
 30
0.0
 70
   128
 71
    16
 72
   135
 73
   143
 74
    20
  0
VERTEX
  5
155
  8
COURO
 10
0.0
 20
0.0
 30
0.0
 70
   128
 71
   167
 72
    44
 73
    38
 74
   159
  0
VERTEX
  5
156
  8
COURO
 10
0.0
 20
0.0
 30
0.0
 70
   128
 71
   159
 72
    38
 73
    32
 74
   149
  0
VERTEX
  5
157
  8
COURO
 10
0.0
 20
0.0
 30
0.0
 70
   128
 71
   131
 72
     8
 73
    12
 74
   139
  0
VERTEX
  5
158
  8
COURO
 10
0.0
 20
0.0
 30
0.0
 70
   128
 71
   139
 72
    12
 73
    22
 74
   145
  0
VERTEX
  5
159
  8
COURO
 10
0.0
 20
0.0
 30
0.0
 70
   128
 71
    42
 72
   165
 73
   161
 74
    36
  0
VERTEX
  5
15A
  8
COURO
 10
0.0
 20
0.0
 30
0.0
 70
   128
 71
    36
 72
   161
 73
   155
 74
    26
  0
VERTEX
  5
15B
  8
COURO
 10
0.0
 20
0.0
 30
0.0
 70
   128
 71
     7
 72
     5
 73
    15
 74
    11
  0
VERTEX
  5
15C
  8
COURO
 10
0.0
 20
0.0
 30
0.0
 70
   128
 71
    11
 72
    15
 73
    19
 74
    21
  0
VERTEX
  5
15D
  8
COURO
 10
0.0
 20
0.0
 30
0.0
 70
   128
 71
    43
 72
    41
 73
    35
 74
    37
  0
VERTEX
  5
15E
  8
COURO
 10
0.0
 20
0.0
 30
0.0
 70
   128
 71
    37
 72
    35
 73
    25
 74
    31
  0
VERTEX
  5
15F
  8
COURO
 10
0.0
 20
0.0
 30
0.0
 70
   128
 71
   166
 72
   168
 73
   160
 74
   162
  0
VERTEX
  5
160
  8
COURO
 10
0.0
 20
0.0
 30
0.0
 70
   128
 71
   162
 72
   160
 73
   150
 74
   156
  0
VERTEX
  5
161
  8
COURO
 10
0.0
 20
0.0
 30
0.0
 70
   128
 71
   130
 72
   132
 73
   140
 74
   136
  0
VERTEX
  5
162
  8
COURO
 10
0.0
 20
0.0
 30
0.0
 70
   128
 71
   136
 72
   140
 73
   146
 74
   144
  0
VERTEX
  5
163
  8
COURO
 10
0.0
 20
0.0
 30
0.0
 70
   128
 71
    85
 72
     1
 73
     3
 74
    88
  0
VERTEX
  5
164
  8
COURO
 10
0.0
 20
0.0
 30
0.0
 70
   128
 71
   114
 72
   105
 73
   107
 74
   117
  0
VERTEX
  5
165
  8
COURO
 10
0.0
 20
0.0
 30
0.0
 70
   128
 71
   120
 72
   109
 73
   111
 74
   123
  0
VERTEX
  5
166
  8
COURO
 10
0.0
 20
0.0
 30
0.0
 70
   128
 71
    91
 72
     5
 73
     7
 74
    94
  0
VERTEX
  5
167
  8
COURO
 10
0.0
 20
0.0
 30
0.0
 70
   128
 71
    97
 72
    86
 73
    89
 74
    99
  0
VERTEX
  5
168
  8
COURO
 10
0.0
 20
0.0
 30
0.0
 70
   128
 71
   126
 72
   115
 73
   118
 74
   128
  0
VERTEX
  5
169
  8
COURO
 10
0.0
 20
0.0
 30
0.0
 70
   128
 71
   130
 72
   121
 73
   124
 74
   132
  0
VERTEX
  5
16A
  8
COURO
 10
0.0
 20
0.0
 30
0.0
 70
   128
 71
   101
 72
    92
 73
    95
 74
   103
  0
VERTEX
  5
16B
  8
COURO
 10
0.0
 20
0.0
 30
0.0
 70
   128
 71
    87
 72
   113
 73
   125
 74
     2
  0
VERTEX
  5
16C
  8
COURO
 10
0.0
 20
0.0
 30
0.0
 70
   128
 71
    98
 72
   106
 73
   113
 74
    87
  0
VERTEX
  5
16D
  8
COURO
 10
0.0
 20
0.0
 30
0.0
 70
   128
 71
   122
 72
    96
 73
     8
 74
   131
  0
VERTEX
  5
16E
  8
COURO
 10
0.0
 20
0.0
 30
0.0
 70
   128
 71
   112
 72
   104
 73
    96
 74
   122
  0
SEQEND
  5
364
  8
COURO
  0
POLYLINE
  5
171
  8
METAL
 66
     1
 10
0.0
 20
0.0
 30
0.0
 70
    64
 71
    72
 72
    22
  0
VERTEX
  5
172
  8
METAL
 10
15.32320022583007
 20
-2.533592104911797
 30
-37.49065590954612
 70
   192
  0
VERTEX
  5
173
  8
METAL
 10
15.32320022583007
 20
-10.32983016967773
 30
-38.17273892021964
 70
   192
  0
VERTEX
  5
174
  8
METAL
 10
15.32320022583007
 20
-9.581435203552239
 30
-46.7269488678057
 70
   192
  0
VERTEX
  5
175
  8
METAL
 10
15.32320022583007
 20
-1.785198211669915
 30
-46.04486573792289
 70
   192
  0
VERTEX
  5
176
  8
METAL
 10
-15.5
 20
-2.533592104911797
 30
-37.49064887619804
 70
   192
  0
VERTEX
  5
177
  8
METAL
 10
-15.49999809265137
 20
-1.785198211669915
 30
-46.04485906220268
 70
   192
  0
VERTEX
  5
178
  8
METAL
 10
-15.49999237060547
 20
-9.581435203552239
 30
-46.72694123841117
 70
   192
  0
VERTEX
  5
179
  8
METAL
 10
-15.49999809265137
 20
-10.32983016967773
 30
-38.17273191667388
 70
   192
  0
VERTEX
  5
17A
  8
METAL
 10
-14.09920692443848
 20
-3.440692126750939
 30
-44.65573371506522
 70
   192
  0
VERTEX
  5
17B
  8
METAL
 10
-14.09921073913575
 20
-3.922718137502663
 30
-39.14614589072059
 70
   192
  0
VERTEX
  5
17C
  8
METAL
 10
13.92241287231445
 20
-3.922719150781624
 30
-39.14615089751075
 70
   192
  0
VERTEX
  5
17D
  8
METAL
 10
13.92240905761718
 20
-3.4406931400299
 30
-44.6557408676226
 70
   192
  0
VERTEX
  5
17E
  8
METAL
 10
-14.09920692443848
 20
-8.192308187484734
 30
-45.07144702530692
 70
   192
  0
VERTEX
  5
17F
  8
METAL
 10
-14.09920692443848
 20
-3.440692126750939
 30
-44.65573371506522
 70
   192
  0
VERTEX
  5
180
  8
METAL
 10
13.92240905761718
 20
-3.4406931400299
 30
-44.6557408676226
 70
   192
  0
VERTEX
  5
181
  8
METAL
 10
13.92240905761718
 20
-8.192310094833367
 30
-45.07145179367851
 70
   192
  0
VERTEX
  5
182
  8
METAL
 10
-14.09921073913575
 20
-8.674334049224846
 30
-39.56185890293906
 70
   192
  0
VERTEX
  5
183
  8
METAL
 10
-14.09920692443848
 20
-8.192308187484734
 30
-45.07144702530692
 70
   192
  0
VERTEX
  5
184
  8
METAL
 10
13.92240905761718
 20
-8.192310094833367
 30
-45.07145179367851
 70
   192
  0
VERTEX
  5
185
  8
METAL
 10
13.92241287231445
 20
-8.674335002899163
 30
-39.56186390972923
 70
   192
  0
VERTEX
  5
186
  8
METAL
 10
-14.09921073913575
 20
-3.922718137502663
 30
-39.14614589072059
 70
   192
  0
VERTEX
  5
187
  8
METAL
 10
-14.09921073913575
 20
-8.674334049224846
 30
-39.56185890293906
 70
   192
  0
VERTEX
  5
188
  8
METAL
 10
13.92241287231445
 20
-8.674335002899163
 30
-39.56186390972923
 70
   192
  0
VERTEX
  5
189
  8
METAL
 10
13.92241287231445
 20
-3.922719150781624
 30
-39.14615089751075
 70
   192
  0
VERTEX
  5
18A
  8
METAL
 10
-15.49999809265137
 20
-1.785198211669915
 30
-46.04485906220268
 70
   192
  0
VERTEX
  5
18B
  8
METAL
 10
-15.5
 20
-2.533592104911797
 30
-37.49064887619804
 70
   192
  0
VERTEX
  5
18C
  8
METAL
 10
-14.09921264648438
 20
-2.533592104911797
 30
-37.49064994908164
 70
   192
  0
VERTEX
  5
18D
  8
METAL
 10
-14.09920692443848
 20
-1.785197257995598
 30
-46.04486001587699
 70
   192
  0
VERTEX
  5
18E
  8
METAL
 10
15.32320022583007
 20
-2.533592104911797
 30
-37.49065590954612
 70
   192
  0
VERTEX
  5
18F
  8
METAL
 10
15.32320022583007
 20
-1.785198211669915
 30
-46.04486573792289
 70
   192
  0
VERTEX
  5
190
  8
METAL
 10
13.92240905761718
 20
-1.785199165344231
 30
-46.04486573792289
 70
   192
  0
VERTEX
  5
191
  8
METAL
 10
13.92241287231445
 20
-2.533593177795403
 30
-37.49065590954612
 70
   192
  0
VERTEX
  5
192
  8
METAL
 10
-15.49999237060547
 20
-9.581435203552239
 30
-46.72694123841117
 70
   192
  0
VERTEX
  5
193
  8
METAL
 10
-15.49999809265137
 20
-1.785198211669915
 30
-46.04485906220268
 70
   192
  0
VERTEX
  5
194
  8
METAL
 10
-14.09920692443848
 20
-1.785197257995598
 30
-46.04486001587699
 70
   192
  0
VERTEX
  5
195
  8
METAL
 10
-14.09920692443848
 20
-9.581434249877923
 30
-46.72694219208549
 70
   192
  0
VERTEX
  5
196
  8
METAL
 10
15.32320022583007
 20
-1.785198211669915
 30
-46.04486573792289
 70
   192
  0
VERTEX
  5
197
  8
METAL
 10
15.32320022583007
 20
-9.581435203552239
 30
-46.7269488678057
 70
   192
  0
VERTEX
  5
198
  8
METAL
 10
13.92241287231445
 20
-9.581436157226555
 30
-46.72694791413139
 70
   192
  0
VERTEX
  5
199
  8
METAL
 10
13.92240905761718
 20
-1.785199165344231
 30
-46.04486573792289
 70
   192
  0
VERTEX
  5
19A
  8
METAL
 10
-15.49999809265137
 20
-10.32983016967773
 30
-38.17273191667388
 70
   192
  0
VERTEX
  5
19B
  8
METAL
 10
-15.49999237060547
 20
-9.581435203552239
 30
-46.72694123841117
 70
   192
  0
VERTEX
  5
19C
  8
METAL
 10
-14.09920692443848
 20
-9.581434249877923
 30
-46.72694219208549
 70
   192
  0
VERTEX
  5
19D
  8
METAL
 10
-14.09921073913575
 20
-10.32982921600341
 30
-38.17273290015052
 70
   192
  0
VERTEX
  5
19E
  8
METAL
 10
15.32320022583007
 20
-9.581435203552239
 30
-46.7269488678057
 70
   192
  0
VERTEX
  5
19F
  8
METAL
 10
15.32320022583007
 20
-10.32983016967773
 30
-38.17273892021964
 70
   192
  0
VERTEX
  5
1A0
  8
METAL
 10
13.92241287231445
 20
-10.32983112335204
 30
-38.17273892021964
 70
   192
  0
VERTEX
  5
1A1
  8
METAL
 10
13.92241287231445
 20
-9.581436157226555
 30
-46.72694791413139
 70
   192
  0
VERTEX
  5
1A2
  8
METAL
 10
-15.5
 20
-2.533592104911797
 30
-37.49064887619804
 70
   192
  0
VERTEX
  5
1A3
  8
METAL
 10
-15.49999809265137
 20
-10.32983016967773
 30
-38.17273191667388
 70
   192
  0
VERTEX
  5
1A4
  8
METAL
 10
-14.09921073913575
 20
-10.32982921600341
 30
-38.17273290015052
 70
   192
  0
VERTEX
  5
1A5
  8
METAL
 10
-14.09921264648438
 20
-2.533592104911797
 30
-37.49064994908164
 70
   192
  0
VERTEX
  5
1A6
  8
METAL
 10
15.32320022583007
 20
-10.32983016967773
 30
-38.17273892021964
 70
   192
  0
VERTEX
  5
1A7
  8
METAL
 10
15.32320022583007
 20
-2.533592104911797
 30
-37.49065590954612
 70
   192
  0
VERTEX
  5
1A8
  8
METAL
 10
13.92241287231445
 20
-2.533593177795403
 30
-37.49065590954612
 70
   192
  0
VERTEX
  5
1A9
  8
METAL
 10
13.92241287231445
 20
-10.32983112335204
 30
-38.17273892021964
 70
   192
  0
VERTEX
  5
1AA
  8
METAL
 10
-14.09921264648438
 20
-2.533592104911797
 30
-37.49064994908164
 70
   192
  0
VERTEX
  5
1AB
  8
METAL
 10
-14.09921073913575
 20
-3.922718137502663
 30
-39.14614589072059
 70
   192
  0
VERTEX
  5
1AC
  8
METAL
 10
-14.09921073913575
 20
-10.32982921600341
 30
-38.17273290015052
 70
   192
  0
VERTEX
  5
1AD
  8
METAL
 10
-14.09921073913575
 20
-8.674334049224846
 30
-39.56185890293906
 70
   192
  0
VERTEX
  5
1AE
  8
METAL
 10
-14.09920692443848
 20
-9.581434249877923
 30
-46.72694219208549
 70
   192
  0
VERTEX
  5
1AF
  8
METAL
 10
-14.09920692443848
 20
-8.192308187484734
 30
-45.07144702530692
 70
   192
  0
VERTEX
  5
1B0
  8
METAL
 10
-14.09920692443848
 20
-1.785197257995598
 30
-46.04486001587699
 70
   192
  0
VERTEX
  5
1B1
  8
METAL
 10
-14.09920692443848
 20
-3.440692126750939
 30
-44.65573371506522
 70
   192
  0
VERTEX
  5
1B2
  8
METAL
 10
13.92241287231445
 20
-2.533593177795403
 30
-37.49065590954612
 70
   192
  0
VERTEX
  5
1B3
  8
METAL
 10
13.92241287231445
 20
-3.922719150781624
 30
-39.14615089751075
 70
   192
  0
VERTEX
  5
1B4
  8
METAL
 10
13.92240905761718
 20
-1.785199165344231
 30
-46.04486573792289
 70
   192
  0
VERTEX
  5
1B5
  8
METAL
 10
13.92240905761718
 20
-3.4406931400299
 30
-44.6557408676226
 70
   192
  0
VERTEX
  5
1B6
  8
METAL
 10
13.92241287231445
 20
-9.581436157226555
 30
-46.72694791413139
 70
   192
  0
VERTEX
  5
1B7
  8
METAL
 10
13.92240905761718
 20
-8.192310094833367
 30
-45.07145179367851
 70
   192
  0
VERTEX
  5
1B8
  8
METAL
 10
13.92241287231445
 20
-10.32983112335204
 30
-38.17273892021964
 70
   192
  0
VERTEX
  5
1B9
  8
METAL
 10
13.92241287231445
 20
-8.674335002899163
 30
-39.56186390972923
 70
   192
  0
VERTEX
  5
1BA
  8
METAL
 10
0.0
 20
0.0
 30
0.0
 70
   128
 71
     1
 72
     2
 73
     3
 74
     4
  0
VERTEX
  5
1BB
  8
METAL
 10
0.0
 20
0.0
 30
0.0
 70
   128
 71
     5
 72
     6
 73
     7
 74
     8
  0
VERTEX
  5
1BC
  8
METAL
 10
0.0
 20
0.0
 30
0.0
 70
   128
 71
     9
 72
    10
 73
    11
 74
    12
  0
VERTEX
  5
1BD
  8
METAL
 10
0.0
 20
0.0
 30
0.0
 70
   128
 71
    13
 72
    14
 73
    15
 74
    16
  0
VERTEX
  5
1BE
  8
METAL
 10
0.0
 20
0.0
 30
0.0
 70
   128
 71
    17
 72
    18
 73
    19
 74
    20
  0
VERTEX
  5
1BF
  8
METAL
 10
0.0
 20
0.0
 30
0.0
 70
   128
 71
    21
 72
    22
 73
    23
 74
    24
  0
VERTEX
  5
1C0
  8
METAL
 10
0.0
 20
0.0
 30
0.0
 70
   128
 71
    25
 72
    26
 73
    27
 74
    28
  0
VERTEX
  5
1C1
  8
METAL
 10
0.0
 20
0.0
 30
0.0
 70
   128
 71
    29
 72
    30
 73
    31
 74
    32
  0
VERTEX
  5
1C2
  8
METAL
 10
0.0
 20
0.0
 30
0.0
 70
   128
 71
    33
 72
    34
 73
    35
 74
    36
  0
VERTEX
  5
1C3
  8
METAL
 10
0.0
 20
0.0
 30
0.0
 70
   128
 71
    37
 72
    38
 73
    39
 74
    40
  0
VERTEX
  5
1C4
  8
METAL
 10
0.0
 20
0.0
 30
0.0
 70
   128
 71
    41
 72
    42
 73
    43
 74
    44
  0
VERTEX
  5
1C5
  8
METAL
 10
0.0
 20
0.0
 30
0.0
 70
   128
 71
    45
 72
    46
 73
    47
 74
    48
  0
VERTEX
  5
1C6
  8
METAL
 10
0.0
 20
0.0
 30
0.0
 70
   128
 71
    49
 72
    50
 73
    51
 74
    52
  0
VERTEX
  5
1C7
  8
METAL
 10
0.0
 20
0.0
 30
0.0
 70
   128
 71
    53
 72
    54
 73
    55
 74
    56
  0
VERTEX
  5
1C8
  8
METAL
 10
0.0
 20
0.0
 30
0.0
 70
   128
 71
    63
 72
    57
 73
    58
 74
    64
  0
VERTEX
  5
1C9
  8
METAL
 10
0.0
 20
0.0
 30
0.0
 70
   128
 71
    57
 72
    59
 73
    60
 74
    58
  0
VERTEX
  5
1CA
  8
METAL
 10
0.0
 20
0.0
 30
0.0
 70
   128
 71
    59
 72
    61
 73
    62
 74
    60
  0
VERTEX
  5
1CB
  8
METAL
 10
0.0
 20
0.0
 30
0.0
 70
   128
 71
    61
 72
    63
 73
    64
 74
    62
  0
VERTEX
  5
1CC
  8
METAL
 10
0.0
 20
0.0
 30
0.0
 70
   128
 71
    65
 72
    67
 73
    68
 74
    66
  0
VERTEX
  5
1CD
  8
METAL
 10
0.0
 20
0.0
 30
0.0
 70
   128
 71
    67
 72
    69
 73
    70
 74
    68
  0
VERTEX
  5
1CE
  8
METAL
 10
0.0
 20
0.0
 30
0.0
 70
   128
 71
    69
 72
    71
 73
    72
 74
    70
  0
VERTEX
  5
1CF
  8
METAL
 10
0.0
 20
0.0
 30
0.0
 70
   128
 71
    71
 72
    65
 73
    66
 74
    72
  0
SEQEND
  5
365
  8
METAL
  0
POLYLINE
  5
1D2
  8
COSTURA
 66
     1
 10
0.0
 20
0.0
 30
0.0
 70
    64
 71
   168
 72
    42
  0
VERTEX
  5
1D3
  8
COSTURA
 10
11.83474731445312
 20
-7.604317188262932
 30
-35.88487280464958
 70
   192
  0
VERTEX
  5
1D4
  8
COSTURA
 10
12.94324493408203
 20
-7.604317188262932
 30
-35.88487280464958
 70
   192
  0
VERTEX
  5
1D5
  8
COSTURA
 10
12.94324493408203
 20
-7.780924081802361
 30
-32.94909680939507
 70
   192
  0
VERTEX
  5
1D6
  8
COSTURA
 10
11.83474731445312
 20
-7.780924081802361
 30
-32.94909680939507
 70
   192
  0
VERTEX
  5
1D7
  8
COSTURA
 10
12.94324493408203
 20
-5.076047122478478
 30
-32.94909680939507
 70
   192
  0
VERTEX
  5
1D8
  8
COSTURA
 10
12.94324493408203
 20
-4.916132152080529
 30
-35.88487280464958
 70
   192
  0
VERTEX
  5
1D9
  8
COSTURA
 10
11.83474731445312
 20
-4.916132152080529
 30
-35.88487280464958
 70
   192
  0
VERTEX
  5
1DA
  8
COSTURA
 10
11.83474731445312
 20
-5.076047122478478
 30
-32.94909680939507
 70
   192
  0
VERTEX
  5
1DB
  8
COSTURA
 10
11.83474731445312
 20
-7.817910194396966
 30
-31.24465573883841
 70
   192
  0
VERTEX
  5
1DC
  8
COSTURA
 10
12.94324493408203
 20
-7.817910194396966
 30
-31.24465573883841
 70
   192
  0
VERTEX
  5
1DD
  8
COSTURA
 10
12.94324493408203
 20
-7.817910194396966
 30
-28.30887998200248
 70
   192
  0
VERTEX
  5
1DE
  8
COSTURA
 10
11.83474731445312
 20
-7.817910194396966
 30
-28.30887998200248
 70
   192
  0
VERTEX
  5
1DF
  8
COSTURA
 10
12.94324493408203
 20
-5.136927127838128
 30
-28.30887998200248
 70
   192
  0
VERTEX
  5
1E0
  8
COSTURA
 10
12.94324493408203
 20
-5.123601138591759
 30
-31.24465573883841
 70
   192
  0
VERTEX
  5
1E1
  8
COSTURA
 10
11.83474731445312
 20
-5.123601138591759
 30
-31.24465573883841
 70
   192
  0
VERTEX
  5
1E2
  8
COSTURA
 10
11.83474731445312
 20
-5.136927127838128
 30
-28.30887998200248
 70
   192
  0
VERTEX
  5
1E3
  8
COSTURA
 10
11.83474731445312
 20
-7.83063626289367
 30
-26.60443891144584
 70
   192
  0
VERTEX
  5
1E4
  8
COSTURA
 10
12.94324493408203
 20
-7.83063626289367
 30
-26.60443891144584
 70
   192
  0
VERTEX
  5
1E5
  8
COSTURA
 10
12.94324493408203
 20
-7.79065823554992
 30
-23.6686631546099
 70
   192
  0
VERTEX
  5
1E6
  8
COSTURA
 10
11.83474731445312
 20
-7.79065823554992
 30
-23.6686631546099
 70
   192
  0
VERTEX
  5
1E7
  8
COSTURA
 10
12.94324493408203
 20
-5.096949160099022
 30
-23.6686631546099
 70
   192
  0
VERTEX
  5
1E8
  8
COSTURA
 10
12.94324493408203
 20
-5.136927127838128
 30
-26.60443891144584
 70
   192
  0
VERTEX
  5
1E9
  8
COSTURA
 10
11.83474731445312
 20
-5.136927127838128
 30
-26.60443891144584
 70
   192
  0
VERTEX
  5
1EA
  8
COSTURA
 10
11.83474731445312
 20
-5.096949160099022
 30
-23.6686631546099
 70
   192
  0
VERTEX
  5
1EB
  8
COSTURA
 10
11.83474731445312
 20
-7.750533103942871
 30
-21.96422208405326
 70
   192
  0
VERTEX
  5
1EC
  8
COSTURA
 10
12.94324493408203
 20
-7.750533103942871
 30
-21.96422208405326
 70
   192
  0
VERTEX
  5
1ED
  8
COSTURA
 10
12.94324493408203
 20
-7.682644128799438
 30
-19.02844632721732
 70
   192
  0
VERTEX
  5
1EE
  8
COSTURA
 10
11.83474731445312
 20
-7.682644128799438
 30
-19.02844632721732
 70
   192
  0
VERTEX
  5
1EF
  8
COSTURA
 10
12.94324493408203
 20
-4.990193128585815
 30
-19.02844632721732
 70
   192
  0
VERTEX
  5
1F0
  8
COSTURA
 10
12.94324493408203
 20
-5.056825160980218
 30
-21.96422208405326
 70
   192
  0
VERTEX
  5
1F1
  8
COSTURA
 10
11.83474731445312
 20
-5.056825160980218
 30
-21.96422208405326
 70
   192
  0
VERTEX
  5
1F2
  8
COSTURA
 10
11.83474731445312
 20
-4.990193128585815
 30
-19.02844632721732
 70
   192
  0
VERTEX
  5
1F3
  8
COSTURA
 10
11.83474731445312
 20
-7.616981029510498
 30
-17.32400525666068
 70
   192
  0
VERTEX
  5
1F4
  8
COSTURA
 10
12.94324493408203
 20
-7.616981029510498
 30
-17.32400525666068
 70
   192
  0
VERTEX
  5
1F5
  8
COSTURA
 10
12.94324493408203
 20
-7.537023067474365
 30
-14.38822949982475
 70
   192
  0
VERTEX
  5
1F6
  8
COSTURA
 10
11.83474731445312
 20
-7.537023067474365
 30
-14.38822949982475
 70
   192
  0
VERTEX
  5
1F7
  8
COSTURA
 10
12.94324493408203
 20
-4.878499150276184
 30
-14.38822949982475
 70
   192
  0
VERTEX
  5
1F8
  8
COSTURA
 10
12.94324493408203
 20
-4.949779152870178
 30
-17.32400525666068
 70
   192
  0
VERTEX
  5
1F9
  8
COSTURA
 10
11.83474731445312
 20
-4.949779152870178
 30
-17.32400525666068
 70
   192
  0
VERTEX
  5
1FA
  8
COSTURA
 10
11.83474731445312
 20
-4.878499150276184
 30
-14.38822949982475
 70
   192
  0
VERTEX
  5
1FB
  8
COSTURA
 10
11.83474731445312
 20
-7.589219093322754
 30
-12.68379033661675
 70
   192
  0
VERTEX
  5
1FC
  8
COSTURA
 10
12.94324493408203
 20
-7.589219093322754
 30
-12.68379033661675
 70
   192
  0
VERTEX
  5
1FD
  8
COSTURA
 10
12.94324493408203
 20
-7.589219093322754
 30
-9.7480145797808
 70
   192
  0
VERTEX
  5
1FE
  8
COSTURA
 10
11.83474731445312
 20
-7.589219093322754
 30
-9.7480145797808
 70
   192
  0
VERTEX
  5
1FF
  8
COSTURA
 10
12.94324493408203
 20
-4.878499150276184
 30
-9.7480145797808
 70
   192
  0
VERTEX
  5
200
  8
COSTURA
 10
12.94324493408203
 20
-4.878499150276184
 30
-12.68379033661675
 70
   192
  0
VERTEX
  5
201
  8
COSTURA
 10
11.83474731445312
 20
-4.878499150276184
 30
-12.68379033661675
 70
   192
  0
VERTEX
  5
202
  8
COSTURA
 10
11.83474731445312
 20
-4.878499150276184
 30
-9.7480145797808
 70
   192
  0
VERTEX
  5
203
  8
COSTURA
 10
11.89066314697265
 20
-7.61587119102478
 30
-8.04357350922416
 70
   192
  0
VERTEX
  5
204
  8
COSTURA
 10
12.99916076660156
 20
-7.61587119102478
 30
-8.04357350922416
 70
   192
  0
VERTEX
  5
205
  8
COSTURA
 10
12.99916076660156
 20
-7.61587119102478
 30
-5.10779775238823
 70
   192
  0
VERTEX
  5
206
  8
COSTURA
 10
11.89066314697265
 20
-7.61587119102478
 30
-5.10779775238823
 70
   192
  0
VERTEX
  5
207
  8
COSTURA
 10
12.99916076660156
 20
-4.878499150276184
 30
-5.10779775238823
 70
   192
  0
VERTEX
  5
208
  8
COSTURA
 10
12.99916076660156
 20
-4.878499150276184
 30
-8.04357350922416
 70
   192
  0
VERTEX
  5
209
  8
COSTURA
 10
11.89066314697265
 20
-4.878499150276184
 30
-8.04357350922416
 70
   192
  0
VERTEX
  5
20A
  8
COSTURA
 10
11.89066314697265
 20
-4.878499150276184
 30
-5.10779775238823
 70
   192
  0
VERTEX
  5
20B
  8
COSTURA
 10
10.12958908081054
 20
-7.682644128799438
 30
8.221872200004356
 70
   192
  0
VERTEX
  5
20C
  8
COSTURA
 10
10.12958908081054
 20
-7.682644128799438
 30
9.330369819633255
 70
   192
  0
VERTEX
  5
20D
  8
COSTURA
 10
7.193813323974609
 20
-7.682644128799438
 30
9.330369819633255
 70
   192
  0
VERTEX
  5
20E
  8
COSTURA
 10
7.193813323974609
 20
-7.682644128799438
 30
8.221872200004356
 70
   192
  0
VERTEX
  5
20F
  8
COSTURA
 10
7.193813323974609
 20
-4.878499150276184
 30
9.330369819633255
 70
   192
  0
VERTEX
  5
210
  8
COSTURA
 10
10.12958908081054
 20
-4.878499150276184
 30
9.3303774490278
 70
   192
  0
VERTEX
  5
211
  8
COSTURA
 10
10.12958908081054
 20
-4.878499150276184
 30
8.221872200004356
 70
   192
  0
VERTEX
  5
212
  8
COSTURA
 10
7.193813323974609
 20
-4.878499150276184
 30
8.221872200004356
 70
   192
  0
VERTEX
  5
213
  8
COSTURA
 10
11.89066314697265
 20
-7.682644128799438
 30
5.7399233474653
 70
   192
  0
VERTEX
  5
214
  8
COSTURA
 10
12.99916076660156
 20
-7.682644128799438
 30
5.7399233474653
 70
   192
  0
VERTEX
  5
215
  8
COSTURA
 10
12.99916076660156
 20
-7.682644128799438
 30
8.675699104301223
 70
   192
  0
VERTEX
  5
216
  8
COSTURA
 10
11.89066314697265
 20
-7.682644128799438
 30
8.675699104301223
 70
   192
  0
VERTEX
  5
217
  8
COSTURA
 10
12.99916076660156
 20
-4.878499150276184
 30
8.675699104301223
 70
   192
  0
VERTEX
  5
218
  8
COSTURA
 10
12.99916076660156
 20
-4.878499150276184
 30
5.7399233474653
 70
   192
  0
VERTEX
  5
219
  8
COSTURA
 10
11.89066314697265
 20
-4.878499150276184
 30
5.7399233474653
 70
   192
  0
VERTEX
  5
21A
  8
COSTURA
 10
11.89066314697265
 20
-4.878499150276184
 30
8.675699104301223
 70
   192
  0
VERTEX
  5
21B
  8
COSTURA
 10
5.812736511230469
 20
-7.682644128799438
 30
8.221872200004356
 70
   192
  0
VERTEX
  5
21C
  8
COSTURA
 10
5.812736511230469
 20
-7.682644128799438
 30
9.330369819633255
 70
   192
  0
VERTEX
  5
21D
  8
COSTURA
 10
2.876960754394531
 20
-7.682644128799438
 30
9.330369819633255
 70
   192
  0
VERTEX
  5
21E
  8
COSTURA
 10
2.876960754394531
 20
-7.682644128799438
 30
8.221872200004356
 70
   192
  0
VERTEX
  5
21F
  8
COSTURA
 10
2.876960754394531
 20
-4.878499150276184
 30
9.330369819633255
 70
   192
  0
VERTEX
  5
220
  8
COSTURA
 10
5.812736511230469
 20
-4.878499150276184
 30
9.3303774490278
 70
   192
  0
VERTEX
  5
221
  8
COSTURA
 10
5.812736511230469
 20
-4.878499150276184
 30
8.221872200004356
 70
   192
  0
VERTEX
  5
222
  8
COSTURA
 10
2.876960754394531
 20
-4.878499150276184
 30
8.221872200004356
 70
   192
  0
VERTEX
  5
223
  8
COSTURA
 10
1.495883941650391
 20
-7.682644128799438
 30
8.221872200004356
 70
   192
  0
VERTEX
  5
224
  8
COSTURA
 10
1.495883941650391
 20
-7.682644128799438
 30
9.330369819633255
 70
   192
  0
VERTEX
  5
225
  8
COSTURA
 10
-1.43989181518555
 20
-7.682644128799438
 30
9.330369819633255
 70
   192
  0
VERTEX
  5
226
  8
COSTURA
 10
-1.43989181518555
 20
-7.682644128799438
 30
8.221872200004356
 70
   192
  0
VERTEX
  5
227
  8
COSTURA
 10
-1.43989181518555
 20
-4.878499150276184
 30
9.330369819633255
 70
   192
  0
VERTEX
  5
228
  8
COSTURA
 10
1.495883941650391
 20
-4.878499150276184
 30
9.3303774490278
 70
   192
  0
VERTEX
  5
229
  8
COSTURA
 10
1.495883941650391
 20
-4.878499150276184
 30
8.221872200004356
 70
   192
  0
VERTEX
  5
22A
  8
COSTURA
 10
-1.43989181518555
 20
-4.878499150276184
 30
8.221872200004356
 70
   192
  0
VERTEX
  5
22B
  8
COSTURA
 10
-2.820968627929689
 20
-7.682644128799438
 30
8.221872200004356
 70
   192
  0
VERTEX
  5
22C
  8
COSTURA
 10
-2.820968627929689
 20
-7.682644128799438
 30
9.330369819633255
 70
   192
  0
VERTEX
  5
22D
  8
COSTURA
 10
-5.756744384765629
 20
-7.682644128799438
 30
9.330369819633255
 70
   192
  0
VERTEX
  5
22E
  8
COSTURA
 10
-5.756744384765629
 20
-7.682644128799438
 30
8.221872200004356
 70
   192
  0
VERTEX
  5
22F
  8
COSTURA
 10
-5.756744384765629
 20
-4.878499150276184
 30
9.330369819633255
 70
   192
  0
VERTEX
  5
230
  8
COSTURA
 10
-2.820968627929689
 20
-4.878499150276184
 30
9.3303774490278
 70
   192
  0
VERTEX
  5
231
  8
COSTURA
 10
-2.820968627929689
 20
-4.878499150276184
 30
8.221872200004356
 70
   192
  0
VERTEX
  5
232
  8
COSTURA
 10
-5.756744384765629
 20
-4.878499150276184
 30
8.221872200004356
 70
   192
  0
VERTEX
  5
233
  8
COSTURA
 10
-7.137821197509769
 20
-7.682644128799438
 30
8.221872200004356
 70
   192
  0
VERTEX
  5
234
  8
COSTURA
 10
-7.137821197509769
 20
-7.682644128799438
 30
9.330369819633255
 70
   192
  0
VERTEX
  5
235
  8
COSTURA
 10
-10.07359695434571
 20
-7.682644128799438
 30
9.330369819633255
 70
   192
  0
VERTEX
  5
236
  8
COSTURA
 10
-10.07359695434571
 20
-7.682644128799438
 30
8.221872200004356
 70
   192
  0
VERTEX
  5
237
  8
COSTURA
 10
-10.07359695434571
 20
-4.878499150276184
 30
9.330369819633255
 70
   192
  0
VERTEX
  5
238
  8
COSTURA
 10
-7.137821197509769
 20
-4.878499150276184
 30
9.3303774490278
 70
   192
  0
VERTEX
  5
239
  8
COSTURA
 10
-7.137821197509769
 20
-4.878499150276184
 30
8.221872200004356
 70
   192
  0
VERTEX
  5
23A
  8
COSTURA
 10
-10.07359695434571
 20
-4.878499150276184
 30
8.221872200004356
 70
   192
  0
VERTEX
  5
23B
  8
COSTURA
 10
-12.96541213989258
 20
-7.682644128799438
 30
5.7399233474653
 70
   192
  0
VERTEX
  5
23C
  8
COSTURA
 10
-11.85691452026368
 20
-7.682644128799438
 30
5.7399233474653
 70
   192
  0
VERTEX
  5
23D
  8
COSTURA
 10
-11.85691452026368
 20
-7.682644128799438
 30
8.675699104301223
 70
   192
  0
VERTEX
  5
23E
  8
COSTURA
 10
-12.96541213989258
 20
-7.682644128799438
 30
8.675699104301223
 70
   192
  0
VERTEX
  5
23F
  8
COSTURA
 10
-11.85691452026368
 20
-4.878499150276184
 30
8.675699104301223
 70
   192
  0
VERTEX
  5
240
  8
COSTURA
 10
-11.85691452026368
 20
-4.878499150276184
 30
5.7399233474653
 70
   192
  0
VERTEX
  5
241
  8
COSTURA
 10
-12.96541213989258
 20
-4.878499150276184
 30
5.7399233474653
 70
   192
  0
VERTEX
  5
242
  8
COSTURA
 10
-12.96541213989258
 20
-4.878499150276184
 30
8.675699104301223
 70
   192
  0
VERTEX
  5
243
  8
COSTURA
 10
-13.02132797241211
 20
-7.589219093322754
 30
-12.68379033661675
 70
   192
  0
VERTEX
  5
244
  8
COSTURA
 10
-11.91283035278321
 20
-7.589219093322754
 30
-12.68379033661675
 70
   192
  0
VERTEX
  5
245
  8
COSTURA
 10
-11.91283035278321
 20
-7.589219093322754
 30
-9.7480145797808
 70
   192
  0
VERTEX
  5
246
  8
COSTURA
 10
-13.02132797241211
 20
-7.589219093322754
 30
-9.7480145797808
 70
   192
  0
VERTEX
  5
247
  8
COSTURA
 10
-11.91283035278321
 20
-4.878499150276184
 30
-9.7480145797808
 70
   192
  0
VERTEX
  5
248
  8
COSTURA
 10
-11.91283035278321
 20
-4.878499150276184
 30
-12.68379033661675
 70
   192
  0
VERTEX
  5
249
  8
COSTURA
 10
-13.02132797241211
 20
-4.878499150276184
 30
-12.68379033661675
 70
   192
  0
VERTEX
  5
24A
  8
COSTURA
 10
-13.02132797241211
 20
-4.878499150276184
 30
-9.7480145797808
 70
   192
  0
VERTEX
  5
24B
  8
COSTURA
 10
-12.96541213989258
 20
-7.61587119102478
 30
-8.04357350922416
 70
   192
  0
VERTEX
  5
24C
  8
COSTURA
 10
-11.85691452026368
 20
-7.61587119102478
 30
-8.04357350922416
 70
   192
  0
VERTEX
  5
24D
  8
COSTURA
 10
-11.85691452026368
 20
-7.61587119102478
 30
-5.10779775238823
 70
   192
  0
VERTEX
  5
24E
  8
COSTURA
 10
-12.96541213989258
 20
-7.61587119102478
 30
-5.10779775238823
 70
   192
  0
VERTEX
  5
24F
  8
COSTURA
 10
-11.85691452026368
 20
-4.878499150276184
 30
-5.10779775238823
 70
   192
  0
VERTEX
  5
250
  8
COSTURA
 10
-11.85691452026368
 20
-4.878499150276184
 30
-8.04357350922416
 70
   192
  0
VERTEX
  5
251
  8
COSTURA
 10
-12.96541213989258
 20
-4.878499150276184
 30
-8.04357350922416
 70
   192
  0
VERTEX
  5
252
  8
COSTURA
 10
-12.96541213989258
 20
-4.878499150276184
 30
-5.10779775238823
 70
   192
  0
VERTEX
  5
253
  8
COSTURA
 10
-13.02132797241211
 20
-7.616981029510498
 30
-17.32400525666068
 70
   192
  0
VERTEX
  5
254
  8
COSTURA
 10
-11.91283035278321
 20
-7.616981029510498
 30
-17.32400525666068
 70
   192
  0
VERTEX
  5
255
  8
COSTURA
 10
-11.91283035278321
 20
-7.537023067474365
 30
-14.38822949982475
 70
   192
  0
VERTEX
  5
256
  8
COSTURA
 10
-13.02132797241211
 20
-7.537023067474365
 30
-14.38822949982475
 70
   192
  0
VERTEX
  5
257
  8
COSTURA
 10
-11.91283035278321
 20
-4.878499150276184
 30
-14.38822949982475
 70
   192
  0
VERTEX
  5
258
  8
COSTURA
 10
-11.91283035278321
 20
-4.949779152870178
 30
-17.32400525666068
 70
   192
  0
VERTEX
  5
259
  8
COSTURA
 10
-13.02132797241211
 20
-4.949779152870178
 30
-17.32400525666068
 70
   192
  0
VERTEX
  5
25A
  8
COSTURA
 10
-13.02132797241211
 20
-4.878499150276184
 30
-14.38822949982475
 70
   192
  0
VERTEX
  5
25B
  8
COSTURA
 10
-13.02132797241211
 20
-7.750533103942871
 30
-21.96422208405326
 70
   192
  0
VERTEX
  5
25C
  8
COSTURA
 10
-11.91283035278321
 20
-7.750533103942871
 30
-21.96422208405326
 70
   192
  0
VERTEX
  5
25D
  8
COSTURA
 10
-11.91283035278321
 20
-7.682644128799438
 30
-19.02844632721732
 70
   192
  0
VERTEX
  5
25E
  8
COSTURA
 10
-13.02132797241211
 20
-7.682644128799438
 30
-19.02844632721732
 70
   192
  0
VERTEX
  5
25F
  8
COSTURA
 10
-11.91283035278321
 20
-4.990193128585815
 30
-19.02844632721732
 70
   192
  0
VERTEX
  5
260
  8
COSTURA
 10
-11.91283035278321
 20
-5.056825160980218
 30
-21.96422208405326
 70
   192
  0
VERTEX
  5
261
  8
COSTURA
 10
-13.02132797241211
 20
-5.056825160980218
 30
-21.96422208405326
 70
   192
  0
VERTEX
  5
262
  8
COSTURA
 10
-13.02132797241211
 20
-4.990193128585815
 30
-19.02844632721732
 70
   192
  0
VERTEX
  5
263
  8
COSTURA
 10
-13.02132797241211
 20
-7.83063626289367
 30
-26.60443891144584
 70
   192
  0
VERTEX
  5
264
  8
COSTURA
 10
-11.91283035278321
 20
-7.83063626289367
 30
-26.60443891144584
 70
   192
  0
VERTEX
  5
265
  8
COSTURA
 10
-11.91283035278321
 20
-7.79065823554992
 30
-23.6686631546099
 70
   192
  0
VERTEX
  5
266
  8
COSTURA
 10
-13.02132797241211
 20
-7.79065823554992
 30
-23.6686631546099
 70
   192
  0
VERTEX
  5
267
  8
COSTURA
 10
-11.91283035278321
 20
-5.096949160099022
 30
-23.6686631546099
 70
   192
  0
VERTEX
  5
268
  8
COSTURA
 10
-11.91283035278321
 20
-5.136927127838128
 30
-26.60443891144584
 70
   192
  0
VERTEX
  5
269
  8
COSTURA
 10
-13.02132797241211
 20
-5.136927127838128
 30
-26.60443891144584
 70
   192
  0
VERTEX
  5
26A
  8
COSTURA
 10
-13.02132797241211
 20
-5.096949160099022
 30
-23.6686631546099
 70
   192
  0
VERTEX
  5
26B
  8
COSTURA
 10
-13.02132797241211
 20
-7.817910194396966
 30
-31.24465573883841
 70
   192
  0
VERTEX
  5
26C
  8
COSTURA
 10
-11.91283035278321
 20
-7.817910194396966
 30
-31.24465573883841
 70
   192
  0
VERTEX
  5
26D
  8
COSTURA
 10
-11.91283035278321
 20
-7.817910194396966
 30
-28.30887998200248
 70
   192
  0
VERTEX
  5
26E
  8
COSTURA
 10
-13.02132797241211
 20
-7.817910194396966
 30
-28.30887998200248
 70
   192
  0
VERTEX
  5
26F
  8
COSTURA
 10
-11.91283035278321
 20
-5.136927127838128
 30
-28.30887998200248
 70
   192
  0
VERTEX
  5
270
  8
COSTURA
 10
-11.91283035278321
 20
-5.123601138591759
 30
-31.24465573883841
 70
   192
  0
VERTEX
  5
271
  8
COSTURA
 10
-13.02132797241211
 20
-5.123601138591759
 30
-31.24465573883841
 70
   192
  0
VERTEX
  5
272
  8
COSTURA
 10
-13.02132797241211
 20
-5.136927127838128
 30
-28.30887998200248
 70
   192
  0
VERTEX
  5
273
  8
COSTURA
 10
-13.02132797241211
 20
-7.604317188262932
 30
-35.88487280464958
 70
   192
  0
VERTEX
  5
274
  8
COSTURA
 10
-11.91283035278321
 20
-7.604317188262932
 30
-35.88487280464958
 70
   192
  0
VERTEX
  5
275
  8
COSTURA
 10
-11.91283035278321
 20
-7.780924081802361
 30
-32.94909680939507
 70
   192
  0
VERTEX
  5
276
  8
COSTURA
 10
-13.02132797241211
 20
-7.780924081802361
 30
-32.94909680939507
 70
   192
  0
VERTEX
  5
277
  8
COSTURA
 10
-11.91283035278321
 20
-5.076047122478478
 30
-32.94909680939507
 70
   192
  0
VERTEX
  5
278
  8
COSTURA
 10
-11.91283035278321
 20
-4.916132152080529
 30
-35.88487280464958
 70
   192
  0
VERTEX
  5
279
  8
COSTURA
 10
-13.02132797241211
 20
-4.916132152080529
 30
-35.88487280464958
 70
   192
  0
VERTEX
  5
27A
  8
COSTURA
 10
-13.02132797241211
 20
-5.076047122478478
 30
-32.94909680939507
 70
   192
  0
VERTEX
  5
27B
  8
COSTURA
 10
0.0
 20
0.0
 30
0.0
 70
   128
 71
     1
 72
     2
 73
     3
 74
     4
  0
VERTEX
  5
27C
  8
COSTURA
 10
0.0
 20
0.0
 30
0.0
 70
   128
 71
     5
 72
     6
 73
     7
 74
     8
  0
VERTEX
  5
27D
  8
COSTURA
 10
0.0
 20
0.0
 30
0.0
 70
   128
 71
     9
 72
    10
 73
    11
 74
    12
  0
VERTEX
  5
27E
  8
COSTURA
 10
0.0
 20
0.0
 30
0.0
 70
   128
 71
    13
 72
    14
 73
    15
 74
    16
  0
VERTEX
  5
27F
  8
COSTURA
 10
0.0
 20
0.0
 30
0.0
 70
   128
 71
    17
 72
    18
 73
    19
 74
    20
  0
VERTEX
  5
280
  8
COSTURA
 10
0.0
 20
0.0
 30
0.0
 70
   128
 71
    21
 72
    22
 73
    23
 74
    24
  0
VERTEX
  5
281
  8
COSTURA
 10
0.0
 20
0.0
 30
0.0
 70
   128
 71
    25
 72
    26
 73
    27
 74
    28
  0
VERTEX
  5
282
  8
COSTURA
 10
0.0
 20
0.0
 30
0.0
 70
   128
 71
    29
 72
    30
 73
    31
 74
    32
  0
VERTEX
  5
283
  8
COSTURA
 10
0.0
 20
0.0
 30
0.0
 70
   128
 71
    33
 72
    34
 73
    35
 74
    36
  0
VERTEX
  5
284
  8
COSTURA
 10
0.0
 20
0.0
 30
0.0
 70
   128
 71
    37
 72
    38
 73
    39
 74
    40
  0
VERTEX
  5
285
  8
COSTURA
 10
0.0
 20
0.0
 30
0.0
 70
   128
 71
    41
 72
    42
 73
    43
 74
    44
  0
VERTEX
  5
286
  8
COSTURA
 10
0.0
 20
0.0
 30
0.0
 70
   128
 71
    45
 72
    46
 73
    47
 74
    48
  0
VERTEX
  5
287
  8
COSTURA
 10
0.0
 20
0.0
 30
0.0
 70
   128
 71
    49
 72
    50
 73
    51
 74
    52
  0
VERTEX
  5
288
  8
COSTURA
 10
0.0
 20
0.0
 30
0.0
 70
   128
 71
    53
 72
    54
 73
    55
 74
    56
  0
VERTEX
  5
289
  8
COSTURA
 10
0.0
 20
0.0
 30
0.0
 70
   128
 71
    57
 72
    58
 73
    59
 74
    60
  0
VERTEX
  5
28A
  8
COSTURA
 10
0.0
 20
0.0
 30
0.0
 70
   128
 71
    61
 72
    62
 73
    63
 74
    64
  0
VERTEX
  5
28B
  8
COSTURA
 10
0.0
 20
0.0
 30
0.0
 70
   128
 71
    65
 72
    66
 73
    67
 74
    68
  0
VERTEX
  5
28C
  8
COSTURA
 10
0.0
 20
0.0
 30
0.0
 70
   128
 71
    69
 72
    70
 73
    71
 74
    72
  0
VERTEX
  5
28D
  8
COSTURA
 10
0.0
 20
0.0
 30
0.0
 70
   128
 71
    73
 72
    74
 73
    75
 74
    76
  0
VERTEX
  5
28E
  8
COSTURA
 10
0.0
 20
0.0
 30
0.0
 70
   128
 71
    77
 72
    78
 73
    79
 74
    80
  0
VERTEX
  5
28F
  8
COSTURA
 10
0.0
 20
0.0
 30
0.0
 70
   128
 71
    81
 72
    82
 73
    83
 74
    84
  0
VERTEX
  5
290
  8
COSTURA
 10
0.0
 20
0.0
 30
0.0
 70
   128
 71
    85
 72
    86
 73
    87
 74
    88
  0
VERTEX
  5
291
  8
COSTURA
 10
0.0
 20
0.0
 30
0.0
 70
   128
 71
    89
 72
    90
 73
    91
 74
    92
  0
VERTEX
  5
292
  8
COSTURA
 10
0.0
 20
0.0
 30
0.0
 70
   128
 71
    93
 72
    94
 73
    95
 74
    96
  0
VERTEX
  5
293
  8
COSTURA
 10
0.0
 20
0.0
 30
0.0
 70
   128
 71
    97
 72
    98
 73
    99
 74
   100
  0
VERTEX
  5
294
  8
COSTURA
 10
0.0
 20
0.0
 30
0.0
 70
   128
 71
   101
 72
   102
 73
   103
 74
   104
  0
VERTEX
  5
295
  8
COSTURA
 10
0.0
 20
0.0
 30
0.0
 70
   128
 71
   105
 72
   106
 73
   107
 74
   108
  0
VERTEX
  5
296
  8
COSTURA
 10
0.0
 20
0.0
 30
0.0
 70
   128
 71
   109
 72
   110
 73
   111
 74
   112
  0
VERTEX
  5
297
  8
COSTURA
 10
0.0
 20
0.0
 30
0.0
 70
   128
 71
   113
 72
   114
 73
   115
 74
   116
  0
VERTEX
  5
298
  8
COSTURA
 10
0.0
 20
0.0
 30
0.0
 70
   128
 71
   117
 72
   118
 73
   119
 74
   120
  0
VERTEX
  5
299
  8
COSTURA
 10
0.0
 20
0.0
 30
0.0
 70
   128
 71
   121
 72
   122
 73
   123
 74
   124
  0
VERTEX
  5
29A
  8
COSTURA
 10
0.0
 20
0.0
 30
0.0
 70
   128
 71
   125
 72
   126
 73
   127
 74
   128
  0
VERTEX
  5
29B
  8
COSTURA
 10
0.0
 20
0.0
 30
0.0
 70
   128
 71
   129
 72
   130
 73
   131
 74
   132
  0
VERTEX
  5
29C
  8
COSTURA
 10
0.0
 20
0.0
 30
0.0
 70
   128
 71
   133
 72
   134
 73
   135
 74
   136
  0
VERTEX
  5
29D
  8
COSTURA
 10
0.0
 20
0.0
 30
0.0
 70
   128
 71
   137
 72
   138
 73
   139
 74
   140
  0
VERTEX
  5
29E
  8
COSTURA
 10
0.0
 20
0.0
 30
0.0
 70
   128
 71
   141
 72
   142
 73
   143
 74
   144
  0
VERTEX
  5
29F
  8
COSTURA
 10
0.0
 20
0.0
 30
0.0
 70
   128
 71
   145
 72
   146
 73
   147
 74
   148
  0
VERTEX
  5
2A0
  8
COSTURA
 10
0.0
 20
0.0
 30
0.0
 70
   128
 71
   149
 72
   150
 73
   151
 74
   152
  0
VERTEX
  5
2A1
  8
COSTURA
 10
0.0
 20
0.0
 30
0.0
 70
   128
 71
   153
 72
   154
 73
   155
 74
   156
  0
VERTEX
  5
2A2
  8
COSTURA
 10
0.0
 20
0.0
 30
0.0
 70
   128
 71
   157
 72
   158
 73
   159
 74
   160
  0
VERTEX
  5
2A3
  8
COSTURA
 10
0.0
 20
0.0
 30
0.0
 70
   128
 71
   161
 72
   162
 73
   163
 74
   164
  0
VERTEX
  5
2A4
  8
COSTURA
 10
0.0
 20
0.0
 30
0.0
 70
   128
 71
   165
 72
   166
 73
   167
 74
   168
  0
SEQEND
  5
366
  8
COSTURA
  0
POLYLINE
  5
2A6
  8
METAL
 66
     1
 10
0.0
 20
0.0
 30
0.0
 70
    64
 71
    40
 72
    14
  0
VERTEX
  5
2A7
  8
METAL
 10
15.67942810058593
 20
-9.716913223266602
 30
5.582063545219206
 70
   192
  0
VERTEX
  5
2A8
  8
METAL
 10
15.67942810058593
 20
-9.716913223266602
 30
5.582063545219206
 70
   192
  0
VERTEX
  5
2A9
  8
METAL
 10
15.67942810058593
 20
0.0
 30
5.582063545219206
 70
   192
  0
VERTEX
  5
2AA
  8
METAL
 10
15.67942810058593
 20
0.0
 30
5.582063545219206
 70
   192
  0
VERTEX
  5
2AB
  8
METAL
 10
15.67942810058593
 20
0.0
 30
5.582063545219206
 70
   192
  0
VERTEX
  5
2AC
  8
METAL
 10
15.67942810058593
 20
-11.17977523803711
 30
-5.09235585785698
 70
   192
  0
VERTEX
  5
2AD
  8
METAL
 10
15.67942810058593
 20
-11.17977523803711
 30
-5.09235585785698
 70
   192
  0
VERTEX
  5
2AE
  8
METAL
 10
15.67942810058593
 20
0.0
 30
-5.09235585785698
 70
   192
  0
VERTEX
  5
2AF
  8
METAL
 10
15.67942810058593
 20
0.0
 30
-5.09235585785698
 70
   192
  0
VERTEX
  5
2B0
  8
METAL
 10
15.67942810058593
 20
0.0
 30
-5.09235585785698
 70
   192
  0
VERTEX
  5
2B1
  8
METAL
 10
15.22437286376953
 20
-11.08208227157593
 30
5.582063545219206
 70
   192
  0
VERTEX
  5
2B2
  8
METAL
 10
15.22437286376953
 20
-11.08208227157593
 30
5.582063545219206
 70
   192
  0
VERTEX
  5
2B3
  8
METAL
 10
15.22437286376953
 20
-11.08208227157593
 30
5.582063545219206
 70
   192
  0
VERTEX
  5
2B4
  8
METAL
 10
15.22437286376953
 20
-12.54494380950928
 30
-5.09235585785698
 70
   192
  0
VERTEX
  5
2B5
  8
METAL
 10
15.22437286376953
 20
-12.54494380950928
 30
-5.09235585785698
 70
   192
  0
VERTEX
  5
2B6
  8
METAL
 10
15.22437286376953
 20
-12.54494380950928
 30
-5.09235585785698
 70
   192
  0
VERTEX
  5
2B7
  8
METAL
 10
13.85920333862304
 20
-11.53713798522949
 30
5.582063545219206
 70
   192
  0
VERTEX
  5
2B8
  8
METAL
 10
13.85920333862304
 20
-11.53713798522949
 30
5.582063545219206
 70
   192
  0
VERTEX
  5
2B9
  8
METAL
 10
13.85920333862304
 20
-13.0
 30
-5.09235585785698
 70
   192
  0
VERTEX
  5
2BA
  8
METAL
 10
13.85920333862304
 20
-13.0
 30
-5.09235585785698
 70
   192
  0
VERTEX
  5
2BB
  8
METAL
 10
-13.50034713745118
 20
-11.53713798522949
 30
5.582063545219206
 70
   192
  0
VERTEX
  5
2BC
  8
METAL
 10
-13.50034713745118
 20
-11.53713798522949
 30
5.582063545219206
 70
   192
  0
VERTEX
  5
2BD
  8
METAL
 10
-13.50034713745118
 20
-13.0
 30
-5.09235585785698
 70
   192
  0
VERTEX
  5
2BE
  8
METAL
 10
-13.50034713745118
 20
-13.0
 30
-5.09235585785698
 70
   192
  0
VERTEX
  5
2BF
  8
METAL
 10
-14.86551570892334
 20
-11.08208227157593
 30
5.582063545219206
 70
   192
  0
VERTEX
  5
2C0
  8
METAL
 10
-14.86551570892334
 20
-11.08208227157593
 30
5.582063545219206
 70
   192
  0
VERTEX
  5
2C1
  8
METAL
 10
-14.86551570892334
 20
-11.08208227157593
 30
5.582063545219206
 70
   192
  0
VERTEX
  5
2C2
  8
METAL
 10
-14.86551570892334
 20
-12.54494380950928
 30
-5.09235585785698
 70
   192
  0
VERTEX
  5
2C3
  8
METAL
 10
-14.86551570892334
 20
-12.54494380950928
 30
-5.09235585785698
 70
   192
  0
VERTEX
  5
2C4
  8
METAL
 10
-14.86551570892334
 20
-12.54494380950928
 30
-5.09235585785698
 70
   192
  0
VERTEX
  5
2C5
  8
METAL
 10
-15.32057189941407
 20
-9.716913223266602
 30
5.582063545219206
 70
   192
  0
VERTEX
  5
2C6
  8
METAL
 10
-15.32057189941407
 20
-9.716913223266602
 30
5.582063545219206
 70
   192
  0
VERTEX
  5
2C7
  8
METAL
 10
-15.32057189941407
 20
0.0
 30
5.582063545219206
 70
   192
  0
VERTEX
  5
2C8
  8
METAL
 10
-15.32057189941407
 20
0.0
 30
5.582063545219206
 70
   192
  0
VERTEX
  5
2C9
  8
METAL
 10
-15.32057189941407
 20
0.0
 30
5.582063545219206
 70
   192
  0
VERTEX
  5
2CA
  8
METAL
 10
-15.32057189941407
 20
-11.17977523803711
 30
-5.09235585785698
 70
   192
  0
VERTEX
  5
2CB
  8
METAL
 10
-15.32057189941407
 20
-11.17977523803711
 30
-5.09235585785698
 70
   192
  0
VERTEX
  5
2CC
  8
METAL
 10
-15.32057189941407
 20
0.0
 30
-5.09235585785698
 70
   192
  0
VERTEX
  5
2CD
  8
METAL
 10
-15.32057189941407
 20
0.0
 30
-5.09235585785698
 70
   192
  0
VERTEX
  5
2CE
  8
METAL
 10
-15.32057189941407
 20
0.0
 30
-5.09235585785698
 70
   192
  0
VERTEX
  5
2CF
  8
METAL
 10
0.0
 20
0.0
 30
0.0
 70
   128
 71
    38
 72
    34
 73
     5
 74
     9
  0
VERTEX
  5
2D0
  8
METAL
 10
0.0
 20
0.0
 30
0.0
 70
   128
 71
    24
 72
    19
 73
    18
 74
    22
  0
VERTEX
  5
2D1
  8
METAL
 10
0.0
 20
0.0
 30
0.0
 70
   128
 71
    10
 72
     7
 73
    36
 74
    39
  0
VERTEX
  5
2D2
  8
METAL
 10
0.0
 20
0.0
 30
0.0
 70
   128
 71
     8
 72
     3
 73
     1
 74
     6
  0
VERTEX
  5
2D3
  8
METAL
 10
0.0
 20
0.0
 30
0.0
 70
   128
 71
    33
 72
    31
 73
     2
 74
     4
  0
VERTEX
  5
2D4
  8
METAL
 10
0.0
 20
0.0
 30
0.0
 70
   128
 71
    35
 72
    40
 73
    37
 74
    32
  0
VERTEX
  5
2D5
  8
METAL
 10
0.0
 20
0.0
 30
0.0
 70
   128
 71
    12
 72
    18
 73
    19
 74
    15
  0
VERTEX
  5
2D6
  8
METAL
 10
0.0
 20
0.0
 30
0.0
 70
   128
 71
    29
 72
    24
 73
    22
 74
    26
  0
VERTEX
  5
2D7
  8
METAL
 10
0.0
 20
0.0
 30
0.0
 70
   128
 71
     1
 72
    11
 73
    14
 74
     6
  0
VERTEX
  5
2D8
  8
METAL
 10
0.0
 20
0.0
 30
0.0
 70
   128
 71
    37
 72
    30
 73
    27
 74
    32
  0
VERTEX
  5
2D9
  8
METAL
 10
0.0
 20
0.0
 30
0.0
 70
   128
 71
    16
 72
    28
 73
    36
 74
     7
  0
VERTEX
  5
2DA
  8
METAL
 10
0.0
 20
0.0
 30
0.0
 70
   128
 71
    20
 72
    23
 73
    28
 74
    16
  0
VERTEX
  5
2DB
  8
METAL
 10
0.0
 20
0.0
 30
0.0
 70
   128
 71
    25
 72
    13
 73
     2
 74
    31
  0
VERTEX
  5
2DC
  8
METAL
 10
0.0
 20
0.0
 30
0.0
 70
   128
 71
    21
 72
    17
 73
    13
 74
    25
  0
SEQEND
  5
367
  8
METAL
  0
ENDSEC
  0
EOF
