  0
SECTION
  2
HEADER
  9
$ACADVER
  1
AC1009
  9
$DWGCODEPAGE
  3
ansi_1252
  9
$INSBASE
 10
0.0
 20
0.0
 30
0.0
  9
$EXTMIN
 10
-26.0
 20
-7.641487121582032
 30
-44.0
  9
$EXTMAX
 10
26.07237243652344
 20
0.0
 30
5.971453666687012
  9
$LIMMIN
 10
0.0
 20
0.0
  9
$LIMMAX
 10
12.0
 20
9.0
  9
$ORTHOMODE
 70
     1
  9
$REGENMODE
 70
     1
  9
$FILLMODE
 70
     1
  9
$QTEXTMODE
 70
     0
  9
$MIRRTEXT
 70
     1
  9
$DRAGMODE
 70
     2
  9
$LTSCALE
 40
1.0
  9
$OSMODE
 70
    37
  9
$ATTMODE
 70
     1
  9
$TEXTSIZE
 40
0.2
  9
$TRACEWID
 40
0.05
  9
$TEXTSTYLE
  7
STANDARD
  9
$CLAYER
  8
0
  9
$CELTYPE
  6
BYLAYER
  9
$CECOLOR
 62
   256
  9
$DIMSCALE
 40
1.0
  9
$DIMASZ
 40
0.18
  9
$DIMEXO
 40
0.0625
  9
$DIMDLI
 40
0.38
  9
$DIMRND
 40
0.0
  9
$DIMDLE
 40
0.0
  9
$DIMEXE
 40
0.18
  9
$DIMTP
 40
0.0
  9
$DIMTM
 40
0.0
  9
$DIMTXT
 40
0.18
  9
$DIMCEN
 40
0.09
  9
$DIMTSZ
 40
0.0
  9
$DIMTOL
 70
     0
  9
$DIMLIM
 70
     0
  9
$DIMTIH
 70
     1
  9
$DIMTOH
 70
     1
  9
$DIMSE1
 70
     0
  9
$DIMSE2
 70
     0
  9
$DIMTAD
 70
     0
  9
$DIMZIN
 70
     0
  9
$DIMBLK
  1

  9
$DIMASO
 70
     1
  9
$DIMSHO
 70
     1
  9
$DIMPOST
  1

  9
$DIMAPOST
  1

  9
$DIMALT
 70
     0
  9
$DIMALTD
 70
     2
  9
$DIMALTF
 40
25.4
  9
$DIMLFAC
 40
1.0
  9
$DIMTOFL
 70
     0
  9
$DIMTVP
 40
0.0
  9
$DIMTIX
 70
     0
  9
$DIMSOXD
 70
     0
  9
$DIMSAH
 70
     0
  9
$DIMBLK1
  1

  9
$DIMBLK2
  1

  9
$DIMSTYLE
  2
STANDARD
  9
$DIMCLRD
 70
     0
  9
$DIMCLRE
 70
     0
  9
$DIMCLRT
 70
     0
  9
$DIMTFAC
 40
1.0
  9
$DIMGAP
 40
0.09
  9
$LUNITS
 70
     2
  9
$LUPREC
 70
     3
  9
$SKETCHINC
 40
0.1
  9
$FILLETRAD
 40
0.5
  9
$AUNITS
 70
     0
  9
$AUPREC
 70
     0
  9
$MENU
  1
.
  9
$ELEVATION
 40
0.0
  9
$PELEVATION
 40
0.0
  9
$THICKNESS
 40
0.0
  9
$LIMCHECK
 70
     0
  9
$CHAMFERA
 40
0.5
  9
$CHAMFERB
 40
0.5
  9
$SKPOLY
 70
     0
  9
$TDCREATE
 40
2456506.353363056
  9
$TDUPDATE
 40
2456506.353363056
  9
$TDINDWG
 40
0.0006597338
  9
$TDUSRTIMER
 40
0.0006481366
  9
$USRTIMER
 70
     1
  9
$ANGBASE
 50
0.0
  9
$ANGDIR
 70
     0
  9
$PDMODE
 70
     0
  9
$PDSIZE
 40
0.0
  9
$PLINEWID
 40
0.0
  9
$COORDS
 70
     1
  9
$SPLFRAME
 70
     0
  9
$SPLINETYPE
 70
     6
  9
$SPLINESEGS
 70
     8
  9
$ATTDIA
 70
     0
  9
$ATTREQ
 70
     1
  9
$HANDLING
 70
     1
  9
$HANDSEED
  5
328
  9
$SURFTAB1
 70
     6
  9
$SURFTAB2
 70
     6
  9
$SURFTYPE
 70
     6
  9
$SURFU
 70
     6
  9
$SURFV
 70
     6
  9
$UCSNAME
  2

  9
$UCSORG
 10
0.0
 20
0.0
 30
0.0
  9
$UCSXDIR
 10
0.0
 20
1.0
 30
0.0
  9
$UCSYDIR
 10
0.0
 20
0.0
 30
1.0
  9
$PUCSNAME
  2

  9
$PUCSORG
 10
0.0
 20
0.0
 30
0.0
  9
$PUCSXDIR
 10
1.0
 20
0.0
 30
0.0
  9
$PUCSYDIR
 10
0.0
 20
1.0
 30
0.0
  9
$USERI1
 70
     0
  9
$USERI2
 70
     0
  9
$USERI3
 70
     0
  9
$USERI4
 70
     0
  9
$USERI5
 70
     0
  9
$USERR1
 40
0.0
  9
$USERR2
 40
0.0
  9
$USERR3
 40
0.0
  9
$USERR4
 40
0.0
  9
$USERR5
 40
0.0
  9
$WORLDVIEW
 70
     1
  9
$SHADEDGE
 70
     3
  9
$SHADEDIF
 70
    70
  9
$TILEMODE
 70
     1
  9
$MAXACTVP
 70
    64
  9
$PLIMCHECK
 70
     0
  9
$PEXTMIN
 10
1.000000000000000E+20
 20
1.000000000000000E+20
 30
1.000000000000000E+20
  9
$PEXTMAX
 10
-1.000000000000000E+20
 20
-1.000000000000000E+20
 30
-1.000000000000000E+20
  9
$PLIMMIN
 10
0.0
 20
0.0
  9
$PLIMMAX
 10
12.0
 20
9.0
  9
$UNITMODE
 70
     0
  9
$VISRETAIN
 70
     1
  9
$PLINEGEN
 70
     0
  9
$PSLTSCALE
 70
     1
  0
ENDSEC
  0
SECTION
  2
TABLES
  0
TABLE
  2
VPORT
 70
     1
  0
VPORT
  2
*ACTIVE
 70
     0
 10
0.0
 20
0.0
 11
1.0
 21
1.0
 12
2.727261201328522
 22
-17.07012809465088
 13
0.0
 23
0.0
 14
0.5
 24
0.5
 15
0.5
 25
0.5
 16
-1.0
 26
-1.0
 36
1.0
 17
0.0
 27
0.0
 37
0.0
 40
83.10399273415335
 41
0.9596538688073514
 42
50.0
 43
0.0
 44
0.0
 50
0.0
 51
0.0
 71
    16
 72
   100
 73
     0
 74
     1
 75
     0
 76
     0
 77
     0
 78
     0
  0
ENDTAB
  0
TABLE
  2
LTYPE
 70
     1
  0
LTYPE
  2
CONTINUOUS
 70
     0
  3
Solid line
 72
    65
 73
     0
 40
0.0
  0
ENDTAB
  0
TABLE
  2
LAYER
 70
     3
  0
LAYER
  2
0
 70
     0
 62
     7
  6
CONTINUOUS
  0
LAYER
  2
DESENHO_NATU
 70
     0
 62
     4
  6
CONTINUOUS
  0
LAYER
  2
METAL
 70
     0
 62
   190
  6
CONTINUOUS
  0
ENDTAB
  0
TABLE
  2
STYLE
 70
     1
  0
STYLE
  2
STANDARD
 70
     0
 40
0.0
 41
1.0
 50
0.0
 71
     0
 42
0.2
  3
txt
  4

  0
ENDTAB
  0
TABLE
  2
VIEW
 70
     0
  0
ENDTAB
  0
TABLE
  2
UCS
 70
     0
  0
ENDTAB
  0
TABLE
  2
APPID
 70
     1
  0
APPID
  2
ACAD
 70
     0
  0
ENDTAB
  0
TABLE
  2
DIMSTYLE
 70
     1
  0
DIMSTYLE
  2
STANDARD
 70
     0
  3

  4

  5

  6

  7

 40
1.0
 41
0.18
 42
0.0625
 43
0.38
 44
0.18
 45
0.0
 46
0.0
 47
0.0
 48
0.0
140
0.18
141
0.09
142
0.0
143
25.4
144
1.0
145
0.0
146
1.0
147
0.09
 71
     0
 72
     0
 73
     1
 74
     1
 75
     0
 76
     0
 77
     0
 78
     0
170
     0
171
     2
172
     0
173
     0
174
     0
175
     0
176
     0
177
     0
178
     0
  0
ENDTAB
  0
ENDSEC
  0
SECTION
  2
BLOCKS
  0
BLOCK
  8
0
  2
$MODEL_SPACE
 70
     0
 10
0.0
 20
0.0
 30
0.0
  3
$MODEL_SPACE
  1

  0
ENDBLK
  5
21
  8
0
  0
BLOCK
 67
     1
  8
0
  2
$PAPER_SPACE
 70
     0
 10
0.0
 20
0.0
 30
0.0
  3
$PAPER_SPACE
  1

  0
ENDBLK
  5
76
 67
     1
  8
0
  0
ENDSEC
  0
SECTION
  2
ENTITIES
  0
POLYLINE
  5
3C
  8
DESENHO_NATU
 66
     1
 10
0.0
 20
0.0
 30
0.0
 70
    64
 71
    58
 72
    27
  0
VERTEX
  5
3D
  8
DESENHO_NATU
 10
0.2444314956665004
 20
-7.416416168212892
 30
4.501395225524888
 70
   192
  0
VERTEX
  5
3E
  8
DESENHO_NATU
 10
23.07684707641602
 20
-7.416416168212892
 30
4.501395225524888
 70
   192
  0
VERTEX
  5
3F
  8
DESENHO_NATU
 10
0.2444314956665004
 20
-7.598480224609369
 30
3.358019828796387
 70
   192
  0
VERTEX
  5
40
  8
DESENHO_NATU
 10
0.2444314956665004
 20
-7.598480224609369
 30
3.358019828796387
 70
   192
  0
VERTEX
  5
41
  8
DESENHO_NATU
 10
23.07684707641602
 20
-7.598480224609369
 30
3.358016014099107
 70
   192
  0
VERTEX
  5
42
  8
DESENHO_NATU
 10
23.07684707641602
 20
-7.598480224609369
 30
3.358016014099107
 70
   192
  0
VERTEX
  5
43
  8
DESENHO_NATU
 10
0.2444314956665004
 20
-7.641487121582032
 30
0.7289037704467702
 70
   192
  0
VERTEX
  5
44
  8
DESENHO_NATU
 10
23.07684707641602
 20
-7.641487121582032
 30
0.7288999557494975
 70
   192
  0
VERTEX
  5
45
  8
DESENHO_NATU
 10
23.07684707641602
 20
-7.488822937011705
 30
-4.513648986816413
 70
   192
  0
VERTEX
  5
46
  8
DESENHO_NATU
 10
0.2444314956665004
 20
-7.488822937011705
 30
-4.513650894165053
 70
   192
  0
VERTEX
  5
47
  8
DESENHO_NATU
 10
23.07684707641602
 20
-7.122554779052726
 30
-9.75620192289353
 70
   192
  0
VERTEX
  5
48
  8
DESENHO_NATU
 10
0.2444314956665004
 20
-7.122554779052726
 30
-9.75620293617249
 70
   192
  0
VERTEX
  5
49
  8
DESENHO_NATU
 10
23.07684707641602
 20
-6.567993164062498
 30
-14.99875402450562
 70
   192
  0
VERTEX
  5
4A
  8
DESENHO_NATU
 10
0.2444314956665004
 20
-6.567993164062498
 30
-14.99875593185426
 70
   192
  0
VERTEX
  5
4B
  8
DESENHO_NATU
 10
23.07684707641602
 20
-5.559402465820302
 30
-21.59160709381104
 70
   192
  0
VERTEX
  5
4C
  8
DESENHO_NATU
 10
0.2444314956665004
 20
-5.559402465820302
 30
-21.59160804748535
 70
   192
  0
VERTEX
  5
4D
  8
DESENHO_NATU
 10
0.2444314956665004
 20
-5.486194610595692
 30
-22.09502792358399
 70
   192
  0
VERTEX
  5
4E
  8
DESENHO_NATU
 10
23.07684707641602
 20
-5.486190795898427
 30
-22.09502792358399
 70
   192
  0
VERTEX
  5
4F
  8
DESENHO_NATU
 10
0.2444314956665004
 20
-5.423976898193342
 30
-22.57634735107423
 70
   192
  0
VERTEX
  5
50
  8
DESENHO_NATU
 10
23.07684707641602
 20
-5.423973083496083
 30
-22.57634735107423
 70
   192
  0
VERTEX
  5
51
  8
DESENHO_NATU
 10
0.2444314956665004
 20
-5.372749328613278
 30
-23.03556442260742
 70
   192
  0
VERTEX
  5
52
  8
DESENHO_NATU
 10
23.07684707641602
 20
-5.372749328613278
 30
-23.03556442260742
 70
   192
  0
VERTEX
  5
53
  8
DESENHO_NATU
 10
0.2444314956665004
 20
-5.332511901855452
 30
-23.47268104553223
 70
   192
  0
VERTEX
  5
54
  8
DESENHO_NATU
 10
23.07684707641602
 20
-5.332511901855452
 30
-23.47268104553223
 70
   192
  0
VERTEX
  5
55
  8
DESENHO_NATU
 10
0.2444314956665004
 20
-5.197639465332028
 30
-25.1268196105957
 70
   192
  0
VERTEX
  5
56
  8
DESENHO_NATU
 10
23.07684707641602
 20
-5.197639465332028
 30
-25.1268196105957
 70
   192
  0
VERTEX
  5
57
  8
DESENHO_NATU
 10
23.07684707641602
 20
-5.161220550537091
 30
-25.58054161071778
 70
   192
  0
VERTEX
  5
58
  8
DESENHO_NATU
 10
0.2444314956665004
 20
-5.161220550537091
 30
-25.58054351806641
 70
   192
  0
VERTEX
  5
279
  8
DESENHO_NATU
 10
23.07684707641602
 20
-5.125637054443341
 30
-26.03808975219727
 70
   192
  0
VERTEX
  5
27A
  8
DESENHO_NATU
 10
0.2444314956665004
 20
-5.125637054443341
 30
-26.03809165954591
 70
   192
  0
VERTEX
  5
5B
  8
DESENHO_NATU
 10
23.07684707641602
 20
-5.090892791748035
 30
-26.49946403503419
 70
   192
  0
VERTEX
  5
5C
  8
DESENHO_NATU
 10
0.2444314956665004
 20
-5.090892791748035
 30
-26.49946594238281
 70
   192
  0
VERTEX
  5
5D
  8
DESENHO_NATU
 10
0.2444314956665004
 20
-5.056983947753895
 30
-26.96466445922852
 70
   192
  0
VERTEX
  5
27B
  8
DESENHO_NATU
 10
23.07684707641602
 20
-5.056983947753895
 30
-26.96466445922852
 70
   192
  0
VERTEX
  5
5F
  8
DESENHO_NATU
 10
23.07684707641602
 20
-4.940460205078113
 30
-28.58995819091798
 70
   192
  0
VERTEX
  5
60
  8
DESENHO_NATU
 10
0.2444314956665004
 20
-4.940460205078113
 30
-28.58996009826661
 70
   192
  0
VERTEX
  5
61
  8
DESENHO_NATU
 10
0.2444314956665004
 20
-4.902992248535145
 30
-29.12836456298829
 70
   192
  0
VERTEX
  5
62
  8
DESENHO_NATU
 10
23.07684707641602
 20
-4.902992248535145
 30
-29.12836456298829
 70
   192
  0
VERTEX
  5
63
  8
DESENHO_NATU
 10
0.2444314956665004
 20
-4.885116577148426
 30
-29.62586975097656
 70
   192
  0
VERTEX
  5
64
  8
DESENHO_NATU
 10
23.07684707641602
 20
-4.885116577148426
 30
-29.62586975097656
 70
   192
  0
VERTEX
  5
65
  8
DESENHO_NATU
 10
0.2444314956665004
 20
-4.886833190917951
 30
-30.08247756958008
 70
   192
  0
VERTEX
  5
66
  8
DESENHO_NATU
 10
23.07684707641602
 20
-4.886833190917951
 30
-30.08247756958008
 70
   192
  0
VERTEX
  5
67
  8
DESENHO_NATU
 10
23.07684707641602
 20
-4.90814208984373
 30
-30.49818420410156
 70
   192
  0
VERTEX
  5
68
  8
DESENHO_NATU
 10
0.2444314956665004
 20
-4.90814208984373
 30
-30.4981861114502
 70
   192
  0
VERTEX
  5
69
  8
DESENHO_NATU
 10
0.2444314956665004
 20
-5.028911590576159
 30
-32.03271865844727
 70
   192
  0
VERTEX
  5
6A
  8
DESENHO_NATU
 10
23.07684707641602
 20
-5.028911590576159
 30
-32.03271865844727
 70
   192
  0
VERTEX
  5
27C
  8
DESENHO_NATU
 10
0.2444314956665004
 20
-5.072387695312495
 30
-32.51540374755861
 70
   192
  0
VERTEX
  5
27D
  8
DESENHO_NATU
 10
23.07684707641602
 20
-5.072387695312495
 30
-32.51540374755861
 70
   192
  0
VERTEX
  5
6D
  8
DESENHO_NATU
 10
23.07684707641602
 20
-5.126258850097644
 30
-32.99056625366211
 70
   192
  0
VERTEX
  5
6E
  8
DESENHO_NATU
 10
0.2444314956665004
 20
-5.126258850097644
 30
-32.99056816101074
 70
   192
  0
VERTEX
  5
6F
  8
DESENHO_NATU
 10
23.07684707641602
 20
-5.19051742553709
 30
-33.45820808410645
 70
   192
  0
VERTEX
  5
70
  8
DESENHO_NATU
 10
0.2444314956665004
 20
-5.19051742553709
 30
-33.45820999145508
 70
   192
  0
VERTEX
  5
71
  8
DESENHO_NATU
 10
0.2444314956665004
 20
-5.265167236328113
 30
-33.91832733154297
 70
   192
  0
VERTEX
  5
72
  8
DESENHO_NATU
 10
23.07684707641602
 20
-5.265167236328113
 30
-33.91832733154297
 70
   192
  0
VERTEX
  5
27E
  8
DESENHO_NATU
 10
0.2444314956665004
 20
-5.815204620361315
 30
-37.0621223449707
 70
   192
  0
VERTEX
  5
27F
  8
DESENHO_NATU
 10
23.07684707641602
 20
-5.815204620361315
 30
-37.0621223449707
 70
   192
  0
VERTEX
  5
280
  8
DESENHO_NATU
 10
0.2444314956665004
 20
-7.545417785644524
 30
-43.30652618408203
 70
   192
  0
VERTEX
  5
281
  8
DESENHO_NATU
 10
23.07684707641602
 20
-7.545417785644524
 30
-43.30652999877931
 70
   192
  0
VERTEX
  5
77
  8
DESENHO_NATU
 10
0.0
 20
0.0
 30
0.0
 70
   128
 71
     9
 72
    10
 73
    12
 74
    11
  0
VERTEX
  5
78
  8
DESENHO_NATU
 10
0.0
 20
0.0
 30
0.0
 70
   128
 71
    57
 72
    58
 73
    56
 74
    55
  0
VERTEX
  5
79
  8
DESENHO_NATU
 10
0.0
 20
0.0
 30
0.0
 70
   128
 71
     6
 72
     4
 73
     7
 74
     8
  0
VERTEX
  5
7A
  8
DESENHO_NATU
 10
0.0
 20
0.0
 30
0.0
 70
   128
 71
     8
 72
     7
 73
    10
 74
     9
  0
VERTEX
  5
7B
  8
DESENHO_NATU
 10
0.0
 20
0.0
 30
0.0
 70
   128
 71
    14
 72
    13
 73
    11
 74
    12
  0
VERTEX
  5
7C
  8
DESENHO_NATU
 10
0.0
 20
0.0
 30
0.0
 70
   128
 71
     5
 72
     2
 73
     1
 74
     3
  0
VERTEX
  5
7D
  8
DESENHO_NATU
 10
0.0
 20
0.0
 30
0.0
 70
   128
 71
    55
 72
    56
 73
    54
 74
    53
  0
VERTEX
  5
7E
  8
DESENHO_NATU
 10
0.0
 20
0.0
 30
0.0
 70
   128
 71
    45
 72
    46
 73
    43
 74
    44
  0
VERTEX
  5
7F
  8
DESENHO_NATU
 10
0.0
 20
0.0
 30
0.0
 70
   128
 71
    34
 72
    33
 73
    36
 74
    35
  0
VERTEX
  5
80
  8
DESENHO_NATU
 10
0.0
 20
0.0
 30
0.0
 70
   128
 71
    24
 72
    23
 73
    25
 74
    26
  0
VERTEX
  5
81
  8
DESENHO_NATU
 10
0.0
 20
0.0
 30
0.0
 70
   128
 71
    13
 72
    14
 73
    16
 74
    15
  0
VERTEX
  5
82
  8
DESENHO_NATU
 10
0.0
 20
0.0
 30
0.0
 70
   128
 71
    21
 72
    23
 73
    24
 74
    22
  0
VERTEX
  5
83
  8
DESENHO_NATU
 10
0.0
 20
0.0
 30
0.0
 70
   128
 71
    38
 72
    35
 73
    36
 74
    37
  0
VERTEX
  5
84
  8
DESENHO_NATU
 10
0.0
 20
0.0
 30
0.0
 70
   128
 71
    48
 72
    46
 73
    45
 74
    47
  0
VERTEX
  5
85
  8
DESENHO_NATU
 10
0.0
 20
0.0
 30
0.0
 70
   128
 71
    32
 72
    33
 73
    34
 74
    31
  0
VERTEX
  5
86
  8
DESENHO_NATU
 10
0.0
 20
0.0
 30
0.0
 70
   128
 71
    19
 72
    21
 73
    22
 74
    20
  0
VERTEX
  5
87
  8
DESENHO_NATU
 10
0.0
 20
0.0
 30
0.0
 70
   128
 71
    17
 72
    19
 73
    20
 74
    18
  0
VERTEX
  5
88
  8
DESENHO_NATU
 10
0.0
 20
0.0
 30
0.0
 70
   128
 71
    16
 72
    17
 73
    18
 74
    15
  0
VERTEX
  5
89
  8
DESENHO_NATU
 10
0.0
 20
0.0
 30
0.0
 70
   128
 71
    40
 72
    38
 73
    37
 74
    39
  0
VERTEX
  5
8A
  8
DESENHO_NATU
 10
0.0
 20
0.0
 30
0.0
 70
   128
 71
    42
 72
    40
 73
    39
 74
    41
  0
VERTEX
  5
8B
  8
DESENHO_NATU
 10
0.0
 20
0.0
 30
0.0
 70
   128
 71
    43
 72
    42
 73
    41
 74
    44
  0
VERTEX
  5
8C
  8
DESENHO_NATU
 10
0.0
 20
0.0
 30
0.0
 70
   128
 71
    49
 72
    48
 73
    47
 74
    50
  0
VERTEX
  5
8D
  8
DESENHO_NATU
 10
0.0
 20
0.0
 30
0.0
 70
   128
 71
    51
 72
    49
 73
    50
 74
    52
  0
VERTEX
  5
8E
  8
DESENHO_NATU
 10
0.0
 20
0.0
 30
0.0
 70
   128
 71
    54
 72
    51
 73
    52
 74
    53
  0
VERTEX
  5
8F
  8
DESENHO_NATU
 10
0.0
 20
0.0
 30
0.0
 70
   128
 71
    30
 72
    32
 73
    31
 74
    29
  0
VERTEX
  5
90
  8
DESENHO_NATU
 10
0.0
 20
0.0
 30
0.0
 70
   128
 71
    28
 72
    30
 73
    29
 74
    27
  0
VERTEX
  5
91
  8
DESENHO_NATU
 10
0.0
 20
0.0
 30
0.0
 70
   128
 71
    25
 72
    28
 73
    27
 74
    26
  0
SEQEND
  5
322
  8
DESENHO_NATU
  0
POLYLINE
  5
94
  8
METAL
 66
     1
 10
0.0
 20
0.0
 30
0.0
 70
    64
 71
    24
 72
     6
  0
VERTEX
  5
95
  8
METAL
 10
16.013916015625
 20
0.0
 30
-5.089184999465942
 70
   192
  0
VERTEX
  5
96
  8
METAL
 10
-16.01137733459473
 20
0.0
 30
-5.089184999465942
 70
   192
  0
VERTEX
  5
283
  8
METAL
 10
-16.01137733459473
 20
-0.0000000000000013
 30
1.971037864685059
 70
   192
  0
VERTEX
  5
284
  8
METAL
 10
16.013916015625
 20
-0.0000000000000013
 30
1.971037864685059
 70
   192
  0
VERTEX
  5
99
  8
METAL
 10
16.013916015625
 20
-1.915096282958977
 30
-5.089184999465942
 70
   192
  0
VERTEX
  5
9A
  8
METAL
 10
16.013916015625
 20
-1.915096282958978
 30
1.971037864685051
 70
   192
  0
VERTEX
  5
9B
  8
METAL
 10
-16.01137733459473
 20
-1.915096282958978
 30
1.971037864685051
 70
   192
  0
VERTEX
  5
9C
  8
METAL
 10
-16.01137733459473
 20
-1.915096282958977
 30
-5.089184999465942
 70
   192
  0
VERTEX
  5
9D
  8
METAL
 10
16.013916015625
 20
0.0
 30
-5.089184999465942
 70
   192
  0
VERTEX
  5
9E
  8
METAL
 10
16.013916015625
 20
-0.0000000000000013
 30
1.971037864685059
 70
   192
  0
VERTEX
  5
9F
  8
METAL
 10
16.013916015625
 20
-1.915096282958978
 30
1.971037864685051
 70
   192
  0
VERTEX
  5
A0
  8
METAL
 10
16.013916015625
 20
-1.915096282958977
 30
-5.089184999465942
 70
   192
  0
VERTEX
  5
A1
  8
METAL
 10
16.013916015625
 20
-0.0000000000000013
 30
1.971037864685059
 70
   192
  0
VERTEX
  5
A2
  8
METAL
 10
-16.01137733459473
 20
-0.0000000000000013
 30
1.971037864685059
 70
   192
  0
VERTEX
  5
A3
  8
METAL
 10
-16.01137733459473
 20
-1.915096282958978
 30
1.971037864685051
 70
   192
  0
VERTEX
  5
A4
  8
METAL
 10
16.013916015625
 20
-1.915096282958978
 30
1.971037864685051
 70
   192
  0
VERTEX
  5
A5
  8
METAL
 10
-16.01137733459473
 20
-0.0000000000000013
 30
1.971037864685059
 70
   192
  0
VERTEX
  5
A6
  8
METAL
 10
-16.01137733459473
 20
0.0
 30
-5.089184999465942
 70
   192
  0
VERTEX
  5
A7
  8
METAL
 10
-16.01137733459473
 20
-1.915096282958977
 30
-5.089184999465942
 70
   192
  0
VERTEX
  5
A8
  8
METAL
 10
-16.01137733459473
 20
-1.915096282958978
 30
1.971037864685051
 70
   192
  0
VERTEX
  5
A9
  8
METAL
 10
-16.01137733459473
 20
0.0
 30
-5.089184999465942
 70
   192
  0
VERTEX
  5
AA
  8
METAL
 10
16.013916015625
 20
0.0
 30
-5.089184999465942
 70
   192
  0
VERTEX
  5
AB
  8
METAL
 10
16.013916015625
 20
-1.915096282958977
 30
-5.089184999465942
 70
   192
  0
VERTEX
  5
AC
  8
METAL
 10
-16.01137733459473
 20
-1.915096282958977
 30
-5.089184999465942
 70
   192
  0
VERTEX
  5
AD
  8
METAL
 10
0.0
 20
0.0
 30
0.0
 70
   128
 71
     1
 72
     2
 73
     3
 74
     4
  0
VERTEX
  5
AE
  8
METAL
 10
0.0
 20
0.0
 30
0.0
 70
   128
 71
     5
 72
     6
 73
     7
 74
     8
  0
VERTEX
  5
AF
  8
METAL
 10
0.0
 20
0.0
 30
0.0
 70
   128
 71
     9
 72
    10
 73
    11
 74
    12
  0
VERTEX
  5
B0
  8
METAL
 10
0.0
 20
0.0
 30
0.0
 70
   128
 71
    13
 72
    14
 73
    15
 74
    16
  0
VERTEX
  5
B1
  8
METAL
 10
0.0
 20
0.0
 30
0.0
 70
   128
 71
    17
 72
    18
 73
    19
 74
    20
  0
VERTEX
  5
B2
  8
METAL
 10
0.0
 20
0.0
 30
0.0
 70
   128
 71
    21
 72
    22
 73
    23
 74
    24
  0
SEQEND
  5
323
  8
METAL
  0
POLYLINE
  5
B4
  8
METAL
 66
     1
 10
0.0
 20
0.0
 30
0.0
 70
    64
 71
   301
 72
   137
  0
VERTEX
  5
B5
  8
METAL
 10
-26.0
 20
-4.860248565673823
 30
5.971453666687012
 70
   192
  0
VERTEX
  5
B6
  8
METAL
 10
-26.0
 20
-4.860248565673823
 30
5.971453666687012
 70
   192
  0
VERTEX
  5
B7
  8
METAL
 10
-26.0
 20
-4.860248565673823
 30
5.971453666687012
 70
   192
  0
VERTEX
  5
B8
  8
METAL
 10
26.07237243652344
 20
-4.860248565673823
 30
5.971453666686998
 70
   192
  0
VERTEX
  5
B9
  8
METAL
 10
26.07237243652344
 20
-4.860248565673823
 30
5.971453666686998
 70
   192
  0
VERTEX
  5
BA
  8
METAL
 10
-26.0
 20
-3.766525268554682
 30
5.878726005554199
 70
   192
  0
VERTEX
  5
BB
  8
METAL
 10
-26.0
 20
-3.766525268554682
 30
5.878726005554199
 70
   192
  0
VERTEX
  5
BC
  8
METAL
 10
-26.0
 20
-3.766525268554682
 30
5.878726005554199
 70
   192
  0
VERTEX
  5
BD
  8
METAL
 10
26.07237243652344
 20
-3.766525268554682
 30
5.878726005554192
 70
   192
  0
VERTEX
  5
BE
  8
METAL
 10
26.07237243652344
 20
-3.766525268554682
 30
5.878726005554192
 70
   192
  0
VERTEX
  5
BF
  8
METAL
 10
26.07237243652344
 20
-3.766525268554682
 30
5.878726005554192
 70
   192
  0
VERTEX
  5
C0
  8
METAL
 10
-26.0
 20
-6.006450653076167
 30
5.808114051818848
 70
   192
  0
VERTEX
  5
C1
  8
METAL
 10
-26.0
 20
-6.006450653076167
 30
5.808114051818848
 70
   192
  0
VERTEX
  5
C2
  8
METAL
 10
-26.0
 20
-6.006450653076167
 30
5.808114051818848
 70
   192
  0
VERTEX
  5
C3
  8
METAL
 10
26.07237243652344
 20
-6.006450653076167
 30
5.808114051818848
 70
   192
  0
VERTEX
  5
C4
  8
METAL
 10
26.07237243652344
 20
-6.006450653076167
 30
5.808114051818848
 70
   192
  0
VERTEX
  5
C5
  8
METAL
 10
26.07237243652344
 20
-6.006450653076167
 30
5.808114051818848
 70
   192
  0
VERTEX
  5
C6
  8
METAL
 10
-26.0
 20
-3.348682403564448
 30
5.600544929504387
 70
   192
  0
VERTEX
  5
C7
  8
METAL
 10
-26.0
 20
-3.348682403564448
 30
5.600544929504387
 70
   192
  0
VERTEX
  5
C8
  8
METAL
 10
-26.0
 20
-3.348682403564448
 30
5.600544929504387
 70
   192
  0
VERTEX
  5
C9
  8
METAL
 10
26.07237243652344
 20
-3.348682403564448
 30
5.600544929504387
 70
   192
  0
VERTEX
  5
CA
  8
METAL
 10
26.07237243652344
 20
-3.348682403564448
 30
5.600544929504387
 70
   192
  0
VERTEX
  5
CB
  8
METAL
 10
26.07237243652344
 20
-3.348682403564448
 30
5.600544929504387
 70
   192
  0
VERTEX
  5
CC
  8
METAL
 10
-26.0
 20
-6.831275939941401
 30
5.318095207214363
 70
   192
  0
VERTEX
  5
CD
  8
METAL
 10
-26.0
 20
-6.831275939941401
 30
5.318095207214363
 70
   192
  0
VERTEX
  5
CE
  8
METAL
 10
-26.0
 20
-6.831275939941401
 30
5.318095207214363
 70
   192
  0
VERTEX
  5
CF
  8
METAL
 10
26.07237243652344
 20
-6.831275939941401
 30
5.318095207214363
 70
   192
  0
VERTEX
  5
D0
  8
METAL
 10
26.07237243652344
 20
-6.831275939941401
 30
5.318095207214363
 70
   192
  0
VERTEX
  5
D1
  8
METAL
 10
26.07237243652344
 20
-6.831275939941401
 30
5.318095207214363
 70
   192
  0
VERTEX
  5
D2
  8
METAL
 10
-26.0
 20
-3.054309844970698
 30
5.136910438537598
 70
   192
  0
VERTEX
  5
D3
  8
METAL
 10
-26.0
 20
-3.054309844970698
 30
5.136910438537598
 70
   192
  0
VERTEX
  5
D4
  8
METAL
 10
-26.0
 20
-3.054309844970698
 30
5.136910438537598
 70
   192
  0
VERTEX
  5
D5
  8
METAL
 10
26.07237243652344
 20
-3.054309844970698
 30
5.136910438537598
 70
   192
  0
VERTEX
  5
D6
  8
METAL
 10
26.07237243652344
 20
-3.054309844970698
 30
5.136910438537598
 70
   192
  0
VERTEX
  5
D7
  8
METAL
 10
26.07237243652344
 20
-3.054309844970698
 30
5.136910438537598
 70
   192
  0
VERTEX
  5
D8
  8
METAL
 10
-26.0
 20
-7.334716796875002
 30
4.501395225524902
 70
   192
  0
VERTEX
  5
D9
  8
METAL
 10
-26.0
 20
-7.334716796875002
 30
4.501395225524902
 70
   192
  0
VERTEX
  5
DA
  8
METAL
 10
-26.0
 20
-7.334716796875002
 30
4.501395225524902
 70
   192
  0
VERTEX
  5
DB
  8
METAL
 10
26.07237243652344
 20
-7.334716796875002
 30
4.501395225524888
 70
   192
  0
VERTEX
  5
DC
  8
METAL
 10
26.07237243652344
 20
-7.334716796875002
 30
4.501395225524888
 70
   192
  0
VERTEX
  5
DD
  8
METAL
 10
26.07237243652344
 20
-7.334716796875002
 30
4.501395225524888
 70
   192
  0
VERTEX
  5
DE
  8
METAL
 10
-26.0
 20
-7.516780853271478
 30
3.358017921447747
 70
   192
  0
VERTEX
  5
DF
  8
METAL
 10
-26.0
 20
-7.516780853271478
 30
3.358017921447747
 70
   192
  0
VERTEX
  5
E0
  8
METAL
 10
-26.0
 20
-7.516780853271478
 30
3.358017921447747
 70
   192
  0
VERTEX
  5
E1
  8
METAL
 10
26.07237243652344
 20
-7.516780853271478
 30
3.358017921447747
 70
   192
  0
VERTEX
  5
E2
  8
METAL
 10
26.07237243652344
 20
-7.516780853271478
 30
3.358017921447747
 70
   192
  0
VERTEX
  5
E3
  8
METAL
 10
26.07237243652344
 20
-7.516780853271478
 30
3.358017921447747
 70
   192
  0
VERTEX
  5
E4
  8
METAL
 10
-26.0
 20
-7.559783935546869
 30
0.7289018630981374
 70
   192
  0
VERTEX
  5
E5
  8
METAL
 10
-26.0
 20
-7.559783935546869
 30
0.7289018630981374
 70
   192
  0
VERTEX
  5
E6
  8
METAL
 10
-26.0
 20
-1.21112442016601
 30
0.7289018630981374
 70
   192
  0
VERTEX
  5
E7
  8
METAL
 10
-26.0
 20
-1.21112442016601
 30
0.7289018630981374
 70
   192
  0
VERTEX
  5
E8
  8
METAL
 10
26.07237243652344
 20
-7.559783935546869
 30
0.7289018630981374
 70
   192
  0
VERTEX
  5
E9
  8
METAL
 10
26.07237243652344
 20
-7.559783935546869
 30
0.7289018630981374
 70
   192
  0
VERTEX
  5
EA
  8
METAL
 10
26.07237243652344
 20
-1.21112442016601
 30
0.7289018630981374
 70
   192
  0
VERTEX
  5
EB
  8
METAL
 10
26.07237243652344
 20
-1.21112442016601
 30
0.7289018630981374
 70
   192
  0
VERTEX
  5
EC
  8
METAL
 10
-26.0
 20
-0.4283294677734305
 30
-4.513649940490723
 70
   192
  0
VERTEX
  5
ED
  8
METAL
 10
-26.0
 20
-0.4283294677734305
 30
-4.513649940490723
 70
   192
  0
VERTEX
  5
EE
  8
METAL
 10
26.07237243652344
 20
-7.407123565673821
 30
-4.513649940490723
 70
   192
  0
VERTEX
  5
EF
  8
METAL
 10
26.07237243652344
 20
-7.407123565673821
 30
-4.513649940490723
 70
   192
  0
VERTEX
  5
F0
  8
METAL
 10
-26.0
 20
-7.407123565673821
 30
-4.513650894165053
 70
   192
  0
VERTEX
  5
F1
  8
METAL
 10
-26.0
 20
-7.407123565673821
 30
-4.513650894165053
 70
   192
  0
VERTEX
  5
F2
  8
METAL
 10
26.07237243652344
 20
-0.4283256530761649
 30
-4.513650894165053
 70
   192
  0
VERTEX
  5
F3
  8
METAL
 10
26.07237243652344
 20
-0.4283256530761649
 30
-4.513650894165053
 70
   192
  0
VERTEX
  5
F4
  8
METAL
 10
-26.0
 20
-0.6161994934081951
 30
-9.75620192289353
 70
   192
  0
VERTEX
  5
F5
  8
METAL
 10
-26.0
 20
-0.6161994934081951
 30
-9.75620192289353
 70
   192
  0
VERTEX
  5
F6
  8
METAL
 10
26.07237243652344
 20
-7.040855407714836
 30
-9.75620192289353
 70
   192
  0
VERTEX
  5
F7
  8
METAL
 10
26.07237243652344
 20
-7.040855407714836
 30
-9.75620192289353
 70
   192
  0
VERTEX
  5
F8
  8
METAL
 10
-26.0
 20
-7.040855407714836
 30
-9.75620293617249
 70
   192
  0
VERTEX
  5
F9
  8
METAL
 10
-26.0
 20
-7.040855407714836
 30
-9.75620293617249
 70
   192
  0
VERTEX
  5
FA
  8
METAL
 10
26.07237243652344
 20
-0.6161994934081951
 30
-9.75620394945145
 70
   192
  0
VERTEX
  5
FB
  8
METAL
 10
26.07237243652344
 20
-0.6161994934081951
 30
-9.75620394945145
 70
   192
  0
VERTEX
  5
FC
  8
METAL
 10
-26.0
 20
-1.430820465087889
 30
-14.99875402450562
 70
   192
  0
VERTEX
  5
FD
  8
METAL
 10
-26.0
 20
-1.430820465087889
 30
-14.99875402450562
 70
   192
  0
VERTEX
  5
FE
  8
METAL
 10
26.07237243652344
 20
-6.486293792724593
 30
-14.99875402450562
 70
   192
  0
VERTEX
  5
FF
  8
METAL
 10
26.07237243652344
 20
-6.486293792724593
 30
-14.99875402450562
 70
   192
  0
VERTEX
  5
100
  8
METAL
 10
-26.0
 20
-6.486293792724593
 30
-14.99875593185426
 70
   192
  0
VERTEX
  5
101
  8
METAL
 10
-26.0
 20
-6.486293792724593
 30
-14.99875593185426
 70
   192
  0
VERTEX
  5
102
  8
METAL
 10
26.07237243652344
 20
-1.430820465087889
 30
-14.99875593185426
 70
   192
  0
VERTEX
  5
103
  8
METAL
 10
26.07237243652344
 20
-1.430820465087889
 30
-14.99875593185426
 70
   192
  0
VERTEX
  5
104
  8
METAL
 10
-26.0
 20
-2.162109374999997
 30
-21.59160709381104
 70
   192
  0
VERTEX
  5
105
  8
METAL
 10
-26.0
 20
-2.162109374999997
 30
-21.59160709381104
 70
   192
  0
VERTEX
  5
106
  8
METAL
 10
26.07237243652344
 20
-5.477703094482411
 30
-21.59160709381104
 70
   192
  0
VERTEX
  5
107
  8
METAL
 10
26.07237243652344
 20
-5.477703094482411
 30
-21.59160709381104
 70
   192
  0
VERTEX
  5
108
  8
METAL
 10
-26.0
 20
-5.477703094482411
 30
-21.59160804748535
 70
   192
  0
VERTEX
  5
109
  8
METAL
 10
-26.0
 20
-5.477703094482411
 30
-21.59160804748535
 70
   192
  0
VERTEX
  5
10A
  8
METAL
 10
26.07237243652344
 20
-2.162109374999997
 30
-21.59160804748535
 70
   192
  0
VERTEX
  5
10B
  8
METAL
 10
26.07237243652344
 20
-2.162109374999997
 30
-21.59160804748535
 70
   192
  0
VERTEX
  5
10C
  8
METAL
 10
-26.0
 20
-5.404495239257802
 30
-22.09502792358399
 70
   192
  0
VERTEX
  5
10D
  8
METAL
 10
-26.0
 20
-5.404495239257802
 30
-22.09502792358399
 70
   192
  0
VERTEX
  5
10E
  8
METAL
 10
-26.0
 20
-2.922241210937497
 30
-22.09502792358399
 70
   192
  0
VERTEX
  5
10F
  8
METAL
 10
-26.0
 20
-2.922241210937497
 30
-22.09502792358399
 70
   192
  0
VERTEX
  5
110
  8
METAL
 10
26.07237243652344
 20
-5.404495239257802
 30
-22.09502792358399
 70
   192
  0
VERTEX
  5
111
  8
METAL
 10
26.07237243652344
 20
-5.404495239257802
 30
-22.09502792358399
 70
   192
  0
VERTEX
  5
112
  8
METAL
 10
26.07237243652344
 20
-2.922241210937497
 30
-22.09502792358399
 70
   192
  0
VERTEX
  5
113
  8
METAL
 10
26.07237243652344
 20
-2.922241210937497
 30
-22.09502792358399
 70
   192
  0
VERTEX
  5
114
  8
METAL
 10
-26.0
 20
-5.342277526855452
 30
-22.57634735107423
 70
   192
  0
VERTEX
  5
115
  8
METAL
 10
-26.0
 20
-5.342277526855452
 30
-22.57634735107423
 70
   192
  0
VERTEX
  5
116
  8
METAL
 10
-26.0
 20
-3.201160430908193
 30
-22.57634735107423
 70
   192
  0
VERTEX
  5
117
  8
METAL
 10
-26.0
 20
-3.201160430908193
 30
-22.57634735107423
 70
   192
  0
VERTEX
  5
118
  8
METAL
 10
26.07237243652344
 20
-5.342273712158192
 30
-22.57634735107423
 70
   192
  0
VERTEX
  5
119
  8
METAL
 10
26.07237243652344
 20
-5.342273712158192
 30
-22.57634735107423
 70
   192
  0
VERTEX
  5
11A
  8
METAL
 10
26.07237243652344
 20
-3.201160430908193
 30
-22.57634735107423
 70
   192
  0
VERTEX
  5
11B
  8
METAL
 10
26.07237243652344
 20
-3.201160430908193
 30
-22.57634735107423
 70
   192
  0
VERTEX
  5
11C
  8
METAL
 10
-26.0
 20
-5.291049957275387
 30
-23.03556442260742
 70
   192
  0
VERTEX
  5
11D
  8
METAL
 10
-26.0
 20
-5.291049957275387
 30
-23.03556442260742
 70
   192
  0
VERTEX
  5
11E
  8
METAL
 10
-26.0
 20
-2.998870849609365
 30
-23.03556442260742
 70
   192
  0
VERTEX
  5
11F
  8
METAL
 10
-26.0
 20
-2.998870849609365
 30
-23.03556442260742
 70
   192
  0
VERTEX
  5
120
  8
METAL
 10
26.07237243652344
 20
-5.291046142578114
 30
-23.03556442260742
 70
   192
  0
VERTEX
  5
121
  8
METAL
 10
26.07237243652344
 20
-5.291046142578114
 30
-23.03556442260742
 70
   192
  0
VERTEX
  5
122
  8
METAL
 10
26.07237243652344
 20
-2.998870849609365
 30
-23.03556442260742
 70
   192
  0
VERTEX
  5
123
  8
METAL
 10
26.07237243652344
 20
-2.998870849609365
 30
-23.03556442260742
 70
   192
  0
VERTEX
  5
124
  8
METAL
 10
-26.0
 20
-5.250812530517567
 30
-23.47268104553223
 70
   192
  0
VERTEX
  5
125
  8
METAL
 10
-26.0
 20
-5.250812530517567
 30
-23.47268104553223
 70
   192
  0
VERTEX
  5
126
  8
METAL
 10
-26.0
 20
-2.315364837646474
 30
-23.47268104553223
 70
   192
  0
VERTEX
  5
127
  8
METAL
 10
-26.0
 20
-2.315364837646474
 30
-23.47268104553223
 70
   192
  0
VERTEX
  5
128
  8
METAL
 10
26.07237243652344
 20
-5.250812530517567
 30
-23.47268104553223
 70
   192
  0
VERTEX
  5
129
  8
METAL
 10
26.07237243652344
 20
-5.250812530517567
 30
-23.47268104553223
 70
   192
  0
VERTEX
  5
12A
  8
METAL
 10
26.07237243652344
 20
-2.315364837646474
 30
-23.47268104553223
 70
   192
  0
VERTEX
  5
12B
  8
METAL
 10
26.07237243652344
 20
-2.315364837646474
 30
-23.47268104553223
 70
   192
  0
VERTEX
  5
12C
  8
METAL
 10
-26.0
 20
-5.115940093994137
 30
-25.1268196105957
 70
   192
  0
VERTEX
  5
12D
  8
METAL
 10
-26.0
 20
-5.115940093994137
 30
-25.1268196105957
 70
   192
  0
VERTEX
  5
12E
  8
METAL
 10
-26.0
 20
-2.391311645507801
 30
-25.1268196105957
 70
   192
  0
VERTEX
  5
12F
  8
METAL
 10
-26.0
 20
-2.391311645507801
 30
-25.1268196105957
 70
   192
  0
VERTEX
  5
130
  8
METAL
 10
26.07237243652344
 20
-5.115940093994137
 30
-25.1268196105957
 70
   192
  0
VERTEX
  5
131
  8
METAL
 10
26.07237243652344
 20
-5.115940093994137
 30
-25.1268196105957
 70
   192
  0
VERTEX
  5
132
  8
METAL
 10
26.07237243652344
 20
-2.391311645507801
 30
-25.1268196105957
 70
   192
  0
VERTEX
  5
133
  8
METAL
 10
26.07237243652344
 20
-2.391311645507801
 30
-25.1268196105957
 70
   192
  0
VERTEX
  5
134
  8
METAL
 10
-26.0
 20
-3.119575500488277
 30
-25.58054161071778
 70
   192
  0
VERTEX
  5
135
  8
METAL
 10
-26.0
 20
-3.119575500488277
 30
-25.58054161071778
 70
   192
  0
VERTEX
  5
136
  8
METAL
 10
26.07237243652344
 20
-5.079521179199201
 30
-25.58054161071778
 70
   192
  0
VERTEX
  5
137
  8
METAL
 10
26.07237243652344
 20
-5.079521179199201
 30
-25.58054161071778
 70
   192
  0
VERTEX
  5
138
  8
METAL
 10
-26.0
 20
-5.079521179199201
 30
-25.58054351806641
 70
   192
  0
VERTEX
  5
139
  8
METAL
 10
-26.0
 20
-5.079521179199201
 30
-25.58054351806641
 70
   192
  0
VERTEX
  5
13A
  8
METAL
 10
26.07237243652344
 20
-3.119575500488277
 30
-25.58054351806641
 70
   192
  0
VERTEX
  5
13B
  8
METAL
 10
26.07237243652344
 20
-3.119575500488277
 30
-25.58054351806641
 70
   192
  0
VERTEX
  5
13C
  8
METAL
 10
-26.0
 20
-3.375530242919912
 30
-26.03808975219727
 70
   192
  0
VERTEX
  5
13D
  8
METAL
 10
-26.0
 20
-3.375530242919912
 30
-26.03808975219727
 70
   192
  0
VERTEX
  5
13E
  8
METAL
 10
26.07237243652344
 20
-5.043937683105451
 30
-26.03808975219727
 70
   192
  0
VERTEX
  5
13F
  8
METAL
 10
26.07237243652344
 20
-5.043937683105451
 30
-26.03808975219727
 70
   192
  0
VERTEX
  5
140
  8
METAL
 10
-26.0
 20
-5.043937683105451
 30
-26.03809165954591
 70
   192
  0
VERTEX
  5
141
  8
METAL
 10
-26.0
 20
-5.043937683105451
 30
-26.03809165954591
 70
   192
  0
VERTEX
  5
142
  8
METAL
 10
26.07237243652344
 20
-3.375530242919912
 30
-26.03809165954591
 70
   192
  0
VERTEX
  5
143
  8
METAL
 10
26.07237243652344
 20
-3.375530242919912
 30
-26.03809165954591
 70
   192
  0
VERTEX
  5
144
  8
METAL
 10
-26.0
 20
-3.159175872802723
 30
-26.49946403503419
 70
   192
  0
VERTEX
  5
145
  8
METAL
 10
-26.0
 20
-3.159175872802723
 30
-26.49946403503419
 70
   192
  0
VERTEX
  5
146
  8
METAL
 10
26.07237243652344
 20
-5.009193420410145
 30
-26.49946403503419
 70
   192
  0
VERTEX
  5
147
  8
METAL
 10
26.07237243652344
 20
-5.009193420410145
 30
-26.49946403503419
 70
   192
  0
VERTEX
  5
148
  8
METAL
 10
-26.0
 20
-5.009193420410145
 30
-26.49946594238281
 70
   192
  0
VERTEX
  5
149
  8
METAL
 10
-26.0
 20
-5.009193420410145
 30
-26.49946594238281
 70
   192
  0
VERTEX
  5
14A
  8
METAL
 10
26.07237243652344
 20
-3.159175872802723
 30
-26.49946594238281
 70
   192
  0
VERTEX
  5
14B
  8
METAL
 10
26.07237243652344
 20
-3.159175872802723
 30
-26.49946594238281
 70
   192
  0
VERTEX
  5
14C
  8
METAL
 10
-26.0
 20
-4.975284576416005
 30
-26.96466445922852
 70
   192
  0
VERTEX
  5
14D
  8
METAL
 10
-26.0
 20
-4.975284576416005
 30
-26.96466445922852
 70
   192
  0
VERTEX
  5
14E
  8
METAL
 10
-26.0
 20
-2.470516204833973
 30
-26.96466445922852
 70
   192
  0
VERTEX
  5
14F
  8
METAL
 10
-26.0
 20
-2.470516204833973
 30
-26.96466445922852
 70
   192
  0
VERTEX
  5
150
  8
METAL
 10
26.07237243652344
 20
-4.975284576416005
 30
-26.96466445922852
 70
   192
  0
VERTEX
  5
151
  8
METAL
 10
26.07237243652344
 20
-4.975284576416005
 30
-26.96466445922852
 70
   192
  0
VERTEX
  5
152
  8
METAL
 10
26.07237243652344
 20
-2.470512390136701
 30
-26.96466445922852
 70
   192
  0
VERTEX
  5
153
  8
METAL
 10
26.07237243652344
 20
-2.470512390136701
 30
-26.96466445922852
 70
   192
  0
VERTEX
  5
154
  8
METAL
 10
-26.0
 20
-2.536128997802723
 30
-28.58995819091798
 70
   192
  0
VERTEX
  5
155
  8
METAL
 10
-26.0
 20
-2.536128997802723
 30
-28.58995819091798
 70
   192
  0
VERTEX
  5
156
  8
METAL
 10
26.07237243652344
 20
-4.858760833740223
 30
-28.58995819091798
 70
   192
  0
VERTEX
  5
157
  8
METAL
 10
26.07237243652344
 20
-4.858760833740223
 30
-28.58995819091798
 70
   192
  0
VERTEX
  5
158
  8
METAL
 10
-26.0
 20
-4.858760833740223
 30
-28.58996009826661
 70
   192
  0
VERTEX
  5
159
  8
METAL
 10
-26.0
 20
-4.858760833740223
 30
-28.58996009826661
 70
   192
  0
VERTEX
  5
15A
  8
METAL
 10
26.07237243652344
 20
-2.536128997802723
 30
-28.58996009826661
 70
   192
  0
VERTEX
  5
15B
  8
METAL
 10
26.07237243652344
 20
-2.536128997802723
 30
-28.58996009826661
 70
   192
  0
VERTEX
  5
15C
  8
METAL
 10
-26.0
 20
-4.821292877197255
 30
-29.12836456298829
 70
   192
  0
VERTEX
  5
15D
  8
METAL
 10
-26.0
 20
-4.821292877197255
 30
-29.12836456298829
 70
   192
  0
VERTEX
  5
15E
  8
METAL
 10
-26.0
 20
-3.266712188720692
 30
-29.12836456298829
 70
   192
  0
VERTEX
  5
15F
  8
METAL
 10
-26.0
 20
-3.266712188720692
 30
-29.12836456298829
 70
   192
  0
VERTEX
  5
160
  8
METAL
 10
26.07237243652344
 20
-4.821292877197255
 30
-29.12836456298829
 70
   192
  0
VERTEX
  5
161
  8
METAL
 10
26.07237243652344
 20
-4.821292877197255
 30
-29.12836456298829
 70
   192
  0
VERTEX
  5
162
  8
METAL
 10
26.07237243652344
 20
-3.266712188720692
 30
-29.12836456298829
 70
   192
  0
VERTEX
  5
163
  8
METAL
 10
26.07237243652344
 20
-3.266712188720692
 30
-29.12836456298829
 70
   192
  0
VERTEX
  5
164
  8
METAL
 10
-26.0
 20
-4.803417205810535
 30
-29.62586975097656
 70
   192
  0
VERTEX
  5
165
  8
METAL
 10
-26.0
 20
-4.803417205810535
 30
-29.62586975097656
 70
   192
  0
VERTEX
  5
166
  8
METAL
 10
-26.0
 20
-3.517887115478505
 30
-29.62586975097656
 70
   192
  0
VERTEX
  5
167
  8
METAL
 10
-26.0
 20
-3.517887115478505
 30
-29.62586975097656
 70
   192
  0
VERTEX
  5
168
  8
METAL
 10
26.07237243652344
 20
-4.803417205810535
 30
-29.62586975097656
 70
   192
  0
VERTEX
  5
169
  8
METAL
 10
26.07237243652344
 20
-4.803417205810535
 30
-29.62586975097656
 70
   192
  0
VERTEX
  5
16A
  8
METAL
 10
26.07237243652344
 20
-3.517887115478505
 30
-29.62586975097656
 70
   192
  0
VERTEX
  5
16B
  8
METAL
 10
26.07237243652344
 20
-3.517887115478505
 30
-29.62586975097656
 70
   192
  0
VERTEX
  5
16C
  8
METAL
 10
-26.0
 20
-4.805133819580067
 30
-30.08247756958008
 70
   192
  0
VERTEX
  5
16D
  8
METAL
 10
-26.0
 20
-4.805133819580067
 30
-30.08247756958008
 70
   192
  0
VERTEX
  5
16E
  8
METAL
 10
-26.0
 20
-3.289649963378895
 30
-30.08247756958008
 70
   192
  0
VERTEX
  5
16F
  8
METAL
 10
-26.0
 20
-3.289649963378895
 30
-30.08247756958008
 70
   192
  0
VERTEX
  5
170
  8
METAL
 10
26.07237243652344
 20
-4.805133819580067
 30
-30.08247756958008
 70
   192
  0
VERTEX
  5
171
  8
METAL
 10
26.07237243652344
 20
-4.805133819580067
 30
-30.08247756958008
 70
   192
  0
VERTEX
  5
172
  8
METAL
 10
26.07237243652344
 20
-3.289649963378895
 30
-30.08247756958008
 70
   192
  0
VERTEX
  5
173
  8
METAL
 10
26.07237243652344
 20
-3.289649963378895
 30
-30.08247756958008
 70
   192
  0
VERTEX
  5
174
  8
METAL
 10
-26.0
 20
-2.582008361816395
 30
-30.49818420410156
 70
   192
  0
VERTEX
  5
175
  8
METAL
 10
-26.0
 20
-2.582008361816395
 30
-30.49818420410156
 70
   192
  0
VERTEX
  5
176
  8
METAL
 10
26.07237243652344
 20
-4.82644271850584
 30
-30.49818420410156
 70
   192
  0
VERTEX
  5
177
  8
METAL
 10
26.07237243652344
 20
-4.82644271850584
 30
-30.49818420410156
 70
   192
  0
VERTEX
  5
178
  8
METAL
 10
-26.0
 20
-4.82644271850584
 30
-30.4981861114502
 70
   192
  0
VERTEX
  5
179
  8
METAL
 10
-26.0
 20
-4.82644271850584
 30
-30.4981861114502
 70
   192
  0
VERTEX
  5
17A
  8
METAL
 10
26.07237243652344
 20
-2.582004547119137
 30
-30.4981861114502
 70
   192
  0
VERTEX
  5
17B
  8
METAL
 10
26.07237243652344
 20
-2.582004547119137
 30
-30.4981861114502
 70
   192
  0
VERTEX
  5
17C
  8
METAL
 10
-26.0
 20
-4.947212219238276
 30
-32.03271865844727
 70
   192
  0
VERTEX
  5
17D
  8
METAL
 10
-26.0
 20
-4.947212219238276
 30
-32.03271865844727
 70
   192
  0
VERTEX
  5
17E
  8
METAL
 10
-26.0
 20
-2.567733764648425
 30
-32.03271865844727
 70
   192
  0
VERTEX
  5
17F
  8
METAL
 10
-26.0
 20
-2.567733764648425
 30
-32.03271865844727
 70
   192
  0
VERTEX
  5
180
  8
METAL
 10
26.07237243652344
 20
-4.947212219238276
 30
-32.03271865844727
 70
   192
  0
VERTEX
  5
181
  8
METAL
 10
26.07237243652344
 20
-4.947212219238276
 30
-32.03271865844727
 70
   192
  0
VERTEX
  5
182
  8
METAL
 10
26.07237243652344
 20
-2.567733764648425
 30
-32.03271865844727
 70
   192
  0
VERTEX
  5
183
  8
METAL
 10
26.07237243652344
 20
-2.567733764648425
 30
-32.03271865844727
 70
   192
  0
VERTEX
  5
184
  8
METAL
 10
-26.0
 20
-4.99068832397459
 30
-32.51540374755861
 70
   192
  0
VERTEX
  5
185
  8
METAL
 10
-26.0
 20
-4.99068832397459
 30
-32.51540374755861
 70
   192
  0
VERTEX
  5
186
  8
METAL
 10
-26.0
 20
-3.270210266113276
 30
-32.51540374755861
 70
   192
  0
VERTEX
  5
187
  8
METAL
 10
-26.0
 20
-3.270210266113276
 30
-32.51540374755861
 70
   192
  0
VERTEX
  5
188
  8
METAL
 10
26.07237243652344
 20
-4.99068832397459
 30
-32.51540374755861
 70
   192
  0
VERTEX
  5
189
  8
METAL
 10
26.07237243652344
 20
-4.99068832397459
 30
-32.51540374755861
 70
   192
  0
VERTEX
  5
18A
  8
METAL
 10
26.07237243652344
 20
-3.270210266113276
 30
-32.51540374755861
 70
   192
  0
VERTEX
  5
18B
  8
METAL
 10
26.07237243652344
 20
-3.270210266113276
 30
-32.51540374755861
 70
   192
  0
VERTEX
  5
18C
  8
METAL
 10
-26.0
 20
-3.499340057373035
 30
-32.99056625366211
 70
   192
  0
VERTEX
  5
18D
  8
METAL
 10
-26.0
 20
-3.499340057373035
 30
-32.99056625366211
 70
   192
  0
VERTEX
  5
18E
  8
METAL
 10
26.07237243652344
 20
-5.044555664062495
 30
-32.99056625366211
 70
   192
  0
VERTEX
  5
18F
  8
METAL
 10
26.07237243652344
 20
-5.044555664062495
 30
-32.99056625366211
 70
   192
  0
VERTEX
  5
190
  8
METAL
 10
-26.0
 20
-5.044555664062495
 30
-32.99056816101074
 70
   192
  0
VERTEX
  5
191
  8
METAL
 10
-26.0
 20
-5.044555664062495
 30
-32.99056816101074
 70
   192
  0
VERTEX
  5
192
  8
METAL
 10
26.07237243652344
 20
-3.499340057373035
 30
-32.99056816101074
 70
   192
  0
VERTEX
  5
193
  8
METAL
 10
26.07237243652344
 20
-3.499340057373035
 30
-32.99056816101074
 70
   192
  0
VERTEX
  5
194
  8
METAL
 10
-26.0
 20
-3.25511932373045
 30
-33.45820808410645
 70
   192
  0
VERTEX
  5
195
  8
METAL
 10
-26.0
 20
-3.25511932373045
 30
-33.45820808410645
 70
   192
  0
VERTEX
  5
196
  8
METAL
 10
26.07237243652344
 20
-5.1088180541992
 30
-33.45820808410645
 70
   192
  0
VERTEX
  5
197
  8
METAL
 10
26.07237243652344
 20
-5.1088180541992
 30
-33.45820808410645
 70
   192
  0
VERTEX
  5
198
  8
METAL
 10
-26.0
 20
-5.1088180541992
 30
-33.45820999145508
 70
   192
  0
VERTEX
  5
199
  8
METAL
 10
-26.0
 20
-5.1088180541992
 30
-33.45820999145508
 70
   192
  0
VERTEX
  5
19A
  8
METAL
 10
26.07237243652344
 20
-3.25511932373045
 30
-33.45820999145508
 70
   192
  0
VERTEX
  5
19B
  8
METAL
 10
26.07237243652344
 20
-3.25511932373045
 30
-33.45820999145508
 70
   192
  0
VERTEX
  5
19C
  8
METAL
 10
-26.0
 20
-5.18346405029295
 30
-33.91832733154297
 70
   192
  0
VERTEX
  5
19D
  8
METAL
 10
-26.0
 20
-5.18346405029295
 30
-33.91832733154297
 70
   192
  0
VERTEX
  5
19E
  8
METAL
 10
-26.0
 20
-2.5375518798828
 30
-33.91832733154297
 70
   192
  0
VERTEX
  5
19F
  8
METAL
 10
-26.0
 20
-2.5375518798828
 30
-33.91832733154297
 70
   192
  0
VERTEX
  5
1A0
  8
METAL
 10
26.07237243652344
 20
-5.18346405029295
 30
-33.91832733154297
 70
   192
  0
VERTEX
  5
1A1
  8
METAL
 10
26.07237243652344
 20
-5.18346405029295
 30
-33.91832733154297
 70
   192
  0
VERTEX
  5
1A2
  8
METAL
 10
26.07237243652344
 20
-2.5375518798828
 30
-33.91832733154297
 70
   192
  0
VERTEX
  5
1A3
  8
METAL
 10
26.07237243652344
 20
-2.5375518798828
 30
-33.91832733154297
 70
   192
  0
VERTEX
  5
1A4
  8
METAL
 10
-26.0
 20
-5.733505249023424
 30
-37.0621223449707
 70
   192
  0
VERTEX
  5
1A5
  8
METAL
 10
-26.0
 20
-5.733505249023424
 30
-37.0621223449707
 70
   192
  0
VERTEX
  5
1A6
  8
METAL
 10
-26.0
 20
-2.464752197265612
 30
-37.0621223449707
 70
   192
  0
VERTEX
  5
1A7
  8
METAL
 10
-26.0
 20
-2.464752197265612
 30
-37.0621223449707
 70
   192
  0
VERTEX
  5
1A8
  8
METAL
 10
26.07237243652344
 20
-5.733505249023424
 30
-37.0621223449707
 70
   192
  0
VERTEX
  5
1A9
  8
METAL
 10
26.07237243652344
 20
-5.733505249023424
 30
-37.0621223449707
 70
   192
  0
VERTEX
  5
1AA
  8
METAL
 10
26.07237243652344
 20
-2.464752197265612
 30
-37.0621223449707
 70
   192
  0
VERTEX
  5
1AB
  8
METAL
 10
26.07237243652344
 20
-2.464752197265612
 30
-37.0621223449707
 70
   192
  0
VERTEX
  5
1AC
  8
METAL
 10
-26.0
 20
-2.630916595458971
 30
-39.14041900634766
 70
   192
  0
VERTEX
  5
1AD
  8
METAL
 10
-26.0
 20
-2.630916595458971
 30
-39.14041900634766
 70
   192
  0
VERTEX
  5
1AE
  8
METAL
 10
-26.0
 20
-2.630916595458971
 30
-39.14041900634766
 70
   192
  0
VERTEX
  5
1AF
  8
METAL
 10
26.07237243652344
 20
-2.630916595458971
 30
-39.14041900634766
 70
   192
  0
VERTEX
  5
1B0
  8
METAL
 10
26.07237243652344
 20
-2.630916595458971
 30
-39.14041900634766
 70
   192
  0
VERTEX
  5
1B1
  8
METAL
 10
26.07237243652344
 20
-2.630916595458971
 30
-39.14041900634766
 70
   192
  0
VERTEX
  5
1B2
  8
METAL
 10
-26.0
 20
-3.110847473144525
 30
-40.64235687255861
 70
   192
  0
VERTEX
  5
1B3
  8
METAL
 10
-26.0
 20
-3.110847473144525
 30
-40.64235687255861
 70
   192
  0
VERTEX
  5
1B4
  8
METAL
 10
-26.0
 20
-3.110847473144525
 30
-40.64235687255861
 70
   192
  0
VERTEX
  5
1B5
  8
METAL
 10
26.07237243652344
 20
-3.110847473144525
 30
-40.64235687255861
 70
   192
  0
VERTEX
  5
1B6
  8
METAL
 10
26.07237243652344
 20
-3.110847473144525
 30
-40.64235687255861
 70
   192
  0
VERTEX
  5
1B7
  8
METAL
 10
26.07237243652344
 20
-3.110847473144525
 30
-40.64235687255861
 70
   192
  0
VERTEX
  5
1B8
  8
METAL
 10
-26.0
 20
-4.212799072265611
 30
-42.33331298828125
 70
   192
  0
VERTEX
  5
1B9
  8
METAL
 10
-26.0
 20
-4.212799072265611
 30
-42.33331298828125
 70
   192
  0
VERTEX
  5
1BA
  8
METAL
 10
-26.0
 20
-4.212799072265611
 30
-42.33331298828125
 70
   192
  0
VERTEX
  5
1BB
  8
METAL
 10
26.07237243652344
 20
-4.212799072265611
 30
-42.33331298828125
 70
   192
  0
VERTEX
  5
1BC
  8
METAL
 10
26.07237243652344
 20
-4.212799072265611
 30
-42.33331298828125
 70
   192
  0
VERTEX
  5
1BD
  8
METAL
 10
26.07237243652344
 20
-4.212799072265611
 30
-42.33331298828125
 70
   192
  0
VERTEX
  5
1BE
  8
METAL
 10
-26.0
 20
-7.463718414306634
 30
-43.3065299987793
 70
   192
  0
VERTEX
  5
1BF
  8
METAL
 10
-26.0
 20
-7.463718414306634
 30
-43.3065299987793
 70
   192
  0
VERTEX
  5
1C0
  8
METAL
 10
-26.0
 20
-7.463718414306634
 30
-43.3065299987793
 70
   192
  0
VERTEX
  5
1C1
  8
METAL
 10
26.07237243652344
 20
-7.463714599609361
 30
-43.30652999877931
 70
   192
  0
VERTEX
  5
1C2
  8
METAL
 10
26.07237243652344
 20
-7.463714599609361
 30
-43.30652999877931
 70
   192
  0
VERTEX
  5
1C3
  8
METAL
 10
26.07237243652344
 20
-7.463714599609361
 30
-43.30652999877931
 70
   192
  0
VERTEX
  5
1C4
  8
METAL
 10
-26.0
 20
-5.73296737670897
 30
-43.4921226501465
 70
   192
  0
VERTEX
  5
1C5
  8
METAL
 10
-26.0
 20
-5.73296737670897
 30
-43.4921226501465
 70
   192
  0
VERTEX
  5
1C6
  8
METAL
 10
-26.0
 20
-5.73296737670897
 30
-43.4921226501465
 70
   192
  0
VERTEX
  5
1C7
  8
METAL
 10
26.07237243652344
 20
-5.73296737670897
 30
-43.4921226501465
 70
   192
  0
VERTEX
  5
1C8
  8
METAL
 10
26.07237243652344
 20
-5.73296737670897
 30
-43.4921226501465
 70
   192
  0
VERTEX
  5
1C9
  8
METAL
 10
26.07237243652344
 20
-5.73296737670897
 30
-43.4921226501465
 70
   192
  0
VERTEX
  5
1CA
  8
METAL
 10
-26.0
 20
-7.514781951904283
 30
-43.664852142334
 70
   192
  0
VERTEX
  5
1CB
  8
METAL
 10
-26.0
 20
-7.514781951904283
 30
-43.664852142334
 70
   192
  0
VERTEX
  5
1CC
  8
METAL
 10
-26.0
 20
-7.514781951904283
 30
-43.664852142334
 70
   192
  0
VERTEX
  5
1CD
  8
METAL
 10
26.07237243652344
 20
-7.514781951904283
 30
-43.664852142334
 70
   192
  0
VERTEX
  5
1CE
  8
METAL
 10
26.07237243652344
 20
-7.514781951904283
 30
-43.664852142334
 70
   192
  0
VERTEX
  5
1CF
  8
METAL
 10
26.07237243652344
 20
-7.514781951904283
 30
-43.664852142334
 70
   192
  0
VERTEX
  5
1D0
  8
METAL
 10
-26.0
 20
-7.428424835205064
 30
-43.89601135253906
 70
   192
  0
VERTEX
  5
1D1
  8
METAL
 10
-26.0
 20
-7.428424835205064
 30
-43.89601135253906
 70
   192
  0
VERTEX
  5
1D2
  8
METAL
 10
-26.0
 20
-7.428424835205064
 30
-43.89601135253906
 70
   192
  0
VERTEX
  5
1D3
  8
METAL
 10
26.07237243652344
 20
-7.428421020507798
 30
-43.89601135253906
 70
   192
  0
VERTEX
  5
1D4
  8
METAL
 10
26.07237243652344
 20
-7.428421020507798
 30
-43.89601135253906
 70
   192
  0
VERTEX
  5
1D5
  8
METAL
 10
26.07237243652344
 20
-7.428421020507798
 30
-43.89601135253906
 70
   192
  0
VERTEX
  5
1D6
  8
METAL
 10
-26.0
 20
-6.843444824218729
 30
-43.97682571411133
 70
   192
  0
VERTEX
  5
1D7
  8
METAL
 10
-26.0
 20
-6.843444824218729
 30
-43.97682571411133
 70
   192
  0
VERTEX
  5
1D8
  8
METAL
 10
-26.0
 20
-6.843444824218729
 30
-43.97682571411133
 70
   192
  0
VERTEX
  5
1D9
  8
METAL
 10
26.07237243652344
 20
-6.84344100952147
 30
-43.97682571411134
 70
   192
  0
VERTEX
  5
1DA
  8
METAL
 10
26.07237243652344
 20
-6.84344100952147
 30
-43.97682571411134
 70
   192
  0
VERTEX
  5
1DB
  8
METAL
 10
26.07237243652344
 20
-6.84344100952147
 30
-43.97682571411134
 70
   192
  0
VERTEX
  5
1DC
  8
METAL
 10
-26.0
 20
-7.204643249511698
 30
-44.0
 70
   192
  0
VERTEX
  5
1DD
  8
METAL
 10
-26.0
 20
-7.204643249511698
 30
-44.0
 70
   192
  0
VERTEX
  5
1DE
  8
METAL
 10
-26.0
 20
-7.204643249511698
 30
-44.0
 70
   192
  0
VERTEX
  5
1DF
  8
METAL
 10
26.07237243652344
 20
-7.204643249511698
 30
-44.0
 70
   192
  0
VERTEX
  5
1E0
  8
METAL
 10
26.07237243652344
 20
-7.204643249511698
 30
-44.0
 70
   192
  0
VERTEX
  5
1E1
  8
METAL
 10
26.07237243652344
 20
-7.204643249511698
 30
-44.0
 70
   192
  0
VERTEX
  5
1E2
  8
METAL
 10
0.0
 20
0.0
 30
0.0
 70
   128
 71
    56
 72
    62
 73
    71
 74
    65
  0
VERTEX
  5
1E3
  8
METAL
 10
0.0
 20
0.0
 30
0.0
 70
   128
 71
   252
 72
   249
 73
   243
 74
   247
  0
VERTEX
  5
1E4
  8
METAL
 10
0.0
 20
0.0
 30
0.0
 70
   128
 71
    59
 72
    61
 73
    69
 74
    67
  0
VERTEX
  5
1E5
  8
METAL
 10
0.0
 20
0.0
 30
0.0
 70
   128
 71
   266
 72
   269
 73
   244
 74
   240
  0
VERTEX
  5
1E6
  8
METAL
 10
0.0
 20
0.0
 30
0.0
 70
   128
 71
    63
 72
    58
 73
    66
 74
    70
  0
VERTEX
  5
1E7
  8
METAL
 10
0.0
 20
0.0
 30
0.0
 70
   128
 71
   245
 72
   251
 73
   246
 74
   246
  0
VERTEX
  5
1E8
  8
METAL
 10
0.0
 20
0.0
 30
0.0
 70
   128
 71
   242
 72
   248
 73
   241
 74
   241
  0
VERTEX
  5
1E9
  8
METAL
 10
0.0
 20
0.0
 30
0.0
 70
   128
 71
    68
 72
    60
 73
    57
 74
    64
  0
VERTEX
  5
1EA
  8
METAL
 10
0.0
 20
0.0
 30
0.0
 70
   128
 71
    31
 72
    34
 73
    54
 74
    50
  0
VERTEX
  5
1EB
  8
METAL
 10
0.0
 20
0.0
 30
0.0
 70
   128
 71
    50
 72
    54
 73
    62
 74
    56
  0
VERTEX
  5
1EC
  8
METAL
 10
0.0
 20
0.0
 30
0.0
 70
   128
 71
    79
 72
    73
 73
    65
 74
    71
  0
VERTEX
  5
1ED
  8
METAL
 10
0.0
 20
0.0
 30
0.0
 70
   128
 71
    46
 72
    43
 73
    49
 74
    53
  0
VERTEX
  5
1EE
  8
METAL
 10
0.0
 20
0.0
 30
0.0
 70
   128
 71
    53
 72
    49
 73
    61
 74
    59
  0
VERTEX
  5
1EF
  8
METAL
 10
0.0
 20
0.0
 30
0.0
 70
   128
 71
    77
 72
    75
 73
    67
 74
    69
  0
VERTEX
  5
1F0
  8
METAL
 10
0.0
 20
0.0
 30
0.0
 70
   128
 71
    35
 72
    47
 73
    52
 74
    55
  0
VERTEX
  5
1F1
  8
METAL
 10
0.0
 20
0.0
 30
0.0
 70
   128
 71
    55
 72
    52
 73
    58
 74
    63
  0
VERTEX
  5
1F2
  8
METAL
 10
0.0
 20
0.0
 30
0.0
 70
   128
 71
    74
 72
    78
 73
    70
 74
    66
  0
VERTEX
  5
1F3
  8
METAL
 10
0.0
 20
0.0
 30
0.0
 70
   128
 71
    48
 72
    44
 73
    32
 74
    51
  0
VERTEX
  5
1F4
  8
METAL
 10
0.0
 20
0.0
 30
0.0
 70
   128
 71
    60
 72
    48
 73
    51
 74
    57
  0
VERTEX
  5
1F5
  8
METAL
 10
0.0
 20
0.0
 30
0.0
 70
   128
 71
    64
 72
    72
 73
    76
 74
    68
  0
VERTEX
  5
1F6
  8
METAL
 10
0.0
 20
0.0
 30
0.0
 70
   128
 71
   255
 72
   250
 73
   253
 74
   258
  0
VERTEX
  5
1F7
  8
METAL
 10
0.0
 20
0.0
 30
0.0
 70
   128
 71
   261
 72
   256
 73
   259
 74
   264
  0
VERTEX
  5
1F8
  8
METAL
 10
0.0
 20
0.0
 30
0.0
 70
   128
 71
   273
 72
   262
 73
   265
 74
   276
  0
VERTEX
  5
1F9
  8
METAL
 10
0.0
 20
0.0
 30
0.0
 70
   128
 71
   277
 72
   294
 73
   291
 74
   274
  0
VERTEX
  5
1FA
  8
METAL
 10
0.0
 20
0.0
 30
0.0
 70
   128
 71
   281
 72
   270
 73
   267
 74
   278
  0
VERTEX
  5
1FB
  8
METAL
 10
0.0
 20
0.0
 30
0.0
 70
   128
 71
   288
 72
   283
 73
   280
 74
   285
  0
VERTEX
  5
1FC
  8
METAL
 10
0.0
 20
0.0
 30
0.0
 70
   128
 71
   300
 72
   289
 73
   286
 74
   297
  0
VERTEX
  5
1FD
  8
METAL
 10
0.0
 20
0.0
 30
0.0
 70
   128
 71
   295
 72
   301
 73
   298
 74
   292
  0
VERTEX
  5
1FE
  8
METAL
 10
0.0
 20
0.0
 30
0.0
 70
   128
 71
    15
 72
     4
 73
     2
 74
    12
  0
VERTEX
  5
1FF
  8
METAL
 10
0.0
 20
0.0
 30
0.0
 70
   128
 71
    27
 72
    16
 73
    13
 74
    24
  0
VERTEX
  5
200
  8
METAL
 10
0.0
 20
0.0
 30
0.0
 70
   128
 71
    39
 72
    28
 73
    25
 74
    36
  0
VERTEX
  5
201
  8
METAL
 10
0.0
 20
0.0
 30
0.0
 70
   128
 71
    45
 72
    40
 73
    37
 74
    42
  0
VERTEX
  5
202
  8
METAL
 10
0.0
 20
0.0
 30
0.0
 70
   128
 71
    18
 72
     7
 73
     9
 74
    21
  0
VERTEX
  5
203
  8
METAL
 10
0.0
 20
0.0
 30
0.0
 70
   128
 71
    30
 72
    19
 73
    22
 74
    33
  0
VERTEX
  5
204
  8
METAL
 10
0.0
 20
0.0
 30
0.0
 70
   128
 71
   247
 72
   243
 73
   234
 74
   238
  0
VERTEX
  5
205
  8
METAL
 10
0.0
 20
0.0
 30
0.0
 70
   128
 71
   240
 72
   244
 73
   236
 74
   232
  0
VERTEX
  5
206
  8
METAL
 10
0.0
 20
0.0
 30
0.0
 70
   128
 71
   237
 72
   245
 73
   246
 74
   239
  0
VERTEX
  5
207
  8
METAL
 10
0.0
 20
0.0
 30
0.0
 70
   128
 71
   242
 72
   241
 73
   233
 74
   235
  0
VERTEX
  5
208
  8
METAL
 10
0.0
 20
0.0
 30
0.0
 70
   128
 71
   207
 72
   203
 73
   192
 74
   198
  0
VERTEX
  5
209
  8
METAL
 10
0.0
 20
0.0
 30
0.0
 70
   128
 71
   200
 72
   204
 73
   194
 74
   196
  0
VERTEX
  5
20A
  8
METAL
 10
0.0
 20
0.0
 30
0.0
 70
   128
 71
   195
 72
   205
 73
   206
 74
   199
  0
VERTEX
  5
20B
  8
METAL
 10
0.0
 20
0.0
 30
0.0
 70
   128
 71
   202
 72
   201
 73
   197
 74
   193
  0
VERTEX
  5
20C
  8
METAL
 10
0.0
 20
0.0
 30
0.0
 70
   128
 71
   154
 72
   158
 73
   167
 74
   161
  0
VERTEX
  5
20D
  8
METAL
 10
0.0
 20
0.0
 30
0.0
 70
   128
 71
   157
 72
   153
 73
   165
 74
   163
  0
VERTEX
  5
20E
  8
METAL
 10
0.0
 20
0.0
 30
0.0
 70
   128
 71
   159
 72
   156
 73
   162
 74
   166
  0
VERTEX
  5
20F
  8
METAL
 10
0.0
 20
0.0
 30
0.0
 70
   128
 71
   155
 72
   160
 73
   164
 74
   152
  0
VERTEX
  5
210
  8
METAL
 10
0.0
 20
0.0
 30
0.0
 70
   128
 71
   114
 72
   118
 73
   127
 74
   123
  0
VERTEX
  5
211
  8
METAL
 10
0.0
 20
0.0
 30
0.0
 70
   128
 71
   117
 72
   113
 73
   121
 74
   125
  0
VERTEX
  5
212
  8
METAL
 10
0.0
 20
0.0
 30
0.0
 70
   128
 71
   119
 72
   116
 73
   124
 74
   126
  0
VERTEX
  5
213
  8
METAL
 10
0.0
 20
0.0
 30
0.0
 70
   128
 71
   115
 72
   122
 73
   120
 74
   112
  0
VERTEX
  5
214
  8
METAL
 10
0.0
 20
0.0
 30
0.0
 70
   128
 71
    73
 72
    79
 73
    87
 74
    81
  0
VERTEX
  5
215
  8
METAL
 10
0.0
 20
0.0
 30
0.0
 70
   128
 71
    75
 72
    77
 73
    85
 74
    83
  0
VERTEX
  5
216
  8
METAL
 10
0.0
 20
0.0
 30
0.0
 70
   128
 71
    78
 72
    74
 73
    82
 74
    86
  0
VERTEX
  5
217
  8
METAL
 10
0.0
 20
0.0
 30
0.0
 70
   128
 71
    84
 72
    76
 73
    72
 74
    80
  0
VERTEX
  5
218
  8
METAL
 10
0.0
 20
0.0
 30
0.0
 70
   128
 71
   110
 72
   118
 73
   114
 74
   106
  0
VERTEX
  5
219
  8
METAL
 10
0.0
 20
0.0
 30
0.0
 70
   128
 71
   171
 72
   161
 73
   167
 74
   175
  0
VERTEX
  5
21A
  8
METAL
 10
0.0
 20
0.0
 30
0.0
 70
   128
 71
   105
 72
   113
 73
   117
 74
   109
  0
VERTEX
  5
21B
  8
METAL
 10
0.0
 20
0.0
 30
0.0
 70
   128
 71
   173
 72
   163
 73
   165
 74
   169
  0
VERTEX
  5
21C
  8
METAL
 10
0.0
 20
0.0
 30
0.0
 70
   128
 71
   108
 72
   116
 73
   119
 74
   111
  0
VERTEX
  5
21D
  8
METAL
 10
0.0
 20
0.0
 30
0.0
 70
   128
 71
   174
 72
   166
 73
   162
 74
   172
  0
VERTEX
  5
21E
  8
METAL
 10
0.0
 20
0.0
 30
0.0
 70
   128
 71
   168
 72
   164
 73
   160
 74
   170
  0
VERTEX
  5
21F
  8
METAL
 10
0.0
 20
0.0
 30
0.0
 70
   128
 71
   107
 72
   115
 73
   112
 74
   104
  0
VERTEX
  5
220
  8
METAL
 10
0.0
 20
0.0
 30
0.0
 70
   128
 71
   211
 72
   203
 73
   207
 74
   215
  0
VERTEX
  5
221
  8
METAL
 10
0.0
 20
0.0
 30
0.0
 70
   128
 71
   212
 72
   204
 73
   200
 74
   208
  0
VERTEX
  5
222
  8
METAL
 10
0.0
 20
0.0
 30
0.0
 70
   128
 71
   214
 72
   206
 73
   205
 74
   213
  0
VERTEX
  5
223
  8
METAL
 10
0.0
 20
0.0
 30
0.0
 70
   128
 71
   209
 72
   201
 73
   202
 74
   210
  0
VERTEX
  5
224
  8
METAL
 10
0.0
 20
0.0
 30
0.0
 70
   128
 71
   150
 72
   158
 73
   154
 74
   144
  0
VERTEX
  5
225
  8
METAL
 10
0.0
 20
0.0
 30
0.0
 70
   128
 71
   149
 72
   153
 73
   157
 74
   147
  0
VERTEX
  5
226
  8
METAL
 10
0.0
 20
0.0
 30
0.0
 70
   128
 71
   146
 72
   156
 73
   159
 74
   151
  0
VERTEX
  5
227
  8
METAL
 10
0.0
 20
0.0
 30
0.0
 70
   128
 71
   132
 72
   120
 73
   122
 74
   128
  0
VERTEX
  5
228
  8
METAL
 10
0.0
 20
0.0
 30
0.0
 70
   128
 71
   103
 72
   110
 73
   106
 74
    99
  0
VERTEX
  5
229
  8
METAL
 10
0.0
 20
0.0
 30
0.0
 70
   128
 71
    95
 72
   103
 73
    99
 74
    91
  0
VERTEX
  5
22A
  8
METAL
 10
0.0
 20
0.0
 30
0.0
 70
   128
 71
    87
 72
    95
 73
    91
 74
    81
  0
VERTEX
  5
22B
  8
METAL
 10
0.0
 20
0.0
 30
0.0
 70
   128
 71
   179
 72
   171
 73
   175
 74
   183
  0
VERTEX
  5
22C
  8
METAL
 10
0.0
 20
0.0
 30
0.0
 70
   128
 71
   186
 72
   179
 73
   183
 74
   190
  0
VERTEX
  5
22D
  8
METAL
 10
0.0
 20
0.0
 30
0.0
 70
   128
 71
   192
 72
   186
 73
   190
 74
   198
  0
VERTEX
  5
22E
  8
METAL
 10
0.0
 20
0.0
 30
0.0
 70
   128
 71
    97
 72
   105
 73
   109
 74
   101
  0
VERTEX
  5
22F
  8
METAL
 10
0.0
 20
0.0
 30
0.0
 70
   128
 71
    89
 72
    97
 73
   101
 74
    93
  0
VERTEX
  5
230
  8
METAL
 10
0.0
 20
0.0
 30
0.0
 70
   128
 71
    85
 72
    89
 73
    93
 74
    83
  0
VERTEX
  5
231
  8
METAL
 10
0.0
 20
0.0
 30
0.0
 70
   128
 71
   181
 72
   173
 73
   169
 74
   177
  0
VERTEX
  5
232
  8
METAL
 10
0.0
 20
0.0
 30
0.0
 70
   128
 71
   188
 72
   181
 73
   177
 74
   184
  0
VERTEX
  5
233
  8
METAL
 10
0.0
 20
0.0
 30
0.0
 70
   128
 71
   194
 72
   188
 73
   184
 74
   196
  0
VERTEX
  5
234
  8
METAL
 10
0.0
 20
0.0
 30
0.0
 70
   128
 71
   100
 72
   108
 73
   111
 74
   102
  0
VERTEX
  5
235
  8
METAL
 10
0.0
 20
0.0
 30
0.0
 70
   128
 71
    92
 72
   100
 73
   102
 74
    94
  0
VERTEX
  5
236
  8
METAL
 10
0.0
 20
0.0
 30
0.0
 70
   128
 71
    82
 72
    92
 73
    94
 74
    86
  0
VERTEX
  5
237
  8
METAL
 10
0.0
 20
0.0
 30
0.0
 70
   128
 71
   182
 72
   174
 73
   172
 74
   180
  0
VERTEX
  5
238
  8
METAL
 10
0.0
 20
0.0
 30
0.0
 70
   128
 71
   191
 72
   182
 73
   180
 74
   189
  0
VERTEX
  5
239
  8
METAL
 10
0.0
 20
0.0
 30
0.0
 70
   128
 71
   199
 72
   191
 73
   189
 74
   195
  0
VERTEX
  5
23A
  8
METAL
 10
0.0
 20
0.0
 30
0.0
 70
   128
 71
   176
 72
   168
 73
   170
 74
   178
  0
VERTEX
  5
23B
  8
METAL
 10
0.0
 20
0.0
 30
0.0
 70
   128
 71
   185
 72
   176
 73
   178
 74
   187
  0
VERTEX
  5
23C
  8
METAL
 10
0.0
 20
0.0
 30
0.0
 70
   128
 71
   197
 72
   185
 73
   187
 74
   193
  0
VERTEX
  5
23D
  8
METAL
 10
0.0
 20
0.0
 30
0.0
 70
   128
 71
    98
 72
   107
 73
   104
 74
    96
  0
VERTEX
  5
23E
  8
METAL
 10
0.0
 20
0.0
 30
0.0
 70
   128
 71
    90
 72
    98
 73
    96
 74
    88
  0
VERTEX
  5
23F
  8
METAL
 10
0.0
 20
0.0
 30
0.0
 70
   128
 71
    80
 72
    90
 73
    88
 74
    84
  0
VERTEX
  5
240
  8
METAL
 10
0.0
 20
0.0
 30
0.0
 70
   128
 71
   216
 72
   211
 73
   215
 74
   222
  0
VERTEX
  5
241
  8
METAL
 10
0.0
 20
0.0
 30
0.0
 70
   128
 71
   224
 72
   216
 73
   222
 74
   230
  0
VERTEX
  5
242
  8
METAL
 10
0.0
 20
0.0
 30
0.0
 70
   128
 71
   234
 72
   224
 73
   230
 74
   238
  0
VERTEX
  5
243
  8
METAL
 10
0.0
 20
0.0
 30
0.0
 70
   128
 71
   218
 72
   212
 73
   208
 74
   220
  0
VERTEX
  5
244
  8
METAL
 10
0.0
 20
0.0
 30
0.0
 70
   128
 71
   226
 72
   218
 73
   220
 74
   228
  0
VERTEX
  5
245
  8
METAL
 10
0.0
 20
0.0
 30
0.0
 70
   128
 71
   236
 72
   226
 73
   228
 74
   232
  0
VERTEX
  5
246
  8
METAL
 10
0.0
 20
0.0
 30
0.0
 70
   128
 71
   223
 72
   214
 73
   213
 74
   219
  0
VERTEX
  5
247
  8
METAL
 10
0.0
 20
0.0
 30
0.0
 70
   128
 71
   231
 72
   223
 73
   219
 74
   227
  0
VERTEX
  5
248
  8
METAL
 10
0.0
 20
0.0
 30
0.0
 70
   128
 71
   239
 72
   231
 73
   227
 74
   237
  0
VERTEX
  5
249
  8
METAL
 10
0.0
 20
0.0
 30
0.0
 70
   128
 71
   221
 72
   209
 73
   210
 74
   217
  0
VERTEX
  5
24A
  8
METAL
 10
0.0
 20
0.0
 30
0.0
 70
   128
 71
   229
 72
   221
 73
   217
 74
   225
  0
VERTEX
  5
24B
  8
METAL
 10
0.0
 20
0.0
 30
0.0
 70
   128
 71
   233
 72
   229
 73
   225
 74
   235
  0
VERTEX
  5
24C
  8
METAL
 10
0.0
 20
0.0
 30
0.0
 70
   128
 71
   143
 72
   150
 73
   144
 74
   137
  0
VERTEX
  5
24D
  8
METAL
 10
0.0
 20
0.0
 30
0.0
 70
   128
 71
   135
 72
   143
 73
   137
 74
   129
  0
VERTEX
  5
24E
  8
METAL
 10
0.0
 20
0.0
 30
0.0
 70
   128
 71
   127
 72
   135
 73
   129
 74
   123
  0
VERTEX
  5
24F
  8
METAL
 10
0.0
 20
0.0
 30
0.0
 70
   128
 71
   141
 72
   149
 73
   147
 74
   139
  0
VERTEX
  5
250
  8
METAL
 10
0.0
 20
0.0
 30
0.0
 70
   128
 71
   133
 72
   141
 73
   139
 74
   131
  0
VERTEX
  5
251
  8
METAL
 10
0.0
 20
0.0
 30
0.0
 70
   128
 71
   121
 72
   133
 73
   131
 74
   125
  0
VERTEX
  5
252
  8
METAL
 10
0.0
 20
0.0
 30
0.0
 70
   128
 71
   138
 72
   146
 73
   151
 74
   142
  0
VERTEX
  5
253
  8
METAL
 10
0.0
 20
0.0
 30
0.0
 70
   128
 71
   130
 72
   138
 73
   142
 74
   134
  0
VERTEX
  5
254
  8
METAL
 10
0.0
 20
0.0
 30
0.0
 70
   128
 71
   124
 72
   130
 73
   134
 74
   126
  0
VERTEX
  5
255
  8
METAL
 10
0.0
 20
0.0
 30
0.0
 70
   128
 71
   140
 72
   132
 73
   128
 74
   136
  0
VERTEX
  5
256
  8
METAL
 10
0.0
 20
0.0
 30
0.0
 70
   128
 71
   148
 72
   140
 73
   136
 74
   145
  0
VERTEX
  5
257
  8
METAL
 10
0.0
 20
0.0
 30
0.0
 70
   128
 71
   152
 72
   148
 73
   145
 74
   155
  0
VERTEX
  5
258
  8
METAL
 10
0.0
 20
0.0
 30
0.0
 70
   128
 71
   282
 72
   287
 73
   299
 74
   299
  0
VERTEX
  5
259
  8
METAL
 10
0.0
 20
0.0
 30
0.0
 70
   128
 71
   296
 72
   284
 73
   279
 74
   279
  0
VERTEX
  5
25A
  8
METAL
 10
0.0
 20
0.0
 30
0.0
 70
   128
 71
   282
 72
   299
 73
   293
 74
   271
  0
VERTEX
  5
25B
  8
METAL
 10
0.0
 20
0.0
 30
0.0
 70
   128
 71
   296
 72
   279
 73
   268
 74
   290
  0
VERTEX
  5
25C
  8
METAL
 10
0.0
 20
0.0
 30
0.0
 70
   128
 71
   271
 72
   293
 73
   275
 74
   245
  0
VERTEX
  5
25D
  8
METAL
 10
0.0
 20
0.0
 30
0.0
 70
   128
 71
   272
 72
   290
 73
   268
 74
   241
  0
VERTEX
  5
25E
  8
METAL
 10
0.0
 20
0.0
 30
0.0
 70
   128
 71
   245
 72
   275
 73
   263
 74
   263
  0
VERTEX
  5
25F
  8
METAL
 10
0.0
 20
0.0
 30
0.0
 70
   128
 71
   260
 72
   272
 73
   241
 74
   241
  0
VERTEX
  5
260
  8
METAL
 10
0.0
 20
0.0
 30
0.0
 70
   128
 71
   245
 72
   263
 73
   257
 74
   257
  0
VERTEX
  5
261
  8
METAL
 10
0.0
 20
0.0
 30
0.0
 70
   128
 71
   254
 72
   260
 73
   241
 74
   241
  0
VERTEX
  5
262
  8
METAL
 10
0.0
 20
0.0
 30
0.0
 70
   128
 71
   245
 72
   257
 73
   251
 74
   251
  0
VERTEX
  5
263
  8
METAL
 10
0.0
 20
0.0
 30
0.0
 70
   128
 71
   248
 72
   254
 73
   241
 74
   241
  0
VERTEX
  5
264
  8
METAL
 10
0.0
 20
0.0
 30
0.0
 70
   128
 71
    23
 72
    41
 73
    47
 74
    35
  0
VERTEX
  5
265
  8
METAL
 10
0.0
 20
0.0
 30
0.0
 70
   128
 71
    38
 72
    20
 73
    32
 74
    44
  0
VERTEX
  5
266
  8
METAL
 10
0.0
 20
0.0
 30
0.0
 70
   128
 71
    23
 72
    10
 73
    29
 74
    41
  0
VERTEX
  5
267
  8
METAL
 10
0.0
 20
0.0
 30
0.0
 70
   128
 71
    26
 72
     8
 73
    20
 74
    38
  0
VERTEX
  5
268
  8
METAL
 10
0.0
 20
0.0
 30
0.0
 70
   128
 71
     5
 72
    11
 73
     6
 74
     1
  0
VERTEX
  5
269
  8
METAL
 10
0.0
 20
0.0
 30
0.0
 70
   128
 71
    14
 72
     3
 73
     8
 74
    26
  0
VERTEX
  5
26A
  8
METAL
 10
0.0
 20
0.0
 30
0.0
 70
   128
 71
     5
 72
    17
 73
    29
 74
    11
  0
SEQEND
  5
324
  8
METAL
  0
ENDSEC
  0
EOF
