  0
SECTION
  2
HEADER
  9
$ACADVER
  1
AC1009
  9
$DWGCODEPAGE
  3
ansi_1252
  9
$INSBASE
 10
0.0
 20
0.0
 30
0.0
  9
$EXTMIN
 10
-154.0
 20
-26.46827697753906
 30
-6.0
  9
$EXTMAX
 10
154.8321075439453
 20
0.0
 30
5.545949935913129
  9
$LIMMIN
 10
0.0
 20
0.0
  9
$LIMMAX
 10
12.0
 20
9.0
  9
$ORTHOMODE
 70
     1
  9
$REGENMODE
 70
     1
  9
$FILLMODE
 70
     1
  9
$QTEXTMODE
 70
     0
  9
$MIRRTEXT
 70
     1
  9
$DRAGMODE
 70
     2
  9
$LTSCALE
 40
1.0
  9
$OSMODE
 70
    37
  9
$ATTMODE
 70
     1
  9
$TEXTSIZE
 40
0.2
  9
$TRACEWID
 40
0.05
  9
$TEXTSTYLE
  7
STANDARD
  9
$CLAYER
  8
0
  9
$CELTYPE
  6
BYLAYER
  9
$CECOLOR
 62
   256
  9
$DIMSCALE
 40
1.0
  9
$DIMASZ
 40
0.18
  9
$DIMEXO
 40
0.0625
  9
$DIMDLI
 40
0.38
  9
$DIMRND
 40
0.0
  9
$DIMDLE
 40
0.0
  9
$DIMEXE
 40
0.18
  9
$DIMTP
 40
0.0
  9
$DIMTM
 40
0.0
  9
$DIMTXT
 40
0.18
  9
$DIMCEN
 40
0.09
  9
$DIMTSZ
 40
0.0
  9
$DIMTOL
 70
     0
  9
$DIMLIM
 70
     0
  9
$DIMTIH
 70
     1
  9
$DIMTOH
 70
     1
  9
$DIMSE1
 70
     0
  9
$DIMSE2
 70
     0
  9
$DIMTAD
 70
     0
  9
$DIMZIN
 70
     0
  9
$DIMBLK
  1

  9
$DIMASO
 70
     1
  9
$DIMSHO
 70
     1
  9
$DIMPOST
  1

  9
$DIMAPOST
  1

  9
$DIMALT
 70
     0
  9
$DIMALTD
 70
     2
  9
$DIMALTF
 40
25.4
  9
$DIMLFAC
 40
1.0
  9
$DIMTOFL
 70
     0
  9
$DIMTVP
 40
0.0
  9
$DIMTIX
 70
     0
  9
$DIMSOXD
 70
     0
  9
$DIMSAH
 70
     0
  9
$DIMBLK1
  1

  9
$DIMBLK2
  1

  9
$DIMSTYLE
  2
STANDARD
  9
$DIMCLRD
 70
     0
  9
$DIMCLRE
 70
     0
  9
$DIMCLRT
 70
     0
  9
$DIMTFAC
 40
1.0
  9
$DIMGAP
 40
0.09
  9
$LUNITS
 70
     2
  9
$LUPREC
 70
     3
  9
$SKETCHINC
 40
0.1
  9
$FILLETRAD
 40
0.5
  9
$AUNITS
 70
     0
  9
$AUPREC
 70
     0
  9
$MENU
  1
.
  9
$ELEVATION
 40
0.0
  9
$PELEVATION
 40
0.0
  9
$THICKNESS
 40
0.0
  9
$LIMCHECK
 70
     0
  9
$CHAMFERA
 40
0.5
  9
$CHAMFERB
 40
0.5
  9
$SKPOLY
 70
     0
  9
$TDCREATE
 40
2456498.411885058
  9
$TDUPDATE
 40
2456498.411885058
  9
$TDINDWG
 40
0.0007754514
  9
$TDUSRTIMER
 40
0.0007754514
  9
$USRTIMER
 70
     1
  9
$ANGBASE
 50
0.0
  9
$ANGDIR
 70
     0
  9
$PDMODE
 70
     0
  9
$PDSIZE
 40
0.0
  9
$PLINEWID
 40
0.0
  9
$COORDS
 70
     1
  9
$SPLFRAME
 70
     0
  9
$SPLINETYPE
 70
     6
  9
$SPLINESEGS
 70
     8
  9
$ATTDIA
 70
     0
  9
$ATTREQ
 70
     1
  9
$HANDLING
 70
     1
  9
$HANDSEED
  5
1E0
  9
$SURFTAB1
 70
     6
  9
$SURFTAB2
 70
     6
  9
$SURFTYPE
 70
     6
  9
$SURFU
 70
     6
  9
$SURFV
 70
     6
  9
$UCSNAME
  2

  9
$UCSORG
 10
0.0
 20
0.0
 30
0.0
  9
$UCSXDIR
 10
1.0
 20
0.0
 30
0.0
  9
$UCSYDIR
 10
0.0
 20
0.0
 30
1.0
  9
$PUCSNAME
  2

  9
$PUCSORG
 10
0.0
 20
0.0
 30
0.0
  9
$PUCSXDIR
 10
1.0
 20
0.0
 30
0.0
  9
$PUCSYDIR
 10
0.0
 20
1.0
 30
0.0
  9
$USERI1
 70
     0
  9
$USERI2
 70
     0
  9
$USERI3
 70
     0
  9
$USERI4
 70
     0
  9
$USERI5
 70
     0
  9
$USERR1
 40
0.0
  9
$USERR2
 40
0.0
  9
$USERR3
 40
0.0
  9
$USERR4
 40
0.0
  9
$USERR5
 40
0.0
  9
$WORLDVIEW
 70
     1
  9
$SHADEDGE
 70
     3
  9
$SHADEDIF
 70
    70
  9
$TILEMODE
 70
     1
  9
$MAXACTVP
 70
    64
  9
$PLIMCHECK
 70
     0
  9
$PEXTMIN
 10
1.000000000000000E+20
 20
1.000000000000000E+20
 30
1.000000000000000E+20
  9
$PEXTMAX
 10
-1.000000000000000E+20
 20
-1.000000000000000E+20
 30
-1.000000000000000E+20
  9
$PLIMMIN
 10
0.0
 20
0.0
  9
$PLIMMAX
 10
12.0
 20
9.0
  9
$UNITMODE
 70
     0
  9
$VISRETAIN
 70
     1
  9
$PLINEGEN
 70
     0
  9
$PSLTSCALE
 70
     1
  0
ENDSEC
  0
SECTION
  2
TABLES
  0
TABLE
  2
VPORT
 70
     1
  0
VPORT
  2
*ACTIVE
 70
     0
 10
0.0
 20
0.0
 11
1.0
 21
1.0
 12
9.652143512070927
 22
-5.418326335101765
 13
0.0
 23
0.0
 14
0.5
 24
0.5
 15
0.5
 25
0.5
 16
-1.0
 26
-1.0
 36
1.0
 17
0.0
 27
0.0
 37
0.0
 40
186.5491227092348
 41
26.74808995865632
 42
50.0
 43
0.0
 44
0.0
 50
0.0
 51
0.0
 71
    16
 72
   100
 73
     0
 74
     1
 75
     0
 76
     0
 77
     0
 78
     0
  0
ENDTAB
  0
TABLE
  2
LTYPE
 70
     1
  0
LTYPE
  2
CONTINUOUS
 70
     0
  3
Solid line
 72
    65
 73
     0
 40
0.0
  0
ENDTAB
  0
TABLE
  2
LAYER
 70
     2
  0
LAYER
  2
0
 70
     0
 62
     7
  6
CONTINUOUS
  0
LAYER
  2
METAL
 70
     0
 62
   144
  6
CONTINUOUS
  0
ENDTAB
  0
TABLE
  2
STYLE
 70
     1
  0
STYLE
  2
STANDARD
 70
     0
 40
0.0
 41
1.0
 50
0.0
 71
     0
 42
0.2
  3
txt
  4

  0
ENDTAB
  0
TABLE
  2
VIEW
 70
     0
  0
ENDTAB
  0
TABLE
  2
UCS
 70
     0
  0
ENDTAB
  0
TABLE
  2
APPID
 70
     1
  0
APPID
  2
ACAD
 70
     0
  0
ENDTAB
  0
TABLE
  2
DIMSTYLE
 70
     1
  0
DIMSTYLE
  2
STANDARD
 70
     0
  3

  4

  5

  6

  7

 40
1.0
 41
0.18
 42
0.0625
 43
0.38
 44
0.18
 45
0.0
 46
0.0
 47
0.0
 48
0.0
140
0.18
141
0.09
142
0.0
143
25.4
144
1.0
145
0.0
146
1.0
147
0.09
 71
     0
 72
     0
 73
     1
 74
     1
 75
     0
 76
     0
 77
     0
 78
     0
170
     0
171
     2
172
     0
173
     0
174
     0
175
     0
176
     0
177
     0
178
     0
  0
ENDTAB
  0
ENDSEC
  0
SECTION
  2
BLOCKS
  0
BLOCK
  8
0
  2
$MODEL_SPACE
 70
     0
 10
0.0
 20
0.0
 30
0.0
  3
$MODEL_SPACE
  1

  0
ENDBLK
  5
21
  8
0
  0
BLOCK
 67
     1
  8
0
  2
$PAPER_SPACE
 70
     0
 10
0.0
 20
0.0
 30
0.0
  3
$PAPER_SPACE
  1

  0
ENDBLK
  5
76
 67
     1
  8
0
  0
ENDSEC
  0
SECTION
  2
ENTITIES
  0
POLYLINE
  5
3C
  8
METAL
 66
     1
 10
0.0
 20
0.0
 30
0.0
 70
    64
 71
    93
 72
    36
  0
VERTEX
  5
3D
  8
METAL
 10
-154.0
 20
0.0
 30
-5.94912528991695
 70
   192
  0
VERTEX
  5
3E
  8
METAL
 10
-154.0
 20
0.0
 30
-5.94912528991695
 70
   192
  0
VERTEX
  5
3F
  8
METAL
 10
-154.0
 20
0.0
 30
-5.94912528991695
 70
   192
  0
VERTEX
  5
40
  8
METAL
 10
-153.8114013671875
 20
-15.72813415527344
 30
-5.999998092651325
 70
   192
  0
VERTEX
  5
41
  8
METAL
 10
-153.8114013671875
 20
-15.72813415527344
 30
-5.999998092651325
 70
   192
  0
VERTEX
  5
42
  8
METAL
 10
-153.4868621826172
 20
-0.0001907348632812
 30
-1.919624328613253
 70
   192
  0
VERTEX
  5
43
  8
METAL
 10
-153.4868621826172
 20
-0.0001907348632812
 30
-1.919624328613253
 70
   192
  0
VERTEX
  5
44
  8
METAL
 10
-153.2982635498047
 20
-15.76959228515625
 30
-1.970499038696246
 70
   192
  0
VERTEX
  5
45
  8
METAL
 10
-151.9474639892578
 20
-0.0007781982421804
 30
1.346563339233427
 70
   192
  0
VERTEX
  5
46
  8
METAL
 10
-151.9474639892578
 20
-0.0007781982421804
 30
1.346563339233427
 70
   192
  0
VERTEX
  5
47
  8
METAL
 10
-151.7588653564453
 20
-15.89393615722656
 30
1.295690536499066
 70
   192
  0
VERTEX
  5
48
  8
METAL
 10
-149.3817901611328
 20
-0.0017547607421804
 30
3.679555892944379
 70
   192
  0
VERTEX
  5
49
  8
METAL
 10
-149.3817901611328
 20
-0.0017547607421804
 30
3.679555892944379
 70
   192
  0
VERTEX
  5
4A
  8
METAL
 10
-149.1931915283203
 20
-16.10118865966796
 30
3.62868404388432
 70
   192
  0
VERTEX
  5
4B
  8
METAL
 10
-145.7898406982422
 20
-0.0031204223632741
 30
5.079351425170927
 70
   192
  0
VERTEX
  5
4C
  8
METAL
 10
-145.7898406982422
 20
-0.0031204223632741
 30
5.079351425170927
 70
   192
  0
VERTEX
  5
4D
  8
METAL
 10
-145.6012573242188
 20
-16.39134216308593
 30
5.028478622436566
 70
   192
  0
VERTEX
  5
4E
  8
METAL
 10
-140.9804534912109
 20
-0.0048828124999929
 30
5.545949935913129
 70
   192
  0
VERTEX
  5
4F
  8
METAL
 10
-140.9804534912109
 20
-0.0048828124999929
 30
5.545949935913129
 70
   192
  0
VERTEX
  5
50
  8
METAL
 10
-140.9804534912109
 20
-0.0048828124999929
 30
5.545949935913129
 70
   192
  0
VERTEX
  5
51
  8
METAL
 10
-140.9785461425782
 20
-16.76438903808593
 30
5.495076179504437
 70
   192
  0
VERTEX
  5
52
  8
METAL
 10
-140.9785461425782
 20
-16.76438903808593
 30
5.495076179504437
 70
   192
  0
VERTEX
  5
53
  8
METAL
 10
-140.9743499755859
 20
-0.0048828125
 30
-5.949125289916964
 70
   192
  0
VERTEX
  5
54
  8
METAL
 10
-140.9743499755859
 20
-0.0048828125
 30
-5.949125289916964
 70
   192
  0
VERTEX
  5
55
  8
METAL
 10
-140.9743499755859
 20
-0.0048828125
 30
-5.949125289916964
 70
   192
  0
VERTEX
  5
56
  8
METAL
 10
-140.8689880371094
 20
-16.76438903808594
 30
-5.999998092651325
 70
   192
  0
VERTEX
  5
57
  8
METAL
 10
-126.5625610351563
 20
-0.0094833374023438
 30
-5.999414443969684
 70
   192
  0
VERTEX
  5
58
  8
METAL
 10
-126.5625610351563
 20
-0.0094833374023438
 30
-5.999414443969684
 70
   192
  0
VERTEX
  5
19C
  8
METAL
 10
-125.8001556396485
 20
-0.0096435546875
 30
-3.616397857665987
 70
   192
  0
VERTEX
  5
19D
  8
METAL
 10
-125.8001556396485
 20
-0.0096435546875
 30
-3.616397857665987
 70
   192
  0
VERTEX
  5
5B
  8
METAL
 10
-125.36083984375
 20
-0.0098648071289062
 30
-5.842245101928683
 70
   192
  0
VERTEX
  5
5C
  8
METAL
 10
-125.36083984375
 20
-0.0098648071289062
 30
-5.842245101928683
 70
   192
  0
VERTEX
  5
5D
  8
METAL
 10
-125.36083984375
 20
-0.0098648071289062
 30
-5.842245101928683
 70
   192
  0
VERTEX
  5
19E
  8
METAL
 10
-124.9984588623047
 20
-0.00994873046875
 30
-4.574617385864215
 70
   192
  0
VERTEX
  5
5F
  8
METAL
 10
-124.9984588623047
 20
-0.00994873046875
 30
-4.574617385864215
 70
   192
  0
VERTEX
  5
60
  8
METAL
 10
-124.9984588623047
 20
-0.00994873046875
 30
-4.574617385864215
 70
   192
  0
VERTEX
  5
61
  8
METAL
 10
-124.7881622314453
 20
-0.0100250244140625
 30
-5.406002044677706
 70
   192
  0
VERTEX
  5
62
  8
METAL
 10
-124.7881622314453
 20
-0.0100250244140625
 30
-5.406002044677706
 70
   192
  0
VERTEX
  5
63
  8
METAL
 10
-124.7881622314453
 20
-0.0100250244140625
 30
-5.406002044677706
 70
   192
  0
VERTEX
  5
64
  8
METAL
 10
-124.3231811523438
 20
-17.90087127685547
 30
-3.704376220703082
 70
   192
  0
VERTEX
  5
65
  8
METAL
 10
-124.0402679443359
 20
-17.86359405517578
 30
-5.999385833740206
 70
   192
  0
VERTEX
  5
66
  8
METAL
 10
-123.7047576904297
 20
-17.94686889648438
 30
-5.947000503539996
 70
   192
  0
VERTEX
  5
67
  8
METAL
 10
-123.7047576904297
 20
-17.94686889648438
 30
-5.947000503539996
 70
   192
  0
VERTEX
  5
68
  8
METAL
 10
-123.5288848876953
 20
-17.96550750732422
 30
-4.670423507690401
 70
   192
  0
VERTEX
  5
69
  8
METAL
 10
-123.5288848876953
 20
-17.96550750732422
 30
-4.670423507690401
 70
   192
  0
VERTEX
  5
6A
  8
METAL
 10
-123.3227996826172
 20
-17.9808349609375
 30
-5.507402420043903
 70
   192
  0
VERTEX
  5
19F
  8
METAL
 10
-123.3227996826172
 20
-17.9808349609375
 30
-5.507402420043903
 70
   192
  0
VERTEX
  5
1A0
  8
METAL
 10
124.1549072265625
 20
-17.9808349609375
 30
-5.507402420043945
 70
   192
  0
VERTEX
  5
6D
  8
METAL
 10
124.1549072265625
 20
-17.9808349609375
 30
-5.507402420043945
 70
   192
  0
VERTEX
  5
6E
  8
METAL
 10
124.3610076904297
 20
-17.96550750732422
 30
-4.67042350769043
 70
   192
  0
VERTEX
  5
6F
  8
METAL
 10
124.3610076904297
 20
-17.96550750732422
 30
-4.67042350769043
 70
   192
  0
VERTEX
  5
70
  8
METAL
 10
124.536865234375
 20
-17.94686889648438
 30
-5.947000503540025
 70
   192
  0
VERTEX
  5
71
  8
METAL
 10
124.536865234375
 20
-17.94686889648438
 30
-5.947000503540025
 70
   192
  0
VERTEX
  5
72
  8
METAL
 10
124.8723907470703
 20
-17.86359405517578
 30
-5.999385833740234
 70
   192
  0
VERTEX
  5
1A1
  8
METAL
 10
125.155288696289
 20
-17.90087127685547
 30
-3.704376220703111
 70
   192
  0
VERTEX
  5
1A2
  8
METAL
 10
125.6202774047851
 20
-0.0100250244140625
 30
-5.406002044677734
 70
   192
  0
VERTEX
  5
1A3
  8
METAL
 10
125.6202774047851
 20
-0.0100250244140625
 30
-5.406002044677734
 70
   192
  0
VERTEX
  5
1A4
  8
METAL
 10
125.6202774047851
 20
-0.0100250244140625
 30
-5.406002044677734
 70
   192
  0
VERTEX
  5
77
  8
METAL
 10
125.830581665039
 20
-0.00994873046875
 30
-4.574617385864258
 70
   192
  0
VERTEX
  5
78
  8
METAL
 10
125.830581665039
 20
-0.00994873046875
 30
-4.574617385864258
 70
   192
  0
VERTEX
  5
79
  8
METAL
 10
125.830581665039
 20
-0.00994873046875
 30
-4.574617385864258
 70
   192
  0
VERTEX
  5
7A
  8
METAL
 10
126.1929626464844
 20
-0.0098648071289062
 30
-5.842245101928711
 70
   192
  0
VERTEX
  5
7B
  8
METAL
 10
126.1929626464844
 20
-0.0098648071289062
 30
-5.842245101928711
 70
   192
  0
VERTEX
  5
7C
  8
METAL
 10
126.1929626464844
 20
-0.0098648071289062
 30
-5.842245101928711
 70
   192
  0
VERTEX
  5
7D
  8
METAL
 10
126.6322631835937
 20
-0.0096435546875
 30
-3.616397857666016
 70
   192
  0
VERTEX
  5
7E
  8
METAL
 10
126.6322631835937
 20
-0.0096435546875
 30
-3.616397857666016
 70
   192
  0
VERTEX
  5
7F
  8
METAL
 10
127.3946838378906
 20
-0.0094833374023438
 30
-5.999414443969727
 70
   192
  0
VERTEX
  5
80
  8
METAL
 10
127.3946838378906
 20
-0.0094833374023438
 30
-5.999414443969727
 70
   192
  0
VERTEX
  5
81
  8
METAL
 10
141.7010955810547
 20
-16.76438903808594
 30
-5.999998092651367
 70
   192
  0
VERTEX
  5
82
  8
METAL
 10
141.8064575195312
 20
-0.0048828125
 30
-5.949125289916992
 70
   192
  0
VERTEX
  5
83
  8
METAL
 10
141.8064575195312
 20
-0.0048828125
 30
-5.949125289916992
 70
   192
  0
VERTEX
  5
84
  8
METAL
 10
141.8106536865234
 20
-16.76438903808593
 30
5.495076179504395
 70
   192
  0
VERTEX
  5
85
  8
METAL
 10
141.8106536865234
 20
-16.76438903808593
 30
5.495076179504395
 70
   192
  0
VERTEX
  5
86
  8
METAL
 10
141.8125762939453
 20
-0.0048828124999929
 30
5.545949935913086
 70
   192
  0
VERTEX
  5
87
  8
METAL
 10
141.8125762939453
 20
-0.0048828124999929
 30
5.545949935913086
 70
   192
  0
VERTEX
  5
88
  8
METAL
 10
141.8125762939453
 20
-0.0048828124999929
 30
5.545949935913086
 70
   192
  0
VERTEX
  5
89
  8
METAL
 10
146.433364868164
 20
-16.39134216308593
 30
5.028478622436523
 70
   192
  0
VERTEX
  5
8A
  8
METAL
 10
146.6219635009765
 20
-0.0031204223632741
 30
5.079351425170898
 70
   192
  0
VERTEX
  5
8B
  8
METAL
 10
146.6219635009765
 20
-0.0031204223632741
 30
5.079351425170898
 70
   192
  0
VERTEX
  5
8C
  8
METAL
 10
150.0252990722656
 20
-16.10118865966796
 30
3.628683090209975
 70
   192
  0
VERTEX
  5
8D
  8
METAL
 10
150.2138977050781
 20
-0.0017547607421804
 30
3.679555892944336
 70
   192
  0
VERTEX
  5
8E
  8
METAL
 10
150.2138977050781
 20
-0.0017547607421804
 30
3.679555892944336
 70
   192
  0
VERTEX
  5
8F
  8
METAL
 10
152.5909729003906
 20
-15.89393615722656
 30
1.295690536499023
 70
   192
  0
VERTEX
  5
90
  8
METAL
 10
152.7795715332031
 20
-0.0007781982421804
 30
1.346565246582031
 70
   192
  0
VERTEX
  5
91
  8
METAL
 10
152.7795715332031
 20
-0.0007781982421804
 30
1.346565246582031
 70
   192
  0
VERTEX
  5
1A5
  8
METAL
 10
154.13037109375
 20
-15.76959228515625
 30
-1.970499038696289
 70
   192
  0
VERTEX
  5
1A6
  8
METAL
 10
154.3189697265625
 20
-0.0001907348632812
 30
-1.919624328613281
 70
   192
  0
VERTEX
  5
94
  8
METAL
 10
154.3189697265625
 20
-0.0001907348632812
 30
-1.919624328613281
 70
   192
  0
VERTEX
  5
95
  8
METAL
 10
154.6435241699218
 20
-15.72813415527344
 30
-5.999998092651367
 70
   192
  0
VERTEX
  5
96
  8
METAL
 10
154.6435241699218
 20
-15.72813415527344
 30
-5.999998092651367
 70
   192
  0
VERTEX
  5
1A7
  8
METAL
 10
154.8321075439453
 20
0.0
 30
-5.949125289916992
 70
   192
  0
VERTEX
  5
1A8
  8
METAL
 10
154.8321075439453
 20
0.0
 30
-5.949125289916992
 70
   192
  0
VERTEX
  5
99
  8
METAL
 10
154.8321075439453
 20
0.0
 30
-5.949125289916992
 70
   192
  0
VERTEX
  5
9A
  8
METAL
 10
0.0
 20
0.0
 30
0.0
 70
   128
 71
    75
 72
    78
 73
    81
 74
    81
  0
VERTEX
  5
9B
  8
METAL
 10
0.0
 20
0.0
 30
0.0
 70
   128
 71
    75
 72
    81
 73
    84
 74
    87
  0
VERTEX
  5
9C
  8
METAL
 10
0.0
 20
0.0
 30
0.0
 70
   128
 71
    75
 72
    87
 73
    91
 74
    70
  0
VERTEX
  5
9D
  8
METAL
 10
0.0
 20
0.0
 30
0.0
 70
   128
 71
    70
 72
    67
 73
    64
 74
    58
  0
VERTEX
  5
9E
  8
METAL
 10
0.0
 20
0.0
 30
0.0
 70
   128
 71
    70
 72
    58
 73
    61
 74
    66
  0
VERTEX
  5
9F
  8
METAL
 10
0.0
 20
0.0
 30
0.0
 70
   128
 71
    75
 72
    70
 73
    66
 74
    66
  0
VERTEX
  5
A0
  8
METAL
 10
0.0
 20
0.0
 30
0.0
 70
   128
 71
    89
 72
    69
 73
    71
 74
    92
  0
VERTEX
  5
A1
  8
METAL
 10
0.0
 20
0.0
 30
0.0
 70
   128
 71
    69
 72
    54
 73
    68
 74
    71
  0
VERTEX
  5
A2
  8
METAL
 10
0.0
 20
0.0
 30
0.0
 70
   128
 71
    55
 72
    72
 73
    74
 74
    65
  0
VERTEX
  5
A3
  8
METAL
 10
0.0
 20
0.0
 30
0.0
 70
   128
 71
    73
 72
    77
 73
    79
 74
    76
  0
VERTEX
  5
A4
  8
METAL
 10
0.0
 20
0.0
 30
0.0
 70
   128
 71
    77
 72
    80
 73
    82
 74
    79
  0
VERTEX
  5
A5
  8
METAL
 10
0.0
 20
0.0
 30
0.0
 70
   128
 71
    80
 72
    83
 73
    85
 74
    82
  0
VERTEX
  5
A6
  8
METAL
 10
0.0
 20
0.0
 30
0.0
 70
   128
 71
    83
 72
    86
 73
    88
 74
    85
  0
VERTEX
  5
A7
  8
METAL
 10
0.0
 20
0.0
 30
0.0
 70
   128
 71
    86
 72
    90
 73
    93
 74
    88
  0
VERTEX
  5
A8
  8
METAL
 10
0.0
 20
0.0
 30
0.0
 70
   128
 71
    63
 72
    68
 73
    54
 74
    53
  0
VERTEX
  5
A9
  8
METAL
 10
0.0
 20
0.0
 30
0.0
 70
   128
 71
    57
 72
    62
 73
    52
 74
    49
  0
VERTEX
  5
AA
  8
METAL
 10
0.0
 20
0.0
 30
0.0
 70
   128
 71
    59
 72
    56
 73
    48
 74
    50
  0
VERTEX
  5
AB
  8
METAL
 10
0.0
 20
0.0
 30
0.0
 70
   128
 71
    65
 72
    60
 73
    51
 74
    55
  0
VERTEX
  5
AC
  8
METAL
 10
0.0
 20
0.0
 30
0.0
 70
   128
 71
    25
 72
     3
 73
    19
 74
    19
  0
VERTEX
  5
AD
  8
METAL
 10
0.0
 20
0.0
 30
0.0
 70
   128
 71
    19
 72
     3
 73
     7
 74
    10
  0
VERTEX
  5
AE
  8
METAL
 10
0.0
 20
0.0
 30
0.0
 70
   128
 71
    19
 72
    10
 73
    13
 74
    16
  0
VERTEX
  5
AF
  8
METAL
 10
0.0
 20
0.0
 30
0.0
 70
   128
 71
    31
 72
    28
 73
    24
 74
    37
  0
VERTEX
  5
B0
  8
METAL
 10
0.0
 20
0.0
 30
0.0
 70
   128
 71
    34
 72
    37
 73
    24
 74
    29
  0
VERTEX
  5
B1
  8
METAL
 10
0.0
 20
0.0
 30
0.0
 70
   128
 71
    19
 72
    29
 73
    25
 74
    25
  0
VERTEX
  5
B2
  8
METAL
 10
0.0
 20
0.0
 30
0.0
 70
   128
 71
     5
 72
     2
 73
    23
 74
    26
  0
VERTEX
  5
B3
  8
METAL
 10
0.0
 20
0.0
 30
0.0
 70
   128
 71
    26
 72
    23
 73
    27
 74
    41
  0
VERTEX
  5
B4
  8
METAL
 10
0.0
 20
0.0
 30
0.0
 70
   128
 71
    40
 72
    30
 73
    20
 74
    22
  0
VERTEX
  5
B5
  8
METAL
 10
0.0
 20
0.0
 30
0.0
 70
   128
 71
    21
 72
    18
 73
    15
 74
    17
  0
VERTEX
  5
B6
  8
METAL
 10
0.0
 20
0.0
 30
0.0
 70
   128
 71
    17
 72
    15
 73
    12
 74
    14
  0
VERTEX
  5
B7
  8
METAL
 10
0.0
 20
0.0
 30
0.0
 70
   128
 71
    14
 72
    12
 73
     9
 74
    11
  0
VERTEX
  5
B8
  8
METAL
 10
0.0
 20
0.0
 30
0.0
 70
   128
 71
    11
 72
     9
 73
     6
 74
     8
  0
VERTEX
  5
B9
  8
METAL
 10
0.0
 20
0.0
 30
0.0
 70
   128
 71
     8
 72
     6
 73
     1
 74
     4
  0
VERTEX
  5
BA
  8
METAL
 10
0.0
 20
0.0
 30
0.0
 70
   128
 71
    32
 72
    42
 73
    41
 74
    27
  0
VERTEX
  5
BB
  8
METAL
 10
0.0
 20
0.0
 30
0.0
 70
   128
 71
    38
 72
    46
 73
    43
 74
    33
  0
VERTEX
  5
BC
  8
METAL
 10
0.0
 20
0.0
 30
0.0
 70
   128
 71
    36
 72
    45
 73
    47
 74
    39
  0
VERTEX
  5
BD
  8
METAL
 10
0.0
 20
0.0
 30
0.0
 70
   128
 71
    30
 72
    40
 73
    44
 74
    35
  0
SEQEND
  5
1DB
  8
METAL
  0
POLYLINE
  5
BF
  8
METAL
 66
     1
 10
0.0
 20
0.0
 30
0.0
 70
    64
 71
   137
 72
    70
  0
VERTEX
  5
C0
  8
METAL
 10
-153.8114013671875
 20
-15.85411071777344
 30
-5.999999999999972
 70
   192
  0
VERTEX
  5
C1
  8
METAL
 10
-153.8114013671875
 20
-15.85411071777344
 30
-5.999999999999972
 70
   192
  0
VERTEX
  5
C2
  8
METAL
 10
-153.8114013671875
 20
-15.85411071777344
 30
-5.999999999999972
 70
   192
  0
VERTEX
  5
C3
  8
METAL
 10
-153.8114013671875
 20
-15.72813415527344
 30
-5.999998092651325
 70
   192
  0
VERTEX
  5
C4
  8
METAL
 10
-153.8114013671875
 20
-15.72813415527344
 30
-5.999998092651325
 70
   192
  0
VERTEX
  5
C5
  8
METAL
 10
-153.2982635498047
 20
-16.55534362792969
 30
-1.970500946044879
 70
   192
  0
VERTEX
  5
C6
  8
METAL
 10
-153.2982635498047
 20
-16.55534362792969
 30
-1.970500946044879
 70
   192
  0
VERTEX
  5
C7
  8
METAL
 10
-153.2982635498047
 20
-15.76959228515625
 30
-1.970499038696246
 70
   192
  0
VERTEX
  5
C8
  8
METAL
 10
-151.7588653564453
 20
-17.65454864501952
 30
1.295688629150433
 70
   192
  0
VERTEX
  5
C9
  8
METAL
 10
-151.7588653564453
 20
-17.65454864501952
 30
1.295688629150433
 70
   192
  0
VERTEX
  5
CA
  8
METAL
 10
-151.7588653564453
 20
-15.89393615722656
 30
1.295690536499066
 70
   192
  0
VERTEX
  5
CB
  8
METAL
 10
-149.1931915283203
 20
-18.87933349609374
 30
3.628681182861371
 70
   192
  0
VERTEX
  5
CC
  8
METAL
 10
-149.1931915283203
 20
-18.87933349609374
 30
3.628681182861371
 70
   192
  0
VERTEX
  5
CD
  8
METAL
 10
-149.1931915283203
 20
-16.10118865966796
 30
3.62868404388432
 70
   192
  0
VERTEX
  5
CE
  8
METAL
 10
-145.6012573242188
 20
-20.02166748046875
 30
5.028476715087919
 70
   192
  0
VERTEX
  5
CF
  8
METAL
 10
-145.6012573242188
 20
-20.02166748046875
 30
5.028476715087919
 70
   192
  0
VERTEX
  5
D0
  8
METAL
 10
-145.6012573242188
 20
-16.39134216308593
 30
5.028478622436566
 70
   192
  0
VERTEX
  5
D1
  8
METAL
 10
-140.9785461425782
 20
-18.59199523925781
 30
-5.999998092651325
 70
   192
  0
VERTEX
  5
D2
  8
METAL
 10
-140.9785461425782
 20
-18.59199523925781
 30
-5.999998092651325
 70
   192
  0
VERTEX
  5
D3
  8
METAL
 10
-140.9785461425782
 20
-20.88653564453125
 30
5.495074272155804
 70
   192
  0
VERTEX
  5
D4
  8
METAL
 10
-140.9785461425782
 20
-20.88653564453125
 30
5.495074272155804
 70
   192
  0
VERTEX
  5
D5
  8
METAL
 10
-140.9785461425782
 20
-16.76438903808593
 30
5.495076179504437
 70
   192
  0
VERTEX
  5
D6
  8
METAL
 10
-140.9785461425782
 20
-16.76438903808593
 30
5.495076179504437
 70
   192
  0
VERTEX
  5
D7
  8
METAL
 10
-140.8689880371094
 20
-16.76438903808594
 30
-5.999998092651325
 70
   192
  0
VERTEX
  5
D8
  8
METAL
 10
-123.7422637939453
 20
-22.34754943847656
 30
-5.999998092651325
 70
   192
  0
VERTEX
  5
D9
  8
METAL
 10
-123.7422637939453
 20
-22.34754943847656
 30
-5.999998092651325
 70
   192
  0
VERTEX
  5
DA
  8
METAL
 10
-123.7422637939453
 20
-17.95230102539062
 30
-5.999998092651325
 70
   192
  0
VERTEX
  5
DB
  8
METAL
 10
-123.7422637939453
 20
-17.95230102539062
 30
-5.999998092651325
 70
   192
  0
VERTEX
  5
DC
  8
METAL
 10
-123.7422637939453
 20
-22.34754943847656
 30
5.495076179504437
 70
   192
  0
VERTEX
  5
DD
  8
METAL
 10
-123.7422637939453
 20
-22.34754943847656
 30
5.495076179504437
 70
   192
  0
VERTEX
  5
DE
  8
METAL
 10
-123.7422637939453
 20
-17.95230102539062
 30
5.495076179504437
 70
   192
  0
VERTEX
  5
DF
  8
METAL
 10
-123.7422637939453
 20
-17.95230102539062
 30
5.495076179504437
 70
   192
  0
VERTEX
  5
E0
  8
METAL
 10
-108.6464385986328
 20
-23.364990234375
 30
-5.999998092651325
 70
   192
  0
VERTEX
  5
E1
  8
METAL
 10
-108.6464385986328
 20
-23.364990234375
 30
-5.999998092651325
 70
   192
  0
VERTEX
  5
E2
  8
METAL
 10
-108.6464385986328
 20
-18.8507080078125
 30
-5.999998092651325
 70
   192
  0
VERTEX
  5
E3
  8
METAL
 10
-108.6464385986328
 20
-18.8507080078125
 30
-5.999998092651325
 70
   192
  0
VERTEX
  5
E4
  8
METAL
 10
-108.6464385986328
 20
-23.364990234375
 30
5.495076179504437
 70
   192
  0
VERTEX
  5
E5
  8
METAL
 10
-108.6464385986328
 20
-23.364990234375
 30
5.495076179504437
 70
   192
  0
VERTEX
  5
E6
  8
METAL
 10
-108.6464385986328
 20
-18.85070800781249
 30
5.495076179504437
 70
   192
  0
VERTEX
  5
E7
  8
METAL
 10
-108.6464385986328
 20
-18.85070800781249
 30
5.495076179504437
 70
   192
  0
VERTEX
  5
E8
  8
METAL
 10
-93.55061340332031
 20
-24.17394256591797
 30
-5.999998092651325
 70
   192
  0
VERTEX
  5
E9
  8
METAL
 10
-93.55061340332031
 20
-24.17394256591797
 30
-5.999998092651325
 70
   192
  0
VERTEX
  5
EA
  8
METAL
 10
-93.55061340332031
 20
-19.54063415527343
 30
-5.999998092651339
 70
   192
  0
VERTEX
  5
EB
  8
METAL
 10
-93.55061340332031
 20
-19.54063415527343
 30
-5.999998092651339
 70
   192
  0
VERTEX
  5
EC
  8
METAL
 10
-93.55061340332031
 20
-24.17394256591797
 30
5.495076179504437
 70
   192
  0
VERTEX
  5
ED
  8
METAL
 10
-93.55061340332031
 20
-24.17394256591797
 30
5.495076179504437
 70
   192
  0
VERTEX
  5
EE
  8
METAL
 10
-93.55061340332031
 20
-19.54063415527343
 30
5.495076179504437
 70
   192
  0
VERTEX
  5
EF
  8
METAL
 10
-93.55061340332031
 20
-19.54063415527343
 30
5.495076179504437
 70
   192
  0
VERTEX
  5
F0
  8
METAL
 10
-62.04693603515628
 20
-20.44019317626953
 30
-5.999999999999972
 70
   192
  0
VERTEX
  5
F1
  8
METAL
 10
-62.04693603515628
 20
-20.44019317626953
 30
-5.999999999999972
 70
   192
  0
VERTEX
  5
F2
  8
METAL
 10
-62.04693603515628
 20
-25.10581970214843
 30
-5.999998092651325
 70
   192
  0
VERTEX
  5
F3
  8
METAL
 10
-62.04693603515628
 20
-25.10581970214843
 30
-5.999998092651325
 70
   192
  0
VERTEX
  5
F4
  8
METAL
 10
-62.04693603515628
 20
-20.44019317626953
 30
5.49507427215579
 70
   192
  0
VERTEX
  5
F5
  8
METAL
 10
-62.04693603515628
 20
-20.44019317626953
 30
5.49507427215579
 70
   192
  0
VERTEX
  5
F6
  8
METAL
 10
-62.04693603515628
 20
-25.10581970214843
 30
5.495076179504423
 70
   192
  0
VERTEX
  5
F7
  8
METAL
 10
-62.04693603515628
 20
-25.10581970214843
 30
5.495076179504423
 70
   192
  0
VERTEX
  5
F8
  8
METAL
 10
-30.54323959350589
 20
-26.00080108642578
 30
-5.999998092651339
 70
   192
  0
VERTEX
  5
F9
  8
METAL
 10
-30.54323959350589
 20
-26.00080108642578
 30
-5.999998092651339
 70
   192
  0
VERTEX
  5
FA
  8
METAL
 10
-30.54323959350589
 20
-21.3028564453125
 30
-5.999998092651339
 70
   192
  0
VERTEX
  5
FB
  8
METAL
 10
-30.54323959350589
 20
-21.3028564453125
 30
-5.999998092651339
 70
   192
  0
VERTEX
  5
FC
  8
METAL
 10
-30.54323959350589
 20
-26.00080108642578
 30
5.495076179504423
 70
   192
  0
VERTEX
  5
FD
  8
METAL
 10
-30.54323959350589
 20
-26.00080108642578
 30
5.495076179504423
 70
   192
  0
VERTEX
  5
FE
  8
METAL
 10
-30.54323959350589
 20
-21.3028564453125
 30
5.495076179504423
 70
   192
  0
VERTEX
  5
FF
  8
METAL
 10
-30.54323959350589
 20
-21.3028564453125
 30
5.495076179504423
 70
   192
  0
VERTEX
  5
100
  8
METAL
 10
0.960445404052706
 20
-26.46827697753906
 30
-5.999998092651339
 70
   192
  0
VERTEX
  5
101
  8
METAL
 10
0.960445404052706
 20
-26.46827697753906
 30
-5.999998092651339
 70
   192
  0
VERTEX
  5
102
  8
METAL
 10
0.960445404052706
 20
-21.73802185058593
 30
-5.999998092651339
 70
   192
  0
VERTEX
  5
103
  8
METAL
 10
0.960445404052706
 20
-21.73802185058593
 30
-5.999998092651339
 70
   192
  0
VERTEX
  5
104
  8
METAL
 10
0.960445404052706
 20
-26.46827697753906
 30
5.495076179504423
 70
   192
  0
VERTEX
  5
105
  8
METAL
 10
0.960445404052706
 20
-26.46827697753906
 30
5.495076179504423
 70
   192
  0
VERTEX
  5
106
  8
METAL
 10
0.960445404052706
 20
-21.73802185058593
 30
5.495076179504423
 70
   192
  0
VERTEX
  5
107
  8
METAL
 10
0.960445404052706
 20
-21.73802185058593
 30
5.495076179504423
 70
   192
  0
VERTEX
  5
108
  8
METAL
 10
32.10120010375979
 20
-21.3028564453125
 30
-5.999998092651339
 70
   192
  0
VERTEX
  5
109
  8
METAL
 10
32.10120010375979
 20
-21.3028564453125
 30
-5.999998092651339
 70
   192
  0
VERTEX
  5
10A
  8
METAL
 10
32.10120487213132
 20
-26.00080108642578
 30
5.495076179504423
 70
   192
  0
VERTEX
  5
10B
  8
METAL
 10
32.10120487213132
 20
-26.00080108642578
 30
5.495076179504423
 70
   192
  0
VERTEX
  5
10C
  8
METAL
 10
32.1012077331543
 20
-26.00080108642578
 30
-5.999998092651339
 70
   192
  0
VERTEX
  5
10D
  8
METAL
 10
32.1012077331543
 20
-26.00080108642578
 30
-5.999998092651339
 70
   192
  0
VERTEX
  5
10E
  8
METAL
 10
32.1012077331543
 20
-21.3028564453125
 30
5.495076179504409
 70
   192
  0
VERTEX
  5
10F
  8
METAL
 10
32.1012077331543
 20
-21.3028564453125
 30
5.495076179504409
 70
   192
  0
VERTEX
  5
110
  8
METAL
 10
63.24196243286133
 20
-20.44019317626953
 30
-5.999999999999986
 70
   192
  0
VERTEX
  5
111
  8
METAL
 10
63.24196243286133
 20
-20.44019317626953
 30
-5.999999999999986
 70
   192
  0
VERTEX
  5
112
  8
METAL
 10
63.24196243286133
 20
-25.10581970214843
 30
5.495076179504409
 70
   192
  0
VERTEX
  5
113
  8
METAL
 10
63.24196243286133
 20
-25.10581970214843
 30
5.495076179504409
 70
   192
  0
VERTEX
  5
114
  8
METAL
 10
63.24196624755859
 20
-25.10581970214843
 30
-5.999998092651339
 70
   192
  0
VERTEX
  5
115
  8
METAL
 10
63.24196624755859
 20
-25.10581970214843
 30
-5.999998092651339
 70
   192
  0
VERTEX
  5
116
  8
METAL
 10
63.24197006225586
 20
-20.44019317626953
 30
5.495074272155776
 70
   192
  0
VERTEX
  5
117
  8
METAL
 10
63.24197006225586
 20
-20.44019317626953
 30
5.495074272155776
 70
   192
  0
VERTEX
  5
118
  8
METAL
 10
94.38272094726562
 20
-24.17394256591797
 30
-5.999998092651353
 70
   192
  0
VERTEX
  5
119
  8
METAL
 10
94.38272094726562
 20
-24.17394256591797
 30
-5.999998092651353
 70
   192
  0
VERTEX
  5
11A
  8
METAL
 10
94.38272094726562
 20
-19.54063415527343
 30
-5.999998092651353
 70
   192
  0
VERTEX
  5
11B
  8
METAL
 10
94.38272094726562
 20
-19.54063415527343
 30
-5.999998092651353
 70
   192
  0
VERTEX
  5
11C
  8
METAL
 10
94.38272094726562
 20
-24.17394256591797
 30
5.495076179504409
 70
   192
  0
VERTEX
  5
11D
  8
METAL
 10
94.38272094726562
 20
-24.17394256591797
 30
5.495076179504409
 70
   192
  0
VERTEX
  5
11E
  8
METAL
 10
94.38272094726562
 20
-19.54063415527343
 30
5.495076179504409
 70
   192
  0
VERTEX
  5
11F
  8
METAL
 10
94.38272094726562
 20
-19.54063415527343
 30
5.495076179504409
 70
   192
  0
VERTEX
  5
120
  8
METAL
 10
109.4785614013672
 20
-23.364990234375
 30
-5.999998092651353
 70
   192
  0
VERTEX
  5
121
  8
METAL
 10
109.4785614013672
 20
-23.364990234375
 30
-5.999998092651353
 70
   192
  0
VERTEX
  5
122
  8
METAL
 10
109.4785614013672
 20
-18.8507080078125
 30
-5.999998092651353
 70
   192
  0
VERTEX
  5
123
  8
METAL
 10
109.4785614013672
 20
-18.8507080078125
 30
-5.999998092651353
 70
   192
  0
VERTEX
  5
124
  8
METAL
 10
109.4785614013672
 20
-23.364990234375
 30
5.495076179504409
 70
   192
  0
VERTEX
  5
125
  8
METAL
 10
109.4785614013672
 20
-23.364990234375
 30
5.495076179504409
 70
   192
  0
VERTEX
  5
126
  8
METAL
 10
109.4785614013672
 20
-18.85070800781249
 30
5.495076179504409
 70
   192
  0
VERTEX
  5
127
  8
METAL
 10
109.4785614013672
 20
-18.85070800781249
 30
5.495076179504409
 70
   192
  0
VERTEX
  5
128
  8
METAL
 10
124.5743865966797
 20
-22.34754943847656
 30
-5.999998092651353
 70
   192
  0
VERTEX
  5
129
  8
METAL
 10
124.5743865966797
 20
-22.34754943847656
 30
-5.999998092651353
 70
   192
  0
VERTEX
  5
12A
  8
METAL
 10
124.5743865966797
 20
-17.95230102539062
 30
-5.999998092651353
 70
   192
  0
VERTEX
  5
12B
  8
METAL
 10
124.5743865966797
 20
-17.95230102539062
 30
-5.999998092651353
 70
   192
  0
VERTEX
  5
12C
  8
METAL
 10
124.5743865966797
 20
-22.34754943847656
 30
5.495076179504409
 70
   192
  0
VERTEX
  5
12D
  8
METAL
 10
124.5743865966797
 20
-22.34754943847656
 30
5.495076179504409
 70
   192
  0
VERTEX
  5
12E
  8
METAL
 10
124.5743865966797
 20
-17.95230102539062
 30
5.495076179504409
 70
   192
  0
VERTEX
  5
12F
  8
METAL
 10
124.5743865966797
 20
-17.95230102539062
 30
5.495076179504409
 70
   192
  0
VERTEX
  5
130
  8
METAL
 10
141.7010955810547
 20
-16.76438903808594
 30
-5.999998092651367
 70
   192
  0
VERTEX
  5
131
  8
METAL
 10
141.8106536865234
 20
-18.59199523925781
 30
-5.999998092651367
 70
   192
  0
VERTEX
  5
132
  8
METAL
 10
141.8106536865234
 20
-18.59199523925781
 30
-5.999998092651367
 70
   192
  0
VERTEX
  5
133
  8
METAL
 10
141.8106536865234
 20
-20.88653564453125
 30
5.495074272155776
 70
   192
  0
VERTEX
  5
134
  8
METAL
 10
141.8106536865234
 20
-20.88653564453125
 30
5.495074272155776
 70
   192
  0
VERTEX
  5
135
  8
METAL
 10
141.8106536865234
 20
-20.88653564453125
 30
5.495074272155776
 70
   192
  0
VERTEX
  5
136
  8
METAL
 10
141.8106536865234
 20
-16.76438903808593
 30
5.495076179504395
 70
   192
  0
VERTEX
  5
137
  8
METAL
 10
141.8106536865234
 20
-16.76438903808593
 30
5.495076179504395
 70
   192
  0
VERTEX
  5
138
  8
METAL
 10
146.433364868164
 20
-20.02166748046875
 30
5.028476715087891
 70
   192
  0
VERTEX
  5
139
  8
METAL
 10
146.433364868164
 20
-20.02166748046875
 30
5.028476715087891
 70
   192
  0
VERTEX
  5
13A
  8
METAL
 10
146.433364868164
 20
-16.39134216308593
 30
5.028478622436523
 70
   192
  0
VERTEX
  5
13B
  8
METAL
 10
150.0252990722656
 20
-18.87933349609374
 30
3.628681182861328
 70
   192
  0
VERTEX
  5
13C
  8
METAL
 10
150.0252990722656
 20
-18.87933349609374
 30
3.628681182861328
 70
   192
  0
VERTEX
  5
13D
  8
METAL
 10
150.0252990722656
 20
-16.10118865966796
 30
3.628683090209975
 70
   192
  0
VERTEX
  5
13E
  8
METAL
 10
152.5909729003906
 20
-17.65454864501952
 30
1.295688629150391
 70
   192
  0
VERTEX
  5
13F
  8
METAL
 10
152.5909729003906
 20
-17.65454864501952
 30
1.295688629150391
 70
   192
  0
VERTEX
  5
140
  8
METAL
 10
152.5909729003906
 20
-15.89393615722656
 30
1.295690536499023
 70
   192
  0
VERTEX
  5
141
  8
METAL
 10
154.13037109375
 20
-16.55534362792969
 30
-1.970500946044922
 70
   192
  0
VERTEX
  5
142
  8
METAL
 10
154.13037109375
 20
-16.55534362792969
 30
-1.970500946044922
 70
   192
  0
VERTEX
  5
143
  8
METAL
 10
154.13037109375
 20
-15.76959228515625
 30
-1.970499038696289
 70
   192
  0
VERTEX
  5
144
  8
METAL
 10
154.6435241699218
 20
-15.85411071777344
 30
-6.0
 70
   192
  0
VERTEX
  5
145
  8
METAL
 10
154.6435241699218
 20
-15.85411071777344
 30
-6.0
 70
   192
  0
VERTEX
  5
146
  8
METAL
 10
154.6435241699218
 20
-15.85411071777344
 30
-6.0
 70
   192
  0
VERTEX
  5
147
  8
METAL
 10
154.6435241699218
 20
-15.72813415527344
 30
-5.999998092651367
 70
   192
  0
VERTEX
  5
148
  8
METAL
 10
154.6435241699218
 20
-15.72813415527344
 30
-5.999998092651367
 70
   192
  0
VERTEX
  5
149
  8
METAL
 10
0.0
 20
0.0
 30
0.0
 70
   128
 71
    73
 72
    79
 73
    87
 74
    81
  0
VERTEX
  5
14A
  8
METAL
 10
0.0
 20
0.0
 30
0.0
 70
   128
 71
    76
 72
    78
 73
    86
 74
    84
  0
VERTEX
  5
14B
  8
METAL
 10
0.0
 20
0.0
 30
0.0
 70
   128
 71
    80
 72
    75
 73
    83
 74
    88
  0
VERTEX
  5
14C
  8
METAL
 10
0.0
 20
0.0
 30
0.0
 70
   128
 71
   111
 72
   119
 73
   107
 74
   107
  0
VERTEX
  5
14D
  8
METAL
 10
0.0
 20
0.0
 30
0.0
 70
   128
 71
   103
 72
    99
 73
    91
 74
    95
  0
VERTEX
  5
14E
  8
METAL
 10
0.0
 20
0.0
 30
0.0
 70
   128
 71
   106
 72
   118
 73
   110
 74
   110
  0
VERTEX
  5
14F
  8
METAL
 10
0.0
 20
0.0
 30
0.0
 70
   128
 71
    98
 72
   102
 73
    94
 74
    90
  0
VERTEX
  5
150
  8
METAL
 10
0.0
 20
0.0
 30
0.0
 70
   128
 71
   116
 72
   120
 73
   112
 74
   109
  0
VERTEX
  5
151
  8
METAL
 10
0.0
 20
0.0
 30
0.0
 70
   128
 71
   101
 72
   104
 73
    96
 74
    93
  0
VERTEX
  5
152
  8
METAL
 10
0.0
 20
0.0
 30
0.0
 70
   128
 71
   108
 72
   113
 73
   114
 74
   105
  0
VERTEX
  5
153
  8
METAL
 10
0.0
 20
0.0
 30
0.0
 70
   128
 71
    92
 72
   100
 73
    97
 74
    89
  0
VERTEX
  5
154
  8
METAL
 10
0.0
 20
0.0
 30
0.0
 70
   128
 71
   134
 72
   130
 73
   127
 74
   127
  0
VERTEX
  5
155
  8
METAL
 10
0.0
 20
0.0
 30
0.0
 70
   128
 71
   134
 72
   127
 73
   124
 74
   122
  0
VERTEX
  5
156
  8
METAL
 10
0.0
 20
0.0
 30
0.0
 70
   128
 71
   134
 72
   122
 73
   118
 74
   117
  0
VERTEX
  5
157
  8
METAL
 10
0.0
 20
0.0
 30
0.0
 70
   128
 71
   115
 72
   134
 73
   118
 74
   118
  0
VERTEX
  5
158
  8
METAL
 10
0.0
 20
0.0
 30
0.0
 70
   128
 71
   113
 72
   136
 73
   133
 74
   114
  0
VERTEX
  5
159
  8
METAL
 10
0.0
 20
0.0
 30
0.0
 70
   128
 71
   111
 72
   107
 73
    99
 74
   103
  0
VERTEX
  5
15A
  8
METAL
 10
0.0
 20
0.0
 30
0.0
 70
   128
 71
   106
 72
   110
 73
   102
 74
    98
  0
VERTEX
  5
15B
  8
METAL
 10
0.0
 20
0.0
 30
0.0
 70
   128
 71
   109
 72
   112
 73
   104
 74
   101
  0
VERTEX
  5
15C
  8
METAL
 10
0.0
 20
0.0
 30
0.0
 70
   128
 71
   100
 72
   108
 73
   105
 74
    97
  0
VERTEX
  5
15D
  8
METAL
 10
0.0
 20
0.0
 30
0.0
 70
   128
 71
   123
 72
   120
 73
   116
 74
   121
  0
VERTEX
  5
15E
  8
METAL
 10
0.0
 20
0.0
 30
0.0
 70
   128
 71
   126
 72
   123
 73
   121
 74
   125
  0
VERTEX
  5
15F
  8
METAL
 10
0.0
 20
0.0
 30
0.0
 70
   128
 71
   129
 72
   126
 73
   125
 74
   128
  0
VERTEX
  5
160
  8
METAL
 10
0.0
 20
0.0
 30
0.0
 70
   128
 71
   132
 72
   129
 73
   128
 74
   131
  0
VERTEX
  5
161
  8
METAL
 10
0.0
 20
0.0
 30
0.0
 70
   128
 71
   137
 72
   132
 73
   131
 74
   135
  0
VERTEX
  5
162
  8
METAL
 10
0.0
 20
0.0
 30
0.0
 70
   128
 71
   106
 72
   115
 73
   118
 74
   118
  0
VERTEX
  5
163
  8
METAL
 10
0.0
 20
0.0
 30
0.0
 70
   128
 71
    82
 72
    85
 73
    77
 74
    74
  0
VERTEX
  5
164
  8
METAL
 10
0.0
 20
0.0
 30
0.0
 70
   128
 71
    64
 72
    60
 73
    50
 74
    54
  0
VERTEX
  5
165
  8
METAL
 10
0.0
 20
0.0
 30
0.0
 70
   128
 71
    57
 72
    61
 73
    55
 74
    51
  0
VERTEX
  5
166
  8
METAL
 10
0.0
 20
0.0
 30
0.0
 70
   128
 71
    62
 72
    63
 73
    53
 74
    56
  0
VERTEX
  5
167
  8
METAL
 10
0.0
 20
0.0
 30
0.0
 70
   128
 71
    32
 72
    28
 73
    23
 74
    23
  0
VERTEX
  5
168
  8
METAL
 10
0.0
 20
0.0
 30
0.0
 70
   128
 71
    40
 72
    48
 73
    44
 74
    36
  0
VERTEX
  5
169
  8
METAL
 10
0.0
 20
0.0
 30
0.0
 70
   128
 71
    25
 72
    29
 73
    20
 74
    20
  0
VERTEX
  5
16A
  8
METAL
 10
0.0
 20
0.0
 30
0.0
 70
   128
 71
    33
 72
    41
 73
    45
 74
    37
  0
VERTEX
  5
16B
  8
METAL
 10
0.0
 20
0.0
 30
0.0
 70
   128
 71
    21
 72
    30
 73
    31
 74
    22
  0
VERTEX
  5
16C
  8
METAL
 10
0.0
 20
0.0
 30
0.0
 70
   128
 71
    38
 72
    46
 73
    47
 74
    39
  0
VERTEX
  5
16D
  8
METAL
 10
0.0
 20
0.0
 30
0.0
 70
   128
 71
    27
 72
    26
 73
    19
 74
    24
  0
VERTEX
  5
16E
  8
METAL
 10
0.0
 20
0.0
 30
0.0
 70
   128
 71
    43
 72
    42
 73
    34
 74
    35
  0
VERTEX
  5
16F
  8
METAL
 10
0.0
 20
0.0
 30
0.0
 70
   128
 71
     7
 72
     2
 73
    10
 74
    10
  0
VERTEX
  5
170
  8
METAL
 10
0.0
 20
0.0
 30
0.0
 70
   128
 71
    13
 72
    10
 73
     2
 74
    15
  0
VERTEX
  5
171
  8
METAL
 10
0.0
 20
0.0
 30
0.0
 70
   128
 71
    15
 72
     2
 73
    20
 74
    20
  0
VERTEX
  5
172
  8
METAL
 10
0.0
 20
0.0
 30
0.0
 70
   128
 71
    18
 72
    20
 73
     2
 74
     2
  0
VERTEX
  5
173
  8
METAL
 10
0.0
 20
0.0
 30
0.0
 70
   128
 71
    24
 72
    19
 73
     3
 74
     5
  0
VERTEX
  5
174
  8
METAL
 10
0.0
 20
0.0
 30
0.0
 70
   128
 71
    32
 72
    40
 73
    36
 74
    28
  0
VERTEX
  5
175
  8
METAL
 10
0.0
 20
0.0
 30
0.0
 70
   128
 71
    25
 72
    33
 73
    37
 74
    29
  0
VERTEX
  5
176
  8
METAL
 10
0.0
 20
0.0
 30
0.0
 70
   128
 71
    30
 72
    38
 73
    39
 74
    31
  0
VERTEX
  5
177
  8
METAL
 10
0.0
 20
0.0
 30
0.0
 70
   128
 71
    35
 72
    34
 73
    26
 74
    27
  0
VERTEX
  5
178
  8
METAL
 10
0.0
 20
0.0
 30
0.0
 70
   128
 71
    17
 72
    16
 73
    21
 74
    22
  0
VERTEX
  5
179
  8
METAL
 10
0.0
 20
0.0
 30
0.0
 70
   128
 71
    14
 72
    12
 73
    16
 74
    17
  0
VERTEX
  5
17A
  8
METAL
 10
0.0
 20
0.0
 30
0.0
 70
   128
 71
    11
 72
     9
 73
    12
 74
    14
  0
VERTEX
  5
17B
  8
METAL
 10
0.0
 20
0.0
 30
0.0
 70
   128
 71
     8
 72
     6
 73
     9
 74
    11
  0
VERTEX
  5
17C
  8
METAL
 10
0.0
 20
0.0
 30
0.0
 70
   128
 71
     4
 72
     1
 73
     6
 74
     8
  0
VERTEX
  5
17D
  8
METAL
 10
0.0
 20
0.0
 30
0.0
 70
   128
 71
    25
 72
    20
 73
    18
 74
    18
  0
VERTEX
  5
17E
  8
METAL
 10
0.0
 20
0.0
 30
0.0
 70
   128
 71
    52
 72
    49
 73
    59
 74
    58
  0
VERTEX
  5
17F
  8
METAL
 10
0.0
 20
0.0
 30
0.0
 70
   128
 71
    68
 72
    72
 73
    79
 74
    73
  0
VERTEX
  5
180
  8
METAL
 10
0.0
 20
0.0
 30
0.0
 70
   128
 71
    95
 72
    91
 73
    81
 74
    87
  0
VERTEX
  5
181
  8
METAL
 10
0.0
 20
0.0
 30
0.0
 70
   128
 71
    70
 72
    66
 73
    78
 74
    76
  0
VERTEX
  5
182
  8
METAL
 10
0.0
 20
0.0
 30
0.0
 70
   128
 71
    90
 72
    94
 73
    84
 74
    86
  0
VERTEX
  5
183
  8
METAL
 10
0.0
 20
0.0
 30
0.0
 70
   128
 71
    71
 72
    69
 73
    75
 74
    80
  0
VERTEX
  5
184
  8
METAL
 10
0.0
 20
0.0
 30
0.0
 70
   128
 71
    93
 72
    96
 73
    88
 74
    83
  0
VERTEX
  5
185
  8
METAL
 10
0.0
 20
0.0
 30
0.0
 70
   128
 71
    92
 72
    89
 73
    85
 74
    82
  0
VERTEX
  5
186
  8
METAL
 10
0.0
 20
0.0
 30
0.0
 70
   128
 71
    65
 72
    67
 73
    74
 74
    77
  0
VERTEX
  5
187
  8
METAL
 10
0.0
 20
0.0
 30
0.0
 70
   128
 71
    72
 72
    68
 73
    60
 74
    64
  0
VERTEX
  5
188
  8
METAL
 10
0.0
 20
0.0
 30
0.0
 70
   128
 71
    44
 72
    48
 73
    54
 74
    50
  0
VERTEX
  5
189
  8
METAL
 10
0.0
 20
0.0
 30
0.0
 70
   128
 71
    66
 72
    70
 73
    61
 74
    57
  0
VERTEX
  5
18A
  8
METAL
 10
0.0
 20
0.0
 30
0.0
 70
   128
 71
    45
 72
    41
 73
    51
 74
    55
  0
VERTEX
  5
18B
  8
METAL
 10
0.0
 20
0.0
 30
0.0
 70
   128
 71
    69
 72
    71
 73
    63
 74
    62
  0
VERTEX
  5
18C
  8
METAL
 10
0.0
 20
0.0
 30
0.0
 70
   128
 71
    47
 72
    46
 73
    56
 74
    53
  0
VERTEX
  5
18D
  8
METAL
 10
0.0
 20
0.0
 30
0.0
 70
   128
 71
    42
 72
    43
 73
    49
 74
    52
  0
VERTEX
  5
18E
  8
METAL
 10
0.0
 20
0.0
 30
0.0
 70
   128
 71
    67
 72
    65
 73
    58
 74
    59
  0
SEQEND
  5
1DC
  8
METAL
  0
ENDSEC
  0
EOF
