  0
SECTION
  2
HEADER
  9
$ACADVER
  1
AC1021
  9
$ACADMAINTVER
 70
    39
  9
$DWGCODEPAGE
  3
ANSI_1252
  9
$LASTSAVEDBY
  1
fottrem
  9
$INSBASE
 10
0.0
 20
0.0
 30
0.0
  9
$EXTMIN
 10
-2.71898561371313
 20
-139.7105550765992
 30
-0.0000000000000018
  9
$EXTMAX
 10
34.0
 20
5.000000000000025
 30
132.2859275341041
  9
$LIMMIN
 10
-150.0
 20
-150.0
  9
$LIMMAX
 10
150.0
 20
150.0
  9
$ORTHOMODE
 70
     1
  9
$REGENMODE
 70
     1
  9
$FILLMODE
 70
     1
  9
$QTEXTMODE
 70
     0
  9
$MIRRTEXT
 70
     0
  9
$LTSCALE
 40
1.0
  9
$ATTMODE
 70
     1
  9
$TEXTSIZE
 40
3.5
  9
$TRACEWID
 40
1.0
  9
$TEXTSTYLE
  7
BESCHLAG
  9
$CLAYER
  8
ACESSORIOS
  9
$CELTYPE
  6
ByLayer
  9
$CECOLOR
 62
   256
  9
$CELTSCALE
 40
1.0
  9
$DISPSILH
 70
     0
  9
$DIMSCALE
 40
1.0
  9
$DIMASZ
 40
10.0
  9
$DIMEXO
 40
1.0
  9
$DIMDLI
 40
8.0
  9
$DIMRND
 40
0.0
  9
$DIMDLE
 40
0.0
  9
$DIMEXE
 40
1.0
  9
$DIMTP
 40
0.0
  9
$DIMTM
 40
0.0
  9
$DIMTXT
 40
10.0
  9
$DIMCEN
 40
2.0
  9
$DIMTSZ
 40
0.0
  9
$DIMTOL
 70
     0
  9
$DIMLIM
 70
     0
  9
$DIMTIH
 70
     0
  9
$DIMTOH
 70
     0
  9
$DIMSE1
 70
     0
  9
$DIMSE2
 70
     0
  9
$DIMTAD
 70
     1
  9
$DIMZIN
 70
     8
  9
$DIMBLK
  1

  9
$DIMASO
 70
     1
  9
$DIMSHO
 70
     1
  9
$DIMPOST
  1

  9
$DIMAPOST
  1

  9
$DIMALT
 70
     0
  9
$DIMALTD
 70
     2
  9
$DIMALTF
 40
0.039370078740157
  9
$DIMLFAC
 40
1.0
  9
$DIMTOFL
 70
     1
  9
$DIMTVP
 40
0.0
  9
$DIMTIX
 70
     1
  9
$DIMSOXD
 70
     0
  9
$DIMSAH
 70
     0
  9
$DIMBLK1
  1

  9
$DIMBLK2
  1

  9
$DIMSTYLE
  2
BEMASSUNG_GROSS
  9
$DIMCLRD
 70
   256
  9
$DIMCLRE
 70
   256
  9
$DIMCLRT
 70
   256
  9
$DIMTFAC
 40
0.71
  9
$DIMGAP
 40
5.0
  9
$DIMJUST
 70
     0
  9
$DIMSD1
 70
     0
  9
$DIMSD2
 70
     0
  9
$DIMTOLJ
 70
     1
  9
$DIMTZIN
 70
     0
  9
$DIMALTZ
 70
     0
  9
$DIMALTTZ
 70
     0
  9
$DIMUPT
 70
     0
  9
$DIMDEC
 70
     4
  9
$DIMTDEC
 70
     4
  9
$DIMALTU
 70
     2
  9
$DIMALTTD
 70
     2
  9
$DIMTXSTY
  7
Standard
  9
$DIMAUNIT
 70
     0
  9
$DIMADEC
 70
     0
  9
$DIMALTRND
 40
0.0
  9
$DIMAZIN
 70
     0
  9
$DIMDSEP
 70
    46
  9
$DIMATFIT
 70
     3
  9
$DIMFRAC
 70
     0
  9
$DIMLDRBLK
  1

  9
$DIMLUNIT
 70
     2
  9
$DIMLWD
 70
    -2
  9
$DIMLWE
 70
    -2
  9
$DIMTMOVE
 70
     0
  9
$DIMFXL
 40
1.0
  9
$DIMFXLON
 70
     0
  9
$DIMJOGANG
 40
0.7853981633974483
  9
$DIMTFILL
 70
     0
  9
$DIMTFILLCLR
 70
     0
  9
$DIMARCSYM
 70
     0
  9
$DIMLTYPE
  6

  9
$DIMLTEX1
  6

  9
$DIMLTEX2
  6

  9
$LUNITS
 70
     2
  9
$LUPREC
 70
     1
  9
$SKETCHINC
 40
1.0
  9
$FILLETRAD
 40
1.0
  9
$AUNITS
 70
     0
  9
$AUPREC
 70
     1
  9
$MENU
  1
.
  9
$ELEVATION
 40
0.0
  9
$PELEVATION
 40
0.0
  9
$THICKNESS
 40
0.0
  9
$LIMCHECK
 70
     0
  9
$CHAMFERA
 40
1.0
  9
$CHAMFERB
 40
1.0
  9
$CHAMFERC
 40
1.0
  9
$CHAMFERD
 40
0.0
  9
$SKPOLY
 70
     0
  9
$TDCREATE
 40
2453353.633792454
  9
$TDUCREATE
 40
2453353.717125787
  9
$TDUPDATE
 40
2455435.267207315
  9
$TDUUPDATE
 40
2455435.350540648
  9
$TDINDWG
 40
16.1479765856
  9
$TDUSRTIMER
 40
16.1479649884
  9
$USRTIMER
 70
     1
  9
$ANGBASE
 50
0.0
  9
$ANGDIR
 70
     0
  9
$PDMODE
 70
    35
  9
$PDSIZE
 40
5.0
  9
$PLINEWID
 40
0.0
  9
$SPLFRAME
 70
     0
  9
$SPLINETYPE
 70
     6
  9
$SPLINESEGS
 70
     8
  9
$HANDSEED
  5
10197
  9
$SURFTAB1
 70
    12
  9
$SURFTAB2
 70
    12
  9
$SURFTYPE
 70
     6
  9
$SURFU
 70
    12
  9
$SURFV
 70
    12
  9
$UCSBASE
  2

  9
$UCSNAME
  2

  9
$UCSORG
 10
0.0
 20
0.0
 30
0.0
  9
$UCSXDIR
 10
1.0
 20
0.0
 30
0.0
  9
$UCSYDIR
 10
0.0
 20
1.0
 30
0.0
  9
$UCSORTHOREF
  2

  9
$UCSORTHOVIEW
 70
     0
  9
$UCSORGTOP
 10
0.0
 20
0.0
 30
0.0
  9
$UCSORGBOTTOM
 10
0.0
 20
0.0
 30
0.0
  9
$UCSORGLEFT
 10
0.0
 20
0.0
 30
0.0
  9
$UCSORGRIGHT
 10
0.0
 20
0.0
 30
0.0
  9
$UCSORGFRONT
 10
0.0
 20
0.0
 30
0.0
  9
$UCSORGBACK
 10
0.0
 20
0.0
 30
0.0
  9
$PUCSBASE
  2

  9
$PUCSNAME
  2

  9
$PUCSORG
 10
0.0
 20
0.0
 30
0.0
  9
$PUCSXDIR
 10
1.0
 20
0.0
 30
0.0
  9
$PUCSYDIR
 10
0.0
 20
1.0
 30
0.0
  9
$PUCSORTHOREF
  2

  9
$PUCSORTHOVIEW
 70
     0
  9
$PUCSORGTOP
 10
0.0
 20
0.0
 30
0.0
  9
$PUCSORGBOTTOM
 10
0.0
 20
0.0
 30
0.0
  9
$PUCSORGLEFT
 10
0.0
 20
0.0
 30
0.0
  9
$PUCSORGRIGHT
 10
0.0
 20
0.0
 30
0.0
  9
$PUCSORGFRONT
 10
0.0
 20
0.0
 30
0.0
  9
$PUCSORGBACK
 10
0.0
 20
0.0
 30
0.0
  9
$USERI1
 70
     0
  9
$USERI2
 70
     0
  9
$USERI3
 70
     0
  9
$USERI4
 70
     0
  9
$USERI5
 70
     0
  9
$USERR1
 40
0.0
  9
$USERR2
 40
0.0
  9
$USERR3
 40
0.0
  9
$USERR4
 40
0.0
  9
$USERR5
 40
0.0
  9
$WORLDVIEW
 70
     1
  9
$SHADEDGE
 70
     3
  9
$SHADEDIF
 70
    70
  9
$TILEMODE
 70
     1
  9
$MAXACTVP
 70
    48
  9
$PINSBASE
 10
0.0
 20
0.0
 30
0.0
  9
$PLIMCHECK
 70
     0
  9
$PEXTMIN
 10
1.000000000000000E+20
 20
1.000000000000000E+20
 30
1.000000000000000E+20
  9
$PEXTMAX
 10
-1.000000000000000E+20
 20
-1.000000000000000E+20
 30
-1.000000000000000E+20
  9
$PLIMMIN
 10
0.0
 20
0.0
  9
$PLIMMAX
 10
420.0
 20
297.0
  9
$UNITMODE
 70
     0
  9
$VISRETAIN
 70
     1
  9
$PLINEGEN
 70
     0
  9
$PSLTSCALE
 70
     1
  9
$TREEDEPTH
 70
  3020
  9
$CMLSTYLE
  2
Standard
  9
$CMLJUST
 70
     0
  9
$CMLSCALE
 40
1.0
  9
$PROXYGRAPHICS
 70
     1
  9
$MEASUREMENT
 70
     0
  9
$CELWEIGHT
370
    -1
  9
$ENDCAPS
280
     0
  9
$JOINSTYLE
280
     0
  9
$LWDISPLAY
290
     0
  9
$INSUNITS
 70
     0
  9
$HYPERLINKBASE
  1

  9
$STYLESHEET
  1

  9
$XEDIT
290
     1
  9
$CEPSNTYPE
380
     0
  9
$PSTYLEMODE
290
     1
  9
$FINGERPRINTGUID
  2
{63811B9F-A441-4905-A626-4AEDC17E5440}
  9
$VERSIONGUID
  2
{FAEB1C32-E019-11D5-929B-00C0DF256EC4}
  9
$EXTNAMES
290
     1
  9
$PSVPSCALE
 40
0.0
  9
$OLESTARTUP
290
     0
  9
$SORTENTS
280
   127
  9
$INDEXCTL
280
     0
  9
$HIDETEXT
280
     1
  9
$XCLIPFRAME
290
     0
  9
$HALOGAP
280
     0
  9
$OBSCOLOR
 70
   257
  9
$OBSLTYPE
280
     0
  9
$INTERSECTIONDISPLAY
280
     0
  9
$INTERSECTIONCOLOR
 70
   257
  9
$DIMASSOC
280
     2
  9
$PROJECTNAME
  1

  9
$CAMERADISPLAY
290
     0
  9
$LENSLENGTH
 40
50.0
  9
$CAMERAHEIGHT
 40
0.0
  9
$STEPSPERSEC
 40
2.0
  9
$STEPSIZE
 40
6.0
  9
$3DDWFPREC
 40
2.0
  9
$PSOLWIDTH
 40
0.25
  9
$PSOLHEIGHT
 40
4.0
  9
$LOFTANG1
 40
1.570796326794897
  9
$LOFTANG2
 40
1.570796326794897
  9
$LOFTMAG1
 40
1.0
  9
$LOFTMAG2
 40
1.0
  9
$LOFTPARAM
 70
     7
  9
$LOFTNORMALS
280
     1
  9
$LATITUDE
 40
37.795
  9
$LONGITUDE
 40
-122.394
  9
$NORTHDIRECTION
 40
0.0
  9
$TIMEZONE
 70
 -8000
  9
$LIGHTGLYPHDISPLAY
280
     1
  9
$TILEMODELIGHTSYNCH
280
     1
  9
$SOLIDHIST
280
     1
  9
$SHOWHIST
280
     1
  9
$DWFFRAME
280
     0
  9
$DGNFRAME
280
     2
  9
$REALWORLDSCALE
290
     1
  9
$INTERFERECOLOR
 62
   256
  9
$CSHADOW
280
     0
  9
$SHADOWPLANELOCATION
 40
0.0
  0
ENDSEC
  0
SECTION
  2
CLASSES
  0
CLASS
  1
ACDBDICTIONARYWDFLT
  2
AcDbDictionaryWithDefault
  3
ObjectDBX Classes
 90
        0
 91
        3
280
     0
281
     0
  0
CLASS
  1
ACDBPLACEHOLDER
  2
AcDbPlaceHolder
  3
ObjectDBX Classes
 90
        0
 91
        1
280
     0
281
     0
  0
CLASS
  1
LAYOUT
  2
AcDbLayout
  3
ObjectDBX Classes
 90
        0
 91
        1
280
     0
281
     0
  0
CLASS
  1
DICTIONARYVAR
  2
AcDbDictionaryVar
  3
ObjectDBX Classes
 90
        0
 91
        3
280
     0
281
     0
  0
CLASS
  1
TABLESTYLE
  2
AcDbTableStyle
  3
ObjectDBX Classes
 90
     4095
 91
        3
280
     0
281
     0
  0
ENDSEC
  0
SECTION
  2
TABLES
  0
TABLE
  2
VPORT
  5
8
330
0
100
AcDbSymbolTable
 70
     2
  0
VPORT
  5
97
330
8
100
AcDbSymbolTableRecord
100
AcDbViewportTableRecord
  2
*ACTIVE
 70
     0
 10
0.0
 20
0.0
 11
1.0
 21
1.0
 12
129.273549403109
 22
64.50516488721223
 13
0.0
 23
0.0
 14
1.0
 24
1.0
 15
10.0
 25
10.0
 16
-1.0
 26
-1.0
 36
1.0
 17
0.0
 27
0.0
 37
0.0
 40
252.4075347478265
 41
1.983801295896328
 42
50.0
 43
0.0
 44
0.0
 50
0.0
 51
0.0
 71
    16
 72
   800
 73
     0
 74
     0
 75
     0
 76
     0
 77
     0
 78
     0
281
     0
 65
     1
110
0.0
120
0.0
130
0.0
111
1.0
121
0.0
131
0.0
112
0.0
122
1.0
132
0.0
 79
     0
146
0.0
 60
     0
 61
     5
292
     1
282
     1
141
0.0
142
0.0
 63
   256
  0
ENDTAB
  0
TABLE
  2
LTYPE
  5
5
330
0
100
AcDbSymbolTable
 70
     9
  0
LTYPE
  5
14
330
5
100
AcDbSymbolTableRecord
100
AcDbLinetypeTableRecord
  2
ByBlock
 70
     0
  3

 72
    65
 73
     0
 40
0.0
  0
LTYPE
  5
15
330
5
100
AcDbSymbolTableRecord
100
AcDbLinetypeTableRecord
  2
ByLayer
 70
     0
  3

 72
    65
 73
     0
 40
0.0
  0
LTYPE
  5
16
330
5
100
AcDbSymbolTableRecord
100
AcDbLinetypeTableRecord
  2
Continuous
 70
     0
  3
_______________________________________________
 72
    65
 73
     2
 40
1.0
 49
1.0
 74
     0
 49
0.0
 74
     0
  0
LTYPE
  5
1011B
330
5
100
AcDbSymbolTableRecord
100
AcDbLinetypeTableRecord
  2
MITTE
 70
     0
  3
Mitte ____ _ ____ _ ____ _ ____ _ ____ _ ____
 72
    65
 73
     4
 40
50.8
 49
31.75
 74
     0
 49
-6.349999999999999
 74
     0
 49
6.349999999999999
 74
     0
 49
-6.349999999999999
 74
     0
  0
LTYPE
  5
1011C
330
5
100
AcDbSymbolTableRecord
100
AcDbLinetypeTableRecord
  2
STRICHLINIE
 70
     0
  3
Strichlinie __ __ __ __ __ __ __ __ __ __ __ __
 72
    65
 73
     2
 40
19.05
 49
12.7
 74
     0
 49
-6.349999999999999
 74
     0
  0
LTYPE
  5
1011D
330
5
100
AcDbSymbolTableRecord
100
AcDbLinetypeTableRecord
  2
PHANTOM
 70
     0
  3
Phantom ______  __  __  ______  __  __  ______
 72
    65
 73
     6
 40
63.50000000000001
 49
31.75
 74
     0
 49
-6.349999999999999
 74
     0
 49
6.349999999999999
 74
     0
 49
-6.349999999999999
 74
     0
 49
6.349999999999999
 74
     0
 49
-6.349999999999999
 74
     0
  0
LTYPE
  5
1011E
330
5
100
AcDbSymbolTableRecord
100
AcDbLinetypeTableRecord
  2
PUNKT
 70
     0
  3
Punkt . . . . . . . . . . . . . . . . . . . . .
 72
    65
 73
     2
 40
6.349999999999999
 49
0.0
 74
     0
 49
-6.349999999999999
 74
     0
  0
LTYPE
  5
1011F
330
5
100
AcDbSymbolTableRecord
100
AcDbLinetypeTableRecord
  2
MITTE2
 70
     0
  3
Mitte (.5x) ___ _ ___ _ ___ _ ___ _ ___ _ ___
 72
    65
 73
     4
 40
28.575
 49
19.05
 74
     0
 49
-3.174999999999999
 74
     0
 49
3.174999999999999
 74
     0
 49
-3.174999999999999
 74
     0
  0
LTYPE
  5
10120
330
5
100
AcDbSymbolTableRecord
100
AcDbLinetypeTableRecord
  2
STRICHLINIE2
 70
     0
  3
Strichlinie (.5x) _ _ _ _ _ _ _ _ _ _ _ _ _ _ _
 72
    65
 73
     2
 40
9.524999999999999
 49
6.349999999999999
 74
     0
 49
-3.174999999999999
 74
     0
  0
LTYPE
  5
10121
330
5
100
AcDbSymbolTableRecord
100
AcDbLinetypeTableRecord
  2
PUNKT2
 70
     0
  3
Punkt (.5x) ...................................
 72
    65
 73
     2
 40
3.174999999999999
 49
0.0
 74
     0
 49
-3.174999999999999
 74
     0
  0
LTYPE
  5
10122
330
5
100
AcDbSymbolTableRecord
100
AcDbLinetypeTableRecord
  2
CENTER
 70
     0
  3
Center ____ _ ____ _ ____ _ ____ _ ____ _ ____
 72
    65
 73
     4
 40
10.16
 49
6.349999999999999
 74
     0
 49
-1.27
 74
     0
 49
1.27
 74
     0
 49
-1.27
 74
     0
  0
ENDTAB
  0
TABLE
  2
LAYER
  5
2
330
0
100
AcDbSymbolTable
 70
     5
  0
LAYER
  5
10
330
2
100
AcDbSymbolTableRecord
100
AcDbLayerTableRecord
  2
0
 70
     0
 62
     7
  6
Continuous
370
    -3
390
F
347
0
  0
LAYER
  5
FFD8
330
2
100
AcDbSymbolTableRecord
100
AcDbLayerTableRecord
  2
ACESSORIOS
 70
     0
 62
     1
  6
Continuous
370
    -3
390
F
347
0
  0
LAYER
  5
FFD9
330
2
100
AcDbSymbolTableRecord
100
AcDbLayerTableRecord
  2
DT_RENDER
 70
     0
 62
     7
  6
Continuous
370
    -3
390
F
347
0
  0
LAYER
  5
100EC
330
2
100
AcDbSymbolTableRecord
100
AcDbLayerTableRecord
  2
CINZA
 70
     0
 62
     9
  6
Continuous
370
    -3
390
F
347
0
  0
LAYER
  5
100ED
330
2
100
AcDbSymbolTableRecord
100
AcDbLayerTableRecord
  2
PRETO
 70
     0
 62
    28
  6
Continuous
370
    -3
390
F
347
0
  0
ENDTAB
  0
TABLE
  2
STYLE
  5
3
330
0
100
AcDbSymbolTable
 70
     5
  0
STYLE
  5
11
330
3
100
AcDbSymbolTableRecord
100
AcDbTextStyleTableRecord
  2
Standard
 70
     0
 40
0.0
 41
1.0
 50
0.0
 71
     0
 42
2.5
  3
ARIAL.TTF
  4

  0
STYLE
  5
FFDB
330
3
100
AcDbSymbolTableRecord
100
AcDbTextStyleTableRecord
  2
BESCHLAG
 70
     0
 40
0.0
 41
1.0
 50
0.0
 71
     0
 42
3.5
  3
SIMPLEX
  4

  0
STYLE
  5
FFDC
330
3
100
AcDbSymbolTableRecord
100
AcDbTextStyleTableRecord
  2

 70
     1
 40
0.0
 41
1.0
 50
0.0
 71
     0
 42
3.5
  3
ltypeshp.shx
  4

  0
STYLE
  5
FFDD
330
3
100
AcDbSymbolTableRecord
100
AcDbTextStyleTableRecord
  2
ANNOTATIVE
 70
     0
 40
0.0
 41
1.0
 50
0.0
 71
     0
 42
0.2
  3
SIMPLEX
  4

  0
STYLE
  5
FFDE
330
3
100
AcDbSymbolTableRecord
100
AcDbTextStyleTableRecord
  2
SLDTEXTSTYLE0
 70
     0
 40
0.0
 41
0.605
 50
0.0
 71
     0
 42
0.2
  3
TXT
  4

  0
ENDTAB
  0
TABLE
  2
VIEW
  5
6
330
0
100
AcDbSymbolTable
 70
     0
  0
ENDTAB
  0
TABLE
  2
UCS
  5
7
330
0
100
AcDbSymbolTable
 70
     0
  0
ENDTAB
  0
TABLE
  2
APPID
  5
9
330
0
100
AcDbSymbolTable
 70
    17
  0
APPID
  5
12
330
9
100
AcDbSymbolTableRecord
100
AcDbRegAppTableRecord
  2
ACAD
 70
     0
  0
APPID
  5
1010B
330
9
100
AcDbSymbolTableRecord
100
AcDbRegAppTableRecord
  2
ACAD_MLEADERVER
 70
     0
  0
APPID
  5
1010C
330
9
100
AcDbSymbolTableRecord
100
AcDbRegAppTableRecord
  2
ACAD_EXEMPT_FROM_CAD_STAND
 70
     0
  0
APPID
  5
1010D
330
9
100
AcDbSymbolTableRecord
100
AcDbRegAppTableRecord
  2
ACADANNOTATIVE
 70
     0
  0
APPID
  5
1010E
330
9
100
AcDbSymbolTableRecord
100
AcDbRegAppTableRecord
  2
ACAD_DSTYLE_DIMJOGGED_JOGA
 70
     0
  0
APPID
  5
1010F
330
9
100
AcDbSymbolTableRecord
100
AcDbRegAppTableRecord
  2
ACAUTHENVIRON
 70
     0
  0
APPID
  5
10110
330
9
100
AcDbSymbolTableRecord
100
AcDbRegAppTableRecord
  2
ACDBDYNAMICBLOCKTRUENAME
 70
     0
  0
APPID
  5
10111
330
9
100
AcDbSymbolTableRecord
100
AcDbRegAppTableRecord
  2
ACDBDYNAMICBLOCKGUID
 70
     0
  0
APPID
  5
10112
330
9
100
AcDbSymbolTableRecord
100
AcDbRegAppTableRecord
  2
ACDBBLOCKREPETAG
 70
     0
  0
APPID
  5
10113
330
9
100
AcDbSymbolTableRecord
100
AcDbRegAppTableRecord
  2
ACAD_DSTYLE_DIMRADIAL_EXTE
 70
     0
  0
APPID
  5
10114
330
9
100
AcDbSymbolTableRecord
100
AcDbRegAppTableRecord
  2
ACAD_DSTYLE_DIMJAG
 70
     0
  0
APPID
  5
10115
330
9
100
AcDbSymbolTableRecord
100
AcDbRegAppTableRecord
  2
ACAD_DSTYLE_DIMTALN
 70
     0
  0
APPID
  5
10116
330
9
100
AcDbSymbolTableRecord
100
AcDbRegAppTableRecord
  2
ACAD_PSEXT
 70
     0
  0
APPID
  5
10117
330
9
100
AcDbSymbolTableRecord
100
AcDbRegAppTableRecord
  2
ACAD_DSTYLE_DIMBREAK
 70
     0
  0
APPID
  5
10118
330
9
100
AcDbSymbolTableRecord
100
AcDbRegAppTableRecord
  2
DTRENDER2
 70
     0
  0
APPID
  5
10119
330
9
100
AcDbSymbolTableRecord
100
AcDbRegAppTableRecord
  2
DT_MAT_ASSIGN
 70
     0
  0
APPID
  5
1011A
330
9
100
AcDbSymbolTableRecord
100
AcDbRegAppTableRecord
  2
DT_MAT_MAPPING
 70
     0
  0
ENDTAB
  0
TABLE
  2
DIMSTYLE
  5
A
330
0
100
AcDbSymbolTable
 70
     9
100
AcDbDimStyleTable
  0
DIMSTYLE
105
27
330
A
100
AcDbSymbolTableRecord
100
AcDbDimStyleTableRecord
  2
Standard
 70
     0
340
FFDB
  0
DIMSTYLE
105
FFF1
330
A
100
AcDbSymbolTableRecord
100
AcDbDimStyleTableRecord
  2
BESCHLAG
 70
     0
 41
3.0
 42
1.0
 43
8.0
 44
1.0
 73
     0
 74
     0
 77
     1
 78
     8
140
3.5
141
2.0
143
0.039370078740157
146
0.71
147
1.0
172
     1
174
     1
176
   256
177
   256
178
   256
340
FFDB
  0
DIMSTYLE
105
FFF2
330
A
100
AcDbSymbolTableRecord
100
AcDbDimStyleTableRecord
  2
ISO-25
 70
     0
 41
2.5
 42
0.625
 43
3.75
 44
1.25
 73
     0
 74
     0
 77
     1
 78
     8
140
2.5
141
2.5
143
0.03937007874016
147
0.625
171
     3
172
     1
340
FFDB
  0
DIMSTYLE
105
FFF3
330
A
100
AcDbSymbolTableRecord
100
AcDbDimStyleTableRecord
  2
ANNOTATIVE
 70
     0
340
FFDB
  0
DIMSTYLE
105
FFF4
330
A
100
AcDbSymbolTableRecord
100
AcDbDimStyleTableRecord
  2
SLDDIMSTYLE0
 70
     0
 41
3.5
 44
0.0
 45
0.000000001
 73
     0
 74
     0
 77
     1
 78
    12
140
3.595646158854167
144
2.0
147
0.8989115397135417
173
     1
340
FFDB
  0
DIMSTYLE
105
FFF5
330
A
100
AcDbSymbolTableRecord
100
AcDbDimStyleTableRecord
  2
SLDDIMSTYLE1
 70
     0
 41
3.5
 44
0.0
 45
0.000000001
 73
     0
 74
     0
 77
     1
 78
    12
140
3.595646158854167
144
2.0
147
0.8989115397135417
173
     1
340
FFDB
  0
DIMSTYLE
105
FFF6
330
A
100
AcDbSymbolTableRecord
100
AcDbDimStyleTableRecord
  2
BEMASSUNG_GROSS
 70
     0
 41
10.0
 42
1.0
 43
8.0
 44
1.0
 73
     0
 74
     0
 77
     1
 78
     8
140
10.0
141
2.0
143
0.039370078740157
146
0.71
147
5.0
172
     1
174
     1
176
   256
177
   256
178
   256
340
FFDB
  0
DIMSTYLE
105
FFF7
330
A
100
AcDbSymbolTableRecord
100
AcDbDimStyleTableRecord
  2
SLDDIMSTYLE2
 70
     0
 41
3.5
 44
0.0
 45
0.000000001
 73
     0
 74
     0
 77
     1
 78
    12
140
3.595646158854166
144
2.0
147
0.8989115397135417
173
     1
340
FFDB
  0
DIMSTYLE
105
FFF8
330
A
100
AcDbSymbolTableRecord
100
AcDbDimStyleTableRecord
  2
SLDDIMSTYLE3
 70
     0
 41
3.5
 44
0.0
 45
0.000000001
 73
     0
 74
     0
 77
     1
 78
    12
140
3.595646158854166
144
2.0
147
0.8989115397135417
173
     1
340
FFDB
  0
ENDTAB
  0
TABLE
  2
BLOCK_RECORD
  5
1
330
0
100
AcDbSymbolTable
 70
    58
  0
BLOCK_RECORD
  5
1F
330
1
100
AcDbSymbolTableRecord
100
AcDbBlockTableRecord
  2
*Model_Space
340
22
 70
     0
280
     1
281
     0
  0
BLOCK_RECORD
  5
73
330
1
100
AcDbSymbolTableRecord
100
AcDbBlockTableRecord
  2
*Paper_Space
340
74
 70
     0
280
     1
281
     0
  0
BLOCK_RECORD
  5
FFFC
330
1
100
AcDbSymbolTableRecord
100
AcDbBlockTableRecord
  2
NULLPUNKT
340
0
 70
     0
280
     1
281
     0
  0
BLOCK_RECORD
  5
FFFE
330
1
100
AcDbSymbolTableRecord
100
AcDbBlockTableRecord
  2
LOGO_BLUM
340
0
 70
     0
280
     1
281
     0
  0
BLOCK_RECORD
  5
10000
330
1
100
AcDbSymbolTableRecord
100
AcDbBlockTableRecord
  2
ACL_C000
340
0
 70
     0
280
     1
281
     0
  0
BLOCK_RECORD
  5
10002
330
1
100
AcDbSymbolTableRecord
100
AcDbBlockTableRecord
  2
A$C387839CC
340
0
 70
     0
280
     1
281
     0
  0
BLOCK_RECORD
  5
10004
330
1
100
AcDbSymbolTableRecord
100
AcDbBlockTableRecord
  2
RELINGHALTER-TANDEM
340
0
 70
     0
280
     1
281
     0
  0
BLOCK_RECORD
  5
10006
330
1
100
AcDbSymbolTableRecord
100
AcDbBlockTableRecord
  2
HF
340
0
 70
     0
280
     1
281
     0
  0
BLOCK_RECORD
  5
10008
330
1
100
AcDbSymbolTableRecord
100
AcDbBlockTableRecord
  2
MP
340
0
 70
     0
280
     1
281
     0
  0
BLOCK_RECORD
  5
1000A
330
1
100
AcDbSymbolTableRecord
100
AcDbBlockTableRecord
  2
TABELLE
340
0
 70
     0
280
     1
281
     0
  0
BLOCK_RECORD
  5
1000C
330
1
100
AcDbSymbolTableRecord
100
AcDbBlockTableRecord
  2
HF_VORNE
340
0
 70
     0
280
     1
281
     0
  0
BLOCK_RECORD
  5
1000E
330
1
100
AcDbSymbolTableRecord
100
AcDbBlockTableRecord
  2
HF_SRDV_VORNE
340
0
 70
     0
280
     1
281
     0
  0
BLOCK_RECORD
  5
10010
330
1
100
AcDbSymbolTableRecord
100
AcDbBlockTableRecord
  2
A$C4A531347
340
0
 70
     0
280
     1
281
     0
  0
BLOCK_RECORD
  5
10012
330
1
100
AcDbSymbolTableRecord
100
AcDbBlockTableRecord
  2
A$C24070F84
340
0
 70
     0
280
     1
281
     0
  0
BLOCK_RECORD
  5
10014
330
1
100
AcDbSymbolTableRecord
100
AcDbBlockTableRecord
  2
KRAFTSPEICHER_HF
340
0
 70
     0
280
     1
281
     0
  0
BLOCK_RECORD
  5
10016
330
1
100
AcDbSymbolTableRecord
100
AcDbBlockTableRecord
  2
ABDECKKAPPE_HF
340
0
 70
     0
280
     1
281
     0
  0
BLOCK_RECORD
  5
10018
330
1
100
AcDbSymbolTableRecord
100
AcDbBlockTableRecord
  2
TELESKOPHEBEL_HF
340
0
 70
     0
280
     1
281
     0
  0
BLOCK_RECORD
  5
1001A
330
1
100
AcDbSymbolTableRecord
100
AcDbBlockTableRecord
  2
TELESKOPHEBEL_VORNE_HF
340
0
 70
     0
280
     1
281
     0
  0
BLOCK_RECORD
  5
1001C
330
1
100
AcDbSymbolTableRecord
100
AcDbBlockTableRecord
  2
ABDECKKAPPE_VORNE_HF
340
0
 70
     0
280
     1
281
     0
  0
BLOCK_RECORD
  5
1001E
330
1
100
AcDbSymbolTableRecord
100
AcDbBlockTableRecord
  2
KRAFTSPEICHER_HS
340
0
 70
     0
280
     1
281
     0
  0
BLOCK_RECORD
  5
10020
330
1
100
AcDbSymbolTableRecord
100
AcDbBlockTableRecord
  2
HS_VORNE
340
0
 70
     0
280
     1
281
     0
  0
BLOCK_RECORD
  5
10022
330
1
100
AcDbSymbolTableRecord
100
AcDbBlockTableRecord
  2
HS_SRDV_VORNE_
340
0
 70
     0
280
     1
281
     0
  0
BLOCK_RECORD
  5
10024
330
1
100
AcDbSymbolTableRecord
100
AcDbBlockTableRecord
  2
KRAFTSPEICHER_HS_MIT_FRONT
340
0
 70
     0
280
     1
281
     0
  0
BLOCK_RECORD
  5
10026
330
1
100
AcDbSymbolTableRecord
100
AcDbBlockTableRecord
  2
HS_HEBELPAKET_VORNE_ALU_ST
340
0
 70
     0
280
     1
281
     0
  0
BLOCK_RECORD
  5
10028
330
1
100
AcDbSymbolTableRecord
100
AcDbBlockTableRecord
  2
HS_HEBELPAKET_ALU_VORNE
340
0
 70
     0
280
     1
281
     0
  0
BLOCK_RECORD
  5
1002A
330
1
100
AcDbSymbolTableRecord
100
AcDbBlockTableRecord
  2
HL_KRAFTSPEICHER_SEITE
340
0
 70
     0
280
     1
281
     0
  0
BLOCK_RECORD
  5
1002C
330
1
100
AcDbSymbolTableRecord
100
AcDbBlockTableRecord
  2
HL_HEBELPAKET_VORNE
340
0
 70
     0
280
     1
281
     0
  0
BLOCK_RECORD
  5
1002E
330
1
100
AcDbSymbolTableRecord
100
AcDbBlockTableRecord
  2
HL_HEBELPAKET_VORNE_SRDV
340
0
 70
     0
280
     1
281
     0
  0
BLOCK_RECORD
  5
10030
330
1
100
AcDbSymbolTableRecord
100
AcDbBlockTableRecord
  2
HL_HEBELPAKET_VORNE_ALU
340
0
 70
     0
280
     1
281
     0
  0
BLOCK_RECORD
  5
10032
330
1
100
AcDbSymbolTableRecord
100
AcDbBlockTableRecord
  2
HL_HEBELPAKET_VORNE_ALU2
340
0
 70
     0
280
     1
281
     0
  0
BLOCK_RECORD
  5
10034
330
1
100
AcDbSymbolTableRecord
100
AcDbBlockTableRecord
  2
HK_KRAFTSPEICHER_SEITLICH
340
0
 70
     0
280
     1
281
     0
  0
BLOCK_RECORD
  5
10036
330
1
100
AcDbSymbolTableRecord
100
AcDbBlockTableRecord
  2
HK_KRAFTSPEICHER_VORNE_SRD
340
0
 70
     0
280
     1
281
     0
  0
BLOCK_RECORD
  5
10038
330
1
100
AcDbSymbolTableRecord
100
AcDbBlockTableRecord
  2
HK_KRAFTSPEICHER_VORNE
340
0
 70
     0
280
     1
281
     0
  0
BLOCK_RECORD
  5
1003A
330
1
100
AcDbSymbolTableRecord
100
AcDbBlockTableRecord
  2
HK_KRAFTSPEICHER_VORNE_SR0
340
0
 70
     0
280
     1
281
     0
  0
BLOCK_RECORD
  5
1003C
330
1
100
AcDbSymbolTableRecord
100
AcDbBlockTableRecord
  2
HK_KRAFTSPEICHER_ALU_VORNE
340
0
 70
     0
280
     1
281
     0
  0
BLOCK_RECORD
  5
1003E
330
1
100
AcDbSymbolTableRecord
100
AcDbBlockTableRecord
  2
HKS_KRAFTSPEICHER_SEITLICH
340
0
 70
     0
280
     1
281
     0
  0
BLOCK_RECORD
  5
10040
330
1
100
AcDbSymbolTableRecord
100
AcDbBlockTableRecord
  2
HKS_KRAFTSPEICHER_LINKS_VO
340
0
 70
     0
280
     1
281
     0
  0
BLOCK_RECORD
  5
10042
330
1
100
AcDbSymbolTableRecord
100
AcDbBlockTableRecord
  2
HKS_KRAFTSPEICHER_LRECHTS_
340
0
 70
     0
280
     1
281
     0
  0
BLOCK_RECORD
  5
10044
330
1
100
AcDbSymbolTableRecord
100
AcDbBlockTableRecord
  2
*D36
340
0
 70
     0
280
     1
281
     0
  0
BLOCK_RECORD
  5
10046
330
1
100
AcDbSymbolTableRecord
100
AcDbBlockTableRecord
  2
*D37
340
0
 70
     0
280
     1
281
     0
  0
BLOCK_RECORD
  5
10048
330
1
100
AcDbSymbolTableRecord
100
AcDbBlockTableRecord
  2
*D38
340
0
 70
     0
280
     1
281
     0
  0
BLOCK_RECORD
  5
1004A
330
1
100
AcDbSymbolTableRecord
100
AcDbBlockTableRecord
  2
*D39
340
0
 70
     0
280
     1
281
     0
  0
BLOCK_RECORD
  5
1004C
330
1
100
AcDbSymbolTableRecord
100
AcDbBlockTableRecord
  2
*D40
340
0
 70
     0
280
     1
281
     0
  0
BLOCK_RECORD
  5
1004E
330
1
100
AcDbSymbolTableRecord
100
AcDbBlockTableRecord
  2
*D41
340
0
 70
     0
280
     1
281
     0
  0
BLOCK_RECORD
  5
10050
330
1
100
AcDbSymbolTableRecord
100
AcDbBlockTableRecord
  2
*D42
340
0
 70
     0
280
     1
281
     0
  0
BLOCK_RECORD
  5
10052
330
1
100
AcDbSymbolTableRecord
100
AcDbBlockTableRecord
  2
*D43
340
0
 70
     0
280
     1
281
     0
  0
BLOCK_RECORD
  5
10054
330
1
100
AcDbSymbolTableRecord
100
AcDbBlockTableRecord
  2
*D44
340
0
 70
     0
280
     1
281
     0
  0
BLOCK_RECORD
  5
10056
330
1
100
AcDbSymbolTableRecord
100
AcDbBlockTableRecord
  2
*D45
340
0
 70
     0
280
     1
281
     0
  0
BLOCK_RECORD
  5
10058
330
1
100
AcDbSymbolTableRecord
100
AcDbBlockTableRecord
  2
*D46
340
0
 70
     0
280
     1
281
     0
  0
BLOCK_RECORD
  5
1005A
330
1
100
AcDbSymbolTableRecord
100
AcDbBlockTableRecord
  2
*D47
340
0
 70
     0
280
     1
281
     0
  0
BLOCK_RECORD
  5
1005C
330
1
100
AcDbSymbolTableRecord
100
AcDbBlockTableRecord
  2
*D48
340
0
 70
     0
280
     1
281
     0
  0
BLOCK_RECORD
  5
1005E
330
1
100
AcDbSymbolTableRecord
100
AcDbBlockTableRecord
  2
*D49
340
0
 70
     0
280
     1
281
     0
  0
BLOCK_RECORD
  5
10060
330
1
100
AcDbSymbolTableRecord
100
AcDbBlockTableRecord
  2
*D50
340
0
 70
     0
280
     1
281
     0
  0
BLOCK_RECORD
  5
10062
330
1
100
AcDbSymbolTableRecord
100
AcDbBlockTableRecord
  2
*D51
340
0
 70
     0
280
     1
281
     0
  0
BLOCK_RECORD
  5
10064
330
1
100
AcDbSymbolTableRecord
100
AcDbBlockTableRecord
  2
DT_LIGHT
340
0
 70
     0
280
     1
281
     0
  0
BLOCK_RECORD
  5
10066
330
1
100
AcDbSymbolTableRecord
100
AcDbBlockTableRecord
  2
DT_MATERIAL
340
0
102
{BLKREFS
331
FB9E
102
}
 70
     0
280
     1
281
     0
  0
BLOCK_RECORD
  5
10068
330
1
100
AcDbSymbolTableRecord
100
AcDbBlockTableRecord
  2
DT_COLOR
340
0
 70
     0
280
     1
281
     0
  0
BLOCK_RECORD
  5
1006A
330
1
100
AcDbSymbolTableRecord
100
AcDbBlockTableRecord
  2
DT_FLOOR
340
0
 70
     0
280
     1
281
     0
  0
BLOCK_RECORD
  5
1006C
330
1
100
AcDbSymbolTableRecord
100
AcDbBlockTableRecord
  2
DT_OPTIONS
340
0
 70
     0
280
     1
281
     0
  0
BLOCK_RECORD
  5
1006E
330
1
100
AcDbSymbolTableRecord
100
AcDbBlockTableRecord
  2
DT_BACKGROUND
340
0
 70
     0
280
     1
281
     0
  0
ENDTAB
  0
ENDSEC
  0
SECTION
  2
BLOCKS
  0
BLOCK
  5
20
330
1F
100
AcDbEntity
  8
0
100
AcDbBlockBegin
  2
*Model_Space
 70
     0
 71
     0
 10
0.0
 20
0.0
 30
0.0
  3
*Model_Space
  1

  0
ENDBLK
  5
21
330
1F
100
AcDbEntity
  8
0
100
AcDbBlockEnd
  0
BLOCK
  5
75
330
73
100
AcDbEntity
 67
     1
  8
0
100
AcDbBlockBegin
  2
*Paper_Space
 70
     0
 71
     0
 10
0.0
 20
0.0
 30
0.0
  3
*Paper_Space
  1

  0
ENDBLK
  5
76
330
73
100
AcDbEntity
 67
     1
  8
0
100
AcDbBlockEnd
  0
BLOCK
  5
10123
330
FFFC
100
AcDbEntity
  8
0
100
AcDbBlockBegin
  2
NULLPUNKT
 70
     0
 71
     0
 10
0.0
 20
0.0
 30
0.0
  3
NULLPUNKT
  1

  0
ENDBLK
  5
10124
330
FFFC
100
AcDbEntity
  8
0
100
AcDbBlockEnd
  0
BLOCK
  5
10125
330
FFFE
100
AcDbEntity
  8
0
100
AcDbBlockBegin
  2
LOGO_BLUM
 70
     0
 71
     0
 10
0.0
 20
0.0
 30
0.0
  3
LOGO_BLUM
  1

  0
ENDBLK
  5
10126
330
FFFE
100
AcDbEntity
  8
0
100
AcDbBlockEnd
  0
BLOCK
  5
10127
330
10000
100
AcDbEntity
  8
0
100
AcDbBlockBegin
  2
ACL_C000
 70
     2
 71
     0
 10
0.0
 20
0.0
 30
0.0
  3
ACL_C000
  1
ACL_C000
  0
ATTDEF
  5
17CB
330
10000
100
AcDbEntity
  8
0
100
AcDbText
 10
0.0
 20
0.0
 30
0.0
 40
0.001
  1
ACL_C000
100
AcDbAttributeDefinition
  3

  2
CFGNME
 70
     3
280
     0
  0
ATTDEF
  5
17CC
330
10000
100
AcDbEntity
  8
0
100
AcDbText
 10
0.0
 20
0.0
 30
0.0
 40
0.001
  1
858
100
AcDbAttributeDefinition
  3

  2
USRCDE
 70
     3
280
     0
  0
ENDBLK
  5
10128
330
10000
100
AcDbEntity
  8
0
100
AcDbBlockEnd
  0
BLOCK
  5
10129
330
10002
100
AcDbEntity
  8
0
100
AcDbBlockBegin
  2
A$C387839CC
 70
     0
 71
     0
 10
0.0
 20
0.0
 30
0.0
  3
A$C387839CC
  1

  0
ENDBLK
  5
1012A
330
10002
100
AcDbEntity
  8
0
100
AcDbBlockEnd
  0
BLOCK
  5
1012B
330
10004
100
AcDbEntity
  8
0
100
AcDbBlockBegin
  2
RELINGHALTER-TANDEM
 70
     0
 71
     0
 10
0.0
 20
0.0
 30
0.0
  3
RELINGHALTER-TANDEM
  1

  0
ENDBLK
  5
1012C
330
10004
100
AcDbEntity
  8
0
100
AcDbBlockEnd
  0
BLOCK
  5
1012D
330
10006
100
AcDbEntity
  8
0
100
AcDbBlockBegin
  2
HF
 70
     0
 71
     0
 10
0.0
 20
0.0
 30
0.0
  3
HF
  1

  0
ENDBLK
  5
1012E
330
10006
100
AcDbEntity
  8
0
100
AcDbBlockEnd
  0
BLOCK
  5
1012F
330
10008
100
AcDbEntity
  8
0
100
AcDbBlockBegin
  2
MP
 70
     0
 71
     0
 10
0.0
 20
0.0
 30
0.0
  3
MP
  1

  0
ENDBLK
  5
10130
330
10008
100
AcDbEntity
  8
0
100
AcDbBlockEnd
  0
BLOCK
  5
10131
330
1000A
100
AcDbEntity
  8
0
100
AcDbBlockBegin
  2
TABELLE
 70
     0
 71
     0
 10
0.0
 20
0.0
 30
0.0
  3
TABELLE
  1

  0
ENDBLK
  5
10132
330
1000A
100
AcDbEntity
  8
0
100
AcDbBlockEnd
  0
BLOCK
  5
10133
330
1000C
100
AcDbEntity
  8
0
100
AcDbBlockBegin
  2
HF_VORNE
 70
     0
 71
     0
 10
0.0
 20
0.0
 30
0.0
  3
HF_VORNE
  1

  0
ENDBLK
  5
10134
330
1000C
100
AcDbEntity
  8
0
100
AcDbBlockEnd
  0
BLOCK
  5
10135
330
1000E
100
AcDbEntity
  8
0
100
AcDbBlockBegin
  2
HF_SRDV_VORNE
 70
     0
 71
     0
 10
0.0
 20
0.0
 30
0.0
  3
HF_SRDV_VORNE
  1

  0
ENDBLK
  5
10136
330
1000E
100
AcDbEntity
  8
0
100
AcDbBlockEnd
  0
BLOCK
  5
10137
330
10010
100
AcDbEntity
  8
0
100
AcDbBlockBegin
  2
A$C4A531347
 70
     0
 71
     0
 10
0.0
 20
0.0
 30
0.0
  3
A$C4A531347
  1

  0
CIRCLE
  5
5BBF
330
10010
100
AcDbEntity
  8
0
  6
Continuous
 62
     2
100
AcDbCircle
 10
-18.50000000000006
 20
-10.5625
 30
0.0
 40
1.050000000000011
  0
CIRCLE
  5
5BC0
330
10010
100
AcDbEntity
  8
0
  6
Continuous
 62
     2
100
AcDbCircle
 10
0.0
 20
6.6875
 30
0.0
 40
1.049999999999954
  0
CIRCLE
  5
5BC1
330
10010
100
AcDbEntity
  8
0
  6
Continuous
 62
     2
100
AcDbCircle
 10
16.0
 20
10.6875
 30
0.0
 40
1.049999999999954
  0
CIRCLE
  5
5BC2
330
10010
100
AcDbEntity
  8
0
  6
Continuous
 62
     2
100
AcDbCircle
 10
56.49999999999995
 20
10.6875
 30
0.0
 40
1.050000000000011
  0
CIRCLE
  5
5BC3
330
10010
100
AcDbEntity
  8
0
  6
Continuous
 62
     2
100
AcDbCircle
 10
96.00000000000006
 20
6.6875
 30
0.0
 40
1.050000000000011
  0
CIRCLE
  5
5BC4
330
10010
100
AcDbEntity
  8
0
  6
Continuous
 62
     2
100
AcDbCircle
 10
93.49999999999999
 20
-8.0625
 30
0.0
 40
1.050000000000011
  0
ENDBLK
  5
10138
330
10010
100
AcDbEntity
  8
0
100
AcDbBlockEnd
  0
BLOCK
  5
10139
330
10012
100
AcDbEntity
  8
0
100
AcDbBlockBegin
  2
A$C24070F84
 70
     0
 71
     0
 10
0.0
 20
0.0
 30
0.0
  3
A$C24070F84
  1

  0
CIRCLE
  5
5BD8
330
10012
100
AcDbEntity
  8
0
  6
Continuous
 62
     2
100
AcDbCircle
 10
1.199999863045945
 20
1.199999651307166
 30
0.0
 40
1.199999999999988
  0
CIRCLE
  5
5BD9
330
10012
100
AcDbEntity
  8
0
  6
Continuous
 62
     2
100
AcDbCircle
 10
97.199999863046
 20
1.199999651307166
 30
0.0
 40
1.199999999999988
  0
ENDBLK
  5
1013A
330
10012
100
AcDbEntity
  8
0
100
AcDbBlockEnd
  0
BLOCK
  5
1013B
330
10014
100
AcDbEntity
  8
0
100
AcDbBlockBegin
  2
KRAFTSPEICHER_HF
 70
     0
 71
     0
 10
0.0
 20
0.0
 30
0.0
  3
KRAFTSPEICHER_HF
  1

  0
ENDBLK
  5
1013C
330
10014
100
AcDbEntity
  8
0
100
AcDbBlockEnd
  0
BLOCK
  5
1013D
330
10016
100
AcDbEntity
  8
0
100
AcDbBlockBegin
  2
ABDECKKAPPE_HF
 70
     0
 71
     0
 10
0.0
 20
0.0
 30
0.0
  3
ABDECKKAPPE_HF
  1

  0
ENDBLK
  5
1013E
330
10016
100
AcDbEntity
  8
0
100
AcDbBlockEnd
  0
BLOCK
  5
1013F
330
10018
100
AcDbEntity
  8
0
100
AcDbBlockBegin
  2
TELESKOPHEBEL_HF
 70
     0
 71
     0
 10
0.0
 20
0.0
 30
0.0
  3
TELESKOPHEBEL_HF
  1

  0
ENDBLK
  5
10140
330
10018
100
AcDbEntity
  8
0
100
AcDbBlockEnd
  0
BLOCK
  5
10141
330
1001A
100
AcDbEntity
  8
0
100
AcDbBlockBegin
  2
TELESKOPHEBEL_VORNE_HF
 70
     0
 71
     0
 10
0.0
 20
0.0
 30
0.0
  3
TELESKOPHEBEL_VORNE_HF
  1

  0
ENDBLK
  5
10142
330
1001A
100
AcDbEntity
  8
0
100
AcDbBlockEnd
  0
BLOCK
  5
10143
330
1001C
100
AcDbEntity
  8
0
100
AcDbBlockBegin
  2
ABDECKKAPPE_VORNE_HF
 70
     0
 71
     0
 10
0.0
 20
0.0
 30
0.0
  3
ABDECKKAPPE_VORNE_HF
  1

  0
ENDBLK
  5
10144
330
1001C
100
AcDbEntity
  8
0
100
AcDbBlockEnd
  0
BLOCK
  5
10145
330
1001E
100
AcDbEntity
  8
0
100
AcDbBlockBegin
  2
KRAFTSPEICHER_HS
 70
     0
 71
     0
 10
0.0
 20
0.0
 30
0.0
  3
KRAFTSPEICHER_HS
  1

  0
ENDBLK
  5
10146
330
1001E
100
AcDbEntity
  8
0
100
AcDbBlockEnd
  0
BLOCK
  5
10147
330
10020
100
AcDbEntity
  8
0
100
AcDbBlockBegin
  2
HS_VORNE
 70
     0
 71
     0
 10
0.0
 20
0.0
 30
0.0
  3
HS_VORNE
  1

  0
ENDBLK
  5
10148
330
10020
100
AcDbEntity
  8
0
100
AcDbBlockEnd
  0
BLOCK
  5
10149
330
10022
100
AcDbEntity
  8
0
100
AcDbBlockBegin
  2
HS_SRDV_VORNE_
 70
     0
 71
     0
 10
0.0
 20
0.0
 30
0.0
  3
HS_SRDV_VORNE_
  1

  0
ENDBLK
  5
1014A
330
10022
100
AcDbEntity
  8
0
100
AcDbBlockEnd
  0
BLOCK
  5
1014B
330
10024
100
AcDbEntity
  8
0
100
AcDbBlockBegin
  2
KRAFTSPEICHER_HS_MIT_FRONT
 70
     0
 71
     0
 10
0.0
 20
0.0
 30
0.0
  3
KRAFTSPEICHER_HS_MIT_FRONT
  1

  0
ENDBLK
  5
1014C
330
10024
100
AcDbEntity
  8
0
100
AcDbBlockEnd
  0
BLOCK
  5
1014D
330
10026
100
AcDbEntity
  8
0
100
AcDbBlockBegin
  2
HS_HEBELPAKET_VORNE_ALU_ST
 70
     0
 71
     0
 10
0.0
 20
0.0
 30
0.0
  3
HS_HEBELPAKET_VORNE_ALU_ST
  1

  0
ENDBLK
  5
1014E
330
10026
100
AcDbEntity
  8
0
100
AcDbBlockEnd
  0
BLOCK
  5
1014F
330
10028
100
AcDbEntity
  8
0
100
AcDbBlockBegin
  2
HS_HEBELPAKET_ALU_VORNE
 70
     0
 71
     0
 10
0.0
 20
0.0
 30
0.0
  3
HS_HEBELPAKET_ALU_VORNE
  1

  0
ENDBLK
  5
10150
330
10028
100
AcDbEntity
  8
0
100
AcDbBlockEnd
  0
BLOCK
  5
10151
330
1002A
100
AcDbEntity
  8
0
100
AcDbBlockBegin
  2
HL_KRAFTSPEICHER_SEITE
 70
     0
 71
     0
 10
0.0
 20
0.0
 30
0.0
  3
HL_KRAFTSPEICHER_SEITE
  1

  0
ENDBLK
  5
10152
330
1002A
100
AcDbEntity
  8
0
100
AcDbBlockEnd
  0
BLOCK
  5
10153
330
1002C
100
AcDbEntity
  8
0
100
AcDbBlockBegin
  2
HL_HEBELPAKET_VORNE
 70
     0
 71
     0
 10
0.0
 20
0.0
 30
0.0
  3
HL_HEBELPAKET_VORNE
  1

  0
ENDBLK
  5
10154
330
1002C
100
AcDbEntity
  8
0
100
AcDbBlockEnd
  0
BLOCK
  5
10155
330
1002E
100
AcDbEntity
  8
0
100
AcDbBlockBegin
  2
HL_HEBELPAKET_VORNE_SRDV
 70
     0
 71
     0
 10
0.0
 20
0.0
 30
0.0
  3
HL_HEBELPAKET_VORNE_SRDV
  1

  0
ENDBLK
  5
10156
330
1002E
100
AcDbEntity
  8
0
100
AcDbBlockEnd
  0
BLOCK
  5
10157
330
10030
100
AcDbEntity
  8
0
100
AcDbBlockBegin
  2
HL_HEBELPAKET_VORNE_ALU
 70
     0
 71
     0
 10
0.0
 20
0.0
 30
0.0
  3
HL_HEBELPAKET_VORNE_ALU
  1

  0
ENDBLK
  5
10158
330
10030
100
AcDbEntity
  8
0
100
AcDbBlockEnd
  0
BLOCK
  5
10159
330
10032
100
AcDbEntity
  8
0
100
AcDbBlockBegin
  2
HL_HEBELPAKET_VORNE_ALU2
 70
     0
 71
     0
 10
0.0
 20
0.0
 30
0.0
  3
HL_HEBELPAKET_VORNE_ALU2
  1

  0
ENDBLK
  5
1015A
330
10032
100
AcDbEntity
  8
0
100
AcDbBlockEnd
  0
BLOCK
  5
1015B
330
10034
100
AcDbEntity
  8
0
100
AcDbBlockBegin
  2
HK_KRAFTSPEICHER_SEITLICH
 70
     0
 71
     0
 10
0.0
 20
0.0
 30
0.0
  3
HK_KRAFTSPEICHER_SEITLICH
  1

  0
ENDBLK
  5
1015C
330
10034
100
AcDbEntity
  8
0
100
AcDbBlockEnd
  0
BLOCK
  5
1015D
330
10036
100
AcDbEntity
  8
0
100
AcDbBlockBegin
  2
HK_KRAFTSPEICHER_VORNE_SRD
 70
     0
 71
     0
 10
0.0
 20
0.0
 30
0.0
  3
HK_KRAFTSPEICHER_VORNE_SRD
  1

  0
ENDBLK
  5
1015E
330
10036
100
AcDbEntity
  8
0
100
AcDbBlockEnd
  0
BLOCK
  5
1015F
330
10038
100
AcDbEntity
  8
0
100
AcDbBlockBegin
  2
HK_KRAFTSPEICHER_VORNE
 70
     0
 71
     0
 10
0.0
 20
0.0
 30
0.0
  3
HK_KRAFTSPEICHER_VORNE
  1

  0
ENDBLK
  5
10160
330
10038
100
AcDbEntity
  8
0
100
AcDbBlockEnd
  0
BLOCK
  5
10161
330
1003A
100
AcDbEntity
  8
0
100
AcDbBlockBegin
  2
HK_KRAFTSPEICHER_VORNE_SR0
 70
     0
 71
     0
 10
0.0
 20
0.0
 30
0.0
  3
HK_KRAFTSPEICHER_VORNE_SR0
  1

  0
ENDBLK
  5
10162
330
1003A
100
AcDbEntity
  8
0
100
AcDbBlockEnd
  0
BLOCK
  5
10163
330
1003C
100
AcDbEntity
  8
0
100
AcDbBlockBegin
  2
HK_KRAFTSPEICHER_ALU_VORNE
 70
     0
 71
     0
 10
0.0
 20
0.0
 30
0.0
  3
HK_KRAFTSPEICHER_ALU_VORNE
  1

  0
ENDBLK
  5
10164
330
1003C
100
AcDbEntity
  8
0
100
AcDbBlockEnd
  0
BLOCK
  5
10165
330
1003E
100
AcDbEntity
  8
0
100
AcDbBlockBegin
  2
HKS_KRAFTSPEICHER_SEITLICH
 70
     0
 71
     0
 10
0.0
 20
0.0
 30
0.0
  3
HKS_KRAFTSPEICHER_SEITLICH
  1

  0
ENDBLK
  5
10166
330
1003E
100
AcDbEntity
  8
0
100
AcDbBlockEnd
  0
BLOCK
  5
10167
330
10040
100
AcDbEntity
  8
0
100
AcDbBlockBegin
  2
HKS_KRAFTSPEICHER_LINKS_VO
 70
     0
 71
     0
 10
0.0
 20
0.0
 30
0.0
  3
HKS_KRAFTSPEICHER_LINKS_VO
  1

  0
ENDBLK
  5
10168
330
10040
100
AcDbEntity
  8
0
100
AcDbBlockEnd
  0
BLOCK
  5
10169
330
10042
100
AcDbEntity
  8
0
100
AcDbBlockBegin
  2
HKS_KRAFTSPEICHER_LRECHTS_
 70
     0
 71
     0
 10
0.0
 20
0.0
 30
0.0
  3
HKS_KRAFTSPEICHER_LRECHTS_
  1

  0
ENDBLK
  5
1016A
330
10042
100
AcDbEntity
  8
0
100
AcDbBlockEnd
  0
BLOCK
  5
1016B
330
10044
100
AcDbEntity
  8
0
100
AcDbBlockBegin
  2
*D36
 70
     1
 71
     0
 10
0.0
 20
0.0
 30
0.0
  3
*D36
  1

  0
ENDBLK
  5
1016C
330
10044
100
AcDbEntity
  8
0
100
AcDbBlockEnd
  0
BLOCK
  5
1016D
330
10046
100
AcDbEntity
  8
0
100
AcDbBlockBegin
  2
*D37
 70
     1
 71
     0
 10
0.0
 20
0.0
 30
0.0
  3
*D37
  1

  0
ENDBLK
  5
1016E
330
10046
100
AcDbEntity
  8
0
100
AcDbBlockEnd
  0
BLOCK
  5
1016F
330
10048
100
AcDbEntity
  8
0
100
AcDbBlockBegin
  2
*D38
 70
     1
 71
     0
 10
0.0
 20
0.0
 30
0.0
  3
*D38
  1

  0
ENDBLK
  5
10170
330
10048
100
AcDbEntity
  8
0
100
AcDbBlockEnd
  0
BLOCK
  5
10171
330
1004A
100
AcDbEntity
  8
0
100
AcDbBlockBegin
  2
*D39
 70
     1
 71
     0
 10
0.0
 20
0.0
 30
0.0
  3
*D39
  1

  0
ENDBLK
  5
10172
330
1004A
100
AcDbEntity
  8
0
100
AcDbBlockEnd
  0
BLOCK
  5
10173
330
1004C
100
AcDbEntity
  8
0
100
AcDbBlockBegin
  2
*D40
 70
     1
 71
     0
 10
0.0
 20
0.0
 30
0.0
  3
*D40
  1

  0
ENDBLK
  5
10174
330
1004C
100
AcDbEntity
  8
0
100
AcDbBlockEnd
  0
BLOCK
  5
10175
330
1004E
100
AcDbEntity
  8
0
100
AcDbBlockBegin
  2
*D41
 70
     1
 71
     0
 10
0.0
 20
0.0
 30
0.0
  3
*D41
  1

  0
ENDBLK
  5
10176
330
1004E
100
AcDbEntity
  8
0
100
AcDbBlockEnd
  0
BLOCK
  5
10177
330
10050
100
AcDbEntity
  8
0
100
AcDbBlockBegin
  2
*D42
 70
     1
 71
     0
 10
0.0
 20
0.0
 30
0.0
  3
*D42
  1

  0
ENDBLK
  5
10178
330
10050
100
AcDbEntity
  8
0
100
AcDbBlockEnd
  0
BLOCK
  5
10179
330
10052
100
AcDbEntity
  8
0
100
AcDbBlockBegin
  2
*D43
 70
     1
 71
     0
 10
0.0
 20
0.0
 30
0.0
  3
*D43
  1

  0
ENDBLK
  5
1017A
330
10052
100
AcDbEntity
  8
0
100
AcDbBlockEnd
  0
BLOCK
  5
1017B
330
10054
100
AcDbEntity
  8
0
100
AcDbBlockBegin
  2
*D44
 70
     1
 71
     0
 10
0.0
 20
0.0
 30
0.0
  3
*D44
  1

  0
ENDBLK
  5
1017C
330
10054
100
AcDbEntity
  8
0
100
AcDbBlockEnd
  0
BLOCK
  5
1017D
330
10056
100
AcDbEntity
  8
0
100
AcDbBlockBegin
  2
*D45
 70
     1
 71
     0
 10
0.0
 20
0.0
 30
0.0
  3
*D45
  1

  0
ENDBLK
  5
1017E
330
10056
100
AcDbEntity
  8
0
100
AcDbBlockEnd
  0
BLOCK
  5
1017F
330
10058
100
AcDbEntity
  8
0
100
AcDbBlockBegin
  2
*D46
 70
     1
 71
     0
 10
0.0
 20
0.0
 30
0.0
  3
*D46
  1

  0
ENDBLK
  5
10180
330
10058
100
AcDbEntity
  8
0
100
AcDbBlockEnd
  0
BLOCK
  5
10181
330
1005A
100
AcDbEntity
  8
0
100
AcDbBlockBegin
  2
*D47
 70
     1
 71
     0
 10
0.0
 20
0.0
 30
0.0
  3
*D47
  1

  0
ENDBLK
  5
10182
330
1005A
100
AcDbEntity
  8
0
100
AcDbBlockEnd
  0
BLOCK
  5
10183
330
1005C
100
AcDbEntity
  8
0
100
AcDbBlockBegin
  2
*D48
 70
     1
 71
     0
 10
0.0
 20
0.0
 30
0.0
  3
*D48
  1

  0
ENDBLK
  5
10184
330
1005C
100
AcDbEntity
  8
0
100
AcDbBlockEnd
  0
BLOCK
  5
10185
330
1005E
100
AcDbEntity
  8
0
100
AcDbBlockBegin
  2
*D49
 70
     1
 71
     0
 10
0.0
 20
0.0
 30
0.0
  3
*D49
  1

  0
ENDBLK
  5
10186
330
1005E
100
AcDbEntity
  8
0
100
AcDbBlockEnd
  0
BLOCK
  5
10187
330
10060
100
AcDbEntity
  8
0
100
AcDbBlockBegin
  2
*D50
 70
     1
 71
     0
 10
0.0
 20
0.0
 30
0.0
  3
*D50
  1

  0
ENDBLK
  5
10188
330
10060
100
AcDbEntity
  8
0
100
AcDbBlockEnd
  0
BLOCK
  5
10189
330
10062
100
AcDbEntity
  8
0
100
AcDbBlockBegin
  2
*D51
 70
     1
 71
     0
 10
0.0
 20
0.0
 30
0.0
  3
*D51
  1

  0
ENDBLK
  5
1018A
330
10062
100
AcDbEntity
  8
0
100
AcDbBlockEnd
  0
BLOCK
  5
1018B
330
10064
100
AcDbEntity
  8
0
100
AcDbBlockBegin
  2
DT_LIGHT
 70
     0
 71
     0
 10
0.0
 20
0.0
 30
0.0
  3
DT_LIGHT
  1

  0
ENDBLK
  5
1018C
330
10064
100
AcDbEntity
  8
0
100
AcDbBlockEnd
  0
BLOCK
  5
1018D
330
10066
100
AcDbEntity
  8
0
100
AcDbBlockBegin
  2
DT_MATERIAL
 70
     0
 71
     0
 10
0.0
 20
0.0
 30
0.0
  3
DT_MATERIAL
  1

  0
ENDBLK
  5
1018E
330
10066
100
AcDbEntity
  8
0
100
AcDbBlockEnd
  0
BLOCK
  5
1018F
330
10068
100
AcDbEntity
  8
0
100
AcDbBlockBegin
  2
DT_COLOR
 70
     0
 71
     0
 10
0.0
 20
0.0
 30
0.0
  3
DT_COLOR
  1

  0
ENDBLK
  5
10190
330
10068
100
AcDbEntity
  8
0
100
AcDbBlockEnd
  0
BLOCK
  5
10191
330
1006A
100
AcDbEntity
  8
0
100
AcDbBlockBegin
  2
DT_FLOOR
 70
     0
 71
     0
 10
0.0
 20
0.0
 30
0.0
  3
DT_FLOOR
  1

  0
ENDBLK
  5
10192
330
1006A
100
AcDbEntity
  8
0
100
AcDbBlockEnd
  0
BLOCK
  5
10193
330
1006C
100
AcDbEntity
  8
0
100
AcDbBlockBegin
  2
DT_OPTIONS
 70
     0
 71
     0
 10
0.0
 20
0.0
 30
0.0
  3
DT_OPTIONS
  1

  0
ENDBLK
  5
10194
330
1006C
100
AcDbEntity
  8
0
100
AcDbBlockEnd
  0
BLOCK
  5
10195
330
1006E
100
AcDbEntity
  8
0
100
AcDbBlockBegin
  2
DT_BACKGROUND
 70
     0
 71
     0
 10
0.0
 20
0.0
 30
0.0
  3
DT_BACKGROUND
  1

  0
ENDBLK
  5
10196
330
1006E
100
AcDbEntity
  8
0
100
AcDbBlockEnd
  0
ENDSEC
  0
SECTION
  2
ENTITIES
  0
LINE
  5
FB11
330
1F
100
AcDbEntity
  8
0
100
AcDbLine
 10
0.0
 20
-139.7105550765992
 30
103.1098413467398
 11
0.0
 21
-135.4395246505733
 31
87.17024803161597
210
-1.0
220
0.0
230
0.0
1001
ACDBBLOCKREPETAG
1070
     1
1071
       82
1005
FB11
  0
LINE
  5
FB12
330
1F
100
AcDbEntity
  8
0
100
AcDbLine
 10
0.0
 20
-135.4395246505733
 30
87.17024803161597
 11
0.0
 21
-123.210529088974
 31
80.10983943939186
210
-1.0
220
0.0
230
0.0
1001
ACDBBLOCKREPETAG
1070
     1
1071
       83
1005
FB12
  0
LINE
  5
FB13
330
1F
100
AcDbEntity
  8
0
100
AcDbLine
 10
0.0
 20
-123.210529088974
 30
80.10983943939186
 11
0.0
 21
-123.210529088974
 31
54.01105165481499
210
-1.0
220
0.0
230
0.0
1001
ACDBBLOCKREPETAG
1070
     1
1071
       84
1005
FB13
  0
LINE
  5
FB14
330
1F
100
AcDbEntity
  8
0
100
AcDbLine
 10
0.0
 20
-123.210529088974
 30
54.01105165481499
 11
0.0
 21
-125.7018542289734
 31
46.69088602065994
210
-1.0
220
0.0
230
0.0
1001
ACDBBLOCKREPETAG
1070
     1
1071
       85
1005
FB14
  0
INSERT
  5
FB9E
330
1F
100
AcDbEntity
  8
DT_RENDER
100
AcDbBlockReference
  2
DT_MATERIAL
 10
-29.0
 20
-16.71085238456729
 30
-8.026505708695138
1001
DTRENDER2
1000
MATERIAL
1071
   200501
1040
0.25
1040
0.5
1040
0.0
1040
0.8
1040
80.0
1040
0.0
1071
        1
1000
DEFAULT
1071
       16
1000

1040
0.0
1040
0.0
1040
0.0
1040
1.0
1040
1.0
1040
1.0
1040
0.0
1071
 16777215
1040
1.0
1071
 16777215
1040
1.0
1071
 16777215
1040
1.0
1071
 16777215
1040
1.0
1071
 16777215
1040
2.187
1040
0.5
1071
        3
1040
2.5
  0
LINE
  5
10077
330
1F
100
AcDbEntity
  8
0
100
AcDbLine
 10
0.0
 20
-120.2105331420894
 30
124.259421825409
 11
0.0
 21
-11.71085238456729
 31
124.259421825409
210
-1.0
220
0.0
230
0.0
  0
LINE
  5
1007E
330
1F
100
AcDbEntity
  8
0
100
AcDbLine
 10
0.0
 20
-6.784021854400663
 30
12.17722892761186
 11
0.0
 21
-74.16448473930362
 31
0.0
210
-1.0
220
0.0
230
0.0
  0
LINE
  5
1007F
330
1F
100
AcDbEntity
  8
0
100
AcDbLine
 10
0.0
 20
-74.16448473930362
 30
0.0
 11
0.0
 21
-125.7018542289734
 31
19.27390694618202
210
-1.0
220
0.0
230
0.0
  0
LINE
  5
10080
330
1F
100
AcDbEntity
  8
0
100
AcDbLine
 10
0.0
 20
-11.71085238456729
 30
102.7549552917479
 11
0.0
 21
-11.71085238456729
 31
124.259421825409
210
-1.0
220
0.0
230
0.0
  0
LINE
  5
10083
330
1F
100
AcDbEntity
  8
0
100
AcDbLine
 10
0.0
 20
-139.7105550765992
 30
103.1098413467398
 11
0.0
 21
-139.7105550765992
 31
122.7594113349909
210
-1.0
220
0.0
230
0.0
  0
LINE
  5
10094
330
1F
100
AcDbEntity
  8
0
100
AcDbLine
 10
34.0
 20
-120.2105331420894
 30
124.259421825409
 11
34.0
 21
-120.2105331420894
 31
122.7594113349909
210
-1.0
220
0.0
230
0.0
1001
ACDBBLOCKREPETAG
1070
     1
1071
       79
1005
0
  0
LINE
  5
10095
330
1F
100
AcDbEntity
  8
0
100
AcDbLine
 10
2.0
 20
-139.7105550765992
 30
103.1098413467398
 11
2.0
 21
-135.4395246505733
 31
87.17024803161597
210
-1.0
220
0.0
230
0.0
1001
ACDBBLOCKREPETAG
1070
     1
1071
       82
1005
FB11
  0
LINE
  5
10096
330
1F
100
AcDbEntity
  8
0
100
AcDbLine
 10
2.0
 20
-135.4395246505733
 30
87.17024803161597
 11
2.0
 21
-123.210529088974
 31
80.10983943939186
210
-1.0
220
0.0
230
0.0
1001
ACDBBLOCKREPETAG
1070
     1
1071
       83
1005
FB12
  0
LINE
  5
10097
330
1F
100
AcDbEntity
  8
0
100
AcDbLine
 10
2.0
 20
-123.210529088974
 30
80.10983943939186
 11
2.0
 21
-123.210529088974
 31
54.01105165481499
210
-1.0
220
0.0
230
0.0
1001
ACDBBLOCKREPETAG
1070
     1
1071
       84
1005
FB13
  0
LINE
  5
10098
330
1F
100
AcDbEntity
  8
0
100
AcDbLine
 10
2.0
 20
-123.210529088974
 30
54.01105165481499
 11
2.0
 21
-125.7018542289734
 31
46.69088602065994
210
-1.0
220
0.0
230
0.0
1001
ACDBBLOCKREPETAG
1070
     1
1071
       85
1005
FB14
  0
LINE
  5
1009A
330
1F
100
AcDbEntity
  8
0
100
AcDbLine
 10
34.0
 20
-120.2105331420894
 30
124.259421825409
 11
34.0
 21
-11.71085238456729
 31
124.259421825409
210
-1.0
220
0.0
230
0.0
  0
LINE
  5
1009D
330
1F
100
AcDbEntity
  8
0
100
AcDbLine
 10
2.0
 20
-0.0000000000000284
 30
67.6440644264219
 11
2.0
 21
-6.784021854400663
 31
14.17722892761186
210
-1.0
220
0.0
230
0.0
  0
LINE
  5
1009E
330
1F
100
AcDbEntity
  8
0
100
AcDbLine
 10
34.0
 20
-6.784021854400663
 30
12.17722892761187
 11
34.0
 21
-74.16448473930362
 31
0.0000000000000071
210
-1.0
220
0.0
230
0.0
  0
LINE
  5
1009F
330
1F
100
AcDbEntity
  8
0
100
AcDbLine
 10
34.0
 20
-74.16448473930362
 30
0.0000000000000071
 11
34.0
 21
-125.7018542289734
 31
19.27390694618202
210
-1.0
220
0.0
230
0.0
  0
LINE
  5
100A0
330
1F
100
AcDbEntity
  8
0
100
AcDbLine
 10
2.0
 20
-11.71085238456729
 30
102.7549552917479
 11
2.0
 21
-11.71085238456729
 31
122.259421825409
210
-1.0
220
0.0
230
0.0
  0
LINE
  5
100A1
330
1F
100
AcDbEntity
  8
0
100
AcDbLine
 10
2.0
 20
-139.7105550765992
 30
103.1098413467398
 11
1.999999999999998
 21
-139.7105550765992
 31
120.7594113349909
210
-1.0
220
0.0
230
0.0
  0
LINE
  5
100A2
330
1F
100
AcDbEntity
  8
0
100
AcDbLine
 10
34.0
 20
-120.2105331420894
 30
122.7594113349909
 11
34.0
 21
-139.7105550765992
 31
122.7594113349909
210
-1.0
220
0.0
230
0.0
  0
LINE
  5
100A3
330
1F
100
AcDbEntity
  8
0
100
AcDbLine
 10
0.0
 20
-11.71085238456729
 30
124.259421825409
 11
34.0
 21
-11.71085238456729
 31
124.259421825409
  0
LINE
  5
100A4
330
1F
100
AcDbEntity
  8
0
100
AcDbLine
 10
0.0
 20
-120.2105331420894
 30
124.259421825409
 11
34.0
 21
-120.2105331420894
 31
124.259421825409
  0
LINE
  5
100A5
330
1F
100
AcDbEntity
  8
0
100
AcDbLine
 10
0.0
 20
-139.7105550765992
 30
122.7594113349909
 11
34.0
 21
-139.7105550765992
 31
122.7594113349909
  0
LINE
  5
100A8
330
1F
100
AcDbEntity
  8
0
100
AcDbLine
 10
0.0
 20
-125.7018542289734
 30
19.27390694618202
 11
34.0
 21
-125.7018542289734
 31
19.27390694618202
  0
LINE
  5
100A9
330
1F
100
AcDbEntity
  8
0
100
AcDbLine
 10
0.0
 20
-74.16448473930362
 30
0.0
 11
34.0
 21
-74.16448473930362
 31
0.0
  0
LINE
  5
100AA
330
1F
100
AcDbEntity
  8
0
100
AcDbLine
 10
0.0
 20
-6.78402185440066
 30
12.17722892761186
 11
34.0
 21
-6.78402185440066
 31
12.17722892761186
  0
LINE
  5
100AC
330
1F
100
AcDbEntity
  8
0
100
AcDbLine
 10
34.0
 20
-139.7105550765992
 30
120.7594113349909
 11
1.999999999999998
 21
-139.7105550765992
 31
120.7594113349909
210
0.0
220
-1.0
230
0.0
  0
LINE
  5
100AD
330
1F
100
AcDbEntity
  8
0
100
AcDbLine
 10
34.0
 20
-139.7105550765992
 30
122.7594113349909
 11
34.0
 21
-139.7105550765992
 31
120.7594113349909
210
0.0
220
-1.0
230
0.0
  0
LINE
  5
100AE
330
1F
100
AcDbEntity
  8
0
100
AcDbLine
 10
34.0
 20
-11.71085238456729
 30
124.259421825409
 11
34.0
 21
-11.71085238456729
 31
122.259421825409
210
-1.0
220
0.0
230
0.0
  0
LINE
  5
100AF
330
1F
100
AcDbEntity
  8
0
100
AcDbLine
 10
2.0
 20
-11.71085238456729
 30
122.259421825409
 11
34.0
 21
-11.71085238456729
 31
122.259421825409
  0
LINE
  5
100B0
330
1F
100
AcDbEntity
  8
0
100
AcDbLine
 10
34.0
 20
-120.2105331420894
 30
122.259421825409
 11
34.0
 21
-11.71085238456729
 31
122.259421825409
210
-1.0
220
0.0
230
0.0
  0
LINE
  5
100B1
330
1F
100
AcDbEntity
  8
0
100
AcDbLine
 10
1.999999999999998
 20
-120.2105331420894
 30
120.7594113349909
 11
1.999999999999998
 21
-139.7105550765992
 31
120.7594113349909
210
-1.0
220
0.0
230
0.0
  0
LINE
  5
100B2
330
1F
100
AcDbEntity
  8
0
100
AcDbLine
 10
34.0
 20
-120.2105331420894
 30
120.7594113349909
 11
34.0
 21
-139.7105550765992
 31
120.7594113349909
210
-1.0
220
0.0
230
0.0
  0
LINE
  5
100B3
330
1F
100
AcDbEntity
  8
0
100
AcDbLine
 10
34.0
 20
-120.2105331420894
 30
122.7594113349909
 11
34.0
 21
-120.2105331420894
 31
120.7594113349909
210
0.0
220
-1.0
230
0.0
  0
LINE
  5
100B4
330
1F
100
AcDbEntity
  8
0
100
AcDbLine
 10
34.0
 20
-120.2105331420894
 30
120.7594113349909
 11
1.999999999999998
 21
-120.2105331420894
 31
120.7594113349909
210
0.0
220
-1.0
230
0.0
  0
LINE
  5
100B6
330
1F
100
AcDbEntity
  8
0
100
AcDbLine
 10
0.0
 20
-11.71085238456729
 30
124.259421825409
 11
0.0
 21
-11.71085238456729
 31
122.259421825409
210
-1.0
220
0.0
230
0.0
  0
LINE
  5
100B7
330
1F
100
AcDbEntity
  8
0
100
AcDbLine
 10
2.0
 20
-6.784021854400663
 30
14.17722892761186
 11
2.0
 21
-74.16448473930362
 31
2.0
210
-1.0
220
0.0
230
0.0
  0
LINE
  5
100B8
330
1F
100
AcDbEntity
  8
0
100
AcDbLine
 10
2.0
 20
-74.16448473930362
 30
2.0
 11
2.0
 21
-125.7018542289734
 31
21.27390694618202
210
-1.0
220
0.0
230
0.0
  0
LINE
  5
100B9
330
1F
100
AcDbEntity
  8
0
100
AcDbLine
 10
34.0
 20
-6.784021854400663
 30
14.17722892761187
 11
34.0
 21
-74.16448473930362
 31
2.000000000000007
210
-1.0
220
0.0
230
0.0
  0
LINE
  5
100BA
330
1F
100
AcDbEntity
  8
0
100
AcDbLine
 10
34.0
 20
-74.16448473930362
 30
2.000000000000007
 11
34.0
 21
-125.7018542289734
 31
21.27390694618202
210
-1.0
220
0.0
230
0.0
  0
LINE
  5
100BD
330
1F
100
AcDbEntity
  8
0
100
AcDbLine
 10
0.0
 20
-0.0000000000000284
 30
67.6440644264219
 11
0.0
 21
-6.78402185440066
 31
12.17722892761186
  0
LINE
  5
100BE
330
1F
100
AcDbEntity
  8
0
100
AcDbLine
 10
0.0
 20
-125.7018542289734
 30
19.27390694618202
 11
0.0
 21
-125.7018542289734
 31
46.69088602065994
  0
LINE
  5
100BF
330
1F
100
AcDbEntity
  8
0
100
AcDbLine
 10
2.0
 20
-125.7018542289734
 30
46.69088602065994
 11
2.0
 21
-125.7018542289734
 31
21.27390694618202
  0
LINE
  5
100C0
330
1F
100
AcDbEntity
  8
0
100
AcDbLine
 10
2.0
 20
-125.7018542289734
 30
21.27390694618202
 11
34.0
 21
-125.7018542289734
 31
21.27390694618202
  0
LINE
  5
100C1
330
1F
100
AcDbEntity
  8
0
100
AcDbLine
 10
34.0
 20
-125.7018542289734
 30
21.27390694618202
 11
34.0
 21
-125.7018542289734
 31
19.27390694618202
  0
LINE
  5
100C2
330
1F
100
AcDbEntity
  8
0
100
AcDbLine
 10
2.0
 20
-6.784021854400663
 30
14.17722892761186
 11
34.0
 21
-6.784021854400663
 31
14.17722892761187
  0
LINE
  5
100C3
330
1F
100
AcDbEntity
  8
0
100
AcDbLine
 10
34.0
 20
-6.784021854400663
 30
14.17722892761187
 11
34.0
 21
-6.784021854400663
 31
12.17722892761187
  0
3DFACE
  5
100C4
330
1F
100
AcDbEntity
  8
ACESSORIOS
100
AcDbFace
 10
0.0
 20
-125.7018542289734
 30
19.27390694618202
 11
2.0
 21
-125.7018542289734
 31
21.27390694618202
 12
34.0
 22
-125.7018542289734
 32
21.27390694618202
 13
34.0
 23
-125.7018542289734
 33
19.27390694618202
  0
3DFACE
  5
100C5
330
1F
100
AcDbEntity
  8
ACESSORIOS
100
AcDbFace
 10
0.0
 20
-125.7018542289734
 30
19.27390694618202
 11
2.0
 21
-125.7018542289734
 31
21.27390694618202
 12
2.0
 22
-125.7018542289734
 32
46.69088602065994
 13
0.0
 23
-125.7018542289734
 33
46.69088602065994
  0
3DFACE
  5
100C6
330
1F
100
AcDbEntity
  8
ACESSORIOS
100
AcDbFace
 10
0.0
 20
-125.7018542289734
 30
46.69088602065994
 11
2.0
 21
-125.7018542289734
 31
46.69088602065994
 12
2.0
 22
-123.210529088974
 32
54.01105165481499
 13
0.0
 23
-123.210529088974
 33
54.01105165481499
  0
3DFACE
  5
100C7
330
1F
100
AcDbEntity
  8
ACESSORIOS
100
AcDbFace
 10
0.0
 20
-123.210529088974
 30
54.01105165481499
 11
0.0
 21
-123.210529088974
 31
80.10983943939186
 12
2.0
 22
-123.210529088974
 32
80.10983943939186
 13
2.0
 23
-123.210529088974
 33
54.01105165481499
  0
3DFACE
  5
100C9
330
1F
100
AcDbEntity
  8
ACESSORIOS
100
AcDbFace
 10
0.0
 20
-135.4395246505733
 30
87.17024803161597
 11
2.0
 21
-135.4395246505733
 31
87.17024803161597
 12
2.0
 22
-123.210529088974
 32
80.10983943939186
 13
0.0
 23
-123.210529088974
 33
80.10983943939186
  0
3DFACE
  5
100CA
330
1F
100
AcDbEntity
  8
ACESSORIOS
100
AcDbFace
 10
0.0
 20
-135.4395246505733
 30
87.17024803161597
 11
2.0
 21
-135.4395246505733
 31
87.17024803161597
 12
2.0
 22
-139.7105550765992
 32
103.1098413467398
 13
0.0
 23
-139.7105550765992
 33
103.1098413467398
  0
3DFACE
  5
100CB
330
1F
100
AcDbEntity
  8
ACESSORIOS
100
AcDbFace
 10
0.0
 20
-139.7105550765992
 30
103.1098413467398
 11
2.0
 21
-139.7105550765992
 31
103.1098413467398
 12
1.999999999999998
 22
-139.7105550765992
 32
120.7594113349909
 13
0.0
 23
-139.7105550765992
 33
122.7594113349909
  0
3DFACE
  5
100CC
330
1F
100
AcDbEntity
  8
ACESSORIOS
100
AcDbFace
 10
0.0
 20
-139.7105550765992
 30
122.7594113349909
 11
1.999999999999998
 21
-139.7105550765992
 31
120.7594113349909
 12
34.0
 22
-139.7105550765992
 32
120.7594113349909
 13
34.0
 23
-139.7105550765992
 33
122.7594113349909
  0
3DFACE
  5
100CD
330
1F
100
AcDbEntity
  8
ACESSORIOS
100
AcDbFace
 10
34.0
 20
-125.7018542289734
 30
19.27390694618202
 11
34.0
 21
-125.7018542289734
 31
21.27390694618202
 12
34.0
 22
-74.16448473930362
 32
2.000000000000007
 13
34.0
 23
-74.16448473930362
 33
0.0000000000000071
  0
3DFACE
  5
100CE
330
1F
100
AcDbEntity
  8
ACESSORIOS
100
AcDbFace
 10
2.0
 20
-125.7018542289734
 30
21.27390694618202
 11
2.0
 21
-74.16448473930362
 31
2.0
 12
34.0
 22
-74.16448473930362
 32
2.000000000000007
 13
34.0
 23
-125.7018542289734
 33
21.27390694618202
  0
3DFACE
  5
100CF
330
1F
100
AcDbEntity
  8
ACESSORIOS
100
AcDbFace
 10
0.0
 20
-125.7018542289734
 30
19.27390694618202
 11
0.0
 21
-74.16448473930362
 31
0.0
 12
34.0
 22
-74.16448473930362
 32
0.0
 13
34.0
 23
-125.7018542289734
 33
19.27390694618202
  0
3DFACE
  5
100D0
330
1F
100
AcDbEntity
  8
ACESSORIOS
100
AcDbFace
 10
0.0
 20
-74.16448473930362
 30
0.0
 11
0.0
 21
-6.784021854400663
 31
12.17722892761186
 12
34.0
 22
-6.784021854400663
 32
12.17722892761187
 13
34.0
 23
-74.16448473930362
 33
0.0000000000000071
  0
3DFACE
  5
100D1
330
1F
100
AcDbEntity
  8
ACESSORIOS
100
AcDbFace
 10
2.0
 20
-74.16448473930362
 30
2.0
 11
34.0
 21
-74.16448473930362
 31
2.000000000000007
 12
34.0
 22
-6.784021854400663
 32
14.17722892761187
 13
2.0
 23
-6.784021854400663
 33
14.17722892761186
  0
3DFACE
  5
100D2
330
1F
100
AcDbEntity
  8
ACESSORIOS
100
AcDbFace
 10
34.0
 20
-74.16448473930362
 30
0.0
 11
34.0
 21
-74.16448473930362
 31
2.000000000000007
 12
34.0
 22
-6.784021854400663
 32
14.17722892761187
 13
34.0
 23
-6.784021854400663
 33
12.17722892761187
  0
3DFACE
  5
100D3
330
1F
100
AcDbEntity
  8
ACESSORIOS
100
AcDbFace
 10
0.0
 20
-0.0000000000000284
 30
67.6440644264219
 11
0.0
 21
-6.784021854400663
 31
12.17722892761186
 12
0.0
 22
-74.16448473930362
 32
0.0
 13
0.0
 23
-123.210529088974
 33
54.01105165481499
  0
3DFACE
  5
100D4
330
1F
100
AcDbEntity
  8
ACESSORIOS
100
AcDbFace
 10
0.0
 20
-11.71085238456729
 30
124.259421825409
 11
0.0
 21
-11.71085238456729
 31
102.7549552917479
 12
0.0
 22
-123.210529088974
 32
80.10983943939186
 13
0.0
 23
-120.2105331420894
 33
124.259421825409
  0
3DFACE
  5
100D5
330
1F
100
AcDbEntity
  8
ACESSORIOS
100
AcDbFace
 10
0.0
 20
-11.71085238456729
 30
102.7549552917479
 11
0.0
 21
-0.0000000000000284
 31
67.6440644264219
 12
0.0
 22
-123.210529088974
 32
54.01105165481499
 13
0.0
 23
-123.210529088974
 33
80.10983943939186
  0
3DFACE
  5
100D6
330
1F
100
AcDbEntity
  8
ACESSORIOS
100
AcDbFace
 10
0.0
 20
-74.16448473930362
 30
0.0
 11
0.0
 21
-125.7018542289734
 31
19.27390694618202
 12
0.0
 22
-125.7018542289734
 32
46.69088602065994
 13
0.0
 23
-123.210529088974
 33
54.01105165481499
  0
3DFACE
  5
100D7
330
1F
100
AcDbEntity
  8
ACESSORIOS
100
AcDbFace
 10
2.0
 20
-11.71085238456729
 30
102.7549552917479
 11
2.0
 21
-0.0000000000000284
 31
67.6440644264219
 12
2.0
 22
-123.210529088974
 32
54.01105165481499
 13
2.0
 23
-123.210529088974
 33
80.10983943939186
  0
3DFACE
  5
100D8
330
1F
100
AcDbEntity
  8
ACESSORIOS
100
AcDbFace
 10
2.0
 20
-0.0000000000000284
 30
67.6440644264219
 11
2.0
 21
-6.784021854400663
 31
14.17722892761186
 12
2.0
 22
-74.16448473930362
 32
2.0
 13
2.0
 23
-123.210529088974
 33
54.01105165481499
  0
3DFACE
  5
100D9
330
1F
100
AcDbEntity
  8
ACESSORIOS
100
AcDbFace
 10
2.0
 20
-74.16448473930362
 30
2.0
 11
2.0
 21
-125.7018542289734
 31
21.27390694618202
 12
2.0
 22
-125.7018542289734
 32
46.69088602065994
 13
2.0
 23
-123.210529088974
 33
54.01105165481499
  0
3DFACE
  5
100DA
330
1F
100
AcDbEntity
  8
ACESSORIOS
100
AcDbFace
 10
2.0
 20
-11.71085238456729
 30
102.7549552917479
 11
2.0
 21
-11.71085238456729
 31
122.259421825409
 12
1.999999999999998
 22
-120.2105331420894
 32
120.7594113349909
 13
2.0
 23
-123.210529088974
 33
80.10983943939186
  0
3DFACE
  5
100DB
330
1F
100
AcDbEntity
  8
ACESSORIOS
100
AcDbFace
 10
0.0
 20
-123.210529088974
 30
80.10983943939186
 11
0.0
 21
-135.4395246505733
 31
87.17024803161597
 12
0.0
 22
-139.7105550765992
 32
103.1098413467398
 13
0.0
 23
-121.7105311155317
 33
102.1846306324004
  0
3DFACE
  5
100DC
330
1F
100
AcDbEntity
  8
ACESSORIOS
100
AcDbFace
 10
0.0
 20
-121.7105311155317
 30
102.1846306324004
 11
0.0
 21
-139.7105550765992
 31
103.1098413467398
 12
0.0
 22
-139.7105550765992
 32
122.7594113349909
 13
0.0
 23
-120.3124599361459
 33
122.7594113349909
  0
3DFACE
  5
100DF
330
1F
100
AcDbEntity
  8
ACESSORIOS
100
AcDbFace
 10
34.0
 20
-120.2105331420894
 30
124.259421825409
 11
34.0
 21
-120.2105331420894
 31
122.259421825409
 12
34.0
 22
-11.71085238456729
 32
122.259421825409
 13
34.0
 23
-11.71085238456729
 33
124.259421825409
  0
3DFACE
  5
100E0
330
1F
100
AcDbEntity
  8
ACESSORIOS
100
AcDbFace
 10
0.0
 20
-11.71085238456729
 30
124.259421825409
 11
2.0
 21
-11.71085238456729
 31
122.259421825409
 12
34.0
 22
-11.71085238456729
 32
122.259421825409
 13
34.0
 23
-11.71085238456729
 33
124.259421825409
  0
3DFACE
  5
100E1
330
1F
100
AcDbEntity
  8
ACESSORIOS
100
AcDbFace
 10
0.0
 20
-11.71085238456729
 30
124.259421825409
 11
0.0
 21
-11.71085238456729
 31
102.7549552917479
 12
2.0
 22
-11.71085238456729
 32
102.7549552917479
 13
2.0
 23
-11.71085238456729
 33
122.259421825409
  0
3DFACE
  5
100E2
330
1F
100
AcDbEntity
  8
ACESSORIOS
100
AcDbFace
 10
0.0
 20
-11.71085238456729
 30
102.7549552917479
 11
0.0
 21
-0.0000000000000284
 31
67.6440644264219
 12
2.0
 22
-0.0000000000000284
 32
67.6440644264219
 13
2.0
 23
-11.71085238456729
 33
102.7549552917479
  0
3DFACE
  5
100E3
330
1F
100
AcDbEntity
  8
ACESSORIOS
100
AcDbFace
 10
2.0
 20
-0.0000000000000284
 30
67.6440644264219
 11
0.0
 21
-0.0000000000000284
 31
67.6440644264219
 12
0.0
 22
-6.784021854400663
 32
12.17722892761186
 13
2.0
 23
-6.784021854400663
 33
14.17722892761186
  0
3DFACE
  5
100E4
330
1F
100
AcDbEntity
  8
ACESSORIOS
100
AcDbFace
 10
0.0
 20
-6.784021854400663
 30
12.17722892761186
 11
34.0
 21
-6.784021854400663
 31
12.17722892761187
 12
34.0
 22
-6.784021854400663
 32
14.17722892761187
 13
2.0
 23
-6.784021854400663
 33
14.17722892761186
  0
3DFACE
  5
100E5
330
1F
100
AcDbEntity
  8
ACESSORIOS
100
AcDbFace
 10
0.0
 20
-120.2105331420894
 30
124.259421825409
 11
34.0
 21
-120.2105331420894
 31
124.259421825409
 12
34.0
 22
-11.71085238456729
 32
124.259421825409
 13
0.0
 23
-11.71085238456729
 33
124.259421825409
  0
3DFACE
  5
100E6
330
1F
100
AcDbEntity
  8
ACESSORIOS
100
AcDbFace
 10
0.0
 20
-139.7105550765992
 30
122.7594113349909
 11
0.0
 21
-120.3124599361459
 31
122.7594113349909
 12
34.0
 22
-120.2105331420894
 32
122.7594113349909
 13
34.0
 23
-139.7105550765992
 33
122.7594113349909
  0
3DFACE
  5
100E7
330
1F
100
AcDbEntity
  8
ACESSORIOS
100
AcDbFace
 10
1.999999999999998
 20
-139.7105550765992
 30
120.7594113349909
 11
1.999999999999998
 21
-120.2105331420894
 31
120.7594113349909
 12
34.0
 22
-120.2105331420894
 32
120.7594113349909
 13
34.0
 23
-139.7105550765992
 33
120.7594113349909
  0
3DFACE
  5
100E8
330
1F
100
AcDbEntity
  8
ACESSORIOS
100
AcDbFace
 10
34.0
 20
-139.7105550765992
 30
122.7594113349909
 11
34.0
 21
-139.7105550765992
 31
120.7594113349909
 12
34.0
 22
-120.2105331420894
 32
120.7594113349909
 13
34.0
 23
-120.2105331420894
 33
122.7594113349909
  0
3DFACE
  5
100E9
330
1F
100
AcDbEntity
  8
ACESSORIOS
100
AcDbFace
 10
0.0
 20
-120.2105331420894
 30
124.259421825409
 11
0.0
 21
-120.3124599361459
 31
122.7594113349909
 12
34.0
 22
-120.2105331420894
 32
122.7594113349909
 13
34.0
 23
-120.2105331420894
 33
124.259421825409
  0
3DFACE
  5
100EA
330
1F
100
AcDbEntity
  8
ACESSORIOS
100
AcDbFace
 10
2.0
 20
-123.210529088974
 30
80.10983943939186
 11
2.0
 21
-135.4395246505733
 31
87.17024803161597
 12
2.0
 22
-139.7105550765992
 32
103.1098413467398
 13
1.999999999999999
 23
-121.7105311155317
 33
100.4346253871914
  0
3DFACE
  5
100EB
330
1F
100
AcDbEntity
  8
ACESSORIOS
100
AcDbFace
 10
2.0
 20
-139.7105550765992
 30
103.1098413467398
 11
1.999999999999998
 21
-139.7105550765992
 31
120.7594113349909
 12
1.999999999999998
 22
-120.2105331420894
 32
120.7594113349909
 13
1.999999999999999
 23
-121.7105311155317
 33
100.4346253871914
  0
3DFACE
  5
100EE
330
1F
100
AcDbEntity
  8
CINZA
100
AcDbFace
 10
-2.71898561371313
 20
-73.0405290889741
 30
40.96104165481501
 11
-2.71898561371313
 21
-71.8505290889741
 31
38.35105165481501
 12
-2.71898561371313
 22
-71.4105290889741
 32
38.35105165481501
 13
-2.71898561371313
 23
-73.13052908897407
 33
43.72103165481501
 70
    10
  0
3DFACE
  5
100EF
330
1F
100
AcDbEntity
  8
CINZA
100
AcDbFace
 10
-2.71898561371313
 20
-73.13052908897407
 30
43.72103165481501
 11
-2.71898561371313
 21
-76.83052908897406
 31
44.501041654815
 12
-2.71898561371313
 22
-74.88052908897407
 32
41.38103165481501
 13
-2.71898561371313
 23
-73.0405290889741
 33
40.96104165481501
 70
    10
  0
3DFACE
  5
100F0
330
1F
100
AcDbEntity
  8
CINZA
100
AcDbFace
 10
-2.71898561371313
 20
-74.88052908897407
 30
41.38103165481501
 11
-2.71898561371313
 21
-75.53052908897405
 31
39.96103165481501
 12
-2.71898561371313
 22
-79.84052908897405
 32
41.67103165481501
 13
-2.71898561371313
 23
-76.83052908897406
 33
44.501041654815
 70
    10
  0
3DFACE
  5
100F1
330
1F
100
AcDbEntity
  8
CINZA
100
AcDbFace
 10
-2.71898561371313
 20
-75.53052908897405
 30
39.96103165481501
 11
-2.71898561371313
 21
-75.06052908897408
 31
38.501041654815
 12
-2.71898561371313
 22
-78.94052908897407
 32
38.17104165481502
 13
-2.71898561371313
 23
-79.84052908897405
 33
41.67103165481501
 70
    10
  0
3DFACE
  5
100F2
330
1F
100
AcDbEntity
  8
CINZA
100
AcDbFace
 10
-2.71898561371313
 20
-74.26052908897407
 30
37.55104165481501
 11
-2.71898561371313
 21
-73.21052908897406
 31
37.06104165481501
 12
-2.71898561371313
 22
-74.46052908897406
 32
33.73103165481501
 13
-2.71898561371313
 23
-77.24052908897409
 33
35.44104165481501
 70
    10
  0
3DFACE
  5
100F3
330
1F
100
AcDbEntity
  8
CINZA
100
AcDbFace
 10
-2.71898561371313
 20
-88.010529088974
 30
34.21105165481501
 11
-2.71898561371313
 21
-91.07052908897407
 31
35.31104165481501
 12
-2.71898561371313
 22
-91.92442908897408
 32
37.97365165481501
 13
-2.71898561371313
 23
-90.60052908897407
 33
37.04103165481501
 70
    10
  0
3DFACE
  5
100F4
330
1F
100
AcDbEntity
  8
CINZA
100
AcDbFace
 10
-2.71898561371313
 20
-85.210529088974
 30
35.251041654815
 11
-2.71898561371313
 21
-88.010529088974
 31
34.21105165481501
 12
-2.71898561371313
 22
-90.60052908897407
 32
37.04103165481501
 13
-2.71898561371313
 23
-89.53052908897398
 33
37.04103165481501
 70
    10
  0
3DFACE
  5
100F5
330
1F
100
AcDbEntity
  8
CINZA
100
AcDbFace
 10
-2.71898561371313
 20
-83.150529088974
 30
48.20104165481501
 11
-2.71898561371313
 21
-87.07052908897411
 31
48.20104165481501
 12
-2.71898561371313
 22
-82.6005290889741
 32
34.14104165481501
 13
-2.71898561371313
 23
-78.6605290889741
 33
34.14104165481501
  0
3DFACE
  5
100F6
330
1F
100
AcDbEntity
  8
CINZA
100
AcDbFace
 10
-2.71898561371313
 20
-85.00052908897413
 30
37.46103165481501
 11
-2.71898561371313
 21
-85.210529088974
 31
35.251041654815
 12
-2.71898561371313
 22
-89.53052908897398
 32
37.04103165481501
 13
-2.71898561371313
 23
-89.13052908897406
 33
38.001041654815
 70
    10
  0
3DFACE
  5
100F7
330
1F
100
AcDbEntity
  8
CINZA
100
AcDbFace
 10
-2.71898561371313
 20
-87.34052908897398
 30
44.38103165481501
 11
-2.71898561371313
 21
-91.26052908897398
 31
44.38103165481501
 12
-2.71898561371313
 22
-89.13052908897406
 32
38.001041654815
 13
-2.71898561371313
 23
-85.00052908897413
 33
37.46103165481501
 70
     4
  0
3DFACE
  5
100F8
330
1F
100
AcDbEntity
  8
CINZA
100
AcDbFace
 10
-2.71898561371313
 20
-75.06052908897408
 30
38.501041654815
 11
-2.71898561371313
 21
-74.26052908897407
 31
37.55104165481501
 12
-2.71898561371313
 22
-77.24052908897409
 32
35.44104165481501
 13
-2.71898561371313
 23
-78.94052908897407
 33
38.17104165481502
 70
    10
  0
3DFACE
  5
100F9
330
1F
100
AcDbEntity
  8
CINZA
100
AcDbFace
 10
-2.71898561371313
 20
-70.62052908897408
 30
48.20104165481501
 11
-2.71898561371313
 21
-74.5405290889741
 31
48.20104165481501
 12
-2.71898561371313
 22
-70.08052908897406
 32
34.14104165481501
 13
-2.71898561371313
 23
-66.14052908897406
 33
34.14104165481501
  0
3DFACE
  5
100FA
330
1F
100
AcDbEntity
  8
CINZA
100
AcDbFace
 10
-2.71898561371313
 20
-71.4105290889741
 30
38.35105165481501
 11
-2.71898561371313
 21
-71.8505290889741
 31
38.35105165481501
 12
-2.71898561371313
 22
-71.24052908897409
 32
34.37103165481502
 13
-2.71898561371313
 23
-70.33052908897406
 33
34.93104165481501
 70
     3
  0
3DFACE
  5
100FB
330
1F
100
AcDbEntity
  8
CINZA
100
AcDbFace
 10
-2.71898561371313
 20
-73.21052908897406
 30
37.06104165481501
 11
-2.71898561371313
 21
-71.8505290889741
 31
38.35105165481501
 12
-2.71898561371313
 22
-71.24052908897409
 32
34.37103165481502
 13
-2.71898561371313
 23
-74.46052908897406
 33
33.73103165481501
 70
    10
  0
3DFACE
  5
100FC
330
1F
100
AcDbEntity
  8
CINZA
100
AcDbFace
 10
-2.71898561371313
 20
-104.0705290889741
 30
44.14103165481501
 11
-2.71898561371313
 21
-107.700529088974
 31
44.28103165481501
 12
-2.71898561371313
 22
-104.4506290889741
 32
40.98103165481501
 13
-2.71898561371313
 23
-102.8005290889741
 33
41.42103165481501
 70
    10
  0
3DFACE
  5
100FD
330
1F
100
AcDbEntity
  8
CINZA
100
AcDbFace
 10
-2.71898561371313
 20
-102.4506290889741
 30
43.22103165481501
 11
-2.71898561371313
 21
-104.0705290889741
 31
44.14103165481501
 12
-2.71898561371313
 22
-102.8005290889741
 32
41.42103165481501
 13
-2.71898561371313
 23
-101.580529088974
 33
40.44104165481501
 70
    10
  0
3DFACE
  5
100FE
330
1F
100
AcDbEntity
  8
CINZA
100
AcDbFace
 10
-2.71898561371313
 20
-109.9305290889741
 30
41.501041654815
 11
-2.71898561371313
 21
-111.1805290889741
 31
40.98103165481501
 12
-2.71898561371313
 22
-114.6205290889741
 32
43.87103165481502
 13
-2.71898561371313
 23
-111.390529088974
 33
44.30103165481501
 70
    10
  0
3DFACE
  5
100FF
330
1F
100
AcDbEntity
  8
CINZA
100
AcDbFace
 10
-2.71898561371313
 20
-111.1805290889741
 30
40.98103165481501
 11
-2.71898561371313
 21
-111.1005290889741
 31
40.06104165481501
 12
-2.71898561371313
 22
-115.1605290889741
 32
40.44104165481501
 13
-2.71898561371313
 23
-114.6205290889741
 33
43.87103165481502
 70
    10
  0
3DFACE
  5
10100
330
1F
100
AcDbEntity
  8
CINZA
100
AcDbFace
 10
-2.71898561371313
 20
-104.4506290889741
 30
40.98103165481501
 11
-2.71898561371313
 21
-104.4905290889741
 31
40.44104165481501
 12
-2.71898561371313
 22
-109.0757290889741
 32
43.00607165481501
 13
-2.71898561371313
 23
-107.700529088974
 33
44.28103165481501
 70
    10
  0
3DFACE
  5
10101
330
1F
100
AcDbEntity
  8
CINZA
100
AcDbFace
 10
-2.71898561371313
 20
-108.4305290889741
 30
40.44104165481501
 11
-2.71898561371313
 21
-109.9305290889741
 31
41.501041654815
 12
-2.71898561371313
 22
-111.390529088974
 32
44.30103165481501
 13
-2.71898561371313
 23
-104.4905290889741
 33
40.44104165481501
 70
    10
  0
3DFACE
  5
10102
330
1F
100
AcDbEntity
  8
CINZA
100
AcDbFace
 10
-2.71898561371313
 20
-111.1005290889741
 30
40.06104165481501
 11
-2.71898561371313
 21
-115.1605290889741
 31
40.44104165481501
 12
-2.71898561371313
 22
-113.020529088974
 32
34.14104165481501
 13
-2.71898561371313
 23
-109.1005290889741
 33
34.14104165481501
 70
     1
  0
3DFACE
  5
10103
330
1F
100
AcDbEntity
  8
CINZA
100
AcDbFace
 10
-2.71898561371313
 20
-104.4905290889741
 30
40.44104165481501
 11
-2.71898561371313
 21
-108.4305290889741
 31
40.44104165481501
 12
-2.71898561371313
 22
-106.3005290889741
 32
34.14104165481501
 13
-2.71898561371313
 23
-102.3605290889741
 33
34.14104165481501
 70
     1
  0
3DFACE
  5
10104
330
1F
100
AcDbEntity
  8
CINZA
100
AcDbFace
 10
-2.71898561371313
 20
-98.89052908897398
 30
44.38103165481501
 11
-2.71898561371313
 21
-102.830529088974
 31
44.38103165481501
 12
-2.71898561371313
 22
-99.57052908897407
 32
34.14104165481501
 13
-2.71898561371313
 23
-95.63052908897407
 33
34.14104165481501
  0
3DFACE
  5
10105
330
1F
100
AcDbEntity
  8
CINZA
100
AcDbFace
 10
-2.71898561371313
 20
-93.97052908897408
 30
44.38103165481501
 11
-2.71898561371313
 21
-97.89052908897398
 31
44.38103165481501
 12
-2.71898561371313
 22
-94.64052908897398
 32
34.14104165481501
 13
-2.71898561371313
 23
-90.70052908897398
 33
34.14104165481501
  0
3DFACE
  5
10106
330
1F
100
AcDbEntity
  8
PRETO
100
AcDbFace
 10
0.0
 20
-123.210529088974
 30
54.01105165481499
 11
0.0
 21
-123.210529088974
 31
23.901051654815
 12
0.0
 22
-33.08222908897396
 32
23.901051654815
 13
0.0
 23
-33.08222908897396
 33
54.01105165481499
  0
3DFACE
  5
10107
330
1F
100
AcDbEntity
  8
PRETO
100
AcDbFace
 10
-1.359492806856565
 20
-123.210529088974
 30
54.01105165481499
 11
-1.359492806856565
 21
-123.210529088974
 31
23.901051654815
 12
-1.359492806856565
 22
-33.08222908897396
 32
23.901051654815
 13
-1.359492806856565
 23
-33.08222908897396
 33
54.01105165481499
  0
VIEWPORT
  5
FA33
330
73
100
AcDbEntity
 67
     1
  8
0
100
AcDbViewport
 10
210.0
 20
170.2366863905325
 30
0.0
 40
420.0
 41
340.4733727810651
 68
     1
 69
     1
 12
210.0
 22
170.2366863905325
 13
0.0
 23
0.0
 14
5.0
 24
5.0
 15
10.0
 25
10.0
 16
0.0
 26
0.0
 36
1.0
 17
0.0
 27
0.0
 37
0.0
 42
50.0
 43
0.0
 44
0.0
 45
340.4733727810651
 50
0.0
 51
0.0
 72
   100
 90
   557088
  1

281
     0
 71
     0
 74
     0
110
0.0
120
0.0
130
0.0
111
1.0
121
0.0
131
0.0
112
0.0
122
1.0
132
0.0
 79
     0
146
0.0
170
     0
 61
     5
292
     1
282
     1
141
0.0
142
0.0
 63
   256
  0
ENDSEC
  0
SECTION
  2
OBJECTS
  0
DICTIONARY
  5
C
330
0
100
AcDbDictionary
281
     1
  3
ACAD_COLOR
350
6C
  3
ACAD_GROUP
350
D
  3
ACAD_LAYOUT
350
1A
  3
ACAD_MATERIAL
350
6B
  3
ACAD_MLINESTYLE
350
17
  3
ACAD_PLOTSETTINGS
350
19
  3
ACAD_PLOTSTYLENAME
350
E
  3
ACAD_TABLESTYLE
350
92
  3
AcDbVariableDictionary
350
59
  0
DICTIONARY
  5
6C
102
{ACAD_REACTORS
330
C
102
}
330
C
100
AcDbDictionary
281
     1
  0
DICTIONARY
  5
D
102
{ACAD_REACTORS
330
C
102
}
330
C
100
AcDbDictionary
281
     1
  0
DICTIONARY
  5
1A
102
{ACAD_REACTORS
330
C
102
}
330
C
100
AcDbDictionary
281
     1
  3
Layout1
350
74
  3
Model
350
22
  0
DICTIONARY
  5
6B
102
{ACAD_REACTORS
330
C
102
}
330
C
100
AcDbDictionary
281
     1
  0
DICTIONARY
  5
17
102
{ACAD_REACTORS
330
C
102
}
330
C
100
AcDbDictionary
281
     1
  3
Standard
350
18
  0
DICTIONARY
  5
19
102
{ACAD_REACTORS
330
C
102
}
330
C
100
AcDbDictionary
281
     1
  0
ACDBDICTIONARYWDFLT
  5
E
102
{ACAD_REACTORS
330
C
102
}
330
C
100
AcDbDictionary
281
     1
  3
Normal
350
F
100
AcDbDictionaryWithDefault
340
F
  0
DICTIONARY
  5
92
102
{ACAD_REACTORS
330
C
102
}
330
C
100
AcDbDictionary
281
     1
  3
Standard
350
93
  0
DICTIONARY
  5
59
102
{ACAD_REACTORS
330
C
102
}
330
C
100
AcDbDictionary
281
     1
  3
CTABLESTYLE
350
98
  3
DIMASSOC
350
10070
  3
HALOGAP
350
10071
  3
HIDETEXT
350
10074
  3
INDEXCTL
350
10072
  3
XCLIPFRAME
350
10073
  0
LAYOUT
  5
74
102
{ACAD_REACTORS
330
1A
102
}
330
1A
100
AcDbPlotSettings
  1

  2
none_device
  4
Letter_(8.50_x_11.00_Inches)
  6

 40
6.35
 41
6.35
 42
6.35000508
 43
6.35000508
 44
215.9
 45
279.4
 46
0.0
 47
0.0
 48
0.0
 49
0.0
140
0.0
141
0.0
142
1.0
143
1.0
 70
   688
 72
     0
 73
     0
 74
     5
  7

 75
    16
 76
     0
 77
     2
 78
   300
147
1.0
148
0.0
149
0.0
100
AcDbLayout
  1
Layout1
 70
     1
 71
     1
 10
0.0
 20
0.0
 11
420.0
 21
297.0
 12
0.0
 22
0.0
 32
0.0
 14
1.000000000000000E+20
 24
1.000000000000000E+20
 34
1.000000000000000E+20
 15
-1.000000000000000E+20
 25
-1.000000000000000E+20
 35
-1.000000000000000E+20
146
0.0
 13
0.0
 23
0.0
 33
0.0
 16
1.0
 26
0.0
 36
0.0
 17
0.0
 27
1.0
 37
0.0
 76
     0
330
73
331
FA33
  0
LAYOUT
  5
22
102
{ACAD_REACTORS
330
1A
102
}
330
1A
100
AcDbPlotSettings
  1

  2
none_device
  4
Letter_(8.50_x_11.00_Inches)
  6

 40
6.35
 41
6.35
 42
6.35000508
 43
6.35000508
 44
215.9
 45
279.4
 46
0.0
 47
0.0
 48
0.0
 49
0.0
140
0.0
141
0.0
142
1.0
143
62.59080088061197
 70
 11952
 72
     0
 73
     0
 74
     0
  7

 75
     0
 76
     0
 77
     2
 78
   300
147
0.0159767886962724
148
0.0
149
0.0
100
AcDbLayout
  1
Model
 70
     1
 71
     0
 10
-150.0
 20
-150.0
 11
150.0
 21
150.0
 12
0.0
 22
0.0
 32
0.0
 14
-2.71898561371313
 24
-139.7105550765992
 34
-0.0000000000000018
 15
34.0
 25
5.000000000000025
 35
132.2859275341041
146
0.0
 13
0.0
 23
0.0
 33
0.0
 16
1.0
 26
0.0
 36
0.0
 17
0.0
 27
1.0
 37
0.0
 76
     0
330
1F
331
97
  0
MLINESTYLE
  5
18
102
{ACAD_REACTORS
330
17
102
}
330
17
100
AcDbMlineStyle
  2
Standard
 70
     0
  3

 62
   256
 51
90.0
 52
90.0
 71
     2
 49
0.5
 62
   256
  6
BYLAYER
 49
-0.5
 62
   256
  6
BYLAYER
  0
ACDBPLACEHOLDER
  5
F
102
{ACAD_REACTORS
330
E
102
}
330
E
  0
TABLESTYLE
  5
93
102
{ACAD_REACTORS
330
92
102
}
330
92
100
AcDbTableStyle
  3
Standard
 70
     0
 71
     0
 40
0.06
 41
0.06
280
     0
281
     0
  7
Standard
140
0.18
170
     2
 62
     0
 63
     7
283
     0
 90
      512
 91
        0
  1

274
    -2
284
     1
 64
     0
275
    -2
285
     1
 65
     0
276
    -2
286
     1
 66
     0
277
    -2
287
     1
 67
     0
278
    -2
288
     1
 68
     0
279
    -2
289
     1
 69
     0
  7
Standard
140
0.25
170
     5
 62
     0
 63
     7
283
     0
 90
      512
 91
        0
  1

274
    -2
284
     1
 64
     0
275
    -2
285
     1
 65
     0
276
    -2
286
     1
 66
     0
277
    -2
287
     1
 67
     0
278
    -2
288
     1
 68
     0
279
    -2
289
     1
 69
     0
  7
Standard
140
0.18
170
     5
 62
     0
 63
     7
283
     0
 90
      512
 91
        0
  1

274
    -2
284
     1
 64
     0
275
    -2
285
     1
 65
     0
276
    -2
286
     1
 66
     0
277
    -2
287
     1
 67
     0
278
    -2
288
     1
 68
     0
279
    -2
289
     1
 69
     0
  0
DICTIONARYVAR
  5
98
102
{ACAD_REACTORS
330
59
102
}
330
59
100
DictionaryVariables
280
     0
  1
Standard
  0
DICTIONARYVAR
  5
10070
102
{ACAD_REACTORS
330
59
102
}
330
59
100
DictionaryVariables
280
     0
  1
2
  0
DICTIONARYVAR
  5
10071
102
{ACAD_REACTORS
330
59
102
}
330
59
100
DictionaryVariables
280
     0
  1
0
  0
DICTIONARYVAR
  5
10074
102
{ACAD_REACTORS
330
59
102
}
330
59
100
DictionaryVariables
280
     0
  1
1
  0
DICTIONARYVAR
  5
10072
102
{ACAD_REACTORS
330
59
102
}
330
59
100
DictionaryVariables
280
     0
  1
0
  0
DICTIONARYVAR
  5
10073
102
{ACAD_REACTORS
330
59
102
}
330
59
100
DictionaryVariables
280
     0
  1
0
  0
ENDSEC
  0
EOF
