  0
SECTION
  2
HEADER
  9
$ACADVER
  1
AC1009
  9
$DWGCODEPAGE
  3
undefined
  9
$INSBASE
 10
0.0
 20
0.0
 30
0.0
  9
$EXTMIN
 10
-0.0000000000000036
 20
-26.00001
 30
-0.000007189488
  9
$EXTMAX
 10
8.256892310144373
 20
0.0
 30
40.700002810512
  9
$LIMMIN
 10
0.0
 20
0.0
  9
$LIMMAX
 10
12.0
 20
9.0
  9
$ORTHOMODE
 70
     1
  9
$REGENMODE
 70
     1
  9
$FILLMODE
 70
     1
  9
$QTEXTMODE
 70
     0
  9
$MIRRTEXT
 70
     1
  9
$DRAGMODE
 70
     2
  9
$LTSCALE
 40
1.0
  9
$OSMODE
 70
    37
  9
$ATTMODE
 70
     1
  9
$TEXTSIZE
 40
0.2
  9
$TRACEWID
 40
0.05
  9
$TEXTSTYLE
  7
STANDARD
  9
$CLAYER
  8
0
  9
$CELTYPE
  6
BYBLOCK
  9
$CECOLOR
 62
   256
  9
$DIMSCALE
 40
1.0
  9
$DIMASZ
 40
0.18
  9
$DIMEXO
 40
0.0625
  9
$DIMDLI
 40
0.38
  9
$DIMRND
 40
0.0
  9
$DIMDLE
 40
0.0
  9
$DIMEXE
 40
0.18
  9
$DIMTP
 40
0.0
  9
$DIMTM
 40
0.0
  9
$DIMTXT
 40
0.18
  9
$DIMCEN
 40
0.09
  9
$DIMTSZ
 40
0.0
  9
$DIMTOL
 70
     0
  9
$DIMLIM
 70
     0
  9
$DIMTIH
 70
     1
  9
$DIMTOH
 70
     1
  9
$DIMSE1
 70
     0
  9
$DIMSE2
 70
     0
  9
$DIMTAD
 70
     0
  9
$DIMZIN
 70
     0
  9
$DIMBLK
  1

  9
$DIMASO
 70
     1
  9
$DIMSHO
 70
     1
  9
$DIMPOST
  1

  9
$DIMAPOST
  1

  9
$DIMALT
 70
     0
  9
$DIMALTD
 70
     2
  9
$DIMALTF
 40
25.4
  9
$DIMLFAC
 40
1.0
  9
$DIMTOFL
 70
     0
  9
$DIMTVP
 40
0.0
  9
$DIMTIX
 70
     0
  9
$DIMSOXD
 70
     0
  9
$DIMSAH
 70
     0
  9
$DIMBLK1
  1

  9
$DIMBLK2
  1

  9
$DIMSTYLE
  2
STANDARD
  9
$DIMCLRD
 70
     0
  9
$DIMCLRE
 70
     0
  9
$DIMCLRT
 70
     0
  9
$DIMTFAC
 40
1.0
  9
$DIMGAP
 40
0.09
  9
$LUNITS
 70
     2
  9
$LUPREC
 70
     4
  9
$SKETCHINC
 40
0.1
  9
$FILLETRAD
 40
0.5
  9
$AUNITS
 70
     0
  9
$AUPREC
 70
     0
  9
$MENU
  1
.
  9
$ELEVATION
 40
0.0
  9
$PELEVATION
 40
0.0
  9
$THICKNESS
 40
0.0
  9
$LIMCHECK
 70
     0
  9
$CHAMFERA
 40
0.5
  9
$CHAMFERB
 40
0.5
  9
$SKPOLY
 70
     0
  9
$TDCREATE
 40
2456615.610953692
  9
$TDUPDATE
 40
2456615.610953692
  9
$TDINDWG
 40
0.0211226852
  9
$TDUSRTIMER
 40
0.0211111111
  9
$USRTIMER
 70
     1
  9
$ANGBASE
 50
0.0
  9
$ANGDIR
 70
     0
  9
$PDMODE
 70
     0
  9
$PDSIZE
 40
0.0
  9
$PLINEWID
 40
0.0
  9
$COORDS
 70
     1
  9
$SPLFRAME
 70
     0
  9
$SPLINETYPE
 70
     6
  9
$SPLINESEGS
 70
     8
  9
$ATTDIA
 70
     0
  9
$ATTREQ
 70
     1
  9
$HANDLING
 70
     1
  9
$HANDSEED
  5
243
  9
$SURFTAB1
 70
     6
  9
$SURFTAB2
 70
     6
  9
$SURFTYPE
 70
     6
  9
$SURFU
 70
     6
  9
$SURFV
 70
     6
  9
$UCSNAME
  2

  9
$UCSORG
 10
0.0
 20
0.0
 30
0.0
  9
$UCSXDIR
 10
0.0
 20
1.0
 30
0.0
  9
$UCSYDIR
 10
0.0
 20
0.0
 30
1.0
  9
$PUCSNAME
  2

  9
$PUCSORG
 10
0.0
 20
0.0
 30
0.0
  9
$PUCSXDIR
 10
1.0
 20
0.0
 30
0.0
  9
$PUCSYDIR
 10
0.0
 20
1.0
 30
0.0
  9
$USERI1
 70
     0
  9
$USERI2
 70
     0
  9
$USERI3
 70
     0
  9
$USERI4
 70
     0
  9
$USERI5
 70
     0
  9
$USERR1
 40
0.0
  9
$USERR2
 40
0.0
  9
$USERR3
 40
0.0
  9
$USERR4
 40
0.0
  9
$USERR5
 40
0.0
  9
$WORLDVIEW
 70
     1
  9
$SHADEDGE
 70
     3
  9
$SHADEDIF
 70
    70
  9
$TILEMODE
 70
     1
  9
$MAXACTVP
 70
    64
  9
$PLIMCHECK
 70
     0
  9
$PEXTMIN
 10
1.000000000000000E+20
 20
1.000000000000000E+20
 30
1.000000000000000E+20
  9
$PEXTMAX
 10
-1.000000000000000E+20
 20
-1.000000000000000E+20
 30
-1.000000000000000E+20
  9
$PLIMMIN
 10
0.0
 20
0.0
  9
$PLIMMAX
 10
12.0
 20
9.0
  9
$UNITMODE
 70
     0
  9
$VISRETAIN
 70
     1
  9
$PLINEGEN
 70
     0
  9
$PSLTSCALE
 70
     1
  0
ENDSEC
  0
SECTION
  2
TABLES
  0
TABLE
  2
VPORT
 70
     1
  0
VPORT
  2
*ACTIVE
 70
     0
 10
0.0
 20
0.0
 11
1.0
 21
1.0
 12
12.11164396297409
 22
12.99390490197841
 13
0.0
 23
0.0
 14
0.5
 24
0.5
 15
0.5
 25
0.5
 16
-1.0
 26
-1.0
 36
1.0
 17
0.0
 27
0.0
 37
0.0
 40
60.20134453712104
 41
1.972972972850329
 42
50.0
 43
0.0
 44
0.0
 50
0.0
 51
0.0
 71
    16
 72
    16
 73
     0
 74
     0
 75
     0
 76
     0
 77
     0
 78
     0
  0
ENDTAB
  0
TABLE
  2
LTYPE
 70
     1
  0
LTYPE
  2
CONTINUOUS
 70
     0
  3
Solid line
 72
    65
 73
     0
 40
0.0
  0
ENDTAB
  0
TABLE
  2
LAYER
 70
     6
  0
LAYER
  2
0
 70
     0
 62
     7
  6
CONTINUOUS
  0
LAYER
  2
ACESSORIO
 70
     0
 62
     7
  6
CONTINUOUS
  0
LAYER
  2
CINZA
 70
     0
 62
     9
  6
CONTINUOUS
  0
LAYER
  2
PRETO
 70
     0
 62
    28
  6
CONTINUOUS
  0
LAYER
  2
DT_RENDER
 70
     0
 62
     7
  6
CONTINUOUS
  0
LAYER
  2
BLUM
 70
     0
 62
    30
  6
CONTINUOUS
  0
ENDTAB
  0
TABLE
  2
STYLE
 70
     1
  0
STYLE
  2
STANDARD
 70
     0
 40
0.0
 41
1.0
 50
0.0
 71
     0
 42
0.2
  3
txt
  4

  0
ENDTAB
  0
TABLE
  2
VIEW
 70
     0
  0
ENDTAB
  0
TABLE
  2
UCS
 70
     0
  0
ENDTAB
  0
TABLE
  2
APPID
 70
     4
  0
APPID
  2
ACAD
 70
     0
  0
APPID
  2
DTRENDER2
 70
     0
  0
APPID
  2
DT_MAT_ASSIGN
 70
     0
  0
APPID
  2
DT_MAT_MAPPING
 70
     0
  0
ENDTAB
  0
TABLE
  2
DIMSTYLE
 70
     1
  0
DIMSTYLE
  2
STANDARD
 70
     0
  3

  4

  5

  6

  7

 40
1.0
 41
0.18
 42
0.0625
 43
0.38
 44
0.18
 45
0.0
 46
0.0
 47
0.0
 48
0.0
140
0.18
141
0.09
142
0.0
143
25.4
144
1.0
145
0.0
146
1.0
147
0.09
 71
     0
 72
     0
 73
     1
 74
     1
 75
     0
 76
     0
 77
     0
 78
     0
170
     0
171
     2
172
     0
173
     0
174
     0
175
     0
176
     0
177
     0
178
     0
  0
ENDTAB
  0
ENDSEC
  0
SECTION
  2
BLOCKS
  0
BLOCK
  8
0
  2
$MODEL_SPACE
 70
     0
 10
0.0
 20
0.0
 30
0.0
  3
$MODEL_SPACE
  1

  0
ENDBLK
  5
21
  8
0
  0
BLOCK
 67
     1
  8
0
  2
$PAPER_SPACE
 70
     0
 10
0.0
 20
0.0
 30
0.0
  3
$PAPER_SPACE
  1

  0
ENDBLK
  5
76
 67
     1
  8
0
  0
BLOCK
  8
0
  2
DT_LIGHT
 70
     0
 10
0.0
 20
0.0
 30
0.0
  3
DT_LIGHT
  1

  0
ENDBLK
  5
22D
  8
0
  0
BLOCK
  8
0
  2
DT_MATERIAL
 70
     0
 10
0.0
 20
0.0
 30
0.0
  3
DT_MATERIAL
  1

  0
ENDBLK
  5
22F
  8
0
  0
BLOCK
  8
0
  2
DT_COLOR
 70
     0
 10
0.0
 20
0.0
 30
0.0
  3
DT_COLOR
  1

  0
ENDBLK
  5
231
  8
0
  0
BLOCK
  8
0
  2
DT_FLOOR
 70
     0
 10
0.0
 20
0.0
 30
0.0
  3
DT_FLOOR
  1

  0
ENDBLK
  5
233
  8
0
  0
BLOCK
  8
0
  2
DT_OPTIONS
 70
     0
 10
0.0
 20
0.0
 30
0.0
  3
DT_OPTIONS
  1

  0
ENDBLK
  5
235
  8
0
  0
BLOCK
  8
0
  2
DT_BACKGROUND
 70
     0
 10
0.0
 20
0.0
 30
0.0
  3
DT_BACKGROUND
  1

  0
ENDBLK
  5
237
  8
0
  0
ENDSEC
  0
SECTION
  2
ENTITIES
  0
3DFACE
  5
13F
  8
ACESSORIO
 10
-0.0000000000000027
 20
-22.000011
 30
40.699992810512
 11
7.499999999999989
 21
-22.000011
 31
40.699992810512
 12
7.499999999999993
 22
-0.0000099999999996
 32
40.700002810512
 13
0.0
 23
-0.0000099999999996
 33
40.700002810512
  0
3DFACE
  5
23
  8
ACESSORIO
 10
7.499999999999993
 20
-0.0000099999999996
 30
40.700002810512
 11
0.0
 21
-0.0000099999999996
 31
40.700002810512
 12
0.0
 22
-0.0000099999999996
 32
39.700002810512
 13
7.499999999999993
 23
-0.0000099999999996
 33
39.700002810512
  0
3DFACE
  5
24
  8
ACESSORIO
 10
0.0
 20
-0.0000099999999996
 30
39.700002810512
 11
7.499999999999993
 21
-0.0000099999999996
 31
39.700002810512
 12
7.499999999999989
 22
-22.000011
 32
39.699992810512
 13
-0.0000000000000027
 23
-22.000011
 33
39.699992810512
  0
3DFACE
  5
25
  8
ACESSORIO
 10
-0.0000000000000036
 20
-25.0000101
 30
36.699992810512
 11
7.499999999999989
 21
-25.0000101
 31
36.699992810512
 12
7.499999999999996
 22
-24.999999
 32
3.999991810512
 13
-0.0000000000000036
 23
-24.999999
 33
3.999991810512
  0
3DFACE
  5
26
  8
ACESSORIO
 10
-0.0000000000000036
 20
-25.99999931381
 30
3.999991810512
 11
-0.0000000000000036
 21
-26.00001
 31
36.699992810512
 12
7.499999999999989
 22
-26.00001
 32
36.699992810512
 13
7.499999999999996
 23
-25.99999931381
 33
3.999991810512
  0
3DFACE
  5
140
  8
ACESSORIO
 10
-0.0000000000000027
 20
-21.999998
 30
-0.000007189488
 11
7.499999999999996
 21
-21.999998
 31
-0.000007189488
 12
7.5
 22
0.0
 32
0.0
 13
0.0
 23
0.0
 33
0.0
  0
3DFACE
  5
28
  8
ACESSORIO
 10
0.0
 20
0.0
 30
0.999999810512
 11
0.0
 21
0.0
 31
0.0
 12
7.5
 22
0.0
 32
0.0
 13
7.5
 23
0.0
 33
0.999999810512
  0
3DFACE
  5
29
  8
ACESSORIO
 10
7.499999999999996
 20
-21.999999
 30
0.999992710512
 11
7.5
 21
0.0
 31
0.999999810512
 12
0.0
 22
0.0
 32
0.999999810512
 13
-0.0000000000000027
 23
-21.999999
 33
0.999992710512
  0
3DFACE
  5
2A
  8
ACESSORIO
 10
6.499999999999996
 20
-21.999999
 30
0.999992710512
 11
6.5
 21
0.0
 31
0.999999810512
 12
6.5
 22
-0.0000099999999996
 32
39.700002810512
 13
6.499999999999996
 23
-22.000011
 33
39.699992810512
  0
3DFACE
  5
2B
  8
ACESSORIO
 10
7.499999999999996
 20
-21.999999
 30
0.999992710512
 11
7.5
 21
0.0
 31
0.999999810512
 12
7.499999999999993
 22
-0.0000099999999996
 32
39.700002810512
 13
7.499999999999989
 23
-22.000011
 33
39.699992810512
  0
3DFACE
  5
2C
  8
ACESSORIO
 10
6.5
 20
-0.0000099999999996
 30
39.700002810512
 11
7.499999999999993
 21
-0.0000099999999996
 31
39.700002810512
 12
7.5
 22
0.0
 32
0.999999810512
 13
6.5
 23
0.0
 33
0.999999810512
  0
3DFACE
  5
2D
  8
ACESSORIO
 10
-0.0000000000000027
 20
-22.000011
 30
39.699992810512
 11
-0.0000000000000027
 21
-22.000011
 31
40.699992810512
 12
0.0
 22
-0.0000099999999996
 32
40.700002810512
 13
0.0
 23
-0.0000099999999996
 33
39.700002810512
  0
3DFACE
  5
2E
  8
ACESSORIO
 10
-0.0000000000000036
 20
-25.0000101
 30
36.699992810512
 11
-0.0000000000000036
 21
-26.00001
 31
36.699992810512
 12
-0.0000000000000036
 22
-25.99999931381
 32
3.999991810512
 13
-0.0000000000000036
 23
-24.999999
 33
3.999991810512
  0
3DFACE
  5
2F
  8
ACESSORIO
 10
-0.0000000000000027
 20
-21.999999
 30
0.999992710512
 11
-0.0000000000000027
 21
-21.999998
 31
-0.000007189488
 12
0.0
 22
0.0
 32
0.0
 13
0.0
 23
0.0
 33
0.999999810512
  0
POLYLINE
  5
30
  8
ACESSORIO
 66
     1
 10
0.0
 20
0.0
 30
0.0
 70
    16
 71
     2
 72
     7
  0
VERTEX
  5
31
  8
ACESSORIO
 10
-0.0000000000000027
 20
-21.999998
 30
-0.000007189488
 70
    64
  0
VERTEX
  5
32
  8
ACESSORIO
 10
-0.0000000000000036
 20
-23.035274
 30
0.136289110512
 70
    64
  0
VERTEX
  5
33
  8
ACESSORIO
 10
-0.0000000000000036
 20
-23.999998
 30
0.535890510512
 70
    64
  0
VERTEX
  5
34
  8
ACESSORIO
 10
-0.0000000000000036
 20
-24.828425
 30
1.171564810512
 70
    64
  0
VERTEX
  5
35
  8
ACESSORIO
 10
-0.0000000000000036
 20
-25.4641003
 30
1.999991810512
 70
    64
  0
VERTEX
  5
36
  8
ACESSORIO
 10
-0.0000000000000036
 20
-25.8637023
 30
2.964714810512
 70
    64
  0
VERTEX
  5
37
  8
ACESSORIO
 10
-0.0000000000000036
 20
-25.99999931381
 30
3.999991810512
 70
    64
  0
VERTEX
  5
38
  8
ACESSORIO
 10
7.499999999999996
 20
-21.999998
 30
-0.000007189488
 70
    64
  0
VERTEX
  5
39
  8
ACESSORIO
 10
7.499999999999996
 20
-23.035274
 30
0.136289110512
 70
    64
  0
VERTEX
  5
3A
  8
ACESSORIO
 10
7.499999999999996
 20
-23.999998
 30
0.535890510512
 70
    64
  0
VERTEX
  5
3B
  8
ACESSORIO
 10
7.499999999999996
 20
-24.828425
 30
1.171564810512
 70
    64
  0
VERTEX
  5
3C
  8
ACESSORIO
 10
7.499999999999996
 20
-25.4641003
 30
1.999991810512
 70
    64
  0
VERTEX
  5
3D
  8
ACESSORIO
 10
7.499999999999996
 20
-25.8637023
 30
2.964714810512
 70
    64
  0
VERTEX
  5
3E
  8
ACESSORIO
 10
7.499999999999996
 20
-25.99999931381
 30
3.999991810512
 70
    64
  0
SEQEND
  5
238
  8
ACESSORIO
  0
POLYLINE
  5
40
  8
ACESSORIO
 66
     1
 10
0.0
 20
0.0
 30
0.0
 70
    16
 71
     2
 72
     7
  0
VERTEX
  5
41
  8
ACESSORIO
 10
7.499999999999996
 20
-21.999999
 30
0.999992710512
 70
    64
  0
VERTEX
  5
42
  8
ACESSORIO
 10
7.499999999999996
 20
-22.776455
 30
1.102214810512
 70
    64
  0
VERTEX
  5
43
  8
ACESSORIO
 10
7.499999999999996
 20
-23.499999
 30
1.401915810512
 70
    64
  0
VERTEX
  5
44
  8
ACESSORIO
 10
7.499999999999996
 20
-24.121319
 30
1.878671810512
 70
    64
  0
VERTEX
  5
45
  8
ACESSORIO
 10
7.499999999999996
 20
-24.598075
 30
2.499991810512
 70
    64
  0
VERTEX
  5
46
  8
ACESSORIO
 10
7.499999999999996
 20
-24.897776
 30
3.223534810512
 70
    64
  0
VERTEX
  5
47
  8
ACESSORIO
 10
7.499999999999996
 20
-24.999999
 30
3.999991810512
 70
    64
  0
VERTEX
  5
48
  8
ACESSORIO
 10
-0.0000000000000027
 20
-21.999999
 30
0.999992710512
 70
    64
  0
VERTEX
  5
49
  8
ACESSORIO
 10
-0.0000000000000036
 20
-22.776455
 30
1.102214810512
 70
    64
  0
VERTEX
  5
4A
  8
ACESSORIO
 10
-0.0000000000000036
 20
-23.499999
 30
1.401915810512
 70
    64
  0
VERTEX
  5
4B
  8
ACESSORIO
 10
-0.0000000000000036
 20
-24.121319
 30
1.878671810512
 70
    64
  0
VERTEX
  5
4C
  8
ACESSORIO
 10
-0.0000000000000036
 20
-24.598075
 30
2.499991810512
 70
    64
  0
VERTEX
  5
4D
  8
ACESSORIO
 10
-0.0000000000000036
 20
-24.897776
 30
3.223534810512
 70
    64
  0
VERTEX
  5
4E
  8
ACESSORIO
 10
-0.0000000000000036
 20
-24.999999
 30
3.999991810512
 70
    64
  0
SEQEND
  5
239
  8
ACESSORIO
  0
POLYLINE
  5
50
  8
ACESSORIO
 66
     1
 10
0.0
 20
0.0
 30
0.0
 70
    16
 71
     2
 72
     7
  0
VERTEX
  5
51
  8
ACESSORIO
 10
7.499999999999989
 20
-22.000011
 30
39.699992810512
 70
    64
  0
VERTEX
  5
52
  8
ACESSORIO
 10
7.499999999999989
 20
-22.776468
 30
39.597772810512
 70
    64
  0
VERTEX
  5
53
  8
ACESSORIO
 10
7.499999999999989
 20
-23.500011
 30
39.298062810512
 70
    64
  0
VERTEX
  5
54
  8
ACESSORIO
 10
7.499999999999989
 20
-24.121331
 30
38.821312810512
 70
    64
  0
VERTEX
  5
55
  8
ACESSORIO
 10
7.499999999999989
 20
-24.598087
 30
38.199992810512
 70
    64
  0
VERTEX
  5
56
  8
ACESSORIO
 10
7.499999999999989
 20
-24.897788
 30
37.476452810512
 70
    64
  0
VERTEX
  5
57
  8
ACESSORIO
 10
7.499999999999989
 20
-25.0000101
 30
36.699992810512
 70
    64
  0
VERTEX
  5
58
  8
ACESSORIO
 10
-0.0000000000000027
 20
-22.000011
 30
39.699992810512
 70
    64
  0
VERTEX
  5
144
  8
ACESSORIO
 10
-0.0000000000000036
 20
-22.776468
 30
39.597772810512
 70
    64
  0
VERTEX
  5
145
  8
ACESSORIO
 10
-0.0000000000000036
 20
-23.500011
 30
39.298062810512
 70
    64
  0
VERTEX
  5
5B
  8
ACESSORIO
 10
-0.0000000000000036
 20
-24.121331
 30
38.821312810512
 70
    64
  0
VERTEX
  5
5C
  8
ACESSORIO
 10
-0.0000000000000036
 20
-24.598087
 30
38.199992810512
 70
    64
  0
VERTEX
  5
5D
  8
ACESSORIO
 10
-0.0000000000000036
 20
-24.897788
 30
37.476452810512
 70
    64
  0
VERTEX
  5
146
  8
ACESSORIO
 10
-0.0000000000000036
 20
-25.0000101
 30
36.699992810512
 70
    64
  0
SEQEND
  5
23A
  8
ACESSORIO
  0
POLYLINE
  5
60
  8
ACESSORIO
 66
     1
 10
0.0
 20
0.0
 30
0.0
 70
    16
 71
     2
 72
     7
  0
VERTEX
  5
61
  8
ACESSORIO
 10
-0.0000000000000027
 20
-22.000011
 30
40.699992810512
 70
    64
  0
VERTEX
  5
62
  8
ACESSORIO
 10
-0.0000000000000036
 20
-23.035288
 30
40.563702810512
 70
    64
  0
VERTEX
  5
63
  8
ACESSORIO
 10
-0.0000000000000036
 20
-24.000011
 30
40.164092810512
 70
    64
  0
VERTEX
  5
64
  8
ACESSORIO
 10
-0.0000000000000036
 20
-24.828438
 30
39.528422810512
 70
    64
  0
VERTEX
  5
65
  8
ACESSORIO
 10
-0.0000000000000036
 20
-25.4641123
 30
38.699992810512
 70
    64
  0
VERTEX
  5
66
  8
ACESSORIO
 10
-0.0000000000000036
 20
-25.8637137
 30
37.735262810512
 70
    64
  0
VERTEX
  5
67
  8
ACESSORIO
 10
-0.0000000000000036
 20
-26.00001
 30
36.699992810512
 70
    64
  0
VERTEX
  5
68
  8
ACESSORIO
 10
7.499999999999989
 20
-22.000011
 30
40.699992810512
 70
    64
  0
VERTEX
  5
69
  8
ACESSORIO
 10
7.499999999999989
 20
-23.035288
 30
40.563702810512
 70
    64
  0
VERTEX
  5
6A
  8
ACESSORIO
 10
7.499999999999989
 20
-24.000011
 30
40.164092810512
 70
    64
  0
VERTEX
  5
148
  8
ACESSORIO
 10
7.499999999999989
 20
-24.828438
 30
39.528422810512
 70
    64
  0
VERTEX
  5
149
  8
ACESSORIO
 10
7.499999999999989
 20
-25.4641123
 30
38.699992810512
 70
    64
  0
VERTEX
  5
6D
  8
ACESSORIO
 10
7.499999999999989
 20
-25.8637137
 30
37.735262810512
 70
    64
  0
VERTEX
  5
6E
  8
ACESSORIO
 10
7.499999999999989
 20
-26.00001
 30
36.699992810512
 70
    64
  0
SEQEND
  5
23B
  8
ACESSORIO
  0
POLYLINE
  5
70
  8
ACESSORIO
 66
     1
 10
0.0
 20
0.0
 30
0.0
 70
    16
 71
     2
 72
     7
  0
VERTEX
  5
71
  8
ACESSORIO
 10
6.499999999999996
 20
-22.000011
 30
39.699992810512
 70
    64
  0
VERTEX
  5
72
  8
ACESSORIO
 10
6.499999999999996
 20
-22.776468
 30
39.597772810512
 70
    64
  0
VERTEX
  5
14B
  8
ACESSORIO
 10
6.499999999999996
 20
-23.500011
 30
39.298062810512
 70
    64
  0
VERTEX
  5
14C
  8
ACESSORIO
 10
6.499999999999996
 20
-24.121331
 30
38.821312810512
 70
    64
  0
VERTEX
  5
14D
  8
ACESSORIO
 10
6.499999999999996
 20
-24.598087
 30
38.199992810512
 70
    64
  0
VERTEX
  5
14E
  8
ACESSORIO
 10
6.499999999999996
 20
-24.897788
 30
37.476452810512
 70
    64
  0
VERTEX
  5
77
  8
ACESSORIO
 10
6.499999999999996
 20
-25.0000101
 30
36.699992810512
 70
    64
  0
VERTEX
  5
78
  8
ACESSORIO
 10
6.499999999999996
 20
-21.999999
 30
0.999992710512
 70
    64
  0
VERTEX
  5
79
  8
ACESSORIO
 10
6.499999999999996
 20
-22.776455
 30
1.102214810512
 70
    64
  0
VERTEX
  5
7A
  8
ACESSORIO
 10
6.499999999999996
 20
-23.499999
 30
1.401915810512
 70
    64
  0
VERTEX
  5
7B
  8
ACESSORIO
 10
6.499999999999996
 20
-24.121319
 30
1.878671810512
 70
    64
  0
VERTEX
  5
7C
  8
ACESSORIO
 10
6.499999999999996
 20
-24.598075
 30
2.499991810512
 70
    64
  0
VERTEX
  5
7D
  8
ACESSORIO
 10
6.499999999999996
 20
-24.897776
 30
3.223534810512
 70
    64
  0
VERTEX
  5
7E
  8
ACESSORIO
 10
6.499999999999996
 20
-24.999999
 30
3.999991810512
 70
    64
  0
SEQEND
  5
23C
  8
ACESSORIO
  0
POLYLINE
  5
80
  8
ACESSORIO
 66
     1
 10
0.0
 20
0.0
 30
0.0
 70
    16
 71
     2
 72
     7
  0
VERTEX
  5
81
  8
ACESSORIO
 10
7.499999999999989
 20
-22.000011
 30
39.699992810512
 70
    64
  0
VERTEX
  5
82
  8
ACESSORIO
 10
7.499999999999989
 20
-22.776468
 30
39.597772810512
 70
    64
  0
VERTEX
  5
83
  8
ACESSORIO
 10
7.499999999999989
 20
-23.500011
 30
39.298062810512
 70
    64
  0
VERTEX
  5
84
  8
ACESSORIO
 10
7.499999999999989
 20
-24.121331
 30
38.821312810512
 70
    64
  0
VERTEX
  5
85
  8
ACESSORIO
 10
7.499999999999989
 20
-24.598087
 30
38.199992810512
 70
    64
  0
VERTEX
  5
86
  8
ACESSORIO
 10
7.499999999999989
 20
-24.897788
 30
37.476452810512
 70
    64
  0
VERTEX
  5
87
  8
ACESSORIO
 10
7.499999999999989
 20
-25.0000101
 30
36.699992810512
 70
    64
  0
VERTEX
  5
88
  8
ACESSORIO
 10
7.499999999999996
 20
-21.999999
 30
0.999992710512
 70
    64
  0
VERTEX
  5
89
  8
ACESSORIO
 10
7.499999999999996
 20
-22.776455
 30
1.102214810512
 70
    64
  0
VERTEX
  5
8A
  8
ACESSORIO
 10
7.499999999999996
 20
-23.499999
 30
1.401915810512
 70
    64
  0
VERTEX
  5
8B
  8
ACESSORIO
 10
7.499999999999996
 20
-24.121319
 30
1.878671810512
 70
    64
  0
VERTEX
  5
8C
  8
ACESSORIO
 10
7.499999999999996
 20
-24.598075
 30
2.499991810512
 70
    64
  0
VERTEX
  5
8D
  8
ACESSORIO
 10
7.499999999999996
 20
-24.897776
 30
3.223534810512
 70
    64
  0
VERTEX
  5
8E
  8
ACESSORIO
 10
7.499999999999996
 20
-24.999999
 30
3.999991810512
 70
    64
  0
SEQEND
  5
23D
  8
ACESSORIO
  0
POLYLINE
  5
90
  8
ACESSORIO
 66
     1
 10
0.0
 20
0.0
 30
0.0
 70
    16
 71
     2
 72
     7
  0
VERTEX
  5
91
  8
ACESSORIO
 10
-0.0000000000000027
 20
-21.999999
 30
0.999992710512
 70
    64
  0
VERTEX
  5
151
  8
ACESSORIO
 10
-0.0000000000000036
 20
-22.776455
 30
1.102214810512
 70
    64
  0
VERTEX
  5
152
  8
ACESSORIO
 10
-0.0000000000000036
 20
-23.499999
 30
1.401915810512
 70
    64
  0
VERTEX
  5
94
  8
ACESSORIO
 10
-0.0000000000000036
 20
-24.121319
 30
1.878671810512
 70
    64
  0
VERTEX
  5
95
  8
ACESSORIO
 10
-0.0000000000000036
 20
-24.598075
 30
2.499991810512
 70
    64
  0
VERTEX
  5
96
  8
ACESSORIO
 10
-0.0000000000000036
 20
-24.897776
 30
3.223534810512
 70
    64
  0
VERTEX
  5
153
  8
ACESSORIO
 10
-0.0000000000000036
 20
-24.999999
 30
3.999991810512
 70
    64
  0
VERTEX
  5
154
  8
ACESSORIO
 10
-0.0000000000000027
 20
-21.999998
 30
-0.000007189488
 70
    64
  0
VERTEX
  5
99
  8
ACESSORIO
 10
-0.0000000000000036
 20
-23.035274
 30
0.136289110512
 70
    64
  0
VERTEX
  5
9A
  8
ACESSORIO
 10
-0.0000000000000036
 20
-23.999998
 30
0.535890510512
 70
    64
  0
VERTEX
  5
9B
  8
ACESSORIO
 10
-0.0000000000000036
 20
-24.828425
 30
1.171564810512
 70
    64
  0
VERTEX
  5
9C
  8
ACESSORIO
 10
-0.0000000000000036
 20
-25.4641003
 30
1.999991810512
 70
    64
  0
VERTEX
  5
9D
  8
ACESSORIO
 10
-0.0000000000000036
 20
-25.8637023
 30
2.964714810512
 70
    64
  0
VERTEX
  5
9E
  8
ACESSORIO
 10
-0.0000000000000036
 20
-25.99999931381
 30
3.999991810512
 70
    64
  0
SEQEND
  5
23E
  8
ACESSORIO
  0
POLYLINE
  5
A0
  8
ACESSORIO
 66
     1
 10
0.0
 20
0.0
 30
0.0
 70
    16
 71
     2
 72
     7
  0
VERTEX
  5
A1
  8
ACESSORIO
 10
-0.0000000000000027
 20
-22.000011
 30
39.699992810512
 70
    64
  0
VERTEX
  5
A2
  8
ACESSORIO
 10
-0.0000000000000036
 20
-22.776468
 30
39.597772810512
 70
    64
  0
VERTEX
  5
A3
  8
ACESSORIO
 10
-0.0000000000000036
 20
-23.500011
 30
39.298062810512
 70
    64
  0
VERTEX
  5
A4
  8
ACESSORIO
 10
-0.0000000000000036
 20
-24.121331
 30
38.821312810512
 70
    64
  0
VERTEX
  5
A5
  8
ACESSORIO
 10
-0.0000000000000036
 20
-24.598087
 30
38.199992810512
 70
    64
  0
VERTEX
  5
A6
  8
ACESSORIO
 10
-0.0000000000000036
 20
-24.897788
 30
37.476452810512
 70
    64
  0
VERTEX
  5
A7
  8
ACESSORIO
 10
-0.0000000000000036
 20
-25.0000101
 30
36.699992810512
 70
    64
  0
VERTEX
  5
A8
  8
ACESSORIO
 10
-0.0000000000000027
 20
-22.000011
 30
40.699992810512
 70
    64
  0
VERTEX
  5
A9
  8
ACESSORIO
 10
-0.0000000000000036
 20
-23.035288
 30
40.563702810512
 70
    64
  0
VERTEX
  5
AA
  8
ACESSORIO
 10
-0.0000000000000036
 20
-24.000011
 30
40.164092810512
 70
    64
  0
VERTEX
  5
AB
  8
ACESSORIO
 10
-0.0000000000000036
 20
-24.828438
 30
39.528422810512
 70
    64
  0
VERTEX
  5
AC
  8
ACESSORIO
 10
-0.0000000000000036
 20
-25.4641123
 30
38.699992810512
 70
    64
  0
VERTEX
  5
AD
  8
ACESSORIO
 10
-0.0000000000000036
 20
-25.8637137
 30
37.735262810512
 70
    64
  0
VERTEX
  5
AE
  8
ACESSORIO
 10
-0.0000000000000036
 20
-26.00001
 30
36.699992810512
 70
    64
  0
SEQEND
  5
23F
  8
ACESSORIO
  0
3DFACE
  5
D7
  8
BLUM
 10
8.256892310144357
 20
-11.60046201078403
 30
10.92905165770856
 11
8.256892310144357
 21
-10.13049152858928
 31
10.25883266307186
 12
8.256892310144357
 22
-10.13049152858928
 32
10.01102059782808
 13
8.256892310144357
 23
-13.15491387885738
 33
10.97974048923566
 70
    10
  0
3DFACE
  5
D8
  8
BLUM
 10
8.256892310144357
 20
-13.15491387885738
 30
10.97974048923566
 11
8.256892310144364
 21
-13.59422271751837
 31
13.06361467424043
 12
8.256892310144357
 22
-11.83700425915167
 32
11.96535665781901
 13
8.256892310144357
 23
-11.60046201078403
 33
10.92905165770856
 70
    10
  0
3DFACE
  5
D9
  8
BLUM
 10
8.256892310144357
 20
-11.83700425915167
 30
11.96535665781901
 11
8.256892310144364
 21
-11.03724713950118
 31
12.33144266329282
 12
8.256892310144364
 22
-12.0003349385169
 32
14.75887448420379
 13
8.256892310144364
 23
-13.59422271751837
 33
13.06361467424043
 70
    10
  0
3DFACE
  5
DA
  8
BLUM
 10
8.256892310144364
 20
-11.03724713950118
 30
12.33144266329282
 11
8.256892310144364
 21
-10.21496728237546
 31
12.06673432087327
 12
8.256892310144364
 22
-10.0291082334426
 32
14.25198616893235
 13
8.256892310144364
 23
-12.0003349385169
 33
14.75887448420379
 70
    10
  0
3DFACE
  5
DB
  8
BLUM
 10
8.256892310144357
 20
-9.679918505144501
 30
11.61616692952091
 11
8.256892310144357
 21
-9.403945977941142
 31
11.02479722837086
 12
8.256892310144357
 22
-7.528453579344462
 32
11.72880877735896
 13
8.256892310144364
 23
-8.49154701045258
 33
13.29453046230851
 70
    10
  0
3DFACE
  5
DC
  8
BLUM
 10
8.256892310144364
 20
-7.798805278340664
 30
19.36029396839002
 11
8.256892310144364
 21
-8.4183298093578
 31
21.08371424031294
 12
8.256892310144364
 22
-9.9179363617188
 32
21.56463860965772
 13
8.256892310144364
 23
-9.39267616106497
 33
20.81900589789347
 70
    10
  0
3DFACE
  5
DD
  8
BLUM
 10
8.256892310144364
 20
-8.384537255006368
 30
17.78330809865669
 11
8.256892310144364
 21
-7.798805278340664
 31
19.36029396839002
 12
8.256892310144364
 22
-9.39267616106497
 32
20.81900589789347
 13
8.256892310144364
 23
-9.39267616106497
 33
20.21637201195955
 70
    10
  0
3DFACE
  5
DE
  8
BLUM
 10
8.256892310144364
 20
-15.67809690252316
 30
16.62309706592425
 11
8.256892310144364
 21
-15.67809690252316
 31
18.83087728355105
 12
8.256892310144364
 22
-7.759374999504956
 32
16.31333198436957
 13
8.256892310144364
 23
-7.759374999504951
 33
14.09428758195911
  0
3DFACE
  5
DF
  8
BLUM
 10
8.256892310144364
 20
-9.629224041524974
 30
17.66503415842674
 11
8.256892310144364
 21
-8.384537255006368
 31
17.78330809865669
 12
8.256892310144364
 22
-9.39267616106497
 32
20.21637201195955
 13
8.256892310144364
 23
-9.933362662780224
 33
19.99108831628343
 70
    10
  0
3DFACE
  5
E0
  8
BLUM
 10
8.256892310144364
 20
-13.52663197672313
 30
18.98294377813242
 11
8.256892310144364
 21
-13.52663197672313
 31
21.19072399575909
 12
8.256892310144364
 22
-9.933362662780224
 32
19.99108831628343
 13
8.256892310144364
 23
-9.629224041524974
 33
17.66503415842674
 70
     4
  0
3DFACE
  5
E1
  8
BLUM
 10
8.256892310144364
 20
-10.21496728237546
 30
12.06673432087327
 11
8.256892310144357
 21
-9.679918505144501
 31
11.61616692952091
 12
8.256892310144364
 22
-8.49154701045258
 32
13.29453046230851
 13
8.256892310144364
 23
-10.0291082334426
 33
14.25198616893235
 70
    10
  0
3DFACE
  5
E2
  8
BLUM
 10
8.256892310144357
 20
-15.67809690252316
 30
9.566085298867549
 11
8.256892310144357
 21
-15.67809690252316
 31
11.77386551649429
 12
8.256892310144357
 22
-7.759374999504951
 32
9.26195230970466
 13
8.256892310144357
 23
-7.759374999504951
 33
7.042907907294179
  0
3DFACE
  5
E3
  8
BLUM
 10
8.256892310144357
 20
-10.13049152858928
 30
10.01102059782808
 11
8.256892310144357
 21
-10.13049152858928
 31
10.25883266307186
 12
8.256892310144357
 22
-7.888907492426372
 32
9.91527502716563
 13
8.256892310144357
 23
-8.204310298465437
 33
9.40275461950228
 70
     3
  0
3DFACE
  5
E4
  8
BLUM
 10
8.256892310144357
 20
-9.403945977941142
 30
11.02479722837086
 11
8.256892310144357
 21
-10.13049152858928
 31
10.25883266307186
 12
8.256892310144357
 22
-7.888907492426372
 32
9.91527502716563
 13
8.256892310144357
 23
-7.528453579344462
 33
11.72880877735896
 70
    10
  0
3DFACE
  5
E5
  8
BLUM
 10
8.256892310144373
 20
-13.3914617593174
 30
28.40543434978927
 11
8.256892310144373
 21
-13.47031105280407
 31
30.44988388805069
 12
8.256892310144373
 22
-11.61172056347548
 32
28.61951018160559
 13
8.256892310144373
 23
-11.85953262871929
 33
27.69015861601737
 70
    10
  0
3DFACE
  5
E6
  8
BLUM
 10
8.256892310144373
 20
-12.87330925926214
 30
27.49309170322461
 11
8.256892310144373
 21
-13.3914617593174
 31
28.40543434978927
 12
8.256892310144373
 22
-11.85953262871929
 32
27.69015861601737
 13
8.256892310144373
 23
-11.307593206405
 33
27.00304334420494
 70
    10
  0
3DFACE
  5
E7
  8
BLUM
 10
8.256892310144373
 20
-11.90459499994692
 30
31.70584049144551
 11
8.256892310144373
 21
-11.61172056347548
 31
32.40985204043361
 12
8.256892310144373
 22
-13.23939526473597
 32
34.34729182324887
 13
8.256892310144373
 23
-13.48157523758786
 33
32.52812598066352
 70
    10
  0
3DFACE
  5
E8
  8
BLUM
 10
8.256892310144373
 20
-11.61172056347548
 30
32.40985204043361
 11
8.256892310144373
 21
-11.0935736955126
 31
32.36479530129838
 12
8.256892310144373
 22
-11.307593206405
 32
34.65142481241175
 13
8.256892310144373
 23
-13.23939526473597
 33
34.34729182324887
 70
    10
  0
3DFACE
  5
E9
  8
BLUM
 10
8.256892310144373
 20
-11.61172056347548
 30
28.61951018160559
 11
8.256892310144373
 21
-11.307593206405
 31
28.64198223024929
 12
8.256892310144373
 22
-12.75224180120578
 32
31.22440923378547
 13
8.256892310144373
 23
-13.47031105280407
 33
30.44988388805069
 70
    10
  0
3DFACE
  5
EA
  8
BLUM
 10
8.256892310144373
 20
-11.307593206405
 30
30.86102663265979
 11
8.256892310144373
 21
-11.90459499994692
 31
31.70584049144551
 12
8.256892310144373
 22
-13.48157523758786
 32
32.52812598066352
 13
8.256892310144373
 23
-11.307593206405
 33
28.64198223024929
 70
    10
  0
3DFACE
  5
EB
  8
BLUM
 10
8.256892310144373
 20
-11.0935736955126
 30
32.36479530129838
 11
8.256892310144373
 21
-11.307593206405
 31
34.65142481241175
 12
8.256892310144373
 22
-7.759374999504956
 32
33.44615704054405
 13
8.256892310144373
 23
-7.759374999504956
 33
31.23837682291741
 70
     1
  0
3DFACE
  5
EC
  8
BLUM
 10
8.256892310144373
 20
-11.307593206405
 30
28.64198223024929
 11
8.256892310144373
 21
-11.307593206405
 31
30.86102663265979
 12
8.256892310144373
 22
-7.759374999504956
 32
29.66139095318405
 13
8.256892310144373
 23
-7.759374999504956
 33
27.44234655077355
 70
     1
  0
3DFACE
  5
ED
  8
BLUM
 10
8.256892310144364
 20
-13.52663197672313
 30
25.48801049078249
 11
8.256892310144373
 21
-13.52663197672313
 31
27.70705489319304
 12
8.256892310144373
 22
-7.759374999504956
 32
25.87099277343206
 13
8.256892310144364
 23
-7.759374999504956
 33
23.65194837102158
  0
3DFACE
  5
EE
  8
BLUM
 10
8.256892310144364
 20
-13.52663197672313
 30
22.7170210339654
 11
8.256892310144364
 21
-13.52663197672313
 31
24.92480125159201
 12
8.256892310144364
 22
-7.759374999504956
 32
23.09437122422293
 13
8.256892310144364
 23
-7.759374999504956
 33
20.87532682181247
  0
INSERT
  5
108
  8
DT_RENDER
  6
BYBLOCK
  2
DT_MATERIAL
 10
-7.5
 20
26.00001
 30
-0.000007189488
1001
DTRENDER2
1000
MATERIAL
1071
   200501
1040
0.25
1040
0.5
1040
0.0
1040
0.8
1040
80.0
1040
0.0
1071
        1
1000
DEFAULT
1071
       16
1000

1040
0.0
1040
0.0
1040
0.0
1040
1.0
1040
1.0
1040
1.0
1040
0.0
1071
 16777215
1040
1.0
1071
 16777215
1040
1.0
1071
 16777215
1040
1.0
1071
 16777215
1040
1.0
1071
 16777215
1040
2.187
1040
0.5
1071
        3
1040
2.5
  0
3DFACE
  5
126
  8
ACESSORIO
  6
BYBLOCK
 10
7.499999999999996
 20
-21.999998
 30
-0.000007189488
 11
7.499999999999989
 21
-22.000011
 31
40.699992810512
 12
7.499999999999993
 22
-0.0000099999999996
 32
40.700002810512
 13
7.5
 23
0.0
 33
0.0
  0
3DFACE
  5
127
  8
ACESSORIO
  6
BYBLOCK
 10
7.499999999999996
 20
-23.035274
 30
0.136289110512
 11
7.499999999999996
 21
-21.999998
 31
-0.000007189488
 12
7.499999999999989
 22
-22.000011
 32
40.699992810512
 13
7.499999999999989
 23
-23.035288
 33
40.563702810512
  0
3DFACE
  5
128
  8
ACESSORIO
  6
BYBLOCK
 10
7.499999999999989
 20
-22.000011
 30
40.699992810512
 11
7.499999999999989
 21
-23.035288
 31
40.563702810512
 12
7.499999999999996
 22
-23.035274
 32
0.136289110512
 13
7.499999999999996
 23
-21.999998
 33
-0.000007189488
  0
3DFACE
  5
129
  8
ACESSORIO
  6
BYBLOCK
 10
7.499999999999989
 20
-24.000011
 30
40.164092810512
 11
7.499999999999989
 21
-23.035288
 31
40.563702810512
 12
7.499999999999996
 22
-23.035274
 32
0.136289110512
 13
7.499999999999996
 23
-23.999998
 33
0.535890510512
  0
3DFACE
  5
12A
  8
ACESSORIO
  6
BYBLOCK
 10
7.499999999999996
 20
-24.828425
 30
1.171564810512
 11
7.499999999999996
 21
-23.999998
 31
0.535890510512
 12
7.499999999999989
 22
-24.000011
 32
40.164092810512
 13
7.499999999999989
 23
-24.828438
 33
39.528422810512
  0
3DFACE
  5
12B
  8
ACESSORIO
  6
BYBLOCK
 10
7.499999999999989
 20
-24.828438
 30
39.528422810512
 11
7.499999999999989
 21
-25.4641123
 31
38.699992810512
 12
7.499999999999996
 22
-25.4641003
 32
1.999991810512
 13
7.499999999999996
 23
-24.828425
 33
1.171564810512
  0
3DFACE
  5
12C
  8
ACESSORIO
  6
BYBLOCK
 10
7.499999999999996
 20
-25.8637023
 30
2.964714810512
 11
7.499999999999996
 21
-25.4641003
 31
1.999991810512
 12
7.499999999999989
 22
-25.4641123
 32
38.699992810512
 13
7.499999999999989
 23
-25.8637137
 33
37.735262810512
  0
3DFACE
  5
12D
  8
ACESSORIO
  6
BYBLOCK
 10
7.499999999999989
 20
-25.8637137
 30
37.735262810512
 11
7.499999999999989
 21
-26.00001
 31
36.699992810512
 12
7.499999999999996
 22
-25.99999931381
 32
3.999991810512
 13
7.499999999999996
 23
-25.8637023
 33
2.964714810512
  0
ENDSEC
  0
EOF
