0
SECTION
2
HEADER
9
$ACADVER
1
AC1009
0
ENDSEC
0
SECTION
2
TABLES
0
TABLE
2
LAYER
70
1
0
LAYER
2
ACESSORIO
70
0
62
250
6
CONTINUOUS
0
ENDTAB
0
ENDSEC
0
SECTION
2
ENTITIES
0
3DFACE
8
ACESSORIO
10
13.400000000000000
20
-27.400020000000000
30
23.355470000000000
11
14.950000000000000
21
-27.400020000000000
31
23.355470000000000
12
14.950000000000000
22
-27.400020000000000
32
91.200000000000000
13
13.400000000000000
23
-27.400020000000000
33
23.355470000000000
0
3DFACE
8
ACESSORIO
10
13.400000000000000
20
-26.100020000000000
30
23.355470000000000
11
14.950000000000000
21
-26.100020000000000
31
23.355470000000000
12
14.950000000000000
22
-26.100020000000000
32
91.200000000000000
13
13.400000000000000
23
-26.100020000000000
33
23.355470000000000
0
3DFACE
8
ACESSORIO
10
14.950000000000000
20
-2.995686000000000
30
23.355460000000000
11
16.700000000000000
21
-21.500040000000000
31
38.199570000000000
12
16.700000000000000
22
-21.500070000000000
32
25.150000000000000
13
14.950000000000000
23
-2.995686000000000
33
23.355460000000000
0
3DFACE
8
ACESSORIO
10
16.700000000000000
20
-21.500070000000000
30
25.150000000000000
11
16.700000000000000
21
-21.500040000000000
31
38.199570000000000
12
16.700000000000000
22
-3.016866000000000
32
25.149990000000000
13
16.700000000000000
23
-21.500070000000000
33
25.150000000000000
0
3DFACE
8
ACESSORIO
10
16.700000000000000
20
-21.500040000000000
30
51.784910000000000
11
16.700000000000000
21
-21.500050000000000
31
73.815570000000000
12
16.700000000000000
22
-5.100034000000000
32
73.815570000000000
13
16.700000000000000
23
-21.500040000000000
33
51.784910000000000
0
3DFACE
8
ACESSORIO
10
14.950000000000000
20
-0.100023700000000
30
70.999990000000000
11
14.950000000000000
21
-27.400020000000000
31
70.999990000000000
12
14.950000000000000
22
-27.400040000000000
32
27.199980000000000
13
14.950000000000000
23
-0.100038000000000
33
27.199980000000000
0
3DFACE
8
ACESSORIO
10
13.700000000000000
20
-0.100023700000000
30
70.999990000000000
11
13.700000000000000
21
-27.400020000000000
31
70.999990000000000
12
13.700000000000000
22
-27.400040000000000
32
27.199980000000000
13
13.700000000000000
23
-0.100038000000000
33
27.199980000000000
0
3DFACE
8
ACESSORIO
10
14.950000000000000
20
-27.400040000000000
30
23.355470000000000
11
13.700000000000000
21
-27.400040000000000
31
23.355470000000000
12
13.700000000000000
22
-2.995686000000000
32
23.355460000000000
13
14.950000000000000
23
-2.995686000000000
33
23.355460000000000
0
3DFACE
8
ACESSORIO
10
14.950000000000000
20
-0.100038000000000
30
27.199980000000000
11
13.700000000000000
21
-0.100038000000000
31
27.199980000000000
12
13.700000000000000
22
-0.100023700000000
32
70.999990000000000
13
14.950000000000000
23
-0.100023700000000
33
70.999990000000000
0
3DFACE
8
ACESSORIO
10
14.950000000000000
20
-4.100022000000000
30
74.999990000000000
11
13.700000000000000
21
-4.100022000000000
31
74.999990000000000
12
13.700000000000000
22
-19.400020000000000
32
75.000000000000000
13
14.950000000000000
23
-19.400020000000000
33
75.000000000000000
0
3DFACE
8
ACESSORIO
10
9.900000000000000
20
-5.000007000000000
30
22.402130000000000
11
7.400000000000000
21
-5.000007000000000
31
22.402130000000000
12
7.400000000000000
22
-24.500040000000000
32
22.402140000000000
13
9.900000000000000
23
-24.500040000000000
33
22.402140000000000
0
3DFACE
8
ACESSORIO
10
7.400000000000000
20
-24.500040000000000
30
22.402140000000000
11
7.400000000000000
21
-5.000007000000000
31
22.402130000000000
12
7.400000000000000
22
-5.000002000000000
32
39.197770000000000
13
7.400000000000000
23
-24.500040000000000
33
39.197780000000000
0
3DFACE
8
ACESSORIO
10
7.400000000000000
20
-5.000002000000000
30
39.197770000000000
11
7.400000000000000
21
-24.500040000000000
31
39.197780000000000
12
9.900000000000000
22
-24.500040000000000
32
39.197780000000000
13
9.900000000000000
23
-5.000002000000000
33
39.197770000000000
0
3DFACE
8
ACESSORIO
10
9.900000000000000
20
-1.002187000000000
30
26.399950000000000
11
7.400000000000000
21
-1.002187000000000
31
26.399950000000000
12
7.400000000000000
22
-1.002183000000000
32
35.199940000000000
13
9.900000000000000
23
-1.002183000000000
33
35.199950000000000
0
3DFACE
8
ACESSORIO
10
11.350000000000000
20
-0.000008482479000
30
26.399950000000000
11
9.900000000000000
21
-0.000008482479000
31
26.399950000000000
12
9.900000000000000
22
0.000000000000000
32
54.899950000000000
13
11.350000000000000
23
0.000000000000000
33
54.899950000000000
0
3DFACE
8
ACESSORIO
10
9.900000000000000
20
-24.500030000000000
30
58.897780000000000
11
7.400000000000000
21
-24.500030000000000
31
58.897780000000000
12
7.400000000000000
22
-4.999998000000000
32
58.897770000000000
13
9.900000000000000
23
-4.999998000000000
33
58.897770000000000
0
3DFACE
8
ACESSORIO
10
9.900000000000000
20
-5.000000000000000
30
50.851210000000000
11
7.400000000000000
21
-5.000000000000000
31
50.851210000000000
12
7.400000000000000
22
-24.500030000000000
32
50.851220000000000
13
9.900000000000000
23
-24.500030000000000
33
50.851220000000000
0
3DFACE
8
ACESSORIO
10
11.350000000000000
20
-4.999996000000000
30
59.899950000000000
11
9.900000000000000
21
-4.999996000000000
31
59.899950000000000
12
9.900000000000000
22
-24.500030000000000
32
59.899960000000000
13
11.350000000000000
23
-24.500030000000000
33
59.899960000000000
0
3DFACE
8
ACESSORIO
10
11.350000000000000
20
-5.000009000000000
30
21.399950000000000
11
9.900000000000000
21
-5.000009000000000
31
21.399950000000000
12
9.900000000000000
22
-24.500040000000000
32
21.399960000000000
13
11.350000000000000
23
-24.500040000000000
33
21.399960000000000
0
3DFACE
8
ACESSORIO
10
9.900000000000000
20
-4.999996000000000
30
59.899950000000000
11
9.900000000000000
21
-24.500030000000000
31
59.899960000000000
12
9.900000000000000
22
-24.500040000000000
32
21.399960000000000
13
9.900000000000000
23
-5.000009000000000
33
21.399950000000000
0
3DFACE
8
ACESSORIO
10
13.400000000000000
20
-27.400020000000000
30
23.355470000000000
11
0.000000000000000
21
-27.400050000000000
31
3.000006000000000
12
0.000000996593500
22
-27.400020000000000
32
91.200000000000000
13
14.950000000000000
23
-27.400020000000000
33
91.200000000000000
0
3DFACE
8
ACESSORIO
10
13.400000000000000
20
-26.100020000000000
30
23.355470000000000
11
0.000000000000000
21
-26.100050000000000
31
3.000005000000000
12
0.000000996593500
22
-26.100020000000000
32
91.200000000000000
13
14.950000000000000
23
-26.100020000000000
33
91.200000000000000
0
3DFACE
8
ACESSORIO
10
14.950000000000000
20
-26.100020000000000
30
91.200000000000000
11
14.950000000000000
21
-27.400020000000000
31
91.200000000000000
12
0.000000996593500
22
-27.400020000000000
32
91.200000000000000
13
0.000000996593500
23
-26.100020000000000
33
91.200000000000000
0
3DFACE
8
ACESSORIO
10
0.000000996593500
20
-26.100020000000000
30
91.200000000000000
11
0.000000996593500
21
-27.400020000000000
31
91.200000000000000
12
0.000000000000000
22
-27.400050000000000
32
3.000006000000000
13
0.000000000000000
23
-26.100050000000000
33
3.000005000000000
0
3DFACE
8
ACESSORIO
10
3.000001000000000
20
-27.400050000000000
30
0.000003965832000
11
3.000001000000000
21
-26.100050000000000
31
0.000003540998000
12
13.400000000000000
22
-26.100020000000000
32
0.000000000000000
13
13.400000000000000
23
-27.400020000000000
33
0.000000424833400
0
3DFACE
8
ACESSORIO
10
13.400000000000000
20
-26.100020000000000
30
0.000000000000000
11
13.400000000000000
21
-27.400020000000000
31
0.000000424833400
12
14.950000000000000
22
-27.400020000000000
32
91.200000000000000
13
14.950000000000000
23
-26.100020000000000
33
91.200000000000000
0
3DFACE
8
ACESSORIO
10
16.700000000000000
20
-1.284478000000000
30
38.199550000000000
11
14.950000000000000
21
-1.284478000000000
31
38.199550000000000
12
14.950000000000000
22
-21.500040000000000
32
38.199570000000000
13
16.700000000000000
23
-21.500040000000000
33
38.199570000000000
0
3DFACE
8
ACESSORIO
10
14.950000000000000
20
-21.500040000000000
30
38.199570000000000
11
16.700000000000000
21
-21.500040000000000
31
38.199570000000000
12
16.700000000000000
22
-21.500070000000000
32
25.150000000000000
13
14.950000000000000
23
-21.500070000000000
33
25.150000000000000
0
3DFACE
8
ACESSORIO
10
16.700000000000000
20
-21.500070000000000
30
25.150000000000000
11
14.950000000000000
21
-21.500070000000000
31
25.150000000000000
12
14.950000000000000
22
-3.016866000000000
32
25.149990000000000
13
16.700000000000000
23
-3.016866000000000
33
25.149990000000000
0
3DFACE
8
ACESSORIO
10
14.950000000000000
20
-1.284505000000000
30
28.199990000000000
11
16.700000000000000
21
-1.284505000000000
31
28.199990000000000
12
16.700000000000000
22
-1.284478000000000
32
38.199550000000000
13
14.950000000000000
23
-1.284478000000000
33
38.199550000000000
0
3DFACE
8
ACESSORIO
10
14.950000000000000
20
-21.500050000000000
30
73.815570000000000
11
16.700000000000000
21
-21.500050000000000
31
73.815570000000000
12
16.700000000000000
22
-5.100034000000000
32
73.815570000000000
13
14.950000000000000
23
-5.100034000000000
33
73.815570000000000
0
3DFACE
8
ACESSORIO
10
16.700000000000000
20
-1.284485000000000
30
70.000030000000000
11
14.950000000000000
21
-1.284485000000000
31
70.000030000000000
12
14.950000000000000
22
-1.284470000000000
32
51.784910000000000
13
16.700000000000000
23
-1.284470000000000
33
51.784910000000000
0
3DFACE
8
ACESSORIO
10
14.950000000000000
20
-1.284470000000000
30
51.784910000000000
11
16.700000000000000
21
-1.284470000000000
31
51.784910000000000
12
16.700000000000000
22
-21.500040000000000
32
51.784910000000000
13
14.950000000000000
23
-21.500040000000000
33
51.784910000000000
0
3DFACE
8
ACESSORIO
10
14.950000000000000
20
-21.500040000000000
30
51.784910000000000
11
16.700000000000000
21
-21.500040000000000
31
51.784910000000000
12
16.700000000000000
22
-21.500050000000000
32
73.815570000000000
13
14.950000000000000
23
-21.500050000000000
33
73.815570000000000
0
3DFACE
8
ACESSORIO
10
14.950000000000000
20
-22.400020000000000
30
78.000000000000000
11
14.950000000000000
21
-22.400020000000000
31
89.950000000000000
12
14.950000000000000
22
-27.400020000000000
32
89.950000000000000
13
14.950000000000000
23
-27.400020000000000
33
78.000000000000000
0
3DFACE
8
ACESSORIO
10
13.700000000000000
20
-22.400020000000000
30
78.000000000000000
11
13.700000000000000
21
-22.400020000000000
31
89.950000000000000
12
13.700000000000000
22
-27.400020000000000
32
89.950000000000000
13
13.700000000000000
23
-27.400020000000000
33
78.000000000000000
0
3DFACE
8
ACESSORIO
10
13.700000000000000
20
-22.400020000000000
30
78.000000000000000
11
14.950000000000000
21
-22.400020000000000
31
78.000000000000000
12
14.950000000000000
22
-22.400020000000000
32
89.950000000000000
13
13.700000000000000
23
-22.400020000000000
33
89.950000000000000
0
POLYLINE
8
ACESSORIO
66
1
70
16
71
2
72
7
0
VERTEX
8
ACESSORIO
10
7.400000000000000
20
-5.000007000000000
30
22.402130000000000
70
64
0
VERTEX
8
ACESSORIO
10
7.400000000000000
20
-3.965295000000000
30
22.538350000000000
70
64
0
VERTEX
8
ACESSORIO
10
7.400000000000000
20
-3.001097000000000
30
22.937740000000000
70
64
0
VERTEX
8
ACESSORIO
10
7.400000000000000
20
-2.173121000000000
30
23.573060000000000
70
64
0
VERTEX
8
ACESSORIO
10
7.400000000000000
20
-1.537793000000000
30
24.401040000000000
70
64
0
VERTEX
8
ACESSORIO
10
7.400000000000000
20
-1.138409000000000
30
25.365240000000000
70
64
0
VERTEX
8
ACESSORIO
10
7.400000000000000
20
-1.002187000000000
30
26.399950000000000
70
64
0
VERTEX
8
ACESSORIO
10
9.900000000000000
20
-5.000007000000000
30
22.402130000000000
70
64
0
VERTEX
8
ACESSORIO
10
9.900000000000000
20
-3.965295000000000
30
22.538350000000000
70
64
0
VERTEX
8
ACESSORIO
10
9.900000000000000
20
-3.001097000000000
30
22.937740000000000
70
64
0
VERTEX
8
ACESSORIO
10
9.900000000000000
20
-2.173121000000000
30
23.573060000000000
70
64
0
VERTEX
8
ACESSORIO
10
9.900000000000000
20
-1.537793000000000
30
24.401040000000000
70
64
0
VERTEX
8
ACESSORIO
10
9.900000000000000
20
-1.138409000000000
30
25.365240000000000
70
64
0
VERTEX
8
ACESSORIO
10
9.900000000000000
20
-1.002187000000000
30
26.399950000000000
70
64
0
SEQEND
0
POLYLINE
8
ACESSORIO
66
1
70
16
71
2
72
7
0
VERTEX
8
ACESSORIO
10
7.400000000000000
20
-5.000002000000000
30
39.197770000000000
70
64
0
VERTEX
8
ACESSORIO
10
7.400000000000000
20
-3.965291000000000
30
39.061540000000000
70
64
0
VERTEX
8
ACESSORIO
10
7.400000000000000
20
-3.001092000000000
30
38.662160000000000
70
64
0
VERTEX
8
ACESSORIO
10
7.400000000000000
20
-2.173117000000000
30
38.026840000000000
70
64
0
VERTEX
8
ACESSORIO
10
7.400000000000000
20
-1.537789000000000
30
37.198860000000000
70
64
0
VERTEX
8
ACESSORIO
10
7.400000000000000
20
-1.138406000000000
30
36.234660000000000
70
64
0
VERTEX
8
ACESSORIO
10
7.400000000000000
20
-1.002183000000000
30
35.199940000000000
70
64
0
VERTEX
8
ACESSORIO
10
9.900000000000000
20
-5.000002000000000
30
39.197770000000000
70
64
0
VERTEX
8
ACESSORIO
10
9.900000000000000
20
-3.965291000000000
30
39.061540000000000
70
64
0
VERTEX
8
ACESSORIO
10
9.900000000000000
20
-3.001092000000000
30
38.662160000000000
70
64
0
VERTEX
8
ACESSORIO
10
9.900000000000000
20
-2.173117000000000
30
38.026840000000000
70
64
0
VERTEX
8
ACESSORIO
10
9.900000000000000
20
-1.537789000000000
30
37.198860000000000
70
64
0
VERTEX
8
ACESSORIO
10
9.900000000000000
20
-1.138406000000000
30
36.234660000000000
70
64
0
VERTEX
8
ACESSORIO
10
9.900000000000000
20
-1.002183000000000
30
35.199940000000000
70
64
0
SEQEND
0
POLYLINE
8
ACESSORIO
66
1
70
16
71
2
72
7
0
VERTEX
8
ACESSORIO
10
7.400000000000000
20
-5.000000000000000
30
50.851210000000000
70
64
0
VERTEX
8
ACESSORIO
10
7.400000000000000
20
-2.988360000000000
30
51.390220000000000
70
64
0
VERTEX
8
ACESSORIO
10
7.400000000000000
20
-1.515738000000000
30
52.862850000000000
70
64
0
VERTEX
8
ACESSORIO
10
7.400000000000000
20
-0.976720200000000
30
54.874490000000000
70
64
0
VERTEX
8
ACESSORIO
10
7.400000000000000
20
-1.515737000000000
30
56.886130000000000
70
64
0
VERTEX
8
ACESSORIO
10
7.400000000000000
20
-2.988358000000000
30
58.358750000000000
70
64
0
VERTEX
8
ACESSORIO
10
7.400000000000000
20
-4.999998000000000
30
58.897770000000000
70
64
0
VERTEX
8
ACESSORIO
10
9.900000000000000
20
-5.000000000000000
30
50.851210000000000
70
64
0
VERTEX
8
ACESSORIO
10
9.900000000000000
20
-2.988360000000000
30
51.390220000000000
70
64
0
VERTEX
8
ACESSORIO
10
9.900000000000000
20
-1.515738000000000
30
52.862850000000000
70
64
0
VERTEX
8
ACESSORIO
10
9.900000000000000
20
-0.976720200000000
30
54.874490000000000
70
64
0
VERTEX
8
ACESSORIO
10
9.900000000000000
20
-1.515737000000000
30
56.886130000000000
70
64
0
VERTEX
8
ACESSORIO
10
9.900000000000000
20
-2.988358000000000
30
58.358750000000000
70
64
0
VERTEX
8
ACESSORIO
10
9.900000000000000
20
-4.999998000000000
30
58.897770000000000
70
64
0
SEQEND
0
POLYLINE
8
ACESSORIO
66
1
70
16
71
2
72
7
0
VERTEX
8
ACESSORIO
10
11.350000000000000
20
-4.999996000000000
30
59.899950000000000
70
64
0
VERTEX
8
ACESSORIO
10
11.350000000000000
20
-3.705902000000000
30
59.729580000000000
70
64
0
VERTEX
8
ACESSORIO
10
11.350000000000000
20
-2.499998000000000
30
59.230080000000000
70
64
0
VERTEX
8
ACESSORIO
10
11.350000000000000
20
-1.464464000000000
30
58.435490000000000
70
64
0
VERTEX
8
ACESSORIO
10
11.350000000000000
20
-0.669872300000000
30
57.399950000000000
70
64
0
VERTEX
8
ACESSORIO
10
11.350000000000000
20
-0.170370700000000
30
56.194050000000000
70
64
0
VERTEX
8
ACESSORIO
10
11.350000000000000
20
0.000000000000000
30
54.899950000000000
70
64
0
VERTEX
8
ACESSORIO
10
9.900000000000000
20
-4.999996000000000
30
59.899950000000000
70
64
0
VERTEX
8
ACESSORIO
10
9.900000000000000
20
-3.705902000000000
30
59.729580000000000
70
64
0
VERTEX
8
ACESSORIO
10
9.900000000000000
20
-2.499998000000000
30
59.230080000000000
70
64
0
VERTEX
8
ACESSORIO
10
9.900000000000000
20
-1.464464000000000
30
58.435490000000000
70
64
0
VERTEX
8
ACESSORIO
10
9.900000000000000
20
-0.669872300000000
30
57.399950000000000
70
64
0
VERTEX
8
ACESSORIO
10
9.900000000000000
20
-0.170370700000000
30
56.194050000000000
70
64
0
VERTEX
8
ACESSORIO
10
9.900000000000000
20
0.000000000000000
30
54.899950000000000
70
64
0
SEQEND
0
POLYLINE
8
ACESSORIO
66
1
70
16
71
2
72
7
0
VERTEX
8
ACESSORIO
10
9.900000000000000
20
-0.000008482479000
30
26.399950000000000
70
64
0
VERTEX
8
ACESSORIO
10
9.900000000000000
20
-0.170379400000000
30
25.105850000000000
70
64
0
VERTEX
8
ACESSORIO
10
9.900000000000000
20
-0.669881600000000
30
23.899950000000000
70
64
0
VERTEX
8
ACESSORIO
10
9.900000000000000
20
-1.464475000000000
30
22.864420000000000
70
64
0
VERTEX
8
ACESSORIO
10
9.900000000000000
20
-2.500009000000000
30
22.069820000000000
70
64
0
VERTEX
8
ACESSORIO
10
9.900000000000000
20
-3.705914000000000
30
21.570320000000000
70
64
0
VERTEX
8
ACESSORIO
10
9.900000000000000
20
-5.000009000000000
30
21.399950000000000
70
64
0
VERTEX
8
ACESSORIO
10
11.350000000000000
20
-0.000008482479000
30
26.399950000000000
70
64
0
VERTEX
8
ACESSORIO
10
11.350000000000000
20
-0.170379400000000
30
25.105850000000000
70
64
0
VERTEX
8
ACESSORIO
10
11.350000000000000
20
-0.669881600000000
30
23.899950000000000
70
64
0
VERTEX
8
ACESSORIO
10
11.350000000000000
20
-1.464475000000000
30
22.864420000000000
70
64
0
VERTEX
8
ACESSORIO
10
11.350000000000000
20
-2.500009000000000
30
22.069820000000000
70
64
0
VERTEX
8
ACESSORIO
10
11.350000000000000
20
-3.705914000000000
30
21.570320000000000
70
64
0
VERTEX
8
ACESSORIO
10
11.350000000000000
20
-5.000009000000000
30
21.399950000000000
70
64
0
SEQEND
0
POLYLINE
8
ACESSORIO
66
1
70
16
71
2
72
7
0
VERTEX
8
ACESSORIO
10
13.700000000000000
20
-2.995686000000000
30
23.355460000000000
70
64
0
VERTEX
8
ACESSORIO
10
13.700000000000000
20
-2.200262000000000
30
23.679930000000000
70
64
0
VERTEX
8
ACESSORIO
10
13.700000000000000
20
-1.492462000000000
30
24.166750000000000
70
64
0
VERTEX
8
ACESSORIO
10
13.700000000000000
20
-0.904932400000000
30
24.793480000000000
70
64
0
VERTEX
8
ACESSORIO
10
13.700000000000000
20
-0.464773200000000
30
25.531200000000000
70
64
0
VERTEX
8
ACESSORIO
10
13.700000000000000
20
-0.192285700000000
30
26.345890000000000
70
64
0
VERTEX
8
ACESSORIO
10
13.700000000000000
20
-0.100038000000000
30
27.199980000000000
70
64
0
VERTEX
8
ACESSORIO
10
14.950000000000000
20
-2.995686000000000
30
23.355460000000000
70
64
0
VERTEX
8
ACESSORIO
10
14.950000000000000
20
-2.200262000000000
30
23.679930000000000
70
64
0
VERTEX
8
ACESSORIO
10
14.950000000000000
20
-1.492462000000000
30
24.166750000000000
70
64
0
VERTEX
8
ACESSORIO
10
14.950000000000000
20
-0.904932400000000
30
24.793480000000000
70
64
0
VERTEX
8
ACESSORIO
10
14.950000000000000
20
-0.464773200000000
30
25.531200000000000
70
64
0
VERTEX
8
ACESSORIO
10
14.950000000000000
20
-0.192285700000000
30
26.345890000000000
70
64
0
VERTEX
8
ACESSORIO
10
14.950000000000000
20
-0.100038000000000
30
27.199980000000000
70
64
0
SEQEND
0
POLYLINE
8
ACESSORIO
66
1
70
16
71
2
72
7
0
VERTEX
8
ACESSORIO
10
14.950000000000000
20
-4.100022000000000
30
74.999990000000000
70
64
0
VERTEX
8
ACESSORIO
10
14.950000000000000
20
-3.064746000000000
30
74.863700000000000
70
64
0
VERTEX
8
ACESSORIO
10
14.950000000000000
20
-2.100023000000000
30
74.464090000000000
70
64
0
VERTEX
8
ACESSORIO
10
14.950000000000000
20
-1.271596000000000
30
73.828410000000000
70
64
0
VERTEX
8
ACESSORIO
10
14.950000000000000
20
-0.635921500000000
30
72.999990000000000
70
64
0
VERTEX
8
ACESSORIO
10
14.950000000000000
20
-0.236320100000000
30
72.035260000000000
70
64
0
VERTEX
8
ACESSORIO
10
14.950000000000000
20
-0.100023700000000
30
70.999990000000000
70
64
0
VERTEX
8
ACESSORIO
10
13.700000000000000
20
-4.100022000000000
30
74.999990000000000
70
64
0
VERTEX
8
ACESSORIO
10
13.700000000000000
20
-3.064746000000000
30
74.863700000000000
70
64
0
VERTEX
8
ACESSORIO
10
13.700000000000000
20
-2.100023000000000
30
74.464090000000000
70
64
0
VERTEX
8
ACESSORIO
10
13.700000000000000
20
-1.271596000000000
30
73.828410000000000
70
64
0
VERTEX
8
ACESSORIO
10
13.700000000000000
20
-0.635921500000000
30
72.999990000000000
70
64
0
VERTEX
8
ACESSORIO
10
13.700000000000000
20
-0.236320100000000
30
72.035260000000000
70
64
0
VERTEX
8
ACESSORIO
10
13.700000000000000
20
-0.100023700000000
30
70.999990000000000
70
64
0
SEQEND
0
POLYLINE
8
ACESSORIO
66
1
70
16
71
2
72
7
0
VERTEX
8
ACESSORIO
10
3.000001000000000
20
-27.400050000000000
30
0.000003965832000
70
64
0
VERTEX
8
ACESSORIO
10
2.223544000000000
20
-27.400050000000000
30
0.102226800000000
70
64
0
VERTEX
8
ACESSORIO
10
1.500000000000000
20
-27.400050000000000
30
0.401928300000000
70
64
0
VERTEX
8
ACESSORIO
10
0.878679800000000
20
-27.400050000000000
30
0.878684500000000
70
64
0
VERTEX
8
ACESSORIO
10
0.401923900000000
20
-27.400050000000000
30
1.500005000000000
70
64
0
VERTEX
8
ACESSORIO
10
0.102222500000000
20
-27.400050000000000
30
2.223549000000000
70
64
0
VERTEX
8
ACESSORIO
10
0.000000000000000
20
-27.400050000000000
30
3.000006000000000
70
64
0
VERTEX
8
ACESSORIO
10
3.000001000000000
20
-26.100050000000000
30
0.000003540998000
70
64
0
VERTEX
8
ACESSORIO
10
2.223544000000000
20
-26.100050000000000
30
0.102226300000000
70
64
0
VERTEX
8
ACESSORIO
10
1.500000000000000
20
-26.100050000000000
30
0.401927900000000
70
64
0
VERTEX
8
ACESSORIO
10
0.878679800000000
20
-26.100050000000000
30
0.878684100000000
70
64
0
VERTEX
8
ACESSORIO
10
0.401923900000000
20
-26.100050000000000
30
1.500005000000000
70
64
0
VERTEX
8
ACESSORIO
10
0.102222500000000
20
-26.100050000000000
30
2.223548000000000
70
64
0
VERTEX
8
ACESSORIO
10
0.000000000000000
20
-26.100050000000000
30
3.000005000000000
70
64
0
SEQEND
0
POLYLINE
8
ACESSORIO
66
1
70
16
71
6
72
3
0
VERTEX
8
ACESSORIO
10
2.322091000000000
20
-26.100020000000000
30
87.266370000000000
70
64
0
VERTEX
8
ACESSORIO
10
2.322091000000000
20
-26.100020000000000
30
76.559130000000000
70
64
0
VERTEX
8
ACESSORIO
10
2.322091000000000
20
-26.100020000000000
30
76.559130000000000
70
64
0
VERTEX
8
ACESSORIO
10
13.700000000000000
20
-26.100020000000000
30
87.266370000000000
70
64
0
VERTEX
8
ACESSORIO
10
13.700000000000000
20
-26.100020000000000
30
76.559130000000000
70
64
0
VERTEX
8
ACESSORIO
10
13.700000000000000
20
-26.100020000000000
30
76.559130000000000
70
64
0
VERTEX
8
ACESSORIO
10
13.700000000000000
20
-24.500020000000000
30
87.266370000000000
70
64
0
VERTEX
8
ACESSORIO
10
13.700000000000000
20
-24.500020000000000
30
76.559130000000000
70
64
0
VERTEX
8
ACESSORIO
10
13.700000000000000
20
-26.100020000000000
30
76.559130000000000
70
64
0
VERTEX
8
ACESSORIO
10
2.322091000000000
20
-24.500020000000000
30
87.266370000000000
70
64
0
VERTEX
8
ACESSORIO
10
2.322091000000000
20
-24.500020000000000
30
76.559130000000000
70
64
0
VERTEX
8
ACESSORIO
10
2.322091000000000
20
-26.100020000000000
30
76.559130000000000
70
64
0
VERTEX
8
ACESSORIO
10
2.322091000000000
20
-24.500020000000000
30
87.266370000000000
70
64
0
VERTEX
8
ACESSORIO
10
2.322091000000000
20
-24.500020000000000
30
87.266370000000000
70
64
0
VERTEX
8
ACESSORIO
10
2.322091000000000
20
-26.100020000000000
30
87.266370000000000
70
64
0
VERTEX
8
ACESSORIO
10
13.700000000000000
20
-24.500020000000000
30
87.266370000000000
70
64
0
VERTEX
8
ACESSORIO
10
13.700000000000000
20
-24.500020000000000
30
87.266370000000000
70
64
0
VERTEX
8
ACESSORIO
10
13.700000000000000
20
-26.100020000000000
30
87.266370000000000
70
64
0
SEQEND
0
POLYLINE
8
ACESSORIO
66
1
70
16
71
6
72
3
0
VERTEX
8
ACESSORIO
10
2.322148000000000
20
-26.100050000000000
30
67.838000000000000
70
64
0
VERTEX
8
ACESSORIO
10
2.322148000000000
20
-26.100050000000000
30
12.942760000000000
70
64
0
VERTEX
8
ACESSORIO
10
2.322148000000000
20
-26.100050000000000
30
12.942760000000000
70
64
0
VERTEX
8
ACESSORIO
10
12.150000000000000
20
-26.100050000000000
30
67.838000000000000
70
64
0
VERTEX
8
ACESSORIO
10
12.150000000000000
20
-26.100050000000000
30
12.942760000000000
70
64
0
VERTEX
8
ACESSORIO
10
12.150000000000000
20
-26.100050000000000
30
12.942760000000000
70
64
0
VERTEX
8
ACESSORIO
10
12.150000000000000
20
-24.500050000000000
30
67.838000000000000
70
64
0
VERTEX
8
ACESSORIO
10
12.150000000000000
20
-24.500050000000000
30
12.942760000000000
70
64
0
VERTEX
8
ACESSORIO
10
12.150000000000000
20
-26.100050000000000
30
12.942760000000000
70
64
0
VERTEX
8
ACESSORIO
10
2.322148000000000
20
-24.500050000000000
30
67.838000000000000
70
64
0
VERTEX
8
ACESSORIO
10
2.322148000000000
20
-24.500050000000000
30
12.942760000000000
70
64
0
VERTEX
8
ACESSORIO
10
2.322148000000000
20
-26.100050000000000
30
12.942760000000000
70
64
0
VERTEX
8
ACESSORIO
10
2.322148000000000
20
-24.500050000000000
30
67.838000000000000
70
64
0
VERTEX
8
ACESSORIO
10
2.322148000000000
20
-24.500050000000000
30
67.838000000000000
70
64
0
VERTEX
8
ACESSORIO
10
2.322148000000000
20
-26.100050000000000
30
67.838000000000000
70
64
0
VERTEX
8
ACESSORIO
10
12.150000000000000
20
-24.500050000000000
30
67.838000000000000
70
64
0
VERTEX
8
ACESSORIO
10
12.150000000000000
20
-24.500050000000000
30
67.838000000000000
70
64
0
VERTEX
8
ACESSORIO
10
12.150000000000000
20
-26.100050000000000
30
67.838000000000000
70
64
0
SEQEND
0
POLYLINE
8
ACESSORIO
66
1
70
16
71
2
72
7
0
VERTEX
8
ACESSORIO
10
14.950000000000000
20
-22.400020000000000
30
78.000000000000000
70
64
0
VERTEX
8
ACESSORIO
10
14.950000000000000
20
-22.297800000000000
30
77.223530000000000
70
64
0
VERTEX
8
ACESSORIO
10
14.950000000000000
20
-21.998100000000000
30
76.500000000000000
70
64
0
VERTEX
8
ACESSORIO
10
14.950000000000000
20
-21.521340000000000
30
75.878680000000000
70
64
0
VERTEX
8
ACESSORIO
10
14.950000000000000
20
-20.900020000000000
30
75.401920000000000
70
64
0
VERTEX
8
ACESSORIO
10
14.950000000000000
20
-20.176480000000000
30
75.102220000000000
70
64
0
VERTEX
8
ACESSORIO
10
14.950000000000000
20
-19.400020000000000
30
75.000000000000000
70
64
0
VERTEX
8
ACESSORIO
10
14.950000000000000
20
-27.400020000000000
30
78.000000000000000
70
64
0
VERTEX
8
ACESSORIO
10
14.950000000000000
20
-27.400020000000000
30
77.500000000000000
70
64
0
VERTEX
8
ACESSORIO
10
14.950000000000000
20
-27.400020000000000
30
77.000000000000000
70
64
0
VERTEX
8
ACESSORIO
10
14.950000000000000
20
-27.400020000000000
30
76.500000000000000
70
64
0
VERTEX
8
ACESSORIO
10
14.950000000000000
20
-27.400020000000000
30
76.000000000000000
70
64
0
VERTEX
8
ACESSORIO
10
14.950000000000000
20
-27.400020000000000
30
75.500000000000000
70
64
0
VERTEX
8
ACESSORIO
10
14.950000000000000
20
-27.400020000000000
30
75.000000000000000
70
64
0
SEQEND
0
POLYLINE
8
ACESSORIO
66
1
70
16
71
2
72
7
0
VERTEX
8
ACESSORIO
10
14.950000000000000
20
-2.995686000000000
30
23.355460000000000
70
64
0
VERTEX
8
ACESSORIO
10
14.950000000000000
20
-2.200262000000000
30
23.679930000000000
70
64
0
VERTEX
8
ACESSORIO
10
14.950000000000000
20
-1.492462000000000
30
24.166750000000000
70
64
0
VERTEX
8
ACESSORIO
10
14.950000000000000
20
-0.904932400000000
30
24.793480000000000
70
64
0
VERTEX
8
ACESSORIO
10
14.950000000000000
20
-0.464773200000000
30
25.531200000000000
70
64
0
VERTEX
8
ACESSORIO
10
14.950000000000000
20
-0.192285700000000
30
26.345890000000000
70
64
0
VERTEX
8
ACESSORIO
10
14.950000000000000
20
-0.100038000000000
30
27.199980000000000
70
64
0
VERTEX
8
ACESSORIO
10
14.950000000000000
20
-27.400040000000000
30
23.355470000000000
70
64
0
VERTEX
8
ACESSORIO
10
14.950000000000000
20
-27.400040000000000
30
23.996220000000000
70
64
0
VERTEX
8
ACESSORIO
10
14.950000000000000
20
-27.400040000000000
30
24.636980000000000
70
64
0
VERTEX
8
ACESSORIO
10
14.950000000000000
20
-27.400040000000000
30
25.277730000000000
70
64
0
VERTEX
8
ACESSORIO
10
14.950000000000000
20
-27.400040000000000
30
25.918480000000000
70
64
0
VERTEX
8
ACESSORIO
10
14.950000000000000
20
-27.400040000000000
30
26.559230000000000
70
64
0
VERTEX
8
ACESSORIO
10
14.950000000000000
20
-27.400040000000000
30
27.199980000000000
70
64
0
SEQEND
0
POLYLINE
8
ACESSORIO
66
1
70
16
71
2
72
7
0
VERTEX
8
ACESSORIO
10
14.950000000000000
20
-4.100022000000000
30
74.999990000000000
70
64
0
VERTEX
8
ACESSORIO
10
14.950000000000000
20
-3.064746000000000
30
74.863700000000000
70
64
0
VERTEX
8
ACESSORIO
10
14.950000000000000
20
-2.100023000000000
30
74.464090000000000
70
64
0
VERTEX
8
ACESSORIO
10
14.950000000000000
20
-1.271596000000000
30
73.828410000000000
70
64
0
VERTEX
8
ACESSORIO
10
14.950000000000000
20
-0.635921500000000
30
72.999990000000000
70
64
0
VERTEX
8
ACESSORIO
10
14.950000000000000
20
-0.236320100000000
30
72.035260000000000
70
64
0
VERTEX
8
ACESSORIO
10
14.950000000000000
20
-0.100023700000000
30
70.999990000000000
70
64
0
VERTEX
8
ACESSORIO
10
14.950000000000000
20
-27.400020000000000
30
75.000000000000000
70
64
0
VERTEX
8
ACESSORIO
10
14.950000000000000
20
-27.400020000000000
30
74.333330000000000
70
64
0
VERTEX
8
ACESSORIO
10
14.950000000000000
20
-27.400020000000000
30
73.666660000000000
70
64
0
VERTEX
8
ACESSORIO
10
14.950000000000000
20
-27.400020000000000
30
73.000000000000000
70
64
0
VERTEX
8
ACESSORIO
10
14.950000000000000
20
-27.400020000000000
30
72.333330000000000
70
64
0
VERTEX
8
ACESSORIO
10
14.950000000000000
20
-27.400020000000000
30
71.666660000000000
70
64
0
VERTEX
8
ACESSORIO
10
14.950000000000000
20
-27.400020000000000
30
70.999990000000000
70
64
0
SEQEND
0
POLYLINE
8
ACESSORIO
66
1
70
16
71
2
72
7
0
VERTEX
8
ACESSORIO
10
13.700000000000000
20
-4.100022000000000
30
74.999990000000000
70
64
0
VERTEX
8
ACESSORIO
10
13.700000000000000
20
-3.064746000000000
30
74.863700000000000
70
64
0
VERTEX
8
ACESSORIO
10
13.700000000000000
20
-2.100023000000000
30
74.464090000000000
70
64
0
VERTEX
8
ACESSORIO
10
13.700000000000000
20
-1.271596000000000
30
73.828410000000000
70
64
0
VERTEX
8
ACESSORIO
10
13.700000000000000
20
-0.635921500000000
30
72.999990000000000
70
64
0
VERTEX
8
ACESSORIO
10
13.700000000000000
20
-0.236320100000000
30
72.035260000000000
70
64
0
VERTEX
8
ACESSORIO
10
13.700000000000000
20
-0.100023700000000
30
70.999990000000000
70
64
0
VERTEX
8
ACESSORIO
10
13.700000000000000
20
-27.400020000000000
30
75.000000000000000
70
64
0
VERTEX
8
ACESSORIO
10
13.700000000000000
20
-27.400020000000000
30
74.333330000000000
70
64
0
VERTEX
8
ACESSORIO
10
13.700000000000000
20
-27.400020000000000
30
73.666660000000000
70
64
0
VERTEX
8
ACESSORIO
10
13.700000000000000
20
-27.400020000000000
30
73.000000000000000
70
64
0
VERTEX
8
ACESSORIO
10
13.700000000000000
20
-27.400020000000000
30
72.333330000000000
70
64
0
VERTEX
8
ACESSORIO
10
13.700000000000000
20
-27.400020000000000
30
71.666660000000000
70
64
0
VERTEX
8
ACESSORIO
10
13.700000000000000
20
-27.400020000000000
30
70.999990000000000
70
64
0
SEQEND
0
POLYLINE
8
ACESSORIO
66
1
70
16
71
2
72
7
0
VERTEX
8
ACESSORIO
10
14.950000000000000
20
-4.100022000000000
30
74.999990000000000
70
64
0
VERTEX
8
ACESSORIO
10
14.950000000000000
20
-3.064746000000000
30
74.863700000000000
70
64
0
VERTEX
8
ACESSORIO
10
14.950000000000000
20
-2.100023000000000
30
74.464090000000000
70
64
0
VERTEX
8
ACESSORIO
10
14.950000000000000
20
-1.271596000000000
30
73.828410000000000
70
64
0
VERTEX
8
ACESSORIO
10
14.950000000000000
20
-0.635921500000000
30
72.999990000000000
70
64
0
VERTEX
8
ACESSORIO
10
14.950000000000000
20
-0.236320100000000
30
72.035260000000000
70
64
0
VERTEX
8
ACESSORIO
10
14.950000000000000
20
-0.100023700000000
30
70.999990000000000
70
64
0
VERTEX
8
ACESSORIO
10
13.700000000000000
20
-4.100022000000000
30
74.999990000000000
70
64
0
VERTEX
8
ACESSORIO
10
13.700000000000000
20
-3.064746000000000
30
74.863700000000000
70
64
0
VERTEX
8
ACESSORIO
10
13.700000000000000
20
-2.100023000000000
30
74.464090000000000
70
64
0
VERTEX
8
ACESSORIO
10
13.700000000000000
20
-1.271596000000000
30
73.828410000000000
70
64
0
VERTEX
8
ACESSORIO
10
13.700000000000000
20
-0.635921500000000
30
72.999990000000000
70
64
0
VERTEX
8
ACESSORIO
10
13.700000000000000
20
-0.236320100000000
30
72.035260000000000
70
64
0
VERTEX
8
ACESSORIO
10
13.700000000000000
20
-0.100023700000000
30
70.999990000000000
70
64
0
SEQEND
0
POLYLINE
8
ACESSORIO
66
1
70
16
71
2
72
7
0
VERTEX
8
ACESSORIO
10
14.950000000000000
20
-2.995686000000000
30
23.355460000000000
70
64
0
VERTEX
8
ACESSORIO
10
14.950000000000000
20
-2.200262000000000
30
23.679930000000000
70
64
0
VERTEX
8
ACESSORIO
10
14.950000000000000
20
-1.492462000000000
30
24.166750000000000
70
64
0
VERTEX
8
ACESSORIO
10
14.950000000000000
20
-0.904932400000000
30
24.793480000000000
70
64
0
VERTEX
8
ACESSORIO
10
14.950000000000000
20
-0.464773200000000
30
25.531200000000000
70
64
0
VERTEX
8
ACESSORIO
10
14.950000000000000
20
-0.192285700000000
30
26.345890000000000
70
64
0
VERTEX
8
ACESSORIO
10
14.950000000000000
20
-0.100038000000000
30
27.199980000000000
70
64
0
VERTEX
8
ACESSORIO
10
13.700000000000000
20
-2.995686000000000
30
23.355460000000000
70
64
0
VERTEX
8
ACESSORIO
10
13.700000000000000
20
-2.200262000000000
30
23.679930000000000
70
64
0
VERTEX
8
ACESSORIO
10
13.700000000000000
20
-1.492462000000000
30
24.166750000000000
70
64
0
VERTEX
8
ACESSORIO
10
13.700000000000000
20
-0.904932400000000
30
24.793480000000000
70
64
0
VERTEX
8
ACESSORIO
10
13.700000000000000
20
-0.464773200000000
30
25.531200000000000
70
64
0
VERTEX
8
ACESSORIO
10
13.700000000000000
20
-0.192285700000000
30
26.345890000000000
70
64
0
VERTEX
8
ACESSORIO
10
13.700000000000000
20
-0.100038000000000
30
27.199980000000000
70
64
0
SEQEND
0
POLYLINE
8
ACESSORIO
66
1
70
16
71
2
72
7
0
VERTEX
8
ACESSORIO
10
13.700000000000000
20
-2.995686000000000
30
23.355460000000000
70
64
0
VERTEX
8
ACESSORIO
10
13.700000000000000
20
-2.200262000000000
30
23.679930000000000
70
64
0
VERTEX
8
ACESSORIO
10
13.700000000000000
20
-1.492462000000000
30
24.166750000000000
70
64
0
VERTEX
8
ACESSORIO
10
13.700000000000000
20
-0.904932400000000
30
24.793480000000000
70
64
0
VERTEX
8
ACESSORIO
10
13.700000000000000
20
-0.464773200000000
30
25.531200000000000
70
64
0
VERTEX
8
ACESSORIO
10
13.700000000000000
20
-0.192285700000000
30
26.345890000000000
70
64
0
VERTEX
8
ACESSORIO
10
13.700000000000000
20
-0.100038000000000
30
27.199980000000000
70
64
0
VERTEX
8
ACESSORIO
10
13.700000000000000
20
-27.400040000000000
30
23.355470000000000
70
64
0
VERTEX
8
ACESSORIO
10
13.700000000000000
20
-27.400040000000000
30
23.996220000000000
70
64
0
VERTEX
8
ACESSORIO
10
13.700000000000000
20
-27.400040000000000
30
24.636980000000000
70
64
0
VERTEX
8
ACESSORIO
10
13.700000000000000
20
-27.400040000000000
30
25.277730000000000
70
64
0
VERTEX
8
ACESSORIO
10
13.700000000000000
20
-27.400040000000000
30
25.918480000000000
70
64
0
VERTEX
8
ACESSORIO
10
13.700000000000000
20
-27.400040000000000
30
26.559230000000000
70
64
0
VERTEX
8
ACESSORIO
10
13.700000000000000
20
-27.400040000000000
30
27.199980000000000
70
64
0
SEQEND
0
POLYLINE
8
ACESSORIO
66
1
70
16
71
2
72
7
0
VERTEX
8
ACESSORIO
10
7.400000000000000
20
-5.000000000000000
30
50.851210000000000
70
64
0
VERTEX
8
ACESSORIO
10
7.400000000000000
20
-2.988360000000000
30
51.390220000000000
70
64
0
VERTEX
8
ACESSORIO
10
7.400000000000000
20
-1.515738000000000
30
52.862850000000000
70
64
0
VERTEX
8
ACESSORIO
10
7.400000000000000
20
-0.976720200000000
30
54.874490000000000
70
64
0
VERTEX
8
ACESSORIO
10
7.400000000000000
20
-1.515737000000000
30
56.886130000000000
70
64
0
VERTEX
8
ACESSORIO
10
7.400000000000000
20
-2.988358000000000
30
58.358750000000000
70
64
0
VERTEX
8
ACESSORIO
10
7.400000000000000
20
-4.999998000000000
30
58.897770000000000
70
64
0
VERTEX
8
ACESSORIO
10
7.400000000000000
20
-24.500030000000000
30
50.851220000000000
70
64
0
VERTEX
8
ACESSORIO
10
7.400000000000000
20
-24.500030000000000
30
52.192310000000000
70
64
0
VERTEX
8
ACESSORIO
10
7.400000000000000
20
-24.500030000000000
30
53.533400000000000
70
64
0
VERTEX
8
ACESSORIO
10
7.400000000000000
20
-24.500030000000000
30
54.874500000000000
70
64
0
VERTEX
8
ACESSORIO
10
7.400000000000000
20
-24.500030000000000
30
56.215600000000000
70
64
0
VERTEX
8
ACESSORIO
10
7.400000000000000
20
-24.500030000000000
30
57.556680000000000
70
64
0
VERTEX
8
ACESSORIO
10
7.400000000000000
20
-24.500030000000000
30
58.897780000000000
70
64
0
SEQEND
0
POLYLINE
8
ACESSORIO
66
1
70
16
71
2
72
7
0
VERTEX
8
ACESSORIO
10
7.400000000000000
20
-5.000007000000000
30
22.402130000000000
70
64
0
VERTEX
8
ACESSORIO
10
7.400000000000000
20
-3.965295000000000
30
22.538350000000000
70
64
0
VERTEX
8
ACESSORIO
10
7.400000000000000
20
-3.001097000000000
30
22.937740000000000
70
64
0
VERTEX
8
ACESSORIO
10
7.400000000000000
20
-2.173121000000000
30
23.573060000000000
70
64
0
VERTEX
8
ACESSORIO
10
7.400000000000000
20
-1.537793000000000
30
24.401040000000000
70
64
0
VERTEX
8
ACESSORIO
10
7.400000000000000
20
-1.138409000000000
30
25.365240000000000
70
64
0
VERTEX
8
ACESSORIO
10
7.400000000000000
20
-1.002187000000000
30
26.399950000000000
70
64
0
VERTEX
8
ACESSORIO
10
7.400000000000000
20
-5.000002000000000
30
39.197770000000000
70
64
0
VERTEX
8
ACESSORIO
10
7.400000000000000
20
-3.965291000000000
30
39.061540000000000
70
64
0
VERTEX
8
ACESSORIO
10
7.400000000000000
20
-3.001092000000000
30
38.662160000000000
70
64
0
VERTEX
8
ACESSORIO
10
7.400000000000000
20
-2.173117000000000
30
38.026840000000000
70
64
0
VERTEX
8
ACESSORIO
10
7.400000000000000
20
-1.537789000000000
30
37.198860000000000
70
64
0
VERTEX
8
ACESSORIO
10
7.400000000000000
20
-1.138406000000000
30
36.234660000000000
70
64
0
VERTEX
8
ACESSORIO
10
7.400000000000000
20
-1.002183000000000
30
35.199940000000000
70
64
0
SEQEND
0
POLYLINE
8
ACESSORIO
66
1
70
16
71
2
72
7
0
VERTEX
8
ACESSORIO
10
7.400000000000000
20
-5.000007000000000
30
22.402130000000000
70
64
0
VERTEX
8
ACESSORIO
10
7.400000000000000
20
-3.965295000000000
30
22.538350000000000
70
64
0
VERTEX
8
ACESSORIO
10
7.400000000000000
20
-3.001097000000000
30
22.937740000000000
70
64
0
VERTEX
8
ACESSORIO
10
7.400000000000000
20
-2.173121000000000
30
23.573060000000000
70
64
0
VERTEX
8
ACESSORIO
10
7.400000000000000
20
-1.537793000000000
30
24.401040000000000
70
64
0
VERTEX
8
ACESSORIO
10
7.400000000000000
20
-1.138409000000000
30
25.365240000000000
70
64
0
VERTEX
8
ACESSORIO
10
7.400000000000000
20
-1.002187000000000
30
26.399950000000000
70
64
0
VERTEX
8
ACESSORIO
10
9.900000000000000
20
-5.000007000000000
30
22.402130000000000
70
64
0
VERTEX
8
ACESSORIO
10
9.900000000000000
20
-3.965295000000000
30
22.538350000000000
70
64
0
VERTEX
8
ACESSORIO
10
9.900000000000000
20
-3.001097000000000
30
22.937740000000000
70
64
0
VERTEX
8
ACESSORIO
10
9.900000000000000
20
-2.173121000000000
30
23.573060000000000
70
64
0
VERTEX
8
ACESSORIO
10
9.900000000000000
20
-1.537793000000000
30
24.401040000000000
70
64
0
VERTEX
8
ACESSORIO
10
9.900000000000000
20
-1.138409000000000
30
25.365240000000000
70
64
0
VERTEX
8
ACESSORIO
10
9.900000000000000
20
-1.002187000000000
30
26.399950000000000
70
64
0
SEQEND
0
POLYLINE
8
ACESSORIO
66
1
70
16
71
2
72
7
0
VERTEX
8
ACESSORIO
10
9.900000000000000
20
-4.999996000000000
30
59.899950000000000
70
64
0
VERTEX
8
ACESSORIO
10
9.900000000000000
20
-3.705902000000000
30
59.729580000000000
70
64
0
VERTEX
8
ACESSORIO
10
9.900000000000000
20
-2.499998000000000
30
59.230080000000000
70
64
0
VERTEX
8
ACESSORIO
10
9.900000000000000
20
-1.464464000000000
30
58.435490000000000
70
64
0
VERTEX
8
ACESSORIO
10
9.900000000000000
20
-0.669872300000000
30
57.399950000000000
70
64
0
VERTEX
8
ACESSORIO
10
9.900000000000000
20
-0.170370700000000
30
56.194050000000000
70
64
0
VERTEX
8
ACESSORIO
10
9.900000000000000
20
0.000000000000000
30
54.899950000000000
70
64
0
VERTEX
8
ACESSORIO
10
9.900000000000000
20
-5.000009000000000
30
21.399950000000000
70
64
0
VERTEX
8
ACESSORIO
10
9.900000000000000
20
-3.705914000000000
30
21.570320000000000
70
64
0
VERTEX
8
ACESSORIO
10
9.900000000000000
20
-2.500009000000000
30
22.069820000000000
70
64
0
VERTEX
8
ACESSORIO
10
9.900000000000000
20
-1.464475000000000
30
22.864420000000000
70
64
0
VERTEX
8
ACESSORIO
10
9.900000000000000
20
-0.669881600000000
30
23.899950000000000
70
64
0
VERTEX
8
ACESSORIO
10
9.900000000000000
20
-0.170379400000000
30
25.105850000000000
70
64
0
VERTEX
8
ACESSORIO
10
9.900000000000000
20
-0.000008482479000
30
26.399950000000000
70
64
0
SEQEND
0
POLYLINE
8
ACESSORIO
66
1
70
16
71
2
72
7
0
VERTEX
8
ACESSORIO
10
13.400000000000000
20
-27.400020000000000
30
0.000000424833400
70
64
0
VERTEX
8
ACESSORIO
10
13.400000000000000
20
-27.400020000000000
30
3.892579000000000
70
64
0
VERTEX
8
ACESSORIO
10
13.400000000000000
20
-27.400020000000000
30
7.785157000000000
70
64
0
VERTEX
8
ACESSORIO
10
13.400000000000000
20
-27.400020000000000
30
11.677730000000000
70
64
0
VERTEX
8
ACESSORIO
10
13.400000000000000
20
-27.400020000000000
30
15.570310000000000
70
64
0
VERTEX
8
ACESSORIO
10
13.400000000000000
20
-27.400020000000000
30
19.462890000000000
70
64
0
VERTEX
8
ACESSORIO
10
13.400000000000000
20
-27.400020000000000
30
23.355470000000000
70
64
0
VERTEX
8
ACESSORIO
10
3.000001000000000
20
-27.400050000000000
30
0.000003965832000
70
64
0
VERTEX
8
ACESSORIO
10
2.223544000000000
20
-27.400050000000000
30
0.102226800000000
70
64
0
VERTEX
8
ACESSORIO
10
1.500000000000000
20
-27.400050000000000
30
0.401928300000000
70
64
0
VERTEX
8
ACESSORIO
10
0.878679800000000
20
-27.400050000000000
30
0.878684500000000
70
64
0
VERTEX
8
ACESSORIO
10
0.401923900000000
20
-27.400050000000000
30
1.500005000000000
70
64
0
VERTEX
8
ACESSORIO
10
0.102222500000000
20
-27.400050000000000
30
2.223549000000000
70
64
0
VERTEX
8
ACESSORIO
10
0.000000000000000
20
-27.400050000000000
30
3.000006000000000
70
64
0
SEQEND
0
POLYLINE
8
ACESSORIO
66
1
70
16
71
2
72
7
0
VERTEX
8
ACESSORIO
10
13.400000000000000
20
-26.100020000000000
30
0.000000000000000
70
64
0
VERTEX
8
ACESSORIO
10
13.400000000000000
20
-26.100020000000000
30
3.892578000000000
70
64
0
VERTEX
8
ACESSORIO
10
13.400000000000000
20
-26.100020000000000
30
7.785157000000000
70
64
0
VERTEX
8
ACESSORIO
10
13.400000000000000
20
-26.100020000000000
30
11.677730000000000
70
64
0
VERTEX
8
ACESSORIO
10
13.400000000000000
20
-26.100020000000000
30
15.570310000000000
70
64
0
VERTEX
8
ACESSORIO
10
13.400000000000000
20
-26.100020000000000
30
19.462890000000000
70
64
0
VERTEX
8
ACESSORIO
10
13.400000000000000
20
-26.100020000000000
30
23.355470000000000
70
64
0
VERTEX
8
ACESSORIO
10
3.000001000000000
20
-26.100050000000000
30
0.000003540998000
70
64
0
VERTEX
8
ACESSORIO
10
2.223544000000000
20
-26.100050000000000
30
0.102226300000000
70
64
0
VERTEX
8
ACESSORIO
10
1.500000000000000
20
-26.100050000000000
30
0.401927900000000
70
64
0
VERTEX
8
ACESSORIO
10
0.878679800000000
20
-26.100050000000000
30
0.878684100000000
70
64
0
VERTEX
8
ACESSORIO
10
0.401923900000000
20
-26.100050000000000
30
1.500005000000000
70
64
0
VERTEX
8
ACESSORIO
10
0.102222500000000
20
-26.100050000000000
30
2.223548000000000
70
64
0
VERTEX
8
ACESSORIO
10
0.000000000000000
20
-26.100050000000000
30
3.000005000000000
70
64
0
SEQEND
0
POLYLINE
8
ACESSORIO
66
1
70
16
71
6
72
3
0
VERTEX
8
ACESSORIO
10
0.000001945799000
20
-26.456880000000000
30
91.200000000000000
70
64
0
VERTEX
8
ACESSORIO
10
0.000001945799000
20
-26.456880000000000
30
89.950000000000000
70
64
0
VERTEX
8
ACESSORIO
10
0.000001945799000
20
-26.456880000000000
30
89.950000000000000
70
64
0
VERTEX
8
ACESSORIO
10
14.950000000000000
20
-26.456880000000000
30
91.200000000000000
70
64
0
VERTEX
8
ACESSORIO
10
14.950000000000000
20
-26.456880000000000
30
89.950000000000000
70
64
0
VERTEX
8
ACESSORIO
10
14.950000000000000
20
-26.456880000000000
30
89.950000000000000
70
64
0
VERTEX
8
ACESSORIO
10
14.950000000000000
20
-21.900020000000000
30
91.200000000000000
70
64
0
VERTEX
8
ACESSORIO
10
14.950000000000000
20
-21.900020000000000
30
89.950000000000000
70
64
0
VERTEX
8
ACESSORIO
10
14.950000000000000
20
-26.456880000000000
30
89.950000000000000
70
64
0
VERTEX
8
ACESSORIO
10
0.000001945799000
20
-21.900020000000000
30
91.200000000000000
70
64
0
VERTEX
8
ACESSORIO
10
0.000001945799000
20
-21.900020000000000
30
89.950000000000000
70
64
0
VERTEX
8
ACESSORIO
10
0.000001945799000
20
-26.456880000000000
30
89.950000000000000
70
64
0
VERTEX
8
ACESSORIO
10
0.000001945799000
20
-21.900020000000000
30
91.200000000000000
70
64
0
VERTEX
8
ACESSORIO
10
0.000001945799000
20
-21.900020000000000
30
91.200000000000000
70
64
0
VERTEX
8
ACESSORIO
10
0.000001945799000
20
-26.456880000000000
30
91.200000000000000
70
64
0
VERTEX
8
ACESSORIO
10
14.950000000000000
20
-21.900020000000000
30
91.200000000000000
70
64
0
VERTEX
8
ACESSORIO
10
14.950000000000000
20
-21.900020000000000
30
91.200000000000000
70
64
0
VERTEX
8
ACESSORIO
10
14.950000000000000
20
-26.456880000000000
30
91.200000000000000
70
64
0
SEQEND
0
POLYLINE
8
ACESSORIO
66
1
70
16
71
2
72
7
0
VERTEX
8
ACESSORIO
10
16.700000000000000
20
-1.284478000000000
30
38.199550000000000
70
64
0
VERTEX
8
ACESSORIO
10
16.700000000000000
20
-4.653738000000000
30
38.199560000000000
70
64
0
VERTEX
8
ACESSORIO
10
16.700000000000000
20
-8.022997000000000
30
38.199560000000000
70
64
0
VERTEX
8
ACESSORIO
10
16.700000000000000
20
-11.392260000000000
30
38.199560000000000
70
64
0
VERTEX
8
ACESSORIO
10
16.700000000000000
20
-14.761520000000000
30
38.199560000000000
70
64
0
VERTEX
8
ACESSORIO
10
16.700000000000000
20
-18.130780000000000
30
38.199560000000000
70
64
0
VERTEX
8
ACESSORIO
10
16.700000000000000
20
-21.500040000000000
30
38.199570000000000
70
64
0
VERTEX
8
ACESSORIO
10
16.700000000000000
20
-1.284505000000000
30
28.199990000000000
70
64
0
VERTEX
8
ACESSORIO
10
16.700000000000000
20
-1.337016000000000
30
27.591560000000000
70
64
0
VERTEX
8
ACESSORIO
10
16.700000000000000
20
-1.492992000000000
30
27.001140000000000
70
64
0
VERTEX
8
ACESSORIO
10
16.700000000000000
20
-1.747822000000000
30
26.446160000000000
70
64
0
VERTEX
8
ACESSORIO
10
16.700000000000000
20
-2.093968000000000
30
25.943060000000000
70
64
0
VERTEX
8
ACESSORIO
10
16.700000000000000
20
-2.521194000000000
30
25.506700000000000
70
64
0
VERTEX
8
ACESSORIO
10
16.700000000000000
20
-3.016866000000000
30
25.149990000000000
70
64
0
SEQEND
0
POLYLINE
8
ACESSORIO
66
1
70
16
71
2
72
7
0
VERTEX
8
ACESSORIO
10
16.700000000000000
20
-1.284505000000000
30
28.199990000000000
70
64
0
VERTEX
8
ACESSORIO
10
16.700000000000000
20
-1.337016000000000
30
27.591560000000000
70
64
0
VERTEX
8
ACESSORIO
10
16.700000000000000
20
-1.492992000000000
30
27.001140000000000
70
64
0
VERTEX
8
ACESSORIO
10
16.700000000000000
20
-1.747822000000000
30
26.446160000000000
70
64
0
VERTEX
8
ACESSORIO
10
16.700000000000000
20
-2.093968000000000
30
25.943060000000000
70
64
0
VERTEX
8
ACESSORIO
10
16.700000000000000
20
-2.521194000000000
30
25.506700000000000
70
64
0
VERTEX
8
ACESSORIO
10
16.700000000000000
20
-3.016866000000000
30
25.149990000000000
70
64
0
VERTEX
8
ACESSORIO
10
14.950000000000000
20
-1.284505000000000
30
28.199990000000000
70
64
0
VERTEX
8
ACESSORIO
10
14.950000000000000
20
-1.337016000000000
30
27.591560000000000
70
64
0
VERTEX
8
ACESSORIO
10
14.950000000000000
20
-1.492992000000000
30
27.001140000000000
70
64
0
VERTEX
8
ACESSORIO
10
14.950000000000000
20
-1.747822000000000
30
26.446160000000000
70
64
0
VERTEX
8
ACESSORIO
10
14.950000000000000
20
-2.093968000000000
30
25.943060000000000
70
64
0
VERTEX
8
ACESSORIO
10
14.950000000000000
20
-2.521194000000000
30
25.506700000000000
70
64
0
VERTEX
8
ACESSORIO
10
14.950000000000000
20
-3.016866000000000
30
25.149990000000000
70
64
0
SEQEND
0
POLYLINE
8
ACESSORIO
66
1
70
16
71
2
72
7
0
VERTEX
8
ACESSORIO
10
16.700000000000000
20
-1.284470000000000
30
51.784910000000000
70
64
0
VERTEX
8
ACESSORIO
10
16.700000000000000
20
-4.653731000000000
30
51.784910000000000
70
64
0
VERTEX
8
ACESSORIO
10
16.700000000000000
20
-8.022994000000000
30
51.784910000000000
70
64
0
VERTEX
8
ACESSORIO
10
16.700000000000000
20
-11.392250000000000
30
51.784910000000000
70
64
0
VERTEX
8
ACESSORIO
10
16.700000000000000
20
-14.761520000000000
30
51.784910000000000
70
64
0
VERTEX
8
ACESSORIO
10
16.700000000000000
20
-18.130780000000000
30
51.784910000000000
70
64
0
VERTEX
8
ACESSORIO
10
16.700000000000000
20
-21.500040000000000
30
51.784910000000000
70
64
0
VERTEX
8
ACESSORIO
10
16.700000000000000
20
-1.284485000000000
30
70.000030000000000
70
64
0
VERTEX
8
ACESSORIO
10
16.700000000000000
20
-1.414497000000000
30
70.987570000000000
70
64
0
VERTEX
8
ACESSORIO
10
16.700000000000000
20
-1.795673000000000
30
71.907810000000000
70
64
0
VERTEX
8
ACESSORIO
10
16.700000000000000
20
-2.402035000000000
30
72.698030000000000
70
64
0
VERTEX
8
ACESSORIO
10
16.700000000000000
20
-3.192261000000000
30
73.304380000000000
70
64
0
VERTEX
8
ACESSORIO
10
16.700000000000000
20
-4.112499000000000
30
73.685560000000000
70
64
0
VERTEX
8
ACESSORIO
10
16.700000000000000
20
-5.100034000000000
30
73.815570000000000
70
64
0
SEQEND
0
POLYLINE
8
ACESSORIO
66
1
70
16
71
2
72
7
0
VERTEX
8
ACESSORIO
10
16.700000000000000
20
-1.284485000000000
30
70.000030000000000
70
64
0
VERTEX
8
ACESSORIO
10
16.700000000000000
20
-1.414497000000000
30
70.987570000000000
70
64
0
VERTEX
8
ACESSORIO
10
16.700000000000000
20
-1.795673000000000
30
71.907810000000000
70
64
0
VERTEX
8
ACESSORIO
10
16.700000000000000
20
-2.402035000000000
30
72.698030000000000
70
64
0
VERTEX
8
ACESSORIO
10
16.700000000000000
20
-3.192261000000000
30
73.304380000000000
70
64
0
VERTEX
8
ACESSORIO
10
16.700000000000000
20
-4.112499000000000
30
73.685560000000000
70
64
0
VERTEX
8
ACESSORIO
10
16.700000000000000
20
-5.100034000000000
30
73.815570000000000
70
64
0
VERTEX
8
ACESSORIO
10
14.950000000000000
20
-1.284485000000000
30
70.000030000000000
70
64
0
VERTEX
8
ACESSORIO
10
14.950000000000000
20
-1.414497000000000
30
70.987570000000000
70
64
0
VERTEX
8
ACESSORIO
10
14.950000000000000
20
-1.795673000000000
30
71.907810000000000
70
64
0
VERTEX
8
ACESSORIO
10
14.950000000000000
20
-2.402035000000000
30
72.698030000000000
70
64
0
VERTEX
8
ACESSORIO
10
14.950000000000000
20
-3.192261000000000
30
73.304380000000000
70
64
0
VERTEX
8
ACESSORIO
10
14.950000000000000
20
-4.112499000000000
30
73.685560000000000
70
64
0
VERTEX
8
ACESSORIO
10
14.950000000000000
20
-5.100034000000000
30
73.815570000000000
70
64
0
SEQEND
0
POLYLINE
8
ACESSORIO
66
1
70
16
71
2
72
7
0
VERTEX
8
ACESSORIO
10
13.700000000000000
20
-22.400020000000000
30
78.000000000000000
70
64
0
VERTEX
8
ACESSORIO
10
13.700000000000000
20
-22.297800000000000
30
77.223530000000000
70
64
0
VERTEX
8
ACESSORIO
10
13.700000000000000
20
-21.998100000000000
30
76.500000000000000
70
64
0
VERTEX
8
ACESSORIO
10
13.700000000000000
20
-21.521340000000000
30
75.878680000000000
70
64
0
VERTEX
8
ACESSORIO
10
13.700000000000000
20
-20.900020000000000
30
75.401920000000000
70
64
0
VERTEX
8
ACESSORIO
10
13.700000000000000
20
-20.176480000000000
30
75.102220000000000
70
64
0
VERTEX
8
ACESSORIO
10
13.700000000000000
20
-19.400020000000000
30
75.000000000000000
70
64
0
VERTEX
8
ACESSORIO
10
13.700000000000000
20
-27.400020000000000
30
78.000000000000000
70
64
0
VERTEX
8
ACESSORIO
10
13.700000000000000
20
-27.400020000000000
30
77.500000000000000
70
64
0
VERTEX
8
ACESSORIO
10
13.700000000000000
20
-27.400020000000000
30
77.000000000000000
70
64
0
VERTEX
8
ACESSORIO
10
13.700000000000000
20
-27.400020000000000
30
76.500000000000000
70
64
0
VERTEX
8
ACESSORIO
10
13.700000000000000
20
-27.400020000000000
30
76.000000000000000
70
64
0
VERTEX
8
ACESSORIO
10
13.700000000000000
20
-27.400020000000000
30
75.500000000000000
70
64
0
VERTEX
8
ACESSORIO
10
13.700000000000000
20
-27.400020000000000
30
75.000000000000000
70
64
0
SEQEND
0
POLYLINE
8
ACESSORIO
66
1
70
16
71
2
72
7
0
VERTEX
8
ACESSORIO
10
13.700000000000000
20
-22.400020000000000
30
78.000000000000000
70
64
0
VERTEX
8
ACESSORIO
10
13.700000000000000
20
-22.297800000000000
30
77.223530000000000
70
64
0
VERTEX
8
ACESSORIO
10
13.700000000000000
20
-21.998100000000000
30
76.500000000000000
70
64
0
VERTEX
8
ACESSORIO
10
13.700000000000000
20
-21.521340000000000
30
75.878680000000000
70
64
0
VERTEX
8
ACESSORIO
10
13.700000000000000
20
-20.900020000000000
30
75.401920000000000
70
64
0
VERTEX
8
ACESSORIO
10
13.700000000000000
20
-20.176480000000000
30
75.102220000000000
70
64
0
VERTEX
8
ACESSORIO
10
13.700000000000000
20
-19.400020000000000
30
75.000000000000000
70
64
0
VERTEX
8
ACESSORIO
10
14.950000000000000
20
-22.400020000000000
30
78.000000000000000
70
64
0
VERTEX
8
ACESSORIO
10
14.950000000000000
20
-22.297800000000000
30
77.223530000000000
70
64
0
VERTEX
8
ACESSORIO
10
14.950000000000000
20
-21.998100000000000
30
76.500000000000000
70
64
0
VERTEX
8
ACESSORIO
10
14.950000000000000
20
-21.521340000000000
30
75.878680000000000
70
64
0
VERTEX
8
ACESSORIO
10
14.950000000000000
20
-20.900020000000000
30
75.401920000000000
70
64
0
VERTEX
8
ACESSORIO
10
14.950000000000000
20
-20.176480000000000
30
75.102220000000000
70
64
0
VERTEX
8
ACESSORIO
10
14.950000000000000
20
-19.400020000000000
30
75.000000000000000
70
64
0
SEQEND
0
ENDSEC
0
EOF
