  0
SECTION
  2
HEADER
  9
$ACADVER
  1
AC1009
  9
$INSBASE
 10
0.0
 20
0.0
 30
0.0
  9
$EXTMIN
 10
-11.0
 20
-500.0
 30
0.0
  9
$EXTMAX
 10
1.0
 20
0.0
 30
84.707889999999992
  9
$LIMMIN
 10
0.0
 20
0.0
  9
$LIMMAX
 10
12.0
 20
9.0
  9
$ORTHOMODE
 70
     1
  9
$REGENMODE
 70
     1
  9
$FILLMODE
 70
     1
  9
$QTEXTMODE
 70
     0
  9
$MIRRTEXT
 70
     0
  9
$DRAGMODE
 70
     2
  9
$LTSCALE
 40
1.0
  9
$OSMODE
 70
   759
  9
$ATTMODE
 70
     1
  9
$TEXTSIZE
 40
0.2
  9
$TRACEWID
 40
0.05
  9
$TEXTSTYLE
  7
STANDARD
  9
$CLAYER
  8
0
  9
$CELTYPE
  6
CONTINUOUS
  9
$CECOLOR
 62
   256
  9
$DIMSCALE
 40
1.0
  9
$DIMASZ
 40
0.18
  9
$DIMEXO
 40
0.0625
  9
$DIMDLI
 40
0.38
  9
$DIMRND
 40
0.0
  9
$DIMDLE
 40
0.0
  9
$DIMEXE
 40
0.18
  9
$DIMTP
 40
0.0
  9
$DIMTM
 40
0.0
  9
$DIMTXT
 40
0.18
  9
$DIMCEN
 40
0.09
  9
$DIMTSZ
 40
0.0
  9
$DIMTOL
 70
     0
  9
$DIMLIM
 70
     0
  9
$DIMTIH
 70
     1
  9
$DIMTOH
 70
     1
  9
$DIMSE1
 70
     0
  9
$DIMSE2
 70
     0
  9
$DIMTAD
 70
     0
  9
$DIMZIN
 70
     0
  9
$DIMBLK
  1

  9
$DIMASO
 70
     1
  9
$DIMSHO
 70
     1
  9
$DIMPOST
  1

  9
$DIMAPOST
  1

  9
$DIMALT
 70
     0
  9
$DIMALTD
 70
     2
  9
$DIMALTF
 40
25.399999999999999
  9
$DIMLFAC
 40
1.0
  9
$DIMTOFL
 70
     0
  9
$DIMTVP
 40
0.0
  9
$DIMTIX
 70
     0
  9
$DIMSOXD
 70
     0
  9
$DIMSAH
 70
     0
  9
$DIMBLK1
  1

  9
$DIMBLK2
  1

  9
$DIMSTYLE
  2
STANDARD
  9
$DIMCLRD
 70
     0
  9
$DIMCLRE
 70
     0
  9
$DIMCLRT
 70
     0
  9
$DIMTFAC
 40
1.0
  9
$DIMGAP
 40
0.09
  9
$LUNITS
 70
     2
  9
$LUPREC
 70
     4
  9
$SKETCHINC
 40
0.1
  9
$FILLETRAD
 40
0.0
  9
$AUNITS
 70
     0
  9
$AUPREC
 70
     0
  9
$MENU
  1
.
  9
$ELEVATION
 40
0.0
  9
$PELEVATION
 40
0.0
  9
$THICKNESS
 40
0.0
  9
$LIMCHECK
 70
     0
  9
$BLIPMODE
 70
     0
  9
$CHAMFERA
 40
0.0
  9
$CHAMFERB
 40
0.0
  9
$SKPOLY
 70
     0
  9
$TDCREATE
 40
2457490.5745016201
  9
$TDUPDATE
 40
2457490.5759546179
  9
$TDINDWG
 40
0.0014537037
  9
$TDUSRTIMER
 40
0.0014537037
  9
$USRTIMER
 70
     1
  9
$ANGBASE
 50
0.0
  9
$ANGDIR
 70
     0
  9
$PDMODE
 70
     0
  9
$PDSIZE
 40
0.0
  9
$PLINEWID
 40
0.0
  9
$COORDS
 70
     1
  9
$SPLFRAME
 70
     0
  9
$SPLINETYPE
 70
     6
  9
$SPLINESEGS
 70
     8
  9
$ATTDIA
 70
     0
  9
$ATTREQ
 70
     1
  9
$HANDLING
 70
     1
  9
$HANDSEED
  5
1BC
  9
$SURFTAB1
 70
     6
  9
$SURFTAB2
 70
     6
  9
$SURFTYPE
 70
     6
  9
$SURFU
 70
     6
  9
$SURFV
 70
     6
  9
$UCSNAME
  2

  9
$UCSORG
 10
0.0
 20
0.0
 30
0.0
  9
$UCSXDIR
 10
1.0
 20
0.0
 30
0.0
  9
$UCSYDIR
 10
0.0
 20
1.0
 30
0.0
  9
$PUCSNAME
  2

  9
$PUCSORG
 10
0.0
 20
0.0
 30
0.0
  9
$PUCSXDIR
 10
1.0
 20
0.0
 30
0.0
  9
$PUCSYDIR
 10
0.0
 20
1.0
 30
0.0
  9
$USERI1
 70
     0
  9
$USERI2
 70
     0
  9
$USERI3
 70
     0
  9
$USERI4
 70
     0
  9
$USERI5
 70
     0
  9
$USERR1
 40
0.0
  9
$USERR2
 40
0.0
  9
$USERR3
 40
0.0
  9
$USERR4
 40
0.0
  9
$USERR5
 40
0.0
  9
$WORLDVIEW
 70
     1
  9
$SHADEDGE
 70
     3
  9
$SHADEDIF
 70
    70
  9
$TILEMODE
 70
     1
  9
$MAXACTVP
 70
    64
  9
$PLIMCHECK
 70
     0
  9
$PEXTMIN
 10
1.0000000000000000E+020
 20
1.0000000000000000E+020
 30
1.0000000000000000E+020
  9
$PEXTMAX
 10
-1.0000000000000000E+020
 20
-1.0000000000000000E+020
 30
-1.0000000000000000E+020
  9
$PLIMMIN
 10
0.0
 20
0.0
  9
$PLIMMAX
 10
12.0
 20
9.0
  9
$UNITMODE
 70
     0
  9
$VISRETAIN
 70
     1
  9
$PLINEGEN
 70
     0
  9
$PSLTSCALE
 70
     1
  0
ENDSEC
  0
SECTION
  2
TABLES
  0
TABLE
  2
VPORT
 70
     1
  0
VPORT
  2
*ACTIVE
 70
     0
 10
0.0
 20
0.0
 11
1.0
 21
1.0
 12
0.0
 22
0.0
 13
0.0
 23
0.0
 14
1.0
 24
1.0
 15
0.0
 25
0.0
 16
251.41722351716459
 26
-682.69988947420245
 36
187.05327185779541
 17
-112.1723601618027
 27
60.999771876677698
 37
-49.68605543828869
 40
234.12023976940119
 41
2.5027932960893851
 42
50.0
 43
0.0
 44
0.0
 50
0.0
 51
0.0000000000000008
 71
     0
 72
   100
 73
     1
 74
     1
 75
     0
 76
     0
 77
     0
 78
     0
  0
ENDTAB
  0
TABLE
  2
LTYPE
 70
     2
  0
LTYPE
  2
CONTINUOUS
 70
     0
  3
Solid line
 72
    65
 73
     0
 40
0.0
  0
LTYPE
  2
PHANTOM2
 70
     0
  3
Phantom (.5x) ___ _ _ ___ _ _ ___ _ _ ___ _ _
 72
    65
 73
     6
 40
1.25
 49
0.625
 49
-0.125
 49
0.125
 49
-0.125
 49
0.125
 49
-0.125
  0
ENDTAB
  0
TABLE
  2
LAYER
 70
     5
  0
LAYER
  2
0
 70
     0
 62
     7
  6
CONTINUOUS
  0
LAYER
  2
METALICA
 70
     0
 62
     7
  6
CONTINUOUS
  0
LAYER
  2
LATERAL
 70
     0
 62
     7
  6
CONTINUOUS
  0
LAYER
  2
SUPORTE
 70
     0
 62
   253
  6
CONTINUOUS
  0
LAYER
  2
CINZA_ES
 70
     0
 62
   251
  6
CONTINUOUS
  0
ENDTAB
  0
TABLE
  2
STYLE
 70
     2
  0
STYLE
  2
STANDARD
 70
     0
 40
0.0
 41
1.0
 50
0.0
 71
     0
 42
0.2
  3
txt
  4

  0
STYLE
  2
ANNOTATIVE
 70
     0
 40
0.0
 41
1.0
 50
0.0
 71
     0
 42
0.2
  3
txt
  4

  0
ENDTAB
  0
TABLE
  2
VIEW
 70
     0
  0
ENDTAB
  0
TABLE
  2
UCS
 70
     0
  0
ENDTAB
  0
TABLE
  2
APPID
 70
     4
  0
APPID
  2
ACAD
 70
     0
  0
APPID
  2
ACADANNOTATIVE
 70
     0
  0
APPID
  2
ACAD_NAV_VCDISPLAY
 70
     0
  0
APPID
  2
ACAD_MLEADERVER
 70
     0
  0
ENDTAB
  0
TABLE
  2
DIMSTYLE
 70
     2
  0
DIMSTYLE
  2
STANDARD
 70
     0
  3

  4

  5

  6

  7

 40
1.0
 41
0.18
 42
0.0625
 43
0.38
 44
0.18
 45
0.0
 46
0.0
 47
0.0
 48
0.0
140
0.18
141
0.09
142
0.0
143
25.399999999999999
144
1.0
145
0.0
146
1.0
147
0.09
 71
     0
 72
     0
 73
     1
 74
     1
 75
     0
 76
     0
 77
     0
 78
     0
170
     0
171
     2
172
     0
173
     0
174
     0
175
     0
176
     0
177
     0
178
     0
  0
DIMSTYLE
  2
ANNOTATIVE
 70
     0
  3

  4

  5

  6

  7

 40
1.0
 41
0.18
 42
0.0625
 43
0.38
 44
0.18
 45
0.0
 46
0.0
 47
0.0
 48
0.0
140
0.18
141
0.09
142
0.0
143
25.399999999999999
144
1.0
145
0.0
146
1.0
147
0.09
 71
     0
 72
     0
 73
     1
 74
     1
 75
     0
 76
     0
 77
     0
 78
     0
170
     0
171
     2
172
     0
173
     0
174
     0
175
     0
176
     0
177
     0
178
     0
  0
ENDTAB
  0
ENDSEC
  0
SECTION
  2
BLOCKS
  0
BLOCK
  8
0
  2
$MODEL_SPACE
 70
     0
 10
0.0
 20
0.0
 30
0.0
  3
$MODEL_SPACE
  1

  0
ENDBLK
  5
72
  8
0
  0
BLOCK
 67
     1
  8
0
  2
$PAPER_SPACE
 70
     0
 10
0.0
 20
0.0
 30
0.0
  3
$PAPER_SPACE
  1

  0
ENDBLK
  5
6E
 67
     1
  8
0
  0
ENDSEC
  0
SECTION
  2
ENTITIES
  0
3DFACE
  5
7A
  8
METALICA
 10
1.0
 20
-500.0
 30
62.14268999999998
 11
1.0
 21
-486.90499999999992
 31
49.576390000000004
 12
1.0
 22
-486.90499999999992
 32
12.549289999999999
 13
1.0
 23
-500.0
 33
0.0
 70
     7
  0
3DFACE
  5
7B
  8
METALICA
 10
1.0
 20
0.0
 30
62.14268999999998
 11
1.0
 21
-13.250690000000001
 31
49.576390000000004
 12
1.0
 22
-13.250690000000001
 32
12.549289999999999
 13
1.0
 23
0.0
 33
0.0
 70
     7
  0
3DFACE
  5
7C
  8
METALICA
 10
1.0
 20
0.0
 30
0.0
 11
1.0
 21
-13.250690000000001
 31
12.549289999999999
 12
1.0
 22
-486.90499999999992
 32
12.549289999999999
 13
1.0
 23
-500.0
 33
0.0
 70
     7
  0
3DFACE
  5
7D
  8
METALICA
 10
17.57902
 20
-518.0
 30
161.81229999999999
 11
17.57902
 21
-504.90499999999997
 31
149.24600000000001
 12
17.57902
 22
-31.250689999999999
 32
149.24600000000001
 13
17.57902
 23
-18.0
 33
161.81229999999999
 70
    15
  0
3DFACE
  5
7E
  8
METALICA
 10
1.0
 20
-478.47169999999988
 30
49.576390000000004
 11
1.0
 21
-478.47169999999988
 31
40.45118999999999
 12
1.0
 22
-455.90499999999997
 32
40.45118999999999
 13
1.0
 23
-455.90499999999997
 33
49.576390000000004
 70
    10
  0
3DFACE
  5
7F
  8
METALICA
 10
1.0
 20
-447.4717
 30
49.576390000000004
 11
1.0
 21
-447.4717
 31
40.45118999999999
 12
1.0
 22
-424.90499999999992
 32
40.45118999999999
 13
1.0
 23
-424.90499999999992
 33
49.576390000000004
 70
    10
  0
3DFACE
  5
80
  8
METALICA
 10
1.0
 20
-416.4717
 30
49.576390000000004
 11
1.0
 21
-416.4717
 31
40.45118999999999
 12
1.0
 22
-393.90499999999997
 32
40.45118999999999
 13
1.0
 23
-393.90499999999997
 33
49.576390000000004
 70
    10
  0
3DFACE
  5
81
  8
METALICA
 10
1.0
 20
-385.4717
 30
49.576390000000004
 11
1.0
 21
-385.4717
 31
40.45118999999999
 12
1.0
 22
-362.90499999999997
 32
40.45118999999999
 13
1.0
 23
-362.90499999999997
 33
49.576390000000004
 70
    10
  0
3DFACE
  5
82
  8
METALICA
 10
1.0
 20
-354.4717
 30
49.576390000000004
 11
1.0
 21
-354.4717
 31
40.45118999999999
 12
1.0
 22
-331.90499999999997
 32
40.45118999999999
 13
1.0
 23
-331.90499999999997
 33
49.576390000000004
 70
    10
  0
3DFACE
  5
83
  8
METALICA
 10
1.0
 20
-323.4717
 30
49.576390000000004
 11
1.0
 21
-323.4717
 31
40.45118999999999
 12
1.0
 22
-300.90499999999997
 32
40.45118999999999
 13
1.0
 23
-300.90499999999997
 33
49.576390000000004
 70
    10
  0
3DFACE
  5
84
  8
METALICA
 10
1.0
 20
-292.4717
 30
49.576390000000004
 11
1.0
 21
-292.4717
 31
40.45118999999999
 12
1.0
 22
-269.90499999999997
 32
40.45118999999999
 13
1.0
 23
-269.90499999999997
 33
49.576390000000004
 70
    10
  0
3DFACE
  5
85
  8
METALICA
 10
1.0
 20
-261.4717
 30
49.576390000000004
 11
1.0
 21
-261.4717
 31
40.45118999999999
 12
1.0
 22
-238.905
 32
40.45118999999999
 13
1.0
 23
-238.905
 33
49.576390000000004
 70
    10
  0
3DFACE
  5
86
  8
METALICA
 10
1.0
 20
-230.4717
 30
49.576390000000004
 11
1.0
 21
-230.4717
 31
40.45118999999999
 12
1.0
 22
-207.905
 32
40.45118999999999
 13
1.0
 23
-207.905
 33
49.576390000000004
 70
    10
  0
3DFACE
  5
87
  8
METALICA
 10
1.0
 20
-199.4717
 30
49.576390000000004
 11
1.0
 21
-199.4717
 31
40.45118999999999
 12
1.0
 22
-176.905
 32
40.45118999999999
 13
1.0
 23
-176.905
 33
49.576390000000004
 70
    10
  0
3DFACE
  5
88
  8
METALICA
 10
1.0
 20
-168.4717
 30
49.576390000000004
 11
1.0
 21
-168.4717
 31
40.45118999999999
 12
1.0
 22
-145.905
 32
40.45118999999999
 13
1.0
 23
-145.905
 33
49.576390000000004
 70
    10
  0
3DFACE
  5
89
  8
METALICA
 10
1.0
 20
-137.4717
 30
49.576390000000004
 11
1.0
 21
-137.4717
 31
40.45118999999999
 12
1.0
 22
-114.905
 32
40.45118999999999
 13
1.0
 23
-114.905
 33
49.576390000000004
 70
    10
  0
3DFACE
  5
8A
  8
METALICA
 10
1.0
 20
-106.4717
 30
49.576390000000004
 11
1.0
 21
-106.4717
 31
40.45118999999999
 12
1.0
 22
-83.905000000000015
 32
40.45118999999999
 13
1.0
 23
-83.905000000000015
 33
49.576390000000004
 70
    10
  0
3DFACE
  5
8B
  8
METALICA
 10
1.0
 20
-75.471729999999994
 30
49.576390000000004
 11
1.0
 21
-75.471729999999994
 31
40.45118999999999
 12
1.0
 22
-52.904989999999998
 32
40.45118999999999
 13
1.0
 23
-52.904989999999998
 33
49.576390000000004
 70
    10
  0
3DFACE
  5
8C
  8
METALICA
 10
1.0
 20
-44.47173999999999
 30
49.576390000000004
 11
1.0
 21
-44.47173999999999
 31
40.45118999999999
 12
1.0
 22
-21.904990000000002
 32
40.45118999999999
 13
1.0
 23
-21.904990000000002
 33
49.576390000000004
 70
    10
  0
3DFACE
  5
8D
  8
METALICA
 10
17.57902
 20
-504.90499999999997
 30
140.1208
 11
17.57902
 21
-504.90499999999997
 31
121.5196
 12
17.57902
 22
-31.250689999999999
 32
121.5196
 13
17.57902
 23
-31.250689999999999
 33
140.1208
 70
    15
  0
3DFACE
  5
8E
  8
METALICA
 10
1.0
 20
-500.0
 30
62.14268999999998
 11
1.0
 21
-500.0
 31
68.755589999999984
 12
1.0
 22
0.0
 32
68.755589999999984
 13
1.0
 23
0.0
 33
62.14268999999998
 70
    10
  0
3DFACE
  5
8F
  8
METALICA
 10
1.0
 20
0.0
 30
68.755589999999984
 11
1.0
 21
-0.5857899999999994
 31
70.169790000000006
 12
1.0
 22
-499.41419999999999
 32
70.169790000000006
 13
1.0
 23
-500.0
 33
68.755589999999984
 70
    10
  0
3DFACE
  5
90
  8
METALICA
 10
1.0
 20
-499.41419999999999
 30
70.169790000000006
 11
1.0
 21
-498.0
 31
70.755589999999984
 12
1.0
 22
-2.0
 32
70.755589999999984
 13
1.0
 23
-0.5857899999999994
 33
70.169790000000006
 70
    10
  0
3DFACE
  5
91
  8
METALICA
 10
1.0
 20
-27.28838
 30
70.755589999999984
 11
1.0
 21
-28.7026
 31
71.34138999999999
 12
1.0
 22
-471.29739999999993
 32
71.34138999999999
 13
1.0
 23
-472.71159999999992
 33
70.755589999999984
 70
    10
  0
3DFACE
  5
92
  8
METALICA
 10
1.0
 20
-471.29739999999993
 30
71.34138999999999
 11
1.0
 21
-470.71159999999998
 31
72.755589999999984
 12
1.0
 22
-29.28838
 32
72.755589999999984
 13
1.0
 23
-28.7026
 33
71.34138999999999
 70
    10
  0
3DFACE
  5
93
  8
METALICA
 10
1.0
 20
-22.38672
 30
12.549289999999999
 11
1.0
 21
-22.38672
 31
21.849989999999991
 12
1.0
 22
-43.768970000000003
 32
21.849989999999991
 13
1.0
 23
-43.768970000000003
 33
12.549289999999999
 70
    10
  0
3DFACE
  5
94
  8
METALICA
 10
1.0
 20
-52.904989999999998
 30
12.549289999999999
 11
1.0
 21
-52.904989999999998
 31
21.849989999999991
 12
1.0
 22
-74.768969999999996
 32
21.849989999999991
 13
1.0
 23
-74.768969999999996
 33
12.549289999999999
 70
    10
  0
3DFACE
  5
95
  8
METALICA
 10
1.0
 20
-83.905000000000015
 30
12.549289999999999
 11
1.0
 21
-83.905000000000015
 31
21.849989999999991
 12
1.0
 22
-105.76900000000001
 32
21.849989999999991
 13
1.0
 23
-105.76900000000001
 33
12.549289999999999
 70
    10
  0
3DFACE
  5
96
  8
METALICA
 10
1.0
 20
-114.905
 30
12.549289999999999
 11
1.0
 21
-114.905
 31
21.849989999999991
 12
1.0
 22
-136.76900000000001
 32
21.849989999999991
 13
1.0
 23
-136.76900000000001
 33
12.549289999999999
 70
    10
  0
3DFACE
  5
97
  8
METALICA
 10
1.0
 20
-145.905
 30
12.549289999999999
 11
1.0
 21
-145.905
 31
21.849989999999991
 12
1.0
 22
-167.76900000000001
 32
21.849989999999991
 13
1.0
 23
-167.76900000000001
 33
12.549289999999999
 70
    10
  0
3DFACE
  5
98
  8
METALICA
 10
1.0
 20
-176.905
 30
12.549289999999999
 11
1.0
 21
-176.905
 31
21.849989999999991
 12
1.0
 22
-198.76900000000001
 32
21.849989999999991
 13
1.0
 23
-198.76900000000001
 33
12.549289999999999
 70
    10
  0
3DFACE
  5
99
  8
METALICA
 10
1.0
 20
-207.905
 30
12.549289999999999
 11
1.0
 21
-207.905
 31
21.849989999999991
 12
1.0
 22
-229.76900000000001
 32
21.849989999999991
 13
1.0
 23
-229.76900000000001
 33
12.549289999999999
 70
    10
  0
3DFACE
  5
9A
  8
METALICA
 10
1.0
 20
-238.905
 30
12.549289999999999
 11
1.0
 21
-238.905
 31
21.849989999999991
 12
1.0
 22
-260.76900000000001
 32
21.849989999999991
 13
1.0
 23
-260.76900000000001
 33
12.549289999999999
 70
    10
  0
3DFACE
  5
9B
  8
METALICA
 10
1.0
 20
-269.90499999999997
 30
12.549289999999999
 11
1.0
 21
-269.90499999999997
 31
21.849989999999991
 12
1.0
 22
-291.76900000000001
 32
21.849989999999991
 13
1.0
 23
-291.76900000000001
 33
12.549289999999999
 70
    10
  0
3DFACE
  5
9C
  8
METALICA
 10
1.0
 20
-300.90499999999997
 30
12.549289999999999
 11
1.0
 21
-300.90499999999997
 31
21.849989999999991
 12
1.0
 22
-322.76900000000001
 32
21.849989999999991
 13
1.0
 23
-322.76900000000001
 33
12.549289999999999
 70
    10
  0
3DFACE
  5
9D
  8
METALICA
 10
1.0
 20
-331.90499999999997
 30
12.549289999999999
 11
1.0
 21
-331.90499999999997
 31
21.849989999999991
 12
1.0
 22
-353.76900000000001
 32
21.849989999999991
 13
1.0
 23
-353.76900000000001
 33
12.549289999999999
 70
    10
  0
3DFACE
  5
9E
  8
METALICA
 10
1.0
 20
-362.90499999999997
 30
12.549289999999999
 11
1.0
 21
-362.90499999999997
 31
21.849989999999991
 12
1.0
 22
-384.76900000000001
 32
21.849989999999991
 13
1.0
 23
-384.76900000000001
 33
12.549289999999999
 70
    10
  0
3DFACE
  5
9F
  8
METALICA
 10
1.0
 20
-393.90499999999997
 30
12.549289999999999
 11
1.0
 21
-393.90499999999997
 31
21.849989999999991
 12
1.0
 22
-415.76900000000001
 32
21.849989999999991
 13
1.0
 23
-415.76900000000001
 33
12.549289999999999
 70
    10
  0
3DFACE
  5
A0
  8
METALICA
 10
1.0
 20
-424.90499999999992
 30
12.549289999999999
 11
1.0
 21
-424.90499999999992
 31
21.849989999999991
 12
1.0
 22
-446.76900000000001
 32
21.849989999999991
 13
1.0
 23
-446.76900000000001
 33
12.549289999999999
 70
    10
  0
3DFACE
  5
A1
  8
METALICA
 10
1.0
 20
-455.90499999999997
 30
12.549289999999999
 11
1.0
 21
-455.90499999999997
 31
21.849989999999991
 12
1.0
 22
-477.76899999999989
 32
21.849989999999991
 13
1.0
 23
-477.76899999999989
 33
12.549289999999999
 70
    10
  0
3DFACE
  5
A2
  8
METALICA
 10
0.0
 20
-500.0
 30
62.14268999999998
 11
0.0
 21
-486.90499999999992
 31
49.576390000000004
 12
0.0
 22
-486.90499999999992
 32
12.549289999999999
 13
0.0
 23
-500.0
 33
0.0
 70
     7
  0
3DFACE
  5
A3
  8
METALICA
 10
0.0
 20
0.0
 30
62.14268999999998
 11
0.0
 21
-13.250690000000001
 31
49.576390000000004
 12
0.0
 22
-13.250690000000001
 32
12.549289999999999
 13
0.0
 23
0.0
 33
0.0
 70
     7
  0
3DFACE
  5
A4
  8
METALICA
 10
0.0
 20
0.0
 30
0.0
 11
0.0
 21
-13.250690000000001
 31
12.549289999999999
 12
0.0
 22
-486.90499999999992
 32
12.549289999999999
 13
0.0
 23
-500.0
 33
0.0
 70
     7
  0
3DFACE
  5
A5
  8
METALICA
 10
16.57902
 20
-518.0
 30
161.81229999999999
 11
16.57902
 21
-504.90499999999997
 31
149.24600000000001
 12
16.57902
 22
-31.250689999999999
 32
149.24600000000001
 13
16.57902
 23
-18.0
 33
161.81229999999999
 70
    15
  0
3DFACE
  5
A6
  8
METALICA
 10
0.0
 20
-478.47169999999988
 30
49.576390000000004
 11
0.0
 21
-478.47169999999988
 31
40.45118999999999
 12
0.0
 22
-455.90499999999997
 32
40.45118999999999
 13
0.0
 23
-455.90499999999997
 33
49.576390000000004
 70
    10
  0
3DFACE
  5
A7
  8
METALICA
 10
0.0
 20
-447.4717
 30
49.576390000000004
 11
0.0
 21
-447.4717
 31
40.45118999999999
 12
0.0
 22
-424.90499999999992
 32
40.45118999999999
 13
0.0
 23
-424.90499999999992
 33
49.576390000000004
 70
    10
  0
3DFACE
  5
A8
  8
METALICA
 10
0.0
 20
-416.4717
 30
49.576390000000004
 11
0.0
 21
-416.4717
 31
40.45118999999999
 12
0.0
 22
-393.90499999999997
 32
40.45118999999999
 13
0.0
 23
-393.90499999999997
 33
49.576390000000004
 70
    10
  0
3DFACE
  5
A9
  8
METALICA
 10
0.0
 20
-385.4717
 30
49.576390000000004
 11
0.0
 21
-385.4717
 31
40.45118999999999
 12
0.0
 22
-362.90499999999997
 32
40.45118999999999
 13
0.0
 23
-362.90499999999997
 33
49.576390000000004
 70
    10
  0
3DFACE
  5
AA
  8
METALICA
 10
0.0
 20
-354.4717
 30
49.576390000000004
 11
0.0
 21
-354.4717
 31
40.45118999999999
 12
0.0
 22
-331.90499999999997
 32
40.45118999999999
 13
0.0
 23
-331.90499999999997
 33
49.576390000000004
 70
    10
  0
3DFACE
  5
AB
  8
METALICA
 10
0.0
 20
-323.4717
 30
49.576390000000004
 11
0.0
 21
-323.4717
 31
40.45118999999999
 12
0.0
 22
-300.90499999999997
 32
40.45118999999999
 13
0.0
 23
-300.90499999999997
 33
49.576390000000004
 70
    10
  0
3DFACE
  5
AC
  8
METALICA
 10
0.0
 20
-292.4717
 30
49.576390000000004
 11
0.0
 21
-292.4717
 31
40.45118999999999
 12
0.0
 22
-269.90499999999997
 32
40.45118999999999
 13
0.0
 23
-269.90499999999997
 33
49.576390000000004
 70
    10
  0
3DFACE
  5
AD
  8
METALICA
 10
0.0
 20
-261.4717
 30
49.576390000000004
 11
0.0
 21
-261.4717
 31
40.45118999999999
 12
0.0
 22
-238.905
 32
40.45118999999999
 13
0.0
 23
-238.905
 33
49.576390000000004
 70
    10
  0
3DFACE
  5
AE
  8
METALICA
 10
0.0
 20
-230.4717
 30
49.576390000000004
 11
0.0
 21
-230.4717
 31
40.45118999999999
 12
0.0
 22
-207.905
 32
40.45118999999999
 13
0.0
 23
-207.905
 33
49.576390000000004
 70
    10
  0
3DFACE
  5
AF
  8
METALICA
 10
0.0
 20
-199.4717
 30
49.576390000000004
 11
0.0
 21
-199.4717
 31
40.45118999999999
 12
0.0
 22
-176.905
 32
40.45118999999999
 13
0.0
 23
-176.905
 33
49.576390000000004
 70
    10
  0
3DFACE
  5
B0
  8
METALICA
 10
0.0
 20
-168.4717
 30
49.576390000000004
 11
0.0
 21
-168.4717
 31
40.45118999999999
 12
0.0
 22
-145.905
 32
40.45118999999999
 13
0.0
 23
-145.905
 33
49.576390000000004
 70
    10
  0
3DFACE
  5
B1
  8
METALICA
 10
0.0
 20
-137.4717
 30
49.576390000000004
 11
0.0
 21
-137.4717
 31
40.45118999999999
 12
0.0
 22
-114.905
 32
40.45118999999999
 13
0.0
 23
-114.905
 33
49.576390000000004
 70
    10
  0
3DFACE
  5
B2
  8
METALICA
 10
0.0
 20
-106.4717
 30
49.576390000000004
 11
0.0
 21
-106.4717
 31
40.45118999999999
 12
0.0
 22
-83.905000000000015
 32
40.45118999999999
 13
0.0
 23
-83.905000000000015
 33
49.576390000000004
 70
    10
  0
3DFACE
  5
B3
  8
METALICA
 10
0.0
 20
-75.471729999999994
 30
49.576390000000004
 11
0.0
 21
-75.471729999999994
 31
40.45118999999999
 12
0.0
 22
-52.904989999999998
 32
40.45118999999999
 13
0.0
 23
-52.904989999999998
 33
49.576390000000004
 70
    10
  0
3DFACE
  5
B4
  8
METALICA
 10
0.0
 20
-44.47173999999999
 30
49.576390000000004
 11
0.0
 21
-44.47173999999999
 31
40.45118999999999
 12
0.0
 22
-21.904990000000002
 32
40.45118999999999
 13
0.0
 23
-21.904990000000002
 33
49.576390000000004
 70
    10
  0
3DFACE
  5
B5
  8
METALICA
 10
16.57902
 20
-504.90499999999997
 30
140.1208
 11
16.57902
 21
-504.90499999999997
 31
121.5196
 12
16.57902
 22
-31.250689999999999
 32
121.5196
 13
16.57902
 23
-31.250689999999999
 33
140.1208
 70
    15
  0
3DFACE
  5
B6
  8
METALICA
 10
0.0
 20
-500.0
 30
62.14268999999998
 11
0.0
 21
-500.0
 31
68.755589999999984
 12
0.0
 22
0.0
 32
68.755589999999984
 13
0.0
 23
0.0
 33
62.14268999999998
 70
    10
  0
3DFACE
  5
B7
  8
METALICA
 10
0.0
 20
0.0
 30
68.755589999999984
 11
0.0
 21
-0.5857899999999994
 31
70.169790000000006
 12
0.0
 22
-499.41419999999999
 32
70.169790000000006
 13
0.0
 23
-500.0
 33
68.755589999999984
 70
    10
  0
3DFACE
  5
B8
  8
METALICA
 10
0.0
 20
-499.41419999999999
 30
70.169790000000006
 11
0.0
 21
-498.0
 31
70.755589999999984
 12
0.0
 22
-2.0
 32
70.755589999999984
 13
0.0
 23
-0.5857899999999994
 33
70.169790000000006
 70
    10
  0
3DFACE
  5
B9
  8
METALICA
 10
0.0
 20
-27.28838
 30
70.755589999999984
 11
0.0
 21
-28.7026
 31
71.34138999999999
 12
0.0
 22
-471.29739999999993
 32
71.34138999999999
 13
0.0
 23
-472.71159999999992
 33
70.755589999999984
 70
    10
  0
3DFACE
  5
BA
  8
METALICA
 10
0.0
 20
-471.29739999999993
 30
71.34138999999999
 11
0.0
 21
-470.71159999999998
 31
72.755589999999984
 12
0.0
 22
-29.28838
 32
72.755589999999984
 13
0.0
 23
-28.7026
 33
71.34138999999999
 70
    10
  0
3DFACE
  5
BB
  8
METALICA
 10
0.0
 20
-22.38672
 30
12.549289999999999
 11
0.0
 21
-22.38672
 31
21.849989999999991
 12
0.0
 22
-43.768970000000003
 32
21.849989999999991
 13
0.0
 23
-43.768970000000003
 33
12.549289999999999
 70
    10
  0
3DFACE
  5
BC
  8
METALICA
 10
0.0
 20
-52.904989999999998
 30
12.549289999999999
 11
0.0
 21
-52.904989999999998
 31
21.849989999999991
 12
0.0
 22
-74.768969999999996
 32
21.849989999999991
 13
0.0
 23
-74.768969999999996
 33
12.549289999999999
 70
    10
  0
3DFACE
  5
BD
  8
METALICA
 10
0.0
 20
-83.905000000000015
 30
12.549289999999999
 11
0.0
 21
-83.905000000000015
 31
21.849989999999991
 12
0.0
 22
-105.76900000000001
 32
21.849989999999991
 13
0.0
 23
-105.76900000000001
 33
12.549289999999999
 70
    10
  0
3DFACE
  5
BE
  8
METALICA
 10
0.0
 20
-114.905
 30
12.549289999999999
 11
0.0
 21
-114.905
 31
21.849989999999991
 12
0.0
 22
-136.76900000000001
 32
21.849989999999991
 13
0.0
 23
-136.76900000000001
 33
12.549289999999999
 70
    10
  0
3DFACE
  5
BF
  8
METALICA
 10
0.0
 20
-145.905
 30
12.549289999999999
 11
0.0
 21
-145.905
 31
21.849989999999991
 12
0.0
 22
-167.76900000000001
 32
21.849989999999991
 13
0.0
 23
-167.76900000000001
 33
12.549289999999999
 70
    10
  0
3DFACE
  5
C0
  8
METALICA
 10
0.0
 20
-176.905
 30
12.549289999999999
 11
0.0
 21
-176.905
 31
21.849989999999991
 12
0.0
 22
-198.76900000000001
 32
21.849989999999991
 13
0.0
 23
-198.76900000000001
 33
12.549289999999999
 70
    10
  0
3DFACE
  5
C1
  8
METALICA
 10
0.0
 20
-207.905
 30
12.549289999999999
 11
0.0
 21
-207.905
 31
21.849989999999991
 12
0.0
 22
-229.76900000000001
 32
21.849989999999991
 13
0.0
 23
-229.76900000000001
 33
12.549289999999999
 70
    10
  0
3DFACE
  5
C2
  8
METALICA
 10
0.0
 20
-238.905
 30
12.549289999999999
 11
0.0
 21
-238.905
 31
21.849989999999991
 12
0.0
 22
-260.76900000000001
 32
21.849989999999991
 13
0.0
 23
-260.76900000000001
 33
12.549289999999999
 70
    10
  0
3DFACE
  5
C3
  8
METALICA
 10
0.0
 20
-269.90499999999997
 30
12.549289999999999
 11
0.0
 21
-269.90499999999997
 31
21.849989999999991
 12
0.0
 22
-291.76900000000001
 32
21.849989999999991
 13
0.0
 23
-291.76900000000001
 33
12.549289999999999
 70
    10
  0
3DFACE
  5
C4
  8
METALICA
 10
0.0
 20
-300.90499999999997
 30
12.549289999999999
 11
0.0
 21
-300.90499999999997
 31
21.849989999999991
 12
0.0
 22
-322.76900000000001
 32
21.849989999999991
 13
0.0
 23
-322.76900000000001
 33
12.549289999999999
 70
    10
  0
3DFACE
  5
C5
  8
METALICA
 10
0.0
 20
-331.90499999999997
 30
12.549289999999999
 11
0.0
 21
-331.90499999999997
 31
21.849989999999991
 12
0.0
 22
-353.76900000000001
 32
21.849989999999991
 13
0.0
 23
-353.76900000000001
 33
12.549289999999999
 70
    10
  0
3DFACE
  5
C6
  8
METALICA
 10
0.0
 20
-362.90499999999997
 30
12.549289999999999
 11
0.0
 21
-362.90499999999997
 31
21.849989999999991
 12
0.0
 22
-384.76900000000001
 32
21.849989999999991
 13
0.0
 23
-384.76900000000001
 33
12.549289999999999
 70
    10
  0
3DFACE
  5
C7
  8
METALICA
 10
0.0
 20
-393.90499999999997
 30
12.549289999999999
 11
0.0
 21
-393.90499999999997
 31
21.849989999999991
 12
0.0
 22
-415.76900000000001
 32
21.849989999999991
 13
0.0
 23
-415.76900000000001
 33
12.549289999999999
 70
    10
  0
3DFACE
  5
C8
  8
METALICA
 10
0.0
 20
-424.90499999999992
 30
12.549289999999999
 11
0.0
 21
-424.90499999999992
 31
21.849989999999991
 12
0.0
 22
-446.76900000000001
 32
21.849989999999991
 13
0.0
 23
-446.76900000000001
 33
12.549289999999999
 70
    10
  0
3DFACE
  5
C9
  8
METALICA
 10
0.0
 20
-455.90499999999997
 30
12.549289999999999
 11
0.0
 21
-455.90499999999997
 31
21.849989999999991
 12
0.0
 22
-477.76899999999989
 32
21.849989999999991
 13
0.0
 23
-477.76899999999989
 33
12.549289999999999
 70
    10
  0
3DFACE
  5
CA
  8
METALICA
 10
1.0
 20
0.0
 30
0.0
 11
0.0
 21
0.0
 31
0.0
 12
0.0
 22
0.0
 32
62.14268999999998
 13
1.0
 23
0.0
 33
62.14268999999998
  0
3DFACE
  5
CB
  8
METALICA
 10
0.0
 20
0.0
 30
62.14268999999998
 11
1.0
 21
0.0
 31
62.14268999999998
 12
1.0
 22
0.0
 32
68.755589999999984
 13
0.0
 23
0.0
 33
68.755589999999984
  0
3DFACE
  5
CC
  8
METALICA
 10
1.0
 20
0.0
 30
68.755589999999984
 11
1.0
 21
-0.5857899999999994
 31
70.169790000000006
 12
0.0
 22
-0.5857899999999994
 32
70.169790000000006
 13
0.0
 23
0.0
 33
68.755589999999984
  0
3DFACE
  5
CD
  8
METALICA
 10
0.0
 20
-0.5857899999999994
 30
70.169790000000006
 11
0.0
 21
-2.0
 31
70.755589999999984
 12
1.0
 22
-2.0
 32
70.755589999999984
 13
1.0
 23
-0.5857899999999994
 33
70.169790000000006
  0
3DFACE
  5
CE
  8
METALICA
 10
1.0
 20
-27.28838
 30
70.755589999999984
 11
0.0
 21
-27.28838
 31
70.755589999999984
 12
0.0
 22
-2.0
 32
70.755589999999984
 13
1.0
 23
-2.0
 33
70.755589999999984
  0
3DFACE
  5
CF
  8
METALICA
 10
1.0
 20
-27.28838
 30
70.755589999999984
 11
1.0
 21
-28.7026
 31
71.34138999999999
 12
0.0
 22
-28.7026
 32
71.34138999999999
 13
0.0
 23
-27.28838
 33
70.755589999999984
  0
3DFACE
  5
D0
  8
METALICA
 10
0.0
 20
-28.7026
 30
71.34138999999999
 11
0.0
 21
-29.28838
 31
72.755589999999984
 12
1.0
 22
-29.28838
 32
72.755589999999984
 13
1.0
 23
-28.7026
 33
71.34138999999999
  0
3DFACE
  5
D1
  8
METALICA
 10
1.0
 20
-500.0
 30
68.755589999999984
 11
0.0
 21
-500.0
 31
68.755589999999984
 12
0.0
 22
-499.41419999999999
 32
70.169790000000006
 13
1.0
 23
-499.41419999999999
 33
70.169790000000006
  0
3DFACE
  5
D2
  8
METALICA
 10
0.0
 20
-499.41419999999999
 30
70.169790000000006
 11
1.0
 21
-499.41419999999999
 31
70.169790000000006
 12
1.0
 22
-498.0
 32
70.755589999999984
 13
0.0
 23
-498.0
 33
70.755589999999984
  0
3DFACE
  5
D3
  8
METALICA
 10
1.0
 20
-498.0
 30
70.755589999999984
 11
0.0
 21
-498.0
 31
70.755589999999984
 12
0.0
 22
-472.71159999999992
 32
70.755589999999984
 13
1.0
 23
-472.71159999999992
 33
70.755589999999984
  0
3DFACE
  5
D4
  8
METALICA
 10
0.0
 20
-472.71159999999992
 30
70.755589999999984
 11
1.0
 21
-472.71159999999992
 31
70.755589999999984
 12
1.0
 22
-471.29739999999993
 32
71.34138999999999
 13
0.0
 23
-471.29739999999993
 33
71.34138999999999
  0
3DFACE
  5
D5
  8
METALICA
 10
1.0
 20
-471.29739999999993
 30
71.34138999999999
 11
0.0
 21
-471.29739999999993
 31
71.34138999999999
 12
0.0
 22
-470.71159999999998
 32
72.755589999999984
 13
1.0
 23
-470.71159999999998
 33
72.755589999999984
  0
3DFACE
  5
D6
  8
METALICA
 10
1.0
 20
-500.0
 30
68.755589999999984
 11
0.0
 21
-500.0
 31
68.755589999999984
 12
0.0
 22
-500.0
 32
0.0
 13
1.0
 23
-500.0
 33
0.0
  0
3DFACE
  5
D7
  8
METALICA
 10
1.0
 20
0.0
 30
68.755589999999984
 11
0.0
 21
0.0
 31
68.755589999999984
 12
0.0
 22
-0.5857899999999994
 32
70.169790000000006
 13
1.0
 23
-0.5857899999999994
 33
70.169790000000006
  0
3DFACE
  5
D8
  8
METALICA
 10
0.0
 20
-0.5857899999999994
 30
70.169790000000006
 11
1.0
 21
-0.5857899999999994
 31
70.169790000000006
 12
1.0
 22
-2.0
 32
70.755589999999984
 13
0.0
 23
-2.0
 33
70.755589999999984
  0
3DFACE
  5
D9
  8
METALICA
 10
1.0
 20
-29.28838
 30
72.755589999999984
 11
0.0
 21
-29.28838
 31
72.755589999999984
 12
0.0
 22
-29.28838
 32
79.377790000000005
 13
1.0
 23
-29.28838
 33
79.645790000000005
  0
3DFACE
  5
DA
  8
METALICA
 10
0.0
 20
-29.28838
 30
79.377790000000005
 11
1.0
 21
-29.28838
 31
79.645790000000005
 12
-1.9226499999999991
 22
-29.28838
 32
84.707889999999992
 13
-2.5
 23
-29.28838
 33
83.707890000000006
  0
3DFACE
  5
DB
  8
METALICA
 10
-1.9226499999999991
 20
-29.28838
 30
84.707889999999992
 11
-2.5
 21
-29.28838
 31
83.707890000000006
 12
-7.5
 22
-29.28838
 32
83.707890000000006
 13
-8.0773510000000002
 23
-29.28838
 33
84.707889999999992
  0
3DFACE
  5
DC
  8
METALICA
 10
-7.5
 20
-29.28838
 30
83.707890000000006
 11
-8.0773510000000002
 21
-29.28838
 31
84.707889999999992
 12
-11.0
 22
-29.28838
 32
79.645790000000005
 13
-10.0
 23
-29.28838
 33
79.377790000000005
  0
3DFACE
  5
DD
  8
METALICA
 10
-11.0
 20
-29.28838
 30
79.645790000000005
 11
-10.0
 21
-29.28838
 31
79.377790000000005
 12
-10.0
 22
-29.28838
 32
75.047689999999989
 13
-11.0
 23
-29.28838
 33
75.047689999999989
  0
3DFACE
  5
DE
  8
METALICA
 10
1.0
 20
-470.71159999999998
 30
72.755589999999984
 11
0.0
 21
-470.71159999999998
 31
72.755589999999984
 12
0.0
 22
-470.71159999999998
 32
79.377790000000005
 13
1.0
 23
-470.71159999999998
 33
79.645790000000005
  0
3DFACE
  5
DF
  8
METALICA
 10
0.0
 20
-470.71159999999998
 30
79.377790000000005
 11
1.0
 21
-470.71159999999998
 31
79.645790000000005
 12
-1.9226499999999991
 22
-470.71159999999998
 32
84.707889999999992
 13
-2.5
 23
-470.71159999999998
 33
83.707890000000006
  0
3DFACE
  5
E0
  8
METALICA
 10
-1.9226499999999991
 20
-470.71159999999998
 30
84.707889999999992
 11
-2.5
 21
-470.71159999999998
 31
83.707890000000006
 12
-7.5
 22
-470.71159999999998
 32
83.707890000000006
 13
-8.0773510000000002
 23
-470.71159999999998
 33
84.707889999999992
  0
3DFACE
  5
E1
  8
METALICA
 10
-7.5
 20
-470.71159999999998
 30
83.707890000000006
 11
-8.0773510000000002
 21
-470.71159999999998
 31
84.707889999999992
 12
-11.0
 22
-470.71159999999998
 32
79.645790000000005
 13
-10.0
 23
-470.71159999999998
 33
79.377790000000005
  0
3DFACE
  5
E2
  8
METALICA
 10
-11.0
 20
-470.71159999999998
 30
79.645790000000005
 11
-10.0
 21
-470.71159999999998
 31
79.377790000000005
 12
-10.0
 22
-470.71159999999998
 32
75.047689999999989
 13
-11.0
 23
-470.71159999999998
 33
75.047689999999989
  0
3DFACE
  5
E3
  8
METALICA
 10
-1.9226499999999991
 20
-470.71159999999998
 30
84.707889999999992
 11
-8.0773510000000002
 21
-470.71159999999998
 31
84.707889999999992
 12
-8.0773510000000002
 22
-29.28838
 32
84.707889999999992
 13
-1.9226499999999991
 23
-29.28838
 33
84.707889999999992
  0
3DFACE
  5
E4
  8
METALICA
 10
1.0
 20
-470.71159999999998
 30
79.645790000000005
 11
-1.9226499999999991
 21
-470.71159999999998
 31
84.707889999999992
 12
-1.9226499999999991
 22
-29.28838
 32
84.707889999999992
 13
1.0
 23
-29.28838
 33
79.645790000000005
  0
3DFACE
  5
E5
  8
METALICA
 10
1.0
 20
-29.28838
 30
72.755589999999984
 11
1.0
 21
-29.28838
 31
79.645790000000005
 12
1.0
 22
-470.71159999999998
 32
79.645790000000005
 13
1.0
 23
-470.71159999999998
 33
72.755589999999984
  0
3DFACE
  5
E6
  8
METALICA
 10
-8.0773510000000002
 20
-29.28838
 30
84.707889999999992
 11
-11.0
 21
-29.28838
 31
79.645790000000005
 12
-11.0
 22
-470.71159999999998
 32
79.645790000000005
 13
-8.0773510000000002
 23
-470.71159999999998
 33
84.707889999999992
  0
3DFACE
  5
E7
  8
METALICA
 10
-11.0
 20
-470.71159999999998
 30
79.645790000000005
 11
-11.0
 21
-470.71159999999998
 31
75.047689999999989
 12
-11.0
 22
-29.28838
 32
75.047689999999989
 13
-11.0
 23
-29.28838
 33
79.645790000000005
  0
ENDSEC
  0
EOF
