  0
SECTION
  2
HEADER
  9
$ACADVER
  1
AC1009
  9
$DWGCODEPAGE
  3
ansi_1252
  9
$INSBASE
 10
0.0
 20
0.0
 30
0.0
  9
$EXTMIN
 10
-115.0
 20
-23.02677917480473
 30
-21.39980041089832
  9
$EXTMAX
 10
349.8843329815438
 20
0.0
 30
80.77501785729919
  9
$LIMMIN
 10
0.0
 20
0.0
  9
$LIMMAX
 10
12.0
 20
9.0
  9
$ORTHOMODE
 70
     1
  9
$REGENMODE
 70
     1
  9
$FILLMODE
 70
     1
  9
$QTEXTMODE
 70
     0
  9
$MIRRTEXT
 70
     1
  9
$DRAGMODE
 70
     2
  9
$LTSCALE
 40
1.0
  9
$OSMODE
 70
    37
  9
$ATTMODE
 70
     1
  9
$TEXTSIZE
 40
0.2
  9
$TRACEWID
 40
0.05
  9
$TEXTSTYLE
  7
STANDARD
  9
$CLAYER
  8
0
  9
$CELTYPE
  6
BYLAYER
  9
$CECOLOR
 62
   256
  9
$DIMSCALE
 40
1.0
  9
$DIMASZ
 40
0.18
  9
$DIMEXO
 40
0.0625
  9
$DIMDLI
 40
0.38
  9
$DIMRND
 40
0.0
  9
$DIMDLE
 40
0.0
  9
$DIMEXE
 40
0.18
  9
$DIMTP
 40
0.0
  9
$DIMTM
 40
0.0
  9
$DIMTXT
 40
0.18
  9
$DIMCEN
 40
0.09
  9
$DIMTSZ
 40
0.0
  9
$DIMTOL
 70
     0
  9
$DIMLIM
 70
     0
  9
$DIMTIH
 70
     1
  9
$DIMTOH
 70
     1
  9
$DIMSE1
 70
     0
  9
$DIMSE2
 70
     0
  9
$DIMTAD
 70
     0
  9
$DIMZIN
 70
     0
  9
$DIMBLK
  1

  9
$DIMASO
 70
     1
  9
$DIMSHO
 70
     1
  9
$DIMPOST
  1

  9
$DIMAPOST
  1

  9
$DIMALT
 70
     0
  9
$DIMALTD
 70
     2
  9
$DIMALTF
 40
25.4
  9
$DIMLFAC
 40
1.0
  9
$DIMTOFL
 70
     0
  9
$DIMTVP
 40
0.0
  9
$DIMTIX
 70
     0
  9
$DIMSOXD
 70
     0
  9
$DIMSAH
 70
     0
  9
$DIMBLK1
  1

  9
$DIMBLK2
  1

  9
$DIMSTYLE
  2
STANDARD
  9
$DIMCLRD
 70
     0
  9
$DIMCLRE
 70
     0
  9
$DIMCLRT
 70
     0
  9
$DIMTFAC
 40
1.0
  9
$DIMGAP
 40
0.09
  9
$LUNITS
 70
     2
  9
$LUPREC
 70
     3
  9
$SKETCHINC
 40
0.1
  9
$FILLETRAD
 40
0.5
  9
$AUNITS
 70
     0
  9
$AUPREC
 70
     0
  9
$MENU
  1
.
  9
$ELEVATION
 40
0.0
  9
$PELEVATION
 40
0.0
  9
$THICKNESS
 40
0.0
  9
$LIMCHECK
 70
     0
  9
$CHAMFERA
 40
0.5
  9
$CHAMFERB
 40
0.5
  9
$SKPOLY
 70
     0
  9
$TDCREATE
 40
2456503.589308565
  9
$TDUPDATE
 40
2456503.589308611
  9
$TDINDWG
 40
0.0006365625
  9
$TDUSRTIMER
 40
0.0006365625
  9
$USRTIMER
 70
     1
  9
$ANGBASE
 50
0.0
  9
$ANGDIR
 70
     0
  9
$PDMODE
 70
     0
  9
$PDSIZE
 40
0.0
  9
$PLINEWID
 40
0.0
  9
$COORDS
 70
     1
  9
$SPLFRAME
 70
     0
  9
$SPLINETYPE
 70
     6
  9
$SPLINESEGS
 70
     8
  9
$ATTDIA
 70
     0
  9
$ATTREQ
 70
     1
  9
$HANDLING
 70
     1
  9
$HANDSEED
  5
344
  9
$SURFTAB1
 70
     6
  9
$SURFTAB2
 70
     6
  9
$SURFTYPE
 70
     6
  9
$SURFU
 70
     6
  9
$SURFV
 70
     6
  9
$UCSNAME
  2

  9
$UCSORG
 10
0.0
 20
0.0
 30
0.0
  9
$UCSXDIR
 10
0.0
 20
1.0
 30
0.0
  9
$UCSYDIR
 10
0.0
 20
0.0
 30
1.0
  9
$PUCSNAME
  2

  9
$PUCSORG
 10
0.0
 20
0.0
 30
0.0
  9
$PUCSXDIR
 10
1.0
 20
0.0
 30
0.0
  9
$PUCSYDIR
 10
0.0
 20
1.0
 30
0.0
  9
$USERI1
 70
     0
  9
$USERI2
 70
     0
  9
$USERI3
 70
     0
  9
$USERI4
 70
     0
  9
$USERI5
 70
     0
  9
$USERR1
 40
0.0
  9
$USERR2
 40
0.0
  9
$USERR3
 40
0.0
  9
$USERR4
 40
0.0
  9
$USERR5
 40
0.0
  9
$WORLDVIEW
 70
     1
  9
$SHADEDGE
 70
     3
  9
$SHADEDIF
 70
    70
  9
$TILEMODE
 70
     1
  9
$MAXACTVP
 70
    64
  9
$PLIMCHECK
 70
     0
  9
$PEXTMIN
 10
1.000000000000000E+20
 20
1.000000000000000E+20
 30
1.000000000000000E+20
  9
$PEXTMAX
 10
-1.000000000000000E+20
 20
-1.000000000000000E+20
 30
-1.000000000000000E+20
  9
$PLIMMIN
 10
0.0
 20
0.0
  9
$PLIMMAX
 10
12.0
 20
9.0
  9
$UNITMODE
 70
     0
  9
$VISRETAIN
 70
     1
  9
$PLINEGEN
 70
     0
  9
$PSLTSCALE
 70
     1
  0
ENDSEC
  0
SECTION
  2
TABLES
  0
TABLE
  2
VPORT
 70
     1
  0
VPORT
  2
*ACTIVE
 70
     0
 10
0.0
 20
0.0
 11
1.0
 21
1.0
 12
91.18534817455911
 22
67.48507310014185
 13
0.0
 23
0.0
 14
0.5
 24
0.5
 15
0.5
 25
0.5
 16
-1.0
 26
-1.0
 36
1.0
 17
0.0
 27
0.0
 37
0.0
 40
360.3331906915342
 41
9.162240320705834
 42
50.0
 43
0.0
 44
0.0
 50
0.0
 51
0.0
 71
    16
 72
   100
 73
     0
 74
     1
 75
     0
 76
     0
 77
     0
 78
     0
  0
ENDTAB
  0
TABLE
  2
LTYPE
 70
     1
  0
LTYPE
  2
CONTINUOUS
 70
     0
  3
Solid line
 72
    65
 73
     0
 40
0.0
  0
ENDTAB
  0
TABLE
  2
LAYER
 70
     2
  0
LAYER
  2
0
 70
     0
 62
     7
  6
CONTINUOUS
  0
LAYER
  2
METAL
 70
     0
 62
   150
  6
CONTINUOUS
  0
ENDTAB
  0
TABLE
  2
STYLE
 70
     1
  0
STYLE
  2
STANDARD
 70
     0
 40
0.0
 41
1.0
 50
0.0
 71
     0
 42
0.2
  3
txt
  4

  0
ENDTAB
  0
TABLE
  2
VIEW
 70
     0
  0
ENDTAB
  0
TABLE
  2
UCS
 70
     0
  0
ENDTAB
  0
TABLE
  2
APPID
 70
     1
  0
APPID
  2
ACAD
 70
     0
  0
ENDTAB
  0
TABLE
  2
DIMSTYLE
 70
     1
  0
DIMSTYLE
  2
STANDARD
 70
     0
  3

  4

  5

  6

  7

 40
1.0
 41
0.18
 42
0.0625
 43
0.38
 44
0.18
 45
0.0
 46
0.0
 47
0.0
 48
0.0
140
0.18
141
0.09
142
0.0
143
25.4
144
1.0
145
0.0
146
1.0
147
0.09
 71
     0
 72
     0
 73
     1
 74
     1
 75
     0
 76
     0
 77
     0
 78
     0
170
     0
171
     2
172
     0
173
     0
174
     0
175
     0
176
     0
177
     0
178
     0
  0
ENDTAB
  0
ENDSEC
  0
SECTION
  2
BLOCKS
  0
BLOCK
  8
0
  2
$MODEL_SPACE
 70
     0
 10
0.0
 20
0.0
 30
0.0
  3
$MODEL_SPACE
  1

  0
ENDBLK
  5
21
  8
0
  0
BLOCK
 67
     1
  8
0
  2
$PAPER_SPACE
 70
     0
 10
0.0
 20
0.0
 30
0.0
  3
$PAPER_SPACE
  1

  0
ENDBLK
  5
76
 67
     1
  8
0
  0
ENDSEC
  0
SECTION
  2
ENTITIES
  0
POLYLINE
  5
3C
  8
METAL
 66
     1
 10
0.0
 20
0.0
 30
0.0
 70
    64
 71
   396
 72
   299
  0
VERTEX
  5
3D
  8
METAL
 10
115.159696161747
 20
-0.0015106201171893
 30
3.720660099355584
 70
   192
  0
VERTEX
  5
3E
  8
METAL
 10
115.159696161747
 20
-0.0015106201171893
 30
3.720660099355584
 70
   192
  0
VERTEX
  5
3F
  8
METAL
 10
115.159696161747
 20
-0.0015106201171893
 30
3.720660099355584
 70
   192
  0
VERTEX
  5
40
  8
METAL
 10
115.1596941947937
 20
-6.097206115722658
 30
3.584456333486454
 70
   192
  0
VERTEX
  5
41
  8
METAL
 10
115.1596941947937
 20
-6.097206115722658
 30
3.584456333486454
 70
   192
  0
VERTEX
  5
42
  8
METAL
 10
115.1596941947937
 20
-6.795516967773439
 30
3.525347599355584
 70
   192
  0
VERTEX
  5
43
  8
METAL
 10
115.1596941947937
 20
-6.795516967773439
 30
3.525347599355584
 70
   192
  0
VERTEX
  5
44
  8
METAL
 10
115.1596941947937
 20
-3.030670166015627
 30
3.445910343496216
 70
   192
  0
VERTEX
  5
45
  8
METAL
 10
115.1596941947937
 20
-3.030670166015627
 30
3.445910343496216
 70
   192
  0
VERTEX
  5
46
  8
METAL
 10
115.1596941947937
 20
-7.405822753906252
 30
3.440417179433716
 70
   192
  0
VERTEX
  5
47
  8
METAL
 10
115.1596941947937
 20
-7.405822753906252
 30
3.440417179433716
 70
   192
  0
VERTEX
  5
48
  8
METAL
 10
115.1596941947937
 20
-5.062561035156252
 30
3.400507816640744
 70
   192
  0
VERTEX
  5
49
  8
METAL
 10
115.1596941947937
 20
-5.062561035156252
 30
3.400507816640744
 70
   192
  0
VERTEX
  5
4A
  8
METAL
 10
115.1596941947937
 20
-7.928115844726564
 30
3.329661259023563
 70
   192
  0
VERTEX
  5
4B
  8
METAL
 10
115.1596941947937
 20
-7.928115844726564
 30
3.329661259023563
 70
   192
  0
VERTEX
  5
4C
  8
METAL
 10
115.1596931815147
 20
-0.0005722045898438
 30
-3.968003383310425
 70
   192
  0
VERTEX
  5
4D
  8
METAL
 10
115.1596931815147
 20
-0.0005722045898438
 30
-3.968003383310425
 70
   192
  0
VERTEX
  5
4E
  8
METAL
 10
114.9718921780586
 20
-7.180976867675782
 30
-0.1547785908299559
 70
   192
  0
VERTEX
  5
4F
  8
METAL
 10
114.9718921780586
 20
-7.180976867675782
 30
-0.1547785908299559
 70
   192
  0
VERTEX
  5
50
  8
METAL
 10
114.9475011825561
 20
-7.743873596191407
 30
0.0758999675196641
 70
   192
  0
VERTEX
  5
51
  8
METAL
 10
114.9475011825561
 20
-7.743873596191407
 30
0.0758999675196641
 70
   192
  0
VERTEX
  5
52
  8
METAL
 10
114.8887581825256
 20
-8.373863220214846
 30
0.1913250773829347
 70
   192
  0
VERTEX
  5
53
  8
METAL
 10
114.8887581825256
 20
-8.373863220214846
 30
0.1913250773829347
 70
   192
  0
VERTEX
  5
54
  8
METAL
 10
114.8828901648521
 20
-6.893463134765626
 30
-0.733254542978397
 70
   192
  0
VERTEX
  5
55
  8
METAL
 10
114.8828901648521
 20
-6.893463134765626
 30
-0.733254542978397
 70
   192
  0
VERTEX
  5
56
  8
METAL
 10
114.8075382113456
 20
-6.68706512451172
 30
-1.200535884531124
 70
   192
  0
VERTEX
  5
57
  8
METAL
 10
114.8075382113456
 20
-6.68706512451172
 30
-1.200535884531124
 70
   192
  0
VERTEX
  5
58
  8
METAL
 10
114.7956681847572
 20
-9.070930480957033
 30
0.1914967387598843
 70
   192
  0
VERTEX
  5
301
  8
METAL
 10
114.7956681847572
 20
-9.070930480957033
 30
0.1914967387598843
 70
   192
  0
VERTEX
  5
302
  8
METAL
 10
114.7458372116089
 20
-6.561805725097657
 30
-1.556634059579956
 70
   192
  0
VERTEX
  5
5B
  8
METAL
 10
114.7458372116089
 20
-6.561805725097657
 30
-1.556634059579956
 70
   192
  0
VERTEX
  5
5C
  8
METAL
 10
114.6635261774063
 20
-6.434753417968751
 30
-2.007386317880727
 70
   192
  0
VERTEX
  5
5D
  8
METAL
 10
114.6635261774063
 20
-6.434753417968751
 30
-2.007386317880727
 70
   192
  0
VERTEX
  5
303
  8
METAL
 10
114.0753181874752
 20
-13.51760101318362
 30
1.770422825185666
 70
   192
  0
VERTEX
  5
5F
  8
METAL
 10
114.0753181874752
 20
-13.51760101318362
 30
1.770422825185666
 70
   192
  0
VERTEX
  5
60
  8
METAL
 10
114.073716185987
 20
-12.78023529052733
 30
-0.8363314777928359
 70
   192
  0
VERTEX
  5
61
  8
METAL
 10
114.073716185987
 20
-12.78023529052733
 30
-0.8363314777928359
 70
   192
  0
VERTEX
  5
62
  8
METAL
 10
114.0681001842022
 20
-5.515670776367188
 30
-5.268113246591675
 70
   192
  0
VERTEX
  5
63
  8
METAL
 10
114.0681001842022
 20
-5.515670776367188
 30
-5.268113246591675
 70
   192
  0
VERTEX
  5
64
  8
METAL
 10
114.0182761847973
 20
-6.454772949218751
 30
-2.031300655038937
 70
   192
  0
VERTEX
  5
65
  8
METAL
 10
114.011405184865
 20
-6.586875915527345
 30
-1.583214870126834
 70
   192
  0
VERTEX
  5
66
  8
METAL
 10
114.0095251798629
 20
-9.105133056640627
 30
0.1547192424219936
 70
   192
  0
VERTEX
  5
67
  8
METAL
 10
114.0062891840934
 20
-6.716209411621095
 30
-1.229374995859256
 70
   192
  0
VERTEX
  5
68
  8
METAL
 10
114.0010091811418
 20
-8.412498474121096
 30
0.1527050822657436
 70
   192
  0
VERTEX
  5
69
  8
METAL
 10
114.0000991821289
 20
-6.92784881591797
 30
-0.7655116230565255
 70
   192
  0
VERTEX
  5
6A
  8
METAL
 10
113.9954481869936
 20
-7.784797668457032
 30
0.037314304677853
 70
   192
  0
VERTEX
  5
304
  8
METAL
 10
113.9928461909294
 20
-7.22197723388672
 30
-0.1918307453709751
 70
   192
  0
VERTEX
  5
305
  8
METAL
 10
112.7467721700668
 20
-8.061187744140627
 30
3.208067783681773
 70
   192
  0
VERTEX
  5
6D
  8
METAL
 10
112.6317591667175
 20
-7.558105468750002
 30
3.314066776601685
 70
   192
  0
VERTEX
  5
6E
  8
METAL
 10
112.5406692028045
 20
-0.0006103515625
 30
-3.968499293954956
 70
   192
  0
VERTEX
  5
6F
  8
METAL
 10
112.5076801776886
 20
-6.963577270507814
 30
3.397284397451294
 70
   192
  0
VERTEX
  5
70
  8
METAL
 10
112.4507352113723
 20
-0.0015106201171893
 30
3.662501224843876
 70
   192
  0
VERTEX
  5
71
  8
METAL
 10
112.4507352113723
 20
-0.0015106201171893
 30
3.662501224843876
 70
   192
  0
VERTEX
  5
72
  8
METAL
 10
112.4022991657257
 20
-3.128990173339846
 30
3.354502567617306
 70
   192
  0
VERTEX
  5
306
  8
METAL
 10
112.3769001960754
 20
-5.221023559570314
 30
3.286246189443474
 70
   192
  0
VERTEX
  5
307
  8
METAL
 10
112.3745381832123
 20
-6.277610778808596
 30
3.457728275625115
 70
   192
  0
VERTEX
  5
308
  8
METAL
 10
110.822190284729
 20
-17.82221221923832
 30
0.3153447001856655
 70
   192
  0
VERTEX
  5
309
  8
METAL
 10
110.822190284729
 20
-17.82221221923832
 30
0.3153447001856655
 70
   192
  0
VERTEX
  5
77
  8
METAL
 10
110.8157792091369
 20
-17.05523681640622
 30
-2.251958003671756
 70
   192
  0
VERTEX
  5
78
  8
METAL
 10
110.8157792091369
 20
-17.05523681640622
 30
-2.251958003671756
 70
   192
  0
VERTEX
  5
79
  8
METAL
 10
110.7953991889953
 20
-0.001220703125
 30
-9.106125941904166
 70
   192
  0
VERTEX
  5
7A
  8
METAL
 10
110.7953991889953
 20
-0.001220703125
 30
-9.106125941904166
 70
   192
  0
VERTEX
  5
7B
  8
METAL
 10
110.7933211326599
 20
-4.176612854003905
 30
-9.820223918588745
 70
   192
  0
VERTEX
  5
7C
  8
METAL
 10
110.7933211326599
 20
-4.176612854003905
 30
-9.820223918588745
 70
   192
  0
VERTEX
  5
7D
  8
METAL
 10
110.6792511940002
 20
-6.558395385742188
 30
-2.155053249033084
 70
   192
  0
VERTEX
  5
7E
  8
METAL
 10
110.6731541156769
 20
-9.250267028808594
 30
-0.0013590962010461
 70
   192
  0
VERTEX
  5
7F
  8
METAL
 10
110.6725680828094
 20
-6.700851440429688
 30
-1.704049220712776
 70
   192
  0
VERTEX
  5
80
  8
METAL
 10
110.6676342487335
 20
-6.837654113769532
 30
-1.349534145029175
 70
   192
  0
VERTEX
  5
81
  8
METAL
 10
110.6641001701355
 20
-8.5577392578125
 30
0.0075405925196641
 70
   192
  0
VERTEX
  5
82
  8
METAL
 10
110.6617431640625
 20
-7.057899475097657
 30
-0.8875056416112059
 70
   192
  0
VERTEX
  5
83
  8
METAL
 10
110.6580131053924
 20
-7.928253173828126
 30
-0.0979434162694162
 70
   192
  0
VERTEX
  5
84
  8
METAL
 10
110.6548991203308
 20
-7.361755371093751
 30
-0.3181582600194162
 70
   192
  0
VERTEX
  5
85
  8
METAL
 10
108.8011360168457
 20
-8.278785705566408
 30
3.009234318105584
 70
   192
  0
VERTEX
  5
86
  8
METAL
 10
108.7053790092468
 20
-7.793815612792971
 30
3.117594608632935
 70
   192
  0
VERTEX
  5
87
  8
METAL
 10
108.6227440834045
 20
-0.00067138671875
 30
-3.969235530527225
 70
   192
  0
VERTEX
  5
88
  8
METAL
 10
108.5999283790588
 20
-7.210739135742189
 30
3.208098301259884
 70
   192
  0
VERTEX
  5
89
  8
METAL
 10
108.5466589927673
 20
-0.0015258789062518
 30
3.581637272207164
 70
   192
  0
VERTEX
  5
8A
  8
METAL
 10
108.5466589927673
 20
-0.0015258789062518
 30
3.581637272207164
 70
   192
  0
VERTEX
  5
8B
  8
METAL
 10
108.5059671401977
 20
-3.265785217285158
 30
3.227351078359494
 70
   192
  0
VERTEX
  5
8C
  8
METAL
 10
108.4853420257568
 20
-5.441802978515627
 30
3.127051243154416
 70
   192
  0
VERTEX
  5
8D
  8
METAL
 10
108.4847860336303
 20
-6.529563903808596
 30
3.280741581289185
 70
   192
  0
VERTEX
  5
8E
  8
METAL
 10
105.4003057479858
 20
-20.84194183349612
 30
-1.035573115976444
 70
   192
  0
VERTEX
  5
8F
  8
METAL
 10
105.4003057479858
 20
-20.84194183349612
 30
-1.035573115976444
 70
   192
  0
VERTEX
  5
90
  8
METAL
 10
105.3858833312988
 20
-20.02562713623043
 30
-3.537121883066284
 70
   192
  0
VERTEX
  5
91
  8
METAL
 10
105.3858833312988
 20
-20.02562713623043
 30
-3.537121883066284
 70
   192
  0
VERTEX
  5
30A
  8
METAL
 10
105.3491535186767
 20
-3.185958862304686
 30
-12.93867217603503
 70
   192
  0
VERTEX
  5
30B
  8
METAL
 10
105.3491535186767
 20
-3.185958862304686
 30
-12.93867217603503
 70
   192
  0
VERTEX
  5
94
  8
METAL
 10
105.3400382995605
 20
-0.0011596679687482
 30
-12.18655883374988
 70
   192
  0
VERTEX
  5
95
  8
METAL
 10
105.3400382995605
 20
-0.0011596679687482
 30
-12.18655883374988
 70
   192
  0
VERTEX
  5
96
  8
METAL
 10
105.3364477157592
 20
-2.439758300781248
 30
-12.76896010938464
 70
   192
  0
VERTEX
  5
30C
  8
METAL
 10
105.3353548049926
 20
-3.183448791503904
 30
-12.94657622876941
 70
   192
  0
VERTEX
  5
30D
  8
METAL
 10
105.3353548049926
 20
-3.183448791503904
 30
-12.94657622876941
 70
   192
  0
VERTEX
  5
99
  8
METAL
 10
105.1943626403808
 20
-6.728599548339845
 30
-2.358334651620975
 70
   192
  0
VERTEX
  5
9A
  8
METAL
 10
105.1898155212402
 20
-9.488800048828125
 30
-0.2578784138280064
 70
   192
  0
VERTEX
  5
9B
  8
METAL
 10
105.1877822875976
 20
-6.888076782226563
 30
-1.902550807626834
 70
   192
  0
VERTEX
  5
9C
  8
METAL
 10
105.1829624176025
 20
-7.037147521972657
 30
-1.546925655038937
 70
   192
  0
VERTEX
  5
9D
  8
METAL
 10
105.1804943084717
 20
-8.796409606933594
 30
-0.2310153156834751
 70
   192
  0
VERTEX
  5
9E
  8
METAL
 10
105.1772756576538
 20
-7.271545410156251
 30
-1.087926021249885
 70
   192
  0
VERTEX
  5
9F
  8
METAL
 10
105.174129486084
 20
-8.163963317871094
 30
-0.3201914936619765
 70
   192
  0
VERTEX
  5
A0
  8
METAL
 10
105.1707248687744
 20
-7.591415405273438
 30
-0.5257121235447961
 70
   192
  0
VERTEX
  5
A1
  8
METAL
 10
103.3869762420654
 20
-8.577362060546877
 30
2.736407169668084
 70
   192
  0
VERTEX
  5
A2
  8
METAL
 10
103.3170537948608
 20
-8.117286682128908
 30
2.847975620595825
 70
   192
  0
VERTEX
  5
A3
  8
METAL
 10
103.2497463226318
 20
-0.0007553100585938
 30
-3.970250239999885
 70
   192
  0
VERTEX
  5
A4
  8
METAL
 10
103.2377624511718
 20
-7.549888610839846
 30
2.948496708242306
 70
   192
  0
VERTEX
  5
A5
  8
METAL
 10
103.1928062438965
 20
-0.001533508300783
 30
3.470751652089966
 70
   192
  0
VERTEX
  5
A6
  8
METAL
 10
103.1928062438965
 20
-0.001533508300783
 30
3.470751652089966
 70
   192
  0
VERTEX
  5
A7
  8
METAL
 10
103.1626415252685
 20
-3.453392028808596
 30
3.052977451650523
 70
   192
  0
VERTEX
  5
A8
  8
METAL
 10
103.1491041183471
 20
-6.875167846679689
 30
3.037966617910275
 70
   192
  0
VERTEX
  5
A9
  8
METAL
 10
103.1480731964111
 20
-5.744598388671877
 30
2.908717045156376
 70
   192
  0
VERTEX
  5
AA
  8
METAL
 10
97.80967330932609
 20
-22.57679748535152
 30
-2.282334437997925
 70
   192
  0
VERTEX
  5
AB
  8
METAL
 10
97.80967330932609
 20
-22.57679748535152
 30
-2.282334437997925
 70
   192
  0
VERTEX
  5
AC
  8
METAL
 10
97.7840347290039
 20
-21.69139862060543
 30
-4.691823115976444
 70
   192
  0
VERTEX
  5
AD
  8
METAL
 10
97.7840347290039
 20
-21.69139862060543
 30
-4.691823115976444
 70
   192
  0
VERTEX
  5
AE
  8
METAL
 10
97.7025337219238
 20
-0.0012817382812482
 30
-13.82285796705066
 70
   192
  0
VERTEX
  5
AF
  8
METAL
 10
97.7025337219238
 20
-0.0012817382812482
 30
-13.82285796705066
 70
   192
  0
VERTEX
  5
B0
  8
METAL
 10
97.6942024230957
 20
-2.536178588867186
 30
-14.64716445508777
 70
   192
  0
VERTEX
  5
B1
  8
METAL
 10
97.6942024230957
 20
-2.536178588867186
 30
-14.64716445508777
 70
   192
  0
VERTEX
  5
B2
  8
METAL
 10
97.5384292602539
 20
-9.821640014648438
 30
-0.6158190876561243
 70
   192
  0
VERTEX
  5
B3
  8
METAL
 10
97.5350952148437
 20
-6.966285705566407
 30
-2.642201533945194
 70
   192
  0
VERTEX
  5
B4
  8
METAL
 10
97.52914428710929
 20
-7.149505615234376
 30
-2.179726710947147
 70
   192
  0
VERTEX
  5
B5
  8
METAL
 10
97.52755165100089
 20
-9.129501342773438
 30
-0.5639468342381662
 70
   192
  0
VERTEX
  5
B6
  8
METAL
 10
97.52490234375
 20
-7.315704345703126
 30
-1.822537532480336
 70
   192
  0
VERTEX
  5
B7
  8
METAL
 10
97.52011108398429
 20
-7.569831848144532
 30
-1.367741695078006
 70
   192
  0
VERTEX
  5
B8
  8
METAL
 10
97.5196647644043
 20
-8.492965698242188
 30
-0.6304064899998849
 70
   192
  0
VERTEX
  5
B9
  8
METAL
 10
97.5147724151611
 20
-7.912010192871095
 30
-0.8154612690526157
 70
   192
  0
VERTEX
  5
BA
  8
METAL
 10
96.3825817108154
 20
-8.963645935058596
 30
2.383433231679806
 70
   192
  0
VERTEX
  5
BB
  8
METAL
 10
96.34138488769531
 20
-8.536079406738283
 30
2.498927006093876
 70
   192
  0
VERTEX
  5
BC
  8
METAL
 10
96.2933292388916
 20
-0.0008697509765625
 30
-3.971558681161977
 70
   192
  0
VERTEX
  5
BD
  8
METAL
 10
96.29270553588859
 20
-7.989166259765627
 30
2.612265476552853
 70
   192
  0
VERTEX
  5
BE
  8
METAL
 10
96.2594051361084
 20
-0.0015487670898455
 30
3.327113041250115
 70
   192
  0
VERTEX
  5
BF
  8
METAL
 10
96.2594051361084
 20
-0.0015487670898455
 30
3.327113041250115
 70
   192
  0
VERTEX
  5
C0
  8
METAL
 10
96.24178314208979
 20
-3.696411132812502
 30
2.827090153066525
 70
   192
  0
VERTEX
  5
C1
  8
METAL
 10
96.23654174804679
 20
-7.322921752929689
 30
2.723444828359494
 70
   192
  0
VERTEX
  5
C2
  8
METAL
 10
96.2341613769531
 20
-6.136871337890627
 30
2.625868687002075
 70
   192
  0
VERTEX
  5
C3
  8
METAL
 10
88.05029106140131
 20
-23.02677917480473
 30
-3.424935451181526
 70
   192
  0
VERTEX
  5
C4
  8
METAL
 10
88.05029106140131
 20
-23.02677917480473
 30
-3.424935451181526
 70
   192
  0
VERTEX
  5
C5
  8
METAL
 10
88.01022911071769
 20
-22.05256652832033
 30
-5.716061702402225
 70
   192
  0
VERTEX
  5
C6
  8
METAL
 10
88.01022911071769
 20
-22.05256652832033
 30
-5.716061702402225
 70
   192
  0
VERTEX
  5
C7
  8
METAL
 10
87.88288307189941
 20
-0.000968933105467
 30
-14.01503097120105
 70
   192
  0
VERTEX
  5
C8
  8
METAL
 10
87.88288307189941
 20
-0.000968933105467
 30
-14.01503097120105
 70
   192
  0
VERTEX
  5
C9
  8
METAL
 10
87.8698673248291
 20
-2.234809875488279
 30
-14.92199813428698
 70
   192
  0
VERTEX
  5
CA
  8
METAL
 10
87.8698673248291
 20
-2.234809875488279
 30
-14.92199813428698
 70
   192
  0
VERTEX
  5
CB
  8
METAL
 10
87.74165916442871
 20
-10.247802734375
 30
-1.074124446542836
 70
   192
  0
VERTEX
  5
CC
  8
METAL
 10
87.7305908203125
 20
-7.270545959472657
 30
-3.005574336679565
 70
   192
  0
VERTEX
  5
CD
  8
METAL
 10
87.7293586730957
 20
-9.555961608886719
 30
-0.9902011066990859
 70
   192
  0
VERTEX
  5
CE
  8
METAL
 10
87.72530937194821
 20
-7.484169006347657
 30
-2.534539333017456
 70
   192
  0
VERTEX
  5
CF
  8
METAL
 10
87.72167778015131
 20
-7.672286987304688
 30
-2.175355067880727
 70
   192
  0
VERTEX
  5
D0
  8
METAL
 10
87.72004890441889
 20
-8.9141845703125
 30
-1.027562251718624
 70
   192
  0
VERTEX
  5
D1
  8
METAL
 10
87.71782493591309
 20
-7.951683044433595
 30
-1.725945583017456
 70
   192
  0
VERTEX
  5
D2
  8
METAL
 10
87.7137393951416
 20
-8.322441101074219
 30
-1.186390987070194
 70
   192
  0
VERTEX
  5
D3
  8
METAL
 10
86.41930389404291
 20
-9.51310729980469
 30
1.881361851064575
 70
   192
  0
VERTEX
  5
D4
  8
METAL
 10
86.37755012512201
 20
-9.134429931640627
 30
2.000414738027466
 70
   192
  0
VERTEX
  5
D5
  8
METAL
 10
86.3251094818115
 20
-8.61973571777344
 30
2.129824528066525
 70
   192
  0
VERTEX
  5
D6
  8
METAL
 10
86.320837020874
 20
-0.0010223388671875
 30
-3.973439326913937
 70
   192
  0
VERTEX
  5
D7
  8
METAL
 10
86.2840843200683
 20
-0.0015716552734393
 30
3.119715580312615
 70
   192
  0
VERTEX
  5
D8
  8
METAL
 10
86.2840843200683
 20
-0.0015716552734393
 30
3.119715580312615
 70
   192
  0
VERTEX
  5
D9
  8
METAL
 10
86.26528739929199
 20
-4.047271728515627
 30
2.500964054433716
 70
   192
  0
VERTEX
  5
DA
  8
METAL
 10
86.26199150085449
 20
-7.969009399414064
 30
2.269595035879025
 70
   192
  0
VERTEX
  5
DB
  8
METAL
 10
86.2579231262207
 20
-6.703079223632814
 30
2.217593082754025
 70
   192
  0
VERTEX
  5
DC
  8
METAL
 10
69.32776260375971
 20
-0.0010681152343732
 30
-13.11387740674792
 70
   192
  0
VERTEX
  5
DD
  8
METAL
 10
69.32776260375971
 20
-2.016654968261717
 30
-14.17791472974597
 70
   192
  0
VERTEX
  5
DE
  8
METAL
 10
69.32776260375971
 20
-2.016654968261717
 30
-14.17791472974597
 70
   192
  0
VERTEX
  5
DF
  8
METAL
 10
69.3277587890625
 20
-4.642349243164064
 30
1.947863468496216
 70
   192
  0
VERTEX
  5
E0
  8
METAL
 10
69.3277587890625
 20
-7.663780212402346
 30
1.524882206289185
 70
   192
  0
VERTEX
  5
E1
  8
METAL
 10
69.3277587890625
 20
-9.704727172851562
 30
-1.772957912119026
 70
   192
  0
VERTEX
  5
E2
  8
METAL
 10
69.3277587890625
 20
-10.35688018798828
 30
-1.790730586679565
 70
   192
  0
VERTEX
  5
E3
  8
METAL
 10
69.3277587890625
 20
-9.092369079589844
 30
-1.882226100595584
 70
   192
  0
VERTEX
  5
E4
  8
METAL
 10
69.3277587890625
 20
-11.04882812500003
 30
-1.935551753671756
 70
   192
  0
VERTEX
  5
E5
  8
METAL
 10
69.3277587890625
 20
-8.668067932128906
 30
-2.397969356210815
 70
   192
  0
VERTEX
  5
E6
  8
METAL
 10
69.3277587890625
 20
-8.341339111328125
 30
-2.837350001962776
 70
   192
  0
VERTEX
  5
E7
  8
METAL
 10
69.3277587890625
 20
-8.1121826171875
 30
-3.200368037851437
 70
   192
  0
VERTEX
  5
E8
  8
METAL
 10
69.3277587890625
 20
-7.841621398925781
 30
-3.687623134286977
 70
   192
  0
VERTEX
  5
E9
  8
METAL
 10
69.3277587890625
 20
-22.69449615478513
 30
-5.307797542245975
 70
   192
  0
VERTEX
  5
EA
  8
METAL
 10
69.3277587890625
 20
-22.69449615478513
 30
-5.307797542245975
 70
   192
  0
VERTEX
  5
EB
  8
METAL
 10
69.3277587890625
 20
-21.55169677734372
 30
-7.365880122812385
 70
   192
  0
VERTEX
  5
EC
  8
METAL
 10
69.3277587890625
 20
-21.55169677734372
 30
-7.365880122812385
 70
   192
  0
VERTEX
  5
ED
  8
METAL
 10
69.32775115966791
 20
-0.0016098022460955
 30
2.768031010000115
 70
   192
  0
VERTEX
  5
EE
  8
METAL
 10
69.32775115966791
 20
-0.0016098022460955
 30
2.768031010000115
 70
   192
  0
VERTEX
  5
EF
  8
METAL
 10
69.32775115966791
 20
-9.065895080566408
 30
1.499083408681773
 70
   192
  0
VERTEX
  5
F0
  8
METAL
 10
69.32775115966791
 20
-9.69487762451172
 30
1.306963810293084
 70
   192
  0
VERTEX
  5
F1
  8
METAL
 10
69.32775115966791
 20
-10.15814208984375
 30
1.147295841543084
 70
   192
  0
VERTEX
  5
F2
  8
METAL
 10
69.32775115966791
 20
-10.45568084716797
 30
1.020075687734494
 70
   192
  0
VERTEX
  5
F3
  8
METAL
 10
69.32775115966791
 20
-0.0012893676757812
 30
-3.976639857919796
 70
   192
  0
VERTEX
  5
F4
  8
METAL
 10
23.49582672119141
 20
-6.226692199707032
 30
0.4983013957423061
 70
   192
  0
VERTEX
  5
F5
  8
METAL
 10
23.49582672119141
 20
-10.20925903320313
 30
-0.3145228535252755
 70
   192
  0
VERTEX
  5
F6
  8
METAL
 10
23.49582672119141
 20
-11.94940185546872
 30
-0.5864230305272251
 70
   192
  0
VERTEX
  5
F7
  8
METAL
 10
23.49582672119141
 20
-12.47622680664063
 30
-0.9309435993748849
 70
   192
  0
VERTEX
  5
F8
  8
METAL
 10
23.49582672119141
 20
-12.82083892822263
 30
-1.165307155283084
 70
   192
  0
VERTEX
  5
F9
  8
METAL
 10
23.49582672119141
 20
-12.98323822021483
 30
-1.289509883554565
 70
   192
  0
VERTEX
  5
FA
  8
METAL
 10
23.49582672119141
 20
-10.95908355712892
 30
-3.531243434579956
 70
   192
  0
VERTEX
  5
FB
  8
METAL
 10
23.49582672119141
 20
-11.57785034179682
 30
-3.599042049081916
 70
   192
  0
VERTEX
  5
FC
  8
METAL
 10
23.49582672119141
 20
-12.19628143310543
 30
-3.799561610849477
 70
   192
  0
VERTEX
  5
FD
  8
METAL
 10
23.49582672119141
 20
-10.402099609375
 30
-3.900624385507694
 70
   192
  0
VERTEX
  5
FE
  8
METAL
 10
23.49582672119141
 20
-12.81438446044922
 30
-4.132798305185425
 70
   192
  0
VERTEX
  5
FF
  8
METAL
 10
23.49582672119141
 20
-9.970985412597656
 30
-4.215329280527225
 70
   192
  0
VERTEX
  5
100
  8
METAL
 10
23.49582672119141
 20
-9.665748596191406
 30
-4.475350490244026
 70
   192
  0
VERTEX
  5
101
  8
METAL
 10
23.49582672119141
 20
-9.302299499511719
 30
-4.824376216562385
 70
   192
  0
VERTEX
  5
102
  8
METAL
 10
23.49582672119141
 20
-21.88107299804682
 30
-9.916966548593626
 70
   192
  0
VERTEX
  5
103
  8
METAL
 10
23.49582672119141
 20
-21.88107299804682
 30
-9.916966548593626
 70
   192
  0
VERTEX
  5
104
  8
METAL
 10
23.49582672119141
 20
-0.0013122558593732
 30
-10.88799773755848
 70
   192
  0
VERTEX
  5
105
  8
METAL
 10
23.49582672119141
 20
-20.32297515869142
 30
-11.41322814527332
 70
   192
  0
VERTEX
  5
106
  8
METAL
 10
23.49582672119141
 20
-20.32297515869142
 30
-11.41322814527332
 70
   192
  0
VERTEX
  5
107
  8
METAL
 10
23.49582672119141
 20
-1.477432250976561
 30
-12.33870994153796
 70
   192
  0
VERTEX
  5
108
  8
METAL
 10
23.49582672119141
 20
-1.477432250976561
 30
-12.33870994153796
 70
   192
  0
VERTEX
  5
109
  8
METAL
 10
23.49581146240229
 20
-0.0017089843750018
 30
1.852053531972775
 70
   192
  0
VERTEX
  5
10A
  8
METAL
 10
23.49581146240229
 20
-0.0017089843750018
 30
1.852053531972775
 70
   192
  0
VERTEX
  5
10B
  8
METAL
 10
23.49581146240229
 20
-0.0019989013671875
 30
-3.984425655038937
 70
   192
  0
VERTEX
  5
10C
  8
METAL
 10
-23.33610534667969
 20
-0.0018157958984393
 30
0.9790333598536343
 70
   192
  0
VERTEX
  5
10D
  8
METAL
 10
-23.33610534667969
 20
-0.0018157958984393
 30
0.9790333598536343
 70
   192
  0
VERTEX
  5
10E
  8
METAL
 10
-23.33610534667969
 20
-7.813438415527345
 30
-0.8878070026951939
 70
   192
  0
VERTEX
  5
10F
  8
METAL
 10
-23.33610534667969
 20
-12.73468780517582
 30
-2.085145106943227
 70
   192
  0
VERTEX
  5
110
  8
METAL
 10
-23.33610534667969
 20
-14.76557159423832
 30
-2.612980952890506
 70
   192
  0
VERTEX
  5
111
  8
METAL
 10
-23.33610534667969
 20
-15.14990997314453
 30
-3.102456203134647
 70
   192
  0
VERTEX
  5
112
  8
METAL
 10
-23.33610534667969
 20
-15.39831542968753
 30
-3.431161037119026
 70
   192
  0
VERTEX
  5
113
  8
METAL
 10
-23.33610534667969
 20
-15.51080322265622
 30
-3.599095454843624
 70
   192
  0
VERTEX
  5
114
  8
METAL
 10
-23.33610534667969
 20
-0.0027313232421875
 30
-3.991379848154175
 70
   192
  0
VERTEX
  5
115
  8
METAL
 10
-23.33610534667969
 20
-12.84802246093753
 30
-5.095189204843624
 70
   192
  0
VERTEX
  5
116
  8
METAL
 10
-23.33610534667969
 20
-12.19763183593753
 30
-5.272488704355336
 70
   192
  0
VERTEX
  5
117
  8
METAL
 10
-23.33610534667969
 20
-13.41148376464842
 30
-5.351067653329956
 70
   192
  0
VERTEX
  5
118
  8
METAL
 10
-23.33610534667969
 20
-11.68463897705082
 30
-5.436993709238166
 70
   192
  0
VERTEX
  5
119
  8
METAL
 10
-23.33610534667969
 20
-11.30905914306642
 30
-5.588708034189334
 70
   192
  0
VERTEX
  5
11A
  8
METAL
 10
-23.33610534667969
 20
-13.93048095703122
 30
-5.732537379892456
 70
   192
  0
VERTEX
  5
11B
  8
METAL
 10
-23.33610534667969
 20
-10.84873199462892
 30
-5.806679835947145
 70
   192
  0
VERTEX
  5
11C
  8
METAL
 10
-23.33610534667969
 20
-14.40501403808592
 30
-6.239602199228395
 70
   192
  0
VERTEX
  5
11D
  8
METAL
 10
-23.33610534667969
 20
-0.001556396484375
 30
-8.662116161020375
 70
   192
  0
VERTEX
  5
11E
  8
METAL
 10
-23.33610534667969
 20
-0.9382095336914062
 30
-10.49950515332996
 70
   192
  0
VERTEX
  5
11F
  8
METAL
 10
-23.33610534667969
 20
-0.9382095336914062
 30
-10.49950515332996
 70
   192
  0
VERTEX
  5
120
  8
METAL
 10
-23.33610534667969
 20
-19.09425354003902
 30
-15.46057235303699
 70
   192
  0
VERTEX
  5
121
  8
METAL
 10
-23.33610534667969
 20
-19.09425354003902
 30
-15.46057235303699
 70
   192
  0
VERTEX
  5
122
  8
METAL
 10
-23.33612060546878
 20
-21.06764221191402
 30
-14.52613364759265
 70
   192
  0
VERTEX
  5
123
  8
METAL
 10
-23.33612060546878
 20
-21.06764221191402
 30
-14.52613364759265
 70
   192
  0
VERTEX
  5
124
  8
METAL
 10
-69.1680450439454
 20
-0.001800537109375
 30
-6.436234584482296
 70
   192
  0
VERTEX
  5
125
  8
METAL
 10
-69.1680450439454
 20
-17.86552429199223
 30
-19.50791846814929
 70
   192
  0
VERTEX
  5
126
  8
METAL
 10
-69.1680450439454
 20
-17.86552429199223
 30
-19.50791846814929
 70
   192
  0
VERTEX
  5
127
  8
METAL
 10
-69.1680603027344
 20
-0.0019226074218768
 30
0.1233776896876151
 70
   192
  0
VERTEX
  5
128
  8
METAL
 10
-69.1680603027344
 20
-0.0019226074218768
 30
0.1233776896876151
 70
   192
  0
VERTEX
  5
129
  8
METAL
 10
-69.1680603027344
 20
-9.43817138671875
 30
-2.241116634042836
 70
   192
  0
VERTEX
  5
12A
  8
METAL
 10
-69.1680603027344
 20
-15.30067443847652
 30
-3.799615016611206
 70
   192
  0
VERTEX
  5
12B
  8
METAL
 10
-69.1680603027344
 20
-0.0035171508789062
 30
-3.998189082773315
 70
   192
  0
VERTEX
  5
12C
  8
METAL
 10
-69.1680603027344
 20
-17.81292724609372
 30
-5.151093593271366
 70
   192
  0
VERTEX
  5
12D
  8
METAL
 10
-69.1680603027344
 20
-17.96257019042973
 30
-5.603280177744026
 70
   192
  0
VERTEX
  5
12E
  8
METAL
 10
-69.1680603027344
 20
-18.03836822509763
 30
-5.908681026132696
 70
   192
  0
VERTEX
  5
12F
  8
METAL
 10
-69.1680603027344
 20
-14.13821411132812
 30
-6.612141719492065
 70
   192
  0
VERTEX
  5
130
  8
METAL
 10
-69.1680603027344
 20
-13.57802581787112
 30
-6.628228297861206
 70
   192
  0
VERTEX
  5
131
  8
METAL
 10
-69.1680603027344
 20
-13.13995361328122
 30
-6.672799220712776
 70
   192
  0
VERTEX
  5
132
  8
METAL
 10
-69.1680603027344
 20
-12.57443237304682
 30
-6.761017909677616
 70
   192
  0
VERTEX
  5
133
  8
METAL
 10
-69.1680603027344
 20
-15.28215026855473
 30
-7.027859798105336
 70
   192
  0
VERTEX
  5
134
  8
METAL
 10
-69.1680603027344
 20
-15.66329956054682
 30
-7.538796535165895
 70
   192
  0
VERTEX
  5
135
  8
METAL
 10
-69.1680603027344
 20
-15.96396636962892
 30
-8.157353511484255
 70
   192
  0
VERTEX
  5
136
  8
METAL
 10
-69.1680603027344
 20
-0.39898681640625
 30
-8.660298457773315
 70
   192
  0
VERTEX
  5
137
  8
METAL
 10
-69.1680603027344
 20
-0.39898681640625
 30
-8.660298457773315
 70
   192
  0
VERTEX
  5
138
  8
METAL
 10
-69.1680603027344
 20
-20.25421905517582
 30
-19.13530456128895
 70
   192
  0
VERTEX
  5
139
  8
METAL
 10
-69.1680603027344
 20
-20.25421905517582
 30
-19.13530456128895
 70
   192
  0
VERTEX
  5
13A
  8
METAL
 10
-69.1680755615235
 20
-17.58943176269533
 30
-4.552117458017456
 70
   192
  0
VERTEX
  5
13B
  8
METAL
 10
-69.1680755615235
 20
-14.82051086425783
 30
-6.624543300302616
 70
   192
  0
VERTEX
  5
13C
  8
METAL
 10
-87.819320678711
 20
-0.2366256713867188
 30
-7.911835780771366
 70
   192
  0
VERTEX
  5
13D
  8
METAL
 10
-87.819320678711
 20
-0.2366256713867188
 30
-7.911835780771366
 70
   192
  0
VERTEX
  5
13E
  8
METAL
 10
-87.85052490234378
 20
-17.36466217041012
 30
-21.15773879590809
 70
   192
  0
VERTEX
  5
13F
  8
METAL
 10
-87.85052490234378
 20
-17.36466217041012
 30
-21.15773879590809
 70
   192
  0
VERTEX
  5
140
  8
METAL
 10
-87.89057922363278
 20
-19.92193603515622
 30
-21.01816665235339
 70
   192
  0
VERTEX
  5
141
  8
METAL
 10
-87.89057922363278
 20
-19.92193603515622
 30
-21.01816665235339
 70
   192
  0
VERTEX
  5
142
  8
METAL
 10
-88.02105712890628
 20
-0.0018997192382812
 30
-5.520615687997925
 70
   192
  0
VERTEX
  5
143
  8
METAL
 10
-88.16021728515628
 20
-0.0038604736328125
 30
-4.001210323007694
 70
   192
  0
VERTEX
  5
144
  8
METAL
 10
-88.503890991211
 20
-0.001960754394533
 30
-0.2433825642186243
 70
   192
  0
VERTEX
  5
145
  8
METAL
 10
-88.503890991211
 20
-0.001960754394533
 30
-0.2433825642186243
 70
   192
  0
VERTEX
  5
146
  8
METAL
 10
-88.8372344970704
 20
-13.37617492675783
 30
-7.209088435800666
 70
   192
  0
VERTEX
  5
147
  8
METAL
 10
-88.8845977783204
 20
-13.99173736572263
 30
-7.179562678964725
 70
   192
  0
VERTEX
  5
148
  8
METAL
 10
-88.9183197021485
 20
-14.45631408691402
 30
-7.179555049570196
 70
   192
  0
VERTEX
  5
149
  8
METAL
 10
-88.92156982421878
 20
-16.68951416015622
 30
-8.915377727182495
 70
   192
  0
VERTEX
  5
14A
  8
METAL
 10
-88.956298828125
 20
-15.02910614013672
 30
-7.218785396249885
 70
   192
  0
VERTEX
  5
14B
  8
METAL
 10
-88.96281433105469
 20
-16.45385742187503
 30
-8.278058162363166
 70
   192
  0
VERTEX
  5
14C
  8
METAL
 10
-88.98843383789068
 20
-16.12737274169922
 30
-7.738713374765505
 70
   192
  0
VERTEX
  5
14D
  8
METAL
 10
-88.99853515625
 20
-15.71003723144533
 30
-7.297398677499885
 70
   192
  0
VERTEX
  5
14E
  8
METAL
 10
-89.26129150390628
 20
-10.16919708251953
 30
-2.839604488046756
 70
   192
  0
VERTEX
  5
14F
  8
METAL
 10
-89.6905212402344
 20
-19.17015075683592
 30
-6.942860713632696
 70
   192
  0
VERTEX
  5
150
  8
METAL
 10
-89.71636962890628
 20
-16.47959899902342
 30
-4.563183894785034
 70
   192
  0
VERTEX
  5
151
  8
METAL
 10
-89.74005126953128
 20
-19.13694763183592
 30
-6.545487514169796
 70
   192
  0
VERTEX
  5
152
  8
METAL
 10
-89.79864501953128
 20
-19.04447937011723
 30
-6.032014003427616
 70
   192
  0
VERTEX
  5
153
  8
METAL
 10
-89.8663024902344
 20
-18.89293670654293
 30
-5.402615657480336
 70
   192
  0
VERTEX
  5
154
  8
METAL
 10
-97.14395141601568
 20
-0.1554489135742188
 30
-7.537644496591675
 70
   192
  0
VERTEX
  5
155
  8
METAL
 10
-97.14395141601568
 20
-0.1554489135742188
 30
-7.537644496591675
 70
   192
  0
VERTEX
  5
156
  8
METAL
 10
-97.29643249511719
 20
-0.001953125
 30
-5.070145717294796
 70
   192
  0
VERTEX
  5
157
  8
METAL
 10
-97.36805725097659
 20
-0.0040283203125
 30
-4.002671352060425
 70
   192
  0
VERTEX
  5
158
  8
METAL
 10
-97.6080017089844
 20
-0.0019836425781268
 30
-0.4160700947362059
 70
   192
  0
VERTEX
  5
159
  8
METAL
 10
-97.6080017089844
 20
-0.0019836425781268
 30
-0.4160700947362059
 70
   192
  0
VERTEX
  5
15A
  8
METAL
 10
-97.62432861328128
 20
-17.14763641357422
 30
-21.39980041089832
 70
   192
  0
VERTEX
  5
15B
  8
METAL
 10
-97.62432861328128
 20
-17.14763641357422
 30
-21.39980041089832
 70
   192
  0
VERTEX
  5
15C
  8
METAL
 10
-97.64996337890628
 20
-19.79373168945312
 30
-21.37858687940417
 70
   192
  0
VERTEX
  5
15D
  8
METAL
 10
-97.64996337890628
 20
-19.79373168945312
 30
-21.37858687940417
 70
   192
  0
VERTEX
  5
15E
  8
METAL
 10
-98.279296875
 20
-13.76104736328122
 30
-7.424183955820196
 70
   192
  0
VERTEX
  5
15F
  8
METAL
 10
-98.3323669433594
 20
-14.39989471435543
 30
-7.422394862802616
 70
   192
  0
VERTEX
  5
160
  8
METAL
 10
-98.3704833984375
 20
-14.87664794921872
 30
-7.443410030038935
 70
   192
  0
VERTEX
  5
161
  8
METAL
 10
-98.4140319824219
 20
-15.45491027832033
 30
-7.508729091318225
 70
   192
  0
VERTEX
  5
162
  8
METAL
 10
-98.42671203613278
 20
-17.03863525390622
 30
-9.280127635629766
 70
   192
  0
VERTEX
  5
163
  8
METAL
 10
-98.45301818847659
 20
-16.83287048339842
 30
-8.632485500009645
 70
   192
  0
VERTEX
  5
164
  8
METAL
 10
-98.4630126953125
 20
-16.13458251953122
 30
-7.618531337411975
 70
   192
  0
VERTEX
  5
165
  8
METAL
 10
-98.46511840820318
 20
-16.53149414062503
 30
-8.078591457040895
 70
   192
  0
VERTEX
  5
166
  8
METAL
 10
-98.65045166015628
 20
-10.51079559326172
 30
-3.119267573984256
 70
   192
  0
VERTEX
  5
167
  8
METAL
 10
-99.28211975097659
 20
-17.02841949462892
 30
-4.918645015390506
 70
   192
  0
VERTEX
  5
168
  8
METAL
 10
-99.32670593261719
 20
-19.70156860351562
 30
-7.428452602060425
 70
   192
  0
VERTEX
  5
169
  8
METAL
 10
-99.3782806396485
 20
-19.68715667724612
 30
-6.986924281747925
 70
   192
  0
VERTEX
  5
16A
  8
METAL
 10
-99.4352722167969
 20
-19.61974334716793
 30
-6.443497768076055
 70
   192
  0
VERTEX
  5
16B
  8
METAL
 10
-99.49769592285159
 20
-19.49948883056642
 30
-5.798371425302616
 70
   192
  0
VERTEX
  5
16C
  8
METAL
 10
-104.0599365234375
 20
-0.0952377319335938
 30
-7.260110011728395
 70
   192
  0
VERTEX
  5
16D
  8
METAL
 10
-104.0599365234375
 20
-0.0952377319335938
 30
-7.260110011728395
 70
   192
  0
VERTEX
  5
16E
  8
METAL
 10
-104.1413269042969
 20
-0.001983642578125
 30
-4.737717738779175
 70
   192
  0
VERTEX
  5
16F
  8
METAL
 10
-104.1678161621094
 20
-0.004150390625
 30
-4.003754726083866
 70
   192
  0
VERTEX
  5
170
  8
METAL
 10
-104.2915496826172
 20
-0.0019989013671893
 30
-0.5428439289647251
 70
   192
  0
VERTEX
  5
171
  8
METAL
 10
-104.2915496826172
 20
-0.0019989013671893
 30
-0.5428439289647251
 70
   192
  0
VERTEX
  5
172
  8
METAL
 10
-105.2261657714844
 20
-17.07885742187502
 30
-20.20796310010731
 70
   192
  0
VERTEX
  5
173
  8
METAL
 10
-105.2261657714844
 20
-17.07885742187502
 30
-20.20796310010731
 70
   192
  0
VERTEX
  5
174
  8
METAL
 10
-105.2405853271485
 20
-19.79402923583983
 30
-20.27880775037585
 70
   192
  0
VERTEX
  5
175
  8
METAL
 10
-105.2405853271485
 20
-19.79402923583983
 30
-20.27880775037585
 70
   192
  0
VERTEX
  5
176
  8
METAL
 10
-105.3876037597657
 20
-14.05079650878902
 30
-7.586114040048706
 70
   192
  0
VERTEX
  5
177
  8
METAL
 10
-105.449935913086
 20
-14.70738220214842
 30
-7.605332484872925
 70
   192
  0
VERTEX
  5
178
  8
METAL
 10
-105.4952697753907
 20
-15.19348144531253
 30
-7.642296901376834
 70
   192
  0
VERTEX
  5
179
  8
METAL
 10
-105.5481262207032
 20
-15.77609252929682
 30
-7.727437129648315
 70
   192
  0
VERTEX
  5
17A
  8
METAL
 10
-105.6085205078125
 20
-16.45510101318362
 30
-7.860982051523315
 70
   192
  0
VERTEX
  5
17B
  8
METAL
 10
-105.628173828125
 20
-16.83695983886723
 30
-8.335492244394416
 70
   192
  0
VERTEX
  5
17C
  8
METAL
 10
-105.6291961669922
 20
-17.30318450927733
 30
-9.556515803964725
 70
   192
  0
VERTEX
  5
17D
  8
METAL
 10
-105.6350708007813
 20
-17.11970520019533
 30
-8.900710216196165
 70
   192
  0
VERTEX
  5
17E
  8
METAL
 10
-105.65771484375
 20
-10.76573181152342
 30
-3.327981105478397
 70
   192
  0
VERTEX
  5
17F
  8
METAL
 10
-106.4910583496094
 20
-17.44201660156253
 30
-5.186524501474477
 70
   192
  0
VERTEX
  5
180
  8
METAL
 10
-106.6235046386719
 20
-20.10397338867182
 30
-7.796155086191286
 70
   192
  0
VERTEX
  5
181
  8
METAL
 10
-106.6742706298828
 20
-20.10365295410152
 30
-7.321084132822145
 70
   192
  0
VERTEX
  5
182
  8
METAL
 10
-106.727279663086
 20
-20.05503845214842
 30
-6.754864802988166
 70
   192
  0
VERTEX
  5
183
  8
METAL
 10
-106.7826232910157
 20
-19.95826721191402
 30
-6.097710719736206
 70
   192
  0
VERTEX
  5
184
  8
METAL
 10
-106.7826232910157
 20
-19.95826721191402
 30
-6.097710719736206
 70
   192
  0
VERTEX
  5
185
  8
METAL
 10
-109.2041320800782
 20
-0.0504608154296875
 30
-7.053677669199086
 70
   192
  0
VERTEX
  5
186
  8
METAL
 10
-109.2041320800782
 20
-0.0504608154296875
 30
-7.053677669199086
 70
   192
  0
VERTEX
  5
187
  8
METAL
 10
-109.2640380859375
 20
-0.00201416015625
 30
-4.488926997812385
 70
   192
  0
VERTEX
  5
188
  8
METAL
 10
-109.2765045166016
 20
-0.004241943359375
 30
-4.004567256601437
 70
   192
  0
VERTEX
  5
189
  8
METAL
 10
-109.3612823486328
 20
-0.0020141601562518
 30
-0.6390048176365859
 70
   192
  0
VERTEX
  5
18A
  8
METAL
 10
-109.3612823486328
 20
-0.0020141601562518
 30
-0.6390048176365859
 70
   192
  0
VERTEX
  5
18B
  8
METAL
 10
-110.6148681640625
 20
-14.26387023925783
 30
-7.705193629892456
 70
   192
  0
VERTEX
  5
18C
  8
METAL
 10
-110.6560668945313
 20
-17.15830993652342
 30
-17.58222877088367
 70
   192
  0
VERTEX
  5
18D
  8
METAL
 10
-110.6560668945313
 20
-17.15830993652342
 30
-17.58222877088367
 70
   192
  0
VERTEX
  5
18E
  8
METAL
 10
-110.6624755859375
 20
-19.92282867431642
 30
-17.71882735791981
 70
   192
  0
VERTEX
  5
18F
  8
METAL
 10
-110.6624755859375
 20
-19.92282867431642
 30
-17.71882735791981
 70
   192
  0
VERTEX
  5
190
  8
METAL
 10
-110.6812286376954
 20
-14.93338012695312
 30
-7.739789119394416
 70
   192
  0
VERTEX
  5
191
  8
METAL
 10
-110.7294921875
 20
-15.42624664306642
 30
-7.788407436044796
 70
   192
  0
VERTEX
  5
192
  8
METAL
 10
-110.7705535888672
 20
-10.95175170898443
 30
-3.480271449716675
 70
   192
  0
VERTEX
  5
193
  8
METAL
 10
-110.7857666015625
 20
-16.01190185546872
 30
-7.888005366953005
 70
   192
  0
VERTEX
  5
194
  8
METAL
 10
-110.85009765625
 20
-16.69022369384763
 30
-8.038827052744026
 70
   192
  0
VERTEX
  5
195
  8
METAL
 10
-110.8750305175782
 20
-17.06070709228513
 30
-8.523671260507696
 70
   192
  0
VERTEX
  5
196
  8
METAL
 10
-110.8875427246094
 20
-17.32947540283203
 30
-9.096873393686405
 70
   192
  0
VERTEX
  5
197
  8
METAL
 10
-110.8876037597657
 20
-17.49632263183592
 30
-9.758303752573125
 70
   192
  0
VERTEX
  5
198
  8
METAL
 10
-111.6293029785157
 20
-17.73681640625003
 30
-5.377461543710815
 70
   192
  0
VERTEX
  5
199
  8
METAL
 10
-111.7594909667969
 20
-20.38722229003902
 30
-8.054970851572145
 70
   192
  0
VERTEX
  5
19A
  8
METAL
 10
-111.8138580322266
 20
-20.39704895019533
 30
-7.556481471689334
 70
   192
  0
VERTEX
  5
19B
  8
METAL
 10
-111.870101928711
 20
-20.36204528808592
 30
-6.974461665781126
 70
   192
  0
VERTEX
  5
19C
  8
METAL
 10
-111.9281768798828
 20
-20.28231811523443
 30
-6.309144130380735
 70
   192
  0
VERTEX
  5
19D
  8
METAL
 10
-111.9281768798828
 20
-20.28231811523443
 30
-6.309144130380735
 70
   192
  0
VERTEX
  5
19E
  8
METAL
 10
-113.9140014648438
 20
-17.38600158691402
 30
-13.52259551587878
 70
   192
  0
VERTEX
  5
19F
  8
METAL
 10
-113.9140014648438
 20
-17.38600158691402
 30
-13.52259551587878
 70
   192
  0
VERTEX
  5
1A0
  8
METAL
 10
-113.9156036376954
 20
-20.18013000488283
 30
-13.69864760938465
 70
   192
  0
VERTEX
  5
1A1
  8
METAL
 10
-113.9156036376954
 20
-20.18013000488283
 30
-13.69864760938465
 70
   192
  0
VERTEX
  5
1A2
  8
METAL
 10
-114.6297607421875
 20
-17.63377380371092
 30
-9.901906123788946
 70
   192
  0
VERTEX
  5
1A3
  8
METAL
 10
-114.6297607421875
 20
-17.63377380371092
 30
-9.901906123788946
 70
   192
  0
VERTEX
  5
1A4
  8
METAL
 10
-114.7577362060547
 20
-17.48403930664062
 30
-9.241410365732305
 70
   192
  0
VERTEX
  5
1A5
  8
METAL
 10
-114.7577362060547
 20
-17.48403930664062
 30
-9.241410365732305
 70
   192
  0
VERTEX
  5
1A6
  8
METAL
 10
-114.867431640625
 20
-17.23095703125003
 30
-8.666855922372925
 70
   192
  0
VERTEX
  5
1A7
  8
METAL
 10
-114.867431640625
 20
-17.23095703125003
 30
-8.666855922372925
 70
   192
  0
VERTEX
  5
1A8
  8
METAL
 10
-114.9588470458985
 20
-16.87452697753902
 30
-8.178238979013546
 70
   192
  0
VERTEX
  5
1A9
  8
METAL
 10
-114.9588470458985
 20
-16.87452697753902
 30
-8.178238979013546
 70
   192
  0
VERTEX
  5
1AA
  8
METAL
 10
-114.981689453125
 20
-16.20080566406253
 30
-8.016636958749885
 70
   192
  0
VERTEX
  5
1AB
  8
METAL
 10
-114.981689453125
 20
-16.20080566406253
 30
-8.016636958749885
 70
   192
  0
VERTEX
  5
1AC
  8
METAL
 10
-114.9954071044922
 20
-15.61595153808592
 30
-7.907490840585815
 70
   192
  0
VERTEX
  5
1AD
  8
METAL
 10
-114.9954071044922
 20
-15.61595153808592
 30
-7.907490840585815
 70
   192
  0
VERTEX
  5
1AE
  8
METAL
 10
-114.999984741211
 20
-11.10562133789062
 30
-3.606248012216675
 70
   192
  0
VERTEX
  5
1AF
  8
METAL
 10
-114.999984741211
 20
-11.10562133789062
 30
-3.606248012216675
 70
   192
  0
VERTEX
  5
1B0
  8
METAL
 10
-114.999984741211
 20
-0.0043487548828125
 30
-4.005475154550666
 70
   192
  0
VERTEX
  5
1B1
  8
METAL
 10
-114.999984741211
 20
-0.0043487548828125
 30
-4.005475154550666
 70
   192
  0
VERTEX
  5
1B2
  8
METAL
 10
-114.999984741211
 20
-0.002044677734375
 30
-4.210354915292836
 70
   192
  0
VERTEX
  5
1B3
  8
METAL
 10
-114.999984741211
 20
-0.002044677734375
 30
-4.210354915292836
 70
   192
  0
VERTEX
  5
1B4
  8
METAL
 10
-114.999984741211
 20
-17.93020629882812
 30
-5.502713313730336
 70
   192
  0
VERTEX
  5
1B5
  8
METAL
 10
-114.999984741211
 20
-17.93020629882812
 30
-5.502713313730336
 70
   192
  0
VERTEX
  5
1B6
  8
METAL
 10
-114.999984741211
 20
0.0
 30
-6.821091762216675
 70
   192
  0
VERTEX
  5
1B7
  8
METAL
 10
-114.999984741211
 20
0.0
 30
-6.821091762216675
 70
   192
  0
VERTEX
  5
1B8
  8
METAL
 10
-114.999984741211
 20
0.0
 30
-6.821091762216675
 70
   192
  0
VERTEX
  5
1B9
  8
METAL
 10
-114.999984741211
 20
-20.54888153076172
 30
-7.108105769785036
 70
   192
  0
VERTEX
  5
1BA
  8
METAL
 10
-114.999984741211
 20
-20.54888153076172
 30
-7.108105769785036
 70
   192
  0
VERTEX
  5
1BB
  8
METAL
 10
-114.999984741211
 20
-20.57893371582033
 30
-7.702405086191286
 70
   192
  0
VERTEX
  5
1BC
  8
METAL
 10
-114.999984741211
 20
-20.57893371582033
 30
-7.702405086191286
 70
   192
  0
VERTEX
  5
1BD
  8
METAL
 10
-114.999984741211
 20
-14.44261169433592
 30
-7.805089107187385
 70
   192
  0
VERTEX
  5
1BE
  8
METAL
 10
-114.999984741211
 20
-14.44261169433592
 30
-7.805089107187385
 70
   192
  0
VERTEX
  5
1BF
  8
METAL
 10
-114.999984741211
 20
-15.11995697021483
 30
-7.850792995126834
 70
   192
  0
VERTEX
  5
1C0
  8
METAL
 10
-114.999984741211
 20
-15.11995697021483
 30
-7.850792995126834
 70
   192
  0
VERTEX
  5
1C1
  8
METAL
 10
-114.999984741211
 20
-20.56592559814453
 30
-8.218266597421755
 70
   192
  0
VERTEX
  5
1C2
  8
METAL
 10
-114.999984741211
 20
-20.56592559814453
 30
-8.218266597421755
 70
   192
  0
VERTEX
  5
1C3
  8
METAL
 10
-115.0
 20
-0.0020294189453143
 30
-0.7459612995701939
 70
   192
  0
VERTEX
  5
1C4
  8
METAL
 10
-115.0
 20
-0.0020294189453143
 30
-0.7459612995701939
 70
   192
  0
VERTEX
  5
1C5
  8
METAL
 10
-115.0
 20
-0.0020294189453143
 30
-0.7459612995701939
 70
   192
  0
VERTEX
  5
1C6
  8
METAL
 10
-115.0
 20
-20.47576904296872
 30
-6.435364833505735
 70
   192
  0
VERTEX
  5
1C7
  8
METAL
 10
-115.0
 20
-20.47576904296872
 30
-6.435364833505735
 70
   192
  0
VERTEX
  5
1C8
  8
METAL
 10
-115.0
 20
-20.47576904296872
 30
-6.435364833505735
 70
   192
  0
VERTEX
  5
1C9
  8
METAL
 10
0.0
 20
0.0
 30
0.0
 70
   128
 71
   375
 72
   380
 73
   386
 74
   373
  0
VERTEX
  5
1CA
  8
METAL
 10
0.0
 20
0.0
 30
0.0
 70
   128
 71
   227
 72
   225
 73
   200
 74
   204
  0
VERTEX
  5
1CB
  8
METAL
 10
0.0
 20
0.0
 30
0.0
 70
   128
 71
   225
 72
   216
 73
   207
 74
   200
  0
VERTEX
  5
1CC
  8
METAL
 10
0.0
 20
0.0
 30
0.0
 70
   128
 71
    32
 72
    38
 73
    16
 74
    16
  0
VERTEX
  5
1CD
  8
METAL
 10
0.0
 20
0.0
 30
0.0
 70
   128
 71
   230
 72
   228
 73
   201
 74
   198
  0
VERTEX
  5
1CE
  8
METAL
 10
0.0
 20
0.0
 30
0.0
 70
   128
 71
   215
 72
   231
 73
   199
 74
   189
  0
VERTEX
  5
1CF
  8
METAL
 10
0.0
 20
0.0
 30
0.0
 70
   128
 71
   224
 72
   194
 73
   202
 74
   229
  0
VERTEX
  5
1D0
  8
METAL
 10
0.0
 20
0.0
 30
0.0
 70
   128
 71
   256
 72
   262
 73
   232
 74
   250
  0
VERTEX
  5
1D1
  8
METAL
 10
0.0
 20
0.0
 30
0.0
 70
   128
 71
   250
 72
   232
 73
   225
 74
   227
  0
VERTEX
  5
1D2
  8
METAL
 10
0.0
 20
0.0
 30
0.0
 70
   128
 71
   139
 72
   141
 73
   162
 74
   160
  0
VERTEX
  5
1D3
  8
METAL
 10
0.0
 20
0.0
 30
0.0
 70
   128
 71
   160
 72
   162
 73
   204
 74
   200
  0
VERTEX
  5
1D4
  8
METAL
 10
0.0
 20
0.0
 30
0.0
 70
   128
 71
   171
 72
   172
 73
   144
 74
   146
  0
VERTEX
  5
1D5
  8
METAL
 10
0.0
 20
0.0
 30
0.0
 70
   128
 71
   203
 72
   161
 73
   172
 74
   197
  0
VERTEX
  5
1D6
  8
METAL
 10
0.0
 20
0.0
 30
0.0
 70
   128
 71
   262
 72
   263
 73
   239
 74
   232
  0
VERTEX
  5
1D7
  8
METAL
 10
0.0
 20
0.0
 30
0.0
 70
   128
 71
   232
 72
   239
 73
   216
 74
   225
  0
VERTEX
  5
1D8
  8
METAL
 10
0.0
 20
0.0
 30
0.0
 70
   128
 71
   128
 72
   103
 73
    89
 74
   115
  0
VERTEX
  5
1D9
  8
METAL
 10
0.0
 20
0.0
 30
0.0
 70
   128
 71
   183
 72
   160
 73
   200
 74
   207
  0
VERTEX
  5
1DA
  8
METAL
 10
0.0
 20
0.0
 30
0.0
 70
   128
 71
   260
 72
   258
 73
   233
 74
   252
  0
VERTEX
  5
1DB
  8
METAL
 10
0.0
 20
0.0
 30
0.0
 70
   128
 71
   252
 72
   233
 73
   228
 74
   230
  0
VERTEX
  5
1DC
  8
METAL
 10
0.0
 20
0.0
 30
0.0
 70
   128
 71
   138
 72
   135
 73
   173
 74
   176
  0
VERTEX
  5
1DD
  8
METAL
 10
0.0
 20
0.0
 30
0.0
 70
   128
 71
   176
 72
   173
 73
   198
 74
   201
  0
VERTEX
  5
1DE
  8
METAL
 10
0.0
 20
0.0
 30
0.0
 70
   128
 71
   275
 72
   300
 73
   289
 74
   261
  0
VERTEX
  5
1DF
  8
METAL
 10
0.0
 20
0.0
 30
0.0
 70
   128
 71
   242
 72
   253
 73
   231
 74
   215
  0
VERTEX
  5
1E0
  8
METAL
 10
0.0
 20
0.0
 30
0.0
 70
   128
 71
    83
 72
   101
 73
   126
 74
   111
  0
VERTEX
  5
1E1
  8
METAL
 10
0.0
 20
0.0
 30
0.0
 70
   128
 71
   174
 72
   182
 73
   189
 74
   199
  0
VERTEX
  5
1E2
  8
METAL
 10
0.0
 20
0.0
 30
0.0
 70
   128
 71
   168
 72
   143
 73
   137
 74
   175
  0
VERTEX
  5
1E3
  8
METAL
 10
0.0
 20
0.0
 30
0.0
 70
   128
 71
   194
 72
   168
 73
   175
 74
   202
  0
VERTEX
  5
1E4
  8
METAL
 10
0.0
 20
0.0
 30
0.0
 70
   128
 71
   234
 72
   259
 73
   269
 74
   249
  0
VERTEX
  5
1E5
  8
METAL
 10
0.0
 20
0.0
 30
0.0
 70
   128
 71
   229
 72
   234
 73
   249
 74
   224
  0
VERTEX
  5
1E6
  8
METAL
 10
0.0
 20
0.0
 30
0.0
 70
   128
 71
   286
 72
   258
 73
   260
 74
   288
  0
VERTEX
  5
1E7
  8
METAL
 10
0.0
 20
0.0
 30
0.0
 70
   128
 71
   311
 72
   286
 73
   288
 74
   313
  0
VERTEX
  5
1E8
  8
METAL
 10
0.0
 20
0.0
 30
0.0
 70
   128
 71
   337
 72
   311
 73
   313
 74
   339
  0
VERTEX
  5
1E9
  8
METAL
 10
0.0
 20
0.0
 30
0.0
 70
   128
 71
   355
 72
   337
 73
   339
 74
   357
  0
VERTEX
  5
1EA
  8
METAL
 10
0.0
 20
0.0
 30
0.0
 70
   128
 71
   110
 72
   135
 73
   138
 74
   112
  0
VERTEX
  5
1EB
  8
METAL
 10
0.0
 20
0.0
 30
0.0
 70
   128
 71
    82
 72
   110
 73
   112
 74
    84
  0
VERTEX
  5
1EC
  8
METAL
 10
0.0
 20
0.0
 30
0.0
 70
   128
 71
    57
 72
    82
 73
    84
 74
    59
  0
VERTEX
  5
1ED
  8
METAL
 10
0.0
 20
0.0
 30
0.0
 70
   128
 71
    34
 72
    57
 73
    59
 74
    36
  0
VERTEX
  5
1EE
  8
METAL
 10
0.0
 20
0.0
 30
0.0
 70
   128
 71
    61
 72
    16
 73
    38
 74
    63
  0
VERTEX
  5
1EF
  8
METAL
 10
0.0
 20
0.0
 30
0.0
 70
   128
 71
    86
 72
    91
 73
    90
 74
    90
  0
VERTEX
  5
1F0
  8
METAL
 10
0.0
 20
0.0
 30
0.0
 70
   128
 71
    91
 72
   116
 73
   114
 74
    90
  0
VERTEX
  5
1F1
  8
METAL
 10
0.0
 20
0.0
 30
0.0
 70
   128
 71
   114
 72
    88
 73
    90
 74
    90
  0
VERTEX
  5
1F2
  8
METAL
 10
0.0
 20
0.0
 30
0.0
 70
   128
 71
   139
 72
   114
 73
   116
 74
   141
  0
VERTEX
  5
1F3
  8
METAL
 10
0.0
 20
0.0
 30
0.0
 70
   128
 71
   128
 72
   130
 73
   105
 74
   103
  0
VERTEX
  5
1F4
  8
METAL
 10
0.0
 20
0.0
 30
0.0
 70
   128
 71
   359
 72
   355
 73
   357
 74
   390
  0
VERTEX
  5
1F5
  8
METAL
 10
0.0
 20
0.0
 30
0.0
 70
   128
 71
   226
 72
   203
 73
   197
 74
   223
  0
VERTEX
  5
1F6
  8
METAL
 10
0.0
 20
0.0
 30
0.0
 70
   128
 71
   257
 72
   251
 73
   246
 74
   266
  0
VERTEX
  5
1F7
  8
METAL
 10
0.0
 20
0.0
 30
0.0
 70
   128
 71
   251
 72
   226
 73
   223
 74
   246
  0
VERTEX
  5
1F8
  8
METAL
 10
0.0
 20
0.0
 30
0.0
 70
   128
 71
   171
 72
   196
 73
   197
 74
   172
  0
VERTEX
  5
1F9
  8
METAL
 10
0.0
 20
0.0
 30
0.0
 70
   128
 71
   386
 72
   388
 73
   393
 74
   373
  0
VERTEX
  5
1FA
  8
METAL
 10
0.0
 20
0.0
 30
0.0
 70
   128
 71
    34
 72
    36
 73
    28
 74
    14
  0
VERTEX
  5
1FB
  8
METAL
 10
0.0
 20
0.0
 30
0.0
 70
   128
 71
   161
 72
   142
 73
   144
 74
   172
  0
VERTEX
  5
1FC
  8
METAL
 10
0.0
 20
0.0
 30
0.0
 70
   128
 71
     1
 72
    30
 73
    32
 74
    16
  0
VERTEX
  5
1FD
  8
METAL
 10
0.0
 20
0.0
 30
0.0
 70
   128
 71
   160
 72
   183
 73
   154
 74
   140
  0
VERTEX
  5
1FE
  8
METAL
 10
0.0
 20
0.0
 30
0.0
 70
   128
 71
   183
 72
   177
 73
   155
 74
   154
  0
VERTEX
  5
1FF
  8
METAL
 10
0.0
 20
0.0
 30
0.0
 70
   128
 71
   182
 72
   174
 73
   136
 74
   151
  0
VERTEX
  5
200
  8
METAL
 10
0.0
 20
0.0
 30
0.0
 70
   128
 71
   140
 72
   154
 73
   128
 74
   115
  0
VERTEX
  5
201
  8
METAL
 10
0.0
 20
0.0
 30
0.0
 70
   128
 71
   154
 72
   155
 73
   130
 74
   128
  0
VERTEX
  5
202
  8
METAL
 10
0.0
 20
0.0
 30
0.0
 70
   128
 71
   111
 72
   126
 73
   151
 74
   136
  0
VERTEX
  5
203
  8
METAL
 10
0.0
 20
0.0
 30
0.0
 70
   128
 71
    35
 72
    48
 73
    73
 74
    58
  0
VERTEX
  5
204
  8
METAL
 10
0.0
 20
0.0
 30
0.0
 70
   128
 71
    75
 72
    50
 73
    17
 74
    62
  0
VERTEX
  5
205
  8
METAL
 10
0.0
 20
0.0
 30
0.0
 70
   128
 71
    62
 72
    89
 73
   103
 74
    75
  0
VERTEX
  5
206
  8
METAL
 10
0.0
 20
0.0
 30
0.0
 70
   128
 71
   103
 72
   105
 73
    77
 74
    75
  0
VERTEX
  5
207
  8
METAL
 10
0.0
 20
0.0
 30
0.0
 70
   128
 71
   101
 72
    83
 73
    58
 74
    73
  0
VERTEX
  5
208
  8
METAL
 10
0.0
 20
0.0
 30
0.0
 70
   128
 71
    35
 72
    15
 73
    48
 74
    48
  0
VERTEX
  5
209
  8
METAL
 10
0.0
 20
0.0
 30
0.0
 70
   128
 71
   223
 72
   197
 73
   196
 74
   221
  0
VERTEX
  5
20A
  8
METAL
 10
0.0
 20
0.0
 30
0.0
 70
   128
 71
   266
 72
   246
 73
   245
 74
   267
  0
VERTEX
  5
20B
  8
METAL
 10
0.0
 20
0.0
 30
0.0
 70
   128
 71
   246
 72
   223
 73
   221
 74
   245
  0
VERTEX
  5
20C
  8
METAL
 10
0.0
 20
0.0
 30
0.0
 70
   128
 71
   205
 72
   207
 73
   216
 74
   208
  0
VERTEX
  5
20D
  8
METAL
 10
0.0
 20
0.0
 30
0.0
 70
   128
 71
   235
 72
   239
 73
   263
 74
   264
  0
VERTEX
  5
20E
  8
METAL
 10
0.0
 20
0.0
 30
0.0
 70
   128
 71
   208
 72
   216
 73
   239
 74
   235
  0
VERTEX
  5
20F
  8
METAL
 10
0.0
 20
0.0
 30
0.0
 70
   128
 71
   183
 72
   207
 73
   205
 74
   177
  0
VERTEX
  5
210
  8
METAL
 10
0.0
 20
0.0
 30
0.0
 70
   128
 71
    52
 72
    50
 73
    75
 74
    77
  0
VERTEX
  5
211
  8
METAL
 10
0.0
 20
0.0
 30
0.0
 70
   128
 71
     2
 72
    17
 73
    50
 74
    52
  0
VERTEX
  5
212
  8
METAL
 10
0.0
 20
0.0
 30
0.0
 70
   128
 71
   220
 72
   221
 73
   196
 74
   195
  0
VERTEX
  5
213
  8
METAL
 10
0.0
 20
0.0
 30
0.0
 70
   128
 71
   214
 72
   215
 73
   189
 74
   188
  0
VERTEX
  5
214
  8
METAL
 10
0.0
 20
0.0
 30
0.0
 70
   128
 71
   244
 72
   268
 73
   267
 74
   245
  0
VERTEX
  5
215
  8
METAL
 10
0.0
 20
0.0
 30
0.0
 70
   128
 71
   244
 72
   245
 73
   221
 74
   220
  0
VERTEX
  5
216
  8
METAL
 10
0.0
 20
0.0
 30
0.0
 70
   128
 71
   170
 72
   171
 73
   146
 74
   147
  0
VERTEX
  5
217
  8
METAL
 10
0.0
 20
0.0
 30
0.0
 70
   128
 71
   195
 72
   196
 73
   171
 74
   170
  0
VERTEX
  5
218
  8
METAL
 10
0.0
 20
0.0
 30
0.0
 70
   128
 71
   301
 72
   300
 73
   275
 74
   277
  0
VERTEX
  5
219
  8
METAL
 10
0.0
 20
0.0
 30
0.0
 70
   128
 71
   241
 72
   242
 73
   215
 74
   214
  0
VERTEX
  5
21A
  8
METAL
 10
0.0
 20
0.0
 30
0.0
 70
   128
 71
    49
 72
    48
 73
    15
 74
    11
  0
VERTEX
  5
21B
  8
METAL
 10
0.0
 20
0.0
 30
0.0
 70
   128
 71
   188
 72
   189
 73
   182
 74
   181
  0
VERTEX
  5
21C
  8
METAL
 10
0.0
 20
0.0
 30
0.0
 70
   128
 71
   219
 72
   217
 73
   190
 74
   191
  0
VERTEX
  5
21D
  8
METAL
 10
0.0
 20
0.0
 30
0.0
 70
   128
 71
   211
 72
   212
 73
   186
 74
   185
  0
VERTEX
  5
21E
  8
METAL
 10
0.0
 20
0.0
 30
0.0
 70
   128
 71
   247
 72
   272
 73
   273
 74
   255
  0
VERTEX
  5
21F
  8
METAL
 10
0.0
 20
0.0
 30
0.0
 70
   128
 71
   247
 72
   255
 73
   217
 74
   219
  0
VERTEX
  5
220
  8
METAL
 10
0.0
 20
0.0
 30
0.0
 70
   128
 71
   165
 72
   167
 73
   150
 74
   148
  0
VERTEX
  5
221
  8
METAL
 10
0.0
 20
0.0
 30
0.0
 70
   128
 71
   191
 72
   190
 73
   167
 74
   165
  0
VERTEX
  5
222
  8
METAL
 10
0.0
 20
0.0
 30
0.0
 70
   128
 71
   299
 72
   303
 73
   279
 74
   276
  0
VERTEX
  5
223
  8
METAL
 10
0.0
 20
0.0
 30
0.0
 70
   128
 71
   238
 72
   254
 73
   212
 74
   211
  0
VERTEX
  5
224
  8
METAL
 10
0.0
 20
0.0
 30
0.0
 70
   128
 71
    55
 72
    56
 73
     5
 74
    13
  0
VERTEX
  5
225
  8
METAL
 10
0.0
 20
0.0
 30
0.0
 70
   128
 71
   185
 72
   186
 73
   179
 74
   164
  0
VERTEX
  5
226
  8
METAL
 10
0.0
 20
0.0
 30
0.0
 70
   128
 71
   382
 72
   396
 73
   365
 74
   363
  0
VERTEX
  5
227
  8
METAL
 10
0.0
 20
0.0
 30
0.0
 70
   128
 71
   371
 72
   393
 73
   388
 74
   369
  0
VERTEX
  5
228
  8
METAL
 10
0.0
 20
0.0
 30
0.0
 70
   128
 71
    20
 72
    18
 73
     4
 74
     6
  0
VERTEX
  5
229
  8
METAL
 10
0.0
 20
0.0
 30
0.0
 70
   128
 71
    26
 72
    30
 73
     1
 74
     8
  0
VERTEX
  5
22A
  8
METAL
 10
0.0
 20
0.0
 30
0.0
 70
   128
 71
   164
 72
   179
 73
   158
 74
   159
  0
VERTEX
  5
22B
  8
METAL
 10
0.0
 20
0.0
 30
0.0
 70
   128
 71
   181
 72
   182
 73
   151
 74
   152
  0
VERTEX
  5
22C
  8
METAL
 10
0.0
 20
0.0
 30
0.0
 70
   128
 71
   159
 72
   158
 73
   133
 74
   134
  0
VERTEX
  5
22D
  8
METAL
 10
0.0
 20
0.0
 30
0.0
 70
   128
 71
   152
 72
   151
 73
   126
 74
   127
  0
VERTEX
  5
22E
  8
METAL
 10
0.0
 20
0.0
 30
0.0
 70
   128
 71
   127
 72
   126
 73
   101
 74
   102
  0
VERTEX
  5
22F
  8
METAL
 10
0.0
 20
0.0
 30
0.0
 70
   128
 71
   134
 72
   133
 73
   108
 74
   109
  0
VERTEX
  5
230
  8
METAL
 10
0.0
 20
0.0
 30
0.0
 70
   128
 71
   109
 72
   108
 73
    81
 74
    80
  0
VERTEX
  5
231
  8
METAL
 10
0.0
 20
0.0
 30
0.0
 70
   128
 71
   102
 72
   101
 73
    73
 74
    74
  0
VERTEX
  5
232
  8
METAL
 10
0.0
 20
0.0
 30
0.0
 70
   128
 71
    74
 72
    73
 73
    48
 74
    49
  0
VERTEX
  5
233
  8
METAL
 10
0.0
 20
0.0
 30
0.0
 70
   128
 71
    80
 72
    81
 73
    56
 74
    55
  0
VERTEX
  5
234
  8
METAL
 10
0.0
 20
0.0
 30
0.0
 70
   128
 71
   218
 72
   220
 73
   195
 74
   193
  0
VERTEX
  5
235
  8
METAL
 10
0.0
 20
0.0
 30
0.0
 70
   128
 71
   217
 72
   218
 73
   193
 74
   190
  0
VERTEX
  5
236
  8
METAL
 10
0.0
 20
0.0
 30
0.0
 70
   128
 71
   213
 72
   214
 73
   188
 74
   187
  0
VERTEX
  5
237
  8
METAL
 10
0.0
 20
0.0
 30
0.0
 70
   128
 71
   212
 72
   213
 73
   187
 74
   186
  0
VERTEX
  5
238
  8
METAL
 10
0.0
 20
0.0
 30
0.0
 70
   128
 71
   243
 72
   270
 73
   268
 74
   244
  0
VERTEX
  5
239
  8
METAL
 10
0.0
 20
0.0
 30
0.0
 70
   128
 71
   255
 72
   273
 73
   270
 74
   243
  0
VERTEX
  5
23A
  8
METAL
 10
0.0
 20
0.0
 30
0.0
 70
   128
 71
   243
 72
   244
 73
   220
 74
   218
  0
VERTEX
  5
23B
  8
METAL
 10
0.0
 20
0.0
 30
0.0
 70
   128
 71
   255
 72
   243
 73
   218
 74
   217
  0
VERTEX
  5
23C
  8
METAL
 10
0.0
 20
0.0
 30
0.0
 70
   128
 71
   169
 72
   170
 73
   147
 74
   149
  0
VERTEX
  5
23D
  8
METAL
 10
0.0
 20
0.0
 30
0.0
 70
   128
 71
   167
 72
   169
 73
   149
 74
   150
  0
VERTEX
  5
23E
  8
METAL
 10
0.0
 20
0.0
 30
0.0
 70
   128
 71
   193
 72
   195
 73
   170
 74
   169
  0
VERTEX
  5
23F
  8
METAL
 10
0.0
 20
0.0
 30
0.0
 70
   128
 71
   190
 72
   193
 73
   169
 74
   167
  0
VERTEX
  5
240
  8
METAL
 10
0.0
 20
0.0
 30
0.0
 70
   128
 71
   302
 72
   301
 73
   277
 74
   278
  0
VERTEX
  5
241
  8
METAL
 10
0.0
 20
0.0
 30
0.0
 70
   128
 71
   303
 72
   302
 73
   278
 74
   279
  0
VERTEX
  5
242
  8
METAL
 10
0.0
 20
0.0
 30
0.0
 70
   128
 71
   240
 72
   241
 73
   214
 74
   213
  0
VERTEX
  5
243
  8
METAL
 10
0.0
 20
0.0
 30
0.0
 70
   128
 71
   254
 72
   240
 73
   213
 74
   212
  0
VERTEX
  5
244
  8
METAL
 10
0.0
 20
0.0
 30
0.0
 70
   128
 71
    51
 72
    49
 73
    11
 74
     7
  0
VERTEX
  5
245
  8
METAL
 10
0.0
 20
0.0
 30
0.0
 70
   128
 71
    56
 72
    51
 73
     7
 74
     5
  0
VERTEX
  5
246
  8
METAL
 10
0.0
 20
0.0
 30
0.0
 70
   128
 71
   187
 72
   188
 73
   181
 74
   180
  0
VERTEX
  5
247
  8
METAL
 10
0.0
 20
0.0
 30
0.0
 70
   128
 71
   186
 72
   187
 73
   180
 74
   179
  0
VERTEX
  5
248
  8
METAL
 10
0.0
 20
0.0
 30
0.0
 70
   128
 71
   222
 72
   219
 73
   191
 74
   192
  0
VERTEX
  5
249
  8
METAL
 10
0.0
 20
0.0
 30
0.0
 70
   128
 71
   224
 72
   222
 73
   192
 74
   194
  0
VERTEX
  5
24A
  8
METAL
 10
0.0
 20
0.0
 30
0.0
 70
   128
 71
   210
 72
   211
 73
   185
 74
   184
  0
VERTEX
  5
24B
  8
METAL
 10
0.0
 20
0.0
 30
0.0
 70
   128
 71
   209
 72
   210
 73
   184
 74
   206
  0
VERTEX
  5
24C
  8
METAL
 10
0.0
 20
0.0
 30
0.0
 70
   128
 71
   248
 72
   271
 73
   272
 74
   247
  0
VERTEX
  5
24D
  8
METAL
 10
0.0
 20
0.0
 30
0.0
 70
   128
 71
   249
 72
   269
 73
   271
 74
   248
  0
VERTEX
  5
24E
  8
METAL
 10
0.0
 20
0.0
 30
0.0
 70
   128
 71
   248
 72
   247
 73
   219
 74
   222
  0
VERTEX
  5
24F
  8
METAL
 10
0.0
 20
0.0
 30
0.0
 70
   128
 71
   249
 72
   248
 73
   222
 74
   224
  0
VERTEX
  5
250
  8
METAL
 10
0.0
 20
0.0
 30
0.0
 70
   128
 71
   166
 72
   165
 73
   148
 74
   145
  0
VERTEX
  5
251
  8
METAL
 10
0.0
 20
0.0
 30
0.0
 70
   128
 71
   168
 72
   166
 73
   145
 74
   143
  0
VERTEX
  5
252
  8
METAL
 10
0.0
 20
0.0
 30
0.0
 70
   128
 71
   192
 72
   191
 73
   165
 74
   166
  0
VERTEX
  5
253
  8
METAL
 10
0.0
 20
0.0
 30
0.0
 70
   128
 71
   194
 72
   192
 73
   166
 74
   168
  0
VERTEX
  5
254
  8
METAL
 10
0.0
 20
0.0
 30
0.0
 70
   128
 71
   298
 72
   299
 73
   276
 74
   274
  0
VERTEX
  5
255
  8
METAL
 10
0.0
 20
0.0
 30
0.0
 70
   128
 71
   285
 72
   298
 73
   274
 74
   265
  0
VERTEX
  5
256
  8
METAL
 10
0.0
 20
0.0
 30
0.0
 70
   128
 71
   237
 72
   238
 73
   211
 74
   210
  0
VERTEX
  5
257
  8
METAL
 10
0.0
 20
0.0
 30
0.0
 70
   128
 71
   236
 72
   237
 73
   210
 74
   209
  0
VERTEX
  5
258
  8
METAL
 10
0.0
 20
0.0
 30
0.0
 70
   128
 71
    54
 72
    55
 73
    13
 74
     9
  0
VERTEX
  5
259
  8
METAL
 10
0.0
 20
0.0
 30
0.0
 70
   128
 71
    53
 72
    54
 73
     9
 74
     3
  0
VERTEX
  5
25A
  8
METAL
 10
0.0
 20
0.0
 30
0.0
 70
   128
 71
   184
 72
   185
 73
   164
 74
   163
  0
VERTEX
  5
25B
  8
METAL
 10
0.0
 20
0.0
 30
0.0
 70
   128
 71
   206
 72
   184
 73
   163
 74
   178
  0
VERTEX
  5
25C
  8
METAL
 10
0.0
 20
0.0
 30
0.0
 70
   128
 71
   384
 72
   382
 73
   363
 74
   361
  0
VERTEX
  5
25D
  8
METAL
 10
0.0
 20
0.0
 30
0.0
 70
   128
 71
   390
 72
   384
 73
   361
 74
   359
  0
VERTEX
  5
25E
  8
METAL
 10
0.0
 20
0.0
 30
0.0
 70
   128
 71
   377
 72
   371
 73
   369
 74
   367
  0
VERTEX
  5
25F
  8
METAL
 10
0.0
 20
0.0
 30
0.0
 70
   128
 71
   396
 72
   377
 73
   367
 74
   365
  0
VERTEX
  5
260
  8
METAL
 10
0.0
 20
0.0
 30
0.0
 70
   128
 71
    22
 72
    20
 73
     6
 74
    10
  0
VERTEX
  5
261
  8
METAL
 10
0.0
 20
0.0
 30
0.0
 70
   128
 71
    28
 72
    22
 73
    10
 74
    14
  0
VERTEX
  5
262
  8
METAL
 10
0.0
 20
0.0
 30
0.0
 70
   128
 71
    24
 72
    26
 73
     8
 74
    12
  0
VERTEX
  5
263
  8
METAL
 10
0.0
 20
0.0
 30
0.0
 70
   128
 71
    18
 72
    24
 73
    12
 74
     4
  0
VERTEX
  5
264
  8
METAL
 10
0.0
 20
0.0
 30
0.0
 70
   128
 71
   163
 72
   164
 73
   159
 74
   157
  0
VERTEX
  5
265
  8
METAL
 10
0.0
 20
0.0
 30
0.0
 70
   128
 71
   178
 72
   163
 73
   157
 74
   156
  0
VERTEX
  5
266
  8
METAL
 10
0.0
 20
0.0
 30
0.0
 70
   128
 71
   180
 72
   181
 73
   152
 74
   153
  0
VERTEX
  5
267
  8
METAL
 10
0.0
 20
0.0
 30
0.0
 70
   128
 71
   179
 72
   180
 73
   153
 74
   158
  0
VERTEX
  5
268
  8
METAL
 10
0.0
 20
0.0
 30
0.0
 70
   128
 71
   157
 72
   159
 73
   134
 74
   132
  0
VERTEX
  5
269
  8
METAL
 10
0.0
 20
0.0
 30
0.0
 70
   128
 71
   156
 72
   157
 73
   132
 74
   131
  0
VERTEX
  5
26A
  8
METAL
 10
0.0
 20
0.0
 30
0.0
 70
   128
 71
   153
 72
   152
 73
   127
 74
   129
  0
VERTEX
  5
26B
  8
METAL
 10
0.0
 20
0.0
 30
0.0
 70
   128
 71
   158
 72
   153
 73
   129
 74
   133
  0
VERTEX
  5
26C
  8
METAL
 10
0.0
 20
0.0
 30
0.0
 70
   128
 71
   129
 72
   127
 73
   102
 74
   104
  0
VERTEX
  5
26D
  8
METAL
 10
0.0
 20
0.0
 30
0.0
 70
   128
 71
   133
 72
   129
 73
   104
 74
   108
  0
VERTEX
  5
26E
  8
METAL
 10
0.0
 20
0.0
 30
0.0
 70
   128
 71
   132
 72
   134
 73
   109
 74
   107
  0
VERTEX
  5
26F
  8
METAL
 10
0.0
 20
0.0
 30
0.0
 70
   128
 71
   131
 72
   132
 73
   107
 74
   106
  0
VERTEX
  5
270
  8
METAL
 10
0.0
 20
0.0
 30
0.0
 70
   128
 71
   107
 72
   109
 73
    80
 74
    79
  0
VERTEX
  5
271
  8
METAL
 10
0.0
 20
0.0
 30
0.0
 70
   128
 71
   106
 72
   107
 73
    79
 74
    78
  0
VERTEX
  5
272
  8
METAL
 10
0.0
 20
0.0
 30
0.0
 70
   128
 71
   104
 72
   102
 73
    74
 74
    76
  0
VERTEX
  5
273
  8
METAL
 10
0.0
 20
0.0
 30
0.0
 70
   128
 71
   108
 72
   104
 73
    76
 74
    81
  0
VERTEX
  5
274
  8
METAL
 10
0.0
 20
0.0
 30
0.0
 70
   128
 71
    76
 72
    74
 73
    49
 74
    51
  0
VERTEX
  5
275
  8
METAL
 10
0.0
 20
0.0
 30
0.0
 70
   128
 71
    81
 72
    76
 73
    51
 74
    56
  0
VERTEX
  5
276
  8
METAL
 10
0.0
 20
0.0
 30
0.0
 70
   128
 71
    79
 72
    80
 73
    55
 74
    54
  0
VERTEX
  5
277
  8
METAL
 10
0.0
 20
0.0
 30
0.0
 70
   128
 71
    78
 72
    79
 73
    54
 74
    53
  0
VERTEX
  5
278
  8
METAL
 10
0.0
 20
0.0
 30
0.0
 70
   128
 71
   117
 72
   119
 73
   144
 74
   142
  0
VERTEX
  5
279
  8
METAL
 10
0.0
 20
0.0
 30
0.0
 70
   128
 71
   119
 72
   120
 73
   146
 74
   144
  0
VERTEX
  5
27A
  8
METAL
 10
0.0
 20
0.0
 30
0.0
 70
   128
 71
   120
 72
   122
 73
   147
 74
   146
  0
VERTEX
  5
27B
  8
METAL
 10
0.0
 20
0.0
 30
0.0
 70
   128
 71
   122
 72
   123
 73
   149
 74
   147
  0
VERTEX
  5
27C
  8
METAL
 10
0.0
 20
0.0
 30
0.0
 70
   128
 71
   123
 72
   125
 73
   150
 74
   149
  0
VERTEX
  5
27D
  8
METAL
 10
0.0
 20
0.0
 30
0.0
 70
   128
 71
   125
 72
   124
 73
   148
 74
   150
  0
VERTEX
  5
27E
  8
METAL
 10
0.0
 20
0.0
 30
0.0
 70
   128
 71
   148
 72
   124
 73
   121
 74
   145
  0
VERTEX
  5
27F
  8
METAL
 10
0.0
 20
0.0
 30
0.0
 70
   128
 71
   145
 72
   121
 73
   118
 74
   143
  0
VERTEX
  5
280
  8
METAL
 10
0.0
 20
0.0
 30
0.0
 70
   128
 71
   143
 72
   118
 73
   113
 74
   137
  0
VERTEX
  5
281
  8
METAL
 10
0.0
 20
0.0
 30
0.0
 70
   128
 71
    92
 72
    87
 73
    93
 74
   119
  0
VERTEX
  5
282
  8
METAL
 10
0.0
 20
0.0
 30
0.0
 70
   128
 71
   117
 72
    92
 73
   119
 74
   119
  0
VERTEX
  5
283
  8
METAL
 10
0.0
 20
0.0
 30
0.0
 70
   128
 71
    93
 72
    95
 73
   120
 74
   119
  0
VERTEX
  5
284
  8
METAL
 10
0.0
 20
0.0
 30
0.0
 70
   128
 71
    95
 72
    96
 73
   122
 74
   120
  0
VERTEX
  5
285
  8
METAL
 10
0.0
 20
0.0
 30
0.0
 70
   128
 71
    96
 72
    98
 73
   123
 74
   122
  0
VERTEX
  5
286
  8
METAL
 10
0.0
 20
0.0
 30
0.0
 70
   128
 71
    98
 72
   100
 73
   125
 74
   123
  0
VERTEX
  5
287
  8
METAL
 10
0.0
 20
0.0
 30
0.0
 70
   128
 71
   100
 72
    99
 73
   124
 74
   125
  0
VERTEX
  5
288
  8
METAL
 10
0.0
 20
0.0
 30
0.0
 70
   128
 71
   124
 72
    99
 73
    97
 74
   121
  0
VERTEX
  5
289
  8
METAL
 10
0.0
 20
0.0
 30
0.0
 70
   128
 71
   121
 72
    97
 73
    94
 74
   118
  0
VERTEX
  5
28A
  8
METAL
 10
0.0
 20
0.0
 30
0.0
 70
   128
 71
   118
 72
    94
 73
    85
 74
   113
  0
VERTEX
  5
28B
  8
METAL
 10
0.0
 20
0.0
 30
0.0
 70
   128
 71
    88
 72
    61
 73
    63
 74
    90
  0
VERTEX
  5
28C
  8
METAL
 10
0.0
 20
0.0
 30
0.0
 70
   128
 71
    90
 72
    63
 73
    86
 74
    86
  0
VERTEX
  5
28D
  8
METAL
 10
0.0
 20
0.0
 30
0.0
 70
   128
 71
    64
 72
    65
 73
    93
 74
    87
  0
VERTEX
  5
28E
  8
METAL
 10
0.0
 20
0.0
 30
0.0
 70
   128
 71
    65
 72
    67
 73
    95
 74
    93
  0
VERTEX
  5
28F
  8
METAL
 10
0.0
 20
0.0
 30
0.0
 70
   128
 71
    67
 72
    68
 73
    96
 74
    95
  0
VERTEX
  5
290
  8
METAL
 10
0.0
 20
0.0
 30
0.0
 70
   128
 71
    68
 72
    70
 73
    98
 74
    96
  0
VERTEX
  5
291
  8
METAL
 10
0.0
 20
0.0
 30
0.0
 70
   128
 71
    70
 72
    72
 73
   100
 74
    98
  0
VERTEX
  5
292
  8
METAL
 10
0.0
 20
0.0
 30
0.0
 70
   128
 71
   100
 72
    72
 73
    71
 74
    99
  0
VERTEX
  5
293
  8
METAL
 10
0.0
 20
0.0
 30
0.0
 70
   128
 71
    99
 72
    71
 73
    69
 74
    97
  0
VERTEX
  5
294
  8
METAL
 10
0.0
 20
0.0
 30
0.0
 70
   128
 71
    97
 72
    69
 73
    66
 74
    94
  0
VERTEX
  5
295
  8
METAL
 10
0.0
 20
0.0
 30
0.0
 70
   128
 71
    94
 72
    66
 73
    60
 74
    85
  0
VERTEX
  5
296
  8
METAL
 10
0.0
 20
0.0
 30
0.0
 70
   128
 71
    39
 72
    40
 73
    65
 74
    64
  0
VERTEX
  5
297
  8
METAL
 10
0.0
 20
0.0
 30
0.0
 70
   128
 71
    40
 72
    41
 73
    67
 74
    65
  0
VERTEX
  5
298
  8
METAL
 10
0.0
 20
0.0
 30
0.0
 70
   128
 71
    41
 72
    43
 73
    68
 74
    67
  0
VERTEX
  5
299
  8
METAL
 10
0.0
 20
0.0
 30
0.0
 70
   128
 71
    43
 72
    45
 73
    70
 74
    68
  0
VERTEX
  5
29A
  8
METAL
 10
0.0
 20
0.0
 30
0.0
 70
   128
 71
    45
 72
    47
 73
    72
 74
    70
  0
VERTEX
  5
29B
  8
METAL
 10
0.0
 20
0.0
 30
0.0
 70
   128
 71
    72
 72
    47
 73
    46
 74
    71
  0
VERTEX
  5
29C
  8
METAL
 10
0.0
 20
0.0
 30
0.0
 70
   128
 71
    71
 72
    46
 73
    44
 74
    69
  0
VERTEX
  5
29D
  8
METAL
 10
0.0
 20
0.0
 30
0.0
 70
   128
 71
    69
 72
    44
 73
    42
 74
    66
  0
VERTEX
  5
29E
  8
METAL
 10
0.0
 20
0.0
 30
0.0
 70
   128
 71
    66
 72
    42
 73
    37
 74
    60
  0
VERTEX
  5
29F
  8
METAL
 10
0.0
 20
0.0
 30
0.0
 70
   128
 71
    39
 72
    33
 73
    40
 74
    40
  0
VERTEX
  5
2A0
  8
METAL
 10
0.0
 20
0.0
 30
0.0
 70
   128
 71
    33
 72
    31
 73
    41
 74
    40
  0
VERTEX
  5
2A1
  8
METAL
 10
0.0
 20
0.0
 30
0.0
 70
   128
 71
    31
 72
    27
 73
    43
 74
    41
  0
VERTEX
  5
2A2
  8
METAL
 10
0.0
 20
0.0
 30
0.0
 70
   128
 71
    27
 72
    25
 73
    45
 74
    43
  0
VERTEX
  5
2A3
  8
METAL
 10
0.0
 20
0.0
 30
0.0
 70
   128
 71
    25
 72
    19
 73
    47
 74
    45
  0
VERTEX
  5
2A4
  8
METAL
 10
0.0
 20
0.0
 30
0.0
 70
   128
 71
    47
 72
    19
 73
    21
 74
    46
  0
VERTEX
  5
2A5
  8
METAL
 10
0.0
 20
0.0
 30
0.0
 70
   128
 71
    46
 72
    21
 73
    23
 74
    44
  0
VERTEX
  5
2A6
  8
METAL
 10
0.0
 20
0.0
 30
0.0
 70
   128
 71
    44
 72
    23
 73
    29
 74
    42
  0
VERTEX
  5
2A7
  8
METAL
 10
0.0
 20
0.0
 30
0.0
 70
   128
 71
    42
 72
    29
 73
    37
 74
    37
  0
VERTEX
  5
2A8
  8
METAL
 10
0.0
 20
0.0
 30
0.0
 70
   128
 71
   287
 72
   294
 73
   269
 74
   259
  0
VERTEX
  5
2A9
  8
METAL
 10
0.0
 20
0.0
 30
0.0
 70
   128
 71
   294
 72
   295
 73
   271
 74
   269
  0
VERTEX
  5
2AA
  8
METAL
 10
0.0
 20
0.0
 30
0.0
 70
   128
 71
   271
 72
   295
 73
   297
 74
   272
  0
VERTEX
  5
2AB
  8
METAL
 10
0.0
 20
0.0
 30
0.0
 70
   128
 71
   272
 72
   297
 73
   296
 74
   273
  0
VERTEX
  5
2AC
  8
METAL
 10
0.0
 20
0.0
 30
0.0
 70
   128
 71
   273
 72
   296
 73
   293
 74
   270
  0
VERTEX
  5
2AD
  8
METAL
 10
0.0
 20
0.0
 30
0.0
 70
   128
 71
   270
 72
   293
 73
   292
 74
   268
  0
VERTEX
  5
2AE
  8
METAL
 10
0.0
 20
0.0
 30
0.0
 70
   128
 71
   268
 72
   292
 73
   291
 74
   267
  0
VERTEX
  5
2AF
  8
METAL
 10
0.0
 20
0.0
 30
0.0
 70
   128
 71
   267
 72
   291
 73
   290
 74
   266
  0
VERTEX
  5
2B0
  8
METAL
 10
0.0
 20
0.0
 30
0.0
 70
   128
 71
   266
 72
   290
 73
   281
 74
   257
  0
VERTEX
  5
2B1
  8
METAL
 10
0.0
 20
0.0
 30
0.0
 70
   128
 71
   280
 72
   282
 73
   262
 74
   256
  0
VERTEX
  5
2B2
  8
METAL
 10
0.0
 20
0.0
 30
0.0
 70
   128
 71
   282
 72
   283
 73
   263
 74
   262
  0
VERTEX
  5
2B3
  8
METAL
 10
0.0
 20
0.0
 30
0.0
 70
   128
 71
   283
 72
   284
 73
   264
 74
   263
  0
VERTEX
  5
2B4
  8
METAL
 10
0.0
 20
0.0
 30
0.0
 70
   128
 71
   310
 72
   320
 73
   294
 74
   287
  0
VERTEX
  5
2B5
  8
METAL
 10
0.0
 20
0.0
 30
0.0
 70
   128
 71
   294
 72
   320
 73
   321
 74
   295
  0
VERTEX
  5
2B6
  8
METAL
 10
0.0
 20
0.0
 30
0.0
 70
   128
 71
   295
 72
   321
 73
   319
 74
   297
  0
VERTEX
  5
2B7
  8
METAL
 10
0.0
 20
0.0
 30
0.0
 70
   128
 71
   297
 72
   319
 73
   318
 74
   296
  0
VERTEX
  5
2B8
  8
METAL
 10
0.0
 20
0.0
 30
0.0
 70
   128
 71
   296
 72
   318
 73
   317
 74
   293
  0
VERTEX
  5
2B9
  8
METAL
 10
0.0
 20
0.0
 30
0.0
 70
   128
 71
   293
 72
   317
 73
   316
 74
   292
  0
VERTEX
  5
2BA
  8
METAL
 10
0.0
 20
0.0
 30
0.0
 70
   128
 71
   292
 72
   316
 73
   315
 74
   291
  0
VERTEX
  5
2BB
  8
METAL
 10
0.0
 20
0.0
 30
0.0
 70
   128
 71
   291
 72
   315
 73
   314
 74
   290
  0
VERTEX
  5
2BC
  8
METAL
 10
0.0
 20
0.0
 30
0.0
 70
   128
 71
   290
 72
   314
 73
   305
 74
   281
  0
VERTEX
  5
2BD
  8
METAL
 10
0.0
 20
0.0
 30
0.0
 70
   128
 71
   304
 72
   306
 73
   282
 74
   280
  0
VERTEX
  5
2BE
  8
METAL
 10
0.0
 20
0.0
 30
0.0
 70
   128
 71
   306
 72
   307
 73
   283
 74
   282
  0
VERTEX
  5
2BF
  8
METAL
 10
0.0
 20
0.0
 30
0.0
 70
   128
 71
   307
 72
   308
 73
   284
 74
   283
  0
VERTEX
  5
2C0
  8
METAL
 10
0.0
 20
0.0
 30
0.0
 70
   128
 71
   336
 72
   347
 73
   320
 74
   310
  0
VERTEX
  5
2C1
  8
METAL
 10
0.0
 20
0.0
 30
0.0
 70
   128
 71
   320
 72
   347
 73
   346
 74
   321
  0
VERTEX
  5
2C2
  8
METAL
 10
0.0
 20
0.0
 30
0.0
 70
   128
 71
   321
 72
   346
 73
   345
 74
   319
  0
VERTEX
  5
2C3
  8
METAL
 10
0.0
 20
0.0
 30
0.0
 70
   128
 71
   319
 72
   345
 73
   344
 74
   318
  0
VERTEX
  5
2C4
  8
METAL
 10
0.0
 20
0.0
 30
0.0
 70
   128
 71
   318
 72
   344
 73
   343
 74
   317
  0
VERTEX
  5
2C5
  8
METAL
 10
0.0
 20
0.0
 30
0.0
 70
   128
 71
   317
 72
   343
 73
   341
 74
   316
  0
VERTEX
  5
2C6
  8
METAL
 10
0.0
 20
0.0
 30
0.0
 70
   128
 71
   316
 72
   341
 73
   340
 74
   315
  0
VERTEX
  5
2C7
  8
METAL
 10
0.0
 20
0.0
 30
0.0
 70
   128
 71
   315
 72
   340
 73
   335
 74
   314
  0
VERTEX
  5
2C8
  8
METAL
 10
0.0
 20
0.0
 30
0.0
 70
   128
 71
   314
 72
   335
 73
   330
 74
   305
  0
VERTEX
  5
2C9
  8
METAL
 10
0.0
 20
0.0
 30
0.0
 70
   128
 71
   329
 72
   331
 73
   306
 74
   304
  0
VERTEX
  5
2CA
  8
METAL
 10
0.0
 20
0.0
 30
0.0
 70
   128
 71
   331
 72
   332
 73
   307
 74
   306
  0
VERTEX
  5
2CB
  8
METAL
 10
0.0
 20
0.0
 30
0.0
 70
   128
 71
   332
 72
   333
 73
   308
 74
   307
  0
VERTEX
  5
2CC
  8
METAL
 10
0.0
 20
0.0
 30
0.0
 70
   128
 71
   354
 72
   358
 73
   347
 74
   336
  0
VERTEX
  5
2CD
  8
METAL
 10
0.0
 20
0.0
 30
0.0
 70
   128
 71
   358
 72
   360
 73
   346
 74
   347
  0
VERTEX
  5
2CE
  8
METAL
 10
0.0
 20
0.0
 30
0.0
 70
   128
 71
   360
 72
   362
 73
   345
 74
   346
  0
VERTEX
  5
2CF
  8
METAL
 10
0.0
 20
0.0
 30
0.0
 70
   128
 71
   345
 72
   362
 73
   364
 74
   344
  0
VERTEX
  5
2D0
  8
METAL
 10
0.0
 20
0.0
 30
0.0
 70
   128
 71
   344
 72
   364
 73
   366
 74
   343
  0
VERTEX
  5
2D1
  8
METAL
 10
0.0
 20
0.0
 30
0.0
 70
   128
 71
   343
 72
   366
 73
   368
 74
   341
  0
VERTEX
  5
2D2
  8
METAL
 10
0.0
 20
0.0
 30
0.0
 70
   128
 71
   341
 72
   368
 73
   387
 74
   340
  0
VERTEX
  5
2D3
  8
METAL
 10
0.0
 20
0.0
 30
0.0
 70
   128
 71
   340
 72
   387
 73
   385
 74
   335
  0
VERTEX
  5
2D4
  8
METAL
 10
0.0
 20
0.0
 30
0.0
 70
   128
 71
   335
 72
   385
 73
   379
 74
   330
  0
VERTEX
  5
2D5
  8
METAL
 10
0.0
 20
0.0
 30
0.0
 70
   128
 71
   378
 72
   374
 73
   331
 74
   329
  0
VERTEX
  5
2D6
  8
METAL
 10
0.0
 20
0.0
 30
0.0
 70
   128
 71
   374
 72
   372
 73
   332
 74
   331
  0
VERTEX
  5
2D7
  8
METAL
 10
0.0
 20
0.0
 30
0.0
 70
   128
 71
   372
 72
   391
 73
   333
 74
   332
  0
VERTEX
  5
2D8
  8
METAL
 10
0.0
 20
0.0
 30
0.0
 70
   128
 71
   253
 72
   242
 73
   275
 74
   261
  0
VERTEX
  5
2D9
  8
METAL
 10
0.0
 20
0.0
 30
0.0
 70
   128
 71
   242
 72
   241
 73
   277
 74
   275
  0
VERTEX
  5
2DA
  8
METAL
 10
0.0
 20
0.0
 30
0.0
 70
   128
 71
   241
 72
   240
 73
   278
 74
   277
  0
VERTEX
  5
2DB
  8
METAL
 10
0.0
 20
0.0
 30
0.0
 70
   128
 71
   240
 72
   254
 73
   279
 74
   278
  0
VERTEX
  5
2DC
  8
METAL
 10
0.0
 20
0.0
 30
0.0
 70
   128
 71
   254
 72
   238
 73
   276
 74
   279
  0
VERTEX
  5
2DD
  8
METAL
 10
0.0
 20
0.0
 30
0.0
 70
   128
 71
   238
 72
   237
 73
   274
 74
   276
  0
VERTEX
  5
2DE
  8
METAL
 10
0.0
 20
0.0
 30
0.0
 70
   128
 71
   237
 72
   236
 73
   265
 74
   274
  0
VERTEX
  5
2DF
  8
METAL
 10
0.0
 20
0.0
 30
0.0
 70
   128
 71
   392
 72
   370
 73
   342
 74
   334
  0
VERTEX
  5
2E0
  8
METAL
 10
0.0
 20
0.0
 30
0.0
 70
   128
 71
   370
 72
   376
 73
   348
 74
   342
  0
VERTEX
  5
2E1
  8
METAL
 10
0.0
 20
0.0
 30
0.0
 70
   128
 71
   376
 72
   395
 73
   353
 74
   348
  0
VERTEX
  5
2E2
  8
METAL
 10
0.0
 20
0.0
 30
0.0
 70
   128
 71
   394
 72
   381
 73
   351
 74
   352
  0
VERTEX
  5
2E3
  8
METAL
 10
0.0
 20
0.0
 30
0.0
 70
   128
 71
   381
 72
   383
 73
   350
 74
   351
  0
VERTEX
  5
2E4
  8
METAL
 10
0.0
 20
0.0
 30
0.0
 70
   128
 71
   383
 72
   389
 73
   349
 74
   350
  0
VERTEX
  5
2E5
  8
METAL
 10
0.0
 20
0.0
 30
0.0
 70
   128
 71
   349
 72
   389
 73
   356
 74
   338
  0
VERTEX
  5
2E6
  8
METAL
 10
0.0
 20
0.0
 30
0.0
 70
   128
 71
   312
 72
   289
 73
   300
 74
   324
  0
VERTEX
  5
2E7
  8
METAL
 10
0.0
 20
0.0
 30
0.0
 70
   128
 71
   300
 72
   301
 73
   325
 74
   324
  0
VERTEX
  5
2E8
  8
METAL
 10
0.0
 20
0.0
 30
0.0
 70
   128
 71
   301
 72
   302
 73
   326
 74
   325
  0
VERTEX
  5
2E9
  8
METAL
 10
0.0
 20
0.0
 30
0.0
 70
   128
 71
   302
 72
   303
 73
   327
 74
   326
  0
VERTEX
  5
2EA
  8
METAL
 10
0.0
 20
0.0
 30
0.0
 70
   128
 71
   303
 72
   299
 73
   323
 74
   328
  0
VERTEX
  5
2EB
  8
METAL
 10
0.0
 20
0.0
 30
0.0
 70
   128
 71
   299
 72
   298
 73
   322
 74
   323
  0
VERTEX
  5
2EC
  8
METAL
 10
0.0
 20
0.0
 30
0.0
 70
   128
 71
   298
 72
   285
 73
   309
 74
   322
  0
VERTEX
  5
2ED
  8
METAL
 10
0.0
 20
0.0
 30
0.0
 70
   128
 71
   338
 72
   312
 73
   324
 74
   349
  0
VERTEX
  5
2EE
  8
METAL
 10
0.0
 20
0.0
 30
0.0
 70
   128
 71
   349
 72
   324
 73
   325
 74
   350
  0
VERTEX
  5
2EF
  8
METAL
 10
0.0
 20
0.0
 30
0.0
 70
   128
 71
   325
 72
   326
 73
   351
 74
   350
  0
VERTEX
  5
2F0
  8
METAL
 10
0.0
 20
0.0
 30
0.0
 70
   128
 71
   326
 72
   327
 73
   352
 74
   351
  0
VERTEX
  5
2F1
  8
METAL
 10
0.0
 20
0.0
 30
0.0
 70
   128
 71
   328
 72
   323
 73
   348
 74
   353
  0
VERTEX
  5
2F2
  8
METAL
 10
0.0
 20
0.0
 30
0.0
 70
   128
 71
   323
 72
   322
 73
   342
 74
   348
  0
VERTEX
  5
2F3
  8
METAL
 10
0.0
 20
0.0
 30
0.0
 70
   128
 71
   322
 72
   309
 73
   334
 74
   342
  0
SEQEND
  5
340
  8
METAL
  0
POINT
  5
33E
  8
0
 10
349.8843329815438
 20
0.0
 30
80.77501785729919
210
0.0
220
-1.0
230
0.0
  0
ENDSEC
  0
EOF
