  0
SECTION
  2
HEADER
  9
$ACADVER
  1
AC1009
  9
$DWGCODEPAGE
  3
ansi_1252
  9
$INSBASE
 10
0.0
 20
0.0
 30
0.0
  9
$EXTMIN
 10
-84.0
 20
-22.94149398803711
 30
-4.5
  9
$EXTMAX
 10
84.21098327636719
 20
0.0
 30
4.8442029953003
  9
$LIMMIN
 10
0.0
 20
0.0
  9
$LIMMAX
 10
12.0
 20
9.0
  9
$ORTHOMODE
 70
     1
  9
$REGENMODE
 70
     1
  9
$FILLMODE
 70
     1
  9
$QTEXTMODE
 70
     0
  9
$MIRRTEXT
 70
     1
  9
$DRAGMODE
 70
     2
  9
$LTSCALE
 40
1.0
  9
$OSMODE
 70
    37
  9
$ATTMODE
 70
     1
  9
$TEXTSIZE
 40
0.2
  9
$TRACEWID
 40
0.05
  9
$TEXTSTYLE
  7
STANDARD
  9
$CLAYER
  8
0
  9
$CELTYPE
  6
BYLAYER
  9
$CECOLOR
 62
   256
  9
$DIMSCALE
 40
1.0
  9
$DIMASZ
 40
0.18
  9
$DIMEXO
 40
0.0625
  9
$DIMDLI
 40
0.38
  9
$DIMRND
 40
0.0
  9
$DIMDLE
 40
0.0
  9
$DIMEXE
 40
0.18
  9
$DIMTP
 40
0.0
  9
$DIMTM
 40
0.0
  9
$DIMTXT
 40
0.18
  9
$DIMCEN
 40
0.09
  9
$DIMTSZ
 40
0.0
  9
$DIMTOL
 70
     0
  9
$DIMLIM
 70
     0
  9
$DIMTIH
 70
     1
  9
$DIMTOH
 70
     1
  9
$DIMSE1
 70
     0
  9
$DIMSE2
 70
     0
  9
$DIMTAD
 70
     0
  9
$DIMZIN
 70
     0
  9
$DIMBLK
  1

  9
$DIMASO
 70
     1
  9
$DIMSHO
 70
     1
  9
$DIMPOST
  1

  9
$DIMAPOST
  1

  9
$DIMALT
 70
     0
  9
$DIMALTD
 70
     2
  9
$DIMALTF
 40
25.4
  9
$DIMLFAC
 40
1.0
  9
$DIMTOFL
 70
     0
  9
$DIMTVP
 40
0.0
  9
$DIMTIX
 70
     0
  9
$DIMSOXD
 70
     0
  9
$DIMSAH
 70
     0
  9
$DIMBLK1
  1

  9
$DIMBLK2
  1

  9
$DIMSTYLE
  2
STANDARD
  9
$DIMCLRD
 70
     0
  9
$DIMCLRE
 70
     0
  9
$DIMCLRT
 70
     0
  9
$DIMTFAC
 40
1.0
  9
$DIMGAP
 40
0.09
  9
$LUNITS
 70
     2
  9
$LUPREC
 70
     3
  9
$SKETCHINC
 40
0.1
  9
$FILLETRAD
 40
0.5
  9
$AUNITS
 70
     0
  9
$AUPREC
 70
     0
  9
$MENU
  1
.
  9
$ELEVATION
 40
0.0
  9
$PELEVATION
 40
0.0
  9
$THICKNESS
 40
0.0
  9
$LIMCHECK
 70
     0
  9
$CHAMFERA
 40
0.5
  9
$CHAMFERB
 40
0.5
  9
$SKPOLY
 70
     0
  9
$TDCREATE
 40
2456499.668303438
  9
$TDUPDATE
 40
2456499.668303449
  9
$TDINDWG
 40
0.006516169
  9
$TDUSRTIMER
 40
0.006516169
  9
$USRTIMER
 70
     1
  9
$ANGBASE
 50
0.0
  9
$ANGDIR
 70
     0
  9
$PDMODE
 70
     0
  9
$PDSIZE
 40
0.0
  9
$PLINEWID
 40
0.0
  9
$COORDS
 70
     1
  9
$SPLFRAME
 70
     0
  9
$SPLINETYPE
 70
     6
  9
$SPLINESEGS
 70
     8
  9
$ATTDIA
 70
     0
  9
$ATTREQ
 70
     1
  9
$HANDLING
 70
     1
  9
$HANDSEED
  5
328
  9
$SURFTAB1
 70
     6
  9
$SURFTAB2
 70
     6
  9
$SURFTYPE
 70
     6
  9
$SURFU
 70
     6
  9
$SURFV
 70
     6
  9
$UCSNAME
  2

  9
$UCSORG
 10
0.0
 20
0.0
 30
0.0
  9
$UCSXDIR
 10
1.0
 20
0.0
 30
0.0
  9
$UCSYDIR
 10
0.0
 20
0.0
 30
1.0
  9
$PUCSNAME
  2

  9
$PUCSORG
 10
0.0
 20
0.0
 30
0.0
  9
$PUCSXDIR
 10
1.0
 20
0.0
 30
0.0
  9
$PUCSYDIR
 10
0.0
 20
1.0
 30
0.0
  9
$USERI1
 70
     0
  9
$USERI2
 70
     0
  9
$USERI3
 70
     0
  9
$USERI4
 70
     0
  9
$USERI5
 70
     0
  9
$USERR1
 40
0.0
  9
$USERR2
 40
0.0
  9
$USERR3
 40
0.0
  9
$USERR4
 40
0.0
  9
$USERR5
 40
0.0
  9
$WORLDVIEW
 70
     1
  9
$SHADEDGE
 70
     3
  9
$SHADEDIF
 70
    70
  9
$TILEMODE
 70
     1
  9
$MAXACTVP
 70
    64
  9
$PLIMCHECK
 70
     0
  9
$PEXTMIN
 10
1.000000000000000E+20
 20
1.000000000000000E+20
 30
1.000000000000000E+20
  9
$PEXTMAX
 10
-1.000000000000000E+20
 20
-1.000000000000000E+20
 30
-1.000000000000000E+20
  9
$PLIMMIN
 10
0.0
 20
0.0
  9
$PLIMMAX
 10
12.0
 20
9.0
  9
$UNITMODE
 70
     0
  9
$VISRETAIN
 70
     1
  9
$PLINEGEN
 70
     0
  9
$PSLTSCALE
 70
     1
  0
ENDSEC
  0
SECTION
  2
TABLES
  0
TABLE
  2
VPORT
 70
     1
  0
VPORT
  2
*ACTIVE
 70
     0
 10
0.0
 20
0.0
 11
1.0
 21
1.0
 12
8.18563683746382
 22
-4.499325785300996
 13
0.0
 23
0.0
 14
0.5
 24
0.5
 15
0.5
 25
0.5
 16
-1.0
 26
-1.0
 36
1.0
 17
0.0
 27
0.0
 37
0.0
 40
109.2256568693106
 41
7.834909335037879
 42
50.0
 43
0.0
 44
0.0
 50
0.0
 51
0.0
 71
    16
 72
   100
 73
     0
 74
     1
 75
     0
 76
     0
 77
     0
 78
     0
  0
ENDTAB
  0
TABLE
  2
LTYPE
 70
     1
  0
LTYPE
  2
CONTINUOUS
 70
     0
  3
Solid line
 72
    65
 73
     0
 40
0.0
  0
ENDTAB
  0
TABLE
  2
LAYER
 70
     2
  0
LAYER
  2
0
 70
     0
 62
     7
  6
CONTINUOUS
  0
LAYER
  2
METAL
 70
     0
 62
   194
  6
CONTINUOUS
  0
ENDTAB
  0
TABLE
  2
STYLE
 70
     1
  0
STYLE
  2
STANDARD
 70
     0
 40
0.0
 41
1.0
 50
0.0
 71
     0
 42
0.2
  3
txt
  4

  0
ENDTAB
  0
TABLE
  2
VIEW
 70
     0
  0
ENDTAB
  0
TABLE
  2
UCS
 70
     0
  0
ENDTAB
  0
TABLE
  2
APPID
 70
     1
  0
APPID
  2
ACAD
 70
     0
  0
ENDTAB
  0
TABLE
  2
DIMSTYLE
 70
     1
  0
DIMSTYLE
  2
STANDARD
 70
     0
  3

  4

  5

  6

  7

 40
1.0
 41
0.18
 42
0.0625
 43
0.38
 44
0.18
 45
0.0
 46
0.0
 47
0.0
 48
0.0
140
0.18
141
0.09
142
0.0
143
25.4
144
1.0
145
0.0
146
1.0
147
0.09
 71
     0
 72
     0
 73
     1
 74
     1
 75
     0
 76
     0
 77
     0
 78
     0
170
     0
171
     2
172
     0
173
     0
174
     0
175
     0
176
     0
177
     0
178
     0
  0
ENDTAB
  0
ENDSEC
  0
SECTION
  2
BLOCKS
  0
BLOCK
  8
0
  2
$MODEL_SPACE
 70
     0
 10
0.0
 20
0.0
 30
0.0
  3
$MODEL_SPACE
  1

  0
ENDBLK
  5
21
  8
0
  0
BLOCK
 67
     1
  8
0
  2
$PAPER_SPACE
 70
     0
 10
0.0
 20
0.0
 30
0.0
  3
$PAPER_SPACE
  1

  0
ENDBLK
  5
76
 67
     1
  8
0
  0
ENDSEC
  0
SECTION
  2
ENTITIES
  0
POLYLINE
  5
3C
  8
METAL
 66
     1
 10
0.0
 20
0.0
 30
0.0
 70
    64
 71
   224
 72
   194
  0
VERTEX
  5
3D
  8
METAL
 10
84.21098327636719
 20
-0.000001907348631
 30
3.8442029953003
 70
   192
  0
VERTEX
  5
3E
  8
METAL
 10
84.21098327636719
 20
-16.74336099624634
 30
0.1721000699326467
 70
   192
  0
VERTEX
  5
3F
  8
METAL
 10
84.21098327636719
 20
0.0
 30
-3.499995946884148
 70
   192
  0
VERTEX
  5
40
  8
METAL
 10
84.21098327636719
 20
-16.74336004257202
 30
-3.499999046325676
 70
   192
  0
VERTEX
  5
41
  8
METAL
 10
84.21098327636719
 20
-20.52855110168457
 30
-3.5
 70
   192
  0
VERTEX
  5
42
  8
METAL
 10
83.9777603149414
 20
-20.43850517272949
 30
-4.25
 70
   192
  0
VERTEX
  5
43
  8
METAL
 10
83.96565246582031
 20
-16.69528293609619
 30
-4.249999046325676
 70
   192
  0
VERTEX
  5
44
  8
METAL
 10
83.96098327636719
 20
-0.000001907348631
 30
4.5942029953003
 70
   192
  0
VERTEX
  5
45
  8
METAL
 10
83.96098327636719
 20
0.0
 30
-4.249995708465569
 70
   192
  0
VERTEX
  5
46
  8
METAL
 10
83.94287872314453
 20
-21.86907196044922
 30
-3.5
 70
   192
  0
VERTEX
  5
47
  8
METAL
 10
83.2780990600586
 20
-20.16836929321289
 30
-4.5
 70
   192
  0
VERTEX
  5
48
  8
METAL
 10
83.22964477539062
 20
-16.55105400085449
 30
-4.499999046325676
 70
   192
  0
VERTEX
  5
49
  8
METAL
 10
83.21098327636719
 20
-0.000001907348631
 30
4.8442029953003
 70
   192
  0
VERTEX
  5
4A
  8
METAL
 10
83.13856506347656
 20
-22.67338562011719
 30
-3.5
 70
   192
  0
VERTEX
  5
4B
  8
METAL
 10
83.03832244873047
 20
-21.44272422790527
 30
4.844199180603027
 70
   192
  0
VERTEX
  5
4C
  8
METAL
 10
82.25749969482422
 20
-22.2003984451294
 30
4.844199180603027
 70
   192
  0
VERTEX
  5
4D
  8
METAL
 10
81.79804229736328
 20
-22.94149017333984
 30
-3.5
 70
   192
  0
VERTEX
  5
4E
  8
METAL
 10
81.58265686035156
 20
-22.81456756591797
 30
4.594199180603027
 70
   192
  0
VERTEX
  5
4F
  8
METAL
 10
80.9365119934082
 20
-22.43379020690918
 30
4.844199180603027
 70
   192
  0
VERTEX
  5
50
  8
METAL
 10
72.89776992797852
 20
0.0
 30
-4.499995708465569
 70
   192
  0
VERTEX
  5
51
  8
METAL
 10
72.87910461425781
 20
-14.52272486686707
 30
-4.499999046325676
 70
   192
  0
VERTEX
  5
52
  8
METAL
 10
72.56254577636719
 20
-16.03112602233887
 30
4.844200134277351
 70
   192
  0
VERTEX
  5
53
  8
METAL
 10
72.56254577636719
 20
-16.03112506866455
 30
-4.499999046325676
 70
   192
  0
VERTEX
  5
54
  8
METAL
 10
72.26611709594727
 20
-16.36539888381958
 30
4.844200134277351
 70
   192
  0
VERTEX
  5
55
  8
METAL
 10
72.14776992797852
 20
0.0
 30
-4.249995708465569
 70
   192
  0
VERTEX
  5
56
  8
METAL
 10
72.14310455322266
 20
-14.37849688529968
 30
4.594201087951667
 70
   192
  0
VERTEX
  5
57
  8
METAL
 10
71.97452926635742
 20
-16.68014097213745
 30
4.844200134277351
 70
   192
  0
VERTEX
  5
58
  8
METAL
 10
71.89776992797852
 20
-14.33042097091675
 30
3.844201087951667
 70
   192
  0
VERTEX
  5
1EC
  8
METAL
 10
71.89776992797852
 20
-0.000003814697271
 30
0.1721030706539821
 70
   192
  0
VERTEX
  5
1ED
  8
METAL
 10
71.89776992797852
 20
-14.33042097091675
 30
0.1721010701730918
 70
   192
  0
VERTEX
  5
5B
  8
METAL
 10
71.89776992797852
 20
-22.94149398803711
 30
0.1721000699326396
 70
   192
  0
VERTEX
  5
5C
  8
METAL
 10
71.89776992797852
 20
-22.94149017333984
 30
-3.5
 70
   192
  0
VERTEX
  5
5D
  8
METAL
 10
71.86288452148438
 20
-15.76098871231079
 30
4.594200134277351
 70
   192
  0
VERTEX
  5
1EE
  8
METAL
 10
71.80707550048828
 20
-22.70852470397949
 30
4.594199180603027
 70
   192
  0
VERTEX
  5
5F
  8
METAL
 10
71.68688583374023
 20
-16.98295783996582
 30
-4.499999046325676
 70
   192
  0
VERTEX
  5
60
  8
METAL
 10
71.62966537475586
 20
-15.67094278335571
 30
3.844200134277351
 70
   192
  0
VERTEX
  5
61
  8
METAL
 10
71.62966537475586
 20
-15.67094373703003
 30
0.1721010701730918
 70
   192
  0
VERTEX
  5
62
  8
METAL
 10
71.58769989013672
 20
-16.04563570022583
 30
4.594200134277351
 70
   192
  0
VERTEX
  5
63
  8
METAL
 10
71.53498840332031
 20
-22.00961685180664
 30
4.844199180603027
 70
   192
  0
VERTEX
  5
64
  8
METAL
 10
71.3615608215332
 20
-15.93904781341553
 30
3.844200134277351
 70
   192
  0
VERTEX
  5
65
  8
METAL
 10
71.3615608215332
 20
-15.93904781341553
 30
0.1721010701730918
 70
   192
  0
VERTEX
  5
66
  8
METAL
 10
71.31372833251953
 20
-16.32539892196655
 30
4.594200134277351
 70
   192
  0
VERTEX
  5
67
  8
METAL
 10
71.09346008300781
 20
-16.20715188980103
 30
3.844200134277351
 70
   192
  0
VERTEX
  5
68
  8
METAL
 10
71.09346008300781
 20
-16.20715188980103
 30
0.1721000699326467
 70
   192
  0
VERTEX
  5
69
  8
METAL
 10
71.04073715209961
 20
-16.60218191146851
 30
4.594200134277351
 70
   192
  0
VERTEX
  5
6A
  8
METAL
 10
70.82535552978516
 20
-16.47525691986084
 30
3.844200134277351
 70
   192
  0
VERTEX
  5
1EF
  8
METAL
 10
70.82535552978516
 20
-16.47525691986084
 30
0.1721000699326467
 70
   192
  0
VERTEX
  5
1F0
  8
METAL
 10
69.84761428833008
 20
-17.67523384094238
 30
-4.499999046325676
 70
   192
  0
VERTEX
  5
6D
  8
METAL
 10
69.57552719116211
 20
-16.9763298034668
 30
4.594200134277351
 70
   192
  0
VERTEX
  5
6E
  8
METAL
 10
69.48483276367188
 20
-16.74336099624634
 30
3.844200134277351
 70
   192
  0
VERTEX
  5
6F
  8
METAL
 10
69.48483276367188
 20
-16.74336194992065
 30
0.1721000699326467
 70
   192
  0
VERTEX
  5
70
  8
METAL
 10
-69.27384757995611
 20
-16.74336099624634
 30
3.844200134277351
 70
   192
  0
VERTEX
  5
71
  8
METAL
 10
-69.27384757995611
 20
-16.74336194992065
 30
0.1721000699326467
 70
   192
  0
VERTEX
  5
72
  8
METAL
 10
-69.3645439147949
 20
-16.9763298034668
 30
4.594200134277351
 70
   192
  0
VERTEX
  5
1F1
  8
METAL
 10
-69.6366271972656
 20
-17.67523384094238
 30
-4.499999046325676
 70
   192
  0
VERTEX
  5
1F2
  8
METAL
 10
-70.61437034606931
 20
-16.47525691986084
 30
3.844200134277351
 70
   192
  0
VERTEX
  5
1F3
  8
METAL
 10
-70.61437034606931
 20
-16.47525691986084
 30
0.1721000699326467
 70
   192
  0
VERTEX
  5
1F4
  8
METAL
 10
-70.8297538757324
 20
-16.60218191146851
 30
4.594200134277351
 70
   192
  0
VERTEX
  5
77
  8
METAL
 10
-70.88247489929199
 20
-16.20715188980103
 30
3.844200134277351
 70
   192
  0
VERTEX
  5
78
  8
METAL
 10
-70.88247489929199
 20
-16.20715188980103
 30
0.1721000699326467
 70
   192
  0
VERTEX
  5
79
  8
METAL
 10
-71.15057754516599
 20
-15.93904781341553
 30
3.844200134277351
 70
   192
  0
VERTEX
  5
7A
  8
METAL
 10
-71.15057754516599
 20
-15.93904781341553
 30
0.1721010701730918
 70
   192
  0
VERTEX
  5
7B
  8
METAL
 10
-71.32400703430179
 20
-22.00961685180664
 30
4.844199180603027
 70
   192
  0
VERTEX
  5
7C
  8
METAL
 10
-71.4186820983887
 20
-15.67094278335571
 30
3.844200134277351
 70
   192
  0
VERTEX
  5
7D
  8
METAL
 10
-71.4186820983887
 20
-15.67094373703003
 30
0.1721010701730918
 70
   192
  0
VERTEX
  5
7E
  8
METAL
 10
-71.47590255737299
 20
-16.98295974731445
 30
4.844200134277351
 70
   192
  0
VERTEX
  5
7F
  8
METAL
 10
-71.5960922241211
 20
-22.70852470397949
 30
4.594199180603027
 70
   192
  0
VERTEX
  5
80
  8
METAL
 10
-71.65190315246579
 20
-15.76098871231079
 30
4.594200134277351
 70
   192
  0
VERTEX
  5
81
  8
METAL
 10
-71.6867866516113
 20
-0.000001907348631
 30
3.8442029953003
 70
   192
  0
VERTEX
  5
82
  8
METAL
 10
-71.6867866516113
 20
-14.33042097091675
 30
3.844201087951667
 70
   192
  0
VERTEX
  5
83
  8
METAL
 10
-71.6867866516113
 20
-22.94149398803711
 30
0.1721000699326396
 70
   192
  0
VERTEX
  5
84
  8
METAL
 10
-71.6867866516113
 20
0.0
 30
-3.499995946884148
 70
   192
  0
VERTEX
  5
85
  8
METAL
 10
-71.6867866516113
 20
-22.94149017333984
 30
-3.5
 70
   192
  0
VERTEX
  5
86
  8
METAL
 10
-71.763542175293
 20
-16.68014097213745
 30
4.844200134277351
 70
   192
  0
VERTEX
  5
87
  8
METAL
 10
-71.9321212768555
 20
-14.37849593162537
 30
-4.249999046325676
 70
   192
  0
VERTEX
  5
88
  8
METAL
 10
-71.9367866516113
 20
-0.000001907348631
 30
4.5942029953003
 70
   192
  0
VERTEX
  5
89
  8
METAL
 10
-71.9367866516113
 20
0.0
 30
-4.249995708465569
 70
   192
  0
VERTEX
  5
8A
  8
METAL
 10
-72.05513763427729
 20
-16.36539888381958
 30
4.844200134277351
 70
   192
  0
VERTEX
  5
8B
  8
METAL
 10
-72.3515644073486
 20
-16.03112506866455
 30
-4.499999046325676
 70
   192
  0
VERTEX
  5
8C
  8
METAL
 10
-72.66812324523929
 20
-14.52272486686707
 30
-4.499999046325676
 70
   192
  0
VERTEX
  5
8D
  8
METAL
 10
-72.6867866516113
 20
-0.000001907348631
 30
4.8442029953003
 70
   192
  0
VERTEX
  5
8E
  8
METAL
 10
-80.72552871704099
 20
-22.43379020690918
 30
4.844199180603027
 70
   192
  0
VERTEX
  5
8F
  8
METAL
 10
-81.37167739868161
 20
-22.81456565856934
 30
-4.25
 70
   192
  0
VERTEX
  5
90
  8
METAL
 10
-81.5870590209961
 20
-22.94149017333984
 30
-3.5
 70
   192
  0
VERTEX
  5
91
  8
METAL
 10
-82.0465126037598
 20
-22.2003984451294
 30
4.844199180603027
 70
   192
  0
VERTEX
  5
1F5
  8
METAL
 10
-82.70731353759771
 20
-22.55513954162598
 30
-4.25
 70
   192
  0
VERTEX
  5
1F6
  8
METAL
 10
-82.82733535766599
 20
-21.44272232055664
 30
-4.5
 70
   192
  0
VERTEX
  5
94
  8
METAL
 10
-82.9275817871094
 20
-22.67338562011719
 30
-3.5
 70
   192
  0
VERTEX
  5
95
  8
METAL
 10
-82.9999961853027
 20
0.0
 30
-4.499995708465569
 70
   192
  0
VERTEX
  5
96
  8
METAL
 10
-83.01866149902341
 20
-16.55105400085449
 30
-4.499999046325676
 70
   192
  0
VERTEX
  5
1F7
  8
METAL
 10
-83.0671157836914
 20
-20.16836929321289
 30
-4.5
 70
   192
  0
VERTEX
  5
1F8
  8
METAL
 10
-83.50575256347659
 20
-21.76248550415039
 30
-4.25
 70
   192
  0
VERTEX
  5
99
  8
METAL
 10
-83.7318916320801
 20
-21.86907196044922
 30
-3.5
 70
   192
  0
VERTEX
  5
9A
  8
METAL
 10
-83.7499961853027
 20
0.0
 30
-4.249995708465569
 70
   192
  0
VERTEX
  5
9B
  8
METAL
 10
-83.75466537475589
 20
-16.69528293609619
 30
-4.249999046325676
 70
   192
  0
VERTEX
  5
9C
  8
METAL
 10
-83.76677703857419
 20
-20.43850517272949
 30
-4.25
 70
   192
  0
VERTEX
  5
9D
  8
METAL
 10
-83.9999961853027
 20
0.0
 30
-3.499995946884148
 70
   192
  0
VERTEX
  5
9E
  8
METAL
 10
-83.9999961853027
 20
-16.74336004257202
 30
-3.499999046325676
 70
   192
  0
VERTEX
  5
9F
  8
METAL
 10
-83.9999961853027
 20
-20.52855110168457
 30
-3.5
 70
   192
  0
VERTEX
  5
A0
  8
METAL
 10
-84.0
 20
-0.000001907348631
 30
3.8442029953003
 70
   192
  0
VERTEX
  5
A1
  8
METAL
 10
-84.0
 20
-0.000001907348631
 30
0.1721030706539821
 70
   192
  0
VERTEX
  5
A2
  8
METAL
 10
-84.0
 20
-16.74336099624634
 30
0.1721000699326467
 70
   192
  0
VERTEX
  5
A3
  8
METAL
 10
-84.0
 20
-20.5285530090332
 30
0.1721000699326396
 70
   192
  0
VERTEX
  5
A4
  8
METAL
 10
-84.0
 20
-0.000001907348631
 30
0.1721030706539821
 70
   192
  0
VERTEX
  5
A5
  8
METAL
 10
-84.0
 20
-20.5285530090332
 30
3.844199180603034
 70
   192
  0
VERTEX
  5
A6
  8
METAL
 10
-84.0
 20
-16.74336099624634
 30
3.844200134277351
 70
   192
  0
VERTEX
  5
A7
  8
METAL
 10
-84.0
 20
-0.000001907348631
 30
3.8442029953003
 70
   192
  0
VERTEX
  5
A8
  8
METAL
 10
-83.9999961853027
 20
0.0
 30
-3.499995946884148
 70
   192
  0
VERTEX
  5
A9
  8
METAL
 10
-83.76677703857419
 20
-20.43850708007812
 30
4.594199180603027
 70
   192
  0
VERTEX
  5
AA
  8
METAL
 10
-83.75466537475589
 20
-16.69528388977051
 30
4.594200134277351
 70
   192
  0
VERTEX
  5
AB
  8
METAL
 10
-83.75
 20
-0.000001907348631
 30
4.5942029953003
 70
   192
  0
VERTEX
  5
AC
  8
METAL
 10
-83.75
 20
-0.000001907348631
 30
4.5942029953003
 70
   192
  0
VERTEX
  5
AD
  8
METAL
 10
-83.7499961853027
 20
0.0
 30
-4.249995708465569
 70
   192
  0
VERTEX
  5
AE
  8
METAL
 10
-83.73189544677729
 20
-21.86907577514648
 30
0.1721000699326396
 70
   192
  0
VERTEX
  5
AF
  8
METAL
 10
-83.73189544677729
 20
-21.86907386779785
 30
3.844199180603027
 70
   192
  0
VERTEX
  5
B0
  8
METAL
 10
-83.5057563781738
 20
-21.76248836517334
 30
4.594199180603027
 70
   192
  0
VERTEX
  5
B1
  8
METAL
 10
-83.0671157836914
 20
-20.16837120056152
 30
4.844200134277344
 70
   192
  0
VERTEX
  5
B2
  8
METAL
 10
-83.0186653137207
 20
-16.55105495452881
 30
4.844200134277351
 70
   192
  0
VERTEX
  5
B3
  8
METAL
 10
-83.0
 20
-0.000001907348631
 30
4.8442029953003
 70
   192
  0
VERTEX
  5
B4
  8
METAL
 10
-83.0
 20
-0.000001907348631
 30
4.8442029953003
 70
   192
  0
VERTEX
  5
B5
  8
METAL
 10
-82.9999961853027
 20
0.0
 30
-4.499995708465569
 70
   192
  0
VERTEX
  5
B6
  8
METAL
 10
-82.9275817871094
 20
-22.67338943481445
 30
0.1721000699326396
 70
   192
  0
VERTEX
  5
B7
  8
METAL
 10
-82.9275817871094
 20
-22.67338752746582
 30
3.844199180603027
 70
   192
  0
VERTEX
  5
B8
  8
METAL
 10
-82.82733535766599
 20
-21.44272422790527
 30
4.844199180603027
 70
   192
  0
VERTEX
  5
B9
  8
METAL
 10
-82.70731353759771
 20
-22.55514144897461
 30
4.594199180603027
 70
   192
  0
VERTEX
  5
BA
  8
METAL
 10
-82.0465126037598
 20
-22.20039749145508
 30
-4.5
 70
   192
  0
VERTEX
  5
BB
  8
METAL
 10
-81.5870590209961
 20
-22.94149398803711
 30
0.1721000699326396
 70
   192
  0
VERTEX
  5
BC
  8
METAL
 10
-81.5870590209961
 20
-22.94149208068848
 30
3.844199180603027
 70
   192
  0
VERTEX
  5
BD
  8
METAL
 10
-81.37167739868161
 20
-22.81456756591797
 30
4.594199180603027
 70
   192
  0
VERTEX
  5
BE
  8
METAL
 10
-80.72552871704099
 20
-22.43378829956055
 30
-4.5
 70
   192
  0
VERTEX
  5
BF
  8
METAL
 10
-72.6867866516113
 20
0.0
 30
-4.499995708465569
 70
   192
  0
VERTEX
  5
C0
  8
METAL
 10
-72.6867866516113
 20
0.0
 30
-4.499995708465569
 70
   192
  0
VERTEX
  5
C1
  8
METAL
 10
-72.6867866516113
 20
-0.000001907348631
 30
4.8442029953003
 70
   192
  0
VERTEX
  5
C2
  8
METAL
 10
-72.66812324523929
 20
-14.52272701263428
 30
4.84420108795166
 70
   192
  0
VERTEX
  5
C3
  8
METAL
 10
-72.3515644073486
 20
-16.03112602233887
 30
4.844200134277351
 70
   192
  0
VERTEX
  5
C4
  8
METAL
 10
-72.05513763427729
 20
-16.36539697647095
 30
-4.499999046325676
 70
   192
  0
VERTEX
  5
C5
  8
METAL
 10
-71.9367866516113
 20
0.0
 30
-4.249995708465569
 70
   192
  0
VERTEX
  5
C6
  8
METAL
 10
-71.9367866516113
 20
-0.000001907348631
 30
4.5942029953003
 70
   192
  0
VERTEX
  5
C7
  8
METAL
 10
-71.9321212768555
 20
-14.378497838974
 30
4.594201087951667
 70
   192
  0
VERTEX
  5
C8
  8
METAL
 10
-71.7635440826416
 20
-16.68013906478882
 30
-4.499999046325676
 70
   192
  0
VERTEX
  5
C9
  8
METAL
 10
-71.6867866516113
 20
-14.33042001724243
 30
-3.499999046325676
 70
   192
  0
VERTEX
  5
CA
  8
METAL
 10
-71.6867866516113
 20
0.0
 30
-3.499995946884148
 70
   192
  0
VERTEX
  5
CB
  8
METAL
 10
-71.6867866516113
 20
-14.33042097091675
 30
0.1721010701730918
 70
   192
  0
VERTEX
  5
CC
  8
METAL
 10
-71.6867866516113
 20
-0.000003814697271
 30
0.1721030706539821
 70
   192
  0
VERTEX
  5
CD
  8
METAL
 10
-71.6867866516113
 20
-0.000003814697271
 30
0.1721030706539821
 70
   192
  0
VERTEX
  5
CE
  8
METAL
 10
-71.6867866516113
 20
-22.94149208068848
 30
3.844199180603027
 70
   192
  0
VERTEX
  5
CF
  8
METAL
 10
-71.6867866516113
 20
-0.000001907348631
 30
3.8442029953003
 70
   192
  0
VERTEX
  5
D0
  8
METAL
 10
-71.65190315246579
 20
-15.76098775863647
 30
-4.249999046325676
 70
   192
  0
VERTEX
  5
D1
  8
METAL
 10
-71.5960922241211
 20
-22.70852279663086
 30
-4.25
 70
   192
  0
VERTEX
  5
D2
  8
METAL
 10
-71.47590255737299
 20
-16.98295783996582
 30
-4.499999046325676
 70
   192
  0
VERTEX
  5
D3
  8
METAL
 10
-71.4186820983887
 20
-15.6709418296814
 30
-3.499999046325676
 70
   192
  0
VERTEX
  5
D4
  8
METAL
 10
-71.37671852111819
 20
-16.0456337928772
 30
-4.249999046325676
 70
   192
  0
VERTEX
  5
D5
  8
METAL
 10
-71.37671852111819
 20
-16.04563570022583
 30
4.594200134277351
 70
   192
  0
VERTEX
  5
D6
  8
METAL
 10
-71.32400703430179
 20
-22.00961494445801
 30
-4.5
 70
   192
  0
VERTEX
  5
D7
  8
METAL
 10
-71.15057754516599
 20
-15.93904590606689
 30
-3.499999046325676
 70
   192
  0
VERTEX
  5
D8
  8
METAL
 10
-71.1027412414551
 20
-16.32539796829224
 30
-4.249999046325676
 70
   192
  0
VERTEX
  5
D9
  8
METAL
 10
-71.1027412414551
 20
-16.32539892196655
 30
4.594200134277351
 70
   192
  0
VERTEX
  5
DA
  8
METAL
 10
-70.88247489929199
 20
-16.20715093612671
 30
-3.499999046325676
 70
   192
  0
VERTEX
  5
DB
  8
METAL
 10
-70.8297538757324
 20
-16.60218095779419
 30
-4.249999046325676
 70
   192
  0
VERTEX
  5
DC
  8
METAL
 10
-70.61437034606931
 20
-16.47525501251221
 30
-3.499999046325676
 70
   192
  0
VERTEX
  5
DD
  8
METAL
 10
-69.6366271972656
 20
-17.67523574829102
 30
4.844200134277351
 70
   192
  0
VERTEX
  5
DE
  8
METAL
 10
-69.3645439147949
 20
-16.97632789611816
 30
-4.249999046325676
 70
   192
  0
VERTEX
  5
DF
  8
METAL
 10
-69.27384757995611
 20
-16.74336004257202
 30
-3.499999046325676
 70
   192
  0
VERTEX
  5
E0
  8
METAL
 10
69.48483276367188
 20
-16.74336004257202
 30
-3.499999046325676
 70
   192
  0
VERTEX
  5
E1
  8
METAL
 10
69.57552719116211
 20
-16.97632789611816
 30
-4.249999046325676
 70
   192
  0
VERTEX
  5
E2
  8
METAL
 10
69.84761428833008
 20
-17.67523574829102
 30
4.844200134277351
 70
   192
  0
VERTEX
  5
E3
  8
METAL
 10
70.82535552978516
 20
-16.47525501251221
 30
-3.499999046325676
 70
   192
  0
VERTEX
  5
E4
  8
METAL
 10
71.04073715209961
 20
-16.60218095779419
 30
-4.249999046325676
 70
   192
  0
VERTEX
  5
E5
  8
METAL
 10
71.09346008300781
 20
-16.20715093612671
 30
-3.499999046325676
 70
   192
  0
VERTEX
  5
E6
  8
METAL
 10
71.31372833251953
 20
-16.32539796829224
 30
-4.249999046325676
 70
   192
  0
VERTEX
  5
E7
  8
METAL
 10
71.3615608215332
 20
-15.93904590606689
 30
-3.499999046325676
 70
   192
  0
VERTEX
  5
E8
  8
METAL
 10
71.53498840332031
 20
-22.00961494445801
 30
-4.5
 70
   192
  0
VERTEX
  5
E9
  8
METAL
 10
71.58769989013672
 20
-16.0456337928772
 30
-4.249999046325676
 70
   192
  0
VERTEX
  5
EA
  8
METAL
 10
71.62966537475586
 20
-15.6709418296814
 30
-3.499999046325676
 70
   192
  0
VERTEX
  5
EB
  8
METAL
 10
71.68688583374023
 20
-16.98295974731445
 30
4.844200134277351
 70
   192
  0
VERTEX
  5
EC
  8
METAL
 10
71.80707550048828
 20
-22.70852279663086
 30
-4.25
 70
   192
  0
VERTEX
  5
ED
  8
METAL
 10
71.86288452148438
 20
-15.76098775863647
 30
-4.249999046325676
 70
   192
  0
VERTEX
  5
EE
  8
METAL
 10
71.89776992797852
 20
-14.33042001724243
 30
-3.499999046325676
 70
   192
  0
VERTEX
  5
EF
  8
METAL
 10
71.89776992797852
 20
0.0
 30
-3.499995946884148
 70
   192
  0
VERTEX
  5
F0
  8
METAL
 10
71.89776992797852
 20
0.0
 30
-3.499995946884148
 70
   192
  0
VERTEX
  5
F1
  8
METAL
 10
71.89776992797852
 20
-0.000003814697271
 30
0.1721030706539821
 70
   192
  0
VERTEX
  5
F2
  8
METAL
 10
71.89776992797852
 20
-22.94149208068848
 30
3.844199180603027
 70
   192
  0
VERTEX
  5
F3
  8
METAL
 10
71.89776992797852
 20
-0.000001907348631
 30
3.8442029953003
 70
   192
  0
VERTEX
  5
F4
  8
METAL
 10
71.89776992797852
 20
-0.000001907348631
 30
3.8442029953003
 70
   192
  0
VERTEX
  5
F5
  8
METAL
 10
71.97452926635742
 20
-16.68013906478882
 30
-4.499999046325676
 70
   192
  0
VERTEX
  5
F6
  8
METAL
 10
72.14310455322266
 20
-14.37849593162537
 30
-4.249999046325676
 70
   192
  0
VERTEX
  5
F7
  8
METAL
 10
72.14776992797852
 20
0.0
 30
-4.249995708465569
 70
   192
  0
VERTEX
  5
F8
  8
METAL
 10
72.14776992797852
 20
-0.000001907348631
 30
4.5942029953003
 70
   192
  0
VERTEX
  5
F9
  8
METAL
 10
72.14776992797852
 20
-0.000001907348631
 30
4.5942029953003
 70
   192
  0
VERTEX
  5
FA
  8
METAL
 10
72.26611709594727
 20
-16.36539697647095
 30
-4.499999046325676
 70
   192
  0
VERTEX
  5
FB
  8
METAL
 10
72.87910461425781
 20
-14.52272701263428
 30
4.84420108795166
 70
   192
  0
VERTEX
  5
FC
  8
METAL
 10
72.89776992797852
 20
0.0
 30
-4.499995708465569
 70
   192
  0
VERTEX
  5
FD
  8
METAL
 10
72.89776992797852
 20
-0.000001907348631
 30
4.8442029953003
 70
   192
  0
VERTEX
  5
FE
  8
METAL
 10
72.89776992797852
 20
-0.000001907348631
 30
4.8442029953003
 70
   192
  0
VERTEX
  5
FF
  8
METAL
 10
80.9365119934082
 20
-22.43378829956055
 30
-4.5
 70
   192
  0
VERTEX
  5
100
  8
METAL
 10
81.58265686035156
 20
-22.81456565856934
 30
-4.25
 70
   192
  0
VERTEX
  5
101
  8
METAL
 10
81.79804229736328
 20
-22.94149398803711
 30
0.1721000699326396
 70
   192
  0
VERTEX
  5
102
  8
METAL
 10
81.79804229736328
 20
-22.94149208068848
 30
3.844199180603027
 70
   192
  0
VERTEX
  5
103
  8
METAL
 10
82.25749969482422
 20
-22.20039749145508
 30
-4.5
 70
   192
  0
VERTEX
  5
104
  8
METAL
 10
82.91829681396484
 20
-22.55513954162598
 30
-4.25
 70
   192
  0
VERTEX
  5
105
  8
METAL
 10
82.91829681396484
 20
-22.55514144897461
 30
4.594199180603027
 70
   192
  0
VERTEX
  5
106
  8
METAL
 10
83.03832244873047
 20
-21.44272232055664
 30
-4.5
 70
   192
  0
VERTEX
  5
107
  8
METAL
 10
83.13856506347656
 20
-22.67338943481445
 30
0.1721000699326396
 70
   192
  0
VERTEX
  5
108
  8
METAL
 10
83.13856506347656
 20
-22.67338752746582
 30
3.844199180603027
 70
   192
  0
VERTEX
  5
109
  8
METAL
 10
83.21098327636719
 20
0.0
 30
-4.499995708465569
 70
   192
  0
VERTEX
  5
10A
  8
METAL
 10
83.21098327636719
 20
0.0
 30
-4.499995708465569
 70
   192
  0
VERTEX
  5
10B
  8
METAL
 10
83.21098327636719
 20
-0.000001907348631
 30
4.8442029953003
 70
   192
  0
VERTEX
  5
10C
  8
METAL
 10
83.22964477539062
 20
-16.55105495452881
 30
4.844200134277351
 70
   192
  0
VERTEX
  5
10D
  8
METAL
 10
83.2780990600586
 20
-20.16837120056152
 30
4.844200134277344
 70
   192
  0
VERTEX
  5
10E
  8
METAL
 10
83.71673583984375
 20
-21.76248550415039
 30
-4.25
 70
   192
  0
VERTEX
  5
10F
  8
METAL
 10
83.71673583984375
 20
-21.76248836517334
 30
4.594199180603027
 70
   192
  0
VERTEX
  5
110
  8
METAL
 10
83.94287872314453
 20
-21.86907577514648
 30
0.1721000699326396
 70
   192
  0
VERTEX
  5
111
  8
METAL
 10
83.94287872314453
 20
-21.86907386779785
 30
3.844199180603027
 70
   192
  0
VERTEX
  5
112
  8
METAL
 10
83.96098327636719
 20
0.0
 30
-4.249995708465569
 70
   192
  0
VERTEX
  5
113
  8
METAL
 10
83.96098327636719
 20
-0.000001907348631
 30
4.5942029953003
 70
   192
  0
VERTEX
  5
114
  8
METAL
 10
83.96565246582031
 20
-16.69528388977051
 30
4.594200134277351
 70
   192
  0
VERTEX
  5
115
  8
METAL
 10
83.9777603149414
 20
-20.43850708007812
 30
4.594199180603027
 70
   192
  0
VERTEX
  5
116
  8
METAL
 10
84.21098327636719
 20
0.0
 30
-3.499995946884148
 70
   192
  0
VERTEX
  5
117
  8
METAL
 10
84.21098327636719
 20
-20.5285530090332
 30
0.1721000699326396
 70
   192
  0
VERTEX
  5
118
  8
METAL
 10
84.21098327636719
 20
-0.000001907348631
 30
0.1721030706539821
 70
   192
  0
VERTEX
  5
119
  8
METAL
 10
84.21098327636719
 20
-0.000001907348631
 30
0.1721030706539821
 70
   192
  0
VERTEX
  5
11A
  8
METAL
 10
84.21098327636719
 20
-20.5285530090332
 30
3.844199180603034
 70
   192
  0
VERTEX
  5
11B
  8
METAL
 10
84.21098327636719
 20
-16.74336099624634
 30
3.844200134277351
 70
   192
  0
VERTEX
  5
11C
  8
METAL
 10
84.21098327636719
 20
-0.000001907348631
 30
3.8442029953003
 70
   192
  0
VERTEX
  5
11D
  8
METAL
 10
0.0
 20
0.0
 30
0.0
 70
   128
 71
   161
 72
    63
 73
    39
 74
   166
  0
VERTEX
  5
11E
  8
METAL
 10
0.0
 20
0.0
 30
0.0
 70
   128
 71
   123
 72
   122
 73
   127
 74
   128
  0
VERTEX
  5
11F
  8
METAL
 10
0.0
 20
0.0
 30
0.0
 70
   128
 71
   115
 72
   114
 73
   122
 74
   123
  0
VERTEX
  5
120
  8
METAL
 10
0.0
 20
0.0
 30
0.0
 70
   128
 71
   105
 72
   103
 73
   114
 74
   115
  0
VERTEX
  5
121
  8
METAL
 10
0.0
 20
0.0
 30
0.0
 70
   128
 71
    66
 72
    82
 73
    63
 74
   161
  0
VERTEX
  5
122
  8
METAL
 10
0.0
 20
0.0
 30
0.0
 70
   128
 71
   107
 72
   101
 73
   102
 74
   106
  0
VERTEX
  5
123
  8
METAL
 10
0.0
 20
0.0
 30
0.0
 70
   128
 71
   134
 72
   133
 73
   119
 74
   118
  0
VERTEX
  5
124
  8
METAL
 10
0.0
 20
0.0
 30
0.0
 70
   128
 71
   135
 72
   134
 73
   118
 74
   117
  0
VERTEX
  5
125
  8
METAL
 10
0.0
 20
0.0
 30
0.0
 70
   128
 71
    74
 72
    85
 73
    82
 74
    66
  0
VERTEX
  5
126
  8
METAL
 10
0.0
 20
0.0
 30
0.0
 70
   128
 71
    56
 72
    57
 73
    60
 74
    59
  0
VERTEX
  5
127
  8
METAL
 10
0.0
 20
0.0
 30
0.0
 70
   128
 71
    78
 72
   124
 73
    85
 74
    74
  0
VERTEX
  5
128
  8
METAL
 10
0.0
 20
0.0
 30
0.0
 70
   128
 71
    78
 72
   135
 73
   117
 74
   124
  0
VERTEX
  5
129
  8
METAL
 10
0.0
 20
0.0
 30
0.0
 70
   128
 71
   104
 72
   100
 73
   112
 74
   120
  0
VERTEX
  5
12A
  8
METAL
 10
0.0
 20
0.0
 30
0.0
 70
   128
 71
   120
 72
    81
 73
   138
 74
    69
  0
VERTEX
  5
12B
  8
METAL
 10
0.0
 20
0.0
 30
0.0
 70
   128
 71
   120
 72
    69
 73
   145
 74
   104
  0
VERTEX
  5
12C
  8
METAL
 10
0.0
 20
0.0
 30
0.0
 70
   128
 71
   146
 72
   128
 73
   127
 74
    71
  0
VERTEX
  5
12D
  8
METAL
 10
0.0
 20
0.0
 30
0.0
 70
   128
 71
   105
 72
   106
 73
   102
 74
   103
  0
VERTEX
  5
12E
  8
METAL
 10
0.0
 20
0.0
 30
0.0
 70
   128
 71
    52
 72
    50
 73
    51
 74
    53
  0
VERTEX
  5
12F
  8
METAL
 10
0.0
 20
0.0
 30
0.0
 70
   128
 71
   147
 72
    70
 73
   143
 74
   144
  0
VERTEX
  5
130
  8
METAL
 10
0.0
 20
0.0
 30
0.0
 70
   128
 71
    56
 72
    52
 73
    53
 74
    57
  0
VERTEX
  5
131
  8
METAL
 10
0.0
 20
0.0
 30
0.0
 70
   128
 71
    61
 72
    59
 73
    60
 74
    62
  0
VERTEX
  5
132
  8
METAL
 10
0.0
 20
0.0
 30
0.0
 70
   128
 71
    70
 72
    64
 73
    65
 74
   143
  0
VERTEX
  5
133
  8
METAL
 10
0.0
 20
0.0
 30
0.0
 70
   128
 71
    64
 72
    61
 73
    62
 74
    65
  0
VERTEX
  5
134
  8
METAL
 10
0.0
 20
0.0
 30
0.0
 70
   128
 71
    55
 72
    48
 73
   172
 74
   154
  0
VERTEX
  5
135
  8
METAL
 10
0.0
 20
0.0
 30
0.0
 70
   128
 71
    32
 72
    31
 73
    71
 74
    73
  0
VERTEX
  5
136
  8
METAL
 10
0.0
 20
0.0
 30
0.0
 70
   128
 71
    88
 72
    84
 73
   127
 74
   122
  0
VERTEX
  5
137
  8
METAL
 10
0.0
 20
0.0
 30
0.0
 70
   128
 71
    93
 72
    88
 73
   122
 74
   114
  0
VERTEX
  5
138
  8
METAL
 10
0.0
 20
0.0
 30
0.0
 70
   128
 71
    99
 72
    93
 73
   114
 74
   103
  0
VERTEX
  5
139
  8
METAL
 10
0.0
 20
0.0
 30
0.0
 70
   128
 71
   150
 72
    55
 73
   154
 74
   130
  0
VERTEX
  5
13A
  8
METAL
 10
0.0
 20
0.0
 30
0.0
 70
   128
 71
   108
 72
    98
 73
   102
 74
   101
  0
VERTEX
  5
13B
  8
METAL
 10
0.0
 20
0.0
 30
0.0
 70
   128
 71
    80
 72
    90
 73
    89
 74
   131
  0
VERTEX
  5
13C
  8
METAL
 10
0.0
 20
0.0
 30
0.0
 70
   128
 71
    79
 72
    91
 73
    90
 74
    80
  0
VERTEX
  5
13D
  8
METAL
 10
0.0
 20
0.0
 30
0.0
 70
   128
 71
   140
 72
   150
 73
   130
 74
   126
  0
VERTEX
  5
13E
  8
METAL
 10
0.0
 20
0.0
 30
0.0
 70
   128
 71
   160
 72
   158
 73
    60
 74
    57
  0
VERTEX
  5
13F
  8
METAL
 10
0.0
 20
0.0
 30
0.0
 70
   128
 71
   136
 72
   140
 73
   126
 74
    87
  0
VERTEX
  5
140
  8
METAL
 10
0.0
 20
0.0
 30
0.0
 70
   128
 71
   136
 72
    87
 73
    91
 74
    79
  0
VERTEX
  5
141
  8
METAL
 10
0.0
 20
0.0
 30
0.0
 70
   128
 71
   145
 72
   142
 73
   137
 74
   132
  0
VERTEX
  5
142
  8
METAL
 10
0.0
 20
0.0
 30
0.0
 70
   128
 71
   132
 72
   121
 73
   113
 74
    97
  0
VERTEX
  5
143
  8
METAL
 10
0.0
 20
0.0
 30
0.0
 70
   128
 71
   145
 72
   132
 73
    97
 74
   104
  0
VERTEX
  5
144
  8
METAL
 10
0.0
 20
0.0
 30
0.0
 70
   128
 71
    73
 72
    71
 73
   127
 74
    84
  0
VERTEX
  5
145
  8
METAL
 10
0.0
 20
0.0
 30
0.0
 70
   128
 71
    99
 72
   103
 73
   102
 74
    98
  0
VERTEX
  5
146
  8
METAL
 10
0.0
 20
0.0
 30
0.0
 70
   128
 71
    51
 72
   164
 73
   163
 74
    53
  0
VERTEX
  5
147
  8
METAL
 10
0.0
 20
0.0
 30
0.0
 70
   128
 71
    72
 72
   144
 73
   143
 74
   141
  0
VERTEX
  5
148
  8
METAL
 10
0.0
 20
0.0
 30
0.0
 70
   128
 71
   160
 72
    57
 73
    53
 74
   163
  0
VERTEX
  5
149
  8
METAL
 10
0.0
 20
0.0
 30
0.0
 70
   128
 71
   155
 72
    62
 73
    60
 74
   158
  0
VERTEX
  5
14A
  8
METAL
 10
0.0
 20
0.0
 30
0.0
 70
   128
 71
   141
 72
   143
 73
    65
 74
   151
  0
VERTEX
  5
14B
  8
METAL
 10
0.0
 20
0.0
 30
0.0
 70
   128
 71
   151
 72
    65
 73
    62
 74
   155
  0
VERTEX
  5
14C
  8
METAL
 10
0.0
 20
0.0
 30
0.0
 70
   128
 71
   182
 72
   146
 73
    71
 74
    31
  0
VERTEX
  5
14D
  8
METAL
 10
0.0
 20
0.0
 30
0.0
 70
   128
 71
   204
 72
   198
 73
   197
 74
   203
  0
VERTEX
  5
14E
  8
METAL
 10
0.0
 20
0.0
 30
0.0
 70
   128
 71
   213
 72
   204
 73
   203
 74
   212
  0
VERTEX
  5
14F
  8
METAL
 10
0.0
 20
0.0
 30
0.0
 70
   128
 71
   222
 72
   213
 73
   212
 74
   219
  0
VERTEX
  5
150
  8
METAL
 10
0.0
 20
0.0
 30
0.0
 70
   128
 71
   175
 72
   166
 73
    39
 74
    19
  0
VERTEX
  5
151
  8
METAL
 10
0.0
 20
0.0
 30
0.0
 70
   128
 71
   224
 72
   223
 73
     2
 74
   220
  0
VERTEX
  5
152
  8
METAL
 10
0.0
 20
0.0
 30
0.0
 70
   128
 71
   191
 72
   208
 73
   207
 74
   193
  0
VERTEX
  5
153
  8
METAL
 10
0.0
 20
0.0
 30
0.0
 70
   128
 71
    22
 72
   209
 73
   208
 74
   191
  0
VERTEX
  5
154
  8
METAL
 10
0.0
 20
0.0
 30
0.0
 70
   128
 71
    27
 72
   175
 73
    19
 74
    16
  0
VERTEX
  5
155
  8
METAL
 10
0.0
 20
0.0
 30
0.0
 70
   128
 71
    46
 72
    43
 73
    44
 74
    47
  0
VERTEX
  5
156
  8
METAL
 10
0.0
 20
0.0
 30
0.0
 70
   128
 71
    24
 72
    27
 73
    16
 74
    15
  0
VERTEX
  5
157
  8
METAL
 10
0.0
 20
0.0
 30
0.0
 70
   128
 71
    24
 72
    15
 73
   209
 74
    22
  0
VERTEX
  5
158
  8
METAL
 10
0.0
 20
0.0
 30
0.0
 70
   128
 71
   181
 72
   184
 73
   189
 74
   194
  0
VERTEX
  5
159
  8
METAL
 10
0.0
 20
0.0
 30
0.0
 70
   128
 71
   194
 72
    13
 73
   215
 74
     1
  0
VERTEX
  5
15A
  8
METAL
 10
0.0
 20
0.0
 30
0.0
 70
   128
 71
   181
 72
   194
 73
     1
 74
   221
  0
VERTEX
  5
15B
  8
METAL
 10
0.0
 20
0.0
 30
0.0
 70
   128
 71
   182
 72
    31
 73
   197
 74
   198
  0
VERTEX
  5
15C
  8
METAL
 10
0.0
 20
0.0
 30
0.0
 70
   128
 71
   222
 72
   219
 73
     2
 74
   223
  0
VERTEX
  5
15D
  8
METAL
 10
0.0
 20
0.0
 30
0.0
 70
   128
 71
   183
 72
    29
 73
    30
 74
    28
  0
VERTEX
  5
15E
  8
METAL
 10
0.0
 20
0.0
 30
0.0
 70
   128
 71
    46
 72
    47
 73
    51
 74
    50
  0
VERTEX
  5
15F
  8
METAL
 10
0.0
 20
0.0
 30
0.0
 70
   128
 71
    40
 72
    41
 73
    44
 74
    43
  0
VERTEX
  5
160
  8
METAL
 10
0.0
 20
0.0
 30
0.0
 70
   128
 71
    28
 72
    30
 73
    37
 74
    36
  0
VERTEX
  5
161
  8
METAL
 10
0.0
 20
0.0
 30
0.0
 70
   128
 71
    36
 72
    37
 73
    41
 74
    40
  0
VERTEX
  5
162
  8
METAL
 10
0.0
 20
0.0
 30
0.0
 70
   128
 71
    14
 72
   203
 73
   197
 74
    17
  0
VERTEX
  5
163
  8
METAL
 10
0.0
 20
0.0
 30
0.0
 70
   128
 71
    10
 72
   212
 73
   203
 74
    14
  0
VERTEX
  5
164
  8
METAL
 10
0.0
 20
0.0
 30
0.0
 70
   128
 71
     5
 72
   219
 73
   212
 74
    10
  0
VERTEX
  5
165
  8
METAL
 10
0.0
 20
0.0
 30
0.0
 70
   128
 71
    35
 72
   195
 73
   172
 74
    48
  0
VERTEX
  5
166
  8
METAL
 10
0.0
 20
0.0
 30
0.0
 70
   128
 71
     3
 72
   220
 73
     2
 74
     4
  0
VERTEX
  5
167
  8
METAL
 10
0.0
 20
0.0
 30
0.0
 70
   128
 71
    21
 72
    20
 73
   205
 74
    12
  0
VERTEX
  5
168
  8
METAL
 10
0.0
 20
0.0
 30
0.0
 70
   128
 71
    23
 72
    21
 73
    12
 74
    11
  0
VERTEX
  5
169
  8
METAL
 10
0.0
 20
0.0
 30
0.0
 70
   128
 71
   185
 72
   199
 73
   195
 74
    35
  0
VERTEX
  5
16A
  8
METAL
 10
0.0
 20
0.0
 30
0.0
 70
   128
 71
   167
 72
    47
 73
    44
 74
   169
  0
VERTEX
  5
16B
  8
METAL
 10
0.0
 20
0.0
 30
0.0
 70
   128
 71
   190
 72
   202
 73
   199
 74
   185
  0
VERTEX
  5
16C
  8
METAL
 10
0.0
 20
0.0
 30
0.0
 70
   128
 71
   190
 72
    23
 73
    11
 74
   202
  0
VERTEX
  5
16D
  8
METAL
 10
0.0
 20
0.0
 30
0.0
 70
   128
 71
   221
 72
   218
 73
   214
 74
   206
  0
VERTEX
  5
16E
  8
METAL
 10
0.0
 20
0.0
 30
0.0
 70
   128
 71
   206
 72
   192
 73
   187
 74
   180
  0
VERTEX
  5
16F
  8
METAL
 10
0.0
 20
0.0
 30
0.0
 70
   128
 71
   206
 72
   180
 73
   181
 74
   221
  0
VERTEX
  5
170
  8
METAL
 10
0.0
 20
0.0
 30
0.0
 70
   128
 71
    32
 72
    17
 73
   197
 74
    31
  0
VERTEX
  5
171
  8
METAL
 10
0.0
 20
0.0
 30
0.0
 70
   128
 71
     5
 72
     4
 73
     2
 74
   219
  0
VERTEX
  5
172
  8
METAL
 10
0.0
 20
0.0
 30
0.0
 70
   128
 71
   179
 72
   178
 73
    30
 74
    29
  0
VERTEX
  5
173
  8
METAL
 10
0.0
 20
0.0
 30
0.0
 70
   128
 71
   167
 72
   164
 73
    51
 74
    47
  0
VERTEX
  5
174
  8
METAL
 10
0.0
 20
0.0
 30
0.0
 70
   128
 71
   171
 72
   169
 73
    44
 74
    41
  0
VERTEX
  5
175
  8
METAL
 10
0.0
 20
0.0
 30
0.0
 70
   128
 71
   178
 72
   174
 73
    37
 74
    30
  0
VERTEX
  5
176
  8
METAL
 10
0.0
 20
0.0
 30
0.0
 70
   128
 71
   174
 72
   171
 73
    41
 74
    37
  0
VERTEX
  5
177
  8
METAL
 10
0.0
 20
0.0
 30
0.0
 70
   128
 71
   110
 72
   118
 73
   119
 74
   111
  0
VERTEX
  5
178
  8
METAL
 10
0.0
 20
0.0
 30
0.0
 70
   128
 71
    67
 72
    63
 73
    82
 74
   129
  0
VERTEX
  5
179
  8
METAL
 10
0.0
 20
0.0
 30
0.0
 70
   128
 71
   109
 72
   117
 73
   118
 74
   110
  0
VERTEX
  5
17A
  8
METAL
 10
0.0
 20
0.0
 30
0.0
 70
   128
 71
    76
 72
   133
 73
   134
 74
   139
  0
VERTEX
  5
17B
  8
METAL
 10
0.0
 20
0.0
 30
0.0
 70
   128
 71
    34
 72
    39
 73
    63
 74
    67
  0
VERTEX
  5
17C
  8
METAL
 10
0.0
 20
0.0
 30
0.0
 70
   128
 71
   125
 72
   123
 73
   128
 74
   129
  0
VERTEX
  5
17D
  8
METAL
 10
0.0
 20
0.0
 30
0.0
 70
   128
 71
    68
 72
    64
 73
    70
 74
   139
  0
VERTEX
  5
17E
  8
METAL
 10
0.0
 20
0.0
 30
0.0
 70
   128
 71
   109
 72
   105
 73
   115
 74
   116
  0
VERTEX
  5
17F
  8
METAL
 10
0.0
 20
0.0
 30
0.0
 70
   128
 71
   116
 72
   115
 73
   123
 74
   125
  0
VERTEX
  5
180
  8
METAL
 10
0.0
 20
0.0
 30
0.0
 70
   128
 71
    54
 72
    52
 73
    56
 74
    58
  0
VERTEX
  5
181
  8
METAL
 10
0.0
 20
0.0
 30
0.0
 70
   128
 71
   153
 72
    61
 73
    64
 74
    68
  0
VERTEX
  5
182
  8
METAL
 10
0.0
 20
0.0
 30
0.0
 70
   128
 71
   157
 72
    59
 73
    61
 74
   153
  0
VERTEX
  5
183
  8
METAL
 10
0.0
 20
0.0
 30
0.0
 70
   128
 71
    58
 72
    56
 73
    59
 74
   157
  0
VERTEX
  5
184
  8
METAL
 10
0.0
 20
0.0
 30
0.0
 70
   128
 71
    83
 72
    84
 73
    88
 74
    86
  0
VERTEX
  5
185
  8
METAL
 10
0.0
 20
0.0
 30
0.0
 70
   128
 71
    86
 72
    88
 73
    93
 74
    92
  0
VERTEX
  5
186
  8
METAL
 10
0.0
 20
0.0
 30
0.0
 70
   128
 71
    92
 72
    93
 73
    99
 74
    96
  0
VERTEX
  5
187
  8
METAL
 10
0.0
 20
0.0
 30
0.0
 70
   128
 71
   159
 72
   160
 73
   163
 74
   162
  0
VERTEX
  5
188
  8
METAL
 10
0.0
 20
0.0
 30
0.0
 70
   128
 71
    83
 72
   130
 73
   154
 74
   149
  0
VERTEX
  5
189
  8
METAL
 10
0.0
 20
0.0
 30
0.0
 70
   128
 71
    94
 72
    89
 73
    90
 74
    95
  0
VERTEX
  5
18A
  8
METAL
 10
0.0
 20
0.0
 30
0.0
 70
   128
 71
    75
 72
    80
 73
   131
 74
    77
  0
VERTEX
  5
18B
  8
METAL
 10
0.0
 20
0.0
 30
0.0
 70
   128
 71
    75
 72
   141
 73
   151
 74
   148
  0
VERTEX
  5
18C
  8
METAL
 10
0.0
 20
0.0
 30
0.0
 70
   128
 71
    95
 72
    90
 73
    91
 74
    96
  0
VERTEX
  5
18D
  8
METAL
 10
0.0
 20
0.0
 30
0.0
 70
   128
 71
   156
 72
   158
 73
   160
 74
   159
  0
VERTEX
  5
18E
  8
METAL
 10
0.0
 20
0.0
 30
0.0
 70
   128
 71
   152
 72
   155
 73
   158
 74
   156
  0
VERTEX
  5
18F
  8
METAL
 10
0.0
 20
0.0
 30
0.0
 70
   128
 71
   148
 72
   151
 73
   155
 74
   152
  0
VERTEX
  5
190
  8
METAL
 10
0.0
 20
0.0
 30
0.0
 70
   128
 71
   149
 72
   154
 73
   172
 74
   176
  0
VERTEX
  5
191
  8
METAL
 10
0.0
 20
0.0
 30
0.0
 70
   128
 71
   162
 72
   163
 73
   164
 74
   165
  0
VERTEX
  5
192
  8
METAL
 10
0.0
 20
0.0
 30
0.0
 70
   128
 71
    49
 72
    50
 73
    52
 74
    54
  0
VERTEX
  5
193
  8
METAL
 10
0.0
 20
0.0
 30
0.0
 70
   128
 71
    18
 72
   198
 73
   204
 74
   201
  0
VERTEX
  5
194
  8
METAL
 10
0.0
 20
0.0
 30
0.0
 70
   128
 71
   201
 72
   204
 73
   213
 74
   211
  0
VERTEX
  5
195
  8
METAL
 10
0.0
 20
0.0
 30
0.0
 70
   128
 71
   211
 72
   213
 73
   222
 74
   217
  0
VERTEX
  5
196
  8
METAL
 10
0.0
 20
0.0
 30
0.0
 70
   128
 71
    45
 72
    46
 73
    50
 74
    49
  0
VERTEX
  5
197
  8
METAL
 10
0.0
 20
0.0
 30
0.0
 70
   128
 71
    18
 72
    19
 73
    39
 74
    34
  0
VERTEX
  5
198
  8
METAL
 10
0.0
 20
0.0
 30
0.0
 70
   128
 71
     8
 72
   207
 73
   208
 74
   216
  0
VERTEX
  5
199
  8
METAL
 10
0.0
 20
0.0
 30
0.0
 70
   128
 71
    26
 72
   191
 73
   193
 74
   188
  0
VERTEX
  5
19A
  8
METAL
 10
0.0
 20
0.0
 30
0.0
 70
   128
 71
    26
 72
    28
 73
    36
 74
    33
  0
VERTEX
  5
19B
  8
METAL
 10
0.0
 20
0.0
 30
0.0
 70
   128
 71
   216
 72
   208
 73
   209
 74
   217
  0
VERTEX
  5
19C
  8
METAL
 10
0.0
 20
0.0
 30
0.0
 70
   128
 71
    42
 72
    43
 73
    46
 74
    45
  0
VERTEX
  5
19D
  8
METAL
 10
0.0
 20
0.0
 30
0.0
 70
   128
 71
    38
 72
    40
 73
    43
 74
    42
  0
VERTEX
  5
19E
  8
METAL
 10
0.0
 20
0.0
 30
0.0
 70
   128
 71
    33
 72
    36
 73
    40
 74
    38
  0
VERTEX
  5
19F
  8
METAL
 10
0.0
 20
0.0
 30
0.0
 70
   128
 71
   200
 72
    14
 73
    17
 74
   196
  0
VERTEX
  5
1A0
  8
METAL
 10
0.0
 20
0.0
 30
0.0
 70
   128
 71
   210
 72
    10
 73
    14
 74
   200
  0
VERTEX
  5
1A1
  8
METAL
 10
0.0
 20
0.0
 30
0.0
 70
   128
 71
     6
 72
     5
 73
    10
 74
   210
  0
VERTEX
  5
1A2
  8
METAL
 10
0.0
 20
0.0
 30
0.0
 70
   128
 71
   176
 72
   172
 73
   195
 74
   196
  0
VERTEX
  5
1A3
  8
METAL
 10
0.0
 20
0.0
 30
0.0
 70
   128
 71
   165
 72
   164
 73
   167
 74
   168
  0
VERTEX
  5
1A4
  8
METAL
 10
0.0
 20
0.0
 30
0.0
 70
   128
 71
     7
 72
    12
 73
   205
 74
     9
  0
VERTEX
  5
1A5
  8
METAL
 10
0.0
 20
0.0
 30
0.0
 70
   128
 71
    25
 72
    20
 73
    21
 74
   186
  0
VERTEX
  5
1A6
  8
METAL
 10
0.0
 20
0.0
 30
0.0
 70
   128
 71
     6
 72
    11
 73
    12
 74
     7
  0
VERTEX
  5
1A7
  8
METAL
 10
0.0
 20
0.0
 30
0.0
 70
   128
 71
   177
 72
   174
 73
   178
 74
   186
  0
VERTEX
  5
1A8
  8
METAL
 10
0.0
 20
0.0
 30
0.0
 70
   128
 71
   168
 72
   167
 73
   169
 74
   170
  0
VERTEX
  5
1A9
  8
METAL
 10
0.0
 20
0.0
 30
0.0
 70
   128
 71
   170
 72
   169
 73
   171
 74
   173
  0
VERTEX
  5
1AA
  8
METAL
 10
0.0
 20
0.0
 30
0.0
 70
   128
 71
   173
 72
   171
 73
   174
 74
   177
  0
VERTEX
  5
1AB
  8
METAL
 10
0.0
 20
0.0
 30
0.0
 70
   128
 71
   106
 72
   110
 73
   111
 74
   107
  0
VERTEX
  5
1AC
  8
METAL
 10
0.0
 20
0.0
 30
0.0
 70
   128
 71
   146
 72
    67
 73
   129
 74
   128
  0
VERTEX
  5
1AD
  8
METAL
 10
0.0
 20
0.0
 30
0.0
 70
   128
 71
   105
 72
   109
 73
   110
 74
   106
  0
VERTEX
  5
1AE
  8
METAL
 10
0.0
 20
0.0
 30
0.0
 70
   128
 71
   147
 72
    76
 73
   139
 74
    70
  0
VERTEX
  5
1AF
  8
METAL
 10
0.0
 20
0.0
 30
0.0
 70
   128
 71
   182
 72
    34
 73
    67
 74
   146
  0
VERTEX
  5
1B0
  8
METAL
 10
0.0
 20
0.0
 30
0.0
 70
   128
 71
    85
 72
   125
 73
   129
 74
    82
  0
VERTEX
  5
1B1
  8
METAL
 10
0.0
 20
0.0
 30
0.0
 70
   128
 71
   135
 72
    68
 73
   139
 74
   134
  0
VERTEX
  5
1B2
  8
METAL
 10
0.0
 20
0.0
 30
0.0
 70
   128
 71
   117
 72
   109
 73
   116
 74
   124
  0
VERTEX
  5
1B3
  8
METAL
 10
0.0
 20
0.0
 30
0.0
 70
   128
 71
   124
 72
   116
 73
   125
 74
    85
  0
VERTEX
  5
1B4
  8
METAL
 10
0.0
 20
0.0
 30
0.0
 70
   128
 71
   161
 72
    54
 73
    58
 74
    66
  0
VERTEX
  5
1B5
  8
METAL
 10
0.0
 20
0.0
 30
0.0
 70
   128
 71
    78
 72
   153
 73
    68
 74
   135
  0
VERTEX
  5
1B6
  8
METAL
 10
0.0
 20
0.0
 30
0.0
 70
   128
 71
    74
 72
   157
 73
   153
 74
    78
  0
VERTEX
  5
1B7
  8
METAL
 10
0.0
 20
0.0
 30
0.0
 70
   128
 71
    66
 72
    58
 73
   157
 74
    74
  0
VERTEX
  5
1B8
  8
METAL
 10
0.0
 20
0.0
 30
0.0
 70
   128
 71
   130
 72
    83
 73
    86
 74
   126
  0
VERTEX
  5
1B9
  8
METAL
 10
0.0
 20
0.0
 30
0.0
 70
   128
 71
   126
 72
    86
 73
    92
 74
    87
  0
VERTEX
  5
1BA
  8
METAL
 10
0.0
 20
0.0
 30
0.0
 70
   128
 71
    87
 72
    92
 73
    96
 74
    91
  0
VERTEX
  5
1BB
  8
METAL
 10
0.0
 20
0.0
 30
0.0
 70
   128
 71
   150
 72
   159
 73
   162
 74
    55
  0
VERTEX
  5
1BC
  8
METAL
 10
0.0
 20
0.0
 30
0.0
 70
   128
 71
    84
 72
    83
 73
   149
 74
    73
  0
VERTEX
  5
1BD
  8
METAL
 10
0.0
 20
0.0
 30
0.0
 70
   128
 71
   108
 72
    94
 73
    95
 74
    98
  0
VERTEX
  5
1BE
  8
METAL
 10
0.0
 20
0.0
 30
0.0
 70
   128
 71
   141
 72
    75
 73
    77
 74
    72
  0
VERTEX
  5
1BF
  8
METAL
 10
0.0
 20
0.0
 30
0.0
 70
   128
 71
    80
 72
    75
 73
   148
 74
    79
  0
VERTEX
  5
1C0
  8
METAL
 10
0.0
 20
0.0
 30
0.0
 70
   128
 71
    98
 72
    95
 73
    96
 74
    99
  0
VERTEX
  5
1C1
  8
METAL
 10
0.0
 20
0.0
 30
0.0
 70
   128
 71
   140
 72
   156
 73
   159
 74
   150
  0
VERTEX
  5
1C2
  8
METAL
 10
0.0
 20
0.0
 30
0.0
 70
   128
 71
   136
 72
   152
 73
   156
 74
   140
  0
VERTEX
  5
1C3
  8
METAL
 10
0.0
 20
0.0
 30
0.0
 70
   128
 71
    79
 72
   148
 73
   152
 74
   136
  0
VERTEX
  5
1C4
  8
METAL
 10
0.0
 20
0.0
 30
0.0
 70
   128
 71
    73
 72
   149
 73
   176
 74
    32
  0
VERTEX
  5
1C5
  8
METAL
 10
0.0
 20
0.0
 30
0.0
 70
   128
 71
    55
 72
   162
 73
   165
 74
    48
  0
VERTEX
  5
1C6
  8
METAL
 10
0.0
 20
0.0
 30
0.0
 70
   128
 71
   166
 72
    49
 73
    54
 74
   161
  0
VERTEX
  5
1C7
  8
METAL
 10
0.0
 20
0.0
 30
0.0
 70
   128
 71
    19
 72
    18
 73
   201
 74
    16
  0
VERTEX
  5
1C8
  8
METAL
 10
0.0
 20
0.0
 30
0.0
 70
   128
 71
    16
 72
   201
 73
   211
 74
    15
  0
VERTEX
  5
1C9
  8
METAL
 10
0.0
 20
0.0
 30
0.0
 70
   128
 71
    15
 72
   211
 73
   217
 74
   209
  0
VERTEX
  5
1CA
  8
METAL
 10
0.0
 20
0.0
 30
0.0
 70
   128
 71
   175
 72
    45
 73
    49
 74
   166
  0
VERTEX
  5
1CB
  8
METAL
 10
0.0
 20
0.0
 30
0.0
 70
   128
 71
   198
 72
    18
 73
    34
 74
   182
  0
VERTEX
  5
1CC
  8
METAL
 10
0.0
 20
0.0
 30
0.0
 70
   128
 71
   224
 72
     8
 73
   216
 74
   223
  0
VERTEX
  5
1CD
  8
METAL
 10
0.0
 20
0.0
 30
0.0
 70
   128
 71
    28
 72
    26
 73
   188
 74
   183
  0
VERTEX
  5
1CE
  8
METAL
 10
0.0
 20
0.0
 30
0.0
 70
   128
 71
   191
 72
    26
 73
    33
 74
    22
  0
VERTEX
  5
1CF
  8
METAL
 10
0.0
 20
0.0
 30
0.0
 70
   128
 71
   223
 72
   216
 73
   217
 74
   222
  0
VERTEX
  5
1D0
  8
METAL
 10
0.0
 20
0.0
 30
0.0
 70
   128
 71
    27
 72
    42
 73
    45
 74
   175
  0
VERTEX
  5
1D1
  8
METAL
 10
0.0
 20
0.0
 30
0.0
 70
   128
 71
    24
 72
    38
 73
    42
 74
    27
  0
VERTEX
  5
1D2
  8
METAL
 10
0.0
 20
0.0
 30
0.0
 70
   128
 71
    22
 72
    33
 73
    38
 74
    24
  0
VERTEX
  5
1D3
  8
METAL
 10
0.0
 20
0.0
 30
0.0
 70
   128
 71
   199
 72
   200
 73
   196
 74
   195
  0
VERTEX
  5
1D4
  8
METAL
 10
0.0
 20
0.0
 30
0.0
 70
   128
 71
   202
 72
   210
 73
   200
 74
   199
  0
VERTEX
  5
1D5
  8
METAL
 10
0.0
 20
0.0
 30
0.0
 70
   128
 71
    11
 72
     6
 73
   210
 74
   202
  0
VERTEX
  5
1D6
  8
METAL
 10
0.0
 20
0.0
 30
0.0
 70
   128
 71
    32
 72
   176
 73
   196
 74
    17
  0
VERTEX
  5
1D7
  8
METAL
 10
0.0
 20
0.0
 30
0.0
 70
   128
 71
    48
 72
   165
 73
   168
 74
    35
  0
VERTEX
  5
1D8
  8
METAL
 10
0.0
 20
0.0
 30
0.0
 70
   128
 71
     4
 72
     7
 73
     9
 74
     3
  0
VERTEX
  5
1D9
  8
METAL
 10
0.0
 20
0.0
 30
0.0
 70
   128
 71
   179
 72
    25
 73
   186
 74
   178
  0
VERTEX
  5
1DA
  8
METAL
 10
0.0
 20
0.0
 30
0.0
 70
   128
 71
     5
 72
     6
 73
     7
 74
     4
  0
VERTEX
  5
1DB
  8
METAL
 10
0.0
 20
0.0
 30
0.0
 70
   128
 71
    23
 72
   177
 73
   186
 74
    21
  0
VERTEX
  5
1DC
  8
METAL
 10
0.0
 20
0.0
 30
0.0
 70
   128
 71
    35
 72
   168
 73
   170
 74
   185
  0
VERTEX
  5
1DD
  8
METAL
 10
0.0
 20
0.0
 30
0.0
 70
   128
 71
   185
 72
   170
 73
   173
 74
   190
  0
VERTEX
  5
1DE
  8
METAL
 10
0.0
 20
0.0
 30
0.0
 70
   128
 71
   190
 72
   173
 73
   177
 74
    23
  0
SEQEND
  5
324
  8
METAL
  0
ENDSEC
  0
EOF
