# 3ds Max Wavefront OBJ Exporter v0.97b - (c)2007 guruware
# File Created: 01.07.2013 13:36:40

mtllib ianga.mtl

#
# object Box001
#

v  979.442566 -257.546112 110.686745
v  1179.995850 -257.546112 110.686745
v  1179.995850 -259.544525 110.686745
v  979.442566 -259.544525 110.686745
v  1179.995850 -259.544525 125.627502
v  1179.995850 -257.546112 125.627502
v  979.442566 -257.546112 125.627502
v  979.442566 -259.544525 125.627502
v  979.442566 -259.544525 124.408569
v  1179.995850 -259.544525 124.408569
v  1179.995850 -257.546112 124.408569
v  1088.552856 -214.384018 114.776268
v  1070.885620 -214.384018 114.776268
v  1070.885620 -214.384018 116.888268
v  1088.552856 -214.384018 116.888268
v  1056.562500 -216.945374 116.981537
v  1056.562500 -216.945374 119.197090
v  1011.492371 -232.572464 124.211006
v  1147.946045 -232.572464 124.211006
v  1179.995850 -235.220139 124.431931
v  979.442566 -235.220139 124.431931
v  1147.946045 -232.572464 125.548340
v  1011.492371 -232.572464 125.548340
v  979.442566 -235.220139 125.627502
v  1179.995850 -235.220139 125.627502
v  979.442566 -257.546112 124.408569
v  1029.536133 -227.277100 122.803391
v  1029.536133 -227.277100 124.548752
v  1035.594238 -224.629425 123.661530
v  1035.594238 -224.629425 121.684517
v  1041.706665 -222.068069 120.473434
v  1117.731812 -222.068069 120.473434
v  1123.844238 -224.629425 121.684517
v  1117.731812 -222.068069 122.537880
v  1041.706665 -222.068069 122.537880
v  1123.844238 -224.629425 123.661530
v  1129.902344 -227.277100 122.803391
v  1135.960327 -229.924774 123.645561
v  1023.478088 -229.924774 123.645561
v  1129.902344 -227.277100 124.548752
v  1023.478088 -229.924774 125.209709
v  1135.960327 -229.924774 125.209709
v  1047.819214 -219.506714 121.050217
v  1047.819214 -219.506714 118.840157
v  1102.875977 -216.945374 116.981537
v  1111.619263 -219.506714 118.840157
v  1102.875977 -216.945374 119.197090
v  1111.619263 -219.506714 121.050217
# 48 vertices

vn 0.000000 0.000000 -1.000000
vn 0.000000 0.000000 1.000000
vn 0.000000 -0.000000 1.000000
vn 0.000000 -1.000000 0.000001
vn 1.000000 0.000000 0.000000
vn 0.000000 1.000000 0.000000
vn -0.222926 0.974835 0.000000
vn -0.234830 0.972037 0.000000
vn -0.176035 0.984384 0.000000
vn -0.000000 -0.091710 -0.995786
vn -0.000000 -0.091709 -0.995786
vn -0.000000 -0.003166 -0.999995
vn 0.000000 -0.003166 -0.999995
vn 0.000000 0.036378 0.999338
vn 0.000000 0.001491 0.999999
vn 0.150468 0.988615 -0.000001
vn 0.148713 0.988880 -0.000001
vn 0.736128 0.676842 -0.000001
vn 0.734486 0.678624 -0.000001
vn -1.000000 0.000000 0.000000
vn -0.736128 0.676842 -0.000001
vn -0.734485 0.678624 -0.000001
vn -0.400474 0.916308 0.000000
vn -0.394165 0.919040 0.000000
vn -0.392713 0.919661 0.000000
vn 0.000000 -0.443933 -0.896060
vn 0.000000 -0.394590 -0.918857
vn 0.000000 0.416396 0.909183
vn 0.000000 0.329374 0.944199
vn 0.000000 0.329374 0.944200
vn 0.392713 0.919661 0.000000
vn 0.386475 0.922300 0.000000
vn 0.394165 0.919040 0.000000
vn 0.000000 -0.315372 -0.948968
vn 0.000000 -0.221072 -0.975258
vn -0.000000 -0.221072 -0.975258
vn 0.000000 0.252650 0.967558
vn 0.000000 0.141562 0.989929
vn 0.314525 0.949249 -0.000000
vn 0.400474 0.916308 0.000000
vn 0.305703 0.952127 0.000000
vn -0.150468 0.988615 0.000000
vn -0.148713 0.988880 -0.000000
vn -0.305703 0.952127 0.000000
vn -0.314525 0.949249 0.000000
vn -0.386475 0.922300 0.000000
vn -0.341349 0.939936 0.000000
vn -0.326783 0.945099 0.000000
vn 0.000000 -0.592441 -0.805614
vn 0.000000 -0.592440 -0.805614
vn 0.000000 -0.543451 -0.839441
vn -0.000000 0.592912 0.805267
vn -0.000000 0.592913 0.805267
vn -0.000000 0.512090 0.858932
vn 0.000000 0.512090 0.858932
vn 0.326783 0.945099 0.000000
vn 0.222926 0.974835 0.000001
vn 0.234830 0.972036 0.000001
vn 0.341350 0.939936 0.000000
vn 0.000000 -0.652466 -0.757818
vn -0.000000 0.669542 0.742774
vn 0.000000 0.669542 0.742774
vn 0.176035 0.984384 0.000000
vn 0.000000 0.001046 -0.999999
vn -0.000000 1.000000 0.000000
vn 0.000000 -1.000000 -0.000000
# 66 vertex normals

vt 1.000000 0.250000 0.000000
vt 0.000000 0.250000 0.000000
vt 0.000000 0.000000 0.000000
vt 1.000000 0.000000 0.000000
vt 1.000000 1.000000 0.000000
vt 0.000000 1.000000 0.000000
vt 0.250000 0.000000 0.000000
vt 0.250000 1.000000 0.000000
vt 0.062500 0.000000 0.000000
vt 0.062500 1.000000 0.000000
vt 1.000000 0.562500 0.000000
vt 0.000000 0.562500 0.000000
vt 0.000000 0.500000 0.000000
vt 1.000000 0.500000 0.000000
vt 0.562500 0.000000 0.000000
vt 0.562500 1.000000 0.000000
vt 0.500000 1.000000 0.000000
vt 0.500000 0.000000 0.000000
vt 0.750000 0.000000 0.000000
vt 0.750000 1.000000 0.000000
vt 0.312500 0.000000 0.000000
vt 0.312500 1.000000 0.000000
vt 1.000000 0.812500 0.000000
vt 0.000000 0.812500 0.000000
vt 0.000000 0.750000 0.000000
vt 1.000000 0.750000 0.000000
vt 0.812500 0.000000 0.000000
vt 0.812500 1.000000 0.000000
vt 1.000000 0.687500 0.000000
vt 0.000000 0.687500 0.000000
vt 0.000000 0.625000 0.000000
vt 1.000000 0.625000 0.000000
vt 0.625000 0.000000 0.000000
vt 0.687500 0.000000 0.000000
vt 0.687500 1.000000 0.000000
vt 0.625000 1.000000 0.000000
vt 0.437500 0.000000 0.000000
vt 0.437500 1.000000 0.000000
vt 0.375000 1.000000 0.000000
vt 0.375000 0.000000 0.000000
vt 0.187500 0.000000 0.000000
vt 0.187500 1.000000 0.000000
vt 0.125000 1.000000 0.000000
vt 0.125000 0.000000 0.000000
vt 1.000000 0.937500 0.000000
vt 0.000000 0.937500 0.000000
vt 0.000000 0.875000 0.000000
vt 1.000000 0.875000 0.000000
vt 0.875000 0.000000 0.000000
vt 0.937500 0.000000 0.000000
vt 0.937500 1.000000 0.000000
vt 0.875000 1.000000 0.000000
# 52 texture coords

g Box001
usemtl wire_225143087
s 2
f -48/-52/-66 -47/-51/-66 -46/-50/-66 -45/-49/-66 
s 4
f -44/-49/-65 -43/-52/-64 -42/-51/-64 -41/-50/-65 
s 8
f -40/-50/-63 -39/-49/-63 -44/-48/-63 -41/-47/-63 
s 16
f -38/-46/-62 -43/-45/-62 -44/-47/-62 -39/-50/-62 
s 32
f -37/-50/-61 -36/-49/-61 -35/-48/-61 -34/-47/-61 
s 64
f -33/-44/-60 -32/-43/-59 -35/-47/-58 -36/-50/-58 
s 2
f -31/-42/-57 -30/-41/-56 -29/-40/-55 -28/-39/-54 
s 4
f -27/-42/-53 -26/-41/-53 -25/-40/-52 -24/-39/-52 
s 16
f -30/-38/-51 -27/-37/-50 -24/-36/-49 -29/-35/-48 
s 64
f -23/-34/-47 -42/-33/-47 -25/-36/-46 -28/-35/-45 
f -22/-32/-44 -21/-31/-44 -20/-45/-43 -19/-46/-42 
s 2
f -18/-30/-41 -17/-29/-41 -16/-28/-40 -19/-27/-40 
s 4
f -15/-30/-39 -14/-29/-39 -20/-28/-38 -13/-27/-37 
s 16
f -16/-34/-36 -17/-26/-35 -15/-25/-35 -13/-33/-34 
s 2
f -22/-24/-33 -12/-23/-33 -11/-22/-32 -10/-21/-31 
s 4
f -9/-24/-30 -21/-23/-30 -8/-22/-29 -7/-21/-29 
s 16
f -11/-20/-28 -12/-19/-27 -9/-18/-27 -7/-17/-26 
s 64
f -31/-16/-25 -26/-15/-24 -8/-14/-23 -10/-13/-22 
s 2
f -10/-21/-31 -11/-22/-32 -30/-41/-56 -31/-42/-57 
s 4
f -7/-21/-29 -8/-22/-29 -26/-41/-53 -27/-42/-53 
s 16
f -11/-20/-28 -7/-17/-26 -27/-37/-50 -30/-38/-51 
s 64
f -28/-35/-45 -25/-36/-46 -26/-15/-24 -31/-16/-25 
f -18/-12/-21 -14/-11/-21 -6/-10/-20 -5/-9/-19 
s 2
f -33/-8/-18 -4/-7/-17 -3/-6/-16 -5/-5/-16 
s 4
f -2/-8/-15 -32/-7/-14 -6/-6/-13 -1/-5/-12 
s 16
f -3/-4/-11 -4/-3/-10 -2/-2/-9 -1/-1/-8 
s 64
f -5/-9/-19 -6/-10/-20 -32/-43/-59 -33/-44/-60 
s 2
f -36/-48/-7 -37/-47/-7 -4/-7/-17 -33/-8/-18 
s 4
f -34/-48/-6 -35/-47/-5 -32/-7/-14 -2/-8/-15 
s 16
f -4/-3/-10 -37/-49/-4 -34/-48/-4 -2/-2/-9 
s 64
f -10/-13/-22 -8/-14/-23 -21/-31/-44 -22/-32/-44 
s 2
f -19/-27/-40 -16/-28/-40 -12/-23/-33 -22/-24/-33 
s 4
f -13/-27/-37 -20/-28/-38 -21/-23/-30 -9/-24/-30 
s 16
f -12/-19/-27 -16/-34/-36 -13/-33/-34 -9/-18/-27 
s 2
f -5/-5/-16 -3/-6/-16 -17/-29/-41 -18/-30/-41 
s 4
f -1/-5/-12 -6/-6/-13 -14/-29/-39 -15/-30/-39 
s 16
f -17/-26/-35 -3/-4/-11 -1/-1/-8 -15/-25/-35 
s 64
f -19/-46/-42 -20/-45/-43 -14/-11/-21 -18/-12/-21 
s 2
f -28/-39/-54 -29/-40/-55 -38/-51/-3 -23/-52/-3 
s 4
f -24/-39/-52 -25/-40/-52 -42/-51/-64 -43/-52/-64 
s 16
f -29/-35/-48 -24/-36/-49 -43/-45/-62 -38/-46/-62 
s 64
f -40/-49/-47 -41/-48/-47 -42/-33/-47 -23/-34/-47 
s off
f -40/-49/-47 -23/-34/-47 -48/-52/-47 -45/-49/-47 
f -23/-52/-2 -38/-51/-2 -47/-51/-2 -48/-52/-2 
f -38/-46/-62 -39/-50/-62 -46/-50/-62 -47/-51/-62 
f -39/-49/-1 -40/-50/-1 -45/-49/-1 -46/-50/-1 
# 46 polygons

