  0
SECTION
  2
HEADER
  9
$ACADVER
  1
AC1009
  9
$DWGCODEPAGE
  3
ansi_1252
  9
$INSBASE
 10
0.0
 20
0.0
 30
0.0
  9
$EXTMIN
 10
-90.0
 20
-28.71769905090332
 30
-7.5
  9
$EXTMAX
 10
89.8121337890625
 20
0.0
 30
7.786394119262699
  9
$LIMMIN
 10
0.0
 20
0.0
  9
$LIMMAX
 10
12.0
 20
9.0
  9
$ORTHOMODE
 70
     1
  9
$REGENMODE
 70
     1
  9
$FILLMODE
 70
     1
  9
$QTEXTMODE
 70
     0
  9
$MIRRTEXT
 70
     1
  9
$DRAGMODE
 70
     2
  9
$LTSCALE
 40
1.0
  9
$OSMODE
 70
    37
  9
$ATTMODE
 70
     1
  9
$TEXTSIZE
 40
0.2
  9
$TRACEWID
 40
0.05
  9
$TEXTSTYLE
  7
STANDARD
  9
$CLAYER
  8
0
  9
$CELTYPE
  6
BYLAYER
  9
$CECOLOR
 62
   256
  9
$DIMSCALE
 40
1.0
  9
$DIMASZ
 40
0.18
  9
$DIMEXO
 40
0.0625
  9
$DIMDLI
 40
0.38
  9
$DIMRND
 40
0.0
  9
$DIMDLE
 40
0.0
  9
$DIMEXE
 40
0.18
  9
$DIMTP
 40
0.0
  9
$DIMTM
 40
0.0
  9
$DIMTXT
 40
0.18
  9
$DIMCEN
 40
0.09
  9
$DIMTSZ
 40
0.0
  9
$DIMTOL
 70
     0
  9
$DIMLIM
 70
     0
  9
$DIMTIH
 70
     1
  9
$DIMTOH
 70
     1
  9
$DIMSE1
 70
     0
  9
$DIMSE2
 70
     0
  9
$DIMTAD
 70
     0
  9
$DIMZIN
 70
     0
  9
$DIMBLK
  1

  9
$DIMASO
 70
     1
  9
$DIMSHO
 70
     1
  9
$DIMPOST
  1

  9
$DIMAPOST
  1

  9
$DIMALT
 70
     0
  9
$DIMALTD
 70
     2
  9
$DIMALTF
 40
25.4
  9
$DIMLFAC
 40
1.0
  9
$DIMTOFL
 70
     0
  9
$DIMTVP
 40
0.0
  9
$DIMTIX
 70
     0
  9
$DIMSOXD
 70
     0
  9
$DIMSAH
 70
     0
  9
$DIMBLK1
  1

  9
$DIMBLK2
  1

  9
$DIMSTYLE
  2
STANDARD
  9
$DIMCLRD
 70
     0
  9
$DIMCLRE
 70
     0
  9
$DIMCLRT
 70
     0
  9
$DIMTFAC
 40
1.0
  9
$DIMGAP
 40
0.09
  9
$LUNITS
 70
     2
  9
$LUPREC
 70
     3
  9
$SKETCHINC
 40
0.1
  9
$FILLETRAD
 40
0.5
  9
$AUNITS
 70
     0
  9
$AUPREC
 70
     0
  9
$MENU
  1
.
  9
$ELEVATION
 40
0.0
  9
$PELEVATION
 40
0.0
  9
$THICKNESS
 40
0.0
  9
$LIMCHECK
 70
     0
  9
$CHAMFERA
 40
0.5
  9
$CHAMFERB
 40
0.5
  9
$SKPOLY
 70
     0
  9
$TDCREATE
 40
2456498.637470023
  9
$TDUPDATE
 40
2456498.637470035
  9
$TDINDWG
 40
0.0007176042
  9
$TDUSRTIMER
 40
0.0007176042
  9
$USRTIMER
 70
     1
  9
$ANGBASE
 50
0.0
  9
$ANGDIR
 70
     0
  9
$PDMODE
 70
     0
  9
$PDSIZE
 40
0.0
  9
$PLINEWID
 40
0.0
  9
$COORDS
 70
     1
  9
$SPLFRAME
 70
     0
  9
$SPLINETYPE
 70
     6
  9
$SPLINESEGS
 70
     8
  9
$ATTDIA
 70
     0
  9
$ATTREQ
 70
     1
  9
$HANDLING
 70
     1
  9
$HANDSEED
  5
126
  9
$SURFTAB1
 70
     6
  9
$SURFTAB2
 70
     6
  9
$SURFTYPE
 70
     6
  9
$SURFU
 70
     6
  9
$SURFV
 70
     6
  9
$UCSNAME
  2

  9
$UCSORG
 10
0.0
 20
0.0
 30
0.0
  9
$UCSXDIR
 10
1.0
 20
0.0
 30
0.0
  9
$UCSYDIR
 10
0.0
 20
1.0
 30
0.0
  9
$PUCSNAME
  2

  9
$PUCSORG
 10
0.0
 20
0.0
 30
0.0
  9
$PUCSXDIR
 10
1.0
 20
0.0
 30
0.0
  9
$PUCSYDIR
 10
0.0
 20
1.0
 30
0.0
  9
$USERI1
 70
     0
  9
$USERI2
 70
     0
  9
$USERI3
 70
     0
  9
$USERI4
 70
     0
  9
$USERI5
 70
     0
  9
$USERR1
 40
0.0
  9
$USERR2
 40
0.0
  9
$USERR3
 40
0.0
  9
$USERR4
 40
0.0
  9
$USERR5
 40
0.0
  9
$WORLDVIEW
 70
     1
  9
$SHADEDGE
 70
     3
  9
$SHADEDIF
 70
    70
  9
$TILEMODE
 70
     1
  9
$MAXACTVP
 70
    64
  9
$PLIMCHECK
 70
     0
  9
$PEXTMIN
 10
1.000000000000000E+20
 20
1.000000000000000E+20
 30
1.000000000000000E+20
  9
$PEXTMAX
 10
-1.000000000000000E+20
 20
-1.000000000000000E+20
 30
-1.000000000000000E+20
  9
$PLIMMIN
 10
0.0
 20
0.0
  9
$PLIMMAX
 10
12.0
 20
9.0
  9
$UNITMODE
 70
     0
  9
$VISRETAIN
 70
     1
  9
$PLINEGEN
 70
     0
  9
$PSLTSCALE
 70
     1
  0
ENDSEC
  0
SECTION
  2
TABLES
  0
TABLE
  2
VPORT
 70
     1
  0
VPORT
  2
*ACTIVE
 70
     0
 10
0.0
 20
0.0
 11
1.0
 21
1.0
 12
10.08681913362925
 22
-5.783403891931171
 13
0.0
 23
0.0
 14
0.5
 24
0.5
 15
0.5
 25
0.5
 16
-1.0
 26
-1.0
 36
1.0
 17
0.0
 27
0.0
 37
0.0
 40
124.4568762834217
 41
5.853698009446926
 42
50.0
 43
0.0
 44
0.0
 50
0.0
 51
0.0
 71
    16
 72
   100
 73
     0
 74
     1
 75
     0
 76
     0
 77
     0
 78
     0
  0
ENDTAB
  0
TABLE
  2
LTYPE
 70
     1
  0
LTYPE
  2
CONTINUOUS
 70
     0
  3
Solid line
 72
    65
 73
     0
 40
0.0
  0
ENDTAB
  0
TABLE
  2
LAYER
 70
     2
  0
LAYER
  2
0
 70
     0
 62
     7
  6
CONTINUOUS
  0
LAYER
  2
METAL
 70
     0
 62
    34
  6
CONTINUOUS
  0
ENDTAB
  0
TABLE
  2
STYLE
 70
     1
  0
STYLE
  2
STANDARD
 70
     0
 40
0.0
 41
1.0
 50
0.0
 71
     0
 42
0.2
  3
txt
  4

  0
ENDTAB
  0
TABLE
  2
VIEW
 70
     0
  0
ENDTAB
  0
TABLE
  2
UCS
 70
     0
  0
ENDTAB
  0
TABLE
  2
APPID
 70
     1
  0
APPID
  2
ACAD
 70
     0
  0
ENDTAB
  0
TABLE
  2
DIMSTYLE
 70
     1
  0
DIMSTYLE
  2
STANDARD
 70
     0
  3

  4

  5

  6

  7

 40
1.0
 41
0.18
 42
0.0625
 43
0.38
 44
0.18
 45
0.0
 46
0.0
 47
0.0
 48
0.0
140
0.18
141
0.09
142
0.0
143
25.4
144
1.0
145
0.0
146
1.0
147
0.09
 71
     0
 72
     0
 73
     1
 74
     1
 75
     0
 76
     0
 77
     0
 78
     0
170
     0
171
     2
172
     0
173
     0
174
     0
175
     0
176
     0
177
     0
178
     0
  0
ENDTAB
  0
ENDSEC
  0
SECTION
  2
BLOCKS
  0
BLOCK
  8
0
  2
$MODEL_SPACE
 70
     0
 10
0.0
 20
0.0
 30
0.0
  3
$MODEL_SPACE
  1

  0
ENDBLK
  5
21
  8
0
  0
BLOCK
 67
     1
  8
0
  2
$PAPER_SPACE
 70
     0
 10
0.0
 20
0.0
 30
0.0
  3
$PAPER_SPACE
  1

  0
ENDBLK
  5
76
 67
     1
  8
0
  0
ENDSEC
  0
SECTION
  2
ENTITIES
  0
POLYLINE
  5
3C
  8
METAL
 66
     1
 10
0.0
 20
0.0
 30
0.0
 70
    64
 71
    48
 72
    12
  0
VERTEX
  5
3D
  8
METAL
 10
-89.86012268066406
 20
-15.5284309387207
 30
0.8722467422485369
 70
   192
  0
VERTEX
  5
3E
  8
METAL
 10
-89.86012268066406
 20
-10.52230834960938
 30
7.786394119262699
 70
   192
  0
VERTEX
  5
3F
  8
METAL
 10
-89.86012268066406
 20
-0.0000076293945312
 30
7.786394119262699
 70
   192
  0
VERTEX
  5
40
  8
METAL
 10
-89.86012268066406
 20
-0.0000076293945312
 30
-6.227078914642334
 70
   192
  0
VERTEX
  5
41
  8
METAL
 10
-68.16407775878906
 20
-17.01116561889648
 30
0.8722467422485369
 70
   192
  0
VERTEX
  5
42
  8
METAL
 10
-68.16407775878906
 20
-0.0000076293945312
 30
-6.22707986831665
 70
   192
  0
VERTEX
  5
43
  8
METAL
 10
-68.16407012939453
 20
-0.0000076293945312
 30
7.786394119262699
 70
   192
  0
VERTEX
  5
44
  8
METAL
 10
-68.16407012939453
 20
-12.00504493713379
 30
7.786394119262699
 70
   192
  0
VERTEX
  5
45
  8
METAL
 10
-89.86012268066406
 20
-15.5284309387207
 30
0.8722467422485369
 70
   192
  0
VERTEX
  5
46
  8
METAL
 10
-89.86012268066406
 20
-0.0000076293945312
 30
-6.227078914642334
 70
   192
  0
VERTEX
  5
47
  8
METAL
 10
-68.16407775878906
 20
-0.0000076293945312
 30
-6.22707986831665
 70
   192
  0
VERTEX
  5
48
  8
METAL
 10
-68.16407775878906
 20
-17.01116561889648
 30
0.8722467422485369
 70
   192
  0
VERTEX
  5
49
  8
METAL
 10
-89.86012268066406
 20
-0.0000076293945312
 30
-6.227078914642334
 70
   192
  0
VERTEX
  5
4A
  8
METAL
 10
-89.86012268066406
 20
-0.0000076293945312
 30
7.786394119262699
 70
   192
  0
VERTEX
  5
4B
  8
METAL
 10
-68.16407012939453
 20
-0.0000076293945312
 30
7.786394119262699
 70
   192
  0
VERTEX
  5
4C
  8
METAL
 10
-68.16407775878906
 20
-0.0000076293945312
 30
-6.22707986831665
 70
   192
  0
VERTEX
  5
4D
  8
METAL
 10
-89.86012268066406
 20
-0.0000076293945312
 30
7.786394119262699
 70
   192
  0
VERTEX
  5
4E
  8
METAL
 10
-89.86012268066406
 20
-10.52230834960938
 30
7.786394119262699
 70
   192
  0
VERTEX
  5
4F
  8
METAL
 10
-68.16407012939453
 20
-12.00504493713379
 30
7.786394119262699
 70
   192
  0
VERTEX
  5
50
  8
METAL
 10
-68.16407012939453
 20
-0.0000076293945312
 30
7.786394119262699
 70
   192
  0
VERTEX
  5
51
  8
METAL
 10
-89.86012268066406
 20
-10.52230834960938
 30
7.786394119262699
 70
   192
  0
VERTEX
  5
52
  8
METAL
 10
-89.86012268066406
 20
-15.5284309387207
 30
0.8722467422485369
 70
   192
  0
VERTEX
  5
53
  8
METAL
 10
-68.16407775878906
 20
-17.01116561889648
 30
0.8722467422485369
 70
   192
  0
VERTEX
  5
54
  8
METAL
 10
-68.16407012939453
 20
-12.00504493713379
 30
7.786394119262699
 70
   192
  0
VERTEX
  5
55
  8
METAL
 10
89.79454040527344
 20
-15.52842330932617
 30
0.8722391128540075
 70
   192
  0
VERTEX
  5
56
  8
METAL
 10
89.79454040527344
 20
0.0
 30
-6.227087020874023
 70
   192
  0
VERTEX
  5
57
  8
METAL
 10
89.79454040527344
 20
0.0
 30
7.786386489868168
 70
   192
  0
VERTEX
  5
58
  8
METAL
 10
89.79454040527344
 20
-10.52230072021484
 30
7.786386489868168
 70
   192
  0
VERTEX
  5
E2
  8
METAL
 10
68.09849548339844
 20
-17.01116180419922
 30
0.8722410202026367
 70
   192
  0
VERTEX
  5
E3
  8
METAL
 10
68.09849548339844
 20
-12.00503921508789
 30
7.786388397216797
 70
   192
  0
VERTEX
  5
5B
  8
METAL
 10
68.09849548339844
 20
0.0
 30
7.786388397216797
 70
   192
  0
VERTEX
  5
5C
  8
METAL
 10
68.09849548339844
 20
0.0
 30
-6.227086067199707
 70
   192
  0
VERTEX
  5
5D
  8
METAL
 10
89.79454040527344
 20
-15.52842330932617
 30
0.8722391128540075
 70
   192
  0
VERTEX
  5
E4
  8
METAL
 10
68.09849548339844
 20
-17.01116180419922
 30
0.8722410202026367
 70
   192
  0
VERTEX
  5
5F
  8
METAL
 10
68.09849548339844
 20
0.0
 30
-6.227086067199707
 70
   192
  0
VERTEX
  5
60
  8
METAL
 10
89.79454040527344
 20
0.0
 30
-6.227087020874023
 70
   192
  0
VERTEX
  5
61
  8
METAL
 10
89.79454040527344
 20
0.0
 30
-6.227087020874023
 70
   192
  0
VERTEX
  5
62
  8
METAL
 10
68.09849548339844
 20
0.0
 30
-6.227086067199707
 70
   192
  0
VERTEX
  5
63
  8
METAL
 10
68.09849548339844
 20
0.0
 30
7.786388397216797
 70
   192
  0
VERTEX
  5
64
  8
METAL
 10
89.79454040527344
 20
0.0
 30
7.786386489868168
 70
   192
  0
VERTEX
  5
65
  8
METAL
 10
89.79454040527344
 20
0.0
 30
7.786386489868168
 70
   192
  0
VERTEX
  5
66
  8
METAL
 10
68.09849548339844
 20
0.0
 30
7.786388397216797
 70
   192
  0
VERTEX
  5
67
  8
METAL
 10
68.09849548339844
 20
-12.00503921508789
 30
7.786388397216797
 70
   192
  0
VERTEX
  5
68
  8
METAL
 10
89.79454040527344
 20
-10.52230072021484
 30
7.786386489868168
 70
   192
  0
VERTEX
  5
69
  8
METAL
 10
89.79454040527344
 20
-10.52230072021484
 30
7.786386489868168
 70
   192
  0
VERTEX
  5
6A
  8
METAL
 10
68.09849548339844
 20
-12.00503921508789
 30
7.786388397216797
 70
   192
  0
VERTEX
  5
E5
  8
METAL
 10
68.09849548339844
 20
-17.01116180419922
 30
0.8722410202026367
 70
   192
  0
VERTEX
  5
E6
  8
METAL
 10
89.79454040527344
 20
-15.52842330932617
 30
0.8722391128540075
 70
   192
  0
VERTEX
  5
6D
  8
METAL
 10
0.0
 20
0.0
 30
0.0
 70
   128
 71
     1
 72
     2
 73
     3
 74
     4
  0
VERTEX
  5
6E
  8
METAL
 10
0.0
 20
0.0
 30
0.0
 70
   128
 71
     5
 72
     6
 73
     7
 74
     8
  0
VERTEX
  5
6F
  8
METAL
 10
0.0
 20
0.0
 30
0.0
 70
   128
 71
     9
 72
    10
 73
    11
 74
    12
  0
VERTEX
  5
70
  8
METAL
 10
0.0
 20
0.0
 30
0.0
 70
   128
 71
    13
 72
    14
 73
    15
 74
    16
  0
VERTEX
  5
71
  8
METAL
 10
0.0
 20
0.0
 30
0.0
 70
   128
 71
    17
 72
    18
 73
    19
 74
    20
  0
VERTEX
  5
72
  8
METAL
 10
0.0
 20
0.0
 30
0.0
 70
   128
 71
    21
 72
    22
 73
    23
 74
    24
  0
VERTEX
  5
E7
  8
METAL
 10
0.0
 20
0.0
 30
0.0
 70
   128
 71
    25
 72
    26
 73
    27
 74
    28
  0
VERTEX
  5
E8
  8
METAL
 10
0.0
 20
0.0
 30
0.0
 70
   128
 71
    29
 72
    30
 73
    31
 74
    32
  0
VERTEX
  5
E9
  8
METAL
 10
0.0
 20
0.0
 30
0.0
 70
   128
 71
    33
 72
    34
 73
    35
 74
    36
  0
VERTEX
  5
EA
  8
METAL
 10
0.0
 20
0.0
 30
0.0
 70
   128
 71
    37
 72
    38
 73
    39
 74
    40
  0
VERTEX
  5
77
  8
METAL
 10
0.0
 20
0.0
 30
0.0
 70
   128
 71
    41
 72
    42
 73
    43
 74
    44
  0
VERTEX
  5
78
  8
METAL
 10
0.0
 20
0.0
 30
0.0
 70
   128
 71
    45
 72
    46
 73
    47
 74
    48
  0
SEQEND
  5
121
  8
METAL
  0
POLYLINE
  5
7A
  8
METAL
 66
     1
 10
0.0
 20
0.0
 30
0.0
 70
    64
 71
    64
 72
    26
  0
VERTEX
  5
7B
  8
METAL
 10
89.8121337890625
 20
-10.626708984375
 30
7.778539657592777
 70
   192
  0
VERTEX
  5
7C
  8
METAL
 10
89.8121337890625
 20
-10.626708984375
 30
7.778539657592777
 70
   192
  0
VERTEX
  5
7D
  8
METAL
 10
89.8121337890625
 20
-10.626708984375
 30
7.778539657592777
 70
   192
  0
VERTEX
  5
7E
  8
METAL
 10
89.8121337890625
 20
-16.38413047790527
 30
7.780057907104496
 70
   192
  0
VERTEX
  5
7F
  8
METAL
 10
89.8121337890625
 20
-16.38413047790527
 30
7.780057907104496
 70
   192
  0
VERTEX
  5
80
  8
METAL
 10
89.8121337890625
 20
-16.38413047790527
 30
7.780057907104496
 70
   192
  0
VERTEX
  5
81
  8
METAL
 10
89.8121337890625
 20
-21.49889755249023
 30
-7.5
 70
   192
  0
VERTEX
  5
82
  8
METAL
 10
89.8121337890625
 20
-21.49889755249023
 30
-7.5
 70
   192
  0
VERTEX
  5
83
  8
METAL
 10
89.8121337890625
 20
-21.49889755249023
 30
-7.5
 70
   192
  0
VERTEX
  5
84
  8
METAL
 10
89.8121337890625
 20
-25.05104446411133
 30
-5.108335018157959
 70
   192
  0
VERTEX
  5
85
  8
METAL
 10
89.8121337890625
 20
-25.05104446411133
 30
-5.108335018157959
 70
   192
  0
VERTEX
  5
86
  8
METAL
 10
89.8121337890625
 20
-25.05104446411133
 30
-5.108335018157959
 70
   192
  0
VERTEX
  5
87
  8
METAL
 10
59.90993118286133
 20
-12.48160552978515
 30
7.778539657592777
 70
   192
  0
VERTEX
  5
88
  8
METAL
 10
59.90993118286133
 20
-12.48160552978515
 30
7.778539657592777
 70
   192
  0
VERTEX
  5
89
  8
METAL
 10
59.90993118286133
 20
-18.06310272216797
 30
7.780057907104496
 70
   192
  0
VERTEX
  5
8A
  8
METAL
 10
59.90993118286133
 20
-18.06310272216797
 30
7.780057907104496
 70
   192
  0
VERTEX
  5
8B
  8
METAL
 10
59.90993118286133
 20
-23.35213088989258
 30
-7.5
 70
   192
  0
VERTEX
  5
8C
  8
METAL
 10
59.90993118286133
 20
-23.35213088989258
 30
-7.5
 70
   192
  0
VERTEX
  5
8D
  8
METAL
 10
59.90993118286133
 20
-26.6796760559082
 30
-5.108335018157959
 70
   192
  0
VERTEX
  5
8E
  8
METAL
 10
59.90993118286133
 20
-26.6796760559082
 30
-5.108335018157959
 70
   192
  0
VERTEX
  5
8F
  8
METAL
 10
30.00771713256836
 20
-13.7346019744873
 30
7.778539657592777
 70
   192
  0
VERTEX
  5
90
  8
METAL
 10
30.00771713256836
 20
-13.7346019744873
 30
7.778539657592777
 70
   192
  0
VERTEX
  5
91
  8
METAL
 10
30.00771713256836
 20
-27.99899578094482
 30
-5.108335018157959
 70
   192
  0
VERTEX
  5
EC
  8
METAL
 10
30.00771713256836
 20
-27.99899578094482
 30
-5.108335018157959
 70
   192
  0
VERTEX
  5
ED
  8
METAL
 10
30.00770950317383
 20
-19.27602195739746
 30
7.780057907104496
 70
   192
  0
VERTEX
  5
94
  8
METAL
 10
30.00770950317383
 20
-19.27602195739746
 30
7.780057907104496
 70
   192
  0
VERTEX
  5
95
  8
METAL
 10
30.00770950317383
 20
-24.53934860229492
 30
-7.5
 70
   192
  0
VERTEX
  5
96
  8
METAL
 10
30.00770950317383
 20
-24.53934860229492
 30
-7.5
 70
   192
  0
VERTEX
  5
EE
  8
METAL
 10
0.1055035591125488
 20
-14.79459571838379
 30
7.778539657592777
 70
   192
  0
VERTEX
  5
EF
  8
METAL
 10
0.1055035591125488
 20
-14.79459571838379
 30
7.778539657592777
 70
   192
  0
VERTEX
  5
99
  8
METAL
 10
0.1055035591125488
 20
-19.71230506896972
 30
7.780057907104496
 70
   192
  0
VERTEX
  5
9A
  8
METAL
 10
0.1055035591125488
 20
-19.71230506896972
 30
7.780057907104496
 70
   192
  0
VERTEX
  5
9B
  8
METAL
 10
0.1055035591125488
 20
-25.2901668548584
 30
-7.5
 70
   192
  0
VERTEX
  5
9C
  8
METAL
 10
0.1055035591125488
 20
-25.2901668548584
 30
-7.5
 70
   192
  0
VERTEX
  5
9D
  8
METAL
 10
0.1055035591125488
 20
-28.71769905090332
 30
-5.108335018157959
 70
   192
  0
VERTEX
  5
9E
  8
METAL
 10
0.1055035591125488
 20
-28.71769905090332
 30
-5.108335018157959
 70
   192
  0
VERTEX
  5
9F
  8
METAL
 10
-29.79670333862305
 20
-13.7346019744873
 30
7.778539657592777
 70
   192
  0
VERTEX
  5
A0
  8
METAL
 10
-29.79670333862305
 20
-13.7346019744873
 30
7.778539657592777
 70
   192
  0
VERTEX
  5
A1
  8
METAL
 10
-29.79670333862305
 20
-27.99899578094482
 30
-5.108335018157959
 70
   192
  0
VERTEX
  5
A2
  8
METAL
 10
-29.79670333862305
 20
-27.99899578094482
 30
-5.108335018157959
 70
   192
  0
VERTEX
  5
A3
  8
METAL
 10
-29.79670906066895
 20
-19.27602195739746
 30
7.780057907104496
 70
   192
  0
VERTEX
  5
A4
  8
METAL
 10
-29.79670906066895
 20
-19.27602195739746
 30
7.780057907104496
 70
   192
  0
VERTEX
  5
A5
  8
METAL
 10
-29.79671096801758
 20
-24.10024261474609
 30
-7.5
 70
   192
  0
VERTEX
  5
A6
  8
METAL
 10
-29.79671096801758
 20
-24.10024261474609
 30
-7.5
 70
   192
  0
VERTEX
  5
A7
  8
METAL
 10
-59.69892120361328
 20
-18.02507591247558
 30
7.780057907104496
 70
   192
  0
VERTEX
  5
A8
  8
METAL
 10
-59.69892120361328
 20
-18.02507591247558
 30
7.780057907104496
 70
   192
  0
VERTEX
  5
A9
  8
METAL
 10
-59.69892501831054
 20
-12.48160552978515
 30
7.778539657592777
 70
   192
  0
VERTEX
  5
AA
  8
METAL
 10
-59.69892501831054
 20
-12.48160552978515
 30
7.778539657592777
 70
   192
  0
VERTEX
  5
AB
  8
METAL
 10
-59.69892501831054
 20
-23.35213088989258
 30
-7.5
 70
   192
  0
VERTEX
  5
AC
  8
METAL
 10
-59.69892501831054
 20
-23.35213088989258
 30
-7.5
 70
   192
  0
VERTEX
  5
AD
  8
METAL
 10
-59.69892501831054
 20
-26.6796760559082
 30
-5.108335018157959
 70
   192
  0
VERTEX
  5
AE
  8
METAL
 10
-59.69892501831054
 20
-26.6796760559082
 30
-5.108335018157959
 70
   192
  0
VERTEX
  5
AF
  8
METAL
 10
-90.0
 20
-10.626708984375
 30
7.778539657592777
 70
   192
  0
VERTEX
  5
B0
  8
METAL
 10
-90.0
 20
-10.626708984375
 30
7.778539657592777
 70
   192
  0
VERTEX
  5
B1
  8
METAL
 10
-90.0
 20
-10.626708984375
 30
7.778539657592777
 70
   192
  0
VERTEX
  5
B2
  8
METAL
 10
-90.0
 20
-16.38413047790527
 30
7.780057907104496
 70
   192
  0
VERTEX
  5
B3
  8
METAL
 10
-90.0
 20
-16.38413047790527
 30
7.780057907104496
 70
   192
  0
VERTEX
  5
B4
  8
METAL
 10
-90.0
 20
-16.38413047790527
 30
7.780057907104496
 70
   192
  0
VERTEX
  5
B5
  8
METAL
 10
-90.0
 20
-21.49889755249023
 30
-7.499999046325684
 70
   192
  0
VERTEX
  5
B6
  8
METAL
 10
-90.0
 20
-21.49889755249023
 30
-7.499999046325684
 70
   192
  0
VERTEX
  5
B7
  8
METAL
 10
-90.0
 20
-21.49889755249023
 30
-7.499999046325684
 70
   192
  0
VERTEX
  5
B8
  8
METAL
 10
-90.0
 20
-25.05104446411133
 30
-5.108335018157959
 70
   192
  0
VERTEX
  5
B9
  8
METAL
 10
-90.0
 20
-25.05104446411133
 30
-5.108335018157959
 70
   192
  0
VERTEX
  5
BA
  8
METAL
 10
-90.0
 20
-25.05104446411133
 30
-5.108335018157959
 70
   192
  0
VERTEX
  5
BB
  8
METAL
 10
0.0
 20
0.0
 30
0.0
 70
   128
 71
    34
 72
    36
 73
    39
 74
    44
  0
VERTEX
  5
BC
  8
METAL
 10
0.0
 20
0.0
 30
0.0
 70
   128
 71
    32
 72
    30
 73
    38
 74
    41
  0
VERTEX
  5
BD
  8
METAL
 10
0.0
 20
0.0
 30
0.0
 70
   128
 71
    35
 72
    31
 73
    42
 74
    40
  0
VERTEX
  5
BE
  8
METAL
 10
0.0
 20
0.0
 30
0.0
 70
   128
 71
    10
 72
     7
 73
     1
 74
     4
  0
VERTEX
  5
BF
  8
METAL
 10
0.0
 20
0.0
 30
0.0
 70
   128
 71
    33
 72
    29
 73
    22
 74
    28
  0
VERTEX
  5
C0
  8
METAL
 10
0.0
 20
0.0
 30
0.0
 70
   128
 71
    61
 72
    64
 73
    58
 74
    55
  0
VERTEX
  5
C1
  8
METAL
 10
0.0
 20
0.0
 30
0.0
 70
   128
 71
     8
 72
    12
 73
    20
 74
    17
  0
VERTEX
  5
C2
  8
METAL
 10
0.0
 20
0.0
 30
0.0
 70
   128
 71
    17
 72
    20
 73
    24
 74
    27
  0
VERTEX
  5
C3
  8
METAL
 10
0.0
 20
0.0
 30
0.0
 70
   128
 71
    27
 72
    24
 73
    36
 74
    34
  0
VERTEX
  5
C4
  8
METAL
 10
0.0
 20
0.0
 30
0.0
 70
   128
 71
    62
 72
    60
 73
    50
 74
    51
  0
VERTEX
  5
C5
  8
METAL
 10
0.0
 20
0.0
 30
0.0
 70
   128
 71
    51
 72
    50
 73
    44
 74
    39
  0
VERTEX
  5
C6
  8
METAL
 10
0.0
 20
0.0
 30
0.0
 70
   128
 71
     6
 72
     2
 73
    13
 74
    16
  0
VERTEX
  5
C7
  8
METAL
 10
0.0
 20
0.0
 30
0.0
 70
   128
 71
    16
 72
    13
 73
    21
 74
    26
  0
VERTEX
  5
C8
  8
METAL
 10
0.0
 20
0.0
 30
0.0
 70
   128
 71
    26
 72
    21
 73
    30
 74
    32
  0
VERTEX
  5
C9
  8
METAL
 10
0.0
 20
0.0
 30
0.0
 70
   128
 71
    54
 72
    56
 73
    45
 74
    48
  0
VERTEX
  5
CA
  8
METAL
 10
0.0
 20
0.0
 30
0.0
 70
   128
 71
    48
 72
    45
 73
    41
 74
    38
  0
VERTEX
  5
CB
  8
METAL
 10
0.0
 20
0.0
 30
0.0
 70
   128
 71
    11
 72
     5
 73
    15
 74
    19
  0
VERTEX
  5
CC
  8
METAL
 10
0.0
 20
0.0
 30
0.0
 70
   128
 71
    19
 72
    15
 73
    25
 74
    23
  0
VERTEX
  5
CD
  8
METAL
 10
0.0
 20
0.0
 30
0.0
 70
   128
 71
    23
 72
    25
 73
    31
 74
    35
  0
VERTEX
  5
CE
  8
METAL
 10
0.0
 20
0.0
 30
0.0
 70
   128
 71
    57
 72
    63
 73
    52
 74
    46
  0
VERTEX
  5
CF
  8
METAL
 10
0.0
 20
0.0
 30
0.0
 70
   128
 71
    46
 72
    52
 73
    40
 74
    42
  0
VERTEX
  5
D0
  8
METAL
 10
0.0
 20
0.0
 30
0.0
 70
   128
 71
    59
 72
    53
 73
    47
 74
    49
  0
VERTEX
  5
D1
  8
METAL
 10
0.0
 20
0.0
 30
0.0
 70
   128
 71
    49
 72
    47
 73
    37
 74
    43
  0
VERTEX
  5
D2
  8
METAL
 10
0.0
 20
0.0
 30
0.0
 70
   128
 71
    43
 72
    37
 73
    29
 74
    33
  0
VERTEX
  5
D3
  8
METAL
 10
0.0
 20
0.0
 30
0.0
 70
   128
 71
     3
 72
     9
 73
    18
 74
    14
  0
VERTEX
  5
D4
  8
METAL
 10
0.0
 20
0.0
 30
0.0
 70
   128
 71
    14
 72
    18
 73
    28
 74
    22
  0
SEQEND
  5
122
  8
METAL
  0
ENDSEC
  0
EOF
