  0
SECTION
  2
HEADER
  9
$ACADVER
  1
AC1009
  9
$DWGCODEPAGE
  3
ansi_1252
  9
$INSBASE
 10
0.0
 20
0.0
 30
0.0
  9
$EXTMIN
 10
-97.5
 20
-28.62448883056641
 30
-4.5
  9
$EXTMAX
 10
97.49214172363284
 20
0.0
 30
5.013553619384773
  9
$LIMMIN
 10
0.0
 20
0.0
  9
$LIMMAX
 10
12.0
 20
9.0
  9
$ORTHOMODE
 70
     1
  9
$REGENMODE
 70
     1
  9
$FILLMODE
 70
     1
  9
$QTEXTMODE
 70
     0
  9
$MIRRTEXT
 70
     1
  9
$DRAGMODE
 70
     2
  9
$LTSCALE
 40
1.0
  9
$OSMODE
 70
    37
  9
$ATTMODE
 70
     1
  9
$TEXTSIZE
 40
0.2
  9
$TRACEWID
 40
0.05
  9
$TEXTSTYLE
  7
STANDARD
  9
$CLAYER
  8
0
  9
$CELTYPE
  6
BYLAYER
  9
$CECOLOR
 62
   256
  9
$DIMSCALE
 40
1.0
  9
$DIMASZ
 40
0.18
  9
$DIMEXO
 40
0.0625
  9
$DIMDLI
 40
0.38
  9
$DIMRND
 40
0.0
  9
$DIMDLE
 40
0.0
  9
$DIMEXE
 40
0.18
  9
$DIMTP
 40
0.0
  9
$DIMTM
 40
0.0
  9
$DIMTXT
 40
0.18
  9
$DIMCEN
 40
0.09
  9
$DIMTSZ
 40
0.0
  9
$DIMTOL
 70
     0
  9
$DIMLIM
 70
     0
  9
$DIMTIH
 70
     1
  9
$DIMTOH
 70
     1
  9
$DIMSE1
 70
     0
  9
$DIMSE2
 70
     0
  9
$DIMTAD
 70
     0
  9
$DIMZIN
 70
     0
  9
$DIMBLK
  1

  9
$DIMASO
 70
     1
  9
$DIMSHO
 70
     1
  9
$DIMPOST
  1

  9
$DIMAPOST
  1

  9
$DIMALT
 70
     0
  9
$DIMALTD
 70
     2
  9
$DIMALTF
 40
25.4
  9
$DIMLFAC
 40
1.0
  9
$DIMTOFL
 70
     0
  9
$DIMTVP
 40
0.0
  9
$DIMTIX
 70
     0
  9
$DIMSOXD
 70
     0
  9
$DIMSAH
 70
     0
  9
$DIMBLK1
  1

  9
$DIMBLK2
  1

  9
$DIMSTYLE
  2
STANDARD
  9
$DIMCLRD
 70
     0
  9
$DIMCLRE
 70
     0
  9
$DIMCLRT
 70
     0
  9
$DIMTFAC
 40
1.0
  9
$DIMGAP
 40
0.09
  9
$LUNITS
 70
     2
  9
$LUPREC
 70
     3
  9
$SKETCHINC
 40
0.1
  9
$FILLETRAD
 40
0.5
  9
$AUNITS
 70
     0
  9
$AUPREC
 70
     0
  9
$MENU
  1
.
  9
$ELEVATION
 40
0.0
  9
$PELEVATION
 40
0.0
  9
$THICKNESS
 40
0.0
  9
$LIMCHECK
 70
     0
  9
$CHAMFERA
 40
0.5
  9
$CHAMFERB
 40
0.5
  9
$SKPOLY
 70
     0
  9
$TDCREATE
 40
2456499.626888924
  9
$TDUPDATE
 40
2456499.626888924
  9
$TDINDWG
 40
0.0018750116
  9
$TDUSRTIMER
 40
0.0018750116
  9
$USRTIMER
 70
     1
  9
$ANGBASE
 50
0.0
  9
$ANGDIR
 70
     0
  9
$PDMODE
 70
     0
  9
$PDSIZE
 40
0.0
  9
$PLINEWID
 40
0.0
  9
$COORDS
 70
     1
  9
$SPLFRAME
 70
     0
  9
$SPLINETYPE
 70
     6
  9
$SPLINESEGS
 70
     8
  9
$ATTDIA
 70
     0
  9
$ATTREQ
 70
     1
  9
$HANDLING
 70
     1
  9
$HANDSEED
  5
20E
  9
$SURFTAB1
 70
     6
  9
$SURFTAB2
 70
     6
  9
$SURFTYPE
 70
     6
  9
$SURFU
 70
     6
  9
$SURFV
 70
     6
  9
$UCSNAME
  2

  9
$UCSORG
 10
0.0
 20
0.0
 30
0.0
  9
$UCSXDIR
 10
1.0
 20
0.0
 30
0.0
  9
$UCSYDIR
 10
0.0
 20
0.0
 30
1.0
  9
$PUCSNAME
  2

  9
$PUCSORG
 10
0.0
 20
0.0
 30
0.0
  9
$PUCSXDIR
 10
1.0
 20
0.0
 30
0.0
  9
$PUCSYDIR
 10
0.0
 20
1.0
 30
0.0
  9
$USERI1
 70
     0
  9
$USERI2
 70
     0
  9
$USERI3
 70
     0
  9
$USERI4
 70
     0
  9
$USERI5
 70
     0
  9
$USERR1
 40
0.0
  9
$USERR2
 40
0.0
  9
$USERR3
 40
0.0
  9
$USERR4
 40
0.0
  9
$USERR5
 40
0.0
  9
$WORLDVIEW
 70
     1
  9
$SHADEDGE
 70
     3
  9
$SHADEDIF
 70
    70
  9
$TILEMODE
 70
     1
  9
$MAXACTVP
 70
    64
  9
$PLIMCHECK
 70
     0
  9
$PEXTMIN
 10
1.000000000000000E+20
 20
1.000000000000000E+20
 30
1.000000000000000E+20
  9
$PEXTMAX
 10
-1.000000000000000E+20
 20
-1.000000000000000E+20
 30
-1.000000000000000E+20
  9
$PLIMMIN
 10
0.0
 20
0.0
  9
$PLIMMAX
 10
12.0
 20
9.0
  9
$UNITMODE
 70
     0
  9
$VISRETAIN
 70
     1
  9
$PLINEGEN
 70
     0
  9
$PSLTSCALE
 70
     1
  0
ENDSEC
  0
SECTION
  2
TABLES
  0
TABLE
  2
VPORT
 70
     1
  0
VPORT
  2
*ACTIVE
 70
     0
 10
0.0
 20
0.0
 11
1.0
 21
1.0
 12
10.11750675979222
 22
-5.634895992011422
 13
0.0
 23
0.0
 14
0.5
 24
0.5
 15
0.5
 25
0.5
 16
-1.0
 26
-1.0
 36
1.0
 17
0.0
 27
0.0
 37
0.0
 40
126.3000862108202
 41
22.84500109105883
 42
50.0
 43
0.0
 44
0.0
 50
0.0
 51
0.0
 71
    16
 72
   100
 73
     0
 74
     1
 75
     0
 76
     0
 77
     0
 78
     0
  0
ENDTAB
  0
TABLE
  2
LTYPE
 70
     1
  0
LTYPE
  2
CONTINUOUS
 70
     0
  3
Solid line
 72
    65
 73
     0
 40
0.0
  0
ENDTAB
  0
TABLE
  2
LAYER
 70
     2
  0
LAYER
  2
0
 70
     0
 62
     7
  6
CONTINUOUS
  0
LAYER
  2
METAL
 70
     0
 62
   160
  6
CONTINUOUS
  0
ENDTAB
  0
TABLE
  2
STYLE
 70
     1
  0
STYLE
  2
STANDARD
 70
     0
 40
0.0
 41
1.0
 50
0.0
 71
     0
 42
0.2
  3
txt
  4

  0
ENDTAB
  0
TABLE
  2
VIEW
 70
     0
  0
ENDTAB
  0
TABLE
  2
UCS
 70
     0
  0
ENDTAB
  0
TABLE
  2
APPID
 70
     1
  0
APPID
  2
ACAD
 70
     0
  0
ENDTAB
  0
TABLE
  2
DIMSTYLE
 70
     1
  0
DIMSTYLE
  2
STANDARD
 70
     0
  3

  4

  5

  6

  7

 40
1.0
 41
0.18
 42
0.0625
 43
0.38
 44
0.18
 45
0.0
 46
0.0
 47
0.0
 48
0.0
140
0.18
141
0.09
142
0.0
143
25.4
144
1.0
145
0.0
146
1.0
147
0.09
 71
     0
 72
     0
 73
     1
 74
     1
 75
     0
 76
     0
 77
     0
 78
     0
170
     0
171
     2
172
     0
173
     0
174
     0
175
     0
176
     0
177
     0
178
     0
  0
ENDTAB
  0
ENDSEC
  0
SECTION
  2
BLOCKS
  0
BLOCK
  8
0
  2
$MODEL_SPACE
 70
     0
 10
0.0
 20
0.0
 30
0.0
  3
$MODEL_SPACE
  1

  0
ENDBLK
  5
21
  8
0
  0
BLOCK
 67
     1
  8
0
  2
$PAPER_SPACE
 70
     0
 10
0.0
 20
0.0
 30
0.0
  3
$PAPER_SPACE
  1

  0
ENDBLK
  5
76
 67
     1
  8
0
  0
ENDSEC
  0
SECTION
  2
ENTITIES
  0
POLYLINE
  5
3C
  8
METAL
 66
     1
 10
0.0
 20
0.0
 30
0.0
 70
    64
 71
   304
 72
   132
  0
VERTEX
  5
3D
  8
METAL
 10
97.49214172363284
 20
-1.684680938720712
 30
5.013553619384773
 70
   192
  0
VERTEX
  5
3E
  8
METAL
 10
97.49214172363284
 20
-1.684680938720712
 30
5.013553619384773
 70
   192
  0
VERTEX
  5
3F
  8
METAL
 10
97.49214172363284
 20
-0.0000038146972672
 30
5.013553619384773
 70
   192
  0
VERTEX
  5
40
  8
METAL
 10
97.49214172363284
 20
-0.0000038146972672
 30
5.013553619384773
 70
   192
  0
VERTEX
  5
41
  8
METAL
 10
97.49214172363284
 20
-0.0000038146972672
 30
5.013553619384773
 70
   192
  0
VERTEX
  5
42
  8
METAL
 10
97.49214172363284
 20
-6.106967926025392
 30
4.852531433105476
 70
   192
  0
VERTEX
  5
43
  8
METAL
 10
97.49214172363284
 20
-6.106967926025392
 30
4.852531433105476
 70
   192
  0
VERTEX
  5
44
  8
METAL
 10
97.49214172363284
 20
-10.52925109863281
 30
4.649600982666023
 70
   192
  0
VERTEX
  5
45
  8
METAL
 10
97.49214172363284
 20
-10.52925109863281
 30
4.649600982666023
 70
   192
  0
VERTEX
  5
46
  8
METAL
 10
97.49214172363284
 20
-15.4515380859375
 30
4.295917510986335
 70
   192
  0
VERTEX
  5
47
  8
METAL
 10
97.49214172363284
 20
-15.4515380859375
 30
4.295917510986335
 70
   192
  0
VERTEX
  5
48
  8
METAL
 10
97.49214172363284
 20
-17.66268157958985
 30
4.071914672851562
 70
   192
  0
VERTEX
  5
49
  8
METAL
 10
97.49214172363284
 20
-17.66268157958985
 30
4.071914672851562
 70
   192
  0
VERTEX
  5
4A
  8
METAL
 10
97.49214172363284
 20
-18.76824951171875
 30
3.971794128417976
 70
   192
  0
VERTEX
  5
4B
  8
METAL
 10
97.49214172363284
 20
-18.76824951171875
 30
3.971794128417976
 70
   192
  0
VERTEX
  5
4C
  8
METAL
 10
97.49214172363284
 20
-19.87382507324219
 30
3.871669769287109
 70
   192
  0
VERTEX
  5
4D
  8
METAL
 10
97.49214172363284
 20
-19.87382507324219
 30
3.871669769287109
 70
   192
  0
VERTEX
  5
4E
  8
METAL
 10
97.49214172363284
 20
-20.71616363525391
 30
3.752872467041016
 70
   192
  0
VERTEX
  5
4F
  8
METAL
 10
97.49214172363284
 20
-20.71616363525391
 30
3.752872467041016
 70
   192
  0
VERTEX
  5
50
  8
METAL
 10
97.49214172363284
 20
-21.55850219726563
 30
3.669563293457031
 70
   192
  0
VERTEX
  5
51
  8
METAL
 10
97.49214172363284
 20
-21.55850219726563
 30
3.669563293457031
 70
   192
  0
VERTEX
  5
52
  8
METAL
 10
97.49214172363284
 20
-22.73048400878907
 30
3.518024444580078
 70
   192
  0
VERTEX
  5
53
  8
METAL
 10
97.49214172363284
 20
-22.73048400878907
 30
3.518024444580078
 70
   192
  0
VERTEX
  5
54
  8
METAL
 10
97.49214172363284
 20
-22.73048400878907
 30
3.518024444580078
 70
   192
  0
VERTEX
  5
55
  8
METAL
 10
97.49214172363284
 20
-22.73048400878907
 30
-3.004478454589837
 70
   192
  0
VERTEX
  5
56
  8
METAL
 10
97.49214172363284
 20
-22.73048400878907
 30
-3.004478454589837
 70
   192
  0
VERTEX
  5
57
  8
METAL
 10
97.49214172363284
 20
-22.73048400878907
 30
-3.004478454589837
 70
   192
  0
VERTEX
  5
58
  8
METAL
 10
97.49214172363284
 20
-21.55850219726563
 30
-3.156017303466797
 70
   192
  0
VERTEX
  5
1FE
  8
METAL
 10
97.49214172363284
 20
-21.55850219726563
 30
-3.156017303466797
 70
   192
  0
VERTEX
  5
1FF
  8
METAL
 10
97.49214172363284
 20
-20.71616363525391
 30
-3.239326477050781
 70
   192
  0
VERTEX
  5
5B
  8
METAL
 10
97.49214172363284
 20
-20.71616363525391
 30
-3.239326477050781
 70
   192
  0
VERTEX
  5
5C
  8
METAL
 10
97.49214172363284
 20
-19.87382507324219
 30
-3.358121871948242
 70
   192
  0
VERTEX
  5
5D
  8
METAL
 10
97.49214172363284
 20
-19.87382507324219
 30
-3.358121871948242
 70
   192
  0
VERTEX
  5
200
  8
METAL
 10
97.49214172363284
 20
-18.76824951171875
 30
-3.458246231079094
 70
   192
  0
VERTEX
  5
5F
  8
METAL
 10
97.49214172363284
 20
-18.76824951171875
 30
-3.458246231079094
 70
   192
  0
VERTEX
  5
60
  8
METAL
 10
97.49214172363284
 20
-17.66268157958984
 30
-3.558370590209954
 70
   192
  0
VERTEX
  5
61
  8
METAL
 10
97.49214172363284
 20
-17.66268157958984
 30
-3.558370590209954
 70
   192
  0
VERTEX
  5
62
  8
METAL
 10
97.49214172363284
 20
-15.4515380859375
 30
-3.782369613647454
 70
   192
  0
VERTEX
  5
63
  8
METAL
 10
97.49214172363284
 20
-15.4515380859375
 30
-3.782369613647454
 70
   192
  0
VERTEX
  5
64
  8
METAL
 10
97.49214172363284
 20
-10.52925109863281
 30
-4.136051177978509
 70
   192
  0
VERTEX
  5
65
  8
METAL
 10
97.49214172363284
 20
-10.52925109863281
 30
-4.136051177978509
 70
   192
  0
VERTEX
  5
66
  8
METAL
 10
97.49214172363284
 20
-6.106971740722656
 30
-4.338981628417969
 70
   192
  0
VERTEX
  5
67
  8
METAL
 10
97.49214172363284
 20
-6.106971740722656
 30
-4.338981628417969
 70
   192
  0
VERTEX
  5
68
  8
METAL
 10
97.49214172363284
 20
-1.684684753417969
 30
-4.5
 70
   192
  0
VERTEX
  5
69
  8
METAL
 10
97.49214172363284
 20
-1.684684753417969
 30
-4.5
 70
   192
  0
VERTEX
  5
6A
  8
METAL
 10
97.49214172363284
 20
-0.0000038146972656
 30
-4.5
 70
   192
  0
VERTEX
  5
201
  8
METAL
 10
97.49214172363284
 20
-0.0000038146972656
 30
-4.5
 70
   192
  0
VERTEX
  5
202
  8
METAL
 10
97.49214172363284
 20
-0.0000038146972656
 30
-4.5
 70
   192
  0
VERTEX
  5
6D
  8
METAL
 10
97.12376403808594
 20
-25.3091049194336
 30
3.177478790283196
 70
   192
  0
VERTEX
  5
6E
  8
METAL
 10
97.12376403808594
 20
-25.3091049194336
 30
3.177478790283196
 70
   192
  0
VERTEX
  5
6F
  8
METAL
 10
97.12376403808594
 20
-25.3091049194336
 30
3.177478790283196
 70
   192
  0
VERTEX
  5
70
  8
METAL
 10
97.12376403808594
 20
-25.3091049194336
 30
-2.663936614990227
 70
   192
  0
VERTEX
  5
71
  8
METAL
 10
97.12376403808594
 20
-25.3091049194336
 30
-2.663936614990227
 70
   192
  0
VERTEX
  5
72
  8
METAL
 10
97.12376403808594
 20
-25.3091049194336
 30
-2.663936614990227
 70
   192
  0
VERTEX
  5
203
  8
METAL
 10
96.01863098144534
 20
-27.15098571777344
 30
2.897201538085938
 70
   192
  0
VERTEX
  5
204
  8
METAL
 10
96.01863098144534
 20
-27.15098571777344
 30
2.897201538085938
 70
   192
  0
VERTEX
  5
205
  8
METAL
 10
96.01863098144534
 20
-27.15098571777344
 30
2.897201538085938
 70
   192
  0
VERTEX
  5
206
  8
METAL
 10
96.01863098144534
 20
-27.15098571777344
 30
-2.383657455444329
 70
   192
  0
VERTEX
  5
77
  8
METAL
 10
96.01863098144534
 20
-27.15098571777344
 30
-2.383657455444329
 70
   192
  0
VERTEX
  5
78
  8
METAL
 10
96.01863098144534
 20
-27.15098571777344
 30
-2.383657455444329
 70
   192
  0
VERTEX
  5
79
  8
METAL
 10
94.17675781250003
 20
-28.25611114501953
 30
2.7354736328125
 70
   192
  0
VERTEX
  5
7A
  8
METAL
 10
94.17675781250003
 20
-28.25611114501953
 30
2.7354736328125
 70
   192
  0
VERTEX
  5
7B
  8
METAL
 10
94.17675781250003
 20
-28.25611114501953
 30
2.7354736328125
 70
   192
  0
VERTEX
  5
7C
  8
METAL
 10
94.17675781250003
 20
-28.25611114501953
 30
-2.221929550170898
 70
   192
  0
VERTEX
  5
7D
  8
METAL
 10
94.17675781250003
 20
-28.25611114501953
 30
-2.221929550170898
 70
   192
  0
VERTEX
  5
7E
  8
METAL
 10
94.17675781250003
 20
-28.25611114501953
 30
-2.221929550170898
 70
   192
  0
VERTEX
  5
7F
  8
METAL
 10
91.59812927246094
 20
-28.62448883056641
 30
2.7354736328125
 70
   192
  0
VERTEX
  5
80
  8
METAL
 10
91.59812927246094
 20
-28.62448883056641
 30
2.7354736328125
 70
   192
  0
VERTEX
  5
81
  8
METAL
 10
91.59812927246094
 20
-28.62448883056641
 30
2.7354736328125
 70
   192
  0
VERTEX
  5
82
  8
METAL
 10
91.59812927246094
 20
-28.62448120117188
 30
-2.221929550170898
 70
   192
  0
VERTEX
  5
83
  8
METAL
 10
91.59812927246094
 20
-28.62448120117188
 30
-2.221929550170898
 70
   192
  0
VERTEX
  5
84
  8
METAL
 10
91.59812927246094
 20
-28.62448120117188
 30
-2.221929550170898
 70
   192
  0
VERTEX
  5
85
  8
METAL
 10
37.63552093505859
 20
-0.0000000000000016
 30
5.013553619384773
 70
   192
  0
VERTEX
  5
86
  8
METAL
 10
37.63552093505859
 20
-0.0000000000000016
 30
5.013553619384773
 70
   192
  0
VERTEX
  5
87
  8
METAL
 10
37.63552093505859
 20
-0.0000000000000016
 30
5.013553619384773
 70
   192
  0
VERTEX
  5
88
  8
METAL
 10
37.63552093505859
 20
0.0
 30
-4.5
 70
   192
  0
VERTEX
  5
89
  8
METAL
 10
37.63552093505859
 20
0.0
 30
-4.5
 70
   192
  0
VERTEX
  5
8A
  8
METAL
 10
37.63552093505859
 20
0.0
 30
-4.5
 70
   192
  0
VERTEX
  5
8B
  8
METAL
 10
35.80436706542969
 20
-1.684677124023439
 30
5.013553619384773
 70
   192
  0
VERTEX
  5
8C
  8
METAL
 10
35.80436706542969
 20
-1.684677124023439
 30
5.013553619384773
 70
   192
  0
VERTEX
  5
8D
  8
METAL
 10
35.80436706542969
 20
-1.684677124023439
 30
5.013553619384773
 70
   192
  0
VERTEX
  5
8E
  8
METAL
 10
35.80436706542969
 20
-1.684684753417969
 30
-4.5
 70
   192
  0
VERTEX
  5
8F
  8
METAL
 10
35.80436706542969
 20
-1.684684753417969
 30
-4.5
 70
   192
  0
VERTEX
  5
90
  8
METAL
 10
35.80436706542969
 20
-1.684684753417969
 30
-4.5
 70
   192
  0
VERTEX
  5
91
  8
METAL
 10
29.17824554443359
 20
-6.106960296630861
 30
4.852531433105476
 70
   192
  0
VERTEX
  5
207
  8
METAL
 10
29.17824554443359
 20
-6.106960296630861
 30
4.852531433105476
 70
   192
  0
VERTEX
  5
208
  8
METAL
 10
29.17824554443359
 20
-6.106960296630861
 30
4.852531433105476
 70
   192
  0
VERTEX
  5
94
  8
METAL
 10
29.17824554443359
 20
-6.106967926025391
 30
-4.338981628417969
 70
   192
  0
VERTEX
  5
95
  8
METAL
 10
29.17824554443359
 20
-6.106967926025391
 30
-4.338981628417969
 70
   192
  0
VERTEX
  5
96
  8
METAL
 10
29.17824554443359
 20
-6.106967926025391
 30
-4.338981628417969
 70
   192
  0
VERTEX
  5
209
  8
METAL
 10
21.46123504638672
 20
-10.52925109863281
 30
4.649597167968757
 70
   192
  0
VERTEX
  5
20A
  8
METAL
 10
21.46123504638672
 20
-10.52925109863281
 30
4.649597167968757
 70
   192
  0
VERTEX
  5
99
  8
METAL
 10
21.46123504638672
 20
-10.52925109863281
 30
4.649597167968757
 70
   192
  0
VERTEX
  5
9A
  8
METAL
 10
21.46123504638672
 20
-10.52925109863281
 30
-4.136051177978509
 70
   192
  0
VERTEX
  5
9B
  8
METAL
 10
21.46123504638672
 20
-10.52925109863281
 30
-4.136051177978509
 70
   192
  0
VERTEX
  5
9C
  8
METAL
 10
21.46123504638672
 20
-10.52925109863281
 30
-4.136051177978509
 70
   192
  0
VERTEX
  5
9D
  8
METAL
 10
11.40021514892578
 20
-15.4515380859375
 30
4.295917510986335
 70
   192
  0
VERTEX
  5
9E
  8
METAL
 10
11.40021514892578
 20
-15.4515380859375
 30
4.295917510986335
 70
   192
  0
VERTEX
  5
9F
  8
METAL
 10
11.40021514892578
 20
-15.4515380859375
 30
4.295917510986335
 70
   192
  0
VERTEX
  5
A0
  8
METAL
 10
11.40021514892578
 20
-15.4515380859375
 30
-3.782369613647454
 70
   192
  0
VERTEX
  5
A1
  8
METAL
 10
11.40021514892578
 20
-15.4515380859375
 30
-3.782369613647454
 70
   192
  0
VERTEX
  5
A2
  8
METAL
 10
11.40021514892578
 20
-15.4515380859375
 30
-3.782369613647454
 70
   192
  0
VERTEX
  5
A3
  8
METAL
 10
4.822868347167969
 20
-17.66268157958985
 30
4.071914672851562
 70
   192
  0
VERTEX
  5
A4
  8
METAL
 10
4.822868347167969
 20
-17.66268157958985
 30
4.071914672851562
 70
   192
  0
VERTEX
  5
A5
  8
METAL
 10
4.822868347167969
 20
-17.66268157958985
 30
4.071914672851562
 70
   192
  0
VERTEX
  5
A6
  8
METAL
 10
4.822868347167969
 20
-17.66268157958984
 30
-3.558368682861328
 70
   192
  0
VERTEX
  5
A7
  8
METAL
 10
4.822868347167969
 20
-17.66268157958984
 30
-3.558368682861328
 70
   192
  0
VERTEX
  5
A8
  8
METAL
 10
4.822868347167969
 20
-17.66268157958984
 30
-3.558368682861328
 70
   192
  0
VERTEX
  5
A9
  8
METAL
 10
0.3627853393554688
 20
-18.76824951171875
 30
3.971794128417976
 70
   192
  0
VERTEX
  5
AA
  8
METAL
 10
0.3627853393554688
 20
-18.76824951171875
 30
3.971794128417976
 70
   192
  0
VERTEX
  5
AB
  8
METAL
 10
0.3627853393554688
 20
-18.76824951171875
 30
3.971794128417976
 70
   192
  0
VERTEX
  5
AC
  8
METAL
 10
0.3627853393554688
 20
-18.76824951171875
 30
-3.458246231079094
 70
   192
  0
VERTEX
  5
AD
  8
METAL
 10
0.3627853393554688
 20
-18.76824951171875
 30
-3.458246231079094
 70
   192
  0
VERTEX
  5
AE
  8
METAL
 10
0.3627853393554688
 20
-18.76824951171875
 30
-3.458246231079094
 70
   192
  0
VERTEX
  5
AF
  8
METAL
 10
-4.423042297363281
 20
-19.87382507324219
 30
3.871669769287109
 70
   192
  0
VERTEX
  5
B0
  8
METAL
 10
-4.423042297363281
 20
-19.87382507324219
 30
3.871669769287109
 70
   192
  0
VERTEX
  5
B1
  8
METAL
 10
-4.423042297363281
 20
-19.87382507324219
 30
3.871669769287109
 70
   192
  0
VERTEX
  5
B2
  8
METAL
 10
-4.423042297363281
 20
-19.87382507324219
 30
-3.358121871948242
 70
   192
  0
VERTEX
  5
B3
  8
METAL
 10
-4.423042297363281
 20
-19.87382507324219
 30
-3.358121871948242
 70
   192
  0
VERTEX
  5
B4
  8
METAL
 10
-4.423042297363281
 20
-19.87382507324219
 30
-3.358121871948242
 70
   192
  0
VERTEX
  5
B5
  8
METAL
 10
-8.978530883789062
 20
-20.71616363525391
 30
3.752872467041016
 70
   192
  0
VERTEX
  5
B6
  8
METAL
 10
-8.978530883789062
 20
-20.71616363525391
 30
3.752872467041016
 70
   192
  0
VERTEX
  5
B7
  8
METAL
 10
-8.978530883789062
 20
-20.71616363525391
 30
3.752872467041016
 70
   192
  0
VERTEX
  5
B8
  8
METAL
 10
-8.978530883789062
 20
-20.71616363525391
 30
-3.239326477050781
 70
   192
  0
VERTEX
  5
B9
  8
METAL
 10
-8.978530883789062
 20
-20.71616363525391
 30
-3.239326477050781
 70
   192
  0
VERTEX
  5
BA
  8
METAL
 10
-8.978530883789062
 20
-20.71616363525391
 30
-3.239326477050781
 70
   192
  0
VERTEX
  5
BB
  8
METAL
 10
-23.60819053649902
 20
-21.55850219726563
 30
3.669563293457031
 70
   192
  0
VERTEX
  5
BC
  8
METAL
 10
-23.60819053649902
 20
-21.55850219726563
 30
3.669563293457031
 70
   192
  0
VERTEX
  5
BD
  8
METAL
 10
-23.60819053649902
 20
-21.55850219726563
 30
3.669563293457031
 70
   192
  0
VERTEX
  5
BE
  8
METAL
 10
-23.60819053649902
 20
-22.73011016845703
 30
3.514682769775391
 70
   192
  0
VERTEX
  5
BF
  8
METAL
 10
-23.60819053649902
 20
-25.30864715576172
 30
3.173812866210938
 70
   192
  0
VERTEX
  5
C0
  8
METAL
 10
-23.60819053649902
 20
-27.15433502197266
 30
2.929821014404297
 70
   192
  0
VERTEX
  5
C1
  8
METAL
 10
-23.60819053649902
 20
-28.26268005371094
 30
2.783306121826165
 70
   192
  0
VERTEX
  5
C2
  8
METAL
 10
-23.60819053649902
 20
-28.62448883056641
 30
2.735477447509766
 70
   192
  0
VERTEX
  5
C3
  8
METAL
 10
-23.60819053649902
 20
-28.62448883056641
 30
2.735477447509766
 70
   192
  0
VERTEX
  5
C4
  8
METAL
 10
-23.60819053649902
 20
-28.62448120117188
 30
-2.221929550170898
 70
   192
  0
VERTEX
  5
C5
  8
METAL
 10
-23.60819053649902
 20
-28.62448120117188
 30
-2.221929550170898
 70
   192
  0
VERTEX
  5
C6
  8
METAL
 10
-23.60819053649902
 20
-28.26084899902344
 30
-2.270000457763672
 70
   192
  0
VERTEX
  5
C7
  8
METAL
 10
-23.60819053649902
 20
-27.15434265136719
 30
-2.416275024414062
 70
   192
  0
VERTEX
  5
C8
  8
METAL
 10
-23.60819053649902
 20
-25.30870819091797
 30
-2.660259246826172
 70
   192
  0
VERTEX
  5
C9
  8
METAL
 10
-23.60819053649902
 20
-22.73008728027344
 30
-3.001140594482422
 70
   192
  0
VERTEX
  5
CA
  8
METAL
 10
-23.60819053649902
 20
-21.55850219726563
 30
-3.156017303466797
 70
   192
  0
VERTEX
  5
CB
  8
METAL
 10
-23.60819053649902
 20
-21.55850219726563
 30
-3.156017303466797
 70
   192
  0
VERTEX
  5
CC
  8
METAL
 10
-23.60819053649902
 20
-21.55850219726563
 30
-3.156017303466797
 70
   192
  0
VERTEX
  5
CD
  8
METAL
 10
-33.21475028991699
 20
-21.55850219726563
 30
3.669563293457031
 70
   192
  0
VERTEX
  5
CE
  8
METAL
 10
-33.21475028991699
 20
-21.55850219726563
 30
3.669563293457031
 70
   192
  0
VERTEX
  5
CF
  8
METAL
 10
-33.21475028991699
 20
-22.73011016845703
 30
3.514682769775391
 70
   192
  0
VERTEX
  5
D0
  8
METAL
 10
-33.21475028991699
 20
-25.30864715576172
 30
3.173812866210938
 70
   192
  0
VERTEX
  5
D1
  8
METAL
 10
-33.21475028991699
 20
-27.15433502197266
 30
2.929821014404297
 70
   192
  0
VERTEX
  5
D2
  8
METAL
 10
-33.21475028991699
 20
-28.26268005371094
 30
2.783306121826165
 70
   192
  0
VERTEX
  5
D3
  8
METAL
 10
-33.21475028991699
 20
-28.62448883056641
 30
2.735477447509766
 70
   192
  0
VERTEX
  5
D4
  8
METAL
 10
-33.21475028991699
 20
-28.62448883056641
 30
2.735477447509766
 70
   192
  0
VERTEX
  5
D5
  8
METAL
 10
-33.21475028991699
 20
-28.62448120117188
 30
-2.221929550170898
 70
   192
  0
VERTEX
  5
D6
  8
METAL
 10
-33.21475028991699
 20
-28.62448120117188
 30
-2.221929550170898
 70
   192
  0
VERTEX
  5
D7
  8
METAL
 10
-33.21475028991699
 20
-28.26084899902344
 30
-2.270000457763672
 70
   192
  0
VERTEX
  5
D8
  8
METAL
 10
-33.21475028991699
 20
-27.15434265136719
 30
-2.416275024414062
 70
   192
  0
VERTEX
  5
D9
  8
METAL
 10
-33.21475028991699
 20
-25.30870819091797
 30
-2.660259246826172
 70
   192
  0
VERTEX
  5
DA
  8
METAL
 10
-33.21475028991699
 20
-22.73008728027344
 30
-3.001138687133789
 70
   192
  0
VERTEX
  5
DB
  8
METAL
 10
-33.21475028991699
 20
-21.55850219726563
 30
-3.156017303466797
 70
   192
  0
VERTEX
  5
DC
  8
METAL
 10
-33.21475028991699
 20
-21.55850219726563
 30
-3.156017303466797
 70
   192
  0
VERTEX
  5
DD
  8
METAL
 10
-70.66498565673828
 20
-21.55850219726563
 30
3.669563293457031
 70
   192
  0
VERTEX
  5
DE
  8
METAL
 10
-70.66498565673828
 20
-21.55850219726563
 30
3.669563293457031
 70
   192
  0
VERTEX
  5
DF
  8
METAL
 10
-70.66498565673828
 20
-21.55850219726563
 30
3.669563293457031
 70
   192
  0
VERTEX
  5
E0
  8
METAL
 10
-70.66498565673828
 20
-22.73011016845703
 30
3.514682769775391
 70
   192
  0
VERTEX
  5
E1
  8
METAL
 10
-70.66498565673828
 20
-25.30864715576172
 30
3.173812866210938
 70
   192
  0
VERTEX
  5
E2
  8
METAL
 10
-70.66498565673828
 20
-27.15433502197266
 30
2.929821014404297
 70
   192
  0
VERTEX
  5
E3
  8
METAL
 10
-70.66498565673828
 20
-28.26268005371094
 30
2.783306121826165
 70
   192
  0
VERTEX
  5
E4
  8
METAL
 10
-70.66498565673828
 20
-28.62448883056641
 30
2.7354736328125
 70
   192
  0
VERTEX
  5
E5
  8
METAL
 10
-70.66498565673828
 20
-28.62448883056641
 30
2.7354736328125
 70
   192
  0
VERTEX
  5
E6
  8
METAL
 10
-70.66498565673828
 20
-28.62448120117188
 30
-2.221929550170898
 70
   192
  0
VERTEX
  5
E7
  8
METAL
 10
-70.66498565673828
 20
-28.62448120117188
 30
-2.221929550170898
 70
   192
  0
VERTEX
  5
E8
  8
METAL
 10
-70.66498565673828
 20
-28.26084899902344
 30
-2.270000457763672
 70
   192
  0
VERTEX
  5
E9
  8
METAL
 10
-70.66498565673828
 20
-27.15434265136719
 30
-2.416275024414062
 70
   192
  0
VERTEX
  5
EA
  8
METAL
 10
-70.66498565673828
 20
-25.30870819091797
 30
-2.660259246826172
 70
   192
  0
VERTEX
  5
EB
  8
METAL
 10
-70.66498565673828
 20
-22.73008728027344
 30
-3.001140594482422
 70
   192
  0
VERTEX
  5
EC
  8
METAL
 10
-70.66498565673828
 20
-21.55850219726563
 30
-3.156017303466797
 70
   192
  0
VERTEX
  5
ED
  8
METAL
 10
-70.66498565673828
 20
-21.55850219726563
 30
-3.156017303466797
 70
   192
  0
VERTEX
  5
EE
  8
METAL
 10
-70.66498565673828
 20
-21.55850219726563
 30
-3.156017303466797
 70
   192
  0
VERTEX
  5
EF
  8
METAL
 10
-73.70885276794434
 20
-20.71616363525391
 30
3.752872467041016
 70
   192
  0
VERTEX
  5
F0
  8
METAL
 10
-73.70885276794434
 20
-20.71616363525391
 30
3.752872467041016
 70
   192
  0
VERTEX
  5
F1
  8
METAL
 10
-73.70885276794434
 20
-20.71616363525391
 30
3.752872467041016
 70
   192
  0
VERTEX
  5
F2
  8
METAL
 10
-73.70885467529297
 20
-20.71616363525391
 30
-3.239326477050781
 70
   192
  0
VERTEX
  5
F3
  8
METAL
 10
-73.70885467529297
 20
-20.71616363525391
 30
-3.239326477050781
 70
   192
  0
VERTEX
  5
F4
  8
METAL
 10
-73.70885467529297
 20
-20.71616363525391
 30
-3.239326477050781
 70
   192
  0
VERTEX
  5
F5
  8
METAL
 10
-75.19912719726562
 20
-19.87382507324219
 30
3.871669769287109
 70
   192
  0
VERTEX
  5
F6
  8
METAL
 10
-75.19912719726562
 20
-19.87382507324219
 30
3.871669769287109
 70
   192
  0
VERTEX
  5
F7
  8
METAL
 10
-75.19912719726562
 20
-19.87382507324219
 30
3.871669769287109
 70
   192
  0
VERTEX
  5
F8
  8
METAL
 10
-75.19913101196289
 20
-19.87382507324219
 30
-3.358121871948242
 70
   192
  0
VERTEX
  5
F9
  8
METAL
 10
-75.19913101196289
 20
-19.87382507324219
 30
-3.358121871948242
 70
   192
  0
VERTEX
  5
FA
  8
METAL
 10
-75.19913101196289
 20
-19.87382507324219
 30
-3.358121871948242
 70
   192
  0
VERTEX
  5
FB
  8
METAL
 10
-76.51385879516602
 20
-18.76824951171875
 30
3.971794128417976
 70
   192
  0
VERTEX
  5
FC
  8
METAL
 10
-76.51385879516602
 20
-18.76824951171875
 30
3.971794128417976
 70
   192
  0
VERTEX
  5
FD
  8
METAL
 10
-76.51385879516602
 20
-18.76824951171875
 30
3.971794128417976
 70
   192
  0
VERTEX
  5
FE
  8
METAL
 10
-76.51386070251465
 20
-18.76824951171875
 30
-3.458246231079094
 70
   192
  0
VERTEX
  5
FF
  8
METAL
 10
-76.51386070251465
 20
-18.76824951171875
 30
-3.458246231079094
 70
   192
  0
VERTEX
  5
100
  8
METAL
 10
-76.51386070251465
 20
-18.76824951171875
 30
-3.458246231079094
 70
   192
  0
VERTEX
  5
101
  8
METAL
 10
-77.5026741027832
 20
-17.66268157958985
 30
4.071914672851562
 70
   192
  0
VERTEX
  5
102
  8
METAL
 10
-77.5026741027832
 20
-17.66268157958985
 30
4.071914672851562
 70
   192
  0
VERTEX
  5
103
  8
METAL
 10
-77.5026741027832
 20
-17.66268157958985
 30
4.071914672851562
 70
   192
  0
VERTEX
  5
104
  8
METAL
 10
-77.50267601013184
 20
-17.66268157958984
 30
-3.558368682861328
 70
   192
  0
VERTEX
  5
105
  8
METAL
 10
-77.50267601013184
 20
-17.66268157958984
 30
-3.558368682861328
 70
   192
  0
VERTEX
  5
106
  8
METAL
 10
-77.50267601013184
 20
-17.66268157958984
 30
-3.558368682861328
 70
   192
  0
VERTEX
  5
107
  8
METAL
 10
-78.7983570098877
 20
-15.4515380859375
 30
4.295917510986335
 70
   192
  0
VERTEX
  5
108
  8
METAL
 10
-78.7983570098877
 20
-15.4515380859375
 30
4.295917510986335
 70
   192
  0
VERTEX
  5
109
  8
METAL
 10
-78.7983570098877
 20
-15.4515380859375
 30
4.295917510986335
 70
   192
  0
VERTEX
  5
10A
  8
METAL
 10
-78.7983570098877
 20
-15.4515380859375
 30
-3.782369613647454
 70
   192
  0
VERTEX
  5
10B
  8
METAL
 10
-78.7983570098877
 20
-15.4515380859375
 30
-3.782369613647454
 70
   192
  0
VERTEX
  5
10C
  8
METAL
 10
-78.7983570098877
 20
-15.4515380859375
 30
-3.782369613647454
 70
   192
  0
VERTEX
  5
10D
  8
METAL
 10
-81.42120742797852
 20
-10.52925109863281
 30
4.649600982666023
 70
   192
  0
VERTEX
  5
10E
  8
METAL
 10
-81.42120742797852
 20
-10.52925109863281
 30
4.649600982666023
 70
   192
  0
VERTEX
  5
10F
  8
METAL
 10
-81.42120742797852
 20
-10.52925109863281
 30
4.649600982666023
 70
   192
  0
VERTEX
  5
110
  8
METAL
 10
-81.42120742797852
 20
-10.52925109863281
 30
-4.136051177978509
 70
   192
  0
VERTEX
  5
111
  8
METAL
 10
-81.42120742797852
 20
-10.52925109863281
 30
-4.136051177978509
 70
   192
  0
VERTEX
  5
112
  8
METAL
 10
-81.42120742797852
 20
-10.52925109863281
 30
-4.136051177978509
 70
   192
  0
VERTEX
  5
113
  8
METAL
 10
-83.95390319824219
 20
-6.106964111328127
 30
4.852531433105476
 70
   192
  0
VERTEX
  5
114
  8
METAL
 10
-83.95390319824219
 20
-6.106964111328127
 30
4.852531433105476
 70
   192
  0
VERTEX
  5
115
  8
METAL
 10
-83.95390319824219
 20
-6.106964111328127
 30
4.852531433105476
 70
   192
  0
VERTEX
  5
116
  8
METAL
 10
-83.95390319824219
 20
-6.106967926025391
 30
-4.338981628417969
 70
   192
  0
VERTEX
  5
117
  8
METAL
 10
-83.95390319824219
 20
-6.106967926025391
 30
-4.338981628417969
 70
   192
  0
VERTEX
  5
118
  8
METAL
 10
-83.95390319824219
 20
-6.106967926025391
 30
-4.338981628417969
 70
   192
  0
VERTEX
  5
119
  8
METAL
 10
-86.56743621826172
 20
-1.68468475341797
 30
5.013553619384773
 70
   192
  0
VERTEX
  5
11A
  8
METAL
 10
-86.56743621826172
 20
-1.68468475341797
 30
5.013553619384773
 70
   192
  0
VERTEX
  5
11B
  8
METAL
 10
-86.56743621826172
 20
-1.68468475341797
 30
5.013553619384773
 70
   192
  0
VERTEX
  5
11C
  8
METAL
 10
-86.56744003295898
 20
-1.68468093872071
 30
-4.5
 70
   192
  0
VERTEX
  5
11D
  8
METAL
 10
-86.56744003295898
 20
-1.68468093872071
 30
-4.5
 70
   192
  0
VERTEX
  5
11E
  8
METAL
 10
-86.56744003295898
 20
-1.68468093872071
 30
-4.5
 70
   192
  0
VERTEX
  5
11F
  8
METAL
 10
-87.53048706054688
 20
-0.0000000000000016
 30
5.013553619384773
 70
   192
  0
VERTEX
  5
120
  8
METAL
 10
-87.53048706054688
 20
-0.0000000000000016
 30
5.013553619384773
 70
   192
  0
VERTEX
  5
121
  8
METAL
 10
-87.53048706054688
 20
-0.0000000000000016
 30
5.013553619384773
 70
   192
  0
VERTEX
  5
122
  8
METAL
 10
-87.53048706054688
 20
0.0
 30
-4.5
 70
   192
  0
VERTEX
  5
123
  8
METAL
 10
-87.53048706054688
 20
0.0
 30
-4.5
 70
   192
  0
VERTEX
  5
124
  8
METAL
 10
-87.53048706054688
 20
0.0
 30
-4.5
 70
   192
  0
VERTEX
  5
125
  8
METAL
 10
-91.60599899291992
 20
-28.62448120117188
 30
2.7354736328125
 70
   192
  0
VERTEX
  5
126
  8
METAL
 10
-91.60599899291992
 20
-28.62448120117188
 30
2.7354736328125
 70
   192
  0
VERTEX
  5
127
  8
METAL
 10
-91.60599899291992
 20
-28.62448120117188
 30
2.7354736328125
 70
   192
  0
VERTEX
  5
128
  8
METAL
 10
-91.60599899291992
 20
-28.62448120117188
 30
-2.221929550170898
 70
   192
  0
VERTEX
  5
129
  8
METAL
 10
-91.60599899291992
 20
-28.62448120117188
 30
-2.221929550170898
 70
   192
  0
VERTEX
  5
12A
  8
METAL
 10
-91.60599899291992
 20
-28.62448120117188
 30
-2.221929550170898
 70
   192
  0
VERTEX
  5
12B
  8
METAL
 10
-94.18462371826172
 20
-28.25611114501953
 30
2.7354736328125
 70
   192
  0
VERTEX
  5
12C
  8
METAL
 10
-94.18462371826172
 20
-28.25611114501953
 30
2.7354736328125
 70
   192
  0
VERTEX
  5
12D
  8
METAL
 10
-94.18462371826172
 20
-28.25611114501953
 30
2.7354736328125
 70
   192
  0
VERTEX
  5
12E
  8
METAL
 10
-94.18462371826172
 20
-28.25611114501953
 30
-2.221929550170898
 70
   192
  0
VERTEX
  5
12F
  8
METAL
 10
-94.18462371826172
 20
-28.25611114501953
 30
-2.221929550170898
 70
   192
  0
VERTEX
  5
130
  8
METAL
 10
-94.18462371826172
 20
-28.25611114501953
 30
-2.221929550170898
 70
   192
  0
VERTEX
  5
131
  8
METAL
 10
-96.0265007019043
 20
-27.15098571777344
 30
2.897201538085938
 70
   192
  0
VERTEX
  5
132
  8
METAL
 10
-96.0265007019043
 20
-27.15098571777344
 30
2.897201538085938
 70
   192
  0
VERTEX
  5
133
  8
METAL
 10
-96.0265007019043
 20
-27.15098571777344
 30
2.897201538085938
 70
   192
  0
VERTEX
  5
134
  8
METAL
 10
-96.0265007019043
 20
-27.15098571777344
 30
-2.383655548095703
 70
   192
  0
VERTEX
  5
135
  8
METAL
 10
-96.0265007019043
 20
-27.15098571777344
 30
-2.383655548095703
 70
   192
  0
VERTEX
  5
136
  8
METAL
 10
-96.0265007019043
 20
-27.15098571777344
 30
-2.383655548095703
 70
   192
  0
VERTEX
  5
137
  8
METAL
 10
-97.13162612915039
 20
-25.3091049194336
 30
3.177478790283196
 70
   192
  0
VERTEX
  5
138
  8
METAL
 10
-97.13162612915039
 20
-25.3091049194336
 30
3.177478790283196
 70
   192
  0
VERTEX
  5
139
  8
METAL
 10
-97.13162612915039
 20
-25.3091049194336
 30
3.177478790283196
 70
   192
  0
VERTEX
  5
13A
  8
METAL
 10
-97.13162612915039
 20
-25.3091049194336
 30
-2.663934707641602
 70
   192
  0
VERTEX
  5
13B
  8
METAL
 10
-97.13162612915039
 20
-25.3091049194336
 30
-2.663934707641602
 70
   192
  0
VERTEX
  5
13C
  8
METAL
 10
-97.13162612915039
 20
-25.3091049194336
 30
-2.663934707641602
 70
   192
  0
VERTEX
  5
13D
  8
METAL
 10
-97.5
 20
-1.68468475341797
 30
5.013553619384773
 70
   192
  0
VERTEX
  5
13E
  8
METAL
 10
-97.5
 20
-1.68468475341797
 30
5.013553619384773
 70
   192
  0
VERTEX
  5
13F
  8
METAL
 10
-97.5
 20
-0.0000038146972672
 30
5.013553619384773
 70
   192
  0
VERTEX
  5
140
  8
METAL
 10
-97.5
 20
-0.0000038146972672
 30
5.013553619384773
 70
   192
  0
VERTEX
  5
141
  8
METAL
 10
-97.5
 20
-0.0000038146972672
 30
5.013553619384773
 70
   192
  0
VERTEX
  5
142
  8
METAL
 10
-97.5
 20
-6.106967926025392
 30
4.852531433105476
 70
   192
  0
VERTEX
  5
143
  8
METAL
 10
-97.5
 20
-6.106967926025392
 30
4.852531433105476
 70
   192
  0
VERTEX
  5
144
  8
METAL
 10
-97.5
 20
-10.52925109863281
 30
4.649600982666023
 70
   192
  0
VERTEX
  5
145
  8
METAL
 10
-97.5
 20
-10.52925109863281
 30
4.649600982666023
 70
   192
  0
VERTEX
  5
146
  8
METAL
 10
-97.5
 20
-15.4515380859375
 30
4.295917510986335
 70
   192
  0
VERTEX
  5
147
  8
METAL
 10
-97.5
 20
-15.4515380859375
 30
4.295917510986335
 70
   192
  0
VERTEX
  5
148
  8
METAL
 10
-97.5
 20
-17.66268157958985
 30
4.071914672851562
 70
   192
  0
VERTEX
  5
149
  8
METAL
 10
-97.5
 20
-17.66268157958985
 30
4.071914672851562
 70
   192
  0
VERTEX
  5
14A
  8
METAL
 10
-97.5
 20
-18.76824951171875
 30
3.971794128417976
 70
   192
  0
VERTEX
  5
14B
  8
METAL
 10
-97.5
 20
-18.76824951171875
 30
3.971794128417976
 70
   192
  0
VERTEX
  5
14C
  8
METAL
 10
-97.5
 20
-19.87382507324219
 30
3.871669769287109
 70
   192
  0
VERTEX
  5
14D
  8
METAL
 10
-97.5
 20
-19.87382507324219
 30
3.871669769287109
 70
   192
  0
VERTEX
  5
14E
  8
METAL
 10
-97.5
 20
-20.71616363525391
 30
3.752872467041016
 70
   192
  0
VERTEX
  5
14F
  8
METAL
 10
-97.5
 20
-20.71616363525391
 30
3.752872467041016
 70
   192
  0
VERTEX
  5
150
  8
METAL
 10
-97.5
 20
-21.55850219726563
 30
3.669563293457031
 70
   192
  0
VERTEX
  5
151
  8
METAL
 10
-97.5
 20
-21.55850219726563
 30
3.669563293457031
 70
   192
  0
VERTEX
  5
152
  8
METAL
 10
-97.5
 20
-22.73048400878907
 30
3.518024444580078
 70
   192
  0
VERTEX
  5
153
  8
METAL
 10
-97.5
 20
-22.73048400878907
 30
3.518024444580078
 70
   192
  0
VERTEX
  5
154
  8
METAL
 10
-97.5
 20
-22.73048400878907
 30
3.518024444580078
 70
   192
  0
VERTEX
  5
155
  8
METAL
 10
-97.5
 20
-22.73048400878907
 30
-3.004478454589837
 70
   192
  0
VERTEX
  5
156
  8
METAL
 10
-97.5
 20
-22.73048400878907
 30
-3.004478454589837
 70
   192
  0
VERTEX
  5
157
  8
METAL
 10
-97.5
 20
-22.73048400878907
 30
-3.004478454589837
 70
   192
  0
VERTEX
  5
158
  8
METAL
 10
-97.5
 20
-21.55850219726563
 30
-3.156017303466797
 70
   192
  0
VERTEX
  5
159
  8
METAL
 10
-97.5
 20
-21.55850219726563
 30
-3.156017303466797
 70
   192
  0
VERTEX
  5
15A
  8
METAL
 10
-97.5
 20
-20.71616363525391
 30
-3.239326477050781
 70
   192
  0
VERTEX
  5
15B
  8
METAL
 10
-97.5
 20
-20.71616363525391
 30
-3.239326477050781
 70
   192
  0
VERTEX
  5
15C
  8
METAL
 10
-97.5
 20
-19.87382507324219
 30
-3.358121871948242
 70
   192
  0
VERTEX
  5
15D
  8
METAL
 10
-97.5
 20
-19.87382507324219
 30
-3.358121871948242
 70
   192
  0
VERTEX
  5
15E
  8
METAL
 10
-97.5
 20
-18.76824951171875
 30
-3.458246231079094
 70
   192
  0
VERTEX
  5
15F
  8
METAL
 10
-97.5
 20
-18.76824951171875
 30
-3.458246231079094
 70
   192
  0
VERTEX
  5
160
  8
METAL
 10
-97.5
 20
-17.66268157958984
 30
-3.558368682861328
 70
   192
  0
VERTEX
  5
161
  8
METAL
 10
-97.5
 20
-17.66268157958984
 30
-3.558368682861328
 70
   192
  0
VERTEX
  5
162
  8
METAL
 10
-97.5
 20
-15.4515380859375
 30
-3.782369613647454
 70
   192
  0
VERTEX
  5
163
  8
METAL
 10
-97.5
 20
-15.4515380859375
 30
-3.782369613647454
 70
   192
  0
VERTEX
  5
164
  8
METAL
 10
-97.5
 20
-10.52925109863281
 30
-4.136051177978509
 70
   192
  0
VERTEX
  5
165
  8
METAL
 10
-97.5
 20
-10.52925109863281
 30
-4.136051177978509
 70
   192
  0
VERTEX
  5
166
  8
METAL
 10
-97.5
 20
-6.106971740722656
 30
-4.338981628417969
 70
   192
  0
VERTEX
  5
167
  8
METAL
 10
-97.5
 20
-6.106971740722656
 30
-4.338981628417969
 70
   192
  0
VERTEX
  5
168
  8
METAL
 10
-97.5
 20
-1.684684753417969
 30
-4.5
 70
   192
  0
VERTEX
  5
169
  8
METAL
 10
-97.5
 20
-1.684684753417969
 30
-4.5
 70
   192
  0
VERTEX
  5
16A
  8
METAL
 10
-97.5
 20
-0.0000038146972656
 30
-4.5
 70
   192
  0
VERTEX
  5
16B
  8
METAL
 10
-97.5
 20
-0.0000038146972656
 30
-4.5
 70
   192
  0
VERTEX
  5
16C
  8
METAL
 10
-97.5
 20
-0.0000038146972656
 30
-4.5
 70
   192
  0
VERTEX
  5
16D
  8
METAL
 10
0.0
 20
0.0
 30
0.0
 70
   128
 71
   220
 72
   214
 73
   296
 74
   298
  0
VERTEX
  5
16E
  8
METAL
 10
0.0
 20
0.0
 30
0.0
 70
   128
 71
   264
 72
   211
 73
   217
 74
   262
  0
VERTEX
  5
16F
  8
METAL
 10
0.0
 20
0.0
 30
0.0
 70
   128
 71
   260
 72
   229
 73
   231
 74
   302
  0
VERTEX
  5
170
  8
METAL
 10
0.0
 20
0.0
 30
0.0
 70
   128
 71
   280
 72
   277
 73
   285
 74
   283
  0
VERTEX
  5
171
  8
METAL
 10
0.0
 20
0.0
 30
0.0
 70
   128
 71
   251
 72
   165
 73
   164
 74
   278
  0
VERTEX
  5
172
  8
METAL
 10
0.0
 20
0.0
 30
0.0
 70
   128
 71
   265
 72
   297
 73
   295
 74
   267
  0
VERTEX
  5
173
  8
METAL
 10
0.0
 20
0.0
 30
0.0
 70
   128
 71
   233
 72
   236
 73
   170
 74
   169
  0
VERTEX
  5
174
  8
METAL
 10
0.0
 20
0.0
 30
0.0
 70
   128
 71
   254
 72
   281
 73
   175
 74
   174
  0
VERTEX
  5
175
  8
METAL
 10
0.0
 20
0.0
 30
0.0
 70
   128
 71
   147
 72
   164
 73
   165
 74
   148
  0
VERTEX
  5
176
  8
METAL
 10
0.0
 20
0.0
 30
0.0
 70
   128
 71
   190
 72
   184
 73
   286
 74
   288
  0
VERTEX
  5
177
  8
METAL
 10
0.0
 20
0.0
 30
0.0
 70
   128
 71
   208
 72
   202
 73
   292
 74
   294
  0
VERTEX
  5
178
  8
METAL
 10
0.0
 20
0.0
 30
0.0
 70
   128
 71
   214
 72
   208
 73
   294
 74
   296
  0
VERTEX
  5
179
  8
METAL
 10
0.0
 20
0.0
 30
0.0
 70
   128
 71
   300
 72
   303
 73
   232
 74
   226
  0
VERTEX
  5
17A
  8
METAL
 10
0.0
 20
0.0
 30
0.0
 70
   128
 71
   298
 72
   300
 73
   226
 74
   220
  0
VERTEX
  5
17B
  8
METAL
 10
0.0
 20
0.0
 30
0.0
 70
   128
 71
   274
 72
   181
 73
   187
 74
   272
  0
VERTEX
  5
17C
  8
METAL
 10
0.0
 20
0.0
 30
0.0
 70
   128
 71
   268
 72
   199
 73
   205
 74
   266
  0
VERTEX
  5
17D
  8
METAL
 10
0.0
 20
0.0
 30
0.0
 70
   128
 71
   266
 72
   205
 73
   211
 74
   264
  0
VERTEX
  5
17E
  8
METAL
 10
0.0
 20
0.0
 30
0.0
 70
   128
 71
   223
 72
   259
 73
   257
 74
   257
  0
VERTEX
  5
17F
  8
METAL
 10
0.0
 20
0.0
 30
0.0
 70
   128
 71
   223
 72
   257
 73
   262
 74
   217
  0
VERTEX
  5
180
  8
METAL
 10
0.0
 20
0.0
 30
0.0
 70
   128
 71
   261
 72
   304
 73
   301
 74
   258
  0
VERTEX
  5
181
  8
METAL
 10
0.0
 20
0.0
 30
0.0
 70
   128
 71
   258
 72
   301
 73
   299
 74
   263
  0
VERTEX
  5
182
  8
METAL
 10
0.0
 20
0.0
 30
0.0
 70
   128
 71
   263
 72
   299
 73
   297
 74
   265
  0
VERTEX
  5
183
  8
METAL
 10
0.0
 20
0.0
 30
0.0
 70
   128
 71
   287
 72
   275
 73
   273
 74
   289
  0
VERTEX
  5
184
  8
METAL
 10
0.0
 20
0.0
 30
0.0
 70
   128
 71
   293
 72
   269
 73
   267
 74
   295
  0
VERTEX
  5
185
  8
METAL
 10
0.0
 20
0.0
 30
0.0
 70
   128
 71
   202
 72
   196
 73
   290
 74
   292
  0
VERTEX
  5
186
  8
METAL
 10
0.0
 20
0.0
 30
0.0
 70
   128
 71
   270
 72
   193
 73
   199
 74
   268
  0
VERTEX
  5
187
  8
METAL
 10
0.0
 20
0.0
 30
0.0
 70
   128
 71
   291
 72
   271
 73
   269
 74
   293
  0
VERTEX
  5
188
  8
METAL
 10
0.0
 20
0.0
 30
0.0
 70
   128
 71
   184
 72
   177
 73
   284
 74
   286
  0
VERTEX
  5
189
  8
METAL
 10
0.0
 20
0.0
 30
0.0
 70
   128
 71
   276
 72
   162
 73
   181
 74
   274
  0
VERTEX
  5
18A
  8
METAL
 10
0.0
 20
0.0
 30
0.0
 70
   128
 71
   285
 72
   277
 73
   275
 74
   287
  0
VERTEX
  5
18B
  8
METAL
 10
0.0
 20
0.0
 30
0.0
 70
   128
 71
   243
 72
   238
 73
   235
 74
   240
  0
VERTEX
  5
18C
  8
METAL
 10
0.0
 20
0.0
 30
0.0
 70
   128
 71
   249
 72
   244
 73
   241
 74
   246
  0
VERTEX
  5
18D
  8
METAL
 10
0.0
 20
0.0
 30
0.0
 70
   128
 71
   255
 72
   250
 73
   247
 74
   252
  0
VERTEX
  5
18E
  8
METAL
 10
0.0
 20
0.0
 30
0.0
 70
   128
 71
   282
 72
   256
 73
   253
 74
   279
  0
VERTEX
  5
18F
  8
METAL
 10
0.0
 20
0.0
 30
0.0
 70
   128
 71
   163
 72
   146
 73
   159
 74
   178
  0
VERTEX
  5
190
  8
METAL
 10
0.0
 20
0.0
 30
0.0
 70
   128
 71
   223
 72
   228
 73
   259
 74
   259
  0
VERTEX
  5
191
  8
METAL
 10
0.0
 20
0.0
 30
0.0
 70
   128
 71
   230
 72
   227
 73
   221
 74
   224
  0
VERTEX
  5
192
  8
METAL
 10
0.0
 20
0.0
 30
0.0
 70
   128
 71
   225
 72
   222
 73
   216
 74
   219
  0
VERTEX
  5
193
  8
METAL
 10
0.0
 20
0.0
 30
0.0
 70
   128
 71
   218
 72
   215
 73
   209
 74
   212
  0
VERTEX
  5
194
  8
METAL
 10
0.0
 20
0.0
 30
0.0
 70
   128
 71
   213
 72
   210
 73
   204
 74
   207
  0
VERTEX
  5
195
  8
METAL
 10
0.0
 20
0.0
 30
0.0
 70
   128
 71
   206
 72
   203
 73
   197
 74
   200
  0
VERTEX
  5
196
  8
METAL
 10
0.0
 20
0.0
 30
0.0
 70
   128
 71
   183
 72
   180
 73
   161
 74
   176
  0
VERTEX
  5
197
  8
METAL
 10
0.0
 20
0.0
 30
0.0
 70
   128
 71
   189
 72
   186
 73
   179
 74
   182
  0
VERTEX
  5
198
  8
METAL
 10
0.0
 20
0.0
 30
0.0
 70
   128
 71
   195
 72
   192
 73
   185
 74
   188
  0
VERTEX
  5
199
  8
METAL
 10
0.0
 20
0.0
 30
0.0
 70
   128
 71
   196
 72
   190
 73
   288
 74
   290
  0
VERTEX
  5
19A
  8
METAL
 10
0.0
 20
0.0
 30
0.0
 70
   128
 71
   272
 72
   187
 73
   193
 74
   270
  0
VERTEX
  5
19B
  8
METAL
 10
0.0
 20
0.0
 30
0.0
 70
   128
 71
   289
 72
   273
 73
   271
 74
   291
  0
VERTEX
  5
19C
  8
METAL
 10
0.0
 20
0.0
 30
0.0
 70
   128
 71
   201
 72
   198
 73
   191
 74
   194
  0
VERTEX
  5
19D
  8
METAL
 10
0.0
 20
0.0
 30
0.0
 70
   128
 71
   169
 72
   170
 73
   153
 74
   152
  0
VERTEX
  5
19E
  8
METAL
 10
0.0
 20
0.0
 30
0.0
 70
   128
 71
   175
 72
   158
 73
   157
 74
   174
  0
VERTEX
  5
19F
  8
METAL
 10
0.0
 20
0.0
 30
0.0
 70
   128
 71
    88
 72
    43
 73
    41
 74
    94
  0
VERTEX
  5
1A0
  8
METAL
 10
0.0
 20
0.0
 30
0.0
 70
   128
 71
     9
 72
     7
 73
    85
 74
    91
  0
VERTEX
  5
1A1
  8
METAL
 10
0.0
 20
0.0
 30
0.0
 70
   128
 71
     5
 72
    47
 73
    76
 74
    74
  0
VERTEX
  5
1A2
  8
METAL
 10
0.0
 20
0.0
 30
0.0
 70
   128
 71
    22
 72
    25
 73
    28
 74
    20
  0
VERTEX
  5
1A3
  8
METAL
 10
0.0
 20
0.0
 30
0.0
 70
   128
 71
   131
 72
    51
 73
    24
 74
   130
  0
VERTEX
  5
1A4
  8
METAL
 10
0.0
 20
0.0
 30
0.0
 70
   128
 71
     8
 72
    10
 73
    38
 74
    40
  0
VERTEX
  5
1A5
  8
METAL
 10
0.0
 20
0.0
 30
0.0
 70
   128
 71
    69
 72
   135
 73
   136
 74
    72
  0
VERTEX
  5
1A6
  8
METAL
 10
0.0
 20
0.0
 30
0.0
 70
   128
 71
   141
 72
    27
 73
    54
 74
   140
  0
VERTEX
  5
1A7
  8
METAL
 10
0.0
 20
0.0
 30
0.0
 70
   128
 71
   130
 72
   147
 73
   148
 74
   131
  0
VERTEX
  5
1A8
  8
METAL
 10
0.0
 20
0.0
 30
0.0
 70
   128
 71
   118
 72
    33
 73
    31
 74
   124
  0
VERTEX
  5
1A9
  8
METAL
 10
0.0
 20
0.0
 30
0.0
 70
   128
 71
   100
 72
    39
 73
    37
 74
   106
  0
VERTEX
  5
1AA
  8
METAL
 10
0.0
 20
0.0
 30
0.0
 70
   128
 71
    94
 72
    41
 73
    39
 74
   100
  0
VERTEX
  5
1AB
  8
METAL
 10
0.0
 20
0.0
 30
0.0
 70
   128
 71
    45
 72
    82
 73
    77
 74
    48
  0
VERTEX
  5
1AC
  8
METAL
 10
0.0
 20
0.0
 30
0.0
 70
   128
 71
    43
 72
    88
 73
    82
 74
    45
  0
VERTEX
  5
1AD
  8
METAL
 10
0.0
 20
0.0
 30
0.0
 70
   128
 71
    19
 72
    17
 73
   115
 74
   121
  0
VERTEX
  5
1AE
  8
METAL
 10
0.0
 20
0.0
 30
0.0
 70
   128
 71
    13
 72
    11
 73
    97
 74
   103
  0
VERTEX
  5
1AF
  8
METAL
 10
0.0
 20
0.0
 30
0.0
 70
   128
 71
    11
 72
     9
 73
    91
 74
    97
  0
VERTEX
  5
1B0
  8
METAL
 10
0.0
 20
0.0
 30
0.0
 70
   128
 71
    79
 72
     2
 73
     4
 74
     4
  0
VERTEX
  5
1B1
  8
METAL
 10
0.0
 20
0.0
 30
0.0
 70
   128
 71
    79
 72
    85
 73
     7
 74
     2
  0
VERTEX
  5
1B2
  8
METAL
 10
0.0
 20
0.0
 30
0.0
 70
   128
 71
     3
 72
     1
 73
    44
 74
    46
  0
VERTEX
  5
1B3
  8
METAL
 10
0.0
 20
0.0
 30
0.0
 70
   128
 71
     1
 72
     6
 73
    42
 74
    44
  0
VERTEX
  5
1B4
  8
METAL
 10
0.0
 20
0.0
 30
0.0
 70
   128
 71
     6
 72
     8
 73
    40
 74
    42
  0
VERTEX
  5
1B5
  8
METAL
 10
0.0
 20
0.0
 30
0.0
 70
   128
 71
    30
 72
    32
 73
    16
 74
    18
  0
VERTEX
  5
1B6
  8
METAL
 10
0.0
 20
0.0
 30
0.0
 70
   128
 71
    36
 72
    38
 73
    10
 74
    12
  0
VERTEX
  5
1B7
  8
METAL
 10
0.0
 20
0.0
 30
0.0
 70
   128
 71
   106
 72
    37
 73
    35
 74
   112
  0
VERTEX
  5
1B8
  8
METAL
 10
0.0
 20
0.0
 30
0.0
 70
   128
 71
    15
 72
    13
 73
   103
 74
   109
  0
VERTEX
  5
1B9
  8
METAL
 10
0.0
 20
0.0
 30
0.0
 70
   128
 71
    34
 72
    36
 73
    12
 74
    14
  0
VERTEX
  5
1BA
  8
METAL
 10
0.0
 20
0.0
 30
0.0
 70
   128
 71
   124
 72
    31
 73
    29
 74
   143
  0
VERTEX
  5
1BB
  8
METAL
 10
0.0
 20
0.0
 30
0.0
 70
   128
 71
    21
 72
    19
 73
   121
 74
   127
  0
VERTEX
  5
1BC
  8
METAL
 10
0.0
 20
0.0
 30
0.0
 70
   128
 71
    28
 72
    30
 73
    18
 74
    20
  0
VERTEX
  5
1BD
  8
METAL
 10
0.0
 20
0.0
 30
0.0
 70
   128
 71
    65
 72
    62
 73
    67
 74
    70
  0
VERTEX
  5
1BE
  8
METAL
 10
0.0
 20
0.0
 30
0.0
 70
   128
 71
    59
 72
    56
 73
    61
 74
    64
  0
VERTEX
  5
1BF
  8
METAL
 10
0.0
 20
0.0
 30
0.0
 70
   128
 71
    53
 72
    50
 73
    55
 74
    58
  0
VERTEX
  5
1C0
  8
METAL
 10
0.0
 20
0.0
 30
0.0
 70
   128
 71
    26
 72
    23
 73
    49
 74
    52
  0
VERTEX
  5
1C1
  8
METAL
 10
0.0
 20
0.0
 30
0.0
 70
   128
 71
   128
 72
   142
 73
   159
 74
   146
  0
VERTEX
  5
1C2
  8
METAL
 10
0.0
 20
0.0
 30
0.0
 70
   128
 71
    79
 72
     4
 73
    73
 74
    73
  0
VERTEX
  5
1C3
  8
METAL
 10
0.0
 20
0.0
 30
0.0
 70
   128
 71
    78
 72
    84
 73
    81
 74
    75
  0
VERTEX
  5
1C4
  8
METAL
 10
0.0
 20
0.0
 30
0.0
 70
   128
 71
    83
 72
    90
 73
    87
 74
    80
  0
VERTEX
  5
1C5
  8
METAL
 10
0.0
 20
0.0
 30
0.0
 70
   128
 71
    89
 72
    96
 73
    93
 74
    86
  0
VERTEX
  5
1C6
  8
METAL
 10
0.0
 20
0.0
 30
0.0
 70
   128
 71
    95
 72
   102
 73
    99
 74
    92
  0
VERTEX
  5
1C7
  8
METAL
 10
0.0
 20
0.0
 30
0.0
 70
   128
 71
   101
 72
   108
 73
   105
 74
    98
  0
VERTEX
  5
1C8
  8
METAL
 10
0.0
 20
0.0
 30
0.0
 70
   128
 71
   125
 72
   144
 73
   129
 74
   122
  0
VERTEX
  5
1C9
  8
METAL
 10
0.0
 20
0.0
 30
0.0
 70
   128
 71
   119
 72
   126
 73
   123
 74
   116
  0
VERTEX
  5
1CA
  8
METAL
 10
0.0
 20
0.0
 30
0.0
 70
   128
 71
   113
 72
   120
 73
   117
 74
   110
  0
VERTEX
  5
1CB
  8
METAL
 10
0.0
 20
0.0
 30
0.0
 70
   128
 71
   112
 72
    35
 73
    33
 74
   118
  0
VERTEX
  5
1CC
  8
METAL
 10
0.0
 20
0.0
 30
0.0
 70
   128
 71
    17
 72
    15
 73
   109
 74
   115
  0
VERTEX
  5
1CD
  8
METAL
 10
0.0
 20
0.0
 30
0.0
 70
   128
 71
    32
 72
    34
 73
    14
 74
    16
  0
VERTEX
  5
1CE
  8
METAL
 10
0.0
 20
0.0
 30
0.0
 70
   128
 71
   107
 72
   114
 73
   111
 74
   104
  0
VERTEX
  5
1CF
  8
METAL
 10
0.0
 20
0.0
 30
0.0
 70
   128
 71
   135
 72
   152
 73
   153
 74
   136
  0
VERTEX
  5
1D0
  8
METAL
 10
0.0
 20
0.0
 30
0.0
 70
   128
 71
   158
 72
   141
 73
   140
 74
   157
  0
VERTEX
  5
1D1
  8
METAL
 10
0.0
 20
0.0
 30
0.0
 70
   128
 71
   281
 72
   284
 73
   177
 74
   175
  0
VERTEX
  5
1D2
  8
METAL
 10
0.0
 20
0.0
 30
0.0
 70
   128
 71
   177
 72
   160
 73
   158
 74
   175
  0
VERTEX
  5
1D3
  8
METAL
 10
0.0
 20
0.0
 30
0.0
 70
   128
 71
   160
 72
   143
 73
   141
 74
   158
  0
VERTEX
  5
1D4
  8
METAL
 10
0.0
 20
0.0
 30
0.0
 70
   128
 71
   143
 72
    29
 73
    27
 74
   141
  0
VERTEX
  5
1D5
  8
METAL
 10
0.0
 20
0.0
 30
0.0
 70
   128
 71
    66
 72
   138
 73
   139
 74
    60
  0
VERTEX
  5
1D6
  8
METAL
 10
0.0
 20
0.0
 30
0.0
 70
   128
 71
   138
 72
   155
 73
   156
 74
   139
  0
VERTEX
  5
1D7
  8
METAL
 10
0.0
 20
0.0
 30
0.0
 70
   128
 71
   155
 72
   172
 73
   173
 74
   156
  0
VERTEX
  5
1D8
  8
METAL
 10
0.0
 20
0.0
 30
0.0
 70
   128
 71
   173
 72
   172
 73
   242
 74
   248
  0
VERTEX
  5
1D9
  8
METAL
 10
0.0
 20
0.0
 30
0.0
 70
   128
 71
   248
 72
   254
 73
   174
 74
   173
  0
VERTEX
  5
1DA
  8
METAL
 10
0.0
 20
0.0
 30
0.0
 70
   128
 71
   174
 72
   157
 73
   156
 74
   173
  0
VERTEX
  5
1DB
  8
METAL
 10
0.0
 20
0.0
 30
0.0
 70
   128
 71
   157
 72
   140
 73
   139
 74
   156
  0
VERTEX
  5
1DC
  8
METAL
 10
0.0
 20
0.0
 30
0.0
 70
   128
 71
   140
 72
    54
 73
    60
 74
   139
  0
VERTEX
  5
1DD
  8
METAL
 10
0.0
 20
0.0
 30
0.0
 70
   128
 71
    71
 72
   137
 73
   138
 74
    66
  0
VERTEX
  5
1DE
  8
METAL
 10
0.0
 20
0.0
 30
0.0
 70
   128
 71
   137
 72
   154
 73
   155
 74
   138
  0
VERTEX
  5
1DF
  8
METAL
 10
0.0
 20
0.0
 30
0.0
 70
   128
 71
   154
 72
   171
 73
   172
 74
   155
  0
VERTEX
  5
1E0
  8
METAL
 10
0.0
 20
0.0
 30
0.0
 70
   128
 71
   172
 72
   171
 73
   237
 74
   242
  0
VERTEX
  5
1E1
  8
METAL
 10
0.0
 20
0.0
 30
0.0
 70
   128
 71
    21
 72
   127
 73
   130
 74
    24
  0
VERTEX
  5
1E2
  8
METAL
 10
0.0
 20
0.0
 30
0.0
 70
   128
 71
   127
 72
   145
 73
   147
 74
   130
  0
VERTEX
  5
1E3
  8
METAL
 10
0.0
 20
0.0
 30
0.0
 70
   128
 71
   145
 72
   162
 73
   164
 74
   147
  0
VERTEX
  5
1E4
  8
METAL
 10
0.0
 20
0.0
 30
0.0
 70
   128
 71
   162
 72
   276
 73
   278
 74
   164
  0
VERTEX
  5
1E5
  8
METAL
 10
0.0
 20
0.0
 30
0.0
 70
   128
 71
   239
 72
   167
 73
   166
 74
   245
  0
VERTEX
  5
1E6
  8
METAL
 10
0.0
 20
0.0
 30
0.0
 70
   128
 71
   167
 72
   150
 73
   149
 74
   166
  0
VERTEX
  5
1E7
  8
METAL
 10
0.0
 20
0.0
 30
0.0
 70
   128
 71
   150
 72
   133
 73
   132
 74
   149
  0
VERTEX
  5
1E8
  8
METAL
 10
0.0
 20
0.0
 30
0.0
 70
   128
 71
   132
 72
   133
 73
    63
 74
    57
  0
VERTEX
  5
1E9
  8
METAL
 10
0.0
 20
0.0
 30
0.0
 70
   128
 71
    57
 72
    51
 73
   131
 74
   132
  0
VERTEX
  5
1EA
  8
METAL
 10
0.0
 20
0.0
 30
0.0
 70
   128
 71
   131
 72
   148
 73
   149
 74
   132
  0
VERTEX
  5
1EB
  8
METAL
 10
0.0
 20
0.0
 30
0.0
 70
   128
 71
   148
 72
   165
 73
   166
 74
   149
  0
VERTEX
  5
1EC
  8
METAL
 10
0.0
 20
0.0
 30
0.0
 70
   128
 71
   165
 72
   251
 73
   245
 74
   166
  0
VERTEX
  5
1ED
  8
METAL
 10
0.0
 20
0.0
 30
0.0
 70
   128
 71
   234
 72
   168
 73
   167
 74
   239
  0
VERTEX
  5
1EE
  8
METAL
 10
0.0
 20
0.0
 30
0.0
 70
   128
 71
   168
 72
   151
 73
   150
 74
   167
  0
VERTEX
  5
1EF
  8
METAL
 10
0.0
 20
0.0
 30
0.0
 70
   128
 71
   151
 72
   134
 73
   133
 74
   150
  0
VERTEX
  5
1F0
  8
METAL
 10
0.0
 20
0.0
 30
0.0
 70
   128
 71
   133
 72
   134
 73
    68
 74
    63
  0
SEQEND
  5
1FD
  8
METAL
  0
ENDSEC
  0
EOF
