  0
SECTION
  2
HEADER
  9
$ACADVER
  1
AC1009
  9
$INSBASE
 10
0.0
 20
0.0
 30
0.0
  9
$EXTMIN
 10
0.0
 20
-419.0
 30
0.0
  9
$EXTMAX
 10
565.79999999999995
 20
0.0
 30
64.200000000000003
  9
$LIMMIN
 10
0.0
 20
0.0
  9
$LIMMAX
 10
12.0
 20
9.0
  9
$ORTHOMODE
 70
     1
  9
$REGENMODE
 70
     1
  9
$FILLMODE
 70
     1
  9
$QTEXTMODE
 70
     0
  9
$MIRRTEXT
 70
     0
  9
$DRAGMODE
 70
     2
  9
$LTSCALE
 40
1.0
  9
$OSMODE
 70
   759
  9
$ATTMODE
 70
     1
  9
$TEXTSIZE
 40
0.2
  9
$TRACEWID
 40
0.05
  9
$TEXTSTYLE
  7
STANDARD
  9
$CLAYER
  8
0
  9
$CELTYPE
  6
CONTINUOUS
  9
$CECOLOR
 62
   256
  9
$DIMSCALE
 40
1.0
  9
$DIMASZ
 40
0.18
  9
$DIMEXO
 40
0.0625
  9
$DIMDLI
 40
0.38
  9
$DIMRND
 40
0.0
  9
$DIMDLE
 40
0.0
  9
$DIMEXE
 40
0.18
  9
$DIMTP
 40
0.0
  9
$DIMTM
 40
0.0
  9
$DIMTXT
 40
0.18
  9
$DIMCEN
 40
0.09
  9
$DIMTSZ
 40
0.0
  9
$DIMTOL
 70
     0
  9
$DIMLIM
 70
     0
  9
$DIMTIH
 70
     1
  9
$DIMTOH
 70
     1
  9
$DIMSE1
 70
     0
  9
$DIMSE2
 70
     0
  9
$DIMTAD
 70
     0
  9
$DIMZIN
 70
     0
  9
$DIMBLK
  1

  9
$DIMASO
 70
     1
  9
$DIMSHO
 70
     1
  9
$DIMPOST
  1

  9
$DIMAPOST
  1

  9
$DIMALT
 70
     0
  9
$DIMALTD
 70
     2
  9
$DIMALTF
 40
25.399999999999999
  9
$DIMLFAC
 40
1.0
  9
$DIMTOFL
 70
     0
  9
$DIMTVP
 40
0.0
  9
$DIMTIX
 70
     0
  9
$DIMSOXD
 70
     0
  9
$DIMSAH
 70
     0
  9
$DIMBLK1
  1

  9
$DIMBLK2
  1

  9
$DIMSTYLE
  2
STANDARD
  9
$DIMCLRD
 70
     0
  9
$DIMCLRE
 70
     0
  9
$DIMCLRT
 70
     0
  9
$DIMTFAC
 40
1.0
  9
$DIMGAP
 40
0.09
  9
$LUNITS
 70
     2
  9
$LUPREC
 70
     4
  9
$SKETCHINC
 40
0.1
  9
$FILLETRAD
 40
0.0
  9
$AUNITS
 70
     0
  9
$AUPREC
 70
     0
  9
$MENU
  1
.
  9
$ELEVATION
 40
0.0
  9
$PELEVATION
 40
0.0
  9
$THICKNESS
 40
0.0
  9
$LIMCHECK
 70
     0
  9
$BLIPMODE
 70
     0
  9
$CHAMFERA
 40
0.0
  9
$CHAMFERB
 40
0.0
  9
$SKPOLY
 70
     0
  9
$TDCREATE
 40
2457486.4801630098
  9
$TDUPDATE
 40
2457486.4902560529
  9
$TDINDWG
 40
0.0099785648
  9
$TDUSRTIMER
 40
0.0099785648
  9
$USRTIMER
 70
     1
  9
$ANGBASE
 50
0.0
  9
$ANGDIR
 70
     0
  9
$PDMODE
 70
     0
  9
$PDSIZE
 40
0.0
  9
$PLINEWID
 40
0.0
  9
$COORDS
 70
     1
  9
$SPLFRAME
 70
     0
  9
$SPLINETYPE
 70
     6
  9
$SPLINESEGS
 70
     8
  9
$ATTDIA
 70
     0
  9
$ATTREQ
 70
     1
  9
$HANDLING
 70
     1
  9
$HANDSEED
  5
8AC
  9
$SURFTAB1
 70
     6
  9
$SURFTAB2
 70
     6
  9
$SURFTYPE
 70
     6
  9
$SURFU
 70
     6
  9
$SURFV
 70
     6
  9
$UCSNAME
  2

  9
$UCSORG
 10
0.0
 20
0.0
 30
0.0
  9
$UCSXDIR
 10
1.0
 20
0.0
 30
0.0
  9
$UCSYDIR
 10
0.0
 20
1.0
 30
0.0
  9
$PUCSNAME
  2

  9
$PUCSORG
 10
0.0
 20
0.0
 30
0.0
  9
$PUCSXDIR
 10
1.0
 20
0.0
 30
0.0
  9
$PUCSYDIR
 10
0.0
 20
1.0
 30
0.0
  9
$USERI1
 70
     0
  9
$USERI2
 70
     0
  9
$USERI3
 70
     0
  9
$USERI4
 70
     0
  9
$USERI5
 70
     0
  9
$USERR1
 40
0.0
  9
$USERR2
 40
0.0
  9
$USERR3
 40
0.0
  9
$USERR4
 40
0.0
  9
$USERR5
 40
0.0
  9
$WORLDVIEW
 70
     1
  9
$SHADEDGE
 70
     3
  9
$SHADEDIF
 70
    70
  9
$TILEMODE
 70
     1
  9
$MAXACTVP
 70
    64
  9
$PLIMCHECK
 70
     0
  9
$PEXTMIN
 10
1.0000000000000000E+020
 20
1.0000000000000000E+020
 30
1.0000000000000000E+020
  9
$PEXTMAX
 10
-1.0000000000000000E+020
 20
-1.0000000000000000E+020
 30
-1.0000000000000000E+020
  9
$PLIMMIN
 10
0.0
 20
0.0
  9
$PLIMMAX
 10
12.0
 20
9.0
  9
$UNITMODE
 70
     0
  9
$VISRETAIN
 70
     1
  9
$PLINEGEN
 70
     0
  9
$PSLTSCALE
 70
     1
  0
ENDSEC
  0
SECTION
  2
TABLES
  0
TABLE
  2
VPORT
 70
     1
  0
VPORT
  2
*ACTIVE
 70
     0
 10
0.0
 20
0.0
 11
1.0
 21
1.0
 12
0.0
 22
0.0
 13
0.0
 23
0.0
 14
1.0
 24
1.0
 15
0.0
 25
0.0
 16
-0.0000000000005116
 26
0.0
 36
2295.7339690837648
 17
282.89999389648437
 27
-209.5
 37
32.099998474121101
 40
706.97402059388128
 41
2.5027932960893851
 42
50.0
 43
0.0
 44
0.0
 50
0.0
 51
0.0
 71
     0
 72
   100
 73
     1
 74
     1
 75
     0
 76
     0
 77
     0
 78
     0
  0
ENDTAB
  0
TABLE
  2
LTYPE
 70
     2
  0
LTYPE
  2
CONTINUOUS
 70
     0
  3
Solid line
 72
    65
 73
     0
 40
0.0
  0
LTYPE
  2
PHANTOM2
 70
     0
  3
Phantom (.5x) ___ _ _ ___ _ _ ___ _ _ ___ _ _
 72
    65
 73
     6
 40
1.25
 49
0.625
 49
-0.125
 49
0.125
 49
-0.125
 49
0.125
 49
-0.125
  0
ENDTAB
  0
TABLE
  2
LAYER
 70
     3
  0
LAYER
  2
0
 70
     0
 62
     7
  6
CONTINUOUS
  0
LAYER
  2
PRETO
 70
     0
 62
   253
  6
CONTINUOUS
  0
LAYER
  2
CINZA
 70
     0
 62
   253
  6
CONTINUOUS
  0
ENDTAB
  0
TABLE
  2
STYLE
 70
     2
  0
STYLE
  2
STANDARD
 70
     0
 40
0.0
 41
1.0
 50
0.0
 71
     0
 42
0.2
  3
txt
  4

  0
STYLE
  2
ANNOTATIVE
 70
     0
 40
0.0
 41
1.0
 50
0.0
 71
     0
 42
0.2
  3
txt
  4

  0
ENDTAB
  0
TABLE
  2
VIEW
 70
     1
  0
ENDTAB
  0
TABLE
  2
UCS
 70
     0
  0
ENDTAB
  0
TABLE
  2
APPID
 70
     4
  0
APPID
  2
ACAD
 70
     0
  0
APPID
  2
ACADANNOTATIVE
 70
     0
  0
APPID
  2
ACAD_NAV_VCDISPLAY
 70
     0
  0
APPID
  2
ACAD_MLEADERVER
 70
     0
  0
ENDTAB
  0
TABLE
  2
DIMSTYLE
 70
     2
  0
DIMSTYLE
  2
STANDARD
 70
     0
  3

  4

  5

  6

  7

 40
1.0
 41
0.18
 42
0.0625
 43
0.38
 44
0.18
 45
0.0
 46
0.0
 47
0.0
 48
0.0
140
0.18
141
0.09
142
0.0
143
25.399999999999999
144
1.0
145
0.0
146
1.0
147
0.09
 71
     0
 72
     0
 73
     1
 74
     1
 75
     0
 76
     0
 77
     0
 78
     0
170
     0
171
     2
172
     0
173
     0
174
     0
175
     0
176
     0
177
     0
178
     0
  0
DIMSTYLE
  2
ANNOTATIVE
 70
     0
  3

  4

  5

  6

  7

 40
1.0
 41
0.18
 42
0.0625
 43
0.38
 44
0.18
 45
0.0
 46
0.0
 47
0.0
 48
0.0
140
0.18
141
0.09
142
0.0
143
25.399999999999999
144
1.0
145
0.0
146
1.0
147
0.09
 71
     0
 72
     0
 73
     1
 74
     1
 75
     0
 76
     0
 77
     0
 78
     0
170
     0
171
     2
172
     0
173
     0
174
     0
175
     0
176
     0
177
     0
178
     0
  0
ENDTAB
  0
ENDSEC
  0
SECTION
  2
BLOCKS
  0
BLOCK
  8
0
  2
$MODEL_SPACE
 70
     0
 10
0.0
 20
0.0
 30
0.0
  3
$MODEL_SPACE
  1

  0
ENDBLK
  5
72
  8
0
  0
BLOCK
 67
     1
  8
0
  2
$PAPER_SPACE
 70
     0
 10
0.0
 20
0.0
 30
0.0
  3
$PAPER_SPACE
  1

  0
ENDBLK
  5
6E
 67
     1
  8
0
  0
BLOCK
  8
0
  2
DFD
 70
     0
 10
0.0
 20
0.0
 30
0.0
  3
DFD
  1

  0
3DFACE
  5
78D
  8
PRETO
 10
13.46414297624966
 20
-924.06364166707988
 30
40.36999999999999
 11
13.46414297624966
 21
-1008.58364166708
 31
40.36999999999999
 12
13.46414297624966
 22
-1007.29364166708
 32
31.199999999999999
 13
13.46414297624966
 23
-924.06364166707988
 33
40.36999999999999
  0
3DFACE
  5
78E
  8
PRETO
 10
13.46414297624966
 20
-924.06364166707988
 30
40.36999999999999
 11
13.46414297624966
 21
-1007.29364166708
 31
31.199999999999999
 12
13.46414297624966
 22
-925.35364166707996
 32
31.199999999999999
 13
13.46414297624966
 23
-924.06364166707988
 33
40.36999999999999
  0
3DFACE
  5
78F
  8
PRETO
 10
7.4641429762496596
 20
-1008.58364166708
 30
40.36999999999999
 11
7.4641429762496596
 21
-924.06364166707988
 31
40.36999999999999
 12
7.4641429762496596
 22
-1007.29364166708
 32
31.199999999999999
 13
7.4641429762496596
 23
-1008.58364166708
 33
40.36999999999999
  0
3DFACE
  5
790
  8
PRETO
 10
7.4641429762496596
 20
-1007.29364166708
 30
31.199999999999999
 11
7.4641429762496596
 21
-924.06364166707988
 31
40.36999999999999
 12
7.4641429762496596
 22
-925.35364166707996
 32
31.199999999999999
 13
7.4641429762496596
 23
-1007.29364166708
 33
31.199999999999999
  0
3DFACE
  5
791
  8
PRETO
 10
266.1094681709601
 20
-1008.58364166708
 30
40.36999999999999
 11
266.1094681709601
 21
-924.06364166707988
 31
40.36999999999999
 12
266.1094681709601
 22
-1007.29364166708
 32
31.199999999999999
 13
266.1094681709601
 23
-1008.58364166708
 33
40.36999999999999
  0
3DFACE
  5
792
  8
PRETO
 10
266.1094681709601
 20
-1007.29364166708
 30
31.199999999999999
 11
266.1094681709601
 21
-924.06364166707988
 31
40.36999999999999
 12
266.1094681709601
 22
-925.35364166707996
 32
31.199999999999999
 13
266.1094681709601
 23
-1007.29364166708
 33
31.199999999999999
  0
3DFACE
  5
793
  8
PRETO
 10
272.1094681709601
 20
-924.06364166707988
 30
40.36999999999999
 11
272.1094681709601
 21
-1008.58364166708
 31
40.36999999999999
 12
272.1094681709601
 22
-1007.29364166708
 32
31.199999999999999
 13
272.1094681709601
 23
-924.06364166707988
 33
40.36999999999999
  0
3DFACE
  5
794
  8
PRETO
 10
272.1094681709601
 20
-924.06364166707988
 30
40.36999999999999
 11
272.1094681709601
 21
-1007.29364166708
 31
31.199999999999999
 12
272.1094681709601
 22
-925.35364166707996
 32
31.199999999999999
 13
272.1094681709601
 23
-924.06364166707988
 33
40.36999999999999
  0
3DFACE
  5
795
  8
PRETO
 10
13.46414297624966
 20
-922.12364166708005
 30
54.200000000000003
 11
13.46414297624966
 21
-1010.52364166708
 31
54.200000000000003
 12
13.46414297624966
 22
-924.06364166707988
 32
40.36999999999999
 13
13.46414297624966
 23
-922.12364166708005
 33
54.200000000000003
  0
3DFACE
  5
796
  8
PRETO
 10
13.46414297624966
 20
-924.06364166707988
 30
40.36999999999999
 11
13.46414297624966
 21
-1010.52364166708
 31
54.200000000000003
 12
13.46414297624966
 22
-1008.58364166708
 32
40.36999999999999
 13
13.46414297624966
 23
-924.06364166707988
 33
40.36999999999999
  0
3DFACE
  5
797
  8
PRETO
 10
7.4641429762496596
 20
-1010.52364166708
 30
54.200000000000003
 11
7.4641429762496596
 21
-922.12364166708005
 31
54.200000000000003
 12
7.4641429762496596
 22
-924.06364166707988
 32
40.36999999999999
 13
7.4641429762496596
 23
-1010.52364166708
 33
54.200000000000003
  0
3DFACE
  5
798
  8
PRETO
 10
7.4641429762496596
 20
-1010.52364166708
 30
54.200000000000003
 11
7.4641429762496596
 21
-924.06364166707988
 31
40.36999999999999
 12
7.4641429762496596
 22
-1008.58364166708
 32
40.36999999999999
 13
7.4641429762496596
 23
-1010.52364166708
 33
54.200000000000003
  0
3DFACE
  5
799
  8
PRETO
 10
7.4641429762496596
 20
-1010.52364166708
 30
60.299999999999997
 11
7.4641429762496596
 21
-922.12364166708005
 31
60.299999999999997
 12
7.4641429762496596
 22
-1010.52364166708
 32
54.200000000000003
 13
7.4641429762496596
 23
-1010.52364166708
 33
60.299999999999997
  0
3DFACE
  5
79A
  8
PRETO
 10
7.4641429762496596
 20
-1010.52364166708
 30
54.200000000000003
 11
7.4641429762496596
 21
-922.12364166708005
 31
60.299999999999997
 12
7.4641429762496596
 22
-922.12364166708005
 32
54.200000000000003
 13
7.4641429762496596
 23
-1010.52364166708
 33
54.200000000000003
  0
3DFACE
  5
79B
  8
PRETO
 10
13.46414297624966
 20
-922.12364166708005
 30
60.299999999999997
 11
13.46414297624966
 21
-1010.52364166708
 31
60.299999999999997
 12
13.46414297624966
 22
-1010.52364166708
 32
54.200000000000003
 13
13.46414297624966
 23
-922.12364166708005
 33
60.299999999999997
  0
3DFACE
  5
79C
  8
PRETO
 10
13.46414297624966
 20
-922.12364166708005
 30
60.299999999999997
 11
13.46414297624966
 21
-1010.52364166708
 31
54.200000000000003
 12
13.46414297624966
 22
-922.12364166708005
 32
54.200000000000003
 13
13.46414297624966
 23
-922.12364166708005
 33
60.299999999999997
  0
3DFACE
  5
79D
  8
PRETO
 10
266.1094681709601
 20
-1010.52364166708
 30
54.200000000000003
 11
266.1094681709601
 21
-922.12364166708005
 31
54.200000000000003
 12
266.1094681709601
 22
-924.06364166707988
 32
40.36999999999999
 13
266.1094681709601
 23
-1010.52364166708
 33
54.200000000000003
  0
3DFACE
  5
79E
  8
PRETO
 10
266.1094681709601
 20
-1010.52364166708
 30
54.200000000000003
 11
266.1094681709601
 21
-924.06364166707988
 31
40.36999999999999
 12
266.1094681709601
 22
-1008.58364166708
 32
40.36999999999999
 13
266.1094681709601
 23
-1010.52364166708
 33
54.200000000000003
  0
3DFACE
  5
79F
  8
PRETO
 10
272.1094681709601
 20
-922.12364166708005
 30
54.200000000000003
 11
272.1094681709601
 21
-1010.52364166708
 31
54.200000000000003
 12
272.1094681709601
 22
-924.06364166707988
 32
40.36999999999999
 13
272.1094681709601
 23
-922.12364166708005
 33
54.200000000000003
  0
3DFACE
  5
7A0
  8
PRETO
 10
272.1094681709601
 20
-924.06364166707988
 30
40.36999999999999
 11
272.1094681709601
 21
-1010.52364166708
 31
54.200000000000003
 12
272.1094681709601
 22
-1008.58364166708
 32
40.36999999999999
 13
272.1094681709601
 23
-924.06364166707988
 33
40.36999999999999
  0
3DFACE
  5
7A1
  8
PRETO
 10
266.1094681709601
 20
-1010.52364166708
 30
60.299999999999997
 11
266.1094681709601
 21
-922.12364166708005
 31
60.299999999999997
 12
266.1094681709601
 22
-1010.52364166708
 32
54.200000000000003
 13
266.1094681709601
 23
-1010.52364166708
 33
60.299999999999997
  0
3DFACE
  5
7A2
  8
PRETO
 10
266.1094681709601
 20
-1010.52364166708
 30
54.200000000000003
 11
266.1094681709601
 21
-922.12364166708005
 31
60.299999999999997
 12
266.1094681709601
 22
-922.12364166708005
 32
54.200000000000003
 13
266.1094681709601
 23
-1010.52364166708
 33
54.200000000000003
  0
3DFACE
  5
7A3
  8
PRETO
 10
272.1094681709601
 20
-922.12364166708005
 30
60.299999999999997
 11
272.1094681709601
 21
-1010.52364166708
 31
60.299999999999997
 12
272.1094681709601
 22
-1010.52364166708
 32
54.200000000000003
 13
272.1094681709601
 23
-922.12364166708005
 33
60.299999999999997
  0
3DFACE
  5
7A4
  8
PRETO
 10
272.1094681709601
 20
-922.12364166708005
 30
60.299999999999997
 11
272.1094681709601
 21
-1010.52364166708
 31
54.200000000000003
 12
272.1094681709601
 22
-922.12364166708005
 32
54.200000000000003
 13
272.1094681709601
 23
-922.12364166708005
 33
60.299999999999997
  0
3DFACE
  5
7A5
  8
PRETO
 10
7.4641429762496596
 20
-1004.52364166708
 30
54.200000000000003
 11
7.4641429762496596
 21
-1010.52364166708
 31
54.200000000000003
 12
7.4641429762496596
 22
-1010.52364166708
 32
60.299999999999997
 13
7.4641429762496596
 23
-1004.52364166708
 33
54.200000000000003
  0
3DFACE
  5
7A6
  8
PRETO
 10
7.4641429762496596
 20
-1004.52364166708
 30
54.200000000000003
 11
7.4641429762496596
 21
-1010.52364166708
 31
60.299999999999997
 12
7.4641429762496596
 22
-1004.52364166708
 32
60.299999999999997
 13
7.4641429762496596
 23
-1004.52364166708
 33
54.200000000000003
  0
3DFACE
  5
7A7
  8
PRETO
 10
13.46414297624966
 20
-922.12364166708005
 30
60.299999999999997
 11
7.4641429762496596
 21
-922.12364166708005
 31
60.299999999999997
 12
7.4641429762496596
 22
-922.12364166708005
 32
54.200000000000003
 13
13.46414297624966
 23
-922.12364166708005
 33
60.299999999999997
  0
3DFACE
  5
7A8
  8
PRETO
 10
13.46414297624966
 20
-922.12364166708005
 30
60.299999999999997
 11
7.4641429762496596
 21
-922.12364166708005
 31
54.200000000000003
 12
13.46414297624966
 22
-922.12364166708005
 32
54.200000000000003
 13
13.46414297624966
 23
-922.12364166708005
 33
60.299999999999997
  0
3DFACE
  5
7A9
  8
PRETO
 10
7.4641429762496596
 20
-922.12364166708005
 30
54.200000000000003
 11
13.46414297624966
 21
-922.12364166708005
 31
54.200000000000003
 12
7.4641429762496596
 22
-924.06364166707988
 32
40.36999999999999
 13
7.4641429762496596
 23
-922.12364166708005
 33
54.200000000000003
  0
3DFACE
  5
7AA
  8
PRETO
 10
7.4641429762496596
 20
-924.06364166707988
 30
40.36999999999999
 11
13.46414297624966
 21
-922.12364166708005
 31
54.200000000000003
 12
13.46414297624966
 22
-924.06364166707988
 32
40.36999999999999
 13
7.4641429762496596
 23
-924.06364166707988
 33
40.36999999999999
  0
3DFACE
  5
7AB
  8
PRETO
 10
7.4641429762496596
 20
-924.06364166707988
 30
40.36999999999999
 11
13.46414297624966
 21
-924.06364166707988
 31
40.36999999999999
 12
7.4641429762496596
 22
-925.35364166707996
 32
31.199999999999999
 13
7.4641429762496596
 23
-924.06364166707988
 33
40.36999999999999
  0
3DFACE
  5
7AC
  8
PRETO
 10
7.4641429762496596
 20
-925.35364166707996
 30
31.199999999999999
 11
13.46414297624966
 21
-924.06364166707988
 31
40.36999999999999
 12
13.46414297624966
 22
-925.35364166707996
 32
31.199999999999999
 13
7.4641429762496596
 23
-925.35364166707996
 33
31.199999999999999
  0
3DFACE
  5
7AD
  8
PRETO
 10
7.4641429762496596
 20
-925.35364166707996
 30
31.199999999999999
 11
13.46414297624966
 21
-925.35364166707996
 31
31.199999999999999
 12
7.4641429762496596
 22
-927.63364166707993
 32
23.710000000000001
 13
7.4641429762496596
 23
-925.35364166707996
 33
31.199999999999999
  0
3DFACE
  5
7AE
  8
PRETO
 10
7.4641429762496596
 20
-927.63364166707993
 30
23.710000000000001
 11
13.46414297624966
 21
-925.35364166707996
 31
31.199999999999999
 12
13.46414297624966
 22
-927.63364166707993
 32
23.710000000000001
 13
7.4641429762496596
 23
-927.63364166707993
 33
23.710000000000001
  0
3DFACE
  5
7AF
  8
PRETO
 10
7.4641429762496596
 20
-927.63364166707993
 30
23.710000000000001
 11
13.46414297624966
 21
-927.63364166707993
 31
23.710000000000001
 12
7.4641429762496596
 22
-932.09364166707996
 32
17.280000000000001
 13
7.4641429762496596
 23
-927.63364166707993
 33
23.710000000000001
  0
3DFACE
  5
7B0
  8
PRETO
 10
7.4641429762496596
 20
-932.09364166707996
 30
17.280000000000001
 11
13.46414297624966
 21
-927.63364166707993
 31
23.710000000000001
 12
13.46414297624966
 22
-932.09364166707996
 32
17.280000000000001
 13
7.4641429762496596
 23
-932.09364166707996
 33
17.280000000000001
  0
3DFACE
  5
7B1
  8
PRETO
 10
7.4641429762496596
 20
-932.09364166707996
 30
17.280000000000001
 11
13.46414297624966
 21
-932.09364166707996
 31
17.280000000000001
 12
7.4641429762496596
 22
-938.32364166707987
 32
12.539999999999999
 13
7.4641429762496596
 23
-932.09364166707996
 33
17.280000000000001
  0
3DFACE
  5
7B2
  8
PRETO
 10
7.4641429762496596
 20
-938.32364166707987
 30
12.539999999999999
 11
13.46414297624966
 21
-932.09364166707996
 31
17.280000000000001
 12
13.46414297624966
 22
-938.32364166707987
 32
12.539999999999999
 13
7.4641429762496596
 23
-938.32364166707987
 33
12.539999999999999
  0
3DFACE
  5
7B3
  8
PRETO
 10
7.4641429762496596
 20
-938.32364166707987
 30
12.539999999999999
 11
13.46414297624966
 21
-938.32364166707987
 31
12.539999999999999
 12
7.4641429762496596
 22
-994.32364166707976
 32
12.539999999999999
 13
7.4641429762496596
 23
-938.32364166707987
 33
12.539999999999999
  0
3DFACE
  5
7B4
  8
PRETO
 10
7.4641429762496596
 20
-994.32364166707976
 30
12.539999999999999
 11
13.46414297624966
 21
-938.32364166707987
 31
12.539999999999999
 12
13.46414297624966
 22
-994.32364166707976
 32
12.539999999999999
 13
7.4641429762496596
 23
-994.32364166707976
 33
12.539999999999999
  0
3DFACE
  5
7B5
  8
PRETO
 10
7.4641429762496596
 20
-994.32364166707976
 30
12.539999999999999
 11
13.46414297624966
 21
-994.32364166707976
 31
12.539999999999999
 12
7.4641429762496596
 22
-1000.55364166708
 32
17.280000000000001
 13
7.4641429762496596
 23
-994.32364166707976
 33
12.539999999999999
  0
3DFACE
  5
7B6
  8
PRETO
 10
7.4641429762496596
 20
-1000.55364166708
 30
17.280000000000001
 11
13.46414297624966
 21
-994.32364166707976
 31
12.539999999999999
 12
13.46414297624966
 22
-1000.55364166708
 32
17.280000000000001
 13
7.4641429762496596
 23
-1000.55364166708
 33
17.280000000000001
  0
3DFACE
  5
7B7
  8
PRETO
 10
7.4641429762496596
 20
-1000.55364166708
 30
17.280000000000001
 11
13.46414297624966
 21
-1000.55364166708
 31
17.280000000000001
 12
7.4641429762496596
 22
-1005.01364166708
 32
23.710000000000001
 13
7.4641429762496596
 23
-1000.55364166708
 33
17.280000000000001
  0
3DFACE
  5
7B8
  8
PRETO
 10
7.4641429762496596
 20
-1005.01364166708
 30
23.710000000000001
 11
13.46414297624966
 21
-1000.55364166708
 31
17.280000000000001
 12
13.46414297624966
 22
-1005.01364166708
 32
23.710000000000001
 13
7.4641429762496596
 23
-1005.01364166708
 33
23.710000000000001
  0
3DFACE
  5
7B9
  8
PRETO
 10
7.4641429762496596
 20
-1005.01364166708
 30
23.710000000000001
 11
13.46414297624966
 21
-1005.01364166708
 31
23.710000000000001
 12
7.4641429762496596
 22
-1007.29364166708
 32
31.199999999999999
 13
7.4641429762496596
 23
-1005.01364166708
 33
23.710000000000001
  0
3DFACE
  5
7BA
  8
PRETO
 10
7.4641429762496596
 20
-1007.29364166708
 30
31.199999999999999
 11
13.46414297624966
 21
-1005.01364166708
 31
23.710000000000001
 12
13.46414297624966
 22
-1007.29364166708
 32
31.199999999999999
 13
7.4641429762496596
 23
-1007.29364166708
 33
31.199999999999999
  0
3DFACE
  5
7BB
  8
PRETO
 10
13.46414297624966
 20
-1007.29364166708
 30
31.199999999999999
 11
7.4641429762496596
 21
-1007.29364166708
 31
31.199999999999999
 12
7.4641429762496596
 22
-1008.58364166708
 32
40.36999999999999
 13
13.46414297624966
 23
-1007.29364166708
 33
31.199999999999999
  0
3DFACE
  5
7BC
  8
PRETO
 10
13.46414297624966
 20
-1007.29364166708
 30
31.199999999999999
 11
7.4641429762496596
 21
-1008.58364166708
 31
40.36999999999999
 12
13.46414297624966
 22
-1008.58364166708
 32
40.36999999999999
 13
13.46414297624966
 23
-1007.29364166708
 33
31.199999999999999
  0
3DFACE
  5
7BD
  8
PRETO
 10
13.46414297624966
 20
-1008.58364166708
 30
40.36999999999999
 11
7.4641429762496596
 21
-1008.58364166708
 31
40.36999999999999
 12
7.4641429762496596
 22
-1010.52364166708
 32
54.200000000000003
 13
13.46414297624966
 23
-1008.58364166708
 33
40.36999999999999
  0
3DFACE
  5
7BE
  8
PRETO
 10
13.46414297624966
 20
-1008.58364166708
 30
40.36999999999999
 11
7.4641429762496596
 21
-1010.52364166708
 31
54.200000000000003
 12
13.46414297624966
 22
-1010.52364166708
 32
54.200000000000003
 13
13.46414297624966
 23
-1008.58364166708
 33
40.36999999999999
  0
3DFACE
  5
7BF
  8
PRETO
 10
13.46414297624966
 20
-1010.52364166708
 30
54.200000000000003
 11
7.4641429762496596
 21
-1010.52364166708
 31
54.200000000000003
 12
7.4641429762496596
 22
-1010.52364166708
 32
60.299999999999997
 13
13.46414297624966
 23
-1010.52364166708
 33
54.200000000000003
  0
3DFACE
  5
7C0
  8
PRETO
 10
13.46414297624966
 20
-1010.52364166708
 30
54.200000000000003
 11
7.4641429762496596
 21
-1010.52364166708
 31
60.299999999999997
 12
13.46414297624966
 22
-1010.52364166708
 32
60.299999999999997
 13
13.46414297624966
 23
-1010.52364166708
 33
54.200000000000003
  0
3DFACE
  5
7C1
  8
PRETO
 10
7.4641429762496596
 20
-1010.52364166708
 30
60.299999999999997
 11
13.46414297624966
 21
-1010.52364166708
 31
60.299999999999997
 12
7.4641429762496596
 22
-922.12364166708005
 32
60.299999999999997
 13
7.4641429762496596
 23
-1010.52364166708
 33
60.299999999999997
  0
3DFACE
  5
7C2
  8
PRETO
 10
7.4641429762496596
 20
-922.12364166708005
 30
60.299999999999997
 11
13.46414297624966
 21
-1010.52364166708
 31
60.299999999999997
 12
13.46414297624966
 22
-922.12364166708005
 32
60.299999999999997
 13
7.4641429762496596
 23
-922.12364166708005
 33
60.299999999999997
  0
3DFACE
  5
7C3
  8
PRETO
 10
13.46414297624966
 20
-922.12364166708005
 30
60.299999999999997
 11
7.4641429762496596
 21
-922.12364166708005
 31
60.299999999999997
 12
7.4641429762496596
 22
-922.12364166708005
 32
54.200000000000003
 13
13.46414297624966
 23
-922.12364166708005
 33
60.299999999999997
  0
3DFACE
  5
7C4
  8
PRETO
 10
13.46414297624966
 20
-922.12364166708005
 30
60.299999999999997
 11
7.4641429762496596
 21
-922.12364166708005
 31
54.200000000000003
 12
13.46414297624966
 22
-922.12364166708005
 32
54.200000000000003
 13
13.46414297624966
 23
-922.12364166708005
 33
60.299999999999997
  0
3DFACE
  5
7C5
  8
PRETO
 10
266.1094681709601
 20
-922.12364166708005
 30
60.299999999999997
 11
272.1094681709601
 21
-922.12364166708005
 31
60.299999999999997
 12
272.1094681709601
 22
-922.12364166708005
 32
54.200000000000003
 13
266.1094681709601
 23
-922.12364166708005
 33
60.299999999999997
  0
3DFACE
  5
7C6
  8
PRETO
 10
266.1094681709601
 20
-922.12364166708005
 30
60.299999999999997
 11
272.1094681709601
 21
-922.12364166708005
 31
54.200000000000003
 12
266.1094681709601
 22
-922.12364166708005
 32
54.200000000000003
 13
266.1094681709601
 23
-922.12364166708005
 33
60.299999999999997
  0
3DFACE
  5
7C7
  8
PRETO
 10
266.1094681709601
 20
-922.12364166708005
 30
54.200000000000003
 11
272.1094681709601
 21
-922.12364166708005
 31
54.200000000000003
 12
272.1094681709601
 22
-924.06364166707988
 32
40.36999999999999
 13
266.1094681709601
 23
-922.12364166708005
 33
54.200000000000003
  0
3DFACE
  5
7C8
  8
PRETO
 10
266.1094681709601
 20
-922.12364166708005
 30
54.200000000000003
 11
272.1094681709601
 21
-924.06364166707988
 31
40.36999999999999
 12
266.1094681709601
 22
-924.06364166707988
 32
40.36999999999999
 13
266.1094681709601
 23
-922.12364166708005
 33
54.200000000000003
  0
3DFACE
  5
7C9
  8
PRETO
 10
266.1094681709601
 20
-924.06364166707988
 30
40.36999999999999
 11
272.1094681709601
 21
-924.06364166707988
 31
40.36999999999999
 12
272.1094681709601
 22
-925.35364166707996
 32
31.199999999999999
 13
266.1094681709601
 23
-924.06364166707988
 33
40.36999999999999
  0
3DFACE
  5
7CA
  8
PRETO
 10
266.1094681709601
 20
-924.06364166707988
 30
40.36999999999999
 11
272.1094681709601
 21
-925.35364166707996
 31
31.199999999999999
 12
266.1094681709601
 22
-925.35364166707996
 32
31.199999999999999
 13
266.1094681709601
 23
-924.06364166707988
 33
40.36999999999999
  0
3DFACE
  5
7CB
  8
PRETO
 10
266.1094681709601
 20
-925.35364166707996
 30
31.199999999999999
 11
272.1094681709601
 21
-925.35364166707996
 31
31.199999999999999
 12
272.1094681709601
 22
-927.63364166707993
 32
23.710000000000001
 13
266.1094681709601
 23
-925.35364166707996
 33
31.199999999999999
  0
3DFACE
  5
7CC
  8
PRETO
 10
266.1094681709601
 20
-925.35364166707996
 30
31.199999999999999
 11
272.1094681709601
 21
-927.63364166707993
 31
23.710000000000001
 12
266.1094681709601
 22
-927.63364166707993
 32
23.710000000000001
 13
266.1094681709601
 23
-925.35364166707996
 33
31.199999999999999
  0
3DFACE
  5
7CD
  8
PRETO
 10
266.1094681709601
 20
-927.63364166707993
 30
23.710000000000001
 11
272.1094681709601
 21
-927.63364166707993
 31
23.710000000000001
 12
272.1094681709601
 22
-932.09364166707996
 32
17.280000000000001
 13
266.1094681709601
 23
-927.63364166707993
 33
23.710000000000001
  0
3DFACE
  5
7CE
  8
PRETO
 10
266.1094681709601
 20
-927.63364166707993
 30
23.710000000000001
 11
272.1094681709601
 21
-932.09364166707996
 31
17.280000000000001
 12
266.1094681709601
 22
-932.09364166707996
 32
17.280000000000001
 13
266.1094681709601
 23
-927.63364166707993
 33
23.710000000000001
  0
3DFACE
  5
7CF
  8
PRETO
 10
266.1094681709601
 20
-932.09364166707996
 30
17.280000000000001
 11
272.1094681709601
 21
-932.09364166707996
 31
17.280000000000001
 12
272.1094681709601
 22
-938.32364166707987
 32
12.539999999999999
 13
266.1094681709601
 23
-932.09364166707996
 33
17.280000000000001
  0
3DFACE
  5
7D0
  8
PRETO
 10
266.1094681709601
 20
-932.09364166707996
 30
17.280000000000001
 11
272.1094681709601
 21
-938.32364166707987
 31
12.539999999999999
 12
266.1094681709601
 22
-938.32364166707987
 32
12.539999999999999
 13
266.1094681709601
 23
-932.09364166707996
 33
17.280000000000001
  0
3DFACE
  5
7D1
  8
PRETO
 10
266.1094681709601
 20
-938.32364166707987
 30
12.539999999999999
 11
272.1094681709601
 21
-938.32364166707987
 31
12.539999999999999
 12
272.1094681709601
 22
-994.32364166707976
 32
12.539999999999999
 13
266.1094681709601
 23
-938.32364166707987
 33
12.539999999999999
  0
3DFACE
  5
7D2
  8
PRETO
 10
266.1094681709601
 20
-938.32364166707987
 30
12.539999999999999
 11
272.1094681709601
 21
-994.32364166707976
 31
12.539999999999999
 12
266.1094681709601
 22
-994.32364166707976
 32
12.539999999999999
 13
266.1094681709601
 23
-938.32364166707987
 33
12.539999999999999
  0
3DFACE
  5
7D3
  8
PRETO
 10
266.1094681709601
 20
-994.32364166707976
 30
12.539999999999999
 11
272.1094681709601
 21
-994.32364166707976
 31
12.539999999999999
 12
272.1094681709601
 22
-1000.55364166708
 32
17.280000000000001
 13
266.1094681709601
 23
-994.32364166707976
 33
12.539999999999999
  0
3DFACE
  5
7D4
  8
PRETO
 10
266.1094681709601
 20
-994.32364166707976
 30
12.539999999999999
 11
272.1094681709601
 21
-1000.55364166708
 31
17.280000000000001
 12
266.1094681709601
 22
-1000.55364166708
 32
17.280000000000001
 13
266.1094681709601
 23
-994.32364166707976
 33
12.539999999999999
  0
3DFACE
  5
7D5
  8
PRETO
 10
266.1094681709601
 20
-1000.55364166708
 30
17.280000000000001
 11
272.1094681709601
 21
-1000.55364166708
 31
17.280000000000001
 12
272.1094681709601
 22
-1005.01364166708
 32
23.710000000000001
 13
266.1094681709601
 23
-1000.55364166708
 33
17.280000000000001
  0
3DFACE
  5
7D6
  8
PRETO
 10
266.1094681709601
 20
-1000.55364166708
 30
17.280000000000001
 11
272.1094681709601
 21
-1005.01364166708
 31
23.710000000000001
 12
266.1094681709601
 22
-1005.01364166708
 32
23.710000000000001
 13
266.1094681709601
 23
-1000.55364166708
 33
17.280000000000001
  0
3DFACE
  5
7D7
  8
PRETO
 10
266.1094681709601
 20
-1005.01364166708
 30
23.710000000000001
 11
272.1094681709601
 21
-1005.01364166708
 31
23.710000000000001
 12
272.1094681709601
 22
-1007.29364166708
 32
31.199999999999999
 13
266.1094681709601
 23
-1005.01364166708
 33
23.710000000000001
  0
3DFACE
  5
7D8
  8
PRETO
 10
266.1094681709601
 20
-1005.01364166708
 30
23.710000000000001
 11
272.1094681709601
 21
-1007.29364166708
 31
31.199999999999999
 12
266.1094681709601
 22
-1007.29364166708
 32
31.199999999999999
 13
266.1094681709601
 23
-1005.01364166708
 33
23.710000000000001
  0
3DFACE
  5
7D9
  8
PRETO
 10
266.1094681709601
 20
-1007.29364166708
 30
31.199999999999999
 11
272.1094681709601
 21
-1007.29364166708
 31
31.199999999999999
 12
272.1094681709601
 22
-1008.58364166708
 32
40.36999999999999
 13
266.1094681709601
 23
-1007.29364166708
 33
31.199999999999999
  0
3DFACE
  5
7DA
  8
PRETO
 10
266.1094681709601
 20
-1007.29364166708
 30
31.199999999999999
 11
272.1094681709601
 21
-1008.58364166708
 31
40.36999999999999
 12
266.1094681709601
 22
-1008.58364166708
 32
40.36999999999999
 13
266.1094681709601
 23
-1007.29364166708
 33
31.199999999999999
  0
3DFACE
  5
7DB
  8
PRETO
 10
266.1094681709601
 20
-1008.58364166708
 30
40.36999999999999
 11
272.1094681709601
 21
-1008.58364166708
 31
40.36999999999999
 12
272.1094681709601
 22
-1010.52364166708
 32
54.200000000000003
 13
266.1094681709601
 23
-1008.58364166708
 33
40.36999999999999
  0
3DFACE
  5
7DC
  8
PRETO
 10
266.1094681709601
 20
-1008.58364166708
 30
40.36999999999999
 11
272.1094681709601
 21
-1010.52364166708
 31
54.200000000000003
 12
266.1094681709601
 22
-1010.52364166708
 32
54.200000000000003
 13
266.1094681709601
 23
-1008.58364166708
 33
40.36999999999999
  0
3DFACE
  5
7DD
  8
PRETO
 10
266.1094681709601
 20
-1010.52364166708
 30
54.200000000000003
 11
272.1094681709601
 21
-1010.52364166708
 31
54.200000000000003
 12
272.1094681709601
 22
-1010.52364166708
 32
60.299999999999997
 13
266.1094681709601
 23
-1010.52364166708
 33
54.200000000000003
  0
3DFACE
  5
7DE
  8
PRETO
 10
266.1094681709601
 20
-1010.52364166708
 30
54.200000000000003
 11
272.1094681709601
 21
-1010.52364166708
 31
60.299999999999997
 12
266.1094681709601
 22
-1010.52364166708
 32
60.299999999999997
 13
266.1094681709601
 23
-1010.52364166708
 33
54.200000000000003
  0
3DFACE
  5
7DF
  8
PRETO
 10
266.1094681709601
 20
-1010.52364166708
 30
60.299999999999997
 11
272.1094681709601
 21
-1010.52364166708
 31
60.299999999999997
 12
272.1094681709601
 22
-922.12364166708005
 32
60.299999999999997
 13
266.1094681709601
 23
-1010.52364166708
 33
60.299999999999997
  0
3DFACE
  5
7E0
  8
PRETO
 10
266.1094681709601
 20
-1010.52364166708
 30
60.299999999999997
 11
272.1094681709601
 21
-922.12364166708005
 31
60.299999999999997
 12
266.1094681709601
 22
-922.12364166708005
 32
60.299999999999997
 13
266.1094681709601
 23
-1010.52364166708
 33
60.299999999999997
  0
3DFACE
  5
7E1
  8
PRETO
 10
266.1094681709601
 20
-922.12364166708005
 30
60.299999999999997
 11
272.1094681709601
 21
-922.12364166708005
 31
60.299999999999997
 12
272.1094681709601
 22
-922.12364166708005
 32
54.200000000000003
 13
266.1094681709601
 23
-922.12364166708005
 33
60.299999999999997
  0
3DFACE
  5
7E2
  8
PRETO
 10
266.1094681709601
 20
-922.12364166708005
 30
60.299999999999997
 11
272.1094681709601
 21
-922.12364166708005
 31
54.200000000000003
 12
266.1094681709601
 22
-922.12364166708005
 32
54.200000000000003
 13
266.1094681709601
 23
-922.12364166708005
 33
60.299999999999997
  0
3DFACE
  5
7E3
  8
PRETO
 10
7.4641429762496596
 20
-1007.29364166708
 30
31.199999999999999
 11
7.4641429762496596
 21
-925.35364166707996
 31
31.199999999999999
 12
7.4641429762496596
 22
-927.63364166707993
 32
23.710000000000001
 13
7.4641429762496596
 23
-1007.29364166708
 33
31.199999999999999
  0
3DFACE
  5
7E4
  8
PRETO
 10
7.4641429762496596
 20
-1007.29364166708
 30
31.199999999999999
 11
7.4641429762496596
 21
-927.63364166707993
 31
23.710000000000001
 12
7.4641429762496596
 22
-1005.01364166708
 32
23.710000000000001
 13
7.4641429762496596
 23
-1007.29364166708
 33
31.199999999999999
  0
3DFACE
  5
7E5
  8
PRETO
 10
7.4641429762496596
 20
-1005.01364166708
 30
23.710000000000001
 11
7.4641429762496596
 21
-927.63364166707993
 31
23.710000000000001
 12
7.4641429762496596
 22
-932.09364166707996
 32
17.280000000000001
 13
7.4641429762496596
 23
-1005.01364166708
 33
23.710000000000001
  0
3DFACE
  5
7E6
  8
PRETO
 10
7.4641429762496596
 20
-1005.01364166708
 30
23.710000000000001
 11
7.4641429762496596
 21
-932.09364166707996
 31
17.280000000000001
 12
7.4641429762496596
 22
-1000.55364166708
 32
17.280000000000001
 13
7.4641429762496596
 23
-1005.01364166708
 33
23.710000000000001
  0
3DFACE
  5
7E7
  8
PRETO
 10
7.4641429762496596
 20
-1000.55364166708
 30
17.280000000000001
 11
7.4641429762496596
 21
-932.09364166707996
 31
17.280000000000001
 12
7.4641429762496596
 22
-938.32364166707987
 32
12.539999999999999
 13
7.4641429762496596
 23
-1000.55364166708
 33
17.280000000000001
  0
3DFACE
  5
7E8
  8
PRETO
 10
7.4641429762496596
 20
-1000.55364166708
 30
17.280000000000001
 11
7.4641429762496596
 21
-938.32364166707987
 31
12.539999999999999
 12
7.4641429762496596
 22
-994.32364166707976
 32
12.539999999999999
 13
7.4641429762496596
 23
-1000.55364166708
 33
17.280000000000001
  0
3DFACE
  5
7E9
  8
PRETO
 10
13.46414297624966
 20
-925.35364166707996
 30
31.199999999999999
 11
13.46414297624966
 21
-1007.29364166708
 31
31.199999999999999
 12
13.46414297624966
 22
-927.63364166707993
 32
23.710000000000001
 13
13.46414297624966
 23
-925.35364166707996
 33
31.199999999999999
  0
3DFACE
  5
7EA
  8
PRETO
 10
13.46414297624966
 20
-927.63364166707993
 30
23.710000000000001
 11
13.46414297624966
 21
-1007.29364166708
 31
31.199999999999999
 12
13.46414297624966
 22
-1005.01364166708
 32
23.710000000000001
 13
13.46414297624966
 23
-927.63364166707993
 33
23.710000000000001
  0
3DFACE
  5
7EB
  8
PRETO
 10
13.46414297624966
 20
-927.63364166707993
 30
23.710000000000001
 11
13.46414297624966
 21
-1005.01364166708
 31
23.710000000000001
 12
13.46414297624966
 22
-932.09364166707996
 32
17.280000000000001
 13
13.46414297624966
 23
-927.63364166707993
 33
23.710000000000001
  0
3DFACE
  5
7EC
  8
PRETO
 10
13.46414297624966
 20
-932.09364166707996
 30
17.280000000000001
 11
13.46414297624966
 21
-1005.01364166708
 31
23.710000000000001
 12
13.46414297624966
 22
-1000.55364166708
 32
17.280000000000001
 13
13.46414297624966
 23
-932.09364166707996
 33
17.280000000000001
  0
3DFACE
  5
7ED
  8
PRETO
 10
13.46414297624966
 20
-932.09364166707996
 30
17.280000000000001
 11
13.46414297624966
 21
-1000.55364166708
 31
17.280000000000001
 12
13.46414297624966
 22
-938.32364166707987
 32
12.539999999999999
 13
13.46414297624966
 23
-932.09364166707996
 33
17.280000000000001
  0
3DFACE
  5
7EE
  8
PRETO
 10
13.46414297624966
 20
-938.32364166707987
 30
12.539999999999999
 11
13.46414297624966
 21
-1000.55364166708
 31
17.280000000000001
 12
13.46414297624966
 22
-994.32364166707976
 32
12.539999999999999
 13
13.46414297624966
 23
-938.32364166707987
 33
12.539999999999999
  0
3DFACE
  5
7EF
  8
PRETO
 10
266.1094681709601
 20
-1007.29364166708
 30
31.199999999999999
 11
266.1094681709601
 21
-925.35364166707996
 31
31.199999999999999
 12
266.1094681709601
 22
-927.63364166707993
 32
23.710000000000001
 13
266.1094681709601
 23
-1007.29364166708
 33
31.199999999999999
  0
3DFACE
  5
7F0
  8
PRETO
 10
266.1094681709601
 20
-1007.29364166708
 30
31.199999999999999
 11
266.1094681709601
 21
-927.63364166707993
 31
23.710000000000001
 12
266.1094681709601
 22
-1005.01364166708
 32
23.710000000000001
 13
266.1094681709601
 23
-1007.29364166708
 33
31.199999999999999
  0
3DFACE
  5
7F1
  8
PRETO
 10
266.1094681709601
 20
-1005.01364166708
 30
23.710000000000001
 11
266.1094681709601
 21
-927.63364166707993
 31
23.710000000000001
 12
266.1094681709601
 22
-932.09364166707996
 32
17.280000000000001
 13
266.1094681709601
 23
-1005.01364166708
 33
23.710000000000001
  0
3DFACE
  5
7F2
  8
PRETO
 10
266.1094681709601
 20
-1005.01364166708
 30
23.710000000000001
 11
266.1094681709601
 21
-932.09364166707996
 31
17.280000000000001
 12
266.1094681709601
 22
-1000.55364166708
 32
17.280000000000001
 13
266.1094681709601
 23
-1005.01364166708
 33
23.710000000000001
  0
3DFACE
  5
7F3
  8
PRETO
 10
266.1094681709601
 20
-1000.55364166708
 30
17.280000000000001
 11
266.1094681709601
 21
-932.09364166707996
 31
17.280000000000001
 12
266.1094681709601
 22
-938.32364166707987
 32
12.539999999999999
 13
266.1094681709601
 23
-1000.55364166708
 33
17.280000000000001
  0
3DFACE
  5
7F4
  8
PRETO
 10
266.1094681709601
 20
-1000.55364166708
 30
17.280000000000001
 11
266.1094681709601
 21
-938.32364166707987
 31
12.539999999999999
 12
266.1094681709601
 22
-994.32364166707976
 32
12.539999999999999
 13
266.1094681709601
 23
-1000.55364166708
 33
17.280000000000001
  0
3DFACE
  5
7F5
  8
PRETO
 10
272.1094681709601
 20
-925.35364166707996
 30
31.199999999999999
 11
272.1094681709601
 21
-1007.29364166708
 31
31.199999999999999
 12
272.1094681709601
 22
-927.63364166707993
 32
23.710000000000001
 13
272.1094681709601
 23
-925.35364166707996
 33
31.199999999999999
  0
3DFACE
  5
7F6
  8
PRETO
 10
272.1094681709601
 20
-927.63364166707993
 30
23.710000000000001
 11
272.1094681709601
 21
-1007.29364166708
 31
31.199999999999999
 12
272.1094681709601
 22
-1005.01364166708
 32
23.710000000000001
 13
272.1094681709601
 23
-927.63364166707993
 33
23.710000000000001
  0
3DFACE
  5
7F7
  8
PRETO
 10
272.1094681709601
 20
-927.63364166707993
 30
23.710000000000001
 11
272.1094681709601
 21
-1005.01364166708
 31
23.710000000000001
 12
272.1094681709601
 22
-932.09364166707996
 32
17.280000000000001
 13
272.1094681709601
 23
-927.63364166707993
 33
23.710000000000001
  0
3DFACE
  5
7F8
  8
PRETO
 10
272.1094681709601
 20
-932.09364166707996
 30
17.280000000000001
 11
272.1094681709601
 21
-1005.01364166708
 31
23.710000000000001
 12
272.1094681709601
 22
-1000.55364166708
 32
17.280000000000001
 13
272.1094681709601
 23
-932.09364166707996
 33
17.280000000000001
  0
3DFACE
  5
7F9
  8
PRETO
 10
272.1094681709601
 20
-932.09364166707996
 30
17.280000000000001
 11
272.1094681709601
 21
-1000.55364166708
 31
17.280000000000001
 12
272.1094681709601
 22
-938.32364166707987
 32
12.539999999999999
 13
272.1094681709601
 23
-932.09364166707996
 33
17.280000000000001
  0
3DFACE
  5
7FA
  8
PRETO
 10
272.1094681709601
 20
-938.32364166707987
 30
12.539999999999999
 11
272.1094681709601
 21
-1000.55364166708
 31
17.280000000000001
 12
272.1094681709601
 22
-994.32364166707976
 32
12.539999999999999
 13
272.1094681709601
 23
-938.32364166707987
 33
12.539999999999999
  0
3DFACE
  5
7FB
  8
CINZA
 10
266.1094681709601
 20
-922.33364166707997
 30
57.090000000000003
 11
13.46414297624966
 21
-922.33364166707997
 31
57.090000000000003
 12
266.1094681709601
 22
-922.20364166708009
 32
58.079999999999991
 13
266.1094681709601
 23
-922.33364166707997
 33
57.090000000000003
  0
3DFACE
  5
7FC
  8
CINZA
 10
266.1094681709601
 20
-922.20364166708009
 30
58.079999999999991
 11
13.46414297624966
 21
-922.33364166707997
 31
57.090000000000003
 12
13.46414297624966
 22
-922.20364166708009
 32
58.079999999999991
 13
266.1094681709601
 23
-922.20364166708009
 33
58.079999999999991
  0
3DFACE
  5
7FD
  8
CINZA
 10
13.46414297624966
 20
-922.20364166708009
 30
58.079999999999991
 11
266.1094681709601
 21
-922.20364166708009
 31
58.079999999999991
 12
266.1094681709601
 22
-922.49364166707983
 32
59.189999999999998
 13
13.46414297624966
 23
-922.20364166708009
 33
58.079999999999991
  0
3DFACE
  5
7FE
  8
CINZA
 10
13.46414297624966
 20
-922.20364166708009
 30
58.079999999999991
 11
266.1094681709601
 21
-922.49364166707983
 31
59.189999999999998
 12
13.46414297624966
 22
-922.49364166707983
 32
59.189999999999998
 13
13.46414297624966
 23
-922.20364166708009
 33
58.079999999999991
  0
3DFACE
  5
7FF
  8
CINZA
 10
266.1094681709601
 20
-922.49364166707983
 30
59.189999999999998
 11
13.46414297624966
 21
-922.49364166707983
 31
59.189999999999998
 12
266.1094681709601
 22
-923.48364166707995
 32
59.770000000000003
 13
266.1094681709601
 23
-922.49364166707983
 33
59.189999999999998
  0
3DFACE
  5
800
  8
CINZA
 10
266.1094681709601
 20
-923.48364166707995
 30
59.770000000000003
 11
13.46414297624966
 21
-922.49364166707983
 31
59.189999999999998
 12
13.46414297624966
 22
-923.48364166707995
 32
59.770000000000003
 13
266.1094681709601
 23
-923.48364166707995
 33
59.770000000000003
  0
3DFACE
  5
801
  8
CINZA
 10
266.1094681709601
 20
-923.48364166707995
 30
59.770000000000003
 11
13.46414297624966
 21
-923.48364166707995
 31
59.770000000000003
 12
266.1094681709601
 22
-924.61364166707995
 32
59.909999999999989
 13
266.1094681709601
 23
-923.48364166707995
 33
59.770000000000003
  0
3DFACE
  5
802
  8
CINZA
 10
13.46414297624966
 20
-923.48364166707995
 30
59.770000000000003
 11
266.1094681709601
 21
-924.61364166707995
 31
59.909999999999989
 12
13.46414297624966
 22
-924.61364166707995
 32
59.909999999999989
 13
13.46414297624966
 23
-923.48364166707995
 33
59.770000000000003
  0
3DFACE
  5
803
  8
CINZA
 10
13.46414297624966
 20
-924.61364166707995
 30
59.909999999999989
 11
266.1094681709601
 21
-924.61364166707995
 31
59.909999999999989
 12
266.1094681709601
 22
-925.21364166707986
 32
59.710000000000001
 13
13.46414297624966
 23
-924.61364166707995
 33
59.909999999999989
  0
3DFACE
  5
804
  8
CINZA
 10
13.46414297624966
 20
-924.61364166707995
 30
59.909999999999989
 11
266.1094681709601
 21
-925.21364166707986
 31
59.710000000000001
 12
13.46414297624966
 22
-925.21364166707986
 32
59.710000000000001
 13
13.46414297624966
 23
-924.61364166707995
 33
59.909999999999989
  0
3DFACE
  5
805
  8
CINZA
 10
266.1094681709601
 20
-925.21364166707986
 30
59.710000000000001
 11
13.46414297624966
 21
-925.21364166707986
 31
59.710000000000001
 12
266.1094681709601
 22
-925.60364166707996
 32
59.039999999999992
 13
266.1094681709601
 23
-925.21364166707986
 33
59.710000000000001
  0
3DFACE
  5
806
  8
CINZA
 10
266.1094681709601
 20
-925.60364166707996
 30
59.039999999999992
 11
13.46414297624966
 21
-925.21364166707986
 31
59.710000000000001
 12
13.46414297624966
 22
-925.60364166707996
 32
59.039999999999992
 13
266.1094681709601
 23
-925.60364166707996
 33
59.039999999999992
  0
3DFACE
  5
807
  8
CINZA
 10
266.1094681709601
 20
-925.60364166707996
 30
59.039999999999992
 11
13.46414297624966
 21
-925.60364166707996
 31
59.039999999999992
 12
266.1094681709601
 22
-928.08364166707986
 32
40.789999999999992
 13
266.1094681709601
 23
-925.60364166707996
 33
59.039999999999992
  0
3DFACE
  5
808
  8
CINZA
 10
266.1094681709601
 20
-928.08364166707986
 30
40.789999999999992
 11
13.46414297624966
 21
-925.60364166707996
 31
59.039999999999992
 12
13.46414297624966
 22
-928.08364166707986
 32
40.789999999999992
 13
266.1094681709601
 23
-928.08364166707986
 33
40.789999999999992
  0
3DFACE
  5
809
  8
CINZA
 10
266.1094681709601
 20
-928.08364166707986
 30
40.789999999999992
 11
13.46414297624966
 21
-928.08364166707986
 31
40.789999999999992
 12
266.1094681709601
 22
-929.40364166707991
 32
31.09
 13
266.1094681709601
 23
-928.08364166707986
 33
40.789999999999992
  0
3DFACE
  5
80A
  8
CINZA
 10
266.1094681709601
 20
-929.40364166707991
 30
31.09
 11
13.46414297624966
 21
-929.40364166707991
 31
31.09
 12
266.1094681709601
 22
-932.87364166708005
 32
22.27
 13
266.1094681709601
 23
-929.40364166707991
 33
31.09
  0
3DFACE
  5
80B
  8
CINZA
 10
266.1094681709601
 20
-932.87364166708005
 30
22.27
 11
13.46414297624966
 21
-929.40364166707991
 31
31.09
 12
13.46414297624966
 22
-932.87364166708005
 32
22.27
 13
266.1094681709601
 23
-932.87364166708005
 33
22.27
  0
3DFACE
  5
80C
  8
CINZA
 10
266.1094681709601
 20
-932.87364166708005
 30
22.27
 11
13.46414297624966
 21
-932.87364166708005
 31
22.27
 12
266.1094681709601
 22
-940.01364166707992
 32
16.030000000000001
 13
266.1094681709601
 23
-932.87364166708005
 33
22.27
  0
3DFACE
  5
80D
  8
CINZA
 10
266.1094681709601
 20
-940.01364166707992
 30
16.030000000000001
 11
13.46414297624966
 21
-932.87364166708005
 31
22.27
 12
13.46414297624966
 22
-940.01364166707992
 32
16.030000000000001
 13
266.1094681709601
 23
-940.01364166707992
 33
16.030000000000001
  0
3DFACE
  5
80E
  8
CINZA
 10
266.1094681709601
 20
-940.01364166707992
 30
16.030000000000001
 11
13.46414297624966
 21
-940.01364166707992
 31
16.030000000000001
 12
266.1094681709601
 22
-949.22364166707985
 32
13.789999999999999
 13
266.1094681709601
 23
-940.01364166707992
 33
16.030000000000001
  0
3DFACE
  5
80F
  8
CINZA
 10
266.1094681709601
 20
-949.22364166707985
 30
13.789999999999999
 11
13.46414297624966
 21
-940.01364166707992
 31
16.030000000000001
 12
13.46414297624966
 22
-949.22364166707985
 32
13.789999999999999
 13
266.1094681709601
 23
-949.22364166707985
 33
13.789999999999999
  0
3DFACE
  5
810
  8
CINZA
 10
266.1094681709601
 20
-949.22364166707985
 30
13.789999999999999
 11
13.46414297624966
 21
-949.22364166707985
 31
13.789999999999999
 12
266.1094681709601
 22
-983.42364166707989
 32
13.789999999999999
 13
266.1094681709601
 23
-949.22364166707985
 33
13.789999999999999
  0
3DFACE
  5
811
  8
CINZA
 10
266.1094681709601
 20
-983.42364166707989
 30
13.789999999999999
 11
13.46414297624966
 21
-949.22364166707985
 31
13.789999999999999
 12
13.46414297624966
 22
-983.42364166707989
 32
13.789999999999999
 13
266.1094681709601
 23
-983.42364166707989
 33
13.789999999999999
  0
3DFACE
  5
812
  8
CINZA
 10
266.1094681709601
 20
-983.42364166707989
 30
13.789999999999999
 11
13.46414297624966
 21
-983.42364166707989
 31
13.789999999999999
 12
266.1094681709601
 22
-995.5436416670799
 32
17.940000000000001
 13
266.1094681709601
 23
-983.42364166707989
 33
13.789999999999999
  0
3DFACE
  5
813
  8
CINZA
 10
266.1094681709601
 20
-995.5436416670799
 30
17.940000000000001
 11
13.46414297624966
 21
-983.42364166707989
 31
13.789999999999999
 12
13.46414297624966
 22
-995.5436416670799
 32
17.940000000000001
 13
266.1094681709601
 23
-995.5436416670799
 33
17.940000000000001
  0
3DFACE
  5
814
  8
CINZA
 10
266.1094681709601
 20
-995.5436416670799
 30
17.940000000000001
 11
13.46414297624966
 21
-995.5436416670799
 31
17.940000000000001
 12
266.1094681709601
 22
-1003.43364166708
 32
28.02
 13
266.1094681709601
 23
-995.5436416670799
 33
17.940000000000001
  0
3DFACE
  5
815
  8
CINZA
 10
266.1094681709601
 20
-1003.43364166708
 30
28.02
 11
13.46414297624966
 21
-995.5436416670799
 31
17.940000000000001
 12
13.46414297624966
 22
-1003.43364166708
 32
28.030000000000001
 13
266.1094681709601
 23
-1003.43364166708
 33
28.02
  0
3DFACE
  5
816
  8
CINZA
 10
266.1094681709601
 20
-1003.43364166708
 30
28.02
 11
13.46414297624966
 21
-1003.43364166708
 31
28.030000000000001
 12
266.1094681709601
 22
-1004.56364166708
 32
40.789999999999992
 13
266.1094681709601
 23
-1003.43364166708
 33
28.02
  0
3DFACE
  5
817
  8
CINZA
 10
266.1094681709601
 20
-1004.56364166708
 30
40.789999999999992
 11
13.46414297624966
 21
-1003.43364166708
 31
28.030000000000001
 12
13.46414297624966
 22
-1004.56364166708
 32
40.789999999999992
 13
266.1094681709601
 23
-1004.56364166708
 33
40.789999999999992
  0
3DFACE
  5
818
  8
CINZA
 10
266.1094681709601
 20
-1004.56364166708
 30
40.789999999999992
 11
13.46414297624966
 21
-1004.56364166708
 31
40.789999999999992
 12
266.1094681709601
 22
-1007.04364166708
 32
59.039999999999992
 13
266.1094681709601
 23
-1004.56364166708
 33
40.789999999999992
  0
3DFACE
  5
819
  8
CINZA
 10
266.1094681709601
 20
-1007.04364166708
 30
59.039999999999992
 11
13.46414297624966
 21
-1004.56364166708
 31
40.789999999999992
 12
13.46414297624966
 22
-1007.04364166708
 32
59.039999999999992
 13
266.1094681709601
 23
-1007.04364166708
 33
59.039999999999992
  0
3DFACE
  5
81A
  8
CINZA
 10
266.1094681709601
 20
-1007.04364166708
 30
59.039999999999992
 11
13.46414297624966
 21
-1007.04364166708
 31
59.039999999999992
 12
266.1094681709601
 22
-1007.43364166708
 32
59.710000000000001
 13
266.1094681709601
 23
-1007.04364166708
 33
59.039999999999992
  0
3DFACE
  5
81B
  8
CINZA
 10
266.1094681709601
 20
-1007.43364166708
 30
59.710000000000001
 11
13.46414297624966
 21
-1007.04364166708
 31
59.039999999999992
 12
13.46414297624966
 22
-1007.43364166708
 32
59.710000000000001
 13
266.1094681709601
 23
-1007.43364166708
 33
59.710000000000001
  0
3DFACE
  5
81C
  8
CINZA
 10
266.1094681709601
 20
-1007.43364166708
 30
59.710000000000001
 11
13.46414297624966
 21
-1007.43364166708
 31
59.710000000000001
 12
266.1094681709601
 22
-1008.03364166708
 32
59.909999999999989
 13
266.1094681709601
 23
-1007.43364166708
 33
59.710000000000001
  0
3DFACE
  5
81D
  8
CINZA
 10
266.1094681709601
 20
-1008.03364166708
 30
59.909999999999989
 11
13.46414297624966
 21
-1007.43364166708
 31
59.710000000000001
 12
13.46414297624966
 22
-1008.03364166708
 32
59.909999999999989
 13
266.1094681709601
 23
-1008.03364166708
 33
59.909999999999989
  0
3DFACE
  5
81E
  8
CINZA
 10
13.46414297624966
 20
-1008.03364166708
 30
59.909999999999989
 11
266.1094681709601
 21
-1008.03364166708
 31
59.909999999999989
 12
266.1094681709601
 22
-1009.16364166708
 32
59.770000000000003
 13
13.46414297624966
 23
-1008.03364166708
 33
59.909999999999989
  0
3DFACE
  5
81F
  8
CINZA
 10
13.46414297624966
 20
-1008.03364166708
 30
59.909999999999989
 11
266.1094681709601
 21
-1009.16364166708
 31
59.770000000000003
 12
13.46414297624966
 22
-1009.16364166708
 32
59.770000000000003
 13
13.46414297624966
 23
-1008.03364166708
 33
59.909999999999989
  0
3DFACE
  5
820
  8
CINZA
 10
266.1094681709601
 20
-1009.16364166708
 30
59.770000000000003
 11
13.46414297624966
 21
-1009.16364166708
 31
59.770000000000003
 12
266.1094681709601
 22
-1010.09364166708
 32
59.270000000000003
 13
266.1094681709601
 23
-1009.16364166708
 33
59.770000000000003
  0
3DFACE
  5
821
  8
CINZA
 10
266.1094681709601
 20
-1010.09364166708
 30
59.270000000000003
 11
13.46414297624966
 21
-1009.16364166708
 31
59.770000000000003
 12
13.46414297624966
 22
-1010.09364166708
 32
59.270000000000003
 13
266.1094681709601
 23
-1010.09364166708
 33
59.270000000000003
  0
3DFACE
  5
822
  8
CINZA
 10
266.1094681709601
 20
-1010.09364166708
 30
59.270000000000003
 11
13.46414297624966
 21
-1010.09364166708
 31
59.270000000000003
 12
266.1094681709601
 22
-1010.44364166708
 32
58.079999999999991
 13
266.1094681709601
 23
-1010.09364166708
 33
59.270000000000003
  0
3DFACE
  5
823
  8
CINZA
 10
266.1094681709601
 20
-1010.44364166708
 30
58.079999999999991
 11
13.46414297624966
 21
-1010.09364166708
 31
59.270000000000003
 12
13.46414297624966
 22
-1010.44364166708
 32
58.079999999999991
 13
266.1094681709601
 23
-1010.44364166708
 33
58.079999999999991
  0
3DFACE
  5
824
  8
CINZA
 10
13.46414297624966
 20
-1010.44364166708
 30
58.079999999999991
 11
266.1094681709601
 21
-1010.44364166708
 31
58.079999999999991
 12
266.1094681709601
 22
-1010.31364166708
 32
57.090000000000003
 13
13.46414297624966
 23
-1010.44364166708
 33
58.079999999999991
  0
3DFACE
  5
825
  8
CINZA
 10
13.46414297624966
 20
-1010.44364166708
 30
58.079999999999991
 11
266.1094681709601
 21
-1010.31364166708
 31
57.090000000000003
 12
13.46414297624966
 22
-1010.31364166708
 32
57.090000000000003
 13
13.46414297624966
 23
-1010.44364166708
 33
58.079999999999991
  0
ENDBLK
  5
826
  8
0
  0
ENDSEC
  0
SECTION
  2
ENTITIES
  0
3DFACE
  5
78
  8
PRETO
 10
285.80000000000001
 20
-1.0
 30
60.0
 11
285.80000000000001
 21
-1.0
 31
0.0
 12
543.35990000000004
 22
-1.0
 32
0.0
 13
556.85990000000004
 23
-1.0
 33
13.5
  0
3DFACE
  5
79
  8
PRETO
 10
285.80000000000001
 20
-6.0
 30
60.0
 11
285.80000000000001
 21
-6.0
 31
0.0
 12
543.35990000000004
 22
-6.0
 32
0.0
 13
556.85990000000004
 23
-6.0
 33
13.5
  0
3DFACE
  5
7A
  8
PRETO
 10
285.80000000000001
 20
-419.0
 30
60.0
 11
285.80000000000001
 21
-419.0
 31
0.0
 12
543.35990000000004
 22
-419.0
 32
0.0
 13
556.85990000000004
 23
-419.0
 33
13.5
  0
3DFACE
  5
7B
  8
PRETO
 10
285.80000000000001
 20
-414.0
 30
60.0
 11
285.80000000000001
 21
-414.0
 31
0.0
 12
543.35990000000004
 22
-414.0
 32
0.0
 13
556.85990000000004
 23
-414.0
 33
13.5
  0
3DFACE
  5
7C
  8
PRETO
 10
295.94
 20
-319.0928002530253
 30
40.36999999999999
 11
380.45999999999998
 21
-319.0928002530253
 31
40.36999999999999
 12
379.17000000000002
 22
-319.0928002530253
 32
31.199999999999999
 13
297.23000000000002
 23
-319.0928002530253
 33
31.199999999999999
  0
3DFACE
  5
7D
  8
PRETO
 10
295.94
 20
-325.0928002530253
 30
40.36999999999999
 11
380.45999999999998
 21
-325.0928002530253
 31
40.36999999999999
 12
379.17000000000002
 22
-325.0928002530253
 32
31.199999999999999
 13
297.23000000000002
 23
-325.0928002530253
 33
31.199999999999999
  0
3DFACE
  5
7F
  8
PRETO
 10
295.94
 20
-325.0928002530253
 30
40.36999999999999
 11
380.45999999999998
 21
-325.0928002530253
 31
40.36999999999999
 12
379.17000000000002
 22
-325.0928002530253
 32
31.199999999999999
 13
297.23000000000002
 23
-325.0928002530253
 33
31.199999999999999
  0
3DFACE
  5
81
  8
PRETO
 10
295.94
 20
-414.0
 30
40.36999999999999
 11
380.45999999999998
 21
-414.0
 31
40.36999999999999
 12
379.17000000000002
 22
-414.0
 32
31.199999999999999
 13
297.23000000000002
 23
-414.0
 33
31.199999999999999
  0
3DFACE
  5
82
  8
PRETO
 10
294.0
 20
-319.0928002530253
 30
60.299999999999997
 11
382.39999999999998
 21
-319.0928002530253
 31
60.299999999999997
 12
382.39999999999998
 22
-319.0928002530253
 32
54.200000000000003
 13
294.0
 23
-319.0928002530253
 33
54.200000000000003
  0
3DFACE
  5
83
  8
PRETO
 10
294.0
 20
-325.0928002530253
 30
60.299999999999997
 11
382.39999999999998
 21
-325.0928002530253
 31
60.299999999999997
 12
382.39999999999998
 22
-325.0928002530253
 32
54.200000000000003
 13
294.0
 23
-325.0928002530253
 33
54.200000000000003
  0
3DFACE
  5
84
  8
PRETO
 10
382.39999999999998
 20
-319.0928002530253
 30
54.200000000000003
 11
294.0
 21
-319.0928002530253
 31
54.200000000000003
 12
295.94
 22
-319.0928002530253
 32
40.36999999999999
 13
380.45999999999998
 23
-319.0928002530253
 33
40.36999999999999
  0
3DFACE
  5
85
  8
PRETO
 10
382.39999999999998
 20
-325.0928002530253
 30
54.200000000000003
 11
294.0
 21
-325.0928002530253
 31
54.200000000000003
 12
295.94
 22
-325.0928002530253
 32
40.36999999999999
 13
380.45999999999998
 23
-325.0928002530253
 33
40.36999999999999
  0
3DFACE
  5
87
  8
PRETO
 10
294.0
 20
-325.0928002530253
 30
60.299999999999997
 11
382.39999999999998
 21
-325.0928002530253
 31
60.299999999999997
 12
382.39999999999998
 22
-325.0928002530253
 32
54.200000000000003
 13
294.0
 23
-325.0928002530253
 33
54.200000000000003
  0
3DFACE
  5
89
  8
PRETO
 10
382.39999999999998
 20
-325.0928002530253
 30
54.200000000000003
 11
294.0
 21
-325.0928002530253
 31
54.200000000000003
 12
295.94
 22
-325.0928002530253
 32
40.36999999999999
 13
380.45999999999998
 23
-325.0928002530253
 33
40.36999999999999
  0
3DFACE
  5
8B
  8
PRETO
 10
294.0
 20
-414.0
 30
60.299999999999997
 11
382.39999999999998
 21
-414.0
 31
60.299999999999997
 12
382.39999999999998
 22
-414.0
 32
54.200000000000003
 13
294.0
 23
-414.0
 33
54.200000000000003
  0
3DFACE
  5
8D
  8
PRETO
 10
382.39999999999998
 20
-414.0
 30
54.200000000000003
 11
294.0
 21
-414.0
 31
54.200000000000003
 12
295.94
 22
-414.0
 32
40.36999999999999
 13
380.45999999999998
 23
-414.0
 33
40.36999999999999
  0
3DFACE
  5
8E
  8
PRETO
 10
295.94
 20
-26.800000000000001
 30
40.36999999999999
 11
380.45999999999998
 21
-26.800000000000001
 31
40.36999999999999
 12
379.17000000000002
 22
-26.800000000000001
 32
31.199999999999999
 13
297.23000000000002
 23
-26.800000000000001
 33
31.199999999999999
  0
3DFACE
  5
8F
  8
PRETO
 10
295.94
 20
-120.49280025302529
 30
40.36999999999999
 11
380.45999999999998
 21
-120.49280025302529
 31
40.36999999999999
 12
379.17000000000002
 22
-120.49280025302529
 32
31.199999999999999
 13
297.23000000000002
 23
-120.49280025302529
 33
31.199999999999999
  0
3DFACE
  5
90
  8
PRETO
 10
294.0
 20
-26.800000000000001
 30
60.299999999999997
 11
382.39999999999998
 21
-26.800000000000001
 31
60.299999999999997
 12
382.39999999999998
 22
-26.800000000000001
 32
54.200000000000003
 13
294.0
 23
-26.800000000000001
 33
54.200000000000003
  0
3DFACE
  5
91
  8
PRETO
 10
294.0
 20
-120.49280025302529
 30
60.299999999999997
 11
382.39999999999998
 21
-120.49280025302529
 31
60.299999999999997
 12
382.39999999999998
 22
-120.49280025302529
 32
54.200000000000003
 13
294.0
 23
-120.49280025302529
 33
54.200000000000003
  0
3DFACE
  5
92
  8
PRETO
 10
382.39999999999998
 20
-26.800000000000001
 30
54.200000000000003
 11
294.0
 21
-26.800000000000001
 31
54.200000000000003
 12
295.94
 22
-26.800000000000001
 32
40.36999999999999
 13
380.45999999999998
 23
-26.800000000000001
 33
40.36999999999999
  0
3DFACE
  5
93
  8
PRETO
 10
382.39999999999998
 20
-120.49280025302529
 30
54.200000000000003
 11
294.0
 21
-120.49280025302529
 31
54.200000000000003
 12
295.94
 22
-120.49280025302529
 32
40.36999999999999
 13
380.45999999999998
 23
-120.49280025302529
 33
40.36999999999999
  0
3DFACE
  5
94
  8
PRETO
 10
8.2882426686543909
 20
-31.476513887649961
 30
40.36999999999999
 11
92.808242668654401
 21
-31.476513887649961
 31
40.36999999999999
 12
91.518242668654409
 22
-31.476513887649961
 32
31.199999999999999
 13
9.5782426686544113
 23
-31.476513887649961
 33
31.199999999999999
  0
3DFACE
  5
95
  8
PRETO
 10
92.859999999999985
 20
-413.0
 30
40.36999999999999
 11
8.3399999999999999
 21
-413.0
 31
40.36999999999999
 12
9.6300000000000008
 22
-413.0
 32
31.199999999999999
 13
91.569999999999993
 23
-413.0
 33
31.199999999999999
  0
3DFACE
  5
96
  8
PRETO
 10
8.2882426686543909
 20
-113.2765138876499
 30
40.36999999999999
 11
92.808242668654373
 21
-113.2765138876499
 31
40.36999999999999
 12
91.518242668654366
 22
-113.2765138876499
 32
31.199999999999999
 13
9.5782426686544113
 23
-113.2765138876499
 33
31.199999999999999
  0
3DFACE
  5
97
  8
PRETO
 10
8.2882426686543909
 20
-107.27651388765
 30
40.36999999999999
 11
92.808242668654373
 21
-107.27651388765
 31
40.36999999999999
 12
91.518242668654366
 22
-107.27651388765
 32
31.199999999999999
 13
9.5782426686544113
 23
-107.27651388765
 33
31.199999999999999
  0
3DFACE
  5
98
  8
PRETO
 10
8.2882426686543909
 20
-101.2765138876499
 30
40.36999999999999
 11
92.808242668654373
 21
-101.2765138876499
 31
40.36999999999999
 12
91.518242668654366
 22
-101.2765138876499
 32
31.199999999999999
 13
9.5782426686544113
 23
-101.2765138876499
 33
31.199999999999999
  0
3DFACE
  5
99
  8
PRETO
 10
8.2882426686543909
 20
-107.27651388765
 30
40.36999999999999
 11
92.808242668654373
 21
-107.27651388765
 31
40.36999999999999
 12
91.518242668654366
 22
-107.27651388765
 32
31.199999999999999
 13
9.5782426686544113
 23
-107.27651388765
 33
31.199999999999999
  0
3DFACE
  5
9A
  8
PRETO
 10
103.0
 20
-418.0
 30
60.0
 11
103.0
 21
-418.0
 31
0.0
 12
22.440000000000001
 22
-418.0
 32
0.0
 13
8.9399990000000003
 23
-418.0
 33
13.5
  0
3DFACE
  5
9B
  8
PRETO
 10
103.0
 20
-413.0
 30
60.0
 11
103.0
 21
-413.0
 31
0.0
 12
22.440000000000001
 22
-413.0
 32
0.0
 13
8.9399990000000003
 23
-413.0
 33
13.5
  0
3DFACE
  5
9C
  8
PRETO
 10
94.748242668654385
 20
-113.2765138876499
 30
54.200000000000003
 11
6.3482426686543931
 21
-113.2765138876499
 31
54.200000000000003
 12
8.2882426686543909
 22
-113.2765138876499
 32
40.36999999999999
 13
92.808242668654373
 23
-113.2765138876499
 33
40.36999999999999
  0
3DFACE
  5
9D
  8
PRETO
 10
94.748242668654385
 20
-107.27651388765
 30
54.200000000000003
 11
6.3482426686543931
 21
-107.27651388765
 31
54.200000000000003
 12
8.2882426686543909
 22
-107.27651388765
 32
40.36999999999999
 13
92.808242668654373
 23
-107.27651388765
 33
40.36999999999999
  0
3DFACE
  5
9E
  8
PRETO
 10
94.748242668654385
 20
-101.2765138876499
 30
54.200000000000003
 11
6.3482426686543931
 21
-101.2765138876499
 31
54.200000000000003
 12
8.2882426686543909
 22
-101.2765138876499
 32
40.36999999999999
 13
92.808242668654373
 23
-101.2765138876499
 33
40.36999999999999
  0
3DFACE
  5
9F
  8
PRETO
 10
94.748242668654385
 20
-107.27651388765
 30
54.200000000000003
 11
6.3482426686543931
 21
-107.27651388765
 31
54.200000000000003
 12
8.2882426686543909
 22
-107.27651388765
 32
40.36999999999999
 13
92.808242668654373
 23
-107.27651388765
 33
40.36999999999999
  0
3DFACE
  5
A0
  8
PRETO
 10
94.748242668654385
 20
-31.476513887649961
 30
54.200000000000003
 11
6.3482426686543931
 21
-31.476513887649961
 31
54.200000000000003
 12
8.2882426686543909
 22
-31.476513887649961
 32
40.36999999999999
 13
92.808242668654401
 23
-31.476513887649961
 33
40.36999999999999
  0
3DFACE
  5
A1
  8
PRETO
 10
6.4000000000000004
 20
-413.0
 30
54.200000000000003
 11
94.799999999999997
 21
-413.0
 31
54.200000000000003
 12
92.859999999999985
 22
-413.0
 32
40.36999999999999
 13
8.3399999999999999
 23
-413.0
 33
40.36999999999999
  0
3DFACE
  5
A2
  8
PRETO
 10
6.3482426686543931
 20
-31.476513887649961
 30
60.299999999999997
 11
94.748242668654385
 21
-31.476513887649961
 31
60.299999999999997
 12
94.748242668654385
 22
-31.476513887649961
 32
54.200000000000003
 13
6.3482426686543931
 23
-31.476513887649961
 33
54.200000000000003
  0
3DFACE
  5
A3
  8
PRETO
 10
94.799999999999997
 20
-413.0
 30
60.299999999999997
 11
6.4000000000000004
 21
-413.0
 31
60.299999999999997
 12
6.4000000000000004
 22
-413.0
 32
54.200000000000003
 13
94.799999999999997
 23
-413.0
 33
54.200000000000003
  0
3DFACE
  5
A4
  8
PRETO
 10
6.3482426686543931
 20
-113.2765138876499
 30
60.299999999999997
 11
94.748242668654385
 21
-113.2765138876499
 31
60.299999999999997
 12
94.748242668654385
 22
-113.2765138876499
 32
54.200000000000003
 13
6.3482426686543931
 23
-113.2765138876499
 33
54.200000000000003
  0
3DFACE
  5
A5
  8
PRETO
 10
6.3482426686543931
 20
-107.27651388765
 30
60.299999999999997
 11
94.748242668654385
 21
-107.27651388765
 31
60.299999999999997
 12
94.748242668654385
 22
-107.27651388765
 32
54.200000000000003
 13
6.3482426686543931
 23
-107.27651388765
 33
54.200000000000003
  0
3DFACE
  5
A6
  8
PRETO
 10
6.3482426686543931
 20
-101.2765138876499
 30
60.299999999999997
 11
94.748242668654385
 21
-101.2765138876499
 31
60.299999999999997
 12
94.748242668654385
 22
-101.2765138876499
 32
54.200000000000003
 13
6.3482426686543931
 23
-101.2765138876499
 33
54.200000000000003
  0
3DFACE
  5
A7
  8
PRETO
 10
6.3482426686543931
 20
-107.27651388765
 30
60.299999999999997
 11
94.748242668654385
 21
-107.27651388765
 31
60.299999999999997
 12
94.748242668654385
 22
-107.27651388765
 32
54.200000000000003
 13
6.3482426686543931
 23
-107.27651388765
 33
54.200000000000003
  0
3DFACE
  5
A8
  8
PRETO
 10
92.859999999999985
 20
-25.800000000000001
 30
40.36999999999999
 11
8.3399999999999999
 21
-25.800000000000001
 31
40.36999999999999
 12
9.6300000000000008
 22
-25.800000000000001
 32
31.199999999999999
 13
91.569999999999993
 23
-25.800000000000001
 33
31.199999999999999
  0
3DFACE
  5
A9
  8
PRETO
 10
92.859999999999985
 20
-31.800000000000001
 30
40.36999999999999
 11
8.3399999999999999
 21
-31.800000000000001
 31
40.36999999999999
 12
9.6300000000000008
 22
-31.800000000000001
 32
31.199999999999999
 13
91.569999999999993
 23
-31.800000000000001
 33
31.199999999999999
  0
3DFACE
  5
AA
  8
PRETO
 10
103.0
 20
0.0
 30
60.0
 11
103.0
 21
0.0
 31
0.0
 12
22.440000000000001
 22
-1.0
 32
0.0
 13
8.9399990000000003
 23
-1.0
 33
13.5
  0
3DFACE
  5
AB
  8
PRETO
 10
103.0
 20
-5.0
 30
60.0
 11
103.0
 21
-5.0
 31
0.0
 12
22.440000000000001
 22
-6.0
 32
0.0
 13
8.9399990000000003
 23
-6.0
 33
13.5
  0
3DFACE
  5
AC
  8
PRETO
 10
6.4000000000000004
 20
-25.800000000000001
 30
54.200000000000003
 11
94.799999999999997
 21
-25.800000000000001
 31
54.200000000000003
 12
92.859999999999985
 22
-25.800000000000001
 32
40.36999999999999
 13
8.3399999999999999
 23
-25.800000000000001
 33
40.36999999999999
  0
3DFACE
  5
AD
  8
PRETO
 10
6.4000000000000004
 20
-31.800000000000001
 30
54.200000000000003
 11
94.799999999999997
 21
-31.800000000000001
 31
54.200000000000003
 12
92.859999999999985
 22
-31.800000000000001
 32
40.36999999999999
 13
8.3399999999999999
 23
-31.800000000000001
 33
40.36999999999999
  0
3DFACE
  5
AE
  8
PRETO
 10
94.799999999999997
 20
-25.800000000000001
 30
60.299999999999997
 11
6.4000000000000004
 21
-25.800000000000001
 31
60.299999999999997
 12
6.4000000000000004
 22
-25.800000000000001
 32
54.200000000000003
 13
94.799999999999997
 23
-25.800000000000001
 33
54.200000000000003
  0
3DFACE
  5
AF
  8
PRETO
 10
94.799999999999997
 20
-31.800000000000001
 30
60.299999999999997
 11
6.4000000000000004
 21
-31.800000000000001
 31
60.299999999999997
 12
6.4000000000000004
 22
-31.800000000000001
 32
54.200000000000003
 13
94.799999999999997
 23
-31.800000000000001
 33
54.200000000000003
  0
3DFACE
  5
B0
  8
PRETO
 10
472.74000000000001
 20
-319.0928002530253
 30
40.36999999999999
 11
557.25999999999999
 21
-319.0928002530253
 31
40.36999999999999
 12
555.97000000000003
 22
-319.0928002530253
 32
31.199999999999999
 13
474.02999999999992
 23
-319.0928002530253
 33
31.199999999999999
  0
3DFACE
  5
B1
  8
PRETO
 10
472.74000000000001
 20
-325.0928002530253
 30
40.36999999999999
 11
557.25999999999999
 21
-325.0928002530253
 31
40.36999999999999
 12
555.97000000000003
 22
-325.0928002530253
 32
31.199999999999999
 13
474.02999999999992
 23
-325.0928002530253
 33
31.199999999999999
  0
3DFACE
  5
B2
  8
PRETO
 10
384.33999999999997
 20
-319.0928002530253
 30
40.36999999999999
 11
468.86000000000001
 21
-319.0928002530253
 31
40.36999999999999
 12
467.56999999999988
 22
-319.0928002530253
 32
31.199999999999999
 13
385.63
 23
-319.0928002530253
 33
31.199999999999999
  0
3DFACE
  5
B3
  8
PRETO
 10
384.33999999999997
 20
-325.0928002530253
 30
40.36999999999999
 11
468.86000000000001
 21
-325.0928002530253
 31
40.36999999999999
 12
467.56999999999988
 22
-325.0928002530253
 32
31.199999999999999
 13
385.63
 23
-325.0928002530253
 33
31.199999999999999
  0
3DFACE
  5
B9
  8
PRETO
 10
559.0
 20
-327.54000000000002
 30
40.36999999999999
 11
559.0
 21
-412.06
 31
40.36999999999999
 12
559.0
 22
-410.76999999999992
 32
31.199999999999999
 13
559.0
 23
-328.82999999999998
 33
31.199999999999999
  0
3DFACE
  5
BB
  8
PRETO
 10
559.0
 20
-323.66000000000003
 30
40.36999999999999
 11
559.0
 21
-239.13999999999999
 31
40.36999999999999
 12
559.0
 22
-240.43000000000001
 32
31.199999999999999
 13
559.0
 23
-322.37
 33
31.199999999999999
  0
3DFACE
  5
BC
  8
PRETO
 10
470.80000000000001
 20
-319.0928002530253
 30
54.200000000000003
 11
382.39999999999998
 21
-319.0928002530253
 31
54.200000000000003
 12
384.33999999999997
 22
-319.0928002530253
 32
40.36999999999999
 13
468.86000000000001
 23
-319.0928002530253
 33
40.36999999999999
  0
3DFACE
  5
BD
  8
PRETO
 10
470.80000000000001
 20
-325.0928002530253
 30
54.200000000000003
 11
382.39999999999998
 21
-325.0928002530253
 31
54.200000000000003
 12
384.33999999999997
 22
-325.0928002530253
 32
40.36999999999999
 13
468.86000000000001
 23
-325.0928002530253
 33
40.36999999999999
  0
3DFACE
  5
BE
  8
PRETO
 10
382.39999999999998
 20
-319.0928002530253
 30
60.299999999999997
 11
470.80000000000001
 21
-319.0928002530253
 31
60.299999999999997
 12
470.80000000000001
 22
-319.0928002530253
 32
54.200000000000003
 13
382.39999999999998
 23
-319.0928002530253
 33
54.200000000000003
  0
3DFACE
  5
BF
  8
PRETO
 10
382.39999999999998
 20
-325.0928002530253
 30
60.299999999999997
 11
470.80000000000001
 21
-325.0928002530253
 31
60.299999999999997
 12
470.80000000000001
 22
-325.0928002530253
 32
54.200000000000003
 13
382.39999999999998
 23
-325.0928002530253
 33
54.200000000000003
  0
3DFACE
  5
C9
  8
PRETO
 10
559.0
 20
-325.60000000000002
 30
60.299999999999997
 11
559.0
 21
-237.19999999999999
 31
60.299999999999997
 12
559.0
 22
-237.19999999999999
 32
54.200000000000003
 13
559.0
 23
-325.60000000000002
 33
54.200000000000003
  0
3DFACE
  5
CB
  8
PRETO
 10
559.0
 20
-237.19999999999999
 30
54.200000000000003
 11
559.0
 21
-325.60000000000002
 31
54.200000000000003
 12
559.0
 22
-323.66000000000003
 32
40.36999999999999
 13
559.0
 23
-239.13999999999999
 33
40.36999999999999
  0
3DFACE
  5
CD
  8
PRETO
 10
559.0
 20
-414.0
 30
54.200000000000003
 11
559.0
 21
-325.60000000000002
 31
54.200000000000003
 12
559.0
 22
-327.54000000000002
 32
40.36999999999999
 13
559.0
 23
-412.06
 33
40.36999999999999
  0
3DFACE
  5
CF
  8
PRETO
 10
559.0
 20
-325.60000000000002
 30
60.299999999999997
 11
559.0
 21
-414.0
 31
60.299999999999997
 12
559.0
 22
-414.0
 32
54.200000000000003
 13
559.0
 23
-325.60000000000002
 33
54.200000000000003
  0
3DFACE
  5
D0
  8
PRETO
 10
559.20000000000005
 20
-319.0928002530253
 30
54.200000000000003
 11
470.80000000000001
 21
-319.0928002530253
 31
54.200000000000003
 12
472.74000000000001
 22
-319.0928002530253
 32
40.36999999999999
 13
557.25999999999999
 23
-319.0928002530253
 33
40.36999999999999
  0
3DFACE
  5
D1
  8
PRETO
 10
559.20000000000005
 20
-325.0928002530253
 30
54.200000000000003
 11
470.80000000000001
 21
-325.0928002530253
 31
54.200000000000003
 12
472.74000000000001
 22
-325.0928002530253
 32
40.36999999999999
 13
557.25999999999999
 23
-325.0928002530253
 33
40.36999999999999
  0
3DFACE
  5
D2
  8
PRETO
 10
470.80000000000001
 20
-319.0928002530253
 30
60.299999999999997
 11
559.20000000000005
 21
-319.0928002530253
 31
60.299999999999997
 12
559.20000000000005
 22
-319.0928002530253
 32
54.200000000000003
 13
470.80000000000001
 23
-319.0928002530253
 33
54.200000000000003
  0
3DFACE
  5
D3
  8
PRETO
 10
470.80000000000001
 20
-325.0928002530253
 30
60.299999999999997
 11
559.20000000000005
 21
-325.0928002530253
 31
60.299999999999997
 12
559.20000000000005
 22
-325.0928002530253
 32
54.200000000000003
 13
470.80000000000001
 23
-325.0928002530253
 33
54.200000000000003
  0
3DFACE
  5
D4
  8
PRETO
 10
472.74000000000001
 20
-26.800000000000001
 30
40.36999999999999
 11
557.25999999999999
 21
-26.800000000000001
 31
40.36999999999999
 12
555.97000000000003
 22
-26.800000000000001
 32
31.199999999999999
 13
474.02999999999992
 23
-26.800000000000001
 33
31.199999999999999
  0
3DFACE
  5
D5
  8
PRETO
 10
472.74000000000001
 20
-120.49280025302529
 30
40.36999999999999
 11
557.25999999999999
 21
-120.49280025302529
 31
40.36999999999999
 12
555.97000000000003
 22
-120.49280025302529
 32
31.199999999999999
 13
474.02999999999992
 23
-120.49280025302529
 33
31.199999999999999
  0
3DFACE
  5
D6
  8
PRETO
 10
384.33999999999997
 20
-26.800000000000001
 30
40.36999999999999
 11
468.86000000000001
 21
-26.800000000000001
 31
40.36999999999999
 12
467.56999999999988
 22
-26.800000000000001
 32
31.199999999999999
 13
385.63
 23
-26.800000000000001
 33
31.199999999999999
  0
3DFACE
  5
D7
  8
PRETO
 10
384.33999999999997
 20
-120.49280025302529
 30
40.36999999999999
 11
468.86000000000001
 21
-120.49280025302529
 31
40.36999999999999
 12
467.56999999999988
 22
-120.49280025302529
 32
31.199999999999999
 13
385.63
 23
-120.49280025302529
 33
31.199999999999999
  0
3DFACE
  5
D8
  8
PRETO
 10
470.80000000000001
 20
-26.800000000000001
 30
54.200000000000003
 11
382.39999999999998
 21
-26.800000000000001
 31
54.200000000000003
 12
384.33999999999997
 22
-26.800000000000001
 32
40.36999999999999
 13
468.86000000000001
 23
-26.800000000000001
 33
40.36999999999999
  0
3DFACE
  5
D9
  8
PRETO
 10
470.80000000000001
 20
-120.49280025302529
 30
54.200000000000003
 11
382.39999999999998
 21
-120.49280025302529
 31
54.200000000000003
 12
384.33999999999997
 22
-120.49280025302529
 32
40.36999999999999
 13
468.86000000000001
 23
-120.49280025302529
 33
40.36999999999999
  0
3DFACE
  5
DA
  8
PRETO
 10
382.39999999999998
 20
-26.800000000000001
 30
60.299999999999997
 11
470.80000000000001
 21
-26.800000000000001
 31
60.299999999999997
 12
470.80000000000001
 22
-26.800000000000001
 32
54.200000000000003
 13
382.39999999999998
 23
-26.800000000000001
 33
54.200000000000003
  0
3DFACE
  5
DB
  8
PRETO
 10
382.39999999999998
 20
-120.49280025302529
 30
60.299999999999997
 11
470.80000000000001
 21
-120.49280025302529
 31
60.299999999999997
 12
470.80000000000001
 22
-120.49280025302529
 32
54.200000000000003
 13
382.39999999999998
 23
-120.49280025302529
 33
54.200000000000003
  0
3DFACE
  5
DC
  8
PRETO
 10
559.20000000000005
 20
-26.800000000000001
 30
54.200000000000003
 11
470.80000000000001
 21
-26.800000000000001
 31
54.200000000000003
 12
472.74000000000001
 22
-26.800000000000001
 32
40.36999999999999
 13
557.25999999999999
 23
-26.800000000000001
 33
40.36999999999999
  0
3DFACE
  5
DD
  8
PRETO
 10
559.20000000000005
 20
-120.49280025302529
 30
54.200000000000003
 11
470.80000000000001
 21
-120.49280025302529
 31
54.200000000000003
 12
472.74000000000001
 22
-120.49280025302529
 32
40.36999999999999
 13
557.25999999999999
 23
-120.49280025302529
 33
40.36999999999999
  0
3DFACE
  5
DE
  8
PRETO
 10
470.80000000000001
 20
-26.800000000000001
 30
60.299999999999997
 11
559.20000000000005
 21
-26.800000000000001
 31
60.299999999999997
 12
559.20000000000005
 22
-26.800000000000001
 32
54.200000000000003
 13
470.80000000000001
 23
-26.800000000000001
 33
54.200000000000003
  0
3DFACE
  5
DF
  8
PRETO
 10
470.80000000000001
 20
-120.49280025302529
 30
60.299999999999997
 11
559.20000000000005
 21
-120.49280025302529
 31
60.299999999999997
 12
559.20000000000005
 22
-120.49280025302529
 32
54.200000000000003
 13
470.80000000000001
 23
-120.49280025302529
 33
54.200000000000003
  0
POLYLINE
  5
E0
  8
PRETO
 66
     1
 10
0.0
 20
0.0
 30
0.0
 70
    16
 71
     2
 72
    14
  0
VERTEX
  5
E1
  8
PRETO
 10
309.14999999999998
 20
-26.0
 30
41.5
 70
    64
  0
VERTEX
  5
E2
  8
PRETO
 10
294.0
 20
-26.0
 30
41.5
 70
    64
  0
VERTEX
  5
E3
  8
PRETO
 10
294.0
 20
-26.0
 30
60.299999999999997
 70
    64
  0
VERTEX
  5
E4
  8
PRETO
 10
559.20000000000005
 20
-26.0
 30
60.299999999999997
 70
    64
  0
VERTEX
  5
E5
  8
PRETO
 10
559.20000000000005
 20
-26.0
 30
41.5
 70
    64
  0
VERTEX
  5
E6
  8
PRETO
 10
544.04999999999995
 20
-26.0
 30
41.5
 70
    64
  0
VERTEX
  5
E7
  8
PRETO
 10
543.75999999999988
 20
-26.0
 30
0.0
 70
    64
  0
VERTEX
  5
E8
  8
PRETO
 10
537.35990000000004
 20
-26.0
 30
0.0
 70
    64
  0
VERTEX
  5
E9
  8
PRETO
 10
526.24000000000001
 20
-26.0
 30
41.5
 70
    64
  0
VERTEX
  5
EA
  8
PRETO
 10
326.95999999999998
 20
-26.0
 30
41.5
 70
    64
  0
VERTEX
  5
EB
  8
PRETO
 10
315.83999999999997
 20
-26.0
 30
0.0
 70
    64
  0
VERTEX
  5
EC
  8
PRETO
 10
309.44
 20
-26.0
 30
0.0
 70
    64
  0
VERTEX
  5
ED
  8
PRETO
 10
309.14999999999998
 20
-26.0
 30
41.5
 70
    64
  0
VERTEX
  5
EE
  8
PRETO
 10
294.0
 20
-26.0
 30
41.5
 70
    64
  0
VERTEX
  5
EF
  8
PRETO
 10
309.14999999999998
 20
-6.0
 30
41.5
 70
    64
  0
VERTEX
  5
F0
  8
PRETO
 10
294.0
 20
-6.0
 30
41.5
 70
    64
  0
VERTEX
  5
F1
  8
PRETO
 10
294.0
 20
-6.0
 30
60.299999999999997
 70
    64
  0
VERTEX
  5
F2
  8
PRETO
 10
559.20000000000005
 20
-6.0
 30
60.299999999999997
 70
    64
  0
VERTEX
  5
F3
  8
PRETO
 10
559.20000000000005
 20
-6.0
 30
41.5
 70
    64
  0
VERTEX
  5
F4
  8
PRETO
 10
544.04999999999995
 20
-6.0
 30
41.5
 70
    64
  0
VERTEX
  5
F5
  8
PRETO
 10
543.75999999999988
 20
-6.0
 30
0.0
 70
    64
  0
VERTEX
  5
F6
  8
PRETO
 10
537.35990000000004
 20
-6.0
 30
0.0
 70
    64
  0
VERTEX
  5
F7
  8
PRETO
 10
526.24000000000001
 20
-6.0
 30
41.5
 70
    64
  0
VERTEX
  5
F8
  8
PRETO
 10
326.95999999999998
 20
-6.0
 30
41.5
 70
    64
  0
VERTEX
  5
F9
  8
PRETO
 10
315.83999999999997
 20
-6.0
 30
0.0
 70
    64
  0
VERTEX
  5
FA
  8
PRETO
 10
309.44
 20
-6.0
 30
0.0
 70
    64
  0
VERTEX
  5
FB
  8
PRETO
 10
309.14999999999998
 20
-6.0
 30
41.5
 70
    64
  0
VERTEX
  5
FC
  8
PRETO
 10
294.0
 20
-6.0
 30
41.5
 70
    64
  0
SEQEND
  5
FD
  8
PRETO
  0
POLYLINE
  5
FE
  8
PRETO
 66
     1
 10
0.0
 20
0.0
 30
0.0
 70
    16
 71
     2
 72
     9
  0
VERTEX
  5
FF
  8
PRETO
 10
556.85990000000004
 20
-6.0
 30
13.5
 70
    64
  0
VERTEX
  5
100
  8
PRETO
 10
565.79999999999995
 20
-6.0
 30
64.200000000000003
 70
    64
  0
VERTEX
  5
101
  8
PRETO
 10
290.0
 20
-6.0
 30
64.200000000000003
 70
    64
  0
VERTEX
  5
102
  8
PRETO
 10
287.89999999999998
 20
-6.0
 30
63.640000000000001
 70
    64
  0
VERTEX
  5
103
  8
PRETO
 10
286.36000000000001
 20
-6.0
 30
62.100000000000001
 70
    64
  0
VERTEX
  5
104
  8
PRETO
 10
285.80000000000001
 20
-6.0
 30
60.0
 70
    64
  0
VERTEX
  5
105
  8
PRETO
 10
285.80000000000001
 20
-6.0
 30
0.0
 70
    64
  0
VERTEX
  5
106
  8
PRETO
 10
543.35990000000004
 20
-6.0
 30
0.0
 70
    64
  0
VERTEX
  5
107
  8
PRETO
 10
556.85990000000004
 20
-6.0
 30
13.5
 70
    64
  0
VERTEX
  5
108
  8
PRETO
 10
556.85990000000004
 20
-1.0
 30
13.5
 70
    64
  0
VERTEX
  5
109
  8
PRETO
 10
565.79999999999995
 20
-1.0
 30
64.200000000000003
 70
    64
  0
VERTEX
  5
10A
  8
PRETO
 10
290.0
 20
-1.0
 30
64.200000000000003
 70
    64
  0
VERTEX
  5
10B
  8
PRETO
 10
287.89999999999998
 20
-1.0
 30
63.640000000000001
 70
    64
  0
VERTEX
  5
10C
  8
PRETO
 10
286.36000000000001
 20
-1.0
 30
62.100000000000001
 70
    64
  0
VERTEX
  5
10D
  8
PRETO
 10
285.80000000000001
 20
-1.0
 30
60.0
 70
    64
  0
VERTEX
  5
10E
  8
PRETO
 10
285.80000000000001
 20
-1.0
 30
0.0
 70
    64
  0
VERTEX
  5
10F
  8
PRETO
 10
543.35990000000004
 20
-1.0
 30
0.0
 70
    64
  0
VERTEX
  5
110
  8
PRETO
 10
556.85990000000004
 20
-1.0
 30
13.5
 70
    64
  0
SEQEND
  5
111
  8
PRETO
  0
POLYLINE
  5
112
  8
PRETO
 66
     1
 10
0.0
 20
0.0
 30
0.0
 70
    16
 71
     2
 72
     4
  0
VERTEX
  5
113
  8
PRETO
 10
290.0
 20
-1.0
 30
64.200000000000003
 70
    64
  0
VERTEX
  5
114
  8
PRETO
 10
287.89999999999998
 20
-1.0
 30
63.640000000000001
 70
    64
  0
VERTEX
  5
115
  8
PRETO
 10
286.36000000000001
 20
-1.0
 30
62.100000000000001
 70
    64
  0
VERTEX
  5
116
  8
PRETO
 10
285.80000000000001
 20
-1.0
 30
60.0
 70
    64
  0
VERTEX
  5
117
  8
PRETO
 10
565.79999999999995
 20
-1.0
 30
64.200000000000003
 70
    64
  0
VERTEX
  5
118
  8
PRETO
 10
562.81989999999985
 20
-1.0
 30
47.29999999999999
 70
    64
  0
VERTEX
  5
119
  8
PRETO
 10
559.84000000000003
 20
-1.0
 30
30.399999999999999
 70
    64
  0
VERTEX
  5
11A
  8
PRETO
 10
556.85990000000004
 20
-1.0
 30
13.5
 70
    64
  0
SEQEND
  5
11B
  8
PRETO
  0
POLYLINE
  5
11C
  8
PRETO
 66
     1
 10
0.0
 20
0.0
 30
0.0
 70
    16
 71
     2
 72
     4
  0
VERTEX
  5
11D
  8
PRETO
 10
290.0
 20
-6.0
 30
64.200000000000003
 70
    64
  0
VERTEX
  5
11E
  8
PRETO
 10
287.89999999999998
 20
-6.0
 30
63.640000000000001
 70
    64
  0
VERTEX
  5
11F
  8
PRETO
 10
286.36000000000001
 20
-6.0
 30
62.100000000000001
 70
    64
  0
VERTEX
  5
120
  8
PRETO
 10
285.80000000000001
 20
-6.0
 30
60.0
 70
    64
  0
VERTEX
  5
121
  8
PRETO
 10
565.79999999999995
 20
-6.0
 30
64.200000000000003
 70
    64
  0
VERTEX
  5
122
  8
PRETO
 10
562.81989999999985
 20
-6.0
 30
47.29999999999999
 70
    64
  0
VERTEX
  5
123
  8
PRETO
 10
559.84000000000003
 20
-6.0
 30
30.399999999999999
 70
    64
  0
VERTEX
  5
124
  8
PRETO
 10
556.85990000000004
 20
-6.0
 30
13.5
 70
    64
  0
SEQEND
  5
125
  8
PRETO
  0
POLYLINE
  5
126
  8
PRETO
 66
     1
 10
0.0
 20
0.0
 30
0.0
 70
    16
 71
     2
 72
     4
  0
VERTEX
  5
127
  8
PRETO
 10
290.0
 20
-419.0
 30
64.200000000000003
 70
    64
  0
VERTEX
  5
128
  8
PRETO
 10
287.89999999999998
 20
-419.0
 30
63.640000000000001
 70
    64
  0
VERTEX
  5
129
  8
PRETO
 10
286.36000000000001
 20
-419.0
 30
62.100000000000001
 70
    64
  0
VERTEX
  5
12A
  8
PRETO
 10
285.80000000000001
 20
-419.0
 30
60.0
 70
    64
  0
VERTEX
  5
12B
  8
PRETO
 10
565.79999999999995
 20
-419.0
 30
64.200000000000003
 70
    64
  0
VERTEX
  5
12C
  8
PRETO
 10
562.81989999999985
 20
-419.0
 30
47.29999999999999
 70
    64
  0
VERTEX
  5
12D
  8
PRETO
 10
559.84000000000003
 20
-419.0
 30
30.399999999999999
 70
    64
  0
VERTEX
  5
12E
  8
PRETO
 10
556.85990000000004
 20
-419.0
 30
13.5
 70
    64
  0
SEQEND
  5
12F
  8
PRETO
  0
POLYLINE
  5
130
  8
PRETO
 66
     1
 10
0.0
 20
0.0
 30
0.0
 70
    16
 71
     2
 72
     4
  0
VERTEX
  5
131
  8
PRETO
 10
290.0
 20
-414.0
 30
64.200000000000003
 70
    64
  0
VERTEX
  5
132
  8
PRETO
 10
287.89999999999998
 20
-414.0
 30
63.640000000000001
 70
    64
  0
VERTEX
  5
133
  8
PRETO
 10
286.36000000000001
 20
-414.0
 30
62.100000000000001
 70
    64
  0
VERTEX
  5
134
  8
PRETO
 10
285.80000000000001
 20
-414.0
 30
60.0
 70
    64
  0
VERTEX
  5
135
  8
PRETO
 10
565.79999999999995
 20
-414.0
 30
64.200000000000003
 70
    64
  0
VERTEX
  5
136
  8
PRETO
 10
562.81989999999985
 20
-414.0
 30
47.29999999999999
 70
    64
  0
VERTEX
  5
137
  8
PRETO
 10
559.84000000000003
 20
-414.0
 30
30.399999999999999
 70
    64
  0
VERTEX
  5
138
  8
PRETO
 10
556.85990000000004
 20
-414.0
 30
13.5
 70
    64
  0
SEQEND
  5
139
  8
PRETO
  0
POLYLINE
  5
13A
  8
PRETO
 66
     1
 10
0.0
 20
0.0
 30
0.0
 70
    16
 71
     2
 72
     9
  0
VERTEX
  5
13B
  8
PRETO
 10
556.85990000000004
 20
-414.0
 30
13.5
 70
    64
  0
VERTEX
  5
13C
  8
PRETO
 10
565.79999999999995
 20
-414.0
 30
64.200000000000003
 70
    64
  0
VERTEX
  5
13D
  8
PRETO
 10
290.0
 20
-414.0
 30
64.200000000000003
 70
    64
  0
VERTEX
  5
13E
  8
PRETO
 10
287.89999999999998
 20
-414.0
 30
63.640000000000001
 70
    64
  0
VERTEX
  5
13F
  8
PRETO
 10
286.36000000000001
 20
-414.0
 30
62.100000000000001
 70
    64
  0
VERTEX
  5
140
  8
PRETO
 10
285.80000000000001
 20
-414.0
 30
60.0
 70
    64
  0
VERTEX
  5
141
  8
PRETO
 10
285.80000000000001
 20
-414.0
 30
0.0
 70
    64
  0
VERTEX
  5
142
  8
PRETO
 10
543.35990000000004
 20
-414.0
 30
0.0
 70
    64
  0
VERTEX
  5
143
  8
PRETO
 10
556.85990000000004
 20
-414.0
 30
13.5
 70
    64
  0
VERTEX
  5
144
  8
PRETO
 10
556.85990000000004
 20
-419.0
 30
13.5
 70
    64
  0
VERTEX
  5
145
  8
PRETO
 10
565.79999999999995
 20
-419.0
 30
64.200000000000003
 70
    64
  0
VERTEX
  5
146
  8
PRETO
 10
290.0
 20
-419.0
 30
64.200000000000003
 70
    64
  0
VERTEX
  5
147
  8
PRETO
 10
287.89999999999998
 20
-419.0
 30
63.640000000000001
 70
    64
  0
VERTEX
  5
148
  8
PRETO
 10
286.36000000000001
 20
-419.0
 30
62.100000000000001
 70
    64
  0
VERTEX
  5
149
  8
PRETO
 10
285.80000000000001
 20
-419.0
 30
60.0
 70
    64
  0
VERTEX
  5
14A
  8
PRETO
 10
285.80000000000001
 20
-419.0
 30
0.0
 70
    64
  0
VERTEX
  5
14B
  8
PRETO
 10
543.35990000000004
 20
-419.0
 30
0.0
 70
    64
  0
VERTEX
  5
14C
  8
PRETO
 10
556.85990000000004
 20
-419.0
 30
13.5
 70
    64
  0
SEQEND
  5
14D
  8
PRETO
  0
POLYLINE
  5
14E
  8
PRETO
 66
     1
 10
0.0
 20
0.0
 30
0.0
 70
    16
 71
     2
 72
    15
  0
VERTEX
  5
14F
  8
PRETO
 10
294.0
 20
-325.0928002530253
 30
60.299999999999997
 70
    64
  0
VERTEX
  5
150
  8
PRETO
 10
294.0
 20
-325.0928002530253
 30
54.200000000000003
 70
    64
  0
VERTEX
  5
151
  8
PRETO
 10
295.94
 20
-325.0928002530253
 30
40.36999999999999
 70
    64
  0
VERTEX
  5
152
  8
PRETO
 10
297.23000000000002
 20
-325.0928002530253
 30
31.199999999999999
 70
    64
  0
VERTEX
  5
153
  8
PRETO
 10
299.50999999999999
 20
-325.0928002530253
 30
23.710000000000001
 70
    64
  0
VERTEX
  5
154
  8
PRETO
 10
303.97000000000003
 20
-325.0928002530253
 30
17.280000000000001
 70
    64
  0
VERTEX
  5
155
  8
PRETO
 10
310.19999999999999
 20
-325.0928002530253
 30
12.539999999999999
 70
    64
  0
VERTEX
  5
156
  8
PRETO
 10
366.19999999999999
 20
-325.0928002530253
 30
12.539999999999999
 70
    64
  0
VERTEX
  5
157
  8
PRETO
 10
372.43000000000001
 20
-325.0928002530253
 30
17.280000000000001
 70
    64
  0
VERTEX
  5
158
  8
PRETO
 10
376.88999999999999
 20
-325.0928002530253
 30
23.710000000000001
 70
    64
  0
VERTEX
  5
159
  8
PRETO
 10
379.17000000000002
 20
-325.0928002530253
 30
31.199999999999999
 70
    64
  0
VERTEX
  5
15A
  8
PRETO
 10
380.45999999999998
 20
-325.0928002530253
 30
40.36999999999999
 70
    64
  0
VERTEX
  5
15B
  8
PRETO
 10
382.39999999999998
 20
-325.0928002530253
 30
54.200000000000003
 70
    64
  0
VERTEX
  5
15C
  8
PRETO
 10
382.39999999999998
 20
-325.0928002530253
 30
60.299999999999997
 70
    64
  0
VERTEX
  5
15D
  8
PRETO
 10
294.0
 20
-325.0928002530253
 30
60.299999999999997
 70
    64
  0
VERTEX
  5
15E
  8
PRETO
 10
294.0
 20
-319.0928002530253
 30
60.299999999999997
 70
    64
  0
VERTEX
  5
15F
  8
PRETO
 10
294.0
 20
-319.0928002530253
 30
54.200000000000003
 70
    64
  0
VERTEX
  5
160
  8
PRETO
 10
295.94
 20
-319.0928002530253
 30
40.36999999999999
 70
    64
  0
VERTEX
  5
161
  8
PRETO
 10
297.23000000000002
 20
-319.0928002530253
 30
31.199999999999999
 70
    64
  0
VERTEX
  5
162
  8
PRETO
 10
299.50999999999999
 20
-319.0928002530253
 30
23.710000000000001
 70
    64
  0
VERTEX
  5
163
  8
PRETO
 10
303.97000000000003
 20
-319.0928002530253
 30
17.280000000000001
 70
    64
  0
VERTEX
  5
164
  8
PRETO
 10
310.19999999999999
 20
-319.0928002530253
 30
12.539999999999999
 70
    64
  0
VERTEX
  5
165
  8
PRETO
 10
366.19999999999999
 20
-319.0928002530253
 30
12.539999999999999
 70
    64
  0
VERTEX
  5
166
  8
PRETO
 10
372.43000000000001
 20
-319.0928002530253
 30
17.280000000000001
 70
    64
  0
VERTEX
  5
167
  8
PRETO
 10
376.88999999999999
 20
-319.0928002530253
 30
23.710000000000001
 70
    64
  0
VERTEX
  5
168
  8
PRETO
 10
379.17000000000002
 20
-319.0928002530253
 30
31.199999999999999
 70
    64
  0
VERTEX
  5
169
  8
PRETO
 10
380.45999999999998
 20
-319.0928002530253
 30
40.36999999999999
 70
    64
  0
VERTEX
  5
16A
  8
PRETO
 10
382.39999999999998
 20
-319.0928002530253
 30
54.200000000000003
 70
    64
  0
VERTEX
  5
16B
  8
PRETO
 10
382.39999999999998
 20
-319.0928002530253
 30
60.299999999999997
 70
    64
  0
VERTEX
  5
16C
  8
PRETO
 10
294.0
 20
-319.0928002530253
 30
60.299999999999997
 70
    64
  0
SEQEND
  5
16D
  8
PRETO
  0
POLYLINE
  5
1AE
  8
PRETO
 66
     1
 10
0.0
 20
0.0
 30
0.0
 70
    16
 71
     2
 72
     4
  0
VERTEX
  5
1AF
  8
PRETO
 10
297.23000000000002
 20
-319.0928002530253
 30
31.199999999999999
 70
    64
  0
VERTEX
  5
1B0
  8
PRETO
 10
299.50999999999999
 20
-319.0928002530253
 30
23.710000000000001
 70
    64
  0
VERTEX
  5
1B1
  8
PRETO
 10
303.97000000000003
 20
-319.0928002530253
 30
17.280000000000001
 70
    64
  0
VERTEX
  5
1B2
  8
PRETO
 10
310.19999999999999
 20
-319.0928002530253
 30
12.539999999999999
 70
    64
  0
VERTEX
  5
1B3
  8
PRETO
 10
379.17000000000002
 20
-319.0928002530253
 30
31.199999999999999
 70
    64
  0
VERTEX
  5
1B4
  8
PRETO
 10
376.88999999999999
 20
-319.0928002530253
 30
23.710000000000001
 70
    64
  0
VERTEX
  5
1B5
  8
PRETO
 10
372.43000000000001
 20
-319.0928002530253
 30
17.280000000000001
 70
    64
  0
VERTEX
  5
1B6
  8
PRETO
 10
366.19999999999999
 20
-319.0928002530253
 30
12.539999999999999
 70
    64
  0
SEQEND
  5
1B7
  8
PRETO
  0
POLYLINE
  5
1B8
  8
PRETO
 66
     1
 10
0.0
 20
0.0
 30
0.0
 70
    16
 71
     2
 72
     4
  0
VERTEX
  5
1B9
  8
PRETO
 10
297.23000000000002
 20
-325.0928002530253
 30
31.199999999999999
 70
    64
  0
VERTEX
  5
1BA
  8
PRETO
 10
299.50999999999999
 20
-325.0928002530253
 30
23.710000000000001
 70
    64
  0
VERTEX
  5
1BB
  8
PRETO
 10
303.97000000000003
 20
-325.0928002530253
 30
17.280000000000001
 70
    64
  0
VERTEX
  5
1BC
  8
PRETO
 10
310.19999999999999
 20
-325.0928002530253
 30
12.539999999999999
 70
    64
  0
VERTEX
  5
1BD
  8
PRETO
 10
379.17000000000002
 20
-325.0928002530253
 30
31.199999999999999
 70
    64
  0
VERTEX
  5
1BE
  8
PRETO
 10
376.88999999999999
 20
-325.0928002530253
 30
23.710000000000001
 70
    64
  0
VERTEX
  5
1BF
  8
PRETO
 10
372.43000000000001
 20
-325.0928002530253
 30
17.280000000000001
 70
    64
  0
VERTEX
  5
1C0
  8
PRETO
 10
366.19999999999999
 20
-325.0928002530253
 30
12.539999999999999
 70
    64
  0
SEQEND
  5
1C1
  8
PRETO
  0
POLYLINE
  5
1CC
  8
PRETO
 66
     1
 10
0.0
 20
0.0
 30
0.0
 70
    16
 71
     2
 72
     4
  0
VERTEX
  5
1CD
  8
PRETO
 10
297.23000000000002
 20
-325.0928002530253
 30
31.199999999999999
 70
    64
  0
VERTEX
  5
1CE
  8
PRETO
 10
299.50999999999999
 20
-325.0928002530253
 30
23.710000000000001
 70
    64
  0
VERTEX
  5
1CF
  8
PRETO
 10
303.97000000000003
 20
-325.0928002530253
 30
17.280000000000001
 70
    64
  0
VERTEX
  5
1D0
  8
PRETO
 10
310.19999999999999
 20
-325.0928002530253
 30
12.539999999999999
 70
    64
  0
VERTEX
  5
1D1
  8
PRETO
 10
379.17000000000002
 20
-325.0928002530253
 30
31.199999999999999
 70
    64
  0
VERTEX
  5
1D2
  8
PRETO
 10
376.88999999999999
 20
-325.0928002530253
 30
23.710000000000001
 70
    64
  0
VERTEX
  5
1D3
  8
PRETO
 10
372.43000000000001
 20
-325.0928002530253
 30
17.280000000000001
 70
    64
  0
VERTEX
  5
1D4
  8
PRETO
 10
366.19999999999999
 20
-325.0928002530253
 30
12.539999999999999
 70
    64
  0
SEQEND
  5
1D5
  8
PRETO
  0
POLYLINE
  5
1E0
  8
PRETO
 66
     1
 10
0.0
 20
0.0
 30
0.0
 70
    16
 71
     2
 72
     4
  0
VERTEX
  5
1E1
  8
PRETO
 10
297.23000000000002
 20
-414.0
 30
31.199999999999999
 70
    64
  0
VERTEX
  5
1E2
  8
PRETO
 10
299.50999999999999
 20
-414.0
 30
23.710000000000001
 70
    64
  0
VERTEX
  5
1E3
  8
PRETO
 10
303.97000000000003
 20
-414.0
 30
17.280000000000001
 70
    64
  0
VERTEX
  5
1E4
  8
PRETO
 10
310.19999999999999
 20
-414.0
 30
12.539999999999999
 70
    64
  0
VERTEX
  5
1E5
  8
PRETO
 10
379.17000000000002
 20
-414.0
 30
31.199999999999999
 70
    64
  0
VERTEX
  5
1E6
  8
PRETO
 10
376.88999999999999
 20
-414.0
 30
23.710000000000001
 70
    64
  0
VERTEX
  5
1E7
  8
PRETO
 10
372.43000000000001
 20
-414.0
 30
17.280000000000001
 70
    64
  0
VERTEX
  5
1E8
  8
PRETO
 10
366.19999999999999
 20
-414.0
 30
12.539999999999999
 70
    64
  0
SEQEND
  5
1E9
  8
PRETO
  0
POLYLINE
  5
1EA
  8
PRETO
 66
     1
 10
0.0
 20
0.0
 30
0.0
 70
    16
 71
     2
 72
    15
  0
VERTEX
  5
1EB
  8
PRETO
 10
294.0
 20
-114.49280025302529
 30
60.299999999999997
 70
    64
  0
VERTEX
  5
1EC
  8
PRETO
 10
294.0
 20
-114.49280025302529
 30
54.200000000000003
 70
    64
  0
VERTEX
  5
1ED
  8
PRETO
 10
295.94
 20
-114.49280025302529
 30
40.36999999999999
 70
    64
  0
VERTEX
  5
1EE
  8
PRETO
 10
297.23000000000002
 20
-114.49280025302529
 30
31.199999999999999
 70
    64
  0
VERTEX
  5
1EF
  8
PRETO
 10
299.50999999999999
 20
-114.49280025302529
 30
23.710000000000001
 70
    64
  0
VERTEX
  5
1F0
  8
PRETO
 10
303.97000000000003
 20
-114.49280025302529
 30
17.280000000000001
 70
    64
  0
VERTEX
  5
1F1
  8
PRETO
 10
310.19999999999999
 20
-114.49280025302529
 30
12.539999999999999
 70
    64
  0
VERTEX
  5
1F2
  8
PRETO
 10
366.19999999999999
 20
-114.49280025302529
 30
12.539999999999999
 70
    64
  0
VERTEX
  5
1F3
  8
PRETO
 10
372.43000000000001
 20
-114.49280025302529
 30
17.280000000000001
 70
    64
  0
VERTEX
  5
1F4
  8
PRETO
 10
376.88999999999999
 20
-114.49280025302529
 30
23.710000000000001
 70
    64
  0
VERTEX
  5
1F5
  8
PRETO
 10
379.17000000000002
 20
-114.49280025302529
 30
31.199999999999999
 70
    64
  0
VERTEX
  5
1F6
  8
PRETO
 10
380.45999999999998
 20
-114.49280025302529
 30
40.36999999999999
 70
    64
  0
VERTEX
  5
1F7
  8
PRETO
 10
382.39999999999998
 20
-114.49280025302529
 30
54.200000000000003
 70
    64
  0
VERTEX
  5
1F8
  8
PRETO
 10
382.39999999999998
 20
-114.49280025302529
 30
60.299999999999997
 70
    64
  0
VERTEX
  5
1F9
  8
PRETO
 10
294.0
 20
-114.49280025302529
 30
60.299999999999997
 70
    64
  0
VERTEX
  5
1FA
  8
PRETO
 10
294.0
 20
-120.49280025302529
 30
60.299999999999997
 70
    64
  0
VERTEX
  5
1FB
  8
PRETO
 10
294.0
 20
-120.49280025302529
 30
54.200000000000003
 70
    64
  0
VERTEX
  5
1FC
  8
PRETO
 10
295.94
 20
-120.49280025302529
 30
40.36999999999999
 70
    64
  0
VERTEX
  5
1FD
  8
PRETO
 10
297.23000000000002
 20
-120.49280025302529
 30
31.199999999999999
 70
    64
  0
VERTEX
  5
1FE
  8
PRETO
 10
299.50999999999999
 20
-120.49280025302529
 30
23.710000000000001
 70
    64
  0
VERTEX
  5
1FF
  8
PRETO
 10
303.97000000000003
 20
-120.49280025302529
 30
17.280000000000001
 70
    64
  0
VERTEX
  5
200
  8
PRETO
 10
310.19999999999999
 20
-120.49280025302529
 30
12.539999999999999
 70
    64
  0
VERTEX
  5
201
  8
PRETO
 10
366.19999999999999
 20
-120.49280025302529
 30
12.539999999999999
 70
    64
  0
VERTEX
  5
202
  8
PRETO
 10
372.43000000000001
 20
-120.49280025302529
 30
17.280000000000001
 70
    64
  0
VERTEX
  5
203
  8
PRETO
 10
376.88999999999999
 20
-120.49280025302529
 30
23.710000000000001
 70
    64
  0
VERTEX
  5
204
  8
PRETO
 10
379.17000000000002
 20
-120.49280025302529
 30
31.199999999999999
 70
    64
  0
VERTEX
  5
205
  8
PRETO
 10
380.45999999999998
 20
-120.49280025302529
 30
40.36999999999999
 70
    64
  0
VERTEX
  5
206
  8
PRETO
 10
382.39999999999998
 20
-120.49280025302529
 30
54.200000000000003
 70
    64
  0
VERTEX
  5
207
  8
PRETO
 10
382.39999999999998
 20
-120.49280025302529
 30
60.299999999999997
 70
    64
  0
VERTEX
  5
208
  8
PRETO
 10
294.0
 20
-120.49280025302529
 30
60.299999999999997
 70
    64
  0
SEQEND
  5
209
  8
PRETO
  0
POLYLINE
  5
20A
  8
PRETO
 66
     1
 10
0.0
 20
0.0
 30
0.0
 70
    16
 71
     2
 72
     4
  0
VERTEX
  5
20B
  8
PRETO
 10
297.23000000000002
 20
-26.800000000000001
 30
31.199999999999999
 70
    64
  0
VERTEX
  5
20C
  8
PRETO
 10
299.50999999999999
 20
-26.800000000000001
 30
23.710000000000001
 70
    64
  0
VERTEX
  5
20D
  8
PRETO
 10
303.97000000000003
 20
-26.800000000000001
 30
17.280000000000001
 70
    64
  0
VERTEX
  5
20E
  8
PRETO
 10
310.19999999999999
 20
-26.800000000000001
 30
12.539999999999999
 70
    64
  0
VERTEX
  5
20F
  8
PRETO
 10
379.17000000000002
 20
-26.800000000000001
 30
31.199999999999999
 70
    64
  0
VERTEX
  5
210
  8
PRETO
 10
376.88999999999999
 20
-26.800000000000001
 30
23.710000000000001
 70
    64
  0
VERTEX
  5
211
  8
PRETO
 10
372.43000000000001
 20
-26.800000000000001
 30
17.280000000000001
 70
    64
  0
VERTEX
  5
212
  8
PRETO
 10
366.19999999999999
 20
-26.800000000000001
 30
12.539999999999999
 70
    64
  0
SEQEND
  5
213
  8
PRETO
  0
POLYLINE
  5
214
  8
PRETO
 66
     1
 10
0.0
 20
0.0
 30
0.0
 70
    16
 71
     2
 72
     4
  0
VERTEX
  5
215
  8
PRETO
 10
297.23000000000002
 20
-120.49280025302529
 30
31.199999999999999
 70
    64
  0
VERTEX
  5
216
  8
PRETO
 10
299.50999999999999
 20
-120.49280025302529
 30
23.710000000000001
 70
    64
  0
VERTEX
  5
217
  8
PRETO
 10
303.97000000000003
 20
-120.49280025302529
 30
17.280000000000001
 70
    64
  0
VERTEX
  5
218
  8
PRETO
 10
310.19999999999999
 20
-120.49280025302529
 30
12.539999999999999
 70
    64
  0
VERTEX
  5
219
  8
PRETO
 10
379.17000000000002
 20
-120.49280025302529
 30
31.199999999999999
 70
    64
  0
VERTEX
  5
21A
  8
PRETO
 10
376.88999999999999
 20
-120.49280025302529
 30
23.710000000000001
 70
    64
  0
VERTEX
  5
21B
  8
PRETO
 10
372.43000000000001
 20
-120.49280025302529
 30
17.280000000000001
 70
    64
  0
VERTEX
  5
21C
  8
PRETO
 10
366.19999999999999
 20
-120.49280025302529
 30
12.539999999999999
 70
    64
  0
SEQEND
  5
21D
  8
PRETO
  0
POLYLINE
  5
21E
  8
PRETO
 66
     1
 10
0.0
 20
0.0
 30
0.0
 70
    16
 71
     2
 72
     7
  0
VERTEX
  5
21F
  8
PRETO
 10
101.8
 20
-400.0
 30
60.0
 70
    64
  0
VERTEX
  5
220
  8
PRETO
 10
101.8
 20
-400.0
 30
1.0
 70
    64
  0
VERTEX
  5
221
  8
PRETO
 10
95.799999999999997
 20
-400.0
 30
1.0
 70
    64
  0
VERTEX
  5
222
  8
PRETO
 10
95.799999999999997
 20
-400.0
 30
60.0
 70
    64
  0
VERTEX
  5
223
  8
PRETO
 10
97.299999999999997
 20
-400.0
 30
62.600000000000001
 70
    64
  0
VERTEX
  5
224
  8
PRETO
 10
100.3
 20
-400.0
 30
62.600000000000001
 70
    64
  0
VERTEX
  5
225
  8
PRETO
 10
101.8
 20
-400.0
 30
60.0
 70
    64
  0
VERTEX
  5
226
  8
PRETO
 10
101.8
 20
-413.0
 30
60.0
 70
    64
  0
VERTEX
  5
227
  8
PRETO
 10
101.8
 20
-413.0
 30
1.0
 70
    64
  0
VERTEX
  5
228
  8
PRETO
 10
95.799999999999997
 20
-413.0
 30
1.0
 70
    64
  0
VERTEX
  5
229
  8
PRETO
 10
95.799999999999997
 20
-413.0
 30
60.0
 70
    64
  0
VERTEX
  5
22A
  8
PRETO
 10
97.299999999999997
 20
-413.0
 30
62.600000000000001
 70
    64
  0
VERTEX
  5
22B
  8
PRETO
 10
100.3
 20
-413.0
 30
62.600000000000001
 70
    64
  0
VERTEX
  5
22C
  8
PRETO
 10
101.8
 20
-413.0
 30
60.0
 70
    64
  0
SEQEND
  5
22D
  8
PRETO
  0
POLYLINE
  5
22E
  8
PRETO
 66
     1
 10
0.0
 20
0.0
 30
0.0
 70
    16
 71
     2
 72
     4
  0
VERTEX
  5
22F
  8
PRETO
 10
98.799999999999997
 20
-418.0
 30
64.200000000000003
 70
    64
  0
VERTEX
  5
230
  8
PRETO
 10
100.90000000000001
 20
-418.0
 30
63.640000000000001
 70
    64
  0
VERTEX
  5
231
  8
PRETO
 10
102.44
 20
-418.0
 30
62.100000000000001
 70
    64
  0
VERTEX
  5
232
  8
PRETO
 10
103.0
 20
-418.0
 30
60.0
 70
    64
  0
VERTEX
  5
233
  8
PRETO
 10
0.0
 20
-418.0
 30
64.200000000000003
 70
    64
  0
VERTEX
  5
234
  8
PRETO
 10
2.98
 20
-418.0
 30
47.29999999999999
 70
    64
  0
VERTEX
  5
235
  8
PRETO
 10
5.9599999999999991
 20
-418.0
 30
30.399999999999999
 70
    64
  0
VERTEX
  5
236
  8
PRETO
 10
8.9399990000000003
 20
-418.0
 30
13.5
 70
    64
  0
SEQEND
  5
237
  8
PRETO
  0
POLYLINE
  5
238
  8
PRETO
 66
     1
 10
0.0
 20
0.0
 30
0.0
 70
    16
 71
     2
 72
     4
  0
VERTEX
  5
239
  8
PRETO
 10
98.799999999999997
 20
-413.0
 30
64.200000000000003
 70
    64
  0
VERTEX
  5
23A
  8
PRETO
 10
100.90000000000001
 20
-413.0
 30
63.640000000000001
 70
    64
  0
VERTEX
  5
23B
  8
PRETO
 10
102.44
 20
-413.0
 30
62.100000000000001
 70
    64
  0
VERTEX
  5
23C
  8
PRETO
 10
103.0
 20
-413.0
 30
60.0
 70
    64
  0
VERTEX
  5
23D
  8
PRETO
 10
0.0
 20
-413.0
 30
64.200000000000003
 70
    64
  0
VERTEX
  5
23E
  8
PRETO
 10
2.98
 20
-413.0
 30
47.29999999999999
 70
    64
  0
VERTEX
  5
23F
  8
PRETO
 10
5.9599999999999991
 20
-413.0
 30
30.399999999999999
 70
    64
  0
VERTEX
  5
240
  8
PRETO
 10
8.9399990000000003
 20
-413.0
 30
13.5
 70
    64
  0
SEQEND
  5
241
  8
PRETO
  0
POLYLINE
  5
242
  8
PRETO
 66
     1
 10
0.0
 20
0.0
 30
0.0
 70
    16
 71
     2
 72
     9
  0
VERTEX
  5
243
  8
PRETO
 10
8.9399990000000003
 20
-413.0
 30
13.5
 70
    64
  0
VERTEX
  5
244
  8
PRETO
 10
0.0
 20
-413.0
 30
64.200000000000003
 70
    64
  0
VERTEX
  5
245
  8
PRETO
 10
98.799999999999997
 20
-413.0
 30
64.200000000000003
 70
    64
  0
VERTEX
  5
246
  8
PRETO
 10
100.90000000000001
 20
-413.0
 30
63.640000000000001
 70
    64
  0
VERTEX
  5
247
  8
PRETO
 10
102.44
 20
-413.0
 30
62.100000000000001
 70
    64
  0
VERTEX
  5
248
  8
PRETO
 10
103.0
 20
-413.0
 30
60.0
 70
    64
  0
VERTEX
  5
249
  8
PRETO
 10
103.0
 20
-413.0
 30
0.0
 70
    64
  0
VERTEX
  5
24A
  8
PRETO
 10
22.440000000000001
 20
-413.0
 30
0.0
 70
    64
  0
VERTEX
  5
24B
  8
PRETO
 10
8.9399990000000003
 20
-413.0
 30
13.5
 70
    64
  0
VERTEX
  5
24C
  8
PRETO
 10
8.9399990000000003
 20
-418.0
 30
13.5
 70
    64
  0
VERTEX
  5
24D
  8
PRETO
 10
0.0
 20
-418.0
 30
64.200000000000003
 70
    64
  0
VERTEX
  5
24E
  8
PRETO
 10
98.799999999999997
 20
-418.0
 30
64.200000000000003
 70
    64
  0
VERTEX
  5
24F
  8
PRETO
 10
100.90000000000001
 20
-418.0
 30
63.640000000000001
 70
    64
  0
VERTEX
  5
250
  8
PRETO
 10
102.44
 20
-418.0
 30
62.100000000000001
 70
    64
  0
VERTEX
  5
251
  8
PRETO
 10
103.0
 20
-418.0
 30
60.0
 70
    64
  0
VERTEX
  5
252
  8
PRETO
 10
103.0
 20
-418.0
 30
0.0
 70
    64
  0
VERTEX
  5
253
  8
PRETO
 10
22.440000000000001
 20
-418.0
 30
0.0
 70
    64
  0
VERTEX
  5
254
  8
PRETO
 10
8.9399990000000003
 20
-418.0
 30
13.5
 70
    64
  0
SEQEND
  5
255
  8
PRETO
  0
POLYLINE
  5
256
  8
PRETO
 66
     1
 10
0.0
 20
0.0
 30
0.0
 70
    16
 71
     2
 72
    15
  0
VERTEX
  5
257
  8
PRETO
 10
6.3482426686543931
 20
-107.27651388765
 30
60.299999999999997
 70
    64
  0
VERTEX
  5
258
  8
PRETO
 10
6.3482426686543931
 20
-107.27651388765
 30
54.200000000000003
 70
    64
  0
VERTEX
  5
259
  8
PRETO
 10
8.2882426686543909
 20
-107.27651388765
 30
40.36999999999999
 70
    64
  0
VERTEX
  5
25A
  8
PRETO
 10
9.5782426686544113
 20
-107.27651388765
 30
31.199999999999999
 70
    64
  0
VERTEX
  5
25B
  8
PRETO
 10
11.85825266865438
 20
-107.27651388765
 30
23.710000000000001
 70
    64
  0
VERTEX
  5
25C
  8
PRETO
 10
16.318242668654388
 20
-107.27651388765
 30
17.280000000000001
 70
    64
  0
VERTEX
  5
25D
  8
PRETO
 10
22.548242668654382
 20
-107.27651388765
 30
12.539999999999999
 70
    64
  0
VERTEX
  5
25E
  8
PRETO
 10
78.548242668654382
 20
-107.27651388765
 30
12.539999999999999
 70
    64
  0
VERTEX
  5
25F
  8
PRETO
 10
84.778242668654386
 20
-107.27651388765
 30
17.280000000000001
 70
    64
  0
VERTEX
  5
260
  8
PRETO
 10
89.238242668654365
 20
-107.27651388765
 30
23.710000000000001
 70
    64
  0
VERTEX
  5
261
  8
PRETO
 10
91.518242668654366
 20
-107.27651388765
 30
31.199999999999999
 70
    64
  0
VERTEX
  5
262
  8
PRETO
 10
92.808242668654373
 20
-107.27651388765
 30
40.36999999999999
 70
    64
  0
VERTEX
  5
263
  8
PRETO
 10
94.748242668654385
 20
-107.27651388765
 30
54.200000000000003
 70
    64
  0
VERTEX
  5
264
  8
PRETO
 10
94.748242668654385
 20
-107.27651388765
 30
60.299999999999997
 70
    64
  0
VERTEX
  5
265
  8
PRETO
 10
6.3482426686543931
 20
-107.27651388765
 30
60.299999999999997
 70
    64
  0
VERTEX
  5
266
  8
PRETO
 10
6.3482426686543931
 20
-113.2765138876499
 30
60.299999999999997
 70
    64
  0
VERTEX
  5
267
  8
PRETO
 10
6.3482426686543931
 20
-113.2765138876499
 30
54.200000000000003
 70
    64
  0
VERTEX
  5
268
  8
PRETO
 10
8.2882426686543909
 20
-113.2765138876499
 30
40.36999999999999
 70
    64
  0
VERTEX
  5
269
  8
PRETO
 10
9.5782426686544113
 20
-113.2765138876499
 30
31.199999999999999
 70
    64
  0
VERTEX
  5
26A
  8
PRETO
 10
11.85825266865438
 20
-113.2765138876499
 30
23.710000000000001
 70
    64
  0
VERTEX
  5
26B
  8
PRETO
 10
16.318242668654388
 20
-113.2765138876499
 30
17.280000000000001
 70
    64
  0
VERTEX
  5
26C
  8
PRETO
 10
22.548242668654382
 20
-113.2765138876499
 30
12.539999999999999
 70
    64
  0
VERTEX
  5
26D
  8
PRETO
 10
78.548242668654382
 20
-113.2765138876499
 30
12.539999999999999
 70
    64
  0
VERTEX
  5
26E
  8
PRETO
 10
84.778242668654386
 20
-113.2765138876499
 30
17.280000000000001
 70
    64
  0
VERTEX
  5
26F
  8
PRETO
 10
89.238242668654365
 20
-113.2765138876499
 30
23.710000000000001
 70
    64
  0
VERTEX
  5
270
  8
PRETO
 10
91.518242668654366
 20
-113.2765138876499
 30
31.199999999999999
 70
    64
  0
VERTEX
  5
271
  8
PRETO
 10
92.808242668654373
 20
-113.2765138876499
 30
40.36999999999999
 70
    64
  0
VERTEX
  5
272
  8
PRETO
 10
94.748242668654385
 20
-113.2765138876499
 30
54.200000000000003
 70
    64
  0
VERTEX
  5
273
  8
PRETO
 10
94.748242668654385
 20
-113.2765138876499
 30
60.299999999999997
 70
    64
  0
VERTEX
  5
274
  8
PRETO
 10
6.3482426686543931
 20
-113.2765138876499
 30
60.299999999999997
 70
    64
  0
SEQEND
  5
275
  8
PRETO
  0
POLYLINE
  5
276
  8
PRETO
 66
     1
 10
0.0
 20
0.0
 30
0.0
 70
    16
 71
     2
 72
    15
  0
VERTEX
  5
277
  8
PRETO
 10
6.3482426686543931
 20
-107.27651388765
 30
60.299999999999997
 70
    64
  0
VERTEX
  5
278
  8
PRETO
 10
6.3482426686543931
 20
-107.27651388765
 30
54.200000000000003
 70
    64
  0
VERTEX
  5
279
  8
PRETO
 10
8.2882426686543909
 20
-107.27651388765
 30
40.36999999999999
 70
    64
  0
VERTEX
  5
27A
  8
PRETO
 10
9.5782426686544113
 20
-107.27651388765
 30
31.199999999999999
 70
    64
  0
VERTEX
  5
27B
  8
PRETO
 10
11.85825266865438
 20
-107.27651388765
 30
23.710000000000001
 70
    64
  0
VERTEX
  5
27C
  8
PRETO
 10
16.318242668654388
 20
-107.27651388765
 30
17.280000000000001
 70
    64
  0
VERTEX
  5
27D
  8
PRETO
 10
22.548242668654382
 20
-107.27651388765
 30
12.539999999999999
 70
    64
  0
VERTEX
  5
27E
  8
PRETO
 10
78.548242668654382
 20
-107.27651388765
 30
12.539999999999999
 70
    64
  0
VERTEX
  5
27F
  8
PRETO
 10
84.778242668654386
 20
-107.27651388765
 30
17.280000000000001
 70
    64
  0
VERTEX
  5
280
  8
PRETO
 10
89.238242668654365
 20
-107.27651388765
 30
23.710000000000001
 70
    64
  0
VERTEX
  5
281
  8
PRETO
 10
91.518242668654366
 20
-107.27651388765
 30
31.199999999999999
 70
    64
  0
VERTEX
  5
282
  8
PRETO
 10
92.808242668654373
 20
-107.27651388765
 30
40.36999999999999
 70
    64
  0
VERTEX
  5
283
  8
PRETO
 10
94.748242668654385
 20
-107.27651388765
 30
54.200000000000003
 70
    64
  0
VERTEX
  5
284
  8
PRETO
 10
94.748242668654385
 20
-107.27651388765
 30
60.299999999999997
 70
    64
  0
VERTEX
  5
285
  8
PRETO
 10
6.3482426686543931
 20
-107.27651388765
 30
60.299999999999997
 70
    64
  0
VERTEX
  5
286
  8
PRETO
 10
6.3482426686543931
 20
-101.2765138876499
 30
60.299999999999997
 70
    64
  0
VERTEX
  5
287
  8
PRETO
 10
6.3482426686543931
 20
-101.2765138876499
 30
54.200000000000003
 70
    64
  0
VERTEX
  5
288
  8
PRETO
 10
8.2882426686543909
 20
-101.2765138876499
 30
40.36999999999999
 70
    64
  0
VERTEX
  5
289
  8
PRETO
 10
9.5782426686544113
 20
-101.2765138876499
 30
31.199999999999999
 70
    64
  0
VERTEX
  5
28A
  8
PRETO
 10
11.85825266865438
 20
-101.2765138876499
 30
23.710000000000001
 70
    64
  0
VERTEX
  5
28B
  8
PRETO
 10
16.318242668654388
 20
-101.2765138876499
 30
17.280000000000001
 70
    64
  0
VERTEX
  5
28C
  8
PRETO
 10
22.548242668654382
 20
-101.2765138876499
 30
12.539999999999999
 70
    64
  0
VERTEX
  5
28D
  8
PRETO
 10
78.548242668654382
 20
-101.2765138876499
 30
12.539999999999999
 70
    64
  0
VERTEX
  5
28E
  8
PRETO
 10
84.778242668654386
 20
-101.2765138876499
 30
17.280000000000001
 70
    64
  0
VERTEX
  5
28F
  8
PRETO
 10
89.238242668654365
 20
-101.2765138876499
 30
23.710000000000001
 70
    64
  0
VERTEX
  5
290
  8
PRETO
 10
91.518242668654366
 20
-101.2765138876499
 30
31.199999999999999
 70
    64
  0
VERTEX
  5
291
  8
PRETO
 10
92.808242668654373
 20
-101.2765138876499
 30
40.36999999999999
 70
    64
  0
VERTEX
  5
292
  8
PRETO
 10
94.748242668654385
 20
-101.2765138876499
 30
54.200000000000003
 70
    64
  0
VERTEX
  5
293
  8
PRETO
 10
94.748242668654385
 20
-101.2765138876499
 30
60.299999999999997
 70
    64
  0
VERTEX
  5
294
  8
PRETO
 10
6.3482426686543931
 20
-101.2765138876499
 30
60.299999999999997
 70
    64
  0
SEQEND
  5
295
  8
PRETO
  0
POLYLINE
  5
296
  8
PRETO
 66
     1
 10
0.0
 20
0.0
 30
0.0
 70
    16
 71
     2
 72
    15
  0
VERTEX
  5
297
  8
PRETO
 10
6.3482426686543931
 20
-25.476513887649961
 30
60.299999999999997
 70
    64
  0
VERTEX
  5
298
  8
PRETO
 10
6.3482426686543931
 20
-25.476513887649961
 30
54.200000000000003
 70
    64
  0
VERTEX
  5
299
  8
PRETO
 10
8.2882426686543909
 20
-25.476513887649961
 30
40.36999999999999
 70
    64
  0
VERTEX
  5
29A
  8
PRETO
 10
9.5782426686544113
 20
-25.476513887649961
 30
31.199999999999999
 70
    64
  0
VERTEX
  5
29B
  8
PRETO
 10
11.85825266865441
 20
-25.476513887649961
 30
23.710000000000001
 70
    64
  0
VERTEX
  5
29C
  8
PRETO
 10
16.31824266865442
 20
-25.476513887649961
 30
17.280000000000001
 70
    64
  0
VERTEX
  5
29D
  8
PRETO
 10
22.54824266865441
 20
-25.476513887649961
 30
12.539999999999999
 70
    64
  0
VERTEX
  5
29E
  8
PRETO
 10
78.54824266865441
 20
-25.476513887649961
 30
12.539999999999999
 70
    64
  0
VERTEX
  5
29F
  8
PRETO
 10
84.778242668654386
 20
-25.476513887649961
 30
17.280000000000001
 70
    64
  0
VERTEX
  5
2A0
  8
PRETO
 10
89.238242668654408
 20
-25.476513887649961
 30
23.710000000000001
 70
    64
  0
VERTEX
  5
2A1
  8
PRETO
 10
91.518242668654409
 20
-25.476513887649961
 30
31.199999999999999
 70
    64
  0
VERTEX
  5
2A2
  8
PRETO
 10
92.808242668654401
 20
-25.476513887649961
 30
40.36999999999999
 70
    64
  0
VERTEX
  5
2A3
  8
PRETO
 10
94.748242668654385
 20
-25.476513887649961
 30
54.200000000000003
 70
    64
  0
VERTEX
  5
2A4
  8
PRETO
 10
94.748242668654385
 20
-25.476513887649961
 30
60.299999999999997
 70
    64
  0
VERTEX
  5
2A5
  8
PRETO
 10
6.3482426686543931
 20
-25.476513887649961
 30
60.299999999999997
 70
    64
  0
VERTEX
  5
2A6
  8
PRETO
 10
6.3482426686543931
 20
-31.476513887649961
 30
60.299999999999997
 70
    64
  0
VERTEX
  5
2A7
  8
PRETO
 10
6.3482426686543931
 20
-31.476513887649961
 30
54.200000000000003
 70
    64
  0
VERTEX
  5
2A8
  8
PRETO
 10
8.2882426686543909
 20
-31.476513887649961
 30
40.36999999999999
 70
    64
  0
VERTEX
  5
2A9
  8
PRETO
 10
9.5782426686544113
 20
-31.476513887649961
 30
31.199999999999999
 70
    64
  0
VERTEX
  5
2AA
  8
PRETO
 10
11.85825266865441
 20
-31.476513887649961
 30
23.710000000000001
 70
    64
  0
VERTEX
  5
2AB
  8
PRETO
 10
16.31824266865442
 20
-31.476513887649961
 30
17.280000000000001
 70
    64
  0
VERTEX
  5
2AC
  8
PRETO
 10
22.54824266865441
 20
-31.476513887649961
 30
12.539999999999999
 70
    64
  0
VERTEX
  5
2AD
  8
PRETO
 10
78.54824266865441
 20
-31.476513887649961
 30
12.539999999999999
 70
    64
  0
VERTEX
  5
2AE
  8
PRETO
 10
84.778242668654386
 20
-31.476513887649961
 30
17.280000000000001
 70
    64
  0
VERTEX
  5
2AF
  8
PRETO
 10
89.238242668654408
 20
-31.476513887649961
 30
23.710000000000001
 70
    64
  0
VERTEX
  5
2B0
  8
PRETO
 10
91.518242668654409
 20
-31.476513887649961
 30
31.199999999999999
 70
    64
  0
VERTEX
  5
2B1
  8
PRETO
 10
92.808242668654401
 20
-31.476513887649961
 30
40.36999999999999
 70
    64
  0
VERTEX
  5
2B2
  8
PRETO
 10
94.748242668654385
 20
-31.476513887649961
 30
54.200000000000003
 70
    64
  0
VERTEX
  5
2B3
  8
PRETO
 10
94.748242668654385
 20
-31.476513887649961
 30
60.299999999999997
 70
    64
  0
VERTEX
  5
2B4
  8
PRETO
 10
6.3482426686543931
 20
-31.476513887649961
 30
60.299999999999997
 70
    64
  0
SEQEND
  5
2B5
  8
PRETO
  0
POLYLINE
  5
2B6
  8
PRETO
 66
     1
 10
0.0
 20
0.0
 30
0.0
 70
    16
 71
     2
 72
     7
  0
VERTEX
  5
2B7
  8
PRETO
 10
287.0
 20
-401.0
 30
60.0
 70
    64
  0
VERTEX
  5
2B8
  8
PRETO
 10
287.0
 20
-401.0
 30
1.0
 70
    64
  0
VERTEX
  5
2B9
  8
PRETO
 10
293.0
 20
-401.0
 30
1.0
 70
    64
  0
VERTEX
  5
2BA
  8
PRETO
 10
293.0
 20
-401.0
 30
60.0
 70
    64
  0
VERTEX
  5
2BB
  8
PRETO
 10
291.5
 20
-401.0
 30
62.600000000000001
 70
    64
  0
VERTEX
  5
2BC
  8
PRETO
 10
288.5
 20
-401.0
 30
62.600000000000001
 70
    64
  0
VERTEX
  5
2BD
  8
PRETO
 10
287.0
 20
-401.0
 30
60.0
 70
    64
  0
VERTEX
  5
2BE
  8
PRETO
 10
287.0
 20
-414.0
 30
60.0
 70
    64
  0
VERTEX
  5
2BF
  8
PRETO
 10
287.0
 20
-414.0
 30
1.0
 70
    64
  0
VERTEX
  5
2C0
  8
PRETO
 10
293.0
 20
-414.0
 30
1.0
 70
    64
  0
VERTEX
  5
2C1
  8
PRETO
 10
293.0
 20
-414.0
 30
60.0
 70
    64
  0
VERTEX
  5
2C2
  8
PRETO
 10
291.5
 20
-414.0
 30
62.600000000000001
 70
    64
  0
VERTEX
  5
2C3
  8
PRETO
 10
288.5
 20
-414.0
 30
62.600000000000001
 70
    64
  0
VERTEX
  5
2C4
  8
PRETO
 10
287.0
 20
-414.0
 30
60.0
 70
    64
  0
SEQEND
  5
2C5
  8
PRETO
  0
POLYLINE
  5
2C6
  8
PRETO
 66
     1
 10
0.0
 20
0.0
 30
0.0
 70
    16
 71
     2
 72
     6
  0
VERTEX
  5
2C7
  8
PRETO
 10
101.0
 20
-419.0
 30
0.58
 70
    64
  0
VERTEX
  5
2C8
  8
PRETO
 10
101.0
 20
-419.0
 30
61.579999999999998
 70
    64
  0
VERTEX
  5
2C9
  8
PRETO
 10
101.0
 20
-417.60000000000002
 30
64.0
 70
    64
  0
VERTEX
  5
2CA
  8
PRETO
 10
101.0
 20
-414.80000000000001
 30
64.0
 70
    64
  0
VERTEX
  5
2CB
  8
PRETO
 10
101.0
 20
-413.39999999999992
 30
61.579999999999998
 70
    64
  0
VERTEX
  5
2CC
  8
PRETO
 10
101.0
 20
-413.39999999999992
 30
0.58
 70
    64
  0
VERTEX
  5
2CD
  8
PRETO
 10
287.80000000000001
 20
-419.0
 30
0.58
 70
    64
  0
VERTEX
  5
2CE
  8
PRETO
 10
287.80000000000001
 20
-419.0
 30
61.579999999999998
 70
    64
  0
VERTEX
  5
2CF
  8
PRETO
 10
287.80000000000001
 20
-417.60000000000002
 30
64.0
 70
    64
  0
VERTEX
  5
2D0
  8
PRETO
 10
287.80000000000001
 20
-414.80000000000001
 30
64.0
 70
    64
  0
VERTEX
  5
2D1
  8
PRETO
 10
287.80000000000001
 20
-413.39999999999992
 30
61.579999999999998
 70
    64
  0
VERTEX
  5
2D2
  8
PRETO
 10
287.80000000000001
 20
-413.39999999999992
 30
0.58
 70
    64
  0
SEQEND
  5
2D3
  8
PRETO
  0
POLYLINE
  5
2D4
  8
PRETO
 66
     1
 10
0.0
 20
0.0
 30
0.0
 70
    16
 71
     2
 72
     6
  0
VERTEX
  5
2D5
  8
PRETO
 10
101.0
 20
-184.80000000000001
 30
0.58
 70
    64
  0
VERTEX
  5
2D6
  8
PRETO
 10
101.0
 20
-184.80000000000001
 30
61.579999999999998
 70
    64
  0
VERTEX
  5
2D7
  8
PRETO
 10
101.0
 20
-183.40000000000001
 30
64.0
 70
    64
  0
VERTEX
  5
2D8
  8
PRETO
 10
101.0
 20
-180.59999999999999
 30
64.0
 70
    64
  0
VERTEX
  5
2D9
  8
PRETO
 10
101.0
 20
-179.1999999999999
 30
61.579999999999998
 70
    64
  0
VERTEX
  5
2DA
  8
PRETO
 10
101.0
 20
-179.1999999999999
 30
0.58
 70
    64
  0
VERTEX
  5
2DB
  8
PRETO
 10
287.80000000000001
 20
-184.80000000000001
 30
0.58
 70
    64
  0
VERTEX
  5
2DC
  8
PRETO
 10
287.80000000000001
 20
-184.80000000000001
 30
61.579999999999998
 70
    64
  0
VERTEX
  5
2DD
  8
PRETO
 10
287.80000000000001
 20
-183.40000000000001
 30
64.0
 70
    64
  0
VERTEX
  5
2DE
  8
PRETO
 10
287.80000000000001
 20
-180.59999999999999
 30
64.0
 70
    64
  0
VERTEX
  5
2DF
  8
PRETO
 10
287.80000000000001
 20
-179.1999999999999
 30
61.579999999999998
 70
    64
  0
VERTEX
  5
2E0
  8
PRETO
 10
287.80000000000001
 20
-179.1999999999999
 30
0.58
 70
    64
  0
SEQEND
  5
2E1
  8
PRETO
  0
POLYLINE
  5
2E2
  8
PRETO
 66
     1
 10
0.0
 20
0.0
 30
0.0
 70
    16
 71
     2
 72
     4
  0
VERTEX
  5
2E3
  8
PRETO
 10
9.5782426686544113
 20
-113.2765138876499
 30
31.199999999999999
 70
    64
  0
VERTEX
  5
2E4
  8
PRETO
 10
11.85825266865438
 20
-113.2765138876499
 30
23.710000000000001
 70
    64
  0
VERTEX
  5
2E5
  8
PRETO
 10
16.318242668654388
 20
-113.2765138876499
 30
17.280000000000001
 70
    64
  0
VERTEX
  5
2E6
  8
PRETO
 10
22.548242668654382
 20
-113.2765138876499
 30
12.539999999999999
 70
    64
  0
VERTEX
  5
2E7
  8
PRETO
 10
91.518242668654366
 20
-113.2765138876499
 30
31.199999999999999
 70
    64
  0
VERTEX
  5
2E8
  8
PRETO
 10
89.238242668654365
 20
-113.2765138876499
 30
23.710000000000001
 70
    64
  0
VERTEX
  5
2E9
  8
PRETO
 10
84.778242668654386
 20
-113.2765138876499
 30
17.280000000000001
 70
    64
  0
VERTEX
  5
2EA
  8
PRETO
 10
78.548242668654382
 20
-113.2765138876499
 30
12.539999999999999
 70
    64
  0
SEQEND
  5
2EB
  8
PRETO
  0
POLYLINE
  5
2EC
  8
PRETO
 66
     1
 10
0.0
 20
0.0
 30
0.0
 70
    16
 71
     2
 72
     4
  0
VERTEX
  5
2ED
  8
PRETO
 10
9.5782426686544113
 20
-107.27651388765
 30
31.199999999999999
 70
    64
  0
VERTEX
  5
2EE
  8
PRETO
 10
11.85825266865438
 20
-107.27651388765
 30
23.710000000000001
 70
    64
  0
VERTEX
  5
2EF
  8
PRETO
 10
16.318242668654388
 20
-107.27651388765
 30
17.280000000000001
 70
    64
  0
VERTEX
  5
2F0
  8
PRETO
 10
22.548242668654382
 20
-107.27651388765
 30
12.539999999999999
 70
    64
  0
VERTEX
  5
2F1
  8
PRETO
 10
91.518242668654366
 20
-107.27651388765
 30
31.199999999999999
 70
    64
  0
VERTEX
  5
2F2
  8
PRETO
 10
89.238242668654365
 20
-107.27651388765
 30
23.710000000000001
 70
    64
  0
VERTEX
  5
2F3
  8
PRETO
 10
84.778242668654386
 20
-107.27651388765
 30
17.280000000000001
 70
    64
  0
VERTEX
  5
2F4
  8
PRETO
 10
78.548242668654382
 20
-107.27651388765
 30
12.539999999999999
 70
    64
  0
SEQEND
  5
2F5
  8
PRETO
  0
POLYLINE
  5
2F6
  8
PRETO
 66
     1
 10
0.0
 20
0.0
 30
0.0
 70
    16
 71
     2
 72
     4
  0
VERTEX
  5
2F7
  8
PRETO
 10
9.5782426686544113
 20
-101.2765138876499
 30
31.199999999999999
 70
    64
  0
VERTEX
  5
2F8
  8
PRETO
 10
11.85825266865438
 20
-101.2765138876499
 30
23.710000000000001
 70
    64
  0
VERTEX
  5
2F9
  8
PRETO
 10
16.318242668654388
 20
-101.2765138876499
 30
17.280000000000001
 70
    64
  0
VERTEX
  5
2FA
  8
PRETO
 10
22.548242668654382
 20
-101.2765138876499
 30
12.539999999999999
 70
    64
  0
VERTEX
  5
2FB
  8
PRETO
 10
91.518242668654366
 20
-101.2765138876499
 30
31.199999999999999
 70
    64
  0
VERTEX
  5
2FC
  8
PRETO
 10
89.238242668654365
 20
-101.2765138876499
 30
23.710000000000001
 70
    64
  0
VERTEX
  5
2FD
  8
PRETO
 10
84.778242668654386
 20
-101.2765138876499
 30
17.280000000000001
 70
    64
  0
VERTEX
  5
2FE
  8
PRETO
 10
78.548242668654382
 20
-101.2765138876499
 30
12.539999999999999
 70
    64
  0
SEQEND
  5
2FF
  8
PRETO
  0
POLYLINE
  5
300
  8
PRETO
 66
     1
 10
0.0
 20
0.0
 30
0.0
 70
    16
 71
     2
 72
     4
  0
VERTEX
  5
301
  8
PRETO
 10
9.5782426686544113
 20
-107.27651388765
 30
31.199999999999999
 70
    64
  0
VERTEX
  5
302
  8
PRETO
 10
11.85825266865438
 20
-107.27651388765
 30
23.710000000000001
 70
    64
  0
VERTEX
  5
303
  8
PRETO
 10
16.318242668654388
 20
-107.27651388765
 30
17.280000000000001
 70
    64
  0
VERTEX
  5
304
  8
PRETO
 10
22.548242668654382
 20
-107.27651388765
 30
12.539999999999999
 70
    64
  0
VERTEX
  5
305
  8
PRETO
 10
91.518242668654366
 20
-107.27651388765
 30
31.199999999999999
 70
    64
  0
VERTEX
  5
306
  8
PRETO
 10
89.238242668654365
 20
-107.27651388765
 30
23.710000000000001
 70
    64
  0
VERTEX
  5
307
  8
PRETO
 10
84.778242668654386
 20
-107.27651388765
 30
17.280000000000001
 70
    64
  0
VERTEX
  5
308
  8
PRETO
 10
78.548242668654382
 20
-107.27651388765
 30
12.539999999999999
 70
    64
  0
SEQEND
  5
309
  8
PRETO
  0
POLYLINE
  5
30A
  8
PRETO
 66
     1
 10
0.0
 20
0.0
 30
0.0
 70
    16
 71
     2
 72
     4
  0
VERTEX
  5
30B
  8
PRETO
 10
9.5782426686544113
 20
-31.476513887649961
 30
31.199999999999999
 70
    64
  0
VERTEX
  5
30C
  8
PRETO
 10
11.85825266865441
 20
-31.476513887649961
 30
23.710000000000001
 70
    64
  0
VERTEX
  5
30D
  8
PRETO
 10
16.31824266865442
 20
-31.476513887649961
 30
17.280000000000001
 70
    64
  0
VERTEX
  5
30E
  8
PRETO
 10
22.54824266865441
 20
-31.476513887649961
 30
12.539999999999999
 70
    64
  0
VERTEX
  5
30F
  8
PRETO
 10
91.518242668654409
 20
-31.476513887649961
 30
31.199999999999999
 70
    64
  0
VERTEX
  5
310
  8
PRETO
 10
89.238242668654408
 20
-31.476513887649961
 30
23.710000000000001
 70
    64
  0
VERTEX
  5
311
  8
PRETO
 10
84.778242668654386
 20
-31.476513887649961
 30
17.280000000000001
 70
    64
  0
VERTEX
  5
312
  8
PRETO
 10
78.54824266865441
 20
-31.476513887649961
 30
12.539999999999999
 70
    64
  0
SEQEND
  5
313
  8
PRETO
  0
POLYLINE
  5
314
  8
PRETO
 66
     1
 10
0.0
 20
0.0
 30
0.0
 70
    16
 71
     2
 72
     4
  0
VERTEX
  5
315
  8
PRETO
 10
91.569999999999993
 20
-413.0
 30
31.199999999999999
 70
    64
  0
VERTEX
  5
316
  8
PRETO
 10
89.289990000000003
 20
-413.0
 30
23.710000000000001
 70
    64
  0
VERTEX
  5
317
  8
PRETO
 10
84.829999999999998
 20
-413.0
 30
17.280000000000001
 70
    64
  0
VERTEX
  5
318
  8
PRETO
 10
78.599999999999994
 20
-413.0
 30
12.539999999999999
 70
    64
  0
VERTEX
  5
319
  8
PRETO
 10
9.6300000000000008
 20
-413.0
 30
31.199999999999999
 70
    64
  0
VERTEX
  5
31A
  8
PRETO
 10
11.91
 20
-413.0
 30
23.710000000000001
 70
    64
  0
VERTEX
  5
31B
  8
PRETO
 10
16.370000000000001
 20
-413.0
 30
17.280000000000001
 70
    64
  0
VERTEX
  5
31C
  8
PRETO
 10
22.600000000000001
 20
-413.0
 30
12.539999999999999
 70
    64
  0
SEQEND
  5
31D
  8
PRETO
  0
POLYLINE
  5
31E
  8
PRETO
 66
     1
 10
0.0
 20
0.0
 30
0.0
 70
    16
 71
     6
 72
     3
  0
VERTEX
  5
31F
  8
PRETO
 10
3.339999999999999
 20
-413.0
 30
61.969999999999999
 70
    64
  0
VERTEX
  5
320
  8
PRETO
 10
3.399999999999999
 20
-413.0
 30
48.950000000000003
 70
    64
  0
VERTEX
  5
321
  8
PRETO
 10
3.399999999999999
 20
-413.0
 30
48.950000000000003
 70
    64
  0
VERTEX
  5
322
  8
PRETO
 10
5.0
 20
-413.0
 30
61.969999999999999
 70
    64
  0
VERTEX
  5
323
  8
PRETO
 10
5.0
 20
-413.0
 30
41.969999999999999
 70
    64
  0
VERTEX
  5
324
  8
PRETO
 10
5.0
 20
-413.0
 30
41.969999999999999
 70
    64
  0
VERTEX
  5
325
  8
PRETO
 10
5.0
 20
-401.0
 30
61.969999999999999
 70
    64
  0
VERTEX
  5
326
  8
PRETO
 10
5.0
 20
-401.0
 30
41.969999999999999
 70
    64
  0
VERTEX
  5
327
  8
PRETO
 10
5.0
 20
-413.0
 30
41.969999999999999
 70
    64
  0
VERTEX
  5
328
  8
PRETO
 10
3.339999999999999
 20
-401.0
 30
61.969999999999999
 70
    64
  0
VERTEX
  5
329
  8
PRETO
 10
3.399999999999999
 20
-401.0
 30
48.950000000000003
 70
    64
  0
VERTEX
  5
32A
  8
PRETO
 10
3.399999999999999
 20
-413.0
 30
48.950000000000003
 70
    64
  0
VERTEX
  5
32B
  8
PRETO
 10
3.339999999999999
 20
-401.0
 30
61.969999999999999
 70
    64
  0
VERTEX
  5
32C
  8
PRETO
 10
3.339999999999999
 20
-401.0
 30
61.969999999999999
 70
    64
  0
VERTEX
  5
32D
  8
PRETO
 10
3.339999999999999
 20
-413.0
 30
61.969999999999999
 70
    64
  0
VERTEX
  5
32E
  8
PRETO
 10
5.0
 20
-401.0
 30
61.969999999999999
 70
    64
  0
VERTEX
  5
32F
  8
PRETO
 10
5.0
 20
-401.0
 30
61.969999999999999
 70
    64
  0
VERTEX
  5
330
  8
PRETO
 10
5.0
 20
-413.0
 30
61.969999999999999
 70
    64
  0
SEQEND
  5
331
  8
PRETO
  0
POLYLINE
  5
332
  8
PRETO
 66
     1
 10
0.0
 20
0.0
 30
0.0
 70
    16
 71
     2
 72
     7
  0
VERTEX
  5
333
  8
PRETO
 10
101.8
 20
-18.0
 30
60.0
 70
    64
  0
VERTEX
  5
334
  8
PRETO
 10
101.8
 20
-18.0
 30
1.0
 70
    64
  0
VERTEX
  5
335
  8
PRETO
 10
95.799999999999997
 20
-18.0
 30
1.0
 70
    64
  0
VERTEX
  5
336
  8
PRETO
 10
95.799999999999997
 20
-18.0
 30
60.0
 70
    64
  0
VERTEX
  5
337
  8
PRETO
 10
97.299999999999997
 20
-18.0
 30
62.600000000000001
 70
    64
  0
VERTEX
  5
338
  8
PRETO
 10
100.3
 20
-18.0
 30
62.600000000000001
 70
    64
  0
VERTEX
  5
339
  8
PRETO
 10
101.8
 20
-18.0
 30
60.0
 70
    64
  0
VERTEX
  5
33A
  8
PRETO
 10
101.8
 20
-5.0
 30
60.0
 70
    64
  0
VERTEX
  5
33B
  8
PRETO
 10
101.8
 20
-5.0
 30
1.0
 70
    64
  0
VERTEX
  5
33C
  8
PRETO
 10
95.799999999999997
 20
-5.0
 30
1.0
 70
    64
  0
VERTEX
  5
33D
  8
PRETO
 10
95.799999999999997
 20
-5.0
 30
60.0
 70
    64
  0
VERTEX
  5
33E
  8
PRETO
 10
97.299999999999997
 20
-5.0
 30
62.600000000000001
 70
    64
  0
VERTEX
  5
33F
  8
PRETO
 10
100.3
 20
-5.0
 30
62.600000000000001
 70
    64
  0
VERTEX
  5
340
  8
PRETO
 10
101.8
 20
-5.0
 30
60.0
 70
    64
  0
SEQEND
  5
341
  8
PRETO
  0
POLYLINE
  5
342
  8
PRETO
 66
     1
 10
0.0
 20
0.0
 30
0.0
 70
    16
 71
     2
 72
     9
  0
VERTEX
  5
343
  8
PRETO
 10
8.9399990000000003
 20
-6.0
 30
13.5
 70
    64
  0
VERTEX
  5
344
  8
PRETO
 10
0.0
 20
-6.0
 30
64.200000000000003
 70
    64
  0
VERTEX
  5
345
  8
PRETO
 10
98.799999999999997
 20
-5.0
 30
64.200000000000003
 70
    64
  0
VERTEX
  5
346
  8
PRETO
 10
100.90000000000001
 20
-5.0
 30
63.640000000000001
 70
    64
  0
VERTEX
  5
347
  8
PRETO
 10
102.44
 20
-5.0
 30
62.100000000000001
 70
    64
  0
VERTEX
  5
348
  8
PRETO
 10
103.0
 20
-5.0
 30
60.0
 70
    64
  0
VERTEX
  5
349
  8
PRETO
 10
103.0
 20
-5.0
 30
0.0
 70
    64
  0
VERTEX
  5
34A
  8
PRETO
 10
22.440000000000001
 20
-6.0
 30
0.0
 70
    64
  0
VERTEX
  5
34B
  8
PRETO
 10
8.9399990000000003
 20
-6.0
 30
13.5
 70
    64
  0
VERTEX
  5
34C
  8
PRETO
 10
8.9399990000000003
 20
-1.0
 30
13.5
 70
    64
  0
VERTEX
  5
34D
  8
PRETO
 10
0.0
 20
-1.0
 30
64.200000000000003
 70
    64
  0
VERTEX
  5
34E
  8
PRETO
 10
98.799999999999997
 20
0.0
 30
64.200000000000003
 70
    64
  0
VERTEX
  5
34F
  8
PRETO
 10
100.90000000000001
 20
0.0
 30
63.640000000000001
 70
    64
  0
VERTEX
  5
350
  8
PRETO
 10
102.44
 20
0.0
 30
62.100000000000001
 70
    64
  0
VERTEX
  5
351
  8
PRETO
 10
103.0
 20
0.0
 30
60.0
 70
    64
  0
VERTEX
  5
352
  8
PRETO
 10
103.0
 20
0.0
 30
0.0
 70
    64
  0
VERTEX
  5
353
  8
PRETO
 10
22.440000000000001
 20
-1.0
 30
0.0
 70
    64
  0
VERTEX
  5
354
  8
PRETO
 10
8.9399990000000003
 20
-1.0
 30
13.5
 70
    64
  0
SEQEND
  5
355
  8
PRETO
  0
POLYLINE
  5
356
  8
PRETO
 66
     1
 10
0.0
 20
0.0
 30
0.0
 70
    16
 71
     2
 72
     4
  0
VERTEX
  5
357
  8
PRETO
 10
98.799999999999997
 20
0.0
 30
64.200000000000003
 70
    64
  0
VERTEX
  5
358
  8
PRETO
 10
100.90000000000001
 20
0.0
 30
63.640000000000001
 70
    64
  0
VERTEX
  5
359
  8
PRETO
 10
102.44
 20
0.0
 30
62.100000000000001
 70
    64
  0
VERTEX
  5
35A
  8
PRETO
 10
103.0
 20
0.0
 30
60.0
 70
    64
  0
VERTEX
  5
35B
  8
PRETO
 10
0.0
 20
-1.0
 30
64.200000000000003
 70
    64
  0
VERTEX
  5
35C
  8
PRETO
 10
2.98
 20
-1.0
 30
47.29999999999999
 70
    64
  0
VERTEX
  5
35D
  8
PRETO
 10
5.9599999999999991
 20
-1.0
 30
30.399999999999999
 70
    64
  0
VERTEX
  5
35E
  8
PRETO
 10
8.9399990000000003
 20
-1.0
 30
13.5
 70
    64
  0
SEQEND
  5
35F
  8
PRETO
  0
POLYLINE
  5
360
  8
PRETO
 66
     1
 10
0.0
 20
0.0
 30
0.0
 70
    16
 71
     2
 72
     4
  0
VERTEX
  5
361
  8
PRETO
 10
98.799999999999997
 20
-5.0
 30
64.200000000000003
 70
    64
  0
VERTEX
  5
362
  8
PRETO
 10
100.90000000000001
 20
-5.0
 30
63.640000000000001
 70
    64
  0
VERTEX
  5
363
  8
PRETO
 10
102.44
 20
-5.0
 30
62.100000000000001
 70
    64
  0
VERTEX
  5
364
  8
PRETO
 10
103.0
 20
-5.0
 30
60.0
 70
    64
  0
VERTEX
  5
365
  8
PRETO
 10
0.0
 20
-6.0
 30
64.200000000000003
 70
    64
  0
VERTEX
  5
366
  8
PRETO
 10
2.98
 20
-6.0
 30
47.29999999999999
 70
    64
  0
VERTEX
  5
367
  8
PRETO
 10
5.9599999999999991
 20
-6.0
 30
30.399999999999999
 70
    64
  0
VERTEX
  5
368
  8
PRETO
 10
8.9399990000000003
 20
-6.0
 30
13.5
 70
    64
  0
SEQEND
  5
369
  8
PRETO
  0
POLYLINE
  5
36A
  8
PRETO
 66
     1
 10
0.0
 20
0.0
 30
0.0
 70
    16
 71
     2
 72
    15
  0
VERTEX
  5
36B
  8
PRETO
 10
6.3482426686543363
 20
-412.67651388764989
 30
60.299999999999997
 70
    64
  0
VERTEX
  5
36C
  8
PRETO
 10
6.3482426686543363
 20
-412.67651388764989
 30
54.200000000000003
 70
    64
  0
VERTEX
  5
36D
  8
PRETO
 10
8.288242668654334
 20
-412.67651388764989
 30
40.36999999999999
 70
    64
  0
VERTEX
  5
36E
  8
PRETO
 10
9.5782426686543545
 20
-412.67651388764989
 30
31.199999999999999
 70
    64
  0
VERTEX
  5
36F
  8
PRETO
 10
11.858252668654361
 20
-412.67651388764989
 30
23.710000000000001
 70
    64
  0
VERTEX
  5
370
  8
PRETO
 10
16.31824266865436
 20
-412.67651388764989
 30
17.280000000000001
 70
    64
  0
VERTEX
  5
371
  8
PRETO
 10
22.54824266865435
 20
-412.67651388764989
 30
12.539999999999999
 70
    64
  0
VERTEX
  5
372
  8
PRETO
 10
78.548242668654353
 20
-412.67651388765
 30
12.539999999999999
 70
    64
  0
VERTEX
  5
373
  8
PRETO
 10
84.778242668654343
 20
-412.67651388765
 30
17.280000000000001
 70
    64
  0
VERTEX
  5
374
  8
PRETO
 10
89.238242668654365
 20
-412.67651388765
 30
23.710000000000001
 70
    64
  0
VERTEX
  5
375
  8
PRETO
 10
91.518242668654352
 20
-412.67651388765
 30
31.199999999999999
 70
    64
  0
VERTEX
  5
376
  8
PRETO
 10
92.808242668654344
 20
-412.67651388765
 30
40.36999999999999
 70
    64
  0
VERTEX
  5
377
  8
PRETO
 10
94.748242668654342
 20
-412.67651388765
 30
54.200000000000003
 70
    64
  0
VERTEX
  5
378
  8
PRETO
 10
94.748242668654342
 20
-412.67651388765
 30
60.299999999999997
 70
    64
  0
VERTEX
  5
379
  8
PRETO
 10
6.3482426686543363
 20
-412.67651388764989
 30
60.299999999999997
 70
    64
  0
VERTEX
  5
37A
  8
PRETO
 10
6.3482426686543363
 20
-406.67651388764989
 30
60.299999999999997
 70
    64
  0
VERTEX
  5
37B
  8
PRETO
 10
6.3482426686543363
 20
-406.67651388764989
 30
54.200000000000003
 70
    64
  0
VERTEX
  5
37C
  8
PRETO
 10
8.288242668654334
 20
-406.67651388764989
 30
40.36999999999999
 70
    64
  0
VERTEX
  5
37D
  8
PRETO
 10
9.5782426686543545
 20
-406.67651388764989
 30
31.199999999999999
 70
    64
  0
VERTEX
  5
37E
  8
PRETO
 10
11.858252668654361
 20
-406.67651388764989
 30
23.710000000000001
 70
    64
  0
VERTEX
  5
37F
  8
PRETO
 10
16.31824266865436
 20
-406.67651388764989
 30
17.280000000000001
 70
    64
  0
VERTEX
  5
380
  8
PRETO
 10
22.54824266865435
 20
-406.67651388764989
 30
12.539999999999999
 70
    64
  0
VERTEX
  5
381
  8
PRETO
 10
78.548242668654353
 20
-406.67651388764989
 30
12.539999999999999
 70
    64
  0
VERTEX
  5
382
  8
PRETO
 10
84.778242668654343
 20
-406.67651388764989
 30
17.280000000000001
 70
    64
  0
VERTEX
  5
383
  8
PRETO
 10
89.238242668654365
 20
-406.67651388764989
 30
23.710000000000001
 70
    64
  0
VERTEX
  5
384
  8
PRETO
 10
91.518242668654352
 20
-406.67651388764989
 30
31.199999999999999
 70
    64
  0
VERTEX
  5
385
  8
PRETO
 10
92.808242668654344
 20
-406.67651388764989
 30
40.36999999999999
 70
    64
  0
VERTEX
  5
386
  8
PRETO
 10
94.748242668654342
 20
-406.67651388764989
 30
54.200000000000003
 70
    64
  0
VERTEX
  5
387
  8
PRETO
 10
94.748242668654342
 20
-406.67651388764989
 30
60.299999999999997
 70
    64
  0
VERTEX
  5
388
  8
PRETO
 10
6.3482426686543363
 20
-406.67651388764989
 30
60.299999999999997
 70
    64
  0
SEQEND
  5
389
  8
PRETO
  0
POLYLINE
  5
38A
  8
PRETO
 66
     1
 10
0.0
 20
0.0
 30
0.0
 70
    16
 71
     2
 72
    14
  0
VERTEX
  5
38B
  8
PRETO
 10
79.650000000000006
 20
-25.0
 30
41.5
 70
    64
  0
VERTEX
  5
38C
  8
PRETO
 10
94.799999999999997
 20
-25.0
 30
41.5
 70
    64
  0
VERTEX
  5
38D
  8
PRETO
 10
94.799999999999997
 20
-25.0
 30
60.299999999999997
 70
    64
  0
VERTEX
  5
38E
  8
PRETO
 10
6.5999999999999988
 20
-26.0
 30
60.299999999999997
 70
    64
  0
VERTEX
  5
38F
  8
PRETO
 10
6.5999999999999988
 20
-26.0
 30
41.5
 70
    64
  0
VERTEX
  5
390
  8
PRETO
 10
21.75
 20
-26.0
 30
41.5
 70
    64
  0
VERTEX
  5
391
  8
PRETO
 10
22.039999999999999
 20
-26.0
 30
0.0
 70
    64
  0
VERTEX
  5
392
  8
PRETO
 10
28.440000000000001
 20
-26.0
 30
0.0
 70
    64
  0
VERTEX
  5
393
  8
PRETO
 10
39.560000000000002
 20
-26.0
 30
41.5
 70
    64
  0
VERTEX
  5
394
  8
PRETO
 10
61.840000000000011
 20
-25.0
 30
41.5
 70
    64
  0
VERTEX
  5
395
  8
PRETO
 10
72.959999999999994
 20
-25.0
 30
0.0
 70
    64
  0
VERTEX
  5
396
  8
PRETO
 10
79.359999999999985
 20
-25.0
 30
0.0
 70
    64
  0
VERTEX
  5
397
  8
PRETO
 10
79.650000000000006
 20
-25.0
 30
41.5
 70
    64
  0
VERTEX
  5
398
  8
PRETO
 10
94.799999999999997
 20
-25.0
 30
41.5
 70
    64
  0
VERTEX
  5
399
  8
PRETO
 10
79.650000000000006
 20
-5.0
 30
41.5
 70
    64
  0
VERTEX
  5
39A
  8
PRETO
 10
94.799999999999997
 20
-5.0
 30
41.5
 70
    64
  0
VERTEX
  5
39B
  8
PRETO
 10
94.799999999999997
 20
-5.0
 30
60.299999999999997
 70
    64
  0
VERTEX
  5
39C
  8
PRETO
 10
6.5999999999999988
 20
-6.0
 30
60.299999999999997
 70
    64
  0
VERTEX
  5
39D
  8
PRETO
 10
6.5999999999999988
 20
-6.0
 30
41.5
 70
    64
  0
VERTEX
  5
39E
  8
PRETO
 10
21.75
 20
-6.0
 30
41.5
 70
    64
  0
VERTEX
  5
39F
  8
PRETO
 10
22.039999999999999
 20
-6.0
 30
0.0
 70
    64
  0
VERTEX
  5
3A0
  8
PRETO
 10
28.440000000000001
 20
-6.0
 30
0.0
 70
    64
  0
VERTEX
  5
3A1
  8
PRETO
 10
39.560000000000002
 20
-6.0
 30
41.5
 70
    64
  0
VERTEX
  5
3A2
  8
PRETO
 10
61.840000000000011
 20
-5.0
 30
41.5
 70
    64
  0
VERTEX
  5
3A3
  8
PRETO
 10
72.959999999999994
 20
-5.0
 30
0.0
 70
    64
  0
VERTEX
  5
3A4
  8
PRETO
 10
79.359999999999985
 20
-5.0
 30
0.0
 70
    64
  0
VERTEX
  5
3A5
  8
PRETO
 10
79.650000000000006
 20
-5.0
 30
41.5
 70
    64
  0
VERTEX
  5
3A6
  8
PRETO
 10
94.799999999999997
 20
-5.0
 30
41.5
 70
    64
  0
SEQEND
  5
3A7
  8
PRETO
  0
POLYLINE
  5
3A8
  8
PRETO
 66
     1
 10
0.0
 20
0.0
 30
0.0
 70
    16
 71
     2
 72
     7
  0
VERTEX
  5
3A9
  8
PRETO
 10
287.0
 20
-19.0
 30
60.0
 70
    64
  0
VERTEX
  5
3AA
  8
PRETO
 10
287.0
 20
-19.0
 30
1.0
 70
    64
  0
VERTEX
  5
3AB
  8
PRETO
 10
293.0
 20
-19.0
 30
1.0
 70
    64
  0
VERTEX
  5
3AC
  8
PRETO
 10
293.0
 20
-19.0
 30
60.0
 70
    64
  0
VERTEX
  5
3AD
  8
PRETO
 10
291.5
 20
-19.0
 30
62.600000000000001
 70
    64
  0
VERTEX
  5
3AE
  8
PRETO
 10
288.5
 20
-19.0
 30
62.600000000000001
 70
    64
  0
VERTEX
  5
3AF
  8
PRETO
 10
287.0
 20
-19.0
 30
60.0
 70
    64
  0
VERTEX
  5
3B0
  8
PRETO
 10
287.0
 20
-6.0
 30
60.0
 70
    64
  0
VERTEX
  5
3B1
  8
PRETO
 10
287.0
 20
-6.0
 30
1.0
 70
    64
  0
VERTEX
  5
3B2
  8
PRETO
 10
293.0
 20
-6.0
 30
1.0
 70
    64
  0
VERTEX
  5
3B3
  8
PRETO
 10
293.0
 20
-6.0
 30
60.0
 70
    64
  0
VERTEX
  5
3B4
  8
PRETO
 10
291.5
 20
-6.0
 30
62.600000000000001
 70
    64
  0
VERTEX
  5
3B5
  8
PRETO
 10
288.5
 20
-6.0
 30
62.600000000000001
 70
    64
  0
VERTEX
  5
3B6
  8
PRETO
 10
287.0
 20
-6.0
 30
60.0
 70
    64
  0
SEQEND
  5
3B7
  8
PRETO
  0
POLYLINE
  5
3B8
  8
PRETO
 66
     1
 10
0.0
 20
0.0
 30
0.0
 70
    16
 71
     2
 72
     6
  0
VERTEX
  5
3B9
  8
PRETO
 10
101.0
 20
-5.5999999999999988
 30
0.58
 70
    64
  0
VERTEX
  5
3BA
  8
PRETO
 10
101.0
 20
-5.5999999999999988
 30
61.579999999999998
 70
    64
  0
VERTEX
  5
3BB
  8
PRETO
 10
101.0
 20
-4.2000000000000002
 30
64.0
 70
    64
  0
VERTEX
  5
3BC
  8
PRETO
 10
101.0
 20
-1.399999999999999
 30
64.0
 70
    64
  0
VERTEX
  5
3BD
  8
PRETO
 10
101.0
 20
0.0
 30
61.579999999999998
 70
    64
  0
VERTEX
  5
3BE
  8
PRETO
 10
101.0
 20
0.0
 30
0.58
 70
    64
  0
VERTEX
  5
3BF
  8
PRETO
 10
287.80000000000001
 20
-5.5999999999999988
 30
0.58
 70
    64
  0
VERTEX
  5
3C0
  8
PRETO
 10
287.80000000000001
 20
-5.5999999999999988
 30
61.579999999999998
 70
    64
  0
VERTEX
  5
3C1
  8
PRETO
 10
287.80000000000001
 20
-4.2000000000000002
 30
64.0
 70
    64
  0
VERTEX
  5
3C2
  8
PRETO
 10
287.80000000000001
 20
-1.399999999999999
 30
64.0
 70
    64
  0
VERTEX
  5
3C3
  8
PRETO
 10
287.80000000000001
 20
0.0
 30
61.579999999999998
 70
    64
  0
VERTEX
  5
3C4
  8
PRETO
 10
287.80000000000001
 20
0.0
 30
0.58
 70
    64
  0
SEQEND
  5
3C5
  8
PRETO
  0
POLYLINE
  5
3C6
  8
PRETO
 66
     1
 10
0.0
 20
0.0
 30
0.0
 70
    16
 71
     2
 72
     4
  0
VERTEX
  5
3C7
  8
PRETO
 10
9.5782426686543545
 20
-412.67651388764989
 30
31.199999999999999
 70
    64
  0
VERTEX
  5
3C8
  8
PRETO
 10
11.858252668654361
 20
-412.67651388764989
 30
23.710000000000001
 70
    64
  0
VERTEX
  5
3C9
  8
PRETO
 10
16.31824266865436
 20
-412.67651388764989
 30
17.280000000000001
 70
    64
  0
VERTEX
  5
3CA
  8
PRETO
 10
22.54824266865435
 20
-412.67651388764989
 30
12.539999999999999
 70
    64
  0
VERTEX
  5
3CB
  8
PRETO
 10
91.518242668654352
 20
-412.67651388765
 30
31.199999999999999
 70
    64
  0
VERTEX
  5
3CC
  8
PRETO
 10
89.238242668654365
 20
-412.67651388765
 30
23.710000000000001
 70
    64
  0
VERTEX
  5
3CD
  8
PRETO
 10
84.778242668654343
 20
-412.67651388765
 30
17.280000000000001
 70
    64
  0
VERTEX
  5
3CE
  8
PRETO
 10
78.548242668654353
 20
-412.67651388765
 30
12.539999999999999
 70
    64
  0
SEQEND
  5
3CF
  8
PRETO
  0
POLYLINE
  5
3D0
  8
PRETO
 66
     1
 10
0.0
 20
0.0
 30
0.0
 70
    16
 71
     2
 72
     4
  0
VERTEX
  5
3D1
  8
PRETO
 10
91.569999999999993
 20
-31.800000000000001
 30
31.199999999999999
 70
    64
  0
VERTEX
  5
3D2
  8
PRETO
 10
89.289990000000003
 20
-31.800000000000001
 30
23.710000000000001
 70
    64
  0
VERTEX
  5
3D3
  8
PRETO
 10
84.829999999999998
 20
-31.800000000000001
 30
17.280000000000001
 70
    64
  0
VERTEX
  5
3D4
  8
PRETO
 10
78.599999999999994
 20
-31.800000000000001
 30
12.539999999999999
 70
    64
  0
VERTEX
  5
3D5
  8
PRETO
 10
9.6300000000000008
 20
-31.800000000000001
 30
31.199999999999999
 70
    64
  0
VERTEX
  5
3D6
  8
PRETO
 10
11.91
 20
-31.800000000000001
 30
23.710000000000001
 70
    64
  0
VERTEX
  5
3D7
  8
PRETO
 10
16.370000000000001
 20
-31.800000000000001
 30
17.280000000000001
 70
    64
  0
VERTEX
  5
3D8
  8
PRETO
 10
22.600000000000001
 20
-31.800000000000001
 30
12.539999999999999
 70
    64
  0
SEQEND
  5
3D9
  8
PRETO
  0
POLYLINE
  5
3DA
  8
PRETO
 66
     1
 10
0.0
 20
0.0
 30
0.0
 70
    16
 71
     6
 72
     3
  0
VERTEX
  5
3DB
  8
PRETO
 10
3.339999999999999
 20
-6.0
 30
61.969999999999999
 70
    64
  0
VERTEX
  5
3DC
  8
PRETO
 10
3.399999999999999
 20
-6.0
 30
48.950000000000003
 70
    64
  0
VERTEX
  5
3DD
  8
PRETO
 10
3.399999999999999
 20
-6.0
 30
48.950000000000003
 70
    64
  0
VERTEX
  5
3DE
  8
PRETO
 10
5.0
 20
-6.0
 30
61.969999999999999
 70
    64
  0
VERTEX
  5
3DF
  8
PRETO
 10
5.0
 20
-6.0
 30
41.969999999999999
 70
    64
  0
VERTEX
  5
3E0
  8
PRETO
 10
5.0
 20
-6.0
 30
41.969999999999999
 70
    64
  0
VERTEX
  5
3E1
  8
PRETO
 10
5.0
 20
-19.0
 30
61.969999999999999
 70
    64
  0
VERTEX
  5
3E2
  8
PRETO
 10
5.0
 20
-19.0
 30
41.969999999999999
 70
    64
  0
VERTEX
  5
3E3
  8
PRETO
 10
5.0
 20
-6.0
 30
41.969999999999999
 70
    64
  0
VERTEX
  5
3E4
  8
PRETO
 10
3.339999999999999
 20
-19.0
 30
61.969999999999999
 70
    64
  0
VERTEX
  5
3E5
  8
PRETO
 10
3.399999999999999
 20
-19.0
 30
48.950000000000003
 70
    64
  0
VERTEX
  5
3E6
  8
PRETO
 10
3.399999999999999
 20
-6.0
 30
48.950000000000003
 70
    64
  0
VERTEX
  5
3E7
  8
PRETO
 10
3.339999999999999
 20
-19.0
 30
61.969999999999999
 70
    64
  0
VERTEX
  5
3E8
  8
PRETO
 10
3.339999999999999
 20
-19.0
 30
61.969999999999999
 70
    64
  0
VERTEX
  5
3E9
  8
PRETO
 10
3.339999999999999
 20
-6.0
 30
61.969999999999999
 70
    64
  0
VERTEX
  5
3EA
  8
PRETO
 10
5.0
 20
-19.0
 30
61.969999999999999
 70
    64
  0
VERTEX
  5
3EB
  8
PRETO
 10
5.0
 20
-19.0
 30
61.969999999999999
 70
    64
  0
VERTEX
  5
3EC
  8
PRETO
 10
5.0
 20
-6.0
 30
61.969999999999999
 70
    64
  0
SEQEND
  5
3ED
  8
PRETO
  0
POLYLINE
  5
3EE
  8
PRETO
 66
     1
 10
0.0
 20
0.0
 30
0.0
 70
    16
 71
     2
 72
    15
  0
VERTEX
  5
3EF
  8
PRETO
 10
470.80000000000001
 20
-325.0928002530253
 30
60.299999999999997
 70
    64
  0
VERTEX
  5
3F0
  8
PRETO
 10
470.80000000000001
 20
-325.0928002530253
 30
54.200000000000003
 70
    64
  0
VERTEX
  5
3F1
  8
PRETO
 10
472.74000000000001
 20
-325.0928002530253
 30
40.36999999999999
 70
    64
  0
VERTEX
  5
3F2
  8
PRETO
 10
474.02999999999992
 20
-325.0928002530253
 30
31.199999999999999
 70
    64
  0
VERTEX
  5
3F3
  8
PRETO
 10
476.31
 20
-325.0928002530253
 30
23.710000000000001
 70
    64
  0
VERTEX
  5
3F4
  8
PRETO
 10
480.76999999999992
 20
-325.0928002530253
 30
17.280000000000001
 70
    64
  0
VERTEX
  5
3F5
  8
PRETO
 10
487.0
 20
-325.0928002530253
 30
12.539999999999999
 70
    64
  0
VERTEX
  5
3F6
  8
PRETO
 10
543.0
 20
-325.0928002530253
 30
12.539999999999999
 70
    64
  0
VERTEX
  5
3F7
  8
PRETO
 10
549.23000000000002
 20
-325.0928002530253
 30
17.280000000000001
 70
    64
  0
VERTEX
  5
3F8
  8
PRETO
 10
553.69000000000005
 20
-325.0928002530253
 30
23.710000000000001
 70
    64
  0
VERTEX
  5
3F9
  8
PRETO
 10
555.97000000000003
 20
-325.0928002530253
 30
31.199999999999999
 70
    64
  0
VERTEX
  5
3FA
  8
PRETO
 10
557.25999999999999
 20
-325.0928002530253
 30
40.36999999999999
 70
    64
  0
VERTEX
  5
3FB
  8
PRETO
 10
559.20000000000005
 20
-325.0928002530253
 30
54.200000000000003
 70
    64
  0
VERTEX
  5
3FC
  8
PRETO
 10
559.20000000000005
 20
-325.0928002530253
 30
60.299999999999997
 70
    64
  0
VERTEX
  5
3FD
  8
PRETO
 10
470.80000000000001
 20
-325.0928002530253
 30
60.299999999999997
 70
    64
  0
VERTEX
  5
3FE
  8
PRETO
 10
470.80000000000001
 20
-319.0928002530253
 30
60.299999999999997
 70
    64
  0
VERTEX
  5
3FF
  8
PRETO
 10
470.80000000000001
 20
-319.0928002530253
 30
54.200000000000003
 70
    64
  0
VERTEX
  5
400
  8
PRETO
 10
472.74000000000001
 20
-319.0928002530253
 30
40.36999999999999
 70
    64
  0
VERTEX
  5
401
  8
PRETO
 10
474.02999999999992
 20
-319.0928002530253
 30
31.199999999999999
 70
    64
  0
VERTEX
  5
402
  8
PRETO
 10
476.31
 20
-319.0928002530253
 30
23.710000000000001
 70
    64
  0
VERTEX
  5
403
  8
PRETO
 10
480.76999999999992
 20
-319.0928002530253
 30
17.280000000000001
 70
    64
  0
VERTEX
  5
404
  8
PRETO
 10
487.0
 20
-319.0928002530253
 30
12.539999999999999
 70
    64
  0
VERTEX
  5
405
  8
PRETO
 10
543.0
 20
-319.0928002530253
 30
12.539999999999999
 70
    64
  0
VERTEX
  5
406
  8
PRETO
 10
549.23000000000002
 20
-319.0928002530253
 30
17.280000000000001
 70
    64
  0
VERTEX
  5
407
  8
PRETO
 10
553.69000000000005
 20
-319.0928002530253
 30
23.710000000000001
 70
    64
  0
VERTEX
  5
408
  8
PRETO
 10
555.97000000000003
 20
-319.0928002530253
 30
31.199999999999999
 70
    64
  0
VERTEX
  5
409
  8
PRETO
 10
557.25999999999999
 20
-319.0928002530253
 30
40.36999999999999
 70
    64
  0
VERTEX
  5
40A
  8
PRETO
 10
559.20000000000005
 20
-319.0928002530253
 30
54.200000000000003
 70
    64
  0
VERTEX
  5
40B
  8
PRETO
 10
559.20000000000005
 20
-319.0928002530253
 30
60.299999999999997
 70
    64
  0
VERTEX
  5
40C
  8
PRETO
 10
470.80000000000001
 20
-319.0928002530253
 30
60.299999999999997
 70
    64
  0
SEQEND
  5
40D
  8
PRETO
  0
POLYLINE
  5
40E
  8
PRETO
 66
     1
 10
0.0
 20
0.0
 30
0.0
 70
    16
 71
     2
 72
    15
  0
VERTEX
  5
40F
  8
PRETO
 10
382.39999999999998
 20
-325.0928002530253
 30
60.299999999999997
 70
    64
  0
VERTEX
  5
410
  8
PRETO
 10
382.39999999999998
 20
-325.0928002530253
 30
54.200000000000003
 70
    64
  0
VERTEX
  5
411
  8
PRETO
 10
384.33999999999997
 20
-325.0928002530253
 30
40.36999999999999
 70
    64
  0
VERTEX
  5
412
  8
PRETO
 10
385.63
 20
-325.0928002530253
 30
31.199999999999999
 70
    64
  0
VERTEX
  5
413
  8
PRETO
 10
387.91000000000003
 20
-325.0928002530253
 30
23.710000000000001
 70
    64
  0
VERTEX
  5
414
  8
PRETO
 10
392.37
 20
-325.0928002530253
 30
17.280000000000001
 70
    64
  0
VERTEX
  5
415
  8
PRETO
 10
398.60000000000002
 20
-325.0928002530253
 30
12.539999999999999
 70
    64
  0
VERTEX
  5
416
  8
PRETO
 10
454.60000000000002
 20
-325.0928002530253
 30
12.539999999999999
 70
    64
  0
VERTEX
  5
417
  8
PRETO
 10
460.82999999999993
 20
-325.0928002530253
 30
17.280000000000001
 70
    64
  0
VERTEX
  5
418
  8
PRETO
 10
465.29000000000002
 20
-325.0928002530253
 30
23.710000000000001
 70
    64
  0
VERTEX
  5
419
  8
PRETO
 10
467.56999999999988
 20
-325.0928002530253
 30
31.199999999999999
 70
    64
  0
VERTEX
  5
41A
  8
PRETO
 10
468.86000000000001
 20
-325.0928002530253
 30
40.36999999999999
 70
    64
  0
VERTEX
  5
41B
  8
PRETO
 10
470.80000000000001
 20
-325.0928002530253
 30
54.200000000000003
 70
    64
  0
VERTEX
  5
41C
  8
PRETO
 10
470.80000000000001
 20
-325.0928002530253
 30
60.299999999999997
 70
    64
  0
VERTEX
  5
41D
  8
PRETO
 10
382.39999999999998
 20
-325.0928002530253
 30
60.299999999999997
 70
    64
  0
VERTEX
  5
41E
  8
PRETO
 10
382.39999999999998
 20
-319.0928002530253
 30
60.299999999999997
 70
    64
  0
VERTEX
  5
41F
  8
PRETO
 10
382.39999999999998
 20
-319.0928002530253
 30
54.200000000000003
 70
    64
  0
VERTEX
  5
420
  8
PRETO
 10
384.33999999999997
 20
-319.0928002530253
 30
40.36999999999999
 70
    64
  0
VERTEX
  5
421
  8
PRETO
 10
385.63
 20
-319.0928002530253
 30
31.199999999999999
 70
    64
  0
VERTEX
  5
422
  8
PRETO
 10
387.91000000000003
 20
-319.0928002530253
 30
23.710000000000001
 70
    64
  0
VERTEX
  5
423
  8
PRETO
 10
392.37
 20
-319.0928002530253
 30
17.280000000000001
 70
    64
  0
VERTEX
  5
424
  8
PRETO
 10
398.60000000000002
 20
-319.0928002530253
 30
12.539999999999999
 70
    64
  0
VERTEX
  5
425
  8
PRETO
 10
454.60000000000002
 20
-319.0928002530253
 30
12.539999999999999
 70
    64
  0
VERTEX
  5
426
  8
PRETO
 10
460.82999999999993
 20
-319.0928002530253
 30
17.280000000000001
 70
    64
  0
VERTEX
  5
427
  8
PRETO
 10
465.29000000000002
 20
-319.0928002530253
 30
23.710000000000001
 70
    64
  0
VERTEX
  5
428
  8
PRETO
 10
467.56999999999988
 20
-319.0928002530253
 30
31.199999999999999
 70
    64
  0
VERTEX
  5
429
  8
PRETO
 10
468.86000000000001
 20
-319.0928002530253
 30
40.36999999999999
 70
    64
  0
VERTEX
  5
42A
  8
PRETO
 10
470.80000000000001
 20
-319.0928002530253
 30
54.200000000000003
 70
    64
  0
VERTEX
  5
42B
  8
PRETO
 10
470.80000000000001
 20
-319.0928002530253
 30
60.299999999999997
 70
    64
  0
VERTEX
  5
42C
  8
PRETO
 10
382.39999999999998
 20
-319.0928002530253
 30
60.299999999999997
 70
    64
  0
SEQEND
  5
42D
  8
PRETO
  0
POLYLINE
  5
4D6
  8
PRETO
 66
     1
 10
0.0
 20
0.0
 30
0.0
 70
    16
 71
     2
 72
     4
  0
VERTEX
  5
4D7
  8
PRETO
 10
385.63
 20
-319.0928002530253
 30
31.199999999999999
 70
    64
  0
VERTEX
  5
4D8
  8
PRETO
 10
387.91000000000003
 20
-319.0928002530253
 30
23.710000000000001
 70
    64
  0
VERTEX
  5
4D9
  8
PRETO
 10
392.37
 20
-319.0928002530253
 30
17.280000000000001
 70
    64
  0
VERTEX
  5
4DA
  8
PRETO
 10
398.60000000000002
 20
-319.0928002530253
 30
12.539999999999999
 70
    64
  0
VERTEX
  5
4DB
  8
PRETO
 10
467.56999999999988
 20
-319.0928002530253
 30
31.199999999999999
 70
    64
  0
VERTEX
  5
4DC
  8
PRETO
 10
465.29000000000002
 20
-319.0928002530253
 30
23.710000000000001
 70
    64
  0
VERTEX
  5
4DD
  8
PRETO
 10
460.82999999999993
 20
-319.0928002530253
 30
17.280000000000001
 70
    64
  0
VERTEX
  5
4DE
  8
PRETO
 10
454.60000000000002
 20
-319.0928002530253
 30
12.539999999999999
 70
    64
  0
SEQEND
  5
4DF
  8
PRETO
  0
POLYLINE
  5
4E0
  8
PRETO
 66
     1
 10
0.0
 20
0.0
 30
0.0
 70
    16
 71
     2
 72
     4
  0
VERTEX
  5
4E1
  8
PRETO
 10
385.63
 20
-325.0928002530253
 30
31.199999999999999
 70
    64
  0
VERTEX
  5
4E2
  8
PRETO
 10
387.91000000000003
 20
-325.0928002530253
 30
23.710000000000001
 70
    64
  0
VERTEX
  5
4E3
  8
PRETO
 10
392.37
 20
-325.0928002530253
 30
17.280000000000001
 70
    64
  0
VERTEX
  5
4E4
  8
PRETO
 10
398.60000000000002
 20
-325.0928002530253
 30
12.539999999999999
 70
    64
  0
VERTEX
  5
4E5
  8
PRETO
 10
467.56999999999988
 20
-325.0928002530253
 30
31.199999999999999
 70
    64
  0
VERTEX
  5
4E6
  8
PRETO
 10
465.29000000000002
 20
-325.0928002530253
 30
23.710000000000001
 70
    64
  0
VERTEX
  5
4E7
  8
PRETO
 10
460.82999999999993
 20
-325.0928002530253
 30
17.280000000000001
 70
    64
  0
VERTEX
  5
4E8
  8
PRETO
 10
454.60000000000002
 20
-325.0928002530253
 30
12.539999999999999
 70
    64
  0
SEQEND
  5
4E9
  8
PRETO
  0
POLYLINE
  5
4F4
  8
PRETO
 66
     1
 10
0.0
 20
0.0
 30
0.0
 70
    16
 71
     2
 72
     4
  0
VERTEX
  5
4F5
  8
PRETO
 10
559.0
 20
-322.37
 30
31.199999999999999
 70
    64
  0
VERTEX
  5
4F6
  8
PRETO
 10
559.0
 20
-320.08999999999997
 30
23.710000000000001
 70
    64
  0
VERTEX
  5
4F7
  8
PRETO
 10
559.0
 20
-315.63
 30
17.280000000000001
 70
    64
  0
VERTEX
  5
4F8
  8
PRETO
 10
559.0
 20
-309.39999999999998
 30
12.539999999999999
 70
    64
  0
VERTEX
  5
4F9
  8
PRETO
 10
559.0
 20
-240.43000000000001
 30
31.199999999999999
 70
    64
  0
VERTEX
  5
4FA
  8
PRETO
 10
559.0
 20
-242.71000000000001
 30
23.710000000000001
 70
    64
  0
VERTEX
  5
4FB
  8
PRETO
 10
559.0
 20
-247.16999999999999
 30
17.280000000000001
 70
    64
  0
VERTEX
  5
4FC
  8
PRETO
 10
559.0
 20
-253.40000000000001
 30
12.539999999999999
 70
    64
  0
SEQEND
  5
4FD
  8
PRETO
  0
POLYLINE
  5
508
  8
PRETO
 66
     1
 10
0.0
 20
0.0
 30
0.0
 70
    16
 71
     2
 72
     4
  0
VERTEX
  5
509
  8
PRETO
 10
559.0
 20
-328.82999999999998
 30
31.199999999999999
 70
    64
  0
VERTEX
  5
50A
  8
PRETO
 10
559.0
 20
-331.11000000000001
 30
23.710000000000001
 70
    64
  0
VERTEX
  5
50B
  8
PRETO
 10
559.0
 20
-335.56999999999999
 30
17.280000000000001
 70
    64
  0
VERTEX
  5
50C
  8
PRETO
 10
559.0
 20
-341.80000000000001
 30
12.539999999999999
 70
    64
  0
VERTEX
  5
50D
  8
PRETO
 10
559.0
 20
-410.76999999999992
 30
31.199999999999999
 70
    64
  0
VERTEX
  5
50E
  8
PRETO
 10
559.0
 20
-408.49000000000001
 30
23.710000000000001
 70
    64
  0
VERTEX
  5
50F
  8
PRETO
 10
559.0
 20
-404.02999999999997
 30
17.280000000000001
 70
    64
  0
VERTEX
  5
510
  8
PRETO
 10
559.0
 20
-397.80000000000001
 30
12.539999999999999
 70
    64
  0
SEQEND
  5
511
  8
PRETO
  0
POLYLINE
  5
512
  8
PRETO
 66
     1
 10
0.0
 20
0.0
 30
0.0
 70
    16
 71
     2
 72
     4
  0
VERTEX
  5
513
  8
PRETO
 10
474.02999999999992
 20
-319.0928002530253
 30
31.199999999999999
 70
    64
  0
VERTEX
  5
514
  8
PRETO
 10
476.31
 20
-319.0928002530253
 30
23.710000000000001
 70
    64
  0
VERTEX
  5
515
  8
PRETO
 10
480.76999999999992
 20
-319.0928002530253
 30
17.280000000000001
 70
    64
  0
VERTEX
  5
516
  8
PRETO
 10
487.0
 20
-319.0928002530253
 30
12.539999999999999
 70
    64
  0
VERTEX
  5
517
  8
PRETO
 10
555.97000000000003
 20
-319.0928002530253
 30
31.199999999999999
 70
    64
  0
VERTEX
  5
518
  8
PRETO
 10
553.69000000000005
 20
-319.0928002530253
 30
23.710000000000001
 70
    64
  0
VERTEX
  5
519
  8
PRETO
 10
549.23000000000002
 20
-319.0928002530253
 30
17.280000000000001
 70
    64
  0
VERTEX
  5
51A
  8
PRETO
 10
543.0
 20
-319.0928002530253
 30
12.539999999999999
 70
    64
  0
SEQEND
  5
51B
  8
PRETO
  0
POLYLINE
  5
51C
  8
PRETO
 66
     1
 10
0.0
 20
0.0
 30
0.0
 70
    16
 71
     2
 72
     4
  0
VERTEX
  5
51D
  8
PRETO
 10
474.02999999999992
 20
-325.0928002530253
 30
31.199999999999999
 70
    64
  0
VERTEX
  5
51E
  8
PRETO
 10
476.31
 20
-325.0928002530253
 30
23.710000000000001
 70
    64
  0
VERTEX
  5
51F
  8
PRETO
 10
480.76999999999992
 20
-325.0928002530253
 30
17.280000000000001
 70
    64
  0
VERTEX
  5
520
  8
PRETO
 10
487.0
 20
-325.0928002530253
 30
12.539999999999999
 70
    64
  0
VERTEX
  5
521
  8
PRETO
 10
555.97000000000003
 20
-325.0928002530253
 30
31.199999999999999
 70
    64
  0
VERTEX
  5
522
  8
PRETO
 10
553.69000000000005
 20
-325.0928002530253
 30
23.710000000000001
 70
    64
  0
VERTEX
  5
523
  8
PRETO
 10
549.23000000000002
 20
-325.0928002530253
 30
17.280000000000001
 70
    64
  0
VERTEX
  5
524
  8
PRETO
 10
543.0
 20
-325.0928002530253
 30
12.539999999999999
 70
    64
  0
SEQEND
  5
525
  8
PRETO
  0
POLYLINE
  5
526
  8
PRETO
 66
     1
 10
0.0
 20
0.0
 30
0.0
 70
    16
 71
     6
 72
     3
  0
VERTEX
  5
527
  8
PRETO
 10
562.46000000000004
 20
-414.0
 30
61.969999999999999
 70
    64
  0
VERTEX
  5
528
  8
PRETO
 10
562.39999999999986
 20
-414.0
 30
48.950000000000003
 70
    64
  0
VERTEX
  5
529
  8
PRETO
 10
562.39999999999986
 20
-414.0
 30
48.950000000000003
 70
    64
  0
VERTEX
  5
52A
  8
PRETO
 10
560.79999999999995
 20
-414.0
 30
61.969999999999999
 70
    64
  0
VERTEX
  5
52B
  8
PRETO
 10
560.79999999999995
 20
-414.0
 30
41.969999999999999
 70
    64
  0
VERTEX
  5
52C
  8
PRETO
 10
560.79999999999995
 20
-414.0
 30
41.969999999999999
 70
    64
  0
VERTEX
  5
52D
  8
PRETO
 10
560.79999999999995
 20
-401.0
 30
61.969999999999999
 70
    64
  0
VERTEX
  5
52E
  8
PRETO
 10
560.79999999999995
 20
-401.0
 30
41.969999999999999
 70
    64
  0
VERTEX
  5
52F
  8
PRETO
 10
560.79999999999995
 20
-414.0
 30
41.969999999999999
 70
    64
  0
VERTEX
  5
530
  8
PRETO
 10
562.46000000000004
 20
-401.0
 30
61.969999999999999
 70
    64
  0
VERTEX
  5
531
  8
PRETO
 10
562.39999999999986
 20
-401.0
 30
48.950000000000003
 70
    64
  0
VERTEX
  5
532
  8
PRETO
 10
562.39999999999986
 20
-414.0
 30
48.950000000000003
 70
    64
  0
VERTEX
  5
533
  8
PRETO
 10
562.46000000000004
 20
-401.0
 30
61.969999999999999
 70
    64
  0
VERTEX
  5
534
  8
PRETO
 10
562.46000000000004
 20
-401.0
 30
61.969999999999999
 70
    64
  0
VERTEX
  5
535
  8
PRETO
 10
562.46000000000004
 20
-414.0
 30
61.969999999999999
 70
    64
  0
VERTEX
  5
536
  8
PRETO
 10
560.79999999999995
 20
-401.0
 30
61.969999999999999
 70
    64
  0
VERTEX
  5
537
  8
PRETO
 10
560.79999999999995
 20
-401.0
 30
61.969999999999999
 70
    64
  0
VERTEX
  5
538
  8
PRETO
 10
560.79999999999995
 20
-414.0
 30
61.969999999999999
 70
    64
  0
SEQEND
  5
539
  8
PRETO
  0
POLYLINE
  5
53A
  8
PRETO
 66
     1
 10
0.0
 20
0.0
 30
0.0
 70
    16
 71
     2
 72
    15
  0
VERTEX
  5
53B
  8
PRETO
 10
470.80000000000001
 20
-114.49280025302529
 30
60.299999999999997
 70
    64
  0
VERTEX
  5
53C
  8
PRETO
 10
470.80000000000001
 20
-114.49280025302529
 30
54.200000000000003
 70
    64
  0
VERTEX
  5
53D
  8
PRETO
 10
472.74000000000001
 20
-114.49280025302529
 30
40.36999999999999
 70
    64
  0
VERTEX
  5
53E
  8
PRETO
 10
474.02999999999992
 20
-114.49280025302529
 30
31.199999999999999
 70
    64
  0
VERTEX
  5
53F
  8
PRETO
 10
476.31
 20
-114.49280025302529
 30
23.710000000000001
 70
    64
  0
VERTEX
  5
540
  8
PRETO
 10
480.76999999999992
 20
-114.49280025302529
 30
17.280000000000001
 70
    64
  0
VERTEX
  5
541
  8
PRETO
 10
487.0
 20
-114.49280025302529
 30
12.539999999999999
 70
    64
  0
VERTEX
  5
542
  8
PRETO
 10
543.0
 20
-114.49280025302529
 30
12.539999999999999
 70
    64
  0
VERTEX
  5
543
  8
PRETO
 10
549.23000000000002
 20
-114.49280025302529
 30
17.280000000000001
 70
    64
  0
VERTEX
  5
544
  8
PRETO
 10
553.69000000000005
 20
-114.49280025302529
 30
23.710000000000001
 70
    64
  0
VERTEX
  5
545
  8
PRETO
 10
555.97000000000003
 20
-114.49280025302529
 30
31.199999999999999
 70
    64
  0
VERTEX
  5
546
  8
PRETO
 10
557.25999999999999
 20
-114.49280025302529
 30
40.36999999999999
 70
    64
  0
VERTEX
  5
547
  8
PRETO
 10
559.20000000000005
 20
-114.49280025302529
 30
54.200000000000003
 70
    64
  0
VERTEX
  5
548
  8
PRETO
 10
559.20000000000005
 20
-114.49280025302529
 30
60.299999999999997
 70
    64
  0
VERTEX
  5
549
  8
PRETO
 10
470.80000000000001
 20
-114.49280025302529
 30
60.299999999999997
 70
    64
  0
VERTEX
  5
54A
  8
PRETO
 10
470.80000000000001
 20
-120.49280025302529
 30
60.299999999999997
 70
    64
  0
VERTEX
  5
54B
  8
PRETO
 10
470.80000000000001
 20
-120.49280025302529
 30
54.200000000000003
 70
    64
  0
VERTEX
  5
54C
  8
PRETO
 10
472.74000000000001
 20
-120.49280025302529
 30
40.36999999999999
 70
    64
  0
VERTEX
  5
54D
  8
PRETO
 10
474.02999999999992
 20
-120.49280025302529
 30
31.199999999999999
 70
    64
  0
VERTEX
  5
54E
  8
PRETO
 10
476.31
 20
-120.49280025302529
 30
23.710000000000001
 70
    64
  0
VERTEX
  5
54F
  8
PRETO
 10
480.76999999999992
 20
-120.49280025302529
 30
17.280000000000001
 70
    64
  0
VERTEX
  5
550
  8
PRETO
 10
487.0
 20
-120.49280025302529
 30
12.539999999999999
 70
    64
  0
VERTEX
  5
551
  8
PRETO
 10
543.0
 20
-120.49280025302529
 30
12.539999999999999
 70
    64
  0
VERTEX
  5
552
  8
PRETO
 10
549.23000000000002
 20
-120.49280025302529
 30
17.280000000000001
 70
    64
  0
VERTEX
  5
553
  8
PRETO
 10
553.69000000000005
 20
-120.49280025302529
 30
23.710000000000001
 70
    64
  0
VERTEX
  5
554
  8
PRETO
 10
555.97000000000003
 20
-120.49280025302529
 30
31.199999999999999
 70
    64
  0
VERTEX
  5
555
  8
PRETO
 10
557.25999999999999
 20
-120.49280025302529
 30
40.36999999999999
 70
    64
  0
VERTEX
  5
556
  8
PRETO
 10
559.20000000000005
 20
-120.49280025302529
 30
54.200000000000003
 70
    64
  0
VERTEX
  5
557
  8
PRETO
 10
559.20000000000005
 20
-120.49280025302529
 30
60.299999999999997
 70
    64
  0
VERTEX
  5
558
  8
PRETO
 10
470.80000000000001
 20
-120.49280025302529
 30
60.299999999999997
 70
    64
  0
SEQEND
  5
559
  8
PRETO
  0
POLYLINE
  5
55A
  8
PRETO
 66
     1
 10
0.0
 20
0.0
 30
0.0
 70
    16
 71
     2
 72
    15
  0
VERTEX
  5
55B
  8
PRETO
 10
382.39999999999998
 20
-114.49280025302529
 30
60.299999999999997
 70
    64
  0
VERTEX
  5
55C
  8
PRETO
 10
382.39999999999998
 20
-114.49280025302529
 30
54.200000000000003
 70
    64
  0
VERTEX
  5
55D
  8
PRETO
 10
384.33999999999997
 20
-114.49280025302529
 30
40.36999999999999
 70
    64
  0
VERTEX
  5
55E
  8
PRETO
 10
385.63
 20
-114.49280025302529
 30
31.199999999999999
 70
    64
  0
VERTEX
  5
55F
  8
PRETO
 10
387.91000000000003
 20
-114.49280025302529
 30
23.710000000000001
 70
    64
  0
VERTEX
  5
560
  8
PRETO
 10
392.37
 20
-114.49280025302529
 30
17.280000000000001
 70
    64
  0
VERTEX
  5
561
  8
PRETO
 10
398.60000000000002
 20
-114.49280025302529
 30
12.539999999999999
 70
    64
  0
VERTEX
  5
562
  8
PRETO
 10
454.60000000000002
 20
-114.49280025302529
 30
12.539999999999999
 70
    64
  0
VERTEX
  5
563
  8
PRETO
 10
460.82999999999993
 20
-114.49280025302529
 30
17.280000000000001
 70
    64
  0
VERTEX
  5
564
  8
PRETO
 10
465.29000000000002
 20
-114.49280025302529
 30
23.710000000000001
 70
    64
  0
VERTEX
  5
565
  8
PRETO
 10
467.56999999999988
 20
-114.49280025302529
 30
31.199999999999999
 70
    64
  0
VERTEX
  5
566
  8
PRETO
 10
468.86000000000001
 20
-114.49280025302529
 30
40.36999999999999
 70
    64
  0
VERTEX
  5
567
  8
PRETO
 10
470.80000000000001
 20
-114.49280025302529
 30
54.200000000000003
 70
    64
  0
VERTEX
  5
568
  8
PRETO
 10
470.80000000000001
 20
-114.49280025302529
 30
60.299999999999997
 70
    64
  0
VERTEX
  5
569
  8
PRETO
 10
382.39999999999998
 20
-114.49280025302529
 30
60.299999999999997
 70
    64
  0
VERTEX
  5
56A
  8
PRETO
 10
382.39999999999998
 20
-120.49280025302529
 30
60.299999999999997
 70
    64
  0
VERTEX
  5
56B
  8
PRETO
 10
382.39999999999998
 20
-120.49280025302529
 30
54.200000000000003
 70
    64
  0
VERTEX
  5
56C
  8
PRETO
 10
384.33999999999997
 20
-120.49280025302529
 30
40.36999999999999
 70
    64
  0
VERTEX
  5
56D
  8
PRETO
 10
385.63
 20
-120.49280025302529
 30
31.199999999999999
 70
    64
  0
VERTEX
  5
56E
  8
PRETO
 10
387.91000000000003
 20
-120.49280025302529
 30
23.710000000000001
 70
    64
  0
VERTEX
  5
56F
  8
PRETO
 10
392.37
 20
-120.49280025302529
 30
17.280000000000001
 70
    64
  0
VERTEX
  5
570
  8
PRETO
 10
398.60000000000002
 20
-120.49280025302529
 30
12.539999999999999
 70
    64
  0
VERTEX
  5
571
  8
PRETO
 10
454.60000000000002
 20
-120.49280025302529
 30
12.539999999999999
 70
    64
  0
VERTEX
  5
572
  8
PRETO
 10
460.82999999999993
 20
-120.49280025302529
 30
17.280000000000001
 70
    64
  0
VERTEX
  5
573
  8
PRETO
 10
465.29000000000002
 20
-120.49280025302529
 30
23.710000000000001
 70
    64
  0
VERTEX
  5
574
  8
PRETO
 10
467.56999999999988
 20
-120.49280025302529
 30
31.199999999999999
 70
    64
  0
VERTEX
  5
575
  8
PRETO
 10
468.86000000000001
 20
-120.49280025302529
 30
40.36999999999999
 70
    64
  0
VERTEX
  5
576
  8
PRETO
 10
470.80000000000001
 20
-120.49280025302529
 30
54.200000000000003
 70
    64
  0
VERTEX
  5
577
  8
PRETO
 10
470.80000000000001
 20
-120.49280025302529
 30
60.299999999999997
 70
    64
  0
VERTEX
  5
578
  8
PRETO
 10
382.39999999999998
 20
-120.49280025302529
 30
60.299999999999997
 70
    64
  0
SEQEND
  5
579
  8
PRETO
  0
POLYLINE
  5
57A
  8
PRETO
 66
     1
 10
0.0
 20
0.0
 30
0.0
 70
    16
 71
     2
 72
     4
  0
VERTEX
  5
57B
  8
PRETO
 10
385.63
 20
-26.800000000000001
 30
31.199999999999999
 70
    64
  0
VERTEX
  5
57C
  8
PRETO
 10
387.91000000000003
 20
-26.800000000000001
 30
23.710000000000001
 70
    64
  0
VERTEX
  5
57D
  8
PRETO
 10
392.37
 20
-26.800000000000001
 30
17.280000000000001
 70
    64
  0
VERTEX
  5
57E
  8
PRETO
 10
398.60000000000002
 20
-26.800000000000001
 30
12.539999999999999
 70
    64
  0
VERTEX
  5
57F
  8
PRETO
 10
467.56999999999988
 20
-26.800000000000001
 30
31.199999999999999
 70
    64
  0
VERTEX
  5
580
  8
PRETO
 10
465.29000000000002
 20
-26.800000000000001
 30
23.710000000000001
 70
    64
  0
VERTEX
  5
581
  8
PRETO
 10
460.82999999999993
 20
-26.800000000000001
 30
17.280000000000001
 70
    64
  0
VERTEX
  5
582
  8
PRETO
 10
454.60000000000002
 20
-26.800000000000001
 30
12.539999999999999
 70
    64
  0
SEQEND
  5
583
  8
PRETO
  0
POLYLINE
  5
584
  8
PRETO
 66
     1
 10
0.0
 20
0.0
 30
0.0
 70
    16
 71
     2
 72
     4
  0
VERTEX
  5
585
  8
PRETO
 10
385.63
 20
-120.49280025302529
 30
31.199999999999999
 70
    64
  0
VERTEX
  5
586
  8
PRETO
 10
387.91000000000003
 20
-120.49280025302529
 30
23.710000000000001
 70
    64
  0
VERTEX
  5
587
  8
PRETO
 10
392.37
 20
-120.49280025302529
 30
17.280000000000001
 70
    64
  0
VERTEX
  5
588
  8
PRETO
 10
398.60000000000002
 20
-120.49280025302529
 30
12.539999999999999
 70
    64
  0
VERTEX
  5
589
  8
PRETO
 10
467.56999999999988
 20
-120.49280025302529
 30
31.199999999999999
 70
    64
  0
VERTEX
  5
58A
  8
PRETO
 10
465.29000000000002
 20
-120.49280025302529
 30
23.710000000000001
 70
    64
  0
VERTEX
  5
58B
  8
PRETO
 10
460.82999999999993
 20
-120.49280025302529
 30
17.280000000000001
 70
    64
  0
VERTEX
  5
58C
  8
PRETO
 10
454.60000000000002
 20
-120.49280025302529
 30
12.539999999999999
 70
    64
  0
SEQEND
  5
58D
  8
PRETO
  0
POLYLINE
  5
58E
  8
PRETO
 66
     1
 10
0.0
 20
0.0
 30
0.0
 70
    16
 71
     2
 72
     4
  0
VERTEX
  5
58F
  8
PRETO
 10
474.02999999999992
 20
-26.800000000000001
 30
31.199999999999999
 70
    64
  0
VERTEX
  5
590
  8
PRETO
 10
476.31
 20
-26.800000000000001
 30
23.710000000000001
 70
    64
  0
VERTEX
  5
591
  8
PRETO
 10
480.76999999999992
 20
-26.800000000000001
 30
17.280000000000001
 70
    64
  0
VERTEX
  5
592
  8
PRETO
 10
487.0
 20
-26.800000000000001
 30
12.539999999999999
 70
    64
  0
VERTEX
  5
593
  8
PRETO
 10
555.97000000000003
 20
-26.800000000000001
 30
31.199999999999999
 70
    64
  0
VERTEX
  5
594
  8
PRETO
 10
553.69000000000005
 20
-26.800000000000001
 30
23.710000000000001
 70
    64
  0
VERTEX
  5
595
  8
PRETO
 10
549.23000000000002
 20
-26.800000000000001
 30
17.280000000000001
 70
    64
  0
VERTEX
  5
596
  8
PRETO
 10
543.0
 20
-26.800000000000001
 30
12.539999999999999
 70
    64
  0
SEQEND
  5
597
  8
PRETO
  0
POLYLINE
  5
598
  8
PRETO
 66
     1
 10
0.0
 20
0.0
 30
0.0
 70
    16
 71
     2
 72
     4
  0
VERTEX
  5
599
  8
PRETO
 10
474.02999999999992
 20
-120.49280025302529
 30
31.199999999999999
 70
    64
  0
VERTEX
  5
59A
  8
PRETO
 10
476.31
 20
-120.49280025302529
 30
23.710000000000001
 70
    64
  0
VERTEX
  5
59B
  8
PRETO
 10
480.76999999999992
 20
-120.49280025302529
 30
17.280000000000001
 70
    64
  0
VERTEX
  5
59C
  8
PRETO
 10
487.0
 20
-120.49280025302529
 30
12.539999999999999
 70
    64
  0
VERTEX
  5
59D
  8
PRETO
 10
555.97000000000003
 20
-120.49280025302529
 30
31.199999999999999
 70
    64
  0
VERTEX
  5
59E
  8
PRETO
 10
553.69000000000005
 20
-120.49280025302529
 30
23.710000000000001
 70
    64
  0
VERTEX
  5
59F
  8
PRETO
 10
549.23000000000002
 20
-120.49280025302529
 30
17.280000000000001
 70
    64
  0
VERTEX
  5
5A0
  8
PRETO
 10
543.0
 20
-120.49280025302529
 30
12.539999999999999
 70
    64
  0
SEQEND
  5
5A1
  8
PRETO
  0
POLYLINE
  5
5A2
  8
PRETO
 66
     1
 10
0.0
 20
0.0
 30
0.0
 70
    16
 71
     6
 72
     3
  0
VERTEX
  5
5A3
  8
PRETO
 10
562.46000000000004
 20
-6.0
 30
61.969999999999999
 70
    64
  0
VERTEX
  5
5A4
  8
PRETO
 10
562.39999999999986
 20
-6.0
 30
48.950000000000003
 70
    64
  0
VERTEX
  5
5A5
  8
PRETO
 10
562.39999999999986
 20
-6.0
 30
48.950000000000003
 70
    64
  0
VERTEX
  5
5A6
  8
PRETO
 10
560.79999999999995
 20
-6.0
 30
61.969999999999999
 70
    64
  0
VERTEX
  5
5A7
  8
PRETO
 10
560.79999999999995
 20
-6.0
 30
41.969999999999999
 70
    64
  0
VERTEX
  5
5A8
  8
PRETO
 10
560.79999999999995
 20
-6.0
 30
41.969999999999999
 70
    64
  0
VERTEX
  5
5A9
  8
PRETO
 10
560.79999999999995
 20
-19.0
 30
61.969999999999999
 70
    64
  0
VERTEX
  5
5AA
  8
PRETO
 10
560.79999999999995
 20
-19.0
 30
41.969999999999999
 70
    64
  0
VERTEX
  5
5AB
  8
PRETO
 10
560.79999999999995
 20
-6.0
 30
41.969999999999999
 70
    64
  0
VERTEX
  5
5AC
  8
PRETO
 10
562.46000000000004
 20
-19.0
 30
61.969999999999999
 70
    64
  0
VERTEX
  5
5AD
  8
PRETO
 10
562.39999999999986
 20
-19.0
 30
48.950000000000003
 70
    64
  0
VERTEX
  5
5AE
  8
PRETO
 10
562.39999999999986
 20
-6.0
 30
48.950000000000003
 70
    64
  0
VERTEX
  5
5AF
  8
PRETO
 10
562.46000000000004
 20
-19.0
 30
61.969999999999999
 70
    64
  0
VERTEX
  5
5B0
  8
PRETO
 10
562.46000000000004
 20
-19.0
 30
61.969999999999999
 70
    64
  0
VERTEX
  5
5B1
  8
PRETO
 10
562.46000000000004
 20
-6.0
 30
61.969999999999999
 70
    64
  0
VERTEX
  5
5B2
  8
PRETO
 10
560.79999999999995
 20
-19.0
 30
61.969999999999999
 70
    64
  0
VERTEX
  5
5B3
  8
PRETO
 10
560.79999999999995
 20
-19.0
 30
61.969999999999999
 70
    64
  0
VERTEX
  5
5B4
  8
PRETO
 10
560.79999999999995
 20
-6.0
 30
61.969999999999999
 70
    64
  0
SEQEND
  5
5B5
  8
PRETO
  0
POLYLINE
  5
5B6
  8
CINZA
 66
     1
 10
0.0
 20
0.0
 30
0.0
 70
    16
 71
     2
 72
    23
  0
VERTEX
  5
5B7
  8
CINZA
 10
294.20999999999998
 20
-120.49280025302529
 30
57.090000000000003
 70
    64
  0
VERTEX
  5
5B8
  8
CINZA
 10
294.07999999999998
 20
-120.49280025302529
 30
58.079999999999991
 70
    64
  0
VERTEX
  5
5B9
  8
CINZA
 10
294.37
 20
-120.49280025302529
 30
59.189999999999998
 70
    64
  0
VERTEX
  5
5BA
  8
CINZA
 10
295.36000000000001
 20
-120.49280025302529
 30
59.770000000000003
 70
    64
  0
VERTEX
  5
5BB
  8
CINZA
 10
296.49000000000001
 20
-120.49280025302529
 30
59.909999999999989
 70
    64
  0
VERTEX
  5
5BC
  8
CINZA
 10
297.08999999999997
 20
-120.49280025302529
 30
59.710000000000001
 70
    64
  0
VERTEX
  5
5BD
  8
CINZA
 10
297.48000000000002
 20
-120.49280025302529
 30
59.039999999999992
 70
    64
  0
VERTEX
  5
5BE
  8
CINZA
 10
299.95999999999998
 20
-120.49280025302529
 30
40.789999999999992
 70
    64
  0
VERTEX
  5
5BF
  8
CINZA
 10
301.27999999999997
 20
-120.49280025302529
 30
31.09
 70
    64
  0
VERTEX
  5
5C0
  8
CINZA
 10
304.75
 20
-120.49280025302529
 30
22.27
 70
    64
  0
VERTEX
  5
5C1
  8
CINZA
 10
311.88999999999999
 20
-120.49280025302529
 30
16.030000000000001
 70
    64
  0
VERTEX
  5
5C2
  8
CINZA
 10
321.10000000000002
 20
-120.49280025302529
 30
13.789999999999999
 70
    64
  0
VERTEX
  5
5C3
  8
CINZA
 10
355.30000000000001
 20
-120.49280025302529
 30
13.789999999999999
 70
    64
  0
VERTEX
  5
5C4
  8
CINZA
 10
367.42000000000002
 20
-120.49280025302529
 30
17.940000000000001
 70
    64
  0
VERTEX
  5
5C5
  8
CINZA
 10
375.31
 20
-120.49280025302529
 30
28.02
 70
    64
  0
VERTEX
  5
5C6
  8
CINZA
 10
376.44
 20
-120.49280025302529
 30
40.789999999999992
 70
    64
  0
VERTEX
  5
5C7
  8
CINZA
 10
378.92000000000002
 20
-120.49280025302529
 30
59.039999999999992
 70
    64
  0
VERTEX
  5
5C8
  8
CINZA
 10
379.31
 20
-120.49280025302529
 30
59.710000000000001
 70
    64
  0
VERTEX
  5
5C9
  8
CINZA
 10
379.91000000000003
 20
-120.49280025302529
 30
59.909999999999989
 70
    64
  0
VERTEX
  5
5CA
  8
CINZA
 10
381.04000000000002
 20
-120.49280025302529
 30
59.770000000000003
 70
    64
  0
VERTEX
  5
5CB
  8
CINZA
 10
381.97000000000003
 20
-120.49280025302529
 30
59.270000000000003
 70
    64
  0
VERTEX
  5
5CC
  8
CINZA
 10
382.31999999999999
 20
-120.49280025302529
 30
58.079999999999991
 70
    64
  0
VERTEX
  5
5CD
  8
CINZA
 10
382.19
 20
-120.49280025302529
 30
57.090000000000003
 70
    64
  0
VERTEX
  5
5CE
  8
CINZA
 10
294.20999999999998
 20
-319.0928002530253
 30
57.090000000000003
 70
    64
  0
VERTEX
  5
5CF
  8
CINZA
 10
294.07999999999998
 20
-319.0928002530253
 30
58.079999999999991
 70
    64
  0
VERTEX
  5
5D0
  8
CINZA
 10
294.37
 20
-319.0928002530253
 30
59.189999999999998
 70
    64
  0
VERTEX
  5
5D1
  8
CINZA
 10
295.36000000000001
 20
-319.0928002530253
 30
59.770000000000003
 70
    64
  0
VERTEX
  5
5D2
  8
CINZA
 10
296.49000000000001
 20
-319.0928002530253
 30
59.909999999999989
 70
    64
  0
VERTEX
  5
5D3
  8
CINZA
 10
297.08999999999997
 20
-319.0928002530253
 30
59.710000000000001
 70
    64
  0
VERTEX
  5
5D4
  8
CINZA
 10
297.48000000000002
 20
-319.0928002530253
 30
59.039999999999992
 70
    64
  0
VERTEX
  5
5D5
  8
CINZA
 10
299.95999999999998
 20
-319.0928002530253
 30
40.789999999999992
 70
    64
  0
VERTEX
  5
5D6
  8
CINZA
 10
301.27999999999997
 20
-319.0928002530253
 30
31.09
 70
    64
  0
VERTEX
  5
5D7
  8
CINZA
 10
304.75
 20
-319.0928002530253
 30
22.27
 70
    64
  0
VERTEX
  5
5D8
  8
CINZA
 10
311.88999999999999
 20
-319.0928002530253
 30
16.030000000000001
 70
    64
  0
VERTEX
  5
5D9
  8
CINZA
 10
321.10000000000002
 20
-319.0928002530253
 30
13.789999999999999
 70
    64
  0
VERTEX
  5
5DA
  8
CINZA
 10
355.30000000000001
 20
-319.0928002530253
 30
13.789999999999999
 70
    64
  0
VERTEX
  5
5DB
  8
CINZA
 10
367.42000000000002
 20
-319.0928002530253
 30
17.940000000000001
 70
    64
  0
VERTEX
  5
5DC
  8
CINZA
 10
375.31
 20
-319.0928002530253
 30
28.030000000000001
 70
    64
  0
VERTEX
  5
5DD
  8
CINZA
 10
376.44
 20
-319.0928002530253
 30
40.789999999999992
 70
    64
  0
VERTEX
  5
5DE
  8
CINZA
 10
378.92000000000002
 20
-319.0928002530253
 30
59.039999999999992
 70
    64
  0
VERTEX
  5
5DF
  8
CINZA
 10
379.31
 20
-319.0928002530253
 30
59.710000000000001
 70
    64
  0
VERTEX
  5
5E0
  8
CINZA
 10
379.91000000000003
 20
-319.0928002530253
 30
59.909999999999989
 70
    64
  0
VERTEX
  5
5E1
  8
CINZA
 10
381.04000000000002
 20
-319.0928002530253
 30
59.770000000000003
 70
    64
  0
VERTEX
  5
5E2
  8
CINZA
 10
381.97000000000003
 20
-319.0928002530253
 30
59.270000000000003
 70
    64
  0
VERTEX
  5
5E3
  8
CINZA
 10
382.31999999999999
 20
-319.0928002530253
 30
58.079999999999991
 70
    64
  0
VERTEX
  5
5E4
  8
CINZA
 10
382.19
 20
-319.0928002530253
 30
57.090000000000003
 70
    64
  0
SEQEND
  5
5E5
  8
CINZA
  0
POLYLINE
  5
616
  8
CINZA
 66
     1
 10
0.0
 20
0.0
 30
0.0
 70
    16
 71
     2
 72
     6
  0
VERTEX
  5
617
  8
CINZA
 10
94.799999999999997
 20
-5.0
 30
0.0
 70
    64
  0
VERTEX
  5
618
  8
CINZA
 10
94.799999999999997
 20
-5.0
 30
60.0
 70
    64
  0
VERTEX
  5
619
  8
CINZA
 10
96.799999999999983
 20
-5.0
 30
63.460000000000001
 70
    64
  0
VERTEX
  5
61A
  8
CINZA
 10
100.8
 20
-5.0
 30
63.460000000000001
 70
    64
  0
VERTEX
  5
61B
  8
CINZA
 10
102.8
 20
-5.0
 30
60.0
 70
    64
  0
VERTEX
  5
61C
  8
CINZA
 10
102.8
 20
-5.0
 30
0.0
 70
    64
  0
VERTEX
  5
61D
  8
CINZA
 10
94.799999999999997
 20
-413.0
 30
0.0
 70
    64
  0
VERTEX
  5
61E
  8
CINZA
 10
94.799999999999997
 20
-413.0
 30
60.0
 70
    64
  0
VERTEX
  5
61F
  8
CINZA
 10
96.799999999999983
 20
-413.0
 30
63.460000000000001
 70
    64
  0
VERTEX
  5
620
  8
CINZA
 10
100.8
 20
-413.0
 30
63.460000000000001
 70
    64
  0
VERTEX
  5
621
  8
CINZA
 10
102.8
 20
-413.0
 30
60.0
 70
    64
  0
VERTEX
  5
622
  8
CINZA
 10
102.8
 20
-413.0
 30
0.0
 70
    64
  0
SEQEND
  5
623
  8
CINZA
  0
POLYLINE
  5
624
  8
CINZA
 66
     1
 10
0.0
 20
0.0
 30
0.0
 70
    16
 71
     2
 72
    23
  0
VERTEX
  5
625
  8
CINZA
 10
6.5582426686543442
 20
-406.67651388764989
 30
57.090000000000003
 70
    64
  0
VERTEX
  5
626
  8
CINZA
 10
6.4282526686543511
 20
-406.67651388764989
 30
58.079999999999991
 70
    64
  0
VERTEX
  5
627
  8
CINZA
 10
6.7182426686543399
 20
-406.67651388764989
 30
59.189999999999998
 70
    64
  0
VERTEX
  5
628
  8
CINZA
 10
7.708242668654349
 20
-406.67651388764989
 30
59.770000000000003
 70
    64
  0
VERTEX
  5
629
  8
CINZA
 10
8.8382326686543422
 20
-406.67651388764989
 30
59.909999999999989
 70
    64
  0
VERTEX
  5
62A
  8
CINZA
 10
9.4382426686543681
 20
-406.67651388764989
 30
59.710000000000001
 70
    64
  0
VERTEX
  5
62B
  8
CINZA
 10
9.8282426686543545
 20
-406.67651388764989
 30
59.039999999999992
 70
    64
  0
VERTEX
  5
62C
  8
CINZA
 10
12.308242668654341
 20
-406.67651388764989
 30
40.789999999999992
 70
    64
  0
VERTEX
  5
62D
  8
CINZA
 10
13.628242668654361
 20
-406.67651388764989
 30
31.09
 70
    64
  0
VERTEX
  5
62E
  8
CINZA
 10
17.098242668654329
 20
-406.67651388764989
 30
22.27
 70
    64
  0
VERTEX
  5
62F
  8
CINZA
 10
24.238242668654351
 20
-406.67651388764989
 30
16.030000000000001
 70
    64
  0
VERTEX
  5
630
  8
CINZA
 10
33.448242668654359
 20
-406.67651388764989
 30
13.789999999999999
 70
    64
  0
VERTEX
  5
631
  8
CINZA
 10
67.648242668654348
 20
-406.67651388764989
 30
13.789999999999999
 70
    64
  0
VERTEX
  5
632
  8
CINZA
 10
79.768242668654352
 20
-406.67651388764989
 30
17.940000000000001
 70
    64
  0
VERTEX
  5
633
  8
CINZA
 10
87.658242668654339
 20
-406.67651388764989
 30
28.02
 70
    64
  0
VERTEX
  5
634
  8
CINZA
 10
88.788242668654334
 20
-406.67651388764989
 30
40.789999999999992
 70
    64
  0
VERTEX
  5
635
  8
CINZA
 10
91.268242668654352
 20
-406.67651388764989
 30
59.039999999999992
 70
    64
  0
VERTEX
  5
636
  8
CINZA
 10
91.658242668654324
 20
-406.67651388764989
 30
59.710000000000001
 70
    64
  0
VERTEX
  5
637
  8
CINZA
 10
92.258242668654347
 20
-406.67651388764989
 30
59.909999999999989
 70
    64
  0
VERTEX
  5
638
  8
CINZA
 10
93.388242668654357
 20
-406.67651388764989
 30
59.770000000000003
 70
    64
  0
VERTEX
  5
639
  8
CINZA
 10
94.318242668654335
 20
-406.67651388764989
 30
59.270000000000003
 70
    64
  0
VERTEX
  5
63A
  8
CINZA
 10
94.668242668654344
 20
-406.67651388764989
 30
58.079999999999991
 70
    64
  0
VERTEX
  5
63B
  8
CINZA
 10
94.538242668654334
 20
-406.67651388764989
 30
57.090000000000003
 70
    64
  0
VERTEX
  5
63C
  8
CINZA
 10
6.5582426686543718
 20
-113.2765138876499
 30
57.090000000000003
 70
    64
  0
VERTEX
  5
63D
  8
CINZA
 10
6.4282526686544079
 20
-113.2765138876499
 30
58.079999999999991
 70
    64
  0
VERTEX
  5
63E
  8
CINZA
 10
6.7182426686543968
 20
-113.2765138876499
 30
59.189999999999998
 70
    64
  0
VERTEX
  5
63F
  8
CINZA
 10
7.7082426686544059
 20
-113.2765138876499
 30
59.770000000000003
 70
    64
  0
VERTEX
  5
640
  8
CINZA
 10
8.8382326686543706
 20
-113.2765138876499
 30
59.909999999999989
 70
    64
  0
VERTEX
  5
641
  8
CINZA
 10
9.4382426686543965
 20
-113.2765138876499
 30
59.710000000000001
 70
    64
  0
VERTEX
  5
642
  8
CINZA
 10
9.8282426686544113
 20
-113.2765138876499
 30
59.039999999999992
 70
    64
  0
VERTEX
  5
643
  8
CINZA
 10
12.308242668654369
 20
-113.2765138876499
 30
40.789999999999992
 70
    64
  0
VERTEX
  5
644
  8
CINZA
 10
13.628242668654391
 20
-113.2765138876499
 30
31.09
 70
    64
  0
VERTEX
  5
645
  8
CINZA
 10
17.09824266865439
 20
-113.2765138876499
 30
22.27
 70
    64
  0
VERTEX
  5
646
  8
CINZA
 10
24.238242668654379
 20
-113.2765138876499
 30
16.030000000000001
 70
    64
  0
VERTEX
  5
647
  8
CINZA
 10
33.448242668654387
 20
-113.2765138876499
 30
13.789999999999999
 70
    64
  0
VERTEX
  5
648
  8
CINZA
 10
67.648242668654376
 20
-113.2765138876499
 30
13.789999999999999
 70
    64
  0
VERTEX
  5
649
  8
CINZA
 10
79.768242668654381
 20
-113.2765138876499
 30
17.940000000000001
 70
    64
  0
VERTEX
  5
64A
  8
CINZA
 10
87.658242668654367
 20
-113.2765138876499
 30
28.030000000000001
 70
    64
  0
VERTEX
  5
64B
  8
CINZA
 10
88.788242668654362
 20
-113.2765138876499
 30
40.789999999999992
 70
    64
  0
VERTEX
  5
64C
  8
CINZA
 10
91.268242668654395
 20
-113.2765138876499
 30
59.039999999999992
 70
    64
  0
VERTEX
  5
64D
  8
CINZA
 10
91.658242668654367
 20
-113.2765138876499
 30
59.710000000000001
 70
    64
  0
VERTEX
  5
64E
  8
CINZA
 10
92.25824266865439
 20
-113.2765138876499
 30
59.909999999999989
 70
    64
  0
VERTEX
  5
64F
  8
CINZA
 10
93.388242668654385
 20
-113.2765138876499
 30
59.770000000000003
 70
    64
  0
VERTEX
  5
650
  8
CINZA
 10
94.318242668654364
 20
-113.2765138876499
 30
59.270000000000003
 70
    64
  0
VERTEX
  5
651
  8
CINZA
 10
94.668242668654386
 20
-113.2765138876499
 30
58.079999999999991
 70
    64
  0
VERTEX
  5
652
  8
CINZA
 10
94.538242668654377
 20
-113.2765138876499
 30
57.090000000000003
 70
    64
  0
SEQEND
  5
653
  8
CINZA
  0
POLYLINE
  5
654
  8
CINZA
 66
     1
 10
0.0
 20
0.0
 30
0.0
 70
    16
 71
     2
 72
    12
  0
VERTEX
  5
655
  8
CINZA
 10
5.9000000000000004
 20
-6.0
 30
42.75
 70
    64
  0
VERTEX
  5
656
  8
CINZA
 10
5.9000000000000004
 20
-6.0
 30
61.18
 70
    64
  0
VERTEX
  5
657
  8
CINZA
 10
5.4900000000000002
 20
-6.0
 30
62.399999999999999
 70
    64
  0
VERTEX
  5
658
  8
CINZA
 10
4.419999999999999
 20
-6.0
 30
63.109999999999992
 70
    64
  0
VERTEX
  5
659
  8
CINZA
 10
1.3
 20
-6.0
 30
63.899999999999999
 70
    64
  0
VERTEX
  5
65A
  8
CINZA
 10
0.51
 20
-6.0
 30
63.630000000000003
 70
    64
  0
VERTEX
  5
65B
  8
CINZA
 10
0.0
 20
-6.0
 30
62.600000000000001
 70
    64
  0
VERTEX
  5
65C
  8
CINZA
 10
0.41
 20
-6.0
 30
59.899999999999999
 70
    64
  0
VERTEX
  5
65D
  8
CINZA
 10
2.2999999999999989
 20
-6.0
 30
60.200000000000003
 70
    64
  0
VERTEX
  5
65E
  8
CINZA
 10
2.2999999999999989
 20
-6.0
 30
46.899999999999999
 70
    64
  0
VERTEX
  5
65F
  8
CINZA
 10
3.5
 20
-6.0
 30
46.899999999999999
 70
    64
  0
VERTEX
  5
660
  8
CINZA
 10
3.5
 20
-6.0
 30
40.899999999999991
 70
    64
  0
VERTEX
  5
661
  8
CINZA
 10
5.9000000000000004
 20
-414.0
 30
42.75
 70
    64
  0
VERTEX
  5
662
  8
CINZA
 10
5.9000000000000004
 20
-414.0
 30
61.18
 70
    64
  0
VERTEX
  5
663
  8
CINZA
 10
5.4900000000000002
 20
-414.0
 30
62.399999999999999
 70
    64
  0
VERTEX
  5
664
  8
CINZA
 10
4.419999999999999
 20
-414.0
 30
63.109999999999992
 70
    64
  0
VERTEX
  5
665
  8
CINZA
 10
1.3
 20
-414.0
 30
63.899999999999999
 70
    64
  0
VERTEX
  5
666
  8
CINZA
 10
0.51
 20
-414.0
 30
63.630000000000003
 70
    64
  0
VERTEX
  5
667
  8
CINZA
 10
0.0
 20
-414.0
 30
62.600000000000001
 70
    64
  0
VERTEX
  5
668
  8
CINZA
 10
0.41
 20
-414.0
 30
59.899999999999999
 70
    64
  0
VERTEX
  5
669
  8
CINZA
 10
2.2999999999999989
 20
-414.0
 30
60.200000000000003
 70
    64
  0
VERTEX
  5
66A
  8
CINZA
 10
2.2999999999999989
 20
-414.0
 30
46.899999999999999
 70
    64
  0
VERTEX
  5
66B
  8
CINZA
 10
3.5
 20
-414.0
 30
46.899999999999999
 70
    64
  0
VERTEX
  5
66C
  8
CINZA
 10
3.5
 20
-414.0
 30
40.899999999999991
 70
    64
  0
SEQEND
  5
66D
  8
CINZA
  0
POLYLINE
  5
66E
  8
CINZA
 66
     1
 10
0.0
 20
0.0
 30
0.0
 70
    16
 71
     2
 72
     6
  0
VERTEX
  5
66F
  8
CINZA
 10
294.0
 20
-6.0
 30
0.0
 70
    64
  0
VERTEX
  5
670
  8
CINZA
 10
294.0
 20
-6.0
 30
60.0
 70
    64
  0
VERTEX
  5
671
  8
CINZA
 10
292.0
 20
-6.0
 30
63.460000000000001
 70
    64
  0
VERTEX
  5
672
  8
CINZA
 10
288.0
 20
-6.0
 30
63.460000000000001
 70
    64
  0
VERTEX
  5
673
  8
CINZA
 10
286.0
 20
-6.0
 30
60.0
 70
    64
  0
VERTEX
  5
674
  8
CINZA
 10
286.0
 20
-6.0
 30
0.0
 70
    64
  0
VERTEX
  5
675
  8
CINZA
 10
294.0
 20
-414.0
 30
0.0
 70
    64
  0
VERTEX
  5
676
  8
CINZA
 10
294.0
 20
-414.0
 30
60.0
 70
    64
  0
VERTEX
  5
677
  8
CINZA
 10
292.0
 20
-414.0
 30
63.460000000000001
 70
    64
  0
VERTEX
  5
678
  8
CINZA
 10
288.0
 20
-414.0
 30
63.460000000000001
 70
    64
  0
VERTEX
  5
679
  8
CINZA
 10
286.0
 20
-414.0
 30
60.0
 70
    64
  0
VERTEX
  5
67A
  8
CINZA
 10
286.0
 20
-414.0
 30
0.0
 70
    64
  0
SEQEND
  5
67B
  8
CINZA
  0
POLYLINE
  5
67C
  8
CINZA
 66
     1
 10
0.0
 20
0.0
 30
0.0
 70
    16
 71
     2
 72
    23
  0
VERTEX
  5
67D
  8
CINZA
 10
6.5582426686543718
 20
-101.2765138876499
 30
57.090000000000003
 70
    64
  0
VERTEX
  5
67E
  8
CINZA
 10
6.4282526686544079
 20
-101.2765138876499
 30
58.079999999999991
 70
    64
  0
VERTEX
  5
67F
  8
CINZA
 10
6.7182426686543968
 20
-101.2765138876499
 30
59.189999999999998
 70
    64
  0
VERTEX
  5
680
  8
CINZA
 10
7.7082426686544059
 20
-101.2765138876499
 30
59.770000000000003
 70
    64
  0
VERTEX
  5
681
  8
CINZA
 10
8.8382326686543706
 20
-101.2765138876499
 30
59.909999999999989
 70
    64
  0
VERTEX
  5
682
  8
CINZA
 10
9.4382426686543965
 20
-101.2765138876499
 30
59.710000000000001
 70
    64
  0
VERTEX
  5
683
  8
CINZA
 10
9.8282426686544113
 20
-101.2765138876499
 30
59.039999999999992
 70
    64
  0
VERTEX
  5
684
  8
CINZA
 10
12.308242668654369
 20
-101.2765138876499
 30
40.789999999999992
 70
    64
  0
VERTEX
  5
685
  8
CINZA
 10
13.628242668654391
 20
-101.2765138876499
 30
31.09
 70
    64
  0
VERTEX
  5
686
  8
CINZA
 10
17.09824266865439
 20
-101.2765138876499
 30
22.27
 70
    64
  0
VERTEX
  5
687
  8
CINZA
 10
24.238242668654379
 20
-101.2765138876499
 30
16.030000000000001
 70
    64
  0
VERTEX
  5
688
  8
CINZA
 10
33.448242668654387
 20
-101.2765138876499
 30
13.789999999999999
 70
    64
  0
VERTEX
  5
689
  8
CINZA
 10
67.648242668654376
 20
-101.2765138876499
 30
13.789999999999999
 70
    64
  0
VERTEX
  5
68A
  8
CINZA
 10
79.768242668654381
 20
-101.2765138876499
 30
17.940000000000001
 70
    64
  0
VERTEX
  5
68B
  8
CINZA
 10
87.658242668654367
 20
-101.2765138876499
 30
28.02
 70
    64
  0
VERTEX
  5
68C
  8
CINZA
 10
88.788242668654362
 20
-101.2765138876499
 30
40.789999999999992
 70
    64
  0
VERTEX
  5
68D
  8
CINZA
 10
91.268242668654395
 20
-101.2765138876499
 30
59.039999999999992
 70
    64
  0
VERTEX
  5
68E
  8
CINZA
 10
91.658242668654367
 20
-101.2765138876499
 30
59.710000000000001
 70
    64
  0
VERTEX
  5
68F
  8
CINZA
 10
92.25824266865439
 20
-101.2765138876499
 30
59.909999999999989
 70
    64
  0
VERTEX
  5
690
  8
CINZA
 10
93.388242668654385
 20
-101.2765138876499
 30
59.770000000000003
 70
    64
  0
VERTEX
  5
691
  8
CINZA
 10
94.318242668654364
 20
-101.2765138876499
 30
59.270000000000003
 70
    64
  0
VERTEX
  5
692
  8
CINZA
 10
94.668242668654386
 20
-101.2765138876499
 30
58.079999999999991
 70
    64
  0
VERTEX
  5
693
  8
CINZA
 10
94.538242668654377
 20
-101.2765138876499
 30
57.090000000000003
 70
    64
  0
VERTEX
  5
694
  8
CINZA
 10
6.5582426686544011
 20
-31.476513887649961
 30
57.090000000000003
 70
    64
  0
VERTEX
  5
695
  8
CINZA
 10
6.4282526686544079
 20
-31.476513887649961
 30
58.079999999999991
 70
    64
  0
VERTEX
  5
696
  8
CINZA
 10
6.7182426686543968
 20
-31.476513887649961
 30
59.189999999999998
 70
    64
  0
VERTEX
  5
697
  8
CINZA
 10
7.7082426686544059
 20
-31.476513887649961
 30
59.770000000000003
 70
    64
  0
VERTEX
  5
698
  8
CINZA
 10
8.838232668654399
 20
-31.476513887649961
 30
59.909999999999989
 70
    64
  0
VERTEX
  5
699
  8
CINZA
 10
9.4382426686544232
 20
-31.476513887649961
 30
59.710000000000001
 70
    64
  0
VERTEX
  5
69A
  8
CINZA
 10
9.8282426686544113
 20
-31.476513887649961
 30
59.039999999999992
 70
    64
  0
VERTEX
  5
69B
  8
CINZA
 10
12.308242668654399
 20
-31.476513887649961
 30
40.789999999999992
 70
    64
  0
VERTEX
  5
69C
  8
CINZA
 10
13.628242668654419
 20
-31.476513887649961
 30
31.09
 70
    64
  0
VERTEX
  5
69D
  8
CINZA
 10
17.09824266865439
 20
-31.476513887649961
 30
22.27
 70
    64
  0
VERTEX
  5
69E
  8
CINZA
 10
24.238242668654411
 20
-31.476513887649961
 30
16.030000000000001
 70
    64
  0
VERTEX
  5
69F
  8
CINZA
 10
33.448242668654423
 20
-31.476513887649961
 30
13.789999999999999
 70
    64
  0
VERTEX
  5
6A0
  8
CINZA
 10
67.648242668654404
 20
-31.476513887649961
 30
13.789999999999999
 70
    64
  0
VERTEX
  5
6A1
  8
CINZA
 10
79.768242668654409
 20
-31.476513887649961
 30
17.940000000000001
 70
    64
  0
VERTEX
  5
6A2
  8
CINZA
 10
87.658242668654395
 20
-31.476513887649961
 30
28.030000000000001
 70
    64
  0
VERTEX
  5
6A3
  8
CINZA
 10
88.788242668654391
 20
-31.476513887649961
 30
40.789999999999992
 70
    64
  0
VERTEX
  5
6A4
  8
CINZA
 10
91.268242668654395
 20
-31.476513887649961
 30
59.039999999999992
 70
    64
  0
VERTEX
  5
6A5
  8
CINZA
 10
91.658242668654395
 20
-31.476513887649961
 30
59.710000000000001
 70
    64
  0
VERTEX
  5
6A6
  8
CINZA
 10
92.258242668654418
 20
-31.476513887649961
 30
59.909999999999989
 70
    64
  0
VERTEX
  5
6A7
  8
CINZA
 10
93.388242668654414
 20
-31.476513887649961
 30
59.770000000000003
 70
    64
  0
VERTEX
  5
6A8
  8
CINZA
 10
94.318242668654378
 20
-31.476513887649961
 30
59.270000000000003
 70
    64
  0
VERTEX
  5
6A9
  8
CINZA
 10
94.668242668654415
 20
-31.476513887649961
 30
58.079999999999991
 70
    64
  0
VERTEX
  5
6AA
  8
CINZA
 10
94.538242668654391
 20
-31.476513887649961
 30
57.090000000000003
 70
    64
  0
SEQEND
  5
6AB
  8
CINZA
  0
POLYLINE
  5
6AC
  8
CINZA
 66
     1
 10
0.0
 20
0.0
 30
0.0
 70
    16
 71
     2
 72
    23
  0
VERTEX
  5
6AD
  8
CINZA
 10
471.00999999999988
 20
-120.49280025302529
 30
57.090000000000003
 70
    64
  0
VERTEX
  5
6AE
  8
CINZA
 10
470.88
 20
-120.49280025302529
 30
58.079999999999991
 70
    64
  0
VERTEX
  5
6AF
  8
CINZA
 10
471.17000000000002
 20
-120.49280025302529
 30
59.189999999999998
 70
    64
  0
VERTEX
  5
6B0
  8
CINZA
 10
472.16000000000003
 20
-120.49280025302529
 30
59.770000000000003
 70
    64
  0
VERTEX
  5
6B1
  8
CINZA
 10
473.28999999999991
 20
-120.49280025302529
 30
59.909999999999989
 70
    64
  0
VERTEX
  5
6B2
  8
CINZA
 10
473.88999999999999
 20
-120.49280025302529
 30
59.710000000000001
 70
    64
  0
VERTEX
  5
6B3
  8
CINZA
 10
474.27999999999992
 20
-120.49280025302529
 30
59.039999999999992
 70
    64
  0
VERTEX
  5
6B4
  8
CINZA
 10
476.75999999999988
 20
-120.49280025302529
 30
40.789999999999992
 70
    64
  0
VERTEX
  5
6B5
  8
CINZA
 10
478.07999999999998
 20
-120.49280025302529
 30
31.09
 70
    64
  0
VERTEX
  5
6B6
  8
CINZA
 10
481.55000000000001
 20
-120.49280025302529
 30
22.27
 70
    64
  0
VERTEX
  5
6B7
  8
CINZA
 10
488.68999999999988
 20
-120.49280025302529
 30
16.030000000000001
 70
    64
  0
VERTEX
  5
6B8
  8
CINZA
 10
497.89999999999998
 20
-120.49280025302529
 30
13.789999999999999
 70
    64
  0
VERTEX
  5
6B9
  8
CINZA
 10
532.10000000000002
 20
-120.49280025302529
 30
13.789999999999999
 70
    64
  0
VERTEX
  5
6BA
  8
CINZA
 10
544.22000000000003
 20
-120.49280025302529
 30
17.940000000000001
 70
    64
  0
VERTEX
  5
6BB
  8
CINZA
 10
552.10990000000004
 20
-120.49280025302529
 30
28.02
 70
    64
  0
VERTEX
  5
6BC
  8
CINZA
 10
553.2399999999999
 20
-120.49280025302529
 30
40.789999999999992
 70
    64
  0
VERTEX
  5
6BD
  8
CINZA
 10
555.72000000000003
 20
-120.49280025302529
 30
59.039999999999992
 70
    64
  0
VERTEX
  5
6BE
  8
CINZA
 10
556.10990000000004
 20
-120.49280025302529
 30
59.710000000000001
 70
    64
  0
VERTEX
  5
6BF
  8
CINZA
 10
556.71000000000004
 20
-120.49280025302529
 30
59.909999999999989
 70
    64
  0
VERTEX
  5
6C0
  8
CINZA
 10
557.84000000000003
 20
-120.49280025302529
 30
59.770000000000003
 70
    64
  0
VERTEX
  5
6C1
  8
CINZA
 10
558.76999999999987
 20
-120.49280025302529
 30
59.270000000000003
 70
    64
  0
VERTEX
  5
6C2
  8
CINZA
 10
559.11999999999989
 20
-120.49280025302529
 30
58.079999999999991
 70
    64
  0
VERTEX
  5
6C3
  8
CINZA
 10
558.99009999999998
 20
-120.49280025302529
 30
57.090000000000003
 70
    64
  0
VERTEX
  5
6C4
  8
CINZA
 10
471.00999999999988
 20
-319.0928002530253
 30
57.090000000000003
 70
    64
  0
VERTEX
  5
6C5
  8
CINZA
 10
470.88
 20
-319.0928002530253
 30
58.079999999999991
 70
    64
  0
VERTEX
  5
6C6
  8
CINZA
 10
471.17000000000002
 20
-319.0928002530253
 30
59.189999999999998
 70
    64
  0
VERTEX
  5
6C7
  8
CINZA
 10
472.16000000000003
 20
-319.0928002530253
 30
59.770000000000003
 70
    64
  0
VERTEX
  5
6C8
  8
CINZA
 10
473.28999999999991
 20
-319.0928002530253
 30
59.909999999999989
 70
    64
  0
VERTEX
  5
6C9
  8
CINZA
 10
473.88999999999999
 20
-319.0928002530253
 30
59.710000000000001
 70
    64
  0
VERTEX
  5
6CA
  8
CINZA
 10
474.27999999999992
 20
-319.0928002530253
 30
59.039999999999992
 70
    64
  0
VERTEX
  5
6CB
  8
CINZA
 10
476.75999999999988
 20
-319.0928002530253
 30
40.789999999999992
 70
    64
  0
VERTEX
  5
6CC
  8
CINZA
 10
478.07999999999998
 20
-319.0928002530253
 30
31.09
 70
    64
  0
VERTEX
  5
6CD
  8
CINZA
 10
481.55000000000001
 20
-319.0928002530253
 30
22.27
 70
    64
  0
VERTEX
  5
6CE
  8
CINZA
 10
488.68999999999988
 20
-319.0928002530253
 30
16.030000000000001
 70
    64
  0
VERTEX
  5
6CF
  8
CINZA
 10
497.89999999999998
 20
-319.0928002530253
 30
13.789999999999999
 70
    64
  0
VERTEX
  5
6D0
  8
CINZA
 10
532.10000000000002
 20
-319.0928002530253
 30
13.789999999999999
 70
    64
  0
VERTEX
  5
6D1
  8
CINZA
 10
544.22000000000003
 20
-319.0928002530253
 30
17.940000000000001
 70
    64
  0
VERTEX
  5
6D2
  8
CINZA
 10
552.10990000000004
 20
-319.0928002530253
 30
28.030000000000001
 70
    64
  0
VERTEX
  5
6D3
  8
CINZA
 10
553.2399999999999
 20
-319.0928002530253
 30
40.789999999999992
 70
    64
  0
VERTEX
  5
6D4
  8
CINZA
 10
555.72000000000003
 20
-319.0928002530253
 30
59.039999999999992
 70
    64
  0
VERTEX
  5
6D5
  8
CINZA
 10
556.10990000000004
 20
-319.0928002530253
 30
59.710000000000001
 70
    64
  0
VERTEX
  5
6D6
  8
CINZA
 10
556.71000000000004
 20
-319.0928002530253
 30
59.909999999999989
 70
    64
  0
VERTEX
  5
6D7
  8
CINZA
 10
557.84000000000003
 20
-319.0928002530253
 30
59.770000000000003
 70
    64
  0
VERTEX
  5
6D8
  8
CINZA
 10
558.76999999999987
 20
-319.0928002530253
 30
59.270000000000003
 70
    64
  0
VERTEX
  5
6D9
  8
CINZA
 10
559.11999999999989
 20
-319.0928002530253
 30
58.079999999999991
 70
    64
  0
VERTEX
  5
6DA
  8
CINZA
 10
558.99009999999998
 20
-319.0928002530253
 30
57.090000000000003
 70
    64
  0
SEQEND
  5
6DB
  8
CINZA
  0
POLYLINE
  5
6DC
  8
CINZA
 66
     1
 10
0.0
 20
0.0
 30
0.0
 70
    16
 71
     2
 72
    23
  0
VERTEX
  5
6DD
  8
CINZA
 10
382.61000000000001
 20
-120.49280025302529
 30
57.090000000000003
 70
    64
  0
VERTEX
  5
6DE
  8
CINZA
 10
382.48000000000002
 20
-120.49280025302529
 30
58.079999999999991
 70
    64
  0
VERTEX
  5
6DF
  8
CINZA
 10
382.76999999999998
 20
-120.49280025302529
 30
59.189999999999998
 70
    64
  0
VERTEX
  5
6E0
  8
CINZA
 10
383.75999999999999
 20
-120.49280025302529
 30
59.770000000000003
 70
    64
  0
VERTEX
  5
6E1
  8
CINZA
 10
384.88999999999999
 20
-120.49280025302529
 30
59.909999999999989
 70
    64
  0
VERTEX
  5
6E2
  8
CINZA
 10
385.49000000000001
 20
-120.49280025302529
 30
59.710000000000001
 70
    64
  0
VERTEX
  5
6E3
  8
CINZA
 10
385.88
 20
-120.49280025302529
 30
59.039999999999992
 70
    64
  0
VERTEX
  5
6E4
  8
CINZA
 10
388.36000000000001
 20
-120.49280025302529
 30
40.789999999999992
 70
    64
  0
VERTEX
  5
6E5
  8
CINZA
 10
389.68000000000001
 20
-120.49280025302529
 30
31.09
 70
    64
  0
VERTEX
  5
6E6
  8
CINZA
 10
393.14999999999998
 20
-120.49280025302529
 30
22.27
 70
    64
  0
VERTEX
  5
6E7
  8
CINZA
 10
400.29000000000002
 20
-120.49280025302529
 30
16.030000000000001
 70
    64
  0
VERTEX
  5
6E8
  8
CINZA
 10
409.49999999999989
 20
-120.49280025302529
 30
13.789999999999999
 70
    64
  0
VERTEX
  5
6E9
  8
CINZA
 10
443.69999999999999
 20
-120.49280025302529
 30
13.789999999999999
 70
    64
  0
VERTEX
  5
6EA
  8
CINZA
 10
455.81999999999999
 20
-120.49280025302529
 30
17.940000000000001
 70
    64
  0
VERTEX
  5
6EB
  8
CINZA
 10
463.70999999999998
 20
-120.49280025302529
 30
28.02
 70
    64
  0
VERTEX
  5
6EC
  8
CINZA
 10
464.83999999999992
 20
-120.49280025302529
 30
40.789999999999992
 70
    64
  0
VERTEX
  5
6ED
  8
CINZA
 10
467.31999999999999
 20
-120.49280025302529
 30
59.039999999999992
 70
    64
  0
VERTEX
  5
6EE
  8
CINZA
 10
467.70999999999998
 20
-120.49280025302529
 30
59.710000000000001
 70
    64
  0
VERTEX
  5
6EF
  8
CINZA
 10
468.31
 20
-120.49280025302529
 30
59.909999999999989
 70
    64
  0
VERTEX
  5
6F0
  8
CINZA
 10
469.43999999999988
 20
-120.49280025302529
 30
59.770000000000003
 70
    64
  0
VERTEX
  5
6F1
  8
CINZA
 10
470.37
 20
-120.49280025302529
 30
59.270000000000003
 70
    64
  0
VERTEX
  5
6F2
  8
CINZA
 10
470.72000000000003
 20
-120.49280025302529
 30
58.079999999999991
 70
    64
  0
VERTEX
  5
6F3
  8
CINZA
 10
470.58999999999992
 20
-120.49280025302529
 30
57.090000000000003
 70
    64
  0
VERTEX
  5
6F4
  8
CINZA
 10
382.61000000000001
 20
-319.0928002530253
 30
57.090000000000003
 70
    64
  0
VERTEX
  5
6F5
  8
CINZA
 10
382.48000000000002
 20
-319.0928002530253
 30
58.079999999999991
 70
    64
  0
VERTEX
  5
6F6
  8
CINZA
 10
382.76999999999998
 20
-319.0928002530253
 30
59.189999999999998
 70
    64
  0
VERTEX
  5
6F7
  8
CINZA
 10
383.75999999999999
 20
-319.0928002530253
 30
59.770000000000003
 70
    64
  0
VERTEX
  5
6F8
  8
CINZA
 10
384.88999999999999
 20
-319.0928002530253
 30
59.909999999999989
 70
    64
  0
VERTEX
  5
6F9
  8
CINZA
 10
385.49000000000001
 20
-319.0928002530253
 30
59.710000000000001
 70
    64
  0
VERTEX
  5
6FA
  8
CINZA
 10
385.88
 20
-319.0928002530253
 30
59.039999999999992
 70
    64
  0
VERTEX
  5
6FB
  8
CINZA
 10
388.36000000000001
 20
-319.0928002530253
 30
40.789999999999992
 70
    64
  0
VERTEX
  5
6FC
  8
CINZA
 10
389.68000000000001
 20
-319.0928002530253
 30
31.09
 70
    64
  0
VERTEX
  5
6FD
  8
CINZA
 10
393.14999999999998
 20
-319.0928002530253
 30
22.27
 70
    64
  0
VERTEX
  5
6FE
  8
CINZA
 10
400.29000000000002
 20
-319.0928002530253
 30
16.030000000000001
 70
    64
  0
VERTEX
  5
6FF
  8
CINZA
 10
409.49999999999989
 20
-319.0928002530253
 30
13.789999999999999
 70
    64
  0
VERTEX
  5
700
  8
CINZA
 10
443.69999999999999
 20
-319.0928002530253
 30
13.789999999999999
 70
    64
  0
VERTEX
  5
701
  8
CINZA
 10
455.81999999999999
 20
-319.0928002530253
 30
17.940000000000001
 70
    64
  0
VERTEX
  5
702
  8
CINZA
 10
463.70999999999998
 20
-319.0928002530253
 30
28.030000000000001
 70
    64
  0
VERTEX
  5
703
  8
CINZA
 10
464.83999999999992
 20
-319.0928002530253
 30
40.789999999999992
 70
    64
  0
VERTEX
  5
704
  8
CINZA
 10
467.31999999999999
 20
-319.0928002530253
 30
59.039999999999992
 70
    64
  0
VERTEX
  5
705
  8
CINZA
 10
467.70999999999998
 20
-319.0928002530253
 30
59.710000000000001
 70
    64
  0
VERTEX
  5
706
  8
CINZA
 10
468.31
 20
-319.0928002530253
 30
59.909999999999989
 70
    64
  0
VERTEX
  5
707
  8
CINZA
 10
469.43999999999988
 20
-319.0928002530253
 30
59.770000000000003
 70
    64
  0
VERTEX
  5
708
  8
CINZA
 10
470.37
 20
-319.0928002530253
 30
59.270000000000003
 70
    64
  0
VERTEX
  5
709
  8
CINZA
 10
470.72000000000003
 20
-319.0928002530253
 30
58.079999999999991
 70
    64
  0
VERTEX
  5
70A
  8
CINZA
 10
470.58999999999992
 20
-319.0928002530253
 30
57.090000000000003
 70
    64
  0
SEQEND
  5
70B
  8
CINZA
  0
POLYLINE
  5
70C
  8
CINZA
 66
     1
 10
0.0
 20
0.0
 30
0.0
 70
    16
 71
     2
 72
    12
  0
VERTEX
  5
70D
  8
CINZA
 10
559.89999999999998
 20
-6.0
 30
42.75
 70
    64
  0
VERTEX
  5
70E
  8
CINZA
 10
559.89999999999998
 20
-6.0
 30
61.18
 70
    64
  0
VERTEX
  5
70F
  8
CINZA
 10
560.30999999999995
 20
-6.0
 30
62.399999999999999
 70
    64
  0
VERTEX
  5
710
  8
CINZA
 10
561.37990000000002
 20
-6.0
 30
63.109999999999992
 70
    64
  0
VERTEX
  5
711
  8
CINZA
 10
564.5
 20
-6.0
 30
63.899999999999999
 70
    64
  0
VERTEX
  5
712
  8
CINZA
 10
565.28999999999985
 20
-6.0
 30
63.630000000000003
 70
    64
  0
VERTEX
  5
713
  8
CINZA
 10
565.79999999999995
 20
-6.0
 30
62.600000000000001
 70
    64
  0
VERTEX
  5
714
  8
CINZA
 10
565.38999999999999
 20
-6.0
 30
59.899999999999999
 70
    64
  0
VERTEX
  5
715
  8
CINZA
 10
563.49999999999989
 20
-6.0
 30
60.200000000000003
 70
    64
  0
VERTEX
  5
716
  8
CINZA
 10
563.49999999999989
 20
-6.0
 30
46.899999999999999
 70
    64
  0
VERTEX
  5
717
  8
CINZA
 10
562.29999999999995
 20
-6.0
 30
46.899999999999999
 70
    64
  0
VERTEX
  5
718
  8
CINZA
 10
562.29999999999995
 20
-6.0
 30
40.899999999999991
 70
    64
  0
VERTEX
  5
719
  8
CINZA
 10
559.89999999999998
 20
-414.0
 30
42.75
 70
    64
  0
VERTEX
  5
71A
  8
CINZA
 10
559.89999999999998
 20
-414.0
 30
61.18
 70
    64
  0
VERTEX
  5
71B
  8
CINZA
 10
560.30999999999995
 20
-414.0
 30
62.399999999999999
 70
    64
  0
VERTEX
  5
71C
  8
CINZA
 10
561.37990000000002
 20
-414.0
 30
63.109999999999992
 70
    64
  0
VERTEX
  5
71D
  8
CINZA
 10
564.5
 20
-414.0
 30
63.899999999999999
 70
    64
  0
VERTEX
  5
71E
  8
CINZA
 10
565.28999999999985
 20
-414.0
 30
63.630000000000003
 70
    64
  0
VERTEX
  5
71F
  8
CINZA
 10
565.79999999999995
 20
-414.0
 30
62.600000000000001
 70
    64
  0
VERTEX
  5
720
  8
CINZA
 10
565.38999999999999
 20
-414.0
 30
59.899999999999999
 70
    64
  0
VERTEX
  5
721
  8
CINZA
 10
563.49999999999989
 20
-414.0
 30
60.200000000000003
 70
    64
  0
VERTEX
  5
722
  8
CINZA
 10
563.49999999999989
 20
-414.0
 30
46.899999999999999
 70
    64
  0
VERTEX
  5
723
  8
CINZA
 10
562.29999999999995
 20
-414.0
 30
46.899999999999999
 70
    64
  0
VERTEX
  5
724
  8
CINZA
 10
562.29999999999995
 20
-414.0
 30
40.899999999999991
 70
    64
  0
SEQEND
  5
725
  8
CINZA
  0
INSERT
  5
82D
  8
0
  6
CONTINUOUS
  2
DFD
 10
286.75356211269923
 20
596.73799360153203
 30
0.0
  0
INSERT
  5
82E
  8
0
  6
CONTINUOUS
  2
DFD
 10
286.75356211269923
 20
895.38426977087875
 30
0.0
  0
ENDSEC
  0
EOF
