  0
SECTION
  2
HEADER
  9
$ACADVER
  1
AC1027
  9
$ACADMAINTVER
 70
     8
  9
$DWGCODEPAGE
  3
ANSI_1252
  9
$LASTSAVEDBY
  1
User
  9
$REQUIREDVERSIONS
160
                 0
  9
$INSBASE
 10
0.0
 20
0.0
 30
0.0
  9
$EXTMIN
 10
-90.4399547569783
 20
-36.00000000000063
 30
-8.199999999999999
  9
$EXTMAX
 10
534.7269124630177
 20
45.02096146947787
 30
9.800000000009786
  9
$LIMMIN
 10
0.0
 20
0.0
  9
$LIMMAX
 10
12.0
 20
9.0
  9
$ORTHOMODE
 70
     0
  9
$REGENMODE
 70
     1
  9
$FILLMODE
 70
     1
  9
$QTEXTMODE
 70
     0
  9
$MIRRTEXT
 70
     0
  9
$LTSCALE
 40
1.0
  9
$ATTMODE
 70
     1
  9
$TEXTSIZE
 40
0.2
  9
$TRACEWID
 40
0.05
  9
$TEXTSTYLE
  7
Standard
  9
$CLAYER
  8
0
  9
$CELTYPE
  6
Continuous
  9
$CECOLOR
 62
   256
  9
$CELTSCALE
 40
1.0
  9
$DISPSILH
 70
     0
  9
$DIMSCALE
 40
1.0
  9
$DIMASZ
 40
0.18
  9
$DIMEXO
 40
0.0625
  9
$DIMDLI
 40
0.38
  9
$DIMRND
 40
0.0
  9
$DIMDLE
 40
0.0
  9
$DIMEXE
 40
0.18
  9
$DIMTP
 40
0.0
  9
$DIMTM
 40
0.0
  9
$DIMTXT
 40
0.18
  9
$DIMCEN
 40
0.09
  9
$DIMTSZ
 40
0.0
  9
$DIMTOL
 70
     0
  9
$DIMLIM
 70
     0
  9
$DIMTIH
 70
     1
  9
$DIMTOH
 70
     1
  9
$DIMSE1
 70
     0
  9
$DIMSE2
 70
     0
  9
$DIMTAD
 70
     0
  9
$DIMZIN
 70
     0
  9
$DIMBLK
  1

  9
$DIMASO
 70
     1
  9
$DIMSHO
 70
     1
  9
$DIMPOST
  1

  9
$DIMAPOST
  1

  9
$DIMALT
 70
     0
  9
$DIMALTD
 70
     2
  9
$DIMALTF
 40
25.4
  9
$DIMLFAC
 40
1.0
  9
$DIMTOFL
 70
     0
  9
$DIMTVP
 40
0.0
  9
$DIMTIX
 70
     0
  9
$DIMSOXD
 70
     0
  9
$DIMSAH
 70
     0
  9
$DIMBLK1
  1

  9
$DIMBLK2
  1

  9
$DIMSTYLE
  2
Standard
  9
$DIMCLRD
 70
     0
  9
$DIMCLRE
 70
     0
  9
$DIMCLRT
 70
     0
  9
$DIMTFAC
 40
1.0
  9
$DIMGAP
 40
0.09
  9
$DIMJUST
 70
     0
  9
$DIMSD1
 70
     0
  9
$DIMSD2
 70
     0
  9
$DIMTOLJ
 70
     1
  9
$DIMTZIN
 70
     0
  9
$DIMALTZ
 70
     0
  9
$DIMALTTZ
 70
     0
  9
$DIMUPT
 70
     0
  9
$DIMDEC
 70
     4
  9
$DIMTDEC
 70
     4
  9
$DIMALTU
 70
     2
  9
$DIMALTTD
 70
     2
  9
$DIMTXSTY
  7
Standard
  9
$DIMAUNIT
 70
     0
  9
$DIMADEC
 70
     0
  9
$DIMALTRND
 40
0.0
  9
$DIMAZIN
 70
     0
  9
$DIMDSEP
 70
    46
  9
$DIMATFIT
 70
     3
  9
$DIMFRAC
 70
     0
  9
$DIMLDRBLK
  1

  9
$DIMLUNIT
 70
     2
  9
$DIMLWD
 70
    -2
  9
$DIMLWE
 70
    -2
  9
$DIMTMOVE
 70
     0
  9
$DIMFXL
 40
1.0
  9
$DIMFXLON
 70
     0
  9
$DIMJOGANG
 40
0.7853981633974483
  9
$DIMTFILL
 70
     0
  9
$DIMTFILLCLR
 70
     0
  9
$DIMARCSYM
 70
     0
  9
$DIMLTYPE
  6

  9
$DIMLTEX1
  6

  9
$DIMLTEX2
  6

  9
$DIMTXTDIRECTION
 70
     0
  9
$LUNITS
 70
     2
  9
$LUPREC
 70
     4
  9
$SKETCHINC
 40
0.1
  9
$FILLETRAD
 40
0.0
  9
$AUNITS
 70
     0
  9
$AUPREC
 70
     0
  9
$MENU
  1
.
  9
$ELEVATION
 40
0.0
  9
$PELEVATION
 40
0.0
  9
$THICKNESS
 40
0.0
  9
$LIMCHECK
 70
     0
  9
$CHAMFERA
 40
0.0
  9
$CHAMFERB
 40
0.0
  9
$CHAMFERC
 40
0.0
  9
$CHAMFERD
 40
0.0
  9
$SKPOLY
 70
     0
  9
$TDCREATE
 40
2458463.447772396
  9
$TDUCREATE
 40
2458463.531105730
  9
$TDUPDATE
 40
2458463.462467882
  9
$TDUUPDATE
 40
2458463.545801215
  9
$TDINDWG
 40
0.0146956250
  9
$TDUSRTIMER
 40
0.0146956250
  9
$USRTIMER
 70
     1
  9
$ANGBASE
 50
0.0
  9
$ANGDIR
 70
     0
  9
$PDMODE
 70
     0
  9
$PDSIZE
 40
0.0
  9
$PLINEWID
 40
0.0
  9
$SPLFRAME
 70
     0
  9
$SPLINETYPE
 70
     6
  9
$SPLINESEGS
 70
     8
  9
$HANDSEED
  5
52D
  9
$SURFTAB1
 70
     6
  9
$SURFTAB2
 70
     6
  9
$SURFTYPE
 70
     6
  9
$SURFU
 70
     6
  9
$SURFV
 70
     6
  9
$UCSBASE
  2

  9
$UCSNAME
  2

  9
$UCSORG
 10
0.0
 20
0.0
 30
0.0
  9
$UCSXDIR
 10
1.0
 20
0.0
 30
0.0
  9
$UCSYDIR
 10
0.0
 20
1.0
 30
0.0
  9
$UCSORTHOREF
  2

  9
$UCSORTHOVIEW
 70
     0
  9
$UCSORGTOP
 10
0.0
 20
0.0
 30
0.0
  9
$UCSORGBOTTOM
 10
0.0
 20
0.0
 30
0.0
  9
$UCSORGLEFT
 10
0.0
 20
0.0
 30
0.0
  9
$UCSORGRIGHT
 10
0.0
 20
0.0
 30
0.0
  9
$UCSORGFRONT
 10
0.0
 20
0.0
 30
0.0
  9
$UCSORGBACK
 10
0.0
 20
0.0
 30
0.0
  9
$PUCSBASE
  2

  9
$PUCSNAME
  2

  9
$PUCSORG
 10
0.0
 20
0.0
 30
0.0
  9
$PUCSXDIR
 10
1.0
 20
0.0
 30
0.0
  9
$PUCSYDIR
 10
0.0
 20
1.0
 30
0.0
  9
$PUCSORTHOREF
  2

  9
$PUCSORTHOVIEW
 70
     0
  9
$PUCSORGTOP
 10
0.0
 20
0.0
 30
0.0
  9
$PUCSORGBOTTOM
 10
0.0
 20
0.0
 30
0.0
  9
$PUCSORGLEFT
 10
0.0
 20
0.0
 30
0.0
  9
$PUCSORGRIGHT
 10
0.0
 20
0.0
 30
0.0
  9
$PUCSORGFRONT
 10
0.0
 20
0.0
 30
0.0
  9
$PUCSORGBACK
 10
0.0
 20
0.0
 30
0.0
  9
$USERI1
 70
     0
  9
$USERI2
 70
     0
  9
$USERI3
 70
     0
  9
$USERI4
 70
     0
  9
$USERI5
 70
     0
  9
$USERR1
 40
0.0
  9
$USERR2
 40
0.0
  9
$USERR3
 40
0.0
  9
$USERR4
 40
0.0
  9
$USERR5
 40
0.0
  9
$WORLDVIEW
 70
     1
  9
$SHADEDGE
 70
     3
  9
$SHADEDIF
 70
    70
  9
$TILEMODE
 70
     1
  9
$MAXACTVP
 70
    64
  9
$PINSBASE
 10
0.0
 20
0.0
 30
0.0
  9
$PLIMCHECK
 70
     0
  9
$PEXTMIN
 10
1.000000000000000E+20
 20
1.000000000000000E+20
 30
1.000000000000000E+20
  9
$PEXTMAX
 10
-1.000000000000000E+20
 20
-1.000000000000000E+20
 30
-1.000000000000000E+20
  9
$PLIMMIN
 10
0.0
 20
0.0
  9
$PLIMMAX
 10
12.0
 20
9.0
  9
$UNITMODE
 70
     0
  9
$VISRETAIN
 70
     1
  9
$PLINEGEN
 70
     0
  9
$PSLTSCALE
 70
     1
  9
$TREEDEPTH
 70
  3020
  9
$CMLSTYLE
  2
Standard
  9
$CMLJUST
 70
     0
  9
$CMLSCALE
 40
1.0
  9
$PROXYGRAPHICS
 70
     1
  9
$MEASUREMENT
 70
     0
  9
$CELWEIGHT
370
    -1
  9
$ENDCAPS
280
     0
  9
$JOINSTYLE
280
     0
  9
$LWDISPLAY
290
     0
  9
$INSUNITS
 70
     0
  9
$HYPERLINKBASE
  1

  9
$STYLESHEET
  1

  9
$XEDIT
290
     1
  9
$CEPSNTYPE
380
     0
  9
$PSTYLEMODE
290
     1
  9
$FINGERPRINTGUID
  2
{CFED0D10-77A0-4E8D-80AD-B09981DB4DA0}
  9
$VERSIONGUID
  2
{AFCBADEA-F099-4A6A-8941-C299F0054032}
  9
$EXTNAMES
290
     1
  9
$PSVPSCALE
 40
0.0
  9
$OLESTARTUP
290
     0
  9
$SORTENTS
280
   127
  9
$INDEXCTL
280
     0
  9
$HIDETEXT
280
     0
  9
$XCLIPFRAME
280
     2
  9
$HALOGAP
280
     0
  9
$OBSCOLOR
 70
   257
  9
$OBSLTYPE
280
     0
  9
$INTERSECTIONDISPLAY
280
     0
  9
$INTERSECTIONCOLOR
 70
   257
  9
$DIMASSOC
280
     1
  9
$PROJECTNAME
  1

  9
$CAMERADISPLAY
290
     0
  9
$LENSLENGTH
 40
50.0
  9
$CAMERAHEIGHT
 40
0.0
  9
$STEPSPERSEC
 40
2.0
  9
$STEPSIZE
 40
6.0
  9
$3DDWFPREC
 40
2.0
  9
$PSOLWIDTH
 40
0.25
  9
$PSOLHEIGHT
 40
4.0
  9
$LOFTANG1
 40
1.570796326794896
  9
$LOFTANG2
 40
1.570796326794896
  9
$LOFTMAG1
 40
0.0
  9
$LOFTMAG2
 40
0.0
  9
$LOFTPARAM
 70
     7
  9
$LOFTNORMALS
280
     1
  9
$LATITUDE
 40
37.795
  9
$LONGITUDE
 40
-122.394
  9
$NORTHDIRECTION
 40
0.0
  9
$TIMEZONE
 70
 -8000
  9
$LIGHTGLYPHDISPLAY
280
     1
  9
$TILEMODELIGHTSYNCH
280
     1
  9
$CMATERIAL
347
11
  9
$SOLIDHIST
280
     0
  9
$SHOWHIST
280
     1
  9
$DWFFRAME
280
     2
  9
$DGNFRAME
280
     0
  9
$REALWORLDSCALE
290
     1
  9
$INTERFERECOLOR
 62
     1
  9
$INTERFEREOBJVS
345
33
  9
$INTERFEREVPVS
346
30
  9
$CSHADOW
280
     0
  9
$SHADOWPLANELOCATION
 40
0.0
  0
ENDSEC
  0
SECTION
  2
CLASSES
  0
CLASS
  1
ACDBDICTIONARYWDFLT
  2
AcDbDictionaryWithDefault
  3
ObjectDBX Classes
 90
        0
 91
        1
280
     0
281
     0
  0
CLASS
  1
MATERIAL
  2
AcDbMaterial
  3
ObjectDBX Classes
 90
     1153
 91
        3
280
     0
281
     0
  0
CLASS
  1
VISUALSTYLE
  2
AcDbVisualStyle
  3
ObjectDBX Classes
 90
     4095
 91
       24
280
     0
281
     0
  0
CLASS
  1
SCALE
  2
AcDbScale
  3
ObjectDBX Classes
 90
     1153
 91
       17
280
     0
281
     0
  0
CLASS
  1
TABLESTYLE
  2
AcDbTableStyle
  3
ObjectDBX Classes
 90
     4095
 91
        1
280
     0
281
     0
  0
CLASS
  1
MLEADERSTYLE
  2
AcDbMLeaderStyle
  3
ACDB_MLEADERSTYLE_CLASS
 90
     4095
 91
        1
280
     0
281
     0
  0
CLASS
  1
ACDBSECTIONVIEWSTYLE
  2
AcDbSectionViewStyle
  3
ObjectDBX Classes
 90
     1025
 91
        1
280
     0
281
     0
  0
CLASS
  1
ACDBDETAILVIEWSTYLE
  2
AcDbDetailViewStyle
  3
ObjectDBX Classes
 90
     1025
 91
        1
280
     0
281
     0
  0
CLASS
  1
SOLID_BACKGROUND
  2
AcDbSolidBackground
  3
SCENEOE
 90
     4095
 91
        1
280
     0
281
     0
  0
CLASS
  1
NPOCOLLECTION
  2
AcDbImpNonPersistentObjectsCollection
  3
ObjectDBX Classes
 90
     1153
 91
        1
280
     0
281
     0
  0
CLASS
  1
DICTIONARYVAR
  2
AcDbDictionaryVar
  3
ObjectDBX Classes
 90
        0
 91
       36
280
     0
281
     0
  0
CLASS
  1
CELLSTYLEMAP
  2
AcDbCellStyleMap
  3
ObjectDBX Classes
 90
     1152
 91
        2
280
     0
281
     0
  0
ENDSEC
  0
SECTION
  2
TABLES
  0
TABLE
  2
VPORT
  5
8
330
0
100
AcDbSymbolTable
 70
     1
  0
VPORT
  5
76
330
8
100
AcDbSymbolTableRecord
100
AcDbViewportTableRecord
  2
*Active
 70
     0
 10
0.0
 20
0.0
 11
1.0
 21
1.0
 12
0.0
 22
0.0
 13
0.0
 23
0.0
 14
1.0
 24
1.0
 15
0.0
 25
0.0
 16
1976.976176837711
 26
335.421966812642
 36
801.05045301213
 17
47.09202911881776
 27
136.1038736261509
 37
-67.83150107590336
 40
455.2748792361446
 41
2.53072625698324
 42
50.0
 43
-0.0000003724618409
 44
-0.0000003724618409
 50
0.0
 51
0.0
 71
     0
 72
   100
 73
     1
 74
     1
 75
     0
 76
     0
 77
     0
 78
     0
281
     0
 65
     1
110
0.0
120
0.0
130
0.0
111
1.0
121
0.0
131
0.0
112
0.0
122
1.0
132
0.0
 79
     0
146
0.0
348
2F
 60
     3
 61
     5
292
     1
282
     1
141
0.0
142
0.0
 63
   250
421
  3355443
1001
ACAD_NAV_VCDISPLAY
1070
     3
  0
ENDTAB
  0
TABLE
  2
LTYPE
  5
5
330
0
100
AcDbSymbolTable
 70
     2
  0
LTYPE
  5
5A
330
5
100
AcDbSymbolTableRecord
100
AcDbLinetypeTableRecord
  2
ByBlock
 70
     0
  3

 72
    65
 73
     0
 40
0.0
  0
LTYPE
  5
5B
330
5
100
AcDbSymbolTableRecord
100
AcDbLinetypeTableRecord
  2
ByLayer
 70
     0
  3

 72
    65
 73
     0
 40
0.0
  0
LTYPE
  5
5C
330
5
100
AcDbSymbolTableRecord
100
AcDbLinetypeTableRecord
  2
Continuous
 70
     0
  3
Solid line
 72
    65
 73
     0
 40
0.0
  0
LTYPE
  5
68
330
5
100
AcDbSymbolTableRecord
100
AcDbLinetypeTableRecord
  2
PHANTOM2
 70
     0
  3
Phantom (.5x) ___ _ _ ___ _ _ ___ _ _ ___ _ _
 72
    65
 73
     6
 40
1.25
 49
0.625
 74
     0
 49
-0.125
 74
     0
 49
0.125
 74
     0
 49
-0.125
 74
     0
 49
0.125
 74
     0
 49
-0.125
 74
     0
  0
ENDTAB
  0
TABLE
  2
LAYER
  5
2
102
{ACAD_XDICTIONARY
360
361
102
}
330
0
100
AcDbSymbolTable
 70
     3
  0
LAYER
  5
54
102
{ACAD_XDICTIONARY
360
350
102
}
330
2
100
AcDbSymbolTableRecord
100
AcDbLayerTableRecord
  2
0
 70
     0
 62
     7
  6
Continuous
370
    -3
390
F
347
21
348
0
  0
LAYER
  5
74
102
{ACAD_XDICTIONARY
360
352
102
}
330
2
100
AcDbSymbolTableRecord
100
AcDbLayerTableRecord
  2
ACESSORIO
 70
     0
 62
     8
  6
Continuous
370
    -3
390
F
347
21
348
0
  0
LAYER
  5
35F
102
{ACAD_XDICTIONARY
360
360
102
}
330
2
100
AcDbSymbolTableRecord
100
AcDbLayerTableRecord
  2
IGES level 0
 70
     0
 62
   253
  6
Continuous
370
    -3
390
F
347
21
348
0
  0
ENDTAB
  0
TABLE
  2
STYLE
  5
3
330
0
100
AcDbSymbolTable
 70
     2
  0
STYLE
  5
55
330
3
100
AcDbSymbolTableRecord
100
AcDbTextStyleTableRecord
  2
Standard
 70
     0
 40
0.0
 41
1.0
 50
0.0
 71
     0
 42
0.2
  3
txt
  4

  0
STYLE
  5
59
330
3
100
AcDbSymbolTableRecord
100
AcDbTextStyleTableRecord
  2
Annotative
 70
     0
 40
0.0
 41
1.0
 50
0.0
 71
     0
 42
0.2
  3
txt
  4

1001
AcadAnnotative
1000
AnnotativeData
1002
{
1070
     1
1070
     1
1002
}
  0
ENDTAB
  0
TABLE
  2
VIEW
  5
6
330
0
100
AcDbSymbolTable
 70
     0
  0
ENDTAB
  0
TABLE
  2
UCS
  5
7
330
0
100
AcDbSymbolTable
 70
     0
  0
ENDTAB
  0
TABLE
  2
APPID
  5
9
330
0
100
AcDbSymbolTable
 70
     3
  0
APPID
  5
56
330
9
100
AcDbSymbolTableRecord
100
AcDbRegAppTableRecord
  2
ACAD
 70
     0
  0
APPID
  5
5D
330
9
100
AcDbSymbolTableRecord
100
AcDbRegAppTableRecord
  2
AcadAnnotative
 70
     0
  0
APPID
  5
354
330
9
100
AcDbSymbolTableRecord
100
AcDbRegAppTableRecord
  2
ACAD_NAV_VCDISPLAY
 70
     0
  0
ENDTAB
  0
TABLE
  2
DIMSTYLE
  5
A
330
0
100
AcDbSymbolTable
 70
     2
100
AcDbDimStyleTable
 71
     0
  0
DIMSTYLE
105
57
330
A
100
AcDbSymbolTableRecord
100
AcDbDimStyleTableRecord
  2
Standard
 70
     0
340
55
  0
DIMSTYLE
105
58
330
A
100
AcDbSymbolTableRecord
100
AcDbDimStyleTableRecord
  2
Annotative
 70
     0
340
55
1001
AcadAnnotative
1000
AnnotativeData
1002
{
1070
     1
1070
     1
1002
}
  0
ENDTAB
  0
TABLE
  2
BLOCK_RECORD
  5
1
330
0
100
AcDbSymbolTable
 70
     1
  0
BLOCK_RECORD
  5
70
330
1
100
AcDbSymbolTableRecord
100
AcDbBlockTableRecord
  2
*Model_Space
340
73
 70
     0
280
     1
281
     0
  0
BLOCK_RECORD
  5
6C
330
1
100
AcDbSymbolTableRecord
100
AcDbBlockTableRecord
  2
*Paper_Space
340
6F
 70
     0
280
     1
281
     0
  0
ENDTAB
  0
ENDSEC
  0
SECTION
  2
BLOCKS
  0
BLOCK
  5
71
330
70
100
AcDbEntity
  8
0
100
AcDbBlockBegin
  2
*Model_Space
 70
     0
 10
0.0
 20
0.0
 30
0.0
  3
*Model_Space
  1

  0
ENDBLK
  5
72
330
70
100
AcDbEntity
  8
0
100
AcDbBlockEnd
  0
BLOCK
  5
6D
330
6C
100
AcDbEntity
 67
     1
  8
0
100
AcDbBlockBegin
  2
*Paper_Space
 70
     0
 10
0.0
 20
0.0
 30
0.0
  3
*Paper_Space
  1

  0
ENDBLK
  5
6E
330
6C
100
AcDbEntity
 67
     1
  8
0
100
AcDbBlockEnd
  0
ENDSEC
  0
SECTION
  2
ENTITIES
  0
SPLINE
  5
434
102
{ACAD_REACTORS
330
51F
102
}
330
70
100
AcDbEntity
  8
IGES level 0
100
AcDbSpline
210
-0.7071067811865895
220
0.0000000000008589
230
-0.7071067811865058
 70
    12
 71
     3
 72
     8
 73
     4
 74
     0
 42
0.0000000001
 43
0.0000000001
 40
1.5707963267949
 40
1.5707963267949
 40
1.5707963267949
 40
1.5707963267949
 40
3.14159265358979
 40
3.14159265358979
 40
3.14159265358979
 40
3.14159265358979
 10
-87.3060557939125
 20
-34.0
 30
0.0000000000000053
 41
1.0
 10
-87.18889850638698
 20
-33.99999999999989
 30
-0.117157287525381
 41
0.8047378541243599
 10
-87.10605579391268
 20
-34.08284271247464
 30
-0.199999999999996
 41
0.8047378541243599
 10
-87.10605579391268
 20
-34.19999999999993
 30
-0.1999999999999957
 41
1.0
  0
SPLINE
  5
435
102
{ACAD_REACTORS
330
51F
102
}
330
70
100
AcDbEntity
  8
IGES level 0
100
AcDbSpline
210
0.0
220
0.0
230
1.0
 70
    24
 71
     2
 72
     6
 73
     3
 74
     0
 42
0.0000000001
 43
0.0000000001
 40
3.14159265358979
 40
3.14159265358979
 40
3.14159265358979
 40
3.143192653589788
 40
3.143192653589788
 40
3.143192653589788
 10
-87.10605579391268
 20
-34.19999999999993
 30
-0.1999999999999957
 10
-87.10605579391268
 20
-35.0
 30
-0.1999999999999939
 10
-87.10605579391268
 20
-35.79999999999996
 30
-0.1999999999999939
  0
SPLINE
  5
436
102
{ACAD_REACTORS
330
51F
102
}
330
70
100
AcDbEntity
  8
IGES level 0
100
AcDbSpline
210
-0.7071067811865852
220
-0.0000000000008673
230
-0.7071067811865099
 70
    12
 71
     3
 72
     8
 73
     4
 74
     0
 42
0.0000000001
 43
0.0000000001
 40
3.143192653589788
 40
3.143192653589788
 40
3.143192653589788
 40
3.143192653589788
 40
4.713988980384688
 40
4.713988980384688
 40
4.713988980384688
 40
4.713988980384688
 10
-87.10605579391268
 20
-35.79999999999996
 30
-0.1999999999999939
 41
1.0
 10
-87.10605579391268
 20
-35.91715728752536
 30
-0.199999999999996
 41
0.8047378541243599
 10
-87.18889850638698
 20
-35.99999999999994
 30
-0.1171572875253766
 41
0.8047378541243599
 10
-87.3060557939125
 20
-36.0
 30
0.0000000000000053
 41
1.0
  0
SPLINE
  5
437
102
{ACAD_REACTORS
330
51F
102
}
330
70
100
AcDbEntity
  8
IGES level 0
100
AcDbSpline
210
0.0
220
-1.0
230
0.0
 70
    24
 71
     2
 72
     6
 73
     3
 74
     0
 42
0.0000000001
 43
0.0000000001
 40
4.713988980384688
 40
4.713988980384688
 40
4.713988980384688
 40
4.71794877835933
 40
4.71794877835933
 40
4.71794877835933
 10
-87.3060557939125
 20
-36.0
 30
-0.0000000000001741
 10
-88.70605579391257
 20
-36.0
 30
1.399999999999865
 10
-90.10605579391267
 20
-36.0
 30
2.79999999999991
  0
SPLINE
  5
438
102
{ACAD_REACTORS
330
51F
102
}
330
70
100
AcDbEntity
  8
IGES level 0
100
AcDbSpline
210
0.0
220
0.0
230
1.0
 70
    24
 71
     2
 72
     6
 73
     3
 74
     0
 42
0.0000000001
 43
0.0000000001
 40
4.71794877835933
 40
4.71794877835933
 40
4.71794877835933
 40
4.719948778359329
 40
4.719948778359329
 40
4.719948778359329
 10
-90.10605579391267
 20
-36.0
 30
2.800000000000002
 10
-90.10605579391267
 20
-35.0
 30
2.800000000000002
 10
-90.10605579391267
 20
-34.0
 30
2.800000000000004
  0
SPLINE
  5
439
102
{ACAD_REACTORS
330
51F
102
}
330
70
100
AcDbEntity
  8
IGES level 0
100
AcDbSpline
210
0.0
220
-1.0
230
0.0
 70
    24
 71
     2
 72
     6
 73
     3
 74
     0
 42
0.0000000001
 43
0.0000000001
 40
4.719948778359329
 40
4.719948778359329
 40
4.719948778359329
 40
4.723908576333968
 40
4.723908576333968
 40
4.723908576333968
 10
-90.10605579391267
 20
-34.0
 30
2.799999999999844
 10
-88.70605579391257
 20
-34.0
 30
1.399999999999835
 10
-87.3060557939125
 20
-34.0
 30
-0.0000000000001794
  0
SPLINE
  5
43A
102
{ACAD_REACTORS
330
51F
102
}
330
70
100
AcDbEntity
  8
IGES level 0
100
AcDbSpline
210
0.7071067811868611
220
0.0000000000012166
230
-0.707106781186234
 70
    12
 71
     3
 72
     8
 73
     4
 74
     0
 42
0.0000000001
 43
0.0000000001
 40
4.71238898038469
 40
4.71238898038469
 40
4.71238898038469
 40
4.71238898038469
 40
6.283185307179588
 40
6.283185307179588
 40
6.283185307179588
 40
6.283185307179588
 10
531.0939442060873
 20
-36.00000000000063
 30
-0.0000000000000036
 41
1.0
 10
530.9767869185622
 20
-36.00000000000062
 30
-0.1171572875253766
 41
0.8047378541243599
 10
530.8939442060873
 20
-35.91715728752605
 30
-0.1999999999999975
 41
0.8047378541243599
 10
530.8939442060873
 20
-35.80000000000058
 30
-0.2000000000000046
 41
1.0
  0
SPLINE
  5
43B
102
{ACAD_REACTORS
330
51F
102
}
330
70
100
AcDbEntity
  8
IGES level 0
100
AcDbSpline
210
0.0
220
0.0
230
1.0
 70
    24
 71
     2
 72
     6
 73
     3
 74
     0
 42
0.0000000001
 43
0.0000000001
 40
6.283185307179588
 40
6.283185307179588
 40
6.283185307179588
 40
6.284785307179589
 40
6.284785307179589
 40
6.284785307179589
 10
530.8939442060873
 20
-35.80000000000058
 30
-0.2000000000000046
 10
530.8939442060873
 20
-35.00000000000063
 30
-0.2000000000000046
 10
530.8939442060873
 20
-34.20000000000067
 30
-0.1999999999999975
  0
SPLINE
  5
43C
102
{ACAD_REACTORS
330
51F
102
}
330
70
100
AcDbEntity
  8
IGES level 0
100
AcDbSpline
210
0.7071067811868773
220
-0.0000000000012776
230
-0.7071067811862179
 70
    12
 71
     3
 72
     8
 73
     4
 74
     0
 42
0.0000000001
 43
0.0000000001
 40
6.284785307179589
 40
6.284785307179589
 40
6.284785307179589
 40
6.284785307179589
 40
7.85558163397449
 40
7.85558163397449
 40
7.85558163397449
 40
7.85558163397449
 10
530.8939442060873
 20
-34.20000000000067
 30
-0.1999999999999975
 41
1.0
 10
530.8939442060873
 20
-34.08284271247527
 30
-0.2000000000000046
 41
0.8047378541243599
 10
530.9767869185622
 20
-34.00000000000062
 30
-0.117157287525381
 41
0.8047378541243599
 10
531.0939442060873
 20
-34.00000000000062
 30
-0.0000000000000071
 41
1.0
  0
SPLINE
  5
43D
102
{ACAD_REACTORS
330
51F
102
}
330
70
100
AcDbEntity
  8
IGES level 0
100
AcDbSpline
210
0.0
220
1.0
230
0.0
 70
    24
 71
     2
 72
     6
 73
     3
 74
     0
 42
0.0000000001
 43
0.0000000001
 40
7.85558163397449
 40
7.85558163397449
 40
7.85558163397449
 40
7.859541431949138
 40
7.859541431949138
 40
7.859541431949138
 10
531.0939442060873
 20
-34.00000000000062
 30
-0.0000000000000924
 10
532.4939442060874
 20
-34.00000000000062
 30
1.399999999999925
 10
533.8939442060875
 20
-34.00000000000062
 30
2.799999999999943
  0
SPLINE
  5
43E
102
{ACAD_REACTORS
330
51F
102
}
330
70
100
AcDbEntity
  8
IGES level 0
100
AcDbSpline
210
0.0
220
0.0
230
1.0
 70
    24
 71
     2
 72
     6
 73
     3
 74
     0
 42
0.0000000001
 43
0.0000000001
 40
7.859541431949138
 40
7.859541431949138
 40
7.859541431949138
 40
7.861541431949137
 40
7.861541431949137
 40
7.861541431949137
 10
533.8939442060873
 20
-34.00000000000062
 30
2.8
 10
533.8939442060873
 20
-35.00000000000063
 30
2.799999999999998
 10
533.8939442060873
 20
-36.00000000000063
 30
2.799999999999998
  0
SPLINE
  5
43F
102
{ACAD_REACTORS
330
51F
102
}
330
70
100
AcDbEntity
  8
IGES level 0
100
AcDbSpline
210
0.0
220
-1.0
230
0.0
 70
    24
 71
     2
 72
     6
 73
     3
 74
     0
 42
0.0000000001
 43
0.0000000001
 40
7.861541431949137
 40
7.861541431949137
 40
7.861541431949137
 40
7.865501229923778
 40
7.865501229923778
 40
7.865501229923778
 10
533.8939442060873
 20
-36.00000000000063
 30
2.799999999999885
 10
532.4939442060874
 20
-36.00000000000063
 30
1.3999999999999
 10
531.0939442060873
 20
-36.00000000000063
 30
-0.0000000000000604
  0
SPLINE
  5
440
102
{ACAD_REACTORS
330
51F
102
}
330
70
100
AcDbEntity
  8
IGES level 0
100
AcDbSpline
210
-1.0
220
0.0
230
0.0
 70
    28
 71
     2
 72
     6
 73
     3
 74
     0
 42
0.0000000001
 43
0.0000000001
 40
9.285090623537966
 40
9.285090623537966
 40
9.285090623537966
 40
9.28699593989635
 40
9.28699593989635
 40
9.28699593989635
 10
221.8939442060876
 20
1.435220739345481
 30
3.797618354552017
 41
1.0
 10
221.8939442060876
 20
1.436590624185669
 30
3.798809177276009
 41
1.0
 10
221.8939442060876
 20
1.43796050902597
 30
3.8
 41
1.0
  0
SPLINE
  5
441
102
{ACAD_REACTORS
330
51F
102
}
330
70
100
AcDbEntity
  8
IGES level 0
100
AcDbSpline
210
1.0
220
0.0
230
0.0
 70
    24
 71
     2
 72
     6
 73
     3
 74
     0
 42
0.0000000001
 43
0.0000000001
 40
4.71238898038469
 40
4.71238898038469
 40
4.71238898038469
 40
4.713888980384687
 40
4.713888980384687
 40
4.713888980384687
 10
-90.10605579391222
 20
-23.29999999999996
 30
8.299999999999998
 10
-90.10605579391267
 20
-23.29999999999996
 30
9.049999999999998
 10
-90.10605579391222
 20
-23.29999999999996
 30
9.799999999999998
  0
SPLINE
  5
442
102
{ACAD_REACTORS
330
51F
102
}
330
70
100
AcDbEntity
  8
IGES level 0
100
AcDbSpline
210
0.0
220
0.0
230
1.0
 70
    24
 71
     2
 72
     6
 73
     3
 74
     0
 42
0.0000000001
 43
0.0000000001
 40
0.003
 40
0.003
 40
0.003
 40
0.005
 40
0.005
 40
0.005
 10
-90.10605579391267
 20
-34.0
 30
2.800000000000004
 10
-90.10605579391267
 20
-35.0
 30
2.800000000000002
 10
-90.10605579391267
 20
-36.0
 30
2.800000000000002
  0
SPLINE
  5
443
102
{ACAD_REACTORS
330
51F
102
}
330
70
100
AcDbEntity
  8
IGES level 0
100
AcDbSpline
210
1.0
220
0.0
230
0.0
 70
    24
 71
     2
 72
     6
 73
     3
 74
     0
 42
0.0000000001
 43
0.0000000001
 40
0.005
 40
0.005
 40
0.005
 40
0.011
 40
0.011
 40
0.011
 10
-90.10605579391267
 20
-36.0
 30
2.800000000000016
 10
-90.10605579391267
 20
-36.0
 30
5.800000000000009
 10
-90.10605579391267
 20
-36.0
 30
8.800000000000006
  0
SPLINE
  5
444
102
{ACAD_REACTORS
330
51F
102
}
330
70
100
AcDbEntity
  8
IGES level 0
100
AcDbSpline
210
1.0
220
0.0
230
0.0
 70
    12
 71
     3
 72
     8
 73
     4
 74
     0
 42
0.0000000001
 43
0.0000000001
 40
0.011
 40
0.011
 40
0.011
 40
0.011
 40
1.5817963267949
 40
1.5817963267949
 40
1.5817963267949
 40
1.5817963267949
 10
-90.10605579391267
 20
-36.0
 30
8.799999999999998
 41
1.0
 10
-90.10605579391267
 20
-35.99999999999994
 30
9.385786437626917
 41
0.8047378541243599
 10
-90.10605579391267
 20
-35.58578643762694
 30
9.8
 41
0.8047378541243599
 10
-90.10605579391267
 20
-35.0
 30
9.799999999999995
 41
1.0
  0
SPLINE
  5
445
102
{ACAD_REACTORS
330
51F
102
}
330
70
100
AcDbEntity
  8
IGES level 0
100
AcDbSpline
210
0.0
220
0.0
230
1.0
 70
    24
 71
     2
 72
     6
 73
     3
 74
     0
 42
0.0000000001
 43
0.0000000001
 40
1.5817963267949
 40
1.5817963267949
 40
1.5817963267949
 40
1.5934963267949
 40
1.5934963267949
 40
1.5934963267949
 10
-90.10605579391267
 20
-35.0
 30
9.799999999999995
 10
-90.10605579391267
 20
-29.14999999999998
 30
9.799999999999991
 10
-90.10605579391222
 20
-23.29999999999996
 30
9.799999999999998
  0
SPLINE
  5
446
102
{ACAD_REACTORS
330
51F
102
}
330
70
100
AcDbEntity
  8
IGES level 0
100
AcDbSpline
210
1.0
220
0.0
230
0.0
 70
    24
 71
     2
 72
     6
 73
     3
 74
     0
 42
0.0000000001
 43
0.0000000001
 40
1.5934963267949
 40
1.5934963267949
 40
1.5934963267949
 40
1.5949963267949
 40
1.5949963267949
 40
1.5949963267949
 10
-90.10605579391222
 20
-23.29999999999996
 30
9.799999999999998
 10
-90.10605579391267
 20
-23.29999999999996
 30
9.049999999999998
 10
-90.10605579391222
 20
-23.29999999999996
 30
8.299999999999998
  0
SPLINE
  5
447
102
{ACAD_REACTORS
330
51F
102
}
330
70
100
AcDbEntity
  8
IGES level 0
100
AcDbSpline
210
0.0
220
0.0
230
1.0
 70
    24
 71
     2
 72
     6
 73
     3
 74
     0
 42
0.0000000001
 43
0.0000000001
 40
1.5949963267949
 40
1.5949963267949
 40
1.5949963267949
 40
1.6031963267949
 40
1.6031963267949
 40
1.6031963267949
 10
-90.10605579391222
 20
-23.29999999999996
 30
8.299999999999998
 10
-90.10605579391222
 20
-27.39999999999998
 30
8.299999999999991
 10
-90.10605579391267
 20
-31.5
 30
8.299999999999998
  0
SPLINE
  5
448
102
{ACAD_REACTORS
330
51F
102
}
330
70
100
AcDbEntity
  8
IGES level 0
100
AcDbSpline
210
0.0
220
0.0
230
1.0
 70
    24
 71
     2
 72
     6
 73
     3
 74
     0
 42
0.0000000001
 43
0.0000000001
 40
0.0
 40
0.0
 40
0.0
 40
0.1614197347336439
 40
0.1614197347336439
 40
0.1614197347336439
 10
-90.10605579391267
 20
-36.0
 30
6.300000000000009
 10
-90.10605579391267
 20
-34.97498468444133
 30
6.300000000000014
 10
-90.10605579391267
 20
-33.94996936888265
 30
6.300000000000011
  0
SPLINE
  5
449
102
{ACAD_REACTORS
330
51F
102
}
330
70
100
AcDbEntity
  8
IGES level 0
100
AcDbSpline
210
1.0
220
0.0
230
0.0
 70
    24
 71
     2
 72
     6
 73
     3
 74
     0
 42
0.0000000001
 43
0.0000000001
 40
4.713488980384691
 40
4.713488980384691
 40
4.713488980384691
 40
4.714988980384691
 40
4.714988980384691
 40
4.714988980384691
 10
533.8939442060873
 20
-23.30000000000069
 30
9.799999999999995
 10
533.8939442060873
 20
-23.30000000000069
 30
9.049999999999998
 10
533.8939442060873
 20
-23.30000000000069
 30
8.299999999999998
  0
SPLINE
  5
44A
102
{ACAD_REACTORS
330
51F
102
}
330
70
100
AcDbEntity
  8
IGES level 0
100
AcDbSpline
210
1.0
220
0.0
230
0.0
 70
    24
 71
     2
 72
     6
 73
     3
 74
     0
 42
0.0000000001
 43
0.0000000001
 40
-0.70414962951135
 40
-0.70414962951135
 40
-0.70414962951135
 40
-0.69814962951135
 40
-0.69814962951135
 40
-0.69814962951135
 10
533.8939442060873
 20
-36.00000000000063
 30
8.800000000000009
 10
533.8939442060873
 20
-36.00000000000063
 30
5.799999999999903
 10
533.8939442060873
 20
-36.00000000000063
 30
2.799999999999792
  0
SPLINE
  5
44B
102
{ACAD_REACTORS
330
51F
102
}
330
70
100
AcDbEntity
  8
IGES level 0
100
AcDbSpline
210
0.0
220
0.0
230
1.0
 70
    24
 71
     2
 72
     6
 73
     3
 74
     0
 42
0.0000000001
 43
0.0000000001
 40
-0.69814962951135
 40
-0.69814962951135
 40
-0.69814962951135
 40
-0.69614962951135
 40
-0.69614962951135
 40
-0.69614962951135
 10
533.8939442060873
 20
-36.00000000000063
 30
2.799999999999998
 10
533.8939442060873
 20
-35.00000000000063
 30
2.799999999999998
 10
533.8939442060873
 20
-34.00000000000062
 30
2.8
  0
SPLINE
  5
44C
102
{ACAD_REACTORS
330
51F
102
}
330
70
100
AcDbEntity
  8
IGES level 0
100
AcDbSpline
210
0.0
220
0.0
230
1.0
 70
    24
 71
     2
 72
     6
 73
     3
 74
     0
 42
0.0000000001
 43
0.0000000001
 40
0.8776466972835502
 40
0.8776466972835502
 40
0.8776466972835502
 40
0.88584669728355
 40
0.88584669728355
 40
0.88584669728355
 10
533.8939442060873
 20
-31.50000000000062
 30
8.299999999999991
 10
533.8939442060875
 20
-27.40000000000061
 30
8.299999999999991
 10
533.8939442060873
 20
-23.30000000000069
 30
8.299999999999998
  0
SPLINE
  5
44D
102
{ACAD_REACTORS
330
51F
102
}
330
70
100
AcDbEntity
  8
IGES level 0
100
AcDbSpline
210
1.0
220
0.0
230
0.0
 70
    24
 71
     2
 72
     6
 73
     3
 74
     0
 42
0.0000000001
 43
0.0000000001
 40
0.88584669728355
 40
0.88584669728355
 40
0.88584669728355
 40
0.8873466972835501
 40
0.8873466972835501
 40
0.8873466972835501
 10
533.8939442060873
 20
-23.30000000000069
 30
8.299999999999998
 10
533.8939442060873
 20
-23.30000000000069
 30
9.049999999999998
 10
533.8939442060873
 20
-23.30000000000069
 30
9.799999999999995
  0
SPLINE
  5
44E
102
{ACAD_REACTORS
330
51F
102
}
330
70
100
AcDbEntity
  8
IGES level 0
100
AcDbSpline
210
0.0
220
0.0
230
1.0
 70
    24
 71
     2
 72
     6
 73
     3
 74
     0
 42
0.0000000001
 43
0.0000000001
 40
0.8873466972835501
 40
0.8873466972835501
 40
0.8873466972835501
 40
0.89904669728355
 40
0.89904669728355
 40
0.89904669728355
 10
533.8939442060873
 20
-23.30000000000069
 30
9.799999999999995
 10
533.8939442060873
 20
-29.1500000000006
 30
9.799999999999991
 10
533.8939442060873
 20
-35.00000000000063
 30
9.799999999999998
  0
SPLINE
  5
44F
102
{ACAD_REACTORS
330
51F
102
}
330
70
100
AcDbEntity
  8
IGES level 0
100
AcDbSpline
210
-1.0
220
-0.0000000000005822
230
0.0000000000005822
 70
    12
 71
     3
 72
     8
 73
     4
 74
     0
 42
0.0000000001
 43
0.0000000001
 40
0.89904669728355
 40
0.89904669728355
 40
0.89904669728355
 40
0.89904669728355
 40
2.46984302407845
 40
2.46984302407845
 40
2.46984302407845
 40
2.46984302407845
 10
533.8939442060873
 20
-35.00000000000063
 30
9.799999999999998
 41
1.0
 10
533.8939442060876
 20
-35.58578643762746
 30
9.799999999999997
 41
0.8047378541243599
 10
533.8939442060876
 20
-36.00000000000062
 30
9.38578643762691
 41
0.8047378541243599
 10
533.8939442060873
 20
-36.00000000000063
 30
8.799999999999998
 41
1.0
  0
SPLINE
  5
450
102
{ACAD_REACTORS
330
51F
102
}
330
70
100
AcDbEntity
  8
IGES level 0
100
AcDbSpline
210
0.0
220
0.0
230
1.0
 70
    24
 71
     2
 72
     6
 73
     3
 74
     0
 42
0.0000000001
 43
0.0000000001
 40
0.0
 40
0.0
 40
0.0
 40
0.1614197347336425
 40
0.1614197347336425
 40
0.1614197347336425
 10
533.8939442060875
 20
-36.00000000000063
 30
6.299999999999903
 10
533.8939442060873
 20
-34.97498468444206
 30
6.299999999999897
 10
533.8939442060873
 20
-33.94996936888339
 30
6.299999999999904
  0
SPLINE
  5
451
102
{ACAD_REACTORS
330
51F
102
}
330
70
100
AcDbEntity
  8
IGES level 0
100
AcDbSpline
210
1.0
220
0.0000000000019408
230
0.0000000000019408
 70
    12
 71
     3
 72
     8
 73
     4
 74
     0
 42
0.0000000001
 43
0.0000000001
 40
0.0
 40
0.0
 40
0.0
 40
0.0
 40
1.0
 40
1.0
 40
1.0
 40
1.0
 10
221.8939442060876
 20
-1.300000000000295
 30
-8.199999999999995
 41
1.0
 10
221.8939442060878
 20
-1.417157287525583
 30
-8.199999999999992
 41
0.8047378541243599
 10
221.8939442060878
 20
-1.500000000000341
 30
-8.117157287525376
 41
0.8047378541243599
 10
221.8939442060876
 20
-1.500000000000341
 30
-7.999999999999996
 41
1.0
  0
SPLINE
  5
452
102
{ACAD_REACTORS
330
51F
102
}
330
70
100
AcDbEntity
  8
IGES level 0
100
AcDbSpline
210
0.0
220
0.0
230
1.0
 70
    24
 71
     2
 72
     6
 73
     3
 74
     0
 42
0.0000000001
 43
0.0000000001
 40
0.0
 40
0.0
 40
0.0
 40
1.0
 40
1.0
 40
1.0
 10
221.8939442060876
 20
-0.2000000000002728
 30
-8.199999999999999
 10
221.8939442060876
 20
-0.7500000000003411
 30
-8.199999999999999
 10
221.8939442060876
 20
-1.300000000000295
 30
-8.199999999999995
  0
SPLINE
  5
453
102
{ACAD_REACTORS
330
51F
102
}
330
70
100
AcDbEntity
  8
IGES level 0
100
AcDbSpline
210
-1.0
220
-0.0000000000019408
230
0.0000000000019408
 70
    12
 71
     3
 72
     8
 73
     4
 74
     0
 42
0.0000000001
 43
0.0000000001
 40
0.0
 40
0.0
 40
0.0
 40
0.0
 40
1.0
 40
1.0
 40
1.0
 40
1.0
 10
221.8939442060876
 20
-0.0000000000003411
 30
-8.0
 41
1.0
 10
221.8939442060873
 20
-0.0000000000003411
 30
-8.11715728752538
 41
0.80473785412437
 10
221.8939442060873
 20
-0.0828427124748146
 30
-8.200000000000002
 41
0.80473785412437
 10
221.8939442060876
 20
-0.2000000000002728
 30
-8.199999999999999
 41
1.0
  0
SPLINE
  5
454
102
{ACAD_REACTORS
330
51F
102
}
330
70
100
AcDbEntity
  8
IGES level 0
100
AcDbSpline
210
1.0
220
-0.0000000000012938
230
-0.0000000000012938
 70
    12
 71
     3
 72
     8
 73
     4
 74
     0
 42
0.0000000001
 43
0.0000000001
 40
0.0
 40
0.0
 40
0.0
 40
0.0
 40
1.0
 40
1.0
 40
1.0
 40
1.0
 10
221.8939442060876
 20
-0.3000000000002956
 30
9.799999999999998
 41
1.0
 10
221.8939442060878
 20
-0.1242640687121366
 30
9.799999999999997
 41
0.8047378541243599
 10
221.8939442060878
 20
-0.0000000000002842
 30
9.675735931288064
 41
0.8047378541243599
 10
221.8939442060876
 20
-0.0000000000003411
 30
9.499999999999998
 41
1.0
  0
SPLINE
  5
455
102
{ACAD_REACTORS
330
51F
102
}
330
70
100
AcDbEntity
  8
IGES level 0
100
AcDbSpline
210
0.0
220
0.0
230
1.0
 70
    24
 71
     2
 72
     6
 73
     3
 74
     0
 42
0.0000000001
 43
0.0000000001
 40
1.567796326794899
 40
1.567796326794899
 40
1.567796326794899
 40
1.5794963267949
 40
1.5794963267949
 40
1.5794963267949
 10
-90.10605579391222
 20
-23.29999999999996
 30
9.799999999999998
 10
-90.10605579391267
 20
-29.14999999999998
 30
9.799999999999991
 10
-90.10605579391267
 20
-35.0
 30
9.799999999999995
  0
SPLINE
  5
456
102
{ACAD_REACTORS
330
51F
102
}
330
70
100
AcDbEntity
  8
IGES level 0
100
AcDbSpline
210
0.0
220
0.0
230
1.0
 70
    24
 71
     2
 72
     6
 73
     3
 74
     0
 42
0.0000000001
 43
0.0000000001
 40
1.5794963267949
 40
1.5794963267949
 40
1.5794963267949
 40
2.203496326794898
 40
2.203496326794898
 40
2.203496326794898
 10
-90.10605579391222
 20
-35.0
 30
9.800000000000002
 10
221.8939442060876
 20
-35.00000000000023
 30
9.799999999999998
 10
533.8939442060873
 20
-35.00000000000063
 30
9.799999999999998
  0
SPLINE
  5
457
102
{ACAD_REACTORS
330
51F
102
}
330
70
100
AcDbEntity
  8
IGES level 0
100
AcDbSpline
210
0.0
220
0.0
230
1.0
 70
    24
 71
     2
 72
     6
 73
     3
 74
     0
 42
0.0000000001
 43
0.0000000001
 40
2.203496326794898
 40
2.203496326794898
 40
2.203496326794898
 40
2.2151963267949
 40
2.2151963267949
 40
2.2151963267949
 10
533.8939442060873
 20
-35.00000000000063
 30
9.799999999999998
 10
533.8939442060873
 20
-29.1500000000006
 30
9.799999999999991
 10
533.8939442060873
 20
-23.30000000000069
 30
9.799999999999995
  0
SPLINE
  5
458
102
{ACAD_REACTORS
330
51F
102
}
330
70
100
AcDbEntity
  8
IGES level 0
100
AcDbSpline
210
-1.0
220
-0.0000000000005822
230
0.0000000000005822
 70
    12
 71
     3
 72
     8
 73
     4
 74
     0
 42
0.0000000001
 43
0.0000000001
 40
0.0
 40
0.0
 40
0.0
 40
0.0
 40
1.0
 40
1.0
 40
1.0
 40
1.0
 10
533.8939442060873
 20
-36.00000000000063
 30
8.799999999999998
 41
1.0
 10
533.8939442060876
 20
-36.00000000000062
 30
9.38578643762691
 41
0.8047378541243599
 10
533.8939442060876
 20
-35.58578643762746
 30
9.799999999999997
 41
0.8047378541243599
 10
533.8939442060873
 20
-35.00000000000063
 30
9.799999999999998
 41
1.0
  0
SPLINE
  5
459
102
{ACAD_REACTORS
330
51F
102
}
330
70
100
AcDbEntity
  8
IGES level 0
100
AcDbSpline
210
0.0
220
0.0
230
1.0
 70
    28
 71
     2
 72
     6
 73
     3
 74
     0
 42
0.0000000001
 43
0.0000000001
 40
0.0
 40
0.0
 40
0.0
 40
1.0
 40
1.0
 40
1.0
 10
533.8939442060873
 20
-35.00000000000063
 30
9.799999999999998
 41
1.0
 10
221.8939442060876
 20
-35.00000000000023
 30
9.799999999999995
 41
1.0
 10
-90.10605579391222
 20
-35.0
 30
9.800000000000002
 41
1.0
  0
SPLINE
  5
45A
102
{ACAD_REACTORS
330
51F
102
}
330
70
100
AcDbEntity
  8
IGES level 0
100
AcDbSpline
210
1.0
220
0.0
230
0.0
 70
    12
 71
     3
 72
     8
 73
     4
 74
     0
 42
0.0000000001
 43
0.0000000001
 40
-1.0
 40
-1.0
 40
-1.0
 40
-1.0
 40
0.0
 40
0.0
 40
0.0
 40
0.0
 10
-90.10605579391222
 20
-35.0
 30
9.800000000000002
 41
1.0
 10
-90.10605579391222
 20
-35.58578643762678
 30
9.799999999999997
 41
0.8047378541243599
 10
-90.10605579391222
 20
-35.99999999999994
 30
9.385786437626917
 41
0.8047378541243599
 10
-90.10605579391222
 20
-36.0
 30
8.799999999999998
 41
1.0
  0
SPLINE
  5
45B
102
{ACAD_REACTORS
330
51F
102
}
330
70
100
AcDbEntity
  8
IGES level 0
100
AcDbSpline
210
0.0
220
0.0
230
1.0
 70
    28
 71
     2
 72
     6
 73
     3
 74
     0
 42
0.0000000001
 43
0.0000000001
 40
-1.0
 40
-1.0
 40
-1.0
 40
0.0
 40
0.0
 40
0.0
 10
-90.10605579391222
 20
-36.0
 30
8.799999999999998
 41
1.0
 10
221.8939442060876
 20
-36.00000000000023
 30
8.799999999999998
 41
1.0
 10
533.8939442060873
 20
-36.00000000000063
 30
8.799999999999998
 41
1.0
  0
SPLINE
  5
45C
102
{ACAD_REACTORS
330
51F
102
}
330
70
100
AcDbEntity
  8
IGES level 0
100
AcDbSpline
210
0.0
220
0.0
230
1.0
 70
    28
 71
     2
 72
     6
 73
     3
 74
     0
 42
0.0000000001
 43
0.0000000001
 40
0.0
 40
0.0
 40
0.0
 40
1.0
 40
1.0
 40
1.0
 10
533.8939442060871
 20
-35.70710678118718
 30
9.507106781186545
 41
0.85355339059327
 10
221.8939442060878
 20
-35.70710678118678
 30
9.507106781186548
 41
0.85355339059327
 10
-90.10605579391222
 20
-35.70710678118633
 30
9.507106781186552
 41
0.85355339059327
  0
SPLINE
  5
45D
102
{ACAD_REACTORS
330
51F
102
}
330
70
100
AcDbEntity
  8
IGES level 0
100
AcDbSpline
210
0.0
220
0.0
230
1.0
 70
    24
 71
     2
 72
     6
 73
     3
 74
     0
 42
0.0000000001
 43
0.0000000001
 40
-0.6612
 40
-0.6612
 40
-0.6612
 40
-0.0428
 40
-0.0428
 40
-0.0428
 10
-87.3060557939125
 20
-36.0
 30
0.0000000000000053
 10
221.8939442060876
 20
-36.00000000000023
 30
0.0000000000000018
 10
531.0939442060873
 20
-36.00000000000063
 30
-0.0000000000000036
  0
SPLINE
  5
45E
102
{ACAD_REACTORS
330
51F
102
}
330
70
100
AcDbEntity
  8
IGES level 0
100
AcDbSpline
210
0.0
220
-1.0
230
0.0
 70
    24
 71
     2
 72
     6
 73
     3
 74
     0
 42
0.0000000001
 43
0.0000000001
 40
-0.0428
 40
-0.0428
 40
-0.0428
 40
-0.03884020202536
 40
-0.03884020202536
 40
-0.03884020202536
 10
531.0939442060873
 20
-36.00000000000063
 30
-0.0000000000000604
 10
532.4939442060874
 20
-36.00000000000063
 30
1.3999999999999
 10
533.8939442060873
 20
-36.00000000000063
 30
2.799999999999885
  0
SPLINE
  5
45F
102
{ACAD_REACTORS
330
51F
102
}
330
70
100
AcDbEntity
  8
IGES level 0
100
AcDbSpline
210
1.0
220
0.0
230
0.0
 70
    24
 71
     2
 72
     6
 73
     3
 74
     0
 42
0.0000000001
 43
0.0000000001
 40
-0.03884020202536
 40
-0.03884020202536
 40
-0.03884020202536
 40
-0.03284020202536
 40
-0.03284020202536
 40
-0.03284020202536
 10
533.8939442060873
 20
-36.00000000000063
 30
2.799999999999792
 10
533.8939442060873
 20
-36.00000000000063
 30
5.799999999999903
 10
533.8939442060873
 20
-36.00000000000063
 30
8.800000000000009
  0
SPLINE
  5
460
102
{ACAD_REACTORS
330
51F
102
}
330
70
100
AcDbEntity
  8
IGES level 0
100
AcDbSpline
210
0.0
220
0.0
230
1.0
 70
    24
 71
     2
 72
     6
 73
     3
 74
     0
 42
0.0000000001
 43
0.0000000001
 40
-0.03284020202536
 40
-0.03284020202536
 40
-0.03284020202536
 40
0.59115979797464
 40
0.59115979797464
 40
0.59115979797464
 10
533.8939442060873
 20
-36.00000000000063
 30
8.799999999999998
 10
221.8939442060876
 20
-36.00000000000023
 30
8.799999999999995
 10
-90.10605579391222
 20
-36.0
 30
8.799999999999998
  0
SPLINE
  5
461
102
{ACAD_REACTORS
330
51F
102
}
330
70
100
AcDbEntity
  8
IGES level 0
100
AcDbSpline
210
1.0
220
0.0
230
0.0
 70
    24
 71
     2
 72
     6
 73
     3
 74
     0
 42
0.0000000001
 43
0.0000000001
 40
0.59115979797464
 40
0.59115979797464
 40
0.59115979797464
 40
0.5971597979746402
 40
0.5971597979746402
 40
0.5971597979746402
 10
-90.10605579391267
 20
-36.0
 30
8.800000000000006
 10
-90.10605579391267
 20
-36.0
 30
5.800000000000009
 10
-90.10605579391267
 20
-36.0
 30
2.800000000000016
  0
SPLINE
  5
462
102
{ACAD_REACTORS
330
51F
102
}
330
70
100
AcDbEntity
  8
IGES level 0
100
AcDbSpline
210
0.0
220
-1.0
230
0.0
 70
    24
 71
     2
 72
     6
 73
     3
 74
     0
 42
0.0000000001
 43
0.0000000001
 40
0.5971597979746402
 40
0.5971597979746402
 40
0.5971597979746402
 40
0.60111959594928
 40
0.60111959594928
 40
0.60111959594928
 10
-90.10605579391267
 20
-36.0
 30
2.79999999999991
 10
-88.70605579391257
 20
-36.0
 30
1.399999999999865
 10
-87.3060557939125
 20
-36.0
 30
-0.0000000000001741
  0
SPLINE
  5
463
102
{ACAD_REACTORS
330
51F
102
}
330
70
100
AcDbEntity
  8
IGES level 0
100
AcDbSpline
210
0.0
220
0.0
230
1.0
 70
    24
 71
     2
 72
     6
 73
     3
 74
     0
 42
0.0000000001
 43
0.0000000001
 40
-0.661
 40
-0.661
 40
-0.661
 40
-0.043
 40
-0.043
 40
-0.043
 10
-87.10605579391268
 20
-35.79999999999996
 30
-0.1999999999999993
 10
221.8939442060876
 20
-35.8000000000003
 30
-0.2000000000000011
 10
530.8939442060873
 20
-35.80000000000058
 30
-0.2000000000000046
  0
SPLINE
  5
464
102
{ACAD_REACTORS
330
51F
102
}
330
70
100
AcDbEntity
  8
IGES level 0
100
AcDbSpline
210
0.7071067811868611
220
0.0000000000012164
230
-0.707106781186234
 70
    12
 71
     3
 72
     8
 73
     4
 74
     0
 42
0.0000000001
 43
0.0000000001
 40
-0.043
 40
-0.043
 40
-0.043
 40
-0.043
 40
1.527796326794899
 40
1.527796326794899
 40
1.527796326794899
 40
1.527796326794899
 10
530.8939442060873
 20
-35.80000000000058
 30
-0.2000000000000046
 41
1.0
 10
530.8939442060873
 20
-35.91715728752605
 30
-0.1999999999999975
 41
0.8047378541243599
 10
530.9767869185622
 20
-36.00000000000062
 30
-0.1171572875253766
 41
0.8047378541243599
 10
531.0939442060873
 20
-36.00000000000063
 30
-0.0000000000000036
 41
1.0
  0
SPLINE
  5
465
102
{ACAD_REACTORS
330
51F
102
}
330
70
100
AcDbEntity
  8
IGES level 0
100
AcDbSpline
210
0.0
220
0.0
230
1.0
 70
    24
 71
     2
 72
     6
 73
     3
 74
     0
 42
0.0000000001
 43
0.0000000001
 40
1.527796326794899
 40
1.527796326794899
 40
1.527796326794899
 40
2.146196326794898
 40
2.146196326794898
 40
2.146196326794898
 10
531.0939442060873
 20
-36.00000000000063
 30
-0.0000000000000036
 10
221.8939442060876
 20
-36.00000000000023
 30
0.0000000000000018
 10
-87.3060557939125
 20
-36.0
 30
0.0000000000000053
  0
SPLINE
  5
466
102
{ACAD_REACTORS
330
51F
102
}
330
70
100
AcDbEntity
  8
IGES level 0
100
AcDbSpline
210
-0.7071067811865851
220
-0.0000000000008675
230
-0.7071067811865102
 70
    12
 71
     3
 72
     8
 73
     4
 74
     0
 42
0.0000000001
 43
0.0000000001
 40
2.146196326794898
 40
2.146196326794898
 40
2.146196326794898
 40
2.146196326794898
 40
3.716992653589799
 40
3.716992653589799
 40
3.716992653589799
 40
3.716992653589799
 10
-87.3060557939125
 20
-36.0
 30
0.0000000000000053
 41
1.0
 10
-87.18889850638698
 20
-35.99999999999994
 30
-0.1171572875253766
 41
0.8047378541243599
 10
-87.10605579391268
 20
-35.91715728752536
 30
-0.199999999999996
 41
0.8047378541243599
 10
-87.10605579391268
 20
-35.79999999999996
 30
-0.1999999999999939
 41
1.0
  0
SPLINE
  5
468
102
{ACAD_REACTORS
330
51F
102
}
330
70
100
AcDbEntity
  8
IGES level 0
100
AcDbSpline
210
0.0
220
0.0
230
1.0
 70
    28
 71
     2
 72
     6
 73
     3
 74
     0
 42
0.0000000001
 43
0.0000000001
 40
0.00615483115332
 40
0.00615483115332
 40
0.00615483115332
 40
0.99384516884668
 40
0.99384516884668
 40
0.99384516884668
 10
530.9525228498513
 20
-35.94142135623786
 30
-0.1414213562373057
 41
0.85355339059327
 10
221.8939442060878
 20
-35.94142135623764
 30
-0.1414213562373092
 41
0.85355339059327
 10
-87.16463443767679
 20
-35.94142135623736
 30
-0.141421356237303
 41
0.85355339059327
  0
SPLINE
  5
469
102
{ACAD_REACTORS
330
51F
102
}
330
70
100
AcDbEntity
  8
IGES level 0
100
AcDbSpline
210
0.0
220
0.0
230
1.0
 70
    24
 71
     2
 72
     6
 73
     3
 74
     0
 42
0.0000000001
 43
0.0000000001
 40
0.0
 40
0.0
 40
0.0
 40
1.0
 40
1.0
 40
1.0
 10
530.8939442060873
 20
-34.20000000000067
 30
-0.1999999999999975
 10
530.8939442060873
 20
-35.00000000000063
 30
-0.2000000000000046
 10
530.8939442060873
 20
-35.80000000000058
 30
-0.2000000000000046
  0
SPLINE
  5
46A
102
{ACAD_REACTORS
330
51F
102
}
330
70
100
AcDbEntity
  8
IGES level 0
100
AcDbSpline
210
0.0
220
0.0
230
1.0
 70
    24
 71
     2
 72
     6
 73
     3
 74
     0
 42
0.0000000001
 43
0.0000000001
 40
0.0
 40
0.0
 40
0.0
 40
1.0
 40
1.0
 40
1.0
 10
530.8939442060873
 20
-35.80000000000058
 30
-0.2000000000000046
 10
221.8939442060876
 20
-35.8000000000003
 30
-0.2000000000000011
 10
-87.10605579391268
 20
-35.79999999999996
 30
-0.1999999999999993
  0
SPLINE
  5
46B
102
{ACAD_REACTORS
330
51F
102
}
330
70
100
AcDbEntity
  8
IGES level 0
100
AcDbSpline
210
0.0
220
0.0
230
1.0
 70
    24
 71
     2
 72
     6
 73
     3
 74
     0
 42
0.0000000001
 43
0.0000000001
 40
-1.0
 40
-1.0
 40
-1.0
 40
0.0
 40
0.0
 40
0.0
 10
-87.10605579391268
 20
-35.79999999999996
 30
-0.1999999999999993
 10
-87.10605579391268
 20
-35.0
 30
-0.1999999999999975
 10
-87.10605579391268
 20
-34.19999999999993
 30
-0.1999999999999993
  0
SPLINE
  5
46C
102
{ACAD_REACTORS
330
51F
102
}
330
70
100
AcDbEntity
  8
IGES level 0
100
AcDbSpline
210
0.0
220
0.0
230
1.0
 70
    24
 71
     2
 72
     6
 73
     3
 74
     0
 42
0.0000000001
 43
0.0000000001
 40
-1.0
 40
-1.0
 40
-1.0
 40
0.0
 40
0.0
 40
0.0
 10
-87.10605579391268
 20
-34.19999999999993
 30
-0.1999999999999993
 10
221.8939442060876
 20
-34.20000000000027
 30
-0.1999999999999975
 10
530.8939442060873
 20
-34.20000000000067
 30
-0.1999999999999975
  0
SPLINE
  5
46E
102
{ACAD_REACTORS
330
51F
102
}
330
70
100
AcDbEntity
  8
IGES level 0
100
AcDbSpline
210
0.0
220
0.0
230
1.0
 70
    24
 71
     2
 72
     6
 73
     3
 74
     0
 42
0.0000000001
 43
0.0000000001
 40
-0.6612
 40
-0.6612
 40
-0.6612
 40
-0.0428
 40
-0.0428
 40
-0.0428
 10
-87.3060557939125
 20
-34.0
 30
0.0000000000000053
 10
221.8939442060876
 20
-34.00000000000023
 30
0.0
 10
531.0939442060873
 20
-34.00000000000062
 30
-0.0000000000000071
  0
SPLINE
  5
46F
102
{ACAD_REACTORS
330
51F
102
}
330
70
100
AcDbEntity
  8
IGES level 0
100
AcDbSpline
210
0.7071067811868773
220
-0.0000000000012772
230
-0.7071067811862181
 70
    12
 71
     3
 72
     8
 73
     4
 74
     0
 42
0.0000000001
 43
0.0000000001
 40
-0.0428
 40
-0.0428
 40
-0.0428
 40
-0.0428
 40
1.527996326794899
 40
1.527996326794899
 40
1.527996326794899
 40
1.527996326794899
 10
531.0939442060873
 20
-34.00000000000062
 30
-0.0000000000000071
 41
1.0
 10
530.9767869185622
 20
-34.00000000000062
 30
-0.117157287525381
 41
0.8047378541243599
 10
530.8939442060873
 20
-34.08284271247527
 30
-0.2000000000000046
 41
0.8047378541243599
 10
530.8939442060873
 20
-34.20000000000067
 30
-0.1999999999999975
 41
1.0
  0
SPLINE
  5
470
102
{ACAD_REACTORS
330
51F
102
}
330
70
100
AcDbEntity
  8
IGES level 0
100
AcDbSpline
210
0.0
220
0.0
230
1.0
 70
    24
 71
     2
 72
     6
 73
     3
 74
     0
 42
0.0000000001
 43
0.0000000001
 40
1.527996326794899
 40
1.527996326794899
 40
1.527996326794899
 40
2.145996326794898
 40
2.145996326794898
 40
2.145996326794898
 10
530.8939442060873
 20
-34.20000000000067
 30
-0.1999999999999975
 10
221.8939442060876
 20
-34.20000000000027
 30
-0.1999999999999975
 10
-87.10605579391268
 20
-34.19999999999993
 30
-0.1999999999999993
  0
SPLINE
  5
471
102
{ACAD_REACTORS
330
51F
102
}
330
70
100
AcDbEntity
  8
IGES level 0
100
AcDbSpline
210
-0.7071067811865892
220
0.0000000000008594
230
-0.7071067811865061
 70
    12
 71
     3
 72
     8
 73
     4
 74
     0
 42
0.0000000001
 43
0.0000000001
 40
2.145996326794898
 40
2.145996326794898
 40
2.145996326794898
 40
2.145996326794898
 40
3.716792653589788
 40
3.716792653589788
 40
3.716792653589788
 40
3.716792653589788
 10
-87.10605579391268
 20
-34.19999999999993
 30
-0.1999999999999957
 41
1.0
 10
-87.10605579391268
 20
-34.08284271247464
 30
-0.199999999999996
 41
0.8047378541243599
 10
-87.18889850638698
 20
-33.99999999999989
 30
-0.117157287525381
 41
0.8047378541243599
 10
-87.3060557939125
 20
-34.0
 30
0.0000000000000053
 41
1.0
  0
SPLINE
  5
473
102
{ACAD_REACTORS
330
51F
102
}
330
70
100
AcDbEntity
  8
IGES level 0
100
AcDbSpline
210
0.0
220
0.0
230
1.0
 70
    28
 71
     2
 72
     6
 73
     3
 74
     0
 42
0.0000000001
 43
0.0000000001
 40
0.00615483115332
 40
0.00615483115332
 40
0.00615483115332
 40
0.99384516884668
 40
0.99384516884668
 40
0.99384516884668
 10
530.9525228498513
 20
-34.05857864376328
 30
-0.1414213562373128
 41
0.85355339059327
 10
221.8939442060878
 20
-34.05857864376299
 30
-0.1414213562373074
 41
0.85355339059327
 10
-87.16463443767679
 20
-34.0585786437627
 30
-0.1414213562373003
 41
0.85355339059327
  0
SPLINE
  5
474
102
{ACAD_REACTORS
330
51F
102
}
330
70
100
AcDbEntity
  8
IGES level 0
100
AcDbSpline
210
0.0
220
1.0
230
0.0
 70
    24
 71
     2
 72
     6
 73
     3
 74
     0
 42
0.0000000001
 43
0.0000000001
 40
0.003
 40
0.003
 40
0.003
 40
0.00695979797465
 40
0.00695979797465
 40
0.00695979797465
 10
533.8939442060875
 20
-34.00000000000062
 30
2.799999999999943
 10
532.4939442060874
 20
-34.00000000000062
 30
1.399999999999925
 10
531.0939442060873
 20
-34.00000000000062
 30
-0.0000000000000924
  0
SPLINE
  5
475
102
{ACAD_REACTORS
330
51F
102
}
330
70
100
AcDbEntity
  8
IGES level 0
100
AcDbSpline
210
0.0
220
0.0
230
1.0
 70
    24
 71
     2
 72
     6
 73
     3
 74
     0
 42
0.0000000001
 43
0.0000000001
 40
0.00695979797465
 40
0.00695979797465
 40
0.00695979797465
 40
0.62535979797465
 40
0.62535979797465
 40
0.62535979797465
 10
531.0939442060873
 20
-34.00000000000062
 30
-0.0000000000000071
 10
221.8939442060876
 20
-34.00000000000023
 30
0.0
 10
-87.3060557939125
 20
-34.0
 30
0.0000000000000053
  0
SPLINE
  5
476
102
{ACAD_REACTORS
330
51F
102
}
330
70
100
AcDbEntity
  8
IGES level 0
100
AcDbSpline
210
0.0
220
-1.0
230
0.0
 70
    24
 71
     2
 72
     6
 73
     3
 74
     0
 42
0.0000000001
 43
0.0000000001
 40
0.62535979797465
 40
0.62535979797465
 40
0.62535979797465
 40
0.6293195959492901
 40
0.6293195959492901
 40
0.6293195959492901
 10
-87.3060557939125
 20
-34.0
 30
-0.0000000000001794
 10
-88.70605579391257
 20
-34.0
 30
1.399999999999835
 10
-90.10605579391267
 20
-34.0
 30
2.799999999999844
  0
SPLINE
  5
477
102
{ACAD_REACTORS
330
51F
102
}
330
70
100
AcDbEntity
  8
IGES level 0
100
AcDbSpline
210
0.0
220
0.0
230
1.0
 70
    28
 71
     2
 72
     6
 73
     3
 74
     0
 42
0.0000000001
 43
0.0000000001
 40
-1.0
 40
-1.0
 40
-1.0
 40
0.0
 40
0.0
 40
0.0
 10
-90.10605579391222
 20
-31.5
 30
8.299999999999998
 41
1.0
 10
221.8939442060876
 20
-31.50000000000023
 30
8.299999999999995
 41
1.0
 10
533.8939442060873
 20
-31.50000000000062
 30
8.299999999999991
 41
1.0
  0
SPLINE
  5
478
102
{ACAD_REACTORS
330
51F
102
}
330
70
100
AcDbEntity
  8
IGES level 0
100
AcDbSpline
210
0.0
220
0.0
230
1.0
 70
    28
 71
     2
 72
     6
 73
     3
 74
     0
 42
0.0000000001
 43
0.0000000001
 40
0.0
 40
0.0
 40
0.0
 40
1.0
 40
1.0
 40
1.0
 10
533.8939442060871
 20
-33.2677669529669
 30
7.567766952966369
 41
0.85355339059327
 10
221.8939442060878
 20
-33.26776695296667
 30
7.567766952966369
 41
0.85355339059327
 10
-90.10605579391222
 20
-33.26776695296633
 30
7.567766952966373
 41
0.85355339059327
  0
SPLINE
  5
479
102
{ACAD_REACTORS
330
51F
102
}
330
70
100
AcDbEntity
  8
IGES level 0
100
AcDbSpline
210
0.0
220
0.0
230
1.0
 70
    24
 71
     2
 72
     6
 73
     3
 74
     0
 42
0.0000000001
 43
0.0000000001
 40
-0.0097
 40
-0.0097
 40
-0.0097
 40
-0.0015
 40
-0.0015
 40
-0.0015
 10
-90.10605579391267
 20
-31.5
 30
8.299999999999998
 10
-90.10605579391222
 20
-27.39999999999998
 30
8.299999999999991
 10
-90.10605579391222
 20
-23.29999999999996
 30
8.299999999999998
  0
SPLINE
  5
47A
102
{ACAD_REACTORS
330
51F
102
}
330
70
100
AcDbEntity
  8
IGES level 0
100
AcDbSpline
210
0.0
220
0.0
230
1.0
 70
    24
 71
     2
 72
     6
 73
     3
 74
     0
 42
0.0000000001
 43
0.0000000001
 40
1.670501398773919
 40
1.670501398773919
 40
1.670501398773919
 40
1.678701398773918
 40
1.678701398773918
 40
1.678701398773918
 10
533.8939442060873
 20
-23.30000000000069
 30
8.299999999999998
 10
533.8939442060875
 20
-27.40000000000061
 30
8.299999999999991
 10
533.8939442060873
 20
-31.50000000000062
 30
8.299999999999991
  0
SPLINE
  5
47B
102
{ACAD_REACTORS
330
51F
102
}
330
70
100
AcDbEntity
  8
IGES level 0
100
AcDbSpline
210
0.0
220
0.0
230
1.0
 70
    24
 71
     2
 72
     6
 73
     3
 74
     0
 42
0.0000000001
 43
0.0000000001
 40
1.678701398773918
 40
1.678701398773918
 40
1.678701398773918
 40
2.302701398773919
 40
2.302701398773919
 40
2.302701398773919
 10
533.8939442060873
 20
-31.50000000000062
 30
8.299999999999991
 10
221.8939442060876
 20
-31.50000000000023
 30
8.299999999999998
 10
-90.10605579391222
 20
-31.5
 30
8.299999999999998
  0
3DFACE
  5
47C
102
{ACAD_REACTORS
330
51F
102
}
330
70
100
AcDbEntity
  8
0
100
AcDbFace
 10
533.8939442060875
 20
-35.00000000000063
 30
9.799999999999998
 11
533.8939442060875
 21
-0.3000000000006935
 31
9.799999999999998
 12
-90.10605579391267
 22
-0.2999999999999545
 32
9.799999999999878
 13
-90.10605579391267
 23
-35.0
 33
9.799999999999998
  0
3DFACE
  5
47D
102
{ACAD_REACTORS
330
51F
102
}
330
70
100
AcDbEntity
  8
0
100
AcDbFace
 10
533.8939442060873
 20
-23.29999999999706
 30
9.799999999864921
 11
533.8939442060873
 21
-23.30000000000069
 31
8.299999999904537
 12
534.1658774543668
 22
-1.587867965644534
 32
8.612132034355989
 13
533.8939442060875
 23
-0.3000000000006935
 33
9.799999999999998
  0
3DFACE
  5
47E
102
{ACAD_REACTORS
330
51F
102
}
330
70
100
AcDbEntity
  8
0
100
AcDbFace
 10
533.8939442060875
 20
-31.50000000000062
 30
8.299999999999998
 11
533.8939442060875
 21
-31.50000000000074
 31
9.799999999999998
 12
533.8939442060875
 22
-23.29999999999706
 32
9.799999999999998
 13
533.8939442060873
 23
-23.29999999990156
 33
8.300000000000446
  0
3DFACE
  5
47F
102
{ACAD_REACTORS
330
51F
102
}
330
70
100
AcDbEntity
  8
0
100
AcDbFace
 10
533.8939442060875
 20
-31.50000000000074
 30
9.799999999999998
 11
533.8939442060875
 21
-32.10236864357677
 31
9.799999999999998
 12
533.8939442060875
 22
-32.10464178928402
 32
8.225779937803958
 13
533.8939442060875
 23
-31.50000000000119
 33
8.299999999999998
  0
3DFACE
  5
480
102
{ACAD_REACTORS
330
51F
102
}
330
70
100
AcDbEntity
  8
0
100
AcDbFace
 10
533.8939442060875
 20
-32.10464178928402
 30
8.225779937803979
 11
533.8939442060875
 21
-32.53501920133778
 31
8.075683469391877
 12
533.8939442060875
 22
-32.53501920133789
 32
9.799999999999998
 13
533.8939442060875
 23
-32.10236954568785
 33
9.79937526160978
  0
3DFACE
  5
481
102
{ACAD_REACTORS
330
51F
102
}
330
70
100
AcDbEntity
  8
0
100
AcDbFace
 10
533.8939442060875
 20
-32.53501920133778
 30
8.075683469391877
 11
533.8939442060875
 21
-32.75940061079854
 31
7.959608784368578
 12
533.8939442060875
 22
-32.75940061079842
 32
9.799999999999998
 13
533.8939442060875
 23
-32.53501920133789
 33
9.800000000000016
  0
3DFACE
  5
482
102
{ACAD_REACTORS
330
51F
102
}
330
70
100
AcDbEntity
  8
0
100
AcDbFace
 10
533.8939442060875
 20
-32.75940061079854
 30
7.959608784375445
 11
533.8939442060875
 21
-32.97362792380767
 31
7.819510025272526
 12
533.8939442060875
 22
-32.97362792380767
 32
9.799999999999998
 13
533.8939442060875
 23
-32.75940061079842
 33
9.799999999999998
  0
3DFACE
  5
483
102
{ACAD_REACTORS
330
51F
102
}
330
70
100
AcDbEntity
  8
0
100
AcDbFace
 10
533.8939442060875
 20
-32.97362792380767
 30
7.819510025272526
 11
533.8939442060875
 21
-33.17393117348109
 31
7.656866830564393
 12
533.8939442060875
 22
-33.17393117348121
 32
9.799999999999998
 13
533.8939442060875
 23
-32.97362792380767
 33
9.799999999999998
  0
3DFACE
  5
484
102
{ACAD_REACTORS
330
51F
102
}
330
70
100
AcDbEntity
  8
0
100
AcDbFace
 10
533.8939442060875
 20
-33.17393117348098
 30
7.656866830564499
 11
533.8939442060875
 21
-33.2677646081873
 31
7.56776929774297
 12
533.8939442060875
 22
-33.26776460818752
 32
9.799999999999998
 13
533.8939442060875
 23
-33.17393117348121
 33
9.799999999999998
  0
3DFACE
  5
485
102
{ACAD_REACTORS
330
51F
102
}
330
70
100
AcDbEntity
  8
0
100
AcDbFace
 10
533.8939442060875
 20
-33.2677646081873
 30
7.56776929774298
 11
533.8939442060875
 21
-33.39333454276613
 31
7.432569848175349
 12
533.8939442060875
 22
-33.39333454276613
 32
9.799999999999998
 13
533.8939442060875
 23
-33.26776460818752
 33
9.799999999999966
  0
3DFACE
  5
486
102
{ACAD_REACTORS
330
51F
102
}
330
70
100
AcDbEntity
  8
0
100
AcDbFace
 10
533.8939442060875
 20
-33.39333454276613
 30
7.432569848175349
 11
533.8939442060875
 21
-33.51951002527318
 31
7.273627923807001
 12
533.8939442060875
 22
-33.51951002527329
 32
9.799999999999998
 13
533.8939442060875
 23
-33.39333454276613
 33
9.799999999999959
  0
3DFACE
  5
487
102
{ACAD_REACTORS
330
51F
102
}
330
70
100
AcDbEntity
  8
0
100
AcDbFace
 10
533.8939442060875
 20
-33.51951002527318
 30
7.273627923807001
 11
533.8939442060875
 21
-33.61982555101605
 31
7.12526964549192
 12
533.8939442060875
 22
-33.61982555101605
 32
9.799999999999998
 13
533.8939442060875
 23
-33.51951002527329
 33
9.799999999999998
  0
3DFACE
  5
488
102
{ACAD_REACTORS
330
51F
102
}
330
70
100
AcDbEntity
  8
0
100
AcDbFace
 10
533.8939442060875
 20
-33.61982555101571
 30
7.125269645492402
 11
533.8939442060875
 21
-33.69252606390313
 31
7.00117836273735
 12
533.8939442060875
 22
-33.69252606390347
 32
9.799999999999998
 13
533.8939442060875
 23
-33.61982555101605
 33
9.799999999999998
  0
3DFACE
  5
489
102
{ACAD_REACTORS
330
51F
102
}
330
70
100
AcDbEntity
  8
0
100
AcDbFace
 10
533.8939442060875
 20
-33.69252606390313
 30
7.00117836273735
 11
533.8939442060875
 21
-33.75665634434148
 31
6.87587273575758
 12
533.8939442060875
 22
-33.75665634434148
 32
9.799999999999998
 13
533.8939442060875
 23
-33.69252606390347
 33
9.799999999999959
  0
3DFACE
  5
48A
102
{ACAD_REACTORS
330
51F
102
}
330
70
100
AcDbEntity
  8
0
100
AcDbFace
 10
533.8939442060875
 20
-33.75665634434148
 30
6.87587273575758
 11
533.8939442060875
 21
-33.80956086306009
 31
6.75704159775028
 12
533.8939442060875
 22
-33.80956086306031
 32
9.799999999999998
 13
533.8939442060875
 23
-33.75665634434148
 33
9.799999999999998
  0
3DFACE
  5
48B
102
{ACAD_REACTORS
330
51F
102
}
330
70
100
AcDbEntity
  8
0
100
AcDbFace
 10
533.8939442060875
 20
-33.80956086306009
 30
6.75704159775028
 11
533.8939442060875
 21
-33.87244900688683
 31
6.58834364951133
 12
533.8939442060875
 22
-33.87244900688705
 32
9.799999999999998
 13
533.8939442060875
 23
-33.80956086306031
 33
9.799999999999998
  0
3DFACE
  5
48C
102
{ACAD_REACTORS
330
51F
102
}
330
70
100
AcDbEntity
  8
0
100
AcDbFace
 10
533.8939442060875
 20
-33.87244900688683
 30
6.58834364951133
 11
533.8939442060875
 21
-33.91224427700473
 31
6.456564961036502
 12
533.8939442060875
 22
-33.91224427700439
 32
9.799999999999998
 13
533.8939442060875
 23
-33.87244900688705
 33
9.799999999999998
  0
3DFACE
  5
48D
102
{ACAD_REACTORS
330
51F
102
}
330
70
100
AcDbEntity
  8
0
100
AcDbFace
 10
533.8939442060875
 20
-33.91224427700462
 30
6.456564961037052
 11
533.8939442060875
 21
-33.94996936888339
 31
6.299999999999901
 12
533.8939442060875
 22
-33.94996936888361
 32
9.799999999999998
 13
533.8939442060875
 23
-33.91224427700439
 33
9.799999999999998
  0
3DFACE
  5
48E
102
{ACAD_REACTORS
330
51F
102
}
330
70
100
AcDbEntity
  8
0
100
AcDbFace
 10
533.8939442060875
 20
-35.00000000000085
 30
9.799999999999998
 11
533.8939442060875
 21
-35.0898544378984
 31
6.299999999999901
 12
533.8939442060873
 22
-33.94996936888339
 32
6.29999999999995
 13
533.8939442060875
 23
-33.94996936888361
 33
9.799999999999998
  0
3DFACE
  5
48F
102
{ACAD_REACTORS
330
51F
102
}
330
70
100
AcDbEntity
  8
0
100
AcDbFace
 10
533.8939442060875
 20
-35.00000000000063
 30
9.799999999999998
 11
533.8939442060875
 21
-35.18572177079756
 31
9.78260237321721
 12
533.8939442060875
 22
-35.18572177079756
 32
6.299999999999901
 13
533.8939442060875
 23
-35.0898544378984
 33
6.299999999999901
  0
3DFACE
  5
490
102
{ACAD_REACTORS
330
51F
102
}
330
70
100
AcDbEntity
  8
0
100
AcDbFace
 10
533.8939442060875
 20
-35.18572177079756
 30
9.78260237321721
 11
533.8939442060875
 21
-35.30622650337472
 31
9.751958680107099
 12
533.8939442060875
 22
-35.30622650337472
 32
6.299999999999901
 13
533.8939442060875
 23
-35.18572177079756
 33
6.299999999999901
  0
3DFACE
  5
491
102
{ACAD_REACTORS
330
51F
102
}
330
70
100
AcDbEntity
  8
0
100
AcDbFace
 10
533.8939442060875
 20
-35.30622650337472
 30
9.751958680107099
 11
533.8939442060875
 21
-35.45076581472523
 31
9.692642246521897
 12
533.8939442060875
 22
-35.45076581472523
 32
6.299999999999901
 13
533.8939442060875
 23
-35.30622650337472
 33
6.299999999999901
  0
3DFACE
  5
492
102
{ACAD_REACTORS
330
51F
102
}
330
70
100
AcDbEntity
  8
0
100
AcDbFace
 10
533.8939442060875
 20
-35.45076581472523
 30
9.692642246521897
 11
533.8939442060875
 21
-35.58945116952344
 31
9.607804010109012
 12
533.8939442060875
 22
-35.58945116952344
 32
6.299999999999901
 13
533.8939442060875
 23
-35.45076581472523
 33
6.299999999999901
  0
3DFACE
  5
493
102
{ACAD_REACTORS
330
51F
102
}
330
70
100
AcDbEntity
  8
0
100
AcDbFace
 10
533.8939442060875
 20
-35.58945116952344
 30
9.607804010109012
 11
533.8939442060875
 21
-35.70710090519032
 31
9.5071126571346
 12
533.8939442060875
 22
-35.70710090519032
 32
6.299999999999901
 13
533.8939442060875
 23
-35.58945116952344
 33
6.299999999999901
  0
3DFACE
  5
494
102
{ACAD_REACTORS
330
51F
102
}
330
70
100
AcDbEntity
  8
0
100
AcDbFace
 10
533.8939442060875
 20
-35.70710090519032
 30
9.5071126571346
 11
533.8939442060875
 21
-35.80780401010969
 31
9.389451169522798
 12
533.8939442060875
 22
-35.80780401010969
 32
6.299999999999901
 13
533.8939442060875
 23
-35.70710090519032
 33
6.299999999999901
  0
3DFACE
  5
495
102
{ACAD_REACTORS
330
51F
102
}
330
70
100
AcDbEntity
  8
0
100
AcDbFace
 10
533.8939442060875
 20
-35.80780401010969
 30
9.389451169522798
 11
533.8939442060875
 21
-35.88947405874245
 31
9.256985665886018
 12
533.8939442060875
 22
-35.88947405874245
 32
6.299999999999901
 13
533.8939442060875
 23
-35.80780401010969
 33
6.299999999999901
  0
3DFACE
  5
496
102
{ACAD_REACTORS
330
51F
102
}
330
70
100
AcDbEntity
  8
0
100
AcDbFace
 10
533.8939442060875
 20
-35.88947405874245
 30
9.256985665886018
 11
533.8939442060875
 21
-35.93505955275322
 31
9.154490666740668
 12
533.8939442060875
 22
-35.93505955275322
 32
6.299999999999901
 13
533.8939442060875
 23
-35.88947405874245
 33
6.299999999999901
  0
3DFACE
  5
497
102
{ACAD_REACTORS
330
51F
102
}
330
70
100
AcDbEntity
  8
0
100
AcDbFace
 10
533.8939442060875
 20
-35.93505955275322
 30
9.154490666740668
 11
533.8939442060875
 21
-35.96901399649386
 31
9.047005818960228
 12
533.8939442060875
 22
-35.96901399649386
 32
6.299999999999901
 13
533.8939442060875
 23
-35.93505955275322
 33
6.299999999999901
  0
3DFACE
  5
498
102
{ACAD_REACTORS
330
51F
102
}
330
70
100
AcDbEntity
  8
0
100
AcDbFace
 10
533.8939442060875
 20
-35.96901399649386
 30
9.047005818960228
 11
533.8939442060875
 21
-35.99672791971824
 31
8.880829784457676
 12
533.8939442060875
 22
-36.00000000000063
 32
6.299999999999901
 13
533.8939442060875
 23
-35.96901399649386
 33
6.299999999999901
  0
3DFACE
  5
499
102
{ACAD_REACTORS
330
51F
102
}
330
70
100
AcDbEntity
  8
0
100
AcDbFace
 10
533.8939442060875
 20
-36.00000000000063
 30
6.299999999999972
 11
533.8939442060873
 21
-33.94996936888339
 31
6.299999999999991
 12
533.8939442060875
 22
-34.00000000000062
 32
2.79999999999995
 13
533.8939442060875
 23
-36.00000000000063
 33
2.800000000000009
  0
3DFACE
  5
49A
102
{ACAD_REACTORS
330
51F
102
}
330
70
100
AcDbEntity
  8
0
100
AcDbFace
 10
533.8939442060875
 20
-36.00000000000063
 30
2.800000000000119
 11
531.0939442060873
 21
-36.00000000000063
 31
-0.0000000000000426
 12
531.0939442060873
 22
-34.00000000000062
 32
-0.0000000000000799
 13
533.8939442060875
 23
-34.00000000000062
 33
2.79999999999995
  0
3DFACE
  5
49B
102
{ACAD_REACTORS
330
51F
102
}
330
70
100
AcDbEntity
  8
0
100
AcDbFace
 10
531.0939442060873
 20
-36.00000000000063
 30
0.0
 11
531.0389125631184
 21
-35.99227979163805
 31
-0.0550316429690714
 12
531.0389125631184
 22
-34.0077202083632
 32
-0.0550316429690714
 13
531.0939442060873
 23
-34.00000000000062
 33
-0.0000000000000799
  0
3DFACE
  5
49C
102
{ACAD_REACTORS
330
51F
102
}
330
70
100
AcDbEntity
  8
0
100
AcDbFace
 10
531.0389125631184
 20
-35.99227979163805
 30
-0.0550316429690714
 11
531.0020852874761
 21
-35.97765680136655
 31
-0.0918589186111998
 12
531.0056493384236
 22
-34.0205452247946
 32
-0.088294867663878
 13
531.0389125631184
 23
-34.0077202083632
 33
-0.0550316429690714
  0
3DFACE
  5
49D
102
{ACAD_REACTORS
330
51F
102
}
330
70
100
AcDbEntity
  8
0
100
AcDbFace
 10
531.0020852874761
 20
-35.97765680136655
 30
-0.0918589186111998
 11
530.95252284985
 21
-35.94142135623798
 31
-0.1414213562373074
 12
530.9525228498516
 22
-34.05857864376339
 32
-0.1414213562373074
 13
531.0056493384236
 23
-34.0205452247946
 33
-0.088294867663878
  0
3DFACE
  5
49E
102
{ACAD_REACTORS
330
51F
102
}
330
70
100
AcDbEntity
  8
0
100
AcDbFace
 10
530.95252284985
 20
-35.94142135623798
 30
-0.1414213562373074
 11
530.921175503338
 21
-35.90075204886449
 31
-0.1727687027494849
 12
530.921175503338
 22
-34.09924795113676
 32
-0.1727687027494849
 13
530.9525228498503
 23
-34.05857864376315
 33
-0.1414213562371742
  0
3DFACE
  5
49F
102
{ACAD_REACTORS
330
51F
102
}
330
70
100
AcDbEntity
  8
0
100
AcDbFace
 10
530.921175503338
 20
-35.90075204886449
 30
-0.1727687027494849
 11
530.9070096809112
 21
-35.87110192189545
 31
-0.1869345251762588
 12
530.9073339620972
 22
-34.12805129022746
 32
-0.1866102439900441
 13
530.921175503338
 23
-34.09924795113676
 33
-0.1727687027494849
  0
3DFACE
  5
4A0
102
{ACAD_REACTORS
330
51F
102
}
330
70
100
AcDbEntity
  8
0
100
AcDbFace
 10
530.9070096809112
 20
-35.87110192189545
 30
-0.1869345251762588
 11
530.895794085154
 21
-35.82713907835608
 31
-0.1981501209336471
 12
530.8973277353836
 22
-34.16336718072574
 32
-0.196616470703697
 13
530.9073339620972
 23
-34.12805129022746
 33
-0.1866102439900441
  0
3DFACE
  5
4A1
102
{ACAD_REACTORS
330
51F
102
}
330
70
100
AcDbEntity
  8
0
100
AcDbFace
 10
530.895794085154
 20
-35.82713907835608
 30
-0.1981501209336471
 11
530.8939442060875
 21
-35.79797723436121
 31
-0.1999999999999993
 12
530.8939442060873
 22
-34.20000000000067
 32
-0.1999999999999993
 13
530.8973277353836
 23
-34.16336718072574
 33
-0.196616470703697
  0
3DFACE
  5
4A2
102
{ACAD_REACTORS
330
51F
102
}
330
70
100
AcDbEntity
  8
0
100
AcDbFace
 10
533.8939442060875
 20
-36.00000000000063
 30
8.800000000000208
 11
533.8939442060875
 21
-36.00000000000063
 31
2.800000000000119
 12
-90.10605579391267
 22
-36.0
 32
2.799999999999901
 13
-90.10605579391267
 23
-36.0
 33
8.800000000000009
  0
3DFACE
  5
4A3
102
{ACAD_REACTORS
330
51F
102
}
330
70
100
AcDbEntity
  8
0
100
AcDbFace
 10
531.0939442060873
 20
-36.00000000000063
 30
0.0000000000000515
 11
533.8939442060875
 21
-36.00000000000063
 31
2.800000000000029
 12
-90.10605579391267
 22
-36.0
 32
2.799999999999901
 13
-87.3060557939125
 23
-36.0
 33
0.0
  0
3DFACE
  5
4A4
102
{ACAD_REACTORS
330
51F
102
}
330
70
100
AcDbEntity
  8
0
100
AcDbFace
 10
-87.3060557939134
 20
-36.0
 30
0.0000000000007319
 11
-87.25102415094353
 21
-35.99227979163732
 31
-0.0550316429690714
 12
531.0389125631184
 22
-35.99227979163805
 32
-0.0550316429690714
 13
531.0939442060871
 23
-36.00000000000063
 33
-0.0000000000001705
  0
3DFACE
  5
4A5
102
{ACAD_REACTORS
330
51F
102
}
330
70
100
AcDbEntity
  8
0
100
AcDbFace
 10
531.0389125631186
 20
-35.99227979163805
 30
-0.0550316429690714
 11
531.0020852874761
 21
-35.97765680136655
 31
-0.0918589186112211
 12
-87.21419687530124
 22
-35.97765680136593
 32
-0.0918589186111998
 13
-87.25102415094353
 23
-35.99227979163743
 33
-0.0550316429689914
  0
3DFACE
  5
4A6
102
{ACAD_REACTORS
330
51F
102
}
330
70
100
AcDbEntity
  8
0
100
AcDbFace
 10
531.0020852874761
 20
-35.97765680136655
 30
-0.0918589186111998
 11
530.9525228498516
 21
-35.94142135623798
 31
-0.1414213562373074
 12
-87.16463443767679
 22
-35.94142135623724
 32
-0.1414213562373074
 13
-87.21419687530124
 23
-35.97765680136593
 33
-0.0918589186111998
  0
3DFACE
  5
4A7
102
{ACAD_REACTORS
330
51F
102
}
330
70
100
AcDbEntity
  8
0
100
AcDbFace
 10
-87.16463443767679
 20
-35.94142135623724
 30
-0.1414213562373074
 11
-87.1332870911633
 21
-35.90075204886375
 31
-0.1727687027494849
 12
530.921175503338
 22
-35.90075204886449
 32
-0.1727687027494849
 13
530.95252284985
 23
-35.94142135623798
 33
-0.1414213562373074
  0
3DFACE
  5
4A8
102
{ACAD_REACTORS
330
51F
102
}
330
70
100
AcDbEntity
  8
0
100
AcDbFace
 10
530.9211755033377
 20
-35.90075204886449
 30
-0.1727687027494849
 11
530.9070096809112
 21
-35.87110192189545
 31
-0.1869345251762588
 12
-87.11925985036122
 22
-35.87146520462989
 32
-0.1867959435512265
 13
-87.13328709116286
 23
-35.90075204886375
 33
-0.1727687027494849
  0
3DFACE
  5
4A9
102
{ACAD_REACTORS
330
51F
102
}
330
70
100
AcDbEntity
  8
0
100
AcDbFace
 10
-87.11925985036122
 20
-35.87146520462989
 30
-0.1867959435512265
 11
-87.10605579391268
 21
-35.79999999999996
 31
-0.1999999999999993
 12
530.8939442060875
 22
-35.80000000000069
 32
-0.1999999999999993
 13
530.895794085154
 23
-35.82713907835608
 33
-0.1981501209336471
  0
3DFACE
  5
4AA
102
{ACAD_REACTORS
330
51F
102
}
330
70
100
AcDbEntity
  8
0
100
AcDbFace
 10
533.8939442060875
 20
-35.00000000000085
 30
9.799999999999998
 11
533.8939442060875
 21
-35.18572177079756
 31
9.78260237321721
 12
-90.10605579391267
 22
-35.16380687516778
 32
9.786492426553808
 13
-90.10605579391222
 23
-35.0
 33
9.799999999999998
  0
3DFACE
  5
4AB
102
{ACAD_REACTORS
330
51F
102
}
330
70
100
AcDbEntity
  8
0
100
AcDbFace
 10
533.8939442060875
 20
-35.18572177079756
 30
9.78260237321721
 11
533.8939442060875
 21
-35.30622650337472
 31
9.751958680107099
 12
-90.10605579391267
 22
-35.30622650339285
 32
9.75195868010107
 13
-90.10605057684642
 23
-35.16380687535104
 33
9.786492426521279
  0
3DFACE
  5
4AC
102
{ACAD_REACTORS
330
51F
102
}
330
70
100
AcDbEntity
  8
0
100
AcDbFace
 10
533.8939442060875
 20
-35.30622650337472
 30
9.751958680107099
 11
533.8939442060875
 21
-35.45076581472523
 31
9.692642246521897
 12
-90.10605579391267
 22
-35.45076582791228
 32
9.692642239862378
 13
-90.10605579391267
 23
-35.30622650339285
 33
9.75195868010107
  0
3DFACE
  5
4AD
102
{ACAD_REACTORS
330
51F
102
}
330
70
100
AcDbEntity
  8
0
100
AcDbFace
 10
533.8939442060875
 20
-35.45076581472523
 30
9.692642246521897
 11
533.8939442060875
 21
-35.58945116952344
 31
9.607804010108997
 12
-90.10605579391267
 22
-35.58945117849908
 32
9.607804003559047
 13
-90.10605579391267
 23
-35.45076582791228
 33
9.692642239862378
  0
3DFACE
  5
4AE
102
{ACAD_REACTORS
330
51F
102
}
330
70
100
AcDbEntity
  8
0
100
AcDbFace
 10
533.8939442060875
 20
-35.70711265713527
 30
9.507100905189671
 11
533.8939442060875
 21
-35.80780401010969
 31
9.389451169522798
 12
-90.10605579391222
 22
-35.80780400356275
 32
9.389451178494008
 13
-90.10605579391267
 23
-35.70711265713453
 33
9.507100905189671
  0
3DFACE
  5
4AF
102
{ACAD_REACTORS
330
51F
102
}
330
70
100
AcDbEntity
  8
0
100
AcDbFace
 10
-90.1060557939154
 20
-35.58945117849908
 30
9.607804003559047
 11
-90.10605579391222
 21
-35.70711265713453
 31
9.507100905189671
 12
533.8939442060875
 22
-35.70710090519032
 32
9.507100905189671
 13
533.8939442060848
 23
-35.58945116952344
 33
9.607804010108987
  0
3DFACE
  5
4B0
102
{ACAD_REACTORS
330
51F
102
}
330
70
100
AcDbEntity
  8
0
100
AcDbFace
 10
533.8939442060875
 20
-35.80780401010969
 30
9.389451169522798
 11
533.8939442060875
 21
-35.88947405874245
 31
9.256985665886018
 12
-90.10605579391267
 22
-35.8894740581685
 32
9.256985667001879
 13
-90.10605579391267
 23
-35.80780401010895
 33
9.389451169522798
  0
3DFACE
  5
4B1
102
{ACAD_REACTORS
330
51F
102
}
330
70
100
AcDbEntity
  8
0
100
AcDbFace
 10
533.8939442060875
 20
-35.88947405874245
 30
9.256985665886018
 11
533.8939442060875
 21
-35.93505955275322
 31
9.154490666740668
 12
-90.10605579391267
 22
-35.93505955274725
 32
9.154490666754488
 13
-90.10605579391267
 23
-35.8894740581685
 33
9.256985667001879
  0
3DFACE
  5
4B2
102
{ACAD_REACTORS
330
51F
102
}
330
70
100
AcDbEntity
  8
0
100
AcDbFace
 10
533.8939442060875
 20
-35.93505955275322
 30
9.154490666740668
 11
533.8939442060875
 21
-35.96901399649386
 31
9.047005818960228
 12
-90.10605579391222
 22
-35.96901399648391
 32
9.047005818996717
 13
-90.10605579391267
 23
-35.93505955274725
 33
9.154490666754488
  0
3DFACE
  5
4B3
102
{ACAD_REACTORS
330
51F
102
}
330
70
100
AcDbEntity
  8
0
100
AcDbFace
 10
533.8939442060875
 20
-35.96901399649386
 30
9.047005818960228
 11
533.8939442060875
 21
-35.99006830178104
 31
8.940587189351505
 12
-90.10605579391267
 22
-35.99006830177507
 32
8.94058718938894
 13
-90.10605579391222
 23
-35.96901399648391
 33
9.047005818996717
  0
3DFACE
  5
4B4
102
{ACAD_REACTORS
330
51F
102
}
330
70
100
AcDbEntity
  8
0
100
AcDbFace
 10
533.8939442060875
 20
-35.99006830178104
 30
8.940587189351505
 11
533.8939442060875
 21
-36.00000000000063
 31
8.799999999999998
 12
-90.10605579391267
 22
-36.0
 32
8.800000000000208
 13
-90.10605579391267
 23
-35.99006830177507
 33
8.94058718938894
  0
3DFACE
  5
4B5
102
{ACAD_REACTORS
330
51F
102
}
330
70
100
AcDbEntity
  8
0
100
AcDbFace
 10
-90.10605579391267
 20
-0.2999999999999545
 30
9.799999999999878
 11
-90.4399547569783
 21
-1.587867965643908
 31
8.612132034355857
 12
-90.10594003509551
 22
-22.77767357034008
 32
8.299891787519181
 13
-90.10605579391267
 23
-22.7922243554026
 33
9.799999999911888
  0
3DFACE
  5
4B6
102
{ACAD_REACTORS
330
51F
102
}
330
70
100
AcDbEntity
  8
0
100
AcDbFace
 10
-90.10605579391267
 20
-23.29999999990093
 30
8.300000000000339
 11
-90.10605579391267
 21
-23.29999999999643
 31
9.799999999999878
 12
-90.10605579391267
 22
-31.5
 32
9.799999999999878
 13
-90.10605579391267
 23
-31.5
 33
8.299999999999878
  0
3DFACE
  5
4B7
102
{ACAD_REACTORS
330
51F
102
}
330
70
100
AcDbEntity
  8
0
100
AcDbFace
 10
-90.10605579391267
 20
-31.50000000000046
 30
8.299999999999888
 11
-90.10605579391267
 21
-32.10464178928339
 31
8.22577993780384
 12
-90.10605579391267
 22
-32.10236864357603
 32
9.799999999999878
 13
-90.10605579391267
 23
-31.5
 33
9.799999999999878
  0
3DFACE
  5
4B8
102
{ACAD_REACTORS
330
51F
102
}
330
70
100
AcDbEntity
  8
0
100
AcDbFace
 10
-90.10605579391267
 20
-32.10236954568711
 30
9.79937526160967
 11
-90.10605579391267
 21
-32.53501920133726
 31
9.799999999999878
 12
-90.10605579391267
 22
-32.53501920133704
 32
8.075683469391767
 13
-90.10605579391267
 23
-32.10464178928339
 33
8.225779937803869
  0
3DFACE
  5
4B9
102
{ACAD_REACTORS
330
51F
102
}
330
70
100
AcDbEntity
  8
0
100
AcDbFace
 10
-90.10605579391267
 20
-32.53501920133726
 30
9.799999999999895
 11
-90.10605579391267
 21
-32.7594006107978
 31
9.799999999999878
 12
-90.10605579391267
 22
-32.7594006107978
 32
7.959608784368457
 13
-90.10605579391267
 23
-32.53501920133704
 33
8.075683469391767
  0
3DFACE
  5
4BA
102
{ACAD_REACTORS
330
51F
102
}
330
70
100
AcDbEntity
  8
0
100
AcDbFace
 10
-90.10605579391267
 20
-32.7594006107978
 30
9.799999999999878
 11
-90.10605579391267
 21
-32.97362792380705
 31
9.799999999999878
 12
-90.10605579391267
 22
-32.97362792380693
 32
7.819510025272419
 13
-90.10605579391267
 23
-32.7594006107978
 33
7.959608784375328
  0
3DFACE
  5
4BB
102
{ACAD_REACTORS
330
51F
102
}
330
70
100
AcDbEntity
  8
0
100
AcDbFace
 10
-90.10605579391267
 20
-32.97362792380705
 30
9.799999999999888
 11
-90.10605579391267
 21
-33.17393117348047
 31
9.799999999999878
 12
-90.10605579391267
 22
-33.17393117348047
 32
7.656866830564279
 13
-90.10605579391267
 23
-32.97362792380693
 33
7.819510025272419
  0
3DFACE
  5
4BC
102
{ACAD_REACTORS
330
51F
102
}
330
70
100
AcDbEntity
  8
0
100
AcDbFace
 10
-90.10605579391267
 20
-33.17393117348047
 30
9.799999999999878
 11
-90.10605579391267
 21
-33.26776460818678
 31
9.799999999999878
 12
-90.10605579391267
 22
-33.26776460818667
 32
7.567769297742851
 13
-90.10605579391267
 23
-33.17393117348036
 33
7.656866830564393
  0
3DFACE
  5
4BD
102
{ACAD_REACTORS
330
51F
102
}
330
70
100
AcDbEntity
  8
0
100
AcDbFace
 10
-90.10605579391267
 20
-33.26776460818678
 30
9.799999999999849
 11
-90.10605579391267
 21
-33.39333454276539
 31
9.799999999999878
 12
-90.10605579391267
 22
-33.39333454276539
 32
7.43256984817523
 13
-90.10605579391267
 23
-33.26776460818667
 33
7.56776929774287
  0
3DFACE
  5
4BE
102
{ACAD_REACTORS
330
51F
102
}
330
70
100
AcDbEntity
  8
0
100
AcDbFace
 10
-90.10605579391267
 20
-33.39333454276539
 30
9.799999999999849
 11
-90.10605579391267
 21
-33.51951002527255
 31
9.799999999999878
 12
-90.10605579391267
 22
-33.51951002527244
 32
7.273627923806882
 13
-90.10605579391267
 23
-33.39333454276539
 33
7.43256984817523
  0
3DFACE
  5
4BF
102
{ACAD_REACTORS
330
51F
102
}
330
70
100
AcDbEntity
  8
0
100
AcDbFace
 10
-90.10605579391267
 20
-33.51951002527255
 30
9.799999999999878
 11
-90.10605579391267
 21
-33.61982555101531
 31
9.799999999999878
 12
-90.10605579391267
 22
-33.61982555101543
 32
7.125269645491801
 13
-90.10605579391267
 23
-33.51951002527244
 33
7.273627923806882
  0
3DFACE
  5
4C0
102
{ACAD_REACTORS
330
51F
102
}
330
70
100
AcDbEntity
  8
0
100
AcDbFace
 10
-90.10605579391267
 20
-33.61982555101531
 30
9.799999999999878
 11
-90.10605579391267
 21
-33.69252606390273
 31
9.799999999999878
 12
-90.10605579391267
 22
-33.69252606390239
 32
7.001178362737242
 13
-90.10605579391267
 23
-33.61982555101509
 33
7.12526964549229
  0
3DFACE
  5
4C1
102
{ACAD_REACTORS
330
51F
102
}
330
70
100
AcDbEntity
  8
0
100
AcDbFace
 10
-90.10605579391267
 20
-33.69252606390273
 30
9.799999999999839
 11
-90.10605579391267
 21
-33.75665634434085
 31
9.799999999999878
 12
-90.10605579391267
 22
-33.75665634434074
 32
6.875872735757461
 13
-90.10605579391267
 23
-33.69252606390239
 33
7.001178362737242
  0
3DFACE
  5
4C2
102
{ACAD_REACTORS
330
51F
102
}
330
70
100
AcDbEntity
  8
0
100
AcDbFace
 10
-90.10605579391267
 20
-33.75665634434085
 30
9.799999999999878
 11
-90.10605579391267
 21
-33.80956086305957
 31
9.799999999999878
 12
-90.10605579391267
 22
-33.80956086305935
 32
6.757041597750161
 13
-90.10605579391267
 23
-33.75665634434074
 33
6.875872735757461
  0
3DFACE
  5
4C3
102
{ACAD_REACTORS
330
51F
102
}
330
70
100
AcDbEntity
  8
0
100
AcDbFace
 10
-90.10605579391267
 20
-33.80956086305957
 30
9.799999999999878
 11
-90.10605579391267
 21
-33.87244900688632
 31
9.799999999999878
 12
-90.10605579391267
 22
-33.8724490068862
 32
6.588343649511221
 13
-90.10605579391267
 23
-33.80956086305935
 33
6.757041597750161
  0
3DFACE
  5
4C4
102
{ACAD_REACTORS
330
51F
102
}
330
70
100
AcDbEntity
  8
0
100
AcDbFace
 10
-90.10605579391267
 20
-33.87244900688632
 30
9.799999999999878
 11
-90.10605579391267
 21
-33.91224427700377
 31
9.799999999999878
 12
-90.10605579391267
 22
-33.91224427700411
 32
6.456564961036383
 13
-90.10605579391267
 23
-33.8724490068862
 33
6.588343649511221
  0
3DFACE
  5
4C5
102
{ACAD_REACTORS
330
51F
102
}
330
70
100
AcDbEntity
  8
0
100
AcDbFace
 10
-90.10605579391267
 20
-33.91224427700377
 30
9.799999999999878
 11
-90.10605579391267
 21
-33.94996936888288
 31
9.799999999999878
 12
-90.10605579391267
 22
-33.94996936888276
 32
6.299999999999791
 13
-90.10605579391267
 23
-33.91224427700388
 33
6.45656496103694
  0
3DFACE
  5
4C6
102
{ACAD_REACTORS
330
51F
102
}
330
70
100
AcDbEntity
  8
0
100
AcDbFace
 10
-90.10605579391267
 20
-33.94996936888288
 30
9.799999999999878
 11
-90.10605579391267
 21
-33.94996936888276
 31
6.29999999999984
 12
-90.10605579391267
 22
-35.08985443789766
 32
6.299999999999791
 13
-90.10605579391267
 23
-35.00000000000023
 33
9.799999999999878
  0
3DFACE
  5
4C7
102
{ACAD_REACTORS
330
51F
102
}
330
70
100
AcDbEntity
  8
0
100
AcDbFace
 10
-90.10605579391267
 20
-35.08985443789766
 30
6.299999999999791
 11
-90.10605579391267
 21
-35.18572177079682
 31
6.299999999999791
 12
-90.10605579391267
 22
-35.16380687516778
 32
9.786492426553808
 13
-90.10605579391267
 23
-35.0
 33
9.799999999999878
  0
3DFACE
  5
4C8
102
{ACAD_REACTORS
330
51F
102
}
330
70
100
AcDbEntity
  8
0
100
AcDbFace
 10
-90.10605579391267
 20
-35.18572177079682
 30
6.299999999999791
 11
-90.10605579391267
 21
-35.30622650337409
 31
6.299999999999791
 12
-90.10605579391267
 22
-35.30622650337409
 32
9.751958680106985
 13
-90.10605057684642
 23
-35.16380687535104
 33
9.786492426521279
  0
3DFACE
  5
4C9
102
{ACAD_REACTORS
330
51F
102
}
330
70
100
AcDbEntity
  8
0
100
AcDbFace
 10
-90.10605579391267
 20
-35.30622650337409
 30
6.299999999999791
 11
-90.10605579391267
 21
-35.45076581472461
 31
6.299999999999791
 12
-90.10605579391267
 22
-35.45076581472461
 32
9.692642246521787
 13
-90.10605579391267
 23
-35.30622650337409
 33
9.751958680106985
  0
3DFACE
  5
4CA
102
{ACAD_REACTORS
330
51F
102
}
330
70
100
AcDbEntity
  8
0
100
AcDbFace
 10
-90.10605579391267
 20
-35.45076581472461
 30
6.299999999999791
 11
-90.10605579391267
 21
-35.58945116952282
 31
6.299999999999791
 12
-90.10605579391267
 22
-35.58945116952282
 32
9.607804010108898
 13
-90.10605579391267
 23
-35.45076581472461
 33
9.692642246521787
  0
3DFACE
  5
4CB
102
{ACAD_REACTORS
330
51F
102
}
330
70
100
AcDbEntity
  8
0
100
AcDbFace
 10
-90.10605579391267
 20
-35.58945116952282
 30
6.299999999999791
 11
-90.10605579391267
 21
-35.70710090518969
 31
6.299999999999791
 12
-90.10605579391267
 22
-35.70710090518969
 32
9.507112657134479
 13
-90.10605579391267
 23
-35.58945116952282
 33
9.607804010108898
  0
3DFACE
  5
4CC
102
{ACAD_REACTORS
330
51F
102
}
330
70
100
AcDbEntity
  8
0
100
AcDbFace
 10
-90.10605579391267
 20
-35.70710090518969
 30
6.299999999999791
 11
-90.10605579391267
 21
-35.80780401010895
 31
6.299999999999791
 12
-90.10605579391267
 22
-35.80780401010895
 32
9.389451169522688
 13
-90.10605579391267
 23
-35.70710090518969
 33
9.507112657134479
  0
3DFACE
  5
4CD
102
{ACAD_REACTORS
330
51F
102
}
330
70
100
AcDbEntity
  8
0
100
AcDbFace
 10
-90.10605579391267
 20
-35.80780401010895
 30
6.299999999999791
 11
-90.10605579391267
 21
-35.88947405874183
 31
6.299999999999791
 12
-90.10605579391267
 22
-35.88947405874183
 32
9.256985665885901
 13
-90.10605579391267
 23
-35.80780401010895
 33
9.389451169522688
  0
3DFACE
  5
4CE
102
{ACAD_REACTORS
330
51F
102
}
330
70
100
AcDbEntity
  8
0
100
AcDbFace
 10
-90.10605579391267
 20
-35.88947405874183
 30
6.299999999999791
 11
-90.10605579391267
 21
-35.93505955275248
 31
6.299999999999791
 12
-90.10605579391267
 22
-35.93505955275248
 32
9.154490666740558
 13
-90.10605579391267
 23
-35.88947405874183
 33
9.256985665885901
  0
3DFACE
  5
4CF
102
{ACAD_REACTORS
330
51F
102
}
330
70
100
AcDbEntity
  8
0
100
AcDbFace
 10
-90.10605579391267
 20
-35.93505955275248
 30
6.299999999999791
 11
-90.10605579391267
 21
-35.96901399649323
 31
6.299999999999791
 12
-90.10605579391267
 22
-35.96901399649323
 32
9.047005818960117
 13
-90.10605579391267
 23
-35.93505955275248
 33
9.154490666740558
  0
3DFACE
  5
4D0
102
{ACAD_REACTORS
330
51F
102
}
330
70
100
AcDbEntity
  8
0
100
AcDbFace
 10
-90.10605579391267
 20
-35.96901399649323
 30
6.299999999999791
 11
-90.10605579391267
 21
-36.0
 31
6.299999999999791
 12
-90.10605579391267
 22
-35.9967279197175
 32
8.880829784457569
 13
-90.10605579391267
 23
-35.96901399649323
 33
9.047005818960117
  0
3DFACE
  5
4D1
102
{ACAD_REACTORS
330
51F
102
}
330
70
100
AcDbEntity
  8
0
100
AcDbFace
 10
-90.10605579391267
 20
-36.0
 30
2.799999999999901
 11
-90.10605579391267
 21
-34.0
 31
2.799999999999831
 12
-90.10605579391267
 22
-33.94996936888276
 32
6.299999999999881
 13
-90.10605579391267
 23
-36.0
 33
6.300000000000009
  0
3DFACE
  5
4D2
102
{ACAD_REACTORS
330
51F
102
}
330
70
100
AcDbEntity
  8
0
100
AcDbFace
 10
-90.10605579391267
 20
-34.0
 30
2.799999999999831
 11
-87.3060557939125
 21
-34.0
 31
-0.0000000000001954
 12
-87.30605579391294
 22
-36.0
 32
-0.0000000000001563
 13
-90.10605579391267
 23
-36.0
 33
2.800000000000009
  0
3DFACE
  5
4D3
102
{ACAD_REACTORS
330
51F
102
}
330
70
100
AcDbEntity
  8
0
100
AcDbFace
 10
-87.3060557939125
 20
-34.0
 30
-0.0000000000001954
 11
-87.25102415094353
 21
-34.00772020836257
 31
-0.0550316429691851
 12
-87.25102415094353
 22
-35.99227979163732
 32
-0.0550316429691851
 13
-87.3060557939125
 23
-36.0
 33
-0.0000000000001155
  0
3DFACE
  5
4D4
102
{ACAD_REACTORS
330
51F
102
}
330
70
100
AcDbEntity
  8
0
100
AcDbFace
 10
-87.25102415094353
 20
-34.00772020836257
 30
-0.0550316429691851
 11
-87.21776092624896
 21
-34.02054522479398
 31
-0.0882948676639917
 12
-87.2141968753017
 22
-35.97765680136593
 32
-0.0918589186113153
 13
-87.25102415094353
 23
-35.99227979163732
 33
-0.0550316429691851
  0
3DFACE
  5
4D5
102
{ACAD_REACTORS
330
51F
102
}
330
70
100
AcDbEntity
  8
0
100
AcDbFace
 10
-87.21776092624896
 20
-34.02054522479398
 30
-0.0882948676639917
 11
-87.16463443767679
 21
-34.05857864376264
 31
-0.1414213562374229
 12
-87.16463443767542
 22
-35.94142135623724
 32
-0.1414213562374229
 13
-87.2141968753017
 23
-35.97765680136593
 33
-0.0918589186113153
  0
3DFACE
  5
4D6
102
{ACAD_REACTORS
330
51F
102
}
330
70
100
AcDbEntity
  8
0
100
AcDbFace
 10
-87.16463443767542
 20
-34.05857864376253
 30
-0.1414213562372861
 11
-87.1332870911633
 21
-34.09924795113614
 31
-0.1727687027495985
 12
-87.1332870911633
 22
-35.90075204886375
 32
-0.1727687027495985
 13
-87.16463443767542
 23
-35.94142135623724
 33
-0.1414213562374229
  0
3DFACE
  5
4D7
102
{ACAD_REACTORS
330
51F
102
}
330
70
100
AcDbEntity
  8
0
100
AcDbFace
 10
-87.1194455499226
 20
-34.12805129022684
 30
-0.1866102439901578
 11
-87.10943932320878
 21
-34.16336718072512
 31
-0.1966164707038125
 12
-87.10790567297909
 22
-35.82713907835535
 32
-0.1981501209337626
 13
-87.11912126873631
 23
-35.87110192189471
 33
-0.1869345251763725
  0
3DFACE
  5
4D8
102
{ACAD_REACTORS
330
51F
102
}
330
70
100
AcDbEntity
  8
0
100
AcDbFace
 10
-87.10943932320878
 20
-34.16336718072512
 30
-0.1966164707038125
 11
-87.10605579391268
 21
-34.19999999999993
 31
-0.200000000000113
 12
-87.10605579391268
 22
-35.79797723436059
 32
-0.200000000000113
 13
-87.10790567297909
 23
-35.82713907835535
 33
-0.1981501209337626
  0
3DFACE
  5
4D9
102
{ACAD_REACTORS
330
51F
102
}
330
70
100
AcDbEntity
  8
0
100
AcDbFace
 10
533.8939442060875
 20
-0.3000000000006935
 30
9.799999999999998
 11
533.8939442060875
 21
-0.087867965644648
 31
9.712132034355958
 12
-90.05605808893188
 22
-0.087867965643909
 32
9.712132034355958
 13
-90.10605579391267
 23
-0.2999999999999545
 33
9.799999999999878
  0
3DFACE
  5
4DA
102
{ACAD_REACTORS
330
51F
102
}
330
70
100
AcDbEntity
  8
0
100
AcDbFace
 10
533.8939442060875
 20
-0.087867965644648
 30
9.712132034355958
 11
533.918357448636
 21
-0.0000000000006253
 31
9.499999999999998
 12
-90.0
 22
0.0
 32
9.499999999999998
 13
-90.05605808893188
 23
-0.087867965643909
 33
9.712132034355958
  0
3DFACE
  5
4DB
102
{ACAD_REACTORS
330
51F
102
}
330
70
100
AcDbEntity
  8
0
100
AcDbFace
 10
-90.0
 20
0.0
 30
9.499999999999998
 11
-90.0
 21
0.0
 31
-8.0
 12
534.6058322113451
 22
-0.0000000000006253
 32
-8.0
 13
533.918357448636
 23
-0.0000000000006253
 33
9.500000000000037
  0
3DFACE
  5
4DC
102
{ACAD_REACTORS
330
51F
102
}
330
70
100
AcDbEntity
  8
0
100
AcDbFace
 10
-90.0
 20
0.0
 30
9.499999999999998
 11
-90.05605808893188
 21
-0.087867965643909
 31
9.712132034355958
 12
-90.0
 22
0.0
 32
-8.0
 13
-89.96648359844176
 23
-0.1999999999999318
 33
-8.199999999999999
  0
3DFACE
  5
4DD
102
{ACAD_REACTORS
330
51F
102
}
330
70
100
AcDbEntity
  8
0
100
AcDbFace
 10
-90.05605808893188
 20
-0.087867965643909
 30
9.712132034355958
 11
-90.10605579391267
 21
-0.2999999999999545
 31
9.799999999999878
 12
-89.88313444764072
 22
-0.7504715143642216
 32
-8.199999999999999
 13
-89.96648359844176
 23
-0.1999999999999318
 33
-8.199999999999985
  0
3DFACE
  5
4DE
102
{ACAD_REACTORS
330
51F
102
}
330
70
100
AcDbEntity
  8
0
100
AcDbFace
 10
-89.8831380639981
 20
-0.75
 30
-8.199999999999999
 11
-89.87891974832747
 21
-1.299999999999954
 31
-8.199999999999999
 12
-90.4399547569783
 22
-1.587867965643908
 32
8.612132034355857
 13
-90.10605579391267
 23
-0.2999999999999545
 33
9.799999999999878
  0
3DFACE
  5
4DF
102
{ACAD_REACTORS
330
51F
102
}
330
70
100
AcDbEntity
  8
0
100
AcDbFace
 10
533.918357448636
 20
-0.0000000000006253
 30
9.500000000000037
 11
533.8939442060875
 21
-0.087867965644648
 31
9.712132034355958
 12
534.6058322113451
 22
-0.0000000000006253
 32
-7.999999999999999
 13
534.6393486129032
 23
-0.2000000000005571
 33
-8.199999999999999
  0
3DFACE
  5
4E0
102
{ACAD_REACTORS
330
51F
102
}
330
70
100
AcDbEntity
  8
0
100
AcDbFace
 10
533.8939442060875
 20
-0.087867965644648
 30
9.712132034355958
 11
533.8939442060875
 21
-0.3000000000006935
 31
9.799999999999988
 12
534.6833796627325
 22
-0.7531295705807111
 32
-8.199999999999999
 13
534.6393486129032
 23
-0.2000000000005571
 33
-8.199999999999983
  0
3DFACE
  5
4E1
102
{ACAD_REACTORS
330
51F
102
}
330
70
100
AcDbEntity
  8
0
100
AcDbFace
 10
534.6833796627325
 20
-0.7531295705807111
 30
-8.199999999999999
 11
534.7269124630177
 21
-1.300000000000693
 31
-8.199999999999999
 12
534.1658774543668
 22
-1.587867965644647
 32
8.612132034355857
 13
533.8939442060875
 23
-0.3000000000006935
 33
9.799999999999998
  0
3DFACE
  5
4E2
102
{ACAD_REACTORS
330
51F
102
}
330
70
100
AcDbEntity
  8
0
100
AcDbFace
 10
530.895794085154
 20
-35.82713907835608
 30
-0.1981501209336471
 11
530.9070096809112
 21
-35.87110192189545
 31
-0.1869345251762588
 12
-87.11912126873631
 22
-35.87110192189471
 32
-0.1869345251763725
 13
-87.1332870911624
 23
-35.90075204886296
 33
-0.1727687027502096
  0
3DFACE
  5
4E3
102
{ACAD_REACTORS
330
51F
102
}
330
70
100
AcDbEntity
  8
0
100
AcDbFace
 10
-90.10605579391267
 20
-33.95000558823722
 30
6.297466197452171
 11
-90.10605579391267
 21
-34.0
 31
2.8
 12
533.8939442060875
 22
-34.00000000000006
 32
2.80000000004053
 13
533.8939442060875
 23
-33.94996936888339
 33
6.299999999999901
  0
3DFACE
  5
4E4
102
{ACAD_REACTORS
330
51F
102
}
330
70
100
AcDbEntity
  8
0
100
AcDbFace
 10
533.8939442060875
 20
-33.94996936888339
 30
6.299999999999901
 11
533.8939442060875
 21
-33.94996936888361
 31
9.799999999999998
 12
-90.10605579391267
 22
-33.94996936888288
 32
9.799999999979727
 13
-90.10605579391222
 23
-33.95000558823722
 33
6.297466197452171
  0
3DFACE
  5
4E5
102
{ACAD_REACTORS
330
51F
102
}
330
70
100
AcDbEntity
  8
0
100
AcDbFace
 10
-90.10605579391267
 20
-34.0
 30
2.800000000000082
 11
-87.3060557939125
 21
-34.0
 31
0.0
 12
531.0939442060873
 22
-34.00000000003576
 32
-0.0000000000000782
 13
533.8939442061285
 23
-34.00000000000006
 33
2.80000000004053
  0
3DFACE
  5
4E6
102
{ACAD_REACTORS
330
51F
102
}
330
70
100
AcDbEntity
  8
0
100
AcDbFace
 10
-87.3060557939125
 20
-34.00000000003479
 30
-0.0000000000001918
 11
-87.25102415094353
 21
-34.00772020836257
 31
-0.0550316429691851
 12
531.0389125631184
 22
-34.00772020836331
 32
-0.0550316429692686
 13
531.0939442060873
 23
-34.00000000003576
 33
-0.0000000000000782
  0
3DFACE
  5
4E7
102
{ACAD_REACTORS
330
51F
102
}
330
70
100
AcDbEntity
  8
0
100
AcDbFace
 10
531.0389125631181
 20
-34.00772020836331
 30
-0.0550316429692686
 11
531.0020852874761
 21
-34.0223431986347
 31
-0.0918589186111998
 12
-87.21776092624896
 22
-34.02054522479398
 32
-0.0882948676639917
 13
-87.25102415094353
 23
-34.00772020836257
 33
-0.0550316429690732
  0
3DFACE
  5
4E8
102
{ACAD_REACTORS
330
51F
102
}
330
70
100
AcDbEntity
  8
0
100
AcDbFace
 10
-87.21776092624896
 20
-34.02054522479398
 30
-0.0882948676639917
 11
-87.16463443767679
 21
-34.05857864376264
 31
-0.1414213562374229
 12
530.9525228498516
 22
-34.05857864428589
 32
-0.1414213562373074
 13
531.0020852874756
 23
-34.0223431986347
 33
-0.0918589186111998
  0
3DFACE
  5
4E9
102
{ACAD_REACTORS
330
51F
102
}
330
70
100
AcDbEntity
  8
0
100
AcDbFace
 10
534.6058322113451
 20
-0.0000000000006253
 30
-7.99999999999998
 11
534.6393486129032
 21
-0.2000000000005571
 31
-8.199999999999285
 12
-89.96648359844176
 22
-0.1999999999999318
 32
-8.199999999997022
 13
-90.0
 23
0.0
 33
-8.000000000000014
  0
3DFACE
  5
4EA
102
{ACAD_REACTORS
330
51F
102
}
330
70
100
AcDbEntity
  8
0
100
AcDbFace
 10
534.6393486129032
 20
-0.2000000000005571
 30
-8.199999999999999
 11
534.7269124630177
 21
-1.300000000000693
 31
-8.199999999999999
 12
-89.87891974832747
 22
-1.299999999999954
 32
-8.199999999999999
 13
-89.96648359844176
 23
-0.1999999999999318
 33
-8.199999999997022
  0
3DFACE
  5
4EB
102
{ACAD_REACTORS
330
51F
102
}
330
70
100
AcDbEntity
  8
0
100
AcDbFace
 10
530.8939442060873
 20
-35.80000000000069
 30
-0.1999999999999993
 11
530.8939442060873
 21
-34.20000000000067
 31
-0.1999999999999993
 12
-87.10605579391268
 22
-34.19999999991205
 32
-0.200000000000113
 13
-87.10605579391268
 23
-35.8000000000003
 33
-0.1999999999999566
  0
3DFACE
  5
4EC
102
{ACAD_REACTORS
330
51F
102
}
330
70
100
AcDbEntity
  8
0
100
AcDbFace
 10
-87.16463443767542
 20
-34.05857864376253
 30
-0.1414213562372861
 11
-87.1332870911633
 21
-34.09924795113614
 31
-0.1727687027494849
 12
530.9211755033377
 22
-34.09924795113744
 32
-0.1727687027497815
 13
530.9525228494473
 23
-34.05857864428589
 33
-0.1414213562373074
  0
3DFACE
  5
4ED
102
{ACAD_REACTORS
330
51F
102
}
330
70
100
AcDbEntity
  8
0
100
AcDbFace
 10
530.9211755033377
 20
-34.09924795113744
 30
-0.1727687027497815
 11
530.9073339620972
 21
-34.12805129022746
 31
-0.1866102439900441
 12
-87.1194455499226
 22
-34.12805129022684
 32
-0.1866102439901578
 13
-87.1332870911633
 23
-34.09924795113602
 33
-0.1727687027493712
  0
3DFACE
  5
4EE
102
{ACAD_REACTORS
330
51F
102
}
330
70
100
AcDbEntity
  8
0
100
AcDbFace
 10
-87.1194455499226
 20
-34.12805129022684
 30
-0.1866102439901578
 11
-87.10790567297909
 21
-34.17286092164455
 31
-0.1981501209336507
 12
530.8973277353836
 22
-34.16336718072574
 32
-0.196616470703697
 13
530.9073339620972
 23
-34.12805129022746
 33
-0.1866102439900441
  0
3DFACE
  5
4EF
102
{ACAD_REACTORS
330
51F
102
}
330
70
100
AcDbEntity
  8
0
100
AcDbFace
 10
533.8939442060875
 20
-33.87244900688683
 30
6.58834364951133
 11
533.8939442060873
 21
-33.95000558823785
 31
6.29746619745209
 12
-90.10605579391267
 22
-33.94996936888276
 32
6.299999999999778
 13
-90.10605579391267
 23
-33.8724490068862
 33
6.588343649511221
  0
3DFACE
  5
4F0
102
{ACAD_REACTORS
330
51F
102
}
330
70
100
AcDbEntity
  8
0
100
AcDbFace
 10
-90.10605579391222
 20
-33.8724490068862
 30
6.588343649511221
 11
-90.10605579391267
 21
-33.80956086305957
 31
6.757041597749578
 12
533.8939442060875
 22
-33.80956086306009
 32
6.757041597756279
 13
533.8939442060875
 23
-33.87244900688671
 33
6.588343649511779
  0
3DFACE
  5
4F1
102
{ACAD_REACTORS
330
51F
102
}
330
70
100
AcDbEntity
  8
0
100
AcDbFace
 10
533.8939442060875
 20
-33.69252606390257
 30
7.001178362738389
 11
533.8939442060875
 21
-33.80956086308271
 31
6.757041597695632
 12
-90.10605579391267
 22
-33.87244900688586
 32
6.588343649511962
 13
-90.10605579391222
 23
-33.95000556203536
 33
6.3
  0
3DFACE
  5
4F2
102
{ACAD_REACTORS
330
51F
102
}
330
70
100
AcDbEntity
  8
0
100
AcDbFace
 10
-90.10605579391267
 20
-33.80956086305935
 30
6.757041597756309
 11
-90.10605579391267
 21
-33.69252606390182
 31
7.001178362738269
 12
533.8939442060875
 22
-33.69252606390359
 32
7.001178362736462
 13
533.8939442060875
 23
-33.80956086310681
 33
6.75704159764532
  0
3DFACE
  5
4F3
102
{ACAD_REACTORS
330
51F
102
}
330
70
100
AcDbEntity
  8
0
100
AcDbFace
 10
533.8936215823853
 20
-33.69252619702587
 30
7.001178000211529
 11
533.8939442060875
 21
-33.51951002527318
 31
7.273627923829669
 12
-90.10605579391267
 22
-33.51951002527244
 32
7.273627923829669
 13
-90.10605579391267
 23
-33.69252606390069
 33
7.00117836274061
  0
3DFACE
  5
4F4
102
{ACAD_REACTORS
330
51F
102
}
330
70
100
AcDbEntity
  8
0
100
AcDbFace
 10
-90.10605579391267
 20
-33.51951002551016
 30
7.273627923455419
 11
-90.10605579391267
 21
-33.26776929774292
 31
7.56776460818666
 12
533.8939442060875
 22
-33.2677646081873
 32
7.56776929774303
 13
533.8939442060875
 23
-33.51951002527318
 33
7.273627923829669
  0
3DFACE
  5
4F5
102
{ACAD_REACTORS
330
51F
102
}
330
70
100
AcDbEntity
  8
0
100
AcDbFace
 10
533.8939442060875
 20
-33.26776929774366
 30
7.567764608186651
 11
533.8939442060875
 21
-32.97362792380767
 31
7.819510025272526
 12
-90.10605579391267
 22
-32.97362792380693
 32
7.819510025272419
 13
-90.10605579391267
 23
-33.26776460818667
 33
7.567769297742751
  0
3DFACE
  5
4F6
102
{ACAD_REACTORS
330
51F
102
}
330
70
100
AcDbEntity
  8
0
100
AcDbFace
 10
-90.10605579391267
 20
-32.97362792380705
 30
7.819510025272299
 11
-90.10605579391267
 21
-32.759400610895
 31
7.959608784311766
 12
533.8939442060875
 22
-32.75940061090836
 32
7.959608784311766
 13
533.8939442060875
 23
-32.97362792380767
 33
7.819510025272526
  0
3DFACE
  5
4F7
102
{ACAD_REACTORS
330
51F
102
}
330
70
100
AcDbEntity
  8
0
100
AcDbFace
 10
533.8939442060875
 20
-32.75940061079854
 30
7.959608784368578
 11
533.8939442060875
 21
-32.53501920133823
 31
8.075683469391629
 12
-90.10605579391267
 22
-32.5350192013284
 32
8.075683469395718
 13
-90.10605579391267
 23
-32.7594006107978
 33
7.959608784375445
  0
3DFACE
  5
4F8
102
{ACAD_REACTORS
330
51F
102
}
330
70
100
AcDbEntity
  8
0
100
AcDbFace
 10
-90.10605579391267
 20
-32.53501920133704
 30
8.075683469391231
 11
-90.10605579391267
 21
-32.10464178928339
 31
8.22577993780399
 12
533.8939442060873
 22
-32.10464178928402
 32
8.225779937804
 13
533.8939442060875
 23
-32.53501920133778
 33
8.075683469391888
  0
3DFACE
  5
4F9
102
{ACAD_REACTORS
330
51F
102
}
330
70
100
AcDbEntity
  8
0
100
AcDbFace
 10
533.8939442060873
 20
-32.10464178928424
 30
8.225779937803936
 11
533.8939442060875
 21
-31.50000000000062
 31
8.299999999999998
 12
-90.10605579391267
 22
-31.49999999998693
 32
8.299999999999878
 13
-90.10605579391267
 23
-32.10464178928339
 33
8.22577993780384
  0
3DFACE
  5
4FA
102
{ACAD_REACTORS
330
51F
102
}
330
70
100
AcDbEntity
  8
0
100
AcDbFace
 10
533.8939442060875
 20
-31.50000000000119
 30
8.299999999999931
 11
533.8939442060873
 21
-23.29999999990156
 31
8.299999999904537
 12
-90.10605579391267
 22
-23.29999999990093
 32
8.300000000000339
 13
-90.10605579391267
 23
-31.49999999998716
 33
8.300000000001526
  0
3DFACE
  5
4FB
102
{ACAD_REACTORS
330
51F
102
}
330
70
100
AcDbEntity
  8
0
100
AcDbFace
 10
-90.10605579391267
 20
-23.29999999999996
 30
8.300000000000339
 11
-90.10594003509551
 21
-22.77767357034008
 31
8.299891787519181
 12
-90.10605579391267
 22
-22.79236564803932
 32
9.799999999911877
 13
-90.10605579391267
 23
-23.29999999999643
 33
9.799999999879558
  0
3DFACE
  5
4FC
102
{ACAD_REACTORS
330
51F
102
}
330
70
100
AcDbEntity
  8
0
100
AcDbFace
 10
-89.86669720563577
 20
-1.299999999999954
 30
-8.199999999999999
 11
-90.4399547569783
 21
-1.587867965643908
 31
8.612132034355857
 12
534.1658774543668
 22
-1.587867965644534
 32
8.612132034355989
 13
534.7269124630177
 23
-1.300000000000693
 33
-8.199999999999999
  0
3DFACE
  5
4FD
102
{ACAD_REACTORS
330
51F
102
}
330
70
100
AcDbEntity
  8
0
100
AcDbFace
 10
-90.4399547569783
 20
-1.587867965643908
 30
8.612132034355857
 11
-90.10605579391267
 21
-23.29999999999996
 31
8.300000000000339
 12
533.8939442060873
 22
-23.30000000000069
 32
8.299999999904537
 13
534.1655750513525
 23
-1.58802312911763
 33
8.621193927679149
  0
3DFACE
  5
4FE
102
{ACAD_REACTORS
330
51F
102
}
330
70
100
AcDbEntity
  8
0
100
AcDbFace
 10
-90.10605579391267
 20
-34.99999999998977
 30
9.800000000000826
 11
-90.10605579391267
 21
-0.2999999999999545
 31
9.799999999999878
 12
533.8939442060875
 22
-0.300000000003763
 32
9.799999999999998
 13
533.8939442060873
 23
-35.00000000000085
 33
9.799999999999998
  0
3DFACE
  5
4FF
102
{ACAD_REACTORS
330
51F
102
}
330
70
100
AcDbEntity
  8
0
100
AcDbFace
 10
-90.4399547569783
 20
-1.587867965643908
 30
8.612132034355857
 11
-90.10605579391267
 21
-0.2999999999999545
 31
9.799999999999878
 12
-90.10605579391267
 22
-31.5
 32
9.800000000009786
 13
-90.10605579391267
 23
-31.50000000000046
 33
8.300000000001526
  0
3DFACE
  5
500
102
{ACAD_REACTORS
330
51F
102
}
330
70
100
AcDbEntity
  8
0
100
AcDbFace
 10
-90.10605579391267
 20
-36.0
 30
2.799999999999901
 11
-90.10605579391267
 21
-36.0
 31
8.800000000000009
 12
533.8939442060875
 22
-35.99999999998289
 32
8.800000000251058
 13
533.8939442060875
 23
-36.00000000000063
 33
2.799999999999791
  0
ENDSEC
  0
SECTION
  2
OBJECTS
  0
DICTIONARY
  5
C
330
0
100
AcDbDictionary
281
     1
  3
ACAD_BACKGROUND
350
34C
  3
ACAD_CIP_PREVIOUS_PRODUCT_INFO
350
34B
  3
ACAD_COLOR
350
62
  3
ACAD_DETAILVIEWSTYLE
350
6A
  3
ACAD_GROUP
350
D
  3
ACAD_LAYOUT
350
61
  3
ACAD_MATERIAL
350
10
  3
ACAD_MLEADERSTYLE
350
65
  3
ACAD_MLINESTYLE
350
5E
  3
ACAD_PLOTSETTINGS
350
60
  3
ACAD_PLOTSTYLENAME
350
E
  3
ACAD_SCALELIST
350
42
  3
ACAD_SECTIONVIEWSTYLE
350
67
  3
ACAD_TABLESTYLE
350
63
  3
ACAD_VISUALSTYLE
350
29
  3
ACDB_RECOMPOSE_DATA
350
52C
  3
AcDbVariableDictionary
350
520
  0
DICTIONARY
  5
361
330
2
100
AcDbDictionary
280
     1
281
     1
  3
ACAD_LAYERSTATES
360
362
  0
DICTIONARY
  5
350
330
54
100
AcDbDictionary
280
     1
281
     1
  3
ADSK_XREC_LAYER_RECONCILED
360
351
  0
DICTIONARY
  5
352
330
74
100
AcDbDictionary
280
     1
281
     1
  3
ADSK_XREC_LAYER_RECONCILED
360
353
  0
DICTIONARY
  5
360
330
35F
100
AcDbDictionary
280
     1
281
     1
  0
DICTIONARY
  5
34C
102
{ACAD_REACTORS
330
C
102
}
330
C
100
AcDbDictionary
281
     1
  0
XRECORD
  5
34B
102
{ACAD_REACTORS
330
C
102
}
330
C
100
AcDbXrecord
280
     1
300
ACD
300
2013
300
ACD_F_S
  0
DICTIONARY
  5
62
102
{ACAD_REACTORS
330
C
102
}
330
C
100
AcDbDictionary
281
     1
  0
DICTIONARY
  5
6A
102
{ACAD_REACTORS
330
C
102
}
330
C
100
AcDbDictionary
281
     1
  3
Imperial24
350
6B
  0
DICTIONARY
  5
D
102
{ACAD_REACTORS
330
C
102
}
330
C
100
AcDbDictionary
281
     1
  3
*A1
350
34F
  3
*A2
350
51F
  0
DICTIONARY
  5
61
102
{ACAD_REACTORS
330
C
102
}
330
C
100
AcDbDictionary
281
     1
  3
Layout1
350
6F
  3
Model
350
73
  0
DICTIONARY
  5
10
102
{ACAD_REACTORS
330
C
102
}
330
C
100
AcDbDictionary
281
     1
  3
ByBlock
350
19
  3
ByLayer
350
11
  3
Global
350
21
  0
DICTIONARY
  5
65
102
{ACAD_REACTORS
330
C
102
}
330
C
100
AcDbDictionary
281
     1
  3
Standard
350
66
  0
DICTIONARY
  5
5E
102
{ACAD_REACTORS
330
C
102
}
330
C
100
AcDbDictionary
281
     1
  3
Standard
350
5F
  0
DICTIONARY
  5
60
102
{ACAD_REACTORS
330
C
102
}
330
C
100
AcDbDictionary
281
     1
  0
ACDBDICTIONARYWDFLT
  5
E
102
{ACAD_REACTORS
330
C
102
}
330
C
100
AcDbDictionary
281
     1
  3
Normal
350
F
100
AcDbDictionaryWithDefault
340
F
  0
DICTIONARY
  5
42
102
{ACAD_REACTORS
330
C
102
}
330
C
100
AcDbDictionary
281
     1
  3
A0
350
43
  3
A1
350
44
  3
A2
350
45
  3
A3
350
46
  3
A4
350
47
  3
A5
350
48
  3
A6
350
49
  3
A7
350
4A
  3
A8
350
4B
  3
A9
350
4C
  3
B0
350
4D
  3
B1
350
4E
  3
B2
350
4F
  3
B3
350
50
  3
B4
350
51
  3
B5
350
52
  3
B6
350
53
  0
DICTIONARY
  5
67
102
{ACAD_REACTORS
330
C
102
}
330
C
100
AcDbDictionary
281
     1
  3
Imperial24
350
69
  0
DICTIONARY
  5
63
102
{ACAD_REACTORS
330
C
102
}
330
C
100
AcDbDictionary
281
     1
  3
Standard
350
64
  0
DICTIONARY
  5
29
102
{ACAD_REACTORS
330
C
102
}
330
C
100
AcDbDictionary
281
     1
  3
2dWireframe
350
2F
  3
Basic
350
2E
  3
Brighten
350
35
  3
ColorChange
350
39
  3
Conceptual
350
32
  3
Dim
350
34
  3
EdgeColorOff
350
41
  3
Facepattern
350
38
  3
Flat
350
2A
  3
FlatWithEdges
350
2B
  3
Gouraud
350
2C
  3
GouraudWithEdges
350
2D
  3
Hidden
350
31
  3
JitterOff
350
3F
  3
Linepattern
350
37
  3
OverhangOff
350
40
  3
Realistic
350
33
  3
Shaded
350
3E
  3
Shaded with edges
350
3D
  3
Shades of Gray
350
3A
  3
Sketchy
350
3B
  3
Thicken
350
36
  3
Wireframe
350
30
  3
X-Ray
350
3C
  0
XRECORD
  5
52C
102
{ACAD_REACTORS
330
C
102
}
330
C
100
AcDbXrecord
280
     1
 90
        1
330
64
  0
DICTIONARY
  5
520
102
{ACAD_REACTORS
330
C
102
}
330
C
100
AcDbDictionary
281
     1
  3
CANNOSCALE
350
526
  3
CMLEADERSTYLE
350
522
  3
CTABLESTYLE
350
521
  3
CVIEWDETAILSTYLE
350
523
  3
CVIEWSECTIONSTYLE
350
524
  3
LAYEREVAL
350
528
  3
LAYERNOTIFY
350
529
  3
LIGHTINGUNITS
350
527
  3
MSLTSCALE
350
525
  0
DICTIONARY
  5
362
102
{ACAD_REACTORS
330
361
102
}
330
361
100
AcDbDictionary
281
     1
  0
XRECORD
  5
351
102
{ACAD_REACTORS
330
350
102
}
330
350
100
AcDbXrecord
280
     1
290
     1
  0
XRECORD
  5
353
102
{ACAD_REACTORS
330
352
102
}
330
352
100
AcDbXrecord
280
     1
290
     1
  0
ACDBDETAILVIEWSTYLE
  5
6B
102
{ACAD_REACTORS
330
6A
102
}
330
6A
100
AcDbModelDocViewStyle
 70
     0
  3
Imperial24
290
     0
100
AcDbDetailViewStyle
 70
     0
 71
     0
 90
        3
 71
     1
340
55
 62
   256
 40
0.24
340
0
 62
   256
 40
0.24
300

 40
0.36
280
     3
 71
     2
340
5C
 90
       25
 62
   256
 71
     3
340
55
 62
   256
 40
0.24
 90
        1
 40
0.75
 90
        1
300
%<\AcVar ViewType \f "%tc1">% %<\AcVar ViewDetailId>%\PSCALE %<\AcVar ViewScale \f "%sn">%
 71
     4
340
5C
 90
       25
 62
   256
340
5C
 90
       25
 62
   256
280
     0
  0
GROUP
  5
34F
102
{ACAD_REACTORS
330
D
102
}
330
D
100
AcDbGroup
300

 70
     1
 71
     1
  0
GROUP
  5
51F
102
{ACAD_REACTORS
330
D
102
}
330
D
100
AcDbGroup
300

 70
     1
 71
     1
340
500
340
4FF
340
4FE
340
4FD
340
4FC
340
4FB
340
4FA
340
4F9
340
4F8
340
4F7
340
4F6
340
4F5
340
4F4
340
4F3
340
4F2
340
4F1
340
4F0
340
4EF
340
4EE
340
4ED
340
4EC
340
4EB
340
4EA
340
4E9
340
4E8
340
4E7
340
4E6
340
4E5
340
4E4
340
4E3
340
4E2
340
4DE
340
4DD
340
4DC
340
4DB
340
4DA
340
4D9
340
4D8
340
4D7
340
4D6
340
4D5
340
4D4
340
4D3
340
4D2
340
4D1
340
4D0
340
4CF
340
4CE
340
4CD
340
4CC
340
4CB
340
4CA
340
4C9
340
4C8
340
4C7
340
4C6
340
4C5
340
4C4
340
4C3
340
4C2
340
4C1
340
4C0
340
4BF
340
4BE
340
4BD
340
4BC
340
4BB
340
4BA
340
4B9
340
4B8
340
4B7
340
4B6
340
4B5
340
4B4
340
4B3
340
4B2
340
4B1
340
4B0
340
4AF
340
4AE
340
4AD
340
4AC
340
4AB
340
4AA
340
4A9
340
4A8
340
4A7
340
4A6
340
4A5
340
4A4
340
4A3
340
4A2
340
47C
340
47B
340
479
340
478
340
477
340
476
340
475
340
473
340
471
340
470
340
46E
340
46C
340
46B
340
46A
340
468
340
466
340
465
340
463
340
462
340
461
340
460
340
45D
340
45C
340
45B
340
45A
340
459
340
456
340
455
340
454
340
453
340
452
340
451
340
448
340
447
340
446
340
445
340
444
340
443
340
442
340
441
340
440
340
439
340
438
340
437
340
436
340
435
340
434
340
4E1
340
4E0
340
4DF
340
4A1
340
4A0
340
49F
340
49E
340
49D
340
49C
340
49B
340
49A
340
499
340
498
340
497
340
496
340
495
340
494
340
493
340
492
340
491
340
490
340
48F
340
48E
340
48D
340
48C
340
48B
340
48A
340
489
340
488
340
487
340
486
340
485
340
484
340
483
340
482
340
481
340
480
340
47F
340
47E
340
47D
340
47A
340
474
340
46F
340
469
340
464
340
45F
340
45E
340
458
340
457
340
450
340
44F
340
44E
340
44D
340
44C
340
44B
340
44A
340
449
340
43F
340
43E
340
43D
340
43C
340
43B
340
43A
  0
LAYOUT
  5
6F
102
{ACAD_REACTORS
330
61
102
}
330
61
100
AcDbPlotSettings
  1

  2
Samsung 4070
  4

  6

 40
0.0
 41
0.0
 42
0.0
 43
0.0
 44
0.0
 45
0.0
 46
0.0
 47
0.0
 48
0.0
 49
0.0
140
0.0
141
0.0
142
1.0
143
1.0
 70
   688
 72
     0
 73
     0
 74
     5
  7

 75
    16
147
1.0
 76
     0
 77
     2
 78
   300
148
0.0
149
0.0
100
AcDbLayout
  1
Layout1
 70
     1
 71
     1
 10
0.0
 20
0.0
 11
12.0
 21
9.0
 12
0.0
 22
0.0
 32
0.0
 14
1.000000000000000E+20
 24
1.000000000000000E+20
 34
1.000000000000000E+20
 15
-1.000000000000000E+20
 25
-1.000000000000000E+20
 35
-1.000000000000000E+20
146
0.0
 13
0.0
 23
0.0
 33
0.0
 16
1.0
 26
0.0
 36
0.0
 17
0.0
 27
1.0
 37
0.0
 76
     0
330
6C
  0
LAYOUT
  5
73
102
{ACAD_REACTORS
330
61
102
}
330
61
100
AcDbPlotSettings
  1

  2
Samsung 4070
  4

  6

 40
0.0
 41
0.0
 42
0.0
 43
0.0
 44
0.0
 45
0.0
 46
0.0
 47
0.0
 48
0.0
 49
0.0
140
0.0
141
0.0
142
1.0
143
1.0
 70
  1712
 72
     0
 73
     0
 74
     0
  7

 75
     0
147
1.0
 76
     0
 77
     2
 78
   300
148
0.0
149
0.0
100
AcDbLayout
  1
Model
 70
     1
 71
     0
 10
0.0
 20
0.0
 11
12.0
 21
9.0
 12
0.0
 22
0.0
 32
0.0
 14
0.0
 24
0.0
 34
0.0
 15
0.0
 25
0.0
 35
0.0
146
0.0
 13
0.0
 23
0.0
 33
0.0
 16
1.0
 26
0.0
 36
0.0
 17
0.0
 27
1.0
 37
0.0
 76
     0
330
70
331
76
  0
MATERIAL
  5
19
102
{ACAD_XDICTIONARY
360
1A
102
}
102
{ACAD_REACTORS
330
10
102
}
330
10
100
AcDbMaterial
  1
ByBlock
 72
     0
 43
0.0208333333333333
 43
0.0
 43
0.0
 43
0.0
 43
0.0
 43
0.0208333333333333
 43
0.0
 43
0.0
 43
0.0
 43
0.0
 43
1.0
 43
0.0
 43
0.0
 43
0.0
 43
0.0
 43
1.0
 77
     0
 47
0.0208333333333333
 47
0.0
 47
0.0
 47
0.0
 47
0.0
 47
0.0208333333333333
 47
0.0
 47
0.0
 47
0.0
 47
0.0
 47
1.0
 47
0.0
 47
0.0
 47
0.0
 47
0.0
 47
1.0
171
     0
 49
0.0208333333333333
 49
0.0
 49
0.0
 49
0.0
 49
0.0
 49
0.0208333333333333
 49
0.0
 49
0.0
 49
0.0
 49
0.0
 49
1.0
 49
0.0
 49
0.0
 49
0.0
 49
0.0
 49
1.0
175
     0
142
0.0208333333333333
142
0.0
142
0.0
142
0.0
142
0.0
142
0.0208333333333333
142
0.0
142
0.0
142
0.0
142
0.0
142
1.0
142
0.0
142
0.0
142
0.0
142
0.0
142
1.0
179
     0
144
0.0208333333333333
144
0.0
144
0.0
144
0.0
144
0.0
144
0.0208333333333333
144
0.0
144
0.0
144
0.0
144
0.0
144
1.0
144
0.0
144
0.0
144
0.0
144
0.0
144
1.0
147
0.0208333333333333
147
0.0
147
0.0
147
0.0
147
0.0
147
0.0208333333333333
147
0.0
147
0.0
147
0.0
147
0.0
147
1.0
147
0.0
147
0.0
147
0.0
147
0.0
147
1.0
  0
MATERIAL
  5
11
102
{ACAD_XDICTIONARY
360
12
102
}
102
{ACAD_REACTORS
330
10
102
}
330
10
100
AcDbMaterial
  1
ByLayer
 72
     0
 43
0.0208333333333333
 43
0.0
 43
0.0
 43
0.0
 43
0.0
 43
0.0208333333333333
 43
0.0
 43
0.0
 43
0.0
 43
0.0
 43
1.0
 43
0.0
 43
0.0
 43
0.0
 43
0.0
 43
1.0
 77
     0
 47
0.0208333333333333
 47
0.0
 47
0.0
 47
0.0
 47
0.0
 47
0.0208333333333333
 47
0.0
 47
0.0
 47
0.0
 47
0.0
 47
1.0
 47
0.0
 47
0.0
 47
0.0
 47
0.0
 47
1.0
171
     0
 49
0.0208333333333333
 49
0.0
 49
0.0
 49
0.0
 49
0.0
 49
0.0208333333333333
 49
0.0
 49
0.0
 49
0.0
 49
0.0
 49
1.0
 49
0.0
 49
0.0
 49
0.0
 49
0.0
 49
1.0
175
     0
142
0.0208333333333333
142
0.0
142
0.0
142
0.0
142
0.0
142
0.0208333333333333
142
0.0
142
0.0
142
0.0
142
0.0
142
1.0
142
0.0
142
0.0
142
0.0
142
0.0
142
1.0
179
     0
144
0.0208333333333333
144
0.0
144
0.0
144
0.0
144
0.0
144
0.0208333333333333
144
0.0
144
0.0
144
0.0
144
0.0
144
1.0
144
0.0
144
0.0
144
0.0
144
0.0
144
1.0
147
0.0208333333333333
147
0.0
147
0.0
147
0.0
147
0.0
147
0.0208333333333333
147
0.0
147
0.0
147
0.0
147
0.0
147
1.0
147
0.0
147
0.0
147
0.0
147
0.0
147
1.0
  0
MATERIAL
  5
21
102
{ACAD_XDICTIONARY
360
22
102
}
102
{ACAD_REACTORS
330
10
102
}
330
10
100
AcDbMaterial
  1
Global
 72
     0
 43
0.0208333333333333
 43
0.0
 43
0.0
 43
0.0
 43
0.0
 43
0.0208333333333333
 43
0.0
 43
0.0
 43
0.0
 43
0.0
 43
1.0
 43
0.0
 43
0.0
 43
0.0
 43
0.0
 43
1.0
 77
     0
 47
0.0208333333333333
 47
0.0
 47
0.0
 47
0.0
 47
0.0
 47
0.0208333333333333
 47
0.0
 47
0.0
 47
0.0
 47
0.0
 47
1.0
 47
0.0
 47
0.0
 47
0.0
 47
0.0
 47
1.0
171
     0
 49
0.0208333333333333
 49
0.0
 49
0.0
 49
0.0
 49
0.0
 49
0.0208333333333333
 49
0.0
 49
0.0
 49
0.0
 49
0.0
 49
1.0
 49
0.0
 49
0.0
 49
0.0
 49
0.0
 49
1.0
175
     0
142
0.0208333333333333
142
0.0
142
0.0
142
0.0
142
0.0
142
0.0208333333333333
142
0.0
142
0.0
142
0.0
142
0.0
142
1.0
142
0.0
142
0.0
142
0.0
142
0.0
142
1.0
179
     0
144
0.0208333333333333
144
0.0
144
0.0
144
0.0
144
0.0
144
0.0208333333333333
144
0.0
144
0.0
144
0.0
144
0.0
144
1.0
144
0.0
144
0.0
144
0.0
144
0.0
144
1.0
147
0.0208333333333333
147
0.0
147
0.0
147
0.0
147
0.0
147
0.0208333333333333
147
0.0
147
0.0
147
0.0
147
0.0
147
1.0
147
0.0
147
0.0
147
0.0
147
0.0
147
1.0
  0
MLEADERSTYLE
  5
66
102
{ACAD_REACTORS
330
65
102
}
330
65
100
AcDbMLeaderStyle
179
     2
170
     2
171
     1
172
     0
 90
        2
 40
0.0
 41
0.0
173
     1
 91
-1056964608
340
5A
 92
       -2
290
     1
 42
0.09
291
     1
 43
0.36
  3
Standard
 44
0.18
300

342
55
174
     1
178
     6
175
     1
176
     0
 93
-1056964608
 45
0.18
292
     0
297
     0
 46
0.18
 94
-1056964608
 47
1.0
 49
1.0
140
1.0
293
     1
141
0.0
294
     1
177
     0
142
1.0
295
     0
296
     0
143
0.125
271
     0
272
     9
273
     9
298
     0
  0
MLINESTYLE
  5
5F
102
{ACAD_REACTORS
330
5E
102
}
330
5E
100
AcDbMlineStyle
  2
STANDARD
 70
     0
  3

 62
   256
 51
90.0
 52
90.0
 71
     2
 49
0.5
 62
   256
  6
BYLAYER
 49
-0.5
 62
   256
  6
BYLAYER
  0
ACDBPLACEHOLDER
  5
F
102
{ACAD_REACTORS
330
E
102
}
330
E
  0
SCALE
  5
43
102
{ACAD_REACTORS
330
42
102
}
330
42
100
AcDbScale
 70
     0
300
1:1
140
1.0
141
1.0
290
     1
  0
SCALE
  5
44
102
{ACAD_REACTORS
330
42
102
}
330
42
100
AcDbScale
 70
     0
300
1/128" = 1'-0"
140
0.0078125
141
12.0
290
     0
  0
SCALE
  5
45
102
{ACAD_REACTORS
330
42
102
}
330
42
100
AcDbScale
 70
     0
300
1/64" = 1'-0"
140
0.015625
141
12.0
290
     0
  0
SCALE
  5
46
102
{ACAD_REACTORS
330
42
102
}
330
42
100
AcDbScale
 70
     0
300
1/32" = 1'-0"
140
0.03125
141
12.0
290
     0
  0
SCALE
  5
47
102
{ACAD_REACTORS
330
42
102
}
330
42
100
AcDbScale
 70
     0
300
1/16" = 1'-0"
140
0.0625
141
12.0
290
     0
  0
SCALE
  5
48
102
{ACAD_REACTORS
330
42
102
}
330
42
100
AcDbScale
 70
     0
300
3/32" = 1'-0"
140
0.09375
141
12.0
290
     0
  0
SCALE
  5
49
102
{ACAD_REACTORS
330
42
102
}
330
42
100
AcDbScale
 70
     0
300
1/8" = 1'-0"
140
0.125
141
12.0
290
     0
  0
SCALE
  5
4A
102
{ACAD_REACTORS
330
42
102
}
330
42
100
AcDbScale
 70
     0
300
3/16" = 1'-0"
140
0.1875
141
12.0
290
     0
  0
SCALE
  5
4B
102
{ACAD_REACTORS
330
42
102
}
330
42
100
AcDbScale
 70
     0
300
1/4" = 1'-0"
140
0.25
141
12.0
290
     0
  0
SCALE
  5
4C
102
{ACAD_REACTORS
330
42
102
}
330
42
100
AcDbScale
 70
     0
300
3/8" = 1'-0"
140
0.375
141
12.0
290
     0
  0
SCALE
  5
4D
102
{ACAD_REACTORS
330
42
102
}
330
42
100
AcDbScale
 70
     0
300
1/2" = 1'-0"
140
0.5
141
12.0
290
     0
  0
SCALE
  5
4E
102
{ACAD_REACTORS
330
42
102
}
330
42
100
AcDbScale
 70
     0
300
3/4" = 1'-0"
140
0.75
141
12.0
290
     0
  0
SCALE
  5
4F
102
{ACAD_REACTORS
330
42
102
}
330
42
100
AcDbScale
 70
     0
300
1" = 1'-0"
140
1.0
141
12.0
290
     0
  0
SCALE
  5
50
102
{ACAD_REACTORS
330
42
102
}
330
42
100
AcDbScale
 70
     0
300
1-1/2" = 1'-0"
140
1.5
141
12.0
290
     0
  0
SCALE
  5
51
102
{ACAD_REACTORS
330
42
102
}
330
42
100
AcDbScale
 70
     0
300
3" = 1'-0"
140
3.0
141
12.0
290
     0
  0
SCALE
  5
52
102
{ACAD_REACTORS
330
42
102
}
330
42
100
AcDbScale
 70
     0
300
6" = 1'-0"
140
6.0
141
12.0
290
     0
  0
SCALE
  5
53
102
{ACAD_REACTORS
330
42
102
}
330
42
100
AcDbScale
 70
     0
300
1'-0" = 1'-0"
140
12.0
141
12.0
290
     0
  0
ACDBSECTIONVIEWSTYLE
  5
69
102
{ACAD_REACTORS
330
67
102
}
330
67
100
AcDbModelDocViewStyle
 70
     0
  3
Imperial24
290
     0
100
AcDbSectionViewStyle
 70
     0
 71
     0
 90
       78
 71
     1
340
55
 62
   256
 40
0.24
340
0
340
0
 62
   256
 40
0.24
300
I, O, Q, S, X, Z
 40
0.48
 90
        3
 40
0.18
 90
        1
 71
     2
340
68
 90
       25
 62
   256
340
5C
 90
       50
 62
   256
 40
0.24
 40
0.0
 40
0.24
 71
     3
340
55
 62
   256
 40
0.24
 90
        1
 40
0.75
 90
        1
300
%<\AcVar ViewType \f "%tc1">% %<\AcVar ViewSectionStartId>%-%<\AcVar ViewSectionEndId>%\PSCALE %<\AcVar ViewScale \f "%sn">%
 71
     4
 62
   256
 62
   257
300
ANSI31
 40
1.0
 90
        0
290
     0
290
     0
 90
        6
 40
0.0
 40
1.570796326794896
 40
0.2617993877991494
 40
1.308996938995747
 40
-0.2617993877991494
 40
1.832595714594046
  0
TABLESTYLE
  5
64
102
{ACAD_XDICTIONARY
360
52A
102
}
102
{ACAD_REACTORS
330
63
102
}
330
63
100
AcDbTableStyle
280
     0
  3
Standard
 70
     0
 71
     0
 40
0.06
 41
0.06
280
     0
281
     0
  7
Standard
140
0.18
170
     2
 62
     0
 63
     7
283
     0
 90
      512
 91
        0
  1

274
    -2
284
     1
 64
     0
275
    -2
285
     1
 65
     0
276
    -2
286
     1
 66
     0
277
    -2
287
     1
 67
     0
278
    -2
288
     1
 68
     0
279
    -2
289
     1
 69
     0
  7
Standard
140
0.25
170
     5
 62
     0
 63
     7
283
     0
 90
      512
 91
        0
  1

274
    -2
284
     1
 64
     0
275
    -2
285
     1
 65
     0
276
    -2
286
     1
 66
     0
277
    -2
287
     1
 67
     0
278
    -2
288
     1
 68
     0
279
    -2
289
     1
 69
     0
  7
Standard
140
0.18
170
     5
 62
     0
 63
     7
283
     0
 90
      512
 91
        0
  1

274
    -2
284
     1
 64
     0
275
    -2
285
     1
 65
     0
276
    -2
286
     1
 66
     0
277
    -2
287
     1
 67
     0
278
    -2
288
     1
 68
     0
279
    -2
289
     1
 69
     0
  0
VISUALSTYLE
  5
2F
102
{ACAD_REACTORS
330
29
102
}
330
29
100
AcDbVisualStyle
  2
2dWireframe
 70
     4
177
     3
291
     0
 70
    58
 90
        0
176
     1
 90
        2
176
     1
 90
        0
176
     1
 90
        0
176
     1
 40
0.6
176
     1
 40
30.0
176
     1
 62
     7
420
 16777215
176
     1
 90
        1
176
     1
 90
        4
176
     1
 62
     7
176
     1
 62
   257
176
     1
 90
        1
176
     1
 90
        1
176
     1
 40
1.0
176
     1
 90
        0
176
     1
 62
   257
176
     1
 40
1.0
176
     1
 90
        1
176
     1
 90
        6
176
     1
 90
        2
176
     1
 62
     7
176
     1
 90
        5
176
     1
 90
        0
176
     1
 90
        0
176
     1
290
     0
176
     1
 90
        1
176
     1
 40
0.0
176
     1
 90
        0
176
     1
290
     1
176
     1
290
     1
176
     1
290
     0
176
     1
290
     0
176
     1
290
     0
176
     1
290
     0
176
     1
290
     0
176
     1
290
     0
176
     1
290
     0
176
     1
 90
       50
176
     1
 40
0.0
176
     1
 40
1.0
176
     1
 90
        0
176
     1
 62
    18
420
        0
176
     1
 90
       50
176
     1
 90
        3
176
     1
 62
     5
420
      255
176
     1
290
     0
176
     1
 90
       50
176
     1
 90
       50
176
     1
 90
       50
176
     1
290
     0
176
     1
 90
       50
176
     1
 62
   256
176
     0
 40
1.0
176
     0
 90
        2
176
     1
  1
strokes_ogs.tif
176
     1
290
     0
176
     1
 40
1.0
176
     1
 40
1.0
176
     1
  0
VISUALSTYLE
  5
2E
102
{ACAD_REACTORS
330
29
102
}
330
29
100
AcDbVisualStyle
  2
Basic
 70
     7
177
     3
291
     1
 70
    58
 90
        1
176
     1
 90
        0
176
     1
 90
        1
176
     1
 90
        0
176
     1
 40
0.6
176
     1
 40
30.0
176
     1
 62
     7
420
 16777215
176
     1
 90
        0
176
     1
 90
        4
176
     1
 62
     7
176
     1
 62
   257
176
     1
 90
        1
176
     1
 90
        1
176
     1
 40
1.0
176
     1
 90
        8
176
     1
 62
     7
176
     1
 40
1.0
176
     1
 90
        1
176
     1
 90
        6
176
     1
 90
        2
176
     1
 62
     7
176
     1
 90
        5
176
     1
 90
        0
176
     1
 90
        0
176
     1
290
     0
176
     1
 90
        1
176
     1
 40
0.0
176
     1
 90
        0
176
     1
290
     0
176
     1
290
     1
176
     1
290
     1
176
     1
290
     0
176
     1
290
     0
176
     1
290
     0
176
     1
290
     0
176
     1
290
     0
176
     1
290
     0
176
     1
 90
       50
176
     1
 40
0.0
176
     1
 40
1.0
176
     1
 90
        0
176
     1
 62
    18
420
        0
176
     1
 90
       50
176
     1
 90
        3
176
     1
 62
     5
420
      255
176
     1
290
     0
176
     1
 90
       50
176
     1
 90
       50
176
     1
 90
       50
176
     1
290
     0
176
     1
 90
       50
176
     1
 62
   256
176
     0
 40
1.0
176
     0
 90
        2
176
     1
  1
strokes_ogs.tif
176
     1
290
     0
176
     1
 40
1.0
176
     1
 40
1.0
176
     1
  0
VISUALSTYLE
  5
35
102
{ACAD_REACTORS
330
29
102
}
330
29
100
AcDbVisualStyle
  2
Brighten
 70
    12
177
     3
291
     1
 70
    58
 90
        2
176
     1
 90
        2
176
     1
 90
        0
176
     1
 90
        0
176
     1
 40
0.6
176
     1
 40
30.0
176
     1
 62
     7
420
 16777215
176
     1
 90
        1
176
     1
 90
        4
176
     1
 62
     7
176
     1
 62
   257
176
     1
 90
        1
176
     1
 90
        1
176
     1
 40
1.0
176
     1
 90
        8
176
     1
 62
     7
176
     1
 40
1.0
176
     1
 90
        1
176
     1
 90
        6
176
     1
 90
        2
176
     1
 62
     7
176
     1
 90
        5
176
     1
 90
        0
176
     1
 90
        0
176
     1
290
     0
176
     1
 90
        1
176
     1
 40
50.0
176
     1
 90
        0
176
     1
290
     0
176
     1
290
     1
176
     1
290
     1
176
     1
290
     0
176
     1
290
     0
176
     1
290
     0
176
     1
290
     0
176
     1
290
     0
176
     1
290
     0
176
     1
 90
       50
176
     1
 40
0.0
176
     1
 40
1.0
176
     1
 90
        0
176
     1
 62
    18
420
        0
176
     1
 90
       50
176
     1
 90
        3
176
     1
 62
     5
420
      255
176
     1
290
     0
176
     1
 90
       50
176
     1
 90
       50
176
     1
 90
       50
176
     1
290
     0
176
     1
 90
       50
176
     1
 62
   256
176
     0
 40
1.0
176
     0
 90
        2
176
     1
  1
strokes_ogs.tif
176
     1
290
     0
176
     1
 40
1.0
176
     1
 40
1.0
176
     1
  0
VISUALSTYLE
  5
39
102
{ACAD_REACTORS
330
29
102
}
330
29
100
AcDbVisualStyle
  2
ColorChange
 70
    16
177
     3
291
     1
 70
    58
 90
        2
176
     1
 90
        2
176
     1
 90
        3
176
     1
 90
        0
176
     1
 40
0.6
176
     1
 40
30.0
176
     1
 62
     8
420
  8421504
176
     1
 90
        1
176
     1
 90
        4
176
     1
 62
     7
176
     1
 62
   257
176
     1
 90
        1
176
     1
 90
        1
176
     1
 40
1.0
176
     1
 90
        8
176
     1
 62
     8
420
  8421504
176
     1
 40
1.0
176
     1
 90
        1
176
     1
 90
        6
176
     1
 90
        2
176
     1
 62
     7
176
     1
 90
        5
176
     1
 90
        0
176
     1
 90
        0
176
     1
290
     0
176
     1
 90
        1
176
     1
 40
0.0
176
     1
 90
        0
176
     1
290
     0
176
     1
290
     1
176
     1
290
     1
176
     1
290
     0
176
     1
290
     0
176
     1
290
     0
176
     1
290
     0
176
     1
290
     0
176
     1
290
     0
176
     1
 90
       50
176
     1
 40
0.0
176
     1
 40
1.0
176
     1
 90
        0
176
     1
 62
    18
420
        0
176
     1
 90
       50
176
     1
 90
        3
176
     1
 62
     5
420
      255
176
     1
290
     0
176
     1
 90
       50
176
     1
 90
       50
176
     1
 90
       50
176
     1
290
     0
176
     1
 90
       50
176
     1
 62
   256
176
     0
 40
1.0
176
     0
 90
        2
176
     1
  1
strokes_ogs.tif
176
     1
290
     0
176
     1
 40
1.0
176
     1
 40
1.0
176
     1
  0
VISUALSTYLE
  5
32
102
{ACAD_REACTORS
330
29
102
}
330
29
100
AcDbVisualStyle
  2
Conceptual
 70
     9
177
     3
291
     0
 70
    58
 90
        3
176
     1
 90
        2
176
     1
 90
        0
176
     1
 90
        0
176
     1
 40
0.6
176
     1
 40
30.0
176
     1
 62
     7
420
 16777215
176
     1
 90
        2
176
     1
 90
        2
176
     1
 62
     7
176
     1
 62
   257
176
     1
 90
        1
176
     1
 90
        1
176
     1
 40
179.0
176
     1
 90
        8
176
     1
 62
     7
176
     1
 40
1.0
176
     1
 90
        1
176
     1
 90
        6
176
     1
 90
        2
176
     1
 62
     7
176
     1
 90
        3
176
     1
 90
        0
176
     1
 90
        0
176
     1
290
     0
176
     1
 90
        1
176
     1
 40
0.0
176
     1
 90
        0
176
     1
290
     0
176
     1
290
     1
176
     1
290
     1
176
     1
290
     0
176
     1
290
     0
176
     1
290
     0
176
     1
290
     0
176
     1
290
     0
176
     1
290
     0
176
     1
 90
       50
176
     1
 40
0.0
176
     1
 40
1.0
176
     1
 90
        0
176
     1
 62
    18
420
        0
176
     1
 90
       50
176
     1
 90
        3
176
     1
 62
     5
420
      255
176
     1
290
     0
176
     1
 90
       50
176
     1
 90
       50
176
     1
 90
       50
176
     1
290
     0
176
     1
 90
       50
176
     1
 62
   256
176
     0
 40
1.0
176
     0
 90
        2
176
     1
  1
strokes_ogs.tif
176
     1
290
     0
176
     1
 40
1.0
176
     1
 40
1.0
176
     1
  0
VISUALSTYLE
  5
34
102
{ACAD_REACTORS
330
29
102
}
330
29
100
AcDbVisualStyle
  2
Dim
 70
    11
177
     3
291
     1
 70
    58
 90
        2
176
     1
 90
        2
176
     1
 90
        0
176
     1
 90
        0
176
     1
 40
0.6
176
     1
 40
30.0
176
     1
 62
     7
420
 16777215
176
     1
 90
        1
176
     1
 90
        4
176
     1
 62
     7
176
     1
 62
   257
176
     1
 90
        1
176
     1
 90
        1
176
     1
 40
1.0
176
     1
 90
        8
176
     1
 62
     7
176
     1
 40
1.0
176
     1
 90
        1
176
     1
 90
        6
176
     1
 90
        2
176
     1
 62
     7
176
     1
 90
        5
176
     1
 90
        0
176
     1
 90
        0
176
     1
290
     0
176
     1
 90
        1
176
     1
 40
-50.0
176
     1
 90
        0
176
     1
290
     0
176
     1
290
     1
176
     1
290
     1
176
     1
290
     0
176
     1
290
     0
176
     1
290
     0
176
     1
290
     0
176
     1
290
     0
176
     1
290
     0
176
     1
 90
       50
176
     1
 40
0.0
176
     1
 40
1.0
176
     1
 90
        0
176
     1
 62
    18
420
        0
176
     1
 90
       50
176
     1
 90
        3
176
     1
 62
     5
420
      255
176
     1
290
     0
176
     1
 90
       50
176
     1
 90
       50
176
     1
 90
       50
176
     1
290
     0
176
     1
 90
       50
176
     1
 62
   256
176
     0
 40
1.0
176
     0
 90
        2
176
     1
  1
strokes_ogs.tif
176
     1
290
     0
176
     1
 40
1.0
176
     1
 40
1.0
176
     1
  0
VISUALSTYLE
  5
41
102
{ACAD_REACTORS
330
29
102
}
330
29
100
AcDbVisualStyle
  2
EdgeColorOff
 70
    22
177
     3
291
     1
 70
    58
 90
        2
176
     0
 90
        2
176
     0
 90
        0
176
     0
 90
        0
176
     0
 40
0.6
176
     0
 40
30.0
176
     0
 62
     7
420
 16777215
176
     0
 90
        1
176
     0
 90
        4
176
     0
 62
     7
176
     0
 62
   257
176
     0
 90
        1
176
     0
 90
        1
176
     0
 40
1.0
176
     0
 90
        8
176
     2
 62
     7
176
     0
 40
1.0
176
     0
 90
        1
176
     0
 90
        6
176
     0
 90
        2
176
     0
 62
     7
176
     0
 90
        5
176
     0
 90
        0
176
     0
 90
        0
176
     0
290
     0
176
     0
 90
        1
176
     0
 40
0.0
176
     0
 90
        0
176
     0
290
     0
176
     1
290
     1
176
     1
290
     1
176
     1
290
     0
176
     1
290
     0
176
     1
290
     0
176
     1
290
     0
176
     1
290
     0
176
     1
290
     0
176
     1
 90
       50
176
     0
 40
0.0
176
     0
 40
1.0
176
     0
 90
        0
176
     0
 62
    18
420
        0
176
     0
 90
       50
176
     0
 90
        3
176
     0
 62
     5
420
      255
176
     0
290
     0
176
     1
 90
       50
176
     0
 90
       50
176
     0
 90
       50
176
     0
290
     0
176
     1
 90
       50
176
     0
 62
   256
176
     0
 40
1.0
176
     0
 90
        2
176
     0
  1
strokes_ogs.tif
176
     0
290
     0
176
     1
 40
1.0
176
     0
 40
1.0
176
     0
  0
VISUALSTYLE
  5
38
102
{ACAD_REACTORS
330
29
102
}
330
29
100
AcDbVisualStyle
  2
Facepattern
 70
    15
177
     3
291
     1
 70
    58
 90
        2
176
     1
 90
        2
176
     1
 90
        0
176
     1
 90
        0
176
     1
 40
0.6
176
     1
 40
30.0
176
     1
 62
     7
420
 16777215
176
     1
 90
        1
176
     1
 90
        4
176
     1
 62
     7
176
     1
 62
   257
176
     1
 90
        1
176
     1
 90
        1
176
     1
 40
1.0
176
     1
 90
        8
176
     1
 62
     7
176
     1
 40
1.0
176
     1
 90
        1
176
     1
 90
        6
176
     1
 90
        2
176
     1
 62
     7
176
     1
 90
        5
176
     1
 90
        0
176
     1
 90
        0
176
     1
290
     0
176
     1
 90
        1
176
     1
 40
0.0
176
     1
 90
        0
176
     1
290
     0
176
     1
290
     1
176
     1
290
     1
176
     1
290
     0
176
     1
290
     0
176
     1
290
     0
176
     1
290
     0
176
     1
290
     0
176
     1
290
     0
176
     1
 90
       50
176
     1
 40
0.0
176
     1
 40
1.0
176
     1
 90
        0
176
     1
 62
    18
420
        0
176
     1
 90
       50
176
     1
 90
        3
176
     1
 62
     5
420
      255
176
     1
290
     0
176
     1
 90
       50
176
     1
 90
       50
176
     1
 90
       50
176
     1
290
     0
176
     1
 90
       50
176
     1
 62
   256
176
     0
 40
1.0
176
     0
 90
        2
176
     1
  1
strokes_ogs.tif
176
     1
290
     0
176
     1
 40
1.0
176
     1
 40
1.0
176
     1
  0
VISUALSTYLE
  5
2A
102
{ACAD_REACTORS
330
29
102
}
330
29
100
AcDbVisualStyle
  2
Flat
 70
     0
177
     3
291
     1
 70
    58
 90
        2
176
     1
 90
        1
176
     1
 90
        1
176
     1
 90
        2
176
     1
 40
0.6
176
     1
 40
30.0
176
     1
 62
     7
420
 16777215
176
     1
 90
        0
176
     1
 90
        0
176
     1
 62
     7
176
     1
 62
   257
176
     1
 90
        1
176
     1
 90
        1
176
     1
 40
1.0
176
     1
 90
        8
176
     1
 62
     7
176
     1
 40
1.0
176
     1
 90
        1
176
     1
 90
        6
176
     1
 90
        2
176
     1
 62
     7
176
     1
 90
        5
176
     1
 90
        0
176
     1
 90
        0
176
     1
290
     0
176
     1
 90
       13
176
     1
 40
0.0
176
     1
 90
        0
176
     1
290
     0
176
     1
290
     1
176
     1
290
     1
176
     1
290
     0
176
     1
290
     0
176
     1
290
     0
176
     1
290
     0
176
     1
290
     0
176
     1
290
     0
176
     1
 90
       50
176
     1
 40
0.0
176
     1
 40
1.0
176
     1
 90
        0
176
     1
 62
    18
420
        0
176
     1
 90
       50
176
     1
 90
        3
176
     1
 62
     5
420
      255
176
     1
290
     0
176
     1
 90
       50
176
     1
 90
       50
176
     1
 90
       50
176
     1
290
     0
176
     1
 90
       50
176
     1
 62
   256
176
     0
 40
1.0
176
     0
 90
        2
176
     1
  1
strokes_ogs.tif
176
     1
290
     0
176
     1
 40
1.0
176
     1
 40
1.0
176
     1
  0
VISUALSTYLE
  5
2B
102
{ACAD_REACTORS
330
29
102
}
330
29
100
AcDbVisualStyle
  2
FlatWithEdges
 70
     1
177
     3
291
     1
 70
    58
 90
        2
176
     1
 90
        1
176
     1
 90
        1
176
     1
 90
        2
176
     1
 40
0.6
176
     1
 40
30.0
176
     1
 62
     7
420
 16777215
176
     1
 90
        1
176
     1
 90
        0
176
     1
 62
     7
176
     1
 62
   257
176
     1
 90
        1
176
     1
 90
        1
176
     1
 40
1.0
176
     1
 90
        0
176
     1
 62
   257
176
     1
 40
1.0
176
     1
 90
        1
176
     1
 90
        6
176
     1
 90
        2
176
     1
 62
     7
176
     1
 90
        5
176
     1
 90
        0
176
     1
 90
        0
176
     1
290
     0
176
     1
 90
       13
176
     1
 40
0.0
176
     1
 90
        0
176
     1
290
     0
176
     1
290
     1
176
     1
290
     1
176
     1
290
     0
176
     1
290
     0
176
     1
290
     0
176
     1
290
     0
176
     1
290
     0
176
     1
290
     0
176
     1
 90
       50
176
     1
 40
0.0
176
     1
 40
1.0
176
     1
 90
        0
176
     1
 62
    18
420
        0
176
     1
 90
       50
176
     1
 90
        3
176
     1
 62
     5
420
      255
176
     1
290
     0
176
     1
 90
       50
176
     1
 90
       50
176
     1
 90
       50
176
     1
290
     0
176
     1
 90
       50
176
     1
 62
   256
176
     0
 40
1.0
176
     0
 90
        2
176
     1
  1
strokes_ogs.tif
176
     1
290
     0
176
     1
 40
1.0
176
     1
 40
1.0
176
     1
  0
VISUALSTYLE
  5
2C
102
{ACAD_REACTORS
330
29
102
}
330
29
100
AcDbVisualStyle
  2
Gouraud
 70
     2
177
     3
291
     1
 70
    58
 90
        2
176
     1
 90
        2
176
     1
 90
        1
176
     1
 90
        2
176
     1
 40
0.6
176
     1
 40
30.0
176
     1
 62
     7
420
 16777215
176
     1
 90
        0
176
     1
 90
        0
176
     1
 62
     7
176
     1
 62
   257
176
     1
 90
        1
176
     1
 90
        1
176
     1
 40
1.0
176
     1
 90
        0
176
     1
 62
     7
176
     1
 40
1.0
176
     1
 90
        1
176
     1
 90
        6
176
     1
 90
        2
176
     1
 62
     7
176
     1
 90
        5
176
     1
 90
        0
176
     1
 90
        0
176
     1
290
     0
176
     1
 90
       13
176
     1
 40
0.0
176
     1
 90
        0
176
     1
290
     0
176
     1
290
     1
176
     1
290
     1
176
     1
290
     0
176
     1
290
     0
176
     1
290
     0
176
     1
290
     0
176
     1
290
     0
176
     1
290
     0
176
     1
 90
       50
176
     1
 40
0.0
176
     1
 40
1.0
176
     1
 90
        0
176
     1
 62
    18
420
        0
176
     1
 90
       50
176
     1
 90
        3
176
     1
 62
     5
420
      255
176
     1
290
     0
176
     1
 90
       50
176
     1
 90
       50
176
     1
 90
       50
176
     1
290
     0
176
     1
 90
       50
176
     1
 62
   256
176
     0
 40
1.0
176
     0
 90
        2
176
     1
  1
strokes_ogs.tif
176
     1
290
     0
176
     1
 40
1.0
176
     1
 40
1.0
176
     1
  0
VISUALSTYLE
  5
2D
102
{ACAD_REACTORS
330
29
102
}
330
29
100
AcDbVisualStyle
  2
GouraudWithEdges
 70
     3
177
     3
291
     1
 70
    58
 90
        2
176
     1
 90
        2
176
     1
 90
        1
176
     1
 90
        2
176
     1
 40
0.6
176
     1
 40
30.0
176
     1
 62
     7
420
 16777215
176
     1
 90
        1
176
     1
 90
        0
176
     1
 62
     7
176
     1
 62
   257
176
     1
 90
        1
176
     1
 90
        1
176
     1
 40
1.0
176
     1
 90
        0
176
     1
 62
   257
176
     1
 40
1.0
176
     1
 90
        1
176
     1
 90
        6
176
     1
 90
        2
176
     1
 62
     7
176
     1
 90
        5
176
     1
 90
        0
176
     1
 90
        0
176
     1
290
     0
176
     1
 90
       13
176
     1
 40
0.0
176
     1
 90
        0
176
     1
290
     0
176
     1
290
     1
176
     1
290
     1
176
     1
290
     0
176
     1
290
     0
176
     1
290
     0
176
     1
290
     0
176
     1
290
     0
176
     1
290
     0
176
     1
 90
       50
176
     1
 40
0.0
176
     1
 40
1.0
176
     1
 90
        0
176
     1
 62
    18
420
        0
176
     1
 90
       50
176
     1
 90
        3
176
     1
 62
     5
420
      255
176
     1
290
     0
176
     1
 90
       50
176
     1
 90
       50
176
     1
 90
       50
176
     1
290
     0
176
     1
 90
       50
176
     1
 62
   256
176
     0
 40
1.0
176
     0
 90
        2
176
     1
  1
strokes_ogs.tif
176
     1
290
     0
176
     1
 40
1.0
176
     1
 40
1.0
176
     1
  0
VISUALSTYLE
  5
31
102
{ACAD_REACTORS
330
29
102
}
330
29
100
AcDbVisualStyle
  2
Hidden
 70
     6
177
     3
291
     0
 70
    58
 90
        1
176
     1
 90
        2
176
     1
 90
        2
176
     1
 90
        0
176
     1
 40
0.6
176
     1
 40
30.0
176
     1
 62
     7
420
 16777215
176
     1
 90
        2
176
     1
 90
        2
176
     1
 62
     7
176
     1
 62
   257
176
     1
 90
        2
176
     1
 90
        1
176
     1
 40
40.0
176
     1
 90
        0
176
     1
 62
   257
176
     1
 40
1.0
176
     1
 90
        1
176
     1
 90
        6
176
     1
 90
        2
176
     1
 62
     7
176
     1
 90
        3
176
     1
 90
        0
176
     1
 90
        0
176
     1
290
     0
176
     1
 90
        1
176
     1
 40
0.0
176
     1
 90
        0
176
     1
290
     0
176
     1
290
     1
176
     1
290
     1
176
     1
290
     0
176
     1
290
     0
176
     1
290
     0
176
     1
290
     0
176
     1
290
     0
176
     1
290
     0
176
     1
 90
       50
176
     1
 40
0.0
176
     1
 40
1.0
176
     1
 90
        0
176
     1
 62
    18
420
        0
176
     1
 90
       50
176
     1
 90
        3
176
     1
 62
     5
420
      255
176
     1
290
     0
176
     1
 90
       50
176
     1
 90
       50
176
     1
 90
       50
176
     1
290
     0
176
     1
 90
       50
176
     1
 62
   256
176
     0
 40
1.0
176
     0
 90
        2
176
     1
  1
strokes_ogs.tif
176
     1
290
     0
176
     1
 40
1.0
176
     1
 40
1.0
176
     1
  0
VISUALSTYLE
  5
3F
102
{ACAD_REACTORS
330
29
102
}
330
29
100
AcDbVisualStyle
  2
JitterOff
 70
    20
177
     3
291
     1
 70
    58
 90
        2
176
     0
 90
        2
176
     0
 90
        0
176
     0
 90
        0
176
     0
 40
0.6
176
     0
 40
30.0
176
     0
 62
     7
420
 16777215
176
     0
 90
        1
176
     0
 90
        4
176
     0
 62
     7
176
     0
 62
   257
176
     0
 90
        1
176
     0
 90
        1
176
     0
 40
1.0
176
     0
 90
       10
176
     2
 62
     7
176
     0
 40
1.0
176
     0
 90
        1
176
     0
 90
        6
176
     0
 90
        2
176
     0
 62
     7
176
     0
 90
        5
176
     0
 90
        0
176
     0
 90
        0
176
     0
290
     0
176
     0
 90
        1
176
     0
 40
0.0
176
     0
 90
        0
176
     0
290
     0
176
     1
290
     1
176
     1
290
     1
176
     1
290
     0
176
     1
290
     0
176
     1
290
     0
176
     1
290
     0
176
     1
290
     0
176
     1
290
     0
176
     1
 90
       50
176
     0
 40
0.0
176
     0
 40
1.0
176
     0
 90
        0
176
     0
 62
    18
420
        0
176
     0
 90
       50
176
     0
 90
        3
176
     0
 62
     5
420
      255
176
     0
290
     0
176
     1
 90
       50
176
     0
 90
       50
176
     0
 90
       50
176
     0
290
     0
176
     1
 90
       50
176
     0
 62
   256
176
     0
 40
1.0
176
     0
 90
        2
176
     0
  1
strokes_ogs.tif
176
     0
290
     0
176
     1
 40
1.0
176
     0
 40
1.0
176
     0
  0
VISUALSTYLE
  5
37
102
{ACAD_REACTORS
330
29
102
}
330
29
100
AcDbVisualStyle
  2
Linepattern
 70
    14
177
     3
291
     1
 70
    58
 90
        2
176
     1
 90
        2
176
     1
 90
        0
176
     1
 90
        0
176
     1
 40
0.6
176
     1
 40
30.0
176
     1
 62
     7
420
 16777215
176
     1
 90
        1
176
     1
 90
        4
176
     1
 62
     7
176
     1
 62
   257
176
     1
 90
        7
176
     1
 90
        7
176
     1
 40
1.0
176
     1
 90
        8
176
     1
 62
     7
176
     1
 40
1.0
176
     1
 90
        1
176
     1
 90
        6
176
     1
 90
        2
176
     1
 62
     7
176
     1
 90
        5
176
     1
 90
        0
176
     1
 90
        0
176
     1
290
     0
176
     1
 90
        1
176
     1
 40
0.0
176
     1
 90
        0
176
     1
290
     0
176
     1
290
     1
176
     1
290
     1
176
     1
290
     0
176
     1
290
     0
176
     1
290
     0
176
     1
290
     0
176
     1
290
     0
176
     1
290
     0
176
     1
 90
       50
176
     1
 40
0.0
176
     1
 40
1.0
176
     1
 90
        0
176
     1
 62
    18
420
        0
176
     1
 90
       50
176
     1
 90
        3
176
     1
 62
     5
420
      255
176
     1
290
     0
176
     1
 90
       50
176
     1
 90
       50
176
     1
 90
       50
176
     1
290
     0
176
     1
 90
       50
176
     1
 62
   256
176
     0
 40
1.0
176
     0
 90
        2
176
     1
  1
strokes_ogs.tif
176
     1
290
     0
176
     1
 40
1.0
176
     1
 40
1.0
176
     1
  0
VISUALSTYLE
  5
40
102
{ACAD_REACTORS
330
29
102
}
330
29
100
AcDbVisualStyle
  2
OverhangOff
 70
    21
177
     3
291
     1
 70
    58
 90
        2
176
     0
 90
        2
176
     0
 90
        0
176
     0
 90
        0
176
     0
 40
0.6
176
     0
 40
30.0
176
     0
 62
     7
420
 16777215
176
     0
 90
        1
176
     0
 90
        4
176
     0
 62
     7
176
     0
 62
   257
176
     0
 90
        1
176
     0
 90
        1
176
     0
 40
1.0
176
     0
 90
        9
176
     2
 62
     7
176
     0
 40
1.0
176
     0
 90
        1
176
     0
 90
        6
176
     0
 90
        2
176
     0
 62
     7
176
     0
 90
        5
176
     0
 90
        0
176
     0
 90
        0
176
     0
290
     0
176
     0
 90
        1
176
     0
 40
0.0
176
     0
 90
        0
176
     0
290
     0
176
     1
290
     1
176
     1
290
     1
176
     1
290
     0
176
     1
290
     0
176
     1
290
     0
176
     1
290
     0
176
     1
290
     0
176
     1
290
     0
176
     1
 90
       50
176
     0
 40
0.0
176
     0
 40
1.0
176
     0
 90
        0
176
     0
 62
    18
420
        0
176
     0
 90
       50
176
     0
 90
        3
176
     0
 62
     5
420
      255
176
     0
290
     0
176
     1
 90
       50
176
     0
 90
       50
176
     0
 90
       50
176
     0
290
     0
176
     1
 90
       50
176
     0
 62
   256
176
     0
 40
1.0
176
     0
 90
        2
176
     0
  1
strokes_ogs.tif
176
     0
290
     0
176
     1
 40
1.0
176
     0
 40
1.0
176
     0
  0
VISUALSTYLE
  5
33
102
{ACAD_REACTORS
330
29
102
}
330
29
100
AcDbVisualStyle
  2
Realistic
 70
     8
177
     3
291
     0
 70
    58
 90
        2
176
     1
 90
        3
176
     1
 90
        0
176
     1
 90
        2
176
     1
 40
0.6
176
     1
 40
30.0
176
     1
 62
     7
420
 16777215
176
     1
 90
        0
176
     1
 90
        0
176
     1
 62
     7
176
     1
 62
   257
176
     1
 90
        1
176
     1
 90
        1
176
     1
 40
1.0
176
     1
 90
        8
176
     1
 62
   257
176
     1
 40
1.0
176
     1
 90
        1
176
     1
 90
        6
176
     1
 90
        2
176
     1
 62
     7
176
     1
 90
        3
176
     1
 90
        0
176
     1
 90
        0
176
     1
290
     0
176
     1
 90
       13
176
     1
 40
0.0
176
     1
 90
        0
176
     1
290
     0
176
     1
290
     1
176
     1
290
     1
176
     1
290
     0
176
     1
290
     0
176
     1
290
     0
176
     1
290
     0
176
     1
290
     0
176
     1
290
     0
176
     1
 90
       50
176
     1
 40
0.0
176
     1
 40
1.0
176
     1
 90
        0
176
     1
 62
    18
420
        0
176
     1
 90
       50
176
     1
 90
        3
176
     1
 62
     5
420
      255
176
     1
290
     0
176
     1
 90
       50
176
     1
 90
       50
176
     1
 90
       50
176
     1
290
     0
176
     1
 90
       50
176
     1
 62
   256
176
     0
 40
1.0
176
     0
 90
        2
176
     1
  1
strokes_ogs.tif
176
     1
290
     0
176
     1
 40
1.0
176
     1
 40
1.0
176
     1
  0
VISUALSTYLE
  5
3E
102
{ACAD_REACTORS
330
29
102
}
330
29
100
AcDbVisualStyle
  2
Shaded
 70
    27
177
     3
291
     0
 70
    58
 90
        2
176
     1
 90
        2
176
     1
 90
        1
176
     1
 90
        2
176
     1
 40
0.6
176
     1
 40
30.0
176
     1
 62
     7
420
 16777215
176
     1
 90
        0
176
     1
 90
        4
176
     1
 62
     7
176
     1
 62
   257
176
     1
 90
        1
176
     1
 90
        1
176
     1
 40
1.0
176
     1
 90
        8
176
     1
 62
   257
176
     1
 40
1.0
176
     1
 90
        1
176
     1
 90
        6
176
     1
 90
        2
176
     1
 62
     8
420
  7895160
176
     1
 90
        3
176
     1
 90
        0
176
     1
 90
        0
176
     1
290
     0
176
     1
 90
        5
176
     1
 40
0.0
176
     1
 90
        0
176
     1
290
     0
176
     1
290
     1
176
     1
290
     1
176
     1
290
     0
176
     1
290
     0
176
     1
290
     0
176
     1
290
     0
176
     1
290
     0
176
     1
290
     0
176
     1
 90
       50
176
     1
 40
0.0
176
     1
 40
1.0
176
     1
 90
        0
176
     1
 62
    18
420
        0
176
     1
 90
       50
176
     1
 90
        3
176
     1
 62
     5
420
      255
176
     1
290
     0
176
     1
 90
       50
176
     1
 90
       50
176
     1
 90
       50
176
     1
290
     0
176
     1
 90
       50
176
     1
 62
   256
176
     0
 40
1.0
176
     0
 90
        2
176
     1
  1
strokes_ogs.tif
176
     1
290
     0
176
     1
 40
1.0
176
     1
 40
1.0
176
     1
  0
VISUALSTYLE
  5
3D
102
{ACAD_REACTORS
330
29
102
}
330
29
100
AcDbVisualStyle
  2
Shaded with edges
 70
    26
177
     3
291
     0
 70
    58
 90
        2
176
     1
 90
        2
176
     1
 90
        1
176
     1
 90
        2
176
     1
 40
0.6
176
     1
 40
30.0
176
     1
 62
     7
420
 16777215
176
     1
 90
        1
176
     1
 90
       10
176
     1
 62
     7
176
     1
 62
   257
176
     1
 90
        2
176
     1
 90
        1
176
     1
 40
1.0
176
     1
 90
        8
176
     1
 62
   257
176
     1
 40
1.0
176
     1
 90
        1
176
     1
 90
        6
176
     1
 90
        2
176
     1
 62
     7
176
     1
 90
        3
176
     1
 90
        0
176
     1
 90
        0
176
     1
290
     0
176
     1
 90
        5
176
     1
 40
0.0
176
     1
 90
        0
176
     1
290
     0
176
     1
290
     1
176
     1
290
     1
176
     1
290
     0
176
     1
290
     0
176
     1
290
     0
176
     1
290
     0
176
     1
290
     0
176
     1
290
     0
176
     1
 90
       50
176
     1
 40
0.0
176
     1
 40
1.0
176
     1
 90
        0
176
     1
 62
    18
420
        0
176
     1
 90
       50
176
     1
 90
        3
176
     1
 62
     5
420
      255
176
     1
290
     0
176
     1
 90
       50
176
     1
 90
       50
176
     1
 90
       50
176
     1
290
     0
176
     1
 90
       50
176
     1
 62
   256
176
     0
 40
1.0
176
     0
 90
        2
176
     1
  1
strokes_ogs.tif
176
     1
290
     0
176
     1
 40
1.0
176
     1
 40
1.0
176
     1
  0
VISUALSTYLE
  5
3A
102
{ACAD_REACTORS
330
29
102
}
330
29
100
AcDbVisualStyle
  2
Shades of Gray
 70
    23
177
     3
291
     0
 70
    58
 90
        2
176
     1
 90
        2
176
     1
 90
        3
176
     1
 90
        0
176
     1
 40
0.6
176
     1
 40
30.0
176
     1
 62
     7
420
 16777215
176
     1
 90
        2
176
     1
 90
        2
176
     1
 62
     7
176
     1
 62
     7
176
     1
 90
        1
176
     1
 90
        1
176
     1
 40
40.0
176
     1
 90
        8
176
     1
 62
     7
176
     1
 40
1.0
176
     1
 90
        1
176
     1
 90
        6
176
     1
 90
        2
176
     1
 62
     7
176
     1
 90
        3
176
     1
 90
        0
176
     1
 90
        0
176
     1
290
     0
176
     1
 90
        1
176
     1
 40
0.0
176
     1
 90
        0
176
     1
290
     0
176
     1
290
     1
176
     1
290
     1
176
     1
290
     0
176
     1
290
     0
176
     1
290
     0
176
     1
290
     0
176
     1
290
     0
176
     1
290
     0
176
     1
 90
       50
176
     1
 40
0.0
176
     1
 40
1.0
176
     1
 90
        0
176
     1
 62
    18
420
        0
176
     1
 90
       50
176
     1
 90
        3
176
     1
 62
     5
420
      255
176
     1
290
     0
176
     1
 90
       50
176
     1
 90
       50
176
     1
 90
       50
176
     1
290
     0
176
     1
 90
       50
176
     1
 62
   256
176
     0
 40
1.0
176
     0
 90
        2
176
     1
  1
strokes_ogs.tif
176
     1
290
     0
176
     1
 40
1.0
176
     1
 40
1.0
176
     1
  0
VISUALSTYLE
  5
3B
102
{ACAD_REACTORS
330
29
102
}
330
29
100
AcDbVisualStyle
  2
Sketchy
 70
    24
177
     3
291
     0
 70
    58
 90
        1
176
     1
 90
        2
176
     1
 90
        2
176
     1
 90
        0
176
     1
 40
0.6
176
     1
 40
30.0
176
     1
 62
     7
420
 16777215
176
     1
 90
        2
176
     1
 90
        2
176
     1
 62
     7
176
     1
 62
     7
176
     1
 90
        1
176
     1
 90
        1
176
     1
 40
40.0
176
     1
 90
       11
176
     1
 62
     7
176
     1
 40
1.0
176
     1
 90
        1
176
     1
 90
        6
176
     1
 90
        2
176
     1
 62
     7
176
     1
 90
        6
176
     1
 90
        0
176
     1
 90
        0
176
     1
290
     0
176
     1
 90
        1
176
     1
 40
0.0
176
     1
 90
        0
176
     1
290
     0
176
     1
290
     1
176
     1
290
     1
176
     1
290
     0
176
     1
290
     0
176
     1
290
     0
176
     1
290
     0
176
     1
290
     0
176
     1
290
     0
176
     1
 90
       50
176
     1
 40
0.0
176
     1
 40
1.0
176
     1
 90
        0
176
     1
 62
    18
420
        0
176
     1
 90
       50
176
     1
 90
        3
176
     1
 62
     5
420
      255
176
     1
290
     0
176
     1
 90
       50
176
     1
 90
       50
176
     1
 90
       50
176
     1
290
     0
176
     1
 90
       50
176
     1
 62
   256
176
     0
 40
1.0
176
     0
 90
        2
176
     1
  1
strokes_ogs.tif
176
     1
290
     0
176
     1
 40
1.0
176
     1
 40
1.0
176
     1
  0
VISUALSTYLE
  5
36
102
{ACAD_REACTORS
330
29
102
}
330
29
100
AcDbVisualStyle
  2
Thicken
 70
    13
177
     3
291
     1
 70
    58
 90
        2
176
     1
 90
        2
176
     1
 90
        0
176
     1
 90
        0
176
     1
 40
0.6
176
     1
 40
30.0
176
     1
 62
     7
420
 16777215
176
     1
 90
        1
176
     1
 90
        4
176
     1
 62
     7
176
     1
 62
   257
176
     1
 90
        1
176
     1
 90
        1
176
     1
 40
1.0
176
     1
 90
       12
176
     1
 62
     7
176
     1
 40
1.0
176
     1
 90
        1
176
     1
 90
        6
176
     1
 90
        2
176
     1
 62
     7
176
     1
 90
        5
176
     1
 90
        0
176
     1
 90
        0
176
     1
290
     0
176
     1
 90
        1
176
     1
 40
0.0
176
     1
 90
        0
176
     1
290
     0
176
     1
290
     1
176
     1
290
     1
176
     1
290
     0
176
     1
290
     0
176
     1
290
     0
176
     1
290
     0
176
     1
290
     0
176
     1
290
     0
176
     1
 90
       50
176
     1
 40
0.0
176
     1
 40
1.0
176
     1
 90
        0
176
     1
 62
    18
420
        0
176
     1
 90
       50
176
     1
 90
        3
176
     1
 62
     5
420
      255
176
     1
290
     0
176
     1
 90
       50
176
     1
 90
       50
176
     1
 90
       50
176
     1
290
     0
176
     1
 90
       50
176
     1
 62
   256
176
     0
 40
1.0
176
     0
 90
        2
176
     1
  1
strokes_ogs.tif
176
     1
290
     0
176
     1
 40
1.0
176
     1
 40
1.0
176
     1
  0
VISUALSTYLE
  5
30
102
{ACAD_REACTORS
330
29
102
}
330
29
100
AcDbVisualStyle
  2
Wireframe
 70
     5
177
     3
291
     0
 70
    58
 90
        0
176
     1
 90
        2
176
     1
 90
        0
176
     1
 90
        0
176
     1
 40
0.6
176
     1
 40
30.0
176
     1
 62
     7
420
 16777215
176
     1
 90
        1
176
     1
 90
        4
176
     1
 62
     7
176
     1
 62
   257
176
     1
 90
        1
176
     1
 90
        1
176
     1
 40
1.0
176
     1
 90
        0
176
     1
 62
   257
176
     1
 40
1.0
176
     1
 90
        1
176
     1
 90
        6
176
     1
 90
        2
176
     1
 62
     7
176
     1
 90
        3
176
     1
 90
        0
176
     1
 90
        0
176
     1
290
     0
176
     1
 90
        1
176
     1
 40
0.0
176
     1
 90
        0
176
     1
290
     0
176
     1
290
     1
176
     1
290
     1
176
     1
290
     0
176
     1
290
     0
176
     1
290
     0
176
     1
290
     0
176
     1
290
     0
176
     1
290
     0
176
     1
 90
       50
176
     1
 40
0.0
176
     1
 40
1.0
176
     1
 90
        0
176
     1
 62
    18
420
        0
176
     1
 90
       50
176
     1
 90
        3
176
     1
 62
     5
420
      255
176
     1
290
     0
176
     1
 90
       50
176
     1
 90
       50
176
     1
 90
       50
176
     1
290
     0
176
     1
 90
       50
176
     1
 62
   256
176
     0
 40
1.0
176
     0
 90
        2
176
     1
  1
strokes_ogs.tif
176
     1
290
     0
176
     1
 40
1.0
176
     1
 40
1.0
176
     1
  0
VISUALSTYLE
  5
3C
102
{ACAD_REACTORS
330
29
102
}
330
29
100
AcDbVisualStyle
  2
X-Ray
 70
    25
177
     3
291
     0
 70
    58
 90
        2
176
     1
 90
        2
176
     1
 90
        1
176
     1
 90
        1
176
     1
 40
0.5
176
     1
 40
30.0
176
     1
 62
     7
420
 16777215
176
     1
 90
        1
176
     1
 90
        0
176
     1
 62
     7
176
     1
 62
   257
176
     1
 90
        1
176
     1
 90
        1
176
     1
 40
1.0
176
     1
 90
        8
176
     1
 62
     7
176
     1
 40
1.0
176
     1
 90
        1
176
     1
 90
        6
176
     1
 90
        2
176
     1
 62
     7
176
     1
 90
        3
176
     1
 90
        0
176
     1
 90
        0
176
     1
290
     0
176
     1
 90
       13
176
     1
 40
0.0
176
     1
 90
        0
176
     1
290
     0
176
     1
290
     1
176
     1
290
     1
176
     1
290
     0
176
     1
290
     0
176
     1
290
     0
176
     1
290
     0
176
     1
290
     0
176
     1
290
     0
176
     1
 90
       50
176
     1
 40
0.0
176
     1
 40
1.0
176
     1
 90
        0
176
     1
 62
    18
420
        0
176
     1
 90
       50
176
     1
 90
        3
176
     1
 62
     5
420
      255
176
     1
290
     0
176
     1
 90
       50
176
     1
 90
       50
176
     1
 90
       50
176
     1
290
     0
176
     1
 90
       50
176
     1
 62
   256
176
     0
 40
1.0
176
     0
 90
        2
176
     1
  1
strokes_ogs.tif
176
     1
290
     0
176
     1
 40
1.0
176
     1
 40
1.0
176
     1
  0
DICTIONARYVAR
  5
526
102
{ACAD_REACTORS
330
520
102
}
330
520
100
DictionaryVariables
280
     0
  1
1:1
  0
DICTIONARYVAR
  5
522
102
{ACAD_REACTORS
330
520
102
}
330
520
100
DictionaryVariables
280
     0
  1
STANDARD
  0
DICTIONARYVAR
  5
521
102
{ACAD_REACTORS
330
520
102
}
330
520
100
DictionaryVariables
280
     0
  1
STANDARD
  0
DICTIONARYVAR
  5
523
102
{ACAD_REACTORS
330
520
102
}
330
520
100
DictionaryVariables
280
     0
  1
Imperial24
  0
DICTIONARYVAR
  5
524
102
{ACAD_REACTORS
330
520
102
}
330
520
100
DictionaryVariables
280
     0
  1
Imperial24
  0
DICTIONARYVAR
  5
528
102
{ACAD_REACTORS
330
520
102
}
330
520
100
DictionaryVariables
280
     0
  1
1
  0
DICTIONARYVAR
  5
529
102
{ACAD_REACTORS
330
520
102
}
330
520
100
DictionaryVariables
280
     0
  1
15
  0
DICTIONARYVAR
  5
527
102
{ACAD_REACTORS
330
520
102
}
330
520
100
DictionaryVariables
280
     0
  1
0
  0
DICTIONARYVAR
  5
525
102
{ACAD_REACTORS
330
520
102
}
330
520
100
DictionaryVariables
280
     0
  1
0
  0
DICTIONARY
  5
1A
330
19
100
AcDbDictionary
280
     1
281
     1
  3
BUMPTILE
360
1C
  3
DIFFUSETILE
360
1B
  3
OPACITYTILE
360
1F
  3
REFLECTIONTILE
360
1E
  3
REFRACTIONTILE
360
20
  3
SPECULARTILE
360
1D
  0
DICTIONARY
  5
12
330
11
100
AcDbDictionary
280
     1
281
     1
  3
BUMPTILE
360
14
  3
DIFFUSETILE
360
13
  3
OPACITYTILE
360
17
  3
REFLECTIONTILE
360
16
  3
REFRACTIONTILE
360
18
  3
SPECULARTILE
360
15
  0
DICTIONARY
  5
22
330
21
100
AcDbDictionary
280
     1
281
     1
  3
BUMPTILE
360
24
  3
DIFFUSETILE
360
23
  3
OPACITYTILE
360
27
  3
REFLECTIONTILE
360
26
  3
REFRACTIONTILE
360
28
  3
SPECULARTILE
360
25
  0
DICTIONARY
  5
52A
330
64
100
AcDbDictionary
280
     1
281
     1
  3
ACAD_ROUNDTRIP_2008_TABLESTYLE_CELLSTYLEMAP
360
52B
  0
XRECORD
  5
1C
102
{ACAD_REACTORS
330
1A
102
}
330
1A
100
AcDbXrecord
280
     1
270
     1
271
     1
  0
XRECORD
  5
1B
102
{ACAD_REACTORS
330
1A
102
}
330
1A
100
AcDbXrecord
280
     1
270
     1
271
     1
  0
XRECORD
  5
1F
102
{ACAD_REACTORS
330
1A
102
}
330
1A
100
AcDbXrecord
280
     1
270
     1
271
     1
  0
XRECORD
  5
1E
102
{ACAD_REACTORS
330
1A
102
}
330
1A
100
AcDbXrecord
280
     1
270
     1
271
     1
  0
XRECORD
  5
20
102
{ACAD_REACTORS
330
1A
102
}
330
1A
100
AcDbXrecord
280
     1
270
     1
271
     1
  0
XRECORD
  5
1D
102
{ACAD_REACTORS
330
1A
102
}
330
1A
100
AcDbXrecord
280
     1
270
     1
271
     1
  0
XRECORD
  5
14
102
{ACAD_REACTORS
330
12
102
}
330
12
100
AcDbXrecord
280
     1
270
     1
271
     1
  0
XRECORD
  5
13
102
{ACAD_REACTORS
330
12
102
}
330
12
100
AcDbXrecord
280
     1
270
     1
271
     1
  0
XRECORD
  5
17
102
{ACAD_REACTORS
330
12
102
}
330
12
100
AcDbXrecord
280
     1
270
     1
271
     1
  0
XRECORD
  5
16
102
{ACAD_REACTORS
330
12
102
}
330
12
100
AcDbXrecord
280
     1
270
     1
271
     1
  0
XRECORD
  5
18
102
{ACAD_REACTORS
330
12
102
}
330
12
100
AcDbXrecord
280
     1
270
     1
271
     1
  0
XRECORD
  5
15
102
{ACAD_REACTORS
330
12
102
}
330
12
100
AcDbXrecord
280
     1
270
     1
271
     1
  0
XRECORD
  5
24
102
{ACAD_REACTORS
330
22
102
}
330
22
100
AcDbXrecord
280
     1
270
     1
271
     1
  0
XRECORD
  5
23
102
{ACAD_REACTORS
330
22
102
}
330
22
100
AcDbXrecord
280
     1
270
     1
271
     1
  0
XRECORD
  5
27
102
{ACAD_REACTORS
330
22
102
}
330
22
100
AcDbXrecord
280
     1
270
     1
271
     1
  0
XRECORD
  5
26
102
{ACAD_REACTORS
330
22
102
}
330
22
100
AcDbXrecord
280
     1
270
     1
271
     1
  0
XRECORD
  5
28
102
{ACAD_REACTORS
330
22
102
}
330
22
100
AcDbXrecord
280
     1
270
     1
271
     1
  0
XRECORD
  5
25
102
{ACAD_REACTORS
330
22
102
}
330
22
100
AcDbXrecord
280
     1
270
     1
271
     1
  0
CELLSTYLEMAP
  5
52B
102
{ACAD_REACTORS
330
52A
102
}
330
52A
100
AcDbCellStyleMap
 90
        3
300
CELLSTYLE
  1
TABLEFORMAT_BEGIN
 90
        5
170
     1
 91
        0
 92
    32768
 62
   257
 93
        1
300
CONTENTFORMAT
  1
CONTENTFORMAT_BEGIN
 90
        0
 91
        0
 92
      512
 93
        0
300

 40
0.0
140
1.0
 94
        5
 62
     0
340
55
144
0.25
309
CONTENTFORMAT_END
171
     0
 94
        0
309
TABLEFORMAT_END
  1
CELLSTYLE_BEGIN
 90
        1
 91
        1
300
_TITLE
309
CELLSTYLE_END
300
CELLSTYLE
  1
TABLEFORMAT_BEGIN
 90
        5
170
     1
 91
        0
 92
        0
 62
   257
 93
        1
300
CONTENTFORMAT
  1
CONTENTFORMAT_BEGIN
 90
        0
 91
        0
 92
      512
 93
        0
300

 40
0.0
140
1.0
 94
        5
 62
     0
340
55
144
0.18
309
CONTENTFORMAT_END
171
     0
 94
        0
309
TABLEFORMAT_END
  1
CELLSTYLE_BEGIN
 90
        2
 91
        1
300
_HEADER
309
CELLSTYLE_END
300
CELLSTYLE
  1
TABLEFORMAT_BEGIN
 90
        5
170
     1
 91
        0
 92
        0
 62
   257
 93
        1
300
CONTENTFORMAT
  1
CONTENTFORMAT_BEGIN
 90
        0
 91
        0
 92
      512
 93
        0
300

 40
0.0
140
1.0
 94
        2
 62
     0
340
55
144
0.18
309
CONTENTFORMAT_END
171
     0
 94
        0
309
TABLEFORMAT_END
  1
CELLSTYLE_BEGIN
 90
        3
 91
        2
300
_DATA
309
CELLSTYLE_END
  0
ENDSEC
  0
SECTION
  2
ACDSDATA
 70
     2
 71
     2
  0
ACDSSCHEMA
 90
        0
  1
AcDb_Thumbnail_Schema
  2
AcDbDs::ID
280
    10
 91
        8
  2
Thumbnail_Data
280
    15
 91
        0
101
ACDSRECORD
 95
        0
 90
        1
  2
AcDbDs::TreatedAsObjectData
280
     1
291
     1
101
ACDSRECORD
 95
        0
 90
        2
  2
AcDbDs::Legacy
280
     1
291
     1
101
ACDSRECORD
  1
AcDbDs::ID
 90
        3
  2
AcDs:Indexable
280
     1
291
     1
101
ACDSRECORD
  1
AcDbDs::ID
 90
        4
  2
AcDbDs::HandleAttribute
280
     7
282
     1
  0
ACDSSCHEMA
 90
        1
  1
AcDbDs::TreatedAsObjectDataSchema
  2
AcDbDs::TreatedAsObjectData
280
     1
 91
        0
  0
ACDSSCHEMA
 90
        2
  1
AcDbDs::LegacySchema
  2
AcDbDs::Legacy
280
     1
 91
        0
  0
ACDSSCHEMA
 90
        3
  1
AcDbDs::IndexedPropertySchema
  2
AcDs:Indexable
280
     1
 91
        0
  0
ACDSSCHEMA
 90
        4
  1
AcDbDs::HandleAttributeSchema
  2
AcDbDs::HandleAttribute
280
     7
 91
        1
284
     1
  0
ACDSRECORD
 90
        0
  2
AcDbDs::ID
280
    10
320
73
  2
Thumbnail_Data
280
    15
 94
     1018
310
89504E470D0A1A0A0000000D494844520000010000000065080300000095E2CD0900000300504C5445212830000000C8C8C80000000000000000000000000000000000000000000000000000330000660000990000CC0000FF0033000033330033660033990033CC0033FF0066000066330066660066990066CC0066FF0099
310
000099330099660099990099CC0099FF00CC0000CC3300CC6600CC9900CCCC00CCFF00FF0000FF3300FF6600FF9900FFCC00FFFF3300003300333300663300993300CC3300FF3333003333333333663333993333CC3333FF3366003366333366663366993366CC3366FF3399003399333399663399993399CC3399FF33CC00
310
33CC3333CC6633CC9933CCCC33CCFF33FF0033FF3333FF6633FF9933FFCC33FFFF6600006600336600666600996600CC6600FF6633006633336633666633996633CC6633FF6666006666336666666666996666CC6666FF6699006699336699666699996699CC6699FF66CC0066CC3366CC6666CC9966CCCC66CCFF66FF0066
310
FF3366FF6666FF9966FFCC66FFFF9900009900339900669900999900CC9900FF9933009933339933669933999933CC9933FF9966009966339966669966999966CC9966FF9999009999339999669999999999CC9999FF99CC0099CC3399CC6699CC9999CCCC99CCFF99FF0099FF3399FF6699FF9999FFCC99FFFFCC0000CC00
310
33CC0066CC0099CC00CCCC00FFCC3300CC3333CC3366CC3399CC33CCCC33FFCC6600CC6633CC6666CC6699CC66CCCC66FFCC9900CC9933CC9966CC9999CC99CCCC99FFCCCC00CCCC33CCCC66CCCC99CCCCCCCCCCFFCCFF00CCFF33CCFF66CCFF99CCFFCCCCFFFFFF0000FF0033FF0066FF0099FF00CCFF00FFFF3300FF3333
310
FF3366FF3399FF33CCFF33FFFF6600FF6633FF6666FF6699FF66CCFF66FFFF9900FF9933FF9966FF9999FF99CCFF99FFFFCC00FFCC33FFCC66FFCC99FFCCCCFFCCFFFFFF00FFFF33FFFF66FFFF99FFFFCCFFFFFF0000000D0D0D1A1A1A2828283535354343435050505D5D5D6B6B6B787878868686939393A1A1A1AEAEAEBB
310
BBBBC9C9C9D6D6D6E4E4E4F1F1F1FFFFFF000000000000000000000000000000000000000000000000000000000000B21171F6000000B54944415478DAEDDCB10D80401003C1EFBF57C2CB4940400308B1B31D9CE57D9984B500001F626E540358C7E553BF5F000288BF00024807300C10407305328001DD0628800018A000
310
0230021440000C300218C00006F4EE670003AE2E24EF670003DA069C05D88C0006780219503660638027D087200318E043D00860000318C0000628800018A00002300214E0C7F733800146800218010CC816A0FDAF0401CC430601841140FC7E0100000000000000008057D801AF11E163EC559D5A0000000049454E44AE42
310
6082
  0
ENDSEC
  0
EOF
