  0
SECTION
  2
HEADER
  9
$ACADVER
  1
AC1009
  9
$INSBASE
 10
220.00000000000011
 20
9.9999999999999716
 30
0.0
  9
$EXTMIN
 10
358.13533538381051
 20
-5721.5336819355343
 30
-36.000000000000163
  9
$EXTMAX
 10
400.835784897503
 20
278.50521110768608
 30
2.000000000177796
  9
$LIMMIN
 10
0.0
 20
0.0
  9
$LIMMAX
 10
420.0
 20
297.0
  9
$ORTHOMODE
 70
     1
  9
$REGENMODE
 70
     1
  9
$FILLMODE
 70
     1
  9
$QTEXTMODE
 70
     0
  9
$MIRRTEXT
 70
     1
  9
$DRAGMODE
 70
     2
  9
$LTSCALE
 40
1.0
  9
$OSMODE
 70
   231
  9
$ATTMODE
 70
     1
  9
$TEXTSIZE
 40
3.0
  9
$TRACEWID
 40
1.0
  9
$TEXTSTYLE
  7
STANDARD
  9
$CLAYER
  8
LAYER1
  9
$CELTYPE
  6
BYLAYER
  9
$CECOLOR
 62
   256
  9
$DIMSCALE
 40
1.0
  9
$DIMASZ
 40
2.0
  9
$DIMEXO
 40
0.0
  9
$DIMDLI
 40
10.0
  9
$DIMRND
 40
0.0
  9
$DIMDLE
 40
0.0
  9
$DIMEXE
 40
0.5
  9
$DIMTP
 40
0.1
  9
$DIMTM
 40
0.1
  9
$DIMTXT
 40
2.2000000000000002
  9
$DIMCEN
 40
0.1
  9
$DIMTSZ
 40
0.0
  9
$DIMTOL
 70
     0
  9
$DIMLIM
 70
     0
  9
$DIMTIH
 70
     0
  9
$DIMTOH
 70
     0
  9
$DIMSE1
 70
     0
  9
$DIMSE2
 70
     0
  9
$DIMTAD
 70
     1
  9
$DIMZIN
 70
     8
  9
$DIMBLK
  1

  9
$DIMASO
 70
     1
  9
$DIMSHO
 70
     1
  9
$DIMPOST
  1

  9
$DIMAPOST
  1
"
  9
$DIMALT
 70
     0
  9
$DIMALTD
 70
     2
  9
$DIMALTF
 40
0.0393701
  9
$DIMLFAC
 40
0.5
  9
$DIMTOFL
 70
     1
  9
$DIMTVP
 40
0.0
  9
$DIMTIX
 70
     0
  9
$DIMSOXD
 70
     0
  9
$DIMSAH
 70
     0
  9
$DIMBLK1
  1

  9
$DIMBLK2
  1

  9
$DIMSTYLE
  2
ALEX2
  9
$DIMCLRD
 70
   151
  9
$DIMCLRE
 70
   151
  9
$DIMCLRT
 70
     1
  9
$DIMTFAC
 40
0.71
  9
$DIMGAP
 40
0.5
  9
$LUNITS
 70
     2
  9
$LUPREC
 70
     2
  9
$SKETCHINC
 40
1.0
  9
$FILLETRAD
 40
1.0
  9
$AUNITS
 70
     0
  9
$AUPREC
 70
     0
  9
$MENU
  1
.
  9
$ELEVATION
 40
0.0
  9
$PELEVATION
 40
0.0
  9
$THICKNESS
 40
0.0
  9
$LIMCHECK
 70
     0
  9
$BLIPMODE
 70
     0
  9
$CHAMFERA
 40
0.0
  9
$CHAMFERB
 40
0.0
  9
$SKPOLY
 70
     0
  9
$TDCREATE
 40
2452341.2978516198
  9
$TDUPDATE
 40
2458305.724687106
  9
$TDINDWG
 40
1.0873003588000001
  9
$TDUSRTIMER
 40
1.0873003588000001
  9
$USRTIMER
 70
     1
  9
$ANGBASE
 50
0.0
  9
$ANGDIR
 70
     0
  9
$PDMODE
 70
     0
  9
$PDSIZE
 40
0.0
  9
$PLINEWID
 40
0.0
  9
$COORDS
 70
     1
  9
$SPLFRAME
 70
     0
  9
$SPLINETYPE
 70
     6
  9
$SPLINESEGS
 70
     8
  9
$ATTDIA
 70
     0
  9
$ATTREQ
 70
     1
  9
$HANDLING
 70
     1
  9
$HANDSEED
  5
BE3
  9
$SURFTAB1
 70
     6
  9
$SURFTAB2
 70
     6
  9
$SURFTYPE
 70
     6
  9
$SURFU
 70
     6
  9
$SURFV
 70
     6
  9
$UCSNAME
  2

  9
$UCSORG
 10
379.81033498081678
 20
-5721.5219374130984
 30
-34.025000406973987
  9
$UCSXDIR
 10
1.0
 20
0.0
 30
0.0
  9
$UCSYDIR
 10
0.0
 20
1.0
 30
0.0
  9
$PUCSNAME
  2

  9
$PUCSORG
 10
0.0
 20
0.0
 30
0.0
  9
$PUCSXDIR
 10
1.0
 20
0.0
 30
0.0
  9
$PUCSYDIR
 10
0.0
 20
1.0
 30
0.0
  9
$USERI1
 70
     0
  9
$USERI2
 70
     0
  9
$USERI3
 70
     0
  9
$USERI4
 70
     0
  9
$USERI5
 70
     0
  9
$USERR1
 40
0.0
  9
$USERR2
 40
0.0
  9
$USERR3
 40
0.0
  9
$USERR4
 40
0.0
  9
$USERR5
 40
0.0
  9
$WORLDVIEW
 70
     1
  9
$SHADEDGE
 70
     3
  9
$SHADEDIF
 70
    70
  9
$TILEMODE
 70
     1
  9
$MAXACTVP
 70
    48
  9
$PLIMCHECK
 70
     0
  9
$PEXTMIN
 10
1.0000000000000000E+020
 20
1.0000000000000000E+020
 30
1.0000000000000000E+020
  9
$PEXTMAX
 10
-1.0000000000000000E+020
 20
-1.0000000000000000E+020
 30
-1.0000000000000000E+020
  9
$PLIMMIN
 10
-0.2500002402958907
 20
-0.2499999962453767
  9
$PLIMMAX
 10
10.74999951940821
 20
8.2499997634587316
  9
$UNITMODE
 70
     0
  9
$VISRETAIN
 70
     1
  9
$PLINEGEN
 70
     0
  9
$PSLTSCALE
 70
     1
  0
ENDSEC
  0
SECTION
  2
TABLES
  0
TABLE
  2
VPORT
 70
     1
  0
VPORT
  2
*ACTIVE
 70
     0
 10
0.0
 20
0.0
 11
1.0
 21
1.0
 12
-9.5509408822963451
 22
-0.0144714233777066
 13
0.0
 23
0.0
 14
0.0001
 24
0.0001
 15
10.0
 25
10.0
 16
249.61596085886779
 26
-546.52311468865082
 36
237.1805867566363
 17
23951.045481728372
 27
-57251.665435069568
 37
22353.402591314411
 40
55.39915867942134
 41
2.5838150289017339
 42
50.0
 43
14079.95974625909
 44
14079.95974625909
 50
0.0
 51
0.0
 71
     0
 72
   100
 73
     1
 74
     3
 75
     0
 76
     0
 77
     0
 78
     0
  0
ENDTAB
  0
TABLE
  2
LTYPE
 70
    16
  0
LTYPE
  2
CONTINUOUS
 70
     0
  3
Solid line
 72
    65
 73
     0
 40
0.0
  0
LTYPE
  2
ACISOWELD
 70
     0
  3
_ _ _ _ _
 72
    65
 73
     2
 40
2.0
 49
2.0
 49
-1.0
  0
LTYPE
  2
ACISOTGB
 70
     0
  3
__ . . __ . .
 72
    65
 73
     6
 40
9.0
 49
4.0
 49
-1.0
 49
1.0
 49
-1.0
 49
1.0
 49
-1.0
  0
LTYPE
  2
ACISOTGL
 70
     0
  3
_ _ _ _ _
 72
    65
 73
     2
 40
3.0
 49
2.0
 49
-1.0
  0
LTYPE
  2
AM_ISO02W050
 70
     0
  3
__ __ __ __ __ __ __ __ __ __ __ __ __ __ __
 72
    65
 73
     2
 40
7.5
 49
6.0
 49
-1.5
  0
LTYPE
  2
AM_ISO08W050
 70
     0
  3
____ . ____ . ____ . ____ . ____ . ____ . ____
 72
    65
 73
     4
 40
18.0
 49
12.0
 49
-1.5
 49
3.0
 49
-1.5
  0
LTYPE
  2
AM_ISO09W050
 70
     0
  3
_____ . . _____ . . _____ . . ____ .. ____
 72
    65
 73
     6
 40
22.5
 49
12.0
 49
-1.5
 49
3.0
 49
-1.5
 49
3.0
 49
-1.5
  0
LTYPE
  2
AM_ISO02W050X2
 70
     0
  3
 _ _ _ _ _ _ _ _ _ _ _ _
 72
    65
 73
     2
 40
3.75
 49
3.0
 49
-0.75
  0
LTYPE
  2
AM_ISO08W050X2
 70
     0
  3
__ . __ . __ . __ . __ . __
 72
    65
 73
     4
 40
9.0
 49
6.0
 49
-0.75
 49
1.5
 49
-0.75
  0
LTYPE
  2
AMZIGZAG
 70
     0
  3
/\/-/\/-/\/-/\/-/\/-/\/
 72
    65
 73
     2
 40
11.0001
 49
0.0001
 49
-11.0
  0
LTYPE
  2
AMCONSTR
 70
     0
  3
_______________________
 72
    65
 73
     2
 40
9999.0
 49
9999.0
 49
0.0
  0
LTYPE
  2
DASHDOTA
 70
     0
  3
__ . __ . __
 72
    65
 73
     4
 40
3.5999999999999992
 49
2.399999999999999
 49
-0.6
 49
0.0
 49
-0.6
  0
LTYPE
  2
CONTINUA
 70
     0
  3
Linea continua
 72
    65
 73
     0
 40
0.0
  0
LTYPE
  2
HIDDEN
 70
     0
  3
Nascosta __ __ __ __ __ __ __ __ __ __ __ __ __ __
 72
    65
 73
     2
 40
9.5250000000000004
 49
6.3499999999999988
 49
-3.1749999999999989
  0
LTYPE
  2
PHANTOM2
 70
     0
  3
Linea-Lineette (.5x) ___ _ _ ___ _ _ ___ _ _ ___ _ _
 72
    65
 73
     6
 40
31.75
 49
15.875
 49
-3.1749999999999989
 49
3.1749999999999989
 49
-3.1749999999999989
 49
3.1749999999999989
 49
-3.1749999999999989
  0
LTYPE
  2
CENTER
 70
     0
  3
Linea-Lineetta ____ _ ____ _ ____ _ ____ _ ____ _ ____
 72
    65
 73
     4
 40
50.799999999999997
 49
31.75
 49
-6.3499999999999988
 49
6.3499999999999988
 49
-6.3499999999999988
  0
ENDTAB
  0
TABLE
  2
LAYER
 70
     6
  0
LAYER
  2
0
 70
     0
 62
     7
  6
CONTINUOUS
  0
LAYER
  2
ASSI
 70
     0
 62
     3
  6
DASHDOTA
  0
LAYER
  2
DEFPOINTS
 70
     0
 62
     7
  6
CONTINUA
  0
LAYER
  2
QUOTE
 70
     0
 62
    -3
  6
CONTINUA
  0
LAYER
  2
AM_7
 70
     0
 62
     4
  6
AM_ISO08W050
  0
LAYER
  2
LAYER1
 70
     0
 62
     1
  6
CONTINUOUS
  0
ENDTAB
  0
TABLE
  2
STYLE
 70
     5
  0
STYLE
  2
STANDARD
 70
     0
 40
3.0
 41
1.0
 50
0.0
 71
     0
 42
3.0
  3
txt
  4

  0
STYLE
  2
ACBSIGDT
 70
     0
 40
0.0
 41
1.0
 50
0.0
 71
     0
 42
3.5
  3
amgdt.shx
  4

  0
STYLE
  2
ACISOTS
 70
     0
 40
1.0
 41
1.0
 50
0.0
 71
     0
 42
3.5
  3
isocp.shx
  4

  0
STYLE
  2
ACISOGDT
 70
     0
 40
0.0
 41
1.0
 50
0.0
 71
     0
 42
3.5
  3
amgdt.shx
  4

  0
STYLE
  2

 70
     1
 40
0.0
 41
1.0
 50
0.0
 71
     0
 42
3.5
  3
ltypeshp.shx
  4

  0
ENDTAB
  0
TABLE
  2
VIEW
 70
     1
  0
ENDTAB
  0
TABLE
  2
UCS
 70
     0
  0
ENDTAB
  0
TABLE
  2
APPID
 70
     9
  0
APPID
  2
ACAD
 70
     0
  0
APPID
  2
GENIUS_GENDTOL_13
 70
     0
  0
APPID
  2
GENIUS_GENODEF_13
 70
     0
  0
APPID
  2
GENIUS_GENOBJ-N-CEN_13
 70
     0
  0
APPID
  2
ACAD_NAV_VCDISPLAY
 70
     0
  0
APPID
  2
ACAECLAYERSTANDARD
 70
     0
  0
APPID
  2
ACCMTRANSPARENCY
 70
     0
  0
APPID
  2
ACAD_EXEMPT_FROM_CAD_STANDARDS
 70
     0
  0
APPID
  2
ACAD_MLEADERVER
 70
     0
  0
ENDTAB
  0
TABLE
  2
DIMSTYLE
 70
    11
  0
DIMSTYLE
  2
AM_ANSI
 70
     0
  3

  4
"
  5

  6

  7

 40
1.0
 41
2.5
 42
1.0
 43
10.0
 44
1.0
 45
0.0
 46
0.0
 47
0.1
 48
0.1
140
3.5
141
0.0
142
0.0
143
0.0393701
144
1.0
145
0.0
146
0.71
147
1.5
 71
     0
 72
     0
 73
     1
 74
     1
 75
     0
 76
     0
 77
     0
 78
     8
170
     0
171
     2
172
     0
173
     0
174
     0
175
     0
176
   256
177
   256
178
     2
  0
DIMSTYLE
  2
AM_DIN$SH
 70
     0
  3

  4
"
  5

  6
GENAXEH
  7

 40
1.0
 41
2.5
 42
1.0
 43
10.0
 44
1.0
 45
0.0
 46
0.0
 47
0.1
 48
0.1
140
3.5
141
0.0
142
0.0
143
0.0393701
144
2.0
145
0.0
146
0.71
147
1.5
 71
     0
 72
     0
 73
     0
 74
     0
 75
     1
 76
     1
 77
     1
 78
     8
170
     0
171
     2
172
     1
173
     1
174
     0
175
     0
176
   256
177
   256
178
     2
  0
DIMSTYLE
  2
AM_ISO
 70
     0
  3

  4
"
  5

  6

  7

 40
1.0
 41
2.5
 42
1.0
 43
10.0
 44
1.0
 45
0.0
 46
0.0
 47
0.1
 48
0.1
140
3.5
141
0.0
142
0.0
143
0.0393701
144
1.0
145
0.0
146
0.71
147
1.5
 71
     0
 72
     0
 73
     0
 74
     0
 75
     0
 76
     0
 77
     1
 78
     8
170
     0
171
     2
172
     1
173
     0
174
     0
175
     0
176
   256
177
   256
178
     2
  0
DIMSTYLE
  2
AM_ISO$3
 70
     0
  3

  4
"
  5

  6

  7

 40
1.0
 41
2.5
 42
1.0
 43
10.0
 44
1.0
 45
0.0
 46
0.0
 47
0.1
 48
0.1
140
3.5
141
0.0
142
0.0
143
0.0393701
144
1.0
145
0.0
146
0.71
147
1.5
 71
     0
 72
     0
 73
     0
 74
     1
 75
     0
 76
     0
 77
     1
 78
     8
170
     0
171
     2
172
     0
173
     0
174
     0
175
     0
176
   256
177
   256
178
     2
  0
DIMSTYLE
  2
AM_ISO$4
 70
     0
  3

  4
"
  5

  6

  7

 40
1.0
 41
2.5
 42
1.0
 43
10.0
 44
1.0
 45
0.0
 46
0.0
 47
0.1
 48
0.1
140
3.5
141
0.0
142
0.0
143
0.0393701
144
1.0
145
0.0
146
0.71
147
1.5
 71
     0
 72
     0
 73
     0
 74
     1
 75
     0
 76
     0
 77
     1
 78
     8
170
     0
171
     2
172
     0
173
     0
174
     0
175
     0
176
   256
177
   256
178
     2
  0
DIMSTYLE
  2
AM_ISO$6
 70
     0
  3

  4
"
  5

  6

  7

 40
1.0
 41
2.5
 42
1.0
 43
10.0
 44
1.0
 45
0.0
 46
0.0
 47
0.1
 48
0.1
140
3.5
141
0.0
142
0.0
143
0.0393701
144
1.0
145
0.0
146
0.71
147
1.5
 71
     0
 72
     0
 73
     0
 74
     0
 75
     0
 76
     0
 77
     0
 78
     8
170
     0
171
     2
172
     1
173
     0
174
     0
175
     0
176
   256
177
   256
178
     2
  0
DIMSTYLE
  2
AM_ISO$7
 70
     0
  3

  4
"
  5

  6

  7

 40
1.0
 41
2.5
 42
1.0
 43
10.0
 44
1.0
 45
0.0
 46
0.0
 47
0.1
 48
0.1
140
5.0
141
0.0
142
0.0
143
0.0393701
144
1.0
145
0.0
146
0.71
147
1.5
 71
     0
 72
     0
 73
     0
 74
     0
 75
     0
 76
     0
 77
     1
 78
     8
170
     0
171
     2
172
     1
173
     0
174
     0
175
     0
176
   256
177
   256
178
     2
  0
DIMSTYLE
  2
AM_ISO$SF
 70
     0
  3

  4
"
  5

  6

  7

 40
1.0
 41
2.5
 42
1.0
 43
10.0
 44
1.0
 45
0.0
 46
0.0
 47
0.1
 48
0.1
140
3.5
141
0.0
142
0.0
143
0.0393701
144
1.0
145
0.0
146
0.71
147
1.5
 71
     0
 72
     0
 73
     0
 74
     0
 75
     1
 76
     1
 77
     1
 78
     8
170
     0
171
     2
172
     1
173
     0
174
     0
175
     0
176
   256
177
   256
178
     2
  0
DIMSTYLE
  2
AM_ISO$SH
 70
     0
  3

  4
"
  5

  6
GENAXEH
  7

 40
1.0
 41
2.5
 42
1.0
 43
10.0
 44
1.0
 45
0.0
 46
0.0
 47
0.1
 48
0.1
140
3.5
141
0.0
142
0.0
143
0.0393701
144
2.0
145
0.0
146
0.71
147
1.5
 71
     0
 72
     0
 73
     0
 74
     0
 75
     1
 76
     1
 77
     1
 78
     8
170
     0
171
     2
172
     1
173
     1
174
     0
175
     0
176
   256
177
   256
178
     2
  0
DIMSTYLE
  2
ALEX
 70
     0
  3

  4
"
  5

  6

  7

 40
1.0
 41
2.0
 42
0.0
 43
10.0
 44
0.5
 45
0.0
 46
0.0
 47
0.1
 48
0.1
140
1.5
141
0.1
142
0.0
143
0.0393701
144
1.0
145
0.0
146
0.71
147
0.5
 71
     0
 72
     0
 73
     0
 74
     0
 75
     0
 76
     0
 77
     1
 78
     8
170
     0
171
     2
172
     1
173
     0
174
     0
175
     0
176
   151
177
   151
178
     1
  0
DIMSTYLE
  2
ALEX2
 70
     0
  3

  4
"
  5

  6

  7

 40
1.0
 41
2.0
 42
0.0
 43
10.0
 44
0.5
 45
0.0
 46
0.0
 47
0.1
 48
0.1
140
2.2000000000000002
141
0.1
142
0.0
143
0.0393701
144
0.5
145
0.0
146
0.71
147
0.5
 71
     0
 72
     0
 73
     0
 74
     0
 75
     0
 76
     0
 77
     1
 78
     8
170
     0
171
     2
172
     1
173
     0
174
     0
175
     0
176
   151
177
   151
178
     1
  0
ENDTAB
  0
ENDSEC
  0
SECTION
  2
BLOCKS
  0
BLOCK
  8
0
  2
$MODEL_SPACE
 70
     0
 10
0.0
 20
0.0
 30
0.0
  3
$MODEL_SPACE
  1

  0
ENDBLK
  5
A
  8
0
  0
BLOCK
 67
     1
  8
0
  2
$PAPER_SPACE
 70
     0
 10
0.0
 20
0.0
 30
0.0
  3
$PAPER_SPACE
  1

  0
ENDBLK
  5
F
 67
     1
  8
0
  0
BLOCK
  8
0
  2
GENAXEH
 70
     0
 10
0.0
 20
0.0
 30
0.0
  3
GENAXEH
  1

  0
LINE
  5
25
  8
0
 10
-1.0
 20
0.0
 30
0.0
 11
1.0
 21
0.0
 31
0.0
  0
ENDBLK
  5
27
  8
0
  0
ENDSEC
  0
SECTION
  2
ENTITIES
  0
POLYLINE
  5
349
  8
0
 66
     1
 10
0.0
 20
0.0
 30
-278.47806256826573
 70
     1
210
0.0
220
-1.0
230
0.0000000000000001
  0
VERTEX
  5
34A
  8
0
 10
389.93533538381058
 20
0.0000000000000171
 30
-278.47806256826573
 42
-0.4142135623730951
  0
VERTEX
  5
34B
  8
0
 10
391.4353353838107
 20
-1.499999999999982
 30
-278.47806256826573
  0
VERTEX
  5
34C
  8
0
 10
391.4353353838107
 20
-8.4999999999999822
 30
-278.47806256826573
 42
0.9999999999999998
  0
VERTEX
  5
34D
  8
0
 10
394.23533538381059
 20
-8.4999999999999822
 30
-278.47806256826573
  0
VERTEX
  5
34E
  8
0
 10
394.23533538381059
 20
-1.499999999999982
 30
-278.47806256826573
 42
-0.4142135623730951
  0
VERTEX
  5
34F
  8
0
 10
395.73533538381059
 20
0.0000000000000171
 30
-278.47806256826573
  0
VERTEX
  5
350
  8
0
 10
400.8353353838105
 20
0.0000000000000171
 30
-278.47806256826573
  0
VERTEX
  5
351
  8
0
 10
400.83533538381067
 20
-0.9999999999999829
 30
-278.47806256826573
 42
-0.4142135623730951
  0
VERTEX
  5
352
  8
0
 10
399.83533538381067
 20
-1.999999999999982
 30
-278.47806256826573
  0
VERTEX
  5
353
  8
0
 10
396.83533538381062
 20
-1.999999999999982
 30
-278.47806256826573
 42
0.4142135623730951
  0
VERTEX
  5
354
  8
0
 10
395.83533538381062
 20
-2.9999999999999831
 30
-278.47806256826573
  0
VERTEX
  5
355
  8
0
 10
395.83533538381062
 20
-8.4999999999999822
 30
-278.47806256826573
 42
-0.2679491924311114
  0
VERTEX
  5
356
  8
0
 10
394.33533538381067
 20
-11.09807621135324
 30
-278.47806256826573
 42
0.2679491924311277
  0
VERTEX
  5
357
  8
0
 10
394.08533538381067
 20
-11.53108891324551
 30
-278.47806256826573
  0
VERTEX
  5
358
  8
0
 10
394.08533538381067
 20
-16.499999999999979
 30
-278.47806256826573
 42
0.4142135623730951
  0
VERTEX
  5
359
  8
0
 10
395.58533538381079
 20
-17.999999999999979
 30
-278.47806256826573
  0
VERTEX
  5
35A
  8
0
 10
399.83533538381062
 20
-17.999999999999979
 30
-278.47806256826573
 42
-0.4142135623730951
  0
VERTEX
  5
35B
  8
0
 10
400.8353353838105
 20
-18.999999999999979
 30
-278.47806256826573
  0
VERTEX
  5
35C
  8
0
 10
400.8353353838105
 20
-35.024999999999991
 30
-278.47806256826573
 42
-0.9999999999999998
  0
VERTEX
  5
35D
  8
0
 10
398.88533538381063
 20
-35.024999999999991
 30
-278.47806256826573
  0
VERTEX
  5
35E
  8
0
 10
398.88533538381063
 20
-24.000000000000011
 30
-278.47806256826573
  0
VERTEX
  5
35F
  8
0
 10
396.33533538381062
 20
-23.000000000000011
 30
-278.47806256826573
  0
VERTEX
  5
360
  8
0
 10
396.33533538381062
 20
-21.999999999999979
 30
-278.47806256826573
  0
VERTEX
  5
361
  8
0
 10
398.88533538381063
 20
-21.999999999999979
 30
-278.47806256826573
  0
VERTEX
  5
362
  8
0
 10
398.88533538381063
 20
-19.499999999999979
 30
-278.47806256826573
  0
VERTEX
  5
363
  8
0
 10
380.7853353838106
 20
-19.499999999999979
 30
-278.47806256826573
  0
VERTEX
  5
364
  8
0
 10
380.7853353838106
 20
-21.999999999999979
 30
-278.47806256826573
  0
VERTEX
  5
365
  8
0
 10
383.3353353838105
 20
-21.999999999999979
 30
-278.47806256826573
  0
VERTEX
  5
366
  8
0
 10
383.3353353838105
 20
-23.000000000000011
 30
-278.47806256826573
  0
VERTEX
  5
367
  8
0
 10
380.7853353838106
 20
-24.000000000000011
 30
-278.47806256826573
  0
VERTEX
  5
368
  8
0
 10
380.7853353838106
 20
-33.049999999999997
 30
-278.47806256826573
 42
-0.9999999999999998
  0
VERTEX
  5
369
  8
0
 10
378.88533538381063
 20
-33.049999999999997
 30
-278.47806256826573
  0
VERTEX
  5
36A
  8
0
 10
378.88533538381068
 20
-17.999999999999979
 30
-278.47806256826573
  0
VERTEX
  5
36B
  8
0
 10
378.88533538381063
 20
-6.4999999999999263
 30
-278.47806256826573
  0
VERTEX
  5
36C
  8
0
 10
376.33533538381079
 20
-5.4999999999999831
 30
-278.47806256826573
  0
VERTEX
  5
36D
  8
0
 10
376.33533538381079
 20
-4.4999999999999831
 30
-278.47806256826573
  0
VERTEX
  5
36E
  8
0
 10
378.8853353838108
 20
-4.4999999999999831
 30
-278.47806256826573
  0
VERTEX
  5
36F
  8
0
 10
378.88533538381063
 20
-1.999999999999982
 30
-278.47806256826573
  0
VERTEX
  5
370
  8
0
 10
360.78533538381078
 20
-1.999999999999982
 30
-278.47806256826573
  0
VERTEX
  5
371
  8
0
 10
360.78533538381078
 20
-4.4999999999999831
 30
-278.47806256826573
  0
VERTEX
  5
372
  8
0
 10
363.33533538381067
 20
-4.4999999999999831
 30
-278.47806256826573
  0
VERTEX
  5
373
  8
0
 10
363.33533538381067
 20
-5.4999999999999831
 30
-278.47806256826573
  0
VERTEX
  5
374
  8
0
 10
360.78533538381078
 20
-6.4999999999999831
 30
-278.47806256826573
  0
VERTEX
  5
375
  8
0
 10
360.78533538381089
 20
-16.274999999999959
 30
-278.47806256826573
 42
-0.9999999999999998
  0
VERTEX
  5
376
  8
0
 10
359.33533538381067
 20
-16.274999999999959
 30
-278.47806256826573
  0
VERTEX
  5
377
  8
0
 10
359.33533538381062
 20
-1.999999999999982
 30
-278.47806256826573
  0
VERTEX
  5
378
  8
0
 10
358.13533538381063
 20
-0.7999999999999375
 30
-278.47806256826573
  0
VERTEX
  5
379
  8
0
 10
358.13533538381063
 20
2.000000000000016
 30
-278.47806256826573
  0
VERTEX
  5
37A
  8
0
 10
359.33533538381062
 20
2.000000000000016
 30
-278.47806256826573
  0
VERTEX
  5
37B
  8
0
 10
359.33533538381062
 20
0.0000000000000171
 30
-278.47806256826573
  0
VERTEX
  5
37C
  8
0
 10
361.83533537820398
 20
0.0000000000000171
 30
-278.47806256826573
  0
VERTEX
  5
37D
  8
0
 10
362.33533537786712
 20
-0.499999999999983
 30
-278.47806256826573
  0
VERTEX
  5
37E
  8
0
 10
377.33533537786718
 20
-0.499999999999983
 30
-278.47806256826573
  0
VERTEX
  5
37F
  8
0
 10
377.83533537820432
 20
0.0000000000000171
 30
-278.47806256826573
  0
VERTEX
  5
380
  8
0
 10
380.33533538381062
 20
0.0000000000000171
 30
-278.47806256826573
  0
VERTEX
  5
381
  8
0
 10
380.33533538381067
 20
-17.999999999999979
 30
-278.47806256826573
  0
VERTEX
  5
382
  8
0
 10
390.08533538381062
 20
-17.999999999999979
 30
-278.47806256826573
 42
0.4142135623730951
  0
VERTEX
  5
383
  8
0
 10
391.58533538381062
 20
-16.499999999999979
 30
-278.47806256826573
  0
VERTEX
  5
384
  8
0
 10
391.58533538381062
 20
-11.53108891324551
 30
-278.47806256826573
 42
0.2679491924311278
  0
VERTEX
  5
385
  8
0
 10
391.3353353838105
 20
-11.09807621135324
 30
-278.47806256826573
 42
-0.2679491924311114
  0
VERTEX
  5
386
  8
0
 10
389.83533538381062
 20
-8.4999999999999822
 30
-278.47806256826573
  0
VERTEX
  5
387
  8
0
 10
389.83533538381062
 20
-1.999999999999982
 30
-278.47806256826573
  0
VERTEX
  5
388
  8
0
 10
389.33533538381062
 20
-1.999999999999982
 30
-278.47806256826573
 42
-0.4142135623730961
  0
VERTEX
  5
389
  8
0
 10
388.33533538381062
 20
-0.9999999999999829
 30
-278.47806256826573
  0
VERTEX
  5
38A
  8
0
 10
388.33533538381067
 20
0.0000000000000171
 30
-278.47806256826573
  0
SEQEND
  5
38B
  8
0
  0
LINE
  5
46F
  8
QUOTE
 10
399.83533538381062
 20
278.47806256826573
 30
-18.0
 11
399.83533538381062
 21
-5721.5219374317339
 31
-17.999999999999659
210
0.0
220
-1.0
230
0.0000000000000001
  0
LINE
  5
483
  8
QUOTE
 10
400.8353353838105
 20
278.47806256826573
 30
-19.0
 11
400.8353353838105
 21
-5721.521937431733
 31
-19.0
  0
LINE
  5
4B5
  8
QUOTE
 10
398.88533538381063
 20
278.47806256826573
 30
-35.025000000000013
 11
398.88533538381063
 21
-5721.5219374317339
 31
-35.025000000000013
  0
LINE
  5
4B6
  8
QUOTE
 10
396.33533538381062
 20
278.47806256826573
 30
-22.0
 11
396.33533538381062
 21
-5721.5219374317339
 31
-22.0
  0
LINE
  5
4B7
  8
QUOTE
 10
396.33533538381062
 20
278.47806256826573
 30
-23.000000000000028
 11
396.33533538381062
 21
-5721.5219374317339
 31
-23.000000000000028
  0
LINE
  5
4B8
  8
QUOTE
 10
398.88533538381063
 20
278.47806256826573
 30
-22.0
 11
398.88533538381063
 21
-5721.521937431733
 31
-22.0
  0
LINE
  5
4B9
  8
QUOTE
 10
358.13533538381063
 20
278.47806256826573
 30
1.9999999999999989
 11
358.13533538381063
 21
-5721.5219374317339
 31
1.9999999999999989
  0
LINE
  5
4BA
  8
QUOTE
 10
358.13533538381063
 20
-5721.5219374317339
 30
1.9999999999999989
 11
359.33533538381062
 21
278.47806256826573
 31
1.9999999999999989
  0
LINE
  5
4BB
  8
QUOTE
 10
359.33533538381062
 20
278.47806256826573
 30
1.9999999999999989
 11
359.33533538381062
 21
-5721.521937431733
 31
1.9999999999999989
  0
LINE
  5
4BC
  8
QUOTE
 10
359.33533538381062
 20
-5721.521937431733
 30
1.9999999999999989
 11
360.78533538381078
 21
278.47806256826573
 31
-4.5
  0
LINE
  5
4BD
  8
QUOTE
 10
360.78533538381078
 20
278.47806256826573
 30
-4.5
 11
360.78533538381078
 21
-5721.5219374317339
 31
-4.5
  0
LINE
  5
4BE
  8
QUOTE
 10
360.78533538381078
 20
-5721.5219374317339
 30
-4.5
 11
363.33533538381067
 21
278.47806256826573
 31
-4.5
  0
LINE
  5
4BF
  8
QUOTE
 10
363.33533538381067
 20
278.47806256826573
 30
-4.5
 11
363.33533538381067
 21
-5721.5219374317339
 31
-4.5
  0
LINE
  5
4C0
  8
QUOTE
 10
363.33533538381067
 20
-5721.5219374317339
 30
-4.5
 11
363.33533538381067
 21
278.47806256826573
 31
-5.5
  0
LINE
  5
4C1
  8
QUOTE
 10
363.33533538381067
 20
278.47806256826573
 30
-5.5
 11
363.33533538381067
 21
-5721.5219374317339
 31
-5.5
  0
LINE
  5
4C2
  8
QUOTE
 10
359.33533538381062
 20
278.47806256826573
 30
-2.0
 11
359.33533538381062
 21
-5721.5219374317339
 31
-2.0
  0
LINE
  5
4C3
  8
QUOTE
 10
358.13533538381063
 20
278.47806256826573
 30
-0.7999999999999546
 11
358.13533538381063
 21
-5721.521937431733
 31
-0.7999999999999546
  0
LINE
  5
4C4
  8
QUOTE
 10
358.13533538381063
 20
-5721.521937431733
 30
-0.7999999999999546
 11
359.33533538381067
 21
278.47806256826573
 31
-16.27499999999997
  0
LINE
  5
4C5
  8
QUOTE
 10
359.33533538381067
 20
278.47806256826573
 30
-16.27499999999997
 11
359.33533538381067
 21
-5721.5219374317339
 31
-16.27499999999997
  0
LINE
  5
4C6
  8
QUOTE
 10
359.33533538381067
 20
-5721.5219374317339
 30
-16.27499999999997
 11
360.78533538381089
 21
278.47806256826573
 31
-16.27499999999997
  0
LINE
  5
4C7
  8
QUOTE
 10
360.78533538381089
 20
278.47806256826573
 30
-16.27499999999997
 11
360.78533538381089
 21
-5721.5219374317339
 31
-16.27499999999997
  0
LINE
  5
4C8
  8
QUOTE
 10
376.33533538381079
 20
278.47806256826573
 30
-4.5
 11
376.33533538381079
 21
-5721.5219374317339
 31
-4.5
  0
LINE
  5
4C9
  8
QUOTE
 10
376.33533538381079
 20
278.47806256826573
 30
-5.5
 11
376.33533538381079
 21
-5721.5219374317339
 31
-5.5
  0
LINE
  5
4CA
  8
QUOTE
 10
378.8853353838108
 20
278.47806256826573
 30
-4.5
 11
378.8853353838108
 21
-5721.5219374317339
 31
-4.5
  0
LINE
  5
4CB
  8
QUOTE
 10
378.88533538381063
 20
278.47806256826573
 30
-2.0
 11
378.88533538381063
 21
-5721.521937431733
 31
-2.0
  0
LINE
  5
4CC
  8
QUOTE
 10
360.78533538381078
 20
278.47806256826573
 30
-2.0
 11
360.78533538381078
 21
-5721.521937431733
 31
-2.0
  0
LINE
  5
4CD
  8
QUOTE
 10
380.33533538381062
 20
278.47806256826573
 30
0.0
 11
380.33533538381062
 21
-5721.5219374317339
 31
0.0
  0
LINE
  5
4CE
  8
QUOTE
 10
378.88533538381063
 20
278.47806256826573
 30
-6.4999999999999432
 11
378.88533538381063
 21
-5721.5219374317339
 31
-6.4999999999999432
  0
LINE
  5
4CF
  8
QUOTE
 10
359.33533538381062
 20
278.47806256826573
 30
0.0
 11
359.33533538381062
 21
-5721.5219374317339
 31
0.0
  0
LINE
  5
4D0
  8
QUOTE
 10
361.83533537820398
 20
278.47806256826573
 30
0.0
 11
361.83533537820398
 21
-5721.5219374317339
 31
0.0
  0
LINE
  5
4D1
  8
QUOTE
 10
362.33533537786712
 20
278.47806256826573
 30
-0.5
 11
362.33533537786712
 21
-5721.5219374317339
 31
-0.5
  0
POLYLINE
  5
4D3
  8
0
 66
     1
 10
0.0
 20
0.0
 30
5721.5219374317339
 70
     1
210
0.0
220
-1.0
230
0.0000000000000001
  0
VERTEX
  5
4D4
  8
0
 10
389.93533538381058
 20
-0.0000000000003503
 30
5721.5219374317339
 42
-0.4142135623730951
  0
VERTEX
  5
4D5
  8
0
 10
391.4353353838107
 20
-1.5000000000003499
 30
5721.5219374317339
  0
VERTEX
  5
4D6
  8
0
 10
391.4353353838107
 20
-8.5000000000003482
 30
5721.5219374317339
 42
0.9999999999999998
  0
VERTEX
  5
4D7
  8
0
 10
394.23533538381059
 20
-8.5000000000003482
 30
5721.5219374317339
  0
VERTEX
  5
4D8
  8
0
 10
394.23533538381059
 20
-1.5000000000003499
 30
5721.5219374317339
 42
-0.4142135623730951
  0
VERTEX
  5
4D9
  8
0
 10
395.73533538381059
 20
-0.0000000000003503
 30
5721.5219374317339
  0
VERTEX
  5
4DA
  8
0
 10
400.8353353838105
 20
-0.0000000000003503
 30
5721.5219374317339
  0
VERTEX
  5
4DB
  8
0
 10
400.83533538381067
 20
-1.0000000000003499
 30
5721.5219374317339
 42
-0.4142135623730951
  0
VERTEX
  5
4DC
  8
0
 10
399.83533538381067
 20
-2.0000000000003499
 30
5721.5219374317339
  0
VERTEX
  5
4DD
  8
0
 10
396.83533538381062
 20
-2.0000000000003499
 30
5721.5219374317339
 42
0.4142135623730951
  0
VERTEX
  5
4DE
  8
0
 10
395.83533538381062
 20
-3.0000000000003499
 30
5721.5219374317339
  0
VERTEX
  5
4DF
  8
0
 10
395.83533538381062
 20
-8.5000000000003482
 30
5721.5219374317339
 42
-0.2679491924311114
  0
VERTEX
  5
4E0
  8
0
 10
394.33533538381067
 20
-11.098076211353611
 30
5721.5219374317339
 42
0.2679491924311277
  0
VERTEX
  5
4E1
  8
0
 10
394.08533538381067
 20
-11.53108891324587
 30
5721.5219374317339
  0
VERTEX
  5
4E2
  8
0
 10
394.08533538381067
 20
-16.500000000000352
 30
5721.5219374317339
 42
0.4142135623730951
  0
VERTEX
  5
4E3
  8
0
 10
395.58533538381079
 20
-18.000000000000352
 30
5721.5219374317339
  0
VERTEX
  5
4E4
  8
0
 10
399.83533538381062
 20
-18.000000000000352
 30
5721.5219374317339
 42
-0.4142135623730951
  0
VERTEX
  5
4E5
  8
0
 10
400.8353353838105
 20
-19.000000000000352
 30
5721.5219374317339
  0
VERTEX
  5
4E6
  8
0
 10
400.8353353838105
 20
-35.025000000000347
 30
5721.5219374317339
 42
-0.9999999999999998
  0
VERTEX
  5
4E7
  8
0
 10
398.88533538381063
 20
-35.025000000000347
 30
5721.5219374317339
  0
VERTEX
  5
4E8
  8
0
 10
398.88533538381063
 20
-24.00000000000038
 30
5721.5219374317339
  0
VERTEX
  5
4E9
  8
0
 10
396.33533538381062
 20
-23.00000000000038
 30
5721.5219374317339
  0
VERTEX
  5
4EA
  8
0
 10
396.33533538381062
 20
-22.000000000000352
 30
5721.5219374317339
  0
VERTEX
  5
4EB
  8
0
 10
398.88533538381063
 20
-22.000000000000352
 30
5721.5219374317339
  0
VERTEX
  5
4EC
  8
0
 10
398.88533538381063
 20
-19.500000000000352
 30
5721.5219374317339
  0
VERTEX
  5
4ED
  8
0
 10
380.7853353838106
 20
-19.500000000000352
 30
5721.5219374317339
  0
VERTEX
  5
4EE
  8
0
 10
380.7853353838106
 20
-22.000000000000352
 30
5721.5219374317339
  0
VERTEX
  5
4EF
  8
0
 10
383.3353353838105
 20
-22.000000000000352
 30
5721.5219374317339
  0
VERTEX
  5
4F0
  8
0
 10
383.3353353838105
 20
-23.00000000000038
 30
5721.5219374317339
  0
VERTEX
  5
4F1
  8
0
 10
380.7853353838106
 20
-24.00000000000038
 30
5721.5219374317339
  0
VERTEX
  5
4F2
  8
0
 10
380.7853353838106
 20
-33.05000000000036
 30
5721.5219374317339
 42
-0.9999999999999998
  0
VERTEX
  5
4F3
  8
0
 10
378.88533538381063
 20
-33.05000000000036
 30
5721.5219374317339
  0
VERTEX
  5
4F4
  8
0
 10
378.88533538381068
 20
-18.000000000000352
 30
5721.5219374317339
  0
VERTEX
  5
4F5
  8
0
 10
378.88533538381063
 20
-6.5000000000002931
 30
5721.5219374317339
  0
VERTEX
  5
4F6
  8
0
 10
376.33533538381079
 20
-5.5000000000003491
 30
5721.5219374317339
  0
VERTEX
  5
4F7
  8
0
 10
376.33533538381079
 20
-4.5000000000003491
 30
5721.5219374317339
  0
VERTEX
  5
4F8
  8
0
 10
378.8853353838108
 20
-4.5000000000003491
 30
5721.5219374317339
  0
VERTEX
  5
4F9
  8
0
 10
378.88533538381063
 20
-2.0000000000003499
 30
5721.5219374317339
  0
VERTEX
  5
4FA
  8
0
 10
360.78533538381078
 20
-2.0000000000003499
 30
5721.5219374317339
  0
VERTEX
  5
4FB
  8
0
 10
360.78533538381078
 20
-4.5000000000003491
 30
5721.5219374317339
  0
VERTEX
  5
4FC
  8
0
 10
363.33533538381067
 20
-4.5000000000003491
 30
5721.5219374317339
  0
VERTEX
  5
4FD
  8
0
 10
363.33533538381067
 20
-5.5000000000003491
 30
5721.5219374317339
  0
VERTEX
  5
4FE
  8
0
 10
360.78533538381078
 20
-6.5000000000003491
 30
5721.5219374317339
  0
VERTEX
  5
4FF
  8
0
 10
360.78533538381089
 20
-16.275000000000329
 30
5721.5219374317339
 42
-0.9999999999999998
  0
VERTEX
  5
500
  8
0
 10
359.33533538381067
 20
-16.275000000000329
 30
5721.5219374317339
  0
VERTEX
  5
501
  8
0
 10
359.33533538381062
 20
-2.0000000000003499
 30
5721.5219374317339
  0
VERTEX
  5
502
  8
0
 10
358.13533538381063
 20
-0.8000000000003048
 30
5721.5219374317339
  0
VERTEX
  5
503
  8
0
 10
358.13533538381063
 20
1.9999999999996489
 30
5721.5219374317339
  0
VERTEX
  5
504
  8
0
 10
359.33533538381062
 20
1.9999999999996489
 30
5721.5219374317339
  0
VERTEX
  5
505
  8
0
 10
359.33533538381062
 20
-0.0000000000003503
 30
5721.5219374317339
  0
VERTEX
  5
506
  8
0
 10
361.83533537820398
 20
-0.0000000000003503
 30
5721.5219374317339
  0
VERTEX
  5
507
  8
0
 10
362.33533537786712
 20
-0.5000000000003504
 30
5721.5219374317339
  0
VERTEX
  5
508
  8
0
 10
377.33533537786718
 20
-0.5000000000003504
 30
5721.5219374317339
  0
VERTEX
  5
509
  8
0
 10
377.83533537820432
 20
-0.0000000000003503
 30
5721.5219374317339
  0
VERTEX
  5
50A
  8
0
 10
380.33533538381062
 20
-0.0000000000003503
 30
5721.5219374317339
  0
VERTEX
  5
50B
  8
0
 10
380.33533538381067
 20
-18.000000000000352
 30
5721.5219374317339
  0
VERTEX
  5
50C
  8
0
 10
390.08533538381062
 20
-18.000000000000352
 30
5721.5219374317339
 42
0.4142135623730951
  0
VERTEX
  5
50D
  8
0
 10
391.58533538381062
 20
-16.500000000000352
 30
5721.5219374317339
  0
VERTEX
  5
50E
  8
0
 10
391.58533538381062
 20
-11.53108891324587
 30
5721.5219374317339
 42
0.2679491924311278
  0
VERTEX
  5
50F
  8
0
 10
391.3353353838105
 20
-11.098076211353611
 30
5721.5219374317339
 42
-0.2679491924311114
  0
VERTEX
  5
510
  8
0
 10
389.83533538381062
 20
-8.5000000000003482
 30
5721.5219374317339
  0
VERTEX
  5
511
  8
0
 10
389.83533538381062
 20
-2.0000000000003499
 30
5721.5219374317339
  0
VERTEX
  5
512
  8
0
 10
389.33533538381062
 20
-2.0000000000003499
 30
5721.5219374317339
 42
-0.4142135623730961
  0
VERTEX
  5
513
  8
0
 10
388.33533538381062
 20
-1.0000000000003499
 30
5721.5219374317339
  0
VERTEX
  5
514
  8
0
 10
388.33533538381067
 20
-0.0000000000003503
 30
5721.5219374317339
  0
SEQEND
  5
515
  8
0
  0
LINE
  5
535
  8
QUOTE
 10
398.88533538381063
 20
-5721.5219374317339
 30
-19.5
 11
398.88533538381063
 21
278.47806256826613
 31
-19.5
  0
LINE
  5
536
  8
QUOTE
 10
400.8353353838105
 20
-5721.5219374317339
 30
0.0
 11
400.8353353838105
 21
278.47806256826698
 31
0.0
  0
LINE
  5
537
  8
QUOTE
 10
400.8353353838105
 20
278.47806256826698
 30
0.0
 11
399.83533538381067
 21
-5721.5219374317339
 31
-2.0
  0
LINE
  5
538
  8
QUOTE
 10
395.73533538381059
 20
278.47806256826573
 30
0.0
 11
395.73533538381059
 21
-5721.521937431733
 31
0.0
  0
LINE
  5
539
  8
QUOTE
 10
391.4353353838107
 20
278.47806256826573
 30
-1.5
 11
391.4353353838107
 21
-5721.5219374317339
 31
-1.5
  0
LINE
  5
53A
  8
QUOTE
 10
388.33533538381067
 20
278.47806256826573
 30
0.0
 11
388.33533538381067
 21
-5721.5219374317339
 31
0.0
  0
LINE
  5
53B
  8
QUOTE
 10
388.33533538381062
 20
278.47806256826573
 30
-1.0
 11
388.33533538381062
 21
-5721.5219374317339
 31
-1.0
  0
LINE
  5
53C
  8
QUOTE
 10
388.33533538381062
 20
-5721.5219374317339
 30
-1.0
 11
389.83533538381062
 21
278.47806256826573
 31
-2.0
  0
LINE
  5
53D
  8
QUOTE
 10
389.83533538381062
 20
278.47806256826573
 30
-2.0
 11
389.83533538381062
 21
-5721.5219374317339
 31
-2.0
  0
LINE
  5
53E
  8
QUOTE
 10
394.23533538381059
 20
278.47806256826573
 30
-1.5
 11
394.23533538381059
 21
-5721.5219374317339
 31
-1.5
  0
LINE
  5
53F
  8
QUOTE
 10
395.83533538381062
 20
-5721.5219374317339
 30
-8.5
 11
395.83533538381062
 21
278.47806256826698
 31
-8.5
  0
LINE
  5
540
  8
QUOTE
 10
394.08533538381067
 20
-5721.5219374317339
 30
-11.53108891324549
 11
394.08533538381067
 21
278.47806256826613
 31
-11.53108891324549
  0
LINE
  5
541
  8
QUOTE
 10
394.33533538381067
 20
-5721.5219374317339
 30
-11.09807621135325
 11
394.33533538381067
 21
278.47806256826613
 31
-11.09807621135325
  0
LINE
  5
542
  8
QUOTE
 10
390.08533538381062
 20
-5721.5219374317339
 30
-18.0
 11
390.08533538381062
 21
278.47806256826698
 31
-18.0
  0
LINE
  5
543
  8
QUOTE
 10
390.08533538381062
 20
278.47806256826698
 30
-18.0
 11
377.33533537786718
 21
-5721.5219374317339
 31
-0.5
  0
LINE
  5
544
  8
QUOTE
 10
377.33533537786718
 20
-5721.5219374317339
 30
-0.5
 11
377.33533537786718
 21
278.47806256826698
 31
-0.5
  0
LINE
  5
545
  8
QUOTE
 10
400.83533538381067
 20
-5721.5219374317339
 30
-0.9999999999998863
 11
400.83533538381067
 21
278.4780625682651
 31
-0.9999999999998863
  0
LINE
  5
546
  8
QUOTE
 10
400.83533538381062
 20
-5721.5219374317339
 30
-0.5
 11
400.83533538381062
 21
278.47806256826613
 31
-0.5
  0
LINE
  5
547
  8
QUOTE
 10
400.54244216499728
 20
-5721.5219374317339
 30
-1.707106781186547
 11
400.54244216499728
 21
278.47806256826613
 31
-1.707106781186547
  0
LINE
  5
548
  8
QUOTE
 10
398.33533538381067
 20
-5721.5219374317339
 30
-2.0
 11
398.33533538381067
 21
278.47806256826698
 31
-2.0
  0
LINE
  5
549
  8
QUOTE
 10
398.33533538381067
 20
278.47806256826698
 30
-2.0
 11
396.83533538381062
 21
-5721.5219374317339
 31
-2.0
  0
LINE
  5
54A
  8
QUOTE
 10
396.83533538381062
 20
-5721.5219374317339
 30
-2.0
 11
396.83533538381062
 21
278.47806256826698
 31
-2.0
  0
LINE
  5
54B
  8
QUOTE
 10
396.83533538381062
 20
278.47806256826698
 30
-2.0
 11
396.12822860262412
 21
-5721.5219374317339
 31
-2.2928932188134521
  0
LINE
  5
54C
  8
QUOTE
 10
396.12822860262412
 20
-5721.5219374317339
 30
-2.2928932188134521
 11
396.12822860262412
 21
278.47806256826613
 31
-2.2928932188134521
  0
LINE
  5
54D
  8
QUOTE
 10
396.12822860262412
 20
278.47806256826613
 30
-2.2928932188134521
 11
395.83533538381062
 21
-5721.5219374317339
 31
-3.0
  0
LINE
  5
54E
  8
QUOTE
 10
395.83533538381062
 20
-5721.5219374317339
 30
-3.0
 11
395.83533538381062
 21
278.47806256826613
 31
-3.0
  0
LINE
  5
54F
  8
QUOTE
 10
400.8353353838105
 20
-5721.5219374317339
 30
-27.012499999999999
 11
400.8353353838105
 21
278.47806256826698
 31
-27.012499999999999
  0
LINE
  5
550
  8
QUOTE
 10
400.8353353838105
 20
278.47806256826698
 30
-27.012499999999999
 11
399.86033538381059
 21
-5721.5219374317339
 31
-36.000000000000028
  0
LINE
  5
551
  8
QUOTE
 10
399.86033538381059
 20
-5721.5219374317339
 30
-36.000000000000028
 11
399.86033538381059
 21
278.47806256826613
 31
-36.000000000000028
  0
LINE
  5
552
  8
QUOTE
 10
398.2853353838106
 20
-5721.5219374317339
 30
0.0
 11
398.2853353838106
 21
278.47806256826698
 31
0.0
  0
LINE
  5
553
  8
QUOTE
 10
398.2853353838106
 20
278.47806256826698
 30
0.0
 11
389.93533538381058
 21
-5721.5219374317339
 31
0.0
  0
LINE
  5
554
  8
QUOTE
 10
389.93533538381058
 20
-5721.5219374317339
 30
0.0
 11
389.93533538381058
 21
278.47806256826613
 31
0.0
  0
LINE
  5
555
  8
QUOTE
 10
389.93533538381058
 20
278.47806256826613
 30
0.0
 11
390.99599555559053
 21
-5721.5219374317339
 31
-0.4393398282201788
  0
LINE
  5
556
  8
LAYER1
 10
390.99679131087009
 20
-5721.5220924804817
 30
-0.4412608965904401
 11
390.99599555559053
 21
278.47806256826613
 31
-0.4393398282201788
  0
LINE
  5
557
  8
LAYER1
 10
390.99599555559053
 20
278.47806256826613
 30
-0.4393398282201788
 11
388.62822860262412
 21
-5721.5219374317339
 31
-1.7071067811865479
  0
LINE
  5
558
  8
QUOTE
 10
388.62822860262412
 20
-5721.5219374317339
 30
-1.7071067811865479
 11
388.62822860262412
 21
278.47806256826613
 31
-1.7071067811865479
  0
LINE
  5
559
  8
QUOTE
 10
388.62822860262412
 20
278.47806256826613
 30
-1.7071067811865479
 11
389.83533538381062
 21
-5721.5219374317339
 31
-5.25
  0
LINE
  5
55A
  8
QUOTE
 10
389.83533538381062
 20
-5721.5219374317339
 30
-5.25
 11
389.83533538381062
 21
278.47806256826613
 31
-5.25
  0
LINE
  5
55B
  8
QUOTE
 10
389.83533538381062
 20
278.47806256826613
 30
-5.25
 11
394.5246752120309
 21
-5721.5219374317339
 31
-17.560660171779819
  0
LINE
  5
55C
  8
QUOTE
 10
394.5246752120309
 20
-5721.5219374317339
 30
-17.560660171779819
 11
394.5246752120309
 21
278.47806256826613
 31
-17.560660171779819
  0
LINE
  5
55D
  8
QUOTE
 10
394.5246752120309
 20
278.47806256826613
 30
-17.560660171779819
 11
394.08533538381067
 21
-5721.5219374317339
 31
-16.500000000000441
  0
LINE
  5
55E
  8
QUOTE
 10
394.08533538381067
 20
-5721.5219374317339
 30
-16.500000000000441
 11
394.08533538381067
 21
278.47806256826613
 31
-16.500000000000441
  0
LINE
  5
55F
  8
QUOTE
 10
394.08533538381067
 20
278.47806256826613
 30
-16.500000000000441
 11
395.58533538381079
 21
-5721.5219374317339
 31
-18.0
  0
LINE
  5
560
  8
QUOTE
 10
395.58533538381079
 20
-5721.5219374317339
 30
-18.0
 11
395.58533538381079
 21
278.47806256826613
 31
-18.0
  0
LINE
  5
561
  8
QUOTE
 10
395.58533538381079
 20
278.47806256826613
 30
-18.0
 11
397.71033538381067
 21
-5721.5219374317339
 31
-18.0
  0
LINE
  5
562
  8
QUOTE
 10
397.71033538381067
 20
-5721.5219374317339
 30
-18.0
 11
397.71033538381067
 21
278.47806256826613
 31
-18.0
  0
LINE
  5
563
  8
QUOTE
 10
397.71033538381067
 20
278.47806256826613
 30
-18.0
 11
398.88533538381063
 21
-5721.5219374317339
 31
-24.000000000000028
  0
LINE
  5
564
  8
QUOTE
 10
398.88533538381063
 20
-5721.5219374317339
 30
-24.000000000000028
 11
398.88533538381063
 21
278.47806256826613
 31
-24.000000000000028
  0
LINE
  5
565
  8
QUOTE
 10
398.88533538381063
 20
278.47806256826613
 30
-24.000000000000028
 11
400.8353353838105
 21
-5721.5219374317339
 31
-24.000000000000028
  0
LINE
  5
566
  8
QUOTE
 10
400.8353353838105
 20
-5721.5219374317339
 30
-24.000000000000028
 11
400.8353353838105
 21
278.4780625682651
 31
-24.000000000000028
  0
LINE
  5
58B
  8
QUOTE
 10
380.7853353838106
 20
-5721.5219374317339
 30
-33.050000000000011
 11
380.7853353838106
 21
278.47806256826613
 31
-33.050000000000011
  0
LINE
  5
58C
  8
QUOTE
 10
380.7853353838106
 20
278.47806256826613
 30
-33.050000000000011
 11
378.88533538381063
 21
-5721.5219374317339
 31
-25.525000000000009
  0
LINE
  5
591
  8
QUOTE
 10
380.78533538381049
 20
-5721.5219374317339
 30
-25.526247337137029
 11
380.78533538381049
 21
278.47806256826613
 31
-25.526247337137029
  0
LINE
  5
592
  8
QUOTE
 10
380.78533538381049
 20
278.47806256826613
 30
-25.526247337137029
 11
380.7853353838106
 21
-5721.5219374317339
 31
-24.000000000000028
  0
LINE
  5
593
  8
QUOTE
 10
380.7853353838106
 20
-5721.5219374317339
 30
-24.000000000000028
 11
380.7853353838106
 21
278.47806256826613
 31
-24.000000000000028
  0
LINE
  5
594
  8
QUOTE
 10
380.7853353838106
 20
278.47806256826613
 30
-24.000000000000028
 11
382.06033538381052
 21
-5721.5219374317339
 31
-23.500000000000028
  0
LINE
  5
595
  8
QUOTE
 10
382.06033538381052
 20
-5721.5219374317339
 30
-23.500000000000028
 11
382.06033538381052
 21
278.4780625682651
 31
-23.500000000000028
  0
LINE
  5
596
  8
QUOTE
 10
382.06033538381052
 20
278.4780625682651
 30
-23.500000000000028
 11
383.3353353838105
 21
-5721.5219374317339
 31
-23.000000000000028
  0
LINE
  5
597
  8
QUOTE
 10
383.3353353838105
 20
-5721.5219374317339
 30
-23.000000000000028
 11
383.3353353838105
 21
278.47806256826613
 31
-23.000000000000028
  0
LINE
  5
598
  8
QUOTE
 10
383.3353353838105
 20
278.47806256826613
 30
-23.000000000000028
 11
383.3353353838105
 21
-5721.5219374317348
 31
-22.0
  0
LINE
  5
599
  8
QUOTE
 10
383.3353353838105
 20
-5721.5219374317348
 30
-22.0
 11
383.3353353838105
 21
278.47806256826431
 31
-22.0
  0
LINE
  5
59A
  8
QUOTE
 10
383.3353353838105
 20
278.47806256826431
 30
-22.0
 11
380.7853353838106
 21
-5721.5219374317339
 31
-22.0
  0
LINE
  5
59B
  8
QUOTE
 10
380.7853353838106
 20
-5721.5219374317339
 30
-22.0
 11
380.7853353838106
 21
278.47806256826613
 31
-22.0
  0
LINE
  5
59C
  8
QUOTE
 10
380.7853353838106
 20
278.47806256826613
 30
-22.0
 11
380.7853353838106
 21
-5721.5219374317348
 31
-19.5
  0
LINE
  5
59D
  8
QUOTE
 10
380.7853353838106
 20
-5721.5219374317348
 30
-19.5
 11
380.7853353838106
 21
278.47806256826431
 31
-19.5
  0
LINE
  5
59E
  8
QUOTE
 10
380.7853353838106
 20
278.47806256826431
 30
-19.5
 11
389.83533538381062
 21
-5721.5219374317339
 31
-19.5
  0
LINE
  5
59F
  8
QUOTE
 10
389.83533538381062
 20
-5721.5219374317339
 30
-19.5
 11
389.83533538381062
 21
278.47806256826613
 31
-19.5
  0
LINE
  5
5A0
  8
QUOTE
 10
389.83533538381062
 20
278.47806256826613
 30
-19.5
 11
385.21033538381067
 21
-5721.5219374317339
 31
-18.0
  0
LINE
  5
5A1
  8
QUOTE
 10
385.21033538381067
 20
-5721.5219374317339
 30
-18.0
 11
385.79440178146092
 21
271.7126443085545
 31
-19.49999538638582
  0
LINE
  5
5A3
  8
QUOTE
 10
378.88533538381063
 20
278.47806256826573
 30
-25.525000000000009
 11
378.88533538381063
 21
-5721.5219374317339
 31
-25.525000000000009
  0
LINE
  5
5A4
  8
QUOTE
 10
378.88533538381068
 20
278.47806256826573
 30
-18.0
 11
378.88533538381068
 21
-5721.5219374317339
 31
-18.0
  0
LINE
  5
5A5
  8
QUOTE
 10
359.33533538381067
 20
278.47806256831359
 30
-2.0
 11
359.33533538381062
 21
-5721.5219374317339
 31
-2.0
  0
LINE
  5
5A6
  8
QUOTE
 10
360.78533538381089
 20
278.47806256826573
 30
-11.38749999999999
 11
360.78533538381089
 21
-5721.5219374317339
 31
-11.38749999999999
  0
LINE
  5
5B9
  8
QUOTE
 10
392.83533538381062
 20
-5721.5219374317339
 30
-9.8999999999999773
 11
392.83533538381062
 21
278.47806256826613
 31
-9.8999999999999773
  0
LINE
  5
5BA
  8
QUOTE
 10
394.23533538381059
 20
-5721.5219374317339
 30
-5.0
 11
394.23533538381059
 21
278.4780625682651
 31
-5.0
  0
LINE
  5
5BB
  8
QUOTE
 10
394.23533538381059
 20
278.4780625682651
 30
-5.0
 11
394.23533538381059
 21
-5721.5219374317339
 31
-8.5
  0
LINE
  5
5BD
  8
QUOTE
 10
391.4353353838107
 20
-5721.5219374317339
 30
-8.4999999999986322
 11
391.4353353838107
 21
278.47806256826613
 31
-8.4999999999986322
  0
LINE
  5
5BE
  8
QUOTE
 10
390.2372591724573
 20
-5721.5219374317339
 30
-9.9999999999999485
 11
390.2372591724573
 21
278.47806256826613
 31
-9.9999999999999485
  0
LINE
  5
5CF
  8
QUOTE
 10
391.58533538381062
 20
-5721.5219374317339
 30
-16.5
 11
391.58533538381062
 21
278.47806256826613
 31
-16.5
  0
LINE
  5
5D0
  8
QUOTE
 10
391.14599555559039
 20
-5721.5219374317339
 30
-17.560660171779819
 11
391.14599555559039
 21
278.47806256826613
 31
-17.560660171779819
  0
LINE
  5
5D1
  8
QUOTE
 10
379.08533538100738
 20
-5721.5219374317339
 30
0.0
 11
379.08533538100738
 21
278.4780625682651
 31
0.0
  0
LINE
  5
5D2
  8
QUOTE
 10
369.83533537786712
 20
-5721.5219374317339
 30
-0.5
 11
369.83533537786712
 21
278.4780625682651
 31
-0.5
  0
LINE
  5
604
  8
QUOTE
 10
398.88533538381063
 20
278.47806256826573
 30
-29.512500000000021
 11
398.88533538381063
 21
-5721.5219374317339
 31
-29.512500000000021
  0
LINE
  5
605
  8
QUOTE
 10
380.7853353838106
 20
278.47806256826573
 30
-28.52500000000002
 11
380.7853353838106
 21
-5721.5219374317339
 31
-28.52500000000002
  0
LINE
  5
61A
  8
QUOTE
 10
398.88533538381063
 20
278.47806256826573
 30
-22.0
 11
398.88533538381063
 21
278.47806256826613
 31
-24.000000000000028
  0
LINE
  5
61B
  8
QUOTE
 10
396.33533538381062
 20
270.25976232625538
 30
-23.000000000000028
 11
396.33533538381062
 21
272.7551590589996
 31
-23.000000000000028
  0
LINE
  5
61C
  8
QUOTE
 10
380.7853353838106
 20
278.47806256826573
 30
-24.000000000000028
 11
380.7853353838106
 21
278.47889590145439
 31
-22.000000347222159
  0
LINE
  5
61E
  8
QUOTE
 10
378.8853353838108
 20
278.47806256826573
 30
-4.5
 11
378.88533538381063
 21
278.47806256826573
 31
-6.4999999999999432
  0
LINE
  5
61F
  8
QUOTE
 10
360.78533538381078
 20
278.47806256826573
 30
-4.5
 11
360.78533538381078
 21
278.47806256826573
 31
-6.5
  0
LINE
  5
620
  8
QUOTE
 10
359.33533538381062
 20
278.47806256826573
 30
0.0
 11
359.33533538381062
 21
278.47806256826573
 31
-2.0
  0
LINE
  5
621
  8
QUOTE
 10
360.06033538381081
 20
278.47806256827522
 30
-17.00000000000006
 11
360.06033538381092
 21
278.47806256826573
 31
0.0
  0
LINE
  5
623
  8
QUOTE
 10
362.33533537786712
 20
278.47806256826573
 30
-0.5
 11
362.33533537786712
 21
278.47806256826573
 31
-2.0
  0
LINE
  5
624
  8
QUOTE
 10
377.33533537786718
 20
278.47806256826573
 30
-0.5
 11
377.33533537786718
 21
278.47806256826573
 31
-2.0
  0
LINE
  5
626
  8
QUOTE
 10
395.83533538381062
 20
278.47806256826573
 30
-5.75
 11
395.83533538381062
 21
-5721.5219374317339
 31
-5.75
  0
3DFACE
  5
69E
  8
LAYER1
 10
400.8353334334808
 20
278.46606053822262
 30
-27.01251797804084
 11
400.8353353838105
 21
278.47806256826613
 31
-24.000000000000028
 12
400.8353353838105
 22
-5721.5219374317339
 32
-24.000000000000028
 13
400.8353353838105
 23
-5721.5219374407607
 33
-27.012499999999999
  0
3DFACE
  5
6AF
  8
LAYER1
 10
400.8353353838105
 20
278.47806256826573
 30
-24.000000000085642
 11
400.8353353838105
 21
278.47806256826573
 31
-19.0
 12
400.8353353838105
 22
-5721.5219374317339
 32
-21.26596093016196
 13
400.8353353838105
 23
-5721.5219374317339
 33
-24.000000000000028
  0
3DFACE
  5
6B0
  8
LAYER1
 10
400.8353353838105
 20
-5721.5229699692072
 30
-21.265961320110218
 11
400.8353353838105
 21
-5721.521937431733
 31
-19.0
 12
400.8353353838105
 22
278.47806256826573
 32
-19.00000000000157
 13
400.8353353838105
 23
278.47806256826573
 33
-24.000000000085642
  0
3DFACE
  5
6B1
  8
LAYER1
 10
400.8353353838105
 20
-5721.5219374317339
 30
-19.000000001995929
 11
400.54244216499711
 21
-5721.5219374317339
 31
-18.29289321881345
 12
400.54244216499711
 22
278.47806256826573
 32
-18.29289321881345
 13
400.8353353838105
 23
278.47806256409871
 33
-19.00000000000157
  0
3DFACE
  5
6B2
  8
LAYER1
 10
400.54244216499819
 20
-5721.5219374317339
 30
-18.292893218816118
 11
399.83533538381357
 21
-5721.5219374317339
 31
-18.0
 12
399.83533538381062
 22
278.47806256826573
 32
-18.0
 13
400.54244216499711
 23
278.47806256826613
 33
-18.29289321881345
  0
3DFACE
  5
6B3
  8
LAYER1
 10
399.83533538381062
 20
-5721.5219374317339
 30
-17.999999999998771
 11
397.71033565035799
 21
-5721.5226900358057
 31
-18.0
 12
397.71033565035799
 22
278.47806256826573
 32
-18.0
 13
399.83533538381062
 23
278.4780625682651
 33
-18.0
  0
3DFACE
  5
6B4
  8
LAYER1
 10
397.71033538381067
 20
-5721.5219374317339
 30
-18.0
 11
395.58533538381079
 21
-5721.521937431733
 31
-18.0
 12
395.58533538381079
 22
278.47806256826789
 32
-18.0
 13
397.71033530231551
 23
278.47847871366912
 33
-17.999999583854599
  0
3DFACE
  5
6C6
  8
LAYER1
 10
395.5853352900607
 20
-5721.5215624317771
 30
-17.99999990625005
 11
394.52467521203101
 21
-5721.5215624317771
 31
-17.560660171779901
 12
394.5246752120309
 22
278.47806256826613
 32
-17.560660171779819
 13
395.58533525076808
 23
278.47843821869651
 33
-18.000000000000082
  0
3DFACE
  5
6C7
  8
LAYER1
 10
394.5246752120309
 20
-5721.5219374317339
 30
-17.560660171779819
 11
394.08533539989571
 21
-5721.5217177618269
 31
-16.500000038833029
 12
394.08533538381067
 22
278.47806256826573
 32
-16.500000038833029
 13
394.52467519594609
 23
278.47784289836648
 33
-17.56066013294733
  0
3DFACE
  5
6C8
  8
LAYER1
 10
394.08533539609152
 20
-5721.5217177618269
 30
-16.500000040206739
 11
394.08533538381079
 21
-5721.5217180671189
 31
-11.531088913245499
 12
394.08533538381067
 22
278.47806256826431
 32
-11.53108891324549
 13
394.08533507325382
 23
278.47930479588069
 33
-16.499999689443541
  0
3DFACE
  5
6C9
  8
LAYER1
 10
394.08533538381079
 20
-5721.5217180671189
 30
-11.53108891324549
 11
394.15232268191852
 21
-5721.5219374317339
 31
-11.281088913245499
 12
394.15232268191852
 22
278.47806256826573
 32
-11.281088913245499
 13
394.08533538381067
 23
278.47806256826613
 33
-11.53108891324549
  0
3DFACE
  5
6CA
  8
LAYER1
 10
394.15232268191852
 20
278.47806256826431
 30
-11.281088913245499
 11
394.33533538381067
 21
278.47806256826698
 31
-11.09807621135325
 12
394.33533538381067
 22
-5721.5219374317339
 32
-11.098076211353259
 13
394.15232268191852
 23
-5721.5219374317339
 33
-11.281088913245499
  0
LINE
  5
6DC
  8
QUOTE
 10
400.8353353838105
 20
278.47806256821332
 30
-35.024999999999523
 11
398.88533538381063
 21
278.47806256826573
 31
-35.025000000000013
  0
LINE
  5
6DD
  8
QUOTE
 10
399.86033538381059
 20
278.47806256823952
 30
-35.024999999999757
 11
399.86033538381059
 21
278.47806256826789
 31
-36.000000000000028
  0
LINE
  5
6DF
  8
QUOTE
 10
399.93681029279833
 20
278.48261167555438
 30
-36.000000000000028
 11
400.32370948661412
 21
278.47806256822707
 31
-35.02499999999965
  0
LINE
  5
6E1
  8
QUOTE
 10
399.42141049314159
 20
278.49670734018258
 30
-36.000000000000028
 11
399.80830968695739
 21
278.49215823285539
 31
-35.02499999999965
  0
LINE
  5
6E2
  8
QUOTE
 10
399.03255898631318
 20
278.4866359941048
 30
-36.000000000000028
 11
399.41945818012903
 21
278.48208688677738
 31
-35.02499999999965
  0
LINE
  5
6E3
  8
QUOTE
 10
398.72308894815069
 20
278.48014636309063
 30
-36.000000000000028
 11
399.10998814196648
 21
278.47559725576332
 31
-35.02499999999965
  0
3DFACE
  5
6E4
  8
QUOTE
 10
398.88533538380602
 20
278.47806256826573
 30
-35.025000000000013
 11
400.83533538381027
 21
278.47806256755467
 31
-35.024999525348761
 12
400.8353353838105
 22
278.47806256754927
 32
-19.00000000000157
 13
398.88533538381068
 23
278.47806256754922
 33
-19.499999999999972
  0
3DFACE
  5
6E5
  8
LAYER1
 10
400.8353353838105
 20
278.47806256754927
 30
-19.00000000000157
 11
398.88533538381068
 21
278.47806256754922
 31
-19.499999999999972
 12
398.88532393646437
 22
278.47806256826573
 32
-35.025000000002791
 13
400.83533596809929
 23
278.47806256755467
 33
-35.024999525348612
  0
3DFACE
  5
6E6
  8
LAYER1
 10
400.83533537069309
 20
278.47806256409871
 30
-18.999999968333132
 11
400.30458002522278
 21
278.47806256754927
 31
-19.13609111758775
 12
399.86033538381059
 22
278.47806256754927
 32
-19.250000000000771
 13
400.83533537069309
 23
278.47806256409871
 33
-18.999999968333132
  0
3DFACE
  5
6E8
  8
LAYER1
 10
400.83533537069309
 20
278.47806256826573
 30
-18.999999958631591
 11
400.54244216499711
 21
278.47806256826573
 31
-18.29289321881345
 12
399.86031335979141
 22
278.47806256754927
 32
-19.250005647185979
 13
400.83533537069309
 23
278.47806256826573
 33
-18.999999958631591
  0
3DFACE
  5
6E9
  8
LAYER1
 10
400.54244216500388
 20
278.4780625682647
 30
-18.29289321882991
 11
399.83533538381062
 21
278.47806256826573
 31
-18.0
 12
399.86033538381059
 22
278.47806256754927
 32
-19.250000000000771
 13
400.542442164997
 23
278.47806256754927
 33
-18.29289321881339
  0
3DFACE
  5
6F3
  8
LAYER1
 10
398.88533538347832
 20
278.47806256754922
 30
-19.500450660568859
 11
399.83533538381062
 21
278.4780625682742
 31
-18.0
 12
399.86033489249257
 22
278.47806256754927
 32
-19.24997543410047
 13
399.83533538381062
 23
278.4780625682742
 33
-18.0
  0
3DFACE
  5
6F4
  8
LAYER1
 10
398.88533538381063
 20
278.47806256754922
 30
-19.499999999999979
 11
399.83533538381079
 21
278.4780625682742
 31
-18.000000000010122
 12
395.5853353592895
 22
278.47843821873488
 32
-18.000000044951118
 13
394.75062384817062
 23
278.47806256826573
 33
-19.5
  0
3DFACE
  5
6F5
  8
LAYER1
 10
394.75062384817062
 20
278.47806256826573
 30
-19.5
 11
395.58421028244442
 21
278.4784378202703
 31
-17.99953402280471
 12
395.05500523139949
 22
278.47825039348129
 32
-17.78033008588995
 13
394.04398801763767
 23
278.47806256826573
 33
-19.5
  0
3DFACE
  5
6F8
  8
LAYER1
 10
394.52475978188721
 20
278.47784285607349
 30
-17.560864341466079
 11
395.05500523139949
 21
278.47825039348129
 31
-17.78033008588995
 12
394.04398801763767
 22
278.47806256826573
 32
-19.5
 13
393.45693590890693
 23
278.47806256826573
 33
-19.5
  0
3DFACE
  5
6F9
  8
LAYER1
 10
394.52449360356189
 20
278.47784291084162
 30
-17.5613477132048
 11
394.08533538381067
 21
278.47806256826573
 31
-16.5
 12
392.34905049661
 22
278.47806256826573
 32
-19.5
 13
393.45693590890693
 23
278.47806256826573
 33
-19.5
  0
3DFACE
  5
70A
  8
LAYER1
 10
394.08526035153892
 20
278.47806260579517
 30
-16.499818663692128
 11
391.58533538381067
 21
278.47806260579517
 31
-16.5
 12
391.58533538381062
 22
278.47806256826573
 32
-11.531088913246929
 13
394.08518188573498
 23
278.4782819194138
 33
-11.53078181305141
  0
LINE
  5
71B
  8
QUOTE
 10
395.43341159516399
 20
278.47806256826573
 30
-9.9999999999999485
 11
395.43341159516399
 21
-5721.5219374317339
 31
-9.9999999999999485
  0
3DFACE
  5
71D
  8
LAYER1
 10
380.7853353838106
 20
278.47806256826573
 30
-19.5
 11
380.7853353838106
 21
278.47806256826561
 31
-18.0
 12
390.08529733262009
 22
278.47805926796451
 32
-18.0002284563305
 13
389.8353200098727
 23
278.45811800026132
 33
-19.499995013857969
  0
3DFACE
  5
71E
  8
LAYER1
 10
378.88533538381063
 20
278.47806256826573
 30
-6.4999999999999432
 11
378.88533538381063
 21
278.47806256826573
 31
-4.5
 12
376.33533538381079
 22
278.47806256826573
 32
-4.5
 13
376.33533538381079
 23
278.47806256826573
 33
-5.5
  0
3DFACE
  5
72F
  8
LAYER1
 10
378.88533538381063
 20
-5721.5219374317339
 30
-6.4999999999999432
 11
378.88533538381063
 21
-5721.5219374317339
 31
-4.5
 12
376.33533538381079
 22
-5721.5219374317339
 32
-4.5
 13
376.33533538381079
 23
-5721.5219374317339
 33
-5.5
  0
3DFACE
  5
730
  8
LAYER1
 10
360.78533538381078
 20
-5721.5219374317339
 30
-6.5
 11
360.78533538381078
 21
-5721.5219374317339
 31
-4.5
 12
363.33533538381067
 22
-5721.5219374317339
 32
-4.5
 13
363.33533538381067
 23
-5721.5219374317339
 33
-5.5
  0
3DFACE
  5
732
  8
LAYER1
 10
369.83533538381067
 20
-5721.5219374317339
 30
-2.0
 11
369.83533538381067
 21
-5721.5219374317339
 31
-0.5
 12
362.33533537786712
 22
-5721.5219374317339
 32
-0.5000000000000533
 13
362.25829444170893
 23
-5721.5219374317321
 33
-1.984250927767405
  0
3DFACE
  5
733
  8
LAYER1
 10
377.23538855048031
 20
-5721.5219374317339
 30
-2.0
 11
377.33636760791472
 21
-5721.5219374317348
 31
-0.5000000000000285
 12
369.83533538381067
 22
-5721.5219374317339
 32
-0.5
 13
369.83533538381067
 23
-5721.5219374317339
 33
-2.0
  0
3DFACE
  5
735
  8
LAYER1
 10
361.83533537820398
 20
-5721.5219374317339
 30
0.0
 11
362.33533537786712
 21
-5721.5219374317339
 31
-0.4999999999999858
 12
362.25747697665253
 22
-5721.5219374317339
 32
-2.0
 13
361.78275205932209
 23
-5721.5219374317339
 33
-2.0
  0
3DFACE
  5
736
  8
LAYER1
 10
361.78275205932209
 20
-5721.5219374317339
 30
-2.0
 11
361.83533537820398
 21
-5721.5219374317339
 31
0.0
 12
360.58533538100733
 22
-5721.5219374317339
 32
0.0
 13
360.78533538381078
 23
-5721.521937431733
 33
-2.0
  0
3DFACE
  5
747
  8
LAYER1
 10
359.33533538381062
 20
-5721.5219374317339
 30
0.0
 11
359.33533538381062
 21
-5721.521937431733
 31
1.9999999999999989
 12
358.13533538381063
 22
-5721.5219374317321
 32
1.9999999999999989
 13
358.13533538381063
 23
-5721.5219374317339
 33
0.6000000000000227
  0
3DFACE
  5
748
  8
LAYER1
 10
358.13533538381063
 20
-5721.521937431733
 30
-0.7999999999999546
 11
358.13533538381063
 21
-5721.5219374317339
 31
0.6000000000000226
 12
359.33533538381062
 22
-5721.5219374317339
 32
0.0
 13
359.33533538381062
 23
-5721.5219374317339
 33
-2.0
  0
3DFACE
  5
749
  8
LAYER1
 10
359.33533538381062
 20
-5721.521937431733
 30
0.0
 11
360.58533538100733
 21
-5721.5219374317339
 31
0.0
 12
360.78533538381078
 22
-5721.521937431733
 32
-2.0
 13
359.33533538381062
 23
-5721.521937431733
 33
-2.0
  0
3DFACE
  5
74A
  8
LAYER1
 10
359.33533538381062
 20
-5721.521937431733
 30
-2.0
 11
360.78533538381078
 21
-5721.521937431733
 31
-2.0
 12
360.78533538381089
 22
-5721.521937431733
 32
-16.27499999999997
 13
359.33533538381067
 23
-5721.521937431733
 33
-16.27499999999997
  0
3DFACE
  5
75B
  8
LAYER1
 10
377.33636760791472
 20
-5721.5219374317348
 30
-0.5000000000000285
 11
377.83533537820432
 21
-5721.5219374317339
 31
0.0
 12
377.83533537820432
 22
-5721.5219374317339
 32
-2.0
 13
377.23538855048031
 23
-5721.5219374317339
 33
-2.0
  0
3DFACE
  5
7AE
  8
LAYER1
 10
394.33533538381067
 20
-5721.5219374317339
 30
-11.098076211353259
 11
395.43341159516399
 21
-5721.5219374317339
 31
-9.9999999999999485
 12
395.43341159516399
 22
278.47806256826573
 32
-9.9999999999999485
 13
395.83533538381062
 23
278.47806256826573
 33
-8.5000000000145253
  0
3DFACE
  5
7AF
  8
LAYER1
 10
395.83533538381062
 20
278.47806256826573
 30
-5.75
 11
395.83533538381062
 21
278.47806256826971
 31
-8.5
 12
395.83533538381062
 22
-5721.5219374317339
 32
-8.5
 13
395.83533538381062
 23
-5721.5219374317339
 33
-5.75
  0
3DFACE
  5
7BE
  8
LAYER1
 10
395.83533538381062
 20
-5721.5219374317339
 30
-5.75
 11
395.83533538381062
 21
-5721.5219374317294
 31
-2.9999999999999991
 12
395.83533538381062
 22
278.47806256826789
 32
-3.0
 13
396.12822860262412
 23
278.47806256826789
 33
-2.2928932188134459
  0
3DFACE
  5
7BF
  8
LAYER1
 10
395.83533538381062
 20
-5721.521937431723
 30
-2.9999999999999978
 11
396.12822860262412
 21
-5721.5219374317339
 31
-2.2928932188134521
 12
396.12822860262412
 22
278.47806256826789
 32
-2.2928932188134459
 13
396.83533537230483
 23
278.47796493719648
 33
-2.0000000047658371
  0
3DFACE
  5
7C0
  8
LAYER1
 10
398.33533526565287
 20
278.47758993722317
 30
-2.0
 11
396.83533538381062
 21
278.47758993722317
 31
-2.0
 12
396.83533533009961
 22
-5721.5220807047244
 32
-2.0
 13
398.33533538381067
 23
-5721.5220807047244
 33
-2.0
  0
3DFACE
  5
7C1
  8
LAYER1
 10
399.01488773682701
 20
-5721.5219374317339
 30
-2.0
 11
398.33533538381067
 21
-5721.5219374317476
 31
-2.0
 12
398.33533526565287
 22
278.4775899372944
 32
-2.0
 13
399.19479311508081
 23
278.47806256826573
 33
-2.0
  0
3DFACE
  5
7C2
  8
LAYER1
 10
399.19479311508081
 20
278.47806256826573
 30
-2.0
 11
399.83533538381067
 21
278.47806256826573
 31
-2.0
 12
399.83533538381067
 22
-5721.5219374317339
 32
-2.0
 13
399.01488773756449
 23
-5721.5219128312419
 33
-2.0
  0
3DFACE
  5
7C3
  8
LAYER1
 10
399.8353353651205
 20
-5721.5220495725016
 30
-2.0000000373802558
 11
400.54244216499728
 21
-5721.5220495725016
 31
-1.7071067811865239
 12
400.54244216499728
 22
278.47806256826698
 32
-1.707106781186547
 13
399.83533538382039
 23
278.47806256826573
 33
-2.0
  0
3DFACE
  5
7C4
  8
LAYER1
 10
400.54244216498978
 20
278.47806256826698
 30
-1.707106781189635
 11
400.83533538381067
 21
278.47806256826573
 31
-1.000000000005985
 12
400.83533538381067
 22
-5721.5219374317339
 32
-1.000000000005985
 13
400.54244216499751
 23
-5721.5220495725016
 33
-1.7071067811864751
  0
3DFACE
  5
7C5
  8
LAYER1
 10
400.83533538381067
 20
-5721.5220495725016
 30
-1.000000000005911
 11
400.83533538381062
 21
-5721.5220495725016
 31
-0.5
 12
400.83533538381062
 22
278.47806256826573
 32
-0.5
 13
400.83533538380982
 23
278.47806256826573
 33
-1.0000000000080529
  0
3DFACE
  5
7C6
  8
LAYER1
 10
400.83533538381062
 20
278.47806256826573
 30
-0.5
 11
400.83533535603277
 21
278.47789590162222
 31
-0.0000000555555483
 12
400.83533535603277
 22
-5721.5219374317339
 32
0.0
 13
400.83533538381062
 23
-5721.5220495725016
 33
-0.5
  0
3DFACE
  5
7E8
  8
LAYER1
 10
399.93681029279833
 20
278.48261167555438
 30
-36.000000000000163
 11
399.86033538390279
 21
278.47806256824379
 31
-35.999999999984688
 12
399.86033538390262
 22
278.47806256823952
 32
-35.024999999999757
 13
400.32370948651328
 23
278.47806256644748
 33
-35.02499999999965
  0
3DFACE
  5
7E9
  8
LAYER1
 10
399.86033538390279
 20
278.47806256824379
 30
-36.000000000000028
 11
399.44882729448722
 21
278.496384977216
 31
-35.93090866629035
 12
399.8030816759113
 22
278.4922197030877
 32
-35.038174777438819
 13
399.86032995228192
 23
278.47806256791017
 33
-35.024999762675712
  0
3DFACE
  5
7EA
  8
LAYER1
 10
399.44882729450529
 20
278.4963849772152
 30
-35.930908666293391
 11
399.14999898573689
 21
278.48525515079871
 31
-35.704046942282808
 12
399.41796558065289
 22
278.48210443655609
 32
-35.028761404811327
 13
399.80308296997617
 23
278.49221938307369
 33
-35.038174479625063
  0
3DFACE
  5
7EB
  8
LAYER1
 10
399.14999898573689
 20
278.48525515079871
 30
-35.704046942282822
 11
398.96110958409679
 21
278.47734774930092
 31
-35.400179365175909
 12
399.10998814196648
 22
278.47559725576332
 32
-35.02499999999965
 13
399.4179655806488
 23
278.48210443655609
 33
-35.028761404821708
  0
3DFACE
  5
7EC
  8
LAYER1
 10
398.96110958409582
 20
278.47734774930092
 30
-35.400179365174218
 11
398.88533538381068
 21
278.47734774930092
 31
-35.025000000000027
 12
399.10998814196648
 22
278.47559725576332
 32
-35.02499999999965
 13
398.96110958409679
 23
278.47734774930092
 33
-35.400179365175909
  0
3DFACE
  5
7FD
  8
LAYER1
 10
399.93681029279833
 20
278.48261167555438
 30
-36.000000000000028
 11
399.93681029279833
 21
278.48261167555438
 31
-36.000000000000028
 12
400.32370948651328
 22
278.47806256644748
 32
-35.02499999999965
 13
400.83533596809929
 23
278.47806256755467
 33
-35.024999525348612
  0
3DFACE
  5
7FE
  8
LAYER1
 10
399.93681029279833
 20
278.48261167555438
 30
-36.000000000000028
 11
399.93681029279833
 21
278.48261167555438
 31
-36.000000000000028
 12
400.80745537313749
 22
278.47806256644748
 32
-35.02499999999965
 13
400.75591084835281
 23
278.47562217248537
 33
-35.409958966605579
  0
3DFACE
  5
7FF
  8
LAYER1
 10
399.93681029279833
 20
278.48261167555438
 30
-36.000000000000163
 11
399.93681029279833
 21
278.48261167555438
 31
-36.000000000000163
 12
400.75631328429938
 22
278.47564122595918
 32
-35.406953384019211
 13
400.32078952615649
 23
278.4779062537757
 33
-35.895956175312648
  0
3DFACE
  5
802
  8
LAYER1
 10
400.32078952615649
 20
278.4779062537757
 30
-35.895956175312648
 11
400.55155536351742
 21
278.47974504421711
 31
-35.712650855515221
 12
400.60589324808308
 22
278.4791061468693
 32
-35.575717415749871
 13
400.32078952615649
 23
278.4779062537757
 33
-35.895956175312648
  0
3DFACE
  5
803
  8
LAYER1
 10
400.55155536351742
 20
278.47974504421711
 30
-35.712650855515221
 11
400.75591084835281
 21
278.47562217248537
 31
-35.409958966605579
 12
400.60589324808308
 22
278.4791061468693
 32
-35.575717415749871
 13
400.55155536351742
 23
278.47974504421711
 33
-35.712650855515221
  0
3DFACE
  5
804
  8
LAYER1
 10
400.75631328429938
 20
278.47564122595918
 30
-35.406953384019211
 11
400.83533596809929
 21
278.47806256755467
 31
-35.024999525348612
 12
400.78674650239782
 22
278.47697969926338
 32
-35.119960655913211
 13
400.75631328429938
 23
278.47564122595918
 33
-35.406953384019211
  0
LINE
  5
806
  8
QUOTE
 10
379.88681308773948
 20
278.49143780602441
 30
-34.025011544089033
 11
380.27371228155528
 21
278.4868886986971
 31
-33.050011544088647
  0
3DFACE
  5
807
  8
LAYER1
 10
379.88681308773943
 20
278.49143780602441
 30
-34.025011544089168
 11
379.81033817884401
 21
278.48688869871381
 31
-34.025011544073692
 12
379.81033817884372
 22
278.48688869870961
 32
-33.050011544088768
 13
380.27371228145461
 23
278.4868886969175
 33
-33.050011544088647
  0
3DFACE
  5
808
  8
LAYER1
 10
379.81033817884401
 20
278.48688869871381
 30
-34.025011544089033
 11
379.39883008942832
 21
278.50521110768608
 31
-33.955920210379361
 12
379.7530844708524
 22
278.50104583355773
 32
-33.06318632152783
 13
379.81033274722301
 23
278.48688869838031
 33
-33.050011306764709
  0
3DFACE
  5
809
  8
LAYER1
 10
379.39883008944651
 20
278.50521110768528
 30
-33.955920210382402
 11
379.10000178067799
 21
278.49408128126879
 31
-33.729058486371812
 12
379.36796837559399
 22
278.49093056702611
 32
-33.053772948900331
 13
379.75308576491739
 23
278.50104551354372
 33
-33.063186023714067
  0
3DFACE
  5
80A
  8
LAYER1
 10
379.10000178067799
 20
278.49408128126879
 30
-33.729058486371819
 11
378.91111237903789
 21
278.48617387977089
 31
-33.425190909264913
 12
379.05999093690758
 22
278.4844233862334
 32
-33.050011544088647
 13
379.3679683755899
 23
278.49093056702623
 33
-33.053772948910719
  0
3DFACE
  5
80B
  8
LAYER1
 10
378.91111237903692
 20
278.48617387977089
 30
-33.425190909263229
 11
378.83533817875178
 21
278.48617387977089
 31
-33.050011544089038
 12
379.05999093690758
 22
278.4844233862334
 32
-33.050011544088647
 13
378.91111237903789
 23
278.48617387977089
 33
-33.425190909264913
  0
3DFACE
  5
80C
  8
LAYER1
 10
379.88681308773948
 20
278.49143780602441
 30
-34.025011544089033
 11
379.88681308773948
 21
278.49143780602441
 31
-34.025011544089033
 12
380.27371228145461
 22
278.4868886969175
 32
-33.050011544088647
 13
380.7853387630405
 23
278.48688869802481
 33
-33.050011069437623
  0
3DFACE
  5
80D
  8
LAYER1
 10
379.88681308773948
 20
278.49143780602441
 30
-34.025011544089033
 11
379.88681308773948
 21
278.49143780602441
 31
-34.025011544089033
 12
380.75745816807859
 22
278.4868886969175
 32
-33.050011544088647
 13
380.70591364329402
 23
278.4844483029554
 33
-33.43497051069459
  0
3DFACE
  5
80E
  8
LAYER1
 10
379.88681308773943
 20
278.49143780602441
 30
-34.025011544089168
 11
379.88681308773943
 21
278.49143780602441
 31
-34.025011544089168
 12
380.70631607924059
 22
278.48446735642921
 32
-33.431964928108222
 13
380.2707923210977
 23
278.48673238424573
 33
-33.920967719401659
  0
3DFACE
  5
80F
  8
LAYER1
 10
380.2707923210977
 20
278.48673238424573
 30
-33.920967719401659
 11
380.50155815845852
 21
278.48857117468708
 31
-33.737662399604218
 12
380.55589604302429
 22
278.48793227733933
 32
-33.600728959838868
 13
380.2707923210977
 23
278.48673238424573
 33
-33.920967719401659
  0
3DFACE
  5
810
  8
LAYER1
 10
380.50155815845852
 20
278.48857117468708
 30
-33.737662399604218
 11
380.70591364329402
 21
278.4844483029554
 31
-33.43497051069459
 12
380.55589604302429
 22
278.48793227733933
 32
-33.600728959838868
 13
380.50155815845852
 23
278.48857117468708
 33
-33.737662399604218
  0
LINE
  5
812
  8
QUOTE
 10
399.93681029279833
 20
-5721.5173883237348
 30
-36.000000000000028
 11
400.32370948661412
 21
-5721.5219374310618
 31
-35.02499999999965
  0
3DFACE
  5
813
  8
LAYER1
 10
399.93681029279833
 20
-5721.5173883237348
 30
-36.000000000000163
 11
399.86033538390279
 21
-5721.5219374310454
 31
-35.999999999984688
 12
399.86033538390262
 22
-5721.5219374310491
 32
-35.024999999999757
 13
400.32370948651328
 23
-5721.5219374328417
 33
-35.02499999999965
  0
3DFACE
  5
814
  8
LAYER1
 10
399.86033538390279
 20
-5721.5219374310454
 30
-36.000000000000028
 11
399.44882729448722
 21
-5721.5036150220731
 31
-35.93090866629035
 12
399.8030816759113
 22
-5721.5077802962014
 32
-35.038174777438819
 13
399.86032995228192
 23
-5721.5219374313783
 33
-35.024999762675712
  0
3DFACE
  5
815
  8
LAYER1
 10
399.44882729450529
 20
-5721.5036150220731
 30
-35.930908666293391
 11
399.14999898573689
 21
-5721.5147448484913
 31
-35.704046942282808
 12
399.41796558065289
 22
-5721.5178955627316
 32
-35.028761404811327
 13
399.80308296997617
 23
-5721.5077806162162
 33
-35.038174479625063
  0
3DFACE
  5
816
  8
LAYER1
 10
399.14999898573689
 20
-5721.5147448484913
 30
-35.704046942282822
 11
398.96110958409679
 21
-5721.5226522499879
 31
-35.400179365175909
 12
399.10998814196648
 22
-5721.5244027435256
 32
-35.02499999999965
 13
399.4179655806488
 23
-5721.5178955627316
 33
-35.028761404821708
  0
3DFACE
  5
817
  8
LAYER1
 10
398.96110958409582
 20
-5721.5226522499879
 30
-35.400179365174218
 11
398.88533538381068
 21
-5721.5226522499879
 31
-35.025000000000027
 12
399.10998814196648
 22
-5721.5244027435256
 32
-35.02499999999965
 13
398.96110958409679
 23
-5721.5226522499879
 33
-35.400179365175909
  0
3DFACE
  5
818
  8
LAYER1
 10
399.93681029279833
 20
-5721.5173883237348
 30
-36.000000000000028
 11
399.93681029279833
 21
-5721.5173883237348
 31
-36.000000000000028
 12
400.32370948651328
 22
-5721.5219374328417
 32
-35.02499999999965
 13
400.83533596809929
 23
-5721.5219374317339
 33
-35.024999525348612
  0
3DFACE
  5
819
  8
LAYER1
 10
399.93681029279833
 20
-5721.5173883237348
 30
-36.000000000000028
 11
399.93681029279833
 21
-5721.5173883237348
 31
-36.000000000000028
 12
400.80745537313749
 22
-5721.5219374328417
 32
-35.02499999999965
 13
400.75591084835281
 23
-5721.5243778268032
 33
-35.409958966605579
  0
3DFACE
  5
81A
  8
LAYER1
 10
399.93681029279833
 20
-5721.5173883237348
 30
-36.000000000000163
 11
399.93681029279833
 21
-5721.5173883237348
 31
-36.000000000000163
 12
400.75631328429938
 22
-5721.5243587733294
 32
-35.406953384019211
 13
400.32078952615649
 23
-5721.5220937455133
 33
-35.895956175312648
  0
3DFACE
  5
81B
  8
LAYER1
 10
400.32078952615649
 20
-5721.5220937455133
 30
-35.895956175312648
 11
400.55155536351742
 21
-5721.5202549550722
 31
-35.712650855515221
 12
400.60589324808308
 22
-5721.5208938524192
 32
-35.575717415749871
 13
400.32078952615649
 23
-5721.5220937455133
 33
-35.895956175312648
  0
3DFACE
  5
81C
  8
LAYER1
 10
400.55155536351742
 20
-5721.5202549550722
 30
-35.712650855515221
 11
400.75591084835281
 21
-5721.5243778268032
 31
-35.409958966605579
 12
400.60589324808308
 22
-5721.5208938524192
 32
-35.575717415749871
 13
400.55155536351742
 23
-5721.5202549550722
 33
-35.712650855515221
  0
LINE
  5
81E
  8
QUOTE
 10
379.88681029279837
 20
-5721.5173883237348
 30
-34.025000474651293
 11
380.27370948661422
 21
-5721.5219374310618
 31
-33.050000474650908
  0
3DFACE
  5
81F
  8
LAYER1
 10
379.88681029279832
 20
-5721.5173883237348
 30
-34.025000474651421
 11
379.81033538390278
 21
-5721.5219374310454
 31
-34.025000474635952
 12
379.81033538390261
 22
-5721.5219374310491
 32
-33.050000474651021
 13
380.27370948651338
 23
-5721.5219374328417
 33
-33.050000474650908
  0
3DFACE
  5
820
  8
LAYER1
 10
379.81033538390278
 20
-5721.5219374310454
 30
-34.025000474651293
 11
379.39882729448721
 21
-5721.5036150220731
 31
-33.955909140941607
 12
379.7530816759114
 22
-5721.5077802962014
 32
-33.063175252090083
 13
379.8103299522819
 23
-5721.5219374313783
 33
-33.050000237326962
  0
3DFACE
  5
821
  8
LAYER1
 10
379.39882729450528
 20
-5721.5036150220731
 30
-33.955909140944648
 11
379.09999898573687
 21
-5721.5147448484913
 31
-33.729047416934073
 12
379.36796558065288
 22
-5721.5178955627316
 32
-33.053761879462577
 13
379.75308296997628
 23
-5721.5077806162162
 33
-33.06317495427632
  0
3DFACE
  5
822
  8
LAYER1
 10
379.09999898573687
 20
-5721.5147448484913
 30
-33.729047416934073
 11
378.91110958409689
 21
-5721.5226522499879
 31
-33.425179839827173
 12
379.05998814196653
 22
-5721.5244027435256
 32
-33.050000474650908
 13
379.3679655806489
 23
-5721.5178955627316
 33
-33.053761879472972
  0
3DFACE
  5
823
  8
LAYER1
 10
378.91110958409581
 20
-5721.5226522499879
 30
-33.425179839825482
 11
378.83533538381067
 21
-5721.5226522499879
 31
-33.050000474651291
 12
379.05998814196653
 22
-5721.5244027435256
 32
-33.050000474650908
 13
378.91110958409689
 23
-5721.5226522499879
 33
-33.425179839827173
  0
3DFACE
  5
824
  8
LAYER1
 10
379.88681029279837
 20
-5721.5173883237348
 30
-34.025000474651293
 11
379.88681029279837
 21
-5721.5173883237348
 31
-34.025000474651293
 12
380.27370948651338
 22
-5721.5219374328417
 32
-33.050000474650908
 13
380.78533596809939
 23
-5721.5219374317339
 33
-33.049999999999869
  0
3DFACE
  5
825
  8
LAYER1
 10
379.88681029279837
 20
-5721.5173883237348
 30
-34.025000474651293
 11
379.88681029279837
 21
-5721.5173883237348
 31
-34.025000474651293
 12
380.75745537313747
 22
-5721.5219374328417
 32
-33.050000474650908
 13
380.70591084835291
 23
-5721.5243778268032
 33
-33.434959441256836
  0
3DFACE
  5
826
  8
LAYER1
 10
379.88681029279832
 20
-5721.5173883237348
 30
-34.025000474651421
 11
379.88681029279832
 21
-5721.5173883237348
 31
-34.025000474651421
 12
380.70631328429948
 22
-5721.5243587733294
 32
-33.431953858670468
 13
380.27078952615659
 23
-5721.5220937455133
 33
-33.920956649963912
  0
3DFACE
  5
827
  8
LAYER1
 10
380.27078952615659
 20
-5721.5220937455133
 30
-33.920956649963912
 11
380.50155536351741
 21
-5721.5202549550722
 31
-33.737651330166472
 12
380.55589324808318
 22
-5721.5208938524192
 32
-33.600717890401121
 13
380.27078952615659
 23
-5721.5220937455133
 33
-33.920956649963912
  0
3DFACE
  5
828
  8
LAYER1
 10
380.50155536351741
 20
-5721.5202549550722
 30
-33.737651330166472
 11
380.70591084835291
 21
-5721.5243778268032
 31
-33.434959441256836
 12
380.55589324808318
 22
-5721.5208938524192
 32
-33.600717890401121
 13
380.50155536351741
 23
-5721.5202549550722
 33
-33.737651330166472
  0
3DFACE
  5
82B
  8
LAYER1
 10
360.12074725878978
 20
-5721.5185727134403
 30
-16.996152800447089
 11
359.9879363996514
 21
-5721.5185773505418
 31
-16.995159017855851
 12
359.81033538390278
 22
-5721.5219374310491
 32
-16.275000474642109
 13
360.27370948651372
 23
-5721.5219374328399
 33
-16.275000474641999
  0
3DFACE
  5
82D
  8
LAYER1
 10
359.9879363996514
 20
-5721.5185773505418
 30
-16.995159017855901
 11
359.70109205791073
 21
-5721.5190030799422
 31
-16.903913387503462
 12
359.33533538381141
 22
-5721.521937431733
 32
-16.27499999999997
 13
359.8101311118167
 23
-5721.5219412957267
 33
-16.27417216695147
  0
3DFACE
  5
82E
  8
LAYER1
 10
359.70109205790237
 20
-5721.5190030799422
 30
-16.903913387500818
 11
359.58515035099049
 21
-5721.5219374317339
 31
-16.822562037200889
 12
359.33546096271118
 22
-5721.5219364242521
 32
-16.275215931128109
 13
359.36796558064901
 23
-5721.5219374317339
 33
-16.274999999999629
  0
3DFACE
  5
830
  8
LAYER1
 10
360.12074727671188
 20
-5721.5185727135022
 30
-16.99615278099963
 11
360.12074727671188
 21
-5721.5185727135022
 31
-16.99615278099963
 12
360.27370948651372
 22
-5721.5219374328399
 32
-16.275000474641999
 13
360.78533596809962
 23
-5721.521937431733
 33
-16.27499999999096
  0
3DFACE
  5
833
  8
LAYER1
 10
360.12074728566211
 20
-5721.518572713534
 30
-16.996152771287669
 11
360.57492214847508
 21
-5721.5204201317601
 31
-16.78487007828064
 12
360.78533538381089
 22
-5721.5208938524156
 32
-16.274999999999931
 13
360.12074728566211
 23
-5721.518572713534
 33
-16.996152771287669
  0
3DFACE
  5
83E
  8
LAYER1
 10
360.1207472725651
 20
-5721.5185727134121
 30
-16.996152800550171
 11
360.38779191246692
 21
-5721.5196589539919
 31
-16.871923289376429
 12
360.36386148424788
 22
-5721.5193775833186
 32
-16.932228836367582
 13
360.12074728566262
 23
-5721.518572713534
 33
-16.996152771287061
  0
3DFACE
  5
83F
  8
LAYER1
 10
360.36386148424731
 20
-5721.5193775833186
 30
-16.932228836369241
 11
360.57492214847451
 21
-5721.5204201317601
 31
-16.78487007828226
 12
360.38779191246692
 22
-5721.5196589539919
 32
-16.871923289376419
 13
360.36386148424731
 23
-5721.5193775833186
 33
-16.932228836369241
  0
3DFACE
  5
840
  8
LAYER1
 10
360.5749221484694
 20
-5721.5204201317601
 30
-16.78487007828581
 11
360.65686573088448
 21
-5721.5208796954903
 31
-16.68637281163458
 12
360.78515414397862
 22
-5721.5208934443772
 32
-16.275439177541841
 13
360.5749221484694
 23
-5721.5204201317601
 33
-16.78487007828581
  0
3DFACE
  5
841
  8
LAYER1
 10
360.65686573088868
 20
-5721.5208796954903
 30
-16.68637281162955
 11
360.78515414397862
 21
-5721.5208934443772
 31
-16.275439177541841
 12
360.65686573088868
 22
-5721.5208796954903
 32
-16.68637281162955
 13
360.78515414397862
 23
-5721.5208934443772
 33
-16.275439177541841
  0
3DFACE
  5
842
  8
LAYER1
 10
360.65686573088448
 20
-5721.5208796954903
 30
-16.686372811634559
 11
360.77737684222791
 21
-5721.5222966485071
 31
-16.38268044050044
 12
360.78515414397862
 22
-5721.5208934443772
 32
-16.275439177541841
 13
360.65686573088448
 23
-5721.5208796954903
 33
-16.686372811634559
  0
LINE
  5
844
  8
LAYER1
 10
359.58515035099049
 20
-5721.5219374317339
 30
-16.822562037200889
 11
359.33546096271141
 21
-5721.5219364242521
 31
-16.27521593112845
  0
3DFACE
  5
845
  8
LAYER1
 10
398.96110958409628
 20
278.47734774930092
 30
-35.400179365177053
 11
398.9621964149693
 21
-5721.5226067524218
 31
-35.401927756886018
 12
398.88624807789489
 22
-5721.5226522499879
 32
-35.029519004962829
 13
398.88624807789489
 23
-5721.5226522499879
 33
-35.029519004962829
  0
3DFACE
  5
846
  8
LAYER1
 10
398.9621964152945
 20
-5721.5244026604614
 30
-35.401927757409332
 11
399.14999898573689
 21
-5721.5147448484913
 31
-35.704046942282801
 12
399.15196509841979
 22
278.48523203351709
 32
-35.69909226701742
 13
398.9611095826682
 23
278.48523191184302
 33
-35.400179362879562
  0
3DFACE
  5
848
  8
LAYER1
 10
400.55155536351742
 20
-5721.5202549550722
 30
-35.712650855515221
 11
400.75591084835281
 21
-5721.5243778268032
 31
-35.409958966605579
 12
399.4179655806488
 22
278.48210443655609
 32
-35.028761404821708
 13
399.10989256644211
 23
278.47559837952713
 33
-35.025240853787381
  0
3DFACE
  5
849
  8
LAYER1
 10
399.15196509690378
 20
278.48060581374102
 30
-35.69909227083766
 11
399.4488272944904
 21
278.49638497721469
 31
-35.930908666282107
 12
399.4488272944904
 22
-5721.5036150227852
 32
-35.930908666282107
 13
399.86033538381059
 23
-5721.5219374317339
 33
-36.000000000000028
  0
3DFACE
  5
84A
  8
LAYER1
 10
395.73533538381059
 20
278.47806256826573
 30
0.0
 11
398.2853353838106
 21
278.47806256826698
 31
0.0
 12
399.8353353651205
 22
-5721.5220495725016
 32
-2.0000000373802558
 13
399.014921558823
 23
-5721.5219374317339
 33
-1.9999999999999989
  0
3DFACE
  5
852
  8
LAYER1
 10
395.73533538381059
 20
278.47806256826613
 30
0.0
 11
394.67467521203082
 21
278.47806256826573
 31
-0.4393398282201787
 12
394.67467521203082
 22
-5721.5219374317339
 32
-0.4393398282201788
 13
395.76880033506228
 23
-5721.5219379688779
 33
-0.0914473183365061
  0
3DFACE
  5
853
  8
LAYER1
 10
394.23533538381059
 20
-5721.521937431733
 30
-1.500000000000028
 11
394.67467521203082
 21
-5721.5219374317339
 31
-0.4393398282201788
 12
394.67467521038412
 22
278.47806256826573
 32
-0.4393398289022628
 13
394.23533538381048
 23
278.47806256826561
 33
-1.4999999999999429
  0
3DFACE
  5
854
  8
LAYER1
 10
388.33533538381067
 20
278.47806256826573
 30
0.0
 11
389.93533538381058
 21
278.4780625682688
 31
0.0
 12
389.93533538381058
 22
-5721.5219374317376
 32
0.0
 13
388.33533538381067
 23
-5721.5219374317376
 33
0.0
  0
3DFACE
  5
855
  8
LAYER1
 10
389.93533535857762
 20
278.478062568273
 30
0.0
 11
390.99599542704618
 21
278.477736832397
 31
-0.4393398970464375
 12
390.99599555559053
 22
-5721.5219374317339
 32
-0.4393398282202555
 13
389.93533538381058
 23
-5721.5219374317376
 33
0.0
  0
3DFACE
  5
864
  8
LAYER1
 10
398.2853353838106
 20
-5721.5219374317339
 30
0.0
 11
400.83533535603277
 21
-5721.521937431703
 31
0.0000001416669959
 12
400.83533535603277
 22
278.4780626094248
 32
-0.0000000555555498
 13
398.2853355540409
 23
278.47740373567109
 33
-0.0000002196521637
  0
3DFACE
  5
865
  8
LAYER1
 10
388.3353353838109
 20
278.47806256826573
 30
-0.0000002196510326
 11
388.33533538381062
 21
278.47806256826573
 31
-0.999999999999888
 12
388.33533538381062
 22
-5721.5219374317367
 32
-1.0
 13
388.33533538381067
 23
-5721.5219374317376
 33
0.0
  0
3DFACE
  5
866
  8
LAYER1
 10
388.33533534214411
 20
-5721.5221040983897
 30
-0.9999999722222241
 11
388.62822860262412
 21
-5721.5221040983897
 31
-1.7071067811865239
 12
388.62822860262412
 22
278.47806256826613
 32
-1.7071067811865479
 13
388.33533538381062
 23
278.47806256826613
 33
-1.0
  0
3DFACE
  5
867
  8
LAYER1
 10
398.88533538381063
 20
278.47806256826573
 30
-22.0
 11
396.33533538381062
 21
278.47806256826573
 31
-22.0
 12
396.33533538381062
 22
-5721.5219374317339
 32
-22.0
 13
398.88533538381063
 23
-5721.521937431733
 33
-22.0
  0
3DFACE
  5
869
  8
LAYER1
 10
396.33533538381062
 20
-5721.5219374317339
 30
-21.999999999999972
 11
396.33533538381062
 21
-5721.5219374317339
 31
-23.000000000000028
 12
398.88533538381029
 22
-5721.5219374317339
 32
-23.999999997085379
 13
398.88533509018328
 23
-5721.5219374317339
 33
-22.000000000000011
  0
3DFACE
  5
86A
  8
LAYER1
 10
400.83533596809929
 20
-5721.5219374317339
 30
-35.024999525348612
 11
398.88624807789722
 21
-5721.5226522499879
 31
-35.029519004973857
 12
398.88533538381063
 22
-5721.521937431733
 32
-24.000000000000028
 13
400.83533538381067
 23
-5721.5336819355343
 33
-24.000000000000021
  0
3DFACE
  5
872
  8
LAYER1
 10
396.33533538381062
 20
-5721.5219374317339
 30
-21.999999999999972
 11
396.33533538381062
 21
-5721.5219374317339
 31
-23.000000000000028
 12
396.33533538381062
 22
278.47806256826573
 32
-23.000000000000028
 13
396.33533538381062
 23
278.47806256826573
 33
-22.0
  0
3DFACE
  5
873
  8
LAYER1
 10
396.33533538381062
 20
278.47806256826613
 30
-23.000000000000028
 11
398.8853351144669
 21
278.47889131817863
 31
-24.000000000000028
 12
398.88533354043761
 22
278.47806256826573
 32
-22.0
 13
396.33533538381062
 23
278.47806256826573
 33
-22.0
  0
3DFACE
  5
874
  8
LAYER1
 10
400.8353353838105
 20
278.47806256754939
 30
-19.001231037651252
 11
400.83534086687098
 21
278.47806256755467
 31
-35.024999525344072
 12
400.83535385796421
 22
-5721.5219374317339
 32
-35.024999525332021
 13
400.8353353838105
 23
-5721.5135578500413
 33
-21.265965608959121
  0
3DFACE
  5
87C
  8
LAYER1
 10
398.88624807789722
 20
-5721.5226522499879
 30
-35.029519004962829
 11
398.88579288083662
 21
-5721.5281670927616
 31
-29.51476537473885
 12
398.88532799943181
 22
278.4780625680113
 32
-29.514765097496461
 13
398.88532243036258
 23
278.47734785023403
 33
-35.025000000000027
  0
3DFACE
  5
87E
  8
LAYER1
 10
398.88624807789722
 20
-5721.5226522499879
 30
-35.029519004973977
 11
398.88533538381063
 21
-5721.5219374317339
 31
-29.512500000000021
 12
398.88532799943181
 22
278.47806256801141
 32
-29.514765096992189
 13
398.88532243042658
 23
278.47734785843937
 33
-35.024936739179161
  0
3DFACE
  5
87F
  8
LAYER1
 10
400.83534086508712
 20
278.47805968734008
 30
-35.023076711663137
 11
400.75591084835281
 21
278.47562217248537
 31
-35.409958966605579
 12
400.75591026861707
 22
-5721.5217780057847
 32
-35.409958801431522
 13
400.55155536351742
 23
-5721.5202549550704
 33
-35.712650855515221
  0
3DFACE
  5
88E
  8
LAYER1
 10
400.74956523153969
 20
278.4756763205479
 30
-35.414530046769741
 11
400.55463161678028
 21
278.47968298081008
 31
-35.708094300981351
 12
400.54694354173188
 22
-5721.5202917030319
 32
-35.716314185741638
 13
400.75631328429938
 23
-5721.5243587733294
 33
-35.406953384019211
  0
3DFACE
  5
88F
  8
LAYER1
 10
400.55490487831929
 20
-5721.5204463543932
 30
-35.704550664235221
 11
400.3749261909046
 21
-5721.5216623732485
 31
-35.852953542176387
 12
400.55463161678091
 22
278.47968298081008
 32
-35.708094300980427
 13
400.7495652270328
 23
278.47968357075331
 33
-35.414530051829928
  0
3DFACE
  5
89E
  8
QUOTE
 10
398.88533538381063
 20
-5721.521937431733
 30
-24.000000000000028
 11
398.88579288022061
 21
-5721.5202165877781
 31
-29.514765374738481
 12
398.88579288022061
 22
278.47978341222279
 32
-29.514765374738481
 13
398.88533538381063
 23
278.47806256826573
 33
-24.000000000000028
  0
3DFACE
  5
89F
  8
QUOTE
 10
398.88533538381063
 20
278.47806256826573
 30
-29.512500000000021
 11
398.8853351144669
 21
278.47889131817863
 31
-24.000000000000028
 12
398.8853351144669
 22
-5721.5211086818208
 32
-24.000000000000028
 13
398.88579288083662
 23
-5721.5281670927616
 33
-29.51476537473885
  0
3DFACE
  5
8A0
  8
LAYER1
 10
398.88579288031298
 20
-5721.5214092758079
 30
-29.514765374738541
 11
398.88533509018328
 21
-5721.5204380582909
 31
-23.99999850062656
 12
398.88533538381063
 22
278.47806256826573
 32
-23.99999850062656
 13
398.88533538381063
 23
278.47806256826573
 33
-29.512500000000021
  0
3DFACE
  5
8A8
  8
LAYER1
 10
399.44882113452883
 20
278.49638504964872
 30
-35.930924189605982
 11
399.86033538381059
 21
278.47806256824379
 31
-35.999983449683342
 12
399.86033538381059
 22
-5721.5219374310409
 32
-36.0
 13
399.4488272944904
 23
-5721.5219374310391
 33
-35.930908666282107
  0
3DFACE
  5
8A9
  8
LAYER1
 10
394.23533538381059
 20
278.4780625682651
 30
-5.0
 11
394.23533538381059
 21
278.47806256826573
 31
-1.4999999999839551
 12
395.83533538381062
 22
-5721.5219374317339
 32
-4.5076168408210027
 13
395.83533538381062
 23
-5721.5219374317339
 33
-5.75
  0
3DFACE
  5
8AA
  8
LAYER1
 10
394.23533538381059
 20
-5721.5219374317339
 30
-5.0
 11
394.2353353838098
 21
-5721.521937431733
 31
-1.5000000000018869
 12
394.23533538381912
 22
278.47806253637049
 32
-1.4999999999999429
 13
394.23533538381059
 23
278.47806253637049
 33
-5.0
  0
3DFACE
  5
8B2
  8
LAYER1
 10
390.99599551444879
 20
278.47773683237023
 30
-0.4393399332498204
 11
391.4353353838107
 21
278.47806256826573
 31
-1.5
 12
391.4353353838107
 22
-5721.5219374317339
 32
-1.5
 13
390.99599555559053
 23
-5721.5219374317339
 33
-0.4393398282201791
  0
3DFACE
  5
8BB
  8
LAYER1
 10
389.83533538381062
 20
-5721.5219374317339
 30
-5.25
 11
389.83533538381062
 21
-5721.5219374317339
 31
-2.0
 12
389.83533538381062
 22
278.47806256826573
 32
-2.0
 13
389.83533538381062
 23
278.47806256826613
 33
-5.25
  0
3DFACE
  5
8C3
  8
LAYER1
 10
390.2372591724573
 20
278.47806256826237
 30
-9.9999999999999485
 11
389.83533538381062
 21
278.47806256826573
 31
-8.5
 12
389.83533543633212
 22
-5721.5219374699536
 32
-8.5
 13
390.2372591724573
 23
-5721.5219374699518
 33
-9.9999999999999858
  0
3DFACE
  5
8CB
  8
LAYER1
 10
389.83533543633212
 20
-5721.5219374652834
 30
-8.5
 11
389.83533576990379
 21
-5721.5238565317086
 31
-5.250001133194381
 12
395.73533538381059
 22
278.47806256826698
 32
0.0
 13
398.2853352135694
 23
278.4787214420092
 33
0.0000002196658818
  0
3DFACE
  5
8CD
  8
LAYER1
 10
398.88533538381063
 20
-5721.5219374317339
 30
-19.5
 11
380.78533538381038
 21
-5721.5219374317348
 31
-19.5
 12
380.7853353838106
 22
278.47806256826573
 32
-19.499999999545249
 13
398.88567601580598
 23
278.4780625675495
 33
-19.499912658462701
  0
3DFACE
  5
8CE
  8
LAYER1
 10
391.14599555559039
 20
278.47806256826613
 30
-17.560660171779819
 11
391.58533538381067
 21
278.47806260579517
 31
-16.5
 12
391.58533538381062
 22
-5721.5219374317339
 32
-16.5
 13
391.14599555559039
 23
-5721.5219374317339
 33
-17.560660171779819
  0
3DFACE
  5
8CF
  8
LAYER1
 10
391.1459955555884
 20
-5721.5219374317339
 30
-17.560660171784711
 11
390.0853353838088
 21
-5721.5219374317339
 31
-18.0
 12
390.08533538381062
 22
278.47806256826698
 32
-18.0
 13
391.14599555559039
 23
278.47806256826613
 33
-17.560660171779819
  0
3DFACE
  5
8D2
  8
LAYER1
 10
380.7853353838106
 20
278.47806256826431
 30
-19.5
 11
385.79534215607629
 21
278.47762305363977
 31
-19.49999989012133
 12
390.08530840671972
 22
-5721.5218407076318
 32
-19.500000000000011
 13
390.08533538381062
 23
-5721.5219374317339
 33
-17.99999999999925
  0
3DFACE
  5
8D3
  8
LAYER1
 10
392.83533538381062
 20
278.47806256826613
 30
-9.8999999999999773
 11
391.44771564572312
 21
278.47806256826613
 31
-8.7501711641774822
 12
391.44771564572312
 22
-5721.521937431733
 32
-8.7501711641774396
 13
392.83533538381062
 23
-5721.5219374317339
 33
-9.8999999999999773
  0
3DFACE
  5
8D4
  8
LAYER1
 10
392.83533538380368
 20
-5721.5219374317339
 30
-9.8999999999931205
 11
394.22401484685832
 21
-5721.5219374317321
 31
-8.7287570269867665
 12
394.08533538381067
 22
278.25863795874471
 32
-11.53108891324549
 13
392.83533538381062
 23
278.47806256825521
 33
-9.8999999999999773
  0
3DFACE
  5
8D5
  8
LAYER1
 10
385.79534122602149
 20
278.46702140009228
 30
-19.499997239707941
 11
389.83578283566249
 21
278.47806277004469
 31
-19.49829327842232
 12
389.83578283566249
 22
-5721.5021749873022
 32
-19.49835091829673
 13
384.96082483042818
 23
-5721.5021749873022
 33
-19.49835091829674
  0
3DFACE
  5
8D6
  8
LAYER1
 10
380.78535408261553
 20
278.46599882314598
 30
-19.499999999854278
 11
385.79534215607629
 21
278.47762305363892
 31
-19.49999989012133
 12
390.0853084758769
 22
-5721.5219374317321
 32
-19.500000000000011
 13
390.08533538381062
 23
-5721.5219374317339
 33
-17.99999999999925
  0
3DFACE
  5
8E4
  8
LAYER1
 10
380.7853353838106
 20
278.47806256826573
 30
-24.000000000000028
 11
383.33533538381039
 21
278.47822923492771
 31
-23.00000002777783
 12
383.33533545464383
 22
278.4782292348977
 32
-21.999999999999989
 13
380.7853353838106
 23
278.47889590145439
 33
-22.000000347222159
  0
3DFACE
  5
8E5
  8
LAYER1
 10
383.3353353838105
 20
278.47806256826573
 30
-23.000000000000028
 11
383.33530808181888
 21
278.478229242054
 31
-22.00000000000372
 12
383.33530808181888
 22
-5721.5219374317339
 32
-21.999999999999989
 13
383.3353353838105
 23
-5721.5219374317339
 33
-23.000000000000028
  0
3DFACE
  5
8E6
  8
LAYER1
 10
380.7853353838106
 20
278.47806256826613
 30
-24.000000000000028
 11
382.06033538381052
 21
278.4780625682651
 31
-23.500000000000028
 12
382.06033538381058
 22
-5721.5219374317339
 32
-23.499999999999961
 13
383.3353353838105
 23
-5721.5219374317339
 33
-23.000000000000021
  0
3DFACE
  5
8E7
  8
LAYER1
 10
382.06033545023888
 20
-5721.5222500358832
 30
-23.499999973949741
 11
380.7853353838106
 21
-5721.5223772231384
 31
-23.999999888128301
 12
380.7853353838106
 22
278.47806256826573
 32
-23.999999888128301
 13
383.33533538381039
 23
278.47822923492771
 33
-23.00000002777783
  0
3DFACE
  5
8E8
  8
LAYER1
 10
380.78533564952409
 20
278.4774373600622
 30
-23.999999895798581
 11
380.78533538381032
 21
278.47704912161208
 31
-25.526247079341989
 12
380.7853353838106
 22
-5721.5219374317339
 32
-25.526247079341999
 13
380.7853353838106
 23
-5721.521549193335
 33
-24.000000098758001
  0
3DFACE
  5
8E9
  8
LAYER1
 10
380.78533538381032
 20
278.4770491215466
 30
-25.526247337137029
 11
380.7853353838106
 21
278.4770491215466
 31
-28.52500000000002
 12
380.7853353838106
 22
-5721.5219374317339
 32
-28.52500000000002
 13
380.7853353838106
 23
-5721.5219374317994
 33
-25.526247337137029
  0
3DFACE
  5
8EA
  8
LAYER1
 10
380.78533538572719
 20
-5721.5207865898419
 30
-24.001595594324169
 11
380.78533549724978
 21
-5721.5226538900333
 31
-33.049999886560776
 12
380.7853387630405
 22
278.48688869802481
 32
-33.050011069437623
 13
380.78533538381049
 23
278.48880255313441
 33
-25.526250069115921
  0
3DFACE
  5
8EB
  8
LAYER1
 10
380.78533564952409
 20
278.4768121514781
 30
-23.999999895798599
 11
380.78533326577309
 21
278.47137402857118
 31
-33.049991611456477
 12
380.78534625685961
 22
-5721.5219374317339
 32
-33.04999999999032
 13
380.78533538381049
 23
-5721.52078638694
 33
-24.000000292796539
  0
3DFACE
  5
8EC
  8
LAYER1
 10
383.33530808181888
 20
278.478229242054
 30
-22.00000000000372
 11
380.7853353838106
 21
278.47889590145439
 31
-22.000000347222159
 12
380.7853353838106
 22
-5721.5219374317339
 32
-22.0
 13
383.33530807991809
 23
-5721.5219374317339
 33
-21.99993038066695
  0
3DFACE
  5
8ED
  8
LAYER1
 10
378.83533538381067
 20
-5721.5226522499879
 30
-33.050000474651291
 11
378.88533538381068
 21
-5721.5226522499879
 31
-25.525000000000009
 12
378.88533538381063
 22
278.47806256826573
 32
-25.525000000000009
 13
378.83530478370091
 23
278.48617288384031
 33
-33.049925416390487
  0
3DFACE
  5
8EE
  8
LAYER1
 10
378.83533817875178
 20
278.48617387977089
 30
-33.050011544089038
 11
380.7574582281693
 21
278.48688869976252
 31
-33.050011095303219
 12
380.78533538381049
 22
278.48880255313441
 32
-25.526250069115921
 13
378.88533538381063
 23
278.47806256826573
 33
-25.5262500691159
  0
3DFACE
  5
8EF
  8
LAYER1
 10
378.88533538381063
 20
278.47806256826573
 30
-25.5262500691159
 11
380.78533538381049
 21
278.48880255313441
 31
-25.526250069115921
 12
380.78526591517652
 22
278.47806271588519
 32
-18.00000000043056
 13
378.88533538381068
 23
278.47806271588519
 33
-18.0
  0
3DFACE
  5
8F2
  8
LAYER1
 10
380.33544897686261
 20
278.47901856874807
 30
-18.00000278833474
 11
378.8853353838108
 21
278.47806256826578
 31
-18.000002788334761
 12
378.88533538381063
 22
278.47806256826578
 32
-1.9999999999999989
 13
380.33533538381062
 23
278.47806256826573
 33
-1.99999999999999
  0
3DFACE
  5
8FA
  8
LAYER1
 10
380.33533538381062
 20
278.47806256826573
 30
-1.99999999999999
 11
380.33533538381062
 21
278.47806256826573
 31
0.0
 12
377.83533537820432
 22
278.47806256826573
 32
0.0
 13
377.83533537820432
 23
278.47806256826573
 33
-2.0
  0
3DFACE
  5
8FB
  8
LAYER1
 10
377.83533537820432
 20
278.47806256826573
 30
-1.999999999999984
 11
377.33533537786718
 21
278.47806256826573
 31
-1.999999999999984
 12
377.33533537786718
 22
278.47806256826573
 32
-0.5
 13
377.83533537820432
 23
278.47806256826573
 33
0.0
  0
3DFACE
  5
8FC
  8
LAYER1
 10
377.33533537786718
 20
278.47806256826573
 30
-1.999999999999984
 11
377.33533537786718
 21
278.47806256826698
 31
-0.5
 12
362.33533537786712
 22
278.47806256826573
 32
-0.5
 13
362.33533537786712
 23
278.47806256826573
 33
-2.0
  0
3DFACE
  5
8FD
  8
LAYER1
 10
362.33533537786712
 20
278.47806256826573
 30
-0.5
 11
361.83533537820398
 21
278.47806256826573
 31
-0.0000000000000284
 12
361.83533537820398
 22
278.47806256826573
 32
-2.0
 13
362.33533537786712
 23
278.47806256826561
 33
-2.0
  0
3DFACE
  5
8FE
  8
LAYER1
 10
361.83533537820398
 20
278.47806256826573
 30
-2.0
 11
360.06033538381092
 21
278.47806256826692
 31
-1.999999999999994
 12
360.06033538381092
 22
278.47806256826573
 32
0.0
 13
361.83533537820398
 23
278.47806256826573
 33
-0.0000000000000284
  0
3DFACE
  5
8FF
  8
LAYER1
 10
360.78533538381078
 20
278.47806256826573
 30
-6.5
 11
363.33533538381067
 21
278.47822923492771
 31
-5.5000000277777872
 12
363.33533538381067
 22
278.47822923492771
 32
-4.5
 13
360.78533538381089
 23
278.47806256826573
 33
-4.5
  0
3DFACE
  5
900
  8
LAYER1
 10
360.06033538381092
 20
278.47806256826573
 30
0.0
 11
359.33533538381062
 21
278.47806256826573
 31
0.0
 12
359.33533538381067
 22
278.47806256826578
 32
-16.274891737785669
 13
360.06033538381081
 23
278.47806256827522
 33
-16.999999999983899
  0
3DFACE
  5
901
  8
LAYER1
 10
360.78533538381078
 20
278.47806256826573
 30
-2.0
 11
360.80270901388008
 21
278.45632724452929
 31
-16.293936176408689
 12
360.06033538382701
 22
278.47806256827607
 32
-17.00000000000005
 13
360.06033538381092
 23
278.47806256826692
 33
-1.999999999999994
  0
3DFACE
  5
902
  8
LAYER1
 10
358.13533538381063
 20
278.47806256826573
 30
-0.7999999999999546
 11
359.33533538381067
 21
278.47806256826573
 31
-2.0
 12
359.33533538381062
 22
278.47806256826613
 32
1.9999999999999989
 13
358.13533538381063
 23
278.47806256826573
 33
1.9999999999999989
  0
3DFACE
  5
911
  8
LAYER1
 10
380.33533538381062
 20
278.47806256826561
 30
0.0
 11
379.08533538100738
 21
278.47806256826613
 31
0.0
 12
379.08533538100738
 22
-5721.5219374317339
 32
0.0
 13
380.33533538381062
 23
-5721.5219374317339
 33
0.0
  0
3DFACE
  5
919
  8
LAYER1
 10
383.3353353838105
 20
-5721.5219374317321
 30
-23.000000000000028
 11
383.33530808181888
 21
-5721.5219374317321
 31
-22.000000000000011
 12
380.7853353838106
 22
-5721.5219374317339
 32
-22.0
 13
380.7853353838106
 23
-5721.5223772231384
 33
-23.999999888128301
  0
3DFACE
  5
91A
  8
LAYER1
 10
380.78533549724978
 20
-5721.5226538900333
 30
-33.049999886560776
 11
380.78534538071148
 21
-5721.5219374317339
 31
-19.5
 12
378.88533538381068
 22
-5721.5219374317339
 32
-19.499999999999979
 13
378.8554114912526
 23
-5721.5309521141698
 33
-33.022231810072711
  0
3DFACE
  5
91B
  8
LAYER1
 10
378.88533538381068
 20
-5721.5219374317339
 30
-19.499999999999979
 11
378.88533538381068
 21
-5721.5219374317339
 31
-18.0
 12
390.0853084758769
 22
-5721.5045774745277
 32
-18.000004339988539
 13
390.0853084758769
 23
-5721.5219374317321
 33
-19.500000000000011
  0
3DFACE
  5
91C
  8
LAYER1
 10
400.83533306534213
 20
-5721.5148036824876
 30
-24.00000000000006
 11
400.8353353838105
 21
-5721.5219374317339
 31
-19.000000001995929
 12
398.88533538381051
 22
-5721.5219376078321
 32
-19.5
 13
398.88533520985021
 23
-5721.5204383121682
 33
-24.001440067310519
  0
3DFACE
  5
91D
  8
LAYER1
 10
395.78351085264637
 20
-5721.5219374317339
 30
-18.0
 11
395.78351085264637
 21
-5721.5219374317339
 31
-19.5
 12
398.88533538381051
 22
-5721.5219376078321
 32
-19.500000000000011
 13
399.55478978383468
 23
-5721.5220367916318
 33
-17.999999999998931
  0
3DFACE
  5
91E
  8
LAYER1
 10
359.335342938417
 20
-5721.4906769917297
 30
1.9999661345233051
 11
358.13534168389867
 21
-5721.4904369914784
 31
2.0
 12
358.13533538381063
 22
278.47806256826573
 32
1.9999999999999989
 13
359.33533538381062
 23
278.47806256826573
 33
1.9999999999999989
  0
3DFACE
  5
91F
  8
LAYER1
 10
359.33533538381062
 20
278.47806256826573
 30
0.0
 11
359.3353353838105
 21
278.47806256826573
 31
1.9999999999999989
 12
359.33531033560052
 22
-5721.4906769852096
 32
1.9999661354433951
 13
359.33533538381062
 23
-5721.4906769852096
 33
0.0
  0
3DFACE
  5
920
  8
LAYER1
 10
361.83533537820398
 20
-5721.5219374317339
 30
0.0
 11
359.33533517366141
 21
-5721.4906769852096
 31
0.0167792888006877
 12
359.33533538381062
 22
278.47806256826573
 32
0.0
 13
361.83533537820398
 23
278.47806256826573
 33
0.0
  0
3DFACE
  5
921
  8
LAYER1
 10
362.33533537786712
 20
-5721.5219374317339
 30
-0.4999999999999858
 11
361.83533537820398
 21
-5721.5219374317339
 31
0.0
 12
361.83533537820398
 22
278.47806256826573
 32
0.0
 13
362.33533537786712
 23
278.47806256826573
 33
-0.5
  0
3DFACE
  5
929
  8
LAYER1
 10
358.13533538381063
 20
278.47806256826573
 30
-0.7999999999999546
 11
359.33533538381067
 21
278.47806256826573
 31
-2.000000000000056
 12
359.33533538381067
 22
-5721.521937431733
 32
-9.1374999999999886
 13
359.33533538381062
 23
-5721.521937431733
 33
-2.0
  0
3DFACE
  5
92A
  8
LAYER1
 10
359.33533538381062
 20
-5721.5219374317339
 30
-2.0
 11
359.33546096271118
 21
-5721.5219364242521
 31
-16.275215931128109
 12
359.33533538381079
 22
278.47806256826573
 32
-16.275215931128109
 13
359.33533538381067
 23
278.47806256831359
 33
-2.0
  0
3DFACE
  5
939
  8
LAYER1
 10
360.78533538381078
 20
278.47806256826573
 30
-4.5
 11
363.33533492321709
 21
278.47697881846148
 31
-4.5
 12
363.33533538381067
 22
-5721.5219374317339
 32
-4.5
 13
360.78553258963132
 23
-5721.5219374317348
 33
-4.5000000000000009
  0
3DFACE
  5
93A
  8
LAYER1
 10
363.33533538381067
 20
-5721.5219374317339
 30
-5.5
 11
363.33533538381067
 21
-5721.521937431733
 31
-4.5
 12
363.33533538381067
 22
278.47822923492771
 32
-4.5
 13
363.33533538381067
 23
278.47822923492771
 33
-5.5000000277777872
  0
3DFACE
  5
93B
  8
LAYER1
 10
360.78533538381089
 20
-5721.5219374287753
 30
-16.275000634009331
 11
360.78533538381089
 21
-5721.5219374317339
 31
-11.38749999999999
 12
360.78533538381089
 22
278.47806256826573
 32
-11.38749999999999
 13
360.78533538381089
 23
278.47806256826573
 33
-16.274999999999348
  0
3DFACE
  5
943
  8
LAYER1
 10
360.78533538381089
 20
278.47806256826573
 30
-11.38749999999999
 11
360.78533538381078
 21
278.47806256826573
 31
-6.5
 12
360.78533538381078
 22
-5721.5219374317339
 32
-6.4999999999999707
 13
360.78533538381089
 23
-5721.521937431733
 33
-11.38749999999999
  0
3DFACE
  5
944
  8
LAYER1
 10
362.33533537786712
 20
278.47806256826573
 30
-0.5
 11
369.83533537786712
 21
278.4780625682651
 31
-0.5
 12
369.83533537786712
 22
-5721.5219374317339
 32
-0.5
 13
362.33533537786712
 23
-5721.5219374317339
 33
-0.4999999999999858
  0
3DFACE
  5
945
  8
LAYER1
 10
369.83533537786712
 20
-5721.5219374317339
 30
-0.5
 11
377.33586604244351
 21
-5721.5219374317367
 31
-0.5005026030748923
 12
377.33526339392932
 22
278.47806256826698
 32
-0.5
 13
369.83533537786712
 23
278.47806256826698
 33
-0.5
  0
3DFACE
  5
946
  8
LAYER1
 10
378.88533538381063
 20
278.47806256826573
 30
-1.999999999999996
 11
360.78533538381078
 21
278.47806256826573
 31
-2.0
 12
360.78533538381078
 22
-5721.521937431733
 32
-2.0
 13
378.88533538381063
 23
-5721.5219374317339
 33
-2.0
  0
3DFACE
  5
947
  8
LAYER1
 10
376.33533538381079
 20
278.47806256826573
 30
-5.5
 11
376.33533538381079
 21
278.47806256826573
 31
-4.5
 12
376.33533538381079
 22
-5721.5219374317339
 32
-4.5
 13
376.33533538381079
 23
-5721.5219374317339
 33
-5.5
  0
3DFACE
  5
948
  8
LAYER1
 10
378.88533538381063
 20
-5721.5219374317339
 30
-6.4999999999999432
 11
376.33533538381079
 21
-5721.5219374317339
 31
-5.5
 12
376.33533538381079
 22
278.47806256826573
 32
-5.5
 13
378.88533538381063
 23
278.47806256826573
 33
-6.4999999999999432
  0
3DFACE
  5
949
  8
LAYER1
 10
376.3353353838109
 20
278.47806256826561
 30
-4.5000000000000284
 11
378.8853353838108
 21
278.47806256826573
 31
-4.4999999999997957
 12
378.8853353838108
 22
-5721.5219374317339
 32
-4.4999999999997957
 13
376.33533538381079
 23
-5721.5219374317339
 33
-4.4999999999997957
  0
3DFACE
  5
94A
  8
LAYER1
 10
377.83533537820432
 20
-5721.5219374317339
 30
-2.0
 11
377.83533537820432
 21
-5721.5219374317339
 31
0.0
 12
380.33533538381062
 22
-5721.5219374317339
 32
0.0
 13
380.33533538381062
 23
-5721.5219374317339
 33
-2.019295702231382
  0
3DFACE
  5
94B
  8
LAYER1
 10
380.33532905820249
 20
-5721.5259324812268
 30
-17.999999001266701
 11
378.88533538381068
 21
-5721.5219374317339
 31
-18.0
 12
378.88533538381063
 22
-5721.5219374317339
 32
-2.0081041949622769
 13
380.33533538381062
 23
-5721.5219374317339
 33
-2.019295702231382
  0
3DFACE
  5
95A
  8
LAYER1
 10
390.0853084758769
 20
-5721.5047572221301
 30
-18.015535520199428
 11
391.14599555558351
 21
-5721.5219374317339
 31
-17.560660171786768
 12
391.14599555558351
 22
-5721.5219374317339
 32
-19.5
 13
390.0853084758769
 23
-5721.5219374317321
 33
-19.5
  0
3DFACE
  5
95B
  8
LAYER1
 10
391.14599555558351
 20
-5721.5219374317339
 30
-19.5
 11
395.78351085265177
 21
-5721.5219374317312
 31
-19.5
 12
395.7835108213452
 22
-5721.521937431733
 32
-18.0
 13
391.14599555558351
 23
-5721.5219374317339
 33
-17.560660171796702
  0
3DFACE
  5
95C
  8
LAYER1
 10
395.58533538381079
 20
-5721.5219374317339
 30
-18.0
 11
394.52467521203101
 21
-5721.5215624317771
 31
-17.560660171779901
 12
394.5312313312117
 22
-5721.521937431733
 32
-17.88136400108057
 13
395.58533538381079
 23
-5721.5219374317339
 33
-18.0
  0
3DFACE
  5
95D
  8
LAYER1
 10
394.53123133121147
 20
-5721.521937431733
 30
-17.881364001080541
 11
392.71637959582711
 21
-5721.5219374317339
 31
-17.709432135858471
 12
394.08533539989571
 22
-5721.5217177618269
 32
-16.500000038833068
 13
394.5312313312117
 23
-5721.521937431733
 33
-17.88136400108057
  0
3DFACE
  5
95E
  8
LAYER1
 10
394.08533539989571
 20
-5721.5217177618269
 30
-16.50000003883304
 11
391.13518581461619
 21
-5721.5217623437011
 31
-17.565295926084961
 12
391.14599555558351
 22
-5721.5219374317339
 32
-17.560660171779819
 13
392.71637959582711
 23
-5721.5219374317339
 33
-17.709432135858471
  0
3DFACE
  5
95F
  8
LAYER1
 10
394.08533539609152
 20
-5721.5217177618269
 30
-16.500000042193928
 11
391.58533538381062
 21
-5721.5219374317339
 31
-16.5
 12
391.58533538381062
 22
-5721.5219374317339
 32
-11.531088913245521
 13
394.0853353460821
 23
-5721.5217180671189
 33
-11.530781794199131
  0
3DFACE
  5
967
  8
LAYER1
 10
380.3353389424247
 20
-5721.5196899263583
 30
-18.000000561876242
 11
380.33533538381062
 21
-5721.5196899263583
 31
0.0
 12
380.3353353859934
 22
278.47806256826561
 32
0.0
 13
380.33497003781542
 23
278.47901825300318
 33
-18.00000278833474
  0
3DFACE
  5
968
  8
LAYER1
 10
378.88533538381063
 20
-5721.5219374317339
 30
-6.4999999999999432
 11
376.33533538381079
 21
-5721.5219374317339
 31
-5.5
 12
376.33533538381079
 22
-5721.5219374317339
 32
-4.4999999999997957
 13
378.8853353838108
 23
-5721.5219374317339
 33
-4.4999999999997957
  0
3DFACE
  5
969
  8
LAYER1
 10
378.88533538381068
 20
-5721.5219374317339
 30
-18.0
 11
378.88533538381063
 21
-5721.5219374317339
 31
-6.4999999999999432
 12
378.88533538381068
 22
278.47806256826578
 32
-6.4999999999999432
 13
378.88555930104638
 23
278.47806271588519
 33
-18.000002788334761
  0
3DFACE
  5
96A
  8
LAYER1
 10
380.33532906019877
 20
-5721.5259312204607
 30
-17.99495577308975
 11
390.08533538381079
 21
-5721.5259312204607
 31
-18.0
 12
390.08529733262009
 22
278.47805926796451
 32
-18.0002284563305
 13
380.3349700390894
 23
278.4582997261216
 33
-18.000002788327048
  0
3DFACE
  5
96B
  8
LAYER1
 10
398.88533568576418
 20
-5721.5219376078321
 30
-19.499999922575981
 11
380.78533538381038
 21
-5721.5219374317348
 31
-19.5
 12
380.78533510070338
 22
278.47806256826573
 32
-19.49999999954662
 13
398.88533538347832
 23
278.47806256754922
 33
-19.500450660568859
  0
3DFACE
  5
96C
  8
LAYER1
 10
389.83533538381062
 20
278.47806256826573
 30
-8.5
 11
389.83536237971538
 21
278.47806256633248
 31
-2.0000065503049331
 12
389.83538334006153
 22
-5721.5219374336666
 32
-2.0
 13
389.83533543633212
 23
-5721.5238565317086
 33
-8.5
  0
3DFACE
  5
974
  8
LAYER1
 10
395.43341159516399
 20
278.47806256826613
 30
-9.9999999999999485
 11
394.3353353838109
 21
278.47806256826613
 31
-11.098076211353231
 12
394.33533538629553
 22
-5721.5219374317339
 32
-11.098076208868459
 13
394.15232268191852
 23
-5721.5219374317339
 33
-11.281088913245499
  0
3DFACE
  5
975
  8
LAYER1
 10
395.43341159516399
 20
-5721.521937431733
 30
-9.9999999999999485
 11
395.83533538381062
 21
-5721.5219374317339
 31
-8.4999999999997993
 12
395.83533538370688
 22
278.47806260828929
 32
-8.4999999999997993
 13
395.43341168187862
 23
278.47846869716551
 33
-9.9999999132854214
  0
3DFACE
  5
976
  8
LAYER1
 10
394.23533538381059
 20
278.47602090229378
 30
-5.0000011909718172
 11
394.21527924760039
 21
278.47806256826698
 31
-8.7361248245903873
 12
394.23533538381059
 22
-5721.5219374317339
 32
-8.5
 13
394.23533538381059
 23
-5721.5219374317339
 33
-5.0
  0
3DFACE
  5
977
  8
LAYER1
 10
391.44561901120147
 20
-5721.521954080622
 30
-8.7578544139902554
 11
391.4353353838107
 21
-5721.5219374317339
 31
-1.5
 12
391.4353353838107
 22
278.47806256826573
 32
-1.5
 13
391.44771564572261
 23
278.47806256826613
 33
-8.7501711641774111
  0
3DFACE
  5
986
  8
LAYER1
 10
390.23725917245599
 20
278.47806256826237
 30
-9.9999999999953442
 11
391.3353353838105
 21
278.47806256826573
 31
-11.098076211353259
 12
389.83533543632632
 22
-5721.5219374317339
 32
-8.5000568170243174
 13
390.2372591724573
 23
-5721.5219374699518
 33
-9.9999999999999485
  0
3DFACE
  5
987
  8
LAYER1
 10
389.83533538381062
 20
-5721.5219374317339
 30
-2.0
 11
388.62822860262412
 21
-5721.5221040983897
 31
-1.7071067811865239
 12
388.62822860262412
 22
278.47806256826698
 32
-1.7071067811865479
 13
389.83533529616273
 23
278.47771197606681
 33
-1.9999999415680201
  0
3DFACE
  5
98F
  8
LAYER1
 10
378.88555930104638
 20
278.47806271588519
 30
-18.000002788334761
 11
380.33497003908923
 21
278.4582997261216
 31
-18.000002788327048
 12
380.33497003908911
 22
278.47806256826573
 32
-1.99999999999999
 13
378.88533538381063
 23
278.47806256826573
 33
-1.999999999999996
  0
3DFACE
  5
990
  8
LAYER1
 10
376.33533538381079
 20
278.47806256826613
 30
-5.5
 11
378.88533538381063
 21
278.47806256826613
 31
-6.4999999999999432
 12
378.8853703681487
 22
278.47806259132949
 32
-4.4998053670657194
 13
376.33533538381079
 23
278.47806259132949
 33
-4.5
  0
3DFACE
  5
992
  8
LAYER1
 10
380.47366791258088
 20
-5721.5113920064532
 30
-33.762242036860833
 11
380.67802339741638
 21
-5721.5155148781851
 31
-33.459550147951191
 12
379.36796837562201
 22
278.49093056702679
 32
-33.05377294891111
 13
379.03201193094009
 23
278.45609645761471
 33
-33.07483528485119
  0
3DFACE
  5
993
  8
LAYER1
 10
379.10000178067799
 20
278.49408128126879
 30
-33.729058486371819
 11
379.39883008944651
 21
278.50521110768528
 31
-33.955920210382402
 12
379.39882146794929
 22
-5721.5036149535599
 32
-33.955923824028318
 13
379.81033538390278
 23
-5721.5219374310454
 33
-34.025000474635952
  0
3DFACE
  5
994
  8
LAYER1
 10
378.83533538381067
 20
-5721.5226522499879
 30
-33.050000474651291
 11
378.8853343506417
 21
-5721.521937428889
 31
-17.999999999999599
 12
378.88555930100739
 22
278.47806271588519
 32
-18.00000000000005
 13
378.83533817875178
 23
278.48617387977089
 33
-33.050011544089038
  0
3DFACE
  5
995
  8
LAYER1
 10
380.7574534141508
 20
278.48692263595842
 30
-33.072667893008749
 11
380.67802339741638
 21
278.4844851211036
 31
-33.459550147951191
 12
380.6780228176807
 22
-5721.5129150571674
 32
-33.459549982777141
 13
380.47366791258088
 23
-5721.5113920064523
 33
-33.762242036860833
  0
3DFACE
  5
996
  8
LAYER1
 10
380.47701742738298
 20
-5721.5115834057742
 30
-33.75414184558084
 11
380.29703873996817
 21
-5721.5127994246313
 31
-33.902544723521999
 12
380.47674416584459
 22
278.48854592942831
 32
-33.757685482326039
 13
380.67167777609649
 23
278.4885465193716
 33
-33.46412123317554
  0
3DFACE
  5
997
  8
LAYER1
 10
379.39883008944651
 20
278.50521110768528
 30
-33.955920210382402
 11
379.87650266629038
 21
278.48692447882638
 31
-34.02480504417678
 12
379.81033538390278
 22
-5721.5219374310454
 32
-34.025000474635952
 13
379.39882146794929
 23
-5721.5036149535599
 33
-33.955923824028318
  0
3DFACE
  5
9A2
  8
LAYER1
 10
360.06033691085162
 20
278.47806256790699
 30
-16.999998472975239
 11
359.66672915763439
 21
278.45777709177941
 31
-16.832037935054078
 12
359.35340227363639
 22
278.45526336785218
 32
-16.293276824279172
 13
360.06033538382621
 23
278.47806256827562
 33
-16.293277298921431
  0
3DFACE
  5
9A3
  8
LAYER1
 10
360.0603353838323
 20
278.47806256827607
 30
-16.999999999994699
 11
360.0603353838323
 21
278.47806256827607
 31
-16.999999999994699
 12
360.06033538382621
 22
278.47806256827562
 32
-16.293277298921431
 13
360.8034028579246
 23
278.45526336785218
 33
-16.293276824270151
  0
3DFACE
  5
9A4
  8
LAYER1
 10
360.0603353838323
 20
278.47806256827607
 30
-16.999999999994699
 11
360.59298903830017
 21
278.45678066782511
 31
-16.803146902559831
 12
360.80340227363592
 22
278.45630694716868
 32
-16.293276824279129
 13
360.0603353838323
 23
278.47806256827607
 33
-16.999999999994699
  0
3DFACE
  5
9A5
  8
LAYER1
 10
360.68209668877898
 20
278.4888823455322
 30
-16.70464963591375
 11
360.79544373205289
 21
278.45490415107821
 31
-16.400957264779642
 12
360.8032210338036
 22
278.45630735520899
 32
-16.293716001821029
 13
360.68209668877898
 23
278.4888823455322
 33
-16.70464963591375
  0
3DFACE
  5
9A7
  8
LAYER1
 10
359.33533538381079
 20
278.47806256826573
 30
-16.275215931128109
 11
359.66672915763439
 21
278.45777709177941
 31
-16.832037935054078
 12
359.5851503509889
 22
-5721.5219374317339
 32
-16.82256203719977
 13
359.3353353838088
 23
-5721.521937431733
 33
-16.27499999999997
  0
3DFACE
  5
9A8
  8
LAYER1
 10
359.5851502787076
 20
-5721.5219374335611
 30
-16.822561986483009
 11
359.70109205783342
 21
-5721.519003079944
 31
-16.903913387370451
 12
359.67395097353159
 22
278.49849193500182
 32
-16.832037935054078
 13
359.33536419947973
 23
278.47806080438352
 33
-16.275264348448459
  0
3DFACE
  5
9A9
  8
LAYER1
 10
359.67395097353159
 20
278.49849193500182
 30
-16.832037935054078
 11
360.06033691085821
 21
278.47806256790699
 31
-17.000001527259339
 12
360.05434182922062
 22
-5721.5185750319897
 32
-16.99565590915147
 13
359.70109205539973
 23
-5721.5185781541222
 33
-16.903913382280159
  0
3DFACE
  5
9AA
  8
LAYER1
 10
360.06033538381081
 20
278.47806256827522
 30
-16.999999999983899
 11
360.59298903830017
 21
278.45678066782511
 31
-16.803146902559831
 12
360.5749221484694
 22
-5721.5204201317601
 32
-16.784870078285788
 13
360.3633496445218
 23
-5721.519375888789
 33
-16.932363418426281
  0
3DFACE
  5
9AB
  8
LAYER1
 10
360.06033538381081
 20
-5721.5219374317339
 30
-17.00000000000005
 11
360.36386148424731
 21
-5721.5193775833186
 31
-16.932228836369241
 12
360.35171660167879
 22
278.46642058287063
 32
-16.89231408666938
 13
360.06033538377909
 23
278.47806256827641
 33
-16.999999999995651
  0
3DFACE
  5
9CA
  8
LAYER1
 10
391.14725630890121
 20
-5721.521763060714
 30
-17.56094551495811
 11
391.58533538381062
 21
-5721.5219374317339
 31
-16.5
 12
394.08533539989571
 22
-5721.5217177618269
 32
-16.500000038833029
 13
391.14725630890121
 23
-5721.521763060714
 33
-17.56094551495811
  0
3DFACE
  5
9CB
  8
LAYER1
 10
391.45971105909632
 20
-5721.521937431733
 30
-8.7601109710393033
 11
389.83533543633212
 21
-5721.5238565317086
 31
-8.5
 12
389.83536237974249
 22
-5721.521937431733
 32
-1.9999999999999569
 13
391.4353353838107
 23
-5721.521937431733
 33
-1.4999999999999569
  0
3DFACE
  5
9CC
  8
LAYER1
 10
388.33533538381067
 20
-5721.5219374317376
 30
0.0
 11
389.93533538379728
 21
-5721.5219374317376
 31
0.0000000000055371
 12
389.83536237971538
 22
-5721.5219374336666
 32
-2.0000065503048861
 13
388.6285410385521
 23
-5721.5221040552506
 33
-1.7071825908547571
  0
3DFACE
  5
9CD
  8
LAYER1
 10
388.62806128170621
 20
-5721.5221040983897
 30
-1.706702832798674
 11
388.33533538381062
 21
-5721.5219374317367
 31
-1.0
 12
388.33533538381067
 22
-5721.5219374317376
 32
0.0
 13
388.62822860262412
 23
-5721.5219374317376
 33
-1.7071067811865239
  0
3DFACE
  5
9DC
  8
LAYER1
 10
391.58533538381062
 20
-5721.5219374317339
 30
-11.531088913245521
 11
392.83533536494627
 21
-5721.5218277494268
 31
-11.530935353722329
 12
392.83533538379692
 22
-5721.5219374317339
 32
-9.8999999999999773
 13
391.44771564572312
 23
-5721.521937431733
 33
-8.7501711641774396
  0
3DFACE
  5
9DD
  8
LAYER1
 10
394.22401484685832
 20
-5721.5219374317321
 30
-8.7287570269867665
 11
394.08533538381067
 21
-5721.5219374317312
 31
-11.53108891324549
 12
392.83533536494463
 22
-5721.5218277391023
 32
-11.531088891420911
 13
392.83533538379692
 23
-5721.5219374317339
 33
-9.8999999999862212
  0
3DFACE
  5
9DE
  8
LAYER1
 10
394.21527924760028
 20
-5721.5219374317321
 30
-8.7361248246089662
 11
395.83533538381062
 21
-5721.5219374317339
 31
-8.5
 12
395.8353352310329
 22
-5721.5228540983617
 32
-3.0000001527777731
 13
394.2353353838098
 23
-5721.5228540983617
 33
-1.500000000001932
  0
3DFACE
  5
9E4
  8
LAYER1
 10
396.12822860262281
 20
-5721.5219374317339
 30
-2.2928932188165412
 11
394.67467521203082
 21
-5721.5219374317321
 31
-0.4393398282201788
 12
394.2353353838098
 22
-5721.5219374317339
 32
-1.5000000000018869
 13
395.83533538379618
 23
-5721.521937431723
 33
-3.0000000000348752
  0
3DFACE
  5
9E8
  8
LAYER1
 10
396.8507930806249
 20
-5721.521938136164
 30
-2.0000338830095821
 11
395.7678010610262
 21
-5721.5219396119201
 31
-0.0915554340036712
 12
394.67467521203213
 22
-5721.521937431733
 32
-0.4393398282218666
 13
396.12822860262412
 23
-5721.5219374317221
 33
-2.2928932188134179
  0
3DFACE
  5
9E9
  8
LAYER1
 10
400.8353354936641
 20
-5721.5219373104001
 30
0.0000004169295327
 11
396.61401504025559
 21
-5721.5219374317339
 31
0.0000000000004547
 12
395.76880033505898
 22
-5721.5219396093453
 32
-0.0914473183615089
 13
396.8507930806249
 23
-5721.521938136164
 33
-2.0000338830095958
  0
3DFACE
  5
9EA
  8
LAYER1
 10
400.8353354936641
 20
-5721.5219373104001
 30
0.0000004169295491
 11
398.33520124452559
 21
-5721.5219934915749
 31
-1.999938736933861
 12
396.83533533009961
 22
-5721.5219374317339
 32
-2.0
 13
399.83563131521629
 23
-5721.5220495725016
 33
-1.9998774508243671
  0
3DFACE
  5
9EB
  8
LAYER1
 10
399.83563131521629
 20
-5721.5220495725016
 30
-1.9998774508243671
 11
399.8353353651205
 21
-5721.5220495725016
 31
-2.0000000373802558
 12
400.83533535603277
 22
-5721.5219373104164
 32
0.0000001416669959
 13
399.8353353651205
 23
-5721.5220495725016
 33
-2.0000000373802558
  0
3DFACE
  5
9EC
  8
LAYER1
 10
399.8353353651205
 20
-5721.5220495725016
 30
-2.0000000373802558
 11
400.54244216499728
 21
-5721.5220495724998
 31
-1.7071067811864959
 12
400.83533538381067
 22
-5721.5220495724989
 32
-1.000000000005911
 13
400.83533535603277
 23
-5721.522049572467
 33
0.0000001416669996
  0
3DFACE
  5
9F4
  8
LAYER1
 10
396.12806916950092
 20
278.4780624469322
 30
-2.2928936913118458
 11
394.67451577890893
 21
278.47806244693402
 31
-0.4393403007154837
 12
394.2351759506879
 22
278.4780624469322
 32
-1.500000472497192
 13
395.83517595067428
 23
278.47806244694311
 33
-3.0000004725301799
  0
3DFACE
  5
9F5
  8
LAYER1
 10
400.83517606054221
 20
278.47806256826613
 30
-0.0000000555657723
 11
396.6138556071337
 21
278.47806244693129
 31
-0.0000004724948502
 12
395.4245157789108
 22
278.47806244693402
 32
-0.1286801289348723
 13
396.92333801933802
 23
278.47791919518022
 33
-1.9997230689532279
  0
3DFACE
  5
9F6
  8
LAYER1
 10
400.83517606054221
 20
278.47806256826613
 30
-0.0000000555657558
 11
398.33533538381067
 21
278.47806256826698
 31
-2.0
 12
396.83517589697772
 22
278.4780624469322
 32
-2.0000004724953051
 13
399.8354718820944
 23
278.47795030616362
 33
-1.999877923319672
  0
3DFACE
  5
9F7
  8
LAYER1
 10
399.83517593199861
 20
278.47795030616362
 30
-2.0000005098755609
 11
400.54228273187539
 21
278.47795030616538
 31
-1.7071072536818011
 12
400.83517595068878
 22
278.47795030616732
 32
-1.0000004725012159
 13
400.83517592291088
 23
278.4779503062
 33
-0.0000003308283054
  0
3DFACE
  5
A01
  8
LAYER1
 10
394.52441985924582
 20
278.477842926015
 30
-17.56148163063882
 11
393.41851098274572
 21
278.4779772727544
 31
-17.65197727961057
 12
394.08594598382831
 22
278.47806241087068
 32
-16.50147411884371
 13
394.524419859246
 23
278.477842926015
 33
-17.561481630638848
  0
3DFACE
  5
A02
  8
LAYER1
 10
394.08533681729949
 20
278.47806241094082
 30
-16.502011403927941
 11
391.14629239436499
 21
278.47823764508632
 31
-17.56055326083791
 12
391.14599555558351
 22
278.4780625682651
 32
-17.560660171779858
 13
393.41851098274572
 23
278.4779772727544
 33
-17.65197727961057
  0
3DFACE
  5
A03
  8
LAYER1
 10
394.08594565176998
 20
278.47828193288018
 30
-16.498771291962282
 11
391.58533538381062
 21
278.4780625682651
 31
-16.500000000000039
 12
391.58533538381062
 22
278.4780625682651
 32
-11.53108891324557
 13
394.0853353460821
 23
278.47828193287933
 33
-11.53078179419917
  0
3DFACE
  5
A04
  8
LAYER1
 10
391.44771564572312
 20
278.47806256826613
 30
-8.7501711641774822
 11
389.83533543633212
 21
278.47614346828959
 31
-8.5000000000000426
 12
389.83536237974249
 22
278.47806256826613
 32
-2.0
 13
391.4353353838107
 23
278.47806256826613
 33
-1.5
  0
3DFACE
  5
A05
  8
LAYER1
 10
388.33533538381067
 20
278.47806256826152
 30
-0.0000000000000426
 11
389.93533538379728
 21
278.47806256826061
 31
0.0000000000054945
 12
389.83536237971538
 22
278.47806256633248
 32
-2.0000065503049278
 13
388.6285410385521
 23
278.47789594474762
 33
-1.7071825908547991
  0
3DFACE
  5
A06
  8
LAYER1
 10
391.58533538381062
 20
278.4780625682651
 30
-11.53108891324557
 11
392.83533536494627
 21
278.47817225057219
 31
-11.53093535372237
 12
392.83533538379692
 22
278.4780625682651
 32
-9.9000000000000181
 13
391.44771995250699
 23
278.47806256826613
 33
-8.7501747329248385
  0
3DFACE
  5
A07
  8
LAYER1
 10
394.21527924760142
 20
278.47806224911329
 30
-8.7361248245778143
 11
394.08533538381067
 21
278.47806256826789
 31
-11.53108891324554
 12
392.83533536494463
 22
278.47817226089768
 32
-11.53108889142095
 13
392.83533538379692
 23
278.4780625682651
 33
-9.8999999999862638
  0
3DFACE
  5
A08
  8
LAYER1
 10
394.21527924760028
 20
278.47806256826698
 30
-8.7361248246090089
 11
395.83533538381062
 21
278.4780625682651
 31
-8.5000000000000426
 12
395.8353352310329
 22
278.4771459016365
 32
-3.0000001527778148
 13
394.2353353838098
 23
278.47714590163741
 33
-1.5000000000019751
  0
3DFACE
  5
A10
  8
LAYER1
 10
380.78535330988882
 20
278.47806256826573
 30
-19.5
 11
389.83578283566249
 21
278.4588328095308
 31
-19.498293278607061
 12
390.08533538381062
 22
278.47806256826431
 32
-18.0
 13
380.78526591596892
 23
278.47806283837809
 33
-18.000085840918771
  0
3DFACE
  5
A18
  8
LAYER1
 10
390.2372591724606
 20
278.47806256826237
 30
-9.9999999999999485
 11
391.51834808570283
 21
278.47806256826573
 31
-11.28108891324548
 12
391.44771564572312
 22
278.47806256826613
 32
-8.7501711641774822
 13
389.84028787347
 23
278.47614931928968
 33
-8.5007930328520942
  0
3DFACE
  5
A19
  8
LAYER1
 10
398.88533538381063
 20
278.47806256826573
 30
-35.025000000000013
 11
400.8349448323919
 21
278.4780475340558
 31
-35.025005680439087
 12
400.83533539207838
 22
278.47806257098568
 32
-18.99999999999897
 13
398.88533538347832
 23
278.47806256754922
 33
-19.500450660568841
  0
3DFACE
  5
A21
  8
LAYER1
 10
395.43341168187862
 20
278.47806256826613
 30
-9.9999999132854267
 11
394.12122628583222
 21
278.4780625682659
 31
-11.345070781941709
 12
394.21527924760142
 22
278.47806224911329
 32
-8.7361248245778143
 13
395.83533538370688
 23
278.47806256832428
 33
-8.4999999999997993
  0
3DFACE
  5
A22
  8
LAYER1
 10
379.81033498081678
 20
-5721.5219374130984
 30
-34.025000406973987
 11
380.27078952615659
 21
-5721.5220937455133
 31
-33.920956649963912
 12
380.2707923210977
 22
278.48673238424573
 32
-33.920967719401659
 13
379.87650266589162
 23
278.48688831967678
 33
-34.024805044177953
  0
3DFACE
  5
A31
  8
LAYER1
 10
379.09805921398612
 20
278.49400893059288
 30
-33.727583746476569
 11
378.83533817875178
 21
278.48617387977089
 31
-33.050011544089038
 12
378.8598557342608
 22
-5721.5228433124757
 32
-33.050000474651249
 13
378.91110958409638
 23
-5721.5226522499879
 33
-33.42517983982831
  0
3DFACE
  5
A32
  8
LAYER1
 10
378.91110958409638
 20
-5721.5226522499879
 30
-33.42517983982831
 11
379.09999898573687
 21
-5721.5147448484913
 31
-33.729047416934073
 12
379.10000178067799
 22
278.49408128126839
 32
-33.729058486371819
 13
379.39856735133151
 23
278.50520132203411
 33
-33.955720747279493
  0
3DFACE
  5
A33
  8
LAYER1
 10
378.8853343506417
 20
-5721.521937428889
 30
-18.000000000000711
 11
378.88533538381068
 21
-5721.5219374317339
 31
-19.500000000005102
 12
378.8853343506417
 22
-5721.521937428889
 32
-18.000000000000711
 13
390.0853101684873
 23
-5721.5045774719038
 33
-18.0000043399892
  0
3DFACE
  5
A34
  8
LAYER1
 10
380.32546900624641
 20
-5721.5197052208841
 30
-18.000000558052609
 11
378.88533435064278
 21
-5721.5219374288872
 31
-18.000001549983381
 12
378.88533538381063
 22
-5721.5219374317339
 32
-2.0081041949622769
 13
380.33533538381062
 23
-5721.5219374317339
 33
-2.019295702231382
  0
3DFACE
  5
A59
  8
LAYER1
 10
360.78533538381089
 20
-5721.5208938524156
 30
-16.274999999999931
 11
359.3353353838088
 21
-5721.5208938524174
 31
-16.275000000037529
 12
359.33533538381062
 22
-5721.521937431733
 32
-2.0
 13
360.78533538381078
 23
-5721.521937431733
 33
-1.999999999999988
  0
3DFACE
  5
A5A
  8
LAYER1
 10
360.78533538381089
 20
-5721.5216084575177
 30
-6.4999999999999707
 11
360.78533538381072
 21
-5721.5219374317348
 31
-4.5000000000000009
 12
363.33533538381079
 22
-5721.5219374315402
 32
-4.5
 13
363.33533538381067
 23
-5721.5219374315438
 33
-5.5
  0
3DFACE
  5
A5C
  8
LAYER1
 10
369.83533538381067
 20
-5721.521937431733
 30
-2.0
 11
369.83533538381067
 21
-5721.5219374317339
 31
-0.4999999999999218
 12
377.33636760791472
 22
-5721.5219374317348
 32
-0.5000000000000285
 13
377.23538855048031
 23
-5721.5219374317339
 33
-2.0
  0
3DFACE
  5
A6B
  8
LAYER1
 10
389.83578283566249
 20
278.45641809539569
 30
-19.498293278630261
 11
392.34908279149101
 21
278.47806256780808
 31
-19.4999442000309
 12
393.4185109827439
 22
278.4779772727544
 32
-17.651977279610499
 13
390.08533538382193
 23
278.47806256826431
 33
-17.99999999999882
  0
3DFACE
  5
A6C
  8
LAYER1
 10
393.41851098274572
 20
278.4779772727544
 30
-17.65197727961057
 11
391.14599555559539
 21
278.47806256826499
 31
-17.560660171774739
 12
390.08533538381062
 22
278.47806256826431
 32
-18.0
 13
393.41851098274572
 23
278.4779772727544
 33
-17.65197727961057
  0
3DFACE
  5
A6D
  8
LAYER1
 10
398.88532243036258
 20
278.47734785023403
 30
-35.02500000000127
 11
400.83534086508712
 21
278.4780596873407
 31
-35.023076711663137
 12
400.8353353924976
 22
278.47806256754927
 32
-19.001231035427281
 13
398.8853353835143
 23
278.47807370047991
 33
-19.5004506604608
  0
3DFACE
  5
A6E
  8
LAYER1
 10
377.33533537786718
 20
278.47806256826573
 30
-1.999999999999984
 11
377.33526339392932
 21
278.47806256826698
 31
-0.5
 12
362.33533537786712
 22
278.47806256826698
 32
-0.5
 13
362.33533537786712
 23
278.47806256826573
 33
-1.9999999999999989
  0
3DFACE
  5
A6F
  8
LAYER1
 10
359.33533538381079
 20
278.47806256826573
 30
-16.275215931128109
 11
360.7599022754552
 21
278.45659807638521
 31
-16.29327685205714
 12
360.78533538381078
 22
278.47806256826573
 32
-2.0
 13
359.33533538381062
 23
278.47806256826573
 33
-1.9999999999999429
  0
3DFACE
  5
A78
  8
LAYER1
 10
391.58289238706789
 20
-5721.5219374317339
 30
-11.481722644298911
 11
390.2372591724573
 21
-5721.521937431733
 31
-9.9999999999999485
 12
389.83829286786232
 22
-5721.5238530376864
 32
-8.5004735729694101
 13
391.45971106680622
 23
-5721.5238351947328
 33
-8.76011105331294
  0
3DFACE
  5
A90
  8
LAYER1
 10
360.78533538381089
 20
-5721.5216084614904
 30
-6.4999456744333877
 11
363.33533538381079
 21
-5721.5216084614849
 31
-5.5
 12
360.78533538381078
 22
278.47806256826573
 32
-6.5
 13
363.33533538381067
 23
278.47822923492771
 33
-5.5000000277777872
  0
3DFACE
  5
A91
  8
LAYER1
 10
360.78553258963132
 20
-5721.5219374316657
 30
-4.5000000000000009
 11
360.78533538381072
 21
-5721.52085368186
 31
-1.9999999999999989
 12
360.78533538381078
 22
278.47806256826573
 32
-1.999999999999996
 13
360.78533538381072
 23
278.47806256826573
 33
-4.5
  0
3DFACE
  5
A92
  8
LAYER1
 10
360.78533538414808
 20
-5721.52085368186
 30
-2.0018315843840981
 11
377.83533537820432
 21
-5721.5219374317339
 31
-2.0
 12
377.33526340957479
 22
278.47806256826698
 32
-0.5003260213720051
 13
362.33533537786701
 23
278.47806256826698
 33
-0.4999999999999716
  0
3DFACE
  5
A9A
  8
LAYER1
 10
388.3353353838101
 20
-5721.521937431733
 30
0.0
 11
389.9353322850389
 21
-5721.5241640940876
 31
0.0
 12
389.93533508764892
 22
278.47806256826073
 32
-0.0000059245776924
 13
389.42560077251977
 23
278.4780625682609
 33
0.0000000000037305
  0
3DFACE
  5
A9B
  8
LAYER1
 10
388.3353353838109
 20
278.47806256826573
 30
-0.0000002196510326
 11
389.93533538381553
 21
278.47806254093399
 31
0.0000000000054945
 12
389.42560076910922
 22
-5721.5219374317376
 32
0.0000000000037731
 13
388.33533538381067
 23
-5721.5219374317376
 33
0.0
  0
3DFACE
  5
A9C
  8
LAYER1
 10
389.93532918627409
 20
-5721.5241640897748
 30
0.0
 11
390.99599555559053
 21
-5721.5219374317339
 31
-0.4393398282201789
 12
390.99599555559053
 22
278.47806256826613
 32
-0.4393398282201788
 13
389.93533535857762
 23
278.478062568273
 33
0.0
  0
3DFACE
  5
AA4
  8
LAYER1
 10
398.88624807789722
 20
-5721.5226522499879
 30
-35.029519004962829
 11
398.88533538381029
 21
-5721.5219374317339
 31
-23.999999997085379
 12
398.88533206574022
 22
278.47806256775692
 32
-23.99999869879597
 13
398.8853224303752
 23
278.47726650835051
 33
-35.025000000061297
  0
3DFACE
  5
AA5
  8
LAYER1
 10
398.88533354043648
 20
278.47806256766461
 30
-21.999998549306341
 11
398.88533538184009
 21
278.47755461591311
 31
-19.500450665497659
 12
398.88533568576418
 22
-5721.5219376078321
 32
-19.499999922575981
 13
398.88579257148712
 23
-5721.5219374317339
 33
-22.000000000000011
  0
3DFACE
  5
AAD
  8
LAYER1
 10
358.13533538381063
 20
-5721.5219374317339
 30
-0.7999999999999523
 11
358.13533538381063
 21
-5721.4904369902188
 31
2.000000000177796
 12
358.13533538381051
 22
278.47806256826573
 32
1.9999999999999989
 13
358.13533538381063
 23
278.47806256826573
 33
-0.7999999999999546
  0
3DFACE
  5
AAE
  8
LAYER1
 10
394.6744034564897
 20
278.47806244693402
 30
-0.4396114710232664
 11
395.73533397958357
 21
278.47663454008438
 31
-0.0000012495244732
 12
396.85185232394878
 22
-5721.5219381372817
 32
-1.99960458364948
 13
396.12790214025142
 23
-5721.521937372926
 33
-2.2930134195536311
  0
3DFACE
  5
AAF
  8
LAYER1
 10
395.76880033505802
 20
-5721.521937431733
 30
-0.0914473183369691
 11
394.67467521205128
 21
-5721.521937431733
 31
-0.4393398282139092
 12
394.67440349379712
 22
278.47790844312289
 32
-0.4396115185950938
 13
395.7353339795834
 23
278.47663454008438
 33
-0.0000012495245354
  0
3DFACE
  5
AB0
  8
LAYER1
 10
395.76880033506188
 20
-5721.521937431733
 30
-0.0914473183611801
 11
398.28528094026638
 21
-5721.5219374317339
 31
-0.0000000000030246
 12
398.2853355540409
 22
278.47740361177569
 32
-0.0000002196521637
 13
395.77701766666729
 23
278.47806244693322
 33
-0.0905414735778603
  0
3DFACE
  5
ABF
  8
LAYER1
 10
377.33526340957479
 20
278.47806256826698
 30
-0.500326021372014
 11
377.83533537820432
 21
278.47806256826573
 31
0.0
 12
377.83533537602148
 22
-5721.5219374317339
 32
0.0
 13
377.33533453673232
 23
-5721.5223332599144
 33
-0.4999988455011249
  0
3DFACE
  5
AC0
  8
LAYER1
 10
377.33533439859781
 20
-5721.5223982644238
 30
-0.4999986559046619
 11
369.83533537786712
 21
-5721.5223982644238
 31
-0.5000000000000001
 12
369.8352993937209
 22
278.47806256826698
 32
-0.5001630106859885
 13
377.33545011989219
 23
278.47806256826698
 33
-0.5001392161997798
  0
3DFACE
  5
ACF
  8
LAYER1
 10
377.33533537786718
 20
278.47806256826573
 30
-1.999999999999996
 11
377.33526344081611
 21
278.47768772528661
 31
-0.5003261150623826
 12
377.33513635012929
 22
-5721.521937431733
 32
-0.5001990277377219
 13
377.23538855048031
 23
-5721.5219374317339
 33
-2.0
  0
3DFACE
  5
B00
  8
LAYER1
 10
396.12806916950092
 20
278.4780624469322
 30
-2.2928936913118458
 11
396.92699596453423
 21
278.4780585246985
 31
-1.9978023027587819
 12
395.4245157789108
 22
278.47806244693402
 32
-0.1286801289348723
 13
394.6744034564897
 23
278.47806244693402
 33
-0.4396114710232664
  0
3DFACE
  5
B01
  8
LAYER1
 10
388.62848346799592
 20
278.4778959774639
 30
-1.7068473877315771
 11
388.33533542153538
 21
278.47806256826777
 31
-0.0000002196510272
 12
388.33533538381062
 22
278.47806256826777
 32
-0.9999999999998882
 13
388.62848346799592
 23
278.4778959774639
 33
-1.7068473877315771
  0
3DFACE
  5
B02
  8
LAYER1
 10
391.4353353838107
 20
278.47806256826573
 30
-1.5
 11
389.83533529616273
 21
278.47771197606681
 31
-1.9999999415680201
 12
389.93533535857762
 22
278.47804316344798
 32
0.0000000065980927
 13
391.4353353838107
 23
278.47806256826573
 33
-1.5
  0
3DFACE
  5
B03
  8
LAYER1
 10
388.33533538377321
 20
278.47806256826777
 30
-0.9999999999095667
 11
388.33533518743161
 21
278.47806256825459
 31
-0.0000002196510603
 12
388.33533518402101
 22
-5721.5219374317376
 32
0.0
 13
388.33533534214388
 23
-5721.5221040984416
 33
-0.9999999722222162
  0
3DFACE
  5
B04
  8
LAYER1
 10
388.33533538381062
 20
-5721.5219374317339
 30
-0.999999999999888
 11
388.62822860262412
 21
-5721.5221040983897
 31
-1.7071067811865239
 12
388.62855737988519
 22
278.47789593546111
 32
-1.7072777378584849
 13
388.33533538381062
 23
278.47789593546111
 33
-1.0
  0
3DFACE
  5
B05
  8
LAYER1
 10
389.9353322850389
 20
-5721.5241640940876
 30
0.0
 11
389.42560058362039
 21
-5721.5241207894414
 31
0.0000000000037707
 12
389.4256005721096
 22
278.47806256826777
 32
0.0
 13
389.93533538381553
 23
278.47806256826061
 33
0.0000000000054945
  0
3DFACE
  5
B0D
  8
LAYER1
 10
388.62822860262747
 20
278.47806256826698
 30
-1.7071067811873779
 11
388.33533542153538
 21
278.47806256826777
 31
-0.0000002196511847
 12
388.33533538381221
 22
278.47806256826777
 32
-1.000000000003662
 13
388.62822850676781
 23
278.47853902761739
 33
-1.7071064998457071
  0
3DFACE
  5
B0E
  8
LAYER1
 10
388.33533518743133
 20
278.47806256826777
 30
0.0000011448074462
 11
389.43155114060391
 21
278.4780625495398
 31
-0.0000000691566913
 12
388.33533518402101
 22
-5721.5241207894387
 32
0.0000000000000799
 13
389.42560058362039
 23
-5721.5219374317339
 33
0.0000000000037707
  0
3DFACE
  5
B0F
  8
LAYER1
 10
390.99599551444879
 20
278.47773683237023
 30
-0.4393399332498204
 11
391.4353353838107
 21
278.4780625682651
 31
-1.5
 12
391.43533538381058
 22
-5721.5219374317312
 32
-1.5
 13
390.99599555559053
 23
-5721.5219374317339
 33
-0.4393398282201788
  0
3DFACE
  5
B17
  8
LAYER1
 10
391.43533538380888
 20
-5721.5219374317312
 30
-1.499999999995991
 11
390.99599558304908
 21
-5721.5220927618093
 31
-0.4393398395939983
 12
389.93532918627409
 22
-5721.5241640938248
 32
0.0
 13
389.83536237971538
 23
-5721.5219374336666
 33
-2.000006550304501
  0
3DFACE
  5
B18
  8
LAYER1
 10
399.83533525397149
 20
-5721.5216193185079
 30
-1.999999893962259
 11
398.33533538381062
 21
-5721.5216193185079
 31
-2.0
 12
400.83511022018399
 22
-5721.522049572467
 32
-0.000450130074944
 13
399.83563949696452
 23
-5721.5220495725016
 33
-1.999874061832956
  0
3DFACE
  5
B19
  8
LAYER1
 10
398.33533538381067
 20
278.47758993722317
 30
-2.0
 11
396.91962268282629
 21
278.47805856089673
 31
-2.0005256961296429
 12
400.8353351632328
 22
278.47673910039839
 32
-0.0000004411558905
 13
398.33532388953608
 23
278.47800637654791
 33
-1.9999391979074881
  0
3DFACE
  5
B1A
  8
LAYER1
 10
362.33533537786712
 20
278.47806256826573
 30
-1.9999999999999989
 11
361.83533537820398
 21
278.47806256826573
 31
-1.9999999999999989
 12
361.83533537820398
 22
278.47806256826613
 32
0.0
 13
362.33533537683002
 23
278.47805855423189
 33
-0.5000000010047075
  0
3DFACE
  5
B1B
  8
LAYER1
 10
377.83533537820432
 20
278.47806256826573
 30
-1.999999999999984
 11
377.33533537800599
 21
278.47807089716798
 31
-1.999999999999996
 12
377.33526344081611
 22
278.47768772528661
 32
-0.5003261150623823
 13
377.83533537820432
 23
278.47806256826573
 33
0.0
  0
3DFACE
  5
B1C
  8
LAYER1
 10
377.83533537820432
 20
-5721.5219374317339
 30
-2.0
 11
377.23538855048031
 21
-5721.5219374317339
 31
-1.9999999999999989
 12
377.33511616347772
 22
-5721.521937431733
 32
-0.5005025528262511
 13
377.83529962326702
 23
-5721.5219374600374
 33
-0.0000357526119062
  0
3DFACE
  5
B1D
  8
LAYER1
 10
394.5312313312117
 20
-5721.521937431733
 30
-17.88136400108057
 11
394.0859459838058
 21
-5721.5217180671189
 31
-16.501474118789741
 12
394.52467307411678
 22
-5721.519201975304
 32
-17.560654559234081
 13
394.5312313312117
 23
-5721.521937431733
 33
-17.88136400108057
  0
3DFACE
  5
B3C
  8
LAYER1
 10
400.54244216502519
 20
278.4780625682647
 30
-18.29289321883871
 11
400.83533539241017
 21
278.47806256826573
 31
-19.000974394195381
 12
400.83567988312268
 22
-5721.521937431733
 32
-19.000831696909671
 13
400.54244216499819
 23
-5721.5219374317248
 33
-18.292893218816118
  0
3DFACE
  5
B3D
  8
LAYER1
 10
398.88533538381029
 20
-5721.521937431733
 30
-23.999999997252608
 11
396.33533538381062
 21
-5721.5219374317339
 31
-23.000000000000028
 12
396.33533538381062
 22
278.47806256826613
 32
-22.999999997953669
 13
398.8853351144669
 23
278.47889131817863
 33
-24.000000000000028
  0
3DFACE
  5
B3E
  8
LAYER1
 10
398.88533329879073
 20
278.47794789570179
 30
-22.00000344570476
 11
396.33533538381067
 21
278.47794789570179
 31
-22.000000000000011
 12
396.33533538595071
 22
-5721.5219374317339
 32
-22.0
 13
398.88578658719211
 23
-5721.5219374317867
 33
-21.999254341171611
  0
3DFACE
  5
B3F
  8
LAYER1
 10
398.88533538379011
 20
-5721.5219374317339
 30
-19.50052871187215
 11
399.55478978933331
 21
-5721.5220367916318
 31
-17.999999999998931
 12
400.54244216499831
 22
-5721.5220367916318
 32
-18.292893218816161
 13
400.83567988312848
 23
-5721.5220367916327
 33
-19.00083169690723
  0
3DFACE
  5
B40
  8
LAYER1
 10
399.55480538978611
 20
-5721.5220367939473
 30
-17.99996503282706
 11
399.83533538381062
 21
-5721.5219374317339
 31
-18.0
 12
400.54244216499711
 22
-5721.5219374317339
 32
-18.292893218815671
 13
399.55480538978611
 23
-5721.5220367939473
 33
-17.99996503282706
  0
3DFACE
  5
B4F
  8
LAYER1
 10
391.58533540905978
 20
278.47806256826738
 30
-16.49999999998764
 11
391.58472499016813
 21
278.47806251470621
 31
-11.531088988232341
 12
391.58289238706777
 22
-5721.5219374317339
 32
-11.48172264429888
 13
391.58289230239052
 23
-5721.521937646402
 33
-16.49999999995876
  0
3DFACE
  5
B50
  8
LAYER1
 10
391.58289238706777
 20
-5721.5219374317339
 30
-11.481722644297649
 11
390.2372591724573
 21
-5721.5219374317367
 31
-9.9999999999999858
 12
390.23725917575428
 22
278.47806256826237
 32
-10.00000001230425
 13
391.51834808570283
 23
278.47806256826573
 33
-11.28108891324548
  0
3DFACE
  5
B51
  8
LAYER1
 10
394.08594560188698
 20
278.47828193288018
 30
-16.4983652362274
 11
391.58533540914959
 21
278.4782829510898
 31
-16.499999999987629
 12
391.14599555551848
 22
278.47823766278469
 32
-17.560660171856771
 13
394.08386406393907
 23
278.47806249842552
 33
-16.502542209249999
  0
3DFACE
  5
B52
  8
LAYER1
 10
396.33533538381062
 20
278.47806254533151
 30
-23.000000000000028
 11
396.33533538381062
 21
278.47794789570179
 31
-22.000000000000011
 12
396.3353353859506
 22
-5721.5219374317339
 32
-22.0
 13
396.33533538381062
 23
-5721.5219374317339
 33
-23.000000000000028
  0
3DFACE
  5
B53
  8
LAYER1
 10
380.7853353838106
 20
-5721.521937431874
 30
-22.0
 11
380.78534538071148
 21
-5721.5219374317348
 31
-19.49999999999995
 12
380.78535408263298
 22
278.47806256662392
 32
-19.499999999854278
 13
380.7853353838106
 23
278.47806256826573
 33
-22.0
  0
3DFACE
  5
B54
  8
LAYER1
 10
389.83928477824992
 20
-5721.5238482751038
 30
-8.5042016969294298
 11
389.83533538381062
 21
-5721.5219374336666
 31
-2.000014986777602
 12
389.83536160335069
 22
278.47806256633231
 32
-2.000022081843333
 13
389.84028787347
 23
278.47614931928968
 33
-8.5007930328520942
  0
3DFACE
  5
B55
  8
LAYER1
 10
392.83533538381062
 20
-5721.5219374317339
 30
-9.9000000000113761
 11
391.44878046660398
 21
-5721.521937431733
 31
-8.7510535109185863
 12
391.44771564572312
 22
278.47806256826613
 32
-8.7501711641776936
 13
392.8353353838346
 23
278.4780625682651
 33
-9.9000000000313264
  0
3DFACE
  5
B5D
  8
LAYER1
 10
392.83533538381062
 20
278.4780625682651
 30
-9.8999999999746624
 11
394.21527919432629
 21
278.47806224911341
 31
-8.7361259704735925
 12
394.21527865593799
 22
-5721.5219374317321
 32
-8.7361253236299774
 13
392.83533538381062
 23
-5721.5219374317339
 33
-9.8999999999746198
  0
3DFACE
  5
B5E
  8
LAYER1
 10
376.33533538381079
 20
278.47806256826573
 30
-5.5
 11
376.33525905821762
 21
278.47806259132949
 31
-4.500000005825596
 12
376.3352590582175
 22
-5721.521937431733
 32
-4.4999999999997957
 13
376.3353353838109
 23
-5721.521937431733
 33
-5.5000000000000009
  0
3DFACE
  5
B5F
  8
LAYER1
 10
378.88533538381063
 20
-5721.5219374317339
 30
-6.4999999999999432
 11
376.33533538381079
 21
-5721.521937431733
 31
-5.4999999992552517
 12
376.33533538381079
 22
278.47806256826613
 32
-5.4999988522847172
 13
378.88533538381063
 23
278.47806256826613
 33
-6.5000000032499079
  0
3DFACE
  5
B60
  8
LAYER1
 10
378.88533522281989
 20
-5721.5219374312901
 30
-4.5
 11
378.88533522281989
 21
-5721.5219374317339
 31
-2.0
 12
378.88533522281989
 22
278.47806256826573
 32
-1.9999999999999949
 13
378.8855260219479
 23
278.47806259132949
 33
-4.4998053551853499
  0
3DFACE
  5
B61
  8
LAYER1
 10
376.3352590466132
 20
278.47806259133301
 30
-4.4998479683213999
 11
378.88552602190413
 21
278.47668373574112
 31
-4.4998053552300821
 12
378.88552602190413
 22
-5721.5219374317339
 32
-4.4999999999997966
 13
376.3352590466136
 23
-5721.521937431733
 33
-4.4998479683220554
  0
3DFACE
  5
B62
  8
LAYER1
 10
400.835343071897
 20
278.47805968814617
 30
-35.023076709486581
 11
400.83533539207951
 21
278.47806257098568
 31
-18.999999953147888
 12
400.8357700313868
 22
-5721.5220367962256
 32
-19.00080860005658
 13
400.835784897503
 23
-5721.521937431733
 33
-35.024999524932127
  0
3DFACE
  5
B63
  8
LAYER1
 10
391.14846380558311
 20
-5721.5217635413401
 30
-17.558021184027041
 11
391.58289230596142
 21
-5721.5131680286531
 31
-16.49999999995876
 12
391.58289230597421
 22
278.47806260579517
 32
-16.500000177212801
 13
391.14599555559039
 23
278.47806256825879
 33
-17.560660171779819
  0
3DFACE
  5
B64
  8
LAYER1
 10
390.0853353838217
 20
278.47806256826431
 30
-18.0
 11
391.14599555559039
 21
278.47806256828608
 31
-17.560660171779819
 12
391.14846380487251
 22
-5721.5200361249363
 32
-17.558021184786821
 13
390.08533538381079
 23
-5721.5259312204607
 33
-18.0
  0
ENDSEC
  0
EOF
