  0
SECTION
  2
HEADER
  9
$ACADVER
  1
AC1027
  9
$ACADMAINTVER
 70
     8
  9
$DWGCODEPAGE
  3
ANSI_1252
  9
$LASTSAVEDBY
  1
User
  9
$REQUIREDVERSIONS
160
                 0
  9
$INSBASE
 10
0.0
 20
0.0
 30
0.0
  9
$EXTMIN
 10
-0.0000000070884381
 20
22.63999785576922
 30
-22.64
  9
$EXTMAX
 10
47.3000000012565
 20
52.64020994378586
 30
22.63999884118231
  9
$LIMMIN
 10
0.0
 20
0.0
  9
$LIMMAX
 10
420.0
 20
297.0
  9
$ORTHOMODE
 70
     1
  9
$REGENMODE
 70
     1
  9
$FILLMODE
 70
     1
  9
$QTEXTMODE
 70
     0
  9
$MIRRTEXT
 70
     0
  9
$LTSCALE
 40
1.0
  9
$ATTMODE
 70
     1
  9
$TEXTSIZE
 40
2.5
  9
$TRACEWID
 40
1.0
  9
$TEXTSTYLE
  7
Standard
  9
$CLAYER
  8
3D
  9
$CELTYPE
  6
ByLayer
  9
$CECOLOR
 62
   256
  9
$CELTSCALE
 40
1.0
  9
$DISPSILH
 70
     0
  9
$DIMSCALE
 40
1.0
  9
$DIMASZ
 40
2.5
  9
$DIMEXO
 40
0.625
  9
$DIMDLI
 40
3.75
  9
$DIMRND
 40
0.0
  9
$DIMDLE
 40
0.0
  9
$DIMEXE
 40
1.25
  9
$DIMTP
 40
0.0
  9
$DIMTM
 40
0.0
  9
$DIMTXT
 40
2.5
  9
$DIMCEN
 40
2.5
  9
$DIMTSZ
 40
0.0
  9
$DIMTOL
 70
     0
  9
$DIMLIM
 70
     0
  9
$DIMTIH
 70
     0
  9
$DIMTOH
 70
     0
  9
$DIMSE1
 70
     0
  9
$DIMSE2
 70
     0
  9
$DIMTAD
 70
     1
  9
$DIMZIN
 70
     8
  9
$DIMBLK
  1

  9
$DIMASO
 70
     1
  9
$DIMSHO
 70
     1
  9
$DIMPOST
  1

  9
$DIMAPOST
  1

  9
$DIMALT
 70
     0
  9
$DIMALTD
 70
     3
  9
$DIMALTF
 40
0.03937007874016
  9
$DIMLFAC
 40
1.0
  9
$DIMTOFL
 70
     1
  9
$DIMTVP
 40
0.0
  9
$DIMTIX
 70
     0
  9
$DIMSOXD
 70
     0
  9
$DIMSAH
 70
     0
  9
$DIMBLK1
  1

  9
$DIMBLK2
  1

  9
$DIMSTYLE
  2
ISO-25
  9
$DIMCLRD
 70
     0
  9
$DIMCLRE
 70
     0
  9
$DIMCLRT
 70
     0
  9
$DIMTFAC
 40
1.0
  9
$DIMGAP
 40
0.625
  9
$DIMJUST
 70
     0
  9
$DIMSD1
 70
     0
  9
$DIMSD2
 70
     0
  9
$DIMTOLJ
 70
     0
  9
$DIMTZIN
 70
     8
  9
$DIMALTZ
 70
     0
  9
$DIMALTTZ
 70
     0
  9
$DIMUPT
 70
     0
  9
$DIMDEC
 70
     2
  9
$DIMTDEC
 70
     2
  9
$DIMALTU
 70
     2
  9
$DIMALTTD
 70
     3
  9
$DIMTXSTY
  7
Standard
  9
$DIMAUNIT
 70
     0
  9
$DIMADEC
 70
     0
  9
$DIMALTRND
 40
0.0
  9
$DIMAZIN
 70
     0
  9
$DIMDSEP
 70
    44
  9
$DIMATFIT
 70
     3
  9
$DIMFRAC
 70
     0
  9
$DIMLDRBLK
  1

  9
$DIMLUNIT
 70
     2
  9
$DIMLWD
 70
    -2
  9
$DIMLWE
 70
    -2
  9
$DIMTMOVE
 70
     0
  9
$DIMFXL
 40
1.0
  9
$DIMFXLON
 70
     0
  9
$DIMJOGANG
 40
0.7853981633974483
  9
$DIMTFILL
 70
     0
  9
$DIMTFILLCLR
 70
     0
  9
$DIMARCSYM
 70
     0
  9
$DIMLTYPE
  6

  9
$DIMLTEX1
  6

  9
$DIMLTEX2
  6

  9
$DIMTXTDIRECTION
 70
     0
  9
$LUNITS
 70
     2
  9
$LUPREC
 70
     3
  9
$SKETCHINC
 40
1.0
  9
$FILLETRAD
 40
10.0
  9
$AUNITS
 70
     0
  9
$AUPREC
 70
     0
  9
$MENU
  1
.
  9
$ELEVATION
 40
0.0
  9
$PELEVATION
 40
0.0
  9
$THICKNESS
 40
0.0
  9
$LIMCHECK
 70
     0
  9
$CHAMFERA
 40
10.0
  9
$CHAMFERB
 40
10.0
  9
$CHAMFERC
 40
20.0
  9
$CHAMFERD
 40
0.0
  9
$SKPOLY
 70
     0
  9
$TDCREATE
 40
2455022.512359514
  9
$TDUCREATE
 40
2455022.637359514
  9
$TDUPDATE
 40
2458761.710489144
  9
$TDUUPDATE
 40
2458761.835489144
  9
$TDINDWG
 40
0.0464881713
  9
$TDUSRTIMER
 40
2458641.517272187
  9
$USRTIMER
 70
     1
  9
$ANGBASE
 50
0.0
  9
$ANGDIR
 70
     0
  9
$PDMODE
 70
     0
  9
$PDSIZE
 40
0.0
  9
$PLINEWID
 40
0.0
  9
$SPLFRAME
 70
     0
  9
$SPLINETYPE
 70
     6
  9
$SPLINESEGS
 70
     8
  9
$HANDSEED
  5
34B
  9
$SURFTAB1
 70
     6
  9
$SURFTAB2
 70
     6
  9
$SURFTYPE
 70
     6
  9
$SURFU
 70
     6
  9
$SURFV
 70
     6
  9
$UCSBASE
  2

  9
$UCSNAME
  2

  9
$UCSORG
 10
0.0
 20
0.0
 30
0.0
  9
$UCSXDIR
 10
1.0
 20
0.0
 30
0.0
  9
$UCSYDIR
 10
0.0
 20
1.0
 30
0.0
  9
$UCSORTHOREF
  2

  9
$UCSORTHOVIEW
 70
     0
  9
$UCSORGTOP
 10
0.0
 20
0.0
 30
0.0
  9
$UCSORGBOTTOM
 10
0.0
 20
0.0
 30
0.0
  9
$UCSORGLEFT
 10
0.0
 20
0.0
 30
0.0
  9
$UCSORGRIGHT
 10
0.0
 20
0.0
 30
0.0
  9
$UCSORGFRONT
 10
0.0
 20
0.0
 30
0.0
  9
$UCSORGBACK
 10
0.0
 20
0.0
 30
0.0
  9
$PUCSBASE
  2

  9
$PUCSNAME
  2

  9
$PUCSORG
 10
0.0
 20
0.0
 30
0.0
  9
$PUCSXDIR
 10
1.0
 20
0.0
 30
0.0
  9
$PUCSYDIR
 10
0.0
 20
1.0
 30
0.0
  9
$PUCSORTHOREF
  2

  9
$PUCSORTHOVIEW
 70
     0
  9
$PUCSORGTOP
 10
0.0
 20
0.0
 30
0.0
  9
$PUCSORGBOTTOM
 10
0.0
 20
0.0
 30
0.0
  9
$PUCSORGLEFT
 10
0.0
 20
0.0
 30
0.0
  9
$PUCSORGRIGHT
 10
0.0
 20
0.0
 30
0.0
  9
$PUCSORGFRONT
 10
0.0
 20
0.0
 30
0.0
  9
$PUCSORGBACK
 10
0.0
 20
0.0
 30
0.0
  9
$USERI1
 70
     0
  9
$USERI2
 70
     0
  9
$USERI3
 70
     0
  9
$USERI4
 70
     0
  9
$USERI5
 70
     0
  9
$USERR1
 40
0.0
  9
$USERR2
 40
0.0
  9
$USERR3
 40
0.0
  9
$USERR4
 40
0.0
  9
$USERR5
 40
0.0
  9
$WORLDVIEW
 70
     1
  9
$SHADEDGE
 70
     3
  9
$SHADEDIF
 70
    70
  9
$TILEMODE
 70
     1
  9
$MAXACTVP
 70
    64
  9
$PINSBASE
 10
0.0
 20
0.0
 30
0.0
  9
$PLIMCHECK
 70
     0
  9
$PEXTMIN
 10
1.000000000000000E+20
 20
1.000000000000000E+20
 30
1.000000000000000E+20
  9
$PEXTMAX
 10
-1.000000000000000E+20
 20
-1.000000000000000E+20
 30
-1.000000000000000E+20
  9
$PLIMMIN
 10
0.0
 20
0.0
  9
$PLIMMAX
 10
420.0
 20
297.0
  9
$UNITMODE
 70
     0
  9
$VISRETAIN
 70
     1
  9
$PLINEGEN
 70
     0
  9
$PSLTSCALE
 70
     1
  9
$TREEDEPTH
 70
  3020
  9
$CMLSTYLE
  2
Standard
  9
$CMLJUST
 70
     0
  9
$CMLSCALE
 40
20.0
  9
$PROXYGRAPHICS
 70
     1
  9
$MEASUREMENT
 70
     1
  9
$CELWEIGHT
370
    -1
  9
$ENDCAPS
280
     0
  9
$JOINSTYLE
280
     0
  9
$LWDISPLAY
290
     0
  9
$INSUNITS
 70
     4
  9
$HYPERLINKBASE
  1

  9
$STYLESHEET
  1

  9
$XEDIT
290
     1
  9
$CEPSNTYPE
380
     0
  9
$PSTYLEMODE
290
     1
  9
$FINGERPRINTGUID
  2
{EC6BB858-51AA-46EC-B484-6C9CC7AB3E2E}
  9
$VERSIONGUID
  2
{DBFC8610-BE7C-477A-B7C4-EB07419CF411}
  9
$EXTNAMES
290
     1
  9
$PSVPSCALE
 40
0.0
  9
$OLESTARTUP
290
     0
  9
$SORTENTS
280
   127
  9
$INDEXCTL
280
     0
  9
$HIDETEXT
280
     1
  9
$XCLIPFRAME
280
     0
  9
$HALOGAP
280
     0
  9
$OBSCOLOR
 70
   257
  9
$OBSLTYPE
280
     0
  9
$INTERSECTIONDISPLAY
280
     0
  9
$INTERSECTIONCOLOR
 70
   257
  9
$DIMASSOC
280
     2
  9
$PROJECTNAME
  1

  9
$CAMERADISPLAY
290
     0
  9
$LENSLENGTH
 40
50.0
  9
$CAMERAHEIGHT
 40
0.0
  9
$STEPSPERSEC
 40
2.0
  9
$STEPSIZE
 40
6.0
  9
$3DDWFPREC
 40
2.0
  9
$PSOLWIDTH
 40
5.0
  9
$PSOLHEIGHT
 40
80.0
  9
$LOFTANG1
 40
1.570796326794896
  9
$LOFTANG2
 40
1.570796326794896
  9
$LOFTMAG1
 40
0.0
  9
$LOFTMAG2
 40
0.0
  9
$LOFTPARAM
 70
     7
  9
$LOFTNORMALS
280
     1
  9
$LATITUDE
 40
37.795
  9
$LONGITUDE
 40
-122.394
  9
$NORTHDIRECTION
 40
0.0
  9
$TIMEZONE
 70
 -8000
  9
$LIGHTGLYPHDISPLAY
280
     1
  9
$TILEMODELIGHTSYNCH
280
     1
  9
$CMATERIAL
347
73
  9
$SOLIDHIST
280
     1
  9
$SHOWHIST
280
     1
  9
$DWFFRAME
280
     2
  9
$DGNFRAME
280
     2
  9
$REALWORLDSCALE
290
     1
  9
$INTERFERECOLOR
 62
   256
  9
$INTERFEREOBJVS
345
33
  9
$INTERFEREVPVS
346
76
  9
$CSHADOW
280
     0
  9
$SHADOWPLANELOCATION
 40
0.0
  0
ENDSEC
  0
SECTION
  2
CLASSES
  0
CLASS
  1
ACDBDICTIONARYWDFLT
  2
AcDbDictionaryWithDefault
  3
ObjectDBX Classes
 90
        0
 91
        1
280
     0
281
     0
  0
CLASS
  1
VISUALSTYLE
  2
AcDbVisualStyle
  3
ObjectDBX Classes
 90
     4095
 91
       26
280
     0
281
     0
  0
CLASS
  1
TABLESTYLE
  2
AcDbTableStyle
  3
ObjectDBX Classes
 90
     4095
 91
        1
280
     0
281
     0
  0
CLASS
  1
DICTIONARYVAR
  2
AcDbDictionaryVar
  3
ObjectDBX Classes
 90
        0
 91
        7
280
     0
281
     0
  0
CLASS
  1
SCALE
  2
AcDbScale
  3
ObjectDBX Classes
 90
     1153
 91
       33
280
     0
281
     0
  0
CLASS
  1
CELLSTYLEMAP
  2
AcDbCellStyleMap
  3
ObjectDBX Classes
 90
     1152
 91
        2
280
     0
281
     0
  0
CLASS
  1
RASTERVARIABLES
  2
AcDbRasterVariables
  3
ISM
 90
        0
 91
        1
280
     0
281
     0
  0
CLASS
  1
MATERIAL
  2
AcDbMaterial
  3
ObjectDBX Classes
 90
     1153
 91
        3
280
     0
281
     0
  0
CLASS
  1
SUN
  2
AcDbSun
  3
SCENEOE
 90
     1153
 91
        1
280
     0
281
     0
  0
CLASS
  1
MLEADERSTYLE
  2
AcDbMLeaderStyle
  3
ACDB_MLEADERSTYLE_CLASS
 90
     4095
 91
        1
280
     0
281
     0
  0
CLASS
  1
ACDBSECTIONVIEWSTYLE
  2
AcDbSectionViewStyle
  3
ObjectDBX Classes
 90
     1025
 91
        1
280
     0
281
     0
  0
CLASS
  1
ACDBDETAILVIEWSTYLE
  2
AcDbDetailViewStyle
  3
ObjectDBX Classes
 90
     1025
 91
        1
280
     0
281
     0
  0
CLASS
  1
SOLID_BACKGROUND
  2
AcDbSolidBackground
  3
SCENEOE
 90
     4095
 91
        1
280
     0
281
     0
  0
CLASS
  1
NPOCOLLECTION
  2
AcDbImpNonPersistentObjectsCollection
  3
ObjectDBX Classes
 90
     1153
 91
        1
280
     0
281
     0
  0
ENDSEC
  0
SECTION
  2
TABLES
  0
TABLE
  2
VPORT
  5
8
330
0
100
AcDbSymbolTable
 70
     1
  0
VPORT
  5
29
330
8
100
AcDbSymbolTableRecord
100
AcDbViewportTableRecord
  2
*Active
 70
     0
 10
0.0
 20
0.0
 11
1.0
 21
1.0
 12
30.39438640083114
 22
16.06568961777282
 13
0.0
 23
0.0
 14
10.0
 24
10.0
 15
10.0
 25
10.0
 16
-6.851430887305771
 26
-212.8595256006196
 36
22.53099881360832
 17
5.785277056526125
 27
40.22777702991199
 37
-21.61493581603043
 40
54.14027054077471
 41
2.534450651769087
 42
50.0
 43
0.0
 44
0.0
 50
0.0
 51
0.0000000000000024
 71
     0
 72
  1000
 73
     1
 74
     3
 75
     0
 76
     0
 77
     0
 78
     0
281
     0
 65
     1
110
0.0
120
0.0
130
0.0
111
1.0
121
0.0
131
0.0
112
0.0
122
1.0
132
0.0
 79
     0
146
0.0
348
2F
 60
     3
 61
     5
292
     1
282
     1
141
0.0
142
0.0
361
80
1001
ACAD_NAV_VCDISPLAY
1070
     3
  0
ENDTAB
  0
TABLE
  2
LTYPE
  5
5
330
0
100
AcDbSymbolTable
 70
     1
  0
LTYPE
  5
14
330
5
100
AcDbSymbolTableRecord
100
AcDbLinetypeTableRecord
  2
ByBlock
 70
     0
  3

 72
    65
 73
     0
 40
0.0
  0
LTYPE
  5
15
330
5
100
AcDbSymbolTableRecord
100
AcDbLinetypeTableRecord
  2
ByLayer
 70
     0
  3

 72
    65
 73
     0
 40
0.0
  0
LTYPE
  5
16
330
5
100
AcDbSymbolTableRecord
100
AcDbLinetypeTableRecord
  2
Continuous
 70
     0
  3
Solid line
 72
    65
 73
     0
 40
0.0
  0
ENDTAB
  0
TABLE
  2
LAYER
  5
2
102
{ACAD_XDICTIONARY
360
E1
102
}
330
0
100
AcDbSymbolTable
 70
     3
  0
LAYER
  5
10
330
2
100
AcDbSymbolTableRecord
100
AcDbLayerTableRecord
  2
0
 70
     0
 62
     7
  6
Continuous
370
    -3
390
F
347
75
348
0
  0
LAYER
  5
BD
330
2
100
AcDbSymbolTableRecord
100
AcDbLayerTableRecord
  2
2
 70
     0
 62
     7
  6
Continuous
370
    -3
390
F
347
75
348
0
  0
LAYER
  5
FC
330
2
100
AcDbSymbolTableRecord
100
AcDbLayerTableRecord
  2
3D
 70
     0
 62
     1
  6
Continuous
370
    -3
390
F
347
75
348
0
1001
AcAecLayerStandard
1000

1000

1001
AcCmTransparency
1071
        0
  0
ENDTAB
  0
TABLE
  2
STYLE
  5
3
330
0
100
AcDbSymbolTable
 70
     2
  0
STYLE
  5
11
330
3
100
AcDbSymbolTableRecord
100
AcDbTextStyleTableRecord
  2
Standard
 70
     0
 40
0.0
 41
1.0
 50
0.0
 71
     0
 42
2.5
  3
arial.ttf
  4

1001
ACAD
1000
Arial
1071
        0
  0
STYLE
  5
B8
330
3
100
AcDbSymbolTableRecord
100
AcDbTextStyleTableRecord
  2
Annotative
 70
     0
 40
0.0
 41
1.0
 50
0.0
 71
     0
 42
2.5
  3
arial.ttf
  4

1001
ACAD
1000
Arial
1071
        0
1001
AcadAnnotative
1000
AnnotativeData
1002
{
1070
     1
1070
     1
1002
}
  0
ENDTAB
  0
TABLE
  2
VIEW
  5
6
330
0
100
AcDbSymbolTable
 70
     4
  0
ENDTAB
  0
TABLE
  2
UCS
  5
7
330
0
100
AcDbSymbolTable
 70
     0
  0
ENDTAB
  0
TABLE
  2
APPID
  5
9
330
0
100
AcDbSymbolTable
 70
     5
  0
APPID
  5
12
330
9
100
AcDbSymbolTableRecord
100
AcDbRegAppTableRecord
  2
ACAD
 70
     0
  0
APPID
  5
B9
330
9
100
AcDbSymbolTableRecord
100
AcDbRegAppTableRecord
  2
AcadAnnotative
 70
     0
  0
APPID
  5
F8
330
9
100
AcDbSymbolTableRecord
100
AcDbRegAppTableRecord
  2
ACAD_NAV_VCDISPLAY
 70
     0
  0
APPID
  5
FD
330
9
100
AcDbSymbolTableRecord
100
AcDbRegAppTableRecord
  2
AcAecLayerStandard
 70
     0
  0
APPID
  5
FE
330
9
100
AcDbSymbolTableRecord
100
AcDbRegAppTableRecord
  2
AcCmTransparency
 70
     0
  0
ENDTAB
  0
TABLE
  2
DIMSTYLE
  5
A
330
0
100
AcDbSymbolTable
 70
     3
100
AcDbDimStyleTable
 71
     1
340
BF
  0
DIMSTYLE
105
27
330
A
100
AcDbSymbolTableRecord
100
AcDbDimStyleTableRecord
  2
ISO-25
 70
     0
 41
2.5
 42
0.625
 43
3.75
 44
1.25
 73
     0
 74
     0
 77
     1
 78
     8
140
2.5
141
2.5
143
0.03937007874016
147
0.625
171
     3
172
     1
271
     2
272
     2
274
     3
278
    44
283
     0
284
     8
340
11
  0
DIMSTYLE
105
BA
330
A
100
AcDbSymbolTableRecord
100
AcDbDimStyleTableRecord
  2
Annotative
 70
     0
 40
0.0
 41
2.5
 42
0.625
 43
3.75
 44
1.25
 73
     0
 74
     0
 77
     1
 78
     8
140
2.5
141
2.5
143
0.03937007874016
147
0.625
171
     3
172
     1
271
     2
272
     2
274
     3
278
    44
283
     0
284
     8
340
11
1001
AcadAnnotative
1000
AnnotativeData
1002
{
1070
     1
1070
     1
1002
}
  0
DIMSTYLE
105
BF
330
A
100
AcDbSymbolTableRecord
100
AcDbDimStyleTableRecord
  2
STANDARD
 70
     0
279
     2
340
11
  0
ENDTAB
  0
TABLE
  2
BLOCK_RECORD
  5
1
330
0
100
AcDbSymbolTable
 70
     1
  0
BLOCK_RECORD
  5
1F
330
1
100
AcDbSymbolTableRecord
100
AcDbBlockTableRecord
  2
*Model_Space
340
22
 70
     0
280
     1
281
     0
  0
BLOCK_RECORD
  5
1B
330
1
100
AcDbSymbolTableRecord
100
AcDbBlockTableRecord
  2
*Paper_Space
340
1E
 70
     0
280
     1
281
     0
  0
BLOCK_RECORD
  5
23
330
1
100
AcDbSymbolTableRecord
100
AcDbBlockTableRecord
  2
*Paper_Space0
340
26
 70
     0
280
     1
281
     0
  0
ENDTAB
  0
ENDSEC
  0
SECTION
  2
BLOCKS
  0
BLOCK
  5
20
330
1F
100
AcDbEntity
  8
0
100
AcDbBlockBegin
  2
*Model_Space
 70
     0
 10
0.0
 20
0.0
 30
0.0
  3
*Model_Space
  1

  0
ENDBLK
  5
21
330
1F
100
AcDbEntity
  8
0
100
AcDbBlockEnd
  0
BLOCK
  5
1C
330
1B
100
AcDbEntity
 67
     1
  8
0
100
AcDbBlockBegin
  2
*Paper_Space
 70
     0
 10
0.0
 20
0.0
 30
0.0
  3
*Paper_Space
  1

  0
ENDBLK
  5
1D
330
1B
100
AcDbEntity
 67
     1
  8
0
100
AcDbBlockEnd
  0
BLOCK
  5
24
330
23
100
AcDbEntity
 67
     1
  8
0
100
AcDbBlockBegin
  2
*Paper_Space0
 70
     0
 10
0.0
 20
0.0
 30
0.0
  3
*Paper_Space0
  1

  0
ENDBLK
  5
25
330
23
100
AcDbEntity
 67
     1
  8
0
100
AcDbBlockEnd
  0
ENDSEC
  0
SECTION
  2
ENTITIES
  0
LWPOLYLINE
  5
E6
330
1F
100
AcDbEntity
  8
2
  6
Continuous
 62
     3
100
AcDbPolyline
 90
       72
 70
     0
 43
0.0
 38
-22.64
 10
13.48038475905638
 20
-20.44000000048759
 10
2.200000000000002
 20
-20.44000000048759
 10
2.200000001256455
 20
-20.44
 42
-0.4142135623730951
 10
1.400000001256444
 20
-19.64
 10
1.400000000000005
 20
-19.64000000048759
 10
1.399999905392618
 20
-18.80222430237669
 10
1.399999909565991
 20
-18.80222430136833
 42
0.1989123380046365
 10
1.312131943921954
 20
-18.59009230092076
 10
1.312131940672017
 20
-18.59009230066765
 10
1.179288842432939
 20
-18.45724920242857
 10
1.179288845379488
 20
-18.45724920237822
 42
-0.4142135623730951
 10
1.179288845379488
 20
-18.31582784614091
 10
1.179288842432939
 20
-18.31582784557564
 10
1.312131556138808
 20
-18.18298513492162
 10
1.312131557854101
 20
-18.1829851336663
 42
0.198912367379658
 10
1.399999523498138
 20
-17.97085309931034
 10
1.39999952085941
 20
-17.97085309964223
 10
1.39999952085941
 20
-15.80222394836198
 10
1.399999523498138
 20
-15.80222394920886
 42
0.198912367379658
 10
1.312131557854101
 20
-15.5900919148529
 10
1.312131556138808
 20
-15.59009191308258
 10
1.179288842432939
 20
-15.45724920242857
 10
1.179288845379488
 20
-15.45724920237829
 42
-0.4142151476342805
 10
1.179289228096209
 20
-15.31582746342632
 10
1.179289226966147
 20
-15.31582746409427
 10
1.312131507309189
 20
-15.18298518069939
 10
1.312131510870457
 20
-15.18298518064996
 42
0.1989123967546799
 10
1.399999476514508
 20
-14.9708531123856
 10
1.39999947202979
 20
-14.97085311184963
 10
1.399995367290273
 20
21.93745257985238
 10
1.399995365989525
 20
21.93745257929892
 42
1.001821247696146
 10
0.0000000012564669
 20
21.94
 10
0.0
 20
21.93999999951241
 10
0.0
 20
-20.84000000048759
 10
0.0000000012564527
 20
-20.84
 42
0.4142135623730951
 10
1.000000001256452
 20
-21.84
 10
1.0
 20
-21.84000000048759
 10
46.29999999999999
 20
-21.84000000048759
 10
46.30000000125646
 20
-21.84000000000001
 42
-0.4142135623730951
 10
46.60000000125648
 20
-22.14000000000001
 10
46.60000000000001
 20
-22.14000000048759
 10
46.60000000000001
 20
-22.2900000004876
 10
46.60000000125648
 20
-22.29
 42
0.9999999999999998
 10
47.30000000125646
 20
-22.29
 10
47.29999999999999
 20
-22.2900000004876
 10
47.29999999999999
 20
-21.44000000048759
 10
47.30000000125646
 20
-21.44000000000001
 42
0.4142135623730951
 10
46.30000000125646
 20
-20.44000000000001
 10
46.29999999999999
 20
-20.44000000048759
 10
37.5696152439955
 20
-20.44000000048759
 10
37.56961524352714
 20
-20.44000000000001
 42
0.2679491924311228
 10
37.3098076223918
 20
-20.59000000000001
 42
-0.5773502691896259
 10
36.79019238012114
 20
-20.59000000000001
 42
0.2679491924311228
 10
36.53038475898582
 20
-20.44000000000001
 10
36.53038475905636
 20
-20.44000000048759
 10
27.8
 20
-20.44000000048759
 10
27.80000000125645
 20
-20.44000000000001
 42
-0.4142135623730951
 10
27.50000000125645
 20
-20.14000000000001
 10
27.5
 20
-20.14000000048759
 10
27.5
 20
-3.540000000487593
 10
27.50000000125647
 20
-3.539999999999997
 42
0.9999999999999998
 10
26.10000000125648
 20
-3.539999999999997
 10
26.10000000000001
 20
-3.540000000487593
 10
26.10000000000001
 20
-20.14000000048759
 10
26.10000000125645
 20
-20.14000000000001
 42
-0.4142135623730951
 10
25.80000000125645
 20
-20.44000000000001
 10
25.8
 20
-20.44000000048759
 10
14.51961524399549
 20
-20.44000000048759
 10
14.51961524352711
 20
-20.44
 42
0.2679491924311228
 10
14.25980762239177
 20
-20.59
 42
-0.5773502691896259
 10
13.74019238012111
 20
-20.59
 42
0.2679491924311228
 10
13.48038475898579
 20
-20.44
210
0.0
220
-1.0
230
0.0000000000000001
  0
3DFACE
  5
FB
330
1F
100
AcDbEntity
  8
3D
100
AcDbFace
 10
1.400000001256463
 20
22.64
 30
21.94
 11
0.0
 21
22.64
 31
21.93999999951241
 12
0.0
 22
22.64
 32
-15.02192153573677
 13
1.399999477709323
 23
22.64
 33
-15.0219213800365
  0
3DFACE
  5
FF
330
1F
100
AcDbEntity
  8
3D
100
AcDbFace
 10
0.0000000012564669
 20
22.64
 30
21.93999999951241
 11
0.0254237990173074
 21
22.64
 31
22.12694102645644
 12
1.379000607504085
 22
22.64
 32
22.1101710219613
 13
1.400000001256463
 23
22.64
 33
21.94
  0
3DFACE
  5
100
330
1F
100
AcDbEntity
  8
3D
100
AcDbFace
 10
1.379000607504079
 20
22.64
 30
22.11017102196135
 11
1.31529257697371
 21
22.64
 31
22.27378892472224
 12
0.0877391342327982
 22
22.64
 32
22.27931789034978
 13
0.0254237990173112
 23
22.64
 33
22.12694102645647
  0
3DFACE
  5
101
330
1F
100
AcDbEntity
  8
3D
100
AcDbFace
 10
0.0877391342327989
 20
22.64
 30
22.27931789034978
 11
0.1781766275209291
 21
22.64
 31
22.40658371877217
 12
1.216102874724647
 22
22.64
 32
22.41290360962662
 13
1.315292576973698
 23
22.64
 33
22.27378892472227
  0
3DFACE
  5
102
330
1F
100
AcDbEntity
  8
3D
100
AcDbFace
 10
0.1781766275209335
 20
22.64
 30
22.40658371877217
 11
0.2863503374266338
 21
22.64
 31
22.50470696437486
 12
1.114763178590536
 22
22.64
 32
22.50388962282325
 13
1.216102874724647
 23
22.64
 33
22.41290360962662
  0
3DFACE
  5
103
330
1F
100
AcDbEntity
  8
3D
100
AcDbFace
 10
0.2863503374266329
 20
22.64
 30
22.50470696437486
 11
0.4091222215005672
 21
22.64
 31
22.57670253434731
 12
0.9883543330758417
 22
22.64
 32
22.57784933904567
 13
1.114763178590538
 23
22.64
 33
22.50388962282325
  0
3DFACE
  5
104
330
1F
100
AcDbEntity
  8
3D
100
AcDbFace
 10
0.4091222215005672
 20
22.64
 30
22.57670253434731
 11
0.5262959674278376
 21
22.64
 31
22.61810538165662
 12
0.8727652079188716
 22
22.64
 32
22.61834518010148
 13
0.9883543330758417
 23
22.64
 33
22.57784933904567
  0
3DFACE
  5
105
330
1F
100
AcDbEntity
  8
3D
100
AcDbFace
 10
0.5262959674278534
 20
22.64
 30
22.61810538165662
 11
0.6175880301342361
 21
22.64
 31
22.63513183427013
 12
0.6175997707528676
 22
22.64
 32
22.61816857488559
 13
0.5262959674278534
 23
22.64
 33
22.61810538165662
  0
3DFACE
  5
106
330
1F
100
AcDbEntity
  8
3D
100
AcDbFace
 10
0.6175997707528676
 20
22.64
 30
22.61816857488559
 11
0.6175880301342361
 21
22.64
 31
22.63513183427013
 12
0.6714514548603115
 22
22.64
 32
22.63941760093572
 13
0.671466135942031
 23
22.64
 33
22.61820585689823
  0
3DFACE
  5
107
330
1F
100
AcDbEntity
  8
3D
100
AcDbFace
 10
0.671466135942031
 20
22.64
 30
22.61820585689823
 11
0.6714514548603115
 21
22.64
 31
22.63941760093572
 12
0.7433236169145739
 22
22.64
 32
22.63865804534573
 13
0.743337737863636
 23
22.64
 33
22.61825560070333
  0
3DFACE
  5
108
330
1F
100
AcDbEntity
  8
3D
100
AcDbFace
 10
0.743337737863636
 20
22.64
 30
22.61825560070333
 11
0.7446360906390506
 21
22.64
 31
22.63857542150052
 12
0.8007316326529574
 22
22.64
 32
22.63271432671499
 13
0.8007416123346178
 23
22.64
 33
22.61829533109847
  0
3DFACE
  5
109
330
1F
100
AcDbEntity
  8
3D
100
AcDbFace
 10
0.8007416123346178
 20
22.64
 30
22.61829533109847
 11
0.8007318478381627
 21
22.64
 31
22.63240341955027
 12
0.872765207918842
 22
22.64
 32
22.61834518010148
 13
0.8007416123346178
 23
22.64
 33
22.61829533109847
  0
3DFACE
  5
10A
330
1F
100
AcDbEntity
  8
3D
100
AcDbFace
 10
1.399999477709323
 20
22.64
 30
-15.0219213800365
 11
1.377163342755979
 21
22.64
 31
-15.08565816033989
 12
0.0
 22
22.64
 32
-15.08565816033989
 13
-0.0000000070884381
 23
22.64
 33
-15.02192153573677
  0
3DFACE
  5
10B
330
1F
100
AcDbEntity
  8
3D
100
AcDbFace
 10
1.37716334275598
 20
22.64
 30
-15.08565816033988
 11
1.312131510870457
 21
22.64
 31
-15.18298518064996
 12
0.0
 22
22.64
 32
-15.18298518064996
 13
0.0
 23
22.64
 33
-15.08565816033989
  0
3DFACE
  5
10C
330
1F
100
AcDbEntity
  8
3D
100
AcDbFace
 10
1.312131517942149
 20
22.64
 30
-15.18298517006643
 11
1.179288844444816
 21
22.64
 31
-15.31582784707565
 12
0.0
 22
22.64
 32
-15.31582784707565
 13
0.0
 23
22.64
 33
-15.18298518064996
  0
3DFACE
  5
10D
330
1F
100
AcDbEntity
  8
3D
100
AcDbFace
 10
1.179288844444817
 20
22.64
 30
-15.31582784707564
 11
1.152406971140707
 21
22.64000000000001
 31
-15.36472812022024
 12
0.0
 22
22.64
 32
-15.36472812022024
 13
-0.0000000000000001
 23
22.64
 33
-15.31582784707565
  0
3DFACE
  5
10E
330
1F
100
AcDbEntity
  8
3D
100
AcDbFace
 10
1.152406971140707
 20
22.64000000000001
 30
-15.36472812022024
 11
1.151112294660305
 21
22.63999999999999
 31
-15.40141521652551
 12
0.0
 22
22.64
 32
-15.40141521652551
 13
0.0000000000000001
 23
22.64
 33
-15.36472812022024
  0
3DFACE
  5
10F
330
1F
100
AcDbEntity
  8
3D
100
AcDbFace
 10
1.151112294660304
 20
22.63999999999999
 30
-15.40141521652551
 11
1.16433754349493
 21
22.64
 31
-15.43813334165372
 12
0.0
 22
22.64
 32
-15.43813334165372
 13
0.0
 23
22.64
 33
-15.40141521652551
  0
3DFACE
  5
111
330
1F
100
AcDbEntity
  8
3D
100
AcDbFace
 10
1.164337543494926
 20
22.64
 30
-15.43813334165372
 11
1.337640841369248
 21
22.64
 31
-15.61912123475471
 12
0.0
 22
22.64
 32
-15.61912123475471
 13
0.0
 23
22.64
 33
-15.43813334165372
  0
3DFACE
  5
112
330
1F
100
AcDbEntity
  8
3D
100
AcDbFace
 10
1.337640841369248
 20
22.64
 30
-15.61912123475471
 11
1.377163383251523
 21
22.64
 31
-15.68741891949934
 12
0.0
 22
22.64
 32
-15.68741891949933
 13
-0.0000000000000002
 23
22.64
 33
-15.61912123475471
  0
3DFACE
  5
113
330
1F
100
AcDbEntity
  8
3D
100
AcDbFace
 10
1.377163383251521
 20
22.64
 30
-15.68741891949933
 11
1.397896636882109
 21
22.63999999999999
 31
-15.76676538412936
 12
0.0
 22
22.64
 32
-15.76676538412936
 13
0.0000000000000001
 23
22.64
 33
-15.68741891949933
  0
3DFACE
  5
114
330
1F
100
AcDbEntity
  8
3D
100
AcDbFace
 10
1.397896636882109
 20
22.63999999999999
 30
-15.76676538412936
 11
0.0
 21
22.64
 31
-15.76676538412936
 12
0.0
 22
22.64
 32
-17.96782737741991
 13
1.39999952085941
 23
22.64
 33
-17.97085309964223
  0
3DFACE
  5
11E
330
1F
100
AcDbEntity
  8
3D
100
AcDbFace
 10
1.399999523498139
 20
22.64
 30
-17.97085309931033
 11
1.377163383251523
 21
22.64
 31
-18.08565812901986
 12
0.0
 22
22.64
 32
-18.08565812901986
 13
0.0
 23
22.64
 33
-17.96782737741991
  0
3DFACE
  5
11F
330
1F
100
AcDbEntity
  8
3D
100
AcDbFace
 10
1.377163383251522
 20
22.64
 30
-18.08565812901987
 11
1.312131557854106
 21
22.64
 31
-18.18298513366629
 12
0.0
 22
22.64
 32
-18.18298513366629
 13
0.0000000000000003
 23
22.64
 33
-18.08565812901986
  0
3DFACE
  5
120
330
1F
100
AcDbEntity
  8
3D
100
AcDbFace
 10
1.312131556138808
 20
22.64
 30
-18.18298513492162
 11
1.179288845379489
 21
22.64
 31
-18.31582784614091
 12
0.0
 22
22.64
 32
-18.31582784614091
 13
0.0
 23
22.64
 33
-18.18298513366629
  0
3DFACE
  5
121
330
1F
100
AcDbEntity
  8
3D
100
AcDbFace
 10
1.179288842432939
 20
22.64
 30
-18.31582784557564
 11
1.149999523498143
 21
22.64
 31
-18.38653852425957
 12
0.0
 22
22.64
 32
-18.38653852425957
 13
0.0
 23
22.64
 33
-18.31582784614091
  0
3DFACE
  5
122
330
1F
100
AcDbEntity
  8
3D
100
AcDbFace
 10
1.149999523498143
 20
22.64
 30
-18.38653852425956
 11
1.179288842432939
 21
22.64
 31
-18.45724920242857
 12
0.0
 22
22.64
 32
-18.45724920242857
 13
-0.0000000000000002
 23
22.64
 33
-18.38653852425957
  0
3DFACE
  5
123
330
1F
100
AcDbEntity
  8
3D
100
AcDbFace
 10
1.179288842432939
 20
22.64
 30
-18.45724920242857
 11
1.312131943921954
 21
22.64
 31
-18.59009230092076
 12
0.0
 22
22.64
 32
-18.59009230092076
 13
0.0
 23
22.64
 33
-18.45724920242857
  0
3DFACE
  5
124
330
1F
100
AcDbEntity
  8
3D
100
AcDbFace
 10
1.312131940672017
 20
22.64
 30
-18.59009230066765
 11
1.377163762831284
 21
22.64
 31
-18.68741928990356
 12
0.0
 22
22.64
 32
-18.68741928990356
 13
0.0
 23
22.64
 33
-18.59009230092076
  0
3DFACE
  5
125
330
1F
100
AcDbEntity
  8
3D
100
AcDbFace
 10
1.377163762831286
 20
22.64
 30
-18.68741928990356
 11
1.404632225253289
 21
22.64
 31
-18.80110505313738
 12
0.0
 22
22.64
 32
-18.80110505313738
 13
0.0
 23
22.63999999999999
 33
-18.68741928990356
  0
3DFACE
  5
126
330
1F
100
AcDbEntity
  8
3D
100
AcDbFace
 10
0.0
 20
22.64
 30
-18.80110505313738
 11
1.404632225253289
 21
22.64
 31
-18.80110505313738
 12
1.400000000000005
 22
22.64
 32
-19.64000000048759
 13
0.0
 23
22.64
 33
-19.64000000048759
  0
3DFACE
  5
130
330
1F
100
AcDbEntity
  8
3D
100
AcDbFace
 10
26.10000000125647
 20
22.64
 30
-3.540000000487594
 11
26.12542379901731
 21
22.64
 31
-3.353058973543561
 12
27.47900060750409
 22
22.64
 32
-3.3698289780387
 13
27.50000000125647
 23
22.64
 33
-3.540000000000002
  0
3DFACE
  5
131
330
1F
100
AcDbEntity
  8
3D
100
AcDbFace
 10
27.47900060750409
 20
22.64
 30
-3.369828978038654
 11
27.41529257697372
 21
22.64
 31
-3.20621107527776
 12
26.18773913423281
 22
22.64
 32
-3.200682109650223
 13
26.12542379901732
 23
22.64
 33
-3.353058973543536
  0
3DFACE
  5
132
330
1F
100
AcDbEntity
  8
3D
100
AcDbFace
 10
26.18773913423281
 20
22.64
 30
-3.200682109650223
 11
26.27817662752093
 21
22.64
 31
-3.073416281227835
 12
27.31610287472465
 22
22.64
 32
-3.067096390373382
 13
27.41529257697371
 23
22.64
 33
-3.206211075277728
  0
3DFACE
  5
133
330
1F
100
AcDbEntity
  8
3D
100
AcDbFace
 10
26.27817662752094
 20
22.64
 30
-3.073416281227835
 11
26.38635033742664
 21
22.64
 31
-2.975293035625146
 12
27.21476317859054
 22
22.64
 32
-2.976110377176755
 13
27.31610287472465
 23
22.64
 33
-3.067096390373382
  0
3DFACE
  5
134
330
1F
100
AcDbEntity
  8
3D
100
AcDbFace
 10
26.38635033742664
 20
22.64
 30
-2.975293035625146
 11
26.50912222150057
 21
22.64
 31
-2.903297465652698
 12
27.08835433307585
 22
22.64
 32
-2.90215066095433
 13
27.21476317859055
 23
22.64
 33
-2.976110377176755
  0
3DFACE
  5
135
330
1F
100
AcDbEntity
  8
3D
100
AcDbFace
 10
26.50912222150057
 20
22.64
 30
-2.903297465652698
 11
26.62629596742784
 21
22.64
 31
-2.861894618343384
 12
26.97276520791888
 22
22.64
 32
-2.861654819898525
 13
27.08835433307585
 23
22.64
 33
-2.90215066095433
  0
3DFACE
  5
136
330
1F
100
AcDbEntity
  8
3D
100
AcDbFace
 10
26.62629596742786
 20
22.64
 30
-2.861894618343384
 11
26.71758803013424
 21
22.64
 31
-2.844868165729877
 12
26.71759977075288
 22
22.64
 32
-2.861831425114409
 13
26.62629596742786
 23
22.64
 33
-2.861894618343384
  0
3DFACE
  5
137
330
1F
100
AcDbEntity
  8
3D
100
AcDbFace
 10
26.71759977075288
 20
22.64
 30
-2.861831425114409
 11
26.71758803013424
 21
22.64
 31
-2.844868165729877
 12
26.77145145486031
 22
22.64
 32
-2.840582399064288
 13
26.77146613594203
 23
22.64
 33
-2.861794143101771
  0
3DFACE
  5
138
330
1F
100
AcDbEntity
  8
3D
100
AcDbFace
 10
26.77146613594203
 20
22.64
 30
-2.861794143101771
 11
26.77145145486031
 21
22.64
 31
-2.840582399064288
 12
26.84332361691458
 22
22.64
 32
-2.841341954654275
 13
26.84333773786364
 23
22.64
 33
-2.861744399296675
  0
3DFACE
  5
139
330
1F
100
AcDbEntity
  8
3D
100
AcDbFace
 10
26.84333773786364
 20
22.64
 30
-2.861744399296675
 11
26.84332361691458
 21
22.64
 31
-2.841341954654275
 12
26.90073184783817
 22
22.64
 32
-2.847596580449735
 13
26.90074161233463
 23
22.64
 33
-2.861704668901538
  0
3DFACE
  5
13A
330
1F
100
AcDbEntity
  8
3D
100
AcDbFace
 10
26.90074161233463
 20
22.64
 30
-2.861704668901538
 11
26.90073184783817
 21
22.64
 31
-2.847596580449735
 12
26.97276520791885
 22
22.64
 32
-2.861654819898525
 13
26.90074161233463
 23
22.64
 33
-2.861704668901538
  0
3DFACE
  5
144
330
1F
100
AcDbEntity
  8
3D
100
AcDbFace
 10
1.400000001256479
 20
22.64
 30
-19.63999977294046
 11
1.491809796187936
 21
22.64
 31
-20.01211104988299
 12
0.0
 22
22.64
 32
-20.01211104988299
 13
0.0
 23
22.64
 33
-19.64000000048759
  0
3DFACE
  5
145
330
1F
100
AcDbEntity
  8
3D
100
AcDbFace
 10
1.491809796187933
 20
22.64
 30
-20.01211104988298
 11
1.599371489121061
 21
22.64
 31
-20.1684367421083
 12
0.0
 22
22.64
 32
-20.1684367421083
 13
0.0
 23
22.64
 33
-20.01211104988299
  0
3DFACE
  5
146
330
1F
100
AcDbEntity
  8
3D
100
AcDbFace
 10
1.599371489121024
 20
22.64
 30
-20.16843674210825
 11
1.781918077016211
 21
22.64
 31
-20.32206121765101
 12
0.0
 22
22.64
 32
-20.32206121765101
 13
0.0
 23
22.64
 33
-20.1684367421083
  0
3DFACE
  5
147
330
1F
100
AcDbEntity
  8
3D
100
AcDbFace
 10
1.781918077016175
 20
22.64
 30
-20.32206121765099
 11
1.981204706513868
 21
22.64
 31
-20.40949894021923
 12
0.0
 22
22.64
 32
-20.40949894021922
 13
0.0000000000000002
 23
22.64
 33
-20.32206121765101
  0
3DFACE
  5
148
330
1F
100
AcDbEntity
  8
3D
100
AcDbFace
 10
1.981204706513896
 20
22.64
 30
-20.40949894021923
 11
1.981204706513896
 21
22.64
 31
-21.84000000048759
 12
13.52445405930523
 22
22.64
 32
-21.84000000048759
 13
13.48038475898579
 23
22.64
 33
-20.44
  0
3DFACE
  5
152
330
1F
100
AcDbEntity
  8
3D
100
AcDbFace
 10
0.0
 20
22.64
 30
-20.40949894021922
 11
0.005324923346921
 21
22.64
 31
-20.94306061025275
 12
1.981204706513896
 22
22.64
 32
-20.94306061025275
 13
1.981204706512555
 23
22.64
 33
-20.40949894021923
  0
3DFACE
  5
153
330
1F
100
AcDbEntity
  8
3D
100
AcDbFace
 10
1.981204706512555
 20
22.64
 30
-20.94306061025275
 11
0.9154788229669552
 21
22.64
 31
-20.94306061025275
 12
0.9092490079261681
 22
22.64
 32
-21.83587361507853
 13
1.981204706513896
 23
22.64
 33
-21.84000000048759
  0
3DFACE
  5
154
330
1F
100
AcDbEntity
  8
3D
100
AcDbFace
 10
0.909272406214557
 20
22.63999999999999
 30
-21.83252033797034
 11
0.6269652982848295
 21
22.64
 31
-21.76781739064262
 12
0.6269652982848295
 22
22.64
 32
-20.94306061025275
 13
0.9154788229669552
 23
22.64
 33
-20.94306061025275
  0
3DFACE
  5
155
330
1F
100
AcDbEntity
  8
3D
100
AcDbFace
 10
0.6269652982848296
 20
22.64
 30
-21.76781739064261
 11
0.4273908215728641
 21
22.64
 31
-21.65982847434209
 12
0.4273908215728641
 22
22.64
 32
-20.94306061025275
 13
0.6269652982848295
 23
22.64
 33
-20.94306061025275
  0
3DFACE
  5
156
330
1F
100
AcDbEntity
  8
3D
100
AcDbFace
 10
0.4273908215728641
 20
22.64
 30
-21.65982847434209
 11
0.2491159391878372
 21
22.64
 31
-21.50043404313477
 12
0.2491159391878372
 22
22.64
 32
-20.94306061025275
 13
0.4273908215728641
 23
22.64
 33
-20.94306061025275
  0
3DFACE
  5
157
330
1F
100
AcDbEntity
  8
3D
100
AcDbFace
 10
0.2491159391878372
 20
22.64
 30
-21.50043404313477
 11
0.1112441854194428
 21
22.64
 31
-21.29838095490093
 12
0.1112441854194428
 22
22.64
 32
-20.94306061025275
 13
0.2491159391878372
 23
22.64
 33
-20.94306061025275
  0
3DFACE
  5
159
330
1F
100
AcDbEntity
  8
3D
100
AcDbFace
 10
0.1112441854194428
 20
22.64
 30
-21.29838095490093
 11
0.052969451825543
 21
22.64
 31
-21.16114348575767
 12
0.052969451825543
 22
22.63999999999999
 32
-20.94306061025275
 13
0.1112441854194428
 23
22.64
 33
-20.94306061025275
  0
3DFACE
  5
15A
330
1F
100
AcDbEntity
  8
3D
100
AcDbFace
 10
0.0529694518255435
 20
22.64
 30
-21.16114348575767
 11
0.0053249233469211
 21
22.64
 31
-20.94306061025274
 12
0.052969451825543
 22
22.63999999999999
 32
-20.94306061025274
 13
0.052969451825543
 23
22.64
 33
-21.16114348575767
  0
3DFACE
  5
164
330
1F
100
AcDbEntity
  8
3D
100
AcDbFace
 10
13.48038494281387
 20
22.64
 30
-20.44000000048759
 11
13.58878234448709
 21
22.64
 31
-20.46026805070303
 12
13.58878234448709
 22
22.64
 32
-21.84000000048759
 13
13.52445405930523
 23
22.64
 33
-21.84000000048759
  0
3DFACE
  5
165
330
1F
100
AcDbEntity
  8
3D
100
AcDbFace
 10
13.58878234448709
 20
22.64
 30
-20.46026805070302
 11
13.69282327508863
 21
22.64
 31
-20.52817489082732
 12
13.69282327508863
 22
22.64
 32
-21.84000000048759
 13
13.58878234448709
 23
22.64
 33
-21.84000000048759
  0
3DFACE
  5
166
330
1F
100
AcDbEntity
  8
3D
100
AcDbFace
 10
13.69282327508863
 20
22.64
 30
-20.52817489082731
 11
13.75784121470348
 21
22.64
 31
-20.61708507022105
 12
13.75784121470348
 22
22.64
 32
-21.84000000048759
 13
13.69282327508863
 23
22.64
 33
-21.84000000048759
  0
3DFACE
  5
167
330
1F
100
AcDbEntity
  8
3D
100
AcDbFace
 10
13.75784121470348
 20
22.64
 30
-20.61708507022105
 11
13.85108608627211
 21
22.64
 31
-20.70043165307628
 12
13.85108608627211
 22
22.64
 32
-21.84000000048759
 13
13.75784121470348
 23
22.64
 33
-21.84000000048759
  0
3DFACE
  5
168
330
1F
100
AcDbEntity
  8
3D
100
AcDbFace
 10
13.85108608627209
 20
22.64
 30
-20.70043165307625
 11
13.97374338923956
 21
22.64
 31
-20.7388487750107
 12
13.97374338923956
 22
22.64
 32
-21.84000000048759
 13
13.85108608627211
 23
22.64
 33
-21.84000000048759
  0
3DFACE
  5
169
330
1F
100
AcDbEntity
  8
3D
100
AcDbFace
 10
13.97374338923956
 20
22.64
 30
-20.7388487750107
 11
14.09349972734279
 21
22.64
 31
-20.72505754019457
 12
14.06522054049137
 22
22.64
 32
-21.84000000048759
 13
13.97374338923956
 23
22.64
 33
-21.84000000048759
  0
3DFACE
  5
16A
330
1F
100
AcDbEntity
  8
3D
100
AcDbFace
 10
14.09349972734279
 20
22.64
 30
-20.72505754019457
 11
14.21441897045167
 21
22.63999999999999
 31
-20.64982017455253
 12
14.21441897045167
 22
22.64
 32
-21.84000000048759
 13
14.06531646153079
 23
22.64
 33
-21.8362181930312
  0
3DFACE
  5
16C
330
1F
100
AcDbEntity
  8
3D
100
AcDbFace
 10
14.21441897045167
 20
22.63999999999999
 30
-20.64982017455253
 11
14.27676980678664
 21
22.64
 31
-20.56385774540351
 12
14.27676980678664
 22
22.64
 32
-21.84000000048759
 13
14.21441897045167
 23
22.64
 33
-21.84000000048759
  0
3DFACE
  5
16D
330
1F
100
AcDbEntity
  8
3D
100
AcDbFace
 10
14.27676980678664
 20
22.64
 30
-20.56385774540351
 11
14.35006301390077
 21
22.64000000000001
 31
-20.4925085023102
 12
14.35006301390078
 22
22.64
 32
-21.84000000048759
 13
14.27676980678664
 23
22.64
 33
-21.84000000048759
  0
3DFACE
  5
16E
330
1F
100
AcDbEntity
  8
3D
100
AcDbFace
 10
14.35006301390082
 20
22.64000000000001
 30
-20.49250850231017
 11
14.51961524352711
 21
22.64
 31
-20.44
 12
14.51961524352711
 22
22.64
 32
-21.84000000048759
 13
14.35006301390078
 23
22.64
 33
-21.84000000048759
  0
3DFACE
  5
16F
330
1F
100
AcDbEntity
  8
3D
100
AcDbFace
 10
14.51961524352711
 20
22.64
 30
-21.84000000048759
 11
14.51961524195264
 21
22.64
 31
-20.44000000048759
 12
25.80000000126942
 22
22.64
 32
-20.44000000000001
 13
25.80000000126942
 23
22.64
 33
-21.84000000048759
  0
3DFACE
  5
170
330
1F
100
AcDbEntity
  8
3D
100
AcDbFace
 10
25.8
 20
22.64
 30
-20.44000000048759
 11
25.91071171372553
 21
22.64000000000001
 31
-20.41882416810989
 12
25.91071171372553
 22
22.64
 32
-21.84000000048759
 13
25.80000000126942
 23
22.64
 33
-21.84000000048759
  0
3DFACE
  5
171
330
1F
100
AcDbEntity
  8
3D
100
AcDbFace
 10
25.91071171372553
 20
22.64000000000001
 30
-20.41882416810989
 11
26.01213203561242
 21
22.64
 31
-20.35213203435598
 12
26.01213203561241
 22
22.64
 32
-21.84000000048759
 13
25.91071171372553
 23
22.64
 33
-21.84000000048759
  0
3DFACE
  5
172
330
1F
100
AcDbEntity
  8
3D
100
AcDbFace
 10
26.01213203561242
 20
22.64
 30
-20.35213203435597
 11
26.07009047898519
 21
22.64
 31
-20.27057999019859
 12
26.07009047898519
 22
22.64
 32
-21.84000000048759
 13
26.01213203561241
 23
22.64
 33
-21.84000000048759
  0
3DFACE
  5
173
330
1F
100
AcDbEntity
  8
3D
100
AcDbFace
 10
26.07009047898519
 20
22.64
 30
-20.27057999019858
 11
26.09992371189693
 21
22.64
 31
-20.16220307307379
 12
26.09697582864985
 22
22.63999999999999
 32
-21.84000000048759
 13
26.07009047898519
 23
22.64
 33
-21.84000000048759
  0
3DFACE
  5
174
330
1F
100
AcDbEntity
  8
3D
100
AcDbFace
 10
26.09995343592645
 20
22.64
 30
-20.14528554913591
 11
27.5
 21
22.64
 31
-20.14000000048759
 12
27.5
 22
22.64
 32
-3.540000000487594
 13
26.10000000125648
 23
22.64
 33
-3.539999999512403
  0
3DFACE
  5
175
330
1F
100
AcDbEntity
  8
3D
100
AcDbFace
 10
26.09697582864985
 20
22.63999999999999
 30
-21.84000000048759
 11
26.09995343592645
 21
22.64
 31
-20.14528554913576
 12
27.5
 22
22.64
 32
-20.14000000048759
 13
27.5
 23
22.64
 33
-21.84000000048759
  0
3DFACE
  5
17F
330
1F
100
AcDbEntity
  8
3D
100
AcDbFace
 10
27.5
 20
22.64
 30
-20.18248950392754
 11
27.53753236331471
 21
22.64000000000001
 31
-20.28529535103811
 12
27.53753236331471
 22
22.64
 32
-21.84000000048759
 13
27.5
 23
22.64
 33
-21.84000000048759
  0
3DFACE
  5
180
330
1F
100
AcDbEntity
  8
3D
100
AcDbFace
 10
27.5375323633147
 20
22.64000000000001
 30
-20.28529535103808
 11
27.58786796690049
 21
22.64
 31
-20.35213203435597
 12
27.58786796690049
 22
22.64
 32
-21.84000000048759
 13
27.53753236331471
 23
22.64
 33
-21.84000000048759
  0
3DFACE
  5
181
330
1F
100
AcDbEntity
  8
3D
100
AcDbFace
 10
27.5878679669005
 20
22.64
 30
-20.35213203435598
 11
27.64370117810685
 21
22.64
 31
-20.39606772128102
 12
27.64370117810685
 22
22.64
 32
-21.84000000048759
 13
27.58786796690049
 23
22.64
 33
-21.84000000048759
  0
3DFACE
  5
182
330
1F
100
AcDbEntity
  8
3D
100
AcDbFace
 10
27.64370117810682
 20
22.64
 30
-20.396067721281
 11
27.80000000125645
 21
22.64
 31
-20.44000000000001
 12
27.80000000125646
 22
22.64
 32
-21.84000000048759
 13
27.64370117810685
 23
22.64
 33
-21.84000000048759
  0
3DFACE
  5
183
330
1F
100
AcDbEntity
  8
3D
100
AcDbFace
 10
27.80000000125646
 20
22.64
 30
-21.84000000048759
 11
27.80000000299113
 21
22.64
 31
-20.44000000048759
 12
36.53038475898582
 22
22.64
 32
-20.44000000000001
 13
36.53038475898583
 23
22.64
 33
-21.84000000048759
  0
3DFACE
  5
184
330
1F
100
AcDbEntity
  8
3D
100
AcDbFace
 10
36.53038475898583
 20
22.64
 30
-20.44000000048759
 11
36.68038475898581
 21
22.64
 31
-20.48019237886468
 12
36.68038475898581
 22
22.64
 32
-21.84000000048759
 13
36.53038475898583
 23
22.64
 33
-21.84000000048759
  0
3DFACE
  5
185
330
1F
100
AcDbEntity
  8
3D
100
AcDbFace
 10
36.68038475898581
 20
22.64
 30
-20.48019237886468
 11
36.79019238012114
 21
22.64
 31
-20.59000000000001
 12
36.79019238012114
 22
22.64
 32
-21.84000000048759
 13
36.68038475898581
 23
22.64
 33
-21.84000000048759
  0
3DFACE
  5
186
330
1F
100
AcDbEntity
  8
3D
100
AcDbFace
 10
36.79019238012114
 20
22.64
 30
-20.59000000000001
 11
36.89596532447491
 21
22.64
 31
-20.69743604710453
 12
36.89596532447491
 22
22.64
 32
-21.84000000048759
 13
36.79019238012114
 23
22.64
 33
-21.84000000048759
  0
3DFACE
  5
187
330
1F
100
AcDbEntity
  8
3D
100
AcDbFace
 10
36.89596532447491
 20
22.64
 30
-20.69743604710453
 11
36.98704608412263
 21
22.64
 31
-20.7333203101006
 12
36.98704608412263
 22
22.64
 32
-21.84000000048759
 13
36.89596532447491
 23
22.64
 33
-21.84000000048759
  0
3DFACE
  5
188
330
1F
100
AcDbEntity
  8
3D
100
AcDbFace
 10
36.9870460841226
 20
22.64
 30
-20.73332031010059
 11
37.08209479431892
 21
22.64
 31
-20.73827826648666
 12
37.08209479431892
 22
22.64
 32
-21.84000000048759
 13
36.98704608412263
 23
22.64
 33
-21.84000000048759
  0
3DFACE
  5
189
330
1F
100
AcDbEntity
  8
3D
100
AcDbFace
 10
37.08209479431892
 20
22.64
 30
-20.73827826648666
 11
37.19902391541119
 21
22.64
 31
-20.70036872509965
 12
37.1990239154112
 22
22.64
 32
-21.84000000048759
 13
37.08209479431892
 23
22.64
 33
-21.84000000048759
  0
3DFACE
  5
18A
330
1F
100
AcDbEntity
  8
3D
100
AcDbFace
 10
37.19902391541118
 20
22.64
 30
-20.70036872509964
 11
37.3098076223918
 21
22.64
 31
-20.59000000000001
 12
37.3098076223918
 22
22.64
 32
-21.84000000048759
 13
37.1990239154112
 23
22.64
 33
-21.84000000048759
  0
3DFACE
  5
18B
330
1F
100
AcDbEntity
  8
3D
100
AcDbFace
 10
37.3098076223918
 20
22.64
 30
-20.59000000000001
 11
37.41961524352714
 21
22.64
 31
-20.48019237886468
 12
37.41961524352715
 22
22.64
 32
-21.84000000048759
 13
37.3098076223918
 23
22.64
 33
-21.84000000048759
  0
3DFACE
  5
18C
330
1F
100
AcDbEntity
  8
3D
100
AcDbFace
 10
37.41961524352715
 20
22.64
 30
-20.48019237886467
 11
37.56961524352713
 21
22.64
 31
-20.44000000000001
 12
37.56961524352713
 22
22.64
 32
-21.84000000048759
 13
37.41961524352715
 23
22.64
 33
-21.84000000048759
  0
3DFACE
  5
18D
330
1F
100
AcDbEntity
  8
3D
100
AcDbFace
 10
37.56961524352713
 20
22.64
 30
-21.84000000048759
 11
37.5696152439955
 21
22.64
 31
-20.44000000048759
 12
46.30000000125646
 22
22.64
 32
-20.44000000000001
 13
46.30000000125646
 23
22.64
 33
-21.84000000048759
  0
3DFACE
  5
197
330
1F
100
AcDbEntity
  8
3D
100
AcDbFace
 10
46.30000000125647
 20
22.64
 30
-21.84000000000001
 11
46.30000000125647
 21
22.64
 31
-20.44000000048759
 12
46.54322784566803
 22
22.63999999999999
 32
-20.47003081713753
 13
46.47443591519572
 23
22.64
 33
-21.89592601136505
  0
3DFACE
  5
198
330
1F
100
AcDbEntity
  8
3D
100
AcDbFace
 10
46.47443591519572
 20
22.64
 30
-21.89592601136505
 11
46.54322784566803
 21
22.63999999999999
 31
-20.47003081713753
 12
46.77017061173855
 22
22.63999999999999
 32
-20.55742445250343
 13
46.55337546693913
 23
22.64
 33
-21.97937349723632
  0
3DFACE
  5
19A
330
1F
100
AcDbEntity
  8
3D
100
AcDbFace
 10
46.77017061173855
 20
22.63999999999999
 30
-20.55742445250343
 11
46.55337546693913
 21
22.64
 31
-21.97937349723632
 12
46.59685204919984
 22
22.64
 32
-22.09665416246254
 13
46.94430785869082
 23
22.64
 33
-20.6752337711115
  0
3DFACE
  5
19C
330
1F
100
AcDbEntity
  8
3D
100
AcDbFace
 10
46.59685204919985
 20
22.64
 30
-22.09665416246253
 11
47.29999999999999
 21
22.64
 31
-22.09665416246253
 12
47.29999999999999
 22
22.64
 32
-22.2900000004876
 13
46.60000000000001
 23
22.64
 33
-22.2900000004876
  0
3DFACE
  5
19D
330
1F
100
AcDbEntity
  8
3D
100
AcDbFace
 10
47.29999999999999
 20
22.64
 30
-22.09665416246253
 11
47.30000000125646
 21
22.64
 31
-21.44
 12
46.75843915754962
 22
22.64
 32
-21.43561121969431
 13
46.59685204919985
 23
22.64
 33
-22.09665416246257
  0
3DFACE
  5
19E
330
1F
100
AcDbEntity
  8
3D
100
AcDbFace
 10
46.75843915754962
 20
22.64
 30
-21.43561121969431
 11
47.29999999999999
 21
22.64
 31
-21.43999999998982
 12
47.27021487740659
 22
22.64
 32
-21.19775406278544
 13
46.81814165685713
 23
22.64
 33
-21.19137195929851
  0
3DFACE
  5
19F
330
1F
100
AcDbEntity
  8
3D
100
AcDbFace
 10
46.81814165685713
 20
22.64
 30
-21.19137195929851
 11
47.27021487740659
 21
22.64
 31
-21.19775406278544
 12
47.16386913915989
 22
22.64
 32
-20.93628369832022
 13
46.8840807133594
 23
22.64
 33
-20.92161932619074
  0
3DFACE
  5
1A0
330
1F
100
AcDbEntity
  8
3D
100
AcDbFace
 10
46.8840807133594
 20
22.64
 30
-20.92161932619074
 11
46.94430785869078
 21
22.64
 31
-20.67523377111148
 12
47.1638691391599
 22
22.64
 32
-20.93628369832022
 13
46.8840807133594
 23
22.64
 33
-20.92161932619074
  0
3DFACE
  5
1A2
330
1F
100
AcDbEntity
  8
3D
100
AcDbFace
 10
46.60000000125648
 20
22.64
 30
-22.29
 11
46.60779653536557
 21
22.64
 31
-22.36346283367968
 12
47.2917455785615
 22
22.64
 32
-22.36556427987114
 13
47.29999999999999
 23
22.64
 33
-22.2900000004876
  0
3DFACE
  5
1A3
330
1F
100
AcDbEntity
  8
3D
100
AcDbFace
 10
46.60779653536557
 20
22.64
 30
-22.36346283367968
 11
46.63787731875343
 21
22.64
 31
-22.44836486689639
 12
47.26340141524658
 22
22.64
 32
-22.44581897737119
 13
47.2917455785615
 23
22.64
 33
-22.36556427987114
  0
3DFACE
  5
1A4
330
1F
100
AcDbEntity
  8
3D
100
AcDbFace
 10
46.6378773187534
 20
22.64
 30
-22.44836486689631
 11
46.68984911902214
 21
22.64
 31
-22.52413995488319
 12
47.21293723213159
 22
22.64
 32
-22.52100652072988
 13
47.26340141524659
 23
22.64
 33
-22.44581897737114
  0
3DFACE
  5
1A5
330
1F
100
AcDbEntity
  8
3D
100
AcDbFace
 10
46.68984911902214
 20
22.64
 30
-22.52413995488319
 11
46.75595441158921
 21
22.64
 31
-22.58128389782254
 12
47.14406019546201
 22
22.64
 32
-22.58127416813874
 13
47.21293723213164
 23
22.64
 33
-22.52100652072981
  0
3DFACE
  5
1A6
330
1F
100
AcDbEntity
  8
3D
100
AcDbFace
 10
46.75595441158914
 20
22.64
 30
-22.58128389782248
 11
46.81890625773513
 21
22.64
 31
-22.61452184889398
 12
47.07989641617177
 22
22.64
 32
-22.61500295597449
 13
47.14406019546205
 23
22.64
 33
-22.5812741681387
  0
3DFACE
  5
1A7
330
1F
100
AcDbEntity
  8
3D
100
AcDbFace
 10
46.81890625773514
 20
22.64
 30
-22.61452184889397
 11
46.88423098786437
 21
22.64
 31
-22.63376508967235
 12
47.01298997939544
 22
22.64
 32
-22.63428514730388
 13
47.07989641617177
 23
22.64
 33
-22.61500295597449
  0
3DFACE
  5
1A8
330
1F
100
AcDbEntity
  8
3D
100
AcDbFace
 10
46.88423098786433
 20
22.64
 30
-22.63376508967233
 11
46.94216291598349
 21
22.64
 31
-22.63399907675915
 12
46.94504761528569
 22
22.64
 32
-22.63996496092209
 13
46.92375202187284
 23
22.64
 33
-22.63901438878402
  0
3DFACE
  5
1A9
330
1F
100
AcDbEntity
  8
3D
100
AcDbFace
 10
46.94504761528558
 20
22.64
 30
-22.63996496092208
 11
46.94216291598349
 21
22.64
 31
-22.63399907675915
 12
47.01128010501101
 22
22.64
 32
-22.63427824112038
 13
46.9754908554396
 23
22.64
 33
-22.63907050341302
  0
LWPOLYLINE
  5
1B3
330
1F
100
AcDbEntity
  8
2
  6
Continuous
 62
     3
100
AcDbPolyline
 90
       72
 70
     0
 43
0.0
 38
-52.64
 10
13.48038475905638
 20
-20.44000000048759
 10
2.200000000000002
 20
-20.44000000048759
 10
2.200000001256455
 20
-20.44
 42
-0.4142135623730951
 10
1.400000001256444
 20
-19.63999999999999
 10
1.400000000000005
 20
-19.64000000048759
 10
1.399999905392618
 20
-18.80222430237668
 10
1.399999909565991
 20
-18.80222430136832
 42
0.1989123380046365
 10
1.312131943921954
 20
-18.59009230092076
 10
1.312131940672017
 20
-18.59009230066765
 10
1.179288842432939
 20
-18.45724920242856
 10
1.179288845379488
 20
-18.45724920237822
 42
-0.4142135623730951
 10
1.179288845379488
 20
-18.31582784614091
 10
1.179288842432939
 20
-18.31582784557564
 10
1.312131556138808
 20
-18.18298513492162
 10
1.312131557854101
 20
-18.1829851336663
 42
0.198912367379658
 10
1.399999523498138
 20
-17.97085309931033
 10
1.39999952085941
 20
-17.97085309964223
 10
1.39999952085941
 20
-15.80222394836197
 10
1.399999523498138
 20
-15.80222394920886
 42
0.198912367379658
 10
1.312131557854101
 20
-15.5900919148529
 10
1.312131556138808
 20
-15.59009191308258
 10
1.179288842432939
 20
-15.45724920242857
 10
1.179288845379488
 20
-15.45724920237828
 42
-0.4142151476342805
 10
1.179289228096209
 20
-15.31582746342632
 10
1.179289226966147
 20
-15.31582746409426
 10
1.312131507309189
 20
-15.18298518069938
 10
1.312131510870457
 20
-15.18298518064996
 42
0.1989123967546799
 10
1.399999476514508
 20
-14.9708531123856
 10
1.39999947202979
 20
-14.97085311184963
 10
1.399995367290273
 20
21.93745257985239
 10
1.399995365989525
 20
21.93745257929892
 42
1.001821247696146
 10
0.0000000012564669
 20
21.94
 10
0.0
 20
21.93999999951241
 10
0.0
 20
-20.84000000048759
 10
0.0000000012564527
 20
-20.83999999999999
 42
0.4142135623730951
 10
1.000000001256452
 20
-21.83999999999999
 10
1.0
 20
-21.84000000048759
 10
46.29999999999999
 20
-21.84000000048759
 10
46.30000000125646
 20
-21.84000000000001
 42
-0.4142135623730951
 10
46.60000000125648
 20
-22.14
 10
46.60000000000001
 20
-22.14000000048759
 10
46.60000000000001
 20
-22.29000000048759
 10
46.60000000125648
 20
-22.29
 42
0.9999999999999998
 10
47.30000000125646
 20
-22.29
 10
47.29999999999999
 20
-22.29000000048759
 10
47.29999999999999
 20
-21.44000000048759
 10
47.30000000125646
 20
-21.44000000000001
 42
0.4142135623730951
 10
46.30000000125646
 20
-20.44
 10
46.29999999999999
 20
-20.44000000048759
 10
37.5696152439955
 20
-20.44000000048759
 10
37.56961524352714
 20
-20.44000000000001
 42
0.2679491924311228
 10
37.3098076223918
 20
-20.59000000000001
 42
-0.5773502691896259
 10
36.79019238012114
 20
-20.59000000000001
 42
0.2679491924311228
 10
36.53038475898582
 20
-20.44000000000001
 10
36.53038475905636
 20
-20.44000000048759
 10
27.8
 20
-20.44000000048759
 10
27.80000000125645
 20
-20.44000000000001
 42
-0.4142135623730951
 10
27.50000000125645
 20
-20.14000000000001
 10
27.5
 20
-20.14000000048759
 10
27.5
 20
-3.540000000487591
 10
27.50000000125647
 20
-3.539999999999996
 42
0.9999999999999998
 10
26.10000000125648
 20
-3.539999999999996
 10
26.10000000000001
 20
-3.540000000487591
 10
26.10000000000001
 20
-20.14000000048759
 10
26.10000000125645
 20
-20.14000000000001
 42
-0.4142135623730951
 10
25.80000000125645
 20
-20.44000000000001
 10
25.8
 20
-20.44000000048759
 10
14.51961524399549
 20
-20.44000000048759
 10
14.51961524352711
 20
-20.44
 42
0.2679491924311228
 10
14.25980762239177
 20
-20.58999999999999
 42
-0.5773502691896259
 10
13.74019238012111
 20
-20.58999999999999
 42
0.2679491924311228
 10
13.48038475898579
 20
-20.44
210
0.0
220
-1.0
230
0.0000000000000001
  0
3DFACE
  5
1B4
330
1F
100
AcDbEntity
  8
3D
100
AcDbFace
 10
1.400000001256463
 20
52.64
 30
21.94
 11
0.0
 21
52.64
 31
21.93999999951241
 12
0.0
 22
52.64
 32
-15.02192153573677
 13
1.399999477709323
 23
52.64
 33
-15.0219213800365
  0
3DFACE
  5
1B5
330
1F
100
AcDbEntity
  8
3D
100
AcDbFace
 10
0.0000000012564669
 20
52.64
 30
21.93999999951241
 11
0.0254237990173074
 21
52.64
 31
22.12694102645644
 12
1.379000607504085
 22
52.64
 32
22.1101710219613
 13
1.400000001256463
 23
52.64
 33
21.94
  0
3DFACE
  5
1B6
330
1F
100
AcDbEntity
  8
3D
100
AcDbFace
 10
1.379000607504079
 20
52.64
 30
22.11017102196135
 11
1.31529257697371
 21
52.64
 31
22.27378892472224
 12
0.0877391342327982
 22
52.64
 32
22.27931789034978
 13
0.0254237990173112
 23
52.64
 33
22.12694102645647
  0
3DFACE
  5
1B7
330
1F
100
AcDbEntity
  8
3D
100
AcDbFace
 10
0.0877391342327989
 20
52.64
 30
22.27931789034978
 11
0.1781766275209291
 21
52.64
 31
22.40658371877217
 12
1.216102874724647
 22
52.64
 32
22.41290360962662
 13
1.315292576973698
 23
52.64
 33
22.27378892472227
  0
3DFACE
  5
1B8
330
1F
100
AcDbEntity
  8
3D
100
AcDbFace
 10
0.1781766275209335
 20
52.64
 30
22.40658371877217
 11
0.2863503374266338
 21
52.64
 31
22.50470696437486
 12
1.114763178590536
 22
52.64
 32
22.50388962282325
 13
1.216102874724647
 23
52.64
 33
22.41290360962662
  0
3DFACE
  5
1B9
330
1F
100
AcDbEntity
  8
3D
100
AcDbFace
 10
0.2863503374266329
 20
52.64
 30
22.50470696437486
 11
0.4091222215005672
 21
52.64
 31
22.57670253434731
 12
0.9883543330758417
 22
52.64
 32
22.57784933904567
 13
1.114763178590538
 23
52.64
 33
22.50388962282325
  0
3DFACE
  5
1BA
330
1F
100
AcDbEntity
  8
3D
100
AcDbFace
 10
0.4091222215005672
 20
52.64
 30
22.57670253434731
 11
0.5262959674278376
 21
52.64
 31
22.61810538165662
 12
0.8727652079188716
 22
52.64
 32
22.61834518010148
 13
0.9883543330758417
 23
52.64
 33
22.57784933904567
  0
3DFACE
  5
1BB
330
1F
100
AcDbEntity
  8
3D
100
AcDbFace
 10
0.5262959674278534
 20
52.64
 30
22.61810538165662
 11
0.6175880301342361
 21
52.64
 31
22.63513183427013
 12
0.6175997707528676
 22
52.64
 32
22.61816857488559
 13
0.5262959674278534
 23
52.64
 33
22.61810538165662
  0
3DFACE
  5
1BC
330
1F
100
AcDbEntity
  8
3D
100
AcDbFace
 10
0.6175997707528676
 20
52.64
 30
22.61816857488559
 11
0.6175880301342361
 21
52.64
 31
22.63513183427013
 12
0.6714514548603115
 22
52.64
 32
22.63941760093572
 13
0.671466135942031
 23
52.64
 33
22.61820585689823
  0
3DFACE
  5
1BD
330
1F
100
AcDbEntity
  8
3D
100
AcDbFace
 10
0.671466135942031
 20
52.64
 30
22.61820585689823
 11
0.6714514548603115
 21
52.64
 31
22.63941760093572
 12
0.7433236169145739
 22
52.64
 32
22.63865804534573
 13
0.743337737863636
 23
52.64
 33
22.61825560070333
  0
3DFACE
  5
1BE
330
1F
100
AcDbEntity
  8
3D
100
AcDbFace
 10
0.743337737863636
 20
52.64
 30
22.61825560070333
 11
0.7446360906390506
 21
52.64
 31
22.63857542150052
 12
0.8007316326529574
 22
52.64
 32
22.63271432671499
 13
0.8007416123346178
 23
52.64
 33
22.61829533109847
  0
3DFACE
  5
1BF
330
1F
100
AcDbEntity
  8
3D
100
AcDbFace
 10
0.8007416123346178
 20
52.64
 30
22.61829533109847
 11
0.8007318478381627
 21
52.64
 31
22.63240341955027
 12
0.872765207918842
 22
52.64
 32
22.61834518010148
 13
0.8007416123346178
 23
52.64
 33
22.61829533109847
  0
3DFACE
  5
1C0
330
1F
100
AcDbEntity
  8
3D
100
AcDbFace
 10
1.399999477709323
 20
52.64
 30
-15.0219213800365
 11
1.377163342755979
 21
52.64
 31
-15.08565816033989
 12
0.0
 22
52.64
 32
-15.08565816033989
 13
-0.0000000070884381
 23
52.64
 33
-15.02192153573677
  0
3DFACE
  5
1C1
330
1F
100
AcDbEntity
  8
3D
100
AcDbFace
 10
1.37716334275598
 20
52.64
 30
-15.08565816033988
 11
1.312131510870457
 21
52.64
 31
-15.18298518064996
 12
0.0
 22
52.64
 32
-15.18298518064996
 13
0.0
 23
52.64
 33
-15.08565816033989
  0
3DFACE
  5
1C2
330
1F
100
AcDbEntity
  8
3D
100
AcDbFace
 10
1.312131517942149
 20
52.64
 30
-15.18298517006643
 11
1.179288844444816
 21
52.64
 31
-15.31582784707565
 12
0.0
 22
52.64
 32
-15.31582784707565
 13
0.0
 23
52.64
 33
-15.18298518064996
  0
3DFACE
  5
1C3
330
1F
100
AcDbEntity
  8
3D
100
AcDbFace
 10
1.179288844444817
 20
52.64
 30
-15.31582784707564
 11
1.152406971140707
 21
52.64000000000001
 31
-15.36472812022024
 12
0.0
 22
52.64
 32
-15.36472812022024
 13
-0.0000000000000001
 23
52.64
 33
-15.31582784707565
  0
3DFACE
  5
1C4
330
1F
100
AcDbEntity
  8
3D
100
AcDbFace
 10
1.152406971140707
 20
52.64000000000001
 30
-15.36472812022024
 11
1.151112294660305
 21
52.63999999999999
 31
-15.40141521652551
 12
0.0
 22
52.64
 32
-15.40141521652551
 13
0.0000000000000001
 23
52.64
 33
-15.36472812022024
  0
3DFACE
  5
1C5
330
1F
100
AcDbEntity
  8
3D
100
AcDbFace
 10
1.151112294660304
 20
52.63999999999999
 30
-15.40141521652551
 11
1.16433754349493
 21
52.64
 31
-15.43813334165372
 12
0.0
 22
52.64
 32
-15.43813334165372
 13
0.0
 23
52.64
 33
-15.40141521652551
  0
3DFACE
  5
1C6
330
1F
100
AcDbEntity
  8
3D
100
AcDbFace
 10
1.164337543494926
 20
52.64
 30
-15.43813334165372
 11
1.337640841369248
 21
52.64
 31
-15.61912123475471
 12
0.0
 22
52.64
 32
-15.61912123475471
 13
0.0
 23
52.64
 33
-15.43813334165372
  0
3DFACE
  5
1C7
330
1F
100
AcDbEntity
  8
3D
100
AcDbFace
 10
1.337640841369248
 20
52.64
 30
-15.61912123475471
 11
1.377163383251523
 21
52.64
 31
-15.68741891949934
 12
0.0
 22
52.64
 32
-15.68741891949933
 13
-0.0000000000000002
 23
52.64
 33
-15.61912123475471
  0
3DFACE
  5
1C8
330
1F
100
AcDbEntity
  8
3D
100
AcDbFace
 10
1.377163383251521
 20
52.64
 30
-15.68741891949933
 11
1.397896636882109
 21
52.63999999999999
 31
-15.76676538412936
 12
0.0
 22
52.64
 32
-15.76676538412936
 13
0.0000000000000001
 23
52.64
 33
-15.68741891949933
  0
3DFACE
  5
1C9
330
1F
100
AcDbEntity
  8
3D
100
AcDbFace
 10
1.397896636882109
 20
52.63999999999999
 30
-15.76676538412936
 11
0.0
 21
52.64
 31
-15.76676538412936
 12
0.0
 22
52.64
 32
-17.96782737741991
 13
1.39999952085941
 23
52.64
 33
-17.97085309964223
  0
3DFACE
  5
1CA
330
1F
100
AcDbEntity
  8
3D
100
AcDbFace
 10
1.399999523498139
 20
52.64
 30
-17.97085309931033
 11
1.377163383251523
 21
52.64
 31
-18.08565812901986
 12
0.0
 22
52.64
 32
-18.08565812901986
 13
0.0
 23
52.64
 33
-17.96782737741991
  0
3DFACE
  5
1CB
330
1F
100
AcDbEntity
  8
3D
100
AcDbFace
 10
1.377163383251522
 20
52.64
 30
-18.08565812901987
 11
1.312131557854106
 21
52.64
 31
-18.18298513366629
 12
0.0
 22
52.64
 32
-18.18298513366629
 13
0.0000000000000003
 23
52.64
 33
-18.08565812901986
  0
3DFACE
  5
1CC
330
1F
100
AcDbEntity
  8
3D
100
AcDbFace
 10
1.312131556138808
 20
52.64
 30
-18.18298513492162
 11
1.179288845379489
 21
52.64
 31
-18.31582784614091
 12
0.0
 22
52.64
 32
-18.31582784614091
 13
0.0
 23
52.64
 33
-18.18298513366629
  0
3DFACE
  5
1CD
330
1F
100
AcDbEntity
  8
3D
100
AcDbFace
 10
1.179288842432939
 20
52.64
 30
-18.31582784557564
 11
1.149999523498143
 21
52.64
 31
-18.38653852425957
 12
0.0
 22
52.64
 32
-18.38653852425957
 13
0.0
 23
52.64
 33
-18.31582784614091
  0
3DFACE
  5
1CE
330
1F
100
AcDbEntity
  8
3D
100
AcDbFace
 10
1.149999523498143
 20
52.64
 30
-18.38653852425956
 11
1.179288842432939
 21
52.64
 31
-18.45724920242857
 12
0.0
 22
52.64
 32
-18.45724920242857
 13
-0.0000000000000002
 23
52.64
 33
-18.38653852425957
  0
3DFACE
  5
1CF
330
1F
100
AcDbEntity
  8
3D
100
AcDbFace
 10
1.179288842432939
 20
52.64
 30
-18.45724920242857
 11
1.312131943921954
 21
52.64
 31
-18.59009230092076
 12
0.0
 22
52.64
 32
-18.59009230092076
 13
0.0
 23
52.64
 33
-18.45724920242857
  0
3DFACE
  5
1D0
330
1F
100
AcDbEntity
  8
3D
100
AcDbFace
 10
1.312131940672017
 20
52.64
 30
-18.59009230066765
 11
1.377163762831284
 21
52.64
 31
-18.68741928990356
 12
0.0
 22
52.64
 32
-18.68741928990356
 13
0.0
 23
52.64
 33
-18.59009230092076
  0
3DFACE
  5
1D1
330
1F
100
AcDbEntity
  8
3D
100
AcDbFace
 10
1.377163762831286
 20
52.64
 30
-18.68741928990356
 11
1.404632225253289
 21
52.64
 31
-18.80110505313738
 12
0.0
 22
52.64
 32
-18.80110505313738
 13
0.0
 23
52.63999999999999
 33
-18.68741928990356
  0
3DFACE
  5
1D2
330
1F
100
AcDbEntity
  8
3D
100
AcDbFace
 10
0.0
 20
52.64
 30
-18.80110505313738
 11
1.404632225253289
 21
52.64
 31
-18.80110505313738
 12
1.400000000000005
 22
52.64
 32
-19.64000000048759
 13
0.0
 23
52.64
 33
-19.64000000048759
  0
3DFACE
  5
1D3
330
1F
100
AcDbEntity
  8
3D
100
AcDbFace
 10
26.10000000125647
 20
52.64
 30
-3.540000000487594
 11
26.12542379901731
 21
52.64
 31
-3.353058973543561
 12
27.47900060750409
 22
52.64
 32
-3.3698289780387
 13
27.50000000125647
 23
52.64
 33
-3.540000000000002
  0
3DFACE
  5
1D4
330
1F
100
AcDbEntity
  8
3D
100
AcDbFace
 10
27.47900060750409
 20
52.64
 30
-3.369828978038654
 11
27.41529257697372
 21
52.64
 31
-3.20621107527776
 12
26.18773913423281
 22
52.64
 32
-3.200682109650223
 13
26.12542379901732
 23
52.64
 33
-3.353058973543536
  0
3DFACE
  5
1D5
330
1F
100
AcDbEntity
  8
3D
100
AcDbFace
 10
26.18773913423281
 20
52.64
 30
-3.200682109650223
 11
26.27817662752093
 21
52.64
 31
-3.073416281227835
 12
27.31610287472465
 22
52.64
 32
-3.067096390373382
 13
27.41529257697371
 23
52.64
 33
-3.206211075277728
  0
3DFACE
  5
1D6
330
1F
100
AcDbEntity
  8
3D
100
AcDbFace
 10
26.27817662752094
 20
52.64
 30
-3.073416281227835
 11
26.38635033742664
 21
52.64
 31
-2.975293035625146
 12
27.21476317859054
 22
52.64
 32
-2.976110377176755
 13
27.31610287472465
 23
52.64
 33
-3.067096390373382
  0
3DFACE
  5
1D7
330
1F
100
AcDbEntity
  8
3D
100
AcDbFace
 10
26.38635033742664
 20
52.64
 30
-2.975293035625146
 11
26.50912222150057
 21
52.64
 31
-2.903297465652698
 12
27.08835433307585
 22
52.64
 32
-2.90215066095433
 13
27.21476317859055
 23
52.64
 33
-2.976110377176755
  0
3DFACE
  5
1D8
330
1F
100
AcDbEntity
  8
3D
100
AcDbFace
 10
26.50912222150057
 20
52.64
 30
-2.903297465652698
 11
26.62629596742784
 21
52.64
 31
-2.861894618343384
 12
26.97276520791888
 22
52.64
 32
-2.861654819898525
 13
27.08835433307585
 23
52.64
 33
-2.90215066095433
  0
3DFACE
  5
1D9
330
1F
100
AcDbEntity
  8
3D
100
AcDbFace
 10
26.62629596742786
 20
52.64
 30
-2.861894618343384
 11
26.71758803013424
 21
52.64
 31
-2.844868165729877
 12
26.71759977075288
 22
52.64
 32
-2.861831425114409
 13
26.62629596742786
 23
52.64
 33
-2.861894618343384
  0
3DFACE
  5
1DA
330
1F
100
AcDbEntity
  8
3D
100
AcDbFace
 10
26.71759977075288
 20
52.64
 30
-2.861831425114409
 11
26.71758803013424
 21
52.64
 31
-2.844868165729877
 12
26.77145145486031
 22
52.64
 32
-2.840582399064288
 13
26.77146613594203
 23
52.64
 33
-2.861794143101771
  0
3DFACE
  5
1DB
330
1F
100
AcDbEntity
  8
3D
100
AcDbFace
 10
26.77146613594203
 20
52.64
 30
-2.861794143101771
 11
26.77145145486031
 21
52.64
 31
-2.840582399064288
 12
26.84332361691458
 22
52.64
 32
-2.841341954654275
 13
26.84333773786364
 23
52.64
 33
-2.861744399296675
  0
3DFACE
  5
1DC
330
1F
100
AcDbEntity
  8
3D
100
AcDbFace
 10
26.84333773786364
 20
52.64
 30
-2.861744399296675
 11
26.84332361691458
 21
52.64
 31
-2.841341954654275
 12
26.90073184783817
 22
52.64
 32
-2.847596580449735
 13
26.90074161233463
 23
52.64
 33
-2.861704668901538
  0
3DFACE
  5
1DD
330
1F
100
AcDbEntity
  8
3D
100
AcDbFace
 10
26.90074161233463
 20
52.64
 30
-2.861704668901538
 11
26.90073184783817
 21
52.64
 31
-2.847596580449735
 12
26.97276520791885
 22
52.64
 32
-2.861654819898525
 13
26.90074161233463
 23
52.64
 33
-2.861704668901538
  0
3DFACE
  5
1DE
330
1F
100
AcDbEntity
  8
3D
100
AcDbFace
 10
1.400000001256479
 20
52.64
 30
-19.63999977294046
 11
1.491809796187936
 21
52.64
 31
-20.01211104988299
 12
0.0
 22
52.64
 32
-20.01211104988299
 13
0.0
 23
52.64
 33
-19.64000000048759
  0
3DFACE
  5
1DF
330
1F
100
AcDbEntity
  8
3D
100
AcDbFace
 10
1.491809796187933
 20
52.64
 30
-20.01211104988298
 11
1.599371489121061
 21
52.64
 31
-20.1684367421083
 12
0.0
 22
52.64
 32
-20.1684367421083
 13
0.0
 23
52.64
 33
-20.01211104988299
  0
3DFACE
  5
1E0
330
1F
100
AcDbEntity
  8
3D
100
AcDbFace
 10
1.599371489121024
 20
52.64
 30
-20.16843674210825
 11
1.781918077016211
 21
52.64
 31
-20.32206121765101
 12
0.0
 22
52.64
 32
-20.32206121765101
 13
0.0
 23
52.64
 33
-20.1684367421083
  0
3DFACE
  5
1E1
330
1F
100
AcDbEntity
  8
3D
100
AcDbFace
 10
1.781918077016175
 20
52.64
 30
-20.32206121765099
 11
1.981204706513868
 21
52.64
 31
-20.40949894021923
 12
0.0
 22
52.64
 32
-20.40949894021922
 13
0.0000000000000002
 23
52.64
 33
-20.32206121765101
  0
3DFACE
  5
1E2
330
1F
100
AcDbEntity
  8
3D
100
AcDbFace
 10
1.981204706513896
 20
52.64
 30
-20.40949894021923
 11
1.981204706513896
 21
52.64
 31
-21.84000000048759
 12
13.52445405930523
 22
52.64
 32
-21.84000000048759
 13
13.48038475898579
 23
52.64
 33
-20.44
  0
3DFACE
  5
1E3
330
1F
100
AcDbEntity
  8
3D
100
AcDbFace
 10
0.0
 20
52.64
 30
-20.40949894021922
 11
0.005324923346921
 21
52.64
 31
-20.94306061025275
 12
1.981204706513896
 22
52.64
 32
-20.94306061025275
 13
1.981204706512555
 23
52.64
 33
-20.40949894021923
  0
3DFACE
  5
1E4
330
1F
100
AcDbEntity
  8
3D
100
AcDbFace
 10
1.981204706512555
 20
52.64
 30
-20.94306061025275
 11
0.9154788229669552
 21
52.64
 31
-20.94306061025275
 12
0.9092490079261681
 22
52.64
 32
-21.83587361507853
 13
1.981204706513896
 23
52.64
 33
-21.84000000048759
  0
3DFACE
  5
1E5
330
1F
100
AcDbEntity
  8
3D
100
AcDbFace
 10
0.9092721013737566
 20
52.63999999999999
 30
-21.83587365660459
 11
0.6269652982848295
 21
52.64
 31
-21.76781739064262
 12
0.6269652982848295
 22
52.64
 32
-20.94306061025275
 13
0.9154788229669552
 23
52.64
 33
-20.94306061025275
  0
3DFACE
  5
1E6
330
1F
100
AcDbEntity
  8
3D
100
AcDbFace
 10
0.6269652982848296
 20
52.64
 30
-21.76781739064261
 11
0.4273908215728641
 21
52.64
 31
-21.65982847434209
 12
0.4273908215728641
 22
52.64
 32
-20.94306061025275
 13
0.6269652982848295
 23
52.64
 33
-20.94306061025275
  0
3DFACE
  5
1E7
330
1F
100
AcDbEntity
  8
3D
100
AcDbFace
 10
0.4273908215728641
 20
52.64
 30
-21.65982847434209
 11
0.2491159391878372
 21
52.64
 31
-21.50043404313477
 12
0.2491159391878372
 22
52.64
 32
-20.94306061025275
 13
0.4273908215728641
 23
52.64
 33
-20.94306061025275
  0
3DFACE
  5
1E8
330
1F
100
AcDbEntity
  8
3D
100
AcDbFace
 10
0.2491159391878372
 20
52.64
 30
-21.50043404313477
 11
0.1112441854194428
 21
52.64
 31
-21.29838095490093
 12
0.1112441854194428
 22
52.64
 32
-20.94306061025275
 13
0.2491159391878372
 23
52.64
 33
-20.94306061025275
  0
3DFACE
  5
1E9
330
1F
100
AcDbEntity
  8
3D
100
AcDbFace
 10
0.1112441854194428
 20
52.64
 30
-21.29838095490093
 11
0.052969451825543
 21
52.64
 31
-21.16114348575767
 12
0.052969451825543
 22
52.63999999999999
 32
-20.94306061025275
 13
0.1112441854194428
 23
52.64
 33
-20.94306061025275
  0
3DFACE
  5
1EA
330
1F
100
AcDbEntity
  8
3D
100
AcDbFace
 10
0.0529694518255435
 20
52.64
 30
-21.16114348575767
 11
0.0053249233469211
 21
52.64
 31
-20.94306061025274
 12
0.052969451825543
 22
52.63999999999999
 32
-20.94306061025274
 13
0.052969451825543
 23
52.64
 33
-21.16114348575767
  0
3DFACE
  5
1EB
330
1F
100
AcDbEntity
  8
3D
100
AcDbFace
 10
13.48038494281387
 20
52.64
 30
-20.44000000048759
 11
13.58878234448709
 21
52.64
 31
-20.46026805070303
 12
13.58878234448709
 22
52.64
 32
-21.84000000048759
 13
13.52445405930523
 23
52.64
 33
-21.84000000048759
  0
3DFACE
  5
1EC
330
1F
100
AcDbEntity
  8
3D
100
AcDbFace
 10
13.58878234448709
 20
52.64
 30
-20.46026805070302
 11
13.69282327508863
 21
52.64
 31
-20.52817489082732
 12
13.69282327508863
 22
52.64
 32
-21.84000000048759
 13
13.58878234448709
 23
52.64
 33
-21.84000000048759
  0
3DFACE
  5
1ED
330
1F
100
AcDbEntity
  8
3D
100
AcDbFace
 10
13.69282327508863
 20
52.64
 30
-20.52817489082731
 11
13.75784121470348
 21
52.64
 31
-20.61708507022105
 12
13.75784121470348
 22
52.64
 32
-21.84000000048759
 13
13.69282327508863
 23
52.64
 33
-21.84000000048759
  0
3DFACE
  5
1EE
330
1F
100
AcDbEntity
  8
3D
100
AcDbFace
 10
13.75784121470348
 20
52.64
 30
-20.61708507022105
 11
13.85108608627211
 21
52.64
 31
-20.70043165307628
 12
13.85108608627211
 22
52.64
 32
-21.84000000048759
 13
13.75784121470348
 23
52.64
 33
-21.84000000048759
  0
3DFACE
  5
1EF
330
1F
100
AcDbEntity
  8
3D
100
AcDbFace
 10
13.85108608627209
 20
52.64
 30
-20.70043165307625
 11
13.97374338923956
 21
52.64
 31
-20.7388487750107
 12
13.97374338923956
 22
52.64
 32
-21.84000000048759
 13
13.85108608627211
 23
52.64
 33
-21.84000000048759
  0
3DFACE
  5
1F0
330
1F
100
AcDbEntity
  8
3D
100
AcDbFace
 10
13.97374338923956
 20
52.64
 30
-20.7388487750107
 11
14.09349972734279
 21
52.64
 31
-20.72505754019457
 12
14.06522054049137
 22
52.64
 32
-21.84000000048759
 13
13.97374338923956
 23
52.64
 33
-21.84000000048759
  0
3DFACE
  5
1F1
330
1F
100
AcDbEntity
  8
3D
100
AcDbFace
 10
14.09349972734279
 20
52.64
 30
-20.72505754019457
 11
14.21441897045167
 21
52.63999999999999
 31
-20.64982017455253
 12
14.21441897045167
 22
52.64
 32
-21.84000000048759
 13
14.06531646153079
 23
52.64
 33
-21.8362181930312
  0
3DFACE
  5
1F2
330
1F
100
AcDbEntity
  8
3D
100
AcDbFace
 10
14.21441897045167
 20
52.63999999999999
 30
-20.64982017455253
 11
14.27676980678664
 21
52.64
 31
-20.56385774540351
 12
14.27676980678664
 22
52.64
 32
-21.84000000048759
 13
14.21441897045167
 23
52.64
 33
-21.84000000048759
  0
3DFACE
  5
1F3
330
1F
100
AcDbEntity
  8
3D
100
AcDbFace
 10
14.27676980678664
 20
52.64
 30
-20.56385774540351
 11
14.35006301390077
 21
52.64000000000001
 31
-20.4925085023102
 12
14.35006301390078
 22
52.64
 32
-21.84000000048759
 13
14.27676980678664
 23
52.64
 33
-21.84000000048759
  0
3DFACE
  5
1F4
330
1F
100
AcDbEntity
  8
3D
100
AcDbFace
 10
14.35006301390082
 20
52.64000000000001
 30
-20.49250850231017
 11
14.51961524352711
 21
52.64
 31
-20.44
 12
14.51961524352711
 22
52.64
 32
-21.84000000048759
 13
14.35006301390078
 23
52.64
 33
-21.84000000048759
  0
3DFACE
  5
1F5
330
1F
100
AcDbEntity
  8
3D
100
AcDbFace
 10
14.51961524352711
 20
52.64
 30
-21.84000000048759
 11
14.51961524195264
 21
52.64
 31
-20.44000000048759
 12
25.80000000126942
 22
52.64
 32
-20.44000000000001
 13
25.80000000126942
 23
52.64
 33
-21.84000000048759
  0
3DFACE
  5
1F6
330
1F
100
AcDbEntity
  8
3D
100
AcDbFace
 10
25.8
 20
52.64
 30
-20.44000000048759
 11
25.91071171372553
 21
52.64000000000001
 31
-20.41882416810989
 12
25.91071171372553
 22
52.64
 32
-21.84000000048759
 13
25.80000000126942
 23
52.64
 33
-21.84000000048759
  0
3DFACE
  5
1F7
330
1F
100
AcDbEntity
  8
3D
100
AcDbFace
 10
25.91071171372553
 20
52.64000000000001
 30
-20.41882416810989
 11
26.01213203561242
 21
52.64
 31
-20.35213203435598
 12
26.01213203561241
 22
52.64
 32
-21.84000000048759
 13
25.91071171372553
 23
52.64
 33
-21.84000000048759
  0
3DFACE
  5
1F8
330
1F
100
AcDbEntity
  8
3D
100
AcDbFace
 10
26.01213203561242
 20
52.64
 30
-20.35213203435597
 11
26.07009047898519
 21
52.64
 31
-20.27057999019859
 12
26.07009047898519
 22
52.64
 32
-21.84000000048759
 13
26.01213203561241
 23
52.64
 33
-21.84000000048759
  0
3DFACE
  5
1F9
330
1F
100
AcDbEntity
  8
3D
100
AcDbFace
 10
26.07009047898519
 20
52.64
 30
-20.27057999019858
 11
26.09992371189693
 21
52.64
 31
-20.16220307307379
 12
26.09697582864985
 22
52.63999999999999
 32
-21.84000000048759
 13
26.07009047898519
 23
52.64
 33
-21.84000000048759
  0
3DFACE
  5
1FA
330
1F
100
AcDbEntity
  8
3D
100
AcDbFace
 10
26.09995343592645
 20
52.64
 30
-20.14528554913591
 11
27.5
 21
52.64
 31
-20.14000000048759
 12
27.5
 22
52.64
 32
-3.540000000487594
 13
26.10000000125648
 23
52.64
 33
-3.539999999512403
  0
3DFACE
  5
1FB
330
1F
100
AcDbEntity
  8
3D
100
AcDbFace
 10
26.09697582864985
 20
52.63999999999999
 30
-21.84000000048759
 11
26.09995343592645
 21
52.64
 31
-20.14528554913576
 12
27.5
 22
52.64
 32
-20.14000000048759
 13
27.5
 23
52.64
 33
-21.84000000048759
  0
3DFACE
  5
1FC
330
1F
100
AcDbEntity
  8
3D
100
AcDbFace
 10
27.5
 20
52.64
 30
-20.18248950392754
 11
27.53753236331471
 21
52.64000000000001
 31
-20.28529535103811
 12
27.53753236331471
 22
52.64
 32
-21.84000000048759
 13
27.5
 23
52.64
 33
-21.84000000048759
  0
3DFACE
  5
1FD
330
1F
100
AcDbEntity
  8
3D
100
AcDbFace
 10
27.5375323633147
 20
52.64000000000001
 30
-20.28529535103808
 11
27.58786796690049
 21
52.64
 31
-20.35213203435597
 12
27.58786796690049
 22
52.64
 32
-21.84000000048759
 13
27.53753236331471
 23
52.64
 33
-21.84000000048759
  0
3DFACE
  5
1FE
330
1F
100
AcDbEntity
  8
3D
100
AcDbFace
 10
27.5878679669005
 20
52.64
 30
-20.35213203435598
 11
27.64370117810685
 21
52.64
 31
-20.39606772128102
 12
27.64370117810685
 22
52.64
 32
-21.84000000048759
 13
27.58786796690049
 23
52.64
 33
-21.84000000048759
  0
3DFACE
  5
1FF
330
1F
100
AcDbEntity
  8
3D
100
AcDbFace
 10
27.64370117810682
 20
52.64
 30
-20.396067721281
 11
27.80000000125645
 21
52.64
 31
-20.44000000000001
 12
27.80000000125646
 22
52.64
 32
-21.84000000048759
 13
27.64370117810685
 23
52.64
 33
-21.84000000048759
  0
3DFACE
  5
200
330
1F
100
AcDbEntity
  8
3D
100
AcDbFace
 10
27.80000000125646
 20
52.64
 30
-21.84000000048759
 11
27.80000000299113
 21
52.64
 31
-20.44000000048759
 12
36.53038475898582
 22
52.64
 32
-20.44000000000001
 13
36.53038475898583
 23
52.64
 33
-21.84000000048759
  0
3DFACE
  5
201
330
1F
100
AcDbEntity
  8
3D
100
AcDbFace
 10
36.53038475898583
 20
52.64
 30
-20.44000000048759
 11
36.68038475898581
 21
52.64
 31
-20.48019237886468
 12
36.68038475898581
 22
52.64
 32
-21.84000000048759
 13
36.53038475898583
 23
52.64
 33
-21.84000000048759
  0
3DFACE
  5
202
330
1F
100
AcDbEntity
  8
3D
100
AcDbFace
 10
36.68038475898581
 20
52.64
 30
-20.48019237886468
 11
36.79019238012114
 21
52.64
 31
-20.59000000000001
 12
36.79019238012114
 22
52.64
 32
-21.84000000048759
 13
36.68038475898581
 23
52.64
 33
-21.84000000048759
  0
3DFACE
  5
203
330
1F
100
AcDbEntity
  8
3D
100
AcDbFace
 10
36.79019238012114
 20
52.64
 30
-20.59000000000001
 11
36.89596532447491
 21
52.64
 31
-20.69743604710453
 12
36.89596532447491
 22
52.64
 32
-21.84000000048759
 13
36.79019238012114
 23
52.64
 33
-21.84000000048759
  0
3DFACE
  5
204
330
1F
100
AcDbEntity
  8
3D
100
AcDbFace
 10
36.89596532447491
 20
52.64
 30
-20.69743604710453
 11
36.98704608412263
 21
52.64
 31
-20.7333203101006
 12
36.98704608412263
 22
52.64
 32
-21.84000000048759
 13
36.89596532447491
 23
52.64
 33
-21.84000000048759
  0
3DFACE
  5
205
330
1F
100
AcDbEntity
  8
3D
100
AcDbFace
 10
36.9870460841226
 20
52.64
 30
-20.73332031010059
 11
37.08209479431892
 21
52.64
 31
-20.73827826648666
 12
37.08209479431892
 22
52.64
 32
-21.84000000048759
 13
36.98704608412263
 23
52.64
 33
-21.84000000048759
  0
3DFACE
  5
206
330
1F
100
AcDbEntity
  8
3D
100
AcDbFace
 10
37.08209479431892
 20
52.64
 30
-20.73827826648666
 11
37.19902391541119
 21
52.64
 31
-20.70036872509965
 12
37.1990239154112
 22
52.64
 32
-21.84000000048759
 13
37.08209479431892
 23
52.64
 33
-21.84000000048759
  0
3DFACE
  5
207
330
1F
100
AcDbEntity
  8
3D
100
AcDbFace
 10
37.19902391541118
 20
52.64
 30
-20.70036872509964
 11
37.3098076223918
 21
52.64
 31
-20.59000000000001
 12
37.3098076223918
 22
52.64
 32
-21.84000000048759
 13
37.1990239154112
 23
52.64
 33
-21.84000000048759
  0
3DFACE
  5
208
330
1F
100
AcDbEntity
  8
3D
100
AcDbFace
 10
37.3098076223918
 20
52.64
 30
-20.59000000000001
 11
37.41961524352714
 21
52.64
 31
-20.48019237886468
 12
37.41961524352715
 22
52.64
 32
-21.84000000048759
 13
37.3098076223918
 23
52.64
 33
-21.84000000048759
  0
3DFACE
  5
209
330
1F
100
AcDbEntity
  8
3D
100
AcDbFace
 10
37.41961524352715
 20
52.64
 30
-20.48019237886467
 11
37.56961524352713
 21
52.64
 31
-20.44000000000001
 12
37.56961524352713
 22
52.64
 32
-21.84000000048759
 13
37.41961524352715
 23
52.64
 33
-21.84000000048759
  0
3DFACE
  5
20A
330
1F
100
AcDbEntity
  8
3D
100
AcDbFace
 10
37.56961524352713
 20
52.64
 30
-21.84000000048759
 11
37.5696152439955
 21
52.64
 31
-20.44000000048759
 12
46.30000000125646
 22
52.64
 32
-20.44000000000001
 13
46.30000000125646
 23
52.64
 33
-21.84000000048759
  0
3DFACE
  5
20B
330
1F
100
AcDbEntity
  8
3D
100
AcDbFace
 10
46.30000000125647
 20
52.64
 30
-21.84000000000001
 11
46.30000000125647
 21
52.64
 31
-20.44000000048759
 12
46.54322784566803
 22
52.63999999999999
 32
-20.47003081713753
 13
46.47443591519572
 23
52.64
 33
-21.89592601136505
  0
3DFACE
  5
20C
330
1F
100
AcDbEntity
  8
3D
100
AcDbFace
 10
46.47443591519572
 20
52.64
 30
-21.89592601136505
 11
46.54322784566803
 21
52.63999999999999
 31
-20.47003081713753
 12
46.77017061173855
 22
52.63999999999999
 32
-20.55742445250343
 13
46.55337546693913
 23
52.64
 33
-21.97937349723632
  0
3DFACE
  5
20D
330
1F
100
AcDbEntity
  8
3D
100
AcDbFace
 10
46.77017061173855
 20
52.63999999999999
 30
-20.55742445250343
 11
46.55337546693913
 21
52.64
 31
-21.97937349723632
 12
46.59685204919984
 22
52.64
 32
-22.09665416246254
 13
46.94430785869082
 23
52.64
 33
-20.6752337711115
  0
3DFACE
  5
20E
330
1F
100
AcDbEntity
  8
3D
100
AcDbFace
 10
46.59685204919985
 20
52.64
 30
-22.09665416246253
 11
47.29999999999999
 21
52.64
 31
-22.09665416246253
 12
47.29999999999999
 22
52.64
 32
-22.2900000004876
 13
46.60000000000001
 23
52.64
 33
-22.2900000004876
  0
3DFACE
  5
20F
330
1F
100
AcDbEntity
  8
3D
100
AcDbFace
 10
47.29999999999999
 20
52.64
 30
-22.09665416246253
 11
47.30000000125646
 21
52.64
 31
-21.44
 12
46.75843915754962
 22
52.64
 32
-21.43561121969431
 13
46.59685204919985
 23
52.64
 33
-22.09665416246257
  0
3DFACE
  5
210
330
1F
100
AcDbEntity
  8
3D
100
AcDbFace
 10
46.75843915754962
 20
52.64
 30
-21.43561121969431
 11
47.29999999999999
 21
52.64
 31
-21.43999999998982
 12
47.27021487740659
 22
52.64
 32
-21.19775406278544
 13
46.81814165685713
 23
52.64
 33
-21.19137195929851
  0
3DFACE
  5
211
330
1F
100
AcDbEntity
  8
3D
100
AcDbFace
 10
46.81814165685713
 20
52.64
 30
-21.19137195929851
 11
47.27021487740659
 21
52.64
 31
-21.19775406278544
 12
47.16386913915989
 22
52.64
 32
-20.93628369832022
 13
46.8840807133594
 23
52.64
 33
-20.92161932619074
  0
3DFACE
  5
212
330
1F
100
AcDbEntity
  8
3D
100
AcDbFace
 10
46.8840807133594
 20
52.64
 30
-20.92161932619074
 11
46.94430785869078
 21
52.64
 31
-20.67523377111148
 12
47.1638691391599
 22
52.64
 32
-20.93628369832022
 13
46.8840807133594
 23
52.64
 33
-20.92161932619074
  0
3DFACE
  5
213
330
1F
100
AcDbEntity
  8
3D
100
AcDbFace
 10
46.60000000125648
 20
52.64
 30
-22.29
 11
46.60779653536557
 21
52.64
 31
-22.36346283367968
 12
47.2917455785615
 22
52.64
 32
-22.36556427987114
 13
47.29999999999999
 23
52.64
 33
-22.2900000004876
  0
3DFACE
  5
214
330
1F
100
AcDbEntity
  8
3D
100
AcDbFace
 10
46.60779653536557
 20
52.64
 30
-22.36346283367968
 11
46.63787731875343
 21
52.64
 31
-22.44836486689639
 12
47.26340141524658
 22
52.64
 32
-22.44581897737119
 13
47.2917455785615
 23
52.64
 33
-22.36556427987114
  0
3DFACE
  5
215
330
1F
100
AcDbEntity
  8
3D
100
AcDbFace
 10
46.6378773187534
 20
52.64
 30
-22.44836486689631
 11
46.68984911902214
 21
52.64
 31
-22.52413995488319
 12
47.21293723213159
 22
52.64
 32
-22.52100652072988
 13
47.26340141524659
 23
52.64
 33
-22.44581897737114
  0
3DFACE
  5
216
330
1F
100
AcDbEntity
  8
3D
100
AcDbFace
 10
46.68984911902214
 20
52.64
 30
-22.52413995488319
 11
46.75595441158921
 21
52.64
 31
-22.58128389782254
 12
47.14406019546201
 22
52.64
 32
-22.58127416813874
 13
47.21293723213164
 23
52.64
 33
-22.52100652072981
  0
3DFACE
  5
217
330
1F
100
AcDbEntity
  8
3D
100
AcDbFace
 10
46.75595441158914
 20
52.64
 30
-22.58128389782248
 11
46.81890625773513
 21
52.64
 31
-22.61452184889398
 12
47.07989641617177
 22
52.64
 32
-22.61500295597449
 13
47.14406019546205
 23
52.64
 33
-22.5812741681387
  0
3DFACE
  5
218
330
1F
100
AcDbEntity
  8
3D
100
AcDbFace
 10
46.81890625773514
 20
52.64
 30
-22.61452184889397
 11
46.88423098786437
 21
52.64
 31
-22.63376508967235
 12
47.01298997939544
 22
52.64
 32
-22.63428514730388
 13
47.07989641617177
 23
52.64
 33
-22.61500295597449
  0
3DFACE
  5
219
330
1F
100
AcDbEntity
  8
3D
100
AcDbFace
 10
46.88423098786433
 20
52.64
 30
-22.63376508967233
 11
46.94216291598349
 21
52.64
 31
-22.63399907675915
 12
46.94504761528569
 22
52.64
 32
-22.63996496092209
 13
46.92375202187284
 23
52.64
 33
-22.63901438878402
  0
3DFACE
  5
21A
330
1F
100
AcDbEntity
  8
3D
100
AcDbFace
 10
46.94504761528558
 20
52.64
 30
-22.63996496092208
 11
46.94216291598349
 21
52.64
 31
-22.63399907675915
 12
47.01128010501101
 22
52.64
 32
-22.63427824112038
 13
46.9754908554396
 23
52.64
 33
-22.63907050341302
  0
3DFACE
  5
224
330
1F
100
AcDbEntity
  8
3D
100
AcDbFace
 10
47.30000000125646
 20
22.64
 30
-21.44
 11
47.30000000125646
 21
52.64
 31
-21.44000001020881
 12
47.3000000012565
 22
52.63999999999999
 32
-22.09665416246253
 13
47.29999999999998
 23
22.64
 33
-22.09665416246253
  0
3DFACE
  5
225
330
1F
100
AcDbEntity
  8
3D
100
AcDbFace
 10
47.29999999999998
 20
22.64
 30
-22.09665416246253
 11
47.30000000125646
 21
22.64
 31
-22.29000000000001
 12
47.30000000006724
 22
52.64
 32
-22.28999999987178
 13
47.29999999999999
 23
52.64
 33
-22.09665416246253
  0
3DFACE
  5
226
330
1F
100
AcDbEntity
  8
3D
100
AcDbFace
 10
47.2917455785615
 20
52.64
 30
-22.36556427987114
 11
47.2917455785615
 21
22.64
 31
-22.3655642798712
 12
47.30000000125646
 22
22.64
 32
-22.28999998898539
 13
47.30000000125646
 23
22.64
 33
-22.28999998898539
  0
3DFACE
  5
227
330
1F
100
AcDbEntity
  8
3D
100
AcDbFace
 10
47.29174557856151
 20
22.64
 30
-22.36556427987113
 11
47.26340141524656
 21
22.64
 31
-22.44581897737119
 12
47.26340141524659
 22
52.64
 32
-22.44581897737114
 13
47.29174552079602
 23
52.64
 33
-22.36556480867959
  0
3DFACE
  5
228
330
1F
100
AcDbEntity
  8
3D
100
AcDbFace
 10
47.26340141524658
 20
52.64020994378586
 30
-22.44581897737113
 11
47.21293723213157
 21
52.64
 31
-22.52100652072988
 12
47.21293723213157
 22
22.64
 32
-22.52100652072988
 13
47.26340141524657
 23
22.64
 33
-22.4458189773712
  0
3DFACE
  5
229
330
1F
100
AcDbEntity
  8
3D
100
AcDbFace
 10
47.21293723213163
 20
22.64
 30
-22.52100652072983
 11
47.14406019546204
 21
22.64
 31
-22.5812741681387
 12
47.14406019546205
 22
52.64
 32
-22.58127416813874
 13
47.21293723213163
 23
52.64
 33
-22.52100652072983
  0
3DFACE
  5
233
330
1F
100
AcDbEntity
  8
3D
100
AcDbFace
 10
47.14406019546205
 20
22.64
 30
-22.5812741681387
 11
47.07989641617179
 21
22.64
 31
-22.61500295597448
 12
47.07989641617179
 22
52.64000000000001
 32
-22.61500295597446
 13
47.14406019546226
 23
52.64
 33
-22.58127416813856
  0
3DFACE
  5
234
330
1F
100
AcDbEntity
  8
3D
100
AcDbFace
 10
47.07989641617179
 20
52.64
 30
-22.61500295597446
 11
47.01298997939551
 21
52.64
 31
-22.63428514730386
 12
47.01298997939551
 22
22.64
 32
-22.63428514730389
 13
47.07989641617174
 23
22.64
 33
-22.61500295597449
  0
3DFACE
  5
235
330
1F
100
AcDbEntity
  8
3D
100
AcDbFace
 10
47.01298997939551
 20
52.64
 30
-22.63428514730386
 11
46.94504761528569
 21
52.64
 31
-22.63996496092208
 12
46.94504761528569
 22
22.64
 32
-22.63996496092209
 13
47.01298997939543
 23
22.64
 33
-22.63428514730388
  0
3DFACE
  5
236
330
1F
100
AcDbEntity
  8
3D
100
AcDbFace
 10
46.94504761528566
 20
52.64
 30
-22.63996496092209
 11
46.88423098786432
 21
52.64
 31
-22.63376508967233
 12
46.88423098786444
 22
22.64
 32
-22.63376508967235
 13
46.94504761528595
 23
22.64
 33
-22.63996496092207
  0
3DFACE
  5
23F
330
1F
100
AcDbEntity
  8
3D
100
AcDbFace
 10
47.29174557856151
 20
22.63999999983474
 30
-22.36556427987113
 11
47.30000000125647
 21
22.63999999983474
 31
-22.29000000000001
 12
47.30000000006724
 22
52.63999999983474
 32
-22.29000000000001
 13
47.29174552079603
 23
52.63999999848687
 33
-22.3655648086796
  0
3DFACE
  5
246
330
1F
100
AcDbEntity
  8
3D
100
AcDbFace
 10
46.59685204919984
 20
52.64
 30
-22.09665416246254
 11
46.59685204913258
 21
52.64
 31
-22.28999999987179
 12
46.59685204794338
 22
22.64
 32
-22.29000000000001
 13
46.59685204919986
 23
22.64
 33
-22.09665416246254
  0
3DFACE
  5
247
330
1F
100
AcDbEntity
  8
3D
100
AcDbFace
 10
46.60510652840382
 20
52.64
 30
-22.3655648086796
 11
46.63345063395325
 21
52.64
 31
-22.44581897737114
 12
46.63345063395328
 22
22.64
 32
-22.4458189773712
 13
46.60510647063833
 23
22.64
 33
-22.36556427987113
  0
3DFACE
  5
248
330
1F
100
AcDbEntity
  8
3D
100
AcDbFace
 10
46.63345063395328
 20
22.64
 30
-22.4458189773712
 11
46.68391481706827
 21
22.64
 31
-22.52100652072988
 12
46.68391481706827
 22
52.64
 32
-22.52100652072988
 13
46.63345063395326
 23
52.64020994378586
 33
-22.44581897737114
  0
3DFACE
  5
249
330
1F
100
AcDbEntity
  8
3D
100
AcDbFace
 10
46.68391481706822
 20
52.64
 30
-22.52100652072983
 11
46.75279185373778
 21
52.64
 31
-22.58127416813874
 12
46.7527918537378
 22
22.64
 32
-22.5812741681387
 13
46.68391481706822
 23
22.64
 33
-22.52100652072983
  0
3DFACE
  5
24A
330
1F
100
AcDbEntity
  8
3D
100
AcDbFace
 10
46.75279185373758
 20
52.64
 30
-22.58127416813857
 11
46.81695563302805
 21
52.64000000000001
 31
-22.61500295597446
 12
46.81695563302805
 22
22.64
 32
-22.61500295597448
 13
46.75279185373778
 23
22.64
 33
-22.5812741681387
  0
3DFACE
  5
24B
330
1F
100
AcDbEntity
  8
3D
100
AcDbFace
 10
46.60510652840382
 20
52.63999999865212
 30
-22.3655648086796
 11
46.5968520491326
 21
52.64
 31
-22.29000000000001
 12
46.59685204794338
 22
22.64
 32
-22.29000000000001
 13
46.60510647063833
 23
22.64
 33
-22.36556427987113
  0
3DFACE
  5
25E
330
1F
100
AcDbEntity
  8
3D
100
AcDbFace
 10
47.30000000125646
 20
22.64
 30
-21.44
 11
47.27021487740659
 21
22.64
 31
-21.19775406278544
 12
47.27021487740661
 22
52.64
 32
-21.19775406278549
 13
47.30000000125646
 23
52.64
 33
-21.44
  0
3DFACE
  5
25F
330
1F
100
AcDbEntity
  8
3D
100
AcDbFace
 10
47.2702148774066
 20
52.64
 30
-21.19775406278544
 11
47.16386913915987
 21
52.64
 31
-20.93628369832016
 12
47.16386913915987
 22
22.64
 32
-20.93628369832017
 13
47.27021487740659
 23
22.64
 33
-21.1977540627854
  0
3DFACE
  5
260
330
1F
100
AcDbEntity
  8
3D
100
AcDbFace
 10
47.16386913915987
 20
22.64
 30
-20.93628369832016
 11
46.94430785869077
 21
22.64
 31
-20.67523377111147
 12
46.94430785869084
 22
52.64
 32
-20.67523377111147
 13
47.16386913915987
 23
52.64
 33
-20.93628369832016
  0
3DFACE
  5
261
330
1F
100
AcDbEntity
  8
3D
100
AcDbFace
 10
46.94430785869097
 20
52.64
 30
-20.67523377111163
 11
46.77017061173855
 21
52.63999999999999
 31
-20.55742445250342
 12
46.77017061173939
 22
22.64
 32
-20.557424452504
 13
46.94430785869076
 23
22.64
 33
-20.67523377111145
  0
3DFACE
  5
262
330
1F
100
AcDbEntity
  8
3D
100
AcDbFace
 10
46.77017061173855
 20
22.64
 30
-20.55742445250341
 11
46.54322784566803
 21
22.63999999999999
 31
-20.47003081713753
 12
46.54322784566803
 22
52.63999999999998
 32
-20.47003081713738
 13
46.77017061173861
 23
52.63999999999999
 33
-20.55742445250345
  0
3DFACE
  5
263
330
1F
100
AcDbEntity
  8
3D
100
AcDbFace
 10
46.54322784566803
 20
52.63999999999998
 30
-20.47003081713738
 11
46.30000000125646
 21
52.64
 31
-20.44000000000001
 12
46.30000000125647
 22
22.64
 32
-20.44000000048759
 13
46.54322784566803
 23
22.64
 33
-20.47003081713753
  0
3DFACE
  5
264
330
1F
100
AcDbEntity
  8
3D
100
AcDbFace
 10
46.30000000125647
 20
22.64
 30
-20.44000000048759
 11
46.30000000131754
 21
52.63999999999999
 31
-20.44000000000755
 12
37.5696152439955
 22
52.64
 32
-20.43999999708681
 13
37.5696152439955
 23
22.64
 33
-20.43999999708681
  0
3DFACE
  5
265
330
1F
100
AcDbEntity
  8
3D
100
AcDbFace
 10
37.56961525439935
 20
22.64
 30
-20.43999999708681
 11
37.41961524352716
 21
22.64
 31
-20.48019237886467
 12
37.41961524352717
 22
52.64
 32
-20.48019237886466
 13
37.56961525439935
 23
52.64
 33
-20.43999999708681
  0
3DFACE
  5
266
330
1F
100
AcDbEntity
  8
3D
100
AcDbFace
 10
37.41961524352714
 20
52.64
 30
-20.48019237886467
 11
37.30980762239179
 21
52.64
 31
-20.59000000000002
 12
37.30980762239179
 22
22.64
 32
-20.59000000000002
 13
37.41961524352714
 23
22.64
 33
-20.48019237886468
  0
3DFACE
  5
267
330
1F
100
AcDbEntity
  8
3D
100
AcDbFace
 10
37.3098076223918
 20
22.64
 30
-20.59000000000001
 11
37.19902391541116
 21
22.64
 31
-20.70036872509966
 12
37.19902391541115
 22
52.64
 32
-20.70036872509966
 13
37.30980762239179
 23
52.64
 33
-20.59000000000003
  0
3DFACE
  5
268
330
1F
100
AcDbEntity
  8
3D
100
AcDbFace
 10
37.19902391541116
 20
52.64
 30
-20.70036872509966
 11
37.08209479431892
 21
52.64
 31
-20.73827826648666
 12
37.08209479431891
 22
22.64
 32
-20.73827826648666
 13
37.19902391541116
 23
22.64
 33
-20.70036872509966
  0
3DFACE
  5
269
330
1F
100
AcDbEntity
  8
3D
100
AcDbFace
 10
37.08209479431891
 20
22.64
 30
-20.73827826648666
 11
36.98704608412259
 21
22.64
 31
-20.73332031010059
 12
36.98704608412254
 22
52.64
 32
-20.73332031010059
 13
37.0820947943189
 23
52.64
 33
-20.73827826648666
  0
3DFACE
  5
26A
330
1F
100
AcDbEntity
  8
3D
100
AcDbFace
 10
36.98704608412254
 20
52.64
 30
-20.73332031010059
 11
36.89596532447492
 21
52.64
 31
-20.69743604710453
 12
36.89596532447493
 22
22.64
 32
-20.69743604710454
 13
36.98704608412263
 23
22.64
 33
-20.73332031010059
  0
3DFACE
  5
26B
330
1F
100
AcDbEntity
  8
3D
100
AcDbFace
 10
36.89596532447493
 20
22.64
 30
-20.69743604710454
 11
36.79019238012114
 21
22.64
 31
-20.59000000000001
 12
36.79019238012114
 22
52.64000000000001
 32
-20.59000000000002
 13
36.89596532447492
 23
52.64
 33
-20.69743604710454
  0
3DFACE
  5
26C
330
1F
100
AcDbEntity
  8
3D
100
AcDbFace
 10
36.79019238012114
 20
52.64000000000001
 30
-20.59000000000002
 11
36.68038475898581
 21
52.64
 31
-20.48019237886468
 12
36.68038475898582
 22
22.64
 32
-20.48019237886469
 13
36.79019238012115
 23
22.64
 33
-20.59000000000002
  0
3DFACE
  5
26D
330
1F
100
AcDbEntity
  8
3D
100
AcDbFace
 10
36.68038475898582
 20
22.64
 30
-20.48019237886469
 11
36.53038475716615
 21
22.64
 31
-20.44000000000001
 12
36.53038475716615
 22
52.64
 32
-20.44000000048759
 13
36.68038475898581
 23
52.64
 33
-20.48019237886468
  0
3DFACE
  5
26E
330
1F
100
AcDbEntity
  8
3D
100
AcDbFace
 10
36.53038475929555
 20
22.64
 30
-20.4400000004876
 11
36.53038475935661
 21
52.63999999999999
 31
-20.44000000000755
 12
27.80000000203457
 22
52.64
 32
-20.43999999708681
 13
27.80000000203457
 23
22.64
 33
-20.43999999708681
  0
3DFACE
  5
278
330
1F
100
AcDbEntity
  8
3D
100
AcDbFace
 10
27.80000000299113
 20
52.63999999999999
 30
-20.4399999770775
 11
27.64370117810685
 21
52.64
 31
-20.39606772128102
 12
27.6437011781069
 22
22.64000000000001
 32
-20.39606772128103
 13
27.79999999089211
 23
22.64
 33
-20.43999999708681
  0
3DFACE
  5
279
330
1F
100
AcDbEntity
  8
3D
100
AcDbFace
 10
27.64370117810681
 20
22.64
 30
-20.396067721281
 11
27.5878679669005
 21
22.64
 31
-20.35213203435599
 12
27.58786796690203
 22
52.63999999999999
 32
-20.35213203435802
 13
27.64370117810684
 23
52.64
 33
-20.39606772128102
  0
3DFACE
  5
27A
330
1F
100
AcDbEntity
  8
3D
100
AcDbFace
 10
27.58786796690441
 20
52.63999999999999
 30
-20.35213203435989
 11
27.53753236331471
 21
52.64000000000001
 31
-20.28529535103811
 12
27.53753236331319
 22
22.64000000000001
 32
-20.28529535103607
 13
27.5878679669005
 23
22.64
 33
-20.35213203435598
  0
3DFACE
  5
27B
330
1F
100
AcDbEntity
  8
3D
100
AcDbFace
 10
27.53753236331471
 20
22.64000000000001
 30
-20.28529535103811
 11
27.5
 21
22.64
 31
-20.18248950392754
 12
27.5
 22
52.64000000000001
 32
-20.18248950392754
 13
27.53753236331472
 23
52.64000000000001
 33
-20.28529535103812
  0
3DFACE
  5
27C
330
1F
100
AcDbEntity
  8
3D
100
AcDbFace
 10
27.5
 20
52.64000000000001
 30
-20.18248950392756
 11
27.50000000125645
 21
52.64
 31
-20.14000000000001
 12
27.50000000125645
 22
22.64
 32
-20.14000000000001
 13
27.5
 23
22.64000000000001
 33
-20.18248950392754
  0
3DFACE
  5
27D
330
1F
100
AcDbEntity
  8
3D
100
AcDbFace
 10
27.5
 20
52.64
 30
-20.14000000048759
 11
27.49999999421855
 21
52.64
 31
-3.540000000000002
 12
27.49999999513972
 22
22.64
 32
-3.540000002373719
 13
27.5
 23
22.64
 33
-20.14000000048759
  0
3DFACE
  5
27E
330
1F
100
AcDbEntity
  8
3D
100
AcDbFace
 10
26.10001995793171
 20
52.64
 30
-20.14528529799747
 11
26.09999998392305
 21
52.64
 31
-3.539996074053512
 12
26.09999998484422
 22
22.64
 32
-3.539996076427229
 13
26.0999999897045
 23
22.64
 33
-20.1399960745411
  0
3DFACE
  5
291
330
1F
100
AcDbEntity
  8
3D
100
AcDbFace
 10
26.09999998392521
 20
52.64
 30
-3.546180363369089
 11
26.12542379901732
 21
52.64
 31
-3.353058973543534
 12
26.12542379901732
 22
22.64
 32
-3.353058973543532
 13
26.09999998484422
 23
22.64
 33
-3.540000121166792
  0
3DFACE
  5
292
330
1F
100
AcDbEntity
  8
3D
100
AcDbFace
 10
26.12542379901732
 20
22.64
 30
-3.353058973543532
 11
26.18773913423283
 21
22.64
 31
-3.200682109650188
 12
26.18773913423281
 22
52.64
 32
-3.200682109650187
 13
26.12542379901731
 23
52.64
 33
-3.353058973543561
  0
3DFACE
  5
293
330
1F
100
AcDbEntity
  8
3D
100
AcDbFace
 10
26.18773913423281
 20
52.64
 30
-3.200682109650187
 11
26.27817662752096
 21
52.64
 31
-3.07341628122781
 12
26.27817662752097
 22
22.64
 32
-3.073416281227807
 13
26.18773913423282
 23
22.64
 33
-3.20068210965018
  0
3DFACE
  5
294
330
1F
100
AcDbEntity
  8
3D
100
AcDbFace
 10
26.27817662752097
 20
22.64
 30
-3.073416281227807
 11
26.38635033742666
 21
22.64
 31
-2.975293035625131
 12
26.38635033742667
 22
52.64
 32
-2.975293035625131
 13
26.27817662752096
 23
52.64
 33
-3.073416281227807
  0
3DFACE
  5
295
330
1F
100
AcDbEntity
  8
3D
100
AcDbFace
 10
26.38635033742668
 20
52.64
 30
-2.975293035625114
 11
26.50912222150059
 21
52.64
 31
-2.903297465652693
 12
26.5091222215006
 22
22.63999999999999
 32
-2.903297465652698
 13
26.38635033742666
 23
22.63999999999999
 33
-2.975293035625128
  0
3DFACE
  5
296
330
1F
100
AcDbEntity
  8
3D
100
AcDbFace
 10
26.50912222150067
 20
22.63999999999999
 30
-2.903297465652658
 11
26.62629596742784
 21
22.64
 31
-2.861894618343384
 12
26.62629596742787
 22
52.64
 32
-2.861894618343381
 13
26.5091222215006
 23
52.63999999999999
 33
-2.903297465652689
  0
3DFACE
  5
297
330
1F
100
AcDbEntity
  8
3D
100
AcDbFace
 10
26.62629596742788
 20
52.63999999999999
 30
-2.861894618343381
 11
26.71758803013422
 21
52.64
 31
-2.84486816572988
 12
26.71758803013425
 22
22.64
 32
-2.844868165729877
 13
26.62629596742786
 23
22.64
 33
-2.861894618343382
  0
3DFACE
  5
298
330
1F
100
AcDbEntity
  8
3D
100
AcDbFace
 10
26.71758803013425
 20
22.64
 30
-2.844868165729876
 11
26.77145145486031
 21
22.64
 31
-2.840582399064288
 12
26.77145145486024
 22
52.64
 32
-2.840582399064294
 13
26.71758803013423
 23
52.64
 33
-2.844868165729878
  0
3DFACE
  5
299
330
1F
100
AcDbEntity
  8
3D
100
AcDbFace
 10
26.77145145486024
 20
52.64
 30
-2.840582399064294
 11
26.84332361691451
 21
52.64
 31
-2.841341954654274
 12
26.84332361691451
 22
22.64
 32
-2.841341954654275
 13
26.77145145486031
 23
22.64
 33
-2.840582399064288
  0
3DFACE
  5
29A
330
1F
100
AcDbEntity
  8
3D
100
AcDbFace
 10
26.84332361691458
 20
22.64
 30
-2.841341954654275
 11
26.90073184783817
 21
22.64
 31
-2.847596580449735
 12
26.90073184783817
 22
52.64
 32
-2.847596580449735
 13
26.84332361691451
 23
52.63999999999999
 33
-2.841341954654275
  0
3DFACE
  5
2A4
330
1F
100
AcDbEntity
  8
3D
100
AcDbFace
 10
26.9007046982039
 20
52.64
 30
-2.847591281848379
 11
26.97276520791891
 21
52.64
 31
-2.861654819898538
 12
26.97276520791885
 22
22.64
 32
-2.861654819898525
 13
26.90073184783817
 23
22.64
 33
-2.847596580449735
  0
3DFACE
  5
2A5
330
1F
100
AcDbEntity
  8
3D
100
AcDbFace
 10
26.97276520791897
 20
22.64
 30
-2.861654819898555
 11
27.08835433307582
 21
22.64
 31
-2.902150660954318
 12
27.08835433307582
 22
52.64
 32
-2.902150660954317
 13
26.97276520791884
 23
52.64
 33
-2.861654819898522
  0
3DFACE
  5
2A6
330
1F
100
AcDbEntity
  8
3D
100
AcDbFace
 10
27.08835433307586
 20
52.64
 30
-2.902150660954336
 11
27.21476317859055
 21
52.64
 31
-2.976110377176755
 12
27.21476317859055
 22
22.64
 32
-2.97611037717676
 13
27.08835433307585
 23
22.64
 33
-2.90215066095433
  0
3DFACE
  5
2A7
330
1F
100
AcDbEntity
  8
3D
100
AcDbFace
 10
27.21476317859055
 20
22.64
 30
-2.97611037717676
 11
27.31610287472465
 21
22.64
 31
-3.067096390373384
 12
27.31610287472467
 22
52.64
 32
-3.067096390373399
 13
27.21476317859055
 23
52.63999999999999
 33
-2.976110377176757
  0
3DFACE
  5
2A8
330
1F
100
AcDbEntity
  8
3D
100
AcDbFace
 10
27.31610287472468
 20
52.64
 30
-3.067096390373413
 11
27.41529257697371
 21
52.64
 31
-3.206211075277728
 12
27.41529257697372
 22
22.64
 32
-3.206211075277761
 13
27.31610287472467
 23
22.64
 33
-3.067096390373407
  0
3DFACE
  5
2A9
330
1F
100
AcDbEntity
  8
3D
100
AcDbFace
 10
27.41529257697373
 20
22.64
 30
-3.206211075277787
 11
27.4790006075041
 21
22.64
 31
-3.3698289780387
 12
27.47900060750409
 22
52.64
 32
-3.36982897803868
 13
27.41529257697372
 23
52.64
 33
-3.206211075277761
  0
3DFACE
  5
2AA
330
1F
100
AcDbEntity
  8
3D
100
AcDbFace
 10
27.47900060750409
 20
52.64
 30
-3.369828978038654
 11
27.49999999421855
 21
52.64
 31
-3.539999942967412
 12
27.49999999421856
 22
22.63999999999999
 32
-3.539999942967412
 13
27.4790006075041
 23
22.64
 33
-3.3698289780387
  0
3DFACE
  5
2B4
330
1F
100
AcDbEntity
  8
3D
100
AcDbFace
 10
26.09995343592645
 20
22.64
 30
-20.14528554913591
 11
26.07009047898519
 21
22.64
 31
-20.2705799901986
 12
26.07009047898519
 22
52.63999999999999
 32
-20.2705799901986
 13
26.09995343592645
 23
52.64
 33
-20.14528554913558
  0
3DFACE
  5
2B5
330
1F
100
AcDbEntity
  8
3D
100
AcDbFace
 10
26.0700904789852
 20
52.63999999999999
 30
-20.27057999019856
 11
26.01213203561241
 21
52.64
 31
-20.35213203435598
 12
26.01213203561242
 22
22.64
 32
-20.35213203435598
 13
26.07009047898517
 23
22.64
 33
-20.27057999019866
  0
3DFACE
  5
2B6
330
1F
100
AcDbEntity
  8
3D
100
AcDbFace
 10
26.01213203561244
 20
22.64
 30
-20.35213203435596
 11
25.91071171372554
 21
22.64000000000001
 31
-20.41882416810989
 12
25.910711713727
 22
52.64000000000001
 32
-20.41882416810892
 13
26.01213203561242
 23
52.64000000000001
 33
-20.35213203435599
  0
3DFACE
  5
2B7
330
1F
100
AcDbEntity
  8
3D
100
AcDbFace
 10
25.910711713727
 20
52.64000000000001
 30
-20.41882416810892
 11
25.8
 21
52.64
 31
-20.44000000048759
 12
25.80000000126942
 22
22.64
 32
-20.44000000048759
 13
25.91071171372554
 23
22.64
 33
-20.41882416810989
  0
3DFACE
  5
2B8
330
1F
100
AcDbEntity
  8
3D
100
AcDbFace
 10
25.8000000038186
 20
22.64
 30
-20.44000000000001
 11
14.51905209077031
 21
22.64
 31
-20.44000052856884
 12
14.51934524905342
 22
52.64
 32
-20.43971892607833
 13
25.79999999999975
 23
52.64
 33
-20.43971891584984
  0
3DFACE
  5
2C2
330
1F
100
AcDbEntity
  8
3D
100
AcDbFace
 10
14.35006301390083
 20
22.64000000000001
 30
-20.49250850231016
 11
14.51905209074935
 21
22.63999785576922
 31
-20.44000052858897
 12
14.5190520907491
 22
52.64
 32
-20.4397189260786
 13
14.35006301390077
 23
52.64000000000001
 33
-20.49250850231018
  0
3DFACE
  5
2C3
330
1F
100
AcDbEntity
  8
3D
100
AcDbFace
 10
14.35006301390081
 20
52.64000000000001
 30
-20.49250850231017
 11
14.27676980678664
 21
52.64
 31
-20.56385774540351
 12
14.27676980678663
 22
22.64
 32
-20.56385774540352
 13
14.35006301389766
 23
22.64000000000001
 33
-20.49250850231115
  0
3DFACE
  5
2C4
330
1F
100
AcDbEntity
  8
3D
100
AcDbFace
 10
14.27676980678663
 20
22.64
 30
-20.56385774540352
 11
14.21441897045167
 21
22.63999999999999
 31
-20.64982017455253
 12
14.21441897045049
 22
52.63999999999999
 32
-20.64982017455416
 13
14.27676980678665
 23
52.64
 33
-20.5638577454035
  0
3DFACE
  5
2C5
330
1F
100
AcDbEntity
  8
3D
100
AcDbFace
 10
14.21441897045049
 20
52.63999999999999
 30
-20.64982017455416
 11
14.09349972734279
 21
52.64
 31
-20.72505754019456
 12
14.09349972734285
 22
22.64000000000001
 32
-20.72505754019457
 13
14.21441897045166
 23
22.63999999999999
 33
-20.64982017455254
  0
3DFACE
  5
2C6
330
1F
100
AcDbEntity
  8
3D
100
AcDbFace
 10
14.09349972734278
 20
22.64000000000001
 30
-20.72505754019461
 11
13.97374338923953
 21
22.64
 31
-20.73884877501069
 12
13.9737433892396
 22
52.64
 32
-20.7388487750107
 13
14.09349972734277
 23
52.64
 33
-20.72505754019457
  0
3DFACE
  5
2C7
330
1F
100
AcDbEntity
  8
3D
100
AcDbFace
 10
13.97374338923962
 20
52.64
 30
-20.7388487750107
 11
13.85108608627211
 21
52.64
 31
-20.70043165307628
 12
13.85108608627216
 22
22.64
 32
-20.70043165307628
 13
13.97374338923953
 23
22.64
 33
-20.7388487750107
  0
3DFACE
  5
2C8
330
1F
100
AcDbEntity
  8
3D
100
AcDbFace
 10
13.85108608627209
 20
22.64
 30
-20.70043165307625
 11
13.75784121470347
 21
22.64
 31
-20.61708507022104
 12
13.75784121470348
 22
52.63999999999999
 32
-20.61708507022104
 13
13.85108608627209
 23
52.64
 33
-20.70043165307625
  0
3DFACE
  5
2C9
330
1F
100
AcDbEntity
  8
3D
100
AcDbFace
 10
13.75784121470347
 20
52.63999999999999
 30
-20.61708507022103
 11
13.69282327508863
 21
52.64
 31
-20.5281748908273
 12
13.69282327508863
 22
22.64
 32
-20.5281748908273
 13
13.75784121470347
 23
22.64
 33
-20.61708507022104
  0
3DFACE
  5
2CA
330
1F
100
AcDbEntity
  8
3D
100
AcDbFace
 10
13.69282327508863
 20
22.64
 30
-20.5281748908273
 11
13.5887823444871
 21
22.64
 31
-20.46026805070302
 12
13.58878234448707
 22
52.64000000000001
 32
-20.46026805070303
 13
13.69282327508862
 23
52.64000000000001
 33
-20.5281748908273
  0
3DFACE
  5
2CB
330
1F
100
AcDbEntity
  8
3D
100
AcDbFace
 10
13.58878234448712
 20
52.64
 30
-20.46026805070303
 11
13.48038475900114
 21
52.64
 31
-20.44000000048759
 12
13.48038475791286
 22
22.64
 32
-20.43999996591497
 13
13.58878234448709
 23
22.64
 33
-20.46026805070302
  0
3DFACE
  5
2CC
330
1F
100
AcDbEntity
  8
3D
100
AcDbFace
 10
13.48038494281387
 20
22.64
 30
-20.44000000048759
 11
13.48038494281387
 21
52.64
 31
-20.44000000048759
 12
1.981204706513896
 22
52.64
 32
-20.40949894021923
 13
1.981204706514315
 23
22.64000000000001
 33
-20.40949894021943
  0
3DFACE
  5
2CE
330
1F
100
AcDbEntity
  8
3D
100
AcDbFace
 10
1.981204706437969
 20
22.64000000000001
 30
-20.40949894021923
 11
1.781918077016161
 21
22.64
 31
-20.32206121765097
 12
1.781918077016165
 22
52.64
 32
-20.32206121765097
 13
1.981204706512555
 23
52.64
 33
-20.40949894021865
  0
3DFACE
  5
2CF
330
1F
100
AcDbEntity
  8
3D
100
AcDbFace
 10
1.781918077016254
 20
52.64
 30
-20.32206121765101
 11
1.599371489121087
 21
52.64
 31
-20.1684367421083
 12
1.599371489121024
 22
22.64
 32
-20.16843674210825
 13
1.781918077016155
 23
22.64
 33
-20.32206121765097
  0
3DFACE
  5
2D0
330
1F
100
AcDbEntity
  8
3D
100
AcDbFace
 10
1.599371489121025
 20
22.64
 30
-20.16843674210825
 11
1.491809796187942
 21
22.64
 31
-20.01211104988299
 12
1.491809796187918
 22
52.64
 32
-20.01211104988296
 13
1.599371489121087
 23
52.64
 33
-20.1684367421083
  0
3DFACE
  5
2D1
330
1F
100
AcDbEntity
  8
3D
100
AcDbFace
 10
1.491809796187943
 20
52.64
 30
-20.01211104988299
 11
1.400000001256473
 21
52.64
 31
-19.63999977294044
 12
1.400000077839484
 22
22.64
 32
-19.63999997027983
 13
1.491809796187942
 23
22.64
 33
-20.01211104988299
  0
3DFACE
  5
2D2
330
1F
100
AcDbEntity
  8
3D
100
AcDbFace
 10
1.400000029150604
 20
22.64
 30
-19.63999977294046
 11
1.404632225253289
 21
22.64
 31
-18.80110505313738
 12
1.399999909565991
 22
52.64
 32
-18.80222430136833
 13
1.400000001256447
 23
52.64
 33
-19.64000008755607
  0
3DFACE
  5
2D3
330
1F
100
AcDbEntity
  8
3D
100
AcDbFace
 10
1.404632225253289
 20
52.64
 30
-18.80110505313738
 11
1.377163762831286
 21
52.64
 31
-18.68741928990356
 12
1.377163762831284
 22
22.64
 32
-18.68741928990356
 13
1.404632225253289
 23
22.64
 33
-18.80110505313738
  0
3DFACE
  5
2D4
330
1F
100
AcDbEntity
  8
3D
100
AcDbFace
 10
1.377163762831282
 20
22.64
 30
-18.68741928990356
 11
1.312131943921954
 21
22.64
 31
-18.59009230092076
 12
1.312131942423542
 22
52.64
 32
-18.59009230241918
 13
1.377163762831286
 23
52.64
 33
-18.68741928990356
  0
3DFACE
  5
2D5
330
1F
100
AcDbEntity
  8
3D
100
AcDbFace
 10
1.312131942423542
 20
52.64
 30
-18.59009230241918
 11
1.179288842432939
 21
52.64
 31
-18.45724920242857
 12
1.179288842432939
 22
22.64
 32
-18.45724920242857
 13
1.312131934637401
 23
22.64
 33
-18.59009229163621
  0
3DFACE
  5
2D6
330
1F
100
AcDbEntity
  8
3D
100
AcDbFace
 10
1.179288845379467
 20
22.64
 30
-18.4572492023782
 11
1.149999523498144
 21
22.64
 31
-18.38653852425956
 12
1.149999523498143
 22
52.64
 32
-18.38653852425956
 13
1.179288840313812
 23
52.64
 33
-18.45724919731254
  0
3DFACE
  5
2D7
330
1F
100
AcDbEntity
  8
3D
100
AcDbFace
 10
1.149999523498143
 20
52.64
 30
-18.38653852425956
 11
1.179288845944761
 21
52.64
 31
-18.31582784557564
 12
1.179288845944761
 22
22.64
 32
-18.31582784614091
 13
1.149999523498143
 23
22.64
 33
-18.38653852425956
  0
3DFACE
  5
2D8
330
1F
100
AcDbEntity
  8
3D
100
AcDbFace
 10
1.179288846344469
 20
22.64
 30
-18.31582784517593
 11
1.31213155878033
 21
22.64
 31
-18.1829851322801
 12
1.312131556138808
 22
52.64
 32
-18.18298513492162
 13
1.179288845944761
 23
52.64000000000249
 33
-18.31582784557564
  0
3DFACE
  5
2D9
330
1F
100
AcDbEntity
  8
3D
100
AcDbFace
 10
1.31213155878033
 20
52.64
 30
-18.1829851322801
 11
1.377163383251523
 21
52.64
 31
-18.08565812901986
 12
1.377163383251523
 22
22.64
 32
-18.08565812901987
 13
1.312131558780328
 23
22.64
 33
-18.18298513228011
  0
3DFACE
  5
2DA
330
1F
100
AcDbEntity
  8
3D
100
AcDbFace
 10
1.377163383251525
 20
22.64
 30
-18.08565812901986
 11
1.399999520871691
 21
22.64
 31
-17.97085311251438
 12
1.399999523498137
 22
52.64
 32
-17.97085309931034
 13
1.377163383251522
 23
52.64
 33
-18.08565812901987
  0
3DFACE
  5
2DB
330
1F
100
AcDbEntity
  8
3D
100
AcDbFace
 10
1.399999520871691
 20
52.64
 30
-17.97085311251438
 11
1.397896636882109
 21
52.63999999999999
 31
-15.76676538412936
 12
1.397896636882109
 22
22.63999999999999
 32
-15.76676538412936
 13
1.39999952087169
 23
22.64000000095514
 33
-17.97085311251438
  0
3DFACE
  5
2DC
330
1F
100
AcDbEntity
  8
3D
100
AcDbFace
 10
1.405744996415449
 20
52.63999999999999
 30
-15.81598174540333
 11
1.378276533993445
 21
52.63999999999999
 31
-15.70229598216952
 12
1.378276533993443
 22
22.63999999999999
 32
-15.70229598216952
 13
1.405744996415449
 23
22.63999999999999
 33
-15.81598174540333
  0
3DFACE
  5
2DD
330
1F
100
AcDbEntity
  8
3D
100
AcDbFace
 10
1.378276533993441
 20
22.63999999999999
 30
-15.70229598216951
 11
1.313244715084114
 21
22.63999999999999
 31
-15.60496899318672
 12
1.313244713585702
 22
52.63999999999999
 32
-15.60496899468513
 13
1.378276533993445
 23
52.63999999999999
 33
-15.70229598216952
  0
3DFACE
  5
2DE
330
1F
100
AcDbEntity
  8
3D
100
AcDbFace
 10
1.313244713585702
 20
52.63999999999999
 30
-15.60496899468513
 11
1.180401613595098
 21
52.63999999999999
 31
-15.47212589469452
 12
1.180401613595098
 22
22.63999999999999
 32
-15.47212589469452
 13
1.313244705799561
 23
22.63999999999999
 33
-15.60496898390216
  0
3DFACE
  5
2DF
330
1F
100
AcDbEntity
  8
3D
100
AcDbFace
 10
1.180401616541627
 20
22.63999999999999
 30
-15.47212589464415
 11
1.151112294660303
 21
22.63999999999999
 31
-15.40141521652551
 12
1.151112294660303
 22
52.63999999999999
 32
-15.40141521652551
 13
1.180401611475971
 23
52.63999999999999
 33
-15.4721258895785
  0
3DFACE
  5
2E0
330
1F
100
AcDbEntity
  8
3D
100
AcDbFace
 10
1.151112294660303
 20
52.63999999999999
 30
-15.40141521652551
 11
1.180401617106921
 21
52.63999999999999
 31
-15.33070453784159
 12
1.180401617106921
 22
22.63999999999999
 32
-15.33070453840686
 13
1.151112294660303
 23
22.63999999999999
 33
-15.40141521652551
  0
3DFACE
  5
2E1
330
1F
100
AcDbEntity
  8
3D
100
AcDbFace
 10
1.180401617506628
 20
22.63999999999999
 30
-15.33070453744188
 11
1.31324432994249
 21
22.63999999999999
 31
-15.19786182454606
 12
1.313244327300968
 22
52.63999999999999
 32
-15.19786182718758
 13
1.18040161710692
 23
52.64000000000248
 33
-15.33070453784159
  0
3DFACE
  5
2E2
330
1F
100
AcDbEntity
  8
3D
100
AcDbFace
 10
1.31324432994249
 20
52.63999999999999
 30
-15.19786182454606
 11
1.378276154413683
 21
52.63999999999999
 31
-15.10053482128582
 12
1.378276154413683
 22
22.63999999999999
 32
-15.10053482128582
 13
1.313244329942488
 23
22.63999999999999
 33
-15.19786182454606
  0
3DFACE
  5
2E3
330
1F
100
AcDbEntity
  8
3D
100
AcDbFace
 10
1.378276154413684
 20
22.63999999999999
 30
-15.10053482128581
 11
1.40111229203385
 21
22.63999999999999
 31
-14.98572980478033
 12
1.401112294660296
 22
52.63999999999999
 32
-14.9857297915763
 13
1.378276154413682
 23
52.63999999999999
 33
-15.10053482128582
  0
3DFACE
  5
2E4
330
1F
100
AcDbEntity
  8
3D
100
AcDbFace
 10
0.0254237990173145
 20
22.64
 30
22.12694102645647
 11
0.0877391342328196
 21
22.64
 31
22.27931789034982
 12
0.0877391342328089
 22
52.64
 32
22.27931789034982
 13
0.0254237990173074
 23
52.64
 33
22.12694102645644
  0
3DFACE
  5
2E5
330
1F
100
AcDbEntity
  8
3D
100
AcDbFace
 10
0.0877391342328053
 20
52.64
 30
22.27931789034982
 11
0.1781766275209549
 21
52.64
 31
22.40658371877219
 12
0.1781766275209584
 22
22.64
 32
22.4065837187722
 13
0.0877391342328125
 23
22.64
 33
22.27931789034983
  0
3DFACE
  5
2E6
330
1F
100
AcDbEntity
  8
3D
100
AcDbFace
 10
0.1781766275209584
 20
22.64
 30
22.4065837187722
 11
0.2863503374266543
 21
22.64
 31
22.50470696437487
 12
0.2863503374266614
 22
52.64
 32
22.50470696437487
 13
0.1781766275209513
 23
52.64
 33
22.4065837187722
  0
3DFACE
  5
2E7
330
1F
100
AcDbEntity
  8
3D
100
AcDbFace
 10
0.2863503374266791
 20
52.64
 30
22.50470696437489
 11
0.4091222215005815
 21
52.64
 31
22.57670253434731
 12
0.4091222215005886
 22
22.63999999999999
 32
22.57670253434731
 13
0.2863503374266543
 23
22.63999999999999
 33
22.50470696437488
  0
3DFACE
  5
2E8
330
1F
100
AcDbEntity
  8
3D
100
AcDbFace
 10
0.4091222215006596
 20
22.63999999999999
 30
22.57670253434735
 11
0.5262959674278385
 21
22.64
 31
22.61810538165662
 12
0.5262959674278705
 22
52.64
 32
22.61810538165662
 13
0.4091222215005921
 23
52.63999999999999
 33
22.57670253434731
  0
3DFACE
  5
2E9
330
1F
100
AcDbEntity
  8
3D
100
AcDbFace
 10
0.526295967427874
 20
52.63999999999999
 30
22.61810538165662
 11
0.6175880301342183
 21
52.64
 31
22.63513183427012
 12
0.6175880301342432
 22
22.64
 32
22.63513183427013
 13
0.5262959674278527
 23
22.64
 33
22.61810538165662
  0
3DFACE
  5
2EA
330
1F
100
AcDbEntity
  8
3D
100
AcDbFace
 10
0.6175880301342432
 20
22.64
 30
22.63513183427013
 11
0.6714514548603106
 21
22.64
 31
22.63941760093572
 12
0.6714514548602395
 22
52.64
 32
22.63941760093571
 13
0.617588030134229
 23
52.64
 33
22.63513183427013
  0
3DFACE
  5
2EB
330
1F
100
AcDbEntity
  8
3D
100
AcDbFace
 10
0.6714514548602395
 20
52.64
 30
22.63941760093571
 11
0.7433236169145055
 21
52.64
 31
22.63865804534573
 12
0.7433236169145055
 22
22.64
 32
22.63865804534573
 13
0.6714514548603106
 23
22.64
 33
22.63941760093572
  0
3DFACE
  5
2EC
330
1F
100
AcDbEntity
  8
3D
100
AcDbFace
 10
0.743323616914573
 20
22.64
 30
22.63865804534573
 11
0.8007318478381613
 21
22.64
 31
22.63240341955027
 12
0.8007318478381613
 22
52.64
 32
22.63240341955027
 13
0.7433236169145055
 23
52.63999999999999
 33
22.63865804534573
  0
3DFACE
  5
2ED
330
1F
100
AcDbEntity
  8
3D
100
AcDbFace
 10
0.8007046982038943
 20
52.64
 30
22.63240871815162
 11
0.8727652079189063
 21
52.64
 31
22.61834518010147
 12
0.8727652079188423
 22
22.64
 32
22.61834518010148
 13
0.8007318478381613
 23
22.64
 33
22.63240341955027
  0
3DFACE
  5
2EE
330
1F
100
AcDbEntity
  8
3D
100
AcDbFace
 10
0.8727652079189596
 20
22.64
 30
22.61834518010145
 11
0.9883543330758151
 21
22.64
 31
22.57784933904568
 12
0.9883543330758115
 22
52.64
 32
22.57784933904568
 13
0.8727652079188317
 23
52.64
 33
22.61834518010148
  0
3DFACE
  5
2EF
330
1F
100
AcDbEntity
  8
3D
100
AcDbFace
 10
0.9883543330758541
 20
52.64
 30
22.57784933904567
 11
1.114763178590539
 21
52.64
 31
22.50388962282325
 12
1.114763178590543
 22
22.64
 32
22.50388962282324
 13
0.988354333075847
 23
22.64
 33
22.57784933904567
  0
3DFACE
  5
2F0
330
1F
100
AcDbEntity
  8
3D
100
AcDbFace
 10
1.114763178590543
 20
22.64
 30
22.50388962282324
 11
1.216102874724647
 21
22.64
 31
22.41290360962662
 12
1.216102874724658
 22
52.64
 32
22.4129036096266
 13
1.114763178590539
 23
52.63999999999999
 33
22.50388962282324
  0
3DFACE
  5
2F1
330
1F
100
AcDbEntity
  8
3D
100
AcDbFace
 10
1.216102874724672
 20
52.64
 30
22.41290360962659
 11
1.3152925769737
 21
52.64
 31
22.27378892472227
 12
1.315292576973714
 22
22.64
 32
22.27378892472224
 13
1.216102874724668
 23
22.64
 33
22.41290360962659
  0
3DFACE
  5
2F2
330
1F
100
AcDbEntity
  8
3D
100
AcDbFace
 10
1.315292576973728
 20
22.64
 30
22.27378892472222
 11
1.379000607504096
 21
22.64
 31
22.1101710219613
 12
1.379000607504085
 22
52.64
 32
22.11017102196132
 13
1.315292576973714
 23
52.64
 33
22.27378892472224
  0
3DFACE
  5
2F3
330
1F
100
AcDbEntity
  8
3D
100
AcDbFace
 10
1.379000607504078
 20
52.64
 30
22.11017102196135
 11
1.399999994218546
 21
52.64
 31
21.94000005703259
 12
1.39999999421855
 22
22.63999999999999
 32
21.94000005703259
 13
1.379000607504096
 23
22.64
 33
22.1101710219613
  0
3DFACE
  5
2FD
330
1F
100
AcDbEntity
  8
3D
100
AcDbFace
 10
1.40111229203385
 20
22.63999999999999
 30
-14.98572980478033
 11
1.399995367290273
 21
22.64
 31
21.93745257985238
 12
1.400309572527566
 22
52.63999999999999
 32
21.93749135331264
 13
1.401112294660296
 23
52.64000000000645
 33
-14.9857297915763
  0
3DFACE
  5
2FE
330
1F
100
AcDbEntity
  8
3D
100
AcDbFace
 10
0.0053249233469213
 20
22.63999999999938
 30
-20.94306061025274
 11
0.0000046378241532
 21
22.64
 31
21.94254742125455
 12
0.0003188430614465
 22
52.63999999999999
 32
21.9425861947148
 13
0.005324923346921
 23
52.64
 33
-20.94306061025275
  0
3DFACE
  5
308
330
1F
100
AcDbEntity
  8
3D
100
AcDbFace
 10
0.909259497956898
 20
52.63999999999999
 30
-21.83587365545884
 11
0.9092490079261978
 21
22.64
 31
-21.83587361507852
 12
46.29999999999999
 22
22.64
 32
-21.84000000048759
 13
46.30000000277727
 23
52.64
 33
-21.84000000048759
  0
3DFACE
  5
309
330
1F
100
AcDbEntity
  8
3D
100
AcDbFace
 10
46.59685204919986
 20
22.64
 30
-22.09665416246249
 11
46.55337546693913
 21
22.64
 31
-21.97937349723632
 12
46.55337546693916
 22
52.64
 32
-21.97937349723617
 13
46.59685204919985
 23
52.64
 33
-22.09665416246251
  0
3DFACE
  5
30A
330
1F
100
AcDbEntity
  8
3D
100
AcDbFace
 10
46.55337546693925
 20
52.64
 30
-21.97937349723645
 11
46.47443591519572
 21
52.64
 31
-21.89592601136505
 12
46.47443591519572
 22
22.64
 32
-21.8959260113652
 13
46.55337546693915
 23
22.64
 33
-21.97937349723634
  0
3DFACE
  5
323
330
1F
100
AcDbEntity
  8
3D
100
AcDbFace
 10
0.0
 20
52.64000000000002
 30
-20.94306061025275
 11
0.052969451825546
 21
52.64
 31
-21.16114348575768
 12
0.052969451825543
 22
22.64000000000001
 32
-21.16114348575866
 13
0.0053249233469211
 23
22.64
 33
-20.94306061025274
  0
3DFACE
  5
324
330
1F
100
AcDbEntity
  8
3D
100
AcDbFace
 10
0.052969451825543
 20
22.64
 30
-21.16114348575866
 11
0.1112441854194428
 21
22.64
 31
-21.29838095490093
 12
0.1112441854194573
 22
52.64
 32
-21.29838095490096
 13
0.0529694518255468
 23
52.63999999999999
 33
-21.16114348575769
  0
3DFACE
  5
325
330
1F
100
AcDbEntity
  8
3D
100
AcDbFace
 10
0.1112441854194428
 20
22.64
 30
-21.29838095490093
 11
0.249115939187855
 21
22.64
 31
-21.50043404313478
 12
0.2491159391878372
 22
52.64
 32
-21.50043404313478
 13
0.111244185419455
 23
52.64
 33
-21.29838095490096
  0
3DFACE
  5
326
330
1F
100
AcDbEntity
  8
3D
100
AcDbFace
 10
0.249115939187855
 20
52.64
 30
-21.50043404313479
 11
0.2491159391878372
 21
22.64
 31
-21.50043404313479
 12
0.4273908215728742
 22
22.64
 32
-21.6598284743421
 13
0.4273908215728591
 23
52.64
 33
-21.65982847434209
  0
3DFACE
  5
327
330
1F
100
AcDbEntity
  8
3D
100
AcDbFace
 10
0.4273908215728742
 20
22.64
 30
-21.6598284743421
 11
0.6269652982848295
 21
22.64
 31
-21.76781739064262
 12
0.6269652982855467
 22
52.64
 32
-21.76781739064279
 13
0.4273908215728591
 23
52.64
 33
-21.65982847434209
  0
3DFACE
  5
328
330
1F
100
AcDbEntity
  8
3D
100
AcDbFace
 10
0.6269652982848295
 20
22.64
 30
-21.76781739064262
 11
0.909272406214557
 21
22.63999999999999
 31
-21.83252033797034
 12
0.9092490079261681
 22
52.64
 32
-21.83587361507853
 13
0.6269652982863965
 23
52.64
 33
-21.76781739064324
  0
ENDSEC
  0
SECTION
  2
OBJECTS
  0
DICTIONARY
  5
C
330
0
100
AcDbDictionary
281
     1
  3
ACAD_BACKGROUND
350
EE
  3
ACAD_CIP_PREVIOUS_PRODUCT_INFO
350
ED
  3
ACAD_COLOR
350
C2
  3
ACAD_DETAILVIEWSTYLE
350
B5
  3
ACAD_GROUP
350
D
  3
ACAD_IMAGE_VARS
350
6A
  3
ACAD_LAYOUT
350
1A
  3
ACAD_MATERIAL
350
72
  3
ACAD_MLEADERSTYLE
350
3F
  3
ACAD_MLINESTYLE
350
17
  3
ACAD_PLOTSETTINGS
350
19
  3
ACAD_PLOTSTYLENAME
350
E
  3
ACAD_SCALELIST
350
40
  3
ACAD_SECTIONVIEWSTYLE
350
B6
  3
ACAD_TABLESTYLE
350
3B
  3
ACAD_VISUALSTYLE
350
2A
  3
ACDB_RECOMPOSE_DATA
350
34A
  3
AcDbVariableDictionary
350
3D
  3
APPDATA
350
71
  0
SUN
  5
80
330
29
100
AcDbSun
 90
        1
290
     0
 63
     7
421
 16777215
 40
1.0
291
     1
 91
  2455826
 92
 54000000
292
     0
 70
     0
 71
   256
280
     1
  0
DICTIONARY
  5
E1
330
2
100
AcDbDictionary
280
     1
281
     1
  3
ACAD_LAYERSTATES
360
E2
  0
DICTIONARY
  5
EE
102
{ACAD_REACTORS
330
C
102
}
330
C
100
AcDbDictionary
281
     1
  0
XRECORD
  5
ED
102
{ACAD_REACTORS
330
C
102
}
330
C
100
AcDbXrecord
280
     1
300
ACD
300
2013
300
ACD_F_S
  0
DICTIONARY
  5
C2
102
{ACAD_REACTORS
330
C
102
}
330
C
100
AcDbDictionary
281
     1
  0
DICTIONARY
  5
B5
102
{ACAD_REACTORS
330
C
102
}
330
C
100
AcDbDictionary
281
     1
  3
Metric50
350
E9
  0
DICTIONARY
  5
D
102
{ACAD_REACTORS
330
C
102
}
330
C
100
AcDbDictionary
281
     1
  0
RASTERVARIABLES
  5
6A
102
{ACAD_REACTORS
330
C
102
}
330
C
100
AcDbRasterVariables
 90
        0
 70
     1
 71
     1
 72
     1
  0
DICTIONARY
  5
1A
102
{ACAD_REACTORS
330
C
102
}
330
C
100
AcDbDictionary
281
     1
  3
Model
350
22
  3
Sheet1
350
1E
  3
Sheet2
350
26
  0
DICTIONARY
  5
72
102
{ACAD_REACTORS
330
C
102
}
330
C
100
AcDbDictionary
281
     1
  3
ByBlock
350
74
  3
ByLayer
350
73
  3
Global
350
75
  0
DICTIONARY
  5
3F
102
{ACAD_REACTORS
330
C
102
}
330
C
100
AcDbDictionary
281
     1
  3
Standard
350
B7
  0
DICTIONARY
  5
17
102
{ACAD_REACTORS
330
C
102
}
330
C
100
AcDbDictionary
281
     1
  3
Standard
350
18
  0
DICTIONARY
  5
19
102
{ACAD_REACTORS
330
C
102
}
330
C
100
AcDbDictionary
281
     1
  0
ACDBDICTIONARYWDFLT
  5
E
102
{ACAD_REACTORS
330
C
102
}
330
C
100
AcDbDictionary
281
     1
  3
Normal
350
F
100
AcDbDictionaryWithDefault
340
F
  0
DICTIONARY
  5
40
102
{ACAD_REACTORS
330
C
102
}
330
C
100
AcDbDictionary
281
     1
  3
A0
350
41
  3
A1
350
42
  3
A2
350
43
  3
A3
350
44
  3
A4
350
45
  3
A5
350
46
  3
A6
350
47
  3
A7
350
48
  3
A8
350
49
  3
A9
350
4A
  3
B0
350
4B
  3
B1
350
4C
  3
B2
350
4D
  3
B3
350
4E
  3
B4
350
4F
  3
B5
350
50
  3
B6
350
51
  3
B7
350
52
  3
B8
350
53
  3
B9
350
54
  3
C0
350
55
  3
C1
350
56
  3
C2
350
57
  3
C3
350
58
  3
C4
350
59
  3
C5
350
5A
  3
C6
350
5B
  3
C7
350
5C
  3
C8
350
5D
  3
C9
350
5E
  3
D0
350
5F
  3
D1
350
60
  3
D2
350
61
  0
DICTIONARY
  5
B6
102
{ACAD_REACTORS
330
C
102
}
330
C
100
AcDbDictionary
281
     1
  3
Metric50
350
E8
  0
DICTIONARY
  5
3B
102
{ACAD_REACTORS
330
C
102
}
330
C
100
AcDbDictionary
281
     1
  3
Standard
350
3C
  0
DICTIONARY
  5
2A
102
{ACAD_REACTORS
330
C
102
}
330
C
100
AcDbDictionary
281
     1
  3
2dWireframe
350
2F
  3
3D Hidden
350
31
  3
3dWireframe
350
30
  3
Basic
350
32
  3
Brighten
350
36
  3
ColorChange
350
3A
  3
Conceptual
350
34
  3
Dim
350
35
  3
EdgeColorOff
350
7A
  3
Facepattern
350
39
  3
Flat
350
2B
  3
FlatWithEdges
350
2C
  3
Gouraud
350
2D
  3
GouraudWithEdges
350
2E
  3
Hidden
350
77
  3
JitterOff
350
78
  3
Linepattern
350
38
  3
OverhangOff
350
79
  3
Realistic
350
33
  3
Shaded
350
7F
  3
Shaded with edges
350
7E
  3
Shades of Gray
350
7B
  3
Sketchy
350
7C
  3
Thicken
350
37
  3
Wireframe
350
76
  3
X-Ray
350
7D
  0
XRECORD
  5
34A
102
{ACAD_REACTORS
330
C
102
}
330
C
100
AcDbXrecord
280
     1
 90
        1
330
3C
  0
DICTIONARY
  5
3D
102
{ACAD_REACTORS
330
C
102
}
330
C
100
AcDbDictionary
281
     1
  3
CANNOSCALE
350
62
  3
CMLEADERSTYLE
350
BB
  3
CTABLESTYLE
350
3E
  3
CVIEWDETAILSTYLE
350
31B
  3
CVIEWSECTIONSTYLE
350
31C
  3
LIGHTSINBLOCKS
350
6F
  3
XCLIPFRAME
350
70
  0
DICTIONARY
  5
71
102
{ACAD_REACTORS
330
C
102
}
330
C
100
AcDbDictionary
281
     1
  0
DICTIONARY
  5
E2
102
{ACAD_REACTORS
330
E1
102
}
330
E1
100
AcDbDictionary
281
     1
  0
ACDBDETAILVIEWSTYLE
  5
E9
102
{ACAD_REACTORS
330
B5
102
}
330
B5
100
AcDbModelDocViewStyle
 70
     0
  3
Metric50
290
     1
100
AcDbDetailViewStyle
 70
     0
 71
     0
 90
        3
 71
     1
340
11
 62
   256
 40
5.0
340
0
 62
   256
 40
5.0
300

 40
0.0
280
     1
 71
     2
340
16
 90
       25
 62
   256
 71
     3
340
11
 62
   256
 40
5.0
 90
        0
 40
15.0
 90
        1
300
%<\AcVar ViewDetailId>% (%<\AcVar ViewScale \f "%sn">%)
 71
     4
340
16
 90
       25
 62
   256
340
16
 90
       25
 62
   256
280
     0
  0
LAYOUT
  5
22
102
{ACAD_REACTORS
330
1A
102
}
330
1A
100
AcDbPlotSettings
  1

  2
none_device
  4
ISO_A3_(420.00_x_297.00_MM)
  6

 40
7.5
 41
20.0
 42
7.5
 43
20.0
 44
420.0
 45
297.0
 46
20.78282828282826
 47
0.0
 48
0.0
 49
0.0
140
0.0
141
0.0
142
1.0
143
1.155642023346303
 70
  1204
 72
     1
 73
     0
 74
     1
  7
monochrome.ctb
 75
     0
147
0.8653198653198654
 76
     0
 77
     2
 78
   300
148
-134.1869158878504
149
0.0
100
AcDbLayout
  1
Model
 70
     1
 71
     0
 10
0.0
 20
0.0
 11
420.0
 21
297.0
 12
0.0
 22
0.0
 32
0.0
 14
0.0
 24
0.0
 34
0.0
 15
47.30000000125648
 25
45.28000000000001
 35
0.0
146
0.0
 13
0.0
 23
0.0
 33
0.0
 16
1.0
 26
0.0
 36
0.0
 17
0.0
 27
1.0
 37
0.0
 76
     0
330
1F
331
29
  0
LAYOUT
  5
1E
102
{ACAD_REACTORS
330
1A
102
}
330
1A
100
AcDbPlotSettings
  1

  2
none_device
  4

  6

 40
0.0
 41
0.0
 42
0.0
 43
0.0
 44
0.0
 45
0.0
 46
0.0
 47
0.0
 48
0.0
 49
0.0
140
0.0
141
0.0
142
1.0
143
1.0
 70
   688
 72
     0
 73
     0
 74
     5
  7

 75
    16
147
1.0
 76
     0
 77
     2
 78
   300
148
0.0
149
0.0
100
AcDbLayout
  1
Sheet1
 70
     1
 71
     1
 10
0.0
 20
0.0
 11
420.0
 21
297.0
 12
0.0
 22
0.0
 32
0.0
 14
1.000000000000000E+20
 24
1.000000000000000E+20
 34
1.000000000000000E+20
 15
-1.000000000000000E+20
 25
-1.000000000000000E+20
 35
-1.000000000000000E+20
146
0.0
 13
0.0
 23
0.0
 33
0.0
 16
1.0
 26
0.0
 36
0.0
 17
0.0
 27
1.0
 37
0.0
 76
     0
330
1B
  0
LAYOUT
  5
26
102
{ACAD_REACTORS
330
1A
102
}
330
1A
100
AcDbPlotSettings
  1

  2
none_device
  4

  6

 40
0.0
 41
0.0
 42
0.0
 43
0.0
 44
0.0
 45
0.0
 46
0.0
 47
0.0
 48
0.0
 49
0.0
140
0.0
141
0.0
142
1.0
143
1.0
 70
   688
 72
     0
 73
     0
 74
     5
  7

 75
    16
147
1.0
 76
     0
 77
     2
 78
   300
148
0.0
149
0.0
100
AcDbLayout
  1
Sheet2
 70
     1
 71
     2
 10
0.0
 20
0.0
 11
0.0
 21
0.0
 12
0.0
 22
0.0
 32
0.0
 14
0.0
 24
0.0
 34
0.0
 15
0.0
 25
0.0
 35
0.0
146
0.0
 13
0.0
 23
0.0
 33
0.0
 16
1.0
 26
0.0
 36
0.0
 17
0.0
 27
1.0
 37
0.0
 76
     0
330
23
  0
MATERIAL
  5
74
102
{ACAD_REACTORS
330
72
102
}
330
72
100
AcDbMaterial
  1
ByBlock
 73
     1
 78
     1
172
     1
176
     1
270
     1
274
     1
  0
MATERIAL
  5
73
102
{ACAD_REACTORS
330
72
102
}
330
72
100
AcDbMaterial
  1
ByLayer
 73
     1
 78
     1
172
     1
176
     1
270
     1
274
     1
  0
MATERIAL
  5
75
102
{ACAD_REACTORS
330
72
102
}
330
72
100
AcDbMaterial
  1
Global
 73
     1
 78
     1
172
     1
176
     1
270
     1
274
     1
  0
MLEADERSTYLE
  5
B7
102
{ACAD_REACTORS
330
3F
102
}
330
3F
100
AcDbMLeaderStyle
179
     2
170
     2
171
     1
172
     0
 90
        2
 40
0.0
 41
0.0
173
     1
 91
-1056964608
340
14
 92
       -2
290
     1
 42
2.0
291
     1
 43
8.0
  3
Standard
 44
4.0
300

342
11
174
     1
178
     6
175
     1
176
     0
 93
-1056964608
 45
4.0
292
     0
297
     0
 46
4.0
 94
-1056964608
 47
1.0
 49
1.0
140
1.0
293
     1
141
0.0
294
     1
177
     0
142
1.0
295
     0
296
     0
143
3.75
271
     0
272
     9
273
     9
298
     0
  0
MLINESTYLE
  5
18
102
{ACAD_REACTORS
330
17
102
}
330
17
100
AcDbMlineStyle
  2
STANDARD
 70
     0
  3

 62
   256
 51
90.0
 52
90.0
 71
     2
 49
0.5
 62
   256
  6
BYLAYER
 49
-0.5
 62
   256
  6
BYLAYER
  0
ACDBPLACEHOLDER
  5
F
102
{ACAD_REACTORS
330
E
102
}
330
E
  0
SCALE
  5
41
102
{ACAD_REACTORS
330
40
102
}
330
40
100
AcDbScale
 70
     0
300
1:1
140
1.0
141
1.0
290
     1
  0
SCALE
  5
42
102
{ACAD_REACTORS
330
40
102
}
330
40
100
AcDbScale
 70
     0
300
1:2
140
1.0
141
2.0
290
     0
  0
SCALE
  5
43
102
{ACAD_REACTORS
330
40
102
}
330
40
100
AcDbScale
 70
     0
300
1:4
140
1.0
141
4.0
290
     0
  0
SCALE
  5
44
102
{ACAD_REACTORS
330
40
102
}
330
40
100
AcDbScale
 70
     0
300
1:5
140
1.0
141
5.0
290
     0
  0
SCALE
  5
45
102
{ACAD_REACTORS
330
40
102
}
330
40
100
AcDbScale
 70
     0
300
1:8
140
1.0
141
8.0
290
     0
  0
SCALE
  5
46
102
{ACAD_REACTORS
330
40
102
}
330
40
100
AcDbScale
 70
     0
300
1:10
140
1.0
141
10.0
290
     0
  0
SCALE
  5
47
102
{ACAD_REACTORS
330
40
102
}
330
40
100
AcDbScale
 70
     0
300
1:16
140
1.0
141
16.0
290
     0
  0
SCALE
  5
48
102
{ACAD_REACTORS
330
40
102
}
330
40
100
AcDbScale
 70
     0
300
1:20
140
1.0
141
20.0
290
     0
  0
SCALE
  5
49
102
{ACAD_REACTORS
330
40
102
}
330
40
100
AcDbScale
 70
     0
300
1:30
140
1.0
141
30.0
290
     0
  0
SCALE
  5
4A
102
{ACAD_REACTORS
330
40
102
}
330
40
100
AcDbScale
 70
     0
300
1:40
140
1.0
141
40.0
290
     0
  0
SCALE
  5
4B
102
{ACAD_REACTORS
330
40
102
}
330
40
100
AcDbScale
 70
     0
300
1:50
140
1.0
141
50.0
290
     0
  0
SCALE
  5
4C
102
{ACAD_REACTORS
330
40
102
}
330
40
100
AcDbScale
 70
     0
300
1:100
140
1.0
141
100.0
290
     0
  0
SCALE
  5
4D
102
{ACAD_REACTORS
330
40
102
}
330
40
100
AcDbScale
 70
     0
300
2:1
140
2.0
141
1.0
290
     0
  0
SCALE
  5
4E
102
{ACAD_REACTORS
330
40
102
}
330
40
100
AcDbScale
 70
     0
300
4:1
140
4.0
141
1.0
290
     0
  0
SCALE
  5
4F
102
{ACAD_REACTORS
330
40
102
}
330
40
100
AcDbScale
 70
     0
300
8:1
140
8.0
141
1.0
290
     0
  0
SCALE
  5
50
102
{ACAD_REACTORS
330
40
102
}
330
40
100
AcDbScale
 70
     0
300
10:1
140
10.0
141
1.0
290
     0
  0
SCALE
  5
51
102
{ACAD_REACTORS
330
40
102
}
330
40
100
AcDbScale
 70
     0
300
100:1
140
100.0
141
1.0
290
     0
  0
SCALE
  5
52
102
{ACAD_REACTORS
330
40
102
}
330
40
100
AcDbScale
 70
     0
300
1/128" = 1'-0"
140
0.0078125
141
12.0
290
     0
  0
SCALE
  5
53
102
{ACAD_REACTORS
330
40
102
}
330
40
100
AcDbScale
 70
     0
300
1/64" = 1'-0"
140
0.015625
141
12.0
290
     0
  0
SCALE
  5
54
102
{ACAD_REACTORS
330
40
102
}
330
40
100
AcDbScale
 70
     0
300
1/32" = 1'-0"
140
0.03125
141
12.0
290
     0
  0
SCALE
  5
55
102
{ACAD_REACTORS
330
40
102
}
330
40
100
AcDbScale
 70
     0
300
1/16" = 1'-0"
140
0.0625
141
12.0
290
     0
  0
SCALE
  5
56
102
{ACAD_REACTORS
330
40
102
}
330
40
100
AcDbScale
 70
     0
300
3/32" = 1'-0"
140
0.09375
141
12.0
290
     0
  0
SCALE
  5
57
102
{ACAD_REACTORS
330
40
102
}
330
40
100
AcDbScale
 70
     0
300
1/8" = 1'-0"
140
0.125
141
12.0
290
     0
  0
SCALE
  5
58
102
{ACAD_REACTORS
330
40
102
}
330
40
100
AcDbScale
 70
     0
300
3/16" = 1'-0"
140
0.1875
141
12.0
290
     0
  0
SCALE
  5
59
102
{ACAD_REACTORS
330
40
102
}
330
40
100
AcDbScale
 70
     0
300
1/4" = 1'-0"
140
0.25
141
12.0
290
     0
  0
SCALE
  5
5A
102
{ACAD_REACTORS
330
40
102
}
330
40
100
AcDbScale
 70
     0
300
3/8" = 1'-0"
140
0.375
141
12.0
290
     0
  0
SCALE
  5
5B
102
{ACAD_REACTORS
330
40
102
}
330
40
100
AcDbScale
 70
     0
300
1/2" = 1'-0"
140
0.5
141
12.0
290
     0
  0
SCALE
  5
5C
102
{ACAD_REACTORS
330
40
102
}
330
40
100
AcDbScale
 70
     0
300
3/4" = 1'-0"
140
0.75
141
12.0
290
     0
  0
SCALE
  5
5D
102
{ACAD_REACTORS
330
40
102
}
330
40
100
AcDbScale
 70
     0
300
1" = 1'-0"
140
1.0
141
12.0
290
     0
  0
SCALE
  5
5E
102
{ACAD_REACTORS
330
40
102
}
330
40
100
AcDbScale
 70
     0
300
1-1/2" = 1'-0"
140
1.5
141
12.0
290
     0
  0
SCALE
  5
5F
102
{ACAD_REACTORS
330
40
102
}
330
40
100
AcDbScale
 70
     0
300
3" = 1'-0"
140
3.0
141
12.0
290
     0
  0
SCALE
  5
60
102
{ACAD_REACTORS
330
40
102
}
330
40
100
AcDbScale
 70
     0
300
6" = 1'-0"
140
6.0
141
12.0
290
     0
  0
SCALE
  5
61
102
{ACAD_REACTORS
330
40
102
}
330
40
100
AcDbScale
 70
     0
300
1'-0" = 1'-0"
140
12.0
141
12.0
290
     0
  0
ACDBSECTIONVIEWSTYLE
  5
E8
102
{ACAD_REACTORS
330
B6
102
}
330
B6
100
AcDbModelDocViewStyle
 70
     0
  3
Metric50
290
     1
100
AcDbSectionViewStyle
 70
     0
 71
     0
 90
      102
 71
     1
340
11
 62
   256
 40
5.0
340
0
340
0
 62
   256
 40
5.0
300
I, O, Q, S, X, Z
 40
10.0
 90
        0
 40
2.5
 90
        0
 71
     2
340
16
 90
       25
 62
   256
340
16
 90
       50
 62
   256
 40
5.0
 40
2.5
 40
5.0
 71
     3
340
11
 62
   256
 40
5.0
 90
        0
 40
15.0
 90
        1
300
%<\AcVar ViewSectionStartId>%-%<\AcVar ViewSectionEndId>% (%<\AcVar ViewScale \f "%sn">%)
 71
     4
 62
   256
 62
   257
300
ANSI31
 40
1.0
 90
        0
290
     0
290
     0
 90
        6
 40
0.0
 40
1.570796326794896
 40
0.2617993877991494
 40
1.308996938995747
 40
-0.2617993877991494
 40
1.832595714594046
  0
TABLESTYLE
  5
3C
102
{ACAD_XDICTIONARY
360
348
102
}
102
{ACAD_REACTORS
330
3B
102
}
330
3B
100
AcDbTableStyle
280
     0
  3
Standard
 70
     0
 71
     0
 40
1.5
 41
1.5
280
     0
281
     0
  7
Standard
140
4.5
170
     2
 62
     0
 63
     7
283
     0
 90
      512
 91
        0
  1

274
    -2
284
     1
 64
     0
275
    -2
285
     1
 65
     0
276
    -2
286
     1
 66
     0
277
    -2
287
     1
 67
     0
278
    -2
288
     1
 68
     0
279
    -2
289
     1
 69
     0
  7
Standard
140
6.0
170
     5
 62
     0
 63
     7
283
     0
 90
      512
 91
        0
  1

274
    -2
284
     1
 64
     0
275
    -2
285
     1
 65
     0
276
    -2
286
     1
 66
     0
277
    -2
287
     1
 67
     0
278
    -2
288
     1
 68
     0
279
    -2
289
     1
 69
     0
  7
Standard
140
4.5
170
     5
 62
     0
 63
     7
283
     0
 90
      512
 91
        0
  1

274
    -2
284
     1
 64
     0
275
    -2
285
     1
 65
     0
276
    -2
286
     1
 66
     0
277
    -2
287
     1
 67
     0
278
    -2
288
     1
 68
     0
279
    -2
289
     1
 69
     0
  0
VISUALSTYLE
  5
2F
102
{ACAD_REACTORS
330
2A
102
}
330
2A
100
AcDbVisualStyle
  2
2dWireframe
 70
     4
177
     3
291
     0
 70
    58
 90
        0
176
     1
 90
        2
176
     1
 90
        0
176
     1
 90
        0
176
     1
 40
0.6
176
     1
 40
30.0
176
     1
 62
     7
420
 16777215
176
     1
 90
        1
176
     1
 90
        4
176
     1
 62
     7
176
     1
 62
   257
176
     1
 90
        1
176
     1
 90
        1
176
     1
 40
1.0
176
     1
 90
        0
176
     1
 62
   257
176
     1
 40
1.0
176
     1
 90
        1
176
     1
 90
        6
176
     1
 90
        2
176
     1
 62
     7
176
     1
 90
        5
176
     1
 90
        0
176
     1
 90
        0
176
     1
290
     0
176
     1
 90
        1
176
     1
 40
0.0
176
     1
 90
        0
176
     1
290
     1
176
     1
290
     1
176
     1
290
     0
176
     1
290
     0
176
     1
290
     0
176
     1
290
     0
176
     1
290
     0
176
     1
290
     0
176
     1
290
     0
176
     1
 90
       50
176
     1
 40
0.0
176
     1
 40
1.0
176
     1
 90
        0
176
     1
 62
    18
420
        0
176
     1
 90
       50
176
     1
 90
        3
176
     1
 62
     5
420
      255
176
     1
290
     0
176
     1
 90
       50
176
     1
 90
       50
176
     1
 90
       50
176
     1
290
     0
176
     1
 90
       50
176
     1
 62
   256
176
     0
 40
1.0
176
     0
 90
        2
176
     1
  1
strokes_ogs.tif
176
     1
290
     0
176
     1
 40
1.0
176
     1
 40
1.0
176
     1
  0
VISUALSTYLE
  5
31
102
{ACAD_REACTORS
330
2A
102
}
330
2A
100
AcDbVisualStyle
  2
3D Hidden
 70
     6
177
     3
291
     0
 70
    58
 90
        1
176
     1
 90
        2
176
     1
 90
        2
176
     1
 90
        0
176
     1
 40
0.6
176
     1
 40
30.0
176
     1
 62
     7
420
 16777215
176
     1
 90
        2
176
     1
 90
        2
176
     1
 62
     7
176
     1
 62
   257
176
     1
 90
        2
176
     1
 90
        1
176
     1
 40
40.0
176
     1
 90
        0
176
     1
 62
   257
176
     1
 40
1.0
176
     1
 90
        1
176
     1
 90
        6
176
     1
 90
        2
176
     1
 62
     7
176
     1
 90
        3
176
     1
 90
        0
176
     1
 90
        0
176
     1
290
     0
176
     1
 90
        1
176
     1
 40
0.0
176
     1
 90
        0
176
     1
290
     0
176
     1
290
     1
176
     1
290
     1
176
     1
290
     0
176
     1
290
     0
176
     1
290
     0
176
     1
290
     0
176
     1
290
     0
176
     1
290
     0
176
     1
 90
       50
176
     1
 40
0.0
176
     1
 40
1.0
176
     1
 90
        0
176
     1
 62
    18
420
        0
176
     1
 90
       50
176
     1
 90
        3
176
     1
 62
     5
420
      255
176
     1
290
     0
176
     1
 90
       50
176
     1
 90
       50
176
     1
 90
       50
176
     1
290
     0
176
     1
 90
       50
176
     1
 62
   256
176
     0
 40
1.0
176
     0
 90
        2
176
     1
  1
strokes_ogs.tif
176
     1
290
     0
176
     1
 40
1.0
176
     1
 40
1.0
176
     1
  0
VISUALSTYLE
  5
30
102
{ACAD_REACTORS
330
2A
102
}
330
2A
100
AcDbVisualStyle
  2
3dWireframe
 70
     5
177
     3
291
     0
 70
    58
 90
        0
176
     1
 90
        2
176
     1
 90
        0
176
     1
 90
        0
176
     1
 40
0.6
176
     1
 40
30.0
176
     1
 62
     7
420
 16777215
176
     1
 90
        1
176
     1
 90
        4
176
     1
 62
     7
176
     1
 62
   257
176
     1
 90
        1
176
     1
 90
        1
176
     1
 40
1.0
176
     1
 90
        0
176
     1
 62
   257
176
     1
 40
1.0
176
     1
 90
        1
176
     1
 90
        6
176
     1
 90
        2
176
     1
 62
     7
176
     1
 90
        5
176
     1
 90
        0
176
     1
 90
        0
176
     1
290
     0
176
     1
 90
        1
176
     1
 40
0.0
176
     1
 90
        0
176
     1
290
     0
176
     1
290
     1
176
     1
290
     1
176
     1
290
     0
176
     1
290
     0
176
     1
290
     0
176
     1
290
     0
176
     1
290
     0
176
     1
290
     0
176
     1
 90
       50
176
     1
 40
0.0
176
     1
 40
1.0
176
     1
 90
        0
176
     1
 62
    18
420
        0
176
     1
 90
       50
176
     1
 90
        3
176
     1
 62
     5
420
      255
176
     1
290
     0
176
     1
 90
       50
176
     1
 90
       50
176
     1
 90
       50
176
     1
290
     0
176
     1
 90
       50
176
     1
 62
   256
176
     0
 40
1.0
176
     0
 90
        2
176
     1
  1
strokes_ogs.tif
176
     1
290
     0
176
     1
 40
1.0
176
     1
 40
1.0
176
     1
  0
VISUALSTYLE
  5
32
102
{ACAD_REACTORS
330
2A
102
}
330
2A
100
AcDbVisualStyle
  2
Basic
 70
     7
177
     3
291
     1
 70
    58
 90
        1
176
     1
 90
        0
176
     1
 90
        1
176
     1
 90
        0
176
     1
 40
0.6
176
     1
 40
30.0
176
     1
 62
     7
420
 16777215
176
     1
 90
        0
176
     1
 90
        4
176
     1
 62
     7
176
     1
 62
   257
176
     1
 90
        1
176
     1
 90
        1
176
     1
 40
1.0
176
     1
 90
        8
176
     1
 62
     7
176
     1
 40
1.0
176
     1
 90
        1
176
     1
 90
        6
176
     1
 90
        2
176
     1
 62
     7
176
     1
 90
        5
176
     1
 90
        0
176
     1
 90
        0
176
     1
290
     0
176
     1
 90
        1
176
     1
 40
0.0
176
     1
 90
        0
176
     1
290
     0
176
     1
290
     1
176
     1
290
     1
176
     1
290
     0
176
     1
290
     0
176
     1
290
     0
176
     1
290
     0
176
     1
290
     0
176
     1
290
     0
176
     1
 90
       50
176
     1
 40
0.0
176
     1
 40
1.0
176
     1
 90
        0
176
     1
 62
    18
420
        0
176
     1
 90
       50
176
     1
 90
        3
176
     1
 62
     5
420
      255
176
     1
290
     0
176
     1
 90
       50
176
     1
 90
       50
176
     1
 90
       50
176
     1
290
     0
176
     1
 90
       50
176
     1
 62
   256
176
     0
 40
1.0
176
     0
 90
        2
176
     1
  1
strokes_ogs.tif
176
     1
290
     0
176
     1
 40
1.0
176
     1
 40
1.0
176
     1
  0
VISUALSTYLE
  5
36
102
{ACAD_REACTORS
330
2A
102
}
330
2A
100
AcDbVisualStyle
  2
Brighten
 70
    12
177
     3
291
     1
 70
    58
 90
        2
176
     1
 90
        2
176
     1
 90
        0
176
     1
 90
        0
176
     1
 40
0.6
176
     1
 40
30.0
176
     1
 62
     7
420
 16777215
176
     1
 90
        1
176
     1
 90
        4
176
     1
 62
     7
176
     1
 62
   257
176
     1
 90
        1
176
     1
 90
        1
176
     1
 40
1.0
176
     1
 90
        8
176
     1
 62
     7
176
     1
 40
1.0
176
     1
 90
        1
176
     1
 90
        6
176
     1
 90
        2
176
     1
 62
     7
176
     1
 90
        5
176
     1
 90
        0
176
     1
 90
        0
176
     1
290
     0
176
     1
 90
        1
176
     1
 40
50.0
176
     1
 90
        0
176
     1
290
     0
176
     1
290
     1
176
     1
290
     1
176
     1
290
     0
176
     1
290
     0
176
     1
290
     0
176
     1
290
     0
176
     1
290
     0
176
     1
290
     0
176
     1
 90
       50
176
     1
 40
0.0
176
     1
 40
1.0
176
     1
 90
        0
176
     1
 62
    18
420
        0
176
     1
 90
       50
176
     1
 90
        3
176
     1
 62
     5
420
      255
176
     1
290
     0
176
     1
 90
       50
176
     1
 90
       50
176
     1
 90
       50
176
     1
290
     0
176
     1
 90
       50
176
     1
 62
   256
176
     0
 40
1.0
176
     0
 90
        2
176
     1
  1
strokes_ogs.tif
176
     1
290
     0
176
     1
 40
1.0
176
     1
 40
1.0
176
     1
  0
VISUALSTYLE
  5
3A
102
{ACAD_REACTORS
330
2A
102
}
330
2A
100
AcDbVisualStyle
  2
ColorChange
 70
    16
177
     3
291
     1
 70
    58
 90
        2
176
     1
 90
        2
176
     1
 90
        3
176
     1
 90
        0
176
     1
 40
0.6
176
     1
 40
30.0
176
     1
 62
     8
420
  8421504
176
     1
 90
        1
176
     1
 90
        4
176
     1
 62
     7
176
     1
 62
   257
176
     1
 90
        1
176
     1
 90
        1
176
     1
 40
1.0
176
     1
 90
        8
176
     1
 62
     8
420
  8421504
176
     1
 40
1.0
176
     1
 90
        1
176
     1
 90
        6
176
     1
 90
        2
176
     1
 62
     7
176
     1
 90
        5
176
     1
 90
        0
176
     1
 90
        0
176
     1
290
     0
176
     1
 90
        1
176
     1
 40
0.0
176
     1
 90
        0
176
     1
290
     0
176
     1
290
     1
176
     1
290
     1
176
     1
290
     0
176
     1
290
     0
176
     1
290
     0
176
     1
290
     0
176
     1
290
     0
176
     1
290
     0
176
     1
 90
       50
176
     1
 40
0.0
176
     1
 40
1.0
176
     1
 90
        0
176
     1
 62
    18
420
        0
176
     1
 90
       50
176
     1
 90
        3
176
     1
 62
     5
420
      255
176
     1
290
     0
176
     1
 90
       50
176
     1
 90
       50
176
     1
 90
       50
176
     1
290
     0
176
     1
 90
       50
176
     1
 62
   256
176
     0
 40
1.0
176
     0
 90
        2
176
     1
  1
strokes_ogs.tif
176
     1
290
     0
176
     1
 40
1.0
176
     1
 40
1.0
176
     1
  0
VISUALSTYLE
  5
34
102
{ACAD_REACTORS
330
2A
102
}
330
2A
100
AcDbVisualStyle
  2
Conceptual
 70
     9
177
     3
291
     0
 70
    58
 90
        3
176
     1
 90
        2
176
     1
 90
        0
176
     1
 90
        0
176
     1
 40
0.6
176
     1
 40
30.0
176
     1
 62
     7
420
 16777215
176
     1
 90
        2
176
     1
 90
        2
176
     1
 62
     7
176
     1
 62
   257
176
     1
 90
        1
176
     1
 90
        1
176
     1
 40
40.0
176
     1
 90
        8
176
     1
 62
     7
176
     1
 40
1.0
176
     1
 90
        1
176
     1
 90
        6
176
     1
 90
        2
176
     1
 62
     7
176
     1
 90
        3
176
     1
 90
        0
176
     1
 90
        0
176
     1
290
     0
176
     1
 90
        1
176
     1
 40
0.0
176
     1
 90
        0
176
     1
290
     0
176
     1
290
     1
176
     1
290
     1
176
     1
290
     0
176
     1
290
     0
176
     1
290
     0
176
     1
290
     0
176
     1
290
     0
176
     1
290
     0
176
     1
 90
       50
176
     1
 40
0.0
176
     1
 40
1.0
176
     1
 90
        0
176
     1
 62
    18
420
        0
176
     1
 90
       50
176
     1
 90
        3
176
     1
 62
     5
420
      255
176
     1
290
     0
176
     1
 90
       50
176
     1
 90
       50
176
     1
 90
       50
176
     1
290
     0
176
     1
 90
       50
176
     1
 62
   256
176
     0
 40
1.0
176
     0
 90
        2
176
     1
  1
strokes_ogs.tif
176
     1
290
     0
176
     1
 40
1.0
176
     1
 40
1.0
176
     1
  0
VISUALSTYLE
  5
35
102
{ACAD_REACTORS
330
2A
102
}
330
2A
100
AcDbVisualStyle
  2
Dim
 70
    11
177
     3
291
     1
 70
    58
 90
        2
176
     1
 90
        2
176
     1
 90
        0
176
     1
 90
        0
176
     1
 40
0.6
176
     1
 40
30.0
176
     1
 62
     7
420
 16777215
176
     1
 90
        1
176
     1
 90
        4
176
     1
 62
     7
176
     1
 62
   257
176
     1
 90
        1
176
     1
 90
        1
176
     1
 40
1.0
176
     1
 90
        8
176
     1
 62
     7
176
     1
 40
1.0
176
     1
 90
        1
176
     1
 90
        6
176
     1
 90
        2
176
     1
 62
     7
176
     1
 90
        5
176
     1
 90
        0
176
     1
 90
        0
176
     1
290
     0
176
     1
 90
        1
176
     1
 40
-50.0
176
     1
 90
        0
176
     1
290
     0
176
     1
290
     1
176
     1
290
     1
176
     1
290
     0
176
     1
290
     0
176
     1
290
     0
176
     1
290
     0
176
     1
290
     0
176
     1
290
     0
176
     1
 90
       50
176
     1
 40
0.0
176
     1
 40
1.0
176
     1
 90
        0
176
     1
 62
    18
420
        0
176
     1
 90
       50
176
     1
 90
        3
176
     1
 62
     5
420
      255
176
     1
290
     0
176
     1
 90
       50
176
     1
 90
       50
176
     1
 90
       50
176
     1
290
     0
176
     1
 90
       50
176
     1
 62
   256
176
     0
 40
1.0
176
     0
 90
        2
176
     1
  1
strokes_ogs.tif
176
     1
290
     0
176
     1
 40
1.0
176
     1
 40
1.0
176
     1
  0
VISUALSTYLE
  5
7A
102
{ACAD_REACTORS
330
2A
102
}
330
2A
100
AcDbVisualStyle
  2
EdgeColorOff
 70
    22
177
     3
291
     1
 70
    58
 90
        2
176
     0
 90
        2
176
     0
 90
        0
176
     0
 90
        0
176
     0
 40
0.6
176
     0
 40
30.0
176
     0
 62
     7
420
 16777215
176
     0
 90
        1
176
     0
 90
        4
176
     0
 62
     7
176
     0
 62
   257
176
     0
 90
        1
176
     0
 90
        1
176
     0
 40
1.0
176
     0
 90
        8
176
     2
 62
     7
176
     0
 40
1.0
176
     0
 90
        1
176
     0
 90
        6
176
     0
 90
        2
176
     0
 62
     7
176
     0
 90
        5
176
     0
 90
        0
176
     0
 90
        0
176
     0
290
     0
176
     0
 90
        1
176
     0
 40
0.0
176
     0
 90
        0
176
     0
290
     0
176
     0
290
     1
176
     0
290
     1
176
     0
290
     0
176
     0
290
     0
176
     0
290
     0
176
     0
290
     0
176
     0
290
     0
176
     0
290
     0
176
     0
 90
       50
176
     0
 40
0.0
176
     0
 40
1.0
176
     0
 90
        0
176
     0
 62
    18
420
        0
176
     0
 90
       50
176
     0
 90
        3
176
     0
 62
     5
420
      255
176
     0
290
     0
176
     0
 90
       50
176
     0
 90
       50
176
     0
 90
       50
176
     0
290
     0
176
     0
 90
       50
176
     0
 62
   256
176
     0
 40
1.0
176
     0
 90
        2
176
     0
  1
strokes_ogs.tif
176
     0
290
     0
176
     0
 40
1.0
176
     0
 40
1.0
176
     0
  0
VISUALSTYLE
  5
39
102
{ACAD_REACTORS
330
2A
102
}
330
2A
100
AcDbVisualStyle
  2
Facepattern
 70
    15
177
     3
291
     1
 70
    58
 90
        2
176
     1
 90
        2
176
     1
 90
        0
176
     1
 90
        0
176
     1
 40
0.6
176
     1
 40
30.0
176
     1
 62
     7
420
 16777215
176
     1
 90
        1
176
     1
 90
        4
176
     1
 62
     7
176
     1
 62
   257
176
     1
 90
        1
176
     1
 90
        1
176
     1
 40
1.0
176
     1
 90
        8
176
     1
 62
     7
176
     1
 40
1.0
176
     1
 90
        1
176
     1
 90
        6
176
     1
 90
        2
176
     1
 62
     7
176
     1
 90
        5
176
     1
 90
        0
176
     1
 90
        0
176
     1
290
     0
176
     1
 90
        1
176
     1
 40
0.0
176
     1
 90
        0
176
     1
290
     0
176
     1
290
     1
176
     1
290
     1
176
     1
290
     0
176
     1
290
     0
176
     1
290
     0
176
     1
290
     0
176
     1
290
     0
176
     1
290
     0
176
     1
 90
       50
176
     1
 40
0.0
176
     1
 40
1.0
176
     1
 90
        0
176
     1
 62
    18
420
        0
176
     1
 90
       50
176
     1
 90
        3
176
     1
 62
     5
420
      255
176
     1
290
     0
176
     1
 90
       50
176
     1
 90
       50
176
     1
 90
       50
176
     1
290
     0
176
     1
 90
       50
176
     1
 62
   256
176
     0
 40
1.0
176
     0
 90
        2
176
     1
  1
strokes_ogs.tif
176
     1
290
     0
176
     1
 40
1.0
176
     1
 40
1.0
176
     1
  0
VISUALSTYLE
  5
2B
102
{ACAD_REACTORS
330
2A
102
}
330
2A
100
AcDbVisualStyle
  2
Flat
 70
     0
177
     3
291
     1
 70
    58
 90
        2
176
     1
 90
        1
176
     1
 90
        1
176
     1
 90
        2
176
     1
 40
0.6
176
     1
 40
30.0
176
     1
 62
     7
420
 16777215
176
     1
 90
        0
176
     1
 90
        4
176
     1
 62
     7
176
     1
 62
   257
176
     1
 90
        1
176
     1
 90
        1
176
     1
 40
1.0
176
     1
 90
        8
176
     1
 62
     7
176
     1
 40
1.0
176
     1
 90
        1
176
     1
 90
        6
176
     1
 90
        2
176
     1
 62
     7
176
     1
 90
        5
176
     1
 90
        0
176
     1
 90
        0
176
     1
290
     0
176
     1
 90
       13
176
     1
 40
0.0
176
     1
 90
        0
176
     1
290
     0
176
     1
290
     1
176
     1
290
     1
176
     1
290
     0
176
     1
290
     0
176
     1
290
     0
176
     1
290
     0
176
     1
290
     0
176
     1
290
     0
176
     1
 90
       50
176
     1
 40
0.0
176
     1
 40
1.0
176
     1
 90
        0
176
     1
 62
    18
420
        0
176
     1
 90
       50
176
     1
 90
        3
176
     1
 62
     5
420
      255
176
     1
290
     0
176
     1
 90
       50
176
     1
 90
       50
176
     1
 90
       50
176
     1
290
     0
176
     1
 90
       50
176
     1
 62
   256
176
     0
 40
1.0
176
     0
 90
        2
176
     1
  1
strokes_ogs.tif
176
     1
290
     0
176
     1
 40
1.0
176
     1
 40
1.0
176
     1
  0
VISUALSTYLE
  5
2C
102
{ACAD_REACTORS
330
2A
102
}
330
2A
100
AcDbVisualStyle
  2
FlatWithEdges
 70
     1
177
     3
291
     1
 70
    58
 90
        2
176
     1
 90
        1
176
     1
 90
        1
176
     1
 90
        2
176
     1
 40
0.6
176
     1
 40
30.0
176
     1
 62
     7
420
 16777215
176
     1
 90
        1
176
     1
 90
        4
176
     1
 62
     7
176
     1
 62
   257
176
     1
 90
        1
176
     1
 90
        1
176
     1
 40
1.0
176
     1
 90
        0
176
     1
 62
   257
176
     1
 40
1.0
176
     1
 90
        1
176
     1
 90
        6
176
     1
 90
        2
176
     1
 62
     7
176
     1
 90
        5
176
     1
 90
        0
176
     1
 90
        0
176
     1
290
     0
176
     1
 90
       13
176
     1
 40
0.0
176
     1
 90
        0
176
     1
290
     0
176
     1
290
     1
176
     1
290
     1
176
     1
290
     0
176
     1
290
     0
176
     1
290
     0
176
     1
290
     0
176
     1
290
     0
176
     1
290
     0
176
     1
 90
       50
176
     1
 40
0.0
176
     1
 40
1.0
176
     1
 90
        0
176
     1
 62
    18
420
        0
176
     1
 90
       50
176
     1
 90
        3
176
     1
 62
     5
420
      255
176
     1
290
     0
176
     1
 90
       50
176
     1
 90
       50
176
     1
 90
       50
176
     1
290
     0
176
     1
 90
       50
176
     1
 62
   256
176
     0
 40
1.0
176
     0
 90
        2
176
     1
  1
strokes_ogs.tif
176
     1
290
     0
176
     1
 40
1.0
176
     1
 40
1.0
176
     1
  0
VISUALSTYLE
  5
2D
102
{ACAD_REACTORS
330
2A
102
}
330
2A
100
AcDbVisualStyle
  2
Gouraud
 70
     2
177
     3
291
     1
 70
    58
 90
        2
176
     1
 90
        2
176
     1
 90
        1
176
     1
 90
        2
176
     1
 40
0.6
176
     1
 40
30.0
176
     1
 62
     7
420
 16777215
176
     1
 90
        0
176
     1
 90
        4
176
     1
 62
     7
176
     1
 62
   257
176
     1
 90
        1
176
     1
 90
        1
176
     1
 40
1.0
176
     1
 90
        0
176
     1
 62
     7
176
     1
 40
1.0
176
     1
 90
        1
176
     1
 90
        6
176
     1
 90
        2
176
     1
 62
     7
176
     1
 90
        5
176
     1
 90
        0
176
     1
 90
        0
176
     1
290
     0
176
     1
 90
       13
176
     1
 40
0.0
176
     1
 90
        0
176
     1
290
     0
176
     1
290
     1
176
     1
290
     1
176
     1
290
     0
176
     1
290
     0
176
     1
290
     0
176
     1
290
     0
176
     1
290
     0
176
     1
290
     0
176
     1
 90
       50
176
     1
 40
0.0
176
     1
 40
1.0
176
     1
 90
        0
176
     1
 62
    18
420
        0
176
     1
 90
       50
176
     1
 90
        3
176
     1
 62
     5
420
      255
176
     1
290
     0
176
     1
 90
       50
176
     1
 90
       50
176
     1
 90
       50
176
     1
290
     0
176
     1
 90
       50
176
     1
 62
   256
176
     0
 40
1.0
176
     0
 90
        2
176
     1
  1
strokes_ogs.tif
176
     1
290
     0
176
     1
 40
1.0
176
     1
 40
1.0
176
     1
  0
VISUALSTYLE
  5
2E
102
{ACAD_REACTORS
330
2A
102
}
330
2A
100
AcDbVisualStyle
  2
GouraudWithEdges
 70
     3
177
     3
291
     1
 70
    58
 90
        2
176
     1
 90
        2
176
     1
 90
        1
176
     1
 90
        2
176
     1
 40
0.6
176
     1
 40
30.0
176
     1
 62
     7
420
 16777215
176
     1
 90
        1
176
     1
 90
        4
176
     1
 62
     7
176
     1
 62
   257
176
     1
 90
        1
176
     1
 90
        1
176
     1
 40
1.0
176
     1
 90
        0
176
     1
 62
   257
176
     1
 40
1.0
176
     1
 90
        1
176
     1
 90
        6
176
     1
 90
        2
176
     1
 62
     7
176
     1
 90
        5
176
     1
 90
        0
176
     1
 90
        0
176
     1
290
     0
176
     1
 90
       13
176
     1
 40
0.0
176
     1
 90
        0
176
     1
290
     0
176
     1
290
     1
176
     1
290
     1
176
     1
290
     0
176
     1
290
     0
176
     1
290
     0
176
     1
290
     0
176
     1
290
     0
176
     1
290
     0
176
     1
 90
       50
176
     1
 40
0.0
176
     1
 40
1.0
176
     1
 90
        0
176
     1
 62
    18
420
        0
176
     1
 90
       50
176
     1
 90
        3
176
     1
 62
     5
420
      255
176
     1
290
     0
176
     1
 90
       50
176
     1
 90
       50
176
     1
 90
       50
176
     1
290
     0
176
     1
 90
       50
176
     1
 62
   256
176
     0
 40
1.0
176
     0
 90
        2
176
     1
  1
strokes_ogs.tif
176
     1
290
     0
176
     1
 40
1.0
176
     1
 40
1.0
176
     1
  0
VISUALSTYLE
  5
77
102
{ACAD_REACTORS
330
2A
102
}
330
2A
100
AcDbVisualStyle
  2
Hidden
 70
     6
177
     3
291
     0
 70
    58
 90
        1
176
     1
 90
        2
176
     1
 90
        2
176
     1
 90
        0
176
     1
 40
0.6
176
     1
 40
30.0
176
     1
 62
     7
420
 16777215
176
     1
 90
        2
176
     1
 90
        2
176
     1
 62
     7
176
     1
 62
   257
176
     1
 90
        2
176
     1
 90
        1
176
     1
 40
40.0
176
     1
 90
        0
176
     1
 62
   257
176
     1
 40
1.0
176
     1
 90
        1
176
     1
 90
        6
176
     1
 90
        2
176
     1
 62
     7
176
     1
 90
        3
176
     1
 90
        0
176
     1
 90
        0
176
     1
290
     0
176
     1
 90
        1
176
     1
 40
0.0
176
     1
 90
        0
176
     1
290
     0
176
     1
290
     1
176
     1
290
     1
176
     1
290
     0
176
     1
290
     0
176
     1
290
     0
176
     1
290
     0
176
     1
290
     0
176
     1
290
     0
176
     1
 90
       50
176
     1
 40
0.0
176
     1
 40
1.0
176
     1
 90
        0
176
     1
 62
    18
420
        0
176
     1
 90
       50
176
     1
 90
        3
176
     1
 62
     5
420
      255
176
     1
290
     0
176
     1
 90
       50
176
     1
 90
       50
176
     1
 90
       50
176
     1
290
     0
176
     1
 90
       50
176
     1
 62
   256
176
     0
 40
1.0
176
     0
 90
        2
176
     1
  1
strokes_ogs.tif
176
     1
290
     0
176
     1
 40
1.0
176
     1
 40
1.0
176
     1
  0
VISUALSTYLE
  5
78
102
{ACAD_REACTORS
330
2A
102
}
330
2A
100
AcDbVisualStyle
  2
JitterOff
 70
    20
177
     3
291
     1
 70
    58
 90
        2
176
     0
 90
        2
176
     0
 90
        0
176
     0
 90
        0
176
     0
 40
0.6
176
     0
 40
30.0
176
     0
 62
     7
420
 16777215
176
     0
 90
        1
176
     0
 90
        4
176
     0
 62
     7
176
     0
 62
   257
176
     0
 90
        1
176
     0
 90
        1
176
     0
 40
1.0
176
     0
 90
       10
176
     2
 62
     7
176
     0
 40
1.0
176
     0
 90
        1
176
     0
 90
        6
176
     0
 90
        2
176
     0
 62
     7
176
     0
 90
        5
176
     0
 90
        0
176
     0
 90
        0
176
     0
290
     0
176
     0
 90
        1
176
     0
 40
0.0
176
     0
 90
        0
176
     0
290
     0
176
     0
290
     1
176
     0
290
     1
176
     0
290
     0
176
     0
290
     0
176
     0
290
     0
176
     0
290
     0
176
     0
290
     0
176
     0
290
     0
176
     0
 90
       50
176
     0
 40
0.0
176
     0
 40
1.0
176
     0
 90
        0
176
     0
 62
    18
420
        0
176
     0
 90
       50
176
     0
 90
        3
176
     0
 62
     5
420
      255
176
     0
290
     0
176
     0
 90
       50
176
     0
 90
       50
176
     0
 90
       50
176
     0
290
     0
176
     0
 90
       50
176
     0
 62
   256
176
     0
 40
1.0
176
     0
 90
        2
176
     0
  1
strokes_ogs.tif
176
     0
290
     0
176
     0
 40
1.0
176
     0
 40
1.0
176
     0
  0
VISUALSTYLE
  5
38
102
{ACAD_REACTORS
330
2A
102
}
330
2A
100
AcDbVisualStyle
  2
Linepattern
 70
    14
177
     3
291
     1
 70
    58
 90
        2
176
     1
 90
        2
176
     1
 90
        0
176
     1
 90
        0
176
     1
 40
0.6
176
     1
 40
30.0
176
     1
 62
     7
420
 16777215
176
     1
 90
        1
176
     1
 90
        4
176
     1
 62
     7
176
     1
 62
   257
176
     1
 90
        7
176
     1
 90
        7
176
     1
 40
1.0
176
     1
 90
        8
176
     1
 62
     7
176
     1
 40
1.0
176
     1
 90
        1
176
     1
 90
        6
176
     1
 90
        2
176
     1
 62
     7
176
     1
 90
        5
176
     1
 90
        0
176
     1
 90
        0
176
     1
290
     0
176
     1
 90
        1
176
     1
 40
0.0
176
     1
 90
        0
176
     1
290
     0
176
     1
290
     1
176
     1
290
     1
176
     1
290
     0
176
     1
290
     0
176
     1
290
     0
176
     1
290
     0
176
     1
290
     0
176
     1
290
     0
176
     1
 90
       50
176
     1
 40
0.0
176
     1
 40
1.0
176
     1
 90
        0
176
     1
 62
    18
420
        0
176
     1
 90
       50
176
     1
 90
        3
176
     1
 62
     5
420
      255
176
     1
290
     0
176
     1
 90
       50
176
     1
 90
       50
176
     1
 90
       50
176
     1
290
     0
176
     1
 90
       50
176
     1
 62
   256
176
     0
 40
1.0
176
     0
 90
        2
176
     1
  1
strokes_ogs.tif
176
     1
290
     0
176
     1
 40
1.0
176
     1
 40
1.0
176
     1
  0
VISUALSTYLE
  5
79
102
{ACAD_REACTORS
330
2A
102
}
330
2A
100
AcDbVisualStyle
  2
OverhangOff
 70
    21
177
     3
291
     1
 70
    58
 90
        2
176
     0
 90
        2
176
     0
 90
        0
176
     0
 90
        0
176
     0
 40
0.6
176
     0
 40
30.0
176
     0
 62
     7
420
 16777215
176
     0
 90
        1
176
     0
 90
        4
176
     0
 62
     7
176
     0
 62
   257
176
     0
 90
        1
176
     0
 90
        1
176
     0
 40
1.0
176
     0
 90
        9
176
     2
 62
     7
176
     0
 40
1.0
176
     0
 90
        1
176
     0
 90
        6
176
     0
 90
        2
176
     0
 62
     7
176
     0
 90
        5
176
     0
 90
        0
176
     0
 90
        0
176
     0
290
     0
176
     0
 90
        1
176
     0
 40
0.0
176
     0
 90
        0
176
     0
290
     0
176
     0
290
     1
176
     0
290
     1
176
     0
290
     0
176
     0
290
     0
176
     0
290
     0
176
     0
290
     0
176
     0
290
     0
176
     0
290
     0
176
     0
 90
       50
176
     0
 40
0.0
176
     0
 40
1.0
176
     0
 90
        0
176
     0
 62
    18
420
        0
176
     0
 90
       50
176
     0
 90
        3
176
     0
 62
     5
420
      255
176
     0
290
     0
176
     0
 90
       50
176
     0
 90
       50
176
     0
 90
       50
176
     0
290
     0
176
     0
 90
       50
176
     0
 62
   256
176
     0
 40
1.0
176
     0
 90
        2
176
     0
  1
strokes_ogs.tif
176
     0
290
     0
176
     0
 40
1.0
176
     0
 40
1.0
176
     0
  0
VISUALSTYLE
  5
33
102
{ACAD_REACTORS
330
2A
102
}
330
2A
100
AcDbVisualStyle
  2
Realistic
 70
     8
177
     3
291
     0
 70
    58
 90
        2
176
     1
 90
        2
176
     1
 90
        0
176
     1
 90
        0
176
     1
 40
0.6
176
     1
 40
30.0
176
     1
 62
     7
420
 16777215
176
     1
 90
        1
176
     1
 90
        0
176
     1
 62
     7
176
     1
 62
   257
176
     1
 90
        1
176
     1
 90
        1
176
     1
 40
1.0
176
     1
 90
        8
176
     1
 62
     8
420
  7895160
176
     1
 40
1.0
176
     1
 90
        1
176
     1
 90
        6
176
     1
 90
        2
176
     1
 62
     7
176
     1
 90
        5
176
     1
 90
        0
176
     1
 90
        0
176
     1
290
     0
176
     1
 90
       13
176
     1
 40
0.0
176
     1
 90
        0
176
     1
290
     0
176
     1
290
     1
176
     1
290
     1
176
     1
290
     0
176
     1
290
     0
176
     1
290
     0
176
     1
290
     0
176
     1
290
     0
176
     1
290
     0
176
     1
 90
       50
176
     1
 40
0.0
176
     1
 40
1.0
176
     1
 90
        0
176
     1
 62
    18
420
        0
176
     1
 90
       50
176
     1
 90
        3
176
     1
 62
     5
420
      255
176
     1
290
     0
176
     1
 90
       50
176
     1
 90
       50
176
     1
 90
       50
176
     1
290
     0
176
     1
 90
       50
176
     1
 62
   256
176
     0
 40
1.0
176
     0
 90
        2
176
     1
  1
strokes_ogs.tif
176
     1
290
     0
176
     1
 40
1.0
176
     1
 40
1.0
176
     1
  0
VISUALSTYLE
  5
7F
102
{ACAD_REACTORS
330
2A
102
}
330
2A
100
AcDbVisualStyle
  2
Shaded
 70
    27
177
     3
291
     0
 70
    58
 90
        2
176
     1
 90
        2
176
     1
 90
        1
176
     1
 90
        2
176
     1
 40
0.6
176
     1
 40
30.0
176
     1
 62
     7
420
 16777215
176
     1
 90
        0
176
     1
 90
        4
176
     1
 62
     7
176
     1
 62
   257
176
     1
 90
        1
176
     1
 90
        1
176
     1
 40
1.0
176
     1
 90
        8
176
     1
 62
   257
176
     1
 40
1.0
176
     1
 90
        1
176
     1
 90
        6
176
     1
 90
        2
176
     1
 62
     8
420
  7895160
176
     1
 90
        3
176
     1
 90
        0
176
     1
 90
        0
176
     1
290
     0
176
     1
 90
        5
176
     1
 40
0.0
176
     1
 90
        0
176
     1
290
     0
176
     1
290
     1
176
     1
290
     1
176
     1
290
     0
176
     1
290
     0
176
     1
290
     0
176
     1
290
     0
176
     1
290
     0
176
     1
290
     0
176
     1
 90
       50
176
     1
 40
0.0
176
     1
 40
1.0
176
     1
 90
        0
176
     1
 62
    18
420
        0
176
     1
 90
       50
176
     1
 90
        3
176
     1
 62
     5
420
      255
176
     1
290
     0
176
     1
 90
       50
176
     1
 90
       50
176
     1
 90
       50
176
     1
290
     0
176
     1
 90
       50
176
     1
 62
   256
176
     0
 40
1.0
176
     0
 90
        2
176
     1
  1
strokes_ogs.tif
176
     1
290
     0
176
     1
 40
1.0
176
     1
 40
1.0
176
     1
  0
VISUALSTYLE
  5
7E
102
{ACAD_REACTORS
330
2A
102
}
330
2A
100
AcDbVisualStyle
  2
Shaded with edges
 70
    26
177
     3
291
     0
 70
    58
 90
        2
176
     1
 90
        2
176
     1
 90
        1
176
     1
 90
        2
176
     1
 40
0.6
176
     1
 40
30.0
176
     1
 62
     7
420
 16777215
176
     1
 90
        1
176
     1
 90
       10
176
     1
 62
     7
176
     1
 62
   257
176
     1
 90
        2
176
     1
 90
        1
176
     1
 40
1.0
176
     1
 90
        8
176
     1
 62
   257
176
     1
 40
1.0
176
     1
 90
        1
176
     1
 90
        6
176
     1
 90
        2
176
     1
 62
     7
176
     1
 90
        3
176
     1
 90
        0
176
     1
 90
        0
176
     1
290
     0
176
     1
 90
        5
176
     1
 40
0.0
176
     1
 90
        0
176
     1
290
     0
176
     1
290
     1
176
     1
290
     1
176
     1
290
     0
176
     1
290
     0
176
     1
290
     0
176
     1
290
     0
176
     1
290
     0
176
     1
290
     0
176
     1
 90
       50
176
     1
 40
0.0
176
     1
 40
1.0
176
     1
 90
        0
176
     1
 62
    18
420
        0
176
     1
 90
       50
176
     1
 90
        3
176
     1
 62
     5
420
      255
176
     1
290
     0
176
     1
 90
       50
176
     1
 90
       50
176
     1
 90
       50
176
     1
290
     0
176
     1
 90
       50
176
     1
 62
   256
176
     0
 40
1.0
176
     0
 90
        2
176
     1
  1
strokes_ogs.tif
176
     1
290
     0
176
     1
 40
1.0
176
     1
 40
1.0
176
     1
  0
VISUALSTYLE
  5
7B
102
{ACAD_REACTORS
330
2A
102
}
330
2A
100
AcDbVisualStyle
  2
Shades of Gray
 70
    23
177
     3
291
     0
 70
    58
 90
        2
176
     1
 90
        2
176
     1
 90
        3
176
     1
 90
        0
176
     1
 40
0.6
176
     1
 40
30.0
176
     1
 62
     7
420
 16777215
176
     1
 90
        2
176
     1
 90
        2
176
     1
 62
     7
176
     1
 62
     7
176
     1
 90
        1
176
     1
 90
        1
176
     1
 40
40.0
176
     1
 90
        8
176
     1
 62
     7
176
     1
 40
1.0
176
     1
 90
        1
176
     1
 90
        6
176
     1
 90
        2
176
     1
 62
     7
176
     1
 90
        3
176
     1
 90
        0
176
     1
 90
        0
176
     1
290
     0
176
     1
 90
        1
176
     1
 40
0.0
176
     1
 90
        0
176
     1
290
     0
176
     1
290
     1
176
     1
290
     1
176
     1
290
     0
176
     1
290
     0
176
     1
290
     0
176
     1
290
     0
176
     1
290
     0
176
     1
290
     0
176
     1
 90
       50
176
     1
 40
0.0
176
     1
 40
1.0
176
     1
 90
        0
176
     1
 62
    18
420
        0
176
     1
 90
       50
176
     1
 90
        3
176
     1
 62
     5
420
      255
176
     1
290
     0
176
     1
 90
       50
176
     1
 90
       50
176
     1
 90
       50
176
     1
290
     0
176
     1
 90
       50
176
     1
 62
   256
176
     0
 40
1.0
176
     0
 90
        2
176
     1
  1
strokes_ogs.tif
176
     1
290
     0
176
     1
 40
1.0
176
     1
 40
1.0
176
     1
  0
VISUALSTYLE
  5
7C
102
{ACAD_REACTORS
330
2A
102
}
330
2A
100
AcDbVisualStyle
  2
Sketchy
 70
    24
177
     3
291
     0
 70
    58
 90
        1
176
     1
 90
        2
176
     1
 90
        2
176
     1
 90
        0
176
     1
 40
0.6
176
     1
 40
30.0
176
     1
 62
     7
420
 16777215
176
     1
 90
        2
176
     1
 90
        2
176
     1
 62
     7
176
     1
 62
     7
176
     1
 90
        1
176
     1
 90
        1
176
     1
 40
40.0
176
     1
 90
       11
176
     1
 62
     7
176
     1
 40
1.0
176
     1
 90
        1
176
     1
 90
        6
176
     1
 90
        2
176
     1
 62
     7
176
     1
 90
        6
176
     1
 90
        0
176
     1
 90
        0
176
     1
290
     0
176
     1
 90
        1
176
     1
 40
0.0
176
     1
 90
        0
176
     1
290
     0
176
     1
290
     1
176
     1
290
     1
176
     1
290
     0
176
     1
290
     0
176
     1
290
     0
176
     1
290
     0
176
     1
290
     0
176
     1
290
     0
176
     1
 90
       50
176
     1
 40
0.0
176
     1
 40
1.0
176
     1
 90
        0
176
     1
 62
    18
420
        0
176
     1
 90
       50
176
     1
 90
        3
176
     1
 62
     5
420
      255
176
     1
290
     0
176
     1
 90
       50
176
     1
 90
       50
176
     1
 90
       50
176
     1
290
     0
176
     1
 90
       50
176
     1
 62
   256
176
     0
 40
1.0
176
     0
 90
        2
176
     1
  1
strokes_ogs.tif
176
     1
290
     0
176
     1
 40
1.0
176
     1
 40
1.0
176
     1
  0
VISUALSTYLE
  5
37
102
{ACAD_REACTORS
330
2A
102
}
330
2A
100
AcDbVisualStyle
  2
Thicken
 70
    13
177
     3
291
     1
 70
    58
 90
        2
176
     1
 90
        2
176
     1
 90
        0
176
     1
 90
        0
176
     1
 40
0.6
176
     1
 40
30.0
176
     1
 62
     7
420
 16777215
176
     1
 90
        1
176
     1
 90
        4
176
     1
 62
     7
176
     1
 62
   257
176
     1
 90
        1
176
     1
 90
        1
176
     1
 40
1.0
176
     1
 90
       12
176
     1
 62
     7
176
     1
 40
1.0
176
     1
 90
        1
176
     1
 90
        6
176
     1
 90
        2
176
     1
 62
     7
176
     1
 90
        5
176
     1
 90
        0
176
     1
 90
        0
176
     1
290
     0
176
     1
 90
        1
176
     1
 40
0.0
176
     1
 90
        0
176
     1
290
     0
176
     1
290
     1
176
     1
290
     1
176
     1
290
     0
176
     1
290
     0
176
     1
290
     0
176
     1
290
     0
176
     1
290
     0
176
     1
290
     0
176
     1
 90
       50
176
     1
 40
0.0
176
     1
 40
1.0
176
     1
 90
        0
176
     1
 62
    18
420
        0
176
     1
 90
       50
176
     1
 90
        3
176
     1
 62
     5
420
      255
176
     1
290
     0
176
     1
 90
       50
176
     1
 90
       50
176
     1
 90
       50
176
     1
290
     0
176
     1
 90
       50
176
     1
 62
   256
176
     0
 40
1.0
176
     0
 90
        2
176
     1
  1
strokes_ogs.tif
176
     1
290
     0
176
     1
 40
1.0
176
     1
 40
1.0
176
     1
  0
VISUALSTYLE
  5
76
102
{ACAD_REACTORS
330
2A
102
}
330
2A
100
AcDbVisualStyle
  2
Wireframe
 70
     5
177
     3
291
     0
 70
    58
 90
        0
176
     1
 90
        2
176
     1
 90
        0
176
     1
 90
        0
176
     1
 40
0.6
176
     1
 40
30.0
176
     1
 62
     7
420
 16777215
176
     1
 90
        1
176
     1
 90
        4
176
     1
 62
     7
176
     1
 62
   257
176
     1
 90
        1
176
     1
 90
        1
176
     1
 40
1.0
176
     1
 90
        0
176
     1
 62
   257
176
     1
 40
1.0
176
     1
 90
        1
176
     1
 90
        6
176
     1
 90
        2
176
     1
 62
     7
176
     1
 90
        3
176
     1
 90
        0
176
     1
 90
        0
176
     1
290
     0
176
     1
 90
        1
176
     1
 40
0.0
176
     1
 90
        0
176
     1
290
     0
176
     1
290
     1
176
     1
290
     1
176
     1
290
     0
176
     1
290
     0
176
     1
290
     0
176
     1
290
     0
176
     1
290
     0
176
     1
290
     0
176
     1
 90
       50
176
     1
 40
0.0
176
     1
 40
1.0
176
     1
 90
        0
176
     1
 62
    18
420
        0
176
     1
 90
       50
176
     1
 90
        3
176
     1
 62
     5
420
      255
176
     1
290
     0
176
     1
 90
       50
176
     1
 90
       50
176
     1
 90
       50
176
     1
290
     0
176
     1
 90
       50
176
     1
 62
   256
176
     0
 40
1.0
176
     0
 90
        2
176
     1
  1
strokes_ogs.tif
176
     1
290
     0
176
     1
 40
1.0
176
     1
 40
1.0
176
     1
  0
VISUALSTYLE
  5
7D
102
{ACAD_REACTORS
330
2A
102
}
330
2A
100
AcDbVisualStyle
  2
X-Ray
 70
    25
177
     3
291
     0
 70
    58
 90
        2
176
     1
 90
        2
176
     1
 90
        1
176
     1
 90
        1
176
     1
 40
0.5
176
     1
 40
30.0
176
     1
 62
     7
420
 16777215
176
     1
 90
        1
176
     1
 90
        0
176
     1
 62
     7
176
     1
 62
   257
176
     1
 90
        1
176
     1
 90
        1
176
     1
 40
1.0
176
     1
 90
        8
176
     1
 62
     7
176
     1
 40
1.0
176
     1
 90
        1
176
     1
 90
        6
176
     1
 90
        2
176
     1
 62
     7
176
     1
 90
        3
176
     1
 90
        0
176
     1
 90
        0
176
     1
290
     0
176
     1
 90
       13
176
     1
 40
0.0
176
     1
 90
        0
176
     1
290
     0
176
     1
290
     1
176
     1
290
     1
176
     1
290
     0
176
     1
290
     0
176
     1
290
     0
176
     1
290
     0
176
     1
290
     0
176
     1
290
     0
176
     1
 90
       50
176
     1
 40
0.0
176
     1
 40
1.0
176
     1
 90
        0
176
     1
 62
    18
420
        0
176
     1
 90
       50
176
     1
 90
        3
176
     1
 62
     5
420
      255
176
     1
290
     0
176
     1
 90
       50
176
     1
 90
       50
176
     1
 90
       50
176
     1
290
     0
176
     1
 90
       50
176
     1
 62
   256
176
     0
 40
1.0
176
     0
 90
        2
176
     1
  1
strokes_ogs.tif
176
     1
290
     0
176
     1
 40
1.0
176
     1
 40
1.0
176
     1
  0
DICTIONARYVAR
  5
62
102
{ACAD_REACTORS
330
3D
102
}
330
3D
100
DictionaryVariables
280
     0
  1
1:1
  0
DICTIONARYVAR
  5
BB
102
{ACAD_REACTORS
330
3D
102
}
330
3D
100
DictionaryVariables
280
     0
  1
STANDARD
  0
DICTIONARYVAR
  5
3E
102
{ACAD_REACTORS
330
3D
102
}
330
3D
100
DictionaryVariables
280
     0
  1
STANDARD
  0
DICTIONARYVAR
  5
31B
102
{ACAD_REACTORS
330
3D
102
}
330
3D
100
DictionaryVariables
280
     0
  1
Metric50
  0
DICTIONARYVAR
  5
31C
102
{ACAD_REACTORS
330
3D
102
}
330
3D
100
DictionaryVariables
280
     0
  1
Metric50
  0
DICTIONARYVAR
  5
6F
102
{ACAD_REACTORS
330
3D
102
}
330
3D
100
DictionaryVariables
280
     0
  1
0
  0
DICTIONARYVAR
  5
70
102
{ACAD_REACTORS
330
3D
102
}
330
3D
100
DictionaryVariables
280
     0
  1
0
  0
DICTIONARY
  5
348
330
3C
100
AcDbDictionary
280
     1
281
     1
  3
ACAD_ROUNDTRIP_2008_TABLESTYLE_CELLSTYLEMAP
360
349
  0
CELLSTYLEMAP
  5
349
102
{ACAD_REACTORS
330
348
102
}
330
348
100
AcDbCellStyleMap
 90
        3
300
CELLSTYLE
  1
TABLEFORMAT_BEGIN
 90
        5
170
     1
 91
        0
 92
    32768
 62
   257
 93
        1
300
CONTENTFORMAT
  1
CONTENTFORMAT_BEGIN
 90
        0
 91
        0
 92
      512
 93
        0
300

 40
0.0
140
1.0
 94
        5
 62
     0
340
11
144
6.0
309
CONTENTFORMAT_END
171
     1
301
MARGIN
  1
CELLMARGIN_BEGIN
 40
1.5
 40
1.5
 40
1.5
 40
1.5
 40
0.18
 40
0.18
309
CELLMARGIN_END
 94
        6
 95
        1
302
GRIDFORMAT
  1
GRIDFORMAT_BEGIN
 90
        0
 91
        1
 62
     0
 92
       -2
340
0
 93
        0
 40
0.045
309
GRIDFORMAT_END
 95
        2
302
GRIDFORMAT
  1
GRIDFORMAT_BEGIN
 90
        0
 91
        1
 62
     0
 92
       -2
340
0
 93
        0
 40
0.045
309
GRIDFORMAT_END
 95
        4
302
GRIDFORMAT
  1
GRIDFORMAT_BEGIN
 90
        0
 91
        1
 62
     0
 92
       -2
340
0
 93
        0
 40
0.045
309
GRIDFORMAT_END
 95
        8
302
GRIDFORMAT
  1
GRIDFORMAT_BEGIN
 90
        0
 91
        1
 62
     0
 92
       -2
340
0
 93
        0
 40
0.045
309
GRIDFORMAT_END
 95
       16
302
GRIDFORMAT
  1
GRIDFORMAT_BEGIN
 90
        0
 91
        1
 62
     0
 92
       -2
340
0
 93
        0
 40
0.045
309
GRIDFORMAT_END
 95
       32
302
GRIDFORMAT
  1
GRIDFORMAT_BEGIN
 90
        0
 91
        1
 62
     0
 92
       -2
340
0
 93
        0
 40
0.045
309
GRIDFORMAT_END
309
TABLEFORMAT_END
  1
CELLSTYLE_BEGIN
 90
        1
 91
        1
300
_TITLE
309
CELLSTYLE_END
300
CELLSTYLE
  1
TABLEFORMAT_BEGIN
 90
        5
170
     1
 91
        0
 92
        0
 62
   257
 93
        1
300
CONTENTFORMAT
  1
CONTENTFORMAT_BEGIN
 90
        0
 91
        0
 92
      512
 93
        0
300

 40
0.0
140
1.0
 94
        5
 62
     0
340
11
144
4.5
309
CONTENTFORMAT_END
171
     1
301
MARGIN
  1
CELLMARGIN_BEGIN
 40
1.5
 40
1.5
 40
1.5
 40
1.5
 40
0.18
 40
0.18
309
CELLMARGIN_END
 94
        6
 95
        1
302
GRIDFORMAT
  1
GRIDFORMAT_BEGIN
 90
        0
 91
        1
 62
     0
 92
       -2
340
0
 93
        0
 40
0.045
309
GRIDFORMAT_END
 95
        2
302
GRIDFORMAT
  1
GRIDFORMAT_BEGIN
 90
        0
 91
        1
 62
     0
 92
       -2
340
0
 93
        0
 40
0.045
309
GRIDFORMAT_END
 95
        4
302
GRIDFORMAT
  1
GRIDFORMAT_BEGIN
 90
        0
 91
        1
 62
     0
 92
       -2
340
0
 93
        0
 40
0.045
309
GRIDFORMAT_END
 95
        8
302
GRIDFORMAT
  1
GRIDFORMAT_BEGIN
 90
        0
 91
        1
 62
     0
 92
       -2
340
0
 93
        0
 40
0.045
309
GRIDFORMAT_END
 95
       16
302
GRIDFORMAT
  1
GRIDFORMAT_BEGIN
 90
        0
 91
        1
 62
     0
 92
       -2
340
0
 93
        0
 40
0.045
309
GRIDFORMAT_END
 95
       32
302
GRIDFORMAT
  1
GRIDFORMAT_BEGIN
 90
        0
 91
        1
 62
     0
 92
       -2
340
0
 93
        0
 40
0.045
309
GRIDFORMAT_END
309
TABLEFORMAT_END
  1
CELLSTYLE_BEGIN
 90
        2
 91
        1
300
_HEADER
309
CELLSTYLE_END
300
CELLSTYLE
  1
TABLEFORMAT_BEGIN
 90
        5
170
     1
 91
        0
 92
        0
 62
   257
 93
        1
300
CONTENTFORMAT
  1
CONTENTFORMAT_BEGIN
 90
        0
 91
        0
 92
      512
 93
        0
300

 40
0.0
140
1.0
 94
        2
 62
     0
340
11
144
4.5
309
CONTENTFORMAT_END
171
     1
301
MARGIN
  1
CELLMARGIN_BEGIN
 40
1.5
 40
1.5
 40
1.5
 40
1.5
 40
0.18
 40
0.18
309
CELLMARGIN_END
 94
        6
 95
        1
302
GRIDFORMAT
  1
GRIDFORMAT_BEGIN
 90
        0
 91
        1
 62
     0
 92
       -2
340
0
 93
        0
 40
0.045
309
GRIDFORMAT_END
 95
        2
302
GRIDFORMAT
  1
GRIDFORMAT_BEGIN
 90
        0
 91
        1
 62
     0
 92
       -2
340
0
 93
        0
 40
0.045
309
GRIDFORMAT_END
 95
        4
302
GRIDFORMAT
  1
GRIDFORMAT_BEGIN
 90
        0
 91
        1
 62
     0
 92
       -2
340
0
 93
        0
 40
0.045
309
GRIDFORMAT_END
 95
        8
302
GRIDFORMAT
  1
GRIDFORMAT_BEGIN
 90
        0
 91
        1
 62
     0
 92
       -2
340
0
 93
        0
 40
0.045
309
GRIDFORMAT_END
 95
       16
302
GRIDFORMAT
  1
GRIDFORMAT_BEGIN
 90
        0
 91
        1
 62
     0
 92
       -2
340
0
 93
        0
 40
0.045
309
GRIDFORMAT_END
 95
       32
302
GRIDFORMAT
  1
GRIDFORMAT_BEGIN
 90
        0
 91
        1
 62
     0
 92
       -2
340
0
 93
        0
 40
0.045
309
GRIDFORMAT_END
309
TABLEFORMAT_END
  1
CELLSTYLE_BEGIN
 90
        3
 91
        2
300
_DATA
309
CELLSTYLE_END
  0
ENDSEC
  0
SECTION
  2
ACDSDATA
 70
     2
 71
     2
  0
ACDSSCHEMA
 90
        0
  1
AcDb_Thumbnail_Schema
  2
AcDbDs::ID
280
    10
 91
        8
  2
Thumbnail_Data
280
    15
 91
        0
101
ACDSRECORD
 95
        0
 90
        1
  2
AcDbDs::TreatedAsObjectData
280
     1
291
     1
101
ACDSRECORD
 95
        0
 90
        2
  2
AcDbDs::Legacy
280
     1
291
     1
101
ACDSRECORD
  1
AcDbDs::ID
 90
        3
  2
AcDs:Indexable
280
     1
291
     1
101
ACDSRECORD
  1
AcDbDs::ID
 90
        4
  2
AcDbDs::HandleAttribute
280
     7
282
     1
  0
ACDSSCHEMA
 90
        1
  1
AcDbDs::TreatedAsObjectDataSchema
  2
AcDbDs::TreatedAsObjectData
280
     1
 91
        0
  0
ACDSSCHEMA
 90
        2
  1
AcDbDs::LegacySchema
  2
AcDbDs::Legacy
280
     1
 91
        0
  0
ACDSSCHEMA
 90
        3
  1
AcDbDs::IndexedPropertySchema
  2
AcDs:Indexable
280
     1
 91
        0
  0
ACDSSCHEMA
 90
        4
  1
AcDbDs::HandleAttributeSchema
  2
AcDbDs::HandleAttribute
280
     7
 91
        1
284
     1
  0
ACDSRECORD
 90
        0
  2
AcDbDs::ID
280
    10
320
22
  2
Thumbnail_Data
280
    15
 94
     1747
310
89504E470D0A1A0A0000000D494844520000010000000065080300000095E2CD0900000300504C5445212830000000C8C8C80000000000000000000000000000000000000000000000000000330000660000990000CC0000FF0033000033330033660033990033CC0033FF0066000066330066660066990066CC0066FF0099
310
000099330099660099990099CC0099FF00CC0000CC3300CC6600CC9900CCCC00CCFF00FF0000FF3300FF6600FF9900FFCC00FFFF3300003300333300663300993300CC3300FF3333003333333333663333993333CC3333FF3366003366333366663366993366CC3366FF3399003399333399663399993399CC3399FF33CC00
310
33CC3333CC6633CC9933CCCC33CCFF33FF0033FF3333FF6633FF9933FFCC33FFFF6600006600336600666600996600CC6600FF6633006633336633666633996633CC6633FF6666006666336666666666996666CC6666FF6699006699336699666699996699CC6699FF66CC0066CC3366CC6666CC9966CCCC66CCFF66FF0066
310
FF3366FF6666FF9966FFCC66FFFF9900009900339900669900999900CC9900FF9933009933339933669933999933CC9933FF9966009966339966669966999966CC9966FF9999009999339999669999999999CC9999FF99CC0099CC3399CC6699CC9999CCCC99CCFF99FF0099FF3399FF6699FF9999FFCC99FFFFCC0000CC00
310
33CC0066CC0099CC00CCCC00FFCC3300CC3333CC3366CC3399CC33CCCC33FFCC6600CC6633CC6666CC6699CC66CCCC66FFCC9900CC9933CC9966CC9999CC99CCCC99FFCCCC00CCCC33CCCC66CCCC99CCCCCCCCCCFFCCFF00CCFF33CCFF66CCFF99CCFFCCCCFFFFFF0000FF0033FF0066FF0099FF00CCFF00FFFF3300FF3333
310
FF3366FF3399FF33CCFF33FFFF6600FF6633FF6666FF6699FF66CCFF66FFFF9900FF9933FF9966FF9999FF99CCFF99FFFFCC00FFCC33FFCC66FFCC99FFCCCCFFCCFFFFFF00FFFF33FFFF66FFFF99FFFFCCFFFFFF0000000D0D0D1A1A1A2828283535354343435050505D5D5D6B6B6B787878868686939393A1A1A1AEAEAEBB
310
BBBBC9C9C9D6D6D6E4E4E4F1F1F1FFFFFF000000000000000000000000000000000000000000000000000000000000B21171F6000000D84944415478DAEDD6410A84300C40D11C67EE7F809CCDD90C08569CA22E9ABCBF942AF4D114236E94DFA273D95D0000800C0000000000000000000000000000000000000000000000
310
0000000000000000000000000000000000000000C06FFDA73B400200D01C200174060800000000000000000000000000000000000000CB032400000000000000E095F56B00CCF4E71BEB9F80B3A7C7F5830FD400C85BA7A5EC080CB678DCEE6A0031350371BDDD2C3A0367EB47D742E119888297C0D40988AC3603FBA1CEC7
310
AAF82F34C7DABBF6009224499224BDDB06331EB283A36192C10000000049454E44AE426082117509DA53A0B82D18394D344F04EAAA5FFD2D2A6153F0D7F9A0AA6137FCF3962872D1D43923DC65FFBC1EE6ED92D0D38A7B30B762F28FE713CB766997393F2B609CF9467E37B20CFFD240E8B40229A2BE3CD62BA3642D4C0760
310
2FC26F9A4BE2742010A7D9AFD9196E3A63E9EC3FEF0DABEC6FDAC47C38E016FE760F14868FABD773A2E687F05EF0ED93236BCCC307000000000000F832FE001E5849DD271818B60000000049454E44AE426082FFDA090EDF82CC7A4BD46C06B83B2B125F13C6C927DF7EBF68A09B00087D5935CA0AA9EFCAAE575F8CB7A18B
310
85E0489FB3DCFFC7512BE1965EF2130A08A76FBA1DE56F29E53F2937C618638C31C618638C31C61863FE237FF9997967ED8F89AA0000000049454E44AE426082FE7B000BA4FF0E00ABC69F493F46F98B00FAD38F51FE0200CD7F7926E56710F995012C22BF228055E4570010955F9F7E28F991B8F833C3CBC8EF22BC3071B3
310
A61F507E32D1C7A8B4ADFF2C3F60FA0500A3FB1939FD3100EA911FC3965F26A02BFD98E5A7E87B5AEAE183CB8F92EE577BAE432EFDC0F2CB4D005769FD8A25B17AEBC72E7F0300B7F26B03506AFD0EE4D702E0467E2ED25F03E03EFDF7002AADDF47F949B5282AD2EFA3FC545D14CDC88F7CC8EF0EC012F22B03E035E45704
310
B08AFC0A00D6919FAC2E951745BDCA4FFA9E4A8BA27EE5775D11CAAF8BF84EBF00C095F4FB2CFF150095D3EFB3FC74B3281ABAC27BF2E3C1006693DFB86F8F8B7B6016F90D7E90D275F86FCB8F5F7894D64CF21BFA44BDF4B3C07E0DAFC96F3FFE009523CDAE55964AEA0000000049454E44AE426082B3832449FA4BDD6630
310
BEE77F350085014F367BB48CE0170EE3B6E5F982F61DF899F2A77BC0B44BF7B166F35BE00BCC3E35691633E51F4FE00BCD4E49494949494949494949494949494949494949494949F938F9033A63743B5EE69ADE0000000049454E44AE426082
  0
ENDSEC
  0
EOF
