  0
SECTION
  2
HEADER
  9
$ACADVER
  1
AC1009
  9
$INSBASE
 10
0.0
 20
0.0
 30
0.0
  9
$EXTMIN
 10
2800.505614688575
 20
-1124.010099354861
 30
-0.0000165503170184
  9
$EXTMAX
 10
2843.206064202268
 20
4876.0287936883597
 30
37.999983449861148
  9
$LIMMIN
 10
0.0
 20
0.0
  9
$LIMMAX
 10
420.0
 20
297.0
  9
$ORTHOMODE
 70
     1
  9
$REGENMODE
 70
     1
  9
$FILLMODE
 70
     1
  9
$QTEXTMODE
 70
     0
  9
$MIRRTEXT
 70
     0
  9
$DRAGMODE
 70
     2
  9
$LTSCALE
 40
1.0
  9
$OSMODE
 70
   231
  9
$ATTMODE
 70
     1
  9
$TEXTSIZE
 40
2.5
  9
$TRACEWID
 40
1.0
  9
$TEXTSTYLE
  7
STANDARD
  9
$CLAYER
  8
0
  9
$CELTYPE
  6
BYLAYER
  9
$CECOLOR
 62
   256
  9
$DIMSCALE
 40
1.0
  9
$DIMASZ
 40
2.5
  9
$DIMEXO
 40
0.625
  9
$DIMDLI
 40
3.75
  9
$DIMRND
 40
0.0
  9
$DIMDLE
 40
0.0
  9
$DIMEXE
 40
1.25
  9
$DIMTP
 40
0.0
  9
$DIMTM
 40
0.0
  9
$DIMTXT
 40
2.5
  9
$DIMCEN
 40
2.5
  9
$DIMTSZ
 40
0.0
  9
$DIMTOL
 70
     0
  9
$DIMLIM
 70
     0
  9
$DIMTIH
 70
     0
  9
$DIMTOH
 70
     0
  9
$DIMSE1
 70
     0
  9
$DIMSE2
 70
     0
  9
$DIMTAD
 70
     1
  9
$DIMZIN
 70
     8
  9
$DIMBLK
  1

  9
$DIMASO
 70
     1
  9
$DIMSHO
 70
     1
  9
$DIMPOST
  1

  9
$DIMAPOST
  1

  9
$DIMALT
 70
     0
  9
$DIMALTD
 70
     3
  9
$DIMALTF
 40
0.03937007874016
  9
$DIMLFAC
 40
1.0
  9
$DIMTOFL
 70
     1
  9
$DIMTVP
 40
0.0
  9
$DIMTIX
 70
     0
  9
$DIMSOXD
 70
     0
  9
$DIMSAH
 70
     0
  9
$DIMBLK1
  1

  9
$DIMBLK2
  1

  9
$DIMSTYLE
  2
ISO-25
  9
$DIMCLRD
 70
     0
  9
$DIMCLRE
 70
     0
  9
$DIMCLRT
 70
     0
  9
$DIMTFAC
 40
1.0
  9
$DIMGAP
 40
0.625
  9
$LUNITS
 70
     2
  9
$LUPREC
 70
     4
  9
$SKETCHINC
 40
1.0
  9
$FILLETRAD
 40
0.0
  9
$AUNITS
 70
     0
  9
$AUPREC
 70
     0
  9
$MENU
  1
.
  9
$ELEVATION
 40
0.0
  9
$PELEVATION
 40
0.0
  9
$THICKNESS
 40
0.0
  9
$LIMCHECK
 70
     0
  9
$BLIPMODE
 70
     0
  9
$CHAMFERA
 40
0.0
  9
$CHAMFERB
 40
0.0
  9
$SKPOLY
 70
     0
  9
$TDCREATE
 40
2458305.7068261229
  9
$TDUPDATE
 40
2458305.7112736809
  9
$TDINDWG
 40
0.0044484028
  9
$TDUSRTIMER
 40
0.0044483796
  9
$USRTIMER
 70
     1
  9
$ANGBASE
 50
0.0
  9
$ANGDIR
 70
     0
  9
$PDMODE
 70
     0
  9
$PDSIZE
 40
0.0
  9
$PLINEWID
 40
0.0
  9
$COORDS
 70
     1
  9
$SPLFRAME
 70
     0
  9
$SPLINETYPE
 70
     6
  9
$SPLINESEGS
 70
     8
  9
$ATTDIA
 70
     0
  9
$ATTREQ
 70
     1
  9
$HANDLING
 70
     1
  9
$HANDSEED
  5
676
  9
$SURFTAB1
 70
     6
  9
$SURFTAB2
 70
     6
  9
$SURFTYPE
 70
     6
  9
$SURFU
 70
     6
  9
$SURFV
 70
     6
  9
$UCSNAME
  2

  9
$UCSORG
 10
2801.7056146885739
 20
-1123.9973112717439
 30
19.724983449645809
  9
$UCSXDIR
 10
1.0
 20
0.0
 30
0.0
  9
$UCSYDIR
 10
0.0
 20
1.0
 30
0.0
  9
$PUCSNAME
  2

  9
$PUCSORG
 10
0.0
 20
0.0
 30
0.0
  9
$PUCSXDIR
 10
1.0
 20
0.0
 30
0.0
  9
$PUCSYDIR
 10
0.0
 20
1.0
 30
0.0
  9
$USERI1
 70
     0
  9
$USERI2
 70
     0
  9
$USERI3
 70
     0
  9
$USERI4
 70
     0
  9
$USERI5
 70
     0
  9
$USERR1
 40
0.0
  9
$USERR2
 40
0.0
  9
$USERR3
 40
0.0
  9
$USERR4
 40
0.0
  9
$USERR5
 40
0.0
  9
$WORLDVIEW
 70
     1
  9
$SHADEDGE
 70
     3
  9
$SHADEDIF
 70
    70
  9
$TILEMODE
 70
     1
  9
$MAXACTVP
 70
    64
  9
$PLIMCHECK
 70
     0
  9
$PEXTMIN
 10
0.0
 20
0.0
 30
0.0
  9
$PEXTMAX
 10
0.0
 20
0.0
 30
0.0
  9
$PLIMMIN
 10
0.0
 20
0.0
  9
$PLIMMAX
 10
12.0
 20
9.0
  9
$UNITMODE
 70
     0
  9
$VISRETAIN
 70
     1
  9
$PLINEGEN
 70
     0
  9
$PSLTSCALE
 70
     1
  0
ENDSEC
  0
SECTION
  2
TABLES
  0
TABLE
  2
VPORT
 70
     1
  0
VPORT
  2
*ACTIVE
 70
     0
 10
0.0
 20
0.0
 11
1.0
 21
1.0
 12
-1452.4884675317651
 22
933.62555902488248
 13
0.0
 23
0.0
 14
10.0
 24
10.0
 15
10.0
 25
10.0
 16
31.588269562089408
 26
31.04726863772521
 36
26.487354120312379
 17
6407.012251737362
 27
8389.8419748913566
 37
3024.6926328124928
 40
4475.6524003561608
 41
2.5344506517690868
 42
50.0
 43
0.0
 44
0.0
 50
0.0
 51
0.0
 71
     0
 72
  1000
 73
     1
 74
     3
 75
     0
 76
     1
 77
     0
 78
     0
  0
ENDTAB
  0
TABLE
  2
LTYPE
 70
     2
  0
LTYPE
  2
CONTINUOUS
 70
     0
  3
Solid line
 72
    65
 73
     0
 40
0.0
  0
LTYPE
  2
CONTINUA
 70
     0
  3
Linea continua
 72
    65
 73
     0
 40
0.0
  0
ENDTAB
  0
TABLE
  2
LAYER
 70
     3
  0
LAYER
  2
0
 70
     0
 62
     7
  6
CONTINUOUS
  0
LAYER
  2
QUOTE
 70
     0
 62
    -3
  6
CONTINUA
  0
LAYER
  2
LAYER1
 70
     0
 62
     1
  6
CONTINUOUS
  0
ENDTAB
  0
TABLE
  2
STYLE
 70
     3
  0
STYLE
  2
STANDARD
 70
     0
 40
0.0
 41
1.0
 50
0.0
 71
     0
 42
2.5
  3
txt
  4

  0
STYLE
  2
ANNOTATIVE
 70
     0
 40
0.0
 41
1.0
 50
0.0
 71
     0
 42
2.5
  3
txt
  4

  0
STYLE
  2
ACBSIGDT
 70
     0
 40
0.0
 41
1.0
 50
0.0
 71
     0
 42
3.5
  3
amgdt.shx
  4

  0
ENDTAB
  0
TABLE
  2
VIEW
 70
     0
  0
ENDTAB
  0
TABLE
  2
UCS
 70
     0
  0
ENDTAB
  0
TABLE
  2
APPID
 70
    10
  0
APPID
  2
ACAD
 70
     0
  0
APPID
  2
ACAD_PSEXT
 70
     0
  0
APPID
  2
ACADANNOPO
 70
     0
  0
APPID
  2
ACADANNOTATIVE
 70
     0
  0
APPID
  2
ACAD_DSTYLE_DIMJAG
 70
     0
  0
APPID
  2
ACAD_DSTYLE_DIMTALN
 70
     0
  0
APPID
  2
ACAD_MLEADERVER
 70
     0
  0
APPID
  2
ACAD_NAV_VCDISPLAY
 70
     0
  0
APPID
  2
ACAECLAYERSTANDARD
 70
     0
  0
APPID
  2
ACCMTRANSPARENCY
 70
     0
  0
ENDTAB
  0
TABLE
  2
DIMSTYLE
 70
     8
  0
DIMSTYLE
  2
STANDARD
 70
     0
  3

  4

  5

  6

  7

 40
1.0
 41
0.18
 42
0.0625
 43
0.38
 44
0.18
 45
0.0
 46
0.0
 47
0.0
 48
0.0
140
0.18
141
0.09
142
0.0
143
25.399999999999999
144
1.0
145
0.0
146
1.0
147
0.09
 71
     0
 72
     0
 73
     1
 74
     1
 75
     0
 76
     0
 77
     0
 78
     0
170
     0
171
     2
172
     0
173
     0
174
     0
175
     0
176
     0
177
     0
178
     0
  0
DIMSTYLE
  2
ANNOTATIVE
 70
     0
  3

  4

  5

  6

  7

 40
0.0
 41
2.5
 42
0.625
 43
3.75
 44
1.25
 45
0.0
 46
0.0
 47
0.0
 48
0.0
140
2.5
141
2.5
142
0.0
143
0.03937007874016
144
1.0
145
0.0
146
1.0
147
0.625
 71
     0
 72
     0
 73
     0
 74
     0
 75
     0
 76
     0
 77
     1
 78
     8
170
     0
171
     3
172
     1
173
     0
174
     0
175
     0
176
     0
177
     0
178
     0
  0
DIMSTYLE
  2
ISO-25
 70
     0
  3

  4

  5

  6

  7

 40
1.0
 41
2.5
 42
0.625
 43
3.75
 44
1.25
 45
0.0
 46
0.0
 47
0.0
 48
0.0
140
2.5
141
2.5
142
0.0
143
0.03937007874016
144
1.0
145
0.0
146
1.0
147
0.625
 71
     0
 72
     0
 73
     0
 74
     0
 75
     0
 76
     0
 77
     1
 78
     8
170
     0
171
     3
172
     1
173
     0
174
     0
175
     0
176
     0
177
     0
178
     0
  0
DIMSTYLE
  2
AM_ANSI
 70
     0
  3

  4
"
  5

  6

  7

 40
1.0
 41
2.5
 42
1.0
 43
10.0
 44
1.0
 45
0.0
 46
0.0
 47
0.1
 48
0.1
140
3.5
141
0.0
142
0.0
143
0.0393701
144
1.0
145
0.0
146
0.71
147
1.5
 71
     0
 72
     0
 73
     1
 74
     1
 75
     0
 76
     0
 77
     0
 78
     8
170
     0
171
     2
172
     0
173
     0
174
     0
175
     0
176
   256
177
   256
178
     2
  0
DIMSTYLE
  2
AM_DIN$SH
 70
     0
  3

  4
"
  5

  6
GENAXEH
  7

 40
1.0
 41
2.5
 42
1.0
 43
10.0
 44
1.0
 45
0.0
 46
0.0
 47
0.1
 48
0.1
140
3.5
141
0.0
142
0.0
143
0.0393701
144
2.0
145
0.0
146
0.71
147
1.5
 71
     0
 72
     0
 73
     0
 74
     0
 75
     1
 76
     1
 77
     1
 78
     8
170
     0
171
     2
172
     1
173
     1
174
     0
175
     0
176
   256
177
   256
178
     2
  0
DIMSTYLE
  2
AM_ISO
 70
     0
  3

  4
"
  5

  6

  7

 40
1.0
 41
2.5
 42
1.0
 43
10.0
 44
1.0
 45
0.0
 46
0.0
 47
0.1
 48
0.1
140
3.5
141
0.0
142
0.0
143
0.0393701
144
1.0
145
0.0
146
0.71
147
1.5
 71
     0
 72
     0
 73
     0
 74
     0
 75
     0
 76
     0
 77
     1
 78
     8
170
     0
171
     2
172
     1
173
     0
174
     0
175
     0
176
   256
177
   256
178
     2
  0
DIMSTYLE
  2
ALEX
 70
     0
  3

  4
"
  5

  6

  7

 40
1.0
 41
2.0
 42
0.0
 43
10.0
 44
0.5
 45
0.0
 46
0.0
 47
0.1
 48
0.1
140
1.5
141
0.1
142
0.0
143
0.0393701
144
1.0
145
0.0
146
0.71
147
0.5
 71
     0
 72
     0
 73
     0
 74
     0
 75
     0
 76
     0
 77
     1
 78
     8
170
     0
171
     2
172
     1
173
     0
174
     0
175
     0
176
   151
177
   151
178
     1
  0
DIMSTYLE
  2
ALEX2
 70
     0
  3

  4
"
  5

  6

  7

 40
1.0
 41
2.0
 42
0.0
 43
10.0
 44
0.5
 45
0.0
 46
0.0
 47
0.1
 48
0.1
140
2.2000000000000002
141
0.1
142
0.0
143
0.0393701
144
0.5
145
0.0
146
0.71
147
0.5
 71
     0
 72
     0
 73
     0
 74
     0
 75
     0
 76
     0
 77
     1
 78
     8
170
     0
171
     2
172
     1
173
     0
174
     0
175
     0
176
   151
177
   151
178
     1
  0
ENDTAB
  0
ENDSEC
  0
SECTION
  2
BLOCKS
  0
BLOCK
  8
0
  2
$MODEL_SPACE
 70
     0
 10
0.0
 20
0.0
 30
0.0
  3
$MODEL_SPACE
  1

  0
ENDBLK
  5
21
  8
0
  0
BLOCK
 67
     1
  8
0
  2
$PAPER_SPACE
 70
     0
 10
0.0
 20
0.0
 30
0.0
  3
$PAPER_SPACE
  1

  0
ENDBLK
  5
D5
 67
     1
  8
0
  0
BLOCK
  8
0
  2
GENAXEH
 70
     0
 10
0.0
 20
0.0
 30
0.0
  3
GENAXEH
  1

  0
LINE
  5
22F
  8
0
 10
-1.0
 20
0.0
 30
0.0
 11
1.0
 21
0.0
 31
0.0
  0
ENDBLK
  5
230
  8
0
  0
ENDSEC
  0
SECTION
  2
ENTITIES
  0
POLYLINE
  5
40E
  8
0
 66
     1
 10
0.0
 20
0.0
 30
-4876.0016451489391
 70
     1
210
0.0
220
-1.0
230
0.0000000000000001
  0
VERTEX
  5
40F
  8
0
 10
2832.3056146885751
 20
35.999983449683647
 30
-4876.0016451489391
 42
-0.4142135623730951
  0
VERTEX
  5
410
  8
0
 10
2833.8056146885751
 20
34.499983449683647
 30
-4876.0016451489391
  0
VERTEX
  5
411
  8
0
 10
2833.8056146885751
 20
27.499983449683651
 30
-4876.0016451489391
 42
0.9999999999999998
  0
VERTEX
  5
412
  8
0
 10
2836.6056146885749
 20
27.499983449683651
 30
-4876.0016451489391
  0
VERTEX
  5
413
  8
0
 10
2836.6056146885749
 20
34.499983449683647
 30
-4876.0016451489391
 42
-0.4142135623730951
  0
VERTEX
  5
414
  8
0
 10
2838.1056146885749
 20
35.999983449683647
 30
-4876.0016451489391
  0
VERTEX
  5
415
  8
0
 10
2843.2056146885752
 20
35.999983449683647
 30
-4876.0016451489391
  0
VERTEX
  5
416
  8
0
 10
2843.2056146885752
 20
34.999983449683647
 30
-4876.0016451489391
 42
-0.4142135623730951
  0
VERTEX
  5
417
  8
0
 10
2842.2056146885752
 20
33.999983449683647
 30
-4876.0016451489391
  0
VERTEX
  5
418
  8
0
 10
2839.2056146885752
 20
33.999983449683647
 30
-4876.0016451489391
 42
0.4142135623730951
  0
VERTEX
  5
419
  8
0
 10
2838.2056146885752
 20
32.999983449683647
 30
-4876.0016451489391
  0
VERTEX
  5
41A
  8
0
 10
2838.2056146885752
 20
27.499983449683651
 30
-4876.0016451489391
 42
-0.2679491924311114
  0
VERTEX
  5
41B
  8
0
 10
2836.7056146885752
 20
24.901907238330391
 30
-4876.0016451489391
 42
0.2679491924311277
  0
VERTEX
  5
41C
  8
0
 10
2836.4556146885761
 20
24.468894536438121
 30
-4876.0016451489391
  0
VERTEX
  5
41D
  8
0
 10
2836.4556146885761
 20
19.499983449683651
 30
-4876.0016451489391
 42
0.4142135623730951
  0
VERTEX
  5
41E
  8
0
 10
2837.9556146885761
 20
17.99998344968364
 30
-4876.0016451489391
  0
VERTEX
  5
41F
  8
0
 10
2842.2056146885752
 20
17.99998344968364
 30
-4876.0016451489391
 42
-0.4142135623730951
  0
VERTEX
  5
420
  8
0
 10
2843.2056146885752
 20
16.999983449683651
 30
-4876.0016451489391
  0
VERTEX
  5
421
  8
0
 10
2843.2056146885752
 20
0.9749834496836415
 30
-4876.0016451489391
 42
-0.9999999999999998
  0
VERTEX
  5
422
  8
0
 10
2841.255614688575
 20
0.9749834496836415
 30
-4876.0016451489391
  0
VERTEX
  5
423
  8
0
 10
2841.255614688575
 20
11.99998344968362
 30
-4876.0016451489391
  0
VERTEX
  5
424
  8
0
 10
2838.7056146885761
 20
12.99998344968362
 30
-4876.0016451489391
  0
VERTEX
  5
425
  8
0
 10
2838.7056146885761
 20
13.999983449683651
 30
-4876.0016451489391
  0
VERTEX
  5
426
  8
0
 10
2841.255614688575
 20
13.999983449683651
 30
-4876.0016451489391
  0
VERTEX
  5
427
  8
0
 10
2841.255614688575
 20
16.499983449683651
 30
-4876.0016451489391
  0
VERTEX
  5
428
  8
0
 10
2823.155614688575
 20
16.499983449683651
 30
-4876.0016451489391
  0
VERTEX
  5
429
  8
0
 10
2823.155614688575
 20
13.999983449683651
 30
-4876.0016451489391
  0
VERTEX
  5
42A
  8
0
 10
2825.7056146885752
 20
13.999983449683651
 30
-4876.0016451489391
  0
VERTEX
  5
42B
  8
0
 10
2825.7056146885752
 20
12.99998344968362
 30
-4876.0016451489391
  0
VERTEX
  5
42C
  8
0
 10
2823.155614688575
 20
11.99998344968362
 30
-4876.0016451489391
  0
VERTEX
  5
42D
  8
0
 10
2823.155614688575
 20
2.9499834496836348
 30
-4876.0016451489391
 42
-0.9999999999999998
  0
VERTEX
  5
42E
  8
0
 10
2821.255614688575
 20
2.9499834496836348
 30
-4876.0016451489391
  0
VERTEX
  5
42F
  8
0
 10
2821.255614688575
 20
17.99998344968364
 30
-4876.0016451489391
  0
VERTEX
  5
430
  8
0
 10
2821.255614688575
 20
29.499983449683711
 30
-4876.0016451489391
  0
VERTEX
  5
431
  8
0
 10
2818.7056146885752
 20
30.499983449683651
 30
-4876.0016451489391
  0
VERTEX
  5
432
  8
0
 10
2818.7056146885752
 20
31.499983449683651
 30
-4876.0016451489391
  0
VERTEX
  5
433
  8
0
 10
2821.2556146885759
 20
31.499983449683651
 30
-4876.0016451489391
  0
VERTEX
  5
434
  8
0
 10
2821.255614688575
 20
33.999983449683647
 30
-4876.0016451489391
  0
VERTEX
  5
435
  8
0
 10
2803.155614688575
 20
33.999983449683647
 30
-4876.0016451489391
  0
VERTEX
  5
436
  8
0
 10
2803.155614688575
 20
31.499983449683651
 30
-4876.0016451489391
  0
VERTEX
  5
437
  8
0
 10
2805.7056146885752
 20
31.499983449683651
 30
-4876.0016451489391
  0
VERTEX
  5
438
  8
0
 10
2805.7056146885752
 20
30.499983449683651
 30
-4876.0016451489391
  0
VERTEX
  5
439
  8
0
 10
2803.155614688575
 20
29.499983449683651
 30
-4876.0016451489391
  0
VERTEX
  5
43A
  8
0
 10
2803.155614688575
 20
19.72498344968367
 30
-4876.0016451489391
 42
-0.9999999999999998
  0
VERTEX
  5
43B
  8
0
 10
2801.7056146885761
 20
19.72498344968367
 30
-4876.0016451489391
  0
VERTEX
  5
43C
  8
0
 10
2801.7056146885761
 20
33.999983449683647
 30
-4876.0016451489391
  0
VERTEX
  5
43D
  8
0
 10
2800.505614688575
 20
35.1999834496837
 30
-4876.0016451489391
  0
VERTEX
  5
43E
  8
0
 10
2800.505614688575
 20
37.999983449683647
 30
-4876.0016451489391
  0
VERTEX
  5
43F
  8
0
 10
2801.7056146885761
 20
37.999983449683647
 30
-4876.0016451489391
  0
VERTEX
  5
440
  8
0
 10
2801.7056146885761
 20
35.999983449683647
 30
-4876.0016451489391
  0
VERTEX
  5
441
  8
0
 10
2804.2056146829691
 20
35.999983449683647
 30
-4876.0016451489391
  0
VERTEX
  5
442
  8
0
 10
2804.7056146826321
 20
35.499983449683647
 30
-4876.0016451489391
  0
VERTEX
  5
443
  8
0
 10
2819.7056146826321
 20
35.499983449683647
 30
-4876.0016451489391
  0
VERTEX
  5
444
  8
0
 10
2820.2056146829691
 20
35.999983449683647
 30
-4876.0016451489391
  0
VERTEX
  5
445
  8
0
 10
2822.7056146885761
 20
35.999983449683647
 30
-4876.0016451489391
  0
VERTEX
  5
446
  8
0
 10
2822.7056146885761
 20
17.99998344968364
 30
-4876.0016451489391
  0
VERTEX
  5
447
  8
0
 10
2832.4556146885752
 20
17.99998344968364
 30
-4876.0016451489391
 42
0.4142135623730951
  0
VERTEX
  5
448
  8
0
 10
2833.9556146885752
 20
19.499983449683651
 30
-4876.0016451489391
  0
VERTEX
  5
449
  8
0
 10
2833.9556146885752
 20
24.468894536438121
 30
-4876.0016451489391
 42
0.2679491924311278
  0
VERTEX
  5
44A
  8
0
 10
2833.7056146885752
 20
24.901907238330391
 30
-4876.0016451489391
 42
-0.2679491924311114
  0
VERTEX
  5
44B
  8
0
 10
2832.2056146885761
 20
27.499983449683651
 30
-4876.0016451489391
  0
VERTEX
  5
44C
  8
0
 10
2832.2056146885761
 20
33.999983449683647
 30
-4876.0016451489391
  0
VERTEX
  5
44D
  8
0
 10
2831.7056146885752
 20
33.999983449683647
 30
-4876.0016451489391
 42
-0.4142135623730961
  0
VERTEX
  5
44E
  8
0
 10
2830.7056146885752
 20
34.999983449683647
 30
-4876.0016451489391
  0
VERTEX
  5
44F
  8
0
 10
2830.7056146885752
 20
35.999983449683647
 30
-4876.0016451489391
  0
SEQEND
  5
450
  8
0
  0
POLYLINE
  5
451
  8
0
 66
     1
 10
0.0
 20
0.0
 30
1123.99835485106
 70
     1
210
0.0
220
-1.0
230
0.0000000000000001
  0
VERTEX
  5
452
  8
0
 10
2832.3056146885751
 20
35.999983449683278
 30
1123.99835485106
 42
-0.4142135623730951
  0
VERTEX
  5
453
  8
0
 10
2833.8056146885751
 20
34.499983449683278
 30
1123.99835485106
  0
VERTEX
  5
454
  8
0
 10
2833.8056146885751
 20
27.499983449683281
 30
1123.99835485106
 42
0.9999999999999998
  0
VERTEX
  5
455
  8
0
 10
2836.6056146885749
 20
27.499983449683281
 30
1123.99835485106
  0
VERTEX
  5
456
  8
0
 10
2836.6056146885749
 20
34.499983449683278
 30
1123.99835485106
 42
-0.4142135623730951
  0
VERTEX
  5
457
  8
0
 10
2838.1056146885749
 20
35.999983449683278
 30
1123.99835485106
  0
VERTEX
  5
458
  8
0
 10
2843.2056146885752
 20
35.999983449683278
 30
1123.99835485106
  0
VERTEX
  5
459
  8
0
 10
2843.2056146885752
 20
34.999983449683278
 30
1123.99835485106
 42
-0.4142135623730951
  0
VERTEX
  5
45A
  8
0
 10
2842.2056146885752
 20
33.999983449683278
 30
1123.99835485106
  0
VERTEX
  5
45B
  8
0
 10
2839.2056146885752
 20
33.999983449683278
 30
1123.99835485106
 42
0.4142135623730951
  0
VERTEX
  5
45C
  8
0
 10
2838.2056146885752
 20
32.999983449683278
 30
1123.99835485106
  0
VERTEX
  5
45D
  8
0
 10
2838.2056146885752
 20
27.499983449683281
 30
1123.99835485106
 42
-0.2679491924311114
  0
VERTEX
  5
45E
  8
0
 10
2836.7056146885752
 20
24.901907238330018
 30
1123.99835485106
 42
0.2679491924311277
  0
VERTEX
  5
45F
  8
0
 10
2836.4556146885761
 20
24.468894536437752
 30
1123.99835485106
  0
VERTEX
  5
460
  8
0
 10
2836.4556146885761
 20
19.499983449683281
 30
1123.99835485106
 42
0.4142135623730951
  0
VERTEX
  5
461
  8
0
 10
2837.9556146885761
 20
17.999983449683281
 30
1123.99835485106
  0
VERTEX
  5
462
  8
0
 10
2842.2056146885752
 20
17.999983449683281
 30
1123.99835485106
 42
-0.4142135623730951
  0
VERTEX
  5
463
  8
0
 10
2843.2056146885752
 20
16.999983449683281
 30
1123.99835485106
  0
VERTEX
  5
464
  8
0
 10
2843.2056146885752
 20
0.974983449683274
 30
1123.99835485106
 42
-0.9999999999999998
  0
VERTEX
  5
465
  8
0
 10
2841.255614688575
 20
0.974983449683274
 30
1123.99835485106
  0
VERTEX
  5
466
  8
0
 10
2841.255614688575
 20
11.999983449683249
 30
1123.99835485106
  0
VERTEX
  5
467
  8
0
 10
2838.7056146885761
 20
12.999983449683249
 30
1123.99835485106
  0
VERTEX
  5
468
  8
0
 10
2838.7056146885761
 20
13.999983449683279
 30
1123.99835485106
  0
VERTEX
  5
469
  8
0
 10
2841.255614688575
 20
13.999983449683279
 30
1123.99835485106
  0
VERTEX
  5
46A
  8
0
 10
2841.255614688575
 20
16.499983449683281
 30
1123.99835485106
  0
VERTEX
  5
46B
  8
0
 10
2823.155614688575
 20
16.499983449683281
 30
1123.99835485106
  0
VERTEX
  5
46C
  8
0
 10
2823.155614688575
 20
13.999983449683279
 30
1123.99835485106
  0
VERTEX
  5
46D
  8
0
 10
2825.7056146885752
 20
13.999983449683279
 30
1123.99835485106
  0
VERTEX
  5
46E
  8
0
 10
2825.7056146885752
 20
12.999983449683249
 30
1123.99835485106
  0
VERTEX
  5
46F
  8
0
 10
2823.155614688575
 20
11.999983449683249
 30
1123.99835485106
  0
VERTEX
  5
470
  8
0
 10
2823.155614688575
 20
2.949983449683268
 30
1123.99835485106
 42
-0.9999999999999998
  0
VERTEX
  5
471
  8
0
 10
2821.255614688575
 20
2.949983449683268
 30
1123.99835485106
  0
VERTEX
  5
472
  8
0
 10
2821.255614688575
 20
17.999983449683281
 30
1123.99835485106
  0
VERTEX
  5
473
  8
0
 10
2821.255614688575
 20
29.499983449683342
 30
1123.99835485106
  0
VERTEX
  5
474
  8
0
 10
2818.7056146885752
 20
30.499983449683281
 30
1123.99835485106
  0
VERTEX
  5
475
  8
0
 10
2818.7056146885752
 20
31.499983449683281
 30
1123.99835485106
  0
VERTEX
  5
476
  8
0
 10
2821.2556146885759
 20
31.499983449683281
 30
1123.99835485106
  0
VERTEX
  5
477
  8
0
 10
2821.255614688575
 20
33.999983449683278
 30
1123.99835485106
  0
VERTEX
  5
478
  8
0
 10
2803.155614688575
 20
33.999983449683278
 30
1123.99835485106
  0
VERTEX
  5
479
  8
0
 10
2803.155614688575
 20
31.499983449683281
 30
1123.99835485106
  0
VERTEX
  5
47A
  8
0
 10
2805.7056146885752
 20
31.499983449683281
 30
1123.99835485106
  0
VERTEX
  5
47B
  8
0
 10
2805.7056146885752
 20
30.499983449683281
 30
1123.99835485106
  0
VERTEX
  5
47C
  8
0
 10
2803.155614688575
 20
29.499983449683281
 30
1123.99835485106
  0
VERTEX
  5
47D
  8
0
 10
2803.155614688575
 20
19.7249834496833
 30
1123.99835485106
 42
-0.9999999999999998
  0
VERTEX
  5
47E
  8
0
 10
2801.7056146885761
 20
19.7249834496833
 30
1123.99835485106
  0
VERTEX
  5
47F
  8
0
 10
2801.7056146885761
 20
33.999983449683278
 30
1123.99835485106
  0
VERTEX
  5
480
  8
0
 10
2800.505614688575
 20
35.199983449683323
 30
1123.99835485106
  0
VERTEX
  5
481
  8
0
 10
2800.505614688575
 20
37.999983449683278
 30
1123.99835485106
  0
VERTEX
  5
482
  8
0
 10
2801.7056146885761
 20
37.999983449683278
 30
1123.99835485106
  0
VERTEX
  5
483
  8
0
 10
2801.7056146885761
 20
35.999983449683278
 30
1123.99835485106
  0
VERTEX
  5
484
  8
0
 10
2804.2056146829691
 20
35.999983449683278
 30
1123.99835485106
  0
VERTEX
  5
485
  8
0
 10
2804.7056146826321
 20
35.499983449683278
 30
1123.99835485106
  0
VERTEX
  5
486
  8
0
 10
2819.7056146826321
 20
35.499983449683278
 30
1123.99835485106
  0
VERTEX
  5
487
  8
0
 10
2820.2056146829691
 20
35.999983449683278
 30
1123.99835485106
  0
VERTEX
  5
488
  8
0
 10
2822.7056146885761
 20
35.999983449683278
 30
1123.99835485106
  0
VERTEX
  5
489
  8
0
 10
2822.7056146885761
 20
17.999983449683281
 30
1123.99835485106
  0
VERTEX
  5
48A
  8
0
 10
2832.4556146885752
 20
17.999983449683281
 30
1123.99835485106
 42
0.4142135623730951
  0
VERTEX
  5
48B
  8
0
 10
2833.9556146885752
 20
19.499983449683281
 30
1123.99835485106
  0
VERTEX
  5
48C
  8
0
 10
2833.9556146885752
 20
24.468894536437752
 30
1123.99835485106
 42
0.2679491924311278
  0
VERTEX
  5
48D
  8
0
 10
2833.7056146885752
 20
24.901907238330018
 30
1123.99835485106
 42
-0.2679491924311114
  0
VERTEX
  5
48E
  8
0
 10
2832.2056146885761
 20
27.499983449683281
 30
1123.99835485106
  0
VERTEX
  5
48F
  8
0
 10
2832.2056146885761
 20
33.999983449683278
 30
1123.99835485106
  0
VERTEX
  5
490
  8
0
 10
2831.7056146885752
 20
33.999983449683278
 30
1123.99835485106
 42
-0.4142135623730961
  0
VERTEX
  5
491
  8
0
 10
2830.7056146885752
 20
34.999983449683278
 30
1123.99835485106
  0
VERTEX
  5
492
  8
0
 10
2830.7056146885752
 20
35.999983449683278
 30
1123.99835485106
  0
SEQEND
  5
493
  8
0
  0
LINE
  5
494
  8
LAYER1
 10
2833.3670706156349
 20
-1123.9985098998079
 30
35.558722553092913
 11
2833.3662748603551
 21
4876.0016451489391
 31
35.560643621463171
  0
LINE
  5
495
  8
LAYER1
 10
2833.3662748603551
 20
4876.0016451489391
 30
35.560643621463171
 11
2830.998507907389
 21
-1123.99835485106
 31
34.292876668496802
  0
3DFACE
  5
496
  8
LAYER1
 10
2843.2056127382448
 20
4875.9896431188963
 30
8.9874654716425084
 11
2843.2056146885752
 21
4876.0016451489391
 31
11.99998344968332
 12
2843.2056146885752
 22
-1123.998354851062
 32
11.99998344968332
 13
2843.2056146885752
 23
-1123.9983548600869
 33
8.9874834496833458
  0
3DFACE
  5
497
  8
LAYER1
 10
2843.2056146885752
 20
4876.0016451489391
 30
11.99998344959771
 11
2843.2056146885752
 21
4876.0016451489391
 31
16.999983449683349
 12
2843.2056146885752
 22
-1123.99835485106
 32
14.734022519521391
 13
2843.2056146885752
 23
-1123.99835485106
 33
11.99998344968332
  0
3DFACE
  5
498
  8
LAYER1
 10
2843.2056146885752
 20
-1123.999387388533
 30
14.73402212957313
 11
2843.2056146885752
 21
-1123.99835485106
 31
16.999983449683349
 12
2843.2056146885752
 22
4876.0016451489391
 32
16.999983449681771
 13
2843.2056146885752
 23
4876.0016451489391
 33
11.99998344959771
  0
3DFACE
  5
499
  8
LAYER1
 10
2843.2056146885752
 20
-1123.99835485106
 30
16.999983447687409
 11
2842.9127214697619
 21
-1123.99835485106
 31
17.707090230869891
 12
2842.9127214697619
 22
4876.0016451489391
 32
17.707090230869891
 13
2843.2056146885752
 23
4876.0016451447709
 33
16.999983449681771
  0
3DFACE
  5
49A
  8
LAYER1
 10
2842.9127214697628
 20
-1123.99835485106
 30
17.70709023086723
 11
2842.205614688578
 21
-1123.99835485106
 31
17.999983449683349
 12
2842.2056146885752
 22
4876.0016451489391
 32
17.999983449683349
 13
2842.9127214697619
 23
4876.0016451489391
 33
17.707090230869891
  0
3DFACE
  5
49B
  8
LAYER1
 10
2842.2056146885752
 20
-1123.99835485106
 30
17.999983449684571
 11
2840.0806149551222
 21
-1123.9991074551319
 31
17.999983449683349
 12
2840.0806149551222
 22
4876.0016451489391
 32
17.999983449683349
 13
2842.2056146885752
 23
4876.0016451489391
 33
17.999983449683349
  0
3DFACE
  5
49C
  8
LAYER1
 10
2840.0806146885752
 20
-1123.99835485106
 30
17.999983449683349
 11
2837.9556146885761
 21
-1123.99835485106
 31
17.999983449683349
 12
2837.9556146885761
 22
4876.001645148941
 32
17.999983449683349
 13
2840.08061460708
 23
4876.0020612943426
 33
17.999983865828749
  0
3DFACE
  5
49D
  8
LAYER1
 10
2837.955614594825
 20
-1123.997979851104
 30
17.999983543433292
 11
2836.8949545167952
 21
-1123.997979851104
 31
18.439323277903441
 12
2836.8949545167952
 22
4876.0016451489391
 32
18.439323277903519
 13
2837.955614555533
 23
4876.0020207993703
 33
17.99998344968326
  0
3DFACE
  5
49E
  8
LAYER1
 10
2836.8949545167952
 20
-1123.99835485106
 30
18.439323277903519
 11
2836.4556147046601
 21
-1123.9981351811541
 31
19.499983410850309
 12
2836.4556146885761
 22
4876.0016451489391
 32
19.499983410850309
 13
2836.8949545007099
 23
4876.0014254790403
 33
18.439323316736012
  0
3DFACE
  5
49F
  8
LAYER1
 10
2836.4556147008561
 20
-1123.9981351811541
 30
19.499983409476609
 11
2836.4556146885761
 21
-1123.998135486446
 31
24.468894536437851
 12
2836.4556146885761
 22
4876.0016451489382
 32
24.468894536437851
 13
2836.4556143780192
 23
4876.0028873765541
 33
19.499983760239811
  0
3DFACE
  5
4A0
  8
LAYER1
 10
2836.4556146885761
 20
-1123.998135486446
 30
24.468894536437851
 11
2836.5226019866832
 21
-1123.99835485106
 31
24.718894536437851
 12
2836.5226019866832
 22
4876.0016451489391
 32
24.718894536437851
 13
2836.4556146885761
 23
4876.0016451489391
 33
24.468894536437851
  0
3DFACE
  5
4A1
  8
LAYER1
 10
2836.5226019866832
 20
4876.0016451489382
 30
24.718894536437851
 11
2836.7056146885752
 21
4876.001645148941
 31
24.9019072383301
 12
2836.7056146885752
 22
-1123.99835485106
 32
24.901907238330089
 13
2836.5226019866832
 23
-1123.99835485106
 33
24.718894536437851
  0
LINE
  5
4A2
  8
QUOTE
 10
2842.3070895975629
 20
4876.0061942562279
 30
-0.0000165503166798
 11
2842.6939887913791
 21
4876.0016451489
 31
0.9749834496836982
  0
3DFACE
  5
4A3
  8
LAYER1
 10
2843.2056146885752
 20
4876.0016451482225
 30
16.999983449681771
 11
2841.255614688575
 21
4876.0016451482225
 31
16.49998344968337
 12
2841.255603241229
 22
4876.0016451489391
 32
0.9749834496805576
 13
2843.2056152728642
 23
4876.0016451482279
 33
0.9749839243347366
  0
3DFACE
  5
4A4
  8
LAYER1
 10
2843.205614675458
 20
4876.0016451447709
 30
16.99998348135022
 11
2842.6748593299872
 21
4876.0016451482225
 31
16.863892332095599
 12
2842.2306146885749
 22
4876.0016451482225
 32
16.749983449682571
 13
2843.205614675458
 23
4876.0016451447709
 33
16.99998348135022
  0
3DFACE
  5
4A5
  8
LAYER1
 10
2843.205614675458
 20
4876.0016451489391
 30
16.999983491051751
 11
2842.9127214697619
 21
4876.0016451489391
 31
17.707090230869891
 12
2842.2305926645558
 22
4876.0016451482225
 32
16.749977802497369
 13
2843.205614675458
 23
4876.0016451489391
 33
16.999983491051751
  0
3DFACE
  5
4A6
  8
LAYER1
 10
2842.9127214697692
 20
4876.0016451489391
 30
17.707090230853431
 11
2842.2056146885752
 21
4876.0016451489391
 31
17.999983449683349
 12
2842.2306146885749
 22
4876.0016451482225
 32
16.749983449682571
 13
2842.9127214697619
 23
4876.0016451482225
 33
17.707090230869959
  0
3DFACE
  5
4A7
  8
LAYER1
 10
2841.255614688243
 20
4876.0016451482225
 30
16.499532789114479
 11
2842.2056146885752
 21
4876.0016451489482
 31
17.999983449683349
 12
2842.2306141972572
 22
4876.0016451482225
 32
16.750008015582871
 13
2842.2056146885752
 23
4876.0016451489482
 33
17.999983449683349
  0
3DFACE
  5
4A8
  8
LAYER1
 10
2841.255614688575
 20
4876.0016451482225
 30
16.499983449683359
 11
2842.2056146885752
 21
4876.0016451489482
 31
17.99998344967322
 12
2837.9556146640539
 22
4876.0020207994094
 32
17.99998340473222
 13
2837.1209031529361
 23
4876.0016451489391
 33
16.499983449683349
  0
3DFACE
  5
4A9
  8
LAYER1
 10
2837.1209031529361
 20
4876.0016451489391
 30
16.499983449683349
 11
2837.9544895872091
 21
4876.0020204009434
 31
18.000449426878632
 12
2837.4252845361639
 22
4876.0018329741551
 32
18.219653363793391
 13
2836.4142673224019
 23
4876.0016451489391
 33
16.499983449683349
  0
3DFACE
  5
4AA
  8
LAYER1
 10
2836.8950390866521
 20
4876.001425436747
 30
18.439119108217259
 11
2837.4252845361639
 21
4876.0018329741551
 31
18.219653363793391
 12
2836.4142673224019
 22
4876.0016451489391
 32
16.499983449683349
 13
2835.8272152136719
 23
4876.0016451489391
 33
16.499983449683349
  0
3DFACE
  5
4AB
  8
LAYER1
 10
2836.8947729083261
 20
4876.001425491515
 30
18.438635736478549
 11
2836.4556146885761
 21
4876.0016451489391
 31
19.499983449683349
 12
2834.7193298013749
 22
4876.0016451489391
 32
16.499983449683349
 13
2835.8272152136719
 23
4876.0016451489391
 33
16.499983449683349
  0
3DFACE
  5
4AC
  8
LAYER1
 10
2836.4555396563042
 20
4876.0016451864694
 30
19.50016478599122
 11
2833.9556146885752
 21
4876.0016451864694
 31
19.499983449683342
 12
2833.9556146885752
 22
4876.0016451489391
 32
24.468894536436419
 13
2836.4554611905
 23
4876.0018645000873
 33
24.46920163663194
  0
3DFACE
  5
4AD
  8
LAYER1
 10
2823.155614688575
 20
4876.0016451489391
 30
16.499983449683349
 11
2823.155614688575
 21
4876.0016451489391
 31
17.999983449683349
 12
2832.4555766373851
 22
4876.0016418486384
 32
17.999754993352848
 13
2832.2055993146369
 23
4875.9817005809336
 33
16.499988435825369
  0
3DFACE
  5
4AE
  8
LAYER1
 10
2821.255614688575
 20
4876.0016451489391
 30
29.499983449683409
 11
2821.255614688575
 21
4876.0016451489391
 31
31.499983449683349
 12
2818.7056146885752
 22
4876.0016451489391
 32
31.499983449683349
 13
2818.7056146885752
 23
4876.0016451489391
 33
30.499983449683349
  0
3DFACE
  5
4AF
  8
LAYER1
 10
2821.255614688575
 20
-1123.99835485106
 30
29.499983449683409
 11
2821.255614688575
 21
-1123.99835485106
 31
31.499983449683349
 12
2818.7056146885752
 22
-1123.99835485106
 32
31.499983449683349
 13
2818.7056146885752
 23
-1123.99835485106
 33
30.499983449683349
  0
3DFACE
  5
4B0
  8
LAYER1
 10
2803.155614688575
 20
-1123.99835485106
 30
29.499983449683349
 11
2803.155614688575
 21
-1123.99835485106
 31
31.499983449683349
 12
2805.7056146885752
 22
-1123.99835485106
 32
31.499983449683349
 13
2805.7056146885752
 23
-1123.99835485106
 33
30.499983449683349
  0
3DFACE
  5
4B1
  8
LAYER1
 10
2812.2056146885761
 20
-1123.99835485106
 30
33.999983449683349
 11
2812.2056146885761
 21
-1123.99835485106
 31
35.499983449683349
 12
2804.7056146826321
 22
-1123.99835485106
 32
35.499983449683299
 13
2804.6285737464732
 23
-1123.9983548510579
 33
34.01573252191595
  0
3DFACE
  5
4B2
  8
LAYER1
 10
2819.605667855245
 20
-1123.99835485106
 30
33.999983449683349
 11
2819.7066469126789
 21
-1123.998354851062
 31
35.49998344968332
 12
2812.2056146885761
 22
-1123.99835485106
 32
35.499983449683349
 13
2812.2056146885761
 23
-1123.99835485106
 33
33.999983449683349
  0
3DFACE
  5
4B3
  8
LAYER1
 10
2804.2056146829691
 20
-1123.99835485106
 30
35.999983449683349
 11
2804.7056146826321
 21
-1123.99835485106
 31
35.499983449683363
 12
2804.6277562814171
 22
-1123.99835485106
 32
33.999983449683349
 13
2804.1530313640869
 23
-1123.99835485106
 33
33.999983449683349
  0
3DFACE
  5
4B4
  8
LAYER1
 10
2804.1530313640869
 20
-1123.99835485106
 30
33.999983449683349
 11
2804.2056146829691
 21
-1123.99835485106
 31
35.999983449683349
 12
2802.9556146857722
 22
-1123.99835485106
 32
35.999983449683349
 13
2803.155614688575
 23
-1123.99835485106
 33
33.999983449683349
  0
3DFACE
  5
4B5
  8
LAYER1
 10
2801.7056146885761
 20
-1123.99835485106
 30
35.999983449683349
 11
2801.7056146885761
 21
-1123.99835485106
 31
37.999983449683349
 12
2800.505614688575
 22
-1123.9983548510579
 32
37.999983449683349
 13
2800.505614688575
 23
-1123.99835485106
 33
36.599983449683371
  0
3DFACE
  5
4B6
  8
LAYER1
 10
2800.505614688575
 20
-1123.99835485106
 30
35.199983449683387
 11
2800.505614688575
 21
-1123.99835485106
 31
36.599983449683371
 12
2801.7056146885761
 22
-1123.99835485106
 32
35.999983449683349
 13
2801.7056146885761
 23
-1123.99835485106
 33
33.999983449683349
  0
3DFACE
  5
4B7
  8
LAYER1
 10
2801.7056146885761
 20
-1123.99835485106
 30
35.999983449683349
 11
2802.9556146857722
 21
-1123.99835485106
 31
35.999983449683349
 12
2803.155614688575
 22
-1123.99835485106
 32
33.999983449683349
 13
2801.7056146885761
 23
-1123.99835485106
 33
33.999983449683349
  0
3DFACE
  5
4B8
  8
LAYER1
 10
2801.7056146885761
 20
-1123.99835485106
 30
33.999983449683349
 11
2803.155614688575
 21
-1123.99835485106
 31
33.999983449683349
 12
2803.155614688575
 22
-1123.99835485106
 32
19.724983449683378
 13
2801.7056146885761
 23
-1123.99835485106
 33
19.724983449683371
  0
3DFACE
  5
4B9
  8
LAYER1
 10
2819.7066469126789
 20
-1123.998354851062
 30
35.49998344968332
 11
2820.2056146829691
 21
-1123.99835485106
 31
35.999983449683349
 12
2820.2056146829691
 22
-1123.99835485106
 32
33.999983449683349
 13
2819.605667855245
 23
-1123.99835485106
 33
33.999983449683349
  0
3DFACE
  5
4BA
  8
LAYER1
 10
2836.7056146885752
 20
-1123.998354851062
 30
24.901907238330089
 11
2837.8036908999279
 21
-1123.99835485106
 31
25.999983449683398
 12
2837.8036908999279
 22
4876.0016451489391
 32
25.999983449683398
 13
2838.2056146885752
 23
4876.0016451489391
 33
27.499983449668829
  0
3DFACE
  5
4BB
  8
LAYER1
 10
2838.2056146885752
 20
4876.0016451489391
 30
30.249983449683349
 11
2838.2056146885752
 21
4876.0016451489419
 31
27.499983449683349
 12
2838.2056146885752
 22
-1123.99835485106
 32
27.499983449683349
 13
2838.2056146885752
 23
-1123.99835485106
 33
30.249983449683349
  0
3DFACE
  5
4BC
  8
LAYER1
 10
2838.2056146885752
 20
-1123.998354851062
 30
30.249983449683349
 11
2838.2056146885752
 21
-1123.9983548510561
 31
32.999983449683349
 12
2838.2056146885752
 22
4876.001645148941
 32
32.999983449683349
 13
2838.4985079073881
 23
4876.001645148941
 33
33.707090230869902
  0
3DFACE
  5
4BD
  8
LAYER1
 10
2838.2056146885752
 20
-1123.998354851049
 30
32.999983449683349
 11
2838.4985079073881
 21
-1123.99835485106
 31
33.707090230869902
 12
2838.4985079073881
 22
4876.001645148941
 32
33.707090230869902
 13
2839.2056146770692
 23
4876.0015475178689
 33
33.999983444917511
  0
3DFACE
  5
4BE
  8
LAYER1
 10
2840.7056145704169
 20
4876.0011725178974
 30
33.999983449683349
 11
2839.2056146885752
 21
4876.0011725178974
 31
33.999983449683349
 12
2839.2056146348641
 22
-1123.9984981240509
 32
33.999983449683349
 13
2840.7056146885752
 23
-1123.9984981240509
 33
33.999983449683349
  0
3DFACE
  5
4BF
  8
LAYER1
 10
2841.385167041592
 20
-1123.99835485106
 30
33.999983449683349
 11
2840.7056146885752
 21
-1123.9983548510741
 31
33.999983449683349
 12
2840.7056145704169
 22
4876.0011725179693
 32
33.999983449683349
 13
2841.5650724198449
 23
4876.0016451489391
 33
33.999983449683349
  0
3DFACE
  5
4C0
  8
LAYER1
 10
2841.5650724198449
 20
4876.0016451489391
 30
33.999983449683349
 11
2842.2056146885752
 21
4876.0016451489391
 31
33.999983449683349
 12
2842.2056146885752
 22
-1123.99835485106
 32
33.999983449683349
 13
2841.3851670423292
 23
-1123.9983302505691
 33
33.999983449683349
  0
3DFACE
  5
4C1
  8
LAYER1
 10
2842.2056146698851
 20
-1123.998466991829
 30
33.999983412303102
 11
2842.9127214697619
 21
-1123.998466991829
 31
34.292876668496831
 12
2842.9127214697619
 22
4876.001645148941
 32
34.292876668496802
 13
2842.2056146885848
 23
4876.0016451489391
 33
33.999983449683349
  0
3DFACE
  5
4C2
  8
LAYER1
 10
2842.9127214697542
 20
4876.001645148941
 30
34.292876668493712
 11
2843.2056146885752
 21
4876.0016451489391
 31
34.999983449677373
 12
2843.2056146885752
 22
-1123.99835485106
 32
34.999983449677373
 13
2842.9127214697619
 23
-1123.998466991829
 33
34.292876668496874
  0
3DFACE
  5
4C3
  8
LAYER1
 10
2843.2056146885752
 20
-1123.998466991829
 30
34.999983449677437
 11
2843.2056146885752
 21
-1123.998466991829
 31
35.499983449683349
 12
2843.2056146885752
 22
4876.0016451489391
 32
35.499983449683349
 13
2843.2056146885739
 23
4876.0016451489391
 33
34.999983449675298
  0
3DFACE
  5
4C4
  8
LAYER1
 10
2843.2056146885752
 20
4876.0016451489391
 30
35.499983449683349
 11
2843.2056146607979
 21
4876.0014784822961
 31
35.999983394127803
 12
2843.2056146607979
 22
-1123.99835485106
 32
35.999983449683349
 13
2843.2056146885752
 23
-1123.998466991829
 33
35.499983449683349
  0
3DFACE
  5
4C5
  8
LAYER1
 10
2842.3070895975629
 20
4876.0061942562279
 30
-0.0000165503168148
 11
2842.2306146886672
 21
4876.0016451489173
 31
-0.0000165503013392
 12
2842.2306146886672
 22
4876.0016451489128
 32
0.9749834496835845
 13
2842.6939887912781
 23
4876.0016451471211
 33
0.9749834496836982
  0
3DFACE
  5
4C6
  8
LAYER1
 10
2842.2306146886672
 20
4876.0016451489173
 30
-0.0000165503166798
 11
2841.8191065992519
 21
4876.0199675578897
 31
0.069074783392999
 12
2842.1733609806761
 22
4876.0158022837613
 32
0.9618086722445298
 13
2842.2306092570461
 23
4876.0016451485826
 33
0.9749836870076435
  0
3DFACE
  5
4C7
  8
LAYER1
 10
2841.8191065992701
 20
4876.0199675578888
 30
0.0690747833899579
 11
2841.5202782905012
 21
4876.0088377314723
 31
0.2959365074005404
 12
2841.788244885417
 22
4876.0056870172293
 32
0.9712220448720216
 13
2842.1733622747411
 23
4876.0158019637474
 33
0.9618089700582856
  0
3DFACE
  5
4C8
  8
LAYER1
 10
2841.5202782905012
 20
4876.0088377314723
 30
0.2959365074005333
 11
2841.3313888888611
 21
4876.0009303299748
 31
0.5998040845074401
 12
2841.480267446731
 22
4875.9991798364372
 32
0.9749834496836982
 13
2841.7882448854139
 23
4876.0056870172293
 33
0.9712220448616407
  0
3DFACE
  5
4C9
  8
LAYER1
 10
2841.3313888888601
 20
4876.0009303299739
 30
0.599804084509124
 11
2841.255614688575
 21
4876.0009303299739
 31
0.9749834496833145
 12
2841.480267446731
 22
4875.9991798364372
 32
0.9749834496836982
 13
2841.3313888888611
 23
4876.0009303299748
 33
0.5998040845074401
  0
3DFACE
  5
4CA
  8
LAYER1
 10
2842.3070895975629
 20
4876.0061942562279
 30
-0.0000165503166798
 11
2842.3070895975629
 21
4876.0061942562279
 31
-0.0000165503166798
 12
2842.6939887912781
 22
4876.0016451471211
 32
0.9749834496836982
 13
2843.2056152728642
 23
4876.0016451482279
 33
0.9749839243347366
  0
3DFACE
  5
4CB
  8
LAYER1
 10
2842.3070895975629
 20
4876.0061942562279
 30
-0.0000165503166798
 11
2842.3070895975629
 21
4876.0061942562279
 31
-0.0000165503166798
 12
2843.1777346779022
 22
4876.0016451471211
 32
0.9749834496836982
 13
2843.126190153117
 23
4875.9992047531587
 33
0.5900244830777695
  0
3DFACE
  5
4CC
  8
LAYER1
 10
2842.3070895975629
 20
4876.0061942562279
 30
-0.0000165503168148
 11
2842.3070895975629
 21
4876.0061942562279
 31
-0.0000165503168148
 12
2843.1265925890639
 22
4875.9992238066316
 32
0.5930300656641379
 13
2842.6910688309208
 23
4876.0014888344494
 33
0.1040272743707007
  0
3DFACE
  5
4CD
  8
LAYER1
 10
2842.6910688309208
 20
4876.0014888344494
 30
0.1040272743707007
 11
2842.9218346682819
 21
4876.0033276248896
 31
0.2873325941681344
 12
2842.9761725528479
 22
4876.0026887275426
 32
0.4242660339334848
 13
2842.6910688309208
 23
4876.0014888344494
 33
0.1040272743707007
  0
3DFACE
  5
4CE
  8
LAYER1
 10
2842.9218346682819
 20
4876.0033276248896
 30
0.2873325941681344
 11
2843.126190153117
 21
4875.9992047531587
 31
0.5900244830777695
 12
2842.9761725528479
 22
4876.0026887275426
 32
0.4242660339334848
 13
2842.9218346682819
 23
4876.0033276248896
 33
0.2873325941681344
  0
3DFACE
  5
4CF
  8
LAYER1
 10
2843.1265925890639
 20
4875.9992238066316
 30
0.5930300656641379
 11
2843.2056152728642
 21
4876.0016451482279
 31
0.9749839243347366
 12
2843.157025807162
 22
4876.0005622799372
 32
0.880022793770145
 13
2843.1265925890639
 23
4875.9992238066316
 33
0.5930300656641379
  0
LINE
  5
4D0
  8
QUOTE
 10
2822.2570923925041
 20
4876.0150203866979
 30
1.974971905594316
 11
2822.6439915863202
 21
4876.0104712793709
 31
2.949971905594694
  0
3DFACE
  5
4D1
  8
LAYER1
 10
2822.2570923925041
 20
4876.0150203866979
 30
1.974971905594181
 11
2822.1806174836079
 21
4876.0104712793873
 31
1.974971905609656
 12
2822.1806174836079
 22
4876.0104712793818
 32
2.9499719055945799
 13
2822.6439915862188
 23
4876.0104712775919
 33
2.949971905594694
  0
3DFACE
  5
4D2
  8
LAYER1
 10
2822.1806174836079
 20
4876.0104712793873
 30
1.974971905594316
 11
2821.769109394193
 21
4876.0287936883597
 31
2.0440632393039939
 12
2822.1233637756168
 22
4876.0246284142313
 32
2.9367971281555252
 13
2822.1806120519868
 23
4876.0104712790526
 33
2.949972142918639
  0
3DFACE
  5
4D3
  8
LAYER1
 10
2821.7691093942108
 20
4876.0287936883587
 30
2.0440632393009528
 11
2821.4702810854419
 21
4876.0176638619432
 31
2.2709249633115358
 12
2821.7382476803591
 22
4876.0145131476993
 32
2.946210500783017
 13
2822.1233650696822
 23
4876.0246280942174
 33
2.9367974259692811
  0
3DFACE
  5
4D4
  8
LAYER1
 10
2821.4702810854419
 20
4876.0176638619432
 30
2.2709249633115292
 11
2821.2813916838031
 21
4876.0097564604448
 31
2.5747925404184349
 12
2821.4302702416721
 22
4876.0080059669071
 32
2.949971905594694
 13
2821.7382476803541
 23
4876.0145131476993
 33
2.946210500772636
  0
3DFACE
  5
4D5
  8
LAYER1
 10
2821.2813916838008
 20
4876.0097564604448
 30
2.5747925404201188
 11
2821.2056174835161
 21
4876.0097564604448
 31
2.9499719055943099
 12
2821.4302702416721
 22
4876.0080059669071
 32
2.949971905594694
 13
2821.2813916838031
 23
4876.0097564604448
 33
2.5747925404184349
  0
3DFACE
  5
4D6
  8
LAYER1
 10
2822.2570923925041
 20
4876.0150203866979
 30
1.974971905594316
 11
2822.2570923925041
 21
4876.0150203866979
 31
1.974971905594316
 12
2822.6439915862188
 22
4876.0104712775919
 32
2.949971905594694
 13
2823.1556180678049
 23
4876.0104712786979
 33
2.9499723802457321
  0
3DFACE
  5
4D7
  8
LAYER1
 10
2822.2570923925041
 20
4876.0150203866979
 30
1.974971905594316
 11
2822.2570923925041
 21
4876.0150203866979
 31
1.974971905594316
 12
2823.1277374728429
 22
4876.0104712775919
 32
2.949971905594694
 13
2823.0761929480591
 23
4876.0080308836277
 33
2.5650129389887648
  0
3DFACE
  5
4D8
  8
LAYER1
 10
2822.2570923925041
 20
4876.0150203866979
 30
1.974971905594181
 11
2822.2570923925041
 21
4876.0150203866979
 31
1.974971905594181
 12
2823.076595384005
 22
4876.0080499371034
 32
2.5680185215751332
 13
2822.641071625862
 23
4876.0103149649194
 33
2.0790157302816961
  0
3DFACE
  5
4D9
  8
LAYER1
 10
2822.641071625862
 20
4876.0103149649194
 30
2.0790157302816961
 11
2822.8718374632231
 21
4876.0121537553614
 31
2.2623210500791302
 12
2822.9261753477881
 22
4876.0115148580126
 32
2.3992544898444801
 13
2822.641071625862
 23
4876.0103149649194
 33
2.0790157302816961
  0
3DFACE
  5
4DA
  8
LAYER1
 10
2822.8718374632231
 20
4876.0121537553614
 30
2.2623210500791302
 11
2823.0761929480591
 21
4876.0080308836277
 31
2.5650129389887648
 12
2822.9261753477881
 22
4876.0115148580126
 32
2.3992544898444801
 13
2822.8718374632231
 23
4876.0121537553614
 33
2.2623210500791302
  0
LINE
  5
4DB
  8
QUOTE
 10
2842.3070895975629
 20
-1123.993805743062
 30
-0.0000165503166798
 11
2842.6939887913791
 21
-1123.998354850389
 31
0.9749834496836982
  0
3DFACE
  5
4DC
  8
LAYER1
 10
2842.3070895975629
 20
-1123.993805743062
 30
-0.0000165503168148
 11
2842.2306146886672
 21
-1123.9983548503719
 31
-0.0000165503013392
 12
2842.2306146886672
 22
-1123.998354850376
 32
0.9749834496835845
 13
2842.6939887912781
 23
-1123.998354852167
 33
0.9749834496836982
  0
3DFACE
  5
4DD
  8
LAYER1
 10
2842.2306146886672
 20
-1123.9983548503719
 30
-0.0000165503166798
 11
2841.8191065992519
 21
-1123.9800324414
 31
0.069074783392999
 12
2842.1733609806761
 22
-1123.984197715527
 32
0.9618086722445298
 13
2842.2306092570461
 23
-1123.998354850705
 33
0.9749836870076435
  0
3DFACE
  5
4DE
  8
LAYER1
 10
2841.8191065992701
 20
-1123.9800324414
 30
0.0690747833899579
 11
2841.5202782905012
 21
-1123.991162267816
 31
0.2959365074005404
 12
2841.788244885417
 22
-1123.994312982059
 32
0.9712220448720216
 13
2842.1733622747411
 23
-1123.984198035542
 33
0.9618089700582856
  0
3DFACE
  5
4DF
  8
LAYER1
 10
2841.5202782905012
 20
-1123.991162267816
 30
0.2959365074005333
 11
2841.3313888888611
 21
-1123.9990696693139
 31
0.5998040845074401
 12
2841.480267446731
 22
-1124.0008201628521
 32
0.9749834496836982
 13
2841.7882448854139
 23
-1123.994312982059
 33
0.9712220448616407
  0
3DFACE
  5
4E0
  8
LAYER1
 10
2841.3313888888601
 20
-1123.9990696693139
 30
0.599804084509124
 11
2841.255614688575
 21
-1123.9990696693139
 31
0.9749834496833145
 12
2841.480267446731
 22
-1124.0008201628521
 32
0.9749834496836982
 13
2841.3313888888611
 23
-1123.9990696693139
 33
0.5998040845074401
  0
3DFACE
  5
4E1
  8
LAYER1
 10
2842.3070895975629
 20
-1123.993805743062
 30
-0.0000165503166798
 11
2842.3070895975629
 21
-1123.993805743062
 31
-0.0000165503166798
 12
2842.6939887912781
 22
-1123.998354852167
 32
0.9749834496836982
 13
2843.2056152728642
 23
-1123.99835485106
 33
0.9749839243347366
  0
3DFACE
  5
4E2
  8
LAYER1
 10
2842.3070895975629
 20
-1123.993805743062
 30
-0.0000165503166798
 11
2842.3070895975629
 21
-1123.993805743062
 31
-0.0000165503166798
 12
2843.1777346779022
 22
-1123.998354852167
 32
0.9749834496836982
 13
2843.126190153117
 23
-1124.0007952461301
 33
0.5900244830777695
  0
3DFACE
  5
4E3
  8
LAYER1
 10
2842.3070895975629
 20
-1123.993805743062
 30
-0.0000165503168148
 11
2842.3070895975629
 21
-1123.993805743062
 31
-0.0000165503168148
 12
2843.1265925890639
 22
-1124.0007761926561
 32
0.5930300656641379
 13
2842.6910688309208
 23
-1123.9985111648391
 33
0.1040272743707007
  0
3DFACE
  5
4E4
  8
LAYER1
 10
2842.6910688309208
 20
-1123.9985111648391
 30
0.1040272743707007
 11
2842.9218346682819
 21
-1123.9966723743969
 31
0.2873325941681344
 12
2842.9761725528479
 22
-1123.997311271746
 32
0.4242660339334848
 13
2842.6910688309208
 23
-1123.9985111648391
 33
0.1040272743707007
  0
3DFACE
  5
4E5
  8
LAYER1
 10
2842.9218346682819
 20
-1123.9966723743969
 30
0.2873325941681344
 11
2843.126190153117
 21
-1124.0007952461301
 31
0.5900244830777695
 12
2842.9761725528479
 22
-1123.997311271746
 32
0.4242660339334848
 13
2842.9218346682819
 23
-1123.9966723743969
 33
0.2873325941681344
  0
LINE
  5
4E6
  8
QUOTE
 10
2822.2570895975632
 20
-1123.993805743062
 30
1.974982975032062
 11
2822.6439887913789
 21
-1123.998354850389
 31
2.94998297503244
  0
3DFACE
  5
4E7
  8
LAYER1
 10
2822.2570895975632
 20
-1123.993805743062
 30
1.974982975031927
 11
2822.180614688667
 21
-1123.9983548503719
 31
1.9749829750474031
 12
2822.180614688667
 22
-1123.998354850376
 32
2.9499829750323272
 13
2822.6439887912779
 23
-1123.998354852167
 33
2.94998297503244
  0
3DFACE
  5
4E8
  8
LAYER1
 10
2822.180614688667
 20
-1123.9983548503719
 30
1.974982975032062
 11
2821.7691065992522
 21
-1123.9800324414
 31
2.0440743087417408
 12
2822.1233609806759
 22
-1123.984197715527
 32
2.9368081975932721
 13
2822.1806092570459
 23
-1123.998354850705
 33
2.9499832123563858
  0
3DFACE
  5
4E9
  8
LAYER1
 10
2821.7691065992699
 20
-1123.9800324414
 30
2.0440743087387001
 11
2821.470278290501
 21
-1123.991162267816
 31
2.2709360327492831
 12
2821.7382448854182
 22
-1123.994312982059
 32
2.9462215702207639
 13
2822.1233622747409
 23
-1123.984198035542
 33
2.9368084954070279
  0
3DFACE
  5
4EA
  8
LAYER1
 10
2821.470278290501
 20
-1123.991162267816
 30
2.270936032749276
 11
2821.2813888888609
 21
-1123.9990696693139
 31
2.5748036098561822
 12
2821.4302674467308
 22
-1124.0008201628521
 32
2.94998297503244
 13
2821.7382448854132
 23
-1123.994312982059
 33
2.9462215702103829
  0
3DFACE
  5
4EB
  8
LAYER1
 10
2821.2813888888609
 20
-1123.9990696693139
 30
2.5748036098578662
 11
2821.2056146885761
 21
-1123.9990696693139
 31
2.9499829750320572
 12
2821.4302674467308
 22
-1124.0008201628521
 32
2.94998297503244
 13
2821.2813888888609
 23
-1123.9990696693139
 33
2.5748036098561822
  0
3DFACE
  5
4EC
  8
LAYER1
 10
2822.2570895975632
 20
-1123.993805743062
 30
1.974982975032062
 11
2822.2570895975632
 21
-1123.993805743062
 31
1.974982975032062
 12
2822.6439887912779
 22
-1123.998354852167
 32
2.94998297503244
 13
2823.1556152728631
 23
-1123.99835485106
 33
2.9499834496834789
  0
3DFACE
  5
4ED
  8
LAYER1
 10
2822.2570895975632
 20
-1123.993805743062
 30
1.974982975032062
 11
2822.2570895975632
 21
-1123.993805743062
 31
1.974982975032062
 12
2823.127734677902
 22
-1123.998354852167
 32
2.94998297503244
 13
2823.0761901531182
 23
-1124.0007952461301
 33
2.5650240084265121
  0
3DFACE
  5
4EE
  8
LAYER1
 10
2822.2570895975632
 20
-1123.993805743062
 30
1.974982975031927
 11
2822.2570895975632
 21
-1123.993805743062
 31
1.974982975031927
 12
2823.0765925890641
 22
-1124.0007761926561
 32
2.5680295910128801
 13
2822.6410688309211
 23
-1123.9985111648391
 33
2.0790267997194429
  0
3DFACE
  5
4EF
  8
LAYER1
 10
2822.6410688309211
 20
-1123.9985111648391
 30
2.0790267997194429
 11
2822.8718346682822
 21
-1123.9966723743969
 31
2.2623321195168771
 12
2822.9261725528481
 22
-1123.997311271746
 32
2.399265559282227
 13
2822.6410688309211
 23
-1123.9985111648391
 33
2.0790267997194429
  0
3DFACE
  5
4F0
  8
LAYER1
 10
2822.8718346682822
 20
-1123.9966723743969
 30
2.2623321195168771
 11
2823.0761901531182
 21
-1124.0007952461301
 31
2.5650240084265121
 12
2822.9261725528481
 22
-1123.997311271746
 32
2.399265559282227
 13
2822.8718346682822
 23
-1123.9966723743969
 33
2.2623321195168771
  0
3DFACE
  5
4F1
  8
LAYER1
 10
2802.491026563554
 20
-1123.9949901327659
 30
19.00383064923626
 11
2802.3582157044161
 21
-1123.994994769869
 31
19.004824431827501
 12
2802.1806146886679
 22
-1123.998354850374
 32
19.724982975041229
 13
2802.6439887912779
 23
-1123.998354852167
 33
19.72498297504135
  0
3DFACE
  5
4F2
  8
LAYER1
 10
2802.3582157044161
 20
-1123.994994769869
 30
19.004824431827451
 11
2802.0713713626751
 21
-1123.9954204992689
 31
19.09607006217988
 12
2801.7056146885761
 22
-1123.99835485106
 32
19.724983449683371
 13
2802.1804104165822
 23
-1123.998358715053
 33
19.725811282731868
  0
3DFACE
  5
4F3
  8
LAYER1
 10
2802.0713713626669
 20
-1123.9954204992689
 30
19.09607006218252
 11
2801.9554296557549
 21
-1123.99835485106
 31
19.177421412482449
 12
2801.7057402674759
 22
-1123.9983538435779
 32
19.724767518555229
 13
2801.7382448854132
 23
-1123.998354851062
 33
19.724983449683709
  0
3DFACE
  5
4F4
  8
LAYER1
 10
2802.491026581476
 20
-1123.99499013283
 30
19.003830668683719
 11
2802.491026581476
 21
-1123.99499013283
 31
19.003830668683719
 12
2802.6439887912779
 22
-1123.998354852167
 32
19.72498297504135
 13
2803.155615272864
 23
-1123.99835485106
 33
19.724983449692381
  0
3DFACE
  5
4F5
  8
LAYER1
 10
2802.4910265904268
 20
-1123.9949901328609
 30
19.003830678395669
 11
2802.9452014532399
 21
-1123.9968375510859
 31
19.215113371402708
 12
2803.155614688575
 22
-1123.9973112717421
 32
19.72498344968341
 13
2802.4910265904268
 23
-1123.9949901328609
 33
19.003830678395669
  0
3DFACE
  5
4F6
  8
LAYER1
 10
2802.4910265773301
 20
-1123.9949901327391
 30
19.003830649133182
 11
2802.7580712172312
 21
-1123.9960763733191
 31
19.128060160306919
 12
2802.7341407890131
 22
-1123.995795002646
 32
19.06775461331577
 13
2802.4910265904268
 23
-1123.9949901328609
 33
19.00383067839628
  0
3DFACE
  5
4F7
  8
LAYER1
 10
2802.7341407890108
 20
-1123.995795002646
 30
19.067754613314101
 11
2802.945201453239
 21
-1123.9968375510859
 31
19.215113371401081
 12
2802.7580712172312
 22
-1123.9960763733191
 32
19.128060160306919
 13
2802.7341407890108
 23
-1123.995795002646
 33
19.067754613314101
  0
3DFACE
  5
4F8
  8
LAYER1
 10
2802.9452014532339
 20
-1123.9968375510859
 30
19.215113371397528
 11
2803.027145035649
 21
-1123.997297114817
 31
19.313610638048761
 12
2803.1554334487432
 22
-1123.997310863703
 32
19.724544272141511
 13
2802.9452014532339
 23
-1123.9968375510859
 33
19.215113371397528
  0
3DFACE
  5
4F9
  8
LAYER1
 10
2803.0271450356531
 20
-1123.997297114817
 30
19.313610638053792
 11
2803.1554334487432
 21
-1123.997310863703
 31
19.724544272141511
 12
2803.0271450356531
 22
-1123.997297114817
 32
19.313610638053792
 13
2803.1554334487432
 23
-1123.997310863703
 33
19.724544272141511
  0
3DFACE
  5
4FA
  8
LAYER1
 10
2803.027145035649
 20
-1123.997297114817
 30
19.313610638048779
 11
2803.1476561469922
 21
-1123.998714067834
 31
19.617303009182901
 12
2803.1554334487432
 22
-1123.997310863703
 32
19.724544272141511
 13
2803.027145035649
 23
-1123.997297114817
 33
19.313610638048779
  0
LINE
  5
4FB
  8
LAYER1
 10
2801.9554296557549
 20
-1123.99835485106
 30
19.177421412482449
 11
2801.7057402674759
 21
-1123.9983538435779
 31
19.724767518554899
  0
3DFACE
  5
4FC
  8
LAYER1
 10
2841.3313888888611
 20
4876.0009303299739
 30
0.599804084506296
 11
2841.3324757197338
 21
-1123.9990241717489
 31
0.5980556927973311
 12
2841.2565273826599
 22
-1123.9990696693139
 32
0.9704644447205197
 13
2841.2565273826599
 23
-1123.9990696693139
 33
0.9704644447205197
  0
3DFACE
  5
4FD
  8
LAYER1
 10
2841.3324757200589
 20
-1124.0008200797879
 30
0.5980556922740236
 11
2841.5202782905012
 21
-1123.991162267816
 31
0.2959365074005475
 12
2841.5222444031851
 22
4876.0088146141907
 32
0.3008911826659286
 13
2841.3313888874331
 23
4876.0088144925166
 33
0.5998040868037933
  0
3DFACE
  5
4FE
  8
LAYER1
 10
2842.9218346682819
 20
-1123.9966723743969
 30
0.2873325941681344
 11
2843.126190153117
 21
-1124.0007952461301
 31
0.5900244830777695
 12
2841.7882448854139
 22
4876.0056870172293
 32
0.9712220448616407
 13
2841.4801718712069
 23
4875.9991809601997
 33
0.9747425958959681
  0
3DFACE
  5
4FF
  8
LAYER1
 10
2841.5222444016681
 20
4876.0041883944141
 30
0.3008911788456956
 11
2841.8191065992551
 21
4876.0199675578879
 31
0.0690747834012413
 12
2841.8191065992551
 22
-1123.980032442111
 32
0.0690747834012413
 13
2842.2306146885749
 23
-1123.99835485106
 33
-0.0000165503166798
  0
3DFACE
  5
500
  8
LAYER1
 10
2838.1056146885749
 20
4876.0016451489391
 30
35.999983449683349
 11
2840.655614688575
 21
4876.001645148941
 31
35.999983449683349
 12
2842.2056146698851
 22
-1123.998466991829
 32
33.999983412303102
 13
2841.3852008635872
 23
-1123.99835485106
 33
33.999983449683349
  0
3DFACE
  5
501
  8
LAYER1
 10
2838.1056146885749
 20
4876.0016451489391
 30
35.999983449683349
 11
2837.0449545167949
 21
4876.0016451489391
 31
35.560643621463171
 12
2837.0449545167949
 22
-1123.99835485106
 32
35.560643621463171
 13
2838.1390796398268
 23
-1123.9983553882039
 33
35.908536131346843
  0
3DFACE
  5
502
  8
LAYER1
 10
2836.6056146885749
 20
-1123.99835485106
 30
34.49998344968332
 11
2837.0449545167949
 21
-1123.99835485106
 31
35.560643621463171
 12
2837.0449545151491
 22
4876.0016451489391
 32
35.560643620781093
 13
2836.6056146885749
 23
4876.0016451489391
 33
34.499983449683413
  0
3DFACE
  5
503
  8
LAYER1
 10
2830.7056146885752
 20
4876.0016451489391
 30
35.999983449683349
 11
2832.3056146885751
 21
4876.0016451489419
 31
35.999983449683349
 12
2832.3056146885751
 22
-1123.9983548510629
 32
35.999983449683349
 13
2830.7056146885752
 23
-1123.9983548510629
 33
35.999983449683349
  0
3DFACE
  5
504
  8
LAYER1
 10
2832.3056146633421
 20
4876.0016451489464
 30
35.999983449683349
 11
2833.3662747318099
 21
4876.0013194130697
 31
35.560643552636911
 12
2833.3662748603551
 22
-1123.99835485106
 32
35.560643621463093
 13
2832.3056146885751
 23
-1123.998354851065
 33
35.999983449683349
  0
3DFACE
  5
505
  8
LAYER1
 10
2840.655614688575
 20
-1123.99835485106
 30
35.999983449683349
 11
2843.2056146607979
 21
-1123.998354851029
 31
35.999983591350343
 12
2843.2056146607979
 22
4876.0016451900983
 32
35.999983394127803
 13
2840.6556148588052
 23
4876.000986316345
 33
35.999983230031191
  0
3DFACE
  5
506
  8
LAYER1
 10
2830.7056146885752
 20
4876.0016451489391
 30
35.999983230032313
 11
2830.7056146885752
 21
4876.0016451489391
 31
34.999983449683462
 12
2830.7056146885752
 22
-1123.9983548510629
 32
34.999983449683349
 13
2830.7056146885752
 23
-1123.9983548510629
 33
35.999983449683349
  0
3DFACE
  5
507
  8
LAYER1
 10
2830.705614646909
 20
-1123.9985215177151
 30
34.999983477461122
 11
2830.998507907389
 21
-1123.9985215177151
 31
34.292876668496831
 12
2830.998507907389
 22
4876.0016451489391
 32
34.292876668496802
 13
2830.7056146885752
 23
4876.0016451489391
 33
34.999983449683349
  0
3DFACE
  5
508
  8
LAYER1
 10
2841.255614688575
 20
4876.0016451489391
 30
13.99998344968335
 11
2838.7056146885761
 21
4876.0016451489391
 31
13.99998344968335
 12
2838.7056146885761
 22
-1123.99835485106
 32
13.99998344968335
 13
2841.255614688575
 23
-1123.99835485106
 33
13.99998344968335
  0
3DFACE
  5
509
  8
LAYER1
 10
2838.7056146885761
 20
-1123.99835485106
 30
13.99998344968337
 11
2838.7056146885761
 21
-1123.99835485106
 31
12.99998344968332
 12
2841.255614688575
 22
-1123.99835485106
 32
11.999983452597959
 13
2841.2556143949482
 23
-1123.99835485106
 33
13.99998344968334
  0
3DFACE
  5
50A
  8
LAYER1
 10
2843.2056152728642
 20
-1123.99835485106
 30
0.9749839243347366
 11
2841.2565273826622
 21
-1123.9990696693139
 31
0.970464444709485
 12
2841.255614688575
 22
-1123.99835485106
 32
11.99998344968332
 13
2843.2056146885752
 23
-1124.010099354861
 33
11.99998344968332
  0
3DFACE
  5
50B
  8
LAYER1
 10
2838.7056146885761
 20
-1123.99835485106
 30
13.99998344968337
 11
2838.7056146885761
 21
-1123.99835485106
 31
12.99998344968332
 12
2838.7056146885761
 22
4876.0016451489391
 32
12.99998344968332
 13
2838.7056146885761
 23
4876.0016451489391
 33
13.99998344968335
  0
3DFACE
  5
50C
  8
LAYER1
 10
2838.7056146885761
 20
4876.0016451489391
 30
12.99998344968332
 11
2841.2556144192308
 21
4876.0024738988532
 31
11.99998344968332
 12
2841.255612845202
 22
4876.0016451489391
 32
13.99998344968335
 13
2838.7056146885761
 23
4876.0016451489391
 33
13.99998344968335
  0
3DFACE
  5
50D
  8
LAYER1
 10
2843.2056146885752
 20
4876.0016451482225
 30
16.998752412032101
 11
2843.2056201716359
 21
4876.0016451482279
 31
0.9749839243392771
 12
2843.2056331627291
 22
-1123.998354851062
 32
0.9749839243513278
 13
2843.2056146885752
 23
-1123.989975269368
 33
14.734017840724221
  0
3DFACE
  5
50E
  8
LAYER1
 10
2841.2565273826622
 20
-1123.9990696693139
 30
0.9704644447205197
 11
2841.2560721856012
 21
-1124.0045845120881
 31
6.4852180749444983
 12
2841.255607304196
 22
4876.0016451486854
 32
6.48521835218689
 13
2841.2556017351271
 23
4876.0009304309078
 33
0.9749834496833145
  0
3DFACE
  5
50F
  8
LAYER1
 10
2841.2565273826622
 20
-1123.9990696693139
 30
0.9704644447093713
 11
2841.255614688575
 21
-1123.99835485106
 31
6.4874834496833307
 12
2841.255607304196
 22
4876.0016451486854
 32
6.4852183526911631
 13
2841.2556017351908
 23
4876.0009304391133
 33
0.9750467105041877
  0
3DFACE
  5
510
  8
LAYER1
 10
2843.205620169852
 20
4876.0016422680137
 30
0.9769067380202116
 11
2843.126190153117
 21
4875.9992047531587
 31
0.5900244830777695
 12
2843.1261895733819
 22
-1123.9981954251109
 32
0.590024648251827
 13
2842.9218346682819
 23
-1123.9966723743969
 33
0.2873325941681344
  0
3DFACE
  5
511
  8
LAYER1
 10
2843.1198445363052
 20
4875.9992589012218
 30
0.5854534029136076
 11
2842.9249109215448
 21
4876.0032655614832
 31
0.2918891487020048
 12
2842.9172228464972
 22
-1123.996709122358
 32
0.2836692639417109
 13
2843.1265925890639
 23
-1124.0007761926561
 33
0.5930300656641379
  0
3DFACE
  5
512
  8
LAYER1
 10
2842.9251841830842
 20
-1123.996863773719
 30
0.2954327854481278
 11
2842.7452054956689
 21
-1123.998079792575
 31
0.1470299075069619
 12
2842.9249109215448
 22
4876.0032655614832
 32
0.2918891487029214
 13
2843.1198445317982
 23
4876.0032661514269
 33
0.5854533978534207
  0
3DFACE
  5
513
  8
LAYER1
 10
2841.2560721850768
 20
-1123.9978266951341
 30
6.4852180749448101
 11
2841.2556143949482
 21
-1123.9968554776181
 31
11.99998494905679
 12
2841.255614688575
 22
4876.0016451489391
 32
11.99998494905679
 13
2841.255614688575
 23
4876.0016451489391
 33
6.4874834496833307
  0
3DFACE
  5
514
  8
LAYER1
 10
2841.8191004392929
 20
4876.0199676303209
 30
0.069059260077367
 11
2842.2306146885749
 21
4876.0016451489173
 31
0.0000000000000142
 12
2842.2306146885749
 22
-1123.9983548503669
 32
-0.0000165503166443
 13
2841.8191065992551
 23
-1123.9983548503651
 33
0.0690747834012413
  0
3DFACE
  5
515
  8
LAYER1
 10
2836.6056146885749
 20
4876.0016451489391
 30
30.999983449683349
 11
2836.6056146885749
 21
4876.0016451489391
 31
34.4999834496994
 12
2838.2056146885752
 22
-1123.99835485106
 32
31.492366608862351
 13
2838.2056146885752
 23
-1123.99835485106
 33
30.249983449683349
  0
3DFACE
  5
516
  8
LAYER1
 10
2836.6056146885749
 20
-1123.99835485106
 30
30.999983449683349
 11
2836.605614688574
 21
-1123.99835485106
 31
34.499983449681459
 12
2836.605614688584
 22
4876.0016451170441
 32
34.499983449683413
 13
2836.6056146885749
 23
4876.0016451170441
 33
30.999983449683349
  0
3DFACE
  5
517
  8
LAYER1
 10
2833.3662748192128
 20
4876.0013194130443
 30
35.560643516433529
 11
2833.8056146885751
 21
4876.0016451489391
 31
34.499983449683349
 12
2833.8056146885751
 22
-1123.99835485106
 32
34.499983449683349
 13
2833.3662748603551
 23
-1123.99835485106
 33
35.560643621463171
  0
3DFACE
  5
518
  8
LAYER1
 10
2832.2056146885761
 20
-1123.99835485106
 30
30.749983449683349
 11
2832.2056146885761
 21
-1123.99835485106
 31
33.999983449683349
 12
2832.2056146885761
 22
4876.0016451489391
 32
33.999983449683349
 13
2832.2056146885761
 23
4876.0016451489391
 33
30.749983449683349
  0
3DFACE
  5
519
  8
LAYER1
 10
2832.6075384772221
 20
4876.0016451489346
 30
25.999983449683398
 11
2832.2056146885761
 21
4876.0016451489391
 31
27.499983449683349
 12
2832.2056147410972
 22
-1123.9983548892801
 32
27.499983449683349
 13
2832.6075384772221
 23
-1123.998354889279
 33
25.999983449683359
  0
3DFACE
  5
51A
  8
LAYER1
 10
2832.2056147410972
 20
-1123.9983548846089
 30
27.499983449683349
 11
2832.205615074668
 21
-1124.0002739510351
 31
30.749982316488971
 12
2838.1056146885749
 22
4876.001645148941
 32
35.999983449683349
 13
2840.655614518334
 23
4876.0023040226833
 33
35.999983669349227
  0
3DFACE
  5
51B
  8
LAYER1
 10
2841.255614688575
 20
-1123.99835485106
 30
16.499983449683349
 11
2823.155614688575
 21
-1123.998354851062
 31
16.499983449683349
 12
2823.155614688575
 22
4876.0016451489391
 32
16.499983450138089
 13
2841.255955320571
 23
4876.0016451482243
 33
16.50007079122064
  0
3DFACE
  5
51C
  8
LAYER1
 10
2833.5162748603552
 20
4876.0016451489391
 30
18.439323277903519
 11
2833.9556146885752
 21
4876.0016451864694
 31
19.499983449683349
 12
2833.9556146885752
 22
-1123.99835485106
 32
19.499983449683349
 13
2833.5162748603552
 23
-1123.99835485106
 33
18.439323277903519
  0
3DFACE
  5
51D
  8
LAYER1
 10
2833.516274860353
 20
-1123.99835485106
 30
18.439323277898641
 11
2832.455614688573
 21
-1123.99835485106
 31
17.999983449683349
 12
2832.4556146885752
 22
4876.001645148941
 32
17.999983449683349
 13
2833.5162748603552
 23
4876.0016451489391
 33
18.439323277903519
  0
3DFACE
  5
51E
  8
LAYER1
 10
2823.155614688575
 20
4876.0016451489382
 30
16.499983449683349
 11
2828.1656214608411
 21
4876.001205634313
 31
16.499983559562018
 12
2832.455587711484
 22
-1123.998258126958
 32
16.499983449683342
 13
2832.4556146885752
 23
-1123.99835485106
 33
17.999983449684098
  0
3DFACE
  5
51F
  8
LAYER1
 10
2835.2056146885761
 20
4876.0016451489391
 30
26.099983449683371
 11
2833.8179949504879
 21
4876.0016451489391
 31
27.249812285505872
 12
2833.8179949504879
 22
-1123.99835485106
 32
27.249812285505911
 13
2835.2056146885761
 23
-1123.99835485106
 33
26.099983449683371
  0
3DFACE
  5
520
  8
LAYER1
 10
2835.2056146885679
 20
-1123.99835485106
 30
26.099983449690232
 11
2836.5942941516232
 21
-1123.9983548510579
 31
27.271226422696579
 12
2836.4556146885761
 22
4875.7822205394177
 32
24.468894536437851
 13
2835.2056146885761
 23
4876.0016451489282
 33
26.099983449683371
  0
3DFACE
  5
521
  8
LAYER1
 10
2828.1656205307859
 20
4875.9906039807656
 30
16.4999862099754
 11
2832.2060621404271
 21
4876.0016453507178
 31
16.501690171261021
 12
2832.2060621404271
 22
-1123.978592406628
 32
16.501632531386619
 13
2827.3311041351931
 23
-1123.978592406628
 33
16.501632531386608
  0
3DFACE
  5
522
  8
LAYER1
 10
2823.15563338738
 20
4875.9895814038191
 30
16.49998344982907
 11
2828.1656214608411
 21
4876.0012056343121
 31
16.499983559562018
 12
2832.4555877806411
 22
-1123.9983548510579
 32
16.499983449683331
 13
2832.4556146885752
 23
-1123.998354851062
 33
17.999983449684098
  0
3DFACE
  5
523
  8
LAYER1
 10
2823.155614688575
 20
4876.0016451489391
 30
11.99998344968332
 11
2825.7056146885752
 21
4876.0018118156013
 31
12.999983421905521
 12
2825.705614759408
 22
4876.0018118155713
 32
13.99998344968335
 13
2823.155614688575
 23
4876.002478482128
 33
13.99998310246119
  0
3DFACE
  5
524
  8
LAYER1
 10
2825.7056146885752
 20
4876.0016451489391
 30
12.99998344968332
 11
2825.7055873865829
 21
4876.0018118227272
 31
13.999983449679631
 12
2825.7055873865829
 22
-1123.998354851062
 32
13.99998344968335
 13
2825.7056146885752
 23
-1123.99835485106
 33
12.99998344968332
  0
3DFACE
  5
525
  8
LAYER1
 10
2823.155614688575
 20
4876.0016451489391
 30
11.99998344968332
 11
2824.4306146885751
 21
4876.0016451489391
 31
12.49998344968332
 12
2824.4306146885751
 22
-1123.99835485106
 32
12.499983449683389
 13
2825.7056146885752
 23
-1123.99835485106
 33
12.999983449683331
  0
3DFACE
  5
526
  8
LAYER1
 10
2824.4306147550042
 20
-1123.9986674552099
 30
12.499983475733609
 11
2823.155614688575
 21
-1123.9987946424631
 31
11.999983561555039
 12
2823.155614688575
 22
4876.0016451489391
 32
11.999983561555039
 13
2825.7056146885752
 23
4876.0018118156013
 33
12.999983421905521
  0
3DFACE
  5
527
  8
LAYER1
 10
2823.1556149542889
 20
4876.0010199407352
 30
11.999983553884761
 11
2823.155614688575
 21
4876.0006317022862
 31
10.473736370341349
 12
2823.155614688575
 22
-1123.99835485106
 32
10.473736370341349
 13
2823.155614688575
 23
-1123.997966612661
 33
11.999983350925341
  0
3DFACE
  5
528
  8
LAYER1
 10
2823.155614688575
 20
4876.0006317022198
 30
10.47373611254632
 11
2823.155614688575
 21
4876.0006317022198
 31
7.4749834496833278
 12
2823.155614688575
 22
-1123.998354851062
 32
7.4749834496833278
 13
2823.155614688575
 23
-1123.998354851125
 33
10.47373611254632
  0
3DFACE
  5
529
  8
LAYER1
 10
2823.1556146904918
 20
-1123.9972040091679
 30
11.99838785535918
 11
2823.155614802014
 21
-1123.999071309358
 31
2.9499835631225721
 12
2823.1556180678049
 22
4876.0104712786979
 32
2.9499723802457321
 13
2823.155614688575
 23
4876.0123851338076
 33
10.473733380567429
  0
3DFACE
  5
52A
  8
LAYER1
 10
2823.1556149542889
 20
4876.000394732152
 30
11.999983553884739
 11
2823.1556125705379
 21
4875.9949566092437
 31
2.9499918382268708
 12
2823.1556255616242
 22
-1123.99835485106
 32
2.9499834496930291
 13
2823.155614688575
 23
-1123.997203806267
 33
11.99998315688681
  0
3DFACE
  5
52B
  8
LAYER1
 10
2825.7055873865829
 20
4876.0018118227272
 30
13.999983449679631
 11
2823.155614688575
 21
4876.002478482128
 31
13.99998310246119
 12
2823.155614688575
 22
-1123.99835485106
 32
13.99998344968335
 13
2825.705587384683
 23
-1123.998354851062
 33
14.00005306901639
  0
3DFACE
  5
52C
  8
LAYER1
 10
2821.2056146885761
 20
-1123.9990696693139
 30
2.9499829750320572
 11
2821.255614688575
 21
-1123.9990696693139
 31
10.474983449683339
 12
2821.255614688575
 22
4876.0016451489391
 32
10.474983449683339
 13
2821.205584088465
 23
4876.0097554645126
 33
2.9500580332928541
  0
3DFACE
  5
52D
  8
LAYER1
 10
2821.2056174835161
 20
4876.0097564604448
 30
2.9499719055943099
 11
2823.1556180678049
 21
4876.0104712804196
 31
2.9499723802457321
 12
2823.155614688575
 22
4876.0123851338076
 32
10.473733380567429
 13
2821.255614688575
 23
4876.0016451489391
 33
10.47373338056744
  0
3DFACE
  5
52E
  8
LAYER1
 10
2821.255614688575
 20
4876.0016451489391
 30
10.47373338056744
 11
2823.155614688575
 21
4876.0123851338076
 31
10.473733380567429
 12
2823.1555452199409
 22
4876.0016452965592
 32
17.999983449252792
 13
2821.255614688575
 23
4876.0016452965592
 33
17.999983449683349
  0
3DFACE
  5
52F
  8
LAYER1
 10
2822.7057282816272
 20
4876.0026011494219
 30
17.999980661348602
 11
2821.2556146885759
 21
4876.0016451489391
 31
17.999980661348591
 12
2821.255614688575
 22
4876.0016451489391
 32
33.999983449683349
 13
2822.7056146885761
 23
4876.0016451489391
 33
33.999983449683363
  0
3DFACE
  5
530
  8
LAYER1
 10
2822.7056146885761
 20
4876.0016451489391
 30
33.999983449683363
 11
2822.7056146885761
 21
4876.0016451489391
 31
35.999983449683349
 12
2820.2056146829691
 22
4876.0016451489391
 32
35.999983449683349
 13
2820.2056146829691
 23
4876.0016451489391
 33
33.999983449683349
  0
3DFACE
  5
531
  8
LAYER1
 10
2820.2056146829691
 20
4876.0016451489391
 30
33.99998344968337
 11
2819.7056146826321
 21
4876.0016451489391
 31
33.99998344968337
 12
2819.7056146826321
 22
4876.0016451489391
 32
35.499983449683349
 13
2820.2056146829691
 23
4876.0016451489391
 33
35.999983449683349
  0
3DFACE
  5
532
  8
LAYER1
 10
2819.7056146826321
 20
4876.0016451489391
 30
33.99998344968337
 11
2819.7056146826321
 21
4876.001645148941
 31
35.499983449683349
 12
2804.7056146826321
 22
4876.0016451489391
 32
35.499983449683349
 13
2804.7056146826321
 23
4876.0016451489391
 33
33.999983449683349
  0
3DFACE
  5
533
  8
LAYER1
 10
2804.7056146826321
 20
4876.0016451489391
 30
35.499983449683349
 11
2804.2056146829691
 21
4876.0016451489391
 31
35.99998344968332
 12
2804.2056146829691
 22
4876.0016451489391
 32
33.999983449683349
 13
2804.7056146826321
 23
4876.0016451489391
 33
33.999983449683349
  0
3DFACE
  5
534
  8
LAYER1
 10
2804.2056146829691
 20
4876.0016451489391
 30
33.999983449683349
 11
2802.4306146885751
 21
4876.00164514894
 31
33.999983449683363
 12
2802.4306146885751
 22
4876.0016451489391
 32
35.999983449683349
 13
2804.2056146829691
 23
4876.0016451489391
 33
35.99998344968332
  0
3DFACE
  5
535
  8
LAYER1
 10
2803.155614688575
 20
4876.0016451489391
 30
29.499983449683349
 11
2805.7056146885752
 21
4876.0018118156013
 31
30.499983421905561
 12
2805.7056146885752
 22
4876.0018118156013
 32
31.499983449683349
 13
2803.155614688575
 23
4876.0016451489391
 33
31.499983449683349
  0
3DFACE
  5
536
  8
LAYER1
 10
2802.4306146885751
 20
4876.0016451489391
 30
35.999983449683349
 11
2801.7056146885761
 21
4876.0016451489391
 31
35.999983449683349
 12
2801.7056146885761
 22
4876.0016451489391
 32
19.725091711897669
 13
2802.4306146885751
 23
4876.0016451489482
 33
18.999983449699439
  0
3DFACE
  5
537
  8
LAYER1
 10
2803.155614688575
 20
4876.0016451489391
 30
33.999983449683349
 11
2803.1729883186449
 21
4875.9799098252024
 31
19.706047273274649
 12
2802.430614688592
 22
4876.0016451489491
 32
18.999983449683288
 13
2802.4306146885751
 23
4876.00164514894
 33
33.999983449683363
  0
3DFACE
  5
538
  8
LAYER1
 10
2800.505614688575
 20
4876.0016451489391
 30
35.199983449683387
 11
2801.7056146885761
 21
4876.0016451489391
 31
33.999983449683349
 12
2801.7056146885761
 22
4876.0016451489391
 32
37.999983449683349
 13
2800.505614688575
 23
4876.0016451489391
 33
37.999983449683349
  0
3DFACE
  5
539
  8
LAYER1
 10
2822.7056146885761
 20
4876.0016451489391
 30
35.999983449683349
 11
2821.4556146857722
 21
4876.0016451489391
 31
35.999983449683349
 12
2821.4556146857722
 22
-1123.99835485106
 32
35.999983449683349
 13
2822.7056146885761
 23
-1123.99835485106
 33
35.999983449683349
  0
3DFACE
  5
53A
  8
LAYER1
 10
2825.7056146885752
 20
-1123.9983548510579
 30
12.99998344968332
 11
2825.7055873865829
 21
-1123.9983548510579
 31
13.99998344968334
 12
2823.155614688575
 22
-1123.99835485106
 32
13.99998344968335
 13
2823.155614688575
 23
-1123.9987946424631
 33
11.999983561555039
  0
3DFACE
  5
53B
  8
LAYER1
 10
2823.155614802014
 20
-1123.999071309358
 30
2.9499835631225721
 11
2823.1556246854761
 21
-1123.99835485106
 31
16.499983449683349
 12
2821.255614688575
 22
-1123.99835485106
 32
16.499983449683359
 13
2821.2256907960168
 23
-1124.007369533497
 33
2.9777516396106369
  0
3DFACE
  5
53C
  8
LAYER1
 10
2821.255614688575
 20
-1123.99835485106
 30
16.499983449683359
 11
2821.255614688575
 21
-1123.99835485106
 31
17.999983449683349
 12
2832.4555877806411
 22
-1123.980994893853
 32
17.999979109694799
 13
2832.4555877806411
 23
-1123.9983548510579
 33
16.499983449683331
  0
3DFACE
  5
53D
  8
LAYER1
 10
2843.2056123701059
 20
-1123.9912211018129
 30
11.99998344968329
 11
2843.2056146885752
 21
-1123.99835485106
 31
16.999983447687409
 12
2841.255614688575
 22
-1123.9983550271579
 32
16.499983449683342
 13
2841.255614514615
 23
-1123.996855731494
 33
11.99854338237283
  0
3DFACE
  5
53E
  8
LAYER1
 10
2838.1537901574111
 20
-1123.99835485106
 30
17.999983449683349
 11
2838.1537901574111
 21
-1123.998354851062
 31
16.499983449683349
 12
2841.255614688575
 22
-1123.9983550271579
 32
16.499983449683342
 13
2841.9250690885988
 23
-1123.998454210958
 33
17.999983449684411
  0
3DFACE
  5
53F
  8
LAYER1
 10
2801.7056222431811
 20
-1123.967094411056
 30
37.999949584206647
 11
2800.5056209886629
 21
-1123.9668544108049
 31
37.999983449683349
 12
2800.505614688575
 22
4876.0016451489391
 32
37.999983449683349
 13
2801.7056146885761
 23
4876.0016451489391
 33
37.999983449683349
  0
3DFACE
  5
540
  8
LAYER1
 10
2801.7056146885761
 20
4876.0016451489391
 30
35.999983449683349
 11
2801.7056146885752
 21
4876.0016451489391
 31
37.999983449683349
 12
2801.7055896403649
 22
-1123.9670944045361
 32
37.999949585126743
 13
2801.7056146885761
 23
-1123.9670944045361
 33
35.999983449683349
  0
3DFACE
  5
541
  8
LAYER1
 10
2804.2056146829691
 20
-1123.99835485106
 30
35.999983449683349
 11
2801.705614478426
 21
-1123.9670944045361
 31
36.016762738484033
 12
2801.7056146885761
 22
4876.0016451489391
 32
35.999983449683349
 13
2804.2056146829691
 23
4876.0016451489391
 33
35.999983449683349
  0
3DFACE
  5
542
  8
LAYER1
 10
2804.7056146826321
 20
-1123.99835485106
 30
35.499983449683363
 11
2804.2056146829691
 21
-1123.99835485106
 31
35.999983449683349
 12
2804.2056146829691
 22
4876.0016451489391
 32
35.999983449683349
 13
2804.7056146826321
 23
4876.0016451489391
 33
35.499983449683349
  0
3DFACE
  5
543
  8
LAYER1
 10
2800.505614688575
 20
4876.0016451489391
 30
35.199983449683387
 11
2801.7056146885761
 21
4876.0016451489391
 31
33.999983449683292
 12
2801.7056146885761
 22
-1123.99835485106
 32
26.86248344968336
 13
2801.7056146885761
 23
-1123.99835485106
 33
33.999983449683349
  0
3DFACE
  5
544
  8
LAYER1
 10
2801.7056146885761
 20
-1123.99835485106
 30
33.999983449683349
 11
2801.7057402674759
 21
-1123.9983538435779
 31
19.724767518555229
 12
2801.7056146885761
 22
4876.0016451489391
 32
19.724767518555229
 13
2801.7056146885761
 23
4876.0016451489882
 33
33.999983449683349
  0
3DFACE
  5
545
  8
LAYER1
 10
2803.155614688575
 20
4876.0016451489391
 30
31.499983449683349
 11
2805.7056142279821
 21
4876.0005613991352
 31
31.499983449683349
 12
2805.7056146885752
 22
-1123.99835485106
 32
31.499983449683349
 13
2803.1558118943958
 23
-1123.998354851062
 33
31.499983449683349
  0
3DFACE
  5
546
  8
LAYER1
 10
2805.7056146885752
 20
-1123.99835485106
 30
30.499983449683349
 11
2805.7056146885752
 21
-1123.99835485106
 31
31.499983449683349
 12
2805.7056146885752
 22
4876.0018118156013
 32
31.499983449683349
 13
2805.7056146885752
 23
4876.0018118156013
 33
30.499983421905561
  0
3DFACE
  5
547
  8
LAYER1
 10
2803.155614688575
 20
-1123.9983548481
 30
19.724982815674011
 11
2803.155614688575
 21
-1123.99835485106
 31
24.61248344968336
 12
2803.155614688575
 22
4876.0016451489391
 32
24.61248344968336
 13
2803.155614688575
 23
4876.0016451489391
 33
19.724983449684
  0
3DFACE
  5
548
  8
LAYER1
 10
2803.155614688575
 20
4876.0016451489391
 30
24.61248344968336
 11
2803.155614688575
 21
4876.0016451489391
 31
29.499983449683349
 12
2803.155614688575
 22
-1123.99835485106
 32
29.499983449683381
 13
2803.155614688575
 23
-1123.99835485106
 33
24.61248344968336
  0
3DFACE
  5
549
  8
LAYER1
 10
2804.7056146826321
 20
4876.0016451489391
 30
35.499983449683349
 11
2812.2056146826321
 21
4876.0016451489391
 31
35.499983449683349
 12
2812.2056146826321
 22
-1123.99835485106
 32
35.499983449683349
 13
2804.7056146826321
 23
-1123.99835485106
 33
35.499983449683363
  0
3DFACE
  5
54A
  8
LAYER1
 10
2812.2056146826321
 20
-1123.99835485106
 30
35.499983449683349
 11
2819.7061453472079
 21
-1123.9983548510629
 31
35.499480846608463
 12
2819.705542698694
 22
4876.001645148941
 32
35.499983449683349
 13
2812.2056146826321
 23
4876.001645148941
 33
35.499983449683349
  0
3DFACE
  5
54B
  8
LAYER1
 10
2821.255614688575
 20
4876.0016451489391
 30
33.999983449683363
 11
2803.155614688575
 21
4876.0016451489391
 31
33.999983449683349
 12
2803.155614688575
 22
-1123.99835485106
 32
33.999983449683349
 13
2821.255614688575
 23
-1123.99835485106
 33
33.999983449683349
  0
3DFACE
  5
54C
  8
LAYER1
 10
2818.7056146885752
 20
4876.0016451489391
 30
30.499983449683349
 11
2818.7056146885752
 21
4876.0016451489391
 31
31.499983449683349
 12
2818.7056146885752
 22
-1123.998354851062
 32
31.499983449683349
 13
2818.7056146885752
 23
-1123.998354851062
 33
30.499983449683349
  0
3DFACE
  5
54D
  8
LAYER1
 10
2821.255614688575
 20
-1123.99835485106
 30
29.499983449683409
 11
2818.7056146885752
 21
-1123.99835485106
 31
30.499983449683349
 12
2818.7056146885752
 22
4876.0016451489391
 32
30.499983449683349
 13
2821.255614688575
 23
4876.0016451489391
 33
29.499983449683409
  0
3DFACE
  5
54E
  8
LAYER1
 10
2818.7056146885752
 20
4876.0016451489391
 30
31.49998344968332
 11
2821.2556146885759
 21
4876.0016451489391
 31
31.499983449683551
 12
2821.2556146885759
 22
-1123.99835485106
 32
31.499983449683551
 13
2818.7056146885752
 23
-1123.99835485106
 33
31.499983449683551
  0
3DFACE
  5
54F
  8
LAYER1
 10
2820.2056146829691
 20
-1123.99835485106
 30
33.999983449683349
 11
2820.2056146829691
 21
-1123.99835485106
 31
35.999983449683349
 12
2822.7056146885761
 22
-1123.998354851062
 32
35.999983449683349
 13
2822.7056146885761
 23
-1123.99835485106
 33
33.980687747451967
  0
3DFACE
  5
550
  8
LAYER1
 10
2822.7056083629668
 20
-1124.002349900554
 30
17.99998444841664
 11
2821.255614688575
 21
-1123.99835485106
 31
17.999983449683349
 12
2821.255614688575
 22
-1123.99835485106
 32
33.99187925472107
 13
2822.7056146885761
 23
-1123.99835485106
 33
33.980687747451967
  0
3DFACE
  5
551
  8
LAYER1
 10
2832.4555877806411
 20
-1123.9811746414571
 30
17.98444792948392
 11
2833.5162748603479
 21
-1123.99835485106
 31
18.43932327789658
 12
2833.5162748603479
 22
-1123.99835485106
 32
16.499983449683349
 13
2832.4555877806411
 23
-1123.9983548510579
 33
16.499983449683349
  0
3DFACE
  5
552
  8
LAYER1
 10
2833.5162748603479
 20
-1123.99835485106
 30
16.499983449683349
 11
2838.1537901574161
 21
-1123.9983548510561
 31
16.499983449683349
 12
2838.1537901261099
 22
-1123.99835485106
 32
17.999983449683349
 13
2833.5162748603479
 23
-1123.99835485106
 33
18.43932327788665
  0
3DFACE
  5
553
  8
LAYER1
 10
2837.9556146885761
 20
-1123.99835485106
 30
17.999983449683349
 11
2836.8949545167952
 21
-1123.997979851104
 31
18.439323277903441
 12
2836.9015106359761
 22
-1123.99835485106
 32
18.118619448602772
 13
2837.9556146885761
 23
-1123.99835485106
 33
17.999983449683349
  0
3DFACE
  5
554
  8
LAYER1
 10
2836.9015106359761
 20
-1123.99835485106
 30
18.1186194486028
 11
2835.0866589005909
 21
-1123.99835485106
 31
18.290551313824871
 12
2836.4556147046601
 22
-1123.9981351811541
 32
19.49998341085028
 13
2836.9015106359761
 23
-1123.99835485106
 33
18.118619448602772
  0
3DFACE
  5
555
  8
LAYER1
 10
2836.4556147046601
 20
-1123.9981351811541
 30
19.499983410850302
 11
2833.50546511938
 21
-1123.9981797630271
 31
18.434687523598392
 12
2833.5162748603479
 22
-1123.99835485106
 32
18.439323277903519
 13
2835.0866589005909
 23
-1123.99835485106
 33
18.290551313824871
  0
3DFACE
  5
556
  8
LAYER1
 10
2836.4556147008561
 20
-1123.9981351811541
 30
19.49998340748941
 11
2833.9556146885752
 21
-1123.99835485106
 31
19.499983449683349
 12
2833.9556146885752
 22
-1123.99835485106
 32
24.46889453643783
 13
2836.4556146508462
 23
-1123.998135486446
 33
24.46920165548422
  0
3DFACE
  5
557
  8
LAYER1
 10
2822.7056182471888
 20
-1123.9961073456841
 30
17.9999828878071
 11
2822.7056146885761
 21
-1123.9961073456841
 31
35.999983449683349
 12
2822.705614690758
 22
4876.0016451489391
 32
35.999983449683349
 13
2822.7049668940572
 23
4875.9818861580516
 33
17.999980661356279
  0
3DFACE
  5
558
  8
LAYER1
 10
2821.255614688575
 20
-1123.99835485106
 30
29.499983449683409
 11
2818.7056146885752
 21
-1123.998354851062
 31
30.499983449683349
 12
2818.7056146885752
 22
-1123.998354851062
 32
31.499983449683551
 13
2821.2556146885759
 23
-1123.998354851062
 33
31.499983449683551
  0
3DFACE
  5
559
  8
LAYER1
 10
2821.255614688575
 20
-1123.99835485106
 30
17.999983449683349
 11
2821.255614688575
 21
-1123.99835485106
 31
29.499983449683409
 12
2821.255614688575
 22
4876.0016451489391
 32
29.499983449683409
 13
2821.2558386058108
 23
4876.0016452965592
 33
17.999980661348591
  0
3DFACE
  5
55A
  8
LAYER1
 10
2822.7056083649632
 20
-1124.002348639787
 30
18.005027676593588
 11
2832.4556146885752
 21
-1124.002348639787
 31
17.999983449683349
 12
2832.4555766373851
 22
4876.0016418486384
 32
17.999754993352848
 13
2822.7052493438541
 23
4875.9818823067953
 33
17.99998066135629
  0
3DFACE
  5
55B
  8
LAYER1
 10
2841.255614990529
 20
-1123.9983550271579
 30
16.499983527107361
 11
2823.155614688575
 21
-1123.998354851062
 31
16.499983449683349
 12
2823.155614405468
 22
4876.0016451489391
 32
16.499983450136721
 13
2841.255614688243
 23
4876.0016451482225
 33
16.499532789114479
  0
3DFACE
  5
55C
  8
LAYER1
 10
2832.2056146885761
 20
4876.0016451489391
 30
27.499983449683349
 11
2832.2056416844798
 21
4876.0016451470055
 31
33.999976899378417
 12
2832.2056626448261
 22
-1123.9983548529931
 32
33.999983449683349
 13
2832.2056147410972
 23
-1124.0002739510351
 33
27.499983449683349
  0
3DFACE
  5
55D
  8
LAYER1
 10
2837.8036908999279
 20
4876.0016451489391
 30
25.999983449683398
 11
2836.7056146885752
 21
4876.0016451489391
 31
24.901907238330121
 12
2836.70561469106
 22
-1123.998354851062
 32
24.901907240814889
 13
2836.5226019866832
 23
-1123.998354851062
 33
24.718894536437851
  0
3DFACE
  5
55E
  8
LAYER1
 10
2837.8036908999279
 20
-1123.99835485106
 30
25.999983449683398
 11
2838.2056146885752
 21
-1123.99835485106
 31
27.499983449683551
 12
2838.2056146884711
 22
4876.0016451889633
 32
27.499983449683551
 13
2837.8036909866428
 23
4876.0020512778401
 33
25.999983536397931
  0
3DFACE
  5
55F
  8
LAYER1
 10
2836.6056146885749
 20
4875.9996034829674
 30
30.99998225871154
 11
2836.585558552365
 21
4876.001645148941
 31
27.263858625092961
 12
2836.6056146885749
 22
-1123.99835485106
 32
27.499983449683349
 13
2836.6056146885749
 23
-1123.99835485106
 33
30.999983449683349
  0
3DFACE
  5
560
  8
LAYER1
 10
2833.815898315966
 20
-1123.998371499948
 30
27.2421290356931
 11
2833.8056146885751
 21
-1123.99835485106
 31
34.499983449683349
 12
2833.8056146885751
 22
4876.0016451489391
 32
34.499983449683349
 13
2833.817994950487
 23
4876.0016451489391
 33
27.249812285505939
  0
3DFACE
  5
561
  8
LAYER1
 10
2832.6075384772198
 20
4876.0016451489346
 30
25.999983449687999
 11
2833.7056146885752
 21
4876.0016451489391
 31
24.901907238330089
 12
2832.2056147410908
 22
-1123.99835485106
 32
27.499926632659029
 13
2832.6075384772221
 23
-1123.998354889279
 33
25.999983449683398
  0
3DFACE
  5
562
  8
LAYER1
 10
2832.2056146885761
 20
-1123.99835485106
 30
33.999983449683349
 11
2830.998507907389
 21
-1123.9985215177151
 31
34.292876668496831
 12
2830.998507907389
 22
4876.001645148941
 32
34.292876668496802
 13
2832.2056146009281
 23
4876.0012945567396
 33
33.999983508115328
  0
3DFACE
  5
563
  8
LAYER1
 10
2821.2558386058108
 20
4876.0016452965592
 30
17.999980661348591
 11
2822.7052493438541
 21
4875.9818823067953
 31
17.99998066135629
 12
2822.7052493438541
 22
4876.0016451489391
 32
33.999983449683363
 13
2821.255614688575
 23
4876.0016451489391
 33
33.999983449683363
  0
3DFACE
  5
564
  8
LAYER1
 10
2818.7056146885752
 20
4876.0016451489391
 30
30.499983449683349
 11
2821.255614688575
 21
4876.0016451489391
 31
29.499983449683409
 12
2821.255649672913
 22
4876.001645172003
 32
31.50017808261763
 13
2818.7056146885752
 23
4876.001645172003
 33
31.499983449683349
  0
3DFACE
  5
565
  8
LAYER1
 10
2822.8439472173459
 20
-1123.987809425779
 30
2.2377414128225221
 11
2823.048302702181
 21
-1123.991932297512
 31
2.5404333017321572
 12
2821.7382476803859
 22
4876.0145131477002
 32
2.9462105007722448
 13
2821.402291235705
 23
4875.979679038287
 33
2.9251481648321578
  0
3DFACE
  5
566
  8
LAYER1
 10
2821.4702810854419
 20
4876.0176638619432
 30
2.2709249633115292
 11
2821.7691093942108
 21
4876.0287936883587
 31
2.0440632393009461
 12
2821.769100772714
 22
-1123.9800323728859
 32
2.0440596256550299
 13
2822.180614688667
 23
-1123.9983548503719
 33
1.9749829750474031
  0
3DFACE
  5
567
  8
LAYER1
 10
2821.2056146885761
 20
-1123.9990696693139
 30
2.9499829750320572
 11
2821.2556136554058
 21
-1123.9983548482151
 31
17.99998344968375
 12
2821.2558386057722
 22
4876.0016452965592
 32
17.999983449683299
 13
2821.2056174835161
 23
4876.0097564604448
 33
2.9499719055943099
  0
3DFACE
  5
568
  8
LAYER1
 10
2823.127732718915
 20
4876.0105052166318
 30
2.927315556674599
 11
2823.048302702181
 21
4876.0080677017768
 31
2.5404333017321572
 12
2823.048302122445
 22
-1123.989332476493
 32
2.5404334669062152
 13
2822.8439472173459
 23
-1123.987809425779
 33
2.2377414128225221
  0
3DFACE
  5
569
  8
LAYER1
 10
2822.8472967321468
 20
-1123.9880008251009
 30
2.2458416041025151
 11
2822.6673180447328
 21
-1123.9892168439569
 31
2.0974387261613501
 12
2822.8470234706101
 22
4876.0121285101022
 32
2.2422979673573091
 13
2823.0419570808608
 23
4876.0121291000451
 33
2.535862216507808
  0
3DFACE
  5
56A
  8
LAYER1
 10
2821.7691093942108
 20
4876.0287936883587
 30
2.0440632393009461
 11
2822.246781971055
 21
4876.0105070595009
 31
1.9751784055065751
 12
2822.180614688667
 22
-1123.9983548503719
 32
1.9749829750474031
 13
2821.769100772714
 23
-1123.9800323728859
 33
2.0440596256550299
  0
3DFACE
  5
56B
  8
LAYER1
 10
2802.4306162156158
 20
4876.0016451485808
 30
18.999984976708109
 11
2802.0370084623992
 21
4875.9813596724534
 31
19.16794551462927
 12
2801.7236815784008
 22
4875.9788459485271
 32
19.70670662540418
 13
2802.430614688591
 23
4876.0016451489491
 33
19.706706150761921
  0
3DFACE
  5
56C
  8
LAYER1
 10
2802.430614688597
 20
4876.0016451489491
 30
18.999983449688649
 11
2802.430614688597
 21
4876.0016451489491
 31
18.999983449688649
 12
2802.430614688591
 22
4876.0016451489491
 32
19.706706150761921
 13
2803.1736821626901
 23
4875.9788459485271
 33
19.70670662541319
  0
3DFACE
  5
56D
  8
LAYER1
 10
2802.430614688597
 20
4876.0016451489491
 30
18.999983449688649
 11
2802.963268343065
 21
4875.9803632484982
 31
19.19683654712351
 12
2803.1736815784002
 22
4875.9798895278418
 32
19.70670662540422
 13
2802.430614688597
 23
4876.0016451489491
 33
18.999983449688649
  0
3DFACE
  5
56E
  8
LAYER1
 10
2803.0523759935431
 20
4876.0124649262052
 30
19.295333813769592
 11
2803.1657230368178
 21
4875.9784867317521
 31
19.59902618490371
 12
2803.1735003385679
 22
4875.979889935883
 32
19.706267447862309
 13
2803.0523759935431
 23
4876.0124649262052
 33
19.295333813769592
  0
3DFACE
  5
56F
  8
LAYER1
 10
2801.7056146885761
 20
4876.0016451489391
 30
19.724767518555229
 11
2802.0370084623992
 21
4875.9813596724534
 31
19.16794551462927
 12
2801.955429655754
 22
-1123.99835485106
 32
19.177421412483572
 13
2801.7056146885739
 23
-1123.99835485106
 33
19.724983449683371
  0
3DFACE
  5
570
  8
LAYER1
 10
2801.9554295834719
 20
-1123.998354852888
 30
19.177421463200339
 11
2802.0713713625978
 21
-1123.9954204992689
 31
19.09607006231289
 12
2802.0442302782958
 22
4876.0220745156748
 32
19.16794551462927
 13
2801.7056435042441
 23
4876.0016433850569
 33
19.724719101234879
  0
3DFACE
  5
571
  8
LAYER1
 10
2802.0442302782958
 20
4876.0220745156748
 30
19.16794551462927
 11
2802.4306162156231
 21
4876.0016451485808
 31
18.999981922424009
 12
2802.4246211339851
 22
-1123.9949924513171
 32
19.004327540531872
 13
2802.071371360164
 23
-1123.9949955734489
 33
19.096070067403179
  0
3DFACE
  5
572
  8
LAYER1
 10
2802.4306146885751
 20
4876.0016451489482
 30
18.999983449699439
 11
2802.963268343065
 21
4875.9803632484982
 31
19.19683654712351
 12
2802.9452014532339
 22
-1123.9968375510859
 32
19.21511337139756
 13
2802.733628949286
 23
-1123.9957933081159
 33
19.067620031257061
  0
3DFACE
  5
573
  8
LAYER1
 10
2802.4306146885751
 20
-1123.99835485106
 30
18.999983449683288
 11
2802.7341407890108
 21
-1123.995795002646
 31
19.067754613314101
 12
2802.7219959064432
 22
4875.9900031635443
 32
19.107669363013962
 13
2802.4306146885428
 23
4876.0016451489491
 33
18.999983449687701
  0
3DFACE
  5
574
  8
LAYER1
 10
2833.517535613666
 20
-1123.99818048004
 30
18.439037934725231
 11
2833.9556146885752
 21
-1123.99835485106
 31
19.499983449683349
 12
2836.4556147046601
 22
-1123.9981351811541
 32
19.499983410850309
 13
2833.517535613666
 23
-1123.99818048004
 33
18.439037934725231
  0
3DFACE
  5
575
  8
LAYER1
 10
2833.8299903638608
 20
-1123.99835485106
 30
27.239872478644049
 11
2832.2056147410972
 21
-1124.0002739510351
 31
27.499983449683349
 12
2832.2056416845071
 22
-1123.99835485106
 32
33.999983449683391
 13
2833.8056146885751
 23
-1123.99835485106
 33
34.499983449683391
  0
3DFACE
  5
576
  8
LAYER1
 10
2830.7056146885752
 20
-1123.9983548510629
 30
35.999983449683349
 11
2832.3056146885619
 21
-1123.998354851065
 31
35.999983449688877
 12
2832.2056416844798
 22
-1123.9983548529931
 32
33.99997689937846
 13
2830.9988203433159
 23
-1123.998521474578
 33
34.292800858828592
  0
3DFACE
  5
577
  8
LAYER1
 10
2830.9983405864709
 20
-1123.9985215177151
 30
34.29328061688468
 11
2830.7056146885752
 21
-1123.9983548510629
 31
34.999983449683349
 12
2830.7056146885752
 22
-1123.9983548510629
 32
35.999983449683349
 13
2830.998507907389
 23
-1123.9983548510629
 33
34.292876668496831
  0
3DFACE
  5
578
  8
LAYER1
 10
2833.9556146885752
 20
-1123.99835485106
 30
24.46889453643783
 11
2835.2056146697109
 21
-1123.9982451687531
 31
24.469048095961021
 12
2835.2056146885611
 22
-1123.99835485106
 32
26.099983449683371
 13
2833.8179949504879
 23
-1123.99835485106
 33
27.249812285505911
  0
3DFACE
  5
579
  8
LAYER1
 10
2836.5942941516232
 20
-1123.9983548510579
 30
27.271226422696579
 11
2836.4556146885761
 21
-1123.9983548510579
 31
24.468894536437851
 12
2835.2056146697091
 22
-1123.9982451584281
 32
24.468894558262441
 13
2835.2056146885611
 23
-1123.99835485106
 33
26.099983449697131
  0
3DFACE
  5
57A
  8
LAYER1
 10
2836.585558552365
 20
-1123.9983548510579
 30
27.263858625074381
 11
2838.2056146885752
 21
-1123.99835485106
 31
27.499983449683349
 12
2838.2056145357978
 22
-1123.9992715176891
 32
32.999983296905583
 13
2836.605614688574
 23
-1123.999271517687
 33
34.499983449681423
  0
3DFACE
  5
57B
  8
LAYER1
 10
2838.4985079073872
 20
-1123.99835485106
 30
33.707090230866811
 11
2837.0449545167949
 21
-1123.9983548510579
 31
35.560643621463171
 12
2836.605614688574
 22
-1123.99835485106
 32
34.499983449681459
 13
2838.2056146885611
 23
-1123.998354851049
 33
32.999983449648482
  0
3DFACE
  5
57C
  8
LAYER1
 10
2839.2210723853891
 20
-1123.9983555554909
 30
33.999949566673763
 11
2838.1380803657912
 21
-1123.9983570312461
 31
35.908428015679682
 12
2837.0449545167971
 22
-1123.99835485106
 32
35.56064362146148
 13
2838.4985079073881
 23
-1123.998354851049
 33
33.70709023086993
  0
3DFACE
  5
57D
  8
LAYER1
 10
2843.205614798429
 20
-1123.9983547297261
 30
35.99998386661288
 11
2838.9842943450199
 21
-1123.998354851062
 31
35.999983449683803
 12
2838.1390796398232
 22
-1123.998357028672
 32
35.908536131321839
 13
2839.2210723853891
 23
-1123.9983555554909
 33
33.999949566673749
  0
3DFACE
  5
57E
  8
LAYER1
 10
2843.205614798429
 20
-1123.9983547297261
 30
35.999983866612901
 11
2840.7054805492899
 21
-1123.9984109109021
 31
34.000044712749492
 12
2839.2056146348641
 22
-1123.99835485106
 32
33.999983449683349
 13
2842.2059106199808
 23
-1123.998466991829
 33
34.000105998858992
  0
3DFACE
  5
57F
  8
LAYER1
 10
2842.2059106199808
 20
-1123.998466991829
 30
34.000105998858992
 11
2842.2056146698851
 21
-1123.998466991829
 31
33.999983412303102
 12
2843.2056146607979
 22
-1123.998354729742
 32
35.999983591350343
 13
2842.2056146698851
 23
-1123.998466991829
 33
33.999983412303102
  0
3DFACE
  5
580
  8
LAYER1
 10
2842.2056146698851
 20
-1123.998466991829
 30
33.999983412303102
 11
2842.9127214697619
 21
-1123.9984669918269
 31
34.292876668496852
 12
2843.2056146885752
 22
-1123.9984669918249
 32
34.999983449677437
 13
2843.205614660797
 23
-1123.9984669917931
 33
35.99998359135035
  0
3DFACE
  5
581
  8
LAYER1
 10
2838.4983484742652
 20
4876.0016450276062
 30
33.707089758371502
 11
2837.0447950836742
 21
4876.0016450276062
 31
35.560643148967863
 12
2836.6054552554529
 22
4876.0016450276062
 32
34.499982977186157
 13
2838.2054552554391
 23
4876.0016450276162
 33
32.999982977153167
  0
3DFACE
  5
582
  8
LAYER1
 10
2843.205455365307
 20
4876.0016451489391
 30
35.999983394117578
 11
2838.9841349118979
 21
4876.0016450276062
 31
35.999982977188502
 12
2837.7947950836751
 22
4876.0016450276062
 32
35.871303320748481
 13
2839.2936173241019
 23
4876.0015017758542
 33
34.000260380730118
  0
3DFACE
  5
583
  8
LAYER1
 10
2843.205455365307
 20
4876.0016451489391
 30
35.999983394117592
 11
2840.7056146885752
 21
4876.001645148941
 31
33.999983449683349
 12
2839.2054552017421
 22
4876.0016450276062
 32
33.99998297718804
 13
2842.2057511868588
 23
4876.0015328868376
 33
34.000105526363683
  0
3DFACE
  5
584
  8
LAYER1
 10
2842.2054552367631
 20
4876.0015328868376
 30
33.999982939807794
 11
2842.9125620366399
 21
4876.0015328868403
 31
34.292876196001551
 12
2843.2054552554532
 22
4876.0015328868412
 32
34.999982977182142
 13
2843.205455227675
 23
4876.001532886874
 33
35.999983118855042
  0
3DFACE
  5
585
  8
LAYER1
 10
2836.89469916401
 20
4876.001425506689
 30
18.438501819044529
 11
2835.78879028751
 21
4876.0015598534283
 31
18.348006170072772
 12
2836.456225288593
 22
4876.0016449915438
 32
19.498509330839632
 13
2836.8946991640109
 23
4876.001425506689
 33
18.4385018190445
  0
3DFACE
  5
586
  8
LAYER1
 10
2836.4556161220639
 20
4876.0016449916147
 30
19.4979720457554
 11
2833.5165716991301
 21
4876.0018202257588
 31
18.439430188845439
 12
2833.5162748603479
 22
4876.0016451489391
 32
18.43932327790348
 13
2835.78879028751
 23
4876.0015598534283
 33
18.348006170072772
  0
3DFACE
  5
587
  8
LAYER1
 10
2836.4562249565338
 20
4876.0018645135533
 30
19.50121215772106
 11
2833.9556146885752
 21
4876.0016451489391
 31
19.499983449683299
 12
2833.9556146885752
 22
4876.0016451489391
 32
24.46889453643778
 13
2836.4556146508462
 23
4876.0018645135533
 33
24.46920165548417
  0
3DFACE
  5
588
  8
LAYER1
 10
2833.8179949504879
 20
4876.0016451489391
 30
27.249812285505872
 11
2832.2056147410972
 21
4875.9997260489627
 31
27.49998344968331
 12
2832.2056416845071
 22
4876.0016451489391
 32
33.999983449683349
 13
2833.8056146885751
 23
4876.0016451489391
 33
34.499983449683349
  0
3DFACE
  5
589
  8
LAYER1
 10
2830.7056146885752
 20
4876.0016451489346
 30
35.999983449683313
 11
2832.3056146885619
 21
4876.0016451489328
 31
35.999983449688841
 12
2832.2056416844798
 22
4876.0016451470055
 32
33.999976899378417
 13
2830.9988203433159
 23
4876.0014785254198
 33
34.292800858828549
  0
3DFACE
  5
58A
  8
LAYER1
 10
2833.9556146885752
 20
4876.0016451489391
 30
24.46889453643778
 11
2835.2056146697109
 21
4876.0017548312462
 31
24.469048095960979
 12
2835.2056146885611
 22
4876.0016451489391
 32
26.099983449683329
 13
2833.8179992572718
 23
4876.00164514894
 33
27.249808716758508
  0
3DFACE
  5
58B
  8
LAYER1
 10
2836.5855585523659
 20
4876.0016448297874
 30
27.263858625105541
 11
2836.4556146885761
 21
4876.001645148941
 31
24.468894536437809
 12
2835.2056146697091
 22
4876.0017548415708
 32
24.468894558262392
 13
2835.2056146885611
 23
4876.0016451489391
 33
26.099983449697088
  0
3DFACE
  5
58C
  8
LAYER1
 10
2836.585558552365
 20
4876.001645148941
 30
27.263858625074342
 11
2838.2056146885752
 21
4876.0016451489391
 31
27.49998344968331
 12
2838.2056145357978
 22
4876.0007284823096
 32
32.999983296905533
 13
2836.605614688574
 23
4876.0007284823123
 33
34.499983449681373
  0
3DFACE
  5
58D
  8
LAYER1
 10
2823.1556326146542
 20
4876.0016451489391
 30
16.499983449683349
 11
2832.2060621404271
 21
4875.9824153902036
 31
16.501690171076291
 12
2832.4556146885752
 22
4876.0016451489382
 32
17.999983449683349
 13
2823.1555452207331
 23
4876.0016454190518
 33
17.999897608764581
  0
3DFACE
  5
58E
  8
LAYER1
 10
2832.6075384772248
 20
4876.0016451489346
 30
25.999983449683398
 11
2833.8886273904682
 21
4876.0016451489391
 31
24.718894536437858
 12
2833.8179949504879
 22
4876.0016451489391
 32
27.249812285505872
 13
2832.2105671782342
 23
4875.9997318999631
 33
27.499190416831262
  0
3DFACE
  5
58F
  8
LAYER1
 10
2841.255614688575
 20
4876.0016451489391
 30
0.9749834496833429
 11
2843.2052241371562
 21
4876.0016301147289
 31
0.9749777692442621
 12
2843.205614696843
 22
4876.0016451516603
 32
16.999983449684368
 13
2841.255614688243
 23
4876.0016451482225
 33
16.499532789114511
  0
3DFACE
  5
590
  8
LAYER1
 10
2837.8036909866428
 20
4876.0016451489391
 30
25.99998353639792
 11
2836.4915055905972
 21
4876.0016451489391
 31
24.654912667741641
 12
2836.5855585523659
 22
4876.0016448297874
 32
27.263858625105541
 13
2838.2056146884711
 23
4876.0016451489973
 33
27.499983449683551
  0
3DFACE
  5
591
  8
LAYER1
 10
2822.1806142855812
 20
-1123.998354832424
 30
1.974983042709354
 11
2822.6410688309211
 21
-1123.9985111648391
 31
2.0790267997194429
 12
2822.641071625862
 22
4876.0103149649194
 32
2.0790157302816961
 13
2822.2467819706558
 23
4876.0104709003499
 33
1.975178405505396
  0
3DFACE
  5
592
  8
LAYER1
 10
2821.4683385187509
 20
4876.0175915112668
 30
2.2723997032067791
 11
2821.2056174835161
 21
4876.0097564604448
 31
2.9499719055943099
 12
2821.2301350390248
 22
-1123.9992607318029
 32
2.9499829750320989
 13
2821.2813888888609
 23
-1123.9990696693139
 33
2.5748036098550382
  0
3DFACE
  5
593
  8
LAYER1
 10
2821.2813888888609
 20
-1123.9990696693139
 30
2.5748036098550382
 11
2821.470278290501
 21
-1123.991162267816
 31
2.270936032749276
 12
2821.4702810854419
 22
4876.0176638619414
 32
2.2709249633115292
 13
2821.7688466560958
 23
4876.0287839027069
 33
2.044262702403862
  0
3DFACE
  5
594
  8
LAYER1
 10
2821.2556136554058
 20
-1123.9983548482151
 30
17.999983449682642
 11
2821.255614688575
 21
-1123.99835485106
 31
16.49998344967825
 12
2821.2556136554058
 22
-1123.9983548482151
 32
17.999983449682642
 13
2832.4555894732521
 23
-1123.9809948912309
 33
17.999979109694141
  0
3DFACE
  5
595
  8
LAYER1
 10
2822.6957483110109
 20
-1123.996122640209
 30
17.999982891630729
 11
2821.2556136554072
 21
-1123.998354848213
 31
17.999981899699971
 12
2821.255614688575
 22
-1123.99835485106
 32
33.99187925472107
 13
2822.7056146885761
 23
-1123.99835485106
 33
33.980687747451967
  0
3DFACE
  5
596
  8
LAYER1
 10
2803.155614688575
 20
-1123.9973112717421
 30
19.72498344968341
 11
2801.7056146885739
 21
-1123.9973112717439
 31
19.724983449645809
 12
2801.7056146885761
 22
-1123.99835485106
 32
33.999983449683349
 13
2803.155614688575
 23
-1123.99835485106
 33
33.99998344968337
  0
3DFACE
  5
597
  8
LAYER1
 10
2803.155614688575
 20
-1123.9980258768439
 30
29.499983449683381
 11
2803.155614688575
 21
-1123.998354851062
 31
31.499983449683349
 12
2805.7056146885752
 22
-1123.9983548508669
 32
31.499983449683349
 13
2805.7056146885752
 23
-1123.9983548508701
 33
30.499983449683349
  0
3DFACE
  5
598
  8
LAYER1
 10
2812.2056146885761
 20
-1123.99835485106
 30
33.999983449683349
 11
2812.2056146885761
 21
-1123.99835485106
 31
35.499983449683427
 12
2819.7066469126789
 22
-1123.998354851062
 32
35.49998344968332
 13
2819.605667855245
 23
-1123.99835485106
 33
33.999983449683349
  0
3DFACE
  5
599
  8
LAYER1
 10
2832.2060621404271
 20
4875.9800006760688
 30
16.501690171053092
 11
2834.7193620962548
 21
4876.0016451484807
 31
16.500039249652449
 12
2835.7887902875082
 22
4876.0015598534283
 32
18.348006170072839
 13
2832.4556146885861
 23
4876.0016451489382
 33
17.999983449684521
  0
3DFACE
  5
59A
  8
LAYER1
 10
2835.78879028751
 20
4876.0015598534283
 30
18.348006170072772
 11
2833.5162748603602
 21
4876.0016451489391
 31
18.43932327790861
 12
2832.4556146885752
 22
4876.0016451489382
 32
17.999983449683349
 13
2835.78879028751
 23
4876.0015598534283
 33
18.348006170072772
  0
3DFACE
  5
59B
  8
LAYER1
 10
2841.2556017351271
 20
4876.0009304309078
 30
0.9749834496820781
 11
2843.205620169852
 21
4876.0016422680146
 31
0.9769067380202116
 12
2843.2056146972618
 22
4876.0016451482225
 32
16.998752414256071
 13
2841.2556146882789
 23
4876.0016562811543
 33
16.499532789222549
  0
3DFACE
  5
59C
  8
LAYER1
 10
2819.7056146826321
 20
4876.0016451489391
 30
33.99998344968337
 11
2819.705542698694
 21
4876.001645148941
 31
35.499983449683349
 12
2804.7056146826321
 22
4876.001645148941
 32
35.499983449683349
 13
2804.7056146826321
 23
4876.0016451489391
 33
33.999983449683349
  0
3DFACE
  5
59D
  8
LAYER1
 10
2801.7056146885761
 20
4876.0016451489391
 30
19.724767518555229
 11
2803.1301815802199
 21
4875.9801806570586
 31
19.706706597626201
 12
2803.155614688575
 22
4876.0016451489391
 32
33.999983449683349
 13
2801.7056146885761
 23
4876.0016451489391
 33
33.999983449683413
  0
3DFACE
  5
59E
  8
LAYER1
 10
2833.9531716918332
 20
-1123.99835485106
 30
24.51826080538444
 11
2832.6075384772221
 21
-1123.99835485106
 31
25.999983449683398
 12
2832.2085721726271
 22
-1124.0002704570111
 32
27.49950987671394
 13
2833.8299903715711
 23
-1124.000252614059
 33
27.239872396370409
  0
3DFACE
  5
59F
  8
LAYER1
 10
2803.155614688575
 20
-1123.9980258808159
 30
29.500037775249961
 11
2805.7056146885752
 21
-1123.9980258808109
 31
30.499983449683349
 12
2803.155614688575
 22
4876.0016451489391
 32
29.499983449683349
 13
2805.7056146885752
 23
4876.0018118156013
 33
30.499983421905561
  0
3DFACE
  5
5A0
  8
LAYER1
 10
2803.1558118943958
 20
-1123.998354850992
 30
31.499983449683349
 11
2803.155614688575
 21
-1123.997271101186
 31
33.999983449683349
 12
2803.155614688575
 22
4876.0016451489391
 32
33.999983449683363
 13
2803.155614688575
 23
4876.0016451489391
 33
31.499983449683349
  0
3DFACE
  5
5A1
  8
LAYER1
 10
2803.1556146889129
 20
-1123.997271101186
 30
33.998151865299249
 11
2820.2056146829691
 21
-1123.99835485106
 31
33.999983449683349
 12
2819.70554271434
 22
4876.0016451489391
 32
33.99998344968337
 13
2804.7056146826321
 23
4876.0016451489391
 33
33.999983492166862
  0
3DFACE
  5
5A2
  8
LAYER1
 10
2830.7056146885739
 20
-1123.99835485106
 30
35.999983449683349
 11
2832.3056115898039
 21
-1124.0005815134141
 31
35.999983449683349
 12
2832.3056143924141
 22
4876.0016451489346
 32
35.999977525105663
 13
2831.795880077284
 23
4876.0016451489346
 33
35.999983449687079
  0
3DFACE
  5
5A3
  8
LAYER1
 10
2830.7056146885752
 20
4876.0016451489391
 30
35.999983230032313
 11
2832.3056146885801
 21
4876.0016451216079
 31
35.999983449688841
 12
2831.7958800738729
 22
-1123.998354851065
 32
35.999983449687122
 13
2830.7056146885752
 23
-1123.998354851065
 33
35.999983449683349
  0
3DFACE
  5
5A4
  8
LAYER1
 10
2832.305608491039
 20
-1124.000581509101
 30
35.999983449683349
 11
2833.3662748603551
 21
-1123.99835485106
 31
35.560643621463171
 12
2833.3662748603551
 22
4876.0016451489391
 32
35.560643621463171
 13
2832.3056146633421
 23
4876.0016451489464
 33
35.999983449683349
  0
3DFACE
  5
5A5
  8
LAYER1
 10
2841.2565273826622
 20
-1123.9990696693139
 30
0.9704644447205197
 11
2841.255614688575
 21
-1123.99835485106
 31
11.999983452597959
 12
2841.255611370505
 22
4876.0016451484307
 32
11.99998475088738
 13
2841.2556017351399
 23
4876.0008490890241
 33
0.9749834496220515
  0
3DFACE
  5
5A6
  8
LAYER1
 10
2841.2556128452011
 20
4876.001645148338
 30
13.999984900376999
 11
2841.255614686605
 21
4876.0011371965866
 31
16.499532784185678
 12
2841.255614990529
 22
-1123.9983550271579
 32
16.499983527107361
 13
2841.256071876252
 23
-1123.998354851062
 33
13.99998344968334
  0
3DFACE
  5
5A7
  8
LAYER1
 10
2800.505614688575
 20
-1123.99835485106
 30
35.199983449683387
 11
2800.505614688575
 21
-1123.966854409545
 31
37.999983449861148
 12
2800.505614688575
 22
4876.0016451489391
 32
37.999983449683349
 13
2800.505614688575
 23
4876.0016451489391
 33
35.199983449683387
  0
3DFACE
  5
5A8
  8
LAYER1
 10
2837.0446827612541
 20
4876.0016450276062
 30
35.560371978660079
 11
2838.1056132843478
 21
4876.000217120758
 31
35.999982200158868
 12
2839.2221316287141
 22
-1123.9983555566091
 32
34.00037886603387
 13
2838.4981814450161
 23
-1123.998354792252
 33
33.706970030129717
  0
3DFACE
  5
5A9
  8
LAYER1
 10
2838.1390796398218
 20
-1123.99835485106
 30
35.908536131346381
 11
2837.0449545168158
 21
-1123.99835485106
 31
35.560643621469438
 12
2837.044682798562
 22
4876.0014910237969
 32
35.560371931088262
 13
2838.1056132843478
 23
4876.000217120758
 33
35.999982200158811
  0
3DFACE
  5
5AA
  8
LAYER1
 10
2838.1390796398268
 20
-1123.99835485106
 30
35.908536131322172
 11
2840.6555602450312
 21
-1123.99835485106
 31
35.999983449680322
 12
2840.6556148588052
 22
4876.0009861924491
 32
35.999983230031191
 13
2838.1472969714318
 23
4876.0016450276062
 33
35.909441976105491
  0
3DFACE
  5
5AB
  8
LAYER1
 10
2819.70554271434
 20
4876.001645148941
 30
35.499657428311338
 11
2820.2056146829691
 21
4876.0016451489391
 31
35.999983449683349
 12
2820.2056146807859
 22
-1123.99835485106
 32
35.999983449683349
 13
2819.7056138414969
 23
-1123.9987506792411
 33
35.499984604182231
  0
3DFACE
  5
5AC
  8
LAYER1
 10
2819.7056137033628
 20
-1123.998815683751
 30
35.499984793778687
 11
2812.2056146826321
 21
-1123.998815683751
 31
35.499983449683349
 12
2812.2055786984852
 22
4876.001645148941
 32
35.499820438997361
 13
2819.7057294246561
 23
4876.001645148941
 33
35.499844233483572
  0
3DFACE
  5
5AD
  8
LAYER1
 10
2819.7056146826321
 20
4876.0016451489391
 30
33.999983449683363
 11
2819.7055427455812
 21
4876.0012703059601
 31
35.49965733462097
 12
2819.7054156548938
 22
-1123.99835485106
 32
35.499784421945627
 13
2819.605667855245
 23
-1123.99835485106
 33
33.999983449683349
  0
3DFACE
  5
5AE
  8
LAYER1
 10
2838.4983484742652
 20
4876.0016450276062
 30
33.707089758371502
 11
2839.297275269299
 21
4876.0016411053712
 31
34.00218114692457
 12
2837.7947950836751
 22
4876.0016450276062
 32
35.871303320748481
 13
2837.0446827612541
 23
4876.0016450276062
 33
35.560371978660079
  0
3DFACE
  5
5AF
  8
LAYER1
 10
2830.9987627727601
 20
4876.001478558137
 30
34.29313606195177
 11
2830.7056147263002
 21
4876.001645148941
 31
35.999983230032321
 12
2830.7056146885752
 22
4876.001645148941
 32
34.999983449683462
 13
2830.9987627727601
 23
4876.001478558137
 33
34.29313606195177
  0
3DFACE
  5
5B0
  8
LAYER1
 10
2833.8056146885751
 20
4876.0016451489391
 30
34.499983449683349
 11
2832.2056146009281
 21
4876.0012945567396
 31
33.999983508115328
 12
2832.3056146633421
 22
4876.0016257441212
 32
35.999983456281441
 13
2833.8056146885751
 23
4876.0016451489391
 33
34.499983449683349
  0
3DFACE
  5
5B1
  8
LAYER1
 10
2830.7056146885379
 20
4876.001645148941
 30
34.999983449773779
 11
2830.7056144921962
 21
4876.0016451489282
 31
35.999983230032292
 12
2830.7056144887861
 22
-1123.9983548510629
 32
35.999983449683349
 13
2830.7056146469081
 23
-1123.998521517768
 33
34.999983477461143
  0
3DFACE
  5
5B2
  8
LAYER1
 10
2830.7056146885752
 20
-1123.99835485106
 30
34.999983449683462
 11
2830.998507907389
 21
-1123.9985215177151
 31
34.292876668496831
 12
2830.9988366846501
 22
4876.0014785161338
 32
34.292705711824873
 13
2830.7056146885752
 23
4876.0014785161338
 33
34.999983449683349
  0
3DFACE
  5
5B3
  8
LAYER1
 10
2832.3056115898039
 20
-1124.0005815134141
 30
35.999983449683349
 11
2831.7958798883851
 21
-1124.0005382087661
 31
35.999983449687122
 12
2831.7958798768741
 22
4876.001645148941
 32
35.999983449683349
 13
2832.3056146885801
 23
4876.0016451489328
 33
35.999983449688841
  0
3DFACE
  5
5B4
  8
LAYER1
 10
2830.9985079073922
 20
4876.001645148941
 30
34.292876668495971
 11
2830.7056147263002
 21
4876.001645148941
 31
35.999983230032157
 12
2830.705614688577
 22
4876.001645148941
 32
34.999983449679689
 13
2830.9985078115319
 23
4876.0021216082923
 33
34.292876949837641
  0
3DFACE
  5
5B5
  8
LAYER1
 10
2830.7056144921962
 20
4876.001645148941
 30
35.999984594490797
 11
2831.8018304453681
 21
4876.0016451302126
 31
35.999983380526658
 12
2830.7056144887861
 22
-1124.0005382087661
 32
35.999983449683427
 13
2831.7958798883851
 23
-1123.99835485106
 33
35.999983449687122
  0
3DFACE
  5
5B6
  8
LAYER1
 10
2833.3662748192128
 20
4876.0013194130443
 30
35.560643516433529
 11
2833.8056146885751
 21
4876.0016451489391
 31
34.499983449683349
 12
2833.8056146885751
 22
-1123.9983548510561
 32
34.499983449683349
 13
2833.3662748603551
 23
-1123.99835485106
 33
35.560643621463171
  0
3DFACE
  5
5B7
  8
LAYER1
 10
2833.8056146885742
 20
-1123.9983548510561
 30
34.499983449687363
 11
2833.3662748878141
 21
-1123.9985101811351
 31
35.56064361008935
 12
2832.305608491039
 22
-1124.000581513151
 32
35.999983449683349
 13
2832.2056416844798
 23
-1123.9983548529931
 33
33.999976899378851
  0
3DFACE
  5
5B8
  8
LAYER1
 10
2842.2056145587362
 20
-1123.998036737835
 30
33.999983555721087
 11
2840.7056146885752
 21
-1123.998036737835
 31
33.999983449683349
 12
2843.2053895249478
 22
-1123.9984669917931
 32
35.999533319608403
 13
2842.2059188017288
 23
-1123.998466991829
 33
34.000109387850387
  0
3DFACE
  5
5B9
  8
LAYER1
 10
2840.7056146885752
 20
4876.0011725178974
 30
33.999983449683349
 11
2839.2899019875908
 21
4876.00164114157
 31
33.999457753553713
 12
2843.2056144679968
 22
4876.0003216810719
 32
35.999983008527458
 13
2840.7056031943011
 23
4876.0015889572223
 33
34.000044251775861
  0
3DFACE
  5
5BA
  8
LAYER1
 10
2804.7056146826321
 20
4876.0016451489391
 30
33.999983449683349
 11
2804.2056146829691
 21
4876.0016451489391
 31
33.999983449683349
 12
2804.2056146829691
 22
4876.0016451489391
 32
35.999983449683349
 13
2804.7056146815949
 23
4876.0016411349052
 33
35.499983448678641
  0
3DFACE
  5
5BB
  8
LAYER1
 10
2820.2056146829691
 20
4876.0016451489391
 30
33.99998344968337
 11
2819.7056146827708
 21
4876.0016534778424
 31
33.999983449683349
 12
2819.7055427455812
 22
4876.0012703059601
 32
35.49965733462097
 13
2820.2056146829691
 23
4876.0016451489391
 33
35.999983449683349
  0
3DFACE
  5
5BC
  8
LAYER1
 10
2820.2056146829691
 20
-1123.99835485106
 30
33.999983449683349
 11
2819.605667855245
 21
-1123.99835485106
 31
33.999983449683349
 12
2819.7053954682419
 22
-1123.99835485106
 32
35.499480896857101
 13
2820.2055789280312
 23
-1123.998354879363
 33
35.999947697071441
  0
3DFACE
  5
5BD
  8
LAYER1
 10
2836.9015106359761
 20
-1123.99835485106
 30
18.118619448602772
 11
2836.4562252885698
 21
-1123.998135486446
 31
19.498509330893611
 12
2836.894952378881
 22
-1123.9956193946321
 32
18.439328890449271
 13
2836.9015106359761
 23
-1123.99835485106
 33
18.118619448602772
  0
3DFACE
  5
5BE
  8
LAYER1
 10
2842.9127214697901
 20
4876.0016451489391
 30
17.707090230844639
 11
2843.205614697175
 21
4876.0016451489391
 31
16.999009055487971
 12
2843.2059591878869
 22
-1123.99835485106
 32
16.999151752773681
 13
2842.9127214697628
 23
-1123.9983548510511
 33
17.70709023086723
  0
3DFACE
  5
5BF
  8
LAYER1
 10
2841.255614688575
 20
-1123.99835485106
 30
11.99998345243074
 11
2838.7056146885761
 21
-1123.99835485106
 31
12.99998344968332
 12
2838.7056146885761
 22
4876.0016451489391
 32
12.99998345172968
 13
2841.2556144192308
 23
4876.0024738988532
 33
11.99998344968332
  0
3DFACE
  5
5C0
  8
LAYER1
 10
2841.2556126035561
 20
4876.0015304763756
 30
13.999980003978591
 11
2838.7056146885761
 21
4876.0015304763756
 31
13.99998344968334
 12
2838.7056146907148
 22
-1123.998354851062
 32
13.99998344968335
 13
2841.256065891957
 23
-1123.998354851112
 33
14.00072910851174
  0
3DFACE
  5
5C1
  8
LAYER1
 10
2841.255614688554
 20
-1123.99835485106
 30
16.499454737811192
 11
2841.925069094098
 21
-1123.998454210958
 31
17.999983449684411
 12
2842.9127214697628
 22
-1123.998454210958
 32
17.707090230867191
 13
2843.2059591878929
 23
-1123.998454210958
 33
16.999151752776118
  0
3DFACE
  5
5C2
  8
LAYER1
 10
2841.9250846945511
 20
-1123.998454213274
 30
18.000018416856289
 11
2842.2056146885752
 21
-1123.99835485106
 31
17.999983449683349
 12
2842.9127214697619
 22
-1123.99835485106
 32
17.707090230867671
 13
2841.9250846945511
 23
-1123.998454213274
 33
18.000018416856289
  0
3DFACE
  5
5C3
  8
LAYER1
 10
2833.9556147138242
 20
4876.001645148941
 30
19.499983449695709
 11
2833.9550042949322
 21
4876.0016450953799
 31
24.468894461451011
 12
2833.9531716918332
 22
-1123.99835485106
 32
24.518260805384472
 13
2833.9531716071551
 23
-1123.998355065728
 33
19.499983449724581
  0
3DFACE
  5
5C4
  8
LAYER1
 10
2833.9531716918332
 20
-1123.99835485106
 30
24.518260805385701
 11
2832.6075384772221
 21
-1123.9983548510629
 31
25.999983449683359
 12
2832.607538480519
 22
4876.0016451489346
 32
25.99998343737909
 13
2833.8886273904682
 23
4876.0016451489391
 33
24.718894536437858
  0
3DFACE
  5
5C5
  8
LAYER1
 10
2836.4562249066512
 20
4876.0018645135533
 30
19.501618213455949
 11
2833.9556147139142
 21
4876.0018655317645
 31
19.499983449695709
 12
2833.5162748602829
 22
4876.0018202434594
 32
18.439323277826581
 13
2836.4541433687041
 23
4876.001645079099
 33
19.49744124043335
  0
3DFACE
  5
5C6
  8
LAYER1
 10
2838.7056146885761
 20
4876.0016451260062
 30
12.99998344968332
 11
2838.7056146885761
 21
4876.0015304763756
 31
13.99998344968334
 12
2838.7056146907148
 22
-1123.998354851062
 32
13.99998344968335
 13
2838.7056146885761
 23
-1123.998354851062
 33
12.99998344968332
  0
3DFACE
  5
5C7
  8
LAYER1
 10
2823.155614688575
 20
-1123.9983548512
 30
13.99998344968335
 11
2823.1556246854761
 21
-1123.998354851062
 31
16.499983449683391
 12
2823.1556333873968
 22
4876.0016451472966
 32
16.49998344982907
 13
2823.155614688575
 23
4876.0016451489391
 33
13.99998344968335
  0
3DFACE
  5
5C8
  8
LAYER1
 10
2832.2095640830148
 20
-1124.0002656944309
 30
27.495781752753921
 11
2832.2056146885761
 21
-1123.9983548529931
 31
33.999968462905748
 12
2832.2056409081151
 22
4876.0016451470055
 32
33.999961367840022
 13
2832.2105671782342
 23
4875.9997318999631
 33
27.499190416831262
  0
3DFACE
  5
5C9
  8
LAYER1
 10
2835.2056146885761
 20
-1123.99835485106
 30
26.099983449671971
 11
2833.8190597713678
 21
-1123.99835485106
 31
27.248929938764761
 12
2833.8179949504879
 22
4876.0016451489391
 32
27.249812285505659
 13
2835.2056146885989
 23
4876.0016451489391
 33
26.099983449652019
  0
3DFACE
  5
5CA
  8
LAYER1
 10
2835.2056146885761
 20
4876.0016451489391
 30
26.099983449708692
 11
2836.58555849909
 21
4876.0016448297874
 31
27.263857479209751
 12
2836.5855579607032
 22
-1123.9983548510579
 32
27.263858126053371
 13
2835.2056146885761
 23
-1123.99835485106
 33
26.099983449708731
  0
3DFACE
  5
5CB
  8
LAYER1
 10
2818.7056146885752
 20
4876.0016451489391
 30
30.499983449683349
 11
2818.7055383629822
 21
4876.001645172003
 31
31.499983443857751
 12
2818.7055383629822
 22
-1123.99835485106
 32
31.499983449683551
 13
2818.7056146885752
 23
-1123.99835485106
 33
30.499983449683349
  0
3DFACE
  5
5CC
  8
LAYER1
 10
2821.255614688575
 20
-1123.99835485106
 30
29.499983449683409
 11
2818.7056146885752
 21
-1123.99835485106
 31
30.4999834504281
 12
2818.7056146885752
 22
4876.0016451489391
 32
30.49998459739863
 13
2821.255614688575
 23
4876.0016451489391
 33
29.49998344643344
  0
3DFACE
  5
5CD
  8
LAYER1
 10
2821.2556145275848
 20
-1123.9983548506159
 30
31.499983449683349
 11
2821.2556145275848
 21
-1123.99835485106
 31
33.999983449683349
 12
2821.2556145275848
 22
4876.0016451489391
 32
33.999983449683363
 13
2821.2558053267121
 23
4876.001645172003
 33
31.500178094498001
  0
3DFACE
  5
5CE
  8
LAYER1
 10
2818.705538351378
 20
4876.0016451720057
 30
31.500135481361951
 11
2821.2558053266689
 21
4876.000266316415
 31
31.500178094453268
 12
2821.2558053266689
 22
-1123.99835485106
 32
31.499983449683551
 13
2818.705538351378
 23
-1123.99835485106
 33
31.500135481361301
  0
3DFACE
  5
5CF
  8
LAYER1
 10
2843.2056223766608
 20
4876.0016422688186
 30
0.9769067401967745
 11
2843.2056146968439
 21
4876.0016451516603
 31
16.99998349653546
 12
2843.206049336151
 22
-1123.998454215551
 32
16.999174849626758
 13
2843.206064202268
 23
-1123.99835485106
 33
0.9749839247512213
  0
3DFACE
  5
5D0
  8
LAYER1
 10
2833.5187431103482
 20
-1123.9981809606661
 30
18.441962265656301
 11
2833.9531716107258
 21
-1123.9895854479789
 31
19.499983449724581
 12
2833.953171610739
 22
4876.0016451864694
 32
19.499983272470551
 13
2833.5162748603552
 23
4876.0016451489319
 33
18.439323277903519
  0
3DFACE
  5
5D1
  8
LAYER1
 10
2832.4556146885861
 20
4876.0016451489382
 30
17.999983449683349
 11
2833.5162748603552
 21
4876.0016451489591
 31
18.439323277903519
 12
2833.5187431096369
 22
-1123.9964535442621
 32
18.441962264896532
 13
2832.4556146885752
 23
-1124.002348639787
 33
17.999983449683349
  0
3DFACE
  5
5D2
  8
LAYER1
 10
2840.7057626274218
 20
-1123.998410921444
 30
34.00004472427117
 11
2839.222131690412
 21
-1123.9986871163569
 31
34.000378755535849
 12
2839.2054552017421
 22
4876.0016450276062
 32
33.99998297718804
 13
2840.7056146885752
 23
4876.0011725178974
 33
33.999983449683349
  0
3DFACE
  5
5D3
  8
LAYER1
 10
2842.9127214745131
 20
-1123.9984669918269
 30
34.292876679966817
 11
2842.2056145587362
 21
-1123.998036737835
 31
33.999983555721087
 12
2842.2057511868588
 22
4876.0015328868376
 32
34.000105526363683
 13
2842.9125620366399
 23
4876.0015328868403
 33
34.292876196001551
  0
3DFACE
  5
5D4
  8
LAYER1
 10
2832.607538477223
 20
-1123.99835485106
 30
25.999983449678069
 11
2832.2056149285809
 21
-1123.997604890071
 31
27.49992630792347
 12
2832.2056146885761
 22
4875.9997260489008
 32
27.49998345783235
 13
2832.6075384772198
 23
4875.9997260489008
 33
25.999983449687971
  0
3DFACE
  5
5D5
  8
LAYER1
 10
2836.4891083376292
 20
-1123.9982451687531
 30
24.593894536437851
 11
2836.5855579607032
 21
-1123.998354850683
 31
27.263858126053371
 12
2837.8036908999279
 22
-1123.998354850683
 32
25.999983449683409
 13
2836.4891083376292
 23
-1123.9982451687531
 33
24.593894536437851
  0
3DFACE
  5
5D6
  8
LAYER1
 10
2838.2056146885752
 20
-1123.99835485106
 30
27.499983449683349
 11
2836.5942941549538
 21
-1123.9984989413269
 31
27.271226489997179
 12
2837.8036908999279
 22
-1123.9984989413269
 32
25.999983449683469
 13
2838.2056146885752
 23
-1123.99835485106
 33
27.499983449683349
  0
3DFACE
  5
5D7
  8
LAYER1
 10
2841.2556144192308
 20
4876.0024738988532
 30
11.99998344968332
 11
2841.2556126034842
 21
4876.0024741485531
 31
13.99998000386076
 12
2838.7056146885761
 22
4876.0024741485531
 32
13.99998344968334
 13
2838.7056146885761
 23
4876.0024741485531
 33
12.99998344968332
  0
3DFACE
  5
5D8
  8
LAYER1
 10
2823.155614688575
 20
4876.0016451489391
 30
11.99998344968332
 11
2825.7056146885752
 21
4876.0018118156013
 31
12.999983421905521
 12
2825.7056146885752
 22
4876.0016451489391
 32
13.99998344968334
 13
2823.1556146887178
 23
4876.0016451489391
 33
14.000002522482211
  0
3DFACE
  5
5DC
  8
LAYER1
 10
2822.7056083649632
 20
-1124.002348639787
 30
18.005027676593588
 11
2822.7056146885761
 21
-1123.9961073456841
 31
35.999983449683349
 12
2822.705614690758
 22
4876.0016451489391
 32
35.999983449683349
 13
2822.7052493438541
 23
4875.9818823384048
 33
18.000006252756119
  0
ENDSEC
  0
EOF
