# Blender v3.1.2 OBJ File: ''
# www.blender.org
mtllib 100-405x535.mtl
o 100_-_300a399_x_405a535
v 260.000000 -270.000000 6.000000
v 260.000000 -270.000000 60.000000
v 260.000000 -10.000017 6.000000
v 260.000000 -10.000017 60.000000
v 270.000000 -270.000000 6.000000
v 270.000000 -10.000017 6.000000
v 270.000000 -270.000000 60.000000
v 270.000000 -10.000017 60.000000
v 129.000000 -270.000000 6.000000
v 129.000000 -270.000000 60.000000
v 129.000000 -10.000017 6.000000
v 129.000000 -10.000017 60.000000
v 139.000000 -270.000000 6.000000
v 139.000000 -10.000017 6.000000
v 139.000000 -270.000000 60.000000
v 139.000000 -10.000017 60.000000
v 4.000000 -531.000000 6.000000
v 4.000000 -3.000020 6.000000
v 4.000000 -531.000000 0.000000
v 4.000000 -3.000020 0.000000
v 395.999969 -531.000000 6.000000
v 395.999969 -531.000000 0.000000
v 395.999969 -3.000020 6.000000
v 395.999969 -3.000020 0.000000
v 0.000011 -0.000017 0.000000
v 0.000011 -0.000017 60.000000
v 399.000000 -0.000017 0.000000
v 399.000000 -0.000017 60.000000
v 396.000000 -3.000017 0.000000
v 3.000002 -3.000017 0.000000
v 396.000000 -3.000017 6.000000
v 3.000002 -3.000017 6.000000
v 389.000000 -10.000016 6.000000
v 10.000002 -10.000016 6.000000
v 389.000000 -10.000016 60.000000
v 10.000002 -10.000016 60.000000
v 396.000000 -3.000017 0.000000
v 399.000000 -0.000017 0.000000
v 0.000000 -535.000061 0.000000
v 0.000000 -535.000061 60.000000
v 0.000000 -0.000017 0.000000
v 0.000000 -0.000017 60.000000
v 3.000000 -3.000017 0.000000
v 3.000000 -532.000000 0.000000
v 3.000000 -3.000017 6.000000
v 3.000000 -532.000000 6.000000
v 10.000000 -10.000016 6.000000
v 10.000000 -525.000000 6.000000
v 10.000000 -10.000016 60.000000
v 10.000000 -525.000000 60.000000
v 3.000000 -3.000017 0.000000
v 0.000000 -0.000017 0.000000
v 398.999969 -535.000000 -0.000000
v 398.999969 -535.000000 60.000000
v 0.000000 -535.000000 -0.000000
v 0.000000 -535.000000 60.000000
v 3.000000 -532.000000 -0.000000
v 396.000000 -532.000000 -0.000000
v 396.000000 -532.000000 6.000000
v 389.000000 -525.000000 6.000000
v 389.000000 -525.000000 60.000000
v 3.000000 -532.000000 -0.000000
v 0.000000 -535.000000 -0.000000
v 389.000000 -280.000031 6.000000
v 389.000000 -280.000031 60.000000
v 10.000000 -280.000031 6.000000
v 10.000000 -280.000031 60.000000
v 389.000000 -270.000031 6.000000
v 10.000000 -270.000031 6.000000
v 389.000000 -270.000031 60.000000
v 10.000000 -270.000031 60.000000
v 399.000000 0.000010 0.000000
v 399.000000 0.000010 60.000000
v 399.000000 -535.000000 0.000000
v 399.000000 -535.000000 60.000000
v 396.000000 -532.000000 0.000000
v 396.000000 -3.000011 0.000000
v 396.000000 -3.000011 6.000000
v 389.000000 -10.000041 6.000000
v 389.000000 -10.000041 60.000000
v 396.000000 -532.000000 0.000000
v 399.000000 -535.000000 0.000000
v 389.000000 -407.000031 6.000000
v 389.000000 -407.000031 60.000000
v 10.000000 -407.000031 6.000000
v 10.000000 -407.000031 60.000000
v 389.000000 -397.000031 6.000000
v 10.000000 -397.000031 6.000000
v 389.000000 -397.000031 60.000000
v 10.000000 -397.000031 60.000000
vn -1.0000 0.0000 0.0000
vn 0.0000 0.0000 -1.0000
vn 1.0000 0.0000 0.0000
vn 0.0000 0.0000 1.0000
vn 0.0000 -1.0000 0.0000
vn 0.0000 1.0000 0.0000
vn 0.7071 -0.7071 0.0000
vn -0.7071 -0.7071 0.0000
vn 0.7071 0.7071 0.0000
vn -0.7071 0.7071 0.0000
usemtl None
s off
f 1//1 2//1 3//1
f 3//1 2//1 4//1
f 5//2 1//2 6//2
f 6//2 1//2 3//2
f 7//3 5//3 8//3
f 8//3 5//3 6//3
f 2//4 7//4 4//4
f 4//4 7//4 8//4
f 5//5 7//5 1//5
f 1//5 7//5 2//5
f 8//6 6//6 4//6
f 4//6 6//6 3//6
f 9//1 10//1 11//1
f 11//1 10//1 12//1
f 13//2 9//2 14//2
f 14//2 9//2 11//2
f 15//3 13//3 16//3
f 16//3 13//3 14//3
f 10//4 15//4 12//4
f 12//4 15//4 16//4
f 13//5 15//5 9//5
f 9//5 15//5 10//5
f 16//6 14//6 12//6
f 12//6 14//6 11//6
f 17//1 18//1 19//1
f 19//1 18//1 20//1
f 21//5 17//5 22//5
f 22//5 17//5 19//5
f 23//3 21//3 24//3
f 24//3 21//3 22//3
f 18//6 23//6 20//6
f 20//6 23//6 24//6
f 21//4 23//4 17//4
f 17//4 23//4 18//4
f 24//2 22//2 20//2
f 20//2 22//2 19//2
f 25//6 26//6 27//6
f 27//6 26//6 28//6
f 29//2 30//2 27//2
f 27//2 30//2 25//2
f 31//5 32//5 29//5
f 29//5 32//5 30//5
f 33//2 34//2 31//2
f 31//2 34//2 32//2
f 35//5 36//5 33//5
f 33//5 36//5 34//5
f 28//4 26//4 35//4
f 35//4 26//4 36//4
f 37//7 38//7 31//7
f 31//7 38//7 28//7
f 31//7 28//7 33//7
f 33//7 28//7 35//7
f 25//8 30//8 32//8
f 34//8 36//8 32//8
f 32//8 36//8 26//8
f 32//8 26//8 25//8
f 39//1 40//1 41//1
f 41//1 40//1 42//1
f 43//2 44//2 41//2
f 41//2 44//2 39//2
f 45//3 46//3 43//3
f 43//3 46//3 44//3
f 47//2 48//2 45//2
f 45//2 48//2 46//2
f 49//3 50//3 47//3
f 47//3 50//3 48//3
f 42//4 40//4 49//4
f 49//4 40//4 50//4
f 51//9 52//9 45//9
f 45//9 52//9 42//9
f 45//9 42//9 47//9
f 47//9 42//9 49//9
f 39//7 44//7 46//7
f 48//7 50//7 46//7
f 46//7 50//7 40//7
f 46//7 40//7 39//7
f 53//5 54//5 55//5
f 55//5 54//5 56//5
f 57//2 58//2 55//2
f 55//2 58//2 53//2
f 46//6 59//6 57//6
f 57//6 59//6 58//6
f 48//2 60//2 46//2
f 46//2 60//2 59//2
f 50//6 61//6 48//6
f 48//6 61//6 60//6
f 56//4 54//4 50//4
f 50//4 54//4 61//4
f 62//10 63//10 46//10
f 46//10 63//10 56//10
f 46//10 56//10 48//10
f 48//10 56//10 50//10
f 53//9 58//9 59//9
f 60//9 61//9 59//9
f 59//9 61//9 54//9
f 59//9 54//9 53//9
f 64//5 65//5 66//5
f 66//5 65//5 67//5
f 68//2 64//2 69//2
f 69//2 64//2 66//2
f 70//6 68//6 71//6
f 71//6 68//6 69//6
f 65//4 70//4 67//4
f 67//4 70//4 71//4
f 68//3 70//3 64//3
f 64//3 70//3 65//3
f 71//1 69//1 67//1
f 67//1 69//1 66//1
f 72//3 73//3 74//3
f 74//3 73//3 75//3
f 76//2 77//2 74//2
f 74//2 77//2 72//2
f 59//1 78//1 76//1
f 76//1 78//1 77//1
f 60//2 79//2 59//2
f 59//2 79//2 78//2
f 61//1 80//1 60//1
f 60//1 80//1 79//1
f 75//4 73//4 61//4
f 61//4 73//4 80//4
f 81//8 82//8 59//8
f 59//8 82//8 75//8
f 59//8 75//8 60//8
f 60//8 75//8 61//8
f 72//10 77//10 78//10
f 79//10 80//10 78//10
f 78//10 80//10 73//10
f 78//10 73//10 72//10
f 83//5 84//5 85//5
f 85//5 84//5 86//5
f 87//2 83//2 88//2
f 88//2 83//2 85//2
f 89//6 87//6 90//6
f 90//6 87//6 88//6
f 84//4 89//4 86//4
f 86//4 89//4 90//4
f 87//3 89//3 83//3
f 83//3 89//3 84//3
f 90//1 88//1 86//1
f 86//1 88//1 85//1
