# Blender v3.1.2 OBJ File: ''
# www.blender.org
mtllib 100.mtl
o 101_-_300a399_x_410a535_-_MD.01_-_S-FUNDO_GAVETA_ACO
v 286.000000 -0.000002 56.000000
v 23.999987 -0.000002 0.000000
v 23.999987 -0.000002 56.000000
v 286.000000 -0.000002 0.000000
v 286.000000 -10.000002 0.000000
v 23.999987 -10.000002 0.000000
v 23.999987 -10.000002 56.000000
v 286.000000 -10.000002 56.000000
v 296.000000 0.000000 45.917099
v 296.000000 -435.000000 0.000000
v 296.000000 0.000000 0.000000
v 296.000000 -435.000000 45.917099
v 286.000000 -435.000000 0.000000
v 286.000000 -435.000000 56.000000
v 310.000000 -435.000000 56.000000
v 310.000000 0.000000 56.000000
v 310.000000 -435.000000 54.000000
v 310.000000 0.000000 54.000000
v 14.000000 -435.000000 45.917099
v 14.000000 -0.000002 0.000000
v 14.000000 -435.000000 0.000000
v 14.000000 -0.000002 45.917099
v 24.000000 -435.000000 0.000000
v 24.000000 -435.000000 56.000000
v 0.000000 -435.000000 56.000000
v 0.000000 -0.000002 56.000000
v 0.000000 -0.000002 54.000000
v 0.000000 -435.000000 54.000000
v 286.000000 -280.000000 0.000000
v 24.000000 -280.000000 56.000000
v 24.000000 -280.000000 0.000000
v 286.000000 -280.000000 56.000000
v 24.000000 -270.000000 0.000000
v 286.000000 -270.000000 0.000000
v 286.000000 -270.000000 56.000000
v 24.000000 -270.000000 56.000000
v 104.000000 -270.000000 56.000000
v 104.000000 -10.000002 0.000000
v 104.000000 -270.000000 0.000000
v 104.000000 -10.000002 56.000000
v 114.000000 -270.000000 0.000000
v 114.000000 -10.000002 0.000000
v 114.000000 -10.000002 56.000000
v 114.000000 -270.000000 56.000000
v 196.000000 -270.000000 56.000000
v 196.000000 -10.000002 0.000000
v 196.000000 -270.000000 0.000000
v 196.000000 -10.000002 56.000000
v 206.000000 -270.000000 0.000000
v 206.000000 -10.000002 0.000000
v 206.000000 -10.000002 56.000000
v 206.000000 -270.000000 56.000000
v 24.000000 -425.000000 0.000000
v 286.000031 -425.000000 0.000000
v 286.000031 -425.000000 56.000000
v 24.000000 -425.000000 56.000000
v 286.000000 -357.000000 0.000000
v 24.000000 -357.000000 56.000000
v 24.000000 -357.000000 0.000000
v 286.000000 -357.000000 56.000000
v 24.000000 -347.000000 0.000000
v 286.000000 -347.000000 0.000000
v 286.000000 -347.000000 56.000000
v 24.000000 -347.000000 56.000000
vn 0.0000 1.0000 0.0000
vn 0.0000 0.0000 -1.0000
vn 0.0000 -1.0000 0.0000
vn 0.0000 0.0000 1.0000
vn -1.0000 0.0000 0.0000
vn 1.0000 0.0000 0.0000
vn 0.5000 0.0000 -0.8660
vn -0.5000 0.0000 -0.8660
usemtl None
s off
f 1//1 2//1 3//1
f 2//1 1//1 4//1
f 5//2 2//2 4//2
f 2//2 5//2 6//2
f 5//3 7//3 6//3
f 7//3 5//3 8//3
f 7//4 1//4 3//4
f 1//4 7//4 8//4
f 7//5 2//5 6//5
f 2//5 7//5 3//5
f 1//6 5//6 4//6
f 5//6 1//6 8//6
f 9//6 10//6 11//6
f 10//6 9//6 12//6
f 10//2 4//2 11//2
f 4//2 10//2 13//2
f 14//5 4//5 13//5
f 4//5 14//5 1//5
f 1//4 15//4 16//4
f 15//4 1//4 14//4
f 16//6 17//6 18//6
f 17//6 16//6 15//6
f 17//7 9//7 18//7
f 9//7 17//7 12//7
f 1//1 9//1 4//1
f 9//1 1//1 16//1
f 9//1 16//1 18//1
f 11//1 4//1 9//1
f 10//3 14//3 13//3
f 14//3 10//3 12//3
f 14//3 12//3 15//3
f 15//3 12//3 17//3
f 19//5 20//5 21//5
f 20//5 19//5 22//5
f 23//2 20//2 2//2
f 20//2 23//2 21//2
f 3//6 23//6 2//6
f 23//6 3//6 24//6
f 25//4 3//4 26//4
f 3//4 25//4 24//4
f 25//5 27//5 28//5
f 27//5 25//5 26//5
f 19//8 27//8 22//8
f 27//8 19//8 28//8
f 23//3 19//3 21//3
f 19//3 25//3 28//3
f 25//3 19//3 24//3
f 24//3 19//3 23//3
f 3//1 27//1 26//1
f 27//1 3//1 22//1
f 22//1 3//1 20//1
f 20//1 3//1 2//1
f 29//3 30//3 31//3
f 30//3 29//3 32//3
f 29//2 33//2 34//2
f 33//2 29//2 31//2
f 35//1 33//1 36//1
f 33//1 35//1 34//1
f 30//4 35//4 36//4
f 35//4 30//4 32//4
f 35//6 29//6 34//6
f 29//6 35//6 32//6
f 30//5 33//5 31//5
f 33//5 30//5 36//5
f 37//5 38//5 39//5
f 38//5 37//5 40//5
f 41//2 38//2 42//2
f 38//2 41//2 39//2
f 43//6 41//6 42//6
f 41//6 43//6 44//6
f 37//4 43//4 40//4
f 43//4 37//4 44//4
f 41//3 37//3 39//3
f 37//3 41//3 44//3
f 43//1 38//1 40//1
f 38//1 43//1 42//1
f 45//5 46//5 47//5
f 46//5 45//5 48//5
f 49//2 46//2 50//2
f 46//2 49//2 47//2
f 51//6 49//6 50//6
f 49//6 51//6 52//6
f 45//4 51//4 48//4
f 51//4 45//4 52//4
f 49//3 45//3 47//3
f 45//3 49//3 52//3
f 51//1 46//1 48//1
f 46//1 51//1 50//1
f 13//3 24//3 23//3
f 24//3 13//3 14//3
f 13//2 53//2 54//2
f 53//2 13//2 23//2
f 55//1 53//1 56//1
f 53//1 55//1 54//1
f 24//4 55//4 56//4
f 55//4 24//4 14//4
f 54//6 14//6 13//6
f 14//6 54//6 55//6
f 23//5 56//5 53//5
f 56//5 23//5 24//5
f 57//3 58//3 59//3
f 58//3 57//3 60//3
f 57//2 61//2 62//2
f 61//2 57//2 59//2
f 63//1 61//1 64//1
f 61//1 63//1 62//1
f 58//4 63//4 64//4
f 63//4 58//4 60//4
f 63//6 57//6 62//6
f 57//6 63//6 60//6
f 58//5 61//5 59//5
f 61//5 58//5 64//5
