# Blender v3.1.2 OBJ File: ''
# www.blender.org
mtllib 100_310x400x60.mtl
o Sem_nome.004
v 310.000000 -400.000000 -0.000065
v 310.000000 -400.000000 59.999935
v 0.000002 -400.000000 59.999935
v 0.000002 -400.000000 -0.000065
v 307.000000 -397.000000 5.999935
v 300.000000 -390.000000 5.999937
v 300.000000 -390.000000 59.999935
v 10.000000 -390.000000 59.999935
v 10.000000 -390.000000 5.999937
v 310.000000 -0.000010 60.000000
v 300.000000 -10.000010 60.000000
v 310.000000 -0.000000 0.000000
v 0.000000 -0.000000 0.000000
v 0.000000 -0.000010 60.000000
v 2.999990 -3.000001 6.000000
v 9.999990 -10.000001 5.999999
v 9.999990 -10.000010 60.000000
v 300.000000 -10.000001 5.999999
v 3.000000 -397.000000 5.999935
v 3.000000 -397.000000 -0.000065
v 307.000000 -397.000000 -0.000065
v 307.000000 -3.000001 6.000000
v 307.000000 -3.000000 -0.000000
v 2.999990 -3.000000 -0.000000
v 307.000000 -396.000000 5.999936
v 307.000000 -396.000000 -0.000065
v 4.000000 -2.999991 6.000000
v 4.000000 -396.000000 5.999936
v 4.000000 -2.999990 -0.000000
v 4.000000 -396.000000 -0.000065
v 300.000000 -280.000000 5.999954
v 300.000000 -280.000000 59.999954
v 10.000000 -280.000000 59.999954
v 10.000000 -280.000000 5.999954
v 300.000000 -270.000000 5.999956
v 300.000000 -270.000000 59.999954
v 10.000000 -270.000000 5.999956
v 10.000000 -270.000000 59.999954
v 100.000000 -270.000000 5.999956
v 100.000000 -270.000000 59.999954
v 100.000000 -10.000010 60.000000
v 100.000000 -10.000001 5.999999
v 110.000000 -270.000000 5.999956
v 110.000000 -270.000000 59.999954
v 110.000000 -10.000001 5.999999
v 110.000000 -10.000010 60.000000
v 200.000000 -270.000000 5.999956
v 200.000000 -270.000000 59.999954
v 200.000000 -10.000010 60.000000
v 200.000000 -10.000001 5.999999
v 210.000000 -270.000000 5.999956
v 210.000000 -270.000000 59.999954
v 210.000000 -10.000001 5.999999
v 210.000000 -10.000010 60.000000
vt 12.206300 -0.000000
vt 12.206300 2.362200
vt 0.001575 2.362200
vt 0.001575 -0.000000
vt 0.236220 19.320200
vt 2.362200 19.320200
vt 2.362200 19.876900
vt 0.236220 19.709900
vt -0.395276 2.362200
vt -11.812600 2.362200
vt -11.812600 0.236220
vt -0.395276 0.236220
vt -0.001575 15.903900
vt -12.206300 15.903900
vt -11.812600 15.510200
vt -0.395276 15.510200
vt -12.206300 0.155905
vt -11.812600 0.549606
vt 0.000000 0.155905
vt 2.362200 0.155905
vt 2.362200 15.903900
vt -0.000000 15.903900
vt -0.001575 0.000000
vt -0.001575 2.362200
vt -12.206300 2.362200
vt -12.206300 0.000000
vt 11.812600 2.362200
vt 0.395275 2.362200
vt 0.395275 0.236220
vt 11.812600 0.236220
vt -0.001575 0.155905
vt -0.395275 0.549606
vt 0.000000 15.903900
vt -2.362200 15.903900
vt -2.362200 0.155905
vt -0.000000 0.155905
vt 0.000000 11.077600
vt 0.000000 11.244700
vt -0.236220 11.077600
vt 0.119685 15.785800
vt 12.088200 15.785800
vt 12.206300 15.903900
vt 0.001575 15.903900
vt -0.119685 0.236220
vt -12.088200 0.236220
vt -12.088200 -0.000000
vt -0.119685 -0.000000
vt 0.395276 15.510200
vt 11.812600 15.510200
vt 12.088200 15.785800
vt 0.119685 15.785800
vt 11.812600 0.549606
vt 12.088200 0.274015
vt -2.362200 15.510200
vt -2.362200 0.549606
vt -0.236220 0.549606
vt -0.236220 15.510200
vt 0.236220 -8.353880
vt 0.000000 -8.520920
vt 2.362200 -8.520920
vt 12.088200 0.274015
vt 0.119685 0.274015
vt 0.001575 0.155905
vt 12.206300 0.155905
vt 12.088200 0.236220
vt 0.119685 0.236220
vt 0.119685 0.000000
vt 12.088200 0.000000
vt 0.395275 0.549606
vt 0.119685 0.274015
vt 2.362200 0.549606
vt 2.362200 15.510200
vt 0.236220 15.510200
vt 0.236220 0.549606
vt 0.236220 10.687900
vt 2.362200 10.687900
vt 2.362200 11.244700
vt 0.236220 11.077600
vt 0.236220 0.274015
vt 0.236220 15.785800
vt -0.000000 15.785800
vt 0.000000 0.274015
vt -0.000000 0.111355
vt -0.000000 0.278388
vt -0.236220 0.278388
vt 0.236220 0.278388
vt 2.362200 0.111355
vt 2.362200 0.668131
vt 0.236220 0.668132
vt -0.236220 -7.964140
vt -2.362200 -7.964140
vt -2.362200 -8.520920
vt -0.236220 -8.353880
vt -0.000000 -8.353880
vt -0.236220 15.785800
vt -0.236220 0.274015
vt -0.000000 0.274015
vt 0.000000 15.785800
vt 0.236220 0.274015
vt 0.236220 15.746500
vt 0.000000 15.746500
vt -12.088200 15.746500
vt -12.088200 0.274015
vt -0.159055 0.274015
vt -0.159055 15.746500
vt -0.159055 0.236220
vt -12.088200 0.236220
vt -12.088200 0.000000
vt -0.159055 0.000000
vt 12.088200 15.746500
vt 0.159055 15.746500
vt 0.159055 0.274015
vt 12.088200 0.236220
vt 0.159055 0.236220
vt 0.159055 0.000000
vt 12.088200 0.000000
vt -0.236220 15.746500
vt -0.236220 0.274015
vt -0.000000 0.274015
vt -0.000000 15.746500
vt -0.000000 19.709900
vt -0.000000 19.876900
vt -0.236220 19.709900
vt -2.362200 19.876900
vt 11.812600 0.236220
vt 11.812600 2.362200
vt 0.395276 2.362200
vt 0.395276 0.236220
vt 0.236220 10.785800
vt 2.362200 10.785800
vt 2.362200 11.179500
vt 0.236220 11.179500
vt -11.812600 2.362200
vt -11.812600 0.236220
vt -0.395276 0.236220
vt -0.395276 2.362200
vt 11.812600 10.785800
vt 11.812600 11.179500
vt 0.395276 11.179500
vt 0.395276 10.785800
vt -2.362200 10.785800
vt -0.236220 10.785800
vt -0.236220 11.179500
vt -2.362200 11.179500
vt -11.812600 11.179500
vt -11.812600 10.785800
vt -0.395276 10.785800
vt -0.395276 11.179500
vt -0.236220 10.785800
vt -2.362200 10.785800
vt -2.362200 0.549606
vt -0.236220 0.549606
vt 4.332280 0.236220
vt 4.332280 2.362200
vt 3.938580 2.362200
vt 3.938580 0.236220
vt 2.362200 10.785800
vt 0.236220 10.785800
vt 0.236220 0.549606
vt 2.362200 0.549606
vt 4.332280 10.785800
vt 3.938580 10.785800
vt 3.938580 0.549606
vt 4.332280 0.549606
vt -4.332280 2.362200
vt -4.332280 0.236220
vt -3.938580 0.236220
vt -3.938580 2.362200
vt -3.938580 10.785800
vt -4.332280 10.785800
vt -4.332280 0.549606
vt -3.938580 0.549606
vt -0.236220 10.785800
vt -2.362200 10.785800
vt -2.362200 0.549606
vt -0.236220 0.549606
vt 8.269290 0.236220
vt 8.269290 2.362200
vt 7.875590 2.362200
vt 7.875590 0.236220
vt 2.362200 10.785800
vt 0.236220 10.785800
vt 0.236220 0.549606
vt 2.362200 0.549606
vt 8.269290 10.785800
vt 7.875590 10.785800
vt 7.875590 0.549606
vt 8.269290 0.549606
vt -8.269290 2.362200
vt -8.269290 0.236220
vt -7.875590 0.236220
vt -7.875590 2.362200
vt -7.875590 10.785800
vt -8.269290 10.785800
vt -8.269290 0.549606
vt -7.875590 0.549606
vn 0.0000 -1.0000 0.0000
vn 0.7071 0.7071 0.0000
vn 0.0000 1.0000 0.0000
vn 0.0000 0.0000 1.0000
vn 1.0000 0.0000 0.0000
vn -1.0000 -0.0000 0.0000
vn -0.7071 0.7071 0.0000
vn 0.0000 0.0000 -1.0000
vn 0.7071 -0.7071 -0.0000
vn -0.7071 -0.7071 -0.0000
usemtl FrontColor.004
s 1
f 1/1/1 2/2/1 3/3/1 4/4/1
f 6/5/2 7/6/2 2/7/2 5/8/2
f 8/9/3 7/10/3 6/11/3 9/12/3
f 3/13/4 2/14/4 7/15/4 8/16/4
f 2/14/4 10/17/4 11/18/4 7/15/4
f 12/19/5 10/20/5 2/21/5 1/22/5
f 13/23/3 14/24/3 10/25/3 12/26/3
f 11/27/1 17/28/1 16/29/1 18/30/1
f 10/17/4 14/31/4 17/32/4 11/18/4
f 14/31/4 3/13/4 8/16/4 17/32/4
f 4/33/6 3/34/6 14/35/6 13/36/6
f 20/37/7 4/38/7 19/39/7
f 20/40/8 21/41/8 1/42/8 4/43/8
f 19/44/3 5/45/3 21/46/3 20/47/3
f 9/48/8 6/49/8 5/50/8 19/51/8
f 6/49/8 18/52/8 22/53/8 5/50/8
f 7/54/6 11/55/6 18/56/6 6/57/6
f 22/58/9 12/59/9 10/60/9
f 23/61/8 24/62/8 13/63/8 12/64/8
f 22/65/1 15/66/1 24/67/1 23/68/1
f 18/52/8 16/69/8 15/70/8 22/53/8
f 16/69/8 9/48/8 19/51/8 15/70/8
f 17/71/5 8/72/5 9/73/5 16/74/5
f 9/75/9 8/76/9 3/77/9 19/78/9
f 19/78/9 3/77/9 4/38/9
f 24/62/8 20/40/8 4/43/8 13/63/8
f 15/79/5 19/80/5 20/81/5 24/82/5
f 13/83/10 24/84/10 15/85/10
f 15/86/2 13/83/2 14/87/2
f 15/86/2 14/87/2 17/88/2 16/89/2
f 18/90/7 11/91/7 10/92/7 22/93/7
f 12/59/7 23/94/7 22/93/7
f 21/41/8 23/61/8 12/64/8 1/42/8
f 5/95/6 22/96/6 23/97/6 21/98/6
f 22/99/5 25/100/5 26/101/5 23/97/5
f 25/102/4 22/103/4 27/104/4 28/105/4
f 27/106/3 22/107/3 23/108/3 29/109/3
f 23/61/8 26/110/8 30/111/8 29/112/8
f 25/113/1 28/114/1 30/115/1 26/116/1
f 28/117/6 27/118/6 29/119/6 30/120/6
f 21/121/10 1/122/10 5/123/10
f 5/123/10 1/122/10 2/124/10
f 31/125/1 32/126/1 33/127/1 34/128/1
f 35/129/5 36/130/5 32/131/5 31/132/5
f 36/133/3 35/134/3 37/135/3 38/136/3
f 35/137/8 31/138/8 34/139/8 37/140/8
f 38/141/6 37/142/6 34/143/6 33/144/6
f 32/145/4 36/146/4 38/147/4 33/148/4
f 39/149/6 40/150/6 41/151/6 42/152/6
f 43/153/1 44/154/1 40/155/1 39/156/1
f 44/157/5 43/158/5 45/159/5 46/160/5
f 43/161/8 39/162/8 42/163/8 45/164/8
f 46/165/3 45/166/3 42/167/3 41/168/3
f 40/169/4 44/170/4 46/171/4 41/172/4
f 47/173/6 48/174/6 49/175/6 50/176/6
f 51/177/1 52/178/1 48/179/1 47/180/1
f 52/181/5 51/182/5 53/183/5 54/184/5
f 51/185/8 47/186/8 50/187/8 53/188/8
f 54/189/3 53/190/3 50/191/3 49/192/3
f 48/193/4 52/194/4 54/195/4 49/196/4
