# Blender v2.91.2 OBJ File: ''
# www.blender.org
mtllib 103.mtl
o 103_-_500a599_x_410a535_-_MD
v 400.040009 -361.299988 4.000000
v 400.040009 -361.299988 60.000004
v 140.039993 -361.299988 4.000000
v 140.039993 -361.299988 60.000004
v 400.040009 -351.299988 4.000000
v 140.039993 -351.299988 4.000000
v 400.040009 -351.299988 60.000004
v 140.039993 -351.299988 60.000004
v 0.040000 -438.299988 -0.000000
v 0.040000 -438.299988 60.000000
v 0.040000 -4.300005 -0.000000
v 0.040000 -4.300005 60.000000
v 3.040000 -7.300005 -0.000000
v 3.040000 -435.299988 -0.000000
v 3.040000 -7.300005 4.000000
v 3.040000 -435.299988 4.000000
v 10.040000 -14.300006 4.000000
v 10.040000 -428.299988 4.000000
v 10.040000 -14.300006 60.000000
v 10.040000 -428.299988 60.000000
v 3.040000 -7.300005 0.000000
v 0.040000 -4.300005 0.000000
v 0.040000 -438.299988 -0.000000
v 3.040000 -435.299988 -0.000000
v 510.039978 -438.300018 -0.000000
v 510.039978 -438.300018 60.000000
v 0.040000 -438.300018 -0.000000
v 0.040000 -438.300018 60.000000
v 3.040000 -435.299988 -0.000000
v 507.040039 -435.299988 -0.000000
v 507.040039 -435.299988 4.000000
v 500.040009 -428.299988 4.000000
v 500.040009 -428.299988 60.000000
v 3.040000 -435.299988 0.000000
v 0.040000 -438.300018 0.000000
v 510.039978 -438.300018 -0.000000
v 507.040039 -435.299988 -0.000000
v 0.040010 -4.300005 -0.000000
v 0.040010 -4.300005 60.000000
v 510.039978 -4.300005 -0.000000
v 510.039978 -4.300005 60.000000
v 507.040039 -7.300005 -0.000000
v 3.039971 -7.300005 -0.000000
v 507.040039 -7.300005 4.000000
v 3.039971 -7.300005 4.000000
v 500.040009 -14.300006 4.000000
v 500.040009 -14.300006 60.000000
v 507.040039 -7.300005 -0.000000
v 510.039978 -4.300005 -0.000000
v 400.040009 -284.299988 4.000000
v 400.040009 -284.299988 60.000004
v 140.039993 -284.299988 4.000000
v 140.039993 -284.299988 60.000004
v 400.040009 -274.300018 4.000000
v 140.039993 -274.300018 4.000000
v 400.040009 -274.300018 60.000004
v 140.039993 -274.300018 60.000004
v 220.039993 -274.300018 4.000000
v 220.039993 -274.300018 60.000004
v 220.039993 -14.300006 4.000000
v 220.039993 -14.300006 60.000004
v 230.039993 -274.300018 4.000000
v 230.039993 -14.300006 4.000000
v 230.039993 -274.300018 60.000004
v 230.039993 -14.300006 60.000004
v 510.039978 -4.300020 -0.000000
v 510.039978 -4.300020 60.000000
v 510.039978 -438.300018 -0.000000
v 507.040039 -435.299988 -0.000000
v 507.040039 -7.300011 -0.000000
v 507.040039 -7.300011 4.000000
v 500.040009 -14.300010 4.000000
v 500.040009 -14.300010 60.000000
v 507.040039 -435.299988 -0.000000
v 510.039978 -438.300018 -0.000000
v 130.040009 -428.300018 4.000000
v 130.040009 -428.300018 60.000004
v 130.040009 -14.300006 4.000000
v 130.040009 -14.300006 60.000004
v 140.039993 -428.300018 4.000000
v 140.039993 -14.300006 4.000000
v 140.039993 -428.300018 60.000004
v 140.039993 -14.300006 60.000004
v 400.040009 -428.300018 4.000000
v 400.040009 -428.300018 60.000004
v 400.040009 -14.300006 4.000000
v 400.040009 -14.300006 60.000004
v 410.039978 -428.300018 4.000000
v 410.039978 -14.300006 4.000000
v 410.039978 -428.300018 60.000004
v 410.039978 -14.300006 60.000004
v 4.040000 -434.300018 4.000000
v 4.040000 -8.300007 4.000000
v 4.040000 -434.300018 0.000000
v 4.040000 -8.300007 0.000000
v 506.039978 -434.300018 4.000000
v 506.039978 -434.300018 0.000000
v 506.039978 -8.300007 4.000000
v 506.039978 -8.300007 0.000000
v 310.040009 -274.300018 4.000000
v 310.040009 -274.300018 60.000004
v 310.040009 -14.300006 4.000000
v 310.040009 -14.300006 60.000004
v 320.039978 -274.300018 4.000000
v 320.039978 -14.300006 4.000000
v 320.039978 -274.300018 60.000004
v 320.039978 -14.300006 60.000004
vn 0.0000 -1.0000 0.0000
vn 0.0000 0.0000 -1.0000
vn 0.0000 1.0000 0.0000
vn 0.0000 0.0000 1.0000
vn 1.0000 0.0000 0.0000
vn -1.0000 0.0000 0.0000
vn 0.7071 0.7071 0.0000
vn 0.7071 -0.7071 0.0000
vn -0.7071 0.7071 0.0000
vn -0.7071 -0.7071 0.0000
usemtl None
s off
f 1//1 2//1 3//1
f 3//1 2//1 4//1
f 5//2 1//2 6//2
f 6//2 1//2 3//2
f 7//3 5//3 8//3
f 8//3 5//3 6//3
f 2//4 7//4 4//4
f 4//4 7//4 8//4
f 5//5 7//5 1//5
f 1//5 7//5 2//5
f 8//6 6//6 4//6
f 4//6 6//6 3//6
f 9//6 10//6 11//6
f 11//6 10//6 12//6
f 13//2 14//2 11//2
f 11//2 14//2 9//2
f 15//5 16//5 13//5
f 13//5 16//5 14//5
f 17//2 18//2 15//2
f 15//2 18//2 16//2
f 19//5 20//5 17//5
f 17//5 20//5 18//5
f 12//4 10//4 19//4
f 19//4 10//4 20//4
f 21//7 22//7 15//7
f 15//7 22//7 12//7
f 15//7 12//7 17//7
f 17//7 12//7 19//7
f 23//8 24//8 16//8
f 18//8 20//8 16//8
f 16//8 20//8 10//8
f 16//8 10//8 23//8
f 25//1 26//1 27//1
f 27//1 26//1 28//1
f 29//2 30//2 27//2
f 27//2 30//2 25//2
f 16//3 31//3 29//3
f 29//3 31//3 30//3
f 18//2 32//2 16//2
f 16//2 32//2 31//2
f 20//3 33//3 18//3
f 18//3 33//3 32//3
f 28//4 26//4 20//4
f 20//4 26//4 33//4
f 34//9 35//9 16//9
f 16//9 35//9 28//9
f 16//9 28//9 18//9
f 18//9 28//9 20//9
f 36//7 37//7 31//7
f 32//7 33//7 31//7
f 31//7 33//7 26//7
f 31//7 26//7 36//7
f 38//3 39//3 40//3
f 40//3 39//3 41//3
f 42//2 43//2 40//2
f 40//2 43//2 38//2
f 44//1 45//1 42//1
f 42//1 45//1 43//1
f 46//2 17//2 44//2
f 44//2 17//2 45//2
f 47//1 19//1 46//1
f 46//1 19//1 17//1
f 41//4 39//4 47//4
f 47//4 39//4 19//4
f 48//8 49//8 44//8
f 44//8 49//8 41//8
f 44//8 41//8 46//8
f 46//8 41//8 47//8
f 38//10 43//10 45//10
f 17//10 19//10 45//10
f 45//10 19//10 39//10
f 45//10 39//10 38//10
f 50//1 51//1 52//1
f 52//1 51//1 53//1
f 54//2 50//2 55//2
f 55//2 50//2 52//2
f 56//3 54//3 57//3
f 57//3 54//3 55//3
f 51//4 56//4 53//4
f 53//4 56//4 57//4
f 54//5 56//5 50//5
f 50//5 56//5 51//5
f 57//6 55//6 53//6
f 53//6 55//6 52//6
f 58//6 59//6 60//6
f 60//6 59//6 61//6
f 62//2 58//2 63//2
f 63//2 58//2 60//2
f 64//5 62//5 65//5
f 65//5 62//5 63//5
f 59//4 64//4 61//4
f 61//4 64//4 65//4
f 62//1 64//1 58//1
f 58//1 64//1 59//1
f 65//3 63//3 61//3
f 61//3 63//3 60//3
f 66//5 67//5 68//5
f 68//5 67//5 26//5
f 69//2 70//2 68//2
f 68//2 70//2 66//2
f 31//6 71//6 69//6
f 69//6 71//6 70//6
f 32//2 72//2 31//2
f 31//2 72//2 71//2
f 33//6 73//6 32//6
f 32//6 73//6 72//6
f 26//4 67//4 33//4
f 33//4 67//4 73//4
f 74//10 75//10 31//10
f 31//10 75//10 26//10
f 31//10 26//10 32//10
f 32//10 26//10 33//10
f 66//9 70//9 71//9
f 72//9 73//9 71//9
f 71//9 73//9 67//9
f 71//9 67//9 66//9
f 76//6 77//6 78//6
f 78//6 77//6 79//6
f 80//2 76//2 81//2
f 81//2 76//2 78//2
f 82//5 80//5 83//5
f 83//5 80//5 81//5
f 77//4 82//4 79//4
f 79//4 82//4 83//4
f 80//1 82//1 76//1
f 76//1 82//1 77//1
f 83//3 81//3 79//3
f 79//3 81//3 78//3
f 84//6 85//6 86//6
f 86//6 85//6 87//6
f 88//2 84//2 89//2
f 89//2 84//2 86//2
f 90//5 88//5 91//5
f 91//5 88//5 89//5
f 85//4 90//4 87//4
f 87//4 90//4 91//4
f 88//1 90//1 84//1
f 84//1 90//1 85//1
f 91//3 89//3 87//3
f 87//3 89//3 86//3
f 92//6 93//6 94//6
f 94//6 93//6 95//6
f 96//1 92//1 97//1
f 97//1 92//1 94//1
f 98//5 96//5 99//5
f 99//5 96//5 97//5
f 93//3 98//3 95//3
f 95//3 98//3 99//3
f 96//4 98//4 92//4
f 92//4 98//4 93//4
f 99//2 97//2 95//2
f 95//2 97//2 94//2
f 100//6 101//6 102//6
f 102//6 101//6 103//6
f 104//2 100//2 105//2
f 105//2 100//2 102//2
f 106//5 104//5 107//5
f 107//5 104//5 105//5
f 101//4 106//4 103//4
f 103//4 106//4 107//4
f 104//1 106//1 100//1
f 100//1 106//1 101//1
f 107//3 105//3 103//3
f 103//3 105//3 102//3
