  0
SECTION
  2
HEADER
  9
$ACADVER
  1
AC1027
  9
$ACADMAINTVER
 70
     8
  9
$DWGCODEPAGE
  3
ANSI_1252
  9
$LASTSAVEDBY
  1
User
  9
$REQUIREDVERSIONS
160
                 0
  9
$INSBASE
 10
0.0
 20
0.0
 30
0.0
  9
$EXTMIN
 10
-70.50000067178086
 20
-37.55144133901369
 30
29.47268913662014
  9
$EXTMAX
 10
70.50000067178091
 20
-19.96479900774698
 30
69.86551833767157
  9
$LIMMIN
 10
0.0
 20
0.0
  9
$LIMMAX
 10
420.0
 20
297.0
  9
$ORTHOMODE
 70
     0
  9
$REGENMODE
 70
     1
  9
$FILLMODE
 70
     1
  9
$QTEXTMODE
 70
     0
  9
$MIRRTEXT
 70
     0
  9
$LTSCALE
 40
1.0
  9
$ATTMODE
 70
     1
  9
$TEXTSIZE
 40
2.5
  9
$TRACEWID
 40
1.0
  9
$TEXTSTYLE
  7
Standard
  9
$CLAYER
  8
3D
  9
$CELTYPE
  6
ByLayer
  9
$CECOLOR
 62
   256
  9
$CELTSCALE
 40
1.0
  9
$DISPSILH
 70
     0
  9
$DIMSCALE
 40
1.0
  9
$DIMASZ
 40
2.5
  9
$DIMEXO
 40
0.625
  9
$DIMDLI
 40
3.75
  9
$DIMRND
 40
0.0
  9
$DIMDLE
 40
0.0
  9
$DIMEXE
 40
1.25
  9
$DIMTP
 40
0.0
  9
$DIMTM
 40
0.0
  9
$DIMTXT
 40
2.5
  9
$DIMCEN
 40
2.5
  9
$DIMTSZ
 40
0.0
  9
$DIMTOL
 70
     0
  9
$DIMLIM
 70
     0
  9
$DIMTIH
 70
     0
  9
$DIMTOH
 70
     0
  9
$DIMSE1
 70
     0
  9
$DIMSE2
 70
     0
  9
$DIMTAD
 70
     1
  9
$DIMZIN
 70
     8
  9
$DIMBLK
  1

  9
$DIMASO
 70
     1
  9
$DIMSHO
 70
     1
  9
$DIMPOST
  1

  9
$DIMAPOST
  1

  9
$DIMALT
 70
     0
  9
$DIMALTD
 70
     3
  9
$DIMALTF
 40
0.03937007874016
  9
$DIMLFAC
 40
1.0
  9
$DIMTOFL
 70
     1
  9
$DIMTVP
 40
0.0
  9
$DIMTIX
 70
     0
  9
$DIMSOXD
 70
     0
  9
$DIMSAH
 70
     0
  9
$DIMBLK1
  1

  9
$DIMBLK2
  1

  9
$DIMSTYLE
  2
ISO-25
  9
$DIMCLRD
 70
     0
  9
$DIMCLRE
 70
     0
  9
$DIMCLRT
 70
     0
  9
$DIMTFAC
 40
1.0
  9
$DIMGAP
 40
0.625
  9
$DIMJUST
 70
     0
  9
$DIMSD1
 70
     0
  9
$DIMSD2
 70
     0
  9
$DIMTOLJ
 70
     0
  9
$DIMTZIN
 70
     8
  9
$DIMALTZ
 70
     0
  9
$DIMALTTZ
 70
     0
  9
$DIMUPT
 70
     0
  9
$DIMDEC
 70
     2
  9
$DIMTDEC
 70
     2
  9
$DIMALTU
 70
     2
  9
$DIMALTTD
 70
     3
  9
$DIMTXSTY
  7
Standard
  9
$DIMAUNIT
 70
     0
  9
$DIMADEC
 70
     0
  9
$DIMALTRND
 40
0.0
  9
$DIMAZIN
 70
     0
  9
$DIMDSEP
 70
    44
  9
$DIMATFIT
 70
     3
  9
$DIMFRAC
 70
     0
  9
$DIMLDRBLK
  1

  9
$DIMLUNIT
 70
     2
  9
$DIMLWD
 70
    -2
  9
$DIMLWE
 70
    -2
  9
$DIMTMOVE
 70
     0
  9
$DIMFXL
 40
1.0
  9
$DIMFXLON
 70
     0
  9
$DIMJOGANG
 40
1.570796326794896
  9
$DIMTFILL
 70
     0
  9
$DIMTFILLCLR
 70
     0
  9
$DIMARCSYM
 70
     0
  9
$DIMLTYPE
  6

  9
$DIMLTEX1
  6

  9
$DIMLTEX2
  6

  9
$DIMTXTDIRECTION
 70
     0
  9
$LUNITS
 70
     2
  9
$LUPREC
 70
     4
  9
$SKETCHINC
 40
1.0
  9
$FILLETRAD
 40
0.0
  9
$AUNITS
 70
     0
  9
$AUPREC
 70
     0
  9
$MENU
  1
.
  9
$ELEVATION
 40
0.0
  9
$PELEVATION
 40
0.0
  9
$THICKNESS
 40
0.0
  9
$LIMCHECK
 70
     0
  9
$CHAMFERA
 40
0.0
  9
$CHAMFERB
 40
0.0
  9
$CHAMFERC
 40
0.0
  9
$CHAMFERD
 40
0.0
  9
$SKPOLY
 70
     0
  9
$TDCREATE
 40
2456756.516559132
  9
$TDUCREATE
 40
2456756.641559132
  9
$TDUPDATE
 40
2458739.826507361
  9
$TDUUPDATE
 40
2458739.951507361
  9
$TDINDWG
 40
1.0527260185
  9
$TDUSRTIMER
 40
1.0527259838
  9
$USRTIMER
 70
     1
  9
$ANGBASE
 50
0.0
  9
$ANGDIR
 70
     0
  9
$PDMODE
 70
     0
  9
$PDSIZE
 40
0.0
  9
$PLINEWID
 40
0.0
  9
$SPLFRAME
 70
     0
  9
$SPLINETYPE
 70
     6
  9
$SPLINESEGS
 70
     8
  9
$HANDSEED
  5
678
  9
$SURFTAB1
 70
     6
  9
$SURFTAB2
 70
     6
  9
$SURFTYPE
 70
     6
  9
$SURFU
 70
     6
  9
$SURFV
 70
     6
  9
$UCSBASE
  2

  9
$UCSNAME
  2

  9
$UCSORG
 10
0.0
 20
0.0
 30
0.0
  9
$UCSXDIR
 10
1.0
 20
0.0
 30
0.0
  9
$UCSYDIR
 10
0.0
 20
1.0
 30
0.0
  9
$UCSORTHOREF
  2

  9
$UCSORTHOVIEW
 70
     0
  9
$UCSORGTOP
 10
0.0
 20
0.0
 30
0.0
  9
$UCSORGBOTTOM
 10
0.0
 20
0.0
 30
0.0
  9
$UCSORGLEFT
 10
0.0
 20
0.0
 30
0.0
  9
$UCSORGRIGHT
 10
0.0
 20
0.0
 30
0.0
  9
$UCSORGFRONT
 10
0.0
 20
0.0
 30
0.0
  9
$UCSORGBACK
 10
0.0
 20
0.0
 30
0.0
  9
$PUCSBASE
  2

  9
$PUCSNAME
  2

  9
$PUCSORG
 10
0.0
 20
0.0
 30
0.0
  9
$PUCSXDIR
 10
1.0
 20
0.0
 30
0.0
  9
$PUCSYDIR
 10
0.0
 20
1.0
 30
0.0
  9
$PUCSORTHOREF
  2

  9
$PUCSORTHOVIEW
 70
     0
  9
$PUCSORGTOP
 10
0.0
 20
0.0
 30
0.0
  9
$PUCSORGBOTTOM
 10
0.0
 20
0.0
 30
0.0
  9
$PUCSORGLEFT
 10
0.0
 20
0.0
 30
0.0
  9
$PUCSORGRIGHT
 10
0.0
 20
0.0
 30
0.0
  9
$PUCSORGFRONT
 10
0.0
 20
0.0
 30
0.0
  9
$PUCSORGBACK
 10
0.0
 20
0.0
 30
0.0
  9
$USERI1
 70
     0
  9
$USERI2
 70
     0
  9
$USERI3
 70
     0
  9
$USERI4
 70
     0
  9
$USERI5
 70
     0
  9
$USERR1
 40
0.0
  9
$USERR2
 40
0.0
  9
$USERR3
 40
0.0
  9
$USERR4
 40
0.0
  9
$USERR5
 40
0.0
  9
$WORLDVIEW
 70
     1
  9
$SHADEDGE
 70
     3
  9
$SHADEDIF
 70
    70
  9
$TILEMODE
 70
     1
  9
$MAXACTVP
 70
    64
  9
$PINSBASE
 10
0.0
 20
0.0
 30
0.0
  9
$PLIMCHECK
 70
     0
  9
$PEXTMIN
 10
1.000000000000000E+20
 20
1.000000000000000E+20
 30
1.000000000000000E+20
  9
$PEXTMAX
 10
-1.000000000000000E+20
 20
-1.000000000000000E+20
 30
-1.000000000000000E+20
  9
$PLIMMIN
 10
0.0
 20
0.0
  9
$PLIMMAX
 10
420.0
 20
297.0
  9
$UNITMODE
 70
     0
  9
$VISRETAIN
 70
     1
  9
$PLINEGEN
 70
     0
  9
$PSLTSCALE
 70
     1
  9
$TREEDEPTH
 70
  3020
  9
$CMLSTYLE
  2
Standard
  9
$CMLJUST
 70
     0
  9
$CMLSCALE
 40
20.0
  9
$PROXYGRAPHICS
 70
     1
  9
$MEASUREMENT
 70
     1
  9
$CELWEIGHT
370
    -1
  9
$ENDCAPS
280
     0
  9
$JOINSTYLE
280
     0
  9
$LWDISPLAY
290
     0
  9
$INSUNITS
 70
     4
  9
$HYPERLINKBASE
  1

  9
$STYLESHEET
  1

  9
$XEDIT
290
     1
  9
$CEPSNTYPE
380
     0
  9
$PSTYLEMODE
290
     1
  9
$FINGERPRINTGUID
  2
{E61BAA44-B151-4681-B3D6-10366740B34D}
  9
$VERSIONGUID
  2
{342CBAFE-FAF1-4361-9092-171257A27622}
  9
$EXTNAMES
290
     1
  9
$PSVPSCALE
 40
0.0
  9
$OLESTARTUP
290
     0
  9
$SORTENTS
280
   127
  9
$INDEXCTL
280
     0
  9
$HIDETEXT
280
     1
  9
$XCLIPFRAME
280
     2
  9
$HALOGAP
280
     0
  9
$OBSCOLOR
 70
   257
  9
$OBSLTYPE
280
     0
  9
$INTERSECTIONDISPLAY
280
     0
  9
$INTERSECTIONCOLOR
 70
   257
  9
$DIMASSOC
280
     2
  9
$PROJECTNAME
  1

  9
$CAMERADISPLAY
290
     0
  9
$LENSLENGTH
 40
50.0
  9
$CAMERAHEIGHT
 40
0.0
  9
$STEPSPERSEC
 40
2.0
  9
$STEPSIZE
 40
6.0
  9
$3DDWFPREC
 40
2.0
  9
$PSOLWIDTH
 40
0.25
  9
$PSOLHEIGHT
 40
4.0
  9
$LOFTANG1
 40
1.570796326794896
  9
$LOFTANG2
 40
1.570796326794896
  9
$LOFTMAG1
 40
0.0
  9
$LOFTMAG2
 40
0.0
  9
$LOFTPARAM
 70
     7
  9
$LOFTNORMALS
280
     1
  9
$LATITUDE
 40
37.795
  9
$LONGITUDE
 40
-122.394
  9
$NORTHDIRECTION
 40
0.0
  9
$TIMEZONE
 70
 -8000
  9
$LIGHTGLYPHDISPLAY
280
     1
  9
$TILEMODELIGHTSYNCH
280
     1
  9
$CMATERIAL
347
11
  9
$SOLIDHIST
280
     0
  9
$SHOWHIST
280
     1
  9
$DWFFRAME
280
     2
  9
$DGNFRAME
280
     0
  9
$REALWORLDSCALE
290
     1
  9
$INTERFERECOLOR
 62
     1
  9
$INTERFEREOBJVS
345
33
  9
$INTERFEREVPVS
346
30
  9
$CSHADOW
280
     0
  9
$SHADOWPLANELOCATION
 40
0.0
  0
ENDSEC
  0
SECTION
  2
CLASSES
  0
CLASS
  1
ACDBDICTIONARYWDFLT
  2
AcDbDictionaryWithDefault
  3
ObjectDBX Classes
 90
        0
 91
        1
280
     0
281
     0
  0
CLASS
  1
MATERIAL
  2
AcDbMaterial
  3
ObjectDBX Classes
 90
     1153
 91
        3
280
     0
281
     0
  0
CLASS
  1
VISUALSTYLE
  2
AcDbVisualStyle
  3
ObjectDBX Classes
 90
     4095
 91
       24
280
     0
281
     0
  0
CLASS
  1
SCALE
  2
AcDbScale
  3
ObjectDBX Classes
 90
     1153
 91
       17
280
     0
281
     0
  0
CLASS
  1
TABLESTYLE
  2
AcDbTableStyle
  3
ObjectDBX Classes
 90
     4095
 91
        1
280
     0
281
     0
  0
CLASS
  1
MLEADERSTYLE
  2
AcDbMLeaderStyle
  3
ACDB_MLEADERSTYLE_CLASS
 90
     4095
 91
        1
280
     0
281
     0
  0
CLASS
  1
ACDBSECTIONVIEWSTYLE
  2
AcDbSectionViewStyle
  3
ObjectDBX Classes
 90
     1025
 91
        1
280
     0
281
     0
  0
CLASS
  1
ACDBDETAILVIEWSTYLE
  2
AcDbDetailViewStyle
  3
ObjectDBX Classes
 90
     1025
 91
        1
280
     0
281
     0
  0
CLASS
  1
CELLSTYLEMAP
  2
AcDbCellStyleMap
  3
ObjectDBX Classes
 90
     1152
 91
        3
280
     0
281
     0
  0
CLASS
  1
DICTIONARYVAR
  2
AcDbDictionaryVar
  3
ObjectDBX Classes
 90
        0
 91
       10
280
     0
281
     0
  0
CLASS
  1
SOLID_BACKGROUND
  2
AcDbSolidBackground
  3
SCENEOE
 90
     4095
 91
        1
280
     0
281
     0
  0
CLASS
  1
NPOCOLLECTION
  2
AcDbImpNonPersistentObjectsCollection
  3
ObjectDBX Classes
 90
     1153
 91
        1
280
     0
281
     0
  0
ENDSEC
  0
SECTION
  2
TABLES
  0
TABLE
  2
VPORT
  5
8
102
{ACAD_XDICTIONARY
360
82
102
}
330
0
100
AcDbSymbolTable
 70
     1
  0
VPORT
  5
57
330
8
100
AcDbSymbolTableRecord
100
AcDbViewportTableRecord
  2
*Active
 70
     0
 10
0.0
 20
0.0
 11
1.0
 21
1.0
 12
12.50141970747035
 22
-5.121063493903911
 13
0.0
 23
0.0
 14
10.0
 24
10.0
 15
10.0
 25
10.0
 16
-9.286230357307601
 26
-18.11274379856058
 36
8.381161077520971
 17
429.5902159366844
 27
833.5466196894392
 37
-344.4373813281983
 40
80.88268056916477
 41
2.534450651769087
 42
50.0
 43
0.0
 44
0.0
 50
0.0
 51
0.0000000000000032
 71
     0
 72
  1000
 73
     1
 74
     3
 75
     0
 76
     1
 77
     0
 78
     0
281
     0
 65
     1
110
0.0
120
0.0
130
0.0
111
1.0
121
0.0
131
0.0
112
0.0
122
1.0
132
0.0
 79
     0
146
0.0
348
2F
 60
     3
 61
     5
292
     1
282
     1
141
0.0
142
0.0
 63
   250
421
  3355443
1001
ACAD_NAV_VCDISPLAY
1070
     1
  0
ENDTAB
  0
TABLE
  2
LTYPE
  5
5
330
0
100
AcDbSymbolTable
 70
     1
  0
LTYPE
  5
5B
330
5
100
AcDbSymbolTableRecord
100
AcDbLinetypeTableRecord
  2
ByBlock
 70
     0
  3

 72
    65
 73
     0
 40
0.0
  0
LTYPE
  5
5C
330
5
100
AcDbSymbolTableRecord
100
AcDbLinetypeTableRecord
  2
ByLayer
 70
     0
  3

 72
    65
 73
     0
 40
0.0
  0
LTYPE
  5
5D
330
5
100
AcDbSymbolTableRecord
100
AcDbLinetypeTableRecord
  2
Continuous
 70
     0
  3
Solid line
 72
    65
 73
     0
 40
0.0
  0
ENDTAB
  0
TABLE
  2
LAYER
  5
2
102
{ACAD_XDICTIONARY
360
D5
102
}
330
0
100
AcDbSymbolTable
 70
     2
  0
LAYER
  5
54
330
2
100
AcDbSymbolTableRecord
100
AcDbLayerTableRecord
  2
0
 70
     0
 62
     7
  6
Continuous
370
    -3
390
F
347
21
348
0
  0
LAYER
  5
CF
330
2
100
AcDbSymbolTableRecord
100
AcDbLayerTableRecord
  2
3D
 70
     0
 62
     1
  6
Continuous
370
    -3
390
F
347
21
348
0
1001
AcAecLayerStandard
1000

1000

1001
AcCmTransparency
1071
        0
  0
ENDTAB
  0
TABLE
  2
STYLE
  5
3
330
0
100
AcDbSymbolTable
 70
     2
  0
STYLE
  5
55
330
3
100
AcDbSymbolTableRecord
100
AcDbTextStyleTableRecord
  2
Standard
 70
     0
 40
0.0
 41
1.0
 50
0.0
 71
     0
 42
2.5
  3
txt
  4

  0
STYLE
  5
5A
330
3
100
AcDbSymbolTableRecord
100
AcDbTextStyleTableRecord
  2
Annotative
 70
     0
 40
0.0
 41
1.0
 50
0.0
 71
     0
 42
0.2
  3
txt
  4

1001
AcadAnnotative
1000
AnnotativeData
1002
{
1070
     1
1070
     1
1002
}
  0
ENDTAB
  0
TABLE
  2
VIEW
  5
6
330
0
100
AcDbSymbolTable
 70
   147
  0
ENDTAB
  0
TABLE
  2
UCS
  5
7
330
0
100
AcDbSymbolTable
 70
     0
  0
ENDTAB
  0
TABLE
  2
APPID
  5
9
330
0
100
AcDbSymbolTable
 70
     8
  0
APPID
  5
56
330
9
100
AcDbSymbolTableRecord
100
AcDbRegAppTableRecord
  2
ACAD
 70
     0
  0
APPID
  5
5E
330
9
100
AcDbSymbolTableRecord
100
AcDbRegAppTableRecord
  2
AcadAnnotative
 70
     0
  0
APPID
  5
7A
330
9
100
AcDbSymbolTableRecord
100
AcDbRegAppTableRecord
  2
ACAD_NAV_VCDISPLAY
 70
     0
  0
APPID
  5
B7
330
9
100
AcDbSymbolTableRecord
100
AcDbRegAppTableRecord
  2
ACAD_DSTYLE_DIMJOGGED_JOGANGLE_SYMBOL
 70
     0
  0
APPID
  5
B9
330
9
100
AcDbSymbolTableRecord
100
AcDbRegAppTableRecord
  2
ACAD_MLEADERVER
 70
     0
  0
APPID
  5
BC
330
9
100
AcDbSymbolTableRecord
100
AcDbRegAppTableRecord
  2
ACAD_OBJECT_CHANGE_GUID
 70
     0
  0
APPID
  5
D0
330
9
100
AcDbSymbolTableRecord
100
AcDbRegAppTableRecord
  2
AcAecLayerStandard
 70
     0
  0
APPID
  5
D1
330
9
100
AcDbSymbolTableRecord
100
AcDbRegAppTableRecord
  2
AcCmTransparency
 70
     0
  0
ENDTAB
  0
TABLE
  2
DIMSTYLE
  5
A
330
0
100
AcDbSymbolTable
 70
     2
100
AcDbDimStyleTable
 71
     0
  0
DIMSTYLE
105
58
330
A
100
AcDbSymbolTableRecord
100
AcDbDimStyleTableRecord
  2
ISO-25
 70
     0
 41
2.5
 42
0.625
 43
3.75
 44
1.25
 50
90.0
 73
     0
 74
     0
 77
     1
 78
     8
140
2.5
141
2.5
143
0.03937007874016
147
0.625
171
     3
172
     1
271
     2
272
     2
274
     3
278
    44
283
     0
284
     8
340
55
1001
ACAD_DSTYLE_DIMJOGGED_JOGANGLE_SYMBOL
1070
   384
1040
1.570796326794896
  0
DIMSTYLE
105
59
330
A
100
AcDbSymbolTableRecord
100
AcDbDimStyleTableRecord
  2
Annotative
 70
     0
340
55
1001
AcadAnnotative
1000
AnnotativeData
1002
{
1070
     1
1070
     1
1002
}
  0
ENDTAB
  0
TABLE
  2
BLOCK_RECORD
  5
1
330
0
100
AcDbSymbolTable
 70
     1
  0
BLOCK_RECORD
  5
70
330
1
100
AcDbSymbolTableRecord
100
AcDbBlockTableRecord
  2
*Model_Space
340
73
 70
     0
280
     1
281
     0
  0
BLOCK_RECORD
  5
6C
330
1
100
AcDbSymbolTableRecord
100
AcDbBlockTableRecord
  2
*Paper_Space
340
6F
 70
     0
280
     1
281
     0
  0
BLOCK_RECORD
  5
74
330
1
100
AcDbSymbolTableRecord
100
AcDbBlockTableRecord
  2
*Paper_Space0
340
77
 70
     0
280
     1
281
     0
  0
ENDTAB
  0
ENDSEC
  0
SECTION
  2
BLOCKS
  0
BLOCK
  5
71
330
70
100
AcDbEntity
  8
0
100
AcDbBlockBegin
  2
*Model_Space
 70
     0
 10
0.0
 20
0.0
 30
0.0
  3
*Model_Space
  1

  0
ENDBLK
  5
72
330
70
100
AcDbEntity
  8
0
100
AcDbBlockEnd
  0
BLOCK
  5
6D
330
6C
100
AcDbEntity
 67
     1
  8
0
100
AcDbBlockBegin
  2
*Paper_Space
 70
     0
 10
0.0
 20
0.0
 30
0.0
  3
*Paper_Space
  1

  0
ENDBLK
  5
6E
330
6C
100
AcDbEntity
 67
     1
  8
0
100
AcDbBlockEnd
  0
BLOCK
  5
75
330
74
100
AcDbEntity
 67
     1
  8
0
100
AcDbBlockBegin
  2
*Paper_Space0
 70
     0
 10
0.0
 20
0.0
 30
0.0
  3
*Paper_Space0
  1

  0
ENDBLK
  5
76
330
74
100
AcDbEntity
 67
     1
  8
0
100
AcDbBlockEnd
  0
ENDSEC
  0
SECTION
  2
ENTITIES
  0
3DSOLID
  5
7C
330
70
100
AcDbEntity
  8
0
100
AcDbModelerGeometry
290
     1
  2
{81EC58F1-3828-429B-94C5-981C2E2B70E7}
100
AcDb3dSolid
350
0
  0
3DFACE
  5
DB
330
70
100
AcDbEntity
  8
3D
100
AcDbFace
 10
70.5
 20
-36.89667113402705
 30
29.47268913662015
 11
70.49999999999998
 21
-36.89667113402712
 31
67.26884090554142
 12
16.88610070959454
 22
-36.89585977502634
 32
67.27051597193406
 13
19.70738896123276
 23
-36.89667113402703
 33
29.53247369150444
  0
3DFACE
  5
F1
330
70
100
AcDbEntity
  8
3D
100
AcDbFace
 10
-13.35539981665698
 20
-36.89667113402701
 30
54.16368595019633
 11
-19.72406098044588
 21
-36.89526747213049
 31
29.55025698012206
 12
19.70738896123262
 22
-36.89667113402703
 32
29.53247369150408
 13
13.36260176588169
 23
-36.8746221249242
 33
54.16716689858752
  0
3DFACE
  5
F9
330
70
100
AcDbEntity
  8
3D
100
AcDbFace
 10
19.70738896135169
 20
-36.89667113402703
 30
29.5324736915043
 11
13.36260176588169
 21
-36.8746221249242
 31
54.16716689858752
 12
13.92639662691978
 22
-36.89186075935729
 32
54.22276304470876
 13
19.70738896135169
 23
-36.89667113402703
 33
29.5324736915043
  0
3DFACE
  5
FA
330
70
100
AcDbEntity
  8
3D
100
AcDbFace
 10
13.92639662691978
 20
-36.89186075935729
 30
54.22276304470876
 11
13.92639662691978
 21
-36.89186075935729
 31
54.22276304470876
 12
19.707388961177
 22
-36.89667113402689
 32
29.5324736922504
 13
13.92639662691978
 23
-36.89186075935729
 33
54.22276304470876
  0
3DFACE
  5
102
330
70
100
AcDbEntity
  8
3D
100
AcDbFace
 10
19.70738896135169
 20
-36.89667113402703
 30
29.5324736915043
 11
15.01908558229505
 21
-36.89667113402703
 31
54.6330185658428
 12
13.92639662691978
 22
-36.89186075935729
 32
54.22276304470876
 13
19.70738896135169
 23
-36.89667113402703
 33
29.5324736915043
  0
3DFACE
  5
111
330
70
100
AcDbEntity
  8
3D
100
AcDbFace
 10
15.01908558229505
 20
-36.89667113402703
 30
54.6330185658428
 11
15.41552791322561
 21
-36.89329393645147
 31
54.99012513536875
 12
19.70738896115341
 22
-36.89667113402703
 32
29.53247369256582
 13
15.01908558229505
 23
-36.89667113402703
 33
54.6330185658428
  0
3DFACE
  5
112
330
70
100
AcDbEntity
  8
3D
100
AcDbFace
 10
15.41552791322561
 20
-36.89329393645147
 30
54.99012513536875
 11
15.7932010188226
 21
-36.89667113402709
 31
55.41456480963454
 12
19.7073889611534
 22
-36.89667113402703
 32
29.53247369256589
 13
15.41533094427916
 23
-36.89370231865604
 33
54.98993839845255
  0
3DFACE
  5
11A
330
70
100
AcDbEntity
  8
3D
100
AcDbFace
 10
15.7932010188226
 20
-36.89667113402709
 30
55.41456480963454
 11
16.07658244587767
 21
-36.89522224393653
 31
55.91277816708487
 12
19.70738896112003
 22
-36.89667113402701
 32
29.53247369276385
 13
15.7932010188226
 23
-36.89667113402709
 33
55.41456480963454
  0
3DFACE
  5
129
330
70
100
AcDbEntity
  8
3D
100
AcDbFace
 10
16.076407850107
 20
-36.89478162743029
 30
55.91239891923598
 11
16.34729926161959
 21
-36.89667113402705
 31
57.01013815630104
 12
19.70738896254288
 22
-36.89667113402803
 32
29.53247368641676
 13
16.07656206642849
 23
-36.89534622518503
 33
55.91273389274258
  0
3DFACE
  5
131
330
70
100
AcDbEntity
  8
3D
100
AcDbFace
 10
16.34729926161959
 20
-36.89667113402705
 30
57.01013815630104
 11
16.88610070959454
 21
-36.89585977502634
 31
67.27051597193406
 12
19.70738896676772
 22
-36.89667113402803
 32
29.53247365172947
 13
16.34729926161959
 23
-36.89667113402705
 33
57.01013815630104
  0
3DFACE
  5
139
330
70
100
AcDbEntity
  8
3D
100
AcDbFace
 10
-70.5
 20
-36.89667113402705
 30
29.47268913662015
 11
-70.49887100693071
 21
-36.89526747213147
 31
67.27173770299348
 12
-16.9027238812428
 22
-36.8926178809466
 32
67.27719174823874
 13
-19.72406097491075
 23
-36.89526747213149
 33
29.55025701989837
  0
3DFACE
  5
13A
330
70
100
AcDbEntity
  8
3D
100
AcDbFace
 10
-19.72406097502967
 20
-36.89526747213149
 30
29.55025701989823
 11
-13.35539981665698
 21
-36.89667113402701
 31
54.16368595019633
 12
-13.95086459993417
 22
-36.90004352643483
 32
54.24347340493965
 13
-19.72406097502967
 23
-36.89526747213149
 33
29.55025701989823
  0
3DFACE
  5
13B
330
70
100
AcDbEntity
  8
3D
100
AcDbFace
 10
-13.95086459993417
 20
-36.90004352643483
 30
54.24347340493965
 11
-13.95086459993417
 21
-36.90004352643483
 31
54.24347340493965
 12
-19.72406097485499
 22
-36.89526747213163
 32
29.55025702064433
 13
-13.95086459993417
 23
-36.90004352643483
 33
54.24347340493965
  0
3DFACE
  5
13C
330
70
100
AcDbEntity
  8
3D
100
AcDbFace
 10
-19.72406097502967
 20
-36.89526747213149
 30
29.55025701989823
 11
-15.03575759597304
 21
-36.89526747213149
 31
54.65080189423673
 12
-13.95086459993417
 22
-36.90004352643483
 32
54.24347340493965
 13
-19.72406097502967
 23
-36.89526747213149
 33
29.55025701989823
  0
3DFACE
  5
13D
330
70
100
AcDbEntity
  8
3D
100
AcDbFace
 10
-15.03575759597304
 20
-36.89526747213149
 30
54.65080189423673
 11
-15.43200295795715
 21
-36.89823628750248
 31
55.00772172684648
 12
-19.7240609748314
 22
-36.89526747213149
 32
29.55025702095975
 13
-15.03575759597304
 23
-36.89526747213149
 33
54.65080189423673
  0
3DFACE
  5
13E
330
70
100
AcDbEntity
  8
3D
100
AcDbFace
 10
-15.43200295795715
 20
-36.89823628750248
 30
55.00772172684648
 11
-15.80987303250059
 21
-36.89526747213143
 31
55.43234813802847
 12
-19.7240609748314
 22
-36.89526747213149
 32
29.55025702095983
 13
-15.43200295795715
 23
-36.89823628750248
 33
55.00772172684648
  0
3DFACE
  5
13F
330
70
100
AcDbEntity
  8
3D
100
AcDbFace
 10
-15.80987303250059
 20
-36.89526747213143
 30
55.43234813802847
 11
-16.09325445955566
 21
-36.89671636222199
 31
55.9305614954788
 12
-19.72406097479801
 22
-36.89526747213151
 32
29.55025702115778
 13
-15.80987303250059
 23
-36.89526747213143
 33
55.43234813802847
  0
3DFACE
  5
140
330
70
100
AcDbEntity
  8
3D
100
AcDbFace
 10
-16.09307986378501
 20
-36.89715697872823
 30
55.93018224762992
 11
-16.37487384942663
 21
-36.89526747213143
 31
57.048167908126
 12
-19.72406097622088
 22
-36.89526747213049
 32
29.5502570148107
 13
-16.09323408010648
 23
-36.8965923809735
 33
55.93051722113651
  0
3DFACE
  5
141
330
70
100
AcDbEntity
  8
3D
100
AcDbFace
 10
-16.37487384942663
 20
-36.89526747213143
 30
57.048167908126
 11
-16.9027238812428
 21
-36.8926178809466
 31
67.27719174823874
 12
-19.72406098044571
 22
-36.89526747213049
 32
29.5502569801234
 13
-16.37487384942663
 23
-36.89526747213143
 33
57.048167908126
  0
3DFACE
  5
15E
330
70
100
AcDbEntity
  8
3D
100
AcDbFace
 10
70.49999999999998
 20
-36.89667113402712
 30
67.26884090554142
 11
70.49999999999998
 21
-36.57723711435692
 31
67.82582055983479
 12
16.91599084674742
 22
-36.59902210788039
 32
67.79302097568652
 13
16.8860976294589
 23
-36.89573097645548
 33
67.27078172028523
  0
3DFACE
  5
16D
330
70
100
AcDbEntity
  8
3D
100
AcDbFace
 10
16.91748194315954
 20
-36.60020526189884
 30
67.79122204693209
 11
16.94103854840693
 21
-36.16793282303053
 31
68.33935864436426
 12
70.49975992995406
 22
-36.18619107039648
 32
68.32973182931024
 13
70.49999999999998
 23
-36.57723677233109
 33
67.82582024236858
  0
3DFACE
  5
16E
330
70
100
AcDbEntity
  8
3D
100
AcDbFace
 10
16.94101626307469
 20
-36.16888844194662
 30
68.3389334148944
 11
16.96341780897944
 21
-35.69591739362005
 31
68.76638037431806
 12
70.49968161145885
 22
-35.7204726560964
 32
68.7820766713706
 13
70.49975992995406
 23
-36.18619107039648
 33
68.32973182931024
  0
3DFACE
  5
176
330
70
100
AcDbEntity
  8
3D
100
AcDbFace
 10
16.96341780897944
 20
-35.69591739362005
 30
68.76638037431806
 11
17.00139629319153
 21
-35.19147830147421
 31
69.16699278786724
 12
70.49999999999998
 22
-35.19966952315573
 32
69.16186968167392
 13
70.49968161160231
 23
-35.72047242142467
 33
68.78207684250376
  0
3DFACE
  5
17E
330
70
100
AcDbEntity
  8
3D
100
AcDbFace
 10
17.00139629319153
 20
-35.19147830147421
 30
69.16699278786724
 11
16.99979809815016
 21
-34.63105047555812
 31
69.46055764472498
 12
70.49985585361067
 22
-34.63999636874062
 32
69.46106407571424
 13
70.49999999999998
 23
-35.19966952315573
 33
69.16186968167392
  0
3DFACE
  5
186
330
70
100
AcDbEntity
  8
3D
100
AcDbFace
 10
16.99979809815011
 20
-34.63105047555815
 30
69.46055764472024
 11
17.01154132279294
 21
-34.02428450035485
 31
69.68463171928462
 12
70.49999999999998
 22
-34.02470367784
 32
69.68609303897894
 13
70.49989924532159
 23
-34.63999637599626
 33
69.46106407612498
  0
3DFACE
  5
1A5
330
70
100
AcDbEntity
  8
3D
100
AcDbFace
 10
17.05285692254375
 20
-34.03283190604755
 30
69.68375337830858
 11
17.01853276167179
 21
-33.39799372125404
 31
69.81803632017672
 12
70.49999999999998
 22
-33.39713791664422
 32
69.81956011613627
 13
70.49999999999998
 23
-34.02470367784
 33
69.68609303897894
  0
3DFACE
  5
1AD
330
70
100
AcDbEntity
  8
3D
100
AcDbFace
 10
17.01854345834374
 20
-33.39813097873905
 30
69.8182404248396
 11
17.09831800686083
 21
-32.75847959421837
 31
69.86440966865962
 12
70.49999999999998
 22
-32.75635020535338
 32
69.864410161518
 13
70.49999999999998
 23
-33.39713791664422
 33
69.81956011613627
  0
3DFACE
  5
1B5
330
70
100
AcDbEntity
  8
3D
100
AcDbFace
 10
70.49999999999998
 20
-32.75635020535338
 30
69.864410161518
 11
70.49999999999998
 21
-21.88595319105867
 31
69.86441016151768
 12
-70.5
 22
-21.88595319105889
 32
69.86441016151768
 13
-70.50000000000001
 23
-32.75635020535338
 33
69.86441016151802
  0
3DFACE
  5
1B7
330
70
100
AcDbEntity
  8
3D
100
AcDbFace
 10
70.49999999999994
 20
-21.16854174306058
 30
69.71332132422194
 11
70.49999999999994
 21
-20.6133199712046
 31
69.33560306674239
 12
-70.5
 22
-20.61347263679042
 32
69.33751394322917
 13
-70.5
 23
-21.16573922697447
 33
69.71404401360048
  0
3DFACE
  5
1B8
330
70
100
AcDbEntity
  8
3D
100
AcDbFace
 10
70.49999999999998
 20
-21.88595319105867
 30
69.86441016151768
 11
70.49999999999994
 21
-21.16854174306058
 31
69.71332132422194
 12
-70.5
 22
-21.16573922697447
 32
69.71404401360048
 13
-70.50000000000001
 23
-21.88595319105867
 33
69.86441016151768
  0
3DFACE
  5
1CE
330
70
100
AcDbEntity
  8
3D
100
AcDbFace
 10
70.5
 20
-20.6132901372054
 30
69.33563190879675
 11
70.48165294059351
 21
-20.18665514929859
 31
68.65803139199127
 12
-70.48155865715367
 22
-20.18775914477791
 32
68.6611822965701
 13
-70.5
 23
-20.61347263679042
 33
69.33751394322917
  0
3DFACE
  5
1CF
330
70
100
AcDbEntity
  8
3D
100
AcDbFace
 10
70.48165294059351
 20
-20.18665514929859
 30
68.65803139199127
 11
70.49999999999998
 21
-20.08706205030677
 31
68.00123846118532
 12
-70.5
 22
-20.08706205030677
 32
68.00123846118534
 13
-70.48155865715333
 23
-20.18775914477777
 33
68.66118229656975
  0
3DFACE
  5
1D7
330
70
100
AcDbEntity
  8
3D
100
AcDbFace
 10
70.49999999999998
 20
-20.08706205030677
 30
68.00123846118532
 11
70.49999999999998
 21
-20.26394046210388
 31
62.96441016151771
 12
44.98674409556588
 22
-20.26381917620327
 32
62.96786392532002
 13
44.74978070534183
 23
-20.08724881010576
 33
67.99592024834163
  0
3DFACE
  5
1DF
330
70
100
AcDbEntity
  8
3D
100
AcDbFace
 10
70.47953825923105
 20
-21.89999999998514
 30
66.73522631853234
 11
70.5
 21
-20.08706205030662
 31
68.00123846118532
 12
70.4993173169327
 22
-20.26394045885851
 32
62.96441025393343
 13
70.49999999999998
 23
-21.89999999998525
 33
62.96441025393347
  0
3DFACE
  5
1E7
330
70
100
AcDbEntity
  8
3D
100
AcDbFace
 10
70.49999999999989
 20
-36.89667113402705
 30
29.47268913662015
 11
70.49999999999998
 21
-36.89667113402712
 31
67.26884090554142
 12
70.5
 22
-34.85756917722679
 32
64.98608239591324
 13
70.49999999999998
 23
-34.87613107297771
 33
29.47268913662014
  0
3DFACE
  5
1FE
330
70
100
AcDbEntity
  8
3D
100
AcDbFace
 10
-70.50000000000001
 20
-34.87613107297771
 30
29.47268913662014
 11
-70.5
 21
-34.87613107297792
 31
64.97268913662015
 12
-70.49887100693071
 22
-36.89526747213147
 32
67.27173770299348
 13
-70.5
 23
-36.89667113402727
 33
29.47268913662015
  0
3DFACE
  5
206
330
70
100
AcDbEntity
  8
3D
100
AcDbFace
 10
-70.47570026430188
 20
-21.89999999998514
 30
66.74511204231857
 11
-70.5
 21
-20.1346755134635
 31
66.64538708149462
 12
-70.50000000000001
 22
-20.26394046210388
 32
62.96441016151771
 13
-70.5
 23
-21.89999999998536
 33
62.96441016151772
  0
3DFACE
  5
21C
330
70
100
AcDbEntity
  8
3D
100
AcDbFace
 10
-70.5
 20
-23.53646475861847
 30
68.01114356799115
 11
-70.49325831641382
 21
-23.71860969720033
 31
69.86441016151776
 12
-70.49999999999994
 22
-32.78248127665558
 32
69.84800135720661
 13
-70.49999999999937
 23
-32.0283089612642
 33
65.74176721347324
  0
3DFACE
  5
224
330
70
100
AcDbEntity
  8
3D
100
AcDbFace
 10
70.47953825923105
 20
-21.89999999998514
 30
66.73522631853234
 11
70.5
 21
-22.00906918744288
 31
67.31571133758999
 12
70.48165294059351
 22
-20.18665514929859
 32
68.65803139199127
 13
70.49999999999998
 23
-20.0870620503103
 33
68.00123846108047
  0
3DFACE
  5
225
330
70
100
AcDbEntity
  8
3D
100
AcDbFace
 10
70.5
 20
-22.00906918744288
 30
67.31571133758999
 11
70.5
 21
-22.27457558878079
 31
67.6740788134477
 12
70.5
 22
-20.6132901372054
 32
69.33563190879675
 13
70.48165294059351
 23
-20.18665514929859
 33
68.65803139199127
  0
3DFACE
  5
22D
330
70
100
AcDbEntity
  8
3D
100
AcDbFace
 10
70.5
 20
-22.27457558878079
 30
67.6740788134477
 11
70.49999999999994
 21
-22.79380547314113
 31
68.01955917808311
 12
70.49999999999994
 22
-21.16854174306058
 32
69.71332132422194
 13
70.49999424001645
 23
-20.61329013721285
 33
69.33563190887364
  0
3DFACE
  5
22E
330
70
100
AcDbEntity
  8
3D
100
AcDbFace
 10
70.49999999999998
 20
-21.88595319105867
 30
69.86441016151768
 11
70.49999999999994
 21
-23.53148180755466
 31
68.01448108247271
 12
70.49999999999994
 22
-22.79380547314113
 32
68.01955917808311
 13
70.49999999999994
 23
-21.16854174306058
 33
69.71332132422194
  0
3DFACE
  5
259
330
70
100
AcDbEntity
  8
3D
100
AcDbFace
 10
70.5
 20
-36.88616428472898
 30
67.25629635298194
 11
70.49999999999998
 21
-36.57723711435692
 31
67.82582055983479
 12
70.50000000000006
 22
-33.81381981737328
 32
65.26083410223936
 13
70.5
 23
-34.85756917722679
 33
64.98608239591324
  0
3DFACE
  5
25A
330
70
100
AcDbEntity
  8
3D
100
AcDbFace
 10
70.50000067178091
 20
-36.57723677204313
 30
67.82582024280235
 11
70.49975992995406
 21
-36.18619107039648
 31
68.32973182931024
 12
70.50000000000003
 22
-33.02293110223344
 32
65.48294932677304
 13
70.50000000000006
 23
-33.81381981737328
 33
65.26083410223936
  0
3DFACE
  5
262
330
70
100
AcDbEntity
  8
3D
100
AcDbFace
 10
70.49977183100008
 20
-36.18619107424122
 30
68.3297318272656
 11
70.49968161160231
 21
-35.72047242142467
 31
68.78207684250376
 12
70.5
 22
-32.00217789559935
 32
65.75817604847711
 13
70.49999999999997
 23
-33.02751631119327
 33
65.48667966734723
  0
3DFACE
  5
26B
330
70
100
AcDbEntity
  8
3D
100
AcDbFace
 10
70.5
 20
-32.00217789559935
 30
65.75817604847711
 11
70.49999999999998
 21
-32.75635020535338
 31
69.864410161518
 12
70.49999999999998
 22
-21.88595319105867
 32
69.86441016151768
 13
70.49999999999997
 23
-23.53209238354188
 33
68.01468045175827
  0
3DFACE
  5
273
330
70
100
AcDbEntity
  8
3D
100
AcDbFace
 10
70.5
 20
-32.00217789559935
 30
65.75817604847711
 11
70.49968161145885
 21
-35.7204726560964
 31
68.7820766713706
 12
70.49985585361067
 22
-34.6399963687406
 32
69.46106407571422
 13
70.5
 23
-32.00217789559935
 33
65.75817604847711
  0
3DFACE
  5
27B
330
70
100
AcDbEntity
  8
3D
100
AcDbFace
 10
70.49985585041743
 20
-34.63998397045275
 30
69.46107070368666
 11
70.49999999999998
 21
-33.39713791664422
 31
69.81956011613627
 12
70.49999999999942
 22
-32.00217790240517
 32
65.75817605401194
 13
70.4995238715602
 23
-34.63999631322897
 33
69.4610640725717
  0
3DFACE
  5
283
330
70
100
AcDbEntity
  8
3D
100
AcDbFace
 10
70.49999999999993
 20
-33.39713791664422
 30
69.81956011613627
 11
70.49999999999998
 21
-32.75635020535338
 31
69.86441016151802
 12
70.49999999999942
 22
-32.00217788996221
 32
65.75817601778464
 13
70.49999999999998
 23
-33.39713791664422
 33
69.81956011613627
  0
3DFACE
  5
2D8
330
70
100
AcDbEntity
  8
3D
100
AcDbFace
 10
-70.49999999999991
 20
-20.08706205030678
 30
68.00123846118534
 11
-70.5
 21
-20.26394046210532
 31
62.96441016151771
 12
-44.9867440955658
 22
-20.29019281930647
 32
62.95145512100862
 13
-44.74978070534176
 23
-20.46676318540398
 33
67.97951144403024
  0
3DFACE
  5
2D9
330
70
100
AcDbEntity
  8
3D
100
AcDbFace
 10
-16.90272424838225
 20
-36.89261788129139
 30
67.27718683884813
 11
-16.91599084674737
 21
-36.62515317918238
 31
67.77661217137515
 12
-70.49999999999994
 22
-36.60336818565891
 32
67.8094117555234
 13
-70.49887100693071
 23
-36.89526747213147
 33
67.27173770299348
  0
3DFACE
  5
2DA
330
70
100
AcDbEntity
  8
3D
100
AcDbFace
 10
-70.49999999999994
 20
-36.60336784363308
 30
67.80941143805718
 11
-70.49975992995399
 21
-36.21232214169848
 31
68.31332302499884
 12
-16.94103854840688
 22
-36.19406389433251
 32
68.3229498400529
 13
-16.91748194315948
 23
-36.62633633320083
 33
67.77481324262073
  0
3DFACE
  5
2DB
330
70
100
AcDbEntity
  8
3D
100
AcDbFace
 10
-70.49975992995399
 20
-36.21232214169848
 30
68.31332302499884
 11
-70.49968161145881
 21
-35.7466037273984
 31
68.76566786705921
 12
-16.96341780897938
 22
-35.72204846492204
 32
68.74997157000669
 13
-16.94101626307463
 23
-36.19501951324861
 33
68.32252461058303
  0
3DFACE
  5
2DC
330
70
100
AcDbEntity
  8
3D
100
AcDbFace
 10
-70.49968161160226
 20
-35.74660349272666
 30
68.76566803819236
 11
-70.49999999999994
 21
-35.22580059445772
 31
69.14546087736252
 12
-17.00139629319147
 22
-35.21760937277619
 32
69.15058398355587
 13
-16.96341780897938
 23
-35.72204846492204
 33
68.74997157000669
  0
3DFACE
  5
2DD
330
70
100
AcDbEntity
  8
3D
100
AcDbFace
 10
-70.49999999999994
 20
-35.22580059445772
 30
69.14546087736252
 11
-70.4998558536106
 21
-34.6661274400426
 31
69.44465527140284
 12
-16.99979809815011
 22
-34.6571815468601
 32
69.44414884041361
 13
-17.00139629319147
 23
-35.21760937277619
 33
69.15058398355587
  0
3DFACE
  5
2DE
330
70
100
AcDbEntity
  8
3D
100
AcDbFace
 10
-70.49989924532153
 20
-34.66612744729825
 30
69.44465527181359
 11
-70.49999999999994
 21
-34.05083474914199
 31
69.66968423466754
 12
-17.01154132279288
 22
-34.05041557165684
 32
69.66822291497326
 13
-16.99979809815005
 23
-34.65718154686013
 33
69.44414884040887
  0
3DFACE
  5
2DF
330
70
100
AcDbEntity
  8
3D
100
AcDbFace
 10
-70.49999999999994
 20
-34.05083474914199
 30
69.66968423466754
 11
-70.49999999999994
 21
-33.42326898794621
 31
69.80315131182488
 12
-17.01853276167173
 22
-33.42412479255603
 32
69.80162751586535
 13
-17.01154132279288
 23
-34.05041557165684
 33
69.66822291497326
  0
3DFACE
  5
2E0
330
70
100
AcDbEntity
  8
3D
100
AcDbFace
 10
-70.49999999999994
 20
-33.42326898794621
 30
69.80315131182488
 11
-70.49999999999994
 21
-32.78248127665537
 31
69.84800135720661
 12
-17.01853499112563
 22
-32.75635020535338
 32
69.864410161518
 13
-17.01854345834368
 23
-33.42426205004104
 33
69.80183162052823
  0
3DFACE
  5
2E1
330
70
100
AcDbEntity
  8
3D
100
AcDbFace
 10
-70.5
 20
-21.89999999998536
 30
62.96441016151772
 11
-70.5
 21
-20.26394046210388
 31
62.96441016151772
 12
-70.49999999999994
 22
-20.11319312160862
 32
67.98482965687393
 13
-70.47570026430188
 23
-21.89999999998514
 33
66.74511204231857
  0
3DFACE
  5
2E2
330
70
100
AcDbEntity
  8
3D
100
AcDbFace
 10
-70.49999999999994
 20
-20.11319312161228
 30
67.98482965676908
 11
-70.48165294059344
 21
-20.21278622060058
 31
68.64162258767987
 12
-70.49999999999994
 22
-22.03520025874487
 32
67.29930253327859
 13
-70.47570026430188
 23
-21.89999999998514
 33
66.74511204231857
  0
3DFACE
  5
2E3
330
70
100
AcDbEntity
  8
3D
100
AcDbFace
 10
-70.48165294059344
 20
-20.21278622060058
 30
68.64162258767987
 11
-70.49999999999994
 21
-20.6394212085074
 31
69.31922310448536
 12
-70.49999999999994
 22
-22.30070666008277
 32
67.65767000913631
 13
-70.49999999999994
 23
-22.03520025874487
 33
67.29930253327859
  0
3DFACE
  5
2E4
330
70
100
AcDbEntity
  8
3D
100
AcDbFace
 10
-70.4999942400164
 20
-20.63942120851485
 30
69.31922310456224
 11
-70.49999999999989
 21
-21.19467281436258
 31
69.69691251991054
 12
-70.49999999999989
 22
-22.81993654444312
 32
68.00315037377171
 13
-70.49999999999994
 23
-22.30070666008277
 33
67.65767000913631
  0
3DFACE
  5
2E5
330
70
100
AcDbEntity
  8
3D
100
AcDbFace
 10
-70.49999999999989
 20
-21.19467281436258
 30
69.69691251991054
 11
-70.49999999999989
 21
-22.81993654444312
 31
68.00315037377171
 12
-70.49999999999989
 22
-23.55761287885664
 32
67.99807227816131
 13
-70.49999999999994
 23
-21.91208426236065
 33
69.84800135720629
  0
3DFACE
  5
2E6
330
70
100
AcDbEntity
  8
3D
100
AcDbFace
 10
-70.5
 20
-34.87613107297792
 30
64.97268913662015
 11
-70.49999999999997
 21
-33.83995088867527
 31
65.24442529792796
 12
-70.49999999999994
 22
-36.60336818565891
 32
67.8094117555234
 13
-70.49887100693071
 23
-36.89526747213147
 33
67.27173770299348
  0
3DFACE
  5
2E7
330
70
100
AcDbEntity
  8
3D
100
AcDbFace
 10
-70.49999999999997
 20
-33.83995088867527
 30
65.24442529792796
 11
-70.49999999999997
 21
-33.04906217353543
 31
65.46654052246164
 12
-70.49975992995399
 22
-36.21232214169848
 32
68.31332302499884
 13
-70.50000067178086
 23
-36.60336784334513
 33
67.80941143849095
  0
3DFACE
  5
2E8
330
70
100
AcDbEntity
  8
3D
100
AcDbFace
 10
-70.49999999999991
 20
-33.05364738249526
 30
65.47027086303583
 11
-70.49999999999994
 21
-32.02830896690134
 31
65.74176724416571
 12
-70.49968161160226
 22
-35.74660349272666
 32
68.76566803819236
 13
-70.49977183100003
 23
-36.21232214554321
 33
68.31332302295421
  0
3DFACE
  5
2E9
330
70
100
AcDbEntity
  8
3D
100
AcDbFace
 10
-70.49999999999991
 20
-23.55822345484387
 30
67.99827164744687
 11
-70.49999999999994
 21
-21.91208426236065
 31
69.84800135720629
 12
-70.49999999999994
 22
-32.78248127665537
 32
69.84800135720661
 13
-70.49999999999994
 23
-32.02830896690134
 33
65.74176724416571
  0
3DFACE
  5
2EA
330
70
100
AcDbEntity
  8
3D
100
AcDbFace
 10
-70.49999999999994
 20
-32.02830896690134
 30
65.74176724416571
 11
-70.4998558536106
 21
-34.6661274400426
 31
69.44465527140282
 12
-70.49968161145881
 22
-35.7466037273984
 32
68.76566786705921
 13
-70.49999999999994
 23
-32.02830896690134
 33
65.74176724416571
  0
3DFACE
  5
2EB
330
70
100
AcDbEntity
  8
3D
100
AcDbFace
 10
-70.49952387156015
 20
-34.66612738453097
 30
69.4446552682603
 11
-70.49999999999937
 21
-32.02830897370716
 31
65.74176724970055
 12
-70.49999999999994
 22
-33.42326898794621
 32
69.80315131182488
 13
-70.49985585041736
 23
-34.66611504175475
 33
69.44466189937526
  0
3DFACE
  5
2EC
330
70
100
AcDbEntity
  8
3D
100
AcDbFace
 10
-70.49999999999994
 20
-33.42326898794621
 30
69.80315131182488
 11
-70.49999999999937
 21
-32.0283089612642
 31
65.74176721347324
 12
-70.49999999999994
 22
-32.78248127665537
 32
69.84800135720663
 13
-70.49999999999989
 23
-33.42326898794621
 33
69.80315131182488
  0
3DFACE
  5
360
330
70
100
AcDbEntity
  8
3D
100
AcDbFace
 10
70.49999999999998
 20
-34.87613107297749
 30
29.47268913662014
 11
70.5
 21
-34.85756917722679
 31
64.98608239591324
 12
16.76581117913383
 22
-34.90347907031372
 32
64.99582125983311
 13
19.70738896123275
 23
-34.87613107297747
 33
29.53247369150443
  0
3DFACE
  5
361
330
70
100
AcDbEntity
  8
3D
100
AcDbFace
 10
-13.38198563133949
 20
-34.89676699612643
 30
54.17442101070353
 11
-19.7240609804459
 21
-34.87472741108093
 31
29.55025698012205
 12
19.70738896123261
 22
-34.87613107297747
 32
29.53247369150407
 13
13.36260176588168
 23
-34.85408206387464
 33
54.16716689858752
  0
3DFACE
  5
362
330
70
100
AcDbEntity
  8
3D
100
AcDbFace
 10
19.70738896135167
 20
-34.87613107297747
 30
29.53247369150429
 11
13.36260176588168
 21
-34.85408206387464
 31
54.16716689858752
 12
13.92639662691977
 22
-34.87132069830772
 32
54.22276304470875
 13
19.70738896135167
 23
-34.87613107297747
 33
29.53247369150429
  0
3DFACE
  5
363
330
70
100
AcDbEntity
  8
3D
100
AcDbFace
 10
13.92639662691977
 20
-34.87132069830772
 30
54.22276304470875
 11
13.92639662691977
 21
-34.87132069830772
 31
54.22276304470875
 12
19.70738896117698
 22
-34.87613107297732
 32
29.53247369225039
 13
13.92639662691977
 23
-34.87132069830772
 33
54.22276304470875
  0
3DFACE
  5
364
330
70
100
AcDbEntity
  8
3D
100
AcDbFace
 10
19.70738896135167
 20
-34.87613107297747
 30
29.53247369150429
 11
15.01908558229503
 21
-34.87613107297747
 31
54.6330185658428
 12
13.92639662691977
 22
-34.87132069830772
 32
54.22276304470875
 13
19.70738896135167
 23
-34.87613107297747
 33
29.53247369150429
  0
3DFACE
  5
365
330
70
100
AcDbEntity
  8
3D
100
AcDbFace
 10
15.01908558229503
 20
-34.87613107297747
 30
54.6330185658428
 11
15.4155279132256
 21
-34.8727538754019
 31
54.99012513536875
 12
19.7073889611534
 22
-34.87613107297747
 32
29.53247369256581
 13
15.01908558229503
 23
-34.87613107297747
 33
54.6330185658428
  0
3DFACE
  5
366
330
70
100
AcDbEntity
  8
3D
100
AcDbFace
 10
15.4155279132256
 20
-34.8727538754019
 30
54.99012513536875
 11
15.79320101882258
 21
-34.87613107297752
 31
55.41456480963454
 12
19.70738896115339
 22
-34.87613107297747
 32
29.53247369256589
 13
15.41533094427915
 23
-34.87316225760647
 33
54.98993839845255
  0
3DFACE
  5
367
330
70
100
AcDbEntity
  8
3D
100
AcDbFace
 10
15.79320101882258
 20
-34.87613107297752
 30
55.41456480963454
 11
16.07658244587766
 21
-34.87468218288697
 31
55.91277816708486
 12
19.70738896112002
 22
-34.87613107297744
 32
29.53247369276384
 13
15.79320101882258
 23
-34.87613107297752
 33
55.41456480963454
  0
3DFACE
  5
368
330
70
100
AcDbEntity
  8
3D
100
AcDbFace
 10
16.07640785010699
 20
-34.87424156638073
 30
55.91239891923597
 11
16.34729926161958
 21
-34.87613107297748
 31
57.01013815630103
 12
19.70738896254287
 22
-34.87613107297846
 32
29.53247368641676
 13
16.07656206642848
 23
-34.87480616413546
 33
55.91273389274257
  0
3DFACE
  5
369
330
70
100
AcDbEntity
  8
3D
100
AcDbFace
 10
16.34729926161958
 20
-34.87613107297748
 30
57.01013815630103
 11
16.76569711669759
 21
-34.90420171990857
 31
64.99364481889836
 12
19.70738896676771
 22
-34.87613107297846
 32
29.53247365172946
 13
16.34729926161958
 23
-34.87613107297748
 33
57.01013815630103
  0
3DFACE
  5
36A
330
70
100
AcDbEntity
  8
3D
100
AcDbFace
 10
-70.50000000000001
 20
-34.87613107297749
 30
29.47268913662014
 11
-70.5
 21
-34.87613107297792
 31
64.97268913662015
 12
-16.9027238812428
 22
-36.8926178809466
 32
67.27719174823874
 13
-19.72406097491077
 23
-34.87472741108192
 33
29.55025701989836
  0
3DFACE
  5
36B
330
70
100
AcDbEntity
  8
3D
100
AcDbFace
 10
-19.72406097502968
 20
-34.87472741108192
 30
29.55025701989822
 11
-13.38198563133949
 21
-34.89676699612643
 31
54.17442101070353
 12
-13.9430686405978
 22
-34.87953778575167
 32
54.24054637310268
 13
-19.72406097502968
 23
-34.87472741108192
 33
29.55025701989822
  0
3DFACE
  5
36C
330
70
100
AcDbEntity
  8
3D
100
AcDbFace
 10
-13.9430686405978
 20
-34.87953778575167
 30
54.24054637310268
 11
-13.9430686405978
 21
-34.87953778575167
 31
54.24054637310268
 12
-19.72406097485501
 22
-34.87472741108206
 32
29.55025702064432
 13
-13.9430686405978
 23
-34.87953778575167
 33
54.24054637310268
  0
3DFACE
  5
36D
330
70
100
AcDbEntity
  8
3D
100
AcDbFace
 10
-19.72406097502968
 20
-34.87472741108192
 30
29.55025701989822
 11
-15.03575759597305
 21
-34.87472741108192
 31
54.65080189423673
 12
-13.9430686405978
 22
-34.87953778575167
 32
54.24054637310268
 13
-19.72406097502968
 23
-34.87472741108192
 33
29.55025701989822
  0
3DFACE
  5
36E
330
70
100
AcDbEntity
  8
3D
100
AcDbFace
 10
-15.03575759597305
 20
-34.87472741108192
 30
54.65080189423673
 11
-15.43200295795716
 21
-34.87769622645291
 31
55.00772172684648
 12
-19.72406097483142
 22
-34.87472741108192
 32
29.55025702095975
 13
-15.03575759597305
 23
-34.87472741108192
 33
54.65080189423673
  0
3DFACE
  5
36F
330
70
100
AcDbEntity
  8
3D
100
AcDbFace
 10
-15.43200295795716
 20
-34.87769622645291
 30
55.00772172684648
 11
-15.8098730325006
 21
-34.87472741108187
 31
55.43234813802847
 12
-19.72406097483142
 22
-34.87472741108192
 32
29.55025702095982
 13
-15.43200295795716
 23
-34.87769622645291
 33
55.00772172684648
  0
3DFACE
  5
370
330
70
100
AcDbEntity
  8
3D
100
AcDbFace
 10
-15.8098730325006
 20
-34.87472741108187
 30
55.43234813802847
 11
-16.09325445955568
 21
-34.87617630117242
 31
55.93056149547879
 12
-19.72406097479802
 22
-34.87472741108194
 32
29.55025702115777
 13
-15.8098730325006
 23
-34.87472741108187
 33
55.43234813802847
  0
3DFACE
  5
371
330
70
100
AcDbEntity
  8
3D
100
AcDbFace
 10
-16.09325445955568
 20
-34.87617630117242
 30
55.93056149547879
 11
-16.37487384942665
 21
-34.87472741108187
 31
57.048167908126
 12
-19.7240609762209
 22
-34.87472741108093
 32
29.55025701481069
 13
-16.09325445955568
 23
-34.87617630117242
 33
55.93056149547879
  0
3DFACE
  5
372
330
70
100
AcDbEntity
  8
3D
100
AcDbFace
 10
-16.37487384942665
 20
-34.87472741108187
 30
57.048167908126
 11
-16.9027238812428
 21
-36.8926178809466
 31
67.27719174823874
 12
-19.72406098044572
 22
-34.87472741108093
 32
29.5502569801234
 13
-16.37487384942665
 23
-34.87472741108187
 33
57.048167908126
  0
3DFACE
  5
3E0
330
70
100
AcDbEntity
  8
3D
100
AcDbFace
 10
70.49999999999998
 20
-20.26394046210388
 30
62.96441016151771
 11
70.49999999999998
 21
-21.89999999998525
 31
62.96441025393347
 12
44.9898763014055
 22
-21.89999999998527
 32
62.97056498353859
 13
44.98674409556588
 23
-20.26381917620327
 33
62.96786392532002
  0
3DFACE
  5
3F7
330
70
100
AcDbEntity
  8
3D
100
AcDbFace
 10
44.99999999999988
 20
-20.26881693635272
 30
62.95912878625296
 11
44.98945634298877
 21
-28.12396467366786
 31
62.77999243443026
 12
44.99780216524733
 22
-30.2530734721312
 32
59.13272192879912
 13
44.99660930273501
 23
-20.40137460681274
 33
59.050916597335
  0
3DFACE
  5
41B
330
70
100
AcDbEntity
  8
3D
100
AcDbFace
 10
25.03711033002537
 20
-20.2712828206346
 30
62.96145423299083
 11
25.37656349989061
 21
-28.07431447854302
 31
62.78639858943996
 12
25.0
 22
-30.13009021629404
 32
59.30250703815627
 13
25.0337196327605
 23
-20.40384049109462
 33
59.05324204407288
  0
3DFACE
  5
423
330
70
100
AcDbEntity
  8
3D
100
AcDbFace
 10
25.00000000000011
 20
-20.40888784060796
 30
59.05677383863694
 11
44.99664308038115
 21
-20.40136573357012
 31
59.05115618939995
 12
44.75370941273115
 22
-20.08719961335734
 32
67.99732118569782
 13
24.9081076709777
 23
-20.08717135870106
 33
67.99812577146304
  0
3DFACE
  5
43B
330
70
100
AcDbEntity
  8
3D
100
AcDbFace
 10
-70.5
 20
-21.89999999998525
 30
62.96441016151773
 11
-70.47570026430188
 21
-21.89999999998514
 31
66.74511204231857
 12
70.49999999999989
 22
-21.8984397132768
 32
66.73695367030818
 13
70.49999999999998
 23
-21.89999999998525
 33
62.96441025393347
  0
3DFACE
  5
46D
330
70
100
AcDbEntity
  8
3D
100
AcDbFace
 10
44.99844051560126
 20
-20.40156851230199
 30
59.04586187130462
 11
45.0
 21
-25.90406095884903
 31
58.67309820874513
 12
25.00000000000006
 22
-25.92304801193238
 32
58.68778190546376
 13
25.00000000000006
 23
-21.90019540768669
 33
58.66524655542926
  0
3DFACE
  5
4A0
330
70
100
AcDbEntity
  8
3D
100
AcDbFace
 10
45.0
 20
-25.90491057299809
 30
58.68161414746136
 11
45.00000000000001
 21
-30.25308698846021
 31
59.13270326876785
 12
25.0
 22
-30.13009021629404
 32
59.30250703815627
 13
25.00000000000006
 23
-25.92304801193238
 33
58.68778190546376
  0
3DFACE
  5
4B6
330
70
100
AcDbEntity
  8
3D
100
AcDbFace
 10
-24.99549483276439
 20
-20.26862875528909
 30
62.96448747133782
 11
-25.02768950675227
 21
-21.89981181892159
 31
62.96912899751546
 12
-24.99549483276431
 22
-21.89631661295701
 32
58.68111422988533
 13
-24.99888553002927
 23
-20.4011864257491
 33
59.05627528241986
  0
3DFACE
  5
4B7
330
70
100
AcDbEntity
  8
3D
100
AcDbFace
 10
-44.95838450273891
 20
-20.27109463957097
 30
62.96681291807569
 11
-44.99057917672678
 21
-21.90227770320348
 31
62.97145444425333
 12
-44.99549483276422
 22
-21.90000722662305
 32
58.67060524051412
 13
-44.99549483276417
 23
-20.40869965954433
 33
59.0621325237218
  0
3DFACE
  5
4B8
330
70
100
AcDbEntity
  8
3D
100
AcDbFace
 10
-44.99549483276417
 20
-20.40869965954433
 30
59.0621325237218
 11
-24.99885175238313
 21
-20.40117755250648
 31
59.05651487448481
 12
-25.24178542003312
 22
-20.08701143229371
 32
68.00267987078267
 13
-45.08738716178657
 23
-20.08698317763742
 33
68.0034844565479
  0
3DFACE
  5
4B9
330
70
100
AcDbEntity
  8
3D
100
AcDbFace
 10
-24.99549483276431
 20
-21.89631661295701
 30
58.68111422988533
 11
-24.99549483276428
 21
-25.90387277778539
 31
58.67845689382999
 12
-44.99549483276422
 22
-25.92285983086874
 32
58.69314059054862
 13
-44.99549483276422
 23
-21.90000722662305
 33
58.67060524051412
  0
3DFACE
  5
4BA
330
70
100
AcDbEntity
  8
3D
100
AcDbFace
 10
-24.99549483276428
 20
-25.90472239193446
 30
58.68697283254622
 11
-24.99549483276427
 21
-30.25289880739658
 31
59.13806195385271
 12
-45.0
 22
-30.27987129534473
 32
59.12346748858317
 13
-44.99549483276422
 23
-25.92285983086874
 33
58.69314059054862
  0
3DFACE
  5
4C9
330
70
100
AcDbEntity
  8
3D
100
AcDbFace
 10
-16.09307986378501
 20
-36.89715697872823
 30
55.93018224762992
 11
-16.37487384942663
 21
-36.89526747213143
 31
57.048167908126
 12
-16.37488208070989
 22
-34.87472742373301
 32
57.04832757776371
 13
-16.09325445955568
 23
-34.87617630117242
 33
55.93056149547879
  0
3DFACE
  5
4D1
330
70
100
AcDbEntity
  8
3D
100
AcDbFace
 10
-16.09307991212651
 20
-36.89659741624485
 30
55.93018235263481
 11
-15.80987303250059
 21
-36.89526747213143
 31
55.43234813802847
 12
-15.8098730325006
 22
-34.87472741108187
 32
55.43234813802846
 13
-16.09325445955568
 23
-34.87617630117242
 33
55.93056149547879
  0
3DFACE
  5
4D9
330
70
100
AcDbEntity
  8
3D
100
AcDbFace
 10
-15.80987303250059
 20
-36.89526747213143
 30
55.43234813802847
 11
-15.8098730325006
 21
-34.87472741108187
 31
55.43234813802846
 12
-15.43200295795716
 22
-34.87769622645291
 32
55.00772172684648
 13
-15.43200295795715
 23
-36.89823628750248
 33
55.00772172684648
  0
3DFACE
  5
4E1
330
70
100
AcDbEntity
  8
3D
100
AcDbFace
 10
-15.43200295795715
 20
-36.89823628750248
 30
55.00772172684648
 11
-15.43200295795716
 21
-34.87769622645291
 31
55.00772172684648
 12
-15.03575759597305
 22
-34.87472741108192
 32
54.65080189423673
 13
-15.03575759597304
 23
-36.89526747213149
 33
54.65080189423673
  0
3DFACE
  5
4E2
330
70
100
AcDbEntity
  8
3D
100
AcDbFace
 10
-15.03575759597305
 20
-36.89526747213149
 30
54.65080189423674
 11
-15.03575759597304
 21
-34.87472741108192
 31
54.65080189423677
 12
-13.9430686405978
 22
-34.87953778575167
 32
54.24054637310268
 13
-13.95086459993417
 23
-36.90004352643483
 33
54.24347340493965
  0
3DFACE
  5
4E3
330
70
100
AcDbEntity
  8
3D
100
AcDbFace
 10
-13.95086459993418
 20
-36.90004352643482
 30
54.24347340493965
 11
-13.9427367187401
 21
-34.87953806194448
 31
54.24196399247233
 12
-13.38198563133949
 22
-34.89676699612643
 32
54.17442101070353
 13
-13.35539981665698
 23
-36.89667113402701
 33
54.16368595019633
  0
3DFACE
  5
4EB
330
70
100
AcDbEntity
  8
3D
100
AcDbFace
 10
-13.35539981665698
 20
-36.89667113402701
 30
54.16368595019633
 11
-13.38198563133949
 21
-34.89676699612643
 31
54.17442101070353
 12
13.36260176588168
 22
-34.85408206387464
 32
54.16716689858752
 13
13.36426921376187
 23
-36.87462074886419
 33
54.16716711583058
  0
3DFACE
  5
4FB
330
70
100
AcDbEntity
  8
3D
100
AcDbFace
 10
25.0
 20
-30.13009021629404
 30
59.30250703815627
 11
25.37656349989061
 21
-28.07431447854302
 31
62.78639858943996
 12
44.98945634298877
 22
-28.12396467366786
 32
62.77999243443026
 13
44.99780216524733
 23
-30.2530734721312
 33
59.13272192879912
  0
3DFACE
  5
50B
330
70
100
AcDbEntity
  8
3D
100
AcDbFace
 10
-70.5
 20
-21.88595319105889
 30
69.86441016151772
 11
70.50000000000006
 21
-21.88595319105867
 31
69.86441016151767
 12
70.49999999999998
 22
-32.75635020535359
 32
69.864410161518
 13
-70.5
 23
-32.75635020535338
 33
69.86441016151802
  0
3DFACE
  5
513
330
70
100
AcDbEntity
  8
3D
100
AcDbFace
 10
13.36319756478549
 20
-36.86792464596783
 30
54.16716918031704
 11
13.36260176588168
 21
-34.85408206387464
 31
54.16716689858752
 12
13.92639662691977
 22
-34.87132069830772
 32
54.22276304470875
 13
13.92639662691978
 23
-36.89186075935729
 33
54.22276304470876
  0
3DFACE
  5
514
330
70
100
AcDbEntity
  8
3D
100
AcDbFace
 10
13.92614483513965
 20
-36.89185306055272
 30
54.22273821537177
 11
13.92639662691977
 21
-34.87132069830772
 31
54.22276304470875
 12
15.01908558229503
 22
-34.87613107297747
 32
54.6330185658428
 13
15.01908558229504
 23
-36.89667113402703
 33
54.6330185658428
  0
3DFACE
  5
515
330
70
100
AcDbEntity
  8
3D
100
AcDbFace
 10
15.01908558229504
 20
-36.89667113402703
 30
54.6330185658428
 11
15.01908558229503
 21
-34.87613107297747
 31
54.6330185658428
 12
15.4155279132256
 22
-34.8727538754019
 32
54.99012513536875
 13
15.41552791322561
 23
-36.89329393645147
 33
54.99012513536875
  0
3DFACE
  5
516
330
70
100
AcDbEntity
  8
3D
100
AcDbFace
 10
15.41552802844404
 20
-36.89358613817086
 30
54.99012524461183
 11
15.4155279132256
 21
-34.8727538754019
 31
54.99012513536875
 12
15.79320101882258
 22
-34.87613107297752
 32
55.41456480963454
 13
15.7932010188226
 23
-36.89667113402709
 33
55.41456480963454
  0
3DFACE
  5
517
330
70
100
AcDbEntity
  8
3D
100
AcDbFace
 10
15.7932010188226
 20
-36.89667113402709
 30
55.41456480963454
 11
15.79320101882257
 21
-34.87613107297752
 31
55.41456480963456
 12
16.07658244587766
 22
-34.87468218288697
 32
55.91277816708486
 13
16.07659463538356
 23
-36.89519697514311
 33
55.91280464968535
  0
3DFACE
  5
518
330
70
100
AcDbEntity
  8
3D
100
AcDbFace
 10
16.07657301947939
 20
-36.89508918189642
 30
55.91275768800444
 11
16.07658244587766
 21
-34.87468218288697
 31
55.91277816708486
 12
16.34729926161958
 22
-34.87613107297748
 32
57.01013815630102
 13
16.34729926161961
 23
-36.89667113402727
 33
57.01013815630104
  0
3DFACE
  5
519
330
70
100
AcDbEntity
  8
3D
100
AcDbFace
 10
-12.9
 20
-37.55000000000018
 30
55.66441016151816
 11
-12.9
 21
-36.05000000000102
 31
55.66441016151814
 12
12.9
 22
-36.05000000000086
 32
55.66441016151816
 13
12.90483679514923
 23
-37.55000000000018
 33
55.67462049043541
  0
3DFACE
  5
521
330
70
100
AcDbEntity
  8
3D
100
AcDbFace
 10
-12.89999999999999
 20
-37.55000000000019
 30
55.66441016151816
 11
-13.64297701666577
 21
-37.55000000000024
 31
55.80886023833362
 12
-13.65131454570747
 22
-36.05144133900677
 32
55.81089284209312
 13
-12.9
 23
-36.05000000000086
 33
55.66441016151816
  0
3DFACE
  5
530
330
70
100
AcDbEntity
  8
3D
100
AcDbFace
 10
-13.64297701666618
 20
-37.55000000000013
 30
55.80886023835879
 11
-14.31421356237309
 21
-37.55000000000018
 31
56.25019659914506
 12
-14.31421356237309
 22
-36.05000000000084
 32
56.25019659914506
 13
-13.65131454570747
 23
-36.05144133900677
 33
55.81089284209312
  0
3DFACE
  5
531
330
70
100
AcDbEntity
  8
3D
100
AcDbFace
 10
-14.31421356237309
 20
-37.55000000000018
 30
56.25019659914506
 11
-14.72638156707279
 21
-37.55000000000018
 31
56.8493455190163
 12
-14.69015933955298
 22
-36.05000000000082
 32
56.77259765935684
 13
-14.31421356237309
 23
-36.05000000000084
 33
56.25019659914506
  0
3DFACE
  5
539
330
70
100
AcDbEntity
  8
3D
100
AcDbFace
 10
-14.72638156707279
 20
-37.55000000000018
 30
56.8493455190163
 11
-14.90000000000002
 21
-37.50973697167359
 31
57.68469876353015
 12
-14.9
 22
-36.05000000000102
 32
57.66441016151816
 13
-14.69015933955298
 23
-36.05000000000082
 33
56.77259765935684
  0
3DFACE
  5
54F
330
70
100
AcDbEntity
  8
3D
100
AcDbFace
 10
12.9
 20
-36.05000000000018
 30
55.66441016151815
 11
13.73582079194639
 21
-36.05000000000081
 31
55.85317326661125
 12
13.73430201559912
 22
-37.54999999999996
 32
55.84673578287735
 13
12.90483679514923
 23
-37.55000000000018
 33
55.67462049043541
  0
3DFACE
  5
557
330
70
100
AcDbEntity
  8
3D
100
AcDbFace
 10
13.73582079194614
 20
-36.05000000000092
 30
55.85317326663435
 11
14.32333440913024
 21
-36.05115340705646
 31
56.25937665309717
 12
14.30786557722844
 22
-37.55000000000018
 32
56.25178671236382
 13
13.73430201559912
 23
-37.54999999999996
 33
55.84673578287735
  0
3DFACE
  5
55F
330
70
100
AcDbEntity
  8
3D
100
AcDbFace
 10
14.32333440913024
 20
-36.05115340705646
 30
56.25937665309717
 11
14.69398826518724
 21
-36.05000000000082
 31
56.78032526493272
 12
14.718012128818
 22
-37.54999999999996
 32
56.83084438758629
 13
14.30786557722844
 23
-37.55000000000018
 33
56.25178671236382
  0
3DFACE
  5
58C
330
70
100
AcDbEntity
  8
3D
100
AcDbFace
 10
14.69398826518724
 20
-36.05000000000082
 30
56.78032526493272
 11
14.9
 21
-36.05000000000079
 31
57.66441016151816
 12
14.8915213211075
 22
-37.55000000000013
 32
57.66841636931853
 13
14.718012128818
 23
-37.54999999999996
 33
56.83084438758629
  0
3DFACE
  5
596
330
70
100
AcDbEntity
  8
3D
100
AcDbFace
 10
16.34814539721833
 20
-34.89146467661442
 30
57.02628338531574
 11
16.76581117913417
 21
-34.90347907031435
 31
64.99582125983623
 12
16.76581117913399
 22
-36.89667113402727
 32
64.99582125983625
 13
16.34729926161961
 23
-36.89667113402732
 33
57.01013815630105
  0
3DFACE
  5
5BC
330
70
100
AcDbEntity
  8
3D
100
AcDbFace
 10
14.9
 20
-36.05000000000079
 30
57.66441016151816
 11
14.9
 21
-36.05000000000042
 31
63.27696332724284
 12
14.89999999999997
 22
-37.50659195104913
 32
62.79514968022537
 13
14.8915213211075
 23
-37.55000000000013
 33
57.66841636931853
  0
3DFACE
  5
5D2
330
70
100
AcDbEntity
  8
3D
100
AcDbFace
 10
-14.9
 20
-32.49999999998709
 30
69.86441016151786
 11
-14.83984547261282
 21
-36.19735675122948
 31
68.52242783765891
 12
14.87536680580329
 22
-36.22415458297067
 32
68.49549615119875
 13
14.89999999999999
 23
-32.73185475647713
 33
69.79532140116944
  0
3DFACE
  5
5E8
330
70
100
AcDbEntity
  8
3D
100
AcDbFace
 10
-24.99269354369491
 20
-20.26881693635272
 30
62.9662396576715
 11
-25.00323720070602
 21
-28.12396467366786
 31
62.7871033058488
 12
-24.99489137844746
 22
-30.2530734721312
 32
59.13983280021765
 13
-24.99608424095979
 23
-20.40137460681274
 33
59.05802746875354
  0
3DFACE
  5
5E9
330
70
100
AcDbEntity
  8
3D
100
AcDbFace
 10
-44.95558321366942
 20
-20.2712828206346
 30
62.96856510440937
 11
-44.61613004380419
 21
-28.07431447854302
 31
62.7935094608585
 12
-44.99999999999997
 22
-30.26220871927703
 32
59.1374773642127
 13
-44.99549483276417
 23
-20.40869965954433
 33
59.0621325237218
  0
3DFACE
  5
5FF
330
70
100
AcDbEntity
  8
3D
100
AcDbFace
 10
-14.83984547261289
 20
-36.19735675122953
 30
68.52242783765897
 11
-14.89668255197713
 21
-37.42149798391344
 31
66.34408573776616
 12
14.9
 22
-37.40690058048428
 32
66.40284377634374
 13
14.87536680580329
 23
-36.22415458297067
 33
68.49549615119875
  0
3DFACE
  5
600
330
70
100
AcDbEntity
  8
3D
100
AcDbFace
 10
-14.90000000000002
 20
-37.50973697167359
 30
57.68469876353015
 11
-14.9
 21
-36.05000000000079
 31
57.66441016151816
 12
-14.9
 22
-36.05000000000057
 32
63.27696332724284
 13
-14.9
 23
-37.53628036269822
 33
63.22634516594678
  0
3DFACE
  5
601
330
70
100
AcDbEntity
  8
3D
100
AcDbFace
 10
-16.37623272279255
 20
-36.8932743876141
 30
57.04352287713113
 11
-16.37488208057889
 21
-34.87475958160636
 31
57.04832757522249
 12
-16.77030445912598
 22
-34.95787480916957
 32
65.08155814953886
 13
-16.9027238812428
 23
-36.8926178809466
 33
67.27719174823874
  0
3DFACE
  5
602
330
70
100
AcDbEntity
  8
3D
100
AcDbFace
 10
-14.90000000000002
 20
-37.50973697167359
 30
57.68469876353015
 11
-14.9
 21
-37.53628036269822
 31
63.22634516594678
 12
14.89999999999997
 22
-37.50659195104913
 32
62.79514968022537
 13
14.8915213211075
 23
-37.55000000000013
 33
57.66841636931853
  0
3DFACE
  5
60A
330
70
100
AcDbEntity
  8
3D
100
AcDbFace
 10
-14.9
 20
-37.53628036269822
 30
63.22634516594678
 11
-14.89668255197645
 21
-37.42149798391159
 31
66.34408573777374
 12
14.9
 22
-37.40690058048428
 32
66.40284377634374
 13
14.89999999999997
 23
-37.50659195104913
 33
62.79514968022537
  0
3DFACE
  5
612
330
70
100
AcDbEntity
  8
3D
100
AcDbFace
 10
-14.9
 20
-36.05000000000102
 30
57.66441016151816
 11
-14.89152132110751
 21
-36.03628036269889
 31
63.2223389581464
 12
14.89312131945002
 22
-36.05000000000061
 32
63.27351900690006
 13
14.9
 23
-36.05000000000079
 33
57.66441016151816
  0
3DFACE
  5
613
330
70
100
AcDbEntity
  8
3D
100
AcDbFace
 10
14.9
 20
-36.05000000000075
 30
57.66441016151816
 11
14.69398826518724
 21
-36.05000000000082
 31
56.78032526493272
 12
-14.69015933955298
 22
-36.05000000000082
 32
56.77259765935684
 13
-14.9
 23
-36.05000000000102
 33
57.66441016151816
  0
3DFACE
  5
61B
330
70
100
AcDbEntity
  8
3D
100
AcDbFace
 10
14.69398826518724
 20
-36.05000000000082
 30
56.78032526493272
 11
14.32333440913024
 21
-36.05115340705646
 31
56.25937665309717
 12
-14.31421356237309
 22
-36.05000000000084
 32
56.25019659914506
 13
-14.69015933955298
 23
-36.05000000000082
 33
56.77259765935684
  0
3DFACE
  5
61C
330
70
100
AcDbEntity
  8
3D
100
AcDbFace
 10
-14.31421356237309
 20
-36.05000000000084
 30
56.25019659914506
 11
-13.65131454570883
 21
-36.05144133901436
 31
55.81089284209372
 12
13.73582079189638
 22
-36.05000000000082
 32
55.85317326659995
 13
14.32333440913024
 23
-36.05115340705646
 33
56.25937665309717
  0
3DFACE
  5
61D
330
70
100
AcDbEntity
  8
3D
100
AcDbFace
 10
13.73582079189637
 20
-36.05000000000082
 30
55.85317326659995
 11
12.90000000000003
 21
-36.05000000000018
 31
55.66441016151816
 12
-12.89999999999992
 22
-36.05000000000086
 32
55.66441016151814
 13
-13.65131454570747
 23
-36.05144133900677
 33
55.81089284209312
  0
3DFACE
  5
622
330
70
100
AcDbEntity
  8
3D
100
AcDbFace
 10
14.90483679514923
 20
-37.55000000000008
 30
57.67462049043541
 11
14.69882506033648
 21
-37.55000000000015
 31
56.79053559384997
 12
-14.68532254440375
 22
-37.55000000000015
 32
56.7828079882741
 13
-14.89516320485076
 23
-37.55000000000034
 33
57.67462049043541
  0
3DFACE
  5
623
330
70
100
AcDbEntity
  8
3D
100
AcDbFace
 10
14.69882506033648
 20
-37.55000000000015
 30
56.79053559384997
 11
14.32817120427947
 21
-37.55115340705579
 31
56.26958698201444
 12
-14.30937676722385
 22
-37.55000000000016
 32
56.26040692806231
 13
-14.68532254440375
 23
-37.55000000000015
 33
56.7828079882741
  0
3DFACE
  5
624
330
70
100
AcDbEntity
  8
3D
100
AcDbFace
 10
-14.30937676722385
 20
-37.55000000000016
 30
56.26040692806231
 11
-13.64647775055959
 21
-37.55144133901369
 31
55.82110317101098
 12
13.74065758704561
 22
-37.55000000000015
 32
55.86338359551721
 13
14.32817120427947
 23
-37.55115340705579
 33
56.26958698201444
  0
3DFACE
  5
625
330
70
100
AcDbEntity
  8
3D
100
AcDbFace
 10
13.7406575870456
 20
-37.55000000000015
 30
55.86338359551721
 11
12.90483679514927
 21
-37.54999999999951
 31
55.67462049043541
 12
-12.89516320485069
 22
-37.55000000000018
 32
55.6746204904354
 13
-13.64647775055823
 23
-37.5514413390061
 33
55.82110317101038
  0
3DFACE
  5
62D
330
70
100
AcDbEntity
  8
3D
100
AcDbFace
 10
-16.77030445912585
 20
-34.95787480917045
 30
65.08155814953648
 11
-16.90272349894687
 21
-36.8926178953297
 31
67.27719176467619
 12
-16.91599084674737
 22
-36.62515317918238
 32
67.77661217137515
 13
-16.77413064662779
 23
-34.30002453196101
 33
65.15456615625436
  0
3DFACE
  5
62E
330
70
100
AcDbEntity
  8
3D
100
AcDbFace
 10
-16.91599084674717
 20
-36.62515317918655
 30
67.77661217136736
 11
-16.94103854840688
 21
-36.19406389433251
 31
68.3229498400529
 12
-16.78019343086951
 22
-33.7705667249574
 32
65.27025097107904
 13
-16.77413064662779
 23
-34.30002453196101
 33
65.15456615625436
  0
3DFACE
  5
62F
330
70
100
AcDbEntity
  8
3D
100
AcDbFace
 10
-16.94105132831346
 20
-36.19427916957584
 30
68.32319369519819
 11
-16.96341780897938
 21
-35.72204846492204
 31
68.74997157000669
 12
-16.78496337785207
 22
-33.42593881339141
 32
65.36126698144617
 13
-16.78019343087077
 23
-33.77056672495567
 33
65.27025097110286
  0
3DFACE
  5
630
330
70
100
AcDbEntity
  8
3D
100
AcDbFace
 10
-16.96341780897938
 20
-35.72204846492204
 30
68.74997157000669
 11
-17.00139629319147
 21
-35.21760937277619
 31
69.15058398355587
 12
-16.79050005017166
 22
-33.13783142039341
 32
65.46691298277136
 13
-16.78496337785207
 23
-33.42593881339141
 33
65.36126698144617
  0
3DFACE
  5
631
330
70
100
AcDbEntity
  8
3D
100
AcDbFace
 10
-17.00139629319147
 20
-35.21760937277619
 30
69.15058398355587
 11
-16.99979809815005
 21
-34.65718154686013
 31
69.44414884040887
 12
-16.79468903988098
 22
-32.7333571904781
 32
65.54684366799843
 13
-16.79050005017166
 23
-33.13783142039341
 33
65.46691298277136
  0
3DFACE
  5
632
330
70
100
AcDbEntity
  8
3D
100
AcDbFace
 10
-16.99979809815005
 20
-34.65718154686013
 30
69.44414884040887
 11
-17.01078083136488
 21
-34.05142614159848
 31
69.67012067795277
 12
-16.79796598672975
 22
-32.49999999998685
 32
65.6093715387386
 13
-16.79483279153263
 23
-32.73514850979133
 33
65.54958661291277
  0
3DFACE
  5
633
330
70
100
AcDbEntity
  8
3D
100
AcDbFace
 10
-17.01078083115467
 20
-34.05142615857514
 30
69.67012067438759
 11
-17.01854688977057
 21
-33.42423453604061
 31
69.80183360645466
 12
-16.79796598672975
 22
-32.49999999998685
 32
65.6093715387386
 13
-17.01077991922961
 23
-34.05147327725877
 33
69.67010327382098
  0
3DFACE
  5
63B
330
70
100
AcDbEntity
  8
3D
100
AcDbFace
 10
-17.01853499112564
 20
-33.42418468068854
 30
69.80160745533798
 11
-17.01853499112563
 21
-32.75635020535345
 31
69.864410161518
 12
-16.79796598672975
 22
-32.49999999998685
 32
65.6093715387386
 13
-17.01853276167173
 23
-33.42412479255603
 33
69.80162751586535
  0
3DFACE
  5
63C
330
70
100
AcDbEntity
  8
3D
100
AcDbFace
 10
-14.47739652788654
 20
-34.87458991902929
 30
57.04817824802364
 11
-15.0052465597027
 21
-36.89248038889403
 31
67.27720208813639
 12
-17.82658365890562
 22
-34.87458991902836
 32
29.55026732002103
 13
-14.47739652788654
 23
-34.87458991902929
 33
57.04817824802364
  0
3DFACE
  5
63D
330
70
100
AcDbEntity
  8
3D
100
AcDbFace
 10
-14.47875540125244
 20
-36.89313689556153
 30
57.04353321702878
 11
-14.47740475903878
 21
-34.87462208955379
 31
57.04833791512013
 12
-14.87282713758587
 22
-34.95773731711699
 32
65.0815684894365
 13
-15.0052465597027
 23
-36.89248038889403
 33
67.27720208813639
  0
3DFACE
  5
63E
330
70
100
AcDbEntity
  8
3D
100
AcDbFace
 10
-14.87282713758574
 20
-34.95773731711788
 30
65.08156848943412
 11
-15.00524617740676
 21
-36.89248040327713
 31
67.27720210457383
 12
-15.01851352520727
 22
-36.6250156871298
 32
67.77662251127279
 13
-14.87665332508768
 23
-34.29988703990844
 33
65.154576496152
  0
3DFACE
  5
63F
330
70
100
AcDbEntity
  8
3D
100
AcDbFace
 10
-15.01851352520706
 20
-36.62501568713397
 30
67.776622511265
 11
-15.04356122686677
 21
-36.19392640227995
 31
68.32296017995054
 12
-14.8827161093294
 22
-33.77042923290483
 32
65.27026131097668
 13
-14.87665332508768
 23
-34.29988703990844
 33
65.154576496152
  0
3DFACE
  5
640
330
70
100
AcDbEntity
  8
3D
100
AcDbFace
 10
-15.04357400677335
 20
-36.19414167752327
 30
68.32320403509583
 11
-15.06594048743927
 21
-35.72191097286947
 31
68.74998190990433
 12
-14.88748605631196
 22
-33.42580132133884
 32
65.36127732134382
 13
-14.88271610933066
 23
-33.7704292329031
 33
65.2702613110005
  0
3DFACE
  5
641
330
70
100
AcDbEntity
  8
3D
100
AcDbFace
 10
-15.06594048743927
 20
-35.72191097286947
 30
68.74998190990433
 11
-15.10391897165137
 21
-35.21747188072362
 31
69.15059432345351
 12
-14.89302272863155
 22
-33.13769392834084
 32
65.466923322669
 13
-14.88748605631196
 23
-33.42580132133884
 33
65.36127732134382
  0
3DFACE
  5
642
330
70
100
AcDbEntity
  8
3D
100
AcDbFace
 10
-15.10391897165137
 20
-35.21747188072362
 30
69.15059432345351
 11
-15.09736131851668
 21
-34.61053744128101
 31
69.34992411937047
 12
-14.89721171834087
 22
-32.73321969842553
 32
65.54685400789607
 13
-14.89302272863155
 23
-33.13769392834084
 33
65.466923322669
  0
3DFACE
  5
643
330
70
100
AcDbEntity
  8
3D
100
AcDbFace
 10
-15.09736131851668
 20
-34.61053744128101
 30
69.34992411937047
 11
-15.10795102234222
 21
-34.01226886679848
 31
69.56799947258757
 12
-14.90048866518964
 22
-32.49986250793428
 32
65.60938187863624
 13
-14.89735546999252
 23
-32.73501101773876
 33
65.54959695281041
  0
3DFACE
  5
644
330
70
100
AcDbEntity
  8
3D
100
AcDbFace
 10
-15.10795102234221
 20
-34.01226886679844
 30
69.56799947258748
 11
-15.12106956823046
 21
-33.42409704398804
 31
69.8018439463523
 12
-14.90048866518964
 22
-32.49986250793428
 32
65.60938187863624
 13
-15.10795102234221
 23
-34.01226886679844
 33
69.56799947258748
  0
3DFACE
  5
645
330
70
100
AcDbEntity
  8
3D
100
AcDbFace
 10
-15.12105766958553
 20
-33.42404718863597
 30
69.80161779523562
 11
-14.89680181241123
 21
-32.69657440571663
 31
69.79306206189955
 12
-14.90048866518964
 22
-32.49986250793428
 32
65.60938187863624
 13
-15.12105544013162
 23
-33.42398730050346
 33
69.80163785576299
  0
3DFACE
  5
65D
330
70
100
AcDbEntity
  8
3D
100
AcDbFace
 10
14.89999999999997
 20
-37.54131934413617
 30
65.25939471665677
 11
14.9
 21
-37.40690058048428
 31
66.40284377634374
 12
14.88374143172233
 22
-36.62625652749773
 32
67.78405042158536
 13
14.92944962771623
 23
-34.28997038239842
 33
65.1545664692637
  0
3DFACE
  5
65E
330
70
100
AcDbEntity
  8
3D
100
AcDbFace
 10
14.88374143172253
 20
-36.6262565275019
 30
67.78405042157757
 11
14.87536680580453
 21
-36.22415458296899
 31
68.49549615120054
 12
14.92338684347451
 22
-33.76051257539482
 32
65.27025128408837
 13
14.92944962771623
 23
-34.28997038239842
 33
65.1545664692637
  0
3DFACE
  5
65F
330
70
100
AcDbEntity
  8
3D
100
AcDbFace
 10
14.87536680580833
 20
-36.22415458295208
 30
68.49549615123165
 11
14.87912052666964
 21
-35.6919816692364
 31
68.69356957701822
 12
14.91861689649196
 22
-33.41588466382882
 32
65.36126729445552
 13
14.92338684347326
 23
-33.76051257539308
 33
65.27025128411219
  0
3DFACE
  5
660
330
70
100
AcDbEntity
  8
3D
100
AcDbFace
 10
14.87912052666964
 20
-35.6919816692364
 30
68.69356957701822
 11
14.88316762269471
 21
-35.11821634131165
 31
68.90712359524325
 12
14.91308022417237
 22
-33.12777727083082
 32
65.4669132957807
 13
14.91861689649196
 23
-33.41588466382882
 33
65.36126729445552
  0
3DFACE
  5
661
330
70
100
AcDbEntity
  8
3D
100
AcDbFace
 10
14.88316762269471
 20
-35.11821634131165
 30
68.90712359524325
 11
14.88768340290164
 21
-34.4780046697239
 31
69.1454087761841
 12
14.90889123446305
 22
-32.72330304091551
 32
65.54684398100777
 13
14.91308022417237
 23
-33.12777727083082
 33
65.4669132957807
  0
3DFACE
  5
662
330
70
100
AcDbEntity
  8
3D
100
AcDbFace
 10
14.88768340290164
 20
-34.4780046697239
 30
69.1454087761841
 11
14.89161194753321
 21
-33.92104662256052
 31
69.35270716659873
 12
14.90561428761428
 22
-32.48994585042427
 32
65.60937185174793
 13
14.90874748281141
 23
-32.72509436022874
 33
65.54958692592212
  0
3DFACE
  5
663
330
70
100
AcDbEntity
  8
3D
100
AcDbFace
 10
14.89161194753321
 20
-33.92104662256052
 30
69.35270716659873
 11
14.89551706623686
 21
-33.36740971853947
 31
69.55876943585256
 12
14.90561428761428
 22
-32.48994585042427
 32
65.60937185174793
 13
14.89161194753321
 23
-33.92104662256052
 33
69.35270716659873
  0
3DFACE
  5
664
330
70
100
AcDbEntity
  8
3D
100
AcDbFace
 10
14.89551706623686
 20
-33.36740971853947
 30
69.55876943585256
 11
14.89999999999999
 21
-32.73185475647713
 31
69.79532140116944
 12
14.90561428761428
 22
-32.48994585042427
 32
65.60937185174793
 13
14.89551706623686
 23
-33.36740971853947
 33
69.55876943585256
  0
3DFACE
  5
665
330
70
100
AcDbEntity
  8
3D
100
AcDbFace
 10
16.77119435487663
 20
-36.89667113402703
 30
64.99881542794182
 11
16.88610070959454
 21
-36.89585977502634
 31
67.27051597193406
 12
16.91748194315934
 22
-36.60020526189466
 32
67.79122204693988
 13
17.12744414552436
 23
-34.31576256164013
 33
65.22365504683941
  0
3DFACE
  5
666
330
70
100
AcDbEntity
  8
3D
100
AcDbFace
 10
16.91748194315954
 20
-36.60020526189884
 30
67.79122204693209
 11
16.94311041940114
 21
-36.17377040599488
 31
68.343572250816
 12
17.12138136128264
 22
-33.78630475463652
 32
65.33933986166409
 13
17.12744414552436
 23
-34.31576256164013
 33
65.22365504683941
  0
3DFACE
  5
667
330
70
100
AcDbEntity
  8
3D
100
AcDbFace
 10
16.94311041940494
 20
-36.17377040597796
 30
68.3435722508471
 11
16.96860137495022
 21
-35.71560492368883
 31
68.78617271910329
 12
17.11661141430009
 22
-33.44167684307052
 32
65.43035587203123
 13
17.12138136128139
 23
-33.78630475463479
 33
65.3393398616879
  0
3DFACE
  5
668
330
70
100
AcDbEntity
  8
3D
100
AcDbFace
 10
16.96860137495022
 20
-35.71560492368883
 30
68.78617271910329
 11
17.08116214050283
 21
-35.14400852055336
 31
68.97621217281896
 12
17.1110747419805
 22
-33.15356945007252
 32
65.53600187335641
 13
17.11661141430009
 23
-33.44167684307052
 33
65.43035587203123
  0
3DFACE
  5
669
330
70
100
AcDbEntity
  8
3D
100
AcDbFace
 10
17.08116214050283
 20
-35.14400852055336
 30
68.97621217281896
 11
17.08567792070977
 21
-34.50379684896561
 31
69.21449735375981
 12
17.10688575227118
 22
-32.74909522015722
 32
65.61593255858348
 13
17.1110747419805
 23
-33.15356945007252
 33
65.53600187335641
  0
3DFACE
  5
66A
330
70
100
AcDbEntity
  8
3D
100
AcDbFace
 10
17.08567792070977
 20
-34.50379684896561
 30
69.21449735375981
 11
17.08960646534134
 21
-33.94683880180223
 31
69.42179574417444
 12
17.10360880542241
 22
-32.51573802966597
 32
65.67846042932365
 13
17.10674200061953
 23
-32.75088653947044
 33
65.61867550349782
  0
3DFACE
  5
66B
330
70
100
AcDbEntity
  8
3D
100
AcDbFace
 10
17.08960646534134
 20
-33.94683880180223
 30
69.42179574417444
 11
17.09351158404499
 21
-33.39320189778117
 31
69.62785801342828
 12
17.10360880542241
 22
-32.51573802966597
 32
65.67846042932365
 13
17.08960646534134
 23
-33.94683880180223
 33
69.42179574417444
  0
3DFACE
  5
66C
330
70
100
AcDbEntity
  8
3D
100
AcDbFace
 10
17.09351158404499
 20
-33.39320189778117
 30
69.62785801342828
 11
17.09799451780812
 21
-32.75764693571884
 31
69.86440997874516
 12
17.10360880542241
 22
-32.51573802966597
 32
65.67846042932365
 13
17.09351158404499
 23
-33.39320189778117
 33
69.62785801342828
  0
ENDSEC
  0
SECTION
  2
OBJECTS
  0
DICTIONARY
  5
C
330
0
100
AcDbDictionary
281
     1
  3
ACAD_BACKGROUND
350
CC
  3
ACAD_CIP_PREVIOUS_PRODUCT_INFO
350
7B
  3
ACAD_COLOR
350
63
  3
ACAD_DETAILVIEWSTYLE
350
6A
  3
ACAD_GROUP
350
D
  3
ACAD_LAYOUT
350
62
  3
ACAD_MATERIAL
350
10
  3
ACAD_MLEADERSTYLE
350
66
  3
ACAD_MLINESTYLE
350
5F
  3
ACAD_PLOTSETTINGS
350
61
  3
ACAD_PLOTSTYLENAME
350
E
  3
ACAD_SCALELIST
350
42
  3
ACAD_SECTIONVIEWSTYLE
350
68
  3
ACAD_TABLESTYLE
350
64
  3
ACAD_VISUALSTYLE
350
29
  3
ACDB_RECOMPOSE_DATA
350
677
  3
AcDbVariableDictionary
350
BD
  0
DICTIONARY
  5
82
330
8
100
AcDbDictionary
280
     1
281
     1
  0
DICTIONARY
  5
D5
330
2
100
AcDbDictionary
280
     1
281
     1
  3
ACAD_LAYERSTATES
360
D6
  0
DICTIONARY
  5
CC
102
{ACAD_REACTORS
330
C
102
}
330
C
100
AcDbDictionary
281
     1
  0
XRECORD
  5
7B
102
{ACAD_REACTORS
330
C
102
}
330
C
100
AcDbXrecord
280
     1
300
ACD
300
2013
300

  0
DICTIONARY
  5
63
102
{ACAD_REACTORS
330
C
102
}
330
C
100
AcDbDictionary
281
     1
  0
DICTIONARY
  5
6A
102
{ACAD_REACTORS
330
C
102
}
330
C
100
AcDbDictionary
281
     1
  3
Metric50
350
6B
  0
DICTIONARY
  5
D
102
{ACAD_REACTORS
330
C
102
}
330
C
100
AcDbDictionary
281
     1
  0
DICTIONARY
  5
62
102
{ACAD_REACTORS
330
C
102
}
330
C
100
AcDbDictionary
281
     1
  3
Layout1
350
6F
  3
Layout2
350
77
  3
Model
350
73
  0
DICTIONARY
  5
10
102
{ACAD_REACTORS
330
C
102
}
330
C
100
AcDbDictionary
281
     1
  3
ByBlock
350
19
  3
ByLayer
350
11
  3
Global
350
21
  0
DICTIONARY
  5
66
102
{ACAD_REACTORS
330
C
102
}
330
C
100
AcDbDictionary
281
     1
  3
Standard
350
67
  0
DICTIONARY
  5
5F
102
{ACAD_REACTORS
330
C
102
}
330
C
100
AcDbDictionary
281
     1
  3
Standard
350
60
  0
DICTIONARY
  5
61
102
{ACAD_REACTORS
330
C
102
}
330
C
100
AcDbDictionary
281
     1
  0
ACDBDICTIONARYWDFLT
  5
E
102
{ACAD_REACTORS
330
C
102
}
330
C
100
AcDbDictionary
281
     1
  3
Normal
350
F
100
AcDbDictionaryWithDefault
340
F
  0
DICTIONARY
  5
42
102
{ACAD_REACTORS
330
C
102
}
330
C
100
AcDbDictionary
281
     1
  3
A0
350
43
  3
A1
350
44
  3
A2
350
45
  3
A3
350
46
  3
A4
350
47
  3
A5
350
48
  3
A6
350
49
  3
A7
350
4A
  3
A8
350
4B
  3
A9
350
4C
  3
B0
350
4D
  3
B1
350
4E
  3
B2
350
4F
  3
B3
350
50
  3
B4
350
51
  3
B5
350
52
  3
B6
350
53
  0
DICTIONARY
  5
68
102
{ACAD_REACTORS
330
C
102
}
330
C
100
AcDbDictionary
281
     1
  3
Metric50
350
69
  0
DICTIONARY
  5
64
102
{ACAD_REACTORS
330
C
102
}
330
C
100
AcDbDictionary
281
     1
  3
Standard
350
65
  0
DICTIONARY
  5
29
102
{ACAD_REACTORS
330
C
102
}
330
C
100
AcDbDictionary
281
     1
  3
2dWireframe
350
2F
  3
Basic
350
2E
  3
Brighten
350
35
  3
ColorChange
350
39
  3
Conceptual
350
32
  3
Dim
350
34
  3
EdgeColorOff
350
41
  3
Facepattern
350
38
  3
Flat
350
2A
  3
FlatWithEdges
350
2B
  3
Gouraud
350
2C
  3
GouraudWithEdges
350
2D
  3
Hidden
350
31
  3
JitterOff
350
3F
  3
Linepattern
350
37
  3
OverhangOff
350
40
  3
Realistic
350
33
  3
Shaded
350
3E
  3
Shaded with edges
350
3D
  3
Shades of Gray
350
3A
  3
Sketchy
350
3B
  3
Thicken
350
36
  3
Wireframe
350
30
  3
X-Ray
350
3C
  0
XRECORD
  5
677
102
{ACAD_REACTORS
330
C
102
}
330
C
100
AcDbXrecord
280
     1
 90
        1
330
65
  0
DICTIONARY
  5
BD
102
{ACAD_REACTORS
330
C
102
}
330
C
100
AcDbDictionary
281
     1
  3
CANNOSCALE
350
C3
  3
CMLEADERSTYLE
350
BF
  3
CTABLESTYLE
350
BE
  3
CVIEWDETAILSTYLE
350
C0
  3
CVIEWSECTIONSTYLE
350
C1
  3
LAYEREVAL
350
C5
  3
LAYERNOTIFY
350
C6
  3
LIGHTINGUNITS
350
C4
  3
MSLTSCALE
350
C2
  0
DICTIONARY
  5
D6
102
{ACAD_REACTORS
330
D5
102
}
330
D5
100
AcDbDictionary
281
     1
  0
ACDBDETAILVIEWSTYLE
  5
6B
102
{ACAD_REACTORS
330
6A
102
}
330
6A
100
AcDbModelDocViewStyle
 70
     0
  3
Metric50
290
     0
100
AcDbDetailViewStyle
 70
     0
 71
     0
 90
        3
 71
     1
340
55
 62
   256
 40
5.0
340
0
 62
   256
 40
5.0
300

 40
0.36
280
     1
 71
     2
340
5D
 90
       25
 62
   256
 71
     3
340
55
 62
   256
 40
5.0
 90
        0
 40
15.0
 90
        1
300
%<\AcVar ViewDetailId>% (%<\AcVar ViewScale \f "%sn">%)
 71
     4
340
5D
 90
       25
 62
   256
340
5D
 90
       25
 62
   256
280
     0
  0
LAYOUT
  5
6F
102
{ACAD_REACTORS
330
62
102
}
330
62
100
AcDbPlotSettings
  1

  2
PDFCreator
  4

  6

 40
0.0
 41
0.0
 42
0.0
 43
0.0
 44
0.0
 45
0.0
 46
0.0
 47
0.0
 48
0.0
 49
0.0
140
0.0
141
0.0
142
1.0
143
1.0
 70
   688
 72
     0
 73
     0
 74
     5
  7

 75
    16
147
1.0
 76
     0
 77
     2
 78
   300
148
0.0
149
0.0
100
AcDbLayout
  1
Layout1
 70
     1
 71
     1
 10
0.0
 20
0.0
 11
420.0
 21
297.0
 12
0.0
 22
0.0
 32
0.0
 14
1.000000000000000E+20
 24
1.000000000000000E+20
 34
1.000000000000000E+20
 15
-1.000000000000000E+20
 25
-1.000000000000000E+20
 35
-1.000000000000000E+20
146
0.0
 13
0.0
 23
0.0
 33
0.0
 16
1.0
 26
0.0
 36
0.0
 17
0.0
 27
1.0
 37
0.0
 76
     0
330
6C
  0
LAYOUT
  5
77
102
{ACAD_REACTORS
330
62
102
}
330
62
100
AcDbPlotSettings
  1

  2
PDFCreator
  4

  6

 40
0.0
 41
0.0
 42
0.0
 43
0.0
 44
0.0
 45
0.0
 46
0.0
 47
0.0
 48
0.0
 49
0.0
140
0.0
141
0.0
142
1.0
143
1.0
 70
   688
 72
     0
 73
     0
 74
     5
  7

 75
    16
147
1.0
 76
     0
 77
     2
 78
   300
148
0.0
149
0.0
100
AcDbLayout
  1
Layout2
 70
     1
 71
     2
 10
0.0
 20
0.0
 11
12.0
 21
9.0
 12
0.0
 22
0.0
 32
0.0
 14
0.0
 24
0.0
 34
0.0
 15
0.0
 25
0.0
 35
0.0
146
0.0
 13
0.0
 23
0.0
 33
0.0
 16
1.0
 26
0.0
 36
0.0
 17
0.0
 27
1.0
 37
0.0
 76
     0
330
74
  0
LAYOUT
  5
73
102
{ACAD_REACTORS
330
62
102
}
330
62
100
AcDbPlotSettings
  1

  2
PDFCreator
  4

  6

 40
0.0
 41
0.0
 42
0.0
 43
0.0
 44
0.0
 45
0.0
 46
0.0
 47
0.0
 48
0.0
 49
0.0
140
0.0
141
0.0
142
1.0
143
1.0
 70
  1712
 72
     0
 73
     0
 74
     0
  7

 75
     0
147
1.0
 76
     0
 77
     2
 78
   300
148
0.0
149
0.0
100
AcDbLayout
  1
Model
 70
     1
 71
     0
 10
0.0
 20
0.0
 11
12.0
 21
9.0
 12
0.0
 22
0.0
 32
0.0
 14
0.0
 24
0.0
 34
0.0
 15
0.0
 25
0.0
 35
0.0
146
0.0
 13
0.0
 23
0.0
 33
0.0
 16
1.0
 26
0.0
 36
0.0
 17
0.0
 27
1.0
 37
0.0
 76
     0
330
70
331
57
  0
MATERIAL
  5
19
102
{ACAD_XDICTIONARY
360
1A
102
}
102
{ACAD_REACTORS
330
10
102
}
330
10
100
AcDbMaterial
  1
ByBlock
 72
     0
 43
0.0208333333333333
 43
0.0
 43
0.0
 43
0.0
 43
0.0
 43
0.0208333333333333
 43
0.0
 43
0.0
 43
0.0
 43
0.0
 43
1.0
 43
0.0
 43
0.0
 43
0.0
 43
0.0
 43
1.0
 77
     0
 47
0.0208333333333333
 47
0.0
 47
0.0
 47
0.0
 47
0.0
 47
0.0208333333333333
 47
0.0
 47
0.0
 47
0.0
 47
0.0
 47
1.0
 47
0.0
 47
0.0
 47
0.0
 47
0.0
 47
1.0
171
     0
 49
0.0208333333333333
 49
0.0
 49
0.0
 49
0.0
 49
0.0
 49
0.0208333333333333
 49
0.0
 49
0.0
 49
0.0
 49
0.0
 49
1.0
 49
0.0
 49
0.0
 49
0.0
 49
0.0
 49
1.0
175
     0
142
0.0208333333333333
142
0.0
142
0.0
142
0.0
142
0.0
142
0.0208333333333333
142
0.0
142
0.0
142
0.0
142
0.0
142
1.0
142
0.0
142
0.0
142
0.0
142
0.0
142
1.0
179
     0
144
0.0208333333333333
144
0.0
144
0.0
144
0.0
144
0.0
144
0.0208333333333333
144
0.0
144
0.0
144
0.0
144
0.0
144
1.0
144
0.0
144
0.0
144
0.0
144
0.0
144
1.0
147
0.0208333333333333
147
0.0
147
0.0
147
0.0
147
0.0
147
0.0208333333333333
147
0.0
147
0.0
147
0.0
147
0.0
147
1.0
147
0.0
147
0.0
147
0.0
147
0.0
147
1.0
  0
MATERIAL
  5
11
102
{ACAD_XDICTIONARY
360
12
102
}
102
{ACAD_REACTORS
330
10
102
}
330
10
100
AcDbMaterial
  1
ByLayer
 72
     0
 43
0.0208333333333333
 43
0.0
 43
0.0
 43
0.0
 43
0.0
 43
0.0208333333333333
 43
0.0
 43
0.0
 43
0.0
 43
0.0
 43
1.0
 43
0.0
 43
0.0
 43
0.0
 43
0.0
 43
1.0
 77
     0
 47
0.0208333333333333
 47
0.0
 47
0.0
 47
0.0
 47
0.0
 47
0.0208333333333333
 47
0.0
 47
0.0
 47
0.0
 47
0.0
 47
1.0
 47
0.0
 47
0.0
 47
0.0
 47
0.0
 47
1.0
171
     0
 49
0.0208333333333333
 49
0.0
 49
0.0
 49
0.0
 49
0.0
 49
0.0208333333333333
 49
0.0
 49
0.0
 49
0.0
 49
0.0
 49
1.0
 49
0.0
 49
0.0
 49
0.0
 49
0.0
 49
1.0
175
     0
142
0.0208333333333333
142
0.0
142
0.0
142
0.0
142
0.0
142
0.0208333333333333
142
0.0
142
0.0
142
0.0
142
0.0
142
1.0
142
0.0
142
0.0
142
0.0
142
0.0
142
1.0
179
     0
144
0.0208333333333333
144
0.0
144
0.0
144
0.0
144
0.0
144
0.0208333333333333
144
0.0
144
0.0
144
0.0
144
0.0
144
1.0
144
0.0
144
0.0
144
0.0
144
0.0
144
1.0
147
0.0208333333333333
147
0.0
147
0.0
147
0.0
147
0.0
147
0.0208333333333333
147
0.0
147
0.0
147
0.0
147
0.0
147
1.0
147
0.0
147
0.0
147
0.0
147
0.0
147
1.0
  0
MATERIAL
  5
21
102
{ACAD_XDICTIONARY
360
22
102
}
102
{ACAD_REACTORS
330
10
102
}
330
10
100
AcDbMaterial
  1
Global
 72
     0
 43
0.0208333333333333
 43
0.0
 43
0.0
 43
0.0
 43
0.0
 43
0.0208333333333333
 43
0.0
 43
0.0
 43
0.0
 43
0.0
 43
1.0
 43
0.0
 43
0.0
 43
0.0
 43
0.0
 43
1.0
 77
     0
 47
0.0208333333333333
 47
0.0
 47
0.0
 47
0.0
 47
0.0
 47
0.0208333333333333
 47
0.0
 47
0.0
 47
0.0
 47
0.0
 47
1.0
 47
0.0
 47
0.0
 47
0.0
 47
0.0
 47
1.0
171
     0
 49
0.0208333333333333
 49
0.0
 49
0.0
 49
0.0
 49
0.0
 49
0.0208333333333333
 49
0.0
 49
0.0
 49
0.0
 49
0.0
 49
1.0
 49
0.0
 49
0.0
 49
0.0
 49
0.0
 49
1.0
175
     0
142
0.0208333333333333
142
0.0
142
0.0
142
0.0
142
0.0
142
0.0208333333333333
142
0.0
142
0.0
142
0.0
142
0.0
142
1.0
142
0.0
142
0.0
142
0.0
142
0.0
142
1.0
179
     0
144
0.0208333333333333
144
0.0
144
0.0
144
0.0
144
0.0
144
0.0208333333333333
144
0.0
144
0.0
144
0.0
144
0.0
144
1.0
144
0.0
144
0.0
144
0.0
144
0.0
144
1.0
147
0.0208333333333333
147
0.0
147
0.0
147
0.0
147
0.0
147
0.0208333333333333
147
0.0
147
0.0
147
0.0
147
0.0
147
1.0
147
0.0
147
0.0
147
0.0
147
0.0
147
1.0
  0
MLEADERSTYLE
  5
67
102
{ACAD_REACTORS
330
66
102
}
330
66
100
AcDbMLeaderStyle
179
     2
170
     2
171
     1
172
     0
 90
        2
 40
0.0
 41
0.0
173
     1
 91
-1056964608
340
5B
 92
       -2
290
     1
 42
0.09
291
     1
 43
0.36
  3
Standard
 44
0.18
300

342
55
174
     1
178
     6
175
     1
176
     0
 93
-1056964608
 45
0.18
292
     0
297
     0
 46
0.18
 94
-1056964608
 47
1.0
 49
1.0
140
1.0
293
     1
141
0.0
294
     1
177
     0
142
1.0
295
     0
296
     0
143
0.125
271
     0
272
     9
273
     9
298
     1
  0
MLINESTYLE
  5
60
102
{ACAD_REACTORS
330
5F
102
}
330
5F
100
AcDbMlineStyle
  2
STANDARD
 70
     0
  3

 62
   256
 51
90.0
 52
90.0
 71
     2
 49
0.5
 62
   256
  6
BYLAYER
 49
-0.5
 62
   256
  6
BYLAYER
  0
ACDBPLACEHOLDER
  5
F
102
{ACAD_REACTORS
330
E
102
}
330
E
  0
SCALE
  5
43
102
{ACAD_REACTORS
330
42
102
}
330
42
100
AcDbScale
 70
     0
300
1:1
140
1.0
141
1.0
290
     1
  0
SCALE
  5
44
102
{ACAD_REACTORS
330
42
102
}
330
42
100
AcDbScale
 70
     0
300
1:2
140
1.0
141
2.0
290
     0
  0
SCALE
  5
45
102
{ACAD_REACTORS
330
42
102
}
330
42
100
AcDbScale
 70
     0
300
1:4
140
1.0
141
4.0
290
     0
  0
SCALE
  5
46
102
{ACAD_REACTORS
330
42
102
}
330
42
100
AcDbScale
 70
     0
300
1:5
140
1.0
141
5.0
290
     0
  0
SCALE
  5
47
102
{ACAD_REACTORS
330
42
102
}
330
42
100
AcDbScale
 70
     0
300
1:8
140
1.0
141
8.0
290
     0
  0
SCALE
  5
48
102
{ACAD_REACTORS
330
42
102
}
330
42
100
AcDbScale
 70
     0
300
1:10
140
1.0
141
10.0
290
     0
  0
SCALE
  5
49
102
{ACAD_REACTORS
330
42
102
}
330
42
100
AcDbScale
 70
     0
300
1:16
140
1.0
141
16.0
290
     0
  0
SCALE
  5
4A
102
{ACAD_REACTORS
330
42
102
}
330
42
100
AcDbScale
 70
     0
300
1:20
140
1.0
141
20.0
290
     0
  0
SCALE
  5
4B
102
{ACAD_REACTORS
330
42
102
}
330
42
100
AcDbScale
 70
     0
300
1:30
140
1.0
141
30.0
290
     0
  0
SCALE
  5
4C
102
{ACAD_REACTORS
330
42
102
}
330
42
100
AcDbScale
 70
     0
300
1:40
140
1.0
141
40.0
290
     0
  0
SCALE
  5
4D
102
{ACAD_REACTORS
330
42
102
}
330
42
100
AcDbScale
 70
     0
300
1:50
140
1.0
141
50.0
290
     0
  0
SCALE
  5
4E
102
{ACAD_REACTORS
330
42
102
}
330
42
100
AcDbScale
 70
     0
300
1:100
140
1.0
141
100.0
290
     0
  0
SCALE
  5
4F
102
{ACAD_REACTORS
330
42
102
}
330
42
100
AcDbScale
 70
     0
300
2:1
140
2.0
141
1.0
290
     0
  0
SCALE
  5
50
102
{ACAD_REACTORS
330
42
102
}
330
42
100
AcDbScale
 70
     0
300
4:1
140
4.0
141
1.0
290
     0
  0
SCALE
  5
51
102
{ACAD_REACTORS
330
42
102
}
330
42
100
AcDbScale
 70
     0
300
8:1
140
8.0
141
1.0
290
     0
  0
SCALE
  5
52
102
{ACAD_REACTORS
330
42
102
}
330
42
100
AcDbScale
 70
     0
300
10:1
140
10.0
141
1.0
290
     0
  0
SCALE
  5
53
102
{ACAD_REACTORS
330
42
102
}
330
42
100
AcDbScale
 70
     0
300
100:1
140
100.0
141
1.0
290
     0
  0
ACDBSECTIONVIEWSTYLE
  5
69
102
{ACAD_REACTORS
330
68
102
}
330
68
100
AcDbModelDocViewStyle
 70
     0
  3
Metric50
290
     0
100
AcDbSectionViewStyle
 70
     0
 71
     0
 90
      102
 71
     1
340
55
 62
   256
 40
5.0
340
0
340
0
 62
   256
 40
5.0
300
I, O, Q, S, X, Z
 40
10.0
 90
        0
 40
2.5
 90
        0
 71
     2
340
5D
 90
       25
 62
   256
340
5D
 90
       50
 62
   256
 40
5.0
 40
2.5
 40
5.0
 71
     3
340
55
 62
   256
 40
5.0
 90
        0
 40
15.0
 90
        1
300
%<\AcVar ViewSectionStartId>%-%<\AcVar ViewSectionEndId>% (%<\AcVar ViewScale \f "%sn">%)
 71
     4
 62
   256
 62
   257
300
ANSI31
 40
1.0
 90
        0
290
     0
290
     0
 90
        6
 40
0.0
 40
1.570796326794896
 40
0.2617993877991494
 40
1.308996938995747
 40
-0.2617993877991494
 40
1.832595714594046
  0
TABLESTYLE
  5
65
102
{ACAD_XDICTIONARY
360
7D
102
}
102
{ACAD_REACTORS
330
64
102
}
330
64
100
AcDbTableStyle
280
     0
  3
Standard
 70
     0
 71
     0
 40
1.5
 41
1.5
280
     0
281
     0
  7
Standard
140
4.5
170
     2
 62
     0
 63
     7
283
     0
 90
      512
 91
        0
  1

274
    -2
284
     1
 64
     0
275
    -2
285
     1
 65
     0
276
    -2
286
     1
 66
     0
277
    -2
287
     1
 67
     0
278
    -2
288
     1
 68
     0
279
    -2
289
     1
 69
     0
  7
Standard
140
6.0
170
     5
 62
     0
 63
     7
283
     0
 90
      512
 91
        0
  1

274
    -2
284
     1
 64
     0
275
    -2
285
     1
 65
     0
276
    -2
286
     1
 66
     0
277
    -2
287
     1
 67
     0
278
    -2
288
     1
 68
     0
279
    -2
289
     1
 69
     0
  7
Standard
140
4.5
170
     5
 62
     0
 63
     7
283
     0
 90
      512
 91
        0
  1

274
    -2
284
     1
 64
     0
275
    -2
285
     1
 65
     0
276
    -2
286
     1
 66
     0
277
    -2
287
     1
 67
     0
278
    -2
288
     1
 68
     0
279
    -2
289
     1
 69
     0
  0
VISUALSTYLE
  5
2F
102
{ACAD_REACTORS
330
29
102
}
330
29
100
AcDbVisualStyle
  2
2dWireframe
 70
     4
177
     3
291
     0
 70
    58
 90
        0
176
     1
 90
        2
176
     1
 90
        0
176
     1
 90
        0
176
     1
 40
0.6
176
     1
 40
30.0
176
     1
 62
     7
420
 16777215
176
     1
 90
        1
176
     1
 90
        4
176
     1
 62
     7
176
     1
 62
   257
176
     1
 90
        1
176
     1
 90
        1
176
     1
 40
1.0
176
     1
 90
        0
176
     1
 62
   257
176
     1
 40
1.0
176
     1
 90
        1
176
     1
 90
        6
176
     1
 90
        2
176
     1
 62
     7
176
     1
 90
        5
176
     1
 90
        0
176
     1
 90
        0
176
     1
290
     0
176
     1
 90
        1
176
     1
 40
0.0
176
     1
 90
        0
176
     1
290
     1
176
     1
290
     1
176
     1
290
     0
176
     1
290
     0
176
     1
290
     0
176
     1
290
     0
176
     1
290
     0
176
     1
290
     0
176
     1
290
     0
176
     1
 90
       50
176
     1
 40
0.0
176
     1
 40
1.0
176
     1
 90
        0
176
     1
 62
    18
420
        0
176
     1
 90
       50
176
     1
 90
        3
176
     1
 62
     5
420
      255
176
     1
290
     0
176
     1
 90
       50
176
     1
 90
       50
176
     1
 90
       50
176
     1
290
     0
176
     1
 90
       50
176
     1
 62
   256
176
     0
 40
1.0
176
     0
 90
        2
176
     1
  1
strokes_ogs.tif
176
     1
290
     0
176
     1
 40
1.0
176
     1
 40
1.0
176
     1
  0
VISUALSTYLE
  5
2E
102
{ACAD_REACTORS
330
29
102
}
330
29
100
AcDbVisualStyle
  2
Basic
 70
     7
177
     3
291
     1
 70
    58
 90
        1
176
     1
 90
        0
176
     1
 90
        1
176
     1
 90
        0
176
     1
 40
0.6
176
     1
 40
30.0
176
     1
 62
     7
420
 16777215
176
     1
 90
        0
176
     1
 90
        4
176
     1
 62
     7
176
     1
 62
   257
176
     1
 90
        1
176
     1
 90
        1
176
     1
 40
1.0
176
     1
 90
        8
176
     1
 62
     7
176
     1
 40
1.0
176
     1
 90
        1
176
     1
 90
        6
176
     1
 90
        2
176
     1
 62
     7
176
     1
 90
        5
176
     1
 90
        0
176
     1
 90
        0
176
     1
290
     0
176
     1
 90
        1
176
     1
 40
0.0
176
     1
 90
        0
176
     1
290
     0
176
     1
290
     1
176
     1
290
     1
176
     1
290
     0
176
     1
290
     0
176
     1
290
     0
176
     1
290
     0
176
     1
290
     0
176
     1
290
     0
176
     1
 90
       50
176
     1
 40
0.0
176
     1
 40
1.0
176
     1
 90
        0
176
     1
 62
    18
420
        0
176
     1
 90
       50
176
     1
 90
        3
176
     1
 62
     5
420
      255
176
     1
290
     0
176
     1
 90
       50
176
     1
 90
       50
176
     1
 90
       50
176
     1
290
     0
176
     1
 90
       50
176
     1
 62
   256
176
     0
 40
1.0
176
     0
 90
        2
176
     1
  1
strokes_ogs.tif
176
     1
290
     0
176
     1
 40
1.0
176
     1
 40
1.0
176
     1
  0
VISUALSTYLE
  5
35
102
{ACAD_REACTORS
330
29
102
}
330
29
100
AcDbVisualStyle
  2
Brighten
 70
    12
177
     3
291
     1
 70
    58
 90
        2
176
     1
 90
        2
176
     1
 90
        0
176
     1
 90
        0
176
     1
 40
0.6
176
     1
 40
30.0
176
     1
 62
     7
420
 16777215
176
     1
 90
        1
176
     1
 90
        4
176
     1
 62
     7
176
     1
 62
   257
176
     1
 90
        1
176
     1
 90
        1
176
     1
 40
1.0
176
     1
 90
        8
176
     1
 62
     7
176
     1
 40
1.0
176
     1
 90
        1
176
     1
 90
        6
176
     1
 90
        2
176
     1
 62
     7
176
     1
 90
        5
176
     1
 90
        0
176
     1
 90
        0
176
     1
290
     0
176
     1
 90
        1
176
     1
 40
50.0
176
     1
 90
        0
176
     1
290
     0
176
     1
290
     1
176
     1
290
     1
176
     1
290
     0
176
     1
290
     0
176
     1
290
     0
176
     1
290
     0
176
     1
290
     0
176
     1
290
     0
176
     1
 90
       50
176
     1
 40
0.0
176
     1
 40
1.0
176
     1
 90
        0
176
     1
 62
    18
420
        0
176
     1
 90
       50
176
     1
 90
        3
176
     1
 62
     5
420
      255
176
     1
290
     0
176
     1
 90
       50
176
     1
 90
       50
176
     1
 90
       50
176
     1
290
     0
176
     1
 90
       50
176
     1
 62
   256
176
     0
 40
1.0
176
     0
 90
        2
176
     1
  1
strokes_ogs.tif
176
     1
290
     0
176
     1
 40
1.0
176
     1
 40
1.0
176
     1
  0
VISUALSTYLE
  5
39
102
{ACAD_REACTORS
330
29
102
}
330
29
100
AcDbVisualStyle
  2
ColorChange
 70
    16
177
     3
291
     1
 70
    58
 90
        2
176
     1
 90
        2
176
     1
 90
        3
176
     1
 90
        0
176
     1
 40
0.6
176
     1
 40
30.0
176
     1
 62
     8
420
  8421504
176
     1
 90
        1
176
     1
 90
        4
176
     1
 62
     7
176
     1
 62
   257
176
     1
 90
        1
176
     1
 90
        1
176
     1
 40
1.0
176
     1
 90
        8
176
     1
 62
     8
420
  8421504
176
     1
 40
1.0
176
     1
 90
        1
176
     1
 90
        6
176
     1
 90
        2
176
     1
 62
     7
176
     1
 90
        5
176
     1
 90
        0
176
     1
 90
        0
176
     1
290
     0
176
     1
 90
        1
176
     1
 40
0.0
176
     1
 90
        0
176
     1
290
     0
176
     1
290
     1
176
     1
290
     1
176
     1
290
     0
176
     1
290
     0
176
     1
290
     0
176
     1
290
     0
176
     1
290
     0
176
     1
290
     0
176
     1
 90
       50
176
     1
 40
0.0
176
     1
 40
1.0
176
     1
 90
        0
176
     1
 62
    18
420
        0
176
     1
 90
       50
176
     1
 90
        3
176
     1
 62
     5
420
      255
176
     1
290
     0
176
     1
 90
       50
176
     1
 90
       50
176
     1
 90
       50
176
     1
290
     0
176
     1
 90
       50
176
     1
 62
   256
176
     0
 40
1.0
176
     0
 90
        2
176
     1
  1
strokes_ogs.tif
176
     1
290
     0
176
     1
 40
1.0
176
     1
 40
1.0
176
     1
  0
VISUALSTYLE
  5
32
102
{ACAD_REACTORS
330
29
102
}
330
29
100
AcDbVisualStyle
  2
Conceptual
 70
     9
177
     3
291
     0
 70
    58
 90
        3
176
     1
 90
        2
176
     1
 90
        0
176
     1
 90
        0
176
     1
 40
0.6
176
     1
 40
30.0
176
     1
 62
     7
420
 16777215
176
     1
 90
        2
176
     1
 90
        2
176
     1
 62
     7
176
     1
 62
   257
176
     1
 90
        1
176
     1
 90
        1
176
     1
 40
179.0
176
     1
 90
        8
176
     1
 62
     7
176
     1
 40
1.0
176
     1
 90
        1
176
     1
 90
        6
176
     1
 90
        2
176
     1
 62
     7
176
     1
 90
        3
176
     1
 90
        0
176
     1
 90
        0
176
     1
290
     0
176
     1
 90
        1
176
     1
 40
0.0
176
     1
 90
        0
176
     1
290
     0
176
     1
290
     1
176
     1
290
     1
176
     1
290
     0
176
     1
290
     0
176
     1
290
     0
176
     1
290
     0
176
     1
290
     0
176
     1
290
     0
176
     1
 90
       50
176
     1
 40
0.0
176
     1
 40
1.0
176
     1
 90
        0
176
     1
 62
    18
420
        0
176
     1
 90
       50
176
     1
 90
        3
176
     1
 62
     5
420
      255
176
     1
290
     0
176
     1
 90
       50
176
     1
 90
       50
176
     1
 90
       50
176
     1
290
     0
176
     1
 90
       50
176
     1
 62
   256
176
     0
 40
1.0
176
     0
 90
        2
176
     1
  1
strokes_ogs.tif
176
     1
290
     0
176
     1
 40
1.0
176
     1
 40
1.0
176
     1
  0
VISUALSTYLE
  5
34
102
{ACAD_REACTORS
330
29
102
}
330
29
100
AcDbVisualStyle
  2
Dim
 70
    11
177
     3
291
     1
 70
    58
 90
        2
176
     1
 90
        2
176
     1
 90
        0
176
     1
 90
        0
176
     1
 40
0.6
176
     1
 40
30.0
176
     1
 62
     7
420
 16777215
176
     1
 90
        1
176
     1
 90
        4
176
     1
 62
     7
176
     1
 62
   257
176
     1
 90
        1
176
     1
 90
        1
176
     1
 40
1.0
176
     1
 90
        8
176
     1
 62
     7
176
     1
 40
1.0
176
     1
 90
        1
176
     1
 90
        6
176
     1
 90
        2
176
     1
 62
     7
176
     1
 90
        5
176
     1
 90
        0
176
     1
 90
        0
176
     1
290
     0
176
     1
 90
        1
176
     1
 40
-50.0
176
     1
 90
        0
176
     1
290
     0
176
     1
290
     1
176
     1
290
     1
176
     1
290
     0
176
     1
290
     0
176
     1
290
     0
176
     1
290
     0
176
     1
290
     0
176
     1
290
     0
176
     1
 90
       50
176
     1
 40
0.0
176
     1
 40
1.0
176
     1
 90
        0
176
     1
 62
    18
420
        0
176
     1
 90
       50
176
     1
 90
        3
176
     1
 62
     5
420
      255
176
     1
290
     0
176
     1
 90
       50
176
     1
 90
       50
176
     1
 90
       50
176
     1
290
     0
176
     1
 90
       50
176
     1
 62
   256
176
     0
 40
1.0
176
     0
 90
        2
176
     1
  1
strokes_ogs.tif
176
     1
290
     0
176
     1
 40
1.0
176
     1
 40
1.0
176
     1
  0
VISUALSTYLE
  5
41
102
{ACAD_REACTORS
330
29
102
}
330
29
100
AcDbVisualStyle
  2
EdgeColorOff
 70
    22
177
     3
291
     1
 70
    58
 90
        2
176
     0
 90
        2
176
     0
 90
        0
176
     0
 90
        0
176
     0
 40
0.6
176
     0
 40
30.0
176
     0
 62
     7
420
 16777215
176
     0
 90
        1
176
     0
 90
        4
176
     0
 62
     7
176
     0
 62
   257
176
     0
 90
        1
176
     0
 90
        1
176
     0
 40
1.0
176
     0
 90
        8
176
     2
 62
     7
176
     0
 40
1.0
176
     0
 90
        1
176
     0
 90
        6
176
     0
 90
        2
176
     0
 62
     7
176
     0
 90
        5
176
     0
 90
        0
176
     0
 90
        0
176
     0
290
     0
176
     0
 90
        1
176
     0
 40
0.0
176
     0
 90
        0
176
     0
290
     0
176
     0
290
     1
176
     0
290
     1
176
     0
290
     0
176
     0
290
     0
176
     0
290
     0
176
     0
290
     0
176
     0
290
     0
176
     0
290
     0
176
     0
 90
       50
176
     0
 40
0.0
176
     0
 40
1.0
176
     0
 90
        0
176
     0
 62
    18
420
        0
176
     0
 90
       50
176
     0
 90
        3
176
     0
 62
     5
420
      255
176
     0
290
     0
176
     0
 90
       50
176
     0
 90
       50
176
     0
 90
       50
176
     0
290
     0
176
     0
 90
       50
176
     0
 62
   256
176
     0
 40
1.0
176
     0
 90
        2
176
     0
  1
strokes_ogs.tif
176
     0
290
     0
176
     0
 40
1.0
176
     0
 40
1.0
176
     0
  0
VISUALSTYLE
  5
38
102
{ACAD_REACTORS
330
29
102
}
330
29
100
AcDbVisualStyle
  2
Facepattern
 70
    15
177
     3
291
     1
 70
    58
 90
        2
176
     1
 90
        2
176
     1
 90
        0
176
     1
 90
        0
176
     1
 40
0.6
176
     1
 40
30.0
176
     1
 62
     7
420
 16777215
176
     1
 90
        1
176
     1
 90
        4
176
     1
 62
     7
176
     1
 62
   257
176
     1
 90
        1
176
     1
 90
        1
176
     1
 40
1.0
176
     1
 90
        8
176
     1
 62
     7
176
     1
 40
1.0
176
     1
 90
        1
176
     1
 90
        6
176
     1
 90
        2
176
     1
 62
     7
176
     1
 90
        5
176
     1
 90
        0
176
     1
 90
        0
176
     1
290
     0
176
     1
 90
        1
176
     1
 40
0.0
176
     1
 90
        0
176
     1
290
     0
176
     1
290
     1
176
     1
290
     1
176
     1
290
     0
176
     1
290
     0
176
     1
290
     0
176
     1
290
     0
176
     1
290
     0
176
     1
290
     0
176
     1
 90
       50
176
     1
 40
0.0
176
     1
 40
1.0
176
     1
 90
        0
176
     1
 62
    18
420
        0
176
     1
 90
       50
176
     1
 90
        3
176
     1
 62
     5
420
      255
176
     1
290
     0
176
     1
 90
       50
176
     1
 90
       50
176
     1
 90
       50
176
     1
290
     0
176
     1
 90
       50
176
     1
 62
   256
176
     0
 40
1.0
176
     0
 90
        2
176
     1
  1
strokes_ogs.tif
176
     1
290
     0
176
     1
 40
1.0
176
     1
 40
1.0
176
     1
  0
VISUALSTYLE
  5
2A
102
{ACAD_REACTORS
330
29
102
}
330
29
100
AcDbVisualStyle
  2
Flat
 70
     0
177
     3
291
     1
 70
    58
 90
        2
176
     1
 90
        1
176
     1
 90
        1
176
     1
 90
        2
176
     1
 40
0.6
176
     1
 40
30.0
176
     1
 62
     7
420
 16777215
176
     1
 90
        0
176
     1
 90
        0
176
     1
 62
     7
176
     1
 62
   257
176
     1
 90
        1
176
     1
 90
        1
176
     1
 40
1.0
176
     1
 90
        8
176
     1
 62
     7
176
     1
 40
1.0
176
     1
 90
        1
176
     1
 90
        6
176
     1
 90
        2
176
     1
 62
     7
176
     1
 90
        5
176
     1
 90
        0
176
     1
 90
        0
176
     1
290
     0
176
     1
 90
       13
176
     1
 40
0.0
176
     1
 90
        0
176
     1
290
     0
176
     1
290
     1
176
     1
290
     1
176
     1
290
     0
176
     1
290
     0
176
     1
290
     0
176
     1
290
     0
176
     1
290
     0
176
     1
290
     0
176
     1
 90
       50
176
     1
 40
0.0
176
     1
 40
1.0
176
     1
 90
        0
176
     1
 62
    18
420
        0
176
     1
 90
       50
176
     1
 90
        3
176
     1
 62
     5
420
      255
176
     1
290
     0
176
     1
 90
       50
176
     1
 90
       50
176
     1
 90
       50
176
     1
290
     0
176
     1
 90
       50
176
     1
 62
   256
176
     0
 40
1.0
176
     0
 90
        2
176
     1
  1
strokes_ogs.tif
176
     1
290
     0
176
     1
 40
1.0
176
     1
 40
1.0
176
     1
  0
VISUALSTYLE
  5
2B
102
{ACAD_REACTORS
330
29
102
}
330
29
100
AcDbVisualStyle
  2
FlatWithEdges
 70
     1
177
     3
291
     1
 70
    58
 90
        2
176
     1
 90
        1
176
     1
 90
        1
176
     1
 90
        2
176
     1
 40
0.6
176
     1
 40
30.0
176
     1
 62
     7
420
 16777215
176
     1
 90
        1
176
     1
 90
        0
176
     1
 62
     7
176
     1
 62
   257
176
     1
 90
        1
176
     1
 90
        1
176
     1
 40
1.0
176
     1
 90
        0
176
     1
 62
   257
176
     1
 40
1.0
176
     1
 90
        1
176
     1
 90
        6
176
     1
 90
        2
176
     1
 62
     7
176
     1
 90
        5
176
     1
 90
        0
176
     1
 90
        0
176
     1
290
     0
176
     1
 90
       13
176
     1
 40
0.0
176
     1
 90
        0
176
     1
290
     0
176
     1
290
     1
176
     1
290
     1
176
     1
290
     0
176
     1
290
     0
176
     1
290
     0
176
     1
290
     0
176
     1
290
     0
176
     1
290
     0
176
     1
 90
       50
176
     1
 40
0.0
176
     1
 40
1.0
176
     1
 90
        0
176
     1
 62
    18
420
        0
176
     1
 90
       50
176
     1
 90
        3
176
     1
 62
     5
420
      255
176
     1
290
     0
176
     1
 90
       50
176
     1
 90
       50
176
     1
 90
       50
176
     1
290
     0
176
     1
 90
       50
176
     1
 62
   256
176
     0
 40
1.0
176
     0
 90
        2
176
     1
  1
strokes_ogs.tif
176
     1
290
     0
176
     1
 40
1.0
176
     1
 40
1.0
176
     1
  0
VISUALSTYLE
  5
2C
102
{ACAD_REACTORS
330
29
102
}
330
29
100
AcDbVisualStyle
  2
Gouraud
 70
     2
177
     3
291
     1
 70
    58
 90
        2
176
     1
 90
        2
176
     1
 90
        1
176
     1
 90
        2
176
     1
 40
0.6
176
     1
 40
30.0
176
     1
 62
     7
420
 16777215
176
     1
 90
        0
176
     1
 90
        0
176
     1
 62
     7
176
     1
 62
   257
176
     1
 90
        1
176
     1
 90
        1
176
     1
 40
1.0
176
     1
 90
        0
176
     1
 62
     7
176
     1
 40
1.0
176
     1
 90
        1
176
     1
 90
        6
176
     1
 90
        2
176
     1
 62
     7
176
     1
 90
        5
176
     1
 90
        0
176
     1
 90
        0
176
     1
290
     0
176
     1
 90
       13
176
     1
 40
0.0
176
     1
 90
        0
176
     1
290
     0
176
     1
290
     1
176
     1
290
     1
176
     1
290
     0
176
     1
290
     0
176
     1
290
     0
176
     1
290
     0
176
     1
290
     0
176
     1
290
     0
176
     1
 90
       50
176
     1
 40
0.0
176
     1
 40
1.0
176
     1
 90
        0
176
     1
 62
    18
420
        0
176
     1
 90
       50
176
     1
 90
        3
176
     1
 62
     5
420
      255
176
     1
290
     0
176
     1
 90
       50
176
     1
 90
       50
176
     1
 90
       50
176
     1
290
     0
176
     1
 90
       50
176
     1
 62
   256
176
     0
 40
1.0
176
     0
 90
        2
176
     1
  1
strokes_ogs.tif
176
     1
290
     0
176
     1
 40
1.0
176
     1
 40
1.0
176
     1
  0
VISUALSTYLE
  5
2D
102
{ACAD_REACTORS
330
29
102
}
330
29
100
AcDbVisualStyle
  2
GouraudWithEdges
 70
     3
177
     3
291
     1
 70
    58
 90
        2
176
     1
 90
        2
176
     1
 90
        1
176
     1
 90
        2
176
     1
 40
0.6
176
     1
 40
30.0
176
     1
 62
     7
420
 16777215
176
     1
 90
        1
176
     1
 90
        0
176
     1
 62
     7
176
     1
 62
   257
176
     1
 90
        1
176
     1
 90
        1
176
     1
 40
1.0
176
     1
 90
        0
176
     1
 62
   257
176
     1
 40
1.0
176
     1
 90
        1
176
     1
 90
        6
176
     1
 90
        2
176
     1
 62
     7
176
     1
 90
        5
176
     1
 90
        0
176
     1
 90
        0
176
     1
290
     0
176
     1
 90
       13
176
     1
 40
0.0
176
     1
 90
        0
176
     1
290
     0
176
     1
290
     1
176
     1
290
     1
176
     1
290
     0
176
     1
290
     0
176
     1
290
     0
176
     1
290
     0
176
     1
290
     0
176
     1
290
     0
176
     1
 90
       50
176
     1
 40
0.0
176
     1
 40
1.0
176
     1
 90
        0
176
     1
 62
    18
420
        0
176
     1
 90
       50
176
     1
 90
        3
176
     1
 62
     5
420
      255
176
     1
290
     0
176
     1
 90
       50
176
     1
 90
       50
176
     1
 90
       50
176
     1
290
     0
176
     1
 90
       50
176
     1
 62
   256
176
     0
 40
1.0
176
     0
 90
        2
176
     1
  1
strokes_ogs.tif
176
     1
290
     0
176
     1
 40
1.0
176
     1
 40
1.0
176
     1
  0
VISUALSTYLE
  5
31
102
{ACAD_REACTORS
330
29
102
}
330
29
100
AcDbVisualStyle
  2
Hidden
 70
     6
177
     3
291
     0
 70
    58
 90
        1
176
     1
 90
        2
176
     1
 90
        2
176
     1
 90
        0
176
     1
 40
0.6
176
     1
 40
30.0
176
     1
 62
     7
420
 16777215
176
     1
 90
        2
176
     1
 90
        2
176
     1
 62
     7
176
     1
 62
   257
176
     1
 90
        2
176
     1
 90
        1
176
     1
 40
40.0
176
     1
 90
        0
176
     1
 62
   257
176
     1
 40
1.0
176
     1
 90
        1
176
     1
 90
        6
176
     1
 90
        2
176
     1
 62
     7
176
     1
 90
        3
176
     1
 90
        0
176
     1
 90
        0
176
     1
290
     0
176
     1
 90
        1
176
     1
 40
0.0
176
     1
 90
        0
176
     1
290
     0
176
     1
290
     1
176
     1
290
     1
176
     1
290
     0
176
     1
290
     0
176
     1
290
     0
176
     1
290
     0
176
     1
290
     0
176
     1
290
     0
176
     1
 90
       50
176
     1
 40
0.0
176
     1
 40
1.0
176
     1
 90
        0
176
     1
 62
    18
420
        0
176
     1
 90
       50
176
     1
 90
        3
176
     1
 62
     5
420
      255
176
     1
290
     0
176
     1
 90
       50
176
     1
 90
       50
176
     1
 90
       50
176
     1
290
     0
176
     1
 90
       50
176
     1
 62
   256
176
     0
 40
1.0
176
     0
 90
        2
176
     1
  1
strokes_ogs.tif
176
     1
290
     0
176
     1
 40
1.0
176
     1
 40
1.0
176
     1
  0
VISUALSTYLE
  5
3F
102
{ACAD_REACTORS
330
29
102
}
330
29
100
AcDbVisualStyle
  2
JitterOff
 70
    20
177
     3
291
     1
 70
    58
 90
        2
176
     0
 90
        2
176
     0
 90
        0
176
     0
 90
        0
176
     0
 40
0.6
176
     0
 40
30.0
176
     0
 62
     7
420
 16777215
176
     0
 90
        1
176
     0
 90
        4
176
     0
 62
     7
176
     0
 62
   257
176
     0
 90
        1
176
     0
 90
        1
176
     0
 40
1.0
176
     0
 90
       10
176
     2
 62
     7
176
     0
 40
1.0
176
     0
 90
        1
176
     0
 90
        6
176
     0
 90
        2
176
     0
 62
     7
176
     0
 90
        5
176
     0
 90
        0
176
     0
 90
        0
176
     0
290
     0
176
     0
 90
        1
176
     0
 40
0.0
176
     0
 90
        0
176
     0
290
     0
176
     0
290
     1
176
     0
290
     1
176
     0
290
     0
176
     0
290
     0
176
     0
290
     0
176
     0
290
     0
176
     0
290
     0
176
     0
290
     0
176
     0
 90
       50
176
     0
 40
0.0
176
     0
 40
1.0
176
     0
 90
        0
176
     0
 62
    18
420
        0
176
     0
 90
       50
176
     0
 90
        3
176
     0
 62
     5
420
      255
176
     0
290
     0
176
     0
 90
       50
176
     0
 90
       50
176
     0
 90
       50
176
     0
290
     0
176
     0
 90
       50
176
     0
 62
   256
176
     0
 40
1.0
176
     0
 90
        2
176
     0
  1
strokes_ogs.tif
176
     0
290
     0
176
     0
 40
1.0
176
     0
 40
1.0
176
     0
  0
VISUALSTYLE
  5
37
102
{ACAD_REACTORS
330
29
102
}
330
29
100
AcDbVisualStyle
  2
Linepattern
 70
    14
177
     3
291
     1
 70
    58
 90
        2
176
     1
 90
        2
176
     1
 90
        0
176
     1
 90
        0
176
     1
 40
0.6
176
     1
 40
30.0
176
     1
 62
     7
420
 16777215
176
     1
 90
        1
176
     1
 90
        4
176
     1
 62
     7
176
     1
 62
   257
176
     1
 90
        7
176
     1
 90
        7
176
     1
 40
1.0
176
     1
 90
        8
176
     1
 62
     7
176
     1
 40
1.0
176
     1
 90
        1
176
     1
 90
        6
176
     1
 90
        2
176
     1
 62
     7
176
     1
 90
        5
176
     1
 90
        0
176
     1
 90
        0
176
     1
290
     0
176
     1
 90
        1
176
     1
 40
0.0
176
     1
 90
        0
176
     1
290
     0
176
     1
290
     1
176
     1
290
     1
176
     1
290
     0
176
     1
290
     0
176
     1
290
     0
176
     1
290
     0
176
     1
290
     0
176
     1
290
     0
176
     1
 90
       50
176
     1
 40
0.0
176
     1
 40
1.0
176
     1
 90
        0
176
     1
 62
    18
420
        0
176
     1
 90
       50
176
     1
 90
        3
176
     1
 62
     5
420
      255
176
     1
290
     0
176
     1
 90
       50
176
     1
 90
       50
176
     1
 90
       50
176
     1
290
     0
176
     1
 90
       50
176
     1
 62
   256
176
     0
 40
1.0
176
     0
 90
        2
176
     1
  1
strokes_ogs.tif
176
     1
290
     0
176
     1
 40
1.0
176
     1
 40
1.0
176
     1
  0
VISUALSTYLE
  5
40
102
{ACAD_REACTORS
330
29
102
}
330
29
100
AcDbVisualStyle
  2
OverhangOff
 70
    21
177
     3
291
     1
 70
    58
 90
        2
176
     0
 90
        2
176
     0
 90
        0
176
     0
 90
        0
176
     0
 40
0.6
176
     0
 40
30.0
176
     0
 62
     7
420
 16777215
176
     0
 90
        1
176
     0
 90
        4
176
     0
 62
     7
176
     0
 62
   257
176
     0
 90
        1
176
     0
 90
        1
176
     0
 40
1.0
176
     0
 90
        9
176
     2
 62
     7
176
     0
 40
1.0
176
     0
 90
        1
176
     0
 90
        6
176
     0
 90
        2
176
     0
 62
     7
176
     0
 90
        5
176
     0
 90
        0
176
     0
 90
        0
176
     0
290
     0
176
     0
 90
        1
176
     0
 40
0.0
176
     0
 90
        0
176
     0
290
     0
176
     0
290
     1
176
     0
290
     1
176
     0
290
     0
176
     0
290
     0
176
     0
290
     0
176
     0
290
     0
176
     0
290
     0
176
     0
290
     0
176
     0
 90
       50
176
     0
 40
0.0
176
     0
 40
1.0
176
     0
 90
        0
176
     0
 62
    18
420
        0
176
     0
 90
       50
176
     0
 90
        3
176
     0
 62
     5
420
      255
176
     0
290
     0
176
     0
 90
       50
176
     0
 90
       50
176
     0
 90
       50
176
     0
290
     0
176
     0
 90
       50
176
     0
 62
   256
176
     0
 40
1.0
176
     0
 90
        2
176
     0
  1
strokes_ogs.tif
176
     0
290
     0
176
     0
 40
1.0
176
     0
 40
1.0
176
     0
  0
VISUALSTYLE
  5
33
102
{ACAD_REACTORS
330
29
102
}
330
29
100
AcDbVisualStyle
  2
Realistic
 70
     8
177
     3
291
     0
 70
    58
 90
        2
176
     1
 90
        2
176
     1
 90
        0
176
     1
 90
        2
176
     1
 40
0.6
176
     1
 40
30.0
176
     1
 62
     7
420
 16777215
176
     1
 90
        0
176
     1
 90
        0
176
     1
 62
     7
176
     1
 62
   257
176
     1
 90
        1
176
     1
 90
        1
176
     1
 40
1.0
176
     1
 90
        8
176
     1
 62
   257
176
     1
 40
1.0
176
     1
 90
        1
176
     1
 90
        6
176
     1
 90
        2
176
     1
 62
     7
176
     1
 90
        3
176
     1
 90
        0
176
     1
 90
        0
176
     1
290
     0
176
     1
 90
       13
176
     1
 40
0.0
176
     1
 90
        0
176
     1
290
     0
176
     1
290
     1
176
     1
290
     1
176
     1
290
     0
176
     1
290
     0
176
     1
290
     0
176
     1
290
     0
176
     1
290
     0
176
     1
290
     0
176
     1
 90
       50
176
     1
 40
0.0
176
     1
 40
1.0
176
     1
 90
        0
176
     1
 62
    18
420
        0
176
     1
 90
       50
176
     1
 90
        3
176
     1
 62
     5
420
      255
176
     1
290
     0
176
     1
 90
       50
176
     1
 90
       50
176
     1
 90
       50
176
     1
290
     0
176
     1
 90
       50
176
     1
 62
   256
176
     0
 40
1.0
176
     0
 90
        2
176
     1
  1
strokes_ogs.tif
176
     1
290
     0
176
     1
 40
1.0
176
     1
 40
1.0
176
     1
  0
VISUALSTYLE
  5
3E
102
{ACAD_REACTORS
330
29
102
}
330
29
100
AcDbVisualStyle
  2
Shaded
 70
    27
177
     3
291
     0
 70
    58
 90
        2
176
     1
 90
        2
176
     1
 90
        1
176
     1
 90
        2
176
     1
 40
0.6
176
     1
 40
30.0
176
     1
 62
     7
420
 16777215
176
     1
 90
        0
176
     1
 90
        4
176
     1
 62
     7
176
     1
 62
   257
176
     1
 90
        1
176
     1
 90
        1
176
     1
 40
1.0
176
     1
 90
        8
176
     1
 62
   257
176
     1
 40
1.0
176
     1
 90
        1
176
     1
 90
        6
176
     1
 90
        2
176
     1
 62
     8
420
  7895160
176
     1
 90
        3
176
     1
 90
        0
176
     1
 90
        0
176
     1
290
     0
176
     1
 90
        5
176
     1
 40
0.0
176
     1
 90
        0
176
     1
290
     0
176
     1
290
     1
176
     1
290
     1
176
     1
290
     0
176
     1
290
     0
176
     1
290
     0
176
     1
290
     0
176
     1
290
     0
176
     1
290
     0
176
     1
 90
       50
176
     1
 40
0.0
176
     1
 40
1.0
176
     1
 90
        0
176
     1
 62
    18
420
        0
176
     1
 90
       50
176
     1
 90
        3
176
     1
 62
     5
420
      255
176
     1
290
     0
176
     1
 90
       50
176
     1
 90
       50
176
     1
 90
       50
176
     1
290
     0
176
     1
 90
       50
176
     1
 62
   256
176
     0
 40
1.0
176
     0
 90
        2
176
     1
  1
strokes_ogs.tif
176
     1
290
     0
176
     1
 40
1.0
176
     1
 40
1.0
176
     1
  0
VISUALSTYLE
  5
3D
102
{ACAD_REACTORS
330
29
102
}
330
29
100
AcDbVisualStyle
  2
Shaded with edges
 70
    26
177
     3
291
     0
 70
    58
 90
        2
176
     1
 90
        2
176
     1
 90
        1
176
     1
 90
        2
176
     1
 40
0.6
176
     1
 40
30.0
176
     1
 62
     7
420
 16777215
176
     1
 90
        1
176
     1
 90
       10
176
     1
 62
     7
176
     1
 62
   257
176
     1
 90
        2
176
     1
 90
        1
176
     1
 40
1.0
176
     1
 90
        8
176
     1
 62
   257
176
     1
 40
1.0
176
     1
 90
        1
176
     1
 90
        6
176
     1
 90
        2
176
     1
 62
     7
176
     1
 90
        3
176
     1
 90
        0
176
     1
 90
        0
176
     1
290
     0
176
     1
 90
        5
176
     1
 40
0.0
176
     1
 90
        0
176
     1
290
     0
176
     1
290
     1
176
     1
290
     1
176
     1
290
     0
176
     1
290
     0
176
     1
290
     0
176
     1
290
     0
176
     1
290
     0
176
     1
290
     0
176
     1
 90
       50
176
     1
 40
0.0
176
     1
 40
1.0
176
     1
 90
        0
176
     1
 62
    18
420
        0
176
     1
 90
       50
176
     1
 90
        3
176
     1
 62
     5
420
      255
176
     1
290
     0
176
     1
 90
       50
176
     1
 90
       50
176
     1
 90
       50
176
     1
290
     0
176
     1
 90
       50
176
     1
 62
   256
176
     0
 40
1.0
176
     0
 90
        2
176
     1
  1
strokes_ogs.tif
176
     1
290
     0
176
     1
 40
1.0
176
     1
 40
1.0
176
     1
  0
VISUALSTYLE
  5
3A
102
{ACAD_REACTORS
330
29
102
}
330
29
100
AcDbVisualStyle
  2
Shades of Gray
 70
    23
177
     3
291
     0
 70
    58
 90
        2
176
     1
 90
        2
176
     1
 90
        3
176
     1
 90
        0
176
     1
 40
0.6
176
     1
 40
30.0
176
     1
 62
     7
420
 16777215
176
     1
 90
        2
176
     1
 90
        2
176
     1
 62
     7
176
     1
 62
     7
176
     1
 90
        1
176
     1
 90
        1
176
     1
 40
40.0
176
     1
 90
        8
176
     1
 62
     7
176
     1
 40
1.0
176
     1
 90
        1
176
     1
 90
        6
176
     1
 90
        2
176
     1
 62
     7
176
     1
 90
        3
176
     1
 90
        0
176
     1
 90
        0
176
     1
290
     0
176
     1
 90
        1
176
     1
 40
0.0
176
     1
 90
        0
176
     1
290
     0
176
     1
290
     1
176
     1
290
     1
176
     1
290
     0
176
     1
290
     0
176
     1
290
     0
176
     1
290
     0
176
     1
290
     0
176
     1
290
     0
176
     1
 90
       50
176
     1
 40
0.0
176
     1
 40
1.0
176
     1
 90
        0
176
     1
 62
    18
420
        0
176
     1
 90
       50
176
     1
 90
        3
176
     1
 62
     5
420
      255
176
     1
290
     0
176
     1
 90
       50
176
     1
 90
       50
176
     1
 90
       50
176
     1
290
     0
176
     1
 90
       50
176
     1
 62
   256
176
     0
 40
1.0
176
     0
 90
        2
176
     1
  1
strokes_ogs.tif
176
     1
290
     0
176
     1
 40
1.0
176
     1
 40
1.0
176
     1
  0
VISUALSTYLE
  5
3B
102
{ACAD_REACTORS
330
29
102
}
330
29
100
AcDbVisualStyle
  2
Sketchy
 70
    24
177
     3
291
     0
 70
    58
 90
        1
176
     1
 90
        2
176
     1
 90
        2
176
     1
 90
        0
176
     1
 40
0.6
176
     1
 40
30.0
176
     1
 62
     7
420
 16777215
176
     1
 90
        2
176
     1
 90
        2
176
     1
 62
     7
176
     1
 62
     7
176
     1
 90
        1
176
     1
 90
        1
176
     1
 40
40.0
176
     1
 90
       11
176
     1
 62
     7
176
     1
 40
1.0
176
     1
 90
        1
176
     1
 90
        6
176
     1
 90
        2
176
     1
 62
     7
176
     1
 90
        6
176
     1
 90
        0
176
     1
 90
        0
176
     1
290
     0
176
     1
 90
        1
176
     1
 40
0.0
176
     1
 90
        0
176
     1
290
     0
176
     1
290
     1
176
     1
290
     1
176
     1
290
     0
176
     1
290
     0
176
     1
290
     0
176
     1
290
     0
176
     1
290
     0
176
     1
290
     0
176
     1
 90
       50
176
     1
 40
0.0
176
     1
 40
1.0
176
     1
 90
        0
176
     1
 62
    18
420
        0
176
     1
 90
       50
176
     1
 90
        3
176
     1
 62
     5
420
      255
176
     1
290
     0
176
     1
 90
       50
176
     1
 90
       50
176
     1
 90
       50
176
     1
290
     0
176
     1
 90
       50
176
     1
 62
   256
176
     0
 40
1.0
176
     0
 90
        2
176
     1
  1
strokes_ogs.tif
176
     1
290
     0
176
     1
 40
1.0
176
     1
 40
1.0
176
     1
  0
VISUALSTYLE
  5
36
102
{ACAD_REACTORS
330
29
102
}
330
29
100
AcDbVisualStyle
  2
Thicken
 70
    13
177
     3
291
     1
 70
    58
 90
        2
176
     1
 90
        2
176
     1
 90
        0
176
     1
 90
        0
176
     1
 40
0.6
176
     1
 40
30.0
176
     1
 62
     7
420
 16777215
176
     1
 90
        1
176
     1
 90
        4
176
     1
 62
     7
176
     1
 62
   257
176
     1
 90
        1
176
     1
 90
        1
176
     1
 40
1.0
176
     1
 90
       12
176
     1
 62
     7
176
     1
 40
1.0
176
     1
 90
        1
176
     1
 90
        6
176
     1
 90
        2
176
     1
 62
     7
176
     1
 90
        5
176
     1
 90
        0
176
     1
 90
        0
176
     1
290
     0
176
     1
 90
        1
176
     1
 40
0.0
176
     1
 90
        0
176
     1
290
     0
176
     1
290
     1
176
     1
290
     1
176
     1
290
     0
176
     1
290
     0
176
     1
290
     0
176
     1
290
     0
176
     1
290
     0
176
     1
290
     0
176
     1
 90
       50
176
     1
 40
0.0
176
     1
 40
1.0
176
     1
 90
        0
176
     1
 62
    18
420
        0
176
     1
 90
       50
176
     1
 90
        3
176
     1
 62
     5
420
      255
176
     1
290
     0
176
     1
 90
       50
176
     1
 90
       50
176
     1
 90
       50
176
     1
290
     0
176
     1
 90
       50
176
     1
 62
   256
176
     0
 40
1.0
176
     0
 90
        2
176
     1
  1
strokes_ogs.tif
176
     1
290
     0
176
     1
 40
1.0
176
     1
 40
1.0
176
     1
  0
VISUALSTYLE
  5
30
102
{ACAD_REACTORS
330
29
102
}
330
29
100
AcDbVisualStyle
  2
Wireframe
 70
     5
177
     3
291
     0
 70
    58
 90
        0
176
     1
 90
        2
176
     1
 90
        0
176
     1
 90
        0
176
     1
 40
0.6
176
     1
 40
30.0
176
     1
 62
     7
420
 16777215
176
     1
 90
        1
176
     1
 90
        4
176
     1
 62
     7
176
     1
 62
   257
176
     1
 90
        1
176
     1
 90
        1
176
     1
 40
1.0
176
     1
 90
        0
176
     1
 62
   257
176
     1
 40
1.0
176
     1
 90
        1
176
     1
 90
        6
176
     1
 90
        2
176
     1
 62
     7
176
     1
 90
        3
176
     1
 90
        0
176
     1
 90
        0
176
     1
290
     0
176
     1
 90
        1
176
     1
 40
0.0
176
     1
 90
        0
176
     1
290
     0
176
     1
290
     1
176
     1
290
     1
176
     1
290
     0
176
     1
290
     0
176
     1
290
     0
176
     1
290
     0
176
     1
290
     0
176
     1
290
     0
176
     1
 90
       50
176
     1
 40
0.0
176
     1
 40
1.0
176
     1
 90
        0
176
     1
 62
    18
420
        0
176
     1
 90
       50
176
     1
 90
        3
176
     1
 62
     5
420
      255
176
     1
290
     0
176
     1
 90
       50
176
     1
 90
       50
176
     1
 90
       50
176
     1
290
     0
176
     1
 90
       50
176
     1
 62
   256
176
     0
 40
1.0
176
     0
 90
        2
176
     1
  1
strokes_ogs.tif
176
     1
290
     0
176
     1
 40
1.0
176
     1
 40
1.0
176
     1
  0
VISUALSTYLE
  5
3C
102
{ACAD_REACTORS
330
29
102
}
330
29
100
AcDbVisualStyle
  2
X-Ray
 70
    25
177
     3
291
     0
 70
    58
 90
        2
176
     1
 90
        2
176
     1
 90
        1
176
     1
 90
        1
176
     1
 40
0.5
176
     1
 40
30.0
176
     1
 62
     7
420
 16777215
176
     1
 90
        1
176
     1
 90
        0
176
     1
 62
     7
176
     1
 62
   257
176
     1
 90
        1
176
     1
 90
        1
176
     1
 40
1.0
176
     1
 90
        8
176
     1
 62
     7
176
     1
 40
1.0
176
     1
 90
        1
176
     1
 90
        6
176
     1
 90
        2
176
     1
 62
     7
176
     1
 90
        3
176
     1
 90
        0
176
     1
 90
        0
176
     1
290
     0
176
     1
 90
       13
176
     1
 40
0.0
176
     1
 90
        0
176
     1
290
     0
176
     1
290
     1
176
     1
290
     1
176
     1
290
     0
176
     1
290
     0
176
     1
290
     0
176
     1
290
     0
176
     1
290
     0
176
     1
290
     0
176
     1
 90
       50
176
     1
 40
0.0
176
     1
 40
1.0
176
     1
 90
        0
176
     1
 62
    18
420
        0
176
     1
 90
       50
176
     1
 90
        3
176
     1
 62
     5
420
      255
176
     1
290
     0
176
     1
 90
       50
176
     1
 90
       50
176
     1
 90
       50
176
     1
290
     0
176
     1
 90
       50
176
     1
 62
   256
176
     0
 40
1.0
176
     0
 90
        2
176
     1
  1
strokes_ogs.tif
176
     1
290
     0
176
     1
 40
1.0
176
     1
 40
1.0
176
     1
  0
DICTIONARYVAR
  5
C3
102
{ACAD_REACTORS
330
BD
102
}
330
BD
100
DictionaryVariables
280
     0
  1
1:1
  0
DICTIONARYVAR
  5
BF
102
{ACAD_REACTORS
330
BD
102
}
330
BD
100
DictionaryVariables
280
     0
  1
STANDARD
  0
DICTIONARYVAR
  5
BE
102
{ACAD_REACTORS
330
BD
102
}
330
BD
100
DictionaryVariables
280
     0
  1
STANDARD
  0
DICTIONARYVAR
  5
C0
102
{ACAD_REACTORS
330
BD
102
}
330
BD
100
DictionaryVariables
280
     0
  1
Metric50
  0
DICTIONARYVAR
  5
C1
102
{ACAD_REACTORS
330
BD
102
}
330
BD
100
DictionaryVariables
280
     0
  1
Metric50
  0
DICTIONARYVAR
  5
C5
102
{ACAD_REACTORS
330
BD
102
}
330
BD
100
DictionaryVariables
280
     0
  1
0
  0
DICTIONARYVAR
  5
C6
102
{ACAD_REACTORS
330
BD
102
}
330
BD
100
DictionaryVariables
280
     0
  1
0
  0
DICTIONARYVAR
  5
C4
102
{ACAD_REACTORS
330
BD
102
}
330
BD
100
DictionaryVariables
280
     0
  1
2
  0
DICTIONARYVAR
  5
C2
102
{ACAD_REACTORS
330
BD
102
}
330
BD
100
DictionaryVariables
280
     0
  1
1
  0
DICTIONARY
  5
1A
330
19
100
AcDbDictionary
280
     1
281
     1
  3
BUMPTILE
360
1C
  3
DIFFUSETILE
360
1B
  3
OPACITYTILE
360
1F
  3
REFLECTIONTILE
360
1E
  3
REFRACTIONTILE
360
20
  3
SPECULARTILE
360
1D
  0
DICTIONARY
  5
12
330
11
100
AcDbDictionary
280
     1
281
     1
  3
BUMPTILE
360
14
  3
DIFFUSETILE
360
13
  3
OPACITYTILE
360
17
  3
REFLECTIONTILE
360
16
  3
REFRACTIONTILE
360
18
  3
SPECULARTILE
360
15
  0
DICTIONARY
  5
22
330
21
100
AcDbDictionary
280
     1
281
     1
  3
BUMPTILE
360
24
  3
DIFFUSETILE
360
23
  3
OPACITYTILE
360
27
  3
REFLECTIONTILE
360
26
  3
REFRACTIONTILE
360
28
  3
SPECULARTILE
360
25
  0
DICTIONARY
  5
7D
330
65
100
AcDbDictionary
280
     1
281
     1
  3
ACAD_ROUNDTRIP_2008_TABLESTYLE_CELLSTYLEMAP
360
676
  0
XRECORD
  5
1C
102
{ACAD_REACTORS
330
1A
102
}
330
1A
100
AcDbXrecord
280
     1
270
     1
271
     1
  0
XRECORD
  5
1B
102
{ACAD_REACTORS
330
1A
102
}
330
1A
100
AcDbXrecord
280
     1
270
     1
271
     1
  0
XRECORD
  5
1F
102
{ACAD_REACTORS
330
1A
102
}
330
1A
100
AcDbXrecord
280
     1
270
     1
271
     1
  0
XRECORD
  5
1E
102
{ACAD_REACTORS
330
1A
102
}
330
1A
100
AcDbXrecord
280
     1
270
     1
271
     1
  0
XRECORD
  5
20
102
{ACAD_REACTORS
330
1A
102
}
330
1A
100
AcDbXrecord
280
     1
270
     1
271
     1
  0
XRECORD
  5
1D
102
{ACAD_REACTORS
330
1A
102
}
330
1A
100
AcDbXrecord
280
     1
270
     1
271
     1
  0
XRECORD
  5
14
102
{ACAD_REACTORS
330
12
102
}
330
12
100
AcDbXrecord
280
     1
270
     1
271
     1
  0
XRECORD
  5
13
102
{ACAD_REACTORS
330
12
102
}
330
12
100
AcDbXrecord
280
     1
270
     1
271
     1
  0
XRECORD
  5
17
102
{ACAD_REACTORS
330
12
102
}
330
12
100
AcDbXrecord
280
     1
270
     1
271
     1
  0
XRECORD
  5
16
102
{ACAD_REACTORS
330
12
102
}
330
12
100
AcDbXrecord
280
     1
270
     1
271
     1
  0
XRECORD
  5
18
102
{ACAD_REACTORS
330
12
102
}
330
12
100
AcDbXrecord
280
     1
270
     1
271
     1
  0
XRECORD
  5
15
102
{ACAD_REACTORS
330
12
102
}
330
12
100
AcDbXrecord
280
     1
270
     1
271
     1
  0
XRECORD
  5
24
102
{ACAD_REACTORS
330
22
102
}
330
22
100
AcDbXrecord
280
     1
270
     1
271
     1
  0
XRECORD
  5
23
102
{ACAD_REACTORS
330
22
102
}
330
22
100
AcDbXrecord
280
     1
270
     1
271
     1
  0
XRECORD
  5
27
102
{ACAD_REACTORS
330
22
102
}
330
22
100
AcDbXrecord
280
     1
270
     1
271
     1
  0
XRECORD
  5
26
102
{ACAD_REACTORS
330
22
102
}
330
22
100
AcDbXrecord
280
     1
270
     1
271
     1
  0
XRECORD
  5
28
102
{ACAD_REACTORS
330
22
102
}
330
22
100
AcDbXrecord
280
     1
270
     1
271
     1
  0
XRECORD
  5
25
102
{ACAD_REACTORS
330
22
102
}
330
22
100
AcDbXrecord
280
     1
270
     1
271
     1
  0
CELLSTYLEMAP
  5
676
102
{ACAD_REACTORS
330
7D
102
}
330
7D
100
AcDbCellStyleMap
 90
        3
300
CELLSTYLE
  1
TABLEFORMAT_BEGIN
 90
        5
170
     1
 91
        0
 92
    32768
 62
   257
 93
        1
300
CONTENTFORMAT
  1
CONTENTFORMAT_BEGIN
 90
        0
 91
        0
 92
      512
 93
        0
300

 40
0.0
140
1.0
 94
        5
 62
     0
340
55
144
6.0
309
CONTENTFORMAT_END
171
     1
301
MARGIN
  1
CELLMARGIN_BEGIN
 40
1.5
 40
1.5
 40
1.5
 40
1.5
 40
4.5
 40
4.5
309
CELLMARGIN_END
 94
        6
 95
        1
302
GRIDFORMAT
  1
GRIDFORMAT_BEGIN
 90
        0
 91
        1
 62
     0
 92
       -2
340
0
 93
        0
 40
1.125
309
GRIDFORMAT_END
 95
        2
302
GRIDFORMAT
  1
GRIDFORMAT_BEGIN
 90
        0
 91
        1
 62
     0
 92
       -2
340
0
 93
        0
 40
1.125
309
GRIDFORMAT_END
 95
        4
302
GRIDFORMAT
  1
GRIDFORMAT_BEGIN
 90
        0
 91
        1
 62
     0
 92
       -2
340
0
 93
        0
 40
1.125
309
GRIDFORMAT_END
 95
        8
302
GRIDFORMAT
  1
GRIDFORMAT_BEGIN
 90
        0
 91
        1
 62
     0
 92
       -2
340
0
 93
        0
 40
1.125
309
GRIDFORMAT_END
 95
       16
302
GRIDFORMAT
  1
GRIDFORMAT_BEGIN
 90
        0
 91
        1
 62
     0
 92
       -2
340
0
 93
        0
 40
1.125
309
GRIDFORMAT_END
 95
       32
302
GRIDFORMAT
  1
GRIDFORMAT_BEGIN
 90
        0
 91
        1
 62
     0
 92
       -2
340
0
 93
        0
 40
1.125
309
GRIDFORMAT_END
309
TABLEFORMAT_END
  1
CELLSTYLE_BEGIN
 90
        1
 91
        1
300
_TITLE
309
CELLSTYLE_END
300
CELLSTYLE
  1
TABLEFORMAT_BEGIN
 90
        5
170
     1
 91
        0
 92
        0
 62
   257
 93
        1
300
CONTENTFORMAT
  1
CONTENTFORMAT_BEGIN
 90
        0
 91
        0
 92
      512
 93
        0
300

 40
0.0
140
1.0
 94
        5
 62
     0
340
55
144
4.5
309
CONTENTFORMAT_END
171
     1
301
MARGIN
  1
CELLMARGIN_BEGIN
 40
1.5
 40
1.5
 40
1.5
 40
1.5
 40
4.5
 40
4.5
309
CELLMARGIN_END
 94
        6
 95
        1
302
GRIDFORMAT
  1
GRIDFORMAT_BEGIN
 90
        0
 91
        1
 62
     0
 92
       -2
340
0
 93
        0
 40
1.125
309
GRIDFORMAT_END
 95
        2
302
GRIDFORMAT
  1
GRIDFORMAT_BEGIN
 90
        0
 91
        1
 62
     0
 92
       -2
340
0
 93
        0
 40
1.125
309
GRIDFORMAT_END
 95
        4
302
GRIDFORMAT
  1
GRIDFORMAT_BEGIN
 90
        0
 91
        1
 62
     0
 92
       -2
340
0
 93
        0
 40
1.125
309
GRIDFORMAT_END
 95
        8
302
GRIDFORMAT
  1
GRIDFORMAT_BEGIN
 90
        0
 91
        1
 62
     0
 92
       -2
340
0
 93
        0
 40
1.125
309
GRIDFORMAT_END
 95
       16
302
GRIDFORMAT
  1
GRIDFORMAT_BEGIN
 90
        0
 91
        1
 62
     0
 92
       -2
340
0
 93
        0
 40
1.125
309
GRIDFORMAT_END
 95
       32
302
GRIDFORMAT
  1
GRIDFORMAT_BEGIN
 90
        0
 91
        1
 62
     0
 92
       -2
340
0
 93
        0
 40
1.125
309
GRIDFORMAT_END
309
TABLEFORMAT_END
  1
CELLSTYLE_BEGIN
 90
        2
 91
        1
300
_HEADER
309
CELLSTYLE_END
300
CELLSTYLE
  1
TABLEFORMAT_BEGIN
 90
        5
170
     1
 91
        0
 92
        0
 62
   257
 93
        1
300
CONTENTFORMAT
  1
CONTENTFORMAT_BEGIN
 90
        0
 91
        0
 92
      512
 93
        0
300

 40
0.0
140
1.0
 94
        2
 62
     0
340
55
144
4.5
309
CONTENTFORMAT_END
171
     1
301
MARGIN
  1
CELLMARGIN_BEGIN
 40
1.5
 40
1.5
 40
1.5
 40
1.5
 40
4.5
 40
4.5
309
CELLMARGIN_END
 94
        6
 95
        1
302
GRIDFORMAT
  1
GRIDFORMAT_BEGIN
 90
        0
 91
        1
 62
     0
 92
       -2
340
0
 93
        0
 40
1.125
309
GRIDFORMAT_END
 95
        2
302
GRIDFORMAT
  1
GRIDFORMAT_BEGIN
 90
        0
 91
        1
 62
     0
 92
       -2
340
0
 93
        0
 40
1.125
309
GRIDFORMAT_END
 95
        4
302
GRIDFORMAT
  1
GRIDFORMAT_BEGIN
 90
        0
 91
        1
 62
     0
 92
       -2
340
0
 93
        0
 40
1.125
309
GRIDFORMAT_END
 95
        8
302
GRIDFORMAT
  1
GRIDFORMAT_BEGIN
 90
        0
 91
        1
 62
     0
 92
       -2
340
0
 93
        0
 40
1.125
309
GRIDFORMAT_END
 95
       16
302
GRIDFORMAT
  1
GRIDFORMAT_BEGIN
 90
        0
 91
        1
 62
     0
 92
       -2
340
0
 93
        0
 40
1.125
309
GRIDFORMAT_END
 95
       32
302
GRIDFORMAT
  1
GRIDFORMAT_BEGIN
 90
        0
 91
        1
 62
     0
 92
       -2
340
0
 93
        0
 40
1.125
309
GRIDFORMAT_END
309
TABLEFORMAT_END
  1
CELLSTYLE_BEGIN
 90
        3
 91
        2
300
_DATA
309
CELLSTYLE_END
  0
ENDSEC
  0
SECTION
  2
ACDSDATA
 70
     2
 71
     2
  0
ACDSSCHEMA
 90
        0
  1
AcDb_Thumbnail_Schema
  2
AcDbDs::ID
280
    10
 91
        8
  2
Thumbnail_Data
280
    15
 91
        0
101
ACDSRECORD
 95
        0
 90
        2
  2
AcDbDs::TreatedAsObjectData
280
     1
291
     1
101
ACDSRECORD
 95
        0
 90
        3
  2
AcDbDs::Legacy
280
     1
291
     1
101
ACDSRECORD
  1
AcDbDs::ID
 90
        4
  2
AcDs:Indexable
280
     1
291
     1
101
ACDSRECORD
  1
AcDbDs::ID
 90
        5
  2
AcDbDs::HandleAttribute
280
     7
282
     1
  0
ACDSSCHEMA
 90
        1
  1
AcDb3DSolid_ASM_Data
  2
AcDbDs::ID
280
    10
 91
        8
  2
ASM_Data
280
    15
 91
        0
101
ACDSRECORD
 95
        1
 90
        2
  2
AcDbDs::TreatedAsObjectData
280
     1
291
     1
101
ACDSRECORD
 95
        1
 90
        3
  2
AcDbDs::Legacy
280
     1
291
     1
101
ACDSRECORD
  1
AcDbDs::ID
 90
        4
  2
AcDs:Indexable
280
     1
291
     1
101
ACDSRECORD
  1
AcDbDs::ID
 90
        5
  2
AcDbDs::HandleAttribute
280
     7
282
     1
  0
ACDSSCHEMA
 90
        2
  1
AcDbDs::TreatedAsObjectDataSchema
  2
AcDbDs::TreatedAsObjectData
280
     1
 91
        0
  0
ACDSSCHEMA
 90
        3
  1
AcDbDs::LegacySchema
  2
AcDbDs::Legacy
280
     1
 91
        0
  0
ACDSSCHEMA
 90
        4
  1
AcDbDs::IndexedPropertySchema
  2
AcDs:Indexable
280
     1
 91
        0
  0
ACDSSCHEMA
 90
        5
  1
AcDbDs::HandleAttributeSchema
  2
AcDbDs::HandleAttribute
280
     7
 91
        1
284
     1
  0
ACDSRECORD
 90
        0
  2
AcDbDs::ID
280
    10
320
73
  2
Thumbnail_Data
280
    15
 94
     2965
310
89504E470D0A1A0A0000000D494844520000010000000065080300000095E2CD0900000300504C5445212830000000C8C8C80000000000000000000000000000000000000000000000000000330000660000990000CC0000FF0033000033330033660033990033CC0033FF0066000066330066660066990066CC0066FF0099
310
000099330099660099990099CC0099FF00CC0000CC3300CC6600CC9900CCCC00CCFF00FF0000FF3300FF6600FF9900FFCC00FFFF3300003300333300663300993300CC3300FF3333003333333333663333993333CC3333FF3366003366333366663366993366CC3366FF3399003399333399663399993399CC3399FF33CC00
310
33CC3333CC6633CC9933CCCC33CCFF33FF0033FF3333FF6633FF9933FFCC33FFFF6600006600336600666600996600CC6600FF6633006633336633666633996633CC6633FF6666006666336666666666996666CC6666FF6699006699336699666699996699CC6699FF66CC0066CC3366CC6666CC9966CCCC66CCFF66FF0066
310
FF3366FF6666FF9966FFCC66FFFF9900009900339900669900999900CC9900FF9933009933339933669933999933CC9933FF9966009966339966669966999966CC9966FF9999009999339999669999999999CC9999FF99CC0099CC3399CC6699CC9999CCCC99CCFF99FF0099FF3399FF6699FF9999FFCC99FFFFCC0000CC00
310
33CC0066CC0099CC00CCCC00FFCC3300CC3333CC3366CC3399CC33CCCC33FFCC6600CC6633CC6666CC6699CC66CCCC66FFCC9900CC9933CC9966CC9999CC99CCCC99FFCCCC00CCCC33CCCC66CCCC99CCCCCCCCCCFFCCFF00CCFF33CCFF66CCFF99CCFFCCCCFFFFFF0000FF0033FF0066FF0099FF00CCFF00FFFF3300FF3333
310
FF3366FF3399FF33CCFF33FFFF6600FF6633FF6666FF6699FF66CCFF66FFFF9900FF9933FF9966FF9999FF99CCFF99FFFFCC00FFCC33FFCC66FFCC99FFCCCCFFCCFFFFFF00FFFF33FFFF66FFFF99FFFFCCFFFFFF0000000D0D0D1A1A1A2828283535354343435050505D5D5D6B6B6B787878868686939393A1A1A1AEAEAEBB
310
BBBBC9C9C9D6D6D6E4E4E4F1F1F1FFFFFF000000000000000000000000000000000000000000000000000000000000B21171F6000002FC4944415478DAED9CDB728430088679FF87E2ADB86FD5D5CD818468D48504A6D3E96CA3EBFF811C62B7006E6E6E6E6ED60D1167D6BED9CCDA27449028A7E5DB2C0452ED8BADFA0170
310
52ED9BF7D79F680EED81749C201596B4D3F899B01CF2ACF6A100E4DAB1A67DA87BE0A4DF61A408A8A5BA4C2AF3826500B10C29D5F1B61C3282DF514E758CF67F037BDDE08534CF6AFF9E6F04EDD8A01D32ED960054BB3ABAA8DD0880535D5D39E6CBA7B7A73DFAE5D1EF94C50BEF6156FB96C6ABDA972FF18D0C6AA7403B54
310
8ADC3EF5DB01504B75E1CB2016F8EDD075A5110095548705ED4C1E8CC4EF31A01D40A1A3CD6EF730D705898DB86E38D9FD500B20BBDDF33D1BC224E4B3C3D7A3D67C17696FBE04C525EE93C919B787C97003707C3B39DFFD02001FF2EB8594923AE3F640FDBE017245CCCB00B2FBBDA9AB63DD7E48EF1BEADF0390F528ED43
310
5CC1ED1010D00D80F77BEB000B92DBBB42E06900C51287B2F6A8AAA56E8F352805504A750D7EFF68DE560A77BB6E00E70758DA77AB82F8AE94B7CEADCD9722A07D785F70E5E710CEAF3A0210A179AF6E839501908B8A5A00D0A89EBEEE4F265846DCAD0FB89E0620677B8AD32441DEF809DA754740DDE5E9109777B4AD9543
310
6B0E602E9B8ED24649A9E7A494777D20EA12753642C10506DAB77D4ADAA737AA4EB055ED629DD0D10A23E0510ABE7BB4BB7AE1FAF9B9A0B550EA00401F9725FBD31FBFCB9514E2998847A47D18EAECA5AA138F0500FDCDA4B8666C000D6B1CC0C8005A16390007E0000604D0FC7CCB013880CBE79F15C03156EA0770FBB471
310
C72335A300E875ED7A0050B015072FDB2B0050A7F61B00746D39E0AFB5F701C01E00E243B57101FC28D5A900402A42FE5600CD4B756A7F078062ED8F0340E5DA1F04408AD2FC8300ECBAFD0600C5E7406047FB8D00D04EC8DF0600C2CF0A101894DE0FC0BAF60E008643BE1BC0106EBF086034ED67000CA9BD1140F8976330
310
9ED544459FEE8541ADD6D00E19F2328079B4E70026D31E01183CD55501CC90EAEA63FDACFFC2B0BEB1E1E6E6E6E6E6E6E6E6E6E6E666C5FE00033AE9FED4C379350000000049454E44AE42608292B2871A007992E82E83AB5E989EB3D3A6C4A0853F9F26B8CB20CDE07B65003B58206955AB5FCA3C697410F44D8F5032C8BD
310
112CFC46A9E0455E88F21871D0C4D04CC0102F0CE7BC10D531E25BFD32CABF56BDF42D5ED8B4079DC833C00A01A365D0EC85A8C7D3E71826F39A599980215E187ABD107A1A98EE91C276F4943D04C8201828835210C04C85C5E9F3DDD4D84540EC8598C50BAD64409B211CF8CDE2606D8BC07C5E98157C0A1CACA33FCA5B65
310
2B1B0406CBA0EC85A85AE2BA5A220740761130A50C501A15F23420CD80D845C0C429011A3EAEA6C0641701B37A211A28447D0AD8B44968744AA07A21EA6104BD0622BEAA6D97D48C5E885A3802E61C38FAAAC66D62F3C9001B09F6ED14F187C02E02A69301642C988BA7853D50641701FE3228968AB4D230F22CA9BC07ACF3
310
4869343DC2E8E911ED3170A3A122809D81AEADA203BC30E8D3A3EA10D084FF73B2BCEB86A6F1C2DA3FDE883FF4EF979EC30B51E9B8AA019EC63FC40B736C28DFF993F8A7F0C28F020A41D02C80939BE5877B61E5B8C3BE35EE910048BD70880CE4CB1DBFF0C2013260F2842D8D8F87F18F95014A208E75503C895F7AA1B30C
310
5080E1865F0481AF0C922C487DCA261DF00FF3C2C20A773BFE9B4ECCF97B6128D6778EFDAF70C13FBE5424F1ECF8E9857F880CD4C15F3C3484A017FE0132409E0C6DBD7E143A2BF5C29B8F8B3A0781BA5914F1E3B759A99ADF7F5CD63525B03A377A6A10C4B50301AE29419D00941B3E725EDA4F06E692889203805EF81D65
310
502380B262EE86DF4D068041B14640C3C6D0DB65F07410C00E017516A4FC170EE1D54180B206F22418F023C0C30B51D6008B5B271D1E9891C9E01F4308E2633E8E63A20000000049454E44AE426082BD79703B01DB856FCDE0FF4080BB4E75EC100035987F9400F74636E680E89FB6000CC103CA3E89FD04C0060262EC2842
310
2802362602B89C0037B56CEE66CFDD30DC9E092D25A063F42D78D259C83F40C0B0F090F6885B727E9B0057F8F6F915E6BEEF6208BF4EC0B0D143B583BDE0FF5D02EE089F3B72F57EF6DF236050F8DA062CF6B230F25B04B8CFA30984771F6583551CFC25026E19BDFD43DAAF7A6C8EFDAD3C2014DE3922C0CE053861D9B0BA
310
9D00BC45C005E13BCF6FCA5B4365AB34CF825713E0C1C1CBC2EB3690DEA68FEF262012FE3A76343DC9BC49B6B8C1ADE560B96FA27FD953E1FB461FEDCAC7F220984709802E019EB7C3AF846FAC08B81FFA401C34E68F938D1E63EC65BA9756E0DB08B820FC99D1C74F3543BE2E3E17073D022E0B0F178DBE6949BD8780B130
310
7766F49EF0FE44B0043C500D69021C916F1A3D76BB231101B09F007535B53678DDE8AF0A5F11003A11C0CD4B1462010AF590F07826FCC83A23A7C2BA29FA0C01E5C6B59B464F97B13B4EE0050438B756DDF17617EA514B006C278029277783C002A37F1B01CA0C548312FC87F17684BFBBB100C50B9684F8912960E6C035E1
310
BFDA548172C7D83304F0932A241639D8FBC27FD9947A9400EE4800807ACEEF06E11D27A012E29D04C8FED4B6510B91F0137712E954683B0158D290263284C2AFD9260DCF6442250AC69D109A3AE1CF9C4071053B09089FAB494B850F0880DD16C07E9F62E1176F1D44D9B0F92401F23F1C6CC45E3981FD71503FC0C5157E5B
310
287A9200DD8AC0F367912F76020F1200D8DC4EFE0001F3C3E07F273F8331E918941F0000000049454E44AE426082FA9525FFBA210D6D0628CDC004809F503FE2B617C0C4B786D80480DF503FB107A64E00EACAC00900DFAE7E24D44FCE09AB04D469D078C3FC97AB5F128F90E6D53F21FEED37EF5E1FF4FBAD7FFB49BB68FC
310
4236022700E067D4AFCD06B8F2B5E5C10A4507C00BE9FF07D2BB93B5F9A99C750000000049454E44AE426082
  0
ENDSEC
  0
EOF
