0
SECTION
2
HEADER
9
$ACADVER
1
AC1009
0
ENDSEC
0
SECTION
2
TABLES
0
TABLE
2
LAYER
70
1
0
LAYER
2
ACESSORIO
70
0
62
254
6
CONTINUOUS
0
ENDTAB
0
ENDSEC
0
SECTION
2
ENTITIES
0
3DFACE
8
ACESSORIO
10
20.000000000000000
20
0.000000000000000
30
83.799170000000000
11
0.000000000000040
21
0.000000000000000
31
83.799170000000000
12
0.000000000000001
22
-101.499100000000000
32
83.799170000000000
13
20.000000000000000
23
0.000000000000000
33
83.799170000000000
0
3DFACE
8
ACESSORIO
10
20.000000000000000
20
0.000000000000000
30
83.799170000000000
11
0.000000000000001
21
-101.499100000000000
31
83.799170000000000
12
20.000000000000000
22
-101.499100000000000
32
83.799170000000000
13
20.000000000000000
23
0.000000000000000
33
83.799170000000000
0
3DFACE
8
ACESSORIO
10
0.000000000000040
20
0.000000000000000
30
83.799170000000000
11
20.000000000000000
21
0.000000000000000
31
83.799170000000000
12
0.000000000000040
22
-0.476131800000000
32
0.000000000000000
13
0.000000000000040
23
0.000000000000000
33
83.799170000000000
0
3DFACE
8
ACESSORIO
10
0.000000000000040
20
-0.476131800000000
30
0.000000000000000
11
20.000000000000000
21
0.000000000000000
31
83.799170000000000
12
20.000000000000000
22
-0.476131800000000
32
0.000000000000000
13
0.000000000000040
23
-0.476131800000000
33
0.000000000000000
0
3DFACE
8
ACESSORIO
10
0.000000000000040
20
-0.476131800000000
30
0.000000000000000
11
20.000000000000000
21
-0.476131800000000
31
0.000000000000000
12
0.000000000000001
22
-94.264200000000000
32
0.000000000000000
13
0.000000000000040
23
-0.476131800000000
33
0.000000000000000
0
3DFACE
8
ACESSORIO
10
0.000000000000001
20
-94.264200000000000
30
0.000000000000000
11
20.000000000000000
21
-0.476131800000000
31
0.000000000000000
12
20.000000000000000
22
-94.264200000000000
32
0.000000000000000
13
0.000000000000001
23
-94.264200000000000
33
0.000000000000000
0
3DFACE
8
ACESSORIO
10
20.000000000000000
20
-94.264200000000000
30
0.000000000000000
11
20.000000000000000
21
-134.400200000000000
31
36.138160000000000
12
0.000000000000003
22
-134.400200000000000
32
36.138160000000000
13
20.000000000000000
23
-94.264200000000000
33
0.000000000000000
0
3DFACE
8
ACESSORIO
10
20.000000000000000
20
-94.264200000000000
30
0.000000000000000
11
0.000000000000003
21
-134.400200000000000
31
36.138160000000000
12
0.000000000000001
22
-94.264200000000000
32
0.000000000000000
13
20.000000000000000
23
-94.264200000000000
33
0.000000000000000
0
3DFACE
8
ACESSORIO
10
0.000000000000040
20
0.000000000000000
30
83.799170000000000
11
0.000000000000040
21
-0.476131800000000
31
0.000000000000000
12
0.000000000000001
22
-94.264200000000000
32
0.000000000000000
13
0.000000000000040
23
0.000000000000000
33
83.799170000000000
0
3DFACE
8
ACESSORIO
10
0.000000000000001
20
-101.499100000000000
30
83.799170000000000
11
0.000000000000040
21
0.000000000000000
31
83.799170000000000
12
0.000000000000003
22
-134.400200000000000
32
36.138160000000000
13
0.000000000000001
23
-101.499100000000000
33
83.799170000000000
0
3DFACE
8
ACESSORIO
10
0.000000000000003
20
-134.400200000000000
30
36.138160000000000
11
0.000000000000040
21
0.000000000000000
31
83.799170000000000
12
0.000000000000001
22
-94.264200000000000
32
0.000000000000000
13
0.000000000000003
23
-134.400200000000000
33
36.138160000000000
0
3DFACE
8
ACESSORIO
10
20.000000000000000
20
-0.476131800000000
30
0.000000000000000
11
20.000000000000000
21
0.000000000000000
31
83.799170000000000
12
20.000000000000000
22
-94.264200000000000
32
0.000000000000000
13
20.000000000000000
23
-0.476131800000000
33
0.000000000000000
0
3DFACE
8
ACESSORIO
10
20.000000000000000
20
0.000000000000000
30
83.799170000000000
11
20.000000000000000
21
-101.499100000000000
31
83.799170000000000
12
20.000000000000000
22
-134.400200000000000
32
36.138160000000000
13
20.000000000000000
23
0.000000000000000
33
83.799170000000000
0
3DFACE
8
ACESSORIO
10
20.000000000000000
20
0.000000000000000
30
83.799170000000000
11
20.000000000000000
21
-134.400200000000000
31
36.138160000000000
12
20.000000000000000
22
-94.264200000000000
32
0.000000000000000
13
20.000000000000000
23
0.000000000000000
33
83.799170000000000
0
3DFACE
8
ACESSORIO
10
0.000000000000001
20
-142.683400000000000
30
66.935460000000000
11
0.000000000000000
21
-133.232700000000000
31
80.625960000000000
12
0.000000000000002
22
-143.119800000000000
32
50.305520000000000
13
0.000000000000001
23
-142.683400000000000
33
66.935460000000000
0
3DFACE
8
ACESSORIO
10
0.000000000000002
20
-143.119800000000000
30
50.305520000000000
11
0.000000000000000
21
-133.232700000000000
31
80.625960000000000
12
0.000000000000000
22
-117.837600000000000
32
86.929790000000000
13
0.000000000000002
23
-143.119800000000000
33
50.305520000000000
0
3DFACE
8
ACESSORIO
10
0.000000000000002
20
-143.119800000000000
30
50.305520000000000
11
0.000000000000000
21
-117.837600000000000
31
86.929790000000000
12
0.000000000000001
22
-101.499100000000000
32
83.799170000000000
13
0.000000000000002
23
-143.119800000000000
33
50.305520000000000
0
3DFACE
8
ACESSORIO
10
0.000000000000002
20
-143.119800000000000
30
50.305520000000000
11
0.000000000000001
21
-101.499100000000000
31
83.799170000000000
12
0.000000000000003
22
-134.400200000000000
32
36.138160000000000
13
0.000000000000002
23
-143.119800000000000
33
50.305520000000000
0
3DFACE
8
ACESSORIO
10
20.000000000000000
20
-133.232700000000000
30
80.625960000000000
11
20.000000000000000
21
-142.683400000000000
31
66.935460000000000
12
20.000000000000000
22
-143.119800000000000
32
50.305520000000000
13
20.000000000000000
23
-133.232700000000000
33
80.625960000000000
0
3DFACE
8
ACESSORIO
10
20.000000000000000
20
-133.232700000000000
30
80.625960000000000
11
20.000000000000000
21
-143.119800000000000
31
50.305520000000000
12
20.000000000000000
22
-117.837600000000000
32
86.929790000000000
13
20.000000000000000
23
-133.232700000000000
33
80.625960000000000
0
3DFACE
8
ACESSORIO
10
20.000000000000000
20
-117.837600000000000
30
86.929790000000000
11
20.000000000000000
21
-143.119800000000000
31
50.305520000000000
12
20.000000000000000
22
-101.499100000000000
32
83.799170000000000
13
20.000000000000000
23
-117.837600000000000
33
86.929790000000000
0
3DFACE
8
ACESSORIO
10
20.000000000000000
20
-101.499100000000000
30
83.799170000000000
11
20.000000000000000
21
-143.119800000000000
31
50.305520000000000
12
20.000000000000000
22
-134.400200000000000
32
36.138160000000000
13
20.000000000000000
23
-101.499100000000000
33
83.799170000000000
0
3DFACE
8
ACESSORIO
10
400.000000000000000
20
0.000000000000000
30
83.799170000000000
11
380.000000000000000
21
0.000000000000000
31
83.799170000000000
12
400.000000000000000
22
-101.499100000000000
32
83.799170000000000
13
400.000000000000000
23
0.000000000000000
33
83.799170000000000
0
3DFACE
8
ACESSORIO
10
400.000000000000000
20
-101.499100000000000
30
83.799170000000000
11
380.000000000000000
21
0.000000000000000
31
83.799170000000000
12
380.000000000000000
22
-101.499100000000000
32
83.799170000000000
13
400.000000000000000
23
-101.499100000000000
33
83.799170000000000
0
3DFACE
8
ACESSORIO
10
380.000000000000000
20
0.000000000000000
30
83.799170000000000
11
400.000000000000000
21
0.000000000000000
31
83.799170000000000
12
400.000000000000000
22
-0.476131800000000
32
0.000000000000000
13
380.000000000000000
23
0.000000000000000
33
83.799170000000000
0
3DFACE
8
ACESSORIO
10
380.000000000000000
20
0.000000000000000
30
83.799170000000000
11
400.000000000000000
21
-0.476131800000000
31
0.000000000000000
12
380.000000000000000
22
-0.476131800000000
32
0.000000000000000
13
380.000000000000000
23
0.000000000000000
33
83.799170000000000
0
3DFACE
8
ACESSORIO
10
380.000000000000000
20
-0.476131800000000
30
0.000000000000000
11
400.000000000000000
21
-0.476131800000000
31
0.000000000000000
12
400.000000000000000
22
-94.264200000000000
32
0.000000000000000
13
380.000000000000000
23
-0.476131800000000
33
0.000000000000000
0
3DFACE
8
ACESSORIO
10
380.000000000000000
20
-0.476131800000000
30
0.000000000000000
11
400.000000000000000
21
-94.264200000000000
31
0.000000000000000
12
380.000000000000000
22
-94.264200000000000
32
0.000000000000000
13
380.000000000000000
23
-0.476131800000000
33
0.000000000000000
0
3DFACE
8
ACESSORIO
10
380.000000000000000
20
-134.400200000000000
30
36.138160000000000
11
380.000000000000000
21
-94.264200000000000
31
0.000000000000000
12
400.000000000000000
22
-134.400200000000000
32
36.138160000000000
13
380.000000000000000
23
-134.400200000000000
33
36.138160000000000
0
3DFACE
8
ACESSORIO
10
400.000000000000000
20
-134.400200000000000
30
36.138160000000000
11
380.000000000000000
21
-94.264200000000000
31
0.000000000000000
12
400.000000000000000
22
-94.264200000000000
32
0.000000000000000
13
400.000000000000000
23
-134.400200000000000
33
36.138160000000000
0
3DFACE
8
ACESSORIO
10
400.000000000000000
20
-0.476131800000000
30
0.000000000000000
11
400.000000000000000
21
0.000000000000000
31
83.799170000000000
12
400.000000000000000
22
-94.264200000000000
32
0.000000000000000
13
400.000000000000000
23
-0.476131800000000
33
0.000000000000000
0
3DFACE
8
ACESSORIO
10
400.000000000000000
20
0.000000000000000
30
83.799170000000000
11
400.000000000000000
21
-101.499100000000000
31
83.799170000000000
12
400.000000000000000
22
-134.400200000000000
32
36.138160000000000
13
400.000000000000000
23
0.000000000000000
33
83.799170000000000
0
3DFACE
8
ACESSORIO
10
400.000000000000000
20
0.000000000000000
30
83.799170000000000
11
400.000000000000000
21
-134.400200000000000
31
36.138160000000000
12
400.000000000000000
22
-94.264200000000000
32
0.000000000000000
13
400.000000000000000
23
0.000000000000000
33
83.799170000000000
0
3DFACE
8
ACESSORIO
10
380.000000000000000
20
0.000000000000000
30
83.799170000000000
11
380.000000000000000
21
-0.476131800000000
31
0.000000000000000
12
380.000000000000000
22
-94.264200000000000
32
0.000000000000000
13
380.000000000000000
23
0.000000000000000
33
83.799170000000000
0
3DFACE
8
ACESSORIO
10
380.000000000000000
20
-101.499100000000000
30
83.799170000000000
11
380.000000000000000
21
0.000000000000000
31
83.799170000000000
12
380.000000000000000
22
-134.400200000000000
32
36.138160000000000
13
380.000000000000000
23
-101.499100000000000
33
83.799170000000000
0
3DFACE
8
ACESSORIO
10
380.000000000000000
20
-134.400200000000000
30
36.138160000000000
11
380.000000000000000
21
0.000000000000000
31
83.799170000000000
12
380.000000000000000
22
-94.264200000000000
32
0.000000000000000
13
380.000000000000000
23
-134.400200000000000
33
36.138160000000000
0
3DFACE
8
ACESSORIO
10
400.000000000000000
20
-133.232700000000000
30
80.625960000000000
11
400.000000000000000
21
-142.683400000000000
31
66.935460000000000
12
400.000000000000000
22
-143.119800000000000
32
50.305520000000000
13
400.000000000000000
23
-133.232700000000000
33
80.625960000000000
0
3DFACE
8
ACESSORIO
10
400.000000000000000
20
-133.232700000000000
30
80.625960000000000
11
400.000000000000000
21
-143.119800000000000
31
50.305520000000000
12
400.000000000000000
22
-117.837600000000000
32
86.929790000000000
13
400.000000000000000
23
-133.232700000000000
33
80.625960000000000
0
3DFACE
8
ACESSORIO
10
400.000000000000000
20
-117.837600000000000
30
86.929790000000000
11
400.000000000000000
21
-143.119800000000000
31
50.305520000000000
12
400.000000000000000
22
-101.499100000000000
32
83.799170000000000
13
400.000000000000000
23
-117.837600000000000
33
86.929790000000000
0
3DFACE
8
ACESSORIO
10
400.000000000000000
20
-101.499100000000000
30
83.799170000000000
11
400.000000000000000
21
-143.119800000000000
31
50.305520000000000
12
400.000000000000000
22
-134.400200000000000
32
36.138160000000000
13
400.000000000000000
23
-101.499100000000000
33
83.799170000000000
0
3DFACE
8
ACESSORIO
10
380.000000000000000
20
-142.683400000000000
30
66.935460000000000
11
380.000000000000000
21
-133.232700000000000
31
80.625960000000000
12
380.000000000000000
22
-143.119800000000000
32
50.305520000000000
13
380.000000000000000
23
-142.683400000000000
33
66.935460000000000
0
3DFACE
8
ACESSORIO
10
380.000000000000000
20
-143.119800000000000
30
50.305520000000000
11
380.000000000000000
21
-133.232700000000000
31
80.625960000000000
12
380.000000000000000
22
-117.837600000000000
32
86.929790000000000
13
380.000000000000000
23
-143.119800000000000
33
50.305520000000000
0
3DFACE
8
ACESSORIO
10
380.000000000000000
20
-143.119800000000000
30
50.305520000000000
11
380.000000000000000
21
-117.837600000000000
31
86.929790000000000
12
380.000000000000000
22
-101.499100000000000
32
83.799170000000000
13
380.000000000000000
23
-143.119800000000000
33
50.305520000000000
0
3DFACE
8
ACESSORIO
10
380.000000000000000
20
-143.119800000000000
30
50.305520000000000
11
380.000000000000000
21
-101.499100000000000
31
83.799170000000000
12
380.000000000000000
22
-134.400200000000000
32
36.138160000000000
13
380.000000000000000
23
-143.119800000000000
33
50.305520000000000
0
3DFACE
8
ACESSORIO
10
20.000000000000000
20
-101.499100000000000
30
83.799170000000000
11
0.000000000000000
21
-101.499100000000000
31
83.799170000000000
12
0.000000000000000
22
-117.837600000000000
32
86.929790000000000
13
20.000000000000000
23
-101.499100000000000
33
83.799170000000000
0
3DFACE
8
ACESSORIO
10
20.000000000000000
20
-101.499100000000000
30
83.799170000000000
11
0.000000000000000
21
-117.837600000000000
31
86.929790000000000
12
20.000000000000000
22
-117.837600000000000
32
86.929790000000000
13
20.000000000000000
23
-101.499100000000000
33
83.799170000000000
0
3DFACE
8
ACESSORIO
10
20.000000000000000
20
-117.837600000000000
30
86.929790000000000
11
0.000000000000000
21
-117.837600000000000
31
86.929790000000000
12
0.000000000000000
22
-133.232700000000000
32
80.625960000000000
13
20.000000000000000
23
-117.837600000000000
33
86.929790000000000
0
3DFACE
8
ACESSORIO
10
20.000000000000000
20
-117.837600000000000
30
86.929790000000000
11
0.000000000000000
21
-133.232700000000000
31
80.625960000000000
12
20.000000000000000
22
-133.232700000000000
32
80.625960000000000
13
20.000000000000000
23
-117.837600000000000
33
86.929790000000000
0
3DFACE
8
ACESSORIO
10
20.000000000000000
20
-133.232700000000000
30
80.625960000000000
11
0.000000000000000
21
-133.232700000000000
31
80.625960000000000
12
0.000000000000001
22
-142.683400000000000
32
66.935460000000000
13
20.000000000000000
23
-133.232700000000000
33
80.625960000000000
0
3DFACE
8
ACESSORIO
10
20.000000000000000
20
-133.232700000000000
30
80.625960000000000
11
0.000000000000001
21
-142.683400000000000
31
66.935460000000000
12
20.000000000000000
22
-142.683400000000000
32
66.935460000000000
13
20.000000000000000
23
-133.232700000000000
33
80.625960000000000
0
3DFACE
8
ACESSORIO
10
20.000000000000000
20
-142.683400000000000
30
66.935460000000000
11
0.000000000000001
21
-142.683400000000000
31
66.935460000000000
12
0.000000000000002
22
-143.119800000000000
32
50.305520000000000
13
20.000000000000000
23
-142.683400000000000
33
66.935460000000000
0
3DFACE
8
ACESSORIO
10
20.000000000000000
20
-142.683400000000000
30
66.935460000000000
11
0.000000000000002
21
-143.119800000000000
31
50.305520000000000
12
20.000000000000000
22
-143.119800000000000
32
50.305520000000000
13
20.000000000000000
23
-142.683400000000000
33
66.935460000000000
0
3DFACE
8
ACESSORIO
10
20.000000000000000
20
-143.119800000000000
30
50.305520000000000
11
0.000000000000002
21
-143.119800000000000
31
50.305520000000000
12
0.000000000000003
22
-134.400200000000000
32
36.138160000000000
13
20.000000000000000
23
-143.119800000000000
33
50.305520000000000
0
3DFACE
8
ACESSORIO
10
20.000000000000000
20
-143.119800000000000
30
50.305520000000000
11
0.000000000000003
21
-134.400200000000000
31
36.138160000000000
12
20.000000000000000
22
-134.400200000000000
32
36.138160000000000
13
20.000000000000000
23
-143.119800000000000
33
50.305520000000000
0
3DFACE
8
ACESSORIO
10
400.000000000000000
20
-101.499100000000000
30
83.799170000000000
11
380.000000000000000
21
-101.499100000000000
31
83.799170000000000
12
400.000000000000000
22
-117.837600000000000
32
86.929790000000000
13
400.000000000000000
23
-101.499100000000000
33
83.799170000000000
0
3DFACE
8
ACESSORIO
10
400.000000000000000
20
-117.837600000000000
30
86.929790000000000
11
380.000000000000000
21
-101.499100000000000
31
83.799170000000000
12
380.000000000000000
22
-117.837600000000000
32
86.929790000000000
13
400.000000000000000
23
-117.837600000000000
33
86.929790000000000
0
3DFACE
8
ACESSORIO
10
400.000000000000000
20
-117.837600000000000
30
86.929790000000000
11
380.000000000000000
21
-117.837600000000000
31
86.929790000000000
12
400.000000000000000
22
-133.232700000000000
32
80.625960000000000
13
400.000000000000000
23
-117.837600000000000
33
86.929790000000000
0
3DFACE
8
ACESSORIO
10
400.000000000000000
20
-133.232700000000000
30
80.625960000000000
11
380.000000000000000
21
-117.837600000000000
31
86.929790000000000
12
380.000000000000000
22
-133.232700000000000
32
80.625960000000000
13
400.000000000000000
23
-133.232700000000000
33
80.625960000000000
0
3DFACE
8
ACESSORIO
10
400.000000000000000
20
-133.232700000000000
30
80.625960000000000
11
380.000000000000000
21
-133.232700000000000
31
80.625960000000000
12
400.000000000000000
22
-142.683400000000000
32
66.935460000000000
13
400.000000000000000
23
-133.232700000000000
33
80.625960000000000
0
3DFACE
8
ACESSORIO
10
400.000000000000000
20
-142.683400000000000
30
66.935460000000000
11
380.000000000000000
21
-133.232700000000000
31
80.625960000000000
12
380.000000000000000
22
-142.683400000000000
32
66.935460000000000
13
400.000000000000000
23
-142.683400000000000
33
66.935460000000000
0
3DFACE
8
ACESSORIO
10
400.000000000000000
20
-142.683400000000000
30
66.935460000000000
11
380.000000000000000
21
-142.683400000000000
31
66.935460000000000
12
400.000000000000000
22
-143.119800000000000
32
50.305520000000000
13
400.000000000000000
23
-142.683400000000000
33
66.935460000000000
0
3DFACE
8
ACESSORIO
10
400.000000000000000
20
-143.119800000000000
30
50.305520000000000
11
380.000000000000000
21
-142.683400000000000
31
66.935460000000000
12
380.000000000000000
22
-143.119800000000000
32
50.305520000000000
13
400.000000000000000
23
-143.119800000000000
33
50.305520000000000
0
3DFACE
8
ACESSORIO
10
400.000000000000000
20
-143.119800000000000
30
50.305520000000000
11
380.000000000000000
21
-143.119800000000000
31
50.305520000000000
12
400.000000000000000
22
-134.400200000000000
32
36.138160000000000
13
400.000000000000000
23
-143.119800000000000
33
50.305520000000000
0
3DFACE
8
ACESSORIO
10
400.000000000000000
20
-134.400200000000000
30
36.138160000000000
11
380.000000000000000
21
-143.119800000000000
31
50.305520000000000
12
380.000000000000000
22
-134.400200000000000
32
36.138160000000000
13
400.000000000000000
23
-134.400200000000000
33
36.138160000000000
0
ENDSEC
0
EOF
