  0
SECTION
  2
HEADER
  9
$ACADVER
  1
AC1009
  9
$INSBASE
 10
0.0
 20
0.0
 30
0.0
  9
$EXTMIN
 10
-10.0
 20
-14.743844480986739
 30
-10.0
  9
$EXTMAX
 10
9.9999999999999982
 20
0.1319160129061485
 30
10.0
  9
$LIMMIN
 10
0.0
 20
0.0
  9
$LIMMAX
 10
12.0
 20
9.0
  9
$ORTHOMODE
 70
     1
  9
$REGENMODE
 70
     1
  9
$FILLMODE
 70
     1
  9
$QTEXTMODE
 70
     0
  9
$MIRRTEXT
 70
     0
  9
$DRAGMODE
 70
     2
  9
$LTSCALE
 40
1.0
  9
$OSMODE
 70
   247
  9
$ATTMODE
 70
     1
  9
$TEXTSIZE
 40
0.2
  9
$TRACEWID
 40
0.05
  9
$TEXTSTYLE
  7
STANDARD
  9
$CLAYER
  8
0
  9
$CELTYPE
  6
CONTINUOUS
  9
$CECOLOR
 62
   256
  9
$DIMSCALE
 40
1.0
  9
$DIMASZ
 40
0.18
  9
$DIMEXO
 40
0.0625
  9
$DIMDLI
 40
0.38
  9
$DIMRND
 40
0.0
  9
$DIMDLE
 40
0.0
  9
$DIMEXE
 40
0.18
  9
$DIMTP
 40
0.0
  9
$DIMTM
 40
0.0
  9
$DIMTXT
 40
0.18
  9
$DIMCEN
 40
0.09
  9
$DIMTSZ
 40
0.0
  9
$DIMTOL
 70
     0
  9
$DIMLIM
 70
     0
  9
$DIMTIH
 70
     1
  9
$DIMTOH
 70
     1
  9
$DIMSE1
 70
     0
  9
$DIMSE2
 70
     0
  9
$DIMTAD
 70
     0
  9
$DIMZIN
 70
     0
  9
$DIMBLK
  1

  9
$DIMASO
 70
     1
  9
$DIMSHO
 70
     1
  9
$DIMPOST
  1

  9
$DIMAPOST
  1

  9
$DIMALT
 70
     0
  9
$DIMALTD
 70
     2
  9
$DIMALTF
 40
25.399999999999999
  9
$DIMLFAC
 40
1.0
  9
$DIMTOFL
 70
     0
  9
$DIMTVP
 40
0.0
  9
$DIMTIX
 70
     0
  9
$DIMSOXD
 70
     0
  9
$DIMSAH
 70
     0
  9
$DIMBLK1
  1

  9
$DIMBLK2
  1

  9
$DIMSTYLE
  2
STANDARD
  9
$DIMCLRD
 70
     0
  9
$DIMCLRE
 70
     0
  9
$DIMCLRT
 70
     0
  9
$DIMTFAC
 40
1.0
  9
$DIMGAP
 40
0.09
  9
$LUNITS
 70
     2
  9
$LUPREC
 70
     4
  9
$SKETCHINC
 40
0.1
  9
$FILLETRAD
 40
0.0
  9
$AUNITS
 70
     0
  9
$AUPREC
 70
     0
  9
$MENU
  1
.
  9
$ELEVATION
 40
0.0
  9
$PELEVATION
 40
0.0
  9
$THICKNESS
 40
0.0
  9
$LIMCHECK
 70
     0
  9
$BLIPMODE
 70
     0
  9
$CHAMFERA
 40
0.0
  9
$CHAMFERB
 40
0.0
  9
$SKPOLY
 70
     0
  9
$TDCREATE
 40
2457436.4886757061
  9
$TDUPDATE
 40
2457436.6403442021
  9
$TDINDWG
 40
0.0108144792
  9
$TDUSRTIMER
 40
0.0108143056
  9
$USRTIMER
 70
     1
  9
$ANGBASE
 50
0.0
  9
$ANGDIR
 70
     0
  9
$PDMODE
 70
     0
  9
$PDSIZE
 40
0.0
  9
$PLINEWID
 40
0.0
  9
$COORDS
 70
     1
  9
$SPLFRAME
 70
     0
  9
$SPLINETYPE
 70
     6
  9
$SPLINESEGS
 70
     8
  9
$ATTDIA
 70
     0
  9
$ATTREQ
 70
     1
  9
$HANDLING
 70
     1
  9
$HANDSEED
  5
667
  9
$SURFTAB1
 70
     6
  9
$SURFTAB2
 70
     6
  9
$SURFTYPE
 70
     6
  9
$SURFU
 70
     6
  9
$SURFV
 70
     6
  9
$UCSNAME
  2

  9
$UCSORG
 10
0.0
 20
0.0
 30
0.0
  9
$UCSXDIR
 10
1.0
 20
0.0
 30
0.0
  9
$UCSYDIR
 10
0.0
 20
1.0
 30
0.0
  9
$PUCSNAME
  2

  9
$PUCSORG
 10
0.0
 20
0.0
 30
0.0
  9
$PUCSXDIR
 10
1.0
 20
0.0
 30
0.0
  9
$PUCSYDIR
 10
0.0
 20
1.0
 30
0.0
  9
$USERI1
 70
     0
  9
$USERI2
 70
     0
  9
$USERI3
 70
     0
  9
$USERI4
 70
     0
  9
$USERI5
 70
     0
  9
$USERR1
 40
0.0
  9
$USERR2
 40
0.0
  9
$USERR3
 40
0.0
  9
$USERR4
 40
0.0
  9
$USERR5
 40
0.0
  9
$WORLDVIEW
 70
     1
  9
$SHADEDGE
 70
     3
  9
$SHADEDIF
 70
    70
  9
$TILEMODE
 70
     1
  9
$MAXACTVP
 70
    64
  9
$PLIMCHECK
 70
     0
  9
$PEXTMIN
 10
1.0000000000000000E+020
 20
1.0000000000000000E+020
 30
1.0000000000000000E+020
  9
$PEXTMAX
 10
-1.0000000000000000E+020
 20
-1.0000000000000000E+020
 30
-1.0000000000000000E+020
  9
$PLIMMIN
 10
0.0
 20
0.0
  9
$PLIMMAX
 10
12.0
 20
9.0
  9
$UNITMODE
 70
     0
  9
$VISRETAIN
 70
     1
  9
$PLINEGEN
 70
     0
  9
$PSLTSCALE
 70
     1
  0
ENDSEC
  0
SECTION
  2
TABLES
  0
TABLE
  2
VPORT
 70
     1
  0
VPORT
  2
*ACTIVE
 70
     0
 10
0.0
 20
0.0
 11
1.0
 21
1.0
 12
16.927879349714331
 22
-1.9165895608609771
 13
0.0
 23
0.0
 14
1.0
 24
1.0
 15
0.0
 25
0.0
 16
-121.9210364550833
 26
-55.268570805570008
 36
55.119463361538671
 17
-4.3630658956928787
 27
4.628406438168903
 37
-0.285338576905885
 40
29.567315848582851
 41
2.5027932960893851
 42
50.0
 43
0.0
 44
0.0
 50
0.0
 51
0.0000000000000018
 71
     0
 72
   100
 73
     1
 74
     1
 75
     0
 76
     0
 77
     0
 78
     0
  0
ENDTAB
  0
TABLE
  2
LTYPE
 70
     2
  0
LTYPE
  2
CONTINUOUS
 70
     0
  3
Solid line
 72
    65
 73
     0
 40
0.0
  0
LTYPE
  2
PHANTOM2
 70
     0
  3
Phantom (.5x) ___ _ _ ___ _ _ ___ _ _ ___ _ _
 72
    65
 73
     6
 40
1.25
 49
0.625
 49
-0.125
 49
0.125
 49
-0.125
 49
0.125
 49
-0.125
  0
ENDTAB
  0
TABLE
  2
LAYER
 70
     2
  0
LAYER
  2
0
 70
     0
 62
     7
  6
CONTINUOUS
  0
LAYER
  2
ESCOVADO
 70
     0
 62
     5
  6
CONTINUOUS
  0
ENDTAB
  0
TABLE
  2
STYLE
 70
     2
  0
STYLE
  2
STANDARD
 70
     0
 40
0.0
 41
1.0
 50
0.0
 71
     0
 42
0.2
  3
txt
  4

  0
STYLE
  2
ANNOTATIVE
 70
     0
 40
0.0
 41
1.0
 50
0.0
 71
     0
 42
0.2
  3
txt
  4

  0
ENDTAB
  0
TABLE
  2
VIEW
 70
     0
  0
ENDTAB
  0
TABLE
  2
UCS
 70
     0
  0
ENDTAB
  0
TABLE
  2
APPID
 70
     4
  0
APPID
  2
ACAD
 70
     0
  0
APPID
  2
ACADANNOTATIVE
 70
     0
  0
APPID
  2
ACAD_NAV_VCDISPLAY
 70
     0
  0
APPID
  2
ACAD_MLEADERVER
 70
     0
  0
ENDTAB
  0
TABLE
  2
DIMSTYLE
 70
     2
  0
DIMSTYLE
  2
STANDARD
 70
     0
  3

  4

  5

  6

  7

 40
1.0
 41
0.18
 42
0.0625
 43
0.38
 44
0.18
 45
0.0
 46
0.0
 47
0.0
 48
0.0
140
0.18
141
0.09
142
0.0
143
25.399999999999999
144
1.0
145
0.0
146
1.0
147
0.09
 71
     0
 72
     0
 73
     1
 74
     1
 75
     0
 76
     0
 77
     0
 78
     0
170
     0
171
     2
172
     0
173
     0
174
     0
175
     0
176
     0
177
     0
178
     0
  0
DIMSTYLE
  2
ANNOTATIVE
 70
     0
  3

  4

  5

  6

  7

 40
1.0
 41
0.18
 42
0.0625
 43
0.38
 44
0.18
 45
0.0
 46
0.0
 47
0.0
 48
0.0
140
0.18
141
0.09
142
0.0
143
25.399999999999999
144
1.0
145
0.0
146
1.0
147
0.09
 71
     0
 72
     0
 73
     1
 74
     1
 75
     0
 76
     0
 77
     0
 78
     0
170
     0
171
     2
172
     0
173
     0
174
     0
175
     0
176
     0
177
     0
178
     0
  0
ENDTAB
  0
ENDSEC
  0
SECTION
  2
BLOCKS
  0
BLOCK
  8
0
  2
$MODEL_SPACE
 70
     0
 10
0.0
 20
0.0
 30
0.0
  3
$MODEL_SPACE
  1

  0
ENDBLK
  5
57A
  8
0
  0
BLOCK
 67
     1
  8
0
  2
$PAPER_SPACE
 70
     0
 10
0.0
 20
0.0
 30
0.0
  3
$PAPER_SPACE
  1

  0
ENDBLK
  5
576
 67
     1
  8
0
  0
ENDSEC
  0
SECTION
  2
ENTITIES
  0
3DFACE
  5
77
  8
ESCOVADO
 62
     5
 10
-9.2387940000000022
 20
-14.74384448098672
 30
-3.826833999999999
 11
-9.2387940000000022
 21
-14.74384448098672
 31
3.8268339999999981
 12
-10.0
 22
-14.74384448098672
 32
-0.0000000000000005
 13
-9.2387940000000022
 23
-14.74384448098672
 33
-3.826833999999999
  0
3DFACE
  5
78
  8
ESCOVADO
 62
     5
 10
-7.0710680000000004
 20
-14.74384448098672
 30
-7.0710680000000012
 11
-7.0710680000000004
 21
-14.74384448098672
 31
7.0710679999999986
 12
-9.2387940000000022
 22
-14.74384448098672
 32
3.8268339999999981
 13
-9.2387940000000022
 23
-14.74384448098672
 33
-3.826833999999999
  0
3DFACE
  5
79
  8
ESCOVADO
 62
     5
 10
-3.8268339999999998
 20
-14.74384448098672
 30
-9.2387939999999986
 11
-3.8268339999999998
 21
-14.74384448098672
 31
9.2387940000000022
 12
-7.0710680000000004
 22
-14.74384448098672
 32
7.0710679999999986
 13
-7.0710680000000004
 23
-14.74384448098672
 33
-7.0710680000000012
  0
3DFACE
  5
7A
  8
ESCOVADO
 62
     5
 10
-3.8268339999999998
 20
-14.74384448098672
 30
-9.2387939999999986
 11
-3.8268339999999998
 21
-14.74384448098672
 31
9.2387940000000022
 12
-0.0000000000000025
 22
-14.74384448098672
 32
10.0
 13
-0.0000000000000025
 23
-14.74384448098672
 33
-10.0
  0
3DFACE
  5
7B
  8
ESCOVADO
 62
     5
 10
9.2387939999999986
 20
-14.74384448098672
 30
-3.826833999999999
 11
9.2387939999999986
 21
-14.74384448098672
 31
3.8268339999999981
 12
9.9999999999999982
 22
-14.74384448098672
 32
-0.0000000000000005
 13
9.2387939999999986
 23
-14.74384448098672
 33
-3.826833999999999
  0
3DFACE
  5
7C
  8
ESCOVADO
 62
     5
 10
7.0710679999999977
 20
-14.74384448098672
 30
-7.0710680000000012
 11
7.0710679999999977
 21
-14.74384448098672
 31
7.0710679999999986
 12
9.2387939999999986
 22
-14.74384448098672
 32
3.8268339999999981
 13
9.2387939999999986
 23
-14.74384448098672
 33
-3.826833999999999
  0
3DFACE
  5
7D
  8
ESCOVADO
 62
     5
 10
3.8268339999999959
 20
-14.74384448098672
 30
-9.2387939999999986
 11
3.8268339999999959
 21
-14.74384448098672
 31
9.2387940000000022
 12
7.0710679999999977
 22
-14.74384448098672
 32
7.0710679999999986
 13
7.0710679999999977
 23
-14.74384448098672
 33
-7.0710680000000012
  0
3DFACE
  5
7E
  8
ESCOVADO
 62
     5
 10
3.8268339999999959
 20
-14.74384448098672
 30
-9.2387939999999986
 11
3.8268339999999959
 21
-14.74384448098672
 31
9.2387940000000022
 12
-0.0000000000000025
 22
-14.74384448098672
 32
10.0
 13
-0.0000000000000025
 23
-14.74384448098672
 33
-10.0
  0
POLYLINE
  5
A7
  8
ESCOVADO
 66
     1
 10
0.0
 20
0.0
 30
0.0
 70
    48
 71
     2
 72
    12
  0
VERTEX
  5
A8
  8
ESCOVADO
 10
3.9999999999999969
 20
-9.2796979612815722
 30
-0.0000000000000005
 70
    64
  0
VERTEX
  5
A9
  8
ESCOVADO
 10
3.464101999999996
 20
-9.2796979612815722
 30
1.9999999999999989
 70
    64
  0
VERTEX
  5
AA
  8
ESCOVADO
 10
1.9999999999999969
 20
-9.2796979612815722
 30
3.4641019999999978
 70
    64
  0
VERTEX
  5
AB
  8
ESCOVADO
 10
-0.0000000000000025
 20
-9.2796979612815722
 30
3.9999999999999991
 70
    64
  0
VERTEX
  5
AC
  8
ESCOVADO
 10
-2.0000000000000009
 20
-9.2796979612815722
 30
3.4641019999999978
 70
    64
  0
VERTEX
  5
AD
  8
ESCOVADO
 10
-3.4641020000000009
 20
-9.2796979612815722
 30
1.9999999999999989
 70
    64
  0
VERTEX
  5
AE
  8
ESCOVADO
 10
-4.0
 20
-9.2796979612815722
 30
-0.0000000000000005
 70
    64
  0
VERTEX
  5
AF
  8
ESCOVADO
 10
-3.4641020000000009
 20
-9.2796979612815722
 30
-1.9999999999999989
 70
    64
  0
VERTEX
  5
B0
  8
ESCOVADO
 10
-2.0000000000000009
 20
-9.2796979612815722
 30
-3.464102
 70
    64
  0
VERTEX
  5
B1
  8
ESCOVADO
 10
-0.0000000000000025
 20
-9.2796979612815722
 30
-4.0
 70
    64
  0
VERTEX
  5
B2
  8
ESCOVADO
 10
1.9999999999999969
 20
-9.2796979612815722
 30
-3.464102
 70
    64
  0
VERTEX
  5
B3
  8
ESCOVADO
 10
3.464101999999996
 20
-9.2796979612815722
 30
-1.9999999999999989
 70
    64
  0
VERTEX
  5
B4
  8
ESCOVADO
 10
3.9999999999999969
 20
-13.558938961281569
 30
-0.0000000000000005
 70
    64
  0
VERTEX
  5
B5
  8
ESCOVADO
 10
3.464101999999996
 20
-13.558938961281569
 30
1.9999999999999989
 70
    64
  0
VERTEX
  5
B6
  8
ESCOVADO
 10
1.9999999999999969
 20
-13.558938961281569
 30
3.4641019999999978
 70
    64
  0
VERTEX
  5
B7
  8
ESCOVADO
 10
-0.0000000000000025
 20
-13.558938961281569
 30
3.9999999999999991
 70
    64
  0
VERTEX
  5
B8
  8
ESCOVADO
 10
-2.0000000000000009
 20
-13.558938961281569
 30
3.4641019999999978
 70
    64
  0
VERTEX
  5
B9
  8
ESCOVADO
 10
-3.4641020000000009
 20
-13.558938961281569
 30
1.9999999999999989
 70
    64
  0
VERTEX
  5
BA
  8
ESCOVADO
 10
-4.0
 20
-13.558938961281569
 30
-0.0000000000000005
 70
    64
  0
VERTEX
  5
BB
  8
ESCOVADO
 10
-3.4641020000000009
 20
-13.558938961281569
 30
-1.9999999999999989
 70
    64
  0
VERTEX
  5
BC
  8
ESCOVADO
 10
-2.0000000000000009
 20
-13.558938961281569
 30
-3.464102
 70
    64
  0
VERTEX
  5
BD
  8
ESCOVADO
 10
-0.0000000000000025
 20
-13.558938961281569
 30
-4.0
 70
    64
  0
VERTEX
  5
BE
  8
ESCOVADO
 10
1.9999999999999969
 20
-13.558938961281569
 30
-3.464102
 70
    64
  0
VERTEX
  5
BF
  8
ESCOVADO
 10
3.464101999999996
 20
-13.558938961281569
 30
-1.9999999999999989
 70
    64
  0
SEQEND
  5
C0
  8
ESCOVADO
  0
POLYLINE
  5
260
  8
ESCOVADO
 66
     1
 10
0.0
 20
0.0
 30
0.0
 70
    48
 71
     2
 72
    12
  0
VERTEX
  5
261
  8
ESCOVADO
 10
3.9999999999999969
 20
-5.0004569612815697
 30
-0.0000000000000009
 70
    64
  0
VERTEX
  5
262
  8
ESCOVADO
 10
3.464101999999996
 20
-5.0004569612815697
 30
1.999999999999998
 70
    64
  0
VERTEX
  5
263
  8
ESCOVADO
 10
1.9999999999999969
 20
-5.0004569612815697
 30
3.4641019999999978
 70
    64
  0
VERTEX
  5
264
  8
ESCOVADO
 10
-0.0000000000000016
 20
-5.0004569612815697
 30
3.9999999999999978
 70
    64
  0
VERTEX
  5
265
  8
ESCOVADO
 10
-2.0
 20
-5.0004569612815697
 30
3.4641019999999978
 70
    64
  0
VERTEX
  5
266
  8
ESCOVADO
 10
-3.4641020000000009
 20
-5.0004569612815697
 30
1.999999999999998
 70
    64
  0
VERTEX
  5
267
  8
ESCOVADO
 10
-4.0
 20
-5.0004569612815697
 30
-0.0000000000000009
 70
    64
  0
VERTEX
  5
268
  8
ESCOVADO
 10
-3.4641020000000009
 20
-5.0004569612815697
 30
-1.9999999999999989
 70
    64
  0
VERTEX
  5
269
  8
ESCOVADO
 10
-2.0
 20
-5.0004569612815697
 30
-3.464102
 70
    64
  0
VERTEX
  5
26A
  8
ESCOVADO
 10
-0.0000000000000016
 20
-5.0004569612815697
 30
-4.0
 70
    64
  0
VERTEX
  5
26B
  8
ESCOVADO
 10
1.9999999999999969
 20
-5.0004569612815697
 30
-3.464102
 70
    64
  0
VERTEX
  5
26C
  8
ESCOVADO
 10
3.464101999999996
 20
-5.0004569612815697
 30
-1.9999999999999989
 70
    64
  0
VERTEX
  5
26D
  8
ESCOVADO
 10
3.9999999999999969
 20
-9.2796979612815722
 30
-0.0000000000000009
 70
    64
  0
VERTEX
  5
26E
  8
ESCOVADO
 10
3.464101999999996
 20
-9.2796979612815722
 30
1.999999999999998
 70
    64
  0
VERTEX
  5
26F
  8
ESCOVADO
 10
1.9999999999999969
 20
-9.2796979612815722
 30
3.4641019999999978
 70
    64
  0
VERTEX
  5
270
  8
ESCOVADO
 10
-0.0000000000000016
 20
-9.2796979612815722
 30
3.9999999999999978
 70
    64
  0
VERTEX
  5
271
  8
ESCOVADO
 10
-2.0
 20
-9.2796979612815722
 30
3.4641019999999978
 70
    64
  0
VERTEX
  5
272
  8
ESCOVADO
 10
-3.4641020000000009
 20
-9.2796979612815722
 30
1.999999999999998
 70
    64
  0
VERTEX
  5
273
  8
ESCOVADO
 10
-4.0
 20
-9.2796979612815722
 30
-0.0000000000000009
 70
    64
  0
VERTEX
  5
274
  8
ESCOVADO
 10
-3.4641020000000009
 20
-9.2796979612815722
 30
-1.9999999999999989
 70
    64
  0
VERTEX
  5
275
  8
ESCOVADO
 10
-2.0
 20
-9.2796979612815722
 30
-3.464102
 70
    64
  0
VERTEX
  5
276
  8
ESCOVADO
 10
-0.0000000000000016
 20
-9.2796979612815722
 30
-4.0
 70
    64
  0
VERTEX
  5
277
  8
ESCOVADO
 10
1.9999999999999969
 20
-9.2796979612815722
 30
-3.464102
 70
    64
  0
VERTEX
  5
278
  8
ESCOVADO
 10
3.464101999999996
 20
-9.2796979612815722
 30
-1.9999999999999989
 70
    64
  0
SEQEND
  5
279
  8
ESCOVADO
  0
POLYLINE
  5
27A
  8
ESCOVADO
 66
     1
 10
0.0
 20
0.0
 30
0.0
 70
    48
 71
     2
 72
    12
  0
VERTEX
  5
27B
  8
ESCOVADO
 10
3.9999999999999978
 20
-0.7212159612815725
 30
-0.0000000000000014
 70
    64
  0
VERTEX
  5
27C
  8
ESCOVADO
 10
3.4641019999999969
 20
-0.7212159612815725
 30
1.999999999999998
 70
    64
  0
VERTEX
  5
27D
  8
ESCOVADO
 10
1.999999999999998
 20
-0.7212159612815725
 30
3.4641019999999978
 70
    64
  0
VERTEX
  5
27E
  8
ESCOVADO
 10
-0.0000000000000012
 20
-0.7212159612815725
 30
3.9999999999999978
 70
    64
  0
VERTEX
  5
27F
  8
ESCOVADO
 10
-1.9999999999999989
 20
-0.7212159612815725
 30
3.4641019999999978
 70
    64
  0
VERTEX
  5
280
  8
ESCOVADO
 10
-3.4641019999999991
 20
-0.7212159612815725
 30
1.999999999999998
 70
    64
  0
VERTEX
  5
281
  8
ESCOVADO
 10
-3.9999999999999991
 20
-0.7212159612815725
 30
-0.0000000000000014
 70
    64
  0
VERTEX
  5
282
  8
ESCOVADO
 10
-3.4641019999999991
 20
-0.7212159612815725
 30
-1.9999999999999989
 70
    64
  0
VERTEX
  5
283
  8
ESCOVADO
 10
-1.9999999999999989
 20
-0.7212159612815725
 30
-3.464102
 70
    64
  0
VERTEX
  5
284
  8
ESCOVADO
 10
-0.0000000000000012
 20
-0.7212159612815725
 30
-4.0
 70
    64
  0
VERTEX
  5
285
  8
ESCOVADO
 10
1.999999999999998
 20
-0.7212159612815725
 30
-3.464102
 70
    64
  0
VERTEX
  5
286
  8
ESCOVADO
 10
3.4641019999999969
 20
-0.7212159612815725
 30
-1.9999999999999989
 70
    64
  0
VERTEX
  5
287
  8
ESCOVADO
 10
3.9999999999999978
 20
-5.0004569612815697
 30
-0.0000000000000014
 70
    64
  0
VERTEX
  5
288
  8
ESCOVADO
 10
3.4641019999999969
 20
-5.0004569612815697
 30
1.999999999999998
 70
    64
  0
VERTEX
  5
289
  8
ESCOVADO
 10
1.999999999999998
 20
-5.0004569612815697
 30
3.4641019999999978
 70
    64
  0
VERTEX
  5
28A
  8
ESCOVADO
 10
-0.0000000000000012
 20
-5.0004569612815697
 30
3.9999999999999978
 70
    64
  0
VERTEX
  5
28B
  8
ESCOVADO
 10
-1.9999999999999989
 20
-5.0004569612815697
 30
3.4641019999999978
 70
    64
  0
VERTEX
  5
28C
  8
ESCOVADO
 10
-3.4641019999999991
 20
-5.0004569612815697
 30
1.999999999999998
 70
    64
  0
VERTEX
  5
28D
  8
ESCOVADO
 10
-3.9999999999999991
 20
-5.0004569612815697
 30
-0.0000000000000014
 70
    64
  0
VERTEX
  5
28E
  8
ESCOVADO
 10
-3.4641019999999991
 20
-5.0004569612815697
 30
-1.9999999999999989
 70
    64
  0
VERTEX
  5
28F
  8
ESCOVADO
 10
-1.9999999999999989
 20
-5.0004569612815697
 30
-3.464102
 70
    64
  0
VERTEX
  5
290
  8
ESCOVADO
 10
-0.0000000000000012
 20
-5.0004569612815697
 30
-4.0
 70
    64
  0
VERTEX
  5
291
  8
ESCOVADO
 10
1.999999999999998
 20
-5.0004569612815697
 30
-3.464102
 70
    64
  0
VERTEX
  5
292
  8
ESCOVADO
 10
3.4641019999999969
 20
-5.0004569612815697
 30
-1.9999999999999989
 70
    64
  0
SEQEND
  5
293
  8
ESCOVADO
  0
3DFACE
  5
426
  8
ESCOVADO
 62
     5
 10
-9.2387940000000022
 20
-13.558938961281569
 30
-3.826833999999999
 11
-9.2387940000000022
 21
-13.558938961281569
 31
3.8268339999999981
 12
-10.0
 22
-13.558938961281569
 32
-0.0000000000000005
 13
-9.2387940000000022
 23
-13.558938961281569
 33
-3.826833999999999
  0
3DFACE
  5
427
  8
ESCOVADO
 62
     5
 10
-7.0710680000000004
 20
-13.558938961281569
 30
-7.0710680000000012
 11
-7.0710680000000004
 21
-13.558938961281569
 31
7.0710679999999986
 12
-9.2387940000000022
 22
-13.558938961281569
 32
3.8268339999999981
 13
-9.2387940000000022
 23
-13.558938961281569
 33
-3.826833999999999
  0
3DFACE
  5
428
  8
ESCOVADO
 62
     5
 10
-3.8268339999999998
 20
-13.558938961281569
 30
-9.2387939999999986
 11
-3.8268339999999998
 21
-13.558938961281569
 31
9.2387940000000022
 12
-7.0710680000000004
 22
-13.558938961281569
 32
7.0710679999999986
 13
-7.0710680000000004
 23
-13.558938961281569
 33
-7.0710680000000012
  0
3DFACE
  5
429
  8
ESCOVADO
 62
     5
 10
-3.8268339999999998
 20
-13.558938961281569
 30
-9.2387939999999986
 11
-3.8268339999999998
 21
-13.558938961281569
 31
9.2387940000000022
 12
-0.0000000000000025
 22
-13.558938961281569
 32
10.0
 13
-0.0000000000000025
 23
-13.558938961281569
 33
-10.0
  0
3DFACE
  5
42A
  8
ESCOVADO
 62
     5
 10
9.2387939999999986
 20
-13.558938961281569
 30
-3.826833999999999
 11
9.2387939999999986
 21
-13.558938961281569
 31
3.8268339999999981
 12
9.9999999999999982
 22
-13.558938961281569
 32
-0.0000000000000005
 13
9.2387939999999986
 23
-13.558938961281569
 33
-3.826833999999999
  0
3DFACE
  5
42B
  8
ESCOVADO
 62
     5
 10
7.0710679999999977
 20
-13.558938961281569
 30
-7.0710680000000012
 11
7.0710679999999977
 21
-13.558938961281569
 31
7.0710679999999986
 12
9.2387939999999986
 22
-13.558938961281569
 32
3.8268339999999981
 13
9.2387939999999986
 23
-13.558938961281569
 33
-3.826833999999999
  0
3DFACE
  5
42C
  8
ESCOVADO
 62
     5
 10
3.8268339999999959
 20
-13.558938961281569
 30
-9.2387939999999986
 11
3.8268339999999959
 21
-13.558938961281569
 31
9.2387940000000022
 12
7.0710679999999977
 22
-13.558938961281569
 32
7.0710679999999986
 13
7.0710679999999977
 23
-13.558938961281569
 33
-7.0710680000000012
  0
3DFACE
  5
42D
  8
ESCOVADO
 62
     5
 10
3.8268339999999959
 20
-13.558938961281569
 30
-9.2387939999999986
 11
3.8268339999999959
 21
-13.558938961281569
 31
9.2387940000000022
 12
-0.0000000000000025
 22
-13.558938961281569
 32
10.0
 13
-0.0000000000000025
 23
-13.558938961281569
 33
-10.0
  0
3DFACE
  5
42E
  8
0
  6
CONTINUOUS
 62
     5
 10
3.8268339999999959
 20
-13.558938961281569
 30
9.2387940000000022
 11
3.8268339999999959
 21
-14.74384448098672
 31
9.2387940000000022
 12
7.0710679999999977
 22
-14.74384448098672
 32
7.0710679999999986
 13
7.0710679999999977
 23
-13.558938961281569
 33
7.0710679999999986
  0
3DFACE
  5
42F
  8
0
  6
CONTINUOUS
 62
     5
 10
-0.0000000000000025
 20
-13.558938961281569
 30
10.0
 11
-0.0000000000000025
 21
-14.74384448098672
 31
10.0
 12
3.8268339999999959
 22
-14.74384448098672
 32
9.2387940000000022
 13
3.826833999999995
 23
-13.558938961281569
 33
9.2387940000000022
  0
3DFACE
  5
430
  8
0
  6
CONTINUOUS
 62
     5
 10
-3.8268339999999998
 20
-13.558938961281569
 30
9.2387940000000022
 11
-3.8268339999999998
 21
-14.74384448098672
 31
9.2387940000000022
 12
-0.0000000000000025
 22
-14.74384448098672
 32
10.0
 13
-0.0000000000000036
 23
-13.55893896128155
 33
9.9999999999999964
  0
3DFACE
  5
431
  8
0
  6
CONTINUOUS
 62
     5
 10
-7.0710680000000004
 20
-13.558938961281569
 30
7.0710679999999986
 11
-7.0710680000000021
 21
-14.74384448098672
 31
7.0710680000000004
 12
-3.8268339999999998
 22
-14.74384448098672
 32
9.2387940000000022
 13
-3.826834000000003
 23
-13.558938961281569
 33
9.2387940000000022
  0
3DFACE
  5
432
  8
0
  6
CONTINUOUS
 62
     5
 10
-9.2387940000000022
 20
-13.558938961281569
 30
3.8268339999999981
 11
-9.2387940000000022
 21
-14.74384448098672
 31
3.8268339999999981
 12
-7.0710680000000021
 22
-14.743844480986739
 32
7.0710680000000004
 13
-7.0710680000000004
 23
-13.558938961281569
 33
7.0710679999999986
  0
3DFACE
  5
433
  8
0
  6
CONTINUOUS
 62
     5
 10
-9.2387940000000022
 20
-13.558938961281569
 30
3.8268339999999981
 11
-10.0
 21
-13.558938961281569
 31
-0.0000000000000005
 12
-10.0
 22
-14.74384448098672
 32
-0.0000000000000005
 13
-9.2387940000000022
 23
-14.74384448098672
 33
3.8268339999999981
  0
3DFACE
  5
434
  8
0
  6
CONTINUOUS
 62
     5
 10
-10.0
 20
-13.558938961281569
 30
-0.0000000000000005
 11
-9.2387940000000022
 21
-13.558938961281569
 31
-3.826833999999999
 12
-9.2387940000000022
 22
-14.74384448098672
 32
-3.826833999999999
 13
-10.0
 23
-14.74384448098672
 33
-0.0000000000000005
  0
3DFACE
  5
435
  8
0
  6
CONTINUOUS
 62
     5
 10
-9.2387940000000022
 20
-13.558938961281569
 30
-3.826833999999999
 11
-7.0710680000000004
 21
-13.558938961281569
 31
-7.0710680000000012
 12
-7.0710680000000021
 22
-14.74384448098672
 32
-7.0710680000000021
 13
-9.2387940000000022
 23
-14.74384448098672
 33
-3.826833999999999
  0
3DFACE
  5
436
  8
0
  6
CONTINUOUS
 62
     5
 10
-7.0710680000000004
 20
-13.558938961281569
 30
-7.0710680000000012
 11
-3.8268339999999998
 21
-13.558938961281569
 31
-9.2387939999999986
 12
-3.8268339999999998
 22
-14.74384448098672
 32
-9.2387939999999986
 13
-7.071068000000003
 23
-14.74384448098672
 33
-7.071068000000003
  0
3DFACE
  5
437
  8
0
  6
CONTINUOUS
 62
     5
 10
-3.8268339999999998
 20
-13.558938961281569
 30
-9.2387939999999986
 11
-0.0000000000000025
 21
-13.558938961281569
 31
-10.0
 12
-0.0000000000000027
 22
-14.74384448098672
 32
-10.0
 13
-3.8268339999999998
 23
-14.74384448098672
 33
-9.2387939999999986
  0
3DFACE
  5
438
  8
0
  6
CONTINUOUS
 62
     5
 10
-0.0000000000000025
 20
-13.558938961281569
 30
-10.0
 11
3.8268339999999959
 21
-13.558938961281569
 31
-9.2387939999999986
 12
3.8268339999999959
 22
-14.74384448098672
 32
-9.2387939999999986
 13
-0.0000000000000027
 23
-14.74384448098672
 33
-10.0
  0
3DFACE
  5
439
  8
0
  6
CONTINUOUS
 62
     5
 10
3.8268339999999959
 20
-14.74384448098672
 30
-9.2387939999999986
 11
3.8268339999999959
 21
-13.558938961281569
 31
-9.2387939999999986
 12
7.0710679999999977
 22
-13.558938961281569
 32
-7.0710680000000012
 13
7.0710679999999977
 23
-14.74384448098672
 33
-7.0710680000000012
  0
3DFACE
  5
43A
  8
0
  6
CONTINUOUS
 62
     5
 10
7.0710679999999977
 20
-13.558938961281569
 30
-7.0710680000000012
 11
9.2387939999999986
 21
-13.558938961281569
 31
-3.826833999999999
 12
9.2387939999999986
 22
-14.74384448098672
 32
-3.826833999999999
 13
7.0710679999999977
 23
-14.74384448098672
 33
-7.0710680000000012
  0
3DFACE
  5
43B
  8
0
  6
CONTINUOUS
 62
     5
 10
9.2387939999999986
 20
-13.558938961281569
 30
-3.8268339999999972
 11
9.9999999999999982
 21
-13.558938961281569
 31
-0.0000000000000005
 12
9.9999999999999964
 22
-14.74384448098672
 32
-0.0000000000000016
 13
9.2387939999999986
 23
-14.74384448098672
 33
-3.826833999999999
  0
3DFACE
  5
43C
  8
0
  6
CONTINUOUS
 62
     5
 10
9.9999999999999982
 20
-13.558938961281569
 30
-0.0000000000000005
 11
9.2387939999999986
 21
-13.558938961281569
 31
3.8268339999999981
 12
9.2387939999999986
 22
-14.74384448098672
 32
3.8268339999999981
 13
9.9999999999999911
 23
-14.74384448098672
 33
-0.0000000000000025
  0
3DFACE
  5
43D
  8
0
  6
CONTINUOUS
 62
     5
 10
9.2387939999999986
 20
-13.558938961281569
 30
3.8268339999999981
 11
7.0710679999999977
 21
-13.558938961281569
 31
7.0710679999999986
 12
7.0710679999999977
 22
-14.74384448098672
 32
7.0710679999999986
 13
9.2387939999999986
 23
-14.74384448098672
 33
3.8268339999999981
  0
3DFACE
  5
43E
  8
ESCOVADO
 62
     5
 10
-6.6519316799999997
 20
-0.7212159612815725
 30
-2.7553204799999991
 11
-6.6519316799999997
 21
-0.7212159612815725
 31
2.7553204799999982
 12
-7.2000000000000011
 22
-0.7212159612815725
 32
-0.0000000000000006
 13
-6.6519316799999997
 23
-0.7212159612815725
 33
-2.7553204799999991
  0
3DFACE
  5
43F
  8
ESCOVADO
 62
     5
 10
-5.0911689600000001
 20
-0.7212159612815725
 30
-5.0911689600000001
 11
-5.0911689600000001
 21
-0.7212159612815725
 31
5.0911689599999992
 12
-6.6519316799999997
 22
-0.7212159612815725
 32
2.7553204799999982
 13
-6.6519316799999997
 23
-0.7212159612815725
 33
-2.7553204799999991
  0
3DFACE
  5
440
  8
ESCOVADO
 62
     5
 10
-2.75532048
 20
-0.7212159612815725
 30
-6.6519316799999997
 11
-2.75532048
 21
-0.7212159612815725
 31
6.6519316799999988
 12
-5.0911689600000001
 22
-0.7212159612815725
 32
5.0911689599999992
 13
-5.0911689600000001
 23
-0.7212159612815725
 33
-5.0911689600000001
  0
3DFACE
  5
441
  8
ESCOVADO
 62
     5
 10
-2.75532048
 20
-0.7212159612815725
 30
-6.6519316799999997
 11
-2.75532048
 21
-0.7212159612815725
 31
6.6519316799999988
 12
-0.0000000000000012
 22
-0.7212159612815725
 32
7.1999999999999993
 13
-0.0000000000000012
 23
-0.7212159612815725
 33
-7.2000000000000011
  0
3DFACE
  5
442
  8
ESCOVADO
 62
     5
 10
6.6519316799999997
 20
-0.7212159612815725
 30
-2.7553204799999991
 11
6.6519316799999997
 21
-0.7212159612815725
 31
2.7553204799999982
 12
7.1999999999999993
 22
-0.7212159612815725
 32
-0.0000000000000006
 13
6.6519316799999997
 23
-0.7212159612815725
 33
-2.7553204799999991
  0
3DFACE
  5
443
  8
ESCOVADO
 62
     5
 10
5.0911689599999992
 20
-0.7212159612815725
 30
-5.0911689600000001
 11
5.0911689599999992
 21
-0.7212159612815725
 31
5.0911689599999992
 12
6.6519316799999997
 22
-0.7212159612815725
 32
2.7553204799999982
 13
6.6519316799999997
 23
-0.7212159612815725
 33
-2.7553204799999991
  0
3DFACE
  5
444
  8
ESCOVADO
 62
     5
 10
2.7553204799999982
 20
-0.7212159612815725
 30
-6.6519316799999997
 11
2.7553204799999982
 21
-0.7212159612815725
 31
6.6519316799999988
 12
5.0911689599999992
 22
-0.7212159612815725
 32
5.0911689599999992
 13
5.0911689599999992
 23
-0.7212159612815725
 33
-5.0911689600000001
  0
3DFACE
  5
445
  8
ESCOVADO
 62
     5
 10
2.7553204799999982
 20
-0.7212159612815725
 30
-6.6519316799999997
 11
2.7553204799999982
 21
-0.7212159612815725
 31
6.6519316799999988
 12
-0.0000000000000012
 22
-0.7212159612815725
 32
7.1999999999999993
 13
-0.0000000000000012
 23
-0.7212159612815725
 33
-7.2000000000000011
  0
3DFACE
  5
446
  8
ESCOVADO
 62
     5
 10
-6.6519316799999997
 20
0.1319160129061423
 30
-2.7553204799999991
 11
-6.6519316799999997
 21
0.1319160129061423
 31
2.7553204799999982
 12
-7.2000000000000011
 22
0.1319160129061423
 32
-0.0000000000000006
 13
-6.6519316799999997
 23
0.1319160129061423
 33
-2.7553204799999991
  0
3DFACE
  5
447
  8
ESCOVADO
 62
     5
 10
-5.0911689600000001
 20
0.1319160129061423
 30
-5.0911689600000001
 11
-5.0911689600000001
 21
0.1319160129061423
 31
5.0911689599999992
 12
-6.6519316799999997
 22
0.1319160129061423
 32
2.7553204799999982
 13
-6.6519316799999997
 23
0.1319160129061423
 33
-2.7553204799999991
  0
3DFACE
  5
448
  8
ESCOVADO
 62
     5
 10
-2.75532048
 20
0.1319160129061423
 30
-6.6519316799999997
 11
-2.75532048
 21
0.1319160129061423
 31
6.6519316799999988
 12
-5.0911689600000001
 22
0.1319160129061423
 32
5.0911689599999992
 13
-5.0911689600000001
 23
0.1319160129061423
 33
-5.0911689600000001
  0
3DFACE
  5
449
  8
ESCOVADO
 62
     5
 10
-2.75532048
 20
0.1319160129061423
 30
-6.6519316799999997
 11
-2.75532048
 21
0.1319160129061423
 31
6.6519316799999988
 12
-0.0000000000000012
 22
0.1319160129061423
 32
7.1999999999999993
 13
-0.0000000000000012
 23
0.1319160129061423
 33
-7.2000000000000011
  0
3DFACE
  5
44A
  8
ESCOVADO
 62
     5
 10
6.6519316799999997
 20
0.1319160129061423
 30
-2.7553204799999991
 11
6.6519316799999997
 21
0.1319160129061423
 31
2.7553204799999982
 12
7.1999999999999993
 22
0.1319160129061423
 32
-0.0000000000000006
 13
6.6519316799999997
 23
0.1319160129061423
 33
-2.7553204799999991
  0
3DFACE
  5
44B
  8
ESCOVADO
 62
     5
 10
5.0911689599999992
 20
0.1319160129061423
 30
-5.0911689600000001
 11
5.0911689599999992
 21
0.1319160129061423
 31
5.0911689599999992
 12
6.6519316799999997
 22
0.1319160129061423
 32
2.7553204799999982
 13
6.6519316799999997
 23
0.1319160129061423
 33
-2.7553204799999991
  0
3DFACE
  5
44C
  8
ESCOVADO
 62
     5
 10
2.7553204799999982
 20
0.1319160129061423
 30
-6.6519316799999997
 11
2.7553204799999982
 21
0.1319160129061423
 31
6.6519316799999988
 12
5.0911689599999992
 22
0.1319160129061423
 32
5.0911689599999992
 13
5.0911689599999992
 23
0.1319160129061423
 33
-5.0911689600000001
  0
3DFACE
  5
44D
  8
ESCOVADO
 62
     5
 10
2.7553204799999982
 20
0.1319160129061423
 30
-6.6519316799999997
 11
2.7553204799999982
 21
0.1319160129061423
 31
6.6519316799999988
 12
-0.0000000000000012
 22
0.1319160129061423
 32
7.1999999999999993
 13
-0.0000000000000012
 23
0.1319160129061423
 33
-7.2000000000000011
  0
3DFACE
  5
44E
  8
0
  6
CONTINUOUS
 62
     5
 10
2.7553204799999982
 20
0.1319160129061423
 30
6.6519316799999988
 11
2.7553204799999982
 21
-0.7212159612815725
 31
6.6519316799999988
 12
5.0911689599999992
 22
-0.7212159612815725
 32
5.0911689599999992
 13
5.0911689599999992
 23
0.1319160129061423
 33
5.0911689599999992
  0
3DFACE
  5
44F
  8
0
  6
CONTINUOUS
 62
     5
 10
-0.0000000000000012
 20
0.1319160129061423
 30
7.1999999999999993
 11
-0.0000000000000012
 21
-0.7212159612815725
 31
7.1999999999999993
 12
2.7553204799999982
 22
-0.7212159612815725
 32
6.6519316799999988
 13
2.7553204799999969
 23
0.1319160129061423
 33
6.6519316799999988
  0
3DFACE
  5
450
  8
0
  6
CONTINUOUS
 62
     5
 10
-2.75532048
 20
0.1319160129061423
 30
6.6519316799999988
 11
-2.75532048
 21
-0.7212159612815725
 31
6.6519316800000023
 12
-0.0000000000000012
 22
-0.7212159612815725
 32
7.1999999999999993
 13
-0.000000000000002
 23
0.1319160129061485
 33
7.1999999999999984
  0
3DFACE
  5
451
  8
0
  6
CONTINUOUS
 62
     5
 10
-5.0911689600000001
 20
0.1319160129061423
 30
5.0911689599999992
 11
-5.0911689600000019
 21
-0.7212159612815725
 31
5.0911689600000001
 12
-2.75532048
 22
-0.7212159612815725
 32
6.6519316800000023
 13
-2.7553204800000022
 23
0.131916012906137
 33
6.6519316799999988
  0
3DFACE
  5
452
  8
0
  6
CONTINUOUS
 62
     5
 10
-6.6519316799999997
 20
0.1319160129061423
 30
2.7553204799999982
 11
-6.6519316799999997
 21
-0.7212159612815725
 31
2.7553204799999982
 12
-5.0911689600000019
 22
-0.7212159612815725
 32
5.0911689600000001
 13
-5.0911689599999992
 23
0.1319160129061485
 33
5.0911689599999992
  0
3DFACE
  5
453
  8
0
  6
CONTINUOUS
 62
     5
 10
-6.6519316799999997
 20
0.1319160129061423
 30
2.7553204799999982
 11
-7.2000000000000011
 21
0.1319160129061423
 31
-0.0000000000000006
 12
-7.2000000000000011
 22
-0.7212159612815725
 32
-0.0000000000000006
 13
-6.6519316799999997
 23
-0.7212159612815725
 33
2.7553204799999982
  0
3DFACE
  5
454
  8
0
  6
CONTINUOUS
 62
     5
 10
-7.2000000000000011
 20
0.1319160129061423
 30
-0.0000000000000006
 11
-6.6519316799999997
 21
0.1319160129061423
 31
-2.7553204799999991
 12
-6.6519316799999997
 22
-0.7212159612815725
 32
-2.7553204799999991
 13
-7.2000000000000011
 23
-0.7212159612815725
 33
-0.0000000000000006
  0
3DFACE
  5
455
  8
0
  6
CONTINUOUS
 62
     5
 10
-6.6519316799999997
 20
0.1319160129061423
 30
-2.7553204799999991
 11
-5.0911689600000001
 21
0.1319160129061423
 31
-5.0911689600000001
 12
-5.0911689600000019
 22
-0.7212159612815725
 32
-5.091168960000001
 13
-6.6519316799999997
 23
-0.7212159612815725
 33
-2.7553204799999991
  0
3DFACE
  5
456
  8
0
  6
CONTINUOUS
 62
     5
 10
-5.0911689600000001
 20
0.1319160129061423
 30
-5.0911689600000001
 11
-2.75532048
 21
0.1319160129061423
 31
-6.6519316799999997
 12
-2.75532048
 22
-0.7212159612815725
 32
-6.6519316799999997
 13
-5.0911689600000019
 23
-0.7212159612815725
 33
-5.0911689600000019
  0
3DFACE
  5
457
  8
0
  6
CONTINUOUS
 62
     5
 10
-2.75532048
 20
0.1319160129061423
 30
-6.6519316799999997
 11
-0.0000000000000012
 21
0.1319160129061423
 31
-7.2000000000000011
 12
-0.0000000000000013
 22
-0.7212159612815725
 32
-7.2000000000000011
 13
-2.75532048
 23
-0.7212159612815725
 33
-6.6519316799999997
  0
3DFACE
  5
458
  8
0
  6
CONTINUOUS
 62
     5
 10
-0.0000000000000012
 20
0.1319160129061423
 30
-7.2000000000000011
 11
2.7553204799999982
 21
0.1319160129061423
 31
-6.6519316799999997
 12
2.7553204799999982
 22
-0.7212159612815725
 32
-6.6519316799999997
 13
-0.0000000000000013
 23
-0.7212159612815725
 33
-7.2000000000000011
  0
3DFACE
  5
459
  8
0
  6
CONTINUOUS
 62
     5
 10
2.7553204799999982
 20
-0.7212159612815725
 30
-6.6519316799999997
 11
2.7553204799999982
 21
0.1319160129061423
 31
-6.6519316799999997
 12
5.0911689599999992
 22
0.1319160129061423
 32
-5.0911689600000001
 13
5.0911689599999992
 23
-0.7212159612815725
 33
-5.0911689600000001
  0
3DFACE
  5
45A
  8
0
  6
CONTINUOUS
 62
     5
 10
5.0911689599999992
 20
0.1319160129061423
 30
-5.0911689600000001
 11
6.6519316799999997
 21
0.1319160129061423
 31
-2.7553204799999991
 12
6.6519316799999997
 22
-0.7212159612815725
 32
-2.7553204799999991
 13
5.0911689599999992
 23
-0.7212159612815725
 33
-5.0911689600000001
  0
3DFACE
  5
45B
  8
0
  6
CONTINUOUS
 62
     5
 10
6.6519316799999997
 20
0.1319160129061423
 30
-2.7553204799999991
 11
7.1999999999999993
 21
0.1319160129061423
 31
-0.0000000000000006
 12
7.1999999999999966
 22
-0.7212159612815725
 32
-0.0000000000000014
 13
6.6519316799999997
 23
-0.7212159612815725
 33
-2.7553204799999991
  0
3DFACE
  5
45C
  8
0
  6
CONTINUOUS
 62
     5
 10
7.1999999999999993
 20
0.1319160129061423
 30
-0.0000000000000006
 11
6.6519316799999997
 21
0.1319160129061423
 31
2.7553204799999982
 12
6.6519316799999997
 22
-0.7212159612815725
 32
2.7553204799999982
 13
7.1999999999999931
 23
-0.7212159612815672
 33
-0.000000000000002
  0
3DFACE
  5
45D
  8
0
  6
CONTINUOUS
 62
     5
 10
6.6519316799999997
 20
0.1319160129061423
 30
2.7553204799999982
 11
5.0911689599999992
 21
0.1319160129061423
 31
5.0911689599999992
 12
5.0911689599999992
 22
-0.7212159612815725
 32
5.0911689599999992
 13
6.6519316799999997
 23
-0.7212159612815725
 33
2.7553204799999982
  0
ENDSEC
  0
EOF
